<?xml version="1.0" encoding="UTF-8"?>
<!-- Created with Inkscape (http://www.inkscape.org/) -->
<svg version="1.1" viewBox="0 0 145.83 309.33" xmlns="http://www.w3.org/2000/svg">
 <g transform="translate(-44.123 -.22305)">
  <path d="m107.18 56.04c-0.6091-13.772-2.3731-27.359-5.8249-36.168-6.0639-15.436-17.962-21.031-25.998-17.623-5.9452 2.5222-6.996 12.803-1.9067 23.924 7.0049 15.313 17.119 17.242 25.393 33.082" fill="#60615f"/>
  <path d="m123.52 56.298c0.50878-13.089 1.7741-24.722 4.6177-33.578 5.6473-17.534 17.043-22.876 23.578-21.238 5.7205 1.4445 9.8167 12.069 4.4364 25.491-5.1714 12.912-14.345 16.318-22.966 32.56" fill="#60615f"/>
  <path d="m103.43 56.794c-1.0926-8.3289-6.0606-23.474-9.6719-31.449-4.9145-10.862-10.61-12.397-13.681-10.815-2.716 1.3872-4.1659 7.1737-0.31158 15.96 2.3536 5.3688 15.037 20.194 18.802 28.178" fill="#f09cb4"/>
  <path d="m125.77 56.535c1.128-9.7511 3.0893-21.431 5.4759-28.565 3.5312-10.565 10.353-14.375 14.201-12.565 3.3241 1.5582 4.6602 7.9638 1.8192 15.289-1.8424 4.7587-14.378 21.143-17.054 27.82" fill="#f09cb4"/>
  <g fill="#0f141b">
   <path d="m98.159 59.614c-3.9876-7.6375-8.4346-12.021-12.727-16.254-4.65-4.5855-9.7584-8.6404-13.401-16.602-6.067-13.259-3.1397-22.811 2.9114-25.375 9.0603-3.8445 21.377 1.7925 27.776 18.097 3.9773 10.121 4.7324 25.499 5.2314 36.524 0.0127 0.42526-1.522 0.4994-1.5356 0.07642-0.48916-10.906-1.8874-26-5.7821-35.92-6.3013-16.05-17.692-20.288-24.978-17.194-5.8819 2.495-6.6311 11.679-1.5011 22.895 3.5224 7.6985 7.8147 11.931 12.357 16.406 4.3765 4.3241 8.9069 8.7885 13.01 16.635 0.19577 0.37696-1.2312 0.9673-1.3616 0.71599"/>
   <path d="m132.51 59.176c7.4714-15.347 17.63-18.879 22.928-32.491 4.948-12.707 0.91438-23.239-3.9118-24.452-5.7205-1.4445-16.924 2.9189-22.658 20.723-2.55 7.9239-4.0105 18.534-4.5808 33.367-0.0166 0.42775-1.5437 0.37012-1.5358-0.05689 0.47466-15.58 1.5715-26.094 4.1648-34.153 6.0539-18.815 18.72-22.951 24.988-21.378 5.9548 1.5014 11.142 12.352 5.5476 26.743-4.939 12.685-14.664 15.776-23.58 32.414-0.15144 0.27497-1.5486-0.34058-1.3615-0.71686"/>
   <path d="m97.871 58.994c-5.3847-11.774-15.576-19.974-19.045-28.071-4.4209-10.324-2.0711-15.552 0.90632-17.082 3.8587-1.9753 10.002 0.07902 14.973 11.09 3.7055 8.1862 8.1956 23.634 9.2775 31.832 0.058 0.42149-1.2549 0.55346-1.3121 0.13273-1.0603-8.0692-5.9463-23.155-9.6102-31.236-4.3507-9.6193-9.8337-11.882-12.634-10.455-2.212 1.1371-3.7038 6.5553 0.0426 14.968 3.6023 8.1292 9.4206 11.129 18.79 28.168 0.20612 0.3656-1.2674 0.92658-1.3888 0.65233"/>
   <path d="m129.5 58.231c1.4638-3.6661 5.6619-9.9349 9.7353-15.996 3.3328-4.9823 6.491-9.6983 7.3196-11.813 2.7586-7.1322 1.403-12.989-1.4319-14.326-1.1379-0.5279-2.6194-0.45824-4.1611 0.19644-3.6526 1.5643-7.0183 6.0243-8.984 11.92-2.0641 6.1553-4.0921 16.78-5.4453 28.409-0.0525 0.42027-1.5763 0.24174-1.5241-0.17853 1.3558-11.728 3.4181-22.465 5.5066-28.721 2.1418-6.4024 5.73-11.078 9.8368-12.833 1.9525-0.84203 3.8828-0.90591 5.42-0.18149 3.5404 1.6603 5.3363 8.2024 2.2072 16.262-0.88009 2.2829-3.9308 6.8478-7.4688 12.121-3.8391 5.7247-8.1837 12.203-9.5843 15.71-0.12621 0.31707-1.5784-0.17397-1.4257-0.56894"/>
   <path d="m100.65 179.85c-0.0224 4.6825-1.028 14.981-7.5827 16.887-9.5442 2.7696-17.335-6.7905-13.73-18.959 2.7663-9.3856 9.0804-12.464 13.211-11.465 4.1519 0.99655 8.1416 3.319 8.1026 13.537"/>
   <path d="m155.32 184.35c0.41512-10.818-8.7672-21.584-12.673-21.738-2.8861-0.11887-8.7368 7.5683-9.145 17.948-0.55686 14.34 3.1768 18.171 10.254 18.452 7.9433 0.30654 11.359-9.418 11.564-14.663"/>
  </g>
  <path d="m153.11 180.96c-1.046-7.3815-6.6496-15.769-9.876-15.903-4.2563-0.15676-7.1374 4.9954-7.582 16.373-0.38487 10.006 1.6968 14.741 4.7941 15.422 1.1467 0.24243 3.052-2.334 3.6905-6.0621 0.56179-3.3389 1.9572-3.3905 1.6942 0.12002-0.30995 4.1271-2.5492 6.2397-2.5492 6.2397 1.3774-6e-3 2.9411-0.26948 4.347-1.1082 0.98784-0.60822 1.4789-2.7051 1.7384-5.9967 0.22274-2.8183 1.2444-3.0244 1.3274-0.0814 0.0563 1.581-0.28497 2.9876-0.28497 2.9876 1.7008-2.4065 2.4687-4.7238 2.7706-6.7286 0.35173-2.3261 0.0835-4.2173-0.0703-5.2652" fill="#b1826f"/>
  <path d="m149.84 171.73c-2.111-3.7816-4.7535-6.6-6.6079-6.674-4.2563-0.15673-7.1374 4.9954-7.5812 16.384-9.7e-4 0.0764 5e-3 0.14203-4e-3 0.23031 4.7002-0.54738 10.724-3.9623 14.192-9.94" fill="#956e5d"/>
  <path d="m90.989 168.28c-3.2364-0.12172-8.6351 3.6994-10.254 10.988-0.54781 2.4628-0.82593 5.0124-0.35554 7.6194 0.07549-0.66273 0.31064-1.8961 0.55511-2.376 0.60198-1.166 1.2471-1.4279 1.4174-1.2236 0.15966 0.20543-0.08947 0.63096-0.35789 1.3424-0.61141 1.5714-0.9401 4.8251 0.01262 6.4074 0 0 5.85e-4 7e-3 0.0089 0.0219 1.0418 1.7279 3.0131 3.4543 5.1411 4.1833 0 0-1.6273-1.6678-1.7549-4.752-0.16123-3.6172 1.6541-4.9179 2.0596-4.7769 0.59778 0.21208-0.44615 2.6292-0.22836 4.8309 0.25324 2.658 2.622 4.9198 3.5632 4.797 2.9519-0.40062 5.4502-2.426 6.6163-6.1218 0.03553-0.1124 0.05853-0.21244 0.09433-0.31437 0.79206-2.6802 0.91861-4.4296 1.085-7.6588 0.54365-10.85-4.3699-12.844-7.6062-12.966" fill="#b1826f"/>
  <path d="m90.989 168.28c-2.2273-0.0866-5.4996 1.7084-7.8287 5.2284 3.3509 3.9618 9.606 8.1283 15.391 8.5175 0.0089-0.25252 0.02496-0.50489 0.04393-0.78013 0.54366-10.85-4.3699-12.844-7.6062-12.966" fill="#956e5d"/>
  <path d="m105.1 176.39c1.6035 2.818 3.0189 13.165 1.8948 21.133-1.6013 11.409-5.525 19.383-15.369 28.357-10.138 9.2498-22.1 23.465-25.212 37.068-6.0248 26.326 10.162 42.497 28.954 45.152 17.298 2.4411 35.35-6.7185 42.889-26.599 7.4136-19.552 4.7984-46.017-8.0668-82.808-2.7197-7.7768-2.4284-19.809-2.0777-23.447 0.35095-3.6383-26.13-4.3462-23.012 1.1444" fill="#b1826f"/>
  <path d="m73.34 295.78c-4.1004-5.594-6.4103-15.264-4.24-22.369 4.4798-14.768 16.066-23.953 33.66-23.462 14.688 0.40737 29.258 12.821 29.008 30.679-0.10628 8.2437-3.0639 17.044-9.286 21.219 9.7197-7.4541 16.938-20.604 18.316-31.415 3.6223-11.043-4.8938-36.411-28.704-38.655-17.065-1.6187-29.22 6.1274-36.77 14.679-7.7279 8.7742-10.622 18.466-10.224 27.115 0.11469 2.6697-0.52671 13.397 8.24 22.208" fill="#60615f"/>
  <path d="m126.67 297.73c5.8509-7.1621 5.634-18.605 4.72-21.546 2.9116-5.5702 6.6025-13.973 7.7404-23.867 0.76369 2.1887 2.718 6.4536 2.1922 9.4396-0.53664 2.9869-0.55741 23.975-14.653 35.974" fill="#4a4b4a"/>
  <path d="m72.947 249.15c-3.4673 7.1589-4.0347 17.596-3.1575 22.443-2.6632 9.3113-1.0248 15.801 0.59601 20.258-6.3991-7.3149-8.115-31.011 2.5615-42.701" fill="#4a4b4a"/>
  <path d="m103.06 211.32c2.8912-1.905 7.4073-6.0789 16.743-5.4737 7.3996 0.47244 13.851 6.58 15.033 9.2038 2.6579 5.8682 4.5363 14.044 5.8562 23.775-1.7598-6.7638-8.9688-18.254-22.662-20.09-12.775-1.7163-20.034 3.7815-24.285 6.1723 2.8847-3.676 7.5509-9.7106 9.3142-13.588" fill="#60615f"/>
  <path d="m107.22 197.61c2.4356-2.6432 6.6551-4.8784 10.673-4.822 5.9332 0.0706 9.2639 1.9673 11.996 4.4172-1.8541-8.5384-2.8243-10.196-1.3546-19.002 1.0911-6.5438-23.59-3.269-22.896-0.0793 1.6408 7.5612 2.2533 14.596 1.5833 19.486" fill="#60615f"/>
  <path d="m127.82 184.78c0.0368-1.7748 0.25868-3.8275 0.70644-6.5662 1.0911-6.5438-23.579-3.2699-22.886-0.0911 0.51712 2.3843 0.9183 4.691 1.2147 6.9189 5.5086 1.2655 14.674 1.535 20.964-0.26162" fill="#4a4b4a"/>
  <path d="m139.25 253.01c-0.39597-2.1102 1.0128-10.212-1.0841-20.6 1.4838 2.3032 1.9936 4.207 2.5629 5.909 2.3737 7.1716 1.947 22.835 1.1232 23.932-0.37203-2.3528-1.0033-5.5696-2.6021-9.2412" fill="#956e5d"/>
  <path d="m69.651 270.77c1.9957 12.31 15.356 19.697 26.804 21.361 11.459 1.6736 27.852-3.541 34.897-16.151 1.7125 7.763-1.4808 18.967-5.8586 22.834-8.5233 7.5068-19.952 10.107-28.382 9.4691-6.3833-0.48118-16.647-2.6379-25.325-14.562-3.0905-4.2462-4.579-18.721-2.1341-22.95" fill="#956e5d"/>
  <g fill="#0f141b">
   <path d="m74.41 297.4c-3.1809-2.5873-6.6202-10.599-7.0197-17.182-1.0583-17.168 15.001-33.903 37.664-31.256 19.869 2.3237 29.076 20.415 28.06 34.116-0.51165 6.9326-4.5676 13.332-8.0063 16.792-1.5719 1.5974-2.5889 1.8577-4.4003 2.5565 4.5633-3.8716 9.6361-11.056 9.9613-19.427 0.51045-13.33-7.5989-29.163-26.14-31.565-20.896-2.7078-35.294 13.111-34.673 28.719 0.25221 6.3873 2.5433 13.883 8.5277 20.686-0.96077-0.89263-3.205-2.0931-3.9741-3.4393"/>
   <path d="m69.065 256.28c8.4801-14.535 23.725-25.22 42.789-23.233 16.46 1.7131 30.579 16.954 29.039 35.871-0.0942 1.0906 0.71206-3.2422 0.91545-6.6822 0.70668-12.034-10.49-29.598-29.274-31.247-19.478-1.7113-31.239 6.439-39.673 17.744-1.2542 1.7348-1.5473 3.4544-3.7955 7.5473"/>
   <path d="m92.463 225.43c5.165-4.1299 12.688-8.8296 24.904-7.5257 14.886 1.5937 22.999 14.342 23.073 20.427 0.0248 2.6444 0.28339 5.0724 0.26694 4.4832-0.19391-8.9512-9.8984-21.642-23.528-23.112-10.683-1.1591-18.495 2.0554-26.813 8.6265 0.25719-0.32804 1.1194-1.6469 2.0969-2.8991"/>
   <path d="m103.41 210.28c2.071-2.2954 6.821-5.7672 15.4-5.3172 9.8096 0.52161 15.022 6.591 16.257 9.3197 1.0874 2.4021 0.72504 5.254 0.56894 4.6984-1.5329-5.6236-8.716-11.724-17.098-12.049-6.5722-0.25755-11.4 1.1211-16.734 6.49 0.24517-0.33754 0.68306-1.8946 1.6063-3.1422"/>
   <path d="m107.06 197.13c2.2244-3.0738 6.9816-5.1572 11.96-5.258 5.4688-0.12046 9.9973 2.4962 10.751 4.9592 0.90887 3.0076 0.87885 3.0429 0.21527 1.9394-1.7765-2.9239-6.1307-4.8987-10.891-4.9365-4.9793-0.0413-9.3156 2.2365-11.664 5.2661-1.0554 1.368-0.89224-1.2484-0.3729-1.97"/>
   <path d="m129.37 177.97c-3.2407 21.061 15.513 47.231 14.212 80.848-1.3099 33.64-19.191 51.741-46.587 50.684-16.852-0.65222-34.052-16.509-33.266-36.599 0.76792-20.034 10.836-31.804 27.844-47.929 9.1868-8.7216 15.397-22.027 14.887-35.009-0.17831-4.3375-0.80675-9.0748-1.6313-11.488-0.7922-4.4829 1.633-2.4336 2.2454 0.17267 0.9366 3.9895 1.2954 7.612 1.471 11.141 0.72906 14.549-5.1767 26.659-15.934 36.989-14.432 13.853-25.51 27.01-25.704 46.58-0.20349 19.592 15.877 33.072 30.327 33.63 26.892 1.0452 41.91-20.283 43.322-48.277 1.6777-33.036-15.181-58.13-13.557-79.821 0.39855-5.2827 2.4011-1.0983 2.3723-0.92074"/>
   <path d="m157.31 149.69c26.686-12.87 38.386-34.51 29.929-49.668-5.0717-9.0886-19.473-9.9794-27.693-8.7644-6.0974-17.139-20.307-35.554-43.117-36.439-25.926-1.0059-37.471 21.835-42.856 34.284 0 0-24.066-4.9022-28.681 9.9534-5.1015 16.351 16.508 39.023 26.904 42.743 5.2201 22.451 20.492 37.89 44.038 38.811 17.203 0.66641 31.819-9.4296 41.476-30.92"/>
  </g>
  <path d="m71.544 139.59c-0.10614-1.1831-0.13891-1.924-0.21373-3.591-0.22022-4.837 1.1132-4.4568 1.5973 8e-3 2.3434 21.533 17.411 41.834 41.999 42.788 18.422 0.71732 32.3-10.224 40.393-30.02 0.0631-0.15813 0.13743-0.31803 0.20056-0.47616 0.0503-0.0268 0.1049-0.0537 0.16858-0.0815 6.6671-3.0422 24.591-13.722 30.185-29.294 2.3383-6.2767 2.33-12.63-0.98612-18.388-4.827-8.3873-20.363-7.1706-25.247-6.9902-1.3088 0.04253-1.5985-0.4128-1.8794-1.1545-5.497-14.936-19.781-34.625-40.89-35.434-23.096-0.9046-35.385 18.937-41.353 33.305-0.8368 2.0168-2.0549 4.9624-3.0668 4.7631-0.45502-0.08252-0.63109-0.87662 0.32977-3.7569-10.552-1.2905-22.598-1.0886-25.985 8.5789-0.97127 2.7608-1.108 5.561-0.65561 8.3445 1.8023 11.047 15.804 27.38 25.404 31.397" fill="#b1826f"/>
  <path d="m47.96 114c4.4833 10.286 15.569 22.227 23.583 25.59-0.10705-1.194-0.1389-1.924-0.21464-3.6018-0.04193-1.0354-0.02204-1.8245 0.05127-2.3884-8.3677-4.5796-17.067-12.456-23.419-19.6" fill="#956e5d"/>
  <path d="m152.59 141.97c-4.488 16.234-18.418 29.422-40.592 28.56-17.467-0.67719-32.596-18.447-39.053-34.396 2.3836 21.486 17.445 41.711 41.977 42.659 18.422 0.71732 32.3-10.224 40.394-30.009 0.0622-0.16935 0.13743-0.31799 0.19962-0.48731 0.0502-0.0268 0.10492-0.0537 0.16769-0.0815 6.3939-2.9098 23.143-12.868 29.434-27.427-8.4754 10.291-22.214 20.937-32.528 21.18" fill="#956e5d"/>
  <g fill="#0f141b">
   <path d="m101.53 67.949c-1.0092-0.036-1.8869 1.6238-1.9634 3.7081-0.08721 2.0851 0.66928 3.8042 1.6684 3.8515 0.99826 0.03691 1.8868-1.6238 1.9634-3.7081 0.0769-2.0842-0.67018-3.8151-1.6684-3.8515"/>
   <path d="m125.08 68.287c-1.0092-0.036-1.8869 1.6238-1.9634 3.7081-0.0872 2.0852 0.66929 3.8042 1.6684 3.8515 1.0091 0.03602 1.8868-1.6238 1.9634-3.7081 0.0873-2.0851-0.67018-3.815-1.6684-3.8515"/>
   <path d="m148.74 135.84c-0.78227 20.253-16.92 36.448-36.582 35.682-20.155-0.77961-34.193-19.231-33.45-38.399 0.78129-20.264 16.642-35.725 36.304-34.959 19.651 0.7673 34.51 17.411 33.729 37.675"/>
  </g>
  <path d="m146.53 135.92c-0.73957 19.069-15.572 34.399-34.071 33.678-18.498-0.71094-32.137-17.151-31.397-36.22 0.73956-19.069 15.575-33.973 34.074-33.251 18.499 0.7218 32.134 16.725 31.395 35.794" fill="#fffcdb"/>
  <path d="m129.1 135.99c-0.43492 11.104-8.3569 20.561-17.244 20.214-8.8972-0.33581-15.832-10.383-15.407-21.475 0.43484-11.104 8.1029-19.938 17-19.603 8.8873 0.34756 16.086 9.7606 15.651 20.864" fill="#0f141b"/>
  <path d="m49.062 103.85c-3.8512-2.1044-0.81652 4.2133 3.4648 5.3193 3.0856 0.80172 6.9242 0.15159 8.9217-4.0625 1.0412-2.1871 0.40233-6.5407-0.81594-7.2477-0.82832-0.48794 0.10931 3.3919-3.008 4.8128-3.1178 1.4209-7.7259 1.6328-8.5624 1.1781" fill="#956e5d"/>
  <path d="m182.44 109.9c2.4625 0.0224-0.86628 4.1409-5.2559 3.5689-5.1852-0.66927-6.6888-8.8106-5.2842-8.7536 0.61351 0.0159 0.50952-0.83013 0.64783-0.36083 0.53741 1.7156 1.6726 3.1185 3.6623 4.0232 3.1159 1.4226 5.278 1.5144 6.2301 1.522" fill="#956e5d"/>
  <path d="m127.07 136.23c-0.4018 10.456-7.1698 18.679-15.102 18.372-7.9325-0.30746-14.046-9.0352-13.633-19.492 0.40265-10.445 7.1697-18.679 15.103-18.361 7.9324 0.30737 14.034 9.0251 13.632 19.481" fill="#b1826f"/>
  <path d="m61.214 99.293c0.02422 2.5023-0.82386 5.4278-2.9433 7.0164-2.522 1.874-6.7906 0.91997-10.476-1.6797-1.2675-0.89969-0.44146-1.483 0.5134-0.91792 4.1763 2.4599 7.4677 2.3258 8.2473 1.5824 0 0-1.0327-1.6193-2.9992-3.029-1.0466-0.74328-0.64118-1.3897 0.72436-0.88107 1.7389 0.65239 3.6489 2.8214 3.6489 2.8214 0.88559-0.65358 1.511-1.9313 1.5372-3.5739-0.0014-0.098 0.0221-0.647-0.943-1.4628-0.8946-0.75605-2.1934-0.98607-3.017-1.0263-0.7584-0.04574-0.99056-0.72611 0.0031-0.76583 2.5846-0.08585 3.9987 0.73606 3.9987 0.73606-0.51824-1.4875-2.2037-3.1942-5.8978-2.9059-1.1294 0.09481-1.2123-0.76218 0.01351-1.0072 3.7318-0.75086 7.5578 1.7058 7.5907 5.0932" fill="#0f141b"/>
  <path d="m171.25 104.41c-0.25945 5.3804 4.7213 8.9539 11.26 6.2069 1.4259-0.60076 1.0227-1.3654-0.0713-1.2079-1.7736 0.23659-3.3417 0.70689-5.0642 0.38016-1.1449-0.22084-2.358-0.73158-3.1775-1.6361 0 0 1.4146-1.2561 3.7845-1.8159 1.7482-0.40902 1.4002-1.1674-0.39457-1.0496-2.3711 0.15409-4.345 1.2615-4.345 1.2615-0.56065-0.94818-0.64734-2.3735-0.0421-3.8896 0.36068-0.91613 2.4978-1.5111 4.6268-0.77132 0.77751 0.27342 1.2831-0.21713 0.33799-0.79388-1.7754-1.0867-4.0232-0.76682-4.0232-0.76682 1.049-1.1816 3.2684-2.1007 6.5718-0.39886 0.9949 0.51818 0.85396-0.50928-0.17793-1.2099-3.0728-2.0824-8.9638-1.1285-9.2881 5.6899" fill="#0f141b"/>
  <path d="m109.06 85.209c-0.2171-0.8895-1.0046-2.9777-0.87203-4.0059 0.52068-0.83116 3.773-2.996 4.8516-3.0429 1.2772 0.36333 3.6594 2.1643 3.9528 2.6647-0.10823 1.059-0.70681 4.3462-1.055 4.7582-0.67134-0.82948-2.0371-1.4694-3.4228-1.5609-1.3865-0.10243-2.8893 0.49432-3.4545 1.1868" fill="#922f00"/>
  <path d="m109.08 85.299c-0.33401 0.32327 0.4268 4.4588 3.2526 4.6153 2.8236 0.15635 3.541-3.414 3.6201-4.1643 0.0672-0.76027-4.3548-2.8933-6.8728-0.45104" fill="#ed8599"/>
  <g fill="#0f141b">
   <path d="m112.83 78.614c-0.82005 0.0015-3.9581 2.0929-3.986 2.4125 0 0 0.42025 5.0062 1.1342 6.4773 0.53117 1.1146 1.3896 2.0924 2.6221 2.0546 3.4905-0.10718 3.512-7.9281 3.5957-8.6241 0 0-2.6232-2.3278-3.3662-2.3202m-0.34496 0.05907c0.87789 0.03571 3.6128 1.6105 4.9409 2.3192 0.12549 0.0568-0.55489 4.2023-0.83391 5.3084-0.58411 2.2909-1.9431 4.2094-4.1921 4.1248-1.6346-0.05992-3.3105-1.3953-3.8371-4.1508-0.27299-1.4316-0.85912-5.1552-0.85912-5.1552 1.0438-0.7223 4.1126-2.4668 4.7814-2.4464"/>
   <path d="m117.48 80.368c2.0108 1.4169 1.8449 2.3057-0.32402 1.2192-0.67344-0.33684-4.0821-2.3804-4.4007-2.3974-0.48331-0.02676-5.0041 2.3995-5.5542 2.6207-1.3961 0.56528-1.6301-0.39891-0.23596-1.2488 2.8524-1.7158 5.0717-2.766 5.6536-2.7383 0.75666 0.0242 3.0606 1.2851 4.8614 2.5447"/>
   <path d="m108.78 85.024c-0.41506 0.52714-0.0879 1.5603 0.30301 1.0025 1.4467-2.0462 5.5628-1.7356 6.4898 0.18803 0.42406 0.88306 0.85341 0.0048 0.37474-0.87355-1.3101-2.449-5.7046-2.1676-7.1677-0.31686"/>
  </g>
  <path d="m101.47 68.475c0.30685 0.0043 0.54033 0.44695 0.5175 0.95173-8e-3 0.52521-0.34733 0.81654-0.62091 0.80668-0.37279-0.01367-0.54667-0.52284-0.52993-0.84128 0.0111-0.49322 0.29338-0.93235 0.63408-0.91719" fill="#fff"/>
  <path d="m125.01 68.888c0.30683 0.0043 0.5403 0.44693 0.51749 0.95173-8e-3 0.52521-0.34733 0.81652-0.62091 0.80666-0.3728-0.01366-0.54667-0.52282-0.52995-0.84126 0.0111-0.49323 0.2934-0.93235 0.63412-0.91719" fill="#fff"/>
 </g>
</svg>
