<?xml version="1.0" encoding="UTF-8"?>
<svg version="1.1" viewBox="0 0 327.4 178.56" xmlns="http://www.w3.org/2000/svg">
 <g transform="translate(.028205 .061994)">
  <path d="m200.5 86.5 0.05 0.35-0.25 0.25q-0.8 0.8-1.9 0.5-2.75-0.7-4.15-6.1-7.25-27.85-25.45-47.45-15.35-16.55-34.35-23.45-25.25-9.2-51.25 5.65-26 14.9-42.7 48.1-3.2 6.4 0.1 14.25l5.25 13.05q3.55 11.2 2.8 21.7-0.95 13.5-11.55 20.1-9.2 5.7-18.8 3.3-9.35-2.3-14.45-11.25-5.5-9.7-3.2-23 2.7-15 17.5-28.1 4.65-4.1 10.05-10.6l4.45-5.7q27.8-40.65 58.1-53 23.25-9.45 45.55-1.6 27.55 9.7 45.85 34.75 17 23.3 18.35 48.25" fill="#0d131a"/>
  <path d="m196 80.7q-7.3-28.15-26.1-48.25-15.8-16.9-35.15-23.95-25.8-9.4-51.7 5.6-25.75 14.95-44.8 49.95-3.3 6.05 1.85 17.8 2.45 5.65 4.35 14.35 2.25 10.15 1.8 17.15-0.75 11.1-10.25 17.5-8.3 5.6-16.1 4.05-8.55-1.75-13.5-10.85-5-9.2-3.15-19.9 1.25-7.25 5.35-14.6 4.2-7.55 10.15-12.9 5.6-4.95 9.3-9.2 2.85-3.25 5.65-7.45l0.9-1.25q27.35-40.05 56.75-51.9 22.3-9 44.3-1.3 26.75 9.4 44.65 33.95 16.2 22.25 18.65 46.65h-0.2q-1.4-0.4-2.75-5.45" fill="#65a9dc"/>
  <path d="m38.25 64.05q-3.3 6.05 1.85 17.8 2.45 5.65 4.35 14.35 2.25 10.15 1.8 17.15-0.75 11.1-10.25 17.5-8.3 5.6-16.1 4.05-8.55-1.75-13.5-10.85-5-9.2-3.15-19.9 1.25-7.25 5.35-14.6 4.2-7.55 10.15-12.9 5.6-4.95 9.3-9.2 2.85-3.25 5.65-7.45l0.9-1.25 4.6-6.5q2.9 0.4 4.65 2.25-3.15 5.05-5.6 9.55" fill="#ffec60"/>
  <path d="m164.95 152.9q3.9 0 6.65 3.7t2.75 8.95q0 5.2-2.75 8.9t-6.65 3.7-6.65-3.7q-2.8-3.7-2.8-8.9 0-5.25 2.8-8.95 2.75-3.7 6.65-3.7" fill="#0d131a"/>
  <path d="m164.7 175.75q-3.1 0-5.35-3.15-2.2-3.15-2.2-7.6 0-4.4 2.2-7.55 2.25-3.15 5.35-3.15t5.3 3.15q2.2 3.1 2.2 7.55t-2.2 7.6-5.3 3.15" fill="#65a9dc"/>
  <path d="m164.7 154.3q3.1 0 5.3 3.15 2.2 3.1 2.2 7.55 0 2.55-0.75 4.65-6.6-1.7-13.75-0.65-0.55-1.9-0.55-4 0-4.4 2.2-7.55 2.25-3.15 5.35-3.15" fill="#5892bf"/>
  <path d="m205.45 153q3.25-4.4 7.85-4.4t7.85 4.4q3.25 4.35 3.25 10.55t-3.25 10.55q-3.25 4.4-7.85 4.4t-7.85-4.4q-3.25-4.35-3.25-10.55t3.25-10.55" fill="#0d131a"/>
  <path d="m203.7 162.9q0-5.4 2.7-9.25 2.75-3.85 6.55-3.85t6.5 3.85 2.7 9.25q0 5.45-2.7 9.25-2.7 3.85-6.5 3.85-3.85 0-6.55-3.85-2.7-3.8-2.7-9.25" fill="#65a9dc"/>
  <path d="m221.7 167.1q-9.9-2.15-17.55-0.25-0.45-1.85-0.45-3.95 0-5.4 2.7-9.25 2.75-3.85 6.55-3.85t6.5 3.85 2.7 9.25q0 2.2-0.45 4.2" fill="#5892bf"/>
  <path d="m75.95 148.9q-2.75-5.3-0.9-10 2.05-5.4 9.3-6.15 6.4-0.7 25.05-0.2l7.85-0.25q4.15 0.4 5.45 2.75 1.85 3.2-1.6 8.05t-8.85 8.25q-5.45 3.45-12.2 5.1-5.75 1.35-12.35 0.05-8.65-1.7-11.75-7.6" fill="#0d131a"/>
  <path d="m77.4 138.45q2.35-3.8 8.9-4.25 7.75-0.5 23.1 0.15l5.3-0.15q5.45 0.15 6.4 1.75 1.2 2.25-1.5 6.05-3.25 4.55-8.4 7.8t-11.55 4.8q-6.15 1.5-12.75-0.1-7.65-1.85-9.65-7.05-2.05-5.4 0.15-9" fill="#bad4ee"/>
  <path d="m120 141.4-0.4 0.6q-3.25 4.55-8.4 7.8t-11.55 4.8l-9.05 0.5q-5.5-0.55-9.1-2.8 9.25-0.35 18.5-2.95 9.2-2.6 20-7.95" fill="#a1b8ce"/>
  <g fill="#0d131a">
   <path d="m96 143.95q-0.25-0.3 1.6-0.95 2.9-0.95 7.3-1.7l6.5-1.2q3.15-0.85 4.7-2.4l0.65 0.65q-1.7 1.7-5.35 2.75l-7.2 1.5-6.35 1.3-1.85 0.05"/>
   <path d="m105.5 146.9q5.45-1.25 8.15-4.65l0.75 0.6q-1.15 1.8-3.85 3.2-2.25 1.2-4.9 1.8l-2.45 0.1q-0.15-0.45 2.3-1.05"/>
   <path d="m169.2 71.3q32.35-0.3 52.85 15.95 9.25 7.35 14.1 16.9t4.6 19.75q-0.2 8.9-5.5 17t-14.75 13.9q-9.35 5.8-21.7 8.85-12.4 3.1-26.25 3.1-28.75 0-49.3-13.5t-20.55-32.25q0-9.2 5.05-18.15 5.05-8.85 14.05-15.9 9.45-7.35 21.6-11.4 12.35-4.1 25.8-4.25"/>
  </g>
  <path d="m219.45 89q9.05 7.05 13.9 16.15t4.6 18.7q-0.45 17.15-19.6 28.85-18.95 11.6-45.8 11.6-27.95 0-47.75-12.7t-19.8-30.6q0-8.75 4.75-17.25 4.7-8.5 13.3-15.2 9.1-7.1 21.05-11 11.9-3.85 25.1-3.95 30.15-0.25 50.25 15.4" fill="#65a9dc"/>
  <path d="m232.55 129.6q4 2 14.55 3.5l18.5 1.75q9.4 0.5 13.15 8.75 1.6 3.6 0.85 6.95-0.75 3.6-4.05 5.75-8.35 5.4-19.85 2.95-6.2-1.3-11.7-4.35-3.8-2.1-10.55-7.45-6.95-5.5-8.3-7.55-1.35-2.1 1.9-6.75 3.3-4.65 5.5-3.55" fill="#bad4ee"/>
  <path d="m256.55 152.4q12.35 1.1 22.75-0.75-1.05 2.85-3.75 4.65-8.35 5.4-19.85 2.95-6.2-1.3-11.7-4.35-3.7-2-10.85-7.7 10.35 4.05 23.4 5.2" fill="#a1b8ce"/>
  <g fill="#0d131a">
   <path d="m232.6 130.35q-0.95-0.35-0.75-1.05l1.6-0.1q6.45 2.95 33.25 4.9 7.85 0.6 12 7.55 4.15 6.85 0.2 12.15-4.5 6.1-14.15 7-10.45 0.95-20.75-5.3-3.5-2-10.25-7.2-6.35-4.9-7.8-6.55-1.35-1.5-1.2-2.25 0.2-0.75 2.1 1.15l8 6.75q6.2 4.8 9.6 6.7l0.85 0.5q9.45 5.45 19.6 4.4 9.4-0.95 12.85-6.2 2.8-4.25-0.5-10.05-3.6-6.2-11.05-6.75-23.3-1.65-33.6-5.65"/>
   <path d="m229.15 136.5q-0.45-0.55-0.4-0.9 0.05-0.45 0.75 0.25l8.55 5.95 9.45 6.05q1.65 0.95 1.1 1.15l-1.5-0.3q-2.95-1.55-8.75-5.25-7.55-4.85-9.2-6.95"/>
   <path d="m231.05 133.6q-0.85-0.55-0.7-0.9 0.2-0.4 1.25 0.15l8.45 3.55q8.45 3.4 14.9 5.4 1.7 0.5 1.25 0.8l-1.45 0.1q-2.75-0.55-11.45-3.8-9.25-3.45-12.25-5.3"/>
   <path d="m126.6 87.85q4.8 0 7.45 3.95 2.55 3.85 2.55 10.55 0 13.75-5.9 21.75-5.4 7.25-13.3 7.25-5.75 0-9.05-4.1-3.4-4.25-3.4-12.05 0-9.95 7.95-19 7.35-8.35 13.7-8.35"/>
  </g>
  <path d="m127.8 89.35q6.1 1.35 6.65 10.8 0.35 5.85-1.3 13.05-1.8 8.2-6.95 13-5.2 4.8-10.85 3.55-4.4-1-6.8-4.95-4.15-6.55-1.7-16.2 1.55-5.95 8.3-12.85 7.4-7.55 12.65-6.4" fill="#ffec60"/>
  <path d="m170.7 91.1q5.8-4.9 13.7-4.9 11.9-0.15 20.25 8.55 8.15 8.5 8.15 20.2 0 9.4-5.75 14.85-5.4 5.05-13.95 5.05-13.5 0-21.35-8.5-7.45-8.05-7.45-20.95 0-8.9 6.4-14.3" fill="#0d131a"/>
  <path d="m184.25 88.05q11.6 0 19.7 9.05 7.15 7.95 7.15 16.7 0 9.35-5.5 14.55-4.85 4.55-12.25 4.55-13.1 0-20.4-8.7-6.35-7.55-6.35-18.6 0-7.8 5.1-12.75 5-4.8 12.55-4.8" fill="#ffec60"/>
  <g fill="#0d131a">
   <path d="m126.75 106.75q3.6 0.3 3.35 2.6-0.2 2.3-3.7 2.3l-7.45 0.85-7.9 1.25q-3.6 0.7-3.3-1.7 0.35-2.4 3.65-3.55 2.85-1 8-1.55l7.35-0.2"/>
   <path d="m115.55 120.25q-0.25-2.2 0.05-8.85 0.35-6.9 1-10.8 0.55-3.6 2.1-3.95 1.6-0.4 1.8 3.8 0.15 4.75-0.55 18.65-0.05 5.1-1.95 5.25-1.9 0.2-2.45-4.1"/>
   <path d="m178.75 106.4q4.65-0.35 10.2-0.1 6.25 0.35 10.35 1.35 4.5 1.1 4.6 3.25 0.05 2.15-4.15 2.3-3.5 0.15-10.85-0.25l-9.7-0.75q-5.3-0.55-5.5-3-0.25-2.45 5.05-2.8"/>
   <path d="m185.7 97.5q0.15-2.65 2.25-2.75 2.15-0.1 2.9 3.55 1.1 5.2 1.9 13.4t0.55 11.35q-0.4 4.5-2.55 3.7-2.1-0.8-2.65-4.2-0.6-3.55-1.5-11.65-1.1-10.15-0.9-13.4"/>
   <path d="m303.85 73.05q2.45 11.3 9.3 20.95 4.4 6.2 8.2 14.65 4.7 10.4 5.7 18.6 1.7 14.05-5.45 24.2-6.9 9.8-17.25 9.6-11.05-0.25-18.2-9.5t-7.4-23.5q-0.25-14.95 9.7-31 3.7-6.1 5.4-10.25 2.55-6.25 2.1-11.25-1.9-23-11.6-38.85-9.75-15.95-23.25-17.7-14.55-1.9-28.55 13.9t-25.25 46.9q-0.2 0.65-2.9-0.55t-2.45-1.85q9.4-29.5 25.7-47.55t33-17.35q14.9 0.65 26.05 16.25 11.15 15.65 17.15 44.3"/>
  </g>
  <path d="m292.3 94.1q2.9-4.65 4.55-10 1.55-5.2 1.25-8.9-1.8-23.45-12.15-39.9t-24.4-18.25q-12.3-1.6-24.3 8.75-17.2 14.8-30.9 52.3l-2.7-1.1q9.15-28.05 25-45.75 16.05-17.95 31.95-17.25 14.3 0.6 25.1 15.95 10.8 15.3 16.7 43.4 1.5 7.05 2.55 10.2 1.85 5.6 5.15 10.1 4.9 6.7 9.15 16.75 4.8 11.3 5.4 19.45 0.85 11.7-5 20.1t-15.2 8.55q-9.6 0.2-16.3-8.65-6-7.9-6.5-17.9-0.55-11.9 2.8-21.95 2.3-6.85 7.85-15.9" fill="#65a9dc"/>
  <path d="m292.3 94.1q2.9-4.65 4.55-10 1.55-5.2 1.25-8.9l-0.1-1.2 4.45-0.5q1.5 7 2.55 10.15 1.85 5.55 5.1 10 4.9 6.7 9.15 16.75 4.8 11.3 5.4 19.45 0.85 11.7-5 20.1t-15.2 8.55q-9.6 0.2-16.3-8.65-6-7.9-6.5-17.9-0.55-11.9 2.8-21.95 2.3-6.85 7.85-15.9" fill="#ffec60"/>
  <path d="m142.1 119.85h6.3l5.35 0.3q0.25 1 0.1 3.55-0.15 2.5-0.45 3.15-1.35-1.95-4.8-1.9-3.35 0.1-4.65 1.95-1.25-0.7-1.85-3.9-0.6-3.1 0-3.15" fill="#922f00"/>
  <path d="m144.5 126.7q0.1-0.75 1.25-1.35 1.2-0.65 2.8-0.7 1.65-0.05 2.9 0.5t1.6 1.45q-0.2 1.9-0.75 2.85-0.8 1.4-2.5 1.5-2.6 0.5-4.2-1.65-1.3-1.7-1.1-2.6" fill="#ed8599"/>
  <path d="m148.2 120.55q-3.6-0.15-5.55 0 0.5 4.1 2.1 6.85 1.8 3.15 4.3 2.95 4.05-0.25 3.95-9.45l-4.8-0.35m6.4-1.15q-0.1 12.05-5.2 12.45-4.05 0.3-6.65-5.65-2.5-5.55-1.3-6.9 0.2-0.25 6.6-0.15l6.55 0.25" fill="#0d131a"/>
  <path d="m153.25 125.6-0.1 0.85-0.4 0.6q-1.2-1.4-4.2-1.3-3.05 0.1-4.05 1.55-0.45 0.65-0.6-1.4 1.4-1.7 4.45-1.85 3.05-0.1 4.9 1.55" fill="#0d131a"/>
  <path d="m36.2 102.9q4.35 4.65 4.25 10.15-0.05 6.35-5.95 11.55-5.65 5-11.85 4.9-6.6-0.1-10.7-5.6-3.6-4.85-3.5-10.85 0.1-6.05 4.7-10.35 4.95-4.75 12.75-4.65 5.85 0.05 10.3 4.85" fill="#fff"/>
  <path d="m301.85 120.3q7.05-1.3 12.25 2.55 4.75 3.5 5.8 9.4 1.2 6.45-2.7 12.6-3.85 6.1-9.75 7.2-6.85 1.25-12.15-2.45-5.4-3.75-6.75-11.15-1.1-6.1 2.1-11.1 3.6-5.7 11.2-7.05" fill="#fff"/>
 </g>
</svg>
