<?xml version="1.0" encoding="UTF-8" standalone="no"?>
<!-- Created with Inkscape (http://www.inkscape.org/) -->

<svg
   version="1.1"
   viewBox="0 0 73.067 68.301"
   id="svg380"
   sodipodi:docname="173.svg"
   inkscape:version="1.2.2 (b0a8486, 2022-12-01)"
   xmlns:inkscape="http://www.inkscape.org/namespaces/inkscape"
   xmlns:sodipodi="http://sodipodi.sourceforge.net/DTD/sodipodi-0.dtd"
   xmlns="http://www.w3.org/2000/svg"
   xmlns:svg="http://www.w3.org/2000/svg">
  <defs
     id="defs384" />
  <sodipodi:namedview
     id="namedview382"
     pagecolor="#505050"
     bordercolor="#eeeeee"
     borderopacity="1"
     inkscape:showpageshadow="0"
     inkscape:pageopacity="0"
     inkscape:pagecheckerboard="0"
     inkscape:deskcolor="#505050"
     showgrid="false"
     inkscape:zoom="1.7276467"
     inkscape:cx="17.07525"
     inkscape:cy="42.254008"
     inkscape:window-width="1309"
     inkscape:window-height="456"
     inkscape:window-x="0"
     inkscape:window-y="25"
     inkscape:window-maximized="0"
     inkscape:current-layer="svg380" />
  <path
     d="m 20.245,4.286 c 0.57381,-1.7932 2.6539,-4.1601 8.6789,-3.8015 7.4595,0.35864 13.485,5.0926 15.708,7.4596 1.5063,-0.2869 3.156,-0.43036 4.6622,-0.50208 -3.3711,2.9408 -2.2952,10.042 -1.5063,12.696 2.2235,7.2444 9.0375,11.261 12.122,11.907 0.50208,-0.21518 1.9366,-1.2911 2.0801,-1.4345 3.156,2.9408 5.8098,15.349 4.8057,19.079 1.3628,2.2952 3.2994,7.3161 1.9366,9.0375 -2.2952,2.869 -13.126,2.6539 -17.143,0.64554 -5.5229,3.2277 -11.691,3.658 -12.982,3.658 -1.0759,2.4387 -5.3795,5.236 -7.1009,4.9491 -4.0884,-0.71726 -17.071,-12.911 -18.219,-28.404 -0.57381,-8.1051 2.6539,-21.733 9.181,-27.902 -2.0083,-2.7973 -2.8691,-5.3795 -2.2235,-7.3878 z"
     fill="#fbdac8"
     id="path314" />
  <path
     d="M 20.747,13.825 C 13.2875,13.32292 0.735,22.7191 0.448,25.445 0.01764,29.4617 9.1269,35.917 13.646,36.061 13.07219,29.6056 16.6585,18.703 20.7469,13.826 Z"
     fill="#524523"
     id="path316" />
  <path
     d="M 48.864,7.657 C 44.417,14.3993 47.7881,27.525 59.695,32.116 61.4164,32.76154 72.391,19.994 71.458,13.754 70.74074,9.0201 49.868,6.0075 48.864,7.6572 Z"
     fill="#524523"
     id="path318" />
  <path
     d="m 29.355,37.495 c 0.93244,1.2194 2.0801,2.2235 2.9408,2.0801 1.0759,-0.21518 1.5063,-1.6497 1.5063,-3.2277 -1.578,-0.43036 -3.3711,0.2869 -4.447,1.1476 z"
     fill="#f2849a"
     id="path320" />
  <path
     d="m 33.802,36.347 c 0.07172,-0.71728 0,-1.4345 -0.14346,-2.0801 -0.71726,0.2869 -3.8732,1.0759 -5.4512,1.0759 0.21518,0.64554 0.64554,1.4345 1.1476,2.1518 1.0759,-0.86072 2.8691,-1.578 4.447,-1.1476 z"
     fill="#8b3103"
     id="path322" />
  <path
     d="m 66.939,50.047 c 0.43036,0.57382 0.86072,1.4345 1.2193,2.367 5.0208,-3.658 5.0208,-9.97 4.2319,-12.05 -1.5063,-3.9449 -4.8057,-5.3077 -7.8899,-5.236 1.7214,4.1601 2.8691,11.118 2.4387,14.919 z"
     fill="#fbdac8"
     id="path324" />
  <path
     d="m 22.899,35.989 c 0,0.64554 -0.71726,0.86072 -2.0801,0.86072 -1.4345,0.07167 -2.0801,-0.35862 -2.0801,-0.93244 0,-0.64554 0.57381,-0.86072 2.0083,-0.93244 1.4345,0 2.1518,0.43036 2.1518,1.0042 z"
     fill="#f2849a"
     id="path326"
     style="fill:#f29b77;fill-opacity:1" />
  <path
     d="m 43.198,32.187 c 0.21518,0.78898 -0.71726,1.2911 -2.0083,1.578 -1.2193,0.35864 -2.2952,0.43036 -2.5104,-0.35864 -0.28691,-0.71726 0.71726,-1.2193 2.0083,-1.578 1.2194,-0.2869 2.2952,-0.2869 2.5104,0.35864 z"
     fill="#f2849a"
     id="path328"
     style="fill:#f29b77;fill-opacity:1" />
  <path
     d="m 31.291,62.814 c 0,0.21518 2.7973,0.14351 3.945,0.21518 -0.43036,1.5063 -1.8649,3.4429 -3.8732,5.0926 3.7298,-0.21518 6.7423,-4.2319 7.3878,-5.1643 3.0125,0.2869 10.902,-1.9366 12.839,-3.5146 -0.50209,-0.71726 -0.86072,-0.35862 -1.578,-1.1476 -4.0167,1.9366 -13.054,3.7298 -18.721,4.5188 z"
     fill="#d8bdaf"
     id="path330" />
  <path
     d="m 0.4488,26.377 c -0.2869,3.5146 10.257,9.4679 12.624,9.8265 0.64554,0.07167 0.78899,-3.2994 0.78899,-4.6622 -3.7298,-0.789 -10.544,-2.5822 -13.413,-5.1643 z"
     fill="#3f3415"
     id="path332" />
  <path
     d="m 53.742,28.888 c 2.0083,1.6497 5.7381,3.3711 6.5988,3.0125 2.2235,-0.93244 11.476,-12.337 10.974,-16.856 -3.5863,6.025 -12.552,12.337 -17.573,13.843 z"
     fill="#3f3415"
     id="path334" />
  <path
     d="m 72.462,43.95 c -1.0759,3.5146 -3.2277,5.5229 -5.1643,6.5988 0.28691,0.57382 0.64554,1.2194 0.93244,1.9366 0.71726,-0.50208 1.3628,-1.0042 1.7932,-1.578 1.4345,-1.7932 3.0125,-4.447 2.4387,-6.9575 z"
     fill="#d8bdaf"
     id="path336" />
  <path
     d="m 21.967,12.032 c 2.0083,3.2277 6.6706,6.0967 10.544,5.0208 3.0842,-0.86072 2.9408,-4.8774 1.5063,-6.5988 0.50209,2.6539 -0.21518,4.5188 -2.367,4.9491 -2.0801,0.43036 -5.8098,0.2869 -9.181,-3.7298 z"
     fill="#d8bdaf"
     id="path338" />
  <path
     d="M 20.819,13.395 C 12.8574,13.75362 0.52,21.4284 0.018,25.517 c -0.35863,2.9408 4.5188,8.2485 13.341,11.261 0.07172,0 0.93244,-0.50208 -0.21518,-0.93244 -7.1726,-2.5822 -12.48,-7.3161 -12.05,-10.329 0.50208,-3.2277 10.472,-10.113 19.366,-11.548 z"
     id="path340"
     style="fill:#061922" />
  <path
     d="m 52.02,59.515 c -3.8732,2.9408 -13.771,4.8057 -20.585,3.5863 -0.64554,-0.14351 -0.57381,-0.43036 0.14346,-0.43036 6.3836,0.2869 13.485,-0.07167 19.868,-3.4429 0.21518,-0.07167 0.86072,0 0.57381,0.2869 z"
     id="path342"
     style="fill:#061922" />
  <path
     d="m 66.796,49.33 c -0.07172,-6.4554 -1.9366,-14.345 -4.9491,-18.219 -0.57381,-0.71726 0.28691,-0.86072 0.35863,-0.71726 4.3036,5.7381 5.6664,15.349 4.9491,19.868 C 67.08291,50.90728 66.796,50.19007 66.796,49.3293 Z"
     id="path344"
     style="fill:#061922" />
  <path
     d="m 66.437,49.617 c 2.1518,3.7298 2.8691,7.3161 1.9366,8.6789 -2.0083,2.7256 -12.624,3.156 -17.788,0.21518 -1.0042,-0.57382 -1.1476,-0.21518 -0.35863,0.35864 5.1643,3.4429 16.21,2.869 18.649,0.2869 1.7214,-1.8649 -0.28691,-7.3161 -1.7932,-9.6831 -0.93244,-1.3628 -2.2235,-2.5104 -0.64554,0.14351 z"
     id="path346"
     style="fill:#061922" />
  <path
     d="m 61.918,30.179 c -1.578,1.5063 -2.0083,1.4345 -3.0842,1.0759 -11.691,-4.447 -13.341,-18.792 -9.3962,-23.526 8.5354,-0.2869 19.653,2.2953 21.159,6.025 1.2193,3.156 -4.3753,12.265 -8.6789,16.425 z M 44.919,8.231 c 0.86072,-0.14351 2.5104,-0.35864 3.3711,-0.43036 -2.7973,4.0884 -3.0842,18.864 10.042,24.1 1.578,0.5738 2.4387,0.2869 3.156,-0.28692 5.4512,-4.5188 11.404,-14.919 10.185,-18.218 -1.578,-4.2319 -17.286,-7.9616 -27.399,-5.6664 z"
     id="path348"
     style="fill:#061922" />
  <path
     d="m 68.087,52.271 c 3.2277,-2.5822 5.236,-7.603 3.7298,-11.691 -1.5063,-4.0884 -4.5905,-5.0208 -7.2444,-4.9491 l -0.2869,-0.86072 c 3.3711,-0.21518 7.0292,1.2911 8.3203,5.4512 1.3628,4.2319 -0.35863,9.97 -4.3036,12.767 z"
     id="path350"
     style="fill:#061922" />
  <path
     d="m 51.446,41.583 c 3.2277,-5.236 3.8732,-8.1051 2.5104,-9.181 -1.5063,-1.1476 -5.3795,0.35864 -7.6747,3.156 -0.57381,0.71726 -0.78899,0.14351 -0.2869,-0.5021 1.7932,-2.8691 6.3836,-5.1643 8.8223,-3.156 1.578,1.2911 0.35863,5.6664 -2.8691,10.329 -1.2193,1.7214 -1.9366,1.7214 -0.50208,-0.64554 z"
     id="path352"
     style="fill:#061922" />
  <path
     d="m 35.093,33.694 c -0.35863,-0.21518 -0.93244,-0.2869 -1.0759,-0.14351 -0.57381,0.57382 -2.8691,1.1476 -3.945,1.2911 -0.57381,0.07167 -1.7932,0.21518 -3.156,-0.07167 -0.35863,-0.07167 -0.78899,0.2869 -0.93244,0.43036 -0.2869,0.2869 0,0.50208 0.35863,0.2869 0.57381,-0.43036 1.5063,0.21518 3.8015,-0.07167 0.93244,-0.14351 3.0125,-0.57382 3.658,-1.0042 0.57381,-0.2869 0.64554,-0.50208 1.2193,-0.2869 0.28691,0.14351 0.50209,-0.14351 0.07172,-0.43036 z"
     id="path354"
     style="fill:#061922" />
  <path
     d="m 33.443,34.483 c 0.14346,0.78898 0.50208,4.6622 -1.2911,4.7339 -1.3628,0.14351 -2.9408,-2.2235 -3.8015,-3.945 -0.07172,-0.21518 -0.71726,-0.07167 -0.64554,0 0.78899,1.7932 2.9408,4.9491 4.5905,4.7339 1.7932,-0.21518 2.1518,-3.0842 1.6497,-5.8098 0,-0.14351 -0.50208,0.07167 -0.50208,0.28692 z"
     id="path356"
     style="fill:#061922" />
  <path
     d="m 33.802,36.061 c -1.7932,-0.43036 -3.0125,-0.07167 -4.5188,1.2193 -0.28691,0.28692 0,0.64554 0.2869,0.43036 0.57381,-0.43036 1.3628,-0.86072 2.2235,-1.0759 0.57381,-0.14351 1.2194,-0.21518 1.9366,0 0.28691,0.07167 0.43036,-0.43036 0.07172,-0.5738 z"
     id="path358"
     style="fill:#061922" />
  <path
     d="m 22.182,11.387 c -7.5313,7.5313 -10.687,22.379 -8.6072,32.707 2.2235,11.333 11.62,21.088 16.067,23.526 1.7214,0.93245 3.2994,0.86072 4.5905,0.07167 1.2911,-0.789 3.3711,-2.2953 4.7339,-4.7339 l -0.64554,0.07167 c -1.2911,2.0083 -3.2277,3.2994 -4.5188,4.0167 -1.2911,0.71726 -2.4387,0.86072 -3.7298,0.07167 -6.0967,-3.5146 -14.274,-14.202 -15.708,-23.096 -1.7932,-11.404 1.3628,-25.033 8.3203,-31.99 z"
     id="path360"
     style="fill:#061922" />
  <path
     d="m 20.604,2.564 c -2.2952,3.2277 -0.35863,8.2485 3.2994,11.118 3.3711,2.5822 8.9658,3.156 10.4,0.35862 0.78899,-1.7214 0.35863,-3.658 -1.2911,-4.5905 -0.86072,-0.43036 -2.5822,-0.50208 -3.3711,0.50208 -0.35863,0.43036 -0.07172,0.57382 0.35863,0.28692 0.78899,-0.64554 1.9366,-0.57382 2.7256,-0.14351 1.0759,0.64554 1.578,1.9366 0.78899,3.5146 -1.1476,2.367 -6.0967,1.8649 -9.1093,-0.5738 -3.2277,-2.6539 -5.1643,-6.9575 -3.0125,-9.8982 3.4429,-4.7339 17.071,-2.2235 24.244,6.3119 0.57381,0.64554 0.86072,0.43036 0.35863,-0.2869 -7.0292,-9.3244 -21.805,-11.548 -25.391,-6.5988 z"
     id="path362"
     style="fill:#061922" />
  <path
     d="m 26.485,31.255 c 0,1.578 -0.43036,2.7973 -1.0042,2.7973 -0.57384,0 -1.0042,-1.2193 -1.0042,-2.7973 -0.07172,-1.578 0.43036,-2.7973 0.93244,-2.7973 0.57381,0 1.0759,1.2194 1.0759,2.7973 z"
     id="path364"
     style="fill:#061922" />
  <path
     d="m 36.527,29.462 c 0,1.578 -0.50209,2.7973 -1.1476,2.7973 -0.57381,0 -1.0759,-1.2194 -1.1476,-2.7973 0,-1.578 0.50208,-2.7973 1.1476,-2.7973 0.64552,0 1.1476,1.2194 1.1476,2.7973 z"
     id="path366"
     style="fill:#061922" />
  <path
     d="m 25.051,30.107 c 0,0.64554 0.2869,1.1476 0.57381,1.1476 0.28691,-0.07167 0.43036,-0.57382 0.43036,-1.1476 -0.07172,-0.64554 -0.2869,-1.0759 -0.57381,-1.0759 -0.28691,0 -0.50209,0.5021 -0.43036,1.0759 z"
     fill="#ffffff"
     id="path370" />
  <path
     d="m 34.877,28.458 c 0.07172,0.64554 0.35863,1.1476 0.64554,1.0759 0.28691,0 0.50208,-0.5021 0.50208,-1.1476 -0.07172,-0.64554 -0.35863,-1.1476 -0.64554,-1.1476 -0.2869,0 -0.50208,0.57382 -0.50208,1.2194 z"
     fill="#ffffff"
     id="path372" />
  <path
     d="m 8.554,39.432 c -0.93244,2.7256 6.5988,7.9616 8.1768,8.392 1.578,0.50208 1.3628,-6.8857 -0.21518,-8.0334 -1.578,-1.2194 -7.2444,-2.2952 -7.9616,-0.35864 z"
     fill="#fbdac8"
     id="path374" />
  <path
     d="M 15.798,47.465 C 11.2075,45.2415 7.3343,41.44 8.2667,39.073 c 0.71727,-1.7932 4.6622,-1.2911 6.6706,-0.43036 2.0083,0.86072 2.0083,1.2911 -0.07172,0.64554 -3.5146,-1.0042 -5.4512,-0.35864 -5.6664,0.07167 -0.93244,1.9366 3.3711,5.5947 6.8857,7.603 1.3628,0.78898 0.71727,0.93244 -0.2869,0.50208 z"
     fill="#061922"
     id="path376" />
</svg>
