<?xml version="1.0" encoding="UTF-8"?>
<!-- Created with Inkscape (http://www.inkscape.org/) -->
<svg version="1.1" viewBox="0 0 251.74 240.63" xmlns="http://www.w3.org/2000/svg">
 <g transform="translate(16.077 -34.841)">
  <path d="m191.36 124.41 3.9476-5.332c9.1582-3.3209 19.288-16.104 15.871-44.6 6.6172-0.86547 9.6696-1.3051 10.651 0.23917 2.8928 6.6627 18.008 56.735-18.135 84.34z" fill="#ffe45f"/>
  <path d="m221.83 74.721c-0.98194-1.5446-4.0341-1.1048-10.651-0.23919 0.29288 2.444 0.46181 4.7007 0.53427 6.8014 12.124 1.0599 17.989 43.598-10.174 65.584l2.1527 12.194c36.145-27.607 21.03-77.679 18.134-84.34" fill="#dcc552"/>
  <path d="m215.85 146.68c5.797-8.3265 9.4089-18.497 10.784-27.425-5.984-11.944-13.485-12.656-17.763-13.385-4.4538 7.1028-12.685 13.612-12.685 13.612 7.3761 6.8691 14.213 8.3799 19.664 27.198" fill="#3e4e57"/>
  <path d="m211.18 74.482c0.76743 6.3839 0.78786 10.652 0.20931 14.87 1.8758-1.9179 9.3593-3.2635 14.978 2.4197-1.3209-9.5644-3.5635-14.809-4.5361-17.05-0.98194-1.5446-4.0341-1.1049-10.651-0.23928" fill="#3e4e57"/>
  <path d="m226.48 119.59c-1.8441-3.1256-3.2986-5.7457-5.2423-7.8508-1.2403 7.6194-3.3742 18.98-9.7768 24.792 2.0151 2.5402 2.2881 5.1884 4.1849 10.454 5.797-8.3264 9.4588-18.467 10.834-27.395" fill="#27333a"/>
  <path d="m226.75 92.936c-1.3234-9.5621-3.9488-15.972-4.9214-18.214-0.98107-1.5446-4.0363-1.1071-10.653-0.24149 0.16998 1.456 0.46039 4.7711 0.55624 6.0998 3.1638 1.4548 5.6662 3.4691 6.7659 6.9748 3.0078-0.01887 6.1396 2.9648 8.2499 5.3837" fill="#27333a"/>
  <path d="m234.22 58.678c-0.23108 10.286-8.7542 18.435-19.04 18.204-10.282-0.23102-18.433-8.7563-18.204-19.04 0.23319-10.284 8.7586-18.435 19.04-18.204 10.286 0.23108 18.435 8.7542 18.204 19.04" fill="#fce1b9"/>
  <path d="m231.55 59.721c-0.16149 7.199-6.1285 12.904-13.328 12.742-7.1991-0.16148-12.904-6.1285-12.742-13.328 0.16148-7.199 6.1285-12.904 13.328-12.742 7.199 0.16148 12.904 6.1286 12.742 13.328" fill="#f8c170"/>
  <path d="m82.257 232.16c0.54167 11.932 1.9782 32.006 10.855 31.05 3.4111 2.389 9.2374 0.20995 14.655-18.155 0 0-26.051-24.822-25.509-12.895" fill="#3396cd"/>
  <path d="m82.257 232.16c0.1413 3.1096 0.34499 6.7705 0.72498 10.47 7.9894 1.8074 15.374 5.5789 21.91 10.652 0.96223-2.2884 1.9252-5.0035 2.8754-8.2271 0 0-26.051-24.822-25.509-12.895" fill="#2880ae"/>
  <path d="m151.48 236.03c1.682 10.82 13.155 31.489 20.957 27.042 4.996 0.49462 9.4623-9.8041 8.0288-31.783z" fill="#3396cd"/>
  <path d="m180.22 248.73c0.56393-4.6534 0.70782-10.458 0.251-17.445l-28.985 4.7411c0.46921 3.0201 1.7038 6.8099 3.4071 10.608 8.5148-1.2166 17.098-0.37262 25.327 2.0957" fill="#2880ae"/>
  <path d="m40.481 240.46c5.1797 9.3606 1.8659 37.01 13.131 32.643 2.6332 2.7542 13.872-0.46034 14.547-30.479z" fill="#3396cd"/>
  <path d="m40.481 240.46c0.8332 1.5056 1.444 3.4908 1.9369 5.7348 8.376 0.55995 17.422 4.107 24.526 9.7512 0.65526-3.7077 1.0972-8.1021 1.2144-13.322z" fill="#2880ae"/>
  <path d="m105.55 240.77c5.1796 9.3606 1.0654 35.237 13.081 33.19 2.0093 2.2317 15.12-2.9054 15.796-32.926z" fill="#3396cd"/>
  <path d="m105.55 240.77c0.92411 1.6684 1.5729 3.9227 2.0878 6.4642 8.9392 1.7297 17.654 4.8228 24.918 9.936 1.0279-4.3307 1.7259-9.65 1.8717-16.137z" fill="#2880ae"/>
  <path d="m204.47 159.1c13.005-22.77-4.9387-36.551-11.544-41.984 1.6962-15.672-7.941-28.241-22.439-30.019-13.93-34.492-47.861-26.128-57.463-15.967-21.344-21.865-64.4-8.8185-67.076 22.504-20.346-13.197-45.253 3.3177-42.237 25.656-9.8334 9.8704-11.139 27.175 4.7836 37.474-8.6155 5.995-22.987 41.523 12.262 53.127-3.5631 20.435 27.092 52.418 64.292 22.025 13.609 15.076 41.682 20.232 57.379 3.0421 29.41 12.307 57.153-9.5908 52.464-34.129 17.086-12.11 18.89-28.547 9.5788-41.729" fill="#fffbda"/>
  <path d="m204.75 158.57c5.3404-9.3531 5.0194-20.527 1.3916-26.104-0.28932 10.234-1.0586 18.625-12.165 20.93 7.6726 18.36 5.7101 36.184-17.659 41.722-2.1066 12.69-20.264 18.814-24.488 14.694-0.133-6.9043-5.1266-20.639-5.9473-16.811-4.177 19.459-24.293 57.256-68.149 25.212-23.976 17.578-52.657 1.4067-50.455-19.826-17.592 2.192-30.016-20.804-25.892-34.063-6.8597 12.94-8.2974 38.163 19.37 45.57-3.5609 20.433 27.638 52.993 64.836 22.598 11.448 14.306 40.883 19.653 56.585 2.4632 30.273 12.665 57.107-10.313 52.714-34.123 17.089-12.108 19.17-29.078 9.8591-42.26" fill="#dcd9bd"/>
  <path d="m32.239 76.907c-29.84 2.214-46.85 18.31-46.988 24.552-0.14241 6.2425 17.586 22.355 45.91 23.471z" fill="#ffe45f"/>
  <path d="m-14.672 102.26c1.222 6.7109 18.639 21.602 45.831 22.673l0.34738-15.368c-15.751-0.23068-31.598-1.0882-46.178-7.3049" fill="#dcc552"/>
  <path d="m32.239 76.907c-4.0215 0.30056-7.8026 0.85436-11.348 1.6015-12.145 16.517-6.3212 37.642-0.47921 45.234 3.9346 0.83412 6.2494 1.0094 10.749 1.1874z" fill="#3e4e57"/>
  <path d="m1.6045 85.364c-10.556 5.6039-16.274 12.491-16.353 16.095-0.08005 3.5622 5.6638 10.335 15.87 15.703-3.3297-7.0024-7.1541-18.519 0.48324-31.798" fill="#3e4e57"/>
  <path d="m20.405 123.95c3.9346 0.83412 6.2541 0.80258 10.756 0.97855l0.32784-14.596c-5.7053-0.2554-11.394-0.75526-17.035-1.5507 1.0922 6.224 3.0498 10.648 5.9512 15.168" fill="#27333a"/>
  <path d="m1.1219 117.16c-1.4832-3.1176-2.4538-6.2305-3.0795-10.895-4.1093-1.0889-8.608-2.3735-12.615-3.8825-0.05154 3.5694 5.5128 9.4208 15.695 14.778" fill="#27333a"/>
  <path d="m31.596 84.13c-10.793 46.923 10.629 81.343 32.275 81.829 24.003 0.53911 35.824-23.388 41.993-51.332 9.3774-42.467-74.268-30.497-74.268-30.497" fill="#3396cd"/>
  <path d="m91.28 88.056c8.6136 19.947 1.6914 49.674-11.177 73.311 14.45-7.2697 21.155-25.876 25.762-46.74 3.0784-13.938-3.866-22.012-14.585-26.571" fill="#2880ae"/>
  <path d="m101.54 93.173c0.5282-23.515-9.482-42.208-15.769-48.289-10.505-10.16-32.245-10.569-43.691 0.56303-12.701 12.349-16.085 37.868-7.7253 52.36 8.3367 14.45 23.953 21.746 39.382 14.177 10.477-5.1414 14.905-15.58 15.847-24.222 3.1328-0.0038 11.956 5.4121 11.956 5.4121" fill="#fffbda"/>
  <path d="m84.174 52.435c-5.4065-0.82988-13.852 3.0701-14.48 17.217-0.58284 13.217 8.7764 17.011 10.973 10.888 1.8402-5.1374 8.1817-5.7782 8.0479 0.18054-0.20012 8.9098-2.3474 15.184-9.7036 22.213-8.2286 7.867-33.311 9.7501-47.426-14.723-0.7367 1.9437 1.7887 7.4344 3.6968 11.127 4.9823 9.6269 20.782 21.313 38.451 12.645 10.479-5.1392 14.903-15.578 15.847-24.222 3.3349 0.20663 11.956 5.4121 11.956 5.4121 0.5024-22.367-10.772-39.727-17.362-40.737" fill="#dcd9bd"/>
  <path d="m101.25 76.827c-6.7144 0.59284-9.1715 38.681 1.784 46.827 36.828 1.4323 49.286-21.172 49.179-25.429-0.12847-5.0629-18.086-24.305-50.963-21.398" fill="#ffe45f"/>
  <path d="m96.309 108.6c1.0438 6.6277 3.1774 12.411 6.7282 15.049 30.654 1.1944 44.414-14.259 48.109-21.931-16.186 7.0702-41.225 7.9444-54.837 6.8818" fill="#dcc552"/>
  <path d="m116.55 77.076c-4.6704-0.59112-9.7688-0.73861-15.3-0.24908-6.7144 0.59284-9.1759 38.681 1.7818 46.825 4.506 0.17638 9.329 0.24703 13.126-0.22029-4.7188-8.1359-8.5654-30.812 0.39213-46.356" fill="#3e4e57"/>
  <path d="m152.22 98.225c-0.0736-2.9078-6.6956-10.924-17.975-16.303-7.5337 7.8827-4.7633 29.401-0.34751 36.239 13.923-6.6237 18.392-17.158 18.322-19.936" fill="#3e4e57"/>
  <path d="m96.234 108.11c1.0172 6.8339 3.1678 12.838 6.803 15.542 4.506 0.1762 9.3289 0.24702 13.121-0.22002-1.8724-3.2318-3.5322-8.371-4.3834-14.838-5.2068 0.1711-10.463 0.30397-15.541-0.48317" fill="#27333a"/>
  <path d="m130.56 107.18c0.8016 4.7721 1.8019 8.4157 3.0062 10.922 10.567-5.0294 15.869-12.267 17.788-16.683-6.7107 2.3879-13.567 4.6738-20.794 5.7611" fill="#27333a"/>
  <g fill="#0f141b">
   <path d="m197.05 120c13.522-8.3839 17.427-21.61 15.339-43.338-0.70886-0.16998-1.3994-0.37919-2.0691-0.63843 2.8887 22.034-3.1672 34.838-15.066 42.066-0.29833 0.18734 0.89736 2.4688 1.7992 1.9074"/>
   <path d="m228.6 110.95c0.73858-16.525-3.2618-29.518-5.1679-34.865-0.64043 0.21157-1.2934 0.39394-1.9571 0.54524 1.5021 4.0376 5.4707 15.993 5.1272 31.289-0.31295 13.932-5.0284 31.6-18.996 44.644-0.34897 2.1151-1.7464 4.4839-2.2763 6.144 14.255-11.538 22.404-28.382 23.27-47.758"/>
   <path d="m211.54 88.163 0.45985 0.89907c1.8006-0.91632 5.5615-1.178 8.9814 0.15318 1.8559 0.72187 4.3021 2.1998 5.4106 5.1591l0.94535-0.35253c-1.2368-3.3102-3.7734-5.6617-5.8214-6.4576-3.7361-1.4501-7.9274-0.44648-9.9748 0.60025"/>
   <path d="m208.51 105.07c-0.90854-0.0866-1.4203 1.0395-0.36889 1.2393 6.3201 1.1914 15.964 5.3502 18.129 15.811l0.63836-1.6815c-2.5722-11.238-11.85-14.753-18.399-15.369"/>
   <path d="m215.68 147.43c-0.35799-7.3912-5.3983-18.533-12.987-23.189 0.8241 1.4069 2.8897 4.5528 3.7978 6.925 2.8323 2.3054 7.1453 10.098 8.1799 16.338z"/>
   <path d="m197.99 57.864c0.21836-9.7103 8.296-17.433 18.006-17.215 9.7124 0.21559 17.433 8.2961 17.215 18.006-0.21839 9.7102-8.2961 17.433-18.006 17.215-9.7102-0.21838-17.433-8.2961-17.215-18.006m-2.2165-0.04962c-0.24958 11.113 8.589 20.358 19.702 20.607 11.111 0.24736 19.931-8.5986 20.181-19.712 0.24958-11.113-8.1647-20.346-19.276-20.598-11.113-0.24968-20.358 8.589-20.607 19.702"/>
   <path d="m67.148 242.6c-0.43599 19.411-5.6404 27.804-10.015 29.985-3.6577 1.823-4.1873-3.5964-4.6761-11.409-0.11659-1.8507-0.85123-1.6648-1.0056-0.0977-0.1313 1.3345-0.57331 8.4835 0.99338 11.603-0.99757 0.24383-2.0114-0.16865-2.8203-0.69065-2.9947-1.9393-3.7978-9.18-4.7302-16.443-0.75436-5.8842-1.1847-11.114-3.1827-14.721l-3.1042-0.48304c1.8098 3.2658 3.8393 10.758 4.5693 16.455 1.0391 8.0995 1.7344 14.755 5.6442 17.084 1.3311 0.7886 2.5645 1.1071 4.3853 1.3371 1.5092 0.0977 3.0257-0.11791 4.6611-0.75073 2.5055-0.97146 12.022-7.2077 12.599-32.89z"/>
   <path d="m133.42 241.01c-0.4562 20.309-6.4704 29.785-11.484 31.734-2.0616 0.79626-4.1899 0.44723-4.2661-10.264-0.0151-1.8703-1.0279-1.9478-1.2656 0.32838-0.21708 2.118-0.34383 7.5843 1.126 10.284-0.88634 0.0773-1.9418-0.32984-2.7405-0.91294-2.8808-2.1086-3.8884-9.0588-4.8209-16.322-0.43229-3.3734-0.87428-6.8109-1.548-9.8114-0.75918-0.1047-3.6053-1.9795-4.293-2.2127 0.76856 3.0818 2.922 8.894 3.3914 12.576 1.039 8.0995 2.4644 15.455 6.3765 17.783 1.3285 0.79141 2.6387 1.234 4.3493 1.2726 1.8252 0.0409 3.0863-0.1662 4.616-0.89702 5.6814-2.695 12.836-12.41 13.314-33.69z"/>
   <path d="m106.8 244.77c-4.1409 14.033-8.1548 17.315-10.179 18.025-1.5367 0.53954-4.5138 0.56305-3.6219-10.058 0.21308-2.5362-0.73668-1.9852-1.2691-0.10791-0.5927 2.0943-0.91009 7.1185 0.28181 9.684-0.74608-0.26728-1.232-0.57795-1.879-1.2546-4.7868-5.0068-5.8089-18.467-6.532-26.137l0.14771-1.9701-2.4364 1.4036-0.32727 1.4401c0.85649 9.0787 2.778 22.845 8.0125 27.119 1.1707 0.95916 2.3796 1.6839 3.8956 1.9816 1.5178 0.30042 2.8721 0.33979 4.3954-0.1918 4.2463-1.4865 8.0972-8.0001 11.45-19.36z"/>
   <path d="m182.35 230.89-3.1516 1.9202c1.1447 17.575-1.1386 25.226-4.08 28.068-0.51217 0.49889-0.94591 0.89166-1.4858 1.0205 0.61702-1.7221 0.13583-4.3858-0.29754-7.1258-0.53128-3.3735-1.5217-2.0868-1.3837-4e-3 0.31433 4.6952 0.47771 10.069-4.1719 7.1816-5.9342-3.6819-13.256-16.283-14.637-25.158l-2.9082-8e-3c1.3074 8.4069 9.2333 23.503 16.749 27.123 1.998 0.96446 3.9198 1.0033 5.3875 0.69739 1.4697-0.30345 2.8361-0.99487 3.965-2.0867 4.2923-4.1525 7.0404-15.893 6.0146-31.63"/>
   <path d="m206.21 159.14c8.7205-15.864 2.627-33.315-12.221-43.178 1.3477-16.513-6.9856-27.296-22.792-29.754-6.9872-18.219-20.374-25.163-32.01-25.649-13.051-0.5439-24.934 5.0587-33.005 15.736 0.84459 0.02207 1.735 0.03641 2.5991 0.05792 6.1706-6.842 17.388-13.216 29.988-12.933 13.695 0.30758 27.584 12.801 31.007 26.207 1.802 7.043 3.6585 5.9781 1.8777-0.82612 12.067 1.4809 21.529 13.237 20.14 26.075 0 0-2.1036-0.86347-3.5628-1.2241-1.4613-0.35817-3.5886-0.0806 0.92392 2.4693 11.998 6.7792 23.367 21.312 15.419 40.379 0 0-0.85283-1.2842-2.3884-2.9664-1.804-1.9762-3.5206-2.1294-1.1894 1.2225 11.902 17.143 9.982 35.322-13.396 48.882-3.8249 2.2197-2.7564 2.7207 0.70215 1.3294 3.4588-1.3918 5.7704-2.6423 5.7704-2.6423 0.62571 8.6618-2.0313 18.54-10.71 26.359-11.207 10.095-27.137 9.3431-40.253 5.6077l-1.3733 1.5838c14.438 6.2884 31.724 5.6669 43.566-5.001 11.541-10.397 12.577-24.164 10.989-29.871 9.265-6.3104 14.367-13.077 14.977-22.314 0.51074-7.7523-1.3766-14.051-5.0564-19.548"/>
   <path d="m146.12 229.96-2.3979 3.4244c16.614-0.97334 26.955-10.929 28.858-22.28 0.3733-2.2246-0.59521-3.2869-1.9673-0.45978-3.6653 7.545-8.1428 18.053-24.493 19.316"/>
   <path d="m114.27 70.259c-5.4453-5.9482-11.558-8.4611-18.873-10.702 0.87064 1.1172 1.5417 2.3602 2.1203 3.6447 5.1809 2.0568 9.6064 3.6653 14.925 8.4861z"/>
   <path d="m150.47 201.27c-1.0786-3.7025-2.4558-1.7228-1.9661 0.46454 4.9391 22.031-11.89 37.971-19.96 40.728-16.767 5.7283-35.243-0.30092-44.673-16.344-3.7359-6.3515-3.6874-3.0198-2.764-0.55041 0.92586 2.4671 2.8095 5.7742 2.8095 5.7742-15.822 12.928-32.099 15.266-46.018 7.1261-12.714-7.4332-17.356-19.774-15.043-35.097 0.32554-2.1531-0.97949-2.4244-1.6914 0.16827-0.60381 2.1996-1.105 4.1419-1.105 4.1419-16.982-4.2137-20.22-18.021-20.406-26.114-0.20625-8.9386 5.42-22.008 12.187-25.448 2.2208-1.1249 1.424-1.6927-0.1931-1.3043-1.8115 0.43276-2.5726 0.91858-2.5726 0.91858-4.6122-2.7898-10.002-9.1829-10.6-15.935-0.66168-7.4662 2.3211-16.166 6.6902-19.986-0.19974 0.17356-1.3906-0.88672-2.1818-0.90481-4.2449 3.5765-9.3 11.689-8.0999 21.334 1.1962 9.6275 8.7462 14.828 12.2 16.618-6.3084 4.8478-10.176 13.972-10.418 24.716-0.23291 10.37 5.4269 24.018 22.888 29.021-1.0612 8.3604 3.0609 22.295 17.304 30.621 14.418 8.4329 31.912 5.1387 48.166-7.7159 9.2324 11.889 27.003 17.095 44.3 11.188 13.377-4.5746 27.369-22.096 21.147-43.421"/>
   <path d="m-16.076 101.49c-0.1509 6.7198 18.409 24.4 47.405 25.544l-3.6743-3.5101c-24.946-1.0487-41.506-17.06-41.395-22.038 0.11642-5.1848 13.789-20.731 43.71-22.949l0.22504-2.7714c-28.96 2.148-46.101 18.166-46.271 25.726"/>
   <path d="m13.816 93.017c-1.719 10.224-0.93665 23.285 6.6474 30.993l1.4971 0.049c-7.3196-7.4352-8.1359-20.748-6.4554-30.724 1.2848-7.6402 4.5012-14.304 7.4713-15.78l-0.91675-0.12225c-3.2992 1.6352-6.8853 7.5166-8.2435 15.584"/>
   <path d="m-3.5474 100.18c-0.26845 8.1316 2.6687 15.664 6.1429 19.073l0.70466-0.72146c-3.287-3.2263-5.3986-10.976-5.1403-18.848 0.20979-6.4016 2.661-12.79 5.5011-15.234l-1.3587 0.55039c-3.0531 2.6264-5.6313 8.4952-5.8497 15.18"/>
   <path d="m102.57 123.24c-6.4994 29.026-27.919 41.694-38.465 41.457-14.372-0.32274-40.813-22.874-32.654-73.187l-0.86117-6.716c-11.764 51.147 12.982 81.671 33.276 82.129 12.239 0.27494 34.931-13.421 41.397-42.621-0.658-0.0851-2.0398-0.76081-2.6931-1.0615"/>
   <path d="m90.321 87.229-0.35336 1.1339c1.4585 0.59787 3.4821 1.4862 5.4434 2.6148 0.10998-0.56514 0.21457-1.1304 0.30846-1.698-2.2063-1.3763-4.0159-1.7204-5.3989-2.0507"/>
   <path d="m40.709 43.684c-12.782 12.426-16.973 39.693-8.249 54.809 9.2917 16.106 27.543 21.886 42.596 14.504 12.03-5.9029 16.759-19.685 16.347-30.316-0.29373-7.5899-2.706-12.926-5.5109-15.185-1.0998-0.88496-2.3618-1.2276-3.6449-0.99925-5.8977 1.0595-7.1899 10.106-6.9842 13.39 0.10338 1.6568 1.9368 4.4655 2.0185 0.04528 0.08602-4.42 3.8336-11.514 7.3877-9.8043 2.6335 1.2691 3.8154 6.1422 4.0785 12.944 0.38749 9.9746-4.2432 22.501-15.459 28.004-14.039 6.8852-29.334 1.3471-38.062-13.778-8.3177-14.416-4.6488-39.264 7.5525-51.127 10.789-10.491 31.734-10.769 42.287-0.56369 8.4598 8.1826 12.047 19.793 13.426 33.807l3.1553-2.3755c-1.4279-14.506-5.8477-24.382-14.6-32.969-13.158-12.908-34.843-11.567-46.338-0.38745"/>
   <path d="m145.52 90.48c4.1235 3.6788 5.6605 6.6632 5.6862 7.7705 0.0355 1.4286-1.9503 6.1205-6.8998 11.003-6.6324 6.5434-19.097 14.157-40.853 13.402-5.0725-4.0323-7.174-15.678-6.9341-26.355 0.10998-4.9079 0.71076-9.6046 1.7407-13.249 1.0587-3.7405 2.2871-5.1473 3.0828-5.2195 24.642-2.1771 39.105 8.1206 44.177 12.648m-44.354-14.66c-2.0146 0.18148-4.1718 3.3601-5.3717 7.6143-3.0015 10.616-2.0217 35.357 7.0492 42.099l0.64941 0.17941c22.715 0.88415 35.801-7.6812 42.757-14.543 4.9544-4.8867 8.0186-10.468 7.9605-12.878-0.0572-2.2387-3.0938-6.3329-6.961-9.7835-5.271-4.7031-20.657-14.935-46.084-12.688"/>
   <path d="m115.99 123.2 0.86096-0.52619c-8.9717-14.682-4.4887-40.906 0.32488-45.121l-0.66698-0.7614c-5.608 4.9098-10.345 31.678-0.51875 46.408"/>
   <path d="m133.33 117.72 0.86317-0.52365c-5.6112-9.2449-4.1611-30.125-0.0392-35.271l-0.79337-0.63172c-6.018 7.0962-5.8094 26.903-0.0306 36.426"/>
   <path d="m65.377 159.96c-0.14922 0.56868-0.0981 0.9372 0.68388 0.49072 0.77988-0.44909 1.6743-1.7687 2.0213-2.4275 0.34902-0.66096-0.4156-1.2895-0.98055-0.80099-0.56776 0.48674-1.5755 2.169-1.7247 2.7376"/>
   <path d="m55.342 159.61c0.12413 0.5748 0.09093 1.023-0.61106 0.45967-0.92903-0.74708-1.6665-1.858-1.9824-2.5328-0.3192-0.67552 0.47287-1.2697 1.0158-0.7559 0.54769 0.50882 1.4541 2.2546 1.5778 2.8292"/>
   <path d="m40.183 124.37c-0.09923 4.4152-3.4071 8.0039-6.4129 7.9342-3.4369-0.0751-5.6818-4.3405-5.8371-8.0092-0.1862-4.4437 2.9033-8.0989 6.052-8.0281 3.8018 0.0873 6.2971 3.6878 6.1979 8.1031"/>
   <path d="m97.963 124.15c-0.1081 4.8067-3.9117 8.6197-8.4963 8.5189-4.5824-0.103-8.2131-4.085-8.1049-8.892 0.11017-4.8088 3.9138-8.6218 8.4962-8.5188 4.5846 0.1047 8.2131 4.085 8.1049 8.892"/>
  </g>
  <g fill="#fff">
   <path d="m211.52 54.974c-1.8458 2.7504-5.2833 3.6786-7.676 2.0716-2.3946-1.6051-2.8436-5.1347-0.99979-7.8873 1.846-2.7504 5.2812-3.6763 7.6761-2.0716 2.3953 1.6045 2.8414 5.1369 0.99979 7.8873"/>
   <path d="m34.907 117.49c-1.6843-0.0379-2.8106 1.4263-2.8509 3.2205-0.03943 1.7547 1.2564 3.1236 2.8747 3.1599 1.1411 0.024 2.515-1.2942 2.5523-2.9522 0.04886-2.1769-1.4372-3.4026-2.5762-3.4282"/>
   <path d="m89.855 116.12c1.7327 0.0392 3.2004 1.7856 3.1661 3.3116-0.0383 1.693-1.4514 3.2079-3.3116 3.1661-1.6799-0.0375-3.2093-1.3899-3.1662-3.3117 0.03867-1.7282 1.623-3.2042 3.3117-3.1661"/>
  </g>
 </g>
</svg>
