<?xml version="1.0" encoding="UTF-8"?>
<!-- Created with Inkscape (http://www.inkscape.org/) -->
<svg version="1.1" viewBox="0 0 279.01 318.71" xmlns="http://www.w3.org/2000/svg">
 <g transform="translate(19.522 11.02)">
  <path d="m64.048 164.1c-0.23063-1.8885-0.59139-3.617-1.0836-5.1734-2.4147-7.7191-8.9962-17.98-19.042-21.417-1.2-1.3722-2.442-2.4587-3.7129-3.2706-5.2911-3.393-11.079-2.2756-16.002 0.5775-1.3208 0.75874-2.5651 1.6424-3.7294 2.591-3.4669 2.8117-4.6523 6.4142-7.0915 9.3138-11.601 13.827-15.355 28.778-11.298 35.002 0.26628-0.0328 3.2275-2.6344 4.3387-3.8867-1.3587 4.8411-1.0629 14.375 1.4213 19.431 0.38358 0.78037 3.2226-4.677 6.8634-5.6517 1.8977 0.77914 8.6564 10.318 8.5114 20.173-0.03712 2.3283-0.26904 3.7916 0.0042 4.7577 0.2672 0.9177 1.0063 1.3963 2.8486 1.7152 6.7625 1.1775 15.996-0.67403 23.458-10.914 7.2632-9.9518 11.39-19.306 13.352-27.474 1.4295-5.978 1.7019-11.319 1.1624-15.774" fill="#e50020"/>
  <path d="m158.12 61.861c0.0131-2.5221 0.39783-6.9193 0.92456-11.956 1.0873-10.324 2.7873-23.35 3.2049-28.514 0.58972-7.1597-2.8211-5.8223-4.5138-2.5637-1.4324 2.7461-7.738 13.719-12.349 18.694-7.8165-17.054-19.215-37.166-27.267-45.801-2.9179-3.1131-4.8757-2.1537-4.5391 4.2106 0.44766 8.0531 5.0803 25.69 4.686 43.794-9.6511-6.8841-23.147-16.855-33.335-19.351-3.3376-0.80871-2.2986 2.7642-2.0118 4.3319 0.33178 1.8107 15.672 23.826 23.749 34.973-2.4155 7.9229-2.425 18.302 3.318 25.436 0.0527 0.07747 4.1746 4.1524 7.0329 5.5198 1.342 0.63588 2.5531 1.2522 3.67 1.8384 2.1057 1.1042 3.8338 2.1008 5.3149 3.01 5.9262 3.6128 7.8288 5.6654 12.774 6.1294 1.9591 0.17949 6.9934-3.1087 11.568-8.086 3.6865-4.0234 7.0802-9.1342 8.3101-14.416 0.60448-2.5693-0.57629-11.005-0.53589-17.249" fill="#e50020"/>
  <path d="m131.98 86.821c-1.9376-4.9623-11.562-17.287-12.311-17.61-3.3697 5.689-4.1258 12.238-1.977 14.966 4.13 5.2549 8.5164 6.5853 14.288 2.6437" fill="#fff"/>
  <path d="m81.277 117.4c-9.2784 3.1466-30.791 14.266-37.354 20.104 0.14538 0.17696 0.3022 0.35549 0.44686 0.54396 9.8172 4.4077 16.17 13.129 18.596 20.873 0.49167 1.5564 0.85268 3.2848 1.0836 5.1734 4.7116-2.3498 9.8415-3.7003 14.607-3.8241 3.1345-4.0338 13.162-21.142 15.513-27.832-4.0436-3.7478-11.357-7.8553-12.892-15.039" fill="#eaf5f5"/>
  <path d="m138.22 162.02c-1.6236-2.0955-3.4364-4.0465-5.4294-5.8044-2.4822-2.1969-16.595-12.675-16.905-12.91 0.69413 3.323 2.0744 13.381 0.97022 12.783-2.675-1.416-16.684-8.3432-24.813-8.0323-2.8352 1.5415-7.1602 6.366-9.3444 11.925 4.8354 2.7999 14.098 10.525 25.69 22.888 10.85 11.56 24.695 19.967 27.127 19.301 1.1241-0.30207 10.985-22.647 2.7038-40.15" fill="#595857"/>
  <path d="m38.673 118.68c-0.21872 0.0358-0.45026 0.0923-0.69638 0.1847-4.0372 1.3585-12.219 9.0786-13.776 15.95 4.9351-2.8525 10.723-3.9698 16.002-0.57759 0.07374-2.3741 1.3193-6.5254 2.2784-8.8085 0.23837-0.54983 0.44554-0.98145 0.61995-1.2709 1.3308-2.0797-1.5408-5.9347-4.4285-5.4778" fill="#e50020"/>
  <path d="m56.932 87.862c1.09-2.0707 6.5004-3.68 12.914-3.8454-17.411-15.2-33.683-42.524-36.079-50.542-0.31885-1.0531-1.1997-3.1142-0.48901-5.0763 0.50842-1.4101 3.4537-1.6351 6.8787-0.88123-14.038-9.3679-45.239-23.048-52.924-23.695-7.0519-0.583-7.025 2.458-2.1813 17.669 7.5279 23.62 17.815 36.694 28.23 50.798 9.6944 13.134 24.444 23.219 45.976 33.017-3.6278-6.7615-4.1501-14.002-2.3259-17.445" fill="#eaf5f5"/>
  <path d="m41.376 28.845c-2.2726-1.1267-6.9304-2.3417-8.1216-1.1543-2.2793 2.2608 6.2242 20.631 17.234 34.832 6.3267 8.1789 13.334 16.232 19.362 21.497 6.8938-0.15938 14.956 1.3634 20.095 5.8525 0.99309-0.89933 2.4641-1.7568 4.2403-2.4992-13.337-24.678-27.311-45.876-52.809-58.528" fill="#e50020"/>
  <path d="m23.219 211.79c0.14514-9.8545-6.6017-19.393-8.5114-20.173-3.6408 0.97465-6.4795 6.4324-6.8634 5.6517-2.4845-5.0564-2.7799-14.59-1.4213-19.431-1.0992 1.2531-2.3973 2.8062-3.4622 3.5088-1.9775 12.852 7.6069 32.19 20.274 35.202-0.28799-0.96706-0.05284-2.4301-0.01572-4.7585" fill="#e50020"/>
  <path d="m223.95 70.54c-0.0179 0.2871-0.0132 0.58777 6.6e-4 0.91311 2.7543 1.1086 8.582 2.6368 9.9822 2.5317 1.0381-0.07932 2.77-8.2133 3.5534-12.886-4.4753 1.6436-13.487 8.6152-13.539 9.4409" fill="#c60019"/>
  <path d="m161.02 262.71c-4.7255 3.5382-4.6898 5.6669-3.1122 6.3779 1.4138 0.64038 5.8157 1.7197 8.6229 1.7862-2.1465-2.3802-3.9804-5.1495-5.5106-8.1641" fill="#dcdddd"/>
  <path d="m158.12 61.861c-0.0406 6.2447 1.1404 14.68 0.5359 17.249-1.2299 5.2817-4.6236 10.393-8.3101 14.416 1.6898 0.64602 3.3482 1.2177 4.3514 2.085 8.1041-6.2833 14.925-14.34 20.76-25.282 0.68451-6.1686 2.4382-12.727 5.9873-19.366 1.1423-2.1394 2.5742-4.1046 4.2133-5.9249 1.4439-4.6676 2.8018-9.6889 4.0989-15.087 1.6221-6.7589-0.31631-8.8139-7.6016-3.5248-1.9511 1.4283-16.723 13.508-23.111 23.478-0.52996 5.0368-0.91169 9.4342-0.92456 11.956" fill="#eaf5f5"/>
  <path d="m109.98 85.12c-0.0528 0.05419-0.10337 0.11387-0.15457 0.17054 0.10675 0.01566 0.22573 0.03743 0.33333 0.05373-0.0527-0.07747-0.12312-0.15162-0.17768-0.22743" fill="#ffe100"/>
  <path d="m120.7 92.474c-1.1168-0.58647-2.34-1.203-3.682-1.8391-2.8583-1.3673-5.1115-3.1895-6.8548-5.2924-0.10675-0.01566-0.22573-0.03743-0.33333-0.05373-0.37365 0.4089-0.83702 0.89701-1.3475 1.3818-4.6692 1.4753-7.7255 4.0603-8.1006 8.3499-0.62739 7.1813 8.2215 12.286 12.634 24.959 0.95881 2.7388 1.4158 2.9235 3.4238-1.5408 4.7994-10.706 3.6261-21.772 2.3022-24.245 0.66931-0.71482 1.4021-1.2943 1.957-1.7163" fill="#595857"/>
  <path d="m122.62 84.453c1.957 1.3713 5.4035 1.3936 7.3686-1.0309-3.0102-4.909-5.6768-8.583-7.8697-11.182-2.332 3.3028-2.804 9.9171 0.5011 12.213" fill="#fccf00"/>
  <path d="m166.36 114.77c-2.6226 5.267-8.2766 7.7023-10.917 9.0035-0.21078 0.10719-0.40939 0.20258-0.58341 0.30036-2.4238 1.3027-2.2001 4.8488-0.68913 7.0212 0.95993 1.3694 2.4225 2.1932 4.0611 1.5384 5.9382-2.3694 10.865-7.0124 19.143-11.471-5.8482 0.34465-10.132-2.0485-11.015-6.3924" fill="#e50020"/>
  <path d="m151.73 143.84c-6.3643-5.6463-18.734-13.048-25.533-17.508-2.7672 4.1167-5.5684 6.6574-12.404 8.1901-0.71868 0.15936-1.7021 1.0954-1.6957 2.7297 0.97041 1.394 1.5047 2.6526 2.7597 5.2658 2.3677 1.7212 7.3956 5.29 10.837 7.907 8.1653-3.7926 23.211-3.0961 25.114 0.69858 2.4784 4.9599 0.69711 12.73-1.7923 19.519 5.1608-3.9676 8.4133-11.442 8.6264-14.865 0.22427-3.6022-1.5292-8.0484-5.9124-11.938" fill="#eaf5f5"/>
  <g fill="#e50020">
   <path d="m192.72 267.45c-1.337-13.839-19.661-57.798-25.826-65.089 1.9998 5.3145-0.11797 6.7205-3.8862 3.9509-1.4132-1.0371-4.3351-2.925-8.8676-8.2771 2.7067 8.6264-1.0784 27.937 1.4794 46.67 0.85715 6.3007 2.6426 12.551 5.4031 17.997 1.5295 3.0266 3.3642 5.7839 5.5099 8.1761 5.1698 5.7282 12.161 9.215 21.091 8.5815-1.2552-0.48644-2.2935-0.98375-2.9107-1.4907-1.7266-1.405 0.43808-7.8298 2.5204-10.379 1.6659-2.0588 3.4903-1.6449 5.487-0.13913"/>
   <path d="m166.9 202.36c-0.0432-0.099-0.0719-0.19634-0.11418-0.29532-2.2804-5.8246-11.966-19.487-19.212-27.759-1.7163-1.9569-3.2949-3.617-4.6034-4.7918 3.363 6.5767 5.3513 14.005 5.8991 21.608 1.9521 2.8006 3.7089 5.0725 5.2763 6.912 4.5205 5.3513 7.4544 7.2399 8.8676 8.277 3.7561 2.7688 5.874 1.3629 3.8862-3.9509"/>
   <path d="m154.87 124.07c0.17322-0.0855 0.37259-0.19318 0.58341-0.30035-3.8315-1.9445-7.6538-6.1591-10.154-9.6066 6.1365-5.3606 10.861-12.936 10.384-16.846-0.0896-0.69044-0.43887-1.2407-0.97572-1.6947-1.0144-0.87974-2.6608-1.4511-4.3626-2.0977-4.5748 4.9773-9.5973 8.2688-11.556 8.0867-4.9448-0.46437-6.8474-2.5167-12.774-6.1294 5.1626 7.0011 5.8486 16.631 3.5227 24.079 2.0608 0.47651 5.2754 0.55649 7.5252-0.26411 5.3427 3.1438 11.461 10.036 12.639 11.179 0.96281 0.93698 4.3381 3.0693 5.4719 2.6113-2.0958-3.0019-3.6345-7.2304-0.30356-9.0173"/>
   <path d="m126.01 95.478c-1.4813-0.90881-3.2212-1.9066-5.315-3.01-0.55475 0.4223-1.2885 1.013-1.9578 1.7282 1.2497 2.3123 2.353 12.184-1.4682 22.23-1.3081 3.4506-4.0021 3.8836-5.293 0.88384-1.7101-3.9869-2.6499-8.5746-4.6042-11.339-3.3355-4.7009-5.5365-6.5919-6.2166-10.911-0.65998-4.258 2.6536-6.923 7.322-8.3864 0.51163-0.49661 0.97427-0.98459 1.3474-1.3818-5.2472-0.81894-11.322 0.26828-15.639 2.0779-1.7763 0.74238-3.2473 1.5999-4.2403 2.4992 0.80868 0.71136 1.5538 1.4783 2.1973 2.3353 4.6725 6.1897-0.62795 20.505-8.1821 24.131-0.91612 0.43523-1.8136 0.76408-2.694 1.0097-0.0014 0.0233 0.0058 0.0333 0.0043 0.0578 1.547 7.1846 8.8481 11.291 12.892 15.027 0.68181 0.631 1.2801 1.245 1.7215 1.8732 1.3722 1.8875 0.73502 5.3679 0.40038 7.2693-0.44571 2.5312-1.9527 3.771-4.2483 6.4873 8.1287-0.31049 22.138 6.6164 24.813 8.0324 1.1049 0.58575-0.27602-9.4601-0.98141-12.796-1.4123-1.0491-2.5323-1.9718-3.273-2.8108-0.3296-1.4622-0.56323-3.3028-0.16042-4.5633 0.2127-0.71937 0.64225-1.2455 1.361-1.405 6.8232-1.5335 10.732-5.4589 13.498-9.5636 0.87234-1.2792 1.0742-2.5882 1.6012-3.9129 0.18573-0.46917 0.50249-1.3144 0.65347-1.8095 2.3259-7.448 1.6194-16.743-3.5427-23.756"/>
   <path d="m150.81 151.12c-1.9023-3.7946-16.948-4.4912-25.114-0.69859 2.2256 1.6884 4.6052 3.6026 7.0995 5.8003 1.981 1.7573 3.7938 3.7082 5.4173 5.8036 1.8137 2.3235 3.3872 4.8362 4.7476 7.4919 1.3204 1.1754 2.8991 2.8355 4.6154 4.7925 0.49352-1.1707 0.97848-2.4019 1.4419-3.6706 2.4891-6.7891 4.2703-14.559 1.7923-19.519"/>
   <path d="m70.235 217.03c-6.0486 10.124-7.9161 7.3162-7.9186 0.21575 0.0025-1.9702 0.20194-4.0361 0.53728-6.1177-4.2668 7.5554-17.653 15.708-29.627 32.239-10.49 14.496-10.893 27.146-8.2254 46.631 0.94578-1.8754 2.2476-3.6805 4.0684-5.3332 4.4441-4.0363 8.8202-1.9618 7.6732 5.4635-0.20541 1.3687-0.64093 2.7713-1.2339 4.1881 16.016-11.209 28.154-36.56 34.767-77.356-0.0093 0.0228-0.02781 0.0477-0.03745 0.0718"/>
   <path d="m257.07 42.222c-3.4542-12.83-9.4252-13.021-16.384-13.935-14.42-1.871-41.822 2.1417-55.021 16.746-1.6391 1.8202-3.0709 3.7854-4.226 5.9361-3.537 6.6397-5.2901 13.186-5.9745 19.355-0.74106 6.6937-0.22688 12.913 0.66335 18.29-1.8774 12.209-9.3695 19.276-9.863 23.149-0.14166 1.0844-0.0804 2.0854 0.10083 3.0097 0.8828 4.344 5.167 6.7372 11.015 6.3924 0.50727-0.0426 1.0143-0.0808 1.5475-0.15566 4.9192-0.66681 12.153-7.0524 16.606-6.9914 3.9612 0.0548 8.1268 0.87804 8.3414-2.376-1.9851-2.8508-3.1511-5.7346-3.355-8.054-0.49505-5.5572 0.70033-11.778 8.4231-13.916 1.2229-0.3445 2.62-0.59338 4.2012-0.71157 8.4361-0.6161 13.815-0.76169 14.867-2.4142 0.1462-0.21896 0.22163-0.47846 0.19184-0.76925-0.0734-1.1339-4.0285-9.3934-4.2496-14.333-0.0135-0.31285-0.0193-0.61366-1e-3 -0.90116 0.0514-0.82579 9.0634-7.7974 13.539-9.441 0.22152-0.08254 0.45138-0.30857 0.62499-0.2014 3.5219 2.0935 9.3485 4.9912 17.078 4.5353 2.3515-0.14181 4.5219-13.39 1.8774-23.214"/>
  </g>
  <path d="m248.79 98.56c-7.0516 0.37756-18.439-6.6023-20.769-12.01-1.064 1.6517-6.4432 1.7974-14.867 2.4142-1.5931 0.11719-2.9776 0.35545-4.2124 0.69888 14.371 22.724 37.605 25.84 45.587 10.9 0.25741-1.4376-0.0242-2.3082-5.7381-2.0031" fill="#595857"/>
  <path d="m208.94 89.666c-7.7267 2.1501-8.9189 8.3711-8.4232 13.916 0.2161 2.3201 1.37 5.2032 3.3662 8.0667 3.6947 5.2998 10.28 10.491 18.953 11.656 12.414 1.6859 24.89-2.463 30.999-20.308 0.33954-1.0121 0.56911-1.8027 0.69222-2.4318-7.9816 14.929-31.215 11.824-45.587-10.9" fill="#e50020"/>
  <path d="m148.87 191.13c-0.54787-7.6029-2.5355-15.043-5.8991-21.608-1.3605-2.6557-2.946-5.1692-4.7596-7.4927 8.2811 17.503-1.5672 39.837-2.7038 40.15-3.581 0.97847-22.6-12.52-37.956-31.196-3.999-4.8503-4.6098-6.6184-2.6475-2.0511 3.5473 8.2462-7.4301 19.192-15.037 21.926 4.6363 33.207 39.918 48.114 56.371 47.06 4.3418-0.2705 13.94-28.434 12.632-46.789" fill="#e50020"/>
  <path d="m91.335 185.65c-1.8244 2.6736-8.5991 3.8137-11.66 4.9206 4.6078 33.085 40.13 48.38 56.544 47.359-21.776-12.817-35.756-26.398-44.885-52.28" fill="#c60019"/>
  <path d="m94.907 168.94c-1.9622-4.5674-5.9076-7.1917-10.699-8.1988-1.7556-0.36129-3.6203-0.5136-5.5454-0.46555-4.7652 0.12395-9.9071 1.4736-14.619 3.8233 0.54006 4.4547 0.26711 9.7959-1.1631 15.786 3.0728 4.0958 6.7892 6.3455 7.1083 7.783-0.03204 1.4397-5.392 12.699-7.1314 23.464-0.33374 2.0816-0.5463 4.1468-0.53728 6.1176-0.0099 7.0996 1.8581 9.907 7.9186-0.21575 0.0093-0.0228 0.01095-0.0487 0.02934-0.0723 7.3495-12.301 11.525-27.263 12.211-27.292 1.1728-0.11884 2.3059-0.3734 3.3873-0.76227 7.6076-2.7461 12.588-11.735 9.0403-19.969" fill="#e50020"/>
  <path d="m92.142 92.201c-0.64389-0.85667-1.3887-1.6243-2.1973-2.3354-9.9126-8.6664-30.748-6.2993-33.01-2.0058-1.8241 3.4425-1.2772 9.7118 2.3503 16.473 0.12858 0.24832 0.28025 0.50971 0.42113 0.75883-5.7268 4.1847-19.58 10.963-21.738 13.772 0.25773-0.0802 0.49005-0.14966 0.70868-0.18394 2.8878-0.45734 3.094 5.2985 4.4597 4.7829 2.7822-1.0763 17.961-6.5706 25.58-8.1506 3.2721 2.0538 7.6315 3.4305 12.548 2.0426 0.88099-0.25715 1.7785-0.58567 2.6946-1.0216 7.5536-3.6145 12.855-17.941 8.1822-24.131" fill="#e50020"/>
  <path d="m37.39 277.6c-2.8119-1.1482-10.256 5.1521-11.914 8.4248-0.35621 0.71044-0.67719 1.4236-0.95053 2.1514-2.2477 5.8069-2.6204 17.581-1.1272 18.503 2.2338 1.3645 11.158-8.2556 13.654-13.026 0.42132-0.79118 0.7966-1.5963 1.1348-2.4042 0.71885-1.7093 1.0549-12.897-0.79605-13.649" fill="#fff"/>
  <path d="m201.92 277.3c-3.5096-3.8347-8.9262-9.6503-9.2023-9.8477-1.9967-1.5059-3.8084-1.9311-5.487 0.13911-2.0689 2.5503-4.2351 8.975-2.5196 10.367 2.2982 1.8732 8.5156 3.1252 14.643 3.5067 2.6448 0.16467 7.9205 1.6824 2.566-4.1653" fill="#fff"/>
  <path d="m17.343 159.78c-1.7436 3.1112-4.0281 5.0714-5.148 4.3408-1.1206-0.71843-0.41183-4.0022 1.299-6.9713 1.8325-3.1897 4.067-4.9248 5.1412-4.2331 0.7851 0.50572 0.78906 3.1487-1.2923 6.8636m5.6611-12.971c-3.1448-1.7816-8.6937 2.4382-12.107 8.4488-4.1426 7.2989-4.5473 13.605-1.9822 15.05 2.019 1.1469 6.7935-0.8625 11.611-8.5879 3.5096-5.6202 5.3327-13.292 2.4781-14.911" fill="#595857"/>
  <path d="m18.638 152.91c-1.0742-0.69164-3.3087 1.0434-5.1412 4.2332-1.7106 2.969-2.4316 6.252-1.311 6.9706 1.1199 0.73073 3.4164-1.229 5.1598-4.3402 2.0814-3.7149 2.0778-6.3581 1.2924-6.8635" fill="#fccf00"/>
  <path d="m199.03 76.55c-1.9557 0.92341-4.7149-2.0355-6.632-5.2065-1.0984-1.8464-3.0099-6.843-0.98016-7.798 1.7956-0.86128 4.2503 1.7785 6.2429 5.0862 0.81633 1.3603 3.4363 6.9417 1.3692 7.9183m2.9504-10.725c-3.808-6.7606-9.9775-11.29-14.108-9.3962-3.6227 1.6486-4.1025 9.3557 0.29441 17.463 3.8156 7.0254 10.901 11.515 14.785 9.3302 4.0212-2.2606 3.3118-9.7774-0.9712-17.397" fill="#595857"/>
  <path d="m191.42 63.542c-2.0305 0.96681-0.11929 5.9634 0.98014 7.798 1.9171 3.1708 4.6882 6.1306 6.6319 5.2064 2.0672-0.97657-0.55275-6.5579-1.3691-7.9183-1.9927-3.3078-4.4481-5.9355-6.2429-5.0861" fill="#fccf00"/>
  <path d="m43.017 136.53c-0.91576-0.92199-1.8532-1.6892-2.8121-2.3015-5.2799-3.3803-11.068-2.2629-16.003 0.58948-1.3087 0.75946-2.5644 1.6304-3.7287 2.5791-3.4556 2.8244-4.653 6.4261-7.0921 9.3258-11.601 13.815-15.355 28.778-11.285 34.991 0.25295-0.0172 3.2269-2.6224 4.326-3.8754-1.3586 4.8411-1.0629 14.375 1.4213 19.431 0.2033 0.39706 1.0365-0.8245 2.2778-2.2369 0.8793-23.577 4.8982-59.957 32.896-58.502" fill="#c60019"/>
  <path d="m11.538 193.56c-2.0266 1.8681-3.4239 4.244-3.6911 3.7107-2.4845-5.0563-2.7799-14.59-1.4213-19.431-1.1112 1.2523-2.3974 2.8062-3.4622 3.5087-1.9394 12.626 7.277 31.509 19.625 35.017-5.7555-6.5455-9.8555-14.406-11.051-22.806" fill="#c60019"/>
  <path d="m223.95 70.54c-0.0179 0.2871-0.0132 0.58777 6.6e-4 0.91311 2.7543 1.1086 8.582 2.6368 9.9822 2.5317 1.0381-0.07932 2.77-8.2133 3.5534-12.886-4.4753 1.6436-13.487 8.6152-13.539 9.4409" fill="#4c4949"/>
  <path d="m109.98 85.12c-0.0528 0.05419-0.10337 0.11387-0.15457 0.17054 0.10675 0.01566 0.22573 0.03743 0.33333 0.05373-0.0527-0.07747-0.12312-0.15162-0.17768-0.22743" fill="#ffe100"/>
  <path d="m118.74 94.191c0.66927-0.71482 1.4028-1.3063 1.9569-1.7163-1.1168-0.58568-2.3399-1.2029-3.6819-1.8391-2.8583-1.3673-5.1115-3.1896-6.8548-5.2924-0.10675-0.01566-0.22573-0.03743-0.33334-0.05373-0.37364 0.4089-0.83701 0.89698-1.3475 1.3818-0.50224 0.16057-0.96927 0.32408-1.4255 0.51215 2.7024 6.3794 6.5183 14.943 12.794 16.991 0.27041-4.8728-0.3985-8.6508-1.1086-9.9805" fill="#4c4949"/>
  <g fill="#c60019">
   <path d="m157.96 122.52c-0.96851 0.50438-1.8473 0.91816-2.5166 1.2489-0.21079 0.10718-0.40939 0.20256-0.58341 0.30035-2.4238 1.3028-2.2001 4.8488-0.68914 7.0213 0.95992 1.3692 2.4224 2.1932 4.0611 1.5383 4.6817-1.871 8.7416-5.1383 14.293-8.6251-4.8346 0.85233-10.352 0.71303-14.565-1.483"/>
   <path d="m184.22 274.64c-19.281-14.884-22.656-23.576-29.405-53.539-0.23107 7.3742-0.29496 15.54 0.80146 23.597 0.85724 6.3006 2.6418 12.563 5.4023 18.009 1.5303 3.0146 3.3642 5.784 5.5107 8.1642 5.1697 5.7281 12.161 9.2149 21.09 8.5934-1.2552-0.48643-2.2927-0.99571-2.9098-1.5027-0.66403-0.53361-0.75222-1.8129-0.4904-3.3223"/>
   <path d="m159.74 190.13c-3.7561-5.4719-8.3119-11.414-12.17-15.823-1.7163-1.9569-3.2949-3.6171-4.6034-4.7918 3.363 6.5768 5.3513 14.005 5.8991 21.608 0.68321 0.99165 1.3363 1.8853 1.9798 2.7424 0.61861-7.8066 5.5391-7.1518 8.8946-3.7352"/>
   <path d="m153.04 127.48c3e-3 -1.4054 0.54125-2.7175 1.8338-3.406 0.16189-0.0862 0.36028-0.19394 0.57108-0.30112-3.8315-1.9446-7.6538-6.1591-10.142-9.6058 2.313-2.0305 4.4284-4.3617 6.1362-6.7062-6.4264-3.2954-12.931-2.439-17.95 0.60041-0.89605 3.3922-1.6795 4.5929-2.746 5.1272-0.064 2.2186-0.47855 4.2111-1.1537 6.3796 2.0608 0.47652 5.2277 0.55352 7.4654-0.26781 5.3546 3.1446 11.461 10.036 12.639 11.179 0.96283 0.93694 4.7241 3.0453 5.8459 2.5865-0.71704-1.0298-2.506-4.3249-2.4994-5.5859"/>
   <path d="m128.85 102.82c0.20388-0.17916 0.47819-0.34231 0.80162-0.52634-0.90558-2.4352-2.1186-4.7573-3.636-6.822-1.4819-0.89732-3.2211-1.9065-5.3157-2.998-0.554 0.41002-1.2877 1.0011-1.9569 1.7163 0.7107 1.3177 1.3759 5.1074 1.1086 9.9805 2.5552 0.83159 5.526 0.58437 8.9984-1.35"/>
   <path d="m137.8 161.51c0.13299 0.17619 0.27916 0.34174 0.42458 0.5187 1.8016 2.3227 3.3871 4.8363 4.7476 7.4919 1.3084 1.1747 2.887 2.8349 4.6033 4.7918 0.4935-1.1706 0.97844-2.4019 1.4419-3.6705 2.0413-5.5796 3.6068-11.813 2.7282-16.614-3.0772 5.6232-8.2437 7.5602-13.945 7.4814"/>
   <path d="m41.477 233.31c-2.7443 2.9768-5.5342 6.2991-8.2551 10.058-10.489 14.484-11.347 24.595-8.6672 44.08 0.94569-1.8754 5.2594-7.0971 6.0971-7.4295-4.2629-13.349 1.8634-30.459 10.825-46.709"/>
   <path d="m179.24 55.639c-2.0917 5.0357-3.2521 9.9733-3.7738 14.686-0.74106 6.6936-0.22689 12.913 0.66335 18.29-1.8767 12.197-9.3688 19.264-9.863 23.149-0.14167 1.0845-0.0804 2.0854 0.10081 3.0098 0.88291 4.3439 5.1671 6.7372 11.016 6.3804 0.50619-0.026 1.0134-0.0695 1.5467-0.14401 4.9191-0.66687 12.153-7.0524 16.606-6.9914 3.9612 0.0548 8.1267 0.87885 8.3413-2.376-1.0482-1.4949-1.8549-3.0108-2.4267-4.44-4.9211-1.039-9.4826-3.2214-12.557-6.7167-10.932-11.205-12.641-28.527-9.6542-44.848"/>
   <path d="m238.09 109.7c-7.5944 8.1291-20.125 8.9108-33.585 2.7986 3.7979 4.994 10.124 9.7008 18.333 10.813 12.414 1.674 24.89-2.463 30.988-20.32 0.35042-0.99941 0.58056-1.802 0.69147-2.4198-3.3591 6.2904-9.4378 9.3719-16.427 9.129"/>
   <path d="m82.484 189.67c1.1727-0.11884 2.3066-0.38486 3.3881-0.77423 2.5803-0.92058 4.8461-2.5816 6.5981-4.671-10.447 2.0407-21.735 0.0284-28.964-7.3537-0.18157 0.98587-0.37618 1.9828-0.63131 3.0002 3.0728 4.0958 6.8005 6.3582 7.1075 7.795-0.0089 0.67199-1.1914 3.506-2.625 7.4294 4.524-2.0371 9.3512-2.0008 12.2 1.8408 1.6392-4.3311 2.6266-7.261 2.9273-7.2664"/>
   <path d="m57.592 100.67c0.46646 1.1944 1.0267 2.4187 1.6942 3.6616 0.12858 0.24831 0.28107 0.50973 0.42113 0.75883-3.3106 2.4249-8.0879 5.2512-12.04 7.3718 5.7594 0.11826 11.243 1.3849 15.417 4.3958 1.8892-0.62733 3.809-1.1685 5.6347-1.5474 3.2721 2.0539 7.6315 3.4306 12.548 2.0427 0.88036-0.24566 1.7786-0.58651 2.6947-1.0216 2.1172-1.0095 4.0465-2.8596 5.6421-5.1391-8.2894-8.301-20.653-15.222-32.011-10.523"/>
  </g>
  <path d="m23.357 306.95c-0.95774 1.8746 10.706-7.3588 14.83-15.704 1.0309-2.0862 0.29049-15.468-0.81026-13.614-2.1092 3.581-12.105 25.581-14.019 29.318" fill="#dcdddd"/>
  <path d="m184.71 277.96c2.2989 1.8611 8.5155 3.1251 14.643 3.5066 2.3098 0.1438 6.61 1.3126 4.1177-2.2666-7.542-1.5868-12.023-2.9351-18.562-7.1265-0.87628 2.4924-1.2165 5.0662-0.19859 5.8865" fill="#dcdddd"/>
  <path d="m10.899 155.25c-4.1427 7.2989-4.5474 13.605-1.983 15.062 0.83556 0.47269 2.1505 0.38648 3.7375-0.40361 0.39361-2.0779 0.85863-4.1394 1.38-6.1493-0.72807 0.49549-1.3866 0.65863-1.8369 0.36636-1.1318-0.73147-0.41108-4.0142 1.2991-6.9712 1.5095-2.6332 3.2937-4.2762 4.4777-4.3827 1.1042-2.298 2.3662-4.43 3.7951-6.3474-3.2096-0.35635-7.8609 3.5352-10.869 8.8263" fill="#4c4949"/>
  <path d="m13.492 157.15c-1.6987 2.9698-2.4196 6.2528-1.2991 6.9713 0.45018 0.29229 1.1084 0.14315 1.8361-0.35407 1.0241-3.9009 2.3124-7.617 3.9406-11-1.184 0.10645-2.9682 1.7494-4.4777 4.3826" fill="#dab300"/>
  <path d="m191.42 63.542c-2.0305 0.96681-0.11929 5.9634 0.98014 7.798 1.9171 3.1708 4.6882 6.1306 6.6319 5.2064 2.0672-0.97657-0.55275-6.5579-1.3691-7.9183-1.9927-3.3078-4.4481-5.9355-6.2429-5.0861" fill="#fccf00"/>
  <path d="m119.67 69.21c-0.5645 0.96204-1.0579 1.9405-1.4796 2.9234 0.75505 0.80351 1.6542 1.7969 2.6193 2.8902 0.31659-1.0375 0.84236-2.1461 1.3838-2.9294-1.3266-1.6564-2.3014-2.7863-2.5236-2.8843" fill="#dcdddd"/>
  <path d="m130.15 83.315c-0.37521 0.43348-0.97212 0.94867-1.397 1.2106 0.88888 1.1606 1.6297 2.1918 2.1324 2.9921 0.36101-0.20558 0.72505-0.44712 1.1009-0.7003-0.37387-0.93634-1.0192-2.1538-1.8363-3.5023" fill="#dcdddd"/>
  <path d="m128.76 84.527c0.4499-0.28478 0.86969-0.6546 1.2338-1.1006-3.0102-4.9089-5.6888-8.5836-7.8697-11.182-0.55256 0.77065-0.98537 1.7407-1.3142 2.7775 2.6051 2.9254 5.7392 6.6166 7.9502 9.5054" fill="#dab300"/>
  <g fill="#c60019">
   <path d="m131.89 86.465c-3.1361 3.8655-11.227 2.7971-13.297-0.23928-1.9371-2.8478-4.207-11.543 1.4934-17.231-13.281-18.043-30.244-37.54-37.323-45.033 0.0574 0.26784 0.11071 0.53537 0.15792 0.74244 0.33177 1.8107 15.66 23.825 23.736 34.985-2.4028 7.9117-2.4243 18.29 3.318 25.436 0.0703 0.06186 4.1753 4.1405 7.0336 5.5078 1.342 0.63591 2.5651 1.253 3.6818 1.8391 2.0938 1.1034 3.8338 2.1009 5.315 3.01 5.6135 3.425 7.626 5.4485 12.022 6.0466 5e-3 -3.3636-2.3656-8.7012-6.1383-15.063"/>
   <path d="m113.55-4.5298c0.28662 6.3973 4.635 28.017 4.4894 44.058 2.5338 1.9478 9.244 6.0899 10.156 6.4951 0.96352-4.277-2.9222-30.829-14.645-50.553"/>
   <path d="m160.32 16.235c-0.87887 0.22182-1.8793 1.2406-2.5762 2.5908-1.4174 2.699-7.5489 13.382-12.142 18.466 0.84579 2.6237 1.851 5.3894 2.6763 6.7983 1.0148-0.66942 9.1158-19.832 12.042-27.855"/>
   <path d="m84.681 123.98c2.9081 3.4609 6.8804 6.039 9.4928 8.4602 0.67022 0.61874 1.2681 1.2442 1.7223 1.8612 0.5085 0.7042 0.8489 2.768 0.91867 3.7694 4.5114 4.9183 17.777 14.719 16.886 5.4845l-1.0942-3.0716c-0.34108-1.4628-0.56321-3.3028-0.1727-4.564 0.22491-0.71862 0.64224-1.2455 1.3609-1.405 6.8352-1.5327 10.583-5.5764 13.35-9.6811 0.86088-1.2799 2.8219-6.7323 2.987-7.8393-7.8329 11.382-31.911 14.316-45.451 6.9856"/>
  </g>
  <g fill="#cad4d4">
   <path d="m37.403 42.684c4.8641 13.338 14.516 40.273 9.5185 56.289l11.91 6.0997s-5.8674-13.821-1.9236-17.924c3.943-4.0915 12.367-3.3509 12.367-3.3509s-29.957-34.627-31.872-41.114"/>
   <path d="m90.053 140.43s-20.231 8.8682-31.809 9.0123c0 0 6.1091 8.7781 6.0559 14.265 0 0 7.0515-4.0422 14.265-3.7373 0 0 9.5765-14.301 11.488-19.54"/>
   <path d="m151.18 162.46 0.64994-6.5792c1.8692 0.6572 4.1492 1.0872 5.31 1.1595 0 0-3.7906 9.7476-8.1143 13.587z"/>
   <path d="m131.33 148.17c-9.3026-4.1834-17.537-8.5405-17.537-8.5405l1.3284 3.1702 10.135 7.4068z"/>
  </g>
  <path d="m230.84 90.538c-0.77213-0.52883-1.7762-2.3452-3.001-3.7069 0 0-1.2093 0.51327-6.56 1.3576-5.3507 0.84425-12.442 1.2798-12.442 1.2798 3.0074 8.4288 16.409 21.061 30.112 19.98-5.0274-1.2621-10.333-9.8219-8.1094-18.91" fill="#4c4949"/>
  <g fill="#0f141b">
   <path d="m82.22 19.941c-2.4528 2.3462-1.126 7.6669 26.492 43.398 2.6344 3.4198 4.9069 4.3542 2.3937 1.1102-24.682-31.944-29.126-41.808-27.579-43.297 0.98401-0.94787 8.7745 1.0871 32.137 17.763 4.7616 3.408 8.879 6.3555 11.457 7.5972 0.35022 0.16576 0.83553 0.28006 1.1519 0.02237 0.89884-0.73674 1.2514-2.9255 0.32999-6.491-0.72618-2.8084-1.8609-3.1073-1.2118-0.60391 0.42287 1.6962 0.75582 4.8405 0.18369 5.5378-2.4902-1.2964-6.4724-4.2955-10.935-7.4807-24.868-17.767-32.504-19.396-34.42-17.557"/>
   <path d="m114.38-10.969c-1.3941 0.39393-2.2486 5.2422-0.37289 17.373 1.4518 9.293 3.8343 26.213 2.9884 32.275-0.0523 0.41738 2.002 1.8066 2.0154 1.3989 0.28054-10.879-1.7867-24.175-3.2962-33.892-1.4068-9.0499-2.0994-14.908-0.86313-15.468 1.4083-0.62107 4.4283 1.429 11.272 11.923 7.7749 11.933 15.95 28.625 21.341 41.419 1.1622 2.7514 1.4428-0.0179 0.3553-2.8132-4.9418-12.67-12.772-27.959-20.202-39.45-6.2036-9.5769-11.306-13.306-13.237-12.766"/>
   <path d="m161.36 15.033c-3.1416-0.48379-12.013 16.768-16.447 20.841-0.26741 0.24761 0.81353 2.3694 0.95489 2.222 4.9173-5.2683 13.217-21.259 14.799-21.004 0.71369 0.11863 0.90747 3.9489-0.63244 17.681-1.1058 9.8546-2.614 22.111-2.6473 27.083-0.0147 2.7503 0.206 5.9596 0.40078 8.8071 0.24605 3.5714 0.46916 6.9372 0.15658 8.2873-2.722 11.688-16.112 22.208-19.086 21.927-3.6433-0.33456-5.5136-1.5566-8.9195-3.7751-2.7013-1.7661-6.3961-4.1706-12.603-7.1399-11.398-5.4552-13.278-18.679-10.097-29.63 0.0633-0.22411-0.92797-2.0761-1.0603-1.6879-5.0411 16.133-0.32024 27.528 10.075 32.5 6.113 2.9276 10.221 5.4539 12.876 7.1931 3.4876 2.2595 5.6652 3.7526 9.6743 4.0022 4.7272 0.29431 18.782-12.418 21.224-22.887 0.3616-1.5633-0.26338-5.0382-0.52867-8.8751-0.18557-2.8108-0.64622-6.0232-0.63489-8.7136 0.0278-4.8879 1.7583-18.008 2.9335-27.822 1.9192-15.967 0.68017-18.832-0.4383-19.009"/>
   <path d="m153.91 95.307c-0.32716 0.24389 1.1102 1.0782 1.3375 0.89986 8.0839-6.3447 14.569-13.642 19.747-22.895 6.6e-4 -1.2013 0.18186-2.3915-4e-3 -3.6044-5.7589 10.874-12.628 19.121-21.08 25.599"/>
   <path d="m181.77 25.098c-1.8748 1.361-15.844 12.89-22.495 22.855-0.37189 0.56541 0.0661 3.38 0.26807 3.0322 5.964-10.117 21.106-22.546 23.045-23.963 6.3416-4.603 7.8222-2.9129 6.46 2.757-1.1649 4.8171-2.8142 10.661-4.1019 14.942 0.58745-0.56434 1.5076-1.0595 2.3063-1.5384 1.0352-3.6959 2.4774-8.9163 3.4794-13.047 2.6615-11.103-2.7451-9.5538-8.961-5.0391"/>
   <path d="m189.23 32.642c-17.431 8.4659-25.912 19.075-30.905 26.14 0 0 0.14061 2.1832 0.38867 1.8624 2.0144-2.6378 11.664-16.766 29.754-25.984 0.4592-0.23567 1.1222-2.2008 0.76285-2.0189"/>
   <path d="m166.94 49.423c-1.2401 6.9869-4.8192 15.27-8.1763 20.563-0.14696 0.23117 0.21832 2.2842 0.431 1.9491 3.7429-5.7018 8.3621-15.83 9.3977-23.587 0.0574-0.3932-1.5781 0.64671-1.6527 1.0745"/>
   <path d="m177.27 40.737c-2.1874 14.485-11.679 34.75-20.566 44.348-0.79874 0.86334-2.4665 4.3037-2.1621 4.0463 11.103-9.2923 22.449-33.311 24.395-49.709 0.0486-0.40528-1.5885 0.81416-1.6676 1.3138"/>
   <path d="m130.14 118.62c-0.38927-0.12052-0.77902 1.1289-0.40354 1.2724 2.5464 0.97512 5.4049 0.79335 8.0524-0.051-0.62828-0.32732-1.2822-0.63219-1.8716-1.0056-1.6215 0.37979-4.1511 0.29391-5.7772-0.21573"/>
   <path d="m157.01 97.048c-0.29825-2.3493-3.1991-3.2267-5.5921-4.1566l-1.0012 1.0309c2.3929 0.93015 4.3521 2.073 4.5282 3.4896 0.45649 3.6687-4.0124 10.995-9.7099 16.059 0.29179 0.52277 0.66178 0.56966 1.013 1.0963 6.4776-5.4354 11.297-13.185 10.762-17.519"/>
   <path d="m109.34 84.729c-3.2087 3.4885-4.3007 3.4685-4.4204 3.4611-1.6216-0.19729-1.797 1.2697-0.17548 1.4668 0.47741 0.0531 1.8609 0.21218 5.6618-3.9124 0.21897-0.23836-0.8597-1.2429-1.0661-1.0155"/>
   <path d="m119.85 92.196c-1.8075 1.4372-3.3426 3.1318-3.3123 4.9597 0.0457 3.1266 1.2851 3.6723 1.2387 0.55784-0.024-2.1279 2.6723-4.1346 3.5547-4.8004 0.32716-0.24389-1.2785-0.88467-1.4811-0.71701"/>
   <path d="m117.86 116.3c3.8032-10.143 3.1126-20.278 1.6394-22.857-0.15235-0.24981-1.4104 1.0415-1.3461 1.1657 0.54303 1.115 1.2585 4.8718 0.94704 9.8743-0.21086 3.3868-0.88873 7.3333-2.4169 11.419-1.2827 3.4282-2.768 3.9364-4.4376 0.0719-1.8687-4.3333-2.5728-8.4619-4.7492-11.132-5.0457-6.177-8.3749-12.523-2.4025-16.02 1.0978-0.65275 4.0338-2.6563 3.6427-2.5484-10.46 2.8208-10.856 9.572-2.3642 19.255 2.3328 2.6682 2.8081 6.9988 4.5495 11.06 1.9293 4.5172 5.2652 4.1962 6.9381-0.28915"/>
   <path d="m129.71 102.86c-0.55103-2.5332-1.0333-4.2451-2.1849-6.3952-0.38802-0.70904-2.8928-1.5857-2.6361-1.2694 1.7388 2.1747 2.913 4.9269 3.836 7.8556 0.27166 0.84591 1.2456 1.0266 0.98503-0.19068"/>
   <path d="m130.81 109.6c0.83804 10.853-3.5489 22.654-16.854 25.634-0.32905 0.0758-0.55813 0.27804-0.72469 0.63974-0.80707 1.7638 0.3223 6.2073 0.62388 6.7667 1.2721 2.3378 0.0558 2.7666-1.2153 0.41657-0.33495-0.60941-1.8802-5.3071-0.75209-7.7957 0.36151-0.78257 0.96901-1.2852 1.7491-1.4649 11.477-2.5653 16.254-13.693 16.085-24.096-0.0488-2.2976 0.97578-1.5851 1.0876-0.1002"/>
   <path d="m33.132 27.083c-5.7921 3.6882 16.068 40.634 35.275 56.307 0.32047 0.26027 2.817 0.68 2.6336 0.53686-16.689-13.473-40.03-52.494-36.986-55.452 2.68-2.9088 22.528 7.4936 39.88 29.238 6.8758 8.6216 13.371 18.529 19.386 29.596 0.17241 0.31121 1.6312 0.04407 1.4375-0.31878-6.2879-11.697-12.391-22.12-19.168-30.784-15.145-19.372-36.428-32.964-42.458-29.122"/>
   <path d="m13.871 71.851c-4.463-5.8883-20.014-27.04-27.18-49.52-4.7733-14.99-5.3553-18.571 1.2439-17.283 9.0215 1.7511 38.246 14.767 50.462 22.905 0.18443 0.13178 7.3574 1.8517 7.2078 1.7463-14.784-9.9308-40.688-22.825-57.714-26.636-7.8316-1.7611-10.027 0.69724-3.8181 19.645 5.4491 16.678 12.954 31.021 28.002 50.015 10.091 12.75 22.705 21.441 46.195 33.163 0.56482-0.38546 1.0485-0.82372 1.5592-1.1163-27.039-13.193-41.072-26.489-45.958-32.92"/>
   <path d="m-17.448 12.36c-0.40728-0.01634 0.4184 1.768 0.67014 1.7837 12.68 0.6931 27.158 7.8059 41.418 14.953l9.0343 5.0197c0.34874 0.18962-0.52061-2.2551-0.52061-2.2551l-7.7813-4.3048c-13.879-7.0993-29.757-14.696-42.821-15.196"/>
   <path d="m11.122 21.87c5.7385 25.923 22.768 48.8 45.41 65.263 0.31041 0.22343 1.4928-0.62816 1.1935-0.83876-20.552-14.927-39.102-40.182-44.709-63.79-0.06427-0.31597-1.9779-1.0362-1.8947-0.63411"/>
   <path d="m-4.2414 15.431c8.148 33.341 25.475 58.952 60.509 82.086 0.58848 0.38485 0.83262-1.6061-0.14693-2.2678-31.183-20.923-50.326-46.9-58.473-79.292-0.066508-0.28066-1.9853-0.9163-1.8894-0.52592"/>
   <path d="m92.696 91.416c-7.791-10.324-33.653-10.781-37.139-4.1864-1.9886 3.7687-0.93976 10.85 3.2303 18.162 0.37779-0.27695 1.02-0.56129 1.4359-0.87174-3.7841-6.7591-4.3795-13.019-2.6367-16.311 0.69426-1.3143 4.3726-2.8874 10.072-3.3495 7.8362-0.62942 18.797 1.0377 23.892 7.7827 1.6872 2.2316 2.0696 5.9315 1.0511 10.133-1.4018 5.7274-5.0843 11.037-8.9597 12.886-5.8207 2.7973-10.797 1.2862-14.201-0.76383-0.7179 0.14714-1.2311 0.28393-2.0179 0.37898 4.7018 3.5966 11.062 4.8696 16.56 2.2324 4.3092-2.0624 8.7723-8.1399 10.29-14.377 1.1291-4.6271 0.37586-9.1312-1.5772-11.716"/>
   <path d="m80.34 117.8c1.2355 5.8196 5.3494 9.5958 9.591 12.287 2.0923 1.3196 4.1108 3.2474 5.1179 4.6316 1.1732 1.6108 0.49199 5.6051 0.19016 7.3643-0.38732 2.1624-10.551 9.5068-13.921 18.091-0.08644 0.19872 2.2254 0.72711 2.3382 0.45756 3.4214-8.449 12.932-16.098 13.325-18.357 0.38801-2.1865 1.0403-6.2906-0.49787-8.4047-1.1171-1.5473-3.0053-3.0585-5.0087-4.6489-4.0285-3.2182-8.5957-6.8544-9.5738-12.37-0.07135-0.40122-1.5877 0.80218-1.5607 0.948"/>
   <path d="m108.95 84.417c-7.5531-0.83079-16.014 0.96127-19.845 4.5913-0.2934 0.26994 0.83293 1.866 1.1268 1.5839 3.2992-3.2066 12.811-5.8581 20.15-4.4762 0.39218 0.07376-0.85907-1.6393-1.432-1.699"/>
   <path d="m136.23 108.91c-1.7716 1.2473-1.4408 2.3011 0.40738 1.1787 0.86229-0.53487 2.7426-0.44166 3.9165 0.19444 1.4998 0.80213 1.8466 0.0575 0.58827-0.96047-1.2695-1.0282-3.4926-1.4069-4.912-0.41354"/>
   <path d="m144.16 113.57c1.8415 3.034 5.3685 7.7468 10.371 10.569 0.37176 0.20331 2.3432-0.58673 1.9699-0.76637-5.0941-2.3115-10.273-8.8571-12.18-11.991-1.5909-2.622-1.7631-0.4341-0.15961 2.1887"/>
   <path d="m133.6 118.59c4.7969 1.1038 11.386 8.1575 14.205 11.313 3.021 3.3838 7.076 4.6334 10.003 3.5422 0.38106-0.14418-1.3667-0.62591-1.7602-0.6743-3.1818-0.41447-4.087-1.1194-6.7572-3.7725-2.7741-2.9119-8.9456-9.7236-14.168-10.938-1.7884-0.41182-3.3111 0.11818-1.5227 0.52995"/>
   <path d="m166.11 113.12c-1.7684 5.2481-8.2763 8.8555-10.358 9.687-2.0814 0.81952-4.6202 3.1964-3.2638 7.6539 0.36047 1.1517 2.6727 4.155 6.4428 2.6477 3.3266-1.3307 15.697-9.3667 19.672-11.474 0.36029-0.19394-2.3958-0.68999-3.0689-0.2988-3.1134 1.7644-14.386 9.3402-17.564 10.608-1.6632 0.6653-3.0076-0.70418-3.655-2.0777-1.3463-2.883-0.0459-4.8564 1.6218-5.5936 2.6055-1.1353 8.2325-3.9086 10.849-8.6954 0.20255-0.35947-0.54396-2.8452-0.67598-2.4569"/>
   <path d="m175.44 86.363c-0.87921 8.331-4.7937 15.44-7.323 19.595-1.4737 2.4431-2.6385 4.365-2.8446 5.938-0.94081 7.39 6.4756 11.384 13.454 10.437 2.4839-0.33762 5.7363-2.5983 8.599-4.1981 2.9758-1.6769 6.0629-3.4069 8.1879-3.3828 1.2102 0.052 7.773 0.77215 9.3904-1.0852 0.69831-0.79755-1.5877-1.9009-1.9286-1.4416-1.0498 1.4243-7.442 1.0504-7.442 1.0504-2.5326-0.0374-5.6332 1.7157-8.932 3.5647-2.7394 1.5474-5.5932 3.3881-7.7862 3.684-8.6753 1.1779-12.524-3.1945-11.822-8.6772 0.16242-1.2634 1.2603-3.0692 2.6517-5.3492 2.222-3.658 5.1529-8.4733 6.657-14.879 0.24653-1.0659-0.82482-5.6618-0.86211-5.2557"/>
   <path d="m222.93 122.58c-13.462-1.8233-21.164-13.199-21.676-19.058-0.22161-2.4165-0.0537-7.0435 2.3305-9.8384 3.4097-4.0166 9.0884-3.567 12.72-4.2059 6.0688-0.41486 9.2708-0.70827 11.007-1.7775 3.2302 5.6194 12.866 11.397 21.516 11.599 3.6949 0.08608 5.8884-1.1832 4.3016 3.4635-6.4616 18.88-19.989 21.197-30.199 19.817m-42.692-72.255c-10.158 19.01-5.77 36.331-3.6411 45.366 0.84382 3.6206 2.8809 5.057 2.025 1.4356-2.0792-8.8635-6.4225-27.287 3.4645-45.81 10.05-18.825 44.595-24.111 58.502-22.296 2.98 0.37739 12.052-0.41502 15.769 13.392 2.2721 8.4671 0.98878 21.554-1.0037 22.295-6.6377 1.8333-16.009-4.9132-17.439-4.5216-3.7403 1.0286-15.061 8.6133-15.165 10.289-0.21831 3.5064 2.368 9.0498 3.775 12.693 1.3442 3.4956 0.165 3.7225-10.321 4.8358-6.7487 0.72115-9.7735 0.48476-13.468 4.2434-3.1945 3.2612-3.3584 8.9816-3.1177 11.676 0.68849 7.6596 9.2342 18.404 22.791 20.245 10.77 1.4517 25.083-1.1176 31.868-20.951 1.6153-4.717 0.64232-5.3062-5.2818-5.0864-7.4174 0.27084-17.895-6.2681-20.462-11.726 0.0322-0.14195 0.31256-1.9388-0.39141-3.7486-1.2619-3.2743-4.0313-8.5767-3.8922-11.776 0.80279-1.1274 10.072-8.1792 14.057-9.2767 6.6946 4.2013 14.7 5.6728 17.824 4.3175 1.667-0.72516 5.2135-11.954 2.1497-24.11-3.2366-12.852-10.308-14.662-17.355-15.329-17.497-1.6541-50.843 5.4124-60.689 23.842"/>
   <path d="m207.75 90.255c14.759 23.253 37.323 24.573 45.854 13.175 0.66966-0.91935 0.93269-4.7474 0.90736-4.3406-0.076 1.0765-0.56885-0.13174-0.81071 1.4392-1.1457 7.4013-25.767 18.291-44.507-11.073-0.16457-0.25056-1.5204 0.68655-1.4433 0.79918"/>
   <path d="m236.71 61.298c-0.85393 5.0287-2.0026 11.517-3.0264 11.946-1.0246 0.44082-7.0925-1.4748-9.644-2.5587-0.16369-0.06767-0.51842 1.3853-0.14458 1.5287 2.8732 1.128 8.0445 3.7446 10.501 3.0806 2.3455-0.62281 3.3168-7.7347 3.8598-14.333 9e-3 -0.1434-1.49 0.0036-1.5467 0.33669"/>
   <path d="m113.08 141.85c1.8376 2.5172 14.8 11.013 19.218 14.928 9.724 8.6067 15.35 22.052 15.952 36.122 0.63332 14.72-7.1725 42.263-12.053 44.242-6.2007 2.5333-48.411-7.8076-54.756-45.986-0.07135-0.40122-1.9251 3.7126-1.583 5.1636 7.9528 33.389 49.065 45.728 56.991 42.509 4.2286-1.731 13.209-25.752 13.457-43.434 0.22503-15.58-5.7897-30.119-16.823-39.888-4.4857-3.9795-20.016-13.885-20.752-16.922-0.096-0.3904-0.1296 2.611 0.34905 3.2655"/>
   <path d="m115.24 143.59c0.59712 2.56 1.4518 9.4852 1.3266 11.496-5.6e-4 9e-3 -1e-3 0.0233-2e-3 0.0328-3.0296-1.5101-15.842-8.3748-24.113-8.0849-0.2409 8e-3 -1.7027 1.684-1.292 1.6495 6.9603-0.6479 21.91 6.2298 25.34 8.0652 0.32645 0.16428 0.71234 0.14064 0.99028-0.0823 1.5764-1.1993-0.68214-12.393-0.71127-12.503-0.0952-0.4027-1.5574-0.6493-1.5379-0.57647"/>
   <path d="m90.545 163.62c16.174 22.332 40.351 40.584 45.154 39.273 2.2736-0.62728 10.733-21.882 4.5624-38.353-0.56682-1.513-3.7618-4.2228-3.6855-4.098 7.7938 12.595 2.8589 34.934-1.4015 41.036-3.5601 0.45089-24.845-14.666-40.933-35.671-2.6225-3.4191-5.3999-4.541-3.6962-2.1884"/>
   <path d="m126.83 151.62c0.64875 7.3328 0.63316 14.144-0.1835 17.997-0.44266 2.0989-0.65402 3.167-1.1174 3.4745-0.46439 0.3193-20.287-12.616-41.927-14.504-0.22658-0.0231-1.0844 0.82148-0.57754 1.3697 0.3937 0.43279 2.1258 0.58918 2.3069 0.57579 11.439-0.2249 27.855 7.8012 37.116 12.655 3.6527 1.9214 4.1405 2.1921 5.1455-1.9863 1.1851-4.948 1.4427-13.137 0.72737-18.624-0.10376-0.84741-1.5397-1.5135-1.4902-0.95775"/>
   <path d="m144.34 171.87c7.2248 7.4539 19.271 24.11 21.759 30.464 1.7221 4.3721 0.41792 5.6365-2.6492 3.3791 0 0-7.154-5.1188-14.351-15.526-0.23092-0.33872-0.45278 2.4466-0.0775 2.9746 6.6763 9.318 13.549 13.746 13.549 13.746 6.0663 4.4504 7.3489 0.6377 4.933-5.5196-3.6822-9.3599-15.534-25.079-24.404-32.744-0.30739-0.27201 0.43951 2.394 1.2409 3.2249"/>
   <path d="m124.41 149.62c-0.3718 0.18095 1.0587 1.7118 1.4185 1.5299 7.8496-3.7402 22.665-3.0099 24.322 0.28892 2.1155 4.2285-0.23845 15.795-3.1106 22.561-0.15591 0.37472 1.488 1.3782 1.6435 1.0034 4.5503-10.757 5.3186-19.432 2.7968-24.466-2.1903-4.3773-18.701-4.9006-27.07-0.91653"/>
   <path d="m64.187 162.92c-0.35951 0.18173 0.27564 1.7471 0.63517 1.5653 7.4369-3.6698 15.759-4.5812 21.714-2.3964 6.2363 2.2984 11.882 11 6.7902 19.645-2.3918 4.0679-6.4758 6.7571-10.913 7.2017-0.67453 0.0322-0.84549 0.46431-2.4432 4.7015-2.0137 5.329-5.3931 14.261-10.262 22.416-6.2094 10.39-6.564 6.8238-6.6573 1.1834-0.15976-9.9814 7.4234-28.539 7.6789-29.557 0.03651-1.5114-4.4596-4.3984-7.4375-8.4763-0.24381-0.32797-0.70669 2.0824-0.33754 2.5259 1.3318 1.5727 5.7899 5.8028 5.9635 6.2942-4.107 9.812-7.255 19.852-7.8242 29.187-0.40011 6.4265 1.1951 14.767 10.073-0.0816 4.936-8.2706 9.1586-19.361 11.752-26.468 4.807-0.60176 9.6037-3.5468 12.17-7.9043 4.7962-8.1472 2.0046-18.497-7.532-22.01-6.3186-2.3277-15.586-1.6668-23.37 2.1732"/>
   <path d="m69.972 104.66c2.1214 0.85318 3.2404 4.2985 2.4004 7.3698-0.48612 1.8319 0.86121 1.219 1.3589-0.60029 0.8711-3.1894-0.19133-6.7637-2.6646-7.7586-1.8865-0.76611-2.9933 0.22191-1.0947 0.98904"/>
   <path d="m60.21 103.85c-5.5437 4.1361-13.366 8.5988-17.213 10.57-2.9541 1.522-5.0847 2.9391-7.2248 5.0885-0.15242 0.13447 2.9341-0.81442 2.9385-1.0785 2.2368-1.3865 4.0779-2.5934 5.018-3.0274 4.5651-2.1186 14.648-7.9663 18.665-11.501 2.212-1.9527 0.17062-1.8155-2.1833-0.0518"/>
   <path d="m69.888 114.54c-8.1876 1.4486-23.397 7.2414-26.192 8.5211-0.29671 0.13803-0.76717 1.3217-0.39684 1.1646 8.0675-3.1859 18.07-6.5759 25.85-8.2419 3.97-0.8581 4.7468-2.1433 0.73855-1.4438"/>
   <path d="m38.543 118.2c-4.0037 0.62776-14.424 8.7972-15.824 17.396-0.05745 0.3932 2.2362-0.79779 2.3603-1.2466 1.946-6.7508 10.34-14.41 13.713-14.945 1.9043-0.28972 4.7054 2.7679 3.693 4.3627-0.87907 1.387-2.6522 6.5146-2.9746 9.7623-0.03249 0.39475 1.9339 1.7423 1.8388 1.3399-0.57003-2.4263 1.4788-8.8943 2.3715-10.304 1.4924-2.3579-1.4901-6.9407-5.1781-6.3654"/>
   <path d="m20.036 136.34c-2.2405 1.8307-3.8315 4.4228-5.0996 6.4583-0.76121 1.226-1.4699 2.3833-2.3642 3.4329-14.378 17.126-15.346 29.392-11.101 35.891 0.91063 1.3902 2.3935-0.23541 5.1107-3.3581l-0.22764-1.9364c-0.86677 0.9912-3.0747 3.4608-3.9214 3.9366-0.88219-1.6528-1.2807-3.9362-1.1093-6.6887 0.44258-7.1087 4.4814-17.177 12.618-26.882 0.95936-1.1297 1.7347-2.3909 2.4951-3.6051 1.2015-1.9315 2.4441-3.9445 4.5065-5.6182 7.7077-6.284 15.596-6.9702 21.584-0.89084 0.58812 0.58898 3.1096 1.383 2.8649 1.0675-6.299-8.2374-16.675-8.8833-25.357-1.8068"/>
   <path d="m39.336 137.02c12.903 3.4704 20.411 14.09 22.926 22.127 3.1274 9.974 1.2632 27.759-13.318 47.767-8.512 11.676-18.749 11.315-22.743 10.622-2.4833-0.44281-1.9741-0.71147-1.8281-3.6339l0.07153-2.074c0.14327-10.023-7.2249-19.996-9.4518-20.892-0.99632-0.39871-4.3999 1.396-6.842 4.5358-2.412-5.8328-2.2614-13.849-0.30829-19.362 0.61293-1.74-0.45175-2.7794-1.6947 0.59088-1.8365 4.9916-1.8692 14.973 1.0425 20.885 0.43596 0.90423 1.1842 0.66229 2.6124-1.0507 1.1687-1.405 2.9177-3.4466 4.8562-4.0948 1.773 1.2397 7.9614 10.095 7.8306 19.337l-0.07677 2.0256c-0.14821 2.9101-0.41078 5.2486 3.3568 5.9036 7.3804 1.2884 17.396-1.7402 24.831-11.934 15.12-20.756 17.109-38.809 13.813-49.358-2.6251-8.3929-9.8827-18.6-23.353-22.226-2.7175-0.73387-4.4271 0.0964-1.7216 0.82991"/>
   <path d="m1.9818 181.71c-2.2536 19.022 11.619 34.122 21.034 35.549 0.28556 0.0411 0.34404-1.4803-0.04886-1.5288-8.2772-1.164-22.105-19.493-19.09-35.308 0.074513-0.40367-1.8398 0.79852-1.8943 1.2877"/>
   <path d="m62.472 209.45c-1.3088 3.847-5.4232 7.4114-10.65 12.24-5.5702 5.1436-13.478 11.944-20.143 21.152-11.382 15.714-10.607 26.803-7.8641 46.425 0.11588 0.83621 1.5096-2.4409 1.4061-3.2884-2.0866-17.622-0.90602-29.058 8.5967-42.174 6.5851-9.093 13.456-15.441 18.975-20.54 4.4104-4.0745 8.0559-7.4396 10.021-10.837 0.43138-0.75431-0.21114-3.365-0.34314-2.9768"/>
   <path d="m69.249 218.55c-6.0034 36.221-16.515 60.723-31.298 72.97-0.82437 0.69363-1.644 3.2495-1.0689 2.8889 14.957-9.4489 26.742-29.511 34.44-78.097 0.07376-0.39218-1.9556 1.5001-2.0735 2.2377"/>
   <path d="m28.574 284.12m-4.6284 21.853c-1.1206-0.52664-1.0618-11.119 1.3741-17.443 2.0459-5.2669 9.7904-11.176 11.627-10.185 1.7909 0.95246 1.2249 11.393-0.90456 15.322-3.081 5.683-11.43 12.612-12.095 12.306m-0.59811-17.794c-2.9571 7.9374-1.8174 18.773-0.41665 19.425 1.915 0.88806 10.686-5.2936 14.872-12.722 2.08-3.6909 3.1016-16.434-0.01407-18.106-3.1501-1.6979-12.264 5.5558-14.442 11.403"/>
   <path d="m152.13 195.96c2.4631 3.4692 1.9295 11.653 1.6027 21.148-0.2996 8.4752-0.85863 19.001 0.4429 28.585 2.3587 17.303 13.176 36.91 35.307 34.371 0.41133-0.0485-2.5037-1.2732-3.4177-1.2579-18.388 0.30884-27.492-17.882-29.719-34.204-1.2851-9.4629-0.95598-18.993-0.66034-27.409 0.26534-7.5403 0.49367-13.905-0.53247-18.27-0.36194-1.5243-3.2551-3.2903-3.0231-2.9634"/>
   <path d="m167.75 204.8c6.4738 10.254 22.403 47.901 24.181 62.188 0.0796 0.65362 1.7857 1.6129 1.7774 1.3601-0.41299-16.329-20.064-60.189-26.779-66.759-0.3398-0.33314-0.20641 1.585 0.82132 3.2108"/>
   <path d="m185.17 277.39c-0.29736-0.2349-0.39285-0.82951-0.34443-1.6073 0.152-2.4414 2.6216-9.1115 4.7959-9.3006 2.4398-0.20863 14.697 12.869 13.868 14.415-0.82287 1.0661-14.133-0.1111-18.319-3.5072m19.785 4.0791c0.5095-0.84528-3.417-7.6373-10.917-14.147-3.2259-2.7959-5.8084-2.416-7.5784-0.2315-1.9516 2.4014-5.205 9.6955-2.8148 11.634 4.4594 3.6296 20.183 4.6326 21.31 2.7444"/>
   <path d="m160.75 261.98c-4.2574 3.1589-4.3138 5.414-3.941 6.5665 0.54557 1.6559 7.2904 3.121 10.273 3.0664 0.40878-8e-3 -0.65267-1.4823-1.0243-1.4934-2.8862-0.14673-7.8119-1.1111-8.1861-2.0474-0.31151-0.78824 0.14831-2.2374 3.7535-4.9082 0.328-0.24385-0.54824-1.4278-0.87531-1.1838"/>
   <path d="m77.872 117.86c-10.51 4.0191-30.022 13.304-35.013 18.592-0.2711 0.29508 1.515 1.5239 1.7057 1.3556 6.1282-5.8057 28.393-17.046 36.917-19.651 0.39186-0.11956-2.428-0.75208-3.6096-0.29887"/>
   <path d="m84.759 124.32c-7.8016 10.879-19.047 22.65-24.89 27.356-0.15171 0.12313 0.74616 1.9087 1.0004 1.6842 9.1254-8.0218 17.679-18.242 24.964-27.964 0.15615-0.1944-0.83731-1.4097-1.0743-1.076"/>
   <path d="m88.785 128.79c-4.6881 9.8839-20.103 29.768-24.777 34.223-0.3707 0.36135 1.3929 1.168 2.4877-0.013 5.9641-6.4526 19.139-24.134 23.619-33.574 0.17964-0.37325-1.1506-1.0088-1.33-0.63516"/>
   <path d="m93.255 131.98c-1.564 6.2099-13.419 26.04-16.246 28.038-0.33871 0.23091 2.4692 0.66988 2.9127 0.1072 3.6295-4.6517 13.332-22.129 14.765-27.782 0.09911-0.40214-1.3346-0.75564-1.4309-0.36561"/>
   <path d="m112.1 138.75c0.53565 0.84993 1.2608 2.1329 1.9814 3.4873 0.54821 1.0313 3.193 2.938 2.0556 0.75276-1.3088-2.5203-2.8248-5.1857-3.4256-5.9559-0.25682-0.31643-0.83002 1.3659-0.61143 1.716"/>
   <path d="m116.54 134.09c1.1334 1.284 8.649 11.207 11.582 15.234 0.60929 0.83066 2.042 7e-3 1.5557-0.67199-2.8418-3.9494-10.999-14.369-12.032-15.538-0.26922-0.30497-1.3753 0.67087-1.106 0.97632"/>
   <path d="m153.33 143.83c-8.8157-7.3728-22.674-15.756-26.917-18.243-0.35875-0.21418-1.0468 1.3765-0.69918 1.5783 4.0793 2.4045 18.104 10.822 26.646 18.154 6.2954 5.4017 5.9652 13.022-3.0646 24.137-0.45779 0.98063-0.54927 1.2993-0.61782 2.4004 13.274-12.137 11.138-22.602 4.6524-28.027"/>
   <path d="m123.21 130.63c-0.32047-0.26028-1.2444 0.88368-0.92428 1.1439 2.6072 2.1206 9.3352 8.8708 16.021 15.907l2.4653 0.15348c-6.648-7.0696-13.72-14.081-17.562-17.204"/>
   <path d="m154.32 163.21c-0.56684-0.73254-1.2136-1.5413-1.9408-2.4035-0.0492 0.64559-0.18927 1.3097-0.36307 1.9717 0.60444 0.71015 1.1171 1.355 1.5629 1.9114 0.28842 0.37849 1.1973-0.89862 0.74078-1.4796"/>
   <path d="m19.903 161.32c-4.5234 7.2391-9.0107 9.2664-10.624 8.3491-2.6107-1.4841-0.71114-8.8385 2.257-14.06 3.1835-5.5925 8.4473-9.6739 11.104-8.1629 1.5432 0.87727 1.8258 6.5652-2.7379 13.874m3.4661-15.15c-3.7477-2.1315-9.7355 2.7698-13.11 8.7229-5.6926 10.002-4.0728 15.052-1.9049 16.316 2.4582 1.4265 7.9049-0.96157 12.749-8.7213 4.5369-7.2623 5.2247-14.644 2.2654-16.318"/>
   <path d="m14.131 157.52c1.5902-2.7724 3.64-4.2426 4.0926-3.9862 0.49514 0.53541 0.12823 2.9514-1.5199 5.8883-1.5671 2.7858-3.429 4.52-4.1106 4.0811-0.75061-0.49125 0.05507-3.3965 1.5379-5.9833m-1.2763-0.72811c-1.4549 2.5285-2.9423 6.7369-1.0595 7.9473 1.5126 0.9832 4.0643-0.44418 6.3356-4.5072 2.0283-3.6341 2.335-7.015 0.9022-7.9331-1.5821-1.0236-3.9408 0.58358-6.1786 4.4929"/>
   <path d="m188.82 73.545c-3.74-6.8885-4.2811-14.791-0.64573-16.451 3.5861-1.6389 9.38 2.362 13.166 9.0972 3.1915 5.665 5.3214 14.099 1.25 16.393-3.7101 2.0877-10.331-2.7096-13.77-9.0388m-1.2594-17.787c-4.6495 2.1253-4.0669 11.484-0.14356 18.709 3.7721 6.9506 11.275 12.44 15.87 9.8543 4.3203-2.4342 4.0626-10.451-0.66424-18.855-4.2292-7.5197-10.709-11.695-15.062-9.7079"/>
   <path d="m198.72 75.884c-1.2258 0.5847-3.6198-1.4869-5.6767-4.9187-1.7203-2.8583-2.4361-6.2187-1.3091-6.7612 1.1263-0.53079 3.2525 1.4038 5.299 4.8111 1.2743 2.1097 2.665 6.4011 1.6868 6.8689m-0.42591-7.6313c-1.5347-2.5585-4.4999-6.6475-7.1862-5.3732-2.3274 1.1046-1.2701 6.1202 0.50477 9.0659 1.0019 1.6602 4.651 6.7291 7.7329 5.275 2.5749-1.2213 0.31984-6.6838-1.0515-8.9677"/>
   <path d="m118.67 69.408c1.9436 1.9711 6.4369 6.4078 13.265 18.498 1.5144 2.6893 1.959 0.75909 0.44378-1.9186-5.8208-10.322-8.5868-13.365-13.109-17.72-2.0857-2.0041-2.3584-0.71155-0.59944 1.14"/>
   <path d="m118.78 68.741c-2.4696 3.967-3.7219 9.031-2.7165 13.142 0.71802 2.94 2.4644 5.3795 4.8507 6.8015 2.7221 1.6232 8.3693 1.9988 11.497-1.5428 0.27202-0.30739-0.83279-1.2892-1.1042-0.98181-2.5723 2.9155-7.2029 2.6152-9.4269 1.2873-2.0505-1.2209-3.4646-3.2072-4.0748-5.7561-0.92016-3.7455-0.045-8.5326 2.2238-12.176 0.21346-0.34725-1.0354-1.1217-1.2492-0.775"/>
   <path d="m121.42 71.575c-1.6518 2.2158-2.244 5.9393-1.7586 8.9489 0.32993 2.039 1.2051 3.6072 2.5411 4.5313 2.245 1.5695 6.0087 1.5154 8.2064-0.97877 0.0798-0.09136-0.68803-1.4965-0.93594-1.1756-1.6443 2.0962-4.6533 2.1852-6.4262 0.94545-1.2553-0.87085-1.7478-2.4155-1.9291-3.5561-0.42609-2.6096 0.29198-5.8807 1.6967-7.7635 0.23644-0.32196-1.1581-1.2735-1.3944-0.95182"/>
   <path d="m125.66 76.857c-1.2392 0.79994-1.2404 2.1694-0.89492 2.7916 0.46505 0.83401 1.7669 0.95095 2.766 0.14883-0.81782-1.3364-1.8586-2.951-1.8713-2.9398"/>
   <path d="m134.79 158.75c0.37965 2.3903-1.2183 23.231-3.7397 28.613-9.0738-4.5776-23.191-9.9737-29.855-11.962-0.33078-0.0947 1.8383 2.313 2.2975 2.4618 6.5152 2.0635 17.799 6.2621 26.074 10.357 2.2605 1.1259 2.3997 0.82195 3.1239-1.1631 2.4801-6.8377 3.643-22.816 3.4004-27.6-0.0268-0.36225-1.3106-0.75416-1.3016-0.70584"/>
   <path d="m128.53 100.62c2.4521 1.5222 3.6539 3.8316 3.9029 6.3941 0.20722 2.0793-0.45098 4.7294-1.9815 5.7755-0.27591 0.18694-0.27308 1.3045 0.0358 1.1556 2.6393-1.2894 3.3512-5.0054 3.1532-7.0361-0.28477-2.9491-1.8817-5.4754-4.9764-7.2899-0.2896-0.17455-0.42353 0.8266-0.13645 1.0006"/>
  </g>
 </g>
</svg>
