<?xml version="1.0" encoding="UTF-8"?>
<!-- Created with Inkscape (http://www.inkscape.org/) -->
<svg version="1.1" viewBox="0 0 288.47 416.59" xmlns="http://www.w3.org/2000/svg">
 <g transform="translate(13.655 52.389)">
  <path d="m145.79 181.62s3.0355-21.214-1.8664-26.355c-4.9019-5.122-20.992-6.7504-20.992-6.7504s-0.47184-8.1565-0.68679-10.487c-0.26213-2.333-23.562-0.94367-23.562 1.1639 0 2.0918 0.47184 4.9019 0.47184 4.9019 0 1.3893-2.1075 6.991-2.1075 6.991s-12.354 28.908-14.463 33.328c0 0-15.148 37.785-15.148 52.71 0 26.077 18.384 31.922 44.073 31.922 37.489 0 47.55-10.431 47.55-31.7 0-10.024-4.1784-32.403-13.279-55.725" fill="#1e657e"/>
  <path d="m111.52 269.05c34.049 0 45.479-8.6184 47.291-26.133-0.26213 0.53475-0.41941 1.2215-0.41941 2.1285 0 9.6732-22.379 18.643-47.088 18.643-19.16 0-35.806-7.8603-42.316-15.073 4.8809 16.368 21.195 20.437 42.557 20.437" fill="#124f64"/>
  <path d="m122.71 144.59c-0.15728-2.4431-0.36699-5.3265-0.47184-6.5659-0.26213-2.3277-23.544-0.9227-23.544 1.1639 0 2.1075 0.47184 4.9019 0.47184 4.9019 0 0.60815-0.41941 2.0341-0.84931 3.4601 1.7773 2.6108 13.668 4.2728 24.395-2.9568" fill="#124f64"/>
  <path d="m159.31 230.47s11.892-7.3423 27.983-10.838c16.091-3.4968 37.064-5.2526 37.064-5.2526s44.295 1.274 45.701 7.1205c1.405 5.8261-51.527 21.436-72.5 23.082-20.992 1.6252-38.006-6.3069-38.006-6.3069z" fill="#ea535e"/>
  <path d="m197.55 244.58c20.992-1.6462 73.905-17.256 72.5-23.082-0.36699-0.0524-0.72349-0.10485-1.0905-0.15728-0.26213 0.10486-0.52426 0.20971-0.79688 0.36699-42.279 18.957-79.158 19.901-107.81 13.668l-0.886 0.36698 0.0524 2.5322s17.034 7.9342 38.007 6.3069" fill="#ca4751"/>
  <path d="m268.97 221.34c0.31456-0.10485 0.57144-0.26213 0.8493-0.36698-3.8271-5.3816-45.46-6.5837-45.46-6.5837s-20.973 1.7563-37.064 5.2321c-16.09 3.5126-27.983 10.856-27.983 10.856l0.0524 2.3487 0.26213 0.10485c28.131-9.377 58.777-18.846 109.3-11.578" fill="#f5b2aa"/>
  <path d="m157.91 249.47s20.048 1.405 37.545 9.562c17.477 8.156 39.634 24.949 38.469 28.667-1.1639 3.738-42.668-5.1221-54.098-11.411-11.43-6.3069-23.544-21.695-23.544-21.695z" fill="#ea535e"/>
  <path d="m232.85 286.95c0.36698 0.0524 0.72348 0.15728 1.0905 0.2097-0.68678-4.5663-21.713-20.307-38.488-28.13-17.477-8.1748-37.545-9.562-37.545-9.562l-0.52426 1.6252 0.0524 0.0367c30.054 9.0257 50.657 18.088 75.367 35.806" fill="#f5b2aa"/>
  <path d="m179.83 276.28c11.43 6.288 52.932 15.147 54.097 11.43v-0.0189c-0.26213-0.20971-0.53474-0.36698-0.83357-0.57145-0.0524-0.0524-0.15728-0.10485-0.26214-0.2097-0.15728-0.0183-0.31455-0.0524-0.47183-0.10486-44.739-9.3586-62.513-22.065-75.44-34.289l-0.64484 2.0551s12.114 15.369 23.544 21.676" fill="#ca4751"/>
  <path d="m154.42 205.87 2.81 12.132s19.346-8.1748 33.087-18.883c13.76-10.727 40.337-40.116 38.95-42.446-1.405-2.333-31.238 6.7693-45.701 17.959-14.463 11.189-29.148 31.238-29.148 31.238" fill="#ea535e"/>
  <path d="m190.32 199.11c13.464-10.505 39.209-38.858 38.968-42.242-0.62912 0.26213-1.2582 0.52426-1.9398 0.77591-8.0453 12.688-49.769 44.517-71.057 56.372l0.9227 3.9792s19.364-8.1565 33.106-18.883" fill="#ca4751"/>
  <path d="m228.28 156.33c-5.4188-0.41941-31.515 8.0637-44.721 18.292-14.463 11.208-29.147 31.238-29.147 31.238 24.949-24.247 43.98-37.23 72.925-48.216 0.31455-0.47183 0.62911-0.9227 0.94367-1.3106" fill="#f5b2aa"/>
  <path d="m72.815 256.23c-0.41941 9.3214-2.333 27.502-4.4195 30.775-6.8988 10.727-10.894 13.39-28.223 24.95l2.3277 10.024s6.5286-1.8664 7.6936-1.405c1.1848 0.47183 2.5689 5.3637 2.5689 6.5286 0 1.1639-0.94368 7.0099-0.94368 7.0099s10.265-5.6039 17.256-7.7124c7.0094-2.0918 32.643-12.114 32.643-15.388 0-8.3782-14.907-19.105-14.907-23.082 0-3.9582 10.949-23.304 7.6941-19.586-0.41941 0.47183-21.436-17.995-21.695-12.114" fill="#1e657e"/>
  <path d="m90.422 271.74c1.1114 0 2.1809-0.10485 3.2347-0.2097 1.3526-2.8468 2.0132-4.4929 0.84931-3.1613-0.41941 0.47184-21.436-18.014-21.694-12.114-0.10485 2.2176-0.26213 4.9543-0.53474 7.8603 4.236 4.6397 10.782 7.6385 18.143 7.6385" fill="#124f64"/>
  <path d="m40.403 313.18c-0.84931 0.15728-9.95 7.3423-11.707 9.7838-1.7563 2.4588-8.9329 16.091-7.8786 16.793 1.0538 0.70251 5.7889-2.4431 5.7889-2.4431s-2.9778 11.541-2.4588 12.225c0.53475 0.70251 13.982-6.991 16.775-8.9146 2.81-1.924 11.374-6.1218 11.374-6.1218s0.886-13.982-2.1075-14.333c-2.9568-0.36699-8.3783 2.4431-8.3783 2.4431s-0.53474-9.6176-1.405-9.4326" fill="#eeefef"/>
  <path d="m32.715 327.69c-1.405 1.0538-10.524 10.079-10.524 10.079l6.3252-2.0341s5.6038-9.0813 4.1994-8.0454" fill="#c9c9ca"/>
  <path d="m75.379 317.55c-6.3992 2.5165-15.462 6.5103-22.638 10.061-0.0524 0.62912-0.15728 1.5885-0.31456 2.6056 0 1.5361-0.0372 2.8677-0.0524 3.6069 2.1285-1.1272 10.671-5.585 16.757-7.4162 6.991-2.0918 32.625-12.114 32.625-15.388 0-2.2019-1.0171-4.5506-2.5322-6.9171l-0.72349 0.15728c-4.5506 4.1994-13.298 9.432-23.082 13.279" fill="#124f64"/>
  <path d="m24.144 349.55c0.53475 0.70252 13.982-6.991 16.775-8.9146 2.81-1.924 11.374-6.1218 11.374-6.1218s0.0183-0.26213 0.0367-0.68678c-0.31456 0.2097-0.52426 0.26213-0.52426 0.26213s0.31455-1.9974 0.59241-3.9005c0-0.76018-0.0189-1.5728-0.0372-2.4064-3.6803 1.814-6.8432 3.4968-8.8406 4.7918-5.9368 3.8481-13.279 10.136-19.216 15.388l-0.10485 0.10485c-0.10486 0.77591-0.15728 1.3107-0.0524 1.4417" fill="#c9c9ca"/>
  <g fill="#0f141b">
   <path d="m34.252 328.21c3.2557-3.0512 12.817-6.2141 15.184-6.288 0.98037 1.2373 1.5361 3.6803 1.5361 6.288 0 1.6829-0.26213 3.3658-0.72348 4.8442-6.6948 3.586-13.427 7.6569-18.661 10.838-2.2019 1.3526-4.3671 2.6423-5.974 3.5702 1.5151-5.2164 5.9184-16.682 8.6372-19.253m58.277-60.497c-4.6607 5.715-7.1206 15.443-7.1206 20.566 0 5.2526 14.389 15.277 14.389 22.231 0 1.6829-4.3828 5.9368-33.753 15.425-3.6594 1.1639-7.8414 3.0355-12.132 5.2164 0.10485-0.9594 0.26213-1.9608 0.26213-2.9568 0-3.5126-0.8493-6.991-2.6842-8.8223-2.4221-2.4221-16.183 3.5335-19.383 6.5286-4.0159 3.7747-8.8779 21.473-9.2847 23.933-0.36698 2.1809-0.2097 2.7576 2.4221 1.4784 1.3683-0.66582 3.6803-2.0708 8.0086-4.6974 9.4692-5.7517 23.766-14.445 33.771-17.662 25.893-8.3594 36.583-13.52 36.583-18.439 0-9.2842-15.018-19.309-15.018-22.231 0-4.8075 3.738-14.481 8.0265-19.216 0.59242-0.64484-3.8638-1.5885-4.0683-1.3526"/>
   <path d="m71.299 255.54c-0.64485 16.275-2.6633 28.242-5.6411 33.79-2.9202 5.4193-19.364 16.627-26.892 21.473-9.5615 6.1402-17.533 22.194-19.771 28.26-0.81261 2.1442-0.10485 3.4601 3.1456 1.7406 1.4784-0.77591 4.1994-2.0551 5.3449-2.6842 0.47183-0.26214 1.1481-3.9215 0.31455-3.6227-1.8873 0.68154-3.8638 2.0708-5.6038 3.2924-0.10485 0.0524-0.26213 0.15728-0.41941 0.26213 2.5532-5.6961 10.136-18.569 18.68-24.062 0.26213-0.15728 23.84-15.462 27.983-23.137 3.8271-7.1206 5.3082-21.565 5.8628-32.051 0.10485-1.8297-2.9935-3.9005-3.0145-3.2557"/>
   <path d="m38.439 313.3c0.26213 0.41941 0.70251 0.79688 1.1639 0.9227l-0.41941-0.10485c0.66581 0.57144 1.8297 4.7551 1.5151 7.8236-0.10486 0.886 3.219-0.60815 3.219-1.1272 0-3.1456-0.886-7.1761-2.3487-8.8034-0.36698-0.36698-0.72348-0.62911-1.0747-0.76018-0.31455-0.15728-2.1809 1.793-2.0551 2.0551"/>
  </g>
  <path d="m128.77 267.66c3.198 4.8075 13.52 17.718 13.52 28.205 0 10.505-5.8256 16.793-6.0479 20.529-0.26213 3.717 36.139 26.577 36.139 26.577s6.9911-14.223 10.949-14.223c3.9582 0 4.4195 2.3277 4.4195 2.3277s1.1639-5.3632 3.2714-6.991c2.0918-1.6252 10.024-0.94367 10.024-0.94367s-31.941-25.874-35.437-28.204c-6.547-4.3671-14-18.31-14-24.247 0-4.6607 2.81-15.628 1.6462-10.968-0.15728 0.68154-28.667 1.6672-24.487 7.9342" fill="#1e657e"/>
  <path d="m152.47 263.79c0.72349-3.8638 1.4994-6.9355 0.77591-4.0683-0.15728 0.68155-28.667 1.6619-24.469 7.9342 0.60815 0.94367 1.5151 2.1809 2.5532 3.6646 0.57144 0.0372 1.1639 0.0524 1.7563 0.0524 7.7864 0 14.759-2.9568 19.383-7.6013" fill="#124f64"/>
  <path d="m184.5 329.09c-2.4064 0-11.726 6.547-11.726 13.279 0 1.5885 18.902 12.429 22.046 14.352 3.1456 1.924 12.059 5.9368 12.577 5.7706 0.53475-0.20971-2.0918-9.9689-9.9505-20.123-7.8786-10.135-12.946-13.279-12.946-13.279" fill="#eeefef"/>
  <path d="m172.38 342.96s0.15727-0.31456 0.41941-0.84931c0.0524-1.3474 0.47183-2.7 1.1272-3.9949-6.6765-4.5296-18.827-11.134-24.062-14.962-4.991-3.6803-9.6543-9.2291-11.3-12.78-1.2006 2.5165-2.2386 4.4772-2.333 6.0107-0.26214 3.738 36.139 26.577 36.139 26.577" fill="#124f64"/>
  <path d="m206.18 360.61c-2.3854-3.1246-24.08-16.96-31.497-21.972-0.81261 1.4417-1.4784 2.7-1.8874 3.4759 0 0.10485-0.0189 0.15728-0.0189 0.26213 0 1.5728 18.883 12.429 22.027 14.333 2.6056 1.5885 9.118 4.6083 11.615 5.5116 0.20971-0.53474 0.15728-1.0747-0.26213-1.6095" fill="#c9c9ca"/>
  <path d="m192.02 323.85c-1.426 1.405-3.4968 7.1761-3.4968 7.1761l10.301 12.41s21.343 11.707 22.046 11.004c0.70251-0.68154-5.6039-14.5-11.023-21.158-5.4193-6.6398-9.2658-9.4326-9.2658-9.4326s-7.1761-1.405-8.5633 0" fill="#eeefef"/>
  <path d="m220.86 354.45s-22.009-16.053-31.349-22.231l9.3214 11.208s21.324 11.726 22.027 11.023" fill="#c9c9ca"/>
  <g fill="#0f141b">
   <path d="m184.26 330.28c0.0524 0 1.2949 0.0524 4.8809 3.9372 7.0838 7.7308 15.536 21.75 17.034 26.392-3.717-1.4784-14.315-7.3795-31.682-18.347 0 0-0.0524-0.0372-0.2097-0.10485 1.924-6.6582 7.9709-11.855 9.95-11.855m-57.112-61.218c4.2151 4.4562 14.334 17.182 14.334 28.556 0 3.4392-7.1206 12.429-7.1206 18.698 0 8.9329 38.451 28.63 38.451 28.63 32.976 20.825 34.752 19.642 35.824 18.939 1.5151-1.0171 0.87027-3.1613 0.62911-3.9582-2.2386-7.3795-19.309-33.457-25.819-33.457-3.8638 0-9.5065 6.991-11.911 13.945-4.0316-2.5165-10.801-6.7321-10.801-6.7321-14.592-9.0252-22.638-14-22.638-17.367 0-2.1075 1.1848-4.6607 2.4431-7.3423 1.5728-3.3867 3.3658-7.2128 3.3658-11.356 0-11.208-7.5457-23.747-12.891-29.869-0.31456-0.36698-4.4772 0.66582-3.8638 1.3107"/>
   <path d="m151.82 257.89c-0.9594 3.0879-1.4417 6.3252-1.4417 9.5987 0 7.8047 2.7 15.906 7.9531 23.341 1.426 1.9974 6.1957 5.6038 13.446 11.042 5.271 3.9582 11.836 8.8774 18.494 14.278 17.404 14.13 27.41 31.145 29.167 36.62-3.7904-1.6095-13.113-6.3252-20.141-10.597-0.73921-0.41941-1.7196-0.20971-2.1809 0.55572-0.41941 0.73921-0.20971 1.7196 0.53474 2.1652 0.20971 0.10485 21.25 12.577 23.969 11.485 0.66581-0.26214 1.1272-0.88601 1.2582-1.6829 0.64485-4.2518-10.45-25.357-30.498-41.651-6.7137-5.456-13.316-10.394-18.606-14.371-6.233-4.6817-11.726-8.082-12.854-9.6727-7.1578-10.135-9.2291-21.565-5.6783-31.33 0.31456-0.81261-3.2924-0.20971-3.4234 0.2097"/>
   <path d="m200.27 322c-3.8848-1.3893-7.2867-1.7039-9.6543-0.26213-2.2386 1.3683-3.35 4.1994-3.8271 7.7308-0.0524 0.41941 2.9568 2.3854 3.0355 1.5151 0.26213-3.0512 1.2006-5.0854 2.7734-6.0296 1.7406-1.0747 4.4929-0.886 7.9158 0.53475 0.81261 0.31456 0.26214-3.3291-0.26213-3.4968"/>
  </g>
  <path d="m97.053 151.08s-8.1932 4.7551-19.937 15.739c-16.424 15.388-53.487 60.515-69.578 86.038l0.68154 20.862s20.529-23.784 21.454-23.784c0.94368 0 4.1994 14.463 4.1994 14.463s1.6305-10.727 21.454-39.413c19.808-28.667 24.58-35.362 27.964-39.394 23.045-27.354 15.776-35.436 13.76-34.511" fill="#1e657e"/>
  <path d="m28.984 249.93c0.70252 0 4.6764 14.223 4.6764 17.016 0 2.81-3.7537 16.793-3.7537 29.147 0 12.355 2.5689 19.364 4.9019 23.785 2.3277 4.4405 4.6817 8.6184 3.9582 9.3214-0.70251 0.70251-15.832 2.81-17.94 2.5689-2.1075-0.26213-21.214-4.9019-22.398-7.2312-1.1639-2.333-10.949-27.04-10.949-29.61 0-2.5689 12.835-34.049 20.511-41.022l0.26213 19.808z" fill="#eeefef"/>
  <path d="m20.826 331.77c2.1075 0.26213 17.256-1.8664 17.94-2.5532 0.57145-0.57144-0.8493-3.4392-2.6266-6.8432l-1.3159-0.84931s-3.0302 2.333-8.8774 2.7943c-5.8261 0.47184-20.27-4.9019-20.27-4.9019-4.4405-1.405-11.892-8.3966-13.76-12.576l-0.31455 0.55572c2.831 7.5274 6.1957 15.85 6.8432 17.163 1.1639 2.333 20.27 6.991 22.379 7.2128" fill="#c9c9ca"/>
  <path d="m30.656 251.96c1.3159 3.9739 3.219 12.429 3.219 12.429s1.6305-10.727 21.454-39.394c19.808-28.686 24.58-35.38 27.964-39.413 0.68155-0.79688 0-4.9019 0-4.9019-8.3599 8.3782-43.722 54.893-52.637 71.279" fill="#124f64"/>
  <path d="m33.656 266.96c0-1.9974-2.0342-9.8205-3.4392-14.13-8.3038 16.571-3.7537 48.327-1.0014 57.963 0.55572 1.924 1.5885 2.5899 2.9044 2.4431-1.2582-4.1626-2.2019-9.6543-2.2019-17.126 0-12.355 3.738-26.355 3.738-29.148" fill="#c9c9ca"/>
  <path d="m81.425 184.73c-19.29 25.726-42.538 62.494-44.85 66.637-4.2151 7.6385-8.341 28.815-8.341 46.366 0 6.0663 0.47184 11.689 1.6305 16.183 0.60814 2.3697 8.0081 12.983 7.3979 14.482-0.70251 1.1272-7.8603 1.1848-11.319 0.98037-3.6227-0.20971-16.904-8.5811-19.383-12.779-0.77591-2.6475-0.47184-25.967-0.20971-30.535 0.20971-3.4759-1.924-4.5506-2.2176-0.2097-0.47184 7.638-1.7039 29.962-0.36699 32.273 2.7734 4.8285 16.96 14.13 22.009 14.445 0.10485 0 14.186 0.36698 15.018-2.9778 0.26214-0.9961-0.26213-1.9607-3.0722-6.9544-1.9031-3.3658-4.2728-7.5457-4.7551-9.4876-4.236-16.553 1.0747-50.602 6.3992-60.238 2.1809-3.9215 23.377-37.433 42.002-62.753 0.88601-1.1848 0.59242-6.103 0.0524-5.4188" fill="#0f141b"/>
  <path d="m9.4797 270.11c0.31456-6.0846 0.886-18.254 0.886-18.292 0-0.83358-3.7747 2.4431-3.7747 2.4431l0.10485 19.808c-0.0524 1.6672 0.94367 2.3854 2.1075 0.92271 6.5286-8.1376 16.849-20.529 20.418-24.357 0.90697 2.6266 2.1652 9.5059 2.6266 15.147 0.0524 0.76018 3.4234-2.3277 3.3133-3.3658-0.52426-4.5506-2.4798-15.018-5.715-15.018-0.886 0-1.8506 0.0367-19.974 22.712" fill="#0f141b"/>
  <path d="m116.9 26.27c-34.493 0-89.922 23.655-89.922 65.675 0 29.758 30.813 52.23 82.432 52.23 26.448 0 71.852-21.861 71.852-59.942 0-30.924-28.501-57.963-64.362-57.963" fill="#1e657e"/>
  <path d="m181.22 82.792c-1.1639 35.436-68.727 72.629-132.85 44.869l-0.62912 0.79688c14.186 9.7838 35.178 16.88 61.681 16.88 26.448 0 71.852-23.02 71.852-61.101 0-0.47183-0.0372-0.9594-0.0524-1.4417" fill="#124f64"/>
  <path d="m47.041 53.262c0-11.892 11.245-50.898 17.515-50.898 6.288 0 18.532 20.825 22.472 27.761 3.9949 6.9538-19.161 16.867-19.161 16.867z" fill="#1e657e"/>
  <path d="m63.97 0.71995c-4.3461 1.2373-19.142 30.054-20.067 53.709-0.0372 0.83358 4.3461-1.6462 4.3828-2.1442 1.4627-24.561 12.503-45.793 16.498-48.623 2.9778 0.55572 15.462 15.425 21.657 27.816 0.36699 0.76018 3.7904-1.274 3.4025-2.0132-4.6083-9.2291-20.382-30.313-25.874-28.741" fill="#0f141b"/>
  <path d="m121.93 144.46c0.0524 2.4588 0.10485 5.1954 1.1639 5.2893 16.812 1.5361 21.676 4.8285 21.676 14.722 0 24.912-7.4902 57.63-12.558 61.014-5.122 3.4234-49.917 0.52426-80.878-15.443-2.4955-1.274-4.8809-2.5532-7.1761-3.8271 0.36698-0.47184 0.73921-0.90698 1.0905-1.3107 31.367-37.397 43.371-49.011 52.378-52.193 0.52427-0.10486 0.84931-0.57145 1.0014-1.0905 0.0372-0.15728 0.41941-2.1442 0.9227-4.5139 0.73921-3.4759 0.31456-4.0526-2.6423-4.2518-40.097-2.8468-67.321-23.341-67.321-52.322 0-31.792 43.26-62.993 87.333-62.993 34.216 0 62.031 24.598 62.031 54.856 0 26.429-22.971 49.881-52.525 57.944-3.2924 0.9227-4.5506 1.7563-4.4929 4.126m3.0722-1.0013c31.7-7.7864 57.981-33.032 57.981-61.07 0-31.904-30.221-57.852-66.063-57.852-45.59 0-91.42 32.68-91.42 65.99 0 38.617 40.633 53.006 70.743 55.078 0.41942 0.0372 0.53475 0.10486 0.41942 0.47184-0.41942 1.5518-0.79688 3.4234-0.94368 4.0159-9.562 4.1626-25.171 18.587-54.393 54.541-25.653-14.63-38.174-28.408-38.174-41.946 0-14.167 3.4234-27.761 4.4038-29.499 0.84931-0.60815 5.6039-2.831 9.432-4.4195 1.4994-0.62912 3.6069-4.7551 2.7734-4.4772-2.5532 0.8493-13.113 5.2898-14.518 6.6954-1.7406 1.7406-5.2709 17.515-5.2709 31.7 0 14.888 12.577 29.166 39.338 44.462-11.374 14.37-32.255 43.37-39.116 55.04-7.1389 12.133-13.853 28.889-13.853 33.013 0 3.7747 8.7112 27.151 10.486 29.204 3.9372 4.5873 19.845 9.8577 27.336 8.082 0.8493-0.20971 1.3893-1.038 1.1848-1.9031-0.2097-0.84931-1.0538-1.3683-1.9031-1.1639-6.2324 1.4627-20.992-3.3291-24.191-7.0833-1.426-1.8506-10.394-24.192-10.394-27.132 0-2.8677 6.4547-18.458 14.093-31.404 6.8616-11.688 27.928-40.948 39.154-55.078 2.4798 1.3683 5.0487 2.7576 7.7497 4.1417 29.444 15.148 76.846 20.104 84.096 15.259 7.5829-5.0487 14.851-42.705 14.851-63.659 0-12.854-8.7484-16.183-24.136-17.737-0.31456-1.2215-0.10485-3.1823 0.31456-3.2714" fill="#0f141b"/>
  <path d="m22.928 195.15s-21.695-17.718-21.695-29.851c0-12.114 3.9792-32.403 5.1221-33.568 1.1848-1.1639 10.727-4.1994 10.727-4.1994s20.289-16.553 21.676-15.628c1.405 0.94367-1.1481 11.429-0.41941 17.958 0.68678 6.5292 3.0145 16.794 4.8809 21.454s6.5475 14.925 6.5475 14.925-1.6462 6.0479-1.8874 9.7838c-0.20971 3.738-0.47184 11.429-0.92271 11.892-0.47183 0.47183-18.643-6.3064-19.124-5.3632-0.47184 0.92271 5.8445 10.949 5.143 11.892-0.70252 0.94367-10.024 0.70251-10.024 0.70251" fill="#eeefef"/>
  <path d="m94.181 178.13c0 7.8419 2.831 13.52 7.2684 13.52 5.4932 0 10.302-6.991 10.302-15.813 0-6.7137-2.4955-12.854-7.2684-12.854-5.5116 0-10.302 7.3607-10.302 15.147" fill="#0f141b"/>
  <path d="m97.345 178.13c0-6.4731 3.6646-12.632 7.1389-12.632 2.1809 0 4.105 4.8285 4.105 10.339 0 7.2128-3.9372 13.39-7.1389 13.39-2.4064 0-4.105-4.7918-4.105-11.097" fill="#fabe00"/>
  <path d="m101.45 189.22c2.2019 0 4.7551-2.9202 6.1218-7.1022-2.5532 3.2347-7.9898 2.8834-9.9872-0.10485 0.53475 4.2728 1.9765 7.1945 3.8638 7.1945" fill="#d8a500"/>
  <path d="m73.106 259.2c-4.8809-4.1626-9.0441-9.6727-7.6941-24.007 1.0538-11.189 13.465-46.921 21.048-62.771 1.5518-3.2557 3.2557-2.5165 1.8664 0.81261-8.2676 19.697-18.865 53.043-19.753 61.791-0.9227 8.8034 0.87028 16.091 5.6411 22.49 1.4994 2.0132 1.5151 3.9372-1.1114 1.6829" fill="#0f141b"/>
  <path d="m26.909 195.5c4.2518 3.0145 9.0257 6.0662 14.426 9.1547 0.9227 0.52426 2.3697 1.3316 2.831 1.5728 2.2963 1.2582 4.6607 2.5322 7.1578 3.8114 30.96 15.943 75.773 18.865 80.896 15.443 4.7918-3.1823 11.726-32.551 12.484-56.798-3.1613-3.9215-9.6543-5.7334-11.744 0.36698-2.7943 8.156-13.742 36.601-14.925 36.842-1.1481 0.2097-22.139-5.8445-38.469-16.553-16.312-10.727-29.832-23.081-29.832-23.081l-2.7943 21.676-19.124-5.3632s4.9543 9.9128 4.4405 10.949c-0.31456 0.59242-3.198 1.4417-5.3449 1.9974" fill="#1e657e"/>
  <g fill="#0f141b">
   <path d="m150.18 259.33c11.356-10.228 9.1736-38.95-5.6778-76.846-0.31456-0.8126 0.0524-1.7406 0.90698-2.0551 0.8126-0.31456 1.7196 0.0524 2.0551 0.88601 18.513 47.292 16.904 68.653 4.3828 80.397-2.8468 2.679-5.4188 0.9961-1.6672-2.3854"/>
   <path d="m130.87 269.11c-6.4731 0.90698-14.259 1.1639-23.544 1.1639-4.8285 0-9.0991-0.52427-12.946-1.4417-6.5842-1.6672-6.6954-2.9778 0.79688-1.8874 3.5493 0.52427 7.583 0.83358 12.151 0.83358 9.0813 0 16.59-0.36698 22.749-1.1639 7.3612-0.94368 8.1932 1.4417 0.79688 2.4955"/>
   <path d="m35.199 111.56c-7.1389 3.4392-25.098 16.775-25.098 27.909 0 11.134 3.4601 22.545 8.3599 31.016 1.9974 3.4392 3.1089 2.2753 1.8297-0.77591-3.4759-8.3966-7.0094-19.66-7.0094-30.239 0-10.117 19.197-23.562 24.468-25.56-0.0524 0.47184-0.15728 0.9961-0.26213 1.4994-0.36699 2.4588-0.98037 6.2141-0.98037 10.986 0 5.0487 0.66581 11.282 2.9568 18.347 6.2513 19.272 9.895 24.062 12.096 25.967 16.165 14.149 58.98 39.45 67.229 36.694 3.0512-1.0171 12.17-29.037 13.797-36.62 0.88601-4.126-0.886-4.2885-1.9817-0.55572-2.0708 7.0833-11.134 31.127-13.168 34.216-6.5659 1.0747-45.442-20.067-63.789-36.121-2.9568-2.5899-6.7132-10.856-11.17-24.561-4.2151-13.021-2.6266-23.026-1.8506-27.854 0.41941-2.831 0.65009-4.105-0.41941-4.9753-0.9594-0.79688-2.4221-0.61339-5.012 0.62911"/>
   <path d="m229.9 153.99c-30.128 3.9582-63.326 26.022-76.439 50.584-0.26213 0.47184 1.6829 3.6436 2.0708 2.8677 11.559-23.082 43.26-44.887 71.816-49.807-10.265 19.956-49.344 52.729-70.799 58.74-0.70251 0.20971 0 3.2924 0.84931 3.0512 23.562-6.6026 65.86-42.668 74.183-63.271 0.64485-1.6252-0.26213-2.3487-1.6829-2.1652"/>
   <path d="m158.79 229.6c-0.26213 0.15728 0.10485 3.0145 0.87028 2.5689 29.869-16.942 79.435-21.547 108.51-10.487-45.923 24.284-88.202 24.82-108.4 14.703-0.79688-0.36698-0.8493 2.3697-0.62911 2.4798 23.6 11.319 65.62 10.431 113.61-15.961 1.8506-1.0171 1.5728-2.0918-0.10486-2.8468-29.592-13.132-81.673-9.5065-113.85 9.5432"/>
   <path d="m157.48 251.13c38.691 1.4994 71.408 29.629 74.904 35.713-3.8114 0.41941-17.348-0.57145-33.217-5.3265-14.759-4.4405-34.03-12.928-41.928-28.149-0.36698-0.77591-2.1285 1.426-1.9398 1.7563 13.686 24.432 53.284 36.342 76.606 34.937 4.3461-0.26214 5.3632-1.6095 2.9044-5.2898-10.153-15.295-44.461-34.844-77.401-36.12-0.886-0.0372-0.77591 2.4588 0.0524 2.4798"/>
   <path d="m47.943 165.73c-1.426 3.7747-1.5885 10.394-1.7406 15.684-0.0372 1.8506-0.10485 4.0106-0.26213 5.1954-2.8834-0.73921-11.263-3.1823-19.475-5.8078-1.4627-0.47184-1.793 0.20971-1.0538 1.405 2.7943 4.5873 5.0487 9.2291 5.7334 11.097-0.9594 0.20971-3.4234 0.26213-7.8786-0.36698-0.76018-0.10486-1.1639 2.6475-0.41941 2.7576 9.173 1.3107 10.801 0.10486 11.17-1.426 0.2097-0.94368-0.36699-3.1456-4.9019-10.32 16.627 5.974 17.736 5.6966 18.217 5.5299 1.426-0.47184 1.4627-2.0551 1.6095-7.9526 0.10485-4.8442 0.31456-11.467 1.5518-14.796 0.26213-0.72349-0.0524-1.5151-0.79688-1.793-0.72348-0.26214-1.5151 0.10485-1.793 0.8126"/>
  </g>
  <path d="m141.74 34.429s10.246-34.53 37.36-57.667c27.095-23.137 89.441-29.351 93.547-27.298 1.3316 0.66582-10.912 39.339-35.048 66.452-14.408 16.201-33.587 23.415-73.795 35.492l-13.464 0.20971z" fill="#ea535e"/>
  <path d="m141.74 34.429s10.246-34.53 37.36-57.667c27.095-23.137 89.441-29.351 93.547-27.298 1.3316 0.66582-10.912 39.339-35.048 66.452-11.189 12.577-39.191 28.112-75.478 35.492l-11.781 0.20971z" fill="#ea535e"/>
  <path d="m272.65-50.532c-4.105-2.0551-66.933 4.2518-94.028 27.391-22.841 19.494-33.365 46.977-36.121 55.17 3.0355-1.3526 5.7334-2.5322 8.8962-4.0683 8.9513-18.698 20.03-37.878 37.581-50.251 22.472-15.868 61.662-23.803 81.877-26.854 0.66582-0.10485 1.2582-0.20971 1.814-0.31456 0.10485-0.62911 0.10485-1.0013-0.0183-1.0538" fill="#f5b2aa"/>
  <path d="m253.08-39.091s-36.509 5.4188-54.597 18.199c-18.069 12.78-30.794 33.864-40.115 55.54l-7.0466 9.2664 11.023 3.5126c25.56-54.208 90.736-86.519 90.736-86.519" fill="#ca4751"/>
  <path d="m164.45 51.435c33.55-8.8407 58.055-18.551 73.166-35.529 20.992-23.581 32.976-55.928 34.862-64.362-1.3107 1.2373-2.7 3.219-4.126 6.1958-9.9133 20.492-25.782 43.629-33.069 50.898-7.1389 7.1578-38.025 27.964-68.487 37.859-0.52427 0.15728-2.7734 5.0487-2.3487 4.9386" fill="#ca4751"/>
  <path d="m163.18 57.088c-0.53475-2.4588 7.4902-17.7 7.4902-17.7l-13.538 0.9961s6.6026-16.201 5.6227-17.2c-2.5322-2.5322-26.133 14.222-32.07 20.16l-0.66582 2.312 20.825 11.578 18.513 8.6 0.15728-5.6406s-5.7706-0.64485-6.3252-3.1089" fill="#1e657e"/>
  <g fill="#0f141b">
   <path d="m131.45 41.373c-2.9988 4.3252-1.5361 5.4927 1.9031 1.7039 6.8799-7.5646 18.458-15.462 28.168-18.717-1.274 4.0893-3.8481 11.837-5.8261 16.072-0.47184 0.98037-0.26213 1.5518 1.2006 1.274 2.5899-0.52427 7.8236-1.0171 11.541-1.0171-2.8101 4.991-7.324 13.501-7.324 16.072 0 1.4994 1.7196 3.4601 5.2164 3.6069 2.2019 0.10485 2.3644-0.9961 0.36698-1.6986-1.8874-0.66581-2.3854-1.3316-2.5322-1.5728-0.64484-0.98037 0.72348-4.2885 8.0081-16.923 0.77591-1.3474 0.41941-1.9031-0.98037-2.2176-3.0355-0.66581-8.3966 0.10485-11.818 0.77591 2.3644-5.012 6.4914-16.349 5.456-17.515-2.2753-2.5532-26.466 10.135-33.402 20.16"/>
   <path d="m273-52.357c-77.808 5.5483-110.78 23.618-133.13 87.37-0.26213 0.77591 4.0316-1.9031 4.3462-2.679 23.322-57.649 54.782-75.718 126.63-81.47-13.834 38.581-28.741 59.516-45.775 73.036-15.221 12.077-34.603 18.329-59.849 25.634-0.41941 0.10485-1.3107 2.7576-0.52426 2.5689 23.636-5.7706 48.234-12.762 63.492-25.671 21.732-18.384 34.271-39.745 46.311-76.772 0.62912-1.9398 0.36699-2.1442-1.5151-2.0184"/>
   <path d="m251.05-39.875c-39.782 4.7551-69.097 20.289-88.775 64.825-0.31455 0.76018 0.20971 3.4392 0.47184 2.9778 22.082-40.984 41.983-57.963 88.979-66.008 4.126-0.70251 3.4968-2.291-0.66582-1.793"/>
   <path d="m67.321 61.153c-1.426 8.9885 1.5151 16.424 5.7706 16.424 5.4744 0 9.3398-5.2164 11.503-15.536 1.8664-8.859-1.3526-16.923-5.6961-16.923-3.586 0-10.061 6.4731-11.578 16.035"/>
  </g>
  <path d="m70.282 61.616c1.2582-7.9342 5.012-14.148 8.5444-14.148 0.62912 0 1.2215 0.31456 1.7406 0.98037 1.405 1.7406 2.5322 6.159 1.0905 12.983-1.2582 6.0107-3.7747 13.15-8.5633 13.15-2.1442 0-4.1784-4.3252-2.81-12.965" fill="#fabe00"/>
  <path d="m73.093 74.577c3.3867 0 5.6222-3.5493 7.1022-7.768-3.0512 4.4038-7.9531 3.9792-10.302 1.426 0.26213 4.2151 1.7038 6.3436 3.198 6.3436" fill="#d8a500"/>
  <path d="m98.71 87.294c1.7039-4.9753 6.1402-14.112 12.465-21.343 3.586-4.105 9.118-8.9696 15.11-8.9696 9.7099 0 18.883 11.411 20.141 21.047-2.4431 0.31456-8.1565 1.1639-19.679 3.198-10.061 1.7563-26.059 7.4718-26.744 7.7124-1.3526 0.47184-1.9031 0.15728-1.2949-1.6462" fill="#fff"/>
  <path d="m106.05 54.925c-5.7706 4.105-10.986 12.65-13.779 18.883-1.6829 3.7747 0.8126 4.6397 2.6266 0.70251 2.4588-5.3821 7.3423-13.556 12.484-18.18 3.4601-3.1456 2.4955-4.126-1.3316-1.405" fill="#0f141b"/>
  <path d="m54.232 63.107c1.8297 3.5493 4.1994 10.006 5.2893 12.244 1.7038 3.4968 2.9044 2.8468 2.1442-0.59242-0.57145-2.6423-3.3081-8.9329-5.8628-12.724-1.4784-2.2019-2.7734-1.2949-1.5728 1.0747" fill="#0f141b"/>
  <path d="m46.246 65.757c3.5702 0.0372 9.2658 10.986 10.061 24.358 0.0524 0.72348-0.41941 1.2006-1.7563 0.9227-1.4994-0.36698-3.4234-0.83358-5.2526-1.2949-3.35-0.83358-7.4351-1.8506-11.504-2.7209 0.0524-9.0624 6.3252-20.88 8.4522-21.269" fill="#fff"/>
  <path d="m66.157 103.26c0 0.47184 1.5728 1.5728 2.4221 1.5518 1.0013 0 2.81-0.886 2.81-1.2949 0-0.55572-5.2322-0.76018-5.2322-0.26213" fill="#0f141b"/>
  <path d="m95.092 108.54c-0.72348 1.7563-2.4955 4.3094-5.1588 4.3094-1.4784 0-11.319-2.3277-17.792-2.3277-6.9911 0-9.8944 1.426-14.093 1.426-1.0905 0-2.7366-0.9961-3.2924-1.6986-2.1809-2.7943-3.7537-1.6252-1.814 1.3316 1.1481 1.7563 3.219 3.0145 5.1063 3.0145 3.7013 0 7.8414-1.0747 14.093-1.0747 7.0466 0 12.909 1.9031 17.792 1.9031 4.0106 0 6.5286-3.198 7.2495-6.4547 0.7759-3.5126-0.73922-3.7747-2.0918-0.41941" fill="#0f141b"/>
  <path d="m49.812 74.742c-1.7406 0-3.7904 3.9582-3.7904 8.4522 0 5.3821 1.1848 8.341 3.2714 8.341 1.5151 0 2.9411-3.5335 2.9411-8.6184 0-5.6038-1.1848-8.1748-2.4221-8.1748" fill="#ea535e"/>
  <path d="m49.298 90.629c-1.3316 0-2.0918-2.6056-2.0918-7.3423 0-3.9372 1.3107-7.4168 2.4221-7.4168 0.79688 0 1.5518 2.2543 1.5518 7.1761 0 4.4772-0.90697 7.583-1.8874 7.583m0.66582-16.96c-3.2557 0-5.5672 5.1063-5.5672 9.9133 0 2.7943 0.52427 4.991 1.2949 6.5659 2.0132 0.36698 3.4392 1.793 5.2164 2.0341 2.4798-1.9607 2.7576-8.0637 2.7576-8.3966 0-6.0662-1.8664-10.117-3.7013-10.117" fill="#0f141b"/>
  <path d="m49.632 75.861c-0.84931 0-1.814 2.0132-2.2176 4.7341 1.3316 0.15728 2.5899 0.53475 3.738 1.1114-0.10485-3.9792-0.79688-5.8445-1.5151-5.8445" fill="#ca4751"/>
  <path d="m50.124 83.344c0 1.8874-0.31456 3.4234-0.77591 3.4234-0.41941 0-0.76018-1.5361-0.76018-3.4234 0-1.8664 0.31456-3.4025 0.76018-3.4025 0.41941 0 0.77591 1.5361 0.77591 3.4025" fill="#0f141b"/>
  <path d="m37.803 87.026c4.0683 0.8493 8.156 1.8873 11.504 2.7209 1.814 0.47184 3.738 0.94368 5.2322 1.274 0.41941 0.10486 1.7406-1.2582 1.7039-1.9031-1.0171-12.909-6.5103-23.322-9.9872-23.359-2.1285 0.36698-8.3782 12.188-8.4522 21.269m21.398 7.0833c-0.72348 0.41941-2.4064 0.15728-10.524-1.9031-3.6227-0.9227-12.539-2.9778-16.997-3.6436 0 0 1.4784-0.98037 3.2347-1.3474-0.0524-3.586 0.66581-7.3423 2.0551-11.3-0.61339-1.3683-1.6462-2.5899-2.0708-2.9411 0 0 1.5518-0.41941 3.0722-0.36699 2.0708-5.1797 4.4562-8.1009 6.5103-9.3214-0.10485-1.274-0.26213-2.5532-0.52426-3.9215 14.222 7.8603 16.035 34.234 15.221 34.733" fill="#0f141b"/>
  <path d="m126.11 62.428c-1.7772 0-3.8271 4.8652-3.8271 10.486 0 7.3056 3.1823 11.042 5.0696 11.042 1.9607 0 3.7904-2.1075 3.7904-10.93 0-6.8799-1.9974-10.597-5.0329-10.597" fill="#ea535e"/>
  <path d="m126.39 61.497c-3.0355 0-6.288 5.1588-6.288 12.928 0 5.1588 1.5151 8.1748 3.198 9.9133 0.83358-0.26213 1.7563-0.26213 2.4798-0.52426-1.1639-1.426-2.3697-4.6607-2.3697-9.7282 0-5.3821 1.4627-10.024 2.7576-10.024 2.1652 0 3.6069 3.5702 3.6069 10.135 0 5.5666-0.57144 8.3227-1.3683 9.5804 1.0538-0.20971 2.1075-1.5885 3.1823-1.9974 0.72349-1.9398 1.1848-4.3462 1.1848-6.9171 0-8.3966-2.7-13.372-6.3808-13.372" fill="#0f141b"/>
  <path d="m129.61 70.677c-0.41941-4.3094-1.7039-6.6026-3.4392-6.6026-1.038 0-2.1809 2.9778-2.5899 6.9355 1.3159-0.26213 2.7-0.41941 4.126-0.41941 0.64485 0 1.274 0.0367 1.9031 0.10485" fill="#ca4751"/>
  <path d="m127.87 74.098c0 2.6475-0.52427 4.7918-1.1639 4.7918-0.62912 0-1.1481-2.1442-1.1481-4.7918 0-2.6423 0.52427-4.7708 1.1481-4.7708 0.64484 0 1.1639 2.1285 1.1639 4.7708" fill="#0f141b"/>
  <path d="m100.55 86.647c0.47184 0.76019 1.9608 1.3474 2.291 1.2373 6.5842-2.2753 17.737-5.5855 23.914-6.6582 11.503-2.0341 17.237-2.8834 19.678-3.198-1.2582-9.636-10.431-21.048-20.141-21.048-5.9923 0-11.522 4.8652-15.11 8.9518-5.2322 5.9923-8.6928 13.039-10.856 18.18-0.15728 0.36699-0.26213 1.7773 0.20971 2.5322m2.6633 4.3252c-5.4744 1.7196-7.9342 2.7576-8.4522 2.0708-0.31456-0.41941-0.81261-2.2543 2.1652-9.4692 10.32-24.931 23.118-30.202 41.151-35.029 0 0-4.5873 3.3867-6.3997 5.6961 3.9582 1.1639 6.936 3.1456 10.579 7.4534 3.6227-0.66581 9.0257-1.7038 9.0257-1.7038s-4.2728 3.4759-6.0479 5.3449c2.6423 4.1417 4.7184 8.1932 5.1221 12.724 2.9044 0.36699 7.1022 1.5361 7.1022 1.5361-10.93 0.70252-39.006 6.6026-54.246 11.374" fill="#0f141b"/>
  <path d="m26.909 195.5c4.2518 3.0145 9.0257 6.0662 14.426 9.1547 0.9227 0.52426 2.3697 1.3316 2.831 1.5728 2.2963 1.2582 4.6607 2.5322 7.1578 3.8114 30.96 15.943 75.773 18.865 80.896 15.443 0.83358-0.55572 1.7196-1.8874 2.6266-3.8481-8.3227 2.2963-36.546 0.87027-71.113-11.097-12.391-4.2937-22.508-9.9316-30.757-16.22 0 0.0372 0 0.10485-0.0183 0.10485-0.31456 0.41941-2.4588 0.60815-4.6607 0.68154-0.47184 0.10486-0.94368 0.26214-1.3893 0.36699" fill="#124f64"/>
  <path d="m22.928 195.15s2.7366 0.0524 5.3637-0.0183c1.6672-0.47184 3.3291-1.038 3.8271-1.4784-15.499-12.04-24.339-26.355-29.481-38.136l-0.79689-0.15728c-0.36698 3.5335-0.60814 6.9911-0.60814 9.9316 0 12.133 21.695 29.851 21.695 29.851" fill="#c9c9ca"/>
  <g fill="#0f141b">
   <path d="m132.22 225.49c-5.1221 3.4025-49.936 0.52427-80.896-15.443-2.4955-1.274-4.8652-2.5532-7.1572-3.8271-0.47184-0.2097-1.9031-1.0538-2.831-1.5728-25.634-14.63-38.155-28.408-38.155-41.946 0-14.167 3.4234-27.761 4.4038-29.499 0.8493-0.62912 5.5855-2.831 9.4325-4.4195 1.4994-0.62912 3.6069-4.7551 2.7734-4.4772-2.5532 0.8493-13.113 5.2898-14.518 6.6954-1.7406 1.7406-5.2709 17.515-5.2709 31.7 0 14.889 12.577 29.166 39.32 44.462 1.0905 0.57145 2.2753 1.1639 2.81 1.5728 2.4798 1.3683 5.0487 2.7367 7.7491 4.1417 29.444 15.147 76.828 20.103 84.096 15.258z"/>
   <path d="m117.47 204.45c-6.5659 1.0747-45.46-20.067-63.807-36.12-2.9568-2.5899-6.7137-10.857-11.153-24.561-4.2151-13.021-2.6266-23.026-1.8664-27.854 0.41941-2.831 0.65009-4.126-0.41941-4.9753-0.98037-0.79688-2.4431-0.61339-5.0329 0.62912-7.1206 3.4392-25.079 16.775-25.079 27.89 0 11.152 3.4601 22.564 8.341 31.034 1.9974 3.4392 3.1246 2.2753 1.8506-0.79689-3.4759-8.3782-7.0099-19.66-7.0099-30.239 0-10.098 19.179-23.562 24.451-25.542-0.0524 0.47184-0.15728 0.9961-0.20971 1.4994-0.36698 2.4588-0.9961 6.1957-0.9961 10.986 0 5.0486 0.66582 11.282 2.9778 18.347 6.2513 19.272 9.895 24.043 12.077 25.967 16.165 14.149 58.999 39.45 67.247 36.694z"/>
   <path d="m47.943 165.73c-1.426 3.7747-1.5885 10.394-1.7406 15.684-0.0372 1.8506-0.10485 4.0106-0.26213 5.1954-2.8834-0.73921-11.263-3.1823-19.475-5.8078-1.4627-0.47184-1.793 0.20971-1.0538 1.405 2.7943 4.5873 5.0487 9.2291 5.7334 11.097-0.94368 0.20971-3.4234 0.26213-7.8786-0.36698-0.76018-0.10486-1.1639 2.6475-0.41941 2.7576 9.173 1.3107 10.801 0.10486 11.17-1.426 0.2097-0.94368-0.36699-3.1456-4.9019-10.32 16.627 5.974 17.736 5.6966 18.217 5.5299 1.426-0.47184 1.4627-2.0551 1.6095-7.9526 0.10485-4.8442 0.31456-11.467 1.5518-14.796 0.26213-0.72349-0.0524-1.5151-0.79688-1.793-0.72348-0.26214-1.5151 0.10485-1.793 0.8126"/>
  </g>
 </g>
</svg>
