<?xml version="1.0" encoding="UTF-8"?>
<!-- Created with Inkscape (http://www.inkscape.org/) -->
<svg version="1.1" viewBox="0 0 270.11 302.03" xmlns="http://www.w3.org/2000/svg">
 <g transform="translate(29.811 -.73195)">
  <path d="m56.763 211.68c-5.6438-12.445-29.828-4.2188-30.068 5.9262-24.551 5.1359-53.814 13.418-54.957 27.217-0.9439 11.302 28.544 11.161 35.472 17.764 5.1219 4.8963 5.7286 13.277 16.071 16.41 11.824 3.5556 27.838-1.4398 41.609 3.8236 9.651 3.6956 25.665 19.034 47.86 18.54 12.459-0.27997 24.833-2.7517 43.43-13.927 21.052-12.67 34.089-7.0405 44.474-10.54 11.4-3.8396 18.681-20.967 0.27997-34.399-1.8078-14.815-19.344-22.801-25.948-18.343-13.193-16.537-14.477-38.096-8.0144-56.989 6.4057-18.752 17.51-45.645 8.3811-62.421 5.517 0.74794 10.78-1.2279 10.935-8.3107 0.15998-7.0689 1.4398-13.164 10.046-14.886 8.0144-1.5958 18.131-6.1658 20.6-14.42-3.2157 1.2279-8.2684 2.7077-11.979 2.3438 8.3951-5.3051 13.757-10.088 10.611-19.866-1.0999-3.4556-2.9917-8.7619 3.7116-11.965 8.254-3.9516 17.143-6.7869 19.979-13.941l-4.6843-0.35997c4.5575-3.0917 5.3051-8.5083 4.6843-10.85-5.3051 3.4436-12.459 6.039-19.866 5.5454-7.3936-0.49194-15.662 0.35997-25.411 9.0019-2.0878-4.6843-4.6847-7.8876-8.2544-7.1537-2.7237-3.9516-5.0655-6.4058-8.6351-5.799 4.9243 9.7498 4.0776 19.132-2.5957 23.069-2.7077 1.6078-6.4198 3.6956-9.0019 4.3176-2.5957 0.61993-5.0655 0.98789-7.5204 1.9758 1.8478-4.4447 0.60795-9.623-1.6078-11.598-2.2158 5.5594-6.4198 9.383-10.117 10.611-3.6956 1.2399-9.7498 2.8357-11.711 5.6722-1.9758 2.8357-1.9758 7.9016-1.8638 11.852 0.11999 3.9356-0.60794 9.4958-5.4182 10.484-4.8115 0.98789-6.7869 1.5958-7.6476 2.7077-2.9637-0.23997-8.5219 1.3559-12.953 3.2037-0.85991-2.5837-1.7358-5.4183 3.8236-8.3811 5.545-2.9637 12.332-6.4197 12.459-9.1291 0.11999-2.7077-0.43595-4.2892-1.6078-6.5325-1.4798-2.8517 0.11999-7.9016 7.4076-11.485-3.0917-1.0999-6.6597-1.0999-10.864 1.7358-0.60794-3.6956 2.7957-7.2241 5.4322-9.1291 5.799-4.1904 8.3108-8.1836 4.6843-12.586-1.7198-2.0878-3.5716-4.4444-3.5716-8.1412 0-3.6956-0.9879-6.4058-1.7358-8.1412l-2.5837 3.4556c-1.2399-3.0917-2.5957-5.4323-4.3176-6.039 1.2279 7.1537-0.94391 13.743-9.6226 17.143-7.9016 3.0757-11.358 5.3055-13.573 10.357-1.3559-4.8111-4.1908-7.6472-7.2808-8.8747 2.5957 7.0265 1.6078 15.902-4.9243 21.207-6.5469 5.3055-10.611 7.5488-7.9012 12.953 2.3438 4.6987 4.0776 9.383-2.3438 14.195-3.4556 2.5797-6.293 5.6718-6.1662 8.1412 0.11999 2.4677 3.2037 6.5325 7.0269 10.723-1.4798 5.3051-2.8357 12.586-0.73192 20.106-4.8115 2.7237-7.1113 12.713-6.9137 16.664 0.49196 9.7358 3.6956 13.319 8.1412 18.498 4.4447 5.1783 5.5594 9.1291 5.3055 12.953-0.23997 3.8236-1.4798 7.4076-4.6847 11.838-3.2037 4.4448-3.2037 8.0144-2.7237 11.965 0.49194 3.9516 4.3176 11.471 13.079 10.483 8.7623-0.9879 11.838-7.6476 11.231-12.459-0.61994-4.8115-3.7116-9.1291-5.3051-10.597-1.6078-1.4799-4.1904-4.3176-4.5715-15.309 2.3438 1.3679 4.6987 2.5957 7.6476 3.3277 12.092 23.563-0.35996 46.012-34.724 56.368" fill="#ec6c1f"/>
  <path d="m92.254 68.418c-5.1783-2.1438-17.538 5.4322-21.602 15.154-7.9016 18.949-2.5237 30.082 0.84791 31.733 3.0917 1.5118 14.11-12.854 18.441-24.424 4.4447-11.838 6.1662-20.868 2.3158-22.463" fill="#fff362"/>
  <path d="m162.08 77.783c-3.8676-4.4024-23.577-5.4323-34.597 5.3335-18.427 17.99-15.718 36.939-12.925 39.197 6.7165 5.3898 24.579-3.7516 34.823-14.942 8.7623-9.5662 18.032-23.492 12.699-29.588" fill="#fff362"/>
  <g fill="#cc5d18">
   <path d="m172.57 273.85c-22.406 0.39996-26.597 14.265-50.258 20.374-24.495 6.3214-45.109-21.009-63.776-19.711-60.686 4.2048-29.235-19.486-54.703-21.701-21.165-1.8358-31.747-6.8009-27.5-15.916-2.3438 2.4118-3.7956 5.0511-4.0356 7.9296-0.9599 11.513 27.316 10.243 35.19 17.764 5.1219 4.8819 5.4462 12.995 15.789 16.114 11.824 3.5676 27.838-1.1559 41.609 4.12 9.651 3.6836 25.665 18.738 47.86 18.244 12.459-0.27998 24.847-2.4558 43.43-13.644 21.052-12.67 33.807-7.3088 44.191-10.808 9.9898-3.3716 17.567-16.282 6.8293-28.374 7.4072 20.431-10.201 25.2-34.625 25.609"/>
   <path d="m194.37 229.33c2.6397 4.7691 0.23998 8.7619-3.6116 7.732 5.3474 3.5676 8.8607 4.1764 10.06 5.9542 0-5.9542-5.0655-12.995-6.4481-13.686"/>
   <path d="m51.157 249.37c1.3399 6.7161-3.4157 11.514-14.194 13.348-5.8558 0.9999-5.4182 3.1197 0.15999 3.2877 7.9012 0.23997 12.261-1.2559 14.801-3.1197 4.6139-3.3877 3.9796-8.7619-0.77592-13.517"/>
   <path d="m159.53 250.75c7.8732 14.42-23.634 17.002-29.306 12.29 0.83192 9.3686 22.702 9.9474 30.434 3.6116 5.8698-4.7971 5.1923-11.739-1.1279-15.902"/>
   <path d="m35.783 208.09c-8.7339 8.212 13.193-0.31997 14.843 5.2911-14.575 3.1597-21.912 3.9356-24.057 4.5999 0-5.2207 6.6033-9.4818 9.2135-9.891"/>
   <path d="m66.821 239.93c0.85991 3.2037 8.1412 1.8478 8.7619-0.9879 0.59193 2.2278 0.27997 4.3456-4.4444 5.1779-3.5116 0.63594-4.9947-1.7918-4.3176-4.1904"/>
   <path d="m100.74 264.85c1.6358 4.092 12.219 5.9262 15.789 2.7077 0.11999 3.4556-5.7146 5.6582-11.711 3.9516-4.0776-1.1559-4.0776-3.1877-4.0776-6.6597"/>
   <path d="m63.121 126.45c12.67 26.568 51.627 29.489 75.247 16.776 3.2037-1.7198 3.6956 2.8797 3.6956 4.5291-0.81992-0.9879-1.9758-1.6518-3.1197-1.1559-1.1559 0.49196-4.9383 1.8078-7.2385 3.9516-2.2998 2.1318-3.6276 4.4307-3.6276 7.0693 0 3.6116 0 8.0564 1.9758 11.189 1.9758 3.1197 6.7445 9.6934 7.0689 14.307 0.63593 8.8891-3.4436 13.277-10.597 15.746 15.408-9.0023 2.9477-31.578-9.5098-24.551 2.3158-3.1197 3.3437-5.0087 3.4996-7.1537 0.15999-2.1318 0.66394-7.732 0.49196-9.2134-0.15999-1.4798 0.15998-3.8396-2.7957-2.9637-6.8717 2.0598-22.406 5.3898-34.371-3.1197 0.49194 4.1908 0.9879 12.332 3.8236 14.434 2.8357 2.0878 5.771 7.0269 5.9122 12.092 0.23998 8.8751-7.2665 12.572-14.053 11.838 19.118-7.5208 5.1783-29.729-7.1537-21.955 3.9356-6.293 5.1783-12.219 4.3176-15.549-0.8759-3.3317-3.7116-8.0144-6.9137-11.217-3.2037-3.2157-6.293-10.004-6.6597-15.055"/>
   <path d="m112.17 191.49c-5.8978 1.1839-12.036-0.87591-17.807-8.212 2.4678-6.5749 2.4678-19.57-3.1197-27.796 7.0689 2.9637 21.193 1.9318 25.821-0.15998 1.8078-0.81992 3.9516-0.81992 3.9516 2.6397 0 5.0935 0.81993 9.8626-2.1438 13.813-2.9637 3.9516-8.8043 12.967-6.7021 19.725"/>
   <path d="m142.07 151.86c-0.60794 5.6722-3.9076 14.095-8.8187 21.757-2.0318-2.5117-4.8395-6.293-5.1639-10.568-0.31997-4.2752-0.15999-9.8766 2.7957-12.007 2.9637-2.1438 6.7445-3.9516 8.8891-4.7691 0.81991 1.4798 1.8078 3.6116 2.2998 5.5874"/>
   <path d="m150.13 117.98c8.1976-6.5185 20.995-9.9898 27.966-5.5874-1.1559-3.4556-1.9758-6.0954-2.6397-7.5768-7.5772 0-14.773-1.6518-25.327 13.164"/>
   <path d="m219.04 30.315c6.2506 1.3119 13.644-1.1559 18.089-2.7957 1.1559-1.4799 1.9758-2.9637 2.2998-3.9516l-5.0935-0.11998c-2.5957 2.2278-8.7619 6.2082-15.295 6.8713"/>
   <path d="m97.659 91.17c0.80392 2.8357 2.5677 3.6556 3.8236-0.11999 0.85991-2.5837 1.8478-3.8236 4.4447-4.9243 6.039-2.5957 8.5079-5.0655 8.5079-12.219-1.7198 0.35996-6.039 1.8478-7.4076 2.4677 0.49196 2.2158 0.88791 4.7267-3.0757 5.9258-4.9383 1.4678-7.9156 3.1757-6.293 8.8751"/>
   <path d="m214.34 44.097c0.31997 11.034-1.3398 17.228-16.029 24.621 1.3559 0.49196 4.6847 1.2279 5.5594 1.1159 9.4958-5.0655 11.711-10.117 12.332-13.08 0.61994-2.9637-0.27998-8.1696-1.8638-12.656"/>
   <path d="m209.29 69.212c-2.2158 3.0917-5.9262 5.9262-11.344 6.6597-5.4323 0.74792-9.9898 3.6956-11.725 6.6597-1.7198 2.9637-2.7077 8.5083-3.0757 13.701-0.39996 5.1783-3.8236 7.3933-9.1287 8.5079 6.6597 0.73192 12.402-1.4798 12.572-9.0019 0.11999-5.1923 0.9879-9.8766 4.8115-11.965 3.8236-2.1038 13.207-4.078 16.043-5.9262 2.8357-1.8478 7.6472-5.0511 9.3686-10.977-2.5837 1.2279-4.9243 2.1038-7.5204 2.3438"/>
   <path d="m185.61 20.118c1.2279 4.5575 1.6078 8.0144 1.6078 10.357 0 2.3438 0.35997 6.1658 1.5958 4.2048 1.2399-1.9758 3.2157-5.0655 4.9383-6.9137-0.73193-4.1908-4.5571-8.6351-8.1412-7.6476"/>
   <path d="m113.45 49.846c-1.9038 0.71992-0.9879 2.1038 1.3559 2.1038s4.0776 1.7198 4.3176 3.4436c0.23997 1.7358 1.6078 5.799-2.7077 9.1291 4.0636-1.2279 7.9296-5.4182 5.9122-9.8626-2.3438-5.1783-1.8478-8.8891 6.5469-14.067-3.3317-0.9879-8.1416 0-11.104 1.8478 0.49194 2.8517-0.11999 5.799-4.3176 7.4076"/>
   <path d="m156.13 32.33c1.4798 4.5575 0 9.4958-2.7077 13.813l-1.8358 3.4276c-0.9879 1.8478 0.94391 1.8478 4.4164-0.46396 4.0776-2.7077 8.1412-4.1904 11.598-5.1783 3.4556-0.9879 9.3686-4.5715 12.219-12.713-3.4556 4.4448-8.6351 8.7623-13.446 9.7498-4.8115 0.9879-7.1537 1.6078-8.6351 2.3438 1.8478-3.8236 1.3559-9.6226-1.6078-10.977"/>
   <path d="m115.42 22.339c-1.1159 1.2279 0.23998 2.3438 2.1038 0.35997 1.8478-1.9758 2.7517-2.3438 3.8236-3.9516 0.49194-0.73192 1.3558-0.60794 1.8478 0.23998 0.49595 0.85991 2.7077 4.0636 0.98789 7.0269-1.7358 2.9637-5.9258 5.799-7.1533 8.7619-1.2439 2.9637-0.74792 7.1537 0.49196 10.244 0.23998-3.7116 0.23998-7.1537 4.3176-10.483 4.0636-3.3436 8.6351-6.1802 8.2544-9.2562-0.35996-3.0917-3.6956-6.053-4.9243-7.9012-1.2399-1.8478-0.61993-2.3438-0.74792-4.4303-0.11999-2.1038-0.61994-6.1802-1.5958-8.1416 0.11999 6.7729-2.5957 12.205-7.4076 17.51"/>
   <path d="m113.33 14.69c-4.1904 6.293-11.838 8.2684-16.156 13.447-2.6517 3.1877-5.3051 10.977-4.0776 20.727-3.0757-8.3955-2.2158-17.651 0.85991-22.082 3.0877-4.4444 8.268-6.293 10.117-6.9137 1.8478-0.61993 6.9137-2.5837 9.2558-5.1783"/>
   <path d="m86.221 21.728c2.9077 3.9076 4.0212 8.6067 4.9243 15.76 0.31997-3.5716 0.66393-6.039 1.5678-7.9296-1.1279-5.0371-4.6987-7.492-6.4905-7.8308"/>
  </g>
  <g fill="#0f141b">
   <path d="m27.55 216.43c-24.72 4.9523-56.862 13.785-57.356 28.84-0.19998 5.785 6.039 8.3104 19.316 11.725 13.376 3.4276 16.762 4.5995 21.122 12.092 7.0409 12.064 13.983 12.981 30.082 12.769 18.455-0.23997 21.913-0.014 33.383 6.8997 9.4818 5.7002 21.151 14.166 38.604 14.011 13.066-0.11999 25.412-3.0477 43.91-14.35 20.106-12.29 34.145-6.8289 45.574-11.005 6.4905-2.3837 10.526-7.5772 11.302-13.927 1.0559-8.6491-2.3438-18.201-20.248-26.089-3.9236-1.7358-4.4588-0.53594-0.69194 1.4679 16.128 8.6067 18.865 15.591 18.216 23.859-0.46396 5.8558-4.4588 11.246-10.653 13.094-14.984 4.4727-23.337-1.7638-44.375 10.893-18.004 10.836-30.209 13.249-43.006 13.531-15.718 0.35997-28.459-7.3228-37.757-12.924-10.935-6.5753-14.449-8.2684-33.68-8.0004-15.831 0.19998-22.562-0.43595-28.925-11.358-3.2597-5.6014-7.1113-9.6226-20.911-12.713-9.6226-2.1598-18.808-4.5995-18.328-10.342 1.3399-16 43.754-24.495 57.694-27.288 5.4886-1.1159 2.2158-2.2878-3.2717-1.1839"/>
   <path d="m175.09 223.11c-0.39997 0.27996 0.71992 2.0318 1.0999 1.7638 2.2558-1.5958 6.4057-1.4798 10.85 0.76392 5.771 2.9077 11.993 9.3122 13.08 16.325 0.08 0.60795 1.8478 2.2878 1.8358 1.8198-0.15999-8.4659-7.1253-17.595-14.575-20.769-5.2067-2.2438-10.103-1.4518-12.29 0.08"/>
   <path d="m145.1 246.88c-18.568 3.0757-20.628 19.33-10.131 22.773 3.4556 1.1279 5.4742 0.23996 1.9758-0.79193-9.0583-2.6397-7.7744-17.143 8.3108-19.796 14.998-2.4838 23.464 8.8751 14.73 17.03-1.8638 1.7478-0.75992 2.2838 1.2719 0.75993 10.667-8.0424 1.5358-22.914-16.156-19.979"/>
   <path d="m101.05 269.93c1.5678 1.8358 2.6957 1.5238 1.3399-0.46395-1.7198-2.4838 0.35997-7.732 7.1961-6.5753 7.1961 1.2119 7.478 7.1537 2.0598 8.0992-2.1598 0.39996-1.2119 1.5358 0.9439 1.2679 8.2684-0.98789 6.053-10.441-3.2157-11.824-8.5503-1.2719-11.386 5.8978-8.3248 9.4958"/>
   <path d="m35.298 243.48c-15.944 0.59193-24.48 16.762-9.9614 21.63 2.4557 0.81992 4.0776 0.19998 1.6638-0.74792-4.8819-1.9038-7.3372-5.0091-6.7445-8.5503 0.75992-4.5859 6.6313-9.5098 15.097-9.8206 9.9334-0.35997 17.835 5.1079 18.724 10.23 0.63593 3.6116-2.1318 6.5749-7.7744 8.3672-2.7797 0.87591-1.0039 1.4958 1.8198 0.75993 16.48-4.2756 5.7006-22.547-12.825-21.87"/>
   <path d="m39.004 205.23c-6.5329 1.7358-13.39 6.3778-13.39 12.699 0 0.46396 1.9478 0.014 1.9198-0.45195-0.19998-3.8796 4.9103-8.212 11.909-10.06 5.813-1.5518 13.616-1.3559 16.48 4.3176 0.19998 0.40795 2.1598-0.53595 1.9478-0.9599-3.3157-6.5609-12.445-7.2525-18.864-5.545"/>
   <path d="m71.475 235.29c-3.5996 0.31997-6.067 3.3717-5.3195 6.6173 0.50796 2.2158 2.8517 2.9077 1.7078 0.94391-0.98789-1.6798-0.15998-4.8819 3.7676-5.3335 2.3438-0.27997 4.4868 1.6798 3.2037 3.8676-0.94391 1.5958 0.15998 1.7478 1.2999 0.27998 2.2998-2.9917-1.3119-6.6737-4.6563-6.3634"/>
   <path d="m174.02 104.62c11.556 21.419-9.2558 57.116-11.231 76.023-1.4958 14.392-1.3959 33.581 17.524 49.793 2.4837 2.1318 3.4556 1.0879 1.1159-1.1999-17.27-16.805-18.145-32.043-16.48-48.213 2.2878-22.124 22.886-53.589 11.669-76.164z"/>
   <path d="m97.166 174.8c-0.014 15.436-18.54 35.359-47.042 39.211-3.1477 0.42395-3.4556-1.0879-0.31997-1.6078 26.046-4.2892 45.617-22.66 45.123-37.602-0.27998-8.1412-1.3839-14.9-5.4606-19.923l3.2997 1.0999c2.6677 4.078 4.4024 11.09 4.4024 18.822"/>
   <path d="m127.02 156.93c-0.04 1.7918 0.08 5.7142 0.23998 7.0689 0.15998 1.2559 0.46395 3.2757 1.6518 5.1079 4.8255 7.3932 7.436 10.469 7.1113 17.298-0.31996 6.8433-6.4761 11.824-12.953 11.965-6.5469 0.15998-11.062-5.8554-9.9894-12.29 0.9999-6.025 4.8111-11.344 7.2805-15.337 0.9319-1.4958 1.4798-3.9236 1.4798-5.7566 0-2.1598 0.19998-7.1257 0.08-8.7903-0.15998-2.2438-1.5398-3.1477-3.8676-2.2278-8.0568 3.2157-25.087 4.0352-35.204-3.7796-1.9038-1.4798-2.1718-0.39996-1.0719 0.74792 8.3955 8.5503 23.493 8.9171 35.938 5.1783 1.3558-0.40796 2.2158-0.35996 2.3158 0.85991 0.11999 1.6238-0.11997 6.1942-0.15997 8.226-0.0281 1.6078-0.27997 3.4277-1.1559 4.7267-3.2877 4.9383-6.8005 9.5802-7.8448 15.831-1.3399 8.0004 4.12 14.787 12.205 14.59 8.4659-0.19998 14.787-5.3479 15.182-13.517 0.31996-7.1397-2.7237-11.232-7.7744-18.625-1.0879-1.5798-1.3559-2.9917-1.4798-4.2048-0.15998-1.2839-0.31996-5.1359-0.23998-6.8997 0.08-2.4678 1.9478-4.7831 3.1317-5.6718 2.0598-1.5678 5.0935-2.9637 7.5624-3.8676 0.90391 1.4798 1.3958 3.2877 1.5678 4.3596 0.19998 1.4239 1.3119 1.8478 1.3119-0.08 0-2.7957-0.31997-4.8539-0.73192-5.8414-0.42396-0.9879-1.0999-1.2839-1.9758-0.90391-3.0477 1.3119-6.1662 3.0757-8.5507 4.8539-2.5557 1.8918-3.9516 3.6956-4.0352 6.9841"/>
   <path d="m88.12 165.49c-2.3718-1.8478-3.0477-9.2698-3.2877-13.193l-1.8478-1.1159c0.15999 3.8396 0.61995 13.037 3.4556 15.535 4.3176 3.8236 6.1658 7.9156 6.1658 12.91 0 4.8399-4.6279 9.5806-11.104 9.5806-5.8134 0-10.201-4.6279-10.864-9.411-0.73193-5.4322 0.27997-8.4799 4.0776-13.813 3.1037-4.3884 3.8516-11.316 2.5117-14.928-2.6797-7.1397-8.3107-11.288-10.568-16.085-3.5276-7.5204-3.1877-17.397 1.7478-23.86-0.39996-0.49195-0.74792-0.9599-0.9439-1.4398-7.6332 9.7358-5.4179 20.614-2.5397 26.075 3.3716 6.3778 8.7199 10.357 10.498 15.394 1.3279 3.7956 0.27997 10.286-2.1878 13.686-3.8516 5.3051-5.6722 9.1711-5.0511 14.73 0.80392 7.2805 6.1374 11.838 13.446 11.838 7.972 0 13.193-5.3195 13.193-11.598 0-5.6298-2.1038-10.723-6.7021-14.307"/>
   <path d="m71.983 114.16c-3.3597 0.04-7.1253-13.771-1.2719-28.135 5.4746-13.362 17.341-18.455 21.291-16.762 2.1998 0.9439 1.7358 9.5946-4.106 23.253-4.5715 10.695-12.825 21.602-15.916 21.644m17.821-20.642c5.7286-12.572 6.8149-24.72 3.1197-26.047-5.2627-1.9038-18.498 3.8956-24.212 17.905-5.1503 12.586-2.7517 30.9 3.1877 30.816 3.9636 0.19999 11.824-9.2843 17.905-22.674"/>
   <path d="m116.44 122.47c-3.7236-1.9758-5.771-19.358 8.3951-35.302 12.501-14.081 32.17-12.685 36.192-8.1412 4.5151 5.1075-3.4716 18.23-11.006 26.441-14.618 15.958-29.56 19.133-33.581 17.002m7.464-37.503c-16.128 18.357-13.277 36.558-8.5647 39.112 5.3194 2.8797 22.547-1.8358 36.939-17.651 6.5889-7.2381 16.339-22.279 10.215-28.798-5.6438-6.0106-28.177-4.5151-38.59 7.3373"/>
   <path d="m129.55 41.316c0.88791-0.47994 0.93191-1.0999-0.39995-1.5958-3.1317-1.1559-7.746-0.49194-11.513 2.3158l0.08 1.5958c4.0212-2.7677 7.1253-3.2997 9.5662-2.5557-3.9516 2.0318-9.679 6.6317-6.4058 12.671 2.1598 3.9916 1.3279 7.3089-4.8115 10.3-6.1518 2.9917-12.501 5.6298-10.469 11.88 0.9999 3.0757 0.74793 4.4023-3.3317 6.1518-4.0636 1.7358-7.1397 3.0917-4.8115 8.8047 0.9159 2.2438 1.5238 1.7798 1.2439-0.42396-0.40796-3.3157-0.56395-4.8675 4.162-6.7161 3.8116-1.4958 7.1821-3.4157 4.7271-8.3104-1.9878-3.9916 0.61993-5.503 9.2275-9.7218 8.4659-4.1624 8.9315-7.0969 5.7286-12.544-1.5798-2.6797-1.5958-7.1677 7.0125-11.852"/>
   <path d="m114.89 1.9901c1.8758 8.2963-2.9917 14.618-11.584 17.425-13.559 4.4447-15.196 15.874-11.048 28.727 0.74792 2.3278 1.6238 2.1038 1.0879-0.27997-2.8237-12.459-1.3399-23.224 10.639-26.766 6.8433-2.0158 14.378-8.5223 12.572-17.581 2.9357 2.1598 4.7691 10.046-0.88791 17.581-1.3679 1.8078-0.59194 2.4558 0.91591 0.64793 7.4784-9.0019 4.332-17.764-0.31997-20.685-1.0999-0.67593-1.6518-0.27997-1.3678 0.9319"/>
   <path d="m123.11 3.8963c-0.47994-0.9719-1.0719-0.71992-1.3559 0.08-0.31996 0.8759-1.2399 2.6237-1.9478 3.6556l0.19998 2.1718c0.9719-1.1559 1.7918-2.4557 2.3438-3.6116 0.55194 1.2559 1.3559 4.4587 1.1999 7.3372-0.15998 3.1317 1.5238 5.559 3.5396 7.5768 2.9637 2.9477 1.4399 7.3652-2.3837 10.187-4.6847 3.4556-8.2544 6.4905-7.8168 12.502 0.15999 2.2278-0.9879 4.1764-3.6116 5.6014-1.0719 0.56394-0.71993 1.1439 0.31997 0.81991 2.3838-0.74792 5.6438-2.3438 5.0935-6.5045-0.73193-5.5874 2.3158-7.2805 6.9985-10.935 4.5151-3.5276 7.3372-7.3652 3.2037-12.417-2.2158-2.7077-3.6956-3.6956-3.7796-6.8289-0.08-3.4556-0.66394-6.8997-2.0158-9.637"/>
   <path d="m216.41 17.158c8.1836 0.64792 18.159-1.6238 22.039-5.517 0.70394-0.70393 1.1159-0.80392 1.4799 0.31997 2.2718 7.0125-6.9137 17.101-19.965 18.724-1.8198 0.23998-1.9598-0.73192-0.19998-1.0999 12.84-2.7357 19.147-11.64 18.596-15.648-4.9947 4.1764-14.815 5.4322-21.955 4.7691-6.1094-0.57994-19.895 3.5276-26.498 15.422-1.6918 3.0637-3.1197 2.9757-1.3839-0.70392 4.5715-9.6654 16.889-17.157 27.881-16.283"/>
   <path d="m227.45 32.718c7.1537-3.4556 8.9879-5.4886 10.667-8.4095-1.6518 0.23998-4.2188 0.11999-5.0231 0l1.8918-1.4798c1.1439 0.08 2.8797 0.15998 4.3036 0 0.73193-0.08 1.1559 0.19998 0.95991 0.74792-1.1439 3.3717-3.1197 6.6597-11.852 10.695-9.609 4.4443-14.152 7.0265-12.417 12.797 2.7077 9.0023 2.4398 16.099-10.766 22.519l-2.8357 0.23997c13.574-7.6476 14.011-12.473 11.471-22.448-1.8478-7.2809 3.8796-9.9618 13.602-14.66"/>
   <path d="m77.088 92.646c-0.80391-0.27998-1.3839 0.77592-1.7358 1.6918-0.35996 0.91591-0.40796 2.2998 0.15999 2.5957 0.56395 0.31997 1.3839-0.70392 1.6638-1.6798 0.40797-1.3839 0.39997-2.4398-0.08-2.6117"/>
   <path d="m129.36 101.37c-0.70394-0.51994-1.7758 0.15999-2.4958 1.3279-0.71992 1.1719-0.9319 2.7797-0.47995 3.0757 0.64793 0.40797 1.7758-0.46795 2.4398-1.4958 0.66394-1.0319 1.1279-2.4837 0.53595-2.9077"/>
   <path d="m177.22 33.131c4.1904-5.4602 2.0318-13.997-0.9999-18.667-0.60794-0.93191-0.52395-1.4239 0.70393-1.4119 4.7267 0.01403 11.118 4.36 10.935 16.593-0.04 2.1998-1.0159 2.1598-1.1159 0.08-0.46394-9.5382-4.7547-14.293-8.24-14.646 1.9758 3.8676 5.6862 12.106 0.23998 19.429-2.6957 3.6116-8.4659 7.2101-14.42 8.198-6.1802 1.0319-9.0303 2.7797-11.175 5.8414-1.5358 2.1998-2.5678 2.0038-1.0599-0.9719 1.7358-3.3716 5.0939-6.053 11.739-6.9841 5.2491-0.74792 10.822-4.106 13.39-7.464"/>
   <path d="m194.5 26.554c-1.7758-5.1219-5.0371-9.0303-9.6226-7.3652l0.9719 1.9038c1.9198-0.8759 5.1359 0.93191 7.2241 6.8853z"/>
   <path d="m85.868 19.949c-1.3279-0.50796-1.7798 0.01403-1.3559 0.9319 3.3437 7.0689 0.60793 17.933-9.0583 23.902-5.9118 3.6676-5.785 6.1378-3.2037 11.725 1.8478 4.0072 3.0197 6.8429-3.4556 12.275-7.4216 6.2086-8.6491 7.8312 0.56394 18.78 0.11999-0.84792 0.19998-1.7078 0.53594-2.4398-6.7869-8.8187-4.5435-11.006 0.19998-14.998 4.1904-3.5396 6.9985-7.6616 4.12-14.237-1.8198-4.1056-2.1038-6.4197 2.1318-9.1287 8.226-5.2347 13.559-15.634 10.032-24.565 2.3278 1.0439 4.3036 3.4996 5.4886 8.226l0.9319-1.5958c-0.9879-4.5999-3.8236-7.69-6.9421-8.8751"/>
   <path d="m106.57 75.457c3.9076-1.8078 9.2135-3.2717 14.251-3.5276l-1.3119 2.0158c-3.7956 0.31997-9.0303 1.7798-12.332 3.0917z"/>
   <path d="m156.71 30.743c-0.90391-0.81991-1.2999-0.51994-1.4679 0.57994-0.87591 5.517-6.039 9.7922-12.431 11.246-10.864 2.4677-11.767 7.5628-11.189 15.873 0.57995 8.3107-1.0719 10.766-6.5749 11.514-8.198 1.0999-7.4924 4.6843-7.9016 11.104-0.50794 7.9436-1.9318 10.723-7.4216 13.136-5.4886 2.3998-8.226 4.0072-5.2771 10.949 1.7078 4.0352 0.39996 6.4901-1.4518 7.9576-3.6116 2.8797-1.8078 3.5836 2.1038 0.31997 2.4278-2.0318 2.7797-5.4182 1.2959-8.9315-1.4239-3.3597-2.3278-6.293 4.2472-8.8187 6.5893-2.5397 7.6052-6.4058 8.3248-14.617 0.64793-7.5628 1.9598-7.9864 6.4057-9.1291 7.8452-2.0318 7.9016-4.7691 8.1412-13.743 0.23998-9.3826 3.3717-11.852 9.7922-13.729 6.9137-2.0198 12.092-6.9561 13.221-11.146 1.6918 1.8638 2.1718 5.6718 0.08 10.399l2.1158-0.9439c2.0598-5.4746 0.42396-9.8062-2.0158-12.022"/>
   <path d="m129.16 39.727c-3.1317-1.1559-7.732-0.50796-11.514 2.2998l0.08 1.6078c4.0212-2.7677 7.1253-3.3157 9.5522-2.5677-3.9356 2.0318-9.665 6.6317-6.3917 12.685 2.1598 3.9796 1.3278 7.3089-4.8255 10.3-6.1518 2.9917-12.487 5.6298-10.469 11.88 0.9999 3.0597 0.74793 4.4019-3.3157 6.1378-3.5436 1.5238-6.3213 2.7357-5.4606 6.8005 1.0599 4.8823 1.1839 7.5064-3.7956 9.9334-5.3759 2.6237-6.3778 5.3335-6.1518 8.9739 0.27998 4.8679 2.0318 5.3051 1.6918 0.9719-0.27998-3.6396 1.4678-6.3494 5.1923-8.1556 8.3387-4.0776 4.9807-7.6756 4.7691-11.88-0.11999-2.1878 0.51994-3.4836 4.3316-4.9807 3.8236-1.4958 7.1821-3.4157 4.7411-8.3104-2.0038-3.9796 0.60794-5.503 9.2135-9.7218 8.4799-4.148 8.9315-7.0969 5.7286-12.544-1.5678-2.6797-1.5958-7.1533 7.0125-11.838 0.8879-0.49194 0.9319-1.0999-0.39996-1.5958"/>
   <path d="m198.32 80.149c8.7479-1.9198 14.251-6.4197 17.059-11.725-7.972 3.0757-15.817 2.4557-20.05-0.15999-1.5358-0.9439-1.1719-1.7918 0.69193-0.8759 5.1783 2.5397 14.533 1.7518 20.586-1.5078 1.4798-0.80392 1.8638-0.46396 1.3279 1.1279-2.5238 7.478-9.1007 12.811-18.992 14.886-4.6843 0.9879-9.0867 3.9076-10.243 5.799-1.1439 1.8918-1.2279 5.6722-1.4838 9.383-0.39996 6.0106-3.6116 9.0583-10.483 8.7479-8.24-0.35997-15.93 0.50795-25.2 11.711-3.5556 4.3176-3.8116 1.9318-0.15999-2.5797 7.6616-9.383 14.73-11.542 25.143-10.978 4.3176 0.23997 7.6616-1.3399 8.6351-7.1533 0.64794-3.9516 0.64794-7.8876 1.8918-9.863 1.9598-3.1597 5.6018-5.5874 11.26-6.8289"/>
  </g>
 </g>
</svg>
