<?xml version="1.0" encoding="UTF-8"?>
<!-- Created with Inkscape (http://www.inkscape.org/) -->
<svg version="1.1" viewBox="0 0 280.03 306.1" xmlns="http://www.w3.org/2000/svg">
 <g transform="translate(8.4164 10.594)">
  <path d="m253.71 226.02c-4.8662-1.1092-12.436-1.9642-18.341-3.6421-1.5246-0.41141-3.0734-0.88331-4.4964-1.577-1.2947-0.62517-2.178-1.7222-3.4001-2.4039-0.0806 1.7908-0.20167 3.63-0.6534 5.3784-0.36301 1.3512-5.0086 4.183-6.2323 3.7833-2.061-0.69778-11.511-4.4681-11.639-5.6918-0.0806-0.88329-0.8107-3.5977-0.8833-5.5632-2.1901 3.4445-7.1426 9.0068-8.1102 9.7324-0.75423 0.56871-9.5045 0.0806-10.415 0.0806-0.36301 0-3.755-3.3033-4.0838-4.3826-0.0806-0.32267 0.32266-0.95186 1.0083-1.7908-0.95186 0.242-2.0328 0.42753-2.1619 0.66954-0.16134 0.36299-0.484 3.872-0.66954 3.513-0.20166-0.36301-1.7666-3.5453-1.7666-3.271 0 0.28233-2.787 3.271-2.787 3.271s-1.1818-4.3399-1.3673-3.8841c-0.16133 0.45576-3.513 4.425-3.513 4.1547 0-0.28234 0.62517-9.192 0.28234-8.5656-0.363 0.6413-12.365 17.857-12.365 17.316 0-0.54047-0.8107-12.721-0.99623-12.45-0.12101 0.20166-1.7666 0.85506-2.7749 1.4076-0.20166 0.8107-0.41139 1.4076-0.59693 1.694-1.6214 2.4321-5.8338 6.6449-6.8155 6.8155-0.96801 0.16134-16.064-3.7268-17.359-5.0368-1.2947-1.2947-5.5495-10.145-4.5391-10.7 0.62517-0.36301 1.3794-0.86717 2.2183-1.5085-3.029-1.7061-14.726-9.7611-15.353-11.625-0.36301-1.0809 2.6902-9.263 3.7268-11.739-5.6914 0.0141-10.657-0.20168-11.525-0.76633-1.7626-1.1656-6.0044-17.203-6.0044-18.498 0-1.1374 3.7833-6.1182 5.2506-8.0534-1.9481-2.8758-2.787-7.8682-2.0772-12.279 6.4311-5.5354 15.907-6.8014 21.315-14.613 1.0527-1.5206 1.8352-3.2025 2.2183-5.1223-2.1336 0.54046-4.3112 0.86717-6.4884 0.95187-19.024 0.70987-30.506-11.554-36.283-13.005-7.4701-1.8634-10.871-0.242-11.597 4.4964-0.42753 2.7467-0.91153 13.617 2.2062 17.7 2.6902 3.5413 9.6328 10.871 10.088 17.402 0.8107 11.568-4.8803 18.825-14.599 18.882-10.472 0.0806-15.623-5.9762-16.434-14.855-4.1971 3.1016-9.2343 3.868-13.617 1.3391 6.9152 11.924 10.458 25.669 6.6022 39.143-4.1551 14.556-19.095 27.675-30.99 36.425-4.1124-2.8879-16.819 2.4603-15.296 10.686-1.1818 0.88331-2.3353 1.7908-3.4001 2.7749-5.6632 5.1651-8.5942 14.983-1.4802 20.304 2.1498 1.6214 5.0655 2.787 7.6549 3.4566 10.842 2.8032 27.248-6.6736 39.172 1.2665 11.91 7.9396 14.613 15.339 35.728 16.064 27.063 0.92363 40.623-17.686 53.799-16.064 13.176 1.6214 22.609 7.214 35.557 4.6956 12.991-2.5329 13.901-9.3908 24.9-9.5618 11.013-0.20167 18.127 4.2971 31.958 0.8954 11.013-2.7023 13.901-12.279 22.012-15.168 8.1248-2.8758 21.486-7.214 21.13-17.501-0.363-10.415-8.011-13.233-15.709-14.983" fill="#e50044"/>
  <path d="m145.05 87.4c-1.7061-2.5491-3.6582-4.909-5.791-7.1144-7.3992-7.6407-17.331-13.233-29.482-16.804-5.7342-1.694-11.952-2.9322-18.654-3.7147-10.302-7.8682-18.569-28.016-11.184-33.921 2.1619-1.7343 4.8662-2.0207 7.7408-1.1939-8.3809-5.6346-22.496-4.909-25.512 6.0185-0.70987 2.5773-0.5687 6.7304-0.242 9.3908l-0.02862 0.04038c-3.0855-2.7749-6.4457-4.7666-9.8462-5.8766-4.4395-3.9849-20.731-8.1957-31.005 2.6176-11.368 11.966-4.8235 36.81-3.2428 53.429 0.51224 5.5063-10.358 25-9.7465 37.364 0.484 9.9176 7.4842 13.133 13.531 15.837 3.0169 1.3512 5.3784 3.2872 6.4316 6.488 0.83894 2.5168 0.85506 5.5636 2.6055 7.7121 2.0046 2.4321 5.7201 3.5574 8.2954 0.6413 1.9925 2.2909 4.3112 7.2568 9.1916 7.0434 1.9925-0.0806 5.9762-1.936 7.5839-3.1299 0.8107 8.8786 5.9621 14.94 16.434 14.869 9.7042-0.0806 15.623-7.1003 14.827-18.668-0.42753-6.2041-7.7549-14.257-10.316-17.615-3.1178-4.0979-2.6338-14.969-2.2062-17.701 0.726-4.738 4.1265-6.3743 11.597-4.4964 5.7765 1.4359 17.259 13.702 36.283 12.991 2.178-0.0806 4.354-0.40333 6.4739-0.93977 11.938-3.029 22.211-12.905 22.168-25.896-0.0141-5.3498-1.7787-11.24-5.9048-17.387" fill="#e50044"/>
  <path d="m260.2 155.72c-0.16133-1.5367-2.5773-5.2933-2.662-5.3643 0.0141-0.12101-12.023 8.4946-12.863 9.6042-0.54047 0.726-1.9763 10.558-1.9763 11.739 0 1.2221 4.283 4.9654 5.0941 5.6769 1.3794 1.21 6.5594-1.7626 7.2709-3.4283 1.2665-3.0169 5.3071-16.477 5.1364-18.227" fill="#2f8097"/>
  <path d="m109.76 56.247h-0.0404 0.0404c-2.3635-20.76-20.532-37.834-29.838-30.393-7.3705 5.9052 0.8954 26.053 11.198 33.907 6.6873 0.7986 12.92 2.0328 18.654 3.7147 0.28233-2.3918 0.24199-4.8093-0.0142-7.2281" fill="#fff362"/>
  <path d="m153.17 154.59c0.6534-0.82684 1.3512-3.513 1.2221-4.4681-0.12101-0.95186-10.287-6.3602-11.924-5.9617-1.1253 0.28233-2.787 3.1863-2.9605 4.9941 0.92364 1.6375 2.1054 4.0253 3.3154 6.659 2.2062-0.242 9.832-0.58484 10.344-1.2221" fill="#2f8097"/>
  <path d="m62.246 121.26c-7.285 3.2872-15.281 18.639-7.4129 29.468 3.0613-5.8479 7.8541-8.0961 8.9923-13.332 0.83894-3.9002 1.1253-11.91-1.5811-16.135" fill="#e50044"/>
  <path d="m125.86 166.37c6.6018-3.6703 8.153-20.731-1.1818-28.458-6.2464 7.143-12.977 6.7445-19.423 12.279-1.6779 10.486 6.7587 23.876 20.603 16.178" fill="#e50044"/>
  <g fill="#2f8097">
   <path d="m109.77 63.476c12.151 3.5695 22.083 9.1774 29.482 16.804 0.9801-1.5528 3.4445-9.3198 2.662-10.515-1.5367-2.3635-15.139-12.379-19.607-13.047-0.32267-0.04038-8.9496-1.0406-12.521-0.4719h-0.0286c0.28233 2.42 0.28233 4.838 0.0145 7.2285"/>
   <path d="m138.1 147.06c-0.86716-0.70987-6.6167-1.3512-7.84-1.3391 2.904 6.4743 0.20166 18.213-4.4112 20.76-7.3988 4.1261-17.587 1.1535-18.142-4.6815-1.4802 1.936-5.6346 7.8118-5.6346 8.95 0 1.2947 4.2402 17.33 6.0044 18.497 2.2345 1.4641 27.49 1.3673 30.677-0.484 2.2466-1.3229 9.1065-11.099 9.7324-17.373 0.32268-3.4283-8.6083-22.88-10.387-24.331"/>
   <path d="m122.3 56.713c4.4677 0.68163 18.085 10.686 19.607 13.047 0.78246 1.1939-1.6779 8.9641-2.662 10.529 2.1336 2.2062 4.0838 4.5673 5.791 7.1144 4.1265 6.1468 5.8907 12.037 5.9052 17.387 2.1619-3.0895 10.486-12.08 11.426-12.607 0.95186-0.54047 10.558 1.21 11.781 2.7023 1.2221 1.4923 12.521 17.217 12.863 20.176 0.32266 2.8032-0.43963 11.767-1.2947 21.016 2.303-4.3112 9.1488-16.149 10.401-16.818 1.3673-0.72601 15.154-3.5009 16.164-2.8879 3.1581 1.9078 14.67 20.674 14.47 20.973 0.16132 0.363 1.0245 2.9322 1.0971 3.6139 3.997 3.0573 18.398-6.0327 27.874-8.4801-0.24201-6.5026-1.2221-15.097-3.1299-23.079-0.7381-3.029-1.5528-5.7624-2.4039-7.8969-0.0806 0.16133-9.3767 3.5574-12.308 2.8879-1.0527-0.24201-5.7483-4.667-4.6811-7.4697 0.75423-1.9481 5.3216-14.983 2.5047-23.321-2.0772-3.3275-12.905-11.155-12.905-11.155 0.484 2.4603-0.46786 5.0368-1.9481 8.3522-1.9763 4.4536-17.701 6.2319-20.034 8.1102-0.56869 0.46787-0.16134 2.42 0.0404 4.667 0.61306-0.01407 5.8052-0.6534 6.8583 0.16134 1.0971 0.8107 6.5449 8.1816 7.5839 10.97 0.61306 1.6214-0.88331 8.0534-1.4238 10.017-0.54047 1.9642-10.487 8.2526-11.981 7.8541-3.4001-0.92364-7.0999-4.2685-7.0289-5.6914 0.0286-0.72599-0.78246-12.223-2.6741-16.32-1.3229 0.968-4.0979 4.3681-5.1078 5.2219-1.6658 1.4076-4.4113-0.42753-4.4113-2.6902 0-2.2466 4.0838-5.2078 4.8093-8.8221-0.73809-4.2398-11.553-12.806-14.684-13.944 1.21-1.1535 3.6139-0.73809 3.6582-1.5085 0.0283-0.6413-0.24199-1.7343-0.75423-3.0895-1.5932 0.52836-6.0048 1.21-7.2427 0.4719-1.1939-0.70987-11.909-12.322-13.944-14.343-1.9481-1.9642-17.885-2.662-22.054-1.8634-0.16133 0.02862-5.948 2.6902-8.9786 4.7097-0.98009 0.66953-1.5085 1.9763-1.1818 2.0207"/>
   <path d="m233.82 71.757c0.62516 0.59693 1.9642 1.9199 1.8916 1.8513 2.8032 8.3377-1.7626 21.357-2.5047 23.307-1.0809 2.8032 3.6139 7.2422 4.667 7.4842 2.4603 0.5566 10.259-0.9801 12.308-3.0169-0.0806-0.16134 1.3673-6.4884 1.3673-7.9965 0-2.3353-9.6042-18.412-12.009-20.418-0.968-0.8107-5.0514-1.2947-5.7201-1.21"/>
   <path d="m159.52 113.63c-0.20167-2.5168-5.8483-6.6308-8.5801-8.4518-0.16132 12.806-10.344 22.51-22.154 25.498-0.40333 1.9078-2.3918 6.1613-3.4445 7.6835 2.2345 2.904 3.7994 4.6815 4.9086 8.0251 1.2221-0.0141 6.972-0.0404 7.8545 0.66953 0.28233 0.242 0.78246 0.99623 1.4076 2.0933 0.16133-1.7908 1.8352-4.6956 2.9605-4.98 1.0527-0.28233 5.7342 1.936 8.8927 3.7712 1.9199-5.0227 8.7652-26.679 8.1534-34.305"/>
   <path d="m195.92 178.72c-1.0245-0.82684-7.5556-5.4781-8.8221-7.0148-1.0245 0.99623-3.4001 1.6779-4.1402 1.9763-0.91153 0.363-6.9579 0.0806-7.6694-0.0806-0.72601-0.16132-3.4445-2.5168-2.8032-4.8662 0.20167-0.69777 9.2057-8.0392 10.472-9.0351 0.0806-0.0404 0.43963-0.0141 0.93977 0.12101-0.16134-3.0734 3.4283-41.932 3.1178-44.749-0.32266-2.9605-11.639-18.682-12.863-20.176-1.21-1.4802-10.828-3.2428-11.781-2.7023-0.92363 0.54048-9.263 9.5191-11.412 12.607 0 0.12101 8.3668 6.3178 8.566 8.8504 0.61307 7.6125-6.2323 29.283-8.1534 34.306 1.7061 0.9801 2.9726 1.8513 3.0169 2.178 0.16133 0.95187-0.5566 3.6421-1.2221 4.4681-0.51223 0.6534-8.1385 0.968-10.344 1.2382 2.8596 6.2319 5.8479 13.773 5.6628 15.566-0.32267 3.4162-4.041 10.045-6.8865 14.072 1.2826 1.6658 5.8907 9.6897 6.8296 12.109 0.28234-0.24199 0.55661-0.45576 0.77038-0.61306 2.7588-1.9481 10.657 4.1261 11.298 5.4212 0.56869 1.1253-0.88331 14.684-2.1498 19.721 0.99624-0.54047 2.6338-1.1939 2.7749-1.4076 0.16134-0.28234 0.9801 11.91 0.9801 12.464 0 0.54046 12.464-16.704 12.82-17.33 0.363-0.6413-0.726 8.2954-0.726 8.5656 0 0.28233 3.3436-3.6986 3.5292-4.1406 0.16134-0.45577 1.3512 3.872 1.3512 3.872s2.9726-3.2428 2.9726-3.513c0-0.28234 1.3512 2.1619 1.5367 2.5329 0.20166 0.363 0.54046-2.178 0.72599-2.5329 0.12101-0.24201 1.21-0.42754 2.1498-0.6534 2.2062-2.6459 7.3705-7.3705 9.1916-10.715 0.98011-1.8231 0.242-30.478 0.28233-30.52"/>
   <path d="m141.59 185.46c-1.21 1.7061-2.2627 2.9605-2.8475 3.2872-1.1374 0.68163-10.899 1.21-19.138 1.2503-1.0406 2.4765-4.0696 10.657-3.7147 11.739 0.62517 1.8634 12.308 9.9317 15.338 11.639 5.2788-4.0253 13.802-12.948 17.188-15.808-0.93977-2.42-5.5491-10.444-6.8296-12.108"/>
   <path d="m200.14 89.542c-1.21 2.061-6.5449 0.6534-7.4415 0.73809-0.12101 0.01407-0.28233 0.12101-0.51224 0.28233 1.9078 4.0979 2.7023 15.595 2.6741 16.32-0.0806 1.4238 3.6421 4.7525 7.0434 5.6773 1.4802 0.4114 11.44-5.8766 11.98-7.84 0.54046-1.9642 2.0207-8.395 1.4238-10.017-1.0527-2.787-6.5026-10.159-7.5839-10.97-1.0688-0.79861-6.2464-0.16134-6.8583-0.16134 0.20166 2.0489 0.24199 4.3257-0.72601 5.9621"/>
   <path d="m154.52 51.841c2.0328 2.0328 12.749 13.631 13.944 14.343 1.2382 0.73811 5.6346 0.08063 7.2423-0.4719-1.4923-4.1261-4.8803-10.671-6.9293-14.414 0.45577 0.28233 3.146 2.2748 4.7666 2.9161 0-0.363-1.0809-2.5773-1.4238-4.4677 1.8916 1.4802 5.3498 3.3719 6.8583 3.3598 0.12101 0-1.3673-4.2685-3.9688-6.9434-0.6413-0.04038-2.2627-2.0651-2.9161-2.5491-2.8032-2.1215-5.3502-3.2589-8.0961-3.7429-4.1975-0.73811-25.626 1.7787-28.5 4.1834-0.59693 0.51223-3.6421 5.8762-3.5292 5.8907 0 0 20.589-0.08063 22.553 1.8916"/>
   <path d="m179.76 53.627c0.93978 0.76633 2.3756 2.0328 2.5612 1.3794 0.484-1.6496 0.0806-4.6674-0.62517-8.2671h-0.0145c-1.1818-0.16132-3.4727-0.40333-3.5009-0.40333-0.51224-0.04038-2.662-0.16134-3.146-0.20166 2.5773 2.6741 4.1265 5.5208 4.7238 7.456"/>
   <path d="m160.5 202.39c-0.6413-1.2947-8.5374-7.3705-11.298-5.4212-0.20166 0.16134-19.536 17.558-20.176 17.914-1.0124 0.55659 3.2428 9.4053 4.5391 10.715 1.2947 1.2947 16.391 5.1792 17.359 5.0227 0.9801-0.16134 5.5063-4.1975 6.8155-6.8155 1.2382-2.4321 3.3154-20.29 2.7588-21.414"/>
   <path d="m222.48 210.14c-4.5105-0.6534-12.379 1.819-13.631 4.0406-0.79859 1.4238-0.0404 6.4743 0.0806 7.698 0.12101 1.21 9.5618 4.9941 11.639 5.6773 1.21 0.4114 5.8624-2.4321 6.2182-3.7833 0.28234-1.0245 0.75423-8.153 0.5687-9.3485-0.16133-1.0809-4.0979-4.1688-4.8948-4.2826"/>
  </g>
  <path d="m190.83 231.51c-2.6902 2.6015-1.7505 9.6897 1.3229 11.753 1.8069 1.1939 7.2987-2.4603 7.6545-4.0837 0.28233-1.21 0.78247-5.8338-1.9642-7.6976-2.7467-1.8513-5.8903-1.0527-7.0144 0.0286" fill="#e50044"/>
  <g fill="#2f8097">
   <path d="m204.95 178.93c0.20167 0.28234 0.40333 0.968 0.62516 1.8916 4.1265-1.9763 15.765-12.123 16.989-15.353 0.99624-2.6176 0.28233-21.841 0.8107-22.752 0.93977-1.5367 2.6459-4.2402 3.388-5.3784-3.0169-7.0862-11.326-19.052-14.485-20.973-1.0124-0.59693-14.798 2.178-16.149 2.8879-1.2665 0.68163-8.1102 12.507-10.415 16.818-0.93977 10.174-1.9763 20.66-1.8231 23.733 1.2503 0.36301 3.4283 1.2826 4.6529 2.5047 1.0809 1.0809-0.54047 7.3991-0.99624 8.7507-0.0806 0.242-0.242 0.43964-0.43964 0.6413 1.2503 1.5367 7.7831 6.2041 8.8076 7.0148 0.69777-0.86716 8.4518-0.70986 9.0351 0.20167"/>
   <path d="m222.48 210.14c0.56869 0.0806 2.2344 0.68163 3.0169 1.2221 0.20166-0.16132 0.363-0.28233 0.54046-0.45576 7.356-6.0048 13.645-13.318 18.895-21.728 2.2062-3.6864 4.5678-8.4232 6.2609-12.35-0.70986 0.16134-2.0328 0.4114-2.549 0.45577-0.89541 0.0806-5.9476-4.6101-5.9476-5.5918 0-1.1656 1.4359-11.013 1.9763-11.739 0.83894-1.1092 10.828-7.3846 12.891-9.9317 0.4114-4.2971 1.0527-14.698-1.0245-17.729-0.0283-0.0404-19.365 7.8968-23.591 8.8931-2.3635 0.5566-5.0941-0.12101-5.1082-0.242-0.66952-0.51224-0.92363-3.2428-1.0809-3.6139-0.73809 1.1374-2.4482 3.8276-3.388 5.3784-0.54046 0.89541 0.20167 20.119-0.8107 22.737-1.2221 3.2307-12.863 13.389-16.989 15.353 1.6214 6.8014 3.8115 28.329 3.5574 32.854 2.545-2.0046 9.419-4.0979 13.346-3.5292"/>
   <path d="m204.95 178.93c-0.82684-1.3108-9.021-1.0245-9.106-0.0806-0.0404 0.62516 0.968 29.083-0.0286 30.89-1.8231 3.3436-10.458 11.71-10.373 12.023 0.32266 1.0809 3.7268 4.3685 4.0979 4.3685 0.8954 0 9.6469 0.4961 10.415-0.0806 1.1939-0.91153 8.395-9.1061 9.0919-11.71 1.0971-4.0551-3.146-33.893-4.0979-35.401"/>
   <path d="m182.95 159.69c-1.2665 0.99622-10.287 8.3236-10.473 9.021-0.62517 2.3474 2.0772 4.6952 2.8032 4.8803 0.726 0.16134 6.7586 0.45577 7.6694 0.0806 0.75423-0.28233 4.0979-2.0368 4.1547-1.9642 0.20167-0.20167 2.5168-8.3236 1.4359-9.4049-1.2221-1.2221-5.5067-2.6902-5.5918-2.6176"/>
  </g>
  <path d="m218.44 25.503s0.93977-5.2219 1.1092-6.0331c-1.3512 0.95187-2.7749 2.3192-3.5009 3.1299 2.5894-9.8889 10.088-29.169 10.757-31.616-8.6652 3.9849-19.564 14.499-23.89 20.247-0.363-1.7222-1.1253-7.5411-1.2221-8.8076-5.6769 6.5025-13.403 18.682-16.306 27.006-0.36299-0.36299-1.4238-1.3512-2.3756-2.0207-0.54047 1.5488-0.73809 2.4321-0.61306 3.0452-2.0046-1.3673-4.3254-4.0132-5.0655-6.3743 0.0806 7.5839 2.7749 15.225 4.3398 22.595 0.0141 0.02825 0.0141 0.04038 0.0141 0.04038 0.72599 3.6139 1.0688 6.1468 0.58483 7.7972-0.20166 0.6534-8.2526-3.2993-10.159-4.7807 0.32266 1.8916 1.4238 4.0979 1.4238 4.4677-1.6214-0.6413-4.6528-1.9925-5.1082-2.2627 2.0489 3.7429 5.7769 9.6328 7.2854 13.759 0.484 1.3512 0.76634 2.4482 0.7381 3.1016-0.0404 0.77037-2.4321 0.363-3.6582 1.5085 3.1299 1.1253 13.944 9.6897 14.684 13.944-0.726 3.5977-4.8094 6.5594-4.8094 8.8217 0 2.2466 2.7467 4.0979 4.4108 2.6741 1.0083-0.85508 3.7833-4.2544 5.1082-5.222 0.20167-0.16134 0.40334-0.242 0.51223-0.242 0.89541-0.08063 6.2178 1.3229 7.4415-0.73809 0.96799-1.6496 0.91153-3.9285 0.72599-5.9621-0.24199-2.2466-0.0806-4.3681 0.4961-4.8376 2.3353-1.8916 17.501-3.4848 19.493-7.9537 2.0207-4.5532 1.5932-8.7507-0.70987-13.076-2.4886-4.6811-5.4067-8.9068-4.2398-14.499 1.0809-5.0937 3.9285-9.832 6.1323-14.499 1.0809-2.2748 2.1498-4.8093 2.4603-7.3419-0.43963 0.20166-6.0613 4.1265-6.0613 4.1265" fill="#e50020"/>
  <path d="m37.829 35.326c9.5614-5.464 22.851 0.02825 30.862 12.991 7.9255 12.82 7.4988 31.061-2.5612 36.283-10.387 5.3784-24.516-1.6214-31.417-14.072-6.6022-11.938-7.1572-29.326 3.1178-35.202" fill="#fff362"/>
  <path d="m222.04 28.722c1.0809-2.2748 2.1498-4.8093 2.4603-7.3423-0.43963 0.20166-5.9476 4.0551-5.9476 4.0551l0.99624-6.0472s-5.0941 5.1937-6.6736 6.659c0-2.8314-2.1054-7.8969-3.146-8.9354-0.20167 3.4727-1.0406 9.2484-2.3192 10.344-0.4961-0.76633-1.21-2.0207-1.7061-2.9443-1.6658 2.0651-3.1016 12.422-3.3719 16.406-0.8833-0.20166-3.3154-3.4848-3.9123-5.1223-0.86717 5.4353-5.0368 11.838 3.0008 22.154-2.2909 2.5168-0.16134 6.3174 1.4802 8.8076-6.9293-0.78247-10.999-11.924-12.45-19.294-1.3794 4.1265-1.3794 7.8686-0.77036 12.166 0.51223 3.63 2.8435 5.9189 2.178 10.8-0.95186-0.89539-2.0046-2.6338-2.9322-4.8948-1.3673 13.617 2.7184 14.186 1.9199 21.542-0.16134 1.5367-4.2971 5.8338-7.8686 8.5087 0.92363 0.70987 3.1863 0.95186 4.0979 0.20166 1.0083-0.85506 3.7833-4.2544 5.1082-5.2215 0.20166-0.16134 0.40333-0.242 0.51224-0.242 0.89539-0.08063 6.2178 1.3229 7.4415-0.75423 0.968-1.6375 0.91153-3.9123 0.726-5.9476-0.242-2.2466-0.5566-3.4848 0.83893-5.0513 1.3955-1.5649 17.16-3.2872 19.152-7.7404 2.0207-4.5532 1.5932-8.7648-0.70986-13.076-2.4886-4.6815-5.4067-8.9213-4.2402-14.499 1.0809-5.1082 3.9285-9.832 6.1327-14.499" fill="#efe908"/>
  <g fill="#c6003a">
   <path d="m55.694 159.12c-0.28233 13.104 8.2098 18.042 16.434 17.985 6.8442-0.0404 15.424-5.5495 14.599-17.544-0.24199-3.6139-0.95186-7.043-2.904-9.3767 0.02825 21.628-22.808 17.686-28.13 8.9358"/>
   <path d="m23.32 94.279c2.9443-9.2488-7.1003-20.063-9.1774-42.458-1.3955 12.849 3.0855 32.555 3.6582 38.474 0.45577 4.8521-4.4964 15.623-7.1426 22.837 5.2215-9.3767 10.6-12.365 12.663-18.853"/>
   <path d="m92.647 115.39c-8.324-3.7712-16.975-0.40333-17.53 4.2967 3.5695-2.6741 9.0496-1.5206 10.899-1.0527 5.7769 1.4359 17.274 13.702 36.283 12.991 2.1901-0.0806 4.3685-0.40333 6.4884-0.93977 11.269-2.8596 21.058-11.824 22.069-23.762-7.1712 15.211-24.715 23.662-58.209 8.4664"/>
  </g>
  <path d="m243.45 165.37c-0.28234 2.0489-0.75423 5.862-0.75423 6.3174 0 1.2382 4.2971 4.98 5.1082 5.6914 1.3794 1.21 6.5594-1.7626 7.2568-3.4283 0.0806-0.20167 1.3229-2.787 1.4238-3.029-2.8193 1.3794-12.692-0.24201-13.034-5.5491" fill="#ec6d45"/>
  <path d="m62.246 121.26c-12.009 5.4208-13.389 23.065-5.4353 30.492 3.0613-5.8479 5.8766-9.1206 7.0148-14.357 0.83894-3.9002 1.1253-11.91-1.5811-16.135" fill="#c6003a"/>
  <path d="m107.91 148.45c-2.2748 1.2382-0.99624 0.54047-2.662 1.9642-1.6779 10.501 6.5308 23.648 20.375 15.965 1.8231-1.0245 3.3275-4.212 4.4108-5.6918-9.2625 0.66954-19.308-3.6139-22.126-12.236" fill="#c6003a"/>
  <g fill="#ec6d45">
   <path d="m115.32 181.56c-3.5413-0.0806-7.1999-7.2854-8.6797-17.53-1.5649 2.0207-4.5532 5.6346-4.5532 6.7159 0 1.2947 4.2261 17.331 6.0044 18.498 2.2183 1.4641 27.476 1.3673 30.663-0.484 0.363-0.20166 5.2788-5.6487 7.9824-10.458-6.1186 0.36299-25.043 1.9763-31.417 3.2589"/>
   <path d="m220.25 110.84c-2.0207-1.5085-7.4274-2.178-9.8179-2.8153-3.2025 2.3313-7.5694 4.7807-8.5228 4.5246-2.0772-0.55659-4.2544-2.0207-5.6204-3.388-3.4848 1.4802-6.6873 3.872-9.2057 7.1571 0.0806 3.6986-0.61308 11.61-1.3673 19.749 2.303-4.3112 9.1492-16.135 10.415-16.818 1.3512-0.70987 15.14-3.4848 16.15-2.8879 3.1581 1.9199 14.67 20.674 14.484 20.987 0.16134 0.363 1.0245 2.9322 1.0809 3.6139 1.7908 1.3673 5.6773 0.28234 10.259-1.5246-5.2506-10.814-11.241-20.66-17.857-28.6"/>
   <path d="m233.21 96.918c-1.0688 2.8032 3.63 7.2423 4.667 7.4697 2.4038 0.55659 9.8748-0.89541 12.137-2.8758-9.5901-0.32266-10.586-6.73-16.022-6.8583-0.36301 1.0971-0.6413 1.8795-0.78247 2.2627"/>
   <path d="m155.43 117.51c0 10.23-7.0716 20.447-8.395 21.499-4.667 2.42-16.363-0.12101-22.354-1.0971 2.904 2.4482 5.2933 5.7483 5.8056 8.0251 1.2221-0.0146 6.7441 0.40333 7.6266 1.1092 0.28233 0.24199 0.78247 1.0124 1.4076 2.1054 0.16134-1.8069 1.8352-4.7097 2.9605-4.9941 1.0527-0.242 5.7342 1.9481 8.8927 3.7712 2.9605-7.7545 7.3136-20.788 8.5087-34.874-1.2221-0.41141-4.4536 3.7994-4.4536 4.4536"/>
   <path d="m162.59 101.7c1.3108-0.99623 6.417-1.0406 8.9641 1.5085 5.051 5.0368 10.131 11.582 15.495 15.78 0.0286-0.75424-0.0141-3.6865-0.0404-3.9285-0.32266-2.9605-11.639-18.682-12.849-20.176-1.2221-1.4802-10.842-3.2428-11.781-2.7023-0.93977 0.54047-9.263 9.5191-11.426 12.607 0 0.0806 2.9443 2.2909 5.3926 4.6101 1.2503-2.303 4.2544-6.1896 6.2464-7.6976"/>
   <path d="m160.66 206.9c-0.40333 2.8596-1.8916 13.489-2.3353 15.196 1.0083-0.54047 2.6459-1.1939 2.787-1.3955 0.16134-0.28233 0.9801 11.91 0.9801 12.45 0 0.54047 12.009-16.562 12.365-17.203 0.363-0.62516-0.28233 8.1675-0.28233 8.4377 0 0.28233 3.3436-3.6865 3.5292-4.1406 0.16132-0.45576 1.3512 3.872 1.3512 3.872s2.6176-2.8032 2.6176-3.0734c0-0.28233 1.7061 2.6741 1.8795 3.029 0.20168 0.36301 0.55661-3.1016 0.73811-3.4727 0.12101-0.242 1.21-0.42753 2.1498-0.6534 1.0809-1.2947 6.9438-7.598 8.6938-9.4763 4.7521-10.998-32.413-20.219-34.491-3.5695"/>
   <path d="m118.16 193.76c-1.1939 3.271-2.5047 7.2564-2.2627 7.982 0.61306 1.8634 12.308 9.9317 15.338 11.639 1.5488-1.1939 3.4001-2.8193 5.3075-4.5819-5.3075-7.1995-8.5801-16.078-18.384-15.04"/>
   <path d="m205.83 99.971c-2.9161 0.24199-8.2812 2.7023-11.127 4.2685 0.12101 1.4358 0.16134 2.4321 0.16134 2.6338-0.0806 1.4238 3.63 4.7525 7.0289 5.6773 1.4964 0.41139 11.44-5.8766 11.981-7.84 0.12101-0.40333 0.24201-0.92363 0.40333-1.5649-3.6139-1.1939-4.8234-3.4566-8.4518-3.1742"/>
   <path d="m133.24 211.22c-2.3353 2.0772-4.041 3.5574-4.212 3.6582-1.0083 0.55659 3.2428 9.4053 4.5391 10.714 1.2947 1.2947 16.391 5.1937 17.359 5.0227 0.968-0.16134 5.4922-4.1975 6.8155-6.8155 0.32266-0.6534-1.8634-5.3643-4.2116-7.0007-7.3423-2.7306-11.326-1.8069-20.29-5.5773"/>
   <path d="m226.1 224.86c0.62516-0.93977 1.3229-3.388 1.4238-3.9406 0.82683-4.6815-10.714-4.8662-13.389-3.7712-2.6741 1.0971-5.3216 3.513-5.1796 4.7238 0.0806 0.8107 10.7 5.9762 12.578 5.8197 1.8916-0.16133 3.9406-1.8916 4.5673-2.8314"/>
  </g>
  <path d="m189.21 238.34c0.0141 0.16134 0.0282 0.28234 0.0806 0.40334 0.484 1.2947 1.9078 3.872 2.8758 4.525 1.6779 1.1092 8.9923-2.7185 7.911-5.9762-3.8276 2.3756-7.4133 3.7147-10.857 1.0527" fill="#c6003a"/>
  <path d="m228.75 197.39c-11.283 8.5515-19.052 5.8193-19.621 16.277 2.545-2.0046 9.4194-4.0979 13.347-3.5292 0.56869 0.0806 3.5009 1.1253 3.6703 0.96799 7.3564-6.0044 14.03-13.261 19.28-21.67 2.2062-3.6865 4.2826-8.3522 5.9758-12.279-1.8513 1.2665-4.9513-1.0527-5.4636-1.0083-0.75423 4.1975-7.1285 13.631-17.188 21.244" fill="#ec6d45"/>
  <path d="m175.52 165.83c-1.6658 1.4359-2.9726 2.6176-3.0452 2.8879-0.62517 2.3474 2.0772 4.6811 2.8032 4.8662 0.726 0.20167 6.7728 0.45577 7.669 0.0806 0.75424-0.32266 4.1124-2.0328 4.1547-1.9763 0.0404-0.0404 0.20166-0.54047 0.42753-1.2826-4.6811 0.0404-9.3198-1.4076-12.009-4.5956" fill="#ec6d45"/>
  <g fill="#c6003a">
   <path d="m264.34 230.29c6.019 11.44-3.0855 16.349-18.767 22.538-4.1406 1.6214-6.7445 3.8841-9.7752 9.1347-3.997 6.9152-12.592 10.088-29.34 5.6773-12.052-3.1742-17.359-2.5329-24.658 4.041-7.6121 6.8438-19.536 6.9861-32.328 2.8596-8.0675-2.6015-16.833-5.3926-24.046-3.9406-7.0862 1.4076-12.678 6.0185-18.953 10.287-16.89 11.511-39.015 9.5049-49.047-1.7505-7.4274-8.3381-11.568-14.755-36.781-9.092-14.343 3.2307-29.354 0.40334-24.943-13.404-3.1863 5.2788-3.7429 12.137 1.8069 16.278 2.1498 1.6214 5.0513 2.787 7.6553 3.4566 10.842 2.8032 27.248-6.6731 39.157 1.2665 11.924 7.9396 14.627 15.353 35.743 16.064 27.063 0.92364 40.609-17.687 53.784-16.064 13.176 1.6214 22.623 7.214 35.557 4.6956 13.005-2.5329 13.901-9.3912 24.914-9.5618 11.013-0.20167 18.127 4.2971 31.944 0.89539 11.013-2.7023 13.901-12.279 22.026-15.168 8.1243-2.8758 21.485-7.2136 21.115-17.501-0.20167-5.1937-2.1619-8.4946-5.0655-10.714"/>
   <path d="m121.66 140.66c1.936-1.4238 3.63-3.0169 4.9086-4.8662 1.0527-1.5246 1.8352-3.2025 2.2183-5.1223-2.1336 0.54046-4.3112 0.86716-6.488 0.95187-19.024 0.70987-30.507-11.553-36.283-13.005-7.4697-1.8634-10.871-0.24201-11.596 4.5105-0.42753 2.7306-0.89541 13.603 2.2183 17.701 1.452 1.9078 3.6421 4.7238 6.2892 7.1285 11.027-13.688 40.808-13.119 38.73-7.2991"/>
   <path d="m161.11 220.7c-0.12101 0.20166-1.7626 0.86716-2.7749 1.4076-0.20166 0.8107-0.41139 1.4076-0.59693 1.694-0.78246 1.1656-2.1336 2.7306-3.4566 4.0696 2.5047 1.2947 5.0796 2.4482 7.7258 3.4727-0.24201-3.5292-0.75424-10.857-0.89541-10.643"/>
   <path d="m188.96 236.97c0.32266-2.8878 1.8916-6.2182 3.0734-6.2041 1.8513 0.0146 3.8841-0.73809 6.0185 0.58484 2.1336 1.3068 2.1336 3.9688 2.2345 5.4781 14.357-1.0809 28.401-5.5349 40.054-13.261-1.7222-0.363-3.4001-0.73809-4.9658-1.1939-1.5367-0.4114-3.0734-0.88329-4.5105-1.5649-1.2786-0.62516-2.1619-1.7343-3.4001-2.42-0.0806 1.7908-0.20168 3.6421-0.6534 5.3784-0.363 1.3512-5.0086 4.1975-6.2178 3.7833-2.0772-0.68163-11.511-4.4681-11.654-5.6773-0.0806-0.89539-0.8107-3.6139-0.88331-5.5777-2.1901 3.4566-7.1285 9.0068-8.1102 9.7324-0.75424 0.5687-9.505 0.0806-10.401 0.0806-0.363 0-3.755-3.2872-4.0979-4.3826-0.0806-0.32266 0.32267-0.93977 1.0124-1.7787-0.93977 0.242-2.0328 0.4114-2.1498 0.6534-0.20167 0.36301-0.6413 3.8276-0.8107 3.4727-0.20167-0.36301-1.8916-3.3154-1.8916-3.0452 0 0.28233-2.5329 3.0855-2.5329 3.0855s-1.1818-4.3258-1.3512-3.872c-0.20166 0.43963-3.5292 4.4108-3.5292 4.1406 0-0.28234 0.72601-9.2343 0.363-8.6084-0.28233 0.52434-8.2098 12.052-11.298 16.036 8.1675 3.0169 16.904 4.7238 25.711 5.151"/>
   <path d="m58.371 168.05c-1.7222-2.3635-2.4039-2.8596-2.6741-5.8056-2.7023 1.9925-8.9782 3.3436-12.066 1.5649 1.5649 2.6902 1.7222 3.9688 2.8596 6.9434 4.6952 2.0651 9.8744-0.24201 11.881-2.7023"/>
   <path d="m80.315 25.066c-14.072 4.1689-1.1253 33.452 1.5649 34.049 2.9443 0.6413 5.7338 0.43963 8.4232 0.43963-7.598-8.2667-18.668-23.719-9.9885-34.49"/>
   <path d="m106.59 232.35c-1.7908 4.6242-7.8118 8.708-17.857 8.4801 2.8032 2.8193 10.6 2.6055 14.513 0 2.6741-1.7787 6.019-2.904 3.3436-8.4801"/>
   <path d="m143.21 254.45c-6.2041 16.121-28.529 12.151-33.039 9.3767-2.904-1.7908-4.3967-5.08-3.3598-4.2402 22.324 4.2402 36.738-7.6835 36.397-7.143-1.1092 1.7787 0 2.0086 0 2.0086"/>
   <path d="m-1.4604 252.66c1.9481 5.4636 11.597 1.8795 16.078-1.4923 2.3756-1.8069 0.99624-2.6015-1.4076-2.0046-3.997 0.9801-8.082 0.726-10.885-2.0772-1.9763 3.0573-3.7833 5.5777-3.7833 5.5777"/>
  </g>
  <path d="m188.38 168.94s4.8376 4.8944 8.6366 5.6628c1.4802 0.28233 6.7587 0.4961 9.8175-0.16134 4.8093-1.0245 11.383-6.4884 16.221-12.948l-0.43964 4.3112s-9.974 13.105-16.818 15.182l-0.8954-2.6741-8.4805-0.28234-0.28233 1.1939-9.0206-7.5129z" fill="#1e6579"/>
  <path d="m135.69 43.772c1.6496-0.8833 17.857 1.4923 20.688 3.1299 2.8314 1.6375 12.208 15.922 13.688 16.22 1.4923 0.28233 4.1689-0.59693 4.1689-0.59693l1.1939 2.9726s-4.6101 2.0933-7.0007 1.1939c-2.3756-0.89539-12.35-14.286-13.844-15.04-1.4802-0.73811-16.961-2.8193-22.624-2.0772 0 0 1.4923-4.6101 3.7268-5.8052" fill="#1e6579"/>
  <path d="m189.54 226.11s-4.1834-3.5292-4.525-4.8662l4.0253-4.3685s8.4091-2.1901 12.265-2.3474c3.872-0.16133 7.5698 1.6779 3.872 6.0476-3.6986 4.3681-4.7097 6.2037-4.7097 6.2037z" fill="#ec6d45"/>
  <path d="m139.51 149.15s4.0132 3.8841 14.599 1.8634c0 0 0.16134 3.2025-1.5246 3.872-1.6779 0.66953-9.7469 0.83893-9.7469 0.83893z" fill="#ec6d45"/>
  <g fill="#c6003a">
   <path d="m62.018 121.61s0.89541-3.5695-3.4283-3.872c-8.95-0.61307-10.714 13.844-6.9861 28.13 0 0-3.4283-15.025 10.415-24.26"/>
   <path d="m24.81 144.68s3.7147 1.4923 6.104 7.2991c0.89541 2.1901 4.2116 3.9849 7.5839 0.88329 1.936 7.5984 15.04 5.5067 17.871 0.89541l-0.68163 8.4801s-4.0837 3.4283-9.5901 2.6902c-5.5067-0.75423-7.2995-6.5594-7.2995-6.5594s-3.0855 3.2307-6.2464 1.6375c-5.3643-2.6741-4.3112-12.493-7.7404-15.324"/>
   <path d="m61.034 268.03c2.0046 3.4566 12.976 2.904 15.082-0.16134 0 0-0.08063 5.6204-7.8827 5.1082-7.7831-0.4961-7.1995-4.9372-7.1995-4.9372"/>
   <path d="m237.47 247.75c-0.43963 5.4781-17.715 10.615-22.197 3.8841 0 0-1.4238 7.0293 10.429 6.4602 11.867-0.5687 14.713-5.8907 11.767-10.344"/>
  </g>
  <g fill="#cc5d3b">
   <path d="m102.45 171.77s3.4566 13.176 9.3908 14.001c5.9189 0.82683 21.898 0.6534 25.526-0.82684 3.6139-1.4802 6.9151-3.4566 6.9151-3.4566s-3.7833 6.9152-5.7624 7.4133c-1.9763 0.484-28.657 2.303-30.634 1.1535-1.9763-1.1535-5.4353-18.284-5.4353-18.284"/>
   <path d="m117.44 195.49s0.6534 4.9372 2.3071 5.933c1.6496 0.9801 14.499 8.7225 14.499 8.7225l-1.8231 1.9763s2.1498 9.7183 3.9567 10.216c1.8069 0.484 12.023 4.9372 13.83 4.2826 1.8231-0.66953 6.4312-1.1535 6.4312-1.1535s-4.7807 5.5918-6.2605 5.5918c-1.4802 0-16.135-4.112-17.131-5.2647-0.9801-1.1535-4.7811-9.2202-4.4395-10.714 0.32266-1.4802 2.1336-1.9763 2.1336-1.9763s-16.135-9.2202-15.808-11.027c0.32267-1.8069 2.3071-6.5876 2.3071-6.5876"/>
   <path d="m159.75 217.19c3.0734-2.904 22.638-3.7994 28.77 0.83893l-2.2062 2.303-1.6214-0.24199-1.1535 3.9285-1.7787-3.1581-2.7749 3.7833-1.3794-4.3963-3.3154 4.3963v-8.3236l-12.009 16.79-0.62516-12.393-2.6902 0.77037z"/>
   <path d="m187.08 219.26s2.2345 3.7712 3.4727 3.9285c1.2221 0.16134 7.6121 0.40334 8.3091-0.0806 0.69777-0.46788 6.9293-4.0132 6.9293-4.0132s-3.6986 7.3132-5.62 7.4697c-1.9199 0.16134-9.1633 0-10.629-0.40333-1.4641-0.40334-4.3112-4.7666-4.3112-4.7666z"/>
   <path d="m211.26 224.12s5.4353 0.91154 10.231-0.12101c2.1336-0.45577 5.6487-2.1619 5.9048-3.0169 0 0-0.42754 3.2025-1.1939 3.6703-0.76633 0.45578-4.3826 2.7749-5.7769 2.8475-1.3794 0.0806-9.1633-3.388-9.1633-3.388"/>
   <path d="m242.6 170.19c1.4076 1.9078 7.4842 6.6304 12.905 3.3719 0 0-0.46786 2.3071-1.3229 2.42-0.83894 0.12101-4.7097 2.0489-5.7911 1.5649-1.0809-0.484-6.5166-3.7429-5.791-7.356"/>
   <path d="m172.49 168.74s3.388 4.7097 14.727 3.146c0 0-4.4677 2.2909-5.3075 2.2909-0.85507 0-5.4353 0-6.4029-0.484-0.968-0.484-3.7429-1.936-3.0169-4.9513"/>
   <path d="m140.93 152.63s9.7893 2.6741 13.09-0.8954l-0.6413 2.8032-10.159 1.6496z"/>
   <path d="m194.48 105.54s6.246 2.5329 9.0774 1.936c2.8314-0.59693 10.273-3.7268 10.273-3.7268s0.59694 1.7908-2.6741 3.868c-3.2872 2.0933-8.0392 5.3643-9.2347 5.3643-1.1939 0-7.4411-5.3643-7.4411-5.3643l-0.28233-2.2183"/>
   <path d="m232.73 95.865s-0.28233 1.1939 0.28234 2.8314c0.59693 1.6375 3.1299 5.9476 4.7666 5.9476 1.6375 0 10.259-2.2345 10.259-2.2345s-11.753 0.89539-15.324-6.5449"/>
   <path d="m186.3 128.01s5.5063-9.9744 8.0392-11.17c4.0406-1.8916 17.003-5.1369 20.389-3.4162 7.0716 3.5977 17.715 23.819 18.298 27.532 0 0-4.9086 1.4923-5.051 0.16134-0.16132-1.3512-12.806-24.715-15.481-25.313-2.6741-0.59693-16.078 2.2345-16.676 3.271-0.58483 1.0527-10.116 16.676-10.116 16.676z"/>
   <path d="m215.07 210.53s19.693-7.2709 30.521-22.709c0 0-6.7445 13.66-20.048 23.42 0 0-3.7268-2.8435-10.473-0.70987"/>
  </g>
  <g fill="#0f141b">
   <path d="m89.329 60.313c26.152 2.7306 44.593 12.052 55.093 27.504 14.072 20.731-0.16134 42.216-22.154 43.042-13.218 0.4961-22.88-5.4781-29.269-9.4336-2.787-1.7222-5.4781-3.5292-7.2709-3.9688-8.9923-2.2466-11.184-0.16132-12.052 5.5491-0.7986 5.151-0.86717 9.4481 0.12101 13.091 2.6459 9.8462 10.7 12.479 11.824 22.581 1.3512 12.237-7.4133 17.715-14.072 17.558-6.8014-0.16133-14.456-4.8662-14.741-15.78-0.28233-11.184 5.6346-13.02 7.769-22.894 2.5329-11.739-0.95186-20.888-6.5735-19.892-2.4039 0.42753-2.7023 1.6658-0.43963 1.5811 4.4677-0.16134 7.9679 6.6877 5.5208 17.985-1.9642 9.1206-8.0961 10.8-8.6938 23.449-0.32266 6.6163 5.3498 17.43 17.16 17.53 9.6469 0.0806 17.658-7.7262 16.292-19.991-1.1092-10.045-10.131-14.599-12.223-22.112-0.8833-3.2146-1.0406-7.356-0.20167-12.863 0.55659-3.6018 2.5047-5.862 10.416-3.8841 1.5649 0.40334 4.4536 2.5329 7.1285 4.1834 6.5594 4.0551 15.666 10.003 29.368 9.4904 26.337-0.99622 37.919-25.469 24.445-45.574-10.671-15.908-28.414-25.569-55.036-28.358-3.9002-0.41141-6.3174 0.7986-2.42 1.21"/>
   <path d="m61.785 120.27c-10.899 4.5246-14.613 24.402-5.862 32.825 0.28233 0.28233 1.3955-1.9199 1.1092-2.2345-8.466-9.0923-2.9161-24.772 5.6346-28.315 0.363-0.16134-0.50014-2.4321-0.8833-2.2748"/>
   <path d="m35.748 137.63c5.6628 8.779-1.0406 13.901 3.1016 22.894 3.6703 8.0247 14.414 6.9006 16.846 1.7222 0.16134-0.40333-0.02825-2.6055-0.24199-2.2345-2.4482 4.6952-10.714 6.488-14.812-0.61306-3.3315-5.7487 1.9763-13.674-3.4445-22.069-1.6658-2.5894-3.1299-2.2788-1.4641 0.28232"/>
   <path d="m19.584 35.74c-12.621 13.289-3.1581 49.132-3.0573 55.122 0.12101 8.0392-10.458 23.975-10.501 37.165-0.014065 6.2323 3.3275 11.241 14.001 16.022 6.4884 2.904 6.5881 5.1082 7.6694 9.5901 1.452 6.0899 5.5349 9.9176 11.654 6.104 0.36299-0.20167-0.52838-2.2345-0.89541-2.0207-4.1406 2.4482-8.1247 0.82683-9.0355-5.4353-0.52837-3.5574-1.6093-6.8442-7.527-9.4904-5.9048-2.6459-12.464-5.8338-13.09-15.182-0.70987-10.714 10.487-29.581 9.7466-37.393-0.85506-9.1488-8.0961-41.121 3.0452-52.845 8.3381-8.7652 20.973-7.2995 27.248-4.283 1.1253 0.54047 4.8235 1.2826 4.5105 1.0124-5.6773-5.1223-23.136-9.5477-33.765 1.6375"/>
   <path d="m68.05 48.721c8.2953 13.418 6.7441 30.52-2.2748 35.202-9.5759 4.98-23.506-1.3391-30.393-13.773-3.0008-5.4071-4.7097-11.938-4.7097-17.942 0-6.972 2.3071-13.233 7.5411-16.221 9.2488-5.2929 22.083 0.20168 29.838 12.735m-30.592-14.314c-10.558 5.2361-11.284 23.89-4.3112 36.468 7.3987 13.361 22.894 20.247 33.366 14.812 9.4904-4.9231 11.938-23.05 2.8314-37.763-7.527-12.165-20.461-19.18-31.887-13.517"/>
   <path d="m76.312 33.526c0.16132 8.5228 5.8193 20.048 13.076 25.953 0.28233 0.24201 2.5612-0.16132 2.2345-0.40333-7.3136-5.4208-13.631-17.131-13.788-25.583-0.08063-5.2788 3.4001-12.194 13.218-6.659 10.003 5.6346 19.821 21.983 17.914 36.411-0.0404 0.41141 1.4359 0.61307 1.4923 0.20166 2.3918-15.936-7.982-32.086-18.412-37.962-11.113-6.2751-15.851 1.9763-15.737 8.0392"/>
   <path d="m60.43 38.399c0.01419 0.45577 2.3071 1.9763 2.2466 1.5649-2.1215-16.761 12.976-21.158 22.937-15.751 0.58483 0.32266 2.9322 0.01406 2.5894-0.20167-14.2-9.4618-28.386-2.1054-27.774 14.4"/>
   <path d="m127.94 131.03c-1.7343 7.1567-9.2347 10.998-16.491 14.712-5.6063 2.8758-10.686 4.738-12.706 8.9354-1.4359 2.9726-0.4961 4.2116 0.95186 1.4923 1.9642-3.6986 7.0571-6.3174 12.45-9.0778 7.3987-3.7994 16.747-7.3987 18.511-16.32 0.0806-0.4114-2.6741 0.0806-2.7185 0.242"/>
   <path d="m247.25 223.77c-6.9579-0.93977-17.259-3.1178-19.536-7.214-0.20167-0.36299-0.46788 2.061-0.28234 2.4321 1.8513 3.7833 13.83 5.4922 19.152 6.4457 7.8259 1.4076 21.628 2.4603 22.083 15.595 0.36299 10.102-15.324 14.783-19.707 16.448-3.9688 1.5085-6.488 3.2146-10.06 7.0858-7.9396 8.637-14.997 11.497-33.238 8.5374-11.639-1.8795-15.808-1.936-23.847 3.2025-10.928 6.972-18.939 7.3419-34.875 3.271-13.844-3.5292-15.922-4.9658-31.616 3.3436-8.8931 4.6956-19.963 10.558-35.216 10.031-15.737-0.54047-21.087-4.8521-27.86-10.302-11.895-9.6042-16.533-10.245-31.943-7.6835-5.5067 0.91153-10.7 1.7787-14.94 0.68162-16.249-4.1975-12.991-18.753-2.2909-25.241-0.24199-0.484-0.36299-1.8916-0.86717-2.5168-8.5797 3.5453-19.166 23.307 0.70987 29.326 6.5594 1.9925 12.194 0.4961 17.857-0.43963 16.662-2.7588 18.497-1.5811 29.51 7.2995 6.9861 5.6346 13.176 10.842 29.425 11.397 15.666 0.54047 27.277-5.6628 36.326-10.458 12.991-6.8724 17.388-6.9579 30.378-3.1581 19.693 5.7769 25.612 2.2909 36.71-4.2685 6.8583-4.0551 9.6328-4.5246 22.296-2.4765 18.313 2.9726 25.114 2.3474 35.572-9.4763 3.2307-3.6421 6.0754-5.8197 9.4194-6.7445 3.7994-1.0527 20.816-5.6204 21.2-17.686 0.46787-14.585-17.843-16.548-24.345-17.43"/>
   <path d="m43.645 162.83c-0.24199-0.4961-3.6139-2.0207-3.4162-1.6496 21.955 41.52-1.694 61.041-24.829 77.034 0.66954 0.0806 3.1016 0.5566 3.3719 1.21 23.634-16.562 43.952-38.432 24.872-76.593"/>
   <path d="m6.9047 239.36c-8.6225 5.535-8.466 16.05 0.76633 15.211 3.2589-0.28233 4.909-2.0046 1.6658-1.5085-6.2751 0.93976-9.4763-6.1327-1.5649-11.781 6.5453-4.6811 13.318-1.0406 11.668 4.1406-0.5566 1.7061 1.2221 1.4359 1.6496-0.6413 1.2947-6.3456-6.346-10.444-14.186-5.4208"/>
   <path d="m68.027 261.98c-7.8118 0.72599-9.9317 7.6976-5.6346 9.7607 1.6093 0.78246 2.8153-0.24201 1.1535-0.92365-2.662-1.0809-2.1054-6.1895 4.738-6.7586 5.1933-0.43963 9.3339 4.2402 4.7097 7.3278-1.9763 1.3108-0.58483 2.2466 1.2826 0.8107 5.4071-4.1547 1.1092-10.899-6.2464-10.216"/>
   <path d="m105.97 253.3c-1.3391 5.6628 0.98011 9.9313 3.9688 11.269 2.3353 1.0245 3.63 0.242 1.3108-0.8107-2.3918-1.0688-3.7429-4.354-3.271-8.011 1.936-15.395 29.781-18.355 33.836-6.0899 1.694 5.1082-1.3512 10.501-7.7404 13.759-2.2466 1.1374-0.82683 1.8231 1.4641 0.78247 7.8686-3.5695 10.017-10.259 8.395-15.039-5.2788-15.609-34.689-9.7752-37.962 4.1406"/>
   <path d="m86.072 235.93c-0.40333 2.4482 0.45576 4.667 2.4321 6.0754 2.1054 1.4641 3.146 0.68162 1.0406-0.7986-1.4802-1.0406-2.1619-2.8758-1.7343-4.6815 1.4076-6.0899 16.406-9.4336 19.009-2.0207 0.70987 2.0328-0.55661 4.1406-3.4566 5.8052-2.3192 1.3229-0.59693 2.0368 1.6658 0.62517 4.4108-2.7306 4.0833-5.9476 3.5695-7.2564-3.3275-8.5374-21.073-6.5594-22.524 2.2466"/>
   <path d="m124.23 139.03c9.8034 7.8541 7.982 28.5-5.5067 28.842-10.899 0.28234-13.446-10.885-12.137-17.672 0.0806-0.4114-1.936 0.0283-2.0046 0.43963-1.1535 7.5129 1.3794 18.611 13.802 18.868 14.769 0.28233 19.692-21.101 6.9575-32.043-0.32266-0.28233-1.4359 1.3108-1.1092 1.5649"/>
   <path d="m130.26 145.05 0.43963 2.0046c2.42-0.0404 6.4739 0.20167 6.9293 0.58484 1.5932 1.3108 10.387 20.902 10.102 23.676-0.484 4.8239-7.7404 15.837-9.3626 16.776-2.1336 1.1253-28.101 1.5649-29.866 0.51223-1.3794-1.0527-5.6346-16.477-5.6628-17.871 0.0282-0.68164 4.4536-6.3319 5.4636-7.6125l-0.8107-2.2183c-2.1054 2.6741-6.6732 8.7366-6.6732 9.8462 0 0.88329 4.3967 18.739 6.7018 20.262 2.5894 1.7222 30.079-0.24199 31.943-1.5488 3.2146-2.2466 9.6332-12.45 10.145-17.63 0.32266-3.3436-8.9786-23.691-11.028-25.37-0.968-0.79456-6.1468-1.452-8.3236-1.4076"/>
   <path d="m150.67 106.16c6.5308 4.1975 7.9965 6.417 8.0961 7.5411 0.61306 7.7545-6.7587 30.279-8.1957 33.509-0.16133 0.40333 1.7626 0.9801 1.936 0.59693 3.0452-6.83 8.4942-25.114 7.7686-34.235-0.242-2.8758-5.1506-7.0148-8.8076-9.3767-0.363-0.24199-1.1535 1.7343-0.7986 1.9642"/>
   <path d="m118.99 189.53c-0.0404 0.0806-5.0514 11.098-4.4822 12.82 0.7986 2.3918 13.916 10.8 15.95 11.81 0.36301 0.20166 1.4359-1.2947 1.1818-1.4238-2.5047-1.2503-14.385-9.6187-15.011-11.227v-0.0404c0-1.3512 2.5047-8.395 3.755-11.326 0.0404-0.0806-1.2382-0.9801-1.3955-0.59694"/>
   <path d="m140.86 185.77c0.78247 0.73809 6.4312 10.629 6.7159 12.066 0.0806 0.41139 1.5811 0.12101 1.4923-0.28234-0.54046-2.7023-4.9945-11.34-7.0006-12.934-0.32267-0.242-1.5085 0.8833-1.21 1.1656"/>
   <path d="m148.76 196.34m-5.5208 7.1426c2.8475-2.7467 5.293-5.1223 6.4029-5.9048 0.51223-0.36301 1.3673-0.24201 2.0046-0.0806 3.3154 0.82683 7.8259 4.5674 8.1671 5.2502 0.0404 0.16134 0.0806 0.484 0.0806 0.93977 0 3.997-1.694 18.085-2.7749 19.706-1.6214 2.42-5.4781 6.1754-6.3174 6.4884-1.7626-0.0404-15.652-3.8558-16.704-4.8234-1.2221-1.2221-4.4254-8.1957-4.4677-9.6469 3.2589-1.9078 8.9782-7.4274 13.617-11.91m5.5208-7.1426c-1.1939 0.83892-15.395 14.115-18.64 16.462-2.8193 2.0489-2.5491 1.7222-1.5528 4.7807 0.92363 2.8193 2.5894 6.9297 4.1975 8.5374 1.7787 1.7787 16.221 6.1754 18.127 5.862 1.4238-0.24201 6.5167-5.3926 7.9255-7.4843 1.3391-2.0046 3.2146-20.731 2.3635-22.453-1.2221-2.4482-5.1223-5.0086-9.1492-6.0331-1.3794-0.32266-2.4765-0.242-3.271 0.32267"/>
   <path d="m214.65 249.61c-1.1535 3.6865 0.7986 7.0289 3.5009 7.8541 2.0651 0.6413 3.3598-0.20167 1.2947-0.8107-2.0046-0.58483-3.2872-2.7185-3.0613-5.0655 0.72599-7.6266 18.213-10.245 20.632-2.2184 0.75424 2.4603-0.69776 4.98-3.6986 6.5308-2.2062 1.1535-0.55661 1.6658 1.6496 0.52837 3.6703-1.9078 5.1082-4.4536 4.0838-7.6266-2.9605-9.2771-21.742-7.7262-24.402 0.8107"/>
   <path d="m190.47 233.61c1.0245-2.6741 4.5674-2.9443 6.872-1.5649 2.303 1.3955 2.5894 5.4781 1.5085 7.2568-1.0809 1.7787-5.2361 4.0132-6.2746 3.3275-2.3756-1.5932-3.1299-6.346-2.1054-9.021m0.20166-2.8193c-3.5009 3.271-2.662 10.102 0.7986 12.393 3.2993 2.2062 8.537-1.5932 9.2057-3.9688 0.68164-2.3756 0.0142-7.043-2.1215-8.4518-2.1215-1.4076-6.417-1.3512-7.8828 0.0286"/>
   <path d="m208.69 213.65m0.86716 4.8235c0-1.7061 0.12101-3.4566 0.45577-4.0838 1.0527-1.8634 8.1248-4.112 12.365-3.5009 1.1939 0.20167 3.872 2.4603 4.1124 3.0855 0.46787 1.6779 0.24201 7.1713-0.41139 9.59-0.24201 0.93976-4.3258 3.4566-5.2647 3.271-2.7467-0.92363-10.358-4.1547-11.127-5.1651-0.0806-0.7381-0.12101-1.9481-0.12101-3.2025m-0.86717-4.8235c-0.99623 1.3068-0.89539 8.4518-0.89539 8.4801 0.24199 2.1498 12.037 6.5166 12.165 6.5594 1.4923 0.4961 7.3705-2.9605 7.84-4.7238 0.66954-2.5047 1.3108-8.4518 0.72601-10.558-0.32268-1.1818-4.0551-4.2261-5.7624-4.4677-4.7807-0.69776-12.251 2.3353-14.072 4.7097"/>
   <path d="m109.62 55.244c-0.41141 0.04038-0.24201 1.8069 0.16133 1.7626 3.63-0.42753 9.4336 0.01407 12.393 0.45576 4.1834 0.6413 17.601 10.472 19.081 12.692 0.4114 0.73811-1.7626 8.395-2.6902 9.7752-0.0806 0.12101 1.9078 1.9763 2.1336 1.6375 0.85506-1.2665 3.2428-10.444 2.0933-12.222-1.5811-2.4321-15.623-13.332-20.376-14.044-2.8314-0.42754-8.8217-0.52838-12.806-0.04038"/>
   <path d="m131.84 48.415c-1.0688 0.28233-9.9034 4.9372-11.966 7.4415-0.24199 0.32266 2.2909 1.1656 2.5612 0.85506 1.7505-2.1336 8.8931-5.6346 9.8179-5.9052 3.5413-0.9801 20.062-0.08063 21.727 1.5811 0 0 13.062 14.784 13.901 15.296 1.6658 0.99623 6.588-0.42753 7.7972-1.0245 0.40333-0.20166-0.41141-1.7343-0.78247-1.5528-0.99623 0.4961-5.0227 1.0406-6.0472 0.42753-0.75424-0.46787-13.788-14.229-13.788-14.229-2.3918-2.3918-19.764-3.8559-23.221-2.8879"/>
   <path d="m136.96 41.459c-2.904 0.68164-5.0655 6.0327-5.7628 8.2526-0.12101 0.41141 1.3229 0.86717 1.452 0.46787 0.86717-2.7588 2.8193-5.8479 4.596-6.2605 3.1863-0.75423 24.445-4.4681 29.453-2.4765 7.0999 2.8193 10.316 8.3099 11.866 11.397 0.16133 0.363 2.6459 1.6375 2.4765 1.2503-1.6779-4.041-5.3216-11.212-13.773-14.57-5.7056-2.2466-28.372 1.4802-30.307 1.936"/>
   <path d="m174.86 45.144c-0.42754-0.01455 0.45577 1.7908 0.70986 1.8069 2.0772 0.08063 4.1402 0.28233 6.175 0.55659-0.121-0.52836-0.24199-1.3108-0.32266-1.8513-2.303-0.28233-4.5105-0.43963-6.5735-0.51224"/>
   <path d="m249.51 101.14c-3.8438 1.5085-9.0919 3.0452-11.468 2.5047-0.51223-0.16133-2.7588-2.0772-3.7833-4.1971-0.32267-0.62516-0.61308-1.5367-0.32267-2.2627 0 0 6.4457-18.497 1.7626-24.758 1.1253 0.04038 2.4039 0.32266 3.3719 1.1253 2.3071 1.9199 11.739 17.857 11.739 19.835 0 2.3756-0.82683 6.9865-1.2826 7.7549m-9.4904-29.269c-1.3673-1.1374-3.4001-1.3794-5.7483-1.1656-3.9123-3.9849-8.1675-7.669-12.592-10.615 0.41141 0.91153 0.61308 2.3353 0.69777 3.2589 6.019 4.0132 10.387 7.8969 12.465 10.472 2.6741 6.5594-1.5367 18.81-3.0008 22.652-0.40334 1.0688 0.43963 2.5047 1.21 3.9406 1.1374 2.1498 3.6018 5.4212 4.667 5.6632 3.5413 0.7986 11.611-2.545 13.076-3.1299 1.6658-0.6534 2.4765-9.5332 2.4765-9.6187 0-2.6902-10.814-19.436-13.247-21.457"/>
   <path d="m249.28 102.14c3.5977 6.972 5.9048 21.983 5.4781 30.264-0.0282 0.4114 1.7505 0.42754 1.7908 0 0.968-10.643-1.5811-23.762-5.3498-31.047-0.20166-0.36299-2.1215 0.41141-1.9199 0.78247"/>
   <path d="m258.85 151.58c0.52434-6.3178 0.68164-12.635-0.32266-18.697-0.28233-1.8634-1.0083-1.9199-3.5856-1.0083-1.694 0.61308-4.4536 1.5932-8.7507 3.4727-4.5532 1.9763-9.7183 4.2257-13.432 5.1078-2.2627 0.52837-3.9406 0.45576-4.596-0.20166-0.363-0.36301-1.5932-2.6338-1.694-2.2345-0.77036 3.0855 0.0806 5.6773 6.1327 4.2402 3.8397-0.91153 9.5759-3.513 14.2-5.5349 4.6101-1.9925 9.0924-3.8276 9.5901-3.5695 0.92363 0.45576 1.0809 10.643 0.40333 17.402 0.8833 0.0806 1.7222 0.58483 2.0489 1.0245"/>
   <path d="m224.47 210.7c-0.20168 0.16134 1.6214 2.061 1.9642 1.8069 12.109-9.2061 20.745-22.311 26.281-36.383-0.91154 0.5566-1.8634 1.21-2.9726 1.6375-5.1506 12.037-13.261 23.89-25.27 32.939"/>
   <path d="m195.77 118.33c-1.4802 0.79456-7.143 10.102-9.5477 14.513-0.5566 1.0124-0.32267 5.3216-0.16133 4.9517 2.1498-4.1975 9.2202-17.06 10.415-17.886 1.2382-0.6534 13.887-3.1742 15.452-2.8596 3.7147 2.3474 14.585 19.28 15.196 23.691 0.0404 0.41141 2.6741 1.0809 2.6015 0.66954-0.88331-6.4029-12.706-23.975-16.818-26.451-1.5367-0.92363-15.907 2.7023-17.16 3.3719"/>
   <path d="m226.02 136.94c-0.5687 0.75423-3.7268 4.8662-4.0979 6.0613-0.40333 1.1818 0.45578 20.816-0.0806 22.197-1.3391 3.5292-13.902 14.57-16.363 14.94-0.41141 0.0806-0.16134 2.3635 0.24199 2.2345 5.2788-1.7908 16.42-12.963 17.814-16.633 0.56871-1.5246 0.40335-22.069 0.54047-22.695 0.0806-0.12101 2.6459-4.4964 3.1581-5.1937 0.12101-0.16132-0.95186-1.2503-1.21-0.91153"/>
   <path d="m204.34 179.41c1.452 2.6015 4.0551 27.646 4.0551 33.594 0 0.5566-0.0283 0.95186-0.0806 1.1374-0.64131 2.3474-7.6266 10.344-8.7935 11.255-0.59693 0.20167-9.5187-0.0282-9.7889-0.0404-0.70986-0.43964-3.1581-2.9322-3.513-3.755 0.16134-0.51223 8.7362-8.3095 10.344-11.497 0.363-0.70987 0.32266-4.3399 0.32266-10.899 0-4.1547-0.24199-19.494-0.28233-20.006 1.2544-0.46786 6.83-0.32266 7.7262 0.20167m-7.7262-0.52837v0.0146zm-1.5367-0.70986c-0.82684 1.4238 1.1374 28.899 0.16132 31.218-1.1818 2.1498-11.098 11.041-10.799 12.023 0.32268 1.0245 3.7833 5.9048 4.8094 5.9048 0 0 10.6 0.73811 11.567 0.16134 1.4076-0.86717 8.153-10.174 8.9786-12.934 1.21-4.0692-2.5612-33.238-4.354-36.084-0.4961-0.78247-9.1778-2.3353-10.358-0.28233"/>
   <path d="m186.71 172.34c0.66954 1.0406 8.6652 8.2098 8.6652 8.2098 0.32268 0.242 1.5528-2.0046 1.21-2.2627 0 0-8.2236-6.0758-8.8068-6.9579-0.242-0.36299-1.2947 0.6534-1.0688 1.0083"/>
   <path d="m162 91.524c-0.93976 0.54047-7.214 6.8724-10.387 10.742-0.62517 0.77037-0.363 3.4162-0.12101 3.0734 2.0772-3.0452 10.287-11.795 11.226-12.464 1.3391-0.32267 9.9744 1.4359 10.842 2.4886 1.7222 2.1054 12.151 17.202 12.436 19.778 0.36301 3.1299-3.2993 41.946-3.1178 44.507 0.0286 0.42753 2.2345 0.86716 2.2062 0.45577-0.20166-2.4482 3.0452-41.846 2.6741-45.133-0.36301-3.2428-11.354-19.92-12.407-21.201-1.4076-1.7343-11.966-3.0452-13.361-2.2466"/>
   <path d="m142.32 142.74c-1.21 0.28234-2.904 2.8596-3.5292 4.738-0.20167 0.62516 1.4641 2.3918 1.4641 1.9642 0-1.5649 1.7061-4.3681 2.4039-4.5387 1.3229-0.20167 10.06 4.3681 10.984 5.4636v0.0404c0 0.86717-0.54046 2.9161-1.0245 3.6139-0.75425 0.32266-9.8607 1.0245-9.8607 1.0245-0.40333 0.0286 0.12101 2.0489 0.52836 2.0207 0 0 9.9886-0.99623 10.458-1.5811 0.82683-1.0406 1.5488-4.3685 1.3955-5.4922-0.0404-0.40333-0.32266-0.78246-1.5649-1.6093-2.1054-1.4076-9.4194-6.1182-11.255-5.6628"/>
   <path d="m245.32 160.37c0.242-0.32268 2.3918-1.8231 4.2544-3.146 3.4445-2.42 6.2751-4.4536 7.8118-5.9189 1.0245 0.8107 1.8916 2.6741 2.0651 4.4818v0.0806c0 1.8231-3.6986 14.485-5.0796 17.772-0.79859 1.8634-3.9123 2.6741-5.706 2.8758-0.93976-0.28233-4.8803-3.997-5.2074-4.8949 0.0283-1.2503 1.3794-10.33 1.8634-11.255m12.08-11.625c-0.83893 1.2947-13.56 10.344-13.959 10.871-0.77037 1.0083-1.5085 11.17-1.5085 12.08 0 1.8069 5.5067 6.9579 6.6449 6.8438 0.95187-0.0806 6.3174-0.61307 7.6121-3.6703 1.1092-2.6176 5.4498-16.548 5.2788-19.067-0.0806-1.2665-0.99623-3.5856-3.0573-5.62-0.16133 0-0.78247-1.7908-1.0124-1.4359"/>
   <path d="m183.23 160.44c0.70986 0.0806 3.4001 1.0245 4.7807 2.4039 0.12101 0.16134 0.16134 0.484 0.16134 0.92363 0 1.7505-0.75424 5.2788-1.3512 7.0571-0.242 0.77037-2.6176 1.6093-3.513 1.9199l-0.64131 0.24199c-0.75423 0.24201-6.4598 0.0404-7.214-0.12101-0.40333-0.121-2.3192-1.7343-2.3192-3.4001 0-0.16134 0.0286-0.28234 0.0404-0.43964 0.70987-0.96799 7.9537-6.9152 10.031-8.5656m0.20167-0.16133m-0.92364-1.1939c-1.6214 0.55661-10.43 8.2812-10.743 9.4336-0.28233 1.0083-0.0806 2.1336 0.56871 3.2307 0.78246 1.3229 2.0651 2.3918 2.7749 2.5773 0.64131 0.16134 6.972 0.78247 8.1389 0.32266l0.58484-0.20166c2.0046-0.69777 4.0132-1.7505 4.4677-3.1299 0.0146-0.0806 2.4482-7.8827 0.79861-9.5191-1.452-1.4641-4.98-3.2428-6.5876-2.6902"/>
   <path d="m182.71 220.99c-0.0145 0.0283-0.0286 0.0404-0.0404 0.0806 0.0141-0.0283 0.0283-0.0404 0.0404-0.0806m-8.4519-5.5495c-0.45576 0.6534-8.4664 11.853-11.497 15.78-0.12101-1.9199-0.0806-10.97-0.86716-11.383-0.40334-0.20168-2.0933 0.32266-2.4765 0.6534-1.0124 0.55659-0.8833 2.8193-0.61307 2.5047 0.20168-0.20166 2.0651-1.4076 2.1215-1.4359 0.28233 2.8758 0.40333 10.558 0.40333 11.027 0.0142 1.5811 0.242 2.2183 1.3229 1.2503 1.3229-1.21 9.0923-12.507 11.34-16.206-0.16133 1.5811-0.41139 4.2261-0.363 5.1792 0.12101 3.0008 0.20167 3.8397 1.8916 1.5246 0.75423-0.91154 1.5811-2.662 2.0489-3.3033 0.16133 0.4961 0.36299 1.936 0.55659 2.7588 0.40333 1.7343 0.73811 2.4482 2.2909-0.0806 0.6534-0.91153 0.99623-1.6779 1.3512-2.1054 0.363 0.6534 1.5085 3.3154 1.8634 3.2428 0.36299-0.0806 1.1253-2.3071 1.21-4.1124 0 0 0.89541 0.0806 0.95188-0.16133 0.16132-0.0404 1.21-0.95187 0.83892-0.99623-0.58483-0.0806-1.7505-0.52434-2.3071 0.12101-0.54047 0.6534-0.72601 2.8758-0.82684 3.2589-0.62516-1.452-1.0245-2.5047-1.5649-2.5773-0.54047-0.0806-1.7343 2.0772-2.6741 3.1299-0.69777-2.4765-1.2503-3.8841-1.5085-3.9002-0.28233-0.0283-2.1498 2.662-2.9605 3.6139 0.20166-3.5292 0.363-5.9903 0.363-6.8869 0-1.6658-0.0141-2.0772-0.8833-0.88331"/>
   <path d="m203.53 11.686c4.041-5.3643 13.83-14.784 21.955-19.138-0.4114 1.1939-8.3808 23.05-10.16 29.866-0.40335 1.452-0.0282 1.9642 1.9078 0.08063 0.46787-0.45576 1.0688-1.0245 1.452-1.3512-0.32266 1.7061-0.83892 3.3719-0.93976 3.9123-0.43963 2.4603 0.36301 1.6214 1.6214 0.68164 1.2786-0.95187 2.5773-1.8795 4.041-2.8032-0.66954 2.6338-2.0651 5.5349-3.5695 8.6083-2.42 4.9231-4.9231 10.003-5.0082 15.083-0.0146 0.04038-0.0146 0.08063-0.0146 0.16134 0 3.0573 1.5528 5.6346 3.2024 8.3522 5.0227 8.3522 3.4566 15.011 0.69777 16.875-2.5329 1.7222-7.5984 3.029-11.525 4.0253-6.9438 1.7787-7.6266 2.7467-7.2285 6.2319 0.24199 1.9642 0.55659 5.151-0.46787 6.901-0.66953 1.1374-3.868 0.70987-5.4208 0.50014l-1.4359-0.12101c-0.73811 0.08063-1.6779 0.9801-4.1265 3.6582-1.5649 1.7222-2.2909 2.8596-3.5574 2.1336-2.7023-1.5811-0.85507-3.9285 0.32266-5.5063 1.7222-2.2748 3.1178-4.6242 2.9443-5.6773-0.70987-4.112-9.3622-11.34-13.702-13.816 1.1374-0.28232 2.6902-0.32266 2.6902-1.6093 0-2.6459-3.872-10.415-6.3174-15.083 0.61307 0.40334 1.2665 0.78247 1.8513 1.0527 2.1215 1.0245 2.1336 1.0809 1.2947-1.3673-0.24199-0.6534-0.52836-1.4641-0.62516-1.7626 2.0489 0.99623 3.3719 1.6214 6.1468 2.904 2.7749 1.2665 3.7147 1.9763 3.7147-1.3229 0-3.3154-1.21-8.4805-2.4886-13.887-0.9801-4.1834-1.9925-8.4805-2.4482-11.952 1.0971 1.4641 2.4886 3.0008 3.6421 3.7833 0.99624 0.66953 1.1818 0.20167 1.1818-0.62517 0-0.04038 0.0806-1.2503 0.242-1.7787 0.6534 0.54047 1.2382 1.0971 1.452 1.2947 0.54047 0.5566 0.89539 0.73811 1.2503-0.28233 2.7749-7.9537 9.6752-18.882 15.025-25.384 0.28234 2.303 0.77037 5.8338 1.0406 7.0862 0.24199 1.1092 0.85506 0.968 1.3512 0.28233m22.965-21.898c-8.1385 3.7429-17.017 12.123-22.865 19.337-0.363-2.3635-1.0971-7.1003-1.1656-8.0961-0.0806-0.93976-0.54046-1.3391-1.3229-0.43963-5.3353 6.0899-12.962 18.099-16.178 27.404-0.484-0.42753-0.92363-0.7986-1.4923-1.21-0.484-0.32267-0.88329-0.42753-1.1656 0.36299-0.24201 0.69778-0.40335 1.2665-0.52434 1.7787-1.8069-1.7061-3.2993-4.0253-3.7429-5.0796-0.75423-1.7626-1.7061-1.1374-1.7061 0.04038 0 3.9285 0.58483 7.4415 1.936 13.162 1.1092 4.7384 3.513 12.479 3.513 16.05 0 1.21-1.0688 0.5566-1.9199 0.12101-1.1253-0.5566-3.3154-1.8352-7.6266-4.1975-0.75423-0.41139-1.1656-0.28233-0.6534 1.1253 0.363 0.91153 1.0245 2.5047 1.3391 3.3436-0.91153-0.54048-3.2589-1.9642-3.8559-2.2748-1.452-0.73809-1.7061-0.36299-0.9801 0.93977 3.7147 6.8296 7.6976 13.959 7.84 16.292-0.61307 0.08063-2.0933 0.46786-3.0008 0.78246-2.5329 0.86717-2.5612 0.9801 0.58483 2.7467 5.1368 2.8758 11.881 7.0575 13.105 12.55-0.40333 1.6658-1.7222 2.9443-2.7749 4.354-1.7061 2.2466-3.6421 5.8624 0.32267 8.2526 3.5574 2.1336 6.3319-5.0655 8.6652-6.104 0.76633 0.08063 6.8014 1.6496 8.3095-0.91153 1.2382-2.1054 0.62517-5.5491 0.32266-8.0534-0.32266-2.7306 0.8833-3.0895 2.6902-3.6865 5.222-1.694 11.91-2.4886 15.481-5.0655 5.222-3.755 4.4536-11.739 0.28233-18.682-1.5246-2.5329-3.3598-4.2967-3.5695-7.8824-0.242-4.212 2.0489-8.3667 5.1792-14.741 1.6214-3.3033 2.7306-5.9762 3.8276-9.4481 0.78248-2.4886 0.20167-2.7185-1.8069-1.3673-0.40334 0.28233-2.0328 1.2786-4.3399 2.9726 0.68163-2.3756 0.968-4.1406 0.968-4.1406 0.32266-1.9925-0.16134-2.0489-1.4359-0.78247-0.363 0.363-1.0688 1.1818-1.7505 1.7787 1.9925-6.7441 10.572-28.343 10.814-29.126 0.76633-2.4765 0.46787-2.9322-1.2947-2.1336"/>
   <path d="m201.27 82.268 0.20166 2.0207c4.596-0.41141 5.5777-0.12101 5.7911 0.04038 0.9801 0.73811 6.3178 7.9537 7.3278 10.629 0.45578 1.21-0.68162 6.7732-1.452 9.5477-0.36301 1.3794-9.4194 7.3419-11.07 7.3136-3.2993-0.91154-6.4598-4.0555-6.4598-4.8949v-0.0806c0-0.95186-0.6534-12.393-2.787-16.32-0.20167-0.363-1.5367 0.36299-1.3391 0.72599 1.9078 3.5009 2.2345 14.855 2.1901 15.765-0.0806 1.9925 4.5105 6.1041 8.082 7.0858 2.0328 0.55659 12.478-6.9293 13.105-9.2057 0.0283-0.0806 2.5047-8.6938 1.6779-10.885-1.0406-2.787-7.0571-9.9176-8.3664-10.913-0.8107-0.61307-3.1299-0.968-6.9151-0.83894"/>
   <path d="m154.55 76.781c0.6534 0.8833 1.1939 2.3192 1.452 3.388 0.40335 1.6779 1.1939 1.3955 1.0809-0.32267-0.0806-1.4359-0.484-2.6055-1.2786-3.5977-0.89541-1.1253-1.8634-0.28233-1.2544 0.55659"/>
   <path d="m161.81 75.629c0.4961 1.0648 0.93976 2.7185 0.968 3.7429 0.0404 2.0772 0.91153 1.7222 1.1253-0.363 0.0806-0.92363 0.16133-3.513-1.1374-4.5528-0.86717-0.69776-1.5367-0.08063-0.95188 1.1818"/>
   <path d="m166.72 74.305c0.24199 0.242 1.1092 1.3108 1.4802 2.1054 1.1939 2.5773 1.1374-2.6741-0.75423-3.2993-1.2544-0.41139-1.3391 0.5687-0.72599 1.1939"/>
   <path d="m244.16 113.85c-1.2221 0.86717-1.8069 1.1939-2.787 1.3391-1.1374 0.16133-1.3673 0.83893-0.5687 1.3391 0.8954 0.54047 2.5612-0.51224 3.2589-1.21 1.0809-1.0688 1.1535-2.2062 0.0806-1.4641"/>
   <path d="m243.33 119.55c-1.0971 0.41141-2.4321 0.0142-2.8314-0.12101-1.1374-0.40333-1.6214 1.0688-0.46787 1.4359 0.62517 0.20167 2.1901 0.242 3.5292-0.4114 1.1092-0.5566 0.93976-1.3512-0.242-0.91154"/>
   <path d="m238.55 178.55c0.41141 0.40333 1.2503 0.7986 2.0933 1.0648 1.4641 0.4961 2.2466 0.0806 0.91153-0.69776-0.40333-0.242-1.6093-1.1253-1.936-1.452-0.69777-0.68163-1.7626 0.40333-1.0688 1.0809"/>
   <path d="m229.09 191.2c0.16133 0.56869 1.0527 2.178 1.3794 2.7588 0.54047 0.99622 1.0245 0.28233 0.69777-0.95188-0.20167-0.75423-0.36301-1.694-0.66954-2.3756-0.55659-1.2503-1.6779-0.28233-1.4076 0.56871"/>
   <path d="m226.32 194.53c0 0.62516 0.58483 1.5488 1.1818 2.1054 0.92363 0.88329 2.1619 1.1535 1.3794 0.12101-0.484-0.61307-1.0971-1.9642-1.2503-2.2909-0.55661-1.2503-1.3108-0.968-1.3108 0.0404"/>
   <path d="m186.34 199.97c-0.0806 1.0648-0.20167 2.0207-0.45578 3.388-0.28233 1.5932 0.40333 1.8513 0.968 0.32266 0.32268-0.89539 0.72601-1.9481 0.99624-3.5977 0.24199-1.5649-1.3794-1.7061-1.5085-0.12101"/>
   <path d="m179.17 202.46c0.45576-0.96799 0.89539-1.8352 1.2947-2.5612 0.726-1.3229 1.0809-0.66953 0.75424 0.78246-0.20167 0.99624-0.36301 1.7626-0.66954 2.4321-0.4961 1.0245-1.8634 0.40333-1.3794-0.6534"/>
   <path d="m176.02 202.52c0.242-0.4114 0.66953-1.1535 1.1092-2.0207 0.9801-1.8795 0.54047-2.2062-0.58483-0.88329-0.363 0.41139-1.21 1.2947-1.4076 1.6375-0.83893 1.3512 0.32267 2.2062 0.8833 1.2665"/>
   <path d="m170.86 197.38c2.1901-2.0933 2.3474-0.96799 1.6779-0.28233-0.69776 0.75423-1.0245 1.3955-1.3673 1.9078-0.66954 0.95187-2.2062 0.16134-0.32267-1.6375"/>
   <path d="m122.26 180.66c-0.78247 1.1656-0.89541 1.8352-1.0245 2.4482-0.55659 2.5773 0.16134 3.6864 0.75425 1.936 0.20166-0.58483 1.2947-3.4001 1.8513-4.2402 0.7986-1.1939-0.78246-1.3391-1.581-0.16133"/>
   <path d="m131.45 181.28c0.20167 0.70987 0.92363 1.5206 1.2826 2.4603 0.54046 1.3955 0.9801-0.4719 0.363-2.2183-0.6413-1.8795-2.2183-2.1498-1.6496-0.242"/>
   <path d="m135.08 178.23c0.24199 0.41141 1.0406 1.0809 1.4641 1.8513 0.6534 1.1939 1.1092 0.4961 0.70987-0.726-0.20166-0.58483-0.32266-1.1656-0.86717-1.9078-1.0527-1.4076-1.9642-0.28233-1.3108 0.78246"/>
   <path d="m56.695 52.766c-0.61307 0.28233-0.62517 1.7908 1.1374 4.7948 1.8069 3.1016 3.1178 3.5574 3.6139 3.2872 0.70987-0.36299 0.24201-2.4039-1.1535-4.7238-1.4076-2.3474-2.662-3.7833-3.5977-3.3557"/>
   <path d="m94.979 39.412c-0.41139 0.24199-0.52836 1.3673 0.86717 3.5574 1.8069 2.8475 2.6741 3.0452 3.146 2.7588 0.62517-0.363 0.08063-1.9078-1.0688-3.7833-1.6779-2.6902-2.5612-2.7588-2.9443-2.5329"/>
  </g>
 </g>
</svg>
