<?xml version="1.0" encoding="UTF-8"?>
<!-- Created with Inkscape (http://www.inkscape.org/) -->
<svg version="1.1" viewBox="0 0 285.29 290.91" xmlns="http://www.w3.org/2000/svg">
 <g transform="translate(49.81 -6.8189)">
  <path d="m214.92 213.53c1.4129-7.7737 1.5924-15.814 0.50462-23.854-2.9074-21.451-16.823-41.518-36.731-54.731 1.5811-4.5791 2.9571-8.3273 3.5999-10.137 1.968-5.5682-2.4922-11.235-7.7538-13.114-0.39529-11.047-0.4934-24.072-0.46538-37.038 7.19-11.007 18.949-23.053 22.084-30.125 3.7681-8.525-1.1382-19.602-4.767-16.882-0.96999 0.72048-10.77 7.4274-16.991 11.69 0.19624-14.053 0.34482-24.774 0.14017-27.84-0.59433-8.6141-19.078-0.54388-19.414 7.9416-0.39528 10.048-2.5119 24.369-5.3997 39.085-3.6296 2.5231-12.738 6.3198-13.114 7.3086-0.43453 1.099-0.7317 14.172 0.86066 15.201 1.1971 0.77095 4.4998 2.1671 6.557 3.0659-4.3022 17.139-8.9208 31.341-12.066 35.189-9.7714-0.5747-18.188-0.28594-31.588 3.4614-9.257-7.9909-25.328-28.305-40.687-48.876-0.95037-11.581-0.84944-26.594-0.19624-33.527 0.46537-5.0044-12.145-13.154-15.033-7.0714-0.98962 2.097-2.3745 8.001-4.1539 14.063-10.879-15.141-18.998-26.812-20.156-28.256-5.1426-6.4381-19.177 7.6055-16.872 14.924 0.82981 2.6212 9.9295 21.135 20.403 42.734-2.324 2.3353-8.0602 8.2284-9.4647 9.7316-2.1446 2.3128 3.9461 12.451 7.4473 12.323 1.3457-0.05601 9.8799 0.68124 13.203 1.1466 10.513 22.005 20.007 42.665 21.768 49.519l0.08407 0.056c-6.1415 6.7647-11.126 14.311-14.795 22.331l-0.02806-0.11214c-2.453-0.49338-16.477-6.3988-32.122-13.193-10.038-9.2073-18.465-25.14-21.501-28.849-3.5702-4.3515-9.969 0.55228-9.1779 4.2228 0.39529 1.8699 1.9876 8.1297 3.1253 12.511-10.76-4.7869-19.038-8.5351-20.423-9.2373-5.3208-2.7109-13.767 6.2604-9.2767 9.9791 1.4042 1.1662 19.562 13.381 38.541 26.258 1.2868 3.056 2.61 7.5163 3.1746 8.9208 1.483 3.6691 14.162 8.98 14.993 3.4516 12.214 8.3568 22.391 15.438 25.398 17.901-0.05613 6.4485 0.73169 17.673 5.7064 29.749 13.579 26.495 38.086 47.808 85.113 45.8 50.399-2.1446 71.702-29.521 76.933-36.217 0.95879-1.326 1.8783-2.6605 2.7306-4.035 0.14017-0.19624 22.895-0.0281 24.863-1.5139 3.234-2.4138 4.4406-6.8536 4.3122-10.187-0.056-1.612-15.241-11.126-19.345-13.796" fill="#ed8599"/>
  <g fill="#ce7486">
   <path d="m14.188 86.481c-2.1474 2.3128 3.9461 12.451 7.4473 12.323 1.3457-0.05601 9.8799 0.68124 13.203 1.1466-0.084075-0.38687-10.948-22.944-11.176-23.212-2.3353 2.3353-8.07 8.2382-9.4745 9.7417"/>
   <path d="m62.299 88.105c-0.38687-0.88028 22.707 30.145 23.202 30.758 3.9957 4.9352 9.0593 6.8539 14.954 4.7967l0.43453-1.0373c-0.16821 0.0281-0.34482 0.0841-0.52424 0.14016-9.2668-7.9912-25.338-28.315-40.687-48.886-0.95037-11.571-0.86066-26.594-0.22428-33.517 0.14018-1.5727-0.98961-3.4516-2.7109-5.1031-2.4138 11.245-1.6232 27.949-2.254 40.39-0.31678 6.389 1.5531 9.5833 7.8034 12.461"/>
   <path d="m169.54 42.653c0.8999-0.55508 4.3616-3.0165 4.8561-3.4516 0.19624-13.975 0.33642-24.636 0.14017-27.702-0.14017-2.1054-1.2952-3.6792-4.1241-3.5012 0.36725 8.8911-0.48499 29.403-0.86066 34.654"/>
   <path d="m165.14 76.921c-2.1054 4.6184 0.37566 10.246 3.4715 9.9788-0.0104 0.65321-0.0104 1.2952-0.0199 1.9288-0.14016 8.9505-0.31679 15.745-0.59433 22.826 0.86066-0.91952 4.9646-0.70086 6.4482-0.0281l0.0841-0.0561c-0.38687-11.018-0.48498-23.983-0.45415-36.899 7.19-11.017 18.949-23.063 22.074-30.134 1.9596-4.4207 1.5811-9.5241 0.25231-13.035 1.0176 10.968-25.931 33.725-31.262 45.424"/>
   <path d="m136.59 65.835c-0.42613 1.1074-0.72329 14.182 0.86906 15.211 1.1859 0.77095 4.5001 2.1558 6.5472 3.056 0.3252-0.41491 5.301-23.32 5.6966-25.575-3.6296 2.5203-12.728 6.3195-13.114 7.3086"/>
   <path d="m179.48 124.45c-1.839-0.0561-3.4715 1.2868-4.5988 3.8965-3.4418 7.9713-8.5253 24.339-8.3669 28.532 0.19623 5.2814 2.3437 8.8614 4.8656 9.7022-0.84944-8.2186 6.1813-28.691 7.2396-31.598 0.0196-0.0561 0.0841-0.11214 0.14017-0.16821 1.5531-4.5099 2.9077-8.2088 3.5408-9.9988 0.11214-0.2523 0.16821-0.51303 0.22427-0.77095-0.91112 0.3252-1.9372 0.44575-3.0263 0.40651"/>
   <path d="m-48.412 142.69c-0.63301 1.6708-0.49453 3.3526 0.91 4.5197 1.4042 1.1578 19.562 13.381 38.531 26.258 1.2952 3.0462 2.61 7.5163 3.1847 8.911 1.483 3.679 14.152 8.9898 14.993 3.4516 12.214 8.3669 22.381 15.448 25.397 17.901-0.02806-2.1446 0.44575-7.9909 0.63358-9.4745-2.7782-1.2672-61.13-36.781-83.649-51.566"/>
   <path d="m210.7 228.08c-0.58312 1.483-2.6605 6.2208-5.6077 10.948 0.14018-0.19624 22.885-0.0281 24.853-1.5139 1.2952-0.96999 2.254-2.2652 2.9473-3.689-7.8426-1.3933-16.437-3.4712-22.193-5.746"/>
   <path d="m35.325 214.87c0.75133 5.4987 2.2259 11.927 4.9747 18.613 13.589 26.495 38.096 47.808 85.123 45.8 45.019-1.9176 66.806-23.953 74.679-33.408-53.831 36.949-145.25 13.757-164.78-31.005"/>
   <path d="m37.618 55.301c0.39529-1.3737 2.3241-6.3888 2.5904-8.0602-10.84-15.092-18.929-26.713-20.086-28.157-1.2559-1.5615-3.0364-1.9091-4.9747-1.4438 0.48499 1.1971 1.1382 2.4726 2.0269 3.8371 5.2416 8.0703 13.322 21.956 20.442 33.824"/>
   <path d="m9.7467 158.57c-10.038-9.1978-18.464-25.14-21.501-28.849 0.11214 1.1859-0.54386 2.1951-1.3148 2.6605-1.2055 0.72048-1.3148 1.2756-0.75133 2.453 1.5027 3.1054 11.739 19.552 13.549 21.323 6.1317 5.9932 10.286 3.3229 10.018 2.4138"/>
  </g>
  <path d="m193.14 249.11-13.421 6.2803-4.589-1.0681c1.2868-2.5315 2.5624-5.3406 2.5708-8.7823-2.1867-3.1253-4.4701-5.7361-7.0711-8.703-4.3221 2.5007-12.125 7.0218-15.497 9.3161 0.95036 3.2837 2.7586 8.9306 3.5306 11.482-1.5811 2.1362-5.5581 8.5054-8.1591 11.304-2.0661 0.056-14.331-0.72048-17.04-1.0373-0.056-2.0774 0.25232-7.1008 0.22428-10.582-4.589-1.8699-11.008-3.8374-16.17-5.4493-2.2343 1.0176-5.0734 2.5708-7.7041 4.2823-0.28034 1.811-0.82981 5.6175-1.1074 7.2099l-11.037 7.5755s-11.7-8.9503-14.182-10.79c0.34482-5.6966 0.91953-11.393 1.4438-17.01-1.7297-2.0073-10.721-10.77-14.558-13.529-3.6296 2.61-7.2592 5.0832-10.859 8.525-0.80178 4.4406-1.7409 9.4151-2.5119 13.074-3.7188-2.0269-12.58-11.749-16.714-17.723 3.6495 8.8418 9.5241 18.128 18.959 26.337 3.1253 5.0538 0.39528 17.426 1.1971 20.442 1.2055 4.5396 11.156 7.368 13.718 5.2517 1.1971-0.98961 6.6164-10.642 10.256-11.275 3.5901 1.256 7.368 2.3241 11.344 3.1648 0.16821 6.3692-1.0177 13.885-0.66162 14.963 0.91953 2.8189 15.053 5.2419 16.763 3.2736 1.5419-1.7802 6.6559-10.859 9.8204-15.972 10.879-0.25231 29.274-1.8895 47.333-10.019 5.7756 1.5727 11.433 9.9295 12.906 11.304 2.5708 2.3941 13.51-0.33642 14.202-7.0515 0.75131-7.3187-2.3549-19.473-1.8895-21.333 3.0165-2.9969 5.7165-6.1715 8.1098-9.5042l-7.3383 1.0092z" fill="#bbe1e8"/>
  <path d="m200.37 245.69c-13.322 9.2174-28.958 14.716-45.256 17.11-1.5615 2.2848-3.2736 4.6876-4.6089 6.1317-2.0774 0.0561-14.34-0.72329-17.04-1.0373-0.0281-0.84103 0-2.1755 0.056-3.6792-8.2777-0.11214-16.536-0.93075-24.556-2.3942-0.11213 0.60274-0.19623 1.1382-0.2523 1.5335l-11.027 7.5757s-11.71-8.9506-14.182-10.79c0.11214-1.7494 0.22428-3.511 0.37566-5.2615-9.2076-3.5009-17.693-7.8922-25.031-13.045-0.62236 3.3428-1.2756 6.7053-1.8391 9.3658-3.7185-2.0269-12.58-11.749-16.704-17.723 3.6394 8.8415 9.514 18.128 18.959 26.337 3.1155 5.0538 0.38687 17.426 1.1971 20.442 1.2055 4.5393 11.146 7.368 13.717 5.2514 1.1971-0.98961 6.6164-10.642 10.256-11.274 3.5901 1.256 7.3582 2.3241 11.334 3.1648 0.16821 6.3689-1.0092 13.885-0.66162 14.963 0.31678 0.97 2.1951 1.8895 4.589 2.6016 3.5306-8.4361 8.4263-12.353 19.978-11.957 0.7233-1.2167 1.4129-2.3549 2.0269-3.3428 10.869-0.2523 29.264-1.8895 47.333-10.018 5.7658 1.5727 11.423 9.9393 12.897 11.304 0.57471 0.53265 1.5812 0.80178 2.7894 0.82982-4.312-10.83 1.483-18.989 10.424-21.6-0.5635-3.7286-1.1074-6.7549-0.89991-7.6153 2.2147-2.1951 4.2525-4.49 6.1317-6.8735" fill="#a2c3c9"/>
  <g fill="#bbe1e8">
   <path d="m81.154 231.04c-0.02806-0.38688 3.234-2.1671 3.7482-2.4222 0.22428-0.11214 4.6285 3.234 4.9251 4.391 0.2523 0.91953-0.69245 3.5408-1.4045 4.0944-0.70087 0.54386-3.5307 0.22427-3.7286 0.0281-0.19624-0.19625-3.5009-5.7263-3.5405-6.0922"/>
   <path d="m132.92 240.63c0.14018-0.1682 8.9503 1.7494 9.1975 2.0465 0.2523 0.29716 1.1858 7.5954 1.0092 7.8426-0.16821 0.2523-5.8746 5.0835-6.28 5.0142-0.40651-0.056-6.2901-5.7658-6.3394-6.0922-0.0281-0.1682 2.3353-8.7131 2.4138-8.8121"/>
   <path d="m202.84 213.32c-0.0199-0.14018-0.3168-6.5965-0.19625-6.735 0.16821-0.16821 2.6016 0.056 3.1749 0.30557 1.0373 0.39529 3.0361 2.2736 3.2142 2.6801 0.11213 0.25232 0.88028 4.4109 0.84103 4.6285-0.056 0.22427-3.6986 4.1241-3.8472 4.0846-0.14017-0.0281-3.1648-4.8264-3.1844-4.9649"/>
   <path d="m181.32 236.92c-0.0281-0.34482 2.9571-6.2604 3.0756-6.3195 0.14017-0.0561 6.2108 0.0281 6.4185 0.16821 0.29717 0.22427-0.96999 5.2713-1.483 5.7064-0.41491 0.35605-5.3506 3.4712-5.6276 3.4516-0.28035-0.0199-2.3437-2.6689-2.3829-3.0165"/>
  </g>
  <path d="m91.122 238.55c0.82142 5.5679-1.9091 26.802-2.4726 30.253-0.63359 3.9164 10.424 7.1701 14.143 3.9955 3.6198-3.0858 14.904-21.847 18.029-21.491z" fill="#ed8599"/>
  <path d="m111.09 255.24c-5.3206 7.6052-8.1987 14.429-13.994 15.023-2.8976 0.30557-6.6955-0.28034-8.4459-1.455-0.63358 3.9164 10.424 7.1701 14.143 3.9955 3.6198-3.0858 15.171-22.094 18.296-21.738-2.7306-1.0681-7.269 0.28035-9.9988 4.1738" fill="#ce7486"/>
  <path d="m161.53 211.47c-4.312-1.2055-14.924-5.2318-17.832-6.557 0.68123 5.8844 9.1779 21.125 14.756 20.917 2.5035-0.0841 5.5878-3.4914 8.2878-7.5956-1.1074-2.61-2.977-4.8856-5.2122-6.7647" fill="#e50012"/>
  <path d="m163.23 211.81c-0.25231 0.0196-0.86066-0.11214-1.7017-0.34763 2.2343 1.8783 4.1042 4.1539 5.2119 6.7647 3.0759-4.668 5.6473-10.266 6.3097-12.956-3.3922 3.0858-7.6153 6.3495-9.8205 6.5374" fill="#b50005"/>
  <path d="m179.09 185.23c2.097 6.8042 4.6187 9.3758 6.2702 8.8614 1.0765-0.3252 1.968-4.7569-0.0281-11.284-2.1054-6.834-4.6086-9.4448-6.4384-8.881-1.4129 0.43453-1.9988 4.134 0.19624 11.304" fill="#0f141b"/>
  <path d="m179.44 180.22c0.77095 2.5231 1.8587 3.5405 2.6016 3.3131 0.72328-0.22427 0.86066-1.9484 0.16821-4.1738-0.75133-2.4334-1.811-3.58-2.5624-3.3526-0.71208 0.22428-0.91953 1.9484-0.22427 4.2133" fill="#fff"/>
  <path d="m131.51 190.24c0.84945 7.0022 2.8878 10.187 4.7964 9.9592 1.6316-0.19623 3.0658-4.3515 2.2456-11.077-0.89991-7.4471-2.7894-10.365-4.7569-10.127-1.9988 0.22427-3.0956 4.6187-2.2848 11.245" fill="#0f141b"/>
  <path d="m132.94 185.04c0.36725 2.9966 1.1859 3.857 2.097 3.7779 0.79057-0.0561 1.4942-1.6821 1.1859-4.1833-0.29717-2.4418-1.256-3.6691-2.097-3.5803-0.8102 0.0841-1.4942 1.455-1.1859 3.9856" fill="#fff"/>
  <g fill="#0f141b">
   <path d="m61.068 261.26c1.7297 5.0835-0.22428 16.299 0.41491 18.722 0.93914 3.5307 9.9197 6.4381 12.026 4.7075 0.74291-0.64198 5.5483-9.0593 9.6822-11.097l2.6408 1.1466c-3.2638-0.0281-10.157 11.265-10.839 11.829-3.1351 2.582-14.518-0.81019-15.923-6.1022-0.96999-3.6195 1.9288-16.714-1.5811-21.876z"/>
   <path d="m96.518 273.44c0.88028 5.7756-0.51584 18.049-0.39528 18.623 0.63358 1.7718 13.292 4.312 14.963 2.8679 1.3737-1.5924 7.7142-13.252 11.156-17.634 1.8503-2.3633 2.6913-1.4634 1.4242 0.73171-2.8483 4.9251-9.7414 17.327-10.899 18.662-2.3241 2.6801-17.802-0.25231-18.959-3.8174-0.4149-1.256 1.6821-13.935 0.485-19.899z"/>
   <path d="m169.91 268.8c5.9338 2.0185 10.81 9.5833 12.738 11.373 1.968 1.8306 11.838-0.64199 12.432-6.379 0.33641-3.3033-0.96999-15.527-2.2652-19.839l1.8895-2.0858c1.7101 4.3417 2.9473 18.86 2.582 22.401-0.78216 7.6646-12.956 10.563-16.21 7.546-1.326-1.2363-7.8723-9.8799-13.163-11.235z"/>
   <path d="m204.34 240.32c3.5702 0.0561 23.825 0.14017 26.267-1.6905 3.6989-2.7586 4.9845-8.2976 4.8659-11.68-0.11214-2.5315-13.351-10.533-20.363-15.221l-0.78216 2.6801c3.3033 2.1082 17.535 11.136 18.88 13.124 0.056 3.0756-1.099 7.0515-3.887 9.1283-1.4634 0.93074-14.538 1.2672-23.419 1.1466z"/>
   <path d="m-17.698 147.66c-11.116-4.945-19.701-8.8219-21.006-9.4944-4.312-2.1867-11.373 5.5287-8.1295 8.2284 1.0188 0.82982 69.239 46.72 81.345 55.977l0.22428 3.5604c-2.0185-2.4418-82.284-57.391-82.907-57.915-5.4889-4.5592 4.0549-14.983 10.434-11.729 1.1968 0.60274 9.0096 4.0944 19.345 8.6338z"/>
   <path d="m10.178 186.67c-1.5811 6.0922-15.121 0.61395-16.941-3.8968-0.11214-0.2523-3.0659-8.4756-4.213-10.572l3.3725 1.8699c1.2756 3.2635 2.7193 7.724 2.7978 7.9119 1.1466 2.8483 12.817 8.0206 12.995 3.3824z"/>
   <path d="m61.012 86.947c-3.234-5.6274-3.8174-33.606-2.6016-46.69 0.39529-4.2427-10.839-11.116-13.025-6.5174-1.4942 3.1449-5.3108 21.788-9.9592 28.206-0.54386 0.75132-2.1166 1.1858-3.0459 1.0092-2.3044-0.42612-2.3549-1.455 0.16821-1.5615 0.5747-0.01986 0.99802-0.46537 1.1578-0.69245 4.5298-6.2604 7.7439-23.825 9.7616-28.078 3.5503-7.4964 17.752 1.483 17.159 7.8429-1.0289 11.027-0.90831 37.473 1.8306 45.731 0.69245 2.1054-0.38687 2.6016-1.455 0.75133"/>
   <path d="m24.337 77.561c-2.3353 2.3437-7.9514 8.1098-9.3755 9.6427-1.3541 1.455 3.9066 10.642 6.636 10.543 1.4045-0.05613 9.188 0.61395 12.897 1.0877l1.4746 2.7109c-1.4746-0.37566-12.867-1.5531-14.36-1.4942-4.3417 0.16821-11.304-11.324-8.3868-14.469 1.5531-1.6624 8.0504-8.3271 9.969-10.236z"/>
   <path d="m175.89 112.3c-0.45416-11.977-0.58312-26.169-0.55508-40.104l-2.3745 3.6198c-0.056 12.402 0.0281 24.853 0.43453 35.643z"/>
   <path d="m172.71 268.43c-4.5295 3.1155-18.741 9.8008-39.006 11.947-4.5197 0.47378-8.8911 0.74292-13.114 0.79058l1.7718-2.582c3.5702-0.0841 7.2494-0.33641 11.037-0.74291 15.053-1.5924 27.474-5.1132 38.541-10.632 2.097-1.0485 2.6605-0.0841 0.77095 1.2167"/>
   <path d="m191.24 256.25c9.5042-5.37 30.926-31.183 26.06-67.093-2.977-21.946-17.565-42.398-38.185-55.779l-0.81019 2.7306c19.137 12.63 33.092 31.766 36.069 53.722 3.254 24.042-4.5788 47.58-24.171 65.105-1.8783 1.6821-1.2363 2.6016 1.0373 1.3148"/>
   <path d="m35.76 208.79c-1.1662-19.632 6.3495-41.004 21.204-57.846 0.60274-0.68124 0.79057-1.4354 0.37567-2.7782-5.6075-18.178-51.813-110.44-53.079-114.47-2.0465-6.4975 10.899-19.117 15.033-13.945 2.3745 2.9571 10.424 14.538 20.808 29.076l0.79057-3.0165c-9.8998-13.767-17.544-24.616-19.869-27.533-6.0425-7.5656-21.52 8.0504-18.919 16.318 2.4614 7.7933 46.028 93.549 52.773 114.48-15.112 16.823-23.39 38.412-22.114 59.785 1.9288 32.35 23.627 61.753 63.038 70.02l-0.02806-2.5511c-37.394-7.9713-58.103-35.564-60.012-67.538"/>
   <path d="m175.58 11.43c-0.70086-10.137-21.135-1.7802-21.521 7.9713-1.1662 29.116-16.17 87.922-22.628 98.296-10.533-0.59433-21.412 0.77095-30.629 3.2638-10.019-8.8418-26.277-29.482-41.567-50.033l0.3252 4.668c14.518 19.543 29.65 38.699 39.362 47.313 0.86066 0.77095 1.3064 0.93073 2.61 0.5747 9.0593-2.4222 18.9-3.7384 29.482-3.1449 1.3064 0.0561 1.6512-0.22427 2.6801-1.8895 8.6338-14.083 21.52-74.995 22.47-98.968 0.30558-7.546 16.832-14.607 17.307-7.9021 0.28034 4.0846 0.11214 14.924-0.11214 28.75l2.2063-1.6316c0.14018-13.5 0.22428-23.854 0-27.267"/>
   <path d="m144 85.547c-1.9989-0.89149-6.2503-3.056-7.1106-3.6198-2.4026-1.5419-1.7213-15.339-1.2868-16.476 0.72329-1.8699 11.898-6.2901 14.488-8.8911l-0.14018 3.0855c-3.679 2.4026-11.106 5.6175-12.392 6.6856-0.39529 1.8587-0.39529 12.62 0.5747 13.905 0.63357 0.39529 4.3714 2.0465 6.4779 2.9767z"/>
   <path d="m168.02 85.369c0.70086-10.642 22.203-30.748 27.168-41.261 3.6492-7.7437-1.0597-17.179-3.1648-15.606-3.7583 2.8088-18.593 12.847-20.601 13.826-2.3829 1.1578-2.8976 0.28035-0.75133-1.455 4.7075-3.7975 19.355-13.519 20.086-14.063 4.668-3.5208 10.711 8.3175 6.3593 18.148-4.5197 10.206-24.27 27.791-27.534 40.667-0.5747 2.2456-1.7213 2.1278-1.5615-0.2523"/>
   <path d="m170.46 164.97c-1.1466-7.8426 7.3282-30.55 10.829-40.519 2.739-7.7439-9.514-16.625-15.418-10.127-7.091 7.7933-18.84 24.389-31.114 28.859-2.5904 0.93915-3.1155-0.30557-0.68123-1.455 12.698-5.9635 27.464-26.475 30.036-29.314 7.3484-8.0899 23.103 2.5427 19.533 12.659-1.4326 4.0353-11.69 30.036-11.552 39.758 0.0281 2.2456-1.2672 2.61-1.6316 0.14016"/>
   <path d="m163.32 212.87h-0.056c-1.8979 0.056-13.173-4.1735-18.138-6.2009 1.8306 6.6856 9.0989 18.257 13.282 18.108 3.8177-0.14016 11.007-11.541 13.075-18.079l2.9571-2.6997c-1.9792 8.1196-10.088 22.856-16.002 23.073-6.735 0.25231-14.756-16.299-15.705-21.431-0.30557-1.6316 0.44575-2.097 1.9092-1.4634 4.4505 1.9372 17.03 6.5668 18.524 6.5867 2.6801-0.22428 8.9702-5.9242 11.739-8.3372 1.8587-1.6232 2.7305-0.71207 1.1858 1.1971-2.5904 3.2043-9.4448 8.9604-12.778 9.2472"/>
   <path d="m167.55 217.43c-0.95878-2.097-2.4138-4.0846-4.2525-5.8351l-5.5186-1.5139c4.1242 2.4334 7.091 5.8054 8.347 9.4846z"/>
   <path d="m87.406 268.78c0.47378-2.9274 2.7502-20.631 2.9969-28.562 0.08407-2.4222 1.5531-2.4418 1.6428 0.0841 0.25232 7.5362-1.8503 25.615-2.3549 28.671-0.41491 2.5624 9.2273 5.7462 12.412 3.0263 3.1054-2.6493 13.737-19.849 17.159-20.947 1.9988-0.64199 2.5315 0.28035 0.75132 1.3653-3.1253 1.9091-13.084 18.603-16.486 21.442-4.213 3.5405-16.981 0.19624-16.121-5.0835"/>
   <path d="m9.7713 157.15c-9.4249-9.0296-17.377-24.26-20.68-28.275-4.3414-5.301-12.204 0.60274-11.205 5.2811 0.47379 2.2259 2.4222 10.286 3.9461 14.37 1.0877 2.9175 2.4026 2.5231 1.6428-0.37566-1.099-4.1934-2.9175-12.283-3.3725-14.42-0.57471-2.6605 4.5295-6.7448 7.3285-3.3327 1.6905 2.0774 11.166 18.741 20.393 27.82 1.0177 0.99802 1.2251 1.2055 1.9288 1.5138 15.517 6.7353 29.363 12.56 31.915 13.085l0.93916-2.3044c-2.4334-0.50462-16.862-6.5076-32.835-13.361"/>
  </g>
 </g>
</svg>
