<?xml version="1.0" encoding="UTF-8"?>
<!-- Created with Inkscape (http://www.inkscape.org/) -->
<svg version="1.1" viewBox="0 0 265.71 355.21" xmlns="http://www.w3.org/2000/svg">
 <g transform="rotate(6.047 -147.27 504.34)">
  <path d="m47.789 134.2c-47.08-1.4943-81.756 41.006-77.762 69.189 1.7891 12.495 45.602 47.062 113.84 30.079 94.106-23.404 103.03-83.106 82.322-113.77-23.093-34.183-94.544-16.891-118.4 14.502" fill="#bfddad"/>
  <path d="m164.37 116.51c-22.911-0.31024-61.417 23.44-66.051 31.338-1.3702 2.3165 0.20683 3.485 3.392 3.7591 13.826 1.241 52.443-8.3724 69.225-22.418-0.89453-2.3372-4.3951-9.4122-6.5668-12.678" fill="#3f8979"/>
  <path d="m175.24 148.06c-18.369 0.31024-57.259 18.588-61.673 27.161-1.1841 2.2958-0.10344 4.452 2.7198 4.907 16.527 2.7198 46.697-7.5332 57.97-17.639 0.78594-4.2348 1.4064-9.8869 0.9876-14.429" fill="#3f8979"/>
  <path d="m157.67 110.55c2.6267-10.489 1.8615-23.33 1.0031-33.162-1.8046-20.74 8.2814-89.071 48.01-116.12 2.8077-1.9132 3.485 0.01809 1.4788 2.151-36.555 39.255-44.435 100.42-39.401 124.62 1.4064 6.6764 2.3165 21.561-0.58428 26.486-0.67736 1.1686-2.0062 2.6836-2.8646 3.4489-1.4943-2.4096-4.3951-5.1986-7.6428-7.4241" fill="#bfddad"/>
  <g fill="#ebf4ec">
   <path d="m204.59-32.39c-25.683 28.985-41.681 82.431-36.281 116.3 1.241 7.8439 3.3765 24.187-0.10344 30.608-0.80145 1.3289-2.0269 2.6836-2.8801 3.4644l0.87385 1.7167c4.0124-0.636 7.1144-3.1541 10.288-5.1604 8.1356-5.1242 26.377-10.999 38.598-6.2746-0.71355-8.7555-0.51707-24.918 1.5512-33.217 0.64116-2.6629 0.0367-5.2896-2.151-8.1904-7.9898-10.525-22.291-53.921-9.8869-99.249"/>
   <path d="m154.86 197.37c-4.2865 4.1572-14.629 12.532-19.846 15.705 17.292 10.963 31.375 33.18 37.942 49.652 10.798 27.033 30.754 47.263 49.889 50.965 4.8708 0.94624 5.8739-2.151 2.8646-5.8915-3.0093-3.7384-13.754-24.151-9.0477-40.313 5.5456-19.117 5.2715-32.086-1.7529-45.366-5.0156-9.5037-9.7038-23.987-6.2927-31.648 1.0755-2.4457 5.983-8.6278 4.907-10.762-1.7684-3.485-19.481 1.2927-28.292 7.2783-7.1867 4.907-20.12 13.17-30.371 10.379"/>
   <path d="m51.016 237.92c0.52741 16.089 21.069 40.897 36.756 29.934 9.7406-6.8222 2.1872-26.267-15.341-32.086-4.452 0.69287-13.717 2.0993-21.415 2.151"/>
   <path d="m-15.785 219.89c-5.8734 2.151-8.5916 8.2452-6.8403 11.109 1.7529 2.8646 11.729 2.0786 18.223-4.302-3.3196-1.6081-8.8651-5.0518-11.382-6.8041"/>
  </g>
  <g fill="#cad3cc">
   <path d="m53.763 248.58c8.0627 4.7777 26.541 1.97 33.691-1.8046-2.6629-3.211-8.0627-8.9386-15.268-10.854-5.0001 0.98759-16.399 2.5698-21.069 2.0993 0.10343 2.2079 1.4426 7.5337 2.6474 10.562"/>
   <path d="m-22.729 228.84c2.5905-2.8801 6.7493-5.8005 10.215-6.8584 1.4788 1.0962 5.454 3.6453 8.1718 4.8139-7.1867 7.0409-18.879 7.8801-18.387 2.0424"/>
   <path d="m181.31 261.24c3.4644 14.666 16.198 39.145 27.471 46.788-13.115-4.9587-31.684-31.775-35.497-44.909-3.7953-13.115-24.808-43.961-38.726-49.98 2.4974-1.2772 14.137-9.3398 19.791-15.432 5.3998 1.3496 8.6102-0.36195 15.213-1.7167-4.7415 12.952 9.0296 53.739 11.747 65.248"/>
   <path d="m170.29 103.07c0.10343-10.525-2.3165-20.485-2.6629-30.554-0.15512-4.1055 0.25853-19.755 2.1717-26.687 4.2658 34.512 35.862 47.792 45.001 61.819-8.6464-1.4064-23.567-1.4219-35.917 5.4902-2.5698 1.4426-9.4122 6.7131-12.714 6.3848l-0.76525-1.241c1.334-1.8976 4.7984-5.7643 4.8863-15.213"/>
  </g>
  <path d="m-29.655 203.71c22.163 37.923 82.869 40.751 129.89 25.264 47.974-15.797 68.641-42.465 73.803-65.85-7.3693 5.0001-19.281 10.817-29.569 13.991-45.439 38.671-133.71 63.515-174.13 26.595" fill="#a5c096"/>
  <path d="m175.31 148.07c-0.31024-5.0156-1.2772-9.6676-2.8439-13.754-0.59979 4.7777-2.151 9.5761-4.4882 14.355 2.4095-0.36196 4.8708-0.62049 7.3331-0.59981" fill="#a5c096"/>
  <path d="m167.98 148.67c-4.7984 9.8321-13.024 19.5-23.513 28.438 10.288-3.1541 22.199-8.9929 29.569-13.973 1.1686-5.2534 1.5305-10.324 1.2772-15.067-2.4612-0.0181-4.9225 0.20683-7.3331 0.5998" fill="#2c7363"/>
  <path d="m51.158 130.36c7.7157 1.1117 22.437 7.0228 27.526 15.633-5.4359-5.2534-17.092-12.203-31.429-11.729 1.1117-1.4064 2.3889-2.6836 3.9039-3.9039" fill="#a5c096"/>
  <path d="m161.9 113.84c3.5574-8.5549 3.0094-19.919 2.4096-28.383-0.60497-8.4458 0.0516-41.17 10.726-63.771-4.5967 15.395-10.051 42.684-6.3662 63.826 2.0786 11.911 3.1541 26.194-3.2679 32.779-1.1841-1.7529-2.4612-3.3041-3.5006-4.452" fill="#a5c096"/>
  <g fill="#0f141b">
   <path d="m45.926 134.02c32.159-38.707 102.97-45.366 121.34-15.176 22.619 37.193 6.074 87.94-70.976 112.62-22.619 7.2416-47.245 11.072-78.637 4.5399-26.814-5.5818-46.934-23.44-48.648-32.907-4.2865-23.477 17.949-47.737 35.168-58.645 19.062-12.094 57.186-18.004 74.405 0.96693 1.0755 1.1841 0.20683 1.9132-0.93073 0.80145-17.42-17.292-53.501-11.765-72.198 0.10344-16.618 10.544-37.996 34.695-34.02 56.401 1.6236 8.9019 20.867 25.592 46.806 30.992 24.79 5.1604 52.151 3.485 77.507-4.5399 77.78-24.644 89.965-74.423 69.28-108.99-17.366-29.022-85.496-20.776-116.58 14.137z"/>
   <path d="m-29.79 201.76c8.2266-6.0011 24.005-1.6236 29.332 10.707 0.76526 1.8046-0.31025 2.1872-1.1324 0.51707-5.4541-11.328-20.776-14.721-27.744-9.2302z"/>
   <path d="m167.63 180.1c-15.906 16.125-68.933 33.253-88.414 36.865-0.58428 0.10344-0.71355 0.0367-1.0031-0.25853-4.5037-4.726-13.152-14.666-17.584-20.393-1.7167-2.2234-3.8108-3.1748-7.4427-2.4612-3.2265 0.64117-16.271 5.2534-20.211 6.6583-9.5399 3.392-28.511 8.5911-35.351 9.7224l-1.1479-1.7529c5.6547-0.76526 25.118-6.4029 35.88-10.233 3.9401-1.4064 17.165-5.9282 20.485-6.5849 3.8108-0.74975 6.7674 0.0516 9.376 3.3765 4.452 5.6366 12.75 14.976 17.292 19.792 24.279-4.5968 77.634-23.02 89.855-38.945z"/>
   <path d="m-3.6747 227.46c-5.7824 5.6547-16.417 8.4272-19.609 4.0331-2.4457-3.392 0.89453-9.9045 6.8589-12.075l1.4788 1.2048c-5.6728 1.9132-8.1356 7.6976-6.6759 9.7954 1.8615 2.6991 10.944 1.1686 16.472-3.9763z"/>
   <path d="m73.59 235.73c16.399 4.8863 26.249 25.738 14.976 33.217-14.793 9.8321-36.044-8.5735-38.306-30.937l1.6753-0.0516c2.0786 18.423 21.141 38.835 35.333 29.076 10.471-7.2048-0.91004-26.759-16.964-30.627z"/>
   <path d="m87.62 268.33c-9.7406-0.5481-24.443-19.901-27.909-30.827l1.515-0.0517c3.7591 10.799 20.047 30.281 28.2 29.35z"/>
   <path d="m90.1 251.22c-6.3843-1.4943-19.39-3.6143-24.863-4.452l-0.89453-1.6753c5.7824 0.72908 18.679 2.7198 25.045 4.1417z"/>
   <path d="m164.78 117.59c-19.555-0.76527-58.426 20.795-65.23 29.988-1.4064 1.877-0.62049 2.8284 0.74975 3.0817 12.623 2.2803 56.821-10.16 70.301-22.108l0.51706 1.6236c-14.684 13.316-58.317 24.972-71.341 22.108-2.9732-0.65669-3.5574-3.2265-1.6391-5.6909 8.5187-10.945 44.18-30.937 65.467-30.59z"/>
   <path d="m175 148.98c-13.973-0.67219-52.826 16.125-60.159 25.921-1.789 2.4096-0.51707 4.1572 2.4251 4.7053 13.59 2.5336 47.956-8.6459 56.62-18.314l-0.41366 2.8801c-10.16 9.6682-42.411 19.664-56.565 17.037-5.5089-1.0238-6.0378-3.9246-3.4644-7.3512 8.6459-11.601 45.949-27.435 61.454-26.504z"/>
   <path d="m154.42 197.08c12.112 1.3858 22.309-6.0926 30.335-11.474 10.635-7.1138 26.997-9.9412 29.35-6.5668 0.87386 1.241 0.98244 3.03-4.1055 10.78-4.0848 6.2022-0.56361 20.503 4.9794 30.317 7.7162 13.717 8.938 28.858 3.5368 44.654-5.088 14.94 0.5998 32.688 8.2266 43.031 3.5368 4.8139 1.3496 7.406-2.8646 7.0957-17.53-1.3289-40.769-21.579-51.859-52.005-5.6185-15.359-24.024-42.483-38.27-49.269l1.6805-1.2203c14.885 7.588 32.962 34.749 38.507 49.908 10.416 28.566 34.512 49.524 50.017 50.692 2.8801 0.20683 3.7022-0.9876 1.2927-4.2658-7.8072-10.58-13.937-29.277-8.7012-44.636 5.2715-15.45 4.0124-29.733-3.5212-43.122-5.8553-10.361-9.0291-25.355-4.6329-32.05 3.7953-5.7457 4.5606-8.2633 4.1779-8.7374-1.9494-2.4457-17.639 1.8046-26.687 7.6795-8.391 5.454-19.518 12.605-32.414 10.853z"/>
   <path d="m210.91 214.34c-10.762 4.2141-43.541 9.0291-68.805-6.2933l1.4426-1.3289c20.868 12.367 52.352 11.62 66.762 6.1836z"/>
   <path d="m216.34 284.99c-12.112-3.573-26.212-20.302-36.701-42.429-4.452-9.3941-12.276-21.944-19.08-27.964l2.8646 0.46536c6.6035 6.421 13.553 17.785 17.803 26.76 9.1935 19.39 25.227 38.051 35.005 41.334z"/>
   <path d="m164.72 117.12c5.5999-4.4158 4.4313-18.059 3.1903-27.197-7.7524-56.857 19.573-107.18 40.13-127.23 1.2927-1.241 0.71355-1.9338-0.87385-0.85834-27.708 18.971-46.624 64.774-47.244 111.38-0.0516 6.2933 2.2596 26.76-0.93071 38.033l-2.0631-1.3857c2.5905-10.616 0.51707-30.79 0.60497-36.682 0.636-46.989 20.649-93.54 48.667-112.71 3.997-2.7353 5.6361 0.74975 2.9732 3.4282-18.624 18.679-46.77 69.243-39.072 125.64 1.5305 11.255 2.4251 24.242-4.1572 29.386z"/>
   <path d="m166.19 119.7c5.9649-4.3589 13.462-8.9929 21.069-11.437 8.7923-2.8077 19.244-3.8315 26.796-1.422-1.3496-11.984 0.41364-24.553 1.7684-32.232 0.52741-2.9938-0.41364-4.3951-1.7322-6.3662-17.766-26.668-18.806-75.244-10.197-100.14l2.7353-2.5543c-9.4856 23.822-7.6976 74.423 9.376 101.75 1.2927 2.0631 2.5181 3.9763 1.8614 7.4789-1.2565 6.6945-3.0817 22.108-1.696 33.381 0.10343 0.95141-0.52742 1.5305-1.2927 1.241-7.2416-2.7198-17.912-1.4943-26.741 1.241-6.7126 2.0786-14.355 6.4758-20.776 11.401z"/>
   <path d="m216.45 70.577c-11.984 7.8801-41.662 35.752-50.053 48.941l-1.4064-1.8046c9.3579-14.757 37.759-40.277 50.601-48.74z"/>
  </g>
  <path d="m-3.2936 161.3c0.51707-16.8 9.6128-41.517 16.071-48.412 2.6991-2.8801 5.1086-3.8677 7.497 0.83765 3.0455 5.9463 6.3481 19.937 7.862 29.751 0.41366 2.756 1.2565 5.4902 2.3372 7.7157 2.1872 4.4675-33.965 17.201-33.764 10.106" fill="#bfddad"/>
  <path d="m56.501 216.33c-2.1148 4.9639 44.964 29.295 53.41 24.26 5.2534-3.1386 4.452-15.523-0.10344-19.992-7.0228-6.8951-51.185-9.3031-53.319-4.2658" fill="#ebf4ec"/>
  <path d="m32.163 174.52c-8.9381 0.5481-15.177 12.185-14.739 21.926 0.51707 11.437 6.512 24.862 15.997 23.969 7.6614-0.72906 13.991-11.529 13.572-23.257-0.36194-10.908-6.3113-23.166-14.83-22.637" fill="#fff"/>
  <path d="m15.533 110.73c3.3196 2.5336 6.3662 15.687 6.7674 22.546 0.25853 4.8708 2.8801 15.705 4.5605 18.278 1.6805 2.5698 4.8708 1.4943 3.5936-1.4219-2.2596-5.2534-4.0487-14.228-4.5761-18.88-0.83765-7.4422-5.4173-22.236-10.342-20.521" fill="#a5c096"/>
  <path d="m56.802 215.98c11.2 9.7044 43.833 20.813 48.557 19.226 2.9938-1.0031 6.8408-4.1417 6.9685-10.598 2.0269 5.9287 1.241 14.903-2.3165 16.034-11.145 3.573-52.607-16.837-53.209-24.662" fill="#cad3cc"/>
  <path d="m18.535 198.56c0.5998 11.765 7.953 21.506 15.067 20.703 7.4789-0.85834 13.261-11.455 12.404-22.801-0.89453-11.875-7.0771-21.232-13.881-20.886-6.8222 0.36195-14.374 8.0446-13.59 22.984m15.213 22.874c-8.5187 0.96693-16.436-10.434-17.074-22.764-0.636-12.203 5-24.498 15.322-25.136 7.6976-0.46537 14.83 9.5399 15.833 22.783 0.89453 11.948-5.983 24.206-14.082 25.118" fill="#0f141b"/>
  <path d="m32.308 189.83c-2.2596 0.0516-3.9763 3.5936-3.6298 8.1356 0.31024 3.9763 2.0786 7.406 3.9556 7.2416 2.4819-0.20683 4.0486-3.5212 3.8108-7.6976-0.25853-4.2348-1.7167-7.7343-4.1417-7.6795" fill="#0f141b"/>
  <path d="m32.433 191.3c-1.06 0.0518-2.0993 1.3702-1.8976 3.1179 0.15513 1.422 0.94624 2.7922 1.9856 2.7198 1.241-0.10344 2.2234-1.422 2.0786-2.9732-0.15512-1.9907-1.2203-2.9214-2.1717-2.8646" fill="#fff"/>
  <path d="m16.23 111.59c-4.6536 0.52741-17.584 27.58-18.879 48.886-0.15513 2.2234-1.1686 2.2648-1.241 0-0.72908-21.506 13.061-49.889 19.882-50.838 5.8372-0.78594 9.8321 14.028 12.021 28.055 0.98243 6.348 1.4788 9.4856 2.5336 12.313 0.74975 1.97-0.10344 2.5336-1.0393 0.636-1.2772-2.5698-2.2958-6.6035-3.4489-12.732-2.5698-13.699-5.6185-26.814-9.8321-26.322" fill="#0f141b"/>
  <path d="m57.575 216.69c-0.67736 4.3796 43.797 27.562 52.005 22.966 4.1055-2.2958 3.9401-14.903-0.76528-18.515-11.255-8.6283-50.838-7.0409-51.239-4.452m-1.9855-0.46536c1.0962-4.8708 42.447-5.4908 54.559 3.1386 6.1107 4.3589 6.4753 18.843 0.36196 22.236-10.106 5.5818-56.383-18.824-54.906-25.373" fill="#0f141b"/>
 </g>
</svg>
