<?xml version="1.0" encoding="UTF-8"?>
<!-- Created with Inkscape (http://www.inkscape.org/) -->
<svg version="1.1" viewBox="0 0 54.342 47.156" xmlns="http://www.w3.org/2000/svg">
 <g transform="translate(-14.033 -25.822)">
  <g transform="matrix(.34863 -.053968 -.053968 -.34863 49.763 30.851)">
   <path d="m0 0s10.02-1.53 27.298-13.685c0 0 16.329-12.982 17.213-18.543 1.322-8.327-9.768-15.091-32.321-5.596l-5.69 3.34-0.752-5.763 2.312-13.621s1.756-4.621 3.294-5.502c1.54-0.88 5.136-2.537 5.337-4.173 0.533-4.329-6.152-12.195-18.863-10.755 0 0 2.733-16.797 0.567-29.202l-12.998-3.824s-4.374-0.401-7.108 1.598-3.153 6.275-3.892 7.71c-0.737 1.434-4.558 8.432-7.074 9.991 0 0-5.56-0.884-7.367-3.654 0 0-1.844-6.263-2.504-7.142s-3.703-10.423-3.703-10.423l-14.148-0.815s-5.147 0.839-6.826 3.146c-1.678 2.307-3.362 8.413-3.632 11.862l-2.595 0.575s-6.709-6.075-7.838-8.968l-11.859 0.766s-4.777 0.672-6.082 7.21c-1.306 6.538 0.33 27.538 4.549 34.767 0 0-1.789 7.345-0.686 11.024 0.512 1.707 5.333 0.726 5.333 0.726l3.163 5.822-7.188 34.01s11.44 12.81 37.617 15.429c0 0 12.521 13.812 32.007 11.553 13.994-1.623 23.599-15.223 24.436-17.863" fill="#a0d7e5"/>
  </g>
  <g transform="matrix(.34863 -.053968 -.053968 -.34863 51.413 33.312)">
   <path d="m0 0c16.152-7.628 43.307-28.029 37.467-34.795-2.459-2.849-17.813-4.064-34.321 8.098 0 0 1.225 17.696-3.146 26.697" fill="#8abac7"/>
  </g>
  <g transform="matrix(.34863 -.053968 -.053968 -.34863 33.872 41.442)">
   <path d="m 0,0 c -10.159,-7.021 -30.068,-9.369 -46.695,-4.37 0,0 16.948,-13.145 29.49,-6.886 C -4.663,-4.998 0,0 0,0" fill="#8abac7"/>
  </g>
  <g transform="matrix(.34863 -.053968 -.053968 -.34863 19.268 53.371)">
   <path d="m0 0s1.687-3.608 2.815-5.061l-2.327-5.515s-1.846 6.35-0.488 10.576" fill="#8abac7"/>
  </g>
  <g transform="matrix(.34863 -.053968 -.053968 -.34863 58.408 51.636)">
   <path d="m0 0c-1.716 1.387-6.661 2.772-13.661 0.787-7-1.986-7.855-3.71-10.616-3.4-6.183 0.695-13.518 13.952-15.498 16.817-1.98 2.864-3.017 2.49-3.242 0.542-0.195-1.703-3.091-2.722-7.685 2.33-1.832 2.014-2.447 1.889-1.747-0.375 0.893-2.895 4.226-7.97 12.603-6.78 0 0 10.2-17.421 18.632-20.702 8.431-3.281 17.547-1.029 21.726 5.171 1.638 2.432 1.253 4.183-0.512 5.61" fill="#8abac7"/>
  </g>
  <g transform="matrix(.34863 -.053968 -.053968 -.34863 40.76 64.956)">
   <path d="m0 0c-0.516-0.807 0.11 12.063 10.218 11.183 8.605-0.749 9.508-3.241 7.05-8.048-0.819-1.597-0.592-3.175 0.295-5.442 1.945-4.969 5.526-11.746 11.124-10.738 0 0-2.963-1.328-3.447-2.739 0 0-3.24-0.908-6.828 1.622-3.587 2.53-4.002 11.755-10.655 17.62 0 0-6.256-1.115-7.757-3.458" fill="#8abac7"/>
  </g>
  <g transform="matrix(.34863 -.053968 -.053968 -.34863 35.213 71.705)">
   <path d="m0 0c-3.294 2.055-6.967 5.484-5.426 18.314 1.344 11.192-5.191 17.175-14.347 13.419-8.272-3.392-15.443-9.371-8.842-16.383 1.117-1.187 2.099-3.407 1.695-7.959l2.233-1.211 1.885-1.826s2.816 5.653 8.008 8.865l1.948 0.09s2.416-10.768 4.716-12.822c2.3-2.055 6.28-2.633 6.28-2.633 1.313 2.09 1.994 2.198 1.85 2.146" fill="#8abac7"/>
  </g>
  <g transform="matrix(.34863 -.053968 -.053968 -.34863 36.736 37.614)">
   <path d="m0 0c-0.761-1.612-11.153-16.146-27.555-29.493-10.575-8.606-20.956-7.137-22.009-3.842l1.942 3.402s14.41-1.33 21.139 9.654c0 0 19.649 10.359 26.483 20.279" fill="#8abac7"/>
  </g>
  <g transform="matrix(.34863 -.053968 -.053968 -.34863 25.802 39.966)">
   <path d="m0 0c-0.321 0.464-9.919 0.757-18.766-6.387-8.846-7.142-6.869-14.965-5.458-17.007 1.412-2.042 5.746-6.726 15.639-4.072s12.301 6.512 13.544 8.88c0 0-7.402-2.784-11.512-1.304-4.109 1.481-2.828 6.045-1.613 8.486 1.666 3.346 8.486 10.94 8.166 11.404" fill="#e95520"/>
  </g>
  <g transform="matrix(.34863 -.053968 -.053968 -.34863 19.429 43.426)">
   <path d="m0 0s-0.295 4.596 3.739 8.481c4.035 3.886 5.185 5.298 5.185 5.298s-4.202 1.416-11.653-1.196c-7.453-2.613-11.54-9.003-12.006-12.893-0.467-3.888-1.572-10.823 8.788-13.607 0 0-1.637 6.138 5.947 13.917" fill="#e95520"/>
  </g>
  <g transform="matrix(.34863 -.053968 -.053968 -.34863 57.375 40.622)">
   <path d="m0 0c-0.589-1.17 2.831-7.13 8.581-10.209 7.766-4.159 16.682-4.998 20.334 0.645 3.35 5.174-0.484 12.476-5.019 17.374-1.254 1.357-9.884 8.419-13.574 8.793 0 0 0.085-0.769 5.774-7.067 5.687-6.3 4.297-10.619 2.767-11.178-8.776-3.206-18.274 2.812-18.863 1.642" fill="#e95520"/>
  </g>
  <g transform="matrix(.34863 -.053968 -.053968 -.34863 64.577 44.418)">
   <path d="m0 0s-14.893-1.714-23.806 6.678c0 0 8.661-1.958 11.433-1.187 0 0 3.705-3.983 12.373-5.491" fill="#e95520"/>
  </g>
  <g transform="matrix(.34863 -.053968 -.053968 -.34863 41.967 50.566)">
   <path d="m0 0c-1.718 0.425-3.432 1.268-4.542 2.875 0 0 1.078-9.926 5.282-10.979 1.849-0.462 3.663-0.03 5.117 0.601-0.84 3.049-2.844 5.684-5.857 7.503" fill="#ed8599"/>
  </g>
  <g transform="matrix(.34863 -.053968 -.053968 -.34863 45.398 52.026)">
   <path d="m0 0-3.138 5.335s-2.924-0.479-5.839 0.243c3.013-1.819 5.017-4.454 5.858-7.503 1.852 0.802 3.119 1.925 3.119 1.925" fill="#923000"/>
  </g>
  <g transform="matrix(.34863 -.053968 -.053968 -.34863 22.734 71.678)">
   <path d="m0 0c-0.114-0.628 4.177-3.052 6.971-3.346 2.793-0.293 5.25 1.301 5.337 1.779 0.088 0.48-1.884 3.067-4.797 3.383-2.912 0.315-7.396-1.187-7.511-1.816" fill="#fff"/>
  </g>
  <g transform="matrix(.34863 -.053968 -.053968 -.34863 34.637 72.473)">
   <path d="m0 0c-0.417-1.122 8.334-2.535 10.028-2.357 3.206 0.336 4.894 1.546 4.959 1.91 0.059 0.32-3.685 4.475-6.459 4.614-1.871 0.094-7.431-1.21-8.528-4.167" fill="#fff"/>
  </g>
  <g transform="matrix(.34863 -.053968 -.053968 -.34863 50.517 69.037)">
   <path d="m0 0c0.114-1.403 13.613 4e-3 15.187 1.443 0.504 0.461-2.145 3.072-6.804 3.296-1.637 0.079-8.508-3.213-8.383-4.739" fill="#fff"/>
  </g>
  <g transform="matrix(.34863 -.053968 -.053968 -.34863 62.807 36.746)">
   <path d="m0 0c4.65-2.406 12.367-8.058 13.421-13.564-0.593 6.05-4.564 14.661-21.05 22.496z" fill="#f4af86"/>
  </g>
  <g transform="matrix(.34863 -.053968 -.053968 -.34863 63.95 40.226)">
   <path d="m0 0c9.827-8.015 5.392-12.691-0.807-11.481 0 0-3.53-1.446-10.944 0.169-7.414 1.616-12.65 6.37-12.65 6.37s9.403-2.718 11.7-1.637c0 0-5.996 5.866-5.81 8.16 0.081 0.985 11.99-4.439 18.511-1.581" fill="#ca491a"/>
  </g>
  <g transform="matrix(.34863 -.053968 -.053968 -.34863 24.088 43.053)">
   <path d="m0 0c-2.367 0.458-9.086-1.772-13.389-5.43 0.104 2.333 1.488 7.847 7.335 10.916 3.933 1.805 11.699 3.328 12.106 2.544 0.44-0.851-2.709-3.898-6.052-8.03" fill="#f4af86"/>
  </g>
  <g transform="matrix(.34863 -.053968 -.053968 -.34863 20.282 40.392)">
   <path d="m0 0c-2.84 0.597-10.287-1.594-14.188-5.537 0.124 0.867 1.043 5.471 4.709 8.433 0 0 3.36 2.256 7.408 2.758 4.049 0.502 6.805 0.309 6.996-0.347s-4.076-3.212-4.925-5.307" fill="#f4af86"/>
  </g>
  <g transform="matrix(.34863 -.053968 -.053968 -.34863 23.853 47.055)">
   <path d="m0 0c-6.953-5.629-17.125-2.792-16.413 3.965-1.924-12.543 7.642-13.127 9.721-13.092 11.284 0.189 19.134 5.805 20.371 9.704 0 0-9.452-4.123-13.679-0.577" fill="#ca491a"/>
  </g>
  <g transform="matrix(.34863 -.053968 -.053968 -.34863 14.169 44.223)">
   <path d="m0 0c0.262-4.61 4.473-8.671 9.743-8.31-0.8-2.319-0.82-5.527-0.82-5.527-4.72 1.046-9.661 3.165-8.923 13.837" fill="#ca491a"/>
  </g>
  <g transform="matrix(.34863 -.053968 -.053968 -.34863 51.216 68.121)">
   <path d="m0 0s4.907-1.59 9.992-1.605c0 0-8.94-2.312-12.494-0.805 0 0 0.219 1.798 2.502 2.41" fill="#dbdcdc"/>
  </g>
  <g transform="matrix(.34863 -.053968 -.053968 -.34863 35.267 71.707)">
   <path d="m0 0c2.109-1.7 5.327-3.169 8.028-4.149 0 0-7.492 0.117-9.95 2.082 0 0 0.487 1.698 1.922 2.067" fill="#dbdcdc"/>
  </g>
  <g transform="matrix(.34863 -.053968 -.053968 -.34863 25.468 70.664)">
   <path d="m0 0c0.271-1.158 1.132-3.861-0.89-4.86 0 0 3.963 0.12 5.126 1.63 0.122 0.157-2.273 2.639-4.236 3.23" fill="#dbdcdc"/>
  </g>
  <g transform="matrix(.34863 -.053968 -.053968 -.34863 40.485 25.823)">
   <path d="m0 0c-11.844 1.692-23.052-1.797-33.811-11.959-0.201-0.191 1.346-0.388 1.548-0.198 7.961 7.52 18.931 12.71 32.061 10.834 20.055-2.865 34.735-27.349 29.252-57.373-0.05-0.273 0.889-1.189 0.939-0.917 6.232 34.117-10.644 56.849-29.989 59.613" fill="#0f141b"/>
  </g>
  <g transform="matrix(.34863 -.053968 -.053968 -.34863 53.833 42.661)">
   <path d="m0 0c1.97-1.39 3.819-2.635 5.888-3.647 0.249-0.123 0.837 0.962 0.588 1.084-2.026 0.992-3.981 2.031-5.898 3.383-0.225 0.16-0.805-0.66-0.578-0.82" fill="#0f141b"/>
  </g>
  <g transform="matrix(.34863 -.053968 -.053968 -.34863 49.83 31.049)">
   <path d="m0 0c7.681-1.87 18.831-7.717 27.385-14.285 0.219-0.169 1.428 0.546 1.209 0.714-8.654 6.645-20.786 12.811-28.587 14.711-0.27 0.066-0.276-1.075-7e-3 -1.14" fill="#0f141b"/>
  </g>
  <g transform="matrix(.34863 -.053968 -.053968 -.34863 58.487 40.854)">
   <path d="m0 0c1.826-0.512 14.243-4.527 17.069 0.088 1.58 2.579 0.938 6.48-7.185 14.794-2.185 2.237-2.268 2.58 0.162 1.285 10.676-5.693 20.374-16.87 14.735-24.682-4.512-6.253-19.06-3.144-25.698 6.204-2.126 2.994-1.776 3.065 0.917 2.311m9.428 17.463c-3.878 2.012-4.795 1.81-1.136-2.027 8.85-9.282 9.207-12.497 7.795-14.803-1.203-1.964-5.618-2.8-16.834 0.525-2.868 0.85-4.072 0.861-1.744-2.888 7.657-12.324 23.302-13.612 27.883-8.122 6.184 7.412-0.455 19.264-15.964 27.315" fill="#0f141b"/>
  </g>
  <g transform="matrix(.34863 -.053968 -.053968 -.34863 59.76 43.063)">
   <path d="m0 0c-1.982-0.281-5.727 0.18-8.437 0.891-5.009 1.316-4.291 0.25-0.754-2.185 3.765-2.596 13.67-6.623 23.801-4.862 0.275 0.048-1.938 0.968-2.214 0.935-9.121-1.08-17.499 2.358-20.83 4.573-1.475 0.981-1.49 1.035 0.062 0.636 3.744-0.959 7.569-1.351 9.351-1.005 0.272 0.053-0.705 1.056-0.979 1.017" fill="#0f141b"/>
  </g>
  <g transform="matrix(.34863 -.053968 -.053968 -.34863 43.632 49.655)">
   <path d="m0 0c9.507-15.986 16.52-22.708 24.925-23.743 6.213-0.765 14.336 2.337 16.06 8.014 0.762 2.508 0.093 3.469-3.764 5.413-1.867 0.941-3.112 3.259-4.585 6.453-0.116 0.253 0.995 1.014 1.087 0.752 0.953-2.708 2.346-5.631 3.928-6.348 4.467-2.025 5.604-3.407 4.669-6.374-2.328-7.387-12.638-9.992-17.825-9.19-8.84 1.367-15.96 7.983-25.461 24.558-1.608 2.806-0.864 3.541 0.966 0.465" fill="#0f141b"/>
  </g>
  <g transform="matrix(.34863 -.053968 -.053968 -.34863 39.754 48.986)">
   <path d="m0 0c2.041-4.081 5.927-5.625 11.223-5.332 0.277 0.016 0.581-1.023 0.304-1.038-6.996-0.389-10.63 1.572-12.485 6.088-0.973 2.365-0.354 2.904 0.958 0.282" fill="#0f141b"/>
  </g>
  <g transform="matrix(.34863 -.053968 -.053968 -.34863 39.931 49.712)">
   <path d="m0 0c2.212-13.103 6.57-14.473 14.634-9.227 0.232 0.151-0.349 0.959-0.585 0.816-6.446-3.925-10.559-4.426-12.911 7.87-0.052 0.272-1.184 0.814-1.138 0.541" fill="#0f141b"/>
  </g>
  <g transform="matrix(.34863 -.053968 -.053968 -.34863 57.47 53.859)">
   <path d="m0 0c-0.014-0.596-7e-3 -0.834-0.118-1.408-0.27-1.384-1.242-1.306-0.991 0.129 0.125 0.716 0.145 0.687 0.336 1.43 0.392 1.529 0.816 1.731 0.773-0.151" fill="#0f141b"/>
  </g>
  <g transform="matrix(.34863 -.053968 -.053968 -.34863 53.955 54.858)">
   <path d="m0 0c0.786 0.673 1.565 1.314 2.224 1.932 1.317 1.236 1.128 1.67-0.452 0.763-0.964-0.553-1.957-1.22-2.723-1.987-1.19-1.19-0.56-2 0.951-0.708" fill="#0f141b"/>
  </g>
  <g transform="matrix(.34863 -.053968 -.053968 -.34863 36.878 37.561)">
   <path d="m0 0c-4.804-7.156-16.031-16.34-27.413-21.405-0.253-0.113-1.024 1.003-0.771 1.115 10.976 4.885 22.11 13.886 27.25 20.716 2.658 3.53 3.102 2.803 0.934-0.426" fill="#0f141b"/>
  </g>
  <g transform="matrix(.34863 -.053968 -.053968 -.34863 30.94 31.643)">
   <path d="m0 0c-9.308-0.458-27.865-3.623-40.737-15.658-0.202-0.19-3.505-2.073-3.329-1.858 11.451 14.06 34.771 18.346 43.982 18.533 5.01 0.102 4.716-0.789 0.084-1.017" fill="#0f141b"/>
  </g>
  <g transform="matrix(.34863 -.053968 -.053968 -.34863 18.817 49.344)">
   <path d="m0 0c-2.295 3.779-1.114 9.132 3.157 14.318 4.309 5.232 13.133 8.166 18.021 8.578 2.204 0.185 1.973-0.254 0.196-2.167-1.599-1.722-3.79-4.081-5.319-6.649-5.802-9.744-0.356-12.507 5.895-11.638 3.845 0.535 5.362 1.738 5.554 1.406 0.161-0.281-3.582-5.642-13.317-7.717-6.562-1.398-11.866 0.048-14.187 3.869m22.481 23.937c-3.807 0.16-15.172-2.478-20.584-9.047-8.859-10.756-3.851-23.216 12.907-19.806 8.523 1.735 13.258 6.955 14.566 9.466 0.269 0.514 0.707 1.433-1.851 0.336-5.058-2.167-10.611-1.79-12.084 0.463-2.03 3.103 1.505 9.13 6.674 14.697 2.896 3.116 3.06 3.777 0.372 3.891" fill="#0f141b"/>
  </g>
  <g transform="matrix(.34863 -.053968 -.053968 -.34863 21.267 37.979)">
   <path d="m0 0c-23.341 1.588-31.715-25.324-13.374-29.199 0.271-0.057 0.264 1.265-7e-3 1.323-15.35 3.282-9.327 26.533 11.195 27.019 3.035 0.072 2.78-0.239 1.467-1.383-5.565-4.853-7.634-8.585-7.615-12.505 1e-3 -0.277 1.189 0.252 1.221 0.527 0.631 5.509 4.935 9.303 7.419 11.468 2.874 2.507 1.882 2.601-0.306 2.75" fill="#0f141b"/>
  </g>
  <g transform="matrix(.34863 -.053968 -.053968 -.34863 52.681 56.784)">
   <path d="m0 0c1.656-7.613 2.551-24.327 0.839-29.622-0.086-0.264 1.04-0.447 1.125-0.183 1.633 5.049 1.268 21.405-0.453 29.32-0.059 0.271-1.57 0.756-1.511 0.485" fill="#0f141b"/>
  </g>
  <g transform="matrix(.34863 -.053968 -.053968 -.34863 53.473 67.127)">
   <path d="m0 0c3.21-0.248 5.204-1.756 5.217-2.294 0.024-1.019-13.552-2.364-13.718-1.58s5.589 4.098 8.501 3.874m5.136-0.785c-1.53 1.168-4.586 1.916-6.074 1.768-3.084-0.306-7.213-2.754-8.548-4.216-1.145-1.252-0.642-1.727 1.841-1.796 2.95-0.08 9.994 0.409 13.065 1.409 1.339 0.437 2.074 1.034-0.284 2.835" fill="#0f141b"/>
  </g>
  <g transform="matrix(.34863 -.053968 -.053968 -.34863 43.075 63.473)">
   <path d="m0 0c4.027-4.131 6.134-7.992 8.04-13.142 1.86-5.023 3.273-6.072 10.56-6.408 0.276-0.012-0.023 1.065-0.3 1.077-5.68 0.262-7.681 1.502-9.307 5.77-1.407 3.694-3.619 8.972-7.648 13.103-0.194 0.199-1.538-0.201-1.345-0.4" fill="#0f141b"/>
  </g>
  <g transform="matrix(.34863 -.053968 -.053968 -.34863 41.043 64.15)">
   <path d="m0 0c-0.303-2.296-1.99-7.148-3.789-10.878-1.656-3.433-3.072-9.648-3.072-9.648-0.077-0.266-1.068 0.639-0.991 0.905 0 0 1.435 5.684 2.944 9.036 1.534 3.407 3.326 8.431 3.807 10.61 0.601 2.723 1.511 3.079 1.101-0.025" fill="#0f141b"/>
  </g>
  <g transform="matrix(.34863 -.053968 -.053968 -.34863 44.424 63.39)">
   <path d="m0 0c-5.443 0.387-8.121-0.532-10.914-3.407-0.193-0.198-0.182 1.217 0.012 1.416 3.142 3.235 6.853 3.684 10.579 3.023 3.05-0.541 3.307-1.244 0.323-1.032" fill="#0f141b"/>
  </g>
  <g transform="matrix(.34863 -.053968 -.053968 -.34863 35.141 71.994)">
   <path d="m0 0c1.116 1.159 4.282 2.691 6.932 2.458 2.508-0.221 5.499-3.542 5.448-4.047-0.03-0.296-3.072-1.211-4.179-1.242-2.059-0.055-6.683 0.733-7.93 1.188-1.145 0.417-1.512 0.354-0.271 1.643m6.925 3.458c-2.517 0.222-6.14-1.251-7.884-2.965-1.624-1.596-1.979-2.007 0.502-2.899 2.473-0.891 7.568-1.561 8.841-1.469 2.286 0.164 5.36 1.184 5.42 1.99 0.133 1.805-4.738 5.154-6.879 5.343" fill="#0f141b"/>
  </g>
  <g transform="matrix(.34863 -.053968 -.053968 -.34863 29.418 64.209)">
   <path d="m0 0c0.017-5.423 1.293-14.33 3.58-19.928 1.444-3.536 4.181-4.674 7.846-5.294 0.273-0.047 1.088-1.32 0.814-1.274-6.055 1.025-8.004 2.048-9.603 5.964-2.343 5.736-4.068 14.922-3.939 20.47 0.098 4.21 1.29 3.883 1.302 0.062" fill="#0f141b"/>
  </g>
  <g transform="matrix(.34863 -.053968 -.053968 -.34863 25.17 67.244)">
   <path d="m0 0c3.123-1.633 8.25-3.474 13.902-4.508 0.273-0.05 0.037 1.229-0.233 1.29-6.856 1.54-10.676 3.013-13.185 3.99-2.289 0.891-2.4 0.229-0.484-0.772" fill="#0f141b"/>
  </g>
  <g transform="matrix(.34863 -.053968 -.053968 -.34863 29.181 67.65)">
   <path d="m0 0c-4.538-4.019-7.278-7.083-8.068-9.103-0.101-0.258 0.647-0.949 0.747-0.691 1.012 2.65 4.093 5.377 8.422 9.004 0.211 0.179-0.894 0.974-1.101 0.79" fill="#0f141b"/>
  </g>
  <g transform="matrix(.34863 -.053968 -.053968 -.34863 25.459 70.839)">
   <path d="m0 0c2.058-0.616 3.748-2.294 3.676-2.706-0.065-0.366-3.508-1.345-4.55-1.201-2.859 0.395-6.313 2.32-6.254 2.73 0.016 0.102 4.065 2.095 7.128 1.177m4.181-1.611c-1.165 1.2-2.441 2.192-4.004 2.586-3.815 0.961-8.865-1.536-8.932-2.092-0.036-0.313 4.029-3.488 7.824-3.913 1.164-0.131 3.853 0.645 5.1 1.531 0.836 0.595 0.861 1.014 0.012 1.888" fill="#0f141b"/>
  </g>
  <g transform="matrix(.34863 -.053968 -.053968 -.34863 21.638 50.6)">
   <path d="m0 0c-5.697-7.074-11.774-27.253-12.55-36.774-1.61-19.759 2.021-21.899 7.298-23.799 0.262-0.093-0.044 1.317-0.305 1.41-3.908 1.407-7.297 5.136-5.658 22.744 0.879 9.422 6.951 29.381 12.726 36.034 0.18 0.21-1.337 0.601-1.511 0.385" fill="#0f141b"/>
  </g>
  <g transform="matrix(.34863 -.053968 -.053968 -.34863 19.077 53.122)">
   <path d="m0 0c-1.147-1.573-0.717-7.682 0.304-12.392 0.058-0.27 0.898 1.002 0.891 1.053-0.646 4.429-0.945 9.06 0.086 10.58 0.419 0.617 2.447 0.65 4.094 0.349 0.272-0.049 0.453 0.938 0.18 0.988-1.922 0.351-4.868 0.362-5.555-0.578" fill="#0f141b"/>
  </g>
  <g transform="matrix(.34863 -.053968 -.053968 -.34863 41.837 50.655)">
   <path d="m0 0c2.986-1.774 4.768-4.193 5.772-7.189 0.088-0.263 0.79-0.015 0.712 0.251-1.118 3.771-2.916 5.962-5.985 7.269-0.255 0.108-0.737-0.19-0.499-0.331" fill="#0f141b"/>
  </g>
  <g transform="matrix(.34863 -.053968 -.053968 -.34863 51.647 42.063)">
   <path d="m0 0c-0.841-4.607-0.302-5.742 0.463-5.882 0.891-0.162 1.683 0.976 2.481 5.344 0.954 5.223-0.137 5.929-0.551 6.004-0.962 0.176-1.658-1.44-2.393-5.466" fill="#0f141b"/>
  </g>
  <g transform="matrix(.34863 -.053968 -.053968 -.34863 51.846 41.237)">
   <path d="m0 0c-0.252-1.518-0.044-2.817 0.464-2.899 0.51-0.083 1.125 1.082 1.378 2.6 0.252 1.517 0.044 2.817-0.464 2.897-0.508 0.084-1.126-1.08-1.378-2.598" fill="#fff"/>
  </g>
  <g transform="matrix(.34863 -.053968 -.053968 -.34863 51.448 54.116)">
   <path d="m0 0c2.094 2.42 4.795 3.772 7.96 4.528 2.978 0.711 2.717 1.283-0.161 0.794-3.711-0.632-6.657-1.983-8.861-4.814-1.267-1.627-0.472-2.283 1.062-0.508" fill="#0f141b"/>
  </g>
  <g transform="matrix(.34863 -.053968 -.053968 -.34863 44.914 47.851)">
   <path d="m0 0c0.131-2.035 3.982-9.629 6.804-11.346 0 0 1.538 0.513 3.887 2.321 2.351 1.808 6.684 4.985 10.659 4.62 3.974-0.365 7.749-4.59 7.749-4.59s1.459 6.805-1.281 11.563c-2.738 4.758-6.157 9.351-13.891 8.888-6.47-0.388-14.17-7.677-13.927-11.456" fill="#e95520"/>
  </g>
  <g transform="matrix(.34863 -.053968 -.053968 -.34863 54.712 45.756)">
   <path d="m0 0c1.062-3.28-0.23-4.895-2.173-3.827-2.295 1.262-4.581 2.151-6.488 1.846-3.442-0.551-4.658 0.514-7.939 5.141-3.173 4.475-1.905 5.532 0.242 6.24 1.149 0.379 5.148 1.292 8.724-0.638 3.576-1.931 6.754-6.048 7.634-8.762" fill="#f4af86"/>
  </g>
  <g transform="matrix(.34863 -.053968 -.053968 -.34863 51.475 48.672)">
   <path d="m0 0c1.299 0.561-2.64 3.574-4.773 2.268-3.176-1.945-5.154-1.453-6.618-0.188-1.992 1.721-5.043 5.709-3.591 8.736 0 0-2.768-3.684-2.946-5.747-0.177-2.062 4.487-10.395 6.803-10.818 0 0 0.737-0.813 4.732 2.427 2.811 2.28 6.393 3.322 6.393 3.322" fill="#ca491a"/>
  </g>
  <g transform="matrix(.34863 -.053968 -.053968 -.34863 47.113 50.447)">
   <path d="m0 0c-1.88 2.592-4.425 6.726-4.253 8.112 0.585 4.709 6.42 9.037 9.523 10.138 2.855 1.012 10.05 2.602 15.178-4.482 3.388-4.68 3.698-9.207 3.46-11.726-0.168-1.766-0.311-1.701-1.441-0.651-4.039 3.759-9.57 4.442-16.659-1.245-4.127-3.31-3.864-2.828-5.808-0.146m4.271 18.985c-4.705-1.792-9.232-6.695-9.734-10.743-0.256-2.058 3.052-7.034 4.72-9.411 2.251-3.207 2.797-3.251 7.034 0.171 7.297 5.894 12.311 4.985 16.492 0.884 1.578-1.548 1.744-1.18 2.099 0.759 0.56 3.066-2e-3 8.627-3.621 13.627-5.525 7.634-13.595 6.007-16.99 4.713" fill="#0f141b"/>
  </g>
  <g transform="matrix(.34863 -.053968 -.053968 -.34863 53.891 47.271)">
   <path d="m0 0c-3.361 1.957-7.312 1.767-10.276-0.034-2.702-1.64-3.396-1.064-0.555 0.768 3.424 2.207 7.788 2.283 11.335-0.145 1.943-1.33 1.837-1.951-0.504-0.589" fill="#0f141b"/>
  </g>
  <g transform="matrix(.34863 -.053968 -.053968 -.34863 40.09 43.523)">
   <path d="m0 0c-0.866-4.743-2e-3 -6.372 1.151-6.583 1.121-0.205 2.334 0.899 3.203 5.938 0.891 5.171-0.09 6.329-0.934 6.482-0.851 0.156-2.592-1.307-3.42-5.837" fill="#0f141b"/>
  </g>
  <g transform="matrix(.34863 -.053968 -.053968 -.34863 40.468 42.607)">
   <path d="m0 0c-0.316-1.669-1e-3 -3.132 0.703-3.264 0.705-0.134 1.533 1.112 1.848 2.78 0.316 1.668 1e-3 3.131-0.704 3.262-0.704 0.135-1.533-1.111-1.847-2.778" fill="#fff"/>
  </g>
 </g>
</svg>
