<?xml version="1.0" encoding="UTF-8"?>
<!-- Created with Inkscape (http://www.inkscape.org/) -->
<svg version="1.1" viewBox="0 0 521.69 302.58" xmlns="http://www.w3.org/2000/svg">
 <g transform="translate(155.26 2.7138)">
  <path d="m-7.4103 50.596c-0.87366 2.9122-20.05 12.928-20.05 12.928-8.1502-3.4946-56.812-24.502-76.623-20.427 0 0 17.345-20.684 96.673 7.4998" fill="#aa003e"/>
  <path d="m-7.6739 51.072c0.09713-0.19407 0.24269-0.33976 0.24269-0.48536-79.311-28.183-96.673-7.4993-96.673-7.4993 10.016-2.0531 27.413 2.2957 43.217 7.5507 17.824-1.8152 35.683-2.0531 53.199 0.43683" fill="#87002e"/>
  <path d="m3.0497 28.52c-13.544 0-47.48-6.5237-78.112-5.6331-27.584 0.82026-44.998 5.9068-57.035 23.423-6.4038 9.3146 4.6575 5.2395 16.9-1.1649 12.242-6.4038 10.239-5.5137 33.56-4.9313 23.304 0.58243 35.889 3.0141 59.86 16.728 23.954 13.698 24.828-28.423 24.828-28.423" fill="#7e8387"/>
  <path d="m-75.854 32.407c-18.133-1.9026-38.406 6.4723-51.641 17.893 13.801-5.8559 24.126-11.198 38.834-10.821 23.304 0.58243 42.926 3.7518 66.88 17.465 23.954 13.698 24.828-28.423 24.828-28.423-1.3687 0-2.9607-0.04856-4.708-0.19406-20.188 19.262-48.851 5.4108-74.192 4.077" fill="#686d70"/>
  <path d="m-66.495 140.43c-21.471-2.8442-61.213-14.383-78.078-41.368-5.8216-9.3315-11.095-17.653-8.1503 5.8214 3.4931 27.978 25.855 67.291 77.137 79.534 0 0 34.621-40.597 9.0918-43.988" fill="#fff"/>
  <path d="m-150.78 114.81c7.0202 26.642 29.742 58.764 75.202 69.603 0 0 19.622-22.242 18.286-35.289-60.288 35.049-90.543-45.785-93.488-34.314" fill="#dcdddd"/>
  <path d="m290.08 103.86 5.8559-12.962c9.6228 5.753 21.557 7.5852 29.724 4.0916 8.1502-3.5092 6.695 3.7664 4.9482 9.5888-1.7473 5.8384-14.28 28.868-29.998 32.943z" fill="#7e8387"/>
  <path d="m331.22 94.901c-2.587 11.951-12.311 21.591-24.571 16.146-6.0782-2.2763-10.958-6.9174-14.091-12.671l-2.485 5.4792 10.53 33.663c15.736-4.077 28.252-27.104 29.999-32.943 1.1115-3.6645 2.087-7.9104 0.6164-9.6742" fill="#686d70"/>
  <path d="m304.68 233.08c9.914 9.897 9.9824 15.615 8.9379 17.105-4.6934 6.6951-19.502 3.2859-25.324 3.2859z" fill="#dcdddd"/>
  <path d="m229.19 238.98c-5.8214 5.8214-15.102 13.476-7.6881 15.119 8.5443 1.9026 17.037-0.33974 17.037-0.33974z" fill="#fff"/>
  <path d="m239.13 253.92-6.6436-8.2186c-5.2734 2.7374-6.2155 4.7274-10.136 8.8865 7.5507 1.2668 16.78-0.66979 16.78-0.66979" fill="#dcdddd"/>
  <path d="m1.529 212.63c-7.6706-34.827 17.739-107.77 57.48-125.68 39.741-17.893 178.02-41.419 199.51-37.755 21.489 3.6645 35.855 57.326 35.855 57.326 4.077 12.242 11.523 22.601 7.3969 85.766-1.3687 20.941 5.8214 40.203 0.58245 47.789-5.2565 7.5682-16.317 20.975-41.95 20.975-25.649 0-34.211-23.03-35.546-41.95-6.4208 7.5682-20.975 13.989-50.117 17.482-5.2395 9.8965-9.9824 27.413-15.222 42.566-5.2565 15.153-26.266 20.153-52.583 19.092-35.187-1.4221-45.238-17.962-36.505-27.858 0.88822-4.3828 0.29122-12.533 0.73774-23.612-14.434 7.8764-28.492 5.8728-28.492 5.8728s-33.474-5.188-41.145-40.015" fill="#c5d7e7"/>
  <g fill="#a6b6c3">
   <path d="m186.48 211.82c-6.3524 0-7.825-10.958-10.958-2.6015-5.8559 15.632-12.088 51.812-32.841 61.658-24.502 0.52905-48.337-0.0971-66.126 5.3593-3.9751 0.995-6.4208 3.184-8.1162 6.0098 3.3538 7.7396 15.599 15.068 38.508 15.993 26.3 1.0775 47.327-3.9363 52.566-19.092 5.2394-15.136 9.9819-32.67 15.221-42.566 29.143-3.4946 43.714-9.914 50.117-17.482 0.38829 5.4622 1.3881 11.25 3.2034 16.746 10.907-15.256 24.656-45.922 19.451-47.498-4.8628-1.4561-25.564 23.475-61.024 23.475"/>
   <path d="m136.94 157.58c-10.427-37.549-50.066 26.591-55.802 26.591-48.234 28.423-69.894-4.2275-37.447-47.669 8.5273-11.404 27.893-22.105 40.255-26.934 49.347-19.263 106.19-13.013 120.73-41.299-12.996-3.3732-26.197-6.0097-38.8-8.3215-42.309 7.6536-86.947 18.03-106.86 27.002-39.741 17.91-65.151 90.852-57.48 125.68 7.6711 34.827 41.145 40.015 41.145 40.015s13.116 1.8298 27.019-5.1196c5.7874-10.034 15.342-46.094 44.844-45.186 33.371 1.0435 40.648-20.239 22.396-44.758"/>
   <path d="m301.77 192.29c4.1256-63.165-3.3053-73.781-7.3969-86.023 0 0-14.366-53.422-35.855-57.069-6.712-1.1455-24.879 0.33974-47.857 3.5286-1.3008 5.8044-3.3393 10.958-5.9758 15.53 45.426-2.9947 95.492 25.17 89.242 107.58-1.8153 23.869-6.7805 32.327-15.119 33.902-8.5788 12.859 2.0725 40.683-33.749 47.857 4.2615 2.1744 9.3315 3.4606 15.342 3.4606 25.632 0 36.71-13.407 41.95-20.992 5.2395-7.5682-1.9511-26.831-0.58243-47.772"/>
   <path d="m165.87 59.941c12.602 2.3297 25.821 4.9657 38.817 8.3215 2.6355-4.5721 4.674-9.7256 5.9758-15.53-13.681 1.8832-29.074 4.3682-44.792 7.2086"/>
  </g>
  <path d="m65.965 245.39c-3.4946 2.3297-8.9209 3.4266-7.1741 5.753 1.7473 2.3297 5.2395 4.6595 9.8965 5.8389z" fill="#dcdddd"/>
  <path d="m30.233 242.99c3.4946-1.7473 8.7836-1.3882 15.615 1.2668 6.0787 2.3637 15.856 5.7185 11.181 9.8111-4.6595 4.077-10.257 5.188-17.842 4.0236z" fill="#dcdddd"/>
  <path d="m17.875 230.1-3.2374-11.198c3.4946 2.3297 14.434 2.519 15.599 5.4453 1.1649 2.9122 4.6595 11.643 2.3297 14.554-2.3297 2.9267-2.9122 4.0916-6.4038 2.9267z" fill="#686d70"/>
  <path d="m74.231 220.52-11.952-4.3343c-3.4946 2.9122-15.153 4.077-13.989 9.8965 1.1649 5.8389 4.674 19.229 9.914 18.064 5.2395-1.1649 6.9858-2.9122 6.9858-2.9122z" fill="#686d70"/>
  <path d="m61.698 113.05c0 6.4038 1.1649 14.571-2.9122 18.064-4.077 3.4946-13.407 6.9858-24.468 5.8214z" fill="#fff"/>
  <path d="m61.847 120.91c0.01755-2.6355-0.1457-5.3763-0.1457-7.8589l-27.379 23.886c3.3587 0.33976 6.1301 0.33976 9.0578 0 5.719-6.6436 10.411-11.712 18.475-16.027" fill="#dcdddd"/>
  <path d="m75.948 270.47c-8.1502 0.58243-19.485 2.2278-18.321 5.719 1.1649 3.5092 10.684 10.479 15.342 9.8965 4.6595-0.58243 3.6305-5.4962 5.9583-10.153z" fill="#fff"/>
  <path d="m75.948 270.47c-0.63098 0.0486-1.3008 0.0971-1.9851 0.1457 0.82024 7.0887-7.0372 9.2291-13.732 9.0238 3.4606 3.3199 9.366 6.8659 12.739 6.4378 4.6595-0.58243 3.6305-5.4962 5.9583-10.153z" fill="#dcdddd"/>
  <path d="m129.35 274.47c-0.0971 2.1065 20.187 15.992 23.835 8.1332 2.8588-6.1811-0.24269-12.636-2.3783-13.493-4.8968-1.9706-21.351 3.1694-21.454 5.3594" fill="#fff"/>
  <path d="m151.4 269.71c-1.0096-0.38829-2.9122-0.73774-4.9143-0.73774-5.2734 4.606-9.6058 5.7874-15.941 7.8934 8.1672 4.8628 20.204 11.01 22.636 5.753 2.8588-6.1981 0.38829-12.037-1.7813-12.91" fill="#dcdddd"/>
  <path d="m83.225 258.93c-6.815 2.3297-8.7326 15.051-1.3347 17.979 8.9724 3.5626 38.525 2.6889 37.944-3.7179-0.66979-7.4823-24.639-18.372-36.608-14.263" fill="#fff"/>
  <path d="m116.53 268.7c-11.044 8.7326-21.711-3.116-32.961-10.034-5.9073 1.063-10.359 14.811-1.6599 18.252 8.9554 3.5431 38.509 2.6889 37.927-3.713-0.0971-1.2328-1.3347-2.8102-3.3053-4.5042" fill="#dcdddd"/>
  <path d="m233.9 211.21c7.0372 3.9217 14.486 4.9313 15.735 9.1432 1.2328 4.2129 3.3587 17.397 0.87367 20.359-2.4802 2.9801-6.9344 4.2129-11.643 2.485-4.708-1.7279-13.099-3.4752-15.085-11.421-1.9851-7.9279-1.5386-10.154-1.5386-10.154z" fill="#7e8387"/>
  <path d="m243.36 223.39c-0.56301-1.9851-5.5646-2.6549-7.3285-3.7518-1.7618-1.0775 0.71834-4.0916 2.2618-5.4792-1.4367-0.75231-2.9122-1.6939-4.3828-2.9462l-11.66 10.41s-0.24266 1.2328 1.7279 9.1777c1.9851 7.9279 10.171 10.65 14.879 12.397 2.0385 0.75231 4.0042 0.90762 5.8044 0.65038 0.0971-10.496-0.73774-18.475-1.3008-20.461" fill="#686d70"/>
  <path d="m242.09 254.6c2.3443-3.2519 9.4175-6.4378 16.609-5.7015 7.1916 0.73775 19.845 4.4508 19.348 8.4239-0.49505 3.9751-7.7221 12.533-20.239 12.431-7.243-0.0486-18.937-10.685-15.718-15.153" fill="#fff"/>
  <path d="m278.04 257.33c0.43681-3.5771-9.8111-6.9518-17.105-8.1162 4.8293 6.9348 4.5187 14.383 0.63581 20.153 9.2461 0 16.061-8.7836 16.472-12.037" fill="#dcdddd"/>
  <path d="m302.34 192.61c-1.2328 3.9702-12.397 16.9-30.992 22.071-6.6946 1.8492-7.6706 3.6645-8.1846 9.914-0.68436 8.1672 1.2328 19.588 7.9279 19.845 6.6951 0.24269 28.56-8.356 34.964-15.873 5.702-6.6946 7.9449-13.441 7.9449-29.091 0-15.855-4.145-20.804-10.684-22.122z" fill="#7e8387"/>
  <path d="m302.34 177.24v15.376c-0.65038 2.0531-3.9702 6.5412-9.6228 11.078 3.2859 1.8686 4.4168 5.0172 1.7279 6.5582-16.386 9.4514-23.783 9.4514-24.639 11.146-0.85424 1.7133 0.92704 23.03 1.2862 23.047 6.6951 0.24267 27.807-7.1401 34.211-14.657 5.702-6.6946 8.6981-14.913 8.6981-30.563 0-15.838-5.1196-20.65-11.66-21.985" fill="#686d70"/>
  <path d="m70.507 257.55c-4.111-1.7958-4.6206-5.9073-4.3682-14.622 0.24267-8.7326 2.3443-21.095 9.6912-26.249 6.3869-4.5042 16.746-8.4069 20.341-6.3524 3.3927 1.9366 2.0531 4.111 0.24269 16.163-0.73774 4.8798-1.626 12.568-7.4483 14.64-17.071 6.0267-18.475 16.42-18.475 16.42" fill="#7e8387"/>
  <path d="m96.173 210.32c-0.90762-0.51448-2.2278-0.65038-3.8004-0.49507-1.4367 4.179-1.3687 21.043-6.5577 24.948-8.5443 3.116-16.986 8.5098-19.057 12.225-0.09713 7.4823-0.04857 8.8865 3.7518 10.547 0 0 1.4027-10.376 18.475-16.42 5.8219-2.0531 6.712-9.7601 7.4483-14.64 1.7958-12.054 3.1354-14.229-0.24269-16.163" fill="#686d70"/>
  <path d="m120.19 209.99c-3.6305 0.71833-5.7874 6.2325-6.5577 12.91-0.77173 6.6606-4.111 16.421 2.3103 18.989 6.4208 2.5676 43.628 10.513 45.426 31.317 0.24269 0-1.029 3.0626-1.029 3.0626s6.4213 1.2862 8.7326-4.0916c2.3103-5.3938 9.0063-23.543 7.7221-29.194-1.2862-5.6501-7.3284-11.883-12.414-15.684-18.629-13.921-40.341-18.081-44.193-17.311" fill="#7e8387"/>
  <path d="m177.31 242.47c-0.87367-3.8538-4.6206-8.4069-8.4584-11.935-1.9851 8.0992-5.736 26.146-9.6912 23.578-2.8927-1.8686-24.639-13.253-36.95-15.941-4.5721-0.97558-7.9274 1.0435-8.7666 2.8102 27.259 8.8865 46.59 16.797 47.925 32.225 0.24269 0-1.029 3.082-1.029 3.082s6.4208 1.2814 8.7321-4.111c2.3103-5.3938 9.5203-24.057 8.2361-29.707" fill="#686d70"/>
  <path d="m280.85 64.535c9.5199 9.5029 15.342 21.129 14.177 35.872-0.75231 9.5029-3.4266 11.301-8.5268 4.6546-7.7735-10.085-16.866-14.862-18.63-20.17-2.8928-8.6981-1.5046-14.794-4.2615-18.235z" fill="#7e8387"/>
  <path d="m271.4 65.702-7.7905 0.961c2.7568 3.4412 1.3687 9.5369 4.2615 18.235 1.7619 5.3079 10.856 10.085 18.629 20.171 5.1026 6.6431 7.7735 4.8439 8.5268-4.6595 0.14569-1.7958-14.143-12.722-16.745-15.325-2.621-2.6015-2.6889-6.8314-6.8834-19.382" fill="#686d70"/>
  <g fill="#7e8387">
   <path d="m257.26 67.484c0 2.9461 0 14.16-14.16 4.7274z"/>
   <path d="m259.62 43.302c-1.4221-1.029-5.0342 1.4901-6.0787 0.83967-2.0045-1.2134-2.7908-3.3732-3.9557-5.5651 4.3488-0.995 10.034 4.7274 10.034 4.7274"/>
   <path d="m352.64 68.765c-18.972-12.876-57.549-25.769-100.7-24.879 0.60186-7.6706-38.919-35.974-73.712-30.666-34.81-2.3637-125.7-6.1985-181.14 29.776-55.442 35.974-79.14 113.28-59.518 163.69 20.821 53.474 52.344 70.767 75.493 68.404 23.988-2.4317 34.844-19.502 15.342-32.43-15.41-6.0787-20.513-48.337-15.787-65.442 4.708-17.105 35.477-74.106 96.382-84.961 40.82-7.277 65.681-5.9073 95.765-10.034 30.084-4.1256 57.206-19.451 79.037-18.269 21.814 1.1649 52.481 10.616 67.822 19.451 11.969 6.9178 14.143 6.7805 12.328-0.03394-0.96102-3.6305-4.0576-9.6742-11.318-14.605"/>
  </g>
  <path d="m185.7 16.653c13.27 8.8525 25.067 17.704 38.354 28.03 0.48536 0.48538 13.27 0.88822 13.27 0-11.729-18.013-38.782-33.286-55.288-31.899 1.0435 1.4221 2.2424 2.7229 3.6645 3.8683" fill="#686d70"/>
  <path d="m237.33 53.526c-20.324 2.8442-53.662 7.1232-73.781 7.0372-45.7-0.19407-35.94-16.249-43.936-20.65-7.0542-3.8683-19.827-2.5336-58.644 16.027-7.1057 3.3927-25.924 18.081-36.659 32.516-19.913 26.779-33.971 60.493-36.231 74.209-13.064 16.626-35.7 23.68-56.332 20.427 1.0629 8.287 2.9607 16.232 5.8384 23.595 20.821 53.473 52.343 70.767 75.493 68.421 23.971-2.4511 34.844-19.52 15.342-32.447-15.41-6.0782-20.53-48.337-15.804-65.442 4.7274-17.106 35.495-74.106 96.399-84.962 40.82-7.277 65.682-5.8898 95.749-10.033 30.084-4.1256 57.223-19.451 79.037-18.27 6.9858 0.38831-3.0141-16.506-46.47-10.427" fill="#686d70"/>
  <path d="m278.68 64.037c-18.749 0.75231-49.912 13.784-70.493 17.756-20.598 3.9703-37.293 3.1015-37.293 3.1015 13.578-0.77172 35.307-11.249 60.134-20.94 20.461-7.9963 59.158-11.027 94.79 7.0028 0 0-28.389-7.6707-47.138-6.9174" fill="#87002e"/>
  <g fill="#7e8387">
   <path d="m-52.867 228.12c1.6939 3.6305 21.369 8.5613 37.224 2.7229 4.8099-1.7813 8.3215-6.0612 11.797-2.0046 2.3297 2.7035 12.191 18.595 9.4689 22.876-2.7035 4.2615-13.458 8.0817-21.609 8.852-8.1502 0.77174-22.739 0.48538-26.882-4.2129-4.5721-5.171-14.349-17.841-13.578-21.711 0.78629-3.8877 3.5771-6.5237 3.5771-6.5237"/>
   <path d="m-75.311 163.72c0.38829-3.8877 2.155-10.376 13.801-10.77 11.626-0.38828 37.293-0.80569 45.528 2.9947 5.4792 2.553 7.6367 4.2129 7.6367 12.739 0 8.5438 0.99498 26.283-3.6645 30.17-4.6595 3.8683-13.835 4.2275-23.44 4.7614-8.9724 0.51448-31.882 0.87365-36.539-4.1595-4.6595-5.0512-4.4847-24.091-3.3199-35.735"/>
   <path d="m-61.096 119.03c-3.7324-3.5965-3.9023-9.9654-0.38829-18.492 3.4752-8.5443 13.698-25.427 20.684-28.149 6.9858-2.7229 40.631-1.8492 51.487 2.0385 10.873 3.8683 23.012 12.311 20.256 21.146-1.3881 4.4508-15.393 26.78-17.14 28.886-3.2859 3.9363-9.349 2.8442-15.975-1.029-5.9588-3.4752-31.745-7.2086-40.272-7.4993-14.639-0.49507-15.462 0.87364-18.629 3.1014"/>
  </g>
  <path d="m-52.958 228.36c1.9851 4.2615 22.91 7.7905 37.31 2.4802 4.8099-1.7619 8.7496-6.4038 12.226-2.3443 2.3297 2.7035 12.653 18.869 9.931 23.132-2.7035 4.2663-14.332 8.6297-22.482 9.4005-8.1332 0.78629-22.567 0.33975-27.054-4.043-4.8293-4.708-14.622-18.612-13.852-22.481 0.77172-3.8878 3.9217-6.1471 3.9217-6.1471" fill="#686d70"/>
  <path d="m-7.6365 168.47c0-7.9449-3.7858-9.6742-8.6297-11.952 3.4412 6.1811 0.68436 32.413-2.8782 35.598-3.5431 3.2034-40.272 2.7569-47.343 2.0725-7.0712-0.68436-8.5613-10.753-8.2016-6.1471 0.33976 4.6206 0.29122 8.8355 2.4996 11.215 4.6595 5.0342 28.56 5.2739 37.532 4.7614 9.6058-0.52904 18.201-1.2862 22.841-5.154 4.6595-3.8877 4.1789-21.848 4.1789-30.392" fill="#686d70"/>
  <path d="m71.966 14.291c3.8877-5.0512 8.7326-10.102 22.687-12.808 13.972-2.7229 34.776-3.5965 54.518 0.38831 19.178 3.8683 44.484 13.629 50.066 23.046 3.5771 6.0787 3.5771 9.6742-5.0686 11.095-12.465 2.0531-31.419 6.1985-43.063-2.3297-11.643-8.5443-39.176-19.006-61.299-16.301z" fill="#7e8387"/>
  <path d="m199.16 24.822c-18.372 5.0681-32.498 4.9827-39.793 2.3637-7.311-2.6015-27.652-18.766-62.582-18.252-13.595 0.19407-23.149 3.2034-24.81 5.3593l17.841 3.1015c22.105-2.7035 49.655 7.7565 61.281 16.301 11.643 8.5268 30.615 4.3828 43.063 2.3297 8.6637-1.4221 8.6637-5.0172 5.0681-11.078-0.0175-0.04856-0.0486-0.09713-0.0486-0.09713" fill="#686d70"/>
  <g fill="#7e8387">
   <path d="m-5.2325 44.55c7.7565-4.2615 20.667-3.9702 38.799-1.1649 21.626 3.3393 32.944 17.414 43.423 14.657 4.9483-1.3008 37.755-10.684 38.919-15.735 1.1649-5.0342-3.2034-20.256-26.094-24.914-22.892-4.6595-46.197-4.8798-72.411 4.2275-16.386 5.6845-31.625 16.335-26.523 24.862z"/>
   <path d="m-66.89 158.79c4.6595-2.7908 13.835-4.077 20.102-6.0612-5.5991-0.0345-10.856 0.0971-14.725 0.24267-11.643 0.38828-13.407 6.8834-13.801 10.77-0.58243 5.7874-1.029 10.667-0.43681 17.448 3.9363 17.071 2.1404-18.338 8.8695-22.379"/>
   <path d="m-43.136 106.5c-18.252 2.121 1.626-33.166 18.15-35.666-7.2086 0.04856-13.287 0.58243-15.838 1.558-6.9858 2.7229-17.191 19.622-20.684 28.149-3.2519 7.9449-3.3199 13.989-0.29122 17.705 4.4022-1.9851 17.516-9.7601 18.681-11.746"/>
   <path d="m78.036 13.703c-1.6794-1.524 0.33974-2.3977 5.154-5.4108 6.6262-3.2034 20.324-7.0542 27.019-8.7666-5.719 0.38829-11.01 1.0775-15.547 1.9511-13.578 2.6355-18.527 7.4823-22.362 12.379 2.3783 0.33974 4.4022 0.29122 5.736-0.1457"/>
   <path d="m17.396 21.622c-16.386 5.6846-31.625 16.335-26.506 24.862l3.8683-1.9366c1.9851-1.0969 28.765-10.034 31.419-10.564-19.674-3.3538 7.0887-13.287 33.749-19.743-13.544 0.034522-27.567 2.1744-42.532 7.3799"/>
  </g>
  <path d="m70.18 46.49c-16.266-7.3115-36.163-13.27-54.587-13.27-13.663 0-23.937 3.9023-25.546 8.0303-0.597 1.5434-0.33976 3.2519 0.83967 5.2395l3.8877-1.9366c7.7565-4.2663 20.65-3.9751 38.782-1.1649 21.643 3.3393 32.961 17.413 43.44 14.656 4.9312-1.3008 37.738-10.684 38.902-15.735 0.52903-2.2763-0.0971-6.6436-3.0286-11.181 0.59698 4.4022-29.861 21.78-42.686 15.359" fill="#686d70"/>
  <path d="m131.96 111.66c-5.3594 10.479-12.756 16.18-12.756 16.18-9.6572-3.5771-28.389-5.7015-39.416 9.7431-9.7941 13.715-9.6917 35.58 4.64 46.076 14.366 10.479 39.159 7.9104 50.751-9.4689 13.578-20.358 10.89-36.488 6.7465-57.463-2.7762-14.074-9.1952-6.5577-9.9654-5.0681" fill="#fff"/>
  <path d="m77.741 140.86c4.674 12.26 9.1262 22.036 26.848 18.852 17.704-3.1694 29.707-31.334 31.265-39.69 1.5726-8.3385 4.9997-4.3149 6.301-3.6645 4.043 20.667 6.4553 37.686-6.9858 57.839-11.575 17.379-36.386 19.947-50.734 9.4684-13.27-9.7082-14.383-28.885-6.6951-42.806" fill="#dcdddd"/>
  <path d="m23.761 81.954c4.2809 2.3977-10.684 34.433-19.297 31.813-29.211-8.8695-55.802-8.3385-63.113-6.2495-7.294 2.0725-6.1811 7.9104-2.4462 11.523 3.1694-2.2278 3.9897-3.6111 18.63-3.116 8.5268 0.29122 34.313 4.0236 40.272 7.5168 6.6261 3.8538 12.705 4.9657 15.975 1.029 1.7473-2.1065 15.753-24.434 17.14-28.903 1.8492-5.8903-0.52905-9.3146-7.1571-13.612" fill="#686d70"/>
  <g fill="#0f141b">
   <path d="m-105.55 41.805-6.2497 2.2278c22.43-2.3783 37.464 2.3103 82.273 21.523l1.5726-2.2957c-21.3-9.1432-60.305-25.016-77.599-21.454"/>
   <path d="m-104.51 25.27c-20.016 4.742-33.765 22.995-30.392 26.814 0.82173 0.92219 3.099 2.9947 20.222-5.9588 20.102-10.547 58.079-6.5922 92.375 11.798l3.0675-1.7133c-37.276-19.982-77.496-21.985-96.468-12.054-13.664 7.1571-16.506 7.4828-17.157 6.3869-0.99305-1.7473 8.5441-17.893 29.091-23.047 21.968-5.4962 57.497-3.8004 104.05 2.7763l2.0045-2.7763c-45.614-7.1916-86.366-7.0717-106.79-2.2278"/>
   <path d="m-151.83 91.387c0.59942-0.24267 4.2464 5.6331 6.01 8.4584 14.571 23.338 60.254 42.977 79.397 42.053l0.38829-3.8877c-19.057 0.90762-62.925-16.694-77.308-39.724-4.5032-7.1916-7.0373-11.044-9.6571-10.119-0.95908 0.33974-3.3733 3.5965-1.6609 17.328 3.9897 31.865 30.17 68.763 78.712 80.355l0.68436-2.8782c-47.172-11.25-72.171-47.412-76.024-78.267-0.90762-7.2426-1.2158-13.064-0.56497-13.321"/>
   <path d="m295.37 91.854c10.102 6.0272 20.992 8.6297 29.262 5.0851 2.0725-0.88822 5.0167-2.0045 5.6331-1.4367 1.0095 0.88822 0.77171 3.8343-0.71834 8.7666-1.9366 6.4213-13.698 27.773-28.526 31.625l0.68435 3.1694c16.557-4.2954 29.519-27.584 31.282-33.252 2.6016-8.3555 3.1354-13.578-0.24267-14.348-1.7813-0.38829-4.4847 1.2134-7.5168 2.4996-7.6536 3.2859-20.564-0.1455-30.084-5.8389z"/>
   <path d="m304 233.76c2.8102 2.8102 9.0233 11.044 8.1162 15.102-0.61641 2.8248-8.9379 3.4266-20.855 3.0141l-2.7762 2.7908c12.499 2.4316 25.975-1.0775 26.762-4.6255 0.78628-3.5626-1.9172-10.821-10.376-19.297z"/>
   <path d="m217.1 251.32c0.43683 4.8628 9.366 5.2739 22.927 3.7858l-1.4901-2.0725c-10.274 0.49505-18.082 1.49-18.39-2.1065-0.19407-2.155 9.5543-11.113 9.5543-11.113l-1.1988-1.5046s-11.677 9.914-11.404 13.013"/>
   <path d="m76.856 216.1c0.58243-3.5092 1.1309-6.3869 1.6114-8.2186 2.2278-8.4244-0.97557-4.8798-1.8638-2.6209-1.6794 4.2469-2.9801 9.6742-3.9897 15.513 1.4706-1.3347 2.6549-3.7858 4.2469-4.674"/>
   <path d="m71.93 270.45c0.43683-2.6889 0.51448-6.9518 0.51448-11.609 0-1.2522 0.04857-2.7034 0.1457-4.3149-0.83969 1.2474-2.0191 2.2278-3.082 3.2374v1.0775c-0.01755 4.742-0.03452 8.5098-0.48536 10.958-0.29122 0.33975-0.58243 1.029-0.82026 1.4027 1.2522-0.51448 2.4462-0.80572 3.7179-0.75231"/>
   <path d="m234.24 206.98c-12.448 15.615-31.796 24.759-57.514 27.841 0 0 3.4072-11.318 3.8538-14.263 0.48536-2.9462-0.38829-3.4752-1.5774-0.66981-0.77174 1.8152-3.15 8.0822-5.9073 15.548 0.71834 1.1115 1.8347 2.0531 2.3297 3.15 0.0971-0.24269 0.19407-0.48536 0.29122-0.66979 12.602-0.77173 29.656-4.3294 42.258-12.277 3.9217-2.4656 8.356-6.2155 11.952-9.1607 3.3393-2.7374 5.9758-6.0612 7.9279-9.9649 2.9267-5.8733 0.597-4.8439-3.6305 0.48536"/>
   <path d="m242.65 254.49c-5.3764-3.6839-8.9894-8.9724-11.438-14.537-1.3542-0.71833-2.7035-1.558-4.043-2.4511 2.6889 7.4658 7.2086 15.205 14.862 20.051-0.24269-1.0775-0.43683-2.2278 0.61641-3.0675"/>
   <path d="m302.8 231.61c-0.0175 3.2374-0.48536 5.8903-1.6599 7.6197-4.2809 6.1981-10.992 13.8-23.012 17.721 0.48536 0.97557 0.49508 1.9512 0.49508 2.9122 15.17-4.8293 22.174-14.948 24.93-18.954 1.9172-2.7569 2.3637-6.6951 2.155-11.523-0.77172 1.0435-1.7958 1.7279-2.9122 2.2278"/>
   <path d="m57.549 249.79c-0.66979 2.7034 3.5431 7.0033 12.773 9.3146l-1.4027-3.0626c-4.0576-1.0096-9.366-3.8538-9.366-5.4618 0-0.97557 3.4072-2.8588 6.5412-3.9751l-0.65038-2.0191c-3.6645 1.5435-7.5338 3.7518-7.8934 5.205"/>
   <path d="m29.804 242.13 0.85424 1.7133c3.2859-1.6454 8.4244-1.1989 14.845 1.3008l1.1988 0.48536c3.8004 1.4706 10.188 3.9217 10.582 6.1131 0.03394 0.19406 0.09713 0.73774-0.87364 1.6114-4.3343 3.7858-9.5888 4.9652-17.071 3.8198l0.24269 2.7568c8.0817 1.2522 13.304-0.9416 18.081-5.1196 1.2134-1.0629 1.7133-2.2084 1.5046-3.4072-0.58243-3.2519-6.5232-5.5307-11.78-7.5512l-2.9267-1.1988c-7.0373-2.7229-10.822-2.4122-14.657-0.49507"/>
   <path d="m14.984 220.07c1.6794 1.1115 3.7518 1.3542 6.8659 2.0045 2.9607 0.61641 7.0202 1.4561 7.4998 2.621 3.6839 9.2116 3.3732 12.482 2.4656 13.612l-0.48536 0.597c-1.9172 2.4316-2.2763 2.8782-4.8798 2.0045l0.82026 1.8832c3.8877 1.3008 4.0916-0.19407 6.0956-2.7035l0.48536-0.58245c2.3977-2.9947 0.43683-10.564-1.6599-15.787-0.83967-2.121-4.5721-2.8928-8.8865-3.7858-2.7908-0.58243-6.7635-0.90762-8.1332-1.8347z"/>
   <path d="m55.643 217.08c-4.4702 1.6599-10.016 3.7324-9.0918 8.4069 0.70376 3.5092 4.1595 16.01 8.6807 18.972 1.029 0.65038 2.087 0.87364 3.184 0.63096 5.4448-1.2134 7.3799-3.1014 7.4483-3.1694l0.71833-2.6015c-0.01755 0.0175-3.7664 2.8248-8.5952 3.9023-0.56302 0.0971-1.1309 0-1.7133-0.38829-3.0966-2.0191-5.736-10.394-7.0372-16.951-0.56302-2.8442 2.9122-4.3682 7.8764-6.2155 2.2958-0.85423 5.4792-1.7279 6.7805-2.8102l-2.2278-1.4221c-1.063 0.87365-3.8877 0.82025-6.0272 1.626"/>
   <path d="m49.407 209.32c4.6061 5.1366 15.855 9.9654 21.181 12.088l2.6695-2.6695c-7.9104-2.7034-20.513-9.4859-22.584-10.856-3.4412-2.2618-2.7714-0.24267-1.2668 1.4367"/>
   <path d="m11.777 183.99c9.3315 7.4653 22.876 11.044 34.673 11.54 3.9557 0.19407 4.1595-0.82026 0.19406-1.2668-13.236-1.5386-24.845-5.9758-33.885-13.201z"/>
   <path d="m37.798 167.07c-8.0817 6.3524-17.807 7.8764-23.115 3.6305l-0.49507 2.0531c5.9927 4.8099 16.027 2.7229 24.793-4.179 11.37-8.9379 15.787-10.273 27.362-9.1602 0.49505 0.0339 0.92217-0.73776 0.09713-0.90764-8.0987-1.626-16.403-1.0435-28.628 8.5613"/>
   <path d="m60.187 113.65c0.24267 8.9209-0.54845 15.462-2.0191 16.728-2.9122 2.485-14.965 5.9073-21.523 5.2225l-2.4317 2.2957c8.2016 0.85424 22.379-3.1354 25.153-5.4962 2.4656-2.121 3.5965-10.291 3.4752-20.598z"/>
   <path d="m48.984 127.05c0 2.587-0.66981 4.674-1.4901 4.674-0.82026 0-1.4901-2.087-1.4901-4.674 0-2.587 0.80571-3.3732 1.626-3.3732 0.82026 0 1.3542 0.78628 1.3542 3.3732"/>
   <path d="m56.215 275.67c-0.38829 3.9703 11.575 12.037 16.883 11.369 3.1354-0.38829 5.5991-3.747 6.9518-11.215l-1.592-1.0969c-1.0969 6.2495-3.2519 10.119-5.5991 10.41-4.179 0.52905-13.338-6.25-14.332-9.2291-0.04857-0.19407-0.04857-0.29122 0.09713-0.52905 1.1455-1.7279 9.0233-3.5286 18.355-3.6305l-0.09713-2.1938c-8.6467 0.61641-20.324 2.7374-20.65 6.1126"/>
   <path d="m150.65 270.45c1.9366 0.77172 3.9217 6.8659 1.6599 11.763-0.1457 0.33976-0.63096 1.3542-2.9122 1.4561-7.0887 0.33976-19.006-8.0133-19.006-9.6398 0-1.1454 14.28-5.9757 20.256-3.5771m-22.636 3.4266c-0.92217 4.8293 17.088 13.612 23.543 11.352 5.3079-1.8686 3.5431-14.691 0.87365-16.421-5.4962-3.5626-23.869 2.1404-24.417 5.0686"/>
   <path d="m85.41 259.43c15.102-2.485 33.063 9.3146 33.474 13.852 0.33974 3.8683-23.749 7.842-36.642 2.7374-6.25-2.4656-5.6676-15.136 3.1694-16.592m-0.19406-2.087c-10.308 1.4027-11.678 17.294-3.6645 20.461 13.904 5.4962 39.81 1.1309 39.313-4.2955-0.65038-7.2595-20.256-18.252-35.649-16.163"/>
   <path d="m231.52 211.96c3.5286 3.0141 8.9209 3.713 11.78 4.7614 3.0481 1.0969 4.5866 2.3103 5.0511 3.9363 1.592 5.3594 2.5336 17.276 0.60186 19.605-2.3637 2.8248-5.154 3.4606-10.274 1.8347-5.1196-1.6114-11.968-4.3682-13.766-11.523-1.8152-7.26-2.0045-10.171-1.9851-10.239l-2.4996 1.3687c-0.0486 0.33974 0.14569 1.9511 2.0385 9.5029 2.0385 8.1332 9.0408 11.729 16.523 13.356 7.243 1.592 10.616-0.49505 12.465-2.7229 3.116-3.7518-0.0339-20.273-0.8057-22.859-0.77171-2.6209-3.3393-3.5626-6.3354-4.64-2.7035-0.97557-7.4993-1.626-10.753-4.4168z"/>
   <path d="m241.31 254.04m2.2084 4.9657c-0.9416-1.7473-1.1794-3.116-0.65038-3.8343 2.2424-3.116 9.1092-6.0097 15.736-5.3249 5.9413 0.6164 15.701 3.3199 18.081 6.3179 0.29122 0.38829 0.43682 0.73774 0.38829 1.0435-1.0969 8.6297-24.109 19.092-33.577 1.8007m-1.6793 0.92217c11.694 21.385 37.087 4.9997 37.892-1.558 0.0971-0.83967-0.0339-2.3637-0.66979-3.1694-2.8442-3.5625-13.955-6.6091-20.273-7.26-10.633-1.0969-21.095 4.4168-16.951 11.986"/>
   <path d="m305.33 227.94c-6.0956 7.1571-25.598 14.588-30.803 14.811-5.205 0.24269-8.1502-0.90762-8.5953-4.5381-0.48536-3.6111-0.90762-8.339-1.592-13.356-0.66979-5.0167 2.5676-7.9449 7.26-9.2631 18.903-5.2395 29.861-17.088 31.009-21.523 1.4561-5.685 1.6939-9.8625 2.0045-14.555 4.145 1.5046 7.6881 5.5137 7.6881 19.811 0 15.855-1.558 22.276-6.9688 28.612m-0.48536-51.042c2.9801-31.985-2.4996-59.107-9.7431-72.034l-2.0191 4.3149c3.3053 8.339 8.4069 20.941 8.5953 50.563 0.0486 9.0918-0.33976 23.732-1.49 34.193-2.7763 4.7274-13.852 14.845-30.204 19.383-5.4962 1.524-8.6127 5.205-8.1502 10.873 0.43681 5.6506 0.24267 11.318 1.5726 15.838 1.3687 4.5381 5.7535 5.4278 7.6367 5.3593 12.071-0.38828 29.776-8.1162 36.3-15.77 5.753-6.763 7.6881-16.42 7.6881-32.823 0-13.03-3.5286-17.859-10.188-19.896"/>
   <path d="m67.046 246.2c0-0.99498 0.01755-2.087 0.04857-3.2519 0.19406-5.8214 1.4221-19.965 9.2801-25.495 6.8664-4.8293 16.438-7.9449 19.314-6.3014 1.1454 0.65039 1.626 1.2328 1.626 2.7908 0 1.2328-0.29122 3.082-0.82026 6.0782l-1.0096 6.3354-0.09713 0.59698c-0.70378 4.8439-1.6794 11.489-6.712 13.27-13.869 4.8973-18.544 11.763-18.749 15.77-2.1938-1.558-2.8782-4.4362-2.8782-9.7941m8.2361-30.307c-8.5788 6.0272-10.359 20.804-10.547 26.9-0.24267 7.9788 0.43683 13.458 5.3933 15.632l1.1455 0.5145 0.19406-1.2522c0-0.0971 2.4996-9.931 18.732-15.667 6.1296-2.1744 7.0198-9.7596 7.7735-14.794l1.0969-6.8829c1.1454-6.7295 0.85422-8.9894-2.4122-10.856-4.3682-2.4996-15.41 2.2084-21.368 6.4038"/>
   <path d="m168.18 271.8c-1.4367 3.3732-4.708 3.713-6.4723 3.6451 0.75231-2.7035 0.78628-4.0576-0.71834-7.7735-5.9413-14.691-29.485-21.916-40.186-25.204l-4.5187-1.4706c-2.4996-0.995-3.2713-3.3733-3.2713-6.318 0-2.2763 1.558-11.678 1.558-11.678 0.68436-5.8729 2.3977-12.277 6.9178-11.952 9.2801 0.68436 26.711 5.9588 41.658 16.541 5.719 4.043 11.575 10.616 12.705 15.616 1.1988 5.2564-5.2904 23.064-7.6706 28.595m10.154-29.331c-1.3202-5.8729-8.4759-12.739-14.058-16.694-15.633-11.061-31.248-16.078-43.012-16.763-5.6675-0.33976-7.7051 4.5381-8.6127 8.3904-0.90763 3.8343-1.7279 9.7936-1.7279 9.7936-0.43683 2.485-0.92705 5.2225-0.92705 7.7396 0 3.6111 0.97558 6.7975 4.4508 8.1846l5.5821 1.4706c9.1262 2.8102 27.961 8.7496 36.248 19.537 4.0576 5.2904 4.0042 7.7221 3.082 10.753l-1.2522 3.7858c-5.685 16.438-30.94 18.92-51.11 18.099-17.585-0.70377-28.321-5.2395-33.697-10.325-1.626 0.80569-2.9122 0.0486-4.674-0.87364 5.6331 8.1676 19.537 13.39 38.252 14.16 30.375 1.2134 49.055-5.719 54.021-20.085l0.29122-0.92217c2.6889 0.1455 6.746-0.70379 8.5098-4.8099 1.8832-4.4022 10.034-25.204 8.6127-31.437"/>
   <path d="m280.17 65.215c10.394 10.376 14.948 21.865 13.904 35.118-0.51448 6.4893-1.8152 7.5508-2.3443 7.7051-0.43684 0.1457-1.7133 0.0339-4.4702-3.5626-3.7664-4.8798-7.8934-8.5957-11.215-11.575-3.5771-3.2374-6.4208-5.77-7.26-8.3045-1.3347-4.0042-1.7279-7.3969-2.087-10.376-0.38831-3.4218 0.19406-6.4723-1.4561-8.5098l-3.1694 1.3542c1.3008 1.6114 1.2328 4.0431 1.592 7.1571 0.33974 2.9122 0.77172 6.5577 2.1598 10.753 1.0096 3.0141 3.3053 5.9413 7.1062 9.3485 3.4266 3.082 8.3555 7.791 12.019 12.534 2.6355 3.4218 5.9932 6.0267 7.825 5.4788 2.1064-0.61641 4.2469-3.5286 4.708-9.4 1.0969-13.852-3.5286-28.252-14.349-39.039z"/>
   <path d="m256.3 67.484c0 1.5774 0.0345 5.0851-2.3637 6.3694-2.0191 1.0775-3.4606 0.19406-8.1507-2.9461l-3.2179 2.0871c5.4792 3.6451 9.4859 4.708 12.243 3.2374 3.4072-1.8152 3.8683-6.815 3.8683-8.7151z"/>
   <path d="m249.45 39.534c3.8538 0.54845 5.4792 1.592 9.6058 4.5527l6.8319-0.1457c-4.2275-3.0141-12.602-6.5922-16.934-7.2086z"/>
   <path d="m-66.95 153.29c1.1794-10.992 4.2275-24.04 8.0648-35.17 0.04856-0.19407-2.3783 1.8492-3.3733 1.3881-4.1789 12.208-7.3285 23.218-8.5438 35.255 1.3202-0.58243 3.0286-0.0971 3.8538-1.4706"/>
   <path d="m200.73 29.258c9.4344 4.3488 17.841 9.9994 20.495 15.701l3.4946-0.29122c-3.0481-6.5582-16.3-15.53-25.341-19.691z"/>
   <path d="m240.8 71.143c-12.277 3.9217-22.807 7.7905-36.231 9.6228-6.729 0.92217-13.184 1.5774-19.622 2.1065 9.1262-2.587 18.886-6.3354 23.937-8.7836 7.9109-3.8537 25.769-10.65 35.991-12.226 11.318-1.7473 43.2-7.3624 76.537 7.808-12.516-3.7518-26.077-6.5752-37.532-7.1916-12.26-0.66979-28.338 3.9557-43.08 8.6642m-131.53 22.567c24.211-4.3148 42.515-5.5646 60.22-6.7635 11.952-0.80569 23.252-1.5774 35.478-3.2519 13.681-1.8832 26.488-5.9757 38.885-9.9314 14.469-4.6061 28.149-8.9719 39.878-8.3385 22.277 1.1988 52.72 10.924 67.171 19.263 8.9724 5.188 14.006 6.2495 15.29 4.6401 1.3541-1.6939-2.9801-14.845-12.054-22.054-15.085-11.969-69.089-25.17-100.97-24.862-0.58243-2.0385-2.3783-4.5041-5.5307-7.4139-12.619-11.729-41.454-26.369-67.308-23.526 1.7813 0.68436 3.3199 1.4706 4.7274 2.6209 23.732-0.78627 49.09 12.397 60.579 23.064 3.0141 2.7908 3.5092 4.4022 3.5626 5.4618-14.725-0.48536-47.789 0.83967-54.518 0.19406-7.0717-0.65038-6.9863 0.97557-0.24269 1.8977 15.599 2.1744 48.919 0.63583 59.775 0.63583 28.492 0 76.109 7.0372 98.865 24.605 4.9652 3.8344 10.033 15.684 9.2801 16.352-0.61642 0.54845-4.6934-1.1115-9.9994-4.179-31.334-18.081-56.556-25.701-82.992-25.683-16.729 0.01755-30.324 2.7714-36.95 4.9482-7.6367 2.519-21.283 8.1502-27.173 10.873-4.742 2.1938-20.718 8.7156-32.036 11.472-1.3008 0.09713-2.621 0.19407-3.9363 0.24267-17.773 1.2134-36.163 2.4656-60.528 6.7975-31.231 5.5817-81.589 33.012-97.564 86.04-6.0442 20.05 0.29122 60.237 16.403 67.051 6.1471 4.077 9.4004 8.7326 9.4004 13.356 0 0.78629-0.09713 1.592-0.29122 2.3637-1.7473 7.1232-11.301 12.756-23.783 14.024-11.249 1.1454-24.793-2.5676-38.114-13.441-1.2183 0.38829-2.4462 0.82026-3.7858 1.0775 14.691 12.38 29.862 16.558 42.207 15.29 13.921-1.4027 25.067-8.2016 27.156-16.66 0.96102-3.8538 0.52905-13.903-11.164-18.475l-0.09713-0.0971-0.1457-0.0486c-12.67-4.9997-20.136-42.994-14.486-63.456 12.208-44.313 56.778-77.342 94.807-84.123"/>
   <path d="m26.191 82.836 1.5046 1.8152c4.9487-6.8489 24.742-22.516 27.225-24.125 2.4996-1.6114 3.116-3.5965-1.1794-1.0969-4.3149 2.4996-22.413 16.283-27.55 23.407"/>
   <path d="m4.8203 251.19c-2.4996 3.9217-13.081 7.6706-20.906 8.4244-8.0648 0.77172-22.277 0.38828-26.06-3.8877-5.753-6.5067-13.39-17.191-13.39-20.564 0-0.0971 0.01755-0.24267 0.03394-0.33974 0.66981-2.8102 1.558-4.145 2.5336-5.0337 2.9801 5.3933 27.652 7.7905 41.556 0.0486 3.2713-1.8298 4.9313-2.6015 6.8319-0.38829 2.7035 3.15 11.609 18.252 9.4 21.728m-7.3969-23.835c-3.0141-3.5092-6.4553-1.4706-9.5029 0.24267-1.1649 0.65038-5.0681 2.2424-6.3524 2.7229-11.164 4.111-29.999 2.2618-32.995-3.3053-3.6499-6.7635-7.6027-15.308-10.702-23.766-1.5435-0.43683-1.8152-0.38829-3.2034-1.0096 0.52905 1.7473 7.0542 17.345 11.061 25.153-0.83967 0.71833-3.0626 2.9947-3.7858 6.5407-1.0775 5.4448 8.6642 17.824 13.818 23.321 5.154 5.4962 22.55 5.702 30.119 4.9827 8.4414-0.8057 19.057-5.6161 21.951-10.188 3.2519-5.1196-8.6981-22.67-10.411-24.674"/>
   <path d="m-61.483 153.92c16.728-0.56302 29.622-0.0971 37.464 1.2328 12.277 2.121 14.725 5.3424 14.725 13.544v1.8492c0.033937 8.373 0.048565 23.954-3.9217 27.276-4.2469 3.5431-11.232 3.9363-20.068 4.4168l-1.0095 0.0486c-19.04 1.063-33.012-0.24267-36.18-3.6451-4.3294-4.6934-5.0511-23.252-3.8877-34.844 0.24269-2.3443 0.96102-9.5034 12.876-9.897m38.132-0.99498c-10.24-1.5046-25.958-1.3347-38.2-0.92219-9.0233 0.29122-14.862 2.8928-15.924 11.249-1.3542 10.873-0.24269 31.677 4.0382 36.711 3.8198 4.4847 22.824 6.4208 40.974 4.9827 12.945-0.71833 17.208-1.7133 21.318-5.137 3.5286-2.9461 5.4103-12.893 4.9483-30.803-0.24269-10.308-5.1366-14.315-17.157-16.078"/>
   <path d="m-63.062 111.24c0-2.8928 0.80569-6.3694 2.4316-10.342 3.8343-9.366 13.818-25.153 20.153-27.618 6.6951-2.6015 40.238-1.7279 50.82 2.0531 9.366 3.3393 22.328 11.404 19.657 19.947-1.3687 4.4022-15.29 26.557-16.951 28.578-3.5965 4.3149-10.787 1.063-14.76-1.2522-6.3354-3.6984-32.464-7.3624-40.734-7.6362-13.766-0.48535-15.667 0.75231-18.475 2.7763-1.4027-1.6454-2.1405-3.8198-2.1405-6.5068m20.633-40.101c-7.4144 2.8782-18.818 22.43-21.985 31.026-3.6451 9.914-2.6695 13.972 1.3881 17.876l1.3542 0.68436c2.5676-1.8347 6.9693-4.145 15.804-3.6839 9.0063 0.48536 38.114 4.179 44.878 8.2016 7.7051 4.6061 13.955 3.3733 17.293-0.6164 1.7473-2.1065 15.958-24.502 17.431-29.211 2.8782-9.2116-9.3146-17.704-21.368-22.019-11.13-3.9702-44.827-6.1126-54.792-2.2618"/>
   <path d="m93.896-0.59464c-14.263 2.7763-21.882 9.9994-25.838 15.136l4.674 0.33976c3.8877-5.0681 8.4924-9.8111 22.105-12.465 12.842-2.4996 33.817-3.6985 54.141 0.38829 19.691 3.9751 44.193 13.749 49.432 22.602 1.9366 3.2859 2.5142 5.3594 1.8638 6.729-0.63583 1.3881-2.6889 2.3443-6.267 2.9267l-3.1014 0.52903c-12.174 2.0725-28.851 4.9313-39.245-2.6889-11.335-8.3215-38.885-19.314-61.966-16.472l0.24269 1.9026c21.591-2.6549 46.059 7.4314 57.6 15.89 11.044 8.0987 28.235 5.9928 40.751 3.8538l7.0202-1.3541c4.3149-0.71834 6.746-1.8298 7.6881-3.8538 1.1988-2.553-0.61641-5.3763-2.2618-8.1502-6.1471-10.393-34.142-21.009-51.487-24.519-20.598-4.1596-42.31-3.3393-55.34-0.80571"/>
   <path d="m114.97 42.1c-0.80569 3.5092-24.93 11.523-38.217 15.017-4.9143 1.3008-10.256-1.5046-17.003-5.0511-6.746-3.5286-15.239-7.4653-26.043-9.6228-8.3215-1.6794-15.53-2.5336-21.78-2.4996-9.3146 0.03452-15.958 1.9172-20.581 5.2395-0.29122-0.71833-0.51448-1.4561-0.51448-2.2084 0-0.77174 0.1455-1.5386 0.43681-2.3637 2.2084-6.0956 12.842-13.356 26.437-18.081 23.304-8.0992 46.162-9.4349 71.914-4.1935 13.201 2.6889 19.52 8.7671 22.499 13.407 2.6695 4.1256 3.3393 8.1846 2.8442 10.359m-24.502-26.42c-26.095-5.3079-52.464-3.1014-76.109 5.1196-13.904 4.8293-24.194 12.791-26.814 19.999-0.78629 2.1744-0.24267 4.776 0.04857 7.1401-9.0238 6.8489-18.116 15.204-25.187 23.988 1.2668 0 4.111-0.70376 5.3593-0.70376 7.3969-8.8865 15.718-16.728 24.81-23.304 7.4658-5.4103 16.421-6.8314 39.485-3.2713 10.582 1.6454 21.899 7.3969 28.526 10.873 7.1227 3.7324 10.907 4.4168 16.66 3.4412 16.215-2.7035 39.536-12.311 40.614-17.037 1.8152-7.8934-8.1332-22.345-27.396-26.249"/>
   <path d="m85.585 182.84c-13.544-9.897-13.852-31.437-4.6061-44.381 12.756-17.841 31.505-11.489 35.461-9.5888-2.519 1.8298-8.8355 6.1816-8.3215 7.1062 0.83969 0.78629 16.386-7.0887 24.553-22.191 3.2713-6.0617 6.284-6.5407 7.7391 0.90762 1.8492 9.366 3.4072 18.287 3.4072 25.324 0 25.05-12.996 44.261-33.732 47.943-9.1772 1.626-18.064-0.43682-24.502-5.1196m44.398-70.596c-4.2129 7.6876-9.4344 12.516-11.112 13.955-12.294-4.2809-30.7-4.4168-41.111 10.171-10.256 14.349-8.7151 37.824 6.4038 48.868 15.153 11.095 41.419 6.0097 52.24-10.222 11.353-17.037 11.763-33.594 6.712-59.175-1.9026-9.6912-9.0748-11.01-13.133-3.5965"/>
  </g>
  <path d="m301.8 93.791c0.97557 4.4168 1.592 12.311 1.1988 16.677-0.38828 4.3828 14.297 5.5647 15.479 2.7908 1.1988-2.7908 1.592-11.918 0.80569-16.283-0.80569-4.3828-18.27-6.7635-17.482-3.184" fill="#7e8387"/>
  <path d="m303.04 107.64c4.6206 3.5771 10.873 4.179 11.626 3.4266 0.73774-0.73774 3.4218-12.363 2.6695-15.496 0 0 0.29122-0.1455 1.0435 0.90762 0.75229 1.029 1.6454 4.9143 0.88819 9.8281-0.73774 4.9143-1.1794 7.4483-2.087 7.7396-0.88819 0.29121-4.7614 1.3347-6.4034 1.0435-1.626-0.29121-6.6951-1.6454-7.2945-2.8248-0.597-1.1988-0.43683-4.6206-0.43683-4.6206" fill="#686d70"/>
  <path d="m313.26 94.351c3.1694 0.92217 4.8968 2.9801 5.0167 3.713 0.77174 4.1935-0.59698 12.294-1.6793 14.794-0.63584 0.87365-5.753 1.2182-10.016-0.33976-1.5046-0.54845-2.4122-1.2474-2.4122-1.8686v-0.0486c0.0971-0.95616 0.1455-2.0725 0.1455-3.3053 0-4.3343-0.38829-9.1092-1.2134-12.791 1.1988-0.80569 5.2739-1.5774 10.171-0.1455m-11.935-2.3783c-0.59698 0.54845-0.85424 1.3008-0.68436 2.0725 0.995 4.4508 1.5386 12.225 1.1794 16.318-0.0971 1.2668 0.54846 4.0236 5.685 5.3249 3.5092 0.88821 10.239 0.961 11.472-1.9366 1.3347-3.1354 2.6695-12.756 1.8832-17.089-0.29121-1.7279-2.0385-3.9217-5.3593-5.0507-4.179-1.4367-11.969-1.6114-14.177 0.33976" fill="#0f141b"/>
  <path d="m74.016 131.77c-8.3385 9.0918-10.427 21.591-7.0717 32.464 0.77174 2.519 1.7813 2.2618 1.1115-0.33976-2.8782-10.993 0.38829-22.927 6.798-31.248 2.1065-2.7374 1.5046-3.4072-0.83967-0.85421" fill="#0f141b"/>
 </g>
</svg>
