<?xml version="1.0" encoding="UTF-8"?>
<svg version="1.1" viewBox="0 0 157.05 225.76" xmlns="http://www.w3.org/2000/svg">
 <g transform="translate(-.0013514 -.15)">
  <path d="m101.95 0.85 4.5 1.8q0.9 0.4 1.1 1.1 0.2 0.6 0.05 1.7-0.55 3.25-0.55 10.7-0.05 6.35 0.25 9.75l3-4.3 2.1-4q0.9-2.3 2.65-2.5 1.75-0.15 2.3 1.85l2.2 6.6q0.45 1.7-0.2 3.4l-2 4.3q9.5 3.75 15.5 12.3 6.25 8.95 6.05 19.6-0.15 10.2-9.45 18.4-8.2 7.3-19 9.7l5.8 1.45q1.65 0.2 2.2 1.9 0.25 0.75 0.3 2.5v2.5q-0.2 1.65-2.2 3.7-1.95 2.1-2.65 3.15-1.1 1.65-1.35 3.5-6.5 1.85-15.6 1.15-8.65-0.65-12.65-2.9 0-1.95-0.8-3.7-0.65-1.3-2.2-3.25-3.8-0.7-19.8 1.5l-26.05 4q-1 3.8-2.65 4.65-1.35 0.8-4.15 0.95-2.85 0.15-3.95-0.6-0.45 2-2.9 2.2-2.35 0.2-6.1-0.8-1.4-0.35-2.45-1.25t-1.45-1.9l-5 0.2q-2.15-0.95-3.05-3.45-0.6-1.6-1.6-6.1-1.05-4.85-1.35-7.4-0.1-1.25 0.15-2.05 0.3-1.05 1.3-1.95 1.2-1.15 4.2-2.95 3.35-2.1 6.55-3.4 2.6-1.1 8.3-0.75 5.8 0.35 8.75 1.9 2.4 1.3 5.75 7 7.9 0.15 29.5-0.35 3.2-0.05 5.45-2.1 1.75-1.65 4.4-1.7-9.15-2.75-15.5-9.85-6.15-6.9-6.9-14.8-1-9.6 4.3-18.15 5-8.1 13.6-12.2 2.2-1.05 3.5-2.7 1.25-1.55 2-4.1 0.9-3.2 2-10.15 0.45-2.75 2.25-3.9 1.85-1.2 4.8-2.35 2.1-0.85 2.55 1.75l1.35 6.8q0.95 4.25 1.6 6.3 2.9-3.8 5.75-11 2.5-6.35 3.2-10.45 0.3-1.9 2.3-1.25" fill="#e6d4e7"/>
  <path d="m38.3 96.95q-0.25-1.4-2.5-5.9l12.2 0.1q1.85 3.35 1.35 7.85-0.4 4-2.05 5.7l-11.8 1.75q0.8-2.75 2.05-4.9 1.15-1.95 0.75-4.6" fill="#e5e3da"/>
  <path d="m98.6 111.15q10.4 0.5 13.9-1.6l-3.9 19.5q-0.2 1.05-0.9 1.55l-1.95 0.55-11.3-0.45q-7.1-0.8-10.65-2.1-1.95-0.7-1.55-3.15 2-12.85 2.05-17.25 4 2.4 14.3 2.95" fill="#e5e3da"/>
  <path d="m110.4 119.85 7.7 1.1q-1.4 2.1-1.45 5.15-0.05 3.6 2.05 5.9l-2.2 0.4q-1-0.85-3.05-1.7-2.5-1.05-4.95-1.35l1.9-9.5" fill="#e6d4e7"/>
  <path d="m128.3 121.3q-0.75 1.95-0.25 5.15 0.5 3 1.65 4.65l-11.1 1.05q-1.85-2.25-2-5.85-0.2-3.7 1.7-5.35l10 0.35" fill="#e5e3da"/>
  <path d="m143.95 106.4 5.9-0.25q1.25 0.4 3.7 4.1 2.35 3.55 2.7 5.25 0.4 1.7-0.4 5.75-0.8 4.2-2.05 6.6-1.25 2.35-4.75 5.05-3.4 2.6-5.2 2.85-1.85 0.25-6.55-0.95-5-1.25-6.75-2.65-2.5-1.95-2.7-6.8-0.25-5.5 3.25-9.4-1.05-4.2-0.1-5.4 0.75-0.9 3.5-1.55l3.85-0.5q1.25-1.3 5.6-2.1" fill="#e6d4e7"/>
  <path d="m78.95 170.35q-6.5-0.1-12.75-5.45-7.05-6.05-7.35-14.35-0.3-9.35 7.65-16.8 7.4-7 15.7-7 0.1 0.85 1.05 1.5 2.05 1.4 9.8 2.35l12.7 0.55q2.25-0.15 2.85-2.1 10 2.4 14.4 10.25 3.85 6.9 2.05 14.85-2.05 9.1-11.85 12.9-10.15 3.9-17.35-2.9-5.55 6.35-16.9 6.2" fill="#864b16"/>
  <path d="m80.7 170.25-2.05 1.9-2.3 2.1q0 2.85-0.4 4.35-0.25 1.1-4.95 8.15l-7 10.3q-1.2 1.8-3.15 2t-4.55-0.9q-2.45-1.05-3.85-2.45-0.65-0.65-0.7-1.45 0-0.55 0.3-1.6l3.9-9.85q2.9-7.1 3.75-8.85 0.45-0.95 2.25-2.35l2.55-2.15q0.3-0.35 0.6-2.3l0.25-2.9q2.9 3 7.4 4.6 4.05 1.5 7.95 1.4" fill="#e6d4e7"/>
  <path d="m117.15 197.85q-0.85-1.45-3-6.65l-2.85-7.35q-1.65-4.6-0.95-9.6 0.2-1.75-0.8-3.35-0.9-1.45-2.55-2.5 3.3 0.1 7.8-1.95 4.3-2 5.7-4.1l1.25 5.75 1.35 4.15q1.25 2.7 0.3 6.15 1.3 5.2 5.25 16.65 0.75 2.3-0.1 3.5-0.55 0.7-2.1 1.25l-4 0.7q-2.05 0.1-3.6-0.95-1.15-0.7-1.7-1.7" fill="#e6d4e7"/>
  <path d="m52.15 192.3q-0.75 1.65 0 2.75 1 1.45 3.25 2.6 2.3 1.15 4.45 1.3 1.9 0.15 3.1-0.85 1.05-0.9 2.35-3.3 4.9 4.25 6 11.3 1 6.3-1.3 12.5-1.4 3.9-7.35 5.3-5.25 1.25-12.1 0.2-6.05-0.9-10.2-4.35-4.3-3.55-4.5-8.15-0.2-6.9 4.75-13.1 5.15-6.5 11.55-6.2" fill="#864b16"/>
  <path d="m136 200.35q1.6 1.2 5.25 3.2 3.6 2 5.6 2.8 5.65 2.3 5.85 8.4 0.25 6.2-5.75 8.75-5.65 2.45-13.75 1.15-8.6-1.4-18.2-6.8-5.2-2.9-4.7-9.85 0.45-7.15 6.85-10.15 1.4 3.05 6.7 2.55t5.25-3.45q2.3 0.05 6.9 3.4" fill="#864b16"/>
  <path d="m86.2 49.6q4.35 2.6 11.9 5.85 0.55 7.85-1.85 14.1-0.6 1.55-1.8 2.3l-2.15 0.7-2.65 0.5q-4.1 0.3-4.7-0.65-2.5-4.05-2.2-10.85 0.35-6.95 3.45-11.95" fill="#fff"/>
  <path d="m121.2 70.7q-0.85 0-1.25-0.95-1.1-2.15-1.3-6.85-0.25-4.75 0.65-8l4.05-2.35 3.4-2.5q2.05 3.5 1.9 8.95-0.1 5.75-2.75 9.8-0.75 1.15-1.6 1.55l-3.1 0.35" fill="#fff"/>
  <path d="m87.45 53.3q1.8 0 2.8 2.5 1 2.4 0.85 6.35-0.2 4.35-1.7 7-1.35 2.4-3.1 2.4-1.6 0-2.6-3t-0.7-6.85q0.3-3.5 1.35-5.75 1.25-2.65 3.1-2.65" fill="#fcd13e"/>
  <path d="m119.15 67.25q-0.55-2.05-0.5-6 0.1-4.15 0.85-6.4l3.4-2.15q2.05 2.95 2.5 6.7 0.45 4.05-1.35 7.35-0.9 1.65-2.4 1.75-1.45 0.15-2.5-1.25" fill="#fcd13e"/>
  <path d="m101.3 77.3q5.8-2.85 7.2-2.9 0.4 0 2.2 0.75t2.85 1.4l-1.8 6.4q-1.2-2.35-4.4-2.7-3.6-0.4-7.3 2.4 0.05-1.15 0.55-3.05l0.7-2.3" fill="#922f00"/>
  <path d="m111.8 83.1-1.2 5q-0.55 1.65-4.15 2.25-3.75 0.65-5.45-1.1-1.1-1.1-1.1-6.3 2.8-2.75 6.5-2.85 3.8-0.1 5.4 3" fill="#ed8599"/>
  <g fill="#c7b7c8">
   <path d="m104.85 4.45q0.85 0.45 0.65 1.55-0.35 2.3-0.8 9.9-0.5 7.8-0.4 10.3 0.05 0.95-0.55 1.3l-1.15 0.2q-8.55-1.45-17.1 0.1-8.25 1.5-18.15 6.15 4.45-2.5 6.05-4.05 1.65-1.55 2.55-4.25l0.95-4.15 1.05-5.45q1.8-1.8 6.2-3.6 1.7-0.8 1.75 0.65 0.1 1.35 1.1 5.8 1.15 4.85 1.95 6.85 3.4-3.4 6.75-11.1 2.75-6.45 4.05-12.2 2.85 0.9 5.1 2"/>
   <path d="m118.2 20.8q2 4.1 0.9 6.65-3.25 7.45-5.15 14.05-2.55 8.75-1.25 11.45-2.65-3.35-0.2-13.15 1.8-7.3 4.5-12.5 1-1.9 1.25-3.2 0.3-1.45-0.05-3.3"/>
   <path d="m53.5 66q2.55 5.75 12.9 13 9.65 6.7 18.5 9.5-5.65-1.6-10.55-1.45-8.05-3.55-12.95-8.25-5.4-5.25-7.9-12.8"/>
   <path d="m99.3 92.2 9.55-0.4q-1.1 2.5-1.55 4.55-4.3-1.15-8-4.15"/>
   <path d="m107.65 95.05 1.2-3.25 1.35-0.45 3.4 0.75 2.65 0.45q0.95 0.05 1.5 0.4 0.65 0.5 0.85 1.7 0.35 1.85 0.1 3.95-0.3 2.8-1.75 4.3-3 3.35-4.05 5l1.85-7.25q0.7-2.45 0.7-4 0-1.4-0.8-1.6-3.25-0.5-7 0"/>
   <path d="m78.25 101.05q-10.95 0.8-30.55 3.7 1.15-2.45 1.6-5.35l28-1.6q3.2 0.05 5.9 2.05 2.75 2.1 3.05 4.9-1.45-1.9-2.75-2.7-2.05-1.25-5.25-1"/>
  </g>
  <path d="m49.3 99.4q-0.45 2.9-1.6 5.35l-12.45 2.1 2.85-6.65 11.2-0.8" fill="#c1bfb8"/>
  <path d="m109.2 126 7.35 0.65q0.2 3.25 2 5.55l-2.25 0.1q-1.15-0.85-3.35-1.75-2.5-1-4.35-1.15l0.6-3.4" fill="#c7b7c8"/>
  <path d="m127.95 126.55q0.55 2.75 1.75 4.5l-11.15 1.15q-1.8-2.3-2-5.55 6.4 0.3 11.4-0.1" fill="#c1bfb8"/>
  <g fill="#c7b7c8">
   <path d="m2.25 100.75q1 3.25 3.65 4.75 2.55 1.5 5.25 0.5 0 2.6 0.5 3.8-2.3 1.7-5.15 0.3-3.85-1.85-4.25-9.35"/>
   <path d="m24.05 101.1q0-2.7 1.05-4.15-0.05 1.75 0.5 3.8 0.5 2.05 1.2 2.95l-2.45 1.5-0.3-4.1"/>
   <path d="m22.4 107.65q0.15-1.5 1.45-7.55l0.85 10.1q0.15 1.45-0.6 2.6-0.8 1.2-2.2 1.25l-3.95-0.4q-2.5-0.45-3.7-1.15-1.8-1.05-2.5-3-0.65-1.95-0.4-5.3 0.8 5.95 8.85 6.05 0.9 0.05 1.5-0.65t0.7-1.95"/>
   <path d="m24.7 108.2q0.95 1.05 3.3 1.05 2.3-0.05 3-0.95l7.35-8.75q-3.4 7.8-3.9 9.8-0.45 1.9-2.3 2.35-5.25 1.4-7.5-0.15l0.05-3.35"/>
   <path d="m131.1 115.8q0.9 5.7 3.55 7.6 2.4 1.75 5.15-0.4-0.05 0.75 0.25 2l0.55 1.85q0.35 0.8 3.15 1.3l4.85 0.3q-1.8 2.15-6 2.1-4.25-0.1-5.1-2.6l-0.45-0.65q-0.25-0.2-0.9-0.25-3.65-0.2-5.2-3.75-1.6-3.5 0.15-7.5"/>
   <path d="m139.95 124.6q-0.05-1.3 0.15-2.5 0.2 3.7 5.65 4.2 1.15 0.15 2.75 0.8 1.75 0.7 2.45 1.5 0.4 0.4-0.75 0.5t-1.65-0.75l-4.4-0.15q-2.8-0.4-3.55-1.35-0.55-0.7-0.65-2.25"/>
   <path d="m152.95 114.65q-0.1 1.1-0.6 2.2l-2.1-0.2 2.7-2"/>
   <path d="m131.95 118.8q1.15 1.85 3.55 2.35t4.45-0.65v2.35q-2.05 1.8-4.25 1.1-2.65-0.8-3.75-5.15"/>
   <path d="m148.75 114.55 4.2-0.1-2.7 2.2-4.4-0.1-4 0.45q-1.2-0.5-2.1-1.55-0.95-1.2-1.05-2.65 1.1 1.55 3.1 1.85l1.15-0.05q3.8-0.35 5.8-0.05"/>
  </g>
  <path d="m84.15 108q1.45 0.85 3.2 1.5 0.55 4.55 0.55 10.55-0.05 6-0.7 9.45l-3.45-1q-0.85-0.35-1.25-1.1-0.5-0.95-0.2-2.2l1-7.1 0.85-7.55v-2.55" fill="#c1bfb8"/>
  <path d="m86.25 104.75q0.6 1.35 1.1 4.75-1.75-0.65-3.2-1.5-0.3-4.3-2.9-6.75 1.2 0.2 2.6 1.1 1.65 1.05 2.4 2.4" fill="#c7b7c8"/>
  <path d="m66.65 133.65q7.3-6.7 15.55-6.95 0.15 0.95 1.25 1.65 1.3 0.85 3.35 1-9.6 1.2-16.15 7.75-6.15 6.15-5.45 12.3 0.65 5.45 5.05 8.95 4.1 3.2 9.95 3.9 5.85 0.65 10.9-1.5 5.4-2.3 7.8-7.1 1.55 6.6-5.05 12.2-6.9 5.85-16 4.15-9.2-1.7-14.4-7.75-5.35-6.2-4.55-14.9 0.75-7.25 7.75-13.7" fill="#6a3906"/>
  <path d="m98.9 153.65q2.95-0.7 5.55-2.6 2.65-1.95 3.7-4.15-0.2 1.55-2 4.9-1.9 3.65-3.45 4.85 3.4 3.95 9.5 4.3 7.3 0.45 12.6-5.9-2 8.05-11 11.9-9.9 4.15-18.1-2.85 1.4-1.4 2.35-4.2 1.15-3.25 0.85-6.25" fill="#6a3906"/>
  <path d="m72.95 168.8q3.65 1.2 7.8 1.65l-4.3 3.85q0 3.75-0.3 4.5l-12.15 18q-0.95 1.45-1.75 1.9l-2.2 0.25q-2.55-0.3-6.3-2.3l6.8-17.95 0.95-2.5q0.55-1.3 1.25-1.9-0.2-3.1 1.7-4.8l0.8-5.1q2.55 2.7 7.7 4.4" fill="#c7b7c8"/>
  <path d="m107.1 168.3 3.45-0.3 3.55-1.3q2.55 2.85 3.25 7.05 0.55 3.25 0 6.4-0.65 3.6 2.4 14.35 0.5 1.6 1.35 3.1 1.05 1.75 2.2 2.6l-3.95-0.45q-1.7-0.65-2.65-2.65l-3.05-7.25-2.6-6.7q-1.35-4.4-0.85-8.1 0.25-2.1-0.35-3.5-0.7-1.55-2.75-3.25" fill="#c7b7c8"/>
  <path d="m52 224.45q-11.55-1.55-14.55-7.65-1.05-2.25-1.3-4.95-0.4-3.7 0.95-6.9 0.1 4.65 5.4 7.8 4.7 2.8 11.6 3.45 6.8 0.65 11.75-1.1 5.45-1.95 5.8-5.95l-0.25 6.15q-0.45 3.35-3.05 5.9-4.85 4.75-16.35 3.25" fill="#6a3906"/>
  <path d="m122.35 221.65q-9.15-3.45-11.55-8.4-1.45-3-0.05-7.55 1.6-5.3 6.3-7.95 1.05 2.7 5 2.6-4.4 2.85-4 7.5 0.45 4.55 5 7.15 6.7 3.75 16.95 3.8 11.15 0.1 12.7-5.2 0.5 5.15-3.05 8.35-4.1 3.65-12.2 3.05-7.65-0.55-15.1-3.35" fill="#6a3906"/>
  <path d="m98.15 55.5q0.35 2.8 0.05 5.8-2.55-2.4-7.35-3.9-0.8-3.8-3.1-4.05-2.05-0.15-3.5 2.85l-0.8 0.05q1.05-4.75 2.95-6.65 5.4 3.45 11.75 5.9" fill="#dbdcdc"/>
  <path d="m87.75 53.35q2.3 0.25 3.1 4.05-3.5-1.2-6.6-1.2 1.45-3 3.5-2.85" fill="#d9b536"/>
  <path d="m128.4 55.1q-2 0.15-3.7 0.95-0.7-1.8-1.8-3.25l3.85-2.65q1.15 1.7 1.65 4.95" fill="#dbdcdc"/>
  <path d="m118.5 60.1q0.3-3.15 0.85-5.25l3.55-2.05q1.1 1.45 1.8 3.25-3.4 1.35-6.2 4.05" fill="#d9b536"/>
  <path d="m100.3 88.4q-0.7-2.55-0.5-5.3 3.2-3.15 7.05-3.05 3.7 0.1 4.95 3-3.2-0.85-6.85 0.75-3.8 1.65-4.65 4.6" fill="#ce7486"/>
  <g fill="#0d131a">
   <path d="m82.5 10.7q-2 1.05-2.5 1.55-0.9 0.9-1.2 2.4l-1.75 9.5q-0.45 2.55-1.4 4.25-1.35 2.3-3.85 3.7-9.7 5.35-14.05 12.2-4.35 6.8-4.2 16.5 0.1 8.3 6.75 15.85 6.85 7.75 16.9 10.3l-3.4 0.1q-9.35-3-15.5-10.45-6.15-7.4-6.25-15.8-0.15-9.9 4.55-17.25 4.6-7.25 14.55-12.8 2-1.1 3-2.7 0.85-1.45 1.5-4.15l2-9.5q0.4-1.85 1.55-3.05 0.6-0.6 2.8-1.8 2.05-1.15 3.15-1.55 1.2-0.45 2.1 0.2 0.85 0.65 1.05 2.2 0.25 2.15 1.2 6.2l1.7 6.5-1.1 1.15q-0.8-2.15-1.8-7.05l-1.15-6.6q-0.2-1.8-1.65-1.3l-3 1.4"/>
   <path d="m107.6 15.1q-0.15 6.9 0.25 10.25l-1.5 1.6q-0.5-3-0.1-10.9l0.75-11.1-0.2-1.2-0.95-0.6-4.4-1.65q-0.95-0.35-1.15 0.75-1.15 5.45-3.95 12.15-3.65 8.75-7.4 11.95-0.75 0.65-1 0.4t0.45-0.95q3.5-3.55 6.85-12.1 2.6-6.55 3.75-11.9 0.25-1.1 0.95-1.55l1.75-0.1 4.7 1.7q1.85 0.75 1.7 3.1l-0.5 10.15"/>
   <path d="m120.25 23.7q0.4 1.15 0.2 2.25l-0.7 1.9q-1.35 2.9-3.4 8.35-2 5.3-2.7 7.8-1.5 5.75-0.35 9.05 0.35 0.95 0.1 1.05-0.25 0.15-0.75-0.7-1.05-1.7-0.95-4.65 0.05-2.45 0.8-5.1 0.75-2.75 2.6-7.95 2-5.7 3.3-8.5l0.55-1.5q0.1-0.8-0.2-1.75l-2.1-7.1q-0.35-1.2-1.65-0.95-1.45 0.25-2.2 2.15-0.9 2.3-3.1 5.55-2.6 3.95-4.9 5.7-0.75 0.55-0.95 0.3-0.25-0.3 0.45-0.9 2.15-1.95 4.4-5.7 1.8-2.95 2.75-5.4 1.15-2.85 3.5-3.15t3 1.95l2.3 7.3"/>
   <path d="m117.7 30.85q10.05 4.2 15.9 12.6t6.1 18.9q0.3 12.9-12.7 22.3-12.55 9.05-27.05 7.9-0.8-0.05-0.8-0.4 0.05-0.4 0.85-0.35 14.1 0.75 26.05-8.2 12.2-9.2 11.95-21.25-0.25-10.3-5.6-18.25-5.4-8.05-15-12.25l0.3-1"/>
   <path d="m66.1 42.7q6.45 3 9.05 15.75 2.55 12.45-0.4 19.25-2.5 5.9-7.9 5.75l-0.05-0.15-1.15-1.05q6 0.4 8.15-6 2.2-6.4-0.1-17.55-2.7-13.2-9.5-15-2.85-0.75-5.5 0.95t-4.2 5.15l1.65-4.6q4.4-5.05 9.95-2.5"/>
   <path d="m130.55 47.55q-1.9 2.15-5.95 4.75-3.5 2.25-7.05 3.95-0.7 0.3-0.9 0t0.55-0.7q9.1-5.2 12.85-8.55 0.6-0.55 0.85-0.3 0.2 0.25-0.35 0.85"/>
   <path d="m120.3 54.2q-1.35 3.2-1.2 8.35 0.15 4.25 0.95 6.55 0.35 0.9 0 1-0.3 0.1-0.7-0.7-1-2.15-1.3-6.3-0.3-4.7 0.8-7.95l1.45-0.95"/>
   <path d="m121.4 70.3 2.5-0.35q0.8-0.2 0.9 0.2 0.15 0.4-0.6 0.6l-2.8 0.35q-0.8 0-0.8-0.4t0.8-0.4"/>
   <path d="m127.2 49.7q2.15 3.9 2.05 9.5-0.1 6.15-3.05 9.75-0.55 0.7-0.8 0.5-0.3-0.2 0.2-0.95 2.3-3.5 2.35-9.35 0.05-5.2-1.55-8.75l0.8-0.7"/>
   <path d="m119.2 66.35q1.5 2.95 3.55 1.1 2.1-1.9 2.1-7.15 0-2.25-0.9-4.6-0.85-2.2-1.65-2.6l0.8-0.65q1.05 0.65 1.95 3 0.95 2.5 0.95 4.85 0 5.95-2.55 8.05-2.3 1.85-4.1-0.3l-0.15-1.7"/>
   <path d="m83.7 47.3q3.35 2.5 9.25 5.3 6.7 3.25 10.4 3.65 0.8 0.1 0.8 0.45-0.05 0.35-0.85 0.35-3.55 0.05-10.6-3.3-6.6-3.1-9.5-5.85-0.6-0.55-0.35-0.8 0.2-0.3 0.85 0.2"/>
   <path d="m82.35 60.45q0.4-7.05 3.45-11.05l1 0.55q-2.9 3.8-3.4 10.7-0.45 6.55 1.5 10.55 0.6 1.25 0.25 1.4t-0.95-1.05q-2.25-4.25-1.85-11.1"/>
   <path d="m87.35 53.8q-1.3 0-2.4 2.2-1.15 2.4-1.4 6.1-0.25 4.15 0.65 6.65 0.85 2.25 2.25 2.3 1.55 0.05 2.6-2.15t1.4-6.05q0.4-4.85-0.65-7.2-0.85-1.85-2.45-1.85m3.3 1.4q1.45 2.75 1 7.8-0.35 4.15-1.8 6.65-1.4 2.4-3.35 2.4-1.25 0-2.3-1.3-1-2.45-1.25-6.3-0.25-3.5 0.2-6.9 0.7-2.15 1.85-3.4 1.1-1.15 2.3-1.25 2.1-0.05 3.35 2.3"/>
   <path d="m90.15 73.35q-0.85 0.1-0.9-0.3-0.05-0.35 0.8-0.45l3.85-0.9q0.8-0.35 0.9 0 0.15 0.3-0.6 0.65-2.05 0.95-4.05 1"/>
   <path d="m98.65 55.6q0.4 3.15-0.1 7.2-0.5 4.25-1.65 6.5-0.5 1-0.8 0.85-0.35-0.15 0.1-1.2 1-2.35 1.35-6.65 0.35-4.1-0.1-7.15l1.2 0.45"/>
   <path d="m121.4 56.95q0.55 0.05 0.85 1.4l0.3 2.7q0 1.9-0.35 3.15-0.4 1.15-0.85 1.15t-0.8-1.4q-0.35-1.35-0.4-2.95 0-1.45 0.35-2.7 0.35-1.4 0.9-1.35"/>
   <path d="m86.3 66.45q-0.5-0.05-0.85-1.4-0.3-1.3-0.2-2.85 0.1-1.9 0.55-3.05 0.4-1.1 0.9-1.1t0.8 1.45q0.3 1.35 0.2 3-0.05 1.35-0.45 2.6-0.5 1.35-0.95 1.35"/>
   <path d="m98.75 78.15q1.6-1 5.25-2.65 3.75-1.75 4.45-1.75t2.85 1.1l3.15 1.8q0.7 0.5 0.55 0.8l-0.95-0.1q-1.4-0.8-3.15-1.5-1.8-0.75-2.45-0.75-0.65-0.05-4.25 1.45-3.6 1.45-5.05 2.3-0.6 0.3-0.8 0t0.4-0.7"/>
   <path d="m99.4 84.7q0.05-4.15 1.45-7.2l1.1-0.45q-1.5 2.95-1.55 7.1-0.05 4 1.25 4.85 1.4 0.85 3.35 0.85l3.3-0.65q1.85-0.75 2.05-2 1.45-7.15 2.75-10.8l0.7 0.35q-0.75 2.05-2.45 10.6-0.45 2.05-2.8 3-1.6 0.7-3.7 0.7-2.4-0.05-3.9-1-1.6-1-1.55-5.35"/>
   <path d="m111.45 83.7q-1-2.85-4.6-3.05-3.7-0.2-6.85 2.95l-0.1-1.05q3.1-3.15 7-2.9 3.7 0.25 4.9 2.9l-0.35 1.15"/>
   <path d="m89 90.7q-6.95-2.8-11.35-3.15-4.55-0.3-7.05 1.9-1.9 1.7-4.8 1.85l-14.25 0.4-15.4 0.1-0.65-1.45 14.65 0.15 15.6-0.45q2.4-0.15 4.05-1.6 5.7-5 19.5 1.55 0.95 0.4 0.8 0.75l-1.1-0.05"/>
   <path d="m12.2 82.45q3.6-1.4 10.05-0.85 6.4 0.55 9 2.5 2.05 1.5 4.3 5.35 1.9 3.2 3.1 6.45 1.05 3.05-0.35 5.65-1.2 2.2-3.3 8.45-0.35 1.1-1.25 1.65l-1.7 0.75-4.9 0.65q-1.45 0-2.6-0.85l0.25-1.3q0.95 0.85 2.3 0.85 2.3 0 4.55-0.7 1.55-0.4 2-1.75 2.1-5.8 3.45-8.3 1.2-2.25 0.35-4.7-1.1-3.05-2.9-6.2-2.15-3.7-3.95-5.05-2.45-1.8-8.45-2.2t-9.5 0.95q-3.3 1.3-6.2 3.25-2.6 1.7-4 3.3-1.15 1.3-0.95 2.85 1.35 9.05 2.6 12.85 0.85 2.55 2.95 3.5 2.2 1.05 4.55-0.25l0.5 1.15q-2.55 1.45-5.2 0.5-3-1-4.15-4.5-1.45-4.35-2.7-13.1-0.3-2.2 1.25-3.95 1.45-1.65 4.3-3.55 3.2-2.1 6.6-3.4"/>
   <path d="m12.2 98.8q-0.25 1.9-0.25 8.7 0 1.3 0.5 2.45 0.55 1.25 1.45 1.75 1.5 0.9 4.1 1.35l4.25 0.2q1.9-0.3 1.9-2.75-0.1-3.9-0.6-8.1-0.3-3.25 0.9-5.3 0.4-0.65 0.7-0.5 0.3 0.2 0 0.85-0.85 1.85-0.45 4.85 0.45 3.8 0.55 8.25 0.05 1.75-0.7 2.85t-2.1 1.3l-4.35-0.3q-3-0.6-4.9-1.7-2.45-1.4-2.45-5.15 0-6.1 0.3-8.85 0.25-1.9-1.1-2.95-0.5-0.35-0.3-0.65 0.2-0.25 0.75 0 0.95 0.5 1.45 1.55 0.45 1 0.35 2.15"/>
   <path d="m24.35 104.85q1.15-1.1 3-1.75 0.6-0.2 0.75 0.15 0.1 0.4-0.45 0.6-1.8 0.75-3.1 2.35l-0.2-1.35"/>
   <path d="m59.15 103.75-24.05 3.75 0.45-1.55 24-3.55 19.35-1.9q5.35 0.1 7.5 3.8 0.45 0.8 0.2 0.95-0.3 0.15-0.85-0.55-1.25-1.6-2.8-2.25-1.6-0.75-4.05-0.8-3.6-0.1-19.75 2.1"/>
   <path d="m40.45 91.2q1.65 2.95 1.5 7.7-0.15 4.7-1.85 6.95l-1.05 0.1q1.7-2.6 1.8-7.3 0.1-4.65-1.4-7.45h1"/>
   <path d="m50.1 98.2q-0.2 4.1-2.15 6.5l-1.5 0.1q1.85-2.1 2.2-6.35 0.35-4.4-1.35-7.15l1.25-0.15q1.75 2.85 1.55 7.05"/>
   <path d="m109.7 91.7q-1.35 2.1-1.9 4.15-0.2 0.85-0.6 0.75-0.35-0.1-0.15-0.95 0.55-2.4 1.4-3.9l1.25-0.05"/>
   <path d="m111.15 91.2 5.4 0.95q2.55 0.3 2.85 3.95 0.35 4.8-1.95 7.1-3.3 3.3-4.75 6.2l0.45-2.45q1.45-2.45 3.6-4.65 1.65-1.6 1.35-6.15l-0.45-2.05q-0.4-0.75-1.25-0.85l-7-1.5 1.75-0.55"/>
   <path d="m114.85 101.45q-1.75 6.8-5.75 28-0.4 1.9-2.6 2.2-4.1 0.5-11.8-0.25-8.5-0.9-11.7-2.7-1.8-0.95-1.4-3.1l1.4-9.5q0.7-5.85 0.65-7.45-0.15-5.3-3.7-7.45l2 0.15q2.75 2.3 2.9 7.35 0.05 1.7-0.65 7.75l-1.3 9.25q-0.3 1.5 0.65 2 2.55 1.4 10.15 2.4l12.65 0.45 1.2-0.4 0.45-0.9 2.9-14.15q2.4-11.05 3.2-13.85 0.3-1 0.65-0.9t0.1 1.1"/>
   <path d="m112.45 110.2q-3.5 1.9-13.35 1.6-10.4-0.35-14.85-3.15l0.05-1.05q3.85 2.6 14.25 3.05 10.1 0.45 14.15-1.5l-0.25 1.05"/>
   <path d="m110.05 121.65q-4 1.75-12.75 1.35-9.5-0.4-14.15-3.35l0.15-1q4.05 2.65 13.55 3.2 9.1 0.55 13.45-1.25l-0.25 1.05"/>
   <path d="m58.25 151.65q-1.05-9.2 6.5-17.1 7.5-7.8 17.4-8.35l0.15 1.05q-9.5 0.7-16.5 8.25t-6.05 16q0.9 7.65 6.5 12.6 5.1 4.5 11.8 5.2 9.1 0.95 15-3.55 5.75-4.4 5.5-11.5-0.05-0.75 0.3-0.75 0.4-0.05 0.45 0.7 0.8 7.75-5.6 12.7-6.45 4.9-15.85 3.9-7.35-0.75-12.7-5.6-5.95-5.3-6.9-13.55"/>
   <path d="m108.55 147.45q-0.35 2-2 4.85t-3.2 4.25q-0.55 0.5-0.8 0.3-0.3-0.25 0.25-0.8 1.35-1.5 2.9-4.25t2.05-4.55q0.25-0.75 0.55-0.65 0.35 0.05 0.25 0.85"/>
   <path d="m99.05 160.65 2.8-2.25q0.5-0.5 0.75-0.25t-0.2 0.8q-1.05 1.35-3.05 2.45l-0.75-0.05q-0.15-0.35 0.45-0.7"/>
   <path d="m121.35 135.85q4.75 5.8 4.75 14.15 0 5.95-3.4 10.65-3.1 4.35-8.2 6.55-5 2.2-10.1 1.6-5.35-0.6-9-4.15l0.8-0.8q3.6 3.2 8.6 3.75 4.75 0.45 9.3-1.6 4.7-2.1 7.5-6.1 3.05-4.4 3.05-9.9 0-8.05-4.3-13.4-4.3-5.4-11.9-6.8l0.2-0.9q7.9 1.1 12.7 6.95"/>
   <path d="m128.3 121.75q-2.65 0.2-8.55-0.2-6.65-0.4-9.4-1.15l0.2-1.1 9.1 1.2q6.2 0.45 8.85 0.15l-0.2 1.1"/>
   <path d="m144.05 106.95q-3.45 0.7-4.75 1.55l-0.8 0.65q-0.25 0.35-0.2 0.95l0.5 2.15 1.05 2.35q0.5 0.85 1.45 1.45l1.75 0.55-1.45 0.6q-1.6-0.3-2.65-2.05l-1.1-2.55-0.6-2.45q-0.05-1 0.3-1.55t1.2-1.1q1.4-0.95 5.15-1.7l5.85-0.3q1.3 0.3 4.05 4.25 2.6 3.75 3.1 5.6 0.45 1.75-0.4 5.8-0.85 3.9-2.05 6.45-1.3 2.7-4.15 5.3-3 2.8-5.7 3.45-2.65 0.65-8.1-0.9-5.25-1.45-6.55-2.95-2.85-3.45-2.75-8 0.15-4.75 3.6-9.35l0.4 1.35q-2.65 3.95-2.75 8-0.1 4 2.4 7.1 0.9 1.1 5.8 2.4 5.2 1.35 7.65 0.75 2.55-0.6 5.3-3 2.55-2.3 3.75-4.75 1.25-2.5 2-6.2t0.35-5.25q-0.45-1.7-2.8-5.1-2.4-3.55-3.4-3.8l-5.45 0.3"/>
   <path d="m142.1 117.55q-1.1 0.35-1.25 1.25-0.65 3.5-0.35 6 0.15 1.15 0.4 1.6l0.8 0.65q1.2 0.6 3 0.85l3.3 0.05q0.85-0.1 0.9 0.25 0.1 0.4-0.75 0.5-4.2 0.65-6.9-0.7l-1.25-1q-0.45-0.65-0.65-2.1-0.35-2.9 0.35-6.3 0.3-1.65 2.15-2.15l4.6-0.45 6.2 0.7q0.8 0.25 0.7 0.55-0.1 0.35-0.9 0.2l-5.95-0.4-4.4 0.5"/>
   <path d="m150.35 128.65q-1.9-1.4-4.15-1.9-0.7-0.2-0.65-0.55 0.1-0.35 0.85-0.2 2.7 0.45 4.4 2 0.55 0.5 0.3 0.8l-0.75-0.15"/>
   <path d="m149.55 116.45 2.55-1.7q0.7-0.55 0.95-0.3t-0.4 0.85l-1.75 1.4-1.35-0.25"/>
   <path d="m135.2 109.3q-2 0.5-3 1.05-0.7 0.4-0.9 0.75l-0.2 1.05q0 1.85 0.75 4.65t1.7 4.65q1.05 1.85 2.9 2.1 1.85 0.2 3.25-1.35l0.15 1.3q-1.65 1.5-3.8 1.15-2.25-0.3-3.5-2.65-1.05-1.9-1.85-4.9t-0.8-5q0-1.85 1.8-2.8 1.35-0.7 3.5-1.15l3.35-0.1-0.5 1.05-2.85 0.2"/>
   <path d="m130.1 131.6-13.1 1.15-1.55-1.05 13.95-1.2 0.7 1.1"/>
   <path d="m118.15 132.1q-1.9-2.05-2.05-5.6t1.65-5.6l1.1 0.1q-1.8 1.75-1.7 5.45 0.05 3.65 1.95 5.5l-0.95 0.15"/>
   <path d="m124.2 131.7q-1.6-2.15-1.75-5.45-0.1-3.45 1.55-5.05l1.1 0.1q-1.65 1.2-1.6 4.75 0.05 3.45 1.65 5.5l-0.95 0.15"/>
   <path d="m64.7 169.95q-0.85 1.05-1.05 1.6-0.45 1.05-0.55 2.1-0.05 0.9-0.45 0.9-0.35 0-0.35-0.9 0-1.3 0.4-2.35 0.25-0.7 1.05-1.8l0.55-2.45 0.35-3.5 1.1 1.05-0.45 3.3-0.6 2.05"/>
   <path d="m63.35 171.2q-0.95 0.55-1.9 1.6-0.85 0.95-1.2 1.7-7.65 17.55-7.9 19.3-0.35 1.95 4.4 3.85 4.75 1.95 6.1-0.05l7.05-10.35 5.5-8.55q0.35-0.6 0.45-4.05l1.15-1q0 4.45-0.6 5.55-0.9 1.8-5.6 8.6l-7.1 10.4q-1.7 2.6-7.35 0.4t-5.2-4.95q0.15-0.85 3.25-8.45l4.55-11.2q1-2.4 5.15-4.65l-0.75 1.85"/>
   <path d="m80.4 170.1h2.05l-5.15 3.95q-2.75 2.3-4.25 3.95-0.65 0.7-0.9 0.5-0.3-0.2 0.3-1 1.35-1.7 3.65-3.9 2.4-2.2 4.3-3.5"/>
   <path d="m65.6 194.5q5.5 2.85 6.55 12.95 1.05 10.05-3.5 14.45-2.3 2.25-7.25 3.1-4.85 0.8-10.2 0-12.95-2.05-15.5-10.6-2.2-7.3 3.15-14.85 5.45-7.7 13.5-8.05l-0.25 1.15q-6.85 0.4-11.85 7.6t-3.05 13.75q2.2 7.45 14.3 9.35 4.95 0.8 9.45 0.05 4.6-0.7 6.65-2.75 4.05-3.95 3-13.25-1.05-9.25-5.65-11.85l0.65-1.05"/>
   <path d="m106.2 168.2 1.55-0.1q1.9 1.6 2.6 2.8 0.95 1.7 0.6 3.65-0.4 2.3-0.15 4.85 0.25 2.1 0.85 3.75l3.2 8.3q2.45 5.95 3.45 7.05 1.45 1.55 4.8 1.35 2.9-0.2 4.45-1.25 0.8-0.55 0.95-1.1 0.2-0.7-0.3-2l-2.9-8.4q-1.5-4.8-2.3-8.25l0.7-1.8q0.75 3.35 2.45 8.95l3.1 9.25q1.1 2.85-1.05 4.3-2.05 1.4-5.55 1.45-3.65 0-5.2-1.7-1.8-1.9-7-15.7-0.6-1.65-0.8-4.1-0.25-2.75 0.2-5.15 0.25-1.55-0.5-2.8-0.7-1.2-3.15-3.35"/>
   <path d="m121 161.7q0.1 1.95 1.05 5.65 0.9 3.6 1.5 4.7 1 1.75 0.8 4-0.2 2.1-1.3 3.6-0.5 0.65-0.8 0.5t0.1-0.9q0.85-1.4 0.9-3.2 0.1-1.95-0.75-3.55-0.6-1.1-1.45-4.2-0.9-3.25-1.1-5.45l1.05-1.15"/>
   <path d="m121.3 173q0.85 0.75 1.1 2.5 0.3 1.65-0.15 3.1l-0.55 0.75q-0.3-0.05-0.2-0.9 0.4-3.15-0.75-4.95-0.35-0.5-0.1-0.7 0.2-0.25 0.65 0.2"/>
   <path d="m129.05 196.25q2.95 0.5 6.95 3.35 3.9 2.85 11.35 6.2 6.55 2.95 6.3 9.5-0.3 6.55-7.1 9.25-5.35 2.15-13.7 0.9-9.6-1.45-18.25-7-2.85-1.8-4-4-1.25-2.2-1.2-5.5 0.05-3.4 2.25-6.8 2.15-3.3 5.2-4.8l0.55 0.95q-2.85 1.4-4.65 4.4-1.8 2.95-1.85 6.25-0.05 2.8 1.05 4.7 1.05 1.95 3.5 3.5 7.6 4.85 16.4 6.5 8.55 1.6 14.15-0.6 6.1-2.35 6-8-0.05-5.5-5.25-7.85-7.05-3.15-11.5-6.4-3.8-2.85-6.1-3.35l-0.1-1.2"/>
  </g>
 </g>
</svg>
