<svg baseProfile="tiny" height="642px" version="1.2" width="675px" xmlns="http://www.w3.org/2000/svg" xmlns:ev="http://www.w3.org/2001/xml-events" xmlns:xlink="http://www.w3.org/1999/xlink"><defs /><path d="M82,579L86,583L87,583L88,584L89,584L90,585L91,585L92,586L95,586L96,587L98,587L99,588L103,588L100,588L99,587L96,587L95,586L94,586L93,585L92,585L91,584L89,584L88,583L87,583L85,581L84,581Z" fill="none" stroke="black" stroke-width="5" /><path d="M143,551L141,554L139,555L135,559L135,560L132,562L132,563L129,566L128,569L125,572L122,577L117,582L117,583L111,588L107,589L112,589L121,580L121,579L125,575L125,574L131,567L136,559L143,552Z" fill="none" stroke="black" stroke-width="5" /><path d="M100,541L98,543L98,545L97,546L97,548L97,547L98,546L98,544L100,542Z" fill="none" stroke="black" stroke-width="5" /><path d="M97,525L94,528Z" fill="none" stroke="black" stroke-width="5" /><path d="M92,515L93,515L94,514L96,514L93,514Z" fill="none" stroke="black" stroke-width="5" /><path d="M54,500L51,510L50,527L53,530L78,542L80,545L81,573L81,547L78,536L72,529L76,535L74,538L55,531L51,527L50,516L53,505L57,499L61,499Z" fill="none" stroke="black" stroke-width="5" /><path d="M63,498L84,498L85,497L89,497L84,497L83,498L81,498L80,497L75,497L74,498Z" fill="none" stroke="black" stroke-width="5" /><path d="M134,492L130,492L129,493L126,493L125,494L122,494L121,495L117,495L116,496L107,496L106,497L105,497L109,497L110,496L117,496L118,495L121,495L122,494L125,494L126,493L130,493L131,492Z" fill="none" stroke="black" stroke-width="5" /><path d="M352,463L351,463L351,464Z" fill="none" stroke="black" stroke-width="5" /><path d="M375,448L373,448L372,449L370,449L369,450L368,450L367,451L366,451L364,453L363,453L361,455L360,455L355,460L359,456L360,456L361,455L362,455L364,453L365,453L367,451L368,451L369,450L370,450L371,449L374,449Z" fill="none" stroke="black" stroke-width="5" /><path d="M515,410L515,414L516,415L516,416L517,416L518,417L520,417L521,418L526,418L523,418L522,417L520,417L519,416L518,416L515,413Z" fill="none" stroke="black" stroke-width="5" /><path d="M517,406L516,407L516,408L516,407Z" fill="none" stroke="black" stroke-width="5" /><path d="M382,406L394,420L401,438L402,456L395,483L397,486L397,473L400,470L404,470L408,475L408,484L405,488L400,488L413,496L408,490L409,475L402,466L402,442L398,426L390,413Z" fill="none" stroke="black" stroke-width="5" /><path d="M355,371L355,388L356,390L362,395L370,399L372,399L377,402L375,400L371,398L369,398L367,397L365,395L362,394L359,391L357,390L355,386L355,377L356,376L356,371Z" fill="none" stroke="black" stroke-width="5" /><path d="M451,354L445,383L455,426L455,481L445,494L436,499L422,500L438,499L448,493L457,475L454,417L446,384Z" fill="none" stroke="black" stroke-width="5" /><path d="M80,334L81,335Z" fill="none" stroke="black" stroke-width="5" /><path d="M440,333L440,334L442,336L442,337L444,339L444,340L447,343L447,344L450,347L450,348L451,349L451,350L451,346L450,345L450,344L448,342L448,341L445,338L445,337L441,333Z" fill="none" stroke="black" stroke-width="5" /><path d="M591,334L585,330L575,329L587,332L592,337L592,343L584,351L541,380L518,404L538,383L586,350L593,342Z" fill="none" stroke="black" stroke-width="5" /><path d="M568,328L573,328Z" fill="none" stroke="black" stroke-width="5" /><path d="M75,323L75,325L76,326L76,328L78,330L78,331L79,332L78,331L78,329L77,328L77,327L76,326L76,325L75,324Z" fill="none" stroke="black" stroke-width="5" /><path d="M99,354L117,369L135,373L159,347L181,335L253,333L282,348L256,332L180,334L167,294L138,276L126,284L115,303L114,327L133,331L168,313L175,334L135,372L122,371Z" fill="none" stroke="black" stroke-width="5" /><path d="M80,274L80,290L81,291L81,300L75,310L75,312L74,313L74,321L74,315L76,312L76,310L82,298L82,296L81,295L81,290L80,289Z" fill="none" stroke="black" stroke-width="5" /><path d="M81,270L81,271Z" fill="none" stroke="black" stroke-width="5" /><path d="M173,265L173,267Z" fill="none" stroke="black" stroke-width="5" /><path d="M183,256L185,258Z" fill="none" stroke="black" stroke-width="5" /><path d="M201,251L202,252L204,252L205,253L204,252L202,252Z" fill="none" stroke="black" stroke-width="5" /><path d="M92,245L91,246L91,247L90,248L90,249L88,251L88,252L87,253L87,255L86,256L86,257L85,258L85,259L84,260L84,262L83,263L83,265L82,266L82,267L82,266L83,265L83,263L84,262L84,260L85,259L85,258L87,256L87,254L88,253L88,252L89,251L89,250L91,248L91,247L92,246Z" fill="none" stroke="black" stroke-width="5" /><path d="M229,236L230,237L232,237L233,238L234,238L235,239L237,239L238,240L240,240L240,239L237,239L236,238L235,238L234,237L233,237L232,236Z" fill="none" stroke="black" stroke-width="5" /><path d="M104,229L100,233L100,234L96,238L96,239L95,240L97,238L97,237L100,234L100,233Z" fill="none" stroke="black" stroke-width="5" /><path d="M122,210L115,217Z" fill="none" stroke="black" stroke-width="5" /><path d="M131,204L130,204L129,205L128,205L126,207L128,205L129,205L130,204Z" fill="none" stroke="black" stroke-width="5" /><path d="M133,203L137,203Z" fill="none" stroke="black" stroke-width="5" /><path d="M145,202L150,202Z" fill="none" stroke="black" stroke-width="5" /><path d="M155,201L159,201Z" fill="none" stroke="black" stroke-width="5" /><path d="M166,199L164,199L163,200L161,200L164,200L165,199Z" fill="none" stroke="black" stroke-width="5" /><path d="M547,149L553,155Z" fill="none" stroke="black" stroke-width="5" /><path d="M330,120L285,205L379,240L391,330L309,315L252,488L234,444L137,491L232,475L146,549L251,494L268,580L345,583L356,625L643,573L530,491L559,419L528,487L637,575L465,588L487,487L452,607L380,623L321,542L349,466L335,578L269,533L256,446L310,337L565,327L391,291L438,163L338,130L291,187L325,125L447,154L438,202L526,217L500,284L595,194L542,235L429,136Z" fill="none" stroke="black" stroke-width="5" /><path d="M265,105L247,123L229,150L204,177L184,191L168,198L183,192L208,175L227,154L248,123Z" fill="none" stroke="black" stroke-width="5" /><path d="M270,100L267,103Z" fill="none" stroke="black" stroke-width="5" /><path d="M387,50L361,53L338,61L292,83L277,94L316,71L356,55Z" fill="none" stroke="black" stroke-width="5" /><path d="M390,49L399,49Z" fill="none" stroke="black" stroke-width="5" /><path d="M401,48L443,48L444,49L451,49L449,49L448,48L439,48L438,47L427,47L426,46L424,46L423,44L418,47L413,47L412,48Z" fill="none" stroke="black" stroke-width="5" /><path d="M487,36L482,36L480,34L482,38L476,45L472,48L465,51L454,50L458,50L460,52L460,55L447,62L441,64L449,62L464,54L477,45Z" fill="none" stroke="black" stroke-width="5" /><path d="M433,34L432,35Z" fill="none" stroke="black" stroke-width="5" /><path d="M492,31L491,32Z" fill="none" stroke="black" stroke-width="5" /><path d="M476,31L470,25L466,23L458,23L457,24L448,24L444,26L439,30L438,30L435,33L443,27L447,25L449,25L450,24L467,24L471,27L472,27Z" fill="none" stroke="black" stroke-width="5" /><path d="M517,12L541,17L561,38L561,46L531,98L525,134L525,125L530,123L546,147L529,119L532,100L538,96L561,135L565,159L560,162L555,157L590,184L567,165L559,128L538,93L561,49L562,35L538,15Z" fill="none" stroke="black" stroke-width="5" /></svg>