<svg baseProfile="tiny" height="642px" version="1.2" width="675px" xmlns="http://www.w3.org/2000/svg" xmlns:ev="http://www.w3.org/2001/xml-events" xmlns:xlink="http://www.w3.org/1999/xlink"><defs /><path d="M82,579L86,583L92,586L95,586L99,588L103,588L96,587L91,584L87,583Z" fill="none" stroke="black" stroke-width="5" /><path d="M143,551L132,562L117,583L107,589L112,589L121,580Z" fill="none" stroke="black" stroke-width="5" /><path d="M100,541L98,543L98,545L97,546L97,548L97,547L98,546L98,544L100,542Z" fill="none" stroke="black" stroke-width="5" /><path d="M97,525L94,528Z" fill="none" stroke="black" stroke-width="5" /><path d="M92,515L93,515L94,514L96,514L93,514Z" fill="none" stroke="black" stroke-width="5" /><path d="M56,499L50,527L78,542L81,573L78,536L72,529L76,535L72,538L51,527L53,505L61,499Z" fill="none" stroke="black" stroke-width="5" /><path d="M63,498L84,498L85,497L89,497L84,497L83,498L80,497Z" fill="none" stroke="black" stroke-width="5" /><path d="M134,492L116,496L105,497L117,496Z" fill="none" stroke="black" stroke-width="5" /><path d="M352,463L351,463L351,464Z" fill="none" stroke="black" stroke-width="5" /><path d="M375,448L366,451L360,455L355,460L359,456L362,455L367,451Z" fill="none" stroke="black" stroke-width="5" /><path d="M515,410L515,414L516,416L518,417L520,417L521,418L526,418L523,418L522,417L520,417L518,416L515,413Z" fill="none" stroke="black" stroke-width="5" /><path d="M517,406L516,407L516,408L516,407Z" fill="none" stroke="black" stroke-width="5" /><path d="M382,406L401,438L395,483L397,473L404,470L408,484L400,488L413,496L402,466L398,426Z" fill="none" stroke="black" stroke-width="5" /><path d="M355,371L356,390L362,395L377,402L357,390L355,386Z" fill="none" stroke="black" stroke-width="5" /><path d="M451,354L445,383L455,426L455,481L445,494L426,501L448,493L457,475L446,384Z" fill="none" stroke="black" stroke-width="5" /><path d="M80,334L81,335Z" fill="none" stroke="black" stroke-width="5" /><path d="M440,333L444,340L450,347L451,350L451,346L445,337L441,333Z" fill="none" stroke="black" stroke-width="5" /><path d="M591,334L575,329L587,332L592,343L541,380L518,404L538,383L593,342Z" fill="none" stroke="black" stroke-width="5" /><path d="M568,328L573,328Z" fill="none" stroke="black" stroke-width="5" /><path d="M75,323L75,325L76,326L76,328L78,330L78,331L79,332L78,331L78,329L77,328L77,327L76,326L76,325L75,324Z" fill="none" stroke="black" stroke-width="5" /><path d="M99,354L135,373L181,335L253,333L282,348L256,332L180,334L167,294L138,276L115,303L114,327L168,313L175,334L135,372Z" fill="none" stroke="black" stroke-width="5" /><path d="M80,274L81,300L75,310L74,321L74,315L82,298Z" fill="none" stroke="black" stroke-width="5" /><path d="M81,270L81,271Z" fill="none" stroke="black" stroke-width="5" /><path d="M173,265L173,267Z" fill="none" stroke="black" stroke-width="5" /><path d="M183,256L185,258Z" fill="none" stroke="black" stroke-width="5" /><path d="M201,251L202,252L204,252L205,253L204,252L202,252Z" fill="none" stroke="black" stroke-width="5" /><path d="M92,245L87,253L82,267L84,260L87,256L87,254Z" fill="none" stroke="black" stroke-width="5" /><path d="M229,236L230,237L232,237L235,239L237,239L238,240L240,240L240,239L237,239L232,236Z" fill="none" stroke="black" stroke-width="5" /><path d="M104,229L100,233L100,234L96,238L96,239L95,240L100,234L100,233Z" fill="none" stroke="black" stroke-width="5" /><path d="M122,210L115,217Z" fill="none" stroke="black" stroke-width="5" /><path d="M131,204L130,204L129,205L128,205L126,207L128,205L129,205L130,204Z" fill="none" stroke="black" stroke-width="5" /><path d="M133,203L137,203Z" fill="none" stroke="black" stroke-width="5" /><path d="M145,202L150,202Z" fill="none" stroke="black" stroke-width="5" /><path d="M155,201L159,201Z" fill="none" stroke="black" stroke-width="5" /><path d="M166,199L164,199L163,200L161,200L164,200L165,199Z" fill="none" stroke="black" stroke-width="5" /><path d="M547,149L553,155Z" fill="none" stroke="black" stroke-width="5" /><path d="M330,120L391,330L146,549L643,573L559,419L637,575L269,533L310,337L565,327L391,291L438,163L325,125L500,284L595,194Z" fill="none" stroke="black" stroke-width="5" /><path d="M265,105L204,177L168,198L208,175Z" fill="none" stroke="black" stroke-width="5" /><path d="M270,100L267,103Z" fill="none" stroke="black" stroke-width="5" /><path d="M387,50L338,61L277,94L335,63Z" fill="none" stroke="black" stroke-width="5" /><path d="M390,49L399,49Z" fill="none" stroke="black" stroke-width="5" /><path d="M401,48L451,49L427,47L423,44L418,47Z" fill="none" stroke="black" stroke-width="5" /><path d="M487,36L480,34L482,38L476,45L465,51L454,50L458,50L460,55L441,64L464,54Z" fill="none" stroke="black" stroke-width="5" /><path d="M433,34L432,35Z" fill="none" stroke="black" stroke-width="5" /><path d="M492,31L491,32Z" fill="none" stroke="black" stroke-width="5" /><path d="M476,31L466,23L448,24L435,33L450,24L467,24Z" fill="none" stroke="black" stroke-width="5" /><path d="M517,12L561,38L525,134L530,123L546,147L529,119L538,96L565,159L555,157L590,184L567,165L538,93L562,35Z" fill="none" stroke="black" stroke-width="5" /></svg>