<svg baseProfile="tiny" height="637px" version="1.2" width="675px" xmlns="http://www.w3.org/2000/svg" xmlns:ev="http://www.w3.org/2001/xml-events" xmlns:xlink="http://www.w3.org/1999/xlink"><defs /><path d="M124,336L184,348L224,348L234,340L264,337L238,339L233,335L236,327L303,325L302,320L323,314L312,314L290,326L250,325L237,302L199,303L213,281L240,281L217,279L193,306L178,309L165,328L140,328L164,331L165,340Z" fill="none" stroke="black" stroke-width="5" /><path d="M296,272L293,272L289,270L277,270L276,271L273,271L269,273L266,276L259,280L257,280L253,282L243,282L253,282L254,281L259,281L265,278L268,275L277,271Z" fill="none" stroke="black" stroke-width="5" /><path d="M629,176L587,157L538,183L592,158L636,185L586,188L601,208L548,216L554,237L453,89L306,23L312,72L217,66L257,120L243,200L311,272L379,280L314,325L398,306L370,335L402,384L226,357L63,403L37,380L38,292L65,280L138,327L63,278L29,302L36,382L93,399L211,525L215,611L269,604L320,540L434,522L574,548L538,466L479,425L441,300L543,281Z" fill="none" stroke="black" stroke-width="5" /></svg>