<svg baseProfile="tiny" height="555px" version="1.2" width="700px" xmlns="http://www.w3.org/2000/svg" xmlns:ev="http://www.w3.org/2001/xml-events" xmlns:xlink="http://www.w3.org/1999/xlink"><defs /><path d="M354,502L359,502Z" fill="none" stroke="black" stroke-width="5" /><path d="M142,351L141,447L146,504L131,528L119,535L96,535L73,527L43,496L30,461L38,488L50,507L87,535L123,535L140,521L146,508Z" fill="none" stroke="black" stroke-width="5" /><path d="M444,323L446,328L448,330L450,335L452,337L452,338L453,339L453,340L454,341L454,342L458,349L458,351L460,354L460,352L459,351L459,349L458,348L458,346L456,343L456,341L455,340L454,337L452,335L451,332L448,329L448,328L445,325L445,324Z" fill="none" stroke="black" stroke-width="5" /><path d="M573,176L583,191L593,216L599,243L602,274L601,250L593,213L582,187Z" fill="none" stroke="black" stroke-width="5" /><path d="M566,122L527,123L497,136L456,187L444,147L447,178L490,238L513,296L513,372L514,294L491,237L459,192L469,166L499,136L560,122L621,147L665,196L680,262L679,226L656,180L615,142Z" fill="none" stroke="black" stroke-width="5" /><path d="M198,84L197,84L196,85L198,85Z" fill="none" stroke="black" stroke-width="5" /><path d="M282,40L271,40L270,41L268,41L262,47L262,49L260,52L260,57L259,58L260,59L260,62L261,64L264,67L268,68L269,69L275,69L276,68L278,68L282,66L285,63L289,56L289,46L285,41L283,41Z" fill="none" stroke="black" stroke-width="5" /><path d="M29,452L86,245L201,144L95,287L231,132L303,188L210,207L143,348L227,203L195,368L278,537L433,532L591,360L671,429L681,269L669,428L598,374L602,285L537,444L362,503L431,532L299,518L465,453L321,460L386,420L350,335L440,319L325,282L370,70L416,262L412,98L365,71L327,214L250,215L304,184L180,81L335,15L443,136L388,39L274,12L179,79L232,128L79,255Z" fill="none" stroke="black" stroke-width="5" /></svg>