<svg baseProfile="tiny" height="664px" version="1.2" width="700px" xmlns="http://www.w3.org/2000/svg" xmlns:ev="http://www.w3.org/2001/xml-events" xmlns:xlink="http://www.w3.org/1999/xlink"><defs /><path d="M447,502L446,503L446,508L447,509L447,511L448,512L448,513L449,513L450,512L450,504L448,502Z" fill="none" stroke="black" stroke-width="5" /><path d="M460,497L460,505L461,506L461,508L462,510L465,510L466,509L465,508L465,505L464,504L463,499L461,497Z" fill="none" stroke="black" stroke-width="5" /><path d="M476,494L476,499L477,500L479,505L480,506L482,506L482,501L481,500L480,497L477,494Z" fill="none" stroke="black" stroke-width="5" /><path d="M530,452L527,454L534,468L527,481L520,487L505,482L506,486L517,491L522,490L535,476L539,466Z" fill="none" stroke="black" stroke-width="5" /><path d="M222,429L224,456L290,492L227,515L237,549L317,515L386,549L416,534L411,510L349,497L422,468L408,430L319,476L252,423Z" fill="none" stroke="black" stroke-width="5" /><path d="M288,400L291,408L305,418L341,417L357,404L350,388L335,384L302,388Z" fill="none" stroke="black" stroke-width="5" /><path d="M258,395L262,422L258,398L295,370L351,367L385,383L391,413L354,451L292,447L264,425L310,451L354,454L393,413L382,378L354,365L292,369Z" fill="none" stroke="black" stroke-width="5" /><path d="M140,348L120,363L117,370L125,408L139,411L150,421L140,406L127,401L119,372Z" fill="none" stroke="black" stroke-width="5" /><path d="M570,338L574,348L586,357L581,394L555,402L545,415L558,404L577,401L584,395L591,358Z" fill="none" stroke="black" stroke-width="5" /><path d="M554,330L553,330L553,341L549,342L545,339L545,344L538,352L542,351L547,346L554,342L555,340Z" fill="none" stroke="black" stroke-width="5" /><path d="M187,283L267,330L348,337L458,311L490,279Z" fill="none" stroke="black" stroke-width="5" /><path d="M484,231L478,209L462,190L433,182L397,198L373,234L481,244Z" fill="none" stroke="black" stroke-width="5" /><path d="M203,232L299,231L301,225L295,205L280,186L243,181L216,196Z" fill="none" stroke="black" stroke-width="5" /><path d="M348,103L347,103L347,104L345,106L345,107L344,108L344,110L343,111L343,112L344,113L346,111L346,110L347,109L347,107L348,106Z" fill="none" stroke="black" stroke-width="5" /><path d="M332,103L331,103L328,106L328,108L332,104Z" fill="none" stroke="black" stroke-width="5" /><path d="M322,102L320,104L320,105L321,104L321,103Z" fill="none" stroke="black" stroke-width="5" /><path d="M508,95L498,105L516,95L559,127L545,162L605,268L609,295L592,285L650,319L613,300L549,166L561,126Z" fill="none" stroke="black" stroke-width="5" /><path d="M380,35L134,135L64,371L136,551L277,619L466,607L653,351L458,608L137,549L66,370L119,160L349,38L485,114Z" fill="none" stroke="black" stroke-width="5" /></svg>