<svg baseProfile="tiny" height="520px" version="1.2" width="700px" xmlns="http://www.w3.org/2000/svg" xmlns:ev="http://www.w3.org/2001/xml-events" xmlns:xlink="http://www.w3.org/1999/xlink"><defs /><path d="M472,470L468,474Z" fill="none" stroke="black" stroke-width="5" /><path d="M470,462L468,462L467,463L465,463L464,464L466,464L467,463L468,463L469,462Z" fill="none" stroke="black" stroke-width="5" /><path d="M462,444L464,446L466,446L465,445L464,445L463,444Z" fill="none" stroke="black" stroke-width="5" /><path d="M527,432L531,434L535,438L535,442L529,448L531,448L536,443L537,438L533,434Z" fill="none" stroke="black" stroke-width="5" /><path d="M267,432L259,436L246,436L247,438L260,438L264,436Z" fill="none" stroke="black" stroke-width="5" /><path d="M368,397L367,396L364,406L359,411L351,415L345,416L351,416L360,412L365,407L368,401Z" fill="none" stroke="black" stroke-width="5" /><path d="M301,370L330,379L335,378L330,378L309,370Z" fill="none" stroke="black" stroke-width="5" /><path d="M292,325L292,326L293,327L293,328L294,329L294,330L294,328L293,327L293,326Z" fill="none" stroke="black" stroke-width="5" /><path d="M337,322L354,349L350,362L340,374L351,362L355,348Z" fill="none" stroke="black" stroke-width="5" /><path d="M295,318L295,319L296,320L296,321L298,323L298,321Z" fill="none" stroke="black" stroke-width="5" /><path d="M311,315L311,317Z" fill="none" stroke="black" stroke-width="5" /><path d="M437,307L437,309L438,310L438,308Z" fill="none" stroke="black" stroke-width="5" /><path d="M430,303L428,303L428,304L426,306L426,310L425,311L426,312L429,307L429,304Z" fill="none" stroke="black" stroke-width="5" /><path d="M419,294L416,296L415,299L410,305L409,308L411,307L411,305L417,298Z" fill="none" stroke="black" stroke-width="5" /><path d="M412,279L411,279L410,280L409,280L407,282L407,283L405,285L405,286Z" fill="none" stroke="black" stroke-width="5" /><path d="M410,270L409,271L408,271L402,277L403,276L404,276Z" fill="none" stroke="black" stroke-width="5" /><path d="M402,265L399,265L398,266L397,266L395,268L396,268L397,267L400,267L401,266L402,266Z" fill="none" stroke="black" stroke-width="5" /><path d="M97,279L93,301L136,340L176,338L207,297L198,270L160,254L124,257Z" fill="none" stroke="black" stroke-width="5" /><path d="M362,250L365,257L376,268L376,272L367,283L356,286L368,284L377,272L377,269Z" fill="none" stroke="black" stroke-width="5" /><path d="M527,211L527,220L543,236L555,243L572,241L571,233L549,212L539,208Z" fill="none" stroke="black" stroke-width="5" /><path d="M560,205L584,235L585,248L574,259L585,249L586,238L576,220Z" fill="none" stroke="black" stroke-width="5" /><path d="M512,196L507,213L516,231L532,248L559,259L530,245L508,209L516,194L558,203L528,192Z" fill="none" stroke="black" stroke-width="5" /><path d="M429,183L423,191L405,200L404,226L426,241L406,225L404,210L407,200L424,191Z" fill="none" stroke="black" stroke-width="5" /><path d="M387,180L388,181L392,181L393,180L394,180Z" fill="none" stroke="black" stroke-width="5" /><path d="M391,168L392,169L394,169L394,168Z" fill="none" stroke="black" stroke-width="5" /><path d="M624,147L618,171L634,201L619,168L629,158L654,199L649,205L635,203L653,205L647,181Z" fill="none" stroke="black" stroke-width="5" /><path d="M457,146L457,147L460,147L459,146Z" fill="none" stroke="black" stroke-width="5" /><path d="M395,146L395,148L400,153L401,153L405,156L407,156L402,151L401,151L397,147Z" fill="none" stroke="black" stroke-width="5" /><path d="M497,148L499,168L537,157L580,173L623,220L624,241L628,229L640,235L638,248L625,248L641,246L641,234L582,174Z" fill="none" stroke="black" stroke-width="5" /><path d="M130,143L128,149L120,155L83,165L122,155L127,151Z" fill="none" stroke="black" stroke-width="5" /><path d="M403,137L409,141L421,145L420,143L412,139L406,137Z" fill="none" stroke="black" stroke-width="5" /><path d="M466,135L466,136L467,137L468,137L468,136L467,135Z" fill="none" stroke="black" stroke-width="5" /><path d="M222,130L234,142L252,150L302,152L247,148Z" fill="none" stroke="black" stroke-width="5" /><path d="M475,125L475,126L480,131L480,130Z" fill="none" stroke="black" stroke-width="5" /><path d="M140,123L100,138L81,153L113,132L117,135L114,146L124,128Z" fill="none" stroke="black" stroke-width="5" /><path d="M484,116L484,119L486,121L486,122L487,122L487,121L486,120L486,119L485,118L485,117Z" fill="none" stroke="black" stroke-width="5" /><path d="M515,110L531,131L553,134L524,128L520,112L584,124L592,131L585,138L556,135L607,131L564,115Z" fill="none" stroke="black" stroke-width="5" /><path d="M247,83L249,83L250,84L255,84L256,85L257,85L256,84L254,84L253,83Z" fill="none" stroke="black" stroke-width="5" /><path d="M214,92L220,109L246,111L250,126L261,112L339,136L288,116L223,109L215,94L230,82Z" fill="none" stroke="black" stroke-width="5" /><path d="M257,77L259,79L260,79L261,80L263,80L262,79L261,79L260,78L259,78L258,77Z" fill="none" stroke="black" stroke-width="5" /><path d="M486,66L491,71L492,71L494,73L491,70L491,69L490,68L489,68L487,66Z" fill="none" stroke="black" stroke-width="5" /><path d="M496,74L598,69L596,86L650,129L685,203L653,132L601,86L599,68Z" fill="none" stroke="black" stroke-width="5" /><path d="M123,62L53,376L559,476L685,225L507,507L454,318L366,470L173,467L256,313L30,250L332,213L52,208L116,69L484,65Z" fill="none" stroke="black" stroke-width="5" /></svg>