<svg baseProfile="tiny" height="568px" version="1.2" width="700px" xmlns="http://www.w3.org/2000/svg" xmlns:ev="http://www.w3.org/2001/xml-events" xmlns:xlink="http://www.w3.org/1999/xlink"><defs /><path d="M281,197L280,199L280,202L279,203L280,204L280,207L282,211L287,216L289,217L302,217L303,216L309,216L310,215L312,215L312,214L309,211L309,210L297,198L296,198L293,195L289,193L286,193L284,194Z" fill="none" stroke="black" stroke-width="5" /><path d="M611,88L636,173L599,199L503,106L577,89L496,101L432,23L326,95L253,81L224,152L158,141L153,204L97,198L108,389L193,343L262,179L334,216L136,500L345,271L233,367L343,218L382,306L333,411L109,516L21,393L116,443L66,360L93,202L72,396L20,390L94,507L268,508L397,396L403,466L312,477L304,548L371,553L529,435L559,498L642,507L694,345Z" fill="none" stroke="black" stroke-width="5" /></svg>