<svg baseProfile="tiny" height="595px" version="1.2" width="675px" xmlns="http://www.w3.org/2000/svg" xmlns:ev="http://www.w3.org/2001/xml-events" xmlns:xlink="http://www.w3.org/1999/xlink"><defs /><path d="M479,582L484,582Z" fill="none" stroke="black" stroke-width="5" /><path d="M399,577L399,580L400,581L400,582L403,585L405,585L406,584L407,584L409,582L410,582L410,581L407,584L403,584L400,581L400,580L399,579Z" fill="none" stroke="black" stroke-width="5" /><path d="M164,576L164,577L165,578L165,579L166,579L164,577Z" fill="none" stroke="black" stroke-width="5" /><path d="M423,570L422,571Z" fill="none" stroke="black" stroke-width="5" /><path d="M137,569L138,569Z" fill="none" stroke="black" stroke-width="5" /><path d="M127,568L127,569L128,570L129,570L128,570L127,569Z" fill="none" stroke="black" stroke-width="5" /><path d="M397,564L397,569Z" fill="none" stroke="black" stroke-width="5" /><path d="M233,560L230,560L224,563L220,563L215,566L212,566L200,570L197,572L193,572L185,576L174,579L178,579L183,576L186,576L192,573L195,573L204,570L207,568L210,568Z" fill="none" stroke="black" stroke-width="5" /><path d="M130,553L128,555L128,557L127,558L127,560L126,561L126,566L126,562L127,561L127,558L128,557L128,556L129,555L129,554Z" fill="none" stroke="black" stroke-width="5" /><path d="M142,542L141,543Z" fill="none" stroke="black" stroke-width="5" /><path d="M162,528L160,530L159,530L158,531L157,531L154,534L153,534L151,536L150,536L147,539L146,539L145,540L146,539L147,539L149,537L150,537L152,535L153,535L156,532L157,532L159,530L160,530Z" fill="none" stroke="black" stroke-width="5" /><path d="M165,526L164,527Z" fill="none" stroke="black" stroke-width="5" /><path d="M157,446L157,447Z" fill="none" stroke="black" stroke-width="5" /><path d="M186,238L185,237L184,238L182,238L181,239L180,239L178,241L177,241L173,245L176,245L178,243L179,243L181,241L182,241L183,240L184,240L185,239L186,239Z" fill="none" stroke="black" stroke-width="5" /><path d="M379,236L380,236L381,237L382,237L383,236Z" fill="none" stroke="black" stroke-width="5" /><path d="M53,232L53,234L55,236L53,234Z" fill="none" stroke="black" stroke-width="5" /><path d="M445,201L446,202Z" fill="none" stroke="black" stroke-width="5" /><path d="M73,198L73,199L71,202L71,204L70,205L70,208L65,213L64,213L63,214L60,215L58,217L57,217L55,219L55,220L53,223L53,225L55,220L60,215L61,215L66,212L69,212L73,215L72,214L72,213L71,212L71,210L70,209L70,207L71,206L71,203L72,202L72,200L73,199Z" fill="none" stroke="black" stroke-width="5" /><path d="M470,192L470,195Z" fill="none" stroke="black" stroke-width="5" /><path d="M231,163L230,163L228,165L228,167L227,168L227,172L226,173L226,198L227,199L227,177L228,176L228,174L229,173L229,170L230,169L230,164Z" fill="none" stroke="black" stroke-width="5" /><path d="M492,146L490,148L490,149L488,151L488,152L486,154L486,155L485,156L485,157L483,159L483,160L482,161L482,162L481,163L481,164L480,165L481,164L481,163L482,162L482,161L484,159L484,158L485,157L485,156L487,154L487,153L488,152L488,151L490,149L490,148Z" fill="none" stroke="black" stroke-width="5" /><path d="M285,142L274,144L263,140L255,142L248,140L237,151L245,176L235,194L236,199L246,197L283,178L286,174L277,181L267,185L264,182L262,162L271,152L276,150L286,159L288,170L289,163L280,150Z" fill="none" stroke="black" stroke-width="5" /><path d="M503,131L499,135L499,136L497,138L497,139L495,141L495,142L493,144L495,142L495,141L498,138L498,137L500,135L500,134Z" fill="none" stroke="black" stroke-width="5" /><path d="M164,122L163,123L163,124L162,125L162,126L162,125L163,124L163,123Z" fill="none" stroke="black" stroke-width="5" /><path d="M512,121L512,122Z" fill="none" stroke="black" stroke-width="5" /><path d="M554,115L471,190L589,263L448,203L431,281L381,245L331,334L254,282L198,333L199,269L301,271L451,160L327,137L436,189L278,274L392,185L162,257L189,133L75,116L159,177L106,259L128,195L78,193L67,269L190,302L210,367L403,364L264,424L378,404L381,499L211,369L158,443L209,376L257,530L192,538L156,450L188,542L140,568L309,544L310,489L473,579L562,544L644,367Z" fill="none" stroke="black" stroke-width="5" /><path d="M533,103L532,104L531,104L529,106L531,104L532,104Z" fill="none" stroke="black" stroke-width="5" /><path d="M181,100L177,104L177,105L171,111L171,112L168,115L168,116L167,117L169,115L169,114L172,111L172,110L177,105L177,104Z" fill="none" stroke="black" stroke-width="5" /><path d="M545,96L544,96L543,97L542,97L541,98L540,98L539,99L540,98L541,98L542,97L543,97L544,96Z" fill="none" stroke="black" stroke-width="5" /><path d="M426,96L400,121L396,127L395,132L396,133L397,142L402,154L406,159L407,159L407,154L410,148L416,128L418,110L421,103Z" fill="none" stroke="black" stroke-width="5" /><path d="M547,95L548,95Z" fill="none" stroke="black" stroke-width="5" /><path d="M566,90L564,90L563,91L562,90L561,90L560,91L557,91L556,92L554,92L553,93L552,93L551,94L550,94L552,94L553,93L554,93L555,92L556,92L557,91L563,91L564,90Z" fill="none" stroke="black" stroke-width="5" /><path d="M568,89L569,89Z" fill="none" stroke="black" stroke-width="5" /><path d="M580,90L579,89L577,89L576,88L571,88L574,88L575,89L576,89L577,90L577,93L575,95L574,95L574,96L573,97L572,97L556,113L571,99L572,99L580,91Z" fill="none" stroke="black" stroke-width="5" /><path d="M427,84L432,85L435,89L432,105L434,112L466,116L472,124L469,130L458,133L444,145L444,151L450,158L444,146L455,136L469,130L473,123L469,117L461,114L436,112L433,109L435,86L433,84Z" fill="none" stroke="black" stroke-width="5" /><path d="M185,79L189,84L195,87L201,92L203,92L205,94L205,96L206,95L210,97L217,103L229,109L236,109L239,106L244,94L244,86L239,83L232,83L224,81L205,81L204,80Z" fill="none" stroke="black" stroke-width="5" /><path d="M182,53L182,54Z" fill="none" stroke="black" stroke-width="5" /><path d="M181,49L181,51Z" fill="none" stroke="black" stroke-width="5" /><path d="M179,36L179,42L180,43L180,47L180,43L179,42Z" fill="none" stroke="black" stroke-width="5" /><path d="M304,25L278,56L246,63L210,37L182,27L179,34L188,28L207,36L235,63L210,64L206,43L202,62L185,62L183,57L141,68L185,96L193,95L208,111L203,99L154,77L145,67L243,66L270,58L261,97L272,66Z" fill="none" stroke="black" stroke-width="5" /><path d="M307,22L306,23Z" fill="none" stroke="black" stroke-width="5" /><path d="M277,116L284,118L288,113L291,53L323,20L330,24L332,102L334,75L352,83L368,105L394,102L425,85L388,103L370,103L353,83L333,72L333,18L320,12L331,18L318,21L291,50L287,113Z" fill="none" stroke="black" stroke-width="5" /></svg>