<svg baseProfile="tiny" height="300px" version="1.2" width="300px" xmlns="http://www.w3.org/2000/svg" xmlns:ev="http://www.w3.org/2001/xml-events" xmlns:xlink="http://www.w3.org/1999/xlink"><defs /><path d="M249,255L248,255L248,258L249,257Z" fill="none" stroke="black" stroke-width="2" /><path d="M158,145L156,145L155,146L155,147L157,147L158,146Z" fill="none" stroke="black" stroke-width="2" /><path d="M156,141L155,142L154,142L154,143L155,143L155,142Z" fill="none" stroke="black" stroke-width="2" /><path d="M86,115L86,116L87,116L88,115L93,115L94,116L96,116L95,115L94,115L93,114L89,114L88,115Z" fill="none" stroke="black" stroke-width="2" /><path d="M113,64L111,73L128,82L138,97L154,139L153,126L150,127L148,119L151,119L141,95L148,119L131,84L117,77L111,70L113,65L118,65L127,73L137,90L135,83L122,66Z" fill="none" stroke="black" stroke-width="2" /><path d="M212,11L187,19L167,56L169,155L157,149L143,168L108,118L67,108L109,120L138,175L55,123L16,113L2,123L51,210L90,235L124,237L186,289L223,271L229,251L247,260L229,246L227,200L249,252L288,247L297,227L272,173L293,140L285,96L249,38Z" fill="none" stroke="black" stroke-width="2" /></svg>