<svg baseProfile="tiny" height="675px" version="1.2" width="665px" xmlns="http://www.w3.org/2000/svg" xmlns:ev="http://www.w3.org/2001/xml-events" xmlns:xlink="http://www.w3.org/1999/xlink"><defs /><path d="M252,542L195,607Z" fill="none" stroke="black" stroke-width="5" /><path d="M258,536L254,540Z" fill="none" stroke="black" stroke-width="5" /><path d="M372,468L373,469Z" fill="none" stroke="black" stroke-width="5" /><path d="M300,438L300,442Z" fill="none" stroke="black" stroke-width="5" /><path d="M289,438L289,439L290,440L290,438Z" fill="none" stroke="black" stroke-width="5" /><path d="M323,431L323,432L324,433L324,434L325,434L325,432L324,431Z" fill="none" stroke="black" stroke-width="5" /><path d="M279,431L279,432Z" fill="none" stroke="black" stroke-width="5" /><path d="M272,427L272,429Z" fill="none" stroke="black" stroke-width="5" /><path d="M336,407L385,467Z" fill="none" stroke="black" stroke-width="5" /><path d="M388,395L389,395L393,399L394,399L395,400L396,400L394,398L393,398L391,396L390,396L389,395Z" fill="none" stroke="black" stroke-width="5" /><path d="M397,392L398,392L399,393L400,393L403,395L405,395L406,396L405,395L404,395L403,394L402,394L399,392Z" fill="none" stroke="black" stroke-width="5" /><path d="M360,387L404,441Z" fill="none" stroke="black" stroke-width="5" /><path d="M408,385L408,386L409,386L409,385Z" fill="none" stroke="black" stroke-width="5" /><path d="M350,291L357,308L358,331L353,350L340,372L354,350L359,332L358,309Z" fill="none" stroke="black" stroke-width="5" /><path d="M231,285L217,321L226,360L265,392L311,391L267,392L231,365L218,336Z" fill="none" stroke="black" stroke-width="5" /><path d="M273,266L249,279L289,266L334,295L333,357L299,382L251,372L228,326L247,280L228,337L256,376L302,383L336,355L343,314L318,275Z" fill="none" stroke="black" stroke-width="5" /><path d="M188,223L38,273L192,234L173,302L37,284L172,303L128,365L27,283L178,402L158,640L261,412L210,490L212,364L131,361L196,328L143,336Z" fill="none" stroke="black" stroke-width="5" /><path d="M308,28L230,270L202,190L422,198L360,278L421,213L463,316L374,321L631,265L377,356L476,390L376,471L492,649L350,447L237,471L498,650L467,415L632,265L431,287L615,246L432,215Z" fill="none" stroke="black" stroke-width="5" /></svg>