<svg baseProfile="tiny" height="633px" version="1.2" width="675px" xmlns="http://www.w3.org/2000/svg" xmlns:ev="http://www.w3.org/2001/xml-events" xmlns:xlink="http://www.w3.org/1999/xlink"><defs /><path d="M310,437L310,443Z" fill="none" stroke="black" stroke-width="5" /><path d="M309,431L309,433Z" fill="none" stroke="black" stroke-width="5" /><path d="M308,426L308,427Z" fill="none" stroke="black" stroke-width="5" /><path d="M385,429L381,425L379,424L375,424L374,425L369,426L366,428L361,429L358,431L353,432L346,440L346,453L347,443L350,436L352,434L357,433L359,431L364,430L374,425L380,425Z" fill="none" stroke="black" stroke-width="5" /><path d="M306,405L306,412L307,413L307,423L307,411L306,410Z" fill="none" stroke="black" stroke-width="5" /><path d="M312,387L319,387Z" fill="none" stroke="black" stroke-width="5" /><path d="M192,336L193,336Z" fill="none" stroke="black" stroke-width="5" /><path d="M507,327L507,329Z" fill="none" stroke="black" stroke-width="5" /><path d="M244,323L244,328L239,332L227,333L226,334L217,334L216,335L195,336L215,336L221,334L242,334L244,336L244,346Z" fill="none" stroke="black" stroke-width="5" /><path d="M475,316L477,316L478,317L488,317L489,318L497,318L498,319L501,319L502,320L505,321L506,322L506,324L506,321L503,318L501,318L500,317L497,317L496,316L494,316L493,315L491,315L490,314L487,314L486,313L484,313L483,312L480,312L480,314L479,315L478,315L477,316Z" fill="none" stroke="black" stroke-width="5" /><path d="M448,312L450,312L451,313L461,313L451,313L450,312Z" fill="none" stroke="black" stroke-width="5" /><path d="M432,309L433,309L434,310L441,310L435,310L434,309Z" fill="none" stroke="black" stroke-width="5" /><path d="M416,307L422,307L423,308L425,308L423,308L422,307Z" fill="none" stroke="black" stroke-width="5" /><path d="M230,306L220,306L219,307L210,307L209,308L203,308L202,309L199,309L202,309L203,308L213,308L214,307L223,307L224,306Z" fill="none" stroke="black" stroke-width="5" /><path d="M232,305L234,305Z" fill="none" stroke="black" stroke-width="5" /><path d="M506,332L415,336L478,349L444,354L415,416L398,395L420,457L369,392L397,393L404,296L398,364L300,395L371,395L498,612L339,444L329,497L299,430L237,456L262,381L255,451L293,395L246,351L248,405L222,346L166,337L187,304L163,312L245,396L187,593L193,477L181,599L285,516L339,605L399,523L494,611L532,609L416,406L446,355Z" fill="none" stroke="black" stroke-width="5" /><path d="M244,294L244,301L241,304L238,304L239,304L240,305L241,305L244,308L244,314Z" fill="none" stroke="black" stroke-width="5" /><path d="M283,233L253,279L251,344L283,385L303,386L290,385L287,379L297,357L312,354L337,357L348,381L343,387L354,388L393,358L395,278L363,233Z" fill="none" stroke="black" stroke-width="5" /><path d="M71,247L69,271L155,339L94,424L93,442L106,446L99,439L200,386L193,441L110,446L194,443L194,473L200,374L66,262L73,247L141,229Z" fill="none" stroke="black" stroke-width="5" /><path d="M157,225L155,225L154,226L148,226L147,227L146,227L145,228L144,228L145,228L146,227L151,227L152,226L154,226L155,225Z" fill="none" stroke="black" stroke-width="5" /><path d="M163,75L195,211L159,224L240,204L223,286L77,257L195,303L248,214L245,285L280,224L371,224L404,285L425,219L393,250L348,219L440,173L419,242L467,312L441,275L649,229L490,371L527,578L507,460L636,466L508,457L493,384L648,466L618,404L643,452L492,374L549,331L616,401L551,328L650,227L440,274L421,246L452,193L644,222L533,202L568,81L417,118L351,12L299,119Z" fill="none" stroke="black" stroke-width="5" /></svg>