<svg baseProfile="tiny" height="700px" version="1.2" width="565px" xmlns="http://www.w3.org/2000/svg" xmlns:ev="http://www.w3.org/2001/xml-events" xmlns:xlink="http://www.w3.org/1999/xlink"><defs /><path d="M185,623L189,627Z" fill="none" stroke="black" stroke-width="5" /><path d="M151,553L147,557Z" fill="none" stroke="black" stroke-width="5" /><path d="M439,534L358,638L396,683L457,688L495,654L468,613L440,634L467,614L492,645L450,673L394,679L361,639L470,647L460,623L460,652L421,633L477,568Z" fill="none" stroke="black" stroke-width="5" /><path d="M122,533L116,536L115,543L118,547L122,549L125,549L130,546L131,536L126,533Z" fill="none" stroke="black" stroke-width="5" /><path d="M436,531L437,532Z" fill="none" stroke="black" stroke-width="5" /><path d="M111,486L107,489L105,493L105,498L108,503L116,504L121,500L123,497L123,494L119,489L114,486Z" fill="none" stroke="black" stroke-width="5" /><path d="M128,444L128,448L133,453L140,453L144,450L143,443L140,439L133,439Z" fill="none" stroke="black" stroke-width="5" /><path d="M181,408L176,412L175,422L179,426L186,426L191,422L192,416L187,410Z" fill="none" stroke="black" stroke-width="5" /><path d="M294,292L276,306L273,333L290,354L313,354L332,339L336,318L319,294Z" fill="none" stroke="black" stroke-width="5" /><path d="M269,359L257,325L276,287L266,294L253,329L182,313L254,331Z" fill="none" stroke="black" stroke-width="5" /><path d="M240,281L240,290L247,299L255,300L264,293L256,299L248,299L241,290Z" fill="none" stroke="black" stroke-width="5" /><path d="M265,266L263,266L261,268L261,274L265,274L265,273L266,272L266,268L265,267Z" fill="none" stroke="black" stroke-width="5" /><path d="M206,259L206,261L205,262L205,264L206,265L206,266L207,267L208,267L208,266L209,265L209,262L208,261L208,260L207,259Z" fill="none" stroke="black" stroke-width="5" /><path d="M267,244L256,242L247,248L240,263L240,276L242,259L250,246L254,243L262,243L271,252Z" fill="none" stroke="black" stroke-width="5" /><path d="M204,234L194,241L186,260L188,277L198,289L209,285L203,289L194,285L188,275L187,260L201,236L210,238Z" fill="none" stroke="black" stroke-width="5" /><path d="M269,182L260,183L255,190L254,194L255,197L262,204L271,199L275,193L274,187Z" fill="none" stroke="black" stroke-width="5" /><path d="M202,141L210,141Z" fill="none" stroke="black" stroke-width="5" /><path d="M162,138L150,138L144,144L141,140L142,152L150,160L153,156L161,155L167,150L167,144Z" fill="none" stroke="black" stroke-width="5" /><path d="M164,126L154,126L148,129L143,134L142,138L143,135L151,128L155,126Z" fill="none" stroke="black" stroke-width="5" /><path d="M144,89L149,98L185,100L200,108L197,118L166,126L194,121L203,113L192,101L152,98Z" fill="none" stroke="black" stroke-width="5" /><path d="M155,74L152,79L153,88L159,92L168,91L172,86L171,77L166,74Z" fill="none" stroke="black" stroke-width="5" /><path d="M217,62L212,81L193,79L171,62L157,62L146,73L144,84L148,70L161,62L170,62L191,79L211,82L218,74Z" fill="none" stroke="black" stroke-width="5" /><path d="M206,29L203,33L204,41L211,46L217,45L222,39L219,29L219,40L214,44L210,44L205,40L205,32L211,28Z" fill="none" stroke="black" stroke-width="5" /><path d="M477,104L199,23L415,140L312,383L161,314L289,146L40,182L173,254L66,486L275,472L96,680L422,517L530,229L288,83Z" fill="none" stroke="black" stroke-width="5" /></svg>