<svg baseProfile="tiny" height="620px" version="1.2" width="675px" xmlns="http://www.w3.org/2000/svg" xmlns:ev="http://www.w3.org/2001/xml-events" xmlns:xlink="http://www.w3.org/1999/xlink"><defs /><path d="M530,564L531,565Z" fill="none" stroke="black" stroke-width="5" /><path d="M544,561L543,569L539,574L537,574L532,567L535,574L538,577L540,576L544,566Z" fill="none" stroke="black" stroke-width="5" /><path d="M176,551L174,553Z" fill="none" stroke="black" stroke-width="5" /><path d="M423,549L423,552L422,553L422,557L421,558L421,561L421,559L422,558L422,554L423,553Z" fill="none" stroke="black" stroke-width="5" /><path d="M181,547L179,549Z" fill="none" stroke="black" stroke-width="5" /><path d="M233,510L185,544Z" fill="none" stroke="black" stroke-width="5" /><path d="M190,510L175,526L158,551Z" fill="none" stroke="black" stroke-width="5" /><path d="M301,502L301,507L302,508L302,509L302,508L301,507Z" fill="none" stroke="black" stroke-width="5" /><path d="M300,498L300,499Z" fill="none" stroke="black" stroke-width="5" /><path d="M282,489L259,495L235,509L249,501L253,501L258,509L260,507L255,506L255,501L264,493L269,493L270,496Z" fill="none" stroke="black" stroke-width="5" /><path d="M305,487L301,487L300,488L286,488L295,488L297,489L299,495L300,489L303,487Z" fill="none" stroke="black" stroke-width="5" /><path d="M223,485L211,491L206,495L211,491Z" fill="none" stroke="black" stroke-width="5" /><path d="M332,483L308,486L317,486L319,490L310,512L305,514L303,511L305,515L309,514L319,489L323,485Z" fill="none" stroke="black" stroke-width="5" /><path d="M339,479L337,481L336,481L335,482L334,482L335,482L336,481L337,481Z" fill="none" stroke="black" stroke-width="5" /><path d="M247,475L237,478L225,484L240,477Z" fill="none" stroke="black" stroke-width="5" /><path d="M310,447L249,474L297,455Z" fill="none" stroke="black" stroke-width="5" /><path d="M313,445L312,446Z" fill="none" stroke="black" stroke-width="5" /><path d="M359,425L349,442L346,463L341,476L346,464L352,435Z" fill="none" stroke="black" stroke-width="5" /><path d="M42,351L36,376L38,412L37,374Z" fill="none" stroke="black" stroke-width="5" /><path d="M439,246L440,246Z" fill="none" stroke="black" stroke-width="5" /><path d="M244,239L228,248L215,263L210,275L208,296L211,276L217,262Z" fill="none" stroke="black" stroke-width="5" /><path d="M488,232L442,245Z" fill="none" stroke="black" stroke-width="5" /><path d="M498,227L497,228L496,228L495,229L494,229L493,230L492,230L491,231L490,231L491,231L492,230L494,230L495,229L496,229Z" fill="none" stroke="black" stroke-width="5" /><path d="M501,225L500,226Z" fill="none" stroke="black" stroke-width="5" /><path d="M304,222L250,257L258,256L252,286L242,295L238,272L212,323L250,290L259,250Z" fill="none" stroke="black" stroke-width="5" /><path d="M508,219L503,224Z" fill="none" stroke="black" stroke-width="5" /><path d="M397,214L395,216Z" fill="none" stroke="black" stroke-width="5" /><path d="M517,210L516,211L516,212L512,216L516,212L516,211Z" fill="none" stroke="black" stroke-width="5" /><path d="M424,191L422,193Z" fill="none" stroke="black" stroke-width="5" /><path d="M535,185L528,195L528,196L526,198L526,199L526,198L528,196L528,195Z" fill="none" stroke="black" stroke-width="5" /><path d="M538,180L538,181L536,183L538,181Z" fill="none" stroke="black" stroke-width="5" /><path d="M430,168L354,359L380,185L186,358L158,170L69,296L161,249L68,497L152,307L322,352L181,467L395,387L130,599L405,362L420,572L544,555L530,309L340,265Z" fill="none" stroke="black" stroke-width="5" /><path d="M217,167L207,177Z" fill="none" stroke="black" stroke-width="5" /><path d="M461,164L426,190Z" fill="none" stroke="black" stroke-width="5" /><path d="M157,165L165,167L187,186L187,190L176,202L203,181L196,188L191,188L159,163Z" fill="none" stroke="black" stroke-width="5" /><path d="M437,162L433,166L432,166L432,167Z" fill="none" stroke="black" stroke-width="5" /><path d="M467,160L466,161Z" fill="none" stroke="black" stroke-width="5" /><path d="M470,158L469,159Z" fill="none" stroke="black" stroke-width="5" /><path d="M556,153L542,174Z" fill="none" stroke="black" stroke-width="5" /><path d="M558,150L557,151Z" fill="none" stroke="black" stroke-width="5" /><path d="M484,149L480,152L479,152L477,154L474,155L472,157Z" fill="none" stroke="black" stroke-width="5" /><path d="M572,131L571,131L559,148Z" fill="none" stroke="black" stroke-width="5" /><path d="M325,130L308,178Z" fill="none" stroke="black" stroke-width="5" /><path d="M326,127L326,128Z" fill="none" stroke="black" stroke-width="5" /><path d="M330,114L330,117L329,118L329,120L328,121L328,123L327,124L327,125L327,124L328,123L328,121L329,120L329,118L330,117Z" fill="none" stroke="black" stroke-width="5" /><path d="M587,112L577,123L573,129L582,117Z" fill="none" stroke="black" stroke-width="5" /><path d="M587,100L559,111L555,106L544,117L486,148Z" fill="none" stroke="black" stroke-width="5" /><path d="M599,98L589,99L595,99L596,100L596,103L589,110L598,102Z" fill="none" stroke="black" stroke-width="5" /><path d="M596,52L556,104Z" fill="none" stroke="black" stroke-width="5" /><path d="M601,46L599,48Z" fill="none" stroke="black" stroke-width="5" /><path d="M598,38L440,159Z" fill="none" stroke="black" stroke-width="5" /><path d="M385,37L374,63L373,70Z" fill="none" stroke="black" stroke-width="5" /><path d="M601,36L600,37Z" fill="none" stroke="black" stroke-width="5" /><path d="M375,35L335,74L329,70L328,55L331,111L332,78Z" fill="none" stroke="black" stroke-width="5" /><path d="M595,32L508,79L410,155L489,92Z" fill="none" stroke="black" stroke-width="5" /><path d="M393,20L392,20L387,25L388,27L388,31L387,33L392,23L392,21Z" fill="none" stroke="black" stroke-width="5" /><path d="M324,16L327,50L325,16Z" fill="none" stroke="black" stroke-width="5" /><path d="M643,13L632,14L598,30L607,31L603,35L607,38L602,44L622,24Z" fill="none" stroke="black" stroke-width="5" /><path d="M323,1L240,141L241,186L313,200L372,74L309,197L276,198L271,134L317,14L241,179Z" fill="none" stroke="black" stroke-width="5" /></svg>