<svg baseProfile="tiny" height="620px" version="1.2" width="675px" xmlns="http://www.w3.org/2000/svg" xmlns:ev="http://www.w3.org/2001/xml-events" xmlns:xlink="http://www.w3.org/1999/xlink"><defs /><path d="M193,507L174,527L158,551Z" fill="none" stroke="black" stroke-width="5" /><path d="M199,501L197,503Z" fill="none" stroke="black" stroke-width="5" /><path d="M368,241L355,254Z" fill="none" stroke="black" stroke-width="5" /><path d="M244,239L229,247L214,264L209,278L208,296L216,264Z" fill="none" stroke="black" stroke-width="5" /><path d="M305,222L274,236L247,260L225,290L212,323L252,287L260,249Z" fill="none" stroke="black" stroke-width="5" /><path d="M390,220L385,225Z" fill="none" stroke="black" stroke-width="5" /><path d="M401,211L400,211L394,217L400,211Z" fill="none" stroke="black" stroke-width="5" /><path d="M408,204L403,209L407,205L408,205Z" fill="none" stroke="black" stroke-width="5" /><path d="M223,160L222,161Z" fill="none" stroke="black" stroke-width="5" /><path d="M229,154L225,158Z" fill="none" stroke="black" stroke-width="5" /><path d="M644,13L354,359L383,182L178,359L157,164L66,496L153,307L313,360L130,599L406,362L541,575L522,205L340,262Z" fill="none" stroke="black" stroke-width="5" /><path d="M393,20L306,199L379,31L328,54L278,199L318,12L244,136L311,11L327,52L307,14L243,188L314,200Z" fill="none" stroke="black" stroke-width="5" /></svg>