<svg baseProfile="tiny" height="620px" version="1.2" width="675px" xmlns="http://www.w3.org/2000/svg" xmlns:ev="http://www.w3.org/2001/xml-events" xmlns:xlink="http://www.w3.org/1999/xlink"><defs /><path d="M169,558L168,558L156,570L167,559L168,559Z" fill="none" stroke="black" stroke-width="5" /><path d="M244,239L236,242L225,250L214,264L210,274L208,283L208,293L207,294L208,296L209,296L209,288L210,287L211,277L215,266L219,260L226,253L236,245L241,243Z" fill="none" stroke="black" stroke-width="5" /><path d="M304,221L272,237L246,261L235,274L221,297L212,318L212,323L220,310L241,300L251,289L258,273L260,249L279,235L302,225Z" fill="none" stroke="black" stroke-width="5" /><path d="M644,13L336,218L393,20L304,199L381,30L332,74L315,5L239,182L349,199L183,359L158,167L176,202L236,146L157,164L158,232L39,357L62,490L152,308L212,383L274,360L129,599L203,470L344,396L158,550L365,396L338,480L171,556L308,515L406,362L473,475L420,572L541,575L494,444L530,308L436,248L520,208Z" fill="none" stroke="black" stroke-width="5" /></svg>