<svg baseProfile="tiny" height="640px" version="1.2" width="675px" xmlns="http://www.w3.org/2000/svg" xmlns:ev="http://www.w3.org/2001/xml-events" xmlns:xlink="http://www.w3.org/1999/xlink"><defs /><path d="M16,228L65,253L24,327L71,289L109,353L137,309L168,458L70,615L659,620L541,548L636,545L544,483L605,306L430,32L261,32L152,235L294,20L437,37L545,171L573,269L496,271L412,103L289,80L338,105L274,131L246,315L312,530L225,366L313,561L192,336L260,539L162,324L215,502L162,446L107,190Z" fill="none" stroke="black" stroke-width="5" /></svg>