<svg baseProfile="tiny" height="655px" version="1.2" width="675px" xmlns="http://www.w3.org/2000/svg" xmlns:ev="http://www.w3.org/2001/xml-events" xmlns:xlink="http://www.w3.org/1999/xlink"><defs /><path d="M322,604L322,605L321,606L321,608L320,609L320,615L320,611L321,610L321,606L322,605Z" fill="none" stroke="black" stroke-width="5" /><path d="M100,558L100,559L99,560L99,563L101,565L105,565L102,565L100,563Z" fill="none" stroke="black" stroke-width="5" /><path d="M589,482L587,484Z" fill="none" stroke="black" stroke-width="5" /><path d="M593,477L592,478Z" fill="none" stroke="black" stroke-width="5" /><path d="M606,400L606,404L605,405L605,408L604,409L604,412L602,415L602,417L601,418L601,419L600,420L600,421L599,422L597,427L592,433L599,424L599,423L603,416L603,414L605,411L605,408L606,407Z" fill="none" stroke="black" stroke-width="5" /><path d="M607,392L607,398Z" fill="none" stroke="black" stroke-width="5" /><path d="M621,386L619,425L609,452L594,475L608,455L616,436L620,422Z" fill="none" stroke="black" stroke-width="5" /><path d="M68,386L68,390L69,391L69,394L70,395L70,396L71,397L72,396L73,396L73,395L75,393L73,395L71,395L69,393L69,391L68,390Z" fill="none" stroke="black" stroke-width="5" /><path d="M602,386L605,386L606,387L606,384L604,384Z" fill="none" stroke="black" stroke-width="5" /><path d="M67,382L67,383Z" fill="none" stroke="black" stroke-width="5" /><path d="M245,379L243,381L239,389L239,395L243,399L252,403L256,407L258,414L261,418L263,419L268,418L264,418L258,413L257,411L257,406L255,403L244,399L240,395L239,393L239,389L242,385L243,381Z" fill="none" stroke="black" stroke-width="5" /><path d="M81,379L80,380L80,381L79,382L79,383L78,384L78,385L78,384L79,383L79,382L80,381L80,380Z" fill="none" stroke="black" stroke-width="5" /><path d="M583,374L586,377L586,378L587,379L587,380L588,381L588,382L589,383L589,384L596,391L597,391L600,388L599,388L598,389L595,389L590,384L590,383L589,382L589,381L587,379L587,378L586,377L586,376L584,374Z" fill="none" stroke="black" stroke-width="5" /><path d="M560,375L564,375L565,374L578,374L562,374L561,375Z" fill="none" stroke="black" stroke-width="5" /><path d="M545,373L546,374L547,374L546,374Z" fill="none" stroke="black" stroke-width="5" /><path d="M626,372L626,373L625,374L626,373Z" fill="none" stroke="black" stroke-width="5" /><path d="M650,355L647,358L646,358L644,360L643,360L641,362L640,362L638,364L637,364L635,366L634,366L632,368L631,368L629,370L630,369L631,369L633,367L634,367L635,366L636,366L638,364L639,364L640,363L641,363L643,361L644,361Z" fill="none" stroke="black" stroke-width="5" /><path d="M658,346L658,347L657,348L658,347Z" fill="none" stroke="black" stroke-width="5" /><path d="M42,326L39,329Z" fill="none" stroke="black" stroke-width="5" /><path d="M571,325L569,335L564,336L549,326L542,323L542,327L546,336L546,342L542,345L541,348L543,354L543,370L542,348L548,342L545,330L549,327L560,335L567,337L570,333Z" fill="none" stroke="black" stroke-width="5" /><path d="M501,319L505,319L506,320L508,320L511,323L511,325L510,326L511,325L512,325L513,324L514,324L515,323L515,322L513,320L506,320L505,319Z" fill="none" stroke="black" stroke-width="5" /><path d="M572,317L572,321Z" fill="none" stroke="black" stroke-width="5" /><path d="M560,310L564,310L565,311L567,311L571,315L571,314L568,311L567,311L566,310Z" fill="none" stroke="black" stroke-width="5" /><path d="M548,278L546,280L542,288L542,291L541,292L541,300L542,302L546,306L548,306L551,308L558,309L555,309L554,308L552,308L551,307L549,307L547,306L543,302L542,300L542,291L543,290L543,287Z" fill="none" stroke="black" stroke-width="5" /><path d="M551,272L550,273L550,274L551,273Z" fill="none" stroke="black" stroke-width="5" /><path d="M73,260L70,291L49,321L53,321L58,328L57,338L31,354L28,348L36,333L28,347L29,355L40,349L44,350L46,373L46,347L52,342L62,344L55,321L56,312L63,312L68,296L84,296L89,293L75,295L71,290Z" fill="none" stroke="black" stroke-width="5" /><path d="M460,256L468,256Z" fill="none" stroke="black" stroke-width="5" /><path d="M567,236L569,238L572,238L573,239L581,239L577,239L576,238L571,238L570,237L568,237Z" fill="none" stroke="black" stroke-width="5" /><path d="M587,230L584,238L592,230L602,233L609,239L614,268L618,275L636,279L643,284L644,292L632,317L636,325L653,328L658,339L652,327L638,325L633,320L644,292L643,284L634,278L618,274L614,268L610,239L601,232Z" fill="none" stroke="black" stroke-width="5" /><path d="M558,225L562,229L562,231L564,233L563,232L563,231L562,230L562,229L561,228L561,227L560,227Z" fill="none" stroke="black" stroke-width="5" /><path d="M551,223L540,226L538,228L547,227L557,236L556,242L544,256L544,263L547,267L544,261L545,255L558,241L558,237L551,228L551,226L554,224Z" fill="none" stroke="black" stroke-width="5" /><path d="M437,208L435,210Z" fill="none" stroke="black" stroke-width="5" /><path d="M441,192L444,192L445,193L445,194L446,195L446,196L445,197L445,198L446,197L446,196L448,194L448,192Z" fill="none" stroke="black" stroke-width="5" /><path d="M395,174L393,176Z" fill="none" stroke="black" stroke-width="5" /><path d="M144,150L143,151Z" fill="none" stroke="black" stroke-width="5" /><path d="M423,147L422,148Z" fill="none" stroke="black" stroke-width="5" /><path d="M427,143L426,144Z" fill="none" stroke="black" stroke-width="5" /><path d="M330,143L330,145Z" fill="none" stroke="black" stroke-width="5" /><path d="M174,133L171,135L169,135L168,136L167,136L166,137L165,137L164,138L163,138L162,139L161,139L160,140L159,140L158,141L157,141L156,142L153,143L151,145L150,145L146,149L151,145L152,145L153,144L156,143L158,141L159,141L160,140L161,140L166,137L168,137L169,136L172,135Z" fill="none" stroke="black" stroke-width="5" /><path d="M346,110L344,112L329,119L324,123L324,124L321,127L321,130L320,131L320,135L322,137L327,139L329,141L326,138L324,138L320,133L320,131L323,125L327,121L330,120L332,118L342,113L344,113L346,111Z" fill="none" stroke="black" stroke-width="5" /><path d="M347,99L347,107Z" fill="none" stroke="black" stroke-width="5" /><path d="M249,94L196,199L132,170L184,233L113,283L182,332L76,256L116,345L47,384L187,324L206,376L232,294L321,308L326,232L386,227L397,295L286,325L341,389L287,340L265,386L332,392L323,488L221,439L233,337L194,396L263,481L181,474L189,399L168,448L263,546L108,564L327,493L378,556L320,626L409,641L584,488L452,549L445,481L589,437L453,476L423,362L508,327L396,347L499,318L411,311L491,260L407,308L449,257L378,218L439,193L324,226L435,133L327,149L313,242L234,272L198,200L289,193L201,182Z" fill="none" stroke="black" stroke-width="5" /><path d="M184,79L181,81L179,84L178,92L180,96L191,106L193,109L193,114L189,120L179,130L188,122L193,115L194,112L193,108L180,96L178,91L179,85Z" fill="none" stroke="black" stroke-width="5" /><path d="M209,74L207,74L206,75L202,75L201,76L194,76L207,76Z" fill="none" stroke="black" stroke-width="5" /><path d="M290,72L290,78L291,79L291,81L293,84L293,86L294,87L294,89L295,90L295,99L293,102L294,101L294,100L296,97L296,90L295,89L295,87L293,84L293,82L291,79L291,77L290,76Z" fill="none" stroke="black" stroke-width="5" /><path d="M245,61L244,62L241,62L239,63L235,67L233,71L233,79L236,85L241,85L247,91L246,90L246,87L245,86L245,81L243,81L240,84L237,84L235,82L233,78L233,72L235,68L240,63L245,62L247,61Z" fill="none" stroke="black" stroke-width="5" /><path d="M357,56L357,61L354,64L350,66L348,66L343,69L339,73L337,77L337,79L341,87L343,89L346,95L346,97L346,94L343,88L339,83L339,81L338,80L338,76L345,68L349,66L352,66L357,62L358,60Z" fill="none" stroke="black" stroke-width="5" /><path d="M343,40L336,36L336,40L338,43L338,53L335,56L332,57L315,57L314,58L308,58L301,60L295,64L301,60L308,58L330,58L331,57L334,57L337,55L338,53L338,42L341,39Z" fill="none" stroke="black" stroke-width="5" /><path d="M220,25L223,32L223,37L219,42L213,44L216,56L215,67L217,63L216,47L224,37L225,30L227,28L233,28L239,32L248,31L254,34L254,42L247,51L251,57L252,56L248,50L255,42L256,35L253,32L241,31L235,28L224,27Z" fill="none" stroke="black" stroke-width="5" /></svg>