<svg baseProfile="tiny" height="675px" version="1.2" width="672px" xmlns="http://www.w3.org/2000/svg" xmlns:ev="http://www.w3.org/2001/xml-events" xmlns:xlink="http://www.w3.org/1999/xlink"><defs /><path d="M322,627L326,627Z" fill="none" stroke="black" stroke-width="5" /><path d="M465,571L465,576L466,577L466,581L467,582L467,585L467,582L466,581L466,576L465,575Z" fill="none" stroke="black" stroke-width="5" /><path d="M230,564L230,571Z" fill="none" stroke="black" stroke-width="5" /><path d="M231,561L231,562Z" fill="none" stroke="black" stroke-width="5" /><path d="M240,539L237,542L233,549L232,556L234,548Z" fill="none" stroke="black" stroke-width="5" /><path d="M310,516L312,516Z" fill="none" stroke="black" stroke-width="5" /><path d="M272,474L277,483L279,490L284,496L286,501Z" fill="none" stroke="black" stroke-width="5" /><path d="M43,451L39,455L40,471L40,455Z" fill="none" stroke="black" stroke-width="5" /><path d="M217,382L213,392L212,409L213,396Z" fill="none" stroke="black" stroke-width="5" /><path d="M565,372L566,372Z" fill="none" stroke="black" stroke-width="5" /><path d="M237,361L236,364L226,371L219,379L229,369L231,368L237,369Z" fill="none" stroke="black" stroke-width="5" /><path d="M273,293L276,297L273,312L274,328L301,327L310,324Z" fill="none" stroke="black" stroke-width="5" /><path d="M389,280L367,297L351,319L363,304L369,307L370,314L360,321L391,312L387,289Z" fill="none" stroke="black" stroke-width="5" /><path d="M198,249L200,253L208,261L209,261L202,255L202,254Z" fill="none" stroke="black" stroke-width="5" /><path d="M144,231L143,231L140,234L139,234L136,236L138,236L139,235L140,235Z" fill="none" stroke="black" stroke-width="5" /><path d="M135,221L130,221L129,222L128,222L128,227L129,228L130,228L130,225L134,221Z" fill="none" stroke="black" stroke-width="5" /><path d="M158,149L154,160L164,181L190,212L189,196L175,195L163,178L156,161Z" fill="none" stroke="black" stroke-width="5" /><path d="M86,150L238,357L483,316L42,520L449,386L283,473L492,415L314,515L453,545L189,618L513,522L453,640L593,638L503,186L456,311L424,163L200,222L230,351Z" fill="none" stroke="black" stroke-width="5" /><path d="M633,141L621,187L614,152L567,148L554,218L598,235L605,272L602,241L640,249L602,384L574,370L605,282L568,371L583,399L655,211Z" fill="none" stroke="black" stroke-width="5" /><path d="M137,82L121,100L105,149L133,83L140,89L147,132L137,146L161,140L147,133Z" fill="none" stroke="black" stroke-width="5" /><path d="M449,44L464,62L451,74L458,90L469,79L476,84L497,129L486,144L503,162L503,138L473,78L474,66Z" fill="none" stroke="black" stroke-width="5" /><path d="M441,36L447,42Z" fill="none" stroke="black" stroke-width="5" /><path d="M409,11L404,20L417,56L410,68L421,76L404,73L424,87L425,161L425,90L405,15L438,33Z" fill="none" stroke="black" stroke-width="5" /></svg>