<svg baseProfile="tiny" height="572px" version="1.2" width="700px" xmlns="http://www.w3.org/2000/svg" xmlns:ev="http://www.w3.org/2001/xml-events" xmlns:xlink="http://www.w3.org/1999/xlink"><defs /><path d="M186,436L185,451L181,464L169,486L183,460Z" fill="none" stroke="black" stroke-width="5" /><path d="M582,398L577,406L574,414L570,419L572,421L575,421L578,418L575,414L575,412Z" fill="none" stroke="black" stroke-width="5" /><path d="M372,391L344,416Z" fill="none" stroke="black" stroke-width="5" /><path d="M373,388L373,389Z" fill="none" stroke="black" stroke-width="5" /><path d="M95,386L97,394L110,408L123,409L113,409L107,405L97,393Z" fill="none" stroke="black" stroke-width="5" /><path d="M603,374L584,386L576,394L581,392L583,396L587,392L584,392L582,390L583,388Z" fill="none" stroke="black" stroke-width="5" /><path d="M414,250L413,251L412,251L411,252L410,252L409,253L409,254L410,253L411,253Z" fill="none" stroke="black" stroke-width="5" /><path d="M521,233L433,480L407,263L142,555L293,366L309,481L313,372L386,338L429,423L378,508L425,509Z" fill="none" stroke="black" stroke-width="5" /><path d="M41,185L41,186L42,187L41,186Z" fill="none" stroke="black" stroke-width="5" /><path d="M23,182L24,183L24,187L24,183Z" fill="none" stroke="black" stroke-width="5" /><path d="M468,147L473,152Z" fill="none" stroke="black" stroke-width="5" /><path d="M409,86L412,89Z" fill="none" stroke="black" stroke-width="5" /><path d="M377,48L407,83Z" fill="none" stroke="black" stroke-width="5" /><path d="M375,46L375,47Z" fill="none" stroke="black" stroke-width="5" /><path d="M467,31L453,34L437,49L453,35Z" fill="none" stroke="black" stroke-width="5" /><path d="M489,29L436,100L419,56L458,138L499,42L588,89L517,193L475,154L622,270L560,328L625,290L563,345L625,318L573,467L688,181L574,47Z" fill="none" stroke="black" stroke-width="5" /><path d="M292,13L335,19L373,45L338,20L317,14Z" fill="none" stroke="black" stroke-width="5" /><path d="M290,13L157,55L86,181L24,155L91,183L86,231L26,193L114,305L95,376L116,297L160,349L138,396L208,367L125,408L187,432L370,215L346,108L260,26Z" fill="none" stroke="black" stroke-width="5" /></svg>