<svg baseProfile="tiny" height="700px" version="1.2" width="649px" xmlns="http://www.w3.org/2000/svg" xmlns:ev="http://www.w3.org/2001/xml-events" xmlns:xlink="http://www.w3.org/1999/xlink"><defs /><path d="M285,241L278,244L269,259L268,307L273,332L277,341L286,352L297,353L307,347L315,331L315,285L310,264L305,253L296,244Z" fill="none" stroke="black" stroke-width="5" /><path d="M400,17L339,121L306,65L300,156L186,255L145,332L166,397L47,388L110,461L109,569L34,654L195,506L275,559L235,669L370,621L464,667L376,550L442,482L524,604L512,431L616,299L413,367L355,472L263,382L329,535L240,468L231,357L164,313L225,213L303,192L263,185L286,160L353,276L340,405L413,345L601,299L550,306L546,167L469,319L402,219Z" fill="none" stroke="black" stroke-width="5" /></svg>