<svg baseProfile="tiny" height="649px" version="1.2" width="700px" xmlns="http://www.w3.org/2000/svg" xmlns:ev="http://www.w3.org/2001/xml-events" xmlns:xlink="http://www.w3.org/1999/xlink"><defs /><path d="M559,526L558,527L557,527L555,529L555,531L557,533L557,534L558,535L559,535L560,536L562,536L563,535L563,534L564,533L564,530L563,529L563,528L562,527L561,527L560,526Z" fill="none" stroke="black" stroke-width="5" /><path d="M520,475L518,478L518,481L521,486L538,502L547,507L549,507L551,505L551,498L550,497L550,494L549,493L548,488L544,481L539,476L535,475L534,474L523,474L522,475Z" fill="none" stroke="black" stroke-width="5" /><path d="M292,464L291,465L286,467L283,470L283,471L281,474L281,476L280,477L280,480L281,481L281,483L282,484L282,485L288,491L289,491L291,493L294,493L297,490L297,489L299,486L299,483L300,482L300,474L299,473L299,470L297,468L297,467L296,467L293,464Z" fill="none" stroke="black" stroke-width="5" /><path d="M429,422L429,426L430,427L430,422Z" fill="none" stroke="black" stroke-width="5" /><path d="M292,401L289,405L288,413L296,431L302,438L306,440L313,441L317,439L318,437L318,427L314,417L309,411L309,410L303,404L298,401Z" fill="none" stroke="black" stroke-width="5" /><path d="M501,379L499,379L498,380L497,380L496,381L495,381L494,382L496,382L497,381L498,381L499,380L500,380Z" fill="none" stroke="black" stroke-width="5" /><path d="M500,365L499,365L498,366L497,366L497,367L500,367Z" fill="none" stroke="black" stroke-width="5" /><path d="M434,360L420,380L412,387L426,374L434,362L445,361L448,365L447,383L450,395L455,402L461,407L454,399L451,391L450,367L448,362L444,359Z" fill="none" stroke="black" stroke-width="5" /><path d="M489,345L487,345L486,346L485,346L483,348L482,348L479,351L480,350L482,350L484,348L485,348L488,345Z" fill="none" stroke="black" stroke-width="5" /><path d="M297,320L303,326L332,325L377,272L390,271L398,280L401,304L412,327L417,330L410,314L423,301L434,310L442,331L440,336L435,335L471,353L445,336L428,302L421,300L410,312L405,310L397,275L390,270L375,273L331,323L310,325Z" fill="none" stroke="black" stroke-width="5" /><path d="M265,239L263,239L260,242L260,243L259,244L259,247L260,248L260,250L263,253L264,252L265,252L265,251L269,247L269,246L270,245L270,243L267,240L266,240Z" fill="none" stroke="black" stroke-width="5" /><path d="M124,221L123,221L122,222L121,222L120,223L119,223L119,224L116,227L116,228L117,228L118,227L118,226L119,225L120,225L122,223L123,223L124,222Z" fill="none" stroke="black" stroke-width="5" /><path d="M295,171L293,171L292,172L291,172L288,175L288,176L286,178L286,180L285,181L285,184L284,185L284,190L283,191L283,192L284,193L284,196L287,199L292,199L293,198L295,198L296,197L296,196L298,194L298,193L300,190L300,188L301,187L301,185L302,184L302,182L301,181L301,178L300,177L299,174L297,172L296,172Z" fill="none" stroke="black" stroke-width="5" /><path d="M248,143L246,142L225,143L215,145L208,148L195,162L189,172L188,176L193,178L200,178L201,177L224,176L233,173L242,164L249,149Z" fill="none" stroke="black" stroke-width="5" /><path d="M202,131L200,131L189,142L185,150L185,152L184,153L184,156L183,157L183,161L182,162L182,166L183,167L184,165L184,160L185,159L185,157L187,153L187,150L191,142Z" fill="none" stroke="black" stroke-width="5" /><path d="M144,131L142,133L142,136L143,136L144,135L144,134L145,133L145,132Z" fill="none" stroke="black" stroke-width="5" /><path d="M117,54L90,241L120,52L333,44L343,122L278,91L320,134L279,365L415,494L539,438L679,562L585,586L381,503L296,530L400,507L598,597L285,560L218,466L240,220L143,242L240,197L126,244L182,265L37,616L501,628L680,563L586,502L526,331L581,496L505,390L428,460L315,347L424,462L558,429L420,493L279,352L344,50Z" fill="none" stroke="black" stroke-width="5" /></svg>