<svg baseProfile="tiny" height="675px" version="1.2" width="672px" xmlns="http://www.w3.org/2000/svg" xmlns:ev="http://www.w3.org/2001/xml-events" xmlns:xlink="http://www.w3.org/1999/xlink"><defs /><path d="M163,405L137,559L176,435L201,494L179,575L129,572L182,574L233,429L276,476L265,636L311,646L329,457L393,477L234,414L208,508L188,411L152,456Z" fill="none" stroke="black" stroke-width="5" /><path d="M640,127L505,166L563,70L476,115L455,29L307,190L298,114L162,141L167,214L138,76L66,457L163,402L70,451L133,357L46,335L73,236L230,398L412,174L346,272L432,332L308,368L384,465L382,387L506,393L587,499L534,285L642,292L529,221Z" fill="none" stroke="black" stroke-width="5" /></svg>