<svg baseProfile="tiny" height="638px" version="1.2" width="700px" xmlns="http://www.w3.org/2000/svg" xmlns:ev="http://www.w3.org/2001/xml-events" xmlns:xlink="http://www.w3.org/1999/xlink"><defs /><path d="M265,405L270,410L267,435L240,450L236,448L238,436L253,414L237,437L233,466L241,501L262,522L290,533L336,531L362,520L390,485L392,452L382,431L365,412L330,393L292,391Z" fill="none" stroke="black" stroke-width="5" /><path d="M598,207L598,208L597,209L597,211L596,212L597,213L597,214L599,216L599,218L599,216L598,215L598,214L597,213L597,210L598,209Z" fill="none" stroke="black" stroke-width="5" /><path d="M593,196L593,198L592,199L592,200L593,199Z" fill="none" stroke="black" stroke-width="5" /><path d="M270,185L271,186Z" fill="none" stroke="black" stroke-width="5" /><path d="M439,183L440,184L442,184L440,184Z" fill="none" stroke="black" stroke-width="5" /><path d="M561,168L560,169L560,173L559,174L559,175L558,176L560,176L560,174L561,173Z" fill="none" stroke="black" stroke-width="5" /><path d="M552,168L552,169Z" fill="none" stroke="black" stroke-width="5" /><path d="M541,161L542,162L542,163L543,164L543,165L544,166L544,165L543,164L543,163Z" fill="none" stroke="black" stroke-width="5" /><path d="M478,160L479,161L479,162L479,161Z" fill="none" stroke="black" stroke-width="5" /><path d="M492,154L492,155L492,154L495,151L496,152L497,152L499,154L499,155L499,154L496,151L495,151L494,152L493,152L493,153Z" fill="none" stroke="black" stroke-width="5" /><path d="M390,144L395,144Z" fill="none" stroke="black" stroke-width="5" /><path d="M379,143L385,143Z" fill="none" stroke="black" stroke-width="5" /><path d="M287,143L288,143Z" fill="none" stroke="black" stroke-width="5" /><path d="M371,142L374,142Z" fill="none" stroke="black" stroke-width="5" /><path d="M297,142L299,142Z" fill="none" stroke="black" stroke-width="5" /><path d="M365,141L366,141Z" fill="none" stroke="black" stroke-width="5" /><path d="M516,136L517,137Z" fill="none" stroke="black" stroke-width="5" /><path d="M506,120L507,121L507,122L509,124L509,125L511,127L511,128L513,130L513,131L514,132L514,133L515,134L514,133L514,132L513,131L513,130L512,129L512,128L510,126L510,125L508,123L508,122Z" fill="none" stroke="black" stroke-width="5" /><path d="M346,101L346,103L348,105L349,105L350,106L351,106L350,106L349,105L348,105L347,104L347,103L346,102Z" fill="none" stroke="black" stroke-width="5" /><path d="M475,93L476,94L477,94L479,96L480,96L482,98L483,98L486,101L487,101L492,106L493,106L499,112L491,104L490,104L485,99L484,99L482,97L481,97L479,95L478,95Z" fill="none" stroke="black" stroke-width="5" /><path d="M481,85L483,85Z" fill="none" stroke="black" stroke-width="5" /><path d="M476,84L477,84Z" fill="none" stroke="black" stroke-width="5" /><path d="M570,102L485,86L618,232L575,268L577,162L537,241L518,139L506,610L319,539L170,601L191,478L131,377L133,238L221,395L447,353L511,227L398,145L493,203L477,278L215,246L236,136L322,203L264,140L348,34L367,106L491,49L347,31L229,133L187,335L128,240L132,409L46,240L49,384L165,461L44,550L167,500L125,570L173,532L171,603L330,544L491,616L498,551L566,546L500,491L662,529L546,458L638,323Z" fill="none" stroke="black" stroke-width="5" /></svg>