<svg baseProfile="tiny" height="467px" version="1.2" width="295px" xmlns="http://www.w3.org/2000/svg" xmlns:ev="http://www.w3.org/2001/xml-events" xmlns:xlink="http://www.w3.org/1999/xlink"><defs /><path d="M195,81L184,78L176,83L141,118L135,132L151,133L186,123L197,117L202,111L203,102Z" fill="none" stroke="black" stroke-width="5" /><path d="M86,46L68,64L41,105L41,119L51,132L41,118L45,99L68,123L84,124L64,71Z" fill="none" stroke="black" stroke-width="5" /><path d="M163,21L88,44L200,31L263,113L115,180L63,143L48,188L66,148L96,184L46,227L94,191L78,248L49,231L117,450L251,301L260,218L174,248L150,185L264,206L152,174L241,134L271,200L245,74Z" fill="none" stroke="black" stroke-width="5" /></svg>