<svg baseProfile="tiny" height="543px" version="1.2" width="700px" xmlns="http://www.w3.org/2000/svg" xmlns:ev="http://www.w3.org/2001/xml-events" xmlns:xlink="http://www.w3.org/1999/xlink"><defs /><path d="M316,515L264,533L245,533L269,532Z" fill="none" stroke="black" stroke-width="5" /><path d="M213,510L229,525L243,532L235,529Z" fill="none" stroke="black" stroke-width="5" /><path d="M386,501L403,509L489,505L404,509Z" fill="none" stroke="black" stroke-width="5" /><path d="M205,501L209,505Z" fill="none" stroke="black" stroke-width="5" /><path d="M515,493L501,502L491,504L495,504L504,501Z" fill="none" stroke="black" stroke-width="5" /><path d="M281,484L253,495L240,497L255,495Z" fill="none" stroke="black" stroke-width="5" /><path d="M634,397L633,397L633,398Z" fill="none" stroke="black" stroke-width="5" /><path d="M38,316L38,324Z" fill="none" stroke="black" stroke-width="5" /><path d="M38,283L38,290Z" fill="none" stroke="black" stroke-width="5" /><path d="M643,397L555,434L626,402L455,272L125,334L156,477L39,326L204,499L177,348L320,508L431,480L340,436L462,303L536,342L433,479L530,362L521,487Z" fill="none" stroke="black" stroke-width="5" /><path d="M44,249L41,261L39,280Z" fill="none" stroke="black" stroke-width="5" /><path d="M635,235L659,321L658,364L645,394L658,366L659,318Z" fill="none" stroke="black" stroke-width="5" /><path d="M171,109L163,114L159,127L164,137L179,141L191,133L192,119L183,110Z" fill="none" stroke="black" stroke-width="5" /><path d="M332,89L324,100L327,113L333,117L347,116L353,109L353,96L344,88Z" fill="none" stroke="black" stroke-width="5" /><path d="M228,39L156,72L102,118L45,247L101,120L157,72Z" fill="none" stroke="black" stroke-width="5" /><path d="M238,36L236,36L235,37L233,37L232,38L230,38L232,38L233,37L236,37L237,36Z" fill="none" stroke="black" stroke-width="5" /><path d="M399,30L534,98L634,233L536,99Z" fill="none" stroke="black" stroke-width="5" /><path d="M264,30L240,35L254,33Z" fill="none" stroke="black" stroke-width="5" /><path d="M396,29L397,29Z" fill="none" stroke="black" stroke-width="5" /><path d="M365,25L392,28Z" fill="none" stroke="black" stroke-width="5" /><path d="M303,24L266,29Z" fill="none" stroke="black" stroke-width="5" /><path d="M310,23L362,24Z" fill="none" stroke="black" stroke-width="5" /></svg>