<svg baseProfile="tiny" height="543px" version="1.2" width="700px" xmlns="http://www.w3.org/2000/svg" xmlns:ev="http://www.w3.org/2001/xml-events" xmlns:xlink="http://www.w3.org/1999/xlink"><defs /><path d="M211,507L233,528L249,534L262,534L296,522L310,519L316,515L307,520L288,524L264,533L252,534L237,530Z" fill="none" stroke="black" stroke-width="5" /><path d="M634,397L633,397L632,398L633,398Z" fill="none" stroke="black" stroke-width="5" /><path d="M37,294L37,311Z" fill="none" stroke="black" stroke-width="5" /><path d="M171,109L170,110L166,111L162,115L160,119L159,127L160,128L160,131L162,135L164,137L172,141L179,141L186,138L190,135L192,131L192,118L185,111L181,109Z" fill="none" stroke="black" stroke-width="5" /><path d="M332,89L327,94L324,100L324,106L325,107L325,109L327,113L332,117L344,117L345,116L347,116L352,111L353,109L353,96L346,89L344,88L334,88Z" fill="none" stroke="black" stroke-width="5" /><path d="M238,36L156,72L97,124L57,202L38,291L53,215L96,126L157,72Z" fill="none" stroke="black" stroke-width="5" /><path d="M621,205L520,86L394,29L511,80L611,189L659,322L625,416L553,432L576,394L626,402L496,272L302,338L128,332L121,410L169,477L88,429L38,315L106,450L209,505L281,484L223,498L169,459L145,380L177,348L217,365L241,441L310,443L285,482L325,475L319,510L346,481L499,503L398,508L370,478L493,452L530,362L564,404L519,489L641,400L659,318Z" fill="none" stroke="black" stroke-width="5" /><path d="M303,24L298,24L297,25L292,25L291,26L274,27L261,31L257,31L252,33L240,35L250,34L270,28L277,28L278,27L285,27L286,26L293,26L294,25Z" fill="none" stroke="black" stroke-width="5" /><path d="M308,23L352,23L353,24L363,24L370,26L392,28L364,25L357,23Z" fill="none" stroke="black" stroke-width="5" /></svg>