<svg baseProfile="tiny" height="552px" version="1.2" width="700px" xmlns="http://www.w3.org/2000/svg" xmlns:ev="http://www.w3.org/2001/xml-events" xmlns:xlink="http://www.w3.org/1999/xlink"><defs /><path d="M240,242L236,244L232,250L232,253L231,254L232,257L235,254L235,252L237,250L237,249L241,245L241,243Z" fill="none" stroke="black" stroke-width="5" /><path d="M309,194L290,212L275,231L268,230L280,232L306,229L308,218L305,202Z" fill="none" stroke="black" stroke-width="5" /><path d="M257,149L287,179L304,177L353,150L359,153L349,151L304,176L288,177L262,148Z" fill="none" stroke="black" stroke-width="5" /><path d="M29,33L237,223L229,387L314,288L376,403L464,367L345,533L544,428L428,273L683,37L477,51L457,186L329,200L517,70L389,263L510,438L325,245L228,385L258,154Z" fill="none" stroke="black" stroke-width="5" /></svg>