<svg baseProfile="tiny" height="574px" version="1.2" width="725px" xmlns="http://www.w3.org/2000/svg" xmlns:ev="http://www.w3.org/2001/xml-events" xmlns:xlink="http://www.w3.org/1999/xlink"><defs /><path d="M438,530L451,530Z" fill="none" stroke="black" stroke-width="5" /><path d="M552,203L599,275L612,372L596,370L590,338L511,386L482,419L469,458L486,520L455,529L489,523L531,549L588,552L627,534L661,482L690,463L665,449L662,430L668,418L681,427L686,413L697,414L693,398L706,394L705,377L649,279Z" fill="none" stroke="black" stroke-width="5" /><path d="M459,23L457,23L456,24L453,24L452,25L449,25L448,26L445,26L444,27L442,27L441,28L439,28L438,29L436,29L435,30L434,30L433,31L432,31L433,31L434,30L440,30L443,28L446,28L447,27L449,27L450,26L452,26L454,24L456,24L457,23Z" fill="none" stroke="black" stroke-width="5" /><path d="M499,18L461,22L502,24L511,154L433,60L251,86L214,172L232,23L430,32L230,23L210,178L143,98L62,122L92,314L25,486L68,537L435,531L220,523L224,410L116,353L86,395L84,347L171,204L323,145L520,180L562,244L547,307L175,336L136,285L169,216L135,273L157,328L541,316L565,244Z" fill="none" stroke="black" stroke-width="5" /></svg>