<svg baseProfile="tiny" height="558px" version="1.2" width="725px" xmlns="http://www.w3.org/2000/svg" xmlns:ev="http://www.w3.org/2001/xml-events" xmlns:xlink="http://www.w3.org/1999/xlink"><defs /><path d="M253,281L253,282L259,288L258,287L258,286L260,284L259,283L258,283L255,281Z" fill="none" stroke="black" stroke-width="5" /><path d="M295,281L294,288L288,295L265,286L288,296L294,289Z" fill="none" stroke="black" stroke-width="5" /><path d="M465,270L426,267L408,272L375,324L409,272L435,267Z" fill="none" stroke="black" stroke-width="5" /><path d="M319,203L284,225L282,228Z" fill="none" stroke="black" stroke-width="5" /><path d="M269,88L189,344L222,266Z" fill="none" stroke="black" stroke-width="5" /><path d="M271,81L271,84L270,85L271,84Z" fill="none" stroke="black" stroke-width="5" /><path d="M33,149L172,416L419,347L434,507L692,532L468,501L467,271L503,357L244,298L282,390L154,399L270,58L195,295Z" fill="none" stroke="black" stroke-width="5" /><path d="M302,55L288,159L340,106L281,186L349,150L278,212L331,180L281,239L330,249L260,260L292,278L267,261L330,250L287,236L350,147L296,171L340,110L296,142Z" fill="none" stroke="black" stroke-width="5" /><path d="M279,32L271,35L271,56L273,37L277,33L284,37L283,97L285,36Z" fill="none" stroke="black" stroke-width="5" /></svg>