<svg baseProfile="tiny" height="535px" version="1.2" width="600px" xmlns="http://www.w3.org/2000/svg" xmlns:ev="http://www.w3.org/2001/xml-events" xmlns:xlink="http://www.w3.org/1999/xlink"><defs /><path d="M167,512L165,513L161,513L160,514L156,514L155,515L152,515L147,518L145,518L137,522L135,524L134,524L128,530L131,527L132,527L137,523L149,517L151,517L155,515L159,515L160,514L162,514L163,513L165,513Z" fill="none" stroke="black" stroke-width="5" /><path d="M155,504L150,508L142,512L137,512L136,513L132,514L124,522L124,523L120,528L118,533L123,524L130,516L131,516L133,514L136,514L137,513L139,513L140,512L148,510L150,509Z" fill="none" stroke="black" stroke-width="5" /><path d="M465,290L465,291Z" fill="none" stroke="black" stroke-width="5" /><path d="M89,290L88,291Z" fill="none" stroke="black" stroke-width="5" /><path d="M519,273L519,276L518,277L518,279L517,280L517,282L516,283L516,285L515,286L515,288L514,289L514,291L513,292L513,294L512,295L512,296L510,299L510,301L509,302L509,303L509,302L510,301L510,300L512,297L512,295L514,292L514,290L515,289L515,287L516,286L516,284L517,283L517,281L518,280L518,277L519,276Z" fill="none" stroke="black" stroke-width="5" /><path d="M415,253L421,256L431,256L432,257L436,257L437,258L444,258L445,259L454,259L455,260L457,260L455,260L454,259L450,259L449,258L443,258L442,257L433,257L432,256L424,256L423,255L419,255Z" fill="none" stroke="black" stroke-width="5" /><path d="M463,227L461,227L460,228L459,228L458,229L457,229L459,229L460,228L462,228Z" fill="none" stroke="black" stroke-width="5" /><path d="M59,117L59,118Z" fill="none" stroke="black" stroke-width="5" /><path d="M56,96L56,102L57,103L57,112L58,113L58,115L58,107L57,106L57,101L56,100Z" fill="none" stroke="black" stroke-width="5" /><path d="M380,80L370,90L370,91L362,99L372,89L372,88Z" fill="none" stroke="black" stroke-width="5" /><path d="M393,67L384,76Z" fill="none" stroke="black" stroke-width="5" /><path d="M403,58L395,66Z" fill="none" stroke="black" stroke-width="5" /><path d="M61,51L61,52L60,53L60,54L59,55L59,56L58,57L58,60L57,61L57,64L57,61L58,60L58,58L59,57L59,56L60,55L60,53L61,52Z" fill="none" stroke="black" stroke-width="5" /><path d="M64,46L63,47Z" fill="none" stroke="black" stroke-width="5" /><path d="M56,74L139,154L60,120L119,181L70,156L62,319L129,163L175,176L133,242L192,261L94,284L180,305L161,496L145,345L268,241L166,340L169,511L166,343L223,302L247,488L359,307L495,518L311,236L470,328L367,295L467,492L418,347L508,305L477,338L321,231L435,158L437,231L374,235L459,191L523,247L466,287L527,248L581,295L518,196L564,56L318,169L360,102L326,139L312,34L279,87L202,51L218,140Z" fill="none" stroke="black" stroke-width="5" /><path d="M132,32L133,32Z" fill="none" stroke="black" stroke-width="5" /><path d="M552,29L554,31L554,32L556,34L556,35L557,36L557,37L558,38L558,40L559,41L559,42L560,43L560,44L561,45L561,47L562,48L562,50L563,51L562,50L562,47L561,46L561,45L560,44L560,42L559,41L559,40L558,39L558,38L557,37L557,36L556,35L556,34L554,32L554,31Z" fill="none" stroke="black" stroke-width="5" /><path d="M67,42L78,36L147,75L187,66L158,42L137,33L161,44L184,64L178,69L151,75L84,40L79,34L91,28L128,31L122,28L83,30Z" fill="none" stroke="black" stroke-width="5" /><path d="M405,57L410,52L419,52L460,63L541,25L550,26L545,21L469,59L451,62L416,49L442,29L468,16L441,29Z" fill="none" stroke="black" stroke-width="5" /><path d="M477,13L475,13L474,14L473,14L472,15L471,15L472,15L473,14L474,14L475,13Z" fill="none" stroke="black" stroke-width="5" /><path d="M485,10L483,10L482,11L480,11L479,12L481,12L482,11L483,11L484,10Z" fill="none" stroke="black" stroke-width="5" /><path d="M488,9L489,9Z" fill="none" stroke="black" stroke-width="5" /><path d="M501,8L517,8L518,9L525,9L526,10L529,10L538,15L537,14L536,14L534,12L533,12L530,10L527,10L526,9L523,9L522,8Z" fill="none" stroke="black" stroke-width="5" /><path d="M496,8L499,8Z" fill="none" stroke="black" stroke-width="5" /></svg>