<svg baseProfile="tiny" height="535px" version="1.2" width="600px" xmlns="http://www.w3.org/2000/svg" xmlns:ev="http://www.w3.org/2001/xml-events" xmlns:xlink="http://www.w3.org/1999/xlink"><defs /><path d="M157,502L153,506L150,507L148,509L146,509L141,512L136,512L128,517L119,529L117,534L118,534L120,529L124,523L132,515L134,514L137,514L138,513L140,513L150,509L153,507Z" fill="none" stroke="black" stroke-width="5" /><path d="M539,15L444,27L328,140L291,84L309,52L342,99L310,33L256,90L214,43L65,44L225,108L216,140L55,73L103,219L62,319L126,255L160,498L145,345L268,241L167,337L178,480L124,534L179,482L168,341L217,343L248,488L345,383L357,308L443,489L496,517L418,347L489,332L527,248L582,295L518,196L564,55L477,106L389,98L315,166L411,52L542,25L563,52Z" fill="none" stroke="black" stroke-width="5" /></svg>