<svg baseProfile="tiny" height="700px" version="1.2" width="629px" xmlns="http://www.w3.org/2000/svg" xmlns:ev="http://www.w3.org/2001/xml-events" xmlns:xlink="http://www.w3.org/1999/xlink"><defs /><path d="M515,625L538,641L546,649L548,649L537,638L525,630L523,630L519,626Z" fill="none" stroke="black" stroke-width="5" /><path d="M522,481L521,481L518,484L518,485L507,496L509,496L510,494L512,492L513,492L514,489L516,488L518,486L518,485L521,483Z" fill="none" stroke="black" stroke-width="5" /><path d="M402,430L390,489L356,516L318,517L312,468L287,429L313,477L298,556L192,604L288,565L308,517L356,519L365,556L361,518L401,473Z" fill="none" stroke="black" stroke-width="5" /><path d="M397,347L426,454L398,537L543,609L569,661L538,673L367,558L564,669L554,616L399,537L506,498L402,525L492,485L417,499L401,360L465,373Z" fill="none" stroke="black" stroke-width="5" /><path d="M524,337L539,364L546,398L543,433L524,479L540,449L547,415L542,368Z" fill="none" stroke="black" stroke-width="5" /><path d="M468,112L244,110L230,231L106,181L88,94L118,192L303,268L208,337L284,350L266,531L92,654L269,531L286,346L209,339L306,275L505,337L512,467L511,342L401,277L522,335L430,267Z" fill="none" stroke="black" stroke-width="5" /><path d="M217,70L162,78L107,78L103,81L167,79Z" fill="none" stroke="black" stroke-width="5" /><path d="M244,49L229,62L218,68L220,69L231,62Z" fill="none" stroke="black" stroke-width="5" /><path d="M114,36L71,101L74,159L124,216L207,244L148,227L98,193L73,151L72,105L111,38L227,29L246,47L250,37L221,27Z" fill="none" stroke="black" stroke-width="5" /></svg>