<svg baseProfile="tiny" height="300px" version="1.2" width="300px" xmlns="http://www.w3.org/2000/svg" xmlns:ev="http://www.w3.org/2001/xml-events" xmlns:xlink="http://www.w3.org/1999/xlink"><defs /><path d="M128,102L128,103Z" fill="none" stroke="black" stroke-width="2" /><path d="M114,98L110,105L110,116L110,106L112,101L116,98L117,101L114,107L114,117L115,118L114,120L124,123L125,121L124,105L121,99Z" fill="none" stroke="black" stroke-width="2" /><path d="M65,2L88,57L151,86L149,132L108,123L141,207L202,211L166,193L206,198L243,276L150,267L161,247L109,267L130,210L122,288L94,286L115,206L93,109L145,87L119,81L76,152L94,187L56,199L84,213L66,247L102,236L91,295L141,264L140,292L204,264L239,292L243,192L184,189L203,164L162,167L158,137L135,165L152,71Z" fill="none" stroke="black" stroke-width="2" /></svg>