<svg baseProfile="tiny" height="300px" version="1.2" width="300px" xmlns="http://www.w3.org/2000/svg" xmlns:ev="http://www.w3.org/2001/xml-events" xmlns:xlink="http://www.w3.org/1999/xlink"><defs /><path d="M193,286L193,287L194,288L193,287Z" fill="none" stroke="black" stroke-width="2" /><path d="M234,153L229,153L247,164L242,170L237,194L232,197L227,194L229,190L213,190L223,191L233,199L237,209L238,240L224,245L208,245L204,241L208,246L238,242L237,208L233,199L238,194L247,163L239,161Z" fill="none" stroke="black" stroke-width="2" /><path d="M195,16L196,17L197,17L196,16Z" fill="none" stroke="black" stroke-width="2" /><path d="M190,15L191,16L192,16L191,15Z" fill="none" stroke="black" stroke-width="2" /><path d="M191,13L192,13Z" fill="none" stroke="black" stroke-width="2" /><path d="M187,13L188,13Z" fill="none" stroke="black" stroke-width="2" /><path d="M227,11L224,63L195,19L209,45L160,69L163,132L129,141L158,141L149,171L125,187L116,144L116,176L51,198L62,278L91,281L102,254L118,294L146,296L153,259L163,288L191,290L192,217L199,241L176,254L154,232L170,213L125,230L118,202L148,173L143,205L217,216L204,190L224,152L196,113L225,91Z" fill="none" stroke="black" stroke-width="2" /><path d="M188,11L189,11Z" fill="none" stroke="black" stroke-width="2" /><path d="M218,7L219,8L219,9L222,12L223,12L226,15L226,16L227,17L227,18L229,21L228,20L228,19L227,18L227,17L226,16L226,15L225,14L225,13L224,13L223,12L222,12L221,11L221,10Z" fill="none" stroke="black" stroke-width="2" /><path d="M184,7L184,8Z" fill="none" stroke="black" stroke-width="2" /><path d="M174,7L174,8L175,8L177,10L178,10L179,11L185,11L180,11L179,10L178,10L177,9L176,9Z" fill="none" stroke="black" stroke-width="2" /><path d="M225,6L225,7Z" fill="none" stroke="black" stroke-width="2" /><path d="M217,3L218,2L220,2L221,3L222,3L221,3L220,2L218,2Z" fill="none" stroke="black" stroke-width="2" /><path d="M172,2L172,5L172,4L174,2L176,2L177,3L179,3L181,5L182,5L181,4L180,4L179,3L178,3L177,2Z" fill="none" stroke="black" stroke-width="2" /></svg>