<svg baseProfile="tiny" height="546px" version="1.2" width="725px" xmlns="http://www.w3.org/2000/svg" xmlns:ev="http://www.w3.org/2001/xml-events" xmlns:xlink="http://www.w3.org/1999/xlink"><defs /><path d="M347,416L347,417L346,418L346,420L345,421L345,422L344,423L345,423L345,422L346,421L346,420L347,419Z" fill="none" stroke="black" stroke-width="5" /><path d="M281,413L274,429L229,416L255,431L228,454L259,429L275,434L264,462L235,486L268,458Z" fill="none" stroke="black" stroke-width="5" /><path d="M131,348L131,352L130,353L131,352Z" fill="none" stroke="black" stroke-width="5" /><path d="M139,332L136,336L136,337L132,344L132,346L132,345L133,344L133,342Z" fill="none" stroke="black" stroke-width="5" /><path d="M27,151L139,508L215,336L567,351L247,523L704,292L560,87L459,158L636,98L684,298L86,403L166,246L479,283L368,269L458,160L180,230L220,43L84,329Z" fill="none" stroke="black" stroke-width="5" /><path d="M210,57L159,120L149,10L120,73L109,48L100,155L75,78L65,172L74,92L102,156L109,69L145,23L157,126Z" fill="none" stroke="black" stroke-width="5" /></svg>