<svg baseProfile="tiny" height="700px" version="1.2" width="625px" xmlns="http://www.w3.org/2000/svg" xmlns:ev="http://www.w3.org/2001/xml-events" xmlns:xlink="http://www.w3.org/1999/xlink"><defs /><path d="M190,466L191,467Z" fill="none" stroke="black" stroke-width="5" /><path d="M187,463L188,464Z" fill="none" stroke="black" stroke-width="5" /><path d="M252,401L239,406L218,426L206,448L200,469L195,471L213,497L211,490L205,484L201,475L205,455L216,431L224,421L242,405Z" fill="none" stroke="black" stroke-width="5" /><path d="M361,387L361,388Z" fill="none" stroke="black" stroke-width="5" /><path d="M428,312L426,312L425,311L424,311L425,311L426,312L427,312L430,314L430,318L428,320L427,320L425,322L424,322L423,323L420,323L419,324L417,324L416,325L416,328L417,329L418,329L418,325L419,324L420,324L421,323L423,323L424,322L427,321L431,317L431,315Z" fill="none" stroke="black" stroke-width="5" /><path d="M423,295L423,296L422,297L422,298L420,300L420,301L419,302L419,304L418,305L418,306L417,307L417,308L418,309L419,309L418,308L418,305L419,304L419,303L421,301L421,300L422,299L422,297L423,296Z" fill="none" stroke="black" stroke-width="5" /><path d="M422,288L423,289L424,289L425,290L425,291L425,288Z" fill="none" stroke="black" stroke-width="5" /><path d="M409,226L400,235L400,236L395,241L405,231L405,230Z" fill="none" stroke="black" stroke-width="5" /><path d="M366,197L377,284L372,287L360,280L356,261L358,279L352,280L346,275L345,261L348,255L353,255L351,253L345,259L342,273L321,271L396,298L398,304L392,311L401,300L398,296L401,292L420,289L391,293L378,287Z" fill="none" stroke="black" stroke-width="5" /><path d="M91,116L90,117L89,117L84,122L85,122L86,121L87,121L91,117Z" fill="none" stroke="black" stroke-width="5" /><path d="M229,86L214,95L198,100L123,103L190,102L214,96Z" fill="none" stroke="black" stroke-width="5" /><path d="M327,121L320,110L307,97L297,76L291,71L282,70L271,75L258,99L237,117L220,137L250,153L278,160L289,159L309,150L324,131Z" fill="none" stroke="black" stroke-width="5" /><path d="M56,73L46,175L147,161L64,287L145,372L96,468L227,583L341,556L359,645L407,654L415,539L585,493L552,383L485,440L576,497L362,515L226,580L92,457L138,418L184,459L146,375L174,420L272,360L371,364L373,412L387,364L483,439L396,375L469,346L463,405L473,346L425,343L474,286L390,247L471,287L407,363L282,355L310,271L241,302L269,256L135,325L110,291L182,297L264,185L50,160L53,77L168,69Z" fill="none" stroke="black" stroke-width="5" /><path d="M174,53L169,58L168,58L164,62L167,59L168,59Z" fill="none" stroke="black" stroke-width="5" /><path d="M179,49L217,36L243,52L197,61L260,55L232,84L281,51L314,58L347,101L365,195L369,165L428,195L413,221L430,201L418,186L364,161L344,92L315,57L299,50L253,53L213,35Z" fill="none" stroke="black" stroke-width="5" /></svg>