<svg baseProfile="tiny" height="800px" version="1.2" width="666px" xmlns="http://www.w3.org/2000/svg" xmlns:ev="http://www.w3.org/2001/xml-events" xmlns:xlink="http://www.w3.org/1999/xlink"><defs /><path d="M136,746L135,746L135,747L130,752L129,755L127,757L129,760L130,760L129,758L130,756L130,754L133,751L133,750L135,749Z" fill="none" stroke="black" stroke-width="5" /><path d="M146,736L144,736L143,737L143,738L139,742L139,743L140,743L142,741L142,740L143,739L144,739L146,737Z" fill="none" stroke="black" stroke-width="5" /><path d="M587,727L586,728Z" fill="none" stroke="black" stroke-width="5" /><path d="M341,624L323,660L326,675L337,681L376,682L385,678L387,674L374,656Z" fill="none" stroke="black" stroke-width="5" /><path d="M191,585L190,585L185,590L185,591L186,591L187,590L186,589L187,588L189,588L191,586Z" fill="none" stroke="black" stroke-width="5" /><path d="M99,575L96,639L51,653L156,631L146,711L59,664L151,718L149,734L152,655L184,593L160,624L127,633Z" fill="none" stroke="black" stroke-width="5" /><path d="M531,566L555,595L573,631L576,657L567,689L576,664L575,631L564,606Z" fill="none" stroke="black" stroke-width="5" /><path d="M602,503L599,501L596,505L577,504L569,519L565,519L553,511L566,522L571,523L578,506L601,507Z" fill="none" stroke="black" stroke-width="5" /><path d="M448,485L449,486L449,487L450,487Z" fill="none" stroke="black" stroke-width="5" /><path d="M517,410L564,431L595,437L606,450L601,460L610,477L608,486L600,486L601,499L602,489L615,481L604,461L610,451L598,434L567,430Z" fill="none" stroke="black" stroke-width="5" /><path d="M283,280L284,280Z" fill="none" stroke="black" stroke-width="5" /><path d="M139,262L190,257L260,293L282,283L270,264L287,278L322,262L356,304L365,356L368,290L359,301L346,285L368,271L369,288L372,269L268,261L259,290L184,253Z" fill="none" stroke="black" stroke-width="5" /><path d="M135,226L240,407L103,511L221,514L275,716L132,763L579,752L450,718L536,500L451,489L524,591L459,708L248,683L266,406L484,611L325,394L145,352Z" fill="none" stroke="black" stroke-width="5" /><path d="M189,224L188,223L186,223L185,224L181,224L176,227L178,227L179,226L183,226L184,225L188,225Z" fill="none" stroke="black" stroke-width="5" /><path d="M279,210L277,210L272,215L272,218L271,219L270,218L270,219L276,220L277,221L280,221L280,220L278,220L275,217L276,214L279,211Z" fill="none" stroke="black" stroke-width="5" /><path d="M366,243L362,215L345,193L313,193L281,207L304,198L305,221L282,222Z" fill="none" stroke="black" stroke-width="5" /><path d="M248,69L237,195L137,224L294,171L244,191L248,76L288,143L406,27L380,142L438,123L400,184L312,166L398,200L463,388L515,411L471,392L500,292L398,197L447,118L387,120L411,25L280,128Z" fill="none" stroke="black" stroke-width="5" /></svg>