<svg baseProfile="tiny" height="300px" version="1.2" width="300px" xmlns="http://www.w3.org/2000/svg" xmlns:ev="http://www.w3.org/2001/xml-events" xmlns:xlink="http://www.w3.org/1999/xlink"><defs /><path d="M116,216L112,220L110,225L108,227L108,229L106,232L106,237L108,239L115,242L118,242L119,243L125,243L126,241L125,240L125,236L124,235L123,228L119,218Z" fill="none" stroke="black" stroke-width="2" /><path d="M116,2L107,47L90,44L101,81L78,151L48,183L75,195L79,258L59,271L89,282L140,260L79,224L76,200L102,194L88,137L148,209L167,288L205,293L191,266L252,209L236,179L234,216L195,201L217,175L174,135L193,95L163,65L165,29L159,70L101,75L91,44L107,54L116,4L144,45L164,26L147,39Z" fill="none" stroke="black" stroke-width="2" /></svg>