<svg baseProfile="tiny" height="825px" version="1.2" width="487px" xmlns="http://www.w3.org/2000/svg" xmlns:ev="http://www.w3.org/2001/xml-events" xmlns:xlink="http://www.w3.org/1999/xlink"><defs /><path d="M244,192L235,199L234,206L236,211L241,216L246,217L250,215L257,207L252,199Z" fill="none" stroke="black" stroke-width="5" /><path d="M212,169L210,171L210,176L211,177L211,179L213,181L214,181L218,176L218,172L215,169Z" fill="none" stroke="black" stroke-width="5" /><path d="M274,165L271,168L270,170L270,173L273,177L276,177L277,176L277,168L276,166Z" fill="none" stroke="black" stroke-width="5" /><path d="M326,13L279,140L170,21L205,145L62,250L158,484L229,457L109,702L191,800L311,733L281,456L347,483L439,253L270,453L299,269L168,295L189,435L63,276L246,139L422,269L304,150Z" fill="none" stroke="black" stroke-width="5" /></svg>