<svg baseProfile="tiny" height="591px" version="1.2" width="600px" xmlns="http://www.w3.org/2000/svg" xmlns:ev="http://www.w3.org/2001/xml-events" xmlns:xlink="http://www.w3.org/1999/xlink"><defs /><path d="M332,369L407,428L415,457L411,433L426,439L429,433L420,435Z" fill="none" stroke="black" stroke-width="5" /><path d="M87,321L96,369L118,408L99,376Z" fill="none" stroke="black" stroke-width="5" /><path d="M299,314L304,323L308,340L293,352L310,340L307,327L309,325L312,327Z" fill="none" stroke="black" stroke-width="5" /><path d="M87,305L87,310Z" fill="none" stroke="black" stroke-width="5" /><path d="M346,259L349,262Z" fill="none" stroke="black" stroke-width="5" /><path d="M568,253L564,257Z" fill="none" stroke="black" stroke-width="5" /><path d="M573,247L571,249Z" fill="none" stroke="black" stroke-width="5" /><path d="M520,162L468,206L469,160L401,183L355,268L429,427L420,389L516,368L569,309L502,318L560,262L403,366L439,297L581,237L488,260Z" fill="none" stroke="black" stroke-width="5" /><path d="M162,14L38,122L87,290L324,445L119,410L272,502L123,525L380,542L308,466L412,463L209,319L246,217L328,314L281,160L102,117L306,182Z" fill="none" stroke="black" stroke-width="5" /></svg>