<svg baseProfile="tiny" height="531px" version="1.2" width="700px" xmlns="http://www.w3.org/2000/svg" xmlns:ev="http://www.w3.org/2001/xml-events" xmlns:xlink="http://www.w3.org/1999/xlink"><defs /><path d="M680,443L670,467L658,482L673,463Z" fill="none" stroke="black" stroke-width="5" /><path d="M681,439L681,440Z" fill="none" stroke="black" stroke-width="5" /><path d="M685,404L685,406L686,407L686,408L686,406L685,405Z" fill="none" stroke="black" stroke-width="5" /><path d="M123,370L129,376L141,384Z" fill="none" stroke="black" stroke-width="5" /><path d="M120,367L121,368Z" fill="none" stroke="black" stroke-width="5" /><path d="M679,366L682,383L682,380L681,379L681,374L680,373L680,369L679,368Z" fill="none" stroke="black" stroke-width="5" /><path d="M105,344L104,345Z" fill="none" stroke="black" stroke-width="5" /><path d="M617,324L615,326L615,327L615,326Z" fill="none" stroke="black" stroke-width="5" /><path d="M620,320L619,321Z" fill="none" stroke="black" stroke-width="5" /><path d="M15,320L27,345L54,363L81,362L98,351L76,363L51,361L29,346Z" fill="none" stroke="black" stroke-width="5" /><path d="M622,317L621,318Z" fill="none" stroke="black" stroke-width="5" /><path d="M630,306L628,308L628,309L624,314L626,312L626,311Z" fill="none" stroke="black" stroke-width="5" /><path d="M33,237L18,262L14,277Z" fill="none" stroke="black" stroke-width="5" /><path d="M38,230L37,231Z" fill="none" stroke="black" stroke-width="5" /><path d="M76,190L49,215L40,227Z" fill="none" stroke="black" stroke-width="5" /><path d="M83,184L79,188L78,188L79,188Z" fill="none" stroke="black" stroke-width="5" /><path d="M87,181L85,183Z" fill="none" stroke="black" stroke-width="5" /><path d="M95,174L92,177Z" fill="none" stroke="black" stroke-width="5" /><path d="M105,164L102,167Z" fill="none" stroke="black" stroke-width="5" /><path d="M108,161L107,162Z" fill="none" stroke="black" stroke-width="5" /><path d="M656,484L570,450L613,329L551,341L472,229L526,118L470,228L313,210L209,339L115,353L211,340L144,386L237,370L328,450L477,453L531,378L592,487Z" fill="none" stroke="black" stroke-width="5" /><path d="M529,115L528,116Z" fill="none" stroke="black" stroke-width="5" /><path d="M532,112L531,113Z" fill="none" stroke="black" stroke-width="5" /><path d="M524,110L496,146L469,212L495,148Z" fill="none" stroke="black" stroke-width="5" /><path d="M407,100L428,126L440,148L424,119Z" fill="none" stroke="black" stroke-width="5" /><path d="M552,90L535,110L585,94L626,134L631,304L636,165L678,364L626,133L595,91Z" fill="none" stroke="black" stroke-width="5" /><path d="M349,59L380,76L406,98L378,73Z" fill="none" stroke="black" stroke-width="5" /><path d="M441,150L337,63L219,75L125,166L135,274L107,342L135,277L125,168L219,76L370,79L451,209Z" fill="none" stroke="black" stroke-width="5" /><path d="M347,58L314,49L230,58L172,94L110,158L221,63L272,49Z" fill="none" stroke="black" stroke-width="5" /></svg>