<svg baseProfile="tiny" height="300px" version="1.2" width="300px" xmlns="http://www.w3.org/2000/svg" xmlns:ev="http://www.w3.org/2001/xml-events" xmlns:xlink="http://www.w3.org/1999/xlink"><defs /><path d="M213,282L212,283L216,287L216,288L217,289L217,291L218,292L218,295L219,296L220,295L220,294L219,293L219,291L218,290L218,289L217,288L217,287L216,286L216,285Z" fill="none" stroke="black" stroke-width="2" /><path d="M195,160L194,160L193,163L188,168L182,171L171,172L164,169L164,170L169,173L179,173L180,172L183,172L191,168L193,166L195,162Z" fill="none" stroke="black" stroke-width="2" /><path d="M135,146L130,152L129,156L130,161L135,168L145,169L152,162L153,159L152,152L147,146L145,146L147,149L146,153L143,156L139,156L135,151L137,146Z" fill="none" stroke="black" stroke-width="2" /><path d="M199,125L194,133L194,137L197,144L202,148L212,148L216,145L218,141L218,134L216,129L212,125L204,125L207,128L208,133L205,136L200,137L196,132L196,129L199,126L201,126L201,125Z" fill="none" stroke="black" stroke-width="2" /><path d="M277,2L179,55L195,96L188,73L251,48L219,107L234,162L183,199L124,188L117,130L62,96L124,94L127,118L184,94L132,111L120,72L21,64L76,152L112,140L140,260L210,295L153,227L249,178L218,220L225,295L227,239L253,267L276,248L225,226L253,181L225,179L223,109L260,103Z" fill="none" stroke="black" stroke-width="2" /></svg>