<svg baseProfile="tiny" height="700px" version="1.2" width="649px" xmlns="http://www.w3.org/2000/svg" xmlns:ev="http://www.w3.org/2001/xml-events" xmlns:xlink="http://www.w3.org/1999/xlink"><defs /><path d="M208,424L231,432L236,442L252,456L261,448L266,434L276,427L270,431L218,429Z" fill="none" stroke="black" stroke-width="5" /><path d="M453,421L502,433L516,443L511,455L470,466L508,459L517,449L517,441L505,432Z" fill="none" stroke="black" stroke-width="5" /><path d="M139,345L114,368L111,405L127,433L153,442L166,437L180,421L186,383L180,365L166,350Z" fill="none" stroke="black" stroke-width="5" /><path d="M331,316L299,339L294,381L319,415L355,420L388,384L365,411L332,416L303,392L300,356L341,401L369,387L373,358L331,323L368,329L392,360L369,324Z" fill="none" stroke="black" stroke-width="5" /><path d="M220,234L193,262L191,293L208,318L244,324L274,294L257,256L230,255L214,277L236,302L251,284L244,275L248,293L227,299L224,261L267,266L272,294L254,318L211,318L192,292L193,266Z" fill="none" stroke="black" stroke-width="5" /><path d="M305,37L527,280L557,547L249,655L84,467L255,657L558,549L529,281Z" fill="none" stroke="black" stroke-width="5" /><path d="M293,36L191,114L192,181L110,275L95,464L119,458L98,458L86,399L110,278L174,196L214,190L183,154L193,116L226,101L250,139L237,68Z" fill="none" stroke="black" stroke-width="5" /></svg>