<svg baseProfile="tiny" height="790px" version="1.2" width="617px" xmlns="http://www.w3.org/2000/svg" xmlns:ev="http://www.w3.org/2001/xml-events" xmlns:xlink="http://www.w3.org/1999/xlink"><defs /><path d="M302,573L297,571L281,579L272,587L273,592L285,600L292,599L299,587L303,576Z" fill="none" stroke="black" stroke-width="5" /><path d="M266,509L249,521L243,521L242,519L242,522L244,524L250,522Z" fill="none" stroke="black" stroke-width="5" /><path d="M331,445L337,493L315,541L283,511L232,541L225,470L278,482L245,480L242,513L247,482L280,504L279,469L225,466L232,543L281,517L317,543L339,492Z" fill="none" stroke="black" stroke-width="5" /><path d="M394,326L393,326L388,331L389,331L392,328L393,328L394,327Z" fill="none" stroke="black" stroke-width="5" /><path d="M246,263L244,263L237,268L234,268L233,269L228,269L227,270L225,269L219,269L221,270L236,270L242,267Z" fill="none" stroke="black" stroke-width="5" /><path d="M245,185L240,185L235,188L230,205L230,224L232,229L238,233L243,230L245,225L247,195Z" fill="none" stroke="black" stroke-width="5" /><path d="M374,162L304,260L309,365L341,408L386,333L345,405L328,399L361,249L347,239L306,265Z" fill="none" stroke="black" stroke-width="5" /><path d="M266,150L265,149L246,150L238,156L236,156L235,158L236,159L246,153L256,151L266,152Z" fill="none" stroke="black" stroke-width="5" /><path d="M163,46L141,213L238,332L90,459L238,633L139,701L334,626L406,768L396,427L560,254L396,324L558,257L364,424L413,597L258,611L167,509L240,306L147,224Z" fill="none" stroke="black" stroke-width="5" /><path d="M202,76L295,12L294,102L406,93L373,160L410,95L320,94L296,73L293,9Z" fill="none" stroke="black" stroke-width="5" /></svg>