<svg baseProfile="tiny" height="700px" version="1.2" width="533px" xmlns="http://www.w3.org/2000/svg" xmlns:ev="http://www.w3.org/2001/xml-events" xmlns:xlink="http://www.w3.org/1999/xlink"><defs /><path d="M359,577L361,577Z" fill="none" stroke="black" stroke-width="5" /><path d="M357,577L352,577L351,578L343,578L354,578L355,577Z" fill="none" stroke="black" stroke-width="5" /><path d="M386,574L385,574L384,575L377,575L376,576L365,576L364,577L363,577L368,577L369,576L376,576L377,575L385,575Z" fill="none" stroke="black" stroke-width="5" /><path d="M464,289L498,327L515,351L512,359L494,380L512,359L516,349L512,342L487,313Z" fill="none" stroke="black" stroke-width="5" /><path d="M426,249L446,269Z" fill="none" stroke="black" stroke-width="5" /><path d="M398,223L402,227L403,227L411,235L399,223Z" fill="none" stroke="black" stroke-width="5" /><path d="M381,206L388,213Z" fill="none" stroke="black" stroke-width="5" /><path d="M349,145L330,194L341,195L401,282L488,386L492,382L486,383L407,288L338,189L345,176L379,204L344,172Z" fill="none" stroke="black" stroke-width="5" /><path d="M300,125L302,125Z" fill="none" stroke="black" stroke-width="5" /><path d="M195,99L196,99Z" fill="none" stroke="black" stroke-width="5" /><path d="M221,101L224,106L235,114L248,120L272,125L291,125L287,120L287,104L290,101L294,101L309,115L310,120L305,124L313,121L309,114L298,103L275,92L248,91Z" fill="none" stroke="black" stroke-width="5" /><path d="M320,62L329,72L342,95L343,102L346,107L349,126L348,114L341,91L332,76Z" fill="none" stroke="black" stroke-width="5" /><path d="M209,38L91,147L138,144L194,226L101,441L163,284L201,372L192,515L120,513L118,488L99,513L100,450L95,571L164,590L51,644L261,585L251,619L395,663L291,596L387,567L379,441L385,499L329,498L359,383L378,437L344,314L377,397L393,380L300,226L326,199L259,234L181,212L144,150L200,146L199,100L193,150L95,144L127,102L193,98L151,90L203,41L315,58Z" fill="none" stroke="black" stroke-width="5" /></svg>