<svg baseProfile="tiny" height="700px" version="1.2" width="533px" xmlns="http://www.w3.org/2000/svg" xmlns:ev="http://www.w3.org/2001/xml-events" xmlns:xlink="http://www.w3.org/1999/xlink"><defs /><path d="M359,577L361,577Z" fill="none" stroke="black" stroke-width="5" /><path d="M357,577L352,577L351,578L343,578L354,578L355,577Z" fill="none" stroke="black" stroke-width="5" /><path d="M386,574L384,575L365,576L363,577L376,576L377,575L385,575Z" fill="none" stroke="black" stroke-width="5" /><path d="M464,289L515,351L494,380L516,349Z" fill="none" stroke="black" stroke-width="5" /><path d="M426,249L446,269Z" fill="none" stroke="black" stroke-width="5" /><path d="M398,223L411,235L399,223Z" fill="none" stroke="black" stroke-width="5" /><path d="M381,206L388,213Z" fill="none" stroke="black" stroke-width="5" /><path d="M349,145L330,194L488,386L338,189L345,176L379,204L344,172Z" fill="none" stroke="black" stroke-width="5" /><path d="M300,125L302,125Z" fill="none" stroke="black" stroke-width="5" /><path d="M195,99L196,99Z" fill="none" stroke="black" stroke-width="5" /><path d="M221,101L235,114L272,125L291,125L287,104L294,101L309,115L305,124L313,121L298,103L275,92L248,91Z" fill="none" stroke="black" stroke-width="5" /><path d="M320,62L342,95L349,126L341,91Z" fill="none" stroke="black" stroke-width="5" /><path d="M209,38L91,147L194,226L101,441L163,284L192,515L100,450L164,590L51,644L261,585L395,663L291,596L387,567L326,199L181,212L199,100L95,144L315,58Z" fill="none" stroke="black" stroke-width="5" /></svg>