<svg baseProfile="tiny" height="650px" version="1.2" width="700px" xmlns="http://www.w3.org/2000/svg" xmlns:ev="http://www.w3.org/2001/xml-events" xmlns:xlink="http://www.w3.org/1999/xlink"><defs /><path d="M85,418L105,442L143,457L156,486L147,433L143,449L134,452L110,444Z" fill="none" stroke="black" stroke-width="5" /><path d="M161,396L159,396L158,397L157,397L155,399L155,400L153,402L153,403L154,404L156,404L159,401Z" fill="none" stroke="black" stroke-width="5" /><path d="M214,288L204,294L200,300L199,309L207,322L222,325L234,317L238,306L228,290Z" fill="none" stroke="black" stroke-width="5" /><path d="M639,45L610,235L309,53L45,220L153,424L130,131L276,174L171,421L390,245L246,71L596,202L599,474L263,434L213,582L555,571Z" fill="none" stroke="black" stroke-width="5" /><path d="M637,42L637,43Z" fill="none" stroke="black" stroke-width="5" /><path d="M629,34L597,24L558,44L548,82L561,111L549,85L561,42L595,25Z" fill="none" stroke="black" stroke-width="5" /></svg>