<svg baseProfile="tiny" height="700px" version="1.2" width="562px" xmlns="http://www.w3.org/2000/svg" xmlns:ev="http://www.w3.org/2001/xml-events" xmlns:xlink="http://www.w3.org/1999/xlink"><defs /><path d="M267,426L266,435L252,450L269,435L267,431Z" fill="none" stroke="black" stroke-width="5" /><path d="M265,394L268,406L267,423L268,418L273,416L283,430L297,442L275,419Z" fill="none" stroke="black" stroke-width="5" /><path d="M295,353L296,354Z" fill="none" stroke="black" stroke-width="5" /><path d="M273,348L267,354L264,350L264,391L265,364Z" fill="none" stroke="black" stroke-width="5" /><path d="M262,148L252,154L252,160L255,165L258,167L265,168L271,163L271,155L267,150Z" fill="none" stroke="black" stroke-width="5" /><path d="M165,45L245,223L91,365L215,572L109,604L120,498L104,610L264,581L272,674L535,488L339,532L300,358L244,661L248,455L229,573L141,428L220,275L292,350L360,78L190,231L287,63Z" fill="none" stroke="black" stroke-width="5" /></svg>