<svg baseProfile="tiny" height="640px" version="1.2" width="675px" xmlns="http://www.w3.org/2000/svg" xmlns:ev="http://www.w3.org/2001/xml-events" xmlns:xlink="http://www.w3.org/1999/xlink"><defs /><path d="M372,416L370,417L366,421L364,425L364,436L367,440L367,441L369,443L373,445L385,445L387,444L393,438L393,436L394,435L394,426L392,422L386,416L384,416L383,415L375,415L374,416Z" fill="none" stroke="black" stroke-width="5" /><path d="M206,384L197,392L192,402L192,409L195,422L201,429L210,435L231,434L239,427L244,420L244,416L246,412L246,403L242,393L234,385L229,382L217,381Z" fill="none" stroke="black" stroke-width="5" /><path d="M291,366L283,372L276,384L275,390L276,398L278,403L286,413L297,417L310,416L316,412L324,402L326,395L325,383L321,375L311,366L308,365Z" fill="none" stroke="black" stroke-width="5" /><path d="M346,360L339,366L335,374L335,383L337,389L344,397L348,399L351,399L352,400L362,400L364,399L374,388L375,385L375,373L372,367L363,359L354,358L353,359Z" fill="none" stroke="black" stroke-width="5" /><path d="M222,340L220,339L212,339L210,340L202,348L202,349L199,353L199,358L204,366L206,367L214,367L218,365L220,363L221,363L221,362L225,358L226,356L226,354L227,353L227,347L225,343Z" fill="none" stroke="black" stroke-width="5" /><path d="M272,271L272,272L283,282L284,282L289,286L300,286L304,284L309,280L315,279L319,277L318,276L315,278L306,278L304,276L300,275L299,274L289,273L288,272L275,272L274,271Z" fill="none" stroke="black" stroke-width="5" /><path d="M334,249L333,250L332,250L329,253L329,254L327,257L327,260L326,261L327,262L327,266L329,268L329,269L335,274L336,274L337,275L341,275L342,274L344,274L348,270L348,269L351,265L351,262L352,261L352,259L351,258L350,255L345,250L344,250L343,249Z" fill="none" stroke="black" stroke-width="5" /><path d="M268,237L264,237L263,238L261,238L255,244L255,245L253,248L253,251L252,252L252,255L253,256L253,258L256,261L257,261L258,262L260,262L261,261L263,261L265,259L266,259L269,256L269,255L271,253L271,252L272,251L272,248L273,247L273,242Z" fill="none" stroke="black" stroke-width="5" /><path d="M423,19L339,203L427,229L426,65L375,201L389,39L440,32L476,111L442,379L567,445L500,463L418,406L433,476L179,466L188,307L336,202L271,97L151,90L245,234L165,356L49,389L165,415L228,540L183,597L228,544L267,565L186,598L336,562L215,527L179,472L434,477L338,561L418,606L406,523L518,563L656,525L622,467L570,547L423,504L457,444L570,439L465,387L431,256L476,104Z" fill="none" stroke="black" stroke-width="5" /></svg>