<svg baseProfile="tiny" height="665px" version="1.2" width="675px" xmlns="http://www.w3.org/2000/svg" xmlns:ev="http://www.w3.org/2001/xml-events" xmlns:xlink="http://www.w3.org/1999/xlink"><defs /><path d="M108,451L109,451Z" fill="none" stroke="black" stroke-width="5" /><path d="M240,410L201,411L168,423L112,449L123,446L167,424L195,413L218,410Z" fill="none" stroke="black" stroke-width="5" /><path d="M340,21L207,68L148,185L158,293L240,371L349,358L294,400L135,385L288,405L180,485L41,480L132,387L39,478L177,487L280,417L262,477L298,545L169,578L180,624L330,547L395,599L359,539L503,580L506,606L445,582L483,622L398,600L489,621L505,579L367,543L394,411L527,475L609,391L604,348L383,386L468,187L444,84Z" fill="none" stroke="black" stroke-width="5" /></svg>