<svg baseProfile="tiny" height="587px" version="1.2" width="675px" xmlns="http://www.w3.org/2000/svg" xmlns:ev="http://www.w3.org/2001/xml-events" xmlns:xlink="http://www.w3.org/1999/xlink"><defs /><path d="M254,443L266,461L297,473L330,471L345,463L354,450L353,443L321,453L294,453L267,441Z" fill="none" stroke="black" stroke-width="5" /><path d="M270,404L276,415L303,427L332,423L348,409L346,401L304,407L274,398Z" fill="none" stroke="black" stroke-width="5" /><path d="M344,363L337,360L295,361L289,364L289,369L298,378L327,378L340,372L344,368Z" fill="none" stroke="black" stroke-width="5" /><path d="M182,167L263,191L368,191L411,173L365,190L265,190Z" fill="none" stroke="black" stroke-width="5" /><path d="M381,123L376,127L375,136L380,142L386,143L394,138L395,130L391,124Z" fill="none" stroke="black" stroke-width="5" /><path d="M212,123L206,131L207,138L209,141L214,143L222,142L227,134L225,127L220,123Z" fill="none" stroke="black" stroke-width="5" /><path d="M39,123L35,264L277,332L225,554L440,561L581,330L414,453L484,282L387,336L441,559L209,548L185,92L575,92L619,255L491,275L646,197L359,39Z" fill="none" stroke="black" stroke-width="5" /></svg>