<svg baseProfile="tiny" height="630px" version="1.2" width="675px" xmlns="http://www.w3.org/2000/svg" xmlns:ev="http://www.w3.org/2001/xml-events" xmlns:xlink="http://www.w3.org/1999/xlink"><defs /><path d="M330,351L329,351L327,353L327,354L326,355L325,355L325,356Z" fill="none" stroke="black" stroke-width="5" /><path d="M458,279L461,279Z" fill="none" stroke="black" stroke-width="5" /><path d="M486,222L485,223L485,226L484,227L484,231L485,230L485,227L486,226Z" fill="none" stroke="black" stroke-width="5" /><path d="M430,219L430,222L431,223L431,225L432,226L432,228L433,229L433,231L434,232L434,229L433,228L433,226L432,225L432,222L431,221L431,220Z" fill="none" stroke="black" stroke-width="5" /><path d="M520,204L515,204L508,208L498,219L492,230L490,239L487,246L486,254L488,254L493,251L497,251L503,249L515,240L520,231Z" fill="none" stroke="black" stroke-width="5" /><path d="M453,196L447,201L447,203L446,204L446,212L447,214L449,216L449,217L450,217L451,219L455,222L458,222L459,223L461,223L462,222L465,222L467,221L472,216L473,214L473,211L474,209L473,208L473,203L472,201L470,199L469,199L465,196Z" fill="none" stroke="black" stroke-width="5" /><path d="M385,195L386,222L390,232L399,242L407,248L418,252L431,253L432,250L430,239L425,228L419,219L400,202Z" fill="none" stroke="black" stroke-width="5" /><path d="M69,136L92,136L118,144L151,163L172,182L155,152L133,129L153,151L160,162L158,165L127,147L107,139L89,135Z" fill="none" stroke="black" stroke-width="5" /><path d="M91,74L196,182L206,476L170,211L29,166L175,224L210,536L434,611L478,281L636,275L547,199L642,37L517,157L632,273L530,216L457,286L373,213L258,267L384,154L248,70L292,144L223,34L495,132L636,42L485,126L220,29L343,190L253,271L367,224L332,349L384,253L474,288L429,611L360,395L378,579L316,564L341,509L333,585L213,539L323,357L207,437L196,179Z" fill="none" stroke="black" stroke-width="5" /></svg>