<svg baseProfile="tiny" height="700px" version="1.2" width="587px" xmlns="http://www.w3.org/2000/svg" xmlns:ev="http://www.w3.org/2001/xml-events" xmlns:xlink="http://www.w3.org/1999/xlink"><defs /><path d="M465,534L465,536Z" fill="none" stroke="black" stroke-width="5" /><path d="M469,533L469,534Z" fill="none" stroke="black" stroke-width="5" /><path d="M468,529L468,531Z" fill="none" stroke="black" stroke-width="5" /><path d="M229,529L215,551L209,578L228,554L230,541L212,575L209,571L224,535L228,532L230,536Z" fill="none" stroke="black" stroke-width="5" /><path d="M467,526L467,527Z" fill="none" stroke="black" stroke-width="5" /><path d="M423,504L422,512L432,534L448,553L452,553L454,547L449,533L437,515Z" fill="none" stroke="black" stroke-width="5" /><path d="M177,483L177,489Z" fill="none" stroke="black" stroke-width="5" /><path d="M178,474L178,481Z" fill="none" stroke="black" stroke-width="5" /><path d="M179,462L179,469Z" fill="none" stroke="black" stroke-width="5" /><path d="M76,399L102,692L231,510L309,569L262,653L360,538L509,665L439,495L512,643L453,681L267,489L104,691L176,491L151,588Z" fill="none" stroke="black" stroke-width="5" /><path d="M73,396L76,397L78,395L85,395L86,394L90,394L78,394L77,395Z" fill="none" stroke="black" stroke-width="5" /><path d="M26,383L26,384L27,385L28,385L31,387L32,387L34,385L35,385L36,384L36,383Z" fill="none" stroke="black" stroke-width="5" /><path d="M218,356L219,357L220,360L222,362L222,363L224,365L225,365L223,362L223,360L221,360L219,358L219,357Z" fill="none" stroke="black" stroke-width="5" /><path d="M145,298L118,302L94,315L81,331L73,357L108,358L122,352L140,331Z" fill="none" stroke="black" stroke-width="5" /><path d="M79,233L65,234L54,242L36,269L32,301L39,318L58,315L81,291L90,253L86,238Z" fill="none" stroke="black" stroke-width="5" /><path d="M98,16L22,389L36,145L149,247L229,149L272,213L164,271L466,524L411,404L576,157L391,389L274,385L194,259L364,87L83,212Z" fill="none" stroke="black" stroke-width="5" /></svg>