<svg baseProfile="tiny" height="585px" version="1.2" width="700px" xmlns="http://www.w3.org/2000/svg" xmlns:ev="http://www.w3.org/2001/xml-events" xmlns:xlink="http://www.w3.org/1999/xlink"><defs /><path d="M355,132L346,169L354,136L364,138L358,173L367,186L383,186L393,170L379,187L362,180L358,161L367,141L376,149L368,163L370,174L381,169L384,155L404,170L397,188L376,202L356,193L347,172L358,197L368,202L382,201L400,185L404,167Z" fill="none" stroke="black" stroke-width="5" /><path d="M329,0L299,125L189,121L317,183L256,257L351,237L320,304L174,219L0,274L103,302L59,365L207,352L234,501L141,553L259,461L225,566L281,474L421,583L379,375L556,468L581,384L663,437L609,360L692,411L657,347L407,340L547,304L693,407L556,350L588,461L511,364L543,468L374,356L338,486L250,458L294,329L110,381L147,317L42,351L119,295L7,311L127,220L328,298L352,223L257,254L352,216L345,97L345,205L189,124L305,126L335,2L414,132L560,80L440,142L533,165L432,175L440,287L374,246L403,339L373,250L442,287L563,79Z" fill="none" stroke="black" stroke-width="5" /></svg>