<svg baseProfile="tiny" height="725px" version="1.2" width="596px" xmlns="http://www.w3.org/2000/svg" xmlns:ev="http://www.w3.org/2001/xml-events" xmlns:xlink="http://www.w3.org/1999/xlink"><defs /><path d="M43,562L55,584L75,609Z" fill="none" stroke="black" stroke-width="5" /><path d="M38,542L42,560L39,544L47,539L119,561L46,538Z" fill="none" stroke="black" stroke-width="5" /><path d="M487,262L485,264L485,265L482,268L487,263Z" fill="none" stroke="black" stroke-width="5" /><path d="M491,259L490,259L489,260L489,261Z" fill="none" stroke="black" stroke-width="5" /><path d="M205,233L210,341L134,398L164,546L121,561L118,646L77,611L111,684L331,668L434,703L404,518L439,512L425,559L448,480L429,507L374,425L469,463L408,373L480,271L416,313L358,252L223,271Z" fill="none" stroke="black" stroke-width="5" /><path d="M174,161L175,175L180,190L203,230L181,188Z" fill="none" stroke="black" stroke-width="5" /><path d="M385,118L385,119L386,120L386,128L387,127L387,126L388,125L388,120L386,118Z" fill="none" stroke="black" stroke-width="5" /><path d="M523,198L442,221L427,168L470,117L431,112L473,125L426,164L390,142L430,179L434,229L339,176L247,186L260,155L233,184L174,127L242,190L340,178L422,231L518,187L492,257Z" fill="none" stroke="black" stroke-width="5" /><path d="M323,111L322,112L322,116L323,116Z" fill="none" stroke="black" stroke-width="5" /><path d="M343,97L333,110L335,131L331,135L347,145L376,143L356,143L358,138L373,130L380,117L375,104L364,95Z" fill="none" stroke="black" stroke-width="5" /><path d="M360,37L335,66L303,31L291,73L244,65L272,121L262,153L316,127L277,140L246,66L290,75L293,88L300,33L342,75L338,66Z" fill="none" stroke="black" stroke-width="5" /><path d="M372,21L362,35L372,22L380,25L397,81L384,90L432,72L438,75L419,119L428,111L424,102L439,72L400,83L382,25Z" fill="none" stroke="black" stroke-width="5" /></svg>