<svg baseProfile="tiny" height="517px" version="1.2" width="600px" xmlns="http://www.w3.org/2000/svg" xmlns:ev="http://www.w3.org/2001/xml-events" xmlns:xlink="http://www.w3.org/1999/xlink"><defs /><path d="M96,460L96,462L104,470L109,471L111,469L111,467L113,464L113,457L112,456L106,456L105,457L99,458Z" fill="none" stroke="black" stroke-width="5" /><path d="M456,442L455,443L455,445L454,446L454,448L453,449L453,450L452,451L453,450L453,449L454,448L454,447L455,446L455,444L456,443Z" fill="none" stroke="black" stroke-width="5" /><path d="M459,425L459,428L458,429L458,435L457,436L457,438L457,436L458,435L458,431L459,430Z" fill="none" stroke="black" stroke-width="5" /><path d="M371,417L357,420L335,438L335,442L355,461L362,459L368,447L373,422Z" fill="none" stroke="black" stroke-width="5" /><path d="M151,410L156,410L157,409L158,409L154,409L153,410Z" fill="none" stroke="black" stroke-width="5" /><path d="M443,406L437,407L431,413L431,422L434,426L440,428L443,427L445,423L445,411Z" fill="none" stroke="black" stroke-width="5" /><path d="M197,398L160,408L169,407Z" fill="none" stroke="black" stroke-width="5" /><path d="M333,395L305,406L305,393L277,419L221,434L164,430L111,410L185,435L247,431L298,410L295,442L300,408L319,420Z" fill="none" stroke="black" stroke-width="5" /><path d="M130,388L132,390Z" fill="none" stroke="black" stroke-width="5" /><path d="M167,386L166,386L165,387L164,387L159,392L162,389L163,389L166,386Z" fill="none" stroke="black" stroke-width="5" /><path d="M431,385L431,392L430,393L430,397L428,401L428,404L428,402L429,401L429,399L431,395Z" fill="none" stroke="black" stroke-width="5" /><path d="M311,365L303,379L293,385L231,388L199,397L233,390L246,405L259,388L298,384Z" fill="none" stroke="black" stroke-width="5" /><path d="M59,360L59,364L62,370L67,376L61,368L59,364Z" fill="none" stroke="black" stroke-width="5" /><path d="M454,483L451,453L365,478L427,407L364,470L377,355L347,492L287,490L295,444L291,476L154,451L62,494L80,393L144,410L71,381L58,493L20,496Z" fill="none" stroke="black" stroke-width="5" /><path d="M369,345L372,348L372,349L375,352L372,349L372,348Z" fill="none" stroke="black" stroke-width="5" /><path d="M68,345L66,347L65,350L61,355L60,358L61,355L66,349L66,348Z" fill="none" stroke="black" stroke-width="5" /><path d="M367,342L368,343Z" fill="none" stroke="black" stroke-width="5" /><path d="M407,333L408,334Z" fill="none" stroke="black" stroke-width="5" /><path d="M401,330L399,332L399,336L402,342L405,345L408,346L410,343L410,337L409,343L406,345L404,344L400,336L400,333L402,331L404,331Z" fill="none" stroke="black" stroke-width="5" /><path d="M200,309L185,308L181,309L177,313L177,323L182,344L185,344L190,339L203,315L203,312Z" fill="none" stroke="black" stroke-width="5" /><path d="M86,298L79,315L77,333L91,340L116,346L116,341Z" fill="none" stroke="black" stroke-width="5" /><path d="M303,295L283,304L257,327L270,320L272,352L242,348L256,329L240,349L295,353L297,299Z" fill="none" stroke="black" stroke-width="5" /><path d="M281,284L250,295L240,302L231,335L241,301Z" fill="none" stroke="black" stroke-width="5" /><path d="M104,277L111,291L116,308L110,288Z" fill="none" stroke="black" stroke-width="5" /><path d="M177,256L159,255L146,257L139,261L144,279L153,297L178,266L180,259Z" fill="none" stroke="black" stroke-width="5" /><path d="M330,229L322,232L298,252L299,258L321,283L324,283L326,279Z" fill="none" stroke="black" stroke-width="5" /><path d="M576,183L551,182L566,172L546,159L506,171L501,169L505,164L496,174L547,160L564,171L535,187Z" fill="none" stroke="black" stroke-width="5" /><path d="M91,117L69,342L103,212L328,213L460,423L581,229L446,333L529,217L343,264L517,151L351,18L344,180L272,43L241,175L145,106L364,210L150,226Z" fill="none" stroke="black" stroke-width="5" /></svg>