<svg baseProfile="tiny" height="505px" version="1.2" width="600px" xmlns="http://www.w3.org/2000/svg" xmlns:ev="http://www.w3.org/2001/xml-events" xmlns:xlink="http://www.w3.org/1999/xlink"><defs /><path d="M259,301L256,304L255,318L253,320L239,312L236,312L233,315L233,318L230,320L221,312L214,308L226,317L228,321L231,323L233,321L233,316L236,313L240,313L255,322L256,321L256,310Z" fill="none" stroke="black" stroke-width="5" /><path d="M39,227L38,228Z" fill="none" stroke="black" stroke-width="5" /><path d="M34,233L112,180L126,177L144,236L174,262L148,264L124,255L108,264L105,285L120,275L125,279L109,301L108,320L132,305L154,316L180,306L202,360L185,310L173,301L174,258L144,235L135,188L125,173Z" fill="none" stroke="black" stroke-width="5" /><path d="M117,133L65,132L69,127L37,138L59,132L110,131L115,134L113,138L89,149L77,160L107,151L121,153L73,192L41,225L123,152L83,155Z" fill="none" stroke="black" stroke-width="5" /><path d="M136,124L137,162L147,186L151,182L157,185L160,207L159,185L173,182L185,209L202,227L196,237L161,237L147,214L146,188L148,221L163,238L197,238L209,210L209,170L203,152L173,119Z" fill="none" stroke="black" stroke-width="5" /><path d="M161,96L160,97L159,97L157,99L157,100L156,101L158,99L159,99L161,97Z" fill="none" stroke="black" stroke-width="5" /><path d="M127,38L120,118L71,126L153,80L243,130L404,111L274,126L348,140L282,147L390,215L272,162L313,209L275,314L374,320L386,408L175,443L216,404L151,423L175,384L287,414L205,345L223,375L147,422L326,424L298,475L388,458L417,488L574,282L542,95L471,33L553,194L494,315L494,249L416,132L427,27Z" fill="none" stroke="black" stroke-width="5" /></svg>