<svg baseProfile="tiny" height="750px" version="1.2" width="601px" xmlns="http://www.w3.org/2000/svg" xmlns:ev="http://www.w3.org/2001/xml-events" xmlns:xlink="http://www.w3.org/1999/xlink"><defs /><path d="M420,355L420,358L423,365L426,368L431,368L434,365L433,358L427,353L425,353L424,352Z" fill="none" stroke="black" stroke-width="5" /><path d="M379,338L372,354L371,371L390,388L406,388L410,384L411,365L405,349L396,338Z" fill="none" stroke="black" stroke-width="5" /><path d="M544,191L540,194L539,198L541,216L548,226L560,229L564,227L565,221L563,217L555,214L554,191Z" fill="none" stroke="black" stroke-width="5" /><path d="M136,143L133,145L133,146L132,147L132,148L130,151L130,153L131,152L131,151L132,150L132,149L133,148L133,147L135,145L135,144Z" fill="none" stroke="black" stroke-width="5" /><path d="M82,32L260,726L390,541L330,632L307,351L569,200L449,362L458,663L380,489L454,669L451,359L570,197L325,308L166,35L75,216Z" fill="none" stroke="black" stroke-width="5" /><path d="M160,16L163,19L163,20L164,21L164,22L166,25L166,27L166,22Z" fill="none" stroke="black" stroke-width="5" /><path d="M153,12L138,13L128,28L129,44L143,60L142,79L117,80L120,40L108,21L86,27L103,22L116,32L120,89L133,80L147,85L129,28L137,14Z" fill="none" stroke="black" stroke-width="5" /></svg>