<svg baseProfile="tiny" height="581px" version="1.2" width="700px" xmlns="http://www.w3.org/2000/svg" xmlns:ev="http://www.w3.org/2001/xml-events" xmlns:xlink="http://www.w3.org/1999/xlink"><defs /><path d="M673,297L669,297L666,300L666,301L665,302L665,318L666,319L666,321L668,323L669,323L670,324L673,323L673,322L675,319L675,317L676,316L676,302L675,301L675,300Z" fill="none" stroke="black" stroke-width="5" /><path d="M23,283L22,284L22,287L21,288L21,302L22,303L22,306L24,308L25,307L25,305L26,304L26,287L25,286L25,284L24,283Z" fill="none" stroke="black" stroke-width="5" /><path d="M642,280L643,280L644,281L646,281L647,282L651,282L652,283L656,283L657,284L661,284L659,284L658,283L655,283L654,282L650,282L649,281L645,281L644,280Z" fill="none" stroke="black" stroke-width="5" /><path d="M29,271L26,271L25,272L23,272L22,273L21,273L17,277L17,278L16,279L16,281L15,282L15,284L14,285L14,288L14,286L15,285L15,283L16,282L16,280L17,279L17,278L22,273L23,273L24,272L26,272L27,271Z" fill="none" stroke="black" stroke-width="5" /><path d="M542,267L541,268Z" fill="none" stroke="black" stroke-width="5" /><path d="M66,265L63,265L62,266L56,266L55,267L50,267L49,268L44,268L50,268L51,267L57,267L58,266L63,266L64,265Z" fill="none" stroke="black" stroke-width="5" /><path d="M563,264L565,264Z" fill="none" stroke="black" stroke-width="5" /><path d="M71,264L73,264Z" fill="none" stroke="black" stroke-width="5" /><path d="M547,262L547,263L548,262L550,262L551,263L560,263L557,263L556,262L553,262L552,261L549,261L548,262Z" fill="none" stroke="black" stroke-width="5" /><path d="M105,259L100,259L99,260L94,260L93,261L88,261L87,262L82,262L81,263L78,263L81,263L82,262L88,262L89,261L96,261L97,260L101,260L102,259Z" fill="none" stroke="black" stroke-width="5" /><path d="M497,221L497,222L498,222L505,226L507,226L512,229L514,229L517,231L519,231L520,232L523,232L524,233L532,233L529,231L525,231L524,230L521,230L520,229L515,228L512,226L510,226L509,225L508,225L503,222L501,222L498,220Z" fill="none" stroke="black" stroke-width="5" /><path d="M191,159L184,163L174,173L174,190L175,191L175,196L178,199L187,203L190,203L189,201L182,199L178,195L178,193L177,192L177,184L176,183L176,175L177,174L177,172L182,167L189,162Z" fill="none" stroke="black" stroke-width="5" /><path d="M410,155L407,158L406,158L406,159L396,169L393,174L389,178L389,179L386,182L384,186L376,197L377,198L380,195L384,188L387,185L391,178L398,170L398,169L410,157Z" fill="none" stroke="black" stroke-width="5" /><path d="M423,151L428,154L438,155L477,165L483,172L491,207L493,209L493,203L487,178L483,168L479,164L472,161L466,161L441,154Z" fill="none" stroke="black" stroke-width="5" /><path d="M207,212L232,157L254,150L279,151L304,197L313,207L368,208L314,205L278,150L255,147L231,155Z" fill="none" stroke="black" stroke-width="5" /><path d="M500,93L487,85L460,88L452,91L445,97L440,106L440,110L458,122L474,129L473,126L465,119L443,109L443,105L447,98L451,94L465,89L483,89L497,94Z" fill="none" stroke="black" stroke-width="5" /><path d="M325,36L122,151L107,258L165,269L157,337L14,306L103,329L66,378L206,511L368,559L637,410L601,349L685,305L544,356L540,270L486,288L430,226L367,280L239,230L176,287L157,233L265,185L318,235L452,193L598,270L574,209L588,267L428,188L309,233L243,185L129,253L123,151L223,91L227,136L227,71L318,90L336,37L404,73L355,107L441,50L507,70L639,279L504,67Z" fill="none" stroke="black" stroke-width="5" /></svg>