<svg baseProfile="tiny" height="636px" version="1.2" width="650px" xmlns="http://www.w3.org/2000/svg" xmlns:ev="http://www.w3.org/2001/xml-events" xmlns:xlink="http://www.w3.org/1999/xlink"><defs /><path d="M190,581L194,585Z" fill="none" stroke="black" stroke-width="5" /><path d="M261,575L261,577Z" fill="none" stroke="black" stroke-width="5" /><path d="M449,376L451,378L455,386L458,389L455,385L452,379Z" fill="none" stroke="black" stroke-width="5" /><path d="M446,372L448,374Z" fill="none" stroke="black" stroke-width="5" /><path d="M120,517L187,578L282,561L203,591L375,589L288,564L419,561L380,603L492,524L403,393L458,394L198,372Z" fill="none" stroke="black" stroke-width="5" /><path d="M178,372L182,372Z" fill="none" stroke="black" stroke-width="5" /><path d="M264,93L265,94Z" fill="none" stroke="black" stroke-width="5" /><path d="M260,89L262,91Z" fill="none" stroke="black" stroke-width="5" /><path d="M36,162L50,218L143,209L131,276L202,332L157,375L201,336L526,369L624,219L273,102L115,208L139,101L212,106L172,94L214,55L258,87L177,33Z" fill="none" stroke="black" stroke-width="5" /></svg>