<svg baseProfile="tiny" height="669px" version="1.2" width="493px" xmlns="http://www.w3.org/2000/svg" xmlns:ev="http://www.w3.org/2001/xml-events" xmlns:xlink="http://www.w3.org/1999/xlink"><defs /><path d="M125,444L128,447Z" fill="none" stroke="black" stroke-width="5" /><path d="M134,246L99,268L81,323L91,384L121,439L87,369L83,316L102,265Z" fill="none" stroke="black" stroke-width="5" /><path d="M334,123L286,144L292,161L259,144L223,160L235,144L187,123L217,166L202,192L244,244L269,243L314,201L302,163L323,159L304,158L320,130L320,150Z" fill="none" stroke="black" stroke-width="5" /><path d="M384,34L291,434L120,373L243,354L201,48L91,98L170,544L45,604L438,610L317,540Z" fill="none" stroke="black" stroke-width="5" /><path d="M176,24L194,41L241,46L261,84L336,26L262,82L241,45Z" fill="none" stroke="black" stroke-width="5" /></svg>