<svg baseProfile="tiny" height="755px" version="1.2" width="597px" xmlns="http://www.w3.org/2000/svg" xmlns:ev="http://www.w3.org/2001/xml-events" xmlns:xlink="http://www.w3.org/1999/xlink"><defs /><path d="M428,297L416,304L480,310L562,355L541,426L394,401L439,407L434,472L473,503L505,501L512,515L508,581L446,663L461,655L503,673L489,712L504,673L462,649L563,526L563,506L509,504L537,475L534,441L563,357L507,319Z" fill="none" stroke="black" stroke-width="5" /><path d="M89,95L81,219L108,285L176,320L114,390L184,538L59,699L166,707L307,622L371,712L480,719L466,684L476,719L428,720L412,688L420,720L340,678L362,660L266,604L298,623L204,691L111,713L120,670L89,712L95,659L61,698L180,545L196,569L207,367L236,416L287,415L427,295L388,208L425,202L321,159L393,191L365,281L278,334L126,297L74,190Z" fill="none" stroke="black" stroke-width="5" /><path d="M97,82L156,110L167,142L117,194L92,106L123,235L174,197L222,262L257,109L288,245L319,219L288,240L260,106L236,147L194,153L186,118L226,93L308,104L483,53L535,118L533,208L518,223L436,196L476,82L508,95L492,77L427,201L524,225L539,190L534,112L482,52L263,87L188,18Z" fill="none" stroke="black" stroke-width="5" /></svg>