<svg baseProfile="tiny" height="556px" version="1.2" width="675px" xmlns="http://www.w3.org/2000/svg" xmlns:ev="http://www.w3.org/2001/xml-events" xmlns:xlink="http://www.w3.org/1999/xlink"><defs /><path d="M361,511L363,511Z" fill="none" stroke="black" stroke-width="5" /><path d="M306,511L310,511Z" fill="none" stroke="black" stroke-width="5" /><path d="M506,510L519,519L521,519L519,512L519,514L516,516L515,515L513,515Z" fill="none" stroke="black" stroke-width="5" /><path d="M366,510L371,510Z" fill="none" stroke="black" stroke-width="5" /><path d="M373,509L376,509Z" fill="none" stroke="black" stroke-width="5" /><path d="M292,509L295,509L296,510L303,510L297,510L296,509Z" fill="none" stroke="black" stroke-width="5" /><path d="M157,509L157,514L158,514L159,513L160,513L161,512L159,512L158,511L158,510Z" fill="none" stroke="black" stroke-width="5" /><path d="M503,508L504,509Z" fill="none" stroke="black" stroke-width="5" /><path d="M379,508L382,508Z" fill="none" stroke="black" stroke-width="5" /><path d="M288,508L290,508Z" fill="none" stroke="black" stroke-width="5" /><path d="M384,507L387,507Z" fill="none" stroke="black" stroke-width="5" /><path d="M500,506L501,507Z" fill="none" stroke="black" stroke-width="5" /><path d="M171,506L170,507L169,507L167,509L166,509L165,510L166,509L167,509L169,507L170,507Z" fill="none" stroke="black" stroke-width="5" /><path d="M398,504L396,504L395,505L392,505L391,506L389,506L391,506L392,505L395,505L396,504Z" fill="none" stroke="black" stroke-width="5" /><path d="M270,504L271,504Z" fill="none" stroke="black" stroke-width="5" /><path d="M174,504L173,505Z" fill="none" stroke="black" stroke-width="5" /><path d="M414,499L412,499L411,500L409,500L408,501L406,501L405,502L400,503L402,503L403,502L405,502L406,501L409,501L410,500L412,500L413,499Z" fill="none" stroke="black" stroke-width="5" /><path d="M513,498L513,499L516,504L516,506L517,507L518,510L518,509L516,506L516,504L515,503Z" fill="none" stroke="black" stroke-width="5" /><path d="M420,497L418,497L417,498L416,498L417,498L418,497Z" fill="none" stroke="black" stroke-width="5" /><path d="M251,496L259,500L261,500L264,502L268,503L264,502L257,498L255,498Z" fill="none" stroke="black" stroke-width="5" /><path d="M190,494L189,495L188,495L186,497L183,498L181,500Z" fill="none" stroke="black" stroke-width="5" /><path d="M429,493L428,493L427,494L426,494L427,494L428,493Z" fill="none" stroke="black" stroke-width="5" /><path d="M477,491L498,505Z" fill="none" stroke="black" stroke-width="5" /><path d="M240,491L241,491L242,492L243,492L244,493L245,493L246,494L247,494L248,495L249,495L248,495L247,494L246,494L245,493L244,493L243,492L242,492L241,491Z" fill="none" stroke="black" stroke-width="5" /><path d="M474,489L475,490Z" fill="none" stroke="black" stroke-width="5" /><path d="M198,489L197,490L196,490L194,492L193,492L192,493L193,492L194,492L196,490L197,490Z" fill="none" stroke="black" stroke-width="5" /><path d="M471,487L472,488Z" fill="none" stroke="black" stroke-width="5" /><path d="M225,484L226,484L227,485L228,485L229,486L230,486L231,487L232,487L233,488L234,488L233,488L232,487L231,487L230,486L229,486L228,485L227,485L226,484Z" fill="none" stroke="black" stroke-width="5" /><path d="M168,479L164,491L138,510L155,499L158,499L160,502Z" fill="none" stroke="black" stroke-width="5" /><path d="M145,474L127,516L136,511L131,513L129,510Z" fill="none" stroke="black" stroke-width="5" /><path d="M528,469L529,470L529,471L530,472L530,473L531,474L531,475L533,478L532,477L532,476L531,475L531,474L530,473L530,472Z" fill="none" stroke="black" stroke-width="5" /><path d="M230,469L200,488L211,481L217,480L221,482L219,477Z" fill="none" stroke="black" stroke-width="5" /><path d="M524,462L525,463L525,464L526,465L525,464L525,463Z" fill="none" stroke="black" stroke-width="5" /><path d="M423,456L453,476L450,482L441,487L456,479L469,486Z" fill="none" stroke="black" stroke-width="5" /><path d="M520,455L521,456L521,457L522,458L521,457L521,456Z" fill="none" stroke="black" stroke-width="5" /><path d="M515,446L516,447Z" fill="none" stroke="black" stroke-width="5" /><path d="M254,443L250,453L242,461L233,467L241,462L251,452Z" fill="none" stroke="black" stroke-width="5" /><path d="M512,430L502,441L506,437L509,437L514,444L510,437L510,433Z" fill="none" stroke="black" stroke-width="5" /><path d="M518,422L517,423Z" fill="none" stroke="black" stroke-width="5" /><path d="M190,420L177,449L151,421L161,438L146,472L164,439L177,453L169,477Z" fill="none" stroke="black" stroke-width="5" /><path d="M521,418L520,419Z" fill="none" stroke="black" stroke-width="5" /><path d="M192,414L192,416L191,417L191,418L191,417L192,416Z" fill="none" stroke="black" stroke-width="5" /><path d="M525,412L523,414L523,415L522,416L523,415L523,414Z" fill="none" stroke="black" stroke-width="5" /><path d="M475,409L512,496L516,491L548,506L534,480L544,503L508,484L495,454L499,445L491,446Z" fill="none" stroke="black" stroke-width="5" /><path d="M97,397L99,397Z" fill="none" stroke="black" stroke-width="5" /><path d="M93,396L94,396Z" fill="none" stroke="black" stroke-width="5" /><path d="M85,395L88,395Z" fill="none" stroke="black" stroke-width="5" /><path d="M80,394L83,394Z" fill="none" stroke="black" stroke-width="5" /><path d="M592,391L548,399Z" fill="none" stroke="black" stroke-width="5" /><path d="M63,391L66,391L67,392L72,392L73,393L78,393L75,393L74,392L68,392L67,391Z" fill="none" stroke="black" stroke-width="5" /><path d="M594,390L597,390Z" fill="none" stroke="black" stroke-width="5" /><path d="M600,389L602,389Z" fill="none" stroke="black" stroke-width="5" /><path d="M54,389L55,389Z" fill="none" stroke="black" stroke-width="5" /><path d="M41,387L44,387Z" fill="none" stroke="black" stroke-width="5" /><path d="M625,385L621,385L620,386L606,388L615,387L616,386L620,386L621,385Z" fill="none" stroke="black" stroke-width="5" /><path d="M627,384L629,384Z" fill="none" stroke="black" stroke-width="5" /><path d="M632,383L633,383Z" fill="none" stroke="black" stroke-width="5" /><path d="M30,383L30,384L31,385L34,385L35,386L39,386L37,386L35,384L35,382L36,381L35,381L32,383Z" fill="none" stroke="black" stroke-width="5" /><path d="M39,379L40,379Z" fill="none" stroke="black" stroke-width="5" /><path d="M648,378L642,376L643,379L640,382L636,382L636,383L637,382L640,382L643,380L647,380Z" fill="none" stroke="black" stroke-width="5" /><path d="M55,373L54,373L53,374L51,374L46,377L44,377L43,378L42,378L43,378L44,377L46,377L49,375L51,375L52,374Z" fill="none" stroke="black" stroke-width="5" /><path d="M59,371L60,371Z" fill="none" stroke="black" stroke-width="5" /><path d="M625,370L640,375Z" fill="none" stroke="black" stroke-width="5" /><path d="M622,369L623,369Z" fill="none" stroke="black" stroke-width="5" /><path d="M79,363L75,364L68,368L64,369L68,368L71,366L73,366Z" fill="none" stroke="black" stroke-width="5" /><path d="M594,359L620,368Z" fill="none" stroke="black" stroke-width="5" /><path d="M93,357L92,357L89,359L87,359L86,360L83,361L84,361L87,359L89,359L90,358Z" fill="none" stroke="black" stroke-width="5" /><path d="M107,351L106,351L101,354L99,354L98,355L95,356L96,356L97,355L99,355L100,354Z" fill="none" stroke="black" stroke-width="5" /><path d="M567,350L572,352L576,352L581,355L591,358L581,355L576,352Z" fill="none" stroke="black" stroke-width="5" /><path d="M562,348L563,348L564,349L565,349L564,349L563,348Z" fill="none" stroke="black" stroke-width="5" /><path d="M115,345L109,350L117,352L135,400L103,398L134,403L150,419L125,377Z" fill="none" stroke="black" stroke-width="5" /><path d="M555,342L545,374L526,410L532,403L546,400L537,401L535,396L552,352L558,346Z" fill="none" stroke="black" stroke-width="5" /><path d="M266,322L187,327Z" fill="none" stroke="black" stroke-width="5" /><path d="M433,260L432,261Z" fill="none" stroke="black" stroke-width="5" /><path d="M437,256L436,257Z" fill="none" stroke="black" stroke-width="5" /><path d="M208,251L206,253L206,257L208,259L213,259L215,256L215,254L214,253L214,252L213,252L212,251Z" fill="none" stroke="black" stroke-width="5" /><path d="M459,249L458,250L457,250L455,252L455,254L457,257L460,258L461,257L462,257L462,255L463,254L463,253L462,252L462,251Z" fill="none" stroke="black" stroke-width="5" /><path d="M456,237L439,254Z" fill="none" stroke="black" stroke-width="5" /><path d="M191,219L178,267L197,293L226,302L261,288L229,301L194,290L179,266L193,225L248,273Z" fill="none" stroke="black" stroke-width="5" /><path d="M479,217L470,224L485,232L491,260L475,289L455,299L424,295L412,282L428,264L406,287L433,301L474,291L491,266Z" fill="none" stroke="black" stroke-width="5" /><path d="M571,173L551,194Z" fill="none" stroke="black" stroke-width="5" /><path d="M582,161L573,170Z" fill="none" stroke="black" stroke-width="5" /><path d="M601,140L584,158Z" fill="none" stroke="black" stroke-width="5" /><path d="M62,134L65,137Z" fill="none" stroke="black" stroke-width="5" /><path d="M607,133L602,138L603,138L603,137Z" fill="none" stroke="black" stroke-width="5" /><path d="M58,129L61,132Z" fill="none" stroke="black" stroke-width="5" /><path d="M54,124L55,125Z" fill="none" stroke="black" stroke-width="5" /><path d="M622,116L613,126L621,118L621,117Z" fill="none" stroke="black" stroke-width="5" /><path d="M46,113L50,119L51,115L56,115L106,132Z" fill="none" stroke="black" stroke-width="5" /><path d="M633,104L588,117L626,105L630,107Z" fill="none" stroke="black" stroke-width="5" /><path d="M187,107L211,128L216,194L213,110L271,193L217,113L228,103L210,105L205,117Z" fill="none" stroke="black" stroke-width="5" /><path d="M182,103L184,105Z" fill="none" stroke="black" stroke-width="5" /><path d="M430,98L432,98L433,99L434,99L435,100L436,100L441,103L439,101L438,101L437,100L435,100L432,98Z" fill="none" stroke="black" stroke-width="5" /><path d="M173,96L176,99Z" fill="none" stroke="black" stroke-width="5" /><path d="M423,95L424,95L425,96L427,96L428,97L426,95Z" fill="none" stroke="black" stroke-width="5" /><path d="M168,92L171,95Z" fill="none" stroke="black" stroke-width="5" /><path d="M116,91L132,137L108,133L144,171L128,206L67,140L124,213L114,340L185,328L113,331L116,244L145,178Z" fill="none" stroke="black" stroke-width="5" /><path d="M493,89L461,113L454,101L443,104L396,194L450,106L451,194L454,116Z" fill="none" stroke="black" stroke-width="5" /><path d="M408,89L409,89L412,91L414,91L417,93L419,93L418,93L417,92L415,92L412,90L410,90L409,89Z" fill="none" stroke="black" stroke-width="5" /><path d="M164,89L166,91Z" fill="none" stroke="black" stroke-width="5" /><path d="M405,88L406,88Z" fill="none" stroke="black" stroke-width="5" /><path d="M498,85L495,88Z" fill="none" stroke="black" stroke-width="5" /><path d="M395,85L397,85L398,86L400,86L401,87L403,87L401,87L400,86L398,86L397,85Z" fill="none" stroke="black" stroke-width="5" /><path d="M159,85L161,87Z" fill="none" stroke="black" stroke-width="5" /><path d="M391,84L393,84Z" fill="none" stroke="black" stroke-width="5" /><path d="M280,83L232,101Z" fill="none" stroke="black" stroke-width="5" /><path d="M503,81L500,84Z" fill="none" stroke="black" stroke-width="5" /><path d="M154,81L156,83Z" fill="none" stroke="black" stroke-width="5" /><path d="M367,80L374,80L379,82L389,83L381,82L380,81L375,81L374,80Z" fill="none" stroke="black" stroke-width="5" /><path d="M299,80L293,80L292,81L287,81L286,82L283,82L289,82L290,81L293,81L294,80Z" fill="none" stroke="black" stroke-width="5" /><path d="M359,79L364,79Z" fill="none" stroke="black" stroke-width="5" /><path d="M301,79L304,79Z" fill="none" stroke="black" stroke-width="5" /><path d="M508,77L505,80Z" fill="none" stroke="black" stroke-width="5" /><path d="M149,77L151,79Z" fill="none" stroke="black" stroke-width="5" /><path d="M144,73L146,75Z" fill="none" stroke="black" stroke-width="5" /><path d="M139,69L142,72Z" fill="none" stroke="black" stroke-width="5" /><path d="M527,62L510,76Z" fill="none" stroke="black" stroke-width="5" /><path d="M530,60L529,61Z" fill="none" stroke="black" stroke-width="5" /><path d="M537,54L534,57L533,57L532,58L533,57L534,57Z" fill="none" stroke="black" stroke-width="5" /><path d="M541,51L539,53Z" fill="none" stroke="black" stroke-width="5" /><path d="M102,51L115,89Z" fill="none" stroke="black" stroke-width="5" /><path d="M115,50L137,68Z" fill="none" stroke="black" stroke-width="5" /><path d="M546,47L544,49Z" fill="none" stroke="black" stroke-width="5" /><path d="M556,39L553,42L552,42L549,45L552,42L553,42Z" fill="none" stroke="black" stroke-width="5" /><path d="M97,37L101,49L100,44L102,42L105,42L113,49L109,45Z" fill="none" stroke="black" stroke-width="5" /><path d="M568,30L522,170L557,329L399,321L340,284L272,321L288,347L556,336L524,168L586,118L537,130Z" fill="none" stroke="black" stroke-width="5" /></svg>