<svg baseProfile="tiny" height="680px" version="1.2" width="603px" xmlns="http://www.w3.org/2000/svg" xmlns:ev="http://www.w3.org/2001/xml-events" xmlns:xlink="http://www.w3.org/1999/xlink"><defs /><path d="M426,512L445,578L478,629L449,585Z" fill="none" stroke="black" stroke-width="5" /><path d="M425,508L425,510Z" fill="none" stroke="black" stroke-width="5" /><path d="M424,500L424,502Z" fill="none" stroke="black" stroke-width="5" /><path d="M201,470L164,533L153,577L168,525Z" fill="none" stroke="black" stroke-width="5" /><path d="M132,440L134,440Z" fill="none" stroke="black" stroke-width="5" /><path d="M127,440L128,440Z" fill="none" stroke="black" stroke-width="5" /><path d="M463,420L469,449L483,467L532,461L512,456L495,420L479,430L473,415L490,455L507,461L500,469L484,467L468,446Z" fill="none" stroke="black" stroke-width="5" /><path d="M84,372L73,378L59,400L53,399L40,387L51,398L60,401L74,378Z" fill="none" stroke="black" stroke-width="5" /><path d="M32,370L33,376L35,380L39,385L35,377L33,375Z" fill="none" stroke="black" stroke-width="5" /><path d="M31,363L31,368Z" fill="none" stroke="black" stroke-width="5" /><path d="M32,342L32,344L31,345L31,351L30,352L30,355L30,352L31,351L31,345L32,344Z" fill="none" stroke="black" stroke-width="5" /><path d="M493,330L487,331L480,338L474,352L472,377L479,386L485,386L491,381L498,366L500,341Z" fill="none" stroke="black" stroke-width="5" /><path d="M149,292L141,302L140,323L150,343L159,347L166,346L172,338L171,309L159,292Z" fill="none" stroke="black" stroke-width="5" /><path d="M135,272L163,279L199,301L197,293L222,295L187,292L157,276Z" fill="none" stroke="black" stroke-width="5" /><path d="M121,272L100,275L76,287L48,314L33,340L48,314L71,292L96,277Z" fill="none" stroke="black" stroke-width="5" /><path d="M305,265L305,266Z" fill="none" stroke="black" stroke-width="5" /><path d="M269,267L263,267L257,264L262,269L263,273L249,293Z" fill="none" stroke="black" stroke-width="5" /><path d="M258,240L253,242L250,246L249,250L250,251L250,254L251,256L251,248L253,244Z" fill="none" stroke="black" stroke-width="5" /><path d="M398,222L395,223L386,230L383,236L383,240L387,231L394,224Z" fill="none" stroke="black" stroke-width="5" /><path d="M319,175L304,197L299,216L314,215L324,205L326,188Z" fill="none" stroke="black" stroke-width="5" /><path d="M357,160L357,169Z" fill="none" stroke="black" stroke-width="5" /><path d="M437,124L426,135L416,149Z" fill="none" stroke="black" stroke-width="5" /><path d="M441,119L440,120L440,121L439,122L441,120Z" fill="none" stroke="black" stroke-width="5" /><path d="M237,119L237,122Z" fill="none" stroke="black" stroke-width="5" /><path d="M233,101L233,106L235,110L236,117L236,113L235,112L235,109L233,105Z" fill="none" stroke="black" stroke-width="5" /><path d="M232,91L232,98Z" fill="none" stroke="black" stroke-width="5" /><path d="M309,22L300,282L86,371L305,291L141,616L380,366L289,501L395,426L505,649L368,325L541,310L543,450L552,62L323,365Z" fill="none" stroke="black" stroke-width="5" /><path d="M304,15L288,37L265,104L237,72L231,74L231,81L234,73L263,108L262,123L277,65Z" fill="none" stroke="black" stroke-width="5" /></svg>