<svg baseProfile="tiny" height="680px" version="1.2" width="603px" xmlns="http://www.w3.org/2000/svg" xmlns:ev="http://www.w3.org/2001/xml-events" xmlns:xlink="http://www.w3.org/1999/xlink"><defs /><path d="M426,512L435,550L445,578L462,610L478,629L466,614L455,592L449,585L435,548Z" fill="none" stroke="black" stroke-width="5" /><path d="M425,508L425,510Z" fill="none" stroke="black" stroke-width="5" /><path d="M424,500L424,502Z" fill="none" stroke="black" stroke-width="5" /><path d="M201,470L185,491L164,533L156,557L153,577L159,549L168,525L181,499Z" fill="none" stroke="black" stroke-width="5" /><path d="M132,440L134,440Z" fill="none" stroke="black" stroke-width="5" /><path d="M127,440L128,440Z" fill="none" stroke="black" stroke-width="5" /><path d="M463,420L469,449L483,467L497,470L503,468L510,459L521,464L532,461L524,464L512,456L508,438L495,420L490,419L488,426L484,430L479,430L473,415L475,426L482,434L490,455L507,461L500,469L484,467L473,456L468,446Z" fill="none" stroke="black" stroke-width="5" /><path d="M84,372L79,373L73,378L63,397L59,400L53,399L40,387L44,392L51,398L56,401L60,401L66,394L74,378L78,374Z" fill="none" stroke="black" stroke-width="5" /><path d="M32,370L32,373L33,374L33,376L34,377L34,378L35,379L35,380L37,382L37,383L39,385L38,384L38,383L37,382L37,381L36,380L36,379L35,378L35,377L33,375L33,373L32,372Z" fill="none" stroke="black" stroke-width="5" /><path d="M31,363L31,368Z" fill="none" stroke="black" stroke-width="5" /><path d="M32,342L32,344L31,345L31,351L30,352L30,355L30,352L31,351L31,345L32,344Z" fill="none" stroke="black" stroke-width="5" /><path d="M493,330L487,331L480,338L474,352L473,360L472,361L472,377L475,383L479,386L485,386L491,381L498,366L499,356L500,355L500,341L497,333Z" fill="none" stroke="black" stroke-width="5" /><path d="M149,292L143,297L140,306L140,323L144,334L150,343L159,347L166,346L172,338L172,313L171,309L166,299L159,292L156,291Z" fill="none" stroke="black" stroke-width="5" /><path d="M135,272L148,274L163,279L186,291L199,301L195,296L197,293L218,293L222,295L220,292L187,292L178,286L157,276Z" fill="none" stroke="black" stroke-width="5" /><path d="M121,272L100,275L76,287L48,314L38,328L33,340L39,327L48,314L71,292L96,277L109,273Z" fill="none" stroke="black" stroke-width="5" /><path d="M305,265L305,266Z" fill="none" stroke="black" stroke-width="5" /><path d="M269,267L263,267L262,266L260,266L258,264L257,264L262,269L262,270L263,271L263,273L262,274L261,277L257,281L256,284L249,293L256,285L256,284L259,281L259,280L262,277L262,276L265,273L265,272L269,268Z" fill="none" stroke="black" stroke-width="5" /><path d="M258,240L257,240L256,241L255,241L254,242L253,242L251,244L251,245L250,246L250,248L249,249L249,250L250,251L250,254L251,255L251,256L251,248L252,247L252,246L253,245L253,244L256,241L257,241Z" fill="none" stroke="black" stroke-width="5" /><path d="M398,222L397,222L396,223L395,223L393,225L392,225L390,227L389,227L386,230L386,231L385,232L385,233L384,234L384,235L383,236L383,240L383,239L384,238L384,237L385,236L385,234L387,232L387,231L394,224L395,224L396,223L397,223Z" fill="none" stroke="black" stroke-width="5" /><path d="M319,175L317,176L317,177L313,181L304,197L304,199L302,202L302,204L300,208L299,216L302,216L304,217L305,216L314,215L317,213L324,205L324,203L326,200L326,188L325,187L323,180Z" fill="none" stroke="black" stroke-width="5" /><path d="M357,160L357,169Z" fill="none" stroke="black" stroke-width="5" /><path d="M437,124L426,135L426,136L422,140L422,141L420,143L420,144L417,147L417,148L416,149L418,147L418,146L419,145L420,145L421,144L421,143L428,136L428,135L433,130L433,129Z" fill="none" stroke="black" stroke-width="5" /><path d="M441,119L440,120L440,121L439,122L441,120Z" fill="none" stroke="black" stroke-width="5" /><path d="M237,119L237,122Z" fill="none" stroke="black" stroke-width="5" /><path d="M233,101L233,106L234,107L234,109L235,110L235,113L236,114L236,117L236,113L235,112L235,109L234,108L234,106L233,105Z" fill="none" stroke="black" stroke-width="5" /><path d="M232,91L232,98Z" fill="none" stroke="black" stroke-width="5" /><path d="M309,22L310,114L399,70L291,234L238,124L300,282L133,395L86,371L112,439L175,358L154,437L305,291L209,462L215,576L141,616L236,580L261,426L288,499L281,383L295,460L380,366L377,452L289,501L395,426L505,649L368,325L462,416L466,331L541,310L543,450L551,322L445,262L552,62L446,115L402,220L472,324L382,249L323,365L294,258L334,292L415,151L345,209L400,66L332,52L322,106Z" fill="none" stroke="black" stroke-width="5" /><path d="M304,15L296,22L288,37L265,104L261,104L237,72L231,74L231,81L234,73L242,78L253,97L263,108L262,123L277,65L293,28Z" fill="none" stroke="black" stroke-width="5" /></svg>