<svg baseProfile="tiny" height="300px" version="1.2" width="300px" xmlns="http://www.w3.org/2000/svg" xmlns:ev="http://www.w3.org/2001/xml-events" xmlns:xlink="http://www.w3.org/1999/xlink"><defs /><path d="M47,285L46,285L44,287L43,287L40,290L39,290L36,292L35,292L34,291L34,292L36,292L37,291L38,291L39,290L42,289Z" fill="none" stroke="black" stroke-width="2" /><path d="M207,273L208,274L209,274L210,275L209,274L208,274Z" fill="none" stroke="black" stroke-width="2" /><path d="M262,187L262,189Z" fill="none" stroke="black" stroke-width="2" /><path d="M264,183L264,184L267,184L266,184L265,183Z" fill="none" stroke="black" stroke-width="2" /><path d="M182,181L188,189L179,220L179,242L188,261L184,264L203,271L209,258L219,273L204,238L196,187L191,179L195,193Z" fill="none" stroke="black" stroke-width="2" /><path d="M188,175L188,176L189,177L189,176Z" fill="none" stroke="black" stroke-width="2" /><path d="M88,150L88,151Z" fill="none" stroke="black" stroke-width="2" /><path d="M252,136L247,136L243,140L241,144L239,155L240,156L240,160L242,163L248,163L252,158L254,152L254,139Z" fill="none" stroke="black" stroke-width="2" /><path d="M113,136L114,136Z" fill="none" stroke="black" stroke-width="2" /><path d="M116,134L117,134Z" fill="none" stroke="black" stroke-width="2" /><path d="M118,124L119,124Z" fill="none" stroke="black" stroke-width="2" /><path d="M173,120L174,120Z" fill="none" stroke="black" stroke-width="2" /><path d="M194,117L196,119L197,119L195,117Z" fill="none" stroke="black" stroke-width="2" /><path d="M185,103L176,118L213,142L238,199L266,203L242,187L256,175L273,184L274,201L290,191L296,158L280,135L234,135L267,129L292,150L294,181L275,201L269,180L245,184L225,169L214,143L232,137L207,127L212,140L201,122L181,119Z" fill="none" stroke="black" stroke-width="2" /><path d="M33,87L31,89L33,89L34,90L34,94L34,87Z" fill="none" stroke="black" stroke-width="2" /><path d="M156,85L157,85L158,86L159,86L160,87L166,87L160,87L159,86L158,86L157,85L157,84Z" fill="none" stroke="black" stroke-width="2" /><path d="M141,79L142,80L142,79Z" fill="none" stroke="black" stroke-width="2" /><path d="M170,75L169,75L168,76L167,76L166,77L165,77L163,79L162,79L161,80L166,80L166,77L167,76L168,76L170,78Z" fill="none" stroke="black" stroke-width="2" /><path d="M175,74L172,74L174,76L174,80L173,81L173,82L170,85L171,85L172,84L172,83L174,80L174,75Z" fill="none" stroke="black" stroke-width="2" /><path d="M141,66L141,67L142,68L142,74L141,75L141,76L142,77L142,66Z" fill="none" stroke="black" stroke-width="2" /><path d="M142,62L141,63L142,63Z" fill="none" stroke="black" stroke-width="2" /><path d="M216,47L187,68L189,70L183,82L190,67Z" fill="none" stroke="black" stroke-width="2" /><path d="M80,43L78,44L78,46L77,47L77,51L76,52L77,61L79,64L80,64L82,61L82,56L83,55L83,52L82,51L82,46Z" fill="none" stroke="black" stroke-width="2" /><path d="M211,42L217,42L218,43L218,45L218,42Z" fill="none" stroke="black" stroke-width="2" /><path d="M204,30L202,32L202,33L204,31Z" fill="none" stroke="black" stroke-width="2" /><path d="M208,25L208,26Z" fill="none" stroke="black" stroke-width="2" /><path d="M203,24L202,24L195,31L196,31Z" fill="none" stroke="black" stroke-width="2" /><path d="M209,19L212,19L212,18L210,18Z" fill="none" stroke="black" stroke-width="2" /><path d="M201,11L147,8L141,90L60,11L9,35L11,85L66,97L28,135L75,112L6,73L42,9L128,135L84,125L33,288L108,179L169,228L174,141L125,119L186,99L138,81L146,11L201,13L176,51Z" fill="none" stroke="black" stroke-width="2" /></svg>