<svg baseProfile="tiny" height="300px" version="1.2" width="300px" xmlns="http://www.w3.org/2000/svg" xmlns:ev="http://www.w3.org/2001/xml-events" xmlns:xlink="http://www.w3.org/1999/xlink"><defs /><path d="M111,28L110,28L109,29L109,30L108,31L108,34L107,35L107,45L108,46L110,44L110,42L111,41L111,35L112,34L112,29Z" fill="none" stroke="black" stroke-width="2" /><path d="M137,26L136,26L135,27L135,28L134,29L134,32L133,33L133,43L134,44L135,44L137,42L137,37L138,36L138,27Z" fill="none" stroke="black" stroke-width="2" /><path d="M111,10L89,45L106,80L147,67L96,70L112,12L178,27L181,141L144,146L139,77L142,147L173,150L188,125L201,180L176,193L134,171L142,122L94,125L56,185L8,198L83,244L36,290L217,252L281,275L288,253L239,230L288,193L251,181L229,129L186,118L179,23Z" fill="none" stroke="black" stroke-width="2" /></svg>