<svg baseProfile="tiny" height="675px" version="1.2" width="640px" xmlns="http://www.w3.org/2000/svg" xmlns:ev="http://www.w3.org/2001/xml-events" xmlns:xlink="http://www.w3.org/1999/xlink"><defs /><path d="M339,575L342,582L350,586L340,579L340,573L347,567L358,565L366,568L373,575L372,580L366,586L375,581L373,573L368,568L357,564L344,568Z" fill="none" stroke="black" stroke-width="5" /><path d="M226,552L227,565L222,572L218,574L202,574L198,577L208,579L222,576L230,566L229,558Z" fill="none" stroke="black" stroke-width="5" /><path d="M421,567L428,581L443,588L423,574L422,565L441,551L469,550L481,560L484,573L465,587L480,582L486,574L483,559L463,549L441,550L429,556Z" fill="none" stroke="black" stroke-width="5" /><path d="M373,544L373,547L375,549L375,544L378,540L383,539L387,542L387,547L386,549L387,549L390,545L390,542L388,540L385,539L379,539Z" fill="none" stroke="black" stroke-width="5" /><path d="M202,537L204,537L205,538L206,538L207,539L208,539L209,540L210,540L211,541L212,541L213,542L216,543L215,543L213,541L212,541L211,540L210,540L207,538L205,538L204,537Z" fill="none" stroke="black" stroke-width="5" /><path d="M196,536L177,536L165,541L157,553L159,562L176,573L176,571L168,568L160,561L160,548L172,538Z" fill="none" stroke="black" stroke-width="5" /><path d="M276,515L285,517L291,522L293,529L290,533L288,533L286,535L287,536L292,535L296,531L295,526L286,517L281,515Z" fill="none" stroke="black" stroke-width="5" /><path d="M271,515L264,516L261,518L258,522L258,525L267,534L268,534L259,526L259,521L264,517Z" fill="none" stroke="black" stroke-width="5" /><path d="M365,203L350,225L350,257L360,285L403,329L421,335L439,332L447,316L447,292L429,240L395,204Z" fill="none" stroke="black" stroke-width="5" /><path d="M579,92L468,46L471,218L346,48L230,66L299,189L239,68L358,63L461,275L473,53L574,114L547,482L432,414L401,502L390,395L529,601L48,558L319,415L262,183L317,413L47,560L529,602Z" fill="none" stroke="black" stroke-width="5" /></svg>