<svg baseProfile="tiny" height="300px" version="1.2" width="300px" xmlns="http://www.w3.org/2000/svg" xmlns:ev="http://www.w3.org/2001/xml-events" xmlns:xlink="http://www.w3.org/1999/xlink"><defs /><path d="M145,260L145,265L146,266L149,266L150,267L154,267L155,268L158,268L159,267L160,267L162,265L162,261L161,260L161,259L160,258L159,258L158,257L156,257L155,256L149,256L148,257L147,257Z" fill="none" stroke="black" stroke-width="2" /><path d="M173,254L173,259L175,263L178,265L183,265L184,266L199,265L204,263L209,257L208,249L204,245L200,243L187,243L179,246L174,251Z" fill="none" stroke="black" stroke-width="2" /><path d="M64,252L65,256L73,261L67,256L67,249L75,243L87,242L96,246L97,251L92,256L81,259L80,261L95,261L102,255L100,247L88,240L73,241L66,247Z" fill="none" stroke="black" stroke-width="2" /><path d="M112,234L112,239L113,240L114,240L115,239L120,239L122,237L122,234L120,232L115,232L114,233L113,233Z" fill="none" stroke="black" stroke-width="2" /><path d="M204,75L183,75L172,80L167,85L159,98L156,108L156,117L160,123L169,123L181,118L200,101L208,85L208,80Z" fill="none" stroke="black" stroke-width="2" /><path d="M281,13L221,14L152,75L168,6L130,22L137,48L170,23L147,114L181,47L280,17L193,116L220,110L206,196L246,264L156,291L22,239L181,190L184,142L110,129L132,30L108,125L134,189L19,245L150,297L248,271L208,175Z" fill="none" stroke="black" stroke-width="2" /></svg>