<svg baseProfile="tiny" height="608px" version="1.2" width="650px" xmlns="http://www.w3.org/2000/svg" xmlns:ev="http://www.w3.org/2001/xml-events" xmlns:xlink="http://www.w3.org/1999/xlink"><defs /><path d="M490,174L490,175L492,175L491,175Z" fill="none" stroke="black" stroke-width="5" /><path d="M485,172L477,186L472,205L478,185Z" fill="none" stroke="black" stroke-width="5" /><path d="M454,164L451,168L448,168L459,191L459,210L462,202L452,175Z" fill="none" stroke="black" stroke-width="5" /><path d="M488,163L488,164L487,165L487,167L489,167L490,168L490,167L489,166L489,164Z" fill="none" stroke="black" stroke-width="5" /><path d="M504,138L502,158L494,174L499,167L505,150Z" fill="none" stroke="black" stroke-width="5" /><path d="M494,131L494,133L497,133L497,132L496,133Z" fill="none" stroke="black" stroke-width="5" /><path d="M500,129L503,132L503,135L503,131L502,130L502,129Z" fill="none" stroke="black" stroke-width="5" /><path d="M465,129L465,134Z" fill="none" stroke="black" stroke-width="5" /><path d="M517,90L517,94L518,95L520,93L519,94L517,92Z" fill="none" stroke="black" stroke-width="5" /><path d="M512,86L510,100L501,108L495,119L494,128L498,114L511,98Z" fill="none" stroke="black" stroke-width="5" /><path d="M515,77L515,80L514,81L515,82L516,82L516,78Z" fill="none" stroke="black" stroke-width="5" /><path d="M537,35L522,90L525,84L534,78L528,78L528,70L537,45Z" fill="none" stroke="black" stroke-width="5" /><path d="M536,17L318,169L274,86L128,125L83,363L187,397L87,561L597,551L539,72L606,282L344,164L453,162Z" fill="none" stroke="black" stroke-width="5" /></svg>