<svg baseProfile="tiny" height="608px" version="1.2" width="650px" xmlns="http://www.w3.org/2000/svg" xmlns:ev="http://www.w3.org/2001/xml-events" xmlns:xlink="http://www.w3.org/1999/xlink"><defs /><path d="M549,542L549,545L544,550L543,550L540,552L538,552L537,553L530,553L529,554L528,554L532,554L533,555L534,555L535,554L540,554L541,553L542,553L545,550L546,550L547,549L547,548L549,546Z" fill="none" stroke="black" stroke-width="5" /><path d="M506,535L506,536L505,537L505,541L506,542L506,543L507,544L507,545L511,549L509,547L509,546L507,544L507,543L506,542L506,539L505,538L505,537L506,536Z" fill="none" stroke="black" stroke-width="5" /><path d="M540,532L541,532L542,533L541,532Z" fill="none" stroke="black" stroke-width="5" /><path d="M537,531L538,531Z" fill="none" stroke="black" stroke-width="5" /><path d="M512,531L514,531Z" fill="none" stroke="black" stroke-width="5" /><path d="M517,530L523,530L524,529L526,529L527,530L535,530L531,530L530,529L522,529L521,530Z" fill="none" stroke="black" stroke-width="5" /><path d="M227,528L227,532L226,533L226,534L223,537L227,533L227,532L228,531L228,530L227,529Z" fill="none" stroke="black" stroke-width="5" /><path d="M347,526L345,528L344,528L343,529L342,529L341,530L339,530L338,531L337,531L336,532L334,532L339,532L340,531L341,531L344,528L345,528Z" fill="none" stroke="black" stroke-width="5" /><path d="M208,525L207,525L204,528L204,529L203,530L203,533L203,530L204,529L204,528L207,525Z" fill="none" stroke="black" stroke-width="5" /><path d="M223,524L224,524L226,526L224,524Z" fill="none" stroke="black" stroke-width="5" /><path d="M297,518L297,519L298,520L298,522L298,520L297,519Z" fill="none" stroke="black" stroke-width="5" /><path d="M298,515L298,516Z" fill="none" stroke="black" stroke-width="5" /><path d="M356,512L356,516L355,517L355,518L354,519L355,518L355,517L356,516Z" fill="none" stroke="black" stroke-width="5" /><path d="M102,512L112,512Z" fill="none" stroke="black" stroke-width="5" /><path d="M305,507L303,509Z" fill="none" stroke="black" stroke-width="5" /><path d="M342,500L344,500L345,501L346,501L345,501L344,500Z" fill="none" stroke="black" stroke-width="5" /><path d="M473,498L474,499L477,499L474,499Z" fill="none" stroke="black" stroke-width="5" /><path d="M335,498L336,498Z" fill="none" stroke="black" stroke-width="5" /><path d="M317,498L318,498Z" fill="none" stroke="black" stroke-width="5" /><path d="M324,497L331,497Z" fill="none" stroke="black" stroke-width="5" /><path d="M256,479L257,480L257,481L258,481L260,483L262,483L260,483Z" fill="none" stroke="black" stroke-width="5" /><path d="M465,476L464,477L464,478L463,479L463,482L464,483L464,486L465,487L465,489L467,491L467,492L468,493L468,492L467,491L467,490L466,489L466,488L465,487L465,486L464,485L464,478L465,477Z" fill="none" stroke="black" stroke-width="5" /><path d="M295,476L288,483L290,481L291,481L293,479L293,478Z" fill="none" stroke="black" stroke-width="5" /><path d="M483,474L485,476L485,477L486,478L486,479L487,480L487,482L488,483L488,488L487,489L487,490L485,492L488,489L488,488L489,487L489,484L488,483L488,481L487,480L487,479L485,477L485,476Z" fill="none" stroke="black" stroke-width="5" /><path d="M258,472L255,475L255,477L255,476L256,475L256,474Z" fill="none" stroke="black" stroke-width="5" /><path d="M261,470L260,471Z" fill="none" stroke="black" stroke-width="5" /><path d="M481,472L480,471L479,471L478,470L477,470L476,469L475,470L472,470L471,471L470,471L469,472L470,471L471,471L472,470L477,470L478,471L480,471Z" fill="none" stroke="black" stroke-width="5" /><path d="M296,467L296,474L297,473L297,468Z" fill="none" stroke="black" stroke-width="5" /><path d="M355,293L356,293Z" fill="none" stroke="black" stroke-width="5" /><path d="M365,291L380,291Z" fill="none" stroke="black" stroke-width="5" /><path d="M103,291L115,291Z" fill="none" stroke="black" stroke-width="5" /><path d="M405,269L404,270Z" fill="none" stroke="black" stroke-width="5" /><path d="M239,269L233,272L232,290L256,325L259,356L246,375L234,380L211,378L199,368L193,356L199,371L210,379L239,379L252,370L261,354L258,326L232,287L237,270L250,277L265,295L267,337L274,347L267,335L265,293L256,280Z" fill="none" stroke="black" stroke-width="5" /><path d="M558,257L559,258L559,259L560,260L559,259L559,258Z" fill="none" stroke="black" stroke-width="5" /><path d="M462,219L463,220Z" fill="none" stroke="black" stroke-width="5" /><path d="M480,212L476,212L475,213L474,213L470,217L470,218L466,222L472,222L473,221L474,221L476,219L476,218L478,216L478,215L479,214L479,213Z" fill="none" stroke="black" stroke-width="5" /><path d="M494,206L493,207Z" fill="none" stroke="black" stroke-width="5" /><path d="M499,202L498,203Z" fill="none" stroke="black" stroke-width="5" /><path d="M461,200L461,205Z" fill="none" stroke="black" stroke-width="5" /><path d="M504,194L501,200L509,199L517,205L521,224L519,232L522,233L505,254L495,252L488,245L486,212L490,209L483,212L485,213L485,246L492,255L495,254L501,258L517,247L516,243L523,232L519,205L515,199L509,198Z" fill="none" stroke="black" stroke-width="5" /><path d="M477,188L477,189Z" fill="none" stroke="black" stroke-width="5" /><path d="M506,178L507,178L508,177L509,177L507,177Z" fill="none" stroke="black" stroke-width="5" /><path d="M511,176L517,176Z" fill="none" stroke="black" stroke-width="5" /><path d="M453,167L452,168L449,168L449,169L451,171L451,173L452,174L452,176L452,170L453,169Z" fill="none" stroke="black" stroke-width="5" /><path d="M538,165L531,172Z" fill="none" stroke="black" stroke-width="5" /><path d="M488,164L488,166L489,166L488,165Z" fill="none" stroke="black" stroke-width="5" /><path d="M503,153L503,154Z" fill="none" stroke="black" stroke-width="5" /><path d="M459,147L459,148L460,149L461,149L462,148L460,148Z" fill="none" stroke="black" stroke-width="5" /><path d="M504,144L504,151Z" fill="none" stroke="black" stroke-width="5" /><path d="M535,107L535,117Z" fill="none" stroke="black" stroke-width="5" /><path d="M461,103L461,106Z" fill="none" stroke="black" stroke-width="5" /><path d="M536,100L536,103Z" fill="none" stroke="black" stroke-width="5" /><path d="M537,94L537,95Z" fill="none" stroke="black" stroke-width="5" /><path d="M511,94L511,96Z" fill="none" stroke="black" stroke-width="5" /><path d="M463,96L463,95L465,93L467,93L468,94L469,94L470,95L472,95L473,94L469,94L466,91L464,91L464,94L463,95Z" fill="none" stroke="black" stroke-width="5" /><path d="M134,119L71,250L96,380L132,378L84,360L103,303L212,276L195,323L203,268L98,299L81,227L168,100L248,195L273,87L365,201L325,203L338,285L344,232L420,257L276,348L314,315L383,461L510,454L602,538L528,580L93,562L189,394L126,323L188,396L88,561L597,550L539,485L620,356L576,164L611,279L480,295L453,218L359,230L343,163L462,116L319,169L275,87Z" fill="none" stroke="black" stroke-width="5" /><path d="M479,85L479,86Z" fill="none" stroke="black" stroke-width="5" /><path d="M515,79L515,80Z" fill="none" stroke="black" stroke-width="5" /><path d="M527,76L527,81L526,82L528,80L529,80L528,79L528,78L527,77Z" fill="none" stroke="black" stroke-width="5" /><path d="M538,73L538,74L539,75L539,73Z" fill="none" stroke="black" stroke-width="5" /><path d="M528,69L528,70Z" fill="none" stroke="black" stroke-width="5" /><path d="M485,66L483,68L483,69L482,70L482,74L481,75L482,74L482,71L483,70L483,69L484,68L484,67Z" fill="none" stroke="black" stroke-width="5" /><path d="M493,65L493,66L494,67L494,70L496,70L495,70L494,69L494,67L493,66Z" fill="none" stroke="black" stroke-width="5" /><path d="M529,64L529,65Z" fill="none" stroke="black" stroke-width="5" /><path d="M530,61L530,62Z" fill="none" stroke="black" stroke-width="5" /><path d="M491,57L491,58L492,59L492,58Z" fill="none" stroke="black" stroke-width="5" /><path d="M532,55L532,56Z" fill="none" stroke="black" stroke-width="5" /><path d="M500,54L500,55L499,56L499,57L500,58L500,59L501,60L501,62L501,57L500,56Z" fill="none" stroke="black" stroke-width="5" /><path d="M536,45L536,47L535,48L535,49L535,48L536,47Z" fill="none" stroke="black" stroke-width="5" /><path d="M536,17L535,18L535,19L536,19Z" fill="none" stroke="black" stroke-width="5" /></svg>