<svg baseProfile="tiny" height="300px" version="1.2" width="300px" xmlns="http://www.w3.org/2000/svg" xmlns:ev="http://www.w3.org/2001/xml-events" xmlns:xlink="http://www.w3.org/1999/xlink"><defs /><path d="M81,271L83,274L82,273L82,270L86,267L93,267L96,271L96,272L93,275L96,273L96,269L93,266L85,266L82,268L82,270Z" fill="none" stroke="black" stroke-width="2" /><path d="M231,252L231,258L234,260L231,255L236,249L248,248L252,252L252,257L248,260L253,257L253,251L247,247L238,247Z" fill="none" stroke="black" stroke-width="2" /><path d="M125,258L126,264L129,267L126,262L128,254L139,246L150,245L155,247L161,254L159,262L154,267L160,262L162,254L154,245L139,245L132,248Z" fill="none" stroke="black" stroke-width="2" /><path d="M207,235L207,236L205,239L205,240L206,241L206,245L208,247L211,247L212,246L214,246L216,244L216,241L217,240L216,239L216,237L214,235Z" fill="none" stroke="black" stroke-width="2" /><path d="M106,239L106,242L109,245L107,243L107,239L110,236L115,234L123,234L127,240L122,245L127,242L127,237L122,233L111,234Z" fill="none" stroke="black" stroke-width="2" /><path d="M242,200L242,201L243,201Z" fill="none" stroke="black" stroke-width="2" /><path d="M245,197L245,198Z" fill="none" stroke="black" stroke-width="2" /><path d="M189,175L189,176L190,177L190,178L190,177L189,176Z" fill="none" stroke="black" stroke-width="2" /><path d="M196,169L195,169L191,173L192,173Z" fill="none" stroke="black" stroke-width="2" /><path d="M256,128L257,128Z" fill="none" stroke="black" stroke-width="2" /><path d="M173,87L174,88Z" fill="none" stroke="black" stroke-width="2" /><path d="M95,75L95,78Z" fill="none" stroke="black" stroke-width="2" /><path d="M78,64L78,65L79,66L79,67L80,68L80,69L81,70L81,67Z" fill="none" stroke="black" stroke-width="2" /><path d="M231,56L237,70L236,81L217,88L217,97L203,105L201,88L204,94L199,103L210,103L211,117L216,121L225,118L232,105L217,89L234,83L239,74L247,79L237,70Z" fill="none" stroke="black" stroke-width="2" /><path d="M88,56L88,57L90,59L90,60L93,65L93,67L94,68L94,71L94,68L93,67L93,65L92,64L92,63L91,62L91,61Z" fill="none" stroke="black" stroke-width="2" /><path d="M116,52L116,53L117,54L117,53Z" fill="none" stroke="black" stroke-width="2" /><path d="M122,47L122,48L124,50L124,51L126,54L126,56L128,59L128,61L128,59L127,58L127,56L126,55L126,54L125,53L125,52L124,51L124,50Z" fill="none" stroke="black" stroke-width="2" /><path d="M240,33L237,34L239,36L238,37L238,39L232,51L238,39L238,37Z" fill="none" stroke="black" stroke-width="2" /><path d="M218,13L118,71L169,115L97,182L37,62L120,44L40,49L71,202L20,277L283,251L274,160L225,216L249,81L253,147L173,108L194,227L277,255L17,271L98,126L192,228L143,65L199,86Z" fill="none" stroke="black" stroke-width="2" /><path d="M242,3L233,8L224,16L237,6L240,6L231,34Z" fill="none" stroke="black" stroke-width="2" /></svg>