<svg baseProfile="tiny" height="505px" version="1.2" width="675px" xmlns="http://www.w3.org/2000/svg" xmlns:ev="http://www.w3.org/2001/xml-events" xmlns:xlink="http://www.w3.org/1999/xlink"><defs /><path d="M263,337L261,352L270,369L284,381L313,391L342,391L368,383L388,367L394,352L393,340L388,330L372,316L348,306L323,305L300,308L279,319Z" fill="none" stroke="black" stroke-width="5" /><path d="M278,268L276,269L266,289L250,306L231,319L193,337L197,337L212,331L244,313L267,290L272,283Z" fill="none" stroke="black" stroke-width="5" /><path d="M386,262L402,287L430,313L451,324L464,327L473,326L449,321L428,310L410,293Z" fill="none" stroke="black" stroke-width="5" /><path d="M0,427L127,353L61,271L160,268L82,209L114,153L202,184L147,109L283,25L329,247L373,16L513,98L468,184L554,155L583,218L519,265L597,265L608,314L530,352L613,370L669,460L492,475L529,432L309,483L137,423L203,478L5,471L41,440L9,433L0,471L671,461L537,124L347,12L131,124Z" fill="none" stroke="black" stroke-width="5" /></svg>