<svg baseProfile="tiny" height="505px" version="1.2" width="675px" xmlns="http://www.w3.org/2000/svg" xmlns:ev="http://www.w3.org/2001/xml-events" xmlns:xlink="http://www.w3.org/1999/xlink"><defs /><path d="M12,470L16,470Z" fill="none" stroke="black" stroke-width="5" /><path d="M41,438L3,434L35,438L36,442L0,471L10,471L4,468L25,455Z" fill="none" stroke="black" stroke-width="5" /><path d="M663,462L617,457L623,475L552,453L565,474L472,466L530,432L321,483Z" fill="none" stroke="black" stroke-width="5" /><path d="M18,469L130,466L105,499L163,474L319,483L139,424L203,478L114,495L135,464Z" fill="none" stroke="black" stroke-width="5" /><path d="M261,344L279,377L315,391L371,381L394,351L380,322L347,306L300,308L272,325Z" fill="none" stroke="black" stroke-width="5" /><path d="M278,268L250,306L194,337L245,312L266,291Z" fill="none" stroke="black" stroke-width="5" /><path d="M386,263L403,288L436,317L473,326L428,310Z" fill="none" stroke="black" stroke-width="5" /><path d="M0,427L127,353L61,270L160,272L81,212L202,184L147,108L229,44L330,245L373,16L513,98L469,184L555,156L520,266L608,315L530,351L671,461L536,123L345,12L128,128Z" fill="none" stroke="black" stroke-width="5" /></svg>