<svg baseProfile="tiny" height="505px" version="1.2" width="675px" xmlns="http://www.w3.org/2000/svg" xmlns:ev="http://www.w3.org/2001/xml-events" xmlns:xlink="http://www.w3.org/1999/xlink"><defs /><path d="M8,471L9,471Z" fill="none" stroke="black" stroke-width="5" /><path d="M5,467L4,468L3,468L1,470L0,470L0,471L2,471L3,472L4,472L5,471L4,471L3,470L3,469Z" fill="none" stroke="black" stroke-width="5" /><path d="M41,438L18,435L34,437L37,441L23,455L9,464L28,452Z" fill="none" stroke="black" stroke-width="5" /><path d="M4,434L15,434Z" fill="none" stroke="black" stroke-width="5" /><path d="M658,462L618,457L622,475L553,453L566,474L471,466L530,432L449,468L330,482L570,464L636,478L623,459Z" fill="none" stroke="black" stroke-width="5" /><path d="M4,425L2,427L1,427L2,427Z" fill="none" stroke="black" stroke-width="5" /><path d="M20,469L130,466L105,499L162,474L305,482L139,424L203,478L171,469L113,495L135,464Z" fill="none" stroke="black" stroke-width="5" /><path d="M9,421L6,424Z" fill="none" stroke="black" stroke-width="5" /><path d="M617,420L671,461L636,432L639,428L656,427L655,424L636,427Z" fill="none" stroke="black" stroke-width="5" /><path d="M29,405L25,403L21,403L23,403L26,407L13,418L17,414L25,410Z" fill="none" stroke="black" stroke-width="5" /><path d="M17,401L18,402Z" fill="none" stroke="black" stroke-width="5" /><path d="M261,345L278,376L318,391L367,383L388,366L394,349L381,323L346,306L296,310L277,321Z" fill="none" stroke="black" stroke-width="5" /><path d="M277,268L253,304L194,337L247,310L268,288Z" fill="none" stroke="black" stroke-width="5" /><path d="M387,264L408,293L435,316L472,326L448,321L427,310Z" fill="none" stroke="black" stroke-width="5" /><path d="M152,102L70,236L50,381L18,399L127,352L55,303L65,266L160,271L81,214L113,153L202,184Z" fill="none" stroke="black" stroke-width="5" /><path d="M497,82L513,104L468,183L550,150L583,219L520,265L596,264L608,305L530,350L612,369L651,421L619,400L575,192Z" fill="none" stroke="black" stroke-width="5" /><path d="M381,16L271,24L161,93L282,23L328,247L365,17L494,80Z" fill="none" stroke="black" stroke-width="5" /></svg>