<svg baseProfile="tiny" height="300px" version="1.2" width="300px" xmlns="http://www.w3.org/2000/svg" xmlns:ev="http://www.w3.org/2001/xml-events" xmlns:xlink="http://www.w3.org/1999/xlink"><defs /><path d="M254,195L253,196L253,198L254,198Z" fill="none" stroke="black" stroke-width="2" /><path d="M232,190L234,202L250,210L269,208L282,194L274,180L262,177L278,185L280,197L269,207L251,209L239,205L233,191L243,180L253,177L241,180Z" fill="none" stroke="black" stroke-width="2" /><path d="M241,167L227,176L212,181L202,181L214,182L227,178L234,174Z" fill="none" stroke="black" stroke-width="2" /><path d="M294,142L243,71L154,57L3,212L66,245L26,189L153,197L52,173L164,160L63,138L178,127L89,98L152,60L256,138L228,67L291,191L91,241L260,224Z" fill="none" stroke="black" stroke-width="2" /></svg>