<svg baseProfile="tiny" height="627px" version="1.2" width="650px" xmlns="http://www.w3.org/2000/svg" xmlns:ev="http://www.w3.org/2001/xml-events" xmlns:xlink="http://www.w3.org/1999/xlink"><defs /><path d="M564,587L564,589Z" fill="none" stroke="black" stroke-width="5" /><path d="M555,554L556,562L563,585L561,573L556,561Z" fill="none" stroke="black" stroke-width="5" /><path d="M438,391L483,478L553,550L578,464L543,540L483,477Z" fill="none" stroke="black" stroke-width="5" /><path d="M300,382L313,406L314,414L312,403Z" fill="none" stroke="black" stroke-width="5" /><path d="M410,362L503,405L572,410L579,459L575,414L589,385L576,408L511,405Z" fill="none" stroke="black" stroke-width="5" /><path d="M572,347L598,357L603,362L602,368L592,381L605,363L592,354Z" fill="none" stroke="black" stroke-width="5" /><path d="M477,185L508,186Z" fill="none" stroke="black" stroke-width="5" /><path d="M247,177L250,177Z" fill="none" stroke="black" stroke-width="5" /><path d="M240,176L244,176Z" fill="none" stroke="black" stroke-width="5" /><path d="M46,180L273,452L258,335L376,368L565,600L380,369L564,346L423,346L453,266L253,178L445,298L293,364L81,283L148,191L221,228L203,133Z" fill="none" stroke="black" stroke-width="5" /><path d="M106,58L90,79L84,136L52,160L45,178L85,137L88,90L102,59L132,112L149,113L132,109Z" fill="none" stroke="black" stroke-width="5" /><path d="M578,27L429,168L321,90L151,112L354,102L441,198L362,190L453,251L557,38L430,169L573,27L525,180Z" fill="none" stroke="black" stroke-width="5" /></svg>