<svg baseProfile="tiny" height="700px" version="1.2" width="642px" xmlns="http://www.w3.org/2000/svg" xmlns:ev="http://www.w3.org/2001/xml-events" xmlns:xlink="http://www.w3.org/1999/xlink"><defs /><path d="M389,500L382,504L380,508L380,510L377,514L377,517L376,518L376,523L379,530L381,532L385,534L396,534L398,533L404,527L406,523L406,520L405,519L404,513L400,506L393,500Z" fill="none" stroke="black" stroke-width="5" /><path d="M103,446L99,450Z" fill="none" stroke="black" stroke-width="5" /><path d="M108,441L105,444Z" fill="none" stroke="black" stroke-width="5" /><path d="M246,409L193,438L153,452L184,441L190,443L185,469L184,492L186,466L193,441L197,437L230,422Z" fill="none" stroke="black" stroke-width="5" /><path d="M424,401L416,444L409,463L401,477L397,481L392,482L375,471L393,483L403,475L410,463L417,443L422,412L425,409L437,412L430,409Z" fill="none" stroke="black" stroke-width="5" /><path d="M278,386L286,416L294,398L299,397L308,426L325,462L330,458L337,438L343,435L372,469L353,449L340,429L332,452L325,459L310,429L298,391L286,412L282,407Z" fill="none" stroke="black" stroke-width="5" /><path d="M581,386L577,381L580,385L580,391L577,394L570,396L565,399L559,400L558,401L543,402L542,403L534,404L537,403L555,402L556,401L560,401L561,400L564,400L570,398L572,396L578,394L581,391Z" fill="none" stroke="black" stroke-width="5" /><path d="M568,371L572,375Z" fill="none" stroke="black" stroke-width="5" /><path d="M272,325L272,349L273,350L273,357L274,358L274,362L275,363L275,375L276,376L276,379L276,372L275,371L275,360L274,359L274,355L273,354L273,343L272,342Z" fill="none" stroke="black" stroke-width="5" /><path d="M423,307L434,323L438,334L432,337L413,322L413,324L426,340L440,377L447,409L445,412L439,413L448,413L439,371L427,343L429,338L439,337L432,318Z" fill="none" stroke="black" stroke-width="5" /><path d="M520,289L509,301L507,302L500,302L503,305L503,309L498,316L496,321L487,331L486,335L489,334L498,320L506,310L512,298Z" fill="none" stroke="black" stroke-width="5" /><path d="M548,277L548,287Z" fill="none" stroke="black" stroke-width="5" /><path d="M548,269L547,269L546,268L545,269L542,269L540,271L537,272L534,275L533,275L523,285L524,285L525,284L525,283L526,282L527,282L534,275L535,275L537,273L538,273L540,271L541,271L542,270L546,270L548,272L548,274Z" fill="none" stroke="black" stroke-width="5" /><path d="M362,203L326,200L296,227L278,227L261,198L235,203L196,137L233,196L221,249L238,289L142,386L113,438L113,460L151,453L117,460L118,433L144,384L219,313L252,304L251,323L271,322L254,319L261,300L232,308L239,277L290,282L315,264L351,268L370,255L377,226Z" fill="none" stroke="black" stroke-width="5" /><path d="M469,36L378,90L358,50L279,129L334,116L295,168L215,41L195,135L219,39L296,169L357,53L375,92L470,40L423,113L483,108L396,156L454,156L421,303L476,309L447,342L489,452L442,574L247,588L184,504L212,574L153,605L56,559L87,462L63,576L131,607L217,576L171,639L216,628L222,670L298,588L500,626L522,594L499,624L404,587L520,588L469,558L480,406L582,330L547,292L579,331L479,395L495,302L429,280L471,209L420,148L486,108L435,102Z" fill="none" stroke="black" stroke-width="5" /></svg>