<svg baseProfile="tiny" height="506px" version="1.2" width="718px" xmlns="http://www.w3.org/2000/svg" xmlns:ev="http://www.w3.org/2001/xml-events" xmlns:xlink="http://www.w3.org/1999/xlink"><defs /><path d="M525,361L525,366L526,367L526,373L527,374L527,378L528,379L528,383L529,384L529,382L528,381L528,377L527,376L527,372L526,371L526,365L525,364Z" fill="none" stroke="black" stroke-width="5" /><path d="M196,341L197,341Z" fill="none" stroke="black" stroke-width="5" /><path d="M555,333L556,333Z" fill="none" stroke="black" stroke-width="5" /><path d="M176,333L171,343L151,343L146,346L130,383L127,386L102,394L96,399L88,427L84,430L88,428L96,401L100,396L130,385L148,345L151,343L171,344L174,342Z" fill="none" stroke="black" stroke-width="5" /><path d="M551,332L553,332Z" fill="none" stroke="black" stroke-width="5" /><path d="M194,328L195,329L195,331L198,331L199,330L200,330L200,329L198,329L197,328Z" fill="none" stroke="black" stroke-width="5" /><path d="M490,324L490,338Z" fill="none" stroke="black" stroke-width="5" /><path d="M491,308L491,310L492,311L492,313L493,313L494,314L494,315L495,316L495,321L495,315L494,314L494,312L493,311L493,310Z" fill="none" stroke="black" stroke-width="5" /><path d="M505,260L505,263L506,263L506,261Z" fill="none" stroke="black" stroke-width="5" /><path d="M383,236L380,236L367,258L380,237L383,239L383,242L379,251L375,257L369,263L367,263L366,260L364,264L365,266L368,265L378,253L384,240Z" fill="none" stroke="black" stroke-width="5" /><path d="M166,236L166,240L167,241L167,242L169,242L169,239L168,238L168,237L167,236Z" fill="none" stroke="black" stroke-width="5" /><path d="M166,226L162,230L162,232L165,228L167,227L170,227L175,233L175,245L170,251L167,251L164,248L162,243L162,246L164,250L166,252L170,253L174,249L174,247L176,243L176,236L173,229L169,226Z" fill="none" stroke="black" stroke-width="5" /><path d="M368,225L366,225L364,227L364,228L362,230L360,235L358,237L358,238L357,239L357,240L356,241L356,242L355,243L355,244L351,251L351,253L350,254L351,255L352,255L360,247L360,246L364,241L364,240L365,239L365,238L369,231L369,226Z" fill="none" stroke="black" stroke-width="5" /><path d="M242,212L236,222L230,228L224,232L213,237L199,237L197,238L205,239L207,241L207,244L211,238L219,236L227,232L235,226L242,226L238,223L238,221L241,216Z" fill="none" stroke="black" stroke-width="5" /><path d="M268,169L267,170L262,171L260,173L259,173L256,177L256,180L255,181L255,182L256,183L256,185L257,186L258,189L261,192L262,192L267,195L273,195L274,194L277,193L281,189L281,187L282,186L282,179L281,178L280,175L276,171L275,171L274,170L272,170L271,169Z" fill="none" stroke="black" stroke-width="5" /><path d="M105,67L152,280L32,480L314,420L8,468L154,276L271,397L544,452L634,343L535,381L539,329L717,197L592,215L714,204L533,339L476,247L534,403L474,403L630,342L512,453L445,401L496,323L436,314L426,409L313,410L184,335L154,230L264,154L590,216L278,152L162,200L263,136L685,180L253,137L225,2L249,137L160,195Z" fill="none" stroke="black" stroke-width="5" /></svg>