<svg baseProfile="tiny" height="300px" version="1.2" width="300px" xmlns="http://www.w3.org/2000/svg" xmlns:ev="http://www.w3.org/2001/xml-events" xmlns:xlink="http://www.w3.org/1999/xlink"><defs /><path d="M198,229L202,232L211,236L220,236L221,235L224,235L231,231L226,234L223,234L222,235L210,235Z" fill="none" stroke="black" stroke-width="2" /><path d="M190,221L190,222L194,226L195,226Z" fill="none" stroke="black" stroke-width="2" /><path d="M220,215L220,216L221,216L221,215Z" fill="none" stroke="black" stroke-width="2" /><path d="M214,215L215,215Z" fill="none" stroke="black" stroke-width="2" /><path d="M217,212L217,213L218,213L218,212Z" fill="none" stroke="black" stroke-width="2" /><path d="M216,207L216,208L217,209L216,208Z" fill="none" stroke="black" stroke-width="2" /><path d="M223,202L223,203L222,204L221,204L221,206L222,205L222,204L223,203Z" fill="none" stroke="black" stroke-width="2" /><path d="M225,199L225,200Z" fill="none" stroke="black" stroke-width="2" /><path d="M222,197L221,198L221,199L222,198Z" fill="none" stroke="black" stroke-width="2" /><path d="M226,194L225,194L225,195Z" fill="none" stroke="black" stroke-width="2" /><path d="M232,192L230,192L229,191L228,192L228,195L227,196L227,197Z" fill="none" stroke="black" stroke-width="2" /><path d="M209,191L210,191L211,192L213,192L215,194L215,203L215,194L216,193L216,192L211,192L210,191Z" fill="none" stroke="black" stroke-width="2" /><path d="M234,190L235,190Z" fill="none" stroke="black" stroke-width="2" /><path d="M206,188L206,189L207,189Z" fill="none" stroke="black" stroke-width="2" /><path d="M262,188L257,186L261,188L260,190L253,191L245,197L241,207L240,220L233,229L236,227L240,220L241,208L244,199L254,191L264,190Z" fill="none" stroke="black" stroke-width="2" /><path d="M241,187L242,186L244,186L242,186Z" fill="none" stroke="black" stroke-width="2" /><path d="M199,171L199,173L200,174L200,175L201,175L201,174L200,173L200,172Z" fill="none" stroke="black" stroke-width="2" /><path d="M198,168L197,169Z" fill="none" stroke="black" stroke-width="2" /><path d="M212,167L213,168L213,169L214,169L215,170L218,170L219,169L219,168L219,169L218,170L215,170Z" fill="none" stroke="black" stroke-width="2" /><path d="M219,164L219,165Z" fill="none" stroke="black" stroke-width="2" /><path d="M212,162L212,164L214,164Z" fill="none" stroke="black" stroke-width="2" /><path d="M268,159L237,172L226,181L221,167L222,174L219,176L217,174L220,177L218,195L219,191L225,185L235,187L226,183L235,174Z" fill="none" stroke="black" stroke-width="2" /><path d="M273,156L272,156L271,157L270,157L271,157L272,156Z" fill="none" stroke="black" stroke-width="2" /><path d="M275,154L276,154Z" fill="none" stroke="black" stroke-width="2" /><path d="M211,153L211,154L213,156L213,157L214,158L214,159L215,160L215,161L216,161L214,159L214,158L213,157L213,156L212,155L212,154Z" fill="none" stroke="black" stroke-width="2" /><path d="M285,147L284,147L280,151L279,151L278,152L279,152L281,150L282,150Z" fill="none" stroke="black" stroke-width="2" /><path d="M159,146L158,146L157,147L157,149L156,150L156,151L155,152L155,153L151,157L151,158L153,158L156,155L156,154L158,152L158,150L159,149Z" fill="none" stroke="black" stroke-width="2" /><path d="M205,145L207,149L206,146L204,145L202,147L199,147L196,152L196,162L197,164L196,162L196,159L198,158L200,160L201,160L203,158L204,152L203,150L201,149L203,147L203,146Z" fill="none" stroke="black" stroke-width="2" /><path d="M154,142L152,142L151,143L151,144L150,145L150,146L149,147L149,148L147,150L147,151L145,153L146,154L147,154L149,152L149,151L151,149L151,148L152,147L152,146L153,145L153,143Z" fill="none" stroke="black" stroke-width="2" /><path d="M70,142L69,143L69,144L68,145L68,151L69,152L69,153L72,153L73,152L73,150L74,149L74,146L73,145L73,143L72,142Z" fill="none" stroke="black" stroke-width="2" /><path d="M293,138L292,139L292,140L293,139Z" fill="none" stroke="black" stroke-width="2" /><path d="M101,136L101,137L99,139L99,140L94,144L93,144L88,147L83,147L88,148L90,146L91,146L92,145L94,145L98,141L101,141L102,142L103,142L100,140L100,139L101,138Z" fill="none" stroke="black" stroke-width="2" /><path d="M111,118L110,119L109,119L108,120L108,121L107,122L107,126L110,129L114,129L115,128L116,128L117,127L117,121L115,119L114,119L113,118Z" fill="none" stroke="black" stroke-width="2" /><path d="M2,240L58,251L133,218L212,220L187,206L203,175L180,178L175,217L87,195L130,217L53,251L6,242L89,190L65,145L106,113L197,144L297,126L220,131L118,104L93,48L105,103L73,121L44,78L65,164Z" fill="none" stroke="black" stroke-width="2" /></svg>