<svg baseProfile="tiny" height="300px" version="1.2" width="300px" xmlns="http://www.w3.org/2000/svg" xmlns:ev="http://www.w3.org/2001/xml-events" xmlns:xlink="http://www.w3.org/1999/xlink"><defs /><path d="M79,270L79,271L80,272L79,271Z" fill="none" stroke="black" stroke-width="2" /><path d="M98,267L98,268Z" fill="none" stroke="black" stroke-width="2" /><path d="M74,265L75,265Z" fill="none" stroke="black" stroke-width="2" /><path d="M97,262L97,265Z" fill="none" stroke="black" stroke-width="2" /><path d="M99,275L98,274L96,276L90,276L87,273L88,268L92,273L98,272L98,271L94,273L90,270L91,261L84,273L87,274L85,277L75,277L69,274L63,268L65,266L70,266L63,267L70,275L75,277Z" fill="none" stroke="black" stroke-width="2" /><path d="M81,261L81,262L80,263L79,263L78,264L77,264L78,264L79,265L79,267L79,265L80,264L80,263L81,262Z" fill="none" stroke="black" stroke-width="2" /><path d="M106,247L107,247Z" fill="none" stroke="black" stroke-width="2" /><path d="M96,242L96,244Z" fill="none" stroke="black" stroke-width="2" /><path d="M72,242L74,242L75,243L76,243L77,244L78,244L77,244L76,243L75,243L74,242Z" fill="none" stroke="black" stroke-width="2" /><path d="M103,241L103,242Z" fill="none" stroke="black" stroke-width="2" /><path d="M75,233L74,233L73,234L72,234L71,235L70,235L65,240L66,240L67,241L70,241L68,241L66,239L69,236L70,236L72,234L73,234L74,233Z" fill="none" stroke="black" stroke-width="2" /><path d="M85,232L86,232Z" fill="none" stroke="black" stroke-width="2" /><path d="M77,232L78,232Z" fill="none" stroke="black" stroke-width="2" /><path d="M113,224L115,224Z" fill="none" stroke="black" stroke-width="2" /><path d="M144,217L143,217L142,218L141,218L140,219L139,219L134,222L132,222L131,223L128,223L125,225L117,225L125,225L126,224L130,224L132,222L134,222L135,221L136,221L137,220L138,220L139,219L140,219L141,218Z" fill="none" stroke="black" stroke-width="2" /><path d="M46,159L46,160Z" fill="none" stroke="black" stroke-width="2" /><path d="M215,157L214,158L215,159L216,158Z" fill="none" stroke="black" stroke-width="2" /><path d="M206,139L206,140Z" fill="none" stroke="black" stroke-width="2" /><path d="M205,136L205,137Z" fill="none" stroke="black" stroke-width="2" /><path d="M204,132L204,134Z" fill="none" stroke="black" stroke-width="2" /><path d="M209,131L211,131Z" fill="none" stroke="black" stroke-width="2" /><path d="M203,129L203,130Z" fill="none" stroke="black" stroke-width="2" /><path d="M202,126L202,127L203,127Z" fill="none" stroke="black" stroke-width="2" /><path d="M201,118L201,119Z" fill="none" stroke="black" stroke-width="2" /><path d="M207,117L207,123L206,124L208,126L209,126L211,128L211,124L211,125L210,126L208,124L210,122L210,120L209,119L209,118L208,117Z" fill="none" stroke="black" stroke-width="2" /><path d="M2,23L52,98L9,97L66,135L29,143L117,177L55,164L102,215L49,164L105,232L115,181L154,177L6,23L109,83L186,186L163,232L82,259L100,234L138,271L185,194L284,152L260,126L296,97L246,136L240,111L288,98L226,97L242,165L188,140L210,45L225,94L211,42L152,160L105,78Z" fill="none" stroke="black" stroke-width="2" /></svg>