<svg baseProfile="tiny" height="684px" version="1.2" width="592px" xmlns="http://www.w3.org/2000/svg" xmlns:ev="http://www.w3.org/2001/xml-events" xmlns:xlink="http://www.w3.org/1999/xlink"><defs /><path d="M482,626L478,634L481,649L493,655L500,656L489,652L481,644L479,631Z" fill="none" stroke="black" stroke-width="5" /><path d="M161,624L161,632L158,635L162,635L169,638L181,638L169,638L164,636L161,631Z" fill="none" stroke="black" stroke-width="5" /><path d="M508,630L510,657L543,654L560,636L542,654L514,656L508,652L507,636L520,619Z" fill="none" stroke="black" stroke-width="5" /><path d="M480,607L470,613L463,623L464,636L473,647L465,638L464,622L470,614Z" fill="none" stroke="black" stroke-width="5" /><path d="M221,606L201,630L191,636L183,637L194,635L202,630Z" fill="none" stroke="black" stroke-width="5" /><path d="M179,606L172,611L162,622L170,613Z" fill="none" stroke="black" stroke-width="5" /><path d="M437,600L437,601Z" fill="none" stroke="black" stroke-width="5" /><path d="M160,511L160,529Z" fill="none" stroke="black" stroke-width="5" /><path d="M349,352L349,365L350,367L354,367L352,367L350,364L350,362L349,361Z" fill="none" stroke="black" stroke-width="5" /><path d="M147,331L235,494L125,629L312,669L438,493L552,569L423,443L450,582L374,578L352,400L268,575L341,616L241,613Z" fill="none" stroke="black" stroke-width="5" /><path d="M470,324L470,331Z" fill="none" stroke="black" stroke-width="5" /><path d="M161,311L159,341L159,317L164,312L215,372Z" fill="none" stroke="black" stroke-width="5" /><path d="M388,282L418,313L444,370L452,371L469,334L461,358L447,371L420,315Z" fill="none" stroke="black" stroke-width="5" /><path d="M383,248L440,261L510,350L573,612L484,601L480,569L480,595L561,632L575,565L518,370L573,272L471,289Z" fill="none" stroke="black" stroke-width="5" /><path d="M298,247L331,295L348,350L334,300Z" fill="none" stroke="black" stroke-width="5" /><path d="M222,82L220,88L238,121L222,91Z" fill="none" stroke="black" stroke-width="5" /><path d="M298,33L256,51L223,80L259,50Z" fill="none" stroke="black" stroke-width="5" /><path d="M156,2L20,135L116,231L159,509L116,231L203,39L310,29L252,141L294,258L310,218L377,278L358,365L386,309L253,140L312,29Z" fill="none" stroke="black" stroke-width="5" /></svg>