<svg baseProfile="tiny" height="669px" version="1.2" width="641px" xmlns="http://www.w3.org/2000/svg" xmlns:ev="http://www.w3.org/2001/xml-events" xmlns:xlink="http://www.w3.org/1999/xlink"><defs /><path d="M249,600L238,612L239,614L220,632L219,636L221,632L246,608L250,603Z" fill="none" stroke="black" stroke-width="5" /><path d="M149,410L121,561L65,552L68,522L57,581L16,601L1,625L69,642L108,613Z" fill="none" stroke="black" stroke-width="5" /><path d="M286,372L287,372Z" fill="none" stroke="black" stroke-width="5" /><path d="M120,285L108,294L105,315L116,334L128,337L141,323L134,334L122,336L110,326L114,313L111,309L114,319L109,320L105,310L111,291L127,286L138,296L142,311L128,319L126,313L134,304L125,319L142,318L137,293Z" fill="none" stroke="black" stroke-width="5" /><path d="M233,254L258,283L265,298L269,316L266,298L261,286L248,268Z" fill="none" stroke="black" stroke-width="5" /><path d="M89,218L73,251L84,317L71,521L112,540L76,524L84,295L98,295L91,246L95,298L74,254Z" fill="none" stroke="black" stroke-width="5" /><path d="M91,186L96,200L96,225L97,223L97,200L94,190Z" fill="none" stroke="black" stroke-width="5" /><path d="M621,161L617,205L588,233L540,236L487,218L449,218L393,251L451,219L484,218L542,238L588,234L617,206Z" fill="none" stroke="black" stroke-width="5" /><path d="M120,96L108,103L94,117L99,115L103,109L106,109L108,115L105,121L93,122L100,123L115,119L120,112Z" fill="none" stroke="black" stroke-width="5" /><path d="M77,95L60,106L50,121L12,143L0,156L35,184L110,181L125,164L122,151L87,126Z" fill="none" stroke="black" stroke-width="5" /><path d="M598,89L594,101L626,136L639,172L635,207L610,240L550,256L462,239L414,266L459,240L573,257L617,235L635,210L640,167Z" fill="none" stroke="black" stroke-width="5" /><path d="M542,67L570,125L579,113L590,115L620,159L589,113L579,111L570,122L544,70L594,87Z" fill="none" stroke="black" stroke-width="5" /><path d="M136,2L161,14L129,44L157,18L198,2L251,20L276,68L270,103L248,130L261,119L277,68L250,18L210,2L166,12Z" fill="none" stroke="black" stroke-width="5" /><path d="M95,11L64,96L196,104L158,302L369,249L500,500L312,363L373,495L306,405L308,549L336,366L271,395L248,573L102,346L305,575L216,657L364,585L379,420L491,625L433,304L319,225L311,306L195,192L246,63L73,78Z" fill="none" stroke="black" stroke-width="5" /><path d="M126,1L134,1L133,1L132,0L128,0L127,1Z" fill="none" stroke="black" stroke-width="5" /></svg>