<svg baseProfile="tiny" height="611px" version="1.2" width="591px" xmlns="http://www.w3.org/2000/svg" xmlns:ev="http://www.w3.org/2001/xml-events" xmlns:xlink="http://www.w3.org/1999/xlink"><defs /><path d="M24,467L23,468Z" fill="none" stroke="black" stroke-width="5" /><path d="M367,241L367,242Z" fill="none" stroke="black" stroke-width="5" /><path d="M333,147L344,159L353,173L364,203L361,190L352,170Z" fill="none" stroke="black" stroke-width="5" /><path d="M54,144L52,144L47,149L49,151L50,151L51,150L53,150L55,148L55,145Z" fill="none" stroke="black" stroke-width="5" /><path d="M26,142L25,143L25,144L26,143Z" fill="none" stroke="black" stroke-width="5" /><path d="M18,140L17,141L17,144L17,141Z" fill="none" stroke="black" stroke-width="5" /><path d="M63,89L26,122L20,131L19,137L22,128L28,120L56,95L60,95L64,100L62,96Z" fill="none" stroke="black" stroke-width="5" /><path d="M65,85L65,86L64,87L65,86Z" fill="none" stroke="black" stroke-width="5" /><path d="M252,81L268,107L274,145L270,115L274,110L324,138L302,122L270,108Z" fill="none" stroke="black" stroke-width="5" /><path d="M209,107L204,89L184,78L112,104L80,108L66,102L93,109L146,91L149,121L167,132L195,126Z" fill="none" stroke="black" stroke-width="5" /><path d="M243,71L246,74Z" fill="none" stroke="black" stroke-width="5" /><path d="M505,57L427,434L390,348L298,362L436,342L342,311L366,244L304,343L151,300L365,206L117,262L178,165L18,147L159,268L25,465L90,445L54,569L17,477L45,568L504,547L577,327Z" fill="none" stroke="black" stroke-width="5" /><path d="M240,69L201,45L158,39L114,49L68,81L107,53L152,40L192,43Z" fill="none" stroke="black" stroke-width="5" /></svg>