<svg baseProfile="tiny" height="750px" version="1.2" width="552px" xmlns="http://www.w3.org/2000/svg" xmlns:ev="http://www.w3.org/2001/xml-events" xmlns:xlink="http://www.w3.org/1999/xlink"><defs /><path d="M411,427L410,428L410,434L411,435L411,436L413,438L414,438L415,439L419,439L420,438L420,436L419,435L419,434L415,430L415,429L413,427Z" fill="none" stroke="black" stroke-width="5" /><path d="M374,405L373,406L373,415L377,423L382,429L382,430L388,436L392,438L399,438L401,436L401,425L395,413L390,408L385,405L381,405L380,404Z" fill="none" stroke="black" stroke-width="5" /><path d="M230,248L229,247L218,248L197,259L202,259L206,261L207,263L216,257L218,251L221,248L226,249L228,252L228,256L226,260L221,265L215,268L211,268L208,266L205,268L205,269L208,270L216,269L221,267L228,261L230,256Z" fill="none" stroke="black" stroke-width="5" /><path d="M219,235L218,234L210,234L209,235L205,235L201,239L201,240L200,241L200,242L199,243L199,244L198,245L198,246L202,242L202,241L205,238L207,238L208,237L209,237L210,236L218,236Z" fill="none" stroke="black" stroke-width="5" /><path d="M352,23L244,74L242,174L209,184L315,240L241,224L304,392L421,382L475,422L502,663L465,684L412,523L339,528L332,475L312,712L293,676L274,735L328,704L341,540L385,590L342,687L399,658L418,543L470,626L448,712L505,676L522,387L470,354L301,383L261,257L318,242L260,196L366,200L408,57L361,79L408,67L358,204L224,202L246,74L344,25L348,79L266,162L346,160L358,84L328,172L269,136L349,81Z" fill="none" stroke="black" stroke-width="5" /><path d="M79,14L79,95L50,106L107,172L157,192L86,236L139,248L126,310L152,343L193,347L189,467L243,611L208,710L238,712L271,670L255,696L232,681L244,612L209,514L268,545L272,668L275,559L298,643L268,514L219,426L192,420L196,346L238,280L213,327L158,291L129,314L154,204L194,184L176,178L182,80L131,59L124,22Z" fill="none" stroke="black" stroke-width="5" /></svg>