<svg baseProfile="tiny" height="300px" version="1.2" width="300px" xmlns="http://www.w3.org/2000/svg" xmlns:ev="http://www.w3.org/2001/xml-events" xmlns:xlink="http://www.w3.org/1999/xlink"><defs /><path d="M173,243L175,243Z" fill="none" stroke="black" stroke-width="2" /><path d="M133,236L134,237L136,237L135,236Z" fill="none" stroke="black" stroke-width="2" /><path d="M109,218L111,220L112,220L110,218Z" fill="none" stroke="black" stroke-width="2" /><path d="M125,199L125,200L123,202L123,211L124,213L128,216L136,216L138,215L141,209L141,204L140,203L140,201L137,198L127,198Z" fill="none" stroke="black" stroke-width="2" /><path d="M177,196L172,200L172,211L177,215L185,215L187,214L190,210L190,201L187,197L185,197L184,196Z" fill="none" stroke="black" stroke-width="2" /><path d="M195,178L163,185L146,185L122,180L142,185L170,185Z" fill="none" stroke="black" stroke-width="2" /><path d="M147,218L131,228L105,192L108,173L132,155L108,170L77,167L55,179L57,192L131,235L56,187L63,174L82,189L65,173L85,167L98,180L91,168L107,172L106,200L124,223L116,222L138,229Z" fill="none" stroke="black" stroke-width="2" /><path d="M140,152L138,152L137,153L135,153L134,154L136,154L137,153L139,153Z" fill="none" stroke="black" stroke-width="2" /><path d="M223,149L223,152Z" fill="none" stroke="black" stroke-width="2" /><path d="M218,144L228,144L230,146L230,147L231,148L231,151L230,152L230,153L227,155L228,155L231,152L231,146L229,144Z" fill="none" stroke="black" stroke-width="2" /><path d="M113,113L117,113Z" fill="none" stroke="black" stroke-width="2" /><path d="M109,112L109,113L110,113L110,112Z" fill="none" stroke="black" stroke-width="2" /><path d="M219,111L219,113L225,119L221,115L221,114L220,113L220,112Z" fill="none" stroke="black" stroke-width="2" /><path d="M119,112L123,112L124,111L125,111L123,111L122,110L120,110L119,111Z" fill="none" stroke="black" stroke-width="2" /><path d="M218,106L218,109Z" fill="none" stroke="black" stroke-width="2" /><path d="M228,102L227,103L226,103L225,104L226,105L227,105L227,103Z" fill="none" stroke="black" stroke-width="2" /><path d="M110,98L110,99L111,100L111,102L112,103L112,107L111,108L111,110L112,109L112,100Z" fill="none" stroke="black" stroke-width="2" /><path d="M231,97L232,98Z" fill="none" stroke="black" stroke-width="2" /><path d="M189,97L186,111L179,124L168,136L159,132L160,134L170,138L177,130L186,114L189,103Z" fill="none" stroke="black" stroke-width="2" /><path d="M279,83L282,83Z" fill="none" stroke="black" stroke-width="2" /><path d="M153,76L153,77Z" fill="none" stroke="black" stroke-width="2" /><path d="M170,74L179,74Z" fill="none" stroke="black" stroke-width="2" /><path d="M150,70L150,71L151,72L151,73L152,74L152,72Z" fill="none" stroke="black" stroke-width="2" /><path d="M226,60L227,61L227,62L228,63L228,61L227,60Z" fill="none" stroke="black" stroke-width="2" /><path d="M98,57L95,79L81,69L94,58L42,84L25,115L2,139L8,141L4,137L22,120L26,137L12,140L27,139L38,151L36,173L90,138L104,94L119,96L122,108L122,95L139,92L103,94Z" fill="none" stroke="black" stroke-width="2" /><path d="M287,55L288,55Z" fill="none" stroke="black" stroke-width="2" /><path d="M226,52L228,54Z" fill="none" stroke="black" stroke-width="2" /><path d="M297,51L296,52Z" fill="none" stroke="black" stroke-width="2" /><path d="M290,45L291,46Z" fill="none" stroke="black" stroke-width="2" /><path d="M276,39L277,39Z" fill="none" stroke="black" stroke-width="2" /><path d="M206,28L210,28Z" fill="none" stroke="black" stroke-width="2" /><path d="M198,29L199,30L198,29L200,27L202,27L198,27Z" fill="none" stroke="black" stroke-width="2" /><path d="M134,27L143,27Z" fill="none" stroke="black" stroke-width="2" /><path d="M270,34L229,25L212,29L210,42L201,33L217,59L211,43L220,30L254,27L272,37L271,55L281,60L263,74L215,63L198,79L182,75L207,92L213,118L190,94L207,132L195,144L173,140L216,145L199,144L213,104L223,102L209,93L229,96L206,88L227,67L281,80L284,56L271,52Z" fill="none" stroke="black" stroke-width="2" /><path d="M114,25L125,65L163,72L127,110L142,151L226,178L167,221L240,169L239,193L258,169L259,197L278,184L177,242L168,276L138,238L171,276L279,183L208,159L253,157L246,86L252,114L213,135L247,126L243,163L147,137L159,41L145,28L158,54L132,67Z" fill="none" stroke="black" stroke-width="2" /></svg>