<svg baseProfile="tiny" height="775px" version="1.2" width="647px" xmlns="http://www.w3.org/2000/svg" xmlns:ev="http://www.w3.org/2001/xml-events" xmlns:xlink="http://www.w3.org/1999/xlink"><defs /><path d="M304,317L268,312L245,319L222,334L216,347L216,365L232,395L249,405L279,406L298,392L313,371L318,350L316,331Z" fill="none" stroke="black" stroke-width="5" /><path d="M350,147L352,151L374,166L405,201L393,185L365,157Z" fill="none" stroke="black" stroke-width="5" /><path d="M136,93L142,93Z" fill="none" stroke="black" stroke-width="5" /><path d="M152,94L208,102L273,131L236,106L205,62L216,56L260,84L204,52L203,60L231,108Z" fill="none" stroke="black" stroke-width="5" /><path d="M464,38L262,86L460,40L343,133L523,201L408,232L516,381L372,487L207,462L147,339L269,194L379,327L412,214L272,176L89,285L249,147L87,99L199,158L82,282L190,494L146,731L502,726L478,501L608,388L381,132Z" fill="none" stroke="black" stroke-width="5" /></svg>