<svg baseProfile="tiny" height="775px" version="1.2" width="647px" xmlns="http://www.w3.org/2000/svg" xmlns:ev="http://www.w3.org/2001/xml-events" xmlns:xlink="http://www.w3.org/1999/xlink"><defs /><path d="M428,739L443,742L477,741L434,741Z" fill="none" stroke="black" stroke-width="5" /><path d="M501,727L499,730L491,735L481,740L479,740L483,740L492,736L496,733Z" fill="none" stroke="black" stroke-width="5" /><path d="M132,711L139,726L164,736L193,735L232,724L196,734L158,734L140,726Z" fill="none" stroke="black" stroke-width="5" /><path d="M198,532L198,533L196,535L196,536L195,537L195,538L196,537L196,536L197,535L197,534L198,533Z" fill="none" stroke="black" stroke-width="5" /><path d="M517,548L488,513L506,565L418,542L207,600L194,540L142,579L162,533L192,654L177,589L418,555L471,619L363,712L194,656L133,709L217,675L234,723L426,739L370,704L442,677L502,725L443,670Z" fill="none" stroke="black" stroke-width="5" /><path d="M188,501L183,505L163,531Z" fill="none" stroke="black" stroke-width="5" /><path d="M577,426L576,427L577,428L576,427Z" fill="none" stroke="black" stroke-width="5" /><path d="M593,411L592,411L579,424L579,426Z" fill="none" stroke="black" stroke-width="5" /><path d="M300,389L299,389L296,392L296,393L297,392L298,392L298,391Z" fill="none" stroke="black" stroke-width="5" /><path d="M287,341L264,349L234,351L240,356L246,374L258,384L270,384L283,369Z" fill="none" stroke="black" stroke-width="5" /><path d="M305,318L269,312L223,333L216,365L232,395L254,406L295,395L277,404L237,396L219,368L223,337L271,314L302,319L315,352L301,387L318,349Z" fill="none" stroke="black" stroke-width="5" /><path d="M331,227L316,245L313,254L315,271L331,292L356,293L371,276L370,247L354,228Z" fill="none" stroke="black" stroke-width="5" /><path d="M176,206L171,211L171,212L175,208L175,207Z" fill="none" stroke="black" stroke-width="5" /><path d="M350,147L352,151L371,163L405,201L366,158Z" fill="none" stroke="black" stroke-width="5" /><path d="M128,219L188,170L249,147L204,158L129,128L199,161Z" fill="none" stroke="black" stroke-width="5" /><path d="M153,94L161,96L189,97L198,100L192,97L180,95Z" fill="none" stroke="black" stroke-width="5" /><path d="M87,99L97,110L126,127L96,108L90,99L129,94L101,95Z" fill="none" stroke="black" stroke-width="5" /><path d="M267,91L270,94Z" fill="none" stroke="black" stroke-width="5" /><path d="M608,389L382,134L436,79L344,133L523,200L412,236L516,379L250,482L147,371L267,195L311,306L405,243L343,330L412,214L82,283L190,499L572,434L430,471L536,388L506,214Z" fill="none" stroke="black" stroke-width="5" /><path d="M250,76L252,78L253,78L256,81L256,80L255,79L254,79L251,76Z" fill="none" stroke="black" stroke-width="5" /><path d="M317,55L298,83L286,110L271,96L284,117L300,81Z" fill="none" stroke="black" stroke-width="5" /><path d="M204,52L207,69L233,106L200,101L273,131L243,113L206,65L212,55L248,74Z" fill="none" stroke="black" stroke-width="5" /><path d="M325,47L319,53L320,53L320,52Z" fill="none" stroke="black" stroke-width="5" /><path d="M304,124L387,62L463,42L438,78L466,39L403,54L339,92L346,24L331,40L346,32L337,83Z" fill="none" stroke="black" stroke-width="5" /></svg>