<svg baseProfile="tiny" height="700px" version="1.2" width="627px" xmlns="http://www.w3.org/2000/svg" xmlns:ev="http://www.w3.org/2001/xml-events" xmlns:xlink="http://www.w3.org/1999/xlink"><defs /><path d="M462,465L462,472Z" fill="none" stroke="black" stroke-width="5" /><path d="M522,459L544,495L533,505L471,514L463,478L476,575L464,633L496,673L554,663L588,610Z" fill="none" stroke="black" stroke-width="5" /><path d="M457,408L459,410L459,411L459,410Z" fill="none" stroke="black" stroke-width="5" /><path d="M237,371L196,438L242,470L228,514L286,461L259,439L290,392Z" fill="none" stroke="black" stroke-width="5" /><path d="M242,323L246,339L259,333L278,337L293,356L302,339L298,349L292,352L282,338L257,331L247,338Z" fill="none" stroke="black" stroke-width="5" /><path d="M354,319L342,322L311,323L343,323Z" fill="none" stroke="black" stroke-width="5" /><path d="M297,313L300,316Z" fill="none" stroke="black" stroke-width="5" /><path d="M323,306L375,308Z" fill="none" stroke="black" stroke-width="5" /><path d="M307,306L309,306L313,311L316,308L316,307L317,306L318,306Z" fill="none" stroke="black" stroke-width="5" /><path d="M218,273L222,282L235,297L245,302L252,301L241,300L235,296L225,285Z" fill="none" stroke="black" stroke-width="5" /><path d="M214,259L245,283L249,292L256,291Z" fill="none" stroke="black" stroke-width="5" /><path d="M415,236L409,239L395,253L385,268L400,249Z" fill="none" stroke="black" stroke-width="5" /><path d="M303,206L280,232L280,234Z" fill="none" stroke="black" stroke-width="5" /><path d="M462,92L452,94L435,119L433,128L438,113L445,114L441,131L436,136L432,131L439,154L447,154L464,130L468,104Z" fill="none" stroke="black" stroke-width="5" /><path d="M345,66L330,74L320,92L318,118L325,127L335,127L341,123L352,106L353,75Z" fill="none" stroke="black" stroke-width="5" /><path d="M100,73L56,271L209,517L121,622L242,604L119,615L212,519L419,672L365,546L460,455L320,453L432,483L341,549L193,497L197,253L160,326L164,232L50,240L165,227Z" fill="none" stroke="black" stroke-width="5" /><path d="M305,42L199,251L257,236L305,43L375,45L362,266L408,73L479,55L461,413L517,453L467,417L447,227L483,59L407,72L367,189L375,42Z" fill="none" stroke="black" stroke-width="5" /></svg>