<svg baseProfile="tiny" height="700px" version="1.2" width="627px" xmlns="http://www.w3.org/2000/svg" xmlns:ev="http://www.w3.org/2001/xml-events" xmlns:xlink="http://www.w3.org/1999/xlink"><defs /><path d="M238,371L195,441L242,470L228,514L286,461L259,439L290,392Z" fill="none" stroke="black" stroke-width="5" /><path d="M242,322L247,340L260,333L275,336L293,356L301,346L302,339L293,352L281,337L260,331L247,338Z" fill="none" stroke="black" stroke-width="5" /><path d="M354,319L341,322L311,323L343,323Z" fill="none" stroke="black" stroke-width="5" /><path d="M296,313L297,314L298,314L301,317L300,316L300,315L299,314L298,314L297,313Z" fill="none" stroke="black" stroke-width="5" /><path d="M296,305L306,305L312,311L318,306L376,308Z" fill="none" stroke="black" stroke-width="5" /><path d="M217,272L224,285L236,298L244,302L252,301L242,300L235,296Z" fill="none" stroke="black" stroke-width="5" /><path d="M213,259L248,287L249,293L256,291Z" fill="none" stroke="black" stroke-width="5" /><path d="M416,235L401,246L384,269L403,246Z" fill="none" stroke="black" stroke-width="5" /><path d="M304,205L284,227L280,234Z" fill="none" stroke="black" stroke-width="5" /><path d="M463,92L455,92L447,98L433,124L433,145L441,155L447,154L456,145L464,130L468,104Z" fill="none" stroke="black" stroke-width="5" /><path d="M346,66L335,69L320,91L318,118L325,127L340,124L352,106L354,77Z" fill="none" stroke="black" stroke-width="5" /><path d="M91,79L121,622L243,537L410,675L458,452L266,544L155,362L305,43L364,267L482,58L553,664L484,60L368,189L303,43L161,326Z" fill="none" stroke="black" stroke-width="5" /></svg>