<svg baseProfile="tiny" height="300px" version="1.2" width="300px" xmlns="http://www.w3.org/2000/svg" xmlns:ev="http://www.w3.org/2001/xml-events" xmlns:xlink="http://www.w3.org/1999/xlink"><defs /><path d="M217,206L217,211L218,211L218,206Z" fill="none" stroke="black" stroke-width="2" /><path d="M40,89L61,138L40,225L88,297L208,239L216,214L184,250L209,218L192,236L186,178L211,188L209,212L213,187L248,181L228,154L258,143L248,114L228,121L221,148L188,131L237,166L225,188L182,176L183,194L149,197L127,164L93,151L45,175L68,133Z" fill="none" stroke="black" stroke-width="2" /><path d="M39,79L39,84L40,84L40,79Z" fill="none" stroke="black" stroke-width="2" /><path d="M40,76L68,72L93,107L85,116L93,140L111,149L184,131L176,120L182,83L220,97L206,70L175,57L175,45L172,59L161,54L172,39L161,50L129,45L142,31L123,39L91,2L91,35L104,46L89,29L91,13L117,45L90,96L56,59Z" fill="none" stroke="black" stroke-width="2" /></svg>