<svg baseProfile="tiny" height="700px" version="1.2" width="679px" xmlns="http://www.w3.org/2000/svg" xmlns:ev="http://www.w3.org/2001/xml-events" xmlns:xlink="http://www.w3.org/1999/xlink"><defs /><path d="M384,655L383,656Z" fill="none" stroke="black" stroke-width="5" /><path d="M382,658L369,670L348,664L350,621L346,660L335,674L297,672L285,652L288,670L262,666L328,675L345,667L368,671Z" fill="none" stroke="black" stroke-width="5" /><path d="M252,619L245,628L246,643L249,649L246,641L246,627Z" fill="none" stroke="black" stroke-width="5" /><path d="M304,609L304,610Z" fill="none" stroke="black" stroke-width="5" /><path d="M609,605L610,605Z" fill="none" stroke="black" stroke-width="5" /><path d="M271,602L266,602L252,608L247,608L245,606L246,604L232,612L243,611L258,605L263,608Z" fill="none" stroke="black" stroke-width="5" /><path d="M409,618L367,601L361,614L329,607L312,619L305,612L312,622L334,608L377,620L391,633L385,653L392,635L382,614Z" fill="none" stroke="black" stroke-width="5" /><path d="M277,599L280,603L272,620L286,610L291,612L284,632L284,649L284,634L292,609L296,605L302,607L296,604L282,610L284,599Z" fill="none" stroke="black" stroke-width="5" /><path d="M541,612L609,616L629,665L637,631L627,621L637,635L632,652L611,615L635,609L611,598L620,607L603,613L604,604L584,598L588,616L559,605Z" fill="none" stroke="black" stroke-width="5" /><path d="M181,590L146,570L142,582L150,573L170,590L162,615L134,619L141,584L132,619L103,625L154,622L171,602L170,589Z" fill="none" stroke="black" stroke-width="5" /><path d="M69,566L61,575L74,575L60,593L68,612L62,590L95,575L92,618L79,623L100,624L88,604L94,585L137,574L104,581L99,566Z" fill="none" stroke="black" stroke-width="5" /><path d="M34,410L49,423L60,426L71,424L78,414L87,410L80,412L68,425L54,424Z" fill="none" stroke="black" stroke-width="5" /><path d="M89,409L93,409Z" fill="none" stroke="black" stroke-width="5" /><path d="M95,399L105,405L105,408L101,410L111,416L109,409L105,403L99,399Z" fill="none" stroke="black" stroke-width="5" /><path d="M39,365L38,370L33,375L24,392L27,402L25,391L29,383L37,373L41,377L43,374Z" fill="none" stroke="black" stroke-width="5" /><path d="M31,344L29,346L29,351L29,347L31,345Z" fill="none" stroke="black" stroke-width="5" /><path d="M58,344L60,347L80,347L106,342L116,346L128,360L117,346L108,342L81,343L78,337L74,347Z" fill="none" stroke="black" stroke-width="5" /><path d="M39,336L33,342Z" fill="none" stroke="black" stroke-width="5" /><path d="M79,333L79,334Z" fill="none" stroke="black" stroke-width="5" /><path d="M44,332L42,334Z" fill="none" stroke="black" stroke-width="5" /><path d="M151,328L126,325L146,327L155,335L146,357L133,361L140,363L136,370L114,373L139,369L155,337Z" fill="none" stroke="black" stroke-width="5" /><path d="M89,321L81,327L81,329L80,330L80,331L80,330L83,327L83,326L85,324L86,324L86,323L87,322L88,322Z" fill="none" stroke="black" stroke-width="5" /><path d="M119,319L119,321L121,323L120,322L120,321L119,320Z" fill="none" stroke="black" stroke-width="5" /><path d="M72,318L63,321L46,331Z" fill="none" stroke="black" stroke-width="5" /><path d="M96,317L95,317L93,319L92,319L91,320L92,319L94,319Z" fill="none" stroke="black" stroke-width="5" /><path d="M101,306L101,308Z" fill="none" stroke="black" stroke-width="5" /><path d="M84,294L86,299L86,306L79,315L74,317L79,315L86,307L86,298Z" fill="none" stroke="black" stroke-width="5" /><path d="M90,290L97,297L97,298L99,301L99,300L97,298L97,297Z" fill="none" stroke="black" stroke-width="5" /><path d="M49,286L48,287Z" fill="none" stroke="black" stroke-width="5" /><path d="M73,283L78,285L81,288L81,290L83,292L82,290L84,286L80,284L76,284L75,283Z" fill="none" stroke="black" stroke-width="5" /><path d="M142,280L136,283L126,292L121,300L120,306L124,295L134,285Z" fill="none" stroke="black" stroke-width="5" /><path d="M174,204L176,205L179,205L180,206L182,206L186,208L188,208L186,208L185,207L183,207L182,206L180,206L179,205L176,205Z" fill="none" stroke="black" stroke-width="5" /><path d="M256,179L264,187L264,186L263,186L262,185L262,184L261,183L260,183L257,180L257,179Z" fill="none" stroke="black" stroke-width="5" /><path d="M254,176L254,177L255,177Z" fill="none" stroke="black" stroke-width="5" /><path d="M305,165L314,197Z" fill="none" stroke="black" stroke-width="5" /><path d="M304,162L304,163Z" fill="none" stroke="black" stroke-width="5" /><path d="M257,158L256,159Z" fill="none" stroke="black" stroke-width="5" /><path d="M217,155L226,164Z" fill="none" stroke="black" stroke-width="5" /><path d="M299,145L299,147L301,151L301,154L302,155L303,160L302,154L301,153Z" fill="none" stroke="black" stroke-width="5" /><path d="M288,144L283,168L283,177L283,168L287,155Z" fill="none" stroke="black" stroke-width="5" /><path d="M289,141L289,142Z" fill="none" stroke="black" stroke-width="5" /><path d="M298,140L298,142Z" fill="none" stroke="black" stroke-width="5" /><path d="M208,136L209,137Z" fill="none" stroke="black" stroke-width="5" /><path d="M197,135L199,137Z" fill="none" stroke="black" stroke-width="5" /><path d="M297,120L294,122L292,126L292,133L291,135L292,134L295,134L296,135L294,131L294,124L296,122L299,123Z" fill="none" stroke="black" stroke-width="5" /><path d="M256,114L248,128L248,134L252,141L249,135L249,128Z" fill="none" stroke="black" stroke-width="5" /><path d="M177,113L194,132L193,129L197,128Z" fill="none" stroke="black" stroke-width="5" /><path d="M356,91L326,101L340,107L315,150L301,126L329,186L324,206L360,151L334,188L334,142L319,146Z" fill="none" stroke="black" stroke-width="5" /><path d="M286,86L279,89L277,91L273,93L273,94L283,87L285,87Z" fill="none" stroke="black" stroke-width="5" /><path d="M296,82L294,82L293,83L292,83L291,84L290,84L289,85L288,85L289,85L290,84L291,84L292,83L293,83L294,82Z" fill="none" stroke="black" stroke-width="5" /><path d="M298,81L299,81Z" fill="none" stroke="black" stroke-width="5" /><path d="M308,78L311,78Z" fill="none" stroke="black" stroke-width="5" /><path d="M321,76L329,76Z" fill="none" stroke="black" stroke-width="5" /><path d="M335,75L336,75Z" fill="none" stroke="black" stroke-width="5" /><path d="M503,46L536,64L547,83L548,97L549,87L537,65Z" fill="none" stroke="black" stroke-width="5" /><path d="M496,43L497,43L498,44L499,44L500,45L501,45L500,45L499,44L498,44L497,43Z" fill="none" stroke="black" stroke-width="5" /><path d="M479,33L488,40L490,40L494,42L485,38Z" fill="none" stroke="black" stroke-width="5" /><path d="M475,29L476,30Z" fill="none" stroke="black" stroke-width="5" /><path d="M411,28L400,24L325,58L359,53L372,61L307,98L374,60L342,46Z" fill="none" stroke="black" stroke-width="5" /><path d="M168,107L73,561L250,408L390,601L467,203L619,673L570,138L375,102L547,99L359,106L369,512Z" fill="none" stroke="black" stroke-width="5" /><path d="M383,12L396,21L394,19L394,17L396,15L401,15L387,14Z" fill="none" stroke="black" stroke-width="5" /></svg>