<svg baseProfile="tiny" height="591px" version="1.2" width="750px" xmlns="http://www.w3.org/2000/svg" xmlns:ev="http://www.w3.org/2001/xml-events" xmlns:xlink="http://www.w3.org/1999/xlink"><defs /><path d="M365,414L365,415L364,416L364,425L363,426L363,430L362,431L362,437L365,440L366,440L372,446L375,446L377,443L377,438L378,437L378,426L377,425L377,424L370,417L370,416L369,415L368,415L367,414Z" fill="none" stroke="black" stroke-width="5" /><path d="M542,348L541,349L541,353L540,354L541,355L541,361L542,362L543,365L546,368L547,368L549,370L554,370L555,369L555,368L557,365L557,361L554,358L554,357L546,349L545,349L544,348Z" fill="none" stroke="black" stroke-width="5" /><path d="M459,266L426,272L389,294L332,345L297,396L292,423L298,396L305,393L359,467L365,529L363,470L304,386L332,352L333,378L363,400L373,366L349,331L372,309L387,311L392,295L407,283Z" fill="none" stroke="black" stroke-width="5" /><path d="M706,168L555,201L604,99L462,79L449,20L343,62L289,28L162,119L45,373L114,439L178,428L145,484L198,389L192,475L123,505L155,523L261,370L320,460L274,400L365,281L488,250L464,375L592,195L696,159L473,379L436,358L483,272L377,331L400,551L344,562L385,576L380,337L455,295L388,350L453,307L442,380L536,381L503,353L555,328L590,482L543,477L537,383L542,476L588,487L570,254Z" fill="none" stroke="black" stroke-width="5" /></svg>