<svg baseProfile="tiny" height="578px" version="1.2" width="750px" xmlns="http://www.w3.org/2000/svg" xmlns:ev="http://www.w3.org/2001/xml-events" xmlns:xlink="http://www.w3.org/1999/xlink"><defs /><path d="M215,522L287,547L292,531L339,519L380,490L337,519L291,531L285,481L265,519L236,481L243,526Z" fill="none" stroke="black" stroke-width="5" /><path d="M730,248L729,316Z" fill="none" stroke="black" stroke-width="5" /><path d="M24,228L24,229Z" fill="none" stroke="black" stroke-width="5" /><path d="M467,201L467,202L466,203L466,204L465,205L465,206L464,207L466,205L466,203L467,202Z" fill="none" stroke="black" stroke-width="5" /><path d="M664,175L630,300L592,284L594,247L588,279L691,331L728,319L703,316L721,241L697,324L665,319L703,203L662,318L631,302Z" fill="none" stroke="black" stroke-width="5" /><path d="M425,155L425,156Z" fill="none" stroke="black" stroke-width="5" /><path d="M76,143L47,183L26,224Z" fill="none" stroke="black" stroke-width="5" /><path d="M90,128L80,138Z" fill="none" stroke="black" stroke-width="5" /><path d="M612,122L601,214L594,226L585,224L597,232L595,245Z" fill="none" stroke="black" stroke-width="5" /><path d="M104,113L92,125L95,122L96,122L96,121Z" fill="none" stroke="black" stroke-width="5" /><path d="M107,110L106,111Z" fill="none" stroke="black" stroke-width="5" /><path d="M110,107L109,108Z" fill="none" stroke="black" stroke-width="5" /><path d="M115,102L112,105Z" fill="none" stroke="black" stroke-width="5" /><path d="M313,98L331,102L346,114L356,134L356,140L351,140L358,147L358,158L358,137L349,117L333,102Z" fill="none" stroke="black" stroke-width="5" /><path d="M123,95L122,96Z" fill="none" stroke="black" stroke-width="5" /><path d="M131,87L125,93Z" fill="none" stroke="black" stroke-width="5" /><path d="M134,84L133,85Z" fill="none" stroke="black" stroke-width="5" /><path d="M141,77L140,78Z" fill="none" stroke="black" stroke-width="5" /><path d="M148,71L143,76Z" fill="none" stroke="black" stroke-width="5" /><path d="M155,65L151,69Z" fill="none" stroke="black" stroke-width="5" /><path d="M622,49L23,238L332,189L259,394L516,362L358,550L590,86L459,434L244,60L729,229Z" fill="none" stroke="black" stroke-width="5" /></svg>