<svg baseProfile="tiny" height="578px" version="1.2" width="750px" xmlns="http://www.w3.org/2000/svg" xmlns:ev="http://www.w3.org/2001/xml-events" xmlns:xlink="http://www.w3.org/1999/xlink"><defs /><path d="M470,364L471,365Z" fill="none" stroke="black" stroke-width="5" /><path d="M467,360L469,362Z" fill="none" stroke="black" stroke-width="5" /><path d="M425,155L425,156Z" fill="none" stroke="black" stroke-width="5" /><path d="M624,50L429,142L294,10L164,57L23,238L182,291L228,155L332,189L336,365L257,391L380,421L382,371L413,441L215,523L355,551L508,402L484,183L571,144L590,283L685,331L730,244L727,319L722,240L665,319L704,203L632,305L665,174L593,285L577,66L463,209L523,335L459,434L384,363L466,358L469,265L401,198L436,335L363,334L347,171L274,152L356,129L254,157L243,62L295,11L268,128L310,44L294,104L349,52L428,149L618,48L729,230Z" fill="none" stroke="black" stroke-width="5" /></svg>