<svg baseProfile="tiny" height="578px" version="1.2" width="750px" xmlns="http://www.w3.org/2000/svg" xmlns:ev="http://www.w3.org/2001/xml-events" xmlns:xlink="http://www.w3.org/1999/xlink"><defs /><path d="M215,522L287,547L292,531L339,519L380,490L342,517L291,531L285,481L265,519L236,481L243,526Z" fill="none" stroke="black" stroke-width="5" /><path d="M262,366L271,384L290,388L268,378L269,361L281,354L286,375L307,385L285,371L294,355L351,375L309,354L278,354Z" fill="none" stroke="black" stroke-width="5" /><path d="M467,265L468,265Z" fill="none" stroke="black" stroke-width="5" /><path d="M730,249L729,316Z" fill="none" stroke="black" stroke-width="5" /><path d="M721,241L703,313L687,331L702,320L728,319L712,322L703,316Z" fill="none" stroke="black" stroke-width="5" /><path d="M383,214L379,218L378,218L375,221L377,219L378,219Z" fill="none" stroke="black" stroke-width="5" /><path d="M391,207L387,211L386,211L385,212L386,212Z" fill="none" stroke="black" stroke-width="5" /><path d="M466,203L466,204L465,205L465,206L466,205Z" fill="none" stroke="black" stroke-width="5" /><path d="M664,176L631,299L592,284L594,247L588,279L685,330L665,315L703,204L662,318L631,302Z" fill="none" stroke="black" stroke-width="5" /><path d="M425,155L425,156Z" fill="none" stroke="black" stroke-width="5" /><path d="M72,148L47,183L26,224Z" fill="none" stroke="black" stroke-width="5" /><path d="M76,143L73,146Z" fill="none" stroke="black" stroke-width="5" /><path d="M89,129L80,138Z" fill="none" stroke="black" stroke-width="5" /><path d="M612,123L602,211L594,226L585,224L597,231L595,245Z" fill="none" stroke="black" stroke-width="5" /><path d="M100,117L92,125Z" fill="none" stroke="black" stroke-width="5" /><path d="M104,113L102,115Z" fill="none" stroke="black" stroke-width="5" /><path d="M685,103L718,154L729,228L716,147Z" fill="none" stroke="black" stroke-width="5" /><path d="M139,103L81,173L98,198L67,258L23,236L64,262L92,214L87,272L122,288L155,184L132,287L88,274L96,207L170,128L121,195L80,177Z" fill="none" stroke="black" stroke-width="5" /><path d="M313,98L331,102L346,114L356,133L356,140L351,140L358,147L358,157L357,133L346,113L329,100Z" fill="none" stroke="black" stroke-width="5" /><path d="M131,87L127,91Z" fill="none" stroke="black" stroke-width="5" /><path d="M148,71L144,75Z" fill="none" stroke="black" stroke-width="5" /><path d="M153,67L152,68Z" fill="none" stroke="black" stroke-width="5" /><path d="M622,49L160,61L149,282L269,151L385,352L259,394L516,362L221,529L466,474L590,94L463,435L256,42Z" fill="none" stroke="black" stroke-width="5" /></svg>