<svg baseProfile="tiny" height="775px" version="1.2" width="771px" xmlns="http://www.w3.org/2000/svg" xmlns:ev="http://www.w3.org/2001/xml-events" xmlns:xlink="http://www.w3.org/1999/xlink"><defs /><path d="M54,539L57,539L58,540L58,541L58,540L59,539Z" fill="none" stroke="black" stroke-width="5" /><path d="M482,509L504,563L509,608L525,613L511,602L507,565Z" fill="none" stroke="black" stroke-width="5" /><path d="M475,509L436,599L376,541L438,602Z" fill="none" stroke="black" stroke-width="5" /><path d="M637,576L586,512L527,615L621,514L591,661L402,655L329,735L244,591L361,658L372,547L361,656L270,568L368,540L49,553L252,574L332,739L399,659L581,670Z" fill="none" stroke="black" stroke-width="5" /><path d="M204,496L116,511L44,504L51,520L35,531L52,539L39,532L59,520L46,504L110,513Z" fill="none" stroke="black" stroke-width="5" /><path d="M240,413L233,439L250,479L277,499L315,501L324,478L306,441L271,410L251,407Z" fill="none" stroke="black" stroke-width="5" /><path d="M246,352L245,351L237,355L214,359L232,357Z" fill="none" stroke="black" stroke-width="5" /><path d="M248,342L244,342L243,343L241,343L240,344L237,345L238,345L239,344L242,344L243,343L246,343L247,342Z" fill="none" stroke="black" stroke-width="5" /><path d="M435,270L434,271L434,272L432,274L432,275L434,273L434,272L435,271Z" fill="none" stroke="black" stroke-width="5" /><path d="M747,259L725,258L728,242L721,259L740,265L655,372L481,501L632,398Z" fill="none" stroke="black" stroke-width="5" /><path d="M723,238L716,242L709,248L707,248L705,246L702,251L705,251L712,247Z" fill="none" stroke="black" stroke-width="5" /><path d="M729,235L727,235L725,237L726,236L727,236L728,237L729,236Z" fill="none" stroke="black" stroke-width="5" /><path d="M373,100L372,101L371,101L372,101Z" fill="none" stroke="black" stroke-width="5" /><path d="M380,94L424,140L456,194L387,96L422,114L466,166L409,101Z" fill="none" stroke="black" stroke-width="5" /><path d="M435,84L399,88L441,88L463,104L472,166L455,222L425,269L464,205L473,165L469,114Z" fill="none" stroke="black" stroke-width="5" /><path d="M367,77L368,77L369,78L372,79L373,80L373,81L377,81L376,81L374,79L373,79L372,78L369,78L368,77Z" fill="none" stroke="black" stroke-width="5" /><path d="M360,74L361,74L362,75L363,75L362,75L361,74Z" fill="none" stroke="black" stroke-width="5" /><path d="M362,82L368,96L446,73L481,94L489,162L438,266L481,196L520,288L483,189L484,96L445,71Z" fill="none" stroke="black" stroke-width="5" /><path d="M118,310L217,493L389,531L709,225L461,291L502,453L294,520L119,309L190,161L137,307L229,347L246,89L266,254L199,39L327,201L184,32L248,211Z" fill="none" stroke="black" stroke-width="5" /><path d="M218,26L284,40L354,76L286,39L242,26Z" fill="none" stroke="black" stroke-width="5" /><path d="M176,27L247,40L311,75L356,117L402,190L355,112L364,104L348,106L249,38Z" fill="none" stroke="black" stroke-width="5" /></svg>