<svg baseProfile="tiny" height="775px" version="1.2" width="771px" xmlns="http://www.w3.org/2000/svg" xmlns:ev="http://www.w3.org/2001/xml-events" xmlns:xlink="http://www.w3.org/1999/xlink"><defs /><path d="M476,507L469,517L445,587L438,598L422,590L387,549L375,541L389,554L408,580L430,599L439,602Z" fill="none" stroke="black" stroke-width="5" /><path d="M50,556L252,574L251,664L331,739L400,659L513,635L582,670L637,578L631,523L591,509L529,616L482,507L529,620L565,532L618,512L635,554L614,633L574,669L511,631L401,655L330,735L259,672L244,592L295,580L360,659L386,635L369,540L259,574L53,555L47,504L210,496L43,504Z" fill="none" stroke="black" stroke-width="5" /><path d="M117,302L139,344L194,363L209,438L160,435L217,494L382,532L474,489L530,381L703,234L740,265L655,371L483,504L637,394L748,259L709,224L577,337L587,271L532,324L472,83L180,25L240,82L248,210L193,347L148,324L134,273L230,138L138,213Z" fill="none" stroke="black" stroke-width="5" /></svg>