<svg baseProfile="tiny" height="648px" version="1.2" width="598px" xmlns="http://www.w3.org/2000/svg" xmlns:ev="http://www.w3.org/2001/xml-events" xmlns:xlink="http://www.w3.org/1999/xlink"><defs /><path d="M366,612L370,616L369,615L369,614L367,612Z" fill="none" stroke="black" stroke-width="5" /><path d="M42,591L42,601L45,607L97,596L49,606L45,603L45,599L48,596L45,598Z" fill="none" stroke="black" stroke-width="5" /><path d="M62,580L60,582L60,583L53,590L62,581Z" fill="none" stroke="black" stroke-width="5" /><path d="M48,573L47,574L47,576L45,578L45,580L44,581L44,583L43,584L43,589L43,586L44,585L44,582L45,581L45,580L48,575Z" fill="none" stroke="black" stroke-width="5" /><path d="M51,569L50,570L50,571L50,570Z" fill="none" stroke="black" stroke-width="5" /><path d="M340,553L344,557L345,578L349,590L365,610L354,596L366,578L352,590L348,584L344,560L350,555Z" fill="none" stroke="black" stroke-width="5" /><path d="M318,549L319,549L320,550L322,550L323,551L329,551L330,552L336,552L337,553L337,552L333,552L332,551L324,551L323,550L320,550L319,549Z" fill="none" stroke="black" stroke-width="5" /><path d="M315,548L316,548Z" fill="none" stroke="black" stroke-width="5" /><path d="M192,547L117,585L111,583L102,561L83,559L77,553L79,563L64,578L86,560L100,560L108,589L100,595Z" fill="none" stroke="black" stroke-width="5" /><path d="M72,541L55,562L53,567L65,550L68,549L74,550L71,546L71,542Z" fill="none" stroke="black" stroke-width="5" /><path d="M207,400L206,401L206,403L205,404L205,407L206,408L206,410L207,411L207,412L211,417L211,416L210,416L209,415L209,414L207,411Z" fill="none" stroke="black" stroke-width="5" /><path d="M194,316L177,329L163,334L144,334L131,326L140,334L169,334L183,326Z" fill="none" stroke="black" stroke-width="5" /><path d="M202,308L201,308L195,314L196,314L197,313L198,313L202,309Z" fill="none" stroke="black" stroke-width="5" /><path d="M271,306L270,306L269,307L270,306Z" fill="none" stroke="black" stroke-width="5" /><path d="M510,264L487,288L458,303L484,291L498,292L514,299L491,288Z" fill="none" stroke="black" stroke-width="5" /><path d="M514,260L513,260L512,261L512,262L513,262L514,261Z" fill="none" stroke="black" stroke-width="5" /><path d="M110,243L119,254L131,262L142,263L142,262L134,262L125,258Z" fill="none" stroke="black" stroke-width="5" /><path d="M571,188L575,281L526,250L544,216L570,219L547,210L554,188L516,257L547,256L566,271L543,327L517,300L539,336L541,378L575,289Z" fill="none" stroke="black" stroke-width="5" /><path d="M567,185L567,186L568,187L569,186L568,185Z" fill="none" stroke="black" stroke-width="5" /><path d="M558,184L565,184Z" fill="none" stroke="black" stroke-width="5" /><path d="M388,165L389,166L389,167L393,171L391,169L391,168Z" fill="none" stroke="black" stroke-width="5" /><path d="M381,157L385,161L385,162L386,162Z" fill="none" stroke="black" stroke-width="5" /><path d="M375,151L376,152Z" fill="none" stroke="black" stroke-width="5" /><path d="M367,143L372,148Z" fill="none" stroke="black" stroke-width="5" /><path d="M272,115L272,117L273,117L273,116Z" fill="none" stroke="black" stroke-width="5" /><path d="M277,104L280,107L281,107L278,104Z" fill="none" stroke="black" stroke-width="5" /><path d="M340,90L340,92Z" fill="none" stroke="black" stroke-width="5" /><path d="M300,84L301,87L303,88L309,97L311,98L313,103L318,108L320,113L324,114L326,110L321,111Z" fill="none" stroke="black" stroke-width="5" /><path d="M51,49L48,491L195,524L73,539L418,524L417,629L517,320L458,425L395,173L280,303L288,93L340,383L193,382L281,508L453,467L167,509L81,247L259,157L261,283L287,91Z" fill="none" stroke="black" stroke-width="5" /><path d="M271,47L344,46L289,75L297,83L291,77L297,68L336,51L340,62L327,108L334,83L341,85L344,44Z" fill="none" stroke="black" stroke-width="5" /><path d="M236,38L250,42L259,47L267,48L262,47L255,43L244,39Z" fill="none" stroke="black" stroke-width="5" /><path d="M234,37L173,37L136,49L76,39L54,47L87,40L133,51L171,38L178,40L176,46L192,36Z" fill="none" stroke="black" stroke-width="5" /></svg>