<svg baseProfile="tiny" height="635px" version="1.2" width="650px" xmlns="http://www.w3.org/2000/svg" xmlns:ev="http://www.w3.org/2001/xml-events" xmlns:xlink="http://www.w3.org/1999/xlink"><defs /><path d="M361,592L359,613L360,617L362,618L364,617L360,614Z" fill="none" stroke="black" stroke-width="5" /><path d="M396,621L460,578L397,620L395,598L403,572L392,593Z" fill="none" stroke="black" stroke-width="5" /><path d="M364,570L363,580L362,581L362,590Z" fill="none" stroke="black" stroke-width="5" /><path d="M139,559L139,580Z" fill="none" stroke="black" stroke-width="5" /><path d="M140,552L140,556Z" fill="none" stroke="black" stroke-width="5" /><path d="M423,547L422,548L418,548L418,549L419,550L418,551L417,554L415,556L417,554L417,553Z" fill="none" stroke="black" stroke-width="5" /><path d="M427,542L433,537L440,537L445,539L447,541L447,540L440,536L434,536Z" fill="none" stroke="black" stroke-width="5" /><path d="M148,534L143,542L141,550L142,546L143,545L143,543Z" fill="none" stroke="black" stroke-width="5" /><path d="M577,531L550,534L558,534L559,533Z" fill="none" stroke="black" stroke-width="5" /><path d="M407,537L401,531L387,538L382,534L365,568L386,538L395,533L402,533Z" fill="none" stroke="black" stroke-width="5" /><path d="M579,530L582,530Z" fill="none" stroke="black" stroke-width="5" /><path d="M601,526L595,527L594,528L590,528L589,529L584,529L589,529L590,528L594,528L595,527Z" fill="none" stroke="black" stroke-width="5" /><path d="M172,479L173,480Z" fill="none" stroke="black" stroke-width="5" /><path d="M74,464L74,467L75,468L75,470L76,471L76,473L77,474L77,473L76,472L76,470L75,469L75,467L74,466Z" fill="none" stroke="black" stroke-width="5" /><path d="M163,456L164,463L170,476L166,467L166,465L164,462Z" fill="none" stroke="black" stroke-width="5" /><path d="M508,453L551,486L607,516L603,525L611,520L553,487Z" fill="none" stroke="black" stroke-width="5" /><path d="M502,448L506,452Z" fill="none" stroke="black" stroke-width="5" /><path d="M114,417L85,476L78,476L81,480L86,476Z" fill="none" stroke="black" stroke-width="5" /><path d="M45,404L46,425L60,460L64,463L60,460L45,420Z" fill="none" stroke="black" stroke-width="5" /><path d="M145,391L141,394L138,394L134,391L134,394L125,403L133,395L138,395Z" fill="none" stroke="black" stroke-width="5" /><path d="M597,389L619,412Z" fill="none" stroke="black" stroke-width="5" /><path d="M588,379L594,385Z" fill="none" stroke="black" stroke-width="5" /><path d="M574,364L580,370Z" fill="none" stroke="black" stroke-width="5" /><path d="M566,355L567,356Z" fill="none" stroke="black" stroke-width="5" /><path d="M324,358L319,354L287,354L275,366L273,353L295,335L272,353L274,370L263,380L296,354Z" fill="none" stroke="black" stroke-width="5" /><path d="M69,335L46,402L66,356L91,373L73,462L75,414L110,355L130,385L108,354L92,370L60,358Z" fill="none" stroke="black" stroke-width="5" /><path d="M111,309L73,332Z" fill="none" stroke="black" stroke-width="5" /><path d="M182,303L173,308L162,308L171,314L177,338L175,347L179,348L182,359L171,316L172,309Z" fill="none" stroke="black" stroke-width="5" /><path d="M583,301L584,302Z" fill="none" stroke="black" stroke-width="5" /><path d="M201,287L199,289Z" fill="none" stroke="black" stroke-width="5" /><path d="M208,281L205,284Z" fill="none" stroke="black" stroke-width="5" /><path d="M214,276L213,277Z" fill="none" stroke="black" stroke-width="5" /><path d="M136,270L137,283L131,291L136,287L139,288L150,304L160,307L145,299L138,282Z" fill="none" stroke="black" stroke-width="5" /><path d="M134,261L134,263Z" fill="none" stroke="black" stroke-width="5" /><path d="M261,255L237,263L216,275L234,265Z" fill="none" stroke="black" stroke-width="5" /><path d="M269,251L268,251L267,252L268,251Z" fill="none" stroke="black" stroke-width="5" /><path d="M252,179L221,191L203,211L198,232L211,233L245,225L255,209Z" fill="none" stroke="black" stroke-width="5" /><path d="M105,124L120,150L115,162L57,157L81,233L133,258L115,224L119,217L137,227L121,193L113,195L120,147Z" fill="none" stroke="black" stroke-width="5" /><path d="M98,106L98,112L99,113L99,114L101,117L100,116L100,114L99,113L99,111L98,110Z" fill="none" stroke="black" stroke-width="5" /><path d="M201,96L205,117L206,157L206,115Z" fill="none" stroke="black" stroke-width="5" /><path d="M97,92L97,100Z" fill="none" stroke="black" stroke-width="5" /><path d="M452,89L271,170L298,332L341,177L501,192L333,257L468,478L271,455L367,264L309,438L163,360L302,475L143,599L624,494L473,324L599,316L407,262L581,299Z" fill="none" stroke="black" stroke-width="5" /><path d="M193,78L185,80L159,110L149,154L161,109L181,85L189,80L197,85Z" fill="none" stroke="black" stroke-width="5" /><path d="M129,67L130,68Z" fill="none" stroke="black" stroke-width="5" /><path d="M97,52L96,69L96,56L99,53L105,53L127,66L109,54Z" fill="none" stroke="black" stroke-width="5" /><path d="M347,15L286,53L275,29L243,42L238,13L197,29L146,84L134,72L127,136L197,30L206,80L274,30L277,105L245,159L295,92L357,83L338,72Z" fill="none" stroke="black" stroke-width="5" /></svg>