<svg baseProfile="tiny" height="514px" version="1.2" width="600px" xmlns="http://www.w3.org/2000/svg" xmlns:ev="http://www.w3.org/2001/xml-events" xmlns:xlink="http://www.w3.org/1999/xlink"><defs /><path d="M274,407L275,408L275,409L277,411L281,411L282,410L278,406L275,406Z" fill="none" stroke="black" stroke-width="5" /><path d="M332,408L330,405L328,405L324,409L324,410L330,410L331,409L332,409Z" fill="none" stroke="black" stroke-width="5" /><path d="M152,391L291,465L345,461L458,397L294,427L160,406Z" fill="none" stroke="black" stroke-width="5" /><path d="M264,346L265,347Z" fill="none" stroke="black" stroke-width="5" /><path d="M378,342L373,347L369,362L369,367L374,347Z" fill="none" stroke="black" stroke-width="5" /><path d="M422,340L395,361L403,363L407,353L413,362L411,371L398,376L393,364L378,385L398,395L416,388L426,365L418,344Z" fill="none" stroke="black" stroke-width="5" /><path d="M186,337L181,357L184,380L192,390L207,392L221,372Z" fill="none" stroke="black" stroke-width="5" /><path d="M385,335L386,334L411,333L388,332Z" fill="none" stroke="black" stroke-width="5" /><path d="M198,328L218,330L224,335L233,368L224,333L216,329Z" fill="none" stroke="black" stroke-width="5" /><path d="M285,309L272,344L267,348L269,350L281,319L286,316L287,320Z" fill="none" stroke="black" stroke-width="5" /><path d="M305,308L309,344L293,351L288,323L292,352L309,346L308,321L312,321Z" fill="none" stroke="black" stroke-width="5" /><path d="M447,295L423,298L398,308L428,325Z" fill="none" stroke="black" stroke-width="5" /><path d="M161,291L180,320L208,305L174,291Z" fill="none" stroke="black" stroke-width="5" /><path d="M264,286L249,320L258,339L271,302L258,331L250,328L249,321Z" fill="none" stroke="black" stroke-width="5" /><path d="M558,279L561,282Z" fill="none" stroke="black" stroke-width="5" /><path d="M553,273L557,277Z" fill="none" stroke="black" stroke-width="5" /><path d="M277,270L274,273Z" fill="none" stroke="black" stroke-width="5" /><path d="M345,263L353,267L355,269L361,272L363,272Z" fill="none" stroke="black" stroke-width="5" /><path d="M290,259L280,268L283,265L284,265Z" fill="none" stroke="black" stroke-width="5" /><path d="M331,256L332,256L333,257L332,256Z" fill="none" stroke="black" stroke-width="5" /><path d="M456,254L456,255L457,256L457,257L458,258L457,257L457,255Z" fill="none" stroke="black" stroke-width="5" /><path d="M536,252L552,271Z" fill="none" stroke="black" stroke-width="5" /><path d="M136,252L136,253L135,254L135,255L134,256L134,257L133,258L131,263L131,262L132,261L132,260L133,259L133,258L134,257Z" fill="none" stroke="black" stroke-width="5" /><path d="M300,251L299,251L292,258L295,256L298,259L299,265L299,261L300,260Z" fill="none" stroke="black" stroke-width="5" /><path d="M143,237L137,250Z" fill="none" stroke="black" stroke-width="5" /><path d="M109,231L107,233L106,233L103,236L105,234L106,234Z" fill="none" stroke="black" stroke-width="5" /><path d="M484,219L523,282Z" fill="none" stroke="black" stroke-width="5" /><path d="M153,201L154,201Z" fill="none" stroke="black" stroke-width="5" /><path d="M139,198L140,198L141,199L146,199L147,200L149,200L147,200L146,199L144,199L143,198Z" fill="none" stroke="black" stroke-width="5" /><path d="M98,193L100,193Z" fill="none" stroke="black" stroke-width="5" /><path d="M99,181L91,181L65,201L84,210L57,211L42,227L59,212L95,210L69,200L91,181Z" fill="none" stroke="black" stroke-width="5" /><path d="M481,191L506,185L517,199L499,206L555,219L567,237L543,236L587,260L559,243L569,237L558,219L507,208L520,199L494,179Z" fill="none" stroke="black" stroke-width="5" /><path d="M101,181L157,190L130,175L133,171L126,174L140,181L140,186Z" fill="none" stroke="black" stroke-width="5" /><path d="M446,45L162,35L111,230L386,227L468,415L129,382L244,254L40,230L82,470L520,480L586,262L340,221L482,217L340,208Z" fill="none" stroke="black" stroke-width="5" /></svg>