<svg baseProfile="tiny" height="700px" version="1.2" width="663px" xmlns="http://www.w3.org/2000/svg" xmlns:ev="http://www.w3.org/2001/xml-events" xmlns:xlink="http://www.w3.org/1999/xlink"><defs /><path d="M160,581L158,581L154,584L154,585L151,589L151,591L150,593L151,593L151,592L156,587L156,586Z" fill="none" stroke="black" stroke-width="5" /><path d="M188,477L189,494L192,503L195,505L195,502L192,498L190,477Z" fill="none" stroke="black" stroke-width="5" /><path d="M276,423L224,473L201,520L258,495L241,497L238,482L225,477L258,441L267,476L263,436Z" fill="none" stroke="black" stroke-width="5" /><path d="M208,422L188,465L193,460L201,444Z" fill="none" stroke="black" stroke-width="5" /><path d="M508,424L497,421L487,425L490,454L495,453L510,434L511,427Z" fill="none" stroke="black" stroke-width="5" /><path d="M343,382L340,385Z" fill="none" stroke="black" stroke-width="5" /><path d="M436,376L428,382L424,409L439,427L451,428L456,423L455,389L446,379Z" fill="none" stroke="black" stroke-width="5" /><path d="M164,368L160,367L137,387L164,388Z" fill="none" stroke="black" stroke-width="5" /><path d="M226,329L211,343L206,357L223,377L234,382L238,377L234,343L230,330Z" fill="none" stroke="black" stroke-width="5" /><path d="M494,305L483,308L478,316L478,359L473,378L485,389L493,387L507,358L503,320Z" fill="none" stroke="black" stroke-width="5" /><path d="M437,237L432,320L348,378L435,319Z" fill="none" stroke="black" stroke-width="5" /><path d="M440,181L399,183L329,258L296,322L296,380L328,363L337,387L335,357L297,367L301,313L337,250L405,180L438,183L438,222Z" fill="none" stroke="black" stroke-width="5" /><path d="M115,13L31,602L480,683L635,484L557,121L229,182L250,401L499,41L330,408L550,119L593,376L137,624Z" fill="none" stroke="black" stroke-width="5" /></svg>