<svg baseProfile="tiny" height="300px" version="1.2" width="300px" xmlns="http://www.w3.org/2000/svg" xmlns:ev="http://www.w3.org/2001/xml-events" xmlns:xlink="http://www.w3.org/1999/xlink"><defs /><path d="M133,243L127,241L119,244L116,247L114,251L114,256L115,258L121,262L126,262L132,259L134,257L137,250L135,245Z" fill="none" stroke="black" stroke-width="2" /><path d="M18,172L29,180L67,194L43,209L41,213L69,194L22,176L19,173L22,170Z" fill="none" stroke="black" stroke-width="2" /><path d="M24,170L29,170L30,169L25,169Z" fill="none" stroke="black" stroke-width="2" /><path d="M142,146L141,147Z" fill="none" stroke="black" stroke-width="2" /><path d="M142,134L139,136L133,137L121,143L124,142L131,149L135,151L136,150L134,148L134,146L138,142L141,142L142,144L143,143Z" fill="none" stroke="black" stroke-width="2" /><path d="M111,132L112,133L112,134L114,134L114,133L113,132Z" fill="none" stroke="black" stroke-width="2" /><path d="M147,122L146,123Z" fill="none" stroke="black" stroke-width="2" /><path d="M139,119L139,120L140,121L141,121L141,119Z" fill="none" stroke="black" stroke-width="2" /><path d="M284,84L235,108L234,85L211,277L180,277L127,220L98,225L40,163L49,147L36,169L90,217L45,214L91,218L120,270L141,264L98,245L130,222L144,261L210,284L268,230L248,164L296,142L251,134Z" fill="none" stroke="black" stroke-width="2" /><path d="M212,89L215,87L216,85L216,79L218,77L220,77L224,82L226,79L229,79L230,80L230,84L232,85L229,78L223,79L220,76L217,76L215,80L215,85Z" fill="none" stroke="black" stroke-width="2" /><path d="M213,15L130,77L95,77L84,101L3,120L76,144L51,148L80,163L81,145L25,117L79,102L120,116L126,91L110,90L127,105L102,117L91,83L132,81L190,31L201,51L184,93L196,110L210,90L198,101L187,87Z" fill="none" stroke="black" stroke-width="2" /></svg>