<svg baseProfile="tiny" height="579px" version="1.2" width="600px" xmlns="http://www.w3.org/2000/svg" xmlns:ev="http://www.w3.org/2001/xml-events" xmlns:xlink="http://www.w3.org/1999/xlink"><defs /><path d="M108,279L109,280Z" fill="none" stroke="black" stroke-width="5" /><path d="M101,233L92,241L92,243L99,249L103,250L103,249L99,248L95,245L95,240L101,235Z" fill="none" stroke="black" stroke-width="5" /><path d="M385,233L396,234L399,237L399,242L396,248L397,248L401,241L400,235L397,233L391,232Z" fill="none" stroke="black" stroke-width="5" /><path d="M181,191L180,192L180,193L181,192Z" fill="none" stroke="black" stroke-width="5" /><path d="M145,186L146,186Z" fill="none" stroke="black" stroke-width="5" /><path d="M529,180L491,226L557,298L530,419L436,491L340,435L386,455L377,556L300,562L289,493L311,573L523,442L569,285Z" fill="none" stroke="black" stroke-width="5" /><path d="M273,87L259,99L246,141L247,150L262,162L288,157L294,139L291,106L284,94Z" fill="none" stroke="black" stroke-width="5" /><path d="M269,75L264,77L255,86L255,87L263,79L269,76Z" fill="none" stroke="black" stroke-width="5" /><path d="M249,28L76,242L178,259L121,559L269,492L181,261L322,430L286,223L125,206L295,193L112,179L190,40L306,74L320,239L414,220L386,429L550,317L501,246L511,392L390,423L415,218L325,236Z" fill="none" stroke="black" stroke-width="5" /></svg>