<svg baseProfile="tiny" height="608px" version="1.2" width="700px" xmlns="http://www.w3.org/2000/svg" xmlns:ev="http://www.w3.org/2001/xml-events" xmlns:xlink="http://www.w3.org/1999/xlink"><defs /><path d="M521,565L519,567L518,567L513,572L512,572L510,574L509,574L506,577L505,577L502,579L500,579L499,580L494,580L493,581L490,581L491,581L492,582L495,582L496,583L502,583L503,584L505,584L503,582L503,580L507,576L508,576L510,574L513,573Z" fill="none" stroke="black" stroke-width="5" /><path d="M283,521L282,527L280,531L280,534L274,552L263,573L263,575L266,575L265,574L266,568L276,549L279,540L279,537L280,536L280,532L282,529Z" fill="none" stroke="black" stroke-width="5" /><path d="M30,478L31,485L32,486L32,490L33,491L33,494L36,501L36,504L38,507L38,509L40,512L40,514L42,517L42,519L45,524L45,526L47,530L47,528L42,518L41,513L38,508L38,506L34,496L34,493L32,489L32,484L31,483Z" fill="none" stroke="black" stroke-width="5" /><path d="M127,469L127,473L126,474L126,480L125,481L125,487L124,488L124,494L123,495L123,500L122,501L122,506L121,507L121,510L125,514L122,510L122,501L124,497L124,493L125,492L125,487L126,486L126,477L127,476Z" fill="none" stroke="black" stroke-width="5" /><path d="M128,459L128,461Z" fill="none" stroke="black" stroke-width="5" /><path d="M607,451L609,453Z" fill="none" stroke="black" stroke-width="5" /><path d="M596,438L597,439Z" fill="none" stroke="black" stroke-width="5" /><path d="M428,438L427,439L427,440L426,441L426,442L425,443L425,444L424,445L424,447L425,447L426,446L426,445L427,444L427,442L428,441Z" fill="none" stroke="black" stroke-width="5" /><path d="M407,434L406,434L406,435L403,438Z" fill="none" stroke="black" stroke-width="5" /><path d="M592,433L593,434L593,435L594,436L594,435Z" fill="none" stroke="black" stroke-width="5" /><path d="M418,429L417,430L417,431L415,433L415,434L414,435L414,436L413,437L413,438L412,439L413,439L413,438L415,436L415,435L416,434L416,433L417,432L417,431L418,430Z" fill="none" stroke="black" stroke-width="5" /><path d="M402,427L401,427L400,428L399,428L398,429L397,429L396,430L397,430L398,429L399,429L400,428L401,428Z" fill="none" stroke="black" stroke-width="5" /><path d="M615,424L655,452L663,483L662,552L657,566L639,579L645,548L642,515L611,455L642,518L643,553L635,583L653,572L662,556L665,491L656,453Z" fill="none" stroke="black" stroke-width="5" /><path d="M446,419L444,421L444,422L443,423L443,424L442,425L442,426L441,427L441,429L440,430L440,434L442,432L442,431L443,430L443,428L445,426L445,425L446,424Z" fill="none" stroke="black" stroke-width="5" /><path d="M455,418L455,427L456,428L456,419Z" fill="none" stroke="black" stroke-width="5" /><path d="M29,391L25,420L26,454L29,475L26,454L26,441L25,440L26,410L27,403L29,399Z" fill="none" stroke="black" stroke-width="5" /><path d="M640,376L640,378Z" fill="none" stroke="black" stroke-width="5" /><path d="M38,363L38,365L36,368L36,370L35,371L35,373L34,374L34,376L33,377L33,379L32,380L32,383L31,384L31,386L30,387L30,389L30,388L31,387L31,385L32,384L32,382L33,381L33,379L34,378L34,375L35,374L35,372L36,371L36,370L37,369L37,367L38,366Z" fill="none" stroke="black" stroke-width="5" /><path d="M75,360L75,361L74,362L74,363L75,363Z" fill="none" stroke="black" stroke-width="5" /><path d="M100,354L100,358Z" fill="none" stroke="black" stroke-width="5" /><path d="M128,343L128,346L129,347L129,345L128,344Z" fill="none" stroke="black" stroke-width="5" /><path d="M136,340L136,342L137,343L137,344L137,342L136,341Z" fill="none" stroke="black" stroke-width="5" /><path d="M140,326L140,329L141,330L141,331L143,333L143,334L144,334L143,333L143,332L142,331L142,330L141,329L141,328L140,327Z" fill="none" stroke="black" stroke-width="5" /><path d="M386,266L388,272L405,285L411,286L429,294L439,296L448,301L466,307L474,306L474,299L465,286L452,275L431,262L414,257L399,257L390,261Z" fill="none" stroke="black" stroke-width="5" /><path d="M438,199L438,201L437,202L438,203L438,206L440,208L440,209L445,214L446,214L451,217L459,217L460,216L462,216L464,214L464,213L465,212L465,208L464,207L464,206L460,202L455,200L450,196L449,196L448,195L443,195L442,196L441,196Z" fill="none" stroke="black" stroke-width="5" /><path d="M251,218L258,224L351,220L257,222L252,212L261,200L277,188L296,181L338,181L362,190L373,205L366,215L357,219L368,215L374,203L362,189L342,181L296,180L262,198Z" fill="none" stroke="black" stroke-width="5" /><path d="M483,171L482,177L484,185L491,195L507,211L513,215L521,218L527,217L531,214L533,211L532,196L525,183L518,176L508,170L497,167L488,168Z" fill="none" stroke="black" stroke-width="5" /><path d="M483,89L483,92L482,94L483,95L484,99L494,109L500,112L504,112L505,113L511,112L514,109L515,107L515,100L514,99L513,94L511,92L511,91L504,84L502,83L491,83L487,85Z" fill="none" stroke="black" stroke-width="5" /><path d="M378,101L378,105L383,110L410,109L414,111L430,112L436,115L448,117L456,117L460,114L459,107L453,98L443,89L433,84L421,84L410,82L399,84L383,94Z" fill="none" stroke="black" stroke-width="5" /><path d="M494,43L402,22L307,85L490,41L631,399L322,292L162,309L186,249L102,281L290,102L40,358L119,277L171,338L81,573L49,534L79,578L164,388L158,540L177,357L227,524L175,498L232,530L187,388L312,427L284,519L355,367L217,345L430,317L487,359L464,449L268,575L533,421L529,555L526,364L603,471L561,563L606,478L564,392L612,420L639,366Z" fill="none" stroke="black" stroke-width="5" /></svg>