<svg baseProfile="tiny" height="700px" version="1.2" width="651px" xmlns="http://www.w3.org/2000/svg" xmlns:ev="http://www.w3.org/2001/xml-events" xmlns:xlink="http://www.w3.org/1999/xlink"><defs /><path d="M282,469L257,469L237,488L237,511L249,527L265,531L269,524L267,517L287,505L278,490L287,473Z" fill="none" stroke="black" stroke-width="5" /><path d="M359,471L358,476L375,483L372,504L386,504L386,524L404,522L416,512L424,487L411,467L383,463Z" fill="none" stroke="black" stroke-width="5" /><path d="M118,415L116,417Z" fill="none" stroke="black" stroke-width="5" /><path d="M387,391L352,368L311,370L272,409L269,439L292,456L297,423L327,429L360,417L366,449L391,423Z" fill="none" stroke="black" stroke-width="5" /><path d="M599,283L575,533L397,634L191,562L122,412L219,573L100,671L280,616L575,657L470,573L601,495Z" fill="none" stroke="black" stroke-width="5" /><path d="M290,249L238,246L189,280L163,330L165,362L182,385L240,399L285,369L315,299L310,268Z" fill="none" stroke="black" stroke-width="5" /><path d="M398,228L361,266L363,325L408,381L440,392L468,386L503,350L506,300L453,238Z" fill="none" stroke="black" stroke-width="5" /><path d="M597,55L451,102L363,240L385,182L551,201L537,218L583,268L541,221L560,203L386,175L488,79Z" fill="none" stroke="black" stroke-width="5" /><path d="M397,89L333,180L241,103L285,196L54,59L259,187L129,237L107,423L138,234L214,189L297,245L55,59L193,99L305,245L251,117L333,182Z" fill="none" stroke="black" stroke-width="5" /><path d="M604,29L548,22L447,87L373,165L349,239L391,150L449,86L548,23L593,21L599,54Z" fill="none" stroke="black" stroke-width="5" /></svg>