<svg baseProfile="tiny" height="469px" version="1.2" width="600px" xmlns="http://www.w3.org/2000/svg" xmlns:ev="http://www.w3.org/2001/xml-events" xmlns:xlink="http://www.w3.org/1999/xlink"><defs /><path d="M541,424L542,427L546,429L560,429L564,427L564,423L560,419L563,421L563,426L561,428L556,428L553,425L550,418L556,415L549,415Z" fill="none" stroke="black" stroke-width="5" /><path d="M584,400L569,405L563,411L569,413L584,413L568,411L570,406L581,403Z" fill="none" stroke="black" stroke-width="5" /><path d="M87,395L88,396L95,396L96,395L95,395L94,396L88,396Z" fill="none" stroke="black" stroke-width="5" /><path d="M95,389L96,390Z" fill="none" stroke="black" stroke-width="5" /><path d="M86,393L86,390L87,389L91,389L92,388L93,388L87,388L86,389Z" fill="none" stroke="black" stroke-width="5" /><path d="M80,381L80,383L81,382Z" fill="none" stroke="black" stroke-width="5" /><path d="M34,374L34,377Z" fill="none" stroke="black" stroke-width="5" /><path d="M74,373L77,376L77,377L79,379L77,377L77,376Z" fill="none" stroke="black" stroke-width="5" /><path d="M38,381L52,389L70,390L79,385L74,386L60,376L59,372L57,374L73,385L72,389L50,388Z" fill="none" stroke="black" stroke-width="5" /><path d="M71,369L72,370Z" fill="none" stroke="black" stroke-width="5" /><path d="M39,369L36,372Z" fill="none" stroke="black" stroke-width="5" /><path d="M63,368L62,369Z" fill="none" stroke="black" stroke-width="5" /><path d="M42,367L41,368Z" fill="none" stroke="black" stroke-width="5" /><path d="M44,366L45,365L48,365L51,363L59,363L50,363Z" fill="none" stroke="black" stroke-width="5" /><path d="M64,360L63,361L64,361L66,363L66,365L68,365L69,366L68,365L68,364Z" fill="none" stroke="black" stroke-width="5" /><path d="M583,355L584,356Z" fill="none" stroke="black" stroke-width="5" /><path d="M350,354L352,355L378,355L376,354L353,354L352,353Z" fill="none" stroke="black" stroke-width="5" /><path d="M342,352L343,352L344,353L347,353L346,352Z" fill="none" stroke="black" stroke-width="5" /><path d="M119,350L141,370Z" fill="none" stroke="black" stroke-width="5" /><path d="M338,349L338,350L339,350L340,351L340,350L339,350Z" fill="none" stroke="black" stroke-width="5" /><path d="M117,348L117,349Z" fill="none" stroke="black" stroke-width="5" /><path d="M548,346L552,346L557,349L565,349L567,351L577,351L581,354L575,350L556,348L549,345Z" fill="none" stroke="black" stroke-width="5" /><path d="M389,341L390,342L390,349L386,352L380,353L380,354L385,353L387,351L390,350L391,348L391,343Z" fill="none" stroke="black" stroke-width="5" /><path d="M334,341L334,344L335,345L335,346L335,345L334,344Z" fill="none" stroke="black" stroke-width="5" /><path d="M540,339L541,339Z" fill="none" stroke="black" stroke-width="5" /><path d="M338,336L335,339Z" fill="none" stroke="black" stroke-width="5" /><path d="M346,333L344,333L343,334L341,334L340,335L341,334L344,334L345,333Z" fill="none" stroke="black" stroke-width="5" /><path d="M373,332L375,332L376,334L378,334L381,336L384,336L387,339L384,336L380,334L378,334L375,332Z" fill="none" stroke="black" stroke-width="5" /><path d="M532,331L534,333Z" fill="none" stroke="black" stroke-width="5" /><path d="M349,332L353,332L354,331L369,332L371,331L354,331L353,332Z" fill="none" stroke="black" stroke-width="5" /><path d="M13,315L12,316Z" fill="none" stroke="black" stroke-width="5" /><path d="M18,310L15,313Z" fill="none" stroke="black" stroke-width="5" /><path d="M21,308L24,308Z" fill="none" stroke="black" stroke-width="5" /><path d="M375,285L374,285L371,288L373,286L374,286Z" fill="none" stroke="black" stroke-width="5" /><path d="M317,264L332,278L333,314L338,323L341,293L345,288L340,283L340,292L336,293L333,281L336,280Z" fill="none" stroke="black" stroke-width="5" /><path d="M424,260L387,278L387,290L382,285L385,279L377,284L381,285L386,323L391,312L392,277Z" fill="none" stroke="black" stroke-width="5" /><path d="M98,248L96,300L67,290L95,304L96,331L67,341L43,310L26,309L67,342L47,353L98,331L114,346L98,329Z" fill="none" stroke="black" stroke-width="5" /><path d="M478,247L479,248L479,249L480,250L479,249L479,248Z" fill="none" stroke="black" stroke-width="5" /><path d="M99,240L99,246Z" fill="none" stroke="black" stroke-width="5" /><path d="M464,233L465,233L468,236L465,233Z" fill="none" stroke="black" stroke-width="5" /><path d="M204,233L212,233Z" fill="none" stroke="black" stroke-width="5" /><path d="M241,233L239,232L238,233L216,233L215,234L218,235L228,235L232,233Z" fill="none" stroke="black" stroke-width="5" /><path d="M100,232L100,237Z" fill="none" stroke="black" stroke-width="5" /><path d="M322,230L323,230Z" fill="none" stroke="black" stroke-width="5" /><path d="M247,231L246,231L245,230L244,231L243,231L243,232L244,231Z" fill="none" stroke="black" stroke-width="5" /><path d="M194,227L195,228L196,228L199,231L201,231L202,232L202,231L201,230L199,230L198,229L197,229Z" fill="none" stroke="black" stroke-width="5" /><path d="M256,224L255,224L254,225L254,226L252,228L251,228L250,229L249,229L249,230L250,229L251,229L252,228L253,228L254,227L254,226Z" fill="none" stroke="black" stroke-width="5" /><path d="M190,220L191,221L191,222L192,223L192,224L192,223L191,222L191,221Z" fill="none" stroke="black" stroke-width="5" /><path d="M101,218L101,230Z" fill="none" stroke="black" stroke-width="5" /><path d="M255,216L255,217L256,218L256,220L257,221L257,222L257,219L256,218L256,217Z" fill="none" stroke="black" stroke-width="5" /><path d="M195,213L191,217L192,217L192,216Z" fill="none" stroke="black" stroke-width="5" /><path d="M247,211L248,211L249,212L250,212L252,214L253,214L252,213L251,213L249,211Z" fill="none" stroke="black" stroke-width="5" /><path d="M198,211L199,211Z" fill="none" stroke="black" stroke-width="5" /><path d="M232,207L232,208L235,208L236,209L245,209L241,209L240,208L236,208L235,207Z" fill="none" stroke="black" stroke-width="5" /><path d="M230,206L208,207L201,210L208,207L212,208L213,207L228,207Z" fill="none" stroke="black" stroke-width="5" /><path d="M103,202L103,212L102,213L102,216L102,213L103,212Z" fill="none" stroke="black" stroke-width="5" /><path d="M106,180L106,187L105,188L104,200L105,189L106,188Z" fill="none" stroke="black" stroke-width="5" /><path d="M108,168L108,175L107,176L107,178L107,176L108,175Z" fill="none" stroke="black" stroke-width="5" /><path d="M109,165L109,166Z" fill="none" stroke="black" stroke-width="5" /><path d="M357,161L345,163L315,163L352,163Z" fill="none" stroke="black" stroke-width="5" /><path d="M242,158L240,160Z" fill="none" stroke="black" stroke-width="5" /><path d="M355,148L356,149L358,149L361,152L361,157L359,159L362,156L362,153L358,149Z" fill="none" stroke="black" stroke-width="5" /><path d="M351,147L352,146L353,146L351,146Z" fill="none" stroke="black" stroke-width="5" /><path d="M115,143L115,146L113,148L113,152L111,155L110,163L110,159L111,158L111,155L113,152L113,148L115,146Z" fill="none" stroke="black" stroke-width="5" /><path d="M273,134L253,149L259,153L256,162L249,157L251,151L244,156L249,158L249,188L253,193L259,181L259,146Z" fill="none" stroke="black" stroke-width="5" /><path d="M119,134L118,135L118,137L117,138L117,139L117,138L118,137L118,135Z" fill="none" stroke="black" stroke-width="5" /><path d="M120,131L120,132Z" fill="none" stroke="black" stroke-width="5" /><path d="M125,122L125,123L123,125L123,126L122,127L122,128L122,127L123,126L123,125L125,123Z" fill="none" stroke="black" stroke-width="5" /><path d="M154,121L191,147L189,191L193,195L199,182L201,157L210,159Z" fill="none" stroke="black" stroke-width="5" /><path d="M450,116L457,225L382,206L325,228L387,207L462,231Z" fill="none" stroke="black" stroke-width="5" /><path d="M129,116L128,117Z" fill="none" stroke="black" stroke-width="5" /><path d="M132,111L132,112L130,114L132,112Z" fill="none" stroke="black" stroke-width="5" /><path d="M135,108L134,109Z" fill="none" stroke="black" stroke-width="5" /><path d="M448,103L448,113L449,114L449,111L448,110Z" fill="none" stroke="black" stroke-width="5" /><path d="M319,98L321,100Z" fill="none" stroke="black" stroke-width="5" /><path d="M277,96L278,96Z" fill="none" stroke="black" stroke-width="5" /><path d="M148,96L147,97Z" fill="none" stroke="black" stroke-width="5" /><path d="M152,93L151,94Z" fill="none" stroke="black" stroke-width="5" /><path d="M270,90L272,92L273,92L275,94L272,91L271,91Z" fill="none" stroke="black" stroke-width="5" /><path d="M158,89L159,89Z" fill="none" stroke="black" stroke-width="5" /><path d="M445,86L445,94L446,95L446,98L447,99L447,101L447,97L446,96L446,91L445,90Z" fill="none" stroke="black" stroke-width="5" /><path d="M143,371L580,388L504,354L481,252L502,411L283,397L305,148L346,145L306,86L283,365Z" fill="none" stroke="black" stroke-width="5" /><path d="M163,86L162,87L161,87L162,87Z" fill="none" stroke="black" stroke-width="5" /><path d="M165,85L166,84L168,84L166,84Z" fill="none" stroke="black" stroke-width="5" /><path d="M244,79L247,79Z" fill="none" stroke="black" stroke-width="5" /><path d="M241,78L242,78Z" fill="none" stroke="black" stroke-width="5" /><path d="M218,77L239,77Z" fill="none" stroke="black" stroke-width="5" /><path d="M216,76L188,77L171,82L188,77Z" fill="none" stroke="black" stroke-width="5" /><path d="M398,67L368,91L372,92L370,103L365,102L365,94L358,99L362,100L362,128L366,133L373,118L373,88Z" fill="none" stroke="black" stroke-width="5" /><path d="M258,63L254,79L249,80L257,82L268,89L254,80Z" fill="none" stroke="black" stroke-width="5" /><path d="M260,58L259,59L259,61L259,59Z" fill="none" stroke="black" stroke-width="5" /><path d="M262,53L261,54L261,56L261,54Z" fill="none" stroke="black" stroke-width="5" /><path d="M431,49L438,61L444,84L441,69Z" fill="none" stroke="black" stroke-width="5" /><path d="M429,46L430,47Z" fill="none" stroke="black" stroke-width="5" /><path d="M427,43L428,44Z" fill="none" stroke="black" stroke-width="5" /><path d="M269,43L268,44Z" fill="none" stroke="black" stroke-width="5" /><path d="M282,31L281,32Z" fill="none" stroke="black" stroke-width="5" /><path d="M289,26L288,27Z" fill="none" stroke="black" stroke-width="5" /><path d="M405,24L406,24L407,25L406,24Z" fill="none" stroke="black" stroke-width="5" /><path d="M399,21L400,21L401,22L402,22L401,22L400,21Z" fill="none" stroke="black" stroke-width="5" /><path d="M298,21L297,22L295,22L293,24L292,24L291,25L292,24L293,24L295,22L297,22Z" fill="none" stroke="black" stroke-width="5" /><path d="M304,19L302,19L301,20L300,20L301,20L302,19Z" fill="none" stroke="black" stroke-width="5" /><path d="M392,18L393,19L395,19L396,20L397,20L396,20L395,19L393,19Z" fill="none" stroke="black" stroke-width="5" /><path d="M381,16L386,16L387,17L390,17L388,17L387,16Z" fill="none" stroke="black" stroke-width="5" /><path d="M319,16L314,16L313,17L307,17L306,18L307,17L313,17L314,16Z" fill="none" stroke="black" stroke-width="5" /><path d="M354,13L379,15Z" fill="none" stroke="black" stroke-width="5" /><path d="M352,14L338,13L330,15L321,15Z" fill="none" stroke="black" stroke-width="5" /></svg>