<svg baseProfile="tiny" height="508px" version="1.2" width="600px" xmlns="http://www.w3.org/2000/svg" xmlns:ev="http://www.w3.org/2001/xml-events" xmlns:xlink="http://www.w3.org/1999/xlink"><defs /><path d="M407,471L408,472L408,473L409,474L409,476L410,477L410,478L410,476L409,475L409,474L408,473L408,472Z" fill="none" stroke="black" stroke-width="5" /><path d="M336,443L353,452L377,448L350,442L360,448L359,451L353,451Z" fill="none" stroke="black" stroke-width="5" /><path d="M173,433L196,440L211,439L194,439L190,437L192,433L212,433L192,432L188,435Z" fill="none" stroke="black" stroke-width="5" /><path d="M452,406L438,420L441,417L442,417Z" fill="none" stroke="black" stroke-width="5" /><path d="M149,352L150,353L161,353L158,351L152,351L151,352Z" fill="none" stroke="black" stroke-width="5" /><path d="M551,334L552,335L552,336L553,337L552,336L552,335Z" fill="none" stroke="black" stroke-width="5" /><path d="M547,328L548,329Z" fill="none" stroke="black" stroke-width="5" /><path d="M458,321L451,324L449,336L452,349L460,352L462,349L457,350L452,345L450,329L459,324L468,333L463,324Z" fill="none" stroke="black" stroke-width="5" /><path d="M56,311L53,314L45,332L54,313Z" fill="none" stroke="black" stroke-width="5" /><path d="M524,309L536,316L545,325L536,316Z" fill="none" stroke="black" stroke-width="5" /><path d="M514,307L517,307Z" fill="none" stroke="black" stroke-width="5" /><path d="M498,305L509,346L469,349L435,413L396,379L441,393L467,352L431,386L383,364L409,410L385,470L337,472L319,443L349,493L411,483L389,453L511,347Z" fill="none" stroke="black" stroke-width="5" /><path d="M446,300L447,301L447,302L450,305L447,302L447,301Z" fill="none" stroke="black" stroke-width="5" /><path d="M74,295L73,296L72,296L66,302L65,302L63,304Z" fill="none" stroke="black" stroke-width="5" /><path d="M319,309L260,296L220,356L313,305L345,369L300,436L228,411L227,304L131,354L212,341L235,422L164,477L177,368L130,431L121,364L93,403L140,481L315,438L356,378Z" fill="none" stroke="black" stroke-width="5" /><path d="M144,293L144,294Z" fill="none" stroke="black" stroke-width="5" /><path d="M133,291L147,310Z" fill="none" stroke="black" stroke-width="5" /><path d="M363,290L362,291L362,293L361,294L361,297L363,297L364,298L364,302L367,297L367,295L363,291Z" fill="none" stroke="black" stroke-width="5" /><path d="M81,290L80,290L78,292L79,291L80,291Z" fill="none" stroke="black" stroke-width="5" /><path d="M379,289L379,290L376,293L375,293L378,296L378,291L379,290Z" fill="none" stroke="black" stroke-width="5" /><path d="M143,288L143,291Z" fill="none" stroke="black" stroke-width="5" /><path d="M131,288L132,289Z" fill="none" stroke="black" stroke-width="5" /><path d="M142,283L142,285Z" fill="none" stroke="black" stroke-width="5" /><path d="M126,281L128,283L128,284L130,286L128,284L128,283Z" fill="none" stroke="black" stroke-width="5" /><path d="M103,278L95,281L83,289L90,284Z" fill="none" stroke="black" stroke-width="5" /><path d="M105,277L111,274L120,274L125,279L118,273L113,273Z" fill="none" stroke="black" stroke-width="5" /><path d="M450,275L430,271L431,282L412,295L418,315L389,334L350,300L361,361L365,350L374,355L363,345L358,310L388,335L442,297Z" fill="none" stroke="black" stroke-width="5" /><path d="M357,268L358,269L359,274L361,277L361,279L364,283L362,280L360,272Z" fill="none" stroke="black" stroke-width="5" /><path d="M507,260L498,262L491,274L491,289L483,292L486,309L470,333L487,311L492,277L501,265L507,269L499,300L504,300L501,286L510,283Z" fill="none" stroke="black" stroke-width="5" /><path d="M499,255L498,256L499,256Z" fill="none" stroke="black" stroke-width="5" /><path d="M430,253L419,253L413,267L402,266L396,275L402,292L387,284L399,293L399,299L387,305L401,299L403,279L418,274L430,259L432,266L434,257Z" fill="none" stroke="black" stroke-width="5" /><path d="M271,256L274,259L286,263L296,264L301,262L276,250L282,254L286,260L282,261Z" fill="none" stroke="black" stroke-width="5" /><path d="M457,235L457,240L458,241L458,246L459,247L459,250L459,247L458,246L458,240L457,239Z" fill="none" stroke="black" stroke-width="5" /><path d="M178,230L184,240L178,259L184,278L192,288L208,284L216,276L197,287L191,287L178,265L185,245Z" fill="none" stroke="black" stroke-width="5" /><path d="M171,225L172,231L167,237L163,236L156,227L154,227L158,240L164,243L163,247L172,231L176,229Z" fill="none" stroke="black" stroke-width="5" /><path d="M166,224L168,224Z" fill="none" stroke="black" stroke-width="5" /><path d="M158,225L159,224L163,224L159,224Z" fill="none" stroke="black" stroke-width="5" /><path d="M446,217L446,218Z" fill="none" stroke="black" stroke-width="5" /><path d="M141,216L147,232L133,230L127,251L138,251L126,254L169,304L159,322L169,309L205,307L179,313L130,263L138,253L153,258L137,248L135,232L145,239L152,226Z" fill="none" stroke="black" stroke-width="5" /><path d="M172,213L224,246L237,261L222,244Z" fill="none" stroke="black" stroke-width="5" /><path d="M445,210L445,212Z" fill="none" stroke="black" stroke-width="5" /><path d="M444,205L444,206Z" fill="none" stroke="black" stroke-width="5" /><path d="M452,204L452,205Z" fill="none" stroke="black" stroke-width="5" /><path d="M451,198L451,201Z" fill="none" stroke="black" stroke-width="5" /><path d="M443,198L443,200Z" fill="none" stroke="black" stroke-width="5" /><path d="M192,197L194,199Z" fill="none" stroke="black" stroke-width="5" /><path d="M165,197L165,202L166,203L166,206L168,210L170,212L167,208L167,206L166,205L166,201L165,200Z" fill="none" stroke="black" stroke-width="5" /><path d="M442,193L442,196Z" fill="none" stroke="black" stroke-width="5" /><path d="M130,189L130,191L131,192L131,194L131,192L130,191Z" fill="none" stroke="black" stroke-width="5" /><path d="M137,186L137,187Z" fill="none" stroke="black" stroke-width="5" /><path d="M137,182L137,183Z" fill="none" stroke="black" stroke-width="5" /><path d="M447,177L447,181L448,182L448,187L450,192L450,196L450,192L449,191Z" fill="none" stroke="black" stroke-width="5" /><path d="M443,161L444,162L444,166L445,167L445,171L446,172L446,175L446,171L445,170L445,166L444,165L444,162Z" fill="none" stroke="black" stroke-width="5" /><path d="M506,160L534,187L573,276L558,282L515,184L557,278L563,369L573,275L535,187Z" fill="none" stroke="black" stroke-width="5" /><path d="M469,131L513,181Z" fill="none" stroke="black" stroke-width="5" /><path d="M466,129L444,134L400,225L335,262L320,166L331,152L349,165L329,144L320,234L343,281L344,252L395,231L443,137Z" fill="none" stroke="black" stroke-width="5" /><path d="M127,126L129,164L129,157L132,155L134,158L134,156L129,148Z" fill="none" stroke="black" stroke-width="5" /><path d="M119,115L134,116L145,130L162,171L165,190L160,165L143,125L132,115Z" fill="none" stroke="black" stroke-width="5" /><path d="M125,100L124,101L124,102L125,103L125,104L128,104L128,101L127,100Z" fill="none" stroke="black" stroke-width="5" /><path d="M123,91L60,158L26,256L36,370L50,226L117,116L51,223L31,345L27,255L60,159Z" fill="none" stroke="black" stroke-width="5" /><path d="M315,90L320,115L323,119L326,119L322,115L325,112L330,111L331,108L324,97Z" fill="none" stroke="black" stroke-width="5" /><path d="M241,74L242,75Z" fill="none" stroke="black" stroke-width="5" /><path d="M435,72L422,76L435,113L395,202L361,229L341,223L382,217L434,115L450,114L426,71L497,152Z" fill="none" stroke="black" stroke-width="5" /><path d="M232,70L234,72Z" fill="none" stroke="black" stroke-width="5" /><path d="M127,86L154,72L141,95L153,106L173,188L190,196L174,188L166,142L143,96L157,70Z" fill="none" stroke="black" stroke-width="5" /><path d="M229,57L232,60L232,61L235,64L235,62L234,61L233,61Z" fill="none" stroke="black" stroke-width="5" /><path d="M292,37L235,131L264,131L276,233L197,201L259,247L221,270L278,232L297,162L256,163L313,124L296,61L312,124L275,121L265,56L295,59L268,43L301,45L357,170Z" fill="none" stroke="black" stroke-width="5" /><path d="M196,15L199,18L205,18L209,22L210,31L216,39L218,29L217,20L220,17L217,15Z" fill="none" stroke="black" stroke-width="5" /><path d="M167,18L180,28L180,38L193,36L205,41L231,68L204,33L203,25L197,26L191,15Z" fill="none" stroke="black" stroke-width="5" /></svg>