<svg baseProfile="tiny" height="574px" version="1.2" width="700px" xmlns="http://www.w3.org/2000/svg" xmlns:ev="http://www.w3.org/2001/xml-events" xmlns:xlink="http://www.w3.org/1999/xlink"><defs /><path d="M350,110L289,117L245,142L199,192L180,245L182,292L211,347L254,387L305,407L389,399L441,372L475,332L496,272L499,219L472,168L411,127Z" fill="none" stroke="black" stroke-width="5" /><path d="M310,78L310,79L311,80L311,83L312,84L312,89L313,90L313,92L314,93L314,94L315,94L316,95L317,95L318,94L319,94L319,93L320,92L320,90L319,89L319,87L317,85L317,84L311,78Z" fill="none" stroke="black" stroke-width="5" /><path d="M348,76L347,76L345,78L345,79L344,80L344,81L343,82L343,83L342,84L342,86L341,87L341,89L340,90L340,92L341,93L345,93L345,92L346,91L346,89L347,88L347,84L348,83Z" fill="none" stroke="black" stroke-width="5" /><path d="M454,40L442,46L427,61L422,73L422,89L426,100L440,116L451,121L471,122L487,115L499,103L502,97L503,77L492,55L482,46L474,41Z" fill="none" stroke="black" stroke-width="5" /><path d="M232,37L221,45L212,61L211,80L213,90L218,99L229,108L236,110L257,110L263,107L269,101L276,89L279,79L279,68L276,57L271,48L259,38L248,36Z" fill="none" stroke="black" stroke-width="5" /><path d="M214,26L41,351L121,387L176,330L225,388L154,256L211,30L473,26L506,123L610,214L545,218L533,334L465,399L575,538L492,530L425,414L259,407L247,496L139,542L125,496L226,390L123,530L230,514L275,414L425,415L484,525L571,548L468,399L532,340L591,396L657,379L586,394L536,340L567,238L623,221L662,373L631,226L506,121L477,26Z" fill="none" stroke="black" stroke-width="5" /></svg>