<svg baseProfile="tiny" height="574px" version="1.2" width="700px" xmlns="http://www.w3.org/2000/svg" xmlns:ev="http://www.w3.org/2001/xml-events" xmlns:xlink="http://www.w3.org/1999/xlink"><defs /><path d="M543,464L544,465Z" fill="none" stroke="black" stroke-width="5" /><path d="M594,396L601,396L602,397L606,397L607,396L617,396Z" fill="none" stroke="black" stroke-width="5" /><path d="M582,392L583,393L584,393L585,394L587,394L588,395L592,395L589,395L588,394L586,394L585,393L584,393L583,392Z" fill="none" stroke="black" stroke-width="5" /><path d="M118,515L149,546L224,518L275,414L426,415L489,529L576,539L546,467L573,543L487,526L427,415L259,407L249,494L136,541L126,494L227,392Z" fill="none" stroke="black" stroke-width="5" /><path d="M579,390L580,391Z" fill="none" stroke="black" stroke-width="5" /><path d="M131,384L132,384Z" fill="none" stroke="black" stroke-width="5" /><path d="M572,383L574,385Z" fill="none" stroke="black" stroke-width="5" /><path d="M656,380L641,390L619,395L630,394L642,390Z" fill="none" stroke="black" stroke-width="5" /><path d="M218,380L221,383Z" fill="none" stroke="black" stroke-width="5" /><path d="M209,370L216,377Z" fill="none" stroke="black" stroke-width="5" /><path d="M49,358L68,365L90,384L106,387L129,385L88,383L65,363Z" fill="none" stroke="black" stroke-width="5" /><path d="M670,350L667,361L663,370L667,362Z" fill="none" stroke="black" stroke-width="5" /><path d="M152,349L152,361L147,372L141,379L134,383L139,381L146,374L150,366L158,360L156,361L153,359Z" fill="none" stroke="black" stroke-width="5" /><path d="M39,345L39,346L40,347L40,349L41,350L41,351L42,351L43,352L43,353L43,352L41,350L41,349L40,348L40,347L39,346Z" fill="none" stroke="black" stroke-width="5" /><path d="M671,344L671,347Z" fill="none" stroke="black" stroke-width="5" /><path d="M573,341L573,349L566,363L557,364L547,358L562,366L571,381L565,365L571,355Z" fill="none" stroke="black" stroke-width="5" /><path d="M146,336L147,337L147,339L148,340L148,341L149,342L149,343L150,344L151,347L151,346L150,345L150,343L149,342L149,340L148,339L148,338Z" fill="none" stroke="black" stroke-width="5" /><path d="M673,326L673,333L672,334L672,342L672,337L673,336Z" fill="none" stroke="black" stroke-width="5" /><path d="M674,318L674,322L673,323L673,324L674,323Z" fill="none" stroke="black" stroke-width="5" /><path d="M37,308L35,318L35,331L38,343L36,337Z" fill="none" stroke="black" stroke-width="5" /><path d="M38,305L38,306Z" fill="none" stroke="black" stroke-width="5" /><path d="M39,302L39,303Z" fill="none" stroke="black" stroke-width="5" /><path d="M43,292L43,293L42,294L42,295L41,296L41,298L40,299L40,300L40,299L41,298L41,296L42,295L42,294L43,293Z" fill="none" stroke="black" stroke-width="5" /><path d="M48,282L47,283L47,284L46,285L46,286L45,287L45,288L44,289L44,290L44,289L45,288L45,287L46,286L46,285L47,284L47,283Z" fill="none" stroke="black" stroke-width="5" /><path d="M664,278L669,287L673,305L672,296L669,287Z" fill="none" stroke="black" stroke-width="5" /><path d="M569,278L560,287L564,283L565,283L565,282Z" fill="none" stroke="black" stroke-width="5" /><path d="M89,252L70,260L54,273L70,260Z" fill="none" stroke="black" stroke-width="5" /><path d="M562,248L563,255L570,265L572,271L570,276L572,269L563,254Z" fill="none" stroke="black" stroke-width="5" /><path d="M103,227L99,243L91,251L98,246L99,241L101,239Z" fill="none" stroke="black" stroke-width="5" /><path d="M628,223L634,243L660,271L649,256L636,246Z" fill="none" stroke="black" stroke-width="5" /><path d="M625,222L626,222Z" fill="none" stroke="black" stroke-width="5" /><path d="M620,221L623,221Z" fill="none" stroke="black" stroke-width="5" /><path d="M610,214L570,232L545,218L553,280L534,332L466,397L480,428L536,458L478,425L468,399L532,340L543,354L551,226L564,244Z" fill="none" stroke="black" stroke-width="5" /><path d="M591,194L603,206Z" fill="none" stroke="black" stroke-width="5" /><path d="M586,189L589,192Z" fill="none" stroke="black" stroke-width="5" /><path d="M572,175L579,182Z" fill="none" stroke="black" stroke-width="5" /><path d="M349,110L239,147L180,246L212,348L306,407L438,374L497,265L475,172Z" fill="none" stroke="black" stroke-width="5" /><path d="M311,78L313,92L315,94L318,94L320,90L316,83Z" fill="none" stroke="black" stroke-width="5" /><path d="M348,76L346,77L341,87L340,91L342,93L344,93L346,91L347,83L348,82Z" fill="none" stroke="black" stroke-width="5" /><path d="M455,40L428,60L422,88L440,116L470,122L498,104L503,77L494,58L479,44Z" fill="none" stroke="black" stroke-width="5" /><path d="M232,37L213,59L213,89L230,108L259,109L276,89L277,60L261,39Z" fill="none" stroke="black" stroke-width="5" /><path d="M104,225L154,226L166,352L207,367L155,226L239,18L292,54L476,27L565,169L479,27L292,51L236,18L154,220L164,166Z" fill="none" stroke="black" stroke-width="5" /></svg>