<svg baseProfile="tiny" height="650px" version="1.2" width="643px" xmlns="http://www.w3.org/2000/svg" xmlns:ev="http://www.w3.org/2001/xml-events" xmlns:xlink="http://www.w3.org/1999/xlink"><defs /><path d="M315,273L316,274L316,275L316,274Z" fill="none" stroke="black" stroke-width="5" /><path d="M343,266L343,268L342,269L342,272L343,271Z" fill="none" stroke="black" stroke-width="5" /><path d="M242,190L255,194L276,207L285,214L298,228L298,226L274,203L257,193L249,190Z" fill="none" stroke="black" stroke-width="5" /><path d="M410,166L365,196L355,208L351,224L357,213L358,207L367,197L403,173Z" fill="none" stroke="black" stroke-width="5" /><path d="M208,89L210,95L217,103L223,114L229,121L236,134L236,139L233,146L234,147L235,142L237,139L237,132L211,92Z" fill="none" stroke="black" stroke-width="5" /><path d="M324,74L325,74Z" fill="none" stroke="black" stroke-width="5" /><path d="M455,50L445,65L427,103L428,111L436,125L428,107L431,94Z" fill="none" stroke="black" stroke-width="5" /><path d="M468,34L327,73L468,36L484,200L351,294L220,227L199,75L318,75L198,72L187,233L217,198L290,271L259,296L152,243L154,174L69,189L96,304L77,183L179,258L163,331L102,310L160,333L219,278L274,365L166,416L170,510L74,557L187,556L101,568L181,519L173,417L273,534L193,551L276,542L207,487L307,437L371,509L458,513L438,568L486,584L440,565L463,432L610,599L489,587L611,605L514,522L585,248L521,116L550,247L483,187Z" fill="none" stroke="black" stroke-width="5" /></svg>