<svg baseProfile="tiny" height="650px" version="1.2" width="643px" xmlns="http://www.w3.org/2000/svg" xmlns:ev="http://www.w3.org/2001/xml-events" xmlns:xlink="http://www.w3.org/1999/xlink"><defs /><path d="M469,550L468,550L464,554L464,555L460,559L460,560L453,567L453,568L450,571L450,573L451,573L454,570L454,569L463,560L463,559L468,554L468,553L469,552Z" fill="none" stroke="black" stroke-width="5" /><path d="M292,542L292,547L294,551L294,555L295,556L295,558L301,565L301,566L306,571L306,572L316,582L317,582L316,580L312,576L312,575L298,561L295,555L294,546L293,545L293,542Z" fill="none" stroke="black" stroke-width="5" /><path d="M331,475L328,475L327,476L321,476L320,477L315,479L313,481L312,481L310,483L309,483L307,485L306,485L304,487L303,487L299,491L304,489L306,487L307,487L309,485L310,485L315,481L316,481L321,478L323,478L324,477L328,477Z" fill="none" stroke="black" stroke-width="5" /><path d="M501,390L499,390L495,394L494,394L493,395L492,395L491,396L490,396L489,397L486,398L481,402L480,402L479,403L478,403L477,404L474,405L473,406L473,407L476,407L477,406L478,406L479,405L480,405L481,404L484,403L486,401L487,401L490,399L492,399L493,398L496,397L499,394L499,393L501,391Z" fill="none" stroke="black" stroke-width="5" /><path d="M149,382L149,386L150,388L153,391L159,394L161,396L184,407L186,407L187,408L194,408L191,406L181,403L174,399L172,399L162,394L160,392L157,391L152,386L152,381L150,381Z" fill="none" stroke="black" stroke-width="5" /><path d="M335,371L335,372L337,375L337,379L338,380L338,385L339,386L339,390L340,391L340,395L341,396L344,396L344,395L343,394L343,392L342,391L342,390L341,389L341,387L340,386L340,383L339,382L339,379L338,378L338,375L337,374L337,372L336,371Z" fill="none" stroke="black" stroke-width="5" /><path d="M225,325L222,326L219,329L218,329L214,333L213,333L207,339L206,339L199,346L199,347L202,346L205,343L206,343L210,339L211,339L215,335L216,335L225,326Z" fill="none" stroke="black" stroke-width="5" /><path d="M456,305L462,310L463,313L466,316L470,317L474,321L474,323L476,326L481,343L484,348L485,348L484,341L480,333L477,322L473,315L464,308L458,305Z" fill="none" stroke="black" stroke-width="5" /><path d="M450,272L450,275L451,276L451,277L452,278L453,278L455,280L456,280L459,282L462,282L463,283L467,283L468,284L471,284L471,282L470,282L469,281L463,281L462,280L460,280L459,279L458,279L457,278L456,278L453,275L453,274L452,273L452,271L451,271Z" fill="none" stroke="black" stroke-width="5" /><path d="M129,243L129,244L136,251L139,257L139,259L142,266L142,269L146,278L157,289L158,289L150,280L146,274L143,268L142,262L140,259L139,254L136,248L132,244Z" fill="none" stroke="black" stroke-width="5" /><path d="M214,237L211,237L210,238L209,238L209,242L208,243L208,244L194,258L193,258L193,259L192,260L195,259L202,252L203,252L205,250L205,249L206,248L207,248L212,243L212,242L214,239Z" fill="none" stroke="black" stroke-width="5" /><path d="M556,209L564,217L565,217L567,219L568,219L569,220L569,219L568,218L568,217L563,212L562,212L560,210L559,210L558,209Z" fill="none" stroke="black" stroke-width="5" /><path d="M100,166L99,167L98,167L95,170L94,173L92,175L92,176L88,183L88,185L87,186L87,188L86,189L86,201L87,202L87,203L88,203L89,204L90,204L90,187L91,186L91,182L93,179L93,177L95,175L96,172L99,169Z" fill="none" stroke="black" stroke-width="5" /><path d="M533,162L533,164L534,165L536,170L538,172L538,173L544,181L544,182L547,186L551,195L552,196L553,196L553,194L552,193L549,186L547,184L546,181L542,176L541,173L539,171L539,170Z" fill="none" stroke="black" stroke-width="5" /><path d="M60,132L56,134L48,143L45,151L46,155L54,163L59,170L62,170L68,173L76,172L81,167L83,163L82,156L77,146L74,143L72,139L66,133L64,132Z" fill="none" stroke="black" stroke-width="5" /><path d="M496,32L508,43L523,83L540,116L556,141L543,118L542,113L546,114L532,98L521,77L510,44L503,36Z" fill="none" stroke="black" stroke-width="5" /><path d="M473,14L374,74L475,182L314,148L153,235L88,116L138,192L67,234L33,174L119,409L268,472L218,626L270,474L337,448L380,520L301,519L340,618L223,633L344,618L386,521L427,629L549,631L493,598L529,484L486,592L550,626L495,644L426,626L459,502L408,498L552,418L558,122L594,246L444,235L547,356L485,466L339,446L507,373L433,307L427,410L326,422L259,316L155,364L297,376L307,460L150,440L145,331L237,270L139,333L76,236L175,287L261,190L280,338L367,348L415,176L539,245Z" fill="none" stroke="black" stroke-width="5" /></svg>