<svg baseProfile="tiny" height="540px" version="1.2" width="700px" xmlns="http://www.w3.org/2000/svg" xmlns:ev="http://www.w3.org/2001/xml-events" xmlns:xlink="http://www.w3.org/1999/xlink"><defs /><path d="M174,428L198,475L222,497L242,507L201,478Z" fill="none" stroke="black" stroke-width="5" /><path d="M173,423L173,426Z" fill="none" stroke="black" stroke-width="5" /><path d="M212,371L202,427L235,474L315,486L367,451L373,400L331,354L260,344Z" fill="none" stroke="black" stroke-width="5" /><path d="M129,323L151,339L163,345L171,346L158,342Z" fill="none" stroke="black" stroke-width="5" /><path d="M678,350L631,269L673,344L642,328L605,330L495,389L603,331L643,329Z" fill="none" stroke="black" stroke-width="5" /><path d="M310,266L306,284L294,294L268,295L259,289L272,296L295,294L307,283Z" fill="none" stroke="black" stroke-width="5" /><path d="M292,255L283,253L274,256L270,260L268,270L274,281L286,283L293,278L296,273L297,264Z" fill="none" stroke="black" stroke-width="5" /><path d="M361,240L344,265L351,293L371,307L405,303L419,281L415,253L393,236Z" fill="none" stroke="black" stroke-width="5" /><path d="M254,231L251,253L266,235L286,233L304,245L310,264L308,249L294,236L273,232L256,241Z" fill="none" stroke="black" stroke-width="5" /><path d="M526,228L457,262L452,236L428,413L396,348L420,405L400,476L327,515L247,509L357,506L408,466L440,375L493,390L444,375L427,309Z" fill="none" stroke="black" stroke-width="5" /><path d="M534,227L566,228L588,235L629,266L607,245L587,234L562,227Z" fill="none" stroke="black" stroke-width="5" /><path d="M22,341L127,322L24,329L129,209L241,277L173,388L255,309L385,338L223,319L250,255L135,208L59,250Z" fill="none" stroke="black" stroke-width="5" /><path d="M445,202L451,225L451,234L450,219Z" fill="none" stroke="black" stroke-width="5" /><path d="M308,200L302,204L301,210L306,215L313,215L317,212L317,204L313,200Z" fill="none" stroke="black" stroke-width="5" /><path d="M400,191L395,191L391,194L391,200L392,202L397,204L402,200L403,198L403,194Z" fill="none" stroke="black" stroke-width="5" /><path d="M427,164L436,178L444,200L440,186Z" fill="none" stroke="black" stroke-width="5" /><path d="M347,165L347,166L349,168L352,168L353,167L354,167L354,165L352,163L349,163Z" fill="none" stroke="black" stroke-width="5" /><path d="M490,81L459,55L407,60L287,160L255,229L302,146L370,131L426,162L397,117L406,96L466,76L489,131Z" fill="none" stroke="black" stroke-width="5" /></svg>