<svg baseProfile="tiny" height="661px" version="1.2" width="675px" xmlns="http://www.w3.org/2000/svg" xmlns:ev="http://www.w3.org/2001/xml-events" xmlns:xlink="http://www.w3.org/1999/xlink"><defs /><path d="M504,617L505,618L506,618L508,620L524,620L511,620L510,619L508,619L507,618L506,618L505,617Z" fill="none" stroke="black" stroke-width="5" /><path d="M313,595L311,595L309,597L308,597L306,599L306,600L303,603L303,604L301,606L301,607L300,608L300,610L301,611L302,611L303,612L305,612L307,610L308,610L311,607L311,606L314,603L314,602L315,601L315,598L313,596Z" fill="none" stroke="black" stroke-width="5" /><path d="M508,582L547,583L576,595L593,607L591,611L558,612L531,619L563,612L606,613L576,594L553,584L536,581Z" fill="none" stroke="black" stroke-width="5" /><path d="M634,570L634,571Z" fill="none" stroke="black" stroke-width="5" /><path d="M275,518L269,523L267,527L267,539L268,540L268,546L270,548L270,549L274,552L276,552L277,553L286,552L292,547L296,539L296,536L297,535L297,529L296,528L296,526L289,518Z" fill="none" stroke="black" stroke-width="5" /><path d="M317,416L316,417L312,417L310,418L304,425L304,437L305,438L306,443L308,447L314,453L318,453L320,452L322,450L322,449L324,448L327,442L327,428L326,427L326,423L323,418L321,417L318,417Z" fill="none" stroke="black" stroke-width="5" /><path d="M209,415L202,422L198,431L199,432L198,433L198,436L203,446L211,454L216,457L219,457L221,455L221,453L223,449L223,444L222,443L222,438L221,437L221,431L220,430L220,427L219,426L217,419L214,416L212,415Z" fill="none" stroke="black" stroke-width="5" /><path d="M351,373L347,373L346,374L344,374L340,378L340,382L341,383L341,385L345,389L348,389L350,387L350,385L351,384L351,383L352,382L352,380L353,379L353,377L352,376L352,374Z" fill="none" stroke="black" stroke-width="5" /><path d="M349,311L349,314Z" fill="none" stroke="black" stroke-width="5" /><path d="M346,296L346,301L347,302L347,306L348,307L348,309L348,307L347,306L347,302L346,301Z" fill="none" stroke="black" stroke-width="5" /><path d="M401,37L292,44L109,158L187,454L101,473L30,570L52,627L272,638L208,621L265,605L184,470L184,369L290,349L335,254L345,294L365,155L313,97L245,106L333,48L440,95L474,276L452,396L383,412L350,316L353,594L274,637L446,545L500,614L453,544L493,591L464,537L602,525L629,582L580,512L337,568L421,459L604,494L526,449L373,476L377,422L448,398L591,427L640,557L593,428L472,393L485,169Z" fill="none" stroke="black" stroke-width="5" /></svg>