<svg baseProfile="tiny" height="665px" version="1.2" width="700px" xmlns="http://www.w3.org/2000/svg" xmlns:ev="http://www.w3.org/2001/xml-events" xmlns:xlink="http://www.w3.org/1999/xlink"><defs /><path d="M294,242L283,255L281,273L297,300L312,301L323,288L323,261L299,242L317,253L323,281L315,298L298,298L282,272Z" fill="none" stroke="black" stroke-width="5" /><path d="M255,192L240,225L236,251Z" fill="none" stroke="black" stroke-width="5" /><path d="M371,133L400,214L425,241L453,251L426,240L401,213Z" fill="none" stroke="black" stroke-width="5" /><path d="M480,56L227,92L222,235L283,51L438,36L392,147L523,193L511,307L325,415L208,240L273,390L186,366L203,525L43,643L278,424L478,442L535,633L661,591L521,582L614,318L514,303Z" fill="none" stroke="black" stroke-width="5" /></svg>