<svg baseProfile="tiny" height="665px" version="1.2" width="700px" xmlns="http://www.w3.org/2000/svg" xmlns:ev="http://www.w3.org/2001/xml-events" xmlns:xlink="http://www.w3.org/1999/xlink"><defs /><path d="M294,242L283,255L281,273L297,300L312,301L323,288L323,261L313,247L299,242L317,253L323,281L315,298L298,298L282,273Z" fill="none" stroke="black" stroke-width="5" /><path d="M207,241L207,242Z" fill="none" stroke="black" stroke-width="5" /><path d="M255,192L240,225L236,251L242,226Z" fill="none" stroke="black" stroke-width="5" /><path d="M371,134L381,175L400,214L425,241L453,251L426,240L403,216Z" fill="none" stroke="black" stroke-width="5" /><path d="M480,56L227,92L222,235L284,50L438,36L511,307L324,415L208,244L273,390L42,642L255,406L480,443L536,633L666,584L521,582L614,318L514,303Z" fill="none" stroke="black" stroke-width="5" /></svg>