<svg baseProfile="tiny" height="545px" version="1.2" width="650px" xmlns="http://www.w3.org/2000/svg" xmlns:ev="http://www.w3.org/2001/xml-events" xmlns:xlink="http://www.w3.org/1999/xlink"><defs /><path d="M160,517L161,518L162,518L163,519L164,519L165,520L168,520L166,520L165,519L163,519L161,517Z" fill="none" stroke="black" stroke-width="5" /><path d="M446,506L442,510L441,510L440,511L441,510L442,510Z" fill="none" stroke="black" stroke-width="5" /><path d="M146,486L151,507L153,511L158,515L150,504Z" fill="none" stroke="black" stroke-width="5" /><path d="M145,482L145,484Z" fill="none" stroke="black" stroke-width="5" /><path d="M207,479L207,497L204,501L199,501L192,495L187,481L189,491L198,501L204,501L207,498Z" fill="none" stroke="black" stroke-width="5" /><path d="M285,470L285,473L286,474L286,473L285,472Z" fill="none" stroke="black" stroke-width="5" /><path d="M283,464L283,466L284,467L284,468L284,467L283,466Z" fill="none" stroke="black" stroke-width="5" /><path d="M282,460L282,461Z" fill="none" stroke="black" stroke-width="5" /><path d="M186,459L186,476Z" fill="none" stroke="black" stroke-width="5" /><path d="M281,456L281,457Z" fill="none" stroke="black" stroke-width="5" /><path d="M46,455L67,477L82,485L88,485L82,484L64,474Z" fill="none" stroke="black" stroke-width="5" /><path d="M412,452L412,458L413,459L413,464L413,458L412,457Z" fill="none" stroke="black" stroke-width="5" /><path d="M255,452L255,453L256,454L256,455L256,454L255,453Z" fill="none" stroke="black" stroke-width="5" /><path d="M44,452L45,453Z" fill="none" stroke="black" stroke-width="5" /><path d="M411,447L411,450Z" fill="none" stroke="black" stroke-width="5" /><path d="M278,444L278,446L279,447L279,450L280,451L280,454L280,451L279,450L279,447L278,446Z" fill="none" stroke="black" stroke-width="5" /><path d="M535,440L533,442Z" fill="none" stroke="black" stroke-width="5" /><path d="M452,440L455,488L448,503L455,488Z" fill="none" stroke="black" stroke-width="5" /><path d="M277,439L277,440Z" fill="none" stroke="black" stroke-width="5" /><path d="M537,437L536,438Z" fill="none" stroke="black" stroke-width="5" /><path d="M451,436L451,438Z" fill="none" stroke="black" stroke-width="5" /><path d="M134,436L136,436Z" fill="none" stroke="black" stroke-width="5" /><path d="M250,435L250,438L251,439L251,442L252,443L252,444L252,443L251,442L251,439L250,438Z" fill="none" stroke="black" stroke-width="5" /><path d="M538,433L538,435Z" fill="none" stroke="black" stroke-width="5" /><path d="M249,431L249,433Z" fill="none" stroke="black" stroke-width="5" /><path d="M349,423L342,444L322,479L337,455Z" fill="none" stroke="black" stroke-width="5" /><path d="M403,422L408,435L410,445L408,434Z" fill="none" stroke="black" stroke-width="5" /><path d="M356,422L337,481L337,492L343,498L361,487L349,497L338,493L339,475Z" fill="none" stroke="black" stroke-width="5" /><path d="M350,417L350,420Z" fill="none" stroke="black" stroke-width="5" /><path d="M351,414L351,415Z" fill="none" stroke="black" stroke-width="5" /><path d="M538,407L538,412L539,413L539,430L539,413L538,412Z" fill="none" stroke="black" stroke-width="5" /><path d="M99,405L99,407L98,408L98,411L97,412L97,415L97,412L98,411L98,409L99,408Z" fill="none" stroke="black" stroke-width="5" /><path d="M387,403L379,447L362,485L382,450L398,484L408,487L413,475L408,486L399,485L382,446Z" fill="none" stroke="black" stroke-width="5" /><path d="M27,402L31,426L40,445L29,418Z" fill="none" stroke="black" stroke-width="5" /><path d="M498,400L503,418L505,441L503,417Z" fill="none" stroke="black" stroke-width="5" /><path d="M395,400L402,420Z" fill="none" stroke="black" stroke-width="5" /><path d="M273,400L274,424L276,434L273,412Z" fill="none" stroke="black" stroke-width="5" /><path d="M26,399L26,400Z" fill="none" stroke="black" stroke-width="5" /><path d="M497,397L497,398Z" fill="none" stroke="black" stroke-width="5" /><path d="M242,396L244,413L248,429Z" fill="none" stroke="black" stroke-width="5" /><path d="M123,396L116,434L108,437L98,433L94,428L96,417L94,426L90,427L110,439L132,437L117,436Z" fill="none" stroke="black" stroke-width="5" /><path d="M440,395L448,417L449,425L448,416Z" fill="none" stroke="black" stroke-width="5" /><path d="M241,389L241,393Z" fill="none" stroke="black" stroke-width="5" /><path d="M437,388L437,389L438,390L438,391L439,392L439,393L439,392L438,391L438,390L437,389Z" fill="none" stroke="black" stroke-width="5" /><path d="M272,383L272,398Z" fill="none" stroke="black" stroke-width="5" /><path d="M240,383L240,385Z" fill="none" stroke="black" stroke-width="5" /><path d="M106,380L106,382L103,387L100,403L102,392L106,383Z" fill="none" stroke="black" stroke-width="5" /><path d="M239,376L239,379Z" fill="none" stroke="black" stroke-width="5" /><path d="M108,375L108,376L107,377L107,378L107,377L108,376Z" fill="none" stroke="black" stroke-width="5" /><path d="M271,371L271,381Z" fill="none" stroke="black" stroke-width="5" /><path d="M623,362L626,365L626,366L629,371L629,373L629,370L628,369L628,368L626,366L626,365Z" fill="none" stroke="black" stroke-width="5" /><path d="M71,360L70,361Z" fill="none" stroke="black" stroke-width="5" /><path d="M57,364L52,360L37,364L29,376L26,391L30,374L38,364L49,360Z" fill="none" stroke="black" stroke-width="5" /><path d="M73,357L72,358Z" fill="none" stroke="black" stroke-width="5" /><path d="M617,356L619,358Z" fill="none" stroke="black" stroke-width="5" /><path d="M422,511L404,362L467,378L487,475L504,444L484,472L470,376L506,377L526,442L509,374L606,398L630,375L613,398L396,354Z" fill="none" stroke="black" stroke-width="5" /><path d="M608,350L609,351Z" fill="none" stroke="black" stroke-width="5" /><path d="M78,349L77,350L77,351L75,353L75,354L74,355L75,354L75,353L77,351L77,350Z" fill="none" stroke="black" stroke-width="5" /><path d="M123,343L113,362L109,373Z" fill="none" stroke="black" stroke-width="5" /><path d="M418,342L422,343L423,344L425,344L426,345L428,345L429,346L431,346L432,347L434,347L432,347L429,345L427,345L426,344Z" fill="none" stroke="black" stroke-width="5" /><path d="M587,340L593,343L595,343L606,349L596,344L594,342Z" fill="none" stroke="black" stroke-width="5" /><path d="M125,340L124,341Z" fill="none" stroke="black" stroke-width="5" /><path d="M582,338L583,338L584,339L585,339L584,339L583,338Z" fill="none" stroke="black" stroke-width="5" /><path d="M579,337L580,337Z" fill="none" stroke="black" stroke-width="5" /><path d="M126,337L126,338Z" fill="none" stroke="black" stroke-width="5" /><path d="M576,336L577,336Z" fill="none" stroke="black" stroke-width="5" /><path d="M267,336L271,369Z" fill="none" stroke="black" stroke-width="5" /><path d="M573,335L574,335Z" fill="none" stroke="black" stroke-width="5" /><path d="M343,334L342,379L344,367Z" fill="none" stroke="black" stroke-width="5" /><path d="M558,333L567,333L568,334L571,334L569,334L568,333Z" fill="none" stroke="black" stroke-width="5" /><path d="M552,332L555,332Z" fill="none" stroke="black" stroke-width="5" /><path d="M342,326L342,330Z" fill="none" stroke="black" stroke-width="5" /><path d="M340,316L340,317Z" fill="none" stroke="black" stroke-width="5" /><path d="M492,314L494,316L494,317L495,317Z" fill="none" stroke="black" stroke-width="5" /><path d="M269,314L264,324L264,326L265,328L265,323L266,322L266,320Z" fill="none" stroke="black" stroke-width="5" /><path d="M463,325L475,342L469,347L529,333L512,335L496,319L507,335L488,339L466,312L486,337L478,344Z" fill="none" stroke="black" stroke-width="5" /><path d="M270,311L270,312Z" fill="none" stroke="black" stroke-width="5" /><path d="M435,310L458,342L456,348L438,348L463,348Z" fill="none" stroke="black" stroke-width="5" /><path d="M161,308L149,324L124,394L149,326Z" fill="none" stroke="black" stroke-width="5" /><path d="M329,306L323,425L300,497L288,480L298,502L319,481L309,474L341,385L324,420Z" fill="none" stroke="black" stroke-width="5" /><path d="M352,305L352,306L353,307L353,310L354,311L354,313L354,310L353,309L353,307L352,306Z" fill="none" stroke="black" stroke-width="5" /><path d="M337,304L337,307L338,308L338,311L339,312L339,314L339,312L338,311L338,306L337,305Z" fill="none" stroke="black" stroke-width="5" /><path d="M165,303L163,305Z" fill="none" stroke="black" stroke-width="5" /><path d="M328,302L328,304Z" fill="none" stroke="black" stroke-width="5" /><path d="M272,301L272,303L271,304L271,309L271,306L272,305Z" fill="none" stroke="black" stroke-width="5" /><path d="M441,299L462,323L451,309Z" fill="none" stroke="black" stroke-width="5" /><path d="M327,297L327,300Z" fill="none" stroke="black" stroke-width="5" /><path d="M132,289L95,325L80,346L101,319Z" fill="none" stroke="black" stroke-width="5" /><path d="M499,204L420,236L474,213L495,212L492,208Z" fill="none" stroke="black" stroke-width="5" /><path d="M517,186L519,189L517,200L509,208L497,211L506,210L516,202L520,193L520,190Z" fill="none" stroke="black" stroke-width="5" /><path d="M93,184L92,185L92,186L91,187L91,188L91,187L92,186L92,185Z" fill="none" stroke="black" stroke-width="5" /><path d="M99,177L94,182Z" fill="none" stroke="black" stroke-width="5" /><path d="M105,171L101,175Z" fill="none" stroke="black" stroke-width="5" /><path d="M500,169L515,183L510,177L509,177Z" fill="none" stroke="black" stroke-width="5" /><path d="M110,167L108,169Z" fill="none" stroke="black" stroke-width="5" /><path d="M117,162L115,164L114,164L112,166L114,164L115,164Z" fill="none" stroke="black" stroke-width="5" /><path d="M127,155L125,157L124,157L122,159L121,159L119,161L121,159L122,159L124,157L125,157Z" fill="none" stroke="black" stroke-width="5" /><path d="M479,154L480,155Z" fill="none" stroke="black" stroke-width="5" /><path d="M135,148L130,153Z" fill="none" stroke="black" stroke-width="5" /><path d="M465,145L467,147L468,147L470,149L473,150L477,153L473,150L472,150L469,147L468,147L466,145Z" fill="none" stroke="black" stroke-width="5" /><path d="M461,136L461,139L462,140L462,141L462,140L461,139Z" fill="none" stroke="black" stroke-width="5" /><path d="M143,131L141,133L141,134L140,135L140,137L139,138L139,140L139,138L140,137L140,135L141,134L141,133Z" fill="none" stroke="black" stroke-width="5" /><path d="M148,128L155,140L150,146L170,150L206,145L229,130L200,147L162,149L154,137L152,107Z" fill="none" stroke="black" stroke-width="5" /><path d="M154,95L154,97L153,98L153,104L153,100L154,99Z" fill="none" stroke="black" stroke-width="5" /><path d="M169,58L156,83L155,93L156,85Z" fill="none" stroke="black" stroke-width="5" /><path d="M175,49L173,51L173,52L172,53L172,54L172,53L173,52L173,51Z" fill="none" stroke="black" stroke-width="5" /><path d="M193,33L192,34L191,34L187,38L186,38L187,38L190,35L191,35Z" fill="none" stroke="black" stroke-width="5" /><path d="M198,30L197,31Z" fill="none" stroke="black" stroke-width="5" /><path d="M204,27L205,27Z" fill="none" stroke="black" stroke-width="5" /><path d="M358,26L423,44L452,95L437,154L374,132L411,153L455,151L441,151L449,130L460,132L439,61L406,34Z" fill="none" stroke="black" stroke-width="5" /><path d="M207,26L208,26Z" fill="none" stroke="black" stroke-width="5" /><path d="M338,16L344,24L331,61L351,112L323,133L299,125L319,134L323,153L322,135L351,114L366,124L334,68L335,35L355,26Z" fill="none" stroke="black" stroke-width="5" /><path d="M277,16L298,221L90,190L204,252L84,419L264,260L170,521L299,233L357,420L343,252L471,296L303,222Z" fill="none" stroke="black" stroke-width="5" /><path d="M280,15L334,15Z" fill="none" stroke="black" stroke-width="5" /></svg>