<svg baseProfile="tiny" height="502px" version="1.2" width="825px" xmlns="http://www.w3.org/2000/svg" xmlns:ev="http://www.w3.org/2001/xml-events" xmlns:xlink="http://www.w3.org/1999/xlink"><defs /><path d="M582,224L484,257L487,282L481,295L553,299L570,231Z" fill="none" stroke="black" stroke-width="5" /><path d="M443,224L441,225L441,234L439,240L429,249L435,247L442,241L444,233Z" fill="none" stroke="black" stroke-width="5" /><path d="M471,218L465,236L465,245L473,252L466,241L472,222Z" fill="none" stroke="black" stroke-width="5" /><path d="M287,206L285,206L284,207L283,207L282,208L282,209L284,209L285,208L286,208L287,207Z" fill="none" stroke="black" stroke-width="5" /><path d="M304,200L312,207L312,288L302,292L410,292L415,267L331,208Z" fill="none" stroke="black" stroke-width="5" /><path d="M282,196L280,198L280,199L281,200L284,200L286,198L286,197L285,196Z" fill="none" stroke="black" stroke-width="5" /><path d="M274,171L273,171L270,174L270,179L273,176L273,175L274,174Z" fill="none" stroke="black" stroke-width="5" /><path d="M564,165L488,227Z" fill="none" stroke="black" stroke-width="5" /><path d="M268,163L267,164L266,164L263,167L263,168L262,169L262,171L263,171L268,166Z" fill="none" stroke="black" stroke-width="5" /><path d="M469,160L469,162L470,164L477,172L477,170L475,166L473,164L473,163L470,160Z" fill="none" stroke="black" stroke-width="5" /><path d="M456,159L456,161L457,162L457,164L459,167L459,169L460,170L462,170L459,165L458,160L457,159Z" fill="none" stroke="black" stroke-width="5" /><path d="M575,158L598,210L597,225L601,221L601,213L581,164Z" fill="none" stroke="black" stroke-width="5" /><path d="M108,158L100,190L128,256L104,192Z" fill="none" stroke="black" stroke-width="5" /><path d="M281,187L318,151L335,148L418,226L333,146L311,152Z" fill="none" stroke="black" stroke-width="5" /><path d="M291,113L282,116L278,116L277,117L278,124L281,126L288,123L292,117L292,114Z" fill="none" stroke="black" stroke-width="5" /><path d="M552,96L531,99L502,150L480,159L502,156L528,105Z" fill="none" stroke="black" stroke-width="5" /><path d="M292,105L349,81L392,148L444,158L449,167L446,157L395,148L348,79L329,80Z" fill="none" stroke="black" stroke-width="5" /><path d="M431,67L430,68L430,75L431,76Z" fill="none" stroke="black" stroke-width="5" /><path d="M417,67L417,70L419,72L419,73L420,74L421,74L421,72L420,71L420,70Z" fill="none" stroke="black" stroke-width="5" /><path d="M64,116L61,484L231,473L162,242L345,395L578,343L316,376L143,159L71,334L69,113L280,230L401,29L603,146L593,411L790,472L744,161L313,47L239,193Z" fill="none" stroke="black" stroke-width="5" /></svg>