<svg baseProfile="tiny" height="300px" version="1.2" width="300px" xmlns="http://www.w3.org/2000/svg" xmlns:ev="http://www.w3.org/2001/xml-events" xmlns:xlink="http://www.w3.org/1999/xlink"><defs /><path d="M233,165L235,167L236,166L236,165Z" fill="none" stroke="black" stroke-width="2" /><path d="M226,163L226,164Z" fill="none" stroke="black" stroke-width="2" /><path d="M239,162L241,162L242,163L244,163L245,164L247,164L248,163L243,163L242,162Z" fill="none" stroke="black" stroke-width="2" /><path d="M228,160L228,161L229,160L232,160L233,161L233,160Z" fill="none" stroke="black" stroke-width="2" /><path d="M255,159L255,160L254,161L254,167L253,168L254,168L254,161L255,160Z" fill="none" stroke="black" stroke-width="2" /><path d="M215,159L215,161L216,161L219,164L219,167L220,168L223,168L224,167L224,166L222,168L220,168L219,167L219,162L217,162L215,160Z" fill="none" stroke="black" stroke-width="2" /><path d="M254,156L253,156L251,158L251,159Z" fill="none" stroke="black" stroke-width="2" /><path d="M257,156L258,156L259,155L257,155Z" fill="none" stroke="black" stroke-width="2" /><path d="M220,153L218,155L217,155L217,157L218,157L219,156L219,155L220,154Z" fill="none" stroke="black" stroke-width="2" /><path d="M28,134L27,135L27,136L28,135Z" fill="none" stroke="black" stroke-width="2" /><path d="M51,95L47,95L46,96L45,96L39,102L39,103L38,104L38,106L37,107L37,109L36,110L36,112L39,112L40,113L45,113L46,112L48,112L51,110L51,109L53,106L53,98Z" fill="none" stroke="black" stroke-width="2" /><path d="M78,64L70,66L62,70L56,75L59,75L61,72L75,65L77,67L66,83L61,77L64,83L64,86L75,72Z" fill="none" stroke="black" stroke-width="2" /><path d="M111,22L110,23L111,23Z" fill="none" stroke="black" stroke-width="2" /><path d="M296,81L101,115L79,78L122,14L30,96L32,34L108,25L36,29L2,66L79,213L67,289L125,205L149,256L167,194L201,264L256,175L202,183L198,250L155,161L76,275L64,105L23,142L16,85L80,61L88,123L174,112L206,167Z" fill="none" stroke="black" stroke-width="2" /></svg>