<svg baseProfile="tiny" height="675px" version="1.2" width="640px" xmlns="http://www.w3.org/2000/svg" xmlns:ev="http://www.w3.org/2001/xml-events" xmlns:xlink="http://www.w3.org/1999/xlink"><defs /><path d="M226,628L230,628L231,627L234,627L229,627L228,628Z" fill="none" stroke="black" stroke-width="5" /><path d="M230,636L246,633L251,637L254,648L260,650L281,643L269,648L257,648L250,634L240,626L237,626L242,630Z" fill="none" stroke="black" stroke-width="5" /><path d="M56,520L53,522L50,522L49,521L49,530L50,530L53,523Z" fill="none" stroke="black" stroke-width="5" /><path d="M73,487L65,490L57,496L58,509L51,514L50,517L58,511L57,497L61,493Z" fill="none" stroke="black" stroke-width="5" /><path d="M82,460L81,477L79,482L77,484L79,483L81,479Z" fill="none" stroke="black" stroke-width="5" /><path d="M70,391L48,407L43,429L64,453L65,431L82,425L83,457L84,426L65,430L61,447L44,428L46,411L58,397L83,391Z" fill="none" stroke="black" stroke-width="5" /><path d="M99,372L99,374L97,376L92,377L90,379L92,383L91,387L89,389L85,390L90,389L92,387L92,380L95,377L99,376Z" fill="none" stroke="black" stroke-width="5" /><path d="M104,324L99,328L107,329L110,336L98,341L87,358L94,359L99,369L100,365L92,356L92,352L98,342L111,336Z" fill="none" stroke="black" stroke-width="5" /><path d="M110,322L114,322Z" fill="none" stroke="black" stroke-width="5" /><path d="M119,321L127,324L124,343L132,353L157,344L175,344L158,343L130,352L125,344L127,323Z" fill="none" stroke="black" stroke-width="5" /><path d="M569,287L614,378L607,387L590,373L550,380L538,416L554,381L565,424L586,417L615,378Z" fill="none" stroke="black" stroke-width="5" /><path d="M332,264L312,279L321,284L318,292L289,313L273,305L268,276L274,308L289,314L305,305L322,288L315,275Z" fill="none" stroke="black" stroke-width="5" /><path d="M481,257L506,284L519,319L564,286L534,286L525,300L537,285L550,294L519,316L521,304L512,299L496,263Z" fill="none" stroke="black" stroke-width="5" /><path d="M329,256L335,256L338,259L337,262L336,263L334,263L338,263L339,262L339,259L336,256L334,255L332,256Z" fill="none" stroke="black" stroke-width="5" /><path d="M527,207L527,208L528,209L528,210L528,209L527,208Z" fill="none" stroke="black" stroke-width="5" /><path d="M335,192L328,200L314,205L313,222L300,239L269,242L302,239L315,221L316,205L319,202L328,205Z" fill="none" stroke="black" stroke-width="5" /><path d="M267,241L232,213L228,179L181,197L169,231L120,244L94,237L67,202L95,239L121,246L140,231L170,232L181,199L230,180L231,215Z" fill="none" stroke="black" stroke-width="5" /><path d="M444,174L450,197L471,204L474,231L494,259L475,231L475,203L496,229L504,219L532,224L535,206L514,164L534,205L528,227L454,198Z" fill="none" stroke="black" stroke-width="5" /><path d="M490,149L486,153L484,158L494,164L502,171L505,171L506,165L501,155L495,149Z" fill="none" stroke="black" stroke-width="5" /><path d="M525,124L521,125L522,129L507,145L513,159L511,150L512,145Z" fill="none" stroke="black" stroke-width="5" /><path d="M512,121L504,138L507,133L513,127L516,126L512,123Z" fill="none" stroke="black" stroke-width="5" /><path d="M305,115L293,122L285,118L290,124L305,118L303,140L273,164L261,159L258,134L262,161L275,164L300,148Z" fill="none" stroke="black" stroke-width="5" /><path d="M517,111L517,112L516,113L516,114L515,115L515,116L514,117L515,116L515,115L516,114L516,113L517,112Z" fill="none" stroke="black" stroke-width="5" /><path d="M23,96L43,156L76,171L67,197L78,174L42,152L38,98L84,164L116,168L125,207L216,112L257,128L215,112L127,206L117,167L86,165L80,134L53,135L53,106Z" fill="none" stroke="black" stroke-width="5" /><path d="M399,60L388,85L371,90L339,72L320,95L309,86L313,70L290,65L300,80L284,116L300,66L320,96L341,72L369,91L385,87Z" fill="none" stroke="black" stroke-width="5" /><path d="M405,22L400,29L389,31L395,37L392,45L404,52L403,50L394,45L397,38L393,32L402,29L405,26Z" fill="none" stroke="black" stroke-width="5" /><path d="M531,81L425,11L403,285L177,345L188,552L404,543L73,578L406,658L359,445L566,326L315,564L249,396Z" fill="none" stroke="black" stroke-width="5" /><path d="M423,10L419,10L413,17L409,17L401,13L398,15L402,16L404,19L406,17L415,18L420,10Z" fill="none" stroke="black" stroke-width="5" /></svg>