<svg baseProfile="tiny" height="652px" version="1.2" width="600px" xmlns="http://www.w3.org/2000/svg" xmlns:ev="http://www.w3.org/2001/xml-events" xmlns:xlink="http://www.w3.org/1999/xlink"><defs /><path d="M188,623L188,635L192,631L190,631L188,629Z" fill="none" stroke="black" stroke-width="5" /><path d="M192,615L191,616L191,617L190,618L190,619L191,618L191,617L192,616Z" fill="none" stroke="black" stroke-width="5" /><path d="M224,603L223,605L220,608L220,610L217,614L217,616L216,618L211,623L209,623L207,621L207,623L205,625L199,625L196,628L195,628L195,629L199,626L208,625L212,622L213,622L214,620L217,617L217,615L221,609L221,607L223,606Z" fill="none" stroke="black" stroke-width="5" /><path d="M285,599L291,603L301,603L303,605L307,605L308,606L311,606L315,609L317,609L317,608L318,607L317,606L317,604L314,601L314,600L314,604L313,605L303,605L300,602L300,600L299,600L296,602L291,602L290,601L288,601L286,599Z" fill="none" stroke="black" stroke-width="5" /><path d="M230,597L233,596L241,590L245,589L247,587L266,587L274,591L282,597L282,596L278,593L275,592L272,589L270,589L266,586L248,586L244,589L242,589L238,592L236,592Z" fill="none" stroke="black" stroke-width="5" /><path d="M221,582L188,586L181,591L187,587L205,584L215,585L215,589L208,596L201,599L194,606L194,613L196,612L203,613L206,618L203,612L197,612L195,610L195,606L200,600L209,596Z" fill="none" stroke="black" stroke-width="5" /><path d="M320,584L356,583L418,619L419,613L404,607L411,600L418,610L412,594L383,585L380,577L401,577L446,593L424,564L369,558L430,569L421,586L398,576L374,577L366,569L384,586L408,591L411,598L403,605L393,605L354,582Z" fill="none" stroke="black" stroke-width="5" /><path d="M266,456L232,561L209,573L167,577L148,593L156,590L178,593L170,589L168,582L166,590L154,588L156,583L171,576L196,576L223,567L231,569Z" fill="none" stroke="black" stroke-width="5" /><path d="M326,452L330,471L336,484L336,488L346,512L346,516L352,529L359,552L362,556L366,557L360,552L347,513L334,480L334,476L328,463Z" fill="none" stroke="black" stroke-width="5" /><path d="M374,430L378,434Z" fill="none" stroke="black" stroke-width="5" /><path d="M479,379L479,381L480,382L480,380Z" fill="none" stroke="black" stroke-width="5" /><path d="M59,239L58,239L54,243L52,243L50,245L47,245L46,244L46,242L46,243L45,244L45,247L44,248L44,249L43,250L43,252L44,252L53,243L54,243L57,240L58,240Z" fill="none" stroke="black" stroke-width="5" /><path d="M63,235L61,237L62,236L63,236Z" fill="none" stroke="black" stroke-width="5" /><path d="M89,214L81,222L80,222L76,226L75,226L72,229L71,229L68,232L67,232L65,234L66,233L67,233L70,230L71,230L74,227L75,227L79,223L80,223L86,217L87,217L87,216Z" fill="none" stroke="black" stroke-width="5" /><path d="M66,213L58,221L58,222L52,229L52,230L51,231L51,232L48,237L48,239L47,240L49,237L49,235L50,234L50,233L52,231L52,230L53,229L53,228L55,226L55,225L59,221L59,220L65,214L66,214Z" fill="none" stroke="black" stroke-width="5" /><path d="M307,158L307,159Z" fill="none" stroke="black" stroke-width="5" /><path d="M311,154L310,155Z" fill="none" stroke="black" stroke-width="5" /><path d="M146,156L147,156L150,159L155,160L156,161L157,161L158,162L160,162L161,163L166,163L167,164L169,162L169,161L177,153L178,153L178,152L172,152L171,151L157,151L156,150L153,149L152,150L148,150L148,153L146,155Z" fill="none" stroke="black" stroke-width="5" /><path d="M239,146L241,149L244,150L249,155L249,171L250,172L265,173L271,175L277,173L279,171L281,156L279,156L278,158L278,167L277,168L272,168L270,165L251,154L248,151L242,148L240,145Z" fill="none" stroke="black" stroke-width="5" /><path d="M324,138L313,152L316,149L318,149L320,151L320,166L318,168L314,168L307,171L305,169L304,165L305,161L302,164L298,164L296,152L295,151L294,152L295,163L299,174L304,172L309,172L315,169L319,169L323,166L321,163L321,144L325,140Z" fill="none" stroke="black" stroke-width="5" /><path d="M494,122L493,122L491,124L492,124Z" fill="none" stroke="black" stroke-width="5" /><path d="M465,122L464,122L463,123L461,123L461,124L462,124L463,123L464,123Z" fill="none" stroke="black" stroke-width="5" /><path d="M402,130L403,131L405,131L406,130L412,130L413,129L415,129L418,127L421,127L424,124L424,123L422,125L421,125L420,126L418,126L415,128L413,128L412,129L407,129L406,128L406,124L408,122L404,126L404,127L402,129Z" fill="none" stroke="black" stroke-width="5" /><path d="M120,119L119,120L120,121L120,125L118,127L114,127L113,128L113,130L115,132L116,135L119,138L120,141L122,143L124,143L126,141L129,141L129,139L128,138L128,135L127,134L127,131L124,128L124,126L123,125L123,123L122,122L122,121Z" fill="none" stroke="black" stroke-width="5" /><path d="M412,118L410,120Z" fill="none" stroke="black" stroke-width="5" /><path d="M486,115L485,116L481,116L480,117L478,117L477,118L476,118L475,119L471,119L470,120L468,120L467,121L468,121L469,120L473,120L474,119L475,119L476,118L478,118L479,117L483,117L484,116L485,116Z" fill="none" stroke="black" stroke-width="5" /><path d="M510,113L508,113L505,116L504,116L503,117L502,117L500,119L498,119L496,121L497,120L499,120L502,117L503,117L504,116L505,116L507,114L509,114Z" fill="none" stroke="black" stroke-width="5" /><path d="M494,112L493,113L491,113L490,114L488,114L490,114L491,113L493,113Z" fill="none" stroke="black" stroke-width="5" /><path d="M496,111L497,111L498,110L501,110L498,110L497,111Z" fill="none" stroke="black" stroke-width="5" /><path d="M547,104L542,104L541,103L533,103L532,104L521,104L520,105L517,105L514,107L507,107L510,107L512,109L512,111L513,111L517,108L520,107L523,104L537,104L538,103L540,103L541,104Z" fill="none" stroke="black" stroke-width="5" /><path d="M434,97L432,97L432,98L430,100L429,100L420,109L422,107L427,107L428,108L428,109L429,110L429,116L428,117L427,120L428,120L428,118L429,117L429,116L431,114L431,104L432,103L432,102L434,99Z" fill="none" stroke="black" stroke-width="5" /><path d="M539,96L541,96L542,97L545,97L546,98L550,98L551,99L551,102L550,103L549,103L561,103L561,102L560,101L559,101L558,100L553,100L552,99L551,99L549,97L542,97L541,96Z" fill="none" stroke="black" stroke-width="5" /><path d="M537,95L525,95L524,96L504,97L501,99L493,100L489,103L485,103L480,105L482,105L483,104L488,104L491,102L498,101L501,99L507,98L508,97L534,96L535,95Z" fill="none" stroke="black" stroke-width="5" /><path d="M230,13L157,112L200,162L242,45L229,166L252,104L384,87L351,347L313,107L329,190L234,172L274,221L207,246L198,165L105,169L126,96L84,263L157,198L201,311L160,194L218,278L274,225L294,360L201,320L311,597L256,558L291,383L305,574L339,372L472,441L368,470L473,453L481,384L338,362L474,373L353,339L488,126L434,77L465,155L410,177L368,112L430,74L313,16L277,102Z" fill="none" stroke="black" stroke-width="5" /></svg>