<svg baseProfile="tiny" height="645px" version="1.2" width="500px" xmlns="http://www.w3.org/2000/svg" xmlns:ev="http://www.w3.org/2001/xml-events" xmlns:xlink="http://www.w3.org/1999/xlink"><defs /><path d="M249,576L125,602Z" fill="none" stroke="black" stroke-width="5" /><path d="M305,534L101,560Z" fill="none" stroke="black" stroke-width="5" /><path d="M91,508L237,524Z" fill="none" stroke="black" stroke-width="5" /><path d="M402,478L401,479L402,479Z" fill="none" stroke="black" stroke-width="5" /><path d="M207,452L320,499L399,482L306,495Z" fill="none" stroke="black" stroke-width="5" /><path d="M204,449L204,450L205,450Z" fill="none" stroke="black" stroke-width="5" /><path d="M200,446L201,447L201,446Z" fill="none" stroke="black" stroke-width="5" /><path d="M197,443L198,444L198,443Z" fill="none" stroke="black" stroke-width="5" /><path d="M194,440L195,441L195,440Z" fill="none" stroke="black" stroke-width="5" /><path d="M111,433L253,495Z" fill="none" stroke="black" stroke-width="5" /><path d="M177,423L192,437Z" fill="none" stroke="black" stroke-width="5" /><path d="M166,413L175,422Z" fill="none" stroke="black" stroke-width="5" /><path d="M159,407L159,408L160,408L164,412Z" fill="none" stroke="black" stroke-width="5" /><path d="M148,397L156,405Z" fill="none" stroke="black" stroke-width="5" /><path d="M145,394L145,395L146,395Z" fill="none" stroke="black" stroke-width="5" /><path d="M122,376L57,449L63,548L59,447L109,379L143,392Z" fill="none" stroke="black" stroke-width="5" /><path d="M183,281L161,309Z" fill="none" stroke="black" stroke-width="5" /><path d="M227,238L200,311Z" fill="none" stroke="black" stroke-width="5" /><path d="M239,230L217,331Z" fill="none" stroke="black" stroke-width="5" /><path d="M135,296L215,359L257,304L409,471L242,215L229,355L138,313L179,262Z" fill="none" stroke="black" stroke-width="5" /><path d="M170,139L199,233L181,260L214,203L198,228Z" fill="none" stroke="black" stroke-width="5" /><path d="M167,91L169,93L171,93L171,92L170,91Z" fill="none" stroke="black" stroke-width="5" /><path d="M207,91L215,98L231,96L231,88L224,80L216,81Z" fill="none" stroke="black" stroke-width="5" /><path d="M228,45L149,87L143,129L214,130L144,96Z" fill="none" stroke="black" stroke-width="5" /><path d="M233,41L231,43L232,42L233,42Z" fill="none" stroke="black" stroke-width="5" /><path d="M238,38L462,407L108,618L464,405Z" fill="none" stroke="black" stroke-width="5" /></svg>