<svg baseProfile="tiny" height="645px" version="1.2" width="500px" xmlns="http://www.w3.org/2000/svg" xmlns:ev="http://www.w3.org/2001/xml-events" xmlns:xlink="http://www.w3.org/1999/xlink"><defs /><path d="M249,576L125,602L195,593Z" fill="none" stroke="black" stroke-width="5" /><path d="M305,534L206,559L101,560L207,561Z" fill="none" stroke="black" stroke-width="5" /><path d="M91,508L155,521L237,524Z" fill="none" stroke="black" stroke-width="5" /><path d="M402,478L401,479L402,479Z" fill="none" stroke="black" stroke-width="5" /><path d="M207,452L263,486L320,499L374,496L399,482L369,495L306,495L248,478Z" fill="none" stroke="black" stroke-width="5" /><path d="M204,449L204,450L205,450Z" fill="none" stroke="black" stroke-width="5" /><path d="M200,446L201,447L201,446Z" fill="none" stroke="black" stroke-width="5" /><path d="M197,443L198,444L198,443Z" fill="none" stroke="black" stroke-width="5" /><path d="M194,440L195,441L195,440Z" fill="none" stroke="black" stroke-width="5" /><path d="M111,433L183,473L253,495L185,472Z" fill="none" stroke="black" stroke-width="5" /><path d="M177,423L177,424L178,424L191,437L192,437L191,437Z" fill="none" stroke="black" stroke-width="5" /><path d="M166,413L175,422L175,421L174,421Z" fill="none" stroke="black" stroke-width="5" /><path d="M159,407L159,408L160,408L164,412Z" fill="none" stroke="black" stroke-width="5" /><path d="M148,397L156,405L156,404L155,404Z" fill="none" stroke="black" stroke-width="5" /><path d="M145,394L145,395L146,395Z" fill="none" stroke="black" stroke-width="5" /><path d="M183,281L181,281L171,298L161,309L169,303Z" fill="none" stroke="black" stroke-width="5" /><path d="M227,238L219,270L200,311L207,303L221,270Z" fill="none" stroke="black" stroke-width="5" /><path d="M239,230L217,331L234,268Z" fill="none" stroke="black" stroke-width="5" /><path d="M135,296L215,359L257,304L393,396L409,471L398,400L261,309L242,215L252,300L229,355L138,313L179,262Z" fill="none" stroke="black" stroke-width="5" /><path d="M170,139L190,170L199,233L181,260L201,236L214,203L198,228L192,171Z" fill="none" stroke="black" stroke-width="5" /><path d="M167,91L169,93L171,93L171,92L170,91Z" fill="none" stroke="black" stroke-width="5" /><path d="M207,91L207,94L215,98L229,98L231,96L231,88L224,80L216,81Z" fill="none" stroke="black" stroke-width="5" /><path d="M228,45L182,56L149,87L143,129L155,124L168,137L156,117L177,118L190,147L214,130L217,116L214,128L198,129L149,109L144,96L174,83L184,56Z" fill="none" stroke="black" stroke-width="5" /><path d="M233,41L231,43L232,42L233,42Z" fill="none" stroke="black" stroke-width="5" /><path d="M238,38L446,271L462,407L318,568L111,616L55,526L59,447L143,392L108,378L52,522L108,618L323,567L464,405L383,144L297,157Z" fill="none" stroke="black" stroke-width="5" /></svg>