<svg baseProfile="tiny" height="300px" version="1.2" width="300px" xmlns="http://www.w3.org/2000/svg" xmlns:ev="http://www.w3.org/2001/xml-events" xmlns:xlink="http://www.w3.org/1999/xlink"><defs /><path d="M60,127L75,190L69,235L75,218L75,184L67,162L65,133Z" fill="none" stroke="black" stroke-width="2" /><path d="M119,67L121,70L125,72L137,72L142,67L139,70L135,72L128,72Z" fill="none" stroke="black" stroke-width="2" /><path d="M138,59L138,60Z" fill="none" stroke="black" stroke-width="2" /><path d="M189,56L189,57Z" fill="none" stroke="black" stroke-width="2" /><path d="M119,34L124,36L116,42L113,58L116,45L127,36L139,45L143,58L140,43L131,35Z" fill="none" stroke="black" stroke-width="2" /><path d="M111,25L3,243L222,278L289,221L209,152L287,221L219,277L4,239L126,22L203,77L95,128L199,202L91,233L191,234L168,106L296,144Z" fill="none" stroke="black" stroke-width="2" /></svg>