<svg baseProfile="tiny" height="590px" version="1.2" width="675px" xmlns="http://www.w3.org/2000/svg" xmlns:ev="http://www.w3.org/2001/xml-events" xmlns:xlink="http://www.w3.org/1999/xlink"><defs /><path d="M440,520L436,534L447,559L488,556L495,549L496,538L476,511L460,508Z" fill="none" stroke="black" stroke-width="5" /><path d="M322,445L325,445Z" fill="none" stroke="black" stroke-width="5" /><path d="M305,445L319,445Z" fill="none" stroke="black" stroke-width="5" /><path d="M283,444L288,444Z" fill="none" stroke="black" stroke-width="5" /><path d="M274,443L279,443Z" fill="none" stroke="black" stroke-width="5" /><path d="M229,355L243,355Z" fill="none" stroke="black" stroke-width="5" /><path d="M623,336L607,333L587,337L579,343L576,355L591,372L599,375L616,372L632,356L630,346Z" fill="none" stroke="black" stroke-width="5" /><path d="M314,348L348,341L341,336L325,332L343,337L346,341Z" fill="none" stroke="black" stroke-width="5" /><path d="M297,325L300,325Z" fill="none" stroke="black" stroke-width="5" /><path d="M246,354L302,352L323,331L302,326L314,334L298,350L286,330L293,324L263,319L279,322L293,348Z" fill="none" stroke="black" stroke-width="5" /><path d="M231,319L186,329L154,352L168,363L223,356L175,357L173,338L205,323Z" fill="none" stroke="black" stroke-width="5" /><path d="M137,316L152,364L180,400L225,430L272,442L227,430L184,403L153,365Z" fill="none" stroke="black" stroke-width="5" /><path d="M135,306L135,309L136,310L136,314L136,310L135,309Z" fill="none" stroke="black" stroke-width="5" /><path d="M134,301L134,303Z" fill="none" stroke="black" stroke-width="5" /><path d="M139,297L143,306L152,312L166,310L175,299L166,309L154,312L146,308Z" fill="none" stroke="black" stroke-width="5" /><path d="M332,296L350,296Z" fill="none" stroke="black" stroke-width="5" /><path d="M299,289L305,292L316,295L305,292Z" fill="none" stroke="black" stroke-width="5" /><path d="M179,287L179,288L178,289L178,291L177,292L177,293L176,294L176,295L176,294L177,293L177,292L178,291L178,289L179,288Z" fill="none" stroke="black" stroke-width="5" /><path d="M180,284L180,285Z" fill="none" stroke="black" stroke-width="5" /><path d="M181,281L181,282Z" fill="none" stroke="black" stroke-width="5" /><path d="M474,268L465,337L435,391L379,433L327,444L380,433L434,394L465,340Z" fill="none" stroke="black" stroke-width="5" /><path d="M473,258L473,264Z" fill="none" stroke="black" stroke-width="5" /><path d="M57,243L40,245L34,256L35,281L44,293L54,290L56,271L65,259L63,247Z" fill="none" stroke="black" stroke-width="5" /><path d="M242,234L256,259L276,277L252,253Z" fill="none" stroke="black" stroke-width="5" /><path d="M169,234L168,235L168,242L169,243Z" fill="none" stroke="black" stroke-width="5" /><path d="M429,230L412,265L397,280L379,291L358,295L377,292L400,279L417,257Z" fill="none" stroke="black" stroke-width="5" /><path d="M430,227L430,228Z" fill="none" stroke="black" stroke-width="5" /><path d="M435,210L435,212Z" fill="none" stroke="black" stroke-width="5" /><path d="M289,202L289,203L288,204L288,205L289,206L289,208L290,208L290,203Z" fill="none" stroke="black" stroke-width="5" /><path d="M436,201L436,205Z" fill="none" stroke="black" stroke-width="5" /><path d="M453,199L467,231L472,255L465,224Z" fill="none" stroke="black" stroke-width="5" /><path d="M437,171L437,199L437,183L439,181L444,185L448,194L450,194L439,178Z" fill="none" stroke="black" stroke-width="5" /><path d="M437,168L437,169Z" fill="none" stroke="black" stroke-width="5" /><path d="M606,161L588,183L592,207L602,212L587,201L587,189L605,162L629,166L644,185L631,236L613,235L606,216L609,233L628,238L640,227L644,183L630,166Z" fill="none" stroke="black" stroke-width="5" /><path d="M390,146L295,170L258,198L241,226L264,194L299,169Z" fill="none" stroke="black" stroke-width="5" /><path d="M336,113L376,127L400,146L432,146L436,163L436,149L444,147L404,143L369,123Z" fill="none" stroke="black" stroke-width="5" /><path d="M330,112L334,112Z" fill="none" stroke="black" stroke-width="5" /><path d="M276,112L210,138L150,201L123,188L134,296L134,197L192,240L183,276L194,241L153,200L207,141Z" fill="none" stroke="black" stroke-width="5" /><path d="M324,111L328,111Z" fill="none" stroke="black" stroke-width="5" /><path d="M317,110L318,110Z" fill="none" stroke="black" stroke-width="5" /><path d="M278,111L283,111L284,110L290,110L283,110L282,111Z" fill="none" stroke="black" stroke-width="5" /><path d="M294,109L301,109Z" fill="none" stroke="black" stroke-width="5" /><path d="M322,76L316,58L272,50L258,82L230,83L209,56L181,63L162,86L193,58L218,59L229,83L256,83L268,74L272,50L314,58Z" fill="none" stroke="black" stroke-width="5" /><path d="M531,78L422,35L569,125L509,227L653,278L567,310L580,465L374,545L77,408L61,200L159,85L68,399L307,538L584,463L570,304L656,285L507,223Z" fill="none" stroke="black" stroke-width="5" /><path d="M420,34L410,37L401,71L381,84L349,86L325,79L348,86L381,85L400,74L409,41Z" fill="none" stroke="black" stroke-width="5" /></svg>