<svg baseProfile="tiny" height="569px" version="1.2" width="675px" xmlns="http://www.w3.org/2000/svg" xmlns:ev="http://www.w3.org/2001/xml-events" xmlns:xlink="http://www.w3.org/1999/xlink"><defs /><path d="M195,307L55,336L131,324L58,345L113,410L99,511L114,407L149,341L113,405L60,346Z" fill="none" stroke="black" stroke-width="5" /><path d="M256,283L291,367L361,404L456,377L508,304L430,333L372,333L302,314Z" fill="none" stroke="black" stroke-width="5" /><path d="M498,209L426,289L462,295L482,280L494,259L492,216Z" fill="none" stroke="black" stroke-width="5" /><path d="M290,199L300,216L294,258L307,287L333,301L380,292L381,286Z" fill="none" stroke="black" stroke-width="5" /><path d="M204,95L205,117L157,108L171,148L129,160L156,174L22,284L28,331L50,315L53,337L23,284L196,189L149,193L132,161L171,150L160,108L204,118L221,169Z" fill="none" stroke="black" stroke-width="5" /><path d="M603,67L482,115L332,30L467,122L601,70L502,415L545,511L457,456L96,515L548,511L541,330L630,341L543,322L536,209L652,322L540,202Z" fill="none" stroke="black" stroke-width="5" /><path d="M196,22L203,92L201,25L329,124L282,86L287,67L321,85L325,24L316,83L283,63L274,81Z" fill="none" stroke="black" stroke-width="5" /></svg>