<svg baseProfile="tiny" height="639px" version="1.2" width="700px" xmlns="http://www.w3.org/2000/svg" xmlns:ev="http://www.w3.org/2001/xml-events" xmlns:xlink="http://www.w3.org/1999/xlink"><defs /><path d="M568,612L568,613Z" fill="none" stroke="black" stroke-width="5" /><path d="M567,609L567,610Z" fill="none" stroke="black" stroke-width="5" /><path d="M559,604L563,604L566,607L565,606L565,605L564,604Z" fill="none" stroke="black" stroke-width="5" /><path d="M296,530L299,533Z" fill="none" stroke="black" stroke-width="5" /><path d="M422,529L421,530Z" fill="none" stroke="black" stroke-width="5" /><path d="M286,521L290,525Z" fill="none" stroke="black" stroke-width="5" /><path d="M281,516L284,519Z" fill="none" stroke="black" stroke-width="5" /><path d="M301,462L307,466L311,466L312,467L323,467L313,467L309,465L306,465Z" fill="none" stroke="black" stroke-width="5" /><path d="M332,461L328,465L327,465L326,466L325,466L326,466L327,465L328,465Z" fill="none" stroke="black" stroke-width="5" /><path d="M283,447L283,452L294,468L305,475L325,476L336,469L323,476L306,475L296,469L288,460Z" fill="none" stroke="black" stroke-width="5" /><path d="M52,444L52,451L53,452L53,454L54,455L55,458L60,462L54,455L54,454L52,451Z" fill="none" stroke="black" stroke-width="5" /><path d="M330,438L331,439L331,440L333,442L333,443L335,446L335,455L335,445L334,444L333,441Z" fill="none" stroke="black" stroke-width="5" /><path d="M103,437L103,438Z" fill="none" stroke="black" stroke-width="5" /><path d="M149,432L165,432Z" fill="none" stroke="black" stroke-width="5" /><path d="M70,432L67,432L66,433L64,433L61,435L59,435L55,437L53,442L54,439L57,436L58,436L61,439L61,441L63,437Z" fill="none" stroke="black" stroke-width="5" /><path d="M138,426L142,430L143,430L144,431L147,431L144,431L143,430L142,430Z" fill="none" stroke="black" stroke-width="5" /><path d="M106,418L106,424L105,425L105,431L104,432L104,435L104,433L105,432L105,428L106,427Z" fill="none" stroke="black" stroke-width="5" /><path d="M101,393L93,448L86,456L78,458L68,456L60,446L66,455L84,460L82,463L62,463L83,463L97,450L101,442L97,442Z" fill="none" stroke="black" stroke-width="5" /><path d="M119,364L111,384L107,415L111,386Z" fill="none" stroke="black" stroke-width="5" /><path d="M122,360L121,361Z" fill="none" stroke="black" stroke-width="5" /><path d="M100,324L100,328L98,334L96,336L95,343L97,348L102,351L106,349L100,350L96,346L96,339L100,330Z" fill="none" stroke="black" stroke-width="5" /><path d="M630,308L627,310L626,315L627,316L627,318L635,330L635,332L635,330L632,324L629,321L626,315L627,311Z" fill="none" stroke="black" stroke-width="5" /><path d="M663,300L651,301L643,304L636,305L633,307L647,302Z" fill="none" stroke="black" stroke-width="5" /><path d="M598,286L600,286Z" fill="none" stroke="black" stroke-width="5" /><path d="M606,285L610,285Z" fill="none" stroke="black" stroke-width="5" /><path d="M616,284L624,284Z" fill="none" stroke="black" stroke-width="5" /><path d="M629,283L663,283L674,287L681,292L681,295L676,298L665,299L677,298L682,295L681,290L669,284L655,282Z" fill="none" stroke="black" stroke-width="5" /><path d="M394,282L394,285Z" fill="none" stroke="black" stroke-width="5" /><path d="M463,251L464,251L465,252L464,251Z" fill="none" stroke="black" stroke-width="5" /><path d="M506,251L504,247L495,245L470,256L477,261L475,257L482,251L491,246L502,246L505,249L506,256L501,266L505,260Z" fill="none" stroke="black" stroke-width="5" /><path d="M189,242L191,242L192,241L193,241L194,240L198,240L197,239L193,239L192,240L191,240Z" fill="none" stroke="black" stroke-width="5" /><path d="M74,236L81,242L109,251L104,248L92,246Z" fill="none" stroke="black" stroke-width="5" /><path d="M110,220L112,222Z" fill="none" stroke="black" stroke-width="5" /><path d="M169,219L169,220L171,222L171,223L175,227L176,227L176,226Z" fill="none" stroke="black" stroke-width="5" /><path d="M55,214L76,273L64,237L71,234L56,220L57,214L117,243L126,257L125,233L114,223L125,235L119,244Z" fill="none" stroke="black" stroke-width="5" /><path d="M99,204L99,205L98,206L98,209L99,210L99,211L108,219L108,218L107,218L100,211L100,210L99,209L99,205L101,203L100,204Z" fill="none" stroke="black" stroke-width="5" /><path d="M103,202L104,202Z" fill="none" stroke="black" stroke-width="5" /><path d="M330,170L330,174L331,175L332,175L333,174L332,173L332,172L331,171L331,170Z" fill="none" stroke="black" stroke-width="5" /><path d="M340,163L340,165L341,165L341,164Z" fill="none" stroke="black" stroke-width="5" /><path d="M102,136L106,140Z" fill="none" stroke="black" stroke-width="5" /><path d="M234,119L232,121Z" fill="none" stroke="black" stroke-width="5" /><path d="M240,115L239,115L236,118L239,115Z" fill="none" stroke="black" stroke-width="5" /><path d="M250,94L250,101Z" fill="none" stroke="black" stroke-width="5" /><path d="M420,75L365,119Z" fill="none" stroke="black" stroke-width="5" /><path d="M543,70L538,70L542,70L544,72L544,76L527,102L522,115L528,105L530,97L545,75Z" fill="none" stroke="black" stroke-width="5" /><path d="M75,275L137,424L400,409L263,475L339,553L523,297L419,534L545,616L565,503L574,621L634,334L542,103L439,228L528,75L401,238L516,228L480,363L317,313L461,250L429,70L236,328L148,252L220,392Z" fill="none" stroke="black" stroke-width="5" /><path d="M248,63L249,91Z" fill="none" stroke="black" stroke-width="5" /><path d="M246,48L247,59L249,56L252,56L261,67L256,61L251,52L247,48Z" fill="none" stroke="black" stroke-width="5" /><path d="M186,43L170,151L146,174L109,142L163,186L158,200L166,214L161,194L174,172Z" fill="none" stroke="black" stroke-width="5" /><path d="M315,6L264,69L308,10L317,104L254,136L248,110L245,143L193,132L191,49L192,188L300,142L188,231L91,134L143,238L219,241L258,179L306,219L271,171L301,139L252,143L332,109L333,67L302,68Z" fill="none" stroke="black" stroke-width="5" /></svg>