<?xml version="1.0" encoding="UTF-8"?>
<!-- Created with Inkscape (http://www.inkscape.org/) -->
<svg version="1.1" viewBox="0 0 221.15 296.02" xmlns="http://www.w3.org/2000/svg">
 <path d="m79.735 184.1c2.5959 2.7586 2.0782 18.29 1.0946 24.48 1.9155-5.5321 5.9684-19.88 7.1222-24.532-5.1475-1.4792-8.9267-4.5484-12.381-8.4386 0.38458 1.3165 3.2911 7.5585 4.1638 8.4904m56.038-102.99c-10.931-1.9377-18.29-4.896-24.243-12.085-2.8548-3.4316-11.02-9.9547-14.451-11.833l-0.97624 1.7972c1.4644 2.5294 7.5067 8.6531 10.362 12.647 1.2499 1.7454 0.65823 2.7808-0.97625 3.4316-3.2394 1.2943-12.492 4.8147-15.102 6.4491l-1.5531 5.3028c1.5531 2.5294 4.8221 6.4491 6.3678 8.0023 1.5531 1.5531 1.065 2.6921-0.56948 3.5944-2.0486 1.1242-8.0023 4.4079-9.8808 5.7096-3.0988 13.882 0 19.103 4.0825 21.958 2.1226-0.40677 3.9198-0.40677 5.3915-0.40677 5.7096-4.4079 21.877-2.6107 29.546 7.1l8.409 7.3514c7.0186 0.48812 12.41 4.652 14.94 8.1576 5.7096-0.48813 12.159 2.3666 15.102 5.6356l9.4666 11.02c2.0412 2.6107 5.5542 6.3678 8.7344 9.7107 2.7734 2.0412 7.7582 1.2277 10.45 0.41416 14.585-4.4227 23.674 3.3429 28.895 9.2226 1.1907 1.3386 0.8949 2.1226-1.5531 1.6345-8.4608-1.6936-15.398-1.2055-24.976 3.587-14.858 7.4328-27.512 5.0587-38.532-2.5294l0.32542 15.102 0.41416 3.9198c11.182 3.587 19.836 16.16 20.486 23.667 2.9361 4.6594 13.793 18.859 18.201 22.291 4.4079 3.4243 11.434 24.081 10.613 35.589-0.11833 1.7084-1.7158 2.8548-3.2616 0.73219-10.384-14.2-41.224-40.078-51.837-46.446-2.0708-1.2425-3.1802-2.7734-3.513-4.1638-0.32541-1.3904-1.139-4.0825-1.9525-7.0186-7.6768-2.7734-9.474-6.8559-9.6367-9.548l-3.5056-26.699c-0.41417-3.9937-0.98364-7.5881-1.5531-10.443-1.5531 0.81353-3.3503 1.0576-4.8147 0.89489l-9.9621 5.7983c-5.0587 6.4491-10.694 16.323-13.63 22.772 4.5706 4.4892 6.3678 14.94 5.7983 21.145 1.3017 5.1401 5.7909 19.347 9.2226 23.918 3.4242 4.5706 3.587 26.033-0.49552 35.67-0.5399 1.2795-1.5457 1.8785-2.448 0-8.8676-18.556-21.137-38.451-30.774-49.056-1.8933-2.093-1.9599-3.3207-1.9599-5.2288 0-1.9007-0.10354-5.8797-0.21448-8.9785-0.97624-1.4126-2.8326-3.4316-3.6979-4.5188-0.8727-1.0872-1.1981-2.1226-1.0946-4.186-1.3017 0.87271-2.2853 0.65084-2.6107-0.82093-3.3651-15.147-14.799-34.339-17.247-39.013-2.448-4.6815-7.6177-12.247-12.026-17.58-1.3017-1.5753-1.7454-2.6699-1.5235-3.6461 0.21448-0.98364 0.10354-2.1744 0.10354-3.5352-3.3207 1.139-9.5776 5.2732-11.589 6.634 3.2615 3.7053 4.9552 9.6367 5.4951 14.533 1.5235 4.6224 6.6932 17.905 10.998 23.349 4.8147 6.0941 5.1697 27.749 2.6107 38.088-0.53989 2.1744-2.1226 1.7972-2.7808 0.11094-6.035-15.59-21.707-36.676-26.499-42.718-1.7824-2.2483-5.7687-5.8205-11.101-11.16-1.065-1.0576-1.3608-1.738-1.3091-3.6979 0.059166-1.9599-0.65083-5.2214-1.6862-7.8322-1.0872-0.98364-3.4243-3.5426-4.6224-4.8442-2.6403-2.877 0.11094-8.6013 1.2499-10.998 1.1463-2.3888 4.0825-4.186 7.1813-5.5468 3.1062-1.3608 13.771-9.6885 18.504-14.045 0.32542-4.5114 0.27364-12.565 0.27364-15.834 0-2.6181 1.3608-2.6625 3.9198-2.5589 2.5516 0.11093 10.554-0.21448 13.438-0.37719 1.1463-1.1464 2.9361-1.849 3.9198-2.019 2.9361-4.7851 7.344-13.327 11.589-21.98-1.4718-3.2098-4.4079-10.827-5.1105-12.625-0.71-1.7972 0.76177-2.6181 2.1226-2.9435 1.3534-0.32542 4.9478-1.7898 6.5305-2.5516 0.26625-2.3962 1.3534-6.0424 2.0117-8.3277-0.82093-2.6699-2.5589-8.5421-3.3725-11.212-0.5251-1.6936-0.05917-2.1226 1.3017-2.448 1.3608-0.32542 8.0023-2.1744 10.938-3.2689 0.81354-1.4644 2.1226-4.0233 2.8326-5.7096 0-1.1463-0.05917-4.7333-0.16271-6.5009-4.2452-6.2051-8.8971-12.654-11.678-15.265-2.1448-2.0264-5.0587-4.8221-4.896-5.717 0.16271-0.89489 4.9774-0.56948 7.1813 0l1.3904-1.8785c-0.56948-0.97624-1.5531-3.513-2.1226-4.9774-1.8785-1.7158-4.2452-4.8147-5.0587-6.1237-0.82093-1.3091-0.65083-2.7734 0.48812-3.3503 7.0852-3.5426 13.386-3.587 19.998-2.8548 10.85 1.2055 19.673 8.165 24.081 13.793 4.0011-0.97625 9.0598-2.448 10.938-3.1802s2.204 0.32542 1.5531 1.3091c-1.9525 2.9213-5.717 5.9536-8.3572 8.0762 4.3561 7.6177 7.0778 16.981 9.3631 24.487 3.2246 10.606 7.8322 19.924 19.155 23.733 11.094 3.7275 18.881 17.632 19.429 24.266-7.9727-7.4254-18.038-11.182-24.487-12.321" fill="#eef4f7"/>
 <path d="m49.163 240.94c1.494-3.4908 2.056-9.9991 2.0338-15.997-1.0724 1.0058-2.1892 2.0856-2.7956 2.8548-5.4729-8.2093-14.348-20.353-23.289-28.23 1.6641 3.0766 4.6963 8.5569 7.3218 14.533 5.3767 8.2759 11.005 18.083 14.525 26.433 0.61385 1.4496 1.7158 1.5531 2.2039 0.40677" fill="#C82F8B"/>
 <path d="m201.24 288.26c1.5235 2.1744 3.6979 0.76916 3.6979-0.65083 0-2.1226-0.47333-7.8396-1.7898-13.941l-2.3001 2.0043c-8.8676-10.332-23.496-19.562-29.073-22.032 6.2494 6.5231 10.502 11.759 13.224 16.84 6.5083 6.1533 12.514 12.455 16.241 17.78" fill="#C82F8B"/>
 <path d="m89.133 35.537c3.942-1.8489 9.5776-5.3324 12.847-7.4032 5.3324 5.6578 10.524 15.753 13.549 24.739 3.4021 10.11 8.4682 15.028 21.137 19.917 6.7746 2.6107 21.226 9.8734 23.593 20.649-5.0587-4.8147-13.549-9.9621-21.145-11.427-7.5881-1.4718-18.933-3.9198-24.894-10.043-5.961-6.1237-11.589-12.077-17.143-14.777 0.82093-1.7084 3.1062-4.8147 6.8559-5.7909-1.139-4.1638-6.5823-13.608-14.799-15.864" fill="#595857"/>
 <path d="m93.881 20.744c0.51031-2.485-14.259-10.968-23.474-11.463-1.9155-0.10354-2.7217 0.72479-2.2927 2.1522 0.41416 1.3756 1.6788 5.3398 2.6033 6.9151l-1.2351 1.849c2.2927 0.58427 6.5971 1.8711 9.1708 3.0471 1.1316 0.51031 2.5294 0.94666 4.3783 0.65083 2.1226-0.3476 10.643-2.1596 10.85-3.1506" fill="#727171"/>
 <path d="m65.243 87.398c-3.2615 9.6293-12.247 28.326-20.812 40.403 1.9525-0.56947 3.587-0.56947 6.1977 0.0814 2.6181 0.65822 12.003 1.9599 16.005 1.7158 4.1638-9.6293 13.63-33.873 15.428-43.672-3.7571 5.4729-11.434 10.288-13.468 9.6367-2.0412-0.65823-3.1876-5.5542-3.3503-8.165" fill="#727171"/>
 <g fill="#C82F8B">
  <path d="m95.008 254.45c1.8711 4.1786 6.1385 14.059 8.0984 20.553 2.4924 4.2748 8.1206 14.119 10.051 19.163 0.53249 1.3904 1.3386 2.0708 2.448 0 1.1094-2.0782 2.6255-9.4592 2.803-15.154-0.79874 1.065-2.5811 2.485-3.8236 3.1136-5.5173-8.4534-13.616-21.004-19.577-27.675"/>
  <path d="m81.185 206.17c-1.6419 1.383-3.6831 3.2172-4.5336 4.0085-5.0587-11.634-15.243-29.11-20.309-32.919 2.5663 5.5838 6.7746 17.743 8.2833 22.868 2.167 4.6594 6.6414 15.272 8.017 21.093 0.43635 1.8416 1.9081 2.0634 3.3725 0.53989 1.4718-1.5235 3.8606-7.5585 5.1697-15.59"/>
  <path d="m42.114 157.6c-0.71 0.24406-1.0058 0.38458-1.9007 0.8727-0.57687 3.1802-0.73958 6.035 0.56948 10.036 1.3017 4.0011 4.504 12.595 5.4655 15.346 1.1463 3.269 0.95406 6.9668-3.942 9.3335 1.3904 2.6921 3.0988 6.2568 4.4892 8.5422 1.4718-0.8949 4.4375-3.0988 6.39-1.383 1.9599 1.7158 11.02 8.8158 16.981 10.288-1.139-2.9435-2.8548-7.5141-4.0011-9.3927-1.383-1.4644-3.5056-4.3265-4.2452-5.3841-0.73218-1.065-0.92448-2.3445-0.81354-3.3725-1.139-1.8785-3.7793-7.2701-4.3561-8.165-0.86531 0.11093-1.6049-0.79135-2.093-1.9303-0.48812-1.1463-1.5235-3.868-2.2557-5.7465-2.2853-3.4242-6.9964-9.792-8.3794-11.264-1.3904-1.4644-2.2853-3.4834-2.1226-4.7851 0.16271-1.3091 0.3476-2.1004 0.21448-2.9953"/>
  <path d="m122.55 181.44c2.5294 3.9198 11.523 17.868 13.549 20.568 0.73958 0.98365 2.6329 2.2483 4.5706 0.57688 5.8797-5.0661 11.759-12.003 14.451-15.842 2.6921-3.831 6.6932-12.891 7.344-18.282 0.90229-7.4254-0.97624-24.569-2.9361-30.53s-4.4079-10.369-6.6932-12.159c-1.6345-0.0814-2.8548 0.40677-4.7333 1.9599-4.652 3.831-16.737 12.403-18.127 14.444 1.9599 3.4316 3.2689 9.2226 3.3503 15.102 2.3666 4.5706 3.513 8.8971-1.3904 12.329-1.9599 4.2452-5.9536 9.3039-9.3853 11.833m0.97625-48.65c3.1876-1.065 16.981-11.759 19.347-13.793 2.3667-2.0412 1.5531-3.9198 0.48813-5.4729-1.5088-2.204-6.279-6.5305-9.3039-8.5717-3.0175-2.0412-4.8147-4.9774-4.4892-5.6282 0.67302-1.346 6.2051 0 8.9785 0.81354 2.7808 0.81354 11.182 5.4655 13.061 6.9373 1.8785 1.4718 3.9198 1.065 6.3678-0.40677 2.448-1.4718 9.6367-6.0424 12.654-8.0022 3.0175-1.9599 7.9209-2.9361 8.6531-1.7158 0.73218 1.2277-2.448 5.717-3.6757 7.1887-1.2203 1.4644-10.613 9.4666-12.159 10.776-1.5531 1.3017-1.6345 3.9124-0.98364 5.5468 1.3534 3.3799 5.8797 15.916 7.5141 19.103 1.6271 3.1802 2.0412 26.936 1.5457 31.587-0.48812 4.652-5.4655 16.818-7.7508 20.412-2.2853 3.587-16.167 18.526-17.306 19.917-1.1464 1.383-1.3091 3.1802-0.32541 4.8147 1.3017 2.1744 5.8723 10.288 7.7508 13.468 1.8785 3.1876 2.1226 7.9209 1.065 8.5717-1.065 0.65083-5.4729-2.0412-7.3514-3.6757-1.8711-1.6271-7.8322-10.28-9.0598-11.915-1.2203-1.6345-3.0988-2.1226-5.4655-1.309-6.8337 2.3592-15.834 3.1062-21.226 1.3904-1.9525-0.62125-1.1464-1.9747 0.24406-2.448 4.8147-1.6345 11.345-4.8147 15.102-7.2701 2.1078-1.3682 1.309-3.4243 0.65083-4.4892-2.9879-4.8516-11.427-16.892-16.404-21.381-6.3678 1.7084-14.777-0.32542-15.997-2.0412 15.916 0.1627 25.22-10.776 27.912-18.371 0.58427-1.6271-0.24406-2.448-0.89489-3.0988-3.1432-3.1432-15.428-10.613-14.451-12.98 0.79135-1.9081 12.654-0.40677 17.143 2.2853-0.48813-16.323-15.997-27.675-30.693-27.342 8.4904-5.7983 25.878 0.56947 29.058 7.1"/>
 </g>
 <path d="m78.189 10.814c-0.42896 2.3962-0.24406 5.4655 2.3371 6.8189 2.5737 1.3534 6.0202 0.98364 8.2315-1.6567-2.7069-1.7824-7.4993-3.9937-10.569-5.1623" fill="#F19DB5"/>
 <path d="m85.929 23.346c1.8416-1.2943 0.85791-5.0957-1.8416-4.8516-3.6091 0.32542-3.0101 4.1786-1.4126 5.3398 0.67302-0.05917 2.5811-0.36239 3.2542-0.48812" fill="#F19DB5"/>
 <path d="m78.419 15.172c0.15531-1.3386 1.5679-2.729 3.1358-2.2631 1.5679 0.46594 1.701 2.13 1.5679 2.7808-0.19969 1.028-0.94666 1.7454-2.4184 2.0264-0.97625-0.51031-1.8711-1.4866-2.2853-2.5442" fill="#e73820"/>
 <path d="m157.45 112.79c-0.95406-1.2277-4.1195-0.33281-5.7909 1.3017s-3.7497 4.3561-2.3445 5.9388c1.1907 1.3386 4.3487 0.0739 6.0572-1.5975 1.7084-1.6714 3.2689-4.1195 2.0782-5.643" fill="#F19DB5"/>
 <g fill="#C82F8B">
  <path d="m61.431 96.991c-2.3962-2.5442-5.0144-5.0957-6.1385-5.9906-1.1242-0.90229-4.859-3.0914-6.072-2.3962-0.51771 0.29583-0.59906 4.4892 0.68041 6.8855 1.2721 2.3962 5.0883 8.165 6.8855 10.709 1.5753-2.6181 3.5204-6.4343 4.6446-9.2078"/>
  <path d="m95.508 97.889c1.42-0.14792 4.7185 0.37719 4.9404 1.6493 0.22927 1.2721-2.5885 2.7734-4.7185 3.5944-2.9213 1.1242-7.4845 3.2172-11.907 7.8617 0.37719-2.093 0.58427-4.7407 0.93187-6.8633 3.1136-1.9007 7.4624-4.223 10.753-6.242"/>
  <path d="m81.653 0.6625c-3.9715-0.059166-11.353 0.24406-17.151 3.1432-1.1094 0.55468-1.6049 1.2721-1.2721 2.2039 1.5975 1.6049 3.4169 3.2542 4.9108 4.3044 0.05177-0.82833 0.99104-1.5457 4.4671-0.71739-1.4348-1.8711-2.9509-4.3413-2.7586-5.1845 0.27364-1.2129 6.1755-3.0323 11.804-3.7497"/>
 </g>
 <path d="m66.495 203.91c-3.3133-3.0766-4.7851-4.9922-5.5542-6.0128-0.79875-1.0724-0.71-2.6403 0.15531-3.7497-0.09615-0.81354-0.43635-0.83573-0.04438-1.8859-1.2277-2.1818-2.7956-5.2066-4.297-7.9431-0.48073 0.13313-0.28844 0.0222-1.1094-0.31802-1.7898 0.17011-3.0545-0.44375-3.4834-1.6419-0.99104-2.7734-2.7734-7.418-4.223-12.026-0.6952-1.1981-4.0381-5.4137-5.0587-6.3678-1.028-0.95406-0.85052-2.6181-0.71-3.6461 0.13312-1.0206-0.0074-1.7898-0.05917-2.7217l-1.7676 0.64344c-0.8875 3.3503-0.48073 7.3144 0.40677 10.184s4.1047 11.885 5.6726 16.056c0.59906 1.5827 0.68041 2.9657 0.37719 4.149 0.99104 1.0724 1.2943 2.5442 0.61385 3.6387-0.59906 0.96885-2.3667 2.2409-3.9937 3.2024 1.1168 2.2114 2.4702 4.6446 3.5648 6.1829 3.4169-2.2557 5.3841-2.0782 6.8855-0.77656 4.3191 3.7349 12.122 8.801 15.132 9.3409-0.83572-2.0856-1.8933-4.7999-2.5072-6.3086" fill="#AE267A"/>
 <path d="m167.71 173.11c-1.6271 4.4671-5.6578 12.846-7.8396 16.323-2.6995 4.3265-9.1412 8.9267-14.799 13.719-1.4718 1.2425-4.8147 1.9599-6.3604 0.39937-1.3904 1.3978-4.0899 0.99844-5.2584-0.50291-3.3207-4.26-11.782-17.373-12.528-18.63-0.75437-1.2499-0.50291-4.3413 0.99844-6.4269-0.25146 0.99843 0.25145 2.5885 0.8653 3.5056 4.9404-4.0307 7.6694-9.2965 9.0377-12.026 2.4702-1.3682 3.1876-3.0619 3.3799-4.7481-6.5675 1.1685-18.793-9.8216-27.143-13.926-1.3312 1.7676 10.317 9.6589 14.481 12.928 1.2351 0.96885 1.2203 1.7158 0.97625 2.6921-2.2779 9.1264-14.444 19.429-28.733 18.608 5.3915 3.2689 12.492 3.2689 16.655 2.2853 6.035 5.3915 12.654 15.679 16.323 21.145 1.3164 1.9525 0.98364 3.1876-0.40677 4.4892-2.5664 2.411-10.857 5.961-15.509 7.5955-1.346 0.46594-1.3904 1.383 0 2.204 4.4079 2.5885 17.632 0.0813 22.202-1.4718 2.1004-0.7174 3.8384 0.56947 4.7333 1.7972 2.1744 2.9583 6.8263 9.7329 8.409 11.427 1.1759 1.2499 6.242 4.5928 7.7138 3.905-0.76176-2.6477-1.9895-5.9906-2.7364-7.418-0.89489-1.7084-5.3028-8.8158-7.7508-12.891-0.66562-1.1094-0.30323-2.6329 0.81354-3.8384-0.0814-0.82093 0.58427-1.8416 1.4718-2.8326 4.3635-4.8812 14.096-15.664 17.143-19.909 3.0545-4.2452 7.8839-18.615 7.7804-21.884-1.0872 0-3.0471 1.0872-3.9198 3.4834" fill="#AE267A"/>
 <path d="m64.917 8.8703c0.97624 1.3091 2.4998 2.8326 3.5944 3.6461-0.36979-1.0428-0.44375-1.7528-0.34021-2.2409-1.1833-0.77656-2.1596-1.5605-3.0545-2.411-0.12573 0.31062-0.19229 0.65083-0.19969 1.0058" fill="#cbd0d3"/>
 <path d="m94.303 20.217c-4.0825-7.1813-18.881-12.625-23.674-13.63-0.04438-0.014792-0.08875-0.014792-0.14052-0.029583 0.5251 0.8801 1.2425 1.9821 2.0412 2.9953 8.0318 1.3017 17.868 6.8855 21.773 10.665" fill="#cbd0d3"/>
 <path d="m71.121 9.3607c0.45854 0.044375 0.93187 0.11094 1.4126 0.19229-0.79875-1.0132-1.5161-2.1152-2.0412-2.9953-3.3651-0.67302-4.8812 0.073958-5.3767 1.3091 0.89489 0.85052 1.8711 1.6271 3.0545 2.411 0.27364-1.2573 1.775-1.0354 2.9509-0.91708" fill="#AE267A"/>
 <g fill="#cbd0d3">
  <path d="m137.81 73.195c-6.1829-2.2705-18.364-7.2627-21.958-19.103-3.5944-11.833-7.9209-19.177-13.956-25.959l2.2557-1.5235c4.4597 4.6815 9.6589 13.941 12.846 26.018 1.9673 7.4624 6.782 13.024 16.323 16.648 6.5305 2.485 12.018 5.4951 15.938 9.94-3.1358-2.093-8.2611-4.8442-11.449-6.0202"/>
  <path d="m96.317 59.263c1.1981-5.007 5.7687-7.4032 7.6177-8.054-2.4998-8.054-9.5776-13.823-14.259-15.672 8.165-4.6815 16.33-9.7994 20.028-12.736-16.219 8.6013-24.273 5.3324-29.931 2.8326-4.7185-2.093-11.316-3.8088-16.544-3.7053 6.2051 5.9906 10.561 11.759 15.568 19.052 0.21448 1.4126 0.32542 3.6979 0.42896 5.8723 0.38458-1.1685 0.71-2.0634 0.8727-3.0471 4.0825-0.73218 9.6145 1.849 12.329 6.4491 2.6921 4.5706 0.56948 9.7994 5.2214 11.101z"/>
  <path d="m67.692 69.603c-0.65083 7.4254 0.30323 18.63 2.6921 19.185 3.1876 0.73218 13.882-7.5141 17.876-22.121-0.97624 7.4254-1.4274 8.7566-2.8548 12.98-3.2615 9.6293-14.281 16.892-16.899 15.916-3.0471-1.1463-6.035-13.793-0.81354-25.959"/>
  <path d="m56.734 82.453c2.3297 3.9124 4.652 6.9816 6.9816 9.4149-0.31802 0.73958-1.139 2.9731-1.9451 4.7629-1.9673-4.5558-4.8221-10.48-5.0365-14.178"/>
  <path d="m63.927 57.278c2.1152 3.4908 3.8088 5.924 5.606 7.9357-0.42156 1.0576-1.3756 3.1728-2.0117 4.8664-1.6936-5.1845-4.0159-11.641-3.5944-12.802"/>
  <path d="m107.19 73.357c-4.2304 0.31802-14.91 2.4332-18.194 4.97-2.3297 1.7972-2.0117 6.2421-0.21448 8.4608 0.5325-1.9007 1.0576-3.6979 1.5901-5.288 5.3915-3.2763 16.5-6.2421 16.818-8.1428"/>
  <path d="m84.87 121.59c-1.7972-4.8664-1.5901-9.94 0-17.454 4.3339-3.3873 11.441-5.8427 11.338-7.4328-4.0233 0.54729-10.191 2.5959-14.695 5.007-3.4021 1.8194-3.0619 3.8976-2.1744 4.896 0.8727 0.98364 1.5235 2.6181 1.6345 4.6815 0.16271 3.0767 2.0634 8.2759 3.8976 10.302"/>
 </g>
 <g fill="#595857">
  <path d="m147.12 77.848c2.7734 3.0988 5.1401 6.4491 6.4491 10.369-5.9906-3.4834-12.299-6.316-19.591-7.4032-7.2923-1.0872-15.457-4.1343-21.226-10.554-5.7687-6.4269-11.641-10.998-15.561-13.061 0.53989-1.7454 2.6107-4.6815 6.745-5.9906-0.86531-4.2452-6.9668-13.165-14.688-15.672 4.6741-2.3962 9.7403-5.2214 12.647-7.4032 5.5247 6.1015 10.421 14.481 13.475 24.495 3.0471 10.007 8.4312 15.087 20.649 19.917 4.1342 1.6271 7.5067 2.9361 11.101 5.3028"/>
  <path d="m88.871 16.011c-0.47333 0.48812-1.0206 0.8875-1.5605 1.2055 1.9821 1.2869 3.7793 2.7143 5.1623 4.2452 0.71-0.19969 1.4718-0.60646 1.4718-0.90968 0-0.19969-1.7898-2.3149-5.0735-4.541"/>
  <path d="m71.121 9.3607c-2.3888-0.27364-3.4538 0.63604-3.0027 2.3667 0.66562-0.71 1.7232-1.0946 3.2985-0.86531 1.8637 0.26625 4.2452 0.91708 6.7819 1.8489 0.0074-0.49552 0.04437-1.0206 0.10354-1.5827-4.223-1.42-6.2347-1.6567-7.1813-1.7676"/>
 </g>
 <path d="m88.871 16.011c-2.1892-1.5309-7.736-4.3118-10.569-4.8812-0.05917 0.56208-0.09615 1.0872-0.10354 1.5827 0.44375 0.16271 0.8875 0.34021 1.3386 0.51771 1.3386-0.94666 3.4464-0.23667 3.6313 1.6419 1.4274 0.71 2.8252 1.494 4.1416 2.3445 0.53989-0.31802 1.0872-0.71739 1.5605-1.2055" fill="#D1889E"/>
 <path d="m79.535 13.232c1.2055 0.48812 2.4258 1.0354 3.6313 1.6419-0.1849-1.8785-2.2927-2.5885-3.6313-1.6419" fill="#c7311c"/>
 <path d="m63.715 91.866c0.25885 3.1062 1.775 7.0482 3.5648 7.4624 2.4776 0.56948 9.903-3.1432 13.431-7.7138 0.42156-1.4422 0.85791-3.1802 1.2425-5.4655-2.8326 4.5706-10.938 10.036-13.446 9.4149-1.3091-0.33281-2.8844-4.9034-3.2615-8.0614-0.65823 1.8563-0.97624 3.0545-1.5309 4.3635" fill="#595857"/>
 <g fill="#cbd0d3">
  <path d="m29.653 121.44c0.89489 5.4655 2.448 10.613 3.6757 13.386-1.3904 1.5531-3.1876 3.269-4.5706 4.652 0.32542-4.652-0.25146-16.729 0.89489-18.038"/>
  <path d="m40.21 148.46c-6.5305 5.8797-18.068 15.021-23.999 17.683-4.2748 1.9229-11.537 3.0471-15.457-0.86531 0 2.1744-0.081354 3.9863 0.8727 5.007 1.7454 1.849 7.9431 7.7212 9.903 9.4666 0.57687 1.9303 0.51771 4.0825 0.73958 4.9552 0.21448 0.8653 7.5881 7.3958 8.0762 6.9077 0.32542-0.32541-1.738-3.8088-3.1506-5.6578 1.6271 1.4792 3.2246 1.3017 4.2378-0.98365 0.65823-1.4644 1.5309-2.3888 2.8326-2.7216 4.6298-3.3133 7.6177-8.7048 8.4904-15.013-0.81354-1.3091-1.3091-2.1818-2.0708-3.0471 3.9198-2.8326 7.455-4.9034 11.375-6.3678-0.05177-2.8844-0.81354-6.7524-1.8489-9.3631"/>
  <path d="m35.344 188.48c2.8474 4.8738 7.6399 10.887 12.026 14.385-3.1654-5.1992-9.0968-16.5-11.456-24.303 0.24406 3.4168 0.16271 6.4269-0.56948 9.9178"/>
  <path d="m48.401 227.8c0.60646-0.76916 1.7232-1.849 2.7956-2.8548-0.01479-2.5516-0.12573-5.007-0.31802-7.1-4.0899-5.3915-19.518-18.157-22.86-20.331-3.3355-2.1744-7.8913-3.6535-12.321-4.9774 1.7084 1.7972 3.1802 3.6757 4.7333 5.3028 2.7512 2.8992 7.2775 8.9933 12.003 16.263-2.6255-5.9758-5.6578-11.456-7.3218-14.533 8.9415 7.8765 17.816 20.02 23.289 28.23"/>
 </g>
 <path d="m31.694 206.17c2.8548 5.3028 4.1638 9.548 5.3841 15.021 2.8622 4.652 7.9135 14.207 9.7181 19.103 0.56948 1.5457 2.1374 1.775 2.6107 0.24406 1.3091-4.2452 1.7898-10.613 1.7898-15.59-1.0576 0.89489-2.0856 1.9525-2.7956 2.8548-3.8088-5.6356-10.909-14.888-16.707-21.633" fill="#AE267A"/>
 <path d="m116 258.07c-2.6847-4.3265-7.0926-15.997-8.9933-22.742-0.1701-10.384-1.5605-18.334-6.1385-22.054-1.7306 3.0249-2.5959 6.1385 0.1701 9.511 1.1094 5.362-1.8268 12.299-2.9805 13.993-0.93187 1.3608-1.2573 2.5442-0.49552 4.4079 1.3608 3.3207 2.4554 7.4624 1.7972 10.724 1.5235-1.1981 2.3962-2.1744 3.0471-3.158 6.2051 8.4904 11.974 22.476 12.625 29.82 0.10354 1.1242 0.12573 2.1892 0.0961 3.195 0.98364-0.68042 2.2113-1.5679 3.3577-2.4258 0.5251-9.3039-0.75437-18.482-2.485-21.27" fill="#cbd0d3"/>
 <path d="m111.77 291.47c0.69521 1.4052 1.1168 2.2261 1.4644 2.8326 0.72479 1.2795 1.9007 1.0354 2.5072-0.51771 1.6197-4.1564 2.4554-9.3187 2.7438-14.451-1.1463 0.85791-2.374 1.7454-3.3577 2.4332-0.1701 5.6208-2.1152 9.4296-3.3577 9.7033" fill="#AE267A"/>
 <path d="m82.712 234.17c0.58427 2.3519 0.5251 6.0276 0.8727 7.1296 0.34021 1.102 4.5706 6.2568 4.9478 6.1459 0.3476-0.0961-1.5235-5.7096-3.3725-8.9785 1.0872 0.98364 2.803 1.494 3.7571 1.2573 1.3017-0.33281 1.7898-2.766 2.3667-3.9198 1.6345-3.2689 3.2615-4.652 2.1226 0.40677 2.1448-4.2156 7.4845-10.857 7.4845-13.904-1.9599-1.6345-1.6419-5.2288-0.54729-7.6177 2.3962-5.2288 8.054-15.894 14.259-24.162-0.98364-1.3091-1.849-2.4258-2.8326-3.2911-3.831 0.73218-12.24 1.0576-16.973-2.204-1.7158-0.0814-5.1475-0.41417-6.7819-0.98364-0.40677 2.3445-1.383 5.717-2.1448 8.2167 5.8871 3.7719 8.5939 7.6177 8.054 13.061-0.5251 5.2214-8.0318 14.991-6.316 20.028 1.7454 5.1179-0.8727 10.554-4.896 8.8158" fill="#cbd0d3"/>
 <path d="m102.93 187.62c-0.48812 1.4718-1.2277 3.2468-1.0132 4.5632s1.5605 5.0883 2.2113 5.5173c0.64344 0.42896 4.1343-0.24406 6.4935-1.4052 1.1907-1.6862 2.9066-4.2304 4.1934-5.643-0.97624-1.0724-2.1374-2.3888-3.1506-3.3355-2.5442 0.54729-5.1475 0.76177-8.7344 0.30323" fill="#595857"/>
 <g fill="#cbd0d3">
  <path d="m165.65 239.07c3.2616 3.4982 6.1237 0.79135 4.6594-1.9155-1.3756-2.5442-1.9377-5.2658-1.9895-7.773-0.11833-5.5764-3.6461-13.926-8.1132-17.41 3.4834 5.3324 4.4671 10.776 3.5944 15.997-0.72479 4.3487-1.1981 7.8395 1.849 11.101m6.1237 14.577c6.2494 6.5231 10.228 11.545 12.943 16.626-9.3409-8.8232-19.148-16.907-22.55-19.665-2.7734-3.2689-8.9267-9.4148-10.717-10.391-1.7972-0.98364-2.2927-2.6181-2.9435-4.7407 2.9953 2.0708 5.8205 3.3799 6.5823 2.8326 0.76916-0.54729 0.98364-3.4834-0.32541-6.745-1.3017-3.269-7.7286-13.823-8.7049-15.568-0.97624-1.738-0.65083-3.2616 0.21448-4.2452 1.6123-1.8046 6.6414-7.2922 8.8158-9.6885l0.22187 3.8088c12.839 4.6815 19.481 16.441 20.893 24.169 5.2288 12.188 20.028 30.582 24.709 35.692 0.92448 2.5442 1.6567 5.2806 2.2335 7.9357l-2.3001 2.0117c-8.8676-10.332-23.496-19.562-29.073-22.032"/>
  <path d="m162.49 168.76c-5.9906 4.3561-12.026 8.1058-19.155 11.316-1.3164 0.59166-0.96885 1.42 0 2.729 2.4406 3.3133 3.831 8.6309 3.831 13.771 2.8104-3.2616 6.4196-7.9357 7.6251-9.4518 0.12573-2.8474 0.12573-6.3678 0.48813-8.6087 0.63604 0.63604 1.8268 1.8268 2.877 2.8104 1.4792-3.5796 2.9805-7.5807 4.3339-12.565"/>
  <path d="m170.11 176.38c5.4137 6.5305 13.741 9.6293 23.726 7.2923 8.8158-2.0634 17.417-2.7217 26.447 2.3962-6.8781-1.3608-14.895-2.3888-21.492 0.84312-7.6768 3.7571-18.778 7.6694-32.815 0.0814 1.6345-3.513 2.803-6.3678 4.1342-10.613"/>
 </g>
 <path d="m158 181.22-2.8918-3.0323-0.355 8.6753c0.99104-1.4126 2.4702-3.7423 3.2468-5.643" fill="#595857"/>
 <path d="m165.97 186.99c-0.49552 1.6345-1.4126 3.5352-2.1152 4.5262 7.1961 3.2468 17.698 3.6683 27.645-1.2721-6.7746 1.1981-16.714 2.0264-25.53-3.2542" fill="#595857"/>
 <g fill="#cbd0d3">
  <path d="m80.371 159.93c3.158 19.747 32.837 14.281 39.937 6.8041 0.50291-0.53249 0.67301-0.94666-0.037-1.7824-2.5516-3.0027-10.073-6.8411-12.943-13.497 2.7216 3.5426 11.33 9.0894 15.302 12.484 0.85791 0.73219 1.1168 1.2499 0.73218 2.8844-1.7158 7.2627-13.305 18.941-27.756 18.282-11.885-0.5325-16.892-5.0587-20.649-10.85-1.9599-5.961-3.8384-12.654-4.652-16.981 0-1.3091 0.08135-2.8622-0.08135-4.1638 3.0988 0.16271 6.3086 0.44375 9.792 2.1226 4.4079 2.1226 10.288 1.8194 14.23-1.7158-2.4184 3.6461-6.8929 6.9373-13.875 6.4122"/>
  <path d="m73.406 142.85c3.513-1.2499 21.182 3.195 22.136 2.7069 0.75437-0.39198 0.55468-4.2304 0.8801-7.4919 0.65823 3.3133 1.2869 6.316 1.7454 7.9949 0.44375 1.6123 0.26625 2.6255-1.8711 2.4036-5.2362-0.56208-16.374-4.9256-22.89-5.6134"/>
  <path d="m127.81 177.73c0.78395 1.775 1.4866 4.3709 1.7528 6.2347-1.2203 0.73958-3.3429 1.1464-4.896 0.82093-0.81354-1.2277-1.4644-2.204-2.1226-3.1876 1.9377-1.6714 2.5737-2.3149 3.8828-3.868 0.45114 0.0518 0.85791 0.074 1.383 0"/>
 </g>
 <path d="m185.43 270.64c5.3176 2.5294 15.198 10.051 19.34 16.552 0.0814-5.0661-0.78395-9.8956-1.6345-13.527l-2.167 2.2113c-5.3176-5.998-19.31-18.208-29.199-22.232 3.6092 3.8236 9.6071 11.086 13.66 16.996" fill="#AE267A"/>
 <path d="m105.26 127.43c10.532 6.8263 16.323 14.474 17.136 24.428 0.96885 0.36239 1.7824 0.68781 2.84 1.2573-0.24406-8.409-5.1401-19.754-19.976-25.686" fill="#cbd0d3"/>
 <path d="m80.208 184.76c-2.8326-4.896-8.8158-17.632-9.792-27.209-0.22187-7.0778-2.2927-14.148-5.6652-16.87 3.5944 8.165 2.8326 13.823 0.32542 16.87-1.4644 1.7824-2.448 3.2763-2.8252 5.007-0.54729 2.4998 3.0471 8.7049 0.53989 14.636 1.9599-1.6345 3.2689-2.9361 4.4079-4.7333 2.8844 6.0941 6.3678 12.299 8.6531 15.346 1.1168 1.4866 1.849 13.756 0.7026 22.18 1.4792-1.1685 2.8918-2.3667 4.5262-3.7571 0.92448-7.0408 1.5753-17.232-0.8727-21.47" fill="#cbd0d3"/>
 <path d="m81.084 206.22c-1.6419 1.3904-3.0471 2.5885-4.5336 3.7645-0.28104 2.0412-0.66562 3.8606-1.1833 5.2436-0.54729 1.4496-1.9821 3.1358-3.1136 3.6461 0.1701 1.0354 0.39937 1.9007 0.60646 2.8326 0.27364 1.1907 1.2499 1.7898 2.6699 0.37719 2.3962-2.3962 4.3635-7.7286 5.5542-15.864" fill="#AE267A"/>
 <path d="m89.409 146.84c-3.4538-1.3091-9.7181-3.0323-14.311-3.8236-2.0708-0.355-4.6963-0.43635-8.9563-0.92447 2.1226 3.5944 3.3429 5.6356 3.7571 10.776 3.0175 0.1627 7.6916 0.81353 10.362 2.6107 3.158 2.1226 10.931 1.1611 13.985-1.9599 1.3608-1.383 2.5072-3.4243 2.7512-5.0587-1.7158 0.16271-4.3191-0.38458-7.5881-1.6197" fill="#cbd0d3"/>
 <path d="m62.359 141.66c-4.0307-0.54729-9.1412-0.11094-12.299-1.7454 0.43635 2.5072 0.08875 5.4507-0.74698 7.0112-1.1094 2.0856-3.8828 2.3297-5.4581-0.037-2.5663-3.8532-5.7022-2.2779-8.7122-7.137-0.22927 2.7734 5.2362 7.3662 9.2891 14.503 0.32542 2.0412 0.32542 5.5542 0.24406 6.2051-0.08135 0.65083 7.1813 7.4328 7.6694 7.1813 0.48812-0.24406-4.1638-7.6694-5.0587-9.0598 1.139 0.82093 3.4243 1.8785 5.0587 1.7158 1.6345-0.16271 2.1226-2.448 3.2689-3.5056 1.139-1.065 2.448-1.1464 3.5056-0.65822 2.5885-2.9361 4.1121-10.339 3.2394-14.474" fill="#cbd0d3"/>
 <g fill="#AE267A">
  <path d="m49.11 88.57c0.84312 2.6181 1.4052 4.3413 2.3371 5.9314 0.93927 1.5901 4.7333 6.6118 7.0186 8.8971l-1.383 2.9361c-2.3667-2.9361-6.4491-9.2226-7.2701-11.02-0.81354-1.7972-1.4052-5.9018-0.7026-6.745"/>
  <path d="m100.38 99.679c-2.1078 0.40677-6.1607 1.9451-7.9431 2.84-1.7824 0.8875-5.5099 2.9953-8.0984 4.859l-0.56948 3.3207c2.1078-1.9451 5.4285-4.3709 6.8041-5.1845 1.383-0.81353 9.3187-3.8902 9.8068-5.8353"/>
  <path d="m95.128 125.46c13.697-1.7454 31.913 7.7212 32.349 28.851l-2.2335-1.1981c-0.62125-18.475-19.325-27.978-30.116-27.653"/>
  <path d="m149.98 124.29c-1.5827-0.19229-3.5204 0.8801-4.6668 1.9377s-12.994 10.302-16.204 12.773c-1.1464 0.8801-2.1226 4.1121-0.3624 5.7022 0.95406-0.0296 2.0117 0.48812 2.8326 1.4126-0.43635-1.3091-1.0354-2.8844-1.7454-4.0307 2.3445-2.5516 15.235-11.693 17.964-14.311 1.4126-1.3608 3.1506-2.1744 5.0587-1.9599-0.76177-0.7026-1.5605-1.3608-2.877-1.5235"/>
  <path d="m144.47 118.36c2.6107-2.1596 2.6329-5.0439 1.2943-6.5823-2.7882-3.1802-14.178-11.493-16.374-12.639 0.43635 1.346 1.6862 3.6165 4.186 5.3176 2.4924 1.701 7.5733 6.035 9.5332 8.5126 0.85052 1.0798 1.7602 3.0101 1.3608 5.3915"/>
  <path d="m161.75 118.78c-1.1611-2.6477-1.3756-5.0291 0.31062-6.3234 3.2394-2.4776 13.623-10.776 17.136-15.487 0.73958 0.28104-0.79135 4.1416-3.2911 6.634-2.4924 2.4998-9.1782 8.4756-11.456 10.332-0.90969 0.73958-2.4184 3.2542-2.6995 4.8442"/>
 </g>
 <path d="m149.79 116.26c-0.28844 3.084 4.1712 2.9139 7.9431-1.3164-0.73958 2.4628-4.0307 6.0941-7.6546 5.4877-1.3756-0.22927-1.6049-2.2261-0.28844-4.1712" fill="#D1889E"/>
 <path d="m40.312 148.26c-1.1833 1.0946-4.9478 4.3044-5.569 5.5394-0.61385 1.2351-2.2335 6.4491-1.6567 6.9447 0.19969 0.1701 1.0428 0.45114 1.8563 0.47333 1.9081-1.0058 5.4285-2.8918 7.026-3.5426-0.19229-2.3888-0.81354-6.7967-1.6567-9.4148" fill="#595857"/>
 <path d="m134.16 207.53c-1.42 0.96145-1.1907 4.4745 0.73218 6.782 1.9303 2.3075 4.3192 3.476 5.7835 2.5516 1.4644-0.91708 0.73218-4.4227-0.59906-6.1829-1.3312-1.7676-4.3118-4.2378-5.9166-3.1506" fill="#F19DB5"/>
 <path d="m133.6 208.17c0.39198 1.3386 4.2082 2.9731 6.1385 2.13 2.2779 2.9731 2.7734 6.9299-0.53989 6.9299-4.2156 0-7.2849-7.4772-5.5986-9.0598" fill="#D1889E"/>
 <path d="m58.114 188.89c-0.82093-1.3904-3.9198-1.3091-6.0424 0.16271-2.1226 1.4718-3.6461 3.8088-2.7734 5.1697s4.0825 1.1464 5.9832-0.16271c1.9081-1.309 3.9198-3.3207 2.8326-5.1697" fill="#F19DB5"/>
 <path d="m52.354 188.92c0.49552 1.6567 3.8088 2.374 6.0646 1.2721-0.38458 1.9821-3.2542 4.9034-6.671 5.0144-3.4169 0.11094-4.0233-3.8014 0.60646-6.2864" fill="#D1889E"/>
 <g fill="#0f141b">
  <path d="m80.814 14.745c-0.36239 0-0.62125 0.29583-0.62125 0.58427 0 0.26625 0.22187 0.58427 0.56208 0.60646 0.31062 0.01479 0.59166-0.25146 0.61385-0.53989 0.01479-0.30323-0.19229-0.65083-0.55468-0.65083"/>
  <path d="m81.447 20.299c-2.6255-1.2943-6.8189-2.6551-9.3113-3.121-0.93927-0.1775-1.5753 0.02958-1.8046 0.46594l0.38458 0.77656c0.05917-0.54729 0.45854-0.68781 1.2647-0.51771 2.1892 0.46594 6.989 2.0486 9.474 3.3503z"/>
  <path d="m111.84 21.299c3.3873 5.924 6.0498 13.261 8.8676 22.609 3.942 13.113 8.52 21.751 19.791 25.937 11.397 4.2378 17.698 15.931 19.163 22.454-6.3456-5.6356-13.542-9.6885-23.016-11.715-7.9431-1.701-17.24-3.2542-23.615-10.768-3.0249-3.5648-11.382-11.271-15.753-13.312l-0.5325 1.2203c4.1269 2.0338 11.87 8.727 15.45 12.861 6.6266 7.6399 16.404 9.9326 24.132 11.5 8.7492 1.7676 17.173 5.9536 23.541 11.663 0.53989 0.48073 1.0946 0.48073 0.91708-0.5325-1.3238-7.4328-7.5141-20.05-19.858-24.635-10.983-4.0751-15.28-12.107-19.163-24.998-2.8326-9.4075-5.5025-16.944-8.9119-23.06z"/>
  <path d="m108.93 14.549c-2.84-3.6387-6.1977-6.6636-10.391-9.23-11.574-7.0852-25.841-6.3826-34.457-2.0264-1.7898 0.90229-1.8711 2.3297-1.0872 3.6979 1.1611 2.0338 3.794 5.2954 5.9092 7.2479l-0.40677-2.1374c-1.8194-1.8194-3.587-3.8976-4.5706-5.6134-0.59166-1.0354-0.41416-1.6419 0.66562-2.1818 7.9061-4.0011 21.477-4.8147 33.163 2.3371 3.868 2.3667 7.026 5.0809 9.7255 8.3129z"/>
  <path d="m68.238 9.9087c-1.9821-1.3904-3.9715-3.3059-5.0957-4.933l0.45854 2.1004c1.2129 1.2943 2.766 2.6033 4.4449 3.7497z"/>
  <path d="m80.683 0.5826c-5.4433 0.61385-11.234 2.0264-11.619 3.7866-0.24406 1.1242 1.5457 3.6683 3.0027 5.1549l1.4052 0.16271c-1.8268-2.0782-3.3725-4.504-3.2246-5.0661 0.31802-1.1611 7.6103-3.2172 14.141-3.587z"/>
  <path d="m119.3 11.014c-6.1163 2.1596-15.479 4.6076-25.013 5.9166-0.95406 0.13312-0.8875 0.80614 0.08135 0.73958 9.0229-0.63604 19.762-3.6018 25.316-5.7391 0.76916-0.29583 0.80614 0.09614 0.36979 0.71739-5.1549 7.2849-25.626 20.043-33.998 23.814-2.0117 0.90229-3.4095 1.346-4.3635 0.81354-1.42-0.78396-2.5885-1.1981-4.1416-0.85791-0.93187 0.20708-0.76177 0.73218 0.1849 0.6952 1.1981-0.04437 2.3593 0.56948 3.3133 1.2277 1.3904 0.95406 3.8384 0.10354 5.3915-0.59906 8.409-3.8384 29.465-16.788 34.494-24.399 1.4718-2.2335 0.27365-3.0027-1.6345-2.3297"/>
  <path d="m79.314 46.543c0.1849-3.1728-0.1701-7.0556-0.66562-9.6959l-0.96145 0.02219c0.59906 3.121 1.0724 8.2167 0.82093 11.404z"/>
  <path d="m79.595 44.256c-1.3978 5.924-7.2331 13.919-9.3631 17.95-10.11 19.14-4.578 33.274-1.812 33.865 3.55 0.76177 14.185-6.4343 17.003-15.842 0.37718-1.2351-0.22927-1.4496-0.6952-0.23667-3.4464 8.875-13.305 15.627-16.078 15.058-1.6493-0.34021-7.3736-13.431 2.7364-32.246 2.5294-4.7037 7.5141-12.085 8.9267-18.364 0.31062-1.3978-0.39198-1.5753-0.71739-0.1849"/>
  <path d="m86.603 54.141c0.66562 3.3725 1.2203 8.165 1.2499 12.395 0.0074 1.3904 0.54729 1.3904 0.73958 0.01479 0.55468-3.9863-0.13312-9.829-1.2721-12.588-0.37718-0.91708-0.90968-0.79135-0.71739 0.1775"/>
  <path d="m88.484 36.006c7.6177 1.8563 13.29 10.125 15.376 16.078 0.39198 1.1168 0.99843 0.93927 0.71-0.19969-1.494-5.9536-7.2849-14.422-14.858-16.685z"/>
  <path d="m96.507 59.916c0.85052-3.8236 3.6683-6.7746 7.5881-8.1058l-0.3476-1.1685c-4.0307 1.3534-6.6858 4.2526-7.7878 7.9431z"/>
  <path d="m95.622 56.213c-0.86531 1.4644-0.16271 3.7127 1.5087 5.4803 1.6345 1.7306 7.1 7.9209 8.5791 9.8956 1.1242 1.5013 0.91708 2.1078-0.59166 2.7069-3.3355 1.3386-9.6219 4.0159-13.586 5.9018-1.3312 0.62864-2.6699 1.4348-3.121 2.5663-0.29583 0.74698 0.24406 0.8801 0.6952 0.25885 0.45854-0.62864 1.4422-1.102 2.9287-1.8046 3.7349-1.7676 10.265-4.3265 13.815-5.6208 2.6921-0.97624 3.0101-2.0191 0.96886-4.7407-1.5679-2.093-7.4032-8.4978-8.8158-9.9843-1.4274-1.5161-2.1374-3.3651-1.7306-4.3118 0.41416-0.96145-0.11833-1.2499-0.65083-0.3476"/>
  <path d="m95.372 98.929c2.4554-1.2647 2.2779-2.6921 0.51031-4.4523-1.9081-1.8933-4.7629-5.2436-5.8945-6.7006-0.93927-1.2203-1.5457-2.0043-1.8342-3.2615-0.20708-0.90229-0.82093-0.79135-0.72479 0.13312 0.15531 1.5013 0.89489 2.729 1.6936 3.8088 1.346 1.7972 3.6683 4.9404 5.68 6.9225 0.83572 0.82093 0.72479 1.7824-0.37719 2.3888-3.8606 2.1004-8.6901 4.8516-11.449 7.0038-1.1316 0.8727-0.68781 1.457 0.51031 0.71 2.9805-1.8785 8.2019-4.652 11.885-6.5527"/>
  <path d="m89.108 87.691c0.65083-2.4332 1.2943-4.6372 1.9007-6.6118l-1.1463 0.58427c-0.45114 1.4644-0.93187 3.0545-1.42 4.7555z"/>
  <path d="m84.167 104.54c-0.31802 1.7824-0.62125 3.6239-0.90229 5.5321-1.8933 13.046 4.5632 17.055 9.4444 18.497 1.2203 0.36239 1.4126-0.19969 0.24406-0.7026-4.7037-2.0043-10.147-6.035-8.4608-17.661 0.33281-2.2927 0.6952-4.504 1.0798-6.6266z"/>
  <path d="m83.691 112.03c2.5146-2.8696 5.8279-5.3989 9.2743-7.0038 3.831-1.7898 8.3646-3.7349 7.9653-5.5838-0.38458-1.7528-2.8326-2.2409-5.3398-2.0634l-1.1611 1.3312c2.1596-0.45114 5.1179-0.31802 5.4063 0.86531 0.24406 1.0354-5.1549 3.3059-7.3736 4.3635-3.2246 1.5235-6.1533 3.6757-8.6235 6.2938z"/>
  <path d="m45.244 127.56c5.4359-8.0762 17.225-28.459 20.161-39.301l-0.45114-2.2483c-2.5294 11.064-15.871 33.932-21.366 41.986z"/>
  <path d="m62.004 95.861c-1.5901-3.5574-3.8902-9.7551-4.4523-11.301-0.55468-1.5235-0.40677-2.167 0.59906-2.4998 1.4348-0.48073 5.3176-1.7676 7.2257-2.9361l0.22187-1.5457c-1.6419 1.2647-6.1755 2.6329-7.6177 3.0988-2.4998 0.80614-2.8622 1.4274-1.7972 4.3561 0.62125 1.701 3.5944 8.838 5.1918 12.299z"/>
  <path d="m57.352 105.79c-1.9673-2.6921-5.7096-8.5643-6.6266-10.147-0.93187-1.6049-1.7898-6.0941-1.3165-6.5971 0.45854-0.30323 3.158 0.79875 5.288 2.3519 1.701 1.2351 4.3118 4.0011 6.4935 6.3456l0.57687-1.1094c-2.1966-2.3741-4.6594-4.9774-6.4122-6.2568-1.5753-1.1463-5.3176-2.9065-6.5749-2.167-1.2647 0.74698-0.11094 6.4639 0.80614 8.0466 0.94666 1.6419 5.1327 8.1724 7.0482 10.746z"/>
  <path d="m49.734 127.64c2.3888-5.8871 14.799-26.203 17.084-34.25l-0.47333-1.1759c-2.4184 8.1871-14.474 27.793-17.669 35.293z"/>
  <path d="m58.938 129.31c2.6403-6.4491 13.379-25.907 15.931-36.313l-1.0502 0.66562c-2.6329 9.23-13.187 28.6-15.953 35.463z"/>
  <path d="m67.225 129.69c3.8384-8.5274 13.201-32.571 15.613-44.826l-1.4718 1.7528c-2.7586 12.107-11.952 35.086-15.539 42.977z"/>
  <path d="m50.604 117.79c-2.2557 0.43635-5.6578 2.7216-6.745 4.9922-0.45114 0.93927 0.02219 1.1981 0.64344 0.3624 1.3682-1.8194 3.5352-3.2616 5.3915-3.8606z"/>
  <path d="m29.153 139.1c0.25146-3.8976 0.39198-11.974 0.39198-15.62 0-1.2943 0.74698-1.8342 2.3962-1.7972 2.7217 0.0518 9.9547-0.11094 13.867-0.5325l1.028-1.0428c-4.8295 0.3476-12.173 0.37719-14.843 0.28844-3.0397-0.10354-3.9198 0.6952-3.8532 3.0397 0.12573 4.0973 0.1775 11.855 0 16.655z"/>
  <path d="m34.436 133.17c-6.1459 6.3086-18.423 16.641-25.671 20.176-2.0412 0.99843-3.5278 1.7972-4.4966 2.766-3.4095 3.3799-5.4137 9.7698-3.5648 13.845 0.66562 1.4792 3.8532 4.2822 7.4106 7.5955 3.4317 3.195 6.6266 5.8944 8.4904 8.3868 0.83572 1.1094 1.3756 0.76916 0.62864-0.39938-1.8416-2.8548-4.8221-5.7835-8.2907-9.0081-3.2024-2.9805-6.4639-5.887-7.0408-7.2405-1.2425-2.8918 0.059166-8.5791 3.5278-12.018 0.90968-0.90229 2.0117-1.7158 3.9789-2.6773 7.3218-3.5722 19.865-14.03 25.582-20.938 0.77656-0.93187 0.28844-1.3608-0.55468-0.48812"/>
  <path d="m35.829 180.05c2.84 8.3351 8.0023 19.503 11.101 23.208 2.4702 2.9583 5.8131 25.264 1.7528 37.201-0.24406 0.70999-0.74698 0.76916-1.0132 0.0888-3.8458-9.7329-15.723-30.552-27.89-44.404-2.1004-2.3888-10.154-9.6959-10.776-11.508-0.32542-0.92447-0.029583-5.3767-2.0708-9.2743l-1.8637-1.3164c2.8252 4.8368 1.9969 9.9104 2.3519 10.99 0.79135 2.3888 9.437 9.474 11.508 11.833 12.114 13.793 23.711 34.605 27.542 44.293 0.73218 1.8637 2.6921 1.8785 3.3577-0.0961 3.9124-11.486 1.383-35.278-1.4866-38.702-3.2837-3.9272-10.236-18.467-12.787-26.773z"/>
  <path d="m42.052 156.9c-5.3324 2.2483-17.277 8.7048-17.254 14.185 0 1.1094 0.51031 1.1685 0.73218 0.0813 0.86531-4.2304 9.1116-9.3113 16.567-12.972z"/>
  <path d="m25.857 169.11c0.73218 2.448 0.65823 4.8147-0.43635 7.9579-1.3017 3.7571-3.1136 8.9415-1.5901 13.349 0.41416 1.1981 0.99843 1.0206 0.71-0.21447-0.98364-4.1416 0.75437-9.1338 2.0264-12.795 1.2277-3.5278 1.3312-6.8707 0.1849-9.6072z"/>
  <path d="m30.102 164.66c3.8754 4.615 6.6118 14.244 4.8221 23.859-0.28844 1.5235 0.32542 1.6419 0.72479 0.14792 2.4924-9.3557-0.32542-20.006-4.5706-24.739z"/>
  <path d="m48.672 228.35c-0.32542 0.40677-0.57687 0.25146-0.76177-0.0296-5.1918-7.9579-15.635-20.782-21.293-26.477 3.3577 5.5542 7.0482 12.166 8.7492 16.456l-3.794-5.1844c-2.0412-4.1712-4.2452-8.4534-6.8929-13.142-0.45854-0.81353 0.05917-1.139 0.77656-0.57687 6.3974 4.97 16.611 17.853 22.868 27.512 0.71739-0.89489 1.8046-1.9377 2.7956-2.9361l0.11094 1.6271c-0.84312 0.79135-1.9081 1.9377-2.5589 2.7512"/>
  <path d="m54.224 129.22c8.2389 1.775 22.491 1.1316 26.203 0.10354 3.7275-1.028 6.8559-1.4126 11.427 0.58427 1.1463 0.50291 1.4274-0.0666 0.32542-0.66562-4.1047-2.2261-8.1945-2.2187-12.092-1.139-3.6461 1.0058-17.439 1.4866-25.589-0.24406-3.587-0.76176-9.548-1.9969-12.247 0.13313-1.8859 1.5013-6.2864 6.7154-7.0186 8.2759-0.79135 1.6862-1.1316 4.896 0.355 6.7228 2.4998 3.0619 6.745 8.7344 9.0968 12.654 0.66562 1.1094 1.2351 0.76916 0.63604-0.37719-2.0043-3.8162-6.1015-9.8734-8.6161-12.957-1.2129-1.4866-0.78396-4.0159-0.14052-5.4729 0.60646-1.3682 4.7259-6.0793 6.671-7.6177 2.4184-1.9155 7.5511-0.73958 10.99 0"/>
  <path d="m49.578 140.02c0.1701 1.5235 0.19229 2.7069 0.10354 3.9124-0.06656 0.92447 0.42156 0.99843 0.74698 0.12573 0.42896-1.1464 0.29583-3.195-0.08135-4.149-0.31062-0.77656-0.86531-0.71739-0.76916 0.11094"/>
  <path d="m36.319 160.54c-1.0576 0.11094-2.5959 0.1701-2.7512-0.13312-0.19969-0.60646 1.1242-5.3694 1.8268-6.3974 0.83572-1.2277 3.8532-3.7571 5.1697-5.3324l-0.68041-0.8727c-1.0946 1.3608-4.8516 4.0825-5.6874 5.5542-0.79135 1.383-2.167 6.708-1.7158 7.6177 0.28844 0.57687 1.3904 0.62864 2.3667 0.56948z"/>
  <path d="m80.686 184.09c-4.0233-7.662-8.4238-17.831-10.598-31.247l0.21448 7.4254c1.8489 9.474 5.3693 18.305 8.8454 24.48 3.4612 6.1385 1.6567 29.886-3.513 36.365-0.6952 0.87271-2.0117 1.3017-2.1374 0.74698-2.9065-12.869-17.602-44.249-29.827-57.916-0.85052-0.95406-1.2499-1.6862-0.94666-3.476 0.45114-2.6181-0.58427-7.7582-1.4866-11.049l-1.8933-2.5737c1.2647 4.6372 2.4554 10.894 2.0264 13.401-0.45114 2.6255 0.28104 3.7275 1.1759 4.6889 12.41 13.401 26.1 43.036 29.657 57.251 0.31062 1.2499 1.9229 2.2114 4.2304 0.0666 5.3989-5.0218 8.017-30.988 4.2526-38.162"/>
  <path d="m57.714 165.47c-0.63604-3.439-0.50291-5.4729 1.0872-7.6251 4.4819-6.0424 4.97-13.061 4.0233-17.691 6.6192 4.6668 8.2167 16.337 5.8205 27.143-0.26625 1.1685 0.34021 1.4126 0.71 0.19969 3.6461-11.937 0.7026-25.575-7.1074-29.08-0.68041-0.31062-0.8875-0.23666-0.73218 0.51771 1.1981 5.8501-0.02958 13.194-3.6609 18.223-1.5753 2.1818-1.9451 4.7407-0.86531 8.4682 0.34021 1.1611 0.93927 1.0132 0.72479-0.15531"/>
  <path d="m70.09 153.85c4.5114 0.21448 7.9357 1.1094 10.635 2.4184 2.8548 1.3904 9.1264 1.7454 13.194-2.056 0.90229-0.84312 0.56208-1.3386-0.42896-0.60645-4.4079 3.2616-9.8956 2.8252-12.21 1.5531-3.2615-1.7972-6.4713-2.5442-11.345-2.7808z"/>
  <path d="m81.022 205.43c-1.2647 1.2055-3.3873 3.0175-4.4227 3.9124-5.4359-12.765-13.556-27.217-19.762-32.423-0.91708-0.76916-1.1981-0.41417-0.79135 0.56948 2.056 4.97 5.0291 12.928 7.2405 19.983l2.9361 5.6726c-1.8637-6.9299-5.9166-17.75-8.5126-23.918 5.5986 6.1903 13.009 20.131 18.186 31.388 0.19969 0.42896 0.44375 0.48073 0.8875 0.0888 0.90229-0.77655 2.7586-2.3445 4.1416-3.6165z"/>
  <path d="m68.851 209.7c-4.0159-1.5383-10.576-5.569-15.376-9.9843-1.5753-1.4496-4.2822-0.19968-5.007 0.20709-0.5325 0.29583-1.3312 0.72478-1.7528 0.99843l0.56948 1.0576c0.45854-0.27365 1.2721-0.76917 1.7824-1.0576 0.61385-0.34021 2.4628-1.2943 3.6683-0.1849 4.6889 4.3118 12.055 8.7492 16.411 10.184 0.44375 0.14791 0.11833-1.0576-0.29583-1.2203"/>
  <path d="m64.037 197.82c-0.76916-1.0206-1.4348-1.9599-1.9229-2.729-0.62864-0.97624-0.76916-1.9525-0.39937-2.6773l-0.76177-1.2055c-0.74698 0.99843-0.76916 3.1654 0.11094 4.541 0.80614 1.2647 2.0856 2.9435 3.4982 4.6963 0.91708 1.139-0.09615-2.056-0.5251-2.6255"/>
  <path d="m57.73 189.17c0.65083 1.3312-0.62125 2.9435-2.5959 4.297-2.4924 1.701-4.8369 1.5531-5.4803 0.42895-0.5251-0.91707 0.28844-2.9213 2.9065-4.5262 1.9229-1.1907 4.578-1.4052 5.1697-0.19969m0.74698-0.40677c-1.0502-1.9229-4.652-1.5161-6.4935-0.39198-2.6107 1.6049-4.0529 4.2674-3.0693 5.998 0.99843 1.738 4.2748 1.7972 6.8263 0.0518 3.1802-2.1744 3.4686-4.3192 2.7364-5.6578"/>
  <path d="m87.226 226c0.31062 0.90968 0.51771 1.775 0.58427 2.7069 0.07396 0.95406 0.51771 0.95406 0.75437 0.037 0.19229-0.75437-0.10354-2.2335-0.60646-3.0397-0.42156-0.68042-0.99104-0.46594-0.73218 0.29583"/>
  <path d="m106.69 235.6c2.1448 9.4296 6.634 19.88 8.9859 23.696 2.8548 4.652 3.0545 28.163-0.82833 34.819-0.54729 0.94667-0.75437 0.57688-0.95406 0.13313-6.0128-13.231-20.242-38.088-31.698-50.365-0.81354-0.8727-1.0724-1.8637-0.97624-4.0233 0.06656-1.5161-0.14052-5.0513-0.50291-8.1132l-1.3386-1.4718c0.48073 3.1876 0.47333 7.6842 0.39937 9.3705-0.09615 2.0782-0.16271 3.7053 1.2499 5.1697 11.811 12.21 25.686 36.543 31.78 50.114 0.43635 0.97625 1.9155 1.9229 3.1062-0.10354 4.0825-7.0038 4.3635-31.425 1.2573-36.262-2.6181-4.0677-7.8987-16.286-10.184-26.64z"/>
  <path d="m114.19 190.06c-3.8014 5.007-11.042 16.485-14.962 25.797-1.0428 2.485-0.25146 5.0144 1.2869 7.1074l0.1775-1.4052c-0.90229-1.4644-1.1611-3.5722-0.39198-5.3694 3.9124-9.2004 11.035-20.065 14.836-25.101z"/>
  <path d="m99.854 216.29c1.4718 3.0988 0.61385 7.2257-1.2573 10.546-0.91708 1.6271-5.4877 8.128-5.924 9.8068-0.50291 1.9081 0.08135 4.7629 0.94666 6.8189 0.45854 1.0946 1.0872 0.93187 0.71739-0.19229-0.64344-1.9229-1.0946-4.1638-0.54729-6.3826 0.38458-1.5901 4.9626-7.8322 5.8723-9.5036 2.2705-4.1934 2.803-9.0155 0.84312-12.565z"/>
  <path d="m100.74 213.96c5.007 4.541 7.7656 20.486 3.5056 30.9-0.55468 1.3534 0.0592 1.6197 0.68041 0.29584 5.0513-10.761 2.056-27.091-3.5648-32.246z"/>
  <path d="m118.43 278.19c-1.1611 1.2795-2.7956 2.5811-3.8162 3.2837-6.1089-10.036-12.558-19.466-19.17-27.276-0.71739-0.84312-1.2647-0.61385-0.81354 0.40677 2.1226 4.8738 5.0587 12.218 7.2923 18.637l2.7438 4.2748c-1.5457-4.9478-5.2214-14.695-8.2167-20.59 5.606 7.5289 12.159 17.284 17.498 25.797 0.19968 0.31802 0.39197 0.355 0.80614 0.0961 0.8727-0.5325 2.374-1.6936 3.6092-2.9287z"/>
  <path d="m111.32 195.12c-2.4998 1.6567-6.3382 2.448-6.9003 2.1744-0.41416-0.27364-1.7898-3.55-1.8711-5.1918-0.0666-1.383 0.42896-2.8548 1.0058-4.4744l-1.139-0.19229c-0.57687 1.6271-1.2721 3.2468-1.1981 4.7777 0.0814 1.5531 1.7306 5.6726 2.5516 6.1311 0.73218 0.40677 4.0899-0.1775 6.6784-1.4866z"/>
  <path d="m125.94 153.52c-0.37719-8.7344-3.3133-14.858-10.088-20.568-7.5363-6.3604-16.611-8.9859-27.786-7.2627l1.1611 0.92448c9.5924-1.6049 18.645 1.3238 25.826 7.3662 5.8575 4.933 9.2078 11.293 9.6071 19.029z"/>
  <path d="m124.32 132.53c-7.0482-9.8142-23.726-12.151-31.21-6.8189l1.6049 0.0296c8.054-4.0085 22.461-0.61385 28.415 7.2405z"/>
  <path d="m79.832 137.68c-0.8875 0.60646-0.63604 1.1611 0.31802 0.66562 2.5589-1.3164 5.4729-1.9895 7.8913-2.1374 1.2573-0.0814 1.2721-0.65083 0-0.73958-2.8548-0.20709-5.9536 0.66562-8.2093 2.2113"/>
  <path d="m95.947 137.23c-0.11094 0.96145 0.11094 2.9657 0.59906 5.0144 0.45854 1.9155 1.1537 4.8664 0.79875 5.2954-1.1685 0.90229-5.3915-0.47333-10.332-1.9673-4.1416-1.2499-8.764-2.6107-12.957-3.0323-1.1907-0.11833-1.2721 0.54729-0.09615 0.73219 3.9641 0.63604 8.5865 2.1744 12.699 3.4169 5.5764 1.6862 10.45 3.121 11.929 1.9673 0.68041-0.5251 0.24406-2.6329-0.81354-6.6266-0.50291-1.8933-0.96145-3.6387-1.0872-4.7629-0.12573-1.1168-0.60646-1.1464-0.73958-0.037"/>
  <path d="m76.007 176.42c3.794 5.5616 9.3335 8.4756 16.87 9.2595 14 1.4718 27.609-7.381 31.284-19.148 0.41416-1.3238-0.20709-2.2557-0.67302-2.729-1.1611-1.1611-3.4908-2.9583-5.961-4.7703-3.831-2.8178-9.4222-6.6636-9.0229-8.0096 0.44375-1.4718 10.857-0.44375 18.179 3.4464 1.0872 0.57687 1.3682 0.11094 0.38459-0.63604-5.9462-4.4744-19.17-5.9462-19.917-3.2615-0.48072 1.7232 3.6239 5.0661 9.6811 9.5184 2.448 1.7972 4.6372 3.5722 5.7539 4.6963 0.43635 0.42896 0.55469 0.68781 0.32542 1.4274-3.587 11.449-16.825 19.481-29.886 18.201-8.727-0.85052-15.206-5.0735-18.719-12.565z"/>
  <path d="m111.2 186.85c-5.3472 0.90229-11.168 0.33281-15.317-1.6567h-2.3667c5.251 3.2616 12.418 3.9272 18.637 2.7438z"/>
  <path d="m152.45 125.44c-1.494-0.29583-3.0323 0.29583-3.9937 1.0798-3.4021 2.7808-12.98 10.332-17.24 13.416-1.6419 1.1907-2.5516 2.4776-2.7216 4.2156-0.0888 0.95406 0.44375 1.0428 0.73218 0.13312 0.44375-1.4422 1.2869-2.3593 2.7734-3.439 4.2674-3.0914 13.867-10.532 17.269-13.312 1.1316-0.92447 2.9066-1.4644 4.1342-1.0058z"/>
  <path d="m150.5 124.78c3.3355 0.98364 7.6399 9.548 8.7566 15.006 0.98365 4.8442 3.9716 19.473 2.3667 29.568-0.73218 4.6224-5.4877 14.777-8.0096 18.083-1.7676 2.3075-7.736 10.258-12.92 14.407-1.5827 1.2647-3.0175 1.2277-3.9346-0.0518-3.6535-5.0883-11.685-17.225-13.416-20.205-0.86531-1.494-1.1907-2.2705-1.0946-3.2024 0.0887-0.92447-0.40677-1.0724-0.71739-0.19968-0.44375 1.2573 0.0296 2.6329 0.80614 3.9568 1.738 2.9879 9.6959 15.413 13.357 20.523 1.3091 1.812 3.6905 1.7972 5.7318 0.16271 5.251-4.2008 11.597-12.122 13.372-14.444 2.6255-3.439 7.3514-14.015 8.1206-18.815 1.6271-10.236-1.4422-25.168-2.4406-30.049-1.0872-5.3472-5.8797-15.331-9.9474-15.479-0.96885-0.037-0.95405 0.46594-0.0296 0.73958"/>
  <path d="m122.98 182.02c3.6683-3.1506 7.2701-7.8396 9.3187-12.018 5.1844-3.0914 4.0011-8.1946 1.6345-12.713 0.0814-3.9494-0.89489-10.539-3.6683-15.709l-0.77656 0.91708c2.019 4.0381 3.476 10.472 3.3725 14.925 0 0.0592 0.0148 0.11093 0.037 0.1627 2.5368 5.68 2.2187 9.2891-1.4422 11.552-0.0592 0.037-0.10354 0.0887-0.13312 0.15531-1.9969 4.0899-5.1179 8.6087-8.9119 11.855z"/>
  <path d="m132.15 196.26c-1.2055-7.9579-2.5368-15.272-3.7275-17.92-0.48812-1.0872-1.0798-0.75437-0.65083 0.3476 0.81354 2.1152 1.812 8.2537 2.7734 15.331z"/>
  <path d="m142.21 227.7c1.5161 4.1712 3.0914 9.1486 3.4464 10.746 0.33281 1.5014 1.4496 2.9213 3.2616 3.9716 16.078 9.3039 41.712 32.571 52.414 46.793 1.0872 1.4422 4.0085 1.1907 4.1195-1.2721 0.54729-12.307-6.6858-32.911-10.132-36.136-3.3503-3.1284-14.23-14.636-19.939-24.406l0.62125 3.3429c5.924 9.3483 14.94 19.34 18.098 22.291 3.3651 3.1506 10.62 22.69 10.08 34.834-0.0444 0.96145-1.2277 1.309-1.7972 0.5177-9.4592-13.009-37.578-38.236-52.732-47.244-1.6271-0.96884-2.1966-1.7158-2.4924-3.0175-0.27365-1.2573-1.457-4.4227-2.84-7.699z"/>
  <path d="m156.01 209.22c7.4993 4.2082 8.0688 14.296 6.8041 20.109-0.62864 2.8918-0.76176 6.5305 2.3075 9.6885 0.89489 0.91708 1.3312 0.61385 0.60646-0.43635-2.4258-3.4834-2.2779-6.2199-1.6641-9.0377 1.3386-6.1459 1.0354-16.87-8.2685-21.714z"/>
  <path d="m155.68 206.57c10.295 3.6018 20.42 15.738 20.804 31.033 0.037 1.3534 0.68781 1.3608 0.74698 0 0.70999-16.064-10.546-28.629-21.714-32.142z"/>
  <path d="m203.01 272.93c-0.71739 0.64343-1.3312 1.2943-1.9821 2.0117-7.4698-7.5955-20.486-18.734-29.095-21.758-0.99844-0.3476-1.4126 0.0296-0.51771 0.98364 4.4375 4.7555 9.4888 11.072 13.335 16.263l3.7053 3.0766c-3.4242-4.9404-9.0968-12.787-14.895-18.497 7.7508 3.8162 20.146 14.548 27.076 21.366 0.24406 0.24406 0.49552 0.25885 0.76177-0.037 0.60645-0.6952 1.1907-1.309 1.8785-1.9377z"/>
  <path d="m139.28 210.58c1.7898 2.3888 2.167 5.3694 1.2277 5.9314-1.3534 0.81354-3.4095-0.23667-5.1179-2.448-1.7084-2.204-2.1226-5.288-1.1168-6.0646 0.98365-0.76177 3.195 0.1701 5.007 2.5811m-5.5542-3.2689c-1.5531 1.1981-1.4422 4.6298 0.76176 7.4845 2.2335 2.8918 4.7777 3.5056 6.4861 2.4776 1.4348-0.85792 1.7084-3.9937-0.76917-7.2923-2.1744-2.8992-5.0217-3.7866-6.4787-2.6699"/>
  <path d="m129.41 183.42c-1.6714 0.8727-3.6461 1.1094-5.1475 0.73958l0.85052 1.3682c1.2721 0.22188 3.4316-0.1701 4.4671-0.86531z"/>
  <path d="m162.57 164.91c-4.8295-2.7216-12.477-7.2109-15.176-9.7551-0.76916-0.72479-1.1464-0.31062-0.51031 0.5399 2.2187 2.9435 10.591 7.9209 15.679 10.879z"/>
  <path d="m161.6 172.03c-3.5944 2.9213-6.6858 5.6578-9.829 8.165-1.9229 1.5235-2.2039 2.914-2.2705 4.1195-0.0592 1.0206 0.51771 1.1316 0.72479 0.13312 0.23667-1.1316 0.73219-2.167 2.2335-3.3059 3.2468-2.4554 5.7244-4.5706 8.5791-6.7893z"/>
  <path d="m131.31 140.76c7.3662 0.31062 14.585 5.6208 17.351 10.901 0.60646 1.1537 1.1538 0.92447 0.68042-0.29584-2.1818-5.5986-9.0081-11.138-16.766-11.833z"/>
  <path d="m155.49 186.04c0.0814-1.6271 0.20708-3.1802 0.37719-4.578 0.12572-1.102 0.17749-2.411 0.14791-3.8606l-1.3312 1.1685c-0.0148 0.94666-0.0666 1.8194-0.15531 2.5959-0.23667 1.9599-0.38459 4.26-0.45115 6.708z"/>
  <path d="m154.44 202.68c0.34021 4.4227 0.85791 7.8987 1.457 8.9193 1.0206 1.7528 4.3635 4.2822 7.0186 5.7096l-0.43635-1.3312c-2.0856-1.5309-4.504-3.5204-5.4359-5.1327-0.55468-0.94666-1.065-4.6668-1.3756-9.3853z"/>
  <path d="m152.93 159.95c-0.5251-1.5161-1.1094-2.8844-1.7454-4.0233-0.63604-1.139-1.1981-0.8801-0.67302 0.30322 0.36979 0.85792 0.73219 1.8194 1.0724 2.8474z"/>
  <path d="m162.14 153.17c-4.4966-3.9568-8.9489-5.5099-15.494-5.4877l0.69521 1.1464c6.0498 0.37718 10.391 1.9673 15.021 6.3012z"/>
  <path d="m171.55 165.75c6.6858 8.1502 10.894 12.307 14.156 12.98 1.2277 0.25145 1.3238-0.28844 0.14791-0.72479-2.167-0.80614-5.4507-3.3429-14.326-14.237z"/>
  <path d="m163.43 192.02c14.2 6.1089 26.152 0.28844 34.235-3.8088 5.6208-2.8548 12.373-3.439 20.738-1.7972 2.8696 0.56208 3.3281-0.47334 2.1226-2.093-7.9727-10.724-20.708-13.224-30.108-9.7033-3.3651 1.2647-7.4698 1.102-10.776-0.80614l1.8711 2.0486c2.7438 1.1685 6.2642 1.102 9.2374-0.0592 8.0392-3.1284 20.553-1.1168 28.821 9.0894 0.51771 0.63604 0.37719 0.86531-0.97624 0.51771-7.5659-1.9303-15.753-1.3904-21.522 1.5383-7.9209 4.0159-19.429 9.6737-33.163 4.0381z"/>
  <path d="m158.17 180.76c-0.92447-0.90229-1.8194-1.8711-2.6699-2.9066l-0.73219 0.7026c0.91708 1.1685 1.9007 2.2483 2.9287 3.2542z"/>
  <path d="m165.82 187.7c3.6979 1.9747 7.4846 3.2098 10.82 3.7497 1.494 0.24406 7.7804 1.0058 14.91-0.84312l5.0661-2.8548c-8.7936 3.9642-17.898 2.766-19.702 2.4702-3.3059-0.5325-6.9742-1.6714-10.591-3.5722z"/>
  <path d="m149.66 119.8c-0.8727-1.028 0.13312-3.3725 2.4924-5.3546 1.8785-1.5827 4.1342-2.3149 4.9774-1.3904 0.74697 0.82094-0.0592 3.1136-2.0708 4.933-2.1374 1.9377-4.8294 2.4776-5.3989 1.812m8.128-7.3144c-1.3978-1.5235-4.4153-0.56208-6.3678 1.0872-2.6699 2.2483-3.868 5.1105-2.4258 6.8041 0.91708 1.0798 4.3044 0.68042 6.7746-1.5531 2.4998-2.2631 3.1654-5.0809 2.019-6.3382"/>
  <path d="m67.718 69.752c-0.85791-3.3799-2.2113-7.7508-3.2172-10.746-0.34021-1.0132-0.15531-1.5753 1.2499-1.849 2.5885-0.50291 6.7376-1.7972 10.095-3.2098l0.59166-1.4422c-3.2542 1.4718-8.1724 2.8104-11.02 3.3503-2.8252 0.5251-3.0027 1.383-2.2187 3.5722 1.2277 3.3873 2.7512 7.9949 3.7497 11.907z"/>
  <path d="m98.48 54.802c3.5056 2.5959 8.0096 7.1739 11.242 12.403l1.8859 1.7232c-3.4834-6.671-8.3794-12.166-12.462-14.895z"/>
  <path d="m160.38 92.643c-5.1844-7.8543-16.885-15.746-27.202-18.364-11.123-2.8252-16.604-11.175-19.828-17.136-3.439-6.353-11.397-18.43-18.408-24.813l-0.89489 0.47333c6.989 6.2642 15.013 18.512 18.46 24.879 3.2911 6.0867 9.0229 14.629 20.449 17.469 10.265 2.5589 22.587 11.057 26.654 17.802z"/>
  <path d="m67.515 10.715c0 1.1094 1.738 6.0572 2.6699 7.6547-0.21448 0.36979-0.82093 1.0946-1.346 1.7232l1.0724 0.3476c0.51031-0.5251 0.97624-1.4274 1.2203-1.7898 0.08875-0.13312 0.11833-0.32542 0.03698-0.45854-0.8727-1.3017-2.5737-6.3678-2.6329-7.2997-0.05177-0.8727 0.46594-1.2869 1.7232-1.1537 13.098 1.3904 23.289 10.117 23.141 10.783-0.11833 0.51031-7.2775 2.3888-10.894 2.7882-1.1094 0.12573-2.6773-0.13312-3.5648-0.5251-8.2093-3.6165-16.596-4.5854-17.336-3.0175-0.38458 0.80614 0.61385 1.9599 2.6403 3.942 1.4866 1.457 3.5574 3.5352 5.7317 6.1385 3.9198 4.7037 5.9018 8.2315 8.8158 12.247l-0.1775-2.1966c-2.2261-3.1136-4.9256-7.2109-7.8617-10.746-2.1892-2.6477-4.186-4.6446-5.6874-6.1163-1.2499-1.2203-2.522-2.3962-2.3667-2.7143 0.49552-0.66562 7.4032-0.20708 15.842 3.439 0.96885 0.41416 2.7586 0.84312 4.0381 0.7026 2.7586-0.31062 11.53-2.5442 11.878-3.5944 0.63604-1.9525-11.39-10.872-24.103-12.077-2.0117-0.19229-2.84 0.71-2.84 1.9229"/>
  <path d="m40.94 158.2c-0.62864 2.1152-0.7026 6.5157 0.36979 9.6959 1.5235 4.4892 4.2896 12.44 5.5099 15.746 0.8727 2.3519 1.346 5.7244-1.1168 7.9949-0.45854 0.42896-1.8563 1.3017-2.7956 1.8785l-0.76177-0.89489c0.89489-0.54729 2.3888-1.4644 2.803-1.849 1.9525-1.849 1.3904-4.6815 0.59166-6.8337-1.2203-3.3059-4.1121-11.108-5.5321-15.635-0.95406-3.0397-1.028-6.8411-0.44375-9.4888z"/>
  <path d="m53.883 178.64c0.59166 1.7084 1.0798 3.0693 1.3091 3.6461 0.28844 0.7026 0.71 1.1168 1.1907 1.309 0.29583 0.11834 0.91708 1.3682 0.59166 1.346-1.1981-0.0888-2.3297-0.76177-2.8844-2.1374-0.39937-0.98364-1.5827-4.26-2.7956-7.6546-0.355-0.99843 2.4702 3.1506 2.5885 3.4908"/>
  <path d="m156.97 106.56c3.2172-1.9673 11.293-7.0778 13.549-8.3794 3.5352-2.0338 8.3203-3.0988 9.2817-1.4496 1.0872 1.8563-3.3577 7.2923-3.8828 7.8765-1.3682 1.5457-8.4164 7.5141-12.255 10.835-1.2721 1.0946-1.2203 2.9731-0.60646 4.9034 1.1242 3.5574 5.4803 14.23 7.4919 19.244 1.7084 4.2822 1.8933 26.891 1.4644 31.758-0.45114 5.1918-5.887 18.305-8.0614 21.344-2.1152 2.9657-10.125 11.693-17.291 19.688-0.86531 0.96145-0.90969 1.9895-0.0888 3.4538 2.0708 3.6831 6.353 10.872 7.7878 13.446 1.7898 3.2172 2.5959 8.5717 0.99104 9.6441-1.8859 1.2573-8.091-3.6387-8.1502-3.6905-1.1316-0.96885-6.671-8.764-9.3557-12.403-0.86531-1.1685-2.2187-1.5753-4.4966-0.82093-7.2996 2.4332-17.861 2.8474-21.3 1.4718-2.1744-0.87271-2.6403-2.6255-0.40677-3.3207 3.2172-0.99844 11.19-4.5484 15.206-7.5659 0.93926-0.7026 1.7232-1.6862 0.48812-3.6979-0.96146-1.5753-11.537-17.439-17.535-22.816-0.80614-0.71739-0.39198-1.2129 0.47333-0.56948 5.961 4.4745 17.158 21.315 18.127 22.897 1.1685 1.9155 0.79875 3.9346-0.84312 5.1697-4.1416 3.1062-12.24 6.4122-15.59 7.455-1.1833 0.36239-0.74698 0.94666 0.62125 1.494 2.9805 1.1907 12.721 0.99843 20.435-1.5753 2.6033-0.86531 4.6815-0.31802 5.7391 1.1537 2.485 3.476 8.165 11.264 9.23 12.181 2.1152 1.812 5.8205 4.2082 6.7154 3.6092 1.0206-0.68041 0.25145-4.8073-1.5457-8.0466-1.4274-2.5737-5.6726-9.7403-7.7582-13.416-0.97624-1.7306-0.83572-3.7497 0.23667-4.9404 7.1591-7.9801 14.969-16.84 17.062-19.776 2.0782-2.9066 7.6251-15.494 8.0614-20.479 0.40677-4.6963 0.33281-27.224-1.3017-31.321-2.0116-5.0291-6.242-15.686-7.3736-19.266-0.74697-2.374-0.93187-4.578 0.75437-6.0498 3.6239-3.1654 10.709-9.3483 12.048-10.857 2.2631-2.5516 4.5706-5.643 4.0455-6.5305-0.55469-0.96145-4.2822-0.22927-7.8987 1.849-2.2409 1.2943-10.443 6.708-13.497 8.5717-2.204 1.3534-4.1269 1.5605-6.1459 0.0444-3.513-2.6403-8.9859-5.5247-12.07-6.6932-3.6905-1.4052-8.7344-2.2779-9.3483-1.5161-0.27365 0.355 1.1907 2.6847 5.0735 5.4211 2.803 1.9673 6.7893 5.6134 8.727 7.8174 1.6936 1.9451 2.1374 4.7111-0.14052 6.5896-1.9821 1.6271-13.46 10.191-17.706 13.024-1.6271 1.0872-3.5648 1.5309-4.7333 1.1685-0.87271-0.27364-0.81354-0.79135 0.0961-0.73218 1.2351 0.0739 2.5146-0.46594 3.9863-1.4496 4.2304-2.8178 15.509-11.463 17.484-13.091 1.4718-1.2055 1.4126-2.9213-0.11833-4.6742-1.9081-2.1818-5.4729-5.7539-8.2315-7.6916-3.9642-2.7882-6.1829-6.0867-5.4137-7.0482 1.1759-1.4644 8.2833 0.25885 10.694 1.1759 3.1284 1.1833 8.7344 4.0825 12.299 6.7598 1.5457 1.1611 2.9287 1.0724 4.9774-0.1775"/>
  <path d="m159.93 91.071c-4.7259-10.058-15.043-15.864-23.386-18.978-11.478-4.2896-17.543-10.103-20.065-18.001-3.55-11.145-8.6975-21.048-14.096-26.381l-1.1463 0.90968c5.3324 5.2288 10.532 14.688 14.185 25.737 2.9879 9.0377 9.2004 14.577 20.693 18.874 8.6161 3.2246 19.591 9.0377 23.837 19.813z"/>
  <path d="m115.77 53.294c-5.0513-8.7788-11.086-18.438-16.345-23.659l-0.79135 0.60646c5.8723 5.7909 13.083 17.388 18.408 26.906z"/>
  <path d="m85.378 18.036c2.0191 1.1907 3.8828 2.5368 5.362 3.9789l0.95406-0.24406c-1.3978-1.4348-3.2098-2.803-5.1475-4.0011z"/>
  <path d="m78.059 13.727c-2.3888-0.83573-4.5854-1.2573-6.4196-1.4126-1.5975-0.14052-2.485 0.1701-2.8992 1.0798l0.36979 1.0798c0.15531-1.0132 0.66562-1.5753 2.4702-1.42 1.8711 0.16271 4.2526 0.83573 6.7228 1.7306z"/>
  <path d="m144.23 230.25c-4.4079-2.2631-8.165-5.1771-8.5865-7.9209-0.0444-0.29583-0.10354-0.73958-0.1849-1.3017l-1.5901 0.36979c0.074 0.63604 0.14052 1.1316 0.19229 1.457 0.62864 4.0973 6.7819 7.5141 11.5 9.1856z"/>
  <path d="m88.243 15.718c-1.6419 2.2113-4.8221 2.5737-7.2701 1.6049-2.4554-0.97624-2.5368-3.7201-2.0782-6.1015l-1.3312-0.355c-0.59166 2.7364 0.34021 6.2494 3.0767 7.3366 2.729 1.0872 6.7228 0.62864 8.6605-1.701z"/>
  <path d="m81.215 17.85c1.3904-0.21448 2.2261-1.2129 2.2853-2.448 0.08135-1.8416-1.1094-2.9139-2.7586-2.8844-1.2573 0.02219-2.1226 0.84312-2.448 2.0708l0.55468 1.1907c-0.29583-1.4348 0.85052-2.5885 1.8785-2.6107 1.4274-0.02219 2.1448 1.0576 2.093 2.1522-0.05177 1.1094-1.1981 2.0117-2.4998 1.9599z"/>
  <path d="m86.412 23.264c0.56208-0.48073 1.065-1.2055 1.0058-2.1744-0.11094-1.8046-1.5457-2.9657-3.4243-2.9657-1.6419 0-3.2246 1.1316-3.158 3.0693 0.03698 1.1759 0.56948 2.2039 1.5235 2.7808l1.1168-0.24406c-0.90229-0.27364-1.5753-1.5383-1.6049-2.6181-0.03698-0.97625 0.75437-2.1448 2.1744-2.1448 1.3682 0 2.2039 0.91708 2.3149 2.1226 0.09615 1.1168-0.68041 2.0412-1.4422 2.4184z"/>
  <path d="m74.803 222.5c-0.1849 1.5309 0.11833 3.0175 1.0428 4.2008 2.2261 2.877 6.3752 7.7656 8.5791 11.293 0.68041 1.0872 1.1537 0.82833 0.65083-0.34761-1.5161-3.5796-5.7983-8.8232-8.0392-11.722-0.82833-1.065-1.0502-2.5368-0.62125-4.1638z"/>
  <path d="m80.146 212.31c3.0175-8.2389 6.6266-19.636 8.5865-28.015l-1.3534-0.37719c-1.4792 6.3456-3.9198 14.422-6.3308 21.522z"/>
 </g>
</svg>
