<svg version="1.2" xmlns="http://www.w3.org/2000/svg" viewBox="0 0 148 136" width="148" height="136">
	<style>
		.s0 { opacity: .96;fill: #000000 } 
		.s1 { opacity: 1;fill: #ffffff } 
	</style>
	<g id="Layer 1">
		<path id="Path 0" class="s0" d="m28.56 3c-0.3 1.38-1.94 10.82-3.63 21-2.63 15.71-3.47 18.95-5.61 21.5-1.39 1.65-3.78 5.7-5.31 9-1.53 3.3-3.51 8.92-4.39 12.5-0.88 3.58-1.61 9.76-1.61 13.75l-0.01 7.25c-6.83 0-7 0.17-7 3.5 0 3.47 0.03 3.5 3.75 2.95 3.71-0.54 3.77-0.5 5.48 4.25 0.95 2.64 1.74 5.14 1.75 5.55 0.01 0.41-1.55 0.97-3.48 1.25-1.92 0.28-3.72 0.95-4 1.5-0.27 0.55-0.09 2.01 0.41 3.25 0.87 2.13 1.16 2.19 5.75 1.13l4.84-1.13c8.64 8.72 13.59 12.71 16.57 14.5 2.99 1.8 9.26 4.59 13.93 6.21 5.24 1.82 12.72 3.42 19.5 4.18 9.55 1.07 12.35 1.01 21.25-0.46 5.64-0.92 13.74-3.02 18-4.66 4.26-1.64 10.22-4.66 13.25-6.72 3.03-2.05 7.53-5.88 10-8.52l4.5-4.79c9.49 3.01 9.5 3 10.5 0.51 0.55-1.38 0.78-2.95 0.5-3.5-0.28-0.55-2.07-1.22-4-1.5-1.93-0.28-3.49-0.84-3.48-1.25 0.01-0.41 0.8-2.91 1.75-5.55 1.71-4.75 1.77-4.79 5.48-4.25 3.72 0.55 3.75 0.52 3.75-2.95 0-3.28-0.2-3.5-3.25-3.49h-3.25c-1.07-15.35-2.29-22.28-3.53-26.01-1.2-3.58-2.64-7.4-3.21-8.5-0.58-1.1-2.55-4.25-4.39-7-3-4.49-3.65-6.82-6.36-23-1.67-9.9-3.27-19.13-3.57-20.5-0.5-2.33-1.34-1.7-12.24 9.21l-11.7 11.71c-6.97-1.74-14.63-2.24-21.5-2.24-6.88 0-14.52 0.5-17 1.12l-4.5 1.12c-22.6-22.62-23.44-23.25-23.94-20.92z"/>
		<path id="Path 1" class="s1" d="m32.44 32.7c-1.66 10.86-2.35 13.22-4.79 16.25-1.57 1.95-3.65 5.13-4.63 7.05-0.98 1.92-2.54 5.75-3.47 8.5-0.92 2.75-2.1 8.26-2.61 12.25-0.52 3.99-0.71 7.92-0.44 8.75 0.31 0.92 1.76 1.5 3.75 1.51 1.79 0.01 4.97 0.34 7.06 0.75 3.51 0.68 3.79 0.98 3.5 3.74-0.31 2.98-0.35 3-6.56 3-3.44 0-6.25 0.11-6.25 0.25 0 0.14 0.79 1.83 1.75 3.76 1.11 2.24 2.3 3.36 3.25 3.08 0.83-0.25 3.86-0.7 6.75-1.02l5.25-0.57c0 5.72-0.55 7.18-1.5 7.5-0.83 0.28-2.96 0.52-4.75 0.54l-3.25 0.04c6.98 6.36 12.15 9.71 16 11.54 3.85 1.83 9.92 4.11 13.5 5.06 4.53 1.21 10.29 1.74 19 1.74 8.71 0 14.47-0.53 19-1.74 3.58-0.95 9.65-3.23 13.5-5.06 3.85-1.83 9.03-5.18 11.5-7.44l4.5-4.1c-5.04-0.06-7.17-0.3-8-0.58-0.95-0.32-1.5-1.78-1.5-4v-3.5c8.14 0.89 11.17 1.34 12 1.59 0.95 0.28 2.14-0.84 3.25-3.08 0.96-1.93 1.75-3.62 1.75-3.76 0-0.14-2.81-0.25-6.25-0.25-6.21 0-6.25-0.02-6.56-3-0.29-2.76-0.01-3.06 3.5-3.74 2.09-0.41 5.27-0.74 7.06-0.75 1.99-0.01 3.44-0.59 3.75-1.51 0.28-0.83 0.06-4.76-0.48-8.75-0.53-3.99-1.48-9.05-2.11-11.25-0.62-2.2-2.16-6.03-3.42-8.5-1.26-2.48-3.57-6.1-5.14-8.05-2.42-3.01-3.15-5.45-4.85-16.25-1.1-6.99-2.3-12.71-2.68-12.71-0.37 0.01-3.74 3.12-7.5 6.91l-6.82 6.91c-9.36-2.74-15.04-3.22-24.5-3.22-9.46 0-15.14 0.48-19 1.61l-5.5 1.61c-10.85-10.72-14.25-13.82-14.56-13.82-0.31 0.01-1.44 5.73-2.5 12.71z"/>
		<path id="Path 2" class="s0" d="m43.27 75.62c-1.62 2.39-1.64 2.85-0.23 5.25 1.18 2.03 2.32 2.63 4.96 2.63 2.64 0 3.78-0.6 4.96-2.63 1.4-2.4 1.39-2.86-0.21-5.25-1.23-1.85-2.63-2.62-4.73-2.62-2.1 0-3.51 0.78-4.75 2.62zm52 0c-1.62 2.39-1.64 2.85-0.23 5.25 1.18 2.03 2.32 2.63 4.96 2.63 2.64 0 3.78-0.6 4.96-2.63 1.4-2.4 1.39-2.86-0.21-5.25-1.23-1.85-2.63-2.62-4.73-2.62-2.1 0-3.51 0.78-4.75 2.62zm-25.19 16.63c-0.74 0.81-0.93 3.19-0.52 6.75 0.51 4.55 0.3 5.82-1.22 7.33-1.28 1.28-2.68 1.66-4.59 1.25-1.57-0.33-3.28-1.66-4-3.11-0.96-1.94-2-2.52-4.5-2.5-2.57 0.02-3.25 0.45-3.25 2.03 0 1.1 0.69 3.24 1.54 4.75 0.84 1.51 2.86 3.54 4.5 4.5 1.63 0.96 4.54 1.75 6.46 1.75 1.92 0 4.85-0.68 6.5-1.5 2.67-1.33 3.33-1.33 6 0 1.65 0.82 4.58 1.5 6.5 1.5 1.92 0 4.83-0.79 6.46-1.75 1.64-0.96 3.66-2.99 4.5-4.5 0.85-1.51 1.54-3.65 1.54-4.75 0-1.58-0.68-2.01-3.25-2.03-2.5-0.02-3.54 0.56-4.5 2.5-0.72 1.45-2.43 2.78-4 3.11-1.91 0.41-3.31 0.03-4.59-1.25-1.52-1.51-1.73-2.78-1.22-7.33 0.44-3.86 0.24-5.89-0.66-6.79-0.7-0.72-2.47-1.28-3.92-1.25-1.45 0.02-3.15 0.6-3.78 1.29z"/>
	</g>
</svg>