<svg version="1.2" xmlns="http://www.w3.org/2000/svg" viewBox="0 0 289 653" width="289" height="653">
	<style>
		.s0 { fill: #b0b0b0 } 
	</style>
	<path id="Path 0" fill-rule="evenodd" class="s0" d="m22.25-0.01c3.16 0 7.44 0.71 9.5 1.56 2.06 0.86 5.03 2.77 6.59 4.25 1.56 1.49 3.81 4.5 5 6.7 2 3.7 2.18 5.64 2.66 47.5h197l0.5-45.65 2.75-4.18c1.51-2.29 4.63-5.41 6.93-6.92 3.11-2.04 5.75-2.85 10.25-3.13 3.4-0.21 7.83 0.2 10.07 0.93 2.2 0.73 5.91 3.26 8.25 5.63 2.92 2.97 4.72 5.96 5.75 9.57 1.33 4.63 1.48 41.62 1.25 312.25-0.24 297.36-0.31 307.11-2.11 310.5-1.03 1.92-3.05 4.78-4.5 6.34-1.45 1.56-4.44 3.79-6.64 4.96-2.79 1.47-5.82 2.11-10 2.11-4.12 0-7.25-0.65-10-2.08-2.2-1.14-5.37-3.59-7.06-5.45-1.68-1.86-3.7-5.18-4.5-7.38-1.08-3-1.44-9.17-1.44-45.5h-196.5l0.01 20.25c0.01 16.82-0.28 21.08-1.75 25.18-1.17 3.28-3.28 6.3-6.3 9-2.5 2.24-6.55 4.68-9 5.43-2.67 0.81-6.27 1.11-8.96 0.75-2.48-0.34-6.64-1.96-9.25-3.61-2.61-1.65-5.99-4.88-10.25-11.35l-0.57-620.15 2.83-5.5c2.22-4.33 3.99-6.2 8.28-8.76 4.48-2.68 6.49-3.26 11.21-3.25zm23.75 182.01l196.5-0.5v-75l-196.49-0.51zm0 121h197v-75h-197zm0 122l196.5-0.5v-75l-196.49-0.51zm0 121h197v-75h-197z"/>
</svg>