<svg version="1.2" xmlns="http://www.w3.org/2000/svg" viewBox="0 0 275 444" width="275" height="444">
	<style>
		.s0 { fill: #b0b0b0 } 
	</style>
	<path id="Path 0" class="s0" d="m123 1.89c-3.58 0.98-8.75 2.93-11.5 4.33-2.75 1.4-7.25 4.31-10 6.47-2.75 2.16-6.69 6.26-8.75 9.12l-3.75 5.19c-7.36-3.21-12.2-4.78-15.5-5.56-3.3-0.77-9.83-1.43-14.5-1.45-5.73-0.02-10.7 0.63-15.25 1.99-4.99 1.49-7.91 3.13-11.22 6.27-4.06 3.86-4.48 4.69-4.5 9-0.02 3.13 1.07 7.4 3.19 12.5 1.77 4.26 5.37 11.01 8 15 2.63 3.99 5.96 8.04 7.4 9 2.52 1.69 2.67 1.68 4.02-0.25 0.78-1.1 3.35-4.25 5.72-7 2.37-2.75 7.43-7.13 11.23-9.74 3.8-2.6 8.38-5.08 10.18-5.5l3.28-0.76c-0.05 10.85 0.65 16.7 1.51 20 0.87 3.3 3 8.9 4.76 12.44 2.01 4.07 5.76 9.05 10.18 13.52 5.09 5.15 9.05 8.08 14.5 10.72 4.13 1.99 10.42 4.19 14 4.87 3.88 0.75 10.13 1.04 15.5 0.72 5.74-0.34 11.17-1.35 15-2.78 3.3-1.24 9.12-4.33 12.93-6.87 3.81-2.54 8.65-6.65 10.75-9.12 2.1-2.47 5.36-7.42 7.26-11 1.89-3.58 4.13-9.42 4.98-13 0.85-3.58 1.55-9.42 1.54-13l-0.01-6.5c5.08 1.18 9.48 3.51 13.05 5.93 3.57 2.42 8.96 7.25 11.97 10.74 3.01 3.48 5.94 6.64 6.5 7.01 0.57 0.38 1.82 0.26 2.78-0.25 0.96-0.51 3.74-3.74 6.18-7.18 2.44-3.44 6.09-9.85 8.12-14.25 2.04-4.41 3.9-10.24 4.17-13 0.38-4.09 0.04-5.64-1.87-8.5-1.56-2.32-4.71-4.68-9.33-7-6.91-3.47-7.09-3.5-20-3.48-11.45 0.02-13.86 0.34-20.02 2.59-3.85 1.41-7.79 2.86-8.75 3.23-1.24 0.47-1.9 0.08-2.25-1.34-0.28-1.1-3.33-4.81-6.78-8.25-4.41-4.4-8.79-7.49-14.75-10.44-4.66-2.3-11.17-4.67-14.47-5.25-3.3-0.59-8.93-1.04-12.5-1.01-3.57 0.04-9.42 0.87-13 1.84zm-24 127.15c-4.12 1.07-11.55 3.93-16.5 6.37-5.5 2.71-11.8 6.89-16.22 10.76-3.97 3.48-11.55 11.51-16.84 17.83-5.29 6.32-12.46 14.88-15.93 19-3.47 4.13-10.97 13.04-16.66 19.81-5.69 6.77-11.7 14.39-13.35 16.92-2.51 3.87-3.06 5.84-3.39 12.19-0.33 6.48-0.02 8.38 2.13 13.08 1.38 3.03 3.37 6.4 4.41 7.5 1.05 1.1 3.7 3.09 5.88 4.43 2.66 1.63 5.94 2.56 9.97 2.84 5.16 0.36 6.73 0.03 11.26-2.42 4.34-2.36 8.73-7 25.39-26.85 11.08-13.2 20.64-24.19 21.25-24.43 0.76-0.3 0.87 0.77 0.36 3.5-0.41 2.16-4.97 11.58-10.12 20.93-5.16 9.35-13.54 24.43-18.62 33.5-5.09 9.07-12.65 22.57-16.81 30-5.85 10.46-7.66 14.63-8.01 18.5-0.26 2.76 0.13 6.8 0.86 9 0.72 2.2 2.92 5.72 4.88 7.82 2.4 2.58 5.19 4.29 8.56 5.26 3.31 0.95 9.82 1.44 19.25 1.43 13.64-0.01 14.37 0.09 17 2.4l2.75 2.41c0.97 83.15 1.12 85.91 3 89.6 1.1 2.16 3.83 5.53 6.07 7.5 2.24 1.98 6.27 4.21 9 4.99 3.21 0.91 6.85 1.17 10.43 0.75 3.03-0.36 7.41-1.77 9.75-3.16 2.34-1.37 5.56-4.41 7.16-6.75 1.6-2.34 3.39-6.27 3.98-8.75 0.65-2.78 1.07-19.81 1.08-44.5 0.01-33.97 0.24-40.34 1.52-42.25 0.95-1.42 2.53-2.25 4.26-2.26 1.51 0 3.76 0.67 5 1.5l2.25 1.51c-0.02 74.79 0.26 83.44 1.46 87.5 0.82 2.75 2.76 6.57 4.33 8.5 1.57 1.93 5.29 4.74 8.28 6.26 3.83 1.95 6.91 2.76 10.43 2.74 2.75-0.02 6.8-0.57 9-1.23 2.45-0.74 5.96-3.16 9.03-6.24 3.08-3.07 5.5-6.58 6.24-9.03 0.84-2.82 1.2-16 1.21-44.75l0.02-40.75c4.82-5.5 4.82-5.5 21.66-6.03 14.61-0.46 17.37-0.81 20.84-2.65 2.2-1.17 4.99-3.18 6.19-4.47 1.21-1.29 2.9-4.04 3.75-6.1 0.86-2.06 1.56-5.66 1.55-8-0.01-2.35-1.06-6.48-2.36-9.25-1.29-2.75-12.14-22.55-24.13-44-11.98-21.45-23.07-41.7-24.64-45-1.57-3.3-2.86-7.01-2.86-8.25 0-1.24 0.34-2.23 0.75-2.2 0.41 0.02 2.32 1.99 4.25 4.38 1.93 2.38 11.18 13.49 20.56 24.7 12.35 14.75 18.15 20.9 21 22.3 2.17 1.06 6.19 2.13 8.94 2.38 2.75 0.25 6.8-0.14 9-0.87 2.2-0.72 5.76-2.92 7.91-4.88 2.15-1.96 4.95-5.81 6.24-8.56 1.61-3.45 2.34-6.86 2.36-11 0.02-3.3-0.68-8.02-1.55-10.5-0.87-2.47-3.99-7.43-6.93-11-2.94-3.57-9.71-11.68-15.06-18-5.34-6.32-16.29-19.36-24.34-28.96-10.7-12.77-16.65-18.94-22.14-23-4.13-3.05-10.65-6.98-14.5-8.73-3.84-1.76-10.59-4.12-14.99-5.26-7.27-1.88-10.79-2.06-38.5-2-26.76 0.05-31.42 0.3-38 1.99z"/>
</svg>