<svg version="1.2" xmlns="http://www.w3.org/2000/svg" viewBox="0 0 452 318" width="452" height="318">
	<style>
		.s0 { fill: #f6f6f6 } 
		.s1 { fill: #050505 } 
	</style>
	<g id="Shape 1 copy 3">
		<path id="Path 0" fill-rule="evenodd" class="s0" d="m-194-137h840v592h-840zm170 546h500v-500h-500z"/>
		<path id="Path 1" fill-rule="evenodd" class="s1" d="m64.41 1.25c0.6 0.26 20.22 12.23 86.09 52.75h149.5l44-26.5c24.2-14.57 44.19-26.39 44.43-26.25 0.23 0.14 2.04 43.9 4 97.25 1.97 53.35 3.58 98.01 3.57 101.5h55v25l-58.5-0.01-1.96 6.76c-1.08 3.71-3.44 9.79-8.54 20.25l5.75 2.57c3.16 1.41 15.54 6.81 49.25 21.43l-2.06 4.75c-1.13 2.61-3.49 7.78-8.44 18.22l-18.5-8.26c-10.17-4.55-23.45-10.45-40.5-17.96l-9.28 7.37c-5.11 4.06-13.21 9.63-18.01 12.38-4.8 2.75-13.44 6.89-19.22 9.2-5.77 2.31-15.67 5.53-21.99 7.15-6.32 1.62-15.77 3.67-21 4.55-5.23 0.87-14.23 2.09-20 2.7-5.77 0.61-20.4 1.1-32.5 1.09-13.95 0-26.94-0.6-35.5-1.62-7.43-0.89-18-2.52-23.5-3.63-5.5-1.11-14.5-3.39-20-5.07-5.5-1.68-13.82-4.63-18.5-6.55-4.68-1.92-13.15-6.26-18.84-9.65-5.68-3.4-13.44-8.98-24.16-18.67l-29.25 13.09c-16.09 7.2-29.7 13.29-30.25 13.53-0.55 0.25-3.25-4.53-6-10.61-3.21-7.11-4.64-11.37-4-11.93 0.55-0.47 12.93-6.12 54-24.23l-3.59-8.68c-1.98-4.77-4.23-10.82-6.41-18.23l-59.5 0.06v-25h56l0.51-10.25c0.29-5.64 1.87-47.82 3.51-93.75 1.65-45.93 3.06-86.14 3.14-89.36 0.1-3.81 0.54-5.69 1.25-5.39zm63.98 138.92c-2.26 2.38-4.62 6.13-5.24 8.33-0.63 2.2-1.15 5.13-1.16 6.5-0.01 1.38 1.23 4.96 2.75 7.96 1.99 3.95 4.01 6.23 7.26 8.24 2.48 1.53 6.07 3.04 8 3.36 1.93 0.33 5.41 0.11 7.75-0.48 2.34-0.6 5.94-2.59 8-4.43 2.06-1.84 4.54-4.99 5.5-7 0.96-2.01 1.75-5.9 1.75-8.65 0-2.87-0.79-6.6-1.86-8.75-1.03-2.06-3.39-5.05-5.25-6.63-1.87-1.58-4.29-3.2-5.39-3.6-1.1-0.4-3.35-0.97-5-1.26-1.65-0.3-5.25 0.04-8 0.77-3.64 0.95-6.12 2.49-9.11 5.64zm169.19-2.47c-2.16 1.54-4.98 4.82-6.27 7.3-1.47 2.8-2.35 6.2-2.34 9 0.01 2.67 0.93 6.31 2.27 8.94 1.24 2.45 3.83 5.69 5.76 7.2 1.93 1.52 5.52 3.31 8 3.98 3.49 0.95 5.51 0.96 9 0.04 2.48-0.66 6.41-2.76 8.75-4.67 2.58-2.12 4.88-5.16 5.85-7.74 0.97-2.57 1.45-6.22 1.22-9.25-0.24-3.24-1.33-6.49-3.1-9.25-1.49-2.34-4.63-5.32-6.97-6.64-2.34-1.31-5.82-2.61-7.75-2.89-1.93-0.28-5.07-0.13-7 0.34-1.93 0.46-5.27 2.1-7.42 3.64zm-78.61 58.55c-3.31 1.03-4.11 1.78-4.52 4.25-0.27 1.65-0.37 10.71-0.22 20.14 0.24 15.08 0.06 17.36-1.45 19-0.95 1.02-1.74 2.42-1.75 3.11-0.02 0.69-0.48 1.25-1.03 1.25-0.55 0-2.24 0.92-3.75 2.03-2.25 1.67-4.24 2.03-11 2-6.42-0.02-8.36-0.36-8.75-1.53-0.27-0.82-0.95-1.5-1.5-1.5-0.55 0-1.9-0.79-3.01-1.75-1.1-0.96-1.98-2.42-1.96-3.25 0.03-0.82-0.66-2.17-1.53-3-0.87-0.82-1.58-2.17-1.57-3 0.01-0.82-1.66-2.28-3.71-3.23-2.04-0.96-5.41-1.74-7.47-1.75-2.06-0.01-3.75 0.43-3.75 0.98 0 0.55-0.9 1.23-2 1.5-1.7 0.42-1.85 0.88-1 3 0.55 1.38 1 3.63 1 5 0 1.38 0.68 2.73 1.5 3 0.89 0.3 1.5 1.72 1.5 3.5q0 3 1.5 3c0.82 0 1.5 0.68 1.5 1.5 0 0.83 0.68 1.5 1.5 1.5 0.82 0 1.5 0.68 1.5 1.5 0 0.83 0.45 1.5 1 1.5 0.55 0 2.35 1.35 4 3 1.65 1.65 3.9 3 5 3 1.1 0 2.42 0.79 2.93 1.75 0.81 1.53 2.56 1.75 13.82 1.75 10.94 0 13.16-0.26 14.64-1.75 0.96-0.96 2.4-1.75 3.18-1.75 0.79 0 2.14-0.56 3-1.25 0.86-0.69 2.33-2.04 3.25-3.01 1.09-1.14 3.17-1.76 5.93-1.75 2.64 0.01 4.98 0.67 6.18 1.76 1.06 0.96 2.52 2.24 3.25 2.84 0.73 0.59 2.45 1.44 3.82 1.88 1.38 0.44 2.82 1.3 3.21 1.91 0.47 0.73 5.28 1.12 13.82 1.12 11.47 0 13.23-0.22 14.04-1.75 0.51-0.96 1.83-1.75 2.93-1.75 1.1 0 3.35-1.35 5-3 1.65-1.65 3.45-3 4-3 0.55 0 1-0.67 1-1.5 0-0.82 0.68-1.5 1.5-1.5 0.82 0 1.5-0.67 1.5-1.5 0-0.82 0.56-1.51 1.25-1.53 0.69-0.01 2.01-1.7 2.95-3.75 0.93-2.04 2.17-4.96 2.75-6.47 0.58-1.51 1.73-2.75 2.55-2.75 0.83 0 1.5-0.89 1.5-2 0-1.1-0.45-2-1-2-0.55 0-2.24-0.94-3.75-2.09-2.26-1.72-3.73-2.01-8.25-1.61-3.02 0.26-5.61 0.98-5.75 1.59-0.14 0.61-0.93 1.11-1.75 1.11-0.9 0-1.48 0.9-1.46 2.25 0.03 1.24-0.67 2.93-1.54 3.75-0.87 0.83-1.55 2.18-1.51 3 0.04 0.83-0.73 2.28-1.71 3.22-0.98 0.95-2.15 1.74-2.6 1.75-0.45 0.02-1.5 0.71-2.32 1.53-1.1 1.1-3.77 1.5-9.93 1.5-7.2 0-8.69-0.29-10.18-2.01-0.96-1.1-2.31-2-3-2-0.69 0.01-1.27-0.55-1.29-1.24-0.02-0.69-0.81-1.78-1.75-2.42-1.53-1.06-1.68-3.23-1.47-20.5 0.23-18.82 0.17-19.39-2-21.61-1.23-1.25-2.8-2.26-3.49-2.25-0.69 0.02-1.81-0.87-2.5-1.97-0.76-1.22-2.33-2.01-4-2-1.78 0-2.75 0.53-2.75 1.5 0 0.88-1.67 2.02-4.03 2.75z"/>
	</g>
</svg>