<svg version="1.2" xmlns="http://www.w3.org/2000/svg" viewBox="0 0 178 138" width="178" height="138">
	<style>
		.s0 { opacity: 1;fill: #b0b0b0 } 
	</style>
	<path id="Path 0" class="s0" d="m71.96 3.81c-4.14 2.03-9.09 4.77-11 6.09-1.9 1.33-5.63 4.48-8.29 7-3.04 2.89-5.92 7.01-7.77 11.1-2.51 5.53-2.94 7.73-2.92 14.75 0.02 8.12-0.03 8.29-3.23 10.86-1.79 1.44-6.17 4.24-9.75 6.23-3.57 1.99-10.77 5.23-16 7.2-7.62 2.88-9.7 4.1-10.5 6.17-0.78 2-0.61 3.16 0.75 5.18 1.55 2.32 2.62 2.68 9.5 3.25 4.26 0.36 15.06 0.36 24 0l16.25-0.64c0 7.83-0.65 9.78-2.5 12-1.37 1.65-2.5 3.56-2.5 4.25 0 0.69 2.11 2.6 4.68 4.25 2.7 1.73 5.18 4.27 5.87 6 0.66 1.65 1.93 3.34 2.82 3.75 0.9 0.41 1.61 1.54 1.59 2.5-0.01 0.96 1.9 4.12 4.25 7.03 3.11 3.82 4.98 5.27 6.79 5.27 1.38-0.01 4.41-0.69 6.75-1.53 2.34-0.84 4.7-1.3 5.25-1.02 0.55 0.28-1.03 1.85-3.5 3.5-2.47 1.65-4.95 3.9-5.5 5-0.55 1.1-1 2.9-1 4 0 1.96 0.67 2 37.5 2h37.5c-5.04-6.85-7.4-9.09-8.5-9.39-1.9-0.51-1.96-1.04-1.22-10.32 0.44-5.39 1.22-9.9 1.75-10.04 0.54-0.14 0.75-0.7 0.47-1.25-0.28-0.55 0.29-1.24 1.25-1.54 1.04-0.32 2.15-2.21 2.75-4.68 0.75-3.1 1.63-4.34 3.5-4.91 1.38-0.42 4.3-1.21 6.5-1.76 2.2-0.55 6.7-3.08 10-5.62 4.03-3.11 6.08-5.43 6.25-7.06 0.14-1.34-0.26-2.99-0.89-3.68-0.64-0.71-2.69-1.1-4.75-0.9-1.98 0.2-5.07 0.08-6.86-0.25-2.07-0.38-3.16-1.12-3-2.04 0.14-0.8 2.16-3.38 4.49-5.75 2.7-2.75 4.24-5.22 4.24-6.81 0-2.23-0.35-2.46-3.24-2.12l-3.24 0.37c5.28-4.08 5.5-4.79 5.46-11l-0.05-6.75c-5.95 5.81-8.4 7.5-9.29 7.5-1.35 0-1.62-1.26-1.62-7.5 0-5.63-0.53-8.56-2.12-11.75-1.16-2.34-2.73-4.92-3.48-5.75-0.75-0.82-1.54-2.85-1.75-4.5-0.21-1.65-0.97-4.12-1.68-5.5-0.71-1.37-2.01-3.07-2.88-3.77-0.88-0.7-3.84-2.45-6.59-3.88-2.75-1.43-7.93-3.66-11.5-4.96-6.01-2.17-7.98-2.35-26-2.31l-19.5 0.03z"/>
</svg>