<svg version="1.2" xmlns="http://www.w3.org/2000/svg" viewBox="0 0 211 211" width="211" height="211">
	<style>
		.s0 { opacity: 1;fill: #b0b0b0 } 
		.s1 { opacity: .3;fill: #d7d4d5 } 
		.s2 { opacity: .33;fill: #d6d3d4 } 
		.s3 { fill: #9d9c9c } 
		.s4 { opacity: .42;fill: #d3d0d1 } 
		.s5 { fill: #a7a5a6 } 
		.s6 { fill: #aaa7a8 } 
	</style>
	<g id="Layer 2">
		<path id="Path 0" class="s0" d="m114 3.1c-4.13 1.09-10.65 3.64-14.5 5.65-4.7 2.46-9.63 6.29-15.03 11.7-4.42 4.43-9.72 10.53-11.78 13.55-2.06 3.02-3.87 6.17-4.03 7-0.15 0.83-0.59 2.51-0.97 3.75-0.44 1.42-1.15 1.99-1.94 1.54-0.69-0.39-11.82-3.71-24.75-7.38-16.4-4.65-38.52-10.99-39.02-10.2-0.39 0.62-1 3.6-1.35 6.63-0.44 3.86-0.18 6.69 0.9 9.5 0.85 2.2 18.18 10.35 20.41 12.41 2.23 2.06 5.97 4.58 8.31 5.59 2.34 1.02 7.63 2.65 11.75 3.64 4.13 0.99 8.29 2.18 9.25 2.66 1.54 0.75 1.71 2.18 1.44 11.61l-0.32 10.75-18.59 31c6.79 6.2 11.33 9.13 14.46 10.5l5.7 2.5c0.49 30.65 0.93 35.72 2.06 37.91 0.83 1.6 3.23 4.3 5.34 6 3.84 3.09 3.86 3.09 17.75 3.34l13.91 0.25v27c72.85 0 94.01-0.34 94.01-0.75 0.01-0.41-1.84-13.57-4.1-29.25l-4.12-28.5c8.89-13.18 13.04-20.15 14.98-24 1.93-3.85 5.27-11.95 7.44-18 2.16-6.05 4.85-13.92 5.98-17.5 1.55-4.9 2.07-9.33 2.12-18 0.06-10.45-0.21-12.23-2.95-19.5-1.65-4.4-4.6-10.47-6.55-13.5-1.94-3.02-5.32-7.52-7.5-10-2.19-2.47-6.86-6.69-10.39-9.36-6.28-4.75-6.41-4.94-6.06-9 0.3-3.57-0.04-4.45-2.5-6.42-1.81-1.45-4.15-2.27-6.36-2.23-2.08 0.03-4.31 0.85-5.5 2.03-1.99 1.97-2.02 1.97-8-0.09-3.3-1.13-9.26-2.71-13.25-3.5-3.99-0.78-9.84-1.41-13-1.37-3.16 0.03-9.13 0.95-13.25 2.04z"/>
		<path id="Path 1" class="s1" d="m53.19 139.5c0.03 1.9 0.21 2.27 0.49 1 0.24-1.1 0.23-2.45-0.04-3-0.26-0.55-0.47 0.35-0.45 2z"/>
		<path id="Path 2" class="s2" d="m53.19 148.5c0.03 1.9 0.21 2.27 0.49 1 0.24-1.1 0.23-2.45-0.04-3-0.26-0.55-0.47 0.35-0.45 2z"/>
		<path id="Path 3" class="s1" d="m53.34 158c0 4.13 0.17 5.93 0.39 4 0.21-1.93 0.21-5.3 0-7.5-0.22-2.2-0.39-0.63-0.39 3.5z"/>
		<path id="Path 4" class="s3" d="m75.5 183.71c1.1 0.23 3.13 0.23 4.5 0 1.38-0.24 0.47-0.44-2-0.44-2.47 0-3.6 0.2-2.5 0.44z"/>
		<path id="Path 5" class="s4" d="m92.37 196c0 5.78 0.17 8.03 0.37 5 0.2-3.03 0.2-7.75 0-10.5-0.2-2.75-0.37-0.28-0.37 5.5z"/>
		<path id="Path 6" class="s5" d="m111.5 210.75c9.9 0.16 26.32 0.16 36.5 0 10.18-0.16 2.07-0.3-18-0.3-20.08 0-28.4 0.14-18.5 0.3z"/>
		<path id="Path 7" class="s6" d="m169 210.72c1.93 0.22 4.63 0.22 6-0.01 1.38-0.22-0.2-0.41-3.5-0.4-3.3 0.01-4.43 0.19-2.5 0.41z"/>
		<path id="Path 8" class="s5" d="m178.5 210.71c1.1 0.23 3.13 0.23 4.5 0 1.38-0.24 0.47-0.44-2-0.44-2.47 0-3.6 0.2-2.5 0.44z"/>
	</g>
</svg>