<svg version="1.2" xmlns="http://www.w3.org/2000/svg" viewBox="0 0 428 442" width="428" height="442">
	<style>
		.s0 { opacity: .25;fill: #000000 } 
		.s1 { opacity: 1;fill: #b0b0b0 } 
		.s2 { opacity: .62;fill: #000000 } 
		.s3 { opacity: .5;fill: #000000 } 
		.s4 { opacity: .87;fill: #000000 } 
		.s5 { opacity: .37;fill: #000000 } 
		.s6 { opacity: .75;fill: #000000 } 
	</style>
	<g id="Layer 2">
		<path id="Path 0" class="s0" d="m207 0.74c4.13 0.19 10.65 0.19 14.5 0 3.85-0.19 0.47-0.34-7.5-0.34-7.97 0-11.13 0.15-7 0.34z"/>
		<path id="Path 1" fill-rule="evenodd" class="s1" d="m210 1.17c12.38-0.08 32.63 0.3 45 0.85 12.38 0.54 29.48 1.68 38 2.52 8.52 0.83 20 2.22 25.5 3.07 5.5 0.85 13.94 2.42 18.75 3.47 4.81 1.06 13.14 3.32 18.5 5.02 5.36 1.71 13.33 4.98 17.72 7.25 4.38 2.28 10.23 6.22 13 8.76 2.76 2.54 6.24 6.81 7.71 9.5 1.48 2.69 3.16 7.81 3.75 11.39 0.58 3.58 1.05 15.72 1.04 47.5l3.76 0.6c2.08 0.34 5.57 1.45 7.77 2.48 2.2 1.03 5.83 3.69 8.06 5.9 2.52 2.49 4.93 6.3 6.33 10.02 2.12 5.62 2.24 7.24 1.94 25.5-0.32 18.88-0.41 19.66-2.99 24.5-1.46 2.75-3.93 6.2-5.5 7.66-1.56 1.46-4.64 3.61-6.84 4.77-2.2 1.16-5.92 2.44-12.53 3.57l-0.01 77.5c0 47.2-0.4 80.24-1.02 84.5-0.55 3.85-2.06 9.25-3.34 12-1.28 2.75-3.8 6.8-5.59 9-1.79 2.2-5.11 5.45-11.51 10.44l-0.5 17.78c-0.48 17.17-0.6 18-3.5 24.16-1.78 3.79-4.83 8.08-7.5 10.55-2.48 2.29-6.75 5.23-9.5 6.54-3.01 1.44-7.59 2.58-11.5 2.86-3.81 0.29-8.57-0.07-11.5-0.84-2.75-0.73-7.25-2.75-10-4.48-2.75-1.73-6.31-4.69-7.91-6.58-1.6-1.89-4.06-5.91-5.47-8.93-2.35-5.03-2.59-6.79-3.12-36h-186l-0.25 15.25c-0.24 14.6-0.38 15.52-3.25 21.63-1.78 3.79-4.83 8.08-7.5 10.55-2.47 2.29-6.75 5.23-9.5 6.54-3.01 1.44-7.59 2.58-11.5 2.86-3.81 0.29-8.57-0.07-11.5-0.84-2.75-0.73-7.25-2.75-10-4.48-2.75-1.73-6.31-4.69-7.91-6.58-1.6-1.89-4.07-5.91-5.49-8.93-2.44-5.2-2.6-6.49-2.84-23.75-0.16-11.33-0.64-18.25-1.26-18.25-0.55 0-3.52-2.36-6.6-5.25-3.84-3.6-6.75-7.59-12.9-20.14l-0.5-167.61-3.25 0.02c-1.79 0.01-5.95-1.29-9.25-2.9-3.39-1.65-7.38-4.59-9.17-6.77-1.75-2.12-4-5.65-5-7.85-1.58-3.46-1.83-6.76-1.83-24.5 0-18.59 0.19-20.92 2.06-25 1.14-2.47 3.84-6.27 6-8.43 2.17-2.17 6.19-4.97 8.94-6.24 2.75-1.27 6.46-2.31 11.5-2.33l0.5-52.5 3-5.89c1.72-3.37 5.14-7.81 8-10.36 2.75-2.45 7.7-5.97 11-7.82 3.3-1.85 9.6-4.68 14-6.3 4.4-1.62 12.5-4.09 18-5.5 5.5-1.4 15.4-3.43 22-4.51 6.6-1.08 19.42-2.69 28.5-3.59 9.07-0.9 24.6-1.99 34.5-2.43 9.9-0.44 28.13-0.86 40.5-0.93zm-107.5 49.83c-0.83 1.65-1.5 4.58-1.5 6.5 0 1.93 0.67 4.96 1.48 6.75 0.82 1.79 2.96 4.15 4.75 5.25 3.21 1.97 5.03 2 106.77 2 96.67 0 103.71-0.12 106.75-1.75 1.79-0.96 3.93-3.1 4.75-4.75 0.82-1.65 1.52-5.14 1.53-7.75 0.03-3.25-0.6-5.62-2-7.5-1.11-1.51-3.38-3.42-5.03-4.25-2.61-1.3-16.47-1.5-106.25-1.5-101.43 0.01-103.31 0.04-106.5 2-1.79 1.1-3.92 3.35-4.75 5zm-24.5 56.13c-2.47 1.43-6.46 4.8-8.85 7.48-2.4 2.69-5.21 6.58-6.25 8.64-1.05 2.06-2.58 6.34-3.41 9.5-1.21 4.66-1.5 13.35-1.5 45.75 0 33.26 0.27 41.01 1.58 46 0.87 3.3 2.77 8.03 4.23 10.5 1.45 2.48 4.91 6.69 7.67 9.36 2.77 2.67 7.95 6.27 11.51 8l6.48 3.14h249.04c10.63-5.12 15.77-8.74 18.84-11.75 2.94-2.89 6.48-7.5 7.88-10.25 1.4-2.75 3.08-7.47 3.74-10.5 0.85-3.93 1.1-17.65 0.87-48.05l-0.33-42.56c-6.05-12.3-9.1-16.54-12.41-19.64-2.8-2.61-8.13-6.21-11.84-8l-6.75-3.25c-237.52-0.44-246.34-0.33-251 1.28-2.75 0.96-7.03 2.91-9.5 4.35zm-13.78 203.87c-1.86 2.48-4.07 6.98-4.92 10-1 3.56-1.31 7.09-0.88 10 0.36 2.48 1.45 6.3 2.42 8.5 0.97 2.2 3.76 5.94 6.21 8.31 2.55 2.47 6.69 5.14 9.7 6.25 2.89 1.07 7.05 1.94 9.25 1.94 2.2 0 6.59-0.98 9.75-2.19 3.45-1.31 7.36-3.81 9.77-6.25 2.21-2.23 4.91-5.86 6-8.06 1.44-2.91 1.98-6.04 1.98-11.5 0-5.91-0.5-8.45-2.34-12-1.28-2.48-3.61-5.85-5.17-7.5-1.56-1.65-5.01-4.11-7.67-5.47q-4.82-2.46-11.34-2.84c-5.83-0.34-7.18-0.04-12.94 2.96q-6.43 3.35-9.82 7.85zm256 0c-1.86 2.48-4.07 6.98-4.92 10-1 3.56-1.31 7.09-0.88 10 0.36 2.48 1.45 6.3 2.42 8.5 0.97 2.2 3.76 5.94 6.21 8.31 2.55 2.47 6.69 5.14 9.7 6.25 2.89 1.07 7.05 1.94 9.25 1.94 2.2 0 6.59-0.98 9.75-2.19 3.45-1.31 7.36-3.81 9.77-6.25 2.21-2.23 4.91-5.86 6-8.06 1.44-2.91 1.98-6.04 1.98-11.5 0-5.91-0.5-8.45-2.34-12-1.28-2.48-3.61-5.85-5.17-7.5-1.56-1.65-5.01-4.11-7.67-5.47q-4.82-2.46-11.34-2.84c-5.83-0.34-7.18-0.04-12.94 2.96q-6.43 3.35-9.82 7.85z"/>
		<path id="Path 2" class="s0" d="m155 256.75c32.18 0.15 85.05 0.15 117.5 0 32.45-0.15 6.13-0.27-58.5-0.27-64.63 0-91.17 0.12-59 0.27z"/>
		<path id="Path 3" class="s2" d="m57.45 178.5c0 20.35 0.14 28.45 0.3 18 0.16-10.45 0.16-27.1 0-37-0.16-9.9-0.3-1.35-0.3 19z"/>
		<path id="Path 4" class="s3" d="m370.45 178.5c0 21.45 0.14 30 0.3 19 0.16-11 0.16-28.55 0-39-0.16-10.45-0.3-1.45-0.3 20z"/>
		<path id="Path 5" class="s0" d="m157 100.75c31.07 0.15 82.15 0.15 113.5 0 31.35-0.15 5.93-0.27-56.5-0.27-62.43 0-88.08 0.12-57 0.27z"/>
		<path id="Path 6" class="s3" d="m163 43.75c27.78 0.15 73.45 0.15 101.5 0 28.05-0.15 5.33-0.27-50.5-0.27-55.83 0-78.78 0.12-51 0.27z"/>
		<path id="Path 7" class="s4" d="m29.42 79c0 11.83 0.15 16.55 0.33 10.5 0.17-6.05 0.17-15.72 0-21.5-0.18-5.78-0.33-0.83-0.33 11z"/>
		<path id="Path 8" class="s5" d="m427.4 143c0 8.53 0.16 11.9 0.34 7.5 0.19-4.4 0.19-11.38 0-15.5-0.18-4.13-0.34-0.53-0.34 8z"/>
		<path id="Path 9" class="s0" d="m0.4 143.5c0 8.25 0.16 11.4 0.34 7 0.19-4.4 0.19-11.15 0-15-0.19-3.85-0.34-0.25-0.34 8z"/>
		<path id="Path 10" class="s4" d="m29.48 264c0 43.18 0.12 60.73 0.27 39 0.15-21.73 0.15-57.05 0-78.5-0.15-21.45-0.27-3.68-0.27 39.5z"/>
		<path id="Path 11" class="s3" d="m50.39 392.5c0.01 7.7 0.16 10.63 0.35 6.5 0.19-4.13 0.19-10.43 0-14-0.19-3.57-0.35-0.2-0.35 7.5z"/>
		<path id="Path 12" class="s2" d="m377.39 392.5c0.01 7.7 0.16 10.63 0.35 6.5 0.19-4.13 0.19-10.43 0-14-0.19-3.57-0.35-0.2-0.35 7.5z"/>
		<path id="Path 13" class="s6" d="m167.5 384.75c25.3 0.15 66.93 0.15 92.5 0 25.57-0.15 4.88-0.27-46-0.27-50.88 0-71.8 0.12-46.5 0.27z"/>
		<path id="Path 14" class="s2" d="m121.37 395.5c0.01 6.05 0.17 8.3 0.37 5 0.2-3.3 0.2-8.25 0-11-0.21-2.75-0.37-0.05-0.37 6z"/>
		<path id="Path 15" class="s3" d="m306.37 395.5c0.01 6.05 0.17 8.3 0.37 5 0.2-3.3 0.2-8.25 0-11-0.21-2.75-0.37-0.05-0.37 6z"/>
	</g>
</svg>