<?xml version="1.0" encoding="UTF-8"?>
<!-- Created with Inkscape (http://www.inkscape.org/) -->
<svg version="1.1" viewBox="0 0 198.23 359.3" xmlns="http://www.w3.org/2000/svg" xmlns:xlink="http://www.w3.org/1999/xlink">
 <g transform="translate(-11.058 44.686)">
  <path d="m132.25 8.9508c-0.98981 2.814-1.7839 5.6398-2.3722 8.4312 3.9878-2.445 8.7973-0.95342 10.889 0.10124 9.1623-12.335 36.497-26.702 68.055-18.271-17.215-14.781-59.924-13.825-76.572 9.7389" fill="#00a63c"/>
  <path d="m148.3 9.8281c-2.9065 2.2916-5.447 4.8527-7.529 7.6559 1.9069 0.96228 3.6504 2.3909 5.1332 4.1541 7.4581-4.22 44.644-8.1144 60.573 12.062-2.7333-17.472-33.636-32.78-58.177-23.872" fill="#00a63c"/>
  <path d="m156.52 40.398c0.10821 0.26357 1.5231 3.6208 1.8695 3.5618 0.60314-0.10432 2.2502-2.6291 2.7678-3.674-1.6097 0.0541-3.2784 0.0759-4.6372 0.11212" fill="#fff"/>
  <path d="m154.08 40.533c0 2.7048 1.3096 5.0672 2.9508 6.731-0.33354-1.6992-0.24794-4.5929-0.11993-5.8937-0.15061-0.368-0.28532-0.70843-0.39356-0.97211-1.0607 0.0284-1.9324 0.0658-2.4372 0.13471" fill="#923000"/>
  <path d="m131.49 214.5c8.082-32.891 28.756-101.49 6.3906-157.12 1.0754-1.3057 2.3122-3.1013 3.186-5.0269-0.77732-0.84913-1.3057-1.8163-1.4877-2.881-0.65136 0.14671-1.3165 0.25771-1.9934 0.32766-7.8143 0.79896-15.686-4.1679-16.682-13.902-0.61396-6.001 1.4031-11.778 4.9659-15.525-0.63561-0.59134-2.1538-1.9491-2.6733-1.9186-0.55492 0.0343-1.8793 2.0121-2.264 2.9006-0.0993 0.22731-0.40929 0.25186-0.48702 0.16735-1.0912-1.1916-2.8741-1.899-3.4083-1.7937-0.44472 0.0887-1.1492 1.7238-1.47 3.1348-0.11128 0.49196-0.46834 0.38963-0.72022 0.25185-0.53919-0.29516-1.5438-0.72415-2.4795-0.69266-8.877 13.047-3.6376 36.194 12.862 38.19 24.386 53.235-5.4381 146-20.238 158.4-7.4591 6.2518-20.107 13.978-24.637 32.002-1.0705 4.2614-1.466 8.1922-1.2594 11.774 0.64841 0.13276 7.036 0.68873 9.6867 1.0498 1.5182 0.20667 2.7835 1.3283 3.6858 2.9183l1.1708 3.1053c0.25771 1.1325 0.37488 2.3339 0.33257 3.5205-0.13973 3.8432-2.0849 7.5034-4.6598 8.3958 6.8894 4.894 15.514 6.5785 22.414 5.7579-1.6825-1.4355-1.8498-3.9121-0.72217-6.1072 4.5231-8.8022 16.252-13.597 19.033-11.294 0.61396 0.50867 1.1837 1.0528 1.7199 1.6215 1.656-3.5667 2.8337-7.5152 3.5352-11.632 3.7822-22.199-5.568-38.423-3.7989-45.622" fill="#c18963"/>
  <path d="m133.5 33.86c0.57954-0.25297 1.3401-2.2571 1.7858-4.47-1.6914 0.20472-3.3572 0.58052-4.9314 1.2152 0.80877 1.1601 2.3024 3.6218 3.1456 3.2548" fill="#fff"/>
  <path d="m157.72 37.298c-0.63463 0.79305-2.267 1.2102-3.3129-0.13081-0.49788-0.63953-0.97606-1.4542-1.2181-2.4352-0.54903-2.2207 0.12607-4.2968 1.5064-4.6373 1.3804-0.34141 2.9439 1.1817 3.492 3.4024 0.37388 1.5103 0.21253 2.9518-0.46736 3.8009m3.9613-1.6461c-0.18101-1.2693-0.86288-3.369-1.8222-4.9836-4.3352-3.001-10.691-6.001-11.263-5.1489 3.0758 1.0862 3.8294 4.2564 2.0259 4.3244-0.16149 6e-3 -0.32764 8e-3 -0.49785 0.0112 0.29123 1.0991 0.50376 2.2325 0.62182 3.3886 0.90916 8.8898-4.3027 14.683-11.167 16.231 1.2112 7.0823 19.533 10.719 21.546 0.2658-2.9468-0.58936-7.0429-4.0833-7.0429-9.2066 0.50476-0.0689 8.0977-0.28337 8.5877-0.30894 2.4096-0.123 2.4096-3.5215-0.98884-4.5713" fill="#fff8b0"/>
  <path d="m119.1 11.315c1.0105-7.3883 3.5736-13.972 7.1266-19.687 0.28337-8.8228 5.0042-27.491 13.625-36.113-15.028 6.5067-23.171 25.346-22.434 46.147 0.43981 1.221 0.84026 2.4431 1.1974 3.6582-0.35717-1.2152-0.75762-2.4372-1.1974-3.6582 0.0195 0.52935 0.0393 1.0597 0.07 1.591-0.0304-0.53132-0.0513-1.0617-0.07-1.591-5.8101-16.142-18.666-32.118-34.043-31.769 9.3001 5.3762 18.14 15.629 22.491 26.576 5.3201 3.7842 9.9268 8.6949 13.235 14.846" fill="#00a63c"/>
  <path d="m158.69 18.771c-6.123 0.58643-10.857 1.775-12.788 2.8671 0.0915 0.10822 1.655 2.2119 2.2335 3.2607 8.1262 1.7573 31.512 17.431 38.135 38.497 2.8406-6.5952-6.6454-35.512-27.58-44.625" fill="#00a63c"/>
  <path d="m108.67 43.065c-0.84618-3.7025-0.67005-7.5221-0.07-10.853-8.7894 6.9977-2.201 23.423 6.8284 23.412-3.4762-3.5077-5.7835-8.2906-6.7586-12.559" fill="#fff8b0"/>
  <path d="m36.919 207.98c0.16236 0.2658 0.0777 0.17822 0.3247 0.62579 3.6041-2.1282 19.541-6.4181 28.72 3.119-4.1344-17.47-26.367-11.535-29.044-3.7448" fill="#00a63c"/>
  <path d="m101.16 302.53c-0.75171-0.81765-1.0095-1.4336-1.1571-2.512-0.39357-2.8898-0.95046-10.304-0.11212-13.47-4.0282-1.042-7.5939-2.6428-10.588-4.7701-1.5428 0.53528-4.896 0.46639-11.521-0.918-3.7104 10.364 1.7957 17.62 1.5172 19.569-0.2814 1.9728-3.4939 3.9583-1.4267 7.529 2.1705 3.7497 20.213 4.2279 22.93 1.1876 1.8616-2.083 1.3854-5.4982 0.35717-6.6159" fill="#c18963"/>
  <path d="m15.352 192.2c8.2413-2.878 20.261 7.8035 20.186 12.934 0.49491 0.65529 0.99671 1.5684 1.2781 2.0279 5.0544-10.969-11.599-27.988-21.464-14.962" fill="#00a63c"/>
  <path d="m88.777 263.84c-2.6497-0.3611-9.0373-0.91702-9.6857-1.0498-13.844-2.8445-23.521-11.56-29.907-20.884-5.0229-7.3332-9.239-16.647-11.239-28.517 0 0-0.83338 4.3568-2.017 6.7507-2.691 25.86 11.658 48.392 32.72 57.946 6.2627 2.8406 18.529 4.4316 20.658 3.6936 6.7064-2.324 6.9485-16.922-0.52934-17.94" fill="#c18963"/>
  <path d="m105.33 36.982c-5.9557 7.3194-8.509 19.545-7.1689 26.967 2.1745-5.753 5.7087-10.969 8.5857-14.052-2.1489-3.8147-2.8062-8.8524-1.4168-12.915" fill="#00a63c"/>
  <path d="m119.1 11.315c-15.631-29.069-59.211-31.219-71.34-16.801 17.306-3.5864 42.21 4.6815 55.417 15.191-20.863-4.9147-56.572 16.325-57.954 41.945 8.9704-11.719 32.119-31.777 53.906-31.904-17.831 6.8206-28.865 36.02-21.955 49.477 5.143-24.618 25.333-41.136 32.77-42.146 0.97506-2.8209 2.0456-4.6392 2.4224-4.652 0.93571-0.0324 1.9403 0.3975 2.4795 0.69169 0.25185 0.13778 0.60905 0.24098 0.7212-0.25101 0.32077-1.4119 1.0243-3.0472 1.469-3.1348 0.53428-0.10627 2.3171 0.60115 3.4093 1.7937 0.0767 0.0837 0.3867 0.06 0.48608-0.16818 0.3857-0.88846 1.71-2.8662 2.265-2.8996 0.51952-0.0315 2.0367 1.3263 2.6724 1.9186 1.1826-1.2437 2.5336-2.262 4.0174-2.9921 2.4746-11.754 15.96-45.764 46.902-50.595-14.738-6.8097-52.962 9.975-57.686 44.528" fill="#00a63c"/>
  <path d="m141.42 307.39c1.2683 3.0698-1.0312 5.5956-3.1358 6.0836 2.261-0.0343 7.1531-0.0552 7.3902-0.9052 0.17209-0.61987-2.1056-3.0147-4.2545-5.1784" fill="#fff"/>
  <path d="m141.42 307.39c-1.0626-2.571-4.2466-4.6185-6.5972-4.7651 3.8058-4.3972 7.283-22.483-4.7947-32.485-2.7806-2.3014-14.51 2.4923-19.033 11.295-1.65 3.2125-0.40442 5.3378 1.0282 6.3473 2.9301 2.0653 3.858 7.221 3.7576 10.905-0.0572 2.1184-0.56674 4.0184-1.1197 4.2948-1.6992 0.85011-5.7776 6.1564-2.0653 8.7874 3.2912 2.3339 20.25 2.9666 25.688 1.7042 1.8252-0.42308 4.406-3.0098 3.1358-6.0836" fill="#c18963"/>
  <path d="m35.258 204.79c-2.512-3.2174-11.724-5.3831-19.082 1.0833-6.7438 5.9272-5.322 14.851-0.34044 19.074 5.0239 4.2574 15.412 3.4054 19.159-3.0659 2.5739-4.4444 4.7937-11.29 0.26368-17.092" fill="#d5e3a6"/>
  <path d="m147.41 33.242c-0.53132 8e-3 -1.3086-1.8813-1.962-3.6907-3.0797-0.2764-6.6671-0.58348-10.154-0.16149-0.4457 2.2128-1.2063 4.2171-1.7858 4.4699-0.84222 0.36701-2.3358-2.0948-3.1456-3.2548-0.33257 0.13387-0.65923 0.28139-0.98293 0.4388 0.38372 2.9852 2.0849 5.5572 4.3391 7.3174 2.2984-1.1384 9.9032-1.5152 11.831 0.85504 2.4195-1.8872 3.2863-5.0318 3.124-7.3401-0.41523 0.74976-0.89833 1.3598-1.2634 1.3657" fill="#923000"/>
  <path d="m133.71 38.362c2.0731 1.6186 4.6107 2.5513 7.0183 2.4805 2.0308-0.06 3.612-0.68873 4.8134-1.6254-1.9285-2.3703-9.5332-1.9934-11.832-0.85501" fill="#ed8599"/>
  <path d="m140.73 40.842c-5.3348 0.15647-10.679-4.5172-11.357-9.7969 6.9534-3.3906 12.537-1.4159 20.104-1.2004-0.11993 0.56576-0.43685 1.3549-0.81173 2.0328 0.35126 4.9668-2.5779 8.8071-7.9353 8.9645m-13.751-16.287c3.3138-3.7172 6.2086-3.1643 8.3978-0.62283 0.48112 0.55888 0.7832 1.5467 0.52343 1.5143-1.9285-0.24209-5.8199 0.0223-7.9442 0.91306-0.78814 0.3316-2.0574-0.59231-0.97704-1.8045m21.445 0.87864c-1.3549-0.47818-3.0206-0.32077-5.2384 0.35324-0.61298 0.18603-0.74089-0.37784-0.40341-1.1689 0.66514-1.5556 2.3663-2.879 3.3926-2.6536-1.1797-1.468-5.691-6.4506-12.129-5.7924-5.1243 0.52443-14.446 7.041-13.148 19.728 0.99573 9.734 8.8681 14.701 16.681 13.901 10.428-1.0666 15.16-10.053 12.538-19.947 0.17125 0 0.33748-3e-3 0.49886-8e-3 1.8035-0.0678 0.88355-3.3247-2.1922-4.4109" fill="#fff8b0"/>
  <path d="m134.62 16.214c3.5539 0.18101 4.0587 0.21448 6.1505 1.2702 9.1623-12.335 36.497-26.703 68.055-18.271-24.757-12.632-61.557 1.6432-74.206 17.001" fill="#009234"/>
  <path d="m138.29 313.47c2.261-0.0354 7.1531-0.0561 7.3902-0.90522 0.0167-0.0639 3e-3 -0.15145-0.0284-0.25074-1.4296-0.33946-2.8229-0.94065-4.1364-1.711-0.56674 1.4936-1.9315 2.567-3.2253 2.8671" fill="#dcdddd"/>
  <path d="m145.44 29.552c0.65331 1.8094 1.4306 3.6986 1.962 3.6907 0.41719-6e-3 1.837-2.2778 2.0751-3.3985-1.1827-0.0335-2.5494-0.15842-4.037-0.29221" fill="#fff"/>
  <path d="m141.91 18.262c1.9068 0.96229 2.5129 1.6136 3.9957 3.3768 7.4582-4.22 44.644-8.1154 60.572 12.062-8.6152-20.197-47.342-22.486-64.568-15.439" fill="#009234"/>
  <path d="m154.4 37.167c1.0459 1.3411 2.6782 0.92391 3.3129 0.13081 0.67891-0.84914 0.84026-2.2896 0.46736-3.8009-0.54805-2.2197-2.1125-3.7429-3.4929-3.4024-1.3804 0.34144-2.0544 2.4175-1.5064 4.6373 0.24293 0.98195 0.7212 1.7956 1.2191 2.4352" fill="#fff"/>
  <path d="m159.04 40.342c-0.89538 0.0195-1.7593 0.0354-2.5248 0.0561 0.0973 0.23819 1.2565 2.9862 1.7366 3.4792-0.18213-1.2703 6e-3 -2.6025 0.78811-3.5352" fill="#dcdddd"/>
  <g fill="#ddd698">
   <path d="m159.86 30.669c-4.3352-3.0019-10.691-6.0019-11.263-5.1489 1.4385 0.50772 2.3624 1.471 2.7609 2.3604 3.0354 0.92391 6.2892 1.5536 8.8583 3.4349-0.11407-0.22145-0.23233-0.43783-0.35619-0.64642"/>
   <path d="m163.54 36.734c0.62774 3.241-3.4398 3.1909-6.306 3.6651 2.3319-0.0778 5.139-0.16037 5.4303-0.17516 1.833-0.0945 2.267-2.081 0.87569-3.49"/>
   <path d="m143.48 48.031c-1.2102 0.64544-2.5218 1.1305-3.9022 1.4424 1.1463 6.7054 17.632 10.32 21.089 1.8114-5.8819 1.7691-12.147 0.58543-17.187-3.2538"/>
  </g>
  <path d="m118.61 5.3206c-4.409-8.4401-21.333-33.376-35.24-35.428 9.3001 5.3771 18.14 15.63 22.491 26.577 5.3201 3.7842 9.9268 8.694 13.235 14.846 1.0105-7.3892 3.5736-13.972 7.1275-19.688 0.28239-8.8228 4.9029-26.247 12.973-35.342-14.034 9.9976-21.172 47.912-20.586 49.035" fill="#009234"/>
  <path d="m145.9 21.638c0.0915 0.10821 1.655 2.2118 2.2335 3.2607 8.1262 1.7573 31.511 17.431 38.135 38.497 0.56674-9.9002-18.586-39.172-40.368-41.758" fill="#009234"/>
  <path d="m115.43 55.624c-2.9449-2.9714-5.0466-6.857-6.2144-10.57-0.47818 1.6136-1.3922 2.938-3.0521 3.5185 1.9511 4.0193 5.382 7.0567 9.2666 7.0518" fill="#ddd698"/>
  <path d="m37.006 208.08c0.25975 0.42506 0.0334 0.0926 0.23713 0.53035 3.6041-2.1282 19.541-6.4181 28.72 3.118-5.8908-10.806-23.465-10.099-28.957-3.6484" fill="#009234"/>
  <path d="m101.16 302.53c-0.75171-0.81765-1.0095-1.4336-1.1571-2.512-0.39357-2.8898-0.95046-10.304-0.11212-13.47-4.0282-1.042-7.5939-2.6428-10.588-4.7701-1.2978 0.44965-3.8836 0.46934-8.6094-0.35714-2.2965 3.4211-2.2276 8.0662-0.76844 10.984 1.9206 3.4565 2.3044 7.6815 0 10.754-1.7543 2.1932-1.5044 4.2594-0.39652 6.1299 5.079 2.4834 18.921 2.4903 21.274-0.1428 1.8616-2.083 1.3854-5.4982 0.35717-6.6159" fill="#986c4c"/>
  <path d="m15.352 192.2c8.2413-2.878 19.448 6.7615 20.25 13.13 0.37291 0.27752 0.72417 1.2142 0.83043 1.288 1.3411-7.7592-10.985-20.915-21.081-14.418" fill="#009234"/>
  <path d="m36.631 218.41c-0.67104 0.80582-0.55985 1.5182-0.81567 1.9944-2.691 25.86 12.135 48.551 33.259 57.969 5.0003 2.2296 17.701 4.3676 19.83 3.6297 2.5867-0.89635 4.2122-3.6198 4.8025-6.6857-25.528 2.3408-55.778-4.7298-57.075-56.907" fill="#986c4c"/>
  <path d="m105.17 45.545c-3.0718 3.674-6.3847 10.299-7.0055 18.403 2.1745-5.753 5.7087-10.969 8.5857-14.052-1.038-1.038-1.5802-2.4834-1.5802-4.3509" fill="#009234"/>
  <path d="m118.9 14.949c-30.115-29.151-65.409-24.634-71.144-20.435 15.793-4.0184 49.883 4.715 62.169 22.363-31.921-9.3354-57.639 17.467-64.505 34.571 18.009-22.887 46.918-36.8 64.385-29.934-17.831 6.8206-34.09 25.056-32.705 47.341 4.8183-22.526 25.402-40.768 32.838-41.778 0.97509-2.8209 2.0466-4.6392 2.4224-4.652 0.93571-0.0324 1.9403 0.3975 2.4795 0.69172 0.25185 0.13778 0.60905 0.24014 0.72123-0.25102 0.32074-1.4119 1.0243-3.0472 1.469-3.1348 0.53425-0.10627 2.3171 0.60116 3.4093 1.7937 0.0767 0.0837 0.38766 0.06 0.48606-0.16818 0.3857-0.88849 1.7101-2.8662 2.265-2.8996 0.5195-0.0315 2.0367 1.3263 2.6723 1.9187 1.1827-1.2437 4.0174-2.9921 4.0174-2.9921 0.66023-2.7137 9.9012-43.935 46.902-50.595-16.79-1.165-47.403 18.469-57.763 52.799-0.11993-2.0476-0.24014-3.2519-0.11993-4.6372" fill="#009234"/>
  <path d="m131.95 304.42c2.6782-4.3844 1.6894-6.06 0.53723-6.4437-10.836-3.3867-16.871-10.544-18.854-20.414-1.0144 1.1817-1.9137 2.4755-2.631 3.8707-1.651 3.2125-0.40439 5.3388 1.0282 6.3483 2.9302 2.0642 3.858 7.22 3.7576 10.905-0.058 2.1184-0.56772 4.0184-1.1197 4.2948-1.6992 0.84911-5.7776 6.1564-2.0653 8.7874 3.2912 2.3329 20.25 2.9666 25.688 1.7042 1.101-0.25575 2.4765-1.2998 3.1161-2.7619-19.526 2.7038-18.318-2.6655-9.4575-6.2902" fill="#986c4c"/>
  <path d="m11.733 217.38c0.43785 2.9882 1.837 6.2696 4.0075 8.1095 5.0239 4.2574 15.508 2.8573 19.254-3.6149 0.3119-0.53919 0.61889-1.1138 0.90914-1.7179-5.0898 4.8281-17.351 7.0656-24.171-2.7766" fill="#acba87"/>
  <path d="m148.49 29.798c-0.93375-0.0561-1.9541-0.14865-3.0413-0.24599 0.55592 1.5388 1.2004 3.1318 1.7081 3.5696 0.0335-1.2801 0.22814-2.6379 1.3332-3.3237" fill="#dcdddd"/>
  <path d="m142.42 37.742c-3.0285-0.58643-7.1266-0.16427-8.7097 0.61987 0.86587 0.67596 1.8124 1.2289 2.7963 1.6432 1.3647-1.8458 3.6277-2.3811 5.9134-2.263" fill="#ce7486"/>
  <path d="m132.83 29.826c-0.84124 0.20082-1.6678 0.45557-2.4696 0.77927 0.77729 1.1148 2.1843 3.4221 3.0413 3.2784-0.28139-1.3529-0.57558-2.7048-0.57165-4.0577" fill="#dcdddd"/>
  <path d="m120.9 35.899c0.99573 9.734 8.8681 14.701 16.681 13.902 6.3375-0.6484 10.566-4.225 12.325-9.1505-3.3601 3.9918-19.14 9.4122-29.006-4.7514" fill="#ddd698"/>
  <path d="m137.93 29.08c3.6189-0.0424 12.523 0.77039 12.685 0.76451 1.7622-0.0669 1.591-2.326-0.27556-2.8682 1.0233 3.1328-11.084 0.25967-12.409 2.1036" fill="#ddd698"/>
  <path d="m93.42 276.59c-0.7704 2.508-2.2798 4.5496-4.1138 5.1843 6.8904 4.895 15.514 6.5795 22.414 5.7589-1.6815-1.4355-1.8498-3.9121-0.7222-6.1072 0.44867-0.87175 0.97015-1.7032 1.5438-2.4942-6.545 2.0643-13.57 1.775-19.122-2.3417" fill="#986c4c"/>
  <path d="m131.49 214.5c8.082-32.891 28.756-101.49 6.3906-157.12 1.0754-1.3057 2.3122-3.1013 3.186-5.0269-0.77732-0.84913-1.3057-1.8163-1.4877-2.881-0.65136 0.14671-1.3165 0.25771-1.9934 0.32766-4.5802 0.46834-9.178-1.0469-12.402-4.3391-5.0928 0.45161-9.1121 2.877-12.297 6.796 2.8908 4.6441 6.4821 7.6461 12.342 8.3555 2.0043 4.3755 3.6405 9.0196 4.9511 13.863 2.3063-2.4392 6.6021-4.0498 9.4663-2.8868 12.887 51.73-8.8179 135.73-10.919 141.23-3.7596 9.8451 6.6622 22.806 3.4004 46.181-0.52346 3.7517-2.4618 7.4326-5.2827 10.648 1.41-0.19189 2.5424-0.0452 3.1889 0.49001 0.61396 0.50867 1.1837 1.0528 1.7199 1.6215 1.656-3.5667 2.8337-7.5152 3.5352-11.632 3.7822-22.199-5.568-38.423-3.7989-45.622" fill="#986c4c"/>
  <path d="m18.418 206.1c-1.3873 2.7294 2.5503 6.668 1.5664 7.4286-0.81567 0.62972-2.4618-4.9226-2.4618-6.2204 0-0.67103 0.89537-1.2083 0.89537-1.2083" fill="#acba87"/>
  <path d="m14.614 212.06c-0.89537 1.7455 2.9085 3.8924 4.0725 3.7586 1.5664-0.17906-3.5805-1.4316-4.0725-3.7586" fill="#acba87"/>
  <g fill="#0f141b">
   <path d="m79.444 262.71c-0.20073-3.55 0.19385-7.4345 1.2476-11.625 4.3627-17.359 17.237-25.718 24.529-31.832 13.801-11.565 45.934-102.88 20.326-158.79-0.0482-0.10515-0.14754-0.17711-0.26162-0.18882-8.6772-0.94458-14.516-9.6277-16.268-17.295-2.1764-9.5214 2.508-19.656 3.4221-20.244 0.9662-0.0251 2.2768 0.65727 2.568 0.81666 0.51754 0.28337 0.68382 0.19385 0.78515-0.25296 0.33552-1.4759 1.0922-3.1466 1.3293-3.2627 0.38863-0.0759 2.2453 0.66514 3.2794 1.7937 0.43984 0.48014 0.42213 0.5254 0.68383-0.0759 0.42801-0.98685 1.8055-2.9114 2.1528-2.9862 0.27556-2e-3 1.3736 0.80289 2.3486 1.7524 0.0413 0.0404 0.63365-0.49394 0.61398-0.5136-0.47818-0.46639-2.2512-1.9285-3.002-1.8911-0.85109 0.0522-2.2758 2.4765-2.5454 3.0964-2e-3 3e-3 -6e-3 6e-3 -0.0111 8e-3 -1.1669-1.2279-3.0374-2.1007-3.6848-1.9728-0.81765 0.16149-1.7268 3.6415-1.7209 3.6425-9.7e-4 0-1.716-0.84322-2.8593-0.80585-1.5221 0.0513-6.552 11.401-4.3273 21.135 1.7898 7.832 7.8202 16.655 17.013 17.782 25.342 55.71-7.0567 146.51-20.675 157.93-5.0387 4.223-19.682 12.531-24.659 32.334-0.98687 3.9268-1.5123 7.6166-1.4365 10.975 0.36701 0.10431 0.78124 0.37881 1.1522 0.47328"/>
   <path d="m111.25 287.27c-5.996 0.57756-14.376-0.71925-21.359-5.5041-0.53428 0.0296-0.9062 0.0112-1.4365 0.10236 7.1394 5.1007 17.237 7.159 23.56 6.4103-0.24879-0.27444-0.52248-0.72714-0.76451-1.0085"/>
   <path d="m131.95 214.67c9.6277-39.17 27.827-103.53 6.3306-157.25 0.78615-0.96915 2.1715-2.694 3.1338-4.7868-0.1771-0.16623-0.40045-0.41424-0.54312-0.61101-1.044 2.3683-2.6025 4.3873-3.2174 5.1331-0.0759 0.0926-0.0954 0.21838-0.051 0.32961 21.229 52.806 3.5067 116.58-6.4044 156.92-0.69565 2.8318 0.27165 6.9731 1.4956 12.216 1.9511 8.3525 4.6215 19.792 2.2984 33.428-0.72122 4.2358-1.8764 8.143-3.4575 11.6 0.32763 0.16344 0.63365 0.36997 0.91995 0.60512 1.5782-3.4142 2.7717-7.3371 3.5225-11.744 2.3457-13.765-0.56674-25.526-2.5297-33.934-1.2043-5.1577-2.1558-9.2322-1.4975-11.911"/>
   <path d="m121.03 30.415c0.058-0.2156 0.11714-0.42996 0.18017-0.6435-1.2073-0.0443-2.7609 0.31389-3.9504 0.76945-1.0568 0.40537-1.4611 1.0046-0.43884 0.66021 1.5457-0.51953 3.062-0.80189 4.2092-0.78616"/>
   <path d="m112.83 32.491c-1.7474 0.98688-3.4113 2.145-4.7218 4.4798 0.0284 0.34239 0.24209 0.94259 0.28239 0.857 1.1532-2.4264 3.2942-4.0843 5.0682-5.1095 1.0499-0.60805 0.3739-0.79305-0.62871-0.22731"/>
   <path d="m122.07 41.253c-1.4218 0.072-3.3739 1.0252-5.1636 2.0544-1.0183 0.58543-1.1118 1.2417-0.11016 0.673 2.3772-1.3509 4.5516-2.1617 5.5562-2.079-0.10738-0.20946-0.18686-0.43292-0.28239-0.6484"/>
   <path d="m112.88 45.903c-0.84618 0.66907-1.6727 1.348-2.2522 2.1922 0.06 0.25492 0.33651 0.673 0.36702 0.61987 0.42801-0.734 1.3352-1.652 2.5759-2.6084 0.79698-0.61494 0.17125-0.88651-0.69071-0.2036"/>
   <path d="m138.17 57.039c-2.2758-1.6156-10.703-0.84913-13.007 3.487 0.16818 0.19496 0.29812 0.43884 0.40341 0.6809 9.8e-4 -2e-3 3e-3 -3e-3 3e-3 -6e-3 1.4641-3.7163 10.012-5.757 12.44-3.4536 0.0167 0.0167 0.1495-0.45752 0.16037-0.70745"/>
   <path d="m141.94 68.749c-2.7009-1.8793-10.164-1.4188-12.628 2.7471 0.0195 0.3355 0.27444 0.90913 0.31092 0.82353 1.9137-4.5113 10.243-4.7828 12.3-2.7392-2e-3 -0.27751 6e-3 -0.55494 0.0167-0.83142"/>
   <path d="m145.43 83.849c-2.6438-2.7884-9.7172-2.7461-12.831 1.0971 0.0522 0.31288 0.0778 0.63069 0.0876 0.94949 6e-3 -8e-3 0.0167-0.0112 0.0223-0.0195 2.938-4.5998 11.007-3.9308 12.69-0.99082-0.0139-0.34534-0.0139-0.69071 0.0323-1.036"/>
   <path d="m134.3 100.45c-0.0561 0.2262 0.0619 0.96327 0.1534 0.8078 2.082-3.552 10.005-3.3178 12.664-1.1266 0.0405-0.23428 0.0904-0.46834 0.14866-0.69956-3.4201-2.4077-10.62-2.083-12.966 1.0183"/>
   <path d="m147.97 118.45c-2.3211-3.121-10.488-3.1682-13.557-0.59329 0.0195 0.30501 0.0167 0.611-6e-3 0.91798 2.7658-3.1486 11.742-2.6635 13.323 0.52836 0.0502-0.29224 0.12189-0.57954 0.23903-0.85305"/>
   <path d="m147.04 136.55c-1.6382-3.8235-9.6543-5.3456-13.924-2.1292-3e-3 0.31288-0.0533 0.62381-0.1071 0.93571 3.8432-3.5894 12.234-1.7455 13.71 1.6973 0.0522 0.12412 0.39259-0.33748 0.32175-0.50376"/>
   <path d="m130.82 151.59c4.4011-3.1525 12.416-0.0798 13.993 2.1843 0.06-0.27835 0.11017-0.55985 0.1534-0.84126-2.6428-2.9134-9.6336-4.7868-14.037-2.1902z"/>
   <path d="m141.92 171.78c-2.4834-4.8488-11.138-6.1721-15.083-3.9692-3e-3 0.29126-0.0717 0.58249-0.16148 0.87178 3.7005-2.7993 13.314-0.8944 14.933 4.0498 0.1032-0.31782 0.20667-0.63463 0.31093-0.95244"/>
   <path d="m122.15 184.04c-0.0552 0.27556-0.0424 0.80978 0.0195 0.76354 4.4001-3.2371 14.03 0.22731 15.597 3.9032 0.11993-0.28139 0.22731-0.56674 0.29322-0.86289-2.4362-4.0203-11.22-6.7153-15.91-3.8038"/>
   <path d="m133.79 205.93c0.0452-0.13583 0.27361-0.96031 0.31681-1.2407-2.0515-5.689-11.57-8.4942-17.128-6.302-0.11909 0.28925-0.24014 0.57854-0.35421 0.86977 6.4526-3.1476 16.424 1.4139 17.166 6.673"/>
   <path d="m131.58 219.12c-3.183-5.3772-15.737-8.9773-22.187-5.5346-0.11017 0.23707-0.3975 1.0046-0.2658 0.92781 6.9849-4.0852 20.903 0.87374 22.327 5.9222 0.0223 0.0826 0.12188-0.81469 0.12495-1.3155"/>
   <path d="m136.19 251.22c-2.6989-3.3562-8.0514-6.5155-15.295-9.1338-1.3972-0.49785-2.1085-0.26162-0.71434 0.24404 7.3607 2.6596 13.249 6.2499 15.751 9.6021 0.0591 0.0798 0.25492-0.43292 0.25883-0.71236"/>
   <path d="m84.404 240.85c6.8432-3.6622 16.978-4.0026 28.569-1.1394 1.3775 0.33946 1.6579 0.86489 0.28041 0.51656-11.436-2.8238-22.565-2.3958-29.278 1.5861-0.0482 0.0284 0.26858-0.87767 0.42801-0.96327"/>
   <path d="m133.46 266.83c0.10319-0.20472 0.22229-0.39848 0.36601-0.57461-4.2889-4.7917-21.482-11.157-35.93-13.122-1.4769-0.19496-2.1341 0.21755-0.65825 0.41917 15.34 2.0859 32.587 8.9872 36.222 13.277"/>
   <path d="m91.18 252.46c-5.2856-0.27054-8.5621 0.22814-11.287 1.6284-0.12102 0.3119-0.30206 0.91504-0.27255 0.89733 2.4608-1.4936 6.302-2.1607 11.424-1.9846 1.3598 0.0471 1.3863-0.47623 0.13472-0.54116"/>
   <path d="m93.462 270.54c0.74876 4.4916-1.4316 10.65-4.4326 10.985-4.0715 0.45456-30.983 0.22033-46.25-27.999-5.6349-10.416-7.8281-22.167-6.4132-34.173-0.24106 0.50968-0.51459 0.99966-0.8137 1.4759-1.0715 11.598 0.9918 23.157 6.4486 33.243 15.738 29.091 44.334 28.955 47.389 28.091 4.5516-1.285 5.14-7.6018 4.7435-10.996-0.19384-1.6638-0.92587-2.1577-0.67103-0.62677"/>
   <path d="m37.661 213.12c2.2926 14.894 8.4647 26.956 16.461 35.761 7.0656 7.7799 16.18 12.834 26.906 14.585 1.3224 0.2156 6.491 0.51657 7.7287 0.68581 1.1768 0.15953 2.2798 0.95933 3.1486 2.2699 0.70449 1.0626 1.1856 0.8983 0.52739-0.26274-0.76059-1.3421-1.9137-2.571-3.244-2.752-1.2633-0.17209-6.423-0.47328-7.713-0.68285-10.559-1.7229-19.592-6.7202-26.619-14.407-8.2738-9.0482-14.775-21.345-16.891-36.81z"/>
   <path d="m101.43 302.3c-0.6799-0.73894-0.66316-0.89931-0.80683-1.9511-0.4467-3.2745-0.93964-10.325 0-13.246-0.21448-0.0346-0.81075-0.57658-1.0203-0.63859-0.86978 3.3286-0.25186 10.965 0.10626 13.588 0.16232 1.1925 0.46343 1.8458 1.2397 2.69 0.91998 0.99869 1.3893 4.2191-0.36009 6.1771-2.5071 2.8052-20.265 2.5602-22.404-1.1335-1.3116-2.265-0.37684-3.7852 0.5264-5.2552 0.96621-1.5723 1.2338-2.1213 0.19284-4.8832-1.3008-3.4496-3.4575-9.18-0.80682-16.633-0.2204-0.0251-0.97212-0.0482-1.1906-0.0865-2.6625 7.6284 0.14659 13.665 1.3854 16.95 0.95835 2.5424 0.70646 2.4244-0.3119 4.0813-0.90914 1.4808-1.9757 3.6189-0.46933 6.2204 2.5405 4.3893 21.122 4.4405 23.715 1.5398 1.9246-2.1538 1.3922-6.1289 0.20472-7.4198"/>
   <path d="m16.288 191.58c9.0108-10.258 24.21 3.2804 20.4 15.18 0.1594 0.24991 0.36798 0.4457 0.38274 0.40537 4.6323-12.351-10.835-27.036-21.287-15.943-1.0558 1.1207-0.98786 1.4365 0.39849 1.0587 6.4644-1.7642 17.217 5.5916 18.952 12.01 0.24795 0.22731 0.42309 0.57656 0.70252 0.76646-0.29813-7.1216-12.802-15.123-19.549-13.478"/>
   <path d="m65.845 210.18c-4.4591-14.429-23.601-12.483-29.253-2.5838-0.0089 0.30895 0.55297 0.6356 0.6061 0.54312 5.6841-9.8028 24.103-11.093 28.173 2.5267-6.6759-5.9291-20.825-6.7664-28.284-2.3457 0.13677 0.17208 0.24795 0.48114 0.38766 0.65136 6.0383-4.0843 20.831-3.799 27.547 2.2581 1.1984 1.0804 1.4414 0.95049 0.82355-1.0498"/>
   <path d="m111.31 281.57c-1.1915 2.3191-0.8196 4.7022 0.92586 5.9321 3.0423 2.143 3.9997 7.3617 3.8963 11.18-0.0541 1.9787-0.51852 4.1876-1.3007 4.5782-1.8094 0.90422-5.3939 5.8386-2.0229 8.2295 3.6504 2.5858 24.583 2.9704 26.76 1.1433 1.6805-1.412 2.2689-3.0718 1.6992-4.7986-0.86486-2.6271-4.1138-4.7524-6.4408-4.898-0.12384-8e-3 -0.23317-0.0856-0.28041-0.1997-0.0483-0.11407-0.0279-0.24599 0.0541-0.34043 4.9787-5.752 5.0475-23.9-4.7573-32.019-2.2207-1.8409-13.866 2.1105-18.533 11.192m0.90227 30.638c-4.2614-3.0197 0.20862-8.4726 2.327-9.5322 0.29419-0.14671 0.69267-1.8036 0.75662-4.162 0.10821-3.9446-0.73793-8.9272-3.5569-10.404-2.1577-1.1296-2.6015-4.2437-1.2761-6.8235 4.7455-9.2361 17.104-13.91 19.959-11.545 10.931 9.0531 9.2115 26.994 5.0446 32.617 4.9914 0.89831 9.4152 6.6405 4.3972 10.857-2.7284 2.2916-23.892 1.6589-27.651-1.0066"/>
   <path d="m126.57 304.53c3.8639-0.22229 7.0646-1.0715 8.0357-2.1469 0.11993-0.13276 0.60509 0.30404 0.48407 0.43786-1.3086 1.4503-4.8921 2.0702-8.0692 2.263-1.345 0.0817-1.772-0.47819-0.45063-0.55394"/>
   <path d="m121.4 304.42c-3.0856-0.34534-5.2306-1.1669-6.0393-2.3122-0.0279-0.0393-0.24599 0.37979-0.35028 0.60512 1.1994 1.4021 3.5303 1.9669 5.6615 2.2433 0.98887 0.12802 3.1742-0.26468 0.72812-0.53623"/>
   <path d="m137.67 295.45c-1.1 0.7094-2.6969 1.3076-4.6441 1.7416-1.3057 0.29221-0.98393 0.84517 0.30895 0.56083 1.9314-0.42603 3.2696-0.90523 4.4394-1.6038 0.0432-0.24795-0.0343-0.74385-0.10431-0.69858"/>
   <path d="m115.68 297.11c-0.16428-0.0739 0.10543-0.66907 0.2697-0.59527 2.5169 1.1394 7.0882 1.6727 11.784 1.3883 1.3844-0.0837 1.041 0.48508-0.31093 0.56476-3.1003 0.18492-8.3604 0.17515-11.743-1.3578"/>
   <path d="m137.69 283.45c-3.0078-0.51656-8.6595 0.94653-11.789 1.8754-4.5418 1.348-9.3365 3.2086-11.956 4.6392 0.11324 0.18604 0.22619 0.3729 0.34144 0.5579 5.0593-2.7511 18.69-7.3312 23.408-6.4122 0.0324 6e-3 0.065 2e-3 0.0965-9.7e-4 -0.0432-0.21755-0.0759-0.43786-0.10041-0.65923"/>
   <path d="m139.59 312.98c0.36306-8e-3 5.6595-6e-3 5.8012-0.51263 0.0658-0.40144-1.1522-1.8714-3.6228-4.3716-0.16818-0.17014-0.19384-1.1089-0.06-0.98787 2.2237 2.0121 3.367 3.488 3.9377 4.3726 0.80582 1.2476 0.72809 1.6363-0.67401 1.9688-0.77336 0.18407-5.1351 0.50379-6.4772 0.26858-0.18297-0.0315 0.91504-0.73302 1.0951-0.73793"/>
   <path d="m99.492 287.37c-2.9744 0.44375-18.504-0.14057-22.686-3.1082-0.0315 0.24209-0.063 0.48407-0.0954 0.72614 4.7435 2.9468 20.008 3.4614 22.57 3.0787 0.17822-0.0279 0.39064-0.72516 0.21169-0.69663"/>
   <path d="m99.307 294.47c-2.5858 0.76747-7.22 1.5782-12.031 1.4316-1.4483-0.0432-1.3519 0.48605 0.10041 0.52738 3.7163 0.10738 8.3505-0.21559 12.117-1.3322 0.0315-0.0112-0.0973-0.65234-0.18603-0.62677"/>
   <path d="m82.802 295.44c-2.3339-0.4467-4.1659-1.1935-5.449-2.2227-0.0679-0.0541-0.10626 0.48407-0.062 0.76351 1.3322 0.95835 3.0934 1.5467 5.3201 1.9777 1.3519 0.26161 1.528-0.26273 0.19089-0.51852"/>
   <path d="m100.15 300.64c-1.59 0.79305-5.4677 1.2949-9.7507 1.2634-1.1492-8e-3 -0.57461 0.50376 0.70449 0.50376 4.3066 0 7.7405-0.36701 9.3738-1.1994-0.10822-0.18882-0.22145-0.37683-0.32763-0.56772"/>
   <path d="m86.368 301.71c-3.0177-0.27054-5.4608-0.80387-7.0843-1.5467-0.0156-6e-3 -0.0482 0.44082-0.10626 0.66514 2.1154 0.92293 4.4887 1.2476 6.6877 1.4405 1.3745 0.12105 1.9029-0.43292 0.50279-0.55887"/>
   <path d="m42.899 230.69c-0.7409 3.2578-6.0108 4.409-6.9219 0.63956-0.0198-0.0798-0.03445 1.0597 0.0738 1.6805 2.0033 2.5612 6.0728 1.0321 7.2535-1.594z"/>
   <path d="m47.839 240.16c0.3798 5.2286-7.9836 7.4158-9.3768 3.547-0.0413-0.11519-0.064 0.79109 0.0403 1.288 2.6261 2.7904 9.366 1.1571 9.9652-3.7832-0.21844-0.34537-0.42899-0.69562-0.62873-1.0518"/>
   <path d="m56.124 250.2c-0.10429-0.14754-0.79797-0.17208-0.69859-0.0223 4.2515 6.4437-5.938 13.188-9.9032 8.0131-0.0492-0.063 0.54214 1.0144 0.88061 1.5989 5.7806 3.2686 13.608-4.1039 9.7212-9.5903"/>
   <path d="m66.327 258.32c-0.3424-0.1534-0.94752-0.62872-0.87766-0.53526 5.5897 7.4532-3.1426 15.087-9.3532 12.575 0.21549 0.27944 0.75369 0.53623 0.96917 0.82255 5.7914 1.2545 14.368-4.5752 9.2617-12.862"/>
   <path d="m79.397 270.45c-0.17808 5.0259-4.2279 9.3315-7.894 8.4667-0.17711-0.0393 0.48016 0.63858 0.93079 0.76256 6e-3 0 0.0117 9.8e-4 0.0187 9.8e-4 3.5894 0 7.3627-3.5146 7.4503-8.9576 0.0276-1.7101-0.44474-2.0013-0.50574-0.27249"/>
   <path d="m78.03 262.68c-0.41424-0.0619-1.2575-0.34733-1.2152-0.32273 0.90816 0.52739 1.8291 2.3378 2.1272 3.6641 0.34142 1.5143 0.918 1.1866 0.55789-0.35321-0.25188-1.0745-0.75369-2.1578-1.47-2.9882"/>
   <path d="m16.613 206.27c-5.4126 4.5605-6.2676 12.385-2.1095 17.319 3.5726 4.2407 12.241 5.2305 17.06 1.2525 6.0177-4.9688 7.9462-14.123 3.4605-19.866-3.4585-4.4306-12.195-3.9416-18.411 1.2948m-0.42604-0.59625c6.8973-5.7904 16.054-5.325 19.353-1.101 4.0528 5.1912 3.549 15.902-3.5087 20.95-6.7753 4.8458-14.964 2.5179-18.18-1.3745-4.7701-5.7756-3.062-13.942 2.3358-18.474"/>
   <path d="m115.02 55.275c-9.6533-0.47033-13.682-16.347-6.4152-22.634 0.0284-0.29714 0.0502-0.59429 0.065-0.89144-8.7048 6.488-3.9062 24.303 6.8038 24.357-0.15536-0.20667-0.37586-0.59332-0.45359-0.83142"/>
   <path d="m98.326 62.699c-1.1689-8.8337 2.2384-18.211 6.4142-24.168 2e-3 -0.26971 0.44965-1.6864 0.64054-2.1125-6.0403 7.1285-8.6487 18.02-7.8016 25.37 0.35915 3.1171 0.54214 3.1338 1.3106 1.2584 2.1587-5.2669 5.3781-9.6798 7.9973-12.535 0.0533-0.058-0.37586-0.82451-0.4831-0.70742-2.6606 2.8858-5.875 7.5457-8.078 12.894"/>
   <path d="m161.95 35.438c-0.20555-1.2083-0.73695-3.0147-1.5379-4.5024-0.0432-0.0251-0.75172-0.3975-1.0754-0.53132 1.0626 1.5979 1.8498 3.9327 2.0426 5.2807 0.0167 0.12495 0.10627 0.22926 0.2262 0.2658 2.8691 0.88748 2.8829 3.8412 1.0685 3.9347-1.4168 0.072-7.834 0.26273-8.6113 0.36897-0.16149 0.0223-0.21253 0.10515-0.21253 0.26859 0 4.8232 3.8905 8.6388 6.9101 9.4476-2.0377 8.6575-19.684 6.7418-20.849-0.62088-0.0279-0.17822-0.79402 0.0223-0.76646 0.20081 1.1974 7.5693 19.568 10.575 22.179 0.69368 0.17822-0.67398-0.0112-0.87962-0.54412-1.04-2.6733-0.79796-6.1879-4.1541-6.3443-8.3929 0.81667-0.0759 6.8767-0.11519 8.3043-0.18798 2.2502-0.11519 3.3188-3.7635-0.78912-5.1853"/>
   <path d="m157.23 41.839c-0.12495-0.30895-0.25576-0.61497-0.39555-0.91702-0.063-0.0522-0.12188-0.10822-0.18491-0.15954-0.123 1.467-0.21448 4.2811 0.0404 6.1426 0.25492 0.14169 0.48212 0.5697 0.72022 0.74287-0.28239-1.3342-0.27054-3.9908-0.18017-5.8091"/>
   <path d="m160.71 40.573c-0.51065 0.89635-1.4523 2.2866-2.0112 2.8534-0.2195 0.22229-0.35028 0.23205-0.51656-0.0326-0.39454-0.63265-0.98098-2.0888-1.2329-2.7127-0.0279-0.0689-0.74482-0.29126-0.68678-0.14754 0.63365 1.5713 1.226 2.8209 1.5546 3.2814 0.50773 0.70942 0.69172 0.61791 1.1414 0.0867 0.67791-0.80092 1.7789-2.3162 2.3584-3.3217-0.20277-3e-3 -0.40439-3e-3 -0.60707-6e-3"/>
   <path d="m149.02 31.453c0-2e-3 -0.40244 0.72318-0.58052 1.039-0.0404 3.6868-2.4883 7.9117-7.6854 8.0642-4.836 0.14754-10.432-3.9249-11.096-9.67-0.17711 0.0522-0.35422 0.27054-0.51754 0.36406 0.8737 6.668 7.224 9.8983 11.573 9.7753 5.5926-0.16427 8.8464-4.8222 8.3063-9.5726"/>
   <path d="m145.74 38.987c-2.1823-2.5592-10.141-2.1853-12.201-1.0006 0.14866 0.12886 0.46441 0.53327 0.53327 0.50276 3.1791-1.4158 9.4791-0.98292 11.165 0.74879z"/>
  </g>
  <path d="m126.98 24.554c-1.0813 1.2122 0.18798 2.1371 0.97704 1.8055 2.1243-0.89242 6.0157-1.1561 7.9442-0.91309 0.25882 0.0324-0.0432-0.95637-0.52443-1.5152-2.1893-2.5415-5.083-3.0944-8.3968 0.62283" fill="#fff"/>
  <path d="m126.98 24.194c2.3299-3.9465 6.8697-3.3257 8.5247-0.33553 0.26858 0.48508 3e-3 0.73598-0.32078 0.28535-1.8626-2.5946-5.3584-2.8298-8.0554 0.42801-0.50575 0.61198-0.58543 0.36208-0.14866-0.37783" fill="#0f141b"/>
  <path d="m142.78 24.618c-0.33747 0.79009-0.20946 1.3548 0.40342 1.1679 2.2178-0.674 3.8304-0.92686 5.1853-0.44867-0.13471-0.27055-0.0907-0.17516-0.23512-0.43884-0.46145-0.0993-0.90815-0.17515-1.3332-0.2195 0.42506 0.0444 0.87176 0.11993 1.3332 0.2195-0.57854-1.0489-1.2358-2.0328-1.9609-2.935-1.0262-0.22424-2.7274 1.0981-3.3926 2.6546" fill="#fff"/>
  <g fill="#0f141b">
   <path d="m142.67 24.144c0.55297-1.6097 2.2364-2.5779 3.3808-2.4008 0.22425 0.0343 0.27752 0.73204 0.16038 0.63858-0.61399-0.48903-2.7511 0.71334-3.2804 2.2256-0.22536 0.64347-0.49197 0.21057-0.26078-0.46343"/>
   <path d="m128.12 26.027c1.7662-0.76942 5.1666-1.16 7.3883-0.83633 0.80387 0.11714 0.49687 0.49492-0.30895 0.37979-1.5526-0.22034-5.7402 0.28535-6.8973 0.83929-0.64249 0.30797-0.90224-0.0689-0.18213-0.38275"/>
   <path d="m157.7 36.942c0.46145-0.85307 0.55689-2.1233 0.24404-3.3926-0.47916-1.9354-1.717-3.4516-3.0954-3.1112-1.2329 0.30501-1.8872 2.1449-1.3765 4.2151 0.2234 0.90028 0.63465 1.7248 1.1601 2.3201 0.55296 0.62972 0.2036 0.88849-0.35226 0.25966-0.5815-0.6602-1.0922-1.465-1.3352-2.449-0.58445-2.3624 0.2195-4.7396 1.7406-5.1292 1.2732-0.32665 3.1033 0.99573 3.7861 3.7635 0.34732 1.4031 0.0639 2.7078-0.46639 3.6808-0.33748 0.6189-0.63463 0.45261-0.30501-0.1573"/>
   <path d="m77.08 68.203c-6.2341-14.274 5.6507-42.674 23.136-48.505-0.69169 0.0195-1.7435 0.1732-2.4362 0.18408-16.126 6.9593-27.663 33.504-21.464 48.297 0.72416 1.7278 1.0489 1.6756 1.4877-0.2036 5.1262-21.99 24.825-39.363 31.992-40.307 0.0669-0.22535 0.35126-0.734 0.41521-0.96128-6.9052 0.61692-27.526 16.784-33.131 41.497"/>
   <path d="m109.17 21.068c-23.97-8.1439-52.204 15.334-63.52 29.521 2.2935-24.852 37.043-45.453 57.532-40.564-0.23428-0.26357-0.45752-0.53623-0.67005-0.81469-21.094-4.2761-55.736 15.808-57.378 41.035-0.12397 1.9137-0.21646 2.2364 1.0449 0.72909 12.452-14.884 40.629-37 63.333-29.288 1.1227 0.38275 0.78122-0.23707-0.34242-0.61789"/>
   <path d="m48.68-6.0052c12.19-12.539 55.088-10.81 70.237 17.612 0.0826-0.32961 0.18798-0.94259 0.2301-1.2791-16.076-28.808-58.659-29.426-70.659-16.916-1.1492 1.1994-1.2762 1.4798 0.31584 1.223 21.648-3.488 54.672 10.373 61.703 23.707 0.74287 1.408 0.80484 0.48115-0.0413-1.0331-8.3014-14.846-41.227-26.981-61.786-23.314"/>
   <path d="m118.75 4.7791c-5.204-17.731-18.248-34.979-34.5-35.229-1.7966-0.02761-1.6973 0.18595-0.26775 1.0528 8.995 5.4559 16.7 14.812 20.896 25.048 0.26078 0.20661 1.4847 1.2722 1.5802 1.3627-4.0488-10.665-12.51-21.019-21.863-26.801 15.521 0.51164 28.65 17.863 33.734 35.187 0.41326 1.407 0.84322 0.81667 0.42112-0.61987"/>
   <path d="m138.52-44.233c-15.152 7.4158-22.051 25.806-21.609 44.716 0.29322 0.62775 0.72516 1.5162 0.90227 2.1833-0.97802-19.704 6.0649-38.777 20.677-46.156-8.078 9.2961-12.586 27.651-12.58 35.93 0.22146-0.40931 0.66417-1.2161 0.89044-1.6235 0.43-9.6425 5.9075-26.994 12.557-34.299 1.0794-1.1856 0.91802-1.6107-0.83731-0.75172"/>
   <path d="m176-34.08c-16.069-5.4401-54.684 11.339-57.344 47.898-0.12384 1.6953 0.33552 2.1951 0.47032 0.46636 2.7579-35.469 41.166-53.405 56.973-47.639-24.177 4.4109-41.972 28.177-46.611 51.179 0.24293-0.14949 0.65727-0.41228 0.91406-0.5382 4.9491-21.861 22.272-45.775 45.846-50.004 1.7839-0.31978 1.7563-0.68383-0.24795-1.3627"/>
   <path d="m208.17-1.7808c-16.891-13.327-58.254-13.744-75.299 9.2479-0.24684 0.66316-1.2781 3.057-1.0164 2.6586 15.879-24.187 58.16-25.051 75.631-11.611-25.386-6.1997-54.276 1.837-66.865 18.639 0.0251 0.0251 0.4516 0.44276 0.58445 0.5126 12.759-16.263 41.599-24.687 66.578-18.405 1.7337 0.43588 2.0957 0.30698 0.38668-1.042"/>
   <path d="m149.08 9.0301c-0.4349 0.38077-0.98688 0.97705-1.407 1.3736 25.716-9.9544 54.743 7.1187 58.256 22.08-16.848-19.602-53.854-14.834-60.247-11.092 0.15842 0.15926 0.60512 0.40637 0.75763 0.57068 6.8461-3.8934 41.915-7.8222 58.874 10.809 1.713 1.8813 1.6746 1.2919 1.1335-0.74089-4.1797-15.705-31.973-31.728-57.368-23.001"/>
   <path d="m159.74 18.741c-0.46834 0.0385-1.1059 0.11603-1.5762 0.13471 19.995 8.5031 29.868 35.2 28.128 43.435-6.1003-17.613-27.365-35.579-38.286-37.792 0.22341 0.25381 0.61201 0.7832 0.79305 1.0676 10.865 2.755 30.69 19.643 36.748 36.571 0.81173 2.268 1.1876 2.3604 1.4454 0.41423 1.343-10.136-8.6388-35.236-27.252-43.832"/>
   <path d="m19.112 213.18c-1.1591-1.407-2.2443-4.7524-1.7543-6.4516 0.33158-1.1512 1.407-1.4729 2.3919-0.93178 1.6422 0.90325 3.121 3.7084 3.5913 6.0915 0.15546 0.78716-0.23222 1.0292-0.42801 0.25185-0.52542-2.0967-2.0564-4.8744-3.4978-5.6664-0.58052-0.32077-1.2575-0.16148-1.4296 0.43686-0.42506 1.472 0.57264 4.7258 1.4788 5.9842 0.4103 0.56969 0.04329 0.76649-0.35224 0.28535"/>
   <path d="m18.054 215.95c-1.6225-0.35717-2.9596-1.101-3.6021-2.2197-0.64546-1.1236-0.37684-2.2443 0.75467-2.5415 1.2821-0.33553 3.2194 0.9062 4.2407 1.774 0.46736 0.39847 0.12102 0.72711-0.34831 0.32861-1.04-0.88554-2.8288-1.7091-3.7271-1.47-0.60413 0.15842-0.72318 0.94065-0.35323 1.5841 0.5382 0.93669 1.8911 1.8026 3.2971 2.1341 0.88258 0.20751 0.6061 0.60118-0.26173 0.4103"/>
   <path d="m131.64 25.136c0 0.13973-0.0251 0.2697-0.0669 0.38177-0.0195 0.0491-0.78223 0.14363-0.81371 0.0837-0.065-0.12886-0.1032-0.29026-0.1032-0.46539 0-0.41719 0.22034-0.75564 0.49196-0.75564 0.27166 0 0.49197 0.33845 0.49197 0.75564"/>
   <path d="m155.35 34.666c0 0.38473-0.2538 0.69663-0.56771 0.69663-0.31291 0-0.56775-0.3119-0.56775-0.69663 0-0.38472 0.25492-0.69662 0.56775-0.69662 0.31385 0 0.56771 0.3119 0.56771 0.69662"/>
   <path d="m28.76 215.29c-0.45359 0.33848-1.1561 0.18687-1.3942-0.13081-0.23713-0.31879-0.22237-1.0282 0.23219-1.3667 0.45359-0.33845 1.1738-0.17906 1.4119 0.13973 0.23713 0.31879 0.20369 1.0193-0.24993 1.3578"/>
   <path d="m20.533 207.46c-0.23121-0.34732-1.1699-1.1512-0.7163-1.4897 0.45359-0.33846 1.1138-0.26859 1.3057 0.0786 0.21448 0.39061-0.05411 1.1285-0.58937 1.4109"/>
   <path d="m145.15 24.819c0 0.41719-0.21448 0.75564-0.47916 0.75564-0.26357 0-0.47819-0.33845-0.47819-0.75564s0.21448-0.75565 0.47819-0.75565c0.26468 0 0.47916 0.33846 0.47916 0.75565"/>
   <path d="m134.99 29.597c-0.46834 2.1833-1.1738 3.8275-1.5703 4.0006-0.5215 0.22424-2.7009-2.9803-2.7668-3.0767-0.16428 0.0767-0.40932 0.13081-0.5697 0.21838 0.40046 0.58643 1.8232 2.3693 2.7009 3.1377 0.57659 0.50379 0.9436 0.42408 1.3264-0.31879 0.48013-0.93275 1.1453-2.5798 1.4434-3.9996-0.18799 0.0112-0.37586 0.0223-0.56379 0.0385"/>
   <path d="m149.22 29.871c-0.26664 1.1866-1.3785 3.0797-1.7888 3.0866-0.14364-0.0315-0.58936-0.45063-1.6707-3.4122-0.19579-0.0251-0.39256-0.0315-0.59034-0.0296 0.71532 1.9875 1.2043 3.0275 1.59 3.5402 0.47718 0.63267 0.66118 0.71531 1.2988 0.13388 0.75073-0.68383 1.4818-2.3359 1.6992-3.2981-0.17906-3e-3 -0.35912-0.0112-0.5382-0.0195"/>
   <path d="m145.69 29.276c-5.1076-0.45849-11.058-1.1315-16.244 1.5044-1.164 0.59231-1.3519 1.2141-0.22229 0.63069 5.0613-2.6143 11.415-2.1076 16.483-1.469 1.5536 0.19495 3 0.30205 4.22 0.3119 0.2301 0.95735 0.40832 1.9551 0.51559 3 0.92095 9.0029-4.9944 15.394-12.869 16.199-7.5624 0.77338-15.383-4.4139-16.323-13.61-0.99079-9.6848 4.9088-18.397 12.869-19.212 7.3283-0.75074 12.679 5.8534 14.062 9.0029 0.11519 0.26357 0.30108 0.53034 0.48706 0.5697 0.37094 0.0778 1.0449 0.29614 1.6274 0.90028 1.0754 1.1178 0.95147 2.4224 0.33849 2.446-1.3421 0.0482-3.0098-0.1004-4.9442-0.27444m5.1518-2.5228c-0.71727-0.76549-1.4375-1.0774-1.9806-1.1817-3.0049-6.0256-8.5857-10.385-14.821-9.7467-8.3122 0.85109-14.661 9.9829-13.634 20.02 1.2614 12.327 11.361 14.86 17.234 14.259 8.142-0.83338 14.522-6.4644 13.451-16.917-0.10125-0.99082-0.27835-1.9728-0.51459-2.938 0.0767-2e-3 0.15647-3e-3 0.23122-6e-3 1.1827-0.0432 1.4818-1.9433 0.0335-3.49"/>
   <path d="m148.49 25.657c-1.0567-0.49197-2.6182-0.43685-4.4394 0.0856-1.4552 0.41719-1.3824 0.0374 0.0778-0.45752 1.6343-0.55393 2.9252-0.75466 3.979-0.44767"/>
  </g>
 </g>
</svg>
