<?xml version="1.0" encoding="UTF-8"?>
<svg version="1.1" viewBox="0 0 360.58 409.5" xmlns="http://www.w3.org/2000/svg">
 <g transform="translate(0 -.25)">
  <path d="m190.45 156.05-2.1 11-4.55-10.35-15.9-10.15q-16.2-10.2-17.45-10.2t-5.8 6.85l-4.35 6.8 0.8 16.4-2.85-1.85 2.9 6.05-17.1 13.15-0.5-11.65-2.5 13.85-12.2 10.25q-1.95-0.9-1.65-11.7l0.7-10.6-0.85 4.85q-1.15 5.4-2.85 8.35-2.25 4-4.7 0.3-2.7-4.15-2.7-15.3 0-13.3 14.1-74.1 14.45-62.55 20.4-69.7 5.7-6.85 21.8-10.05 15.15-3.05 21.1-0.05 24.65 12.65 71.55 71.9 22.95 29.05 39.25 62.65 6.8 14 9.85 23.95 3.05 9.85 1.3 12.15-2 2.65-10.65-6.5l-10.75-12.25q13.2 17.85 15.3 23.45 0.95 2.5 0.1 3.55-0.6 0.7-2.65 1-2.7 0.4-8.5-4.7-7.35-6.5-8.85-7.3 5.45 7.25 3.8 8.55-1.15 0.95-6.85-1.2-3.95-1.5-42.5-30.7l-13.4-0.7 2.7 8.7-6.7-4.65-1.15 10.5-15.6-20.55" fill="#fff1ac"/>
  <path d="m170.85 70.2q3.45 3.65 1.35 9.85-1.7 5.1-7.8 13.25-5.7 7.55-10.25 9-4.8 1.5-5.15-4.95-0.15-3.55-4.85-12.1-4.5-8.15-7.7-11.35l17.1-1.85 17.3-1.85" fill="#dcd096"/>
  <path d="m195.8 48.5q-1.55-4.25-4.65-9.6l-3.3-5.5q-1.55-2.95 8.85 7.35 10.7 10.55 25 26.3 38.8 42.5 52.55 65.4 11.95 19.9 18.35 37.05 6.05 16.1 3.55 19.35-2 2.65-10.65-6.5l-10.75-12.25q13.2 17.85 15.3 23.45 0.95 2.5 0.1 3.55-0.6 0.7-2.65 1-2.7 0.4-8.5-4.7-7.35-6.5-8.85-7.3 5.45 7.25 3.8 8.55-1.15 0.95-6.85-1.2-3.95-1.5-42.5-30.7l-13.4-0.7 2.7 8.7-6.7-4.65-1.15 10.5-15.6-20.55-2.1 11-4.55-10.35-15.9-10.15q-16.2-10.2-17.45-10.2t-5.8 6.85l-4.35 6.8 0.85 20.6-17.1 13.15-0.5-11.65-2.5 13.85-12.2 10.25q-1.95-0.9-1.65-11.7l0.7-10.6-0.85 4.85q-1.15 5.4-2.85 8.35-1 1.8-2.5 1.7-1.55-0.1-2.9-2.1-3.4-4.95-3-16 0.25-7.55 8.55-13.9 4.15-3.15 8.25-4.85 1.75-0.65 4.1-3 4.7-4.7 7.8-13.3l0.9 5.15q0.55 3.5 1.35 2.25 1-1.45 3.55-4.1 2.5-2.6 2.15-1.95-0.4 0.75 0.25 3.6 0.65 3 1.75 3.25 0.75 0.2 6.9-4.8 6-4.9 6.85-4.5l17.5 8.6q15.2 7.55 16.9 8 1.5 0.4 1.4-5.35-0.1-5.55 1.05-4.75 1.6 1.05 7.25 3.35l7.3 2.7q1.4 0.45-1.8-6.4-3.35-7.2-3.05-7.35t7.6 1.45q6.65 1.5 5.75 0.55l-3.75-3.8q-3.05-2.9-5.75-4.4 8.35-10.1 5.9-25.5-2.2-13.75-14.6-39.1 10.7-0.8 5.9-14.05" fill="#dcd096"/>
  <path d="m70.35 154.2 10.6-25.3 21.5 10.95 11.4-10.4 12.8-11.5q1-0.8 2.8-6.35 2-6.05 2.85-7.25 1.25-1.75 5.35-3.05l7.85-1.85-8.3 12.55q-8.65 13.2-10.55 16.5t-3.05 11.05q-0.55 3.9-0.75 7.1l-11.75 10.75 6.85 0.2q-9.05 10.55-11.35 11.35-1.4 0.45-18.95-7.1l-17.3-7.65" fill="#e73820"/>
  <path d="m70.35 154.2 3.85-9.25q5.75 4.3 17.8 9.8 8.65 3.95 13.5 5.6 1.95 0.65 7.7-6.8 7-9.55 10.35-13.55-0.5 3.65-0.7 6.65l-11.75 10.75 6.85 0.2q-9.05 10.55-11.35 11.35-1.4 0.45-18.95-7.1l-17.3-7.65" fill="#c82e19"/>
  <path d="m189 63.05q-1.3-2.85-0.3-2.25 0.95 0.55 2.55 3.4l5.05 8.65 6.85 12-2.95 0.25-5.35-10.35-5.85-11.7" fill="#0d131a"/>
  <path d="m188.7 169.55q-0.45-0.35-3.55-6.45l-3.2-6.3q-28.8-18.75-31.3-19.6 0.1 0.5-4.6 6.3-4.8 5.95-5 6.7-0.25 1.05 0.3 9.45l0.6 8.2-1.8-1.15-0.05-0.05 2 4.15-18.45 14.3-0.05-11.5-2.1 12.9q-13.05 10.95-13.65 10.7-1.1-0.5-1.35-3.6-0.15-1.5-0.15-6.8l0.05-2.9q-0.95 3.45-2.6 5.25-1.45 1.5-2.65 1.15-2.4-0.6-4.25-6-1.85-5.45-2.1-13-0.4-11.3 10.75-60.15 11.15-48.7 19.55-72.45 2.55-7.2 6.25-11.55 3.85-4.55 10-7.2 8.65-3.7 18.55-4.55 10-0.8 15.25 1.75 24.75 12.1 72.25 72.1 19.85 25.2 35.4 55 11.05 21.1 14.4 34.35 2.75 11-0.35 12.5-1.75 0.85-4.6-1.25-2.6-1.95-8.1-7.85 11.25 13.75 6.95 16.7-4.25 3.05-14.05-5.85l-3.85-3.6q3.55 5.35 1.75 6.85-2 1.75-10.7-2.55-3.85-1.9-21.35-14.95l-19.15-14.5-11.5-1.2q-0.65-0.1 1.1 4.35l1.9 5.4q0 0.75-3.55-2.15l-3.9-3.05-0.15 5.25q-0.1 5.3-0.95 5.25-0.8-0.05-8.4-10.3l-7.4-9.8q-1.45 12.2-2.2 11.7m33.65-35.5q-1.35-1.15-1.05-1.5l1.6-0.25 10.35-0.15 2.75 1.65-5.35-0.05q-5.45-0.05-5.85 0.05-0.2 0.05 4.9 4.3 5.25 4.35 4.9 4.9t-7.3 0.85l-6.8 0.45 8.15 10.3q7.8 9.95 6.3 10.1l-7-0.35 21.95 16.7q12.5 9.35 15.85 11 4.4 2.15 6.3 1.25 2.3-1.05-2.45-6.65-1.85-1.4-18.3-17.65l-16.8-16.85q-3.1-3.55-2.45-3.65 0.65-0.05 3.8 2.95l41.55 39.5q3.85 3.5 7.1 5.2 3.4 1.75 4.95 0.95 1.8-0.95-0.75-5.5-2.95-5.4-14.55-21.05l-8.3-11.85q-7.85-11.5-5.5-9.55 2.2 1.8 9.2 11.6l9.3 12.85 8.5 9.55q5.45 5.55 7.6 5.5 0.4 0 0.6-0.3 1.55-2.05-1.5-11.7-3.1-9.8-9.8-23.6-16.35-33.7-39.1-62.45-46.75-59.2-71.3-71.7-3.65-1.85-13.3-1-10.05 0.95-18.25 4.2-5.35 2.1-9.05 6.4-3.75 4.35-6.1 11.25-6.4 19.2-15.5 58.45-15.1 64.9-15.1 73.75 0 7.8 1.95 12.45 1.45 3.4 3 3.8 1.15 0.3 2.05-1.5 1.6-2.8 2.6-7.65l1.1-6.2q1.35-6.85 2.15-6.6 0.8 0.2-0.75 7.75-0.7 3.1-0.7 12.95 0 7 0.95 8.3l11.45-9.7q2.05-12.4 3.1-16.8 0.45-1.95 0.7-1.7l0.35 1.9 0.25 13.3 15.45-11.9-0.4-4.45-2.65-2.4q-2.05-1.7-2.2-1.45-2.45 4.45-7 10.3-1.45 1.85-1.75 1.7-0.3-0.1-0.45-2.35l-0.2-7.65q0-0.7-0.2-0.75-0.15-0.1-0.8 0.4l-5.95 4.3q-2.55 1.8-3.2 1.35-0.5-0.35 0.2-2.7l1.35-4.95 0.55-3.05q-0.05-0.3-1.45-0.4l-3.75 0.1q-2.45 0.2-2.7-0.45-0.25-0.6 1.45-2.05l10.85-9.55q-0.15-1.35 0.6-7.3 1-7.5 2.75-10.1l22.7-33-3.15-7.65 1.25-1 1.2 2.45 2.4 6.35q1 3.15 0.55 3.7-0.5 0.55-1.45-2.3l-11.05 16.25-10.45 15.8q-3.05 4.6-3.35 15.85 0.8-0.35 1.6-0.75 1.35-0.55 0.3 0.65l-7.05 6.25-5.75 5.2 3.4-0.2q3.5-0.4 3.65 0.05t-1.05 4.3l-1.95 5.8q-0.3 0.9-0.15 1l1.05-0.45 4.15-2.9 3.1-2.35q1.2-0.95 1.5-0.7t0.3 2.15l-0.2 4.85q-0.1 3.25 0.25 3.25 0.35 0.05 3.75-5.65 3.45-5.8 3.75-5.95 0.6-0.35 5.65 4l-0.55-7.95q-0.35-5.35-0.15-6.1 0.45-1.35 3.6-6.05 3.55-5.3 5.75-7.2-1.25-0.95-0.65-1.3l2.15 0.1q3.85 1.15 15.9 8.85l16.85 11.05 0.1-1.15q0.35-0.6 1.4 2.2 3.05 7.95 3.45 8.2 0.2 0.15 0.95-4.7 0.75-5.1 1.05-5.6 0.35-0.6 7.65 9.55l7.8 10.8q0.45 0.4 0.7-4.4l0.4-5.45q0.15-0.45 2.8 1.75l3.1 2.4q0.25 0.05-1.3-3.8-1.6-3.85-1.05-3.85l21.15 0.75q0.2-0.2-7.1-9.65-7.2-9.25-6.45-9.35l7.15-0.45 6.2-0.75q0.15-0.3-3.55-3.4l-5.2-4.35" fill="#0d131a"/>
  <path d="m355.75 355-20.15 7 21.35 10.95-37.2-1.2 16.45 19.2-29.55-11.6 7.6 24.7-23.75-17.05 3.65 19.5-16.8-21.35-7 9.45-4.85-8.2-15.25 18.9 0.9-18.9-15.25 10.95 4.6-9.45-26.85 11.6 24.1-27.45-11.6 1.25 16.45-13.75-35.95-96.95q-1.35-3.45-22.45-26.75l-20.85-22.65-5.5 13.1-2.45-15.25-9.15 12.8 0.6-7.3q-35.35 31.1-36.9 32.6-0.9 0.95-0.1 2.8l1.65 3.65q3.4 0.5 9.6-4.75 5.5-4.65 5.95-3.8 0.95 1.65-3.2 16.55-4.2 15.05-6.85 18.8 2.3 12 7.3 29.95 2.55 8.95 4.6 15.5l35.95 13.1-25.3-0.9 13.1 8.85-19.5-4 11.9 9.15-20.15-5.15 9.75 12.2-25.9-7.05-1.2 10.1q-7.35-5.5-8.55-6.75-0.8-0.75-7.5 5.8-3.35 3.3-6.55 6.7l2.75-11.25-34.15 16.75 10.05-14.65-18.25 5.5 8.5-7.6-19.5 6.1 11.6-9.65q12.15-10.3 14.6-13.55 1.8-21 1.4-69.9-0.15-18.4 0.3-26.15 0.65-10.95 2.8-13.15 2.9-2.95 30-25.45l27.4-23 8.95-6.5 9.35-7.2q0.15-0.9-0.3-9.55-0.45-8.75-0.3-9.95 0.2-1.55 5.15-8.1l4.9-6.25q0.8-0.55 17.25 10.05 8.25 5.3 16.3 10.7v10.05l21.65 14.35 3.15 1.95q1.25 1.1 2.65 4.45 5.75 3.6 29.6 21 2.8 2.45 14.5 5.5l13.85 3.35q2.9 1 1.1 2.6-1.95 1.65-7.8 2.3-1.4 5.25-10 7.75-6.85 2.05-12.3 1.4 3.25 4.3 11.85 14.6 7.35 9.4 8.9 14.95l4.65-7.9q2.85-5.1 3.55-4.2 1.25 1.55 3.2 13.8 2.25 13.7 1.4 21.8 4.3 9.75 31.1 55.2l32.35 4.55-14.95 4.3 33.55 6.1" fill="#e73820"/>
  <g fill="#c82e19">
   <path d="m262.45 222.65q-1.4 5.1-9.6 7.65-6.5 2-12.2 1.55-14.55-15.3-27-42.35 8.45 5.7 27.15 19.4 2.8 2.45 14.5 5.5l13.85 3.35q2.9 1 1.1 2.6-1.95 1.65-7.8 2.3"/>
   <path d="m148.15 203.75q0 1.65-1.15 6.1-1.25 4.75-1.45 7.85l-35.6 31.45q-0.9 0.95-0.1 2.8l1.65 3.65q3.4 0.5 9.6-4.75 5.5-4.65 5.95-3.8 0.95 1.65-3.2 16.55-4.2 15.05-6.85 18.8l3.2 13.7-0.65 1.75q-0.8 2.7-1.9 4.15-3.85 4.95-11.3-3.95-2.05-11.1-3.9-27.7-1.65-14.9-1.65-19.65 0-1.3 1.25-2.65l7.05-6.75 11.5-10.25 14.55-12.8q4.8-4.25 8.75-9.4 3.6-4.6 4.25-5.1"/>
   <path d="m263.55 284.2q-4.4-12.4-8.75-34.1 4.85 6.75 6.1 11.25l4.65-7.9q2.85-5.1 3.55-4.2 1.25 1.55 3.2 13.8 2.25 13.7 1.4 21.8 2.2 5.1 14.25 26.2l-5.65 1.75q-2.45 0.4-3.45-0.55-9.35-11.4-15.3-28.05"/>
   <path d="m183.75 157.1v10.05l21.65 14.35-7.45-1.45-5.1-0.7q-6.2-1.8-24.75-15.2l-18.1-13q-1.15 0-4.3 3.45-2.75 3.05-5.2 6.6-0.5-9.15-0.35-10.5 0.2-1.55 5.15-8.1l4.9-6.25q0.8-0.55 17.25 10.05 8.25 5.3 16.3 10.7"/>
  </g>
  <path d="m143.7 144.55q2.85-3.9 6.5-8.2 0.45-0.3 9.85 5.55l-3.15 7.75-3.8 10.2q-2.25 0-5.9-6.45-3.5-6.15-3.5-8.85" fill="#f9be00"/>
  <path d="m144.7 148.2q-1-2.5-1-3.65 2.85-3.9 6.5-8.2 0.45-0.3 9.85 5.55-1.35 2.7-5.15 13.1-3.45-3.35-4.8-3.65-1.3-0.25-3 1.9-1.45-2.6-2.4-5.05" fill="#d7a400"/>
  <path d="m90.45 280.8 1.1-19.35 10.95 22.85 2.85-26.95 9.95 19.9 0.7 1.9 1 3.25q2.3 12 7.3 29.95 2.55 8.95 4.6 15.5l35.95 13.1-25.3-0.9 13.1 8.85-19.5-4 11.9 9.15-20.15-5.15 9.75 12.2-25.9-7.05-1.2 10.1q-7.35-5.5-8.55-6.75-0.8-0.75-7.5 5.8-3.35 3.3-6.55 6.7l2.75-11.25-34.15 16.75 10.05-14.65-18.25 5.5 8.5-7.6-19.5 6.1 11.6-9.65q12.15-10.3 14.6-13.55 1.4-16.6 1.5-40.4l-0.25-36.95 4.25 9.9 4.05 9.9 3.25-23.3 1.7-14.2 15.4 34.3" fill="#f9be00"/>
  <path d="m103.25 277.1 2.1-19.75 9.95 19.9 0.7 1.9 1 3.25q2.3 12 7.3 29.95 2.55 8.95 4.6 15.5l35.95 13.1-25.3-0.9 13.1 8.85-19.5-4 11.9 9.15-20.15-5.15 9.75 12.2-10.55-8.45q-10.75-8.55-11.65-8.9l3.75-0.25 6.1 0.05q0.95-0.1-2.5-3.5-4.15-4-4.5-5.2-0.65-2.25-4.95-22.55-4.6-21.9-7.1-35.2" fill="#d7a400"/>
  <path d="m114.6 270.4-2.4-14.8q3.45 0.5 9.25-4.75 5.15-4.6 5.6-3.8 0.85 1.45-2.95 15.25-3.85 13.85-6.7 19.5-1.45-3.85-2.8-11.4" fill="#958e80"/>
  <path d="m269.1 249.25q1.2 1.45 3.1 13.15 2.15 13.05 1.6 21.3-3.15-5.1-6.75-11.75-3.7-6.7-5.75-11.1l4.45-7.75q2.65-4.7 3.35-3.85" fill="#958e80"/>
  <path d="m355.75 355-20.15 7 21.35 10.95-37.2-1.2 16.45 19.2-29.55-11.6 7.6 24.7-23.75-17.05 3.65 19.5-16.8-21.35-7 9.45-4.85-8.2-15.25 18.9 0.9-18.9-15.25 10.95 4.6-9.45-26.85 11.6 24.1-27.45-11.6 1.25 16.45-13.75-20.65-56.35 11 12.35-3.5-48.8 29.75 38.6-4-23.6 16.85 18.5-2.15-21.95 1.2 1.9 2.7 3.6 0.75 1.7 0.75 1.65q4.25 9.75 29.5 52.9l32.35 4.55-14.95 4.3 33.55 6.1" fill="#f9be00"/>
  <path d="m355.75 355-20.15 7 21.35 10.95-37.2-1.2 16.45 19.2-3.15-1.2-17.15-16.15q-9.9-9.05-9.9-9.65 0-0.55 7.7-1.1 8.1-0.55 8.9-1.1t-10.5-3.95q-12.3-3.7-13.55-4.95-3.15-3.15-14.3-22.35-13.1-22.55-17.4-35.95l5.2 5.7-2.15-21.95 1.2 1.9 2.7 3.6 0.75 1.7 0.75 1.65q4.25 9.75 29.5 52.9l32.35 4.55-14.95 4.3 33.55 6.1" fill="#d7a400"/>
  <path d="m178.5 2.85q1.2-0.95 2.55-0.7 1.4 0.2 1.2 1.35l-13.6 22.15q-14.7 23.45-18 29.4 2.55-2.95 14.85-11.3 6.15-4.15 11.75-7.75l-3.45 15.3 13.45 0.95-17.5 14.65 10.3 8.15q0.5 0.3-5 0.1-6.85-0.25-8.75-0.1-1.7 12.7-7.5 15.6-3.05 1.5-5.5 0.95-2.25-0.5-2-1.85 0.85-0.85-1.8-4.5-2.55-3.5-4.15-4.25-0.35 1.05 0.2 3.65l0.45 3.2q-0.2 0.85-5.4 0.9l-7.1-0.25q-1.55-0.2-2.95-2.8l-1.1-2.55-3.15-2.15-3.7 0.9 2.45-4.65-11.55-6.9 5.35-3.95-10.05-10.4 4.05-0.35-13.6-11.5q-13.7-11.75-14.5-13.15-0.9-1.6 0.1-2.9 0.95-1.35 2.1-0.55l24.15 18.1 21.15 15.95q44.65-57.5 46.25-58.75" fill="#e73820"/>
  <path d="m165.5 43.75q6.15-4.15 11.75-7.75l-3.45 15.3 1.9 0.15q-0.35 5.55-1.9 12.05l-4.05 3.4 2.6 2.1-1.85 6q-2.75-0.1-4.2 0.05-1.7 12.7-7.5 15.6-3.05 1.5-5.5 0.95-2.25-0.5-2-1.85 0.85-0.85-1.8-4.5-2.55-3.5-4.15-4.25-0.75 2.8 0.3 4.7l1.05 2.15-4.15-0.3q-4.1-0.85-4.25-2.1-0.3-2.75-0.15-7.65 0.2-6.65 1.35-9.5 1.3-3.45 9.4-15.15 8.25-11.95 12.4-16.25-5.85 9.55-10.65 18.15 2.55-2.95 14.85-11.3" fill="#c82e19"/>
  <path d="m161.45 75.05q-0.15 4.25-2.7 8.75-3.05 5.35-7.45 6.15v-0.2q0.85-0.85-1.9-4.7-2.65-3.65-4.25-4.45l1.85-2.4q2.45-2.6 5.55-3 1.15 0.7 2.8 3.4 1.5 2.35 1.75 2.3 0.55-0.15 3.05-5.85h1.3" fill="#922f00"/>
  <path d="m161.45 75.05q-0.1 1.95-0.8 4.35-0.8 2.6-2.15 4.8-3.3 1.2-5.9-0.45-3-1.85-4.15-6.85 1.85-1.45 4.1-1.7 1.15 0.7 2.8 3.4 1.5 2.35 1.75 2.3 0.55-0.15 3.05-5.85h1.3" fill="#ed8599"/>
  <path d="m163.5 54.05q-0.25 7.7-4.35 10.05-3.9 2.25-7.45 0.9-3.15-1.2-3.9-4 0.2-0.95 2.05-4.25l1.85-3.1 10.8-7.75q1.2 1.95 1 8.15" fill="#f9be00"/>
  <path d="m151.85 53.2q3.6-2.25 7.15-4.55 0.6 2.35 0.45 5.65-0.2 5-2.7 6.55-2.1 1.25-4.45 0.5-2.25-0.7-3.3-2.6 0.1-1.1 1.5-3.45l1.35-2.1" fill="#007bba"/>
  <path d="m79.3 158.2-8.95-4 10.6-25.3 19.75 11.2q3.5 6.45 2.25 13.45-1.25 6.75-6.65 11.95l-17-7.3" fill="#b6ae9c"/>
  <path d="m79.3 158.2-8.95-4 10.6-25.3 19.75 11.2q1.2 2.15 1.85 4.6l-6.15 1.2-3.9 0.55 7.35 6.35-2.3 0.05-4.55 0.8 4.3 2.7 4.15 2.35q-0.8 2-2.1 3.6l-3.05 3.2-17-7.3" fill="#958e80"/>
  <path d="m183.45 98.25 4.75-11.3 5.7-0.8 9.4-1.05q3.05-0.25 6 3.45 1.45 1.8 2.3 3.7l30.6 18.15 16.6-14.35 14.75 25.65q-11.7 9.85-19.25 14.75-4.4 2.85-24.9-5.95l-15.2-6.6q-7.75-3.2-10.5-3.3-1.45 2.8-2.55 5.85l-0.85 2.45-8.3-5.95q-8.9-6.8-11.75-11.05-1.3-1.95 3.2-13.65" fill="#e73820"/>
  <path d="m255.9 135.35q-7.7-4-10.2-8.7-3.15-5.9-1.9-17.75l15-12.85 14.75 25.65q-10.15 8.55-17.65 13.65" fill="#b6ae9c"/>
  <path d="m273.55 121.7q-10.15 8.55-17.65 13.65-4-2.05-6.35-4.05 5.65-7.55 7.1-15l-6.6-0.9-6.6-1.7q0.1-2.45 0.35-4.8l15-12.85 14.75 25.65" fill="#958e80"/>
  <path d="m183.45 98.25 4.75-11.3 2.4-0.3q-2.6 3.95-4.6 12.05-2 8.05-0.8 9.65 1.85 2.5 6.3 5.7 5.1 3.7 5.3 1.05 0.15-2.45 21.75 6.15l24.55 10q2.35 0.65 3-0.7 0.8-1.45 1.3-1.45 1.85 2.3 3.9 3.65l4.65 2.6-1.65 1.1q-4.4 2.85-24.9-5.95l-15.2-6.6q-7.75-3.2-10.5-3.3-1.45 2.8-2.55 5.85l-0.85 2.45-8.3-5.95q-8.9-6.8-11.75-11.05-1.3-1.95 3.2-13.65" fill="#c82e19"/>
  <g fill="#fff">
   <path d="m4.8 114.9q-0.6-1.55 0.95-5.1 1.5-3.4 2.5-3.75 0.8 1.3 1.95 5.85l-2.15 0.8q-2.3 1-3.25 2.2"/>
   <path d="m28 78.4q1.35 0.45 3.45 2.6 2.75 2.8 2.35 5.2l-3.2-1.25-1.7-0.55-0.9-6"/>
   <path d="m58.05 85.6q0.7 1.7 0.55 5-0.25 3.45-1.3 4.1l-1.7-3.2q-0.95-1.85-2.2-2.05 0.4-0.9 2.55-2.45l2.1-1.4"/>
   <path d="m318.85 44.6q-1.55-0.3-4.1 0.5l-2.2 0.8q-1.85-6-2.1-7.55 0.95-0.4 4.35 2.05 3.5 2.5 4.05 4.2"/>
   <path d="m265 28.55 0.95 6.3q-3.95 0.8-5.6 2.3-1.25-2.55 0.55-5.4 1.7-2.65 4.1-3.2"/>
   <path d="m245.5 52.05 2.55 0.75q2.65 0.9 3.3 1.7-1.25 0.6-2.15 3.25l-1.4 4.2q-1.2-0.3-1.9-4.25-0.65-3.45-0.4-5.65"/>
  </g>
  <path d="m149 59.05 2.85-5.85 6.45-4.4 1.05 4.05q-2.5 1.25-5.7 3.1-3.6 2.15-4.65 3.1" fill="#00669b"/>
  <path d="m162.5 45.9 0.7 2.6 0.35 2.6q-1.65 0.55-4.2 1.75l-1.05-4.3 4.2-2.65" fill="#d7a400"/>
  <g fill="#0d131a">
   <path d="m159.6 142.15 1.35 0.6-2.8 7.3q-2.85 7.7-3.4 10.2-0.4 2-1.3 1.8-0.6-0.2-2.65-2.25-1.85-1.85-4.75-7.2-2.95-5.5-2.95-7.35l0.85-0.9q0 1.1 4.4 8 4.35 6.85 4.55 6.3l6.7-16.5"/>
   <path d="m104.55 255.35q0.25-1.85 5.95 10.1l5.65 12.35q1 4.9 0.4 4.15l-5.5-11.15q-5.1-10.4-5.2-9.6l-1.15 13.1q-1.1 12.2-1.55 12.9-0.4 0.65-5.8-10.9-5.35-11.4-5.4-10.95l-0.4 9.55q-0.35 8.65-0.85 8.75-0.4 0.1-7.95-16.75-7.35-16.3-7.3-15.25 0.05 1.15-1.85 15.25l-2.15 16.9q-0.2 2.9-0.85 2.45-0.4-0.3-1.3-2.35l-3.85-9.35-3.45-8.65q-0.1-1.35 0.05-2.1 0.25-1.45 1.4 1.6l6.15 15.25 4.25-34.6 0.3-3.5q0.35-0.95 1.85 2.95l6.85 16.55 6.75 15.45 0.55-11.7q0.5-8.15 1.25-6 1.25 3.6 10.75 22.1l2.4-26.55"/>
   <path d="m268.15 250.4-1.15 2.5q-3.6 6.6-4.75 8.1l3.5 7.35 7.4 13.5v-1.6q0-7.65-1.5-16.95-1.15-6.85-2.35-11-0.7-2.45-1.15-1.9m-15.2-21.55q6.95-2.7 8.4-5.85-9.05-0.3-16.05-1.85-6.5-1.4-8.15-3.05l-0.5-0.75 2.5 0.8q7 2.05 17.35 2.85 9.95 0.8 12.25 0.05 3-0.95-7.7-4.25l-19.8-5.85q-9.55-2.65-13.3-4.7-3.75-2 10.45 1.9-1.2-1.35-10.1-7.2-10.4-6.8-14.15-9.75 4.95 8.8 13.3 21.25 7.1 10.65 13.1 18.6 5.45 0.5 12.4-2.2m-140.4 27.6q0.7 2.05 2.7 11.9l2.45 11.75q2.25-4.55 5.25-15.4 2.7-9.65 3.05-13.05 0.3-3-0.25-3.35-0.6-0.35-2.75 1.9-1.95 2.05-5 4-3.4 2.15-5.45 2.25m221.15 105.4q-0.65-0.4 7.6-3.05l11.45-3.6-30.7-5.55q-2.4-0.4-2.4-0.7-0.05-0.3 2.35-0.8l5.45-1.45 6.05-1.85-26.3-3.85 0.2 1.8q-0.4 1.1-3.25-2.35t-25.4-44.25l-21.95-40.05q-1-2-5.85-7.95l-10.7-13.3q-16.4-21-25.9-39.15-3.2-6.15-6.7-10.05-4.25-4.85-10.3-8.15-6.25-3.45-16.25-10.75-2.6-1.95-2.5-2.5 0.05-0.5 2.7 0.65l1.7-7.45q-10.55-7.05-19.5-12.7-11.1-7.05-12.95-7.65-3.35 4.05-6.15 7.95-3.35 4.6-3.5 5.7l-0.05 1.15 0.4 8.95 0.3 8.2 0.45 0.05q0.8-0.45 1.25-0.55 0.85-0.15 0.1 0.6l-3.5 2.6q-3.5 2.25-13.35 10.1-12 9.5-26 21.5l-21.85 18.35q-11.45 9.55-13.05 11.15-1.7 1.75-2.4 10-0.55 6.65-0.55 19.55l0.2 33.9-0.25 24.7q-0.25 14.15-0.7 18.9l-0.3 4.1q-0.2 1.6-0.75 2.6-0.95 1.55-0.8-3.55-3.15 4.05-22.2 19.75l15.8-4.95 2.25-0.75q0.4 0.05-1.55 2.05l-3.15 3-2.85 2.35 6.95-2.35 7.65-2.5q4.7-4.75 4.55-3.65-0.15 0.85-2.05 3.4l-9.65 14 18.25-9.45q14.85-7.6 14.8-6.75l-2.45 10.1q7.8-8.2 10.15-10.1 2.05-1.7 2.55-0.9l3.65 2.9q3.7 2.95 4.2 3.5 0.45 0.5 0.55-4.25 0.15-5.1 0.6-5.4 0.6-0.35 11.25 2.75l13.3 3.9-6-6.95q-4.3-5.05-3.75-5.2 0.55-0.2 7.9 1.8l10.85 3-4.8-3.9q-2.7-2.2-4.15-3-1.65-0.9-1.25-1.25l1.85-0.05 6.7 1.3 9.1 1.9-5.5-3.9q-3.55-2.55-6.65-4.3-3.65-2.05-1.7-1.8 1.8 0.3 5.3 1.9l19.55 0.7-28.3-10.35-0.35 1.75q-0.75 0.9-2.45-3.25-2.3-5.55-5.85-17.45-4.3-14.6-6.75-27.2l-2.95-14.6q-2.4-11.8-4.9-17.85-2.35-4.9 0.55-2.55l17.5-15.35 19.4-16.85 0.85-6.25 0.8-5.3-8.2 7.75-1.55 1.3q-0.25-0.15 0.3-1.95 1.25-4.45 4.05-9.4l4.55-7.4q-7.55 4.1-13.35 8.7-2.65 2.05-2.8 1.45-0.1-0.3 0.95-2.8 1.7-3.95 6-9.35 6.3-7.85 13.25-11.05 2.1-0.95 1.8-0.5-0.25 0.4-2.15 1.5-8.7 5.25-15.3 17.1 10.35-6.3 13.5-7.7 1.2-0.6 1.1-0.3l-0.95 1.35q-0.8 1.15-3.6 6.45-3.1 5.9-4.55 9.3l4.35-4.2 3.15-2.75q1.75-1.4 1.75-1.05l-0.65 2.4q-0.5 1.95-1.2 7.3-0.75 5.5-1 9.4-0.1 1 0.25 0.8l1.6-1.85q3.35-4.65 5.7-9.05 1-1.95 1.2-1.1l1.15 7.9q0.9 6.55 1.15 6.55 0.65 0.05 2.6-6.3 2.25-7.25 2.9-8.4 0.95-1.7 0.7 0.85l-0.45 2.95 21.5 23.4q20.55 22.8 21.95 26.25 36.95 97.7 37.55 100.35 0.4 1.7-1.4 0.1l-1.85-1.9-13.1 11.4 7.05-1.2q4.55-0.8 4 0.05l-10.6 12.15-12.55 14.2 14.75-6.8q11.1-5.05 10.85-4.25l-4.15 8.6 8.3-6.3q5.75-4.35 5.8-3.85l-0.9 18.15 8.05-10.4q6.25-8.05 6.45-7.55l4.85 8.2 2.5-3.9q2.15-3.35 3.15-4.5-0.8-2.6-0.65-2.95 0.25-0.4 1.9 2l7.5 9.7 8 10-2.2-10.6q-1.55-7.45-1.25-7.7t10.75 7.4l12.75 9.45-4.25-13.2q-3.35-10.55-3.2-10.85 0.25-0.45 28.2 11.05l-15.6-18.2q-2.85-3.15-1.5-2.5 1.3 0.6 2.95 2.3l17.55 0.55 16.55 0.8-19.9-10.25m2.9-18.45q4.7 0.85 4.6 1.3-0.05 0.3-3.35 1.25l-5.7 1.25-6.6 1.5 17.6 2.9q14.05 2.35 15.55 3.15t-8.6 3.8q-11.15 3.1-12.55 3.6l10.15 5q8.35 4.2 9.6 5.15 1 0.75 3.15 1.85 0.8 0.7-3.2 0.55l-19.15-1.15-16.65-1 7 7.85q6.1 6.85 8.35 10.05 2.55 3.65 2.35 3.75l-3.6-1.45q-2.3-0.9-14.45-6.3l-13.25-5.8 5 14.15q4.15 12 2.8 11.2-3.05-1.85-24.05-17.3l1.8 8.15q1.4 6.55 1.5 9.5l-0.15 3.4-2.15-2.3q-1.55-1.6-8.1-11l-7.1-10.05-3.15 6.15q-2.55 5.15-3.15 5.05-0.6-0.05-2.9-4.4l-2.8-5.5-8 11q-7.25 9.7-8.05 8.9-0.75-0.85-0.05-9.35l1-10.35-9.25 7.45q-7.6 5.9-7.15 4.4 0.5-1.5 2.35-5.2l2.65-5.15-24.45 11q-3.5 1.55-3.9 1.4-0.6-0.2 1.75-3.45 2.05-2.85 12.2-13.5l11.4-11.85-6.7 0.8q-5 0.45-6.4 0.15t7.75-7.25l10-7.45-35.6-96.65q-1.8-4.7-41.55-47.2l-2.8 7.3q-2.4 6-3.1 6.35-0.7 0.4-1.7-6.15l-1.25-8.7-4.9 7.25q-3.75 5.25-4.05 4.15-0.6-1.95-0.3-6.3-35.25 30.95-35.1 31.15 0.75 1.25 1.9 4.25 1.35-0.05 4-1.6 2.7-1.55 4.8-3.45 4.65-4.25 6.15-4.4 1.55-0.15 1.2 3.85-0.85 9.15-4.25 19.85-3 9.4-5.65 13.55 2.1 11.05 7.4 27.5l5.6 16.6 14.4 5.6q14.6 5.75 18.7 7.65 3.65 1.65 3.1 2.05l-3.5 0.15-21.9-1.15 5.6 3.35q3.75 2.15 5.15 3.3 1.9 1.55 1.9 2.15l-2.3-0.05-7.65-1.7-8.65-1.65 5.05 3.65q3.05 2.2 4.25 3.5 1.6 1.8 1.5 2.15-0.1 0.45-2.45-0.35l-8.75-2.6-8.9-2.45 5.5 6.3q4 4.65 4.3 5.9 0.3 1.3-12.85-2.75l-14.45-4.6q-0.1 0.7 0.1 3.9l0.15 5.4q-0.1 2.3-0.55 2.4-0.2 0.05-1.45-0.95l-4.4-3.65-4.55-4q-0.8 0.2-4.7 4.55l-7.35 7.7q-3.25 3.05-3.65 2.35-0.25-0.4 0.7-2.85 1.3-3.15 2.9-9.85-1.3 0.65-18.7 9.8-16.7 8.55-16.6 7.5 0.1-1 4.6-7.2l5.9-8.05-8.3 2.8q-6.1 2.1-8.55 3.15l-2.3 0.1q0.2-0.85 2.15-2.45l2.9-2.5 3.05-2.8q-11.15 3.5-16 5.35-2.45 0.95-2.25-0.2 0.15-0.9 1.5-2.1l11.35-9.75q11-9.55 13.55-12.8 0.75-9.3 1.15-41.3l0.2-33.8q0-15.65 0.4-21.9 0.6-10 2.5-11.95 4.5-4.55 34.05-29l21.95-18.15q1.95-1.5 10.95-7.85l9.95-7.15v-0.65l-0.35-8.2-0.35-8.95 0.05-1.4q0.3-2.35 10.25-14.75l0.1-0.1q0.7-0.5 5.15 1.95 8 4.5 29.3 18.75l1.3 3.65-0.4 1.9-0.65 4.4q4.1 3.8 15.95 10.65 4.35 2.5 7.1 4.85 3.55 2.95 5.45 6.25l14.5 9.8 15.25 10.8q17.55 4.6 24.9 8.05 4.9 2.3 4.55 3.65-0.35 1.5-2.75 2.2l-6.4 0.7q-7.65 10.3-20.5 9.95l4.35 5.55 8.4 9.8q4.4 5.5 5.9 9.6l4.85-8.8q1.8-3.5 2.8-3.35 1.7 0.2 4.25 12.85 2.75 13.7 3.15 26.95 4.2 9.45 29.6 51.9l30.8 5.6"/>
   <path d="m254.4 283.25q-0.55-2.75 0-2.8 0.4-0.05 2.35 2l14.4 15.7-3.3-24.45 2.7 4.85q3.6 24.7 2.7 24.1l-7.65-8.2-9.2-10.15 4.75 21.25q0.8 3.85 0.05 3.3l-2.8-3.3q-2.25-2.65-15.55-19.5l-13-16.85q0.75 2.45 2.9 24.65 2.4 24.65 1.1 23.7-1.2-0.85-7-7.45l-5.55-6.45-1.05-4.15q11.75 14.25 11.6 13.6l-2.1-20.1-2.65-26.45q-0.35-3.45 0.6-3.5 0.9-0.1 3.35 3.05l14.85 19.85 12.7 16.95-4.2-19.65"/>
   <path d="m138.35 84.8q-0.15-0.5-0.05-1.3 0.1-1 0.6-1.55 0.55-0.6 0.7-0.2 0.2 0.35-0.15 1l-0.6 1.9-0.3 0.55-0.2-0.4"/>
   <path d="m160.5 75.7q-2.6 5.8-3.2 6.25-0.35 0.25-2.45-2.75l-2.4-3.5q-2.9 1.65-4.1 2.4-1.9 1.2-2.45 2.35 1.45 0.8 3.7 3.65 2.35 3.05 2.6 4.7l0.05 0.4-0.2 0.75 0.3 0.45q0.6 0.45 2.9 0.6l3.75-0.5q4.75-2.35 6.45-14.95l-4.95 0.15m-40.65-9.6-2.4 2.35q-2.45 2.05-2.05 2.15l5.65 3.2 5.05 3.15-2.45 4.2 2.75-1 1.85 1.05-1.75-8.35q-1-4.85-1.35-5.35l-5.4-4.7-7.5-6.45-1.4 0.4 4.5 4.7 4.5 4.65m61.3-63.65q-1.2-0.2-2.6 1.5l-38.65 48.85-5 6.4-3.35 4.4q-0.55 0.45-0.5-0.6l0.2-1.15-22.05-16.6-22.7-17.05q-0.95-0.65-1.4 0.5-0.4 1.15 0.3 1.9l19.5 17.3 20.15 17.65 1.55 1.55 0.85 3.05q2.55 12.1 3.5 14.9 0.95 2.7 2.6 2.9 4 0.5 8.65 0.2l4.1-0.6-0.75-0.9-0.95-1.05q-0.6-3.1 0.1-6.1 0.25-1 2.75-2.6 2.05-1.35 3.75-2.05 1.45-0.6 1.95-0.5 0.45 0.05 0.9 0.9 1.55 2.85 3.05 4.8l2.75-5.45 4.45-0.3 13.75 0.2-6-4.45q-3.8-2.85-3.5-3.1l8.8-7.1q8.4-6.85 7.95-7l-12.45-0.85q4.05-14.45 3.25-14.35-0.8 0.05-11.6 7.5-11.3 7.75-13.55 10.3l-1.6 1.55q-1.2 0.9 0.65-2.3t16.65-26.9l14.95-24q0.7-1.15-0.45-1.35m2.1-2.2q1 0.6 0.75 1.85l-0.9 2.15-12.6 20.75-15.35 25.25 12.2-8.95q5.9-4.15 8.95-6l2.8-1.65q0.65-0.05-0.4 2.4-0.35 0.95-2.15 7.65l-1.8 6.9 7.15 0.5 7.25 0.5-8.95 7.6-9.25 7.7q-0.3 0.35 4.15 3.55l5.35 3.95q1.1 1.05 1 1.3l-2.95 0.35-11-0.3q-0.75 5.45-3.1 10.15-2.2 4.4-4.45 5.5-1.35 0.7-4.75 0.5-3.55-0.15-4.5-1.15-0.3-0.35-0.25-0.85 0-0.45 0.3-0.7 0.75-0.5-1.45-3.65-2.1-3.05-3.55-4-0.25 2.4 0.45 4.2l1.05 1.25q0.7 0.6 0.3 1-1.1 1.25-5.05 1.75-4.25 0.5-10.25-0.1-1.7-0.2-2.7-3.05l-0.9-3.7q-2-0.75-2.45-1.05l-2.45 0.55-1.75-0.05q-0.35-0.3 0.05-1.35l0.8-2.05 0.8-1.75-10.45-5.5q-0.85-0.5-0.7-1l0.85-1.15 3.85-3.9-5.95-5.6q-4.65-4.5-4.15-4.7l1.8-0.2 2.05-0.1-0.1-0.05q-25.75-21.85-26.75-23.65-1.1-1.9-1.1-2.3 0-2 0.9-2.9 1.05-0.9 3.45 0.8 4.65 3.15 44.75 33.6l24.85-31.6 21.05-26.65q1.3-1.45 2.9-2l2.35-0.05"/>
   <path d="m160.4 81.8q-2.7 6.5-7.3 8.35l-1.85 0.25q-0.1-0.4 1.7-1.25 5.6-2.55 8.15-14.5l1-0.1q0.3 2.3-1.7 7.25"/>
   <path d="m157.65 85.5q-6.25 1.3-9.6-7.8l0.3-0.65q0.35-0.45 0.8 0.4 2.15 4.05 3.4 5.25 2.2 2.05 5.45 1.4l-0.35 1.4"/>
   <path d="m162.6 57.15q0.9-4.6-0.45-10.3l-9.4 6.8-2.55 3.9q-1.6 2.4-1.8 3.1 0.9 2.65 4.1 3.7 3.3 1.05 6.05-0.6 3.1-1.85 4.05-6.6m0.7-12q1.5 3.9 1.1 9.35-0.55 7.35-5.2 10.15-3.55 2.15-7.15 0.85-3.1-1.1-4.45-3.75-0.65 0.7-0.9 0.5-0.3-0.2 0.1-1.35 0.5-1.35 1.7-3.65 1.35-2.55 2.25-3.7 0.8-1.05 1.25-1.05 0.25-0.05 0.3 0.15l11-7.5"/>
   <path d="m151.95 60.9s1.8772 0.73178 3.8-0.1c1.5193-0.65722 2.2167-2.0667 2.65-4.2 0.46667-2.1667 0.33333-4.5333-0.4-7.1l-6.15 4.2c-1.6333 2.3-2.5333 3.8667-2.7 4.7 0.76667 1.2 1.7 2.0333 2.8 2.5m7.85-4.85c-0.33333 2.6667-1.433 4.5225-3.3 5.65-1.2853 0.7762-3.0782 0.6827-4.5 0.2-1.4226-0.48296-2.85-1.5667-3.45-2.9l2.8-5.15 7.6-5.45c0.83333 2.8 1.1167 5.35 0.85 7.65"/>
   <path d="m88.95 164-1.9-3.2q17.7 7.6 19.3 7.4 1.75-0.55 10.4-10.45l2.15 0.35-5.5 6.4q-4.7 5.15-6.15 5.65-1.65 0.55-18.3-6.15m48.75-61.95q-3.7 1.2-4.8 2.75-0.75 1.05-2.5 6.35l-1.7 4.85q-0.85 1.95-1.6 2.55l-9.15 8.75q-8.85 8.45-12.75 11.25l-1.55-0.8q20.8-19.05 22.5-20.4 0.55-0.4 1.3-2.65l1.3-4.2 1.2-4.3q0.7-2.4 1.25-3.2 1.9-2.7 9.15-4l6.85-0.7-1.65 2.35q-4.2 0.2-7.85 1.4"/>
   <path d="m98.85 139.2q-1-1.65 0-1.15l1.15 0.8q4.8 6.05 4.45 13-0.35 7.9-7.55 14.25l-1-1.15q6.45-5.65 6.5-13.6 0.05-6.25-3.55-12.15"/>
   <path d="m89.9 134.7q-0.95-2.1-0.2-1.65 0.8 0.4 1.35 1.55 3.3 6.5 2.25 14.65-1.1 8.35-5.85 10.8-2.35 1.25-3.25 1-0.85-0.3 2.3-2.15 4.75-2.75 4.95-12.5 0.2-7.95-1.55-11.7"/>
   <path d="m202.05 86-13.35 1.65q-3.3 7.3-5.55 13.65-2.45 6.8-2.45 9.25l0.2 0.95q3.9 5.85 18.95 16.2 1.6-4.4 2.85-7-2.05-1.1-3.15-1.4-1-0.25-0.85-0.7l1.8-0.1q5.15 0.9 11.05 3.25l11.4 4.9q13.35 5.85 18.3 7.6 9.8 3.4 12.6 1.55 6.3-4.05 18.7-14.25l-13.95-24.35-16.3 14.1-27.65-16.2q0.65 2.55-4.55-4.55-1.95-2.7-3.2-3.55-1.9-1.25-4.85-1m-14.75-0.45q1.35-2.25 2.45-3.05l0.85 0.05-1.1 3.6 5.45-0.95 9-1.25q3.85 0 6.65 3.65l3.1 4.5 14.5 8.8 14.05 8.35 16.65-15.1 16.7 27.75-0.5 0.4q-0.5 0.05-7.75 6.15-8.4 7.05-12.5 9.7-3.25 2.1-13.15-1.5l-19.5-8.45-10.6-4.5q-5.2-2.05-7.5-2.3-1.3 2.65-2.1 5l-0.55 1.85 1.05 1.2 1.6 2.25q0.5 0.85-1.15-0.2l-3.1-1.95q-3.2-1.75-9.3-6.3-8.5-6.35-11.4-10.7-1.45-2.2 2.1-12.8 3.2-9.5 6.05-14.2"/>
   <path d="m243 110.9 0.9-1.25q0.85-0.8 0.5 1.75-0.5 4.25-0.25 7.25 0.5 4.8 2.9 8.95 1.55 2.7 4.35 4.5 2.7 1.75 5.8 2.25l-1.6 1.25q-6.25-1.05-9.9-7.25-2.45-4.3-3.05-10.25-0.5-4.95 0.35-7.2"/>
   <path d="m256.75 96.8q1-1.25 0.45 1.15-0.8 3.2-0.35 10 0.55 8.2 3 12.1 1.35 2.15 3.9 3.6 2.35 1.35 4.75 1.6l-1.85 1.4q-5.25-0.5-8.5-5.65-2.65-4.2-3.3-11.25-0.5-5.7 0.3-9.15 0.6-2.55 1.6-3.8"/>
   <path d="m8.35 108.4-0.3-1.55q-0.2-0.7-1.9 3.3-0.9 2.05-1 3.7 1.7-1.4 4.4-2.3l-1.2-3.15m-1.1-2.65 1.4 0.05 2 6q0.45 0.3-0.35 0.6-1.3 0.45-2.3 0.9-1.9 0.85-2.8 1.9-0.4 1.4-0.85-0.1-0.5-1.55-0.05-3.9 0.65-3.05 2.95-5.45"/>
   <path d="m33.3 85.4q0.95 0.55-0.95-2.65-1.85-3-3.7-3.4l0.7 4.65 3.95 1.4m-1.7-5.3q2.75 2.6 2.7 6.15 0 1.5-0.7 0.4l-3.15-1.2-1.7-0.6-0.3-0.05-0.95-6.35 0.65-0.5q1.75 0.55 3.45 2.15"/>
   <path d="m57.9 92.4 0.35-2.7q0-1.3-0.5-3.3-2.7 1.65-3.55 2.85 1.4 0.55 2.35 2.7l0.8 1.9 0.55-1.45m-0.1-7.25 0.7 0.25q0.95 2.15 0.95 4.6 0.05 3.3-1.9 5.15-0.65 0.65-0.95 0.2l-0.75-2.3q-0.2-0.85-0.95-1.85-0.85-1.15-1.55-1.25l-0.4-0.65q0.4-1 2.5-2.6l2.35-1.55"/>
   <path d="m311.1 38.9 0.85 2.3q0.65 1.9 0.9 4 3-1.2 5.1-1.2-1-1.5-4.1-3.75-3.05-2.2-2.75-1.35m-1.15-0.5q-0.85-1.95 2.2-0.4 6.45 3.2 7.2 6.4l-0.6 0.7q-1.45-0.3-3.85 0.45l-2.15 0.8-0.95 0.65q-1.15-7.1-1.85-8.6"/>
   <path d="m260.05 32.2q0.8-1.55 2.15-2.7 1.3-1.15 2.7-1.4l0.5-0.15 1.1 7.3-0.45 0.1q-4.4 1.45-5.35 2.15-0.65 0.45-0.8 0.3l-0.25-0.9q-0.65-2.4 0.4-4.7m0.95 0.95q-1.25 3.95 0.1 2.95 1-0.8 4.25-1.65l-0.75-5.2q-2.45 0.25-3.6 3.9"/>
   <path d="m246 52.7-0.05 0.5q0 2 0.5 4.45 0.45 2.45 1.1 3.5 0.3 0.5 0.55-1.6 1.1-3.85 2.45-5.05-1.3-0.95-4.55-1.8m2.45-0.35q2.55 0.95 3.3 1.85 0.7 0.35-0.2 0.75-0.65 0.3-1.45 1.95-0.85 1.6-1.05 2.9-0.45 3.35-1.2 3.35-0.5 0-1.5-1.95-1.9-3.7-1.35-9.25l0.65-0.4 2.8 0.8"/>
   <path d="m154.9 56.15s0.23149 1.1954 0.05 1.75c-0.1182 0.36121-0.33333 0.8-0.7 0.9-0.36667 0.06667-0.71667-0.08333-1.05-0.45-0.4-0.4-0.66667-0.91667-0.8-1.55-0.16667-0.63333-0.18333-1.2-0.05-1.7 0.13333-0.53333 0.38333-0.83333 0.75-0.9 0.33333-0.1 0.77295 0.18877 1.05 0.45 0.40673 0.3835 0.75 1.5 0.75 1.5"/>
  </g>
  <path d="m10.55 72.1 5.8 1.15 3.55 0.2q4.9-1 6.7 2.35 4.05 7.4 0.65 9.65-2.55 1.7-4.85 2.45l-3.8-0.1q-1.45 4.85 6 8 3.5 1.5 5.85 0.8t2.85-3.45q0.3-1.55-0.7-6.45-0.9-4.25 0-5.9 1.3-2.3 3.55-4.05 2.35-1.8 4.8-2.3 6.45-1.35 8.7-1.35 1.1 0 2.35 1.05 1.4 1.2 2.3 3.3 0.45 0.95 2.8 3.9 1.6 2.1 1.25 3.45-0.75 2.6-3.25 4.5-3.15 2.45-6.45 0.5l-2.35 0.7 1.1 3.7q1 4.1 0.6 5.95-0.3 1.3 2.75 5.9 3.25 4.9 3.25 8.15h0.6l-0.6 6.05q-0.6 3.95-2.1 6.65-4.35 7.6-18.1 8.55l-0.2-0.9q-2.05-2.05-11.85-5.3-9.2-3.05-11.85-3.05-2.3 0-4.8-3.85-2.55-3.95-1.55-6.15 1.1-2.4 4.05-4.35 3.15-2.05 5.3-1.35 0.65-2.75-3.45-8.6-3.35-4.7-5.25-6.1-1.8-1.35-2.75-4.45-1.35-4.2 1.45-7.2 1.75-1.9 3.7-8.15 1.4-4.45 3.95-3.9" fill="#b6ae9c"/>
  <path d="m15.05 86.75q2.6 0.15 4.05-2.5 1.2-2.2 1.75-1.75 1.35 1.15 3.95-0.6 2.75-1.85 2.45-4.95 3.15 6.4 0 8.5-2.55 1.7-4.85 2.45l-3.8-0.1q-1.45 4.85 6 8 4.45 1.95 6.9 0.3-0.15 0.95-1 1.4l-7.45 0.35q-3.5-0.45-7.45-5.85t-0.55-5.25" fill="#958e80"/>
  <path d="m57.05 81.35q1.65 2.1 1.3 3.45-0.75 2.6-3.25 4.5-3.15 2.45-6.45 0.5l-2.35 0.7 1.1 3.7q1 4.1 0.6 5.95-0.3 1.3 2.75 5.9 3.25 4.9 3.25 8.15h0.6l-0.7 6.6q-0.7 4.3-2.65 7.1 1.15-11.95-2.5-19.3-1.1-2.2-2.75-4.2l-1.55-2.05q-0.75-2.45-0.8-9.85t0.8-6.8q2.35 1.75 4.65 0.75t2.9-0.55q1.15 0.8 3.05-1.55l2-3" fill="#958e80"/>
  <path d="m47.85 131.15q4.95-4.85 6.75-16.95l44.15 2.65-10 3 12.55 3.1-0.05 0.9-14.2 1.7 9.7 4-2.85 0.95q-2.75 1-2.15 1.4l12.05 6.1 11.3 5.6-31.4-1 7.05 7-14.7-1.65 19.05 23.05-22.75-10.05 5.35 8.05-13.7-7.7 8.05 23.4-16.75-19.4-0.65 7.35-6.7-13.2q-6.8-13.1-7-12.5l-1.65 9.65q-4.45-15.45-5.7-21.75 9.3 1.15 14.25-3.7" fill="#ef821e"/>
  <path d="m75.15 133.65q-15.25-6.1-22.45-10.15 1.8-4.35 1.9-9.3l44.15 2.65-10 3 11.75 2.9 0.1 1.15-13.55 1.65 9.7 4-2.85 0.95q-2.75 1-2.15 1.4l12.05 6.1 11.3 5.6-31.4-1 5.45 5.4-14.2-6.3 14-2.8-13.8-5.25" fill="#ef821e"/>
  <path d="m48.6 143.55 1.25 4.05q1.25 4.45 1.25 6.3-1.35-2.35-6.3-9.55-4.25-6.25-5.85-9.6 9-2 12.95-9.5 2.5-4.8 2.7-11.05l16.55 0.9-3.4 1.3-2 0.9 10.75 1.3-13.5 1.9 19.6 8.05-12.75 0.55 16.45 9.05-30.65-1.65 12.1 20.9-19.15-13.85" fill="#fccf00"/>
  <path d="m52.35 124.3q2.15-4.7 2.25-10.1l16.55 0.9-3.4 1.3-2 0.9 10.75 1.3-13.5 1.9 19.6 8.05-12.75 0.55 15.05 8.2q-16.1-4.4-32.55-13" fill="#fccf00"/>
  <path d="m16.9 75.45-6.35-3.35q1-0.25 3.45 1.05 2.4 1.3 2.9 2.3" fill="#b6ae9c"/>
  <path d="m269 77.6q5 9.3 10.1 11.9 8.85 4.5 24-3.15 3.4 3.05 10.6 13.25l6.5 9.6-11.35-4.7 6.7 18.05-9.05-5.35q-0.6-0.2 0.15 6.2l0.9 6.5-8.7-8 3.35 38.05-14.7-33.75-9.35 23.4-2-28.75-10.05 10.7 2-13.35-26.05 22.05 11.7-30.75-22.7 6.7 21.7-17.7-20.05 3.65 22.7-15.35-12.35-0.35 9.85-3.8q10.85-4 16.1-5.05" fill="#ef821e"/>
  <path d="m293.9 90.05q1.7-0.5 4.05-1.7l4.65-2.45q3.35 3.1 10.8 13.5l6.8 9.8-11.35-4.7 6.7 18.05-9.05-5.35q-0.6-0.2 0.15 6.2l0.9 6.5-8.7-8 3.35 38.05-14.7-33.75-9.35 23.4 9.55-33.05 5.3 10.85q0-24.9 0.9-37.35" fill="#ef821e"/>
  <path d="m265.75 86-6.95-1.4 4.4-1.3q4.95-1.4 7.95-1.85 4.1 6.6 9.3 8.65 7.35 2.85 18.6-1.9 2.45 5.95 7.05 15.15l-7.45-4.55 1.65 20.55-10.2-13.3-7.6 18.85-1.9-19.1-8.4 11.5-1.65-7.9-14.5 15.4 8.9-31.2-13.75 2.5 14.55-10.1" fill="#fccf00"/>
  <path d="m294.85 89.75 4.2-1.55q2.45 5.95 7.05 15.15l-7.45-4.55 1.65 20.55-7.45-9.75q0.55-14.75 2-19.85" fill="#fccf00"/>
  <path d="m287.7 49.25q0.15-2.75-1.55-6.2-1.55-3.1-3.95-5.9-2.45-2.9-3.05-2.1-1.45 1.9-3.9 2.65l-2.15 0.35 4.05 7.45q4.65 7.45 7.35 7.25 2.95-0.25 3.2-3.5m38.8 3.85-1.25 4.95q0 3.45-10.4 10.05-2.75 1.75-7.15 8.1-4.45 6.35-5.2 9.6l-0.7 0.5q-0.85 0.4-0.75 0.5-11.65 5.45-18.5 3.9-7.85-1.75-13.55-13.1l0.8-0.15q-1.15-3.25-0.6-7.7 0.45-3.8 1.9-7-0.2-1.75-2.4-4.4l-3.95-3.95-2.4-2q-0.9-0.45-2.95 0-3 4.2-7.85 3.5-4.45-0.6-6.15-4.15-2.35-4.85-0.15-8.35 1.25-1.95 4.15-4.35 1-1.15 2.45-4.1 1.6-2.6 4.25-3.6 2.9-1.1 5.45-0.6 1.6 0.3 3.9 1.6-0.6-1.45-0.4-4.25 0.25-3.05 1.4-3.75l4.45-2.1q3.8-1.8 6.25-3.6 2.75-2.05 6.45-1.55 3.15 0.45 4.9 2.25l3.1 3.45q2.05 2.2 4.55 3.2 2.75 1.15 3.6 4.6 0.7 2.7 0.1 6.1-0.45 2.5 2.3 9.1 2.55 6.15 4.05 7.6 1.35 1.35 2.9 1.05 1.75-0.25 2.45-2.4-1.95-4.55 1.9-6.8 2.6-1.55 6.1-1.55 1.5 0 2.6 1.35 1.95 2.45 3.1 3.35 2 1.6 1.25 4.7" fill="#b6ae9c"/>
  <g fill="#958e80">
   <path d="m325.1 57.4q-0.25 3.3-5.55 7.3-5.75 3.75-6.8 4.85-4 4.3-7.4 10.85-2.85 5.4-4.2 6.15-1.9 1.05-4.5 2l-2.25 0.7 2.4-3.35 4.55-6.9q5.75-9.45 10.5-13.55 1.7-1.4 6.3-3.8 2.35-1.25 3.45-4.4 1.05-2.95 0.4-5.3-0.4-1.5 0.3-3.55 0.65-1.9 0.3-2.6 1.55 1.95 2.65 2.6 1.95 3.05 1.15 5.65l-1.3 3.35"/>
   <path d="m289.25 20.6 2.05 2.2 3.9 2.1q3.2 1.75 3.45 2.55l0.95 4.75q0.6 3.8 0.6 5.3 0 2.7 2.15 8.6 2.55 7.2 5.55 8.2 1.45 0.45 0.35 0.6-1.15 0.15-2.9-0.5-5.55-1.9-7.25-7.85-1.1-3.8-1.4-7.15-0.3-2.8 0.05-4.6 0.5-3 0.1-4.65-0.75-3.25-4.35-4.25-6.4-1.75-8.5-5.95-0.65-1.25-2.4-2-1.3-0.55-2.25-0.55l2.85-0.2q3.65 0.05 5 1.15l2.05 2.25"/>
   <path d="m247.3 53.8q1.75-0.2 5-1.65 3.7-1.7 4.6-3.25l3.1 3.2q-3.5 4-5.65 4.15-2.8 0.15-5.2-1.15l-1.85-1.3"/>
  </g>
  <g fill="#0d131a">
   <path d="m2.9 88q0.8-1.05 2.1-1.5l2.95 0.15 1.6 0.9-1.75 0.1-2.6 0.1q-0.95 0.2-1.9 1-0.95 0.75-1.05 0.5t0.65-1.25"/>
   <path d="m36.2 78.3 3.6-0.15q2 0.55 2.55 2.1 1.1 3.2-0.5 1.05-1.05-1.35-2.8-1.9l-2.65-0.1-1.4 0.05q-0.3-0.45 1.2-1.05"/>
   <path d="m51.5 83.15q-0.05-1.1 0.4-0.45 0.45 0.7 0.4 2.05-0.1 1.45-0.9 2.95t-1.9 2.35l-0.75 0.35-1.65 0.45 0.25-1 0.3-0.25 1.05-0.55q0.8-0.3 1.8-2.6 1-2.25 1-3.3"/>
   <path d="m54.75 114.95q0.3 9.7-5.35 15.75-5.85 6.25-14.8 4.5l1.6 6.7 2.9 11.2q0.85-5.5 1.15-6.4-1.25-4.45-1-5.35 0.15-0.55 1 1.2l1.45 3.25q0.75 1.95 12.45 24.15l0.25-4.95q0.05-1.05 0.25-1.1 0.2-0.1 1 0.95l7.1 8.2 7.3 8.15q-5.95-16.3-7.15-20.25-0.25-0.7-0.05-0.85t0.85 0.25q2.55 1.55 11.65 6.4l-4.5-6.25q-1-1.45 0.8-0.65l20.8 9.15q-18.6-21.8-18.2-22.05l14.4 1.65-6.8-6.85 29.8 0.95-11.1-5.65q-7-3.6-9.25-4.5l-5.5-2.35q-2.4-1.1-1.05-0.8l5.4 1.2 2.55-0.6q2.25-0.4 1.8-0.55l-5.8-2.15q-5-1.95-4.6-2.15l6.2-0.85 9.25-1-8.7-1.95q-5.35-1.2-5-1.4l8.65-2.6-39.75-2.4m-45.15-41.6q-0.85 0.45-1.1 0.75-0.8 0.9-1.5 3.15l-1.3 3.8q-0.9 2.15-2.25 3.6-1.95 2.1-1.65 4.75 0.15 1.65 1 3.35 0.8 1.6 1.85 2.45 1.95 1.7 5.2 6.4 4.3 6.15 3.8 9.1-0.25 1.7-1.65 3.45-1.5 1.8-1.95 3.85-0.35 1.65-0.7 1.5-0.25-0.1-0.25-1.1-0.05-2.3 1.55-4.55 1.6-2.3 1.6-2.8-1.6-0.9-4.35 1.2-2.65 1.95-3.65 4.25l-0.2 0.95q0 1.85 1.7 4.5 1 1.55 2.15 2.5 1.2 1 2 1 2.8 0 12.05 3.1 9.8 3.25 12.1 5.4 6.95 2 12.95-3.3 6.4-5.65 6.5-15.8-0.4-3.95-3.9-9.1l-1.85-3.1q-0.75-1.55-0.5-2.65 0.35-1.55-0.4-4.95l-1.25-4.3q-0.65-1.45-0.6-2.25 0-0.85 1.25 1.2 0.85 0.65 2.5-0.7l1.15 0.5q1 0.55 1.65 0.55l1.6-0.45q1.6-0.65 3-2.4 1.1-1.4 1.45-2.6 0.2-0.7-0.35-1.65l-1.35-1.85q-1.65-2-2.25-3.35-0.9-1.95-2.15-3-1.05-0.9-1.85-0.9-1.7 0-8.55 1.35-2.25 0.45-4.45 2.1-2.15 1.65-3.4 3.85-0.5 0.95-0.35 2.75l0.55 3.45q0.9 4.1 0.55 5.95-0.35 2.1-2.75 3.45-2.9 1.55-6.95-0.25-4.45-1.9-6.2-5.1-1.5-2.8-0.2-3.6 1.25-0.95 1.65-1.15 0.65-0.3 0.15 0.8l2.4 0.1q1.8-0.5 4.2-2.15 1.65-1.1 1.35-4.05-0.25-2.55-1.7-5.2-1.6-2.85-5.9-1.95l-2.2 0.15-4.4-0.9-1.75-0.2-2.1 0.1m-0.95-1.6 2.55-0.3 5.35 1.1 3.2 0.15q5.4-1.05 7.5 2.7 2.2 3.9 2.15 6.9 0 2.95-2.05 4.3-0.5 0.35-2.65 1.85-2.45 1.2-5.55 0.45l-0.05 0.35q0 3.45 5.8 5.85 3.7 1.65 5.95 0.55 1.3-0.75 1.7-2.65 0.25-1.5-0.55-5.35-0.55-2.6-0.6-3.85-0.15-2.1 0.55-3.4 1.4-2.5 3.85-4.3 2.4-1.85 5-2.4 6.75-1.35 8.85-1.35 1.3 0 2.75 1.15 1.6 1.35 2.6 3.65 0.45 0.95 2.05 3l1.7 2.35q0.65 1.3 0.3 2.5-0.45 1.6-1.9 3.45-1.75 2.2-3.7 3-1.9 0.75-4.85-0.85l-1.35 0.4q1.3 2.8 1.5 6.45l-0.05 3.15q0 1.15 2.2 4.3l2.35 3.95q1.2 2.45 1.4 4.6l22.3 0.9 21.9 1.15q3.85 0.3 3.6 0.75-0.2 0.25-3.5 1.35l-7.35 2.2q3.55 0.85 9.65 2.65 2.5 0.6 2.45 1 0 0.4-2.35 0.8l-11.35 1.7q6.15 1.6 9.3 2.9l2.15 1-2.15 0.5-3.9 0.7-2.5 0.65q3.05 1.6 22.55 11.2l3 1.75-3.2 0.15-15.25-0.7-14.4-0.7 4.9 4.25 3.95 3.55-7.05-0.75-9.6-1.55 15.85 19.1q2.45 3.05 2 3.5-0.35 0.4-3.4-0.9l-17.8-7.9 2.85 4.3q1.4 2 0.75 2.35t-3.15-1.1l-9.55-5.35 6.2 17.65q1.55 4.35 1 4.8t-3.7-3.15l-12.95-15.05-0.3 6.15q-0.05 2.4-0.3 2.4t-1.4-2.2q-10.25-20.85-12.55-24.8l-1.3 8.05q-0.4 2.15-0.7 2l-0.8-1.95-2.85-9.4q-2.45-8.55-3.15-12.3-2.5-2.2-9.75-4.8-7.75-2.75-13.65-3.15-2.55-0.2-4.85-3.8-0.75-1.15-1.25-2.9-0.5-1.7-0.5-3 0-0.85 0.3-1.55 1.05-2.35 3.85-4.35 3-2.15 5.5-1.9-0.05-2.65-3.7-7.7-3.05-4.25-4.75-5.5-1.7-1.3-2.75-3-1-1.7-1-3.3 0-2.25 0.55-3.8 0.55-1.4 1.75-2.75 2.85-3.1 3.25-6.8 0.45-3.95 3.1-5.05"/>
   <path d="m10.65 72.05q1.25-0.35 3.75 0.85 2.55 1.2 2.95 2.3 0.4 1.05 0.1 1.05l-1-0.6q-4.65-3.35-5.75-3.05l-0.05-0.55"/>
   <path d="m20.1 82.45q0-0.95 0.1-0.85l0.6 1.3q0.45 1.25-0.3 3.3-0.8 2.1-1.9 2.1-0.85 0 0-1l1.05-2.3 0.45-2.55"/>
   <path d="m321.75 54.2q-0.4-0.65-1.6-0.95l-2.25-0.35q-1.05-0.2-0.8-0.6 0.2-0.4 1.1-0.2l2.1 0.15q1.35 0.1 2.05 0.85 1.4 1.5 1.15 3.6l-0.3 0.95q-0.25 0.05-0.35-0.7-0.25-1.35-1.1-2.75"/>
   <path d="m288.7 32.45q1.05-1.9 3.45-2.75 2.45-0.85 3.85 0.2l1.2 1.1-1.55-0.2q-3.2-0.55-6.05 2.15-0.75 0.65-1.05 0.5-0.3-0.1 0.15-1"/>
   <path d="m283.75 18.8q1.5-0.05 1.7 0.45 0.25 0.45-1.6 0.6-1.95 0.1-3.55 1.1t-2.4 2.6q-1.4 3-0.8-0.45 0.25-1.6 2.05-2.85 1.95-1.4 4.6-1.45"/>
   <path d="m263.6 44.05q-0.35-1.7 0.55-4.2 1.1-3.05 3.45-3.3 2.4-0.25 1.9 0.25-0.4 0.4-1.55 0.7-1.45 0.4-2.5 2.8-0.9 2.1-0.85 3.75 0.05 1.3-0.35 1.25-0.4-0.1-0.65-1.25"/>
   <path d="m257.6 82q-5.8 1.8-10.85 3.8l7.05-0.15q4.25-0.05 4 0.45l-11.15 7.65-10.55 7 9.8-1.85 9.6-1.7-10.6 8.6-10.5 8.6 10.3-3.15q10.25-3.3 10.3-2.9 0.05 0.45-4.9 13.25l-6.3 16.15 25.35-21.45q0.4-0.2-0.55 5.15l-1.4 7.8 5.45-6q3.75-4.2 4.1-4.15t1.05 11.65l0.85 15.5q8.6-20.75 8.8-21.9 0.4 1.4 13.55 31.05-3.35-35.05-3.1-35.4l3.6 3.05 4.95 4.85-2.25-15.6q-0.3-1.8-0.25-2.6 0.05-0.95 0.65 0.95l1.7 5.4q0.85 0.3 7.75 4.7l-3.6-10.2q-2.65-7.7-2.1-7.3 0.75 0.55 9.85 4.3-11.6-17.3-16-21-2.9 3.3-9.5 4.8-6.35 1.5-10.85 0.2-6.85-1.95-10.8-7.4l-2.55-5q-4 0.65-10.9 2.85m29.35-33.2q0-2.55-1.5-5.4-1.25-2.55-3.25-5.05-1.8-2.3-2.65-2.65-2.05 2.4-4.85 2.8 6.7 13.75 9.7 13.45 1.5-0.05 2.1-1.15 0.45-0.75 0.45-2m38.3 5.85q0.7-2.25 0.7-3.25 0-1.45-1.2-2.4-1.35-1.1-2.85-3l-1-1.2q-0.5-0.35-1.35-0.35l-3.65 0.55q-2.7 0.8-3.7 2.35-0.6 0.9-0.65 1.7-0.05 0.9 0.55 2.2l0.8-0.3 1.45 0.1q0.35 0.25-0.55 0.45-1.4 0.35-1.8 1.15l-0.8 1.55q-0.35 0.45-1.2 0.65l-2.25 0.05q-1.35-0.2-2.1-0.95-1.65-1.65-4.25-7.9-2.8-6.8-2.3-9.5 0.55-3.15-0.1-5.75-0.75-3.1-3.1-4.1-2-0.8-5.15-3.9l-2.8-2.95q-1.55-1.55-4.4-1.95-3.45-0.5-5.95 1.35-2.9 2.15-8.4 4.6l-2.35 1.15q-0.95 0.55-1.2 3-0.3 2.55 0.5 4.05l4.2 2.15q3 1.5 3.7 2.9 2.55-0.25 4.2-2.4-1.4-0.85-1.6-1.85-0.1-0.55 0.7 0l2.2 1.3q1.35 0.5 3.7 3.3 2.35 2.75 3.55 5.25 1.2 2.35 1.65 5.1 0.5 3.15-0.45 4.8-0.3 0.55-1.2 0.7l-2.25 0.2q-2.95 0.2-7.35-6.45-2.55-3.9-4.75-8.7l-0.2-0.4q-0.6-0.85-3.95-3l-3.25-1.95q-2.25-1.3-3.8-1.55-2.25-0.4-4.9 0.6-1.8 0.7-2.95 2.05-0.7 0.8-1.75 2.75l-1.65 2.7-1.45 1.4q-2.45 2.15-3.15 3.8-1.15 2.8 0.7 6.65 0.7 1.55 2.35 2.6t3.6 1.2q4.1 0.4 6.75-3.2-1.1-0.95-1.95-2.55-0.8-1.45-0.9-2.55-0.1-1.4 0.25-1.55 0.4-0.15 0.7 1.2 0.35 1.55 1.7 3.05 1.55 1.75 3.7 2.55l1.1 0.4 1.85 1.25 3.05 3.25 2.05 2.9 1.8 3.2q0.7 1.45 0.55 2.2-0.25 1.1-1.6-1.6-3.3 7.15-0.2 14.95 3.2 8.15 11.35 10.85 5.9 1.9 12.45-0.45 4.9-1.75 7.35-4.4 1.3-3.75 5.55-9.65 4.2-5.9 6.85-7.6 4.65-2.9 7.35-5.45 2.65-2.5 2.65-3.95 0-1.1 0.8-3.4m2.2-3.25q0 1.45-0.8 3.75-0.35 1.05-0.55 3.25l-0.2 1.4-0.8 1.6q-1.4 2-9.8 7.35-2.55 1.6-6.75 7.55t-5.15 9.25q3.4 3 10.2 12.3l7.9 11.35q1.5 2.4 1.1 2.45-0.15 0-2.95-1.35l-9.5-4.45 3.05 7.7 3.8 9q0.85 1.9 0.45 2.05-0.2 0.05-1.8-0.85l-4.45-2.8-4.2-2.65v0.05q0 1 0.75 4.85l1.05 6.4q0.3 2.9 0 3-0.15 0.05-1.95-1.75l-7.1-7.1 1.75 16.85 1.9 19.05q0.3 4.15-0.35 3.55l-1.55-2.95-6.95-15.75-7.05-16.3q-6.6 16.65-8.25 21.95-1.35 4.25-1.75 4-0.3-0.2-0.45-4.2l-1.55-27.3-5.95 6.95q-4.55 5.25-4.55 4.25 0-0.95 0.9-6.4l1.15-7.35-14.25 12.55q-12.3 10.7-12.5 10.05-0.2-0.6 5.6-15.4l6.6-16.65-21.25 6.6-2.6 0.15q0.2-0.55 1.9-1.8l19.45-15.85-17.35 3.85-2.6 0.2q0.05-0.2 2.25-2.25 1.5-1.45 10.1-7.1l10.65-6.95q-5.15 0.05-10-0.25l-3.65-0.55q-0.2-0.25 1.65-0.9 1.15-0.4 11.25-4.05 10.55-3.6 15.8-4.65-1.1-3.95-0.35-7.9 0.65-3.45 2.6-6.5l-1.8-3q-1.15-1.6-2.3-2.65l-1.75-1.9-1.45-1.15-3.25-0.9q-3.2 4.15-7.4 3.75-2.35-0.2-4.55-1.55-2.25-1.4-3.15-3.25-2.15-4.5-1.15-7.15 0.5-1.35 3.3-4l2.25-2.1 0.95-1.55 0.85-1.8 1.4-2.5q1.4-1.9 3.45-2.7 2.55-1 5-0.6 1.6 0.3 3.65 1.3-0.15-0.8-0.15-1.75 0-4.4 1.8-5.5l2.5-1.2q5.6-2.55 8.1-4.45 3.35-2.5 7.6-1.7 4.2 0.8 6.85 4.5 0.85 1.1 2.5 2.4 1.95 1.6 3.9 2.4 5.2 2.15 3.6 11.1-0.4 2.3 2 8.75 2.3 6.05 3.65 7.35 1.1 1.2 2.35 0.85 1.05-0.2 1.6-1.7-0.55-1.5-0.55-2.7 0-1.55 0.8-2.8 2.3-3.45 8.1-3.65 2.3-0.05 4.05 2.2l0.8 1.15 1.35 1.35q2.2 1.7 2.2 3.85"/>
  </g>
 </g>
</svg>
