<?xml version="1.0" encoding="UTF-8"?>
<svg version="1.1" viewBox="0 0 277.24 292.5" xmlns="http://www.w3.org/2000/svg">
 <g transform="translate(-.016111 -.0073333)">
  <path d="m41.85 161.95q-0.15-4.2-0.45-5.65l-0.3-1.7 1.45 0.95q11.9 8 20.25 17.7 6.15 7.2 11.9 17.4 4.8 8.45 5.65 11.45 0.85 2.9-0.35 6.9-1.55 5.4-3.1 12.1-2.35 10.4-2.35 14.9l0.25 8.8q-0.05 3.75-1.6 5.7l-7.25 8.75q-5.9 6.65-8.6 7.65-3.25 1.15-8.5-0.7-5.3-1.85-7.05-4.75-4.85 0.7-7.95-1.2-1.95-1.15-2.9-3.1-1.3 0.1-2.4-0.6-1.35-0.75-2.45-2.45-1.25-1.85-1.7-4.05-0.85-4.5 2.1-6.8 1.8-1.35 7.15-2.9 5.4-1.55 7.45-3.25 2.8-2.3 5.6-7.6 3.85-7.25 5.15-16.25 1.15-7.8-1.7-15.05-1.25-3.3-4.7-8.6l-2-3q-0.45-0.85-0.6-5.25l-0.6-11.45-0.4-7.95" fill="#0d131a"/>
  <g fill="#30353a">
   <path d="m78.15 207.05 0.25 0.2-0.35 1.25q-1.2 4-2.85 12.3-2.15 10.5-2.15 15.2l-0.25 8.85q-0.45 4-1.9 5.8-4.15 5.2-7.75 8.85-4.3 4.4-6.45 5.15l-7.75-0.35q-5-1.4-6.15-3.9l-0.25-0.5-0.55 0.1q-5.15 0.8-8-1.35l-1.9-2.5-0.2-0.7-0.7 0.2q-0.95 0.25-1.95-0.35-1.9-1.15-2.65-5.2l-0.15-1.35q0-2.9 2.95-4.6 1.75-1.05 6.55-2.4l4.2-1.35q2.1-0.8 3.3-1.8 2.6-2.15 5.25-8.15 3.25-7.35 4.6-17l0.35-4.85q0-2.95-0.45-5.6l0.2-0.7q1.25-4 1.45-6.25l1.9 5.5 2 5.6q1.05 3.6 1.65 3.45 0.5-0.15 1-3.8l0.2-3.25q0.05-1.8 0.4-3.15l0.95 1.45 1 1.3q1.15 2.05 2.1 2.3 1.05 0.3 1.25-2l0.4-3.45q1.6 2.45 2.4 5.15l1.3 5.6 1.25 4.9q0.3 1.3 0.5 1.2l0.55-1.1 0.2-0.7q1.15-3.45 2.45-5.75 1.15-2.15 1.8-2.25"/>
   <path d="m78.15 207.05 0.25 0.2-0.35 1.25q-1.2 4-2.85 12.3-2.15 10.5-2.15 15.2l-0.25 8.85q-0.45 4-1.9 5.8-4.15 5.2-7.75 8.85-4.3 4.4-6.45 5.15-2.25 0.8-5.95 0.1t-6.1-2.35q4.15-5.2 13.95-9.6 4.15-1.85 5.55-2.9 2.2-1.65 2.2-3.85 0-9.9-2.9-17.4-3.2-8.15-10.2-14.65l0.05-0.55 0.35-4.85q0-2.95-0.45-5.6l0.2-0.7q1.25-4 1.45-6.25l1.9 5.5 2 5.6q1.05 3.6 1.65 3.45 0.5-0.15 1-3.8l0.2-3.25q0.05-1.8 0.4-3.15l0.95 1.45 1 1.3q1.15 2.05 2.1 2.3 1.05 0.3 1.25-2l0.4-3.45q1.6 2.45 2.4 5.15l1.3 5.6 1.25 4.9q0.3 1.3 0.5 1.2l0.55-1.1 0.2-0.7q1.15-3.45 2.45-5.75 1.15-2.15 1.8-2.25"/>
   <path d="m32.5 247.05q1.75-0.55 3-0.4l-2.8 1.1q-1.15 0.55-1.9 3.6l-0.55 2.95-1.1 0.95-1.45-1.15q-0.75-0.8-1.1-2.1 2.4-3.8 5.9-4.95"/>
   <path d="m43.65 252.95q-0.85 0.7-0.95 2.7l0.1 1.8-1.2 2.6q-4.3 0.6-7-1 2.7-5.4 8.4-7.5 2.85-1.05 5.15-1l-1.7 0.8q-1.9 0.9-2.8 1.6"/>
  </g>
  <path d="m43.1 157.75q11.1 7.7 19 17 5.85 6.9 11.35 16.6 3.1 5.5 4.3 8.35 1.1 2.75 1.1 4.6l-0.1 1.45-0.75-0.15q-2.2 0.25-4.65 6.75l-0.55-1.95-1.45-6.4q-0.9-2.9-3.3-5.75l-0.45-0.6-0.7-0.6q-0.2 0.05-0.3 0.85-0.65 4.15-0.65 5.65l-0.7-1-1.65-2.05q-1.15-1.5-1.55-2.65-0.8-2.2-1.05-1.25l-0.25 2.7-0.45 2.85q-0.45 2.15-0.5 4.15-2.75-9.1-5.05-14.55-0.65-1.4-0.85-1.25-0.4 0.2-0.4 3.8 0 2.45-0.95 5.75-1.55-5.7-5.5-11.6l-0.8-1.3q-0.75-1.4-2-17.2l-1.15-12.2" fill="#d3d9db"/>
  <path d="m59.05 171.35q7.75 8.2 14.4 20 3.1 5.5 4.3 8.35 1.1 2.75 1.1 4.6l-0.1 1.45-0.75-0.15q-2.2 0.25-4.65 6.75l-0.55-1.95-1.45-6.4q-0.9-2.9-3.3-5.75l-0.45-0.6-0.7-0.6q-0.2 0.05-0.3 0.85-0.65 4.15-0.65 5.65l-0.7-1-1.65-2.05q-1.15-1.5-1.55-2.65-0.8-2.2-1.05-1.25l-0.25 2.7-0.45 2.85q-0.45 2.15-0.5 4.15-2.75-9.1-5.05-14.55-0.65-1.4-0.85-1.25-0.4 0.2-0.4 3.8 0 2.45-0.95 5.75-1.2-4.35-3.6-8.6 3.6-10.5 10.1-20.1" fill="#adb2b4"/>
  <path d="m48 250.1q4.95-1.55 6.25-2.55 0.9-0.65 1.1-0.55l-0.45 0.75-2.7 1.85-3.15 1.45q-3.25 1-4.3 2.05-1.6 1.7-1 5.5l-1.7 0.1q-0.65-4.1 0.6-5.8 1.1-1.45 5.35-2.8" fill="#0d131a"/>
  <path d="m25.85 247.05 1.65-0.3q1 0.05 1.6 0.5 1.3 1.1 2 3.6 0.65 2.25 0.3 3.75-0.3 1.1-1.1 1.35l-3.95 1.2q-3.2 1.05-4.75 1.9-1.4 0.75-1.8 0.55-0.35-0.2-0.35-1.4 0.05-3.7 2-6.9 1.8-3.05 4.4-4.25" fill="#0d131a"/>
  <path d="m26.95 248.25q0.8-0.45 1.65 0.65 0.7 0.9 1.1 2.35l0.3 2.35-0.15 0.95-3.95 1.25q-3.2 1.05-4.95 1.95 0.25-3.1 2.05-5.85 1.75-2.65 3.95-3.65" fill="#fff"/>
  <path d="m43.15 244.95q1-0.45 1.2-0.35l-0.75 0.8q-1.65 1.15-6.3 1.85-3 0.4-4.1 1.2-0.95 0.65-1.65 2.5-0.7 1.9-0.05 2.8l-1.25 0.55q-0.85-1.3-0.3-3.65 0.6-2.25 1.8-3.1 0.85-0.6 2.4-0.85l2.55-0.35 3.25-0.55 3.2-0.85" fill="#0d131a"/>
  <path d="m32.1 252.15q1.7-0.8 3.85 0.05 2 0.8 3.1 2.4 1 1.45 0.85 3t-1.35 2.7q-0.6 0.55-5.7 3.15l-4.95 2.6q-1.5 0.9-1.9 0.75t-0.35-1.5q0.1-3.95 1.95-7.9 1.95-4.05 4.5-5.25" fill="#0d131a"/>
  <path d="m33.15 253.55s1.7563-0.20611 2.55 0.1c0.87206 0.33634 1.5833 1 2.15 1.8 0.4 0.7 0.6 1.3167 0.6 1.85 0 0.73333-0.3 1.3833-0.9 1.95l-5.35 2.9-5.05 2.7c0.16667-2.2667 0.85-4.55 2.05-6.85 1.2333-2.3333 2.55-3.8167 3.95-4.45" fill="#fff"/>
  <path d="m38.45 271.15q-0.4-0.1-0.35-1.75 0.05-4.1 1.7-8.25 1.7-4.4 4.1-5.7 1.05-0.55 2.75-0.4t3.05 0.95q1.55 0.95 2.6 2.4 1.2 1.65 1.2 3.2v0.15q-0.1 1.95-2.05 3l-4.45 2.2q-4.6 2.2-6.45 3.3-1.75 1-2.1 0.9" fill="#0d131a"/>
  <path d="m45.45 256.75q1.4-0.75 3.45 0.5 1.35 0.85 2.25 2.05 0.9 1.25 0.9 2.35l-0.05 0.05q0 1.15-1.25 1.75l-4.35 2.2q-4.95 2.35-6.8 3.45 0.25-3.55 2-7.35 1.8-3.9 3.85-5" fill="#fff"/>
  <path d="m165.3 159.1q0.65 3.35 2.5 6l2.85 3.4q1.8 2.3 1.8 4.15l-0.5 2.5-0.95 3.65-2.35 9.85q-1.25 6.5-0.7 11.2 0.85 6.8 0.9 9.75 0.15 4.75-0.95 7.45-1 2.35-3.6 5-2.65 2.65-4.55 3.15-3.1 0.7-6.3-0.5-3.45-1.3-4.55-3.9-4.45 0-8.2-1.6-2.3-0.95-3.9-2.25-3.8 0.9-5.9-0.7-1.95-1.35-1.85-4.55 0.05-2.95 0.95-4.05 0.65-0.75 2.85-1.35 3.85-1.05 7.1-3 1.85-1.15 3-9.75 1.3-9.75-0.45-18.55-0.15-0.85-2.4-1.7l-4.65-1.45-6.1-1.95q-3.2-1.35-4.65-3.05-1.1-1.15 0.3-3.7 3.2-5.65 12.25-11.25 10.15-6.25 17.55-5.1 8.4 1.45 10.5 12.3" fill="#0d131a"/>
  <path d="m166.9 188.5q-1 6.55-0.4 11.5 0.65 5.7 0.65 9.05-0.05 4.1-1.15 6.7-1.05 2.45-3.05 5-2.2 2.7-3.55 3-2.65 0.65-5.6-0.5-3.05-1.2-3.75-3.4l-0.15-0.55h-0.55q-4.8 0.1-8.8-1.75l-3.05-1.95-0.35-0.3-0.4 0.15-1.85 0.3q-2 0.15-3.15-0.65-1.25-0.95-1.25-3.2v-0.15q0.05-2.4 0.5-3.05 0.4-0.5 2.25-1 3.8-0.95 7.45-3.15 1.65-1.05 2.9-6.6 1.3-5.75 1.3-12.6 0-5.65-0.95-10.6-0.3-1.45-2.6-2.5-1.45-0.65-5.5-1.8l-5.75-1.85q-3.05-1.25-4.3-2.7l-0.1-0.35q0-0.6 0.55-1.7 2.85-5 11.45-10.5 9.85-6.2 16.85-5.1 7.4 1.2 9.3 11.15 0.75 3.7 2.2 6.55l2.5 3.85 1.15 1.65 0.45 1.5-1.1 5.5q-1.55 6.15-2.15 10.05" fill="#30353a"/>
  <path d="m164.95 159.2q0.7 3.5 2.1 6.2 0.8 1.55 2.4 3.7l0.9 1.2-0.05 5.75-1.05-0.75q-1.2-0.8-1.75-1.85l-0.8-1.9-0.9-1.6q-0.95 2.05-1.2 4.7l-0.2 5q0 2.8-0.35 3-0.4 0.2-1.35-2.75-1.05-3.15-4.7-6.8-3.65-3.7-8.3-6.3l-3.8-2.25q1 4.25 1 6.7 0 4.7-3.05 6.45l-0.55 0.25-0.5-3q-0.15-0.95-2.35-1.85l-4.9-1.55q-4.15-1.2-6.05-1.95-3.2-1.3-4.6-2.95-0.9-1.05 0.4-3.35 3.15-5.6 12.1-11.15 10.05-6.2 17.35-5 8.15 1.3 10.2 12.05" fill="#0d131a"/>
  <path d="m169.5 170.55q0.5 0.6 0.65 1.7 0.15 1.25-0.25 2.5-1.1-0.8-2.45-3.55l-1.7-3-0.35 0.7q-2 4-2.2 8.55-1.5-3.55-5.4-6.55-2.4-1.85-7.7-4.8l-5.4-3.2 0.2 0.95q1.15 4.6 1.15 7.4 0 3.7-2.15 5.35l-0.3-1.8q-0.25-1.3-2.55-2.3-1.35-0.6-5.3-1.75l-5.85-1.85q-3.1-1.25-4.35-2.75l-0.2-0.6q0-0.75 0.65-1.85 2.9-5.1 11.55-10.6 9.95-6.3 17.05-5.15 7.6 1.2 9.55 11.4 0.75 3.6 2.2 6.45 0.8 1.65 2.45 3.8l0.7 0.95" fill="#adb2b4"/>
  <path d="m208 107.2q6.1 7.45 6.15 18.8 0.05 10-4.35 19.35-3.25 6.85-7.8 10.75t-9.35 3.9q-10.8 0-20.85 6.3-5 3.1-16.8 13.5l-10.25 9q-5.95 4.85-10.8 6.95-7.25 3.15-18.15 3.9-8.15 0.55-13.6-0.2 2.05 1.85 6.25 4.5 2.15 1.4 0.65 1.5-1.65 0.1-8.25-1.7l-8.25-2.35 2.3 2.4q2.2 2.2 1.7 2.55-0.45 0.3-3.25-0.6l-14.6-4.9q-7-2.25-18.05-11.5-11.55-9.65-13.95-16.1-6-16-10.35-24.6-9.15-18.4-10.5-22-4.05-11-4.55-17.95-0.45-7 2.65-10.65 4.25-5.05 16.35-4.6 7.6 0.3 28.45 4 28.35 5.1 44.2 6.15 27.15 1.8 49.15-3.7 18.5-4.65 30.95-1.6 9.5 2.35 14.9 8.9" fill="#0d131a"/>
  <path d="m208.9 144.9q-3.05 6.5-7.45 10.3-4.35 3.8-8.8 3.8-11.1 0-21.7 6.25-6.35 3.75-17.5 13.6-7.05 6.15-10.1 8.45-5.65 4.3-10.6 6.4-8.85 3.85-18.95 4.7l-16.45-0.7q-1.4-0.25 2.05 1.95l4.85 3.25-11.5-2.7-4.8-1.35 4.65 4.65q-6.1-2.3-11.7-3.95-6.65-1.95-18.4-12-12-10.25-14.35-16.5-1.65-4.5-10.85-22.85-8.85-17.75-10.45-21.9-4-10.65-4.5-17.4t2.4-10.2q3.95-4.8 16.15-4.2 7.55 0.35 27.7 3.95 28.45 5.1 44.4 6.15 27.25 1.75 49.4-3.75 18.15-4.55 30.35-1.6 9.25 2.25 14.45 8.6 5.95 7.2 6 18.25 0.05 9.7-4.3 18.8" fill="#d3d9db"/>
  <path d="m213 129.95q-0.75 7.85-4.1 14.95-3.05 6.5-7.45 10.3-4.35 3.8-8.8 3.8-11.1 0-21.7 6.25-6.35 3.75-17.5 13.6-7.05 6.15-10.1 8.45-5.65 4.3-10.6 6.4-8.85 3.85-18.95 4.7l-16.45-0.7q-1.4-0.25 2.05 1.95l4.85 3.25-11.5-2.7-4.8-1.35 4.65 4.65q-6.1-2.3-11.7-3.95-6.65-1.95-18.4-12-12-10.25-14.35-16.5l-0.55-1.4q10.55 7.5 19.4 12.15 11.5 6 18.2 6 4 0 13.2-7.5 5.85-4.75 18.7-16.9 13.85-13.1 19.65-18.05 10.45-8.85 16.05-10.8 8.75-3.05 60.2-4.6" fill="#adb2b4"/>
  <path d="m165.3 134.35q7.15-2.6 16.55-2.4 10.65 0.25 18.1 3.3 13.45 5.6 16.4 19.65 1.05 5 6.55 7.6l3.9 1.8q1.95 1.2 2.3 3.55l0.55 8.05 0.9 12.8q0.75 8.5 2.15 13.9l1.25 3.6q2.25 4.5 2.15 8.2-0.15 3.8-2.85 8.35l-1.15 1.95-3.25 6.2q-2.2 3.5-4.5 4.35-3.05 1.05-6.95-0.6-3.8-1.7-5.45-4.65-4.55 0.65-7.7-0.15-2.05-0.5-3.2-1.55l-2.8 0.75q-2.15 0.25-3.7-0.6-2.25-1.2-2.7-4.65-0.45-3.5-0.05-4.65t2.5-2.05l3.3-1.35q2.4-1.15 4.5-2.9 1.9-1.55 2-11.25 0.15-11.05-3.1-20.5-0.3-0.9-3.1-1.3l-5.6-0.6-7.2-1.15q-3.95-0.9-5.75-2.45-1.75-1.55-5.1-7.2l-6.6-11q-7.2-11.55-10.45-15.7l-0.25-0.25 0.1-0.35q1.1-4.1 8.25-6.75" fill="#0d131a"/>
  <g fill="#30353a">
   <path d="m181.85 133.4q9.5 0.2 17.25 3.8 12.75 5.85 15.6 19.3 0.65 3.2 2.9 5.2l4.35 2.6 3.35 1.95q1.5 1.25 1.8 3.2l0.5 5.6q1.3 18.95 3.7 27.95l1 3.55q1.6 5.15 1.7 7.7 0.2 4-2.05 7.75l-1.1 2-3.3 5.5q-2.25 3.1-4.25 3.8-2.7 0.95-5.9-0.4t-4.4-4l-0.2-0.5-0.55 0.1q-5.15 0.85-8.3-0.2l-2.1-1.25-0.35-0.5-0.6 0.25-2 0.65-3.65-0.25q-1.65-0.9-1.95-3.55l-0.15-2.05q0-1.3 0.6-1.85 0.4-0.45 2-1.1 4.45-1.95 7.75-4.65 1.1-0.9 1.7-4.15 0.6-3.2 0.6-7.75 0-11.65-3.45-21.5-0.5-1.5-3.2-2.3l-6.3-1.15-6.7-1.15q-3.55-0.85-5.2-2.25-1.85-1.65-5.35-6.8l-6.7-10.35q-7.15-11.3-10.3-15.4 1.15-3.4 8-5.7t15.25-2.1"/>
   <path d="m224.6 194.05q-4.45-21.2-11.95-29.3-2.55-1.55-12.9-14.6-10.6-13.3-11.05-16.1 8.95 1.5 15.2 5.85 8.55 5.95 10.8 16.6 0.65 3.2 2.9 5.2l4.35 2.6 3.35 1.95q1.5 1.25 1.8 3.2l0.5 5.6q1.3 18.95 3.7 27.95l1 3.55q1.6 5.15 1.7 7.7 0.2 4-2.05 7.75l-1.1 2-3.3 5.5q-2.25 3.1-4.25 3.8l-3.85 0.25q-2.05-0.4-3.75-1.6 0.8-2.6 5.2-6.7 4.65-4.3 5.7-6.9 0.85-2.05 0.3-8.95-0.55-7.1-2.3-15.35"/>
   <path d="m207.8 227.35q2.85-5.9 8.45-5.9-2.8 1.8-3.6 2.75-1.7 1.9-0.7 4.3l-4 0.35q-0.15-0.5-0.15-1.5"/>
   <path d="m196.8 227.65q-1.85-3.8 0.75-6.35 2.55-2.45 7.8-2.35-2.9 1.3-4.5 3.65-1.1 1.7-1.95 4.85l-2.1 0.2"/>
  </g>
  <path d="m165.55 134.6q7.2-2.6 16.3-2.4 9.8 0.2 17.85 3.95 13.2 6.15 16.15 20.1 0.6 2.75 2.45 4.45l1.2 1.1q0 1.35 1.7 4.75l1.05 1.75-1.55-0.2-1.45-0.15q1.95 3.7 1.95 7.55l-0.1 1.4-0.45 1.55-1.05-1.45q-1.55-2.8-3.75-4.95l-5.2-4.35 2.6 5.5q0.95 2.15 1.6 4.7l1 3.95q0 0.65-2.15-1.65-2.3-2.8-3.15-3.5-1.15-0.95-3.7-1.3l1.7 1.85 1.2 2.3q0.75 1.5 0.6 1.65-0.1 0.1-1.5-0.55-3.25-1.55-5.75-2l-6.85 0.2h-0.1l-3.45-0.5-7-1.2q-3.75-0.95-5.55-2.55-1.9-1.7-5.4-6.8l-6.85-10.55q-7.55-11.9-10.5-15.7l-0.1-0.2 0.05-0.2q1-3.9 8.2-6.55" fill="#0d131a"/>
  <path d="m181.85 133.1q9.55 0.2 17.4 3.85 12.9 5.95 15.75 19.5 0.6 2.95 2.6 4.8 0.15 1.9 2.95 5.9l-2.05-0.05-0.7 0.1 0.4 0.6q0.75 1.2 1.35 3.25 0.75 2.4 0.75 4.5l-0.1 0.8q-1.65-2.95-4.3-5.65l-5.75-5.1-1.9-1.45q-1.75-1.05-0.85 0.8l3.05 6q2.2 4.25 3.05 6.55-3.5-3.4-7.5-3.9-1.45-0.15-1.55 0.25-0.15 0.35 1 1.3 1.3 1.35 2.4 3.6-2.75-1.25-5.3-1.45-2.8-0.25-6.4 0.65l-3.35-0.5-6.75-1.15q-3.65-0.9-5.3-2.35-1.85-1.65-5.3-6.7l-6.8-10.5q-7.1-11.3-10.35-15.55 1.1-3.5 8.05-5.9t15.5-2.2" fill="#d3d9db"/>
  <path d="m166.35 135.3q6.95-2.4 15.5-2.2 9.55 0.2 17.4 3.85 12.9 5.95 15.75 19.5 0.6 2.95 2.6 4.8 0.15 1.9 2.95 5.9l-2.05-0.05-0.7 0.1 0.4 0.6q0.75 1.2 1.35 3.25 0.75 2.4 0.75 4.5l-0.1 0.8q-5.55-9.85-12.95-15.2-15.7-11.3-40.75-7.8-5.05-7.95-8.2-12.15 1.1-3.5 8.05-5.9" fill="#adb2b4"/>
  <path d="m214.5 221.6 2.5-1.55 2.4-2.05q0.85-1.15 1.05-0.95 0.25 0.2-0.35 1.2-1.05 1.8-4.65 4.1-2.2 1.45-2.6 2.3-0.65 1.15 0.1 3.55l-0.9 0.25q-1.45-2.5-0.55-4.15 0.55-1.05 3-2.7" fill="#0d131a"/>
  <path d="m193.55 221.4s2.0371-0.4328 3.05-0.3c0.98834 0.12958 2.1667 0.45 2.8 1.05 0.66667 0.6 1.1833 1.5 1.55 2.7 0.33333 1 0.5 1.9167 0.5 2.75l-0.1 0.65c-0.13333 0.46667-0.38333 0.75-0.75 0.85l-5.6 1.7-6.5 2.35c-0.96667 0.43333-1.55 0.6-1.75 0.5-0.23333-0.1-0.33333-0.53333-0.3-1.3 0.13333-2.3 0.91667-4.55 2.35-6.75 1.4-2.2 2.9833-3.6 4.75-4.2" fill="#0d131a"/>
  <path d="m200.55 227.6-0.05 0.4-0.1 0.2-5.15 1.4q-5.45 1.55-7.45 2.55 0.15-3.1 2.35-6.1 2.1-2.85 4.65-3.7 2.05-0.7 3.7 0.9 0.9 0.9 1.5 2.25 0.55 1.2 0.55 2.1" fill="#fff"/>
  <path d="m188 230.75q3.75-4.35 11.4-6.4 1.15 1.75 1.15 3.25l-0.05 0.4-0.1 0.2-5.15 1.4q-5.45 1.55-7.45 2.55l0.2-1.4" fill="#dbdcdc"/>
  <path d="m203.6 219.3 2.6-1.15 2.45-1.75 1.05-0.8q0.3 0-0.35 1.05-0.75 1.15-2.4 2.2-1.45 0.95-2.65 1.3-1.35 0.4-1.9 0.8-0.9 0.6-1.3 2.35t0.2 2.7l-0.75 0.5q-0.85-1.3-0.6-3.4 0.3-2.1 1.45-2.9 0.9-0.6 2.2-0.9" fill="#0d131a"/>
  <path d="m202.55 223.75c1.5333-0.76667 3.3443-0.80758 4.9-0.3 1.4404 0.46996 2.7667 1.5333 3.5 2.9 0.63333 1.2667 0.95 2.1667 0.95 2.7l-0.35 0.8-0.7 0.55-5.25 2.6-7.6 4.2-1.75 0.7c-0.2-0.0667-0.28333-0.51667-0.25-1.35 0.0667-2.5 0.78333-5.0833 2.15-7.75 1.3667-2.6 2.8333-4.2833 4.4-5.05" fill="#0d131a"/>
  <path d="m205.2 232.2c-3.7667 1.7667-6.3833 3.0833-7.85 3.95 0.0667-2.2667 0.78333-4.5667 2.15-6.9 1.3-2.2667 2.2707-3.7052 4.15-4.5 1.1977-0.50653 2.6984-0.39725 3.9 0.1 0.82789 0.3426 1.4167 1.05 1.95 1.85 0.66667 0.96667 1 1.8167 1 2.55l-0.1 0.35-5.2 2.6" fill="#fff"/>
  <path d="m209.5 226.7q1 1.45 1 2.55l-0.1 0.35-5.2 2.6q-4.95 2.35-6.35 3.15 3.6-6 10.1-9.4l0.55 0.75" fill="#dbdcdc"/>
  <path d="m209.55 240.8q-0.6-3.9-0.05-7.5 0.65-4.35 2.8-6.2 1.65-1.4 4.85-1.3 3.1 0.15 4.75 1.55 1.05 0.9 1.25 2.45 0.15 1.45-0.55 3.05l-10.9 8.45q-0.85 0.65-1.45 0.5t-0.7-1" fill="#0d131a"/>
  <path d="m221.8 232.35q-3.4 1.8-10.35 7.65l-0.6 0.45-0.15-2.15q0-3.15 0.85-6.35 0.8-3.05 1.75-3.65 1.6-1.1 4.05-1 2.45 0.05 3.85 1.2 1 0.9 1 2.15 0 0.75-0.4 1.7" fill="#fff"/>
  <path d="m222.2 230.65q0 0.75-0.4 1.7-3.55 1.9-10.05 7.4 1.05-3.7 3.6-6.65 2.55-3 5.9-4.55 0.95 0.9 0.95 2.1" fill="#dbdcdc"/>
  <path d="m156.6 209.15q0.75-1.15 1-0.2 0.25 1-0.7 1.9l-2.9 2.2q-2.2 1.7-2.75 2.45-0.65 1-0.65 3.05h-0.8q0-2.3 0.8-3.5 0.6-0.9 2.9-2.65 2.15-1.75 3.1-3.25" fill="#30353a"/>
  <path d="m143.9 212.55q2.1-0.65 3.7 0.5 1.35 1 2.05 3 0.45 1.3 0.4 2.4 0 1.2-0.65 1.45-4.4 1.65-8.4 3.55-1.4 0.7-1.7 0.55-0.25-0.1-0.15-1.15 0.95-9.1 4.75-10.3" fill="#0d131a"/>
  <path d="m144.15 213.3q1.65-0.5 2.7 0.4l1.25 1.85q0.65 1.45 0.65 2.8l-0.15 0.8q-4.5 1.75-8.65 3.95 0.9-8.7 4.2-9.8" fill="#dbdcdc"/>
  <path d="m159.95 217.05q1.45 1.65 1.05 4.35-0.4 2.35-1.35 2.65-1.35 0.6-4.95 2.3-2.75 1.35-4.1 1.8l-2.05 0.4q-0.6-0.15-0.65-1.4 0-3.45 1.05-6.8 1.2-3.85 3.1-4.75 1.7-0.8 4.1-0.45 2.5 0.4 3.8 1.9" fill="#0d131a"/>
  <path d="m148.95 226.55c0.0667-2.1667 0.43333-4.1833 1.1-6.05 0.66667-2 1.1624-2.9718 2.45-3.7 1.002-0.56663 2.3313-0.42121 3.45-0.15 1.1753 0.28493 2.3833 0.93333 3.15 1.8 1.3333 1.5 1.35 2.85 0.05 4.05-1.3333 1.2667-4.4667 2.8-9.4 4.6-0.53333 0.23333-0.8 0.05-0.8-0.55" fill="#dbdcdc"/>
  <path d="m275.7 10.4q-3.5 5.65-7.05 13-3.7 7.8-7.25 12-4.55 5.4-11.95 9.1-4.45 2.25-10.15 4l-9.25 2.45q-5.75 1.35-8 2.15-3.55 1.3-4.85 3-0.15 0.65-0.15 2.35l0.05 2.75 0.25 7.35q0 7.9-1.95 13.5-2.7 7.75-9.7 14.25-7.1 6.65-16 6.55-7.65-0.05-12.05-4.4-2.5-2.45-2.45-5.6 0.05-3.1 2.65-6 5.55-6.1 6.1-15.2 0.5-8.85-3.8-17.2-5.3-10.25-5.05-16.1 0.35-7.85 9.5-14.05 2.4-1.65 6.75-4.05l6.1-3.4q4.9-2.95 9-6.55 4.45-3.95 6.3-7.3t2.35-2.95q0.45 0.35 0.05 4.35-0.35 3.25-1.35 5.3l-1.65 2.7q5.05-3.35 11-5.2 6.75-2.15 12.05-1.45 5.05 0.7 4.35 1.3l-4.5 1.1q-4.95 0.95-8.35 4.9 3.7-0.45 9.4-0.15l9.6-0.55q5.75-0.8 9.25-1.95 3.5-1.2 3.85-0.95t-1.8 2.65q-4.1 4.55-8.7 6.45 6.55 0.6 13.85-2.4 5.7-2.3 10.45-6.1 3.9-3.1 4.5-3.05 0.65 0.1-1.4 3.4" fill="#0d131a"/>
  <g fill="#30353a">
   <path d="m248.8 43.2q-4.25 2.1-9.4 3.5l-8.85 2.1-7.55 1.85q-3.05 0.95-5.65 3.1-0.35-3.6-1.2-4.8-0.7-0.95-0.65 1.5l0.15 3.65 0.05 11.15q0 8.2-1.85 14.3-2.65 8.7-9.3 14.9-6.6 6.15-14.8 6.5-7.2 0.25-11.05-3.55-2.05-1.9-2.05-4.4 0-2.65 2.3-5.15 3.4-3.75 5.2-8.85 1.75-4.9 1.75-10.35 0-8.05-3.7-15.15-4.25-8.25-4.25-13.9 0-4.3 2.35-7.9 2.35-3.5 7.25-6.85l10.65-6.75 7.6-4.85q3.75-2.65 6.5-5.5-0.45 2.5-2 4.9l-1.4 1.85-1.65 1.8q-0.95 1.4 2.6-0.7 7.7-4.55 8.45-4.9 5.35-2.45 12.5-2.7-2.3 1.15-4.25 3.1-1.7 1.6-2.05 2.6l-0.45 1.15 1.25-0.2 10.75-0.3q4.7 0.25 7.65 0.1 4.7-0.25 9.85-1.5-1.8 2.35-3.3 3.2-1.4 0.8-5.6 1.95-5.05 1.4-3 1.55l3-0.1q15.35 2.45 25.8-5.1l-3.2 6.35q-4.2 8.8-7 12.65-4.65 6.35-11.45 9.75"/>
   <path d="m243.5 37.65q13.35-4.35 22-13.2-3.3 6.7-6.45 10.55-4.25 5.2-10.25 8.2-4.25 2.1-9.4 3.5l-8.85 2.1-7.55 1.85q-3.05 0.95-5.65 3.1-0.35-3.6-1.2-4.8-0.7-0.95-0.65 1.5l0.15 3.65 0.05 11.15q0 8.2-1.85 14.3-2.65 8.7-9.3 14.9-6.6 6.15-14.8 6.5-7.2 0.25-11.05-3.55-1.65-1.55-1.95-3.45 15.35-7.35 25.75-23.95 9.25-14.7 12.9-33.6l0.95 3.2q0.55 1.9 1.55 1.9 13.9 0 25.6-3.85"/>
   <path d="m22.1 78.65q1.15 0 3 3.45 1.8 3.35 3.5 8.55 1.45 4.4 4.2 15.25l3.25 13.6 2.7 13.95q1.95 10.75 1.95 12.35 0 3.4-0.85 6.9-0.55 2.25-2.1 13.1-1.7-1.65-2.75-6.95l-0.75-5q-1.6 8.7-6.6 16.45-2.5 3.85-4.7 5.95 1.6-4.5 1.55-10.8l-0.4-5.4q-1.3 3.5-4.35 7.6 1.45-7.2 1.5-12.3l-0.25-3.6q-1.75 4.45-5 7.1-1.6 1.35-2.9 1.75 1.5-3.8 1.7-8.15l-0.15-3.65q-3.85 4.3-8.55 5.65-2.35 0.7-3.95 0.5 4.85-4.3 7.55-10.6 2.7-6.35 2.7-13.3 0-3.1-1.65-10.8-1.7-7.7-1.7-9.2 0-11.35 4.25-21.85 4.25-10.55 8.8-10.55"/>
   <path d="m11.3 95.2q2.15-7.85 5.35-12.45-2.5 5.65-3.95 12.5-1.3 6.15-1.3 10.85 0 4.25 1.85 13.8 1.85 9.6 1.85 13.8 0 3.8-2.4 8.25-2.3 4.3-6.1 7.95 2.8-4 4.3-8.85 1.5-4.9 1.5-10 0-3.1-1.65-10.8-1.7-7.7-1.7-9.2 0-7.8 2.25-15.85"/>
  </g>
  <path d="m22.35 79.55-0.85 0.05q-5.4 4.25-8.4 11.45-3.5 8.4-3.5 20.2 0 3.85 1.8 10.2 1.8 6.4 1.8 10.5 0 7.9-3.6 14.6-2.35 4.45-6 7.8 7.8-1.15 12.15-8.15 1.35-2.25 2.2-4.85l0.65-2.4q0.2-1.1 0.45-1.15l0.85 0.85q4.2 6.55 7.65 7.95-5.5-8.75-8.55-19.8-2.85-10.25-2.85-19.45 0-5.35 1.05-9.35 1.05-4.15 3.05-6.2 0.2-0.2 0.75 0.3 0.5 0.5 0.3 0.7-5.55 5.6-3.25 22.8 2.4 17.85 11.55 31.65 0.4 0.6 0.25 0.8l-0.7 0.3q-1 0.25-2.85-0.75-3.2-1.75-6.7-6.8-1.15 4.2-3.9 7.85v0.6q0 6.6-1.6 10.45 3.15-2.7 4.8-6.1 1.3-2.75 1.45-5.35 0.15-2.95 0.6-3.8 0.55-1.05 0.85 3.8l0.3 5.75q0 5.7-1.15 10.7 2.35-4.3 2.95-7.5 0.2-1.25 0.5-1.1l0.4 1.1q0.55 5.3 0.55 7.9 0 4.85-1.15 8.75 2.7-3.15 6.1-11.15 3.15-7.3 3.35-9.75 0.6-5.35 1.45 0.1l1 6.25q0.6 3.15 1.4 4.75 0.2-4.85 1.7-12.6l0.85-5.25q-10.75-63.3-17.7-66.65m-10.45 10.55q3.45-7.5 8.7-11.6 1.1-0.9 2.4-0.3 7.9 3.85 18.5 68l-0.85 5.5q-2.15 11.15-1.8 14.75l0.3 3.45q-0.15 0.35-2-2.5-1.8-2.7-2.35-5.05l-0.75-5.5q-1.35 6.2-4.5 12.25-3.15 6-6.65 9.1-1.5 1.35-1.95 1.05-0.5-0.35 0.55-2.5 1.45-3.05 2-6.15 0.35-2.2 0.35-5.5l-0.05-2.45-1.65 3.45q-1.35 2.65-3.25 4.9-2.05 2.4-2.1 1.55l1-3.3q2.85-8 2.85-15.3-1.25 3.25-5.35 6.4-2.7 2.1-3.25 1.9t0.6-3q1.3-3.2 1.55-8.85-5.1 5.35-12.85 5.55-2.45 0.05-0.4-1.3 2.8-1.95 5.45-5.85 5.35-7.7 5.35-17.55 0-3.95-2.05-9.75-2.1-5.85-2.1-10.4 0-11.75 4.3-21" fill="#0d131a"/>
  <path d="m108.2 195.95-2.5-2.4q-1.35-2.45 16.55-12.4 17.9-10.05 20.3-7.65 2.65 2.7 2.35 8.2t1.3 9.25q0.75 1.65 3.05 4.75 1.8 2.35 2.2 3.9 0.7 2.45-0.4 6.15-1.3 4.45-2.85 22.25-1.7 20.25-0.4 28.85 1.85 12.6-1.85 17.15-2.5 3.1-6.25 6.55-4.95 4.6-8.1 5.7-3.3 1.2-7.45-0.6-4.1-1.75-5.85-4.95-5.4 0.75-9.45-0.8-2.5-1-4-2.55-3 0.35-5.25-1.05-2.85-1.85-3.65-5.95-0.9-4.45 0.75-6.65 1.3-1.7 5.6-3.2l6-2.2q3.85-1.65 6.1-3.45 2.65-2.15 4.85-8.75 2.95-8.9 2.7-20.65-0.3-12.15-5.4-20.45-2.9-4.65-8.35-9.05" fill="#0d131a"/>
  <g fill="#30353a">
   <path d="m112.45 181.75q7.25-9.05 13.15-9.35 6.7-0.4 9.5-0.15 4.5 0.4 6.4 2.3 2.2 2.2 1.95 7.05-0.35 5.95 1.05 9.85 0.8 2.25 2.95 5.15 1.65 2.15 2 3.45 0.55 2.05-0.4 5.25-1.35 4.55-2.9 22.15-1.75 20.05-0.45 28.75 0.85 5.5 0.25 10.55-0.6 5-2.35 7.2-2.15 2.65-5.75 5.75-4.3 3.7-7.2 4.7-2.95 1.05-6.45-0.45-3.5-1.45-4.85-4.35l-0.2-0.5-0.55 0.1q-5.75 0.9-9.8-0.95l-3.1-2.15-0.3-0.35-0.45 0.1-1.5 0.1q-1.75-0.05-3.1-0.9-2.25-1.4-3-5l-0.2-1.8q0-2.35 1.95-3.75 1.45-1.05 5.65-2.55 3.4-1.15 5.45-2.15 3.3-1.5 5.75-3.55 2.7-2.25 4.85-9.15 2.6-8.5 2.6-19.65v-2.05q-0.3-12.55-5.6-21.2-3-4.75-8.65-9.35-1.9-1.55-2.15-2-0.6-1.05 1.05-4.3 1.6-3.25 4.4-6.8"/>
   <path d="m107.7 266.7q-1.7 1-2.25 1.55-0.5 0.55-1 2.65l-0.8 3.95-0.4 1.1q-1.55-0.1-2.9-0.9l-0.95-0.8q1.85-5.85 6.1-7.75l3.85-0.75-1.65 0.95"/>
   <path d="m118.8 273.95q-0.35 1.8-0.1 5.2l-0.1 0.05q-3.85 0.65-7.35-0.1 1.05-3.1 1.75-3.9 1.3-1.6 5.4-4.1 4.25-2.6 6.5-3.05l-2.9 2.05q-2.95 2.4-3.2 3.85"/>
   <path d="m146.85 195.75 0.6 0.85q1.65 2.15 2 3.45 0.55 2.05-0.4 5.25-1.35 4.55-2.9 22.15-1.75 20.05-0.45 28.75 0.85 5.5 0.25 10.55-0.6 5-2.35 7.2-2.15 2.65-5.75 5.75-4.3 3.7-7.2 4.7l-4.55 0.2q-2.35-0.55-4.3-2.05 1.9-1.3 12.75-7.65 6.15-3.65 6.7-5.75 0.3-1.3 0.1-7.15l-0.45-13.7q-0.45-22.2 2.6-41.1 0.95-6.1 3.35-11.45"/>
  </g>
  <path d="m96.65 169.3q-1.5-5.05 4.7-7.05 5.4-1.7 14.8-0.65 9 1.05 16.5 4 8.1 3.15 9.9 6.9 1.05 2.15 1.35 4.1 0.35 1.85 0.25 5.05-0.2 8.6 3.85 14.2 1.75 2.45 2.15 3.8 0.65 2.3-0.4 5.9l-3.55 11.1-0.4-8q-1.4 0.55-3.85 7.55l-0.55-3.9-0.9-4.35q-0.85 2.95-1.45 7.8l-1.05 7.3q-1.15-5.55-3.15-9.5-2.65-4.55-4.45-8.3-0.75 6.35-1.5 9.4-5.25-10.35-7-17.15-0.5 2.15 0.05 7.2l0.75 7.2q-1.05-2.1-2.1-3.45-1.1-1.5-2.85-2.9-2.65-4.6-7-8.4l-4.4-3.95q-5.5-9.8-9.7-23.9" fill="#d3d9db"/>
  <path d="m144.15 181.65q-0.2 8.6 3.85 14.2 1.75 2.45 2.15 3.8 0.65 2.3-0.4 5.9l-3.55 11.1-0.4-8q-0.7 0.25-2.05 3.45 1.15-11.7-6.1-26.15-2.65-4.8-2.4-13.15 0.2-4.95 2.6-5 2.4 0 4.7 4.7 1.05 2.15 1.35 4.1 0.35 1.85 0.25 5.05" fill="#adb2b4"/>
  <g fill="#0d131a">
   <path d="m95.4 165.65q0.8 0.5 1.75 3.5 0.85 2.75 4.7 12.25 3.9 9.7 4.9 11.55 0.35 0.6 2.25 2.05l4.35 3.9q2.8 2.9 4.75 6.35 2.25 1.85 4.35 5.6l-0.9-5.75q-0.85-4.25-0.6-5.35l1-3.75q0.7-1.9 0.75 0.6 0.05 2.2 2.15 8.1 1.9 5.3 3.35 8.1l0.45 0.9q1.1-4.25 1.1-8.35 0.05-1.7 0.55-1.2 0.5 0.4 2.25 3.55l2.75 5.05 2.6 5.75 1-5.25 1.1-5.45 0.4-1.8q0.2-0.55 0.55 0.8 1.25 5.05 1.4 7.15 1.3-3.95 2.85-5.45 1-1 1.1 0.7 0 1.2 0.35 3.5l2.6-7.3q0.65-2.25 0.65-3.8t-0.6-2.85l-1.55-2.4q-1.95-2.6-2.75-4.75-1.35-3.6-1.35-8.9v-2l-0.3-4.15q-0.25-1.6-1.2-3.85-1-2.3-0.65-2.55 0.3-0.3 1.5 2.1 1.15 2.25 1.45 4.35 0.3 1.75 0.2 5.05-0.15 5.6 1.2 9.3 0.75 2.1 2.7 4.85 1.7 2.3 2.1 3.8 0.65 2.4-0.45 6.05l-0.95 3.65-2.15 6.05-1.4 1.95q-0.15-0.1-0.15-1.9l-0.2-5.5q-1.5 2.55-2.45 5.1-1.45 3.8-1.8-0.35l-0.65-4.2-1.1 6.9-0.55 3.35q-0.3 3.15-0.7 3.25t-1.15-3.05q-0.8-3.45-2.7-7.45l-3.6-7.25q-0.05 3.8-0.8 7.6-0.5 2.55-0.9 2.6-0.4 0-1.5-2.1-1-1.9-2.95-7.45l-2.5-7.9q-0.45 1.35 0.6 6.05 1.1 4.9 1 5.5-0.35 2.1-0.8 2.15-0.35 0.05-1.3-1.5l-1.6-2.6q-0.95-1.35-2.5-2.6l-0.05-0.05-0.05-0.1q-1.85-3.25-4.9-5.9l-4.45-3.5-1.55-1.2-1.95-2q-1.2-1.45-4.35-10.2-2.95-8.2-4.35-13.5-1.15-4.4-0.35-3.85"/>
   <path d="m119.7 273.65q-1.05 2.15-0.4 6.05h-1.65q-0.7-4.25 0.35-6.4 0.9-1.8 4.1-3.8l3.15-1.8 3-2.25 1.2-1q0.15 0.15-0.65 1.4-1 1.6-5.7 4.5-2.6 1.65-3.4 3.3"/>
   <path d="m89.85 281.4q0-4 2.2-7.65 2.15-3.65 5.45-5.25 3.2-1.5 5.7 1.05 2.35 2.4 1.6 5.25-0.25 0.9-0.95 1-0.9 0.25-5.45 2.65l-6.75 3.7q-1.15 0.75-1.5 0.6-0.3-0.15-0.3-1.35"/>
  </g>
  <path d="m98.45 269.7q2.15-0.75 3.85 0.7 1.6 1.55 1.6 3.6l-0.05 0.55-0.2 0.3q-1.15 0.25-5.6 2.4-4.55 2.15-6.75 3.5 0.15-3.65 2.4-7 2.15-3.2 4.75-4.05" fill="#fff"/>
  <path d="m109.35 265.75q5.15-1.65 7.05-3.3 1.3-1.15 1.45-1 0.15 0.1-0.9 1.4-1.75 2.1-6.8 3.85-2.15 0.65-3.05 1.3-1.05 0.75-1.75 2.7-0.75 2.1-0.1 3.05l-1.3 0.55q-0.95-1.4-0.35-3.75 0.55-2.3 1.9-3.2 1.2-0.8 3.85-1.6" fill="#0d131a"/>
  <path d="m100.85 288.7q-0.3-0.1-0.3-1.4-0.05-4.5 1.5-8.9 1.65-4.85 4.2-6.1 2.65-1.3 5-0.45 2.4 0.85 3.85 3.7 0.7 1.35 0.7 3.9 0 1.2-0.6 1.55l-2.45 1.3-10.25 5.7q-1.35 0.85-1.65 0.7" fill="#0d131a"/>
  <path d="m107.55 273.4q3.25-1.55 5.45 1.85 1.4 2.1 1.4 3.95l-0.15 0.6-2.4 1.35-9.85 5.6q0.05-4 1.6-8 1.65-4.25 3.95-5.35" fill="#fff"/>
  <path d="m120.55 291.55q-1 1.05-1.6 0.95t-0.75-1.55q-0.35-3.65 0.1-7.6 0.55-4.4 1.8-5.9 1.55-1.85 4.6-1.8 2.85 0.05 4.65 1.55 1.25 1.05 1.35 2.9 0.05 1.75-0.85 3.75l-0.05 0.15-0.65 0.95q-1.7 0.9-4.95 3.5l-3.65 3.1" fill="#0d131a"/>
  <path d="m119.35 287.8q0-3.35 0.65-6.2 0.65-2.95 1.6-3.55 1.45-0.95 3.45-0.9 1.95 0.05 3.25 1.1 1.25 1.15 1.25 2.75 0 1.05-0.55 2.3-2.9 1.55-8.1 6.4l-1.35 1.2-0.2-3.1" fill="#fff"/>
  <g fill="#dbdcdc">
   <path d="m30 253.6-0.15 0.95-3.95 1.25q-3.2 1.05-4.95 1.95l0.3-1.8q3.35-3.15 8.2-5.4 0.55 1.5 0.55 3.05"/>
   <path d="m37.55 255.05 0.3 0.4q0.6 1.05 0.6 1.85 0 1.1-0.9 1.95l-5.35 2.9-4.3 2.25q2.8-5.6 9.65-9.35"/>
   <path d="m39.6 269.1 0.1-0.85q3.15-6.2 10.6-9.9 1.75 1.65 1.75 3.3l-0.05 0.05q0 1.15-1.25 1.75l-4.35 2.2q-4.95 2.35-6.8 3.45"/>
   <path d="m92.35 280.15q4.8-6.8 10.9-8.45 0.65 1.15 0.65 2.3l-0.05 0.55-0.2 0.3q-1.05 0.25-4.85 2.05-3.95 1.85-6.45 3.25"/>
   <path d="m113 275.2v0.05q1.4 2.1 1.4 3.95l-0.15 0.6-2.4 1.35q-5.25 2.75-8.25 4.6 3.8-8.4 9.4-10.55"/>
   <path d="m120.9 289.7-1.35 1.2-0.15-1.35q2.55-5.8 9.05-11.1 1.1 1.1 1.1 2.55 0 1.05-0.55 2.3-2.9 1.55-8.1 6.4"/>
  </g>
  <path d="m171.9 71.45q3.25-1.65 2.95-0.9l-3.8 5.2q-5.3 6.95-6.4 10.5 6.25-6.85 15.55-9.5 8.95-2.6 17.8-0.5l3.3 0.9-3.2 0.75q-2.6 0.65-6.65 2.8-3.7 1.95-5 3.1 9.85-0.75 17.1 0.35 15.05 2.4 25.4 11.9 5.4 6.6 1.55 4.35-1.3-0.75-3.55-1.5-3.85-1.3-8.55-2.1l-6.45-0.5q3.85 0.55 7.45 1.65 5.3 1.55 8.1 3.7 3.05 2.35 2.9 2.6-0.1 0.25-3.1-0.55-2.8-0.8-6.55-1.3l-5.15-0.35q8.4 2.85 12.6 4.9 9.6 4.7 14.05 10.95 2.9 4.15 2.55 4.3l-4.1-2.4q-3.45-2.25-9.3-4.6-5.55-2.3-7.85-2.55 10.4 7.4 14.85 11.85 11.5 11.5 15.35 25.85 1.65 6.1 1 5.65l-3.4-4.45q-6.1-7.3-8.5-8.6 2.4 4.3 4.3 9.35 3.1 8.4 2.95 15-0.1 6.45-0.7 5.1l-1.15-3.9-1.25-3.1-1.35-2.75 0.85 4.85q0.55 3.4 0.55 5.8l0.1 4.9-0.1 3.7q-0.4 3.5-0.7 3.45-0.35-0.05-1.35-4-1.65-6.3-5.1-12.4l-0.25 10.8q-0.15 3.35-0.9 4.3t-1.3-1.85q-2.3-12.35-12.3-22.8-11.25-11.8-29.1-17.5l3.6 3.3 4.6 4.8 3.45 4.15q0.2 0.65-4.6-2.25-6.65-3.95-11.8-6.1-7.2-3-15.1-4.15 4.9 2 6.9 3.35 2.4 1.55 4.9 4.6 2.8 3.45 2.6 3.65-0.15 0.15-3.75-1.65-6.75-3.4-11.75-4.5-9.1-2-18.55 0.85 6.7 0.45 11 1.4 3.8 0.9 7.65 2.7 3.6 1.7 3.5 2.05l-3.65-0.2-9.65-1.4q-7.1-0.5-12.5 1.45 5.1 0.8 9.25 3.5 2.75 1.75-0.8 1.75l-16.6-0.3 7.05 2.6q2.35 0.85 2.4 1.25l-3.2-0.1-5.6-0.7h-5.3q5.2 2.3 8.95 3l3.05 0.6q0.5 0.3-2.75 0.85-14.05 2.35-23.7 0.2-9.25-2.05-18.45-9.15 1.25 3.2 3.15 5.3 1 1.15 4.35 3.95 2.4 1.95 1.7 2.2l-3.85-0.5q-5-0.9-10.1-4.25-7.8-5.15-11.35-13.85-0.5 2-0.85 6.15-0.45 4.95-0.1 8.2 0.3 2.95-0.6 2.65-0.8-0.3-2.85-3.1-1.55-2.1-2.65-5.25-1.45-4.25-1.25-8.65-1.85 3.8-3.75 5.85-1.65 1.75-6.3 5.25-2.15 1.6-2.4 1.2-0.25-0.25 0.7-2.25 1.7-3.5 3.65-10.65 2.3-8.25 2.3-12.55l-0.1-1.9q-2.85 9.85-5.9 14.2-0.6 0.85-1.2 0.85-0.7 0-0.65-1.05 0.35-5.65-0.3-12.2-1.1-10.4-4.5-18.4-3.3-7.7-3.6-15.05-0.3-8.35 3.75-12.1 7.6-7.05 28.15 3.65 9.6 5 22.05 6.2 15.15 1.5 24.9-4.5 4.75-2.95 16.35-13.15 10.85-9.6 15.95-12.25" fill="#0d131a"/>
  <g fill="#30353a">
   <path d="m164.55 83.85q-0.85 2.15-1.15 3.65l-0.2 1.4 1-1 2.4-2.2q3.05-2.45 6.6-4.35 11.2-6 22.6-3.7-4.7 1.55-8.25 4.05-2 1.5-2.7 2.4l-0.8 0.9 1.2-0.15q9.35-1.35 21.1 1.4 15.05 3.55 23.1 12.4-6.7-3.35-12.4-3.8-4.65-0.35-7.6 1.25-0.7 0.4-1.45 0.75l1.6 0.1 5.05 0.8q5.8 1.3 9.95 3.85l-8.15-0.55-2.8 0.5-1.3 0.45 1.35 0.4 10.2 4q11.05 5.15 16.05 11.1-6.5-3.75-12.75-5.15-3.95-0.9-5.25-0.7l-1.45 0.05 1.2 0.75 3.95 2.9q4.7 3.6 8.85 7.7 13.3 13.05 16.85 26.1-3.6-4.1-6.9-6.25-1.7-1.15-2.7-1.4l-1.25-0.35 0.8 1.05 2.5 5q2.7 7 4 17.4l-1.65-2.85-0.85-1.1-1.05-1.15 0.25 1.5 0.65 4.85q0.6 5.7 0.6 10.2l-0.1 3.25q-1.85-4.85-3.95-8.9l-1.8-3.15-0.75-1.1-0.9 13q-2.7-10.1-10.45-19.1-12-13.9-32.75-19.8l-3.35-0.7q-0.45 0.15 1.35 1.4 3.7 2.7 8.95 8.6-9.7-4.65-13.75-6.2-10.65-4.1-16.8-3.55-4.3 0.4-2.65 1l2.5 0.5q6.3 0.45 13.8 7.55-6.2-2.7-12.65-3.5-10-1.25-18.35 2.55l-1.3 0.5q-0.85 0.5 1.45 0.4 2.6-0.15 8.1 1 5 1.05 8.2 2.2l-9.55-0.45q-6.2 0.3-10.15 2.25l-1.45 0.7 1.65 0.15q5.3 0.4 10.25 3.35l-9.05-0.1-9.7 0.1q-2.2 0.15-1.45 0.5l1.25 0.35 5.9 2.6q-6.95-0.7-10.05-0.25l-1.4 0.2 1.3 0.65q3.2 1.6 8.65 3.2-8.3 1-16.75-0.15-13.65-1.9-23.4-9.15l-1.05-0.75 0.3 1.25q1.15 4.35 6.4 10.15-5.85-1.9-10.6-5.15-7.7-5.3-10.2-12.7l-0.45-1.35-0.4 1.35-1.05 4.15q-0.95 4.6-0.95 8.2 0 1.95 0.4 3.95-2.65-4.25-3.85-10.45-0.75-4.05-0.75-7.9 0-2.25-0.45-2.05-0.4 0.15-1.15 2.2-0.9 2.75-3.35 6.4-3.1 4.7-6.3 6.4 1.95-4.25 3.4-11 1.4-6.6 1.4-11.4 0-2.6-0.55-4.1l-0.45-1.3-0.4 1.35q-3.05 11.15-6.45 15.95l0.05-3.55q0-15.65-5-27.3-3.55-8.3-3.55-15.85 0-7.1 3.5-10.3 3.5-3.25 10.45-2.3 6.85 1 16.7 6.1 9.9 5.2 22.45 6.55 15.5 1.7 25.4-4.4 6.8-4.2 12.2-8.45l7.6-6.6q5.35-5 9.45-7.5-3.1 4-4.8 8.3"/>
   <path d="m239.95 117.5q-5.75-3.3-11.15-4.75l5.6-0.3q3.45 2.55 5.55 5.05"/>
   <path d="m195.05 140.25-3.35-0.7q-0.45 0.15 1.35 1.4 3.7 2.7 8.95 8.6-9.7-4.65-13.75-6.2-10.65-4.1-16.8-3.55-4.3 0.4-2.65 1l2.5 0.5q6.3 0.45 13.8 7.55-6.2-2.7-12.65-3.5-10-1.25-18.35 2.55l-1.3 0.5q-0.85 0.5 1.45 0.4 2.6-0.15 8.1 1 5 1.05 8.2 2.2l-9.55-0.45q-6.2 0.3-10.15 2.25l-1.45 0.7 1.65 0.15q5.3 0.4 10.25 3.35l-9.05-0.1-9.7 0.1q-2.2 0.15-1.45 0.5l1.25 0.35 5.9 2.6-9.35-0.35q-2.25 0.25-0.15 1.25 3.3 1.55 8 2.9-8.15 1-16.5-0.1-13.4-1.8-23.1-8.8-1.75-1.3-1.15 0.6 1.3 4.15 6.25 9.65-5.65-1.8-10.4-5-7.5-5.1-10.15-12.25-0.45-1.1-0.7-1.05-0.3 0-0.6 1.05-1.8 7-1.8 11.75 0 1.95 0.4 3.95-2.65-4.25-3.85-10.45-0.75-4.05-0.75-7.9 0-2.25-0.45-2.05-0.4 0.15-1.15 2.2-0.9 2.75-3.35 6.4-3.1 4.7-6.3 6.4 1.95-4.25 3.4-11 1.4-6.6 1.4-11.4 0-2.6-0.55-4.1l-0.45-1.3-0.4 1.35q-3.05 11.15-6.45 15.95l0.05-3.55q0-15.65-5-27.3-3.55-8.3-3.55-15.85 0-7.1 3.5-10.3 3.55-3.2 10.4-2.25 6.9 0.95 16.7 6.05 4.6 14.75 19.55 25.7 12.25 8.95 30.15 14.45-19.1-1.15-41.4-6.75 10.95 10.35 30.25 13.3 15 2.3 34 0l-4.7-2.65q-1.9-1-3.75-1.55 13.4-4.4 34.35-0.35 24.05 4.65 39.1 18.3-0.5-2.5-2.8-5.65l-3.4-5q5.85 3.35 12.25 11.35 6.2 7.7 9.9 15.9l-0.05 6.3q-1.85-4.85-3.95-8.9l-1.8-3.15-0.75-1.1-0.9 13q-2.7-10.1-10.45-19.1-12-13.9-32.75-19.8"/>
   <path d="m106.35 98.7q6.75 2.75 14.5 3.95 8.3 1.25 13.8 0-4.55 2.9-11.25 4.8l-5.85 1.3 6.35 1.3q7.7 0.8 14.25-1.5-5.7 4.6-8.65 5.9-7.05 3.1-19.2 3.1-18.7-0.05-39-45.85 0.6 0.3 6.6 4.45 7.2 4.85 13.65 8.25 21.05 10.95 33.9 6.6-3.15 2.95-7.75 5.15-6.1 3-11.35 2.55"/>
   <path d="m81.05 78.25q2.6 10.55 10.95 19.6 8.15 8.8 18.65 12.9-2.65-1.45-4.55-3.15l-3.7-4.25q5.15 2.45 12.65 2.85 7.15 0.4 15.05-1.2l-8 2.45-4.55 1.3 7.3 1q8.6 0.5 15.2-1.8-7.05 5.75-11.65 7.25-6.75 2.2-22.55 2.2-18.75-0.05-34.55-45.7l3.15 2.15 6.6 4.4"/>
  </g>
  <path d="m103.45 97.95q-0.3-0.4 3 0 3.35 0.4 8.35-1.45 4.35-1.65 7.65-4-11.4 2.3-26.55-4.6-8.95-4.05-21-12.5l-9.5-5.65 0.25-0.75q0.8-0.45 3.4 0.75 4.15 1.9 6.5 4 11.15 7.8 22.45 12.45 16.15 6.6 27.2 4.1l4.15-0.5q0.5 0.3-1.85 1.9-10 6.65-17.35 7.55 5.3 1.8 13.85 2.25l11.55-0.4 2.75-0.1-3.25 2.25q-2.35 1.6-7.05 3.35l-7.15 2.25q2.85 0.55 8.45 0.05 5.7-0.45 8.85-1.6 3.35-1.2 3.75-0.75 0.4 0.55-2.55 3.15-4.65 4.05-10.35 6.3-8.65 3.4-18.7 2.25-5.85-0.65-5.5-1.1l5.5-0.35q8.35 0.1 14-1.45 5.5-1.5 11.95-5.45l-11.9 0.75q-4.05-0.3-7.05-1.2-1.95-0.6-2-0.8-0.1-0.3 2.15-0.6 6.55-0.95 13.4-4.2-5.3 0.4-14.35-1.55-7.55-1.6-10.4-2.95-2.5-1.15-2.65-1.4" fill="#0d131a"/>
  <path d="m82.8 30.95q4.05-3.55 6.9-4.95 2.4-1.15 3.25-0.6 1.1 0.7 0.45 3.6l-2 6.7q-2.05 6.85-0.55 28.9l0.35 6.3q0.3 4.3-4.55 9.05-3.9 3.75-7.6 5.15-2.45 0.95-5.35-0.4-2.85-1.35-5.5-4.65-1.9-2.4-2.8-4.8-1.05-2.6-0.3-3.75 0.5-0.75 0.15-2.3l-0.8-2.7q-0.85-2.9-0.75-4.2 0.25-3.2 5.55-13.1 6.5-12.1 13.55-18.25" fill="#0d131a"/>
  <path d="m89.65 35.95q-2.05 6.6-0.35 31.15l0.15 2.05q0.25 3.95-4.05 9.1-3.8 4.5-6.8 5.6-2.6 1-5.75-1.2-2-1.35-3.6-3.45-1.8-2.2-2.65-4.4-0.85-2-0.45-2.6 0.75-1.1 0.65-2.8l-0.6-2.9q-0.6-2.15-0.5-2.9 0.2-3.1 5.25-13.15 6.25-12.45 13.05-18.35 3.65-3.15 5.6-4.15 1.15-0.55 1.5-0.3 1 0.65-1.45 8.3" fill="#d3d9db"/>
  <path d="m73.05 59q-1.4 13.55 3.65 25.15-3.65-0.2-7.45-4.95-1.8-2.2-2.65-4.4-0.85-2-0.45-2.6 0.75-1.1 0.65-2.8l-0.6-2.9q-0.6-2.15-0.5-2.9 0.2-2.6 4.45-11.5 5.3-11 11.2-17.4-7 11.05-8.3 24.3" fill="#adb2b4"/>
  <path d="m50.05 64.35q12.85 0.1 23.8 10 12.4 11.25 12.4 28 0 7.85-3.4 13.25l-2.4 3.65q-1.05 1.95-1.05 4 0 1.85 1.55 6.6t1.55 6.7q0 3.85-3.1 7.35-3.7 4.2-9.6 4.35l-4.5-0.35-0.05 0.4q0 1.25 0.6 3.05l0.45 2.35q0 1.65-2.05 3.1-2.45 1.75-6.45 1.75-6.4 0-14.15-5.7-7.2-5.25-13.9-14.1-6.55-8.65-10.5-17.95-4.2-9.75-4.2-17.3-0.05-17.15 9.65-28.1 9.8-11.05 25.35-11.05" fill="#0d131a"/>
  <path d="m19.75 88.65q2.8-6.2 6.05-10.2 1.85-2.2 4.65-4.5l1.5-1.35v0.05q1.6-1.8 5.3-3.45 4.2-1.95 9.05-2.6 12.95-1.75 22.75 6.35 16.75 13.75 15.1 34.2-0.2 2.65-1.3 5.2l-2.2 3.95q-1.55 2.45-2.1 3.8-0.85 2.2-0.55 4.35l1.25 5.6q1 4.05 1.2 5.8 0.35 3-0.7 4.25l-0.8 0.95q-2.25 2.75-3.85 3.85-2.8 1.85-6.55 1.85-5.05 0-9.45-3.1-2.9-2.1-6.9-6.85-4.5-5.35-6.2-6.85-3.55-3.1-7.25-3.1-2.65 0-4.1 1.25-1.35 1.2-1.3 3.1 0.15 5.1 5.2 11.65 5.65 7.25 14 11.05 4.2 1.9 7.85 2.05 3.35 0.15 4.75-1.1-1.15 1.15-2.6 1.65l-5.15 0.55q-6.7-0.35-15.7-8.15-9.2-8.05-17.15-20.8-13.05-21-4.8-39.45" fill="#d3d9db"/>
  <path d="m38.8 67.2q6.3-2.3 13.05-2.05h0.2l0.1 0.1q7 6.1 10.85 22 4.15 17.3-1.4 27.05l-0.75 0.95q-0.35 0-0.8-1.1-4.15-10.35-12.65-18.6-8.35-8.05-17.95-11.3l0.45-0.55q1.35-1.8 1.35-4.7l-0.35-3.7-0.25-2.2q0-0.9 0.35-1.3 2.4-2.65 7.8-4.6" fill="#0d131a"/>
  <path d="m31.05 83.7q1.2-1.95 1.2-4.65 0-1.6-0.4-3.9l-0.2-2.1 0.1-0.55q2.2-2.45 7.4-4.35 6.05-2.25 12.5-2.05 6.4 5.75 9.75 21.95 3.35 16.25-0.3 24.15-3.8-10-13.05-18.35-8.45-7.6-17-10.15" fill="#30353a"/>
  <path d="m72.6 90.25q-2.5-10.7-8.65-21.05l-0.9-1.5 1.55 0.8q2.6 1.35 5.25 3.5 13.2 10.85 15.3 26.15l0.05 1.55q-1.45 4.2-3.4 7.15l-5.75 7.05q-0.35 0.5-0.75 0.3-0.45-0.2-0.45-0.75 0.1-13.35-2.25-23.2" fill="#0d131a"/>
  <path d="m65.7 70.3q2.15 1.35 3.5 2.45 12.85 10.6 14.95 25.4-1.25 3.55-3.4 7l-4.55 6.45q0.25-12.35-2.1-22-2.5-10.35-8.4-19.3" fill="#30353a"/>
  <path d="m60.55 146.2q1.75 0.85 3.4 1.05v0.05q0 1.25 0.75 3.6l0.45 2.05-0.25 0.55-3.8 0.35q1.65-0.75 1.45-3.15-0.2-2.3-2-4.5" fill="#b7272d"/>
  <path d="m59.25 146.15q2.45 2.85 2.5 5.15 0.1 2.25-2.05 2.5-4.3-0.25-6.8-1.3-4.55-2.05-9.25-7.5-3.2-3.7-7.6-10.5-0.95-1.7-0.8-3.6 0.1-1.8 0.95-2.2 1.55-0.75 5.3 1.05 2.05 1 5.7 3.1l1.45 1.5q3.1 4.85 5.6 7.65t5 4.15" fill="#ed8599"/>
  <path d="m48.65 134.35q3.1 4.85 5.6 7.65t5 4.15q1.5 1.8 2.15 3.5-2.9-3.65-10.4-7-7.25-3.3-11.7-3.3l-3.25-4.85q-0.95-1.7-0.8-3.6 0.1-1.8 0.95-2.2 1.55-0.75 5.3 1.05 2.05 1 5.7 3.1l1.45 1.5" fill="#ce7486"/>
  <path d="m41.35 128.45q2 0.7 4.45 2.6 2.45 1.85 3.4 3.35 3.75 5.85 9.5 9.65l0.85 1.95q-1.5-0.3-9.45-7.95-4.25-4.25-5.5-5.05-3.9-2.55-6.15-2.75-1.95-0.2-1.85 1.15 0.15 2.8 5.75 9.75 5.55 7 9.75 9.6 3.05 1.9 6.75 2.65 3.6 0.7 6.5 0l0.8-0.5q1.1 1.95-2.95 2.7-4.5 0.8-10.7-2-4.65-2.1-9.5-7.75-3.15-3.65-7.8-10.8-2.35-3.75-0.75-5.7 1-1.3 3.5-1.35 1.95-0.1 3.4 0.45" fill="#0d131a"/>
  <path d="m41.9 130.25q-2.1-1.05-3.6-1-1 0.05-1.65 0.6-0.7 0.55-0.7 1.45 0 2.05 2.35 6.05 2.55 4.35 6.3 8.15 10.1 10.25 20.55 8.75-8.8 3.05-19.95-6.7-4.5-3.95-7.45-8.5-2.95-4.65-2.95-7.8 0-1.25 0.95-2.1 1.1-1.05 3.15-1.05 5.1 0 11.6 8.95l-5.35-4.85-3.25-1.95" fill="#30353a"/>
  <g fill="#0d131a">
   <path d="m47.55 134.9-2.5 1.65-0.45 0.15-0.15-0.4-0.3-4.15 3.4 2.75"/>
   <path d="m50.45 138.35-2.5 1.4q-0.6 0.3-0.65-0.3l-0.25-5 3.5 3.35 0.5-0.25 0.05 0.75 3.75 3.6-3.35 1.65q-0.7 0.25-0.75-0.4l-0.1-4.65-0.2-0.15"/>
   <path d="m66.2 147.8q0.8-0.55 1-0.35 0.25 0.2-0.1 1.05l-1.3 4.3q-0.45 1.35-1.4-1.05t-0.2-2.8l2-1.15"/>
  </g>
  <path d="m65.25 151.85q-0.3 0.75-0.6-0.85-0.3-1.65 0.05-1.8l1.8-1.05-1.25 3.7" fill="#fff"/>
  <g fill="#0d131a">
   <path d="m42.85 131.85 0.4-0.1-0.55 3.05q-1.05 5.3-1.5 5.5l-0.15 0.05-0.1-0.1q-1.3-0.9-2.3-2.8-0.85-1.65-0.65-1.9l1.7-1.6q1.7-1.45 3.15-2.1"/>
   <path d="m49.2 142q0.75-0.6 0.65 0.25l-0.3 7.35-0.4-0.35-4.05-4.35-3.9-4.5v-0.1q0-0.5 1.05-1.35 0.85-0.65 1.95-1.25 0.6-0.3 0.75-0.25v0.65l-1.05 4.75q0.6-0.9 2.45-2.15 0.55-0.35 0.65-0.25v0.75l-0.6 4q0.5-0.9 2.8-3.2"/>
   <path d="m52.2 143.7q0.3-0.85 0.6-0.05 0.95 2.3 1.35 4.5 0.6 3.05-0.4 3.75-3.9-1.95-4.6-2.95l-0.1-0.15 0.1-0.15q2.2-2.35 3.05-4.95"/>
  </g>
  <g fill="#fff">
   <path d="m45.05 135.75-0.35-2.65 2.1 1.75-1.75 0.9"/>
   <path d="m47.85 139.05-0.3-3.5 2.5 2.45-2.2 1.05"/>
   <path d="m51.25 143.05-0.15-4.05 2.95 2.85-2.8 1.2"/>
   <path d="m42.15 134.7-1.05 4.9-2.35-3.4q2.5-2.75 3.85-3.7l-0.45 2.2"/>
   <path d="m41.65 140.3-0.1-0.1q0.75-0.75 2.75-1.85l-0.8 4.2-1.85-2.2v-0.05"/>
   <path d="m46.5 141.15-0.6 4.15-1.85-2.05q1.65-1.65 2.45-2.1"/>
   <path d="m49.05 148.35-2.65-2.55q1.65-2.05 2.7-2.9l-0.05 5.45"/>
   <path d="m53.5 151.5-1.4-0.75-2.3-1.7-0.15-0.25q1.5-0.45 2.85-4.6 1.1 3.2 1.1 6.35l-0.1 0.95"/>
  </g>
  <path d="m53.85 141.1 0.45 0.6 5.1 3.75-2.4 1.9-3.65 2.15-0.8-0.05q-0.25-0.25-0.15-0.85l1.45-7.5" fill="#0d131a"/>
  <path d="m53.7 145.4 0.6-3.4 3.85 3.3q-3.2 2.95-5.35 3.8l0.9-3.7" fill="#fff"/>
  <path d="m68.7 147.35 0.4-0.2 1.85 0.05 2.55-0.95 0.6 0.7q0.75 0.65-1.6 2.1-2 1.2-3.75 1.8l-0.9-0.05q-0.2-0.2 0.05-0.7l0.8-2.75" fill="#0d131a"/>
  <path d="m72.35 147.9q-1.3 1.4-3.9 2.45l0.65-2.05 3.25-0.4" fill="#fff"/>
  <path d="m65.75 137.15q0.75-1.2 2.65-1.55 2.2-0.35 7.55 0.1 2.75 0.25 4.2 1.35 1.25 0.9 1.25 2.2 0 2.6-2.35 4.15-2.3 1.5-6.05 1.45-4.6-0.05-6.7-2.95-1.9-2.55-0.55-4.75" fill="#0d131a"/>
  <path d="m73.65 143.35q-2.5 0-4.4-0.9-1.85-0.85-2.4-2.15-0.6-1.4 0.25-2.75 0.95-1.5 8.9-0.7 2.35 0.2 3.55 1 1.05 0.65 0.9 1.55-0.35 3.9-6.8 3.95" fill="#d83338"/>
  <path d="m35.5 120.55q-1.75 0.3-5.05 1.6-3.75 1.45-5.4 2.75-0.7 0.55-0.75-0.3-0.15-3.55 1.85-8.25 2.05-4.75 4.75-7.2l0.5-0.2q0.3 0.05 0.25 0.55-0.25 6.4 4.3 9.85l0.6 0.7q0 0.35-1.05 0.5" fill="#0d131a"/>
  <path d="m30.75 110.65q-0.25 2.1 0.8 4.65 1.05 2.5 2.85 4.2-2 0.35-4.35 1.3-2.6 1-4.3 2.15 0.25-2.8 1.6-6.3 1.5-3.8 3.4-6" fill="#30353a"/>
  <path d="m46.55 105.4q3.45 5.15 3.1 12.8l-0.25 0.8q-0.25-0.05-0.4-0.8l-0.25-1.2q-2.45 1.4-5.6 1.15-2.85-0.25-4.75-1.55-3.25-2.3-3.6-7.15-0.35-4.7 2.2-9l-0.9-0.65 1.35-0.15q5.7 0.7 9.1 5.75" fill="#0d131a"/>
  <path d="m36.5 111.05q-1.35-5 1.5-10.3 1.85 0.5 3.65 1.8-3.55 1.8-3.25 7.4 0.25 5.65 4.25 7.4-4.8-1.2-6.15-6.3" fill="#ffe100"/>
  <path d="m42.7 103.35q4.65 3.95 5.9 12.7-3.75 1.6-6.3-0.05-2.75-1.8-2.75-6.65 0-1.45 0.7-3.05 0.85-2.05 2.45-2.95" fill="#d83338"/>
  <path d="m44.85 107.75q0.65-1.25 1.35-0.5 0.65 0.8 0.25 2l-1.4 3.4q-0.9 1.7-1.3 1.5-0.55-0.3-0.1-2.65 0.45-2.25 1.2-3.75" fill="#0d131a"/>
  <path d="m233.25 122.7q-0.95-0.1-5.55-2.85-4.5-2.65-5.75-2.65 3.7 2.65 9 8.1l4.6 4.95q-3.95-2.45-8.75-4.9-9.65-4.9-13.85-4.9l7.45 6.65q4.4 4.25 6.8 7.3-3.1-1.3-7.1-1.65l-3.4-0.05 5.6 5.35q6.2 5.85 9.35 8.5l-10-3.75q-6.4-2.35-10.05-3.1 0.15 0.75 4.3 4.4l4.15 3.5q-5.25-1.95-11.85-4.05-13.1-4.15-19.5-4.65 2.05 0.05 1.8-0.5-0.2-0.55-2.95-1.2-7.7-1.8-24.8-1.95 2.95-1.45 7-1.9 5.75-0.6 16.15 0.4-1.2-1.4-9.9-3.05-7.95-1.5-11.1-1.35l12.75-0.6q8.45 0.05 19.8 1.9-2.45-2.25-10.4-4.9l-7.5-2.2h17.9l-5.1-3.25q-5.95-3.45-10.1-4.45 2.5-0.3 9.05 1.2 6.85 1.5 16.25 4.6-1.55-2-10.7-6.3-9.25-4.45-16.1-6.3 11.1 1 28.7 4.25-0.95-1.35-5.5-3.55l-8.8-4.4 10.3 1.3q4.3 0.75 9.95 2.4-4.4-3.15-10.65-5.3 7.75 0.55 17.75 4.05 8.85 3.1 12.5 5.75-3.7-1.05-6.2-0.8l-4.9-1-1.95-0.1-1.45 0.05 1.2 0.75 5.2 4.7 6.35 5.55" fill="#878f93"/>
  <path d="m20.9 92.2-0.95 1.05q-1.05 1.55-1.85 3.85-2.4 7.3-0.7 19.6l1.15 9.65q0.2 3.1-0.5 3.25-1.05 0.2-3.35-8.05-2.55-9.1-1.85-15.3 0.8-7.1 1.55-10.55 0.8-3.5 2.15-5.7l4.35 2.2" fill="#30353a"/>
  <path d="m19.85 91.45q0.2-0.2 0.9 0.45 0.75 0.7 0.55 0.9-5.55 5.6-3.25 22.8 2.4 17.85 11.55 31.65l-2.05-0.65q-9.4-15-11.3-32.6-1.75-16.3 3.6-22.55" fill="#0d131a"/>
  <path d="m2.85 32.15q1.05-5.4 2.45-6.5 1.5-1.3 2.65 3.65 1.25 5.7 7.5 18.4 6.45 13.25 8.9 14.15l4.2 0.3q2.15 0 4 2.2 2.05 2.45 1.9 14.1-0.15 10.5-0.95 12.15-0.55 1.1-5.3 2.6l-5.45 0.2q-0.4-0.95-6.1-3.6-6.6-3.05-9.05-5.2-3.2-2.75-4.6-25.25-1.35-20.8-0.15-27.2" fill="#d3d9db"/>
  <g fill="#0d131a">
   <path d="m5 27.25q-0.85 1.75-1.5 5.05-1.25 6.75 0.15 27.4 1.5 21.85 4.4 24.4 2.35 2.05 8.7 4.85 6.65 2.95 6.65 4.25 0 0.85-0.3 1-0.4 0.2-0.95-0.55-1.05-1.35-5.95-3.5l-5.7-2.5q-3.7-1.7-5.2-3-3.45-2.95-4.2-25.35-0.7-19.9 0.55-26.65 0.7-3.75 1.85-6.3 1.2-2.65 2.3-2.7 1.55 0 2.75 5.5 1.35 5.9 7.55 18.45 6.3 12.85 8.45 13.65l2.35 0.05 2.15-0.25 2.1 0.1q1.1 0.4 2.55 2.15 3.5 4.2 0.4 26.85-0.5 1.15-1 1.4-0.55 0.25-0.25-1.1 2.15-22.1-0.8-25.65-1.2-1.4-2.25-1.8l-2.1-0.15-3.55-0.4q-2.7-0.95-9.3-14.5-6.25-12.8-7.55-18.5-0.45-2-1-2.9l-0.45-0.5q-0.3 0-0.85 1.2"/>
   <path d="m5.8 43.85q0.1-1.95 0.85-1.25l0.7 1.1q1.45 4.35 7.55 12.75 4.2 5.8 7.25 9.25 0.95 1.1 2.35 1.3 1 0.2 1.45 0.5 0.85 0.5 1.6 1.7 1.5 2.55 1.5 7.8 0 5.45-1.8 8.75-0.55 0.95-1.75 1-2.6 0.25-8.25-3.5-5-3.35-7-5.8-1.7-2.15-3.25-16.85-1.45-13.15-1.2-16.75"/>
   <path d="m7.3 45.75q2.1 4.55 7.7 12.15 3.85 5.25 6.5 8.3l1.55 1.25 1.35 0.35 1.2 0.4 1.25 1.45q1.35 2.3 1.35 7.2 0 5.45-1.7 8.5-0.3 0.55-1.05 0.6-2.3 0.2-7.25-3.1-4.5-3-6.5-5.45-1.55-1.95-3-13.2-1.4-10.45-1.4-17.7v-0.75"/>
  </g>
 </g>
</svg>
