<?xml version="1.0" encoding="UTF-8"?>
<!-- Created with Inkscape (http://www.inkscape.org/) -->
<svg version="1.1" viewBox="0 0 387.65 312.24" xmlns="http://www.w3.org/2000/svg">
 <defs>
  <clipPath id="clipPath16951">
   <path transform="translate(-717.19 -330.69)" d="m706.68 343.72h11.177v-15.752h-11.177z"/>
  </clipPath>
  <clipPath id="clipPath16952">
   <path transform="translate(-709.71 -343.06)" d="m706.68 343.72h11.177v-15.752h-11.177z"/>
  </clipPath>
  <clipPath id="clipPath16968">
   <path transform="translate(-717.54 -329.47)" d="m707.91 332.45h9.945v-4.481h-9.945z"/>
  </clipPath>
 </defs>
 <g transform="translate(65.441 -3.7135)">
  <path d="m285.41 100.9c3.11-4.8221 7.8452-28 4.6593-32.009-5.082 2.1685-13.794 17.988-14.292 26.396 6.2633 6.3607 10.262 13.707 12.277 21.693 8.1161 1.6464 30.102 2.2422 32.529-2.7092-2.2423-5.938-23.059-14.802-35.173-13.372" fill="#eeeeef"/>
  <g fill="#e5d8b2">
   <path d="m145.9 84.535c0.15365-1.6587 0.43309-4.4861 0.7249-7.4769-2.276 0.57438-5.8191 1.3423-8.0402 1.8 2.6539 1.9842 5.3529 4.096 7.3141 5.6781"/>
   <path d="m293.15 168.7c-0.97676-2.6539-7.0324-7.8452-9.5247-9.9366-2.0795 5.2555-4.6704 10.522-7.7152 15.734-20.913-4.3021-46.215 4.1608-52.63 22.95 4.1611 2.1992 8.1486 4.3994 9.2863 5.2337 1.0628-3.2617 2.9917-12.277 5.418-15.755 2.4911 2.9027 13.025 11.952 14.65 13.61 3.3916-3.7599 17.251-8.7012 21.509-7.8126-0.24574 2.9026-1.2778 10.652-1.5051 11.54 2.015-0.81398 6.8266-1.2471 11.746-1.2778 2.4911-3.001 8.918-13.177 9.9907-15.885 1.2778-3.1966-0.21502-15.636-1.2256-18.399"/>
   <path d="m235.58 164.38c-27.48-3.4457-33.212-27.675-27.328-38.196-0.67268-0.89999-2.8596-3.8902-3.2832-4.4861-14.509 1.5389-26.537-10.738-21.888-24.511-3.5649-1.2256-13.794-0.7249-16.644 1.4959 2.058-0.215 3.4998-0.09222 3.6408 0.4116 0.30718 1.1058-4.2151 11.508-9.763 15.149-1.6894-4.3561-2.9026-8.528-3.4893-12.386-33.927 36.766 1.8737 100.48 55.588 95.941 0.30716-2.5249 0.58361-5.1471 0.63889-5.4831 0.63889 0.30716 1.5389 0.71568 2.5801 1.2256 8.5169-8.2786 16.07-23.406 19.949-29.159"/>
  </g>
  <g>
   <path d="m213.32 229.5c-3.3483-0.90919-8.5169-2.2546-10.229-2.7736 0.60818-1.5819 1.8-5.3096 2.3836-6.5775-4.1936-3.2399-8.2245-6.9784-10.24-8.8963 2.8504-1.6249 13.014-7.1083 16.525-8.7012 0.12285-0.55289 0.39009-2.6232 0.63888-4.757-57.073 4.8329-87.987-59.543-55.631-96.234 3.2832-1.6464 7.0002-2.5894 9.6657-2.8812 2.8504-2.2208 13.079-2.7184 16.644-1.4959 0.69419-2.058 1.7539-4.15 3.2507-6.2307-0.63888-1.9167-0.83546-3.4024-0.47608-4.3233-0.5099-2.1225-1.7232-5.3857-2.19-6.5668-0.5191 0.39011-7.076 5.0712-8.3544 5.3639 0.12285-0.75869 0.84469-8.5387 0.7249-9.9474-2.1686 0.79247-10.944 5.1793-12.223 5.8296-0.34709-0.8232-6.0357-14.834-7.3466-16.557-1.2563 1.0413-5.0497 15.95-8.582 21.423-0.49759-0.42388-15.636-11.789-16.655-12.353-1.1058 4.3887-3.251 17.283-3.9009 22.864-2.7522-0.98598-16.07-5.0494-18.887-5.8947 0.0614 4.5512 0.96449 20.307 1.7447 26.602-4.8436-1.0628-10.337-1.8952-11.107-1.8952 1.5481 5.0927 3.5326 11.67 5.9816 14.314-7.1842 4.0419-19.971 11.844-20.415 12.483 3.0132 3.305 14.954 11.822 19.256 14.943-3.5649 2.3744-7.1516 5.0061-9.5898 7.3792 1.4406 0.81397 5.3529 2.7306 8.1919 4.6593-0.85697 1.7447-5.0494 9.9366-6.5883 13.642 3.771 0.3563 15.626-1.6034 23.384-5.2988-3.4783 5.2011-9.1457 26.949-11.475 38.121 1.6802-0.18431 8.8093-3.4457 12.375-5.743-0.7249 1.9075-1.4959 6.4365-1.8952 10.565 1.8737-0.15364 13.924-4.3128 18.952-6.415 0.18429 5.4398 1.3638 23.113 1.6249 30.362 6.1764-2.2638 17.662-9.5247 23.86-15.333-0.24574 5.2229 3.6085 25.984 6.9568 31.695 3.3591-1.5604 15.409-11.833 20.816-17.597 0.33479 4.8869 4.7895 16.135 7.2167 21.888 0.58361 1.4099 1.0628 2.4911 1.3208 3.0655 1.972-2.058 7.6501-8.2463 11.269-15.95 0.83548 1.8215 4.4428 6.3714 7.5417 8.2786 0.71568-1.6372 2.6876-5.8296 3.8902-8.3977-4.0094-10.619-7.3577-19.667-8.4303-22.658" fill="#eeeeef"/>
   <path d="m216.92 165.84c-1.115-0.4761-9.0047 2.3406-13.241 5.3962 4.757 3.5652 9.3837 6.2089 13.599 7.6068 1.2041-3.7817 0.69419-12.559-0.3563-13.003" fill="#fff"/>
   <path d="m170.07 99.093c-0.8662-3.1207-12.158 1.8952-13.306 2.4696 0.0103 0.0922 0.0306 0.1843 0.0614 0.30716 0.58667 3.8466 1.8 8.0295 3.4893 12.385 5.5479-3.6408 10.067-14.054 9.7631-15.148" fill="#fff"/>
   <path d="m208.25 126.18c-5.884 10.522-0.15365 34.751 27.328 38.197 0.8877-1.3208 1.5819-2.1563 2.058-2.2853 0.53139-0.15365 1.1058-0.24574 1.7017-0.30716-7.3684-6.1549-21.184-22.279-31.088-35.618" fill="#806047"/>
   <path d="m186.33 90.946c-9.4381 13.198-1.4959 32.887 18.638 30.752-0.69417-0.94298-16.59-24.608-18.638-30.752" fill="#806047"/>
   <path d="m288.05 116.98c-4.627-18.378-20.859-35.444-55.989-42.195 10.305 2.5586 20.903 7.5527 30.254 15.441 28.455 24.001 6.7833 68.19-3.4239 75.201-4.2588 0.12285-15.387-4.9953-21.249-3.3376-3.5108 5.9706-13.491 23.167-22.008 31.446 2.147 1.0505 4.9302 2.4818 7.6501 3.912 6.4147-18.8 31.706-27.252 52.63-22.951 9.3837-16.124 17.608-35.758 12.136-57.517" fill="#eeeeef"/>
   <path d="m90.929 172.56c-13.675-10.717-18.139-39.258-10.814-54.732-3.446 0.36858-6.7182 0.37781-8.3762-0.0217-4.1175-1.0075-3.6626-6.9458-1.6034-10.326 2.5586-4.2152 9.9255-7.065 12.786-8.2463 0.75869-0.30716 1.3116-1.7877 1.6464-3.3373-3.0132-0.46688-11.638-2.1563-14.607-2.9579-2.2331 2.8289-6.0464 6.8699-7.0109 9.7305 2.4174 2.1778 7.596 9.1349 3.4457 13.556-2.8381 3.0132-10.598-0.7249-16.08-5.2555-26.981 37.362-21.65 92.463 2.4819 122.81 26.678 33.548 65.189 44.091 104.77 38.684-48.23-5.3747-88.118-58.048-66.641-99.907" fill="#e5d8b2"/>
   <path d="m-49.592 210.59c0.88861-1.2256 10.803-10.598 12.266-15.344-1.0837-1.0843-7.4118-3.8902-9.7089-5.1256 1.2569-0.96447 10.597-5.992 12.971-7.5742-0.50926-0.84469-2.8283-11.508-2.3405-16.243h0.26108c-3.9226-1.8645-11.529-2.6877-14.813-1.5604-6.469 2.2116-16.395 37.004-10.663 44.124 4.6594 5.7863 16.59 9.243 23.926 9.7849 0.48777-1.0413 0.99705-2.1778 1.3328-2.9794-2.9797-1.3638-8.7771-3.8143-13.231-5.082" fill="#e5d8b2"/>
   <path d="m285.56 223.15c2.3835-1.4529 5.7537-4.0201 7.4876-5.9273-0.3563-0.82318-2.2115-2.7736-6.4365-5.8188 1.8522-1.4958 5.8514-5.1904 9.3622-7.5417-6.8484-1.6249-18.551-1.5389-23.34 0.40238 0.21501-0.88769 1.2686-8.6364 1.5051-11.54-4.2585-0.88771-18.118 4.0526-21.509 7.8126-1.6249-1.6587-12.158-10.706-14.65-13.61-2.4266 3.4786-4.3558 12.494-5.418 15.755-1.1365-0.83547-18.876-10.077-19.515-10.359-0.0306 0.32561-1.1611 9.6765-1.2778 10.229-3.5108 1.5942-13.675 7.065-16.525 8.7012 2.0058 1.9167 6.0354 5.6563 10.24 8.8963-0.58361 1.2686-1.7877 4.9953-2.3836 6.5775 1.7016 0.5191 6.8699 1.8645 10.218 2.7736 1.072 2.9917 4.432 12.038 8.4303 22.658-1.2041 2.5556-3.1748 6.7615-3.8902 8.3977-3.0882-1.9075-6.7071-6.4691-7.5417-8.2786-3.6082 7.7042-9.2863 13.892-11.269 15.95-0.24573-0.58361-0.73718-1.6587-1.3208-3.0655-13.295 6.7182-27.036 8.7663-40.158 7.3033-2.4174 0.32559-4.898 0.58667-7.4443 0.77098 74.486 44.243 146.36 50.094 152.17 27.144 3.11-12.331-6.0464-54.169-16.731-77.228" fill="#806047"/>
   <path d="m16.524 162.68c-0.18429-1.3668-0.53138-3.2617-0.8877-4.3128 0.80169-0.39009 2.1348-1.3761 3.0347-1.6372 0.12285 0.70341 2.8596 4.0201 4.4427 6.0139-2.2116-0.21501-4.4102-0.21501-6.5883-0.0614m36.268 71.083c-24.132-30.341-29.452-85.441-2.4818-122.8-3.2617-2.6876-5.7322-5.6563-5.8514-7.6283-0.15365-2.6662 2.8074-7.6937 6.1005-12.169-6.5557-5.6023-6.1331-10.998-3.4024-15.626-16.341 1.5942-53.042 6.881-65.481 18.865-12.591 12.147-15.983 29.3-13.989 45.922-2.1455 1.8645-7.6718 5.9706-9.8282 6.9676 1.5386 2.3283 10.966 6.7508 11.161 6.7615 0.39009 0.54059-0.31422 2.058-0.50928 3.0562 4.6378 1.7876 6.4365 4.0744 8.0619 6.8917-2.6655 1.7017-13.762 2.015-13.848 2.0272-0.47672 4.7244 2.7088 15.669 3.2074 16.514-2.3731 1.5819-11.703 6.6101-12.971 7.5742 2.308 1.2471 8.6254 4.0526 9.7198 5.1256-1.463 4.7459-11.389 14.13-12.277 15.344 4.4536 1.2778 10.251 3.7277 13.241 5.082-0.33604 0.80169-2.4379 5.2773-2.6115 5.5264 3.0991 0.7249 5.7322 1.4406 6.8591 1.8522 0.10745 2.276-0.47672 6.9894-0.56333 7.596 1.9397 0.5191 7.2384 1.029 8.4845 0.88768 0.35753 2.0058 1.5171 5.5587 2.2539 6.5883 4.1935-1.2778 11.93-3.9986 14.759-5.1904 25.399 19.385 63.011 29.939 87.738 24.814-10.208-5.9706-19.711-13.838-27.772-23.98" fill="#806047"/>
  </g>
  <g fill="#e5d8b2">
   <path d="m99.261 99.285c-2.8934 0.84468-7.2167 1.9627-9.8933 3.4568 0.77097-3.446 2.6324-12.624 2.8812-13.361-2.7522-0.215-10.489-0.18429-13.924 0.12285 1.1058-4.8003 2.5249-9.5573 4.2151-11.8-2.6754-0.82318-16.481-2.6876-17.261-2.6324 1.9382-2.9917 10.857-20.946 11.475-22.105-3.4242-4.9413-7.8885-9.5358-11.302-13.068-7.6609 1.9842-16.243 5.7863-17.944 7.585-1.972 2.0795-2.2331 10.164-1.9935 13.317-4.1718 6.1656-0.35632 13.198 2.8934 12.851-3.4783 4.6811-4.7892 11.584 2.147 17.511-3.2832 4.4753-6.2522 9.5032-6.0897 12.169 0.24572 4.0527 16.785 18.367 21.932 12.884 4.15-4.421-1.029-11.378-3.4353-13.556 0.95219-2.8597 4.768-6.9025 7.0002-9.7308 2.9702 0.79247 11.594 2.4911 14.607 2.9579-0.32559 1.5481-0.88768 3.0347-1.6464 3.3376-2.8596 1.1826-10.218 4.0309-12.786 8.246-2.058 3.3809-2.5126 9.3082 1.6034 10.327 3.8576 0.94297 16.416-0.35631 19.646-3.1966 2.915-2.5586 7.7693-8.7123 9.1564-12.537-0.5529-1.158-1.0075-2.147-1.2778-2.7859"/>
   <path d="m-38.223 155.78c-2.0804 0.3471-4.6053 4.3994-5.4721 8.9829 1.3435 0.30716 14.531 0.986 20.231-1.0505-2.1129-4.5076-11.703-8.9288-14.758-7.9318"/>
   <path d="m262.31 90.225c-12.808-10.803-25.453-15.268-40.331-17.077-20.545-2.5034-34.48 4.3021-36.745 15.105 3.9442 11.811 38.446 60.183 54.125 73.543 6.1546-0.5621 18.193 4.941 20.166 2.915 20.068-20.631 23.004-57.43 2.7859-74.486"/>
  </g>
  <g>
   <path d="m216.73 137.48c-1.3884 7.9536 3.4132 19.732 12.84 15.539z" fill="#fff"/>
   <path d="m189.95 98.424c-3.771 8.8637 0.88768 17.847 10.196 16.828l-10.218-16.806" fill="#fff"/>
   <path d="m192.1 123.75c19.049 3.489 22.365 23.438 13.599 31.229-6.5668 5.8514-21.249 4.4535-34.036-9.7523-12.591-13.989-8.7445-29.322-0.83548-34.762 9.243-6.3714 19.613 3.4893 21.271 13.285" fill="#f09cb4"/>
   <path d="m163.02 5.7311c-12.754-3.0347-50.105 9.4596-67.313 21.357-4.1826-2.2638-16.232-8.0617-20.87-9.1454 0.9307 3.3698 3.5544 11.454 5.9816 14.097-4.3994 0.48837-14.325 1.9289-19.862 2.8812 0.86619 1.2041 2.5034 2.9149 4.5076 4.9738 3.4135 3.5434 7.867 8.1268 11.291 13.079-0.6174 1.1488-9.525 19.115-11.475 22.094 0.7802-0.0308 14.596 1.8214 17.262 2.6446-1.6894 2.2423-3.11 7.0002-4.2152 11.789 3.4457-0.30716 11.172-0.34709 13.924-0.12285-0.24574 0.73718-2.101 9.9148-2.8812 13.372 2.6754-1.4959 6.9998-2.6109 9.8933-3.4568 0.27644 0.6389 5.4069 12.331 6.0028 13.794l4.1829-3.8469c-0.51908-6.9891-0.95525-15.344-0.99826-18.454 2.8167 0.8447 16.135 4.9087 18.887 5.8947 0.63889-5.5805 2.7951-18.475 3.9009-22.864 1.0075 0.5621 2.3405 1.4406 3.8143 2.4696 3.435-2.233 8.1919-5.9924 12.711-9.9584-0.24574 1.9505-1.7017 16.546-1.8645 18.204 0.81397 0.65117 1.4959 1.2133 1.9934 1.6372 3.5326-5.4613 7.3252-20.382 8.5713-21.412 1.3208 1.7232 6.9999 15.723 7.3577 16.546 1.2686-0.65119 10.056-5.0387 12.223-5.8188 0.12285 1.3976-0.61738 9.189-0.7249 9.9474 1.2778-0.30716 7.8344-4.9735 8.3544-5.3636 0.45459 1.1703 1.6802 4.4317 2.19 6.5557 0-0.02173 0.0103-0.06142 0.0216-0.06142 1.7109-3.9879 5.0819-7.206 9.5898-9.5358 4.3125-2.2208 9.6439-3.6408 15.604-4.1175-7.5743-35.347-33.169-63.618-48.057-67.161" fill="#806047"/>
  </g>
  <g transform="matrix(8.1269 0 0 8.1269 -7580.9 -2623.7)" fill="#e5d8b2">
   <path transform="matrix(1.3333 0 0 -1.3333 956.25 352.78)" d="m0 0c0.03-0.451 0.441-1.489 0.665-2.02-5.491-2.775-12.583 3.23-9.856 8.546-1.262 0.989-1.673 3.623-0.997 5.051 0.888 0.095 1.221 0.168 1.883 1.454 0.151-0.315 0.383-0.881 0.437-1.016l-0.051-0.299c-0.262 0.047-0.475 0.076-0.519 0.076 0.144-0.47 0.325-1.077 0.552-1.321-0.664-0.373-1.844-1.093-1.884-1.152 0.279-0.305 1.379-1.09 1.777-1.378-0.33-0.219-0.66-0.462-0.885-0.682 0.134-0.075 0.495-0.252 0.756-0.43-0.08-0.16-0.467-0.917-0.609-1.259 0.349-0.032 1.443 0.148 2.159 0.489-0.321-0.479-0.844-2.487-1.06-3.518 0.155 0.017 0.814 0.318 1.142 0.531-0.066-0.177-0.138-0.596-0.174-0.976 0.173 0.016 1.285 0.398 1.748 0.593 0.019-0.503 0.128-2.134 0.151-2.803 0.569 0.209 1.631 0.879 2.201 1.415-0.022-0.482 0.333-2.398 0.643-2.925 0.309 0.144 1.421 1.093 1.921 1.624" clip-path="url(#clipPath16951)"/>
   <path transform="matrix(1.3333 0 0 -1.3333 946.28 336.28)" d="m0 0c0.023-0.298 0.046-0.568 0.069-0.752-0.169 0.036-0.347 0.071-0.506 0.098l0.051 0.299z" clip-path="url(#clipPath16952)"/>
  </g>
  <g fill="#c0b697">
   <path d="m221.75 186.35c-28.694-0.0922-58.221-13.165-76.003-35.303 7.4984 26.624 33.7 49.531 66.662 46.746 0.30716-2.5248 0.58668-5.1471 0.62968-5.4828 0.65117 0.30716 1.5481 0.71568 2.5894 1.2256 2.1133-2.0488 4.1718-4.5294 6.1223-7.1841"/>
   <path d="m98.311 238.42c-25.237-3.771-42.683-12.711-59.944-31.587 3.4786 10.099 8.3547 19.299 14.433 26.938 26.678 33.559 65.178 44.091 104.76 38.684-21.119-2.3498-45.782-18.421-59.251-34.035"/>
   <path d="m70.136 107.47c2.5586-4.2152 9.9255-7.065 12.786-8.246 0.75869-0.30716 1.3116-1.7877 1.6464-3.3376-3.0132-0.46688-11.649-2.1563-14.607-2.9579-2.2331 2.8289-6.0575 6.8699-7.0109 9.7308 1.6802 1.5174 4.7026 5.3529 4.9735 9.0369h0.7679c0.18429-1.5051 0.71568-3.0224 1.4406-4.2259"/>
   <path d="m-41.526 201.76c-7.3034 3.0132-14.748 2.8166-21.791 0.5191 0.08601 2.915 0.6177 5.2448 1.7013 6.5883 4.6594 5.7866 16.579 9.243 23.915 9.7849 0.48777-1.0413 1.0078-2.1778 1.3435-2.9794-2.9798-1.3546-8.7771-3.8036-13.231-5.0823 0.55257-0.75867 4.7028-4.7785 8.0619-8.8311"/>
  </g>
  <path d="m197.73 265.16c-0.73719 0.36859-1.4744 0.72488-2.2115 1.0628 1.0628 0.42387 2.1255 0.82318 3.1966 1.2348-0.24571-0.59589-0.59588-1.3669-0.98598-2.2976" fill="#684e39"/>
  <path d="m271.15 286.57c-17.316 2.3498-32.258-3.8791-41.426-13.729-0.94299-0.24572 6.2955 15.961 5.1904 15.68-11.789-2.9794-34.621-10.001-49.509-19.039-6.1763 2.7306-15.43 4.3669-27.838 2.9794-2.4051 0.3348-4.8977 0.58359-7.444 0.7679 74.486 44.243 146.36 50.094 152.17 27.144 1.029-4.0745 1.5051-16.287-4.3343-42.791-0.7679 15.333-11.042 26.656-26.808 28.986" fill="#684e39"/>
  <g transform="matrix(8.1269 0 0 8.1269 -7580.9 -2623.7)">
   <path transform="matrix(1.3333 0 0 -1.3333 956.72 354.41)" d="m0 0c0.111-0.298 0.228-0.585 0.316-0.794-3.825-1.932-8.425 0.394-9.945 3.781 1.977-1.549 4.529-2.539 7.154-2.871 0.067-0.218 0.137-0.398 0.205-0.513 0.114 0.053 0.339 0.217 0.602 0.43 0.557-0.042 1.116-0.052 1.668-0.033" clip-path="url(#clipPath16968)" fill="#c0b697"/>
  </g>
  <g>
   <path d="m-17.001 224.12c12.126 12.873 50.734 41.968 94.738 35.162-5.6563-5.2662-22.495-22.148-27.003-27.621-19.776 2.1993-43.712 8.8096-67.735-7.5417" fill="#684e39"/>
   <path d="m24.717 150.22c1.9075-7.9969 4.8543-14.737 7.1734-17.771-7.7804-0.67268-25.421 19.06-25.67 20.902-0.24573 1.8307 2.6016 7.0868 2.6016 7.0868 2.2208-1.1918 6.8914-2.4389 6.8914-2.4389l0.81397 4.6922s5.5697-0.65119 6.1005 0.92147c0.5191-1.8307 1.0075-8.8419 2.0917-13.393" fill="#684e39"/>
   <path d="m172.77 146.42c12.516 13.09 26.537 14.238 32.93 8.5602 1.9167-1.7109 3.2507-3.9983 3.9768-6.5664-9.1997 7.7911-25.02 4.2585-36.907-1.9934" fill="#d0879d"/>
   <path d="m147.59 67.838c-0.4546 4.3018-1.5481 15.268-1.6894 16.698 0.81397 0.65117 1.4959 1.2041 1.9935 1.6249 3.2725-5.0605 6.7615-18.237 8.2568-20.957-0.0614-0.81397 5.3854 11.616 7.8455 16.026-0.80169-11.648-3.8794-21.563-5.5157-24.5-3.7817 2.8812-8.5387 8.1919-10.89 11.107" fill="#684e39"/>
   <path d="m68.984 111.6c0.12285 2.0702 0.66039 5.6889 2.7522 6.1982 3.8573 0.95219 16.416-0.34709 19.645-3.1859 1.3116-1.1488 3.0132-3.0224 4.6052-5.0819-8.3004 4.2802-23.546 5.2555-27.003 2.0702" fill="#c0b697"/>
   <path d="m44.465 103.34c0.24572 4.0527 10.966 14.303 19.44 13.946 1.2348-0.0614 4.3994-3.0562 4.5404-5.1468-3.5652 2.5556-21.531-6.3284-23.98-8.7989" fill="#c0b697"/>
   <path d="m-32.873 229.99c2.4164-0.24573 13.837-3.6193 16.124-4.9953 1.647 1.7232 8.9181 7.5742 8.9181 7.5742l-14.249 6.3281c-0.60694-1.7784-2.1022-7.3574-2.1022-7.3574-3.6409-0.0614-8.6904-1.5512-8.6904-1.5512" fill="#684e39"/>
   <path d="m222.85 186.2c1.3884 0.0103 7.3033-6.5231 15.961-11.052 9.3189-4.1829 19.201-2.4389 25.93-6.4365 8.4195-5.1904 17.272-16.969 24.272-30.351-0.7679 7.7585-6.1549 26.645-13.101 36.138-6.6856-0.87848-19.461-2.0365-34.025 3.8684-14.563 5.9058-18.139 18.919-18.139 18.919l-7.5309-3.5541z" fill="#c8c9ca"/>
   <path d="m49.416 110.83-7.4658 12.299c10.272-2.5556 23.514-2.0795 36.094 1.8645 0 0 1.4836-4.1067 2.3621-6.4258-4.3018-0.0216-7.921 0.43309-9.2753-0.6819-1.3454-1.1273-3.0347-5.288-3.0347-5.288s-0.5621 5.5479-6.9676 4.4971c-6.4255-1.0505-11.714-6.2633-11.714-6.2633" fill="#c0b697"/>
   <path d="m78.895 122.86c6.4147-1.757 12.743-2.7736 20.566-2.4696l-0.37781-4.898s6.415 0.73718 11.107 1.886l-0.97676-7.4766-3.5975 3.0774-5.082-10.912c-1.2256 2.7522-7.076 12.082-9.4055 13.447-2.3406 1.3761-11.139 2.7184-11.139 2.7184z" fill="#c0b697"/>
   <path d="m147.61 159.29c0.75869 12.461 3.8902 43.43 53.399 48.599 5.7863-2.5894 10.76-5.3421 10.76-5.3421l0.81397-5.4613s-16.687 4.3018-36.214-6.5664c-19.515-10.869-28.758-31.229-28.758-31.229" fill="#c8c9ca"/>
   <path d="m-42.768 161.53c4.4644 2.0365 11.529 0.1843 16.005-2.4051l3.2724 4.5079-1.9938 0.0614-14.769 2.2976-3.435-1.2348z" fill="#c0b697"/>
   <path d="m272.64 204.26s6.9676-1.3331 12.385-1.158c1.843-2.5678 9.2756-14.672 9.6549-17.435 0.3686-2.7644-0.0306-5.2552-0.0306-5.2552-3.2832 3.4998-13.859 6.9458-21 7.0975-7.1408 0.15365-20.87 4.6919-24.847 9.2105l3.8466 3.814c4.2695-2.9026 11.41-7.1949 20.881-7.9751 0.0614 2.2546-0.87848 11.703-0.87848 11.703" fill="#c0b697"/>
   <path d="m286.32 111.43c3.4783 1.3116 20.339 4.3994 34.252 2.8504-7.5635 5.7863-22.441 4.9628-32.529 2.6969z" fill="#c8c9ca"/>
   <path d="m227.19 268c-2.4604-5.3854-5.4395-15.842-5.4395-15.842l-3.8902 8.3977c-2.7184-1.8644-7.5417-8.2786-7.5417-8.2786s-2.6446 4.8543-3.8143 6.5664c-1.1703 1.7109-3.0562 4.6486-3.0562 4.6486l-4.0849 5.2555-1.6372-3.5867-14.769 5.4505c5.7973 5.9813 42.899 18.421 53.323 19.266-2.5248-5.2555-9.0913-21.878-9.0913-21.878" fill="#684e39"/>
   <path d="m144.54 69.512c4.898-3.305 13.729-14.26 13.729-14.26-11.584 6.6859-43.463 24.164-66.012 34.122l-2.8812 13.372 9.893-3.4568 6.3499 13.686 3.8361-3.7384-1.0075-18.454 18.887 5.8947 3.9117-22.864 3.8143 2.4696c4.0527-2.6324 7.6286-5.5264 9.4814-6.7726" fill="#684e39"/>
  </g>
  <g fill="#c0b697">
   <path d="m68.152 76.077s-3.0562 5.9598-1.6802 6.8917c1.3761 0.9307 13.263 0.30716 13.263 0.30716l1.8952-5.743c-5.3314-0.71568-13.48-1.4406-13.48-1.4406"/>
   <path d="m81.151 89.444-1.115 5.472 4.5404 0.9737s-0.36858 1.4621-0.49759 2.3743c-0.12285 0.92148 3.63 3.6733 5.5264 0.74641 1.8952-2.9272 2.6446-9.6331 2.6446-9.6331z"/>
   <path d="m91.757 102.49c0.0103 1.3116-0.18429 2.9364 0.6819 3.2725 2.1348 0.85697 7.2385-0.8877 7.2385-0.8877l0.857-2.8074-1.2686-2.7859c-3.0882 0.99519-7.5091 3.2074-7.5091 3.2074"/>
  </g>
  <g fill="#0f141b">
   <path d="m162.64 98.134c-0.46689 0.24572 4.4102 0.87846 4.8436 0.58359 2.5464-1.7109 11.02-2.1347 15.311-0.62966 0.48838 0.18429 1.115-1.6157 0.61737-1.7877-3.9983-1.4099-13.751-1.7877-20.772 1.8307"/>
   <path d="m261.52 90.106c-17.337-0.97678-43.853 12.96-57.658 29.929-0.33479 0.41159 0.5406 1.9412 0.86619 1.5266 14.141-17.37 41.436-31.435 58.005-30.026 0.5191 0.0308-0.69419-1.3976-1.2133-1.4314"/>
   <path d="m235.62 76.262c24.771 5.7863 41.631 17.392 48.859 33.667 7.737 17.402 3.9768 40.613-9.8715 64.138-0.27645 0.45459 2.7306 1.1365 2.9917 0.6819 14.173-24.067 16.601-47.613 8.6146-65.59-7.8237-17.63-30.243-33.775-55.068-35.813-3.164-0.24573 0.74641 2.0365 4.4753 2.9149"/>
   <path d="m290.65 67.898c-3.8251-0.15365-16.341 15.604-15.582 27.545 0.0306 0.5191 1.8214 0.30716 1.8092 0.24572-0.34709-5.5261 7.8018-22.149 12.83-25.486 1.5604 4.0527-1.6679 23.817-5.6023 30.59-0.0922 0.15365 1.4959 0.98599 1.7662 0.54059 8.0725-13.599 6.5231-32.844 4.7785-33.429"/>
   <path d="m284.95 100.29c-2.8812 0.60818-4.4753 2.7184-1.6372 1.9628 10.879-2.9027 33.115 6.2415 36.159 11.941-3.0774 3.912-24.001 3.7169-31.446 1.7109-0.50988-0.15365-0.3563 1.6587 0.12285 1.886 8.0184 3.8684 30.915 3.2507 33.949-2.9242 1.8952-3.8687-21.227-17.912-37.135-14.574"/>
   <path d="m206.5 122.64c-0.50989 0.12285-0.33481 1.7662 0.18429 1.6587 33.299-7.0865 53.725 15.051 49.564 40.483-0.0614 0.50988 2.2976 0.4761 2.3836-0.0308 4.627-28.271-18.757-49.206-52.121-42.108"/>
   <path d="m194.57 77.676c14.715 5.0386 14.358 26.656 7.6501 40.342-0.21501 0.46688 1.4621 1.2993 1.7016 0.83548 7.8234-15.962 7.119-37.796-7.7911-42.899-0.49761-0.18429-2.058 1.5481-1.5604 1.7232"/>
   <path d="m235.59 163.23c-13.046-1.4744-21.162-8.3977-25.215-16.156-0.35938 0.96448-0.71569 1.929-1.1611 2.872 4.4535 7.401 12.754 13.664 25.898 15.149 0.50988 0.0614 0.99827-1.8092 0.47609-1.8645"/>
   <path d="m207.27 133.29c0.18429-2.5894 0.81398-4.9195 1.8737-6.7726 0.27644-0.4546-1.3761-1.4099-1.6372-0.95219-0.94298 1.6464-1.6249 3.5867-2.0058 5.7104 0.62968 0.5621 1.2348 1.2348 1.7662 2.015"/>
   <path d="m187.22 91.658c0.3133-0.42388-1.3669-2.2423-1.6802-1.8215-4.952 6.7941-5.4831 13.967-3.1207 19.873 0.77098 0.18431 1.5266 0.39009 2.2761 0.65119-2.5126-5.5046-2.0703-12.385 2.5248-18.703"/>
   <path d="m204.65 120.75c-6.0357 0.55289-11.183-1.0843-14.932-4.0308 0.0922 0.85697 0.30716 1.6679 0.57438 2.4388 4.0094 2.6016 9.0372 3.9875 14.531 3.4783 0.5191-0.0308 0.34708-1.929-0.18431-1.886"/>
   <path d="m157.87 101.67c-0.0614-0.5191-1.9935-0.97369-1.9628-0.45459 0.57439 7.0542 3.1966 15.04 7.1623 23.167 0.32559-1.2993 0.6819-2.5801 0.98598-3.8358-3.1858-6.7182-5.3854-13.187-6.1874-18.876"/>
   <path d="m217.44 177.8c-8.712-2.7859-19.049-10.912-28.672-21.325-1.3761-0.18429-2.6876-0.36858-4.0094-0.54059 10.186 11.28 21.423 20.112 30.774 23.102 2.6446 0.84468 4.5512-0.3901 1.9075-1.2348"/>
   <path d="m155.54 100.83c-12.58 10.695-19.364 40.201-6.6856 63.173 12.743 23.102 37.048 37.481 63.412 35.098 0.5191-0.0306 0.3563-2.9364-0.15365-2.8812-25.584 2.3068-49.65-10.944-61.299-33.743-10.413-20.393-7.9646-43.311 6.404-59.803 0.0614-0.0922 0.12285-0.18429 0.15365-0.3133 0.0614 0.0103 0.12285 0.0217 0.15365 0 4.0634-2.9149 11.074-3.4675 11.616-2.7859 0.5191 1.1488-4.2477 10.63-9.2753 13.621-0.24573 0.15365 0.5191 1.8952 0.97678 1.6249 5.8403-3.4786 10.641-14.271 10.164-15.983-0.5099-1.8092-10.392-2.3068-15.452 1.9935"/>
   <path d="m202.14 170.22c-0.4116 0.31332 1.6249 2.2116 2.0365 1.8952 3.7817-2.8812 11.432-5.8191 12.245-5.3639 1.0075 0.62968 0.78941 9.6657 0.0103 11.8-0.0216 0.0614-0.0308 0.12285-0.0308 0.18429-0.0614 0.43309 1.5389 0.4116 1.7109-0.0614 1.1058-3.0439 1.3454-12.797-0.81397-13.708-1.7662-0.74641-11.194 2.2423-15.148 5.2555"/>
   <path d="m189.15 97.492c-2.3068 5.4287-1.9935 10.836 0.55289 14.358 2.2208 3.0774 6.2522 4.6593 10.532 4.1936 0.4331-0.0614 0.24573-1.6249-0.18429-1.5726-3.7492 0.40237-7.0435-1.2041-8.9506-4.0416-1.929-2.8812-2.405-7.0542-0.43309-11.703 0.18429-0.40238-1.3546-1.6372-1.5266-1.2348"/>
   <path d="m215.95 137.34c-0.74641 4.291 0.18429 10.196 3.0774 13.967 2.3498 3.044 6.8807 4.6704 11.248 2.7306 0.4024-0.18429-0.62966-1.9167-1.0198-1.7447-2.9487 1.3116-6.8481 0.24573-8.8312-2.2116-2.5156-3.11-3.6733-8.1597-2.915-12.472 0.0614-0.4331-1.4836-0.70339-1.5604-0.27644"/>
   <path d="m223.19 195.57c-0.7034 2.6324 1.0075 3.2181 2.0917 0.71568 7.7582-18.063 35.845-27.165 57.798-18.746 2.7951 1.0843 1.843-0.54061-0.9522-1.6157-23.232-8.9178-54.136 1.5942-58.936 19.646"/>
   <path d="m277.25 171.8c-0.74641 0.12285-1.2901 3.1208-0.9307 2.7736 1.5051-1.4744 6.1116-1.7324 7.5853-1.5266 2.6446 0.3563 1.8-0.95527-0.83548-1.2993-1.1273-0.15365-3.9335-0.215-5.8188 0.0614"/>
   <path d="m282.94 159.48c6.9132 5.7322 8.8855 8.3544 9.3189 9.5354 1.0198 2.7522 2.3621 14.899 1.2348 17.728-1.1058 2.7736-8.2789 13.848-10.11 15.582-0.37781 0.36859 2.8074 1.2563 3.1859 0.89997 2.0365-1.9504 7.4658-12.71 8.6905-15.777 1.4099-3.5542 0.30716-16.731-0.73718-19.526-0.7587-2.0703-4.4861-5.0061-10.37-9.893-0.39932-0.33481-1.6157 1.115-1.2133 1.4529"/>
   <path d="m212.74 230.64c1.4744 7.726 19.277 55.686 25.389 65.991 2.1901 3.6948 4.5509 4.7244 2.5802 0.9215-4.0419-7.78-25.28-64.82-26.775-69.176-1.3884-4.0419-1.9935-1.9412-1.1918 2.2638"/>
   <path d="m237.64 183.84c-2.2116 0.12285-4.9953 13.101-5.6345 17.348-2.6016-1.5819-18.681-10.998-20.166-10.424-0.89996 0.33481-0.75867 10.078-0.92147 11.139-2.8074 1.3116-17.251 7.9643-17.413 9.1454-0.12285 0.90919 7.726 6.9568 10.847 9.4166-0.3563 0.98598-3.7169 6.7833-3.4242 7.4658 0.3133 0.74641 9.1779 2.0795 12.19 2.6446 0.40238 0.12285 0.89997-1.7109 0.4976-1.8307 0 0-7.726-2.1993-9.2971-2.6446 0.24573-0.71568 2.3958-6.3063 2.1348-6.5124-3.6411-2.8167-7.4554-6.1112-9.6224-8.1486 4.2044-2.3406 15.582-7.4333 15.853-8.6794 0.0614-0.27645 1.1365-8.9721 1.1488-9.0372 4.6919 2.233 18.724 9.9692 19.028 9.8715 1.3546-0.46688 3.3806-11.464 5.2878-15.105 4.5837 4.7244 14.163 12.992 14.509 12.981 0.24573-0.0217 11.02-7.5202 20.447-7.8559-0.27644 2.8074-2.015 11.865-1.115 11.648 6.0246-1.4406 16.438-1.5726 21.618-0.8662-0.96447 0.7157-7.9643 6.5124-7.9321 7.0432 0.0308 0.77096 5.3965 4.7137 6.1549 5.6563-1.972 2.0795-4.3776 4.0204-6.2848 5.0279-0.27645 0.15365 0.42388 1.9167 0.87848 1.6802 1.9627-1.0413 8.2786-5.6996 8.3977-6.5446 0.12285-0.99826-3.8251-3.7602-6.6967-5.8947 0.12285-0.0922 8.2463-6.0357 10.045-7.4876 1.6679-1.3638-15.918-3.3484-24.349-0.9307 0.33481-3.3591 2.5034-10.739 0.5099-11.15-5.1689-1.072-16.352 2.8166-21.672 7.4876-0.97675-0.8877-14.152-15.485-15.019-15.441"/>
   <path d="m283.94 221.93c10.977 22.593 20.588 65.731 17.435 78.214-0.95527 3.7492-4.0527 6.7289-9.2212 8.8637-22.615 9.3407-79.005-0.15365-138.95-36.094-0.4546-0.27643-3.5108 1.7447-3.0562 2.0273 61.104 37.665 118.59 47.082 141.64 37.568 5.6671-2.3406 11.053-6.6749 12.147-10.977 3.2292-12.797-4.9628-56.379-17.901-79.547-1.7232-3.0989-3.6411-3.2399-2.0918-0.0614"/>
   <path d="m79.063 118.3c-6.7074 12.711-7.6501 39.648 9.9148 54.255-8.5495 17.229-11.453 48.859 15.853 76.144 19.266 19.244 59.413 35.542 92.885 18.323 0.46688-0.24572-0.21502-3.6948-0.69419-3.4565-35.163 18.085-69.761 2.3958-88.713-16.536-21.9-21.878-28.39-50.94-16.536-74.042 0.21502-0.3993 0.0922-0.89997-0.24572-1.1703-13.892-10.89-17.348-39.367-9.8822-53.497 0.24572-0.46689-2.3313-0.48838-2.5678-0.0217"/>
   <path d="m114.37 150.12c-11.486 5.0604-24.283 14.358-22.799 15.214 0.24574 0.15365 7.7582 3.0224 9.698 4.2692-1.972 4.0637-6.6531 11.995-7.6934 13.87-1.115 2.0058 15.073 0.7249 23.243-3.1208-6.4691 13.718-12.386 37.969-10.305 37.741 1.5942-0.18429 7.4658-2.9702 11.28-5.1034-1.2256 5.4069-0.72489 8.4844-0.34709 8.8311 0.83548 0.7679 13.556-4.1718 18.93-6.3174 0.15365 2.7399 0.85697 26.18 1.072 29.929 0.1843 3.1858 16.936-6.5447 24.402-14.227 0.48837 7.249 3.0992 25.963 6.935 30.785 1.4529 1.8215 12.234-7.1952 21.347-15.853 1.2256 6.415 7.542 24.489 8.6579 24.684 0.87847 0.15365 8.5605-10.728 11.594-16.6 3.3158 4.9195 7.6179 9.2864 8.3547 7.5742l3.7814-9.6116c0.21502-0.4761-1.5051-1.2686-1.7232-0.7894 0 0-2.9917 6.8699-3.3483 7.7152-2.6969-2.0488-6.1764-6.22-6.9566-7.6934-0.74639-1.4191-5.1038 9.427-11.161 15.116-2.1778-5.0279-7.5202-18.139-7.8777-23.33-0.12285-1.7017-0.5744-1.7109-1.6372-0.58669-5.1145 5.4505-15.744 14.52-19.732 16.948-3.1966-6.5668-6.6205-25.703-6.404-30.352 0.0614-1.4191-0.48839-1.7662-1.5942-0.73719-5.5154 5.1793-15.929 11.941-22.343 14.628-0.12285-2.3098-0.65117-26.765-1.843-29.788-0.5191-1.3331-11.41 4.432-18.508 6.0357 0.12285-3.9553 2.101-9.5791 1.3116-10.251-0.69418-0.5836-5.1578 3.0989-11.627 5.2878 2.6969-12.483 7.8995-31.619 11.01-36.246 1.1273-1.6802-0.15365-1.886-1.2041-1.3853-7.076 3.3698-17.077 5.136-21.542 5.2337 1.3976-3.1315 6.0031-12.299 6.0031-12.299 0.6819-1.3761-6.1874-4.4646-7.3903-5.2773 6.0572-5.4502 17.5-12.104 20.307-13.339 2.4603-1.0843 0.72488-2.1132-1.8952-0.95219"/>
   <path d="m106.53 127.71c-2.7091 1.3668-23.861 13.057-24.684 14.282-0.83548 1.2256 9.6439 7.4443 21.943 16.254l1.1058-1.5389c-4.2477-3.0348-15.485-11.15-18.79-14.325 3.9009-2.6662 22.062-13.122 23.839-14.303 2.9272-1.9382-0.18429-1.9934-3.4132-0.36858"/>
   <path d="m97.181 114.37c-0.0219 0.84468 3.9117 13.826 7.3359 16.156 0.43309 0.30716 1.3331-1.3116 1.0628-1.5696-2.8719-2.7859-4.6052-10.381-5.1904-12.375 4.8003 0.66039 11.562 1.4621 16.243 3.7166 2.4388 1.1703 1.7017-0.85697-0.66039-2.1778-3.0562-1.6894-18.757-5.0604-18.79-3.7492"/>
   <path d="m130.35 71.909c-0.9522 0.81397-3.5326 21.347-3.8143 23.503-5.5479-1.843-19.494-6.9781-19.483-6.317 0.0216 2.3836 0.82318 21.661 1.0413 27.685 0.0217 0.5191 3.1751 0.54061 3.1644 0.44539-0.73718-4.9846-1.6464-19.331-1.8307-25.15 2.5126 0.75869 17.5 5.9813 18.399 5.4072 0.75869-0.46688 2.6324-15.842 4.0419-22.181 5.082 3.1859 14.444 10.955 15.094 11.649 0.34709 0.36858 2.1132-1.8522 1.8092-2.2545-0.3133-0.40239-17.511-13.556-18.421-12.786"/>
   <path d="m156.03 62.069c-0.63888-0.09222-6.2307 19.115-8.9829 24.272-1.4098 2.6324-0.96447 4.5186 0.74641 2.058 3.4783-4.9628 8.1812-20.339 8.7012-21.661 0.92149 1.8645 6.0679 15.083 6.9999 15.452 0.65117 0.27645 8.4414-3.8902 11.573-5.2881-0.24573 5.2881-1.2778 9.9474-0.24573 9.8067 0.30715-0.03063 6.3822-3.7277 8.387-5.1581 0.98598 2.6231 1.6034 4.7137 1.6464 5.6348 0.0216 0.53138 1.7662-1.1365 1.6034-1.8-0.62966-2.5586-1.5388-7.1627-2.1347-7.3251-0.56212-0.15365-4.8977 3.6408-7.8885 5.743 0.24574-2.6109 1.4836-9.6979 0.6604-10.565-0.33481-0.34708-10.142 5.1038-12.819 6.686-3.5974-9.9259-7.3359-17.738-8.246-17.858"/>
   <path d="m145.97 68.583c-0.4976 4.1718-1.0198 12.234-1.3668 15.647-0.0219 0.27645 2.19 1.2133 2.2423 0.69419 0.30716-3.0774 1.6249-15.495 2.0365-18.54 0.0614-0.5191-2.829 1.5266-2.915 2.1992"/>
   <path d="m158.26 54.511c-4.898 6.2089-17.305 16.731-23.644 20.675-0.44539 0.27645 1.5174 2.1348 1.972 1.8737 7.5635-4.291 15.105-12.19 21.921-20.837 1.6894-2.1563 1.4406-3.8684-0.24572-1.7109"/>
   <path d="m161.09 58.179c-1.2686 0.73717-4.7029 1.4959-7.065 1.3208-0.5191-0.0308-0.66039 1.8522-0.15364 1.886 2.5463 0.18429 4.8221-0.43309 6.5557-1.4406 1.929-1.1273 2.5802-2.8934 0.65119-1.7662"/>
   <path d="m146.66 75.279c-2.2853 0.63889-6.8699 2.0795-9.1454 2.5126-0.50988 0.09205 0.86619 2.233 1.3761 2.1347 2.319-0.44537 5.8729-1.2133 8.2134-1.8645 0.49761-0.15365 0.0614-2.9241-0.44538-2.7859"/>
   <path d="m63.935 38.742c-8.0402 1.8737-15.69 5.2122-17.717 7.3466-2.6661 2.8074-1.929 12.32-1.3546 13.729 0.18431 0.47608 1.9382-0.21502 1.7539-0.71568-0.41158-1.1365-0.39009-8.8855 1.5819-10.966 1.5481-1.6372 9.6006-4.9953 17.641-6.8699 0.5099-0.12285-1.3976-2.6446-1.9075-2.5249"/>
   <path d="m53.863 51.435c-3.9983 2.5586-8.907 6.7941-10.164 9.7305-1.4191 3.3158-1.2471 9.2974 0.99827 11.746 1.1488 1.2563 2.7952 1.6249 4.616 1.029 0.48837-0.18429-0.09222-1.972-0.59589-1.8092-1.115 0.3686-1.972 0.21502-2.6232-0.49759-1.6802-1.8307-1.6249-6.4258-0.4546-9.1457 0.99826-2.3498 6.4258-7.8777 9.9907-10.597 2.147-1.6464 0.5099-1.9075-1.7662-0.4546"/>
   <path d="m54.274 66.103c-2.19 1.6679-10.413 6.4147-10.457 16.08-0.0219 3.6193 2.058 7.1627 6.1115 9.85 0.43311 0.27645 1.6587-1.0505 1.2686-1.4099-3.1858-2.9027-4.8003-5.9272-4.7895-8.9832 0.0308-6.8266 9.5791-14.422 10.218-14.997 2.147-1.9075-0.15365-2.2116-2.3498-0.54061"/>
   <path d="m56 83.525c-3.2832 2.4603-13.556 13.014-13.599 19.613-0.03063 4.6268 9.2863 11.724 15.81 14.087 6.8914 2.4818 11.172-1.6157 10.998-5.8839-0.15365-3.6408-2.5463-6.5557-4.5619-8.5713 0.8447-1.9842 5.1904-8.1919 5.6671-8.7771 3.5323 0.87848 11.334 2.9149 13.718 3.2399 0.5191 0.06142 0.85697-2.3958 0.34709-2.4603-2.4266-0.32559-11.118-1.9289-14.173-2.7521-0.35632-0.09222-0.74641 0.03063-0.986 0.32559 0 0-6.3714 7.6609-7.1626 10.012-0.12285 0.3563-0.02156 0.75869 0.24572 1.0075 1.7447 1.5696 4.5512 5.2985 4.6811 8.6253 0.15365 3.5867-2.6232 5.2444-7.065 3.63-6.6641-2.405-14.347-9.4055-14.52-12.342-0.15365-2.3498 2.6324-7.0757 5.7755-11.367 2.5679-3.5216 5.3636-6.7615 6.9999-8.2027 2.2208-1.972 0.18429-1.9628-2.19-0.18431"/>
   <path d="m83.979 92.831c0.0308 2.1686-0.83546 5.2337-1.4191 5.5264-0.06142 0.02156-10.478 3.0224-13.404 7.8233-2.5678 4.2151-2.0795 11.432 2.0917 12.938 5.2662 1.886 16.828 0.30716 20.534-2.9487 3.3591-2.9487 8.8745-10.543 9.5465-14.422 0.0922-0.50988-1.7785-0.83546-1.8645-0.32559-0.5744 3.305-5.6023 9.7416-8.7012 12.472-2.9027 2.5464-15.019 3.9117-18.8 2.9794-2.0365-0.49761-3.3917-4.9953-1.0198-8.907 2.7859-4.5727 11.638-7.5742 12.342-7.8559 2.2116-0.90919 2.1255-5.0171 2.101-5.9706-0.0308-2.015-1.4529-3.3158-1.4099-1.3116"/>
   <path d="m48.571 110.16c-28.26 38.966-20.09 98.444 4.096 127.56 28.921 34.827 73.977 44.525 110.69 35.444 0.50989-0.12285-5.9269-1.6249-7.1298-1.4744-33.223 4.1285-76.859-6.0249-102.69-38.5-22.809-28.683-30.189-83.404-2.3621-121.8 0.3133-0.42389-2.2975-1.6587-2.6016-1.2348"/>
   <path d="m30.058 134.22c-3.8684 5.6782-8.062 18.595-8.2138 28.173-0.01027 0.5191 2.6877 1.115 2.6999 0.5836 0.15365-9.1238 4.15-24.435 7.7908-29.788 2.3836-3.5001 0.12285-2.4696-2.276 1.029"/>
   <path d="m23.981 162.33c-15.647-3.164-32.562 4.6593-42.607 21.011-1.8531 3.0347-1.2569 4.9302 0.67176 1.9382 9.2431-14.401 26.017-22.528 43.777-21.217 2.8074 0.215 0.90919-1.1826-1.843-1.7324"/>
   <path d="m47.076 73.984c-15.506 1.4314-52.121 4.3994-66.749 18.583-13.057 12.667-17.392 31.619-12.505 53.725 0.60694 2.7184 2.7199 4.4102 2.124 1.6894-4.7353-21.455-0.22729-40.732 12.396-52.89 13.036-12.58 53.031-17.153 64.983-18.258 0.5191-0.06142 0.27645-2.8934-0.24573-2.8504"/>
   <path d="m-15.863 226.8c20.523 24.24 78.127 41.631 96.342 33.028 0.46688-0.21501-0.85697-3.7492-1.3331-3.5434-15.82 6.6208-69.794-7.0542-95.052-32.183-2.2865-2.2638-2.0371 0.24573 0.04295 2.6969"/>
   <path d="m-32.854 139.05c-0.60696 0.78019-8.8204 6.4258-11.41 7.6286-2.3839 1.1058 5.6888 6.0028 12.418 8.1161 0.21808 0.0614-0.55258 1.5051-0.34678 1.5726 0.23959 0.0614 0.95342 0.56211 1.181 0.62968 0.26108 0.0308 0.98598-2.1778 1.0944-2.6324 0.18429-0.69417-0.21808-0.96447-0.75869-1.1703-2.1455-0.76789-7.6826-3.4998-9.9365-5.6127 2.9039-1.5726 8.0944-4.898 8.9179-5.9816 0.09838-0.12285-0.8453-2.9579-1.1595-2.5463"/>
   <path d="m-38.313 154.37c-3.2833 0.82319-6.274 6.7726-6.6424 10.272-0.05526 0.5191 2.5463 0.80169 2.6007 0.27645 0.41189-3.8469 2.6007-7.5202 4.5727-8.1812 3.2725-1.1058 11.735 3.6408 13.523 7.1842l1.8964-0.1843c-3.4241-6.2197-12.765-10.164-15.95-9.3622"/>
   <path d="m-14.453 162.27c-0.95342-2.19-4.1502-8.7878-4.5511-8.0835-0.63921 1.1488-3.0991 8.441-3.3266 8.9396-0.35753 0.0614-13.122 1.2256-16.07 1.2563-1.658 0.0219 2.1237 15.224 2.8498 17.684-1.1485 0.71568-10.803 5.8081-13.686 7.2167-1.181 0.5744 2.644 2.4818 10.359 6.0357-3.3158 7.4118-13.068 14.802-12.841 15.625 0.18429 0.65119 12.375 4.2692 15.04 5.602 2.308 1.161 4.4969 0.12285 2.2865-0.99521-1.5063-0.75867-7.7152-3.6518-13.187-5.3965 0.35753-0.39009 7.6502-8.3544 10.348-12.916 1.127-1.929 1.2136-2.405-0.802-3.5541-2.2647-1.2901-6.4474-3.3483-7.0758-3.6626 6.4257-3.955 12.18-6.5446 11.887-7.4984-0.71508-2.872-2.4164-11.41-2.2647-15.311 3.4242-0.24574 13.989-2.3098 13.989-2.3098 0.68281-0.15365 2.5356-4.6701 3.1316-5.938 1.6037 2.0918 2.6222 6.1982 3.5 5.8188 3.3917-1.4836 10.023-5.1468 18.941-10.912 0.30716 0.5836 2.6539 5.1904 3.8358 6.9783 0.24573 0.39931 0.7802 0.54061 1.2041 0.33481 0.4761-0.215 3.7274-1.6464 5.7104-2.2208 0.37781 1.2471 0.69417 3.3268 0.60818 3.9227-0.06142 0.5191 1.8092 0.7802 1.8859 0.24574 0.21502-1.6034-0.33479-6.8699-1.7877-6.588-1.6372 0.30716-4.9843 1.929-6.4365 2.5678-0.97676-1.5942-3.1748-9.8279-4.3558-9.3404-1.843 0.77097-15.625 11.074-19.191 12.483"/>
   <path d="m-37.369 215.37c-0.36829 1.115-3.8576 6.5016-4.0526 6.9891-0.4116 0.99826 4.161 0.57438 8.3761 1.3884-0.01027 2.1993-1.647 6.7074-2.0371 8.051-0.31422 1.0935 8.1161 0.67268 10.153 0.7034 0.47672 2.1348 1.4738 6.6967 2.0045 7.9643 0.23959 0.5621 9.9474-3.4565 15.701-6.3822 0.46688-0.24572 0.12285-2.4604-0.33481-2.233-1.6147 0.82318-9.1673 3.6303-13.903 5.1363-0.62845-1.2778-1.4845-3.9009-1.788-5.613-0.08606-0.48837-0.54182-0.83546-1.0404-0.78018-0.94266 0.12285-5.0495-0.24573-7.3251-0.69418 0.52001-4.4861 0.94266-7.3359-0.17202-7.7367-1.0403-0.37781-3.2074-0.9737-5.7755-1.6034 0.70432-1.4529 1.7229-3.7599 1.9938-4.6052 0.02173-0.0614-1.6362-1.0843-1.7987-0.58361"/>
   <path d="m-51.318 162.82c-7.13 2.4388-18.681 39.313-12.234 47.32 5.2337 6.4906 18.389 9.189 25.54 9.2971 0.52002 0.0103 1.0185-2.1778 0.49852-2.19-6.7941-0.12285-18.529-2.958-23.373-8.9721-4.9087-6.1005 4.5402-40.689 10.229-42.639 1.983-0.67268 10.023-0.0922 13.881 1.5481 0.47672 0.18429 1.2136-1.5389 0.73688-1.7447-4.1935-1.7877-12.711-3.4998-15.279-2.6232"/>
   <path d="m226.82 148.32c-0.4761-0.7464-1.4314-1.0198-2.1225-0.60817-0.70339 0.42386-0.94298 1.5296-0.47609 2.276 0.47609 0.7464 1.4836 0.85697 2.19 0.4331 0.70339-0.4116 0.88768-1.3546 0.41158-2.101"/>
   <path d="m195.39 112.29c0.44539 0.61739 1.7017 0.78018 2.3191 0.3348 0.61739-0.44539 0.27644-1.2993-0.18429-1.929-0.44538-0.6174-1.0843-1.2256-1.7109-0.78018-0.6604 0.4761-0.98598 1.5942-0.43309 2.3743"/>
   <path d="m172.37 144.6c-5.8406-6.4906-8.6038-13.989-7.7585-21.119 0.98598-8.3222 7.5742-14.748 13.632-13.924 6.0246 0.80167 11.692 7.119 12.916 14.358 0.0614 0.39009 0.3778 0.7034 0.76789 0.7679 5.3421 0.98598 10.554 4.5079 13.935 9.4273 5.1471 7.4984 4.0849 15.821-0.79248 20.166-6.4147 5.6996-20.74 3.6193-32.703-9.6764m-9.6439-21.336c-0.89999 7.6719 2.0272 15.701 8.2352 22.604 12.916 14.358 28.639 16.514 35.878 10.078 4.7892-4.2695 7.6609-13.74 1.5174-22.701-3.5323-5.1363-9.8604-9.0154-15.473-10.24-1.5604-7.7582-8.0402-15.463-14.661-16.351-6.8484-0.92148-14.26 6.1767-15.495 16.611"/>
   <path d="m188.29 146.63c-0.82318-0.92148 3.7277-4.432 5.3636-4.6378 1.5726-0.18429 3.2835 1.6802 1.2993 3.3702-1.6464 1.4099-5.7648 2.2638-6.6641 1.2686"/>
   <path d="m172.67 128.04c0.79247 1.029 4.8221-1.4099 5.3636-3.0882 0.53138-1.6802-0.99829-3.3265-2.829-1.929-1.7447 1.3208-2.8504 4.6163-2.5341 5.0172"/>
   <path d="m202.65 72.335c-9.2323 2.1901-15.289 7.206-17.977 13.458-2.0273 4.7137 8.3222 21.293 20.22 37.503 11.096 15.116 27.48 34.003 32.486 38.543 0.65117 0.58668 3.4242 0.87848 2.5126 0.0614-6.7293-6.1008-22.582-25.031-33.266-40.082-11.584-16.308-21.227-32.259-19.743-35.726 2.4388-5.6778 8.3977-9.0913 17.045-11.139 15.083-3.5649 38.792 0 57.766 16.005 19.385 16.351 17.153 51.926-3.1644 72.817-0.74641 0.7679-4.5076-0.24573-7.5417-1.0628-4.5619-1.2256-10.24-2.5034-14.108-1.4099-1.3331 0.3778-13.512 23.85-21.986 31.413-0.39009 0.3563 1.5696 1.6679 2.015 1.3853 8.0943-5.1793 20.296-30.286 21.097-30.676 3.3268-0.94299 8.1597-0.0614 12.494 1.115 4.5619 1.2256 8.6143 2.7521 10.142 1.1826 20.447-21.032 23.449-58.362 2.2638-76.22-20.881-17.619-43.582-21.108-60.259-17.164"/>
   <path d="m163.45 4.2445c-13.372-3.1858-50.474 8.4844-67.269 21.098-4.2588-2.2638-17.673-8.1919-22.549-8.9181-1.3638-0.18431-0.0308 4.898 4.67 14.932-4.8976 0.60817-15.344 0.86619-19.905 3.1315-1.7447 0.86618 12.104 12.028 16.85 18.714-2.4389 5.0386-12.645 22.008-12.277 22.647 0.3256 0.59589 13.556 2.0488 17.706 2.9241-1.2686 2.2208-3.966 10.175-4.0094 11.659-0.03063 1.2993 10.316-0.68188 14.39-0.18429-1.0198 4.5186-4.8976 15.17-2.7644 14.379 2.319-0.85697 9.2864-3.7928 10.446-4.2152 0.37781 1.6587 6.2633 13.523 6.6316 13.642 0.215 0.0614 3.5974-3.7274 3.5974-3.7274l-0.3901-2.0272-2.7859 3.2832c-0.8232-2.1348-4.8436-11.518-5.7104-12.971-0.44538-0.74639-5.0605 0.63889-9.3948 2.4388 0.60511-2.8074 3.2292-12.526 2.1348-12.602-2.4696-0.18429-9.373-0.21502-13.263 0.01027 1.3116-7.7042 4.8761-11.161 3.6951-11.518-2.1778-0.67268-12.407-2.2422-16.395-2.6876 2.1348-3.7925 10.814-21.054 10.825-21.163 0.18429-1.3208-10.131-12.472-14.975-17.511 9.5895-1.4314 20.014-2.3743 19.125-3.5326-1.6249-2.1348-4.3018-8.4411-5.6023-12.721 5.288 1.7324 15.322 6.5775 19.017 8.582 0.3133 0.18429 0.69417 0.15365 0.98598-0.06142 17.587-12.158 54.169-23.536 66.338-20.643 14.498 3.4568 40.212 30.839 47.504 65.893 0.12285 0.50988 1.9935-0.3686 1.9075-0.87848-5.3854-33.7-33.201-64.343-48.534-67.995"/>
  </g>
 </g>
</svg>
