<?xml version="1.0" encoding="UTF-8"?>
<svg version="1.1" viewBox="0 0 376.84 348.64" xmlns="http://www.w3.org/2000/svg">
 <g transform="translate(.011986 -.012121)">
  <path d="m173.9 293.2q4.65-0.35 7.2 3.05 2.4 3.1 1.65 7.1-3 2.6-7.1 3.35l-7.25 1.15q1.9-3.15 2.6-7 0.5-2.7 0.55-7 1.35-0.55 2.35-0.65" fill="#cacfd2"/>
  <path d="m83.6 216.55q9.3-7.85 22.4-10.05l66.45 86.1q0.75 5.7-0.2 8.85-1.65 5.9-8.6 7.65-7.8 1.95-19.05 7.65-10.95 5.55-16.3 10.1-6.85 5.75-13.1 6.75-9.75 1.5-24.7-5.3-11-5-14.9-11.15-4.1-6.5 1-12.35 3.85-4.45 14.15-7.8 10.55-3.45 12.5-5.4l-1-0.7q-8.05-1.3-16.3-9.05l-6.7-7.5-2.35-0.15q-3.2-0.45-7.25-2-5.35-2-7.4-9.75-1.85-6.85-0.3-13.45 0.45-1.9 2.9-4.5l4.8-4.35q3.4-14.7 13.95-23.6" fill="#718bc6"/>
  <path d="m87.25 242.5q3.75-1.45 6.55-5.6 2.7-4 3.6-9.05 2.2-11.95-5.7-17.2l7.1-2.25 7.2-1.9 66.45 86.1q0.75 5.7-0.2 8.85-1.65 5.9-8.6 7.65-2.7 0.65-15.3 6.6l-16.2 7.7q9.6-7.5-1.4-17.5-4.5-4.1-11.25-7.2-6.6-3.05-12.75-3.95-1.75-0.85-3.6-2.5-3.65-3.3-3.95-7.2-3.8-1.4-6.55-5.4t-4.95-4.8l-12.85-4.45q3.7-0.35 4.5-6.55 0.85-6.75-3.3-13.7-0.65-1.1 3.05-3.5 3.4-2.25 8.15-4.15" fill="#6279ac"/>
  <path d="m78.45 332.9-6.35 0.3q-4-0.6-6-2.45-0.75-9.95 5.85-17.65 5.3-6.2 10.4-6.85 3.4-0.45 5.6 1.75 1.8 1.75 2.2 4.3l-11.7 20.6" fill="#eef3f6"/>
  <path d="m72.75 333.3q0.2-8.8 7.2-16.95 2.7-3.15 5.4-5 2.65-1.7 3.8-1.3 0.8 0.3 0.9 0.9l0.1 1.35-11.7 20.6-5.7 0.4" fill="#cacfd2"/>
  <path d="m78.65 336.15q-1.2-7.3 1.8-13.55 2.7-5.65 8.4-9.65 4.85-3.4 9.4-1.75 3.7 1.35 5.35 4.8l-12.35 21.9-6.6 0.2q-3.6-0.55-6-1.95" fill="#eef3f6"/>
  <path d="m101.1 313.35q1.4-0.2 1.75 0.55l0.75 2.1-12.35 21.9-3.25 0.55-3.45-0.5q1.1-8 6.35-15.9 5.3-8 10.2-8.7" fill="#cacfd2"/>
  <path d="m107.3 314.45q5.8-0.45 8.8 5.95 1.15 2.5 1.1 4.65-0.1 2.25-1.45 2.65-2.65 0.8-4.8 4.4-2 3.4-2.15 6.65-2.45 3.1-8.9 3.15-6.1 0.05-9.1-2.25-0.55-11.45 6.55-19.1 5.3-5.75 9.95-6.1" fill="#eef3f6"/>
  <path d="m115.8 321.1q1.9 0.1 1.8 3.1-0.05 2.95-1.85 3.5-2.65 0.8-4.8 4.4-2 3.4-2.15 6.65-1.5 1.9-4.8 2.65l-6.5 0.35q0.5-6.75 6.8-13.9 6.3-7.1 11.5-6.75" fill="#cacfd2"/>
  <path d="m53.1 3.5q9.5-1.7 16.3 4.45 2.35 2.1 7.15 9.6 1.8 2.8 0.45 10.2-1.15 6.25-3.3 10.85-0.8 1.75-5.5 3.15-4.35 1.25-6 0.9-5.5 15.5-5.25 33.25 0.15 7.75 2.4 23.6l33.35 9.45-23.8 44.5q-3.55-1.75-8.45-4l-4.25-1.95-3.25 6.45q-1.55 3.1-5.95 3.4-5.2 0.35-9.55-5.05-6.1-7.6-16.35-29-12.1-25.2-16.8-44.25-4.6-18.8-1.15-37.35 2.55-13.7 8.1-22.55 5.6-9.05 41.85-15.65" fill="#718bc6"/>
  <path d="m47.7 142q1.55-0.9 9.35 1.75l14.45 4.9-2.6 4.8q-3.55-1.75-8.45-4l-4.25-1.95-3.25 6.45q-0.8 1.6-2.9 2.6-2.4 1.1-5.1 0.7 2.75-1.95 2.25-8.35-0.5-6.35 0.5-6.9" fill="#6279ac"/>
  <path d="m46.25 35.15q5.15-0.25 8.55-1.1 4.8-1.25 10.05-4.3 3.7-0.2 7.7-2.25l4.9-3q-0.3 3.55-1.5 7.75-1.05 3.8-2.25 6.35-0.8 1.75-5.5 3.15-4.35 1.25-6 0.9-5.5 15.5-5.25 33.25 0.15 7.75 2.4 23.6l33.35 9.45-11.1 20.8q-3.45-0.7-14.4-7-9.6-5.5-14.75-5.1-7.25 0.2-10.95 3.45l-2.1 2.2q-0.95 1-1.7 1-1.85 0-6.35-8.95-4.2-8.45-8-19.1-5.35-14.9-7.55-35.85-2.1-20.1 0.55-25.35 2.05-4.1 6.6-1.65 2.45 1.35 6.3 4.2 3.7 1.45 4.8 1.5 4.7 0.2 12.2-3.95" fill="#6279ac"/>
  <path d="m366.5 148.05q-5.35 7.45-13.75 9.7-18.2 4.9-36.9 16.9-29.95 19.25-35.65 45.05l-38.85-65.2 13.8-11.8q14.95-12.85 26.5-22.05 38.85-31.05 52.35-32.25 17.05-1.45 29.3 11.55 5.35 5.65 8.1 12.8t2.15 14q-1.2 13.15-7.05 21.3" fill="#718bc6"/>
  <path d="m373 118.15q0.9 4.45 0.55 8.6-1.2 13.15-7.05 21.3-5.35 7.45-13.75 9.7-18.2 4.9-36.9 16.9-29.95 19.25-35.65 45.05l-16.2-27.2q19.45-25.2 49.35-44.55 24.75-16 59.65-29.8" fill="#6279ac"/>
  <path d="m371.4 112.75q2.75 7.15 2.15 14-1.2 13.15-7.05 21.3-5.35 7.45-13.75 9.7-4.6 1.25-11.05 3.75-8.95 3.55-17.25 8.05 4.75-8.2 6.25-17.45 1.55-9.4-0.75-17.15-2.4-8.3-8.75-12.7-7-4.9-17.85-4.2-1.5-0.4-5.45-2.7-3.65-2.05-6.25-2.5 30.65-23.4 42.35-24.45 17.05-1.45 29.3 11.55 5.35 5.65 8.1 12.8" fill="#ffe792"/>
  <path d="m373.4 120.35q0.4 3.6 0.15 6.4-1.2 13.15-7.05 21.3-5.35 7.45-13.75 9.7-4.6 1.25-11.05 3.75-8.95 3.55-17.25 8.05 4.35-7.5 6-16 1.65-8.55 0.15-16 13.1-6.1 20.45-9.2 11.3-4.65 22.35-8" fill="#dbc77f"/>
  <path d="m123.4 330.5q-2.2 1.65-5.15 2.2l-8.25 0.85q2.4-4.15 3.6-4.8l1.6-0.7 1.1-0.8 0.75-1.25 0.3-0.75q0.65 2.05 3.25 3.15 2.45 1.05 4.45 0.6l-1.65 1.5" fill="#6279ac"/>
  <g fill="#0d131a">
   <path d="m81.5 215.2q9.7-9.05 24.3-9.7l0.35 2.05q-28.95 4.8-34.95 30.6l1.8-0.85q1.85-0.8 2.2-0.4 0.4 0.5-0.9 1.4l-3.95 2.7q-6.65 5.05-7.35 8.2-1.4 6.05 0.3 12.45 1.9 7.2 6.7 9.6 1.8 0.9 4.35 1.35l4.75 0.65q7.75 1.05 7.25 2.4-0.25 0.75-1.45 0.5l-3.45-0.7q3.25 4.4 8 8.05 7.15 5.5 15.1 6.8l-2.5 1.65q-7.65-1.3-15.45-8.1-4.7-4.05-7.85-8.45-4.8 0-9.75-1.85-4.55-1.7-7.05-6.95-2.2-4.7-2.2-10.75 0-3.95 0.6-6.9 0.45-1.95 3.1-4.65l5.3-4.75q3.15-15.45 12.75-24.35"/>
   <path d="m171.05 293.75 0.2-1.35 1.55 0.15q3.75 0.35 5.6 1 3.45 1.15 4.85 3.85 1.95 5.2-2.15 8.5-4.35 3.45-12.55 2.1l0.2-1.35q7.2 0.6 10.85-2.45 3.25-2.7 1.85-5.95-1-2.45-3.8-3.45-1.55-0.6-5-0.9l-1.6-0.15"/>
   <path d="m93.6 294.55 6.25-2.3q3.05-1.35 4.3-2.6l1.5 1.45q-1.5 1.5-4.65 2.95l-6.7 2.5q-6.4 2.25-9.35 3.65-5.05 2.4-7.55 5.3-2.2 2.5-2.45 5.3l-2.75 1.45q-0.25-4.25 2.9-7.8 2.75-3.2 8.4-5.9 3.4-1.65 10.1-4"/>
   <path d="m144.4 318.6q-10.75 6-16.35 10.7-4.05 3.4-7.8 4.6-4.3 1.45-10.85 1l0.8-2.15q5.95 0.25 10.7-2 2.65-1.3 6.75-4.7 5.3-4.5 16.25-10.1 11.45-5.85 19.5-7.9 6.1-1.5 7.6-5.5 0.9-2.35 0.25-7.05l-0.1-0.7 2.1-0.3 0.1 0.7q0.65 5.2-0.35 8-1.9 5.1-9.1 6.9-7.55 1.9-19.5 8.5"/>
   <path d="m71.8 257.2q0.75 2.65 0.3 5t-1.75 2.7q-1.25 0.35-2.4-1.15-1.05-1.45-1.85-4.2-0.95-3.25-0.6-5.55 0.3-1.95 1.35-2.4 1.2-0.5 2.7 1.2t2.25 4.4"/>
   <path d="m65.65 330.95q-0.9-1.9-0.6-4.4 1.05-9.35 6.25-15.2 4.7-5.2 11.15-6.15 3.65-0.5 6.05 2.1 1.9 2 2.35 4.9l-1.35 0.2q-0.35-2.2-1.85-3.8-2-2.1-5.2-1.7-3.95 0.55-8.7 5.3-6.05 6-6.95 14.15-0.45 4.45 2.75 5.5l4.55 0.85 4.1-0.45 0.3 2.1-5.1 0.45q-2.6-0.3-4.95-1.2-1.85-0.75-2.8-2.65"/>
   <path d="m79 332q0 2.1 0.85 3.3 0.8 1.1 2.5 1.6l4.4 0.7 4.3-0.35 0.35 1.3q-4.45 1.7-9.55 0.1-4.15-1.3-4.4-6.2-0.25-6.55 2.15-11.5 2.5-5.2 8.05-9.1 2.65-1.8 6.15-2.35l4.75 0.1q2.2 0.6 3.75 2.7 0.75 1 1.9 3.4l-1.2 0.6q-0.7-1.45-2.05-2.65-1.6-1.45-3.55-2-4-1.05-8.15 1.85-4.1 2.9-6.65 6.65-3.6 5.35-3.6 11.85"/>
   <path d="m113.5 317.8q-2.7-2.9-6.15-2.65-3.8 0.3-8.65 5-6.35 6.2-7.15 15.45-0.3 3.85 2.1 4.65 2.85 1 6.4 0.95 3.8-0.1 6.25-1.35 1.15-0.6 1.55-1.4l0.7-2.35q0.85-3.1 2.7-5.65 2-2.7 4.3-3.4 0.95-0.3 0.95-2.15l-0.15-1.4q-0.6-3.25-2.85-5.7m-6.4-4.5q4.25-0.3 7.5 3.05 2.75 2.75 3.4 6.3 0.35 2-0.25 3.7-0.65 1.65-1.8 2-2.05 0.6-3.85 3.05-1.65 2.25-2.05 4.45-0.45 2.7-1.2 4.05-0.75 1.45-2.15 2.05-2.75 1.3-6.1 1.35t-6.8-1.1q-4.05-1.3-3.95-6.45 0.25-9.75 6.6-16.4 5.1-5.3 10.65-6.05"/>
   <path d="m77.3 13.55q1.6 2.2 2.35 5.45 0.9 3.9 0.25 8.6-0.85 6.5-4.45 12.4-1.15 1.85-5.95 3.8-4.7 1.85-7 1.55-5.85 18.05-4.55 37.85 0.65 9.9 2.45 16.15l-2.1 0.3q-2-6.6-2.8-16.65-1.55-20.15 4.55-37.5-2.1 1.65-7.35 3.05l-4.85 1.05q-1 0.25-1.95-0.3l-1.45-1.2q-1.95 3.8-3.55 4.2-2.75 1.35-9.45-0.1-5.45-1.2-9.05-2.95-1.4-0.75-2.1-3.4-0.25-0.95-0.15-2.35 0.1-1.3 0.4-1.95-1.7-1-3.25-3.1-0.8-1.15-0.5-1.65t1.25 0.45q1.85 1.95 3.7 2.75l2.9 1.1q1.65 0.75 0.25 1.35l-2.6-0.2q-0.3 1.95 0 3.4 0.3 1.4 1 1.75 3.25 1.65 9.85 2.3 6.5 0.6 7.3-0.45l0.25-0.35 0.45-0.85 2.75-5.55q1.4-3.5 1.5-5.15 0.05-1-2.05-5.55l-3.75-7.15q-1.55-2.7-0.8-3.05 0.7-0.4 2.6 2.3 2.05 2.85 4.1 6.85 2.15 4.25 2.1 5.5-0.3 5.2-2.25 9.5 1.5 1.3 3.1 0.95 4.6-0.8 8.1-2.55 2.95-1.45 3.7-2.75 2.15-3.65 3.4-8.5 0.55-2.2-6.5-14.95-1.1-2-0.35-2.55 0.8-0.55 2.9 2.25 2.6 3.4 4.8 7.8 2.4 4.9 2 6.65-0.9 3.85-2.55 7.1l-1.4 2.4q1.4 0.3 5.6-1.15 4.35-1.55 4.95-2.85l2.45-6.25 1.05-5.45q0.45-3.05 0.1-4.9-0.35-2-1.9-4.3-5.2-7.7-7.8-9.7-5.25-4-13.7-2.45-35.7 6.45-41.15 15.15-5.4 8.65-7.8 23.7-3.05 18.95 1.45 37.3t16.6 42.8q9.25 18.7 15.9 28.15 2.6 3.75 7.75 3.65 4.3-0.1 6-1.85 0.7-0.75 1.2-2.8l0.65-3.15q-3.35-1.7-3.4-2.9-0.05-1.15 3.3 0.4 7.3 3.35 13.55 6.45l-2.1 2.15-5.2-2.9q-2.55-1.5-3.35-1.85-1.05 3.7-3.05 6.1-2.75 3.25-7.95 2.95-5.55-0.35-9.05-4.9-7.05-9.15-16.65-27.55-12.5-23.9-17.05-42.45-4.65-18.9-2-38.65 2.15-15.85 7.35-24.85 3.75-6.4 14.5-11.1 10.65-4.6 29.25-7.95 9.35-1.7 16.2 3.2 3.6 2.55 9.05 9.9"/>
   <path d="m2.2 68.95 0.75-3q0.7 1.65 5.3 4.35 3.15 1.9 6 3.15 1.65 0.7 1.6 1.2l-1.9 0.15q-10.15-1.95-11.75-5.85"/>
   <path d="m7.45 91.1-0.4-2.75q2.05 2.2 9.9 5.75 2.1 0.9 1.95 1.4l-2.2-0.1q-6.9-1.7-9.25-4.3"/>
   <path d="m17.3 114.35-1.5-2.7q1.25 1 4.15 2.1l3.95 1.3q1.6 0.5 1.8 1.1 0.25 0.6-1.1 0.5l-3.8-0.5q-1.95-0.55-3.5-1.8"/>
   <path d="m348.5 91.05q-6.95-2.45-14.35-1.6-7.2 0.9-14.8 5.25-4.25 2.45-10.45 7.35l1.55-5.25q4.55-4.75 9.45-7.3 5.8-3 13.95-4 19.1-2.3 32.2 11.6 5.7 6.1 8.55 13.95 2.85 7.9 2.05 15.65-1.35 13.55-7.6 22.55-5.2 7.55-11.5 9.25-21.2 5.65-41.6 18.75-29.45 18.9-34.75 42.7l-2.05-0.45q6.3-28.3 40.2-48.3 17-10 33.15-14.5 8.6-2.3 13.75-10.05t6.25-20q0.65-7.1-2.4-14.5-3.05-7.45-8.95-13.15-5.65-5.5-12.65-7.95"/>
   <path d="m329.35 128.3q4.95 7.9 3.7 19.9-1.25 11.85-8 21.35l-2.25 0.05q5.55-8.7 6.55-20.2 1.05-11.95-3.65-19.4-3.75-5.95-9.65-9-6.05-3.1-13.45-2.55l0.5-2.25q7.95-0.6 15.15 2.65 7.3 3.3 11.1 9.45"/>
  </g>
  <path d="m242 136.75q8.9 10.3 15 19.75 15.05 23.3 21.7 55.55 6.35 6.35 11.6 17.55 7.6 16.3 6.05 32.05-0.9 8.95-7.7 17.75-6.15 7.85-13.15 11.1 8.3 4.45 14.8 10.7 9.2 8.8 9.05 16.65-0.15 6.5-8.15 11.45-7.25 4.4-18.8 6.4l-21.7 0.7q-11.15-1.3-17-5.65-2.5-1.85-3.25-3.9-0.45-1.1-0.7-4.2-0.6-7.25-5.5-14.75-3.15-2.2-6.35-2.45-1.85-0.1-3.65-3.5-1.4-2.6-0.9-7.15l1.45-8.25q-2-2.4-5.95-8.75-4.45-7.2-5.3-10.15-0.55-43.7 1.85-84.25 4.8-81.1 19.6-65.25l17 18.6" fill="#718bc6"/>
  <path d="m225 118.15 17 18.6q8.9 10.3 15 19.75 15.05 23.3 21.7 55.55 6.35 6.35 11.6 17.55 7.6 16.3 6.05 32.05-0.9 8.95-7.7 17.75-6.15 7.85-13.15 11.1 8.3 4.45 14.8 10.7 9.2 8.8 9.05 16.65-0.05 1.2-4.75 6.6l-5.5 6.4q1.95-18.1-23.45-26.2-4.4-1.45-17.75-4.45-8.15-1.8-8.15-3.35 0-1.15 2.45-2.35 3-1.45 4-3.1 1-1.55-2.55-11.4-3.5-9.8-3.2-10.35 1.15 1.7 4.5 8.35 2.35 4.65 4.75 6.4 1.85 1.3 4.65 1.4l2.9-0.15q5.25-0.15 11.2-1.85 5.8-1.65 8.3-3.65 2.8-2.15 2.8-5.5 0-2.9-1.9-5.55-1.25-1.75-6.15-2.15-4.7-0.4-4.9-0.95-0.4-1.1-0.35-3.9 0-2.7 0.35-4.5 0.15-0.9 3.4-3.75 3-2.65 2.65-4.6-0.85-4.95-5.15-9.25-4.1-4.05-10.2-6.45-13.75-5.45-24.8 0.55-9.65 5.25-14.95 17.45-5.5 12.55-5.65 30.95-2.75-4.05-5-8-2.75-4.7-3.35-6.85-0.55-43.7 1.85-84.25 4.8-81.1 19.6-65.25" fill="#6279ac"/>
  <path d="m284.5 335.8q-1.35-2.1-2.1-4.95l-0.5-2.45-3.85-12.85q1.45-4 6.5-6.1 5.65-2.35 9.6 1.6 7.85 7.95 7.35 20.85-0.2 5.8-7.3 7.05-7 1.2-9.7-3.15" fill="#eef3f6"/>
  <path d="m294.15 311.05q7.85 7.95 7.35 20.85-0.15 3.05-2.65 5-2.2 1.8-5.55 2.15 1.55-8.35-1.2-16.35-3.05-8.75-9.8-12.05 2.9-1.9 5.85-2 3.45-0.1 6 2.4" fill="#cacfd2"/>
  <path d="m275.15 312.65q4.35 4.35 6.4 11t1.3 14.1q-0.25 2.85-3.2 4.8-2.7 1.75-6.35 2-3.7 0.3-6.3-1.1-2.9-1.6-3.1-4.75-0.2-3.4-1.4-5.75l-1.15-1.65-3.25-13.15q0.5-5.45 6.6-7.55 6.2-2.2 10.45 2.05" fill="#eef3f6"/>
  <path d="m282.85 337.75q-0.3 3-3.4 4.9 1.4-17-7.75-32.15 2.05 0.75 3.45 2.15 4.35 4.35 6.4 11t1.3 14.1" fill="#cacfd2"/>
  <path d="m237.85 320.7q0.85-4.5 6.75-6.95 6.25-2.55 10.3 1.5 4.35 4.35 6.4 10.95 2.05 6.65 1.3 14.1-0.25 2.85-3.45 4.65-2.9 1.6-6.9 1.7-4.05 0.1-6.9-1.45-3.1-1.75-3.3-4.9-0.2-3.4-1.1-6.35l-0.85-2.3q-0.8-1.35-1.5-3.45-1.35-4.1-0.75-7.5" fill="#eef3f6"/>
  <path d="m254.9 315.25q4.35 4.35 6.4 10.95 2.05 6.65 1.3 14.1-0.3 3.3-4.25 5.05 1.9-15.45-6.65-32.1 1.85 0.65 3.2 2" fill="#cacfd2"/>
  <path d="m324.5 67.4q-8.2 11-17.3 35.9-9 24.5-10.6 39.6-1.15 10.75-2.25 15.85-1.2 5.65-2.8 6.4-5.2 2.65-11.05 2.5-7.45-0.2-10.85-5.7l-18.7 0.8q-15.15 1.2-17.9 3.5-7.85-4.6-13.65-10.2-11.55-11.25-1.1-16.4 14.15-6.95 21.35-9.05 9.45-2.75 17.45-1-1.45-13.7 0.6-28.5 3.05-22.6 13.75-34.7-2.8-3.65-4.85-10.1-2.1-6.75-1.6-11.45-3.65-1.4-5.75-4.05-2.9-3.6-1.45-8.15 2.25-7.15 7.65-11.9 7.15-6.35 15.7-2.8 4.2-3.75 11-6.1 9.2-3.25 13.4 1.4 4-3.1 7.45-3.4 5.45-0.45 8.75 6.3 4.9 10.15 6.65 24.9 2.2 18.1-3.9 26.35" fill="#718bc6"/>
  <path d="m328.55 42.05q1.85 17.35-4.05 25.35-8.2 11-17.3 35.9-9 24.5-10.6 39.6-1.15 10.75-2.25 15.85-1.2 5.65-2.8 6.4-5.2 2.65-11.05 2.5-7.45-0.2-10.85-5.7l-12.95 0.4q-11.05 0.9-23.65 3.9-7.25 1.7-14.8-1.25-7.4-2.9-10.25-8.25-3.1-5.85 1.5-11.4 5.4-6.45 20.4-10.7-4.05 4.05-2.8 9.85 1.35 6.15 8.25 4.9l14.85-2.35q9.4-1 12.1 1.05 1.4 1.05 3.65 4.15l3.75 4.95q4.15 5.2 5.1 0.2 0.4-2.15-0.45-12.4-1.1-13.75-1.25-21.65-0.75-32.3 9.05-52.5 3.6-7.4-0.1-18.85l-3.5-10.15q-2-6.3-2.55-11.3-0.2-2.05 2.6-4 3.15-2.1 8.7-2.95 5-2.9 10.4-4.35 6.95-1.85 12.15-0.5 4.3-2.3 8.5-2.2l3.9 0.65q4.75 10.8 6.3 24.85" fill="#6279ac"/>
  <path d="m206.4 163.85q16.6 6.75 8.95 25.1-6.6 15.9-6.55 37 0.05 11.3 1.4 26.8 0 6.55-11.75 24.95-12.15 19.05-18.65 20.5-6.3 1.4-12.5-0.25-4.6-1.25-10-4.5l-15.3-0.65q-14.45 0.2-17.2 1.6-5.55 2.95-9.75 3.5-4.65 0.65-11.3-0.95-3.7-0.85-7.5-7-3.4-5.5-3.2-7.65 0.15-1.55 3.9-5.1 3.8-3.65 4.05-4.8 5.1-25.2 3.95-58.7-1.15-32.8-6.9-41.2 34.9-9.25 67-11.8 28.1-2.25 41.35 3.15" fill="#718bc6"/>
  <path d="m206.4 163.85q16.6 6.75 8.95 25.1-6.6 15.9-6.55 37 0.05 11.3 1.4 26.8 0 6.55-11.75 24.95-12.15 19.05-18.65 20.5-6.3 1.4-12.5-0.25-4.6-1.25-10-4.5l-15.3-0.65q-14.45 0.2-17.2 1.6-5.55 2.95-9.75 3.5-4.65 0.65-11.3-0.95-2.9-0.65-6.4-5.9-2.3-3.4-3.8-6.95 1.75 2.95 8.15 4 8.55 1.35 18-2.65 1.05-0.4 15.65-0.05l20.55 0.95 7.5 1.35q6 0.8 14.5-0.05 2.8-0.25-1.05-2.45l-5.1-3.05q-0.5-11.95-12-8.95-2.4 0.65-9.25 3.35-5.2 2.05-7 1.85-8.25-0.9-14.1 0.05-3.85 0.65-7.45 2.3-5.25 2.35-11.2 2.9l-4.9 0.05q-0.15-1.95 0.25-4.3 0.85-4.75 3.85-6.85 5.85-4.15 8.2-6.8 4.1-4.6 3.75-9.6-0.35-4.75-2.75-12.65l-4-12.5q-1.4-4.65-4.45-9.65l-5.8-9q-0.6-14.45-2.3-24.95-1.85-11-4.55-14.9 34.9-9.25 67-11.8 28.1-2.25 41.35 3.15" fill="#6279ac"/>
  <path d="m104.75 172.75q21.55-7 42.2-11.45 41.35-8.85 36.8 3.85-4.45 12.6 0.1 38.2 2.4 13.35 6.55 30.55 1.1 8.75-0.65 18.85-2.05 11.85-7.3 19.85-6.5-2.15-15.6 1-8.9 3.05-9.2 6.95l-18.8 0.6-16.55-0.95q-1.2-2.7-6.35-4.85-5.05-2.1-7.55-1.1 4.45-33.65 2.4-65-1.65-25.25-6.05-36.5" fill="#922f00"/>
  <path d="m109.3 192.8q-0.85-9.2-2-13.4l-2.55-6.65q21.55-7 42.2-11.45 41.35-8.85 36.8 3.85-4.45 12.6 0.1 38.2 2.4 13.35 6.55 30.55 1.1 8.75-0.65 18.85-2.05 11.85-7.3 19.85-6.5-2.15-15.6 1-8.9 3.05-9.2 6.95l-18.8 0.6-16.55-0.95q-0.6-1.3-2.4-2.65-1.7-1.25-3.95-2.2l-1.9-0.5q-2.35-0.45-2.8-1.65-1.35-3.2-1.45-8.55-0.1-4.95 0.75-5.85 1.95 3.45 7.65 6.25 5.5 2.7 6.6 1.4 10.25-11.8 12.1-23.7 2.4-13.95-6.8-28.65-7.8-12.4-20.8-21.3" fill="#6a1a00"/>
  <path d="m130.85 229.15q7.35-5.9 14.6-6.15l21.75 1.1q15.3 0.6 20.55-2.4l1.2 4.35q1.3 5.5 1.6 11.45 1.05 19.05-7.85 35-4.5-2.05-11.75-0.65l-6.35 1.75-7.8-0.2-10.75 1.6q-15.15 2.1-22.75-2.05-7-3.85-6.6-14.95 0.35-8.6 4.25-16.8 3.3-6.75 9.9-12.05" fill="#ed8599"/>
  <path d="m130.9 228.9q7.2-5.65 14.55-5.9l21.75 1.1q15.3 0.6 20.55-2.4l1.15 4.1q1.25 5.2 1.6 10.8 1.2 18-6.5 33.45-1.1-8.6-8.5-13.3-6.8-4.3-15.65-3.6-5.65 0.45-10.35-1.15-2.95-1.05-7.95-4-5.3-3.1-8.5-4.35-5.5-2.15-12.1-2.45 3.2-7.05 9.95-12.3" fill="#ce7486"/>
  <path d="m213.25 297.05 0.25-2.15q0.3 2.05 2.7 4.85 2.8 3.35 6.75 5.1 1.4 0.65 1.1 1.45l-0.6 0.65q-1.55-0.85-4.2-1.4-4.4-0.85-5.6-4.35-0.55-1.65-0.4-4.15" fill="#6279ac"/>
  <path d="m225.05 307.3q0.6 0.45 1.9 3.15l2.6 5.4q3.95 7.45 7.9 7.9l0.05 1.3q0.2 1.55 0.75 2.7 2.65 5.45 2.65 6.45-3.85-0.8-6.35-2.4-1.9-1.2-2.9-2.5-1.05-1.4-1.4-3.4l-0.4-5.1q-0.3-3.7-1.3-6.05l-2.4-5.2-1.1-2.25" fill="#6279ac"/>
  <g fill="#0d131a">
   <path d="m211.45 296.9q0.1-1.6 1.15-5.8l1.1-4.3q-9.95-12.55-11.15-16.85l2.05-2.6q6.85 16.3 18.55 24.65 2.85 2.05 6.5 3.85 1.95 0.95 1.2 1.1-2.15 0.5-8.4-2.75-6-3.1-6.75-4.55-2.65 7.2-1 11.35 1.1 2.85 3.55 3.45l1.95 0.45q1.25 0.35 2.7 1.2l-1.05-1.75q-0.75-1.5 0.55-0.4 7.3 6.35 8.45 19.05 0.2 2.6 0.65 3.7 0.65 1.6 2.85 3.25 2.3 1.7 5.9 3.05l0.5 1.8 0.5 1.9q-5.45-1.8-8.2-3.9-2.6-1.95-3.55-4.75-0.55-1.6-0.75-4.9-0.25-3.35-0.95-5.7-1.25-4.05-4.3-8.8-2.9-2-5.35-2.1-2.3-0.1-4.25-2.05-2.75-2.7-2.45-7.6"/>
   <path d="m269.05 185.4q-4.9-12.65-11.55-23.55l4.1 0.05q6.55 11.2 10.75 22.2 4.85 12.6 7.15 26.15 9.8 7.65 15 20.45 5.9 14.5 4.15 32.05-0.85 8.3-7.6 16.45-5.8 7-13.45 11.3 9.65 5.5 15.6 11.35 8.55 8.45 7.5 15.95v2.2l-2.55-4.25q-1.05-6.85-8.9-14.3-6.05-5.7-13.5-9.7-4.2 1.8-6.8 2.3l-2.35-0.2q-0.4-0.6 1.35-1.25 11-4.2 18.45-12.55 7.6-8.5 8.55-17.9 1.75-17.15-4.65-32.1-6.2-14.45-16.65-19.65-8.8-4.35-19.7-5.7l-5.8-0.65q-2.05-0.35-1.85-1.15 0.6-2.15 11.15-0.6 11.35 1.6 18.35 6.3-2-10.95-6.75-23.2"/>
   <path d="m222.3 117.55q2.8 1.5 6.7 4.5 5.45 4.05 10.15 8.95l-3.7 1.1q-4.25-4.8-8.5-8.5-3.6-3.1-5.65-4.2l1-1.85"/>
   <path d="m278.6 271.9q-0.5-9.9 2.05-15.95 0.9-2.2 1.7-1.5 0.8 0.75 0.2 2.4-0.9 2.4-1.2 4.5-0.55 3.95-0.2 10.4 0.5 10.4-14.3 14.75-8.35 2.45-15.75-0.2-2.1-0.75-3.75-2.6-1.75-1.95-3.45-5.75l-3-5.95q-1.8-3.1-2.75-4.15-1.45-1.6-1.25-2.1 0.25-0.6 2.6 0.45 1.6 0.7 3.6 4.3 1.55 2.8 2.95 6.65 1 2.75 2.2 4.3 1.25 1.65 3.05 2.35 3.1 1.2 6.8 1.4 4.25 0.3 8.1-0.85 6.7-1.95 9.65-4.95 3-3 2.75-7.5"/>
   <path d="m272.9 273.1c0.3 1.4667-0.55 2.8833-2.55 4.25-1.9 1.3-4.2833 2.2167-7.15 2.75s-5.3667 0.53333-7.5 0c-2.2333-0.56667-3.35-1.6-3.35-3.1 0-0.93333 0.91667-2.0333 2.75-3.3 2-1.4333 4.2833-2.4 6.85-2.9 0 0 4.9655-1.0994 7.3-0.4 1.4497 0.43431 3.3833 1.2667 3.65 2.7"/>
   <path d="m295.45 310.5q3.9 3.9 5.9 10 1.9 5.85 1.65 12.5-0.1 2.65-2.25 4.9t-5.25 3.1l-6.45-0.2q-3.55-1.1-5.15-3.65-0.4-0.6-0.5-2.4-0.15-1.75 0.65-0.5 3.45 5.3 11 3.8 2.6-0.5 4.15-2.25 1.5-1.7 1.6-3.95 0.2-4.85-1.3-10.3-1.75-6.3-5.05-9.95-1.55-1.7-4.1-2.15l-3.85 0.1q-2.65 0.6-5 2.55-2.1 1.8-2.8 3.7l-1.3-0.45q0.8-3.1 2.8-5.3 2.2-2.4 5.25-3.1 1.85-0.4 4.75 0.5 3.2 1 5.25 3.05"/>
   <path d="m270.7 309.3q3.3 0.9 5.55 3.15 4.5 4.45 6.6 11.2t1.35 14.35q-0.35 3.5-4.05 5.95-3.6 2.4-7.75 2.3-3.95-0.1-6.6-1.8-2.7-1.8-2.9-4.7-0.3-5-0.95-6.3 0-1.1 0.5-1.85 1.85 2.6 2.15 7.05 0.15 2.65 2.45 4.05 1.95 1.15 4.85 1.25 3.75 0.05 6.75-1.6 3.25-1.85 3.55-4.65 0.7-7.3-1.3-13.8t-6.25-10.75q-3.5-3.5-9.8-1.2-2.45 0.85-4.3 3.35-1.8 2.35-2.05 4.7l-1.05-1.95q0.25-2.7 2.05-5.1 1.9-2.55 4.75-3.55 2.95-1.1 6.45-0.1"/>
   <path d="m236.55 320q0.4-2.45 2.85-4.9 2.5-2.45 5.6-3.4l6.1 0.3q3.15 1.05 5.15 3.05 4.35 4.35 6.45 11.6 2.05 7.1 1.35 14.75-0.3 3.35-4.25 5.45-3.55 1.9-8.05 1.8-3.85-0.1-7.15-2-3.8-2.25-4-5.75l-0.65-6.4-0.45-2.5q-1.8-3.15-2.5-5.5-1-3.3-0.45-6.5m4.25-3.05q-1.9 1.85-2.25 3.9-0.6 3.2 0.7 7.15 0.65 1.95 1.45 3.35l0.95 2.45q0.85 3 1.05 6.5 0.15 2.8 3.05 4.35 2.4 1.25 5.8 1.35 3.9 0.05 6.85-1.4 3.25-1.65 3.55-4.35 0.7-7.25-1.3-13.8-2-6.5-6.25-10.75-1.9-1.9-4.8-2.05-1.95-0.1-4.1 0.55-2.75 0.9-4.7 2.75"/>
   <path d="m330.7 40.2q3.05 18.2-3.35 26.8-8.05 10.85-17.6 35.75-9.75 25.35-11.3 40.2-1.25 11.6-2.75 17.35-1.4 5.45-3.3 6.35-5.45 2.8-12.6 2.3-8.25-0.6-10.65-5.95l-17.7 1.3q-11.55 1.25-17.75 2.75l-3.55 0.1q-0.6-0.65 3.15-2 9.55-3.35 22.8-4.3 6.6-0.45 11.55-0.25l-1-3.55q-0.4-1.85 0.75-1.2 1.35 0.7 3.5 5.6 1.5 3.5 8.9 3.95 6.85 0.45 11.4-1.85 2.4-1.15 4.35-20.75 1.65-15.65 10.75-40.35 9.15-24.7 17.35-35.7 6.05-8.1 3.6-25.85-1.9-13.9-6.6-23.65-2.4-5-5.85-5.85-1.65-0.4-3.6 0.3-1.15 0.35-3.85 1.8 3 4.25 4.85 9.95 1.8 5.7 0.35 6.2-0.6 0.2-1-1.1l-0.9-3.65q-1.7-6.6-5.85-10.95-3.75-3.9-12.25-1.1-7.15 2.35-9.45 5.2 6 6.15 8.05 11.65 1.65 4.65 0.05 4.8-0.45 0.05-0.9-1.15l-1.3-3.25q-2.55-5.9-8.2-10.9-1.95-1.7-5.15-1.65-2.8 0.05-5.6 1.35-3.8 1.8-6.65 5.6-2.4 3.25-3.75 7.4-1.4 4.5 1 8.35 1.7 2.7 3.7 3.55l0.8-2.25q0.9-2.1 1.5-1.5 0.55 0.5 0.25 1.35-0.65 1.85-0.85 3.6-0.5 4.6 1.2 10.45 1.6 5.7 4.3 9.15l1-0.65q1.05-0.6 1.6-0.3 0.7 0.4-0.6 1.7l-3 3.35q-10.4 15.8-12.15 39.2-1.15 15.6 1.25 27.65 0.45 2.35-0.25 2.15-0.65-0.2-1.2-1.35l-1.15-3.2-0.8-2.45q-7.35-1.6-20.45 2.45-11.2 3.45-16.9 7.4-1.85 1.25-2.7 0.75-0.85-0.55 1.5-2.5 6.1-4.95 17.65-8.25 12.05-3.4 20.6-2.15-0.45-4.6-0.45-10.4 0-14.15 2.5-25.8 3.6-16.5 11.9-26.3-3.6-3.55-5.05-8.15-1.55-5-0.95-12.25-3.2-0.55-5.4-3.45t-2.2-6.55q0-6.1 2.9-10.8 3.2-5.15 9.6-8.15 5.1-2.4 12.15 0.2 2.95-5 11.1-7.05 8.65-2.2 13.6 2.25 5-4.6 9.9-3.45 2.15 0.5 4.2 2.5 2 1.95 3.35 4.8 5.3 10.9 7.6 24.4"/>
   <path d="m285.4 91.65q8.15 2.15 15.3 0.9 6.25-1.05 12.05-4.8l-0.55 3.2q-5.55 3.6-12.55 4.15-7 0.5-14.8-2.2-1.35-0.45-1.35-1.1t1.9-0.15"/>
   <path d="m294.35 112.5q7.85-0.6 11.5-3.55l-1.15 3.35q-3.85 3.05-11.95 2.75-6.85-0.25-12.2-2.4-2.05-0.8-2.2-1.4l2.7 0.15q6.05 1.65 13.3 1.1"/>
   <path d="m288.15 132.9q7.15-0.45 10.4-2.55l-0.85 2.6q-7.3 4.65-19.25 0.9-1.8-0.55-1.9-1.2l2.3-0.1 9.3 0.35"/>
   <path d="m214.4 188.5q1.8-2.7 2.45-1.85 0.6 0.85-0.6 2.8-6.35 10.6-7.15 28.3-0.55 12.1 1.45 25.8 1.15 7.85 1.15 10.5-0.05 7-12 25.55-12.45 19.25-19.45 20.8-6.45 1.45-13.3-0.9-3.9-1.35-10.15-5.1l-15.05-0.6q-14.05 0.1-16.45 1.55-6.7 4-10 4.65-3.95 0.8-11-0.9-4.95-1.15-9.3-7.95-3.85-5.95-3.55-9 0.15-1.25 1.8-2.95l3.35-3.15q3.2-2.95 3.35-3.85 5.05-25 3.45-59-1.6-32.55-7.2-40.75l2.75-0.55q6.05 8.9 7.1 42.3t-4 58.4q-0.2 1-1.35 2.35l-2.65 2.6-2.55 2.6q-1.35 1.45-1.4 2.25-0.15 1.75 3 6.9 3.55 5.85 6.85 6.65 6.6 1.55 11.2 0.9 3.85-0.6 9.2-3.4 3-1.55 17.65-1.7l15.8 0.8q5.3 3.15 9.6 4.35 6 1.6 12.15 0.25 6.3-1.4 18.15-20.15 11.45-18.1 11.45-24.25 0-2.85-1.1-10.2-5.35-36.35 6.35-54.05"/>
   <path d="m222.4 192.95q0.7-2.7 1.3-1.55 0.65 1.1 0.2 3.5-1.35 7.25-5 14.05-4.5 8.4-10.6 11.8l-0.25-4.2q6.9-4.75 10.85-13.15 1.9-4 3.5-10.45"/>
   <path d="m180.6 182.05q0-9.75 2.15-17.15l3.05 1.45q-3.45 11.95-1.25 29.7 1.25 9.95 5.4 27 2.05 8.6 2.3 10.75 1.05 8.05-2.1 21.8-3.1 13.55-6.55 16.95 2.15 1.45 1.7 2.25-0.4 0.85-3.2-1.2-2.4-1.8-9.55-0.65-6.95 1.15-10.85 3.75-1.55 1.05-1.95 1.55-0.7 0.8-1.05 2.35-1 4.45-2.25 1.5-2.7 0.5-16.15 0.05l-17.15-0.9-0.55 0.9q-0.65 0.45-1.25-1.5-0.7-2.3-5.65-4.3-4.8-1.95-6.9-1.1l-1.45-1.15q4.55-34.4 2.35-65.9-1.75-24.25-5.9-35.05l3.4 2.5q2.4 6.2 3.85 18.55 1.75 14.55 1.75 34.65 0 19.15-3.2 44.1 3.2-0.25 7.45 1.75t5.8 4.5l16.6 0.9 17.35-0.5q0.7-2.15 3.55-4.05 4.15-2.8 10.3-4.05 6.5-1.35 11.3-0.1 3.95-6.25 6-14.9 1.8-7.65 1.8-15.6 0-3.5-0.4-6.85-0.25-1.95-2.3-10.5-2.9-11.9-4.2-19.1-2.25-12.5-2.25-22.4"/>
   <path d="m116.6 182.5q1.85-6.8 4.2-9.2l1 0.95q-2.25 2.3-3.85 9.1-1.7 7.2-1.8 15.75-0.15 21.95 9.85 35.05l-1.05 0.85q-11.15-14.3-10.55-36.6 0.2-8.6 2.2-15.9"/>
   <path d="m135.35 166.45 2.6-1.55q-14.2 15.05-14.1 37.35 0.05 8.6 2.3 16.35 2.05 7 4.95 10.6l-1.1 0.85q-3.05-3.75-5.35-10.5-2.6-7.65-2.9-15.95-0.9-21.75 13.6-37.15"/>
   <path d="m150.4 193.45q0.65-6.85 3.1-13.25 2.15-5.55 4.55-8.45l1.15 0.75q-5.25 8.15-6.75 20.7-2.25 18.25 8.65 29.35l-0.95 0.95q-11.55-11.75-9.75-30.05"/>
   <path d="m156.15 224.6-10.7-0.55q-6.85 0.6-13.85 6.05-6.6 5.1-9.7 11.55-3.65 7.7-4.1 16-0.55 10.75 6 14.35 5.1 2.8 13.15 2.6l13.8-1.6q9.25-1.5 14.1 0.25l-0.5 2.2q-2.05-0.7-5.55-0.75l-7.65 0.6-14.7 1.8q-8.85 0.3-14.35-2.7-7.3-4-7.15-15.75 0.05-9.65 4.35-18.55 3.35-6.95 10.75-12.3 7.8-5.6 15.35-5.85l12.15 0.55 16.7 0.65q9.2-0.15 12.95-2.35l1.05 1.8q-4.55 2.65-9.4 3.25-4.25 0.5-13.35-0.1l-9.35-1.15"/>
  </g>
  <path d="m94 166.15q0.45 1.7 6.4 5.5l5.8 3.4-0.05 0.65-0.7 2.15q-0.75 1.8-6.35 0.4-5.6-1.45-5.6-2.95 0-5.75 0.5-9.15" fill="#eef3f6"/>
  <path d="m167.25 160.55q0.45 1.65-0.1 5.25l-1.25 7.25q-0.5 3.25-7.95 2.35-7.3-0.85-7.5-2.65-0.8-8.1-1.5-10.9l5.7-1.65 12.6 0.35" fill="#eef3f6"/>
  <path d="m167.25 160.55q0.45 1.65-0.1 5.25l-1.25 7.25q-0.35 1.95-3.5 2.4-1.35-13.05-12.9-10.5l-0.55-3.1 5.7-1.65 12.6 0.35" fill="#cacfd2"/>
  <path d="m252.65 93.7q2.45 3.85 3.05 9.45 0.65 5.75-1 10.1-1.9 4.95-6.1 6.1-16.7 4.6-25.3 8-17.05 6.85-13.75 12.15 4.1 6.55 10.9 14.65 7.15 8.5 9.1 11.5 1.75 2.65 0.2 6.6-1.4 3.6-4.8 6.95-3.4 3.3-7 4.65-3.9 1.5-6.35-0.2l-8.45-6.25q-7.25-5.2-13.7-8.8-19.7-11.05-34.05-8.65-13.8 2.35-20.15 6.4-2.1 1.3-6.9 6.8-3.95 2.35-12.6 2.85-8.5 0.5-11.5-1.25-7.9-4.6-9.45-8.4-4.45 0.5-17.8 12.05-2.2 1.85-6.3 0.95-4.05-0.95-7.4-3.9-3.7-3.25-4.45-7.4-0.95-4.8 2.45-9.55l11.65-15.65q5.25-7.15 5.25-8.75 0-1.55-8.05-3.55l-12.7-3.35q-3.7-1.35-5.55-6-1.8-4.45-1-9.5 0.85-5.45 4.4-8.8 4.1-3.9 10.7-3.9l19.4-0.1q5.4-0.25 6.8-1.65l4.2-4.2q-0.35-6.85-2.15-17.25-2.15-12.35-5.7-25.7-1.1-4.15 2.55-7.6 3.25-3 9.05-4.55 5.55-1.45 10.25-0.75 5.05 0.75 6.25 3.75 5.5 13.35 12.45 27.05 3.35-5.65 12.85-26.25 7.9-17.15 11.8-21.6 2.75-3.1 8.75-3.5 5.9-0.4 11.7 1.95 6.3 2.5 9.35 7.15 3.55 5.35 1.75 12.2-3.15 12.2-10.9 37.3l12.85-12.8 21.2-20.7q3.25-3.05 7.85-2.4 4.15 0.6 7.9 3.8 3.7 3.15 5 7.15 1.4 4.35-0.85 7.65-2.85 4.2-10.95 17.85l-10 16.75 19.4-0.6 19.8-2.35q3.45-0.1 6.05 4.1" fill="#718bc6"/>
  <g fill="#6279ac">
   <path d="m102.45 37q3.35-1.25 7.8-0.35 5.1 1.05 6.4 4.3 5.5 13.35 12.45 27.05l-3.75 5.8q-5.9 8.6-7.25 7.7-1.05-0.7-4.35-11.3-5.4-17.5-11.3-33.2"/>
   <path d="m77 178.4q-1.9 1.65-5.45 1.1-3.5-0.55-6.7-2.85l18.7-18.35q10.05-9.95 12.8-8.55 0.45 3.8-1.15 8.75-1.9 5.8-2.05 8.3-3.3 1.25-9.15 5.8l-7 5.8"/>
   <path d="m178 20.85q3.95 2.55 6.05 6.25 2.8 5 1.25 10.85-3.15 12.2-10.9 37.3-9.05 11.8-13.5 15.5-3.15 2.65-3.6 0.5-0.35-1.95 1.4-8.65 1.15-4.45 10.2-30.7 7.85-22.8 9.1-31.05"/>
   <path d="m191.45 94.6q-4.3 0-4.35-1.5t4.05-5.6q7.7-7.7 34.2-43.25 3.1 3.15 4.05 6.75 1 3.95-1.05 6.95-2.85 4.2-10.95 17.85l-10 16.75 9.5 0.35-14.05 1.25-11.4 0.45"/>
   <path d="m162.65 152.95 9.65 0.45 12.35 3.6q5.7 1.8 19 10.25 10.85 6.9 19.3 13.25-3.25 3.3-5.95 4.1-2.8 0.8-5.4-0.95l-8.45-6.25q-7.25-5.2-13.7-8.8-19.7-11.05-34.05-8.65-13.8 2.35-20.15 6.4-2.1 1.3-6.9 6.8-3.95 2.35-12.6 2.85-8.5 0.5-11.5-1.25l-5.6-3.7q-3-2.5-3.95-5.2 4.8 2.6 14.55 2.7 9.95 0.15 13-2.6l6.65-5.5q4.1-2.9 8.2-4.1 7.6-2.25 25.55-3.4"/>
   <path d="m223.3 127.35q-17.05 6.85-13.75 12.15 2.35 3.85 5.8 8.35-7.25-5.75-13.3-14.95-6.15-9.4-4.5-12.7 1.35-2.65 23.2-7.55l35.05-7.95q0.35 5.3-1.35 9.2-1.9 4.35-5.85 5.45-16.7 4.6-25.3 8"/>
  </g>
  <g fill="#ffe792">
   <path d="m91.1 42.5q3.25-3 9.05-4.55 5.55-1.45 10.25-0.75 5.05 0.75 6.25 3.75 3.4 8.1 6.85 15.45-8.1-2.5-15.2-1.05-9.8 2-15.7 11.35l-4.05-16.6q-1.1-4.15 2.55-7.6"/>
   <path d="m162.5 16.65q5.9-0.4 11.7 1.95 6.3 2.5 9.35 7.15 3.55 5.35 1.75 12.2-3 11.65-10.7 36.7l-1.45 1.4-1.8 1.35q-1.3-2.9-5.85-6.55-5.1-4.15-10.7-6.05-7.65-2.2-17.4 0.4-3.4 0.9-6 2.1-1.55 0.7-1.95 1.15l11.7-25.5q8.3-17.9 12.6-22.8 2.75-3.1 8.75-3.5"/>
   <path d="m208.45 41.75q3.25-3.05 7.85-2.4 4.15 0.6 7.9 3.8 3.7 3.15 5 7.15 1.4 4.35-0.85 7.65-3.2 4.8-9.3 15-2.25-9-5.6-12.35-6.1-6.1-19.95-4.35l14.95-14.5"/>
   <path d="m61.3 158.5 4.45-5.9q1.5 11.5 7.75 16.15 2.2 1.6 5.45 2.65l5.05 1.45-7 5.55q-2.2 1.85-6.3 0.95-4.05-0.95-7.4-3.9-3.7-3.25-4.45-7.4-0.95-4.8 2.45-9.55"/>
   <path d="m66 99h5.3q-7.55 7.2-7.9 16.35-0.2 5.8 2.9 14.4-5.4-1.25-8.85-2.55-3.7-1.35-5.55-6-1.8-4.45-1-9.5 0.85-5.45 4.4-8.8 4.1-3.9 10.7-3.9"/>
   <path d="m229.55 165.65q1.75 2.65 0.2 6.6-1.4 3.6-4.8 6.95-3.4 3.3-7 4.65-3.9 1.5-6.35-0.2l-3.35-2.55q-2.6-2-6.35-4.55-1.7-8.85 4-15.25 5.7-6.35 15.25-6.3 6.1 7.15 8.4 10.65"/>
   <path d="m246.6 89.6q3.45-0.1 6.05 4.1 2.45 3.85 3.05 9.45 0.65 5.75-1 10.1-1.9 4.95-6.1 6.1l-6.55 1.5q-4.65 1.05-9.2 2.65-6.95-3.1-9.75-11.15-3.2-9.1 0.95-20.1l12.75-1.6 9.8-1.05"/>
  </g>
  <g fill="#dbc77f">
   <path d="m103.4 37.25q4.8-0.7 8.35 0.2 3.85 0.95 4.9 3.5 3.4 8.1 6.85 15.45-8.15-2.5-15.1-1.1-3-9.9-5-18.05"/>
   <path d="m177.85 20.15q10.65 5.55 7.45 17.8-3 11.65-10.7 36.7l-1.45 1.4-1.8 1.35q-0.95-2.2-3.2-4.5t-5.3-4.25q3.9-9.85 9.55-28.9l5.45-19.6"/>
   <path d="m229.2 51.55q0.85 3.9-0.85 6.4-3.2 4.8-9.3 15l-1.55-5.85q-1.4-3.8-4-6.55l11.9-16.65q3 3.75 3.8 7.65"/>
   <path d="m73.2 168.5q2.25 1.75 5.6 2.85l5.2 1.5-7 5.55q-1.85 1.6-5.25 1.15-3.3-0.45-6.5-2.6l4.05-4.15 3.9-4.3"/>
   <path d="m229.55 165.65q1.5 2.75-0.05 6.75-1.45 3.6-4.8 6.9-3.3 3.3-6.85 4.6-3.8 1.45-6.25-0.25l-3.35-2.55q-2.6-2-6.35-4.55-1-5.15 0.75-9.85l3.35 2.45q3.1 2.45 4.05 3.1 0.95 0.7 2.1 0.3l1.45-1.1q3.1-4.6 7.85-7.15 5.7-3.05 8.1 1.35"/>
   <path d="m246.6 89.6q3.45-0.1 6.05 4.1 2.45 3.85 3.05 9.45 0.65 5.75-1 10.1-1.9 4.95-6.1 6.1l-6.55 1.5q-4.65 1.05-9.2 2.65-3.25-1.45-5.8-4.35-2.65-3-4.05-7.05l10.45-2q6.45-1.7 5.75-4-0.85-2.8-0.3-7.8 0.65-6.4 3.65-8.4l4.05-0.3"/>
  </g>
  <path d="m89.15 142.9q-0.5-3.6-0.75-8l9.05 9.75-0.65 8.55q-0.9-0.15-3.05-1.9l-3.05-2.7q-0.85-0.85-1.55-5.7" fill="#ed85ad"/>
  <path d="m165.7 127.25q3.9 6.35 1.15 12.65-2.65 6-10.3 9.75-6.75 3.25-13.1 0.85-5.4-2.05-7.25-6.2 4.2-4.05 15.9-10.45 10.2-5.55 13.6-6.6" fill="#ed85ad"/>
  <path d="m88.4 134.9 9.05 9.75-0.3 2.35-3.95-4.1q-2.4-2.3-4.45-3.4l-0.35-4.6" fill="#cd7497"/>
  <path d="m165.7 127.25q1.3 2.2 1.65 5.25-4.6-1.5-16.85 5.15-10.15 5.55-13.15 8.6l-1.15-1.95q4.2-4.05 15.9-10.45 10.2-5.55 13.6-6.6" fill="#cd7497"/>
  <path d="m106.15 263.4q5.3 0.35 6.35 1.7 0.8 1.1 0.8 7.35 0 5.45-0.45 9.3-0.2 1.5-2.9 2.2l-5.8 0.35q-8.25-0.75-7.25-4.6l0.7-7q0.75-6.45 1.55-7.6 1.45-2 7-1.7" fill="#eef3f6"/>
  <path d="m162.95 265.3q0.45-3.1 6.15-3.75 5.4-0.65 7.15 1.15 1.45 1.45 2.5 7.5 0.9 5.5 0.65 8.45-0.35 3.75-7.75 4.05-7.2 0.35-7.85-1.65-0.45-1.35-0.8-7.55-0.4-6.3-0.05-8.2" fill="#eef3f6"/>
  <g fill="#cacfd2">
   <path d="m106.2 175.05-0.05 0.65-0.7 2.15q-0.4 1-2.7 0.95l-4.6-0.8q-0.05-3.95-0.7-8.35 3.6 2.65 8.75 5.4"/>
   <path d="m105.2 268.1 3.8-0.15q3.45-0.2 3.9-1.7 0.5 2.3 0.4 7.65-0.05 4.75-0.45 7.85-0.15 1.25-2.7 2l-5.1 0.6q-0.3-4.15-0.3-9.85 0-6.05 0.45-6.4"/>
   <path d="m171.4 282.7-0.6-9.3-0.5-5.9q0-0.2 2.25-0.6 2.85-0.45 4.85-2.1 1 2.75 1.6 7.35 0.6 4.35 0.4 6.5-0.2 2-2.65 3.05-2.1 0.9-5.35 1"/>
  </g>
  <path d="m96.05 144.55-0.3 1.2-0.7 0.5q-0.4 0-0.7-0.5t-0.3-1.2 0.3-1.2 0.7-0.5l0.7 0.5 0.3 1.2" fill="#fff"/>
  <g fill="#0d131a">
   <path d="m93.3 165.2 1.35 1q-0.5 6.5-0.5 9.1 0.45 1.05 6.4 2.15l3.1 0.35 1.15-0.2 0.7-2.15 0.15-0.85 1.8 0.65-1 2.95q-0.5 1.2-2.5 1.5l-3.7-0.1q-7.35-1.35-7.5-3.35-0.2-3.25 0.55-11.05"/>
   <path d="m164.75 173.2q0.8-0.9 1.2-6.2l0.45-6.4q0.15-1.05 1.2-0.6l1 0.6-1.6 12.85q-0.25 1.5-2.45 2.25l-5.05 0.55q-2.95-0.1-6.05-1-3.55-1.05-3.7-2.4-0.75-8-1.5-10.85l1.85-0.5q0.75 2.95 1.4 10.7 0.2 1.25 6.2 1.65 6.05 0.45 7.05-0.65"/>
   <path d="m88.15 135.05 0.65 0.45q0.65 0.55 0.65 0.85 0.05 7.35 2.15 11.35 1.9 3.75 5.4 4.45l-0.4 1.45q-5-1-7.25-6.3-2.15-5-1.2-12.25"/>
   <path d="m251.75 94.25q-2.25-3.65-5.15-3.6l-12.75 1.4-19 1.3-21.25-0.9q-2.1-0.25-1.55-1t2.85-0.65l12.3 0.05 2.5-3.9 4.15-7.25q10.7-17.95 13.6-22.3 2.1-3.1 0.65-7.1-1.3-3.55-4.65-6.4-3.4-2.9-7.15-3.45-4.25-0.7-7.15 2.05-6.4 6-23.2 23.2l-19.7 20.05q-0.9 0.9-1.6 1.1-0.8 0.2-0.45-0.7 0.9-2.65 9.2-11.2 1.15-2.55 4.9-15.45l6-21.8q1.65-6.45-1.6-11.4-2.3-3.4-6.6-5.7-5.7-3-12.25-2.95-6.55 0.1-9.3 3.2-1.4 1.6-14.45 27.9-12.85 25.8-16.8 29.7l-2 1.7q-0.45 0.1 0.85-2.5l5.2-10.95q-6.6-13-11.65-25.35-1.1-2.7-6.2-3.25-5.15-0.55-10.9 1.4-4.45 1.5-7 4-2.95 2.9-2.05 6.35 6.75 25.1 7.55 41.1l2.35-1.3q2.15-0.95 1.2 0.5-1.5 2.35-7.7 7.85-1.5 1.5-5.6 1.85l-14.7 0.25-6.65-0.05q-5.6 0-9.3 3.05t-4.7 8.4q-0.9 4.85 0.8 9.2 1.75 4.3 5 5.55l8.8 2.35q9.05 2.2 11.05 3.35 1.6 0.95 1.6 2.15 0 1.45-2.2 4.8l-6.8 9.3-8.1 10.9q-3.5 4.95-2.05 9.75 0.95 3.1 3.7 5.65 3.05 2.8 6.9 3.75 3.75 0.95 5.65-0.65l0.65-0.55q10.75-9.3 15.8-11.25-0.1-1.25 0.55-4l1.4-5.85q1.55-6.85 1.75-9.7 0.05-1-1.9-3.3l-4.15-4.4q-3.85-3.85-5.4-5.8-1.55-1.85-1.4-4 0.15-2.7 6.2-9.1 5.4-5.8 8.7-7.8 1.35-0.8 1.65-0.55 0.25 0.25-0.65 1.15l-7.45 7.55q-5.55 6.2-5.55 9.45 0 2.25 5.75 8.4 5.7 6.2 5.7 8.55 0 1.8-1.25 9.25l-1.3 8.3q-0.1 2.25 1.6 4.25 2.1 2.4 7.7 5.65 2.75 1.55 10.85 1.1 8.25-0.45 12.05-2.6l1.05-1.3q3.4-4.2 7.2-6.3 6.5-3.65 19.3-5.85 13.25-2.2 30.8 6.7 9.6 4.8 23 14.8l3.2 2.35q2.05 1.45 5.65 0 3.25-1.3 6.3-4.25 3.1-3 4.45-6.25 1.6-3.7 0.05-6-1.85-2.85-7.45-9.6-5.9-6.9-12.55-16.6-3.5-5.15-4.35-8.35-0.95-3.35 4.6 3.7 1.75-4.5 13.9-9.2 7.45-2.85 24.5-7.6l1-0.25q4-1.1 5.6-6.15 1.45-4.4 0.65-9.9-0.75-4.75-2.8-8.05m-5.2-5.7q3.85-0.4 6.75 4.05 2.5 3.8 3.3 9.35 1 6.65-0.6 11.85-1.85 6.1-6.7 7.4l-1 0.3q-17.6 4.9-21.3 6.15-15.1 5.05-16.75 9.25-0.4 1 0.2 2.05 4.3 6.95 12.35 16.35 5.75 6.85 7.65 9.8 2 3.05 0.55 7.45-1.3 3.95-4.85 7.45-3.6 3.45-7.7 4.9-4.6 1.6-7.45-0.4l-3.3-2.4q-13-9.75-22.4-14.5-17.1-8.75-29.75-6.6-12.3 2.05-18.4 5.4-3.6 2-6.8 6l-2.35 2.3q-1.45 1.05-2.5 1.35-5 1.45-11.95 1.35-7-0.1-9.8-1.75l-6.3-3.7q-2.8-1.9-3.75-3.55-4.9 1.2-15.35 10.25l-0.65 0.55q-2.65 2.3-7.5 1.4-4.65-0.9-8.1-4.05-2.3-2.05-3.45-5-1.05-2.6-1.05-5.45 0-4.15 2.85-8.2l7.55-10.95q7.75-10.35 7.9-12.05-0.45-0.65-3.5-1.65l-5.8-1.85-9.5-3.2q-3.45-1.3-5.7-5.05-2.3-3.85-2.3-8.5 0-1.75 0.3-3.55 1.1-6.1 5.65-9.65 4.5-3.5 10.95-3.5l11.75-0.25q11.95-0.4 12.9-1.35l3.45-2.7q-0.55-9.75-1.55-17.55-1.65-13.3-5-25.7-0.3-1.05-0.3-2.1 0-3.45 2.85-6.65 3-3.35 7.95-5.05 6.05-2 12.15-0.9 6.35 1.15 7.9 5 2 4.9 5.5 11.7l5.5 10.7q2.75-4.5 12.85-24 8.75-17.05 11-19.6 3.35-3.8 10.7-4.35 7.55-0.55 13.85 2.75 10.15 5.4 10.15 14.4 0 1.9-0.9 5.5l-3.9 16.05-3.85 14.85q19.15-19.15 27.8-27.3 4.05-3.8 9.25-3.55 4.85 0.25 9.15 3.9 4.1 3.5 5.35 9.2 1.15 5.5-1.15 9l-10.35 16.3-9.05 14.35 15.95-0.45 20.6-1.6"/>
   <path d="m143.9 111.9q1.55-0.9 1.85-0.8 0.35 0.15-1.05 1.45l-9.4 7.65q-7.6 6.15-8.25 7.4-0.75 1.35-0.3 6.1l0.85 6.85q0.15 1.35-0.35 1.45-0.55 0.15-1.15-1.45-1.15-3.35-1.7-7.4-0.5-4.25 0.1-6.2 0.95-2.9 5.95-6.55 3.4-2.55 13.45-8.5"/>
   <path d="m165.85 138.95q1.95-5.6-0.55-10-5.1 2.05-13.2 6.35-10.35 5.45-14.55 9.2 2.5 4.25 7.95 5.65 5.6 1.4 10.9-1.2 7.25-3.5 9.45-10m0.9-12.4q4.3-1.1 3.65-0.3-0.45 0.6-3.25 1.9 3 7.55 0.15 13.95-2.8 6.15-10.1 9.15-6.45 2.6-12.55 0.8-5.8-1.7-8.9-6.65-1.15 0.75-1.35 0.35-0.15-0.45 1-1.7 4.4-4.9 15.8-10.85 9.9-5.2 15.55-6.65"/>
   <path d="m98.9 165.6q-0.9-0.75-0.7-1.1t1.2 0.5q1.8 1.55 2.9 3.15 0.55 0.75-0.2 1.2-0.7 0.4-1.25-0.5-1.25-2.65-1.95-3.25"/>
   <path d="m117.7 167.45q1.35-2.7 2.95-4.15 0.9-0.8 1.1-0.4t-0.2 0.95q-0.65 1-1.2 2.4l-1 2.05q-0.85 1.15-1.55 0.8-0.75-0.4-0.1-1.65"/>
   <path d="m65.45 128.6q-4.45-6-3.3-15.65 1.25-10.5 8.9-13.85l2.15 0.5q-7.7 3.4-8.65 15.1-0.35 4.6 0.55 8.95 0.9 4.15 2.55 6.05l-2.2-1.1"/>
   <path d="m68.9 166.4q-2.5-3.3-3.25-7.2-0.65-3.25 0.05-6.05l1.15-1.5q-0.6 2.4 0.2 6 0.95 4 3.2 7.1 1.9 2.55 5.2 4.5 4.05 2.35 8.65 2.6l-1.1 1.1q-5.05-0.3-8.9-2.25-3.3-1.7-5.2-4.3"/>
   <path d="m92.6 66.7q3.25-9.4 13.45-12.3 8.65-2.45 16.25 0.45l0.65 1.95q-6.95-2.95-16.5 0.2-10.4 3.4-13.25 11.5l-0.6-1.8"/>
   <path d="m172.85 76.85-1.55 0.7q-10.2-13.15-25.4-12.8-10.55 0.2-17.05 5.05l0.35-1.6q8.9-7.4 20.8-5.75 13.1 1.8 22.85 14.4"/>
   <path d="m194.55 56.45 1-1.45q11.7-1.15 18.1 4.3 5.5 4.7 5.8 12.8l-1.25 1.25q0.65-5.5-4.7-11.1-6.85-7.2-18.95-5.8"/>
   <path d="m224.8 92.15 1.35 0.1q-2.4 2.05-3.2 7.7-0.75 5.65 0.6 10.85 0.95 3.9 3.25 6.95 3.1 4.15 7.8 5.1l-1.1 1q-4.45-0.9-7.8-4.05-3.55-3.35-4.85-8.4-1.4-5.4-0.1-11.25 1.2-5.6 4.05-8"/>
   <path d="m202.4 177.05-1.5-0.85q-0.8-4.85 0.45-9.25 1.05-3.65 3.2-6.15 2.8-3.25 7.55-5 4.35-1.6 9.1-1.5l-0.05 1.35q-4.15-0.1-8.15 1.75-3.9 1.8-6.7 5-2.1 2.35-3.25 5.85-1.45 4.4-0.65 8.8"/>
   <path d="m144.7 141.4q0-2.25 0.65-3.7 0.65-1.5 1.65-1.5t1.7 1.5q0.65 1.45 0.65 3.7 0 2.2-0.65 3.7-0.7 1.5-1.7 1.5-0.95 0-1.65-1.5-0.65-1.5-0.65-3.7"/>
   <path d="m94.4 140.8 1.1 1.2q1.1 1.4 1.15 2.45v0.45l-0.1 2.65q-0.15 1.2-0.75 1.25-0.75 0.05-1.35-1.3-0.6-1.3-0.65-2.85-0.1-2.8 0.6-3.85"/>
   <path d="m248.85 98q1.6 2.2 2.25 5.6 0.65 3.45-0.1 6.1-0.7 2.6-2.4 2.9-1.65 0.3-3.25-1.9t-2.25-5.6 0.1-6.05 2.4-2.95 3.25 1.9"/>
   <path d="m222.05 175.2q-1.8 1.85-3.55 2.7-1.7 0.85-2.35 0.2t0.2-2.35q0.8-1.75 2.65-3.6 1.8-1.85 3.55-2.7 1.7-0.85 2.35-0.2 0.65 0.6-0.2 2.35-0.85 1.8-2.65 3.6"/>
   <path d="m109.4 264.6-4.95-0.5q-3.8 0.1-4.75 1.4-0.85 1.3-1.8 11.3l-0.35 3.05q-0.2 1 0.65 1.8 1.7 1.55 5.85 1.95 4 0.4 6.5-0.55 1.55-0.55 1.6-1.4 0.5-3.9 0.5-9.4-0.05-5.85-0.7-6.7-0.4-0.5-2.55-0.95m-5.15-2.45q2.4-0.05 5.25 0.75 2.8 0.85 3.55 1.8 1.05 1.35 1.35 8.25 0.25 6.05-0.15 8.9-0.05 0.7-0.8 1.65-0.9 1.1-2.2 1.6l-7.7 0.45q-4.95-0.6-6.95-2.4-1.1-1.05-1.1-2.85l0.8-7.25q0.9-7.25 1.55-8.15 0.8-1.15 2.85-1.95 1.9-0.75 3.55-0.8"/>
   <path d="m166.65 262.75q-2.8 0.9-3.05 2.65-0.3 1.9 0.05 8.1 0.35 6.1 0.8 7.35 0.35 0.65 3.5 1.05l6.55-0.2q4-0.9 4.2-3.1 0.25-2.85-0.65-8.25-0.95-5.85-2.25-7.15-0.85-0.9-3.75-1.05-3-0.2-5.4 0.6m-5.15 10.35q-0.05-6.75 0.3-8.35 0.25-1.3 1.55-2.2 1-0.7 3.05-1.4 2.75-0.9 6.3-0.45 3.55 0.4 4.75 1.65 1.6 1.55 2.65 8 1 5.75 0.7 8.8-0.2 1.75-2.7 3-2.3 1.15-5.75 1.55l-6.3-0.3q-3.6-0.7-4.05-2-0.45-1.35-0.5-8.3"/>
  </g>
  <path d="m95.75 145.2q0 1.25-0.45 1.25t-0.45-1.25 0.45-1.25 0.45 1.25" fill="#fff"/>
  <path d="m147.15 140.8c0 1.4333-0.25 2.15-0.75 2.15-0.2 0-0.36667-0.2-0.5-0.6 0 0-0.2011-1.029-0.2-1.55 1e-3 -0.50442 0.2-1.5 0.2-1.5 0.13333-0.4 0.3-0.6 0.5-0.6 0.5 0 0.75 0.7 0.75 2.1" fill="#fff"/>
 </g>
</svg>
