<?xml version="1.0" encoding="UTF-8"?>
<svg version="1.1" viewBox="0 0 114.42 219.55" xmlns="http://www.w3.org/2000/svg">
 <g transform="translate(-.032692)">
  <path d="m52.4 187.15q-2.05 0.4-7.55-1.75 1.2-2.95 4.75-5.1 3-1.85 6.85-2.65 7.55-1.55 13.55 0 8.2 2.15 11.15 9.8 3.65 9.4-2.05 18.4-3.5 5.55-8.9 9.2-2.95 1.95-6.25 3.25-3.75 1.5-4.95 0.8-1.15-0.6 0.7-2.15l4.15-2.85q3.6-2.45 6.65-6.55 4.4-6 4.05-11.9-0.55-9.4-8.6-10.9-6.45-1.2-13.55 2.4" fill="#adb2b4"/>
  <path d="m74.55 195.65q-0.55-9.4-8.6-10.9-6.45-1.2-13.55 2.4-2.05 0.4-7.55-1.75 1.7-4.15 4.35-6.2 2.35-1.9 6.45-2.75 7.2-1.45 13.95 0.6 8.55 2.65 11.55 10.4 3.95 10.25-3.05 19.95 0.85-2.75-1.2-3.95-2-1.1-4.15 0.4 2.05-4.2 1.8-8.2" fill="#838688"/>
  <path d="m50.2 193.4q1.2 2.05 4.65 2.6 8.05 1.3 16.15-4.8 5.15-3.85 6.45-10.05 1.25-6-2.1-7.65l2.35-3.8q2.65-3.85 3.95-4.1 3.9 3.6 4.8 9.05 0.85 5.3-1.2 10.85-4.8 12.7-18.9 16.75-9.25 2.65-16.05 0.9-5.95-1.55-7.95-5.75-1.8-3.85-0.15-8.1l2.05-3.5 2.85 1.1 3.75 1.2q-1.95 3.15-0.65 5.3" fill="#adb2b4"/>
  <path d="m50.85 188.1q-1.55 2.5-1.05 4.35-2.7-2.75-5.45-1.3-2.75 1.4-2.75 5.15-1.45-4.2 0.45-7.75l2.2-2.75 2.85 1.1 3.75 1.2" fill="#838688"/>
  <path d="m76.05 185.15q1.85-3.7 1.7-7.1-0.2-3.45-2.4-4.55l2.35-3.8q2.65-3.85 3.95-4.1 4.4 4.05 4.95 10.4 0.6 6.1-2.55 12.2-0.2-2.25-2.7-3.55-2.8-1.5-5.3 0.5" fill="#838688"/>
  <path d="m70.05 160.8 0.45 3.35q0.1 3.85-1.6 6.05-1.7-1.2-8.65-1.2-7.65 0-10.95 2.1-3.95 2.55-3.75 5.4 0.2 3.1 5.7 3.5 10.2 0.7 15.85-5.4 5.15-5.5 3.9-13.2 2.3-0.8 8.9-4.05l1 3.9q0.85 4.7-0.25 9-3.4 13.75-24.35 17.85-8.25 1.65-14.35-1.85-6.1-3.45-5.9-9.7 0.3-7.6 7.25-12.15 9.05-5.9 26.75-3.6" fill="#adb2b4"/>
  <path d="m79.9 157.35 0.65 2.15q0.7 2.75 0.7 5.5 0.1 8.85-6.3 14.8 2.25-3.3-0.8-6.05-3-2.7-5.75-0.8 3.65-5.15 2.6-11.55 2.3-0.8 8.9-4.05" fill="#838688"/>
  <path d="m39.55 175.7q-3.25 1.55-2.75 4.95-0.8-2.05-0.75-4.1 0.3-7.6 7.25-12.15 9.05-5.9 26.75-3.6l0.45 3.35q0.1 3.85-1.6 6.05-1.7-1.2-8.65-1.2-7.65 0-10.95 2.1-2.05 1.3-3.1 3-1 1.7-0.55 3.1-2.8-3.1-6.1-1.5" fill="#838688"/>
  <path d="m0.9 98.4q0.25-4.15 4.75-3.6l8.85 2.5q2.85 0.85 2.05 12.65-0.75 11.85-3.55 9.6-3.65-2.9-7.6-9-4.75-7.3-4.5-12.15" fill="#adb2b4"/>
  <path d="m2.05 104.15q5.95 5.65 14.15 9.4-0.5 3.4-1.25 5-0.9 1.85-1.95 1-2.5-2.05-5.65-6.2-3.65-4.9-5.3-9.2" fill="#838688"/>
  <g fill="#0d131a">
   <path d="m69.15 186.7q-1.3-0.75-3.15-1.15l1.7-1.1q1.1 0.35 2.2 1 2.3 1.25 3.6 3.65l-1.1 1q-1.25-2.25-3.25-3.4"/>
   <path d="m64.05 176.9q-2.95-0.8-7.35-0.1-4.7 0.75-7.2 2.8-1.25-0.35-1.8-0.65 3.05-2.35 8.2-3.2 4.8-0.85 9.65-0.05-0.5 0.25-1.5 1.2"/>
   <path d="m75.25 180.05q1.3 0.85 2.2 1.7l-0.35 1.75q-1.25-1.4-2.75-2.3l0.9-1.15"/>
   <path d="m81.55 191.65 1.3-1.1q1.75 6.55-1.9 13.85-3.55 7.05-10.2 11.45-3.8 2.55-8.3 3.7l-5.3-0.15q-0.45-0.6 1.2-2.1l4.05-3.15q9.95-7.6 11.25-15.4l1.6-0.9q-0.5 5.4-4.6 10.65-2.75 3.5-6.4 6.2l-4.4 3.05q-1.25 0.8-1.15 1 0.4 0.55 4.15-0.7 4-1.35 6.75-3.2 3.95-2.55 7.4-7.1 6-7.85 4.55-16.1"/>
   <path d="m42.15 186.85 1.75 0.7q-1.75 2.75-1.75 5.75 0 1.9 0.85 3.8 1.85 3.9 7.6 5.35 6.6 1.65 15.55-0.9 8.05-2.3 13.35-8.15 4.45-4.9 5.9-10.9 0.55-2.2 0.55-4.75 0-6.9-4.5-11.25l0.7-1.45q3.55 3.25 5.05 7.9 1.5 4.85 0.35 9.9-1.7 7.1-7.4 12.75-5.7 5.6-13.4 7.8-9.55 2.75-17.05 0.65-6.6-1.8-8.7-6.3-1.1-2.3-0.75-5.35t1.9-5.55"/>
   <path d="m49.6 188.95h1.65q-1.6 2.85 0.45 4.7 2.45 2.25 7.95 1.5 5.85-0.75 10.9-4.5 3.35-2.5 5.1-6.4 1.6-3.5 1.3-6.55l-0.1-0.7 1.1-1.5 0.5 2.05 0.05 0.95q0 3.35-1.75 6.9-1.95 3.85-5.3 6.4-5.55 4.15-12.05 4.95-6.1 0.7-8.95-1.85-1.5-1.4-1.5-3.35 0-1.15 0.65-2.6"/>
   <path d="m68.7 171-0.25-0.2q-1.45-1.05-8.15-1.1-7.45-0.05-10.6 2-3.75 2.5-2.65 5.05 1 2.35 4.25 2.5 10.1 0.45 15.35-5.25l2.05-3m-31.9 5.55q-0.15 4.55 3.55 7.7 2.8 2.4 7 3.25 4.2 0.8 8.8-0.1 16.9-3.3 22.15-13.1 2.2-4 2.2-9.1 0-3.4-1-6.85l-3.6 1.4-4 1.35 0.05 2.95q0 6.3-4.2 10.9-2.85 3.15-7.15 4.65-4.25 1.5-9.4 1.1-5.5-0.35-6.3-3.5-0.4-1.6 0.65-3.45 1.1-1.85 3.35-3.3 3.2-2.05 10.55-2.2 6.55-0.1 9.65 1.05 0.6-0.95 0.95-4.2l0.15-3.6q-10.7-1.3-18.55 0.45-6.2 1.4-9.75 4.4-4.85 4.1-5.1 10.2m-1.25 3.55q-1.75-5.35 1.95-11 4.4-6.75 14.4-8.8 7.55-1.6 18.2-0.2l10.4-2.95q3.85 9.45-1.05 18.25-5.25 9.4-17.85 12.55-11 2.75-18 0.2-6.2-2.25-8.05-8.05"/>
   <path d="m14.3 98-2.6-0.85-5.1-1.45q-2.75-0.55-3.85 0.25-0.95 0.65-1.1 2.5-0.25 4.6 4.4 11.75 3.9 5.95 7.4 8.75 0.15 0.15 0.2 0.1 1.15-0.6 1.9-5.95 0.7-5.5 0.2-10.5-0.25-2.25-0.7-3.55-0.4-0.95-0.75-1.05m-12.4-3.7q1.95-1.45 7.6 0.3 2.8 0.85 5.2 2 2 0.6 2.5 5.85 0.55 4.8-0.15 10.45-0.75 6.4-2.65 7.45l-0.8 0.85q-0.6 0.65-1.1 0.25-3.6-2.85-7.85-10.05-4.9-8.25-4.6-13.3 0.15-2.5 1.85-3.8"/>
  </g>
  <path d="m28.45 47.5q2.8-3.15 7.95 1.6 3.15 2.9 10.9 11.6l4.85-0.85 11.65-0.55q18.1 0.75 26.15 11.6 11.95 16.15 15.25 36 4.15 24.75-9.6 40.55-8.3 9.5-19.2 14-10.2 4.15-21.15 3.4-10.65-0.75-19.85-5.95-9.35-5.3-15.25-14.1-11.2-16.75-8.35-38.95 2.25-17.25 11.75-33.05-0.3-8.35 1.3-15.9 1.45-6.95 3.6-9.4" fill="#adb2b4"/>
  <path d="m38.85 160.7q-9.15-4.2-15.55-11.7 10.2 6.85 19.9 8.25 14.85 2.1 32.45-6.8 15.05-7.6 20.5-25.75 3.85-12.7 3.7-36.05 6.5 15.6 6.3 29.85-0.3 17.15-10.55 28.95-15.55 17.8-37.75 17.5-9.95-0.1-19-4.25" fill="#838688"/>
  <path d="m76.15 10.4q9.05 9.05 9.05 21.85t-9.05 21.85-21.85 9.05-21.85-9.05-9.05-21.85 9.05-21.85 21.85-9.05 21.85 9.05" fill="#f6c8d6"/>
  <path d="m76.15 10.4q9.05 9.05 9.05 21.85t-9.05 21.85-21.85 9.05-21.85-9.05-9.05-21.85 9.05-21.85 21.85-9.05 21.85 9.05" fill="#f6c8d6"/>
  <path d="m79.4 33.85q0 9.85-7 16.85-6.95 6.95-16.8 6.95t-16.85-6.95q-6.95-7-6.95-16.85t6.95-16.85q7-6.95 16.85-6.95t16.8 6.95q7 7 7 16.85" fill="#ed85a7"/>
  <path d="m32.1 106.85q-0.15 2.05-2.85 3.25-2.75 1.25-6.5 1-3.7-0.3-6.25-1.95-2.5-1.6-2.35-3.65 0.15-2 2.9-3.25t6.45-1 6.25 1.9q2.5 1.65 2.35 3.7" fill="#f6c8d6"/>
  <path d="m80.4 105.3q2.7 1.3 2.9 3.45 0.25 2.2-2.15 4-2.35 1.85-5.95 2.2-3.6 0.4-6.3-0.9t-2.95-3.5q-0.2-2.2 2.15-4 2.4-1.8 6-2.2 3.6-0.35 6.3 0.95" fill="#f6c8d6"/>
  <path d="m68.45 123.6q-0.1 7.8-8.8 9.8-7.05 1.6-14.25-0.85-2.25-0.8-5.8-0.9l-5.75-0.1q-6.5-0.45-8.45-5.75-2.85-7.85 3.25-14.65 5.9-6.5 14.5-6.5 10.85 0 16.9 3.25 8.6 4.55 8.4 15.7" fill="#838688"/>
  <path d="m99.5 89.75q-3.55-8.7-8.45-16l0.2-2.75q7.1 9.7 11.3 21.75 4.75 13.7 4.35 26.7-0.6 19.8-15.5 33.55-15.15 14-35.65 12.7-21.15-1.4-33.85-16.4-12-14.1-12-34.4 0-10.65 3.8-22.25 3.3-10 9-19.65-1.05-7.4 0.35-15.25 1.5-8.05 4.5-10.25l0.85 1.3q-3.05 3.75-3.95 14.45-0.4 5.3-0.25 9.9-5.5 9.2-8.65 19.2-3.5 11.2-3.55 21.75-0.05 21.25 12.45 35.25 12.2 13.6 31.1 14.8 11.05 0.7 21.1-3.5 9.7-4.1 16.7-12.05 7.1-8.05 10.05-18.55 3.1-11.05 1.1-23-1.45-8.55-5-17.3" fill="#0d131a"/>
  <path d="m75.6 10.9q-8.85-8.85-21.3-8.85-12.5 0-21.35 8.85t-8.85 21.35q0 12.45 8.85 21.3t21.35 8.85q12.45 0 21.3-8.85t8.85-21.3q0-12.5-8.85-21.35m-21-10.9q13.6 0 23.2 9.5 9.65 9.5 9.65 22.9t-9.65 22.85q-9.6 9.5-23.2 9.5-13.55 0-23.2-9.5-9.6-9.45-9.6-22.85t9.6-22.9q9.65-9.5 23.2-9.5" fill="#0d131a"/>
  <path d="m43.4 23.05s-4.2655 0.69306-6.05-0.25c-1.5797-0.8348-2.8549-2.547-3.2-4.3-0.38885-1.9752 0.38017-4.1771 1.5-5.85 1.2386-1.8504 3.2231-3.3409 5.35-4 1.9438-0.60241 4.3006-0.70054 6.1 0.25 1.5798 0.83453 2.8549 2.547 3.2 4.3 0.38885 1.9752-0.37645 4.1796-1.5 5.85-1.2502 1.8587-3.1667 3.2667-5.4 4" fill="#fff"/>
  <path d="m49.3 26.1q-0.85 0.5-1.65 0.4-0.85-0.15-1.2-0.85-0.35-0.65 0.05-1.5 0.35-0.85 1.2-1.4 0.85-0.5 1.7-0.4t1.15 0.8q0.35 0.7 0 1.55-0.4 0.9-1.25 1.4" fill="#fff"/>
  <path d="m35.7 94.7q0 1.8-1.3 3.1-1.25 1.3-3.1 1.3-1.8 0-3.1-1.3t-1.3-3.1 1.3-3.1 3.1-1.3q1.85 0 3.1 1.3 1.3 1.3 1.3 3.1" fill="#0d131a"/>
  <path d="m32.95 93.2q0 0.75-0.55 1.3t-1.3 0.55-1.3-0.55-0.55-1.3 0.55-1.3 1.3-0.55 1.3 0.55 0.55 1.3" fill="#fff"/>
  <path d="m69.55 97.25q0 2.05-1.45 3.55-1.5 1.5-3.6 1.5t-3.55-1.5q-1.5-1.5-1.5-3.55 0-2.1 1.5-3.6 1.45-1.5 3.55-1.5t3.6 1.5q1.45 1.5 1.45 3.6" fill="#0d131a"/>
  <path d="m65.95 95.3q0 0.9-0.6 1.55-0.65 0.6-1.55 0.6-0.85 0-1.5-0.6-0.6-0.65-0.6-1.55 0-0.85 0.6-1.5 0.65-0.6 1.5-0.6 0.9 0 1.55 0.6 0.6 0.65 0.6 1.5" fill="#fff"/>
  <path d="m29.5 103.4q-2.45-1.55-6.05-1.8-3.55-0.25-6.2 0.9-2.6 1.15-2.75 3-0.15 1.9 2.3 3.45 2.4 1.5 6 1.75 3.55 0.3 6.2-0.85 2.6-1.15 2.75-3.05t-2.25-3.4m-6.15-2.55q4.1 0.3 6.85 2 2.75 1.75 2.6 4.05-0.2 2.35-3.1 3.8-2.9 1.4-7 1.1-4.05-0.35-6.7-2.2-2.7-1.85-2.5-4.2 0.15-2.3 3-3.6 2.8-1.3 6.85-0.95" fill="#0d131a"/>
  <path d="m78.3 105s-2.7706-0.38388-4.15-0.25c-1.3881 0.13472-2.8167 0.51667-4.05 1.05-1.2667 0.56667-2.2333 1.2667-2.9 2.1-0.66667 0.86667-0.96667 1.7333-0.9 2.6 0.1 0.9 0.58333 1.7 1.45 2.4 1.7667 1.4 4.2333 1.9667 7.4 1.7 2.3-0.23333 4.2167-0.91667 5.75-2.05s2.2167-2.3833 2.05-3.75c-0.1-0.93333-0.56667-1.7167-1.4-2.35-0.83333-0.66667-1.9167-1.15-3.25-1.45m-4.25-1.1s3.1092-0.11804 4.6 0.25c1.2816 0.31638 2.6333 0.88333 3.6 1.65 1.0333 0.83333 1.6 1.8 1.7 2.9 0.16667 1.6-0.58333 3.0167-2.25 4.25-1.6333 1.2333-3.75 1.9833-6.35 2.25-3.7 0.4-6.4667-0.16667-8.3-1.7-1.0667-0.8-1.65-1.7667-1.75-2.9s0.26667-2.2 1.1-3.2c0.76667-0.93333 1.8333-1.7 3.2-2.3 1.3333-0.63333 2.8167-1.0333 4.45-1.2" fill="#0d131a"/>
  <g fill="#adb2b4">
   <path d="m90.7 72.4-25.3-8.3q0.35-3.5 6.85-11.35 6.85-8.3 9.4-6 2.6 2.35 5.35 10.7 2.4 7.2 3.7 14.95"/>
   <path d="m113.3 95.8q0.3 6.9-3 16.1-3.4 9.5-9.8 18.95-2.7-4-4.95-9-4.5-10-2.25-15.15 2.85-6.35 11.25-11.2 8.55-4.95 8.75 0.3"/>
   <path d="m43.5 100.95q6.25 0.15 11.6 2.6 5.7 2.55 8.65 6.9 4.6 6.75 2 12.8-2.5 5.7-8.65 5.6-3.2-0.05-9.45-1.3-5.5-1.1-7.5-0.85l-7.05 0.5q-5.05-0.2-7.5-2.5-2.85-2.7-3.3-6.8-0.5-4.1 1.6-7.8 2.65-4.65 8.15-7.1 5.15-2.25 11.45-2.05"/>
  </g>
  <path d="m112.05 106.2q-3.05 12.1-11.55 24.65l-2.45-3.2q-2.25-3.4-1.25-4.5l6-5.45q5.7-5.65 9.25-11.5" fill="#838688"/>
  <path d="m52.1 125.5q4.55 1.1 8.55-1.1 5.25-2.9 4.9-10.5 2.9 8.15-1.4 12.2-2.95 2.8-7.05 2.75-3.2-0.05-9.45-1.3-5.5-1.1-7.5-0.85l-7.05 0.5q-5.05-0.2-7.5-2.5-2.6-2.45-3.25-6.4 1.4 3.1 2.85 4.4 2.65 2.25 7.25 1.7l9.85-0.5q4.25 0.25 9.8 1.6" fill="#838688"/>
  <g fill="#0d131a">
   <path d="m88.45 55.8q2.7 7.7 3.85 16.5 0.4 3.15-0.3 3.2t-1.3-3.1q-1.35-6.6-4.1-14.3-3.15-8.7-5.45-10.8-1.9-1.7-7.4 4.35-5.65 6.15-7.6 12.55-0.55 1.7-1.1 1.5-0.55-0.15-0.35-1.65 0.45-3.8 5.45-10.85 5.25-7.25 9.05-8.75 1.95-0.8 3.35 0.5 3.1 2.8 5.9 10.85"/>
   <path d="m102.05 96.5q5.8-4.25 9.25-3.4 1.6 0.4 2.25 1.3 0.9 1.25 0.9 4.15 0 6.85-3.55 15.85-3.75 9.55-9.8 16.85-0.95 1.15-1.6 0.8-0.65-0.3 0.4-1.6 6.3-7.7 10.3-20.85 3.7-12.3 1.6-14.3-2.5-2.3-9.2 2.75-6.05 4.55-8.65 9.05-0.55 1-1.05 0.75t0.1-1.4q3.25-5.75 9.05-9.95"/>
   <path d="m65.8 117.5q-0.45-3.4-2.65-6.65-3-4.4-9-6.9-6-2.55-12.75-2.25-5.8 0.25-10.2 2.5-4.45 2.3-6.65 6.25-2 3.5-1.55 7.35 0.45 3.8 3.1 6.35 2.15 2.05 6.55 2.3l6.7-0.4 0.7-0.1q2-0.25 7.85 0.9 5.65 1.2 9.2 1.25 2.45 0.05 4.45-1.15 2.05-1.15 3.15-3.3 1.5-2.75 1.1-6.15m-0.85-7.25q2.45 3.6 2.95 7.65t-1.2 7.15q-1.3 2.45-3.85 3.7-2.35 1.2-5.3 1.15l-5.1-0.6-4.85-1q-5.85-1.2-8.1-0.8-10.3 1.85-14.7-2.3-3.05-2.9-3.65-7-0.55-4.15 1.65-8.1 2.4-4.3 7.35-6.95 5-2.7 11.2-2.95 7.1-0.3 13.75 2.55 6.6 2.8 9.85 7.5"/>
   <path d="m51.55 115.2q0.25 1.85-0.2 3.2-0.4 1.4-1.25 1.45-0.8 0.1-1.55-1.1-0.7-1.25-0.95-3.05-0.2-1.85 0.2-3.2 0.45-1.4 1.25-1.5 0.85-0.05 1.55 1.15 0.75 1.2 0.95 3.05"/>
   <path d="m47.95 115.65q0.2 1.7 0.9 2.85 0.6 1.1 1.2 1 0.5-0.05 0.85-0.9 0.35-0.9 0.35-2.25l-0.05-1.1q-0.35-2.75-1.5-3.65-0.4-0.25-0.6-0.2-0.25 0-0.5 0.3-1 1.25-0.65 3.95m1.05-5q0.55-0.05 1.15 0.35 1.45 1.2 1.75 4.15 0.25 2.05-0.25 3.55-0.5 1.45-1.5 1.55t-1.85-1.2q-0.8-1.3-1.05-3.35-0.4-2.95 0.75-4.45 0.45-0.5 1-0.6"/>
   <path d="m32.45 114q0.2-1.75 0.75-2.9 0.6-1.15 1.25-1.1 0.65 0.1 0.95 1.4 0.35 1.3 0.2 3.05-0.2 1.75-0.75 2.95-0.6 1.15-1.25 1.05-0.65-0.05-0.95-1.4-0.35-1.3-0.2-3.05"/>
   <path d="m34.4 110.35-0.3 0.15c-0.66667 0.46667-1.0833 1.65-1.25 3.55l-0.05 1.05c0 0.86667 0.1 1.5833 0.3 2.15 0.16667 0.53333 0.35 0.81667 0.55 0.85l0.3-0.1c0.7-0.56667 1.1167-1.7667 1.25-3.6 0.1-1.0667 0.05-2.0167-0.15-2.85-0.16667-0.73333-0.38333-1.1333-0.65-1.2m-0.75-0.45c0.3-0.23333 0.58333-0.31667 0.85-0.25 0.6 0.0667 1.0167 0.6 1.25 1.6 0.23333 0.9 0.3 1.9833 0.2 3.25-0.23333 2.0667-0.48809 3.0693-1.55 4.05-0.21696 0.20037-0.56881 0.34031-0.85 0.25-0.64438-0.20696-1.0167-0.6-1.25-1.6-0.23333-0.9-0.3-1.9833-0.2-3.25 0.23333-2.0333 0.75-3.3833 1.55-4.05"/>
  </g>
 </g>
</svg>
