<?xml version="1.0" encoding="UTF-8"?>
<svg version="1.1" viewBox="0 0 235.12 285.13" xmlns="http://www.w3.org/2000/svg">
 <path d="m102.06 230.08q7.7 0 14.35 5.75 7.15 6.15 7.15 14.4 0 9.7-6.6 16.05-6.2 5.95-14.75 5.95-8.3 0-14.5-6.3-6.15-6.25-6.15-14.4 0-8.7 6.4-15.15 6.2-6.3 14.1-6.3" fill="#FFEFCF"/>
 <path d="m104.61 258.58q2.45 2.25 8 2.95 6 0.75 9.25-1.55l-1.6 2.35q-2.1 2.7-4.85 4.75-8.8 6.55-20.45 3.75l9.65-12.25" fill="#D2C6AD"/>
 <path d="m120.76 243.58q-3-7.65-10.55-10.85-7.5-3.25-15.15-0.2-7.6 3-10.85 10.55-3.25 7.5-0.2 15.15 3 7.65 10.55 10.85 7.5 3.25 15.1 0.25 7.65-3.05 10.9-10.6 3.25-7.5 0.2-15.15m-38.2-1.2q3.55-8.2 11.85-11.5 8.35-3.3 16.5 0.25 8.25 3.55 12.05 12.25 3.8 8.8 0.3 16.95-3.55 8.15-12.35 11.55-8.75 3.35-16.95-0.2-8.15-3.5-11.55-12.3t0.15-17" fill="#0d131a"/>
 <path d="m43.562 229.18q2.25 5.5 0.75 13-1.3 6.5-3.5 8.45-1.6 1.45-5.55 2.3-3.4 0.8-6.6 0.8-11.95 0-20.55-9.9-7.5-8.7-7.5-17.65 0-3.3 1.25-6.65 1.3-3.5 3.15-4.95 1.65-1.2 5.8-0.35 2.15 0.4 4.8 1.25 0.8 0.15 1.75-0.3l1.9-1q5.6-2.6 9.35-3.15 3.2-0.5 7.95 5.75 4.1 5.4 7 12.4" fill="#FFEFCF"/>
 <path d="m46.512 246.08q-2.35 2.55-6.35 4.4-5.1 2.5-6.65 2.8-5.3 0.95-13.3-1.9-7.8-2.8-12.1-8.15-1.35-1.7-2.2-3.4l-0.55-1.4q2.45 4.55 12.7 7.35 12.05 3.35 23.95-0.3 7.15-2.25 4.5 0.6" fill="#D2C6AD"/>
 <g fill="#FFEFCF">
  <path d="m85.062 250.83q10.2-1.7 16.65-1.6 7.3 0.15 6.45 2.7-1.55 4.85-6.8 11.6-3.95 5.1-8.85 9.95-6.4 6.4-19.3 9.4-13.9 3.3-19.6-2.15-1.8-1.75-0.65-5.4 0.45-1.4 2.35-5.05 1.05-2 3.65-10.8 0.6-2.05 8.75-4.65 7.4-2.35 17.35-4"/>
  <path d="m44.962 185.58q4-4.1 7.1-6.4 3.4-2.55 29.75 6.25 26.3 8.75 26.45 12.15 0.05 2.1-1.35 8.9-1.75 8.05-2.3 14.05-0.85 9.45-6.7 14.75-6.95 6.25-20.35 6.25-11.95 0-21.75-5.55-8.5-4.75-14.25-12.95-5.1-7.3-6.55-15-1.45-7.5 1.2-11.65 3.45-5.4 8.75-10.8"/>
  <path d="m97.112 85.926q13.95 0.35 25.25 5.1 9.6 4.05 18.15 13 8.55 9.05 13.7 20.6 5.45 12.3 5.65 24.65 0.25 13.6-5.95 25.25-9.25 17.35-31.35 22.4-22.45 5.15-47.25-5.1-27.35-11.35-37.6-30.65-9.75-18.35-2.7-41.2 3.35-10.8 13.25-18.9 9.2-7.55 22.4-11.6 12.85-3.9 26.45-3.55"/>
 </g>
 <path d="m68.162 92.876q9.4 0.65 13.95 7.4 4.95 7.3 1.85 17.6-2.95 9.85-9.85 12.95-6.2 2.85-12.15 2.95-6.4 0.15-10.95-3.1-7.85-5.55-7.75-15.15 0.1-9.8 8.45-17.15 6.95-6.15 16.45-5.5" fill="#EE3F60"/>
 <path d="m118.76 193.83q-5.45-3.9-4.9-11.75 0.5-7.85 6.7-14.8 5.85-6.55 14.6-7.05 7.95-0.5 13.05 3.75 4.2 3.5 1.9 11.55-2 6.9-5.85 10.5-4.85 4.5-11.7 7.4-9 3.8-13.8 0.4" fill="#EE3F60"/>
 <path d="m67.212 163.98-3.3-2.25-3.2-2.4q-1.05-0.85-1.8-2.5-0.8-1.85-0.3-2.85l0.2-0.3q1.1-0.9 3.75 0.7 1.9 1.15 3.65 2.9 1.6 1.6 8.6 5.35 7.85 4.15 13.25 6.2 3.25 1.25 10.1 2.1l8 0.65q1.55 0 2.45 0.7 0.84999 0.6 0.65 1.2l-0.8 1.65q-0.75 1.15-1.4 1.25l-4.6-0.25-4.9-0.6-5.15-0.95-4.85-0.95-3.6-1.1q-2.95-1.05-3.65-1.65l-3.15-1.85-3.7-1.75q-2.4-0.95-6.25-3.3" fill="#ed8599"/>
 <path d="m36.762 194.53q0.2-0.3 0.9 0.2 0.7 0.45 0.55 0.8-4 8.1 1.9 19.1 6.3 11.75 19.65 17.6 16.9 7.45 29 2.5 12.2-5 12.2-19.7 0-5.55 0.95001-9.45 1.05-4.15 3.45-7.4 0.75-1 1.6-0.65 0.90001 0.35 0.25 1.1-4.5 5.65-4.5 16.4 0.05 18.05-13.5 22.6-12.1 4.05-30.45-3.55-15.2-6.3-21.55-19.4-2.8-5.7-2.9-11.1-0.1-5.35 2.45-9.05" fill="#EE3F60"/>
 <path d="m123.26 196.58 1.8 0.8 2.85 1.6q1.15 0.9 4.75 2.4 3.95 1.7 6.95 2.4l7.5-0.05q5.95-0.25 6.45 0.75 2.05 4.2-3.25 11.95-6.05 8.9-16.9 12.2-6.7 2.05-13.65 1.1l-5.65-1.3q-0.5 4.35-2.1 10.95-1.5 5.9-2.9 9.9-2.8 7.85-16.5 11.5-15.4 4.05-33.65-1.3-8.4-2.5-14.45-6l-4.35-3q2.8-12.8-4.1-27.4-2.15-4.55-5-8.75l-2.45-3.3q1.2-3.7 3.7-8.5l3.2-5.65 0.15 5.05q0.4 5.95 1.95 10.5 2.1 6.25 8.75 12.25 6.1 5.5 13.65 8.75 15.4 6.6 26.35 3.25 10.45-3.15 14.65-14.45 0.85-2.3 0.95-8.25 0.1-6.35 0.45-7.75 0.55-2.15 2.45-5.35l1.85-2.75h8.6q2.95 0 7.95-1.55" fill="#EE3F60"/>
 <path d="m53.812 251.78q7.15 4.7 5.7 7.85l-0.55-0.15q-8.4-2.5-14.45-6l-4.35-3q0.45-1.95 0.7-4.65 6.75 1.95 12.95 5.95" fill="#C4324F"/>
 <path d="m30.012 168.48q2.25 1.05 17.4 5.85l4.65 4.85-4.3 3.65q-4.55 3.95-5.85 5.45-2.1 2.4-7.4 11.05-3.7-1.75-7.65-4.4-7.85-5.2-8.9-9.4-2.9-11.1-0.7-16.7 1.2-2.95 3.6-5.9 2.2-2.7 2.8-2.55l1.6 1.6 1.5 2.35 0.95 2.15q0.85 1.35 2.3 2" fill="#EE3F60"/>
 <path d="m7.4623 224.78q0.75-0.25 1.65 1.4l1.1 2.85q0.35 1.3 0.1 3.2-0.3 2.1-1 2.25-0.75 0.2-1.55-0.95-0.8-1.1-1.3-2.95-0.45-1.6 0-3.65 0.4-1.95 1-2.15" fill="#EE3F60"/>
 <path d="m90.312 274.63q-7.8 4.65-14.25 6.9-7 2.4-13.65 2.4-6.05 0-8.9-2.55-2.2-1.95-1.6-3.85 0.3-1.05 1.45-3.15l1.1-1.85q-1.8 3.65 3.8 4.95 5.35 1.3 14-0.2 9.35-1.65 17.05-5.75 9-4.75 12.9-11.55l-2.2 5.05q-3.45 5.8-9.7 9.6" fill="#D2C6AD"/>
 <path d="m135.06 228.28q-11.3 3.45-21.8-0.25-3.25-1.15-6.05-2.9l-2.15-1.5q-1.3-1.45-0.95-4.4 0.4-3.15 3.55-1.3 9.8 5.8 26.8 1.8 7.1-1.7 12.1-4.55 5.2-3 6.05-6.05l-0.2 2.2q-0.45 2.75-1.8 5.3-4.25 8.2-15.55 11.65" fill="#C4324F"/>
 <path d="m17.762 170.08q-0.55 3.6 3.75 8.7 5.95 7.1 18.5 12.45l-6.7 8.45-6.4-4.3q-6.8-5.2-8.95-9.85-2.15-4.6-1.3-10.95l1.1-4.5" fill="#C4324F"/>
 <g fill="#0d131a">
  <path d="m121.01 92.076q-12.8-5.4-26.85-5.45-13.15-0.1-25.3 4.5-11.9 4.5-20.4 12.5-8.75 8.2-12.1 18.4-3.55 10.9-2.7 21.25t6.05 19.4q5.9 10.15 17.8 18.6 2.65 1.95 2.35 2.7-0.35 0.75-3.3-1.05-17.85-10.95-23.85-27.5-5.9-16.05 0.25-34.7 3.7-11.25 13.3-19.85 9.2-8.2 22.05-12.6 12.8-4.4 26.6-4.15 14.35 0.3 26.95 5.6 26 10.95 35.4 37.65 4.15 11.7 3.9 24.05-0.2 12.2-4.65 22.55-5.3 12.35-20.05 19.45-16.4 7.85-37.35 5.2-5.35-0.65-4.65-1.45 0.75-0.8 5-0.35 18.95 2.1 33.35-4.35 14.75-6.6 20.65-20.4 4.25-9.95 4.55-21.5 0.3-11.8-3.55-22.85-8.8-25.25-33.45-35.65"/>
  <path d="m68.962 112.03c4.7333 1.7667 8 5.1667 9.8 10.2 1.0333 2.9 1.4 5.9833 1.1 9.25-0.26667 3.2667-1.15 6.1667-2.65 8.7-2.3667 4.0333-5.1873 6.5608-8.9 8.05-2.8009 1.1234-6.1308 1.0153-9.05 0.25-1.6921-0.44362-3.1667-1.4333-4.5-2.7s-2.35-2.7667-3.05-4.5c-0.73333-1.8-1.0333-3.6667-0.9-5.6s0.68333-3.7833 1.65-5.55c2.1333-3.9333 4.7-6.3 7.7-7.1 2.2333-0.6 4.3-0.28333 6.2 0.95 1.9 1.1667 2.8667 3.1 2.9 5.8 0.03333 2.1667-0.48333 4.3167-1.55 6.45-0.33333 0.66667-0.89152 1.1739-1.55 1.4-0.64802 0.22252-1.4396 0.16121-2.05-0.15-0.62168-0.31696-1.1167-0.9-1.35-1.6s-0.18333-1.3833 0.15-2.05c0.53333-1.0667 0.85-2.1833 0.95-3.35 0.1-1.0667-0.01667-1.7-0.35-1.9-0.56667-0.4-1.2167-0.51667-1.95-0.35-1.5667 0.46667-3.0167 1.9667-4.35 4.5-1.2 2.2-1.3667 4.3833-0.5 6.55 0.4 0.96667 0.96667 1.8167 1.7 2.55 0.76667 0.73333 1.5833 1.2333 2.45 1.5 1.6 0.5 3.2 0.53333 4.8 0.1 2.7-0.73333 5-2.7167 6.9-5.95 1.0667-1.8333 1.7-4 1.9-6.5 0.23333-2.5-0.03333-4.8167-0.8-6.95-1.2333-3.4333-3.4333-5.75-6.6-6.95-3.1-1.1667-6.5167-0.83333-10.25 1-3.9667 1.9667-6.8167 4.9833-8.55 9.05-1.3333 3.2-1.9 7-1.7 11.4 0.16667 3.5667 0.63333 6.05 1.4 7.45 0.36667 0.63333 0.45 1.3167 0.25 2.05-0.2 0.7-0.69857 1.2676-1.3 1.6-0.6025 0.333-1.3885 0.44056-2.05 0.25-0.66033-0.19023-1.2333-0.63333-1.6-1.3-1.2-2.0667-1.9-5.3333-2.1-9.8-0.23333-5.2333 0.48333-9.8167 2.15-13.75 2.3333-5.5333 6.2-9.5333 11.6-12 5.0333-2.3333 9.7167-2.6667 14.05-1"/>
  <path d="m122.96 131.73c2.8667 0.0667 5.6 0.7 8.2 1.9 4.0667 1.9 7.2167 4.7 9.45 8.4 2.2333 3.6667 3.3 7.8167 3.2 12.45-0.13333 5.2667-1.6833 10.133-4.65 14.6-3 4.4667-6.8667 7.6833-11.6 9.65-0.7 0.26667-1.4 0.26667-2.1 0-0.7-0.3-1.1833-0.8-1.45-1.5-0.3-0.7-0.3-1.4 0-2.1 0.26667-0.7 0.75-1.1833 1.45-1.45 3.7667-1.5667 6.8333-4.1333 9.2-7.7 2.3667-3.5333 3.5833-7.4 3.65-11.6 0.0667-3.5667-0.71667-6.7333-2.35-9.5-1.6667-2.7333-4.0333-4.8333-7.1-6.3-1.9333-0.86667-3.95-1.3333-6.05-1.4-2.1333-0.0333-4.1667 0.35-6.1 1.15-1.8667 0.76667-3.5167 1.8667-4.95 3.3-1.4 1.4333-2.45 3.0667-3.15 4.9-1.3 3.5333-1.6333 6.7833-1 9.75 0.6 3 2.05 5.0167 4.35 6.05 2.0333 0.93333 4.2667 1.15 6.7 0.65 2.5667-0.53333 4.4-1.7333 5.5-3.6 1.7667-2.8667 2.3833-5.2333 1.85-7.1-0.3-1.1-1.05-1.9167-2.25-2.45 0 0-1.0503-0.39119-1.6-0.4-0.63084-0.0101-1.85 0.4-1.85 0.4-1.0333 0.5-1.6833 1.55-1.95 3.15-0.13333 0.76667-0.5 1.3667-1.1 1.8s-1.2833 0.58333-2.05 0.45c-0.73333-0.13333-1.3333-0.5-1.8-1.1-0.43334-0.6-0.58334-1.2833-0.45001-2.05 0.56667-3.3667 2.1833-5.75 4.85-7.15 1.4333-0.7 2.9833-1.0167 4.65-0.95 1.4 0.0667 2.65 0.38333 3.75 0.95 2.6 1.2667 4.2833 3.2167 5.05 5.85 0.96667 3.3333 0.16667 7.15-2.4 11.45-1.8667 3.1333-4.7833 5.15-8.75 6.05-3.7333 0.83333-7.2167 0.5-10.45-1-3.6333-1.6667-6.0333-4.65-7.2-8.95-1.1333-4.2667-0.78333-8.85 1.05-13.75 0.96667-2.5333 2.4167-4.7833 4.35-6.75 1.9333-2 4.1833-3.5167 6.75-4.55 2.6667-1.1 5.45-1.6167 8.35-1.55"/>
  <path d="m83.312 155.68q4.35 1.95 3.25 3.6-1 1.5-5.3-0.45-4.25-2-3.35-3.45 1.05-1.6 5.4 0.3"/>
  <path d="m51.912 178.48q0.5-0.3 1.15 0.25t0.25 0.85q-7.45 6.2-13.85 14.45-7.05 9.1-9.55 16.7-0.35 0.95-1.7 0.8-1.4-0.1-1.15-1 2.55-8.4 9.65-17.7 7.3-9.5 15.2-14.35"/>
  <path d="m21.262 160.03q1.25-1.15 2.2-1.1 1.65 0.15 2.65 1.45l1.3 2.6 0.9 2.4q0.65 1.55 1.2 1.9 1.15 0.75 16.1 5.15 1.85 0.65 3 2.25 1.2 1.55-0.05 1.1l-10.55-3.6q-8.65-2.9-9.45-3.45-1.3-0.9-2.6-3.75l-1.15-2.15q-0.7-0.85-1.65-0.9-0.25-0.05-0.75 0.45-0.75 0.7-1.55 2.1-5.3 9.6-2.55 17.55 3.1 9.05 16.7 16.6 0.3 0.15-0.45 1.3-0.8 1.15-1.1 0.95-14.25-7.95-17.6-17.55-3.1-9 3.15-20.25 1-1.85 2.25-3.05"/>
  <path d="m121.76 196.18q1.15-0.4 2.85 0.45l7.15 3.25q7.2 3.05 9.95 3.25l7.05-0.3q3.7-0.55 5.5 0.9 1.7 1.35 1.45 4.25-0.6 5.45-3.6 10.2-6.5 10.45-22.4 12.65-16 2.2-24.4-6.3-1.25-1.25-0.75-1.6 0.45-0.4 1.75 0.75 7.75 6.55 21.85 4.85 14.9-1.8 21.25-11.95 2.95-4.75 3.5-9 0.25-1.85-0.65-2.55-0.95-0.7-3.3-0.35l-7.4 0.5q-3.2-0.25-9.95-3.15-5.55-2.4-9.9-4.85-1.05-0.55 0.05-1"/>
  <path d="m7.7123 225.93c-0.33333 0-0.53333 0.5-0.6 1.5-0.1 0.9-0.05 1.8333 0.15 2.8 0.23333 1.0333 0.53333 1.9 0.9 2.6 0.4 0.7 0.75 1.0167 1.05 0.95 0.53333-0.0667 0.58333-1.6333 0.15-4.7-0.13333-0.86667-0.36667-1.6167-0.7-2.25s-0.65-0.93333-0.95-0.9m2.55 0.35c0.43333 0.8 0.71667 1.65 0.85 2.55 0.2 1.5 0.23333 2.8667 0.1 4.1-0.2 1.5333-0.65 2.4167-1.35 2.65-0.60662 0.16906-1.2017-0.0111-1.5-0.2-0.6-0.36667-1.1667-0.98333-1.7-1.85-0.5-0.9-0.86667-1.8833-1.1-2.95-0.26667-1.3-0.23333-2.65 0.1-4.05 0.33333-1.4667 0.85-2.2833 1.55-2.45 0.46667-0.13333 0.96667-0.0167 1.5 0.35 0.56667 0.4 1.0833 1.0167 1.55 1.85"/>
  <path d="m113.21 228.38q0.1-0.35 0.95001-0.25 0.84999 0.15 0.79999 0.5-2.7 26.2-18.05 41.75-14.6 14.75-35 14.75-5.6 0-8.7-2.45-2.9-2.3-2.4-5.5 0.15-1.05 3.2-7.05 3.1-6.1 3.85-9.9-11.45-3.45-17.75-8.35-10.5 5.9-23.55-0.8-13.35-6.85-16.05-20.6-1.25-6.45 0.55-12 1.75-5.5 5.1-5.9 1.9-0.25 5.3 0.8l4.35 1.1q0.6 0 4.35-1.95 3.85-2 6.05-2.2 3.5-0.3 3.5 0.65t-3.3 1.6q-1.1 0.2-5.5 2.15-4.1 1.85-5.1 1.85l-4.95-0.95-4.25-0.85q-2.05 0.45-3.2 5.65-1.2 5.1-0.35 9.35 2.4 12.3 14.05 18.85 11.4 6.4 21.35 2 1.15-0.5 1.9-0.55 0.95-0.1 1.8 0.5 5.5 4 15.25 6.8 2.65 0.7 2.25 2.85-0.95 5.2-3.65 11.05-2.4 5.25-2.4 5.9 0 2.55 2.35 4t6.45 1.45q17.4 0 31.55-13.5 15.85-15.15 19.25-40.75"/>
  <path d="m64.112 154.13 2.55 2.35q1.7 1.5 3.95 2.85l2.65 1.65 3.3 1.9q2.65 1.35 6.95 3.15 4.9 2.35 10.55 3.55l6.75 0.85 5.75 0.65q2.5 0.6 3.45 1.4 0.85 0.7 0.75 1.9-0.15 1.8-2.9 2.5-3.2 0.8-9.4-0.1-9.05-1.45-13-2.65-2.95-0.85-7-3.25-0.65-0.4-3.2-1.5l-4.25-1.95-5.7-3.45-5.25-3.75q-1.65-1.5-2.25-3.4-0.65-2.05 0.35-3.15 1.1-1.3 2.85-1.05 1.55 0.2 3.1 1.5m-1.65 1.2q-1.9-1.35-2.9-0.65-0.65 0.45 0.25 2.15 0.85 1.65 2.25 2.75l4.75 3.15q3 2.15 4.55 2.9l6.4 2.8 3.9 2.1q2.65 1.4 4.45 1.95 2.95 0.95 11.45 2.35l8.5 0.5q2.55-0.35 2.55-1.55 0-0.4-1.7-0.75l-4.95-0.65q-7.8-0.65-13.8-2.55l-4.9-1.85-2.95-1.35-4.8-1.9-2.25-1.45-2.15-1.35q-3.55-2-5.8-4l-2.85-2.6"/>
 </g>
 <path d="m200.96 70.326q12.95 0.4 20.1 4.05 9.05 4.65 11.7 15.6 3.35 13.8-10.75 26.05-12.8 11.2-28.55 12.75l-25.2 0.9q-14.15-0.6-20.05-4.3-2.85-1.75-7.65-9.6-4.6-7.6-3.95-8.5 13.7-18.3 33.15-28.45 16.95-8.9 31.2-8.5" fill="#FFEFCF"/>
 <path d="m134.26 24.426q0 14-13 33.2-11.65 17.2-26.95 29.5-7.3 5.85-14.55 4.25-2.5-0.55-4.5-1.85-1.6-1.05-1.8-1.7-5.55-15.65-5.55-31.2 0-22.75 14.7-39.65 6.35-7.3 13.9-11.4 7.5-4.1 14.3-4.1 8.55 0 15.2 5.1 8.25 6.3 8.25 17.85" fill="#FFEFCF"/>
 <path d="m115.81 2.8762q13.25 4.25 8.05 16.2-4.45 10.3-18.8 20.25-14.3 9.95-24.15 9.55-11.3-0.45-7.9-16 1.95-8.95 6.45-14.8 3.9-5.05 10.7-8.85 8.2-4.5 12.75-5.95 7.15-2.25 12.9-0.4" fill="#EE3F60"/>
 <path d="m232.26 92.726q0.7 3.9-0.8 7.7-4.05 10-10.9 16.1-8.25 7.4-22.7 11.3-11.95 3.25-26.8 2.4-14.4-0.8-22.85-4.85-3.2-1.5-3-2.55 0.3-1.2 5.4-0.35 9.9 1.6 21.95 1.2 13.15-0.5 22.55-3.3 16.35-4.85 27.3-15.35 9.55-9.2 8.85-15.5l1 3.2" fill="#D2C6AD"/>
 <path d="m184.96 84.726q5.55-6 14.7-8.7 8.4-2.5 16.35-1.3 8.05 1.25 11.3 5.7l1.15 0.65q1.35 0.9 2.4 2.45 3.3 4.85 2.15 13.7-1.25 9.95-11.1 18.3-8.7 7.45-18.7 9.7-7.8 1.75-15.85-5-8.8-7.35-8.8-18.95 0-9.7 6.4-16.55" fill="#EE3F60"/>
 <path d="m231.26 89.526 1 3.2c0.46667 2.6 0.2 5.1667-0.8 7.7-2.9 7.1667-6.8833 12.85-11.95 17.05-5.3 3.9333-10.733 6.5167-16.3 7.75-3.6789 0.35311-4.23 0.49746-6.7686-0.0701-2.4409-0.61382-4.8173-1.7625-7.06-3.3572l5.7286-1.4227c10.9-3.2333 20-8.35 27.3-15.35 6.3667-6.1333 9.3167-11.3 8.85-15.5" fill="#c4324f"/>
 <g fill="#0d131a">
  <path d="m121.51 2.3762q11.15 5.2 13.55 16.85 2.45 12-5.2 27.05-4.9 9.65-13.3 20.25-8.75 11-18.15 19.05-2.65 2.3-4.15 2.25t1.05-2.4q8.85-8.1 17.95-19.75 9-11.6 13.75-20.95 6.9-13.45 4.65-24.85-2.15-11.05-11.45-14.85-10.9-4.45-24.05 2.75-13.7 7.5-21.2 23.45-5.15 10.9-5.2 26.3-0.05 15.7 5.25 30.15 1.25 3.45-0.05 3.75t-2.75-3.1q-6.4-15.05-6.3-30.85 0.05-15.45 6.3-28.4 8.5-17.65 23.35-25.1 14.05-7.05 25.95-1.6"/>
  <path d="m102.96 16.176q6.2-1.45 11.1 1.05 7.15 3.65 8.35 11.7 1.15 7.65-3.5 15.65-3.8 6.55-10.2 8.35-5.45 1.5-9.3-0.75-4.15-2.4-4.8-6.9-0.65-4.55 2.45-10 1.85-3.3 3.3-2.6 1.5 0.7-0.4 3.95-1.75 3.15-1.2 6.2 0.55 3.15 3.3 4.75 2.2 1.3 5.3-0.1 3.6-1.6 6.35-6.3 3.15-5.4 2.6-11.1-0.5-5.65-4.35-8-2.65-1.6-7.25-0.35-5 1.3-8.6 5.15-5.25 5.6-8.3 15.95-4.4 14.8-4.05 38.45 0.05 3.05-1.6 2.95-1.6-0.05-1.85-3.1-1.55-24.55 2.1-39.7 2.85-11.7 9.1-18.4 5-5.3 11.45-6.85"/>
  <path d="m218.46 71.226q11.6 4.4 15.3 15.15 4.5 13-5.95 25.5-10.95 13.1-32.3 17.9-8.4 1.9-21.3 1.4-14.1-0.5-23-3.75-3.9-1.4-3.6-2.25 0.3-0.8 4.2 0.6 8.1 2.95 22 2.9 12.1-0.05 21.1-2.1 19.6-4.4 29.6-15.85 9.75-11.2 5.6-23.3-3.45-9.95-13.35-13.5-9.95-3.55-25.65-0.4-29.5 5.9-50.65 30.55-3.35 3.9-3.9 3.4-0.6-0.5 2.55-4.55 20.95-26.8 51.25-32.85 16.35-3.3 28.1 1.15"/>
  <path d="m193.91 84.676c-3.2667 0.93333-5.5167 2.4833-6.75 4.65-1.1333 1.9-1.25 3.75-0.35 5.55 0.70001 1.4 2.35 2.2 4.95 2.4 2.6 0.23333 5.2-0.21667 7.8-1.35 2.3-1.0333 3.6333-1.0833 4-0.15 0.36667 0.9-0.49999 2.0333-2.6 3.4-4.1 2.6333-8.0333 3.65-11.8 3.05-3.3333-0.53333-5.7167-2.0667-7.15-4.6-1.7667-3.0333-1.6-6.45 0.5-10.25 2.1667-3.9333 5.4833-6.5167 9.95-7.75 5.5667-1.5667 10.983-1.1333 16.25 1.3 5.6 2.6 8.9333 6.6833 10 12.25 0.7 3.6-0.26667 7.3-2.9 11.1-2.7667 4.0333-6.8667 7.3833-12.3 10.05-13.567 6.6333-30.567 7.2167-51 1.75-4.1667-1.1-6.2-2.1333-6.1-3.1 0.23827-1.5296 6.45 0.2 6.45 0.2 15.333 4.0667 29.9 3.25 43.7-2.45 5.5-2.2667 9.8333-4.9833 13-8.15 3.1333-3.1 4.45-5.9 3.95-8.4-0.66667-3.5667-3-6.35-7-8.35-4.0667-1.9667-8.2667-2.35-12.6-1.15"/>
 </g>
</svg>
