<?xml version="1.0" encoding="UTF-8"?>
<svg version="1.1" viewBox="0 0 329.64 165.01" xmlns="http://www.w3.org/2000/svg">
 <g transform="translate(.0664 -.016418)">
  <path d="m211.6 0.5q14.9 1.8 31.15 10.25 1.45 0.8 1.25 1.05l-1.65 0.05q-37.3-5.75-64 9.55-21.05 12.05-31.1 33.65-1.15 2.45-2.15 5.35l-0.8 2-0.75 0.5q-0.45-0.05-0.75-0.75l-0.85-3-0.95-3.8q-4.2-10.05-8.85-16.85-4.05-5.85-11.1-13-10.9-10.95-27.6-14.5-14.5-3.1-28.5 0.05l-1.5 0.1q-0.5-0.25 1.05-1.35 6-4.2 15.4-6.85 13.75-3.8 25.45-0.25 26.4 7.95 38.55 49.85 15.1-39 40.45-48.95 12.45-4.9 27.25-3.1" fill="#0d131a"/>
  <path d="m172.8 22.45q-17.25 12.1-26.4 32.25l-2.2 5.4-0.6 1.55-0.75-2.75-0.95-3.8q-1.6-5.95-5.95-13.55-5.8-10.15-13.85-17.65-11.1-10.35-25.2-14-14.05-3.6-30.05-0.2 6.25-4.15 15.25-6 11.75-2.45 22.5 0.8 27.1 8.15 38.8 49.6l0.4 1.35 0.5-1.3q14.55-38.7 40.6-48.95 23.15-9.1 54 5.1-39.55-6.5-66.1 12.15" fill="#00b8ee"/>
  <path d="m163.9 29.25 0.2 0.3q-11.15 10.7-17.7 25.15l-2.2 5.4-0.6 1.55-0.75-2.75-0.95-3.8q-1.6-5.95-5.95-13.55-5.8-10.15-13.85-17.65 2.4 1.2 4.05 0.05 1.75-1.15 0.85-4 10.35 12.7 16.4 34.15l0.4 1.35 0.5-1.3q7.85-20.85 19.15-33.55-1.7 2.8-1.55 5.3t2 3.35" fill="#00a0cf"/>
  <path d="m90.55 75.65q11.9 3.6 16.05 13.55 9.65 4.2 13.75 13.1 3.65 8.05 1.35 15.9l-0.05 0.15q-1.65 5.4-5.8 8.25-4.8 3.35-11.9 2.25-6.35 12.2-21.45 12.9-6.5 0.3-12.6-1.95-6.15-2.3-10.05-6.6-2.65 5.95-12.6 7.25-9.8 1.3-15.9-3.25-9.15 4.5-17.95 1.6-8-2.6-11.45-9.5-3.55-7.2-0.85-15.1 2.75-8.15 10.35-11.6-0.45-11.55 5.75-20.5 5.75-8.3 15.45-12.15 9.55-3.85 19.3-2 10.4 2 17.45 10 9.25-5.9 21.15-2.3" fill="#0d131a"/>
  <path d="m108.2 90.85q11.8-1.45 13.85 9.2 1.4 7.3-1.7 17.75-1.4 4.7-6.3 8.4-5.05 3.85-8 1.9-1.85-1.25-2.6-1.35l-0.4 0.15q-5.85 11-20.2 11.9-14.2 0.95-23.2-8.85-1.7-1.85-2.35-1.3-0.6 0.5 1 2.7-2.45 5.1-11.45 6.5-9.2 1.4-15.55-2.6-1.5-1-1.9-0.6-0.35 0.4 0.75 1.45-8.65 3-15.65 0.3-6.4-2.45-9.6-8.85-2.95-6.05-1.45-12.55 1.65-7.25 8.3-11.05 0.35 1.95 0.85 1.85t0.5-2.2q-0.1-10.7 5.6-19.15 5.3-7.85 14.15-11.75 8.8-3.85 18.15-2.55 9.95 1.45 17.5 8.5l-1.8 1.45q-0.7 0.55-0.35 0.85l1-0.15q9.75-6.4 22.1-2.95 11.8 3.25 16.05 12.15l0.45 0.55q0.8 0.5 2.25 0.3" fill="#fff"/>
  <path d="m113.25 94.95q3.75-2.25 5.85-1.2 3.55 3.7 3.35 11.7-0.15 5.75-2.1 12.35-1.4 4.7-6.3 8.4-5.05 3.85-8 1.9-1.85-1.25-2.6-1.35l-0.4 0.15q-5.85 11-20.2 11.9-14.2 0.95-23.2-8.85-1.7-1.85-2.35-1.3-0.6 0.5 1 2.7-2.45 5.1-11.45 6.5-9.2 1.4-15.55-2.6-1.5-1-1.9-0.6-0.35 0.4 0.75 1.45-8.65 3-15.65 0.3-6.4-2.45-9.6-8.85-1.3-2.75-1.75-5.85 3 3.4 7.9 4.6 5.9 1.4 9.7-2.3 7.3 5.6 17.25 4.15 10.75-1.55 16.3-10.65l5.6 2.55q6.9 2.65 13.55 3.1 21.3 1.6 31.9-18.95 3.3-6.45 7.9-9.25" fill="#dbdcdc"/>
  <path d="m162.6 128.95q2.2-2.85 7-3t10.85 2.45q13.8 5.6 24.75 18 7.85 8.9 9.7 14.45 0.95 2.9 0.2 3.65-1.7 1.65-10.7-1.9-7.9 1.9-18.45-1.9-12.5-4.45-20.4-14.95-3.75-5-4.5-9.6-0.7-4.4 1.55-7.2" fill="#0d131a"/>
  <path d="m180.05 129.25q11.65 5 23.05 17.3 8.95 9.75 10.55 14.45 0.6 1.65-0.05 2.3-1.4 1.4-9-1.65l-0.15-0.05-0.15 0.05q-5.75 1.7-16.7-2.15-13.2-4.65-20.65-14.6-3.65-4.75-4.6-8.85t0.95-6.55q2.05-2.55 6.55-2.6 4.5-0.1 10.2 2.35" fill="#00b8ee"/>
  <path d="m180.05 129.25q7.6 3.25 15.35 9.85 6.2 5.35 11.6 11.95-16.35-2.5-31.35 2.25-5.1-3.6-8.7-8.4-3.65-4.75-4.6-8.85t0.95-6.55q2.05-2.55 6.55-2.6 4.5-0.1 10.2 2.35" fill="#00a0cf"/>
  <path d="m188.25 153.8-1.5-1.25q-0.3-0.5 1.2 0.3l9.25 5.15q8.35 4.35 11.95 5.25h-2.45q-3.7-0.9-10.9-4.9-5.45-3-7.55-4.55" fill="#0d131a"/>
  <path d="m137.55 147.15c0.73333-0.46667 1.45-0.71667 2.15-0.75 1.3 0 2.1833 0.83333 2.65 2.5l0.2 0.65c0.83333 3 1.9 5.6 3.2 7.8 0.46667 0.83333 0.78333 1.7 0.95 2.6 0.13333 0.83333 0.21558 1.1299-0.15 1.45-0.42652 0.37345-1.1508 0.0905-1.7-0.05-0.92432-0.23644-2.55-1.3-2.55-1.3-4.7667-3.2667-6.7833-7.0167-6.05-11.25 0.1-0.6 0.53333-1.15 1.3-1.65" fill="#0d131a"/>
  <path d="m139.7 147.35q1.2-0.05 1.75 1.8l0.2 0.65q1.1 4.05 3.05 8.05 1.55 3.2-1.4 1.15-3.45-2.35-4.95-5.9-1.1-2.65-0.75-4.05 0.1-0.6 0.75-1.15t1.35-0.55" fill="#fff"/>
  <path d="m138.35 147.9q0.65-0.55 1.35-0.55 1.2-0.05 1.75 1.8l0.2 0.65q0.75 2.9 2.1 6.05l-2.3-0.5q-1.4-0.2-1.45 0.55-1.5-1.95-2.15-4.2-0.45-1.75-0.25-2.65 0.1-0.6 0.75-1.15" fill="#dbdcdc"/>
  <path d="m141.9 147.45q0.95-0.85 1.95-1 2-0.25 3 2.1l0.85 0.65 1.6 3.7q0.9 2.05 2.05 3.45 1.95 2.7 1.2 3.6t-3.8-0.7q-3.85-1.9-6.15-5.25-1.95-2.85-1.75-4.7 0.05-0.95 1.05-1.85" fill="#0d131a"/>
  <path d="m144 147.4q1.2-0.25 2 1.55l0.25 0.6q2 4.65 4.15 7.55 1.15 1.6 0.7 1.85-0.4 0.25-1.95-0.55-3.7-1.85-5.65-5.15-1.45-2.4-1.35-3.9 0.05-0.6 0.6-1.2 0.55-0.65 1.25-0.75" fill="#fff"/>
  <path d="m142.75 148.15q0.55-0.65 1.25-0.75 1.2-0.25 2 1.55l0.25 0.6q2 4.65 4.15 7.55l0.05 0.1q-1.15-0.7-2.3-0.8t-1.4 0.5q-2.45-1.85-3.7-4.45-1-2-0.9-3.1 0.05-0.6 0.6-1.2" fill="#dbdcdc"/>
  <path d="m142.75 148.15q0.55-0.65 1.25-0.75 1.2-0.25 2 1.55l0.25 0.6q1.5 3.45 3.05 5.95-2.75-1-5-1-1.15-1.55-1.75-3.15-0.5-1.3-0.4-2 0.05-0.6 0.6-1.2" fill="#dbdcdc"/>
  <path d="m174.7 139.65q2.15-0.65 3.75 2.05l0.4 0.7 2.55 4.25q1.5 2.25 3.1 3.85l1.65 1.65q0.95 1.2 0.55 1.85-0.4 0.6-1.8 0.6-1.5 0.05-3.25-0.6-9.7-3.55-9.7-10.85 0-1.1 0.8-2.15 0.85-1.05 1.95-1.35" fill="#0d131a"/>
  <path d="m180.6 147.2c1.0333 1.5333 2.1167 2.8667 3.25 4 1 1.0333 1.3333 1.7167 1 2.05 0 0-1.6818 0.0394-2.45-0.25-2.7957-1.0533-5.4333-2.8667-7.3-5.2-1.4667-1.8333-2.2-3.3833-2.2-4.65 0-0.5 0.2-1.0167 0.6-1.55 0.4-0.56667 0.88333-0.91667 1.45-1.05 1-0.26667 1.8833 0.28333 2.65 1.65l0.4 0.7 2.6 4.3" fill="#dbdcdc"/>
  <path d="m177.1 139.1c1.1333-0.76667 2.5167-0.4 4.15 1.1l0.6 0.55c2.5 2.3 5.2833 4.25 8.35 5.85 1.1333 0.56667 1.9333 1.1833 2.4 1.85 0.4 0.5 0.48501 0.77274 0.35 1.15-0.22273 0.62236-1.0272 0.87864-1.65 1.1-0.99385 0.35321-3.15 0.3-3.15 0.3-4.2333-0.3-7.4167-1.5833-9.55-3.85-1.0333-1.0667-1.8833-2.5833-2.55-4.55-0.2-0.66667-0.2-1.3333 0-2s0.55-1.1667 1.05-1.5" fill="#0d131a"/>
  <path d="m176.95 142.3q-0.2-0.65-0.05-1.4 0.2-0.7 0.7-1.05 1.15-0.7 3 1.05l0.6 0.55 3.8 3.4q2.2 1.8 4.3 2.75 2.05 0.95 1.65 1.6-0.35 0.65-2.45 0.55-4.9-0.25-8.45-3.35-2.45-2.15-3.1-4.1" fill="#dbdcdc"/>
  <path d="m195.45 91.6q2.95 4.95 3.8 8.4 4 16.55-5.95 30.75-11.55 16.55-37.7 21.15-18.7 3.3-34.75-6.1-16.75-9.75-19.8-27.35-0.85-4.75 0.95-12.65 1.2-5.25 3-9.85 2.2-5.6 3.15-11.1 0.8-4.95 4.75-11.75 2.55-4.3 7.85-8.4 6.2-4.8 13.35-6.75 5.9-1.6 14.5-0.8 9.9 0.9 16.8 4.8 1.85 1.05 5.45 4.45 3.55 3.4 5.7 6.1 1.95 2.55 6.8 6.9 4.45 4.05 6.9 5.7 2.2 1.5 5.2 6.5" fill="#00b8ee"/>
  <g fill="#fff">
   <path d="m140.35 89.55q6.6 4.9 8.1 11.65 0.4 1.85-0.75 4.6-1.3 3.05-3.2 3.05-5.9 0-9 0.95-1.45 0.45-7.35 2.85l-6.6 2.65q-2.05 0.6-4.2-0.65-2.15-1.3-2.55-3.55-1.65-8.85 1.7-16.45 3.1-7 8.05-8.4 8.3-2.3 15.8 3.3"/>
   <path d="m143.3 109.05 3.35-1.55q0.65 2.85-1.35 9.25-1.05 3.35-2.4 5.1-1.6 2.05-4.4 3.05-2.45 0.9-5.5-1.35l-2.55-2.45q1.85 1.2 3.75 1.65l2.5 0.2q0.95-0.15 2.2-1.25 1.6-1.45 2.8-3.9 1.15-2.3 1.5-5.75l0.1-3"/>
   <path d="m125.75 113.95 3.9-1.6 0.5 1.25 2.1 3.85q1.4 2.15 3.8 3.75l2.1 1.15q0.1 0.4-1.7 0.6-1.3 0.2-3.85-1-2.45-1.15-3.55-2.35-0.85-0.95-2.15-3.4l-1.15-2.25"/>
  </g>
  <path d="m143.3 110.65q-0.15 2.15-1.05 4.75-0.85 2.7-2.4 4.9l-1.7 2.05q-0.7 0.35-3.9-2.7-3.7-3.55-4.75-7.45l3-1.2 4-1.55 6.8-0.4v1.6" fill="#ed8599"/>
  <path d="m132.25 117.15-2.75-4.95 2.95-1.25q3.15-1.3 4.05-1.5l6.8-0.4v2.6q-4.3-0.95-7.75 1.2-3.1 1.85-3.3 4.3" fill="#ce7486"/>
  <path d="m190 134.45q-12.7 13.65-33.4 16.85-17.4 2.7-31.35-3.2-10.1-4.3-15.7-11.5-5.25-6.7-7.45-14.15l-1-5.15q2.4 10.4 12.6 16.55 9.95 6 23.55 5.8 13.95-0.25 25.6-6.9 12.85-7.3 18.7-20.4l1.85 3q2.35 3.2 4.65 4.25 2.35 1 6.65 1.55l3.85 0.3q-2.2 6.2-8.55 13" fill="#00a0cf"/>
  <g fill="#0d131a">
   <path d="m138.85 89.4q-6.85-4.2-13.65-2.5-4.05 1.05-7 6.5-3.05 5.6-3.05 12.5 0 3.05 0.65 5.85 0.35 1.55 2.1 2.5t3.35 0.45q1.6-0.45 6.55-2.7 6.55-2.85 7.85-3.2l5.75-0.55 3-0.2q1.75-0.55 2.75-3.1 0.95-2.45 0.4-4.5-1.85-6.9-8.7-11.05m-14-4q7.45-1.85 14.85 2.6 7.35 4.45 9.4 12.05 0.7 2.65-0.55 5.65-1.3 3.15-3.7 3.85l-3.4 0.3-5.35 0.5q-1.55 0.4-7.65 3.1l-6.7 2.8q-2.35 0.75-4.65-0.5-2.3-1.2-2.85-3.65-1.9-8.45 1.4-16.85 3.35-8.4 9.2-9.85"/>
   <path d="m128.8 112.35q-0.05-0.3 0.55-0.45l0.75 0.1q1.2 3.85 4.35 7.1 2.6 2.65 3.8 2.75l0.05 0.5q0 0.55-0.4 0.45-1.85-0.4-4.45-2.95-3.3-3.25-4.65-7.5"/>
   <path d="m147.3 107.05q0.25 5.6-1.85 11.2-2.2 6-5.6 7.3-4.35 1.65-9.2-3-4.15-3.95-5.45-8.55-0.1-0.3 0.5-0.5t0.7 0.15q1.1 3.9 4.8 6.85 3.55 2.85 5.8 2 2.2-0.85 4.2-5.4 1.95-4.55 1.65-8.1-0.05-0.35 0.6-0.35 0.6 0 0.65 0.35 0.4 3.55-1.75 8.25-2.2 4.9-5.05 6-1.55 0.55-5.3-0.9 4.15 2.95 7.3 1.7 2.65-0.95 4.9-6.2 2.2-5.2 2.15-10.3l0.45-0.5q0.45-0.3 0.5 0"/>
   <path d="m113.1 85.1q1.6 0 2.45 1.55 0.85 1.6 0.6 4.3-0.25 2.3-1.5 3.65-1.1 1.2-2.6 1.2-1.1 0-1.9-1.3-0.85-1.45-0.85-3.65 0-2.35 1.1-4.05 1.15-1.7 2.7-1.7"/>
  </g>
  <path d="m114.65 87.95q0 0.8-0.5 1.3-0.5 0.55-1.25 0.55-0.7 0-1.25-0.55-0.5-0.5-0.5-1.3 0-0.75 0.5-1.3 0.55-0.55 1.25-0.55 0.75 0 1.25 0.55t0.5 1.3" fill="#fff"/>
  <path d="m150.85 81.4q2.3-0.65 4.2 0.45 1.75 1 2.45 2.95 0.8 2.35 0.25 4.45-0.65 2.5-3.05 3.35-1.8 0.65-3.7-0.45-1.8-1.05-2.55-3.1-0.9-2.6-0.15-4.95 0.8-2.25 2.55-2.7" fill="#0d131a"/>
  <path d="m154.4 84.1q0 1-0.7 1.75-0.75 0.7-1.75 0.7t-1.75-0.7q-0.7-0.75-0.7-1.75t0.7-1.75q0.75-0.7 1.75-0.7t1.75 0.7q0.7 0.75 0.7 1.75" fill="#fff"/>
  <path d="m196.5 95.65q-1.25-3.1-3.6-6.15-2.35-3.1-5-5-5.7-4.1-15.65-15.5-6.05-6.95-16.1-9.65-10-2.7-21.05-0.5-10.25 2.05-17.4 9.8-7.2 7.8-9.35 19.1-0.3 1.75-1.6 5.7l-2.15 5.95q-2.2 5.35-2.6 11.55-0.4 5.7 0.75 10.15 4.45 16.65 21.45 24.95 16.75 8.2 36.2 3.7 11.75-2.75 20.75-9.1t13.65-15.25q3.7-7.05 4.15-14.75t-2.45-15m-23.05-27.7q4.1 4.85 8.55 9.2 4.15 4.1 6.85 6.05 3.1 2.25 5.7 5.2 3 3.4 4.25 6.5 6.85 17.35-1.75 32.95-9.8 17.8-36.15 23.9-20.75 4.8-37.85-3.5-17.55-8.5-22.45-26.65-1.3-4.9-0.55-11.1 0.7-5.9 3.1-11.7l2.05-5.8q1.3-3.85 1.6-5.55 2.3-12.3 9.5-20.3 7.4-8.25 18.65-10.5 11.4-2.25 21.85 0.85 10.35 3.05 16.65 10.45" fill="#0d131a"/>
  <path d="m329.15 87.2c1.0333 5.0333 0.16667 9.8-2.6 14.3-2.2333 3.6333-5.4 6.1167-9.5 7.45-4.4333 1.4-8.7667 0.98333-13-1.25-2.2 4.8667-7.65 6.9833-16.35 6.35-8.5-0.6-14.483-3.2333-17.95-7.9-2.1333 4.3667-6.5 6.55-13.1 6.55-6.5 0-11.633-2.0167-15.4-6.05-0.16667 3.4667-1.5667 6.6167-4.2 9.45-2.4667 2.6333-5.6333 4.65-9.5 6.05s-7.75 1.95-11.65 1.65c-4.1667-0.3-7.7167-1.55-10.65-3.75-6.4667 3.4667-12.45 3.5333-17.95 0.2-5.2667-3.2-7.95-8.0333-8.05-14.5-0.0333-4.1 1.25-7.6167 3.85-10.55 2.4667-2.8 5.65-4.5833 9.55-5.35-1.5333-6.0667-1.7-11.667-0.5-16.8 1.3667-5.7333 4.4-10.583 9.1-14.55 2.8333-2.4 6.2445-4.0479 9.8-4.85 6.5057-1.4677 9 0.25 9 0.25 0.63333-4.7667 2.55-8.8 5.75-12.1 3.2-3.3667 7.3-5.5167 12.3-6.45 4.2333-0.8 8.35-0.46667 12.35 1 4.7 1.7333 8.3333 4.8 10.9 9.2 6.2667-4.3667 13.35-6.6833 21.25-6.95 8.3-0.3 15.933 1.7333 22.9 6.1 6 3.7667 10.433 8.7667 13.3 15 2.7333 5.9667 3.6167 11.967 2.65 18 4.0667 1.3 6.6333 4.4667 7.7 9.5" fill="#0d131a"/>
  <path d="m257.6 48.75q-0.85 1.05-0.75 1.3t1.35-0.6q7.75-5.45 13.85-7.25 15.65-4.55 31.6 4.65 8.85 5.1 13.15 13.75 4.05 7.95 3.2 16.75-1.25-0.25-1.6 0.35t1.4 1.15q5.3 1.75 6.45 8.45 1.05 6.4-2.3 12.4-2.9 5.25-9 7.1-6.2 1.85-11.4-1.15-1.05-0.55-1.4-0.25-0.35 0.35 0.7 1.5-1.35 2.55-6.1 3.8t-10.35 0.6q-14.1-1.65-18.35-11.9-0.5-1.15-0.9-1.05t-0.25 1.25q0.25 1.55 1.9 4.85-0.85 2.6-4.55 4.2-3.6 1.5-8.3 1.45-11.35-0.15-16.5-7.85-0.5-0.7-0.8-0.5-0.25 0.25 0 1 0.3 0.95 1.35 2.4-0.75 6.1-5.4 10.3-4.2 3.7-10.55 5.2l-11.75 0.35q-5.95-1.1-9.2-4.35-0.9-0.9-1.3-0.65-0.4 0.3 0.05 1l2.2 2.1q-10.1 3.85-17-2-3.05-2.6-4.3-6.5-1.2-3.8-0.4-7.85 1.7-8.7 10.8-11.6l1 2.35q0.7 1.35 1.25 1.6 0.6 0.25-0.3-1.85-2.95-6.9-0.8-16.75 2.2-10.4 8.5-15.7 4.3-3.55 8.95-4.95 4.55-1.4 8.25-0.35 0.15 1.8 0.6 1.9 0.4 0.05 0.6-1.65 0.8-7.05 5.15-11.8 4.65-5.1 12.4-6.45 6.1-1.05 11.6 0.85 6.4 2.2 9.8 7.9-1.45 1.15-2.55 2.5" fill="#fff"/>
  <path d="m250.45 95.55c5.5333-0.03333 10.583-2.5333 15.15-7.5 3.3333 4.3667 8.5667 6.7333 15.7 7.1 7.2 0.36667 12.55-1.5 16.05-5.6 3.1333 4.2333 7.6167 6.85 13.45 7.85 6.0667 1 11.183-0.28333 15.35-3.85-0.4 2.1333-1.1333 4.1833-2.2 6.15-1.9333 3.5-4.9333 5.8667-9 7.1-4.1333 1.2333-7.9333 0.85-11.4-1.15-0.7-0.36667-1.1667-0.45-1.4-0.25-0.23333 0.23333 0 0.73333 0.7 1.5-0.9 1.7-2.9333 2.9667-6.1 3.8s-6.6167 1.0333-10.35 0.6c-9.4-1.1-15.517-5.0667-18.35-11.9-0.33333-0.76667-0.63333-1.1167-0.9-1.05-0.26667 0.06667-0.35 0.48333-0.25 1.25 0.16667 1.0333 0.8 2.65 1.9 4.85-0.56667 1.7333-2.0833 3.1333-4.55 4.2-2.4 1-5.1667 1.4833-8.3 1.45-7.5667-0.1-13.067-2.7167-16.5-7.85-0.33333-0.46667-0.6-0.63333-0.8-0.5-0.16667 0.16667-0.16667 0.5 0 1 0.2 0.63333 0.65 1.4333 1.35 2.4-0.5 4.0667-2.3 7.5-5.4 10.3-2.8 2.4667-6.7454 4.2534-10.55 5.2-3.8025 0.9461-7.9144 1.1513-11.75 0.35-3.3205-0.69368-7.0333-2.1833-9.2-4.35-0.6-0.6-1.0333-0.81667-1.3-0.65-0.26667 0.2-0.25 0.53333 0.05 1l2.2 2.1c-6.7333 2.5667-12.4 1.9-17-2-2-1.6333-3.4167-3.75-4.25-6.35 2.4667 1.2667 5.25 1.6 8.35 1 3.2667-0.6 5.5833-2.0167 6.95-4.25l1.7 1.3c1.4667 1 3.0167 1.8167 4.65 2.45 5.1667 2.0667 10.183 1.9667 15.05-0.3 5.1-2.3333 8.6667-5.1833 10.7-8.55 1.7333-2.8333 3.1667-7.6167 4.3-14.35 5.0333 5.0333 10.35 7.5333 15.95 7.5" fill="#dbdcdc"/>
 </g>
</svg>
