<?xml version="1.0" encoding="UTF-8"?>
<svg version="1.1" viewBox="0 0 232.81 200.93" xmlns="http://www.w3.org/2000/svg">
 <g transform="translate(.014103 -.029545)">
  <path d="m116.75 169.95 3.95-0.15q2.35 0.5 4.25 2 3.05 2.35 2.65 5.25-0.35 2.3-1.2 4.65-1 2.75-2.25 4.3-1.1 1.3-1.65 4.45-0.45 2.4-0.45 4.75 0 1.95-0.5 3.4-0.45 1.3-1.05 1.55l-2.15-0.2-1.85-1.7q-1.1-1.2-3.1-4.7-2.15-3.75-2.65-5.65-0.85-3.05 0.95-7.45l1.7-3.6q1.1-2.4 1.3-3.95 0.15-2.1 2.05-2.95" fill="#0d131a"/>
  <path d="m120.5 195.35q0 2.5-0.9 2.8-0.75 0.3-2-1-0.95-1-2.8-4.55-2-3.7-2.5-5.6-0.35-1.25 0.15-3.05 0.25-1.05 1.25-3.5 1.85-4.8 2.15-7.45 0.15-1.4 1.35-1.95l3.35-0.1q2.05 0.5 3.7 1.75 2.55 2 2.2 4.2-0.3 1.95-1.15 4.2-0.95 2.5-2.15 3.9-1.3 1.55-2.05 5.2-0.6 2.85-0.6 5.15" fill="#e95532"/>
  <path d="m121.1 190.2q-0.6 2.85-0.6 5.15 0 2.5-0.9 2.8-0.75 0.3-2-1-0.65-0.7-1.5-3.25-0.7-2.15-0.85-3.3l-0.45-3.6q0-2.2 1.05-3.65 0.75-1.05 2.55-5.25 1.95-4.45 3.4-6.75 1.4 0.55 2.45 1.35 2.55 2 2.2 4.2-0.3 1.95-1.15 4.2-0.95 2.5-2.15 3.9-1.3 1.55-2.05 5.2" fill="#ca4829"/>
  <path d="m112.15 168.85q1.85 1.5 2.25 3.15 0.4 1.55-0.9 2.2-2.7 1.35-6.55 2.05-5.3 0.95-9.1-0.55-1.25-0.45-2.25-2.4-0.75-1.5-1.1-3.25-0.45-2.25 0.25-3l0.95-0.05 9.15 0.35 3.3-0.05q2.05 0 4 1.55" fill="#0d131a"/>
  <path d="m108.15 168.5q1.7 0 3.3 1.35 1.5 1.2 1.8 2.45 0.15 0.6-0.3 0.9-1.85 0.9-6.8 1.5-5.35 0.65-8-0.1-0.85-0.25-1.75-2.2-0.95-2.25-0.95-3.95l0.05-0.3 9.4 0.35h3.25" fill="#b3aea6"/>
  <path d="m90.65 163.35q1.65-0.5 3.8 0.65t4 3.55l0.2 0.05q2.1 2.75 2.5 7.25 0.35 4.65-1.7 6.75-5.05 5-5.95 11.1-1.05 7.2-3.05 7.65-2.6 0.65-5-4.2-5.05-10.4-3.65-14.95 0.4-1.25 2.9-5.15l2.05-3.4q1.15-2.3 1.3-4.85 0.2-3.8 2.6-4.45" fill="#0d131a"/>
  <path d="m89.2 167.85q0.25-2.95 1.8-3.4 1.3-0.4 3.15 0.65 1.85 1.1 3.4 3.15 1.75 2.35 1.8 6.7t-1.65 6.55l-1.05 1.3q-2.05 2.6-2.85 4.1-1.35 2.5-1.8 5.95-0.8 5.45-2.25 5.65-1.25 0.2-2.95-3.3-4.35-9-2.6-14.6 0.5-1.65 2.05-4.05l1.9-3.6q0.9-2.25 1.05-5.1" fill="#e95532"/>
  <path d="m95.2 166.05q1.1 0.65 2.35 2.2 1.75 2.35 1.8 6.7t-1.65 6.55l-1.05 1.3q-2.05 2.6-2.85 4.1-1.35 2.5-1.8 5.95-0.8 5.45-2.25 5.65-1.25 0.2-2.95-3.3-1-2.05-0.95-5.6l0.5-5.5q0.25-2 3.9-7.45 3.35-5.05 3.2-8.9-0.15-2.85 1.75-1.7" fill="#ca4829"/>
  <path d="m75.25 155.45 0.95-0.1 0.15 0.1q6.35 3.2 11.75 4.9 5.4 1.65 8.85 1.5 1.7-0.1 3.15 1.35 1.25 1.3 1.75 3.15 0.75 3-1 3.85-2.15 1.05-10.45 0.7-9.05-0.4-14.35-2.45-1.3-0.5-1.7-2.9-0.5-2.4-0.25-5.8 0.25-3.6 1.15-4.3" fill="#0d131a"/>
  <path d="m75.9 156.5q11.8 6.95 21.1 6.5 1.25-0.05 2.35 1.1 1 1.05 1.35 2.55 0.6 2.1-0.35 2.5-1.35 0.65-11.05-0.1-9.5-0.75-12.95-1.7-0.4-0.1-0.75-1.5-0.4-1.55-0.4-4 0-4.2 0.7-5.35" fill="#dbd5ca"/>
  <path d="m76.35 167.35q-0.4-0.1-0.75-1.5-0.4-1.55-0.4-4l0.05-1.9q5.65 2.65 12.5 3.8l11.65 0.45q0.95 1.05 1.3 2.45 0.6 2.1-0.35 2.5-1.35 0.65-11.05-0.1-9.5-0.75-12.95-1.7" fill="#b3aea6"/>
  <path d="m75.8 151.75q3.15 3.3 4.85 7.45 1.4 3.4-0.95 8.85-2.55 5.9-7.65 8.95-2.6 1.55-5.3 6.4-2.8 4.95-3.3 9.1l-0.75 4.3q-0.85 2.9-2.7 3.25-1.05 0.2-2.6-1.55-1.5-1.7-2.6-4.25-2.6-6.1-2.75-12.45-0.2-6.25 2-12.05 0.95-2.5 2.65-4.3l3.3-3 3.85-4q2-2.6 2.65-5.4 0.4-1.85 1.3-3.1 1.05-1.4 2.35-1.5 2.35-0.2 5.65 3.3" fill="#0d131a"/>
  <path d="m77.85 167.2q-2.35 5.9-7.3 8.85-2.75 1.7-5.35 6.5t-3.2 9.35q-0.3 2.6-1.05 4.2-0.65 1.35-1.3 1.45-0.3 0.05-1.15-1.05-1.05-1.45-2.15-4-2.2-5.05-2.05-12.05 0.15-5.65 1.5-9.5 0.85-2.4 2.55-4.4 0.95-1.15 3.25-3.25l3.7-3.75q1.85-2.45 2.55-5.5 0.6-2.7 2.7-2.95 1.85-0.15 4.05 1.85 2.45 2.2 4.05 6.05 1.25 3-0.8 8.2" fill="#e95532"/>
  <path d="m78.65 159q1.25 3-0.8 8.2-2.35 5.9-7.3 8.85-2.75 1.7-5.35 6.5t-3.2 9.35q-0.5 4.05-1.75 5.3-4.3-18.8 1.1-23.4 7.4-6.3 10.45-13.95 1.35-3.4 4.05-2.75 2.2 0.5 2.8 1.9" fill="#ca4829"/>
  <path d="m181.2 170.4q1.35-1.85 3.3-2.55 2-0.65 4.05 0.05 2.15 0.75 3.4 2.7 1.2 1.9 1.1 4.3-0.3 7.4-0.8 9.85-1.25 6.3-5.5 11.9-1.1 1.4-2.95 2.6-2.1 1.4-3.15 0.9-2.7-1.15-0.75-11.65 0.25-1.6 0-8.25-0.4-7.5 1.3-9.85" fill="#0d131a"/>
  <path d="m188.15 168.95q1.65 0.55 2.7 2.05 1.15 1.65 1.05 3.8-0.25 6.1-1.2 9.7-1.55 6.15-5.7 11.65l-1.75 1.75q-0.95 0.6-1.45 0.35-0.65-0.3-0.9-1.9-0.4-2.65 0.6-8.1 0.3-1.6 0-6.75l-0.15-6.15q0.05-3.3 0.8-4.25 1.25-1.75 3-2.25l3 0.1" fill="#e95532"/>
  <path d="m188.15 168.95q1.65 0.55 2.7 2.05 1.15 1.65 1.05 3.8-0.25 6.1-1.2 9.7-1.55 6.15-5.7 11.65l-1.75 1.75q-0.95 0.6-1.45 0.35-0.65-0.3-0.9-1.9-0.4-2.65 0.6-8.1 0.3-1.6 0-6.75l-0.15-6.15q0.05-3.3 0.8-4.25 1.25-1.75 3-2.25l3 0.1" fill="#ca4829"/>
  <path d="m163.55 128.55q1.45-3.75 5.45-3.3 7.55 0.95 14.4 4.6 7.15 3.9 11.6 9.8 2.8 3.75 4.05 6.7 1.3 3.15 0.55 4.6-2.35 4.45-12.1 3.85-9.5-0.55-15.95-5.05-4.75-3.3-7.2-10.3-2.4-6.7-0.8-10.9" fill="#0d131a"/>
  <path d="m193.5 140.85q4.95 6.65 4.15 9.25-0.45 1.3-3.2 2.1l-0.4 0.15q-3.3 1.1-8.55 0.8-7.65-0.4-13.3-4.35-4.4-3.05-6.75-9.65-2.25-6.35-0.8-10.2 1.1-2.9 4.2-2.5 6.25 0.75 12.5 4.05 7.35 3.9 12.15 10.35" fill="#e95532"/>
  <path d="m166.55 141.7q7.65 3.15 15.1 3.6l14.25-0.95q2.35 3.9 1.75 5.75-0.45 1.3-3.2 2.1l-0.4 0.15q-3.3 1.1-8.55 0.8-7.65-0.4-13.3-4.35-3.4-2.4-5.65-7.1" fill="#ca4829"/>
  <path d="m185 132.75 1.45 0.65q-2.3 1-5.15 3.25-5.75 4.45-8.45 10.65l-1.1-0.45q3.05-6.95 6.85-10.4 2.6-2.4 6.4-3.7" fill="#0d131a"/>
  <path d="m163.85 143q9.3-1.05 11.45 0.85 3.8 3.35 3.8 11.7 0 3.95-0.85 7.95-0.8 3.75-1.95 5.8-1.9 3.5-4.2 5.15-2 1.4-5.8 2.35-5.9 4.3-13.25 6.35-11.7 3.25-24.9 0.15-10.4-2.45-16.3-6.3-4.45-2.95-5.7-6.15-1.15-3.05 0.9-5.85 5.05-7.05 24.45-14 17.4-6.3 32.35-8" fill="#0d131a"/>
  <path d="m174.55 144.7q3.65 3.2 3.35 12-0.25 7.7-2.6 12-1.7 3.2-4.1 4.6-1.65 0.95-5.75 2l-0.15 0.05-0.05 0.05q-6 4.4-13.65 6.3-11.05 2.75-23.8-0.25-10.35-2.4-15.8-5.9-3.75-2.45-4.75-5.1-0.9-2.45 0.7-4.75 4.8-6.7 23.9-13.6 17.4-6.25 32.15-7.95l8.05-0.25q1.8 0.25 2.5 0.8" fill="#b3aea6"/>
  <path d="m171.15 154.9 1.15-0.2q1.3 7.1-0.95 13.25-1.75 4.65-5.35 8.45l-0.85-0.8q3.45-3.6 5.1-8.05 2.1-5.85 0.9-12.65" fill="#0d131a"/>
  <path d="m163.95 139.85q2.7-2.9 4.7-2.25 5.35 1.15 8.6 4.95 2.85 3.35 3.4 7.8 0.4 3.75-4.35 6.55-4.6 2.8-9.15 3.6-5.35 1-8.95-1.25-1.85-1.15-1.2-5.15 0.55-3.3 2.55-7.45 2.05-4.25 4.4-6.8" fill="#0d131a"/>
  <path d="m174.95 143.1q4.1 4 4.5 7.4 0.35 3-3.7 5.4-3.9 2.35-9.5 3.05-5.4 0.7-7.35-0.65-1.2-0.8-0.7-4t2.4-7.15q1.95-4.05 4.15-6.45t3.6-2q2.9 0.85 6.6 4.4" fill="#e95532"/>
  <path d="m179.45 150.5q0.35 3-3.7 5.4-3.9 2.35-9.5 3.05-5.4 0.7-7.35-0.65-1.7-1.2-0.05-6.75l9.25-2.4q5-1.5 9.1-3.5 2.05 2.5 2.25 4.85" fill="#ca4829"/>
  <path d="m162.2 145.15 0.3-1.15q3.8 1.1 5.9 2.75 5.05 3.85 4.5 11.1l-1.2 0.05q-0.1-6.15-4.45-9.95-2.45-2.1-5.05-2.8" fill="#0d131a"/>
  <path d="m176.45 154.55q1.5-0.55 2.25 0.2 1.25 1.1 0.75 5.05l-1.05 4.7-0.05 0.25-0.3 0.1q-4.85 2.35-11.45 3.95-3.3 0.85-4.25-1.2-0.65-1.3-0.15-3.15t1.75-2.65l6.6-4q4.9-2.85 5.9-3.25" fill="#0d131a"/>
  <path d="m178.4 157.6q0 2.6-1.05 6.3l-11.1 3.8q-2.2 0.8-2.85-0.6-0.45-0.95-0.05-2.35 0.35-1.45 1.2-2l6.5-3.9 5.85-3.2q0.75-0.3 1.05 0 0.45 0.4 0.45 1.95" fill="#dbd5ca"/>
  <path d="m165.45 162.2q0.45 0.7 5.15-1.05l7.8-2.75q-0.25 2.75-1.05 5.5l-11.1 3.8q-2.2 0.8-2.85-0.6-0.45-0.95-0.05-2.35 0.35-1.45 1.2-2l0.9-0.55" fill="#b3aea6"/>
  <path d="m184.15 150.8q1.8 1.3 2.45 3.6 1.35 5.15 8.4 11.5 4.2 3.75 4.95 10.8 0.6 5.15-0.75 13.3-0.6 3.75-2.7 7.35-2.25 3.75-4.2 3.6-2.5-0.15-4.05-3.9-2.25-6.25-4.75-11.45-2-4.2-4.35-6.6l-3.85-3.35q-2.25-2-2.95-3.15-1.15-1.75-1.3-4.5-0.4-8.25 2.8-13.4 2.6-4.25 6.4-4.8 2.05-0.3 3.9 1" fill="#0d131a"/>
  <path d="m193.4 166.65q3.9 3.5 4.6 10.35 0.45 4.95-0.8 12.95-0.5 3.2-1.7 5.65-1.15 2.45-2.45 3.1l-1.65 0.05q-0.75-0.35-1.85-2.8l-1.85-4.9-2.15-5.45q-1.75-3.9-4.25-6.95l-4.2-4.25-2.9-2.95q-1.15-1.55-1.2-3.5-0.15-7.3 2.15-11.9 2.05-4 5.1-4.4 1.6-0.2 2.9 0.75 1.25 1 1.75 2.85 0.7 2.65 2.7 5.35 2 2.65 5.8 6.05" fill="#e95532"/>
  <path d="m189.8 179.35q0.3-6.6 6.8-8.1 1.5 3.6 1.5 8.9 0 4-0.9 9.8-0.5 3.2-1.7 5.65-1.15 2.45-2.45 3.1l-1.65 0.05-0.4-0.35q-1.4-14.65-1.2-19.05" fill="#ca4829"/>
  <path d="m63.3 115.75q2.6-0.85 4.4 0.95 1.85 1.85 6.4 4.95l2.8 1.95q1.65 1.25 2.8 4.4 1.1 3.2 0.5 5-0.45 1.25-1.65 1.25-2.95 0-7.75-1.65-6.3-2.15-11.45-6.05-1.95-1.45-1.65-3.8 0.25-2.15 1.9-4.2 1.7-2.1 3.7-2.8" fill="#0d131a"/>
  <path d="m66.85 117.5q1.8 2.4 3.6 3.5l3 1.6 2.75 1.95q1.4 1 2.4 3.9 0.95 2.8 0.5 4.15l-0.55 0.5q-1.85 0-8.4-2.65-6.8-2.7-10.2-4.9-1.35-0.8-1.1-2.7 0.25-1.8 1.65-3.6 1.45-1.8 3.15-2.4 2.15-0.75 3.2 0.65" fill="#dbd5ca"/>
  <path d="m62.4 117.5q3.65 3.35 7.65 5.15 2.3 1.1 7.1 2.85 1.1 1.55 1.7 3.8 0.65 2.2 0.25 3.3l-0.55 0.5q-1.85 0-8.4-2.65-6.8-2.7-10.2-4.9-1.35-0.8-1.1-2.7 0.2-1.45 1.2-2.95t2.35-2.4" fill="#b3aea6"/>
  <path d="m3.8 59.75q2.05-2.45 8.05-3.8t14.3-1.15q7.45 0.2 18.6 14.15 10 12.55 15.8 26.2 2.4 5.6 3.25 9.95 1.2 6.25-1.1 8.75-4.35 4.75-19.75-1.3-9.85-3.85-19.6-10.05t-9.75-8.6v-18.95q0-0.95-3.85-4.1-2.85-2.35-4.2-3.75-2.1-2.3-2.55-4.25-0.35-1.6 0.8-3.1" fill="#e95532"/>
  <path d="m4.7 60.45q1.85-2.2 7.65-3.4 5.85-1.25 13.8-1.05 6.65 0.15 17.3 13.2 10.1 12.4 16.05 26.4 2.8 6.55 3.4 11.15 0.6 4.55-1.05 6.3-1.85 2.05-6.6 1.65t-11.9-3.2q-9.9-3.9-19.6-10.15-8.95-5.75-8.95-7.45v-18.95q0-0.95-1.25-2.3l-3.05-2.7-3.95-3.55q-2-2.1-2.4-3.85-0.25-1.1 0.55-2.1" fill="#0d131a"/>
  <path d="m6.5 57.7 1.3-0.65-0.5 1.4q-0.75 2.1 1 4.45 1.1 1.4 4.45 4.15 3.05 2.5 4.2 3.9 1.55 1.85 1.9 5.35 0.25 2.15 0.05 7.85-0.3 9.1 0.25 14.25l0.1 1.35-1.05-0.8q-4.6-3.5-4.6-5.05l-0.8-18.85q0.15-0.7-4.45-4.9-4.9-4.45-5.35-7.3-0.45-3.15 3.5-5.15" fill="#0d131a"/>
  <path d="m4.15 62.55-0.05-0.5q0-1.45 1.9-2.7l-0.1 0.45q0 1.9 4.7 6.65l5.5 5.25q1.5 1.9 1.75 6.7l-0.1 5.75q-0.15 2.95-0.15 6.3l0.25 6.75q-3.05-2.5-3.05-3.3v-18.95q0-0.65-5.1-5.75-5.25-5.25-5.55-6.65" fill="#ca4829"/>
  <path d="m8.1 79.7q3.05-1.25 11 3.7 6.65 4.1 14.35 10.95 6.1 5.4 15.25 9.4 8.05 3.5 12.25 3.5 2.7 0 4.2 1.85 1.75 2.2 1.65 6.65-0.05 2.5-0.6 5.15-0.45 1.95-2.55 4.7-2.6 3.4-6.05 5.45-3.7 2.25-9.15 2.95-6.65 0.85-13.85-1.05-12.45-3.25-21.2-16.1-7.25-10.65-8.6-21.6-0.85-6.7-0.45-9.85 0.6-4.4 3.75-5.7" fill="#0d131a"/>
  <path d="m33.4 96.3q6.15 5.45 15.3 9.05 7.7 3.05 12.25 3.05 2.2 0 3.3 1.45 1.3 1.6 1.4 4.95 0.1 2.75-0.6 5.8-0.4 1.75-2.2 4-2.15 2.75-5.4 4.7-8.7 5.35-20.95 2.1-12.9-3.4-21.7-16.6-6.8-10.2-8-19.65-0.8-6.45-0.35-9.05 0.5-3.05 3.05-4.1 2.5-1.05 9.8 3.55 6.6 4.1 14.1 10.75" fill="#dbd5ca"/>
  <path d="m64.85 121.25q-0.65 1.8-2.35 3.8-2.1 2.45-5.05 4.25-8.7 5.35-20.95 2.1-11.95-3.15-20.45-14.8-6.55-9-8.75-18.9 1.35 3.75 6.1 8.85 5.45 5.8 12.6 10 19.15 11.25 38.85 4.7" fill="#b3aea6"/>
  <path d="m12.6 44.35q9.85-5.75 20.2-2.75 24.65 7.15 34.9 40.25 4.55 14.55 3.1 28.5-1.2 12.15-5.6 16.65-1 1.05-2.55 1.65l-2.35 0.25-0.25-0.95q2.85-2.75 0.8-13.3-1.75-9.2-5.2-16.2-0.05-0.15-4.65 0.05-4.5 0.2-5.1-1.55-3.75-12.95-4.75-14.3l-5.5 0.25q-4.9 0.5-5.85-1.1-0.25-0.45-3.35-9.25-2.9-8.2-3.9-9.15-0.95-0.9-6 1.2-3.8 1.6-8.35 4.15-3 1.7-5.25 1.45-3.4-0.4-2.9-5.7 1.45-13.65 12.55-20.15" fill="#0d131a"/>
  <path d="m31.8 43.5q13.3 3.3 23 16.8 7.35 10.25 12.15 25.6 2.95 9.7 2.95 18.65 0 7.6-2 13.8-1.75 5.4-4.4 8l-1.85 1.35q0.65-1.1 1.1-3.1 0.5-2 0.5-3.75 0-5.3-2.15-12.65-1.65-5.85-3.8-10.35-0.9-1.85-5.1-1.45-4.15 0.4-4.85-1.1l-2.5-6.5q-2.2-5.95-2.8-6.85-0.65-1.05-5.45-0.9-4.65 0.2-5.35-1.5l-3.25-8.5q-3.05-7.4-4.75-8.55-1.7-1.2-7.3 0.7-4.4 1.45-7.75 3.35-3.15 1.75-4.7 0.9-0.7-0.35-1.1-1.2-0.3-0.7-0.25-1.25 1.35-12.25 11.9-18.35 9.1-5.25 17.75-3.15" fill="#e95532"/>
  <path d="m57.3 97.85q-0.85-1.8-4.3-1.5 2.35-1.55 3.15-6.65 0.8-5.05-0.1-11.9-2.25-16.15-11.3-28 14.3 10.85 22.2 36.1 2.95 9.7 2.95 18.65 0 7.6-2 13.8-1.75 5.4-4.4 8l-1.85 1.35q0.65-1.1 1.1-3.1 0.5-2 0.5-3.75 0-5.3-2.15-12.65-1.65-5.85-3.8-10.35" fill="#ca4829"/>
  <path d="m85.65 33.8q9.5 9.35 13.3 13.55 1.6 1.8 1.3 4.75-0.25 2.8-2.15 6.1-2.6 4.6-8.1 9.65-5 4.6-6.2 4.35l-0.5-0.15-0.05-0.4q-1.25-9.7-7.9-27.05-2.6-6.75-7.3-17.4-0.95-2-0.85-3.75 0.05-2 1.5-2.85 1.65-1 3.8 0.55l3.2 3 9.95 9.65" fill="#0d131a"/>
  <path d="m84.3 70.85q-0.7-8.5-6.5-25.1-4.75-13.45-7.75-19.25-0.7-1.3-0.75-2.15-0.1-0.95 0.6-1.7 0.65-0.6 2.55 1l1.8 1.7q16.4 15.75 23.35 23.5 1.25 1.35 1.25 3.35 0 1.05-0.4 2.4-1.45 4.55-7 10.25-4.25 4.3-7.15 6" fill="#e95532"/>
  <path d="m98.45 54.6q-0.8 2.6-3.3 5.95-6.7-15.85-16.6-31.05 13.85 13.5 19.05 19.35 1.25 1.35 1.25 3.35 0 1.05-0.4 2.4" fill="#ca4829"/>
  <path d="m92.7 88.85q1.8-2.95 7.1-1.9 10 2.1 25 14.5 15.05 12.4 16 19.35 0.3 2.5-1.55 4.45-5 5.3-25.55 6l-27.65-0.85q-6.55-0.55-8.55-4.8-2.7-5.7 3.4-17.9 3.3-6.55 10.2-16.55l1.6-2.3" fill="#dbd5ca"/>
  <path d="m99.55 88.1q9.5 2 24.35 14.15 14.85 12.2 15.75 18.7 0.2 1.95-1.2 3.5-4.1 4.35-20.35 5.4-13.6 0.9-31.95-0.6-5.95-0.55-7.6-4.15-0.75-1.55-0.75-3.65 0-5.9 5.55-16 3.1-5.65 8.7-13.65l1.6-2.35q1.45-2.25 5.9-1.35" fill="#922f00"/>
  <path d="m103.4 97.1q3.9-1.6 6.7-1.05 4.1 0.85 14.65 10.8 11.7 11.05 11.7 17.45 0 3.15-15.25 4.65l-18.15 0.65q-12.2-0.2-12.7-2.65-1.75-9.15 0.85-16.7 1.8-5.15 5.15-8.5 3-3 7.05-4.65" fill="#0d131a"/>
  <path d="m109.85 97.2q3.4 0.7 13.85 10.4 11.6 10.8 11.6 16.7 0 0.75-2.9 1.6-3.85 1.15-11.35 1.9l-20.5 0.6q-8.8-0.45-9.05-1.7-1.7-8.7 1.3-16.1 1.95-4.8 5.45-8.3 2.8-2.8 5.95-4.2 3.2-1.4 5.65-0.9" fill="#ed8599"/>
  <path d="m78.75 137.8q-1.1-5.5-0.15-8 1.3-3.5 4.7-6.4 3.55-3 8.3-4.45 11.5-3.4 27.5 0.05 15.6 3.3 26 11 7.65 5.6 11.8 11.7t3.9 11.25-3.1 9.8q-2.85 4.7-7.95 8.3-7.6 5.45-17.3 7.2-10.05 1.85-19.4-0.85-11.2-3.25-20.65-13.95-5.8-6.55-9.65-14.2-2.8-5.7-4-11.45" fill="#0d131a"/>
  <path d="m79.7 130.2q2.35-6.3 11.8-9.15 11.5-3.4 27.2-0.45 15.7 2.9 25.7 10.3 7.3 5.4 11.4 11.3t3.85 10.7q-0.2 4.85-2.95 9.3t-7.6 7.9q-7.2 5.15-16.8 6.6-9.55 1.4-18.85-1.25-10.9-3.15-20.05-13.7-5.65-6.45-9.35-13.95-2.8-5.55-4-10.45-1.2-4.95-0.35-7.15" fill="#dbd5ca"/>
  <path d="m148.85 134.5q5.3 4.75 8.1 9.55 2.9 4.85 2.7 8.85-0.2 4.85-2.95 9.3t-7.6 7.9q-7.2 5.15-16.8 6.6-9.55 1.4-18.85-1.25l-5-1.9q2.85 1.15 8.8 0.75 7.55-0.5 13.9-3.7 18.4-9.3 17.7-36.1" fill="#b3aea6"/>
  <g fill="#0d131a">
   <path d="m145.5 135.05 1 0.6q-5.1 8.65-15.25 16-9.7 7-17.85 8.5-6.7 1.25-16.45-2-8.2-2.75-11.7-5.75l0.75-0.9q3.05 2.65 10.8 5.15 9.45 3.1 16.2 1.85 8.05-1.5 17.5-8.05 10.05-7 15-15.4"/>
   <path d="m79.95 130.15 0.6-1q3.9 2.45 10.15 4.8 6.9 2.55 11.05 2.7 5.6 0.25 15.15-4.1 9.05-4.15 15-9.2l0.75 0.9q-6.35 5.4-15.25 9.7-9.7 4.65-15.55 4.45-4.2-0.15-11.45-3.1-6.2-2.5-10.45-5.15"/>
   <path d="m168.25 105.3q8.4 18 4.65 34.35-2.25 9.7-8.35 17.45-3.7 4.65-6.1 4.6-2.65-0.2-6.75-6.75l-7.95-11.95q-7.45-10.7-13.4-18.1l-0.65-0.85q-10.2-12.6-15.6-18.2-9.8-10.1-15.85-11.4-4.5-0.95-9.75 9.8-3.65 7.4-5.6 14.95-1.35 5.25-1 14.15 0.15 3.3 1.05 12.8l-0.05 1-0.3-0.05q-3.3-3.05-6.25-11.7-3.15-9.25-3.6-18.7-0.4-8.65 1.05-19.65 1.45-11.1 4.4-21.2 3-10.45 8.3-18.35 7.7-11.45 18.05-13.35 7.25-1.35 12.85-0.25 7.25 1.45 14.6 7.25 9.05 7.15 17.75 20.1 8.8 13.1 18.5 34.05"/>
  </g>
  <path d="m172.15 137.1q-1.85 9.5-9.05 18.6-3.1 3.9-4.85 3.75-1.05-0.05-2.3-1.45-1.05-1.15-2.75-3.85-10.65-16.5-22-31.35-22.5-29.3-32.7-30.85-5.7-0.85-11.25 9.95-4.1 7.9-6 16.5-2.55 11.65 0.35 25.9v0.05q-6.05-9.25-6.55-29.45-0.5-21.3 5.85-40.35 3.75-11.25 7.45-17.05 6.65-10.35 16.4-12.2 6.7-1.25 12.05 0.05 6.55 1.6 13.8 7.3 10.6 8.35 19.55 22.05 7.45 11.5 17.1 32.35 7.6 16.3 4.9 30.05" fill="#e95532"/>
  <path d="m167.25 107.05q7.6 16.3 4.9 30.05-1.85 9.5-9.05 18.6-3.1 3.9-4.85 3.75l-0.4-0.05q5.2-9.75 2.4-26.4-2.7-15.75-11.25-31.25-8.85-16.1-20.15-24.65-12.6-9.5-24.4-6.45-4.05-11.25-5.55-14.2-2.75-5.25-5.9-4.75 5.05-5.15 11.75-6.4t12.05 0.05q6.55 1.6 13.8 7.3 10.6 8.35 19.55 22.05 7.45 11.5 17.1 32.35" fill="#ca4829"/>
  <path d="m124.15 46.5 0.7 0.75 0.05 0.55q-0.1 0.6-1 0.7-5.4 1.1-12.45 11.35-2.65 3.9-7.2 12.3l-2.4 3.85q-1.2 1.55-2.2 1.4-1.25-0.2-2.4-2.55-1.1-2.35-1.65-5.7-1.75-11.15-1.95-31.45-0.25-21.05 1.55-30.6l1.1-4.6q0.8-2.35 1.75-2.45 1.2-0.15 2.3 0.8 1.4 1.15 2.2 3.85 2.15 7.15 7.6 19 7.7 16.8 14 22.8" fill="#0d131a"/>
  <path d="m123.15 47.5q-4.85 0.25-12.2 11.05-2.85 4.15-7.7 13-2.15 3.95-3.45 3.6-0.55-0.05-1.1-1.05-0.9-1.55-1.45-5-1.05-6.45-1.45-26.9-0.45-23.8 1.3-34.95 0.15-1.15 0.65-2.05 0.55-0.95 1.2-1 1-0.15 1.75 1.75l0.4 1.05 4.45 12.15q1.95 5.8 7.25 14.9 6.15 10.6 10.3 13.4l0.05 0.05" fill="#e95532"/>
  <path d="m123.1 47.45 0.05 0.05q-7.1 0.4-19.55 23.35-0.8-12.25-1.25-21.25-0.75-16.95 0.55-30.25 0.45-4.5 1.55-2.9 0.55 0.8 1.1 2.7 1.95 5.8 7.25 14.9 6.15 10.6 10.3 13.4" fill="#ca4829"/>
  <path d="m149 20.25q2.85-2.5 4.25-3.35 2.25-1.4 3.2-0.65 0.95 0.7 0.6 2.45l-1.3 3.6q-1.3 3.1-8.7 17.05-8.35 15.8-12.35 22-1.15 1.75-3.65 2.3-2.65 0.55-4.8-0.8-4-2.45-5.3-6.1-1.7-4.55 1.45-9.75 2.65-4.3 13.8-15 6.55-6.3 12.8-11.75" fill="#0d131a"/>
  <path d="m145 39.05q-8.2 15.8-12.15 21.95-0.9 1.4-2.7 1.35-1.6 0-3.25-1.05-2.95-1.8-4-5.25-1.35-4.25 1.35-8.75 1.65-2.85 8.95-10.25 8.85-8.95 18.45-16.5 2.05-1.65 2.75-1.65l0.05 0.25q0 0.85-0.9 2.9l-8.55 17" fill="#e95532"/>
  <path d="m135.9 49.05q8.85-11.15 14.2-19.9-11.6 23.1-17.25 31.85-0.9 1.4-2.7 1.35-1.6 0-3.25-1.05l-0.85-0.6q3-3 9.85-11.65" fill="#ca4829"/>
  <path d="m86.8 66.25q1.45 0 2.45 1.3 1.65 2.25 1.8 6.1 0.15 4.5-1.8 10.35-3.5 10.4-8.1 12.6-3.7 1.8-6.05-1.95-1.45-2.35-1.5-7.5-0.05-4.8 1.15-8.7 1.4-4.65 5.2-8.45 3.75-3.75 6.85-3.75" fill="#0d131a"/>
  <path d="m83.7 92.1q-3 3.9-6 3.25-0.75-0.15-1.25-1.1-1.3-2.2-1.25-7.1 0-4.65 1.1-8.3 1.4-4.55 4.8-8.1 3.2-3.35 5.7-3.35 0.9 0 1.5 0.85 1.3 1.75 1.25 6t-1.5 8.8q-1.75 5.6-4.35 9.05" fill="#fff"/>
  <path d="m119.05 92.5q-2.1-3.2-3.3-7.6-2.15-7.85-0.7-13.65 1.45-5.75 5.9-7 4.7-1.3 10.3 2.95 6.05 4.55 8.2 12.3 3.4 12.05-2.15 17.35-5.25 5-13.5 0.3-2.65-1.45-4.75-4.65" fill="#0d131a"/>
  <path d="m121.25 65.4q4.2-1.15 8.95 2.8 5.05 4.15 7 11.2 1.3 4.7 1.3 8.65 0 3.9-1.35 6.35-1.4 2.45-4.05 3.15-3.5 1-7.7-1.35-3-1.75-5.25-4.75-2.25-3.05-3.3-6.9-2-7.35-0.8-12.7 1.25-5.35 5.2-6.45" fill="#fff"/>
  <path d="m165.05 98.85q0.95-1.55 2.35-2.05l3.05 0.05q2.8 1.1 5.15 4.45 2.6 3.7 2 7.05-1 5.65-4.95 9.9-3.9 4.3-10.05 6.45-4.7 1.7-7.35-1.15-3-3.15 0.35-9.75 2.3-4.45 6.1-10.15 1.9-2.85 3.35-4.8" fill="#0d131a"/>
  <path d="m169.8 117.3q-3.95 4.25-8.6 5.35-5.1 1.2-5.3-2.9-0.2-3.3 2-6.7l8.15-13.6q1.5-2.4 3.95-1.5 2.3 0.9 3.85 3.75 1.6 3 1.05 6.05-0.95 5.2-5.1 9.55" fill="#dbd5ca"/>
  <path d="m163.95 112.2q5.95-5.55 9.9-10.5 1.65 3 1.05 6.05-0.95 5.2-5.1 9.55-3.95 4.25-8.6 5.35-3.25 0.75-4.55-0.7-1.05-1.2-0.7-3.75 1.9-0.35 8-6" fill="#b3aea6"/>
  <path d="m207.6 30.1q8.05-0.45 13.75 4.7 7.65 6.95 7.4 20.3-0.25 16.05-12.55 35.75-4.65 7.4-13.8 14.4-11.2 8.65-20.7 8.8-9.75 0.25-15.95-9-10.15-15 4.05-40.6 5-9.1 12.2-17.8 5.95-7.15 9.7-10.05 7.8-6 15.9-6.5" fill="#dbd5ca"/>
  <path d="m220.55 35.7q7.35 6.65 7.05 19.65-0.35 15.6-12.4 34.85-4.2 6.75-13.05 13.75-11.2 8.8-20.45 8.95-9.15 0.15-15-8.5-9.85-14.6 4.15-39.65 4.95-8.85 12.05-17.4 5.8-7 9.5-9.85 7.4-5.75 15.1-6.2 7.7-0.5 13.05 4.4" fill="#0d131a"/>
  <path d="m172.55 79.15q7-10.65 17.5-16.9 8.85-5.3 18.5-6.6 10.2-1.35 15.3 4.1 4.45 4.75 4.55 13.9 0.1 8.15-3.15 17.25-3.1 8.75-7.75 14.15-7.8 9.05-16.4 13.75-8.1 4.35-17.65 5.3l-8.1-0.4q-3.85-0.9-6.3-3.1-7.45-6.6-6.75-16.6 0.75-10.35 10.25-24.85" fill="#0d131a"/>
  <path d="m194.7 61.5q8.65-4.45 16.95-3.9 15.65 1.05 14.1 18.95-0.65 7.05-3.95 15.05-3.05 7.4-7.05 12.65-4.8 6.3-13.45 11.35-9.3 5.4-17.95 6.25-8.05 0.85-12.75-3.4-6.85-6.05-5.9-17.25 0.95-11 8.8-21.05 10.25-13.05 21.2-18.65" fill="#dbd5ca"/>
  <path d="m215.8 58.25q12.1 3.35 9.7 20.25-2 14.3-10.75 25.75-4.8 6.3-13.45 11.35-9.3 5.4-17.95 6.25-6.8 0.7-11.25-2.25 6.45 1.05 15.05-4.4 8.25-5.25 15.5-14.55 7.6-9.8 11.15-20.45 4-11.85 2-21.95" fill="#b3aea6"/>
  <path d="m211.75 23.15q5.7 0.05 10 2.15 10.2 5.05 11 22.05 0.3 6.95-1.4 13.05-1.7 6.2-4.75 8.8l-1.55-2.65q0.35-16-0.75-18.7l-3.05 2.65q-3.2 2.3-5.1 1.85-2.25-0.6-7.15-5.7l-4.25-4.35q-2.3-2.1-3.6-1.8-0.55 0.15-4.1 8.3-3.65 8.4-5.2 9.45-1.8 1.2-5 0.5-1.3-0.3-4.15-1.4l-0.1-0.05-3.45 8.8q-3.3 8.35-4.1 8.95-0.7 0.5-2-0.25l-1.75-0.95q-0.8-0.1-3.5 11.6-2.9 12.55-2.9 19.8 0 2.25 0.6 6.2 0.35 2.15-0.7 1.8-0.95-0.3-1.6-1.4-3.15-5.35-4.2-14.95-1.15-10.1 0.7-19.3 3.05-15.15 10.95-27.6 11.35-17.9 30.1-24.9 5.35-2 11-1.95" fill="#0d131a"/>
  <path d="m205.4 41.05q-2.7-2.05-4.5-1.65-1.25 0.3-2.75 2.85l-3.4 7q-3.3 7.45-4.35 7.95l-4.2-0.1-4.45-1.65q-2.4-0.95-3.3-0.7-1 0.3 2.4 2.4l-2.8 7.6-3.45 8.3q-0.2 0.35-1.6-0.25l-2.65-1.3q-2.3-0.95-2.1-0.15 0.2 0.75 1.8 1.7-2.7 3.45-4.95 14.1-2.35 11.1-1.6 18.6 0.15 1.7-0.05 1.85-0.2 0.25-0.85-1.95-1.45-5.15-1.75-10.8-0.4-7.15 0.75-16.75 1.55-12.65 10.2-26.05 11.5-17.95 29.95-24.85 5.05-1.85 10-1.65t8.95 2.4q8.4 4.6 9.75 18.65 1.15 11.95-2.3 18.35-0.75 1.4-1.15 0.1l-0.25-1.55 0.05-1.7-0.3-8.65q-0.3-4.35-0.8-5.95 1.55-2.4 0.95-2.4-0.5-0.05-2.45 1.65-5.35 4.8-8.15 4.05-1.35-0.35-5.7-4.8-3.3-3.4-4.95-4.65" fill="#e95532"/>
  <path d="m225.7 47.2q1.55-2.4 0.95-2.4-0.5-0.05-2.45 1.65-5.05 4.5-7.8 4.1 8-3.65 8.85-18.7 5.1 6.4 5.4 18 0.25 10-2.5 15.1-0.75 1.4-1.15 0.1l-0.25-1.55 0.05-1.7-0.3-8.65q-0.3-4.35-0.8-5.95" fill="#ca4829"/>
  <path d="m142.55 149.4q9.3 1.5 12.25 14.95 1.55 7.35 0.35 14.4-0.9 5.1-4 12.6-1.2 2.9-3.25 4.55-1.7 1.35-2.9 1.2-1.55-0.2-2.65-2.25-0.7-1.35-1.95-5.2l-3-8.75-3.3-9.45q-1.05-3.2 0.8-6.8 2.3-3.45 2.65-4.5 0.3-3.95 0.8-6.45 0.95-4.8 4.2-4.3" fill="#0d131a"/>
  <path d="m152.85 164.9q1.65 6.6-0.35 15.85-1.65 7.9-4.25 11.75-1.65 2.55-2.8 2.4-1-0.15-2.1-2.35l-1.65-4.2-5.1-15.75q-1.15-3.45-0.6-5.9 0.35-1.4 1.7-3.4 1.25-1.7 1.4-2.85 0.6-5.35 1.2-7.05 0.65-1.9 2.1-1.8 3.95 0.25 6.35 3.35 2.4 3.05 4.1 9.95" fill="#e95532"/>
  <path d="m145.25 169.85q0.35-3.05 3.15-3.45 3.85-0.5 4.55-1.15 1.5 6.55-0.45 15.65-1.7 7.8-4.25 11.6-1.65 2.55-2.8 2.4-0.6-0.05-1.4-1.1 1.7-2.05 1.45-11.3l-0.25-12.65" fill="#ca4829"/>
  <path d="m81.85 79.85s-0.34678 1.1415-0.75 1.55c-0.26181 0.26523-0.67608 0.68429-1 0.5-0.79884-0.4545-0.3922-1.8512-0.2-2.75 0.10292-0.48128 0.36427-0.94013 0.7-1.3 0.25549-0.27386 0.58312-0.67536 0.95-0.6 0.31699 0.06511 0.47555 0.48507 0.55 0.8 0.13936 0.58951-0.25 1.8-0.25 1.8" fill="#0d131a"/>
  <path d="m130.6 78.9q0.6 2.25-0.6 2.55-0.55 0.15-1.15-0.45-0.65-0.65-0.9-1.65-0.75-2.65 0.2-2.85 0.55-0.2 1.4 0.6 0.8 0.8 1.05 1.8" fill="#0d131a"/>
 </g>
</svg>
