<?xml version="1.0" encoding="UTF-8"?>
<svg version="1.1" viewBox="0 0 317.51 334.42" xmlns="http://www.w3.org/2000/svg">
 <g transform="translate(-.01087 .022222)">
  <path d="m133.8 316.6-8.1 6.9q-8.55 7-10.65 7.45-2.2 0.45-5.45-9.7-2.5-7.85-3.95-15.75l28.15 11.1" fill="#595757"/>
  <path d="m133.8 316.6-4 3.5-8.15 6.65q-0.1-5.1-5.15-9.9-2.05-1.9-10.05-7.55l-0.8-3.8 28.15 11.1" fill="#3e3a39"/>
  <path d="m226.75 281.45q0.95 2.3 1.1 14.05 0.15 11.2-0.4 14.05-0.5 2.35-9.65 0.15-8.6-2.05-13.1-4.85l22.05-23.4" fill="#3e3a39"/>
  <path d="m89.65 227.95q5.6 5.85 8.6 15.3 4.4 14.1-0.15 30.15-4.75 16.75-22.8 22.8-5.85 1.95-13.1 2.7l-8.05 0.65q-3.4 0.4-9.3 6.95l-7.8 9.5q-2.25 2.65-7.65-0.8-4.2-2.7-7.95-7.1-0.9-1.05 1.55-5.5 3.55-6.5 4.65-10 1.6-4.95 1.5-8.85-0.15-4.9-2.7-12.35-2.95-8.6-0.95-18.95 2.55-13.45 13.2-23.9 11.2-11 28.25-9.75 7 0.55 13.3 3.15 5.95 2.45 9.4 6" fill="#595757"/>
  <path d="m89.65 227.95q5.6 5.85 8.6 15.3 4.4 14.1-0.15 30.15-4.75 16.75-22.8 22.8-5.85 1.95-13.1 2.7l-8.05 0.65q-3.4 0.4-9.3 6.95l-7.8 9.5q-1.45 1.7-4.45 0.8 1.95-4.9 9.05-14 7.55-9.6 16.4-18 13.85-13.1 10.85-31.55-3-18.65-21.5-30.9 10.9-5.35 24.2-2.95 11.85 2.2 18.05 8.55" fill="#3e3a39"/>
  <path d="m156.2 172.45q31.8 0 54.1 21.85 21.95 21.45 23.5 52.65 0.75 15.15-5.05 28.6-5.55 13.1-16.5 22.95-23.1 20.8-58.3 20.35-32.5-0.45-52.95-19.05-20.8-19-20.8-49.5 0-15.2 5.85-29.5 5.7-13.95 16.1-24.85 10.5-11.05 24.1-17.1 14.3-6.4 29.95-6.4" fill="#595757"/>
  <path d="m112.55 186.85q19.65-14.4 43.65-14.4 31.8 0 54.1 21.85 21.95 21.45 23.5 52.65 1.4 28.9-19.2 49.3-20.5 20.3-52.8 22.35 19.75-5.95 24.55-23.05 4.55-16.25-6.25-34.05-11.4-18.9-34.5-29.55-26.3-12.1-60.25-9.3 8.4-22.05 27.2-35.8" fill="#3e3a39"/>
  <path d="m149.9 257.1q-3.55-12.25-0.25-23.9 4.1-14.5 16.4-21.85 12.05-7.2 25-3.6 12.85 3.55 19.35 16.75 6.55 13.3 2.45 27.95-2.95 10.4-11.15 18-7.7 7.15-17.2 9.2-1.2 0.25-4.3 4.85-3.5 5.2-5.7 11.05-0.8 2.2-6.7 1.1-5.9-1.05-6.05-3.1l0.95-9.7q0.65-7.35-1-8.6-8.25-6.15-11.8-18.15m38.1-37.8q-8.3-2.4-16.05 2.95-7.75 5.3-10.45 15.25-2.65 9.95 1.3 18.65 3.9 8.7 12.2 11.1t16.05-2.95q7.75-5.3 10.4-15.25 2.7-9.95-1.25-18.65-3.9-8.7-12.2-11.1" fill="#fff"/>
  <path d="m191.8 246.5q-1.4 5.6-5.4 8.6t-8.25 1.65-6.3-6.25-0.65-10.45q1.4-5.6 5.4-8.6t8.25-1.65 6.3 6.25 0.65 10.45" fill="#dcc552"/>
  <path d="m87.3 221.15q10.9-5 22.8 1.1 12.15 6.2 17.6 20.15 3.35 8.55 2.35 20.35-0.9 11.3-4.75 16.7-1.2 1.7 1.85 8.35 3.15 6.9 3.05 7.3-0.75 2.7-4.65 4.35-3.95 1.7-6.5 0.15l-5.15-5.95q-4.05-4.85-6.05-4.35-5.35 1.35-10.55-0.35-3.65-1.15-8.7-4.55-7.4-11.25-8.6-28.3-1.4-19.65 7.3-34.95" fill="#fff"/>
  <path d="m82.3 244.4q2.1-9.4 8.95-12.7 6.95-3.3 14.75 1.35 7.75 4.7 11.4 14.25t1.3 18.6q-2.3 9.1-9.25 12.4-6.95 3.35-14.4-1.05t-11.1-13.95q-3.7-9.7-1.65-18.9" fill="#595757"/>
  <path d="m96 242.3q3.55-1.8 7.45 0.7 3.9 2.55 5.8 7.9 1.95 5.35 0.8 10.45t-4.7 6.9q-3.55 1.85-7.45-0.7-3.9-2.5-5.85-7.9-1.9-5.35-0.75-10.45 1.15-5.05 4.7-6.9" fill="#ffe45f"/>
  <path d="m231 184.65q5.65-4.55 12.9-7.4 17.65-7 31.75-0.05 13.25 6.5 19.15 18.3 4.2 8.45 4.1 18.05-0.05 7.9 1.35 12.55 1.1 3.75 4.2 7.95 2.15 2.95 7.6 8.05 3.65 3.45 3.15 4.75-2.2 5.35-5.3 9.2-4.05 5-7 3.15-5.7-3.9-9.3-6-6.6-3.8-9.95-3.15-15.25 3-23.7 2.75-21.75-0.7-32.5-14.9-15.65-20.7-4.1-44.45 2.15-4.4 7.65-8.8" fill="#595757"/>
  <path d="m304.45 234.05 7.55 7.4q3.8 3.9 3.2 5.4-2.2 5.35-5.3 9.2-4.05 5-7 3.15-5.7-3.9-9.3-6-6.6-3.8-9.95-3.15-15.25 3-23.7 2.75-21.75-0.7-32.5-14.9-9.35-12.4-9-26.2 1.3 6 6.85 12.1 5.6 6.15 13.55 10.3 19 9.9 36.25 2.35 3.75-1.65 10-0.85 2.7 0.35 10.45 2.2 5.7 1.35 7.55 0.9 2.65-0.6 1.35-4.65" fill="#3e3a39"/>
  <path d="m160.45 239.85-11.1-5.85q1.8-9.15 9.15-17.2 11.35-12.4 29.2-9.75 18.05 2.65 24.2 20 2.2 6.25 2.45 13.45 0.15 5.9-0.9 9.6-2.6 9.1-6.35 14.25-6.55 8.95-20 14.7-1.1-5.1-2.4-8.9l-1.1-2.8q4.25-0.7 8.65-3.65 8.85-5.85 9.8-16.85 0.9-11.15-3.2-18.6-4.2-7.7-12.65-9.2t-16.7 5.25q-8.15 6.65-9.05 15.55" fill="#dbdcdc"/>
  <g fill="#0d131a">
   <path d="m122.65 324.6 10.45-8.8 1.4 1.6-9.4 9.1q-7.9 7.4-10.05 7.85-0.75 0.2-1.7-0.4-2.5-1.7-5.8-14.45-1.75-6.85-3.45-15.8l2.6 1.65q1.5 8.05 4.05 15.95 2.65 8.2 4.1 8.6 1.55-0.35 7.8-5.3"/>
   <path d="m225.75 281.85 2.05-2.05q1.05 2.65 1.9 15.7 0.85 12.8 0.3 15.5-0.2 1.05-1.4 1.6-2.8 1.2-12.05-1.7-8.4-2.6-12.45-5.15l1.15-1.8q4.1 2.6 12.1 4.5 7.7 1.8 9.05 0.85 1.15-0.85 0.6-13.55-0.55-12.2-1.25-13.9"/>
   <path d="m86.05 223.35-1.4 2.45q-3.95-2.45-8.9-3.95-5.6-1.7-11.45-1.75-15.55-0.1-25 9.15-7.15 7.05-10.45 16.05-2.65 7.15-2.65 15.05 0 5.85 1.6 10.55 2.8 8.05 2.8 13.4 0 3.8-1.55 8.7l-3.7 8.15q-2.8 5.65-2.8 6.05 0 0.9 5.45 4.85 5.55 4.05 6.75 3.35l8.5-8.8q7.9-8.1 10.7-8.45l2.5-0.2q8.8-0.5 14.75-2 10.7-2.7 17.2-8.95l1.85 3.7q-7.1 5.85-18.3 8.25l-14 1.65-3.65 0.35q-2.45 0.3-9.5 7.6l-7.55 8.3-1.9 1.45q-0.95 0.35-2.35 0-1.5-0.35-5.95-3.3-4.55-3.05-6-4.75-1.1-1.35-1.35-2.25-0.25-1.2 0.55-2.75l3.05-6.1q2.3-4.7 3-7 1.55-4.8 1.45-8.65-0.15-4.55-2.6-11.65-3.55-10.25-2.05-20.6 1.95-13.45 12.35-23.65 5.85-5.8 15-8.45 6.75-1.95 13.85-1.9 5.85 0.1 11.65 1.7 5.7 1.65 10.1 4.4"/>
   <path d="m81.15 270.65q2.65 5.75 2.9 12.85 0.2 5.8-1.05 8.95l-1.6 1.1q1.1-2.75 1-8.2-0.1-7-2.65-12.6-5.95-12.95-22.05-18.5-6.05-2.1-12.25-1.7-5.9 0.3-10.8 2.75-3.3 1.6-5.8 4.3-2.5 2.65-3.45 5.5l-0.7-1.45q1-3.1 3.55-5.8 2.5-2.65 6.05-4.45 5.3-2.6 11.5-3 6.65-0.45 12.9 1.7 16.6 5.7 22.45 18.55"/>
   <path d="m186.1 176.35q14.45 5.45 25.25 16.05 2.5 2.4 8.45 9.55l-0.95 3.6q-10.8-13.75-27.35-22.45-17.5-9.2-35.3-9.2-14.85 0-28.7 6.1-13.35 5.9-23.75 16.6-10.4 10.65-16.15 24.3-6 14.15-6 29.4 0 29.65 19.95 48.2 19.95 18.5 52.4 18.9 18.05 0.25 33.95-5.85 15.9-6.05 26.8-17.4 9.2-9.6 13.75-21.7 4.6-12.2 3.9-25.45l-0.25-3.55 4.15 2.2 0.2 0.7q0.7 13.85-3.95 26.4-4.65 12.6-14.25 22.5-11.5 11.95-28.3 18.75-17.25 6.95-35.65 6.7-33.85-0.45-55.15-19.8-21.4-19.45-21.4-50.25 0-14.95 6.35-29.85 6.15-14.45 17-25.8 11.05-11.6 25.3-17.75 14.2-6.2 29.8-6.2 15.95 0 29.9 5.3"/>
   <path d="m150.35 233.4q-3.2 11.3 0.2 23.25 3.4 12 11.55 18.05 1.4 1 1.45 4.75 0.05 2.7-0.65 8.65-0.5 4.45-0.4 5.4 0 0.6 1.7 1.35 1.9 0.85 4.45 1.25 2.15 0.3 3.65 0.05 1.35-0.25 1.55-0.85 2.15-5.85 5.7-11.1 3.25-4.85 4.8-5.2 9.7-2.15 17.35-9.5 7.7-7.4 10.45-17.25 2.1-7.4 1.25-15-0.9-7.65-4.55-14.15-3.1-5.55-7.75-9.35-4.65-3.75-10.2-5.35-12.85-3.55-24.75 3.75-11.9 7.35-15.8 21.25m10.1 60.3 0.95-8.95q0.8-8.2-0.15-8.9-8.6-6.45-12.6-18.85-4.05-12.65-0.8-24.2 4.05-14.45 16.9-22.35 12.8-7.85 26.2-4.1 15.45 4.3 22.15 17.7 6.5 13.05 2 29.05-2.9 10.4-11.4 18.1-8.7 7.85-19.05 9.15-1.05 0.4-3.8 4.8-3.15 5.15-5.3 10.9-0.55 1.5-3.15 1.9-1.85 0.3-3.85 0-2.45-0.35-4.9-1.4-3.05-1.35-3.2-2.85"/>
   <path d="m199.6 230.75q-3.8-8.45-11.8-10.75-3.4-1-6.95-0.5-3.55 0.45-6.85 2.3-4.2 2.35-7.3 6.55-3.05 4.15-4.5 9.35-2.6 9.65 1.2 18.1t11.8 10.75q7.05 2.05 13.75-1.8 4.25-2.35 7.35-6.5 3.05-4.2 4.5-9.4 2.6-9.65-1.2-18.1m-37.85 25.95q-4.4-9.3-1.65-19.45 3.15-11.65 12.4-17 8.1-4.65 16-2.4 8.5 2.45 12.7 12 4.2 9.45 1.4 19.7-3.05 11.25-11.8 16.5-7.95 4.75-16.1 2.4-8.6-2.5-12.95-11.75"/>
   <path d="m170 239.9q1.6-6.4 6.8-9.65 4.65-2.85 8.45-1.65 5.2 1.65 7.4 7.3 2.05 5.2 0.6 11-1.6 6.5-6.85 9.6-4.55 2.7-8.45 1.5-4.55-1.45-6.95-6.85-2.45-5.45-1-11.25m4.25-5.05q-1.65 2.35-2.35 5.35-1.35 5.3 0.55 9.95t5.9 5.9q3.2 1.05 6.45-0.75 2.25-1.3 3.9-3.6 1.65-2.35 2.4-5.35 1.3-5.3-0.6-9.95t-5.85-5.9q-3.2-1.05-6.5 0.75-2.25 1.3-3.9 3.6"/>
   <path d="m104.2 221.25q-6.45-1.8-11.9-0.8-5.3 1-6.95 4.1l1.35-3.75 0.3-0.3q2.4-2.65 7.9-3.1 5.65-0.45 11.95 1.75 15.8 5.6 22.3 22.2 3.9 10 2.65 21.75-1.15 10.8-5.75 17.25-0.65 0.9 2.3 7.8l2.95 7.3q-0.45 1.5-1.8 2.9-1.5 1.5-3.45 2.25-4.6 1.75-6.75 0.45l-5.3-5.9q-4.9-5.4-6-5.15-5.3 1.35-9.9 0.2-4.15-1-8.2-4.15l-0.05-1.7q4.6 3 8.05 4.05 4.8 1.45 9.8 0.2 1.75-0.45 4.3 1.9l4.4 5.1 3 3.4q2.15 1.25 5.65-0.1l2.95-1.75q1.2-1.1 1.55-2.2 0-0.6-1.85-4.3-2.3-4.7-3-7-1-3.2 0-4.6 3.8-5.3 4.7-16.4 0.9-11.65-2.35-20-6.6-16.8-22.85-21.4"/>
   <path d="m111 238.15q-3.7-4.05-8.15-5.85-6.05-2.4-11.3 0.05-6.5 3.1-8.55 12.1t1.6 18.55q2 5.35 5.5 9.25 3.5 3.85 7.8 5.6 5.95 2.4 11.25-0.15 6.65-3.2 8.9-12.05t-1.3-18.1q-2.05-5.35-5.75-9.4m-20.3-7.5q6.8-3.2 14.8 0.75 8.95 4.4 13.15 15.45 3.8 9.85 1.5 19.4-2.35 9.65-9.5 13.05-7.35 3.55-15-0.1-8.45-4.05-12.75-15.25-4.15-10.9-1.35-20.9 2.6-9.25 9.15-12.4"/>
   <path d="m105.65 245.9c-1.2667-1.5-2.5037-2.5792-4.15-3.1-1.6533-0.52298-3.6838-0.69152-5.2 0.15-2.2916 1.2719-3.65 3.3167-4.35 6.55-0.7 3.2-0.43333 6.5167 0.8 9.95 0.73333 2 1.7167 3.7333 2.95 5.2 1.2667 1.5 2.5037 2.5795 4.15 3.1 1.6375 0.51773 3.6448 0.67701 5.15-0.15 2.2931-1.2599 3.7-3.3 4.4-6.5 0.7-3.2333 0.43333-6.55-0.8-9.95-0.73333-2.0333-1.7167-3.7833-2.95-5.25m-10.25-4.8c2.6-1.3333 5.2333-1.2 7.9 0.4 2.8333 1.7 5.05 4.75 6.65 9.15 1.3667 3.8 1.6667 7.5167 0.9 11.15-0.76667 3.6667-2.4 6.15-4.9 7.45-2.6667 1.3333-5.35 1.3-8.05-0.1-3-1.5333-5.2667-4.45-6.8-8.75-1.5333-4.1667-1.7-8.2833-0.5-12.35 1.0333-3.5667 2.6333-5.8833 4.8-6.95"/>
   <path d="m275.05 178.45q-6.1-3-14.3-3.3-8.2-0.35-14.65 2.25-14 5.65-20.65 16.95-4.85 8.35-5.05 18.05-0.15 7.75 2 14 2.4 6.85 7.85 12.7 8.25 8.85 22.15 11.4 13.55 2.45 29.6-1.5l2.85-0.5q1.2-0.05 3.05 0.55 3.2 1.1 13.15 8.05 3.3 2.3 7.95-2.5 4.25-4.45 4.65-8.35 0.15-1.05-4.2-5.2-5.35-5.05-6.15-6.15-3.15-4.3-4.35-8.25-1.45-4.65-1.45-12.1v-1.45q0-8.7-3.7-16.4-5.6-11.75-18.75-18.25m-30.3-4.25q7.8-3 17-2.4 8.5 0.55 15.4 3.95 14.3 7 19.85 20.05 3.4 7.95 3.35 17.75-0.1 7.5 1.15 11.85 1.1 3.7 4.1 7.8 2.25 3.05 6.7 7.2l3.95 3.55q1.65 1.85 1.15 3.95-0.65 2.95-3.8 7-3.7 4.75-7.55 5.95-2.35 0.75-5.25-1.25-13.35-8.8-16.85-8.15l-1.35 0.3q-40.6 9-56.75-12.35-4.35-5.75-6.65-14.2-2.6-9.45-1.5-18.55 2.75-23.25 27.05-32.45"/>
   <path d="m298.2 205.6 0.25 1.65q-0.95-1.3-4.1-2.85-3.95-1.9-8.5-2.55-13.2-1.9-25.05 7.5-12.55 9.95-12.8 26.6-0.1 5.75 1.3 11.2 1.1 4.35 2.2 5.65l-1.75-0.95q-1.3-0.55-2.8-5.1-1.75-5.3-1.75-11.35-0.05-17.5 14.25-28.95 7.7-6.15 19.25-6.95 12.6-0.85 19.5 6.1"/>
  </g>
  <path d="m199.45 196.65q-22.05 11.25-47 16.35-25.05 5.15-48.55 3.85-22.95-1.25-41.55-8.45-18.8-7.25-30.7-19.6-12.4-12.8-15.9-29.55-6.05-28.85 10.7-55.3 17.45-27.6 54.65-44 4.75-2.05 7.9-13.8 3.55-13.45 1.7-30.3-0.35-3.35 6.15-7.95 6.05-4.35 11.6-5.6 5.5-1.2 11.85-0.05 7.05 1.25 8.45 4.7 6.55 16.45 15.25 26.65 7.8 9.15 13.1 8.85 41.3-2.15 68.25 12.05 30.2 15.9 37.15 50.2 3.4 16.75-3.8 34.2-6.85 16.75-22.4 31.85-15.4 15-36.85 25.9" fill="#595757"/>
  <path d="m210.25 93.65q0.1-7.1-6.35-14.8-15.8-18.95-58.2-29.45-6.2-1.5-13.05-15.7-8.5-19.8-14.1-31.75 3.85 0.5 6.45 1.65 2.95 1.35 3.75 3.35 6.55 16.45 15.25 26.65 7.8 9.15 13.1 8.85 41.3-2.15 68.25 12.05 30.2 15.9 37.15 50.2 3.4 16.75-3.8 34.2-6.85 16.75-22.4 31.85-15.4 15-36.85 25.9-22.05 11.25-47 16.35-25.05 5.15-48.55 3.85-22.95-1.25-41.55-8.45-18.8-7.25-30.7-19.6-12.4-12.8-15.9-29.55-1.7-8.2-1.5-16.45 11.25-2.5 41.1-6.35l55.05-7.35q72.1-10.6 93.65-24.85 6.05-3.85 6.2-10.6" fill="#3e3a39"/>
  <path d="m264.7 98.4q-2.35 14.05-23.45 28.35-17.45 11.8-44.2 21.7t-74.5 17.4q-53.15 8.3-75.6 3.2-23.25-5.35-32.25-11.8-7.75-5.6-10.45-16.9-2.7-11.2 1.55-21.4 5.3-12.65 19.4-14.5l-2.7 5.45q3.55-3.2 8.8-5.25 10.5-4.05 18.95 1.85 4.25 3 11.55 11.65 4.9 5.75 6.7 3.9l3.65-5.85q3.4-5.85 6.6-9.85 11-13.55 26.95-15.4 20.9-2.45 36.8 7.1 3.35 2.05 9.15 6.6 3.7 2.9 4.8 2.55 2.05-0.65 7.45-13.45 7.45-13.35 19.6-17 12.65-3.8 25.8 3.9 2.65 1.55 8 5.5 3.35 2.45 4.1 2.1 0.8-0.4 1.95-4.9l2.45-9.5q4-13.35 10.5-13.35 4.1 0 9.45 3.05 5.5 3.15 10.1 8.3 11.2 12.6 8.85 26.55" fill="#fff"/>
  <path d="m245.75 63.55q5.5 3.15 10.1 8.3 11.2 12.6 8.85 26.55-2.35 14.05-23.45 28.35-17.45 11.8-44.2 21.7l-4.95 1.7q0.1-2.8 3.8-10.1 3.5-7.05 8.4-14.45 12.2-18.5 15.75-14.95 3.6 3.55 6.15 0.6 2.25-2.6 2.65-8.75 2.05-12 2.35-17.1 0.5-8.85-6.05-6.95 0-5.75 3.9-11.9 3.8-6.05 7.25-6.05 4.1 0 9.45 3.05" fill="#dbdcdc"/>
  <path d="m7.85 133.55q3.75-6.9 8.45-6.45-3.4 14.35-1.7 28.4 1.25 10.25 5.6 22.2-9.05-2.3-13.35-10.85-3.7-7.4-3.15-17.4 0.5-9.25 4.15-15.9" fill="#ea6d8d"/>
  <path d="m20.2 177.7q-6.3-1.6-10.35-6.3-3.65-4.25-5.15-10.55 5.3-6.1 9.4-12.85 0.3 13.9 6.1 29.7" fill="#cb5e7c"/>
  <path d="m25.9 161.7q3.4 3.7 5.6 10.75 2.55 8.15 2.6 12.35 0 6.35-5.25 6-3-0.2-6.75-2.75-3.8-2.6-6.7-6.5-7.2-9.8-3.25-19.4 1.65-4.05 3-4.8l3.75 0.15q4.1 1.05 7 4.2" fill="#ffe45f"/>
  <g fill="#ea6d8d">
   <path d="m35.15 132.85q7-3.35 15.6 2.35 8.7 5.75 13.75 17.3 5.25 11.95 4.5 22.55-0.8 10.9-7.6 14.15-7.05 3.35-16.3-2.35-9.45-5.9-14.5-17.35-5.15-11.65-3.75-22.5 1.35-10.85 8.3-14.15"/>
   <path d="m149.45 145.6q2.5 13.7-4.85 24.8t-20.15 13.1q-12.8 2.05-23.6-6.25-10.8-8.25-13.3-22-2.45-13.7 4.9-24.8t20.15-13.15q12.85-2 23.6 6.3 10.8 8.3 13.25 22"/>
   <path d="m208.75 102.85q10.35 5.85 14.4 18.6 4.05 12.7-0.55 24.9-4.65 12.15-15.2 16.6-10.6 4.45-20.95-1.4t-14.4-18.6q-4.05-12.7 0.55-24.85 4.65-12.2 15.2-16.65 10.6-4.45 20.95 1.4"/>
  </g>
  <path d="m260.15 103.05q2.05-5.3 4.1-5.6 3.5-0.45 5.9 4.55 2.15 4.6 1.7 9.35-0.55 6.15-4.35 14.6-4.5 10.05-8.5 7.95-4.4-2.3-1.8-19.1 1.1-6.9 2.95-11.75" fill="#dcc552"/>
  <path d="m257.1 85.95q6.1 9.4 6.1 20.45 0 12.3-4.25 21.4-4.15 9-9.65 9-4.85 0-8.6-8.4-3.95-8.75-3.95-20.85 0-13 3.05-21.6 3.3-9.15 8.45-8.4 3.8 0.5 8.85 8.4" fill="#ea6d8d"/>
  <g fill="#cb5e7c">
   <path d="m50.85 135.3q4.05 2.7 7.55 7.05 3.65 4.5 6.1 10.15 5.25 11.95 4.5 22.55-0.8 10.9-7.6 14.15-4.7 2.25-10.9 0.2-6.05-2-11.5-7.45 5.1-0.05 9.05-4.55 3.7-4.25 5.5-11.35 4.05-15.75-2.7-30.75"/>
   <path d="m134.6 140.9q-0.2-11.05-6-21.65 7.95 3.2 13.5 10.1 5.75 7.1 7.35 16.25 2.5 13.7-4.85 24.8t-20.15 13.1q-7.8 1.2-15.3-1.6-7.3-2.75-12.75-8.7 11.2 2.5 20.3-1.45 8.5-3.7 13.35-12.1 4.75-8.3 4.55-18.75"/>
   <path d="m223.15 121.45q4.05 12.7-0.55 24.9-4.65 12.15-15.2 16.6-8.9 3.7-17.9 0.05-8.9-3.6-14.25-12.85 11.05 3.55 20.1 0.35 8.15-2.9 13.25-10.7 4.85-7.4 5.55-17 0.7-9.75-3.15-18.5 8.55 5.95 12.15 17.15"/>
   <path d="m248.25 77.55q3.8 0.5 8.85 8.4 6.1 9.4 6.1 20.45 0 12.3-4.25 21.4-4.15 9-9.65 9-3.4 0-6.5-4.55t-4.7-11.9q5.15 1.25 8.8-3.5 3.25-4.3 4.5-12.05 1.15-7.5-0.1-14.9-1.35-7.9-4.95-12.25l1.9-0.1"/>
  </g>
  <g fill="#ffe45f">
   <path d="m67.15 168.75q2.1-4.9 11.05-5.35 7.65-0.35 12 1.95 3 1.55 4.35 12.15 1.15 8.7 0.65 15.9-0.4 5.55-6 6.05-5.65 0.5-11.3-4.75-5.55-5.15-9-13.8-3.35-8.4-1.75-12.15"/>
   <path d="m167.45 185.15q-3.65 0.05-7.75-4.4-5.4-5.9-8.2-15.65-2.75-9.65 0.1-12.25 3.7-3.3 11.2-4.8 8.75-1.8 12 2.45 2.9 3.85 3.75 12.55 0.95 10-2.9 15.95-3.95 6.1-8.2 6.15"/>
   <path d="m234.55 118.75q6.95-2.7 9.45 1.75 2.1 3.75 2.2 12.9 0.1 10.15-2.9 16.5-3.1 6.6-6.95 6.9-3.55 0.25-6.15-4.8-3.2-6.3-4.85-15.25-1.7-9.45 0.4-12 2.95-3.7 8.8-6"/>
  </g>
  <g fill="#dcc552">
   <path d="m31.5 172.45q2.55 8.15 2.6 12.35 0 6.35-5.25 6-2.65-0.2-5.95-2.2-3.35-2.1-6.15-5.4 5.75 2.5 5.25-8.05-1.65-13.15-1.8-17.25 3.6 1.3 6.25 4.45 3 3.65 5.05 10.1"/>
   <path d="m77.9 194.7q-2.45-2.25-4.95-6 8.2 6.6 12.75-4.35 1.8-4.4 2.25-10.1 0.45-5.65-0.65-9.9 1.8 0.45 2.9 1 3 1.55 4.35 12.15 1.15 8.7 0.65 15.9-0.4 5.55-6 6.05-5.65 0.5-11.3-4.75"/>
   <path d="m174.8 150.5q2.9 3.85 3.75 12.55 0.95 10-2.9 15.95-3.8 5.9-7.85 6.15-3.5 0.2-7.45-3.75 6.5 1.4 8.7-11.85 1.95-11.65-0.4-21.95 4.3 0.45 6.15 2.9"/>
   <path d="m236.9 139.15q1.4-11.35-2-20.5 3-1.1 5.25-0.8 2.6 0.35 3.85 2.65 2.1 3.75 2.2 12.9 0.1 10.15-2.9 16.5-3.1 6.6-6.95 6.9-3.55 0.25-6.15-4.8l-1.35-3q6.55 2.5 8.05-9.85"/>
  </g>
  <g fill="#0d131a">
   <path d="m229.8 52.55q2.45 1.3 5.1 3.3l4.95 3.9-6.3 1.3q-15.6-11.05-38.75-15.15-17.4-3.05-37.6-2-5.9 0.3-14-9.05-8.95-10.3-15.8-27.35-1-2.6-7.2-3.1-5.55-0.5-11.15 0.75-5.5 1.25-11.1 4.5-6.1 3.55-5.8 6.05 1.9 17.4-1.9 31.2-3.4 12.05-8.55 14.35-21.5 9.5-35.55 21.25-14.55 12.15-22.05 27.45l-2.05-3.7q-1.35-2.45-1.15-2.75 8.3-13.2 24.35-25.1 14.75-10.95 34.15-19.5 4.15-1.85 7.35-13.05 3.85-13.35 2-29.75-0.55-4.6 4.35-8.55 5.1-4.05 15-6.6 6.75-1.75 13.95-0.35 7.95 1.5 9.3 6 4.65 15.5 13.95 25.8 7.85 8.65 12.85 8.35 20.95-1.05 39.35 1.85 19.2 3.05 32.3 9.95"/>
   <path d="m259 133.95 3.9-0.15q-6.1 27.7-37.6 50.65-30.8 22.45-72.45 31-39.05 7.95-73.5 1.3-35.1-6.8-48.65-25.7 1.75-0.95 2.75-2.55 18 17.95 49.4 24.25 32.15 6.5 69.3-1.15 39.3-8 69-29.95 29-21.4 37.85-47.7"/>
   <path d="m245.9 60q6.5 3.8 12 10.6 4.65 5.75 6.85 13.65 2 7.25 1.25 13.05-1.05-0.5-2.25-0.4 0.8-7.05-2.25-14.15-2.1-4.95-5.85-9.4-4.3-5.1-9.8-8.4-5.45-3.3-9.55-3.3-4.25 0-7.35 6.9-1.75 3.85-3.9 12.7l-1.35 5.9q-0.6 2.2-1.4 2.6-0.95 0.45-2.6-0.5-0.85-0.5-3.9-2.8-7.35-5.5-12.85-7.65-9.7-3.8-19.1-0.95-8.9 2.65-14.95 10.4-3.5 4.4-7.5 13.15l-2.2 5.1q-1.1 2.3-2.2 2.7-1.05 0.35-2.85-1l-3.9-3.25q-8.45-6.7-15.6-9.6-12.85-5.15-28.8-3.3-13 1.55-22.7 11.2-5.35 5.3-11 15.2-2.45 4.3-3.5 7-0.65 1.8-2.65-0.6l-6-7.1-4.6-5.25q-2.95-3.05-5.8-5.05-8.1-5.7-17-2-5.4 2.2-9.95 7.2-2.1 2.3-3.1 2.55-0.65 0.1-1.05-0.65-0.3-0.65 1-3.5 1.35-2.95 2.85-4.7-0.6-1.3-5.6 1.9-5.1 3.25-7.45 6.65-4.85 7.05-4.85 17.15 0 4.25 0.9 8l0.15 0.5q-1.2 2.95-1.75 6.15l-0.6-0.35q-3.8-8.5-3-17.8 0.8-9.05 5.5-15.45 3.95-5.35 9.85-8.55 5.15-2.75 10.15-3.15 2.45-0.2 1.55 1.95l-1.65 2.95q2.05-2.45 6.2-4.4 8.55-3.95 18.15 1.7 3.25 1.9 6.15 5 2.1 2.2 4.95 6.15l4.2 5.25q1.8 2 2 1.5 4.45-11.55 15.1-21.4 11.3-10.5 22.65-12.1 17-2.4 30.55 4.05 5.25 2.45 16.15 11.1 3.9 3.1 4.45 2.95 0.5-0.15 1.4-2.45l1.6-4.2q3.65-8.9 7.7-14.05 6.45-8.1 16.05-11 10.05-3.05 20.55 1.55 4.95 2.15 13.75 8.65l3.75 2.5q0.4 0.15 1-2.15l0.95-4.25 3.75-15.25q3.15-8.9 8.4-8.9 4.95 0 10.9 3.45"/>
   <path d="m15.85 125.65 1.95 0.15-0.6 2.7q-1.3 6.25-1.75 10.5-1.1 9.85 0.3 18.3l-1.55 1.4-0.95-5.3q-0.45-2.9-0.45-5.75 0-5.15 0.35-8.7 0.55-5.35 2.1-10.95-2.7 0.6-5.9 5.3-3.55 5.15-4.2 11-0.7 6.45 0.6 14 1.3 7.85 3.9 11.3l-0.05 3.15q-5.25-4.95-7.05-12.8-1.6-7.15-0.15-15.55 1.4-7.95 5.3-13.1 3.6-4.75 8.15-5.65"/>
   <path d="m30.4 172.8q-2.3-7.25-5.75-10.75-2.5-2.55-6.05-3.45l-3.05-0.15q-0.9 0.6-2.35 4.15-1.6 3.9-1.05 8.2 0.5 4.35 3.1 8.45 2.75 4.45 6.9 7.45 3.85 2.75 6.8 2.95 2.15 0.15 3.05-1.05 2.45-3.05-1.6-15.8m-3.25-11.3q3.25 3.8 5.45 10.6 2.95 9.35 3.15 13.75 0.45 8.35-6.55 6.9-4-0.8-8.75-4.1-5.25-3.6-8-8-2.85-4.6-3.3-9.55-0.5-4.8 1.35-9.35 1.8-4.35 3.85-5.35 1.6-0.85 4.85 0 4.7 1.25 7.95 5.1"/>
   <path d="m44.1 129.55q5.5 1.5 10.6 6.3 11.7 10.85 14.8 30.55l-1.6 1.3q-0.95-7.55-4.15-14.85-3.1-7.05-7.85-12.15-4.8-5.1-10.1-7.1-5.75-2.15-10.25 0-6.65 3.2-7.9 13.75-1.25 10.5 3.75 21.8 2.95 6.8 7.95 11.95t10.65 7.25q6.3 2.3 11 0.1 5.35-2.55 6.8-10.95l1.6 2.65q-1.55 7.2-7 10.25-5.6 3.1-12.75 0.4-13.25-4.9-20.9-21.5-5.35-11.75-3.6-23.75 1.7-11.9 9-15.4 4.5-2.1 9.95-0.6"/>
   <path d="m72.65 165.55q-3.4 1.2-4.45 3.65-1.45 3.4 1.8 11.45 3.35 8.3 8.65 13.25 3.25 3.05 6.85 4.05 3.15 0.85 5.4-0.05 2.95-1.15 3.15-4.6 0.5-7.05-0.65-15.8-1.3-9.85-3.7-11.15-2.45-1.3-7.4-1.7-5.7-0.5-9.65 0.9m3.6 29.75q-5.6-5.2-8.8-14-3.2-8.65-1.35-13 1.45-3.4 5.8-4.9 4.35-1.55 10.45-1.05 5.45 0.45 8.4 2 3.6 1.9 5 13.7 1.05 8.75 0.55 15.45-0.4 6.5-3.85 7.85-3 1.2-7.9-0.75-4.6-1.85-8.3-5.3"/>
   <path d="m148.65 145.75q-2.4-13.35-12.9-21.45-10.55-8.1-23-6.15-5.75 0.9-10.6 3.95-4.9 3.05-8.35 7.9-3.7 5.2-5 11.85-1.25 6.5-0.05 13.25 2.4 13.4 12.75 21.45 10.4 8.05 22.8 6.1 5.75-0.9 10.6-3.95 4.9-3.05 8.35-7.85 3.75-5.3 5.15-11.85t0.25-13.25m-11.95-23.85q11.5 9.05 14 23.15 2.75 15.35-4.2 27-7.35 12.3-22.5 14.7-12.95 2-24.35-7.55-11.15-9.35-13.7-23.6-2.45-13.65 4.75-25.75 7.6-12.85 21.35-15 13.1-2.05 24.65 7.05"/>
   <path d="m167.8 184q3.45-0.3 6.9-5.65 3.6-5.55 2.7-15.2-0.8-8.4-3.5-11.95-1.65-2.15-5.25-2.45-4.15-0.35-9.55 1.5-4.7 1.6-6.75 3.45-0.85 0.8-0.95 3.1-0.2 4.7 2.4 11.55 2.75 7.3 6.75 11.65 3.95 4.3 7.25 4m7.9-34.2q1.6 2.15 2.8 6.7 1.35 5.05 1.35 10.15 0 7.7-3.25 13.4-4.2 7.3-8.2 7.6-3.7 0.3-9.15-5.65-4.4-4.8-7.45-12.75-2.9-7.5-2.65-12.55 0.15-3.3 1.65-4.7 2.5-2.25 7.65-4 5.8-1.95 10.4-1.55 4.6 0.45 6.85 3.35"/>
   <path d="m221.4 145.05q4.25-12.3 0.9-23.35-1.95-6.55-6.2-11.55-4.15-4.95-9.65-7.5-4.45-2.05-9.15-2.15-4.75-0.1-9.15 1.75-10.3 4.3-14.75 16.2-4.45 11.85-0.5 24.25 2.05 6.55 6.2 11.55t9.65 7.5q4.45 2.05 9.15 2.15 4.75 0.15 9.15-1.75 9.9-4.15 14.35-17.1m-12.05-43.9q11.35 6.65 15.4 19.35 4.25 13.35-0.5 26.6-4.9 13.65-16.45 18.15-4.7 1.85-10.05 1.5-5.15-0.35-10.05-2.6-5.6-2.55-10-8.35-4.15-5.4-6.45-12.6-4.5-14.25 0.25-27.05 4.7-12.6 15.8-17.3 10.6-4.45 22.05 2.3"/>
   <path d="m262.45 97.15q3.35-1.9 7 0.7 4.85 3.45 4.05 14.05-0.6 8.1-3.8 14.35-2.95 5.75-7.25 8.55-3.2 2.05-4.8 0.3-0.45-0.45-1.4-3.2l1.6-2.75q-0.1 2.6 1.45 3.45l2.05 0.2q3.2-1.15 6.15-8.65 2.6-6.6 3-12.25 0.3-4.45-1.2-8.3-1.95-5-6.1-4l-0.75-2.45"/>
   <path d="m42.85 164.1-0.4-0.75q0.05-0.3 0.65-0.1l4.3 0.85 4.75 0.65q1 0 0.8 0.6t-0.75 0.6l-6.35-0.7q-2.55-0.6-3-1.15"/>
   <path d="m206.5 133q0.85-0.75 0.9-0.15 0.1 0.6-0.65 1.35-2.2 2.25-6 3.75-2.55 0.95-4.3 1.2l-1.35-0.2q-0.4-0.35 1.15-0.65 1.6-0.35 5.55-2.45l4.7-2.85"/>
   <path d="m120.2 153.85q0.8 0 1.35 0.75 0.6 0.75 0.6 1.8t-0.6 1.8q-0.55 0.7-1.35 0.7t-1.4-0.7q-0.55-0.75-0.55-1.8t0.55-1.8q0.6-0.75 1.4-0.75"/>
   <path d="m247.6 75.2q5.2 1 10.75 9.9 6.3 10.05 6.3 21.4 0 13.35-4.05 22.9-4.3 10.15-10.95 9.7l-1.7-0.65q-1.05-0.7-1.3-1.6l-0.25-2q1.5 1.1 2.9 1.1 4.85 0 8.85-8.45 4.2-8.9 4.2-21.1 0-10.9-5.95-20.05-4.85-7.5-8.25-7.95-5.95-0.85-9 13.85-2.9 13.95-0.55 26.2h-1.75q-2.95-16.25 0.95-30.6 1.7-6.25 4.3-9.7 2.65-3.5 5.5-2.95"/>
   <path d="m255.4 107.45-0.2 2.05-0.55 0.85q-0.35 0-0.55-0.85-0.25-0.85-0.25-2.05t0.25-2.05q0.2-0.85 0.55-0.85 0.3 0 0.55 0.85l0.2 2.05"/>
   <path d="m239.65 118.95q-3.05-0.25-7.45 2.2-3.8 2.1-5.6 4.3-1.7 2.15-0.15 10.95 1.55 8.75 4.75 15.05 1 2 2.3 3.15 1.25 1.1 2.55 1.05 3.35-0.1 6.2-6.25 2.85-6.1 2.8-15.9-0.1-8.9-2.05-12.45-1-1.85-3.35-2.1m-14.8 5.05q2.05-2.5 6.25-4.85 5.05-2.8 8.75-2.45 1.6 0.1 3.2 1.3 1.45 1.05 2.3 2.6 1.1 1.95 1.8 5.6 0.75 3.85 0.75 8.15 0 4.25-1 8.85-1 4.45-2.6 7.95-3.5 7.45-7.95 7.45-1.9 0.05-3.9-1.7-1.85-1.65-3.3-4.4-2.55-5.05-4.35-15.25-1.9-10.85 0.05-13.25"/>
  </g>
 </g>
</svg>
