<?xml version="1.0" encoding="UTF-8"?>
<svg version="1.1" viewBox="0 0 76.302 124.25" xmlns="http://www.w3.org/2000/svg">
 <g transform="translate(0 -.35)">
  <path d="m44.2 99.75q4 3.9 4 9.35t-4.15 9.6-9.8 4.15q-6.6 0-10.4-4-3.55-3.7-3.55-9.45 0-5.45 4.3-9.5 4.3-4 9.95-4t9.65 3.85" fill="#0d131a"/>
  <path d="m37.3 95.8 0.1-0.35 12.3-2.35h0.1l0.15 0.05q5.05 0.45 8.45 3.5 2.65 2.3 4.55 6.5 2.4 2.5 5.6 2.7l5.6-0.6 1.85 0.2q0.3 0.4 0 2.2-0.6 3.45-3.35 5.9-3.25 2.8-8.45 3.2-2.5 3.5-7.7 4.5-4.3 0.85-9.3-0.05-6.1-1.15-9.1-6-2.15-3.55-2.35-8.6-0.2-5.1 1.55-10.8" fill="#0d131a"/>
  <path d="m43.3 117.55q-3.6 3.5-8.75 3.5-5.1 0-8.7-3.5-3.65-3.5-3.65-8.45t3.65-8.45q3.6-3.5 8.7-3.5 5.15 0 8.75 3.5 3.65 3.5 3.65 8.45t-3.65 8.45" fill="#dad8e4"/>
  <path d="m45.7 103.95q1.25 2.4 1.25 5.15 0 4.95-3.65 8.45-3.6 3.5-8.75 3.5-5.2 0-8.8-3.6 5.65 3.55 11.2-0.2 5.6-3.75 8.75-13.3" fill="#b7b6c0"/>
  <path d="m59.25 115.25q-3.4 8.45-12.3 8.45-5.45 0-9.3-3.85-3.85-3.8-3.85-9.25 0-6.2 4.7-10.05 5.6-4.55 14.25 2.7 3.45 2.95 5.35 6.35 2 3.55 1.15 5.65" fill="#dad8e4"/>
  <path d="m57.2 97.75q2.65 2.2 4.4 6.45l0.45 1.75 0.25 1.15q0.3 0.6 0.5-0.05 0.25-0.65 0.3-2.3 2.05 2.75 6.9 2.65l4.35-0.35q0.15 1.4-1.4 3.6-2.5 3.4-8 4.65 0.65-1.4 0.15-1.2-0.55 0.15-1.7 1.65-2.05 2.65-6.95 3.85l-9.05 0.35q-5.55-0.95-8.2-5.4l-2.25-3.5q-1.1-2.1-1.1-4.35 0-1.05-1.9-5.55-1.7-4.1-1.15-5.9l16.95-0.9q4.75 1.15 7.45 3.4" fill="#dad8e4"/>
  <path d="m47.65 98.55 2.75-2.25q1.75-1.25 2-1.15 3.45 1.2 5.6 3.35 2.1 2.05 3.6 5.7l0.45 1.75 0.25 1.15q0.3 0.6 0.5-0.05 0.25-0.65 0.3-2.3 2.05 2.75 6.9 2.65l4.35-0.35q0.15 1.4-1.4 3.6-2.5 3.4-8 4.65 0.65-1.4 0.15-1.2-0.55 0.15-1.7 1.65-2.05 2.65-6.75 3.8-3.65 4.15-9.7 4.15-2.25 0-4.35-0.6-3-0.8-4.4-2.6 5 0.55 8.6-1.35 3.35-1.7 4.6-5 1.3-3.3 0-6.85-1.35-3.8-5.25-6.65-1.5-1.5 1.5-2.1" fill="#b7b6c0"/>
  <path d="m46.55 122.75q4.1 0 7.25-1.8 3.4-1.95 5-5.7 0.5-1.2 0.95-1.1 0.5 0.05 0.1 1.3-1.2 4.35-5.2 6.9-3.7 2.35-8.25 2.25-6.6-0.1-10.3-3.95-3.55-3.65-3.55-9.5 0-5.5 4.8-9.6 0.7-0.65 1.05-0.4t-0.8 1.85q-1.7 2.35-2.1 3.15-1.05 2.05-1.05 4.45 0 5.15 3.45 8.65 3.5 3.5 8.65 3.5" fill="#0d131a"/>
  <path d="m38.1 27.15q15.15 0 25.85 10.65 10.7 10.6 10.7 25.6 0 11-6.15 20.15-6 8.9-15.85 13.15-1.7 0.95-4.65 1.8-5.95 1.65-12.15 1.1-15.15-1.35-24.75-11.55-9.55-10.15-9.55-24.65 0-15 10.7-25.6 10.7-10.65 25.85-10.65" fill="#dad8e4"/>
  <path d="m11.35 37.45q11.3-10.95 26.75-10.95 15.5 0 26.85 10.9 11.5 11 11.35 26.15-0.05 11.65-6.65 21-6.5 9.2-16.75 12.75l-1.9-0.05q-0.45-0.6 1.35-1.15 8.2-2.55 14.45-11.15 6.9-9.55 7.2-21.55 0.35-14.65-10.35-25.1-10.6-10.45-25.55-10.45-14.85 0-25.35 10.45-10.55 10.4-10.55 25.1 0 15 9.75 25.1 9.55 9.95 23.95 10.45 1.4 0.05 1.5 0.65 0.1 0.65-1.6 0.65-15.2-0.05-25.6-11-10.2-10.7-10.2-25.55 0-15.2 11.35-26.25" fill="#0d131a"/>
  <path d="m33.75 3.05q2.65-1.3 5.05-1.9l2.45-0.15q0.2 0.3-1.15 1.85l-2.3 2.45q-4.1 4.9-3.8 13.55 0.25 8.3 3.8 10.55 1.6 1 0.2 3.45-1.25 2.3-4.15 4.35-3.1 2.2-5.8 2.4-3.2 0.3-4.7-2.3-4.1-7.2-2.45-16.95 2-11.95 12.85-17.3" fill="#dad8e4"/>
  <path d="m30.95 23.35q-1.65-5.15 1-11.25 2.75-6.2 8.25-9.35l-2.4 2.55q-4.1 4.9-3.8 13.55 0.25 8.3 3.8 10.55-0.85 0.35-2.35-0.35-3.1-1.45-4.5-5.7" fill="#b7b6c0"/>
  <g fill="#0d131a">
   <path d="m42.15 0.35q0.3 0.45-0.65 1.75l-1.95 2.3q-2.4 3.05-3.35 5.4-1.65 4.3-1.15 10.4 0.25 2.9 1.3 5.6 0.95 2.55 1.9 3.05 0.85 0.45 0.35 0.95l-1.2 0.1q-1.45-0.85-2.65-3.75-1.2-2.85-1.5-6.15l-0.1-2.25q0-3.75 1.1-7.1 1.05-3.4 3.05-5.75l1.25-1.4q1.35-1.3 0-1.25-1.25 0.1-4.55 1.4-8.3 3.3-11.35 13.6-1.2 4-1.05 8.7 0.15 3.4 1 6.9 0.65 3 1.3 4.1 0.5 0.9-0.2 1.1-0.65 0.15-0.95-0.4-1.85-3.5-2.8-8.55-1.3-6.95 0.35-12.5 1.4-4.7 4.75-8.45 3.15-3.5 7.75-5.8 2.25-1.1 5.2-1.9l4.15-0.1"/>
   <path d="m30.5 84.45 0.55-0.8q5.95 2.75 12.2 1.95 6.85-0.95 10.95-6.05l0.75 0.65q-3.7 5.4-10.95 6.55-7.05 1.1-13.5-2.3"/>
   <path d="m37.05 79.6q-1.75 3.15-3.65 4.95-2.7 2.6-6.7 3.8-6.7 2-12.1-0.6-5.95-2.85-8.7-10.35-3-7.95 1.2-15.55 4.1-7.5 11.45-8.15 6.05-0.55 12.05 5.35 3.9 3.9 8.55 3.2 4.65-0.65 6.95-5.5 3.55-7.4 9.35-8.8 6.1-1.45 11.25 2 5.25 3.5 7.3 10.65 2.25 8-0.85 14.15-3.05 5.95-9.5 7.45-5.05 1.2-9.05-0.5-2.2-0.95-6.1-4.15-2.7-2.25-6.3-1.55-3.55 0.65-5.15 3.6"/>
  </g>
  <path d="m39.6 63.3q4.75-0.95 7.3-5.75 1.65-3.1 3.75-5.25 2.45-2.45 4.95-3.05 5.65-1.35 10.3 2.05 4.6 3.4 6.6 10.35 1.85 6.4-0.75 12.1-2.65 5.75-8.15 7-4.75 1.1-8.35-0.15-2.5-0.85-5.85-3.55-3.45-2.8-7.4-2.1-3.85 0.65-5.75 4.05-1.6 2.85-3.1 4.35-2.05 2.05-5.55 3.4-6.5 2.6-12.25-0.4-5.5-2.85-7.95-9.55-2.55-6.75 0.9-13.75 3.5-7.2 10.25-7.8 2.75-0.25 5.65 1.05 2.75 1.25 6.1 4.15 4.4 3.8 9.3 2.85" fill="#fff"/>
  <path d="m28.95 73.5q0 2.95-2.05 5-2.1 2.1-5.05 2.1-2.9 0-5-2.1-2.05-2.05-2.05-5 0-2.9 2.05-5 2.1-2.05 5-2.05 2.95 0 5.05 2.05 2.05 2.05 2.05 5" fill="#0d131a"/>
  <path d="m25.45 70.8q0 1.35-0.95 2.3-0.95 0.9-2.25 0.9-1.35 0-2.3-0.9-0.95-0.95-0.95-2.3 0-1.3 0.95-2.25t2.3-0.95q1.3 0 2.25 0.95t0.95 2.25" fill="#fff"/>
  <path d="m51.55 68q-0.2-2.9 1.7-5.1t4.85-2.4q2.9-0.2 5.15 1.7 2.2 1.9 2.4 4.85 0.2 2.9-1.75 5.15-1.9 2.2-4.85 2.4-2.9 0.2-5.1-1.75-2.2-1.9-2.4-4.85" fill="#0d131a"/>
  <path d="m53.65 65.45q-0.05-1.3 0.8-2.3 0.9-1 2.2-1.1t2.3 0.75q1.05 0.9 1.1 2.2 0.1 1.35-0.75 2.35-0.9 1-2.25 1.1-1.3 0.1-2.3-0.8t-1.1-2.2" fill="#fff"/>
 </g>
</svg>
