<?xml version="1.0" encoding="UTF-8" standalone="no"?>
<svg
   viewBox="0 0 420 319.34"
   version="1.1"
   id="svg562"
   sodipodi:docname="379.svg"
   inkscape:version="1.2.2 (b0a8486, 2022-12-01)"
   xmlns:inkscape="http://www.inkscape.org/namespaces/inkscape"
   xmlns:sodipodi="http://sodipodi.sourceforge.net/DTD/sodipodi-0.dtd"
   xmlns="http://www.w3.org/2000/svg"
   xmlns:svg="http://www.w3.org/2000/svg">
  <sodipodi:namedview
     id="namedview564"
     pagecolor="#505050"
     bordercolor="#eeeeee"
     borderopacity="1"
     inkscape:showpageshadow="0"
     inkscape:pageopacity="0"
     inkscape:pagecheckerboard="0"
     inkscape:deskcolor="#505050"
     showgrid="false"
     inkscape:zoom="1.4780485"
     inkscape:cx="183.01159"
     inkscape:cy="158.31686"
     inkscape:window-width="1337"
     inkscape:window-height="640"
     inkscape:window-x="0"
     inkscape:window-y="25"
     inkscape:window-maximized="0"
     inkscape:current-layer="svg562" />
  <defs
     id="defs399">
    <style
       id="style397">.cls-1{fill:#cedcd3;}.cls-2{fill:#a9b5af;}.cls-3{fill:#58595b;}.cls-4{fill:#1a1a1a;}.cls-5{fill:#ee3f60;}.cls-6{fill:#061922;}.cls-7{fill:#c4324f;}.cls-8{fill:#e3ebe6;}</style>
  </defs>
  <title
     id="title401">Registeel</title>
  <path
     class="cls-1"
     d="m 143.73,245.39 c -6.87,6.87 -23.77,47 -16.07,59.16 15.8,24.88 69.76,10.11 69.55,-4.12 -0.22,-14.64 -1.13,-35.9 -1.13,-43.23 z"
     id="path403"
     style="fill:#dce6de;fill-opacity:1" />
  <path
     class="cls-1"
     d="m 270.88,215.32 c 7.39,5.09 33.86,32.49 27.91,57.66 -5.14,21.76 -56.76,25.3 -63.51,8.93 -3.2,-7.78 -3.3,-25.86 -4.67,-32.73 z"
     id="path405"
     style="fill:#dce6de;fill-opacity:1" />
  <path
     class="cls-2"
     d="m 197.21,300.43 c -0.22,-14.64 -1.13,-35.9 -1.13,-43.23 l -21.34,-4.81 c 4.81,6.08 9.23,57.48 7.37,60.51 6.98,-2.33 15.2,-5.6 15.1,-12.47 z"
     id="path407"
     style="fill:#b7c1bc;fill-opacity:1" />
  <path
     class="cls-2"
     d="m 270.88,215.32 -40.27,33.86 c 0.36,1.78 0.63,4.32 0.89,7.23 22.56,-1.62 46.18,7.36 64.71,22.18 a 15.92,15.92 0 0 0 2.58,-5.61 c 5.95,-25.17 -20.52,-52.57 -27.91,-57.66 z"
     id="path409"
     style="fill:#b7c1bc;fill-opacity:1" />
  <path
     class="cls-1"
     d="m 139.54,233.62 c 0,21.73 43.22,46.16 64.54,13.08 -16.56,-16.52 -64.54,-16.52 -64.54,-13.08 z"
     id="path411" />
  <path
     class="cls-2"
     d="m 204.08,246.7 c -15.72,-15.69 -59.76,-16.48 -64.18,-13.57 13,9 35.27,22 36.27,29.74 10.12,0.01 20.38,-4.49 27.91,-16.17 z"
     id="path413"
     style="fill:#b7c1bc;fill-opacity:1" />
  <path
     class="cls-2"
     d="m 268.84,205.74 c 9.17,19.56 -14.66,58 -52.85,40.06 8.15,-22 51.4,-43.16 52.85,-40.06 z"
     id="path415"
     style="fill:#b7c1bc;fill-opacity:1" />
  <path
     class="cls-1"
     d="m 89.22,77.59 c -57.2,22 -30.33,94.5 21,81.45 z"
     id="path417"
     style="fill:#dce6de;fill-opacity:1" />
  <path
     class="cls-2"
     d="m 72.33,151.41 c 9.39,7.77 22.57,11.53 37.94,7.63 l -1.3,-5 C 96.9,155.7 84,155.16 72.33,151.41 Z"
     id="path419"
     style="fill:#b7c1bc;fill-opacity:1" />
  <path
     class="cls-3"
     d="m 72,154 c -1.54,4.88 -3.11,22.17 -14,31.41 -21.52,18.32 -41.6,37.27 -44.81,43.22 -3.69,6.86 -15.09,27.81 16.48,28.83 28.36,0.91 32.77,-5.63 37.34,-20.87 2.75,-9.16 8.41,-40.91 12.53,-46.85 C 83.66,183.8 88.76,160.41 89.68,154 90.6,147.59 77.06,137.94 72,154 Z"
     id="path421"
     style="fill:#595757;fill-opacity:1" />
  <path
     class="cls-4"
     d="m 84.39,146.1 c -0.46,25.61 -22.2,60.7 -25.25,81.13 -3.63,24.29 -48.25,11.63 -46.92,25.4 3.22,2.66 8.68,4.5 17.52,4.79 28.36,0.91 32.77,-5.63 37.34,-20.87 2.75,-9.16 8.41,-40.91 12.53,-46.85 4.12,-5.94 9.15,-29.29 10.07,-35.7 0.4,-2.83 -2.03,-6.3 -5.29,-7.9 z"
     id="path423"
     style="fill:#403b3b;fill-opacity:1" />
  <path
     class="cls-1"
     d="m 22,242.32 c -4.58,-5 -7.78,-7.32 -15.56,6.86 -7.78,14.18 -6.44,35.69 8.2,27.46 z"
     id="path425"
     style="fill:#dce6de;fill-opacity:1" />
  <path
     class="cls-2"
     d="m 22,242.32 c -3.09,-3.39 -5.55,-5.53 -9.21,-2.23 10.79,-2.3 3.25,24.77 0.7,37.16 l 1.19,-0.61 z"
     id="path427"
     style="fill:#b7c1bc;fill-opacity:1" />
  <path
     class="cls-1"
     d="m 28.82,239.57 c -5.49,-0.46 -10.74,4.82 -14.64,18.3 -3,10.54 0.5,23.09 7.89,24 7,0.85 8.12,-2.48 9,-15.75 0.88,-13.27 4.45,-16.67 4.73,-19.12 0.45,-4.12 -1.49,-7 -6.98,-7.43 z"
     id="path429"
     style="fill:#dce6de;fill-opacity:1" />
  <path
     class="cls-2"
     d="m 28.82,239.57 c 4.17,5.85 -6.73,23.66 -2,41.8 2.86,-1.49 3.61,-5.88 4.26,-15.26 0.92,-13.27 4.44,-16.66 4.72,-19.11 0.45,-4.12 -1.49,-7 -6.98,-7.43 z"
     id="path431"
     style="fill:#b7c1bc;fill-opacity:1" />
  <path
     class="cls-1"
     d="m 50.56,236.26 c -4.56,0.86 -9.41,5.88 -11.6,15.89 -2.52,11.51 -1.88,21.26 6.16,24.22 4.36,1.6 9.8,-0.56 9.48,-11.71 -0.32,-11 3.52,-19.63 3.75,-21.69 a 6.4,6.4 0 0 0 -7.79,-6.71 z"
     id="path433"
     style="fill:#dce6de;fill-opacity:1" />
  <path
     class="cls-2"
     d="m 53.24,236.25 c -2.61,13.11 -5,26.82 -2.43,39.67 2.28,-1.48 4,-4.91 3.79,-11.26 -0.32,-11 3.52,-19.63 3.75,-21.69 a 6.39,6.39 0 0 0 -5.11,-6.72 z"
     id="path435"
     style="fill:#b7c1bc;fill-opacity:1" />
  <path
     class="cls-5"
     d="m 23.64,231.2 c -1,0.69 -6.26,1.56 -6.26,0 0,-1.56 5.94,-9.7 7.19,-7.51 1.25,2.19 0,6.88 -0.93,7.51 z"
     id="path437" />
  <path
     class="cls-5"
     d="m 53.16,229.11 c -1.36,1 -7.63,0.85 -7.63,-1.36 0,-2.21 5.56,-11.52 7.19,-8.44 1.63,3.08 1.66,8.92 0.44,9.8 z"
     id="path439" />
  <path
     class="cls-5"
     d="m 38.65,229.63 c -1.36,1 -8.76,2.2 -8.76,0 0,-2.2 6.82,-12.15 8.45,-9.07 1.63,3.08 1.53,8.19 0.31,9.07 z"
     id="path441" />
  <path
     class="cls-1"
     d="m 255.67,169.29 c 29.69,-23.65 40.41,-52.66 34.37,-88.93 -8.59,-51.6 -49,-78.7 -94.84,-80.23 -6.95,0.52 -11.82,5.73 -13.56,10.6 a 102.75,102.75 0 0 0 -18.56,3.58 C 156.08,9.66 149.16,8.81 144.45,10.6 103.19,26.19 80,75.41 90.3,120.81 c 6.55,29 31.52,54 58.69,64.08 2.15,3.35 -2.23,7.79 -10.63,14.32 a 24.09,24.09 0 0 0 -6.48,30.47 c 6,11.57 36,27.77 78,20.13 38.26,-7 57.87,-27.18 64.91,-41.27 7.04,-14.09 3,-20.12 -2.51,-25.66 -5.39,-5.38 -19.1,-6.26 -16.61,-13.59 z"
     id="path443"
     style="fill:#dce6de;fill-opacity:1" />
  <path
     class="cls-2"
     d="m 277.7,190.62 a 21.46,21.46 0 0 0 -5.42,-7.74 c -5.39,-5.38 -19.1,-6.26 -16.61,-13.59 29.69,-23.65 40.41,-52.66 34.37,-88.93 -0.28,-1.67 -0.59,-3.31 -0.94,-4.93 -11.46,10.31 -48.54,76.76 -124.33,83.85 -16.4,1.53 -46.89,0 -59.27,-6.9 a 99.58,99.58 0 0 0 43.5,32.51 c 1.76,2.74 -0.58,5.47 -2.22,7.65 89.41,39.8 119.95,-28.9 130.92,-1.92 z"
     id="path445"
     style="fill:#b7c1bc;fill-opacity:1" />
  <path
     class="cls-2"
     d="m 130.59,209 a 24.07,24.07 0 0 0 1.29,20.7 c 6,11.57 36,27.77 78,20.13 38.26,-7 57.87,-27.18 64.91,-41.27 4.11,-8.21 1.82,-25 -2.61,-23.63 -8.83,49.13 -125.08,65.45 -141.59,24.07 z"
     id="path447"
     style="fill:#b7c1bc;fill-opacity:1" />
  <path
     class="cls-6"
     d="m 181.19,10 -19.86,4.41 c 0,0 -3.57,-4.18 -12.5,-3.37 -12.83,1.16 -40.42,44.78 -26.49,95.68 14.5,53 43.5,57.83 49,71.47 3.31,8.23 0.1,18.27 5.62,26.56 7.51,11.25 55.83,4.65 54.74,-15 -0.53,-9.64 -8.93,-20.16 -8.39,-25.52 1.13,-11.31 23.28,-35.93 15.54,-88.4 C 230.48,19.16 194.46,1.9 190.22,2.44 185.98,2.98 181.19,10 181.19,10 Z"
     id="path449" />
  <path
     class="cls-3"
     d="m 151,18 c -13.42,10.72 -27,46 -16.1,85.72 11,40.15 38,64.29 41.25,68 3.25,3.71 2.63,17.7 5.36,24.65 5.89,15 47.68,3.75 41.79,-11.25 -5.89,-15 -8.19,-16.85 -4.44,-27 C 222.61,147.97 235,112.15 227.5,80 220,47.85 212.67,23.06 185.88,11.27 A 129.86,129.86 0 0 0 151,18 Z"
     id="path451"
     style="fill:#595757;fill-opacity:1" />
  <path
     class="cls-4"
     d="m 218.86,158.13 c 0.84,-2.26 2.1,-5.78 3.47,-10.25 -13.19,5.76 -48.86,10.55 -75.22,-14.14 12.12,22.11 26.73,35.33 29,38 3.22,3.75 2.63,17.7 5.36,24.65 5.89,15 47.68,3.75 41.79,-11.25 -5.89,-15 -8.15,-16.83 -4.4,-27.01 z"
     id="path453"
     style="fill:#403b3b;fill-opacity:1" />
  <path
     class="cls-5"
     d="m 190.53,99.48 a 6.66,6.66 0 1 1 -8.11,-4.78 6.64,6.64 0 0 1 8.11,4.78 z"
     id="path455" />
  <path
     class="cls-5"
     d="m 163.35,106.53 a 6.66,6.66 0 1 1 -8.12,-4.77 6.67,6.67 0 0 1 8.12,4.77 z"
     id="path457" />
  <path
     class="cls-5"
     d="m 217.72,92.42 a 6.66,6.66 0 1 1 -8.12,-4.77 6.66,6.66 0 0 1 8.12,4.77 z"
     id="path459" />
  <path
     class="cls-5"
     d="m 178.08,120.67 a 6.66,6.66 0 1 1 -8.19,4.65 6.66,6.66 0 0 1 8.19,-4.65 z"
     id="path461" />
  <path
     class="cls-5"
     d="m 193.64,68.79 a 6.66,6.66 0 1 1 -8.19,4.64 6.66,6.66 0 0 1 8.19,-4.64 z"
     id="path463" />
  <path
     class="cls-5"
     d="m 198.83,115.29 a 6.66,6.66 0 1 1 -0.08,9.42 6.65,6.65 0 0 1 0.08,-9.42 z"
     id="path465" />
  <path
     class="cls-5"
     d="m 160,77.51 a 6.66,6.66 0 1 1 -0.08,9.42 6.65,6.65 0 0 1 0.08,-9.42 z"
     id="path467" />
  <path
     class="cls-1"
     d="m 276.87,46.93 c 61.74,-6.83 66.44,72.26 11.79,78.16 -18.83,-6.83 -34.82,-51.91 -11.79,-78.16 z"
     id="path469"
     style="fill:#dce6de;fill-opacity:1" />
  <path
     class="cls-2"
     d="m 315.78,58.44 c 0.57,30.5 -27.79,41.41 -46.29,43.07 4.28,11.64 11.49,20.79 19.17,23.58 39.02,-4.21 47.77,-45.73 27.12,-66.65 z"
     id="path471"
     style="fill:#b7c1bc;fill-opacity:1" />
  <path
     class="cls-3"
     d="m 313.22,108.56 c 5.18,11.29 14.78,19.63 27.41,26.24 31.41,16.42 47.68,23.57 62.13,46.63 4.13,6.61 20.39,24.2 -10.33,31.56 -27.6,6.61 -35.14,-5.25 -42.69,-19.26 -4.54,-8.41 -8.57,-26.79 -19.81,-37 -22.57,-20.54 -27.73,-39.16 -29.92,-45.25 -2.19,-6.09 6.99,-16.48 13.21,-2.92 z"
     id="path473"
     style="fill:#595757;fill-opacity:1" />
  <path
     class="cls-4"
     d="M 402.76,181.43 C 388.31,158.37 372.04,151.22 340.63,134.8 328,128.19 318.4,119.8 313.22,108.56 307,95 297.83,105.37 300,111.46 a 97.89,97.89 0 0 0 9.28,20.61 C 322.72,127 356.8,147 386.81,175 c 5.46,5.09 11.91,23.17 -17.2,28 -8.35,1.39 -3.77,7.54 -1.39,10.32 5.84,2 13.52,2.25 24.21,-0.31 30.72,-7.38 14.46,-25.01 10.33,-31.58 z"
     id="path475"
     style="fill:#403b3b;fill-opacity:1" />
  <path
     class="cls-1"
     d="m 399.23,189.76 c 5.3,-1.87 9.62,0.61 15.13,11.11 7.27,13.88 4.64,23 -0.61,25.34 -3.88,1.71 -6.94,-1.32 -10.08,-13.83 -2.21,-8.82 -5.77,-12.47 -6.53,-14.44 -1.28,-3.32 -1.88,-6.77 2.09,-8.18 z"
     id="path477"
     style="fill:#dce6de;fill-opacity:1" />
  <path
     class="cls-7"
     d="m 394.19,183.66 c 1.16,0.47 6.44,0.27 6.12,-1.26 -0.32,-1.53 -7.61,-7.35 -8.4,-5 -0.79,2.35 1.23,5.84 2.28,6.26 z"
     id="path479" />
  <path
     class="cls-5"
     d="m 362.17,191.06 c 1.53,0.68 7.64,-0.71 7.2,-2.87 -0.44,-2.16 -7.77,-10.17 -8.75,-6.82 -0.98,3.35 0.17,9.07 1.55,9.69 z"
     id="path481" />
  <path
     class="cls-5"
     d="m 378.63,186.23 c 1.53,0.68 9,0.39 8.58,-1.77 -0.42,-2.16 -9.12,-10.53 -10.1,-7.18 -0.98,3.35 0.15,8.33 1.52,8.95 z"
     id="path483" />
  <path
     class="cls-1"
     d="m 385.44,193.72 c 3.95,-0.95 8.32,-2 16.05,15.24 5.78,12.95 5.79,24.93 -1.36,27 -5.28,1.56 -9,-1.12 -11.58,-15.82 -1.84,-10.37 -6.06,-14.93 -6.82,-17.28 -1.28,-3.86 -1.65,-7.86 3.71,-9.14 z"
     id="path485"
     style="fill:#dce6de;fill-opacity:1" />
  <path
     class="cls-1"
     d="m 368.22,197 c 4.64,-0.08 8.42,2.57 12.58,11.93 4.79,10.76 7,27.17 0,29.85 -4.33,1.67 -9.85,1.88 -11.78,-9.1 -1.9,-10.79 -6,-21.85 -6.65,-23.82 -1.07,-3.35 0.75,-8.86 5.85,-8.86 z"
     id="path487"
     style="fill:#dce6de;fill-opacity:1" />
  <path
     class="cls-2"
     d="m 414.36,200.87 c -4.5,-8.58 -8.21,-11.8 -12.3,-11.67 12.24,15.87 15.87,30.77 7.4,36.49 a 3.79,3.79 0 0 0 4.29,0.52 c 5.25,-2.31 7.88,-11.46 0.61,-25.34 z"
     id="path489"
     style="fill:#b7c1bc;fill-opacity:1" />
  <path
     class="cls-2"
     d="m 390.83,193.81 c 7.27,12.45 16.57,33.07 8.05,42.47 a 10.18,10.18 0 0 0 1.25,-0.29 c 7.15,-2.1 7.14,-14.08 1.36,-27 -4.49,-10.08 -7.86,-13.92 -10.66,-15.18 z"
     id="path491"
     style="fill:#b7c1bc;fill-opacity:1" />
  <path
     class="cls-2"
     d="m 380.8,208.88 c -3.2,-7.21 -6.18,-10.43 -9.51,-11.5 9.57,23.32 12.48,35 5.45,42.19 a 11,11 0 0 0 4.07,-0.84 c 6.97,-2.68 4.78,-19.09 -0.01,-29.85 z"
     id="path493"
     style="fill:#b7c1bc;fill-opacity:1" />
  <path
     class="cls-8"
     d="m 76.59,114 c -2.57,7.3 -7.14,12.35 -10.21,11.27 -3.07,-1.08 -3.49,-7.88 -0.93,-15.18 2.56,-7.3 7.14,-12.35 10.21,-11.27 3.07,1.08 3.49,7.88 0.93,15.18 z"
     id="path495"
     style="fill:#ecf4ed;fill-opacity:1" />
  <path
     class="cls-8"
     d="m 116.1,52 c -4.6,8.16 -10.33,13.65 -12.82,12.26 -2.49,-1.39 -0.78,-9.16 3.82,-17.33 4.6,-8.17 10.32,-13.65 12.81,-12.25 2.49,1.4 0.78,9.16 -3.81,17.32 z"
     id="path497"
     style="fill:#ecf4ed;fill-opacity:1" />
  <path
     class="cls-8"
     d="m 290.65,76.38 c 0,6.93 -4,12.54 -8.85,12.54 -4.85,0 -8.8,-5.61 -8.8,-12.54 0,-6.93 4,-12.54 8.85,-12.54 4.85,0 8.8,5.62 8.8,12.54 z"
     id="path499"
     style="fill:#ecf4ed;fill-opacity:1" />
  <path
     class="cls-6"
     d="m 126,305.51 c 9.73,15.31 34.2,16.23 52.29,10.82 9.88,-3 21,-8.43 21.15,-17.11 0.15,-8.68 -2.63,-37 -2.29,-42.84 l -2.38,0.82 c -0.59,8.47 2.24,38.42 1.13,43.25 -1.11,4.83 -7.49,10.05 -18.37,13.31 -17.17,5.13 -39.73,4.21 -48.71,-9.93 -7.33,-11.54 9.63,-51.23 15.89,-57.49 l -1.74,-1.42 c -8.67,8.49 -25.3,47.52 -16.97,60.59 z"
     id="path501" />
  <path
     class="cls-6"
     d="m 159.16,260.85 c 17,6.06 31.71,3.42 44.81,-9.68 l -1.79,-1 c -14.89,15 -36.11,10.3 -42,7.92 -10.6,-4.31 -18.21,-12.44 -18.09,-19.35 l -2.31,-0.18 c -0.1,8.06 8.96,18.57 19.38,22.29 z"
     id="path503" />
  <path
     class="cls-6"
     d="m 270.12,216.42 c 7.41,5.1 33.07,32.12 27.37,56.25 -2.56,10.83 -17.84,16.8 -31.84,17.92 -14.45,1.14 -26.43,-2.64 -29.13,-9.2 -2,-4.8 -4.21,-28.88 -4.72,-31.41 l -2.5,-0.54 c 0.47,2.39 1.31,27.82 3.45,33 3.68,8.95 19.93,11.86 33.11,10.82 13.88,-1.11 31.65,-6 34.72,-19 6.1,-25.83 -21.28,-54 -29.33,-59.55 z"
     id="path505" />
  <path
     class="cls-6"
     d="m 269.46,216.32 c 0.75,9.38 -3.26,17.39 -12.89,24.92 -9.17,7.16 -22.38,11.87 -35.63,5.17 l -1.68,1.19 c 13.64,8.66 29.6,4 39.49,-3.74 10.68,-8.35 15.38,-20.29 12.49,-29 z"
     id="path507" />
  <path
     class="cls-6"
     d="m 60.38,131.29 c -5.8,-18.27 1,-41.58 29.32,-52.45 l -0.35,-2.13 c -29.63,10.42 -39.09,36.5 -32.9,56 A 41.7,41.7 0 0 0 71,153 8.79,8.79 0 0 1 73.09,150.34 41.52,41.52 0 0 1 60.38,131.29 Z"
     id="path509" />
  <path
     class="cls-6"
     d="m 110.6,160.34 -0.66,-2.6 a 44.23,44.23 0 0 1 -21.15,0.51 20.13,20.13 0 0 0 -1.4,2.48 48.42,48.42 0 0 0 23.21,-0.39 z"
     id="path511" />
  <path
     class="cls-6"
     d="m 83,144.74 c -2.54,-0.57 -9,-1.45 -12.2,8.82 l -1,4.14 c -1.55,7.28 -2.88,19.94 -15.25,30 -27.88,22.64 -41.08,36.41 -44.65,43 -2,3.75 -4.44,9.55 -2.85,15.91 a 21.25,21.25 0 0 1 2.53,-2.83 c 0,-5.48 3.24,-11.49 4.85,-14.49 2.9,-5.38 21.61,-23.4 44.54,-42.92 9.12,-7.76 11.78,-20.23 13.29,-27.35 l 1.19,-5.36 c 1.83,-5.81 4.85,-7.84 8.73,-7 3.88,0.84 6.56,4.62 6.2,7.11 -0.94,6.55 -5.25,26.94 -9.84,35.11 -2.48,4.43 -6.22,19.15 -9.16,32.35 -1.42,6.37 -2.65,11.86 -3.55,14.88 -2.31,7.69 -4.35,13.18 -10.34,16.45 -0.32,1.16 -0.74,2.24 -1,3.37 8,-3.31 10.12,-7.24 13,-16.72 0.93,-3.11 3.06,-11 4.49,-17.39 2.6,-11.68 6.56,-27.42 8.75,-31.41 4.92,-9 8.85,-29.55 9.7,-35.07 0.85,-5.52 -2.65,-9.5 -7.43,-10.6 z"
     id="path513" />
  <path
     class="cls-6"
     d="m 31.86,256.13 a 9.64,9.64 0 0 0 -0.8,2.66 c 3.66,0.09 6.44,0.14 7.23,0.12 a 7.36,7.36 0 0 0 0.39,-2.82 c -2.09,0.07 -4.35,0.09 -6.82,0.04 z"
     id="path515" />
  <path
     class="cls-6"
     d="m 15.68,238.12 c -3.14,0.38 -6.26,3.17 -10.44,10.79 -5.81,10.59 -7.17,23.52 -2.15,28.48 1.93,1.91 8.44,4.26 12.2,0.41 L 14,275.47 c -3.69,2.07 -6.5,2.2 -8.35,0.37 -4.11,-4.06 -3.16,-16.71 1.94,-26 3.57,-6.51 6.32,-9.79 8.41,-10 1.42,-0.17 4.62,0.54 5.1,2.58 l 1.87,-1 c -0.82,-2.42 -4.47,-3.63 -7.29,-3.3 z"
     id="path517" />
  <path
     class="cls-6"
     d="m 12.89,257.5 c -2.46,7.27 -1.83,16.21 1.62,21.43 a 10.19,10.19 0 0 0 7.4,4.26 9.89,9.89 0 0 0 7.24,-2.06 c 2.63,-2.17 2.67,-5.81 3.29,-14.93 0.62,-9.12 1.7,-12.22 2.67,-14.86 1.81,-4.93 1.59,-8.15 0.34,-9.66 -1.38,-1.69 -3.31,-2.42 -6.39,-2.68 -4.66,-0.39 -11.06,3.4 -16.17,18.5 z m 9.34,23 a 8.07,8.07 0 0 1 -5.39,-3.29 c -3,-4.52 -3.27,-12.44 -1.38,-19 3.42,-11.78 8,-18.13 13.28,-17.69 a 6.85,6.85 0 0 1 4.85,2.31 c 0.77,0.93 0.49,5.22 0.08,6.15 -1.21,2.74 -3.23,7.32 -3.9,17 -0.55,8 -1,12 -2.82,13.56 a 6.26,6.26 0 0 1 -4.72,0.99 z"
     id="path519" />
  <path
     class="cls-6"
     d="M 50.26,235.86 C 45.58,236.43 40,242.1 38,251.6 a 62.7,62.7 0 0 0 -1.68,11.78 c 0,7.9 3.09,12.19 6.73,13.61 2.54,1 7.34,1.16 9.33,-0.26 1.99,-1.42 3.81,-4.6 3.6,-12.11 a 57.55,57.55 0 0 1 2.62,-18.35 c 1.2,-3.9 0.43,-7.28 -1.33,-8.92 -1.76,-1.64 -4.36,-1.8 -7.01,-1.49 z m -4.67,39.25 c -6.31,-2.32 -8.1,-9.95 -5.32,-22.67 2.17,-9.91 6.87,-14.17 10.54,-14.86 v 0 a 5.26,5.26 0 0 1 4.59,1.22 c 2.51,2 1.28,5.36 1,6.46 a 60,60 0 0 0 -3.09,19.44 c 0.14,4.94 -0.93,8.49 -3,10 a 5,5 0 0 1 -4.72,0.41 z"
     id="path521" />
  <path
     class="cls-6"
     d="m 23.58,221.93 c -2.72,1.3 -7.15,7.21 -7.15,8.92 a 1.83,1.83 0 0 0 1,1.62 c 1.64,0.86 5.57,0.1 6.65,-0.61 1.08,-0.71 2.33,-6.08 1.15,-9.41 -0.23,-0.85 -0.79,-0.93 -1.65,-0.52 z m -1,2.44 c 0.77,-0.51 1,0.69 0.94,1.55 -0.06,0.86 -0.45,3.7 -0.85,4.21 a 7.7,7.7 0 0 1 -4.13,0.46 c -0.54,-0.19 3.28,-5.7 4.06,-6.22 z m 28.57,-7 c -3,1.42 -7,8.12 -7,10.35 a 2.38,2.38 0 0 0 1.71,2.46 c 2,0.66 6.29,0 8,-0.63 3,-1.09 1.6,-7.9 0,-10.89 a 2.19,2.19 0 0 0 -2.69,-1.26 z m -0.42,2 c 1.82,-1.17 2.9,8.12 1.69,8.29 -1.21,0.17 -5.44,1.17 -6.34,0.13 -0.9,-1.04 3.68,-7.79 4.67,-8.41 z m -14,-1.07 c -2.88,0.74 -7.75,8.85 -7.75,11.14 a 2.21,2.21 0 0 0 1.23,2 c 2.15,1.15 7.45,0.08 8.79,-0.93 v 0 c 1.91,-1.44 1.66,-7.23 0.08,-10.34 -0.45,-1.03 -1.22,-2.17 -2.29,-1.86 z m -0.42,2.55 c 0.94,-0.6 1.47,3.93 1.47,5.4 a 5,5 0 0 1 -0.4,2.4 c -0.93,0.6 -5.65,1.47 -6.5,0.79 -0.85,-0.68 4.54,-7.98 5.49,-8.58 z"
     id="path523" />
  <path
     class="cls-6"
     d="m 290.14,125.64 a 7.87,7.87 0 0 1 -3.27,-1.44 c -4.72,15.64 -14.69,29.28 -32,44.05 -5.61,4.77 -2.57,3.95 -0.84,3.28 1.18,4.31 5,5.91 9.44,7.84 3,1.29 6.22,2.28 8.14,4 2.85,2.61 8.31,10.92 2,24.53 -3.5,7.57 -19.36,32.42 -63.95,40.55 -42.34,7.71 -71.19,-9.14 -76.57,-19.43 a 22.71,22.71 0 0 1 6.11,-28.79 c 7.76,-6 10.75,-9.38 11.35,-13.55 0,0 3.57,0.89 5.21,0.44 1.64,-0.45 1,-1.07 -3.43,-2.38 -26.46,-7.82 -54.56,-37.05 -60.7,-64.26 -10.35,-45.69 13.07,-93.42 53.3,-108.63 4.8,-1.81 9.32,-1.23 16.46,2.34 l 21.52,-3 c 1.6,-4.48 7.8,-9.24 11.59,-9.61 37.25,1.27 67.55,18.48 83.22,46.79 A 4.73,4.73 0 0 1 280,47 89.43,89.43 0 0 0 257.45,20.38 C 240.62,7.07 211.08,-1.77 192.21,0.3 c 0,0 -5.14,0.49 -11.54,9.52 a 110.81,110.81 0 0 0 -17.4,3 c -6.67,-4.24 -14.29,-5.06 -19.74,-3 -34.86,13.17 -57,49.46 -57,88.79 a 101.82,101.82 0 0 0 2.47,22.5 c 6.3,27.87 30,53.83 59,64.81 a 1.81,1.81 0 0 1 0.22,0.76 c 0,2.78 -5.15,7.75 -10.74,12.09 -5.59,4.34 -7.91,7.79 -9.34,14.48 -0.8,3.78 -0.07,13.24 2.61,17.05 7.63,10.82 35.18,28.88 79.42,20.82 45.82,-8.34 62.19,-33.81 66,-41.58 6.52,-13.39 1.36,-24.25 -2.12,-27.73 -2.2,-2.2 -7.44,-4.06 -10.7,-5.29 -8.79,-3.33 -6.45,-6.92 -6.37,-7.23 16.38,-13.22 27.5,-25.29 33.16,-43.65 z"
     id="path525" />
  <path
     class="cls-6"
     d="m 89.48,91.69 c -1.82,3 -2.56,6.17 0.81,1.42 6.87,-9.7 20.61,-23.24 27.48,-27.89 3.09,-2.09 4.71,-5 0.44,-3.2 -4.27,1.8 -21.05,16.98 -28.73,29.67 z"
     id="path527" />
  <path
     class="cls-6"
     d="m 109.3,156.8 c 12.92,8 39.59,13.09 50.75,10.42 3.37,-0.81 -2.25,-2 -2.25,-2 -12.34,1.41 -36,-3.56 -49.1,-10.39 0,0.03 -1.7,0.55 0.6,1.97 z"
     id="path529" />
  <path
     class="cls-6"
     d="m 232.31,50.12 a 98.23,98.23 0 0 1 36.3,10.63 c 0,0 2.84,0 -0.25,-1.65 -8.81,-4.8 -24.13,-10.8 -37,-10.8 -2.27,0 -5.5,1.31 0.95,1.82 z"
     id="path531" />
  <path
     class="cls-6"
     d="m 229.34,146.56 -0.07,1.9 c 26.2,-7.89 44,-26.56 47.49,-32.15 l -0.85,-1.49 c -3.38,5.41 -18.33,21.65 -46.57,31.74 z"
     id="path533" />
  <path
     class="cls-6"
     d="m 189.38,3.47 c 11.46,-1.34 41.62,26.84 48.13,72.58 5.48,38.35 -4.94,61.77 -11.16,75.76 -2.27,5.11 -4.07,9.14 -4.39,12.32 -0.28,2.87 1.47,6.62 3.5,11 2.17,4.63 4.62,9.88 4.89,14.76 0.52,9.22 -11.38,14.2 -16.53,15.92 -14.54,4.85 -31.91,4 -35.75,-1.77 -3,-4.43 -3.24,-9.37 -3.54,-14.59 -0.22,-3.93 -0.45,-8 -2,-11.72 -1.88,-4.67 -6.24,-8.34 -11.76,-13 -11.14,-9.36 -28,-23.5 -37.73,-59.11 -13.84,-50.57 18.37,-95.73 30,-94.54 L 148.3,9.8 c -11.3,4.85 -42.07,44.4 -27.81,96.51 10,36.42 26.11,49.91 36.27,58.21 8.31,6.78 12.24,9.61 13.87,13.66 0.85,2.11 1.56,6.81 1.89,12.46 0.3,5.35 0,9.81 3.32,14.85 5.07,7.6 23.43,7.34 37.73,2.57 12.1,-4 19.89,-10.56 19.46,-18.35 -0.3,-5.41 -2.88,-9.56 -5.15,-14.41 -1.79,-3.82 -4,-8.76 -3.8,-10.9 0.27,-2.75 2.54,-6.61 4.72,-11.5 6.34,-14.25 16.95,-38.11 11.36,-77.23 C 233.42,28.51 201.34,-0.94 190.14,2 Z"
     id="path535" />
  <path
     class="cls-6"
     d="m 151.16,17.28 c -13.55,8.49 -28.71,47.5 -17.55,86.81 6.26,22.06 19.79,44.63 40.21,67.09 l 1.31,1.46 c 1.5,1.74 2.12,6.85 2.72,11.79 0.55,4.51 1.11,9.17 2.41,12.47 3.64,9.25 19.33,8.95 31.65,4.11 4.61,-1.81 8.14,-3.4 10.47,-6.1 2.78,-3.23 2.69,-7.91 -0.93,-16.71 -2.67,-6.49 -4.29,-11.56 -1.33,-19.6 6.2,-16.82 15.56,-49.42 8.68,-78.9 -7.77,-33.28 -17.21,-58 -43.46,-69.58 -8.05,-0.32 -24.06,2.55 -34.18,7.16 z M 185.06,12 c 25.66,11.44 33.57,35.95 41.13,68.35 a 95.7,95.7 0 0 1 2.35,21.65 c 0,22 -6.45,44.89 -11,57.33 a 20.22,20.22 0 0 0 -1,9.75 c 0.42,2.49 2.08,6.63 3.32,10.16 3.15,8.92 2,12.24 0.56,13.92 a 24.8,24.8 0 0 1 -9.57,6.16 c -11.16,4.39 -25.09,4.07 -28,-3.4 A 54.78,54.78 0 0 1 180,183.59 c -0.71,-5.83 -0.62,-10 -5.81,-15.34 -20.13,-20.94 -31.84,-43.23 -38,-64.89 a 106.07,106.07 0 0 1 -4,-28.94 c 0,-25.9 10.23,-47.83 20.16,-55.91 9.82,-3.93 24.57,-6.78 32.71,-6.51 z"
     id="path537" />
  <path
     class="cls-6"
     d="m 217.66,226.94 c -28,7.28 -62.07,5.48 -78,-7.31 -3.56,-2.86 -2.91,-0.35 -0.58,1.47 17.9,14.06 50.48,15.92 79.26,8.43 23.28,-6.05 45.18,-18.25 52.32,-35.52 0.89,-2.13 0,-5.21 -1.51,-1.64 -4.94,11.63 -22.77,27.1 -51.49,34.57 z"
     id="path539" />
  <path
     class="cls-6"
     d="m 182,94.22 a 7.33,7.33 0 0 0 -4.51,3.34 7.18,7.18 0 0 0 2.62,9.92 7.43,7.43 0 0 0 5.59,0.77 7.24,7.24 0 0 0 5.3,-8.83 v 0 a 7.41,7.41 0 0 0 -9,-5.2 z m -0.59,11.51 a 5.32,5.32 0 1 1 7.85,-5.92 5.66,5.66 0 0 1 0.17,1.34 5.32,5.32 0 0 1 -8,4.58 z m -26.51,-4.54 a 7.29,7.29 0 0 0 -4.51,3.34 7.18,7.18 0 0 0 2.62,9.92 7.47,7.47 0 0 0 5.59,0.77 7.21,7.21 0 0 0 1.87,-13.22 7.39,7.39 0 0 0 -5.59,-0.81 z m -0.68,11.6 a 5.32,5.32 0 1 1 4,0.56 5.32,5.32 0 0 1 -4.02,-0.56 z m 55.05,-25.45 a 7.3,7.3 0 0 0 -4.5,3.34 7.06,7.06 0 0 0 -0.78,5.49 7.2,7.2 0 0 0 3.39,4.43 7.48,7.48 0 0 0 5.59,0.77 7.25,7.25 0 0 0 5.29,-8.84 v 0 a 7.4,7.4 0 0 0 -9.01,-5.19 z m -0.67,11.34 a 5.32,5.32 0 1 1 7.84,-5.92 5.06,5.06 0 0 1 0.17,1.33 5.32,5.32 0 0 1 -4,5.15 5.26,5.26 0 0 1 -4.03,-0.56 z m -39.12,26.65 a 7.26,7.26 0 0 0 5.14,8.92 7.43,7.43 0 0 0 5.6,-0.68 7.2,7.2 0 0 0 -1.67,-13.29 v 0 a 7.4,7.4 0 0 0 -9.09,5.05 z m 5.43,6.89 a 5.32,5.32 0 0 1 -1.2,-9.76 5.33,5.33 0 0 1 7.94,4.63 5.3,5.3 0 0 1 -2.7,4.63 5.28,5.28 0 0 1 -4.06,0.5 z M 188.24,68.9 a 7.25,7.25 0 0 0 -3.47,4.37 7.12,7.12 0 0 0 0.69,5.51 7.35,7.35 0 0 0 4.45,3.41 7.43,7.43 0 0 0 5.6,-0.68 7.18,7.18 0 0 0 3.49,-4.37 7.28,7.28 0 0 0 0.27,-2 7.1,7.1 0 0 0 -1,-3.56 7.44,7.44 0 0 0 -10,-2.73 z m 2.21,11.43 a 5.32,5.32 0 1 1 2.83,-10.25 v 0 a 5.32,5.32 0 1 1 -2.83,10.25 z m 8,34.8 v 0 a 7.16,7.16 0 0 0 -0.08,10.25 7.46,7.46 0 0 0 10.42,0.08 7.17,7.17 0 0 0 0.09,-10.25 7.49,7.49 0 0 0 -10.47,-0.08 z m 8.88,1.18 a 5.32,5.32 0 1 1 -9.11,3.73 v 0 a 5.24,5.24 0 0 1 1.59,-3.75 5.32,5.32 0 0 1 7.48,0.02 z M 159.16,77.09 A 7.17,7.17 0 0 0 157,82.2 v 0.06 a 7.12,7.12 0 0 0 2.12,5.08 7.44,7.44 0 0 0 10.42,0.08 7.17,7.17 0 0 0 0.09,-10.25 7.47,7.47 0 0 0 -10.43,-0.08 z m 5.48,10.49 A 5.32,5.32 0 0 1 161,78.47 v 0 a 5.32,5.32 0 1 1 7.46,7.58 5.27,5.27 0 0 1 -3.82,1.53 z"
     id="path541" />
  <path
     class="cls-6"
     d="M 159.07,76.56 Z"
     id="path543" />
  <path
     class="cls-6"
     d="m 320.34,61.71 c -9.16,-12.49 -23.74,-17.89 -42.7,-15.79 0,0 -19.9,14 -12.23,48.1 5.82,25.88 23,31.72 23,31.72 a 53.72,53.72 0 0 0 15.5,-4 14.47,14.47 0 0 0 -0.52,-2.11 47,47 0 0 1 -14.54,4 c -8.39,-3.22 -16.41,-14.72 -20,-28.82 a 64.62,64.62 0 0 1 -2,-15.84 47.54,47.54 0 0 1 11.41,-30.77 c 17.72,-1.82 31.44,3.53 39.92,15.09 a 37.67,37.67 0 0 1 7.08,22.21 38.35,38.35 0 0 1 -3.26,15.5 36,36 0 0 1 -7.64,11.12 l 1.16,2.32 A 36.39,36.39 0 0 0 324.5,102 c 5.79,-13.12 4.16,-28.95 -4.16,-40.29 z"
     id="path545" />
  <path
     class="cls-6"
     d="m 288.83,124.08 1,0.83 a 24.17,24.17 0 0 0 12.42,-5.79 8.45,8.45 0 0 1 -0.43,-1.88 c -4.07,3.93 -8.61,6.33 -12.99,6.84 z"
     id="path547" />
  <path
     class="cls-6"
     d="m 302.93,49.44 -1.65,0.42 C 314,59.25 319,75.89 314.89,93 a 56.49,56.49 0 0 1 -4.61,12.63 c 0.42,0.72 1.12,1.16 1.57,1.85 a 56.71,56.71 0 0 0 5.63,-13.79 c 4.8,-18.13 -0.85,-34.17 -14.55,-44.25 z"
     id="path549" />
  <path
     class="cls-6"
     d="m 382.2,213.38 v 2.07 c 1.76,-0.17 3.64,-0.45 5.61,-0.81 -0.28,-0.63 -0.63,-1.26 -0.88,-1.89 -1.66,0.25 -3.24,0.49 -4.73,0.63 z"
     id="path551" />
  <path
     class="cls-6"
     d="m 405.42,183 -1.53,-2.27 c -13.67,-20.35 -28.47,-29.36 -55.62,-43.46 l -7,-3.65 c -12.73,-6.66 -22.35,-13.26 -26.5,-23 -4.15,-9.74 -9.17,-9.51 -11.19,-8.71 -3.83,1.5 -6.19,6.17 -4.81,10 l 0.53,1.53 c 2.57,7.48 9.46,24.74 29.74,44.26 7.49,7.2 12,18 15.37,26.9 1.5,3.87 3,8.25 4.37,10.81 4,7.42 8.17,14.84 16.88,18.29 a 14,14 0 0 0 -0.92,-3.44 c -5.92,-3.54 -9.75,-9.66 -13.8,-17.17 a 87.8,87.8 0 0 1 -4,-9.46 c -3.53,-9.13 -7.92,-20.49 -16.07,-27.91 -20.66,-18.8 -26.51,-35.87 -29,-43.15 l -0.54,-1.56 a 6.28,6.28 0 0 1 3.29,-7.2 c 2.74,-1.07 5.65,1.46 8,7 5,11.65 14.18,18.29 27.44,25.22 l 7,3.66 c 26.73,13.89 41.45,21.53 54.58,42.5 l 1.6,2.38 a 46.88,46.88 0 0 1 4.87,8.19 c 1.89,2.06 2.89,4.69 3.89,7.24 0.86,-6.29 -3.54,-12.64 -6.58,-17 z"
     id="path553" />
  <path
     class="cls-6"
     d="m 393.91,184.22 c 1.19,0.46 5.11,0.43 6.52,-0.69 0.52,-0.42 0.38,-1.81 0,-2.27 -2.2,-2.46 -5.41,-4.73 -7.9,-5.18 -4.31,-0.78 0.06,7.62 1.38,8.14 z m -1.17,-6.52 c 0,-0.17 5.28,3.17 6.22,4.63 a 9.93,9.93 0 0 1 -4.29,0.26 8.69,8.69 0 0 1 -1.93,-4.89 z m -33,3.62 c -1,3.32 0,9.5 2.09,10.43 v 0 c 1.58,0.7 5.63,-0.12 7.36,-1.49 a 2.39,2.39 0 0 0 1.06,-2.43 c -0.42,-2 -5.55,-8 -8.41,-8.06 a 2,2 0 0 0 -2.09,1.55 z m 2,0.44 c 0.85,-0.89 6.83,5.89 6.49,6.65 -0.34,0.76 -5,1.79 -5.53,1.59 -1.29,-0.71 -1.81,-7.35 -0.97,-8.24 z m 14.53,-4.49 c -1,3.23 -0.1,8.67 2.07,9.62 v 0 c 1.5,0.65 7.07,0.58 8.95,-0.89 a 1.93,1.93 0 0 0 0.79,-2 c -0.45,-2.15 -7.05,-8 -10.08,-8.09 -1.07,0 -1.44,0.38 -1.74,1.36 z m 2,0.39 c 1.2,-0.94 8.12,6 7.77,6.88 -0.35,0.88 -5.69,1.13 -6.86,0.63 -0.58,-0.4 -2.18,-6.57 -0.96,-7.51 z"
     id="path555" />
  <path
     class="cls-6"
     d="m 400,189.42 c -5.7,1.55 -4.3,6.2 -3.5,8.29 0,0 5.83,8.83 7.39,15 2.21,8.81 2.54,13.09 5.44,14.5 a 6.76,6.76 0 0 0 5.18,-0.25 8,8 0 0 0 4.69,-5.14 c 1.83,-5.21 0.46,-12.16 -3.91,-20.51 -4.81,-9.16 -9.58,-13.45 -15.29,-11.89 z m 12.87,12.64 c 5.44,10.37 4.72,16.29 3.8,18.9 a 6.55,6.55 0 0 1 -3.47,4 2.58,2.58 0 0 1 -2.27,0.1 c -2,-1 -4.05,-5.39 -6,-13 a 40.76,40.76 0 0 0 -5.52,-12.75 l -1.06,-1.85 a 11,11 0 0 1 -0.87,-3.64 3.16,3.16 0 0 1 0.24,-1.29 3.08,3.08 0 0 1 1.92,-1.5 c 3.9,-1.37 7.45,-0.03 13.24,11.03 z m -27.76,-8.88 c -4.8,1 -5.84,5.44 -4.15,10.1 1.69,4.66 5,9.84 6.26,17.13 1.66,9.33 3,14.32 6.17,16.29 1.75,1.08 4.65,0.86 7.13,0.13 a 8.37,8.37 0 0 0 5.64,-4.79 c 2.68,-5.89 1.76,-15.18 -2.4,-24.26 -6.04,-13.19 -13.85,-15.64 -18.64,-14.6 z m 9.89,41.06 c -2.41,-1.5 -3.61,-6 -5.09,-14.3 a 43.4,43.4 0 0 0 -5.69,-15.21 14,14 0 0 1 -1.18,-2.25 c -0.86,-2.65 -1,-4.43 -0.32,-5.58 a 4.48,4.48 0 0 1 3.07,-1.88 c 3.09,-0.74 9.84,1.35 15.58,13.88 3.79,8.26 5.94,17.16 2.83,21.84 -2.59,3.84 -8.15,4.17 -9.2,3.5 z m -26.81,-37.83 c 0,0 -3.82,0.55 -5.19,2.47 -1.52,2.14 -1.92,4.6 -0.77,7.77 1.55,4.27 3.88,13.94 5.52,23.21 0.92,5.26 2.71,8.57 5.45,10.12 2.22,1.26 4.88,1.26 8.13,0 a 7.32,7.32 0 0 0 4.11,-4.32 c 2.75,-6.64 0.31,-19 -3.37,-27.33 -4.07,-9.14 -8.16,-12.02 -13.92,-11.92 z m 6.33,41.24 c -2,-1.12 -3.36,-3.89 -4.13,-8.26 a 156.32,156.32 0 0 0 -6.29,-22.8 l -0.41,-1.19 a 6.23,6.23 0 0 1 0.89,-5.2 4.4,4.4 0 0 1 3.7,-1.91 v 0 c 3.29,-0.06 6.94,1.25 11.34,11.13 3.51,7.89 5.72,19.48 3.34,25.21 a 4.73,4.73 0 0 1 -2.59,2.85 c -2.5,0.95 -4.37,1.01 -5.89,0.17 z"
     id="path557" />
</svg>
