<?xml version="1.0" encoding="UTF-8"?>
<!-- Created with Inkscape (http://www.inkscape.org/) -->
<svg version="1.1" viewBox="0 0 344.6 373.81" xmlns="http://www.w3.org/2000/svg">
 <path d="m35.026 224.98c1.1199-0.64907 2.1311-1.3177 3.2234-2.1534 1.3372 2.0531 2.4264 4.3143 3.7245 6.378 2.3985-1.6018 4.0884-2.8598 6.0735-4.3633 1.6993 1.6993 2.9874 2.9186 4.6288 4.6285-2.1144 4.6191-4.2948 9.798-5.4542 13.749 1.5712 1.4932 3.2036 3.4003 4.7661 5.1692 2.1144-0.88308 4.0884-1.769 7.1446-2.7217 1.769-5.0414 2.9975-8.7857 5.3857-12.864 4.5597-1.2982 6.7318-2.1116 10.201-3.4006 2.1812-5.0414 3.3412-8.304 4.4912-11.773 4.6976-0.95273 8.8545-1.769 12.795-2.3874 2.3874-5.1004 3.7443-7.7539 5.7197-11.773 3.6067-1.1589 6.3978-2.1116 9.798-3.066 1.5043 3.5477 2.457 5.9947 4.0884 9.739-2.1812 4.894-3.4003 7.6851-5.2381 12.314 1.0809 4.2945 1.769 6.8791 2.9874 10.211 4.0196-1.4263 6.673-2.6548 10.349-4.6976 1.4263-4.56 3.2627-8.5007 5.3068-12.52 3.5379-2.0448 5.513-2.9975 8.6481-4.216 1.1004 2.1422 2.8105 5.6409 4.4126 8.9724 2.5462-0.69644 4.2945-0.95272 6.4861-1.2675 0.47079-2.0447 0.86359-4.0981 1.1784-6.1423 0.44293-2.9482 0.71871-4.1276 4.4912-4.4912 28.176-2.7607 68.812-2.3484 102.39-2.1422 8.8843-8.9821 14.604-14.702 23.173-23.891 6.9482-1.2285 12.766-2.2509 19.301-4.3929 3.361-5.3069 5.5133-9.0807 8.1667-14.083-4.5993-3.2727-6.6337-4.8057-12.147-9.2969-6.7415 1.2285-12.048 2.3484-20.726 3.9803-10.417-5.1988-19.812-9.69-27.773-13.061-22.967 10.515-49.206 23.173-71.358 33.895 18.171-11.439 51.762-30.839 67.476-40.43 4.5993-15.105 7.351-24.402 11.577-38.042 7.0758-6.4666 12.619-11.675 17.798-16.589 1.131-7.931 1.6993-13.592 1.9277-20.559-4.9923-0.4513-9.071-0.73823-15.921-1.4152-6.8009 7.5277-10.702 11.095-19.026 19.203-10.28 1.365-20.088 2.7133-29.266 3.8034-13.837 19.458-44.804 63.171-57.825 83.721 9.4147-19.911 35.546-63.338 50.651-89.47-1.053-11.498-4.4224-27.016-6.663-34.573 5.2085-11.537 8.0583-18.889 10.82-25.935-3.2724-6.6334-6.9479-13.267-10.004-18.368-4.7959 2.7523-8.8843 5.0021-15.626 8.776-2.652 7.8619-5.6116 18.584-8.3631 27.458-6.9482 6.0242-17.974 16.137-24.608 22.358-4.275 18.289-10.673 47.123-12.707 64.842-0.78557-1.0614-1.4347-1.7801-2.2704-2.7523 0.99173-17.257 3.1053-46.317 2.418-60.655-6.1225-6.5354-11.94-13.169-17.247-19.193-0.50979-7.4591-1.0224-14.604-2.0447-21.031-4.4912-3.8819-6.6337-5.818-10.103-7.9603-3.1643 4.7957-5.3166 8.0584-7.97 12.854 1.2285 8.4812 1.8386 12.766 2.457 20.52-3.4691 8.4812-6.437 16.029-10.623 26.141 2.3289 10.083 4.6583 18.24 7.7736 29.188-2.9189-0.75772-5.8278-1.3372-9.7195-1.9277l-0.61844-1.5935c3.4984-3.8031 5.2871-5.9749 6.3682-8.1567-3.3415 0.62958-4.4224 0.85522-8.5598 2.1618-1.6715-4.2653-3.4003-8.5893-5.1105-12.599-5.1595-1.326-9.5718-2.1422-15.164-3.4003-3.7148-7.1742-5.6019-10.633-8.5598-15.921-4.4029-0.88588-7.0466-1.5739-12.078-2.8303-0.195 4.1569-0.62958 8.491-1.131 13.719 2.574 5.2183 5.9063 11.193 8.4222 17.11-1.0419 3.2627-1.8776 5.0709-3.3903 8.0193-3.1448 1.17-7.0563 2.8598-10.024 4.275-0.71873 3.9998-1.1784 6.6925-2.0336 10.692-3.6755 1.3177-6.7515 2.4264-12.393 4.1962-0.44294 4.6781-0.70758 7.9113-1.3762 13.1-2.2815 1.9166-5.3169 4.8645-6.1423 6.2699-0.93323 1.5823-4.7664 16.196-4.4224 18.102 0.52093 2.9384 14.329 6.7908 20.205 6.3287 3.4788-0.27857 4.8352-1.9054 9.5326-2.5155 10.82 0.40393 21.493 1.2369 32.922 3.0072-18.653 14.427-33.247 35.065-35.595 65.736" fill="#362B2E"/>
 <path d="m178.71 346.53c-33.404 26.072-69.422 34.917-116.45 16.265-35.87-14.22-41.689-61.255-28.451-88.34 3.7248-7.626 4.7174-17.709 2.8599-26.544-1.6519-7.8032-2.1227-15.498-1.6519-22.928 1.1199-0.64909 2.1227-1.3177 3.2134-2.1534 1.3455 2.0531 2.4375 4.3143 3.7346 6.3682 2.3874-1.5934 4.0783-2.8498 6.0635-4.3633 1.6993 1.7105 2.9975 2.9287 4.6288 4.6288-2.1032 4.6285-4.2848 9.8078-5.4445 13.749 1.5628 1.5043 3.2039 3.4003 4.7664 5.1793 2.1144-0.88587 4.0884-1.7801 7.1446-2.7217 1.7689-5.0416 2.9975-8.786 5.3757-12.864 4.56-1.2982 6.7415-2.1144 10.211-3.41 2.1812-5.0319 3.3318-8.2946 4.4912-11.773 4.6976-0.95273 8.8448-1.769 12.796-2.379 2.379-5.1007 3.7443-7.7639 5.7197-11.773 3.6067-1.1589 6.3978-2.1144 9.7981-3.0663 1.4931 3.5379 2.4459 5.9949 4.0881 9.739-2.1812 4.8943-3.41 7.6853-5.2478 12.314 1.092 4.2848 1.7689 6.8791 2.9975 10.211 4.0193-1.4347 6.6727-2.652 10.348-4.6976 1.4263-4.56 3.2627-8.5105 5.3069-12.52 3.5379-2.0447 5.5133-2.9972 8.6383-4.2257 2.2509 4.3633 6.9778 14.289 8.265 17.011-5.9359 13.67-13.66 28.903-35.536 40.381-0.0836-1.326-0.22286-2.418-0.38443-3.7443-5.3955 1.4848-8.1962 2.2314-13.552 3.4594-20.825 25.827-9.9062 53.491 2.9579 67.378 21.591 23.301 52.096 23.35 81.057 2.4459 17.129-12.353 33.492-15.724 46.534-6.8596 3.0955 0.16714 5.2085 0.80508 7.8324 0.94437 2.1729 1.4932 4.4714 3.3117 6.9382 4.5402 10.23-3.6165 19.085-10.378 26.701-17.267 7.8915-7.1544 16.54-13.896 20.077-14.564 3.9508-0.75773 7.4198-0.88308 10.751-0.0557-0.0557 2.2397-0.13928 4.3536-0.27857 6.8694 6.1326-4.6285 16.274-11.704 26.348-14.967 4.894 0 9.3852-0.13928 12.383-0.61844-0.47079 3.8132-2.0448 8.442-4.8352 12.117-3.8719 2.1144-8.304 4.8352-11.773 8.1667 1.1505-0.11137 2.613-0.0557 2.7802 0.0836 0.37329 0.34265 0.44293 1.1589 0.28415 2.2314 4.4224-3.4691 8.7172-6.4666 12.245-8.7857 3.2039-0.33428 10.761-0.33428 11.371 0.48193 0.61008 0.81624-1.092 5.425-2.7217 9.1005-5.9261 4.5892-15.075 12.569-21.444 18.328-24.726 22.348-38.642 32.804-60.705 32.804-36.44 0-51.388-19.783-72.242-29.846-2.5852 1.5043-4.3143 2.8011-7.9996 5.6804" fill="#6EB92B"/>
 <path d="m82.55 116.42c4.7957-1.17 9.0314-2.0921 13.582-2.496 3.2627 2.4459 5.6606 4.2848 9.0314 6.7808-0.66859 3.1156-1.326 5.5133-2.3484 8.3241-4.0293 1.17-7.6558 2.496-11.488 3.98-1.73 3.371-3.0072 6.6337-4.4912 10.978-5.1497 0.96388-9.2378 2.2398-13.778 3.5672-3.0172-2.3985-5.1105-3.8719-8.4715-5.8178-6.2306 1.691-8.7269 2.2982-15.37 3.882-3.4201-1.3762-6.0735-2.3985-9.1888-3.6265 0.46244-3.4201 0.66859-5.5133 0.97224-9.4933 4.3438-1.6324 9.7-4.1867 13.582-6.0242 4.0786 1.3567 9.4248 2.9384 12.835 3.931 4.4029-1.7801 8.6088-3.4691 12.825-5.1497 0.88308-3.5181 1.404-5.9849 2.3094-8.835" fill="#6EB92B"/>
 <g fill="#362B2E">
  <path d="m230.95 332.24c1.9751 1.4653 4.216 3.027 6.7022 4.56l1.808-0.82459c-5.4542-3.5577-10.82-7.685-16.952-12.511-17.454-13.749-41.413-22.603-57.884-22.977-15.517-0.3538-32.971 10.063-50.631 21.237-4.1176 2.6047-8.5105 3.7541-14.702 1.4542-20.982-24.539-5.14-49.934 7.0953-54.553-0.0279-1.1394-0.11137-2.7412-0.32315-3.8522-3.646 0.99174-9.3657 2.4654-13.611 3.5574-20.824 25.827-9.9061 53.491 2.9582 67.377 21.591 23.301 52.096 23.36 81.057 2.457 17.12-12.363 33.492-15.724 46.533-6.8596 2.9877 0.195 5.3954 0.57109 7.9505 0.93323"/>
  <path d="m39.645 201.55c-1.3957-0.87474-2.2314-1.404-3.4396-2.0252-4.3928 1.3762-8.835 3.1646-12.56 4.1767-3.6265-2.8008-6.6337-5.5623-10.309-9.1298 0.45128-4.2357 0.76607-7.862 0.86357-11.537-3.4691-3.0663-5.4149-4.6483-8.6286-7.1936-0.55994-5.2085-0.71873-8.1177-0.91373-12.304 3.8229-1.131 7.1446-2.1423 9.8964-3.1643 3.2724 3.1153 6.7415 6.5844 10.515 10.712-0.11137 3.7346-0.25071 7.7146-0.13929 11.39 2.1423 1.6324 3.931 2.8598 6.427 4.3341 3.4694 0 6.9482-0.46244 10.978-1.7884 1.1979 0.97222 2.3094 1.8191 3.4886 2.6632-2.2007 4.0783-4.0193 8.6088-6.1716 13.866"/>
  <path d="m35.318 221.09c-1.8191-0.16714-3.3315-0.29529-4.8843-0.38443-2.5545 1.8386-4.6976 3.5181-7.351 5.7687-6.378 0.35378-11.793-0.41231-16.844-1.1199-2.7523-2.7133-3.8326-3.8326-5.5623-6.486 3.2627-3.1153 5.0021-4.6976 7.911-6.6828 4.9531 0.70759 11.38 1.4263 15.419 1.6798 3.6755-2.3985 5.7099-3.7736 8.7759-5.3559 1.5935 0.11137 3.0858 0.27857 4.5895 0.54043-0.75771 3.8131-1.2397 6.722-2.0531 12.039"/>
  <path d="m35.168 239.58c-3.0562 1.4542-5.4347 2.7133-8.5205 4.2555-3.7051-1.287-5.6704-1.9055-9.3164-3.4791 1.9556-3.3708 3.7048-5.8963 5.8375-8.6971 4.6681-2.1534 7.9603-3.5674 11.675-4.9826-0.05568 4.8349 0.02792 8.4517 0.32315 12.903"/>
 </g>
 <path d="m82.55 116.42c-2.9975-1.9472-7.0463-4.1569-10.23-5.2968-5.8278 1.9946-10.683 3.9998-16.402 6.3189-0.49029 2.968-1.0029 6.5747-1.3372 9.0317 3.8722 1.2174 8.4715 2.8596 12.835 3.931 4.5798-1.9054 8.6484-3.5379 12.825-5.1497 0.87472-3.125 1.4737-5.6999 2.3094-8.835" fill="#fff"/>
 <path d="m65.902 98.255c-16.314-1.3762-38.475 22.879-48.224 43.89 16.53-22.014 31.979-34.573 48.224-43.89" fill="#fff"/>
 <g fill="#6EB92B">
  <path d="m77.189 93.166-1.4932-3.4003-3.5872-1.0614c-1.7494 2.7022-2.9972 4.7174-4.5305 6.9875l0.50979 1.6018c3.5477-1.7885 5.9554-2.9186 9.1002-4.1277"/>
  <path d="m33.233 105.48c-2.8501 2.1422-5.7392 4.9138-8.0489 7.6951 2.5935-0.96387 5.0514-1.7801 7.1251-2.5267 0.28416-1.574 0.50143-3.1056 0.92487-5.1695"/>
  <path d="m19.301 121.16c-2.5657 3.4201-5.3854 7.6656-6.7025 12.756 2.2119-2.6047 3.6167-4.0391 5.9261-5.8671 0.34265-2.4375 0.4513-4.4321 0.77722-6.8892"/>
 </g>
 <path d="m51.717 203.12c-3.2529 2.9679-5.0021 4.4814-8.3731 7.9112-1.925 4.8843-2.791 6.6925-4.943 11.803 1.2787 2.3874 2.2592 4.1962 3.5476 6.5156 2.2593-1.5127 3.5477-2.5545 6.093-4.511 1.5823-4.1569 3.3808-8.7464 5.7687-13.513-0.69643-2.8008-1.3956-5.4737-2.0921-8.206" fill="#fff"/>
 <path d="m87.49 237.49c-3.312 0.46244-5.0021 0.93323-8.7857 2.0949-1.4542 3.2036-3.312 7.6162-5.7002 12.333 1.925 2.7328 3.3217 4.7664 5.6411 8.0882 3.4396-0.3538 5.6999-0.81624 8.7269-1.17 1.4542-3.312 2.7908-6.5747 4.8843-10.938-1.6213-4.1867-2.9092-7.2627-4.7664-10.408" fill="#fff"/>
 <path d="m156.93 321.86c2.8794-1.5238 6.1618-2.9284 10.152-4.1079 0.52929-2.1116 0.64908-3.2234 0.87473-4.9235-2.8108-0.29529-4.9826-0.5293-8.0391-0.5293-4.4516 0.70758-7.3903 1.5238-10.732 2.6938-1.5238 1.769-2.1729 3.2922-3.2824 5.759-3.1153 1.7606-5.8768 3.4594-9.1593 5.2186-0.5293 1.5823-0.99173 3.3412-1.3455 4.6385 3.2234 0.63794 7.2134 1.6993 10.614 2.6938 3.3512-1.4653 7.4591-3.4003 11.331-5.0417-0.29529-2.8206-0.47079-4.3438-0.41229-6.3978" fill="#6EB92B"/>
 <path d="m54.714 301.45c-3.0663 1.3455-5.1004 2.2119-7.243 3.4398-0.61844 5.0316-0.73823 8.54-0.73823 11.547 1.8971 2.574 4.7862 5.4052 6.6337 6.9382 2.6325-2.1534 4.2357-3.3217 6.0735-4.609 0.13929-4.4814 0-8.7172 0.13929-12.707-2.457-2.2119-3.4396-3.2629-4.8547-4.6093" fill="#fff"/>
 <g fill="#6EB92B">
  <path d="m249.28 186.86c-1.5712-1.5238-3.6362-3.1939-5.5918-4.6681-4.1277 0.44294-8.7957 1.131-14.191 1.7188-1.6714 2.7022-2.8501 4.4714-4.5698 6.8794 1.8665 2.0058 3.4886 3.4788 5.4542 5.1495 4.216 0.0557 9.7192 0.11137 14.672 0.0557 1.769-2.6548 3.0958-5.4445 4.226-9.1297"/>
  <path d="m244.81 158.53c-1.8665-1.7188-3.7836-3.0955-6.0342-4.6681-4.3731 1.326-9.5816 3.6362-13.896 5.6019-0.98338 2.2119-1.5238 3.6853-3.0468 6.4763 2.0642 2.0141 3.7836 3.7343 5.5526 5.3559 4.9531-1.5238 9.6705-2.9972 14.722-4.3731 0.83573-2.9384 1.7188-5.6412 2.7022-8.3929"/>
  <path d="m229.97 121.52c-2.34-0.88586-5.1202-1.7104-8.9136-2.3985-3.5379 3.5379-7.2037 7.4491-11.125 11.685-0.11136 2.5935-0.25071 4.7466-0.31478 7.2034 2.2787 1.2675 3.5379 1.8971 5.5033 2.9092 4.3636-3.2825 10.044-7.5182 13.965-10.427 0.57109-3.3513 0.8246-5.9359 0.88309-8.9726"/>
  <path d="m213.6 104.77c0.0557-3.1053-0.0279-6.0537-0.195-9.8568-2.5935-0.57109-4.8648-1.0725-7.7736-1.326-3.3512 4.4814-5.4347 7.2627-9.2281 12.894-0.25073 4.1079-0.38443 6.0635-0.57109 9.4147 1.769 0.57107 3.7246 1.0697 6.0047 1.4542 4.6778-4.6191 7.6458-8.157 11.754-12.579"/>
  <path d="m183.27 80.456c-1.4736-3.066-2.5155-5.2575-3.8326-7.9308-2.5155 0.38443-4.4814 0.87472-7.0563 1.8581-2.2982 4.8154-4.9826 10.338-6.7811 14.879 0.87474 2.5267 1.7996 4.7074 2.6743 7.5575 3.017-1.0419 5.0907-1.5322 7.9405-2.4069 2.2397-4.324 4.4814-8.8645 7.0563-13.955"/>
  <path d="m156.79 69.949c-1.3176-2.1311-2.8401-4.7564-4.0491-7.3313-2.0837 1.2592-3.9407 2.457-6.6237 4.216-0.76609 4.2062-1.691 8.8055-2.791 13.405 1.4263 3.7739 2.0838 5.1988 3.3415 7.6065 2.574-1.0419 3.99-1.8664 6.0144-3.017 1.6993-5.464 2.9579-10.063 4.1079-14.879"/>
  <path d="m123.57 67.213c-2.0252-1.6408-4.2653-3.1741-6.8989-4.3731-1.613 1.6603-2.9777 3.1251-4.8648 5.4149 0.59895 4.5402 1.365 9.1395 2.2398 13.513 1.5322 1.4263 2.791 2.4654 5.0907 3.9998 1.7495-1.7606 3.4986-3.4496 5.1988-5.0417-0.22285-4.4812-0.49029-8.9724-0.76608-13.513"/>
  <path d="m99.605 73.616c-2.1924-0.93323-3.99-1.6408-6.7811-2.4069-1.0419 1.808-1.6408 3.0663-2.7412 5.14 0.98338 4.9333 2.0252 8.8152 3.4493 12.589 1.4737 0.76608 3.4496 1.7494 4.7567 2.5155 0.82458-1.5823 1.9751-3.1744 3.7836-4.9826-0.65744-4.3143-1.4263-8.4222-2.4654-12.855"/>
 </g>
 <g fill="#1C1819">
  <path d="m291.24 175.24c-4.4814 1.2174-10.555 2.4069-15.537 3.1646-1.6213 0.25072-2.6047 0.77723-3.4986 1.6408-6.9482 6.7123-12.255 12.009-19.822 19.645-0.88586 0.89423-2.6632 1.5628-4.5502 1.5238-13.906-0.27857-25.728-0.46243-40.529-0.46243-1.4542 0-1.9556-1.0809-1.8776-1.9946 1.17-13.69 0.19502-24.549-1.6603-35.035-9.739 4.5698-20.834 10.004-32.332 15.38 16.196-10.073 53.019-31.714 67.309-40.283 4.2257-13.07 8.0979-27.429 11.705-38.052 6.2011-6.1225 10.692-10.142 17.768-16.471 1.092-7.685 1.6603-15.046 1.73-20.559-2.3205 1.925-3.7148 8.2255-4.9235 17.729-0.0836 0.61844-0.22286 0.80508-0.59894 1.1394-5.2971 4.5798-10.162 8.8448-15.911 14.181-1.2592 1.17-1.7801 1.9862-2.2509 3.302-3.7248 10.506-6.8892 21.306-10.81 33.591-0.37329 1.1589-1.4068 2.7022-2.7328 3.5477-8.1865 5.1692-18.053 10.348-28.824 16.422-1.0112 0.57109-2.4264-0.0104-2.7523-1.1199-4.0391-13.896-10.496-25.227-18.525-34.18-8.8743 12.029-19.193 27.566-33.443 48.715 10.093-21.729 42.062-74.345 49.639-87.887-1.4458-11.046-3.4591-21.276-6.6824-34.504 3.1348-6.8499 7.1739-16.844 10.712-25.709-0.55994-1.131-1.6408-3.3708-2.2787-4.5795 0.11137 3.98-7.9113 21.001-11.822 29.433-0.25071 0.55158-0.27857 0.69643-0.11137 1.2982 2.5935 10.457 4.904 22.761 5.9654 32.706 0.0557 0.61844 0.0557 0.86359-0.28414 1.4458-6.4666 10.997-10.417 17.296-18.378 30.2-0.46243 0.74657-1.5127 0.98337-2.2509 0.38443-10.938-8.8645-23.733-14.319-36.873-16.687-1.652 7.8327-4.226 22.328-5.474 30.878 15.056 24.51 13.975 61.53 5.8768 93.863l0.77722 2.2982c2.1422-0.57108 4.2357-0.97223 6.7022-1.5517 0.75772-2.2398 1.092-4.216 1.5043-7.0758 0.32315-2.3177 1.3567-2.9286 4.0488-3.2724 23.881-3.0172 82.532-2.2899 102.39-2.1422 7.8126-7.97 16.451-16.795 23.321-23.94 8.5205-1.4653 13.326-2.5657 19.144-4.3338 3.0267-3.882 5.857-9.9061 7.921-14.122-2.9975 1.1394-5.2874 3.705-9.6016 9.9649-0.40393 0.59058-1.0224 1.1979-2.1729 1.5127"/>
  <path d="m92.58 96.694c0.59057 1.652 0.80508 2.8501 1.1895 4.5207 13.404 2.3874 27.478 11.459 35.546 19.911 0.64907-8.1862 1.287-18.584 1.7578-28.755-12.078-0.75773-28.932 0.64909-38.494 4.324"/>
  <path d="m125.5 143.58c-4.3536 2.3094-13.071 5.7197-20.697 8.6286-1.5628 0.59895-2.1812 0.71872-3.8326 0.25072-2.7412-0.76607-5.1497-1.4542-7.587-2.1617-2.9287-0.85522-5.2676-0.77722-7.0856 0.11137-4.8255 2.3874-11.537 6.5451-15.862 9.0217 6.0732-2.1228 13.346-4.9433 18.957-7.0265 4.7469 1.1199 9.2378 2.496 14.093 4.1274 5.8671-3.7245 18.269-7.7539 23.124-11.282-0.29529-0.72708-0.82457-1.8274-1.1115-1.6798"/>
  <path d="m99.32 323.11c12.697 17.7 37.816 21.916 61.117 11.911-21.778 2.9189-38.543-3.1251-46.759-12.992-3.8819 2.4375-10.476 3.0663-14.358 1.0809"/>
 </g>
 <g fill="#5FA223">
  <path d="m35.589 241.99c3.98 11.538 6.9184 22.23 3.6067 35.753-6.1323 25.011 6.1225 54.484 30.966 66.817 25.915 12.854 72.055 17.69 101.55-2.9975 10.172-7.1446 25.158-9.3852 37.02-3.5379 18.653 12.795 37.364 19.291 49.314 20.549 7.7539 0.81623 13.925 1.3065 21.336-1.6324 25.296-10.054 36.096-21.984 58.562-38.593 2.8106-2.0837 4.5207-4.9631 5.8178-7.7539 0.27857 0.95273-0.95273 5.5818-2.652 8.8448-11.704 8.9136-26.102 23.723-46.012 38.927-28.431 21.729-63.614 9.9552-77.687 1.4347-10.614-6.437-21.64-14.908-30.318-18.987-10.142 4.1374-31.33 31.3-77.333 32.077-16.225 0.27857-44.764-7.0265-55.388-13.808-29.286-18.692-32.303-59.044-20.687-84.762 3.8131-8.4417 5.5821-18.515 1.9055-32.333"/>
  <path d="m319.85 316.66c-4.4714 3.5379-9.7195 8.2848-13.69 14.584 4.6583-4.5798 9.8571-9.2871 13.867-12.157 0.16715-0.89424 0.0836-1.8776-0.16715-2.4264"/>
  <path d="m311.12 317.03c3.9212-3.2234 9.8175-7.577 15.075-10.506 0.39279-0.22287 0.41229-0.30365 0.65743-0.55993 2.6743-2.7802 5.3952-6.5944 6.6237-9.6212-0.27859 4.0488-2.0058 8.7072-4.6976 12.107-4.1864 2.2119-7.4198 4.1569-11.537 7.9012-2.1422 0.13929-3.4986 0.13929-6.1225 0.67695"/>
  <path d="m294.79 311.31c0.25071-1.9946 0.41229-4.4419 0.46243-6.2306-0.4318 1.9751-2.0642 3.4889-3.5869 3.8427-4.7762 1.092-11.793 4.845-17.326 11.39 7.8619-4.9628 13.07-8.8055 20.451-9.0022"/>
  <path d="m291.54 311.75c-2.9975 3.1254-4.9826 5.6509-8.0781 10.103 3.2724-3.1153 9.1492-7.9308 12.107-10.358-1.4932 0.0197-3.027 0.11137-4.0293 0.25073"/>
 </g>
 <g fill="#1C1819">
  <path d="m34.591 196.51c-2.5267 0.81622-5.5723 1.8191-8.2453 2.5852-1.3567 0.38443-2.1144 0.25071-3.302-0.65744-1.4932-1.1589-3.0861-2.4765-4.7076-3.9803-0.77722-0.71594-1.17-1.9361-1.092-3.0267 0.16714-2.4069 0.30364-4.9728 0.42343-7.292 0.11137-1.8191-0.54044-3.076-1.7494-3.941-2.8991-2.0837-7.6655-4.8843-10.604-6.9184 0.05569 0.80508 0.13929 1.6324 0.195 2.5072 3.3217 2.7133 5.7197 4.5993 8.786 7.3508-0.25072 4.5993-0.46244 7.2527-0.87472 11.331 3.2234 3.1643 5.8178 5.5623 10.26 9.1395 4.9531-1.5823 7.3511-2.5072 12.471-4.1176 1.7411 0.88309 2.5267 1.4263 3.6755 2.1116 0.27857-0.78558 0.75771-2.1116 1.1115-2.9482-0.96386-0.57109-2.0837-1.2397-3.1448-1.8665-1.0224-0.59058-1.8776-0.70758-3.2137-0.27857"/>
  <path d="m35.666 218.31c-2.1032-0.195-3.6953-0.3733-5.4838-0.50979-0.49029-0.0279-0.64908-0.0279-0.99172 0.195-2.3205 1.6408-4.3045 3.3217-6.4175 4.9138-0.40393 0.30365-0.57943 0.34264-1.092 0.36493-4.4126 0.11137-9.0317-0.0836-12.864-0.82458-2.0837-0.40394-4.1374-0.61844-8.0388-3.5379 1.1979 1.9361 2.9975 4.3338 5.4247 6.3192 3.99 0.95272 13.1 1.5934 16.815 1.1394 2.3094-1.9444 5.8083-4.5697 7.5477-5.5623 1.9862 0.0557 3.2922 0.22287 4.7957 0.40394z"/>
  <path d="m17.636 240.25c7.2625 2.0642 11.144-0.41229 17.464-3.744l0.22286 2.9089c-3.4396 1.8386-5.759 2.9482-8.6484 4.3438-3.744-1.326-5.4838-1.9751-9.0412-3.5087"/>
  <path d="m89.39 152.41c4.9235 1.1004 8.2355 2.2397 14.083 4.0098 4.56-2.1618 9.0414-4.4029 13.788-6.3978 3.1448 4.275 5.6999 12.589 4.5892 15.606-4.2455 11.636-37.187 20.146-41.482 18.653-2.8303-0.99173-5.474-19.36-2.7217-27.38 3.8427-1.5043 7.5968-2.8891 11.744-4.4912"/>
 </g>
 <g fill="#0f141b">
  <path d="m70.935 111.48c6.8499-9.2771 13.012-14.603 17.906-21.119-33.247 7.8918-57.884 35.32-70.453 51.801-2.0643 2.7022-2.5657 2.5462-1.0502-0.57943 10.142-20.972 29.62-43.801 48.892-44.096l-0.77722 1.131c-17.306 1.4263-34.455 20.461-44.705 38.701 12.255-15.989 35.566-40.598 68.685-48.469 1.7494-0.42344 2.0141 0.16714 1.1115 1.4347-5.5428 7.7146-11.282 12.491-17.66 21.011z"/>
  <path d="m19.127 115.15c0.05568-0.62958 0.11137-0.78559 0.71594-0.97223 5.3854-1.6018 8.2258-2.5462 11.921-3.931 0.68808-3.2824 1.2675-6.9677 1.8191-10.014 0.11137-0.63794 0.22287-0.79673 0.70758-1.0224 14.26-6.7025 27.497-10.771 38.956-14.063 1.4152-0.39277 1.613-0.11136 0.94437 1.1199-2.8105 5.2478-5.1692 8.7857-7.6653 11.999l-1.6213-0.11137c2.3679-3.017 5.0709-7.1446 7.1839-11.085-10.053 2.8008-23.399 7.0856-37.079 13.483-0.55994 3.1351-1.3177 6.663-2.0447 10.093-0.0836 0.39279-0.27859 0.59893-0.69924 0.76607-3.3905 1.2982-6.5549 2.4264-11.734 4.0588-0.47078 5.0414-0.86357 9.3459-2.0057 15.999-0.59058 3.4298-1.365 3.3412-0.92487-0.13929 0.86357-6.7318 1.1115-10.742 1.5238-16.206"/>
  <path d="m102.96 128.5c2.496 0.50979 4.9726 1.0112 7.6753 1.3957 0.27857 0.0279 0.48193 0.13929 0.68807 0.43179 1.6213 2.2982 3.5577 4.904 4.5305 6.3387 2.0058-0.16715 3.7641-0.30365 6.3192-0.71594 0.48193-0.0836 0.61842 0.0104 0.85521 0.43178 1.4458 2.6938 2.6938 5.4542 4.0095 8.5796 0.195 0.45129 0.16715 0.68808-0.27858 0.97224-6.1618 4.0196-13.326 6.3192-22.869 11.036-0.3733 0.16714-0.55159 0.22285-0.99174 0.0836-4.56-1.3845-9.2576-2.9186-13.523-4.0095-4.275 1.6408-11.154 4.3338-18.269 6.7318-0.45128 0.16715-0.55158 0.13929-0.88307 0.0836-10.496-1.5516-20.412-2.574-32.539-3.027-4.5795 0.64909-5.9359 2.3985-9.5621 2.5935-5.7392 0.31479-20.264-3.4103-20.864-6.7713-0.35378-1.9946 3.4791-16.972 4.5305-18.712 0.96388-1.5823 4.2848-4.9333 6.8301-6.7711l-0.22287 1.73c-2.2704 1.7996-4.7369 4.4419-5.5526 5.7785-0.93322 1.5322-4.5402 15.832-4.2257 17.572 0.4318 2.418 13.464 6.152 19.498 5.8178 3.5084-0.195 4.8057-1.8971 9.5621-2.418 12.196 0.4513 22.603 1.326 32.903 2.9189 7.0268-2.3679 13.876-4.9728 18.299-6.6532 0.31479-0.11137 0.4513-0.13929 0.79674-0.0279 4.3438 1.1115 8.9726 2.4069 13.601 3.8129 9.1693-4.9726 16.569-6.8596 22.485-10.623-1.248-2.9287-2.3985-5.2971-3.7246-7.7736-2.3679 0.27857-4.1867 0.50143-6.2602 0.64908-0.59057 0.0279-0.59893-0.0198-0.85521-0.40393-1.0419-1.5322-2.8108-3.99-4.5405-6.3189-2.7328-0.55158-5.0709-1.0307-8.5793-1.769z"/>
  <path d="m54.895 127.06c-4.0293 1.9946-9.0217 4.3831-13.198 5.9852-0.27857 3.4691-0.54044 5.5818-1.0029 8.5497 2.0336 0.79674 6.2699 2.3094 8.6088 3.2529 6.771-1.613 8.9723-2.0336 14.987-3.6655 0.3538-0.0836 0.50979-0.0279 0.87472 0.16715 3.1448 1.808 4.8943 2.9186 8.0291 5.4049 3.8622-1.1394 8.6776-2.5546 13.12-3.41 1.3455-3.9115 2.5545-6.958 4.3633-10.476 0.16714-0.32315 0.22286-0.3733 0.52093-0.50143 3.6165-1.4653 7.4394-2.8011 11.105-3.931 0.90258-2.5155 1.5322-4.5308 2.1729-7.4789-1.9751-1.4653-5.2773-3.9605-8.5302-6.3387-4.3143 0.40395-8.2943 1.17-13.316 2.3985-0.13929 0.0279-0.25071 0.0104-0.36214-0.0557-3.8034-2.4375-6.2504-3.5674-10.103-5.1105-5.2478 1.7801-10.486 3.941-15.596 6.1326-0.44294 2.1924-1.0307 5.9161-1.4152 8.7169-0.01945 0.16714-0.11137 0.28414-0.25071 0.35378m-0.89424-1.0725c0.39279-2.9189 0.72709-6.2897 1.1979-8.6188 0.05569-0.34265 0.16716-0.43179 0.46244-0.55994 5.2478-2.2397 10.771-4.5305 16.186-6.3582 0.28414-0.0836 0.46244-0.11137 0.78558 0.0279 3.99 1.6408 6.2306 2.8203 10.053 5.2478 4.9138-1.2675 8.8645-2.0141 13.218-2.5072 0.37328-0.0279 0.49029 0.0198 0.78557 0.22286 3.263 2.457 6.7025 5.1793 8.776 6.722 0.27859 0.195 0.3538 0.37328 0.28416 0.72707-0.66859 3.1939-1.2787 5.5526-2.2982 8.5007-0.0557 0.13928-0.16714 0.25073-0.30365 0.28415-4.1472 1.209-7.9408 2.4849-11.361 3.8034-1.7801 3.4886-2.9384 6.6925-4.275 10.623-0.13929 0.3928-0.29529 0.55158-0.72708 0.62958-4.5204 0.84409-9.4835 2.2899-13.395 3.4591-0.45128 0.13929-0.55158 0.11137-0.85523-0.13928-3.1549-2.5072-4.9631-3.8622-8.0391-5.6409-5.9356 1.6018-8.2157 2.3094-15.036 3.931-0.22286 0.0557-0.42343 0.0279-0.64908-0.0557-2.4069-0.97224-6.8399-2.8891-8.9136-3.705-0.44294-0.16715-0.55159-0.37329-0.49029-0.82459 0.44292-3.5084 0.61843-5.3559 0.82458-9.1888 0.02792-0.57944 0.16714-0.69644 0.61008-0.86358 4.4123-1.6798 9.2771-3.8524 13.159-5.7295"/>
  <path d="m83.19 116.34c-0.83573 3.1448-1.5043 6.1913-2.2314 9.1888-0.11137 0.38443-0.22286 0.54044-0.59058 0.65744-3.8131 1.2675-6.8892 2.5935-12.432 4.9726-0.30365 0.13929-0.65744 0.16716-0.99174 0.0836-5.3659-1.6324-7.2232-2.4849-13.021-4.2354l0.78558-1.17c5.2085 1.6603 7.636 2.379 12.697 3.8819 5.3364-2.2509 8.5205-3.7246 12.225-4.9726 0.81623-3.0958 1.5238-5.8375 2.34-8.6581z"/>
  <path d="m63.904 141.91c1.2787-4.6681 1.9751-7.7046 2.8206-11.557l1.5628-0.11137c-1.0112 4.4321-1.7606 7.1742-3.1056 11.773z"/>
  <path d="m90.998 133.6c-3.6755-2.9384-7.2232-5.2381-11.459-7.7341l0.89422-1.2285c4.275 2.5267 7.7048 4.904 11.557 8.0979z"/>
  <path d="m40.991 133.13c-4.4912 1.886-7.351 3.0172-12.176 4.855-2.7802 1.0614-3.2432 0.42343-0.34265-0.86638 5.0219-2.2202 7.4887-3.2922 12.373-5.4149z"/>
  <path d="m36.95 156.44c0.86359-6.2501 1.9166-10.506 2.457-14.672l1.248 0.27858c-0.55994 4.3633-1.5238 8.1667-2.4069 14.191z"/>
  <path d="m47.636 156.78c0.19502-4.3929 0.44294-7.8227 0.85523-11.37l1.4263 0.13929c-0.4708 3.5379-0.81623 6.771-1.092 11.203z"/>
  <path d="m10.871 137.63c1.4152-6.1028 4.0981-11.97 8.54-17.709l-0.195 2.3484c-2.574 3.8034-4.2945 7.0758-5.6409 10.712z"/>
  <path d="m24.121 113.6c3.1351-3.8817 5.4149-6.093 9.3557-9.1492l-0.22286 1.9361c-2.8796 2.379-4.6093 3.9313-6.8401 6.5354z"/>
  <path d="m80.788 91.886c-1.6408-4.1176-3.4396-8.2158-5.1105-12.147-3.2526-0.82459-8.7071-2.1924-14.633-3.4003-0.25071-0.05568-0.39279-0.16714-0.52929-0.46243-3.6755-7.0856-5.4838-10.24-8.4124-15.478-4.1965-0.87472-6.663-1.5517-11.105-2.7217-0.11137 3.7739-0.50144 8.4124-0.92487 12.805 2.4264 4.9728 5.6606 10.948 8.206 16.913 0.11137 0.25071 0.11137 0.4513 0.01975 0.74657-1.0725 3.2332-1.8191 5.0414-3.0072 7.2527l-1.8079 0.54044c1.7689-3.2334 2.5155-5.0316 3.5379-8.1274-2.5267-5.8768-5.8768-11.626-8.2943-16.677-0.11137-0.22287-0.195-0.4513-0.13929-0.86359 0.43179-4.609 1.1394-9.12 1.2675-13.247 0.01945-0.62958 0.25072-0.76607 0.86359-0.61008 4.7567 1.2369 7.6065 1.8665 11.862 2.652 0.40393 0.05568 0.45128 0.13929 0.67972 0.52929 2.9677 5.3069 4.5892 8.5007 8.2453 15.557 5.513 1.2285 11.518 2.2704 14.879 3.1253 0.43179 0.11137 0.50143 0.19502 0.65744 0.57944 1.6798 4.1471 3.2234 8.4027 4.8645 12.648z"/>
  <path d="m84.057 97.086c0.32315 0.82459 0.63794 1.6603 0.96386 2.496l-1.2982-0.195c-0.16714-0.44294-0.34265-0.88309-0.52093-1.3372z"/>
  <path d="m57.003 90.968c-0.57943-1.4152-0.86359-2.0141-1.4932-3.3708-0.79672-1.73-0.195-2.0141 0.83573-0.41231 0.62958 0.99174 1.1115 1.769 1.9361 3.4006z"/>
  <path d="m76.667 93.568c-0.34265-0.80508-1.0029-2.2509-1.4932-3.2036-1.0614-0.39279-1.8971-0.64909-3.4594-1.131l0.59894-1.0809c1.1199 0.3343 2.1729 0.61844 3.361 0.95273 0.28416 0.0836 0.4513 0.16714 0.61844 0.49029 0.55994 1.0614 1.209 2.6242 1.5823 3.4986z"/>
  <path d="m67.742 97.623c-0.13929-0.3538-0.4513-1.0725-0.59894-1.4263l0.98338-1.4152c0.22286 0.55157 0.65744 1.613 0.87472 2.1618z"/>
  <path d="m79.139 156.3c3.1939 2.5935 4.8745 6.388 4.5009 10.938-0.22286 2.7523-0.80508 2.7328-0.93323-0.0557-0.195-4.6093-1.6714-7.6263-5.0612-10.289z"/>
  <path d="m86.402 170.87c1.4848-0.77722 3.2627-1.3762 5.3069-1.8191 1.9472-0.42343 2.1617 0.38443 0.22286 0.89423-1.7885 0.46244-3.3513 1.0725-5.2088 1.7884-1.7968 0.68808-2.2119 0.11137-0.33429-0.86637"/>
  <path d="m82.856 98.404c36.244 4.4029 60.262 25.64 63.103 64.419 0.22286 3.1351-0.59058 3.2039-0.91373 0.0836-3.8917-37.423-26.151-58.326-63.309-63.073z"/>
  <path d="m71.117 159.78c-20.726 14.633-41.58 49.423-33.718 87.976 1.886 9.2378 1.2675 18.387-2.8696 26.908-13.365 27.566-6.6532 73.352 28.116 87.268 36.637 14.663 74.719 16.274 115.72-16.215 10.968-8.6974 20.52-11.017 29.267-8.4124 2.7412 0.81621 2.5462 1.5238-0.25071 0.89422-8.4715-1.9166-18.024 0.72708-28.254 8.8843-41.541 33.158-80.93 31.261-117 16.903-37.708-14.997-43.084-61.668-29.08-89.882 3.8034-7.6753 4.6976-17.464 2.9089-26.053-7.9996-38.317 10.751-73.333 33.718-89.018z"/>
  <path d="m187.93 340.41c19.852 9.071 34.023 29.168 71.043 29.512 21.11 0.195 35.811-10.525 60.203-32.657 6.0635-5.5035 14.849-13.199 21.385-18.132 1.7996-3.9212 2.8008-7.7344 2.6047-8.1077-0.22286-0.40393-6.624-0.97222-10.506-0.44293-6.8401 4.5012-16.029 11.606-24.707 19.734-2.2202 2.0726-2.7412 1.574-0.66857-0.64907 8.1174-8.7072 17.807-15.606 24.686-20.127 0.195-0.13929 0.39279-0.16715 0.62958-0.195 4.0391-0.45129 11.144-0.33429 11.852 0.69644 0.61844 0.89422-0.84408 5.6016-2.6437 9.5718-0.13929 0.31479-0.30366 0.46243-0.57109 0.66857-6.0537 4.6976-14.958 12.668-20.991 18.24-24.136 22.299-38.838 33.227-61.245 33.02-37.571 0.16714-53.54-21.002-72.891-30.043z"/>
  <path d="m319 319.76c0.40392-1.3762 0.40392-2.2982 0.29529-2.4654-0.22287-0.30364-5.0021-0.11137-7.1054 0.25073-4.1374 2.6437-7.0856 4.9923-11.97 9.6604-2.0838 1.9862-2.7607 1.4737-0.64908-0.65743 5.0709-5.13 7.6065-7.243 11.734-10.122 0.195-0.13929 0.37328-0.195 0.67693-0.25072 2.3679-0.41229 8.2158-0.89423 8.7955-0.13928 0.195 0.25071 0.16714 1.4458-0.0836 2.3874z"/>
  <path d="m315.85 316.51c3.99-3.4886 8.3829-6.4958 12.481-8.5793 2.5852-3.9998 4.0095-7.6753 4.5204-10.859-3.017 0.28414-7.1937 0.32315-11.154 0.33429-11.705 3.7541-23.95 12.235-36.489 23.655-2.2899 2.0921-2.9189 1.6408-0.64909-0.65744 11.96-12.127 24.667-20.117 36.617-24.156 0.22286-0.0836 0.30365-0.0836 0.50144-0.0836 3.9112-0.0836 8.0291-0.31479 11.361-0.63794 1.17-0.11137 1.4932-0.0279 1.3566 1.2285-0.40393 3.7346-1.9946 7.4887-4.845 11.862-0.13928 0.22286-0.29529 0.37328-0.62958 0.54878-3.7934 1.9166-7.1051 4.1965-10.82 7.3511z"/>
  <path d="m294.78 312.11c-4.9628 0.11137-9.5916 1.9055-19.016 7.9898-2.4459 1.5739-2.9777 1.1004-0.54043-0.75773 9.4443-7.2134 14.555-8.7367 19.724-8.835z"/>
  <path d="m258.23 359.21c-1.9166-0.34267-1.8191-1.092 0.13929-0.91374 6.093 0.5488 12.569 0.44294 20.382-1.6715 1.9751-0.54042 2.2593 0.19502 0.31479 0.86359-7.2037 2.496-15.066 2.7412-20.825 1.7188"/>
  <path d="m97.532 321.07c4.6681 3.1056 10.643 3.4594 16.019-0.13929 17.286-11.547 35.045-21.453 51.123-21.247 17.375 0.22286 41.757 9.7095 58.346 23.085 12.648 10.191 21.336 16.628 34.475 21.994 3.4889 1.4263 3.0368 2.0447-0.33429 0.86357-12.343-4.3538-22.544-11.793-35.094-21.571-16.235-12.638-40.676-22.289-57.422-22.594-15.655-0.27859-32.755 10.221-50.081 21.06-4.894 3.0565-10.063 3.7836-14.761 1.3566z"/>
  <path d="m217.98 320.14c-12.648-4.4026-26.249-2.496-41.177 5.8573-1.7801 0.99172-2.3595 0.33428-0.46243-0.80508 13.818-8.3141 26.151-10.623 38.121-7.4689z"/>
  <path d="m145.56 338.72c6.2011-1.1784 10.751-2.457 15.989-5.0612 2.1227-1.0502 2.4765-0.3733 0.43178 0.82458-5.0907 2.9679-9.7883 4.2945-16.265 5.1495-2.2202 0.29529-2.5852-0.4513-0.16714-0.91373"/>
  <path d="m93.212 268.33c-21.64 26.839-8.6679 54.386 2.613 66.562 21.011 22.682 50.877 23.684 80.242 2.496 18.132-13.09 34.701-15.311 47.418-6.4468l-0.77723 0.93323c-12.245-8.2648-28.136-5.798-45.934 7.0466-28.156 20.313-59.457 21.64-81.971-2.6743-11.479-12.392-25.188-41.109-2.7412-68.508z"/>
  <path d="m235 82.12c-10.122 1.3372-19.684 2.7718-28.598 3.9605-28.598 40.205-44.941 63.83-58.012 83.17-2.3985 3.5577-3.0565 3.1351-0.78558-0.49029 11.813-18.849 28.696-43.477 57.363-83.78 0.27857-0.37328 0.36214-0.48193 0.83573-0.54044 9.1986-1.2174 18.898-2.3289 28.962-3.6067 6.2897-5.9654 13.021-12.736 18.584-18.898 0.27857-0.31479 0.39279-0.40394 0.94436-0.34265 6.7318 0.69922 10.791 1.0809 15.655 1.3956 0.57943 0.02792 0.75772 0.19502 0.73823 0.89424-0.22288 6.7022-0.57945 12.098-1.769 20.422-0.0557 0.38443-0.0557 0.44292-0.38444 0.73821-4.1572 3.9605-9.8964 9.0512-17.68 16.157-4.216 13.395-6.5844 22.475-11.243 37.669-0.13929 0.39279-0.19502 0.49029-0.61844 0.73822-15.144 9.4248-48.371 28.274-58.582 34.74 16.471-8.3043 41.757-20.422 61.727-29.561 0.40394-0.195 0.50979-0.195 0.87472-0.0279 7.2332 3.0562 15.842 7.2624 27.478 13.08 8.54-1.6324 13.591-2.8106 20.245-4.0586 0.49029-0.11137 0.62957-0.0836 0.88308 0.13928 5.4935 4.4617 7.2527 5.9259 11.862 9.2083 0.57108 0.40393 0.61008 0.57943 0.27857 1.2174-2.5072 4.7272-4.2945 8.157-7.8324 13.729-0.25073 0.41229-0.3538 0.52094-0.83573 0.66858-6.1521 1.8776-10.879 2.9089-18.938 4.1471-8.7172 9.3362-15.439 16.235-22.83 23.714-0.28414 0.28416-0.49029 0.38445-0.92487 0.38445-35.222-0.44294-74.217-0.71874-102.02 2.0057-3.027 0.29529-3.3808 1.0419-3.8131 3.8524-4.2552 27.183-20.147 47.801-42.003 57.501-10.879 4.8352-28.657 35.065 5.228 62.012 2.496 1.9862 1.8971 2.5267-0.55995 0.73823-35.831-26.121-17.66-58.779-5.2676-64.262 21.591-9.5326 36.991-31.202 41.148-56.076 0.62958-3.7641 1.2397-4.7076 5.1102-5.0809 27.753-2.6326 67.093-2.7022 102.11-2.2899 7.4296-7.5082 14.152-14.024 22.83-23.35 0.29529-0.31479 0.40393-0.38443 0.77723-0.44294 7.7243-1.326 12.51-2.2982 18.662-4.3831 3.3808-5.3364 5.2578-8.7072 7.6555-13.208-4.3536-3.0955-6.034-4.4516-11.282-8.7266-6.5944 1.1784-11.832 2.1924-20.274 3.8031-0.33428 0.0557-0.46243 0.0279-0.75773-0.11137-11.586-5.7882-20.038-9.5916-27.242-12.648-20.372 9.1395-44.715 20.824-69.589 32.834-4.1569 2.0058-4.9138 1.3177-1.0224-1.1199 17.866-11.164 50.278-30.121 65.972-39.713 4.5698-15.066 7.4494-24.284 11.577-37.453 0.0557-0.195 0.11137-0.28415 0.29529-0.46243 7.7539-7.0758 13.316-12.579 17.483-16.53 1.1394-8.0291 1.73-13.14 1.9556-19.567-4.4617-0.39279-8.491-0.52094-14.889-1.131-5.4935 6.0732-12.52 12.658-18.839 18.672-0.16714 0.16715-0.32313 0.25072-0.62957 0.28415"/>
  <path d="m137.57 220.49c-1.1979-2.5044-2.1729-4.5597-4.1965-8.491-2.9186 1.1589-4.55 2.0726-7.8029 3.9507-1.847 3.6265-3.6853 7.4689-5.1498 12.157-0.11137 0.3538-0.195 0.4513-0.57107 0.65745-3.7739 2.1032-6.2209 2.9777-10.132 4.3734-0.59893 0.22286-0.74657 0.13929-0.97222-0.46243-1.2369-3.3906-1.9946-5.6214-3.0465-9.7786-0.11137-0.38445-0.11137-0.57945 0.0104-0.89424 1.847-4.6483 3.0958-7.3118 5.1497-11.911-0.95273-2.1924-2.2314-5.5623-3.6755-8.9921-2.4375 0.69922-5.464 1.7996-8.9136 2.9679-1.9166 3.9803-3.7443 7.302-5.5526 11.174-0.195 0.45129-0.32315 0.59058-0.83573 0.66858-4.0491 0.62958-7.931 1.5238-12.058 2.3595-1.2397 3.7343-2.4264 6.5254-4.4617 11.233-0.13929 0.29528-0.22286 0.38443-0.65744 0.55994-3.302 1.3177-5.3659 2.0141-9.7685 3.2627-2.1032 3.656-3.6362 8.1962-5.1497 12.53-0.11137 0.3343-0.13928 0.38444-0.54044 0.5098-2.652 0.82458-5.1397 1.7383-6.9284 2.496-0.44292 0.19502-0.55158 0.13929-0.81622-0.13928-1.3372-1.5127-3.41-3.7246-4.7369-4.9826-0.27857-0.27859-0.30365-0.4318-0.195-0.85523 0.98336-3.3217 2.9777-8.0291 5.3952-13.287-1.2787-1.3566-2.5462-2.5267-4.4026-4.3045l0.84409-0.95273c1.9556 1.8386 3.0267 3.0072 4.56 4.6288 0.34265 0.35379 0.31479 0.52928 0.11137 0.98337-2.3289 5.1102-4.0686 9.7292-5.0612 13.041 1.2787 1.248 2.8498 3.2136 4.1274 4.6681 1.9361-0.93323 3.9313-1.73 6.4863-2.5935 1.5517-4.4422 3.0072-8.6484 5.2183-12.442 0.195-0.35379 0.29529-0.3928 0.65744-0.4903 4.4617-1.2675 6.4468-2.0057 9.7588-3.2429 2.0252-4.6781 2.8891-7.5772 4.1472-11.341 0.13929-0.45128 0.29529-0.59893 0.76609-0.68807 4.1274-0.83573 8.3336-1.5433 12.422-2.1924 1.7494-3.7443 3.351-7.2627 5.3364-11.41 0.195-0.38445 0.32315-0.48195 0.72708-0.59894 3.6557-1.131 6.8006-2.0252 9.4248-2.7607 0.62959-0.195 0.81623-0.13928 1.0502 0.43179 1.5628 3.7739 3.0072 7.1251 3.9998 9.3952 0.16714 0.39279 0.13928 0.55159-0.0279 0.97224-2.0726 4.6583-3.1643 7.1839-5.0021 11.803 1.0112 3.9702 1.5043 6.2799 2.6242 9.3852 3.6165-1.2982 5.8473-2.496 9.3952-4.4617 1.5043-4.7269 3.2822-8.5105 5.1397-12.166 0.16714-0.33429 0.28414-0.44294 0.55157-0.59059 3.4791-2.0141 5.2283-2.6827 8.4124-3.941 0.43179-0.16714 0.72708-0.16714 0.94437 0.22286 2.1729 4.226 3.4493 6.5549 4.6976 9.1888z"/>
  <path d="m47.558 224.4c1.5043-3.9505 3.2432-8.4417 5.6016-13.188-0.44294-1.7885-1.3177-5.2676-1.7578-7.017-2.3595 2.1422-4.6879 4.3734-7.4887 7.2134-1.2369 3.1546-2.7133 6.4568-4.7959 11.38 1.5433 2.8894 2.2899 4.3928 3.0172 5.7097 1.5712-1.0725 3.8326-2.8696 5.4247-4.0981m0.76609 1.1199c-1.691 1.2982-4.1374 3.017-5.9752 4.2357-0.46243 0.30364-0.65745 0.27857-0.94438-0.25071-1.2787-2.3289-2.2982-3.8132-3.5869-6.2011-0.16716-0.34266-0.16716-0.5098-0.05568-0.8051 2.1617-5.1004 3.5184-8.4222 4.7762-11.606 0.0836-0.19501 0.16714-0.30365 0.35378-0.48194 2.8501-2.9089 5.8966-5.4247 8.2846-7.5867 0.66859-0.61008 0.95273-0.50978 1.131 0.22286 0.47078 1.7996 1.6213 6.1128 2.0837 7.9603 0.05568 0.28416 0.05568 0.44294-0.11137 0.76609-2.4069 4.8157-4.0686 9.2674-5.5918 13.257-0.0836 0.22286-0.13929 0.30364-0.38443 0.49029"/>
  <path d="m35.041 224.48c0.99174-0.72708 1.7383-1.2397 3.0465-2.1924l0.59894 1.1004c-1.5127 1.1394-2.4654 1.7578-3.7245 2.7133z"/>
  <path d="m35.487 240.97c1.3956-0.67695 2.418-1.2787 4.0196-2.3484 0.61008-3.5477 1.1784-6.2699 1.9361-9.6309l1.1589 0.13929c-0.76607 3.41-1.1589 6.3092-1.7884 9.9552-0.05568 0.33428-0.13929 0.43178-0.5098 0.65743-1.5823 0.95273-3.4493 1.847-4.6385 2.457z"/>
  <path d="m73.796 251.84c1.7801 2.5657 2.9874 4.4224 5.13 7.5279 3.2627-0.46244 5.3364-0.86359 7.9798-1.287 1.3455-3.0072 2.9877-7.0268 4.5308-10.24-1.4653-3.9407-2.613-6.8103-4.2653-9.6407-3.0368 0.44294-4.5207 0.85523-7.9603 1.9862-1.3065 2.9384-3.6853 8.2255-5.415 11.655m4.216 8.3731c-2.3094-3.302-3.5379-4.9628-5.5033-7.7636-0.25071-0.36493-0.28414-0.52094-0.11137-0.89424 1.769-3.5084 4.1472-8.9626 5.4935-12.098 0.195-0.44294 0.34265-0.54044 0.68808-0.64909 3.7641-1.1505 5.4152-1.5043 8.5796-1.925 0.49029-0.0557 0.66857-0.0197 0.95273 0.46243 1.964 3.3117 3.2432 6.1618 4.7664 10.083 0.16714 0.40393 0.13929 0.54044-0.05568 0.91372-1.5712 3.2822-3.2432 7.282-4.7171 10.653-0.16714 0.37328-0.37328 0.52093-0.75771 0.55158-2.8696 0.25071-5.1692 0.74657-8.4024 1.1004-0.59893 0.0557-0.63794 0-0.94437-0.43178"/>
  <path d="m73.309 252.47c-3.4396 0.69643-5.4247 1.2397-7.921 2.2815-0.4318 0.16715-0.57945 0.13929-0.87472-0.195-2.535-2.8894-4.2848-5.4445-5.9456-8.491l0.96386-1.131c1.6603 3.1251 3.312 5.7097 5.6804 8.6384 2.4375-0.99174 4.3734-1.5628 8.0388-2.3874z"/>
  <path d="m105.62 268.87c-0.0279-1.1979 0-2.0838-0.13929-3.0267-4.3928 1.1589-9.6702 2.3177-12.845 3.0267-0.40393 0.11137-0.59057-0.0279-0.79672-0.34265-2.34-3.3808-3.41-5.4838-5.1102-9.4543l1.2285-0.71594c1.6798 4.0981 2.652 6.1718 4.7661 9.1888 3.0468-0.69643 8.0784-2.0837 12.864-3.3315 0.77722-0.19501 1.0502-0.16716 1.1895 0.61007 0.16714 0.95272 0.25071 2.0141 0.30365 3.3315z"/>
  <path d="m54.143 301.71c-0.11137-0.11137-0.16716-0.27857-0.13929-0.42343 0.98338-5.13 1.4848-7.7149 2.1423-12.265-1.7885-1.7104-3.2529-3.2137-5.2676-5.1793-2.1534 0.79672-3.8819 1.4737-6.0635 2.5267-0.94437 3.5084-1.4848 6.1027-2.1422 11.282-0.05568 0.41231-0.16714 0.68809-0.54044 0.94438-1.691 1.1589-2.9089 2.1422-4.6191 3.371-0.49029 4.1176-0.57107 8.0486-0.25072 12.451 1.5322 2.8401 2.2007 3.98 3.6262 6.1125 1.7188-1.4263 2.7328-2.4069 5.1202-4.4516 0.40394-0.34265 0.64909-0.38443 0.99174 0.0279 2.2314 2.7412 3.4691 4.0391 6.3682 6.5156 2.2815-1.9862 3.1646-2.6242 5.4149-4.2357 0-3.8622 0.0104-7.626-0.05568-12.039-1.7411-1.808-3.2529-3.312-4.5895-4.6486m1.17-0.66857c1.3762 1.3762 2.5852 2.535 4.501 4.5012 0.195 0.195 0.25071 0.35378 0.27857 0.70758 0.05568 4.5892 0.11137 8.4121 0.11137 12.422 0 0.37328-0.02792 0.52093-0.42344 0.76607-2.3289 1.5127-3.3217 2.2899-5.9164 4.4026-0.34265 0.27857-0.59893 0.25071-0.98336-0.0557-3.0861-2.5545-4.3045-3.7245-6.4471-6.2897-2.1032 1.7495-3.066 2.496-5.2085 4.3045-0.42343 0.3538-0.66857 0.28415-0.96386-0.13929-1.7105-2.418-2.4654-3.646-4.0391-6.3487-0.16714-0.28416-0.22286-0.40395-0.25072-0.77724-0.33429-4.5798-0.33429-8.5598 0.195-12.835 0.05569-0.38444 0.16714-0.59059 0.42344-0.74659 2.0642-1.3065 3.0858-2.1534 4.8745-3.5282 0.62959-5.2283 1.1589-8.0388 2.0531-11.606 0.11137-0.38443 0.22287-0.52092 0.5098-0.64907 2.4459-1.0502 4.1767-1.6715 6.673-2.6047 0.4513-0.16715 0.61008-0.11151 0.96388 0.25072 2.1534 2.1422 3.8131 3.7245 5.6214 5.3461 0.27857 0.25071 0.34265 0.41229 0.25072 0.93321-0.82458 4.7567-1.248 7.4592-2.2007 11.95"/>
  <path d="m47.763 305.46c-0.44292 0.25072-0.73822 0.27857-1.1505-0.22285-1.9862-2.379-3.6165-4.5795-5.0511-6.948l0.86359-0.99173c1.3455 2.2314 3.0958 4.56 5.0316 6.6334 2.4877-1.2174 4.4814-2.1227 7.2232-3.3117l0.27859 1.1979c-2.5267 1.0419-4.8155 2.3177-7.1937 3.646"/>
  <path d="m45.798 317.13c0.11137-4.4124 0.3733-9.1002 0.81623-12.864l1.3762 0.3343c-0.44292 3.7836-0.67693 8.2258-0.79672 12.668z"/>
  <path d="m81.206 352.79c3.705 1.1394 6.8596 1.6018 10.496 1.8665 0.50979-1.808 0.91372-3.9407 1.0697-5.7392-2.5935-1.886-5.5623-4.1276-7.921-6.2011-2.574-0.29529-5.6116-0.76607-8.5598-1.3177-0.95273 1.326-1.6519 2.3289-2.8501 3.9112 2.2982 2.8401 4.7369 5.2676 7.7639 7.4786m10.83 3.0368c-3.9703-0.0836-7.3705-0.68808-11.076-1.7104-0.195-0.0557-0.38443-0.11137-0.59058-0.27857-3.1643-2.2704-5.6409-4.904-8.3336-7.9603-0.22286-0.27857-0.27857-0.4708-0.02792-0.79672 1.3065-1.6798 2.2593-2.9874 3.3217-4.55 0.25072-0.36216 0.31479-0.46244 0.86357-0.36216 3.1646 0.55993 6.2406 0.91373 8.8548 1.1979 0.27859 0.0279 0.3733 0.0836 0.61844 0.29529 2.4069 2.1311 5.3461 4.2455 8.0093 6.1813 0.29528 0.195 0.44292 0.44294 0.38443 0.91373-0.27857 2.1617-0.79674 4.8943-1.3845 6.6632-0.11137 0.33429-0.31479 0.40393-0.63794 0.3928"/>
  <path d="m156.58 327.78c-0.27857-2.5044-0.33429-4.0193-0.28414-5.9947 0.0104-0.16714 0.11137-0.31479 0.25071-0.39279 3.1448-1.6714 6.3978-3.1251 9.975-4.1965 0.40393-1.6798 0.61008-2.5852 0.78558-3.8917-2.0921-0.25072-4.3536-0.40393-7.3413-0.38443-4.4516 0.70758-7.2329 1.5127-10.368 2.613-1.3455 1.574-2.2202 3.2727-3.1939 5.415-0.0279 0.0836-0.11137 0.16714-0.195 0.195-3.2824 1.886-6.8499 4.1572-8.8646 5.238-0.44292 1.3372-0.90536 2.5657-1.2285 3.7544 3.6752 0.75771 7.5867 1.7383 9.8471 2.3985 3.2922-1.4347 8.3829-3.8129 10.614-4.7662m1.4737 0.54044c0.0195 0.195-0.11137 0.39279-0.28416 0.47079-2.3205 0.99172-7.8522 3.5872-11.302 5.0907-0.29529 0.13929-0.55157 0.13929-0.95273 0.0197-2.2899-0.67694-6.5253-2.0448-10.378-2.8108-0.32315-0.0557-0.44293-0.27858-0.35379-0.57945 0.34266-1.2675 0.73823-3.1448 1.2174-4.5993 0.13929-0.43179 0.16714-0.48193 0.50979-0.65744 1.925-1.0419 5.9456-3.1741 8.9428-4.9038 1.0224-2.2509 1.7104-3.99 3.1549-5.7687 0.11137-0.13929 0.22286-0.22286 0.44294-0.29529 3.2432-1.131 6.4468-1.8776 10.673-2.6437 0.13928-0.0197 0.29529-0.0279 0.41229-0.0279 2.9092 0.0557 5.0319 0.195 7.5773 0.61843 0.64908 0.11152 0.86357 0.30365 0.77723 0.91373-0.195 1.4068-0.34265 2.9777-0.81624 4.8547-0.0279 0.16714-0.16714 0.28414-0.32315 0.33428-3.5181 1.0307-6.7318 2.2509-9.8273 3.8719-0.0279 1.7801 0.27859 3.6755 0.5293 6.1128"/>
  <path d="m156.9 322.5c-3.705-0.54042-7.2527-0.98336-11.773-1.2285l0.98338-1.1199c4.0488 0.22286 7.2134 0.57944 11.675 1.1895z"/>
  <path d="m39.501 202.18c-1.326-0.83573-2.2314-1.3845-3.3415-1.964-4.324 1.365-8.4024 3.0858-12.107 4.1472-0.42344 0.11137-0.57109 0.11137-0.91373-0.16714-3.7541-2.8991-6.722-5.6116-10.23-9.0119-0.28414-0.28414-0.34265-0.42342-0.30364-0.83573 0.50143-4.6385 0.88307-7.7834 0.98336-11.036-3.2922-2.9089-5.1887-4.2062-8.4222-6.7811-0.31479-0.25071-0.36494-0.37328-0.40394-0.76607-0.55994-5.1397-0.48193-7.7146-0.68807-12.009-0.02792-0.59056 0.11137-0.70758 0.64908-0.86357 3.3805-0.99173 6.4173-2.0531 9.3755-3.1448 0.4513-0.16715 0.70758-0.11137 0.99172 0.16715 3.8229 3.636 7.0168 6.7908 10.378 10.486 0.28414 0.30364 0.33429 0.40393 0.32314 0.89422-0.11137 3.656-0.30364 7.1742-0.28414 10.84 2.1227 1.6603 3.5281 2.613 6.0342 4.0095 3.7541-0.0279 6.673-0.52931 10.407-1.769 0.50144-0.16715 0.64909-0.16715 1.0307 0.195 0.96388 0.88587 1.7801 1.5517 3.1253 2.4654l-0.67693 1.1895c-1.2982-0.84409-1.964-1.3065-3.1546-2.2788-3.7836 1.0224-6.9087 1.5238-10.633 1.5127-0.46244 0-0.65744-0.0836-0.93323-0.25072-2.3985-1.4152-3.9112-2.4459-6.0832-4.1374-0.28416-0.22287-0.28416-0.34264-0.30365-0.79673-0.11137-3.7246-0.0836-7.4491-0.02792-10.889-3.2432-3.5577-6.2306-6.6532-9.8964-10.162-2.8206 1.0307-5.8966 1.8191-9.0905 2.7523 0.195 4.0293 0.42344 6.6337 0.94437 11.488 3.2134 2.5462 4.845 4.0293 8.206 6.9973 0.33429 0.28414 0.34265 0.41229 0.33429 0.82458-0.0836 3.2922-0.13929 6.329-0.64908 10.987 3.351 3.263 6.1323 5.7395 9.6997 8.5205 3.6165-0.96388 7.5377-2.3874 11.97-3.8229 0.39279-0.13929 0.54044-0.13929 0.92487 0.0836 1.2592 0.69644 1.9055 1.0809 3.1744 1.9166z"/>
  <path d="m35.314 221.66c-1.6603-0.13929-3.1351-0.22286-4.6976-0.32314-2.4654 1.7884-4.3143 3.3415-6.9382 5.5623-0.195 0.16714-0.33429 0.27857-0.76609 0.29529-6.3484 0.29529-11.488-0.31479-16.599-1.1004-0.43179-0.0557-0.61008-0.13928-0.87472-0.41228-2.6827-2.7022-3.5869-3.9605-5.2381-6.3484-0.30364-0.44294-0.25072-0.69645 0.0836-1.0224 3.2134-3.0465 4.6581-4.2455 7.7046-6.5747 0.29529-0.22286 0.50144-0.27857 0.89424-0.22286 5.0807 0.73823 11.046 1.4263 14.967 1.6798 3.0367-1.9862 5.5918-3.8229 8.3829-5.2676 0.28414-0.13929 0.4708-0.22286 0.80508-0.19501 1.5517 0.11137 2.8894 0.27858 4.6191 0.57944l-0.27859 1.404c-1.5712-0.27857-2.8498-0.38443-4.3929-0.4318-2.6938 1.3957-5.3659 2.9975-8.4419 5.0121-0.25072 0.16714-0.4708 0.195-0.84409 0.16714-3.8917-0.25071-9.7786-0.74659-14.909-1.4737-2.6715 1.8386-4.2552 3.0565-7.3017 5.9557 1.4152 2.1032 2.6437 3.3805 5.13 5.6506 4.8547 0.76608 10.044 1.4653 16.235 1.131 2.6325-2.2202 4.5402-3.6165 7.056-5.4247 0.27857-0.195 0.38443-0.22286 0.72708-0.22286 1.6213 0.0836 3.017 0.22286 4.7269 0.3928z"/>
  <path d="m35.385 240.1c-3.0072 1.5127-5.2874 2.6938-8.255 4.3045-0.37328 0.195-0.64908 0.16714-1.0725 0.0197-3.4298-1.2592-5.8375-2.2119-8.9136-3.5379-0.52929-0.22286-0.61008-0.42345-0.28414-0.97224 1.8191-3.1348 3.3513-5.4935 5.6999-8.5793 0.11137-0.16715 0.25072-0.29528 0.50979-0.40393 4.9038-2.2592 7.6656-3.2825 11.901-4.943l-0.05569 1.248c-3.5674 1.3567-6.3877 2.6047-11.282 5.0021-2.1729 2.8599-3.7245 4.9531-5.4149 7.8129 2.7607 1.17 5.0319 1.886 8.4027 3.0072 2.9777-1.4737 5.5821-2.7328 8.6481-4.1569z"/>
  <path d="m200.45 206.06c1.5433-1.6798 2.2787-2.574 3.076-3.6164-1.248-1.8191-2.4849-3.3217-4.1471-5.0807-3.8329 0.34265-7.8327 0.68807-11.852 0.99173-1.4653 1.8386-2.8894 3.5181-4.57 5.3069 1.5935 0.82458 3.263 1.7968 4.7174 2.6242l-2.0642 0.11137c-1.2675-0.68808-2.1729-1.1979-3.6752-2.0447-0.59058-0.32315-0.61008-0.54044-0.22286-0.99172 2.0058-2.3094 3.263-3.931 4.7762-5.8278 0.27857-0.34264 0.3733-0.43178 0.79672-0.46243 4.1374-0.32313 8.1372-0.67693 11.911-1.0502 0.4708-0.0557 0.69645 0 1.0224 0.3733 1.769 1.9946 2.9777 3.5181 4.4224 5.6804 0.25071 0.38166 0.22285 0.52931-0.11137 0.95273-0.78559 1.0419-1.3567 1.7383-2.574 3.0563z"/>
  <path d="m230.66 195.23c4.0488 0.0557 9.4345 0.11137 13.994 0.0197 1.613-2.3985 2.9387-5.2578 3.941-8.206-1.9361-1.7606-3.3708-2.9089-5.0809-4.1277-3.98 0.4318-8.304 1.131-13.601 1.691-1.5043 2.4264-2.6242 3.882-4.2062 6.1128 1.73 1.847 3.0562 3.0367 4.9531 4.5107m-0.0279 1.3567c-0.43179 0-0.54044-0.0557-0.85523-0.31479-2.0336-1.652-3.4593-3.0958-5.3757-5.1692-0.13929-0.16715-0.16714-0.40393-0.0279-0.57944 1.7383-2.4264 2.7412-4.1569 4.3633-6.7908 0.22286-0.35378 0.42343-0.50978 0.86358-0.55993 5.3069-0.52929 9.7095-1.2786 13.867-1.7188 0.36214-0.0279 0.55993 0 0.97222 0.34265 1.4848 1.2675 3.076 2.5935 5.1397 4.5107 0.25072 0.22286 0.36492 0.49029 0.22286 0.95273-1.1394 3.5577-2.4654 6.4763-4.0783 8.9136-0.22286 0.3538-0.3538 0.4513-0.89424 0.46244-4.6386 0.11137-10.25-0.0557-14.181-0.0557"/>
  <path d="m225.03 191.46c-2.4765-0.13928-4.56 0.0279-6.8106 0.27857-1.5712 0.16715-1.9054-0.52092-0.13928-0.91371 2.0726-0.4513 4.5795-0.64909 6.8694-0.75773z"/>
  <path d="m227.54 170.53c4.7762-1.5322 9.3362-2.8596 14.034-4.2059 0.74657-2.5935 1.5433-4.8648 2.5267-7.636-1.7494-1.5907-3.4201-2.6242-5.4247-4.0196-4.0588 1.2592-8.6286 3.2529-13.238 5.3461-0.81622 1.9946-1.4932 3.2334-2.8891 5.818 1.4542 1.4263 3.695 3.4986 4.9924 4.6973m0.195 1.3455c-0.38164 0.11152-0.61844 0.0557-0.90258-0.195-1.3762-1.2675-3.7443-3.7148-5.2773-5.2088-0.2953-0.29529-0.34265-0.54878-0.13929-0.95273 1.287-2.4849 1.7885-3.98 2.7022-6.1913 0.16714-0.41229 0.25071-0.50143 0.61008-0.66859 4.7661-2.1617 9.4638-4.1666 13.66-5.4442 0.3733-0.11137 0.5293-0.13928 0.94437 0.16715 2.1924 1.5238 3.8229 2.8203 5.749 4.5892 0.34265 0.31479 0.36214 0.46244 0.195 0.95273-1.0502 2.9582-1.691 5.2971-2.4654 8.0489-0.11137 0.42344-0.19501 0.50143-0.62959 0.61844-5.0712 1.3762-9.5621 2.7022-14.447 4.2848"/>
  <path d="m222.07 166.62c-2.5072 0.48194-4.6191 1.1199-7.3413 2.3484-1.5322 0.68809-2.0447 0.0836-0.42344-0.82458 2.34-1.326 4.7369-2.1617 7.4887-2.9189z"/>
  <path d="m243.03 182.04c0.79673-2.4765 2.3289-7.4394 2.8303-9.0609-1.6213-2.4654-2.7328-3.98-4.3633-5.749l0.99173-0.85523c1.4542 1.7383 2.6827 3.2234 4.5009 6.0144 0.22288 0.33429 0.28416 0.55994 0.16716 0.96386-0.52094 1.6993-2.1227 6.4666-2.8696 9.0707z"/>
  <path d="m246.48 172.25c2.8105-0.0557 5.7295-0.34264 9.0119-0.76607 2.0058-0.27858 2.1506 0.50143 0.13929 0.91372-3.1646 0.63794-5.818 1.0112-9.1005 1.1505z"/>
  <path d="m164.3 178.36c2.6047-1.5043 5.1595-2.9579 7.6458-4.3633 0.44294-2.1422 0.74659-4.265 1.1199-7.0758 0.0195-0.13928 0.0836-0.22286 0.19502-0.31479 1.9862-1.4848 3.6557-2.9186 5.7785-4.8645 0.45129-2.496 0.77722-4.6879 1.0419-6.7713-1.8191-0.22285-3.931-0.44293-5.7294-0.54878-2.1812 1.964-3.7836 3.5084-5.9161 5.7392-0.31479 2.3289-0.55993 4.0095-0.94436 6.2306-0.0279 0.13928-0.11137 0.22287-0.195 0.30365-2.0336 1.3567-3.7541 2.9284-5.3659 4.2945-0.13929 1.6213-0.57108 4.275-0.75773 5.8178 1.1979 0.66857 1.8386 0.96386 3.1448 1.5516m0.41229 1.248c-0.30365 0.16715-0.38443 0.16715-0.76608 0-1.4932-0.65743-2.2815-1.2174-3.5282-1.9054-0.31479-0.195-0.4513-0.35378-0.40393-0.74658 0.195-1.5823 0.45128-4.4912 0.59057-6.1816 0.0279-0.40392 0.0557-0.47079 0.34264-0.70758 1.5823-1.3455 3.4396-2.8696 5.4347-4.2062 0.29529-1.6213 0.44293-3.2627 0.69642-5.9752 0.0279-0.25072 0.11152-0.41229 0.25073-0.55994 2.2509-2.3679 3.9605-4.0193 6.2799-6.093 0.19501-0.195 0.30364-0.25071 0.59893-0.22285 2.2899 0.195 4.2945 0.46243 6.722 0.79672 0.32315 0.0279 0.4708 0.22285 0.42343 0.64907-0.27857 2.1422-0.55158 5.0514-1.0224 7.6458-0.0557 0.33428-0.11137 0.45128-0.38443 0.68808-2.3094 2.0057-3.8524 3.0468-5.8278 4.5207-0.31478 2.6632-0.54879 4.8352-1.0224 7.1151-0.0557 0.31479-0.16714 0.4513-0.45129 0.61845-2.574 1.4458-5.2676 3.0367-7.9308 4.56"/>
  <path d="m173.56 167.6c-2.1729-0.35378-4.8547-0.59058-7.1446-0.76608l0.59058-1.248c2.3094 0.16715 4.5402 0.50979 7.1151 0.94437z"/>
  <path d="m215.06 140.06c4.9138-3.695 10.8-8.1174 13.375-10.034 0.52094-3.0958 0.78558-5.4838 0.88587-8.0489-2.5072-0.93323-4.8745-1.5238-8.0093-2.1032-3.2824 3.2922-6.5847 6.8103-10.693 11.252-0.0836 1.7801-0.3538 4.6976-0.40393 6.5058 1.7494 0.97223 3.4201 1.691 4.845 2.4264m-0.39279 1.4458c-1.5043-0.76607-3.2922-1.7801-5.2085-2.8401-0.3538-0.195-0.4513-0.3733-0.44294-0.74659 0.0557-1.9361 0.0557-5.0709 0.16715-6.9482 0.0195-0.38445 0.11137-0.52094 0.28414-0.7076 4.2455-4.5795 7.626-8.1076 11.017-11.488 0.29529-0.30365 0.41229-0.40393 0.84408-0.32315 3.4201 0.62958 6.0242 1.4848 8.7367 2.5072 0.41229 0.16714 0.52094 0.28415 0.50979 0.76609-0.0836 3.1744-0.22286 5.5526-0.73821 8.7464-0.0557 0.32315-0.11137 0.4318-0.41231 0.65744-2.5155 1.8665-8.6974 6.4565-13.749 10.26-0.38445 0.28414-0.64909 0.30365-1.0029 0.11137"/>
  <path d="m210.19 138.41c-1.9361 1.6714-3.1646 2.791-4.6483 4.3438-1.5238 1.5935-2.1617 1.17-0.68808-0.62957 1.3177-1.6018 2.613-2.9972 4.5502-4.9038z"/>
  <path d="m197.11 106.78c-0.16714 2.496-0.52093 6.2209-0.66857 8.6484 1.7689 0.5488 3.3412 0.86359 5.189 1.1784 4.4519-4.4912 7.2624-7.8029 11.242-12.156 0.0557-2.8108 0.11137-5.5133-0.0279-9.0217-2.2509-0.57943-4.3636-0.91372-6.8794-1.1004-3.1643 4.2357-5.1988 7.0268-8.8545 12.451m-1.4458-0.0279c0.0197-0.36494 0.0557-0.4903 0.27857-0.80509 3.7148-5.5035 5.8376-8.3436 9.0314-12.628 0.27857-0.35379 0.43179-0.45129 0.83573-0.40394 2.7217 0.31479 4.8648 0.72708 7.6263 1.3455 0.48193 0.11137 0.61008 0.27857 0.62958 0.83573 0.195 3.882 0.31479 6.6139 0.27857 9.5228-0.0104 0.45128-0.11137 0.64907-0.27857 0.79672-4.2653 4.5009-6.8401 7.5572-11.606 12.304-0.31479 0.31479-0.48194 0.41229-0.87473 0.35378-2.0921-0.35378-3.7739-0.85523-5.7687-1.4932-0.46244-0.13929-0.59895-0.31479-0.57109-0.83572 0.13928-2.6326 0.27859-6.3682 0.4318-8.9924"/>
  <path d="m196.44 116.28c-0.92487 0.75773-1.9556 1.613-3.2234 2.8303-1.4263 1.3762-1.9556 1.0614-0.68809-0.61844 1.0614-1.404 2.1618-2.4849 3.1253-3.2825z"/>
  <path d="m220.37 119.42c-0.13929-4.3928-0.31481-7.0658-0.63794-10.27-2.4682-1.3455-4.4912-2.3679-6.5844-3.7343l0.50979-1.4653c2.2815 1.5322 4.2948 2.7718 6.8401 4.1572 0.27857 0.13928 0.35378 0.30365 0.41229 0.74657 0.46243 3.4691 0.65744 6.1618 0.85523 10.358z"/>
  <path d="m219.72 108.3c4.2062-3.6655 6.0339-5.2478 9.7588-8.4809 1.4932-1.3065 1.9946-0.74659 0.61843 0.68807-3.2724 3.3905-5.3757 5.1397-9.5131 9.0119z"/>
  <path d="m182.56 80.454c-0.81622-1.6993-2.652-5.5623-3.4889-7.2625-2.0642 0.32314-3.9605 0.88308-6.1913 1.73-2.0726 4.3438-4.894 10.26-6.5156 14.329 0.93321 2.4654 1.6324 4.4617 2.2899 6.771 2.5545-0.91373 4.275-1.4653 7.0856-2.2314 2.1534-4.216 4.2455-8.2255 6.8204-13.336m1.2787-0.39279c0.16714 0.3343 0.13929 0.5293-0.0557 0.90538-2.652 5.1988-4.8057 9.503-7.0365 13.867-0.0557 0.11136-0.16714 0.195-0.27857 0.22285-3.0072 0.66857-4.9924 1.248-8.1274 2.3484-0.28416 0.11137-0.4903 0.0104-0.59059-0.30365-0.94437-3.0663-1.6993-4.7664-2.7607-7.4396-0.13929-0.33428-0.13929-0.50979 0.0104-0.86359 1.6408-4.1276 4.4224-10.024 6.5253-14.427 0.195-0.43179 0.28414-0.54044 0.69923-0.67693 2.5155-0.87474 4.3928-1.2982 7.0758-1.769 0.36214-0.05568 0.49029-0.0104 0.66857 0.3538 0.89423 1.8275 2.9874 5.9752 3.8622 7.7736"/>
  <path d="m168.68 97.041c-1.1115 2.0141-2.1311 4.2948-3.2039 7.1644-0.74658 2.0252-1.6408 1.7494-0.86359-0.32314 1.092-2.9189 2.1228-5.2283 3.2627-7.292z"/>
  <path d="m152.09 84.321c1.613-5.1888 2.8105-9.4443 3.9702-14.26-1.5127-2.5155-2.4849-4.4812-3.5477-6.5942-1.925 1.17-3.3217 2.1144-5.7687 3.7739-0.83572 4.6188-1.7801 8.825-2.7412 12.913 1.2982 3.4198 1.7996 4.7859 2.9189 6.948 2.2202-0.92487 3.3513-1.7495 5.1692-2.7802m0.67695 1.1979c-1.9472 1.1004-3.2825 1.769-5.7983 2.7911-0.55994 0.22286-0.68809 0.0557-0.93323-0.39279-1.2787-2.4459-1.7996-3.3315-3.2136-7.0953-0.13928-0.40392-0.16714-0.55157-0.0836-0.93321 0.99174-4.1569 1.808-8.2943 2.6632-13.021 0.0557-0.3733 0.13929-0.48195 0.46244-0.69644 2.5267-1.6519 4.216-2.6047 6.4568-3.98 0.54044-0.3343 0.71872-0.25073 1.0224 0.37328 1.17 2.4069 2.1534 4.0196 3.882 6.8204 0.16714 0.29529 0.22285 0.49029 0.11136 0.94437-1.1784 4.9628-2.2787 9.169-3.9407 14.525-0.11137 0.3343-0.25073 0.45129-0.62957 0.66858"/>
  <path d="m147.1 87.992c-0.62958 1.9277-1.0697 3.3318-1.7996 5.6314-0.49029 1.5322-1.3762 1.2982-0.88309-0.28415 0.68809-2.2007 1.1589-3.7048 1.808-5.6506z"/>
  <path d="m171.9 74.975c-1.9946-3.8817-3.4691-6.5351-5.2478-8.9233-3.7248 1.4932-6.3095 2.8008-9.7293 4.5895l-0.49029-1.2787c3.3217-1.691 6.0833-2.9189 10.024-4.4814 0.47079-0.195 0.70758-0.13929 0.99172 0.25072 1.9751 2.8696 3.6067 5.5723 5.5526 9.0217z"/>
  <path d="m166.16 65.225c1.5823-4.2059 2.5546-6.8399 3.98-9.9454 0.86359-1.8664 1.5628-1.5906 0.86359 0.3343-1.3065 3.6165-2.1812 6.093-3.5674 10.093z"/>
  <path d="m122.87 67.607c-2.0447-1.6798-3.931-2.9482-6.0735-4.0686-1.4736 1.5238-2.5852 2.7718-4.275 4.904 0.59059 4.3928 1.2675 8.5598 2.1339 12.874 1.3567 1.2592 2.34 2.2509 4.4026 3.646 1.6213-1.6213 2.9975-3.1056 4.5402-4.56-0.195-4.1669-0.48193-8.6776-0.72707-12.796m1.404-0.13929c0.25072 4.1867 0.52093 8.6286 0.72708 12.864 0.0198 0.47078-0.0836 0.68807-0.46244 1.053-1.6798 1.5712-3.0955 2.9482-4.8645 4.7074-0.34265 0.35378-0.55994 0.39279-0.99174 0.11137-2.3679-1.5823-3.4593-2.3791-4.9631-3.7739-0.22286-0.22286-0.34265-0.34265-0.42344-0.73823-0.89422-4.4519-1.5517-8.5991-2.1506-13.13-0.0557-0.32313-0.0557-0.54878 0.195-0.85521 1.9166-2.2203 3.0562-3.4986 4.7859-5.1988 0.3343-0.32315 0.55994-0.38443 1.092-0.11137 2.2203 1.1589 4.324 2.3679 6.6237 4.1669 0.28414 0.22286 0.39279 0.33429 0.43179 0.90536"/>
  <path d="m119.74 85.388c0.22286 4.1374 0.35378 6.0245 0.73822 10.123 0.16715 1.8665-0.65744 1.9472-0.91372 0.11137-0.59059-4.1474-0.79672-5.9852-1.0502-10.093z"/>
  <path d="m94.052 88.399c1.1004 0.57107 3.0367 1.6798 4.0196 2.2314 0.84409-1.5322 1.7383-2.8991 3.2429-4.4224-0.66859-4.3831-1.365-8.0586-2.3094-12.098-1.9277-0.92487-3.5184-1.5322-5.8768-2.2007-0.62959 1.1115-1.2592 2.5072-2.3595 4.5405 0.98338 4.8843 1.9668 8.4222 3.2825 11.95m-0.69922 1.2786c-0.31479-0.16714-0.41229-0.34264-0.54044-0.67693-1.3845-3.6655-2.3679-7.3215-3.3905-12.412-0.02792-0.22286-0.02792-0.43179 0.0836-0.63794 1.0112-1.9166 2.0921-3.7543 2.8203-5.0121 0.16714-0.28414 0.48193-0.35378 0.82458-0.25071 2.418 0.70758 4.3831 1.3762 6.6432 2.2119 0.27857 0.11137 0.38443 0.22286 0.48193 0.61008 0.98338 4.216 1.769 8.1765 2.4654 12.766 0.0557 0.3538 0.0279 0.43179-0.27857 0.74659-1.6603 1.6603-2.7802 3.0562-3.646 4.7074-0.13929 0.27857-0.50144 0.39279-0.77722 0.22286-1.0112-0.59057-3.4496-1.6324-4.6976-2.2815"/>
  <path d="m98.808 90.824c0.195 1.886 0.42343 3.0368 0.70758 4.3734 0.36493 1.691-0.42344 1.7996-0.91373 0.16714-0.43179-1.4263-0.64908-2.3595-0.99172-4.1276z"/>
  <path d="m111.8 68.969c-2.1812-0.97222-3.8524-1.5823-5.6509-2.0447-1.9946 2.0921-4.1569 4.4912-6.2108 7.2427l-0.91373-0.83573c2.1311-2.7328 4.3143-5.1105 6.4468-7.3708 0.31479-0.34265 0.53208-0.33429 0.83573-0.25071 2.0057 0.57943 3.636 1.1115 5.8963 2.0141z"/>
  <path d="m105.33 66.536c-0.4708-3.9605-0.57943-6.5646-0.76609-9.7783-0.11137-1.6798 0.75773-1.7606 0.91373-0.11137 0.34265 3.5869 0.52094 5.808 1.1115 9.739z"/>
  <path d="m130.97 123.47c1.9946-16.992 7.6458-43.88 12.373-64.115 0.11137-0.45128 0.22286-0.63794 0.43179-0.83572 6.8791-6.4666 17.178-16.009 24.471-22.053 2.8105-9.3654 5.4542-19.409 8.0191-27.084 0.13928-0.42344 0.25071-0.59058 0.64907-0.79672 6.3877-3.4594 11.94-6.4468 15.262-8.3534 0.55993-0.32315 0.93323-0.36494 1.3177 0.27857 3.4003 5.6704 6.9973 11.941 9.9652 17.975 0.195 0.42344 0.22285 0.63794 0.0279 1.1505-2.7718 7.3115-5.5331 13.798-10.81 25.306 2.6743 9.0119 5.8573 23.409 6.8499 34.21 0.0557 0.57108-0.0104 0.67693-0.22286 1.0307-15.439 26.318-39.595 66.572-47.683 83.603l-4.5698 6.4763c7.5475-17.709 35.536-65.127 50.641-90.895-1.0029-10.8-3.597-24.972-6.2994-34.121-0.11137-0.40394-0.0836-0.5293 0.0279-0.81623 5.13-11.921 7.97-18.495 10.476-25.414-2.8794-5.8275-6.0342-11.95-9.3264-17.454-3.1644 1.8275-8.5991 4.9433-14.78 8.3829-2.496 7.5474-5.4152 17.562-8.2946 27.045-0.0836 0.28416-0.13929 0.3538-0.33429 0.52094-7.2037 6.329-17.247 15.665-24.176 22.151-4.7859 20.53-11.085 48.194-12.972 65.038z"/>
  <path d="m128.74 120.68c1.0614-17.237 2.7133-47.801 2.1729-59.663-5.6704-6.044-12.048-13.385-16.913-18.908-0.22287-0.27857-0.28415-0.41229-0.30365-0.84409-0.46243-6.673-0.95273-13.798-1.9946-20.402-3.351-3.2137-6.0242-5.2773-9.2573-7.4984-2.7412 4.0391-4.7762 7.4591-7.3708 12.137 1.17 8.0684 1.6714 12.392 2.2899 20.235 0.01975 0.195-0.01975 0.41229-0.11137 0.63794-3.5872 8.884-6.0537 15.665-10.201 25.679 2.2899 9.8864 4.5207 18.476 7.6065 29.335l-1.404-0.32315c-3.1056-10.928-5.5626-18.8-7.8622-28.775-0.0836-0.33429-0.0836-0.49029 0.02792-0.75771 4.275-10.103 7.0463-16.815 10.692-25.768-0.61844-7.7834-1.404-12.039-2.574-20.147-0.05568-0.32313-0.02792-0.50979 0.13928-0.78557 3.0758-4.9826 4.9823-7.9405 7.9895-12.491 0.38443-0.57109 0.65744-0.55994 1.2787-0.13929 3.1646 2.1227 6.2997 4.4519 9.9259 7.6065 0.25071 0.195 0.28414 0.30365 0.35378 0.73823 1.0614 6.6337 1.365 13.945 1.8274 20.648 4.894 5.5526 11.41 12.795 17.11 18.878 0.27857 0.27857 0.30363 0.45128 0.32315 0.83573 0.55993 11.882-1.0502 41.777-2.6938 61.009z"/>
  <path d="m223.55 331.83c0.34264 3.0368 0.84407 5.2578 1.3372 7.9603 2.9186 2.4487 5.808 4.9238 8.4319 7.4494 1.6213 1.5628 0.97223 2.0921-0.61844 0.68808-3.0663-2.7022-5.5626-4.5204-8.7269-7.1248-0.16715-0.13929-0.27858-0.28414-0.31479-0.57108-0.55158-2.9679-0.84409-5.2186-1.2174-8.6188-0.11137-0.96388-0.11137-0.98338 0.79672-0.89424 2.34 0.25071 4.2945 0.66859 7.577 0.89424 0.16714 0.0104 0.27857 0.0557 0.38443 0.13928 2.8599 2.2119 4.8154 3.4103 6.4763 4.3734 0.33429-0.11136 0.88588-0.32314 1.2786-0.49029l1.3372 0.86357c-0.64909 0.2953-1.73 0.65745-2.2203 0.8246-0.35378 0.13928-0.50143 0.11137-0.80508-0.0557-1.7104-0.96388-3.6067-2.1227-6.5451-4.3831-3.3412-0.35378-5.1199-0.85522-7.1641-1.0502"/>
  <path d="m238.95 335.63c10.623-4.2354 19.901-11.921 26.898-18.318 7.1054-6.4863 13.218-10.987 18.319-13.002 0.16714-0.0557 0.22286-0.0836 0.35378-0.11137 4.2358-0.8051 8.2651-0.83573 11.076-0.16716 0.54044 0.13929 0.70758 0.28416 0.61844 1.1505-0.28415 2.7022-0.195 4.1569-0.55993 6.1913l-1.6408 0.39279c0.46243-2.6242 0.33428-4.0588 0.54044-6.2799-2.5546-0.52092-5.3562-0.61008-9.6802 0.22287-4.9826 1.9751-10.987 6.2111-17.994 12.609-6.9282 6.329-16.657 14.171-26.603 18.181z"/>
 </g>
 <g fill="#6EB92B">
  <path d="m110.18 259.21c3.0858 4.7762 6.0339 10.958 8.835 18.043 3.5772 1.9472 5.6016 2.7217 9.7292 3.5775 2.0252-4.0393 2.8793-6.6139 3.351-11.597-4.2848-6.1423-8.6679-12.098-13.139-17.778-1.4932-1.9055-10.132 5.6412-8.776 7.7539"/>
  <path d="m124.07 248.12c5.7687 3.5184 10.289 6.5649 15.262 9.985 0.93323 3.1153 1.092 4.5204 1.7188 7.9405 5.759 3.3513 11.597 6.4666 17.041 9.6507 5.2968-0.93323 7.9405-1.7104 11.911-3.027-0.54044-3.4298-1.3957-5.7687-2.4069-8.5695-5.4542-2.6437-10.358-5.0612-17.286-9.0314-1.6324-3.9702-2.3289-6.1423-3.4986-9.8766-4.5207-2.34-11.321-5.8966-17.021-8.501-3.2727-1.5043-7.7246 10.211-5.7197 11.429"/>
  <path d="m132.16 222.12c5.3854-2.0336 12.619-3.636 19.468-4.0978 3.2627 3.3412 5.523 5.523 8.7957 8.7169 4.4321-0.0836 8.3238-0.39279 12.294-0.93323 2.6437-3.7346 4.6681-6.5451 6.6925-9.5033 7.243-0.85522 11.911-1.5516 17.827-2.2509 3.8131 3.5772 6.388 5.759 10.427 9.5721-3.1056 3.7343-5.4445 6.4565-10.113 10.742-5.759-0.16714-12.451 0.0836-16.815 0.4708-1.9472 3.5772-4.0488 6.378-6.9284 9.9552-6.4565 0.31478-11.911 0-16.265-0.46244-3.7441-4.5207-5.9161-7.4001-9.1885-12.294-5.6019 0-10.378 0.25071-16.058 0.69644-3.4003 0.27857-3.7443-9.2573-0.13928-10.614"/>
 </g>
 <g fill="#5FA223">
  <path d="m131.42 232.7c-0.40395-1.1394 0.98336-2.2397 2.6437-2.418 5.1004-0.52094 9.0609-0.84409 14.938-1.1895 0.55993-0.0279 0.67693 0.0557 0.95272 0.47079 2.5935 3.8229 5.6509 7.7932 8.825 11.685 0.33429 0.4123 0.55158 0.55159 1.0809 0.59058 3.6655 0.29529 7.6851 0.41229 11.282 0.22286 0.57944-0.0195 0.81623-0.13929 1.1589-0.59057 2.1422-2.8108 4.1374-5.6999 6.1228-8.7172 0.3343-0.50143 0.5293-0.59057 1.1589-0.62958 5.7687-0.40392 11.469-0.55157 16.245-0.61008 0.55995 0 0.67694-0.0836 1.0112-0.39279 3.9014-3.646 8.9038-7.4689 10.712-7.5279-2.6047 3.0663-6.2799 7.4198-9.9847 10.693-5.2776-0.0279-11.027-0.11152-16.815 0.61006-2.0726 3.2724-3.744 5.9259-6.9087 9.7685-4.9333 0.30365-11.233 0.30365-16.196-0.30365-3.4691-4.2257-6.2994-7.9996-9.3262-12.284-7.007-0.16714-11.459 0.27857-16.903 0.61008"/>
  <path d="m123.45 247.6c0.22286-0.87472 2.3595-0.87472 3.4691-0.22286 4.609 2.613 8.9233 5.0612 14.122 8.255 0.28414 0.16715 0.44294 0.34265 0.55993 0.75773 0.59893 2.1144 1.0697 4.1572 1.6018 6.9482 0.0557 0.36214 0.16714 0.50978 0.5293 0.71871 5.0612 2.7523 10.152 5.5821 14.486 8.0388 0.37329 0.22285 0.5293 0.25071 0.96387 0.16714 6.1225-0.98336 9.2869-0.87472 10.653 0.25073-2.5935 0.98336-7.0463 2.5852-11.714 3.0562-6.0144-3.1939-10.614-5.7785-17.041-9.454-0.50978-2.9975-1.092-5.759-1.7383-7.9308-3.302-2.4877-10.584-7.1842-15.891-10.584"/>
  <path d="m109.78 258.71c1.1979-0.88586 2.9384 0.0279 3.7739 1.2675 2.7908 4.1374 5.3068 9.0512 7.3017 14.496 0.13928 0.37328 0.195 0.50979 0.64909 0.74657 3.7346 1.9361 6.0144 3.2432 7.3413 5.5428-3.705-0.89423-6.2011-1.5322-9.9061-3.6953-2.5072-6.3582-5.6509-13.198-9.1593-18.358"/>
 </g>
 <g fill="#0f141b">
  <path d="m132.72 268.89c0.0557 0.0836 0.0836 0.195 0.0836 0.30365-0.4903 5.238-1.4542 7.7834-3.4396 11.773-0.22287 0.41229-0.4513 0.50979-0.87474 0.43178-3.8031-0.74657-5.9161-1.4653-9.8964-3.5477-0.11137-0.0557-0.16714-0.13928-0.195-0.22285-3.027-7.8227-5.415-13.061-8.157-17.306-1.1589-1.7996-0.37329-2.3094 0.84409-0.54044 2.8303 4.1176 5.5428 9.4835 8.4812 16.903 3.351 1.8971 5.3264 2.6827 8.8643 3.4201 1.7104-3.6658 2.4375-5.8278 2.9089-10.663-4.1274-6.1718-7.5669-11.223-11.96-16.628-1.6325-1.9946-0.91374-2.5935 0.77722-0.65744 4.3931 5.0316 8.1079 10.211 12.579 16.746"/>
  <path d="m168.34 263.91c0.98338 2.7328 1.73 5.1202 2.2788 8.5305 0.0836 0.5293-0.0557 0.66858-0.55158 0.85522-3.9803 1.4932-6.673 2.1618-11.793 3.1939-0.3733 0.0836-0.52094 0.0279-0.82458-0.13929-5.4935-3.1744-10.83-6.2111-16.589-9.6212-0.40393-0.25071-0.46243-0.31479-0.55157-0.76608-0.59895-3.5084-0.93323-4.7762-1.613-7.3608-4.8745-3.5084-8.2355-5.8178-14.102-9.6802-1.8971-1.248-1.3845-1.9556 0.55995-0.77722 6.0342 3.646 9.4543 5.8668 14.407 9.159 0.22286 0.16714 0.39279 0.22285 0.49029 0.63793 0.74658 2.9092 1.0029 4.3438 1.5628 7.5968 5.5721 3.2627 10.957 6.2994 16.648 9.2969 4.6288-0.78558 7.4296-1.4653 11.027-2.6242-0.53208-3.1056-1.3566-4.9531-2.2815-7.5182-5.3854-2.5545-10.181-5.0021-16.884-8.9723-0.22286-0.13929-0.36214-0.29529-0.50143-0.61008-1.7495-3.8229-2.34-5.8473-3.4788-9.5128-4.2062-2.3289-10.28-5.3757-15.341-7.8522-2.3679-1.1589-1.9472-1.9862 0.45129-0.89422 5.6606 2.574 10.594 4.855 15.704 7.5377 0.28414 0.13929 0.41229 0.22286 0.54042 0.66859 1.1589 3.6953 1.7188 5.6606 3.302 9.5228 6.673 3.8232 11.429 6.044 17.051 8.7762 0.22287 0.11137 0.3538 0.195 0.48195 0.55993"/>
  <path d="m159.82 227.01c-3.1153-3.017-5.2578-5.1988-8.4319-8.2255-6.0245 0.43178-11.636 1.4235-18.132 3.4889-2.0336 0.63794-2.2704-0.22286-0.25071-0.93323 6.6925-2.34 12.304-3.6362 18.476-4.0488 0.39279-0.0279 0.55157 0.0279 0.87472 0.3733 3.1644 3.2922 5.1988 5.4052 8.3238 8.4419 4.1374-0.0836 7.862-0.32315 11.734-0.85523 2.5072-3.6856 4.3043-6.2702 6.2796-9.2281 0.22287-0.33429 0.3343-0.43179 0.69645-0.47078 7.4689-0.90537 11.626-1.4458 17.591-2.1618 0.42343-0.0557 0.55158-0.0279 0.90537 0.29529 3.7638 3.5477 6.0144 5.6311 10.004 9.3362 0.46244 0.43178 0.4708 0.62957 0.0104 1.209-3.2432 4.0783-5.0417 6.2501-9.6802 10.496-0.2953 0.27857-0.45129 0.35378-0.91372 0.34265-5.9947-0.16715-11.547-0.0557-16.176 0.37329-1.925 3.4198-3.7343 6.0242-6.5942 9.6604-0.25072 0.32315-0.41229 0.40394-0.86359 0.4318-5.6902 0.30364-10.564 0.0836-16.117-0.48193-0.40395-0.0279-0.50145-0.13929-0.76609-0.44294-3.7934-4.5305-5.6999-7.3118-8.7662-11.832-5.3364-0.22288-8.8055-0.0836-14.407 0.25071-2.9287 0.16714-2.9384-0.69644-0.0279-0.98338 5.808-0.57943 8.9529-0.72707 14.525-0.77722 0.4513-0.0104 0.66859 0.0836 0.95273 0.52094 3.1153 4.6581 5.238 7.4394 8.8938 11.842 5.2676 0.55157 10.181 0.68808 15.547 0.44294 2.8596-3.5084 4.5697-5.8768 6.6139-9.356 0.195-0.3538 0.29529-0.46244 0.73823-0.50979 4.4224-0.42344 10.368-0.73823 16.471-0.59058 4.3633-4.0095 6.4861-6.3484 9.5131-9.975-3.6953-3.4198-6.0144-5.3264-9.798-8.874-5.7392 0.65744-9.975 1.3372-17.179 2.2007-2.0642 2.9384-3.8622 5.2968-6.5351 9.0019-0.19501 0.28414-0.30365 0.3928-0.70758 0.44294-4.1179 0.57107-7.5477 0.76607-11.931 0.88586-0.44293 0.0104-0.59894-0.0279-0.86358-0.29529"/>
 </g>
</svg>
