<?xml version="1.0" encoding="UTF-8"?>
<!-- Created with Inkscape (http://www.inkscape.org/) -->
<svg version="1.1" viewBox="0 0 331.81 373.15" xmlns="http://www.w3.org/2000/svg">
 <path d="m39.823 76.951 19.811 8.3367c4.751-4.019 7.6091-6.0314 11.491-7.6262 3.8814-1.5772 8.3892-5.997 5.7892-11.578-0.93839-2.0095-1.8719-4.8198 0.67801-7.1064 2.5303-2.2699 3.7438-3.4834 4.7314-4.1958 0.97282-0.71243 2.3239-3.3999-1.2627-3.847-3.5719-0.44204-10.625 0-14.195 0.8156-3.5719 0.79596-7.1413 1.6115-8.8398 1.248-1.7-0.34387-4.2303-2.098-1.5084-4.2794 1.4199-1.1595 3.5178-2.2355 3.4834-2.8595-0.0982-1.3511-3.1395-0.29501-3.395-1.7835-0.1475-0.83034 1.4887-2.0292 2.7563-2.8595 2.147-1.4396 3.5719-4.1614-1.0564-4.471-2.771-0.19636-7.6783-0.62393-8.1288-2.3239-0.44204-1.7 1.0072-3.2231 3.5719-4.7314 9.0127-5.2689 23.104-12.22 31.25-15.27 2.8595-1.076 1.9751-2.9479-0.97282-2.776-2.9626 0.19636-5.1824 0.44205-5.4595-0.19636-0.24568-0.62398 1.248-1.6116 3.4834-2.9479 2.2355-1.3364 9.2903-5.5288 8.7528-6.6903-0.53557-1.1595-2.3043-0.55516-5.0955 0.24568-10.348 3.0314-36.018 10.018-46.608 17.766-3.6569 2.6875-4.7319 4.751-5.2688 6.7944-0.53748 2.0635-0.90107 3.7438-5.0091 5.3559-4.1079 1.6115-16.379 7.158-19.101 10.711-1.4386 1.8916-0.98804 3.4834 0.62393 4.643 1.612 1.1595 2.773 2.4075 0.08841 5.997-2.6865 3.5719-7.0543 12.67-1.3344 17.402 5.7024 4.7314 10.798 1.7835 14.733-0.34386 3.9345-2.1471 8.9263-5.009 10.989-6.5168 2.0454-1.5231 5.7892-2.147 6.9502-0.53553 1.1595 1.5968 2.6875 2.9135 1.1595 4.9918-0.71239 0.98752-0.88437 2.2355-0.0982 3.5719 0.81559 1.3511 1.6459 2.9971-3.0167 5.0267" fill="#e50020"/>
 <path d="m64.448 81.859c1.9947-1.7344 3.2427-4.8886 2.6531-5.8934-0.56991-0.98753-2.5646-1.4052-6.6387 0.39318-4.0534 1.8376-4.1418-2.7366-2.6531-4.9746 1.4887-2.2355 0.19636-3.0658-1.2332-3.4834-1.4199-0.39318-3.0658-0.39318-4.9033 0.5896-1.8179 0.98757-3.7291 2.2355-8.5278 5.5465-0.0982 1.1251-1.0564 1.6656-2.8054 2.4615-1.7344 0.81559-4.8183 2.5499-6.5168 3.8814-1.6985 1.3511-2.6693 3.4834-0.34898 5.9975 2.3224 2.4959 2.7558 5.8928-1.612 8.2153-4.385 2.324-19.655 11.769-23.486 16.865-2.149 2.8595-2.0625 6.3439 2.236 6.8814 4.2813 0.53553 8.025 0.98757 8.3023 2.2355 0.26057 1.248-2.3225 2.9479-3.397 5.0955-1.0745 2.1323-0.53748 5.1652 3.2064 6.6038 3.761 1.4199 7.3317 2.8594 3.0506 6.3438-4.2985 3.4834-3.224 6.3434-1.0745 7.9382 2.1318 1.6115 4.0558 2.8054 5.1651 3.5719 1.8198 1.2824 2.7386-0.53552 3.8996-1.6999 1.1615-1.1595 4.1944-2.7563 6.1704-1.9604 1.9584 0.81559 2.9464 1.4543 0.90112 3.6898-2.0626 2.2355-4.4543 4.5054-2.0277 6.3783 0.7974 0.62398 2.5824 2.2552 2.773 3.7782 2.7558-3.4834 4.9916-4.5594 6.9677-2.8595 1.9604 1.7 5.9798 2.7711 8.1116 0.79596 2.152-1.9604 3.0511-1.9604 4.0239-1.8719 0.62393-2.5843 1.8719-6.5168 2.4074-8.2153-0.88437-2.771-0.19636-11.076 0.34386-14.473 0.53553-3.3803 1.4199-5.4423 7.7652-7.7653 0.19636-4.1958-0.34386-10.538 3.5719-14.282-0.71243-4.5594-1.4396-6.6387-11.423-10.192-2.771-0.96793-4.5054-1.3167-2.6875-4.1959 0.62398-0.97278 0.62398-3.1199-0.97283-3.9158-1.6115-0.81559-2.0635-2.6875-0.34386-4.299 1.7-1.6115 4.9746-4.869 9.0997-7.2101" fill="#f9be00"/>
 <path d="m64.992 271.03c-22.688-2.9479-41.685-15.686-48.15-41.511-6.4478-25.808 11.214-53.35 20.73-69.175 0.0884-0.89912 0.34899-2.3043-1.4214-3.621-1.5948-1.1939-2.3053-2.373-0.93597-3.8814 1.6641-1.8572 3.7959-3.7979 3.2761-5.1308-0.53553-1.3511-2.3917-2.3927-4.9399-1.8523-2.5479 0.53553-4.7663 1.8523-8.8742 7.158-14.195 18.304-23.572 47.422-23.572 63.767 0 38.843 18.217 56.262 55.447 67.649 2.152-3.8814 5.8585-10.071 8.4413-13.398" fill="#f29600"/>
 <path d="m52.668 268.22c-14.733-2.147-36.711-6.9678-47.682-25.982 6.6904 24.196 28.304 34.371 51.703 42.24 1.6115-3.5719 6.2398-11.075 7.6783-13.398-4.2794-0.71244-8.3888-1.4396-11.699-2.8595" fill="#d18200"/>
 <path d="m87.406 0.575c-6.2918 2.0783-30.974 7.9903-47.509 17.766-4.7319 2.7907-6.4303 4.8198-6.7943 7.2794-0.1917 1.4396-0.27499 3.6898-2.4787 4.6282-7.0197 2.9971-16.587 6.5173-21.544 11.769-2.3573 2.4959-2.0454 4.5054 0.53753 5.8064 1.3172 0.63873 2.3052 2.5106 0.67605 4.5594-3.484 4.4022-5.9971 11.491-4.4199 15.53 2.4094 6.1705 8.2676 7.8862 13.571 5.4424 4.16-1.9063 12.479-6.3262 14.49-7.8518 2.6865-2.0439 5.7196-2.825 6.6211-2.1323 0.91876 0.67801 2.2896 2.2207 2.3731 3.3606 0.0186 0.34386-0.0493 0.60923-0.29501 0.8303-1.8719 1.8719-1.3167 3.3459-0.295 5.0095 0.72714 1.1792 0.0493 2.5303-1.3855 3.0511-2.3239 0.8156-6.9505 3.4638-8.4584 4.9569-2.2703 2.2896-2.1839 4.073-0.43227 5.5465 3.0157 2.55 3.1547 6.0663-0.76255 8.0596-7.4357 3.7585-20.782 13.138-23.208 16.223-3.2064 4.073-3.1542 6.621-0.81462 7.9382 1.3521 0.76157 7.0197 1.3364 8.9436 1.6803 1.8719 0.34386 2.0974 1.0563 1.2131 1.8375-6.3957 5.5809-5.7371 9.7232 2.4959 11.786 2.9636 0.74682 3.6746 2.8939 1.7505 4.019-2.7214 1.5772-4.8355 4.5054-3.6573 7.0892 1.0573 2.3387 4.1772 4.0583 5.9624 5.1475 1.0224 0.63873 1.0224 0.678 0.43227 1.474-29.933 41.13-25.964 74.79-20.92 90.458 7.089 22.03 22.827 34.648 52.76 43.487l0.83034-1.7147c-28.876-8.6314-45.377-21.926-51.772-42.447-4.784-15.357-7.2971-49.433 20.834-87.963 0.60676-0.8303 1.0224-1.5084 1.3-2.1814 0.22614-0.55521 0.03257-1.3511-0.50258-1.7344-0.50263-0.39319-1.1438-0.74682-2.1839-1.3856-1.7162-1.0416-3.6918-1.8375-4.5756-3.7782-0.50263-1.0907-0.20613-3.5522 2.8428-5.321 2.8079-1.6459 3.1548-5.0959-1.4214-6.2397-7.505-1.8719-6.881-6.1012-2.4787-9.9487 1.9063-1.6803 2.0105-3.1739-1.6985-3.9698-1.8198-0.39319-7.297-0.98757-8.4757-1.6459-1.248-0.69275-1.0401-3.3606 1.1438-6.1184 2.3052-2.9282 14.975-11.925 22.134-15.548 4.697-2.3927 5.425-6.4825 1.0052-10.226-0.84947-0.71239-0.71044-2.2011 0.78023-3.6898 1.3693-1.3708 5.6848-4.019 7.765-4.751 3.2427-1.1448 2.8792-3.0314 1.872-4.643-0.69276-1.1448-0.98753-2.4075 0-3.3999 0.71238-0.69275 0.97282-1.4199 0.904-1.8719-0.29454-1.8031-2.0439-3.7979-3.1199-4.5938-1.6656-1.2479-5.4598-0.0326-8.1291 1.9948-1.924 1.4543-10.036 5.4074-14.143 7.2272-4.6626 2.0783-9.3769 0.57485-11.214-4.1418-1.4042-3.6063 0.90107-10.296 4.0907-14.334 2.6344-3.2918 1.1438-5.0611-1.4042-6.3262-1.0745-0.53553-1.1615-1.8866 0.17216-3.3115 4.7663-5.0611 13.883-8.6664 20.799-11.613 2.6865-1.1448 3.224-3.6063 3.4839-5.3558 0.30943-2.1667 1.3865-3.4687 5.6155-6.2397 13.103-8.6315 42.777-16.137 47.526-17.748 1.2135-0.39319 1.5574 0.0982 0.89907 0.65836-1.7834 1.474-7.7476 5.0788-10.642 6.8986-2.4075 1.5084-1.022 3.6898 2.1323 2.8595 1.0907-0.29501 2.7219-0.56996 4.299-0.29501 0.65837 0.0982 1.0907 0.50119-0.64362 1.1792-6.933 2.7022-21.458 9.533-30.176 14.819-3.1395 1.8916-5.2345 3.3115-5.3559 5.4428-0.1475 2.5991 3.7438 3.2231 7.4184 3.395 2.3386 0.0982 3.449-0.0493 4.073 0.89912 0.52082 0.76157-0.79591 2.0979-2.4762 3.2918-1.2676 0.89911-2.3239 1.9947-2.2207 2.7563 0.19636 1.6115 2.6679 0.98752 3.4146 1.6655 0.29501 0.24568-1.4739 0.97282-3.4146 2.3583-3.2231 2.3043-1.5427 5.0611 1.5919 5.3559 2.6875 0.29501 6.4996-0.24568 9.2903-0.97282 3.1542-0.84994 7.4705-0.96789 14.005-0.65832 1.7344 0.0982 2.3386 1.3511 0.72714 2.5155-1.6115 1.1792-4.4366 3.9846-5.4428 5.4595-0.44204 0.678-2.0291 2.6875 0.0493 5.8933 2.4615 3.7586-0.295 9.3424-5.9621 11.457-4.1615 1.5574-11.058 7.0371-15.08 11.059-1.7 1.7-2.4615 4.073 0.0982 5.3559 1.3364 0.65837 2.1323 2.2355 0.53552 3.8323-1.4396 1.4543-1.2824 3.3802 0.98753 4.019 1.9751 0.56991 6.6731 2.0979 10.001 3.7635 2.4959 1.248 3.6751 3.7782 3.3115 7.4877l1.8719-1.248c0.19636-4.0386-1.1104-6.1881-4.0386-7.6439-3.0658-1.5427-7.7997-3.2771-10.087-3.9158-0.86469-0.24569-1.0563-1.076-0.34386-1.7687 1.9947-1.9751 1.8572-4.2106-0.5896-5.4424-1.3855-0.69276-1.302-2.1323-0.1475-3.2771 4.0927-4.0926 10.954-9.4632 14.698-10.625 7.9731-2.4812 9.1169-9.4461 6.4304-13.589-1.5427-2.3583-0.50114-3.7586-0.0982-4.3678 1.2676-1.8916 3.5866-4.1762 5.5293-5.4424 3.0658-2.0095 2.6875-5.3386-1.7-5.5464-6.6559-0.29501-11.613 0.39319-14.923 1.2627-2.6531 0.71244-5.7543 0.97283-8.3023 0.72714-1.926-0.19636-2.3043-1.749-0.78121-2.8447 2.1667-1.5575 4.3482-2.5843 4.0043-3.5178-0.49132-1.3511-3.1739-1.0219-3.5178-1.6115-0.0493-0.0982-0.0186-0.60434 1.2283-1.474 2.4615-1.7491 4.3138-3.5375 3.3606-4.9574-0.98753-1.4887-3.1346-1.5772-5.4772-1.6803-3.1002-0.1475-5.5809-0.64362-5.5116-1.8179 0.0493-1.4199 1.1251-2.4959 4.2794-4.4218 8.6664-5.2345 23.659-12.167 30.557-14.854 2.9282-1.1448 3.449-2.7906 0.19636-3.6554-1.7147-0.44205-4.1271-0.29454-5.4246 0.0493-0.79596 0.19636-1.6803-0.0326-1.1104-0.39319 2.9135-1.8376 9.2382-5.4079 11.179-7.1585 3.9011-3.5031 0.34386-4.2794-3.4834-3.0314" fill="#0f141b"/>
 <path d="m18.466 230.89c-5.0092-19.742 0.69322-41.113 20.227-69.92 1.7343-2.4075 2.6678-3.1887 3.9011-3.1887 1.2332 0.0186 1.9751 1.0072 2.4418 1.4887 2.5156 2.6531 5.9626 2.0095 7.5397 0.1475 1.1104-1.302 2.8251-2.373 4.3826-2.0095l0.44205-2.4074c-2.0095-0.49132-4.1418 0.74678-5.4772 2.4418-0.88437 1.1104-4.0927 1.6116-6.2913-0.69276-0.71243-0.76152-1.9751-1.4739-2.9479-1.4887-2.8447-0.0326-4.8886 2.2895-6.9506 5.4595-19.308 29.101-24.56 50.923-19.586 70.544 5.8931 23.226 22.844 36.953 48.046 40.593l1.0072-1.6459c-25.045-3.5031-40.974-16.605-46.729-39.31" fill="#0f141b"/>
 <g fill="#f29600">
  <path d="m214.88 132.39 1.6115-3.2083c-4.8198-44.753-51.582-75.154-87.617-73.958 6.0319 7.3663 15.548 17.818 15.27 25.184-0.0982 3.7585-0.65837 5.373-5.4772 6.4304-4.8346 1.076-23.312 9.7929-30.02 26.536 0.39319 2.2699 0.8156 6.9502 0.14751 9.0997 1.2136 1.3364 3.7438 4.019 5.2173 5.7543 7.7825-7.2278 20.227-19.412 30.956-12.445 13.121-1.8916 27.056 2.2699 38.444 26.12 8.9783-9.9143 20.626-16.743 31.476-9.5154"/>
  <path d="m134.51 166.01c-3.2083-1.8719-9.9143-7.9038-12.722-12.584-1.2135 1.9947-2.1471 3.6063-3.3459 5.4772 0.9335 6.8465-0.53553 11.665-6.5689 15.409 4.0239 5.8929 7.0887 10.711 14.733 15.807-4.2794-5.8929-6.9679-12.999-5.4944-16.466 1.474-3.4834 5.0959-6.7075 13.398-7.6435"/>
  <path d="m114.82 198.83c0.34386 3.7438 0.0982 9.8273-5.4423 16.431l2.7563-1.076c-5.8069 10.451-20.175 28.131-25.358 38.669-10.4 2.098-16.188 4.6282-32.897 36.52-2.9479 5.633-4.299 7.7824-9.2554 9.9143-4.9574 2.1471-8.1638 3.2231-10.313 3.8814-2.1318 0.678-2.1318 1.3511 0.39784 2.6875 2.5479 1.3364 6.5692 4.1614 10.192 6.9679-0.72714 5.2168-1.248 8.8914-2.0636 11.301 6.5168-0.29501 12.375-0.98757 17.055-1.7835 4.643 5.8064 9.6544 12.046 11.699 14.109 6.708-5.5465 8.944-7.0543 12.774-9.4632 6.5173 1.8719 12.774 3.8322 16.345 5.3553-2.5991-5.9793-5.1996-12.618-4.5594-16.795 0.53552-3.4834 4.751-11.734 7.9559-18.217 6.1528-12.497 10.711-20.712 5.9798-32.949 7.3142-15.097 15.634-30.904 21.076-37.248 5.4428-6.3434 8.8398-8.3023 13.121-8.5622-0.44205-3.847 0.1475-5.9798-3.5719-4.8346-4.5594 1.4396-12.584 3.7586-15.357 4.643 0.24568-5.3559 0.34386-12.757 0.24568-15.357-0.0982-2.5843-0.97282-2.8595-2.6678-3.1199-1.7-0.295-5.009-0.89911-8.1289-1.076"/>
  <path d="m103.44 188.11-2.4074 0.24568c7.0892-13.26 14.767-25.462 20.487-34.423 2.152-3.3459 2.2355-5.7371 1.076-10.036-1.474-5.4944-5.0955-13.935-13.797-21.042-2.9479 4.8198-5.3559 6.4304-12.999 5.772-1.5968 4.9569-4.6822 6.9502-10.313 5.8929-0.65837 2.0095-1.4739 3.6062-3.0658 4.4218 1.0563 4.4218 0.53553 9.3768-3.3655 10.972-3.8814 1.6115-6.8288 1.3511-10.174-1.5968-2.4075 0.65837-6.6903 1.8719-9.6367 0.24568-6.4304 16.206-9.0304 39.432-6.309 52.518 5.0954 24.37 20.765 26.519 47.023 18.078 5.8929-7.3663 13.935-17.957 3.4834-31.077"/>
  <path d="m157.09 265.36c-0.76157 13.918-11.44 27.749-27.316 31.528 12.098-1.5231 20.019-3.2427 25.15-2.5991 2.5991 0.34386 5.0782 0.44204 2.9282 4.1074-2.1667 3.6751-4.9746 9.0648-7.4528 11.873-4.4366 0.44204-10.798 1.5084-12.74 2.0439-1.9407 0.53553-3.3115 0.79596-1.4052 2.7022 1.6115 1.6116 3.4491 3.1395 4.8542 4.3138-3.5522 2.8054-7.6606 6.9158-8.7356 8.3195 7.4361 0.74682 12.844 1.2824 15.756 1.8375 0.76158 2.2552 2.0439 5.7194 3.2427 7.4356 3.2427-1.5084 7.557-3.2427 9.3945-4.0927 3.5522 2.8054 7.3314 5.9278 9.2726 7.0023 2.1667-3.7782 4.2106-8.4059 5.7199-12.306 6.9158-3.3459 11.994-5.5986 14.369-6.3611-2.9135-2.0439-7.3491-4.3138-10.036-5.7194 4.1958-9.2903 10.348-19.863 12.722-27.316 2.3927-7.4533 1.8719-17.142-10.469-21.371-7.2278-2.4762-14.247-2.9135-25.253-1.4052"/>
  <path d="m275.65 212.85c-7.8517-2.3239-12.687-4.471-21.614-8.9262-8.9263-4.471-33.036-13.26-50.005-17.021l-3.223 0.9384c-1.5968 6.309-5.0783 14.074-13.797 20.366 17.679 6.5694 28.114 15.617 39.258 24.11 14.057 10.729 38.843 40.992 55.984 48.358 0.9335-4.1418 3.7585-7.0892 8.4413-9.0997-0.65837-3.0855 0.678-7.9038 2.4074-12.202-2.0095-2.6679-3.3459-6.4304-0.93839-12.323-2.55-2.4074-3.8814-5.0787-2.8054-8.7012 1.076-3.621 3.0855-6.0314 8.9779-6.4304-0.67805-3.3458-3.2231-8.5794-6.5689-11.387-4.5594 4.8198-9.2383 4.4218-11.786 2.2896-2.5499-2.1471-5.5809-5.1829-4.3334-9.9664"/>
 </g>
 <path d="m103.18 187.77c4.1958 5.9798 11.491 16.83-4.3482 31.736 2.9479-1.0907 8.458-3.1002 11.024-4.5054 2.7219-4.1762 5.8929-9.3075 4.8886-15.981-1.7-0.1475-6.7944 0.50114-4.5741-2.6335 0.93839-1.3167 1.6312-2.8791 2.3239-3.9502-1.2283-1.8719-3.7242-4.4366-4.8886-5.2866z" fill="#f9be00"/>
 <path d="m212.55 188.85c-7.9382 3.4343-17.177 12.809-8.6143 27.368 1.4887 0.98753 5.546 3.2427 8.233 5.4944-8.1809-11.127-4.299-25.184 8.5622-30.245-2.3731-0.86469-5.8064-1.8719-8.1809-2.6187" fill="#f9be00"/>
 <g fill="#fff">
  <path d="m187.79 208.02c1.4199 3.449 2.4271 8.1981 2.8251 12.445-4.0386-1.8179-11.422-5.2517-15.981-6.3783-0.91875 6.3783-3.5522 13.779-6.6903 16.397-3.6407-3.0314-8.8054-9.0997-12.237-13.554-3.9502 4.3481-7.9033 8.5966-10.018 10.937-0.50115-3.847-1.2283-8.9955-1.926-12.15-0.39318-1.8179-0.8303-2.5303-3.0511-1.9751-2.2207 0.55521-10.417 2.8792-12.948 4.0042-2.5303 1.1104-3.1395-0.81555-2.8251-2.9479 0.29501-2.1126 0.6043-8.3888 0.71239-11.439 0.0982-3.0314-0.81555-3.3262-2.3386-3.5375-1.5083-0.19636-8.2846-0.89911-10.815-1.0072-2.5303-0.0982-3.2574-0.71239-2.3386-2.4271 0.91876-1.7344 3.847-6.2741 5.2694-8.9085-3.6407-0.39319-9.0132-0.52082-14.074 0.71239 1.926-3.847 6.0835-11.145 7.3835-13.363 0.71239-0.0982 2.2207-0.19636 3.1395-0.52082 5.1652 8.8221 9.5159 12.462 15.704 16.708 4.1418 5.46 10.815 9.1169 19.932 11.544 10.833 8.1986 26.207 14.975 40.281 5.46"/>
  <path d="m163.1 163.08c-8.5971-6.0663-16.795-13.658-20.955-22.567-7.4877 8.4929-12.982 24.422-2.6335 34.406 2.9479 2.8447 7.9039 4.3481 12.861 1.7147 4.9569-2.6187 8.094-6.6731 10.728-13.554"/>
  <path d="m211.07 157.01c-3.3459 3.847-10.122 10.417-19.222 11.942-2.2355 7.3835-2.7366 14.473 2.6187 16.605 5.2689 1.926 16.5-7.7997 16.605-28.547"/>
 </g>
 <path d="m142.15 140.51c5.7715 10.226 13.658 18.927 20.955 22.567 2.9282-7.9903 2.771-17.748-3.3458-23.988-5.5637-5.6678-14.161-2.1127-17.61 1.4199" fill="#f29600"/>
 <path d="m211.17 157.41c-1.523-4.8542-4.1418-7.8866-8.7007-5.1652-4.5594 2.7367-8.5106 9.3075-10.625 16.709 7.9903-1.0219 14.975-6.8809 19.326-11.544" fill="#f29600"/>
 <path d="m192.05 183.55c-1.8916-3.0314-2.1323-9.1862-0.39318-14.594-2.8595 3.1199-6.9678 6.6382-9.758 8.6835-2.7711 2.0636-4.3334 2.1323-6.396-0.1475-2.0439-2.3043-8.0247-10.902-11.717-16.969-1.3855 4.6626-3.1198 10.573-10.659 15.651 6.1528 7.4704 13.485 14.49 20.833 17.627 2.8595 1.2332 5.2345 1.076 7.696-0.49132 2.4615-1.5575 6.8116-5.9106 10.417-9.7581" fill="#e50020"/>
 <path d="m204.84 179.67c12.861-5.633 18.754-19.014 18.078-30.003-0.65837-10.989-6.1528-20.227-17.003-20.227-10.192 0-17.281 7.3663-22.515 12.462-6.5517-13.676-17.281-29.483-38.843-26.398 5.096 3.3459 6.0319 9.7757-1.076 13.797-7.0887 4.019-15.391 9.7753-20.088 17.558 0.29501 1.8719-0.1475 4.5398-1.6115 6.5517 2.6875 4.4218 5.6335 8.4408 12.324 11.786-0.93843-11.249 3.0855-20.626 7.6434-24.508 4.5594-3.8814 12.047-7.2101 18.009-1.5968 5.9626 5.6158 5.7892 14.975 4.0042 21.406 2.8939 4.697 8.3888 13.276 10.677 15.824 2.2699 2.5499 4.0042 4.0239 7.0892 1.6115 3.0855-2.4271 7.6435-6.8465 10.313-9.6544 2.5499-6.8288 7.6439-16.345 12.861-16.743 5.2345-0.39319 7.9038 5.0959 6.5689 11.786-1.3364 6.7074-3.3459 12.063-6.4304 16.345" fill="#0086bb"/>
 <g fill="#eacaaa">
  <path d="m214.88 132.39c8.0075 6.8465 8.6143 16.83 7.6434 22.48-0.95314 5.6506-3.6062 19.36-17.679 24.543-0.71239 0.95314-2.2699 2.9971-3.2427 3.9698l-0.78116 4.471c13.173-3.1542 24.716-15.669 30.366-30.211 5.6506-14.559 4.8002-27.42 2.997-34.041-1.8031-6.6038-7.4528-6.0142-10.087-3.4834-2.6531 2.5303-6.7772 6.1355-9.221 12.272"/>
  <path d="m202.09 182.77c-3.6062 2.997-7.1064 4.6823-10.053 0.78121-3.5375 3.9158-7.2626 7.4012-9.793 9.2038-2.5303 1.8031-5.1652 2.4075-9.0132 0.71243-3.847-1.6803-14.646-9.3424-20.14-17.298-5.9626 2.9971-12.688 3.6063-18.459-9.3945-5.4251-1.076-11.318 1.5624-13.363 6.136-2.0291 4.5742 0.60923 10.937 4.2106 15.755 3.6063 4.8001 11.786 12.514 22.376 13.832 8.7705 6.4996 19.846 11.301 28.01 10.226 8.1809-1.0907 23.451-9.3772 26.224-29.951"/>
  <path d="m123.56 147.42c3.7291-7.2106 11.301-13.468 18.875-17.558 7.5741-4.0927 7.6955-9.1341 4.5741-12.271-3.1199-3.1198-9.0132-5.1652-15.027-2.6335-6.0147 2.5106-14.56 9.6195-17.558 13.346 3.6063 4.3334 8.5278 12.272 9.1346 19.118"/>
  <path d="m95.802 128.64c4.6774 0.50114 13.208 0.1475 13.208-8.9955 0-9.1346 0.49132-15.27 5.6501-22.619 5.1825-7.3315 6.6211-16.951 0.60435-20.192-6.0142-3.2427-10.382-0.24569-11.786 3.6062-0.95319 2.6531-2.9971 6.4996-4.4563 8.6664-4.4366-0.72714-6.7247 0.34386-9.3768 2.7563-2.6335 2.4075-5.5293 5.061-7.2106 6.8637-1.9947 2.55-2.5303 4.5938-2.7907 6.7423-2.8595 1.4199-3.9354 2.0439-5.7543 4.073-2.8791 1.4395-5.8929 4.3334-6.1184 7.9382-0.24569 3.6063-0.34387 5.5293-0.24569 8.0596-3.847 1.6803-8.0595 3.847-8.4236 7.6955-0.34387 3.847-0.72719 10.105-0.72719 12.15 0 2.0439 0.49132 4.1958 3.2574 4.0927 2.7563-0.0982 4.8542-0.34386 7.245-1.1448 3.3262 3.1739 7.6611 3.901 10.192 1.8571 2.5107-2.0439 5.4595-4.7854 3.3262-11.232 1.1104-1.0416 2.8792-2.8791 3.0855-4.4218 6.2049 1.8179 9.7237-2.0636 10.313-5.8929"/>
  <path d="m109.73 155.16c-2.3583-6.3438-11.249-5.3558-17.142-1.7344-6.1705 3.7783-13.311 10.503-10.191 17.402 2.4762 5.4772 11.266 5.8236 18.892 0.9335 6.708-4.2794 10.59-10.85 8.4413-16.605"/>
  <path d="m265.38 232.99c-4.5594 0.49132-8.7012 8.1637-7.6439 15.946 1.076 7.7653 5.0959 15.808 11.925 14.993 6.8293-0.79592 8.4413-9.2382 7.245-16.068-1.2136-6.8288-3.7586-15.669-11.526-14.871"/>
  <path d="m297.4 208.88c2.0292-8.1289-0.24569-16.345-6.5689-17.541-6.2918-1.2135-8.3022 2.1323-9.7757 7.0888-1.4739 4.9574-3.0855 9.2382-4.8198 12.462-1.749 3.2083-1.3364 8.8398 2.9479 11.388 4.2794 2.55 8.9783 2.6679 12.064-1.3364 3.0658-4.019 4.9397-7.245 6.1528-12.063"/>
  <path d="m292.18 247.05c-2.0095 4.5594-2.4074 9.3768 0.93844 12.323-1.6115 3.621-3.3459 7.9038-2.4075 12.185-4.8198 1.8916-8.8393 6.0486-8.4408 9.1169 0.678 5.2168 1.8719 12.185 1.8719 18.078 0 3.8814 1.2136 8.1809 5.772 8.3023 4.5397 0.1475 6.6902-1.5919 7.7648-6.8288 5.3559 1.3364 9.6367-1.3364 9.9143-4.957 0.24569-3.6062 0.24569-10.85-0.1475-13.936 5.7543 2.0095 10.989 0.29454 10.174-5.8929-0.79592-6.1533-2.0095-10.573-2.5303-16.744 3.7438 2.6875 6.8293 4.8346 11.11 0.9335 4.2794-3.8814 5.2173-5.7543 2.0095-10.711-3.2231-4.9574-7.9038-10.85-10.451-12.722-2.5499-1.8719-10.452-3.7438-16.882-4.2794-6.4303-0.53553-10.712 1.5968-11.648 5.8933-0.93839 4.2794-0.678 6.1528 2.9479 9.2383"/>
  <path d="m156.62 225.15c-1.4199-2.3239-2.7219-3.7979-3.9158-4.8346-2.7022 2.9626-5.8584 6.3611-7.0194 7.5398-0.56992-3.0855-0.86474-6.4304-1.3855-9.2903-4.7658 0.34387-8.0773 2.2207-12.341 7.7997-4.245 5.5813-16.795 24.11-21.874 38.01 2.373 7.0027 2.771 15.496-0.1475 21.077-2.9135 5.5637-4.1074 8.3544-5.7022 11.284 21.232 4.1074 38.097-1.8719 45.931-13.017 7.8346-11.145 7.557-18.858 6.6387-30.8-0.74677-9.4466-1.0563-19.465-0.19636-27.767"/>
 </g>
 <path d="m156.62 225.15c0.24568-2.2011 0.55521-4.299 0.97282-6.2225l-1.8866-1.9947c-0.78121 0.91876-1.8572 2.1126-2.9971 3.3802 1.1939 1.0416 2.4959 2.5156 3.9158 4.8346" fill="#f29600"/>
 <path d="m89.223 328.32-4.8542-1.3511c-3.9011 2.8103-10.018 7.4533-12.532 9.845-3.9846-4.7854-8.0773-10.642-11.942-14.473-6.3783 1.1939-13.519 1.8179-17.055 1.7835 0.98757-3.5031 1.9407-7.9559 2.0636-11.301l-1.6115-1.0907c-5.9797 4.245-13.537 10.746-15.929 19.239-12.341 1.5968-19.378 7.9731-18.858 16.206 0.53753 8.2158 12.081 15.651 26.554 6.3611 2.1318 9.9664 14.074 19.378 28.009 5.1824 3.0511 14.074 13.935 14.074 19.517 12.739 5.5809-1.3167 18.182-8.7528 8.3716-24.283 0.24568-5.4423 0.24568-12.081-1.7344-18.858" fill="#eacaaa"/>
 <path d="m187.46 322.35-11.821 4.9033c-1.0563 3.5866-3.4491 9.9664-5.3038 12.757-3.4491-2.1323-6.5345-4.7854-9.5674-7.1757-3.9698 1.9948-6.8986 3.4491-9.0132 4.1271-1.3364-2.6678-2.3239-4.4562-3.621-7.4704-3.0167-0.50114-8.1981-0.89912-11.647-1.0416-4.245 5.7194 0.84998 11.544 5.0434 13.554 11.683 5.5637 26.155 9.1513 46.867 2.5156 12.74 6.8986 29.916 8.6835 36.502 2.5303 2.1127-1.9947 3.9895-5.8413-0.53553-9.9664 1.5968-6.2397-4.7854-8.7528-10.486-10.088-1.3167-6.1012-12.601-6.1012-23.104-2.2551z" fill="#eacaaa"/>
 <g fill="#c5aa90">
  <path d="m129.38 177.49c-1.7835-3.7438-3.2083-5.7199-5.009-8.0424-3.2083 2.3239-4.6086 6.0663-3.2083 10.729 1.7835 5.8929 9.1169 19.1 26.796 21.96-7.332-6.2574-15.721-16.605-18.581-24.647"/>
  <path d="m222.07 143.55c2.3239-3.0314 4.1074-2.6875 4.643-0.89912 0.53552 1.8031 0.53552 6.2574-3.5719 10.729 0-3.395-0.19637-5.7194-1.076-9.8273"/>
  <path d="m234.75 141.76c-3.9354 11.786-10.365 19.118-15.183 24.283-4.471 6.621-9.6372 11.977-14.282 13.225-1.248 1.4199-2.3239 2.8595-3.9354 4.2794l-0.71239 4.299c18.217-5.009 32.152-23.763 34.11-46.087"/>
  <path d="m156.35 248.39c-3.2083 19.829-23.659 33.764-44.302 29.465-0.52083 4.299-4.4563 13.034-7.6783 18.945 15.894 3.2083 32.516-0.72719 39.657-6.7945 7.1408-6.0668 16.258-17.87 12.323-41.616"/>
  <path d="m8.9989 342.87c4.6449 9.1169 16.605 10.001 26.969 4.643-0.3634 1.9604-0.71048 4.1074-0.71048 5.8933-6.6037 6.4304-30.003 7.3315-26.259-10.538"/>
  <path d="m35.433 349.13c3.935 10.001 17.142 12.861 28.044 6.2569l-0.19637 3.2083c-7.5048 11.076-29.292 10.365-27.871-9.4632"/>
  <path d="m63.473 359.13c5.3559 10.001 25.357 9.4633 31.077-0.34386-0.71243 16.085-28.755 18.581-31.077 0.34386"/>
  <path d="m226.18 339.3c-2.6875 4.6429-24.82 12.497-36.606 2.6875-9.1174 1.9604-27.333 3.7438-36.451-5.7199-0.71239 0.71239-1.9604 1.4199-2.8447-1.248-0.89911-2.6875-1.4396-3.7586-2.1471-5.3559-4.8198-0.89912-9.8273-0.89912-11.977-1.076-4.2794 7.8517 2.7907 12.67 7.5054 14.646 7.6783 3.2083 21.787 8.5622 44.476 1.248 14.819 6.9678 27.68 7.6783 32.689 5.1824 4.9918-2.5156 7.5054-5.8933 5.3559-10.365"/>
 </g>
 <path d="m159.2 209.99c-14.282 0-25.011-1.248-33.573-4.9918 0.19636-1.6115 0.19636-3.7586-0.34386-4.299-0.53553-0.53553-8.0424-1.4887-13.658-1.8719-2.0095-0.1475-2.2895-0.9335-1.3364-2.5499 0.9335-1.6115 3.4687-5.8929 5.0782-8.8398-4.019-0.24569-8.5622 0-13.797 0.53552 2.2895-4.697 5.8933-10.989 7.245-13.121 0.9335-0.1475 1.8719-0.29501 2.9479-0.67805 4.8198 8.1638 9.2383 11.925 14.594 15.669 5.0959 6.708 13.398 11.388 21.024 12.324 3.621 2.6875 8.2674 6.1184 11.838 7.8168" fill="#dcdddd"/>
 <path d="m118.13 159.12c1.7688 3.5866 0 15.599-9.2554 15.478 3.2574-5.8933 7.1064-12.115 9.2554-15.478" fill="#c5aa90"/>
 <g fill="#d18200">
  <path d="m115.36 187.44c-2.3386-0.24569-4.8542-0.24569-7.2278-0.14751 1.7687 1.8179 3.2083 3.6062 4.3138 5.3554 1.0416-1.7835 2.2011-3.793 2.9135-5.2168"/>
  <path d="m103.4 187.74c-0.63873 0.0982-1.2676 0.1475-1.8375 0.24568-1.6116 3.0855-2.5499 5.4944-4.2794 9.9143 4.299 1.9947 7.7825 5.321 10.348 8.8393 2.3043-7.6091-0.55521-14.022-4.2303-18.996"/>
  <path d="m123.79 199.9c-1.8179-0.295-5.7199-0.60434-8.7706-0.83034 0.79596 4.5054-0.53552 9.0304-3.7242 13.988 0.19636 0.49132 0.39319 0.95314 0.56991 1.4052 4.2794-2.8595 10.712-6.9679 13.762-9.4638 0.19636-2.147 0.84998-4.697-1.8375-5.0954"/>
 </g>
 <path d="m115.03 199.06c-1.4199-0.0982-2.6532-0.19636-3.4147-0.24569-2.4271-0.1475-2.147-1.2135-1.3511-2.5499 0.39318-0.64362 1.248-2.0439 2.1815-3.6406-1.1104-1.7491-2.5499-3.5178-4.3138-5.3387-1.6803 0.0982-3.2771 0.24569-4.7314 0.44205 3.6751 4.9746 6.534 11.388 4.2302 18.997 1.5427 2.1127 2.7711 4.299 3.6751 6.3262 3.1886-4.9569 4.525-9.4981 3.7291-14.004" fill="#d7a400"/>
 <g fill="#d18200">
  <path d="m151.06 282.46c-0.0493 6.5168 2.7366 9.7408 8.5101 12.687-5.8928-2.0095-19.153 0.53552-30.003 1.474 10.434-2.8103 15.808-6.621 21.493-14.161"/>
  <path d="m205.85 192.85c0.14751-1.9751 0.52078-3.7586 1.0416-5.2866l-3.0314-0.89911-3.2231 1.1791c-1.6115 9.9315-8.3715 16.674-13.727 20.244 5.8064 2.0292 11.526 4.9397 16.744 8.0768-5.7199-11.127-3.3115-18.615 2.2011-23.312"/>
  <path d="m208.09 208.71c-0.0326 4.073 1.2136 8.458 3.8126 12.809 3.2427 2.2699 6.136 4.471 8.545 6.3611-6.1704-5.9277-10.122-12.687-12.358-19.17"/>
 </g>
 <path d="m208.09 208.71c-1.9947-5.7892-2.6187-11.336-2.2355-15.859-5.5116 4.697-7.921 12.185-2.2011 23.312 2.9282 1.7491 5.7027 3.5719 8.2502 5.3558-2.5991-4.3482-3.847-8.7356-3.8126-12.809" fill="#d7a400"/>
 <path d="m124.38 169.45c-6.2747 3.5866-4.2647 11.491 1.9604 20.4-7.4877-4.9397-11.752-10.867-14.317-15.651 4.1615-1.5968 7.4356-8.0075 6.4304-15.166l1.8916-3.3459c0.0982 5.2517 1.6803 9.7237 4.0386 13.762" fill="#d18200"/>
 <path d="m132.17 183.26c0 2.5303-0.0493 6.0314-0.0982 7.5741 1.5427 0.84998 3.3606 1.1792 5.3038 1.1104-1.8179-2.8447-3.621-5.373-5.1824-8.6835" fill="#dcdddd"/>
 <g fill="#0f141b">
  <path d="m109.5 154.26m-25.912 16.085c-2.5646-6.136 2.9823-12.307 9.0305-16.05 6.5517-4.0386 14.109-3.2574 15.772 0.49132 3.2918 7.3142-3.3115 13.78-7.7127 16.448-6.8293 4.1271-14.993 4.1271-17.09-0.86473m8.0075-17.42c-6.4648 4.0043-13.207 11.162-10.261 18.494 2.2355 5.5637 11.786 6.7944 20.175 1.4199 10.261-6.5345 11.439-14.369 8.8398-19.292-2.5843-4.4562-10.59-5.6501-18.754-0.62394"/>
  <path d="m109.2 215.71c5.1824-4.1958 7.4184-10.798 6.6033-16.605l-2.0439-0.19636c0.79596 5.009-0.53552 11.699-6.3434 16.882z"/>
  <path d="m191.65 168.93c4.4218-0.29501 7.2799-1.7147 10.816-4.0927 0.72714 8.2158-6.8637 19.395-11.769 13.884-0.0186-3.1198 0.50114-6.4131 0.95314-9.7929"/>
 </g>
 <path d="m190.98 172.84c3.1886 1.7344 5.3038-2.7022 5.4944-4.7314-2.2699 0.678-4.0042 1.0416-4.751 1.0416-0.14751 0.67312-0.58955 2.7366-0.74678 3.6898" fill="#fff"/>
 <g fill="#0f141b">
  <path d="m167.32 203.32c1.9063 1.6116 2.7563 2.9823 3.6751 4.7167 0.69276 1.3364 2.3927 0.44205 1.6803-0.89912-0.97277-1.8719-2.8447-3.6554-4.5741-4.7314-1.2824-0.81559-1.9407-0.0493-0.78121 0.91875"/>
  <path d="m183.6 203.02c-0.86473 1.4543-2.1667 2.5156-3.7782 3.395-1.3167 0.72714-0.0982 2.4075 1.1595 1.6116 1.7-1.076 2.8595-2.324 3.6554-4.3826 0.44205-1.1448-0.39318-1.6656-1.0416-0.62398"/>
  <path d="m302.31 266.93v-0.0493 0.0493"/>
  <path d="m258.42 247.86c-0.29501-6.5517 2.3239-13.675 7.7648-14.005 7.245-0.44205 9.2382 10.625 9.7408 14.005 1.0416 7.0888-0.58959 15.235-6.8809 15.357-6.673 0.0982-10.33-8.6314-10.625-15.357m7.6783-15.981c-7.4705 0.44205-9.4981 10.001-9.2382 15.876 0.34387 8.0252 4.1074 17.385 12.202 17.229 8.3022-0.14751 9.6372-9.6023 8.4757-17.575-0.71243-4.8198-2.8447-16.05-11.439-15.53"/>
  <path d="m155.36 238.57c-1.5624 6.3434-6.6903 10.451-9.5502 9.6367-3.9846-1.1104-6.2569-9.0997-0.72716-16.414 1.0416-1.3708 0.624-1.9947-0.62398-0.8156-7.0199 6.6731-4.4022 17.558 1.0564 19.014 3.6407 0.95314 9.082-3.1051 10.243-8.545z"/>
  <path d="m46.059 310.19c0.0982-2.5155-1.3511-2.5843-1.5575-0.0493-0.44204 4.7658-1.8916 8.9263-2.9135 12.549-0.50114 1.8179 0.34386 2.771 2.2355 2.6875 6.3267-0.295 10.729-0.9335 15.894-2.0635 3.9354 5.373 6.621 8.8398 9.3768 12.687 1.5771 2.1815 2.6678 2.7219 4.8345 0.79596 4.9918-4.4563 8.1638-7.4877 10.538-8.9263 7.245 1.9947 11.284 3.9698 14.456 5.2694 3.1542 1.2824 4.245 0.0493 2.8595-2.4959-2.2011-4.0927-3.8667-8.5627-4.3678-10.816-0.60434-2.6531-0.93844-4.9569 1.1595-9.1862 2.1815-4.4562 11.127-21.614 12.895-25.548 3.3262-7.4012 3.7782-23.763-8.4409-30.8-10.972-6.3439-26.033-2.3731-33.625 7.9038-6.8981 9.3419-14.646 22.706-18.442 30.938-0.78121 1.6803-2.9282 3.4491-4.643 4.2794-3.5178 1.7344-8.3544 3.3262-12.844 4.5594-3.085 0.84998-3.1371 3.0314-0.19171 4.5398 3.224 1.6312 8.8221 4.869 11.526 7.245l0.24568-2.2552c-2.4418-2.1667-7.3839-4.9918-10.382-6.8986 3.9173-1.1939 10.018-4.1271 13.207-5.685 1.9947-0.9679 3.6063-2.55 4.525-4.525 3.7586-8.1637 11.63-21.319 18.476-30.61 7.0715-9.5674 21.284-12.722 30.817-7.2278 10.486 6.0668 10.122 21.718 7.3663 27.871-1.749 3.9011-9.9143 21.198-12.098 25.618-2.2895 4.6085-1.9604 7.2101-1.3511 9.8445 0.44204 2.0291 1.1939 6.3788 3.0511 10.383-3.3262-1.2332-7.6955-2.6875-14.109-4.4562-0.19636-0.0493-0.34386-0.0326-0.52082 0.0493-2.3386 1.4051-5.8584 4.073-12.167 9.1689-2.324-2.6187-6.621-8.2502-11.076-13.71-0.14751-0.19636-0.39319-0.295-0.64367-0.24568-4.9741 1.1104-9.8445 1.1939-15.876 1.4739 0.89911-3.6554 1.6115-7.8517 1.7835-12.41"/>
  <path d="m108.93 116.94c3.4294-14.403 20.695-27.524 32.204-29.465 4.4366-0.74677 4.299-4.697 4.0534-6.9678-0.71244-6.708-5.0959-14.109-14.906-24.404 36.606 0.0982 79.279 29.188 85.068 75.189l2.0292-3.5719c-6.1012-43.28-48.514-73.802-88.015-73.213-1.8572 0.0186-2.0291 0.65837-0.84994 1.9407 9.7929 10.712 14.629 18.234 14.854 24.11 0.1475 3.4343-0.65837 4.1958-3.3115 4.8886-10.261 2.6679-25.601 11.838-30.956 25.427z"/>
  <path d="m129.47 56.746c7.5221 3.0314 12.861 6.7944 17.766 12.861 1.5771 1.9407 2.3387 1.4396 0.98753-0.65836-3.8814-6.1007-10.573-11.162-18.095-13.952z"/>
  <path d="m203.32 181.33c25.271-10.174 25.634-44.111 10.711-50.819-11.162-5.009-20.314-0.24568-30.228 9.9143-10.452-22.099-25.045-29.067-41.65-25.531l2.8595 1.7c15.79-1.7835 26.814 4.697 37.595 25.444 0.78121 1.523 1.5624 0.8303 2.2355 0.0982 10.278-11.491 20.4-13.485 28.391-9.4632 11.11 5.5809 14.161 35.081-8.2502 46.469z"/>
  <path d="m201.28 188.54c28.062-8.32 39.726-42.482 33.747-66.401-1.3167-5.2522-5.7199-6.4304-9.8971-4.0583-4.3482 2.4762-8.9263 7.4877-11.179 13.952l1.9751 0.88441c2.1323-6.1007 7.1064-10.573 10.157-12.497 2.7219-1.7147 5.772-0.86474 6.7595 3.0855 5.6678 22.567-6.2048 55.308-31.354 63.264z"/>
  <path d="m222.88 155.52c6.2569-7.1413 5.7199-14.109 3.1199-15.097-1.5771-0.58959-3.1199 0.71239-4.019 2.1471l0.81559 1.5083c0.62393-1.0563 1.4199-1.6803 2.0979-1.5427 1.8719 0.39319 1.0907 6.1877-2.0439 10.608z"/>
  <path d="m193.27 165.25c-2.9479 3.8667-8.8226 9.4461-12.133 12.133-1.926 1.5575-3.9158 1.022-5.373-0.72714-3.3459-4.019-7.2971-9.7758-11.786-17.541l-0.76152 2.1667c4.3874 7.3319 8.4064 12.965 11.526 16.432 2.3583 2.599 4.5054 3.0314 7.2621 0.88437 3.6554-2.8595 7.4184-6.3439 10.556-10.174z"/>
  <path d="m191.37 182.42c-2.5647 3.1199-6.4132 7.1585-9.481 9.7408-2.8938 2.4419-5.2866 1.8375-7.6955 0.95314-5.0616-1.8719-13.069-8.2674-20.4-17.593l-1.8719 1.2135c7.47 9.5154 16.622 15.876 21.839 17.8 2.5303 0.9335 5.6158 1.7 9.03-1.1251 3.4147-2.8251 7.1585-6.1184 9.793-9.3075z"/>
  <path d="m162.88 160.98c-3.1542 11.925-13.225 17.835-18.407 15.963-6.5517-2.3731-11.821-11.284-8.6835-23.139 3.2083-12.133 12.185-18.147 18.841-16.397 7.4704 1.9751 11.162 12.549 8.2502 23.572m1.7835 0.50118c3.395-12.861-0.91876-23.937-9.7581-25.947-8.1986-1.872-17.558 4.3874-21.024 17.454-3.1543 11.89 1.2823 22.948 10.07 25.462 7.1065 2.0292 17.211-3.7094 20.712-16.969"/>
  <path d="m208.14 171.17c-3.7783 9.9486-9.5674 15.027-13.381 13.64-3.6554-1.3364-5.0788-7.9903-1.0907-18.511 4.1958-11.041 10.001-15.201 13.311-13.936 3.7782 1.4395 4.9569 8.8054 1.1595 18.806m1.6459 0.60923c3.6898-9.7065 2.8595-18.875-2.3239-20.852-4.6282-1.7491-10.92 2.8791-15.374 14.629-4.299 11.335-2.7022 18.858 2.0979 20.608 5.1652 1.8916 11.855-4.5054 15.599-14.386"/>
  <path d="m191.95 169.82c5.2522-0.44205 14.924-5.8413 19.412-11.388l-0.678-2.2552c-4.0927 5.5293-13.415 11.544-18.633 12.185z"/>
  <path d="m134.47 164.27c-4.0534-1.7835-9.6367-7.4012-12.063-12.064l-1.3364 2.3239c2.8595 4.9225 8.5799 10.105 13.225 11.89z"/>
  <path d="m146.25 201.69c-19.603-5.6329-25.982-21.527-24.387-27.593 1.022-3.847 6.2569-6.7944 12.965-6.9678l-0.24569-1.6459c-7.4533-0.29501-13.103 3.395-14.508 7.7127-2.7219 8.4929 6.708 25.808 28.322 30.54z"/>
  <path d="m108.66 175.7c6.1705 0.34386 12.323-6.4304 10.451-17.419l-1.3364 1.4395c0.89912 8.7356-3.9158 14.195-8.5794 14.195z"/>
  <path d="m127.23 190.25c-7.1585-5.5637-12.532-13.398-14.49-16.345l-1.9407 1.076c2.1471 3.4834 9.3075 12.999 17.818 17.887z"/>
  <path d="m200.37 184c-1.1595 15.981-16.414 28.287-27.229 27.87-15.062-0.58959-32.863-12.687-42.69-33.677-1.1251-2.4074-2.4418-1.8916-1.4199 0.55521 9.4461 22.48 28.737 34.994 44.198 35.168 12.15 0.1475 28.72-12.323 29.726-31.875z"/>
  <path d="m136.83 191.24c-1.3855 0.0493-2.8792-0.24569-4.1074-0.71244 0.0493-0.69275 0.1475-5.061 0.1475-5.7194l-1.474-1.7835c0.0186 2.0635-0.0493 6.2053-0.1475 7.7304-0.0326 0.50114 0.1475 0.78121 0.67805 1.022 1.4395 0.65837 4.1762 1.2135 5.8928 1.1104z"/>
  <path d="m122.95 153.02c2.3386-4.299 1.4543-7.1757 0.34387-10.712-2.9479-9.4638-10.123-17.402-14.299-21.44l-0.88437 2.5991c4.073 3.9354 9.8445 10.001 13.121 19.465 1.1939 3.4687 2.1471 5.5986 0 9.3768-5.4423 9.5502-18.667 28.391-24.283 44.476-0.95314 2.6875 0.39318 3.0314 1.3856 0.39319 5.4767-14.403 19.239-34.319 24.595-44.146"/>
  <path d="m115.17 129.16c8.8049-8.8049 14.733-13 19.811-14.022 5.46-1.0907 10.192 1.4887 11.371 3.847 1.3167 2.6335 1.302 6.2221-2.6876 8.6664-6.5001 3.9846-16.674 9.793-20.54 19.1l0.62398 2.2355c4.0239-9.5502 15.236-15.825 21.614-19.725 5.321-3.2771 5.2689-7.869 3.4834-11.439-1.7835-3.5522-6.9507-6.1704-14.109-4.7314-5.3215 1.0563-12.237 5.2694-20.99 14.473z"/>
  <path d="m99.757 90.132c1.8179-2.7219 3.9698-7.02 5.2345-10.261 1.2823-3.2574 5.1824-3.8323 8.4064-2.4075 3.1542 1.4051 4.5594 4.4562 4.5594 8.1288 0 3.621-1.5083 7.4705-5.8064 13.935-4.2106 6.309-4.3825 16.189-4.1074 19.465 0.24568 3.1739-0.49132 4.6478-2.0636 6.5173-1.3511 1.5919-5.3902 3.0511-10.538 2.0635l-0.34387 1.7835c5.2866 1.022 10.348 0.0982 12.584-2.6875 1.6803-2.0783 2.5303-4.019 2.2355-7.5913-0.24569-3.1543-0.19636-12.722 3.8323-18.754 3.7094-5.5637 6.3434-9.6367 6.5345-14.646 0.19636-5.321-2.1127-9.3768-5.9975-10.798-4.697-1.7147-9.5846-0.5896-10.971 3.2918-1.3511 3.7586-3.0511 7.5918-5.3735 11.162z"/>
  <path d="m92.252 115.24c4.4366-2.8791 8.7877-9.8278 10.712-13 2.9971-4.8886 1.9604-9.3596-0.72714-12.046-3.5178-3.5178-8.1809-2.7906-11.405-0.39318-1.926 1.4199-6.6554 5.8236-8.7007 8.1809-1.6115 1.8719-2.9282 3.9011-3.3458 8.233l1.8719-0.34386c0.39319-3.9354 1.3512-5.1829 2.9479-7.0372 1.8719-2.147 6.3262-6.0319 8.3367-7.5226 2.4419-1.8031 6.0491-2.1323 8.4757 0.295 2.2699 2.2551 3.1739 5.997 0.74683 9.9836-1.8867 3.0658-5.9101 9.394-10.122 12.115z"/>
  <path d="m94.157 112.5c-0.0982 3.0658 0.34387 10.036 0.56996 12.93 0.24568 3.2427-0.62398 6.0663-1.9063 7.0023-1.3855 1.0072-4.5054 2.2011-7.4528 1.3708l-0.49127 1.8031c3.6554 0.89912 6.621 0.24569 8.9783-1.4739 2.7367-2.0095 2.9135-4.8542 2.7367-8.5102-0.0982-2.8791-0.79596-11.249-0.71243-14.265z"/>
  <path d="m68.408 125.08c-0.44205-7.609 1.1104-10.902 2.2699-11.925 2.3731-2.0783 5.9975-4.7314 7.5054-5.5637 1.4543-0.78121 3.1542-1.248 4.8886 0.34386 2.2896 2.0783 4.9569 4.8198 6.5689 6.4996 1.0564 1.0907 1.5624 3.2918 0.86474 5.685-0.65837 2.3387-1.9407 3.8127-3.8814 4.6282-2.55 1.0416-5.8236 1.5427-12.393-5.5642-1.3708-1.4887-2.4075-0.88437-1.248 0.76152 6.4825 9.1513 12.116 8.1809 14.993 6.846 2.5303-1.1791 4.3482-3.5178 4.9034-6.4127 0.56995-2.9971-0.0982-5.6158-1.4739-7.02-1.6116-1.6656-5.7199-5.7022-7.1236-7.1064-2.2355-2.2208-4.9918-1.5575-6.5002-0.72719-1.7147 0.9335-6.2397 4.3678-8.4408 6.2918-1.9948 1.7344-3.4147 6.621-3.0167 14.196z"/>
  <path d="m84.458 133.95c-0.0982 1.5968-0.56991 2.7219-2.5843 4.1958l0.9335 2.3583c2.6187-1.6803 3.6063-4.019 3.7438-6.1705 0.19636-2.9479-0.24569-5.4251-0.79591-7.8345l-1.872 0.24568c0.34387 3.1542 0.71244 5.1475 0.56996 7.1929"/>
  <path d="m68.944 147.39c-2.2207 0.79596-6.1882 1.1448-7.9731 0.86473-1.248-0.19636-1.6656-0.50114-1.5084-3.3999 0.29501-5.5809 0.53553-7.834 0.89912-11.803 0.24568-2.3927 1.4199-3.2083 2.7563-4.0927 1.4543-0.97282 4.8886-2.4615 7.0887-3.0167 2.0095-0.49132 4.6773 0.19637 6.4304 2.8939 2.2551 3.4343 4.3334 9.5502 4.8886 11.509 1.2136 4.2303-0.55516 7.6439-3.5375 9.1169-2.9479 1.4543-6.2569 0.64362-7.7476-1.5919-2.0979-3.1542-3.6751-6.2918-4.5594-11.422-0.39319-2.2207-1.6656-2.0095-1.4396 0.24569 0.56996 5.5814 2.1127 8.9783 4.299 12.254 2.1323 3.1887 6.7423 4.5398 10.504 2.6679 5.234-2.5646 5.858-7.2794 4.5594-11.855-0.72714-2.5646-3.1395-8.857-5.4079-12.358-2.0979-3.223-5.4772-4.0386-7.9038-3.4343-2.3927 0.58955-6.7944 2.4811-8.3195 3.5375-1.3511 0.95314-3.2427 2.0635-3.5522 5.0262-0.55516 5.4949-0.69275 8.4064-0.86468 12.462-0.0982 2.3731 0.34386 4.9397 3.0166 5.3559 1.9063 0.29454 6.4304-0.19636 9.6367-1.2676z"/>
  <path d="m58.384 147.03c-5.4423 16.969-10.07 38.236-6.5168 55.013 3.7782 17.853 13.849 24.717 30.263 22.775 11.387-1.3511 26.796-5.8064 40.021-16.258 2.2699-1.8031 1.4199-2.9626-0.98753-1.3364-12.947 8.7533-27.403 13.52-38.634 14.854-15.322 1.8032-25.271-4.9034-28.512-20.712-3.4146-16.535 1.248-36.433 5.8934-52.501z"/>
  <path d="m102.23 186.86c4.2794-0.88436 8.4757-0.88436 13.745-0.44204l-0.71239 1.7835c-4.7314-0.44205-9.6367 0.0982-14.195 1.3511z"/>
  <path d="m99.463 219.46c7.5914-5.3559 9.793-12.878 10.087-17.056 0.34387-5.0782-1.5427-10.746-5.3558-14.559l-1.5231 0.62398c3.5718 3.5719 5.1824 9.2038 4.8346 13.935-0.44205 5.8413-4.1762 12.514-10.625 17.316z"/>
  <path d="m113.3 192.22c-1.248-2.147-2.9479-3.7438-4.8198-4.9033l-1.4396 0.53553c2.152 1.4199 3.5719 3.2918 5.0959 6.1528z"/>
  <path d="m116.5 186.24c0.44204-1.248-0.29501-1.6656-0.95319-0.44204-1.3167 2.3927-5.2866 8.6836-6.2746 10.434-0.88437 1.5428-1.076 3.4147 1.6656 3.4834 3.0167 0.0493 9.1862 0.39319 12.861 1.0072 0.71239 0.0982 1.2135 0.60435 1.1448 1.4052-0.39319 4.4906-0.93844 11.11-1.1448 14.872-0.1475 2.771 1.302 3.2574 4.2302 2.0783 3.1395-1.2824 10.781-3.9502 13.589-4.8346 0.69275-0.19636 1.2676 0.0493 1.4052 1.0072 0.53552 3.4834 0.86468 6.8465 1.0907 10.66 0.24568 4.0042 2.1323 3.1542 3.5719 1.3364 2.9823-3.7438 5.772-6.8116 9.9315-11.076 1.3855-1.4199 0.39319-2.3043-1.1939-0.78121-3.1887 3.0167-7.5049 7.6955-10.382 10.85-0.24568-4.8886-1.1448-8.8398-1.6115-11.717-0.29501-1.7687-1.1595-2.0291-3.2083-1.6115-3.2771 0.678-11.925 3.1887-13.901 3.7291-1.0564 0.29501-1.3511 0-1.2676-0.95314 0.34386-3.8126 0.29454-11.474 0.34386-13.415 0.0493-2.2895-0.678-2.5499-2.3386-2.8938-3.0167-0.58955-9.0476-1.5231-13.259-1.6655 2.5303-4.8886 4.6774-8.6487 5.685-11.457"/>
  <path d="m156.34 216.31c2.771 3.4834 7.921 9.4632 10.833 12.41 0.39319 0.44204 0.81555 0.49132 1.1939-0.0493 2.5303-4.2794 5.2866-10.66 5.5986-15.287l1.4051-0.19636c-0.34386 5.6335-2.825 12.653-5.2345 16.692-1.0907 1.8523-2.4762 2.6679-4.4219 0.72714-1.9407-1.9407-8.8398-10.642-10.573-13.19z"/>
  <path d="m174.9 213.36c4.4218 1.2676 11.11 3.7438 14.473 5.7543-0.29501-2.6678-1.076-7.3663-2.3583-10.434l1.2136-0.8156c1.8031 4.2302 2.8054 7.5741 3.4147 10.92 0.39319 2.3583-0.56996 3.6751-3.2771 2.2207-4.0927-2.2207-9.7757-5.0261-13.606-6.3783z"/>
  <path d="m283.16 279.56c-7.869-3.5866-17.905-10.781-30.453-23.85-11.179-11.648-40.575-40.316-64.737-48.133l-1.6311 1.3511c24.838 7.6783 53.869 37.282 64.98 48.843 12.67 13.19 22.515 20.626 31.666 24.647z"/>
  <path d="m202.78 187.49c21.787 4.6282 46.555 15.062 57.146 20.366 6.2049 3.1052 11.699 5.1303 15.911 6.1533l0.62398-2.0439c-4.1271-1.0072-9.1518-2.6531-15.27-5.7199-10.521-5.2517-35.012-15.183-56.712-19.915z"/>
  <path d="m299.86 231.96c-1.076-5.1824-5.009-10.452-7.8512-12.688l-1.5231 1.7835c2.2355 1.8916 5.5465 6.0491 6.6903 10.815z"/>
  <path d="m205.37 216.44c-4.1762-4.9033-5.0439-11.561-2.7711-17.176 2.0783-5.0959 6.4304-8.8398 11.353-9.6892l-2.0783-0.74683c-4.9741 0.88437-9.1685 4.7854-11.249 9.9315-2.324 5.7028-1.5084 12.307 2.6875 16.917z"/>
  <path d="m220.39 191.36c-5.633 0.64362-10.85 5.9277-12.601 12.566-1.2135 4.5398-1.6115 11.509 4.1074 17.488l2.4959 0.98758c-6.2397-6.4304-5.8756-14.039-4.8198-17.593 1.8572-6.2742 6.6038-11.526 12.41-12.67z"/>
  <path d="m277.42 211.07c1.926-4.1418 3.7635-8.0596 5.5288-14.421 0.65836-2.3239 2.2355-3.847 4.4562-4.2794 2.4959-0.49132 5.2866 0.52078 6.7944 2.4615 5.8236 7.5048 1.8376 18.164-3.3459 25.028-2.8791 3.8127-6.1184 3.5866-8.6314 2.9627-2.5499-0.64366-4.6086-3.6063-5.3731-5.4424-0.69275-1.6655-0.49132-4.073 0.56996-6.309m-1.8572-0.62398c-1.4052 2.9971-1.8572 5.4424-0.62398 8.3888 0.74682 1.7688 3.5719 5.1824 6.7944 5.9798 2.6335 0.65837 7.5392 0.69276 10.885-3.7438 5.4423-7.2101 10.105-19.569 3.847-27.593-2.4615-3.1739-5.5465-4.019-9.2039-3.4834-2.7907 0.39318-5.6157 2.1814-6.6033 5.7022-1.7491 6.2746-3.1886 10.642-5.0959 14.75"/>
  <path d="m306.2 249.64c-3.395-0.71243-7.7648-1.3364-9.6716-1.6459-4.3138-0.6928-7.3492-4.5054-6.0491-9.5326 1.8031-6.8293 7.9382-5.6157 9.9143-5.5121 3.2771 0.1475 7.609 1.2676 10.538 1.7834 2.9135 0.49132 5.997 1.9751 7.869 4.1074 2.0439 2.3387 7.245 8.7528 9.0997 11.596 1.7835 2.7563 1.0907 5.4944-1.6115 7.6783-1.3364 1.0907-5.3558 3.793-9.2903 0.64366-4.5398-3.6751-8.1981-7.4184-10.348-10.365-1.4395-1.9751-2.6187-1.2823-1.3511 0.81559 2.0095 3.2771 6.2569 8.0247 10.538 11.682 3.7291 3.1739 8.0944 2.8447 12.601-0.79596 3.7979-3.0855 4.3481-6.985 1.8719-10.815-1.8719-2.8792-7.7476-9.5852-9.8278-11.96-2.0291-2.3386-6.0142-4.1762-9.1862-4.7314-3.0314-0.53557-7.4184-1.3364-11.075-1.5231-6.4652-0.295-10.348 0.67801-11.873 6.5168-1.6656 6.3439 1.7344 11.301 7.6783 12.324 2.5843 0.44204 8.0252 0.98757 12.133 1.8916z"/>
  <path d="m291.55 246.96c-2.7366 3.3802-2.4271 10.66 1.7 13.849 2.776 2.1323 4.8198 3.3803 7.4184 5.2689 0.19636 7.4877 1.8719 11.7 3.1199 13.745 1.248 2.0636 4.7314 4.0239 8.0424 3.6554 3.9698-0.44205 7.8689-2.55 6.9502-8.3888-0.71244-4.5594-2.0439-9.3773-2.6678-15.01l-2.1471-1.248c0.53557 5.5465 1.8867 13.138 2.5991 16.795 0.69275 3.5866-2.8054 5.0959-4.8346 5.1824-2.2207 0.0982-4.8198-0.8303-5.9798-2.5991-1.3856-2.0979-2.8595-6.2397-3.0314-12.133-0.0326-0.89912-0.34386-1.3856-0.79596-1.7-2.771-1.8867-4.8542-3.0167-7.3314-5.2689-2.8595-2.5991-3.8323-6.4309-1.6115-11.162z"/>
  <path d="m294.24 259.86c-1.5624 2.0635-2.4271 5.4074-2.8792 7.8517-0.55516 2.9823 1.6459 8.5273 2.4615 10.243 1.0219 2.1815 1.2135 4.4022 1.3167 6.5168 0.0982 2.2207 0.19636 6.8986 0.29454 9.1346 0.19636 4.1762 2.8939 5.8757 6.0147 5.6158 3.7291-0.295 4.9569-3.2771 5.1304-6.3439 0.19636-3.0511 0.1475-7.2278 0-11.076l1.9604 0.0493c0.44204 4.922 0.62398 8.7528 0.34386 12.063-0.29454 3.9698-2.2896 7.609-7.4877 8.0424-4.4563 0.34386-7.9382-2.825-8.1289-7.5918-0.0982-2.2355-0.0982-7.0716 0-9.2903 0.0493-1.9751-0.1475-4.5594-1.076-6.5168-0.91876-1.9407-3.395-7.9559-2.771-11.266 0.49132-2.5647 1.7835-6.1356 3.4834-8.3888z"/>
  <path d="m296.72 298.93c-0.295 4.5741-2.147 6.933-5.4944 7.0543-3.1542 0.0982-5.9278-2.0783-5.9278-5.0788 0-4.4906-0.49128-13.121-1.3708-17.02-0.74682-3.3262-0.1475-5.8064 1.2676-7.4356 1.6312-1.8916 4.0386-3.3262 5.8756-4.0386l-0.58955-1.6116c-2.1323 0.8156-4.7314 2.324-6.6038 4.2106-1.8375 1.8228-2.9135 5.4251-2.0635 9.1867 0.83029 3.6898 1.4395 13.086 1.4395 17.593 0 4.6282 3.9158 7.245 8.1293 6.9674 2.2896-0.1475 7.0543-1.5084 7.1408-8.6664z"/>
  <path d="m88.295 253.24c3.5719-7.1585 8.1986-14.473 13.295-21.666 4.5397-6.396 9.394-13.017 12.081-18.304l-2.0095 0.295c-2.6335 5.2173-7.4184 10.989-11.942 17.35-5.1308 7.2278-10.867 15.599-14.49 22.827z"/>
  <path d="m110.6 266.14c10.937-24.456 19.673-36.762 24.041-41.685 2.5303-2.8251 5.8064-4.7314 9.8273-5.2694l-0.1475-1.474c-3.5866 0.19636-7.5397 1.7491-10.763 5.1475-3.0511 3.223-13.225 15.599-24.231 40.212z"/>
  <path d="m152.24 220.89c1.1448 1.0072 3.1198 3.2083 3.6554 5.5465l0.54046-2.5156c-0.72714-1.8179-1.9063-3.3262-3.2083-4.4562z"/>
  <path d="m103.84 298.09c15.721 2.1471 34.163 1.474 45.013-10.989 9.9659-11.457 10.122-23.434 8.9783-33.625-0.79596-6.9507-2.0439-19.863 0.24568-33.747l-1.6311-1.5084c-2.3927 14.126-1.8572 27.923-1.0564 34.995 1.1251 9.9143 1.2136 21.683-8.5627 32.689-10.382 11.682-28.356 11.699-42.205 10.174z"/>
  <path d="m35.433 351.89c-11.613 8.0424-26.12 5.5637-25.618-6.7251 0.29501-7.0892 9.5329-13.537 17.749-13.173 0.29501 0.0186 0.5547-0.19636 0.62398-0.44204 2.0974-8.3715 10.919-15.911 15.807-19.031l-1.2332-1.7c-4.9574 3.1739-13.676 10.712-15.911 19.638-10.001-0.71243-19.101 6.621-19.464 14.473-0.71044 15.27 16.258 17.593 28.408 9.2903z"/>
  <path d="m63.473 356.27c-2.2355 3.9354-8.909 10.92-18.459 7.834-8.8568-2.8398-9.2902-12.254-8.4409-15.166 1.0401-3.5718 4.4027-8.3887 10.746-8.9783 2.3583-0.19636 2.373-1.6312-0.0186-1.5428-7.7653 0.24568-11.422 5.3731-12.844 10.087-1.4386 4.7314 0.19171 14.785 9.1862 17.68 9.4288 3.0314 17.142-2.6875 19.829-6.8814z"/>
  <path d="m86.617 344.94c5.9798 3.847 8.4934 9.6716 6.7251 15.599-1.528 5.0611-6.4996 10.139-14.213 10.07-6.7939-0.0493-12.115-3.1198-14.212-8.146-1.926-4.6086-0.72719-9.7757 3.2083-13.849 2.1127-2.1814 1.302-3.0855-1.076-1.1791-4.471 3.5718-6.084 10.798-3.847 16.258 2.2551 5.4944 8.77 9.3773 16.084 9.4638 7.2105 0.0493 14.039-4.7314 15.981-11.786 1.7-6.1705-0.62393-14.022-7.8512-17.783-2.0979-1.076-2.7907 0.0982-0.79596 1.3511"/>
  <path d="m87.942 327.87c1.8031 4.8886 2.7022 12.011 2.0635 18.927l2.2208 2.152c0.65837-7.0892-0.44204-15.582-2.3239-20.626z"/>
  <path d="m129.73 296.26c7.5049-0.53552 19.742-3.7438 26.796-3.0314 4.299 0.44205 4.3678 2.152 3.1198 4.6478-1.248 2.4959-4.7314 7.9382-7.921 12.549-0.24569 0.34386-0.67805 0.64362-1.2136 0.72714-4.4218 0.74682-10.989 1.5427-13.935 2.4075 1.5427 1.7491 4.2647 4.2302 5.3038 5.0959 0.39318 0.34386 0.74682 0.88437-0.0493 1.474-2.147 1.5427-6.0319 4.9574-7.8346 6.9679 4.8198 0.49127 9.6023 0.95314 13.727 1.4051 0.58959 0.0493 1.0416 0.1475 1.2676 0.678 0.678 1.5427 2.0095 4.9574 2.8791 6.4996 2.4271-1.1448 7.4877-3.3262 8.5799-3.6898 0.39318-0.1475 0.7812-0.19636 1.2135 0.19636 2.55 2.2699 6.1533 5.3554 8.3023 6.3611 1.6656-3.0167 3.9011-7.6439 4.8886-11.059 0.0982-0.44205 0.29454-0.64367 0.6043-0.79596 3.4834-1.7491 8.4408-4.299 12.722-5.824-2.2207-1.2824-6.6903-3.7979-8.6143-4.7658-0.53552-0.24568-0.52077-0.79596-0.34386-1.1939 5.4944-11.925 9.5154-18.321 11.89-24.543 2.6678-7.0543 4.3334-18.771-9.5674-22.862-7.5919-2.2355-15.617-2.4959-24.56-1.076v-1.7c9.6892-1.4739 16.085-1.5968 25.011 0.98758 9.6023 2.771 17.402 10.313 10.816 25.444-2.1471 4.9225-9.2903 18.754-11.7 23.763 3.4834 1.4199 7.0543 3.1198 9.0132 4.3678 1.9604 1.2627 1.523 2.9479-0.44204 3.4834-1.9604 0.53553-9.0997 3.223-13.295 5.2689-1.6116 4.8198-3.1395 9.2038-4.471 11.526-0.89912 1.5624-1.7835 1.9063-3.3115 0.79596-1.5919-1.1596-4.9033-4.3678-7.7648-6.9679-2.6875 1.4395-5.7199 3.3115-7.5049 4.299-2.0439 1.1251-2.8103 0.50118-3.4834-1.1595-0.53553-1.3511-1.4199-4.5594-2.1323-6.3434-4.8345-0.53553-10.365-0.98753-14.75-0.98753-2.2207 0-2.6678-1.8719-1.3364-3.2918 1.3364-1.4396 5.6335-4.8346 8.4064-6.4304-1.8916-1.6115-4.5594-3.675-5.5464-4.9225-0.98757-1.248-1.1596-2.7563 1.4199-3.2083 2.5991-0.44204 11.44-1.7 14.126-1.8719 1.7835-2.6875 6.3262-9.9143 7.3142-11.7 0.98753-1.7835 0.19636-2.2699-1.7-2.5106-5.8064-0.71239-17.853 2.0636-29.829 2.4075z"/>
  <path d="m135.54 328.41c-2.4959 2.4075-2.6531 8.6836 3.0314 12.947 9.8273 7.3663 30.263 10.677 49.744 4.019 12.947 7.1408 26.605 8.1288 33.764 5.0955 8.2674-3.5178 8.8049-11.682 0.19636-16.258-5.4079-2.8595-16.345-4.471-25.271-2.1471-2.4418 0.64361-2.0095 2.0095 0.44204 1.5083 9.0997-1.8572 19.274-0.0982 23.745 2.3387 5.8069 3.1739 6.9679 8.8221-0.29501 12.306-6.5168 3.1395-19.759 1.2824-32.186-4.4907-0.14751-0.0493-0.29501-0.0493-0.49132-0.0186-19.135 6.621-38.895 2.8054-48.497-4.4022-4.2646-3.1887-4.7854-8.1986-1.7687-10.729z"/>
  <path d="m225.02 337.34c1.7-4.471-1.4199-7.5919-4.8198-9.2903-5.8929-2.9479-15.27-3.5719-23.399-1.4199-2.9135 0.76157-2.6679 2.0783 0.295 1.4543 8.5622-1.8179 15.877-1.0564 21.683 1.5231 2.4615 1.0907 5.009 3.3115 4.3874 6.2918z"/>
  <path d="m185.46 322.96c1.2479 0.39319 3.9354 1.7835 4.9402 2.3731 0.1475 0.0982 0.34386 0.0982 0.50114 0.0326 6.534-2.3583 14.473-3.395 19.776-0.72714 1.3708 0.69276 2.2011 1.6312 2.4762 2.7022l2.3043-0.0186c-0.34386-1.4199-1.7835-3.6062-3.4834-4.4562-6.0668-3.0314-14.109-1.5771-20.886 0.79592-0.86468-0.49132-2.3583-1.1251-3.5031-1.5919z"/>
  <path d="m157.01 158.94c-2.9971 9.5502-8.1289 12.41-11.197 11.197-7.3835-2.9282-3.449-18.217 0.86473-22.203 2.0979 2.7907 5.7199 6.9851 10.33 11.007"/>
 </g>
 <path d="m152.13 154.45c-0.5896 2.7219-4.1959 4.751-5.8585 3.7979-2.4959-1.4395-0.56995-7.2277 1.7835-8.4585 1.302 2.0979 2.6187 3.4343 4.073 4.6626" fill="#fff"/>
 <path d="m163.39 162.28c-7.557-4.3138-15.339-13.277-20.227-22.307l-1.8719 1.5772c4.9918 9.2034 13.658 17.974 21.406 22.411z" fill="#0f141b"/>
</svg>
