<?xml version="1.0" encoding="UTF-8"?>
<svg version="1.1" viewBox="0 0 198.35 167.15" xmlns="http://www.w3.org/2000/svg">
 <g transform="translate(.010656 .11138)">
  <path d="m175.8 8.9q6.6 5.25 7.65 14.85 9.15 1.4 12.5 10.1 3.5 9.05-2.5 15.25-5.1 5.3-13.85 6.1 12.85 18.05 11.65 42.25-0.9 17.55-8.6 34.85-2.25 5.05-4.9 7.65-3.9 3.85-10.15 4.4-14.3 1.25-22.8-8.85-3.35 1.25-9.7 2.25l-9.5 1.3q-3.2 6-8.2 10.3-6 5.1-11.85 5.1t-11.35-7q-4.55-5.85-7.9-15-4.8-1.45-9.6-6.55-1.6 4.5-4.9 7.35-2.85 2.45-7.45 4-2.35 5-5.95 9.5l-12.7-0.65q-4.8-1.05-10.55-3.7-0.8-1.7-2-5.8-1.45-4.9-2-8.45-7.25-0.15-11.35-6.05-4-5.75-1.8-12.25-8.4-0.1-11.35-7.85-2.9-7.75 3.35-13.65-9.45-4.05-8.85-12.45 0.25-3.55 2.6-6.2 2.55-2.75 6.55-3.45-3.65-3.65-4.1-8.4-0.4-4.4 2.05-8.1 2.45-3.8 6.75-5 4.75-1.35 10.2 1 2.8-6.8 9.2-12.75 5.35-4.9 12.6-8.75-4.55-7.6 3-15.95 3.1-3.4 7.15-5.4 4.1-2.05 7.35-1.75 6.2 0.55 7.25 6 0.9 4.95-2.6 10.7 9.15-0.9 20.4 2.5 9.95 3 17.6 8.05 2.25-7.35 9.1-10.55 5.15-2.4 12.35-2.25 2.3-2.7 6.8-3.2 4.8-0.55 8.6 2.05 4.9-9.35 17.35-9.9 8.45-0.4 14.45 4.35" fill="#d18200"/>
  <path d="m86.4 71.05q7.5 10.15 4.4 21.35-2.7 9.75-14.3 12-8.25 1.55-16.55-0.65l-26.8-8.95q-4.8-3-7.3-8.85-3-7.05-0.4-14.4 3.2-9.05 13.1-13.8 11.3-5.45 25.3-1.35 14.95 4.4 22.55 14.65" fill="#776b59"/>
  <path d="m33.85 91.55 1.75-8.1q2.5 0.75 6 0.05 2.8-0.6 5.25-1.85 2.2 3.9 7.55 7 4.6 2.65 9.05 3.5l-2.85 9.45-2.5 7.1q-0.8 1.95-2.4 2.55l-4.15 0.2q-2.9-0.35-8.3-1.85-5.85-1.6-8.1-2.9t-2.7-2.95q-0.35-1.25 0.05-4.2l1.35-8" fill="#fff"/>
  <path d="m56.3 60.75q0.1 1.6-2.9 4.5-2.9 2.85-3.9 2.5-1.95-0.6-3.2-4-1.25-3.45 0.25-4.9 1.55-1.5 5.65-0.55 4 0.9 4.1 2.45" fill="#e50012"/>
  <path d="m82 45.25q6.1-2.3 10.25 0.3 3.75 2.3 4.8 7.75 1 5.3-1 11.1-2.15 6.25-7 10.45-3.8-7-10.9-11.9-7.3-5-17.4-7.35-9.7-2.25-18.05 0.2-7.35 2.15-11.95 7.35-1.7-4.7-1.15-10.55 0.45-5.15 2.4-8.8 2.65-5 6.75-5.8 3.95-0.8 7.75 2.75 2.85-6.3 8-8.9 4.7-2.35 11.8-1.9 4.5 0.25 8.75 3.8 5.2 4.25 6.95 11.5" fill="#fff3c2"/>
  <g fill="#776b59">
   <path d="m46.75 146.35q6.5 0.85 12.15-0.2l-7.75 7.4q-3.95 3.25-7.2 4.65-0.1-3.15 1.05-7.3l-5.7 3.2q-4.6 2.5-6.8 3.85 0.25-2.15 1-4.05 0.85-2.15 2.85-5.25l-5.1 1q-3.55 0.4-5.3 0.1 2.75-4.65 9-7.2 4.8 2.85 11.8 3.8"/>
   <path d="m112.45 164.5q-3.55-2.8-5.5-5.75-4.5 4.1-9.8 7.25 0.65-4.8 1.25-7.4l-7.85 1.5q1.4-3 7.15-9 4.6 4.15 10.6 2.9 4.2-0.85 8.75-4.3-1.1 3.05-2.65 8.3l-1.95 6.5"/>
   <path d="m167.15 144.6q4.35-0.55 9.35-3.45 0.45 3.6 0 8.3-0.45 4.3-1.25 6.45l-6.2-5.6q-1.15 0.75-3.45 3.2l-4.1 4.7q-0.55-1.4-1.4-8.15-2.9 1.2-10.1 3.25 4.35-7.65 5.85-9.95 6.6 1.8 11.3 1.25"/>
  </g>
  <path d="m76.6 125.65q1.6 2.4 4.2 4.05 1.6 1.05 5.2 2.6l2.6 5.95-7.45-2.2q-5.4-1.65-8.9-3.1 2.7-2.45 4.35-7.3" fill="#dbd2a9"/>
  <path d="m129.95 128.15q9.35 1.1 19.9-1.45 6.4-1.55 15.8-5.4-6.75 8.4-18.2 13.1-10.65 4.4-21.95 4.3 2.75-5.4 4.45-10.55" fill="#dbd2a9"/>
  <g fill="#ab6a00">
   <path d="m2.1 72.65q1.4 6.5 7.7 9.8 6.6 3.45 15.3 1.5 1.25 3.25 3.4 6.15 2.35 3.2 4.95 4.65-1.2 4.8-1.2 7.55 0 3.55 2.9 4.65l8.6 2.6 8.4 2.05 3.85-0.15q1.05-0.55 2.1-2.55 1.1-2.25 2.05-5.3 9.45 3.05 17.85 0.7 9.5-2.75 12.65-11.6 1.3 8.75 11.5 15.05 10.2 6.25 18.15 3.25-1.8 2.9-5.25 4.35-4.65 2-10.65 0.3 1.85 4.55-0.3 9.1-2.05 4.35-6.65 6.65-4.85 2.4-10.15 1.25-5.95-1.3-10.7-7-1.5 5.6-6.55 8.95-4.75 3.15-10.55 3.1-6-0.05-10.1-3.6-4.65-3.95-5.25-11.1-4.3 3.95-9.6 4.8-5 0.85-9.3-1.25-4.4-2.05-6.45-6.35-2.25-4.6-1.1-10.5-3.4 0.05-6.4-1.95-2.95-1.95-4.4-5.1-3.6-7.55 3.1-14.3-4.9-1.2-7.7-6.9-2.8-5.65-0.2-8.8"/>
   <path d="m44.15 123q0.75 8.5 7.2 12.2 5 2.8 13 2.55-3.4 6.2-6.45 9-6.65 0.65-13-0.75-5.6-1.25-9.6-3.75-2.35-5.1-4.3-14.1 4.5 0.3 7.65-1.15 2.2-1 5.5-4"/>
   <path d="m93.9 146.6q-3.8-5.05-7.9-14.3l9-0.3q4.25-1.3 7.5-4.05 5.85 4.25 15.05 1.95 9.5-2.4 14.3-10.1-2 15.3-10.9 25.55-7.85 9.05-15.4 8.9-5.95-0.1-11.65-7.65"/>
   <path d="m166.45 120.9q-7.1 3.3-15.95 5.5-11.75 2.95-20.6 2.2l1.6-5.75q7.5 1.05 19.25-1 11-1.95 18.6-5.25l-2.9 4.3"/>
   <path d="m163.3 144.6q-12.1 0.1-18.5-9.1 13.4-5.55 21-13.6 5.25 2.3 12.85-1.6 9.1-4.7 12.35-15.9-1.85 11.4-6 21.85-3.55 8.9-7 13.1-1.75 2.15-5.75 3.6-4.25 1.6-8.95 1.65"/>
   <path d="m192.85 49.3q-5.15 5.45-13.4 5.9l-3.7-4.55-4.15-4.45q5.9 2.45 13.95 0.25 8.25-2.3 11.7-7.6 0.15 5.65-4.4 10.45"/>
   <path d="m132.5 17.75q6.25-0.35 9.7 2.25-0.25 2.7-0.1 4.8 0.1 2.4 0.8 5.4l-6.1-0.65q0.25-4.1-0.55-6.7-1-3.3-3.75-5.1"/>
   <path d="m47.7 12.35q-0.85 7.65 2.35 11.25l-2.9 0.75q-2.15-2.3-1.9-5.85 0.3-3.25 2.45-6.15"/>
   <path d="m136.5 24.35q1.4 10.15-5.55 15.9-5.1 4.2-11.7 4.6-2.95 0.15-2.9-1.75 0.1-1.95 2.95-2.65 4.55-1.15 9.9-5.95 5.5-5.05 7.3-10.15"/>
  </g>
  <g fill="#594f41">
   <path d="m46.35 146.3 11.55 0.45q-3.4 4.65-8.2 7.95-3.4-1.45-7.2-4.55-3.8-3.05-6.55-6.55 4.6 1.9 10.4 2.7"/>
   <path d="m96.25 152.9 1.4-1.85q4.8 4.25 10 3.4 3.85-0.6 9.15-4.5l-2.7 10.8q-11.75-1.55-17.85-7.85"/>
   <path d="m167.4 144.5q5.75-0.65 9.25-3.55v3.95q-3.45 3.45-11.1 4.7-7.85 1.25-12.9-1.05l3.05-5.2q6.15 1.7 11.7 1.15"/>
   <path d="m25.5 71.65q0.35 1.1 1.45 1.75 1.15 0.75 2.5 0.55-0.75 2.75 1 5.6 1.8 3 4.9 3.65l-2 11.25q-4.75-2.25-7.15-8.15-2.8-6.7-0.7-14.65"/>
   <path d="m91.2 87.85q-0.6 8.85-6.8 13.6-8.25 6.3-24.25 2.15l3.3-11q10.6 0.95 17.7-5.1 1.25 1.75 4.55 1.95 3.35 0.15 5.5-1.6"/>
  </g>
  <g fill="#0d131a">
   <path d="m42.2 46.95q0.45 1.6 0 3.75-0.45 2-1.6 3.15-1.2 1.15-2.4 0.85-1.15-0.25-1.65-1.8-0.5-1.5-0.1-3.5 0.45-2.35 1.7-3.5 1.1-1.1 2.4-0.8 1.15 0.25 1.65 1.85"/>
   <path d="m88.55 58.9q-0.65 2.35-2.05 3.6-1.35 1.1-2.65 0.7-1.35-0.4-1.95-2.15-0.6-1.8 0-3.95 0.65-2.25 1.95-3.4 1.3-1.1 2.75-0.7 1.3 0.4 1.9 2.05 0.65 1.75 0.05 3.85"/>
   <path d="m55.65 60.65q-0.4-1.25-4.25-2-4.05-0.85-4.7 1.15-0.55 1.6 0.55 4.15 1.1 2.45 2.2 2.75 1.5 0.2 3.95-2.45 2.25-2.5 2.25-3.6m-4.3-3.2q4.8 0.75 5.55 2.95 0.5 1.65-2.4 4.95-3.05 3.45-5.45 3-1.5-0.25-2.85-3.5-1.4-3.3-0.75-5.3 0.95-2.9 5.9-2.1"/>
   <path d="m184 23.75-1.35-0.05q-1.2-9.45-8.2-14.35-5.55-3.8-12.25-3.7-8.2 0.15-13.5 4.65-6.6 5.6-5.9 16.25 0.1 1.2-0.45 1.3-0.5 0.05-0.7-1.15-1.6-11.8 5.55-18.15 5.85-5.1 15-5.25 7.9-0.05 13.85 4.25 7.6 5.5 7.95 16.2"/>
   <path d="m126.4 14.45q4.8 0.35 7.9 3.1 3.15 2.8 3.75 7.55 0.65 4.6-1.35 9.2-4.75 11.05-17.5 11-1.15 0-1.15-0.45-0.05-0.45 1.05-0.6 11.3-1.5 15.45-11.1 1.7-4 1.25-7.85-0.45-3.9-2.95-6.1-2.35-2.1-6.45-2.3-3.95-0.15-8.1 1.5-9.75 3.9-10.95 12.45-0.15 0.95-0.65 0.9t-0.45-1q0.25-10.2 10.95-14.7 4.6-1.9 9.2-1.6"/>
   <path d="m107.45 27.4-0.45 2.6q-7.9-6.8-22.85-9.95-16.5-3.45-28.25 1.2-1.15 0.45-1.4-0.2-0.2-0.7 0.95-1.15 12.65-5.05 29.2-1.9 14.55 2.75 22.8 9.4"/>
   <path d="m48.65 23.05q1.35-0.4 1.75 0.25 0.35 0.7-1 1.15-7.1 2.4-13.45 8.3-7.1 6.6-11.05 15.7-0.5 1.15-1.1 0.95-0.55-0.25-0.2-1.45 3.05-9.55 10.4-16.35 6.45-6 14.65-8.55"/>
   <path d="m67.95 17.65q5.05-6.55 2.4-11.75-2.7-5.25-10.6-3.05-7.85 2.15-11.8 10.45-1.6 3.45-1.6 6.4 0 3.05 1.8 4.3l-1.6 0.75q-2-1.9-2-5.5 0-3.45 1.8-7.25 4.2-9.05 12.85-11.45 8.45-2.35 12.4 3.65 4 6.05-1.75 13.45h-1.9"/>
   <path d="m7.5 48.95q2.7-3.75 7.75-5.1 5.65-1.45 10.3 1.5l-0.6 1.2q-4.6-2.2-9.05-0.85-3.95 1.25-6.4 4.7-2.35 3.25-2.2 7.15 0.15 4.7 3.95 8.8l-1.6 0.3q-4.15-3.6-4.45-9.2-0.25-5 2.3-8.5"/>
   <path d="m12.05 66.95q-3.9 0.2-6.4 2.35-2.55 2.2-3.1 5.85-0.6 3.8 1.35 7.25 2.3 3.9 7.15 5.5l-1.15 1.05q-5.45-1.55-8.1-6.05-2.35-3.95-1.65-8.25 0.7-4.1 4.25-6.8 3.6-2.7 7.65-2 0.9 0.15 0.9 0.6 0.05 0.45-0.9 0.5"/>
   <path d="m5.7 92.9q2-4.55 6.25-5.95l1.15 0.1q0.2 0.4-0.75 0.9-3.55 1.8-4.8 5.6-1.05 3.3-0.1 7.05 0.9 3.6 3.35 5.75 2.9 2.6 7.3 2.45l-0.35 1.55q-4.8 0.45-8.5-2.5-3.3-2.65-4.3-6.75-1-4.05 0.75-8.2"/>
   <path d="m44.45 121.05-0.15 2.3q-4.05 5.65-11 6.2-6.05 0.45-10.8-2.85-4.05-2.8-5.55-7.85-1.8-5.85 1.3-11.6 0.8-1.4 1.15-1.25 0.4 0.2-0.15 1.7-1.95 5.45-0.35 10.2 1.4 4.15 5 6.65 4.4 3.1 9.85 2.65 6.45-0.5 10.7-6.15"/>
   <path d="m77.35 121.45q0.45 0.1 0.35 1.65-0.3 6.35-5.5 11.35-5.85 5.6-13.95 4.55-8.9-1.15-12.6-7.4-3.25-5.5-1.4-12.25 0.3-1.1 0.75-1 0.5 0.15 0.3 1.25-1.2 6.9 2.55 11.7 3.7 4.65 10.5 5.4 6.05 0.65 11.15-2.7 5.75-3.8 7.1-11.1 0.3-1.5 0.75-1.45"/>
   <path d="m76.5 126.25 0.65-1q4.4 5.9 11.6 6.45 5.6 0.4 9.6-2.05 3.95-2.4 5.45-6.35 1.7-4.6-0.8-9.6-0.45-0.9-0.05-1.15t0.95 0.55q3.45 4.55 1.95 10.35-1.5 5.6-6.35 8.45-4.9 2.9-11.6 1.9-7.85-1.2-11.4-7.55"/>
   <path d="m121.15 94.15q-3.05-4.8-8.7-4.9-1.1-0.05-1.15-0.5 0-0.5 1.1-0.6 7.15-0.7 10.85 5.6 3.45 5.9 1.55 12.5-1.45 5.1-6.5 8.45-6.05 3.95-13.1 1.75l-0.7-1.3q7.6 1.65 12.7-2.15 3.75-2.85 5.1-7.4 1.9-6.55-1.15-11.45"/>
   <path d="m118.65 90.35-1.6-1.15q7.2-0.9 11-6.25 3.2-4.5 2.6-9.1-0.65-5.15-4.1-8.3-3.95-3.75-10.15-3.1-1.15 0.1-1.3-0.35-0.1-0.45 1.05-0.7 6.45-1.3 11.3 2.4 4.7 3.5 5.55 9.7 0.8 5.4-2.6 10.1-3.9 5.5-11.75 6.75"/>
   <path d="m94.55 49.4q-1.85-3.15-5.3-4-3.25-0.85-6.8 0.7l-0.85 0.2q-0.25-0.2-0.55-1.4-1.05-4.85-4.6-8.55-3.95-4.1-9.65-5.2-6.6-1.3-11.8 1.4-4.85 2.45-7.6 7.75l-0.9 1.2-1.35-0.85q-3.85-2.85-7.5-1.3-3.35 1.45-5.4 6.05-1.75 4-2.05 8.8-0.3 4.9 1.15 8.15l-0.95 1.15q-2.3-4.3-1.9-10.2 0.4-5.2 2.6-9.65 2.75-5.45 7.25-6.4 4.2-0.9 7.8 2.25 2.35-5.35 7.65-8.3 5.95-3.3 13.3-1.9 6.05 1.15 10.3 5.35 4.15 4.15 5.15 9.9 4.05-1.9 7.75-1 3.8 1 5.95 4.7 4.4 7.5 1.15 16.6-2.95 8.35-8.85 10.65l-0.65-1.3q5.55-2.55 7.75-10.9 2.2-8.25-1.1-13.9"/>
   <path d="m89.1 93.75q4.4-11.9-4.15-22.95-8.1-10.4-22.45-13.95-12.6-3.1-22.5 1.25-9.05 3.95-12.9 12.4-2.55 5.7-1.1 12.1 1.6 7.1 7.6 11.55l-0.35 1.45q-7.1-3.6-9.05-12.05-1.75-7.45 1.1-14 4.2-9.65 14.9-13.55 10.4-3.75 22.7-0.75 15.25 3.75 23.85 15.05 9.1 11.95 4.1 24.5-2.55 6.4-9.75 9.45-9 3.75-21.65 0.1l0.4-1.45q11.9 2.9 20.15-0.45 6.95-2.85 9.1-8.7"/>
   <path d="m28.95 74.65q0.25-1.2 0.65-1.1 0.45 0.1 0.4 1.35-0.05 3.7 2.6 5.95 4.75 4 13.45 0.45l0.95-0.2q0.4 0.05 0.75 0.6 2.8 3.85 6.95 6.4 4.1 2.5 8.85 3.25 9.25 1.5 16.7-3.9 0.85-0.65 1.15-0.25t-0.5 1.1q-3.35 3.2-8.15 4.55-4.6 1.3-9.4 0.55-5.05-0.8-9.5-3.6-4.65-2.95-7.25-7.25-4.7 2.2-8.8 2.15-4-0.05-6.55-2.25-1.55-1.3-2.2-3.5-0.55-2.1-0.1-4.3"/>
   <path d="m34.7 83.1 1.8 0.5q-1.15 4.35-2.15 9.7-1.1 5.65-1.3 8.45-0.05 1.7 0.5 2.7 0.6 1 2.1 1.7 4.85 2.3 17.35 4.65 2.95 0.45 3.9-1.85l2.95-8 2.85-8.85 1.7 0.4-5.85 17.35q-0.75 1.9-2.1 2.55l-3.6 0.3q-4.65-0.7-9.45-2-4.85-1.35-8.1-2.9-2.3-1.05-3.1-2.25-0.95-1.4-0.7-3.8 1.1-9.2 3.2-18.65"/>
   <path d="m45.75 92.55q0.4-1.15 0.9-1.05 0.45 0.15 0.15 1.35-2 7.85-3.7 16.55l-1.85-0.5q1.65-8.55 4.5-16.35"/>
   <path d="m136.8 30.6 0.15-2.15q3 0 6.6 1.1 3.4 1 5.8 2.45 0.95 0.55 0.7 1.05l-1.25 0.1q-6.15-2.55-12-2.55"/>
   <path d="m129.7 16.35-2.5-1q3.3-4.2 9.35-4.25 5.65-0.05 8.15 3.05l-0.95 1.4q-2.4-2.25-6.4-2.35-4.55-0.05-7.65 3.15"/>
   <path d="m165.45 34.4q0.4-3.35 3.5-6.4 3-2.95 7.3-4.35 10.4-3.5 17.2 4.05 3.95 4.3 4.7 9.5 0.75 4.8-1.4 9.2-2.15 4.35-6.5 6.85-4.6 2.7-10.45 2.5l-0.7-1.2q10.85-0.55 15.25-8.8 4.5-8.4-2.55-16.35-5.75-6.5-14.85-3.7-3.7 1.15-6.6 3.6t-3.8 5.2q-0.4 1.05-0.8 1.05-0.4-0.05-0.3-1.15"/>
   <path d="m58.65 145.55-0.75 1.5q-5.95 1.4-13.15-0.05-6.1-1.25-10.5-3.8-1.25-2.7-2.35-7-1.15-4.45-1.45-7.9h1.55q0.6 3.45 1.8 7.35 1.15 3.9 2.35 6.5 4.8 2.3 10.2 3.4 7.15 1.45 12.3 0"/>
   <path d="m65.3 137.55q-6.35 12.25-18.65 20.65-4.3 2.95-3.8-1.45 0.15-1.15 1.2-4.6l-8.7 5.75q-2.45 1.75-3.45 1.05t-0.25-3.1q0.45-1.45 1.5-3.35l1.9-2.9q-3.9 1.35-7.4 1.65-5.05 0.3-1.55-3.7 1.25-1.4 4-3.15 2.5-1.6 4.65-2.55l0.85 1.15q-2.15 0.8-4.55 2.65-2.3 1.75-3.75 3.55l8.2-1.15 1.8 0.05q0.35 0.4-0.4 1.4-2.65 3.4-3.1 6.85 2.35-1.15 5.75-3.2l4.35-2.75q0.7-0.5 1.3-0.35 0.7 0.2 0.5 1.15-0.55 2.6-0.6 5.2 5.85-3.45 11.1-8.7 5.2-5.25 7.55-10.1l1.55-0.05"/>
   <path d="m80.5 137.45q-4.1-1.4-9.1-3.85l1.25-1.3q4.35 1.9 8.25 3.05l7.6 1.85 1.5 2.55q-5.1-0.85-9.5-2.3"/>
   <path d="m176.95 98.75q0.5-1.6 1.1-1.45t0.2 1.75q-5.1 20.1-18.95 30.5-13.35 10.05-35.05 11.25l1.15-2.75q20.4-1.35 33.15-11.15 12.55-9.7 18.4-28.15"/>
   <path d="m167.75 118.85-1.6 2.4q-6.25 3.9-16 6.25-10.6 2.6-20.9 2.15l0.4-2.1q10.55 0.45 21.3-2.1 10.05-2.45 16.8-6.6"/>
   <path d="m131.9 116.45q0.3-1.75 0.9-1.65 0.65 0.1 0.4 1.85-1.9 17.7-10.5 28.8-7.6 9.8-16.45 10.15-6.7 0.25-12.8-7.55-4.7-6.1-8.2-15.7l1.65 0.1q9.15 21.2 19.35 20.8 7.2-0.35 14.1-8.8 8.25-10.2 11.55-28"/>
   <path d="m106.8 159.7q-2.85 3.25-7 6.15-1.95 1.4-3 1.15-1.1-0.25-0.7-2.35 0.2-1.45 1.55-5.15l-5.1 1.65q-2.4 0.65-2.95-0.45-0.6-1.1 1.15-3.15 3.8-4.55 6.3-6.55l1.2 0.7q-4.5 4.8-6.2 7.7l5.45-1.3q2.1-0.55 1.7 1-0.8 3.5-0.95 5.25l4.5-3.25 3.2-2.65 1.65 0.05q2 2.4 4.45 4.5 0.8-2.8 4.1-12.7l1.7-0.8q-1.9 6.15-3.75 13.6-1 4.1-3.45 1.5-1.3-1.35-3.85-4.9"/>
   <path d="m177.2 140.4q0.9 7.05-0.45 14.45-0.25 1.4-1.1 1.85-1 0.45-2.25-1-2.15-2.65-4.4-4.4-3.65 3.55-5.4 6.2-1.15 1.65-2.1 1.55-1.15-0.1-1.5-2.6l-0.45-5.45-6.55 2.95q-2.85 1.15-3.85 0.25-1.15-0.95 0.8-3.7l5.25-7.25 1.4 0.2q-2.25 4.35-5.35 8.9 3.1-1.1 7.9-2.65 1.45-0.7 1.75 0.8l1 5.85 3.55-3.65 2.65-2.6q0.8-0.8 1.55-0.2l5.2 4.15q1.55-5.75 1.05-12.55l1.3-1.1"/>
   <path d="m172.05 47.75q-1.15-1.15-0.6-1.55 0.5-0.45 1.75 0.65 17.85 15.9 19.25 44 1.25 25.9-11.25 46.5-4.05 6.7-12.55 7.95-5.75 0.85-13.3-0.95-6.5-1.6-11.6-8.7l1.25-0.65q3.15 3.2 6.2 5.1 2.85 1.8 5.1 2.2 7.95 1.3 11.85 0.8 7.3-1 10.9-7.25 11.25-19.4 10.85-43.65-0.45-27.95-17.85-44.45"/>
  </g>
  <path d="m40.75 47.85s-0.2642 0.7215-0.55 0.95c-0.21821 0.17446-0.52871 0.31675-0.8 0.25-0.27465-0.06758-0.48585-0.34121-0.6-0.6-0.14813-0.33583-0.14136-0.74451-0.05-1.1 0.08752-0.34052 0.27281-0.68373 0.55-0.9 0.22027-0.17186 0.52871-0.31675 0.8-0.25 0.27465 0.06758 0.48558 0.34134 0.6 0.6 0.14175 0.32044 0.05 1.05 0.05 1.05" fill="#fff"/>
  <path d="m86.9 55.85s-0.33098 0.73681-0.65 0.95c-0.26906 0.17981-0.63815 0.28645-0.95 0.2-0.30684-0.08507-0.56019-0.36392-0.7-0.65-0.16895-0.3457-0.19768-0.77782-0.1-1.15 0.0974-0.37113 0.33098-0.73681 0.65-0.95 0.26906-0.17981 0.63981-0.29221 0.95-0.2 0.3163 0.09403 0.56004 0.40117 0.7 0.7 0.15616 0.33342 0.2 0.7 0.1 1.1" fill="#fff"/>
 </g>
</svg>
