<?xml version="1.0" encoding="UTF-8"?>
<!-- Created with Inkscape (http://www.inkscape.org/) -->
<svg version="1.1" viewBox="0 0 134.16 82.519" xmlns="http://www.w3.org/2000/svg">
 <g transform="translate(-11.687 -6.093)">
  <g transform="matrix(.58459 0 0 -.58459 59.093 28.75)">
   <path d="m0 0c-4.227-3.139-16.542-13.161-17.629-15.817-1.087-2.657-2.174-28.255-0.482-30.066 1.689-1.81 21.612-11.713 28.132-15.455 0.242-7.486 0.846-26.201 2.295-28.133s24.632-12.437 29.461-12.316c4.829 0.12 25.357 11.591 33.688 19.923-6.278-3.502-17.629-9.419-20.768-9.178-3.139 0.243-24.269 10.988-26.202 14.128-1.932 3.14-1.327 25.235-1.448 30.548-7.245 3.381-24.633 12.436-26.322 14.61-1.692 2.173-2.415 23.787-0.725 31.756" fill="#f9be00"/>
  </g>
  <g transform="matrix(.58459 0 0 -.58459 106.46 22.397)">
   <path d="m0 0c-2.486 0.518-18.354-5.433-25.236-8.814-7.125 4.467-23.063 13.402-28.013 13.161-4.951-0.242-24.753-11.592-27.289-14.731-2.535-3.139-1.087-29.583 0.242-32.239 1.328-2.656 21.734-12.678 26.322-14.61-0.362-9.056 0.484-28.737 1.449-30.548 0.965-1.812 21.371-14.007 26.202-14.128 4.829-0.12 22.716 10.096 26.563 14.369 1.087 1.207 1.328 23.425 1.207 27.892 6.037 2.898 18.956 9.66 20.648 11.954 1.69 2.294 3.392 26.045 1.57 31.877-1.208 3.863-20.768 15.213-23.665 15.817" fill="#ec6c00"/>
  </g>
  <g transform="matrix(.58459 0 0 -.58459 75.615 23.379)">
   <path d="m0 0c-3.013 0.067-20.248-8.419-21.552-11.026-1.302-2.606-1.107-23.508-0.2-25.261 1.504-2.906 17.042-11.226 22.755-11.728 5.714-0.502 23.256 5.714 22.053 24.659-1.203 18.946-18.545 23.256-23.056 23.356" fill="#f9be00"/>
  </g>
  <g transform="matrix(.58459 0 0 -.58459 105.56 25.664)">
   <path d="m0 0c-4.115 0-17.642-7.117-19.547-10.024-1.904-2.907-1.703-22.955-0.802-24.86 0.903-1.904 14.134-11.827 19.146-12.229 5.012-0.401 23.599 4.214 22.955 23.957-0.601 18.445-17.44 23.156-21.752 23.156" fill="#f9be00"/>
  </g>
  <g transform="matrix(.58459 0 0 -.58459 90.969 50.511)">
   <path d="m0 0c-3.41-0.167-18.443-6.816-20.549-10.625-2.105-3.81-1.003-22.354 0.2-25.161 1.203-2.806 16.539-10.925 19.647-11.327 3.108-0.401 24.032 1.413 24.759 23.957 0.402 12.43-11.727 23.758-24.057 23.156" fill="#f9be00"/>
  </g>
  <g transform="matrix(.58459 0 0 -.58459 53.926 35.912)">
   <path d="m0 0c-3.859 0.325-7.118-5.788-7.548-11.146s1.721-11.263 5.437-11.459c3.715-0.196 5.045 6.375 5.357 10.716 0.313 4.342 0.469 11.576-3.246 11.889" fill="#ec6c00"/>
  </g>
  <g transform="matrix(.58459 0 0 -.58459 84.752 52.82)">
   <path d="m0 0c2.705-3.759 9.923-11.477 13.531-11.928 3.61-0.451 10.676 7.719 9.223 12.58-2.106 1.554-9.072 3.559-12.431 3.358-3.357-0.2-7.366-2.205-10.323-4.01" fill="#e73821"/>
  </g>
  <g transform="matrix(.58459 0 0 -.58459 95.891 67.727)">
   <path d="m0 0c-2.743-0.607-9.447-1.188-12.561-0.264 0.184-4.512 2.166-11.953 6.755-11.743 4.039 0.185 6.386 8.84 5.806 12.007" fill="#ed8599"/>
  </g>
  <g transform="matrix(.58459 0 0 -.58459 62.34 71.808)">
   <path d="m0 0c-0.966-10.384 1.087-16.663 5.071-20.164 3.985-3.501 9.66-6.52 14.248-7.607-6.399 0-17.91 1.183-21.492 7.003-2.898 4.71 0.604 17.266 2.173 20.768" fill="#f9be00"/>
  </g>
  <g transform="matrix(.58459 0 0 -.58459 64.956 65.383)">
   <path d="m0 0c-6.276-10.631-6.074-20.149-2.126-27.643 3.745-7.104 12.049-9.821 18.53-11.441 2.532 0 8.707 0.203 11.239 0.709-6.379 2.127-23.794 9.518-25.415 11.34-1.621 1.823-2.026 20.757-2.228 27.035" fill="#595857"/>
  </g>
  <g transform="matrix(.58459 0 0 -.58459 120.61 35.685)">
   <path d="m0 0c10.233 7.697 23.235 15.585 32.964 17.206 4.347 0.724 10.232 0.905 9.056-8.513-1.178-9.418-13.916-26.671-23.999-30.337-2.988-1.086-12.587-2.083-18.746 1.902 0.635 5.072 1.178 14.58 0.725 19.742" fill="#fff"/>
  </g>
  <g transform="matrix(.58459 0 0 -.58459 59.517 47.526)">
   <path d="m0 0c-3.26-2.656-14.973-11.229-18.595-14.127 5.493-3.2 23.062-12.375 28.013-15.394 3.441 3.079 13.281 12.194 16.904 15.394-6.158 2.838-23.425 11.29-26.322 14.127" fill="#d7a400"/>
  </g>
  <g transform="matrix(.58459 0 0 -.58459 66.257 81.09)">
   <path d="m0 0c4.829 3.984 11.834 9.178 16.301 12.498 5.614-4.408 21.854-13.887 26.019-14.007 4.166-0.12 15.999 6.4 21.675 10.082-7.788-7.123-24.45-19.198-34.11-20.707-6.098 0.663-21.855 6.157-29.885 12.134" fill="#d7a400"/>
  </g>
  <g transform="matrix(.58459 0 0 -.58459 73.437 88.03)">
   <path d="m0 0c5.457-0.327 10.619-0.156 13.68 0.16-9.056 2.716-19.742 7.969-25.537 11.048-1.141-0.641-2.352-1.182-3.631-1.555 3.068-3.526 7.146-7.004 15.488-9.653" fill="#3e3a39"/>
  </g>
  <g transform="matrix(.58459 0 0 -.58459 60.628 82.536)">
   <path d="M 0,0 C 0.472,-6.431 11.708,-8.787 21.91,-9.397 13.568,-6.748 9.49,-3.27 6.422,0.256 4.447,-0.32 2.308,-0.495 0,0" fill="#d7a400"/>
  </g>
  <g transform="matrix(.58459 0 0 -.58459 49.776 45.691)">
   <path d="m0 0c2.656-2.898 8.09-3.502 10.021 3.26 0-5.916-2.776-8.814-4.587-9.056s-4.227 1.812-5.434 5.796" fill="#cc5d00"/>
  </g>
  <g transform="matrix(.58459 0 0 -.58459 88.775 70.324)">
   <path d="m0 0c2.993 1.15 8.262 0.533 10.08-4.376 0 0 2.653 6.232 2.123 8.752 0 0-7.958-1.723-12.6 0 0 0-0.133-2.652 0.397-4.376" fill="#923000"/>
  </g>
  <g transform="matrix(.58459 0 0 -.58459 68.093 26.581)">
   <path d="m0 0c-6.439-3.735-12.053-17.486-4.347-29.341 7.064-10.867 24.866-12.189 34.775-5.071 0 0-9.056-8.332-16.482-8.151-7.425 0.182-21.552 9.781-22.639 11.592s-1.087 23.545-0.363 25.175c0.725 1.63 9.056 5.796 9.056 5.796" fill="#d7a400"/>
  </g>
  <g transform="matrix(.58459 0 0 -.58459 83.975 53.368)">
   <path d="m0 0c-7.375-4.277-10.558-19.788-4.347-29.341 7.265-11.177 24.743-12.276 34.775-5.071-3.442-3.26-10.003-7.982-17.931-7.788-7.426 0.181-20.103 9.418-21.19 11.229s-1.087 23.545-0.363 25.176c0.725 1.629 9.056 5.795 9.056 5.795" fill="#d7a400"/>
  </g>
  <g transform="matrix(.58459 0 0 -.58459 98.798 28.381)">
   <path d="m0 0c-7.363-4.27-10.324-20.466-3.804-29.884 6.168-8.91 20.836-12.046 32.058-3.985-3.336-4.301-12.201-8.586-15.214-8.512-7.426 0.181-20.828 10.323-21.915 12.134s-0.362 23.002 0.362 24.632c0.725 1.63 8.513 5.615 8.513 5.615" fill="#d7a400"/>
  </g>
  <g transform="matrix(.58459 0 0 -.58459 120.51 44.919)">
   <path d="m0 0c4.471 0.604 30.109 8.371 41.206 22.212-0.713-6.242-14.78-26.72-24.788-28.811-8.597-1.797-16.871 2.552-16.9 2.575z" fill="#dbdcdc"/>
  </g>
  <g transform="matrix(.58459 0 0 -.58459 89.28 72.011)">
   <path d="m0 0c2.386 1.364 7.331 0.758 9.429-1.051-1.986 2.929-5.066 5.001-10.404 3.836z" fill="#ce7486"/>
  </g>
  <g transform="matrix(.58459 0 0 -.58459 106.17 73.219)">
   <path d="m0 0c-1.658-3.647-20.89-14.067-25.839-14.067-3.868 0-23.613 11.06-25.417 13.705-1.258 1.843-1.629 18.846-1.444 30.02 5e-3 0.369-0.219 0.544-0.431 0.645-6.805 3.249-24.408 12.052-25.775 14.191-1.565 2.449-2.311 27.886-0.363 31.394 0.842 1.517 20.637 14.569 26.684 14.489 2.66-0.035 9.404-1.992 27.244-12.995 0.369-0.228 0.671-0.254 1.223 0 7.329 3.382 21.609 8.816 24.541 8.588 3.869-0.3 20.643-11.574 22.88-15.334 1.48-2.487 0.528-27.737-1.206-30.79-1.305-2.299-14.77-8.929-20.407-11.652-0.285-0.137-0.451-0.31-0.452-0.604-9e-3 -7.103-0.422-25.796-1.238-27.59m-24.689 78.766c-14.451 8.913-23.875 13.514-27.896 13.567-6.219 0.082-26.921-13.378-27.988-15.298-2.427-4.37-1.907-29.769 0.362-33.325 1.903-2.976 19.654-11.627 25.869-14.6-0.764-5.6-0.31-27.659 1.608-30.468 1.925-2.826 22.426-14.726 26.895-14.726 5.271 0 25.717 11.304 27.493 15.214 1.015 2.233 1.503 22.002 1.214 27.856 8.875 4.257 19.326 9.719 20.648 12.045 2.527 4.45 2.686 29.991 1.153 32.571-2.378 3.993-20.002 16.065-24.126 16.385-3.742 0.29-23.184-8.314-25.232-9.221m25.766-79.178h-2e-3z" fill="#0f141b"/>
  </g>
  <g transform="matrix(.58459 0 0 -.58459 57.342 48.852)">
   <path d="m0 0c-3.195-2.089-6.442-4.426-8.509-6.25-3.554-3.136-3.168-3.581 0.826-0.586 2.322 1.741 5.231 3.766 8.168 6.169 2.128 1.741 2.03 2.311-0.485 0.667" fill="#0f141b"/>
  </g>
  <g transform="matrix(.58459 0 0 -.58459 66.559 63.722)">
   <path d="m0 0c2.386 2.211 8.779 7.987 11.436 10.54 1.815 1.743 1.217 1.916-0.572 0.627-3.082-2.222-8.877-7.804-11.444-10.587-1.278-1.385-0.807-1.866 0.58-0.58" fill="#0f141b"/>
  </g>
  <g transform="matrix(.58459 0 0 -.58459 66.399 81.368)">
   <path d="m0 0c4.797 4.017 9.389 7.187 11.848 9.141 2.499 1.986 1.931 2.451-0.372 0.959-2.008-1.3-7.375-5.246-11.984-9.044z" fill="#0f141b"/>
  </g>
  <g transform="matrix(.58459 0 0 -.58459 75.656 87.965)">
   <path d="m0 0c-9.05 1.486-15.729 5.195-19.312 10.726-3.488 5.382-4.106 13.077-1.897 21.441l-1.585-3.94c-1.614-6.624-1.082-13.511 2.045-18.337 3.278-5.061 10.046-9.116 17.458-10.071z" fill="#0f141b"/>
  </g>
  <g transform="matrix(.58459 0 0 -.58459 88.633 37.697)">
   <path d="m0 0c0-9.305-6.272-20.938-20.768-22.73-3.029-0.022-20.246 7.584-22.457 11.071-1.083 1.709-0.798 22.749 0 24.484 1.124 2.434 16.611 10.203 20.858 10.845 10.991-1.356 22.367-8.992 22.367-23.67m1.836-0.09c0.09 16.346-15.128 25.186-24.634 25.343-3.455 0.057-20.608-8.82-21.852-11.518-1.08-2.341-0.992-24.386 0.12-26.141 2.327-3.671 18.545-11.579 23.762-11.773 14.06 1.568 22.536 12.038 22.604 24.089" fill="#0f141b"/>
  </g>
  <g transform="matrix(.58459 0 0 -.58459 71.569 40.195)">
   <path d="m0 0c0.578-2.061 3.255-4.119 7.557-4.252 3.329-0.102 6.339 1.672 7.441 3.939 0.427 0.879-8e-3 1.259-0.566 0.478-1.684-2.353-4.52-3.203-6.899-3.233-3.278-0.043-5.906 1.775-6.771 3.375-0.586 1.085-1.096 0.884-0.762-0.307" fill="#0f141b"/>
  </g>
  <g transform="matrix(.58459 0 0 -.58459 91.069 51.038)">
   <path d="m0 0c10.874 0 23.346-8.774 22.82-23.907-0.473-13.594-11.621-21.37-22.82-21.463-3.655-0.03-18.047 8.263-19.741 10.686-1.25 2.295-1.452 22.102-0.453 24.27 1.397 3.029 15.817 10.311 20.194 10.414m-21.619-9.804c-1.658-3.59-0.615-23.831 0.543-25.489 2.505-3.578 17.156-11.711 20.805-11.683 13.585 0.114 24.157 9.892 24.607 22.797 0.588 16.856-12.607 25.789-24.548 25.789-4.096 0-19.419-7.11-21.407-11.414" fill="#0f141b"/>
  </g>
  <g transform="matrix(.58459 0 0 -.58459 95.586 67.925)">
   <path d="m0 0c0-6.339-3.195-11.161-5.455-11.201-2.95-0.053-5.774 4.95-6.017 10.658 4.185-0.913 10.203-0.484 13.597 0.815 0.867 0.332 0.649 0.997-0.253 0.781-4.166-0.993-9.268-1.219-13.283-0.45-1.099 0.211-1.466-0.073-1.473-0.784-0.06-6.883 3.993-12.076 7.45-12.014 3.01 0.053 7.027 5.916 6.787 12.436z" fill="#0f141b"/>
  </g>
  <g transform="matrix(.58459 0 0 -.58459 87.594 64.517)">
   <path d="m0 0c0.043-2.366-1.192-4.309-2.761-4.337-1.566-0.027-2.871 1.869-2.913 4.236-0.043 2.366 1.195 4.308 2.762 4.335 1.566 0.028 2.871-1.868 2.912-4.234" fill="#0f141b"/>
  </g>
  <g transform="matrix(.58459 0 0 -.58459 100.07 64.394)">
   <path d="m0 0c0.081-2.318-1.038-4.239-2.501-4.29-1.464-0.052-2.714 1.787-2.796 4.104-0.081 2.319 1.04 4.24 2.501 4.29 1.464 0.052 2.716-1.786 2.796-4.104" fill="#0f141b"/>
  </g>
  <g transform="matrix(.58459 0 0 -.58459 94.457 31.856)">
   <path d="m0 0c1.103 1.995 14.846 9.894 19.379 9.539 10.993-1.456 21.571-10.244 20.376-24.692-0.955-11.538-9.248-19.43-21.281-20.557-2.635-0.248-17.821 8.978-19.018 11.773-1.155 2.693-0.76 21.582 0.544 23.937m-1.305 0.7c-1.996-3.194-1.707-23.327-0.844-25.338 1.222-2.852 17.344-12.731 20.623-12.485 9.975 0.748 22.062 7.554 23.002 21.879 1.102 16.84-11.749 25.062-21.976 26.594-4.913 0.385-18.993-7.752-20.805-10.65" fill="#0f141b"/>
  </g>
  <g transform="matrix(.58459 0 0 -.58459 102.43 42.072)">
   <path d="m0 0c0.86-2.139 2.829-3.536 5.723-3.935 3.485-0.479 6.423 0.848 7.755 2.833 0.667 0.992 0.188 1.37-0.642 0.511-1.708-1.766-4.137-2.514-7.002-2.119-2.462 0.338-4.101 1.361-5.076 3.028-0.646 1.1-1.232 0.856-0.758-0.318" fill="#0f141b"/>
  </g>
  <g transform="matrix(.58459 0 0 -.58459 76.196 6.1495)">
   <path d="m0 0c-1.531-0.501-2.346-2.645-1.621-5.179 1.009-3.529 3.014-4.482 4.361-4.135 1.346 0.347 2.219 2.684 1.662 5.331-0.632 3.006-2.871 4.486-4.402 3.983" fill="#0f141b"/>
  </g>
  <g transform="matrix(.58459 0 0 -.58459 114.53 7.2696)">
   <path d="m0 0c-1.522-0.195-2.717-2.134-2.563-4.755 0.215-3.651 1.882-4.972 3.202-4.893 1.32 0.08 2.606 2.198 2.632 4.896 0.027 3.065-1.748 4.948-3.271 4.752" fill="#0f141b"/>
  </g>
  <g transform="matrix(.58459 0 0 -.58459 115.32 12.444)">
   <path d="m0 0c-0.101-10.359-6.521-24.813-13.676-31.995-1.221-1.224-1.975-0.711-0.81 0.555 6.428 7.016 12.902 21.2 13.002 31.361z" fill="#0f141b"/>
  </g>
  <g transform="matrix(.58459 0 0 -.58459 77.297 11.333)">
   <path d="m0 0c2.152-6.749 1.02-20.464-1.727-28.506-0.674-1.978 0.179-2.198 0.983-0.265 3.304 7.942 4.39 21.81 2.126 29.236z" fill="#0f141b"/>
  </g>
  <g transform="matrix(.58459 0 0 -.58459 92.797 60.09)">
   <path d="m0 0c5.156 0.966 11.013 7.546 9.745 12.798l-1.658 0.569c1.447-2.898-1.144-10.107-8.262-12.318-1.623 0.123-9.464 6.254-12.638 11.609l-1.778-0.584c3.321-5.674 12.391-12.487 14.591-12.074" fill="#0f141b"/>
  </g>
  <g transform="matrix(.58459 0 0 -.58459 103.67 75.921)">
   <path d="m0 0c-11.319-9.69-29.562-20.277-34.684-20.101-5.919 0.203-27.531 9.882-28.616 11.682-0.819 1.357-1.969 17.21-2.133 27.805-2e-3 0.121-0.06 0.23-0.149 0.311-2.246 2.04-27.256 14.061-28.022 15.527-1.33 2.543-0.653 26.083 0.427 29.049 1.026 2.816 11.419 10.537 16.962 15.016l1.364 3.546c-8.115-6.557-18.559-15.311-19.577-18.108-1.269-3.487-1.807-27.689-0.544-30.107 0.826-1.578 24.389-13.302 28.049-15.962 0.055-3.381 0.817-26.216 1.993-28.164 1.271-2.108 23.824-11.98 30.246-12.201 5.577-0.191 28.135 12.565 39.652 24.824z" fill="#0f141b"/>
  </g>
  <g transform="matrix(.58459 0 0 -.58459 80.516 87.76)">
   <path d="m0 0c-13.748-0.354-29.331 0.594-32.722 7.426-2.007 4.047 0.255 18.304 6.361 30.534l-0.264 1.704c-7.426-11.893-10.288-28.542-8.095-32.963 3.717-7.49 22.826-9.055 37.436-7.486z" fill="#0f141b"/>
  </g>
  <g transform="matrix(.58459 0 0 -.58459 49.829 42.408)">
   <path d="m0 0c0.542 6.504 4.68 10.739 7.06 10.477 1.885-0.207 2.733-3.938 2.585-9.119-0.168-5.831-1.757-12.103-4.548-12.248-2.591-0.135-5.652 4.247-5.097 10.89m-1.057 0.075c-0.566-7.447 2.741-12.455 6.355-12.255 3.802 0.209 5.706 7.294 5.886 13.538 0.13 4.555-0.764 10.125-3.939 10.369-3.403 0.262-7.763-4.554-8.302-11.652" fill="#0f141b"/>
  </g>
  <g transform="matrix(.58459 0 0 -.58459 120.26 47.702)">
   <path d="m0 0c5.494-3.079 12.303-2.956 14.792-2.778 10.926 0.785 25.575 18.991 28.459 30.996 1.129 4.702 0.544 8.513-2.535 10.203-4.353 2.39-19.947-0.628-39.992-17.291l0.072-1.421c18.875 15.308 34.609 19.366 38.868 16.816 2.957-1.77 2.536-5.139 1.812-8.15-2.825-11.763-16.929-28.913-26.746-29.582-2.48-0.17-8.909-0.537-14.807 2.586z" fill="#0f141b"/>
  </g>
  <g transform="matrix(.58459 0 0 -.58459 88.623 70.194)">
   <path d="m0 0c-0.323-0.107-0.013-0.868 0.316-0.78 3.934 1.047 7.866-0.39 9.783-3.575 0.174-0.292 1.005-0.078 0.849 0.224-2.072 4.014-5.936 5.79-10.948 4.131" fill="#0f141b"/>
  </g>
  <g transform="matrix(.58459 0 0 -.58459 95.586 67.925)">
   <path d="m0 0c0-6.339-3.195-11.161-5.455-11.201-2.95-0.053-5.774 4.95-6.017 10.658 4.185-0.913 10.203-0.484 13.597 0.815 0.867 0.332 0.649 0.997-0.253 0.781-4.166-0.993-9.268-1.219-13.283-0.45-1.099 0.211-1.466-0.073-1.473-0.784-0.06-6.883 3.993-12.076 7.45-12.014 3.01 0.053 7.027 5.916 6.787 12.436z" fill="#0f141b"/>
  </g>
  <g transform="matrix(.58459 0 0 -.58459 51.532 42.386)">
   <path d="m0 0c0.468 6.074-42.334 30.391-59.633 31.657-4.951 0.363-8.935-1.087-7.124-8.573s14.006-31.272 25.357-34.291c12.961-3.447 40.973 5.653 41.4 11.207" fill="#fff"/>
  </g>
  <g transform="matrix(.58459 0 0 -.58459 50.493 41.131)">
   <path d="m0 0c-5.505-3.029-47.789 0.156-65.017 19.435 3.534-7.73 11.882-27.318 24.441-32.148 11.823-4.548 41.609 5.457 42.519 10.459 0.202 1.107-1.611 2.437-1.943 2.254" fill="#dbdcdc"/>
  </g>
  <g transform="matrix(.58459 0 0 -.58459 27.541 48.39)">
   <path d="m0 0c-12.469 4.382-29.411 34.275-24.089 39.664 4.729 4.786 26.55-4.419 38.035-10.504 16.562-8.776 26.989-16.893 26.534-19.199-0.746-3.769-28.777-14.075-40.48-9.961m-25.743 41.319c-6.43-6.701 10.981-37.968 25.109-42.949 13.159-4.64 41.684 6.639 42.443 11.396 0.638 3.999-13.071 13.461-26.957 20.818-7.642 4.049-34.314 17.282-40.595 10.735" fill="#0f141b"/>
  </g>
 </g>
 <g stroke-width=".59724">
  <path d="m58.797 29.212q0.47778 0.74657 0.47778 1.7918 0 1.0452-0.47778 1.7619-0.47778 0.74657-1.1646 0.74657-0.68681 0-1.1945-0.74657-0.47778-0.71671-0.47778-1.7619 0-1.0452 0.47778-1.7619 0.50764-0.74657 1.1945-0.74657 0.68681 0 1.1646 0.71671"/>
  <path d="m71.279 29.332q0.44792 0.71671 0.47778 1.732 0.02986 1.0153-0.41806 1.732-0.44792 0.71671-1.075 0.74657-0.65695 0.02986-1.1049-0.68685-0.47778-0.71671-0.50764-1.732-0.02986-1.0153 0.41806-1.7619 0.44792-0.71671 1.075-0.71671 0.65695-0.02986 1.1347 0.68685"/>
  <path d="m90.211 32.168q-0.02986 1.0153-0.5375 1.7022-0.47778 0.71671-1.1646 0.68685-0.65695-0.02986-1.1347-0.74657-0.44792-0.71671-0.41806-1.7619 0.05972-1.0153 0.5375-1.7022 0.50764-0.71671 1.1646-0.68685 0.68681 0.02986 1.1347 0.77644 0.47778 0.71671 0.41806 1.732"/>
  <path d="m101.89 32.676q-0.0299 1.0452-0.44792 1.732-0.44792 0.71671-1.0452 0.71671-0.59722-0.02986-0.98542-0.74657-0.41806-0.71671-0.3882-1.732 0-1.0153 0.44792-1.732 0.41806-0.71671 1.0153-0.71671 0.59722 0.02986 1.0153 0.74657 0.41806 0.71671 0.3882 1.732"/>
 </g>
</svg>
