<?xml version="1.0" encoding="UTF-8"?>
<svg version="1.1" viewBox="0 0 151.85 254.14" xmlns="http://www.w3.org/2000/svg">
 <g transform="translate(.0021277 .034906)">
  <path d="m101 50.95q8.35 11.45 8.75 25.35 0.5 15.85-9.45 27.2-9.5 10.9-26.25 15.25 13.5 7.8 17.75 12.7-5.9-1.15-11.6-1.25 0.6 2.65 0.9 6.7 0.3 4.55-0.1 7.9-4.15-3.15-13.5-6.6-1.5 2.05-5.1 13.15-1.85-1.2-5.25-6.05l-4.55-6.85q-1.35 2.1-5.35 9.8-4-9.05-0.1-26.5-18.4-1.4-31.95-13.85-14.05-12.9-14.05-30.2 0-12.2 7.1-23.75 7.95-12.85 21.6-18.9 2.35 0.7 4.5 0.65l4.5-0.65q0.15 4.95 2.95 8 2.5 2.75 6.55 3.3 3.85 0.5 7.65-1.15 3.95-1.7 6.25-5.25 4.7 6.35 12.3 4.35 7.2-1.9 8.7-7.9 10.35 4.4 17.75 14.55" fill="#a586bc"/>
  <g fill="#fcd13e">
   <path d="m34.1 98.35q-4.95-5.1-4.95-5.85 0-0.85 6.4-7.25l-4.45-3.65q-2.75-2.4-2.7-3.15 0.05-0.9 5-6.25 4.95-5.4 5.75-5.4 0.6-0.05 3.4 2.1l4.75 3.55 4.35-4.55q2.8-2.65 3.45-2.6 0.9 0.05 6.65 4.95 5.95 5.05 6 6.3 0 0.5-2 2.75l-4.55 4.5 4.5 3.65q2.2 1.75 2.45 2.45 0.3 0.85-5.15 6.95-5.45 6.05-6.45 6.05-0.85-0.05-3.9-2.2l-4.65-3.5-4 3.75q-2.85 2.5-3.8 2.5-1.05 0.05-6.1-5.1"/>
   <path d="m81.6 233.45q2.6-0.75 4.25 1.25 2.25 2.75 0.75 5.6-1.2 2.4-4.2 3.85 1 2.05 0.8 4-0.2 2.2-1.9 3.85-1.75 1.7-3.95 0.6-2.1-1.05-2.8-3.65-1.7-6.05-4.25-8.75l0.2-0.65q1.95 0.6 4.45-1.1l3.15-2.8q1.5-1.6 3.5-2.2"/>
   <path d="m142.55 214.95q2.5-1.75 4.95-1.2 2.65 0.6 3.2 3.6 0.65 3.3-1.15 5.4-1.85 2.2-5.35 1.7 1.65 3 0.7 5.75-1 2.75-3.85 3.05-2.55 0.3-4.2-2.3-1.25-2.1-1.35-4.6-0.1-2-0.8-4.1-0.75-2.25-2.05-3.85l0.5-0.7 5-0.95q3.15-0.9 4.4-1.8"/>
  </g>
  <path d="m106.1 59.35q4.05 9.2 3.95 18.55-0.2 15.05-10.2 25.85-9.25 9.95-25.7 15.25 4.05 2 7.25 4.3 0.85 1.7 0.45 3.7-0.35 1.9-1.65 3.2l0.4 3.25q-1.15 2.15-4.55 3.75-2.95 1.4-6 1.8l-2.55-0.9-1.35 2.1q-2.65 1.95-6.25 2.05-3.45 0.05-5.85-1.6l-1.45-2.2-1.2 1.75q-1.85 0.85-3.7 0.55t-2.45-1.65q-0.15-3.75 0.35-8.75 0.55-5.55 1.55-8.6-7.65 0.2-17.7-4.45t-16.25-11.2q18 7.15 36.35 4.9 17.1-2.15 30.15-11.8 13-9.6 17.7-23.55 5-14.85-1.05-30.45 6 5.65 9.75 14.15" fill="#8f75a3"/>
  <g fill="#0d131a">
   <path d="m23.5 77.4q0 3.45-1.4 5.75-1.3 2.2-3.1 2.2-1.85 0-3.1-2-1.4-2.2-1.4-5.95t1.45-5.95q1.3-1.95 3.05-1.95 2 0 3.25 2.1 1.2 2.1 1.25 5.8"/>
   <path d="m85.2 77.7q-0.2 4-1.75 6.2-1.4 2.05-3.55 1.95-1.9-0.05-3.25-2.25-1.5-2.45-1.35-6.25 0.15-4.15 1.8-6.35 1.45-1.9 3.45-1.85 2.1 0.1 3.45 2.55 1.3 2.5 1.2 6"/>
   <path d="m82 244.45q-0.2-0.55 0.25-0.8 2.75-1.5 3.65-3.15 0.95-1.7 0.2-4-0.75-2.1-2.95-2.5-2.3-0.45-4.05 1.35l-3.45 3.25q-2.15 1.55-4.6 1.6 2.45 2.85 3.85 8.2 0.95 3.5 3.55 3.85 2.4 0.25 3.75-2.05 1.35-2.15-0.2-5.75m1.75-12q3.15 0.65 4.05 3.25 0.7 2.35-0.05 4.45-1 2.7-4.3 4.35 0.85 1.6 0.8 3.55-0.05 1.85-0.9 3.25-1.75 2.9-4.95 2.8-3.55-0.15-4.7-4.6l-1.6-5.15q-1.15-2.65-2.7-4l0.6-1.65q2.6 0.2 4.8-1.3l3.55-3.35q2.2-2.25 5.4-1.6"/>
   <path d="m149.2 215.85c-1.2-1.8-2.8833-2.1833-5.05-1.15-1.9333 0.93333-3.4667 1.6-4.6 2l-6.3 1.5c1.7333 2.7667 2.6833 5.7 2.85 8.8 0.0667 1.4 0.51667 2.65 1.35 3.75 0.9 1.2 1.9667 1.7833 3.2 1.75 1.4-0.0333 2.5167-0.78333 3.35-2.25 1-1.7 0.96667-3.5667-0.1-5.6-0.13333-0.2-0.15-0.36667-0.05-0.5 0.13333-0.16667 0.31667-0.23333 0.55-0.2 0 0 2.4041 0.25015 3.4-0.3 0.98913-0.54642 1.55-1.3667 2.05-2.7 0.63333-1.7667 0.41667-3.4667-0.65-5.1m-5.6-2.6c2.7333-1.4 4.9667-0.98333 6.7 1.25 1.6667 2.1333 1.9833 4.4667 0.95 7-0.53333 1.3333-1.2667 2.3-2.2 2.9-0.9 0.56667-2.1 0.85-3.6 0.85 1.1333 1.8 1.15 3.7667 0.05 5.9-1.1333 2.1333-2.7167 3.2167-4.75 3.25-1.5667 0.0333-2.95-0.58333-4.15-1.85-1.3-1.3667-1.9833-3.05-2.05-5.05-0.0667-1.7-0.3-3.2333-0.7-4.6-0.43333-1.4333-1.1333-2.9167-2.1-4.45l0.9-1.55c2.3667-0.3 4.5167-0.81667 6.45-1.55l4.5-2.1"/>
   <path d="m94.7 45.65q-15.15-14.4-39.5-15.05-21.5-0.55-36.95 12.95-15.75 13.75-15.95 34.35-0.2 19.45 17.5 32.5 17.3 12.7 39.65 10.9 1.55-0.15 1.55 0.5t-1.55 0.8q-24.55 2.35-42.3-11.45-8.2-6.4-12.65-14.95-4.6-8.8-4.5-18.45 0.25-21.3 16.15-35 15.6-13.45 39-13.55 19.8-0.1 35.6 10.85 19 13.1 19.95 36.05 0.65 15.1-9.1 27.05-11.35 13.9-33.45 18.2-1.7 0.3-1.9-0.35-0.25-0.65 1.45-1.05 19.45-4.65 29.85-15.3 10.9-11.2 10.9-28.35 0.05-17.5-13.75-30.65"/>
   <path d="m32.75 71.65q5.2-5.7 6.4-5.65 0.6 0 3.25 1.9l4.7 3.8 4.1-4.3q2.95-2.75 3.85-2.65 1.65 0.25 7.3 4.95 5.95 5 5.95 6.9 0.05 0.65-1.55 2.6-1.8 2.2-4.4 4.4l4.05 3.55q2.3 2.15 2.3 2.9 0.05 1.5-5.1 7.35-5.25 6-7.1 6.1-0.9 0.05-3.75-1.85-2.5-1.7-4.7-3.6-6.05 6.05-8 5.95-1.55-0.1-6.7-5.15-5.05-4.9-5.15-6.2-0.05-0.6 2.5-3.4 2.35-2.65 4.05-4.05l-4.25-3.3q-2.95-2.55-2.95-3.3 0-1.3 5.2-6.95m6.4-4q-0.85 0.2-5.4 5.15-4.6 5-4.6 5.75 0 0.4 2.65 2.65l4.3 3.7q0.3 0.3-0.05 0.6l-3.65 3.8q-2.55 2.75-2.5 3.15 0.1 0.85 4.65 5.4 4.6 4.6 5.75 4.65 1.1 0.1 7.35-5.85 0.3-0.3 0.65 0l4.75 3.55q2.55 1.7 3.4 1.8 0.75 0.1 5.7-5.4 4.95-5.45 4.95-6.45 0-0.4-2.2-2.4l-4.2-3.8q-0.35-0.35 0-0.65l4.2-4.15q1.7-1.9 1.8-2.5 0.15-1.05-5.4-5.75-5.35-4.55-6.2-4.65-0.4-0.05-3.4 2.65l-4.15 4.1-0.65 0.1-4.45-3.5q-2.75-2.05-3.3-1.95"/>
   <path d="m73.4 119.2 1.55-0.6q4.65 2.2 9.8 5.7 4.75 3.3 7.55 6.05 0.95 0.9 0.85 1.65-0.1 0.9-1.65 0.6l-5.15-1.05-5.25-0.6q0.5 2.15 0.85 6.65 0.4 4.5 0.3 7.25-0.05 1-0.55 1.25-0.5 0.3-1.35-0.4-4.3-3.55-12.55-6.6-2.45 4.1-4.2 12.7-0.4 1.8-1.9 0.45-2.45-2.25-4.85-5.7-1.45-2.05-4.2-6.7-1.9 3.15-4.35 9.15-0.45 1-1.15 1t-1.15-1.15q-1.9-5.4-1.6-13.5 0.25-7.1 1.95-13.4l1.35 0.2q-1.5 6.25-1.65 13.15-0.15 7.25 1.3 11.8 2.4-4.9 4.75-9.05l0.45-0.2 0.45 0.2 4.35 6.55q2.45 3.45 4.85 5.75 1.8-7.65 4.7-12.45 0.3-0.4 0.8-0.25 9.6 3.5 12.95 6 0.1-3.05-0.2-7.15-0.3-4.2-0.8-6.2-0.1-0.6 0.55-0.6l10.1 0.8q-3-2.7-7.65-5.85-5.05-3.45-9.25-5.45"/>
   <path d="m75.3 123.6c-0.13333-0.73333 0-1.1667 0.4-1.3 0.43333-0.1 0.71667 0.21667 0.85 0.95 3.8 17.8 11.467 35.833 23 54.1 10.133 16 21.167 29.183 33.1 39.55 0.37818 0.78438-0.9 1.55-0.9 1.55-12.067-10.467-23.367-24.05-33.9-40.75-12.033-19.033-19.55-37.067-22.55-54.1"/>
   <path d="m46.1 126.25-0.05 2.75c-4.1667 7.9667-7.15 16.633-8.95 26-1.9333 10.1-2.25 19.983-0.95 29.65 3.0667 23.033 14.35 41.05 33.85 54.05 0 0 0.05832 2.0002-0.6 1.65-20.867-13.533-32.583-33-35.15-58.4-1.0333-10.333-0.38333-20.667 1.95-31 2.2-9.5667 5.5-17.8 9.9-24.7"/>
  </g>
  <path d="m83.7 28.75q0.85 4.95-1.25 9-1.9 3.7-5.6 5.55-3.7 1.8-7.55 1-4.1-0.8-6.85-4.45-2.4 3.55-6.35 5.35-3.8 1.7-7.65 1.25-9.1-1.2-9.7-11.45-5.25 1.95-10.5-1.25t-5.25-8.5q0-6.35 4.65-10.45 5.5-4.95 14.15-2.1-0.2-4.75 2.6-7.95 2.55-2.95 6.6-3.6 4.1-0.65 7.75 1.35 4.05 2.15 6 6.8 2.95-3.45 7-4.3 3.75-0.7 7.25 0.95 3.5 1.7 5.3 5.15 1.9 3.75 1.15 8.3 6.5-1.25 14.5-8.2-3.95 12.95-16.25 17.55" fill="#fff"/>
  <path d="m83.1 36.3q-1.6 3.8-4.9 6.1-3.55 2.4-7.55 2.05-4.45-0.45-8.35-4.45-5.9 7.65-14.15 6.35-8.55-1.3-9.4-11.3-5.2 1.25-9.5-0.5-5.1-2.15-6-7.95 4.3 3.55 9.65 3.35 5.55-0.25 8-4.35 2.05 5.65 8.6 7.4 6.5 1.75 11.6-1.9 4.1 3.8 11.85 2.45 8.1-1.4 9.95-7.5 1.8-0.85 2.6-2.6 0.85-1.85 0.05-3.9 3.9-1.25 8.1-3.8 3.8-2.3 6.25-4.6-1.4 6.2-5.25 10.25-3.6 3.75-10.95 7.3 1.05 3.7-0.6 7.6" fill="#dbdcdc"/>
  <path d="m85.7 20c-0.56667 0.16667-0.8-0.01667-0.7-0.55 0.5-3.1333-0.01667-5.9333-1.55-8.4-1.3-2.0667-3.0667-3.5833-5.3-4.55-2.4-1.0333-4.7667-1.25-7.1-0.65s-4.3 1.9-5.9 3.9c-0.25751 0.29713-0.5 0.25-0.5 0.25s-0.24648 0.0066-0.4-0.35c-0.93333-2.8-2.7667-4.9-5.5-6.3-2.5-1.2667-5.1-1.6667-7.8-1.2-2.4333 0.43333-4.4333 1.4833-6 3.15-1.8 1.9333-2.6833 4.4833-2.65 7.65-0.01953 0.42578-0.2 0.45-0.2 0.45s-0.18281 0.10547-0.55 0c-3.9333-1.6333-7.7667-1.4-11.5 0.7-3.9333 2.2-6.0667 5.6667-6.4 10.4-0.23333 3.1667 1.1 5.9 4 8.2 3.1667 2.4667 6.8667 3.0333 11.1 1.7 0.43333-0.13333 0.65 0.03333 0.65 0.5 0.03333 2.3333 0.7 4.4333 2 6.3s3.05 3.1833 5.25 3.95c2.3667 0.8 4.8 0.83333 7.3 0.1 2.9667-0.9 5.6-2.7833 7.9-5.65 0.13333-0.16667 0.3-0.25 0.5-0.25 0.23333 0 0.41667 0.1 0.55 0.3 1.5 2.1667 3.6 3.45 6.3 3.85 2.4333 0.4 4.85 0.03333 7.25-1.1 2.6-1.2333 4.5167-3.0833 5.75-5.55 1.4333-2.9333 1.6167-6.3 0.55-10.1-0.2-0.63333-0.11667-0.98333 0.25-1.05 0.33333-0.06667 0.6 0.21667 0.8 0.85l0.35 1.25c3.3667-1.4 6.4-3.4667 9.1-6.2 2.7-2.8 4.5667-5.75 5.6-8.85-5.0667 4.1333-9.45 6.55-13.15 7.25m13.55-9.7c0.46667-0.4 0.91667-0.46667 1.35-0.2 0.43333 0.23333 0.56667 0.7 0.4 1.4-0.83333 3.6333-2.8333 7.15-6 10.55-3.1333 3.3-6.65 5.7167-10.55 7.25 0.5 3 0.16667 5.8333-1 8.5-1.3333 3.0667-3.3667 5.25-6.1 6.55-2.5 1.1667-5.1667 1.4833-8 0.95-3.0667-0.56667-5.4167-2-7.05-4.3-2.1667 3-4.9333 5-8.3 6-2.9333 0.9-5.6333 0.91667-8.1 0.05-2.3667-0.8-4.2667-2.2-5.7-4.2-1.4667-2.0667-2.1833-4.3667-2.15-6.9-3.7667 1.2667-7.4833 0.7-11.15-1.7-3.8333-2.4667-5.6167-5.7667-5.35-9.9 0.33333-5.0333 2.5667-8.8333 6.7-11.4 4.0667-2.5667 8.3-2.9667 12.7-1.2-0.1-3.3333 0.91667-6.0833 3.05-8.25 1.8-1.8 4.0167-2.9167 6.65-3.35 2.8667-0.46667 5.65-0.05 8.35 1.25 2.9667 1.4333 4.95 3.6333 5.95 6.6 1.6333-2.1 3.8-3.4333 6.5-4 2.5667-0.56667 5.1167-0.3 7.65 0.8 2.8 1.2 4.85 3.1667 6.15 5.9 1.2333 2.5 1.6167 5.0667 1.15 7.7 1.8-0.4 3.8167-1.35 6.05-2.85 1.7667-1.1667 4.0333-2.9167 6.8-5.25" fill="#0d131a"/>
 </g>
</svg>
