<?xml version="1.0" encoding="UTF-8"?>
<!-- Created with Inkscape (http://www.inkscape.org/) -->
<svg version="1.1" viewBox="0 0 274.06 340.92" xmlns="http://www.w3.org/2000/svg">
 <g transform="translate(9.1457 29.472)">
  <g fill="#fff">
   <path d="m191.7 235.63c-1.7631-0.32142-3.8706 0.63361-4.3389 2.0065-0.63362 1.9606-1.6346 8.261-0.82646 10.723 1.6208-1.1157 7.0621-7.4992 7.451-8.6008 0.0161-0.84023-0.22956-3.742-2.282-4.1323"/>
   <path d="m185.01 234.87c-1.2948-0.6979-2.5437-0.56475-4.1966 0.45915-1.7999 2.4472-4.4537 7.3376-4.293 10.27 3.1589-0.92288 9.3133-5.7504 9.8964-6.4143 0.82646-0.95503-0.18366-3.6456-1.4096-4.293"/>
   <path d="m199.58 236.33c-1.4234-0.22957-3.6778 1.506-4.5685 3.1589-0.046 0.32139 1.1479 9.7509 1.7356 11.468 1.3774-1.7493 5.3289-8.1797 5.6044-10.982-0.22957-1.2627-1.5703-3.4666-2.7687-3.6456"/>
   <path d="m121.39 293.37c-0.55098-1.5703-2.5437-2.4289-3.5308-2.608-0.94126-0.18366-2.1396 0.41323-2.608 1.0836-2.4151 3.3196-5.4262 10.01-5.7178 10.982 2.1213-0.79431 9.0544-4.2287 10.383-5.4423 0.3214-1.0055 1.2305-3.4344 1.4739-4.0175"/>
   <path d="m127.1 292.12c-1.4922-0.63362-4.8757-0.22957-5.653 1.8458-1.9101 5.1668-2.8329 13.33-2.4472 14.302 3.5308-2.1396 8.1471-6.5277 10.107-11.031 0.55096-1.4922-0.2755-4.3894-2.0065-5.1186"/>
   <path d="m134.55 294.35c-1.5703-0.13774-4.1461 1.1846-4.6163 3.2094-0.2755 2.787-0.32141 8.0502 0.8586 12.132 3.4666-3.2875 7.289-10.285 7.2408-11.582-0.13774-2.3462-1.0698-3.563-3.4849-3.7558"/>
  </g>
  <path d="m103.68 255.75c0.60147-0.56475 1.8641-1.6529 2.4289-2.236-1.0193-0.77596-3.012-2.8008-3.9211-3.5492 0.36731 1.1984 1.0698 4.339 1.4922 5.7825" fill="#55295a"/>
  <path d="m44.032 205.95c1.3453-7.3537 0.87237-16.651-0.74382-25.398-1.4876 2.057-3.4666 5.8638-4.6649 8.3096-2.8835 5.912-2.5437 9.7022-1.1479 12.391 1.0055 1.9284 3.1084 3.4344 6.5598 4.6976" fill="#fff"/>
  <g fill="#fff3c2">
   <path d="m67.906 164.09c-3.3839-3.9211-16.02-15.128-19.372-13.979-3.2554 1.102-6.8519 21.381-7.1434 32.476 6.5603-9.929 16.392-16.165 26.516-18.498"/>
   <path d="m15.674 227.01c-8.9414 1.3132-20.15 8.4226-23.94 13.557 5.5557-0.41323 18.935-4.2288 24.264-6.317-0.3214-2.2498-0.41323-4.681-0.3214-7.2403"/>
   <path d="m9.3517 244.35c2.3646-1.1524 6.7545-3.3701 8.3092-4.6649-0.41323-0.95503-1.3453-4.1966-1.6024-5.232-1.8641 2.0248-6.2683 7.1273-6.7058 9.8969"/>
  </g>
  <path d="m46.349 253.09c-1.8963-3.1727-2.7044-6.1066-3.2094-8.1636-1.7815-7.3537-1.4417-15.485 1.0193-23.147-2.9661-3.0763-3.4987-9.2973-1.4555-14.173 0.22958-0.58312 0.55098-1.1341 0.89074-1.6346-3.5492-1.4601-5.7343-3.2737-6.7871-5.653-0.41323-0.94126-0.64739-1.9927-0.71168-3.1268-18.173 10.302-21.818 26.402-19.34 37.223 2.8651 12.504 14.707 19.729 29.593 18.676" fill="#55295a"/>
  <path d="m85.97 185.65c-13.833 3.8063-28.249 14.416-35.246 23.309 5.6696 2.787 17.591 5.102 17.623 5.102 10.221 0.36733 15.841-5.5235 17.915-10.059 3.1911-6.9326 1.4738-16.311-0.2755-18.352" fill="#fff"/>
  <path d="m97.503 127.09c-2.7549-0.69791-13.234-1.9101-18.093-2.3325 4.7297 3.1268 12.845 11.5 15.437 15.307 1.3269-2.461 2.461-9.3946 2.6585-12.974" fill="#49204e"/>
  <path d="m92.87 104.4c-0.50048-1.0698 0.03211-1.3591 0.92289-1.1662 1.1479 0.22958 2.7044 0.64741 3.8247 1.1341-0.53262-0.80811-2.6585-4.2425-3.1911-5.2315-3.9533-3.0947-16.311-8.7307-21.268-10.059 6.2361 6.7706 19.421 25.236 23.438 36.267 1.0193-6.6898-0.6474-14.335-3.7237-20.944" fill="#49204e"/>
  <path d="m104.84 111.1c2.7686 1.2489 6.4951 3.9028 8.6981 5.7664 2.5758 2.4151 4.4216 2.787 4.0497-0.13774-1.7172-13.849-2.0891-36.639 1.7172-54.538-2.7227-6.3656-4.6649-23.503-4.6649-38.372 0-5.086-0.016-12.715 0.36732-16.667-6.9327 11.209-10.982 21.802-14.092 44.122-1.4739 10.545-0.36733 18.384-0.61527 21.948-3.5813-6.3495-9.7996-25.447-11.646-34.695-1.3453 5.5557-2.9477 13.751-2.9477 19.615 0 19.955 7.0135 40.559 13.007 47.07 1.8641 1.3591 4.44 3.8385 6.1227 5.8798" fill="#55295a"/>
  <path d="m97.101 189.76c0-2.1396-1.0698-4.9239-1.3912-5.9285-2.787 0.18365-6.6737 1.1984-9.4272 1.8641 2.1534 3.5171 2.4289 12.748-0.45914 19.065-1.281 2.7687-4.3711 7.03-7.9207 8.9575 3.9027-0.77596 9.6214-2.6906 10.934-3.6135 6.3495-4.4537 8.2605-14.335 8.2605-20.344" fill="#f29600"/>
  <g fill="#fff">
   <path d="m24.6 276.63c-0.27548-1.9284-1.7815-3.0763-2.8329-2.9982-2.9477 1.2948-9.9456 5.8312-9.3946 7.7747 2.0065 0.13773 8.0824-0.45915 9.6696-0.85861 0.84023-1.3269 2.4794-3.8568 2.5574-3.9211"/>
   <path d="m28.352 277.61c-1.102-0.56475-3.1084-0.61525-3.7558 0.0918-1.1525 1.281-4.8431 8.7142-5.4909 10.82 2.2039-0.66577 10.156-4.7779 11.209-5.8312 0.27548-1.5703-0.04596-4.114-1.9606-5.102"/>
   <path d="m37.651 280.87c-1.4601-0.80811-4.518-0.73005-6.2527 0.92287-1.2627 1.1984-3.2737 8.5039-3.3196 10.172 2.7549-0.67954 11.258-6.8514 11.258-7.6127 0-0.74382-0.48669-2.8192-1.6851-3.4849"/>
  </g>
  <path d="m43.583 180.55c1.5381 9.0544 2.057 17.429 1.0193 24.912 4.0818-3.4987 6.4143-0.58312 5.8312 3.4987 9.0383-11.225 28.086-24.151 45.872-25.35 3.6778-10.415 16.068-20.166 22.871-23.746-9.8969 1.1662-17.364 4.7784-22.142 7.289-18.579-6.7058-43.977-4.9565-53.453 13.396" fill="#fff3c2"/>
  <path d="m47.264 204.23c-1.3912 0.48669-3.2554 1.8458-4.3252 4.1966-1.9284 4.2425-1.1341 10.285 0.94126 13.347 1.7172-4.2288 3.4344-9.2491 6.2196-12.796 0.45914-1.6529 0.53261-3.9533-0.79433-4.8592-0.53261-0.18366-1.2489-0.18366-2.0386 0.0918" fill="#f29600"/>
  <path d="m42.058 211.72c-0.13773 3.2094 0.45914 8.0502 1.8136 10.059 0.80809-1.9927 1.6208-4.1645 2.5437-6.2844-2.0386 1.6851-3.3059 0-4.3573-3.7742" fill="#d18200"/>
  <path d="m191.7 235.63c-0.66576-0.13774-1.3774-0.046-2.0386 0.13773 1.6024 2.2177 2.8329 4.518 0.80809 8.682 0.27549-0.36731 2.9018-2.9615 3.5125-4.6971 0.0161-0.84023-0.22958-3.742-2.282-4.1323" fill="#dcdddd"/>
  <path d="m193.32 239.84v-0.0161z" fill="#fddd04"/>
  <path d="m185.01 234.87c-1.2948-0.6979-2.5437-0.56475-4.1966 0.45915-0.22958 0.27548-0.41323 0.61526-0.6474 0.95503 0.71169 0 2.3003-0.22958 2.3003-0.22958 2.8329 1.5703-0.22958 4.8266-0.94125 6.884 2.383-1.6024 4.5685-3.3518 4.8918-3.742 0.82646-0.95503-0.18366-3.6456-1.4096-4.293" fill="#dcdddd"/>
  <path d="m199.58 236.33c-0.48669-0.0918-1.0698 0.0918-1.6529 0.36733 2.7686 1.8779 1.91 6.5438 1.5244 10.042 1.3912-2.4151 2.7365-5.1833 2.8972-6.7871-0.22956-1.2627-1.5703-3.4666-2.7687-3.6456" fill="#dcdddd"/>
  <path d="m107.25 198.74c-0.45916 0.046-0.85862-0.22956-0.92289-0.67953-1.5703-9.0544 3.563-24.863 10.577-27.552 0.27548-0.0918 0.5326-0.0918 0.76217 0.046 0.22958 0.13773 0.36733 0.36733 0.36733 0.64741 0.71167 10.626-4.9239 26.775-10.788 27.52m101.95-87.808c10.367-8.8436 36.445-26.289 48.95-32.638-34.404-3.0304-43.28 3.1727-54.781 8.0181 5.0538-4.7784 11.808-15.032 19.081-25.641 6.4143-9.3299 13.719-19.955 18.805-25.625-24.718 2.2498-50.537 22.077-58.279 30.873 1.2167-7.7587 17.817-49.322 27.244-63.073-28.913 13.168-46.763 41.952-55.347 57.825 0.46834-19.21 15.549-70.492 27.228-88.261-17.915 6.9809-38.648 28.427-50.828 54.618-9.8156 21.106-15.437 47.281-15.437 68.176 0 0.63362-8.131 18.417-6.2035 35.489 1.6529 14.675 13.396 29.075 13.185 28.735-2.1396-0.27548-19.729 7.5966-26.499 23.892 1.7999 4.5502 0.89074 21.202-8.3096 27.682-4.0635 2.8651-19.696 6.3822-37.141-2.3325-5.1507 7.1108-8.8923 17.623-8.8923 26.467 0 2.9982 0.3214 5.9606 0.98717 8.7794 1.3912 5.8312 5.5557 14.578 14.318 18.935 12.294 6.1393 28.703 4.7301 40.057-2.1855 2.3187-0.77597 7.1269 0.18366 7.5645 2.1855 6.0901 5.6696 9.7188 14.789 10.496 27.39 0.63362-0.22956 1.8963 0.18367 2.6217 0.2755 1.5382 0.27548 2.8651 1.2626 3.6456 2.6217 1.5565-1.5381 3.7099-1.6529 5.5236-0.87238 1.3774 0.58312 2.7365 2.0248 3.0625 3.6273 1.1479-1.102 2.8192-1.6988 4.2288-1.6024 1.7815 0.13774 4.0818 1.4555 4.8105 3.4987 2.3003-1.0377 4.8592-2.6263 5.8151-4.9404 1.9284-4.6971 7.4345-27.164 6.8514-34.825-0.22957-3.0946-1.5886-6.884-2.4794-10.626-1.9743-8.277-3.4987-22.142-2.7687-27.974 6.0741-2.8329 19.843-15.599 22.142-19.372 6.1227 6.8514 12.958 22.677 11.954 34.97 2.0248-1.0377 3.6778-0.94126 4.4537-0.3214 0.6979 0.53261 1.5565 1.6851 1.7999 2.2177 1.1019-0.82647 3.0763-1.7172 4.518-1.4601 0.80809 0.18365 2.4472 0.77597 3.0625 3.0625 1.3774-1.832 3.3518-2.1213 4.8109-1.8963 1.7631 0.2755 3.4023 1.7631 3.6273 3.4987 4.3894-3.4482 8.1958-7.2081 8.4552-9.0222 2.0111-14.465 2.6722-36.218 1.8963-41.223 5.6852 2.0386 9.4593 4.8109 19.664 5.9606-5.9772-12.375-12.958-22.417-19.372-29.415 3.967 0.98717 9.508 2.3187 14.707 4.3757-4.2288-8.3096-14.416-14.869-18.498-17.915 7.1916-0.55097 25.965 4.8918 42.972 10.917-12.456-19.308-22.175-25.738-37.724-32.185 7.7908-3.1406 25.576-6.1875 47.912-5.3941-18.595-15.453-40.721-15.566-53.89-15.291 10.367-8.8436 36.445-26.289 48.95-32.638-34.404-3.0304-43.281 3.1727-54.781 8.0181 5.0538-4.7783 11.808-15.032 19.081-25.641 6.4143-9.3299 13.72-19.955 18.806-25.625-24.718 2.2498-50.537 22.077-58.28 30.873 1.2167-7.7587 17.818-49.322 27.245-63.073-28.913 13.168-46.763 41.952-55.347 57.825 0.46833-19.21 15.549-70.492 27.228-88.261-17.915 6.9809-38.647 28.427-50.828 54.618-9.8161 21.106-15.437 47.281-15.437 68.176 0 1.1662 1.281 6.8519 1.3132 8.002 1.3132-14.853 4.7136-34.355 17.915-50.682 0.59689-0.74382 3.1406-4.3389 2.0386-0.45914-5.8472 20.847-1.6346 36.801 1.8963 53.598 1.8458 8.8602 3.9992 17.591 4.2104 25.641 9.3299-17.623 19.518-27.244 28.557-32.492-8.7468 7.8721-14.27 31.035-17.915 47.2 6.7058-6.4304 15.145-10.626 24.183-12.812-6.5598 3.7742-15.744 12.667-20.393 27.374-3.3839 10.69-8.1636 22.499-24.183 32.638 2.8972 0.22956 5.086 0.67953 8.7468 0.45914 1.7494-0.13773 1.506 0.18365 0.13774 1.0193-6.7867 4.1002-13.347 5.6044-24.183 5.6691-0.36733 0.67955 5.1833-9.8969 5.6691-31.602 0.0918-4.3757-0.55098-8.6012-1.0193-9.3299-2.1396-0.27548-19.729 7.5966-26.499 23.892 1.7999 4.5502 0.89076 21.202-8.3092 27.682-4.0635 2.8651-19.696 6.3822-37.141-2.3325-5.1512 7.1108-8.8928 17.623-8.8928 26.467 0 2.9982 0.3214 5.9606 0.98716 8.7794 1.3912 5.8312 5.5557 14.578 14.319 18.935 12.294 6.1393 28.702 4.7301 40.057-2.1855-5.8798-9.7022 5.0212-10.48 8.5847-6.9813-0.60148 0.71168-1.506 1.9422-2.1855 2.608 0.45914 1.8136 0.73004 4.5685 1.1662 6.5598 6.0901 5.6696 9.7188 14.789 10.496 27.39 0.63361-0.22958 1.8963 0.18365 2.6263 0.27548 1.5382 0.2755 2.8651 1.2626 3.6456 2.6217 1.5565-1.5382 3.7099-1.6529 5.5236-0.87239 1.3774 0.58312 2.7365 2.0248 3.0625 3.6273 1.1524-1.1019 2.8192-1.6988 4.2287-1.6024 1.7815 0.13773 4.0818 1.4555 4.8105 3.4987 2.3003-1.0377 4.8592-2.6263 5.8151-4.9404 1.9284-4.6971 7.4345-27.164 6.8514-34.825-0.22958-3.0947-1.5886-6.884-2.4794-10.626-1.9744-8.277-3.4987-22.142-2.7687-27.974 6.074-2.833 19.842-15.599 22.142-19.372 6.1227 6.8514 12.958 22.677 11.954 34.97 2.0248-1.0377 3.6778-0.94124 4.4537-0.32139 0.69792 0.5326 1.5565 1.6851 1.7999 2.2177 1.102-0.82646 3.0763-1.7172 4.518-1.4601 0.80809 0.18366 2.4472 0.77596 3.0625 3.0625 1.3774-1.832 3.3518-2.1213 4.8109-1.8963 1.7631 0.27548 3.4023 1.7631 3.6273 3.4987 4.3894-3.4482 8.1958-7.2082 8.4552-9.0222 2.0065-14.465 2.6722-36.218 1.8963-41.223 5.6852 2.0386 9.4593 4.811 19.664 5.9606-5.9772-12.375-12.958-22.417-19.372-29.415 3.967 0.98715 9.508 2.3187 14.707 4.3757-4.2287-8.3096-14.416-14.869-18.498-17.915 7.1916-0.55098 25.965 4.8918 42.972 10.917-12.456-19.308-22.175-25.738-37.724-32.185 7.7908-3.1406 25.576-6.1875 47.912-5.3941-18.595-15.453-40.721-15.566-53.89-15.291" fill="#55295a"/>
  <path d="m107.38 197.59c4.6649-2.1855 11.322-16.603 9.4754-25.641-7.305 1.0515-10.788 21.414-9.4754 25.641" fill="#f29600"/>
  <path d="m117.25 175.59c-0.046-0.79433-0.27548-2.9018-0.41323-3.6273-4.5042 0.63363-8.3096 10.48-9.6701 17.494 6.1714-4.2746 6.9487-5.8312 10.075-13.865" fill="#d18200"/>
  <path d="m46.64 253.38c-8.5365 0.82648-17.834-1.6208-23.746-6.2683-1.0836 7.7587-1.9284 19.923-1.1662 25.641 0.36731 0.13774 1.7172 0.90912 2.0386 1.1662 0.8081 0.64739 0.74382 1.832 1.0193 3.0625 0.98717-0.18366 2.5896-0.0918 3.6456 0.45915 1.281 0.66576 2.4289 2.3325 2.6263 4.3757 2.9294-2.383 5.4749-1.6851 6.3982-1.1662 1.506 0.82646 2.787 2.6401 2.9156 4.0635 4.1461-0.87239 5.8638-1.6667 6.8519-3.0442 0.89074-1.2626 8.536-14.513 10.626-17.931-4.0497-2.1396-8.5199-6.4464-11.209-10.334" fill="#49204e"/>
  <path d="m146.7 218.08c-0.22958 4.6323 0.22957 11.873 0.58312 15.355 4.6002-2.6263 10.642-11.776 15.015-18.951 3.1589-5.1994 6.0906-10.156 8.1476-11.937-0.22957-0.32139-1.3591-1.8779-1.6024-2.1855-3.1084 4.7944-14.789 15.194-22.142 17.72" fill="#dbd2a9"/>
  <g fill="#dcdddd">
   <path d="m121.39 293.37c-0.41323-1.1662-1.6024-1.9284-2.608-2.3325 1.2167 4.6002-0.82645 5.653-2.1075 8.3579 1.4922-0.8081 2.7549-1.5565 3.2416-2.0065 0.3214-1.0055 1.2305-3.4344 1.4739-4.0175"/>
   <path d="m127.1 292.12c-1.4922-0.63362-4.8757-0.22957-5.653 1.8458-0.0165 0.0321-0.0326 0.0918-0.0326 0.0918 1.6529-0.48669 1.3912-1.8963 4.1461 0.0321 2.7549 1.91 0.58312 6.5277-1.0514 9.6701 1.8963-1.9606 3.5951-4.2425 4.6002-6.5438 0.55098-1.4922-0.27548-4.3894-2.0065-5.1186"/>
   <path d="m134.55 294.35c-0.95503-0.0918-2.9477 0.77596-3.9349 1.6024 2.5253 0.46833 6.2522 1.0193 5.4583 6.625 1.1846-2.0891 1.9743-3.889 1.9606-4.4721-0.13773-2.3462-1.0698-3.563-3.4803-3.7558"/>
  </g>
  <path d="m16.014 224.11c1.5565 16.667 22.158 21.948 26.37 16.149-0.27548 3.4987 2.6722 11.533 4.8431 13.574-16.295-0.94124-32.638-4.4859-31.213-29.723" fill="#49204e"/>
  <path d="m42.684 236.7c0.59689 16.343 7.7587 24.863 21.235 28.962 19 5.7825 47.2-2.9661 49.419-32.671-3.8568 6.3821-45.693 43.815-70.654 3.7099" fill="#49204e"/>
  <path d="m130.85 269.5c-6.3496-15.728-21.365-27.698-31.407-32.379-10.026-4.6649-13.444-1.6988-11.387 4.9078 2.7365 7.5805 11.063 22.742 18.692 30.662-1.3912-7.6618-3.6273-19.162-4.5042-22.385 3.3518 3.9211 15.242 12.181 28.605 19.194" fill="#fff3c2"/>
  <g fill="#49204e">
   <path d="m147.65 211.53c-0.63362 1.6851-0.53261 5.3775-0.89075 6.9813 10.447-3.7099 21.64-15.906 22.094-18.158-3.8385-6.3656-3.4849-3.8568-5.2806-5.2802-3.0442 3.5814-3.9349 8.7628-15.922 16.457"/>
   <path d="m180.18 225.19c0.61527 3.3701 0.85861 6.7219 0.61527 9.8322 2.0248-1.0377 3.6778-0.92289 4.4537-0.3214 0.6979 0.53261 1.5565 1.6851 1.7998 2.2177 1.102-0.84024 3.0763-1.7172 4.518-1.4601 0.8081 0.13774 2.4473 0.77596 3.0625 3.0625 1.3774-1.8458 3.3518-2.1212 4.8105-1.8963 1.7677 0.27549 3.4023 1.7677 3.6456 3.4987 4.3711-3.4482 8.1962-7.2082 8.4391-9.0383 0.98716-7.0947 1.6529-15.954 1.9743-23.73-5.9124 15.356-22.92 23.714-33.319 17.834"/>
   <path d="m119.68 279.41c-7.435-5.5722-8.7146-15.533-15.485-20.733 0.22956 1.4096 0.41322 2.9477 0.71167 4.1782 6.0901 5.653 9.7188 14.789 10.496 27.374 0.63362-0.18366 1.8963 0.18365 2.608 0.27548 1.5565 0.2755 2.8651 1.281 3.6456 2.6263 1.5703-1.5244 3.7237-1.6529 5.5396-0.87697 1.3774 0.60149 2.7228 2.0386 3.0625 3.6456 1.1525-1.102 2.8192-1.7172 4.2288-1.6024 1.7815 0.13773 4.0634 1.4601 4.7944 3.4987 2.3003-1.0377 4.8596-2.6217 5.8312-4.9565 0.85862-2.1075 2.4473-7.7752 3.8706-14.092-9.508 2.9477-19.858 7.2564-29.301 0.6474"/>
   <path d="m186.36 169.58c2.2682 15.064 14.95 20.879 27.374 25.868-0.0321-2.4932-0.13774-4.4216-0.3214-5.5396-9.6701-6.7224-19.324-11.614-27.066-20.328"/>
  </g>
  <g fill="#dcdddd">
   <path d="m24.6 276.63c-0.13773-1.0193-0.63362-1.8136-1.2167-2.3325-0.60149 2.4151-1.6529 4.6163-3.0763 6.5598 0.74382-0.0918 1.3591-0.22958 1.7356-0.32141 0.84025-1.3269 2.4794-3.8568 2.5574-3.9211"/>
   <path d="m28.352 277.61c-0.45914-0.22956-1.0055-0.36731-1.5886-0.41323 0.79432 2.5115 0.61525 5.4262-0.36733 7.9047 1.8963-1.0055 3.4987-1.9606 3.9349-2.3968 0.27548-1.5703-0.04596-4.114-1.9606-5.102"/>
   <path d="m39.335 284.35c0-0.74382-0.48671-2.8192-1.6851-3.4849-1.0698-0.58312-2.9799-0.69791-4.6002-0.0918 2.9661 2.057 2.9477 4.9726 1.6024 7.451 2.5115-1.731 4.681-3.4987 4.681-3.889"/>
  </g>
  <g fill="#49204e">
   <path d="m173.37-10.15c-19.551 39.004-23.762 55.801-27.439 95.194 4.9078-14.886 7.0135-19.777 9.2812-24.863 2.8008-27.471 9.7996-46.212 18.158-70.33"/>
   <path d="m115.66 46.707c-9.103 19.081-1.2305 63.884-0.87697 65.293 0.36731 1.3912 1.5703 2.8008 3.1589 5.6044-3.8568-24.329-1.0514-52.173 0.87239-55.493-2.461-8.7468-2.6401-11.905-3.1589-15.404"/>
   <path d="m199.59 129c20.231-4.827 42.065-4.5502 47.945-2.5896-12.003-0.22958-29.431 3.2094-32.007 5.2802-5.9446-1.7493-13.784-2.1396-15.938-2.6906"/>
   <path d="m223.5 58.393c-19.243 23.454-30.063 24.588-45.467 49.889 9.0704-10.172 20.83-20.037 25.333-21.462 6.6576-8.8115 15.728-20.344 20.134-28.427"/>
  </g>
  <path d="m120.53 159.88c1.0377 0.046 2.1396-0.0326 2.5758 1.5886 1.2627 4.7623 0.6474 25.09-5.394 38.988 12.456-0.13774 18.239-2.608 25.495-6.0093-3.4023 0.046-9.783-1.1846-9.5402-1.3269 6.4304-3.8568 12.472-10.042 15.501-14.27 4.5823-6.3978 6.1875-12.845 8.7468-19.583 3.4023-8.9084 8.8436-18.757 18.384-25.608-7.8399 2.057-12.748 3.9211-22.79 12.245 0.60149-2.8329 1.0836-4.8918 2.0754-9.1839 2.1213-9.233 6.5764-25.333 14.351-37.384-8.7307 7.5966-18.141 14.578-27.212 32.719 0.36733-4.293-1.6851-20.053-4.7784-31.132-4.6649-16.668-3.563-41.061-0.36731-50.747-13.736 14.108-23.163 36.752-20.101 61.632-1.9743-2.3646-4.7623-4.6815-6.625-8.828 0.74382 6.0093 2.8008 12.213 2.9477 14.74-3.4482-3.9992-5.248-4.3252-7.4345-5.1994-4.4537-4.6163-8.7954-7.9534-13.833-9.6054 9.4915 19.713 3.5492 48.156-11.468 60.515 4.9239 0.56475 11.678 2.3003 16.311 4.0497 7.7426-4.5364 15.874-7.8073 23.163-7.5966" fill="#fff3c2"/>
  <g fill="#0f141b">
   <path d="m36.488 195.02c-18.822 10.431-23.438 29.285-20.911 40.527 2.9477 13.25 16.83 20.442 31.44 18.805 0.45914-0.046-0.56475-2.0386-1.0377-2.0065-14.481 1.3774-25.625-5.7504-28.378-18.125-2.3968-10.69 1.2167-26.71 19.226-36.704 0.41323-0.22956 0.04596-2.7227-0.32141-2.4932"/>
   <path d="m105.68 252.3c-0.87237 1.1525-1.8136 2.2498-2.8651 3.2875 0.18367 0.64739 0.59689 1.2305 0.87238 1.8963 1.3132-1.1846 2.4794-2.461 3.5171-3.8063-0.45915-0.63362-0.92289-1.102-1.5244-1.3774"/>
   <path d="m113.13 224.53c-0.73004-4.3757-2.383-4.1002-1.6529 0.27548 1.1341 6.7545 0.73004 13.007-1.102 18.53 0.4867 0.56475 1.0193 1.0698 1.5886 1.5382 2.057-5.9772 2.4151-12.829 1.1662-20.344"/>
   <path d="m48.403 149.43c-4.3573 1.4922-8.6499 21.705-8.6499 36.169 0 0.45914 2.6217-3.3518 2.6217-3.8201 0-13.736 4.3389-30.014 6.5603-30.776 1.7493-0.58312 12.699 6.3496 18.044 13.347 0.27548 0.36731 2.8329-0.22957 2.5574-0.56475-5.8794-7.7261-18.093-15.388-21.138-14.351"/>
   <path d="m123.8 160.77c-0.45915-1.6208-0.71168-1.7356-1.7494-1.7815-11.792-0.3214-28.654 7.6457-36.089 17.072-1.9927 2.5116 0.22958 2.5574 2.3325 0.18366 6.5277-7.3216 17.623-13.428 27.714-15.096-6.9974 3.6778-17.234 11.889-20.636 22.742-0.13773 0.45914 1.3591 1.0514 1.5381 0.63363 6.6898-16.521 22.92-24.102 25.074-23.81 0.46834 0.71168 0.82647 3.7742 0.82647 8.1471 0 9.3946-1.6667 24.621-7.6292 34.55-2.1212 3.5308-0.36731 3.7558 1.8779-0.0326 8.261-13.735 8.1476-37.319 6.7384-42.584"/>
   <path d="m15.896 225.58c-8.5365 1.7172-21.948 8.7954-24.669 14.06-0.64739 1.2305-0.46832 1.3132 0.67953 1.506 4.3068 0.76219 21.251-4.4859 24.977-5.9285 0.41324-0.18365-0.03255-1.9606-0.45914-1.7999-3.5492 1.3774-17.331 5.7504-22.758 6.1067 3.5492-4.339 14.4-10.14 22.498-11.776 0.41323-0.0918 0.18365-2.2682-0.2755-2.1718"/>
   <path d="m15.886 233.6c-2.1396 1.5703-6.9492 8.4878-7.8886 10.998-0.66576 1.7815 0.56477 1.2122 1.8136 0.73004 3.1911-1.2305 6.884-3.6778 8.9254-5.7178 0.3214-0.32139-0.8586-1.506-1.1846-1.1662-1.3775 1.3774-4.3389 3.3701-7.1756 4.7457 1.3591-2.4473 4.8266-6.6572 6.6572-8.3739 0.13773-0.18365-0.77596-1.4922-1.1525-1.2167"/>
   <path d="m21.74 245.69c-1.2948 7.9529-1.4739 21.332-0.56475 27.617 0.04596 0.45914 1.7172 0.22958 1.6529-0.22957-0.89074-6.1388-0.04596-18.757 1.2167-26.597 0.09177-0.45914-2.2177-1.2305-2.3003-0.77596"/>
   <path d="m57.24 262.81c-0.90911 1.2948-10.01 17.008-10.998 18.401-1.0836 1.5381-1.3912 1.731-6.9001 2.8651-0.45914 0.0918-0.09177 1.731 0.3214 1.6346 5.3289-1.102 7.0461-1.1984 8.5847-3.3701 1.0193-1.4601 10.042-18.336 10.609-18.887 0.32141-0.32141-1.3912-0.98717-1.6346-0.6474"/>
   <path d="m105.46 265.05c3.7558 3.4482 8.2444 9.2812 9.0704 25.997 0.0165 0.45915 1.6851 0.36732 1.6667-0.0918-0.66576-13.185-4.1782-22.806-10.496-28.605-0.3214-0.32142-0.58312 2.383-0.22957 2.6906"/>
   <path d="m146.11 213.28c-1.5886 15.938 0.89075 26.224 2.8651 34.501 0.89074 3.7421 1.6667 6.9648 1.9101 10.059 0.58312 7.6618-4.5685 30.014-6.4956 34.712-1.102 2.6722-3.0947 3.2737-5.9606 4.6167 0 0-0.45916 2.7686-0.0161 2.5758l1.5244-0.73004c2.9982-1.3912 4.7297-2.6263 6.0901-5.8959 2.0248-4.9239 7.5971-27.39 6.9814-35.424-0.22958-3.2232-1.281-6.4956-2.2039-10.302-1.9606-8.1476-4.4216-16.457-2.8513-32.104 0.50047-5.0694-1.3453-7.0782-1.8458-2.0065"/>
   <path d="m170.3 201.84c-2.1718 1.3269-4.9565 5.912-8.4878 11.727-4.7458 7.7747-10.285 17.348-15.177 19-0.41324 0.13774 0.55097 2.3646 0.98716 2.2177 5.4584-1.8458 10.383-11.338 15.517-19.761 3.1406-5.1672 5.5557-9.7835 8.0342-11.76 0.36732-0.2755-0.48669-1.6667-0.87697-1.4234"/>
   <path d="m164.6 196.82c9.3299 7.9694 16.619 26.839 14.983 38.842-0.046 0.45915 1.8136-0.046 1.8641-0.51883 1.6988-12.456-5.378-29.172-14.53-38.324-3.1727-3.1589-5.7178-2.8972-2.3187 0"/>
   <path d="m211.97 188.97c0.95501 2.7228 1.0055 25.949-1.1341 41.45-0.27549 1.91-3.2554 5.4909-8.0668 9.1352-0.36733 0.27549-0.4867 2.3646-0.13773 2.0891 2.0065-1.5244 9.6701-7.1916 10.172-10.788 2.1075-15.144 2.6906-37.692 1.5565-40.915-0.13774-0.45915-2.5574-1.4096-2.4151-0.97338"/>
   <path d="m105.27 110.55c-3.788-4.6002-8.1476-7.5479-12.634-8.4878-0.89074-0.18366-1.4234 0.0918-0.92289 1.1662 11.322 24.297 0.22958 51.428-12.083 59.932-0.36731 0.27549 1.7494 1.0698 2.1396 0.8081 8.9088-6.1549 16.489-21.284 16.489-38.486 0-6.9648-1.3591-14.238-4.3894-21.332 5.0373 1.6529 9.8643 6.058 13.735 12.666 4.6649 7.9694 7.3216 17.785 7.3216 25.965 0 2.2682-0.22958 4.4078-0.61527 6.3496-1.0698 4.9239 0.61527 5.3775 1.6208 0.41323 2.236-11.16-0.73004-23.05-6.884-33.562-0.45915-0.73005-0.87698-1.4234-1.3269-2.1075 12.991 7.4184 19.518 27.002 16.603 41.045-0.87237 4.2288 0.87697 4.2746 1.7356-0.18366 2.8192-14.578-3.1727-36.25-20.782-44.171"/>
   <path d="m78.028 123.68c-1.2489 0.0918-0.92289 1.3453-0.2755 1.6024 5.6691 2.2177 16.408 13.347 16.894 17.429 0.04596 0.46833 1.1479-2.7686 0.87237-3.2875-1.9927-3.6594-8.6981-10.48-13.978-13.946 5.2641 0.45915 13.234 1.8641 15.371 2.5115 0.79432 0.22956 1.3269-1.8642 0.51883-2.1075-2.4794-0.74382-14.853-2.4794-19.421-2.2039"/>
   <path d="m72.79 90.117c6.2522 5.9933 19.583 24.636 22.531 36.59 0.09177 0.45915 2.1718 0.60148 2.1718 0.22957 0-0.046 0-0.13773-0.01606-0.18365-2.787-11.209-14.837-28.459-21.753-35.991 5.3775 1.4601 16.505 7.5805 19.599 10.464 0.3214 0.3214 0.22957-1.9422-0.13773-2.2498-3.6456-3.4023-16.975-10.286-21.818-10.286-0.90911 0-1.8136 0.2755-0.58312 1.4417"/>
   <path d="m264.13 125.88c-8.0181-8.3257-32.039-18.287-53.031-15.598 11.565-9.6054 37.627-26.548 48.399-31.343 2.0065-0.89074 1.0836-1.4417-0.22958-1.5886-21.818-2.3463-38.259-0.51885-52.918 6.9327 4.7136-5.5561 10.496-13.979 16.522-22.742 7.0135-10.221 14.27-20.782 19.405-25.997 0.76219-0.77596 0.32141-1.4417-0.63362-1.4096-17.267 0.61526-40.737 12.537-57.453 29.512 2.3646-10.059 20.166-51.152 28.2-61.017 0.95503-1.1846-0.0321-1.731-1.6208-1.1157-21.073 8.0989-41.596 30.014-54.586 55.445 1.9101-21.397 16.133-70.039 27.633-84.714 0.66576-0.85862 2.0432-2.4932-0.9734-1.2948-20.15 8.0342-40.3 29.917-53.242 57.729-4.6002 9.8969-8.1476 20.198-10.593 30.614-3.1406-11.225-4.2746-39.814-2.3325-52.545 0.13773-0.87697 0-2.5896-1.4922-0.63362-8.9736 11.792-16.91 38.259-15.874 63.187-4.1782-9.7188-9.362-27.358-9.5728-32.136-0.04596-1.5244-1.1662-1.6851-1.6208-0.22956-7.7747 24.377 0.36733 55.704 8.5199 67.074 0.76217 1.0698 4.1461 2.282 3.967 2.1213-6.1067-5.653-13.897-26.904-13.897-47.605 0-5.8472 0.61525-11.711 1.9743-17.251 1.7999 9.0709 7.289 27.31 11.063 33.983 0.74382 7.3698 2.3646 14.465 5.0699 20.879 2.1855 5.1833 3.6456 5.3615 1.5703 0.18366-3.788-9.4754-5.3289-20.182-5.3289-30.889 0-22.158 6.6085-44.268 13.541-55.477-0.36732 3.9533-0.56475 8.7468-0.56475 13.833 0 14.869 1.5703 32.266 4.293 38.632-3.4666 16.246-3.9349 31.067-2.2039 46.876 0.6979 6.4143 2.383 6.1388 1.91-0.36731-1.0836-15.193-1.0055-25.366 0.85861-37.109 2.3141-14.659 6.8679-29.739 13.38-43.766 12.197-26.192 29.755-45.807 48.512-54.392-11.679 17.769-26.289 68.484-26.759 87.694-4.6649 9.9612-8.1636 20.36-10.075 30.614-0.82648 4.5042 0.3214 6.7706 1.102 2.2498 6.2361-36.607 35.149-76.874 64.046-90.043-9.4268 13.736-25.787 53.89-27.002 61.648-7.1108 7.6779-12.812 16.279-15.954 25.285-0.98717 2.8329-0.41323 4.681 0.56475 1.8458 9.8964-28.362 48.155-54.7 72.873-56.967-5.086 5.6852-11.678 15.258-18.093 24.588-7.289 10.61-14.805 21.543-19.842 26.338-8.2284 4.9891-15.987 11.889-23.989 20.992-2.3968 2.7365-2.1855 5.102 0.0918 2.2682 20.312-24.993 43.88-34.469 78.284-31.424-12.505 6.3335-38.421 23.325-48.788 32.152-2.2177 0.46833-4.4078 1.102-6.5112 1.8963-5.3941 2.057-6.2527 4.0497-0.92289 1.832 19.615-8.2123 50.747 1.9927 61.502 10.934-22.353-0.79433-38.404 2.0891-46.196 5.2155-6.8514-2.057-14.627-2.9477-23.422-2.0065-4.6971 0.50047-4.518 2.1534 0.18366 1.6529 30.97-3.2875 50.083 17.898 59.332 32.234-17.008-6.0259-36.38-11.76-43.572-11.225-1.2626-0.45915-2.5758-0.87698-3.967-1.1984-3.6135-0.84023-6.1875 0.22958-2.5758 0.82648 9.7509 1.6851 20.441 11.095 25.722 18.384-5.1994-2.0432-10.464-3.563-14.432-4.5502-3.8706-3.1406-8.5686-6.2848-14.383-9.3138-3.5951-1.8779-5.3454-0.9734-1.8641 0.82646 22.433 11.694 29.188 25.722 33.221 34.112 0.84023 1.731 1.5565 3.2094 2.282 4.4216-18.06-3.0763-33.918-16.521-41.676-23.098-1.4417-1.2305-2.6401-2.236-3.5492-2.9294-1.9743-2.9982-4.2425-5.6204-6.7224-7.4345-2.1075-1.5382-2.9339-0.0918-0.98716 1.3453 7.4836 5.491 12.683 18.886 13.768 27.552-1.6024-1.5886-11.776-13.735-16.602-17.688-2.1213-1.7356-3.1911-0.45916-1.0514 1.2948 4.3389 3.5492 15.177 16.489 18.157 19.21 1.3269 1.2168 1.7815 0.90911 1.6988-1.0836-0.18367-4.7462-2.0891-11.533-5.1507-17.736 8.6981 7.2403 25.981 20.344 44.317 22.693 1.3912 0.18367 0.22958-1.506 0.22958-1.5244-1.0377-1.2167-1.9927-3.2232-3.2094-5.7504-2.787-5.7825-6.3495-13.914-15.437-22.256 3.9211 1.0055 8.3904 2.3325 13.298 4.4721 1.4876 0.64739 1.6529 0.0918 1.2627-0.48669-3.742-5.653-9.0057-13.137-17.413-17.834 8.812 1.0055 23.276 5.1672 40.332 11.338 2.0248 0.73005 1.5381-0.3214 1.0055-1.2121-6.4951-10.642-18.028-25.9-36.672-32.347 7.1434-3.0946 24.021-5.2159 46.244-4.1782 1.9422 0.0918 1.6667-0.32142 0.63362-1.4096"/>
   <path d="m43.697 208.81c0.85862-2.0891 2.3463-3.2875 3.4666-3.7237 0.63363-0.22956 1.1984-0.27548 1.6208-0.0918 1.0698 0.8081 0.98717 2.8513 0.63363 4.3068-2.2177 3.1406-4.0635 6.6737-5.4262 10.415-1.6667-2.7228-1.832-7.1434-0.2755-10.901m41.838-21.996c1.7494 2.0386 2.9982 9.7996-0.18365 16.732-2.0891 4.518-6.7058 9.8482-16.926 9.4915-0.03256 0-0.04596 0.0165-0.09177 0.0165-5.0538-0.36731-10.642-1.6529-16.327-4.44 7.0135-8.8928 19.696-17.996 33.529-21.802m10.026-1.7494c0.32141 1.0193 0.56475 2.7228 0.56475 4.8431 0 6.0254-1.7998 15.128-8.1476 19.599-1.3132 0.92289-4.1782 2.1075-8.0828 2.8651 3.5308-1.9284 5.653-4.7783 6.9327-7.5479 2.8834-6.3174 2.5758-14.934 0.41323-18.449 2.7365-0.66576 5.5235-1.1157 8.3096-1.3132m-37.951 76.89c-17.299-8.6007-18.903-34.97-6.625-51.978 17.445 8.7307 34.21 4.2609 38.291 1.3912 9.4593-6.6737 9.5893-23.6 7.5966-27.552-0.13773-0.3214-0.3214-0.87238-0.6474-0.8586-18.789 1.0377-35.343 11.97-45.208 24.215-0.03211-0.61524-0.09177-1.1984-0.22958-1.6988-0.18366-0.73005-0.55098-1.6529-1.2305-1.9743-0.84025-0.41323-1.9101-0.36732-2.9982 0.0321-1.8641 0.73004-3.4987 2.461-4.3894 4.6489-1.9422 4.7297-1.7356 10.739 1.0836 13.736-4.6971 14.95-2.5115 34.226 13.995 42.454 12.618 6.2848 28.605 4.5685 40.413-2.4473-0.3214-0.46833-0.53261-1.0836-0.7438-1.6529-11.403 7.1434-26.839 7.8886-39.296 1.6851"/>
   <path d="m43.339 204.93c-2.7686-1.2167-4.4537-2.6585-5.248-4.4859-1.1157-2.5896-0.60148-6.1067 1.6988-11.776 0.95503-2.3325 2.0386-4.4721 3.2232-6.4304 1.2948 8.3578 1.3912 15.647 0.32141 22.693m54.278-37.805c-22.191-8.5525-48.285-6.8358-59.332 20.279-2.4932 6.1227-3.0304 10.658-1.7172 13.703 1.0698 2.4794 3.338 4.3252 7.143 5.783 0.22956 0.0918 0.48669-0.27548 0.63362-0.6979 0.41323-0.046 0.76219-0.18365 0.8081-0.36731 1.7172-8.4391 1.2167-15.922-0.76219-25.608 0-0.0161-0.01606-0.0161-0.03211-0.0326 12.035-17.331 33.756-18.854 52.108-11.776 0.45915 0.18365 1.5703-1.0836 1.1479-1.2626"/>
   <path d="m40.333 284.57m-8.3096-1.9606c1.731-1.6529 3.4161-2.0891 4.8757-1.281 1.1846 0.66576 1.8136 1.9422 1.8136 2.6906 0 0.046 0 0.13773-0.0165 0.18365-0.48669 1.281-7.8555 6.1388-9.9291 6.6411 0.04596-1.6667 1.9927-7.0461 3.2554-8.2449m-1.1525-1.2122c-1.5244 1.4601-3.889 7.564-3.7742 9.7509 0.09177 1.7631 0.22958 2.0386 2.4932 1.1984 2.5437-0.94124 10.707-5.7499 11.128-7.7747 0.03256-0.18365 0.04596-0.36731 0.04596-0.56475 0-1.506-1.4601-2.9661-3.0304-3.8385-1.0055-0.55097-3.6778-1.7953-6.8679 1.2305"/>
   <path d="m24.982 278.41c0.64739-0.73005 1.8641-0.82646 2.9661-0.27548 0.9734 0.50046 1.8641 1.5886 1.8641 3.2232 0 0.27549-0.04596 0.63363-0.13773 0.95503-1.0514 1.0514-7.4671 4.6488-9.6701 5.3128 0.63363-2.0891 3.8063-7.9529 4.9565-9.2325m-1.2489-1.1157c-0.73004 0.82647-6.7219 10.075-5.8638 11.921 0.13773 0.36733 0.41323 0.41323 0.84025 0.45914 2.0753 0.22958 11.679-5.3775 12.456-6.4469 0.04596-0.0918 0.13773-0.18366 0.13773-0.2755 0.74382-3.237-0.95503-5.1828-2.608-6.0414-1.7815-0.92288-3.7926-0.87697-4.9565 0.41323"/>
   <path d="m21.554 272.65c-0.04596 0.0161-0.13773 0.0326-0.18366 0.046-2.9018 1.2489-11.031 7.0135-10.529 8.941 0.04596 0.22956 0.94126 0.71167 1.4096 0.77594 1.6346 0.22958 6.884-0.27548 9.6375-0.82646 0.61526-0.13773 0.89074-2.0386 0.48669-1.8458-0.92289 0.45915-6.9974 1.1157-9.2164 0.98717 1.3912-1.5886 5.8312-5.1512 8.7793-6.4469 0.2755-0.0161 0.56475 0.046 0.84025 0.2755 0.67953 0.55098 1.1846 1.7493 1.2489 3.0625 0.03211 0.45915 1.6851 0.36731 1.6667-0.0918-0.09177-1.7815-0.77596-3.2416-1.832-4.0818-0.66576-0.55098-1.4876-0.94124-2.3003-0.80809"/>
   <path d="m134.44 295c1.2489 0.0918 2.7549 0.85861 2.8651 2.6906v0.046c0 2.057-4.6489 9.2491-6.3009 10.82-0.36731-1.2489-0.51883-4.44-0.51883-7.1756 0-1.5382 0.046-2.9018 0.13773-3.7099 0.46834-2.0248 2.2498-2.8192 3.8247-2.6906m-5.4588 2.3508c0 0.0326-0.0161 0.046-0.0161 0.0918-0.0165 0.0918-1.1984 13.136 1.1846 13.979 0.56475 0.22958 1.3591-0.50047 1.5381-0.63362 1.832-1.3774 8.1958-10.318 8.0176-13.088-0.18367-2.7044-3.0625-4.1966-5.1346-4.3711-2.2177-0.18366-4.9078 1.0055-5.5883 4.0175"/>
   <path d="m130.17 297.41m-10.383 9.2812c0-2.5758 1.1984-9.6701 2.5115-12.31 0.98717-1.9927 3.0442-2.2177 4.5364-1.5886 1.0193 0.45914 2.0065 1.3912 2.0065 2.8008 0 0.36731-0.0918 0.79432-0.22956 1.2489-1.1157 3.0763-6.9005 9.0222-8.7794 10.156-0.0161-0.0918-0.0326-0.18367-0.0326-0.32142m1.0193-13.055c-1.2489 2.4932-3.9854 13.639-2.5574 15.291 0.27549 0.3214 0.66576 0.41323 1.1019 0.3214 2.2361-0.41323 9.6054-8.5199 10.82-11.857 0.22958-0.63363 0.3214-1.2305 0.3214-1.7999 0-2.0891-1.4417-3.4666-3.0441-4.1461-2.2498-0.9734-5.248-0.66578-6.6572 2.1718"/>
   <path d="m114.28 291.28c-0.046 0.0918-6.9487 10.674-5.2806 12.31 0.22957 0.27548 0.60148 0.36731 1.0377 0.27548 1.5381-0.18365 6.9487-3.1268 9.7188-5.086 0.97338-0.6979 0.56475-2.9661 0.27548-2.6217-0.6979 0.90911-6.9974 4.7783-9.2651 5.6369 0.6474-2.1718 3.7742-8.0828 4.8431-9.5567 0.48671-0.64739 1.3269-0.94124 2.2682-0.77595 1.0514 0.18365 2.3508 1.0055 2.8513 2.7686 0.13773 0.45914 1.6988-0.3214 1.5886-0.74382-0.59689-2.0891-2.1718-3.3196-4.1461-3.6594-1.5565-0.27549-3.0625 0.27549-3.9028 1.4417"/>
   <path d="m199.34 237.2c1.1984 0.18366 2.1075 1.1157 2.3646 2.383-0.2755 2.8008-3.2875 8.3092-4.6649 10.059-0.58312-1.7172-1.4601-6.3009-1.4601-9.0218 0-0.45916 0.0321-0.8081 0.0918-1.1341 0.89075-1.6529 2.2498-2.5115 3.6778-2.282m-5.232 1.6346c-1.1341 2.3141 1.1984 11.5 1.5703 12.488 0.58312 1.5565 1.3453 1.1984 2.5758-0.48669 0.9734-1.3591 4.9239-7.3216 5.2641-11.273 0.18366-2.057-2.0891-3.3839-4.0497-3.6778-1.6988-0.2755-3.967 0.0918-5.3615 2.9477"/>
   <path d="m193.32 239.83v0.0161zm-6.4469 5.7986c0-2.1855 0.41323-5.7178 1.0055-7.6613 0.32141-0.9734 2.1213-2.0065 3.563-1.7493 1.5381 0.27548 1.8779 1.91 1.8779 3.3518v0.22958c-0.36732 1.102-4.7297 6.1388-6.333 7.2568-0.046-0.32141-0.0918-0.79433-0.0918-1.4096m-0.58312-8.1797c-0.36731 1.1984-1.4601 9.1678-0.56475 11.306 0.27548 0.6979 1.0055 1.0514 1.9606-0.0918 1.3453-1.6208 7.1108-7.2568 7.289-8.6499 0.0161-0.0321 0.0161-0.046 0.0161-0.0918 0.13774-4.2746-2.3325-4.8431-3.3701-5.0373-2.1534-0.41322-4.681 0.66576-5.3293 2.5437"/>
   <path d="m177.32 244.62c0.46832-1.8963 2.3325-6.3009 4.1323-8.7468 1.3132-0.79432 2.461-0.98717 3.3518-0.51884 0.87238 0.46833 1.3591 1.5244 1.3774 2.2682 0 0.18367-0.22958 1.1479-0.3214 1.2948-0.58312 0.66577-6.2688 4.5823-8.5199 5.7017m10.528-7.03c-0.0161-1.2121-0.3214-2.2682-1.7172-3.3196-0.92289-0.71167-3.2049-1.9422-5.7017 0.2755-0.0918 0.046-0.18366 0.13773-0.22958 0.22956-1.3591 1.7815-5.7012 10.431-4.2747 12.051 0.22958 0.2755 1.6988-0.46832 2.1396-0.67953 1.5381-0.74382 8.6173-5.3293 9.1517-6.3009 0.13774-0.22958 0.61525-1.9101 0.61525-2.2177"/>
   <path d="m107.86 193.88c0-7.8395 3.6594-18.109 8.5521-21.17 0 0.0918 0.0165 0.18365 0.0165 0.22956 0 9.2165-4.7462 21.203-8.3744 23.309-0.0918-0.77596-0.18366-1.5382-0.18366-2.383m9.0544-23.389c-7.0295 2.7044-12.148 18.514-10.593 27.552 0.0918 0.45916 0.48669 0.74382 0.92289 0.69792 5.8798-0.76219 11.5-16.91 10.788-27.52-0.0165-0.27549-0.13774-0.50048-0.36733-0.6474-0.22957-0.13773-0.50047-0.18365-0.74382-0.0918"/>
   <path d="m78.868 202.26c1.1984 0 1.2627 2.2177 1.1984 3.7742-0.03256 0.92289-0.27548 3.5125-1.3132 3.4666-0.94126-0.046-1.3912-1.8779-1.2948-3.6778 0.09177-1.7815 0.51883-3.563 1.4096-3.563"/>
   <path d="m42.146 195.75c0.67953 0.0326 0.84023 1.5382 0.77596 2.8513-0.04596 1.5703-0.41324 2.6585-1.0193 2.6263-0.79432-0.0326-0.82646-2.1075-0.80809-2.7687 0.04596-1.0836 0.41323-2.7365 1.0514-2.7044"/>
   <path d="m132.26 269.71c-5.9611-14.432-21.527-29.626-34.89-34.161-5.5878-1.8779-5.6691 0.0918-0.32141 1.7999 11.97 3.8247 26.176 18.044 32.396 30.598-9.6375-5.0699-23.389-14.416-28.006-20.312-2.5253-3.2232-4.0313-3.3196-1.9606-0.0918 0.36731 0.58312 0.87697 1.1984 1.4234 1.8458 0.87239 3.2232 3.4161 13.412 4.8105 21.073-5.3775-5.6044-11.29-16.554-15.145-24.572-1.9743-4.6002-3.2875-4.5823-1.5886-0.046 3.6135 9.654 11.678 22.855 17.461 27.585 1.8779 1.5381 1.4739 0 1.3453-0.77596-1.0055-6.3496-3.1911-15.582-4.518-20.765 6.9648 6.625 19.259 14.902 27.569 18.644 1.3453 0.61526 1.9284 0.45915 1.4096-0.79431"/>
  </g>
 </g>
</svg>
