<?xml version="1.0" encoding="UTF-8"?>
<svg version="1.1" viewBox="0 0 181.15 247.05" xmlns="http://www.w3.org/2000/svg">
 <g transform="translate(.12225 .032323)">
  <path d="m124.65 187.75 2.2 2.2q-0.7 5.9-8.2 12.15-3.7 3.1-7.3 5.05-1.55 12.5-11.55 19.5-5.05 3.45-9.75 4.45 0 6.5-2.65 11.3-1.3 2.35-2.65 3.45-10.35-2.25-17.35-12.95-2.2-3.4-3.8-7.15l-1.15-3.15 9.65-14.7 45.5-23.6q4 1.05 7.05 3.45" fill="#00568a"/>
  <path d="m8.7 196.35q-5-2.35-6.75-5.55-1.35-2.5-0.25-4.35 1.3-2.15 5.35-1.75 2.2 0.2 6.25 2.45 2.05 1.1 3.6 2.15 6.8-0.2 28.85-7.7 11.05-3.75 20.7-7.45l-2.55 5.8q-8.25 4.35-26.8 11.25-16.95 6.3-20.55 6.9-3.05 0.55-7.85-1.75" fill="#f9dbe8"/>
  <path d="m45.85 197.7q2.4-5.45 8.05-6.5 2.8-0.5 5.15 0.05l7.4-18.1 30.55-0.2 9.25 3.6q2.4-2.75 7-1.55 4.7 1.25 5.1 5.3 0.45 4.7-2.65 8.4-1.55 1.85-3.2 2.75 1.35 2.05 0.85 6.8-0.6 5-2.95 6.6-4.7 3.3-9.6 3.15l-3.95-0.85q0.45 2.85-1.35 6.5-2.35 4.7-7.35 6.5-4.15 1.45-8.35-0.7-4.5-2.25-6.75-7.6 0.6 1.9-1.9 5.85-3.15 4.9-8.7 4.9-6.05 0-9.05-3.75-3.05-3.85-1.5-9.65-3.95-1.15-5.65-5.45-1.45-3.7-0.4-6.05" fill="#f9dbe8"/>
  <path d="m80.15 190.7q2.65 2.9 2.55 7.35-0.1 3.4-2.9 5.8-2.7 2.4-6.35 2.45-3.7 0.1-6.2-2.3-2.55-2.45-2.8-6.25-0.3-3.85 2.1-6.7 2.45-2.95 6.45-3.15 4.4-0.2 7.15 2.8" fill="#ee848c"/>
  <path d="m47.65 181.05 18.65-7-2.5 6.35-5.5 2.4q-2.35-2.05-6.75-2.1l-3.9 0.35" fill="#d7beca"/>
  <path d="m65.75 202.25q6.2 1.7 10.75-0.75 4.45-2.4 5.8-7.7l0.4 4.45q-0.4 4.85-4.25 6.8-3.15 1.6-6.65 1-3.85-0.65-6.05-3.8" fill="#ce737b"/>
  <g fill="#d7beca">
   <path d="m27.6 194.85q-9.35 3.55-13.45 3.25-5.55-0.35-9.35-4.15-1.25-1.25-1.3-2.55-0.05-1.2 1.1-1.75 2.9-1.3 8.9 3.15 2.7 2 10.4 0.95l12.25-2.5q-3.85 1.85-8.55 3.6"/>
   <path d="m66.4 173.1q4.65 1.1 13.55 1.3l16.2-0.95 10.5 2.7q1.4-1.8 4.9-1.65 3.7 0.15 5.1 2.8 2.95 5.6-0.2 10.4-1.6 2.4-3.8 3.7 1.1 1.65 0.9 5.7-0.2 4.75-2.55 7.1-3.75 3.8-9.3 3.95l-4.8-0.6q-0.1 4.85-2.8 8.4-2.55 3.3-6.35 4.35-3.85 1.05-7.35-0.7-3.9-1.95-6.05-6.7 1.95 1.8 4.95 1.9 3.05 0.05 6.05-1.55 7.15-4 8-13.8 3.75 1.75 7.2 1.1 3.5-0.65 4.8-3.4 1.75-3.55-0.6-6.8-2.25-3.1-5.25-2.4-7.6-7.2-20.1-9.2-10.1-1.6-15.8 0.45l2.8-6.1"/>
   <path d="m73.15 211.65q-0.65 5.25-3.25 8.05-3.75 4-11.1 2.55-5.4-1.05-7.1-5.95-1.25-3.8-0.1-7.15-1.55-0.7-3.1-2.2-3.05-3-2.95-7.05l2.35 2.55q3.15 2.25 7 0.85-1.65 4-0.25 7.4 1.25 3.15 4.5 4.75 3.3 1.55 7 0.7 4-0.9 7-4.5"/>
  </g>
  <g fill="#00426f">
   <path d="m80.35 219.3q-4.55 2.7-7.25 6.6-3.1 4.4-3.3 9.6-4.55-3.9-7.2-13.2 2.05 0.1 4.4-1.15 4.7-2.45 6.3-9 1.45 2.9 2.75 4.4 1.85 2.1 4.3 2.75"/>
   <path d="m90.2 230.5q0.1 5-1.95 10.55-1.05 2.75-2.1 4.5-0.7-6.3-4.25-11.45l-1.35-2.1q-0.1-0.55 1.45-0.5 5.6 0.2 8.2-1"/>
   <path d="m119.7 194.8q4.65-2 7.15-4.9l-0.65 1.95q-0.9 2.4-2.35 4.65-4.55 7.3-12.4 10.75l-0.1 1.85q-0.25 2.35-1.05 4.7-2.55 7.55-9.5 12.4 1.55-2.4 2.7-5.95 2.35-7.05 0.4-12.65 4.65-0.35 7.2-3.65 2.4-3.05 2.5-7.85 1.9 0.5 6.1-1.3"/>
  </g>
  <g fill="#0d131a">
   <path d="m63.6 197.3q0-4.3 2.8-7.25 2.75-2.95 6.7-2.95 4.4 0.1 7.4 2.9 3.05 2.85 3.05 7.2 0 4.4-2.95 7.25-2.8 2.65-6.65 2.65-4.55 0-7.5-2.85-2.85-2.8-2.85-6.95m16.1-6.15q-2.45-2.8-6.65-2.85-3.3-0.05-5.65 2.6-2.4 2.6-2.4 6.45 0 3.6 2.5 6 2.45 2.4 6.15 2.4 3.4 0 5.8-2.45 2.5-2.55 2.5-6.1t-2.25-6.05"/>
   <path d="m18.55 190.25q-1.7 0.35-2.55-0.3-5.05-3.8-8.75-4.2-2.8-0.3-4.05 1.3-1.95 2.55 2.65 6.45 4.75 4.05 10.3 3.5 5.05-0.5 25.15-8.15 19.8-7.6 21.75-9.55 0.25-0.25 0.75 0.45t0.15 0.9q-11.8 6.05-28.2 12.2-14.6 5.45-19.1 6.1-6.25 0.9-12.55-4.25-6.35-5.3-3.15-9.35 1.75-2.25 5.9-1.7 4.65 0.65 10.5 4.75 8.4-0.95 26.6-6.95 17.1-5.7 22.25-8.7 0.4-0.2 0.85 0.5 0.5 0.7 0.1 0.9-6.45 3.8-23.85 9.35-15.5 4.9-24.75 6.75"/>
   <path d="m66.15 172.85q0.25-0.35 1.1 0.15 0.85 0.55 0.6 0.9-3.05 4.9-5.85 11.95-2.9 7.35-4.2 13.7-0.35 1.85-0.9 1.75-0.5-0.15-0.3-2.05 0.95-6.8 3.95-14.7 2.65-6.95 5.6-11.7"/>
   <path d="m45.3 197.05q1.6-4.35 6.6-6.15 4.05-1.45 7.5-0.7 0.4 0.1 0.15 0.85-0.3 0.8-0.75 0.75-4.45-0.35-7.4 1.15-3 1.5-4 4.6-1.55 4.65 1.1 8.1 1.85 2.4 3.55 2.7 0.4 0.1 0.25 0.95t-0.55 0.7q-4.15-1.5-6.05-5.2-1.85-3.75-0.4-7.75"/>
   <path d="m96.1 207.05q0.3-2.55 0.8-2.6t0.55 2.55q0.1 6.35-3.15 10.3-2.8 3.35-7.15 4.15-4.4 0.8-8.5-1.55-3.85-2.2-5.15-5.65-1 5-5.3 7.65-4.4 2.65-9.85 1.3-4.75-1.2-6.85-5.3-2.25-4.3-0.25-9.35 1-2.6 1.45-2.55 0.4 0.1-0.1 2.65-0.9 4.75 0.7 8.1 1.7 3.45 5.65 4.35 5 1.2 8.75-1.4 3.8-2.6 4.45-7.75 0.25-2.05 0.65-2.05 0.4-0.05 1.25 1.8 2.15 4.8 6 6.75 3.15 1.65 6.4 1 8.4-1.7 9.65-12.4"/>
   <path d="m112.5 189.85q1.85 3.35 1.85 7.4-0.05 4.75-2.9 7.8-3.1 3.3-8.8 3.75l-6.1-0.45q-0.4-0.2-0.15-1 0.25-0.85 0.65-0.75 3.45 0.95 7.3 0.15 3.8-0.8 5.7-2.9 1.95-2.15 2.4-5.4 0.5-3.6-1-7.6-1-2.7-0.6-2.95t1.65 1.95"/>
   <path d="m113.05 174.1q3.7 0.95 5.55 4.45 1.3 2.45 0.4 5.9-1.15 4.55-6 8.1-0.35 0.25-0.55-0.55-0.2-0.85 0.15-1.1 3.15-2.8 4.2-6.25 0.85-2.85 0.1-4.85-0.8-2.15-3.25-3.5-3.3-1.8-6.95 0.55-1.05 0.65-1.4 0.15-0.4-0.55 0.6-1.3 3.25-2.6 7.15-1.6"/>
   <path d="m117.7 185.3q0.55-0.8 0.7-1.85 4.25 1.45 6.8 3.2 2.8 2 2.75 3.8-0.15 3.9-5.1 9.3-5.2 5.7-11.65 8.25-2.45 0.95-2.5 0.3t2.5-2.15q6.6-3.9 10.5-8.4 3.55-4.1 3.65-7.2-0.25-1.2-2.4-2.65-2.05-1.35-5.25-2.6"/>
   <path d="m110.65 207.2q0.1-0.4 1-0.65 0.95-0.2 0.9 0.2-1.4 10.7-8.5 17.8-6.5 6.45-15.2 7.65l-2.75-0.15q-0.15-0.5 2.45-1.2 8.75-2.3 14.35-8.2 5.75-6.05 7.75-15.45"/>
   <path d="m84.6 244.35q1.25-0.25 2.7-4.65 1.5-4.4 1.5-7.95 0-0.6 1.2-0.9 1.15-0.3 1.15 0.4 0.05 5-2.05 10.3-2.1 5.25-4.15 5.45-3.6 0.35-11.65-6.35-9.55-8-12.1-17.9-0.1-0.4 1.15-0.55 1.3-0.15 1.4 0.25 2.15 8.4 10.45 15.9 7.35 6.7 10.4 6"/>
  </g>
  <path d="m169.1 174.7q4.85-2.4 8.6-0.8 4.3 1.85 0.45 8.5-3.75 6.5-9.7 9.65-4.4 2.35-7.8 2.15-9.5-0.6-38.1-7.65-28.9-7.1-39.1-11.45 6.7-0.6 13.2-2.15 9.95 4.05 36.1 8.45l24.15 3.55q4.6-6.5 12.2-10.25" fill="#f9dbe8"/>
  <path d="m81.45 175.05 15-1.5 42.4 8.75q-6.6-1.2-10.45-0.05-3.05 0.9-6.25 4.05l-40.7-11.25" fill="#d7beca"/>
  <path d="m167.9 193.2q-3.5 2-15.35 0-9.3-1.6-11.95-2.7l13.05 0.6q9.55-0.25 12-3.65 2.5-3.55 5.9-5.3 3.2-1.7 4.8-0.7 2.65 1.65-1.1 5.85-3.05 3.45-7.35 5.9" fill="#d7beca"/>
  <path d="m167.4 174.3q6.3-3.3 10.55-1.35 3.4 1.55 3.05 5.45-0.35 3.6-3.55 7.7-3.25 4.1-7.7 6.65-4.9 2.8-9.35 2.5-6.5-0.5-33.8-6.95-28.4-6.75-35.5-9.85-1.55-0.7-1.3-1.25 0.2-0.55 1.8 0 7.85 2.95 35.75 9.4 28.35 6.5 33.95 6.5 7.55 0 13.65-8.1 2.45-3.25 3.05-6.1 0.65-2.95-1.1-3.85-3.4-1.7-9.5 1.9-5.1 3.05-8.75 7.4-0.95 1.15-1.95 1.1-7.2-0.1-29.8-4.35-22.1-4.1-31.2-6.9-0.4-0.1 0.45-0.8t1.25-0.6q9.65 2.9 29.95 6.6 20.9 3.85 29.25 4.05 4.95-6.05 10.8-9.15" fill="#0d131a"/>
  <path d="m125.25 29.35q-5.1-4.4-5.2-10.4-0.15-7.8 4.25-12.7 4.4-4.95 11.7-5.2 7.65-0.25 12.3 6.35 4 5.6 3.45 11.35-0.5 5.7-4.2 10-4.5 5.25-11.75 5-5.75-0.25-10.55-4.4" fill="#fff"/>
  <path d="m137.2 33.75 6.2-1.8q8.35 13.65 11.15 27.2 2.05 9.85 0.8 12.65-1.3 3.05-9.15 6.1l-7.65 2.5q6.75 14.8 6.05 23.55-0.7 8.45-8.15 7.9 6.15 8 8.8 13.55 4.15 8.65 4.15 18.3 0 11.1-5.75 18.15-6 7.4-16.15 7.65-9.85 0.3-16-7.85-5.9-7.85-5.75-19.65 0.15-8.3 5.05-17.05 2.45-4.4 4.9-7.1-17.65-11.6-40.65-14.15l-14.05-0.6-5.4 0.35q-5.5 1.6-12.25 8.05-8.35 7.95-10.75 17.2-2.2 8.65-0.45 16.95 0.9 4.2 2.25 6.6-5.95-1.8-10.75-7.55-6.35-7.6-5.4-17.65 1.4-14.55 16.5-23.2 7.55-4.3 14.85-5.75-2.55-19.65 14.7-24.8 14.05-4.2 35.7 1.75-1.05-9.8 0-16.4 1.5-8.95 6.9-13.1 5.8-4.45 18.5 2.95 6.4 3.7 11.6 8.25l0.2-23" fill="#00568a"/>
  <path d="m44.3 110.55q5.35-5 11.25-7.05 22.05-1.8 43.35 5.9 10.65 3.85 16.9 8.05-11.3 14.9-10.05 28.7 0.95 11.15 9.8 20.2-9.3 5.6-21.45 7.65-11.85 2-23.65 0.15-12.1-1.9-21.25-7.45-9.85-6-14.45-15.15-7-13.95 0.8-29.4 3.35-6.6 8.75-11.6" fill="#f9dbe8"/>
  <path d="m122.25 25.85q7.05 3.7 16.6 0.35 10.2-3.6 12.7-12.55 0.6 3.7-0.3 7.9-1.75 8.4-9.15 11-7.7 2.7-13.75-0.6-4.25-2.3-6.1-6.1" fill="#dbdcdc"/>
  <g fill="#00426f">
   <path d="m137.1 33.6q2.7 0.1 4.7-0.9l1.5-1.05q3.75 5.4 7.6 15.1 3.65 9.3 3.9 13.2-3.85-9.25-8.2-13.05-4.1-3.65-9.15-2.9l-0.35-10.4"/>
   <path d="m154.7 57.2 1.85 12.75q-1.95 4.35-8 7.05l-10.75 3.7-3.85-7.85q-0.5-1.15 2.65-0.35 5.45 1.5 10.85-1.8 6.7-4.05 7.25-13.5"/>
   <path d="m138.25 111.9-1.75 0.1q4.4 4.7 7.6 10.9 1.65 3.05 2.35 5.2-4.6-6.5-9.85-11.85-4.25-4.4-7.15-6.3-3-1.95-2.95-2.25 0.1-0.5 4.7-0.9 5.95-0.45 8.75-3.35 2.8-2.95 3.6-9.65 2.9 12.2-1.8 16.45-1.45 1.3-3.5 1.65"/>
   <path d="m106.85 152.05q10.85 7.4 24.65 2.5 14.1-5.05 17.75-18.7 1.45 9.9-1.45 18.4-4.05 12-15.95 15.05-8.15 2.1-15.65-3-7.55-5.1-9.35-14.25"/>
   <path d="m40.55 115.1q-13.55 16.4-6.2 36.75-4.85-1.4-9.25-5.85-8.7-8.85-6.15-24 1 5.45 4.2 5.6 2.75 0.1 5.2-3.3 5.3-7.4 11.6-12.5 6.9-5.65 15.65-9.05l-5 3.1q-5.8 4.1-10.05 9.25"/>
  </g>
  <path d="m74 193.9q0 1.15-0.8 2-0.85 0.8-2 0.8t-2-0.8q-0.8-0.85-0.8-2t0.8-2q0.85-0.8 2-0.8t2 0.8q0.8 0.85 0.8 2" fill="#f6c6c5"/>
  <path d="m52 81.95q-0.8 4.3 0.65 7.45 1.55 3.35 5.5 4.85 3.15 1.2 1.8 2.05-1.55 0.95-10.05 2.55-0.4-2.9-0.35-6.45 0.1-7.1 2.45-10.45" fill="#00426f"/>
  <path d="m80.15 175.7q-19.65-0.55-34.5-11.65 16.7 6.55 34.25 4.25 19.2-2.5 27.25-14.7 1.95 6.1 5.5 10.05 1.8 2 3.2 2.75-16.35 9.8-35.7 9.3" fill="#d7beca"/>
  <path d="m75.65 145.75q-0.65 3-4.95 4.55-4.9 1.75-11.2-0.2-10.45-3.3-8.75-10.75 0.85-3.65 5.15-5.3 4.05-1.5 8.95-0.5 6.45 1.35 9.3 5.7 2.25 3.4 1.5 6.5" fill="#ee848c"/>
  <path d="m64.65 139.65c-0.13333 0.7-0.84477 1.2758-1.5 1.6-0.88588 0.43835-1.9746 0.46005-2.95 0.3-0.99363-0.16305-2.05-0.61667-2.75-1.25-0.7-0.6-0.98333-1.2667-0.85-2 0.13333-0.7 0.84207-1.2813 1.5-1.6 0.88814-0.43022 1.9768-0.41388 2.95-0.25 0.97121 0.16356 2 0.56667 2.7 1.2s1 1.3 0.9 2" fill="#f6c6c5"/>
  <path d="m50.95 143.15q6.65 4.8 14.9 3.95 4.8-0.45 6.4-4 1.5-3.3-0.55-6.55 5.6 3.95 3.55 9.05-2 5.05-8.95 5.45-6.2 0.3-11.1-2.75-4.25-2.7-4.25-5.15" fill="#ce737b"/>
  <g fill="#0d131a">
   <path d="m55.75 104.4q-8.5 3.4-14.5 10.75-6.1 7.45-7.9 17.1-2.95 15.55 8.65 27.35 10.45 10.5 27.2 13.5 3.95 0.7 3.7 1.35-0.2 0.65-4.45 0-15.9-2.3-27.2-12.95-13.35-12.55-10.15-29.55 2-10.8 10.25-19.7 7.25-7.8 13.9-9.25 10.85-2.4 30.25 1.65 20.4 4.25 30.8 12.05l-1.5 1.8q-9.6-7.2-28.25-11.6-18.35-4.3-30.8-2.5"/>
   <path d="m117.05 167q-5.65 4.1-16.85 6.75-10.25 2.4-17 1.95-3.4-0.2-3.35-0.75 0.05-0.5 3.15-0.6 7.7-0.15 16.45-2.5 10-2.6 15.65-6.75l0.8 1.1 1.15 0.8"/>
   <path d="m100.25 74.3q0.4 0.1 0.2 1.1-0.25 0.95-0.65 0.85-27.8-6.65-40.3 0.7-10.45 6.15-8.65 20.9 0.05 0.4-0.95 0.6-0.95 0.15-1.05-0.25-2.75-15.6 7.75-22.6 12.95-8.65 43.65-1.3"/>
   <path d="m50.8 97.25 3.8 0.15q0.15 0.6-3.6 1.4-13.25 2.7-21.45 9.75-7.4 6.4-9.25 15.05-1.8 8.2 1.9 15.75 3.85 7.8 12.15 12.05 0.4 0.2 0.55 1.25 0.15 1.1-0.25 0.95-10.35-3.85-14.9-12.55-4.3-8.2-2.05-17.7 2.25-9.7 10.45-16.6 9-7.65 22.65-9.5"/>
   <path d="m147.1 4.15q5.85 5.05 6 13.05 0.15 7.5-4.9 12.65-5 5.1-12 4.85-7.55-0.25-12.7-5.45-4.75-4.8-4.85-10.85-0.1-7.6 4.6-12.75 4.7-5.1 12.1-5.65 6.4-0.4 11.75 4.15m3.25 13.5q-0.05-6.85-4.7-11.3-4.45-4.3-10.3-4-6.2 0.35-10.1 4.75-4.05 4.55-3.8 11.65 0.2 5.7 4.85 9.8 4.4 3.9 9.9 3.95 6.05 0.05 10.3-4.85 3.9-4.55 3.85-10"/>
   <path d="m136.2 34q0-0.4 1.1-0.6t1.1 0.2l-0.05 24q0 1.5-0.35 1.65-0.4 0.2-1.55-0.9-16.7-15.8-26.75-12.45-11.15 3.65-8.45 30.4 0.4 3.9-0.45 3.8t-1.4-3.8q-3.7-23.75 5.65-31.1 10.1-8 30.55 9.35l0.6-20.55"/>
   <path d="m137.5 80.5q-1.65-4.1-0.9-4.3 0.7-0.2 2.7 3.6 6.15 11.55 6.65 21.3 0.6 11.3-7.75 11.45 8.15 9.75 11.05 20.7 2.7 10.1 0.5 19.05-2.2 8.75-8.35 13.75-6.5 5.25-15.45 4.75-8.25-0.45-13.95-6.5-5.4-5.7-6.85-14.65-1.55-9.1 1.55-18.3 3.35-10 11.35-17.4 2.4-2.2 2.75-1.7 0.35 0.45-1.85 2.95-7.45 8.55-10.25 18.3-2.5 8.75-0.85 16.85 1.6 7.7 6.45 12.6 4.9 5 11.55 5.4 8.3 0.5 14.15-4.7 5.55-4.95 7.3-13.5 1.75-8.8-1.1-18.45-3.15-10.5-11.1-19.4-0.85-0.95-0.75-1.3 0.1-0.45 1.6-0.4 14 0.8 1.55-30.1"/>
   <path d="m142 32.45q-0.25-0.3 0.65-0.9 0.9-0.65 1.1-0.3 6.1 7.85 10.15 20.45 3.7 11.7 3.15 18.85-0.3 3.75-6.35 6.95-5.45 2.95-11.9 3.8-0.4 0.1-0.65-0.9-0.2-1 0.2-1.1 6.15-1.3 10.9-3.95 4.9-2.75 5-5.3 0.35-8.3-3.55-20-3.8-11.3-8.7-17.6"/>
   <path d="m51.25 145.4c-1.4667-2.2-1.8667-4.45-1.2-6.75 0.63333-2.1667 2.2-3.8333 4.7-5 2.8-1.3333 6.05-1.65 9.75-0.95 4.2333 0.76667 7.5167 2.45 9.85 5.05 2.1667 2.4667 2.9333 5.05 2.3 7.75-0.63333 2.6-2.4833 4.4667-5.55 5.6-3.4333 1.2667-7.3833 1.1833-11.85-0.25-3.7-1.1667-6.3667-2.9833-8-5.45m0.3-5.8c-0.5 2.0333 0.03333 3.9667 1.6 5.8 1.5333 1.8333 4.0774 3.1822 6.5 3.9 3.1341 0.92863 6.7375 1.4926 9.8 0.35 2.1766-0.81205 4.6333-2.45 5.1-4.75 0.46667-2.2333-0.26667-4.3667-2.2-6.4-2-2.1333-4.7333-3.5167-8.2-4.15-3-0.56667-5.7-0.36667-8.1 0.6-2.5 0.96667-4 2.5167-4.5 4.65"/>
   <path d="m46.9 125.65q1.65 0.35 2.2 2.85 0.6 2.4-0.2 5.55-0.8 3.2-2.4 4.6-1.35 1.2-2.85 0.8-1.6-0.45-2.3-2.65-0.8-2.35-0.05-5.25 0.8-3.35 2.65-4.9 1.45-1.3 2.95-1"/>
   <path d="m94.3 134.55q2.2 0.4 3.25 2.85 1.15 2.6 0.3 6.25-0.8 3.4-3 4.95-1.9 1.35-3.85 0.75-2.1-0.6-3.1-2.6-1.1-2.3-0.45-5.65 0.75-3.6 2.85-5.35 1.9-1.6 4-1.2"/>
  </g>
  <path d="m45.85 129.9q0.55 0.1 0.8 1 0.3 0.95 0.05 2.15-0.7 2.85-2.05 2.35-0.5-0.15-0.7-1.05-0.25-0.9-0.05-1.9 0.3-1.35 0.9-2 0.5-0.65 1.05-0.55" fill="#fff"/>
  <path d="m93.55 138.65q0.8 0.2 1.05 1.2 0.3 1.05-0.1 2.45-0.7 2.95-2.5 2.6-0.8-0.2-1.1-1.15t0-2.25q0.7-3.25 2.65-2.85" fill="#fff"/>
  <path d="m73.4 160.8c-2.9333 1.2333-6.1667 1.4667-9.7 0.7-2.7333-0.56667-5.0667-1.8167-7-3.75-1.7667-1.7333-2.9167-3.7167-3.45-5.95-0.23333-0.9-0.23333-1.4 0-1.5 0.26667-0.0667 0.61667 0.31667 1.05 1.15 2.3667 4.5 5.8338 6.6726 9.85 8 2.5344 0.83762 8-0.35 8-0.35 2.4333-0.8 4.6-2.1833 6.5-4.15 0.8-0.83333 1.3-1.15 1.5-0.95 0.16667 0.16667-0.05 0.73333-0.65 1.7-1.4667 2.3333-3.5 4.0333-6.1 5.1" fill="#0d131a"/>
 </g>
</svg>
