<?xml version="1.0" encoding="UTF-8"?>
<!-- Created with Inkscape (http://www.inkscape.org/) -->
<svg version="1.1" viewBox="0 0 336.17 328.53" xmlns="http://www.w3.org/2000/svg">
 <path d="m122.97 104.66c-1.9364 3.2592-6.2593 14.25-6.0411 15.505 0.21819 1.2546 1.2819 2.591 2.1546 3.5047 1.2546-0.7773 4.1729-3.0683 5.1411-4.1047 0.12274-5.1002-0.60002-11.278-1.2546-14.905" fill="#393d59"/>
 <path d="m119.76 122.94c-1.841-1.6364-2.0319-2.5092-1.991-2.891 0.31365-2.441 3.4637-10.746 5.3729-13.841l-0.50456-2.441c-2.1273 3.3546-6.2456 13.541-6.5866 16.214-0.12273 0.96821 0.68184 2.6592 2.3319 4.1319z" fill="#0f141b"/>
 <g fill="#4b5170">
  <path d="m162.31 38.177c2.891-5.0865-7.3911-20.046-18.914-27.437-12.014-7.7048-32.578-13.255-36.71-8.0184-2.7546 3.5183 9.5321 21.301 22.555 28.065 9.2048 4.7865 30.437 12.028 33.069 7.3911"/>
  <path d="m136.63 34.043c-5.8911-2.5092-12.655-5.632-17.919-11.019-15.273 0.62729-51.956 11.032-54.861 15.778-1.3773 2.2501 1.6364 11.646 5.1411 18.287-4.2683 0.12273-9.2048 1.391-9.5185 3.0137-0.50456 2.4955 4.0092 11.523 14.905 19.542 9.7639 7.1866 20.032 7.3911 24.423 7.132 0.99548 2.0046 2.8092 3.5456 5.632 1.1319 4.2683-3.6274 13.159-15.914 12.273-29.81 6.9002 2.8774 10.159 5.7547 14.291 10.391 4.1319 4.6365 9.0139 10.269 14.155 16.541-1.6364 0.87275-3.3819 2.0046-3.7638 4.3774-0.36819 2.3864-1.2546 12.532-2.0046 14.278-0.75002 1.7591-18.914 20.046-22.296 21.301-3.3819 1.2546-40.079-11.523-52.611-17.66l1.8819 2.7546c-3.6274-0.75002-9.273-1.7591-11.905-2.0046-1.5 0.99548-4.7592 6.2593-4.0092 11.523l2.5092 0.99548c-44.633 49.761-60.534 125.74-48.233 162.66 0.94094 2.8228 2.4273 2.6183 4.1456-1.5 6.5729-15.791 14.646-32.633 24.601-49.174 23.483-39.001 57.234-76.748 81.18-92.307 2.8228 0.99549 8.8366 2.7546 9.8321 1.7455 0.99549-0.99548 1.2546-4.882 1.5-6.6411 0.2591-1.7455 0.91366-3.7228 3.0137-5.5093 7.6366-6.5184 22.76-18.573 28.555-19.91 3.2592-0.76366 9.6412 0.12273 11.646 0.36819 1.3773 1.5 2.8774 4.1319 3.0137 5.1411 0.12273 0.99548-2.6864 19.637-4.882 28.187-1.1319 4.3774-1.2546 10.009 3.2456 16.651l-10.637 37.828c-4.7729 2.0046-17.046 13.528-22.433 20.046-2.0046-1.3773-6.5047-6.0138-7.8821-7.6366 7.132 22.923 38.715 48.588 69.52 49.72 37.201 1.3773 80.034-18.41 97.571-59.375 8.523 3.2592 26.933 7.1457 28.065 5.2638 1.1318-1.8819-19.037-21.164-21.546-26.183 1.3773-7.5139 0.91366-25.269-2.7546-25.801-0.87276-0.12273-3.7638 7.3911-4.6365 10.528-3.3819-13.037-10.896-37.706-13.405-37.706s-4.0092 33.942-0.6273 58.625c-12.15 11.523-23.81 18.055-38.701 18.791-7.6502 0.3682-21.805-3.641-28.937-13.664-0.38183-5.7547-1.5955-10.746-4.6365-14.905-3.7638-5.1274-6.1366-8.1412-10.773-13.146-2.6319-9.0276-3.641-15.9-3.8865-20.169-1.391-25.037-8.8912-55.584-14.796-61.038-3.9001-3.6001-15.6-9.1912-19.378-11.373-3.791-2.1819-22.842-20.032-27.546-24.164-0.46365-3.4774 0.55911-8.673 3.4774-11.905"/>
  <path d="m170.08 74.692c18.041-4.3229 43.406-10.896 59.184-12.219 15.791-1.3091 76.121-0.01364 103.53 12.778 3.7638 1.7591 2.0864 2.891-1.2546 4.1319-24.914 9.273-85.612 32.292-110.16 47.92-2.0728 1.3091-4.7047 1.5682-6.832 0.68184-5.1411-2.1273-14.537-3.5046-21.164-3.1228-1.8819-11.155-8.3321-39.56-13.31-43.379-2.2228-1.7182-5.8638-4.3501-9.9958-6.7911"/>
  <path d="m139.76 151.04c-4.3774 0.87275-17.032 2.6319-20.292 3.0001-2.5092 1.3773-5.2638 3.3819-5.7684 4.2683-0.49092 0.87275-1.3773 4.882-0.87275 6.5047 0.50456 1.6364 2.2501 4.391 3.0137 4.5138 0.75002 0.12273 1.5 0.12273 2.3728-0.12273l1.5955 4.5138c3.0137-1.8819 10.432-5.5502 13.719-6.9548 1.5-3.9547 4.2956-11.346 6.232-15.723"/>
  <path d="m133.53 166.76c-17.687 7.582-53.443 28.501-62.906 56.306-2.0046 5.8911 3.2456 11.523 7.3775 13.65 4.1456 2.1273 5.5229 6.3956 3.641 12.655-1.8819 6.2593-8.2639 22.296-13.65 27.683-1.7591 1.7592-12.532 7.8957-14.537 10.268l-2.1273 12.15 19.501 9.573c4.5138-1.1319 15.696-4.9365 16.569-6.3138 0.88639-1.3773 6.3957-13.65 8.9048-17.032 1.6228-10.65 6.0411-31.678 7.8821-36.71 0.88639-2.3728 0-3.7501-0.99548-4.7592-1.0091-0.99549-3.1365-3.6274-3.641-7.0093 8.1412-6.2593 23.428-13.528 39.342-9.6412-6.0138-7.5139-10.528-16.541-11.032-27.055-0.49093-10.528 1.8273-24.314 5.6729-33.765"/>
 </g>
 <path d="m110.5 55.987c-7.8412 2.1819-14.114 8.6321-14.496 17.823-0.19092 4.7592 1.3091 14.278 5.4138 15.287 4.8683 1.1864 16.378-16.923 15.587-30.969-1.7864-0.65457-4.1729-1.4455-6.5047-2.141" fill="#ed8599"/>
 <path d="m109.16 55.581c-5.0047 2.6455-12.219 8.0593-13.009 16.664-0.34092 3.791-0.34092 7.8957 1.8137 12.409l-1.3091-0.24546c-2.7683-3.5592-7.6093-16.064-8.4548-17.182-0.84548-1.1319-2.9592-2.8228-4.882-3.6274 2.8637-3.1365 7.282-8.973 9.0139-9.3821 3.5728-0.84548 11.578 0.43638 16.828 1.3637" fill="#922f00"/>
 <g fill="#fff">
  <path d="m95.729 53.772c0.62729 2.2501 2.7546 6.2047 3.6274 6.3275 0.88639 0.12273 3.6956-3.3819 4.391-5.3183-1.5-0.31365-5.5774-0.94094-8.0184-1.0091"/>
  <path d="m104.31 54.899c0.62729 2.7001 2.2501 6.0138 3.0683 6.2593 0.81821 0.2591 4.0092-3.1228 4.6365-4.4456-1.5137-0.72275-5.2638-1.5-7.7048-1.8137"/>
  <path d="m116.77 63.293c-1.5-0.19092-6.0138-0.12273-6.3275 0.62729s2.9455 5.3865 4.391 6.8866c0.75002-2.1955 1.691-5.8911 1.9364-7.5139"/>
  <path d="m112.2 77.95c-1.3091-1.5682-4.7592-6.832-4.5138-7.5821 0.2591-0.75002 5.2093 0.12273 7.2139 0.69548-0.38183 1.1864-1.5682 4.6911-2.7001 6.8866"/>
  <path d="m107.76 84.714c-1.5-2.0046-4.8274-7.0775-4.2547-7.8957 0.55911-0.80457 6.9411 0.69548 8.4548 1.3773-0.75002 1.4455-2.6319 4.4456-4.2001 6.5184"/>
  <path d="m137.8 105.8c-2.2773-1.8001-9.723-5.8229-11.1-5.0592-0.99549 0.55911 2.1955 9.3412 3.5592 12.75 1.8955-1.6091 6.082-5.8638 7.5411-7.6911"/>
  <path d="m128.42 115.22c-2.1273-1.541-9.9685-6.7093-10.923-6.1911-0.94094 0.5182 2.4955 9.6003 3.6683 12.969 1.8682-1.541 5.5638-4.9774 7.2548-6.7775"/>
  <path d="m66.354 110.08c-4.5138-6.3411-9.2457-8.5366-11.728-8.9866-12.573-2.2773-26.96-3.0819-48.465 11.469-2.5092 1.691-1.8546 3.3546 2.7137 2.7274 8.6866-1.1728 29.21-0.5182 41.565 4.0501-0.15-3.8319 1.2682-9.2048 4.0092-11.264 2.6864 0.30001 7.8957 1.2137 11.905 2.0046"/>
  <path d="m119.65 154.04c-3.4228 0.34092-8.1821 0.45001-10.214 1.4591-8.5912 4.2683-19.692 11.55-24.86 23.292-0.61366 1.4046-0.5182 2.3319 1.5137 1.0091 8.3594-5.4411 19.705-9.7639 28.896-11.223-1.1728-1.4046-2.1273-2.9183-2.1273-4.0365 0-1.1319 0-5.6184 0.79093-6.4093 0.7773-0.7773 4.2547-3.1365 6.0002-4.091"/>
  <path d="m55.044 294.32c0.38183-2.4955-0.30001-6.5729-1.4319-6.9411-2.1273-0.68184-22.842 4.3229-23.073 6.1229-0.19092 1.4455 13.119 3.1365 16.132 3.5047-3.5728 1.2546-11.264 4.882-11.141 5.9456 0.13637 1.0637 13.569 1.691 19.446 1.1182-3.4365 1.5682-11.291 5.7684-11.128 6.7638 0.2591 1.5 22.869 0.95457 26.578-1.691 0.87275-0.62729 0.36819-8.9321-2.0592-9.6958-1.1864-0.36819-4.8138 1.0637-6.382 1.8819 0-2.1955-0.99549-7.6366-1.9364-7.7593s-3.3137 0.19091-5.0047 0.75002"/>
 </g>
 <path d="m145.15 85.026c-4.2547-5.2638-19.364-22.214-21.164-23.551-1.4455-1.0637-3.8183-2.3183-6.982-3.3546 0.15 8.1821-3.4228 23.837-14.25 30.601 3.3137-0.31365 7.6366-2.3183 10.323-4.2001 6.9548 0.69548 10.459 19.801 10.909 27.628 0.9273 0.55911 3.8728 2.4955 4.5683 2.9455l1.7046-1.6091c-1.2-2.4001-4.2683-12.178-3.3956-12.682 0.87275-0.49092 7.0366 2.5228 10.937 4.9911 0.65457-0.60002 1.5955-1.7864 1.841-3.4228 0.24546-1.6228 0.81821-8.9594 1.3773-11.455 0.55911-2.5092 0.99549-4.2683 4.132-5.8911" fill="#e73820"/>
 <path d="m169.2 110.33c-3.5456-0.64093-9.423-1.2-11.441-0.50456-2.0319 0.69548-17.346 9.3003-27.628 19.228 2.6592 3.0001 11.455 13.214 11.755 15.096 0.4091 2.7274-3.7774 10.978-6.232 16.991 6.082-3.9138 18.178-8.9457 32.442-5.7275-1.3228-3.641-1.8137-6.8593-0.69548-12.232 1.1182-5.3865 4.9638-26.224 4.6911-27.56-0.28637-1.3228-1.7182-3.6683-2.891-5.2911" fill="#e73820"/>
 <path d="m168.32 155.68c-4.391-1.7592-20.046-3.5046-32.824 6.0138-2.4955 6.5184-6.5047 17.782-7.6366 30.942 1.5 3.3819 3.6274 7.3911 5.8911 10.391 5.0047-6.0138 23.046-24.178 30.055-28.801 1.1319-3.1365 3.641-9.9003 6.7638-13.91-0.62729-0.87276-1.8682-3.3819-2.2501-4.6365" fill="#f9be00"/>
 <path d="m163.81 174.22c-5.8638 4.5683-19.446 15.941-30.069 28.815-2.2501-3.6683-4.8138-7.9912-5.7547-11.278-1.1318 6.0138 0.55911 15.028 1.9773 19.255 2.9046 3.2046 5.5638 5.5774 7.5412 7.173 5.6047-6.1366 15.464-16.473 22.323-20.319 0.57274-6.3002 2.141-18.069 3.9819-23.646" fill="#4b5170"/>
 <path d="m93.17 27.511c-5.1274 1.2546-27.028 7.6366-28.992 11.264s2.6046 16.446 8.1139 24.874c1.2409-7.3639 3.2319-14.55 4.732-18.805 1.7319 0.31365 5.7411 0.62729 7.9502 1.0228-1.0228-2.441-2.7546-7.4048-3.5456-9.5321 2.8365-2.5228 8.4275-6.9275 11.741-8.823" fill="#f9be00"/>
 <path d="m99.811 43.47c-2.0046 0.38183-8.1412 1.841-9.8048 2.4683 1.9092 2.6592 7.6502 4.882 12.15 4.2274 4.5956-0.65456 7.5002-3.2183 8.6457-6.7638-0.55911-0.49092-3.0956-1.1182-4.0092-1.0228-0.91366 0.08182-5.8229 0.87275-6.982 1.0909" fill="#3e4e57"/>
 <path d="m96.669 49.765c0.06818-2.1273 1.0637-4.6911 3.8865-4.9502 2.8092-0.24546 4.2001 2.3864 4.3774 4.7592-2.5637 0.75002-5.8229 0.81821-8.2639 0.19092" fill="#f9be00"/>
 <path d="m131.62 130.82c-0.58638 1.3364-1.3364 4.6092-1.0228 5.032 0.32728 0.43638 3.9683-0.31364 4.9911-0.75002-1.3364-1.4455-2.6319-3.0001-3.9683-4.282" fill="#fff"/>
 <path d="m137.35 137.52c-0.53183 1.1864-1.2273 3.4774-1.0228 3.9138 0.21819 0.42274 2.8501 0.91366 4.4047 0.58638-1.0228-1.5-2.3046-3.3137-3.3819-4.5001" fill="#fff"/>
 <g fill="#dcdddd">
  <path d="m96.476 55.877c1.8546 0.08182 4.1183 0.39547 5.932 0.96821l1.4182-2.1682c-1.991-0.47729-6.0684-0.9273-8.0184-0.9273z"/>
  <path d="m105.07 57.25c1.5546 0.2591 3.9819 0.84548 5.3183 1.3773l1.5819-1.7728c-1.1864-0.6682-5.7956-1.7319-7.7866-1.991z"/>
  <path d="m110.38 63.979c1.6364 1.4182 3.4092 2.6592 5.3593 3.8047l-0.70911 3.191c-1.5137-1.4591-3.9001-4.8274-4.6501-6.9957"/>
  <path d="m107.81 70.397c1.7319 2.0319 3.2319 3.4501 5.182 5.1411l-0.88639 2.3864c-1.8546-2.2637-4.1592-5.5365-4.2956-7.5275"/>
  <path d="m103.51 76.773c1.6773 2.0864 3.941 4.0229 5.7956 5.4956l-1.6773 2.4273c-1.5955-1.9501-3.5865-5.2229-4.1183-7.923"/>
 </g>
 <g fill="#393d59">
  <path d="m107.65 1.806c1.1728 9.5321 37.501 36.219 54.861 35.674-1.7182 4.4047-18.437 1.6091-34.283-7.3911-15.86-9.0003-24.11-24.86-20.578-28.283"/>
  <path d="m110.12 24.091c7.3911 1.5 18.532 11.032 22.923 18.969 0.54547-3.3274 1.0773-6.4366 3.4365-8.7957-6.3275-2.6728-13.5-6.7502-17.891-11.346-2.4683 0.20455-4.9365 0.64093-8.4684 1.1728"/>
  <path d="m62.837 57.955c-4.5683 3.5865 20.142 18.901 29.169 18.151 1.4046 3.191 3.3819 6.9411 6.6684 10.514-9.5867 2.5364-31.665-8.0457-38.142-22.446-0.84548-1.8819-2.3455-4.6365 2.3046-6.2184"/>
  <path d="m50.774 114.36c1.2955 1.1864 3.4501 2.1546 5.6047 3.0137l-3.2319 3.0137-2.7001-0.96822c-0.21819-1.4046 0.10909-3.1228 0.32728-5.0592"/>
  <path d="m119.51 136.74c0.75002 1.5 2.4546 3.5183 5.2092 4.7729-0.69547 1.7182-5.4002 0.15-10.159-1.541 1.6228-0.96821 3.0683-1.991 4.9502-3.2319"/>
  <path d="m114.56 139.98c-45.901 23.523-92.526 67.407-113.51 108.02-1.2955 9.6412 1.6364 37.065 5.2502 37.365 1.0637 0.0954 2.441-3.4092 3.5592-6.0411 10.65-24.928 26.81-54.615 42.601-75.534 15.778-20.919 40.788-48.574 62.102-63.807"/>
  <path d="m72.84 217.86c-0.4091 7.1866 8.6048 9.7912 19.364 8.0184 10.923-1.8001 28.065-9.123 37.065-16.869 1.2409 5.2502 4.5547 12.3 9.6685 18.26-9.6685-2.0864-25.296-0.28637-39.683 9.8185 0.4091 1.9364 1.5273 4.8274 2.9046 5.9456 1.3773 1.1046 2.9046 2.6183 1.9364 5.8093-0.96821 3.1774-2.7955 9.423-3.6547 14.4-2.741-7.0366-13.364-14.741-20.046-9.9412 1.8682-4.6774 3.9956-13.078-1.5137-16.214-5.5093-3.1228-8.523-7.2548-8.7685-10.391-0.24546-3.1365 0.94094-5.7684 2.7274-8.8366"/>
  <path d="m69.737 300.98c6.7638-0.62729 11.4-2.0046 13.65-4.132 2.2637-2.1273 9.273-9.9003 13.159-14.032l-0.38183 3.3819c-3.0683 4.7592-6.1638 11.346-7.6366 14.469-0.50456 1.0637-1.4046 2.3864-3.0137 3.0683-3.8183 1.6364-10.487 4.5001-14.687 5.3047 0.06818-2.3728-0.27274-5.7411-1.0909-8.0593"/>
  <path d="m150.79 239.9c6.2729 12.069 39.369 39.56 56.702 46.611 2.7137 1.1046 3.2865-0.0955 2.1955-2.2092-2.3592-4.5683-7.8139-16.064-10.023-23.946-14.591-0.60002-39.451-10.173-48.874-20.455"/>
  <path d="m299.65 191.04c5.9184 6.3684 13.473 11.932 25.474 15.491-4.8956 0.58638-19.255-2.2228-28.433-5.632 0.73638-2.3592 2.3592-7.4866 2.9592-9.8594"/>
  <path d="m181.92 84.401c42.52-6.1638 87.371 0.34092 112.79 9.0139-16.91 6.9002-57.043 23.36-73.025 33.696-2.1273 1.3773-4.6365 2.0046-7.2684 1.0091-2.6319-1.0091-13.65-4.0092-21.301-3.2592-2.3728-16.037-6.9957-33.069-11.196-40.46"/>
  <path d="m113.11 164.92c3.8319-0.62729 15.655-2.0455 21.982-2.6728-0.35455 1.3364-0.88639 2.7546-1.4319 4.2683-3.8183 1.9637-9.423 4.8956-13.787 7.3911l-1.3364-4.8002c-1.5955 0.17728-2.8501 0.2591-3.2865-0.0954-0.45001-0.35456-1.691-2.3183-2.141-4.091"/>
 </g>
 <g fill="#dcdddd">
  <path d="m4.868 114.82c8.7685-4.091 37.051-5.4547 46.665-2.7955-0.5182 1.4319-1.2273 4.2956-1.0364 7.1457-8.2503-2.7956-28.542-6.2184-42.247-3.7638-2.5364 0.45002-3.0546-0.32728-3.3819-0.58638"/>
  <path d="m117.51 108.84c1.8819 3.7638 3.5183 6.9002 6.4775 10.569-1.0773 1.1318-1.9228 1.7864-2.7137 2.5364-1.0909-2.3455-4.4729-10.528-3.7638-13.105"/>
  <path d="m126.81 100.62c1.5 2.8228 3.941 7.0911 6.382 10.146-0.79094 0.84548-1.8682 1.8819-2.8637 2.8228-1.1728-2.8228-4.0774-10.991-3.5183-12.969"/>
  <path d="m130.43 135.8c1.241-0.69548 2.2773-1.7319 3.0137-2.6728l1.8273 1.9364c-1.3773 0.79094-4.0501 1.3773-4.8411 0.73639"/>
  <path d="m136.26 141.34c1.1864-0.30001 2.2228-0.79093 3.0683-1.4864l1.6228 1.8819c-1.0364 0.49092-3.7501 0.45001-4.691-0.39547"/>
  <path d="m30.091 293.46c4.4456 0.55911 19.787-0.38183 24.996-1.5682v2.3864c-2.3864 0.75002-6.9548 2.3182-8.1548 2.6864-3.3137-0.43637-16.023-1.8137-16.841-3.5046"/>
  <path d="m35.54 302.92c5.1411-0.50456 19.787-1.9364 25.924-4.691l0.38183 3.0001-6.382 2.8228c-5.5229 0.17728-18.355 0.3682-19.923-1.1318"/>
  <path d="m43.431 310.76c7.773-0.68184 21.983-3.8183 27.178-5.9456 0.13637 1.5 0.68184 3.4774-0.12273 4.3229-1.2546 1.3091-23.742 3.8183-27.055 1.6228"/>
 </g>
 <path d="m97.79 66.026c5.0047-0.81821 9.9003 2.0046 12.341 4.391 1.3228 0.05455 3.3819 0.12273 4.9502 0.75002-2.2501-2.3183-4.9911-6.3138-4.7047-7.1866 0.19092-0.58638 4.5138-0.90003 6.2729-0.7773 0.19092-1.1864 0.43638-4.0092 0.31365-4.9502-1.6364-0.62729-4.0774-1.2546-5.0729-1.5682-0.81821 1.5137-3.6956 4.7047-4.5138 4.5138s-1.8137-2.2501-2.1955-3.2592c-1.7591 1.0637-5.1411 4.2683-7.3911 8.0866" fill="#ce7486"/>
 <path d="m64.052 38.678c-1.6501 4.241 3.1228 17.51 8.4139 25.433 0.35456-4.7729 1.991-8.6594 2.5092-12.519-4.7729-4.282-8.4548-8.6457-10.923-12.914" fill="#d7a400"/>
 <g fill="#393d59">
  <path d="m86.463 59.987c-3.5047-1.7728-7.9912-5.3047-11.537-8.4957-0.96821 3.341-2.291 7.4866-2.6319 12.259 0.94094 1.4046 3.7092 5.1274 4.5274 5.9593 3.5456-2.8774 6.4229-5.9184 9.6412-9.723"/>
  <path d="m296.15 190.34c-24.819 51.493-113.87 72.002-156.74 25.555-0.81821 0.87275-1.541 1.65-2.0319 2.2773-2.291-1.8273-4.6092-4.1319-7.582-7.3093 9.9003 29.333 47.783 53.756 86.498 48.902 44.906-5.632 77.662-42.151 83.362-68.893 0.50457-2.2501-2.291-3.0683-3.5046-0.53183"/>
  <path d="m137.37 218.16c0.50456-0.62729 1.2137-1.4046 2.0455-2.2637-4.5956-4.9774-8.6594-10.705-12.055-17.251 0.24546 4.1183 1.0773 8.2093 2.4274 12.219 2.9728 3.1637 5.3047 5.4684 7.582 7.2957"/>
 </g>
 <path d="m110.04 81.362c2.7274 0.19092 5.4547-0.19092 8.6457-1.3091-1.7864 1.9637-8.4548 7.8821-15.969 9.1094 1.9637-1.3228 5.2638-4.3638 7.323-7.8002" fill="#c82e19"/>
 <path d="m116.75 86.528c-1.8819-1.8955-3.5047-1.9364-3.5047-1.9364s2.7819-3.5865 5.4411-4.541c2.3319-0.84548 3.641-3.8592 4.1456-3.6001 0.49092 0.24546-2.6455 11.946-1.0091 21.096-1.0773-3.6956-3.5728-9.5048-5.0729-11.019" fill="#c82e19"/>
 <path d="m95.77 53.961s-3.0683 0-3.8865 0.50456c-0.80457 0.49092-8.5775 8.8912-8.5775 8.8912l2.7001 1.9364c2.0046-0.68184 6.4093-0.17728 11.291 1.9773 1.8819-3.6683 5.1138-7.4866 8.1139-8.9866l-1.1046-3.3819-0.47729-0.21819s-3.3001 5.7274-4.432 5.6593c-1.1182-0.05455-3.6274-6.382-3.6274-6.382" fill="#681e00"/>
 <g fill="#0f141b">
  <path d="m128.43 29.221c-13.214-7.173-22.842-23.196-20.892-26.074 2.8365-4.1865 22.623-0.19092 34.978 8.1548 16.501 11.141 20.551 23.769 18.982 26.305-2.1001 3.3956-17.782-0.06818-33.069-8.3866m-22.214-26.96c-2.741 3.941 7.4184 21.26 21.355 28.842 13.691 7.432 32.456 12.3 35.237 7.2684 2.1001-3.791-2.0592-16.787-19.405-28.501-11.919-8.0457-33.437-13.009-37.188-7.6093"/>
  <path d="m145.74 84.509c-5.1547-6.8866-18.451-21.832-21.478-23.878-7.4184-5.032-28.692-9.1503-32.919-6.7911-2.1001 1.1591-13.296 15.055-14.428 15.055-2.1137 0-14.864-24.683-12.069-29.674 1.9364-3.4501 36.547-14.864 54.643-15.055l-1.5-1.7319c-17.878 0.4091-52.065 11.319-54.738 15.9-2.6319 4.5138 6.7638 25.746 13.269 32.169 0.19092 0.20455 0.39547 0.21819 0.61366 0.05455 5.6593-4.6092 13.5-14.482 15.055-15.505 2.9046-1.8955 23.592 2.0182 31.146 7.132 2.7683 1.8819 15.382 15.982 20.946 23.401z"/>
  <path d="m88.667 45.662c-1.0773 0.70911-2.3046 2.7683-2.7819 4.8001-0.2591 1.0909 0.35456 1.3228 0.80457 0.28637 0.75002-1.7455 2.1819-3.4637 2.7274-3.8728 0.81821-0.57274 13.746-3.7365 17.414-3.7365 2.5501 0 5.1138 1.1864 7.0639 2.2092 0.87275 0.46365 1.1591-0.12273 0.39547-0.75002-1.7182-1.4319-4.6092-2.8774-7.3502-2.8774-3.8183 0-17.196 3.2319-18.273 3.941"/>
  <path d="m89.372 46.461c2.9592 3.2456 9.4094 5.0592 13.746 4.2274 3.6956-0.69548 7.2002-3.4774 8.1412-6.8593l-1.0228-0.28637c-0.79093 2.7546-3.9001 5.3183-7.2411 5.9593-3.8183 0.72275-9.6276-0.79093-12.519-3.5865z"/>
  <path d="m105.22 49.138c0-2.3455-1.6773-4.7183-4.2001-4.7865-2.5774-0.06818-4.9229 2.0182-4.7592 5.0729l0.88639 0.17728c0.02727-2.291 1.2546-4.2956 3.8728-4.2274 1.841 0.05455 3.1501 1.8819 3.3274 4.0501z"/>
  <path d="m100.94 46.787c-0.68184-0.01364-1.2546 0.61366-1.2546 1.2 0 0.62729 0.53183 1.3228 1.2273 1.3228 0.75002 0 1.2682-0.54547 1.2682-1.2273 0-0.62729-0.49092-1.2819-1.2409-1.2955"/>
  <path d="m98.061 86.012c-6.0547 0.43638-13.2-1.7182-20.81-5.8775-10.05-5.482-17.919-16.964-16.814-19.773 0.73639-1.8682 5.1683-2.4546 9.2321-2.2637l-0.58638-1.4455c-2.4683-0.09546-8.9866 0.50456-10.05 3.0956-1.5546 3.7774 7.4184 16.623 17.414 22.078 7.7457 4.241 16.337 6.5593 22.596 5.6456z"/>
  <path d="m124.07 66.767c-0.28637 1.9501-1.4046 5.4138-2.0319 6.8457-0.69548 1.5682-0.0818 1.8273 0.7773 0.34092 1.1319-1.9773 1.9092-4.732 2.1001-7.0639 0.12273-1.5955-0.62729-1.7046-0.84548-0.12273"/>
  <path d="m83.936 84.203c2.7955-1.8955 4.9774-5.8365 5.7138-7.4866l-1.4046-0.70911c-0.73639 1.6364-2.8637 5.782-5.4684 7.7593z"/>
  <path d="m99.471 59.614c-0.42274 0.08182-1.8955-2.441-3.041-5.5638l-1.4728-0.16364c0.32728 1.691 2.9183 7.0093 4.4183 7.0911 1.0637 0.05455 3.9956-3.9001 5.032-6.1502l-1.3091-0.17728c-1.2 2.1546-3.2456 4.882-3.6274 4.9638"/>
  <path d="m107.41 60.646c-0.23182-0.02727-1.8273-2.9183-2.6319-5.6593l-1.3091-0.2591c1.5 4.7456 2.9865 7.1048 3.6547 7.2275 0.70911 0.15 2.591-0.98185 5.5911-5.0183l-1.391-0.31365c-1.8001 2.5228-3.6274 4.0501-3.9138 4.0229"/>
  <path d="m116.33 58.032c0.55911 13.296-10.009 32.442-16.351 30.096l1.0773 1.0091c7.3775 0.7773 16.964-17.196 16.501-30.792z"/>
  <path d="m115.16 70.235c-1.4864-1.5682-4.4592-5.632-4.3638-5.9456 0.0818-0.27274 3.6001-0.35456 5.9184-0.35456l0.17728-1.3091c-1.9637-0.09546-6.8048 0-7.2275 1.0228-0.31365 0.76366 2.2501 5.2229 5.0729 7.8957z"/>
  <path d="m112.39 77.134c-1.841-2.4955-4.4183-6.1502-4.2683-6.4366 0.13637-0.24546 4.3774 0.50456 6.4638 0.95458l0.43638-1.1864c-3.191-0.90003-7.4593-1.2682-7.9366-0.47729-0.57274 0.94094 2.5364 5.8365 4.5956 8.4139z"/>
  <path d="m108.01 84.01c-1.5819-2.2364-4.2956-6.5184-4.0365-6.8729 0.28637-0.38183 5.5911 0.94094 7.5684 1.5273l0.70911-1.1591c-2.9183-0.98185-8.7003-1.9637-9.3821-1.1728-0.64093 0.75002 1.8137 5.4547 4.2547 8.7821z"/>
  <path d="m214.13 192.28c6.4093 8.0593 15.287 12.369 25.801 12.941 14.414 0.76366 30.86-6.2184 41.824-18.832l-0.12273-1.691c-11.605 12.369-27.192 19.201-41.51 18.437-10.582-0.57274-19.76-5.8365-26.046-14.169z"/>
  <path d="m130.89 113.04c-2.0046-5.1411-4.0228-11.469-3.6956-11.728 0.5182-0.42274 6.0138 2.4137 10.364 5.1002l0.88639-1.0091c-2.8092-1.8001-10.964-6.3275-12.341-5.1002-0.76366 0.68184 1.6773 8.4412 3.6274 13.828z"/>
  <path d="m121.81 121.6c-1.6501-3.8456-4.2547-11.755-3.9001-11.946 0.32728-0.19092 7.8821 4.582 10.364 6.1229l0.9273-1.0909c-5.4002-3.3274-11.496-6.9275-12.178-6.5047-1.1591 0.72275 1.5137 8.9321 3.6137 14.387z"/>
  <path d="m54.884 117.64c-39.069 36.533-64.284 118.44-51.561 164.23 1.691 6.0956 3.4774 6.3684 6.1911 0.0818 26.455-61.352 61.529-107.69 109.2-143.83 1.8273-1.391 1.05-2.2364-0.87275-0.98184-40.965 26.81-84.753 82.98-110.43 145.22-1.0091 2.4546-1.4455 2.3864-2.1955-0.31365-12.655-45.547 10.8-120.51 50.797-163.72 1.3637-1.4728 0.32728-2.0455-1.1319-0.68184"/>
  <path d="m59.687 294.26c0.54547 0.13637 1.7319 4.882 1.4591 7.5411l1.4046-0.55911c0.15-2.3592-0.70911-7.9639-2.2092-8.4548-2.3183-0.7773-26.305 7.3775-25.924 10.378 0.27274 2.2501 16.023 1.8819 20.81 1.4046l3.041-1.5682c-5.632 0.72275-21.792 0.55911-22.037-0.15-0.4091-1.1864 21.055-9.2048 23.455-8.5912"/>
  <path d="m82.694 232c-0.27274 0.87275-0.87275 2.0182-1.4046 2.7546-0.53184 0.70911-0.15 1.2 0.54547 0.65457 0.99549-0.79094 1.691-1.8955 2.0455-3.0683 0.35456-1.1318-0.81821-1.4864-1.1864-0.34092"/>
  <path d="m138.21 226.22c-14.332-4.6365-36.71 6.4093-41.66 12.137-1.2 1.3773-0.65457 2.1273 0.79093 1.0091 8.4821-6.5457 28.433-15.614 42.52-10.214z"/>
  <path d="m160.15 196.64c-7.5411 4.391-17.114 13.896-22.828 20.482-1.5819-1.0909-5.5093-5.2638-8.0866-8.8639l0.40911 3.2865c3.2046 3.9274 5.6047 6.082 7.6912 7.5684 0.16364 0.12274 0.4091 0.0818 0.54547-0.0818 5.6456-6.5593 15.273-16.091 22.146-20.319z"/>
  <path d="m282.68 128.18c1.7319-0.2591 10.459 30.969 13.528 40.583 0.61366 1.9092 1.3364 1.6364 0.90003-0.31365-3.7774-16.91-11.455-42.724-14.55-42.342-4.5001 0.57274-4.882 39.342-0.96821 61.747 0.27273 1.5819 1.1182 1.3773 0.94094-0.15-2.8228-23.292-1.9773-59.211 0.15-59.525"/>
  <path d="m121.16 25.339c3.3137-0.50456 7.7866-6.4093 10.268-10.896 1.2682-2.3046 2.7546-6.3275 2.1955-8.7139l-1.5-0.75002c0.75002 1.6364 0.0273 4.6365-2.1955 8.6457-3.1228 5.6456-7.9639 10.909-9.8321 10.841z"/>
  <path d="m148.7 15.035c0.39547 5.1683-6.6275 15.941-11.837 19.214l1.2682 0.47729c5.8911-3.1228 12.219-12.587 11.714-18.778z"/>
  <path d="m135.75 33.855c-3.191 3.1365-4.132 9.5185-2.8774 15.723 0.28637 1.4455 0.9273 1.2819 0.84548-0.19092-0.36819-7.2002 0.54547-11.728 3.6547-14.66z"/>
  <path d="m76.594 69.571c-1.2546 2.3046-2.9183 4.9365-5.3593 7.4457l0.70911 0.81821c2.9592-2.1546 5.8229-6.7093 7.0502-9.5321z"/>
  <path d="m87.539 67.552c0.79093 1.0091 6.5593 17.851 12.396 21.137l-1.2137-2.441c-4.1729-4.7183-8.8775-17.987-10.064-19.487-0.73639-0.94094-3.1501-2.9728-5.0183-3.8183l-0.84548 1.1864c1.9092 0.84548 4.1729 2.6864 4.7456 3.4228"/>
  <path d="m124.62 112.54c-1.8001-18.219-5.6593-28.078-11.155-28.255l-1.2273 0.9273c5.4002-0.36819 8.8503 8.9048 11.169 26.66z"/>
  <path d="m65.603 108.83c18.546 9.3957 48.356 18.041 51.67 16.978 4.0774-1.3091 21.164-18.86 22.678-21.314 1.1864-1.9364 1.5137-14.769 2.5774-16.323 1.1591-1.7046 7.6775-5.9593 12.819-8.3594 1.05-0.47729 0.76366-1.1182-0.34092-0.7773-5.2638 1.6364-12.505 6.2593-13.91 8.3321-1.1864 1.7455-1.7864 14.905-2.4683 16.214-1.0637 2.0592-18.41 19.364-21.792 20.469-2.8774 0.94094-34.324-8.3866-53.797-18.041z"/>
  <path d="m148.8 60.131c-6.0275 0.91366-14.796 4.732-18.641 7.1866l0.83185 0.98185c3.791-2.2501 13.323-6.3002 19.173-6.9411z"/>
  <path d="m154.39 65.061c-6.1775 0.80457-14.878 4.4865-19.732 7.323l0.80457 1.1319c4.882-2.7001 14.373-6.7502 20.428-7.2275z"/>
  <path d="m160.78 69.994c-6.7911-0.24546-17.387 4.8274-21.519 7.8412l0.84548 1.0773c4.2001-2.7683 15.887-8.5912 22.323-7.5548z"/>
  <path d="m200.65 164.7c-3.0956-6.3275-5.6456-21.669-6.0138-29.401-1.1319-23.769-9.2457-49.802-13.705-54.302-3.2865-3.3137-14.032-8.5503-18.178-10.719-6.0275-3.1365-23.373-20.551-29.578-25.228l0.10909 2.5092c7.4866 5.7684 23.469 21.737 29.101 24.383 4.2138 1.9773 14.673 7.5275 17.087 10.146 3.7501 4.0774 12.355 29.687 13.91 53.388 0.35456 5.4411 1.5819 19.869 4.4047 26.878z"/>
  <path d="m51.198 119.42c-0.55911-4.4592 1.7864-8.7548 3.4501-10.528 2.1955 0.17728 7.8821 1.3773 11.769 2.141 0.83184 0.15 1.2137-0.16364 0.87276-1.0091-1.541-3.8592-9.0412-8.7685-12.396-9.6412-14.605-3.791-32.633-0.31365-48.411 11.141-4.582 3.3274-3.2046 5.0729 1.3773 4.6365 16.46-1.5819 34.937 0.84548 44.783 4.8274l0.90003-1.0637c-10.991-5.4547-29.455-7.2411-46.024-5.2911-1.9773 0.23182-2.291-0.49093-0.96821-1.4046 16.132-11.114 33.546-14.946 47.906-11.223 2.6592 0.69548 7.8957 4.0092 10.269 7.0775-4.1319-0.88639-8.7412-1.9501-10.705-2.0592-0.12273-0.0136-0.24546 0.0273-0.32728 0.12273-1.8546 1.8546-4.3638 6.982-3.8456 11.823z"/>
  <path d="m113.7 140.9c1.8137 0.38183 3.9819 1.05 5.3865 1.4455 2.2364 0.62729 4.4183 1.3091 5.5093 0.68184 1.1864-0.68184 1.8137-2.8774 2.0046-4.882 0.24546-2.5637 0.39547-5.0456 1.6364-6.2593 6.7093-6.6002 25.024-20.264 29.865-21.232 4.7592-0.95458 14.919 0.65457 20.264 2.1273 1.7319 0.47729 1.5682-0.31365-0.10909-0.94094-4.0092-1.5-15.014-3.791-20.523-2.7001-5.3729 1.0773-24.464 15.505-30.751 21.669-1.4455 1.4182-1.8273 4.2001-2.1137 6.8593-0.17728 1.5819-0.49092 3.191-0.99549 3.5319-0.72275 0.47729-2.4819-0.0136-4.3501-0.54547-1.3228-0.38183-2.8092-0.80457-4.2683-0.98185z"/>
  <path d="m131.04 135.54c-0.23183-0.23183 0.47729-2.141 1.0637-3.9138l-0.85912-0.94094c-1.3091 2.3183-1.6364 5.3184-1.2546 5.7684 0.45001 0.49093 3.0819 0.17728 5.5774-0.62729l-0.76366-0.98185c-1.6364 0.39547-3.5319 0.92731-3.7638 0.69548"/>
  <path d="m140.2 141.52c-1.4182-0.0273-3.2319-0.0955-3.3137-0.39547-0.0955-0.35455 0.2591-1.4046 0.79093-2.7546l-0.85911-1.05c-0.85912 2.141-1.3091 3.9956-1.0091 4.4456 0.50457 0.76366 3.2592 1.1319 5.2093 0.81821z"/>
  <path d="m140.81 146.74c-9.0685 20.455-21.328 50.033-8.4139 72.875 14.496 25.624 48.833 48.356 91.298 40.338 15.614-2.9592 65.743-22.16 76.066-67.652 0.50456-2.2092-0.31365-2.4546-0.9273-0.27274-12.832 45.001-60.002 62.934-75.48 65.852-42.042 7.9366-74.811-14.005-89.157-39.356-12.709-22.487-1.0773-50.606 8.1684-71.17 0.96822-2.1682 0.92731-3.2865-0.24546-5.032-1.3637-2.0455-8.4139-10.582-11.741-13.65l-1.0637 1.1046c3.2865 3.0274 10.132 11.346 11.482 13.378 0.75003 1.1318 0.57275 2.3182 0.0136 3.5865"/>
  <path d="m324.02 205.84c-0.32728 0.87275-18.151-2.6864-27.342-5.9047l-0.61365 1.8819c7.2957 2.4001 29.21 7.6093 30.096 4.7865 0.8182-2.6046-17.51-20.005-23.142-28.187l-0.42274 2.591c5.5502 7.5684 22.023 23.251 21.423 24.833"/>
  <path d="m296.28 166.58c1.3773-4.691 3.6274-11.414 4.2001-11.278 1.6773 0.38183 4.2001 15.478 0.96821 29.251-0.38183 1.541 0.53184 1.9637 1.0364 0.25909 4.1865-14.196 1.6228-31.556-2.0046-31.446-2.0046 0.0546-4.3229 7.8957-5.1411 10.773z"/>
  <path d="m281.78 224.16c3.3546-7.0366 0.7773-14.564-1.3091-17.714-3.3956-5.1002-9.423-8.4821-14.619-8.5912l-1.6364 0.94094c5.2638-0.0273 11.55 3.2456 14.932 8.4957 2.4955 3.8728 4.6092 10.391 0.80457 18.887z"/>
  <path d="m271.02 195c4.1456-0.54547 8.9185 0.99549 12.396 4.4592 4.091 4.0638 5.5365 10.268 4.4183 16.582l1.2273-1.4591c1.0909-5.9866-0.47729-12.041-4.6092-16.16-3.491-3.4637-8.4684-4.9638-12.45-4.3638z"/>
  <path d="m293.01 207.86c0.9273-5.482-0.32728-11.005-3.8047-14.51-3.0819-3.1228-7.5957-4.2683-11.782-3.6274l-1.0364 0.94094c4.1183-0.61365 8.7412 0.6682 11.782 3.7638 3.491 3.5319 4.6638 9.2185 3.6138 15.219z"/>
  <path d="m114.64 168.02c-8.2639 0.64093-17.796 4.5683-29.728 11.769 5.932-13.487 22.76-23.21 26.346-23.796 3.5047-0.57274 22.201-2.2773 28.378-4.0092l0.43638-2.0046c-5.6865 1.7864-26.728 3.9274-29.06 4.3229-5.2911 0.91367-22.392 11.155-27.915 25.801-0.73639 1.9364 0.24546 2.5501 1.7182 1.5955 11.728-7.473 22.61-11.769 31.078-12.3z"/>
  <path d="m118.87 153.98c-2.2228 1.1864-5.3865 3.0274-6.0547 3.8456-1.0091 1.241-1.1046 6.4366-0.70911 7.5275 0.0136 0.0409 1.9228 4.4592 3.341 4.7456 0.43638 0.0818 2.0728-0.23182 4.3092-0.6682 2.6728-0.50456 5.4138-1.2137 7.5684-1.3637 1.2137-0.0682 1.2955-0.75002 0.0818-0.84548-1.8137-0.13637-4.9229 0.39547-7.7866 0.94094-1.5137 0.28637-3.1637 0.47729-3.4774 0.42274-0.57274-0.1091-1.9228-2.4137-2.441-3.8456-0.34092-0.94093-0.1091-5.3729 0.61366-6.2456 0.57274-0.69548 5.7411-3.641 7.7048-4.7047z"/>
  <path d="m120.59 173.28c-0.38183-1.1455-1.1046-3.1228-1.3773-4.3774l-1.6228 0.24546c0.27274 1.2819 1.0364 3.8865 1.4319 5.0729z"/>
  <path d="m53.998 287.94c4.1592-3.8592 13.173-8.4957 14.605-10.146 7.623-8.823 13.255-25.269 14.387-30.724 0.99549-4.8274-0.23182-8.7957-4.091-10.705-3.2456-1.5955-5.4002-4.0365-6.7911-6.3275-1.3091-2.141-1.4864-3.8865-0.75002-5.9456 7.5548-21.423 27.574-39.219 62.006-56.252l0.65457-2.6864c-34.951 17.182-56.77 36.165-64.611 58.475-0.81821 2.3046-0.42274 5.032 1.1182 7.3366 1.5819 2.3864 3.9683 4.8683 7.6639 6.682 2.9592 1.4591 3.9274 4.6092 3.0546 9.0548-0.95458 4.9229-6.3957 21.519-14.005 29.783-2.0864 2.2501-11.823 7.1184-14.85 10.8z"/>
  <path d="m100.21 264.5c-7.923 1.2546-19.296-0.5182-22.051-4.8956l-0.55911 1.2546c3.2728 5.0047 15.9 6.7229 22.323 4.8002z"/>
  <path d="m73.436 269.44c0.60002 2.1546 8.5912 9.0821 24.628 5.1138l0.23183-1.2819c-13.773 3.2728-23.933-2.3728-24.055-5.2365z"/>
  <path d="m96.283 283.22c-11.632 3.2319-27.328-3.1501-27.614-6.5184l-1.1455 0.98184c0.65457 3.7365 16.473 10.828 28.555 6.9275z"/>
  <path d="m55.769 294.34c0.13637-1.7046 0.20455-6.8593-2.1273-7.582-2.2637-0.69548-24.369 4.5138-24.26 6.9138 0.06818 1.5137 6.2456 2.6455 17.06 3.8183l2.1273-0.95458c-3.9683-0.54547-17.346-2.291-17.414-2.9455-0.09546-0.91367 19.937-5.9729 21.928-5.5093 1.2137 0.42275 1.4455 4.0774 1.2409 6.5457z"/>
  <path d="m68.112 300.18c0.9273 0.16364 2.9046 7.4184 1.7455 8.4957-1.6364 1.541-25.242 3.0546-25.242 1.9501 0.01364-0.87276 21.382-10.828 23.496-10.446m2.8774 9.8185c1.5682-1.4728-0.06818-10.528-2.3864-11.346-2.141-0.75002-26.605 10.037-26.114 12.409 0.57274 2.6864 26.878 0.45001 28.501-1.0637"/>
  <path d="m98.489 237.8c0.87275 3.8047 2.9183 6.2593 4.3229 7.582 0.83184 0.7773 0.76366 1.8682 0.42274 3.041-2.0864 7.3366-6.0275 25.937-7.6639 35.674-0.27274 1.6364-0.4091 2.0728-1.6637 3.8865-2.7683 4.0365-5.4002 9.2457-6.9957 13.487-0.69548 1.8546-10.078 5.3184-15.941 6.6957l-1.2955 1.8273c5.0865-0.90003 17.796-4.8138 18.764-7.3775 1.8819-5.0729 4.1319-9.7776 6.9957-14.196 1.0637-1.65 1.35-2.5092 1.6501-4.1592 1.7182-9.7912 6.1093-28.31 8.1821-35.578 0.61366-2.141 0.27274-3.8865-0.80457-4.8002-1.3091-1.1182-3.4501-2.9865-4.3229-7.0911z"/>
  <path d="m171.11 159.72c-4.1047-7.0093-4.1865-10.2-2.9183-16.351 1.2273-5.8911 4.9229-25.542 4.7865-27.396-0.10909-1.5819-1.5273-3.8319-2.7819-5.4956l-2.1682-0.28637c1.1182 1.4455 3.191 4.4592 3.2865 5.8093 0.12273 1.6364-3.491 20.755-4.8138 27.096-1.2955 6.2456-1.2682 10.514 3.5319 17.851z"/>
  <path d="m135.19 163.04c8.1275-7.1866 24.655-9.5321 33.151-6.6957l-0.6682-1.65c-8.973-2.9592-24.192-0.69548-31.91 6.0275z"/>
  <path d="m164.3 172.58c-6.5184 4.8683-23.714 20.21-30.546 29.251-2.5092-3.641-4.3365-8.1002-5.7138-12.15l-0.61365 2.7274c1.4182 3.941 3.2592 8.0457 5.932 11.346 0.20455 0.24546 0.49092 0.27273 0.68184 0.0136 6.2184-8.1002 22.528-22.883 29.51-28.187z"/>
  <path d="m198.49 260.1c3.5183 10.569 7.1866 17.741 10.596 24.533 0.85912 1.691 0.45002 2.0592-1.3091 1.241-11.359-5.2365-39.151-24.11-54.806-44.074l-4.9502-3.5728c16.91 24.928 46.147 43.242 58.57 48.602 3.9138 1.691 5.5093 0.99549 3.6001-3.0819-3.7092-7.8957-7.3502-16.719-9.6139-23.537z"/>
  <path d="m105.16 57.657c-6.0138 3.9001-9.2048 8.9594-9.8048 15.914-0.62729 7.2002 2.3183 15.873 6.1911 16.405 3.6956 0.50456 13.405-4.9502 16.746-8.7412 1.1319-1.2819 0.65457-1.7864-0.58638-0.62729-3.6683 3.4774-12.941 8.0866-15.846 7.7321-2.6864-0.31365-5.6865-7.5275-5.1956-14.714 0.43638-6.4229 3.5456-11.632 9.0139-15.15z"/>
  <path d="m193.12 125.74c7.6912-0.39547 15.982 1.6091 22.064 3.6819 2.441 0.83185 4.4592-0.13637 6.2456-1.1182 38.251-21.096 88.516-39.901 112.42-48.724 3.0819-1.1319 3.2183-3.1774-0.36819-4.8274-27.751-12.641-81.862-15.655-107.72-12.655-11.755 1.3637-25.024 4.4592-36.656 7.3639-8.1412 2.0319-15.669 3.9138-20.292 4.4865l2.1137 1.5137c4.6501-0.69548 11.25-2.3455 18.778-4.2274 11.605-2.891 24.519-5.9593 36.219-7.2957 24.737-2.7955 79.652 0.31365 106.74 12.191 1.8273 0.81821 1.8819 1.3364 0.0546 2.0046-23.919 8.8366-74.716 27.001-112.11 48.356-1.6773 0.95458-3.2046 1.4728-5.3183 0.75003-6.1775-2.1001-14.864-3.791-22.323-3.2319z"/>
 </g>
 <g fill="#fff">
  <path d="m85.833 69.399c-0.16364 0.57274 5.6729 4.882 6.5729 4.3229 0.91366-0.55911-0.76366-5.3047-1.3091-5.5774-0.43638-0.21819-5.0729 0.55911-5.2638 1.2546"/>
  <path d="m87.398 74.849c-0.19092 0.84548 6.382 5.0047 7.1457 4.5138 0.75002-0.50456-1.35-4.7592-2.0046-5.2365-0.6682-0.46365-4.9911 0.05455-5.1411 0.72275"/>
  <path d="m88.65 80.329c-0.31365 0.54547 7.7321 5.7275 8.7957 5.3593 1.0637-0.38183-2.1819-5.3865-2.8774-5.9184-0.68184-0.53184-5.5774-0.04091-5.9184 0.55911"/>
 </g>
 <g fill="#dcdddd">
  <path d="m85.984 69.38c1.6364 0.75002 4.2956 1.8137 6.3684 1.991 0.13637 0.57274 0.35456 2.1273 0.09546 2.3864-0.27274 0.27274-5.5365-2.2501-6.4638-4.3774"/>
  <path d="m87.134 74.692c1.8546 0.79093 4.6911 1.991 7.0366 2.441 0.27274 0.35456 0.57274 1.9364 0.17728 2.0728-0.39547 0.13637-5.0456-2.0319-7.2139-4.5138"/>
  <path d="m88.729 80.05c1.9501 1.1046 6.1093 2.741 7.923 3.0137 0.39547 0.79093 1.1046 2.5228 0.84548 2.741-0.27274 0.21819-6.5593-2.6592-8.7685-5.7547"/>
 </g>
 <g fill="#0f141b">
  <path d="m92.087 73.342c-2.1273-0.91366-4.882-2.9865-5.6456-3.8183 0.85912-0.27274 3.0956-0.65457 4.2956-0.75002 0.46365 0.53184 1.35 3.491 1.35 4.5683m-0.9273-5.8365c-0.96821-0.12273-5.6865 0.62729-6.0956 1.5819-0.55911 1.3091 6.682 6.3411 7.7457 5.2365 0.85912-0.90003-0.70911-6.6957-1.6501-6.8184"/>
  <path d="m94.444 80.422c0.54547 0.46365 1.9501 3.3137 2.4955 4.6911-2.3728-1.0364-6.4775-3.6137-7.6366-4.6501 0.95458-0.20455 3.641-0.36819 5.1411-0.04091m-6.6138-0.32728c-0.32728 0.81821 5.3729 5.2365 9.6821 6.4229 0.5182 0.19092 0.87275-0.21819 0.58638-1.0637-0.31365-0.96821-2.4819-6.1093-3.5183-6.2729-1.541-0.24546-6.3684-0.02727-6.7502 0.91366"/>
  <path d="m92.377 74.738c0.43638 0.35456 1.3773 2.8092 1.6091 3.9683-1.9637-0.90003-5.0592-2.8637-6.0684-3.6956 0.84548-0.24546 2.8637-0.43638 4.4592-0.27274m-6.0138-0.08182c-0.35456 0.94094 7.6911 6.2456 8.6866 5.2911 0.6682-0.62729-1.4046-6.1502-2.5228-6.4093-1.3364-0.30001-5.8229 0.23182-6.1638 1.1182"/>
 </g>
 <path d="m189.81 155.3c-3.4501-2.2637-10.664-0.0546-14.087 1.1318-11.278 3.8728-18.505 38.824-14.919 55.734 1.7592 8.2775 19.855 24.846 31.828 32.824 3.7501 2.5092 7.3911 3.7501 10.023 4.2547 2.6183 0.50456 5.8502 1.0773 8.2639 5.7684 4.6365 9.0139 9.5321 22.146 9.8867 27.928 0.2591 4.0092-1.6228 10.405-3.7501 15.287l7.0093 10.896 3.0137 0.75002 15.15-0.24546 2.5092 0.12273 16.187-5.782c0.50457-10.268-1.4046-18.151-4.1592-22.528-2.7546-4.3774-18.519-24.86-22.923-31.569-2.891-4.3774-6.3957-13.65-19.296-17.278-0.99548-10.773 0-31.065-0.24546-37.828-0.2591-6.7775-0.62729-13.787-4.882-19.296-4.2683-5.5093-12.15-15.287-19.61-20.169" fill="#4b5170"/>
 <g fill="#fff">
  <path d="m224.43 308.74c0.5182-1.7592-4.8138-10.664-7.5548-10.214-2.741 0.43637-17.401 19.732-16.951 21.028 0.58639 1.7046 23.769-8.2912 24.505-10.814"/>
  <path d="m233.02 300.6c-2.8774 0.5182-13.037 25.542-11.769 27.028 1.2546 1.4728 20.346-15.546 20.946-18.587 0.45001-2.2228-7.5412-8.7412-9.1776-8.4412"/>
  <path d="m249.53 296.3c-2.0728 0.81821-8.073 27.846-6.9548 29.019 1.1046 1.1864 18.723-18.573 18.437-20.578-0.3-2.0046-9.4094-9.2594-11.482-8.4412"/>
 </g>
 <g fill="#393d59">
  <path d="m222.72 303.64c1.3228 2.1273 2.0182 4.5683 1.4864 5.1956 0.79093 0.31364 1.8955 0.53183 3.191 0.68184 0.81821-1.7046 1.7319-3.4501 2.4955-4.8411-3.491-0.21819-6.232-0.60002-7.173-1.0364"/>
  <path d="m246.33 304.22c-2.0455 0.30001-4.3774 0.47729-6.7638 0.57275 1.2546 1.4728 2.5364 3.2456 2.7274 3.8865 0.0818 0.2591 0.0546 0.54547-0.0545 0.83184 1.0773-0.0409 1.991-0.0818 2.6592-0.0955 0.42274-1.5819 1.1182-4.132 1.4319-5.1956"/>
  <path d="m175.58 231.52c11.25 9.423 37.174 9.8594 38.251-13.5 0 4.6092-0.21819 10.173 0.64093 14.578 5.5774 1.7046 12.219 4.5956 16.391 12.641 1.5 2.891 7.1048 10.623 10.419 14.905-6.6684-6.4775-24.233-9.2048-29.687-3.941-2.7274-4.6092-5.482-6.6957-9.123-7.0093-5.032-0.42274-11.564-4.1729-26.892-17.673"/>
  <path d="m247.1 268.62c6.0275 10.759 8.073 22.037 6.6684 29.224 2.5637 1.7864 5.9729 4.5001 6.9957 5.9184 1.0228-12.437-2.5092-19.514-3.9274-22.201-1.4046-2.6864-6.2729-9.6139-9.7367-12.941"/>
 </g>
 <g fill="#dcdddd">
  <path d="m199.43 319.84c6.2047-3.3819 18.655-11.646 22.542-16.623 0.94094 1.2137 2.8774 3.7365 2.4001 5.2092-0.65456 2.0182-21.369 12.028-24.942 11.414"/>
  <path d="m238.8 304.06c-3.6138 5.9184-13.719 19.732-17.796 23.442 2.8637-0.0546 20.796-15.41 21.137-18.56 0.0818-0.88639-1.3228-2.7683-3.341-4.882"/>
  <path d="m256.37 299.64c-2.1546 7.282-10.05 20.06-13.814 25.596 4.2274-1.6364 18.491-17.932 18.273-20.482-0.13637-1.6364-3.0956-3.8456-4.4592-5.1138"/>
 </g>
 <g fill="#0f141b">
  <path d="m216.8 298.56 0.88639 0.0955c2.3046-5.5774 3.641-9.9821 3.9001-13.814 0.28637-4.1047-2.5637-16.351-9.4912-29.21-2.4819-4.6229-4.9092-6.5593-8.373-7.1593-2.1137-0.36819-5.8911-1.4182-8.4684-2.9319-6.9411-4.0365-30.587-22.555-33.451-33.997-2.7819-11.114 1.2546-50.62 15.219-54.929 1.4728-0.46365 1.091-1.2955-0.39546-0.95457-15.328 3.5183-19.814 45.22-16.991 56.524 3.1501 12.559 29.428 32.019 34.733 35.115 2.7001 1.5682 7.1048 2.6864 9.273 3.0683 2.6455 0.45002 4.8002 1.7319 6.9275 5.9184 6.7638 13.337 9.4776 25.037 9.2321 28.501-0.2591 3.7228-1.5546 8.7139-4.0092 14.25z"/>
  <path d="m200.49 319.3c-0.38183-0.65457 14.169-19.419 16.46-20.073 1.4182-0.39547 6.8184 6.6684 6.8184 8.8366 0 1.7319-22.869 11.919-23.278 11.237m24.914-10.869c0.17728-2.3319-5.7956-11.223-8.7275-10.746-2.2092 0.3682-19.023 20.96-17.728 22.828 1.1455 1.6364 26.264-9.273 26.455-12.082"/>
  <path d="m241.51 308.92c0.0409 1.7864-19.037 18.355-19.882 17.905-0.62729-0.34092 8.7276-24.137 11.332-25.433 1.6773-0.84548 8.5094 5.8775 8.5503 7.5275m-9.0548-9.0003c-3.3819 1.5682-13.719 27.246-11.973 28.528 2.0319 1.4864 22.623-16.623 22.569-19.487-0.0546-2.5228-8.0048-10.241-10.596-9.0412"/>
  <path d="m261.44 305.12c0.84548-6.2456 0.0546-18.382-5.182-26.374-1.541-2.3455-4.4592-6.0275-7.6366-10.2-6.082-7.9639-13.569-17.864-16.719-23.864-3.3819-6.4229-8.9321-10.841-17.578-12.9l0.49093 1.7455c7.1866 2.2364 12.273 6.6002 15.205 11.973 3.2728 6.0002 11.005 16.119 17.101 24.11 3.1637 4.1592 5.8775 7.7866 7.4457 10.078 4.6365 6.7638 6.0275 18.437 5.6456 23.633z"/>
  <path d="m192.18 237.76c1.5137 3.641 6.1638 8.9457 11.223 8.8639 1.0773-0.0136 1.1455-0.64093 0.10909-0.84548-4.132-0.80457-8.6184-4.7729-10.582-8.4139-0.54547-1.0228-1.1864-0.6682-0.75002 0.39547"/>
  <path d="m206.95 238.64c0.24546 1.0637 0.58638 2.291 0.79093 3.5046 0.15001 0.85912 0.88639 0.91367 0.87276-0.0818-0.0136-1.2-0.23183-2.8092-0.45002-3.641-0.36819-1.3637-1.4591-0.84548-1.2137 0.21819"/>
  <path d="m237.73 255.46c-4.5138 3.9819-15.914 7.8684-23.264 6.7366l0.64093 1.3228c7.0775 1.691 19.105-2.3182 23.36-7.1457z"/>
  <path d="m244.07 263.94c-4.8547 4.9774-17.946 9.1776-25.774 7.8548l0.31365 1.3773c8.7139 1.7592 21.928-2.9455 26.237-8.2093z"/>
  <path d="m220.62 282.7c10.623 2.2092 25.078-3.2456 31.051-8.8366l-0.80457-0.94094c-7.0775 5.2093-20.346 9.7776-30.328 8.4003z"/>
  <path d="m243.07 324.4c-0.85912-0.5182 5.032-26.264 6.7229-27.287 1.4455-0.90003 10.091 5.9866 10.378 7.7048 0.30001 1.8001-16.255 20.087-17.101 19.582m18.791-19.678c-0.27273-2.1001-9.2866-10.146-12.628-9.1366-2.8774 0.88639-8.9594 29.851-7.3366 30.696 2.3455 1.2137 20.264-19.255 19.964-21.56"/>
  <path d="m224.94 308.56c0.65457 0.0955 2.0319 0.34092 2.7137 0.46365l-0.45001 1.4864c-1.1455-0.17728-2.741-0.53183-3.4365-0.72275z"/>
  <path d="m242.46 308.86c0.98185 0 1.8682 0.0545 2.8228 0l-0.24546 1.4046c-0.79093 0.0955-2.6183-0.0955-3.191-0.0955z"/>
 </g>
 <path d="m181.9 187.82c0.6682-1.7182 2.8501-8.0866 2.5637-9.123-0.28638-1.05-7.3366-13.46-9.6003-13.119-1.8955 0.28637-1.7046 15.587-1.241 17.21 0.47729 1.6091 2.5774 3.9819 4.4729 5.3183-0.85912 5.4138-1.2273 13.5-0.57275 15.3 0.6682 1.8137 6.1775 8.4684 8.2775 8.373 2.0864-0.0954 3.7092-9.3139 3.3274-11.7-0.38183-2.3728-4.091-7.6912-7.2275-12.259" fill="#fff"/>
 <path d="m174.65 165.38c2.441 6.5184 3.941 16.541 4.391 19.61 0.5591 0.12273 1.691 1.1182 2.8092 2.5637 1.0637-2.3183 2.9456-7.2002 2.5092-8.8912-0.43637-1.691-8.0184-13.091-9.7094-13.282" fill="#dcdddd"/>
 <path d="m179.16 185.24c2.6864 7.7048 5.8229 18.601 6.7638 26.428 1.5682-0.68184 4.0774-9.1366 3.2592-11.769s-6.8866-12.969-10.023-14.66" fill="#dcdddd"/>
 <g fill="#0f141b">
  <path d="m179.42 186.16c1.1046-0.28637 8.6321 12.232 8.973 13.95 0.39546 2.0319-1.2819 10.65-2.7546 10.991-1.2409 0.28638-6.4775-5.3865-7.3366-7.8821-1.05-2.9728 0.47729-16.896 1.1182-17.06m-0.42274-1.5955c-1.9773 0.42274-3.191 16.255-2.1955 19.201 0.88639 2.6455 6.9411 9.4503 9.2866 8.8366 2.2501-0.58638 4.3229-10.473 3.8592-12.778-0.50456-2.4274-8.6457-15.75-10.95-15.26"/>
  <path d="m178.44 187.72c-1.2682-0.81821-3.6956-3.5319-4.0365-4.9774-0.64093-2.7274-0.32728-16.255 0.65457-16.487 0.72275-0.17728 8.4821 11.291 8.6866 12.491 0.10909 0.69548-1.3091 6.8593-2.441 8.5503l0.98184 1.0773c1.2137-1.8001 3.2319-8.5639 2.9592-9.914-0.27274-1.4046-8.5639-14.073-10.459-13.8-2.6455 0.3682-2.1682 16.814-1.8 18.41 0.42274 1.7728 2.9592 4.8411 5.1274 5.9593z"/>
  <path d="m189.06 155.58c5.5229 2.9456 19.664 18.614 22.542 26.455 2.0592 5.5911 1.8819 16.828 1.5955 27.942-0.2591 10.555-0.55911 21.042 1.541 25.992 0.70911 1.6773 1.3364 1.2819 0.85912-0.47729-1.4591-5.3184-0.91367-14.905-0.65457-25.378 0.28637-11.209 0.7773-23.06-1.2819-28.815-3.0001-8.4275-17.837-23.837-24.192-26.674-1.4182-0.62729-1.7728 0.23183-0.4091 0.95458"/>
 </g>
 <path d="m102.96 169.08c-1.6091 0.46365-0.96821 19.201 1.4864 20.523 1.2819 0.69548 10.459-7.0366 12.219-9.5458-2.9865-1.65-12.055-11.455-13.705-10.978" fill="#fff"/>
 <path d="m85.849 181.82c-2.7546 0.20455-0.46365 21.492 2.5637 22.01 1.2273 0.21819 8.7957-6.8184 10.555-8.6866-3.4228-2.7137-11.673-13.432-13.119-13.323" fill="#fff"/>
 <path d="m103.08 168.7c0.7773 5.8502 3.1228 12.478 6.3684 18.069-1.9501 1.4319-4.4592 3.4365-5.0729 2.9183-2.0728-1.7455-3.3137-17.223-1.2955-20.987" fill="#dcdddd"/>
 <path d="m85.724 181.9c1.0364 5.8502 3.5047 15.41 6.0411 19.692-1.0364 1.0364-2.8637 2.6864-3.5047 2.4683-2.9865-0.96821-4.5547-19.555-2.5364-22.16" fill="#dcdddd"/>
 <g fill="#0f141b">
  <path d="m85.942 182.64c0.39547-0.15 4.0501 4.1183 6.6002 6.8866 2.0592 2.2501 4.1047 4.3638 5.5365 5.7274-2.5774 2.591-8.6184 7.4457-9.573 7.8821-2.4273-1.6091-3.8319-20.032-2.5637-20.496m-0.58638-1.4455c-2.8092 1.1318-0.64093 23.237 2.7546 23.851 1.2682 0.23183 10.473-8.3594 11.687-9.6276 0.21819-0.23183 0.19092-0.4091-0.01364-0.61366-1.4046-1.2818-4.0638-3.7501-6.232-6.1502-5.9184-6.5729-7.2275-7.8412-8.1957-7.4593"/>
  <path d="m103.23 169.68c0.85912-0.28637 9.723 9.1094 12.478 10.678-3.0546 3.3137-9.9412 8.2503-11.073 8.5775-1.5137-1.7455-2.4137-18.914-1.4046-19.255m-0.46365-1.3091c-2.3592 0.60002-1.4182 21.273 1.4046 22.078 1.8682 0.51819 11.509-7.2411 13.241-10.159 0.17728-0.28637 0.13637-0.53183-0.12273-0.65457-2.9728-1.2682-12.246-11.864-14.523-11.264"/>
  <path d="m78.39 52.003c-0.69548 1.35-0.73639 2.291-0.16364 4.4183 0.30001 1.1182 0.80457 0.85912 0.70911-0.12273-0.12273-1.3091 0.01364-3.3001 0.24546-3.9956 0.43638-1.2409-0.17728-1.4864-0.79093-0.30001"/>
  <path d="m91.955 27.905c-4.432 2.7001-8.6594 5.632-11.387 8.0184-0.16364 0.13637-0.17728 0.31365-0.10909 0.47729 1.35 3.4774 2.4819 6.082 3.6819 8.6866-1.2137-0.12273-7.4048-0.9273-7.4048-0.9273-0.21819-0.02727-0.38183 0.12273-0.45001 0.32728-2.8365 8.6184-3.9138 14.073-4.3774 18.137l0.76366 1.3637c1.0091-6.7775 3.1092-13.405 4.9365-18.451 0.68184 0.05455 7.7593 0.96821 7.7593 0.96821 0.50456 0.04091 0.61366-0.21819 0.43638-0.61366-1.2955-2.7546-2.4273-5.632-3.8319-9.2321 2.9592-2.5637 7.8002-5.932 13.255-9.3821z"/>
 </g>
</svg>
