<?xml version="1.0" encoding="UTF-8"?>
<!-- Created with Inkscape (http://www.inkscape.org/) -->
<svg version="1.1" viewBox="0 0 404.21 326.86" xmlns="http://www.w3.org/2000/svg">
 <g transform="translate(78.185 20.364)">
  <path d="m221.19 89.796c-9.7965-1.6576-20.394-2.0859-31.736-0.81949 14.825 5.3267 25.478 20.561 26.633 21.493 1.2105 0.94987 5.4839-0.21957 6.6945 0.48807 1.0802 0.67048 5.8884 4.2322 7.5087 6.2064 0.63327-0.37268 1.3769-0.73882 1.6749-1.1299 1.5086-1.937-6.957-19.775-10.775-26.238" fill="#fbd375"/>
  <path d="m262.03 158.07c-1.3968-2.1046-0.17535-13.699 0.16001-16.642-3.1662-1.3596-7.9494-2.8245-12.363-2.899-6.7979-0.13028-17.911 4.915-22.977 3.2388-5.0658-1.6948-5.8821-8.7651-4.9137-14.539 1.0057-6.0529 5.4295-8.3084 8.3722-10.078-1.6204-1.9742-6.3696-5.7922-7.4684-6.4441-1.192-0.72638-5.5316 0.72633-6.7421-0.24235-1.1733-0.93124-11.808-16.166-26.652-21.493-1.6203 0.16748-3.2407 0.39098-4.8982 0.63322 3.9112 16.11 4.0974 34.399 0.29779 51.851 1.4899 6.1088 11.231 7.636 14.378 8.0457 3.2592 0.44699 0.44698 11.659 3.3897 15.44 6.6862 0.96845 12.627 1.9183 15.16 1.9183 10.858 0 26.018 6.5186 8.9211 24.826-1.937 2.0673-4.3209 4.3581-7.0773 6.4813 0.55902 5.5874 5.9784 13.317 11.324 16.036 0.28148-0.25874 0.37226-0.61878 0.44658-0.80501 0.503-1.2478 13.07-1.2499 25.418-0.70984 10.728-5.9784 23.287-21.6 23.752-35.159 0.20463-5.5501-17.076-17.299-18.529-19.46" fill="#be9c59"/>
  <path d="m274.5 114.53c-13.186-10.988-31.177-20.99-53.303-24.733 3.7993 6.4627 12.069 24.268 10.56 26.205-0.29779 0.39097-0.81949 0.76361-1.4527 1.1361-2.9427 1.7693-8.6232 3.8925-9.6289 9.9454-0.96851 5.7922 0.70768 13.987 5.7736 15.682 5.0659 1.6762 16.576-3.5014 23.374-3.3896 4.414 0.0931 8.1388 1.3596 11.305 2.7192 6.202 2.6446 10.337 5.6059 13.521 0.67042 0.0572-0.0743 0.0931-0.14919 0.13028-0.22349 3.4456-5.755 1.7694-20.58-0.27952-28.011" fill="#864b16"/>
  <path d="m297.89 142.58c-3.6318-7.6174-11.603-18.215-23.392-28.048 2.0487 7.4312 3.7249 22.256 0.27951 28.011 1.3781 1.8066 3.9669 4.6562 5.904 4.3209 3.3524-0.596 14.061-1.3596 18.773-0.81949-0.5213-1.192-1.043-2.3653-1.5645-3.4642" fill="#be9c59"/>
  <path d="m299.46 146.04c-4.7121-0.54016-15.421 0.2235-18.773 0.8195-1.937 0.33553-4.5258-2.5143-5.904-4.3209-0.04 0.0743-0.0743 0.14918-0.13028 0.22349-3.1848 4.9355-7.3195 1.9742-13.521-0.67049-0.33551 2.9241-2.0859 14.471-0.68911 16.576 1.4341 2.1604 19.723 13.223 19.518 18.792-0.48414 13.559-12.441 29.203-23.169 35.182 7.3008 0.31667 14.471 0.83807 18.997 1.3968 3.6131-15.887 26.801-29.818 34.846-23.206-1.8997-18.122-6.2951-33.524-11.175-44.792" fill="#fbd375"/>
  <path d="m202.62 164.94c-2.9427-3.7808-0.13028-14.993-3.3897-15.44-3.1475-0.40983-12.888-1.937-14.397-8.0644-1.639 7.5802-4.0415 14.974-7.2263 21.958 4.805-1.192 15.626 0.18634 25.013 1.5458" fill="#fbd375"/>
  <path d="m280.44 215.06c-0.33553-0.33553-2.0673-0.68912-4.6561-1.0057-4.5258-0.57737-11.696-1.0802-18.997-1.4154-12.348-0.54016-25.013-0.52129-25.516 0.74497-0.0743 0.16748-0.18634 0.46585-0.33553 0.8195-1.7507 4.3022-8.4369 20.226-15.328 27.136 0 3.073 0.11144 17.544-0.24235 24.1 8.7349-1.0988 17.377-2.9427 25.702-5.6618 0.0931 0.26065 0.16747 0.5213 0.26065 0.78217 7.1704-3.1661 22.592-11.454 26.819-16.334 1.341-1.4713 2.5702-2.9985 3.6877-4.5444 7.8968-10.914 10.299-22.927 8.6045-24.622" fill="#864b16"/>
  <path d="m278.03 253.14c-3.2593-3.3524-5.1776-8.7721-6.1833-13.466-1.1361 1.5458-2.3467 3.073-3.7063 4.5444-4.2278 4.8982-19.649 13.168-26.801 16.334 3.5201 10.486 2.6819 17.041 2.1046 19.63-0.596 2.6633-5.457 7.2077-4.7493 9.1819 1.2851 3.5573 31.271 10.467 56.227-1.7693 6.6117-10.076 7.2449-18.066 9.722-26.875-4.563-4.9355-17.47 1.788-26.614-7.5802" fill="#fbd375"/>
  <path d="m230.94 214.2c-5.3639-2.7192-10.765-10.448-11.324-16.036-4.7492 3.6877-11.007 6.5462-17.712 7.7009 4.1906 5.8108 1.0246 8.1485-3.1658 10.644-4.7306 2.8123-10.355 1.9183-15.179 2.6447 0 0-12.478 0.503-23.132 6.742-4.1533 1.4714-19.667-8.2506-24.119-11.808-2.086-1.6762-1.1174-5.2894-0.48414-7.8409-25.609 13.521-44.252 13.745-66.396 15.049 22.163 25.255 86.958 51.627 145.92 44.14 0.37269-6.5558 0.26065-21.046 0.26065-24.119 6.8911-6.8911 13.577-22.815 15.328-27.117" fill="#fbd375"/>
  <path d="m217.78 166.86c-2.5329 0-8.4928-0.94982-15.16-1.9183-9.3868-1.3596-20.208-2.7378-25.013-1.5458-5.3825 11.864-13.018 22.517-23.001 30.824 4.3395 5.4384 24.957 10.225 38.348 12.162 3.2593 0.48414 6.3897 0.38782 9.3509-0.11513 6.7048-1.1547 12.57-4.4108 17.319-8.0985 2.7565-2.1232 5.1403-4.414 7.0773-6.4813 17.079-18.308 1.9184-24.826-8.9211-24.826" fill="#864b16"/>
  <path d="m310.64 190.83c-8.0458-6.6117-31.233 7.3194-34.846 23.206 2.5888 0.33552 4.3022 0.68907 4.6561 1.0243 1.6762 1.6948-0.72634 13.708-8.6045 24.622 1.0057 4.6747 2.9241 10.113 6.1834 13.447 9.1446 9.3867 22.051 2.6633 26.614 7.5802 7.1332-25.404 8.1575-49.374 5.9971-69.879" fill="#be9c59"/>
  <path d="m202.3 206.26c-2.9613 0.50301-6.0902 0.596-9.3495 0.11198-13.391-1.937-34.008-6.7235-38.348-12.162-2.5143 2.0674-5.1404 4.0229-7.934 5.7736-3.7621 2.3653-7.3752 4.4327-10.839 6.2765-0.63327 2.5329-1.6017 6.1647 0.48415 7.8409 4.4512 3.5573 19.965 13.261 24.1 11.808 10.672-6.2392 23.132-6.7607 23.132-6.7607 4.8238-0.72633 10.467 0.16748 15.198-2.6446 4.1718-2.4957 7.7292-4.414 3.5573-10.243" fill="#be9c59"/>
  <path d="m64.784 221.5c0 2.9613 5.3266 50.696 5.9226 52.484-0.59597 2.5702-5.3266 5.7177-5.9226 7.6919 6.3137 12.236 56.097 7.8781 62.746-1.192 3.5387-11.044 6.7048-20.506 7.3008-22.685-12.758-3.0544-54.849-21.511-66.098-36.094-2.5702-0.20463-4.1533-0.40983-4.1533-0.40983" fill="#d9b766"/>
  <path d="m192.04 88.517c2.3653-5.5314 7.3008-12.423 9.275-13.019 14.006-3.5573 49.411 6.5 50.51 8.4741 1.3782 4.9354 3.9484 15.402 3.9484 17.172-20.319-11.249-58.704-12.944-63.733-12.627" fill="#864b16"/>
  <path d="m187.7 128.77c1.341-9.0887-0.33552-20.357-1.9742-30.377-1.6203-10.001-4.3022-18.215-10.262-26.838-15.533-1.6762-39.95-9.8337-52.856-15.998-10.281-6.295-34.511-22.498-61.33-28.253-26.447-5.6618-53.117-4.1719-75.075 4.2278-32.593 12.478-52.67 41.328-54.402 76.584-1.341 27.713 10.541 54.57 33.468 75.597 22.443 20.599 53.862 34.027 86.492 36.802 11.976 1.0057 24.622 0.63329 34.53-0.20463 18.736-1.5644 49.336-12.218 63.491-21.735 18.01-12.106 31.829-28.346 37.919-69.805" fill="#fbd375"/>
  <g fill="#864b16">
   <path d="m182.97 46.098c10.001-11.529 14.881-27.508 14.397-36.504-0.44698-8.679-4.6375-17.116-10.262-19.928-6.3137-3.1476-11.957-2.5143-20.506 0.9871-4.3395 1.7879-9.275 7.1145-11.845 8.1016 0.96852-7.0028-1.788-12.385-5.8108-15.328-4.3209-3.1289-10.765-3.0172-17.246 0.2978-8.828 4.5257-18.066 13.745-21.53 25.869-2.2163 7.7291-2.6819 15.067-2.7565 12.441-0.83808-3.0544-5.4197-7.636-7.9154-9.0142-0.94984-0.5213-2.9985 0.55902-3.3897 1.7507-1.0802 3.3152-1.8066 11.994 2.6261 19.09 0.91262-0.11198-3.9298 2.1604-7.8968 3.3524 10.765 4.9541 21.567 11.231 30.19 18.345 12.888 6.1647 37.919 14.322 53.452 15.998-2.8495-4.1532-2.7564-5.9225-4.3395-8.2879 9.1633 0.55844 16.464-3.5759 19.742-7.7105 1.6948-2.1232 3.0172-5.4384 2.8123-5.9784-0.33552-0.87535-4.9913-3.2779-9.722-3.4828"/>
   <path d="m62.311 59.273c-24.622 0-43.917 18.587-43.917 42.296 0 23.448 20.021 43.265 43.712 43.265 23.653 0 42.185-18.997 42.185-43.265 0-23.709-18.438-42.296-41.98-42.296"/>
   <path d="m-38.598 44.323c-3.9298-0.33553-10.43-0.72633-12.832-0.20463-16.147 15.998-22.498 25.422-25.646 51.31 0.96847 3.0544 6.202 10.653 8.5114 13.41 1.5831-24.901 12.87-49.895 29.967-64.515"/>
  </g>
  <path d="m160 32.891c1.7879 0.8567 3.9484 0.87533 6.2019 0.04001 4.8051-1.7693 9.3123-6.8538 12.404-13.968 4.4326-9.9827 3.371-20.468-2.2908-22.908-1.7507-0.74502-3.8553-0.68911-6.0902 0.16747-4.8051 1.8625-9.6288 7.1332-12.553 13.745v0.017207c-5.4942 12.348-2.6447 20.543 2.3281 22.908" fill="#fff"/>
  <path d="m122.07 22.285c5.8481 2.8868 13.149-1.8066 18.569-11.976 4.9728-9.3123 4.8796-19.518-0.22351-22.312-1.5458-0.83813-3.4083-0.94988-5.5314-0.33553-4.6747 1.3782-9.6661 6.1088-13 12.348-3.427 6.4254-4.6189 13.335-3.0731 18.066 0.67048 2.0301 1.788 3.4828 3.2593 4.2091" fill="#fff"/>
  <path d="m318.74 152.48c-4.2091 0.0743-11.845-2.4398-17.656-5.8853 1.3409 3.5573 2.5516 7.2263 3.6318 11.063 0.40983 1.4526 0.76361 2.9054 1.1361 4.3395 5.4756 0.81944 11.678-1.8252 14.676-3.874 7.1332-4.861 2.2536-5.7177-1.788-5.6432" fill="#d9b766"/>
  <path d="m61.989 72.051c-16.501 0-28.942 11.808-28.942 27.471 0 13.521 10.821 28.123 28.291 28.123 15.607 0 28.291-12.609 28.291-28.123 0-15.402-12.143-27.471-27.639-27.471" fill="#0f141b"/>
  <path d="m216.89 239.94c-0.42812 0.48414-0.85665 0.94982-1.285 1.3782 0 3.0916 0.11144 17.563-0.24236 24.119 8.7348-1.0988 17.377-2.9613 25.702-5.6618 0.0931 0.26065 0.16747 0.5213 0.26065 0.78223 7.1704-3.1662 22.592-11.454 26.819-16.334 0.29781-0.33553 0.57738-0.67049 0.8754-1.0057-21.288 2.2163-34.958 0.39097-52.13-3.2779" fill="#6a3906"/>
  <path d="m272.04 240.52c-0.0743-0.27951-0.13029-0.55846-0.20463-0.83808-1.1175 1.5458-2.3467 3.073-3.6877 4.5444-4.2278 4.8796-19.649 13.167-26.819 16.334 2.0859 6.1647 2.6447 10.951 2.626 14.397 14.453-5.6246 25.311-18.438 28.086-34.437" fill="#d9b766"/>
  <path d="m278.03 253.14c-3.073-3.1476-4.9541-8.1389-5.9971-12.627-2.775 15.998-13.633 28.812-28.067 34.437-0.0172 2.4212-0.29781 4.1719-0.5213 5.2335-0.596 2.6633-5.457 7.2077-4.7493 9.1819 1.2851 3.5573 31.271 10.467 56.227-1.7693 6.6117-10.076 7.245-18.066 9.722-26.875-4.563-4.9355-17.47 1.788-26.614-7.5802" fill="#fbd375"/>
  <path d="m135.82 206.26c-0.63322 2.5329-1.6017 6.1647 0.48414 7.841 4.4512 3.5573 19.965 13.261 24.1 11.808 2.2536-1.3224 4.6003-2.384 6.8725-3.2407-10.542-5.1217-20.543-10.97-29.762-17.321-0.57738 0.29781-1.1361 0.61464-1.6948 0.91261" fill="#a5874c"/>
  <path d="m167.28 222.67c-2.2722 0.8567-4.6189 1.9183-6.8724 3.2407-4.1346 1.4527-19.649-8.2693-24.1-11.808-2.086-1.6762-1.1175-5.308-0.48414-7.8409-25.609 13.521-44.252 13.726-66.396 15.03 22.145 25.255 86.958 51.627 145.92 44.159 0.35381-6.5744 0.26065-21.046 0.26065-24.119 0.42812-0.42812 0.8567-0.89398 1.2851-1.3968-17.153-3.669-33.971-9.6661-49.616-17.265" fill="#d9b766"/>
  <path d="m215.32 239.05s-13.41-17.954-31.364-19.537c-28.421 6.5186-30.19 7.1146-34.344 29.594 0.31665 1.0244 1.3596 5.3824 2.5329 10.728 2.2162 10.15 4.861 23.933 3.6876 25.683-2.3653 3.5386-8.8839 9.1633-8.2879 9.7592 9.1819 9.1819 46.636 14.49 62.15 4.1533 4.8237-10.02 5.8667-28.756 5.9412-42.762 0.0572-9.1819-0.31667-16.334-0.31667-17.619" fill="#fbd375"/>
  <path d="m-68.193 112.98c-1.5831 30.377 16.93 55.557 33.468 70.736 22.443 20.58 53.862 34.027 86.492 36.783 11.976 1.0243 24.622 0.65186 34.53-0.18634 16.185-1.3595 41.235-9.4984 56.861-17.824-74.647 15.607-184.9-26.763-211.35-89.509" fill="#d9b766"/>
  <path d="m20.987 117.72c8.2879 20.915 27.341 27.117 41.123 27.117 21.344 0 38.497-15.458 41.663-36.299-12.944 26.54-50.435 43.116-82.786 9.1819" fill="#6a3906"/>
  <path d="m-75.514 87.803c-0.74498 2.7564-1.2851 5.3266-1.5645 7.6175 0.96848 3.0544 5.9971 9.275 8.2879 12.031 0.35388-5.4011 1.192-10.746 2.4212-15.961-3.0917 0.18634-6.202-0.8567-9.1446-3.6877" fill="#6a3906"/>
  <path d="m64.36 281.76c1.2106-1.4527 6.0343-7.2263 6.4999-6.0157 0.48425 3.8552-0.24213 8.4182-1.192 9.6289-3.1475-1.4527-5.308-3.6132-5.308-3.6132" fill="#dcdddd"/>
  <path d="m80.266 287.55c-1.49-0.81949 6.1833-9.6847 9.4054-9.8896 3.8553-0.24235 13.261 8.1948 14.211 10.374-6.9842 2.4025-21.437 0.72633-23.616-0.48414" fill="#dcdddd"/>
  <g fill="#fff">
   <path d="m154.75 288.27c-1.6948 1.4527-7.1704 5.5874-7.189 7.0028 3.3338 4.3209 10.802 6.5 12.981 6.7421 2.1605-7.7106-5.7922-13.745-5.7922-13.745"/>
   <path d="m179.33 304.42c2.8868-9.6475 6.2579-15.905 13.261-15.421 6.9842 0.48414 10.839 10.839 11.082 13.242-8.679 2.6633-22.405 2.179-24.342 2.179"/>
   <path d="m242.97 283.21c-1.2106 1.2106-4.8238 5.5501-4.5817 6.742 5.5501 2.4212 8.437 3.1476 9.6475 3.1476 0-2.9054-5.0658-9.8896-5.0658-9.8896"/>
   <path d="m269.72 282.73c-3.1103 0.93124-5.55 10.374-5.7922 11.324 2.9054 0.48414 14.229-1.4341 16.632-1.9183-0.94988-3.3897-8.4369-10.132-10.84-9.4054"/>
  </g>
  <path d="m240.17 79.782c0.78223 1.937 4.6562 15.533-10.858 11.64 15.905 4.265 21.716 7.7664 25.609 9.7034 1.1547-5.0472-2.3282-16.296-3.5015-17.079-1.1547-0.7636-11.249-4.265-11.249-4.265" fill="#6a3906"/>
  <g fill="#0f141b">
   <path d="m111.55 33.085c-7.338-0.68911-17.544 0.76359-21.623 2.7006-9.0142-3.9112-18.233-6.8166-28.179-8.9584-26.875-5.7549-54.626-5.2893-76.994 3.2779-33.505 12.814-52.298 40.881-54.067 77.105-1.3968 28.402 9.6289 56.171 33.077 77.683 22.815 20.934 52.838 34.697 85.971 37.51 33.897 2.8682 67.365-4.1346 91.558-17.842 13.521-7.6546 9.9455-8.7721-3.8739-1.0988-23.169 12.832-52.912 18.438-85.561 15.682-32.63-2.775-62.392-15.849-84.835-36.429-22.927-21.046-33.599-47.455-32.258-75.168 1.7321-35.256 18.848-61.759 51.441-74.237 21.958-8.3997 48.61-9.9082 75.057-4.2278 26.838 5.755 51.012 18.438 68.091 35.74 5.3266 5.3639 6.7235 3.5386 1.6389-1.6203-10.318-10.448-23.225-19.202-37.677-25.851 5.7177-1.7135 12.013-2.3095 18.606-1.8625 5.8853 0.42869 7.5615-1.6576-0.37269-2.4025"/>
   <path d="m187.21 97.296c-2.179-13.335-8.4182-25.18-17.675-35.442-2.9986-3.3151-7.1146-3.3151-2.2908 2.1418 9.2005 10.374 15.272 22.61 17.377 35.554 1.6389 10.02 2.086 19.649 1.3969 28.812-1.0803 14.359 1.1361 14.825 2.8495 0.0172 1.2106-10.467 0-20.915-1.6576-31.084"/>
   <path d="m19.375 101.58c0-23.169 18.848-41.328 42.911-41.328 23.001 0 41.011 18.159 41.011 41.328 0 23.709-18.103 42.278-41.197 42.278-23.169 0-42.725-19.369-42.725-42.278m-3.073 0.04c0 24.584 20.692 44.904 45.518 44.904 24.622 0 45.053-19.146 45.053-45.202 0-24.454-20.301-43.376-44.587-43.376-25.348 0-45.984 19.22-45.984 43.674"/>
   <path d="m34.054 99.537c0-15.104 11.994-26.503 27.918-26.503 14.937 0 26.652 11.64 26.652 26.503 0 14.955-12.236 27.117-27.285 27.117-16.855 0-27.285-14.08-27.285-27.117m-2.8123-0.94982c0 16.222 13.782 30.377 30.097 30.377 17.172 0 29.594-12.143 29.594-29.427 0-16.147-12.721-28.812-28.961-28.812-17.228 0-30.73 11.435-30.73 27.862"/>
   <path d="m69.124 220.12c-0.42835-0.44698-3.6876 0.72633-3.2593 1.1733 19.872 20.077 52.167 35.238 87.815 42.222-0.37268-1.1175-0.74502-2.2349-1.1175-3.3524-33.878-7.189-65.409-21.809-83.438-40.043"/>
   <path d="m269.54 241.48c-11.454 11.957-30.023 19.016-53.322 21.735 0.0743 0.96846 0 2.5702-0.13029 3.4828 24.063-2.8309 43.153-11.193 55.091-23.653 5.2894-5.5501 3.669-7.1146-1.6389-1.5645"/>
   <path d="m183.77 88.346c-0.61457 0.13028-0.42812 3.0917 0.16749 2.9799 32.034-6.4254 99.734 6.7421 118.64 67.365 18.159 58.183 0.20463 108.86-5.7177 123.01-1.2106 2.8868-3.3897 5.6432-4.9728 6.2765-21.586 8.6417-48.61 3.8552-51.199 1.6576-0.13028-0.11198-0.29779-0.29779-0.31665-0.70775-0.0572-0.91261 0.57736-2.2349 1.6948-3.4455 1.6203-1.7507 2.5516-3.52 2.7005-5.1031 0.65191-6.9283-0.37267-14.08-2.8682-20.152-0.24237-0.57738-2.8309 0.33552-2.5888 0.91261 2.3281 5.6432 3.818 12.553 3.2035 19.034-0.0931 1.0616-0.85677 2.4212-2.1046 3.7994-1.5644 1.6948-2.9799 3.7435-2.8868 5.308 0.0572 0.91261 0.447 1.7134 1.1175 2.2722 3.222 2.7378 30.824 7.8968 53.843-0.89399 3.371-1.2851 5.2335-5.1962 6.4627-8.083 5.9971-14.322 25.422-66.396 7.0401-125.32-19.332-61.982-89.491-75.466-122.21-68.911"/>
   <path d="m199.76 75.202c-3.371 3.1289-6.8352 9.1074-8.7722 13.615-0.24236 0.57736 1.8252 1.4527 2.0674 0.89397 1.8439-4.3023 5.1031-9.9455 8.232-12.851 0.78223-0.72633 5.3453-1.5085 17.526 0.11144 15.738 2.0673 29.93 6.1647 31.177 8.1575 2.5329 4.0601 3.8367 10.765 4.712 15.179l3.2406 2.0859c-0.94989-4.861-2.6447-13.968-5.4011-18.382-2.2536-3.6132-21.418-8.3624-33.301-9.9455-10.951-1.4527-17.582-0.63322-19.481 1.1361"/>
   <path d="m166.76 49.893c-3.669 3.1662-3.073 5.8295 0.26065 2.4957 6.7794-6.7794 22.685-5.9226 24.081-2.2164 0.76367 2.0301-8.0829 14.006-23.169 11.957-0.63321-0.07429 0.596 2.5329 1.2293 2.6075 16.632 2.2535 26-12.348 24.473-16.092-1.7693-4.3209-17.991-6.4441-26.875 1.2478"/>
   <path d="m161.17-7.4684c-12.125 8.1948-22.722 26.112-20.543 47.343 0.48414 4.9169 2.6634 4.861 2.2908 1.6203-2.3467-20.692 8.977-39.484 20.692-47.399 7.6546-5.1776 16.688-6.4813 23.02-3.3338 5.6246 2.8123 8.828 8.8839 9.2936 17.563 0.48414 9.2564-4.5629 25.553-15.216 37.174-0.42871 0.48414 1.9742 1.0057 2.4025 0.54016 11.119-12.106 16.166-28.086 15.645-37.826-0.63322-12.087-6.6303-17.284-11.1-19.5-7.0586-3.52-18.159-1.8065-26.484 3.818"/>
   <path d="m155.68-1.3781c0.72633-7.2636-1.3038-13-5.7922-16.259-5.0286-3.669-12.367-3.6318-19.63 0.09314-9.3495 4.8051-18.736 16.315-22.368 29.017-2.3467 8.1948-1.9183 16.352 0.7636 22.405 0.76359-0.2978 1.5458-0.42812 2.328-0.44698-2.6073-5.4942-2.8309-12.739-0.55845-20.636 3.4642-12.125 12.05-23.765 20.878-28.272 6.4813-3.3338 12.925-3.4455 17.228-0.2978 4.1719 3.0358 5.8108 8.7722 4.6003 16.129-0.0931 0.63327 2.4771-1.0429 2.5515-1.7321"/>
   <path d="m97.252 12.054c-3.073 1.2479-5.9785 11.92 1.3596 23.225 0.33553 0.5213 2.2722-0.72633 1.9184-1.2664-5.8854-9.0702-4.8051-18.643-2.477-19.518 1.5086-0.596 7.5057 4.0787 8.4741 9.0887 0.11143 0.61464 1.7134-2.3466 1.2292-3.3152-2.6074-5.1217-8.2692-9.126-10.504-8.2134"/>
   <path d="m62.726 221.19c1.0616 11.156 6.4068 49.355 6.7048 51.888-0.01885 1.6762-1.1547 3.4455-2.6819 4.8238-3.5387 3.1848-4.5444 4.2836-1.2478 6.7607 9.1074 6.8166 30.228 7.0959 47.586 3.4269 5.3452-1.1175 12.851-2.7378 15.03-6.6117 4.9354-9.3868 7.934-22.331 8.1948-24.175 0.0931-0.63327-2.7192-1.0803-2.7937-0.46585-0.22351 1.5645-3.3152 13.95-8.083 23.02-1.3596 2.4212-5.9226 4.5816-12.814 6.0343-16.427 3.4642-39.093 1.9556-45.76-3.0358-1.2292-0.93119 0.09314-2.1046 1.3968-3.2779 1.7321-1.5645 3.8739-3.5014 3.8739-6.202 0-0.04-4.4885-41.141-5.5687-52.447-0.05599-0.63321-3.8366 0.22349-3.8366 0.26064"/>
   <path d="m213.83 240.52c0.85671 6.4441 0.72633 36.579-3.6877 54.868-0.68911 2.8123-1.732 3.7808-3.073 4.3768-12.441 5.4942-48.237 5.2708-56.916-4.0229-0.42814-0.44699-0.447-0.76359-0.447-0.96845 0.0931-1.0988 2.0114-2.6261 3.5572-3.8553 1.8811-1.5086 3.669-2.924 3.9298-4.6003 0.78222-4.9541-3.222-28.626-5.3452-35.219-1.8811-5.8108-3.5387-5.1776-2.1418 0.68911 1.6762 7.0401 5.9412 29.874 5.2521 34.195-0.13028 0.80086-1.7694 2.1046-3.0917 3.1661-2.0859 1.6576-4.8424 3.5573-4.9914 5.6619-0.0743 0.94982 0.2795 1.8624 1.043 2.6819 10.746 11.51 46.319 10.784 60.455 4.5258 2.2908-1.0057 3.5946-2.775 4.3581-5.904 4.2464-17.637 5.7363-44.196 3.6318-55.762-1.8624-10.169-3.2779-5.4011-2.5329 0.16747"/>
   <path d="m300.1 147.43c12.609 7.6733 22.722 5.6246 23.169 6.2765 0.26065 0.40983-0.74495 2.0673-3.9484 4.0415-2.9799 1.8066-9.4985 4.2464-14.695 2.7192-0.59594-0.16748 0.89399 3.2593 1.5458 3.3524 5.5502 0.80086 11.491-2.1605 14.453-4.2278 4.2836-2.9985 5.8294-6.2392 5.308-7.2636-0.80086-1.5272-13.801 0.85672-26.931-8.977-0.50301-0.37268 0.11144 3.4827 1.0988 4.0787"/>
   <path d="m-67.392 67.791c4.4513-8.9956 10.262-18.252 16.613-22.741 1.3037-0.9126 5.5501-1.1361 12.572 0.26065 0.63323 0.13028 2.626-2.7937 1.9928-2.8682-9.7779-1.3782-14.62-0.6519-16.39 0.87535-15.402 13.372-23.672 34.139-25.534 50.323-0.5401 4.6003 3.669 12.534 9.3681 17.6 0.46562 0.42813 1.4341-3.7808 1.1733-4.0043-2.1791-1.937-7.0959-8.232-7.8968-12.199-0.6146-2.9799 2.2349-15.421 8.1017-27.248"/>
   <path d="m183.64 218.32c-8.3625 0.503-30.544 3.52-32.593 17.675-0.503 3.4455 1.0802 4.8424 1.5645 1.3969 1.881-12.87 26.279-16.967 32.705-17.358 6.1275-0.37269 4.4512-2.086-1.6762-1.7135"/>
   <path d="m150.22 219.28c-5.6061 4.6561-8.8094 13.95-9.3122 16.706-0.72643 4.0602 0.59589 6.7048 1.341 2.6633 0.50301-2.7937 5.4942-15.458 10.579-18.792 3.8738-2.5329 0.94976-3.5386-2.6074-0.57737"/>
   <path d="m191.13 287.91c-6.1089 0.46586-11.994 7.2263-13.223 16.427-0.0931 0.63322 3.3152 0.40984 3.3897-0.2052 1.0616-7.9713 5.0845-13.596 10.001-13.968 4.7679-0.37269 9.126 4.2091 11.417 11.976 0.18635 0.59601 3.3338 0.13028 3.1475-0.46584-3.1103-10.56-10.132-14.117-14.732-13.763"/>
   <path d="m154.17 289.59c2.3653 1.0802 6.4813 6.4813 5.606 12.553-0.0743 0.61464 2.1604 0.93126 2.2349 0.31667 1.136-7.8781-3.5945-13.41-6.9097-14.918-0.55902-0.26064-1.49 1.788-0.93124 2.0487"/>
   <path d="m242.14 283.81c1.7321 0.78223 5.308 7.5988 5.1217 9.2191-0.0743 0.61464 2.4771 0.72638 2.5329 0.0931 0.2978-2.5329-4.0601-10.169-6.742-11.38-0.55902-0.24235-1.49 1.8065-0.91267 2.0673"/>
   <path d="m270.16 281.84c-2.9241 0.55845-5.0659 4.1905-6.9656 11.752-0.14918 0.61464 2.0301 1.1547 2.1977 0.54015 1.9555-7.8782 3.9112-9.8338 5.1963-10.076 2.4957-0.48415 6.295 4.3954 9.666 9.0329 0.35381 0.50301 2.1605-0.80086 1.8253-1.341-4.5072-7.1146-8.4555-10.579-11.92-9.9082"/>
   <path d="m70.115 276.96c0.37251 0.46585 0.44698 1.49 0.24213 2.7192-0.3911 2.1418-1.5645 4.3022-2.3653 4.8051-0.52148 0.33553 1.192 2.0674 1.7135 1.7321 1.6576-1.043 2.4584-3.8553 2.8682-6.1461 0.24212-1.341-0.26077-4.3395-1.2478-5.6246-0.39115-0.48414-1.6017 2.03-1.2106 2.5143"/>
   <path d="m89.464 276.24c-3.818 0.37267-7.2822 4.116-11.026 11.082-0.29797 0.54016 1.6948 1.6203 1.9928 1.0616 3.3524-6.2206 6.1833-9.126 9.1633-9.424 3.2779-0.33553 7.3194 2.477 12.981 9.0701 0.33553 0.40984 3.1848 0.29781 2.7937-0.18634-6.8352-8.232-11.547-12.031-15.905-11.603"/>
   <path d="m156.33 9.0218m4.265 22.48c-4.6003-2.2163-7.2262-9.9269-2.1605-21.567 2.7192-6.2206 7.1704-11.175 11.64-12.925 2.0487-0.8195 4.0043-0.87535 5.6059-0.16748 5.2522 2.2909 6.2392 12.162 2.1418 21.567-2.8682 6.6862-7.0401 11.473-11.491 13.13-2.0859 0.78222-4.0601 0.78222-5.7363-0.04001m-4.6003-22.647c-5.3639 12.292-2.7564 22.089 3.5015 25.124 5.6245 2.7192 15.682-1.8997 20.915-14.173 4.6747-10.709 2.7006-22.238-3.7994-25.069-6.0344-2.626-15.57 2.533-20.617 14.117"/>
   <path d="m120.77-0.83956m2.2163 21.996c-1.3596-0.68912-2.4025-2.0487-3.0172-3.9671-1.4154-4.4326-0.33553-10.933 2.8309-16.948 3.0917-5.8667 7.692-10.299 12.013-11.584 1.9555-0.59595 3.669-0.48414 5.1031 0.29781 4.712 2.626 4.8051 12.218 0.22349 20.953-5.0286 9.5357-11.752 13.95-17.153 11.249m-2.6447-22.07c-5.5874 10.616-3.9112 21.753 1.6016 24.51 6.6304 3.3338 14.639-1.3224 20.301-12.087 4.8982-9.3308 5.1963-21.008-1.2106-24.566-4.8238-2.6633-15.123 1.5272-20.692 12.143"/>
   <path d="m167.73 16.697c-0.74497 2.5702-0.0743 4.5444 1.1547 4.9355 1.3037 0.40983 2.9054-1.2851 3.5945-3.6504 0.72639-2.477 0.2052-4.4698-0.89397-4.8423-1.2478-0.42812-3.1103 1.0057-3.8552 3.5573"/>
   <path d="m132.89 6.1572c-0.96852 2.3094-0.7264 4.2464 0.44698 4.7306 1.1361 0.44699 2.6447-0.8754 3.52-2.98 0.93124-2.2349 0.78222-4.116-0.18635-4.6002-1.1547-0.57737-2.8309 0.57732-3.7808 2.8495"/>
   <path d="m115.59 201.37c-5.0287 5.5314-18.42 16.092-31.662 17.731-0.67048 0.0931 8.1762 0.48414 11.249-0.7636 10.504-4.3023 18.531-11.324 22.48-16.278 5.4384-6.7979 3.8925-7.2449-2.0673-0.68912"/>
  </g>
 </g>
</svg>
