<?xml version="1.0" encoding="UTF-8"?>
<svg version="1.1" viewBox="0 0 448.5 330.33" xmlns="http://www.w3.org/2000/svg">
 <g transform="translate(0 -.025)">
  <path d="m197.65 179.05q-8.65-7.65-11-18.1-0.55-2.55-0.5-6.55 0.05-3.55 0.5-6.5 2.65 6.85 10.35 12.75 8.1 6.2 18.8 9 13.2 3.45 26.5 1.45 14.5-2.25 21.7-10.15-0.8 3.15-2 6.4-1.5 3.8-3 6.05-6.25 9.1-17 13.15-11 4.1-24.1 2-11.6-1.85-20.25-9.5" fill="#d7a400"/>
  <path d="m205.05 127.1q9.3 3.35 31.45 8.05-0.05 1.6 0.25 7.6 0.35 6.35 0.6 8.05 0.3 1.65 1.05 1.15l1-1.25q1.9-3.05 6-14.35l7.55 1.2 5.4 0.65q4.55 4.25 5.65 11.65 0.8 5.25-0.2 11.3-7.7 7.85-22.5 9.85-13.25 1.8-26.2-1.6-10.7-2.8-18.45-8.7-7.8-5.85-10.1-12.9 1.35-5.65 4.95-11.05 3.7-5.55 8.8-9.3l4.75-0.35" fill="#d7a400"/>
  <path d="m331.45 56.4q6.25 9.6 8.5 19.95 2.35 10.5 0.1 19.85-2.7 11.3-10.95 20.1-8.4 8.95-21.5 14.15-4.75 1.95-13.9 4.5l-2.1 7.85q-2.05 7.15-3.25 9.45-0.65 1.25-1.05 1.3-0.85 0.05-1.2-3.8-0.65-7.6-0.65-13.4l-11.15 0.8-7.25 0.35-22.1-0.9q-2.1 6.3-5.2 13.6-0.8 2.1-1.65 1.9-0.8-0.2-1.1-2.05l-0.25-5.3-0.05-9.85-8-1.55q-19.65-4.15-36-11.3l-5.2 9.7q-2 3.8-2.9 3.45-0.95-0.3-0.5-4.65l0.65-7.95q0.4-6.2 0.1-4.55-23.45-12.25-33.55-28.5-6.2-10-7.4-19.7-0.95-7.7 1.1-18.6 1.6-8.35 8.75-16.95 8-9.6 20.55-16.2 31.6-16.7 77.2-7.85 6.35 1.25 17.9 4.7 12.2 3.65 15.9 5.55 15.35 6.5 27.1 15.65 11.85 9.15 19.05 20.25" fill="#8bc56c"/>
  <path d="m326.85 78.5q6.85-4.6 10.9-11.55 2.2 6.7 2.95 14.85 0.75 8.55-0.65 14.4-2.7 11.3-10.95 20.1-8.4 8.95-21.5 14.15-4.75 1.95-13.9 4.5 4-20.15 4.5-24.3 0.2-1.95-1.6-3.5-1.65-1.45-4.1-1.9-6.15-1.1-6.75 4.15l-0.2 16.75-0.1 10.2-11.15 0.8-7.25 0.35-22.1-0.9q-1.2 3.6 2.55-9.5l4.6-16.25q0.35-1.55-1.65-3.2-1.8-1.5-4.65-2.4-7.05-2.2-7.4 1.85-1.85 34.9-1.7 27.8l-8-1.55q-19.65-4.15-36-11.3l10.65-25.75q-1.2-4.75-5.3-6.55-4.4-1.9-6.75 2.6-0.65 1.25-3.2 12.9l-2.8 13.25q-11.3-5.9-19.95-13.2-8.95-7.55-14.05-15.75-6.35-10.25-7.8-18.9-1.2-7.4 0.75-17.8 1.2-6.3 4.25-11.3 3.3-5.55 10.65-12.7 0.75 10.1 5.6 19.05 4.45 8.3 12 14.85 0.4 0.35-2.3 6.15-3.2 6.85-3.8 9.5-1.7 5.85 2.25 10.25 1.7 1.85 3.55 2 2.05 0.15 3.5-1.8l2.5-9.75q2-7.95 2.95-9.9 13.75 8.7 33.7 14.1l-4.1 11.3q-3.35 9.5-3.65 12.15 0.35 3.35 6.1 4.7 5.9 1.35 7.6-2.5 2.85-18.3 3.95-23.2l14.7 2.75q14 2.25 22.85 2.9 0.35 0.05-1.25 11.15l-1.75 12.45q0.6 4.4 5.85 3.75 5-0.65 6.55-3.95l-0.65-11.85q-0.55-11.2-0.2-11.2 17.95 0.25 33.15-4.75l-0.7 12.65q-0.9 12.7-0.7 12.75 2.1 0.7 4.9-0.9 3.6-2 4.9-6.9l-1.05-10.05-1-9.9q7.9-3.2 12.25-6.15" fill="#78ab5e"/>
  <path d="m164 55.9q4 7.1 10.55 11.9-5.9 13.65-8.15 23.6-3.7-5.1-5.35-8.3-9.65-17.75-2.05-39.4 2.6 7.85 5 12.2" fill="#e85377"/>
  <path d="m247.85 47.4q6.5-1 7.2-0.05 0.25 0.6-3.95 5.35-4.25 4.85-5.6 4.9-0.3 0.05-1.35-0.65l-1.55-1.15q-1.2-1.25-1.85-3.6t-0.1-3q0.8-0.85 7.2-1.8" fill="#00a63c"/>
  <path d="m306.45 108.5-1 12.9q-4.65 2.3-9.6 3.85 3.05-14.2 4.3-26.25l7.1-1.95-0.8 11.45" fill="#e85377"/>
  <path d="m183.9 75.05 4.4 2.7 5.85 3.4q-1.3 4.25-3.2 11.8-2.1 8.5-3.65 15.95l-5.1-3.05-4.8-3.25q1-6.85 6.5-27.55" fill="#e85377"/>
  <path d="m237.9 20.55 4.35 0.7q1.35 0.45 1.45 1.05 0.05 0.5-0.8 1.6l-1.55 1.55q-1.3 0.8-8.25 3.15-7.05 2.4-8.15 2.4-1.8 0-5.6-2.25-4-2.4-4.55-4.3-0.1-0.45 0.15-1.3 0.3-1.05 0.95-1.4 1.4-0.85 7.5-1.25 6.55-0.4 14.5 0.05" fill="#00a63c"/>
  <path d="m206.9 43.5q4.5-2.3 9.95-1.05 5.55 1.3 8.35 5.95 1.85 3 1.85 6.4l-0.35 2.6q-1.1 4.35-5.15 6.7-4.8 2.8-10.75 1.15-6.1-1.6-8.8-6.4-2.25-3.95-0.95-8.35 1.35-4.7 5.85-7" fill="#fff"/>
  <g fill="#e85377">
   <path d="m285.45 100.8-0.1 26.5-9.15 0.95q0.55-12.75-0.25-27.1l9.5-0.35"/>
   <path d="m330.15 82.15q0.2 10.65-2.85 17.8-3 7.15-10.65 14.35-0.1-12.85-0.8-20.5 4.05-2 8.05-5.25t6.25-6.4"/>
   <path d="m254.9 99.85 5.1 0.5 5.1 0.35q-2.75 21.65-3.1 28.2l-14.6-1.35q5.7-19.1 7.5-27.7"/>
  </g>
  <path d="m244 147.1q-0.35-0.4 0.4-4.2 0.75-3.7 1.55-5.75l8.1 0.85 0.15 1.15q0 1.55-0.65 3.35-0.35 1-2.5 2.35-2.15 1.3-4.5 2l-2.55 0.25" fill="#009233"/>
  <path d="m190.4 11.3q-6.35 1.9-13.3 5.15-6.75 3.25-11.75 6.65-4.25-15-4.7-22.45 4.1 0.95 14.95 4.9 10.3 3.7 14.8 5.75" fill="#8bc56c"/>
  <path d="m284.1 20.4v0.95l-0.15 0.85-8.9 0.3-10.25-0.85q-1.7-0.6-4.2-3.05-2.5-2.5-2.35-3.45 0.1-0.65 3.6-0.7l7.35 0.45q10.9 3.65 14.9 5.5" fill="#00a63c"/>
  <path d="m340.2 76.25q-2.6-10.95-8.05-19.45l-2.35-3.55q7.75 0.25 30.85 3-14.1 15.5-20.45 20" fill="#8bc56c"/>
  <path d="m339.55 33.2q-6 12.05-10.4 19.5-8.35-10.65-16.7-17.1l27.1-2.4" fill="#8bc56c"/>
  <path d="m329.8 53.25 11.25 0.8q5.05 6.25 8.7 13.75-6.15 6.05-9.55 8.45-2.6-10.95-8.05-19.45l-2.35-3.55" fill="#78ab5e"/>
  <path d="m334.1 43.8-4.95 8.9q-8.35-10.65-16.7-17.1l11.3-1.2q6.15 4.3 10.35 9.4" fill="#78ab5e"/>
  <path d="m302.45 44.7-1.2 1.05q-2.4-0.2-12.7-6.95-10.25-6.75-9.85-7.8 0.2-0.75 7.55-0.05 7.2 0.7 9.6 1.6 1.45 0.55 4.9 2.8 3.7 2.4 3.95 3.25 0.15 0.6-0.5 2.55-0.75 2.15-1.75 3.55" fill="#00a63c"/>
  <path d="m280 76.9q-1.4-1.8-1.95-3.95-0.6-2.1-0.25-4.15 0.9-5.15 5.2-8 3.95-2.65 8.6-2.1 5.5 0.65 9.05 4.45 3.55 3.85 3.15 8.8-0.35 5.05-4.7 7.75-3.95 2.45-9.25 2.05-6.45-0.5-9.85-4.85" fill="#fff"/>
  <path d="m185.15 118.6-1.2 11.65-7.2 2.05q-19.15 5.35-31.6 7.4-19.85 3.3-37.35 1.65-22.85-2.15-38.65-16.25-10.6-9.5-19.2-26.05l-0.85-1.7q-9.4-18.1-17.3-26.5-10.3-10.95-28.65-18.6 10.5-2.3 22.9-1.6 13.2 0.75 21.9 4.75-2.25-9.6-10.7-24.1-8.1-13.8-13.45-18.3 19.25 3.3 36.45 17.95 13.05 11.1 17.45 20.55 3.5-4.3 9.85-10.8 7-7.2 9.4-8.65-0.95 11.3-0.95 19.25 0 13.85 1.9 23.6 1.9 9.95 6.15 17.35 4.55 8 11.25 12.55 6.9 4.7 16.75 6.3l13.15 1.25 11.15 0.05 10.85 0.3q5.65 0.45 10.5 1.95 2 1.25 7.45 3.95" fill="#00a63c"/>
  <path d="m177.7 114.65q2 1.25 7.45 3.95l-1.2 11.65-7.2 2.05q-15.65 4.4-26.65 6.5 13.8-12.85 9.45-26.4l9.1 0.4q4.75 0.5 9.05 1.85" fill="#009233"/>
  <path d="m153.75 34.1q-5.45 6.55-8.05 12.7-3.95-5.75-8.3-13.1-5.75-9.75-7.2-14.45l34.7 4q-5.95 4.5-11.15 10.85" fill="#8bc56c"/>
  <path d="m163.25 14.95q10.25-4.65 21.15-6.1l6 2.45q-6.35 1.9-13.3 5.15-6.75 3.25-11.75 6.65l-2.1-8.15" fill="#78ab5e"/>
  <path d="m137.3 33.55q6.4-6.85 14.15-12.05l13.45 1.75q-5.95 4.5-11.15 10.85-5.45 6.55-8.05 12.7-4.5-6.6-8.4-13.25" fill="#78ab5e"/>
  <path d="m218.25 264.8-7.55 11.15-6.65 9.1q-4.45 6.15-7.4 11.35-8.55 15.2-9.75 31.35-0.85-1.4-1.75-3.8-1.75-4.8-1.85-9.4-0.2-7.15 3.85-16.2 2.45-5.45 9.5-17.3l8.3-14.55q4.85-9.05 7.65-16.2 1.85 3.1 3.45 7.2 1.55 4.05 2.2 7.3" fill="#8bc56c"/>
  <path d="m212.6 187.9q1.7 0.75 6.5 1.4l6.1 0.65q10.9 14.3 10.9 30.6 0 10.2-6.4 24.65-0.9-5.85-5.25-14.05l-6.35-10.75q0.5-5.05-1.2-14.7-1.6-8.85-4.3-17.8" fill="#8bc56c"/>
  <path d="m212.6 187.9q1.7 0.75 6.5 1.4l6.1 0.65q5.7 7.5 8.5 15.85-3.5-4.75-8.35-6.35-5.35-1.7-9.35 1.75-1.35-6.45-3.4-13.3" fill="#78ab5e"/>
  <path d="m217.2 217.95q-5.9-10.55-6.95-15-1.8-7.3 2.2-14.75 5.85 19.9 4.75 29.75" fill="#78ab5e"/>
  <path d="m229.7 246.05q6.55-13.7 6.35-27.1-0.25-15.4-9.55-28 19.55 13.35 19.2 34.25-0.2 12.8-9.75 34.65l-3.55 7.6q-2.5 5.4-3.3 7.5 1.45-6.65 1.6-14.9 0.2-8.35-1-14" fill="#8bc56c"/>
  <path d="m241.85 207.55q-2.9-2.7-5.1-3.05-2.4-0.4-2.35 2.6-2.35-8.65-7.9-16.15 10.6 7.2 15.35 16.6" fill="#78ab5e"/>
  <path d="m204.9 184.7q3 1.6 7.4 3.05-3.95 7.75-1.6 16.8 1.6 6.05 7.7 16.6l5.5 9.35q3.15 5.6 4.65 10.2 3.3 10.2 2.4 22.25-1 13.4-7.05 23.6-9.25 15.6-28.6 20.3 17.15-9.35 21.9-23.8 3.05-9.15 0.75-19.45-2.25-10.1-9.15-19-14-18-14.8-33-0.8-14.7 10.9-26.9" fill="#8bc56c"/>
  <path d="m202.3 197.1q-3.25-0.3-6.05 0.6 2.7-6.8 8.65-13 3 1.6 7.4 3.05-3.2 6.25-2.3 13.2-1-1.85-1.9-2.25-2.65-1.35-5.8-1.6" fill="#78ab5e"/>
  <path d="m209.4 301.65 3.15-2.35 4.55-3.6q-0.1 5.1-1.3 10.05-1.4 5.7-3.95 9.35 0-4-2.45-13.45" fill="#8bc56c"/>
  <path d="m226.15 189.85q6.3-0.05 13.7-2.15 10.85 7.8 16.3 16.6 5 8.2 5 16.7 0 8.2-4.55 19-2.5 5.95-9.55 18.85-5.85 10.65-8.8 18.5-3.8 10.05-3.8 17.9 0 3.9 1.05 7.8-3.3-2.05-5.65-7.05-2.2-4.75-2.2-8.9 0-5.45 2.55-13.2 1.75-5.3 5.75-14.4 5.25-12 6.8-16.6 3.2-9.5 3.2-17.35 0-9.1-4.55-17.8-5.05-9.6-15.25-17.9" fill="#e85377"/>
  <path d="m226.15 189.85q6.3-0.05 13.7-2.15 5.7 4.05 10.15 8.75-5.85-2.7-9.7-0.35-2.65 1.3-2.5 5.85-4.75-6.45-11.65-12.1" fill="#c94768"/>
  <path d="m367.55 148.35q12.4-12.55 20.1-33.55 5 4.45 6.75 19.55 0.9 7.4 0.85 12.7 2.7-1.4 22.95-11.5 20.05-10.05 24.45-12.7-0.5 8.45-11.05 25.6-7.4 11.95-16.2 23 19.95 5.6 31.8 11.45-53.4 29.2-99.35 19.2-47.95-10.4-89-63.7l8.9-0.05-0.05-0.05 6.7-0.2 6.6-0.3q0.8 0.25 2.15 1.05l2.3 1.35 0.25 9.25q0.45 3.4 1.2 3.75 1.05-0.5 2.5-4.05l2.05-5.8q14.05 9.85 21.75 13.55 14.85 7.15 27.6 5.6 14.5-1.75 26.75-14.15" fill="#00a63c"/>
  <path d="m283.9 138.15 1.65 1 0.15 10.3q0.45 3.4 1.2 3.75 1.05-0.5 2.5-4.05l2.05-5.8q9.95 6.95 14.6 9.7-6.95 17.1 3.65 33.3-26.5-16.4-50.85-47.95l8.9-0.05-0.05-0.05 7.4-0.35 7.3-0.5 1.5 0.7" fill="#009233"/>
  <path d="m197.65 179.05q-8.65-7.65-11-18.1 16.4 17.15 41.6 18 10.2 0.3 19.5-2.3 8.75-2.45 13.85-6.6-5.35 9.55-15.45 14.75-12.3 6.35-28.25 3.75-11.6-1.85-20.25-9.5" fill="#f9be00"/>
  <path d="m211.05 139q0.85 0.05 2.65 1.4l2.35 1.95q0.45 0.75 0.45 5.8l-0.2 5.85q-0.05 0.8-1.45 2-1.45 1.2-2.9 1.55l-1.4-0.25q-2-3-3.35-7.75-1.2-4.4-0.8-5.65 0.45-1.25 2.1-3.05 1.7-1.85 2.55-1.85" fill="#009233"/>
  <path d="m192.4 122.55 9.1 4q-4.5 0.2-12.25 2l3.15-6" fill="#009233"/>
  <path d="m180.25 252.9q2.9 7.8 3.25 13 0.6 9.25-4.7 17.6-4.1-8.3-4.1-13.95 0-3.75 1.4-8.45 1.65-5.4 4.15-8.2" fill="#e85377"/>
  <path d="m159.65 278q-3-0.9-5.35-3.4-3.35-3.55-3.95-9.2 4.75 8.4 10.75 7.65 5.65-0.75 10.2-9.05 4.7-8.55 5.75-20.85l3.2 8.85q-6.8 12-4.95 22.2-2.5 2.7-7.2 3.8-4.65 1.1-8.45 0" fill="#8bc56c"/>
  <path d="m198.3 245.8q3.35-6.8 4-9.9l10 14.55q-2.5 6.8-11.05 21.8l-9.1 15.45q0.1-2.2-0.2-6.15l-0.4-6.2q1.5-4.85 2.35-10.45 0.9-6.3 0.7-11.85l3.7-7.25" fill="#8bc56c"/>
  <g fill="#e85377">
   <path d="m192.85 203.3q-0.15 2.4 0.5 7.25l1.4 7.55q1.9 8.25 7.25 17.25-0.45 3.65-3.9 10.6l-3.65 6.65-2.05-16.7q-1.45-11.95-1.6-17.2-0.25-9.45 2.05-15.4"/>
   <path d="m191.55 276.25 0.25 5.85 0.05 6.9q-6.7 12-8.15 19.6-1.25 1-4 2.15-2.55 1.1-4.7 1.6 9.15-8.25 9.15-14.8 0-1.95-1.75-6.35 2.4-2.8 4.95-6.95 2.7-4.4 4.2-8"/>
   <path d="m207.3 87.45q4.7 1.95 9.15 3.5-6.1 16.2-9.4 27.45-5.4-2.05-10.7-4.6l2.05-5.3 2.15-5.5 6.75-15.55"/>
   <path d="m227.9 94.3 11.2 2.9q-0.95 10.6-1.95 28.8-8-1.55-14.8-3.25 3.2-14.95 5.55-28.45"/>
  </g>
  <g fill="#c94768">
   <path d="m164.3 55.85q4.1 6.95 10.25 11.95-5.9 13.65-8.15 23.6-3.7-5.1-5.35-8.3-9.65-17.75-2.05-39.4 2.3 7.05 5.3 12.15"/>
   <path d="m305.45 121.4-5.25 2.3-3.75-1.5q2.65-13 3.7-23.2l7.1-1.95-0.8 11.45-1 12.9"/>
   <path d="m183.9 75.05 4.4 2.7 5.85 3.4q-2.4 7.9-5.25 20.5-7.55 0-11.35 0.15 1.15-7.05 6.35-26.75"/>
   <path d="m285.45 100.8-0.1 17.35-8.95-2.9-0.45-14.1 9.5-0.35"/>
   <path d="m330.15 82.15q0.2 10.65-2.85 17.8-3 7.15-10.65 14.35-0.1-12.85-0.8-20.5 4.05-2 8.05-5.25t6.25-6.4"/>
   <path d="m265.1 100.7-1.4 10.95-11-2.7 2.2-9.1 5.1 0.5 5.1 0.35"/>
   <path d="m207.3 87.45q4.7 1.95 9.15 3.5l-4.3 11.8-11.2-0.75q4.5-10.55 6.35-14.55"/>
   <path d="m227.9 94.3 11.2 2.9-0.75 8.95-12.3-1.9 1.85-9.95"/>
  </g>
  <path d="m179.7 197.05q6.3-10.6 17.8-17.25 2.65 2.3 7.1 4.75-6.95 7.25-9.55 15.7-4.25 7.65-4.25 17.7 0 3.6 0.8 9.05l1.4 9.65q0.35 2.6 0.75 11.8l0.4 10.4q0 18.3-10.55 31.05-8.6 10.3-20.9 14.05 8.7-7.2 14.1-15.6 6.65-10.3 6.65-20.25 0-7.3-2.5-13.75-7.7-20.25-7.7-33.5 0-13.05 6.45-23.8" fill="#8bc56c"/>
  <path d="m197.25 194.9-0.5-0.55q-1.8-2.25-5.1-3.5-3.45-1.3-6.8-0.85 5.35-6 12.65-10.2 2.65 2.3 7.1 4.75-4.5 4.8-7.35 10.35" fill="#78ab5e"/>
  <path d="m207.2 287.85q0-5.35 0.75-8l10.3-14.5q0.6 4.45 0.45 8.85-0.15 5.15-1.35 8.7-2.15 6.6-8.7 13.8l-0.9-4.35q-0.55-2.8-0.55-4.5" fill="#8bc56c"/>
  <g fill="#0d131a">
   <path d="m22.9 13.4q-0.5-0.55-0.4-0.95 0.1-0.45 1.1-0.3 18.85 3.6 36.05 17.25 15 11.95 18.2 21.85 0.8 2.4 0.5 3.6-0.35 1.2-1.05-1.25-3-10.2-17.5-22.1-16.1-13.25-34.25-17.35 11.05 12.15 18 26.65 4 8.35 5.75 15.2-2.3-0.7-2.45-1.2-2.35-8.3-6.3-16.25-6.8-13.7-17.65-25.15"/>
   <path d="m95.95 32.3 0.55-0.5 0.6-0.1 0.2 0.75-0.3 0.8q-9.35 14-12.45 29.65-3.05 15.3-0.55 34.45 0.05 0.3-0.95-0.5l-1.05-1.15q-2.2-19.6 1.1-34.4 3.25-14.55 12.85-29"/>
   <path d="m82.8 95.45q0.2 0.25 0.05 1.05-0.1 0.85-0.3 0.6-10.4-13.1-28.95-25.45-25.65-17-50.15-18.55-0.45-0.05-0.25-0.75 0.2-0.75 0.7-0.7 25.5 1.75 49 16.85 17.55 11.3 29.9 26.95"/>
   <path d="m435.25 178.75-13.15-4.2-6.65-2.05q-0.25-0.1 0-0.8 0.2-0.7 0.45-0.6l8 2.25q16.1 4.9 24 8.9 1.2 0.6 0 1.35-28.75 16.1-56.4 20.4-27.4 4.25-52.6-3.2-21.95-6.45-43-22.75-20.65-16-39.1-40.4-0.2-0.25 0.7-0.55l1.1-0.05q38.6 51.1 85.6 62.65 47.05 11.5 101.65-16.75-4.1-2-10.6-4.2"/>
   <path d="m395.4 147.9q-0.25 0.1-0.35-1.05t0.15-1.3q2.3-1.2 23.9-11.6 21.1-10.3 23.65-12.3 0.55-0.45 0.9-0.35 0.5 0.05 0.25 1.1-2.6 11.3-12.05 27.35-8.85 15.1-17.65 24.4-2.55 2.7-3.7 2.55-1.1-0.1 1.4-2.7 8.2-8.65 17.3-23.6 9.55-15.6 12.75-26.35-3.35 2.2-23.65 12.4-20.6 10.25-22.9 11.45"/>
   <path d="m387.35 113.7q0.7 0 0.8 0.8 1.55 16.5-3.85 36.75-6 22.6-16.3 28.85l-1.55 0.35-1.05 0.05q9.45-5.35 16.35-28.2 6.45-21.5 4.95-36.95l0.15-0.95q0.25-0.65 0.5-0.7"/>
   <path d="m366.3 180.95q-0.3-0.1-0.1-0.8t0.5-0.6q16.4 4.75 36.75 5.75 23.05 1.1 42.75-3.25 0.3-0.05 0.8 0.6t0.2 0.7q-43.75 9.75-80.9-2.4"/>
   <path d="m199.8 127q0.25-0.15 1.25 0t0.75 0.3q-8.75 6-12.6 15-3.85 8.95-1.75 18.4 2.35 10.45 10.6 17.8 8.2 7.4 19.7 9.25 13.1 2.15 23.6-1.6 10.5-3.8 16.6-12.75 5.2-7.65 5.55-16.85 0.35-9.15-4.25-16.9l1.45 1.3q1.7 1.7 2.15 2.75 3.3 7.35 2.35 15.85-0.95 8.45-5.65 15.35-6.35 9.35-17.25 13.25t-24.45 1.7q-12-1.9-20.95-9.75-9-7.9-11.45-18.75-2.2-9.85 1.85-19.55 4.1-9.65 12.5-14.8"/>
   <path d="m186.45 147.9 0.3-1.15q0.4-0.9 0.45-0.6 1.85 7.35 9.6 13.4 7.6 5.95 18.75 8.9 13.15 3.4 25.8 1.8 14.3-1.85 21.95-9.85 0.2-0.2 0.45 0.5l0.05 0.9q-8 8.35-22.35 10.35-12.8 1.75-26.4-1.85-11.55-3.1-19.2-9.1-7.55-6-9.4-13.3"/>
   <path d="m203.8 184.35q0.25-0.2 1 0.3 0.7 0.55 0.5 0.75-11.75 12.1-10.5 27.05 1.2 14.9 15.4 33.2 6.85 8.8 8.85 18.4 2 9.65-1.1 18.9-2.35 7-7.25 12.8-4.8 5.75-11.35 9.35 15.75-5.35 23.65-18.65 6-10.1 6.85-23.7 0.7-11.95-2.65-22.3-1.55-4.8-4.3-10.25l-5.2-9.35q-6.55-11.3-8-16.75-2.4-8.95 2.25-17.05 0.15-0.25 1.15 0.2 1.05 0.4 0.85 0.65-4.95 6.6-2.7 15.55 1.45 5.8 7.75 16.65l5.7 9.9q3.25 6.1 4.8 10.9 3.35 10.3 2.25 22.45-1.2 13.35-7.5 23.9-4.4 7.4-9.65 11.7-5.45 4.5-13.7 7.2-5.6 1.85-6.1 1.1-0.55-0.8 4.95-4.1 5.9-3.55 10.25-8.85 4.4-5.4 6.55-11.85 2.95-8.85 1-18.15-1.95-9.25-8.5-17.75-12.35-15.9-15.3-28.55-2.25-9.55 0.3-17.95 2.5-8.2 9.75-15.7"/>
   <path d="m197.05 179.2q0.25-0.15 0.75 0.6 0.45 0.75 0.3 0.85-11.55 6.6-17.45 16.75-5.95 10.15-5.95 23.35 0 14.6 7.05 33.1 2.45 6.35 2.45 12.85 0 10.15-5.7 20.05-4.95 8.6-13.15 15.4 11.1-3.95 18.85-14.65 9.4-13.1 9.4-31.45l-0.3-6.5-1.35-12.3-1.4-10.05q-0.75-5.8-0.75-9.5 0-11.5 5.95-20.6 0.2-0.25 0.45 0.45l0.15 0.95q-4.45 7.35-4.7 17.7-0.1 5.65 1.75 20.85l1.5 12.95q2.1 23.45-9.9 39.25-9.65 12.65-22.95 15.4-1.7 0.35-1.4-0.35 0.15-0.5 0.8-0.95 11.8-8.6 17.5-20.55 6.8-14.4 1.45-28.4-10.45-27.35-6.45-45.7 4.05-18.5 23.1-29.5"/>
   <path d="m160.95 273.75q-5.85 0.75-9.65-6.1 2.15 7.65 8.95 9.7 3.9 1.1 8.1-0.15 4.15-1.2 6.65-4.2 0.25-0.25 0.55 0.65t-0.1 1.3q-2.9 3-7 4.1-4.25 1.15-8.4-0.05-3.65-1.05-6.2-3.85-2.6-2.9-3.7-7.05-1.05-3.95-0.2-4.15 0.8-0.15 2.8 3.3 3.2 5.65 8.05 5.05 6.1-0.8 10.65-10.35 4.85-10.25 4.6-24.45l0.7 2.15q0.75 2.6 0.7 3.7-0.7 12.9-5.7 21.55-4.7 8.05-10.8 8.85"/>
   <path d="m175.7 269.45q0 3.7 1.2 7.5 0.85 2.8 2.7 6.45l-0.75 1.35q-4.15-7.95-4.55-13.9-0.7-9.35 5.65-20.15 0.15-0.25 0.5 1l0.15 1.5q-4.9 8.7-4.9 16.25"/>
   <path d="m182 291.35 1.1-0.9q1.65 3.8 1.65 6.8 0 6.75-8.15 14.1 4-1 6.95-3.45l-0.15 1.7q-3.65 2.65-9.25 3.7l-1.15-0.15 0.9-0.8q7.2-5.85 8.85-11.35 1.35-4.4-0.75-9.65"/>
   <path d="m191.2 281.55-0.1-7.35 1.4-2.65 0.1 2.85-0.05 13.05q-0.9 1.2-1.7 3 0.35-4.05 0.35-8.9"/>
   <path d="m201.1 233.65q0.05-0.4 0.9 0.85 0.8 1.2 0.7 1.7-0.6 3.6-2.3 7.3l-3.15 6q-2.2 4.1-3.1 6.55v-3.75l1.8-3.5q2.3-4.4 3.2-6.75 1.55-4.1 1.95-8.4"/>
   <path d="m211.85 188.3q-0.05-0.3 0.65-0.5l0.75 0.05q5.65 17.8 5.65 31.7v2.1l-1.9-2.4q-0.1-14.9-5.15-30.95"/>
   <path d="m210.2 275.45 8.15-11.85 0.45 2-7.4 10.7q-12.7 18.05-17 26.7-7.25 14.5-5.9 26.3 0.1 0.95-0.45 1.05-0.6 0.1-1.45-1.5-6.3-11.9-2.3-25 2.25-7.4 12.55-24.7l7.95-13.95q4.35-8.25 7-15.65l1.1 1.6q-2.8 7.35-7.3 15.75l-8.05 13.9q-7.25 12.25-9.55 17.2-4.05 8.95-3.9 16.1 0.15 4.65 1.45 8.5 0.65 1.9 1.25 2.8 0-11.2 7.2-24.85 4.35-8.25 16.2-25.1"/>
   <path d="m223.6 189.65 2.1-0.2q11 14.35 11.4 29.5 0.35 12.7-6.85 27.5l-0.8-2.1q5.85-12.75 5.85-23.9 0-15.95-11.7-30.8"/>
   <path d="m238.4 187.85 2.9-0.25q22.25 15.9 20.7 35.95-0.6 7.95-5 17.9-2.35 5.45-9.1 17.75-8.35 15.3-10.65 22.25-3.9 11.7-0.75 21.3l0.75 2.15q0.2 1-1.2-0.15-9.9-8.35-8.85-20.55 0.65-7.8 7.7-23.9 4.85-11 6.7-16.65 3.2-9.7 3.35-17.55 0.35-20.2-19.6-35.55-0.2-0.2 0.25-0.8t0.65-0.4q11.15 8.6 16.3 17.9 4.7 8.45 4.7 17.85 0 7.9-3.4 17.8-1.65 4.85-7 17.05-4.2 9.7-5.7 14.1-2.5 7.4-2.5 12.8 0 8.5 6 14.65-1.1-3.75-1.1-7.75 0-7.6 4.05-17.35 2.4-5.85 9-17.9 6.7-12.25 9.25-18.45 4.25-10.3 4.25-18.6 0-8.95-4.8-16.8-5.35-8.8-16.9-16.8"/>
   <path d="m207.3 280.5q0.1-0.35 1.05-0.9l0.85-0.45q-1.25 4.1-1.25 8.55 0 3.4 0.9 8.1l-1.25 1.25q-2-9.2-0.3-16.55"/>
   <path d="m216.45 296.8q0-0.45 0.75-1.4 0.7-0.9 0.75-0.6 0.7 9.9-3.95 18.65-2 3.85-2.5 3.7t-0.6-4.35q-0.05-3.35-1.9-10.1l-0.2-0.85 1.25-0.95 0.4 1.4 1.35 5.6q0.6 2.95 0.6 5.1 4.05-8.55 4.05-16.2"/>
   <path d="m202.95 126.65q1.3 0.55 1.65 1.3-5.8-0.2-15.75 2l0.9-1.9q6.55-1.5 10.6-1.7 1.25-0.3 2.6 0.3"/>
   <path d="m176 131.6 7.65-2.05-0.15 1.6-7.1 1.9q-20.95 5.8-32.35 7.75-20.7 3.55-38.15 1.4-23.15-2.9-38.5-17.45-9.6-9.15-18.65-26.6l-0.9-1.75q-9.55-18.55-17.35-26.25-9.9-9.75-29.8-17.2-0.5-0.2-0.65-0.65-0.25-0.55 0.75-0.8 12.75-2.65 27.7-1.35 16 1.35 22.35 6.5 1.4 1.1 1.45 1.95 0.1 0.85-1.25-0.3-5.85-4.75-19.95-6.35-13.2-1.45-25.55 0.55 18.35 7.2 27.5 17.2 6.2 6.8 16.15 26.05l0.85 1.7q8.4 16.15 19.2 25.75 15.7 13.9 38.6 16.75 17.35 2.15 36.95-1 11.3-1.85 31.2-7.35"/>
   <path d="m229.05 132.5 7.2 1.35-0.05 2.45-6.35-1.25q-13.2-2.75-25.25-7.1l-4.25-1.6q-4.35-1.7-8.1-3.45l0.8-1.75q16.25 7.15 36 11.35"/>
   <path d="m173.25 120.25q6.65-0.4 11.5-0.25l-0.2 1.45q-4.65-0.15-11.3 0.3l-12.4 1.05-29 2q-16.65-0.15-27.9-5.55-11.25-5.45-18.6-17-4.2-6.65-11.05-23.55-8.75-21.55-16.2-32.55-12.7-18.7-34.2-32.15-0.2-0.1 0.2-0.7 0.45-0.6 0.65-0.5 21.8 13.65 34.2 31.2 8.55 12.15 16.65 33.6 5.85 15.6 10.75 23.1 7.2 11.05 18.3 16.45 11.1 5.35 27.4 5.8l28.65-1.6 12.55-1.1"/>
   <path d="m366.85 147.5q11.65-12.15 19.65-34 0.2-0.55 0.65-0.6 0.5 0 0.95 0.5 4.25 4.85 6.65 17.85 2.45 13.5 0 21.75-0.8 2.8-1.6 2.85-0.75 0.05 0.05-2.6 1.1-3.8 1.1-9.25 0-7.8-1.95-16.25-1.9-8.4-4.6-12.4-7.55 21.9-19.8 34.2-11.85 11.85-27 13.7-10.05 1.2-19.8-2.45-10.9-4.1-29.5-17l0.55-1.9q18.65 12.45 29.35 16.7 10.05 3.95 19.05 2.85 14.65-1.8 26.25-13.95"/>
   <path d="m284.3 137.25 0.9 0.4v1.95q-2.35-1.4-4-2l3.1-0.35"/>
   <path d="m392.85 171.45q-26.9 15.15-53.95 10.5-15-2.6-28.65-11.4-7.95-5.15-20.8-16.8l-1.2-1.05 0.7-1.4 1.5 1.35q12.45 11.25 20.15 16.2 13.05 8.35 27.8 10.85 26.8 4.65 53.55-10 26.6-14.5 50.15-46.4 0.2-0.25 0.7 0.2 0.55 0.4 0.35 0.65-24 32.5-50.3 47.3"/>
   <path d="m277.7 143.8q-4.2-3.05-7.95-4.7l3.2-0.1q5.3 2.9 12.4 9.15l0.25 2.15-7.9-6.5"/>
   <path d="m284.85 135.5 0.05 2.4-15.15 1.2q-11.95 0.25-24.55-1.45l0.8-2.3 21.05 1.35h0.7l17.1-1.2"/>
   <path d="m165.95 111.45q4.05 0.25 7.75 1.05l4.65 3.05q-4.85-1.5-10.7-1.95l-11.05-0.3-11.1-0.15-13.05-1.35q-20.2-3.25-29.25-18.95-4.15-7.2-5.95-17.75-1.7-9.7-1.7-23.95 0-7.75 0.8-18-9.25 8.05-18.55 19.35-0.2 0.25-0.55-0.7t-0.15-1.2q3.8-4.65 8.95-9.85 5.4-5.45 10.7-9.9 0.7-0.6 1-0.5t0.2 1.15q-3.8 43 8.05 62.25 8.45 13.6 26.65 16.6l13.45 1.1 11.5-0.15q5.55 0 8.35 0.15"/>
   <path d="m340.05 71.1q4 13.2 0.95 25.95-3.45 14.55-16.05 24.85-12.35 10.1-31.25 14.4l0.65-2.55q17.2-4.1 28.65-13.2 12.75-10.05 16.2-24.65 2.95-12.35-1.55-25.45t-15.75-24.75q-25-25.85-70.6-34.5-38.1-7.2-68.65 4.45-14.45 5.5-23.9 14.55-9.75 9.35-12.8 21.2-2.45 9.6-0.9 19.15t7 18.3q10.4 16.75 33.15 28.6l-0.25 1.8q-25.4-12.75-36.2-31.75-10-17.6-5.2-36.25 3.25-12.65 13.15-22.45 9.6-9.5 24.35-15.15 30.9-11.9 70.95-4.15 48.45 9.45 73 36.2 10.95 11.85 15.05 25.4"/>
   <path d="m248.55 127.15 13 1.1q0.45-7.9 2.8-26.6l-9.15-0.9q-2.8 13.1-6.65 26.4m36.25-0.1q0.05-13.95 0.45-25.3l-9 0.35q0.85 15.55 0.35 25.95l8.2-1m20.2-6.15 1.35-16.9 0.35-5.8-6.05 1.5q-1.3 11.5-4.15 24.55 4.1-1.3 8.5-3.35m-66.35-23.15-10.3-2.6q-1.5 8.8-5.3 27.15l13.55 2.95q0.65-11.85 2.05-27.5m-23-6.65-7.85-3q-2.2 4.9-6.65 15.5l-4.1 9.55 9.9 4.1q3.9-13.4 8.7-26.15m-22.3-9.65q-7.75-3.95-9.4-5.05-4.3 15.95-5.7 25.4 4.05 3.1 8.65 5.95 3.3-16 6.45-26.3m-19.75-12.75q-5.7-5.15-9.45-11-3.8-5.9-5-11.6-3.55 9.6-2.75 19.2 0.75 9.65 5.9 18.55 1.7 3 4.15 6.2 2.95-12.15 7.15-21.35m153 30.8q3-7.2 2.9-15.45-4.4 6.25-12.95 10.35 0.9 9.8 0.95 17.95 6.05-5.65 9.1-12.85m5.65-24.4q0.9-2.9 1.15-1.85 0.3 1.05-0.55 4-0.7 2.3-1.8 4.3 0.25 3.8-0.25 8.7-0.9 7.4-4.6 14.2-3.5 6.45-9.5 11.4l-0.75 0.4q-0.15-0.1-0.15-0.8-0.4-17.6-0.95-23.75-0.95-11-2.5-17-0.65-2.6-1.05-2.8-0.5-0.25-1 2.55-0.9 5.1-1.3 12.3l-0.6 12.4-1.3 21.65q-0.1 0.75-0.4 1.1l-1.25 0.8q-4.6 2.1-9.35 3.45-0.35 3.55-3.1 14-3.55 13.35-6.25 14.05-1.45-0.65-1.85-12.3l-0.1-13.25-8.35 0.95q-0.9 0.1-1.15-0.2-0.2-0.25-0.15-1.25l0.1-7.35v-6.45q-0.25-10.9-0.9-19.1l-0.8-9.8-1.45-9.65q-0.45-2.3-0.7-2.4-0.4-0.2-1.15 2.65-2.5 8.85-5.4 33.55l-1.8 19.3-0.3 0.75-0.85 0.15-13.8-1.2-2.7 8.8q-3.2 9.95-6.2 14.85-0.5 0.7-1.15 0.75-0.85 0.05-1.15-1.65-0.65-3.85-0.75-9.55-0.15-4.35 0.4-15-7.05-1.3-14.45-3.2-0.85-0.2-1-0.5t0.05-1.4q4.55-20.65 6.35-31.15 2.65-15 2.8-21.55 0.05-3.55-0.6-4.05-0.75-0.6-2.6 2.85-2.45 4.6-6.1 13.75-3 7.45-5.35 14.05l-3.6 11.05-3.4 11.1q-0.35 1.15-0.7 1.3l-1.7-0.2q-5.8-2.05-9.95-3.95-9.85 22.35-12.3 21.4-1.3-0.45-0.35-9.1 0.8-7.4 2.8-17.45-1.9-1.1-5.9-3.9l-3.85-2.7q-0.45-0.3-0.4-1.3 0.6-5.6 8.4-33.6l3.7-13.45 1.65-6.15q0.25-1.6-0.65-1.25-1 0.4-3.1 2.9-5.45 6.55-10.7 17.55-3.6 7.5-8.1 25.1l-0.4 0.85q-0.3 0.15-0.8-0.55-3.6-4.85-5.7-8.25-5.55-9.3-5.95-20.9-0.4-11.25 4.1-21.4l-0.05-0.7q-0.05-2.7 0.55-4.5 0.65-1.8 0.55 1.05-0.35 14.65 14.75 28.2 4.05-8.55 8.75-14.8 3.85-5.05 5.9-6.05 2.2-1.05 2.2 0.15 0 2.3-1 6.6l-4.3 16-1.55 5.75 9.7 5.75 0.85 0.7-0.05 1.15q-4.75 16.5-8.1 34.2-3.35 17.45-1.95 17.85 1.65 0.6 21.05-46.95l0.6-0.8 1.2 0.2 8.35 3.1q4.5-11.85 8.2-19.15 4.05-7.9 5.9-8 2.5 0.8-0.15 21.3l-1.5 9.75 10.5 2.6q1 0.2 1.25 0.75l0.05 1.35-1.05 11.05q-1.1 10.95-1.3 14.55-0.55 10.5-0.6 18.4 0 9.1 0.75 9.15 0.85 0.05 6.15-17.4 5.6-18.4 9-33.5 0.25-1.1 0.65-1.45l1.05-0.2 9.5 1 1-7.2q3.3-21.95 6.05-21.8 1.3 0.05 2.6 8.95 1.2 8.2 1.9 20.5 5.3 0.1 9.55-0.2 1.4-0.05 1.35 1.65-0.45 16.1-0.6 30.55-0.15 19.95 0.6 20 1.25 0.05 5.3-17.05 4.35-18.45 6.4-35.05 0.1-1.15 0.35-1.45 0.2-0.3 1-0.5l6.75-1.7q2-28.25 4.2-27.05 1.65 0.95 3.1 7.8 1.3 6.05 2.25 15.4 12.3-6.3 15.85-17.55"/>
   <path d="m339.3 31.9 1.3 0.1q0.2 0.25-0.25 1.15l-2.6 6.7q-3.25 7.65-6.8 13l-2.45-0.05q4.15-7.15 9.95-19.15l-26.1 2.45-1.15-0.85q-0.85-0.9-0.55-0.95 8.2-1.25 28.65-2.4"/>
   <path d="m362.15 55.55q0.2 0.35-0.2 0.9-12.4 15.85-21.45 21.35-0.2 0.15-0.5-1.05t0-1.4q7.25-4.9 19.65-18.75-20.5-2.55-29.85-2.7l-0.75-0.85q-0.6-0.9-0.3-0.9 9.85 0.05 32.75 3.05 0.5 0.05 0.65 0.35"/>
   <path d="m177.8 5.05q12.7 4.4 14.15 6.05 0.2 0.2-0.7 0.6l-1.2 0.25q-2.7-1.55-13.1-5.25-10.55-3.8-15.2-4.85 0.3 5.05 2.35 13.55 1.05 4.3 2.05 7.65l-0.8 0.9q-22.35-3-34-3.75 1.45 4.8 7.3 13.85l8 11.85q-0.65 3.35-0.85 3-3.55-5.25-7.35-11.4-7.6-12.4-8.75-17.15-0.35-1.35-0.15-1.6 0.15-0.3 1.15-0.25l18.3 1.45 14.55 1.75q-1.05-3.75-2.1-9.05-1.35-7-1.5-11.6 0-0.8 0.2-0.95t1.1 0q4.55 0.8 16.55 4.95"/>
   <path d="m217.9 41.05q5.3 1.2 8.2 6.35 2.9 5.05 1.55 10.25-1.5 5.7-6.85 8.2-4.9 2.25-10 0.85-6.65-1.8-9.5-6.35-2.8-4.45-1.2-10.1 1.45-5.1 6.75-7.8 5.25-2.75 11.05-1.4m6.85 7.55q-2.65-4.45-8-5.7-5.2-1.2-9.55 1-4.4 2.2-5.65 6.75-1.25 4.25 0.9 8.05 2.65 4.55 8.5 6.15 5.7 1.55 10.3-1.1 3.9-2.35 4.95-6.5l0.3-2.5q0-3.25-1.75-6.15"/>
   <path d="m276.75 68.2q0.95-5.55 5.7-8.7 4.4-2.95 9.4-2.35 5.6 0.65 9.4 4.75t3.6 9.15q-0.2 5.45-3.65 8.9-4.05 4.05-11.1 3.4-6.9-0.65-10.65-4.95-3.7-4.25-2.7-10.2m6.55-7.05q-4.15 2.75-5 7.7-0.35 1.95 0.25 4 0.55 2.05 1.85 3.8 3.3 4.15 9.5 4.65 5.1 0.35 8.85-2 4.2-2.6 4.55-7.4 0.4-4.75-3-8.45t-8.7-4.3q-4.5-0.5-8.3 2"/>
   <path d="m290.45 68.7c0.4 0.03333 0.75582 0.21846 1 0.5 0.20719 0.2389 0.3581 0.58916 0.3 0.9-0.11528 0.6167-0.4 1.4167-1.2 1.45-0.43333 0.03333-0.78333-0.11667-1.05-0.45-0.23333-0.26667-0.35-0.58333-0.35-0.95 0-0.33333 0.1-0.65 0.3-0.95 0.26667-0.33333 0.6-0.5 1-0.5"/>
   <path d="m214.25 52.35c0.4-0.03333 0.73333 0.08333 1 0.35 0.3 0.3 0.45 0.65 0.45 1.05 0 1.1-0.45 1.65-1.35 1.65-0.43333 0-0.8-0.16667-1.1-0.5-0.23333-0.3-0.35-0.61667-0.35-0.95 0-0.4 0.0702-0.76771 0.3-1.05 0.24945-0.30641 1.05-0.55 1.05-0.55"/>
  </g>
 </g>
</svg>
