<?xml version="1.0" encoding="UTF-8"?>
<!-- Created with Inkscape (http://www.inkscape.org/) -->
<svg version="1.1" viewBox="0 0 230.66 237.72" xmlns="http://www.w3.org/2000/svg">
 <g transform="translate(-9.8887 -30.65)">
  <g fill="#a5884d">
   <path d="m40.514 204.13c0.40704 1.1358 0.21699 2.006-0.20053 2.5024 0.65396 0.87096 1.0236 1.6735 1.0236 3.1094 1.7052-0.72279 2.6239-2.9247-0.82307-5.6118"/>
   <path d="m38.457 205.4c0.428 1.0131 0.65995 2.0747 0.76621 3.215 0.8919 0.96672 1.531 1.8951 1.9797 2.7927 0.2963-3.3418-0.3427-4.5878-2.7451-6.0078"/>
   <path d="m37.194 220.93c0.66445 0.90835 1.1358 1.9375 1.3034 2.8086 0.43846-1.2451 0.88142-2.6555 1.278-4.1125-0.25888-1.3199-0.75422-2.5446-1.278-3.5107-0.33821 1.5574-0.77069 3.1939-1.3034 4.8146"/>
  </g>
  <path d="m39.22 208.62c0.21101 2.191-0.26337 5.3638-0.7228 7.4912 0.52227 0.97121 1.0236 2.191 1.278 3.5107 0.75424-2.7821 1.3139-5.7544 1.4261-8.2092-0.44892-0.89789-1.0819-1.8318-1.9797-2.7927" fill="#806048"/>
  <path d="m63.77 33.279c-2.798-3.6427-3.9541-3.6058-4.709 0.77068-1.2466 7.2802 0.0897 35.318 1.589 53.257-18.113 12.116-21.207 38.359-10.141 52.476-10.944 13.203-30.435 38.544-35.862 45.428-2.2015 2.8034-1.2511 2.9247 2.1645 2.8456 4.7881-0.10481 21.771-0.0748 26.76-0.22748-13.003 25.578-27.663 60.453-33.138 76.839-1.3887 4.197-0.1048 5.1049 3.648 1.257 19.238-19.697 64.671-65.684 72.515-73.883 1.293-1.3573 1.1777-2.1699-0.33819-2.6185-8.5208-2.5076-35.154-10.126-42.508-12.86 4.1442-9.3389 10.31-23.023 12.786-29.722 6.3561 4.5824 17.812 7.4649 24.596 6.6096-1.0715 7.5758 6.562 16.651 17.527 14.571 5.9549 7.8924 13.277 17.142 17.311 21.402 2.6714 2.8243 3.2415 1.9744 3.0778-1.0191-0.39057-6.6888-2.761-22.563-3.875-28.571 7.1692-5.3584 8.563-17.068 0.33819-22.785 3.0039-3.3523 7.4068-10.442 7.9664-16.387 13.858 6.2717 34.183 15.896 42.92 20.225-15.563 7.4332-34.426 16.049-41.431 19.401-1.7474 0.83355-2.006 1.7474-0.23793 2.497 22.247 9.4128 92.556 42.625 112.25 50.654 4.3449 1.7792 4.4874 0.35317 1.7052-2.7293-11.836-13.087-42.503-48.849-54.26-62.11 4.8568-3.3524 13.108-9.0064 16.698-11.773 1.4097-1.0879 1.2346-1.7686-0.6809-2.3915-23.688-7.7498-55.205-18.24-76.058-24.48-1.0191-19.348-17.559-31.163-34.531-29.923-7.4649-15.494-17.601-35.756-26.08-46.753" fill="#65aadd"/>
  <path d="m62.574 34.941c-1.04-1.5257-1.4306-1.3827-1.589 0.33222-0.92332 9.7561 1.1403 41.938 1.589 51.499 0 0.53275 0.19005 1.4202-0.44894 1.8214-14.645 9.1067-21.18 35.292-10.02 50.243 0.41752 0.55369 0.70185 1.2301 0.22748 1.8212-13.282 16.556-29.363 36.886-35.978 45.692 9.4182-0.0748 22.389-0.30678 28.233-0.30678 1.061 0 2.0377 0.25889 1.2989 1.5944-6.7626 12.147-28.846 62.116-32.937 76.57 16.392-16.614 58.341-59.423 71.692-73.022-14.893-4.7196-36.596-11.144-42.102-13.14-0.82906-0.31126-1.1568-0.81259-0.75422-1.6789 4.6246-10.094 12.301-28.191 13.43-31.306 0.30078-0.83953 0.84401-1.0505 1.6735-0.45942 6.372 4.6352 16.529 7.7922 24.971 7.2905 1.2885-0.0748 1.5415 0.2963 1.3618 1.2196-1.0715 5.4692 3.4895 14.185 14.951 13.198 0.62853-0.0449 1.1194-0.0599 1.5891 0.53274 6.372 8.0403 11.762 15.03 17.437 21.17-0.73924-10.923-3.2309-23.44-3.8486-27.843-0.0748-0.52826-0.0599-1.3094 0.45343-1.7422 5.4587-4.862 7.3488-15.051 0.45943-19.977-0.53874-0.37411-1.1673-0.90236-0.53874-1.6682 4.0174-4.8516 7.1639-11.641 8.0507-17.374 0.15274-0.99215 0.66445-1.2675 1.4411-0.91284 15.246 6.8366 30.741 14.497 44.926 21.476 0.79162 0.39057 1.272 1.3244 0.37412 1.7474-11.984 5.6911-31.675 14.872-41.711 19.776 23.276 10.363 83.644 38.517 109.15 49.445-19.47-22.769-43.147-50.617-52.94-61.556-0.46539-0.52825-0.70183-1.1927-0.211-1.5522 4.9257-3.4579 12.575-8.7689 15.928-11.804-21.328-7.2115-61.477-20.695-75.366-24.585-0.60757-0.17362-1.0715-0.60757-1.1298-1.3723-2.1329-23.266-22.775-29.442-32.636-28.46-0.61206 0.0748-1.2301-0.0298-1.5098-0.60158-8.6685-17.305-17.923-34.986-25.515-46.067" fill="#bce2e8"/>
  <path d="m65.456 48.446c-1.5258 0.23196 0.76619 28.693 3.0408 42.197-9.5608 5.7703-19.433 21.856-14.566 38.702 4.8463 16.851 23.82 20.04 36.422 15.943-4.4451 7.1374 0.63301 18.53 13.441 12.95 12.517-5.4693 7.053-17.997-0.46392-18.113 12.179-9.6716 16.286-24.364 11.963-35.63-3.4527-8.9905-13.578-18.398-29.49-16.851-5.1262-12.063-18.593-39.462-20.346-39.198" fill="#f39a63"/>
  <g fill="#fff">
   <path d="m51.655 145.9c-6.2294 6.5305-21.407 27.331-29.147 36.284 5.7649 0 11.989 0.14956 18.06 0.30078l1.067-2.2752-3.347-2.4285c3.347-7.8978 9.719-23.223 13.367-31.881"/>
   <path d="m50.134 187.49c-5.0153 11.218-9.5659 22.616-14.423 31.564 1.9797 1.5152 5.6066 3.5003 8.1986 5.0153 9.8722-10.479 22.458-23.076 29.289-30.662-8.6474-1.8214-15.933-3.9489-23.065-5.918"/>
   <path d="m39.514 228.62c-1.9851-1.2136-4.7197-2.4285-6.5357-3.6427-4.0968 8.3517-8.0457 17.606-11.081 24.591 7.2905-8.4995 12.142-13.964 17.617-20.948"/>
   <path d="m125.87 114.78-0.90835 1.5152c11.53 5.311 38.401 17.913 45.834 22.009 2.5816-1.3678 6.3772-3.0408 8.8057-4.2497-11.688-4.2551-38.106-14.571-53.732-19.275"/>
   <path d="m180.74 139.82c-10.923 5.3108-24.812 12.607-37.556 19.137 14.861 7.8872 32.626 17.147 42.039 23.065 4.0966-2.5814 9.5553-6.6782 12.29-8.6526-5.1525-5.7701-17.759-20.188-21.55-24.596l7.9665-5.4587z"/>
   <path d="m200.7 176.87c-2.4179 1.9692-6.2189 4.5454-9.7084 7.2748 9.2545 5.4746 22.146 11.086 28.529 14.877-4.6932-6.3774-13.663-16.693-18.821-22.152"/>
   <path d="m55.052 108.15c7.8976 6.3772 15.811 17.907 11.535 23.677-2.0379 2.7452-9.6663-1.1463-12.855-4.519-1.1613-5.8547-1.2406-13.314 1.3199-19.158"/>
   <path d="m95.585 93.247c-6.1186-0.10481-8.072 10.817-8.072 16.672 0 5.8546 2.7505 16.408 7.7182 16.408 4.9625 0 8.072-9.756 7.9822-16.054-0.0899-6.2982-2.2226-16.936-7.6284-17.026"/>
  </g>
  <path d="m53.805 112.61c4.7302 3.6902 12.454 13.23 10.078 16.329-0.76022 0.98169-6.768-2.6238-10.991-8.5734-0.07478-2.6344 0.38009-5.3426 0.91284-7.7552" fill="#007bbb"/>
  <path d="m95.42 97.485c-3.0197-0.15254-4.2181 7.9768-3.9911 12.565 0.22747 4.593 1.4993 11.894 3.9013 12.121 2.418 0.22149 3.8434-7.2326 3.7747-11.968-0.0748-4.7409-0.6809-12.57-3.6849-12.718" fill="#007bbb"/>
  <path d="m55.702 131.76c17.744 16.049 56.361 5.0838 59.888-26.877 2.3441 7.4385 2.7294 24.137-12.264 35.228 8.6052 2.3439 12.316 11.187 0.25291 18.271-8.2197 4.82-18.129-2.2172-13.436-12.924-13.045 2.9986-27.922 1.5628-34.442-13.7" fill="#d28556"/>
  <path d="m71.143 102.49c-1.4261 2.3861-4.0861 3.4051-5.992 2.2859-1.9005-1.1298-2.2859-3.97-0.87694-6.3509 1.4097-2.3809 4.0861-3.4105 5.9762-2.2806 1.9005 1.1134 2.3017 3.9594 0.8919 6.3456" fill="#facfb1"/>
  <g fill="#0f141b">
   <path d="m110.03 146.11c1.3513 3.6005-1.5732 9.1173-7.3698 11.477-5.4904 2.2384-10.78 0.29628-12.38-3.1148-1.1613-2.46-0.90835-5.3108 0.53275-8.1986 0.78715-1.5521 0.34268-1.9058-1.1358-1.5943-16.535 3.516-27.695-0.90837-33.074-12.316-6.2243-13.198-1.1927-32.657 12.602-40.903 0.24243-0.13464 0.37411-0.39057 0.37411-0.65993 0-0.0298-6e-3 -0.0748 0-0.1048-2.7504-19.829-3.8115-33.106-3.8907-39.895 0-0.79762 0.4325-0.78116 0.76621-0.14965 8.2831 15.336 13.04 25.963 18.43 37.446 0.1587 0.31725 0.50133 0.49085 0.83353 0.43248 9.9462-1.7316 21.65 3.1411 27.003 13.716 6.3509 12.517 1.8531 28.397-9.302 36.823-1.3244 1.0086-1.2406 1.964 0.38609 2.2067 2.5763 0.37412 4.9361 1.3154 6.2348 4.8411m1.6524-0.36964c-1.251-3.3524-3.875-5.311-7.1217-5.8072 15.4-11.197 15.03-29.115 10.173-38.681-6.1715-12.179-19.09-15.584-28.328-14.407-3.1833-8.2673-15.009-31.95-19.586-38.401-1.5628-2.2226-2.513-1.7051-2.7188 1.0715-0.52826 7.2061 1.4516 27.774 3.5686 41.13-14.285 8.8744-19.781 28.381-13.061 42.651 5.5433 11.715 18.293 16.545 34.632 13.098-1.3992 2.6977-1.8582 6.5463-0.70183 8.9959 1.9322 4.1177 8.4943 6.5884 14.872 3.9964 6.7997-2.7769 9.8616-9.376 8.2725-13.647"/>
   <path d="m89.517 128.35c-3.7325 5.1684-10.933 7.3646-16.44 4.9096-1.4366-0.63899-1.9164 0.0897-0.60758 0.95027 5.9127 3.8275 14.861 0.64348 18.039-5.3372 0.78714-1.462 0-1.8531-0.99217-0.52226"/>
   <path d="m88.512 109.85c0-8.468 3.1358-15.616 6.8471-15.616 3.7165 0 6.8577 7.148 6.8577 15.616 0 8.4678-3.1413 15.616-6.8577 15.616-3.7113 0-6.8471-7.1481-6.8471-15.616m-2.0325 0c0 9.6292 4.1705 17.168 8.8796 17.168 4.7143 0 8.8057-7.5388 8.8057-17.168 0-9.6242-4.0914-17.163-8.8057-17.163-4.7091 0-8.8796 7.5386-8.8796 17.163"/>
   <path d="m92.502 109.85c0-7.5282 1.8847-11.636 2.856-11.636 0.98168 0 2.8773 4.1074 2.8773 11.636 0 7.5282-1.8953 11.635-2.8773 11.635-0.97121 0-2.856-4.1072-2.856-11.635m-1.8529-0.0748c0 6.5516 1.8107 13.256 4.709 13.256 2.9088 0 4.6299-6.6255 4.6299-13.177 0-6.5516-1.7211-13.182-4.6299-13.182-2.8982 0-4.709 6.5568-4.709 13.103"/>
   <path d="m87.702 110.85h3.9435v-1.3783l-3.9435-0.17362z"/>
   <path d="m103.33 109.62c-1.2825-0.16914-3.1992-0.1587-4.2497-0.1587v1.3782c1.04 0 2.6871 0.0897 3.8591 0.22149z"/>
   <path d="m54.387 128.67c5.9127 5.1103 10.553 5.5168 12.554 3.8591 2.5922-2.1593 1.9164-9.5659-3.5265-16.762-1.9005-2.5024-5.3954-6.3772-7.7447-7.9822l-0.74374 1.3573c1.8847 1.5361 4.688 4.5717 7.0794 7.7656 5.0734 6.7575 5.7596 13.013 3.9437 14.428-1.489 1.1673-5.8864 0.59711-11.942-5.2475z"/>
   <path d="m52.536 121.53c3.8856 4.9361 9.8616 9.5976 11.783 8.035 2.0325-1.663-1.2301-7.7711-3.1042-10.5-1.8847-2.7347-5.7492-6.203-7.2326-7.4014l-0.60158 1.483c3.0408 2.7293 4.8727 4.7829 6.409 7.0002s4.7461 7.6866 3.6954 8.3095c-1.0984 0.65545-7.1111-4.2127-10.3-8.9905z"/>
   <path d="m59.919 118.81c0.83952-0.82905 1.6894-1.5679 2.6872-2.3281l0.93979 1.3304c-0.86048 0.62853-2.1117 1.4785-2.6185 2.0536z"/>
   <path d="m54.728 122.94c-0.51179 0.45342-1.278 1.4246-1.7157 1.8742l0.58064 1.251c0.62254-0.56417 1.4471-1.3349 2.0484-1.8636z"/>
  </g>
 </g>
</svg>
