<svg xmlns="http://www.w3.org/2000/svg" viewBox="0 0 412.53 464.16"><defs><style>.cls-1{fill:#be6090;}.cls-2{fill:#a04373;}.cls-3{fill:#fbd475;}.cls-4{fill:#85b1df;}.cls-5{fill:#d9b766;}.cls-6{fill:#749ac1;}.cls-7{fill:#0f141b;}.cls-8{fill:#f9dbe2;}.cls-9{fill:#e2acc0;}.cls-10{fill:#a1507b;}.cls-11{fill:#fff;}</style></defs><title>Cresselia</title><g id="Layer_2" data-name="Layer 2"><g id="Layer_3" data-name="Layer 3"><g id="Cresselia"><path class="cls-1" d="M295.08,261.8a35,35,0,0,0,.72,5.95c8.21,2.45,37.86,12.57,59.85,31.8,26.25,22.95,15.43,26.55,6.58,28.94-7.58,2-46.16,1.9-72.49-11l-2.36,7.25c2.23,1.34,45.51,22.79,90.09,22.79,0,0,30.08,1,32.67-10.31S371.61,277.33,295.08,261.8Z"/><path class="cls-2" d="M295.12,266.69c.07.65.13,1.3.2,1.95,33.16,8.63,79,42.65,75.21,54.05-2.54,7.62-42.6,9.16-78.91-5.31-.1.63-.81,1-.94,1.64,39.08,15.77,79.54,13.72,82.83,5C378,310.47,335.06,277.68,295.12,266.69Z"/><path class="cls-2" d="M294.17,260.86c.08.64.21,1.11.28,1.74,66.9,13,118.86,62.52,114.29,75.39-4.29,12.05-71.09,11.65-119.56-14.09-.24.68-1.24,1.21-1.51,1.88,54.67,27.81,118.89,27.25,124.49,13.41C417.33,326.39,367.74,273.74,294.17,260.86Z"/><path class="cls-3" d="M210,370.37c46.24-14.25,47.49-58.74,47.49-58.74,8-41.73-17.75-87.47-31.24-124.46s-2-51-2-51l11,7.71c-3.73,8.39-3.89,23.72,17.89,55.86,26.9,39.69,44.08,66.2,40.57,105.63-2.8,36.14-41.2,66.07-82.19,70Z"/><path class="cls-3" d="M176.05,369.87c-18-11.25-28.74-21.74-33.49-27.74s-10.5-2.75-10.5-2.75c-21.94,7.31-53.12,36.68-65.19,48.63-1.28,1.27-.33,2.2.91,1.45,16.27-9.9,61-36.54,70.53-36.34C138.31,353.12,166.55,368.12,176.05,369.87Z"/><path class="cls-4" d="M68,387.18c-5.07,4.84-6.14,3.16-2.47-2.64,25.68-40.64,83-94.23,138.82-148,3.85-3.7,6.2-16.18,4.4-57.36s5.48-53.46,5.48-53.46,1.58,3,10.1,10.41c0,0-10.8,11.77,2.83,52.1s22.15,49.61,27.64,72.33,7.2,56.62-7.57,82.18-46.39,32.75-61.73,29.91-37.3-23.29-44.68-32.19c0,0-2.65-4.54-14.77,1.52C112,349.54,83.64,372.2,68,387.18Z"/><path class="cls-5" d="M211.54,375.37c7.73-.24,13.11-2,22.07-4.21,27.33-6.59,49.2-33,57.34-54.15,0,0-17.95,34.11-59.81,42.89,0,0-10.3,8-16.16,9.22Z"/><path class="cls-6" d="M199.17,361.78c-14-1.07-29.78-4.5-47.6-11.27,0,0,12.37,13.88,26.08,19.83,9.83,3.6,12.18,3.46,12.18,3.46Z"/><path class="cls-5" d="M151.57,350.51,149,357.88s15.37,8.31,24.64,11.22C173.63,369.1,154,354.63,151.57,350.51Z"/><path class="cls-6" d="M217.62,363.26s7.58-.8,13.06-3.22c0,0-10.61,7.81-16.67,9.22Z"/><path class="cls-5" d="M142,346.59c-3-1.06-6-1.78-8.2-1.42-13.33,2.29-53.17,33.6-66.17,44.06a6.88,6.88,0,0,0,2.45-.77c15.3-9.45,53-32.07,68.1-35Z"/><path class="cls-5" d="M221.72,142a49.94,49.94,0,0,0,15.85,17.05,82.17,82.17,0,0,1-1.8-13.44s-8.63-5-11.64-9.23Z"/><path class="cls-6" d="M211.09,121.16s2.09,10.11,10.52,21.35l1.92-6.7Z"/><path class="cls-7" d="M294.92,282l-1.3,2.43L292,281.84c7.13,59-43.18,89.46-78.95,91.57-.64.91-1.35,1.82-2,2.73C242,375.83,302.94,349.5,294.92,282Z"/><path class="cls-7" d="M279.94,239.43c-4.46-7.58-9.56-15.15-14.43-22.61-17.36-26.6-31.72-45.65-32.06-70,0-.5-1.85-.48-1.84,0-.3,24.25,16.13,47.53,31.41,70.94,4.2,6.44,8.45,12.95,12.39,19.47Z"/><path class="cls-7" d="M188.86,375c-17-3.26-29.14-10.13-37.76-14.91l-2.64-1.49.77-2.3,2,1.09c9,5,21.76,12.07,39.9,14.91Z"/><path class="cls-7" d="M137.25,337.74c-12.7-2.29-56.93,35.09-73.09,51.86a7.64,7.64,0,0,0,2.13.44c17.26-17.65,59.85-52,71.11-50,1.65.41,3.09,2.06,5.61,4.52l1.38-1.69C141.2,339.86,140,338.32,137.25,337.74Z"/><path class="cls-7" d="M150.73,352c8.25,7.66,18.78,16.52,28.45,19.58.48.15,1-1.6.55-1.75-9.64-3-20.17-12.54-28.38-20.29Z"/><path class="cls-7" d="M247.37,244.15c-2.79-7.52-5.92-15.14-9-22.67-12.58-30.6-25.59-62.25-15.63-85.74.2-.47,1.89.25,1.7.72-9.67,22.78,4.75,55.79,17.19,86,2.66,6.46,5.34,13,7.82,19.49Z"/><path class="cls-7" d="M212.05,371.67c27-10.85,53.95-35,47.31-92.26q-.35-3-.93-6.1L256.51,278c6.34,54.7-17.79,79.69-43.23,91Z"/><path class="cls-1" d="M289.47,249.06c-7.47-12.2-21-14.66-27.51-14.12,0,0-1.9.24,2,4.27s24,25.15,29.87,49.73C297.13,271.57,298.8,264.31,289.47,249.06Z"/><path class="cls-8" d="M206.78,232.67c-2.53-9.18-24.36-74.78-95.1-105.6-48.5-21.13-90.09-16.71-101.62-2.9-12.3,14.72-20.26,56.29,43.8,113.11,39.89,39.13,111.33,60.32,129.47,59,0,0-19.36-8.4-56.05-43.46-31.68-36.64-33.13-54.75-27.59-62.27,6.2-8.41,20.31-11.85,53.74,4.87,24.7,12.78,47.39,40.26,48.42,44Z"/><path class="cls-9" d="M197.83,211.11c-12.61-20.89-37.8-49-77.14-66.78-60.67-27.5-79.43-1.1-79.43-1.1S17,172.39,59.88,226c16.89,22.9,38,38,60.52,52.66A212.15,212.15,0,0,0,168.72,297c3.94-.33,9.65-2.17,12.78-1.09-47.64-29.39-76.06-64.48-82-82.73-3-9.16-4.44-18.57,1.83-24.47s20.07-8.26,43.09,2c41.33,18.44,57.84,40.26,60.88,44.68a33.34,33.34,0,0,0,1.57-3.39A76.72,76.72,0,0,0,197.83,211.11Z"/><path class="cls-1" d="M264.1,244.16c-.76-13.83-11-13.06-25.75,10.44s-7.2,40.52-5.1,48.14c-12.9,29.25-31.95,55-31.95,55-39.31,55-59.56,56.79-61.71,55.33-8.11-5.52,4.94-61.67,42.81-116.78-4.42-2.79-62.43-39.39-79.55-78.15-22.28-43.61,26.92-32.63,26.92-32.63s38.9,7.84,72.64,54.36a30.52,30.52,0,0,0,3-4.61c-5.49-11-34.92-49.45-69.91-64.8C87.76,149.5,73.44,164,70.28,168.18c-2.52,2.1-18.52,26.79,26.32,76.55,30.55,31.71,61.34,45.13,76.61,53.23-15,17.83-48,58-63.41,121.52-1.32,13.73-3.48,37.85,6.48,43,18.52,1.38,39.64-17.59,57.17-33.79,28.74-26.57,55.5-81.49,67.38-125.66C260.86,286.84,265,261.05,264.1,244.16Z"/><path class="cls-10" d="M232.05,270.45s-.68,18.41,5.83,21.48L233,303.13S225.55,285.62,232.05,270.45Z"/><path class="cls-10" d="M242.93,293.38s6.68.9,13.19-10.66.36.18.36.18-6.14,16.26-15.9,20.41Z"/><path class="cls-10" d="M293.84,288.94c2-6.14,2.86-21.55,2.86-21.55-4.08,1.2-9.23.08-15.31-6.49C285.89,266.49,293.63,286.62,293.84,288.94Z"/><path class="cls-1" d="M70.91,166.07c-26.21,30,26.2,99.88,99.55,131.52.79-.24,3-.13,3.77-.42C95.8,259.7,51.08,194.32,72.86,168.08c15.23-18.35,85.74-4,132.1,67.94.37-.65.72-1.32,1-2C166,164.57,89.57,144.69,70.91,166.07Z"/><path class="cls-9" d="M197.83,211.11c-41.2-70-132.44-99.08-158-68.88-21.39,25.28,6,96.39,86.6,140.69.91-.2,6.75,1.62,7.64,1.39C45.73,235.17,23.76,166.23,42.24,144.39c24.81-29.34,113.53.88,156.44,70.39C198.94,215.21,198.09,211.55,197.83,211.11Z"/><path class="cls-7" d="M293.92,254.68c-8.81-19.86-27.12-20.94-29.22-20.8-2.55.15-3.91.75-4.07,1.76-.18,1.18,1.11,2.53,5.19,7.14,7.86,8.38,18.64,21.6,25.37,40.5.54,1.81,1.17,3.66,1.55,5.55.09.43,1.33.37,1.46-.05C296.66,281.27,300.44,269.38,293.92,254.68Zm-.32,30.7c-5.49-20.63-19-36.66-26.46-44.37a45.92,45.92,0,0,1-4.39-4.89c1.31-.42,5.26-.76,10.17.87,6,2,13.69,6.92,19,18.95C295.41,263.92,295.79,274.52,293.6,285.38Z"/><path class="cls-7" d="M262.78,235.83A60.11,60.11,0,0,1,273.46,240c.66.36,2.09,1.25,2.39.81s-1.12-1.6-1.56-1.89a39.65,39.65,0,0,0-10.44-4.83C263.34,233.9,262.27,235.67,262.78,235.83Z"/><path class="cls-7" d="M240.25,304.91c20.3-12.44,26.71-45.52,24.37-62.81-.65-4.38-2-6.9-4.05-7.48-3.77-1.07-10.24,2.76-16.32,10-11.36,13.35-22.09,36.56-11.6,59.61l1.19-2.34c-8.86-21.73,3.35-45.17,12.32-55.94,6.23-7.47,11.45-10.12,13.85-9.43,1.14.32,2.12,2.5,2.61,5.83,2.05,13.84-4,46.92-22.19,59.94Z"/><path class="cls-7" d="M254.09,237a86.74,86.74,0,0,0-5.49,11c-.2.52-.95,2.28-.44,2.48s1.29-1.14,1.73-1.9c1.67-3.34,6.45-11.94,6.49-12C256.64,236.08,254.43,236.55,254.09,237Z"/><path class="cls-7" d="M261.49,237.62c-.15.39-3.33,10-4.18,13.32-.13.54-.66,2.39-.12,2.53s1.14-1.3,1.48-2.11c1.24-3.52,4.33-11.8,4.37-11.89C263.24,239,261.69,237.1,261.49,237.62Z"/><path class="cls-7" d="M64.23,384.28c-5.35,8,.82,8.38,8,4.1,21.93-13,48-28.31,60.44-32.87a22.12,22.12,0,0,0,3.25-3.4c-11.07,2.12-39.59,18.77-63.07,33.57-9.67,6.09-8.83,2.6-6.75-.39,19.12-27.4,47.76-58.81,83.42-94.05a8.35,8.35,0,0,1-3.34-.89C110.25,325.85,82.37,357,64.23,384.28Z"/><path class="cls-2" d="M245.42,277c-24,130.33-112.72,192.48-129.07,182.25-13-8.15-9.1-83.85,57.57-159.61,1.81-2,1.61-2.21-1.26-2.95C45.71,264-19.48,162.59,11.53,125.62c24.65-29.4,154.65-7.32,194.37,107.74a12.67,12.67,0,0,1,1.28-2.82C167.49,113.91,35.61,92.66,9.24,123.47c-35.13,41,32.29,142.52,162.27,175C96.75,384.38,102.6,456.63,114.36,462.9c22.12,11.8,111.79-60.14,132.86-185.84C247.8,273.58,246.21,273.06,245.42,277Z"/><path class="cls-2" d="M241.89,281.82c-.47-.17-1.21,1.18-1.7,2.34-32,79.6-88.57,133.42-99.47,127.16-7.27-3.35,7-60.74,41.92-112.67,1.64-2.45,1.36-3.07-1.71-4.91C133.24,265.11,88.66,213.86,101,191.22c8.4-12.78,58.86-5.76,100.39,48.93.31.4,1.92-1.16,1.62-1.57-40.17-55.09-93-65.19-104.21-49-13.93,21,22.67,70.61,81.85,107-43.73,67.62-49.52,115-41.46,117.78,19.07,6.51,79.11-63.23,102.42-129.2C242,283.82,242.45,282,241.89,281.82Z"/><path class="cls-7" d="M215.45,119.53c0-.06-1.29-2.55-1.39-2-11.26,31.4-4.71,72.91-5.82,99.2-1,22.9-11.85,25.48-50.58,62.54a7.36,7.36,0,0,0,2.11,2c44.65-42,50.49-42.66,51.06-63.28C212,175.84,205.37,160.75,215.45,119.53Z"/><path class="cls-2" d="M172.58,288.47a260.53,260.53,0,0,1-23.31-17.37c-.66.58-1.33,1.14-2,1.69,7.27,6,15.17,11.83,23.6,17.45C171.44,289.69,172,289.1,172.58,288.47Z"/><path class="cls-3" d="M251.05,162.3c5.33,1,4.48,1.48-.18-5.37-8.48-12.46-7.86-21.72-7.86-21.72s9.82-.5,24.69,2.64c26.14,15,49.66,7.76,53.15,5.34-18.9-8.63-36.16-24.39-43-33.15L256.93,66.25C249.3,38.76,271.62,1.33,271.62,1.33,244.51,6.42,207.7,33.57,205.3,81.38,203.93,108.55,211.59,154.86,251.05,162.3Z"/><path class="cls-1" d="M259.31,67.26c9.18,2.79,27,20.69,18.1,43.06-26-3.51-31.15-27-31.37-30.36,1.78-4.52,4.81-9.35,7.42-11.84C254.77,66.87,256.62,66.44,259.31,67.26Z"/><path class="cls-4" d="M240.48,111.42s5.35,8.24,13.06,13.31c0,0-9.58.88-12.44,2.86C240.76,123.07,239.74,116.24,240.48,111.42Z"/><path class="cls-6" d="M240.63,112.83l.58,14.1,0,.31c4.17-.93,8.15-1.84,12.12-2.45C247.84,121,243.23,116.84,240.63,112.83Z"/><path class="cls-5" d="M289.26,140.37c-9.72-1.41-24.7-7.84-35.9-15.58-4,.61-8,1.52-12.12,2.45l.82,7.7a131.82,131.82,0,0,1,19.19,1.69c8.88,1.6,25.32,4.74,28.33,4.28Z"/><path class="cls-10" d="M278.62,90.37c-2.79,10.7-21.28,6.46-28.65,1.07,3.24,4.87,10.09,17.65,27.2,18.86C277.17,110.3,282.14,99.43,278.62,90.37Z"/><path class="cls-7" d="M253.43,124.22c-5.59-4.12-9.62-8.27-12.38-12.8v2.8c3.46,3.8,6.37,7.46,10.77,10.23a33.55,33.55,0,0,0-10.35,2c-.42.18-.74,2-.27,1.78,3.57-1.51,6.12-2.25,12-2.6C254,125.46,255,125.4,253.43,124.22Z"/><path class="cls-7" d="M256.26,132.4c-1,.19-.93.72.11.73a9.94,9.94,0,0,1,3.27.52c.91.33,1.38.12.56-.4A5.68,5.68,0,0,0,256.26,132.4Z"/><path class="cls-5" d="M270.23,3.92C251,19.27,231.39,46.93,227,79.83c-3.39,25.48,3.25,55.64,17.29,72.93,1.58,2-13.5-.81-21.88-8.37,0,0,8.65,15.94,32.15,18.37-13.49-17.87-22.57-64.92-1.89-94.82l4.3-1.36C254.92,55.11,251.56,35,270.23,3.92Z"/><path class="cls-5" d="M267.37,137.82c10.26,2.05,26.5,5.79,22.4-.56,10.08,2.8,20.37,3.9,19.59,3.17-3.36-3.17-8.21-8.58-8.21-8.58s15.87,10.26,19.79,10.82C314.08,147.45,289.78,150.93,267.37,137.82Z"/><path class="cls-7" d="M262.92,10c-14,17-17.37,42.3-10.85,58.29.19.47,1.6-.24,1.44-.72-6.49-19.28-.4-42.81,11.31-58.11C267,6.61,265.6,6.78,262.92,10Z"/><path class="cls-7" d="M242.63,136.79c6.31-2.42,31.47,3,40.38,4.55,11.85,2,7.84-3.64,7.09-4.88-7.31-12.12-11.41-21.49-12.2-27.69-.06-.5-2.29,1.39-2.28,1.41,1.61,6.46,5.26,15.42,12.93,26.7,2.21,3.61-.34,3.33-4.53,2.79-10.31-1.35-34.81-7.16-41.62-5.12Z"/><path class="cls-7" d="M319.25,141.22c-11.65-4.71-31.93-18.92-41.15-33.16-.71.76-1.53,1.19-2,1.86a115.22,115.22,0,0,0,43.21,33.37c-11.65,4-35.56,3.28-49.1-4.91-.65-.39-5.87-2-5.29-1.49,13.88,11.59,39.15,13.06,53.43,8.33C322.77,143.74,323.08,142.81,319.25,141.22Z"/><path class="cls-7" d="M259.45,66.26c-1.27-.63-4.6-.53-5.65.2-17.39,12.09-20.84,72.72-.42,95.11-29.57-1.32-48.47-40-46.95-76.11C207.83,51.85,228,12.8,270.1,2.36,255.28,27.22,251,50.57,255.86,66.43c.66.51,1.45.25,2.21.53-4.85-18.88.66-40.59,14.48-65.6.56-1,.49-1.63-1.21-1.24-48.83,10.9-66.78,54.29-67.78,85.2-1,30.71,12.53,71.67,46.36,77.85,6.22,1.14,7,.82,2.77-5.29-11-15.93-14.7-49.75-6.79-74.21,2.77,10.56,12.53,26.1,31.28,27.41.47,0,.78-.32,1-.75C283,99.55,282.76,77.86,259.45,66.26Zm-5.22,2.1A5.26,5.26,0,0,1,259,68c15.6,7.33,24.36,26.42,17.47,41.12-15.08-1.4-26.3-15.26-29.42-28.3C249,75.39,251.74,70.37,254.23,68.36Z"/><path class="cls-1" d="M258.44,118.39c-6.85,1-13.91-6.63-11.9-14C251.94,105,255.53,108.21,258.44,118.39Z"/><path class="cls-11" d="M253.52,108.76c-1.58-.1-3.46,2.2-2.2,3.84s4.17.76,3.9-1.54Z"/><path class="cls-11" d="M253.2,108.58a2.62,2.62,0,0,0-1.78,4.51c1.57,1.48,4.81.35,3.71-2.61-.12-.34-.44,0-.42.39.13,2.17-1.77,2.42-2.69,1.61a2.18,2.18,0,0,1,1.61-3.54C253.47,108.67,253.38,108.75,253.2,108.58Z"/><path class="cls-7" d="M258.84,117.78c-2-6.55-5.25-12.73-10-13.66-2.51-.49-3-.32-3.13,1.65-.24,3.28,1.21,7.85,3.51,10a11.74,11.74,0,0,0,8.36,3.24C258.91,119,259.19,118.9,258.84,117.78Zm-8.92-3.44c-2.81-3-3.52-8-3-9.23,4.65-.54,9.39,7.36,11,12.94C256,118.31,252.48,117.05,249.92,114.34Z"/></g></g></g></svg>