<?xml version="1.0" encoding="UTF-8"?>
<svg version="1.1" viewBox="0 0 128.07 118.33" xmlns="http://www.w3.org/2000/svg">
 <g transform="translate(-.0026316 -.023333)">
  <path d="m126.95 48.65q-1.85 6.9-6.95 13.55-4.95 6.5-10.6 9.6l-4.4 5.1-0.3 7.4q-0.45 8.05-1.35 11.45 0.6 2.6-0.05 4.25-1.3 3.3-7.5-1.35l-1.1-8.8q-8.6 9.05-10.95 10.6l-7.15 4.85 1 1.3q0.9 1.5 0.3 2.35-0.75 1.15-4.5 1.65-4.1 0.55-9.45-0.05l-4.3 0.75 1.35 2.4q0.95 2.55-0.85 3.45-3 1.5-12.75-0.9-11.25-2.7-16.45-8.6 1.05-5.95 3.55-14.65 5-17.35 12.2-30.95t27.6-22.25q10.25-4.3 19-5.9 15.45-1.4 18.4-7.5l1.55 4.9q1.95 5.1 4.1 6.05l3.7 1.7 2.5 0.65 1.7 0.1q1.1 0.1 1.7 0.65 1.75 1.7 0 8.2" fill="#fff"/>
  <g fill="#dbdcdc">
   <path d="m120.75 61.15q-1.95 3.5-5.45 6.55-2 1.75-5.55 4.1-1.35 1.2-8.15 9.4l-6.55 7.9q-1.05-6.8 1.55-12.1 2.45-5.05 7-6.4 13-3.85 17.15-9.45"/>
   <path d="m104.95 86.15q-1.8 0-3.6 1.85-1.65 1.8-2.5 4.35-2.1 6.35 2.65 8.75l-2-0.25q-2.35-0.7-3.8-3l-0.75-8.05q4.7-5.5 5.7-7.2l2.6-3.65 1.9-2.4-0.2 9.6"/>
   <path d="m48.85 97.85q2.35-2.4 4.2-5.15l1.4-2.2 23.85-5.35q-0.3 5.4 2.7 10.75 1.5 2.7 3.05 4.3-3.9 3.55-7.35 5.3 0.65 0.45 1.15 1.6 0.55 1.2 0.4 1.75-0.6 2-7.2 2l-6.5-0.45-4.75 0.9q2.4 3.85 0.6 5.25-3.7 2.9-15.25-0.8-11.35-3.65-13.9-8 9.95-2.1 17.6-9.9"/>
  </g>
  <path d="m87 5.3q7.6-1.3 14.15 0.65 6.25 1.85 5.6 4.1-0.35 1.15-1.95 1.9 4.2 2.45 6.65 6 3.5 5 0.4 9.05-2.9 3.9-10.9 5.9l-7.45 1.25-17.35 23.55q-18.1 25.1-21.75 32.55-4.35 9-13.8 14.05-9.4 5-17.4 2.65-6.65-1.95-8.8-8.35-0.7-2-0.85-4.15v-1.8q-0.5 1.6-2.45 3.65-2.25 2.4-3.95 1.95-3-0.8-3-9.05 0-7.4 1.95-13.05-3.4 1.3-4.15 0.75-1.5-1-0.95-7.5 0.5-5.95 4.45-12.4 3.4-5.5 7.65-8.75-0.85 0.55-3.85 0.55-3.55 0.05-3.95-1.7-1.15-4.7 7.3-10.9 7.8-5.75 13-5.95-0.3-0.7-1.85-1.6-1.45-0.85-3.15-1.35-1.5-0.45-2.15-1.3-0.6-0.75-0.25-1.35 1.1-1.7 5.5-1.4 4 0.25 5.15 1.3-0.15-5.05 0.8-8 0.95-3.05 2.35-3.1 1.35-0.05 1.85 3.15l1.1 5.75q1.35-4.3 3.6-7.75 2.8-4.35 7.45-8.05 4.45-3.6 6.45-3.05 1.5 0.4 1 2.35l-2.05 8.3q1.35-3 5.7-6.4 6.5-5.1 15.8-6.75 9.05-1.6 7.95 2.6-0.55 2.15-2.9 4.55 3.6-1.9 9.05-2.85" fill="#8bc56c"/>
  <g fill="#78ab5e">
   <path d="m19.55 98.2q4.7 1.5 10.45 0.55 15-2.45 24.35-18.2l-0.7 3.15q-0.5 3.75 0.6 6.85-3.1 5.35-8.5 10.1-10.85 9.5-22.55 6.65-5.45-1.3-7.85-5.85-1.8-3.45-1.45-7.4 1.2 2.75 5.65 4.15"/>
   <path d="m4.45 85.45 0.3 2.05q0.5 2.3 1.4 3.75 2.9 4.75 8.8-0.8l-2.3 3.75q-2.8 3.75-5.5 3.8-2 0.05-2.65-4.45-0.55-3.7-0.05-8.1"/>
   <path d="m0.75 70.55q0.4 1.6 1.85 2.4 2.95 1.6 8.25-2.4l-2.85 3.55q-3.3 3.45-5.65 2.85-1.4-0.35-1.75-3.1-0.25-2.3 0.15-3.3"/>
   <path d="m5.15 44.75q0.85 0.8 2.9 1.15 4.05 0.75 9.9-1.3l-4.75 3.75-4.9 0.4q-4.6-0.3-3.15-4"/>
   <path d="m25.75 30.45q-0.95-1.55-3.35-2.4-2.85-1-3.95-2.05-1.6-1.5 2.15-2.2l-0.2 0.65q0.35 0.9 3.15 2.1 1.7 0.75 2.65 2 0.85 1.2 0.4 1.95l-0.85-0.05"/>
   <path d="m34 83.55q-4.95 0-9.7-1.5-3.9-1.25-4.05-1.95-0.05-0.35 0.9-1.3l0.95-0.9q11.65 5.45 23 0.9 7.2-2.95 12.15-8.6-8.15 13.4-23.25 13.35"/>
   <path d="m85.05 33.55q12.45-1.6 20.6-6.35 7.05-4.1 6.2-7.9l0.75 1.8q0.75 3.9-2.4 7.1-3.1 3.2-11.55 5.15l-7.8 1.3q-3.3-1.3-5.8-1.1"/>
   <path d="m96.75 15.15q-1.2 0.2-1.25-0.25-0.05-0.55 2.1-1.65 5.05-2.55 6.4-3.8 1.5-1.5-0.25-2.6l1.6 0.85q1.55 1.15 1.35 2.5-0.25 1.4-4.35 3.15-3.35 1.4-5.6 1.8"/>
   <path d="m72.7 11.25q1.85-2.9 3.9-5.2 3.1-3.45 4.5-2.75l-0.7 1.9q-1.15 2.2-3.55 3.5l-4.15 2.55"/>
   <path d="m51.4 14.05-0.25 1.25q-3.65 2.3-2.05-2.45 1.4-4.15 4.25-8.05-0.35 4.4-1.95 9.25"/>
   <path d="m33.4 16.15 1.45 5.8-0.1 1.6q-1.4 3.15-1.5-1.8l0.15-5.6"/>
  </g>
  <path d="m40.25 80.25q-6.9 1.6-11.7-0.1l-6.1-2.35-2.9-1.25q2.55-7.95 4.2-12.15 3-7.6 8.1-10.4 7.8-4.3 16.85-3.25 4.55 0.5 7.55 1.85l24.2 11.7q3.85 10.1-2.2 20.85-4.4 7.8-9.55 10.75l-8.15 5.2q0-0.6-3.25-5.5-3.35-5.05-3.7-9.8-0.35-4.8 1.95-10.85l2.4-5.15q-8 8.25-17.7 10.45" fill="#009f50"/>
  <path d="m42.25 80q-10.1 2.55-21-2.15 13-1.05 19.75-2.75 7.95-2.05 15.7-6.95l2.75-0.75q-6.55 9.95-17.2 12.6" fill="#008c46"/>
  <path d="m57.3 86.8q2.55 6.35 7.75 11.55l-4.4 3-3.55-5.35q-3.55-5.8-3.6-7.9-0.05-1.85 0.75-6.8l0.85-6.25q-0.25 5.9 2.2 11.75" fill="#008c46"/>
  <path d="m91.9 46.15q-2.3 3.05-5.3 4.4 5.2 1.5 7 8.25 0.9 3.5 1.05 7.65l-5.7-0.35-5.35-0.45q-4.2-1-5.65-3.55l0.65 2.95q0.35 3.45-1.15 5.9l-4.15 5.45q-2.4 2.9-2.45 3.95-2.2-2.2-4.2-5.35-3.95-6.3-2.65-10.9-3.05 3-5.95 3.55l-4.65 0.25-3.55 0.3q0.45-4.35 1.05-7.55 1.15-6.05 5.55-8-4.4-1.3-6.95-4.9-2.25-4.15-3.5-5.75l3.3-1.45q2.45-1.1 4.2-1.4 5.6-1.1 10.2 3.55-2.05-7.85 3.85-13.6 1.35-1.3 4.25-3.4 2.05-1.45 2-1.95l3.05 5.45q0.85 1.5 1.45 4.2 0.7 3.15 0.2 4.9 2.55-5.05 8.65-4.65 3.25 0.25 8.25 1.4l-0.5 2.15-0.7 4.05q-0.25 2.2-2.3 4.9" fill="#f3b2c1"/>
  <g fill="#d29aa8">
   <path d="m65.8 62-2.45 2.55q-2.95 2.7-5.5 3.25l-4.55 0.25-3.7 0.25q0.65-1.6 0.65-4.05 0-2.5 0.2-3.05 0 2.8 5.25 3.35 5.45 0.5 10.1-2.55"/>
   <path d="m64.2 69.05q3.2 3.25 7.5 3 3.95-0.2 6.55-3.1-1.15 3.25-2.3 4.6l-2.9 3.4q-2.15 2.6-2.2 3.4l-2.95-3.5q-3.1-4.2-3.7-7.8"/>
   <path d="m84.2 65.65q-4.5-1.05-6.7-4.3 6.65 3.25 11.95 1.6 4.75-1.45 4.25-5.1l0.35 2.95q0.3 3.65 0.95 5.35l-4.95-0.15-5.85-0.35"/>
  </g>
  <g fill="#fcd13e">
   <path d="m82.75 23.9-1.85 0.25q-0.8-0.15-1.3-0.7-0.7-0.75-0.5-1.95 0.2-1.35 1.5-1.9 2.4-1.15 3.45 0.8 0.5 0.8 0.1 1.9-0.45 1.1-1.4 1.6"/>
   <path d="m52.55 26.45q-0.7-0.5-0.65-1.9 0.05-1.55 1.15-2.35 2.45-1.85 3.95-0.5 0.75 0.65 0.45 2-0.35 1.35-1.4 2.1-1.2 0.85-1.85 1-0.8 0.2-1.65-0.35"/>
   <path d="m41.15 46.35q-0.3 1.3-0.9 1.45l-1.6-0.05q-1-0.4-0.85-1.7 0.1-0.95 1.35-1.5l1.65-0.15q0.65 0.55 0.35 1.95"/>
   <path d="m29.1 92.15q-0.75-0.6-0.5-1.9 0.3-1.5 2.05-2.65 1.3-0.8 2.5-0.85 1.2 0 1.7 0.8 0.45 0.75 0.2 1.9-0.35 1.45-1.95 2.3-2.75 1.5-4 0.4"/>
  </g>
  <g fill="#0d131a">
   <path d="m126.7 40.7q0.65 0.5 0.9 1.55 0.25 1.3-0.35 2.8-1.05 2.85-2.2 2.55-0.8-0.2-2.25-2.25-2.1-3 1.45-4.1 2.15-0.7 2.45-0.55"/>
   <path d="m110.35 70.65 2.8-0.8q-7.7 6.35-11.2 11.75-9.15 14.3-22.3 22.6-9.7 6.1-19.5 8-8.4 1.65-17 0.2-7.9-1.35-12.25-4.45-0.15-0.15 0.5-0.5 0.6-0.4 0.8-0.25 4.55 2.8 10.95 3.9 7.85 1.35 16.8-0.35 9.9-1.95 19.7-8.25 12.75-8.25 21.6-22.1 2.85-4.45 9.1-9.75"/>
   <path d="m104.5 12.55q-0.2-0.1 0.1-0.6 0.25-0.5 0.45-0.4 4.55 2.75 6.9 6.25t1.65 6.65q-0.8 3.6-6.2 6.45-6.15 3.2-15.65 3.8-0.2 0.05-0.85-0.4-0.7-0.45-0.45-0.45 8.85-1 14.5-3.4 6.1-2.6 6.9-6.2 0.65-2.9-1.25-6-1.95-3.2-6.1-5.7"/>
   <path d="m105.85 9.5q-0.2-1.25-3.45-2.35-3.35-1.15-7.95-1.4-11.95-0.6-20.2 5.1-1.55 1.1-2 0.85-0.4-0.2 0.95-1.3 8.25-6.55 21.35-5.9 5.2 0.25 8.9 1.65 3.65 1.4 3.95 3.2 0.3 1.85-2.9 3.65-2.7 1.5-6.3 2.25l-2.45 0.15q-0.3-0.35 1.8-0.9 3.4-0.85 5.9-2.3 2.6-1.55 2.4-2.7"/>
   <path d="m81.3 1.15q1.15 1 0 3.3-1.15 2.25-3.7 4.2l-0.55-0.15q-0.4-0.25-0.2-0.4 2.25-2 3.1-3.75 0.75-1.55 0.05-2.1-2.7-2.4-12.55 0.8-10.85 3.55-15.35 10.85-1.1 1.85-1.55 1.75-0.4-0.05 0.6-1.9 4.35-8.1 16-12 4.65-1.55 8.65-1.7 4-0.2 5.5 1.1"/>
   <path d="m53.1 2.75q1.15 0.4 1.05 2l-0.95 4.05q-1.05 3.15-1.45 5.5l-0.45 0.4-0.45-0.05q0.4-3.05 1.3-6.15 1.1-3.7 0.05-4.05-2.6-0.8-8.15 4.35-6.05 5.65-8.3 12.75-0.75 2.3-1.2 2.4-0.4 0.1 0.1-2.1 1.7-7.4 8.65-14 6.5-6.15 9.8-5.1"/>
   <path d="m28.3 24.35q-0.15-6.6 1.5-9.75 1.15-2.05 2.35-2 1.4 0.05 2.05 3.55l1.1 5.9-0.35 0.45-0.5 0.05-0.95-4.65q-0.75-3.75-1.4-3.65-1.4 0.2-2.2 4.05-0.7 3.2-0.65 6.55-0.95-0.2-0.95-0.5"/>
   <path d="m21.9 22.9q4.55-0.25 6.9 1.25 1.65 1.05 1.45 1.5-0.25 0.45-1.75-0.6-2.05-1.3-5.8-1.1-3.65 0.25-3.75 1.3-0.05 0.7 2.9 2 3.45 1.45 4.35 2.85 0.15 0.2-0.25 0.45l-0.55 0.05q-0.65-0.95-4.8-2.6-3.65-1.45-3.55-2.85 0.2-2 4.85-2.25"/>
   <path d="m4.8 47.95q-2.45-3.25 4.85-10.1 7.55-7.05 15.65-7.85 1.9-0.2 2.25 0.25 0.3 0.45-1.45 0.55-7.25 0.55-14.75 7.35-7.15 6.45-5.25 8.95 0.75 1 3 1.05 2.1 0 4.3-0.75l0.15 0.45-0.3 0.6q-2.3 0.9-4.6 0.9-2.75 0-3.85-1.4"/>
   <path d="m17 44.75q1.65-1 1.7-0.4 0 0.55-1.75 1.65-9.95 6.3-13.95 18.25-1.5 4.45-1.55 8-0.1 3.35 1.05 3.75 1.7 0.55 4.2-1.35 2.6-1.95 4.2-5.25 0.95-1.85 1.2-1.25 0.25 0.65-0.8 2.65-1.85 3.65-4.4 5.55-2.5 1.85-4.65 1.3-1.9-0.5-2.2-4.25-0.3-3.85 1.3-8.9 4.1-12.95 15.65-19.75"/>
   <path d="m5.9 75.65 0.65-0.1q0.55 0.1 0.45 0.3-2.2 4.2-2.1 12.5 0.05 8.3 2.4 8.7 1.6 0.25 4.3-2.95 2.75-3.2 4.35-7.3 0.75-1.95 1.1-1.35 0.3 0.6-0.55 2.75-1.85 4.7-4.55 7.9-2.85 3.35-5 2.95-3.4-0.55-3.5-9.7-0.15-8.75 2.45-13.7"/>
   <path d="m13.25 92.7 0.65-0.7q0.65-0.5 0.6-0.3-0.75 5.15 1.6 9 2.25 3.75 6.95 5.4 7.05 2.45 15.4-1.4 9.25-4.3 15.35-14.75 0.1-0.2 0.6 0.15l0.45 0.55q-6.15 11.35-16.2 15.85-8.7 3.9-16.2 1.3-4.85-1.65-7.35-5.65-2.6-4.15-1.85-9.45"/>
   <path d="m79.3 63.8 0.55-0.05 0.7 0.25q2.4 3.9 1.8 10.1-0.55 6.35-3.95 12.2-3.15 5.55-7.9 9.05l-8.25 5.55-1.75 1q-0.35-0.1-1.05-1.4l-4.9-7.7q-2.1-3.7-1.6-8.5 0.75-7.25 2.8-11.65 1.4-3 4.6-6.5 0.15-0.15 0.5 0.25l0.3 0.5q-2.9 3.2-4.2 6.25-1.75 4.1-2.5 11.3-0.45 4.25 1.8 8.15l4.6 7.55 7.95-5.35q5.05-3.7 8.1-9.05 3.4-5.9 4.05-12.15 0.65-6.15-1.65-9.8"/>
   <path d="m31.9 54.9q-4.85 3.55-7.7 10.4-1.55 3.85-3.65 10.95l5.95 2.45q5.25 1.7 10.15 1.4 5.45-0.3 10.65-2.95 6.8-3.5 12.6-10.75l0.55 0.2q0.4 0.3 0.25 0.45-10.75 13.9-24 14.65-4.6 0.3-9.65-1.3l-7.1-2.55q-1.35-0.4-1.45-0.8l0.5-1.55q3.15-8.95 4.65-12.45 2.4-5.7 7.3-9.3 4.8-3.6 13.25-3.7 7.55-0.1 12.2 2.3l-0.3 0.45-0.6 0.3q-5-2.35-12.85-1.5-7.25 0.75-10.75 3.3"/>
   <path d="m81.3 23.6s1.0424-0.06524 1.45-0.35c0.49261-0.34416 0.83333-0.8 1-1.5 0.13333-0.66667 0.05-1.1667-0.25-1.5-0.36667-0.4-0.88333-0.6-1.55-0.6-0.56667 0.03333-1.0833 0.21667-1.55 0.55-0.4 0.33333-0.65 0.78333-0.75 1.35-0.13333 0.63333-0.05 1.15 0.25 1.55 0.26667 0.33333 0.73333 0.5 1.4 0.5m0.65-4.9c0.86667 0.03333 1.6 0.38333 2.2 1.05 0.46667 0.53333 0.63333 1.2167 0.5 2.05-0.13333 0.9-0.56667 1.6333-1.3 2.2-0.5 0.33333-1.1833 0.48333-2.05 0.45-0.93333-0.06667-1.6167-0.35-2.05-0.85-0.5-0.6-0.7-1.35-0.6-2.25 0.13333-0.86667 0.5-1.5333 1.1-2 0.63333-0.46667 1.3667-0.68333 2.2-0.65"/>
   <path d="m55.05 21.8c-0.7 0.2-1.2667 0.56667-1.7 1.1-0.46667 0.53333-0.75 1.1167-0.85 1.75-0.1 0.56667-0.01667 0.98333 0.25 1.25 0.36667 0.36667 0.88333 0.48333 1.55 0.35 0.63333-0.13333 1.2167-0.45 1.75-0.95 0.5-0.5 0.83333-1.1167 1-1.85 0.13333-0.73333 0.08403-1.1646-0.3-1.5-0.55458-0.48442-1.7-0.15-1.7-0.15m-2.5 0.4c0.66667-0.76667 1.5167-1.2167 2.55-1.35 0.93333-0.1 1.65 0.06667 2.15 0.5 0.6 0.5 0.85 1.2167 0.75 2.15-0.13333 0.96667-0.61667 1.85-1.45 2.65-0.6 0.6-1.3667 0.93333-2.3 1-0.9 0.06667-1.5833-0.13333-2.05-0.6-0.53333-0.6-0.75-1.3167-0.65-2.15 0.1-0.8 0.43333-1.5333 1-2.2"/>
   <path d="m38.25 46.35c0.03333 0.33333 0.15698 0.65253 0.4 0.85 0.27923 0.22689 1.05 0.25 1.05 0.25 0.36667-0.03333 0.65-0.41667 0.85-1.15 0.16667-0.73333 0.13333-1.1833-0.1-1.35-0.26667-0.2-0.7-0.11667-1.3 0.25-0.63333 0.36667-0.93333 0.75-0.9 1.15m2.75-2.1c0.43333 0.33333 0.53333 1.0833 0.3 2.25-0.26667 1.2333-0.81667 1.85-1.65 1.85-0.56667 0-1.0667-0.16667-1.5-0.5-0.53333-0.4-0.83333-0.91667-0.9-1.55-0.03333-0.8 0.46667-1.4333 1.5-1.9 0 0 1.2024-0.51664 2.25-0.15"/>
   <path d="m29.2 90.2q-0.3 1 0.05 1.45 0.45 0.55 1.55 0.35 1.05-0.15 2.05-0.85 1.1-0.7 1.6-1.75 0.45-1 0.05-1.55-0.35-0.5-1.4-0.5-1.25 0-2.6 0.95-1 0.7-1.3 1.9m-0.65 2.1q-0.7-0.95-0.3-2.5 0.35-1.6 1.6-2.5 1.45-1.1 3.25-0.95 1.7 0.15 2.2 1.25 0.55 1.25-0.1 2.65-0.6 1.25-1.85 2-1.15 0.65-2.6 0.7-1.6 0.1-2.2-0.65"/>
   <path d="m124.95 39.3q2.15 0.35 2.8 1.95 0.7 1.75-0.1 5.4-1.7 7.9-5.85 14.2-5.65 8.65-15 12.8-2.65 1.2-3.3 0.85-0.7-0.4 1.8-1.45 9.55-4.1 15.2-12.65 4.2-6.35 5.55-13.8 0.95-5.05-1.15-5.85l-3.2-0.85q-2.45-0.75-4.75-2.2-2.15-1.65-4.1-5.7-1.65-3.35-1.8-4.95-0.05-0.2 0.65-0.75 0.65-0.6 0.65-0.35 0.3 2.2 1.7 5.45 1.65 3.85 3.5 5.25l2.65 1.45q1.75 0.7 4.75 1.2"/>
   <path d="m125.7 40.8 0.8 0.1q0.75 0.2 0.35 0.15-1.5-0.05-2.75 0.65-1.1 0.65-1.5 1.6-0.15 0.45 0.8 2.05 1.05 1.7 1.9 1.7l0.65-0.5 0.55-1.6q0.1-0.25 0.35 0.15l0.2 0.65q-0.45 2.3-1.75 2.3-1.45 0-2.8-2.25-1.3-2.25-0.6-3.3 0.8-1.15 2.15-1.55l1.65-0.15"/>
   <path d="m104.3 77.1q0-0.2 0.75-0.65t0.75-0.25q0.15 8.2-2 19.6l0.05 3.7q-0.25 1.8-1.5 2.2-1.6 0.5-3.8-0.5-2.15-1-3.05-2.65-0.1-0.2 0.15-0.6 0.3-0.4 0.4-0.2 0.75 1.2 2.55 2.1 1.85 0.95 3.05 0.55 1-0.3 1.1-2.1v-2.6l1.05-8.35q0.55-5.5 0.5-10.25"/>
   <path d="m100.5 97.8q-0.5-1.2-0.15-1.35 0.3-0.2 0.95 0.85 0.5 0.75 0.45 1.95-0.05 1.25-0.75 2.2l-0.5-0.1q-0.35-0.25-0.2-0.45 0.5-0.65 0.5-1.65l-0.3-1.45"/>
   <path d="m48.1 115.65q9.4 2.15 11.7 0.6 0.9-0.6 0.55-2.05-0.35-1.4-1.35-2.05-0.2-0.1 0.15-0.55t0.55-0.35q1.35 0.95 1.95 2.85 0.75 2.25-0.9 3.35-3.05 2-13.1-0.45-11.3-2.7-17.35-8.95-0.2-0.15 0.35-0.45 0.5-0.35 0.65-0.2 5.9 5.8 16.8 8.25"/>
   <path d="m58.4 114.3q-1.05-0.7-0.6-0.95 0.4-0.25 1.55 0.5 1.05 0.7 1.3 1.75 0.3 1.05-0.5 1.7h-0.55q-0.4-0.1-0.3-0.3 0.55-0.7 0.2-1.5-0.25-0.65-1.1-1.2"/>
   <path d="m76.1 105.95q-0.15-0.15 0.2-0.55t0.55-0.25q0.85 0.6 1.5 1.85 0.7 1.3 0.4 2.1-0.6 1.65-6.55 2.1-4.8 0.4-8.35-0.1l-0.2-0.45q0.05-0.45 0.25-0.45l9.3-0.35q3.6-0.45 4-1.25 0.25-0.45-0.1-1.25l-1-1.4"/>
   <path d="m76.25 107.8-0.3-0.55 0.85 0.05q1 0.4 1.2 1.15 0.2 0.65-0.3 1.3h-0.55q-0.45-0.15-0.35-0.35 0.25-0.25 0.1-0.75t-0.65-0.85"/>
  </g>
  <path d="m94.7 81.65q-0.35 8.2 0.45 13.55 0.4 2.7 0.85 3.7 2.8 5.35-2.95 4.85-5.3-0.4-9.3-3.7-2.85-2.35-4.3-7.7l-0.9-4.85 16.15-5.85" fill="#fff"/>
  <path d="m84.95 100.9q-6.25-4.15-6.2-12.3 2.25 6.75 7.8 10.25 4.8 3.1 10.3 2.75l-0.1 0.85q-0.6 0.9-2.8 1.1-4.35 0.4-9-2.65" fill="#dbdcdc"/>
  <g fill="#0d131a">
   <path d="m93.95 83.15q0.2-1.7 0.75-1.6 0.5 0.05 0.55 1.95 0 3.55 0.3 7.85 0.35 5.3 0.9 7.3 1.45 2.3 0.8 3.9-0.7 1.75-3.75 1.8-4.85 0.05-9.2-3.1-5.65-4.1-6.2-11.6-0.15-2.1 0.5-2.25 0.6-0.2 0.8 1.85 0.7 6.9 5.55 10.85 4 3.2 8.5 3.15 2-0.05 2.5-1.45 0.45-1.3-0.45-2.65-0.4-0.55-1.1-6.4-0.75-6.4-0.45-9.6"/>
   <path d="m93.15 101.3q-0.3-1.15 0.05-1.2 0.35-0.1 0.8 0.85 0.6 1.25-0.1 2.85-0.05 0.2-0.5 0.2t-0.4-0.2q0.4-1.4 0.15-2.5"/>
   <path d="m72.9 23.85q0.95-0.9 1.15-0.85l0.65 1.15q0.75 2 3.3 6.35 1.95 4.35 0.75 8.95-0.35 1.45-0.7 1.5t-0.15-1.4q0.7-4.45-1.35-9.35l-2.9-5.55q-4.4 3.2-6.75 5.95-4.4 5.1-2.45 12.25-0.85 0.3-0.95 0-2.55-6.9 1.55-12 2.35-2.9 7.85-7"/>
   <path d="m94.45 34.5 1.45 0.15q0.25 0.2-0.05 1.45l-1.9 8.25q-1.6 3.95-6.75 6.55-1.7 0.85-1.95 0.55-0.3-0.3 1.3-1.25 4.65-2.7 6.25-7.1 1.15-5.05 1.85-7.45-4.1-1.1-7.45-1.3-6.5-0.4-8.6 5.05l-0.2-0.6q-0.15-0.75 0-1.05 2.9-5.3 8.65-4.85 3.05 0.3 7.4 1.6"/>
   <path d="m86.25 50.95 0.1-0.45 0.4-0.3q6 2 7.5 7.8 0.8 3.05 0.9 7.65 0.35 1.2 0.05 1.25l-1.9-0.25q-5.65 0.2-8.55-0.2-5.15-0.65-7.75-4.9-1.2-2-0.7-2.05 0.45-0.1 1.8 1.9 2.3 3.4 8.35 3.85l7.6 0.35q-0.35-4.35-1.15-7.3-1.45-5.5-6.65-7.35"/>
   <path d="m77.25 61.75h0.5q0.55 0.05 0.6 0.25 2.6 5.8-0.8 10.55l-3.15 3.7q-1.95 2.2-2.65 3.8l-0.7 1.35q-0.3 0.05-1.1-1.1-3.4-3.85-4.9-6.3-2.55-4.3-1.45-10.05 0.05-0.2 0.5-0.25l0.5 0.15q-0.9 5.25 2.1 9.8 1.6 2.4 4.1 5.3 4-4.85 5.7-7.5 2.95-4.6 0.75-9.7"/>
   <path d="m66.25 61.4q0.25 0.35-0.85 1.8-3.35 4.35-7.6 5l-7.2 0.25-1.45-0.05q-0.25-0.2 0.15-1.1 0.35-0.8 0.5-3.05l0.4-4.15q1.05-5.55 5.85-7.65 0.2-0.1 0.65 0.25l0.25 0.4q-4.3 1.9-5.4 7.25-0.55 2.8-1 7.1 2.05-0.15 6.4-0.15 4.05-0.7 7.8-4.85 1.2-1.35 1.5-1.05"/>
   <path d="m46.45 40.95q7.35-2.6 7.7-2.65 5.45-0.8 9.65 3.75 1.85 2 1.7 2.65-0.1 0.65-1.8-1.35-4.15-4.8-10.35-3.6-1.95 0.35-4.25 1.35l-2.35 1.05q0.9 0.8 3.4 4.9 3.05 4 7.2 5.45 1.75 0.6 1.3 0.9-0.5 0.35-2.35-0.3-4.65-1.35-7.1-4.85-1.9-3.75-3.05-4.9-1.25-1.3-1.2-1.55 0-0.3 1.5-0.85"/>
   <path d="m71.3 48q-0.5 0-0.5-1.55 0.05-1.6 0.55-1.6t0.5 1.55q-0.05 1.55-0.55 1.6"/>
   <path d="m65.8 48.95c0.8 0.3 1.1675 0.37595 1.05 0.8-0.12086 0.43634-1.35 0.15-1.35 0.15-0.83333-0.16667-1.234-0.40641-1.1-0.85 0.13526-0.44788 1.4-0.1 1.4-0.1"/>
   <path d="m77.15 49q-0.95 1-1.25 0.7-0.35-0.3 0.55-1.3 0.85-1 1.3-0.7 0.35 0.3-0.6 1.3"/>
   <path d="m75.4 52.8q0.25-0.4 1.3 0.5t0.7 1.25q-0.35 0.3-1.3-0.6-0.9-0.9-0.7-1.15"/>
   <path d="m71.45 55.75q0.4 0 0.35 1.4-0.05 1.35-0.5 1.25-0.5-0.1-0.35-1.4 0.1-1.3 0.5-1.25"/>
   <path d="m67.6 53.5q0.25 0.35-0.75 1-1 0.7-1.25 0.35-0.25-0.3 0.75-0.95 1-0.7 1.25-0.4"/>
  </g>
  <path d="m110.5 57.9 4.15 0.25q3.2-0.3 5-1.8-0.75 2.8-3.65 6.4-2.95 3.7-4.55 3.5-1.35-0.15-1.3-4.25l0.35-4.1" fill="#ed8599"/>
  <path d="m110.3 59.95 0.35-2.3 4.6 0.35q2.8-0.3 4.5-1.55-1.75 3.5-4.2 6.8 0.05-0.9-1.65-2.05-1.75-1.2-3.6-1.25" fill="#922f00"/>
  <path d="m110.05 62.5 0.2-2.75q2.05 0.15 3.85 1.7l1.4 1.55q-1.3-0.9-2.85-1.05t-2.6 0.55" fill="#ce7486"/>
  <path d="m111.55 65.3q1.7 0.2 4.4-3.35 1.9-2.45 2.8-4.4-3.5 1.5-7.85 0.9-0.4 2.85-0.2 4.85 0.2 1.95 0.85 2m9.2-8.9-0.65 0.45q-1.15 3.5-4.15 6.9-3.1 3.6-4.65 3.2-1.45-0.4-1.7-3.5-0.2-2.15 0.2-4.85 0.1-0.95 0.3-1.1l1.25-0.1 4.55-0.25q2.9-0.55 4.65-1.7 1.5-0.95 1.65-0.5 0.1 0.4-1.45 1.45" fill="#0d131a"/>
  <path d="m110.35 60.1q-0.15-0.05 0-0.35l0.25-0.3q3.45 0.3 5.3 3.35l-0.25 0.4-0.5 0.05q-0.6-1-1.95-1.9-1.45-1.05-2.85-1.25" fill="#0d131a"/>
  <path d="m100.4 41.45 1.5-1.75q2.1 1.8 3.3 5.05 0.65 1.9 0.65 3.9-0.05 2.35-1.15 2.55-2 0.35-4-3.95-0.7-1.45-0.55-3.8l0.25-2" fill="#009f50"/>
  <path d="m101.85 42.45s-0.42467-0.80788-0.45-1.25c-0.0167-0.29059 0-0.75 0.2-0.85l0.9 0.15 0.95 1.05c0.63333 1.1 0.73333 1.7833 0.3 2.05-0.46667 0.26667-1.1-0.11667-1.9-1.15" fill="#fff"/>
  <g fill="#0d131a">
   <path d="m102.55 43.5c0.43333-0.1 0.91667 0.68333 1.45 2.35l0.45 1.85c0.0524 0.65472-0.2 0.75-0.2 0.75-0.43333 0.13333-0.91667-0.6-1.45-2.2-0.26667-0.73333-0.41667-1.3833-0.45-1.95 0-0.46667 0.0667-0.73333 0.2-0.8"/>
   <path d="m102.2 38.65q0.9-1.15 1.1-0.7 0.25 0.45-0.65 1.7l-2.55 2.8q-0.9 0.75-1.15 0.5t0.6-1.2l2.65-3.1"/>
   <path d="m101.6 40.1q-0.15-0.15 0.15-0.4t0.5-0.15q3.3 2.65 3.9 7.15 0.5 4.15-1.25 4.8-1.8 0.65-3.75-2.3-2.1-3.25-1.15-7.35 0.05-0.2 0.45-0.3 0.4-0.05 0.35 0.15-0.55 3.3 1.05 6.5 1.45 2.9 2.7 2.45 1.3-0.45 0.45-4.3-0.85-4.05-3.4-6.25"/>
  </g>
 </g>
</svg>
