<?xml version="1.0" encoding="UTF-8"?>
<!-- Created with Inkscape (http://www.inkscape.org/) -->
<svg version="1.1" viewBox="0 0 408.29 343.65" xmlns="http://www.w3.org/2000/svg">
 <path d="m209.65 256.86c-0.38293 5.9431-9.7264 10.915-20.723 6.7013-7.3523-2.7801-13.644-4.105-18.94-4.3195 2.7801-10.348 8.8082-19.723 18.345-24.884 14.022 5.6214 21.803 14.887 21.317 22.506m23.343-196.88c-47.633-25.775-101.37-5.6214-121.82 32.205-15.967 29.476-10.942 63.6 12.51 99.777-31.206-10.348-76.326-12.915-103.34-2.6192-13.969 5.2921-14.779 21.101-8.6458 29.341 7.6433 10.348 18.831 9.2133 24.289-2.0832 2.8337-5.8588 5.2385-7.9159 11.78-9.97 18.075-5.7287 42.148-6.7243 63.492-2.1061 8.2675 1.7844 10.348 6.349 6.4332 13.563-6.4332 11.78-19.128 27.099-32.205 41.311-22.371 24.289-31.151 36.825-35.339 53.306-1.4322 5.698-0.94199 7.3216 2.3742 9.8888 4.082 3.1324 9.8076 5.1849 14.131 5.6214 8.5646 0.88839 14.859-1.1871 21.452-7.0536 10.213-9.051 21.911-14.671 33.151-14.077 10.375 0.53613 18.129 9.1053 18.345 21.939 0.0536 4.5952 1.0799 6.7549 4.5645 8.835 6.1346 3.6761 18.507 5.0776 29.855 1.8917 6.2112-1.7538 8.6726-4.2659 9.5373-10.888 1.2177-9.1321-1.3479-22.965-7-29.503-1.9989-2.3206-3.6225-5.0777-4.9168-8.1059 0.4595 0 0.88839 0.0277 1.3479 0.0544 32.07 0.45953 54.117-13.752 54.414-31.179 0.22966-15.616-10.942-28.612-30.719-37.824 30.692-0.15319 59.79-15.346 74.677-42.851 21.642-39.986 7.8087-94.509-38.365-119.47" fill="#a5abc1"/>
 <g fill="#d6bb38">
  <path d="m81.376 15.76c0 6.5404-4.9475 10.861-10.105 10.861-6.0503 0-9.8344-4.105-9.8344-10.726 0-6.617 4.082-11.456 9.8344-11.456 5.5908 0 10.105 4.4879 10.105 11.321"/>
  <path d="m400.76 172.28c-4.4037 5.0011-11.32 5.0776-15.509 1.3786-4.3195-3.7834-4.4037-10.618-0.0765-15.481 4.4573-5.0547 11.537-5.024 15.509-1.5164 4.3194 3.837 4.4343 10.727 0.0765 15.617"/>
  <path d="m49.922 233.92c-0.61269 5.3993 2.1368 10.996 8.1595 12.887 5.1313 1.6236 11.05-0.68926 13.725-5.5908-7.5897-1.4322-14.968-3.8906-21.884-7.291"/>
  <path d="m20.324 189.32c27.045-10.294 72.165-7.7 103.37 2.6192-23.479-36.15-28.477-70.301-12.536-99.777 3.0251-5.5678 6.7779-10.753 11.131-15.481-22.587-9.3757-49.118-9.2945-73.002 2.9409-43.013 22.019-58.791 73.813-37.636 116.12 1.9989-2.6728 4.8096-4.9704 8.6726-6.4332"/>
 </g>
 <g fill="#9094a8">
  <path d="m196.16 223.56c-3.9978-3.1094-2.7035-7.2451 2.2669-7.5667 37.798-2.2976 72.651-29.395 81-59.818-8.9698 45.822-45.336 64.113-83.269 67.383"/>
  <path d="m30.264 209.85c-5.2998 8.943-12.591 10.672-20.939 4.3501 0.6127 1.6466 1.3786 3.163 2.3512 4.488 7.6732 10.321 18.859 9.2125 24.289-2.0832 2.8337-5.8588 5.2691-7.9159 11.78-9.9968 18.102-5.698 42.148-6.7013 63.519-2.0831 3.3468 0.76586 5.6444 1.9146 7 3.5383l1.57-0.942c-14.536-16.589-79.081-14.968-89.564 2.7265"/>
  <path d="m148.73 269.08c3.5689 24.343 69.76 20.56 78.622-11.834 0.61269 24.343-28.72 33.989-50.01 34.097-26.856 0.15319-33.097-10.24-28.612-22.263"/>
  <path d="m210.45 250.68c-2.7801-8.943-11.375-17.237-19.48-21.939-3.2702-1.8917-5.8359-1.4858-9.3481 0.97266-8.943 6.2647-16.778 15.887-20.939 30.287 2.5427-0.83478 5.9967-1.1641 9.2945-0.78117 2.3206-7.8899 8.6726-20.993 18.345-24.884 7.3216 2.5427 15.428 8.9698 22.128 16.346"/>
  <path d="m81.192 317.06c-8.9974 6.4332-18.777 7.8891-27.694 6.2111 3.9748 2.7265 9.1321 4.5109 13.131 4.9475 8.5646 0.86542 14.887-1.2177 21.479-7.0536 10.213-9.0778 21.884-14.698 33.151-14.077 3.7833 0.22966 7.2144 1.4858 10.05 3.6455l0.86542-1.2713c-14.724-10.456-28.072-8.7814-50.983 7.5897"/>
  <path d="m148.9 283.25c1.7538 4.3501 7.1838 10.537 14.103 14.319 2.3512 1.2714 4.105 2.5656 5.7516 5.2155 5.4836 8.8074 7.3216 21.992 4.4573 29.26-1.9453 4.9168-6.8085 8.3762-11.672 9.862 5.4606-0.38293 9.1322-0.97266 12.482-2.1597 5.9201-2.1368 8.943-5.2155 9.5373-10.888 1.1641-11.051-1.4322-23.182-7-29.504-2.1367-2.4278-4.1586-5.3457-4.9398-8.1051-7.7275 0.0267-16.535-2.9409-22.722-7.9971"/>
 </g>
 <g fill="#b9a230">
  <path d="m111.26 204.53c-21.371-4.6181-45.417-3.6225-63.519 2.0831-6.5098 2.0832-8.9161 4.1357-11.753 9.9968-1.1105 2.2669-2.4278 4.082-3.9136 5.5372 18.777 16.238 43.958 23.425 68.842 19.588 6.9693-8.4566 12.968-16.67 16.751-23.641 3.9442-7.2144 1.861-11.78-6.4026-13.563"/>
  <path d="m111.16 92.175c3.0252-5.5908 6.7779-10.753 11.131-15.481-5.1083-2.1367-10.429-3.7297-15.832-4.8632-3.8676 4.779-8.187 10.699-12.753 17.372 4.5952-0.22966 12.807 1.2407 17.454 2.9715"/>
  <path d="m108.37 97.862c-39.986-15.806-86.944 23.343-71.247 68.247 2.1904-1.2943 3.8599-2.0831 6.4562-3.3774-10.132-28.721 10.456-59.953 43.607-64.681 2.1367-0.30634 2.7265 0.38293 1.57 2.1061-4.2965 6.4026-8.2943 13.185-12.239 21.182-4.8939 3.9978-9.3749 11.591-10.564 16.778l-1.7308 0.0536c-8.4834 15.373-16.373 32.962-20.371 45.741 25.478-3.0558 56.521 0.30636 79.837 8.0515-21.965-33.88-27.747-65.951-15.319-94.103"/>
  <path d="m111.16 92.175c-24.56-9.4561-55.387 3.9978-67.842 25.829 16.832-22.506 46.12-27.747 65.059-20.128 0.68926-1.5394 1.7308-3.8063 2.7801-5.698"/>
  <path d="m3.699 141.12c-1.9989 11.159-1.838 22.749 0.68926 34.124 4.6718-5.2691 9.4025-10.105 14.86-15.482-1.4858-11.239-1.0033-23.343 1.7844-32.286-5.7822 3.837-11.699 8.3479-17.318 13.644"/>
  <path d="m27.565 187.03c-2.3818-5.2385-4.4037-10.537-5.6444-14.239-5.2691 4.3807-9.5373 8.619-14.022 14.266 1.0799 2.9486 2.3206 5.8358 3.7527 8.7002 1.9989-2.6729 4.8096-4.9704 8.6726-6.4332 2.2669-0.86542 4.7254-1.6236 7.2374-2.2976"/>
 </g>
 <g fill="#0f141b">
  <path d="m147.8 279.17c-20.128 1.2407-44.255-7.7276-57.656-25.262l3.8063-4.4343c12.51 15.13 34.799 24.613 53.523 23.586z"/>
  <path d="m80.531 264.02c19.858 22.182 63.762 34.096 83.215 24.937l5.9967 2.5963c-18.021 14.508-70.246 3.431-92.995-22.614z"/>
  <path d="m81.111 264.4c-4.8096-6.1575-9.6996-12.158-14.455-17.534l4.1356-3.9442c4.7254 5.3457 9.5909 11.104 14.238 17.102z"/>
  <path d="m75.57 241.6c-3.7527 7.7812-12.104 10.213-18.588 8.1863-8.4298-2.6729-12.023-11.023-10.78-17.832l5.8588 2.9716c-0.30633 4.3271 1.9147 7.8079 6.7013 9.3213 4.8402 1.5394 8.7806 0.0765 10.807-3.3468z"/>
  <path d="m81.152 12.248c36.15-0.76586 89.699 1.57 125.07 4.6488 3.4081 0.30636 3.9442 1.1641 4.1356 3.7298 1.1105 14.374 0.83481 26.207 0.30636 39.96-0.30636 6.8085-4.7024 6.9157-4.9704 0.1532-0.6127-14.67-1.0799-23.235-2.3206-36.393-31.719-3.2932-84.674-5.5678-122.2-4.8096z"/>
  <path d="m382.03 161.31c-27.099-32.935-84.944-89.322-119.88-115.29-9.0234 9.6721-14.157 15.454-25.613 28.315-5.4606 6.1346-9.2401 3.7527-4.2659-2.6729 9.8888-12.779 16.86-22.83 26.694-34.124 1.7844-2.0525 3.0788-2.0831 5.3227-0.38293 35.664 26.559 95.292 83.999 123.01 118.2z"/>
  <path d="m33.514 220.71c18.399 15.805 43.364 23.127 69.058 19.048l-2.9486 3.9442c-24.613 3.5153-49.93-3.6761-68.95-20.074z"/>
  <path d="m10.184 197.48c-21.75-41.392-8.511-95.346 38.285-119.34 23.721-12.158 50.253-12.968 75.218-3.0022l-2.9179 3.1324c-24.208-10.266-49.875-7.7812-70.706 2.895-39.905 20.452-57.17 70.949-37.176 112.66z"/>
  <path d="m63.695 202.83c15.184 11.159 35.609 15.184 55.17 6.1039l0.61269 3.1324c-20.318 9.9156-43.391 5.0547-59.71-8.3487z"/>
  <path d="m45.199 183.12c3.8906-2.244 9.6452-5.43 13.265-7.4289l1.6466 2.2669c-2.8107 1.57-6.8392 3.8063-10.077 5.6214z"/>
  <path d="m52.348 160.25c-4.488 1.9453-8.4834 3.9212-13.752 6.8927-1.8074 1.0263-2.4584 0.68929-2.9716-1.0263-8.727-28.693 2.5656-53.819 28.423-67.086 13.59-6.9464 30.449-7.916 45.012-2.6729l-1.2177 2.5963c-14.616-4.6182-29.908-3.2166-42.337 3.163-24.694 12.644-34.258 36.312-27.45 62.087 3.86-2.3512 8.3219-4.3731 13.969-6.9157z"/>
  <path d="m110.52 93.356c-26.288-7.7-53.009 4.488-65.653 25.1l-7.4059 8.2675c10.402-29.179 43.85-45.769 74.434-35.988z"/>
  <path d="m109.05 231.59c-5.1083 0.61267-10.888 0.61267-16.292 0.0267-4.1356-0.4595-3.9978-2.4584 0.07672-2.1903 5.3993 0.38293 11.158 0.0765 18.237-0.78118z"/>
  <path d="m81.241 230.04c-7.268-1.2713-14.211-3.8063-20.777-7.4059-3.7527-2.0832-2.7035-4.2429 1.1335-2.267 6.5098 3.3468 12.996 5.8665 20.074 7.4825 4.6182 1.0263 3.7834 2.918-0.4595 2.1904"/>
  <path d="m44.286 207.55c2.1061 2.1368 4.3807 4.1357 6.7243 5.9967 3.6225 2.8643 1.9759 4.5416-1.5088 2.0295-2.6499-1.8917-5.1619-3.9748-7.5361-6.2112z"/>
  <path d="m25.771 187.16c-5.8129-11.834-8.9162-25.289-8.7806-39.041 0.0267-4.4573 2.5656-4.3731 2.7265 0.0544 0.45953 13.779 3.7297 26.829 9.4561 38.311z"/>
  <path d="m18.101 133.12c2.0295-14.05 7.291-26.883 16.427-38.933 2.6728-3.5383 4.2965-2.3512 1.8074 1.325-8.0507 11.888-12.968 24.262-15.535 38.23-0.86542 4.6718-3.3774 4.1357-2.7035-0.6127"/>
  <path d="m63.99 146.1c-4.2429 1.8917-7.2144 11.05-2.3206 21.938 4.0514 8.9974 11.942 15.32 17.805 12.699 4.6488-2.0832 7.1072-11.267 2.3512-21.884-5.5142-12.266-13.968-14.482-17.832-12.752m-5.0777 23.046c-4.6488-10.321-3.6225-21.614 4.105-25.181 6.0273-2.7801 15.886 1.3249 21.452 13.752 4.3501 9.6996 4.0514 21.614-4.0284 25.235-6.9157 3.1094-16.291-2.1597-21.533-13.806"/>
  <path d="m108.32 161.86c-0.5361 0.38293-1.1641 0.68927-1.7844 0.94202-2.4278 1.1105-3.4311-0.0767-0.86542-1.7002 0.68929-0.4595 1.1641-0.76586 1.8381-1.3479z"/>
  <path d="m102.93 141.57c-1.6466-0.45953-3.5689-0.53612-5.2385-0.15319-2.7571 0.61269-3.3468-0.86543-0.61269-1.8381 1.7538-0.61269 3.7527-0.76586 5.5908-0.38293z"/>
  <path d="m101 164.09c-4.5416 0.38293-9.2669-2.6499-11.429-6.8621-2.512-4.9168-1.8381-11.023 2.3206-14.562 2.0831-1.8074 3.2702-0.61269 1.5394 1.3786-2.895 3.3774-3.4311 7.8348-1.2943 11.969 1.8917 3.6991 4.9168 5.8052 8.8886 6.1575 2.8337 0.30633 2.7801 1.6772-0.0267 1.9146"/>
  <path d="m87.966 183.53c2.2976-2.8643 3.8599-7.3752 3.5919-13.914-0.07647-2.4278 0.4595-3.0022 3.4847-1.4552 5.2385 2.6193 10.969 1.3479 15.076-1.57l1.1871 2.7801c-4.9168 3.5689-12.618 3.9212-17.156 1.2713 0.15319 5.43-0.86542 10.024-3.0788 13.455z"/>
  <path d="m62.08 182.68c-2.8643-2.7265-5.43-6.1346-7.4595-10.105-7.7536-15.13-3.9978-29.936 5.0011-34.529 5.3993-2.7801 15.211-1.4858 22.668 5.6444 3.1324-7.6433 11.375-12.671 19.614-12.293l0.15319 2.7571c-7.5131-0.45951-14.832 4.2122-17.75 11.159-0.86542 2.1061-1.6466 2.1904-3.0558 0.83479-6.8851-6.4868-15.94-7.9971-20.398-5.698-6.9157 3.5383-10.807 16.157-3.3774 30.665 2.5427 4.9704 5.8359 8.8886 9.3213 11.645z"/>
  <path d="m74.84 140.42c4.3807-11.753 15.454-18.535 27.558-17.292l-0.15319 2.6728c-11.132-0.81182-20.777 5.3763-24.965 15.805z"/>
  <path d="m102.28 121.7c-5.4606-0.45952-11.267 0.68927-16.751 3.5383-2.4891 1.2943-3.5689 0.0544-0.94202-1.6466 5.2155-3.3774 11.861-4.8096 17.967-4.4879z"/>
  <path d="m70.967 138.64c1.9146-4.5109 4.7254-8.4566 8.1863-11.267 2.2133-1.8074 3.4081-0.45953 1.3479 1.5164-3.163 3.1094-5.2921 6.2954-7.0536 10.537z"/>
  <path d="m64.277 137.94c4.779-18.183 22.1-28.585 39.554-25.667l-0.61269 2.7571c-16.399-2.0295-30.638 7.5667-35.852 23.101z"/>
  <path d="m117.43 181.58c-1.2177 0.61266-2.4584 0.99562-3.9748 1.3249-2.8337 0.61269-3.6991-0.68927-0.53612-1.8074 1.4015-0.53612 2.3512-0.91905 3.4617-1.5394z"/>
  <path d="m91.778 179.04c4.2429 2.3206 9.5641 3.6225 15.049 3.186 3.0558-0.22966 3.2166 1.4858 0.15319 1.8917-5.7286 0.78116-11.104 0-16.21-2.6193z"/>
  <path d="m113.12 172.88c-4.5952 4.082-10.943 4.5952-15.509 3.454-0.38293 2.1903-0.94199 3.9748-1.8381 5.7286l-2.4354-0.78118c0.83478-1.7308 1.3785-3.5919 1.7308-5.8359 0.30633-1.9223 0.78118-2.1597 2.8107-1.7308 4.5952 1.0033 10.159 0.30636 14.103-3.2932z"/>
  <path d="m58.441 94.26c0.88842-2.3206 0.30636-4.8326-1.6466-6.5634-1.838-1.6236-0.97263-2.8873 1.1105-1.57 3.2932 2.1367 3.814 6.3184 2.244 8.9973-1.2177 2.0831-2.6192 1.5088-1.7002-0.86542"/>
  <path d="m46.939 93.869c-1.0799-3.8599 1.1335-7.7544 5.1083-8.727 2.489-0.6127 2.9179 0.97263 0.5361 1.838-2.5963 0.91905-3.8906 3.6761-3.2166 6.1882 0.76589 2.6499 3.186 4.1586 5.9737 3.6455 2.3512-0.45953 2.7801 1.1105 0.53609 1.8381-3.7527 1.1871-7.6732-0.45953-8.8886-4.779"/>
  <path d="m76.189 86.601c1.2177-1.9453 0.91905-4.3501-1.0262-5.9431-1.9453-1.6236-0.99562-2.9179 1.1335-1.5394 3.3238 2.1597 3.5153 6.1575 1.4322 8.6726-1.7002 2.0832-2.9486 1.0799-1.5394-1.1871"/>
  <path d="m65.941 86.015c-0.94202-3.408 0.61267-6.8927 4.7254-7.9971 2.1597-0.61269 2.5963 0.99563 0.5361 1.8074-2.3206 0.91903-3.431 3.1324-2.7571 5.5372 0.61269 2.2669 2.1904 3.3545 4.488 3.3238 2.4584-0.0536 2.8873 1.57 0.38293 1.861-3.6225 0.45953-6.3184-0.88838-7.3446-4.5416"/>
  <path d="m93.669 81.311c0.81182-1.8917 0.30636-4.1357-1.4322-5.3227-1.9989-1.3479-0.99562-2.7801 1.0799-1.57 2.8873 1.6772 3.4847 5.1312 2.0831 7.7-1.0569 1.9223-2.6499 1.3249-1.7308-0.81182"/>
  <path d="m86.045 74.669c1.9453-1.4551 3.0252-0.0765 1.1871 1.4858-3.163 2.7801-0.4595 8.4022 3.7834 7.4059 2.1061-0.45952 2.5656 1.2177 0.5361 1.8381-7.268 2.267-10.726-6.7779-5.4835-10.726"/>
  <path d="m98.738 219.81c-2.4278 0.38293-3.8676 2.3206-3.5689 4.4037 0.30633 2.0295 1.7002 3.7833 4.6488 3.3468 1.9453-0.30633 3.837-2.2133 3.5153-4.5416-0.30636-2.0295-2.3206-3.5689-4.5952-3.2166m-6.0503 4.7024c-0.45953-3.0558 1.6772-6.2418 5.7286-6.8315 3.6455-0.5361 6.8391 1.6772 7.3216 5.0547 0.5361 3.4617-1.861 6.4026-5.5678 6.9464-4.6488 0.68929-6.9999-1.8917-7.4824-5.1619"/>
  <path d="m113.26 225.45c-1.57-0.91905-2.4278-2.2976-2.7265-4.4344-0.76586-4.8938 4.2429-8.1051 8.8074-6.617l-0.68929 2.0831c-3.2166-1.0798-6.1039 1.4628-5.7286 4.1357 0.15319 1.2177 0.83478 2.3206 1.7308 2.8873z"/>
  <path d="m71.347 6.944c-4.1586 0-7.268 3.2396-7.268 8.9698 0 4.8938 2.4891 8.3218 7.2144 8.3218 3.5689 0 7.4059-2.7035 7.4059-8.4842 0-5.6444-3.2932-8.8074-7.3523-8.8074m-0.0544 24.127c-9.2937 0-14.427-6.3796-14.427-15.292 0-8.9973 5.6444-15.779 14.374-15.779 8.2407 0 14.59 6.9693 14.59 15.833 0 9.7808-7.7812 15.238-14.536 15.238"/>
  <path d="m398.79 170.48c3.431-3.8906 3.3468-9.1865 0.22966-11.942-3.2166-2.8337-8.6994-2.1597-11.807 1.3786-3.5153 3.9748-3.0558 9.5916-0.38293 11.969 3.0558 2.7035 8.3754 2.6499 11.942-1.4015m5.2155 4.8632c-6.0273 6.8315-15.968 6.8085-21.858 1.6236-5.8359-5.1312-6.1882-15.373-0.45953-21.884 5.698-6.4562 16.022-7.0536 22.047-1.7538 5.7286 5.0777 6.349 15.157 0.30636 22.02"/>
  <path d="m174.16 291.21c0.61269 1.9223 2.244 4.5952 4.105 6.8085 6.0273 7.1838 8.7806 21.317 7.3523 31.097-1.2407 8.3762-4.105 10.619-11.185 12.618-11.185 3.163-24.019 2.4048-31.557-2.1061-4.1586-2.512-5.2691-4.6488-5.3533-10.591-0.22966-12.672-7.8348-19.886-16.373-20.344-8.2407-0.45953-20.858 4.082-31.935 14.049-7.1838 6.4332-14.428 8.5102-22.885 7.6433-5.3763-0.5361-10.915-2.7571-15.211-6.0809-3.9978-3.0558-4.9168-5.3764-3.2396-12.212 3.7298-15.13 11.509-28.018 35.691-54.28 15.724-17.102 24.613-27.396 32.394-40.634 3.0558-5.2155 2.1061-9.2401-5.1619-10.807-20.642-4.4573-44.634-3.4004-62.52 2.0295-5.5142 1.6772-8.1059 3.8906-10.591 9.0509-6.0809 12.618-18.588 14.185-27.45 2.2669-6.3184-8.511-8.0783-25.64 9.2669-32.233 27.991-10.672 70.814-7.6724 100.18 1.4322-22.344-33.232-26.694-69.166-11.132-97.94 19.48-36.015 73.354-60.466 125.36-32.557 47.309 25.37 61.952 81.108 39.581 122.42-13.671 25.262-41.067 42.04-70.3 42.851 16.535 8.2675 26.72 21.668 26.477 36.636-0.30636 19.21-23.749 33.448-56.71 32.881-17.751-0.30634-27.478-6.372-27.478-19.317 0-8.511 11.267-24.478 43.985-11.996 9.4569 3.5919 17.724 0.0275 18.048-5.1619 0.38293-6.5404-6.4332-15.238-19.075-20.452-8.3218 4.9704-13.806 13.563-16.481 23.02l-4.1586-0.15319c2.7571-11.185 9.7264-20.588 18.345-25.667 1.593-0.91903 2.244-1.0799 4.2965-0.30634 12.915 5.2385 21.723 15.346 21.209 23.803-0.4595 7.5897-11.185 12.86-23.451 8.1863-24.586-9.3749-39.095-0.0765-39.095 8.727 0 8.0783 7.1608 15.265 23.884 15.508 29.342 0.38293 51.712-12.698 51.982-29.341 0.22966-13.861-8.8618-25.397-26.288-34.799-5.4606-2.9486-4.0514-4.4343 0.78118-4.779 30.152-2.1061 56.089-17.184 69.652-42.256 21.182-39.175 7.3523-92.563-37.122-116.61-43.364-23.479-97.022-7.9703-118.58 31.854-15.319 28.341-11.023 60.034 10.322 95.265 2.6193 4.2965 1.6772 5.5908-3.6991 3.9978-32.854-9.754-74.948-10.483-99.048-1.5164-12.779 4.756-12.887 19.642-7.916 26.316 6.9157 9.3205 16.454 7.7268 21.101-1.8917 3.0022-6.2111 5.8588-8.6458 12.968-10.888 19.291-6.081 43.417-6.5634 64.465-2.0295 9.5372 2.0831 12.374 8.0783 7.7268 16.4-6.9693 12.428-16.481 24.748-32.34 41.986-23.209 25.208-30.314 37.447-34.907 52.036-1.2943 4.082-0.68926 5.7822 1.8917 7.7536 3.3774 2.5963 8.9705 4.7254 12.915 5.1313 8.1863 0.83481 14.211-1.2943 19.777-6.2418 10.267-9.1053 23.019-14.914 34.691-14.293 11.429 0.6127 19.994 9.3213 20.21 23.451 0.0536 3.7834 0.97263 5.5142 3.8063 7.2144 5.3227 3.2166 17.318 4.6181 27.936 1.6236 5.5678-1.57 7.3752-3.7527 8.0783-9.1865 1.0033-7.4825-1.1871-21.317-6.6477-27.747-2.6192-3.1324-4.7254-6.7013-5.6214-9.6452z"/>
 </g>
 <path d="m176.11 139.98c-6.4332 15.941-22.803 19.939-34.15 15.346-12.726-5.1313-19.021-20.912-12.969-35.907 6.4332-15.913 23.884-20.749 36.097-15.805 12.59 5.0777 17.399 20.615 11.023 36.366" fill="#d6bb38"/>
 <path d="m250.2 170.29c-6.1346 16.967-20.885 20.857-31.611 17.183-13.563-4.6182-19.399-20.128-13.914-35.258 5.4606-15.076 21.128-21.209 32.692-16.994 13.131 4.7254 18.21 20.236 12.834 35.07" fill="#d6bb38"/>
 <g fill="#0f141b">
  <path d="m171.85 138.32c5.4299-13.455 1.3786-27.072-8.2943-30.99-11.402-4.5952-25.451 1.325-30.477 13.779-5.4835 13.536 0.0767 26.451 10.456 30.611 10.132 4.105 22.479 1.0263 28.315-13.401m-31.449 20.749c-16.184-6.4026-21.912-25.856-15.698-41.256 6.6477-16.427 26.802-23.992 41.797-17.94 14.4 5.8359 20.696 24.397 13.671 41.743-7.4059 18.318-27.125 22.506-39.77 17.453"/>
  <path d="m146.94 145.86c-11.159-4.2122-12.32-22.641-0.0765-29.855 3.163-1.8381 4.3731 0.0765 1.3479 2.1597-9.2669 6.349-7.9435 21.939-0.0767 24.91 4.6718 1.7538 11.483 0 15.076-8.835 3.6225-9.0234 0.30636-15.832-5.9431-17.616-3.2702-0.94199-2.7265-3.163 0.53609-2.4814 8.4023 1.7308 13.103 10.996 8.7806 21.695-3.9212 9.672-12.51 12.726-19.642 10.024"/>
  <path d="m208.78 153.68c-4.9475 13.671-0.22967 26.261 11.051 30.098 10.158 3.4847 20.912-0.97263 25.991-15.022 5.0011-13.833 0.0767-26.153-9.8888-29.774-10.591-3.837-22.614 2.1368-27.153 14.698m45.498 18.183c-6.5098 17.966-24.073 23.911-37.123 19.453-16.211-5.5372-22.614-24.613-16.778-40.743 6.2647-17.292 25.153-23.911 38.311-19.183 14.887 5.3993 21.695 23.613 15.59 40.473"/>
  <path d="m221.93 177.51c-12.968-4.7024-11.915-24.532 0.81182-31.476 3.431-1.8917 4.5109 0.0267 1.2407 2.2133-9.6452 6.4562-10.834 22.857-0.91902 26.451 4.779 1.7308 12.482-0.61269 15.832-9.8612 3.0252-8.403 0.30636-15.104-5.4835-17.778-2.9716-1.3479-2.4048-3.2932 0.76586-2.4354 7.5131 2.0525 11.806 11.401 8.1051 21.641-3.6225 10.051-12.968 13.914-20.344 11.24"/>
  <path d="m212.67 141.44c-12.482-1.7844-27.315-7.5897-35.772-13.374l1.593-6.349c9.0234 5.9967 25.586 12.563 40.662 15.049z"/>
  <path d="m203.11 166.64c-13.941-2.5963-27.883-7.6433-37.987-13.563l3.6225-4.2965c9.4293 4.8632 21.344 8.8893 34.474 12.023z"/>
  <path d="m174.75 192.11c11.806 2.5656 24.1-1.325 32.692-10.51 0.76586-0.78118 3.5919 2.2976 2.8873 3.0558-9.6728 10.375-22.344 13.914-36.15 10.078-5.2155-1.4858-4.6182-3.7527 0.5361-2.6192"/>
 </g>
</svg>
