<?xml version="1.0" encoding="UTF-8"?>
<!-- Created with Inkscape (http://www.inkscape.org/) -->
<svg version="1.1" viewBox="0 0 310.24 311.56" xmlns="http://www.w3.org/2000/svg">
 <g transform="translate(62.002 7.2831)">
  <path d="m16.309 196.09c-2.6336 0.99783-36.182 12.926-37.644 13.08-3.5006 0.38169-20.409-5.4417-24.16-4.1167-5 1.7721-14.042 10.099-14.254 12.946-0.38168 4.8256 4.0949 13.407 5.5589 13.888 0.99783 0.32715 4.8855 0.95966 10.58 3.4406 0.88332 3.7514 1.325 10.618 1.0196 12.253-0.38169 1.9248 3.4024 5.349 8.5791 5.9242 6.367 0.73064 13.215-2.9062 14.734-5.0764 2.0611-2.8844 4.482-7.3479 5.5595-8.3289 3.0589-2.7699 38.452-30.681 43.068-34.22 1.2705-1.096-10.407-10.791-13.042-9.7912" fill="#dcdbd6"/>
  <path d="m23.411 199.53c-19.389 13.792-43.222 28.738-54.398 29.45-7.5213 0.49074-20.89-6.1942-28.7-11.214-0.01904 0.0546-0.05457 0.16358-0.05457 0.21811-0.38168 4.8256 4.0949 13.407 5.5589 13.888 0.99783 0.32717 4.8855 0.98148 10.58 3.446 0.88332 3.7514 1.325 10.618 1.0196 12.273-0.38168 1.903 3.4024 5.3272 8.5791 5.9243 6.367 0.70883 13.196-2.9226 14.735-5.0764 2.0611-2.9062 4.482-7.3479 5.5589-8.3479 3.0589-2.7699 38.452-30.681 43.068-34.221 0.69248-0.59432-2.4809-3.7514-5.9439-6.3474" fill="#b4b4b0"/>
  <path d="m65.244 97.766c-2.1756-0.16357-14.869-1.4449-16.311-2.9062-1.9411-1.9411-4.8256-16.524-6.3479-20.293-0.38168-0.90513-5.0764-4.3457-6.3479-5.0764-1.2486-0.73066-11.041 5.982-12.137 5.4417-1.0796-0.54526-3.2498-9.7907-3.8114-13.061-1.2323-4.7874 9.0213-10.502 16.87-10.502 4.1549 0 34.797 47.493 28.084 46.396" fill="#b4b4b0"/>
  <path d="m24.103 202.79c-0.109-0.90513-0.90512-2.0011-1.4449-2.6336-0.38168-0.43621-4.8092-3.4624-6.6167-3.3479-1.4613 0.109-3.2716 0.38168-4.542 1.096-0.54527-0.98146 3.5769-8.5022 7.156-11.695 3.446-3.0753 11.599-0.73066 13.234-1.445 1.6358-0.73065 9.06-6.7132 11.791-8.3479-0.38168 5.8092-1.4613 14.869-1.4613 14.869l-11.965 12.676z" fill="#e0a14f"/>
  <path d="m22.526 200.05c0.05457 0.0546 0.109 0.109 0.109 0.109 0.54526 0.6325 1.3468 1.7285 1.4449 2.6336l6.1555 1.1723 6.1167-6.463c-5.2509-0.67067-9.6947-0.16358-13.85 2.5409" fill="#bb8641"/>
  <path d="m29.541 203.52c-0.73064-1.6358-4.4984-1.7503-5.7127-1.096-0.84515 0.49074-0.43622 8.0022 0 8.156 0.8288 0.27263 3.1734-1.7121 3.1734-1.7121 3.2716-1.2705 2.5409-5.349 2.5409-5.349" fill="#d3d2d2"/>
  <path d="m81.004 265.83-41.184-74.48c-10.483 7.1364-17.1 22.198-16.6 33.893 0.57797 13.657 10.676 27.757 22.121 32.662-2.4046 1.2705-4.4221 2.6336-6.1167 4.0186 8.5213 0.109 15.677 8.7329 10.676 14.715 3.8877-0.49075 8.4826-1.385 13.85-2.8463 6.9248-1.8866 12.869-4.9455 17.254-7.9635" fill="#e0a14f"/>
  <path d="m55.094 218.97c-17.158 16.446-24.91 16.696-30.585 13.965 3.1352 10.945 11.542 20.986 20.832 24.968-2.4046 1.2705-4.4221 2.6336-6.1167 4.0186 8.5213 0.109 15.677 8.7329 10.676 14.715 3.8877-0.49075 8.4832-1.4013 13.85-2.8463 6.9248-1.8866 12.869-4.9455 17.254-7.9635z" fill="#bb8641"/>
  <path d="m39.215 261.91c-5.7705 4.6729-7.5404 9.5601-5.5589 11.888 2.2301 2.6336 7.4439 3.8877 16.235 2.8299 5-5.982-2.1374-14.581-10.676-14.715" fill="#d3d2d2"/>
  <path d="m79.381 139.81c-6.8861 0-15.908 4.4057-25.737 16.946-7.7133 11.368-14.773 25.372-16.85 42.684-3.9041 32.527 17.1 67.267 65.42 73.403 8.4057 1.0578 17.774 1.5595 27.545 1.6358 0.10899-22.717 0.2181-50.763 0.2181-70.095 0-35.662-22.352-64.574-50.571-64.574" fill="#fff4c3"/>
  <path d="m40.88 230.55c8.4057 20.832 28.584 38.144 61.342 42.299 8.3866 1.0578 17.774 1.5594 27.545 1.6358 0.019-9.3289 0.0546-19.543 0.109-29.68-9.1369-0.2181-17.332-0.84515-22.563-2.0393-15.158 4.8637-48.762 7.0399-66.42-12.215" fill="#dcd2a9"/>
  <path d="m228.54 253.63c-12.138-2.9062-40.048-28.084-41.876-34.259-0.32716-2.9989-1.5213-8.3866-3.0208-14.503 3.8114-5.0982 13.311-18.159 12.869-19.024-0.4362-0.90513-13.176-1.614-18.254-1.6739-1.2868-4.8092-2.4046-8.8485-2.9989-11.138 6.5208-6.2705 30.2-21.505 29.488-24.891-0.32717-1.5376-8.8098-2.2519-20.543-1.4449-4.5966-27.911-12.58-92.427-23.448-102.22-15.715-14.139-108.12-18.274-126.38 9.9063-1.325 3.0207-0.16358 6.5011 0.95966 8.0982 5.6745 7.9635 41.799 48.146 42.78 58.245 0.70885 7.367-12.657 18.6-24.487 36.028 9.849-12.542 18.87-16.952 25.756-16.947 28.208 0.0215 50.543 28.928 50.551 64.574 5e-3 19.332-0.109 47.377-0.16358 70.094 39.683 0.27263 85.849-6.771 99.14-13.599 5.5011-2.8299 5-5.9635-0.38169-7.252" fill="#e0a14f"/>
  <g fill="#bb8641">
   <path d="m183.66 204.87c3.8277-5.1146 13.292-18.158 12.869-19.024-4.542 4.4657-13.099 12.465-14.388 12.965-0.0546 0.32716 1.3086 5.3108 1.5213 6.0595"/>
   <path d="m174.19 173.82c6.2514-6.0208 29.354-21.044 30.508-25.179-10.657 5.3272-28.373 18.1-28.892 18.543-2.2683 1.903-2.5028 2.8081-1.614 6.6364"/>
   <path d="m106.63 126.64c11.099 12.696 13.907 12.388 51.705 10.868 7.9444-0.49073 16.273-0.61613 24.333-0.49073-4.7329-30.93-12.157-83.751-21.909-92.523-15.715-14.138-108.12-18.274-126.38 9.9063-1.325 3.0207-0.16358 6.5017 0.95966 8.0982 3.9804 5.5786 22.948 27.026 34.239 42.819 12.522 4.0404 32.047 15.619 37.048 21.332"/>
   <path d="m129.87 244.8c-0.0382 10.137-0.0546 20.37-0.109 29.68 39.683 0.27264 85.868-6.7705 99.159-13.599 1.7884-0.92149 2.9444-1.8866 3.5006-2.7917-16.985-0.99783-33.797-9.3098-45.55-16.6-2.2301 1.7121-32.97 3.8877-56.995 3.3097"/>
  </g>
  <path d="m164.02 87.014c-1.7339 3.4624-8.6947 9.7907-12.446 11.522-10.195-1.674-27.468-7.4057-30.084-11.042-4.3457-6.0399-15.465-25.737-15.831-29.719-0.27262-3.1734-0.27262-12.233 0.79063-17.504 1.7503-1.2705 6.0208-3.0589 9.2334-3.157 12.099-0.38168 38.106 6.3665 42.664 11.483 4.8692 5.463 8.1942 33.393 5.6745 38.414m32.508-34.066c-5.5976-8.0017-12.926-15.427-22.352-22.082-0.2181-1.2868-0.79063-3.6369-1.325-5.0764-0.8288-2.2138-9.9832-6.867-12.945-6.5786-0.90513 0.05457-3.2716 0.63249-4.0404 1.1559-3.2716-1.4831-6.656-2.8081-10.157-3.964-4.8092-1.614-31.104 1.0196-37.875 0.27263-6.771-0.70883-22.583-12.253-24.276-14.427-1.6903-2.1756-15.003-3.1571-18.004-3.6914-3.7514-0.67612-5.9242-3.5606-9.1942-3.3861-5.2508 0.27263-12.042 5.9052-13.773 6.3479-8.3866 2.1156-16.851 0.16358-23.006 4.3457-5.7901 3.9259-14.658 19.947-15.043 27.911-0.73066 14.503 8.3098 33.431 11.407 32.258 1.4613-0.54526 3.3643-2.9444 7.7907-5.6167 4.4221-2.6718 11.233-5.2509 14.33-5.0764 12.234 0.73066 23.333 5.3654 33.028 11.638 0.38168 5.9057 2.2301 18.428 4.3076 19.178 1.4449 0.54527 7.5213-2.0774 12.907-5.2727 2.5954 2.5027 5 5 7.1942 7.4444 3.4406 3.8114 5.6358 18.12 6.8861 19.216 1.2323 1.036 13.042 3.5606 16.447 4.0949 2.1538 9.541 5.0219 19.947 6.1555 20.794 6.0398 4.4602 32.566 6.1358 36.855 8.2711 4.3457 2.1756 6.7133 7.9826 10.156 9.06 4.1549 1.3086 32.489-7.1942 35.644-13.465 1.4231-2.8681-0.86697-4.8692-3.0207-9.4826 12.58-17.312 8.0022-50.84-8.0982-73.884" fill="#dcdbd6"/>
  <g fill="#b4b4b0">
   <path d="m100.04 83.268c-1.4449-1.8103-4.8855-4.3457-6.7132-5.7901-0.70883 0.71429-5.0218 3.4024-5.0218 3.4024 2.5954 2.5027 5 5.0219 7.1942 7.4635 3.4406 3.8114 5.6358 18.12 6.8866 19.217 0.0546 0.0546 0.2181 0.109 0.38168 0.2181 0.32715-8.8872-1.5976-23.121-2.71-24.506"/>
   <path d="m38.603 44.846c-2.9062-1.2105-18.12 8.1555-24.295 9.9635-2.1919 0.65431-4.7111 0.05457-7.2711-4.0186 2.7536 8.9248 6.9826 15.984 8.9063 15.254 1.4613-0.54527 3.3643-2.9226 7.7901-5.6167 4.4221-2.6718 11.253-5.2508 14.331-5.0764 12.234 0.73064 23.333 5.3654 33.028 11.637 0.38168 5.7896 2.1374 17.851 4.1549 19.081 0.32715-8.5404 1.1341-19.024 0.69247-20.563-0.73064-2.5409-34.432-19.447-37.336-20.659"/>
   <path d="m201.35 99.036c1.8103 5.4417-2.0938 10.849-9.9641 15.043-2.7318 1.445-1.096 17.408-2.1756 20.851-0.86697 2.7099-13.965 5.1745-16.869 4.5202-1.614-0.38167-2.5191-1.4449-3.2497-4.1712-0.49075-1.7503-3.3479-2.8844-13.965-2.8844-6.0595 0-23.525-2.8844-28.257-5.2727-1.8266-0.90513-5.982-19.755-7.4444-20.467-1.0578-0.54525-7.5398 1.325-11.868 2.5955 4.0186 1.0196 9.1947 2.0774 11.272 2.4046 2.1538 9.541 5.0218 19.947 6.1554 20.794 6.0398 4.4602 32.566 6.1364 36.855 8.2716 4.3457 2.1756 6.7132 7.9826 10.157 9.06 4.1549 1.3086 32.489-7.1942 35.643-13.465 1.4231-2.8681-0.86696-4.8692-3.0207-9.4832 8.7716-12.08 9.1947-32.046 3.1952-50.84-1.8648 1.4613-3.3643 2.6718-4.2912 3.4624-4.6729 4.0404-5.0764 10.849-2.1756 19.582"/>
   <path d="m161.97 41.462c-4.4221-4.3076-47.319-15.735-54.494-4.3457-0.43622 0.67068-0.76883 1.7885-1.036 3.1734 1.7666-1.2868 6.0398-3.0753 9.2525-3.1734 12.08-0.38168 38.106 6.367 42.664 11.484 4.8474 5.463 8.1751 33.393 5.6745 38.414-1.7339 3.4624-8.6947 9.7907-12.465 11.522 2.8681 0.49073 5.1527 0.61613 6.4248 0.32715 3.0371-0.75246 9.7138-8.1751 11.829-11.964 1.3468-2.4046 1.6903-36.125-7.848-45.434"/>
  </g>
  <path d="m56.908 33.427c0-2.4809-4.0785-10.868-5.982-12.137-1.7121-1.1559-5.4035-1.6521-7.6369-1.5594-7.6364 4.4275-14.831 13.523-13.83 14.792 0.38169 0.49074 4.3294 1.2487 5.6936 1.3468 1.7721 0.109 11.176 4.542 17.196 6.5786 2.2519-1.0742 4.5584-6.867 4.5584-9.0213" fill="#0f141b"/>
  <path d="m60.533 27.264c-0.73064-2.4428-5.8861-8.9641-7.4248-9.5219-2.8844-1.0414-6.4057 0-9.8294 1.9793 2.2519-0.05457 5.9248 0.38168 7.656 1.5594 1.903 1.2705 5.9821 9.6757 5.9821 12.137 0 2.1538-2.3283 7.9635-4.5584 9.041 2.3065 0.79063 4.1385 1.2323 4.8256 0.9433 3.446-1.4613 4.5202-12.157 3.3479-16.139" fill="#b4b4b0"/>
  <path d="m116.05 171.11c2.7917 2.1156 5.5589 2.8299 8.252 3.4842-2.5954-6.3861-5.982-12.138-10.021-17.043-2.0175 4.5202-1.2323 11.291 1.7721 13.561" fill="#dcd2a9"/>
  <path d="m129.1 163.98c-1.7721-2.3065-4.3675-3.9259-6.771-7.252-3.2879-4.5584-4.7329-6.271-7.9635 0.61615-0.0284 0.0546-0.0394 0.0948-0.084 0.20392 4.0404 4.9237 7.4439 10.657 10.021 17.043 3.4842 0.84515 6.7847 1.5927 9.8627 4.9951 0.32715-6.0786-1.3086-10.637-5.0764-15.581" fill="#bb8641"/>
  <path d="m117.98 42.066c-3.3643 0-8.1942 4.542-12.484 11.638 0.019 1.6903 0.0546 3.1352 0.16358 4.0785 0.38168 3.9804 11.484 23.679 15.831 29.719 2.6172 3.6151 19.89 9.3676 30.085 11.042 3.7514-1.7285 10.714-8.0791 12.446-11.522 1.7121-3.4242 0.71429-17.389-1.614-27.718-11.253-14.273-32.297-17.235-44.415-17.235" fill="#e0a14f"/>
  <g fill="#0f141b">
   <path d="m121.35 87.629c-1.6903 2.4809-3.5769 6.1745-3.964 8.5213-0.55617 3.3479 6.5208 33.104 8.4254 35.374 5.2509 3.8659 32.412 6.0208 36.586 8.0982 4.1167 2.0556 7.0404 8.06 9.9641 8.9832 3.8877 1.2105 31.489-7.4826 34.162-12.849 1.8103-3.5987-5.3272-6.7907-6.0398-21.448-0.109-1.8648 0.2181-3.9422 1.036-6.0398 1.5213-3.8277 2.9444-3.3642 1.903 0.63251-0.49075 1.903-0.55617 3.7677-0.49075 5.289 0.70885 14.888 9.0988 17.139 6.3861 22.602-3.4842 6.9635-33.335 16.292-37.471 14.984-2.9608-0.9433-8.0017-8.0017-11.349-9.6751-4.1712-2.0774-29.969-3.4024-36.547-8.2716-2.5573-1.8866-9.3485-34.297-8.7525-37.894 0.55616-3.3097 3.3097-7.2901 5.0382-9.5988z"/>
   <path d="m71.229 65.498c-10.906-7.0399-21.909-10.945-32.989-11.599-3.446-0.2181-10.58 2.5573-15.023 5.2509-2.2301 1.3468-6.771 5.3108-7.5982 5.6936-2.4809-0.86696-10.541-17.158-9.8485-30.988 0.32715-7.3098 8.8866-23.179 14.484-26.949 5.9439-4.0186 13.561-1.903 22.64-4.1712 3.2879-0.84515 7.9826-6.0011 13.542-6.3092 2.4809-0.16358 4.4057 2.5573 8.8867 3.3643 3.5606 0.61614 15.927 1.614 17.254 3.2116 1.7503 2.2683 17.928 14.138 25.122 14.908 8.3288 0.90513 32.431-2.0774 37.625-0.32715 20.659 6.8474 38.952 20.005 50.186 36.086 16.062 22.987 19.813 55.475 8.5404 71.902l1.4231 3.2716c13.331-18.928 9.7138-52.552-7.5595-77.269-11.542-16.504-30.508-29.68-51.648-36.701-5.3108-1.7721-32.258 0.73066-38.24 0.109-6.4826-0.69248-22.044-12.233-23.429-14.022-2.0611-2.6554-13.581-3.9041-18.813-4.8256-3.6914-0.65431-5.6167-3.6369-9.4641-3.4024-5.7896 0.32715-11.695 6.4821-13.965 7.0595-8.8681 2.2301-17.139-0.49073-23.699 3.9422-6.2901 4.2694-15.542 22.121-15.946 30.277-0.73066 14.561 8.8098 35.066 13.677 33.239 1.325-0.49073 6.0399-4.542 7.9826-5.7323 4.4984-2.7099 10.983-5.0382 13.618-4.8855 11.061 0.65431 22.121 4.6184 33.105 11.868z"/>
   <path d="m89.548 80.352c2.3065 2.2519 4.5965 4.6347 6.8866 7.1555 3.3097 3.6751 5.2127 16.312 6.8092 19.14 1.4613 0.82879 11.176 3.0207 15.196 3.6914l0.65432 2.5954c-1.8103-0.2181-16.273-1.9629-18.024-3.446-1.614-1.4013-3.2334-16.754-6.4826-20.332-2.4046-2.6554-4.8256-5.1745-7.2514-7.5213z"/>
   <path d="m74.851 87.617c-3.7514-1.3468-4.9619-18.37-4.2312-21.505 0.69247-2.9989 1.4831-2.5191 1.6358 0.38168 0.27263 5.289 2.1538 17.004 3.5987 18.485 1.9629 0.16358 13.099-5.1527 18.004-9.445 3.6914-3.2334 4.9074-2.1374 1.385 1.5976-4.0186 4.2694-17.024 11.676-20.389 10.465"/>
   <path d="m65.142 98.995c-1.5376-0.10899-15.407-1.096-17.35-3.0371-2.5191-2.5191-4.3294-16.215-6.1751-20.774-0.4362-0.65431-3.8114-3.4242-5.3108-4.3675-3.1734 0.69248-10.81 6.5595-12.811 5.5595-1.7503-0.86696-3.2116-9.8681-3.8659-13.157l1.8866-1.5376c0.55617 3.3861 2.2301 10.079 3.1352 11.926 4.2912-1.6739 10.253-6.2901 12.215-5.1745 0.65432 0.38168 6.2705 4.1549 6.867 5.6745 0.59434 1.4995 5.0982 18.909 6.0786 19.889 0.95966 0.75246 7.8867 1.7885 13.35 2.3446z"/>
   <path d="m30.72 33.75c1.096 0.32717 3.4242 0.807 4.542 0.88334 2.9226 0.2181 18.158 7.6173 21.351 7.6173 0.109 0 0.109-0.01904 0.109-0.01904 2.3882-0.99783 3.7896-10.58 2.5954-14.619-0.65432-2.2519-5.5589-8.2138-6.6745-8.7138-6.9248-2.4809-20.101 10.407-21.948 14.85m4.3457 3.3479c-0.05457 0-5.6358-0.63251-6.5786-1.8103-2.5573-3.2116 14.927-22.333 25.025-18.697 2.0775 0.75247 7.4444 7.7711 8.1947 10.329 1.1559 3.8659 0.4362 15.716-4.0567 17.6-3.1189 1.325-21.198-7.3288-22.583-7.4248"/>
   <path d="m53.28 43.107c2.3828-2.0938 3.9259-7.5404 3.9259-9.7334 0-3.6914-3.9259-11.465-6.1364-12.926-1.4231-0.95966-4.542-1.325-6.7514-1.5213l-3.2716 2.3664c1.7339-0.32717 7.0017 0.109 8.656 1.1941 1.5213 1.0196 5.0382 8.7716 5.0382 10.888 0 1.903-2.0011 7.9439-4.0785 8.656z"/>
   <path d="m55.547 43.493c0.79063 3.9422 0.16358 10.848-1.8648 15.523l-1.7885-1.1178c2.1538-5.0219 2.9226-11.965 1.9248-14.619z"/>
   <path d="m108.52 37.769c-1.7339 2.7481-2.0393 15.388-1.6358 19.889 0.32716 3.5769 11.08 22.814 15.6 29.123 2.5954 3.5987 25.333 11.003 33.797 11.003 0.75246 0 1.1723-0.0546 1.4068-0.10899 2.4809-0.59433 8.9063-7.4826 11.061-11.349 1.2105-2.7917 1.325-35.221-7.6364-43.953-4.4057-4.2912-46.223-14.696-52.59-4.5802m11.965 50.455c-3.9041-5.4417-15.639-25.814-16.043-30.334-0.32716-3.7132-0.38168-17.658 2.0011-21.429 7.5791-12.042 51.859-0.8288 56.726 3.9041 9.7716 9.5219 9.3866 44.146 7.7323 47.127-2.0393 3.6751-8.9444 11.676-12.637 12.561-5.3872 1.2868-33.643-6.1167-37.779-11.83"/>
   <path d="m104.03 108.64c3.1952-3.4242 9.5023-9.9063 12.138-11.772v-1.7339c-3.1734 1.0578-14.388 12.561-14.503 12.676z"/>
   <path d="m156.59 99.036c1.5758 1.3632 3.1352 3.1734 3.6751 4.6729 0.61614 1.6903 9.945 30.585 10.157 32.432 0.32717 3.0971-0.90513 6.963-3.3261 8.6751l-1.963-1.7121c1.7721-0.67067 3.1352-3.9041 2.8299-6.6942-0.27263-1.6903-8.7716-29.507-9.6369-31.892-0.55615-1.5594-3.3861-4.2912-5-5.0982z"/>
   <path d="m175.38 31.433c0.109-0.88332-0.32715-3.7514-1.1178-5.8861-1.096-2.9062-10.964-7.9254-14.331-7.6173-0.32716 0.03822-5.2509 1.1178-5.9439 1.5376l3.1352 1.3632c0.32715-0.03876 2.7481-0.65431 3.2716-0.54526 4.1385 0.76881 10.676 4.0785 11.599 6.3092 0.38168 1.0796 0.73064 2.1919 0.49073 2.8844z"/>
   <path d="m106.75 41.627c0.69248-0.86696 5.5589-3.1734 8.9832-3.2879 12.195-0.38168 37.51 6.367 41.684 11.08 4.4057 4.9455 7.8479 32.373 5.5011 37.048-1.903 3.8277-10.387 10.964-12.83 11.291l3.0589 0.73064c4.2694-2.1538 10.079-7.8098 11.791-11.234 2.7917-5.5971-0.2181-33.797-5.3872-39.625-4.9237-5.5589-32.123-11.81-44.011-11.445-2.7099 0.05457-6.5982 1.7121-8.9641 3.0371z"/>
   <path d="m38.17 194.17c-8.2907 7.0786-14.177 20.082-13.715 31.027 0.55617 13.561 11.272 28.141 22.929 32.2 4.8855 1.6903 4.3839 3.3097-0.55617 2.1538-9.2907-2.1756-24.967-15.754-25.737-34.066-0.54526-12.926 7.7323-28.142 18.043-35.144z"/>
   <path d="m80.987 267.33c-3.6914 2.4646-9.4445 5.6167-16.908 7.6554-15.004 4.0567-27.815 5.0764-31.873 0.27262-2.7917-3.2879 0.27263-11.791 12.137-18.216l2.7318 1.3468c-12.195 6.0208-13.984 12.85-12.484 14.619 1.5376 1.8266 7.4052 5.4253 28.834-0.38169 6.3283-1.7339 11.368-4.2912 14.907-6.4826z"/>
   <path d="m51.562 276.46c4.1167-6.5017-1.5976-15.215-11.695-15.388l-1.7503 1.6903c8.6947-0.73065 16.177 8.9826 10.464 13.946z"/>
   <path d="m183.48 207.14c5.7901-7.5213 15.254-20.274 14.426-21.929-1.1178-2.2301-20.294-2.2901-20.485-2.2901l0.73066 2.4646c4.5366 0.0546 13.772 0.61613 16.792 1.1941-1.7339 3.1134-8.6173 12.676-12.214 17.466z"/>
   <path d="m35.504 54.886c-1.1341 2.5573-0.05457 5.578 0.84515 6.8861 7.8485 11.022 42.203 48.07 43.222 58.592 1.2868 13.503-36.201 34.528-41.549 79.231-3.6369 30.296 14.946 65.767 64.343 72.018 9.1178 1.156 19.351 1.674 29.969 1.6521 49.974-0.019 100.14-10.637 100.14-16.523 0-1.6521-11.907-4.193-25.506-14.715-9.6369-7.463-18.504-16.543-20.928-21.063-0.43621-0.82879-0.57797-1.5976-0.79063-2.8681-0.54526-3.3261-1.6358-8.9444-3.5606-16.581-1.4068-5.5398 0.65432-6.0404 2.1756-0.4362 2.3446 8.6942 3.8877 15.042 4.6184 18.485 0.84515 2.5191 10.195 12.214 20.274 20.428 12.791 10.425 25.141 12.733 26.16 16.061 3.0207 9.9068-50.974 20.313-101.45 20.351-11.137 0.0196-21.986-0.54527-31.796-1.7503-52.205-6.5208-70.826-44.645-67.055-76.115 5.0764-42.472 43.126-68.517 42.26-77.693-0.88334-9.4254-37.759-49.935-43.164-57.514-1.0414-1.4613-1.4995-4.4439-1.0578-7.3479z"/>
   <path d="m190.21 145.16c7.2132-0.2181 15.177 0.109 15.735 2.7317 0.99781 4.6347-21.447 18.332-29.065 25.276 0.32715 1.096 2.421 9.1947 3.4624 14.484 0.90514 4.6347-0.86696 5.1909-2.0992 0.63251-1.4449-5.3654-3.8659-13.753-4.1712-14.927-0.109-0.43621 0.019-0.90514 0.32715-1.2105 6.5786-6.3288 27.007-19.332 29.026-23.583-1.5976-0.73064-8.252-1.385-19.14-0.6325z"/>
   <path d="m28.414 204.02c-0.27263-0.55617-2.2901-0.98147-3.7132-0.61615-0.2181 1.036-0.59432 4.0786-0.109 6.0017 0.49074-0.27263 1.1341-1.0796 1.614-1.4831l-0.21812 3.2334c-0.90512 0.54527-1.8484 0.82879-2.5191 0.59434-1.5376-0.49073-2.0011-9.4063-0.2181-10.407 2.0774-1.156 5.5977-0.49074 6.9248 0.92148z"/>
   <path d="m25.167 201.92c-0.27263-0.76882-0.79063-1.6358-1.5758-2.5573-0.54527-0.63251-5.349-3.9259-7.6364-3.7896-0.95966 0.0546-1.8484 0.2181-2.6336 0.38168 1.1559-2.4428 3.7296-6.6364 6.1745-8.8098 2.8299-2.5409 10.849-0.32716 12.907-1.2486 1.325-0.57797 6.9635-4.8692 10.08-7.1173l0.27263-3.7896c-1.325 0.807-10.907 7.9444-11.618 8.252-1.9248 0.63251-9.5791-2.0556-13.388 1.3468-2.5027 2.2519-6.9057 9.4832-7.4444 12.638-0.05457 0.54526 1.5213 1.9248 1.8103 1.7721 0.84515-0.49074 2.2683-0.8288 3.9804-0.9433 1.2105-0.109 4.9837 2.3282 5.6167 2.9226 0.80698 0.9433 1.1178 1.6358 1.1559 1.9629z"/>
   <path d="m12.612 198.77c-1.1178 0.59434-31.931 11.426-33.816 11.618-3.0753 0.32717-20.871-5.2508-23.872-4.1712-4.9837 1.7721-13.292 9.8098-13.446 11.868-0.32715 4.3457 3.6914 11.926 4.8256 12.676 4.1549 0.95966 10.041 2.7699 15.715 6.5595 4.0786 2.7099 3.2334 3.8659-0.70883 1.6358-6.252-3.5387-14.311-4.8637-16.043-5.4417-2.4046-0.80698-7.6173-11.099-7.252-15.947 0.27263-3.6751 10.676-12.868 15.773-14.676 4.0567-1.4449 20.774 5.06 24.814 4.7111 1.614-0.27265 31.104-10.118 32.836-11.003z"/>
   <path d="m24.896 211c-1.8648 1.0196-35.567 28.834-37.586 30.681-0.49073 0.4362-4.9073 7.252-5.7896 8.5219-2.9826 4.1712-11.33 6.1167-15.773 5.6167-5.2345-0.59434-11.118-4.8474-10.522-8.0982 0.32715-1.5758 0.73064-10.003-0.32715-13.157l2.8844 1.4231c0.79063 4.0186 1.1341 10.098 0.80698 11.829-0.2181 1.096 3.446 4.0022 7.5213 4.482 5.963 0.6543 12.368-2.8463 13.58-4.5802 0.84515-1.1941 5.0218-7.867 5.7514-8.5213 0.27263-0.27263 31.892-25.91 37.586-29.911z"/>
  </g>
  <path d="m136.08 291.12c2.6336 8.5982 6.5976 10.599 12.349 10.907 4.771 0.2181 10.291-1.9629 15.35-5.1527-4.0949-11.542-20.178-14.639-27.699-5.7514" fill="#d3d2d2"/>
  <path d="m186.86 238.77c-0.71429-13.215-10.329-35.701-17.158-38.914-2.6936-1.3086-28.834-4.2149-36.663-2.9608-11.907 1.9793-27.295 21.582-26.295 40.971 1.4613 27.911 26.468 38.606 27.565 45.3 0.49073 3.1571 1.096 5.7514 1.7721 7.9635 7.5213-8.8872 23.602-5.7901 27.699 5.7318 8.5982-5.4035 15.908-13.676 16.024-17.677 0.43622-15.004 7.9635-23.563 7.059-40.414" fill="#e0a14f"/>
  <path d="m186.86 238.77c-0.16358-3.0208-0.79063-6.5404-1.7503-10.195-2.2519 20.678-17.216 32.123-40.395 32.123-15.869 0-31.796-8.9635-37.99-23.91 0 0.38168 0 0.70885 0.0196 1.0796 1.4613 27.911 26.468 38.606 27.565 45.3 0.49075 3.157 1.096 5.7514 1.7721 7.9635 7.5208-8.8867 23.602-5.7896 27.699 5.7323 8.5988-5.4035 15.908-13.677 16.024-17.677 0.43622-15.004 7.9635-23.564 7.0595-40.414" fill="#bb8641"/>
  <path d="m239.3 42.429c-3.3479-1.036-29.719 9.8676-48.935 7.2514-2.6554-0.38168-7.367-3.1352-8.8098-4.1167l25.372 48.339c-2.0175-7.2329 36.721-30.796 39.144-35.644 2.0011-4.0022-1.4831-14.177-6.771-15.831" fill="#dcdbd6"/>
  <path d="m245.17 59.407c-3.8495-1.4449-7.6173-2.2901-9.5601-2.4264-2.9062-0.16358-26.814 17.947-32.085 22.487-1.0578 0.90513-1.8866 1.9793-2.5191 3.1734-0.43621 0.80698 4.0567 11.31 5.9052 11.253-1.8866-6.7514 31.95-27.853 38.26-34.489" fill="#b4b4b0"/>
  <path d="m142.45 218.29c-1.5976 0.71429-5.1364 1.0196-5.8092 0.38168-0.94329-0.9433-0.43621-3.1734 0-8.8872 0.88332 2.2683 3.0971 5.8092 5.8092 8.5219" fill="#fff"/>
  <path d="m160.94 210.32c-1.096-0.99782-4.3457-6.7132-6.5208-4.9837-1.385 1.096-8.656 6.6554-14.215 10.483 2.9608 3.8114 6.482 7.1555 7.5017 7.1942 6.4826 0.16358 18.562-7.4057 19.947-9.9832 1.2704-2.3446-0.73065-6.6942-1.6358-7.5982-0.43621-0.49073-0.98148-0.73064-1.4995-0.88332-1.5594 5.5589-2.6936 6.5786-3.5769 5.7705" fill="#bb8641"/>
  <path d="m136.65 218.65c0.6543 0.65431 4.2149 0.32715 5.8092-0.38169-0.79063-0.79063-1.5213-1.6358-2.2138-2.5028-1.4231 0.98148-2.7481 1.8648-3.8277 2.5191 0.0546 0.10899 0.16358 0.27262 0.2181 0.32715" fill="#d3d2d2"/>
  <g fill="#0f141b">
   <path d="m159.15 139.81c3.9259 2.9062 8.9063 7.5208 9.5219 11.214 0.6325 3.7514 2.9989 28.757 1.5976 33.373-0.92149 3.0589-3.9422 14.254-5.6173 19.928-1.0196 3.5006-2.7863 3.4624-1.903-0.43622 1.4831-6.5208 5.1145-20.043 5.1745-20.217 1.1178-3.6532-0.86696-27.353-1.6739-32.239-0.59434-3.5769-8.0595-9.7912-11.868-11.791z"/>
   <path d="m163.11 205.57c0.90512 0 1.5213 0.2181 2.0175 0.73066 0.73064 0.73064 2.3283 4.482 1.4231 6.1554-1.156 2.1538-12.869 9.3872-18.697 9.3294-1.4995-0.4362-9.2329-8.6751-10.753-13.465-1.0196-3.1734 1.2868-12.83 0.57796-17.062-0.10899-0.86695-3.6369-21.544-8.56-23.41-2.8681-1.096-5.1527-2.8462-7.1554-6.2901-1.9411-3.3479-3.1952-3.0371-1.7121 0.82879 0.92149 2.4264 2.8081 5.7901 7.9826 7.752 2.2683 0.86697 5.6167 13.119 7.0213 21.525 0.6325 3.8659-1.8266 13.253-0.49073 17.389 1.5976 5.06 10.176 15.119 12.926 15.177 6.0208 0.109 18.909-6.6364 21.044-10.599 1.6358-3.0371-0.75245-7.9826-1.8484-9.0791-0.98147-0.98147-2.2138-1.445-3.7678-1.445z"/>
   <path d="m148.43 304.26c-7.7132-0.38168-12.734-4.7874-15.35-20.889-0.92149-5.7323-26.929-17.235-28.392-45.319-0.92149-17.716 12.099-36.297 24.16-40.837 5.6745-2.1374 6.0017-0.38168 0.65432 2.1156-10.233 4.7111-22.429 21.217-21.525 38.471 1.4013 26.911 26.411 38.24 27.526 45.185 2.5954 16.004 7.2132 17.504 12.984 17.812 12.369 0.63251 29.911-16.254 30.066-21.64 0.38167-14.311 7.9439-24.179 7.0595-40.318-0.61614-11.772-8.4832-30.854-14.581-36.528-2.7699-2.5791-1.903-4.0949 1.1941-1.7285 6.0595 4.6347 15.773 22.871 16.562 37.701 0.92149 17.312-7.1364 26.584-7.5595 40.914-0.2181 7.6173-19.832 25.68-32.797 25.064"/>
   <path d="m164.5 296.47c-4.542-12.869-20.236-16.004-28.757-6.3474l0.80699 2.3283c6.8092-8.9832 22.775-5.9635 26.295 5.4035z"/>
   <path d="m142.95 219.42c-1.3632 0.61615-5.867 1.4231-7.1745 0.10899-1.3632-1.3632-0.70885-5.482-0.32717-9.8676l2.3283 1.5594c-0.4362 2.421-0.76881 6.367-0.55617 6.771 0.71429 0.2181 3.5006-0.27263 4.7547-0.8288z"/>
   <path d="m206.16 91.695c2.0011-8.5213 36.317-29.026 38.798-33.989 1.674-3.3643-1.903-12.81-6.0208-14.099-2.9226-0.70883-29.873 9.8676-48.743 7.2901-1.4831-0.2181-4.9837-1.8103-6.3474-2.7917-3.8659-2.7699-2.9226-3.8659 1.0796-1.6903 1.8648 1.0196 4.193 1.8484 5.5976 2.0393 20.389 2.7917 44.992-8.9635 49.493-7.3861 6.0976 2.1156 9.8872 12.753 7.5022 17.543-2.1156 4.2312-37.336 27.776-39.548 33.893-1.1723 3.2716-2.6172 2.6554-1.8103-0.807"/>
  </g>
  <path d="m112.79 49.435c12.503-1.1341 42.26 10.329 43.492 13.042 2.8844 6.3092-14.523 20.351-15.696 20.428-3.4242 0.2181-26.949-26.218-28.758-32.027z" fill="#fff"/>
  <path d="m145.84 50.825c-5.4417-2.1756-16.985-4.0786-20.351-4.2912-3.964-0.27263-3.964-1.4995 0.109-1.4613 2.6936 0.01958 12.907 0.4362 20.909 3.5769 4.7329 1.8648 3.8277 3.9804-0.67066 2.1756" fill="#0f141b"/>
  <path d="m126.28 70.852c6.2901-3.0589 12.042-10.079 13.888-16.754-4.8474-1.6903-12.08-3.7514-19.274-4.9837-1.7721 1.1178-4.771 5.5595-5.8474 8.2138 2.8844 3.8277 7.5404 9.2716 11.233 13.522" fill="#0f141b"/>
  <path d="m125.17 53.703c-1.903 2.4428-2.5028 5.1527-1.325 6.0595 1.1723 0.92149 3.6532-0.32715 5.5589-2.7536 1.674-2.1538 2.3283-4.5202 1.6521-5.6745-0.69248-0.16358-1.4068-0.38169-2.1374-0.54527-1.1723 0.38169-2.5791 1.4068-3.7514 2.9062" fill="#fff"/>
  <path d="m154.54 67.742c1.156-2.1156 1.4613-3.5769 0.6325-4.7492-1.4995-2.0611-26.122-12.465-39.548-13.061-4.0022-0.2181-3.9804-1.2705 0.21812-1.3468 11.542-0.2181 39.818 9.5028 41.588 13.388 0.79063 1.7121 0.49073 4.0404-1.3468 6.6167-2.6718 3.6914-3.5224 2.7917-1.5213-0.84515" fill="#0f141b"/>
  <path d="m140.65 84.136c-5.2345 0-25.102-24.602-28.103-30.046-2.1756-3.9422-1.0578-4.482 1.3632-0.8288 5.5208 8.3485 25.006 29.046 26.584 28.392 1.5976-0.65432 3.7896-2.0993 5.8861-4.0567 2.9226-2.7481 4.0404-2.0011 1.0196 1.1941-2.1374 2.2901-5.4035 5.2727-6.7514 5.349" fill="#0f141b"/>
 </g>
</svg>
