<?xml version="1.0" encoding="UTF-8"?>
<!-- Created with Inkscape (http://www.inkscape.org/) -->
<svg version="1.1" viewBox="0 0 217.47 324.03" xmlns="http://www.w3.org/2000/svg">
 <g transform="translate(-4.6975 4.8314)">
  <path d="m49.806 47.515c0 4.402 3.4889 81.179 48.895 81.179 35.662 0 59.044-59.002 59.044-75.642l-4.6122-10.388-13.611 15.686 9.4482-30.672s-5.523-5.0743-8.2986-7.3735c-2.7617-2.3127-10.612-5.0743-10.612-5.0743l-11.985 20.985s-3.6875-24.91-4.1493-26.985c-0.46093-2.0742-2.7776-12.462-2.7776-12.462s-7.8364-0.44904-9.6866-0.44904c-1.8358 0-9.224 1.6133-9.224 1.6133l-6.2243 45.433s-8.2986-28.373-9.4621-28.373c-1.1484 0-12.224 10.149-13.597 14.074-1.3868 3.9101 1.3749 21.896 1.3749 21.896s-6.911-11.299-8.0606-11.06c-1.1643 0.23843-6.4623 7.6115-6.4623 7.6115" fill="#be9c59"/>
  <path d="m68.256 78.422s-0.61591 4.3035-0.61591 7.5277c0 3.2226 2.9286 11.383 2.9286 11.383s10.752 3.3776 11.523 2.9166c0.77091-0.46093 2.4676-5.3831 2.4676-6.911 0-1.5418-1.0808-5.5373-1.0808-5.5373z" fill="#fff"/>
  <path d="m106.54 88.563s0.77089 9.5324 2.0027 10.457c1.2199 0.92586 14.439-0.92586 15.518-2.9167 1.0808-2.0067 3.0835-9.9949 3.2385-13.541 0.11919-3.5326-0.46094-8.299-0.46094-8.299s-6.6165 3.5445-10.457 6.154c-3.8425 2.6067-9.8407 8.1448-9.8407 8.1448" fill="#fff"/>
  <path d="m53.727 75.188s-17.523-0.68743-26.06-0.68743c-8.5374 0-21.224 1.6133-21.911 3.6876-0.69937 2.0742 17.761 23.985 30.448 35.284 12.672 11.299 19.836 16.612 19.836 16.612s8.5231 1.3868 9.4482 2.3007c0.92586 0.92586 4.8363 3.2226 4.8363 3.2226s3.0001-5.5234 3.6995-7.3739c0.68745-1.8517 2.3008-7.6116 2.3008-7.6116s-6.4484-4.3877-9.9111-10.149c-3.461-5.7618-8.2986-18.911-9.462-22.836-1.1484-3.9101-3.2226-12.448-3.2226-12.448" fill="#be9c59"/>
  <path d="m90.706 162.37s9.0699 2.4676 15.686 2.4676c6.6026 0 17.368-3.6995 19.373-5.2285 1.9908-1.5418 4.3035-4.3178 4.3035-4.3178s2.4517 0.93778 3.3776 0.6318c0.92586-0.3179 7.3735-4.4576 7.3735-4.4576s9.8407 5.5369 11.845 7.0652c1.9908 1.5298 7.2332 6.6026 7.2332 7.3735 0 0.77089-4.9345 5.3827-4.9345 5.3827s2.4677 2.4676 2.3127 3.0836c-0.15893 0.60399-7.6819 5.8313-11.383 7.5277-3.6876 1.6809-13.219 7.0652-13.682 7.0652-0.46095 0-1.8358-2.3007-1.8358-2.3007s-10.303 3.9951-10.92 3.3776c-0.61591-0.61593-2.7776-8.6069-2.7776-8.6069s-6.911 1.0808-8.4528 1.0808-5.0748-0.61591-5.0748-0.61591-5.5369 10.149-6.1397 10.444c-0.61591 0.3179-10.766-3.9812-10.766-3.9812s-2.3127 3.0716-3.0835 3.2226c-0.75897 0.15893-5.3688-1.8517-5.3688-1.8517s6.4484-7.3735 6.4484-13.065c0-5.6914-0.15893-10.457-0.15893-10.457s3.3935 1.5418 4.1493 0.77089c0.77089-0.77089 2.4676-4.6118 2.4676-4.6118" fill="#c5a7be"/>
  <path d="m90.706 161.75s8.6073 3.2226 14.915 3.2226c6.3082 0 22.751-4.6122 24.602-9.224 0 0-19.219-6.4624-27.826-6.4624-8.6212 0-12.462 2.6226-12.462 2.6226s0.92586 3.9951 0.92586 5.3831c0 1.3868-0.15893 4.4576-0.15893 4.4576" fill="#30353a"/>
  <path d="m121.15 189.58s9.9949 31.976 10.457 33.364c0.46094 1.3868 1.2318 3.5326 1.2318 5.5369 0 1.9908 0.44904 5.6915 1.3749 7.6819 0.92584 2.0027 4.8502 15.028 5.7757 17.649 0.90997 2.6067 5.453 18.181 5.6072 19.261 0.15893 1.0649 1.3868 6.4484 1.3868 6.4484s4.766-7.0652 5.5373-7.2193c0.75896-0.15893 9.0694-0.3179 9.0694-0.3179s-4.009-34.134-5.5369-38.9c-1.5418-4.7664-4.1497-10.612-4.1497-10.612s-2.3127-15.378-2.9286-22.443c-0.61591-7.0795-2.3007-18.925-2.3007-18.925s-13.836 8.1583-14.453 7.8499c-0.61591-0.31788-2.1577-3.0716-2.1577-3.0716z" fill="#be9c59"/>
  <path d="m122.92 196.04c-0.82651-2.6504-1.7643-6.4623-1.7643-6.4623l8.9157-3.6876s1.5418 2.7617 2.1577 3.0716c0.60401 0.31788 14.439-7.8361 14.439-7.8361s1.359 5.5373 1.8517 9.3782c-4.6122 0.23841-9.5884 0.81459-11.986 1.6133-4.1632 1.3868-8.0744 0.46095-8.0744 0.46095-0.92586 0-4.7239 2.3127-5.5373 3.4611" fill="#a5874c"/>
  <path d="m90.706 190.97s-6.3082 11.845-8.2986 14.298c-2.0027 2.4676-9.8408 12.448-9.8408 12.448s1.2318 4.009 1.2318 7.5416c0 3.5326-3.2385 30.294-4.1636 34.134-0.92586 3.8425-1.0808 4.4576-1.0808 4.4576s-3.5326 1.8517-5.8313 1.8517c-2.3127 0-5.5373-4.0094-5.5373-4.0094s-0.46093-17.985-0.61591-21.364c-0.15893-3.3935 0.3179-13.99 0.3179-13.99s-2.6067-4.6122-2.6067-8.6212c0-3.9951 3.2226-8.9157 4.1493-11.523 0.92586-2.6226 5.2146-11.229 5.2146-11.229s5.9998-0.46095 6.9253-0.92586c0.92586-0.44903 6.6165-4.1493 6.6165-4.1493s4.4577 1.6968 5.2286 1.6968c0.75499 0 3.8425-3.2385 3.8425-3.2385z" fill="#be9c59"/>
  <path d="m76.868 83.647v4.9202c0 2.4517 3.2226 7.8364 4.3035 7.8364s3.2226-2.6067 3.2226-3.5326-0.90996-5.0748-0.90996-5.0748z" fill="#0f141b"/>
  <path d="m113.92 82.419s-0.15893 4.7521-0.15893 6.7564c0 2.0067 2.3008 6.6169 3.8425 6.6169s5.0744-5.3831 5.0744-11.691c0-6.2942-1.0808-6.2942-1.0808-6.2942z" fill="#0f141b"/>
  <path d="m82.709 89.557c0.35763 1.8915 0 3.5167-0.74308 3.6438-0.75499 0.1192-1.6411-1.2636-1.9749-3.1392-0.3179-1.8915-0.0147-3.5167 0.74307-3.6597 0.75897-0.15893 1.6411 1.2755 1.9749 3.1551" fill="#fff"/>
  <path d="m120 86.41c0 2.3285-0.79872 4.2057-1.7802 4.2057-0.98149 0-1.7643-1.8795-1.7643-4.2057 0-2.3127 0.78677-4.1914 1.7643-4.1914 0.98148 0 1.7802 1.8795 1.7802 4.1914" fill="#fff"/>
  <path d="m43.348 119.93-1.8517 11.986 13.387-2.0742z" fill="#be9c59"/>
  <path d="m43.348 119.93-1.8517 11.986 13.387-2.0742z" fill="#be9c59"/>
  <path d="m42.581 120.39v4.3035l6.7568 4.9206 4.6118-0.31789z" fill="#a5874c"/>
  <path d="m89.014 195.73c-0.61593-0.60399-4.3035 0-5.229-0.46093-0.92586-0.46096-17.214-5.9998-20.144-6.4484l9.5324-7.6962 2.7776 8.6074 7.2193 1.8517 3.0716-3.2226 5.2289 2.3008z" fill="#a5874c"/>
  <path d="m151.56 75.609c-0.23841 0.03973-0.64372 2.3405-0.0795 2.1855 19.738-5.453 65.03-1.3471 66.783 1.9908 0.0795 0.23844-73.736 1.9471-73.287 62.128-3.8147-0.0795-13.079-11.565-17.228-25.513-0.15893-0.56028-2.9166 1.2756-2.7617 1.8358 4.0511 13.612 15.967 29.536 21.532 29.536 4.4858 0 60.082-43.05 71.549-60.867 2.257-3.5048 2.9445-6.1258 2.0901-7.9763-2.6504-5.8456-50.087-8.0745-68.591-3.322" fill="#0f141b"/>
  <path d="m76.403 121.78s-1.5259 5.3831-2.4517 7.0795c-0.92586 1.6808-2.9286 6.911-2.9286 6.911l5.3831 7.9902s2.3126-2.7617 4.766-2.7617c2.4676 0 5.6914 2.7617 6.3082 4.3035 0.61593 1.5418 2.7617 7.0652 2.7617 7.0652s8.2986-2.9167 10.92-2.9167c2.6067 0 13.836 1.3868 17.06 2.3127 3.2385 0.92586 13.079 4.3039 14.313 4.3039 5.8457 0 15.364-11.075 19.99-21.518 0 0-14.453 6.2943-18.462-1.6968-3.9951-8.0041-7.0652-16.303-7.0652-16.303s-12.462 12.154-28.765 12.154c-13.359 0-21.826-6.9249-21.826-6.9249" fill="#c5a7be"/>
  <path d="m102.85 133.3c10.317 0 19.639-4.346 26.284-11.341-1.3312-3.2107-2.1458-5.4109-2.1458-5.4109s-12.448 12.14-28.751 12.14c-13.373 0-21.84-6.911-21.84-6.911v0.0147c6.6586 7.0934 16.051 11.509 26.452 11.509" fill="#a2899c"/>
  <path d="m127.07 116.01s2.3007 11.06 7.1494 17.523c4.8359 6.4623 9.4482 9.462 10.836 9.2236 1.3868-0.23841 16.598-46.12 20.299-49.807 3.6876-3.6995 54.881-12.686 53.731-13.836-1.1484-1.1484-17.06-5.3128-42.433-5.0743-25.373 0.23841-25.373 2.9842-25.373 2.9842s-6.2243 14.537-10.598 22.149c-4.3877 7.6119-13.612 16.836-13.612 16.836" fill="#be9c59"/>
  <path d="m127.07 116.01s0.56029 2.7458 1.7524 6.3082c5.3128-5.453 8.9856-12.56 10.191-20.508-4.6961 6.9531-11.944 14.2-11.944 14.2" fill="#a5874c"/>
  <path d="m77.367 144.15s0-3.2385 2.7617-3.2385c2.7776 0 7.8499 1.053 9.6866 9.112 1.8517 8.0745 0.35763 16.724-1.9471 16.85-2.3127 0.1192-4.0372-1.1643-4.0372-1.1643s-1.1643-7.724-2.4239-11.411c-1.2756-3.6995-4.0372-10.149-4.0372-10.149" fill="#e73820"/>
  <path d="m87.861 166.87c2.0027-0.0795 3.3935-6.6304 2.5233-13.626-0.27817 5.6494-4.4858 7.8925-6.7568 7.5841l-0.3179 1.808c0.3179 1.7802 0.50466 3.0716 0.50466 3.0716s1.7246 1.2755 4.0372 1.1643" fill="#c62624"/>
  <g fill="#0f141b">
   <path d="m110.59-2.1837c1.1643 2.3405 3.7432 22.738 4.9905 32.634 0 0 0.71526 5.5373 0.82651 6.4624-1.9908 3.7273-3.5326 7.4017-4.4997 9.7986-0.67156 1.6689 0.23841 2.4796 1.3192 0.50464 5.3827-9.8407 12.925-23.915 17.326-30.98 7.4017 2.2292 15.406 9.981 17.312 11.915-0.35763 1.1484-9.5745 30.812-9.5745 30.812-0.46095 1.4424 0.23842 1.4981 0.99738 0.61593 0 0 12.042-13.682 13.766-15.715 1.1365 2.3285 3.1392 7.0234 3.926 9.0277-7.5837 42.854-32.438 74.661-57.475 74.661-14.046 0-24.139-5.6354-31.779-17.705-8.0184-12.672-13.443-32.396-17.046-62.044 0.27815-1.1762 4.0511-5.6637 5.5091-6.8411 1.2318 1.5259 4.9762 6.8971 8.0884 11.789 0.74307 1.1484 1.2318 0.56028 1.0371-0.50466-1.1643-6.6308-1.4861-19.359-1.4861-22.345 0-0.23841 0-0.35763 0.01472-0.46093 0.96559-1.7802 9.8972-11.411 12.518-13.317 1.5298 3.5047 6.4627 20.158 9.1962 30.644 0.47685 1.8517 1.3868 1.7524 1.3868-0.19866 0-9.9389 5.4669-45.461 6.4341-47.886 1.1484-1.4703 14.958-1.8358 17.214-0.88216m-16.499-1.7087c-1.4702 0.4212-2.3127 0.98149-2.6345 1.7683-1.0093 2.3961-4.9341 25.71-6.1258 39.727-5.3128-19.836-7.654-23.606-8.2425-23.803-0.53245-0.19866-1.053 0.03973-1.3868 0.23841-2.6623 1.5418-13.584 13.247-13.906 14.915-0.03973 0.15893-0.03973 0.53245-0.03973 1.053 0 2.9842 0 9.2379 0.75897 15.659-5.2989-8.5652-5.4391-6.911-5.8596-7.0234-0.65964-0.15893-1.2477 0.23841-2.0067 0.89803-1.2755 1.1086-6.21 6.5045-6.0419 8.3971 5.0605 58.147 21.784 81.698 50.914 81.698 38.578 0 57.544-59.073 59.213-77.689 0.0397-0.35763-3.2664-8.4949-4.5979-10.5-0.19866-0.27817-0.48874-0.44904-0.81459-0.46095-0.31789-0.02775-0.64374 0.1192-0.85434 0.35763 0 0-5.9156 6.2804-9.9246 11.004 2.3405-7.1351 7.5277-24.153 7.5277-24.153 0.0277-0.1192 0.0397-0.23843 0.0397-0.3179 0-0.23841-0.0795-0.51658-0.27817-0.71526-0.40531-0.44901-10.289-10.864-19.485-13.177-0.44901-0.1192-0.92586 0.07946-1.1643 0.48877-0.35763 0.60399-5.9017 8.537-10.864 17.593-0.23843-1.7802-5.2706-35.129-6.392-35.929-1.7643-1.2597-13.429-1.2755-17.817-0.02775"/>
   <path d="m130.63 106.36c-6.2382 6.3082-13.458 8.9578-20.831 8.9578-4.3035 0-12.827-4.1497-18.35-4.1497-5.6636 0-10.163 3.5763-13.836 3.5763-2.7895 0-6.5883-0.81462-8.7472-2.7339-1.053-0.93778-0.15893 1.2875 1.0808 2.2292 1.9908 1.5418 5.1165 2.2133 7.668 2.2133 4.1354 0 7.1351-2.9008 13.836-2.9008 6.3221 0 13.359 3.8703 18.35 3.8703 6.911 0 16.415-3.0557 22.191-10.023 2.0186-2.4518 0.84243-3.2664-1.359-1.0371"/>
   <path d="m66.397 78.441c4.2756 2.0902 14.313 8.8175 16.219 10.275 0.44903 0.35763 1.1086 0.27815 1.4583-0.19866 0.35763-0.44904 0.27817-1.1086-0.19866-1.4583-1.7246-1.3312-11.593-7.836-17.018-10.023-1.5974-0.64372-2.0464 0.64374-0.47683 1.4027"/>
   <path d="m69.409 97.218c4.3178 2.6782 8.6212 4.0654 13.009 3.8544 0.57618-0.0147 1.0252-0.50466 0.99738-1.0928-0.0282-0.57618-0.52055-1.0252-1.1086-0.98149-3.9538 0.19866-8.355-0.58812-12.322-3.0399-1.2597-0.7987-1.8358 0.47685-0.57618 1.2636"/>
   <path d="m67.443 77.92c-1.359 4.3738-1.0371 12.083 2.2014 18.602 0.15893 0.35763 2.4398 1.2199 2.1855 0.69937-3.0836-6.1679-3.6597-14.565-2.3842-18.672 0.15893-0.56028-1.8239-1.1762-2.0027-0.63182"/>
   <path d="m82.268 88.259c1.3192 3.4491 0.98149 8.1869-0.81459 11.243-0.27817 0.50464 1.514 1.5577 1.808 1.0649 2.118-3.616 2.5114-8.9995 0.96559-13.051-0.19866-0.54834-2.1736 0.19866-1.963 0.74307"/>
   <path d="m76.065 83.281c-1.8517 5.3692 1.1921 14.677 5.2428 14.677 1.359 0 2.4796-0.63182 3.167-2.4239 0.15892-0.39736 0.47684-2.1577-0.0795-2.3564-0.53247-0.19866-1.1365 0.07946-1.3312 0.6318-0.23841 0.58812-1.0252 1.4861-1.7643 1.4861-0.48875 0-1.1086-0.46093-1.6808-1.2755-1.6411-2.3127-2.6782-6.8971-1.5855-10.051 0.19866-0.54836-1.7961-1.2318-1.9749-0.68745"/>
   <path d="m128.23 72.432c-6.8971 2.7617-16.92 9.5181-23.761 17.214-1.1643 1.3034-0.35763 2.567 0.77089 1.4583 6.8267-6.8128 17.102-14.06 23.775-16.738 3.3657-1.3312 2.5948-3.2783-0.78678-1.9352"/>
   <path d="m126.06 74.245c0.57617 3.1114-0.23844 16.345-2.6067 20.438-1.5974 2.7498-9.4482 3.4889-14.327 3.3498-0.67156-0.89805-1.502-4.7243-1.502-9.8268 0-0.57618-2.1021 0.42122-2.0901 0.81461 0.0397 2.5113 0.39736 9.3782 2.5233 10.892 0.15893 0.1192 0.35763 0.19866 0.56028 0.19866 1.4027 0.0397 13.822 0.46096 16.64-4.3734 2.8173-4.8506 3.4213-18.812 2.861-21.869-0.0795-0.47683-2.1577-0.19866-2.0623 0.39736"/>
   <path d="m121.52 76.443c-0.53245 0.19866-0.81459 0.81461-0.60399 1.3471 0.35763 0.90997 0.81461 2.2729 0.81461 3.5604 0 9.1819-2.4955 13.443-4.1775 13.443-0.0795 0-0.39736 0-0.78677-0.43312-1.2477-1.3471-2.3683-5.6354-1.8795-11.873 0.0397-0.57618-0.39736-1.0808-0.95367-1.1206-0.57618-0.03973-1.0808 0.35763-1.1206 0.95367-0.47685 6.0698 0.46093 11.355 2.412 13.457 0.85434 0.92586 1.7404 1.1206 2.3285 1.1206 3.7551 0 6.2804-6.2518 6.2804-15.546 0-1.6411-0.56029-3.2385-0.9656-4.3174-0.19866-0.53247-0.81461-0.79872-1.3471-0.5881"/>
   <path d="m54.647 128.76c-17.467-0.42121-29.298 10.107-29.746 30.42-0.47683 21.462 14.102 36.924 37.597 36.84 13.892-0.0397 22.555-10.388 22.864-22.583 0.63182-24.364-12.771-44.228-30.714-44.676"/>
  </g>
  <path d="m80.472 155.59c-2.6504-9.0698-6.7008-15.729-12.07-19.878 6.911 10.99 12.266 29.018 10.303 42.994-0.67153 4.8224-2.1458 8.8032-4.3877 11.873 9.3079-5.7753 11.313-17.284 6.154-34.989" fill="#e73820"/>
  <path d="m76.634 178.41c2.1458-15.35-4.8363-35.747-12.771-45.461-5.7193-2.6226-12.504-2.7895-19.71-0.46094-12.126 3.9101-18.35 22.555-13.317 39.895 3.7551 12.995 17.523 21.504 31.415 21.546 7.5837 0.0282 12.728-3.6438 14.383-15.518" fill="#e73820"/>
  <path d="m68.404 135.72c1.0928 1.7365 2.1577 3.6876 3.1551 5.7475 1.1643 0.44903 2.269 0.90996 3.3101 1.4146-1.8795-2.8888-4.0372-5.2849-6.4623-7.1633" fill="#f3a481"/>
  <path d="m44.148 132.49c-9.1537 2.9564-14.943 14.312-15.055 27.181 6.8688-21.742 22.555-27.742 39.671-19.149-1.5418-2.9008-3.1948-5.4812-4.8924-7.5698-5.7197-2.6226-12.504-2.7895-19.724-0.46094" fill="#f3a481"/>
  <path d="m74.323 190.58c5.5512-3.4491 8.481-8.9435 8.8736-16.555-1.1086 1.6809-2.6226 3.2822-4.4858 4.6683v0.0147c-0.67156 4.8363-2.1458 8.8032-4.3877 11.873" fill="#c62624"/>
  <path d="m62.257 193.92c7.1772 0.0282 12.168-3.2783 14.074-13.696-3.8544 2.1855-8.7472 3.5882-14.298 3.5882-10.149 0-26.186-4.6539-31.625-12.995 0.15893 0.53245 0.27817 1.053 0.4212 1.5696 3.771 12.981 17.523 21.49 31.429 21.532" fill="#c62624"/>
  <g fill="#0f141b">
   <path d="m81.228 139.68c-2.0901 0.0147-3.926 1.1643-4.9063 2.9723-0.23842 0.39736 1.3471 2.3961 1.502 1.8358 0.44903-1.6411 2.3405-2.0901 3.9657-2.1021 2.2133-0.0147 5.341 1.5418 7.0652 7.3874 2.8451 9.5463 0.40531 14.074-1.3749 15.21-1.1086 0.69935-2.2014 0.44902-3.0557-0.31789-0.4212-0.39737-0.50466 2.2729-0.31789 2.3842 1.5974 0.99341 3.2226 1.0928 4.6118 0.23841 2.8889-1.8358 6.0419-8.0744 3.0558-18.112-2.6067-8.7611-9.112-9.4903-10.556-9.476"/>
   <path d="m5.524 76.96c-0.67153 0.64374-0.82651 1.3034-0.82651 1.7524 0 3.6041 20.495 29.564 48.026 51.068 0.35763 0.27816 3.9101-0.6318 3.6438-0.84241-28.962-22.359-49.036-47.395-49.569-50.241 0.01472-0.02817 0.03973-0.07946 0.15893-0.23841 2.269-2.1577 15.757-3.9101 46.779-2.3564 0.57618 0.02775 0.31788-2.7498-0.23844-2.7776-16.051-0.7987-43.316-0.7987-47.97 3.616"/>
   <path d="m75.333 120.87s-3.5167 11.102-5.6632 14.327c-0.3179 0.47685 1.4146 1.6411 1.7405 1.1643 2.3127-3.4769 6.3781-13.499 6.3781-13.499 0.19866-0.56028-2.2729-2.5392-2.4517-1.9908"/>
   <path d="m151.56 75.609c-0.23841 0.03973-0.64372 2.3405-0.0795 2.1855 19.738-5.453 65.03-1.3471 66.783 1.9908 0.0795 0.23844-70.82 1.8795-73.217 58.596-0.15893 3.0001-1.2358 4.0794-4.6961 0.63183-4.2896-4.2896-9.7005-12.855-12.602-22.611-0.15893-0.56029-2.9166 1.2755-2.7617 1.8358 2.3286 7.8078 8.0884 18.798 14.004 24.56 4.6118 4.5002 8.3268 0.57618 8.7754-1.4861 8.8593-41.326 20.523-50.059 68.563-59.213 4.0794-0.77091 4.6822-1.3192 3.8266-3.167-2.6504-5.8457-50.087-8.0745-68.591-3.322"/>
   <path d="m148.4 137.57c-2.4796 7.4578-12.014 17.116-16.079 17.116-3.3379 0-21.546-6.4342-30.896-6.4342-3.771 0-8.0041 1.5418-10.219 2.2292-0.64372 0.19866-0.61591 2.3286 0 2.1577 2.3961-0.65962 6.9388-2.3007 10.219-2.3007 9.0277 0 26.34 6.4341 30.896 6.4341 6.3924 0 17.593-12.336 19.766-18.854 0.19866-0.54837-3.5048-0.89805-3.6876-0.35763"/>
   <path d="m128.22 154.68c-6.4484 8.593-23.074 11.733-37.512 5.2289-0.53245-0.23841-1.3868 2.7617-0.85432 3.0001 13.009 5.8596 34.779 2.3126 41.592-6.7711 0.35763-0.44903-2.873-1.9193-3.2226-1.4583"/>
   <path d="m93.913 175.45c-1.9074 3.1114-9.7287 13.836-11.257 15.07-0.81459-0.0397-3.3776-1.1365-4.2617-1.514 0 0-2.1299 1.3749-1.5974 1.5974l0.77088 0.3179c2.873 1.2358 5.215 2.2411 6.2244 2.0345 1.9908-0.39736 10.345-14.733 11.383-16.99 1.3034-2.7776 0.3179-3.1273-1.2636-0.52056"/>
   <path d="m102.04 181.28c-2.3683 4.5558-4.8502 9.6866-5.7054 10.065-0.81459 0.23843-6.4623-2.5789-9.5745-4.4719-0.48874-0.27817-1.7246 2.3961-1.2199 2.6345 0.0795 0.0397 10.85 4.654 12.532 4.2196 0.48877-0.1192 1.053-1.4305 5.6915-11.832 0.23841-0.53247-1.4583-1.1365-1.7246-0.61593"/>
   <path d="m100.83 181.28c3.7551 2.3008 11.958 2.8054 16.009 1.3868 0.54836-0.19866-0.0795-2.5511-0.64375-2.4239-5.9438 1.4862-11.495 1.1484-14.537 0-2.4239-0.93778-3.0438-0.3179-0.82651 1.0371"/>
   <path d="m114.61 172.63s1.8795 17.691 3.461 18.336c0.40531 0.15893 2.257 0.65964 12.518-3.8147 0.53247-0.23844 0.77089-0.84243 0.54836-1.3749-0.23841-0.53247-0.85432-0.78678-1.3749-0.54837-3.9101 1.6968-8.537 3.4928-9.981 3.7551-0.67156-1.5696-3.9657-16.654-3.9657-16.654-0.63182-1.8915-1.5696-1.5298-1.204 0.27814"/>
   <path d="m131.81 187.91c-0.0282 0.0147-0.0795 0.0397-0.1192 0.0397 0.15893-0.0282 0.0795-0.0397 0.1192-0.0397m17.691-19.751c0.31787 0.31787 6.21 4.9623 6.785 5.9434-2.3961 2.1736-20.621 12.112-24.125 13.654-0.96559-1.502-3.5882-7.4017-4.2335-9.0698-0.85434-2.257-1.8239-1.8358-1.2636 0.39736 0.0277 0.11919 2.3405 11.116 4.6261 11.116 2.269 0 26.55-13.471 27.139-15.518 0.4212-1.4702-4.6679-5.453-8.0745-7.3596-1.6252-0.90997-1.963-0.23843-0.85432 0.84241"/>
   <path d="m139.99 150.72c-0.0795 0.15893-0.11919 0.3179-0.11919 0.50466 0 0.35763 0.19866 0.72718 0.53247 0.90997 10.401 5.8317 17.719 12.154 18.672 13.556-0.48876 0.87023-2.8452 3.1392-4.8502 4.6539-0.27814 0.19866-0.4212 0.51658-0.4212 0.84243 0 0.19866 0.0795 0.43312 0.19866 0.61591 0.35763 0.46095 1.0093 0.56028 1.4702 0.23841 0.0397-0.0397 6.4063-4.9905 6.4063-7.0369 0-2.2133-11.733-9.7708-20.467-14.677-0.51658-0.27814-1.1484-0.11919-1.4305 0.40531"/>
   <path d="m90.19 190.25c-5.9716 12.42-18.532 26.48-18.658 26.621-0.3179 0.3179-0.44901 0.54836 0.03973 1.4424 1.0093 1.8795 2.6345 13.388-4.1493 47.325-0.56028 2.8054-2.9723 3.0279-4.3595 2.9286-2.4398-0.19866-4.7803-1.6968-4.8363-3.0994-0.15893-3.7988-0.5881-38.816-0.5881-39.167 0-0.15893-0.03973-0.3179-0.1192-0.48877-1.4424-2.6226-2.0027-4.5419-2.0027-7.3314 0-6.0698 5.8313-18.364 8.9296-23.551 0.27817-0.49274-3.2663 0.0397-3.4054 0.31788-5.0747 9.981-7.6119 17.845-7.6119 23.326 0 3.0001 0.65962 5.2146 2.1299 7.9624 0.02775 2.8451 0.43312 35.255 0.5881 38.999 0.1192 2.8332 3.5882 4.8502 6.7568 5.0883 3.4332 0.27815 5.9577-1.4861 6.5744-4.5979 6.21-31.05 6.3924-44.998 4.6682-48.208 2.3842-2.718 13.121-14.873 18.56-26.186 0.0795-0.15893-2.257-1.9193-2.5113-1.4027"/>
   <path d="m145.77 181.23c2.3683 13.766 4.7382 41.424 4.7382 41.718 0.0147 0.27815 3.3935 4.7664 5.0744 13.317 0.89802 4.5558 2.3007 16.233 3.461 25.611l1.514 12c0.3179 2.3564-0.95367 4.0933-3.8147 5.1729-3.926 1.4583-8.4389 0.75499-8.9292 0.0278-2.9842-14.074-9.4486-30.601-12.729-44.115-0.47684-1.5259-1.4146-8.5509-1.4146-8.5509-0.0795-0.43312-9.476-30.756-11.284-37.12-0.15892-0.54836-2.9564 0.65964-2.9286 0.75897 1.808 6.3924 11.201 36.643 11.299 37.134 0 0 0.54837 6.3221 1.6133 9.7565 4.2335 15.126 8.1444 20.299 13.415 42.671 0.57618 2.4796 5.8178 2.706 9.168 2.0742 4.9345-0.90997 7.7522-3.5326 7.7522-7.1073 0-0.31788-0.0147-0.65961-0.0795-0.99341l-1.514-11.958c-1.1643-9.406-2.6226-21.111-3.477-25.737-1.1643-6.2378-3.2663-12.378-4.5141-13.555-0.1192-3.6995-1.4583-29.214-3.6876-42.209-0.0795-0.56029-3.771 0.53247-3.6717 1.1086"/>
   <path d="m151.96 271.66c-0.78678 0.39737-1.7524 1.6689-3.6041 4.2896-0.27817 0.40531-0.63182 0.88216-0.95369 1.3192-0.31788-1.3749-0.68743-2.9008-0.71524-2.9842-0.1192-0.43312-1.9074-1.5577-2.1736-1.204-1.8517 2.3008-3.8982 8.537-3.5326 10.289 0.19867 0.96561 6.9388 10.359 7.2332 11.257 0.19866 0.68744 0.68745 10.766 1.6809 12.434 3.5326 5.9016 15.448 12.14 24.252 12.14 3.616 0 7.1073-7.3457 7.1073-15.546 0-5.0604-5.5234-11.032-8.3689-14.607l-1.5577-2.0464-0.35763-0.51658c-1.3312-2.0901-3.5763-5.5655-3.8544-7.2758 0-0.0147-0.0795-0.68742-0.0795-0.68742-0.81459-5.5512-0.60399-7.668-1.7643-8.0606-1.1206-0.39736-11.691 0.39736-13.303 1.204"/>
  </g>
  <path d="m163.69 272.94c0.53247 0.87021 1.0928 4.6118 1.2755 5.8734l0.1192 0.69937c0.3179 2.0027 2.1458 4.9766 4.1632 8.1027l0.31788 0.52053 1.6808 2.2133c2.4955 3.1273 7.1494 8.9856 7.1494 13.303 0 8.1869-2.718 12.308-4.2614 12.308-7.8782 0-18.672-5.0883-21.784-10.275-0.7987-1.3192-1.204-4.8924-1.502-7.4999-0.19866-1.7802-0.39736-3.3061-0.64372-4.1632-0.35763-1.1086-1.6252-3.0994-3.5485-5.9998-1.2199-1.8517-2.9008-4.3877-3.0279-5.0044v-0.11919c0-0.71526 0.75896-2.861 1.7246-5.1586 0.19866 0.77089 0.35763 1.4703 0.40533 1.7802 0.0795 0.47685 0.40531 0.84242 0.85432 0.93778 0.93778 0.19866 1.4702-0.53247 3.4332-3.2941 0.88213-1.2477 2.3564-3.322 2.8451-3.6438 1.0808-0.46096 9.238-0.7987 10.78-0.5881" fill="#c5a7be"/>
  <path d="m143.65 283.01c0.1192 0.61591 1.808 3.1551 3.0279 5.0048 1.9193 2.9008 3.1948 4.892 3.5326 5.9994 0.27817 0.87024 0.44904 2.3961 0.65964 4.1636 0.27815 2.6067 0.69935 6.1818 1.502 7.5138 3.1114 5.1868 13.906 10.261 21.784 10.261 0.82651 0 2.0027-1.204 2.9166-3.5763-0.89802 0.85433-2.0742 1.7404-3.1829 1.7404-4.0372 0-16.163-4.9345-19.373-9.224-0.90994-1.2318-2.7617-14.144-3.3776-15.378-0.5881-1.1643-5.5933-6.4902-6.8971-8.8592-0.35763 1.0371-0.5881 1.8636-0.5881 2.257v0.0795" fill="#a2899c"/>
  <path d="m165.07 279.51" fill="#c5a7be"/>
  <path d="m49.834 269.58c-0.3179 0.95368-0.84242 2.1021-1.0093 2.3405-0.27815 0.27817-16.191 10.289-17.621 12.84-2.4239 4.2756-0.7987 11.789 2.0027 13.822 3.2782 2.4239 11.971 1.808 16.598-0.90997 1.4583-0.85434 9.6162-8.3828 10.976-9.2236 2.7895-1.6968 4.9206-2.2014 8.7055-3.8425 3.0716-1.3471 6.7707-4.7799 6.7707-12.336 0-4.009-5.8317-9.4482-6.4202-10.065-0.35763-0.39736-0.96561-0.42122-1.3868-0.0795-0.02817 0.0277-3.1392 2.3683-5.9577 2.3683-2.1021 0-3.9955-2.7339-4.5419-3.7869-0.15893-0.27817-0.44901-0.50466-0.78678-0.56028-3.3935-0.44904-5.3553 3.4054-7.3318 9.4486" fill="#0f141b"/>
  <path d="m35.276 296.38c-1.2636-0.92586-2.1021-3.616-2.1021-6.2938 0-1.5418 0.27814-3.0836 0.95367-4.2618 1.3034-2.3286 8.1444-6.8971 12.238-9.6444 2.7061-1.808 3.6876-2.4676 4.0515-2.8888 0.35763-0.43314 0.69937-1.2596 1.359-2.9286 0.85434-2.1299 2.9842-7.4717 4.71-8.0466 0.82653 1.3312 2.9842 4.2474 6.0137 4.2474 2.5789 0 5.1729-1.4305 6.4346-2.2411 1.6809 1.8636 4.5836 5.5933 4.5836 7.9624 0 5.1447-1.8517 8.5648-5.4948 10.135-3.8425 1.6689-5.4673 2.5074-8.3268 4.2474-1.4981 0.92584-3.6438 2.718-5.916 4.6118-2.1299 1.7802-4.3456 3.6319-5.6632 4.4016-3.8544 2.269-10.219 2.6226-12.84 0.69934" fill="#c5a7be"/>
  <path d="m48.124 295.67c1.3034-0.77088 3.5167-2.6226 5.6632-4.4016 2.257-1.8915 4.4016-3.6875 5.9017-4.6122 2.861-1.7365 4.4997-2.5789 8.3407-4.2474 2.6623-1.1484 4.3599-3.31 5.0747-6.3924-3.9657 2.861-12.967 7.5138-14.228 8.2708-1.5259 0.92586-8.6073 6.4623-10.457 8.299-1.653 1.6689-6.5748 4.079-11.579 4.5276 3.0716 0.99738 8.0466 0.46491 11.285-1.4424" fill="#a2899c"/>
  <path d="m132.37 102.19c0 33.84 21.126 59.185 50.381 59.185 24.588 0 39.419-12.672 39.419-34.274 0-27.91-20.817-59.002-52.358-59.002-18.911 0-37.443 10.135-37.443 34.092" fill="#0f141b"/>
  <path d="m131.14 130.65c0 9.406 5.9716 19.569 15.686 19.569 4.8081 0 11.032-7.0794 11.032-15.224 0-12.995-8.6491-21.294-17.2-19.569-5.285 1.053-9.5185 6.4202-9.5185 15.224" fill="#0f141b"/>
  <path d="m134 130.38c0-7.2189 2.8451-11.859 6.6586-12.448 7.85-1.2318 13.85 5.5512 13.85 17.214 0 5.3267-4.3313 11.537-8.2986 11.537-6.7008 0-12.21-6.1961-12.21-16.304" fill="#e73820"/>
  <path d="m146.21 146.68c3.0994 0 6.4063-3.7869 7.7101-7.9763-1.7365 2.5789-5.2007 3.1392-8.3971 3.1392-3.8147 0-8.593-3.9101-11.495-12.742-0.0147 0.42123-0.0282 0.84243-0.0282 1.2756 0 10.107 5.5091 16.303 12.21 16.303" fill="#c62624"/>
  <path d="m154.58 136.98c19.317 18.588 32.816 20.032 53.802 15.63 0.81461-0.15892 2.567-3.1392 1.8795-2.9723-19.626 4.528-34.835 3.5326-54.461-14.957-0.48877-0.46095-1.3868 2.1458-1.2199 2.3007" fill="#0f141b"/>
  <path d="m157.24 139.45c-0.82651 2.9842-2.3961 5.6211-4.2474 7.5416 8.0184 7.0512 18.224 11.102 29.761 11.102 9.0416 0 16.415-1.6133 22.064-4.7803-15.728 2.8729-32.774-0.47684-47.577-13.864" fill="#c62624"/>
  <path d="m140.66 115.42c8.537-1.7246 17.186 6.5744 17.186 19.569 0 0.50466-0.0147 1.0093-0.0397 1.514 21.728 19.457 60.586 24.756 60.586-9.406 0-26.691-18.574-55.512-48.558-55.512-16.906 0-35.046 8.7333-35.046 30.602 0 5.3549 0.56028 10.457 1.5974 15.252 1.2914-1.0212 2.7339-1.7087 4.2896-2.0186" fill="#e73820"/>
  <path d="m171.43 77.645c11.733 0 25.892 4.5562 34.247 12.126-8.411-10.78-20.663-18.182-35.859-18.182-16.906 0-35.045 8.7337-35.045 30.602 0 5.3549 0.56029 10.444 1.6133 15.252 0.82651-0.65963 1.7365-1.1762 2.6902-1.5418-1.8239-22.359 14.397-38.256 32.354-38.256" fill="#f3a481"/>
  <path d="m218.37 127.11c0-1.9074-0.0795-3.8266-0.27815-5.7332-0.7987 10.471-7.7661 18.938-15.364 22.555-9.0274 4.2752-32.368 0.19866-43.316-6.0419 21.981 18.322 58.975 22.555 58.975-10.78" fill="#c62624"/>
  <path d="m39.66 132.39 3.322-0.31788c0.56028-1.8517 1.2914-11.439 1.2914-11.439l-2.6902-1.2596s-1.4583 11.453-1.9193 13.023" fill="#0f141b"/>
  <path d="m177.58 89.337c0 8.1587-6.6165 14.761-14.761 14.761-8.1583 0-14.761-6.6026-14.761-14.761 0-8.1583 6.6026-14.761 14.761-14.761 8.1448 0 14.761 6.6026 14.761 14.761" fill="#f3a481"/>
  <path d="m61.15 140.63c0.69937 3.4889-2.9842 7.1772-8.2286 8.2286-5.2428 1.053-10.065-0.92586-10.766-4.4298-0.69937-3.4889 2.9882-7.1915 8.229-8.2286 5.2428-1.053 10.065 0.92586 10.766 4.4298" fill="#f3a481"/>
 </g>
</svg>
