<?xml version="1.0" encoding="UTF-8"?>
<!-- Created with Inkscape (http://www.inkscape.org/) -->
<svg version="1.1" viewBox="0 0 451.59 329.29" xmlns="http://www.w3.org/2000/svg">
 <g transform="translate(128.3 15.628)">
  <path d="m2.5415 74.289c-19.388 0.045811-30.122-10.638-29.106-24.085 1.5009-19.872 37.79-32.14 76.033-9.5083 5.9895 3.5372-19.871 33.513-46.927 33.593" fill="#f19eb4"/>
  <path d="m35.337 232.75c-4.9072 1.9356-14.303 4.1504-21.292 4.7942-7.0707 0.66352-10.655 1.4689-16.014 3.1666-9.8149 3.1299-13.302 2.6632-17.886-1.0021-8.2811-6.6347-18.371-16.014-26.975-27.443l0.67723-20.518c4.0817-1.7755 6.9897-3.4045 11.348-6.6667 3.5372-2.6632 4.3746-3.8758 6.6186-9.6214 9.4273-24.118 19.759-40.002 45.426-43.021 19.629-2.3109 33.157 94.371 18.096 100.31" fill="#f19eb4"/>
  <path d="m14.513 148.47c-10.428 3.3084-15.917-2.8737-12.237-12.172-4.1 1.7755-7.6514 4.068-10.816 6.8442-0.86943 11.591 8.4266 19.565 22.326 14.674 2.6129-0.91977 1.9997-9.7504 0.72757-9.3468" fill="#feeabe"/>
  <path d="m318.67 229.91c-21.76-13.883-24.441-30.317-13.06-66.929 30.478-97.939-55.693-158.57-111-108.64-37.952 34.271-19.694 215.28 10.881 205.5 16.837-5.3918 32.237-17.128 44.732-33.028 14.948 16.094 50.414 18.145 66.816 12.527 6.215-2.1324 6.2956-6.4571 1.629-9.4274" fill="#f19eb4"/>
  <path d="m124.17 275.03c-72.368 6.7156-130.08-60.923-106.91-151.81l47.17-88.382c-2.8096-17.257 3.2764-27.846 14.868-28.718 3.5006-0.27455 5.1333-1.176 7.4094-3.8895 16.192-19.323 54.805-22.826 82.345-5.3433 23.133 14.69 33.513 40.147 26.394 67.881l3.1162 74.952c5.7309 13.269 9.4919 31.188 9.3468 50.188z" fill="#f19eb4"/>
  <path d="m-36.702 200.08c5.7144 12.204 5.2303 20.082 2.2102 21.777-3.0201 1.7114-8.4751-2.3566-15.352-13.98-5.6499-9.5244-7.0062-18.419-4.1504-20.162 3.0201-1.8075 11.848 0.74129 17.289 12.366" fill="#eeeeef"/>
  <path d="m184.37 83.539c-3.2123-4.3243-5.6339-11.026-4.7137-12.882 0.80537-1.629 6.1505-3.0842 11.784-1.9036 2.471 0.51709-5.5534 16.821-7.0707 14.787" fill="#eeeeef"/>
  <path d="m216.72 57.218c-13.867-4.7297-25.538 1.9997-33.4 23.472-3.2764 8.9592-6.7477 16.708-9.7179 21.163-4.2785 1.0479-8.1845 2.892-9.7989 5.2143-8.5556 12.349 3.0201 43.198 24.683 38.63 51.528-10.848 56.032-78.987 28.234-88.479" fill="#f19eb4"/>
  <path d="m209.17 87.076c0.32032 8.007-4.1321 12.188-9.2498 12.382-5.5694 0.22879-10.203-3.6333-10.477-10.541-0.22881-6.296 3.8575-12.026 9.5239-12.253 5.7634-0.22881 9.9604 4.2785 10.203 10.412" fill="#f7d0a0"/>
  <g fill="#feeabe">
   <path d="m41.809 109.38c2.0317 28.266 23.585 44.248 49.51 44.248 24.844 0 57.227-19.226 60.213-50.511-27.378 13.06-71.223 8.7172-82.797-16.498-3.5372-7.7159-27.733 11.478-26.926 22.762"/>
   <path d="m19.953 123.26c-12.333 50.608 19.452 78.89 60.81 80.391 33.577 1.2126 77.938-24.344 73.45-73.45-15.836 29.477-45.975 43.247-73.321 42.44-26.265-0.79165-47.573-20.211-47.057-57.808 0.09148-6.8122-12.737 3.7294-13.883 8.4266"/>
   <path d="m118.76 241.02c-43.198 12.963-77.276 2.1461-95.227-24.214-6.6022-14.076-10.606-30.187-11.348-47.847 12.301 52.303 59.761 70.642 114.13 46.669 3.0018-1.3224-0.79164 23.359-7.5549 25.393"/>
   <path d="m124.17 275.03c-22.503 2.2102-43.263-2.9378-60.859-13.528 17.854 6.3766 37.629 4.6816 56.758-5.6174 3.3084-1.7755 10.832 18.484 4.1 19.145"/>
  </g>
  <path d="m131.47 299.83c-24.553-34.546-22.939-83.297 11.397-105.3 26.701-17.111 54.902-24.053 61.811-14.27 18.968 26.813 19.113 57.775 0.67724 86.784-5.4399 8.5716-11.009 18.096-15.497 26.119-6.07 10.832-15.287 14.238-26.668 16.192z" fill="#f19eb4"/>
  <path d="m125.69 303.72c0.13729-5.7629 8.7012-11.026 20.582-10.251 14.561 0.95179 21.712 10.848 21.05 14.69-0.41184 2.4069-7.6194 5.0042-21.776 4.2602-14.852-0.77333-19.953-4.8592-19.856-8.7011" fill="#eeeeef"/>
  <path d="m153.37 219.97c-12.737-1.0021-27.039 8.1845-28.266 23.843-1.1943 15.239 8.8462 26.151 22.439 27.217 11.493 0.90604 26.733-6.4251 27.991-22.617 1.1303-14.351-8.8302-27.394-22.164-28.444m10.251 25.183c-0.66352 8.2976-8.1035 12.576-15.287 12.01-6.9572-0.54911-12.365-6.5541-11.752-14.496 0.51707-6.4411 6.6511-12.447 14.577-11.833 7.8454 0.61318 12.979 7.6999 12.462 14.319" fill="#feeabe"/>
  <g fill="#d1889d">
   <path d="m212.93 194.72c27.846-0.85569 65.927-25.344 68.139-76.727 6.6351 66.347-30.365 124.15-70.399 139.67 10.509-20.405 11.01-44.118 2.2605-62.941"/>
   <path d="m280.98 146.5c-3.0522 30.284-12.091 56.113-30.752 80.311 14.948 16.094 50.414 18.145 66.816 12.527 6.2146-2.1324 6.2956-6.4571 1.629-9.4274-21.341-13.608-24.731-30.994-13.06-66.928 10.267-34.094 7.6519-66.008-5.3113-86.978 8.9272 30.672 0.90604 59.293-19.323 70.496"/>
   <path d="m188.81 68.576c1.9997-3.0842 5.0848-6.7962 7.894-8.6202 1.0799-4.3426 1.4506-15.223 0.36608-21.131-0.86942 12.898-6.1345 22.875-13.302 29.945 1.597-0.22879 3.4228-0.22879 5.0528-0.18304"/>
   <path d="m68.832 87.076c11.784 25.57 56.581 28.509 82.7 16.046-0.9701 10.138-5.0203 19-10.913 26.362 4.036-1.0662 8.1525-2.3063 12.366-3.7614 2.4207-0.82367 3.6333-0.32031 4.457 2.503 2.6952 9.3143 12.721 20.453 29.057 17.886 8.1035 9.8955 12.93 19.226 16.934 32.641 1.2904 1.7755 3.0338 3.8255 4.3609 5.9894 0.46674-8.9757-3.1986-30.268-8.168-42.375 27.281-9.7824 41.552-47.121 29.444-74.192 7.0868 43.666-42.843 65.153-55.757 34.675 3.3404-5.5209 6.6992-12.333 10.008-22.164-1.533-1.4689-3.6013-5.4564-3.8758-8.1685-15.352 11.655-34.82 12.785-46.621 5.0367-23.197-15.239-44.974-11.978-63.99 9.5244"/>
  </g>
  <path d="m70.578 89.98c-5.5209 4.9397-10.622 9.9925-15.352 14.141 16.256 26.975 45.991 35.692 85.396 25.361 5.8924-7.3613 9.944-16.224 10.913-26.362-26.119 12.463-67.171 9.0723-80.957-13.14" fill="#dbcaa5"/>
  <path d="m209.17 87.076c-0.0915-2.6952-0.97009-5.0688-2.4069-6.8767 2.1644 13.302-8.5561 19.742-16.434 13.092 1.629 4.1183 5.3433 6.3281 9.5889 6.1665 5.1173-0.18304 9.5564-4.3746 9.2498-12.382" fill="#cfaa7f"/>
  <path d="m179.83 70.344c1.2767 2.4527 3.3084 5.0848 4.8912 6.2636-0.72757 1.4368-1.2126 2.8096-1.629 4.3426-2.0821-1.7114-3.9856-7.8775-3.2626-10.606" fill="#c8c9ca"/>
  <path d="m-19.792 67.19c3.4731 3.0659 8.1845 5.3108 14.028 6.3926 11.994-3.647 24.893-11.139 38.372-23.907-30.058-17.096-58.89-1.2904-52.4 17.515" fill="#d1889d"/>
  <path d="m3.2989 70.141c5.6659-2.5671 11.51-6.0215 17.499-10.477-1.8578-1.3225-4.2602-2.2285-6.8282-2.5168-7.0707-0.79164-12.447 3.9216-12.85 7.0062-0.22879 1.8258 0.36608 4.1641 2.1781 5.989" fill="#cfaa7f"/>
  <path d="m13.341 181.89c-14.884 8.5396-32.706 4.8912-42.165-4.8267-1.8075 4.3929-2.8096 5.6339-5.989 8.023-3.4365 2.5671-5.9725 4.1321-8.8947 5.5534 2.4847 2.05 4.9882 5.1173 7.0062 9.4434 5.7144 12.204 5.2303 20.082 2.2285 21.777-1.4826 0.8374-3.5372 0.27456-6.0375-1.8395 6.9577 7.9585 14.335 14.626 20.647 19.678 4.6007 3.6791 8.0875 4.1504 17.902 1.0159 5.3593-1.7114 8.9432-2.503 15.997-3.162 6.102-0.56741 14.044-2.3246 19.226-4.0543-10.187-14.351-17.192-31.834-19.92-51.609" fill="#d1889d"/>
  <path d="m-34.482 221.86c4.6331-2.0363 2.5488-16.547-5.4564-27.233-22.245-20.405-2.892 30.914 5.4564 27.233" fill="#c8c9ca"/>
  <path d="m167.32 308.17c0.41183-2.3246-2.05-6.8447-7.2483-10.267-21.518-5.6014-33.561 3.9856-28.202 12.123 3.1162 1.1943 7.5709 2.0821 13.689 2.407 14.141 0.7413 21.341-1.8578 21.76-4.2602" fill="#c8c9ca"/>
  <path d="m169.73 262.29c-5.779 6.4571-14.771 9.3143-22.197 8.7332-11.655-0.90145-20.695-9.0723-22.277-20.986-3.9079-3.9216-7.0707-8.7012-9.2823-14.335-3.615 20.146 1.3224 42.746 13.786 61.585 3.647-2.6129 9.4923-4.2785 16.514-3.8072 14.561 0.93807 21.712 10.832 21.034 14.69-0.016 0.1373-0.0458 0.27455-0.1373 0.41183 9.5404-2.1004 17.337-5.876 22.665-15.416 4.489-8.023 10.073-17.547 15.513-26.119 6.3281-9.9765 10.461-20.162 12.398-30.349-14.755 14.69-31.898 23.101-48.025 25.603" fill="#d1889d"/>
  <path d="m147.55 271.03c7.4258 0.58114 16.417-2.2742 22.197-8.7332-17.499 2.7135-33.787-1.533-44.474-12.253 1.5833 11.913 10.622 20.065 22.277 20.986" fill="#dbcaa5"/>
  <path d="m115.37 258.22c-0.63149-5.4404-0.70927-10.864-0.22881-16.159-41.439 11.3-74.112 0.36607-91.546-25.215 9.0077 19.178 22.874 34.514 39.808 44.684 16.369 5.8275 34.352 4.8427 51.98-3.3084" fill="#d1889d"/>
  <path d="m119.13 275.37c-1.8578-5.6499-3.0979-11.413-3.7614-17.16-17.628 8.152-35.611 9.1368-51.98 3.3084 16.24 9.7664 35.337 14.787 55.741 13.85" fill="#dbcaa5"/>
  <path d="m115.13 242.06c0.41183-4.6976 1.2767-9.2983 2.5991-13.737-34.013 18.225-78.665 8.7977-100.34-27.701 1.6794 5.6659 3.7614 11.074 6.1825 16.224 17.451 25.603 50.108 36.515 91.563 25.215" fill="#dbcaa5"/>
  <g fill="#0f141b">
   <path d="m93.349 17.679c-0.22879 1.2904-0.13729 2.4207 0.18304 3.8895 0.22879 1.0982 0.8557 0.67723 0.86943-0.04581 0.016-1.5009 0.0458-2.2285 0.27455-3.6013 0.18304-1.2584-1.112-1.4872-1.3087-0.22879"/>
   <path d="m111.33 26.07c1.565-0.22879 1.3728-1.6473-0.2288-1.5329-1.5833 0.09148-3.0338 0.5308-4.4249 1.5512-1.0021 0.7413-0.61318 1.1303 0.36608 0.82368 1.8075-0.58115 2.7456-0.64521 4.2785-0.83741"/>
   <path d="m195.44 60.436c4.7782-25.732-5.5209-49.123-27.394-62.861-27.475-17.257-65.476-12.93-80.796 5.5374-2.3063 2.7913-4.2602 3.8895-8.039 4.1961-10.251 0.82368-15.691 10.202-14.19 24.521l-2.1461 0.27456c-1.6153-15.142 3.6974-25.764 16.256-26.781 3.1162-0.22881 4.2465-0.83741 6.6022-3.6791 16.062-19.355 55.128-23.956 83.717-6.005 22.455 14.109 32.673 37.758 28.299 63.119z"/>
   <path d="m172.79 102.96c-3.2764 0.8374-6.3766 2.3246-8.4911 4.5531-1.8075 1.9219-2.6632 1.3224-0.98383-0.90146 1.9219-2.503 5.7309-4.4707 10.848-5.7629z"/>
   <path d="m188.39 144.98c50.576-11.026 53.207-78.858 28.072-86.704-13.77-4.2922-24.634 2.5351-32.076 22.842-4.5531 12.446-8.9917 21.002-12.608 24.182-2.2926 2.018-3.0842 1.1302-0.9518-1.0662 3.0659-3.1482 7.1998-11.268 11.364-23.988 7.4743-22.874 20.905-28.46 34.901-24.053 29.041 9.1208 24.505 81.021-28.476 90.223-3.3908 0.59945-3.5692-0.70927-0.2288-1.4368"/>
   <path d="m198.97 77.531c-4.068 0.18304-8.7332 4.3929-8.4591 11.268 0.22881 6.5541 4.004 10.008 9.3633 9.8149 4.3929-0.18304 8.5392-3.4869 8.2326-11.51-0.22879-6.0375-4.3243-9.7504-9.1368-9.5729m11.187 9.6214c0.32032 9.0723-5.0363 12.963-10.186 13.156-6.021 0.22879-11.284-3.8758-11.574-11.413-0.27457-7.1998 4.553-12.834 10.525-13.06 5.6179-0.22879 10.945 3.8575 11.235 11.316"/>
   <path d="m182.49 82.538c-2.8416-4.1641-4.5531-10.315-3.583-12.253 0.87402-1.7114 5.4888-3.0018 10.622-2.7273l-0.97009 1.7938c-4.0177-0.27456-7.716 0.7413-8.168 1.7434-0.53082 1.1303 0.85569 5.876 2.9881 9.2983z"/>
   <path d="m45.025 39.631c-37.435-20.389-69.253-6.6186-70.561 10.638-0.7413 9.928 6.021 20.001 21.793 22.665l-4.3105 1.4689c-13.576-2.7593-20.615-12.785-19.743-24.279 1.5192-20.033 37.113-33.368 75.21-12.043z"/>
   <path d="m2.5479 70.425c-1.9036-1.6794-2.5351-4.4066-2.2742-6.3281 0.49878-3.8255 6.5861-8.6201 13.786-7.813 2.8554 0.32031 5.4564 1.3728 7.4258 2.8417l-1.4185 1.1303c-1.7572-1.2126-3.7294-1.9356-6.215-2.2285-6.7312-0.75961-11.542 3.8895-11.865 6.2956-0.22879 1.7572 0.4576 3.7751 2.3429 5.3758z"/>
   <path d="m43.083 113.56c3.7111 25.344 24.973 38.872 48.251 38.872 23.197 0 55.031-17.886 59.115-47.783-26.022 12.026-67.606 8.6041-80.634-13.915l1.3224-1.4048c12.882 21.18 52.384 25.151 78.681 13.544 2.2422-0.98382 2.7135-0.58114 2.439 1.8395-3.679 31.027-35.127 50.059-60.94 50.059-26.071 0-46.282-14.787-49.93-40.05z"/>
   <path d="m19.829 127.88c-9.3468 48.897 23.907 73.273 60.972 74.613 32.932 1.1623 75.21-23.924 72.772-69.479-14.286 25.635-42.359 41.729-72.708 40.81-28.654-0.85571-47.202-21.793-47.912-53.385l1.6931-1.0342c0.91977 33.158 21.502 51.367 46.314 52.109 29.541 0.8557 57.34-14.835 71.691-40.341 1.3728-2.4527 2.2925-2.4847 2.5488 0.83739 3.6333 46.976-38.549 74.144-74.532 72.853-43.473-1.565-71.561-30.736-62.812-76.098z"/>
   <path d="m119.27 276.55c-70.367 3.5692-123.33-60.827-104.8-146.4l2.4207-1.0342c-18.096 85.122 34.546 146.87 101.7 145.25z"/>
   <path d="m121.85 218.69c-52.626 20.663-97.487 2.2285-109.69-45.894l0.6635-5.3593c11.397 49.204 54.773 70.722 110.3 48.316z"/>
   <path d="m23.631 215.01c17.935 27.072 51.415 36.806 91.869 25.828l-0.3203 2.3429c-39.421 10.525-71.933 1.9539-90.287-22.746z"/>
   <path d="m61.613 259.61c15.884 6.4731 36.564 5.5209 53.691-2.4527l0.18304 2.1644c-17.644 8.2976-36.418 8.6202-50.56 3.9536z"/>
   <path d="m15.08 133.9c-23.391 4.1824-33.238 19.969-42.327 42.052-2.5991 6.3276-3.1162 7.0058-7.0547 10.025-3.3404 2.5671-5.6174 3.8896-8.5396 5.4563l-1.8395-1.5192c3.3725-1.6931 5.9565-3.1666 9.3628-5.7144 3.1803-2.3749 3.9078-3.583 6.102-9.2018 9.8955-25.457 19.872-39.033 44.813-43.408z"/>
   <path d="m-37.713 221.63c4.3746 5.0848 11.865 12.043 18.435 17.224 4.2144 3.3267 7.6034 3.8118 16.982 0.82366 5.8115-1.8578 9.1693-2.5488 16.224-3.2764 6.102-0.63148 13.221-1.9539 18.726-4.068l1.4551 2.2742c-5.8275 2.0363-13.334 3.6333-19.969 4.1641-6.8767 0.56285-10.364 1.2447-15.787 2.9698-10.154 3.2306-13.399 3.1803-18.92-1.2904-6.4571-5.2463-14.448-12.188-22.519-21.583z"/>
   <path d="m-37.643 200.57c-5.2788-11.252-13.511-13.495-15.836-12.091-1.9036 1.144-1.5009 8.5071 4.6167 18.823 7.5064 12.672 12.026 14.835 13.883 13.786 2.471-1.4048 2.8737-8.7011-2.6632-20.518m1.9219-0.88773c6.3926 13.657 4.8267 21.163 1.6794 22.939-3.1482 1.7755-9.0238-1.1623-16.773-14.222-6.1341-10.348-7.1513-19.355-3.7111-21.438 3.6653-2.2102 13.254 0.86943 18.807 12.721"/>
   <path d="m12.857 149.76c-9.3788 2.1141-14.803-3.8758-11.816-12.495l2.05-0.80536c-3.2764 8.3946 0.90604 13.608 9.8634 11.526z"/>
   <path d="m12.268 159.31c-12.656 3.583-22.148-3.5372-21.825-15.013l1.9356-1.3087c-0.63148 10.558 7.0703 18.226 19.936 14.319z"/>
   <path d="m137.69 242.85c-0.56283 7.1673 3.6974 12.914 10.719 13.463 6.0055 0.46675 13.496-2.9698 14.157-11.236 0.54911-7.1188-4.8427-12.817-11.461-13.334-6.3606-0.49878-12.834 3.679-13.415 11.106m26.91 2.3749c-0.72759 9.3143-9.0883 13.318-16.369 12.753-9.0723-0.70927-13.301-8.2166-12.737-15.303 0.56284-7.2483 7.1678-13.366 15.755-12.705 8.104 0.64521 13.964 7.4743 13.35 15.255"/>
   <path d="m174.44 248.31c1.1623-14.819-9.4113-26.523-21.147-27.443-12.059-0.95179-25.925 8.3296-27.072 23.068-1.2126 15.319 9.3308 25.263 21.389 26.216 10.186 0.80536 25.57-5.876 26.83-21.841m2.1324 0.18304c-1.3408 17.063-17.257 24.327-29.122 23.407-14.4-1.1302-24.747-12.269-23.504-28.121 1.2767-16.192 16.014-25.716 29.493-24.667 12.252 0.97011 24.473 12.35 23.133 29.38"/>
   <path d="m128.91 297.86c-12.608-18.306-17.999-41.632-14.19-62.263 3.2627-17.677 13.35-32.351 27.701-41.6 2.5991-1.6611 3.2947-0.67725 0.79164 1.1302-13.915 10.025-22.584 23.617-25.78 40.987-3.6974 19.968 1.3728 42.003 13.092 60.633z"/>
   <path d="m167.3 307.58c7.0062-1.7297 16.11-4.8592 21.712-15.013 5.1978-9.4278 10.057-18.226 15.045-26.103 17.209-27.233 18.758-57.776 0-85.719-1.7755-2.6495-0.70927-3.5372 1.2263-1.0159 19.71 25.699 20.808 57.937 1.144 88.027-5.4399 8.3296-10.202 16.159-15.771 26.006-6.4251 11.349-14.497 14.141-24.263 15.965z"/>
   <path d="m126.61 303.78c-0.0458 2.5351 3.4731 6.7637 19.032 7.5874 14.884 0.79163 20.502-1.8395 20.776-3.4045 0.46674-2.6952-5.6824-12.511-20.195-13.463-12.495-0.80536-19.5 4.9722-19.613 9.2823m-1.8578-0.0325c0.18304-6.2956 8.8947-12.172 21.615-11.332 15.013 0.97009 22.665 11.526 21.906 15.917-0.69554 3.9536-10.654 5.8439-22.745 5.2143-14.674-0.77332-20.889-4.8592-20.776-9.7989"/>
   <path d="m206.62 183.23c-0.54911-12.543-3.2123-28.04-8.12-40.454l2.2102-0.88773c5.1983 12.833 8.4266 29.331 8.3946 45.022z"/>
   <path d="m211.09 256.3c43.828-19.597 73.757-78.487 69.35-139.33-0.27455-3.4411 0.97011-3.5372 1.3728-0.0915 7.2963 61.359-24.57 124.61-71.771 142.9z"/>
   <path d="m251.11 225.55c14.335 15.416 48.154 18.322 65.524 12.753 5.0852-1.629 5.5049-5.0528 1.4231-7.5709-22.6-13.883-25.264-31.059-13.834-67.816 16.482-52.997-1.2126-95.098-30.72-114.13-23.762-15.336-52.755-14.48-76.097 4.7462l0.18304-3.194c22.907-18.726 53.32-19.807 77.583-4.1641 31.236 20.13 48.622 63.022 31.688 117.46-11.574 37.226-7.8454 52.319 12.349 65.395 5.7309 3.7294 5.7469 8.6362-1.9676 11.332-17.579 6.1505-52.594 3.7935-68.155-12.334z"/>
  </g>
  <path d="m6.1465 34.705c0.41183 1.9356 3.4228 2.8737 6.3926 2.8554 2.956 0 5.876-0.9518 6.118-2.7913 0.32032-2.5808-4.3746-8.8462-6.3926-8.8462-2.3063 0-6.5537 6.6832-6.118 8.7817" fill="#eeeeef"/>
  <path d="m11.906 25.87c1.6473 3.5509 2.1004 9.8955 0.63148 11.703 2.2605-0.09148 6.102-1.0342 6.118-2.7913 0.04581-3.2443-4.6491-9.3464-6.7477-8.9107" fill="#c8c9ca"/>
  <path d="m12.495 36.676c3.1482 0 5.1333-1.0021 5.2788-2.1141 0.27455-2.3566-4.0497-7.8294-5.4888-7.8294-1.7892 0-5.6174 5.9405-5.2463 7.7324 0.27456 1.2126 2.2925 2.2102 5.4564 2.2102m-0.09148 1.7938c-3.5006 0-6.7152-1.2447-7.1998-3.5692-0.59945-2.8233 4.3105-9.7664 7.0707-9.7664 2.2605 0 7.7164 6.6351 7.2968 9.8149-0.32032 2.3886-3.7294 3.5189-7.1678 3.5189" fill="#0f141b"/>
  <path d="m113.88 75.458c0.0915 0.04581 0.22879 0.09148 0.36607 0.1373-0.0161 0.09148-0.13729 0.01651-0.36607-0.1373m-11.978-31.366c-9.7019 0.59945-15.11-1.3865-19.759-6.3601-10.316-10.993-26.797-9.6374-49.543 11.929-41.406 39.276-78.793 27.669-99.166 9.6699-27.217-24.069-45.2-21.793-55.354-5.9895-9.3951 14.594-5.7146 41.084 17.806 65.556 27.217 28.299 99.553 41.907 172.07-24.263 10.412-9.4919 19.178-15.255 26.571-18.209 15.352 7.4419 34.836 6.3601 48.089-4.6491-4.9878-21.212-19.823-28.961-40.712-27.685" fill="#f9dbe1"/>
  <path d="m154.32 55.131c-5.3108-9.7824-13.56-14.109-35.288-14.141-16.853-0.03247-31.656-6.7642-36.516-18.904-1.208-3.0521-2.5168-4.6167-3.8438-5.0363 1.3728 5.1013 0.69554 11.171-1.2904 16.789 1.7114 1.0479 3.2947 2.3383 4.7462 3.9079 4.6492 4.9557 10.073 6.9412 19.775 6.3441 20.889-1.2767 35.724 6.4731 40.713 27.685 4.9557-4.1321 9.0398-9.6534 11.703-16.643" fill="#922f00"/>
  <path d="m70.669 31.304c13.156 6.4731 7.1998 8.6526 13.156 14.19 6.6511 6.1505 22.859-0.86943 33.787-0.22881-4.0177-1.3087-10.961-1.5833-15.707-1.176-9.9275 0.83739-14.432-0.98384-19.759-6.3441-3.7614-3.7751-7.942-5.5534-11.477-6.4411" fill="#d8bec4"/>
  <path d="m113.88 75.458c0.0915 0.04581 0.22879 0.09148 0.36607 0.1373-0.0161 0.09148-0.13729 0.01651-0.36607-0.1373m22.971-17.483c-1.3865 8.8302-12.753 11.478-20.146 8.8302-16.595-5.9405-31.672 0.04581-57.582 20.728-83.33 66.46-181.67 27.588-180.83-34.514-0.0824 0.09148-0.14643 0.22881-0.2105 0.32032-9.3951 14.594-5.7146 41.084 17.806 65.556 27.217 28.299 99.553 41.907 172.07-24.263 10.412-9.4919 19.178-15.255 26.571-18.209 15.352 7.4419 34.836 6.3601 48.089-4.6492-1.2904-5.4724-3.226-10.057-5.7629-13.802" fill="#d8bec4"/>
  <g fill="#0f141b">
   <path d="m88.808-0.058306c1.7755 0.67723 3.8118 2.5808 4.2785 5.9085 0.18304 1.3545 1.0662 1.3224 1.1303-0.045811 0.18304-4.2785-1.597-6.3121-3.3725-7.4583-1.0021 0.5308-1.2584 0.79164-2.0317 1.6153"/>
   <path d="m145.99 27.501c7.5064-5.7954 18.952-1.6473 18.242 9.7664-0.13729 2.1141-1.533 2.0317-1.629 0.27456-0.27455-5.3758-5.6499-13.27-15.788-8.8462-1.7572 0.77333-2.3749 0-0.82368-1.1943"/>
   <path d="m141.85 72.249c-3.4365-13.98-11.574-22.762-24.15-25.99-13.124-3.3587-18.613 0.64521-27.572-2.0683-8.5881-2.5991-9.4113-9.3468-18.419-11.51-9.2498-2.2102-22.148 2.3886-38.436 17.822-42.02 39.857-79.568 28.541-100.8 9.7664-26.507-23.423-43.699-20.679-53.126-6.0215-7.9907 12.446-7.006 38.065 17.676 63.732 27.362 28.46 100.05 39.824 170.32-24.295 20.098-18.322 35.756-24.214 47.121-18.726 3.1299 1.5192 2.7593 2.5488-0.48504 1.2584-10.187-4.036-24.667 0.36608-45.281 19.162-73.418 67.009-145.79 53.917-173.94 24.634-24.699-25.683-27.475-52.852-18.096-67.445 10.283-15.997 28.815-19.646 57.582 5.7794 20.276 17.918 57.275 28.702 97.551-9.4759 16.95-16.094 30.171-20.776 40.277-18.371 10.057 2.3886 10.267 9.1208 18.549 11.736 8.4586 2.6815 14.593-0.75961 27.088 1.9676 13.431 2.9378 22.035 11.703 25.635 26.749z"/>
   <path d="m76.407 33.338c2.0821-5.973 2.6815-11.655 1.3408-16.353l1.8716 0.36608c1.1806 4.8592 0.77332 11.074-1.3408 17.047z"/>
   <path d="m155.07 56.149c-9.9765 25.441-40.034 32.011-61.504 20.76l1.9539-0.98382c21.47 9.928 49.527 2.9057 58.114-22.164z"/>
   <path d="m157.17 63.409c-5.7954-14.141-11.252-21.389-38.162-21.422-18.112-0.032054-32.254-6.9252-37.29-19.549-2.1644-5.4239-4.3929-5.5534-6.5866-2.7913-1.1623 1.4689-2.1003 0.7413-1.0479-0.80537 2.7913-4.1321 6.6026-3.6791 9.2338 2.9378 4.068 10.186 17.192 18.209 35.676 18.242 27.459 0.03205 34.271 6.8442 39.453 22.955 0.91977 2.8554-0.18304 3.162-1.2767 0.4576"/>
   <path d="m-53.468 88.763c-2.018-1.7755-1.1806-2.8096 0.97011-1.1943 19.484 14.561 53.836 9.2663 82.7-14.19 19.872-16.143 31.85-22.987 44.7-26.265 3.162-0.80537 3.4228 0.32032 0.27456 1.2904-11.445 3.4365-24.893 11.235-43.747 26.555-32.108 26.087-67.51 29.073-84.896 13.802"/>
  </g>
 </g>
</svg>
