<?xml version="1.0" encoding="UTF-8"?>
<!-- Created with Inkscape (http://www.inkscape.org/) -->
<svg version="1.1" viewBox="0 0 275.24 307.09" xmlns="http://www.w3.org/2000/svg">
 <path d="m161.89 1.3052-2.0547 2.0547c-18.84 17.404-66.596 75.993-70.464 80.646-19.912 6.1187-83.502 25.185-86.025 26.545-5.182 2.8403-3.1878 8.0375-1.6468 10.681 2.0396 3.49 47.348 36.093 54.918 42.061-1.1331 8.0374-13.129 84.514-17.117 119.35-0.01506 0.0906 1.6317 7.4029 6.572 3.7015 20.381-15.289 70.313-61.142 74.301-64.859 0.5741-0.10579 3.7921-0.49857 4.9252-0.69497 14.534 20.184 58.785 82.973 61.233 84.454 1.964 1.1633 5.9223 2.7194 8.6267 1.2237 1.4655-0.80072 3.6259-4.4115 3.7015-6.1641 1.2238-31.394-6.2396-102.63-6.7533-107.64 0.25684-0.5741 4.1245-7.131 4.5626-8.0979 9.2612-2.2511 66.309-17.057 72.836-19.384 5.741-2.0547 8.4303-10.092 2.0547-13.552-4.064-2.2058-75.616-43.662-83.381-48.059-1.2993-8.9742-13.96-94.788-14.791-97.749-1.7525-6.3302-9.4727-6.9195-11.497-4.5173" fill="#0f141b"/>
 <path d="m166.08 5.2105c1.7828 0.52879 3.2633 1.677 3.5202 2.7194 0.57411 2.3719 9.6842 64.632 14.413 97.22l0.0906 0.64964 0.57411 0.31728c27.904 15.803 81.447 46.306 84.333 48.557 0.0605 0.0453 0.22662 0.39281 0.16619 1.2238-0.13597 2.0094-1.4353 4.5928-2.7799 5.5295-4.5475 3.218-54.102 15.758-72.821 20.305l-0.61943 0.16619-4.1698 8.9288 0.0303 0.3777c0.0755 0.69497 7.282 69.829 6.4209 108.4-0.0302 0.80072-0.31726 1.3295-0.95179 1.677-1.6317 0.89137-4.8044 0.34748-6.1338-0.46835-2.3871-2.0396-38.178-51.246-61.626-83.789l-0.49857-0.69497-7.1007 1.2993-0.28706 0.27195c-0.49857 0.46835-50.521 47.152-71.567 63.015-0.46835 0.34748-1.2086 0.18129-1.5108 0.0906-0.92159-0.28706-1.5712-0.87627-1.677-1.1331 4.2151-36.743 15.38-116.17 15.486-116.97l0.10579-0.7705-0.60432-0.46835c-20.804-16.392-52.304-41.411-53.815-43.133-0.51366-0.60431-0.72518-1.2842-0.72518-1.9489 0-1.1633 0.66475-2.3115 1.6166-3.1122 2.5381-1.541 51.987-17.012 84.59-27.028l0.3777-0.12085 0.25683-0.30217c0.51368-0.61942 52.138-62.713 71.536-80.631 0.58922-0.54388 1.9187-0.61943 3.3691-0.1813" fill="#955E0C"/>
 <path d="m268.64 158.13c0.28706-0.7554 0.48346-1.5259 0.54389-2.236 0.0453-0.83095-0.12085-1.1784-0.16618-1.2238-2.8856-2.2511-56.428-32.739-84.348-48.557l-0.559-0.31727-0.0755-0.51368-72.775 26.862s70.116 2.8403 157.38 25.986" fill="#bc771a"/>
 <path d="m163.94 4.9463c-0.52878 0.045303-0.95181 0.1964-1.2237 0.43813-19.414 17.933-71.038 80.012-71.551 80.631l-0.25684 0.31728-0.3777 0.10579c-32.603 10.017-82.052 25.502-84.575 27.028-0.36259 0.30217-0.64964 0.64966-0.90648 1.0274 24.263 1.1331 75.328 3.7921 94.319 6.859 0 0 19.64-49.977 64.572-116.41" fill="#bc771a"/>
 <g fill="#764800">
  <path d="m184.05 105.39-0.0302-0.24173c-4.7288-32.588-13.839-94.848-14.413-97.22-0.25684-1.0425-2.2964-2.4626-4.0792-3.0065-0.75541-0.22662-51.292 77.323-70.328 119.63 28.886-4.3813 61.323-9.231 88.85-19.157"/>
  <path d="m140.72 135.81c-8.808 1.4202-11.165 20.29-22.33 28.101 27.391 42.725 71.551 137.65 72.715 137.77 1.1633 0.13598 2.3568 0.0453 3.1727-0.40791 0.63455-0.34748 0.9367-0.86116 0.95181-1.677 0.86116-38.571-6.3454-107.7-6.4209-108.4l-0.0302-0.36259 4.1698-8.9439 0.61942-0.15109c18.719-4.5626 68.273-17.087 72.821-20.305 1.0122-0.71007 2.0094-2.372 2.4928-4.0036-42.725-9.5936-111.03-24.399-128.16-21.62"/>
  <path d="m79.35 157.21c-14.504 35.7-33.389 119.35-34.839 123.27 0.27195 0.1964 0.63454 0.39281 1.0576 0.52878 0.30216 0.0906 1.0425 0.25683 1.5108-0.0906 21.045-15.863 71.068-62.547 71.567-63.015l0.28704-0.27195 2.1-0.3777c-16.014-18.855-29.325-39.447-41.683-60.039"/>
  <path d="m88.992 121.61c-27.572-4.0792-85.194-7.3425-84.575-5.6655-0.03025 0.21151-0.09061 0.42302-0.09061 0.64965 0 0.66475 0.22662 1.3295 0.72519 1.9338 1.5259 1.7223 33.026 26.741 53.83 43.133l0.60431 0.48346-0.06036 0.34748c10.515-9.8504 23.13-27.285 29.566-40.882"/>
 </g>
 <g fill="#0f141b">
  <path d="m160.73 112.05 1.677 3.1274 23.266-9.3972-0.66475-1.6619z"/>
  <path d="m118.24 77.564 2.8101 1.3446c10.001-20.471 42.589-71.793 44.992-74.482l-1.3295-1.1935c-9.7144 10.923-40.912 62.925-46.472 74.331"/>
  <path d="m155.07 135.92c20.834 2.3568 109.19 20.773 114.05 22.753l0.66475-1.6619c-4.8799-1.9792-94.123-21.771-115.02-24.127z"/>
  <path d="m2.535 114.05 0.07555 1.7827c8.0828-0.34749 55.114 2.1604 75.782 4.5475l1.2691-3.49c-20.728-2.3871-68.998-3.1878-77.126-2.8403"/>
  <path d="m132.31 185.49c8.6569 19.036 55.038 113.39 58.755 117.8l1.3597-1.1482c-3.354-3.9885-48.059-97.885-57.35-118.31z"/>
  <path d="m43.174 281.58 1.7827 0.0756c0.24173-5.5144 20.426-76.537 26.892-96.329l-2.9763-0.9367c-6.4964 19.852-25.457 91.6-25.699 97.19"/>
  <path d="m49.715 133.58c-1.5561 30.835 13.144 57.713 45.989 65.206 1.3295 0.30217 8.0374 8.0828 11.966 12.404 7.3425 8.0526 8.6871 10.334 10.681 10.666 4.2151 0.71007 7.6295 1.964 9.6993 0.15108 3.3993-2.9612 3.8979-10.545 3.7317-15.879-0.15108-4.7741-0.28706-9.2763 2.2964-10.409 6.6324-2.9158 13.204-6.3907 17.223-11.618 4.3813-5.6806 21.091 1.8281 30.684 6.2094 7.8713 3.5957 10.591 6.6777 11.527 5.2727 1.0576-1.6014 5.0461-7.8713 6.164-10.681 0.0605-0.15107-1.541-3.6561-17.42-19.066-6.1792-5.9828-11.905-13.114-12.721-14.625 0.74028-3.5202 1.4201-14.912 1.4201-16.09 0-16.453-6.3605-31.319-17.163-43.254-10.591-11.724-24.007-18.538-39.326-19.308-33.056-1.677-62.97 25.865-64.753 61.021"/>
 </g>
 <path d="m119.74 219.37c-1.4806-0.27195-7.6446-7.0403-11.724-11.512-6.0885-6.6777-9.926-10.681-11.769-11.255-28.116-8.4907-45.807-33.147-44.297-62.91 1.7072-33.933 28.992-60.22 60.825-58.619 14.715 0.75541 28.448 7.3727 38.631 18.643 11.165 12.358 16.845 28.615 15.969 45.807-0.18129 3.6259-0.66475 7.2367-1.4353 10.757-0.0151 0.0906-0.0302 0.1813-0.0302 0.27195 0 1.0576 1.5863 3.0216 14.73 16.815 6.1641 6.4813 13.733 14.443 14.73 16.181-1.0576 2.4928-3.2331 6.4058-4.2907 8.0979-1.2086-0.1964-4.8799-1.8734-8.1734-3.3691-11.573-5.2878-29.083-13.265-34.552-6.1792-3.777 4.9252-8.8835 8.808-15.168 11.573-3.9583 1.7374-3.8072 6.9799-3.641 12.525 0.15108 4.8044 0.30216 9.7749-2.2964 12.041-1.541 1.3446-4.0036 1.7223-7.5087 1.1331" fill="#ffe100"/>
 <g fill="#f9be00">
  <path d="m101.02 200.42c1.8734 1.8734 4.1849 4.3662 6.995 7.4331 4.0791 4.4871 10.243 11.255 11.724 11.527 3.5202 0.58921 5.9677 0.21152 7.5087-1.1331 2.5986-2.2662 2.4475-7.2367 2.2964-12.041-0.0151-0.90648-0.0453-1.7978-0.0605-2.6741-9.654 0.55899-19.232-0.10579-28.463-3.1122"/>
  <path d="m112.77 75.088c-8.808-0.43813-17.268 1.254-24.928 4.6533-4.8346 7.418-8.5058 15.395-10.545 24.188 8.3245-14.791 24.324-24.218 40.988-28.282-1.8281-0.27194-3.6561-0.46835-5.5144-0.55899"/>
  <path d="m166.01 122.41c-1.4202-6.6626-3.8676-12.993-7.3123-18.779-16.558 0.27193-33.011 3.082-46.82 12.57 24.475-6.149 42.046-0.86114 54.132 6.2094"/>
  <path d="m180.63 167.38c-9.2008-9.6691-12.736-13.522-14.035-15.335-15.576-1.7374-31.606-4.8195-46.91-5.7108 22.994 6.9799 24.747 29.838 20.622 43.375 3.1123-2.1756 5.8166-4.6986 8.0526-7.5993 5.454-7.1008 22.964 0.89137 34.552 6.1792 3.2936 1.4957 6.9497 3.1576 8.1583 3.3691 1.0727-1.6921 3.2331-5.6051 4.2907-8.0979-0.99714-1.7525-8.5662-9.6993-14.73-16.181"/>
  <path d="m79.242 188.74c2.5533 1.6619 5.2576 3.1576 8.113 4.4871-5.9979-12.177-7.8259-26.651-7.8259-40.202-6.1187 15.048-3.913 24.671-0.28706 35.715"/>
 </g>
 <path d="m69.246 77.193c-3.7619 3.1274-3.1727 20.048-2.6439 22.148 0.10579 0.46835 0.42302 0.84605 0.87626 1.0425 1.4504 0.64965 4.2453-0.58922 11.391-4.3813 1.8885-0.99712 4.0036-2.1151 4.5928-2.2662 1.3144-0.33237 1.8885-1.7072 2.7648-3.7921 1.3295-3.1425 3.3086-7.8713 8.8986-12.479 0.98203-0.80072 0.92159-1.6166 0.80072-2.0245-0.49856-1.7374-4.5626-3.1274-11.391-4.0036l-2.5835-0.36258c-3.5504-0.71008-10.379 4.1698-12.706 6.1187" fill="#0f141b"/>
 <path d="m68.601 96.211c0-4.9554 0.87627-14.836 3.0065-16.604 3.5655-2.9763 8.8986-6.0281 10.832-5.6504l2.7497 0.39281c1.9489 0.25683 6.7986 0.87626 8.2792 1.6166-5.8166 4.895-7.9921 10.017-9.2914 13.114-0.43814 1.0274-0.98203 2.3266-1.2842 2.5079-0.81583 0.21151-2.3871 1.0273-5.0612 2.4475-2.6892 1.4353-7.4634 3.9583-9.1404 4.2302-0.06049-0.49857-0.09061-1.1482-0.09061-2.0547" fill="#ffe100"/>
 <path d="m56.089 126.24c-2.523 0.40792-13.794 6.9648-15.153 11.558-0.96692 3.2482-2.4173 11.361-0.3777 14.307 1.1029 1.6166 9.6842 8.4303 12.358 7.2216 0.30216-0.13597 1.254-0.69497 0.87626-2.236-0.55899-2.1756 0.98203-5.4691 2.2058-8.1281 1.0425-2.2058 1.7827-3.8072 1.5863-5.0159-0.09061-0.58921 0.10579-2.9914 0.27194-5.1065 0.67986-8.0677 0.71008-11.119-0.46835-12.207-0.36258-0.33237-0.81583-0.46834-1.2993-0.39281" fill="#0f141b"/>
 <path d="m42.39 150.85c-0.43813-0.63453-0.63454-1.9489-0.63454-3.5655 0-2.6892 0.52879-6.2094 1.3144-8.8533 0.96692-3.2633 10.168-8.8684 12.842-9.8051 0.12085 0.46835 0.1964 1.1633 0.1964 2.1151 0 2.3568-0.28704 5.7562-0.46835 7.9166-0.18129 2.2511-0.31726 3.7921-0.31726 4.7892 0 0.3626 0.01506 0.63455 0.06049 0.86117v0.0755c0 0.63455-0.80072 2.3569-1.405 3.641-1.1482 2.4777-2.5381 5.454-2.5381 8.0828 0 0.3626 0.06049 0.69497 0.12085 1.0425-2.0547-0.60433-7.9921-4.5928-9.1706-6.3" fill="#ffe100"/>
 <path d="m122.22 130.4c-1.4655 1.1935-1.964 5.8317-2.4626 15.138l-0.24173 3.6259c-0.18129 1.1784 1.118 1.677 3.0216 2.5532 7.69 3.5655 19.61 7.3425 34.099 10.999 25.895 6.5418 26.273 4.064 26.802 3.3087 1.6317-2.3871 4.2907-14.186 2.9612-18.613-0.31727-1.0878-2.2058-4.5475-32.739-11.83-15.063-3.6108-29.053-5.3482-30.186-5.5295z" fill="#0f141b"/>
 <path d="m121.74 149.35c0 0.0604 0 0.10579-0.0151 0.16618 0 0 0.0151-0.15107 0.0151-0.16618" fill="#0f141b"/>
 <path d="m121.99 145.66c0.1662-3.2784 0.63454-11.694 1.5561-13.325 6.5418 1.2086 57.818 12.358 60.734 15.818 0.18131 0.63453 0.25684 1.4655 0.25684 2.4475 0 4.5475-1.677 11.86-2.8101 13.884-4.895 0.55899-55.19-12.494-59.964-15.546 0.0605-0.86116 0.22662-3.2784 0.22662-3.2784" fill="#ffe100"/>
 <path d="m62.271 155.93c-4.7741 5.8166-10.53 22.692-8.4303 27.058l1.0576 2.3266c2.523 5.6202 4.6533 9.9713 7.1763 10.576 2.7799 0.64964 14.625-3.8223 16.679-6.3 0.66476-0.83093 0.51368-1.5108 0.36259-1.8583-2.9461-6.5115-2.8856-11.603-2.8403-14.972 0.03025-2.3266 0.0453-3.8526-1.0122-4.6986-0.46835-0.37769-1.9338-2.2813-3.218-3.9734-4.9101-6.4058-6.9346-8.7022-8.536-8.7173-0.49857-0.0151-0.9367 0.18129-1.2389 0.55899" fill="#0f141b"/>
 <path d="m62.585 193.72c-1.6468-0.3928-4.2454-6.1943-5.6504-9.3065l-1.0878-2.3871c-0.16619-0.36259-0.24173-0.90647-0.24173-1.6014 0-4.9403 4.0641-17.374 8.0979-22.647 1.3748 0.90647 4.7137 5.2425 6.572 7.6748 1.8583 2.4324 2.9461 3.8374 3.5957 4.3511l-0.01506-0.0151c0.16619 0.21151 0.19641 1.0727 0.19641 1.9792v0.9669c-0.01506 0.42304-0.01506 0.87628-0.01506 1.3597 0 3.3389 0.31726 8.249 2.8856 14.156-1.3597 1.7072-12.343 5.9374-14.337 5.4691" fill="#ffe100"/>
 <path d="m109.46 97.502c-0.0756 0.25684-0.22662 1.1482-0.22662 2.4173 0 3.0216 0.60432 8.0677 3.1576 11.059 1.5108 1.7525 4.3058 3.5202 9.095 1.9943 9.926-3.1576 29.34-2.8252 38.676-2.6741l3.777 0.0453c1.3295 0 2.8403-1.1482 4.6382-3.5353 3.4748-4.6079 8.0979-14.262 7.131-17.676-1.118-3.9432-8.4756-11.452-11.346-13.023-12.358-6.7684-52.395 13.25-54.902 21.393" fill="#0f141b"/>
 <path d="m163.53 78.179c2.2662 0.90649 9.0497 8.0828 10.032 11.573 0.57411 1.9791-2.9007 10.591-6.7533 15.712-1.9791 2.6288-2.8554 2.659-2.8705 2.659l-3.7317-0.0605c-9.4576-0.15107-29.128-0.48346-39.387 2.7799-2.6288 0.83094-4.6533 0.58921-6.1641-0.75539-2.7346-2.4173-3.1878-7.7353-3.1878-10.349 0-0.66475 0.0302-1.1029 0.0605-1.3295 2.9461-5.3633 39.764-25.125 52.002-20.23" fill="#ffe100"/>
 <path d="m109.46 97.504" fill="#0f141b"/>
 <path d="m98.182 165.75c-2.0698 0.63454-6.1188 2.4173-6.4511 3.6259-0.07555 0.28704-0.12085 0.63452-0.12085 1.0424 0 9.1252 20.834 43.798 33.449 48.421 3.4446 1.2691 9.2914-1.4806 12.207-3.3087 3.6561-2.2964 3.1878-17.132 3.1576-17.767-0.19641-5.8166-0.9518-6.2245-1.4504-6.4813-9.0799-4.8497-22.647-16.362-32.059-24.596-1.9791-1.7374-5.0008-2.0698-8.7324-0.9367" fill="#0f141b"/>
 <path d="m105.45 168.37c9.4123 8.2339 22.934 19.701 32.225 24.732 0.3626 0.81584 0.55901 3.3842 0.55901 6.4813 0 5.7259-0.66476 13.129-2.1604 14.066-3.3842 2.1302-8.1583 3.8828-10.258 3.1122-12.343-4.5324-31.999-39.296-31.999-46.185 0-0.13598 0.03024-0.24173 0.0453-0.3626 1.2691-0.9518 8.3396-4.6835 11.588-1.8432" fill="#ffe100"/>
 <g fill="#f9be00">
  <path d="m85.183 74.354-2.7497-0.39281c-0.36259-0.07555-0.83094-0.03024-1.3899 0.12085-1.813 6.4662-3.1274 13.25-3.1576 19.927 2.6439-1.405 4.2-2.2209 5.0007-2.4324 0.30216-0.18129 0.84605-1.4655 1.2842-2.5079 1.2993-3.082 3.4748-8.2188 9.2914-13.099-1.4806-0.7403-6.3303-1.3597-8.2792-1.6166"/>
  <path d="m55.327 143.45c0-0.84606 0.09061-2.1151 0.24173-3.8677-5.5446 2.372-10.017 5.9677-13.537 10.44 0.10579 0.33238 0.21152 0.61943 0.36259 0.83094 1.1633 1.7072 7.1008 5.6957 9.1706 6.3-0.06049-0.34748-0.12085-0.67986-0.12085-1.0424 0-2.6288 1.3899-5.6051 2.5381-8.0828 0.58921-1.2842 1.405-3.0065 1.405-3.641 0-0.0302 0-0.0605-0.01506-0.0755-0.03025-0.22662-0.0453-0.49855-0.0453-0.86114"/>
  <path d="m74.034 174.09c0-0.48345 0-0.9518 0.01506-1.3597v-0.98203c0-0.89137-0.03025-1.7525-0.1964-1.964-0.64964-0.52877-1.7223-1.9187-3.5806-4.336-0.48346-0.63454-1.0727-1.405-1.7072-2.2209-4.1245 9.3518-6.0583 17.148-6.1036 30.428 0.0453 0.0151 0.07555 0.0453 0.12085 0.0604 1.9943 0.46835 12.978-3.7619 14.353-5.4691-2.5835-5.9072-2.9007-10.817-2.9007-14.156"/>
  <path d="m73.852 169.79s0.01506 0.0151 0.01506 0.0151z"/>
  <path d="m115.9 110.89c1.3295 0.58921 2.9612 0.5741 4.9252-0.0605 10.273-3.2633 29.929-2.9309 39.387-2.7648l3.7468 0.0453s0.87627-0.0302 2.8554-2.659c3.3691-4.472 6.436-11.603 6.7835-14.655-20.169 1.5259-41.411 7.6144-57.697 20.094"/>
  <path d="m136.94 212.15c0.87627-2.6439 1.2842-8.113 1.2842-12.57 0-3.0971-0.1964-5.6655-0.55899-6.4813-8.3245-4.5173-22.088-16.785-31.213-24.671 5.3633 15.984 17.631 33.192 30.488 43.723"/>
 </g>
 <g fill="#0f141b">
  <path d="m91.739 169.37"/>
  <path d="m118.24 107.68 0.84605 1.7828c15.002-11.165 47.892-18.809 54.51-19.157l-0.0605-1.118c-13.733 0.09061-40.127 7.2065-55.295 18.492"/>
  <path d="m102.9 166.26c1.6921 5.9223 17.979 36.138 34.144 46.91l0.61943-0.92158c-15.924-10.621-31.002-40.686-32.679-46.533z"/>
  <path d="m62.1 194.93 1.0576-0.1964c-1.7223-8.8835 2.659-29.823 6.3-33.872l-1.7072-0.74029c-5.8468 9.4878-7.4482 25.487-5.6504 34.809"/>
  <path d="m76.963 94.021 1.9187-0.10579c-1.0727-5.7259 2.2813-17.238 3.7317-20.653l-0.98201-0.42302c-1.541 3.6108-5.8015 15.153-4.6684 21.181"/>
  <path d="m41.038 151 1.6166 1.0273c1.6619-3.9885 8.4756-8.808 12.978-10.409l-0.36258-1.0122c-3.7921 1.3446-12.253 5.6504-14.232 10.394"/>
  <path d="m50.742 129.87c-0.60432 12.026 4.2453 24.324 11.845 32.739 6.5569 7.2518 15.259 12.177 24.52 12.645 20.773 1.0424 39.779-17.208 40.958-40.489 1.1633-23.281-14.866-43.164-36.697-44.644-20.743-1.405-39.447 16.468-40.625 39.749"/>
 </g>
 <path d="m87.197 172.79c-8.7777-0.43814-17.057-4.4871-23.281-11.376-7.2972-8.0677-11.135-19.323-10.56-30.881 1.1331-22.299 18.145-39.628 37.921-38.631 19.791 1.0122 34.96 19.958 33.842 42.257-1.1331 22.299-18.13 39.628-37.921 38.631" fill="#ffe100"/>
 <path d="m49.631 128.65c-1.0122 20.048 15.048 38.042 33.917 38.994 8.7626 0.43813 17.48-2.8705 23.961-8.7324 7.0705-6.3907 11.376-13.522 12.086-25.623 0.69497-12.102-3.082-19.746-9.518-26.877-5.877-6.4964-14.202-10.636-22.904-11.074-19.202-0.96692-36.546 13.522-37.543 33.313" fill="#0f141b"/>
 <path d="m83.666 165.09c-17.646-0.89137-31.228-16.936-30.276-35.761 0.93668-18.538 15.727-32.361 33.676-31.455 8.0979 0.40791 15.561 3.9734 21.03 10.017 6.0583 6.6928 9.1101 15.667 8.6267 25.276-0.48344 9.5331-4.3964 18.084-11.029 24.082-6.0432 5.4691-13.869 8.249-22.027 7.841" fill="#ba0031"/>
 <path d="m116.02 123.73c-13.627-0.21152-41.638 29.657-35.428 41.048 1.0122 0.15109 2.0396 0.25684 3.082 0.31727 8.1583 0.40792 15.984-2.372 22.027-7.841 6.6324-5.9979 10.545-14.549 11.029-24.082 0.16618-3.2482-0.0906-6.4058-0.71008-9.4425" fill="#d7063a"/>
 <path d="m94.529 99.203c-2.4022-0.7403-4.9101-1.1935-7.4633-1.3144-17.948-0.90648-32.739 12.902-33.676 31.455-0.43813 8.6116 2.1755 16.649 6.8439 22.919 23.009-1.677 40.746-28.72 34.295-53.059" fill="#990024"/>
 <path d="m80.138 125.54c-3.8979 7.8562-11.83 11.845-17.722 8.9288-5.8921-2.931-7.5087-11.663-3.6108-19.52 3.8979-7.8562 11.845-11.845 17.722-8.9137 5.8921 2.9158 7.5087 11.648 3.6108 19.504" fill="#e9988e"/>
 <path d="m66.906 133.31c0 3.8676-2.4022 7.0101-5.3633 7.0101-2.9763 0-5.3785-3.1425-5.3785-7.0101s2.4022-7.0101 5.3785-7.0101c2.9612 0 5.3633 3.1425 5.3633 7.0101" fill="#fff"/>
</svg>
