<?xml version="1.0" encoding="UTF-8"?>
<!-- Created with Inkscape (http://www.inkscape.org/) -->
<svg version="1.1" viewBox="0 0 172.82 304.97" xmlns="http://www.w3.org/2000/svg">
 <g transform="translate(-21.122 -1.7901)">
  <path d="m55.522 130.12c-3.688 6.3082-5.2638 17.367 4.2189 23.675-3.688 8.4177-4.5542 23.597-3.0566 26.613 2.9951 5.9931 6.525 7.1559 10.409 10.744 0 0-8.4177 18.412 7.8851 46.286-1.0449 18.412 11.591 63.653 22.631 66.807 11.039 3.1739 41.042-18.628 58.193-43.743 16.066-0.0559 44.393-42.008 32.29-113.55 6.3082-11.571 6.8402-14.213-5.2638-21.034 4.1574-9.029 7.5308-14.292 6.3674-18.865-1.4976-5.9931-9.7778-10.724-24.247-20.6 4.515-9.3441 8.1215-17.683 7.2146-27.342-0.67055-7.1755-5.3421-20.896-18.195-32.526-25.726-23.261-56.951-26.317-73.727-22.197-50.308 12.38-66.413 74.003-52.082 98.9 9.9946 17.367 27.362 26.829 27.362 26.829" fill="#f0e800"/>
  <g fill="#f8f397">
   <path d="m80.248 4.3836c-50.308 12.38-66.413 74.022-52.082 98.9 6.2093 10.783 10.763 14.785 16.716 19.102 6.2691 3.3695 27.835 10.98 41.555 12.596-33.374-44.985-22.355-122.4-6.1898-130.6"/>
   <path d="m77.362 141.98c-1.6931-2.6431-3.8054-5.0459-4.6324-6.3674-4.2189-1.0058-4.8503-0.2794-13.622-3.6489-1.9502 3.5874-3.2298 10.389 0.33527 15.809 4.99 1.0449 11.059-1.045 17.9-5.7952"/>
   <path d="m72.239 135.58c10.034 13.779 18.352 19.338 22.512 20.265-2.2855-2.6431-6.9195-11.295-9.0089-19.713-4.001 0-13.503-0.55879-13.503-0.55879"/>
  </g>
  <path d="m66.897 190.96c1.8943-3.5092 9.856-10.842 12.715-12.321 0-3.8054 0.44704-3.7048 1.4584-9.9353-3.7439 6.9788-11.808 15.041-15.277 15.632-3.4478 0.56997-6.3674-1.4752-7.6488-2.129 4.61 5.7567 5.0682 5.3812 8.7529 8.7529" fill="#cec900"/>
  <path d="m71.91 232.42c1.0841 1.9893 1.9502 2.6431 3.2354 4.1015 1.2629-7.7276 10.586-27.539 13.424-29.018-0.74879-1.6931-0.0559-0.90525-1.559-3.4478-5.7561 5.1856-15.691 16.125-15.1 28.367" fill="#cec900"/>
  <path d="m104.75 230.08c-3.5092-11.178-10.744-42.166-11.67-74.752-2.9169-0.84937-5.1856-2.6207-8.0036-5.4203-3.0342 8.8513-6.5049 34.419-5.4985 40.077 1.0617 6.0126 21.093 39.504 25.174 40.096" fill="#f8f397"/>
  <path d="m103.51 229.77c-3.3528-3.4701-13.05-19.082-14.982-22.946-3.1348 3.8668-12.34 16.953-13.542 30.615-1.0449 18.412 12.064 65.053 23.103 68.207-5.0682-21.901-1.8328-58.666 5.4203-75.875" fill="#f8f397"/>
  <path d="m190.07 157.41c-0.22352-1.302-1.7546-9.1273-1.9725-10.448 4.4536-8.1813 6.0322-11.907 2.2855-15.79-1.3188 5.9729-13.602 22.256-25.568 28.229-11.966 5.9729-17.604 8.9692-23.912 6.6429-6.3278-2.3246-12.301-17.268-12.971-20.935-0.6482-3.6489 9.9158-1.0449 19.614-2.9784 8.9893-1.6373 28.958-11.158 35.563-16.796 3.3695-7.0576 7.2934-11.316 5.1856-17.17-7.5308 8.378-21.685 16.776-28.466 19.673-6.781 2.9001-10.625 5.6578-25.252 4.9844-5.9735-9.3045 24.7-36.823 36.489-41.752-0.67055-0.44704-5.4035-4.1407-6.111-4.61 3.2354-6.6826 5.9925-12.853 6.9586-19.338 0.39116-2.604-2.1681-1.0226-8.0628 9.7381-3.9618 7.2146-9.9354 14.844-17.308 21.408-18.826 16.776-30.22 27.283-59.356 36.41-0.86612 0.2794-0.77113 2.129-0.77113 2.129s16.598-1.3188 10.211 17.367c4.2189 0.2794 9.2849-7.9047 13.7-6.0713 10.31 11.295 18.609 22.433 18.609 30.89 0.96672 16.48-22.433 47.272-25.449 50.288 3.6489 1.872 21.704-18.136 24.779-15.731 15.12 11.848 7.9835 62.806-13.957 86.382 21.94-14.272 35.602-30.831 41.476-39.426 5.3421-0.0397 12.005-4.6715 18.116-13.464-5.7561 1.7323-4.8894 0.59232-14.193-27.993 15.968-13.956 9.7778-44.058 10.763-45.024 5.7958-9.4229 15.278-17.288 19.595-16.618" fill="#cec900"/>
  <g fill="#0f141b">
   <path d="m64.819 200.58c1.0673 11.71 5.3644 20.561 12.774 26.336 0.33528 0.27939 1.397-1.6764 1.397-1.6764-7.5694-5.4203-12.32-18.747-13.385-30.417z"/>
   <path d="m164.01 171.39c0.0559 0.27939 5.5209 21.349-14.174 45.99l0.55879 2.3246c21.783-22.414 15.573-48.533 15.494-48.79z"/>
   <path d="m130.87 196.75c15.415 7.195 30.456 45.517 29.451 51.569-1.0058 5.9338-8.0232 15.002-8.0824 15.061l3.8054-1.3802c0.22351-0.27939 5.1241-5.9925 6.2099-12.537 1.0617-6.4462-14.075-46.779-30.555-54.467z"/>
   <path d="m77.047 179.38c-3.0734 2.3246-6.9 5.2247-10.763 11.236 0 0-1.6764 7.6292 0.39116 2.4643 2.0508-5.1632 8.5954-9.9158 11.532-12.163l2.129-1.654-1.2405-1.4808z"/>
   <path d="m153.7 176.45c-7.1956-0.84936-13.011-4.4759-16.717-6.8994-1.4417-0.94436-4.6715-2.9392-5.4426-3.2354l1.4808 3.1125c0.59232 0.22352 1.6764 0.9276 2.9001 1.7323 3.8445 2.5257 10.507 7.2347 18.156 8.1416 7.6879 0.90525 30.18-24.168 34.872-31.895 4.7106-7.7276 0.11176-4.2189 0.11176-4.2189-4.515 8.4568-29.451 33.946-35.345 33.256"/>
   <path d="m150.33 139.24c-12.636 2.2464-20.087-0.84936-29.274-4.0401l-3.688-1.2629 0.82702 1.7714c9.5017 3.3136 20.423 9.2452 32.664 6.0126 15.436-4.0792 26.001-10.547 31.107-14.864 2.0899-1.7714 1.1232-3.6657 0.5588-3.174-7.1358 6.0121-28.327 14.863-32.191 15.553"/>
   <path d="m53.906 144.57-0.55879 1.9725c4.7889 6.8597 17.446 0.22351 20.028-1.3411 2.5649-1.5367 2.861-2.5034 0.60909-1.5367-9.699 4.1183-17.111 5.1465-20.088 0.90525"/>
   <path d="m151.46 130.26c-14.43 5.1074-27.381 0.44703-30.674 0.33528-3.2913-0.11176-2.3637 0.84936 1.2629 1.6931 7.708 1.8328 18.116 4.258 30.102-0.22352 14.844-5.5376 30.417-15.021 37.12-22.847l-0.60908-2.4866c-6.4071 7.4912-25.351 19.339-37.198 23.518"/>
   <path d="m116.01 130.54c2.9392 20.245 12.36 33.591 18.254 42.343 2.386 3.5707 3.6489 5.4818 3.8221 6.8799-0.27939 4.2971-5.9534 16.027-15.475 28.604-9.9158 13.09-17.249 20.127-18.826 20.265-3.3136-2.1681-19.082-30.121-22.67-37.888-0.5588-1.1623-0.74878-3.0957-0.74878-5.4818 0-10.724 4.4368-30.969 5.56-35.444l-1.8943-0.44704c-0.0559 0.33528-8.5356 34.714-4.9453 42.501 3.0175 6.5446 19.477 35.838 23.577 38.184 0.90524 0.50291 1.8552 0.68731 3.3304-0.22352 7.5504-4.6324 34.163-39.012 34.656-49.125l0.0196-0.0559-0.0196-0.0559c-0.16763-1.872-2.0116-4.5933-4.7888-8.7328-5.7757-8.6144-15.475-23.064-18.352-42.876z"/>
   <path d="m93.937 154.02c-2.861 1.7937-15.337-11.454-19.733-17.624l-3.3919-0.81025c0.16764 0.22351 18.688 24.503 24.385 20.935 4.515-2.8219 20.186-20.659 25.528-32.428l-2.956 1.4193c-5.2415 11.532-19.929 26.06-23.833 28.505"/>
   <path d="m102.36 224.34c1.1232 3.4869 2.4028 4.001 1.8552 1.4417-4.733-22.374-10.389-58.626-9.8566-71.42l-1.9334-0.0559c-0.55879 12.912 2.7213 47.666 9.9353 70.06"/>
   <path d="m76.661 258.33 0.94436 1.397c2.3637-14.686 15.021-23.952 29.964-22.631 9.3045 0.81025 19.26 5.6572 26.081 13.917 6.1702 7.4906 8.8312 17.742 7.9639 26.218l1.2238-1.8328c0.9276-8.9888-0.16764-17.347-6.6826-25.232-7.1363-8.6345-18.668-14.923-28.465-15.79-16.027-1.4193-28.486 8.2008-31.028 23.952"/>
   <path d="m82.346 278.33c-0.2794 0.82701 0.50291 3.2913 0.86613 2.1514 1.8105-5.7958 8.1019-15.751 22.236-13.582 8.0036 1.2238 18.668 11.867 17.623 26.751l1.8161-1.4584c0.92759-17.998-11.453-25.883-20.048-27.125-13.622-1.9725-20.738 7.5895-22.493 13.267"/>
   <path d="m169.97 250.22c-4.828 5.7366-9.9946 9.048-14.174 9.0681h-0.6482l-0.33528 0.5588c-17.505 25.646-46.878 46.109-56.852 43.27-11.197-3.1963-22.099-47.745-22.02-63.929 0.0559-11.591 9.6794-26.179 13.109-30.969 0.39115-0.50291-0.56997-2.4252-0.56997-2.4252-4.9677 4.9453-11.867 16.776-13.977 28.269-13.681-25.45-6.7418-43.172-6.663-43.349 0 0-5.5768-3.1125-8.7133-9.2452-3.174-6.1702 0.16763-21.29 1.397-26.278 5.6578 1.3579 16.539-8.0623 18.806-10.132l-1.2796-1.4417c-5.6773 5.1074-12.695 9.7386-16.263 9.7973-3.6266 0.0397-7.8063-5.1074-7.6683-13.247 0.0391-3.1963 0.88848-6.1903 1.9111-8.3584 8.3383 3.906 16.795 5.5209 25.114 5.4426 32.25-0.2794 67.103-27.027 84.529-48.337 21.408 14.628 22.847 17.111 22.946 20.58 0.11176 3.8668-6.8603 14.43-9.0284 16.362-2.1458 1.9334 2.1122 0.74878 2.1122 0.74878 12.281 6.9586 11.315 8.8708 5.3644 19.791l-0.22352 0.39115 0.0559 0.39116c8.6149 50.879-3.0957 86.599-16.933 103.06m-140.75-147.53c-7.1559-12.419-6.3669-33.808 1.9334-53.245 5.6578-13.247 19.595-36.568 49.381-43.881 18.333-4.515 48.849 0.44704 72.623 21.921 11.986 10.842 17.071 23.873 17.8 31.738 3.2131 34.636-53.402 74.988-89.812 75.442-8.2595 0.11176-16.717-1.4193-25.114-5.1465-3.4478-2.1681-18.254-11.966-26.81-26.829m164.7 33.453c0-3.7663-3.431-7.4515-9.9158-11.217 1.7155-2.1066 6.9586-11.808 6.9586-15.061 0-6.1898-5.56-10.822-23.557-23.222 5.5209-7.2744 7.8063-15.357 7.8063-23.715 0-1.0058-0.0391-2.0284-0.11176-3.0734-0.77114-8.2992-6.0914-22-18.589-33.315-28.052-25.371-61.938-26.928-76.526-23.321-30.811 7.57-45.202 31.62-51.037 45.281-4.6324 10.842-7.8259 22.315-7.8259 32.625 0 8.792 1.7155 16.756 5.1632 22.769 8.7915 15.258 23.754 24.385 27.677 26.711-1.4193 2.7772-2.8387 8.3584-2.8387 12.045 0 4.8671 2.1849 7.846 7.1755 11.552-3.7663 9.8364-5.4203 24.069-1.3579 29.135 3.3919 4.2412 8.003 7.5107 8.7328 8.1612-0.63144 1.7323-2.1681 10.113-2.1681 16.717 0 8.1612 2.2687 15.691 10.29 29.51-1.0449 22.256 13.523 65.94 23.163 68.7 11.848 3.3695 42.817-20.285 59.888-45.005 4.828-0.33527 10.073-2.4252 15.199-8.516 10.842-12.892 20.679-36.055 20.679-69.922 0-10.31-1.3411-23.813-3.3528-35.818 2.7213-5.0068 4.5709-8.1221 4.5709-11.02"/>
   <path d="m120.82 118.28c-17.19 10.803-32.408 15.613-35.306 15.613-9.561 0-37.987-10.803-41.732-13.464l0.33528 2.2296c3.6098 2.5816 30.871 12.833 41.299 12.833 7.5107 0 62.668-20.048 86.796-70.395l-0.33528-3.9227c-12.932 26.967-35.543 47.35-51.056 57.109"/>
   <path d="m23.197 81.567c2.1066 0 7.0766 4.8894 15.494 13.306 9.7381 9.7387 25.252 21.034 21.034 22.611-4.1965 1.5758-13.661 1.2405-19.457-0.50292-18.57-15.416-17.071-35.405-17.071-35.405"/>
   <path d="m121.28 66.462c-14.726 7.8851-25.785 42.619-19.457 44.197 6.3082 1.5758 36.292-14.213 43.665-23.144 7.3526-8.9496 2.0899-16.322-5.7958-20.008-7.8851-3.6657-12.596-4.1574-18.412-1.0449"/>
  </g>
  <path d="m118.09 99.305c-1.9111 5.8349-10.034 8.8513-14.253 7.6683-2.4252-0.67055-2.6599-3.0175 0-11.178 1.9111-5.8349 6.0322-9.8169 10.25-8.654 4.1965 1.1846 5.8942 6.3283 4.001 12.163" fill="#fff"/>
  <path d="m50.083 107.31c5.5376 5.5768 5.5209 6.525 4.3195 7.7074-2.2296 2.2072-6.7022 1.302-10.014-2.0508-3.3136-3.3304-4.7106-7.4716-2.481-9.6794 1.1623-1.1455 3.0566-1.1623 8.1813 4.0233" fill="#fff"/>
 </g>
</svg>
