<?xml version="1.0" encoding="UTF-8"?>
<svg version="1.1" viewBox="0 0 334.37 438.9" xmlns="http://www.w3.org/2000/svg">
 <g transform="translate(.02774 -.04053)">
  <path d="m180.15 128.55q-5.2-5.2-6.45-9.2l-0.2-2.95q6.6-15.35 18.95-17.1 7-0.95 17.3 3-5.3 8.65-11.65 16.25-12.75 15.2-17.95 10" fill="#00b7de"/>
  <path d="m178.8 107.35q5.75-2.1 12.65-0.9 5.6 0.95 12.65 4.3-6.9 9.7-12.45 14.6-7.75 6.95-11.5 3.2-5.2-5.2-6.45-9.2l-0.2-2.95q2.25-5.2 5.3-9.05" fill="#00a0c2"/>
  <path d="m211.4 102.05-2.2 1.45q-5.95-2.3-13-2.6-6.4-0.3-9.3 1-2.4 1.1-6.4 5.65-4.3 4.95-6.15 9.2l-1.25-1.85q2-4.45 6.15-9.35 4.05-4.85 6.6-5.95 2.7-1.15 9.4-0.85 8.35 0.35 16.15 3.3" fill="#0d131a"/>
  <path d="m310.25 152.8 9.45-3.3q-1.25 3.45-7.9 7.9-0.45 0.3-0.85 0l-0.35-0.3-0.35-4.3" fill="#fff"/>
  <path d="m319.7 149.5q-0.55 1.6-2.8 3.85-3.45 0.3-6.5 1.4l-0.15-1.95 9.45-3.3" fill="#dbdcdc"/>
  <path d="m16.35 236.6q1.1-14.3 5.6-27.05 4-11.3 9.25-17.85 0.2 10.55 1.7 19.95 1.15 7.65 2.85 12.65l24.95 49.7-27.6 29.6q-19.55-30.45-16.75-67" fill="#00b7de"/>
  <path d="m35.4 223.25 0.35 1.05 24.95 49.7-27.6 29.6q-15.7-24.45-17-53.45-1-23.45 7-43.75-0.85 9.25-0.85 12.8-0.05 7.2 2 6.35 3.35-1.4 6.6-1.9l4.55-0.4" fill="#00a0c2"/>
  <path d="m45.05 207.45 1.7 10.8q3.15-4.45 6.45-8.75 6.65-8.5 7.6-7.55t-1.35 19.7l-2.45 18.6 9.1-4.6q9.1-4.25 9.1-2.6 0 2.65-14.8 28.05l-12.1 9.9q-9.55-9.55-14.5-25.9-3.15-10.3-3.75-19.65-0.2-3.8 5.65-16.15 5.55-11.7 6.75-12.2 0.8-0.35 2.6 10.35" fill="#e85377"/>
  <g fill="#f3b2c1">
   <path d="m46.75 218.25-2.3 4.3q-1.95 2.85-4.15 3.05l1.15-17.6q0.55-10.95 0.65-11 0.75-0.35 2.8 10.4l1.85 10.85"/>
   <path d="m57 240.25-2.4 1.6-5.65 3.95 7.2-27.35q4.35-16.8 4.65-16.5 0.95 0.95-1.35 19.7l-2.45 18.6"/>
   <path d="m73.35 232.85 1.55-0.35q0.3 0.05 0.3 0.55 0 2.65-14.8 28.05l-12.1 9.9-0.55-0.55q13.15-16.4 25.6-37.6"/>
  </g>
  <path d="m70.75 259.05-20.8 20.7-1.8-2.8q-1.1-1.55-1.05-2.6 0.2-6.45 9.35-11.6 8.55-4.85 14.3-3.7" fill="#00b7de"/>
  <path d="m47.1 274.35q0.05-3.45 3.15-6.85 2.7-2.95 7.15-5.3l2.95 7.2-10.4 10.35-1.8-2.8q-1.1-1.55-1.05-2.6" fill="#00a0c2"/>
  <path d="m162.1 71.45q1.95-1.15 4.55 1.15 3.05 2.7 13.15 18 10.8 16.5 13.4 23.7l-66.3 19.35-16.65-4-1.65-9.25q-8.45-17.15-9.85-25.7-1.25-7.55 2.65-11.5 3.4-3.45 16.85-2.75 12.65 0.65 18.05 3.5 4.05 2.15 11.15 8.3 3.55 3.1 6.3 5.75l5.3-20.85q1.1-4.55 3.05-5.7" fill="#e85377"/>
  <path d="m129.1 81.75q4.85 0.95 7.2 2.2 5.3 2.85 17.3 13.9l-0.4 4q-0.35 2.1-1 2.65-0.55 0.45-12.05-8.45-14.6-11.25-21.25-15.55 5.35 0.3 10.2 1.25" fill="#f3b2c1"/>
  <path d="m166.65 72.6q3.05 2.7 13.15 18 10.8 16.5 13.4 23.7l-11.85 3.45q0.15-6.25-9.2-27.05-9-20-10.75-18.65 2.2-2.25 5.25 0.55" fill="#f3b2c1"/>
  <path d="m116.2 170.7q1.8 2.05-3.2 11.75-2.5 4.85-5.35 9.3l-17.4-18q-10.8-11.7-12-15.05-0.8-2.3 3.05-2.9l8.75-0.6q4.2-0.35 14.35 6.3 8.75 5.75 11.8 9.2" fill="#e85377"/>
  <path d="m300.45 98.8q3.7 3.05 3.7 13.85-2 1.25-4.55 2-5.05 1.6-7.75-0.55-2.65-2.15-0.6-9.45l2.6-6.9q4.65-0.55 6.6 1.05" fill="#00b7de"/>
  <path d="m293.85 97.75 2.8-0.1q-1.1 4-0.75 8.7 0.35 4.5 2 8.75-3.85 0.75-6.05-1-2.65-2.15-0.6-9.45l2.6-6.9" fill="#00a0c2"/>
  <g fill="#00b7de">
   <path d="m326.45 278.65q0.35-3.9 1.15-7.3 1.55-6.75 3.85-4.15 2.85 3.25 1.75 10.15-1.15 7.05-5.15 7.05l-1.6-5.75"/>
   <path d="m325.6 254.35q2.55 2.15 3.6 4.25 0.85 1.75 1.4 5.4 0.75 4.6 0.1 9.55-0.8 6.45-3.8 7.7l-7.75-8q0.75-5.5 1.9-10.6 2.35-10.2 4.55-8.3"/>
   <path d="m326.1 261.85q0.15 4.55-0.65 8.85-0.95 4.8-2.65 6.1-1.65 1.3-4.35-0.25l-2.35-1.75-2.2-0.5q-5.25 1.25-8.8-1.05l0.2-2.1 0.25-4.3-0.35-3.25-0.4-1.45q-3.55-0.3-9.5-1.85-5.9 1.7-11.1 4.75-4.55 2.7-8.1 3.35l-23.45 0.85q-15.25-0.6-26.3-2.6-4.45-5.45-8.85-13.4-8.8-15.9-8.5-28.45 0.3-11.2 5.45-18.65 2.55-3.75 5.05-5.25l7.95 7.25-4.7 9.4q0.85-0.7 2.75 7.5 1.8 7.75 1.8 9.95 14.65-3.35 44.4 5.65 5.6-2.8 14.45-4.8 11.25-2.55 17.05-0.55 5.15 1.85 8 3.25 3.9 1.95 6.5 4.45l0.3-0.1q2.65 0.8 4.95 5.2 2.9 5.5 3.15 13.75"/>
  </g>
  <path d="m275.85 268.45q-7.55 1.5-24.15 0.7-15.75-0.75-26.1-2.75-4.25-5.4-8.5-13.3-8.4-15.75-8.1-28.3 0.3-11.2 5.45-18.65 2.55-3.75 5.05-5.25l7.95 7.25-2.8 8.85q0.8-0.7 1.7 7.7 0.8 7.25 0.8 10.15 6.5-1.4 16.6-0.3-2.45 6.2 2.75 11.15 4.9 4.75 13 5.2 3.8 0.25 9.2-1l10.15-2.7q13.85-3.5 24.35-1.3 6.1 1.3 6.4 8l-0.15 6q-0.2 3.8 0.25 5.9 0.5 2.45-0.65 2.9-1.2 0.45-3.5-1.85l-1.05-4.85-8.85-1.6q-5.75 1.55-11.3 4.6-5.05 2.8-8.5 3.45" fill="#00a0c2"/>
  <path d="m282.65 241.25q9.8-1.05 17.7 4-8.1 0.85-10.85 6.35-1.95 4-2.65 8.05-0.85 4.85 0.4 8.95 1.45 4.65 2.95 6.5 1.15 1.35 5.2 4.8 0.55 0.5-0.35 1.5l-1.7 1.7-1.6 2.7q-0.8 1.35-1.9 0.95l-3.4-1.2-5.15-1.75q-3.05-1.25-5.2-2.8-4.7-3.4-8-6.8-3.4-3.6-8.5-7.3-4.65-3.4-2.2-9.35 2.25-5.65 9.3-10.4 7.45-5 15.95-5.9" fill="#00b7de"/>
  <path d="m267.15 253.95q1.55 2.6 5.05 10 8.1 15.8 20 20.45l-2.45 2.5-3.4-1.15-4.25-1.45q-2.3-0.9-4.95-2.8-5.1-3.7-7.75-6.05l-5.4-5.65-2.5-0.15q-2.05 0.55-3.45-0.45-6.6-4.85-4.7-10.55 1.65-5.05 8.9-9 2.4 0 4.9 4.3" fill="#00a0c2"/>
  <path d="m228.65 215q0.7 1.45 0.7 2.6v7.9q-0.9 6.1-5.45 6.8-5.05 0.8-6.35 0.1-0.95-0.5-1.2-3.35-0.2-2.15 0.35-5.85l0.65-3.3 4.1-2.9q4.15-3.25 4.65-4.8 1.6 0.9 2.55 2.8" fill="#00b7de"/>
  <path d="m224.1 214.75q2.75 1.1 3.45 2.8 0.4 0.75-0.4 6.8-0.85 6.45-2.1 7.55-5.95 1.85-7.55 0.9-0.85-0.55-1.15-3.75-0.2-2.15 0.35-5.85l0.65-3.3q4.15-2.7 6.75-5.15" fill="#00a0c2"/>
  <path d="m255.85 234.3-9.2 8.25-6.55 4.4-7.9-0.4q-4.95-0.7-6.65-1.55-1.45-0.7 1.55-4.95 2.6-3.75 5.65-6.4 3.85-3.4 15.75-2.4 3.55 0.35 4.85 0.9 1.2 0.5 2.5 2.15" fill="#00b7de"/>
  <path d="m244.8 237.35-0.35 3.05q-0.6 2.8-0.55 4.25l-3.8 2.3-7.9-0.4q-4.95-0.7-6.65-1.55-1.1-0.55 0.5-3.35 1.35-2.35 4-5.3l9.25 0.1q5.25 0.2 5.5 0.9" fill="#00a0c2"/>
  <path d="m280.3 237.8-7.75 2.4q-4.65 2.3-8.6 6.15l-4.35 4.8-7.85-0.65q-7.35-1.15-7.45-2.15-0.3-2.55 4.15-7.65 4.75-5.4 9.65-7.15l8.05-0.35 7.85 1.15q4.1 0.75 6.3 3.45" fill="#00b7de"/>
  <path d="m251.9 237.35q1.35-0.6 7.6-0.15 6.2 0.45 6.7 1.15 0.35 0.5-0.25 2.9-0.7 3-0.75 3.95-1.7 1.5-3.45 3.5l-2.15 2.45-7.85-0.65q-7.35-1.15-7.45-2.15-0.2-1.55 3-6 3.1-4.35 4.6-5" fill="#00a0c2"/>
  <g fill="#fff">
   <path d="m325.1 290.85-1.25-5 3.65-3.6 2.35-4.85q2.15 2.15 1.75 4.6-0.5 2.8-2.7 5.85-2.2 3-3.8 3"/>
   <path d="m326.95 282.75q-2.6 3.45-6.95 5.2 0-1.05-0.4-2.45l-0.45-1.2 3.8-5.45 2.4-5.45q2.25 0.8 3.25 1.7 1.25 1.15 0.8 2.75-0.65 2.55-2.45 4.9"/>
   <path d="m316.85 268.4q2.8 0.25 5.15 1.5 3.5 1.85 2.8 4.85-1.5 3.5-3.8 7-2.8 4.2-5 5.5-0.35 0.2-0.8 0-0.4-0.2-0.35-0.6l-0.15-7.5-0.15-4.25 2.3-6.5"/>
  </g>
  <path d="m317.05 268.7 1.55-0.2 0.3 0.05q-2.5 10.15-3.15 18.85l-0.55 0.3q-0.15 0.05-0.45-2.55-0.35-2.75-0.4-4.8-0.05-2.5 0.05-4.35l0.1-1.4 2.55-5.9" fill="#dbdcdc"/>
  <path d="m310.75 265.9q4.3-0.05 5.55 2.1 0.35 0.6 0.2 1.6l-0.7 2.15q-1.35 3.7-3.65 7.3t-4.1 5.05q-0.65 0.5-1.3 0.35l-0.5-0.25-0.45-17.3q1.35-0.95 4.95-1" fill="#fff"/>
  <path d="m299.1 283.8 2 3.15-4.9 0.55q-5.7 0.15-9.5-1.85-2.5-3.1-0.7-6.15 1.75-3 5.6-2.55 2.3 0.25 7.5 6.85" fill="#fff"/>
  <path d="m305.8 266.9q0.7-0.5 3.5-0.6-1.6 6.9-1.8 17.35l-1.25 0.55-0.45-17.3" fill="#dbdcdc"/>
  <path d="m285.55 279.65q3.15 3 7.45 4.9 3.45 1.55 8.3 2.65l-7.55 0.2q-4.65-0.4-6.65-1.6-1.5-1.9-1.85-2.95-0.45-1.4 0.3-3.2" fill="#dbdcdc"/>
  <path d="m285.95 45.7q1.5-4 2.45-4.6 1.35-0.75 2.7 3.5 5.25 16.3 4 39.6-0.85 14.8-4 29.8-1.6 7.55-38.3-5.35-11.5-4.05-25.05-9.65l-11.3-4.8-3.1-47.9q-0.4-7.55 0.35-9.45 1.2-2.9 5.85 0.95 4.25 3.55 10.15 10.35l5.05 6.1 2.4-18.2 2.95-21.6q1.7-9.65 3.85-10.9 1.85-1.1 5.45 3.9 9.65 13.3 19.5 36.75 4.95 11.75 7.95 20.85 7.4-14.8 9.1-19.35" fill="#e85377"/>
  <g fill="#f3b2c1">
   <path d="m286.2 45.05q1.4-3.6 2.35-4 1.25-0.5 2.55 3.55 4.45 13.8 4.2 32.85-0.15 13.65-2.7 28.6-2.7-1.1-4.55-2.4-1.95-1.4-3.5-3.45 5.9-61.25 1.65-55.15"/>
   <path d="m244.6 2.95q1.75 0 4.8 4.2 9.65 13.25 19.5 36.85 4.9 11.8 7.95 21.05-0.05 2.6-2.35 5.8-2.1 3-2.85 2.75l-15.85-42.4q-10.2-26.35-13.95-23.45 0.85-4.75 2.75-4.8"/>
   <path d="m222.3 46.1q-5.05-5.9-8.95-8.9 0.45-1.35 1.65-1.15 1.3 0.2 3.8 2.25 6.6 5.5 15.75 15.75l0.15 3.25q0 2.75-0.5 5.7-5.5-9.35-11.9-16.9"/>
  </g>
  <path d="m326.2 126.05 1.6 4.25q0.9 2.95 0.7 5.5-0.35 4.15-2.25 7.15-1.35 2.15-4.25 4.5-3.05 2.45-6.1 3.65-3.3 1.25-5.95 0.75-4.75-0.9-9.8-6.15-6.1-6.4-7.15-6.95-3.3-1.85-10.4 3.75t-9.8 12.2l-53.05 47.6q-6.75 14.35-6.85 25.5 1.85 13.95 6.8 26.2 3.75 9.4 8.85 16.7 4.25 5.5 11.65 13.55l10.85 12.3q11.7 14.55 16.2 32.9 6.55 26.55-15.9 41.65-7.9 5.3-18.15 8.3-8.15 2.35-13.25 2.3l9.5 7 23.5 18q12.3 9.6-3.65 10.4-10.9 0.55-31.25-2.8-11.75-1.95-18.45-5.55-2.35-1.3-7.6-5.6l-12.85-10.95q-8.4-7.15-12.7-10.2-5.2-3.75-3.7-8.15 1.5-4.35 9.55-9.7-12.85 3.15-26.3 2.2-12.3-0.9-22.4-4.9-3.55 7.55-17.2 17.05-7.15 4.95-16.6 10.25 1.65 2.6-6.45 15.65-4.75 7.65-11.1 16.25-1.9 2.55-8.8 6.1-7.2 3.75-11.4 4-31.3 2.1-39.1-6.05-2.3-2.4 5.6-10.25l16.85-15.45q4.15-3.9 9.35-10.75 4.35-5.75 5.65-6.5-11.1-8.85-19-27.95-9.1-22.15-3.9-39.1 4.45-14.55 22.2-33.7l15.3-16.05q9.05-9.65 14.5-16.95-1.4-13.3-0.95-20.55 0.45-7.75 3.25-12.8 2.55-4.65 8.5-9.15 3.7-2.8 14.8-9.7 5.55-7.55 12.45-27.65 7.3-21.15 10.3-39.95 1.45-9.05 4.7-13.55 3.45-4.7 9.8-5.75 10.8-1.9 42.15 7.95 6.4 1.05 13-3.6 4.15-2.9 11.9-11.25 8.45-9.15 13.1-12.9 8.2-6.55 16.65-8.35 18.85-4 31.6 9 7.95 8.15 12.45 21.6 5.15 3.15 9.15 2.85l17.35-1.7q7.4-0.35 11.65 4.4 2.4 2.7 4.85 9.15" fill="#00b7de"/>
  <g fill="#00a0c2">
   <path d="m151.8 367.05q-15-0.25-26.95-4.9l3.05-8.75q1.2-4.5 1.8-9.95 16.95 10.35 36.7 11.2 18.75 0.85 38.9-6.9 0.8 11.6 16.9 18.45 4.65 2 13.45 4.65 8.55 2.55 11.25 3.75-5.85 2.55-12.6 4.65l-6.5 1.45-7.85 1q3.05 1.45 6 3.85l4.75 4.25q-36.5 5.2-30.75 19.2-4.65-1.6-7.75-4.65-2.7-3.2-3.95-4.25l-9.8-8.55q-5.5-4.9-9.6-7.8-6.15-4.4-6.05-8.2 0.1-4.95 10.15-11.3l-10.25 1.8-10.9 1"/>
   <path d="m208.5 139.35q4.2-4.3 5.45-4.3 15.4-2.55 12.45 31.9-1.45 17.25-6 35-10.3 22.05-10.35 29.7 0.35 2.5-4.4 1.25-5.05-1.35-10-6.2-14.45-14.1-11.15-41.4 2-16.35 14.75-34.55 4.6-6.6 9.25-11.4"/>
   <path d="m263.4 96.15q-3.6-3.65-6.5-5.75-9-7.05-22.05-4.65-11.2 2.05-19.4 9.15 4.05-4.2 9.35-7.75 7.25-4.8 14.15-6.25 17.65-3.75 29.95 6.95 9.35 8.1 14.05 22.6-6.3-1.05-13.55-8.15l-6-6.15"/>
   <path d="m105.2 196.15q2.75-3.75 6.05-13.65l6.25-20.75q6.25 3.6 9.3 5.95 3.9 3.05 5.95 6.55 3.45 5.9 0.9 20.5-2.35 13.5-5.6 16.6-1.35 0.15-2.95-0.55l-2.7-1.3q-3.5-1.45-7.5 1.4-1.65 5.9-14 25.35-16.9 26.55-23.8 39.1-31.25 56.6-22.55 93.15-0.3 8.25 5.6 14.9 4.35 4.9 8.8 6.35-18.7 14.45-22.5 28.85-1.1 4.3-0.8 8.45l0.25 3.25q-11.1 0.45-17.25 0.1-11.1-0.65-15.25-5.05-2.5-2.6 5.8-11.3 3.35-3.5 17.95-16.7 4.05-3.7 8.5-9.75 3.8-5.25 4.9-5.9-11.35-9.05-19.3-27.1-9.4-21.35-4.25-38.2 4.5-14.7 22.75-35.05l15.6-16.9q9.3-10.15 14.7-17.4-4-21.25 1.4-31.8 5.15-10 23.75-19.1"/>
   <path d="m181.1 115.1q3.5 2.45-1.45 2.8l-14.5-0.1q-26.1 0-32.45 9.15-5.35 2.7-5.15 1.4 3.05-19.35 18.8-20.1 6.1-0.3 16.1 2 5.85 1.35 18.65 4.85"/>
  </g>
  <path d="m217.45 208.2q2.15 0.35 2.15 7.35-0.05 5.5-1.2 11.5-0.8 4.1-4.8 5.85-1.6 0.65-2.7 0.5-1.2-0.2-1.1-1.25l-0.05-9.2q-0.1-7.2 0.3-7.75 0.65-0.9 4.1-4.05l3.3-2.95" fill="#00b7de"/>
  <path d="m219.5 212.95q-0.8 1.75-2.65 2.85l-0.7 6.4q-0.9 7-1.9 10.05-1.9 1.4-3.25 1.35-1.3-0.05-1.2-1.45l-0.05-9.2q-0.1-7.2 0.3-7.75 0.65-0.9 4.1-4.05l3.3-2.95q1.7 0.3 2.05 4.75" fill="#00a0c2"/>
  <path d="m241.15 126q1.65 4.15 6.45 8.5 5.75 5.3 11.45 5.7 2.9 0.2 16.05-2.05 11.25-1.9 16.05-0.15-3.95 1.3-8.05 4.2-4.35 3.15-5.45 5.85 6.45 13.9 6.6 28.9 0.05 7.55-1.2 12.25-1.8 9.4-8.9 16-9.4 8.8-25.3 8.55-12.65-0.15-23.6-7.5-14.3-9.65-19.5-28.85-4.15-15.25 0.5-29.65 4-12.35 11.9-18.4 6.2-4.75 14.65-6.7 9.3-2.15 8.35 3.35" fill="#ffe792"/>
  <path d="m238.35 131.5q-6.25-1.35-13.25 9.6-7.1 11.05-8.9 25.5-2.05 16.6 4.75 28.65 8.1 14.4 27.55 19-14-2-22.2-7.2-13.95-8.9-20.25-29.45-5.1-16.6 0.95-32.15 4.3-11.05 10.4-15.7 6.25-4.75 15.05-6.9 9.65-2.35 8.7 3.15l-1.45 2.7q-1.55 2.5-1.35 2.8" fill="#dbc77f"/>
  <path d="m240.45 191.95q-12.7-13.7-7.2-43.25 6.2 5.5 26 2.85 9.9-1.35 18.4-3.5 6.45 13.9 6.6 28.9 0.05 7.55-1.2 12.25-1.65 3.9-5.6 7.1-7.85 6.35-19.8 4.8-5.15-1.4-7-2.15-6-2.5-10.2-7" fill="#922f00"/>
  <path d="m258.6 94.15q4.4 3.9 6.2 15.75 0.95 5.95 0.95 11.1-4.85-4.3-11.2-8.55-12.65-8.4-20.5-8.55 5.8-7.85 12.65-10.8 7.2-3.05 11.9 1.05" fill="#fff"/>
  <path d="m247.75 107.05q0.95-4.5 3.6-7.5 2.7-3.1 4.75-1.6 2 1.45 1.45 6.5-0.5 4.85-2.5 7.65l-7.3-5.05" fill="#f8c058"/>
  <path d="m120 175.45q0.35 1.25 8.3 8.25l9.15 7.8q1.65 1.4 2.1 2.8 0.8 2.25-0.15 6.2-1.4 5.9-3.45 10.75-2.65 6.3-4.7 6.1-5.8-0.55-11.45-3.6-9.45-5.1-11.6-14.95-2.1-9.65 2.4-19.85 1.4-3.2 3.3-6.05l1.6-2.2 4.5 4.75" fill="#00b7de"/>
  <path d="m110.6 178.95q1.4-3.2 3.3-6.05l1.6-2.2 4.5 4.75q0.45 1.45 13.35 12.45-1.85-0.15-5.65 0.8-3.65 0.9-4.45 1.55-0.85 0.7-2.85 10.75-2.1 10.25-1.4 11.95-4.35-2.15-6.7-4.95-2.85-3.45-4.1-9.2-2.1-9.65 2.4-19.85" fill="#00a0c2"/>
  <path d="m145.65 44.9q-0.8 3.1-2.85 5.65l-3.35 3.4q6.65-0.1 11.35-1.8 2.4-0.85 3.4-1.7 2.2 0.4 3.65 1.6 1.45 1.25 1.5 2.8l0.35 5.1q0.1 2.9-0.45 4.95-1 3.6-3.35 7.1-2.1 3.05-4.5 5.05-2.95 2.4-7.9 3.8l-8.3 2.1q-1.4 0.45-4 2.55l-4.95 3.55q-7.4 4.15-18.6 1.2l-3.6 9.85q-3.8 10.4-7.5 16.85 0.85 2.95 13 7.35l32.9 11.15q9.75 3.4 11.05 12.5 1.15 8-4.25 16.9-5.25 8.75-12.9 12.3-8.45 3.9-14.95-1.4-13.95-11.4-24.95-17.7-11.35-6.5-23.4-9.85-12.6-3.5-20.35-12.5-8.15-9.45-10-24.05-1.75-13.6 0-31.7 1.4-14.35 4.5-27.9 2.7-11.9 6.5-21.75 4.2-10.7 7.8-13.7 3.8-3.1 9.4-3.05 5.5 0.05 8.9 3.05 3.95-7.85 12.1-7.85 4.2 0 7.55 1 4.65 1.45 6.5 4.6l7-4q4.45-1.7 9.3 0.65 3.65 1.75 5 5.05 1.05 2.65 1.35 8.75 3.7-1.6 9.05 0.35 6.95 2.5 8.05 10.5l0.3 4.4q0.05 3.2-0.35 4.85" fill="#00b7de"/>
  <path d="m122.35 38.35q3-0.6 4.95-5.1 1.8-4.25 1.3-8.45l3-0.4q-2.5 12.45-0.75 20.3 2.45 11.05 13 9.2l0.8 0.15 0.2 0.3q-2.7 1.3-6.2 8.25-3.55 6.95-7.45 8.75-5.45 3.65-23.8 8.05-18.1 4.4-20.05 5.8-3.25 2.4 3.5 3.85 5.75 1.3 11.85 0.95-18.5 11.35-36.5 11.35-1.5 0-2.5 4.6-1 4.35-1.05 10.55-0.2 15.5 4.55 20.1 7.55 7.25 32.45 17.65 12.25 5.15 17.4 7.75 8.65 4.45 12.55 8.7 7.3 7.95 3.5 9.75-3.8 1.75-11.7-4.7-13.95-11.4-24.95-17.7-11.35-6.5-23.4-9.85-12.6-3.5-20.35-12.5-8.15-9.45-10-24.05-1.75-13.6 0-31.7 1.4-14.35 4.5-27.9 2.7-11.9 6.5-21.75 4.2-10.7 7.8-13.7 0.6-0.5 2.05 2.85l3.4 7.8q5.45 11.85 10.7 11.85 3.4 0 5.65-4.6 0.6-5.3-0.3-9.3-0.85-3.85-3.5-8.15 1.8-3.45 4.6-5.65 2.6-2 5.35-2.45-3.3 4.95-2.95 11.35 0.3 5.8 3.3 10.55 2.95 4.75 6.85 5.8 4.3 1.15 7.75-2.95 2.6-2.6 3.15-8.4 0.6-6.25-1.95-11.05 3.2-1.9 4.3-2.5 2.7-1.45 4.7-1.9-4.7 13.15-3.15 21.3 1.75 9.05 10.9 7.2" fill="#00a0c2"/>
  <path d="m87.1 128.1q6.75-5.65 8.55-11.25 0.8 2.1 6.7 4.7 4.5 1.95 15.8 5.7 1.6 3.5 1.65 7.6 0.05 2.25-0.7 8.05-2.3-1.7-17.35-7-13.25-4.7-14.65-7.8" fill="#00a0c2"/>
  <path d="m42.95 127.55q-5.5-4.2-7.3-10.3-1.7-5.9-0.6-13.8 0.95-7.05 2.55-8.35l7.05 8.4 1.75 2.9q2 3.15 3.4 4.55 1.5 1.5 2.2 10.25 0.65 8.05 0.1 9.95-4.2 0.15-9.15-3.6" fill="#00b7de"/>
  <path d="m48.85 45.5-1.65 7.65q-0.8 2.8 0.75 12.8 1.55 9.7 2.9 11.95 1.15 1.9-0.2 13.65-1.3 11.3-2.35 13.05-0.95 1.75-5.85-3.25-5.2-5.35-7.35-11.9-2.4-7.5-1.35-19.1 1.15-12.15 5.4-18.75 1.9-3 6-4.85 2.05-0.9 3.7-1.25" fill="#00b7de"/>
  <path d="m49.8 110.95q1.5 1.5 2.2 10.25 0.65 8.05 0.1 9.95-4.2 0.15-9.15-3.6-5.5-4.2-7.3-10.3-1.15-3.9-1-9 0.1-4.3 1.05-8.3 1.6 1.4 3.35 1.9l4.95 0.85 0.65 0.8 1.75 2.9q2 3.15 3.4 4.55" fill="#00a0c2"/>
  <path d="m35.1 89.45q-2.3-7.1-1.4-18.25 0.9-11.55 4.75-18.45l2.9 3.1q2.7 2.4 5.7 2.45 0.35 5.15 1.6 11.6t2.2 8q1.15 1.9-0.2 13.65-1.3 11.3-2.35 13.05-1.35 2.35-6.1-2.9-4.9-5.35-7.1-12.25" fill="#00a0c2"/>
  <g fill="#fff">
   <path d="m144.15 47.6q0.1 2.6-1.95 4.45-1.8 1.65-7.95 5.35l-5.8 3.35 1.25-7.2q1.5-7.5 2.7-9.05 1.75-2.3 4.95-2.85 2.9-0.55 4 0.55 2.7 2.55 2.8 5.4"/>
   <path d="m167.65 43.45q1.75-0.85 2.25-0.5 0.35 0.3 0.15 1.6-1.6 10.3-7 16.15-4.15 4.45-7.75 4.35-3.55-2.85-3.35-7 0.15-3.5 2.9-7.7 2.7-1.85 12.8-6.9"/>
   <path d="m123.75 46.65q-1.75 3-3.9 5.3-2 2.1-2.95 2.05-1.15-0.1-2.2-3-1.45-3.95-2.3-8.95-0.95-5.6-0.35-8.45 0.3-1.45 2.9-2.55 2.75-1.1 5.55-0.6 3.55 0.6 5.05 3.7 1.3 2.7 0.7 5.9-0.55 3.1-2.5 6.6"/>
   <path d="m82.6 43.55q-2.6 6.55-4.5 7.1l-3.8-6.7q-3.85-7.25-4.05-9.9-0.15-1.45 0.7-3.15 0.95-2.05 2.7-2.9l5.2-0.25q3 0.9 4.3 3.5 2.45 4.8-0.55 12.3"/>
  </g>
  <path d="m124.75 265.95 4.7 4.3q6.1 5.35 13.3 10.55 23.1 16.65 48.4 25.7 11.15-1.65 23.25-10.3 5.75-4.15 14.45-12.45 1.6 23.3-4 38.55-2.8 7.65-5.95 10.6-3.45 3.05-15.25 7.6-15.3 5.85-29.4 6.75-12.25-1.35-21.75-5.05-10.95-4.25-21.5-12.7 1.2-9-2.4-37.15l-3.85-26.4" fill="#ffe792"/>
  <path d="m42.4 319.15q5.05 1.65 18.25 4.05 17.45 3.15 28.15 2.95l6.55-0.2q2.1 0.05 2.45 1.35 0.6 2.2-0.55 12-1.35 11.2-3.95 15.8-2.7 4.8-19.15 9.35-15 4.1-21.9 3.6-4.9-0.35-11.3-8.35-4.85-6.05-6.7-10.5-0.9-2.2 0.6-14.4 1.25-10.4 2.2-14.25 0.45-1.65 1.65-1.95 1.15-0.3 3.7 0.55" fill="#00b7de"/>
  <path d="m42.35 326.6q3.65 6.85 7.9 10.75 1.75 1.6 1.4 15.9-0.35 14.2-1.6 14.1-4.9-0.35-10.2-8-3.45-4.9-5.6-10.15-0.9-2.2 0.6-14.4 1.25-10.4 2.2-14.25-0.15-1.45 1.5-1.8l1.9-0.2q-1.85 1.1 1.9 8.05" fill="#00a0c2"/>
  <path d="m239.8 372.25q-5.2-1.8-10.7-5.6-2.2-1.55 2.55-12.2 4.85-10.85 8.95-12.25 11.75 1.1 19.75-1.45 5.7-1.8 8.1-4.75v-5.35l3.95 2.3q4.15 2.95 5.35 6.45 0.55 1.65-0.6 6.05-1.2 4.65-3.6 9.65-6.4 12.95-15.2 16.9-8.45 3.75-18.55 0.25" fill="#00b7de"/>
  <path d="m240.6 342.2q0.5 0.05 2.05 1.9 1.75 2 3.1 2.6 1.95 0.85-1.25 8.7-3.3 8.25-8.9 15.1-3.15-1.5-6.5-3.85-2.2-1.55 2.55-12.2 4.85-10.85 8.95-12.25" fill="#00a0c2"/>
  <g fill="#fff">
   <path d="m249.05 401.95q5 1.75 11.65 4.7 9.75 4.35 8.85 5.75-0.55 0.85-5.4 0.55l-15.1-11"/>
   <path d="m243.1 403.5q1.95-1.6 3.7-1.85 2.65-0.3 12.85 7.8 10.25 8.1 7.85 9.1l-8.05-0.45-19-12 2.65-2.6"/>
   <path d="m243.3 419.1q-15.15-2.3-17.85-4.35-0.4-0.8 4-5.5 4.55-4.8 6.4-4.65 2.3 0.15 14.15 7.55 11.95 7.5 10.2 8.3-2.05 0.95-16.9-1.35"/>
  </g>
  <g fill="#dbdcdc">
   <path d="m239.2 418.15q-10.95-1.95-13.1-3.6-0.3-0.55 2.25-3.55 14.9 5.6 27.75 9.3-6.95-0.4-16.9-2.15"/>
   <path d="m22.45 421.05-8.05 6.7q-12.35 4.25-13.8 3.7-1.15-0.45 6.6-7.85 7.8-7.45 10.15-7.9 2.4-0.5 5.1 5.35"/>
   <path d="m31.6 422.4-10 10.15-5.7 1.95q-6.05 1.9-7.8 1.55-1.85-0.35 7.25-8.6 8.9-8.1 10.95-8.8 1.55-0.5 3.1 0.75 1.25 1.05 2.2 3"/>
  </g>
  <path d="m43 424.55q2 3 2.9 5.75-1.2 1.25-13.1 4.55-11.85 3.3-13.65 2.9-1.85-0.4 6.65-9.2 8.45-8.8 10.8-8.75 3.3 0.15 6.4 4.75" fill="#fff"/>
  <path d="m40.2 421.35q-1.95 0.8-11.65 8.75l-9.4 7.65q-1.85-0.4 6.65-9.2 8.45-8.8 10.8-8.75 1.9 0.05 3.6 1.55" fill="#dbdcdc"/>
  <path d="m105 43.7q-1.8 4.25-4.05 7.65l-1.6-1.5q-1.9-2.05-3.3-4.75-1.5-3-2.75-6.65-1.2-3.55-1.3-5.15-0.1-1.25 1.55-3 1.7-1.75 4-2.7 6.15-2.45 8.95 3.35 2.1 4.3-1.5 12.75" fill="#fff"/>
  <g fill="#dbdcdc">
   <path d="m132.4 44.05q0.7-0.85 2.35-1.6 2.05-0.95 4-0.75-4.3 5.25-6.25 8.65-2.7 4.8-3.35 10.1l-0.2 0.05 1-7.25q1.25-7.6 2.45-9.2"/>
   <path d="m113.2 44.15q-1.75-7.75-1.15-10.55 0.15-0.95 1.55-1.8 1.4-0.8 3.35-1.2-1.9 15.7 0.2 23.55-2.15-1.8-3.95-10"/>
   <path d="m69.95 33.15q-0.4-3.95 3-4.9-0.6 1.85 1.25 9.75 1.8 7.7 3.9 12.6v0.05l-3.95-7.15q-4-7.7-4.2-10.35"/>
   <path d="m91.9 32.75q-0.05-0.95 1.15-2.3 1.15-1.3 3.05-2.4 0.05 4.3 1.2 11.25 1.15 7.1 2.55 11.25-2.7-3.3-5.4-9.8-2.35-5.75-2.55-8"/>
  </g>
  <path d="m241.2 125-0.05 1q1.65 4.15 6.45 8.5 5.75 5.3 11.45 5.7 3 0.2 18.2-2.3 12.35-2 13.9 0.1-3.4 1.1-7.1 3.6-3.95 2.6-5.65 5.1l-5.85 9.55q-3.15 5.15-6.35 4.6-20.8 0-33.5-11.25 2.5-14.5 8.5-24.6" fill="#922f00"/>
  <path d="m231.55 160.1 2.8-19.1q3.95-2.15 10.95-1.2 8.2 1.1 12.3 6.55 6.1-2 9.55-0.3 6.2 3.05 9.8 17.3 3.45 13.65-2.25 23.2-4.5 7.65-11.8 9.4-6.2 1.5-13.4-3.6-8.05-5.7-10.55-15.95-2.05-8.3-4.9-13.1l-2.5-3.2" fill="#ed8599"/>
  <path d="m238.85 176.15q-2.05-8.25-4.85-13.1l-2.45-3.2 2.9-18.5q4-2.2 10.9-1.4 8.2 0.95 12.25 6.4 6.2-2.05 9.75-0.2 6 3.15 9.6 17.2l0.9 5q-7.65-5.15-19.8-2.75-12.3 2.35-19.2 10.55" fill="#ce7486"/>
  <path d="m289.25 137.85q3.35-0.25 5.85 2.05 1.25 1.15 1.8 2.35-0.6 2.1-2.3 3.55-1.2 1.1-4.4 2.9-0.85-3.15-1.15-6.2-0.35-3.4 0.2-4.65" fill="#fff"/>
  <path d="m251.15 135.95 9.15 4.15-4.7 3.95q-4.85 3.85-5.8 3.4-0.9-0.45 0.15-6.05l1.2-5.45" fill="#fff"/>
  <path d="m295.6 144.7q-3.4-2.5-6.5-2.15l-0.1-4.8q3.35-0.2 5.95 2.1 1.3 1.2 1.95 2.4-0.35 1.25-1.3 2.45" fill="#dbdcdc"/>
  <path d="m257.25 142.4-6.9-0.3 0.8-6.15 9.15 4.15-3.05 2.3" fill="#dbdcdc"/>
  <path d="m238.1 180.2q0.55-0.75 5.15-2.2 3.75-1.25 6.8-1.95-4.7 7.95-8.3 11-3.3-0.25-4.2-2.85-0.75-2.25 0.55-4" fill="#fff"/>
  <path d="m277.85 178.95q0.45-0.8 4.45-2.9 3.7-2 4.65-2.2l-2.25 5.95q-1.8 3.95-3.1 4.95-3.3 0.15-4.15-2-0.7-1.8 0.4-3.8" fill="#fff"/>
  <path d="m281.6 184.75q-3.3 0.15-4.15-2-0.7-1.8 0.4-3.8l1.2-1.05q1 2.1 6.85-1.05-2.45 6.5-4.3 7.9" fill="#dbdcdc"/>
  <path d="m273.8 189.75q0.5-0.9 5.65-3.5 4.75-2.4 5.85-2.65-0.6 2.35-2.8 6.3-2.55 4.45-4.65 6-3.7 0.15-4.55-2.1-0.7-1.85 0.5-4.05" fill="#fff"/>
  <path d="m241.75 187.05q-3.2 0.7-4.15-2.05-0.85-2.4 0.25-4.45 3.15 3 7.5 2.55l-3.6 3.95" fill="#dbdcdc"/>
  <path d="m247.2 191.95q1-1.6 4-4.45 3.55-3.3 6.9-5.35l-1.4 7.85q-1.25 5.15-3.25 6.85-3.05 1.75-5.25-0.7-2.1-2.35-1-4.2" fill="#fff"/>
  <path d="m247.6 191.45q4.25 2.3 9.25-2.05-1.3 5.65-3.4 7.45-3.05 1.75-5.25-0.7-2.1-2.35-1-4.2l0.4-0.5" fill="#dbdcdc"/>
  <path d="m231.15 161.45 1.95-14.75q2.35-1.15 12.05-2.15-2.7 5.4-4.8 8.35-4.1 5.75-9.2 8.55" fill="#fff"/>
  <g fill="#dbdcdc">
   <path d="m277.3 155.5q0.75-1.35 9.85-4.9 0.7-0.3 1.2 0.15 0.4 0.35 0.25 0.9-2.7 7.95-6.25 11.75-4 0.15-5.25-2.9-1.1-2.65 0.2-5"/>
   <path d="m273.8 189.75 1.3-1.05q-0.2 4.9 6.45 2.75-2 3.2-3.7 4.45-3.7 0.15-4.55-2.1-0.7-1.85 0.5-4.05"/>
   <path d="m233.3 146.6 4.65-0.45q-2.4 2.75-3.35 6.2-1.05 3.65-0.25 7.2l-1.35 0.8-1.4 0.65 1.7-14.4"/>
  </g>
  <path d="m126.4 144.75q-6.35-0.75-7.25-1.6l-1.8-7.05q-1.8-6.5-5.2-7.85l-0.3-1.7q1.2-1.8 3.3-2.8 1.9-0.85 3.75-0.85 2.35 0 7.5 1.2 5.85 1.4 6.55 2.7 2.6 4.9 3.1 11.1 0.55 6.1-1.4 6.9-1.75 0.7-8.25-0.05" fill="#00b7de"/>
  <path d="m111 123.15q1.05 2.6 0.95 7.55-0.15 5.55-2.05 6.5-1.85 0.95-7.25-0.9-4.35-1.45-6.85-3-0.9-0.55-1-3.8-0.15-4.15-2.35-8l4.7-7.5q3.5 1.45 7.75 4.05 5.35 3.25 6.1 5.1" fill="#00b7de"/>
  <path d="m119.15 143.15-1.8-7.05q-1.8-6.5-5.2-7.85l-0.3-1.7q1.9-2.85 5.7-3.3 6.1 9.1 4.55 15.45-0.8 3.2-2.95 4.45" fill="#00a0c2"/>
  <path d="m97.15 114q3 4.2 2.75 11.7-0.2 6.7-2.05 8.35l-1.25-0.45-0.8-0.3q-0.9-0.55-1-3.8-0.15-4.15-2.35-8l4.7-7.5" fill="#00a0c2"/>
  <path d="m169.3 47.2q-0.8 4.2-2.2 7.6-4.45 10.95-13.25 10.55l-1.35-2.25 6.85-4.95q7.5-6.5 10.45-14.4l-0.5 3.45" fill="#dbdcdc"/>
  <g fill="#0d131a">
   <path d="m314.85 154.6q3.1-2.6 3.85-4.7l2.15-0.95q-2.15 4-5.4 6.7-2.8 2.3-4.45 2.3-0.6 0-1.05-1.7-0.5-1.85-0.45-4.3l1.35 0.8 0.05 1.9q0.1 1.95 0.5 2.1 0.6 0.25 3.45-2.15"/>
   <path d="m30.55 193.95q-0.35-0.35-2.4 3.45-2.4 4.45-4.6 10.6-6.5 17.9-6.8 37-0.6 30.75 16.7 57.65l-2.05 2.95q-19.8-29.45-17.3-65.9 1-14.4 5.45-27.9 3.95-11.8 9.45-20 2.2-3.25 2.85-3.3 0.75 0 0.95 3.45l0.55 10.5q0.4 7.2 1 10.6l-1.2 1.8-1.05 1.85q-1.25-9.45-1.3-17.2-0.05-5.35-0.25-5.55"/>
   <path d="m40.95 197.05q1.1-1.7 1.5-1.75 0.55-0.1 1.1 1.8 1 3.45 2.25 9.95l1.45 9.1q7.05-10 11.4-14.5 2.1-2.2 2.8-2.05 0.8 0.15 0.65 3.55-0.15 4.05-1.25 14.35l-2.5 20.6q6.6-4.15 12.85-5.95 3.65-1.1 4.35-0.65 0.85 0.6-0.35 4.25-1 3.1-6.15 12.5l-7.1 12.45-2.7 0.8q6.5-10.9 10.75-19.3 4.05-8 3.4-8.4-0.8-0.45-5.9 1.7-7.25 3.05-17.15 9.7-1.75 1.2-1.5 0.55l1.4-1.7q1.75-1.75 6.1-4.8l2.45-19.2q1.8-15.95 1.25-16.2-0.9-0.4-7.05 7.75l-8.65 11.6q-1.85 2.3-1 0.2 0.75-1.95 2.55-4.95-2.75-19.25-3.55-19.4-0.9-0.2-6.2 11.3-5.35 11.75-5.35 14.85l0.55 4.75q0.85 5.85 2.4 11.6 4.9 18.25 14.8 28.15l-1.35 2.65q-10.25-10.25-15.1-28.15-2.45-9.05-3.05-18.2-0.2-3.75 5.3-15.8 4.2-9.2 6.6-13.15"/>
   <path d="m41.2 203.65q0.85-4.25 0.85-0.2l-0.4 11.1-0.75 10.2q-0.25 1.4-0.75 1.1-0.45-0.25-0.45-1.2 1.15-19.05 1.5-21"/>
   <path d="m49.6 242q7.4-29.7 8.35-32.8 0.7-2.25 1.1-2.35 0.35-0.05 0.05 1.7l-4.15 17.8q-3.6 14.65-4.2 15.95-0.5 1.2-0.95 0.9-0.45-0.25-0.2-1.2"/>
   <path d="m45.6 274.05q-0.7-6.15 9.75-11.5 9.6-4.9 15.25-3.8l-1.7 1.55q-3.9-0.75-12.4 3.85-9.2 5-8.3 9.7 0.15 0.8 2.6 5.05l-1.85 1.4q-3.05-3.85-3.35-6.25"/>
   <path d="m106.5 119.75q-1.85-3.85-3.2-7.4l-2-5.45 1.2-2.75q2.6 7.25 7.65 17.5l-3.65-1.9"/>
   <path d="m166.8 70.65q5.25 4.8 14.65 19.85 8.9 14.25 13.35 24.35l-1.95 1.05q-1.9-5.4-10.15-18.7-7.8-12.65-13.75-20.4-4.35-5.7-6.15-4.8-1.35 0.65-3.5 7.55-1.05 3.4-4.85 19.15-1.25 5-2.1 5.7-0.95 0.8 0.2-6.25-1.55-1.55-9.1-7.4-8-6.2-9.55-6.8 0.35-0.35 1.2-0.8l0.9-0.4 9.1 6.5q5.55 4.2 8 6.5 1.85-9.15 4.35-18.25 2.15-7.65 4.4-8.85 1.75-0.9 4.95 2"/>
   <path d="m76.25 159.1q-1.35-1.9-1-2.65 0.3-0.65 2.5-1.25l10.45-0.95 3 1.7-6.9 0.55q-4.75 0.6-5 1.4-0.45 1.45 12.05 15.05l16.5 17.4-0.8 2.4q-11.25-11.05-21.05-22.05-7.1-8-9.75-11.6"/>
   <path d="m164.95 77.1q-1.05-2.1-0.7-2.3 0.3-0.2 1.35 1.25 1.1 1.5 4.8 9.05 4.75 9.7 7.5 17.75 1.45 4.25 1.1 4.4-0.35 0.1-1.2-1.9-6-14.3-12.85-28.25"/>
   <path d="m128.4 87.5 1.1-0.5q1.35 0.8 9.2 6.95l9.55 7.7q1.75 1.65 1 1.7-0.75 0-2.95-1.65-16.15-13.15-17.9-14.2"/>
   <path d="m293.9 96.75q5.8-1.1 8.25 1.75 3.05 3.5 2.75 14.25l-1.65-0.1q0-8.35-1.9-11.4-2-3.25-7.3-2.6l-0.15-1.9"/>
   <path d="m226.1 231.2 1.7-1.25 0.25 4.9-1.6-0.05-0.35-3.6"/>
   <path d="m331.25 268.5q-0.25-0.4-0.4-2.15t0.25-1.35q2.5 2.65 3.1 7.65 0.7 5.75-2.15 9.75l-0.8-1.35q1.3-2.8 1.6-5.7 0.4-4.1-1.6-6.85"/>
   <path d="m325.05 254.5q-0.3-0.2-0.45-1.1-0.1-0.9 0.25-0.75 4.35 1.75 6.2 7.65 1.4 4.55 0.55 12.15-0.9 7.55-2.8 7.9l0.3-3.35q1.55-6.05 0.85-12.35-0.8-7.7-4.9-10.15"/>
   <path d="m263.15 269.15 1.35 1.4-22.5-1.25-15.15-1.6-1.25-2.15 14.4 1.85 23.15 1.75"/>
   <path d="m294.7 259.1 5.5 1.4 5.3 0.6q0.35 0.35 0.05 0.95t0.05 0.95l-5.4-0.65-6.1-1.95q-1.8-0.8-1.5-1.3 0.35-0.55 2.1 0"/>
   <path d="m325.85 273.4q-0.35 0.8-1.05-0.15-0.7-0.9-0.35-1.9 0.5-1.55 0.6-4.4l-0.05-6.35q-0.25-7.35-2.95-11.9-2.85-4.8-8.9-7.25l-1.9-1.6q-1.15-1.3-0.65-1.2 8.4 2.4 11.85 6.6 3.9 4.85 4.35 15.1l0.05 7.7q-0.15 3.45-1 5.35"/>
   <path d="m306.35 266.45q0 1.35-0.75 2.15-0.7 0.8-0.9-0.35l-1.1-10.15q-0.65-6.35-1.15-8.05-0.4-1.4 0.15-1.35t1.25 1.8q0.75 1.85 1.65 7.55 0.95 5.75 0.85 8.4"/>
   <path d="m219.2 237.45q5.4-3.35 13.25-4l-1.15 1.8q-6.65 0.9-11.9 3.4-2.25 1.1-2.05 0.45 0.2-0.6 1.85-1.65"/>
   <path d="m315.55 246.65q-1.8-3.75-5.25-6.6-3.3-2.75-7.45-4.2-5.45-1.9-14.95 0.2-7.35 1.65-15.7 5.25l-4.65 1.85q-0.3-0.15 4.35-3.1 5.6-3.55 15.05-5.7 10.55-2.4 16.4-0.5 4.2 1.4 7.9 4.35 4 3.2 6.2 7.4 1.5 2.8 1.2 12.55-0.3 9.4-1.45 10.7-1.1-0.9-1.05-1.75 0.5-5.15 0.3-12.05-0.2-6.85-0.9-8.4"/>
   <path d="m286.4 263.1q2.15-1.1 9.25-3.3l1.25 1.1q-0.75 0-4.95 1.55l-5.4 2q-0.3 0.1-0.45-0.5-0.1-0.6 0.3-0.85"/>
   <path d="m287.2 265.35q0.45 3.25 2.45 6.85 1.6 2.85 3.65 5.05l-1-0.05-1.15-0.3q-1.7-0.9-3.25-4.2-1.7-3.45-2.05-7.25-0.35-3.65 0.55-7.65 0.75-3.45 1.75-4.75 1.15-1.5 1.65-1.45 0.5 0.1-0.4 1.7-1 1.75-1.7 4.7-0.95 3.95-0.5 7.35"/>
   <path d="m272.75 279.45-8.85-8.75-2.85-2.2q-1.6-0.95-1.6-1.2l1.95 0.2q1.8 0.45 3.45 2.1l6.6 6.95q7.2 6.35 14.95 8.25l1.7 1.2q-6.2 1.05-15.35-6.55"/>
   <path d="m229.45 214.55q0.9 1.45 0.9 2.6l-0.1 7.4q-0.95 7.55-5.2 8.25-7.1 1.55-8 0.85-0.5-0.4-0.9-2.3l0.4-1.05q0.25-0.6 0.6-0.8 0.15 2.35 0.7 2.85l5.95-0.65q3.6-0.55 4.65-7.4l0.3-6.7q-0.05-1.75-0.6-2.75-0.65-1.15-2.3-2.15l0.65-1.05q1.9 1.15 2.95 2.9"/>
   <path d="m228.35 214.3q0.05-0.9 0.45 0l0.35 1.05q0.35 5.25-9.5 5.8v-0.7q4.5-0.9 6.45-2.2 2.05-1.4 2.25-3.95"/>
   <path d="m227.95 208.65q-0.1 3.15-2.6 5.8-2.1 2.3-5.45 3.85v-1.4q2.7-1.45 4.35-3.6 1.9-2.4 2-5.1l1.7 0.45"/>
   <path d="m248.9 230.55q7.1 0.6 7.9 4.15l-0.95 0.8q-2.15-2.75-9.25-3.4-9.7-0.8-13.7 2.7-2.4 2.1-5 5.75-2.5 3.5-2.05 3.9 0.55 0.5 6.55 1.35l7.65 0.25 3.95-2.6q2.9-2.1 4.3-2.45 2.05-0.75-1.5 2.15-5.35 4.8-6.45 5.05l-6.25-0.4q-6.05-0.7-9.1-1.7-0.7-0.25-0.9-0.5-0.25-0.3-0.2-1 0.25-2.25 3.05-6 2.75-3.7 5.4-5.45 5.3-3.55 16.55-2.6"/>
   <path d="m246.15 234.85q3.95-3.15 6.15-2.45 1.95 0.6 2.15 1l-1.35-0.05q-1.75-0.5-5.7 2.45-4.5 3.3-7.4 8.4l-0.75 0.8q-0.15-0.25 0.5-1.85 2.15-4.9 6.4-8.3"/>
   <path d="m248.7 239q4.2-4.1 9.15-5.9 2.15-0.8 7.2-0.65l10.95 1.2q2.6 0.45 3.7 1.25l1.85 2.3-1.75 1q-2-2.55-5.9-3.25-11.35-1.95-15.25-0.55-4.65 1.7-9.25 6.45-4.4 4.5-4.2 6.75 0.05 0.9 6.55 2.05 6.3 1.15 7.3 0.8l3.8-4.25q4.25-4.5 9.45-6.55 3.45-1.35 2.35-0.25l-1.85 1.35q-3.75 1.85-7.55 5.65-2.65 2.65-4.45 5.3l-7.75-0.2-8-1.85-1.55-0.75q-0.45-0.5-0.1-1.9 1.1-3.95 5.3-8"/>
   <path d="m271.9 234.25q2.65-0.55 5.1 0.55 1.05 0.5 1.5 1.3t-0.45 0.4q-2.9-1.3-4.95-0.75-9 2.5-14.05 11.55l-1.1 1.5 0.4-1.7q1.35-5 6-8.85 3.8-3.1 7.55-4"/>
   <path d="m329.15 277.35q-0.3-0.35-0.2-1.2 0.1-0.8 0.3-0.6 1.35 0.95 2.45 2.5 1.35 1.85 1.1 3.35-0.7 4.25-5.55 8.95-1.4 1.4-2.1 1.35-0.75-0.05-1.05-1.65l-0.65-3.6q-0.05-0.5 0.55-1.25 0.65-0.75 0.7-0.45 0.7 4.75 1.1 4.9 0.6 0.25 2.9-3.15 2.45-3.6 2.1-5.8-0.2-1.5-1.65-3.35"/>
   <path d="m324.65 274.4 0.45-1.35q4.3 0.1 5.3 3.5 0.55 1.75-1.3 4.75-2.35 3.75-7.35 6.9-1.5 1-1.9 0.7-0.4-0.25-0.9-2.6l-0.3-1.65q-0.05-0.35 0.6-1.15 0.7-0.8 0.75-0.4 0.2 3.4 0.6 3.8 8.35-4.9 7.95-10.2-0.05-1.1-1.25-1.7-1.05-0.55-2.65-0.6"/>
   <path d="m316.8 267.9q4.05 0.4 6.65 2.05 2.55 1.6 2.4 3.45-0.35 3.65-4.8 9.45-4.3 5.7-5.95 5.2-0.8-0.25-1.2-4.2-0.4-4.1 0.05-8.45l1.45-2.05-0.15 6.7q-0.1 6.5 0.35 6.85 0.75 0.5 4.55-4.85 3.95-5.65 3.9-8.65-0.05-3.55-8.05-4.35l0.8-1.15"/>
   <path d="m310.7 265q5.85-0.1 6.9 3.25 0.6 1.9-3.75 9.45-4.5 8-7.5 7.65-0.8-0.1-1.35-6.05-0.55-5.8-0.3-11.05 0.15-3.15 6-3.25m-0.9 1.8q-3.15 0.25-3.25 1.45l-0.2 8.45q0 7.05 0.55 7.2 1.35 0.4 5.75-7.3 4.4-7.75 2.65-8.75-2.25-1.25-5.5-1.05"/>
   <path d="m286.5 279.85q-0.7 1.4-0.45 3 0.35 1.95 2.1 2.7 2.05 0.8 6.95 1.25 4.7 0.4 5.15-0.05 0.45-0.4-3.1-4.2-3.55-3.9-5.2-4.55-1.7-0.75-3.35-0.05-1.45 0.6-2.1 1.9m-1.45 4.15q-0.7-2.1 0.3-4.6 0.85-2.15 3.3-3l3.95 0.1q2.25 1.35 5.8 5.8 3.4 4.25 3.15 4.95-0.2 0.55-4.5 0.7-5.1 0.1-9.45-1.3-1.9-0.6-2.55-2.65"/>
   <path d="m285.25 43.75q3.05-5.65 4.25-5.9 1.2-0.3 2.6 4.4 5.25 18.05 4.1 42.45-0.75 16.7-3.75 29.55l-2.4-0.45q3.15-13.45 3.8-31.35 0.9-23.05-3.75-37.55-1.1-3.45-3.15 1.2-4.75 10.6-10.1 21.05-3 5.8-3 4.25-0.05-1.3 1.85-6.65-2.95-9.8-9.5-24.8-9.25-21-17.9-32-3.2-4.05-4.45-3.15-1.45 1.05-2.75 9.7l-5.2 40.25q-1.4 10.55-1.95 7.95-0.45-2.05-0.15-8.15l-5.3-6q-6.05-6.6-10.35-9.75-2.95-2.2-3.35-1.8-0.55 0.6-0.5 7.25 0 7.05 2.85 49.4l-1.7 2.25q-1.15-9.2-2.6-28.35-1.4-19.1-1.3-23.75 0.25-9.7 1.7-10.8 1.15-0.9 6.1 3.1 4.55 3.65 8.9 8.25l5.7 6.25 2.3-19.85q1.7-14.05 3-20.65 1.8-9.1 3.65-9.95 1.8-0.85 6.55 4.9 8.85 10.75 17.35 29.8 6.4 14.35 10.15 27.05l3.95-8.9q2.95-6.65 4.35-9.25"/>
   <path d="m248.75 16.8q-1-2.65-0.75-3.1 0.25-0.5 1.95 2.95 3.7 7.35 11.05 25.4 7.25 17.85 8.3 22 0.95 4.05 0.1 4.3-0.85 0.3-2-3.65-0.85-2.9-9.4-24.55l-9.25-23.35"/>
   <path d="m287.2 54.2q0.15-2.9 0.45-3.6 0.35-0.75 0.55 2.25 0.3 4.3-0.35 17.35-0.75 14.75-2.05 21.8-1 5.35-1.6 4.7-0.65-0.65 0.15-5.65 0.5-2.95 1.65-19l1.2-17.85"/>
   <path d="m174.95 390.1q-2.55-2.1-10.15-7.7-6.05-4.45-3.15-9.95 2.5-4.75 9.75-7.75l2.55-0.35 2.5-0.25q-8.1 5.2-10 7.2-4.55 4.75 0.4 8.5 4.4 3.35 13.4 11.5l11.75 10.4q7.65 6.15 17.6 9.2 6.7 2.05 15.95 3 0.8 0.1 1.85 1.45 1 1.35 0.3 1.3-12.25-1.2-21.5-4.05-8.85-2.7-13.35-6.4-13.25-12.2-17.9-16.1"/>
   <path d="m213 233.35 2.15-1.35q4.5 28.5 17.9 42.55l9.25 9.45q6.6 6.95 11.25 13.25 13.65 18.45 15.75 37.4l-2.25 2.2q-1.4-15.05-9.25-28.7-8.2-14.35-25.75-31.5-6.75-6.55-11.8-18.5-4.6-10.85-7.25-24.8"/>
   <path d="m221.2 203.15q-1.15 1.15-1.95 2.75l-1.25 2.85q-0.65 0.05-1.35 0.4l-1.25 0.6q2.1-6.1 3.85-8.55l1.95 1.95"/>
   <path d="m209.4 379.9q8.35 1.3 17.7-0.3 9.75-1.65 16.3-5.75l2.2 0.55 2.3 0.4q-8.4 4.85-24.5 7.5 14.55 10.3 23.4 18.05 0.8 0.75 0.3 1.15l-1.95 0.35q-11.8-9.85-26.55-19.2-5.5 0.15-11.5-1.45-2.9-0.75-2.6-1.35 0.35-0.65 4.9 0.05"/>
   <path d="m105.1 194.25 1.5-5.1q0-0.8 0.4 1.4l0.35 4.25-2.8 8.8q-3.1 9.25-4.8 12.1-1.55 2.65-2.15 2.8-0.7 0.15 0.4-3l5.85-17.55-12.5 7.95q-5.5 3.85-7.95 7.65-5.4 8.35-2.8 31.2l4.15-5.05 2.75-3.6q1.65-1.95 1.85-0.95 0.2 1.15-2.5 5.35-6.45 10.05-25.7 30.5-15 15.85-19.2 21.05-9.7 12.05-12.9 22.4-5.35 17.55 3.95 39.85 8.75 20.85 22.8 29.8 3.55 2.25 2.3 2.05l-3.9-1.4-2.35-1.3-1.25-0.85-6 8.35q-4.05 5.6-8.45 9.7l-9.45 8.55-7.3 6.25-1.35 0.25-1.2 0.25q2.35-2.6 7.6-7.35l10.95-10.2q4.5-4.45 8.3-10.1 3.35-5.5 4.65-7.25-11.15-9.45-18.7-28.75-8.65-22.1-3.55-38.65 3.25-10.55 12.65-22.1 2.95-3.65 18.9-20.55 14.3-15.2 20.9-24-0.85-4.35-1.15-10-0.4-7.15 0.3-13.9 0.85-7.95 6.7-13.9 5-5 20.7-14.95"/>
   <path d="m288.7 138q0.25 0.4 0.1 1.05l-0.25 1.05q-5.05 2.2-8.95 6.05-3.85 3.8-5.7 8.35l-1.1-2.05q1.9-4.6 6.9-8.85 4.3-3.7 9-5.6"/>
   <path d="m288 137.35 1.5 0.3q-0.15 3.9 0.75 9.1l0.3 1.1 1-0.3q0.95-0.45 2.45-1.95 1.85-1.9 2.35-3.55l1.2 0.5q-0.85 2.75-3.85 4.95-2.8 2.05-3.7 1.45-0.7-0.45-1.35-4.55-0.65-3.95-0.65-7.05"/>
   <path d="m234.8 140.3q2.55-1.4 6.7-1.65 4.6-0.3 8.65 1.15l-0.05 2.05q-4.1-1.5-8.95-1.3-4.2 0.15-6.35 1.35v-1.6"/>
   <path d="m232.3 159.2q2.05 2.3 4.9 8.7 3.05 6.95 3.35 10.95l-1.8 0.85q-0.85-6.35-3.55-12.2-1.8-3.85-3.4-5.75l0.5-2.55"/>
   <path d="m248.25 190.25q-1.05 0.65-1.15 1.6-2.55-2.05-4.6-4.9l1.3-1.65 2.15 2.65q1.3 1.55 2.3 2.3"/>
   <path d="m268.85 148.3q-3.85-3.1-10.1-1.15l-0.5-1.45q6.3-2.95 11.15 0.95 5.3 4.25 8.4 16.45 3.3 13-2.2 23.4-4.85 9.25-12.6 10.5-4.1 0.7-8.6-0.95l0.8-2.1q3.85 1.35 7.05 0.95 7.3-0.95 11.95-9.85 5.1-9.75 2.15-21.4t-7.5-15.35"/>
   <path d="m248.6 147.55q0-3.05 1.85-11.55l1.3 1.2q-2 9.3-1.5 9.5 0.6 0.3 4.4-2.55l5.3-4.55 1.5 0.35-4.5 4.05q-3.95 3.25-6.35 4.4l-1.75 0.55q-0.3-0.15-0.25-1.4"/>
   <path d="m239.8 146-6.45 1.7 0.25-2.25 6.9-1.35q4-0.5 4.6 0.05 1.7 1.55-2.8 8.4-4.65 7.15-10 10.1l0.1-2.9q3.8-1.95 8-7.95 3.85-5.5 3.35-6.2l-3.95 0.4"/>
   <path d="m186.9 117.05-1.95 0.35-1.95 0.2q-11.5-4.6-24.15-6.75-15.6-2.65-21.7 1.05-2.8 1.7-4.65 5.05-1.65 3.05-2.8 8.1l-1.05-0.4-1-0.3q2.4-11.45 7.2-14.15 7.7-4.35 24.35-1.4 13.3 2.35 27.7 8.25"/>
   <path d="m327.45 138.05q1.1-3.2-2.35-11.95-3.6-9.25-7.6-10.95-2.05-0.9-4.6-1.35-3.4-0.55-7.7-0.1l-8 1q-5.55 0.55-8.65 0.05-4.75-0.8-9.15-4.25-1.9-1.5-2.55-2.9-0.7-1.45 0.8-0.2 1.8 1.5 3.9 2.5-3.3-10.25-10.05-17.65-7.05-7.75-16.1-10.25-21.5-6-43.3 18.7-11.55 13.05-18.55 15.8-3.6 1.4-9.45 2.1l-13.8 1.15q-5.55 0.5-5.6-0.4 0-0.9 5.2-1.35 16.05-1.4 23.15-4.45 8.15-3.5 16.4-13.45 9.95-12.1 21.55-17.6 11.05-5.25 21.7-3.6 10.65 1.6 18.75 9.75 8.45 8.5 12.6 22.6l3.1 1.35q4.5 1.1 11.7 0.15l10.7-1.1q3.75-0.1 7.2 0.9 1.8 0.55 3.2 1.25 3.85 2 7.35 11.4 3.55 9.4 2 13.75-2.15 6.05-8.25 10.55-6.75 4.95-12.6 3t-10.7-7.6q-4.95-5.65-9.25-6.5-5.9-1.15-21.95 2.3-8.25 1.8-16.15-3-6.65-4.05-10-10.4l0.65-2.5q4.7 8.2 11.95 11.9 6.6 3.3 12.95 1.95 15.6-3.35 23-1.95 6.15 1.15 10.45 6.75 4.05 5.35 9.45 7.05 4.7 1.5 11.05-3.2 5.9-4.35 7.55-9.25"/>
   <path d="m204.7 203.55q2.1-2.65 5.5-4.45 3.05-1.6 5-1.6l1.9 2.45q-2.5 0-5.3 1-3.35 1.25-6.2 3.7-1.55 1.35-1.7 0.7-0.15-0.6 0.8-1.8"/>
   <path d="m218 209.25-0.45-0.3q-5.95 5.15-7 6.55-0.25 0.5-0.25 4.25l0.1 12.55q0 0.4 0.65 0.5 1.75 0.2 3.8-1.3 2.4-1.75 2.95-4.6 1.2-6.1 1.2-11.7 0-4.5-1-5.95m-0.65-2.1 0.75 0.55 1.3 1.25q1.6 2.25 1 9-0.3 3.1-1.4 9.2-0.65 3.25-3.4 5.45-2.55 2-4.7 1.7l-1.4-0.35q-0.55-0.3-0.6-1.1l-0.15-6.7-0.2-7.85q-0.05-2.35 0.35-3.15 0.4-0.85 4.35-4.4l4.1-3.6"/>
   <path d="m212.35 216.25q2.15-0.45 3.95-1.45 2.1-1.25 2.65-2.85l0.45 1.1q-1.25 3.6-6.6 4.05l-1.9-0.2q-0.35-0.3 1.45-0.65"/>
   <path d="m281.1 153.95q-1 0.3-1.7 0.8-1.55-5.25-2.4-6.2l1.25-1.05q1.05 1.3 2.85 6.45"/>
   <path d="m283.45 175.35q-0.35-5.4-1.65-12.1l0.85-0.4 0.75-0.75q1.55 6.5 1.95 12.4l-1.9 0.85"/>
   <path d="m239.65 125.8q0.4-1.35-0.45-2.05-1.2-0.95-4.6-0.6-3.65 0.35-7.8 2.1-10.8 4.55-16.1 14.2-5.3 9.7-5.55 22.35-0.2 12.55 4.75 23.85 5.25 12 14.85 19.05 10.7 7.85 24.95 8.05 12.05 0.15 20.45-5.65 6.45-4.45 10.15-11.95-4.95 5.2-12.65 6.45-6.95 1.15-14.75-1.05-18.4-5.25-21.6-29.25-1.35-10.3 0.6-21.85 1.95-11.25 6.55-20.9l1.2-2.75m-3.25-4.75q3.45 0 4.65 1 1.15 0.95 0.7 3.15-0.35 1.55-1.85 4.8-10.05 21.9-6.65 42.35 3.55 21.6 20.4 26.8 9.05 2.8 17.4-0.1 8.45-2.95 12.95-10.65-2.55 12.3-11.5 19.15-9 6.95-22.8 7-14.9 0.1-26.15-8.15-10.05-7.35-15.6-20-5.15-11.85-4.95-24.8 0.15-12.95 5.65-22.3 7.45-12.55 19.45-16.7 4.35-1.55 8.3-1.55"/>
   <path d="m282.8 185 0.3-2.55 2.25-2.8-0.4 4.45-2.15 0.9"/>
   <path d="m304.35 135.75q-0.4-0.55-0.25-0.75 0.15-0.3 1 0.15 0.9 0.45 1.55 2 0.55 1.4 0.6 2.75 0.05 1.45-0.6-0.1l-2.3-4.05"/>
   <path d="m257.6 94.5q-2.15-1.7-5.65-1.45-3.7 0.2-7.65 2.6-2.25 1.4-3.3 4.95-1 3.5 0.3 3.9 10.4 3.55 16.6 9.55 1.2 1.15 3.25-3.25 2-4.3 1.55-6.6-1.35-6.75-5.1-9.7m-9.5-2.4q7-2.05 10.45 0.25 4 2.7 6.6 14.15 2.35 10.25 1.4 14.6 1.25 1.55 1.55 2.85 0.25 1.25-0.95-0.3-4.2-5.35-13.95-11.2-10.15-6.1-17.8-7.4-1.4-0.25-1.6-1.2-0.25-1 0.9-2.5 5.35-6.9 13.4-9.25"/>
   <path d="m251.65 98.05q2.95-2.5 4.95-1.05 2.15 1.55 1.7 6.95-0.5 5.2-2.8 8.45l-0.85-0.6q1.9-2.7 2.35-7.35 0.5-4.8-1.25-6.05-1.65-1.25-4.15 1.6-2.65 3-3.55 7.75l-0.95-0.45q1.1-6.35 4.55-9.25"/>
   <path d="m253.45 106.25q-0.5 1.5-1.25 2.4-0.7 0.95-1.25 0.75t-0.6-1.35q-0.05-1.2 0.45-2.7 0.55-1.5 1.25-2.4 0.75-0.95 1.3-0.75t0.6 1.35q0.05 1.2-0.5 2.7"/>
   <path d="m116.1 171.3 4.65 3.95q0.25 0.75 5.55 5.25l12.65 10.55q1.9 1.6 2.35 3.3 0.5 2-0.4 5.85-1.4 5.5-3.25 10.4-3.5 9.05-6.35 8.75-6.2-0.55-12.65-4.35-9.8-5.75-12.4-16.15-2-8 2.1-18.25 2.75-6.85 6.05-10.75l1.7 1.45q-5.4 7.25-7.1 13.85-1.6 6.4-0.05 13.5 2.2 10.1 12.2 15 5.05 2.45 10.15 2.95 1.4 0.1 3.6-4.75 2.15-4.9 3.75-11.55 0.55-2.05 0.55-3.65 0-1.85-0.7-3l-1.55-1.6q-8-6.25-12.05-10-4.2-3.85-5.5-6.15-1.6-2.8-3.3-4.6"/>
   <path d="m118.3 186.65q-3.8-5.25-3.1-12.4 0.2-1.75 0.6-1.35 0.45 0.4 0.55 2 0.4 5.5 3.75 10.15 4.5 6.25 13.35 9.05 2.9 0.95 2.55 1.45l-2.75-0.1q-10.4-2.5-14.95-8.8"/>
   <path d="m133.65 126.85q2.2 4.2 3.1 9.05 0.85 4.55 0.25 8.15-0.45 2.15-2.6 2.3l-8.6-0.45q-6.65-0.7-7.7-1.65l-1.8-7.3q-1.65-6.9-4.45-8l0.05-1.65q4.1 1.65 5.95 8.3l1.85 7q0.8 0.55 5.85 1.15l7.65 0.4q1-0.05 1.4-0.5 0.5-0.5 0.65-1.8 0.4-2.65-0.45-6.7-0.9-4.15-2.7-7.6-0.5-1-5.85-2.35-5-1.3-7.35-1.3-1.75 0-3.6 0.8-2.1 0.9-3.2 2.45l-0.9-1.05q1.3-1.95 3.6-3 2.05-0.95 4.1-0.95t7.45 1.4q6.45 1.65 7.3 3.3"/>
   <path d="m121.9 128.8q1.75 4.9 0.65 9.4-0.55 2.25-0.85 2.2t0-2.6q0.5-4.45-1.5-9.05-1.85-4.25-3.9-4.85l1.35-0.55q2.55 0.75 4.25 5.45"/>
   <path d="m105.05 117.3q5.65 3.45 6.65 5.6 1.5 3.2 1.4 8.75-0.1 6.05-2.5 7.2-2.15 1.1-8.4-1.35-4.2-1.65-7.2-3.45l-0.9-0.75q-0.3-0.55-0.35-2.05l-0.3-3.65q-0.4-2.5-1.65-4.85l1.55-1.4q1.4 2.55 1.85 5.15l0.35 3.7 0.15 1.7q0.1 0.5 0.5 0.75 2.55 1.55 6.85 3 5 1.65 6.5 0.9t1.6-5.9q0.1-4.8-0.85-7.2-0.6-1.55-5.6-4.35-3.95-2.3-8-3.95l0.7-1.85 7.65 4"/>
   <path d="m96.45 115.3 1-1.3q2.8 4.3 3 9.6 0.1 3.7-0.95 7.15l-0.75 1.4q-0.35 0.2-0.15-0.95 1.6-10.15-2.15-15.9"/>
   <path d="m47.5 130.7 2.8-0.05q4.15 6.5 8.7 10 5.4 4.1 14.3 6.55 13 3.6 28.85 12.9 13.7 8.05 18.85 13.55 3.2 3.45 3.1 4-0.15 0.6-3.35-1.75l-8.8-6.55q-5.95-4.5-10.95-7.6-14.65-9.1-30.3-12.65-14.2-3.2-23.2-18.4"/>
   <path d="m105.25 91.05-8.6 0.7q-6.5 1.6-11.25 1.1-4.3-0.45-8.4-2.75-1.75-0.95-1.95-1.45-0.25-0.5 2.5 0.5 4.8 1.8 8.6 2.05l8.7-0.8 6.35-1.35 6.6 0.2 12.8 0.6q4.5-0.8 8.9-4.4 3.05-2.45 5.1-3.25 1.9-0.75 6.65-1.5 6.3-1 10.65-5.7 2.65-2.85 7.7-11.6 0.75 0.1 1.9-0.55-4.85 10.35-8 13.85-4.3 4.75-11.9 5.95l-5.7 1.2q-2.15 0.8-5.6 3.6-4.3 3.45-7.85 4.4-5.8 1.55-14.65-0.6-2.45 11.35-8.35 22.55-7.05 13.35-14.5 16.05-2.4 0.9-2.7 0.55-0.3-0.4 2.45-2.15 6.85-4.45 12.85-16.05 5.3-10.15 7.7-21.15"/>
   <path d="m107.6 54.1q-0.25-2.35 0.3-2.2 0.6 0.2 1.1 2.8 1.8 8.5-0.8 15.1-2.45 6.4-8.75 10.3-2.35 1.45-2.4 0.85-0.05-0.55 1.05-1.5 5.55-4.8 7.95-11.4 2.35-6.35 1.55-13.95"/>
   <path d="m132.3 74.05q-2.35-2.8-2.75-7.4-0.35-4.45 1.3-6.9l1.9-0.55q-1.3 1.9-1.1 6.65 0.2 5.2 2.25 8.4 0.95 1.45 0.35 1.4-0.65-0.1-1.95-1.6"/>
   <path d="m37.05 94.45 1.1 1.3q-2.4 2-2.8 9.1-0.4 6.75 1.15 12.15 1.5 5.2 6.65 9.6 4.25 3.65 6.45 3.8 1.1 0.1 1.45-0.3l0.35-1.8q0.1-2.3-0.5-8.5-0.7-7.25-1.7-8.25-1.45-1.45-3.75-4.95l-2.15-3.45 2.65 0.45 1.5 2.5q1.8 2.7 3.15 4.05 1.75 1.75 2.4 9.9 0.55 6.8 0.2 9.75-0.25 1.8-0.7 2.2-0.4 0.4-1.9 0.35-3.95-0.15-9-4.45-5.55-4.65-7.15-10.25-1.8-6.25-1-13.85 0.75-7.75 3.6-9.35"/>
   <path d="m37.6 95.7 1.15 0.4q-2.25 6-0.15 10.3 1 2.05 3.65 4.05 2.65 2.05 5.25 2.7 2.15 0.6 1.65 0.95l-2.55-0.15q-3.3-0.8-6.1-3-2.45-1.95-3.5-4.1-1.25-2.5-1.15-5.4 0.05-3.2 1.75-5.75"/>
   <path d="m39.85 52.05q-4.75 7.4-5.4 20.3-0.55 10.7 1.45 16.8 1.85 5.75 6.35 10.7 3.75 4.15 5.35 4.2 1.05-2.2 2.1-12.7 1.1-10.75 0.4-13-1.05-3.3-2.4-10.05-1.6-8.2-1.6-12.6 0-0.65 0.55-4l0.9-4.95q-5.45 1.75-7.7 5.3m8.85-7.4 1.9-1.75-2.4 11.75q-0.45 1.6 1.45 11.5 1.75 9.2 2.6 11.5 1.05 2.85-0.3 14.35-1.4 11.3-3 14.15-0.45 0.85-1.6 0.75-2.55-0.3-7-5.85-4.65-5.85-6.6-11.8-2.5-7.7-1.6-19.05 0.95-12.1 5.3-18.95 2-3.15 6.7-5.15 2.4-1 4.55-1.45"/>
   <path d="m38.35 65.1q-1.7-8.65 0.25-12.8l1.6-1.6q-1.8 3.8 0.15 14.05 2.1 11.15 7 17.25 1.45 1.8 0.9 2.15-0.5 0.3-1.8-1.35-6.1-7.6-8.1-17.7"/>
   <path d="m125.3 46q0-1.3-0.65-1.65l0.65-1.35q0.55 0.2 1.05 1.15l0.55 1.55q0.1 2.95 2.4 5.85l-0.7 2.05q-3.05-3.1-3.3-7.6"/>
   <path d="m107 39.5q0.1 1 1.8 2.5 1.8 1.65 4.1 2.45 0.1 1.2 0.6 2.6-4.15-1.45-7-5.1-0.4-0.55 0-1.5l0.5-0.8v-0.15"/>
   <path d="m84.3 36.75q2.65 2.55 4.8 3.4 1.6 0.65 4.8 0.75 0.9 2.15 1.35 2.75l-5.4-1.05q-4.5-1.4-6.1-4.3-0.45-0.45-0.1-1.15 0.35-0.65 0.65-0.4"/>
   <path d="m63 32.35q1.05 7.2 3.85 10.15 2.35 2.6 6.8 2.7l1.4 1.75q-6 0.6-9.55-3.25-3.35-3.6-3.5-9.9-0.05-1.7 0.35-2.3 0.4-0.55 0.65 0.85"/>
   <path d="m129.45 24.05q4.15-1.25 8.55 0 5.35 1.6 7.3 6.4 2.45 5.85 1.7 12.4-0.9 7.5-5.85 10.5l7.4-1.45q3.15-0.95 8.15-3.55l-1.25 1.4-0.85 1.2q-2.3 1.6-8 3.1-5.7 1.45-7.95 0.95l1.55-1.4 2.05-1.95 1.15-2.2 0.3-1.4q1.3-3.45 1.3-8.5 0.05-5.15-1.4-7.95-2.45-4.75-6.75-6l-7.5 0.3q-0.7 7.45-2.6 11.05-0.25 0.4-0.8-0.65-0.55-1-0.35-1.65 2.1-7.6 1.55-13.45-0.65-7.15-5.35-9.3-2.45-1.15-6.7-0.5-4.9 0.7-7.6 3.55 1.35 2.1 1.5 8.25 0.1 6.25-1.25 9.3-0.4 0.65-1.05-0.2-0.65-0.8-0.55-1.45 0.75-4.4 0.25-9.45-0.55-5.4-2.25-7.5-2.15-2.25-6.3-3.35-3-0.8-5.95-0.8-7.25 0-10.9 6.8 3.65 8.4 3.55 16.05 0 2.05-0.6 0.8-0.45-0.95-0.85-2.65-1.1-4.95-2.6-9.2-1.5-4.3-2.45-5-3.35-2.15-8.05-1.95-4.75 0.25-7.85 2.8-3 2.5-6.5 10.85-3.3 7.8-5.7 17.4l-2.3 0.25q2.85-10.7 5.9-18.05 3.6-8.75 6.95-11.5 3.9-3.3 10-3.65 6.05-0.35 9 2.45 4.3-7.5 12-7.5 4.6 0 9 1.75 4 1.6 5.7 3.6 3.5-2.85 8.65-3.65 5.15-0.85 8.7 0.9 3.35 1.65 4.8 4.9 1.45 3.35 1.1 8.9"/>
   <path d="m143.15 47.35q-0.05-2.3-1.8-3.9-1.75-1.65-4.2-1.1-2.3 0.45-3.85 2.5-0.9 1.15-2.65 7.75-1.75 6.5-1.35 6.95 0.4 0.4 5.65-3.15 5.1-3.5 6.65-5.05 1.65-1.7 1.55-4m-1.1-5.3q2.55 1.65 2.8 4.8 0.2 2.7-1.25 4.8t-7.75 6.15q-6.55 4.2-7.65 3.25-0.75-0.7 0.4-7.15 1.25-7.1 3.7-10.25 1.75-2.3 4.65-2.7 2.75-0.45 5.1 1.1"/>
   <path d="m169.5 43.85q-0.45-0.25-7.05 3.05-6.55 3.35-7.05 4.1-2.45 4.1-2.45 8.45-0.05 4.3 2.15 4.45l2.65-0.25q1.65-0.55 3.4-2.25 3.95-3.75 6.65-10.85 2.45-6.4 1.7-6.7m1.15-1.6q0.9 0.75-0.65 6.75-1.95 7.4-6.9 13.3-2.25 2.65-5 3.65l-4.15 0.35q-3.2-0.8-2.85-7.2 0.3-6.3 3.55-9.65 2-2.1 8.8-4.95 6.55-2.8 7.2-2.25"/>
   <path d="m125.35 38.35q0.2-3.05-1.5-5.05-1.7-2.1-4.8-2.2-2.35-0.1-3.95 0.9-1.55 1-1.9 2.7-0.7 3.3 1 10.8 1.65 7.35 2.8 7.6 1.15 0.2 4.45-4.7 3.65-5.5 3.9-10.05m-0.75-6.75q2.85 2.2 2.65 5.6-0.3 6.3-4.45 12.55-3.95 5.95-6.2 5.1-1.8-0.6-4-7.85-2.35-7.8-1.3-13.1 0.4-1.8 2.25-3.1 2.05-1.45 4.9-1.3 3.65 0.15 6.15 2.1"/>
   <path d="m91.15 33.5q-0.15-1.95 1.5-3.95 1.8-2.25 4.9-3.1l6.05 0.25q2.65 1.15 4 4 1.65 3.4-1.35 12.45-2.95 9.05-5.6 8.9-2-0.1-5.45-6.55-3.6-6.7-4.05-12m8.1-5.7q-2.7 0.3-4.45 2.1-1.6 1.6-1.6 3.55 0 2 2.95 9.3 3.15 7.85 4.7 7.6 0.85-0.15 2.8-5.75 2.15-6.1 2.15-9.95 0-3.5-1.65-5.35-1.7-1.9-4.9-1.5"/>
   <path d="m81.3 44.2q2.35-5.55 2-9.7-0.25-2.9-2.2-4.55-2.1-1.7-5.4-1.45-2.25 0.2-3.65 1.95-1.15 1.45-1.05 2.7 0.25 2.35 3.3 9.25 3.05 6.95 3.8 6.85 1.05-0.15 3.2-5.05m1.5-15.05q2.15 2 2.25 5.4 0.1 3.55-1.4 8.05-1.45 4.35-3.7 7.4-1.2 1.6-1.85 1.6-1.35 0.05-5.1-7.5-3.7-7.5-3.95-10.75-0.3-3 2.15-4.8 2.25-1.65 5.8-1.5 3.7 0.1 5.8 2.1"/>
   <path d="m124.25 363.5 0.8-2.7q18 6.25 37.8 3.8 23-2.85 41.6-17.2 18.3-14.05 22.6-39.4 2.95-17.25-0.65-32.65-0.8-3.3 0.05-3.4 0.8-0.05 1.7 3.2 5 18.35 0.45 37.9-5.4 23.25-22.85 36.95-18.85 14.85-43.15 17.75-21 2.5-38.35-4.25"/>
   <path d="m124.4 266.3q-0.55-0.6-0.35-1.8 0.15-1.15 0.75-0.5 9.55 11.05 29.95 23.45 19.15 11.7 36.4 17.9 13.65-2.65 27.05-13 6.7-5.2 10.75-10l0.55 1.85q-5.4 7.45-16.35 14.4-11.6 7.4-22.05 9.35-10.35-3.3-28.15-12.9-26.45-14.25-38.55-28.75"/>
   <path d="m131.45 330.95 0.45-2.7q7.3 7.1 19.75 12.25 11.5 4.75 22.65 6 14.2-0.95 30.25-7.7 11.95-5.05 15.5-8.25l-1.4 2.9q-4 3.6-15.6 8.4-15.15 6.25-29 7.15-10.05-0.7-21.9-5.35-13.55-5.25-20.7-12.7"/>
   <path d="m190.25 305.85 1.15-0.1q1.1 0.4 1.05 0.75-1.65 12.15-4.95 22.2-4.4 13.35-10.9 19.45l-2.75-0.3q6.5-5.8 11.1-19.2 3.4-10 5.3-22.8"/>
   <path d="m124.7 246.55q1.3-2.1 1.85-1.75 0.5 0.35-0.45 2.4-2.2 4.9-1.4 11.15 0.5 4.35 3.5 18.45 4.45 23.7 4.35 46.25-0.15 20.35-3.75 31.6-3.4 10.45-17.15 21-3.15 2.4-20.1 13.1 1.65 3.35-6.2 16.1-5.05 8.15-10.65 15.35-3 3.85-11.1 7.6-7.6 3.55-12.55 3.95l-5.1 0.2-2.85-0.2q0.15-0.15 1.4-0.75l1.1-0.95 5.25-0.05q4.1-0.3 11.7-3.95 7.45-3.55 9.1-5.85l11.05-15.15q8.4-12.45 6.7-15.15-2.6 1.4-6.1 2.15l-2 0.15q-0.1-0.3 1.55-1.1 15.55-7.65 22.7-12.8 15.5-11.15 20.25-24.9 3.75-12.3 3.7-34.25 0-22.5-4.05-42.35-2.7-13.35-3.05-17.9-0.55-7.85 2.3-12.35"/>
   <path d="m35.9 321.05q0.6-3.45 1.85-4.05 1.1-0.6 4.4 0.45 21.1 6.7 51 7.2l5 0.5q1.4 0.5 1.5 2.4 0.2 3.85-0.9 12.7-1.45 11.4-4.05 16-2.9 5.25-20.2 10.35-16.5 4.85-23.25 3.55-5.15-0.95-11.65-9.75-5.15-6.95-6.1-10.15-0.65-2.35 0.4-13.4 0.9-10.05 2-15.8m28.05 3.6q-14.25-2.1-21.85-4.65l-3.2-0.2q-0.9 0.55-1.2 2.9-1.05 8-1.65 14.95-0.95 10.5-0.25 12.15 1.8 4.3 6.25 9.85 5.8 7.15 10.25 7.5 6.6 0.5 21.45-3.55 16.25-4.45 18.75-8.9 2-3.65 3.3-11.8 1.05-6.5 1.2-12.25 0.1-2.5-0.35-3-0.5-0.6-3.05-0.6-13.55 0-29.65-2.4"/>
   <path d="m41.55 323.2q2.2 4.9 4.05 7.6 4.45 6.4 9.9 7.4 6.85 1.3 17.95-1.2 8.9-2.05 17.8-5.75 2.5-1.05 2.75-0.35 0.3 0.75-2.4 2.05-10 4.85-19.1 7.05-10.4 2.55-17.65 1.05-5.2-1.05-9.7-7.4-3.35-4.7-4.45-8.85-0.65-2.6-0.35-3.1 0.3-0.45 1.2 1.5"/>
   <path d="m235.3 350.5q-3.85 7.25-5.35 12.6-0.4 1.4-0.25 2.2 0.2 0.95 1.25 1.65 7.25 4.7 14.2 5.85 6.95 1.1 12.85-1.55 7.95-3.55 13.75-15.05 4.8-9.5 4.8-15.4l-0.15-1.15q-1.5-4.45-7.15-7.65 1 3.55-0.9 5.25-2.75 2.6-8.05 4.15-7.95 2.4-19.4 1.6-1.6-0.1-5.6 7.5m-5.85 18.05q-2.1-1.35-2.35-2.5-0.2-0.9 0.55-3.6 1.35-4.75 5.7-12.7 4.9-8.85 7.05-8.7 11.25 0.9 19.65-1.7 7-2.1 7.6-4.7l0.25-6q2.3 1.15 4.95 3.45 4.25 3.7 5.55 7.75 0.6 1.85-0.5 6.45-1.2 4.8-3.7 9.95-6.4 13.3-15.4 17.3-6.15 2.8-14 1.4-7.65-1.35-15.35-6.4"/>
   <path d="m276.75 340.25 1.25 0.8q-1.75 6.2-9.75 8.15-8.3 2-21.4-1.2-3.6-0.85-3.5-1.45l3.75 0.15q9.95 2.05 18.05 0.9 9.95-1.4 11.6-7.35"/>
   <path d="m263.3 412.35q5.2 0.25 5.05-0.5-0.15-0.8-7.55-4.4-7.3-3.55-10-4.25l-1.2-0.9q-1.05-0.85-0.2-0.6 2.9 0.35 9.55 3.25 6.75 2.9 10.2 5.35 2.5 1.75 2.3 2.5-0.15 0.6-2.6 0.85-1.65 0.2-4.45 0l-1.1-1.3"/>
   <path d="m268.3 416.5q1.5 2.05 1.25 2.65-0.2 0.5-2.25 0.55l-8-0.75-3.1-2.25 6.45 1.05 4.45 0.25q0.1-1.3-8.85-8.55-9.1-7.45-11.4-7.15-1 0.15-3.05 1.7-2.3 1.7-3.25 3.35l-1.75-1q1.05-1.55 3.85-3.6 3-2.25 4.35-2.1 3.8 0.4 11.35 6.35 6.85 5.35 9.95 9.5"/>
   <path d="m259.15 419.65q1-0.65-9.95-7.2-11-6.55-13.4-6.75-1.95-0.15-5.55 3.7-3.4 3.6-3.5 4.85-0.05 1.3 15.75 3.7 15.7 2.35 16.65 1.7m-9.35-9q8.85 5.55 11.9 8.95 1.05 1.2 0.85 1.55t-2 0.4q-8.2 0.1-22.35-2.35-14.75-2.55-14-4.5 1.05-2.75 4.8-6.8 4.25-4.6 6.7-4.1 4.7 1 14.1 6.85"/>
   <path d="m5.9 431.6-5.9 0.2q-0.45-1.4 6.4-8.3 7.1-7.2 11.2-8.75 2.75-1.05 5.9 5.7l-1.2 0.9-1.85-3.35q-1.45-2.1-2.75-1.8-2.15 0.55-8.8 6.7-7.95 7.5-7.55 8.15 0.15 0.3 5.85-1.4l8.85-2.8-1.75 1.8q-3.5 1.7-8.4 2.95"/>
   <path d="m26.4 417.9q1.3-0.5 2.75 0.25 1.9 1 3.4 4.05l-1.2 0.95q-2.3-4.75-4.55-4-0.95 0.35-4.25 2.85-3.25 2.55-6.65 5.55-2.8 2.5-5.1 5.1-2.35 2.55-2.15 2.95l2.35-0.15 4.25-1.1 7.75-2.55-1.15 1.5-6.75 2.5q-7.15 2.2-7.9 0.45-0.65-1.6 7.65-9.4 8.2-7.7 11.55-8.95"/>
   <path d="m17.7 438.1q-0.95-1.8 7.6-10.55 8.65-8.8 11.7-8.7 6.05 0.2 9.85 11.9-1.4 2.2-14.55 5.85-13.35 3.75-14.6 1.5m27.35-7.9q-1.35-3.55-3.3-6.3-2.5-3.5-4.8-3.55-0.95-0.05-4 2.3-2.85 2.2-6.15 5.4-3.25 3.05-5.55 5.95-2.2 2.8-1.9 3.3l4.8-0.7 9.1-2.4q10.1-2.95 11.8-4"/>
   <path d="m283.3 152.85q-4.6 2.15-5.35 3-1.6 1.85 0 4.9 1.65 3.05 4.05 1.9 1-0.45 3.6-5.9 2.55-5.3 2.4-5.7-0.1-0.35-4.7 1.8m-0.1 11.4q-3.1 2.15-6-1.9-2.85-4-1-7.3 0.75-1.3 6.3-3.35 5.5-2.05 6.3-1.4 0.8 0.6-1.25 6.4-2.1 6-4.35 7.55"/>
   <path d="m278.4 179.25q-1.05 1.85 0 3.55 1.05 1.75 2.95 1.35 0.7-0.15 2.75-4.4 2-4.2 1.85-4.85-0.05-0.35-3.65 1.7-3.6 2.1-3.9 2.65m3.8 5.9q-2.8 1.05-4.65-1.2-1.9-2.3-0.2-5.3 0.25-0.5 3.25-2.35 2.95-1.9 4.9-2.8 1.75-0.85 2-0.6 0.3 0.3-0.45 2.7-2.55 8.7-4.85 9.55"/>
   <path d="m279.55 186.85q-4.75 2.6-5.15 3.25-1.05 1.85 0.25 3.7 1.25 1.8 2.95 1.45 1.25-0.25 4-5 2.55-4.4 2.6-5.5 0.05-0.45-4.65 2.1m3.65 3.6q-2.95 5.3-4.95 6-3.35 1.2-5.1-2.05-1.55-2.95-0.45-5 0.6-1.05 5.2-3.45l6.45-3q1.9-0.8 2.15-0.6 0.2 0.15-0.35 1.75-0.9 2.6-2.95 6.35"/>
   <path d="m238.55 180.55q-1.4 1.55-0.15 4.05 1.25 2.6 3.15 1.8 1.3-0.5 4.45-4.85 3.05-4.2 2.75-4.55-0.25-0.4-4.65 1.05-4.55 1.45-5.55 2.5m3.8 7.15q-3.35 1.35-5.2-2.05-1.85-3.35 0.4-6.4 1.15-1.55 11.15-3.85l2.3-0.05q0.2 0.35-0.85 2.3-1.55 2.8-3.6 5.6-2.7 3.85-4.2 4.45"/>
   <path d="m253 186.65q-4.05 3.5-5 5.6-0.9 1.9 1.15 3.65 2.1 1.8 4.15 0.25 1.6-1.75 3.1-7.1 1.4-5.1 0.85-5.45-0.4-0.25-4.25 3.05m2.95-4q1.8-1.2 2.3-1t0.35 2.2q-0.3 3.85-1.6 8.05-1.4 4.55-2.85 5.65-3.2 1.9-6.15-0.7-2.9-2.6-1.25-5.7 0.75-1.45 4.4-4.65l4.8-3.85"/>
   <path d="m254.55 144.3 1.9-1.3q3.05 3.35 4.65 7.75 1.8 4.95 1.15 9.95-0.2 1.4-0.5 1.4-0.35 0-0.4-1.9-0.1-4.8-2.5-9.75-2-4.2-4.3-6.15"/>
  </g>
  <path d="m255.9 100.8q0.6 0.2 0.7 1.1 0.1 0.8-0.2 1.6-0.7 1.85-1.85 1.4-0.5-0.2-0.65-1-0.15-0.7 0.05-1.45 0.25-0.95 0.8-1.4 0.55-0.4 1.15-0.25" fill="#fff"/>
  <g fill="#0d131a">
   <path d="m46.55 406.1q1.35-1.05 1.85-0.4 0.5 0.6-0.85 1.7l-3.8 3.6q-2.8 2.8-3.85 4.3-0.8 1.15-1.25 0.8t0.35-1.5l3.7-4.55q2.6-2.95 3.85-3.95"/>
   <path d="m34.85 406q1-1.25 1.65-0.8 0.7 0.45-0.3 1.7l-5.15 6.7q-0.8 1.15-1.25 0.8-0.45-0.3 0.35-1.45l4.7-6.95"/>
   <path d="m224.6 399.2q-1.7-0.55-1.45-1.35 0.25-0.75 1.95-0.2 1.75 0.6 3.75 1.75 1.95 1.15 2.65 2 0.9 1.05 0.8 1.25-0.15 0.25-1.35-0.4-3.2-1.95-6.35-3.05"/>
  </g>
 </g>
</svg>
