<?xml version="1.0" encoding="UTF-8"?>
<!-- Created with Inkscape (http://www.inkscape.org/) -->
<svg version="1.1" viewBox="0 0 258.38 310.06" xmlns="http://www.w3.org/2000/svg">
 <g transform="translate(12.192 3.3081)">
  <path d="m15.125 154.57c1.8545 51.944 44.447 88.39 93.447 88.39 43.82 0 81.821-33.461 83.783-89.303 1.8275-51.984-38.382-98.776-89.685-98.776-54.179 0-89.33 49.572-87.545 99.689" fill="#d59649"/>
  <path d="m29.577 201.67c-12.076 16.615-38.286 14.925-39.009 9.7861-0.66839-4.7839 17.61-30.504 27.519-36.678 0.74954 8.396 10.74 26.238 11.49 26.892" fill="#d59649"/>
  <path d="m88.277 160.38c-41.517 0-68.804 30.831-45.783 56.619 10.904 8.9821 18.85 14.434 26.21 17.801-1.5532 2.0168-4.1978 6.0106-6.079 8.464-0.80362 1.0509-0.46363 1.9086 0.92726 1.6498 4.7433-0.84613 13.63-2.9325 13.63-2.9325l-2.6311 9.8545 19.341-7.7284 6.2699 11.667 8.7507-10.781 15.538 8.8051 2.6311-11.163 17.76 6.4472s-5.0157-7.2647-7.4556-11.313c4.3342-1.7464 10.631-4.8384 16.519-8.1642 37.619-31.172-5.3974-69.226-65.628-69.226" fill="#eddbb2"/>
  <path d="m119.27 250.64c-0.0773 5.6293-0.15454 10.359 0.27045 12.185 0.49068 2.1675 4.1568 3.5159 7.3053 5.1386 4.5525 2.3568 11.913 2.9866 17.065 3.257 4.2936 0.23182 11.054 10.332 6.4878 17.501-3.597 5.6563-8.9821 6.1199-13.82 3.6511-1.0509 7.5236-12.09 7.1283-15.415 6.992-3.3266-0.15454-7.2512-5.2746-7.2512-5.2746-5.6837-0.87318-10.141-1.0509-16.465-0.19318-2.0979 2.7934-9.3638 6.2559-16.192 4.6614-6.951-1.6343-9.4728-4.2797-7.5645-8.5598-6.3788 0-13.48-1.3214-13.576-7.619-0.0773-5.9561 4.1572-14.502 11.367-14.543 6.3923-0.0274 11.613 0.39409 15.02-0.69545 3.4193-1.105 6.4333-3.7206 6.7196-5.0161 0.30909-1.5145 0.87318-15.47 0.87318-17.351l6.0655 10.986 9.0227-11.218z" fill="#f9dbe1"/>
  <g fill="#fff">
   <path d="m72.068 287.23c-0.59885 0.19318-12.799 8.1642-14.448 7.0739-1.6343-1.0895 0.81908-12.403 7.0329-15.961 3.3266 1.9782 7.4826 5.7927 7.4146 8.8867"/>
   <path d="m88.664 292.76c-0.67999-1.7038-5.1521-7.1148-10.672-4.3481-2.89 1.4566-4.9477 13.657-1.7038 16.888 0.61431 0.61432 14.352-7.592 12.376-12.54"/>
   <path d="m121.56 294.35c-0.73795-5.8201 7.5375-8.9002 10.767-4.8388 1.472 1.8545 0.50614 7.5649-0.88476 11.354-2.0593 5.5883-3.2995 4.4706-5.1382 1.785-1.0895-1.5802-4.5525-6.7196-4.7433-8.3006"/>
   <path d="m145.96 289.5c-1.6498-2.6311-0.19318-8.7093 3.3536-9.5817 3.7206-0.90022 8.8731 7.3462 10.182 12.539 0.79204 3.1488 0.30909 4.0892-3.5584 2.3722-1.7734-0.79204-8.9821-3.7477-9.977-5.3294"/>
  </g>
  <path d="m152.09 230.6c-4.9203 2.7006-9.9225 5.1521-13.725 6.7605 4.7433-1.8391 9.3368-4.1028 13.725-6.7605" fill="#d59649"/>
  <path d="m57.972 228.7c-3.7477-2.4959-7.8373-5.5338-12.458-9.241 3.8845 3.4193 8.0417 6.5148 12.458 9.241" fill="#d59649"/>
  <path d="m40.882 215.07c0.50614 0.64135 1.0354 1.2827 1.6073 1.9202 1.0354 0.85773 2.0438 1.6768 3.0252 2.4688-1.5957-1.4179-3.1334-2.8745-4.634-4.3887" fill="#eddbb2"/>
  <path d="m153.9 229.6c0.19319-0.15454 0.38637-0.30909 0.57182-0.49067-0.79204 0.50226-1.5802 1.0084-2.3838 1.4991 0.59885-0.34772 1.2132-0.6684 1.812-1.0084" fill="#eddbb2"/>
  <path d="m29.577 201.67c-0.19318-0.15454-2.6582-4.0618-4.8793-6.079-3.9119 7.1967-19.927 17.133-33.189 19.218 15.197 3.1759 30.381-2.577 38.068-13.139" fill="#ae7a39"/>
  <path d="m138.19 270.29c-5.1386-0.27046-6.8015 0.0274-11.34-2.3298-3.1488-1.6227-6.8285-2.9711-7.3192-5.1386-0.40953-1.8275-0.38636-6.5561-0.27044-12.185l-10.072-6.0786-9.023 11.217-6.0655-10.986c0 1.8816-0.54476 15.852-0.88476 17.351-0.27045 1.2943-3.2995 3.9119-6.7057 5.0157-3.4193 1.105-8.6413 0.66839-15.02 0.69543 14.693 11.122 49.027 12.662 66.705 2.4418" fill="#d8bec4"/>
  <g fill="#dcdddd">
   <path d="m72.068 286.67c-0.03865-1.1166-1.0895-2.3568-2.5075-4.0753-3.0793 4.4161-7.4421 7.4282-12.308 8.4505-0.23182 1.6768-0.11591 2.9325 0.38636 3.257 1.6498 1.0895 14.475-7.0059 14.448-7.6329"/>
   <path d="m88.664 292.76c-0.1159-0.30909-0.38636-0.73795-0.72249-1.2132-2.0979 5.4519-7.5101 8.5053-13.262 8.8596 0.11591 2.0863 0.6259 3.9119 1.6073 4.8932 0.61431 0.61432 14.352-7.592 12.376-12.54"/>
   <path d="m122.37 290.75c-0.64135 1.0084-0.98135 2.2216-0.81908 3.597 0.19318 1.5802 3.6666 6.7196 4.7433 8.3006 1.8391 2.6736 3.0947 3.8018 5.1386-1.785 0.0773-0.19317 0.15455-0.43658 0.23182-0.65295-5.4929-0.67999-7.7689-4.8252-9.2954-9.4592"/>
   <path d="m146.34 282.49c-1.2286 2.237-1.445 5.3294-0.38637 7.0194 0.98137 1.5802 8.1916 4.539 9.9774 5.3294 3.4618 1.5416 4.1978 0.93885 3.7477-1.4875-5.9561-0.84614-11.517-4.4567-13.344-10.863"/>
  </g>
  <path d="m34.61 192.16c-6.3243-4.0618-11.613-8.6823-15.538-13.725 4.3071 14.175 11.899 26.578 21.808 36.637-5.9836-7.5784-7.7828-15.511-6.2698-22.912" fill="#ae7a39"/>
  <path d="m166.72 196.91c3.4618 10.332 0.19318 21.644-12.239 32.194 13.82-8.9956 24.234-24.302 31.567-40.522-1.132-1.4295-0.9543-0.77659-1.6343-2.5075-5.5883 4.1843-11.517 7.7964-17.692 10.836" fill="#ae7a39"/>
  <path d="m166.72 196.91c-40.576 19.981-95.741 19.784-132.11-4.7503-1.5145 7.4011 0.2747 15.327 6.2741 22.905 1.4836 1.5261 3.0407 2.9866 4.634 4.3887 4.6205 3.709 8.7097 6.747 12.458 9.2413 3.8443 2.5616 7.3466 4.5525 10.727 6.106-1.5261 1.9898-4.1163 5.8881-5.9835 8.3415-0.85772 1.1166 0.0773 1.9202 2.0863 1.5416 4.9068-0.95432 12.376-2.7007 12.376-2.7007l-2.6311 9.8406 19.354-7.7144 6.2563 11.653 8.7503-10.767 15.538 8.8048 2.6311-11.163 17.76 6.4333s-5.0022-7.2647-7.4556-11.299c0.30909-0.11591 0.65295-0.27045 0.98135-0.40954 3.8018-1.6073 8.8052-4.0614 13.725-6.7601 0.80364-0.49068 1.5957-0.98135 2.3838-1.4991 12.43-10.55 15.702-21.862 12.239-32.194" fill="#c7b897"/>
  <g fill="#d8bec4">
   <path d="m71.312 283.92s0.81908 1.3909 5.3294-2.1404l-1.3098 2.3838s-0.49068 3.7747 1.1436 5.5064l-1.472 5.9836s-1.3909-1.6343-1.472-5.1656l-5.7517-0.65296 3.6936-2.2216s0.98136-0.30909-0.15454-3.6936"/>
   <path d="m62.53 273.74c-0.7225 1.4875-0.40955 4.3207 1.3098 5.0841l-3.6936 4.1978s-0.81908-4.7704 2.3838-9.2819"/>
   <path d="m89.205 293.93s6.079 1.6343 10.672-3.9389c3.4888-2.4534 7.592-2.3452 11.981 1.3909 0 0 3.8559 2.9556 9.5272 2.55l2.9441 5.5883s-4.3481 0.0773-7.551-2.7122c-3.1875-2.7934-3.4463-3.1218-3.4463-3.1218s-9.5956-1.5686-15.92 0.15454c0 0-3.0406 4.7569-11.408 5.166 0 0 3.3652-3.5313 3.2029-5.0841"/>
   <path d="m132.79 291.88c1.3098-0.40953 3.7902-3.1218 3.6936-7.3876 0 0 2.6311 4.5934 8.6958 3.1218 0 0-0.15454 3.1218 3.2029 3.8559 0 0-5.6567 5.0022-11.327 0.90022 0 0-1.3098 5.0157-4.5115 4.9203z"/>
  </g>
  <path d="m171.11 123.95 1.105-9.1455-13.916-3.6395c0.0386-1.132 0.0773-2.2641 0.0271-3.4193-0.64136-22.094-19.94-38.9-38.954-35.942 9.0227-10.55 18.823-24.016 18.823-24.016s18.06-1.2132 19.981-2.8629c1.3909-1.1977 7.0194-25.842 9.9909-39.268 1.9473-8.7777 1.0509-8.1371-5.2475-4.9068-12.022 6.1744-35.124 18.278-35.928 20.459-1.105 2.9557 3.3652 21.617 3.3652 21.617s-34.456 35.996-41.135 45.074c-4.4161-7.4417-24.397-39.063-24.397-39.063s7.8918-15.906 6.6921-18.142c-1.2132-2.2486-20.499-17.283-30.926-24.847-7.3466-5.343-8.4914-4.3207-7.3192 5.4929 1.3909 11.694 3.1759 32.984 4.7024 35.165 1.5416 2.1791 18.7 7.8099 18.7 7.8099s4.3887 8.396 10.345 19.586c-10.74-2.3993-28.173 6.4468-32.712 28.105-0.84614 4.0618-1.1707 8.0007-1.0509 11.749l-9.2684 3.284-1.0625 8.8187 11.163-5.0702c0.34772 1.7579 0.83068 3.4463 1.3909 5.0428l-13.016 11.831 5.9696 7.7693 11.204-11.695c1.3368 1.812 2.8629 3.3961 4.5386 4.6889l-7.0739 11.503 8.1506 5.0841 6.0245-13.044c0.30909 0.0773 0.59886 0.15454 0.9118 0.23182 12.758 2.6852 26.551-7.2377 30.858-27.792 0 0 8.5733-7.8508 8.6962-5.0292 0.85772 21.181 17.31 37.182 35.506 36.433 1.132-0.0386 2.2486-0.15454 3.3381-0.30909l4.566 13.957 10.045-3.3806-6.079-13.207c3.3806-1.6227 6.4198-3.8559 9.0366-6.5967l14.925 13.548 6.9378-9.6911-16.574-11.095c1.6343-2.9866 2.9016-6.2694 3.7477-9.7996z" fill="#0f141b"/>
  <path d="m101.19 110.15c1.7154 17.869 13.971 27.887 28.664 25.529 11.913-1.9086 20.949-13.902 19.79-28.282-1.4991-18.591-15.225-29.591-27.846-28.187-12.894 1.445-22.176 14.625-20.608 30.94" fill="#ea5432"/>
  <path d="m41.446 103.86c-2.5886 13.998 2.2757 26.074 11.572 28.868 7.2102 2.1675 20.39-5.0976 24.207-19.041 4.3207-15.483-0.73409-29.713-10.277-32.439-10.414-2.9711-22.626 7.0059-25.502 22.612" fill="#ea5432"/>
  <g fill="#0f141b">
   <path d="m70.744 234.43c-9.5137-4.0889-18.305-9.7316-26.006-16.792-17.678-16.233-27.901-38.627-28.773-63.093-0.96977-27.11 9.2274-54.465 27.273-73.165 5.9291-6.1609 12.499-11.231 19.573-15.184-0.38637-0.43659-0.73795-1.7309-0.99681-2.2757-28.023 15.184-49.899 47.241-48.645 90.693 1.2827 43.943 29.795 69.881 55.446 80.976 4.8658 2.1134 7.0739 0.9659 2.125-1.1591"/>
   <path d="m71.841 59.282c0.27045 0.44817 0.53318 1.7734 0.83068 2.2641 18.25-7.1283 32.317-6.3514 44.174-4.3071 0.46363-0.49068 0.9543-2.0709 1.4025-2.577-10.4-1.9357-27.942-2.5229-46.41 4.6205"/>
   <path d="m130.02 58.002c-0.38637 0.47523-0.7225 1.785-1.0895 2.2486 32.207 10.441 62.998 49.845 61.471 93.379-1.0625 30.149-14.884 69.403-54.097 83.565-5.1656 1.8661-4.9748 3.8018-0.50227 2.3568 46.001-14.925 56.891-60.503 57.791-85.964 1.6343-46.56-31.499-84.942-63.57-95.587"/>
   <path d="m28.799 201.1c-8.6958 11.954-25.242 14.407-33.679 12.294-2.3722-0.58727-3.5159-1.4566-3.597-2.0709-0.54476-3.9389 16.71-28.691 26.878-36.024-0.34772-0.56022-1.1166-1.1861-1.3368-1.785-9.6772 6.2969-30.19 31.403-29.223 38.232 0.23182 1.6498 3.7477 4.0479 6.815 4.8113 9.5272 2.3838 25.624 0.0773 35.738-13.834 0.30909-0.42113-1.2827-2.0593-1.5957-1.6227"/>
   <path d="m100.36 110.23m11.831 20.431c-5.6973-4.4022-9.3093-11.722-10.168-20.595-1.472-15.429 7.2512-28.609 19.872-30.027 5.5609-0.61432 11.286 1.2402 16.11 5.2201 6.2289 5.1386 10.059 13.016 10.808 22.217 1.0779 13.453-7.3053 25.488-19.082 27.369-6.5697 1.0625-12.635-0.38635-17.542-4.1847m9.4728-52.638c-12.553 1.4025-21.481 13.875-21.481 28.65 0 1.1707 0.0773 2.3568 0.19317 3.5584 1.5145 15.824 11.613 29.754 30.013 26.796 12.648-2.0323 21.535-15.361 20.39-29.686-0.77657-9.6501-5.1112-17.951-11.694-23.375-5.1795-4.2662-11.395-6.6106-17.406-5.9426"/>
   <path d="m67.179 80.168c-4.2662-1.2132-9.0095-0.39409-13.357 2.3027-6.5971 4.0888-11.531 12.199-13.207 21.235-2.6427 14.366 1.8275 26.987 11.517 29.904 3.257 0.98135 8.3689 0.40954 12.581-1.9357 3.3922-1.8816 6.2969-4.5799 8.6004-7.7964 0.0773-1.3368 0.23182-2.6582 0.50614-4.0892-2.3993 4.2801-5.8881 7.8238-10.086 10.141-3.7747 2.0863-7.6874 2.8359-10.468 2.0052-8.8592-2.6697-13.494-14.407-10.999-27.928 1.5802-8.5733 6.2289-15.988 12.431-19.831 3.9525-2.4534 8.2187-3.2029 12.022-2.1134 8.8867 2.5229 13.262 15.184 10.318 28.868 0.59886-0.65295 1.3098-1.2557 2.0593-1.8816 2.1791-13.671-2.6852-26.251-11.913-28.882"/>
   <path d="m172.43 114-12.962-3.3922c0.0271-1.0354 0.0386-2.0709 0.0135-3.1334-0.30909-11.272-5.4929-21.59-14.107-28.759-6.9923-5.8062-15.566-8.7912-23.798-8.1097 7.8369-9.3229 15.77-19.491 17.174-21.399 3.7361-0.27045 18.577-1.1166 20.527-2.8088 0.49067-0.42113 1.9202-2.2911 9.9909-40.549 2.1791-10.345 2.577-11.068-6.7335-6.3923-26.592 13.344-36.937 19.668-37.455 21.467-0.11591 0.40955-0.19319 1.0084-0.19319 1.785 0 4.9752 3.5043 16.533 4.2932 19.872-3.4888 3.6511-31.989 33.393-39.745 43.289-4.9883-8.3006-20.867-33.121-23.075-36.596 2.2641-4.566 6.6516-14.407 6.6516-17.978 0-0.42114-0.0773-0.74955-0.19318-0.99681-1.4604-2.7007-23.048-19.041-31.444-25.133-10.059-7.2922-9.6092-6.5017-9.6092 1.105 0 1.3909 3.5313 39.064 4.7024 40.726 2.4959 3.5313 14.066 6.2698 19.354 8.0147 0.27045 0.54476 8.4914 15.552 9.7455 17.91-5.0022-0.59886-10.849 0.85772-16.042 4.1978-8.0826 5.1931-13.766 13.971-16.029 24.725-0.80363 3.8443-1.1591 7.6194-1.105 11.231l-8.6823 3.1875c-0.30909 0.1159-0.50614 0.38636-0.54476 0.67999l-1.1861 8.5188c-0.23182 1.9086 0.44817 1.6884 1.4295 1.2132l9.9905-4.8249c0.30909 1.3639 0.6684 2.6852 1.0895 3.9528l-12.635 11.013c-0.56022 0.50613-0.47523 0.80363-0.03865 1.3638l5.97 8.3276c0.50227 0.64136 0.91182 0.51772 1.3639 0.0387l10.264-11.449c1.0895 1.3909 2.3027 2.6311 3.6125 3.709l-7.2918 10.645c-0.47523 0.77658-0.11591 0.85772 0.38636 1.1861l8.7232 5.6428c0.51772 0.30909 0.90022 0.30909 1.2016-0.38635l5.4519-12.853c0.15455 0.0386 0.30909 0.0773 0.49069 0.1159 8.1371 1.7154 16.274-1.0509 22.489-8.1506-0.0773-0.74953-0.30908-1.5532-0.58726-2.3452-6.1744 7.4146-14.312 10.182-21.508 8.6688-0.03865 0-0.0773-0.0139-0.11591-0.0274-1.4836-0.30908-1.5416-0.42112-2.3182 1.3098-1.5686 3.4888-4.5386 10.059-5.0292 11.163-1.1861-0.74955-5.5883-3.5043-6.638-4.1568 0.51772-0.83067 3.8984-6.3518 6.038-9.841 0.85772-1.4025 1.0895-1.4604-0.27045-2.6157-1.1977-1.0238-2.3182-2.1829-3.3111-3.4888-0.92726-1.2016-0.84612-1.5532-2.3297 0.0135-2.9866 3.1488-8.9956 9.4863-9.8815 10.427-0.88476-1.1436-4.1847-5.4519-4.8932-6.3788 0.76499-0.68 7.7009-6.8556 11.503-10.249 1.7039-1.4991 1.5416-0.9968 0.88476-3.0252-0.34772-1.1166-0.66839-2.2641-0.92726-3.4463-0.34772-1.6227-0.40954-1.6768-2.0168-0.9118-3.1759 1.5145-7.7689 3.6936-9.1046 4.3206 0.23182-1.9202 0.72249-6.0516 0.80362-6.8015 0.57182-0.19318 4.8523-1.7734 7.7009-2.8204 1.5532-0.56022 1.6768-0.23182 1.6498-2.3838-0.02743-3.3266 0.30909-6.774 1.0239-10.263 2.1675-10.304 7.5916-18.7 15.293-23.661 5.3975-3.4772 11.545-4.8932 16.424-3.8018 1.0895 0.23182 1.6768 0.19318 0.92726-1.1977l-10.359-19.586c-0.077298-0.19319-0.27045-0.34773-0.47523-0.40955-8.3006-2.7277-17.406-6.2698-18.264-7.4965-1.0084-1.4295-4.566-34.784-4.566-34.784-0.19318-1.7579-0.84612-7.0878 0.19318-7.6874 0.62591-0.38636 2.5886 0.6259 5.8197 2.9711 11.817 8.5729 29.672 22.721 30.667 24.561 0.53318 1.3214-3.0677 10.045-6.7057 17.378-0.15455 0.27045-0.11591 0.57182 0.03865 0.81908 0.19318 0.30909 18.495 29.264 23.798 38.068 1.132 1.8816 1.3214 1.8816 2.6852 0.15454 7.9872-10.223 40.045-43.739 40.372-44.079 0.19317-0.23182 0.27044-0.50227 0.19317-0.77659-1.7038-7.1148-4.1298-19.15-3.3922-21.127 0.66839-1.1861 25.583-15.674 35.533-20.009 6.3108-2.7547 5.8201-4.0753 4.0344 3.9799-7.4691 33.693-9.3228 38.246-9.7316 38.818-1.132 0.92726-10.767 2.0709-19.477 2.6736-0.23182 0.01349-0.46364 0.15455-0.61432 0.34773-0.0773 0.15454-9.8819 13.548-18.782 23.948-1.2402 1.4566-1.1166 1.6614 0.765 1.3754 8.3825-1.3098 17.324 1.3754 24.52 7.3602 8.2461 6.8695 13.153 16.983 13.467 27.778 0.0271 0.77658 0.0271 1.5532 0 2.3182-0.0387 1.8391 0.64136 1.7193 1.8932 2.0593 4.0344 1.1166 11.027 3.0406 11.899 3.2725-0.1159 1.0779-0.69544 5.8607-0.87317 7.3737-1.1977-0.44817-7.9463-2.9866-11.885-4.4706-1.2286-0.46364-1.785-0.77659-2.2216 0.98135-0.73795 3.0522-1.8004 5.9156-3.1604 8.5459-0.95431 1.8391-0.42114 1.7309 0.79204 2.55 4.4161 2.944 13.889 9.2684 14.898 9.9364-0.79204 1.105-5.0161 7.0194-5.8746 8.2186-0.98135-0.90022-9.4863-8.7503-13.33-12.294-1.132-1.0509-1.0509-1.5416-2.5345-0.0387-2.2641 2.2641-4.8388 4.1572-7.6739 5.6022-1.5802 0.80363-1.4025 0.95431-0.76499 2.3027 1.6227 3.4618 4.8658 10.372 5.3835 11.476-1.3484 0.45204-7.1009 2.3838-8.3415 2.7934-0.34772-1.0625-2.7122-8.5459-3.8844-12.239-0.51773-1.6498-0.30909-1.5957-2.1945-1.3754-0.79204 0.0773-1.5957 0.19319-2.3993 0.19319-8.0962 0.30908-16.07-2.7238-22.476-8.6278-2.4959-2.3182-4.6614-4.9883-6.4472-7.9324-0.19318 0.80363-0.30909 1.6614-0.38637 2.5075 1.6498 2.4263 3.1759 4.6885 5.3159 6.6786 6.7331 6.2015 15.511 9.4044 24.043 9.0501 0.98135-0.0386 1.9202-0.11591 2.8629-0.23182l4.2252 13.862c0.23182 0.69545 0.68 0.76113 1.6768 0.42113l9.9634-3.6782c0.54477-0.19318 0.84613-0.58726 0.51773-1.2827l-6.3514-12.308c3.0947-1.5261 5.8742-3.5313 8.3006-5.9426l14.052 13.521c0.46364 0.42114 0.77658 0.51773 1.2402-0.15454l7.2102-10.522c0.49068-0.67999 0.72249-0.93885-0.47523-1.7309l-15.729-9.6907c1.445-2.7393 2.577-5.7247 3.3806-8.8867 4.7159 1.8545 13.303 5.1931 13.453 5.0976 0.23181-0.15454 0.30908-0.80363 0.34772-1.0625l1.105-9.1455c0.0773-0.73795 0.15454-0.69545-0.61432-0.9118"/>
   <path d="m122.18 92.066c-3.2995 0.15455-5.8607 3.4502-5.6973 7.3876 0.15454 3.9389 2.9711 7.0329 6.2698 6.91 1.4179-0.0386 2.7547-0.70704 3.7902-1.8275 1.3098-1.4179 2.0052-3.4502 1.9202-5.5609-0.15454-3.9528-2.9866-7.0468-6.2834-6.9104"/>
   <path d="m57.693 98.906c-0.54476 2.0322-0.38636 4.1163 0.49068 5.5883 0.56022 0.96589 1.3639 1.6227 2.3298 1.8661 2.5229 0.65294 5.2475-1.5802 6.2018-5.0976 0.57182-2.0979 0.42113-4.1978-0.39409-5.6154-0.54477-0.92726-1.3754-1.5686-2.4263-1.8391-2.3182-0.59886-5.3291 1.8816-6.2015 5.0976"/>
   <path d="m68.296 233.99c-0.43659 0.19318-3.2725 3.9254-5.343 6.6516-4.0344 5.3565-3.8172 6.106 3.6241 4.5795 3.0252-0.6259 6.5967-1.3484 8.9821-1.8932-0.38636 1.3754-1.2132 3.8172-1.9086 5.9426-1.6073 4.9207 0 4.5934 3.5043 3.1488 4.8519-2.0323 15.756-6.5562 16.751-6.9649 0.39409 0.72249 2.1675 4.5795 3.4772 7.4556 2.1791 4.7704 2.5886 5.2336 5.7653 1.02 2.1134-2.8088 5.4249-7.1963 5.97-7.8644 0.81908 0.46363 7.9053 4.6479 11.803 6.9514 4.321 2.55 4.4845 3.1218 5.4249-1.7038 0.51771-2.6582 1.2673-6.5013 1.4991-7.4826 1.1436 0.42113 8.7503 3.4077 13.125 5.1247 5.0976 2.0052 6.8285 1.4295 3.2184-3.2184-2.0593-2.6582-5.4384-6.951-6.2834-7.8644-0.30909-0.34772-1.6073 0.40955-1.4566 0.57182 0.6259 0.67998 3.2995 4.2932 5.6293 7.51 1.472 2.0323 0.80362 1.7039-1.0084 1.0239-5.0432-1.8932-13.684-5.1251-13.684-5.1251-0.7225-0.27046-0.92726-0.19318-1.1166 0.58726 0 0-1.1436 4.8797-1.8661 7.9598-0.49068 2.0864-0.77659 1.9473-2.5075 0.95431-4.1163-2.3838-12.567-7.3057-12.567-7.3057-0.53318-0.30909-0.61432-0.34773-1.0625 0.19318 0 0-4.2252 5.3565-6.6102 8.3415-1.3098 1.6343-1.472 1.4295-2.3838-0.23181-1.7039-3.1875-4.6205-8.6278-4.6205-8.6278-0.38637-0.7225-0.30909-0.67999-1.0509-0.38636 0 0-10.986 4.3751-15.879 6.3378-1.812 0.72249-1.9086 0.72249-1.4991-0.83067 0.72249-2.6852 1.7734-6.6377 1.7734-6.6377 0.27045-0.99294 0.34773-1.3484-0.99681-1.0354-4.2797 1.0084-8.9002 2.0168-12.103 2.6427-1.4604 0.27045-1.5686-0.15454-0.80362-1.2557 1.812-2.577 4.9752-7.1148 5.302-7.3462 0.23182-0.19318-0.69545-1.3909-1.0895-1.2132"/>
   <path d="m73.204 289.44c-1.2943-0.0387-2.89-0.15454-4.498-0.46363-0.54477 0.40955-1.2286 0.83067-1.9898 1.2402 1.8816 0.51773 4.0479 0.83067 6.4878 0.90022z"/>
   <path d="m92.468 244.77c0 2.0323 0.39409 14.312-0.15455 17.078-0.15454 0.77658-2.6427 3.1334-6.0519 4.2252-4.0614 1.3098-11.408 0.59886-15.374 0.27045-2.7277 0.014-5.2885 1.1977-7.4011 3.3652-2.9286 2.9866-4.6614 8.2735-4.607 12.499 0.01394 0.53318 0.0773 1.0239 0.19318 1.4991 0.54477-0.79204 1.3214-1.4991 1.9357-2.4263 0.23182-3.0677 1.5686-7.0059 4.2662-9.7591 1.8275-1.8545 3.9254-2.8088 6.2289-2.8204l4.3612 0.0274c4.566 0.0387 8.1781 0.1159 10.904-0.765 3.3382-1.078 6.883-3.8172 7.2782-5.6289 0.38637-1.6768 0.90022-15.988 0.90022-17.528 0-0.46363-2.4688-0.49068-2.4688-0.0274"/>
   <path d="m74.67 293.56c-0.98135-3.597 1.4179-8.5594 2.237-10.222 1.9202-3.9393 9.309-3.9393 13.343-5.6702 2.8745-1.2286 2.152-2.1791-0.80363-1.1861-4.9612 1.6884-11.395 0.56022-14.312 5.3839-1.2827 2.1134-3.4502 8.1506-2.3297 12.253 0.38636 1.4025 1.2557 2.4534 2.3722 3.2184v-2.5886c-0.19318-0.34773-0.38636-0.74955-0.50227-1.1861"/>
   <path d="m99.243 289.94c-2.7007 4.8113-7.7828 7.619-11.49 7.9598-0.51772 1.0238-1.3368 1.445-2.152 1.7579 6.3923-0.0135 11.313-1.5416 14.529-8.2326 1.472-3.0406 0.77658-4.4296-0.88476-1.4875"/>
   <path d="m123.31 298.49c-1.9357-0.15455-3.6125-0.57181-4.634-1.2827-2.4959-1.7309-5.97-5.7108-7.2102-7.7964-1.9627-3.2841-2.3568-1.8004-0.70703 1.6498 1.3098 2.7393 4.0073 5.9836 6.747 7.8779 1.5145 1.0509 4.4161 1.4875 7.2782 1.4025-0.69544-0.47522-1.3638-0.99681-1.472-1.8545"/>
   <path d="m136.93 282.97c-1.5957-2.7122-9.2274-4.6479-12.84-7.0194-3.1604-2.0709-3.597-0.79203-0.53317 1.445 3.7631 2.7393 9.9225 4.1028 11.517 6.7196 1.9086 3.1488 1.2402 7.6055 0.0274 10.495-0.34772 0.87318-1.2016 1.6498-2.4109 2.2757-0.23182 0.69545-0.38636 1.3909-0.56022 2.0863 2.3027-0.88476 3.8559-2.152 4.5115-3.709 1.3754-3.257 2.4959-8.5598 0.27045-12.294"/>
   <path d="m144.4 269.73c-5.0702-0.27045-12.785-0.23182-17.16-2.5075-2.2486-1.105-6.4603-2.7277-6.883-4.5934-0.39409-1.7309-0.0386-5.7652 0.0387-11.081 0-0.46363-1.9627-1.3909-1.9627-0.92726-0.11591 5.8333-0.15454 10.454 0.27045 12.389 0.73795 3.2184 5.8607 4.7704 7.7415 5.6973 4.6753 2.4264 12.172 3.0677 17.392 3.3382 1.7309 0.0773 4.1708 2.3722 5.6698 5.2885 0.27045 0.54476 0.64136 1.3484 0.95431 2.3182 0.91181 0.0386 1.5957 0.27044 2.1134 0.65295-0.27046-1.3214-0.70704-2.6427-1.3754-3.9393-1.8391-3.57-4.4296-6.5152-6.815-6.6377"/>
   <path d="m147.56 290.97c-2.9016 2.7548-6.4878 2.7548-10.604 0.65294-0.42114-0.23181-0.57182 1.5957-0.46363 1.6343 6.1064 2.9556 9.5956 1.2943 12.54-1.5532-0.44817-0.30909-1.1166-0.30909-1.472-0.73408"/>
   <path d="m96.838 256.42c4.1982 3.2995 13.276 3.8443 18.768 0.67999 2.7393-1.5802 2.2641-2.3838-0.0773-1.3638-4.9207 2.152-13.412 2.2216-18.346-0.62591-2.0709-1.1977-2.2486-0.19318-0.30909 1.3098"/>
   <path d="m114.93 264.55c-5.4794 2.0168-13.902 1.8816-19.164-0.85772-2.0593-1.0779-1.8004 0.53318 0.99681 2.0864 4.7294 2.6427 12.839 2.7818 17.978 0.49067 3.6936-1.6343 3.9389-3.1063 0.19317-1.7193"/>
   <path d="m63.582 278.76c3.23 0.74954 8.0143 5.9836 7.8508 9.5137-0.0773 1.785 1.1861 0.19318 1.1861-1.6072 0-3.6125-4.7569-8.1642-7.5101-8.8048-2.9325-0.68-4.4571 0.23181-1.5261 0.90021"/>
   <path d="m63.75 278.2c-5.37 3.0677-7.3327 10.441-7.4556 14.025-0.1159 3.8018 0.73409 3.9799 4.566 2.2641 2.5345-1.1436 6.1744-3.6125 11.218-6.6651 0 0 1.0239-2.237-0.47523-1.3214-4.3751 2.6582-8.355 4.9068-10.877 6.1064-2.4534 1.1861-3.2454 1.5956-2.7393-1.8661 0.51773-3.597 2.8475-9.2549 7.0874-11.681 0.27045-0.15455-0.92726-1.0895-1.3214-0.85772"/>
   <path d="m78.74 303.34c-1.8661 1.105-2.5075 1.2248-3.0136-1.3098-0.81908-4.0479 0.46363-11.762 2.6427-12.867 4.4841-2.2486 9.6497 2.3993 9.6497 4.6344 0 3.1063-3.4347 6.0925-9.2819 9.5408m10.74-10.781c-1.1436-3.6511-7.551-6.7876-11.776-4.675-3.257 1.6343-4.4026 10.304-3.4618 15.102 0.98135 4.9883 2.1404 3.9664 6.9104 0.83067 2.3722-1.5686 9.7316-6.8015 8.328-11.259"/>
   <path d="m98.48 292.94c-0.46363 0.0773-1.6498 2.1945-1.1977 2.0863 5.8742-1.4991 11.299-1.5802 16.778 0.19318 0.45205 0.15454 0.43659-1.8661-0.0271-1.9357-5.3294-0.83066-8.6823-1.2827-15.552-0.30908"/>
   <path d="m120.73 294.45m6.2698 7.7144c-2.6427-3.8288-4.498-7.0194-4.607-7.9188-0.34773-2.6852 1.5145-4.457 3.3652-5.234 1.8932-0.80363 4.471-0.80363 5.9156 1.0239 1.0354 1.2943 0.56022 6.2289-1.0239 10.55-1.6073 4.3616-2.1675 3.7477-3.6511 1.5802m-2.0168-14.611c-3.2184 1.3484-4.2801 4.3481-3.9938 6.5697 0.19318 1.6614 2.89 6.4742 4.6205 8.996 3.1218 4.5386 3.7747 5.7927 6.6106-1.9627 1.2827-3.4772 2.3993-9.7181 0.54477-12.049-1.9898-2.4959-5.302-2.6041-7.7824-1.5532"/>
   <path d="m146.11 286.69c0-0.98135 0.19317-2.0709 0.6143-3.0677 0.62591-1.5532 1.6498-2.6041 2.7818-2.89 2.8204-0.67999 7.7963 6.4194 9.173 11.94 0.54477 2.2061-0.38636 2.0168-3.6511 0.92726-5.302-1.9898-7.8783-3.2029-8.3554-3.9799-0.38636-0.58726-0.56022-1.9897-0.56022-2.9325m13.861 4.457c-1.6768-5.2205-6.5148-13.016-10.754-11.995-4.4296 1.0779-5.9971 7.9053-3.9254 11.068 1.2827 1.9627 6.6241 4.1028 9.3229 4.9477 5.9426 1.8391 7.2786 1.9473 5.3565-4.0208"/>
  </g>
  <path d="m189.17 161.71c22.271 8.1506 58.731 40.14 54.07 49.34-2.8088 5.5474-53.457 6.3649-64.197-37.769-2.2911-7.5101-1.2286-7.2647-0.15454-9.3503 1.8391-3.5159 9.6636-2.2641 10.277-2.2216" fill="#d59649"/>
  <path d="m189.17 161.71c22.271 8.1506 58.731 40.14 54.07 49.34-2.8088 5.5474-53.457 6.3649-64.197-37.769-2.2911-7.5101-1.2286-7.2647-0.15454-9.3503 1.8391-3.5159 9.6636-2.2641 10.277-2.2216" fill="#d59649"/>
  <path d="m241.03 211.82c-2.8088 5.5474-51.248 5.6154-61.989-38.532 15.852 22.489 49.899 38.259 61.989 38.532" fill="#ae7a39"/>
  <path d="m188.84 162.62c18.468 6.7605 48.291 31.267 53.184 43.698 0.73409 1.8661 0.85772 3.3111 0.34772 4.3068-0.61431 1.1977-6.7876 2.89-16.397 1.7734-8.7912-1.0238-38.095-6.8556-46.001-39.336-1.1861-4.9207-2.9827-3.6511-1.8932 1.2943 7.551 34.129 38.109 39.99 47.214 41.04 23.307 2.7006 21.944-4.3481 19.804-9.7865-5.1521-13.057-32.153-37.946-55.215-44.761-4.4567-1.3214-5.4245 0.19318-1.0509 1.7734" fill="#0f141b"/>
  <path d="m86.528 104.47c-7.0194-0.0135-11.994 9.8135-13.03 18.85-0.88476 7.7689 0.30909 16.029 4.7843 16.233 0.84612 2.1791 5.1112 6.4333 9.173 6.2559 4.9887-0.23182 11.067-8.0413 11.108-20.527 0.02743-9.5408-4.5795-20.799-12.035-20.813" fill="#f9dbe1"/>
  <path d="m78.215 139.92c0.34773 0.50613 10.754-11.967 13.698-11.327 3.3806 1.6343 4.1708 2.8475 6.0925 2.8745 0.15455 0.64135-0.03865 1.812-0.40954 2.3182-0.34773 0.49067-3.2995 10.849-8.4644 12.063-5.1521 1.2132-6.992-2.4379-8.0007-2.7277-0.42114-0.57181-2.917-3.2029-2.917-3.2029" fill="#d8bec4"/>
  <path d="m91.582 129.65c2.0709-0.19319 3.8018 2.2756 5.3975 2.4109-1.7154 8.1371-6.2154 12.758-9.5547 12.908-3.23 0.15454-6.6512-2.9557-7.9324-4.9338 2.3838-0.67999 8.0962-9.9774 12.09-10.386m-13.276 9.064c-0.76113-0.0386-1.4295-0.38637-2.0168-1.0625-1.9202-2.2641-2.6852-7.8508-1.9627-14.243 1.0239-8.9006 5.8746-18.114 12.199-18.101 1.9086 0 3.6936 0.83067 5.3155 2.4688 3.5313 3.5429 5.8881 10.536 5.8881 17.419v0.0773c0 1.8391-0.19318 3.5313-0.42113 5.1386-1.6498 0.11591-3.9119-2.9441-5.8881-2.8088-3.6666 0.23182-10.918 11.245-13.112 11.095m-5.6154-16.602c-0.19318 1.5145-0.34772 4.457-0.34772 6.0929 0 4.2252 0.73407 8.532 2.6697 10.808 0.74954 0.87317 1.6613 1.0509 2.6697 1.2248 1.2402 2.55 5.7108 7.2512 9.9909 7.0603 6.9645-0.30909 12.103-10.699 12.131-22.271 0.02709-7.3192-2.9441-14.816-6.7741-18.673-1.9473-1.9473-4.1437-2.7238-6.5152-2.7238-7.5375-0.0139-12.744 8.9686-13.834 18.482" fill="#0f141b"/>
 </g>
</svg>
