<?xml version="1.0" encoding="UTF-8"?>
<!-- Created with Inkscape (http://www.inkscape.org/) -->
<svg version="1.1" viewBox="0 0 244.57 353.29" xmlns="http://www.w3.org/2000/svg">
 <g transform="translate(1.6457 25.011)">
  <path d="m149.9 272.11s-14.034 10.584-16.247 28.068c-2.2126 17.485 0 23.395 7.1332 26.351 7.1486 2.9553 24.386-1.9806 35.217-21.183 10.831-19.202 2.2127-38.404-10.584-38.652-10.104-0.24788-15.52 5.4157-15.52 5.4157" fill="#e50044"/>
  <path d="m70.868 169.19s-6.7155 1.9496-14.328 6.4524c-4.4253 2.6304-9.2374 5.6631-13.028 10.816-5.1681 6.1738-1.5474 24.803 6.3904 38.234 4.5955 7.783 13.245 13.663 20.533 13.524 8.5876-0.2007 12.394-4.2397 16.711-8.2318 6.0655-5.6167 8.4794-11.063 8.4794-11.063s-9.485-14.282-1.6093-40.865c0 0-17.98-8.1234-23.148-8.8661" fill="#fff"/>
  <path d="m62.249 193.8s-2.9554-9.1136-12.069-8.6185c-9.0982 0.49491-24.881 7.6746-22.158 27.821 2.4602 18.227 19.45 16.247 20.688 16.247 1.2224 0 6.8856-1.4699 10.088-12.054 0 0 10.104-7.1486 3.4506-23.396" fill="#fff"/>
  <path d="m2.0387 122.9c-1.8103-0.77368-5.4466-7.1177 3.8838-12.286 6.5451-3.6208 15.427-7.5818 28.502-3.7136l10.197 4.9515-1.0831 28.533h-3.6981s-20.873-10.243-37.801-17.485" fill="#e50044"/>
  <path d="m2.0387 122.9s11.698-11.559 30.668-5.6632c9.9338 3.0946 12.765 11.945 10.831 23.148l-5.168-0.74366s-23.999-12.425-36.331-16.742" fill="#ffe792"/>
  <path d="m42.798 140.38s-13.539-1.4699-19.45 12.317c-5.9109 13.787 1.9651 25.593 10.088 27.573 8.1235 1.9652 15.504 1.176 17.964-5.9572 0 0 4.1932-1.1915 5.6786-10.042 1.47-8.8662 8.8662-17.485-14.282-23.891" fill="#fff"/>
  <path d="m48.709 160.82s0-7.8758 12.317-7.1331c12.301 0.72823 30.033 7.6283 38.404 12.796l-5.168 12.069s-11.326-6.6535-24.865-9.6088c-13.555-2.9553-19.697-2.9553-20.688-8.1235" fill="#30353a"/>
  <path d="m170.25 221.25s0.12351 3.2184 20.316 7.4116c15.984 1.9187 32.215-14.22 39.751-28.966 6.0656-11.868 15.674-34.087 9.5161-47.286-1.7331-3.6826-16.03-7.3961-30.002-7.9531-41.298-1.6403-80.847 7.489-80.847 7.489s32.989 0.99026 44.563 34.722c5.8953 19.945-3.2958 34.583-3.2958 34.583" fill="#fff"/>
  <path d="m103.46 159.7s-16.34 22.544-10.97 49.653c5.3847 27.109 28.347 36.207 46.559 35.171 18.212-1.0211 38.281-20.471 36.408-48.416-1.8568-27.929-32.525-47.379-54.466-43.866l-4.0076 0.41772s-7.7366 6.2202-13.524 7.0403" fill="#e50044"/>
  <path d="m109.25 163.42s-10.97 3.3113-15.519 16.139c0 0-10.971 30.823 11.172 52.547 22.142 21.724 51.727 12.626 56.276-4.3325 2.615-9.748-1.4235-34.582-8.4793-45.522-6.0036-9.315-19.868-19.651-35.171-20.069 0 0-6.0036 1.4389-8.2782 1.2378" fill="#ffe792"/>
  <path d="m127.66 152.04s5.5858-54.419 40.756-74.906c18.877-10.986 50.164-5.1216 67.123 22.529 5.0752 8.278 3.4196 14.994-5.3073 17.454-15.195 4.2707-54.017 15.303-66.983 27.063-14.901 4.7502-35.588 7.8605-35.588 7.8605" fill="#e50044"/>
  <path d="m133.54 150.73s4.5645-21.957 14.081-33.623c9.5159-11.682 24.308-39.256 54.063-30.204 23.349 7.1022 28.3 22.003 28.3 22.003s1.7639 7.4736-4.5801 9.5006c-6.3439 2.0269-39.843 9.6088-63.688 27.001z" fill="#ffe792"/>
  <path d="m91.057 194.79s-11.961-7.257-31.271 0.24703c-8.8661 3.4505-5.4156 13.044 3.9457 11.326 13.678-2.5222 17.67-2.3674 28.068 0.99026z" fill="#30353a"/>
  <path d="m91.057 248.96s4.1932-12.796 11.822-15.504c7.6284-2.7233 14.529 3.4351 16.494 8.3709 0 0-19.202-4.4408-18.475 19.45z" fill="#30353a"/>
  <path d="m44.768 255.85s-5.6631-12.564 0.49492-18.707c6.1584-6.1584 18.46-8.8662 36.687 3.9302 18.212 12.812 25.113 28.811 16.742 35.944-8.3709 7.1486-35.944 8.3865-53.924-21.167" fill="#e50044"/>
  <path d="m103.98 159.44 5.1681 5.168s4.7657 1.2379 7.6592-2.2745c2.8935-3.5125 2.4912-6.406 2.0734-8.0616l-2.4911-2.4912s-6.6226 5.3847-12.41 7.6594" fill="#30353a"/>
  <g fill="#c6003a">
   <path d="m46.518 257.96s-3.3578-9.5314 1.3152-12.703c4.6574-3.172 18.119 1.3152 26.335 7.2879 8.2162 5.9725 20.177 18.815 16.262 25.036-2.2437 3.5433-8.4173 4.3015-16.262 2.2436-7.845-2.0579-22.421-8.603-27.651-21.864"/>
   <path d="m132.49 310.11s2.615 7.6594 12.146 9.5315c9.5315 1.8567 25.593-7.4736 34.382-22.978 0 0-11.032 34.552-36.811 29.894-12.147-4.116-9.7172-16.448-9.7172-16.448"/>
   <path d="m159.55 235.8c7.8139-6.5916 13.663-16.881 15.937-30.931v0.0171c-3.8064 8.3864-8.4329 14.406-13.585 18.661 0 0-0.54123 6.4523-1.6866 7.8449z"/>
  </g>
  <path d="m145.59 243.19c-7.7365 2.1662-16.247 1.8722-24.633-0.86675-0.57212-0.18527-1.1451-0.38684-1.7021-0.58755 0 0-1.3771-3.3578-4.9359-6.1429-3.5589-2.8006-9.7481-2.8471-9.7481-2.8471-7.3188-7.0402-9.1137-14.421-9.1137-14.421s8.2472 13.446 27.79 14.669c8.1544 0.49492 16.448 0.3714 24.246-1.8878 0 0-2.5531 8.3709-1.9032 12.085" fill="#dbc77f"/>
  <path d="m22.553 163.76s5.9417 8.4484 16.897 7.6592c10.955-0.77454 12.208-5.787 12.208-5.787l5.0133 1.2534s-1.0986 5.6322-5.3229 7.195c0 0-1.408 7.8293-10.645 7.52-9.2375-0.30965-18.614-5.9417-18.15-17.841" fill="#dcdddd"/>
  <path d="m28.655 208.51s3.9147 7.6592 12.672 8.1389c8.7578 0.46403 15.968-4.3789 18.305-9.547l4.5491-0.78912s-0.16982 7.5199-6.1119 10.8c0 0-1.5629 13.462-12.673 12.518-11.11-0.9286-17.052-10.955-16.742-21.121" fill="#dcdddd"/>
  <g fill="#30353a">
   <path d="m97.468 256.83s1.4081-13.121 5.7715-15.752c4.5801-2.7388 8.3865-3.2803 14.359-2.9864l1.5782 3.5125c-5.2919-1.3462-18.815 4.0848-17.856 21.183z"/>
   <path d="m55.803 204.14c1.5009-0.77369 11.063-4.2706 19.156-4.3944 11.017-0.16983 16.634 2.8006 16.634 2.8006l0.27876 4.0386s-10.831-5.5704-25.887-0.66474c-9.0055 2.9244-9.9184-2.0735-10.181-1.7795"/>
   <path d="m48.98 160.88s28.223 2.058 46.899 13.261l-1.4854 3.1874s-16.448-6.5452-25.608-8.6031c-11.914-2.6768-19.806-1.501-19.806-7.845"/>
  </g>
  <g fill="#0f141b">
   <path d="m107.91 233.43c-8.7115-7.3342-13.926-17.841-15.303-29.972-2.8315-25.051 12.301-43.34 12.951-44.099 0.34053-0.41772-1.1451-1.6711-1.501-1.2688-0.66474 0.80457-17.036 19.945-14.112 45.801 1.3153 11.605 6.4833 22.111 14.359 29.724z"/>
   <path d="m145.8 243.91c-9.5779 2.8316-22.204 1.2379-29.012-1.8259l1.8722-2.1662c8.0307 3.4969 20.038 4.0075 27.388 1.6402z"/>
   <path d="m159.52 237.21 0.40229-3.6052c17.392-15.798 16.68-38.946 9.5779-52.315-12.595-23.674-35.449-31.349-51.294-27.976-0.35596 0.0858-1.5938-1.5473-1.0677-1.6402 20.053-3.3266 42.412 4.7967 54.837 28.548 9.0364 17.284 6.1119 42.907-12.456 56.988"/>
   <path d="m160.32 233.81c3.0792-8.8507 3.7755-24.401-0.94402-38.807-3.6052-11.017-13.26-30.266-41.731-33.236l-1.5782 1.6867c10.738-0.54123 31.643 7.6747 39.812 28.95 5.3383 13.926 5.818 30.513 3.7291 37.368z"/>
   <path d="m113.92 163.67c-0.41771 0.06-0.80542 0.13895-1.176 0.23245-10.955 2.615-15.117 8.4948-18.227 16.077-0.20071 0.51035-1.5009-0.16984-1.3307-0.68018 2.6459-7.5354 6.6844-13.477 17.686-16.757z"/>
   <path d="m110.61 163.47c-10.661 36.269 3.5124 72.167 28.873 81.389 0.51036 0.18527 1.3926-0.94394 0.89762-1.1604-28.192-12.146-36.161-50.737-28.161-79.996 0.13895-0.51035-1.4545-0.74193-1.6092-0.23158"/>
   <path d="m178.02 72.199c20.332-5.4155 44.052 6.4833 56.709 23.566 6.2357 8.4175 7.6747 18.692-3.7754 21.786-14.498 3.9148-41.267 11.063-70.991 29.724-0.44861 0.27791-0.3714-2.3056-0.06-2.4911 32.912-20.873 56.183-25.221 70.805-29.105 7.8449-2.0888 8.7114-9.1911 2.4756-17.701-12.44-16.974-34.536-28.641-54.496-23.318-29.012 7.7365-45.305 46.373-50.056 76.639-0.0926 0.54124-2.1508 0.74195-2.0579 0.217 4.1003-26.165 16.696-70.047 51.448-79.316"/>
   <path d="m176.98 86.691c14.7-6.5297 30.9-0.7428 42.133 7.2259 14.313 10.15 13.895 21.709 8.4175 23.829-0.41773 0.16983-4.5337 1.2843-4.085 1.1451 7.9533-2.3364 7.226-14.421-4.9514-23.132-10.506-7.5355-25.933-13.415-40.663-6.8701-19.171 8.5102-38.451 37.522-43.557 61.537-0.0926 0.46404-1.8723 0.64931-1.7794 0.20072 5.9107-28.177 23.535-54.636 44.485-63.935"/>
   <path d="m237.61 152.66c10.197 17.392-17.175 81.11-49.901 74.256-6.6535-1.3926-11.017-3.7755-17.098-6.9629-0.46403-0.24703-0.63386 1.5627-0.18526 1.8568 4.8277 3.2339 9.3768 6.05 16.758 7.7056 33.778 7.5664 65.575-57.653 52.887-78.573-5.6322-9.2684-72.229-10.615-111.39 0.0171-0.5258 0.15439 2.5066 1.5163 3.0328 1.4235 33.685-6.4833 99.462-10.707 105.9 0.27876"/>
   <path d="m68.86 167.92c-7.1486 3.2649-21.864 10.661-28.424 19.403-0.32509 0.43317 3.8064-0.83543 4.1776-1.2379 7.6284-8.2317 18.166-12.997 25.716-16.432 0.47948-0.23159-0.97483-1.9496-1.4699-1.7331"/>
   <path d="m59.569 231.79c-2.8161-1.4081-4.905-2.7079-7.1177-4.8741-0.38684-0.3714-1.7021 0.97483-1.3617 1.4081 1.1296 1.439 2.5531 2.7852 4.1468 3.9766z"/>
   <path d="m76.574 238.38c8.665-2.3983 15.752-12.115 20.363-18.8 0.30964-0.4486-1.1451-1.671-1.4855-1.2533-5.5857 6.6536-13.725 17.407-23.04 18.32z"/>
   <path d="m4.2173 110.11c-7.9222 5.6787-8.2008 11.388 1.5318 15.535 11.342 4.8431 26.072 10.692 32.277 15.04 0.43315 0.30964 3.1102-0.77369 2.8316-0.95938-7.6748-5.3847-22.545-11.806-33.407-15.876-8.402-3.1255-8.2164-7.2723-2.94-11.063 4.5645-3.2494 16.742-10.166 31.581-3.8992 0.49492 0.20072 1.1295-1.8104 0.63388-2.027-15.736-6.638-27.682-0.20072-32.509 3.2493"/>
   <path d="m32.787 117.74c-10.723-3.1101-21.276-1.1451-29.987 5.6323-0.35596 0.27876-1.6865-0.64931-1.3306-0.94403 10.274-8.8506 20.316-9.516 31.457-6.3904z"/>
   <path d="m99.95 165.33c0.4486 0.30964-0.94394 2.5376-1.3926 2.2436-9.2994-6.4058-27.155-12.084-40.199-12.765-3.6981-0.18527-6.7463 0.99026-8.1235 3.1565-0.80455 1.2689-0.89762 2.6924-0.23158 3.9302 1.0521 1.996 3.4814 2.7233 7.5663 3.2958 9.9957 1.4236 24.664 4.8122 36.78 11.45 0.47948 0.26333-0.47948 2.2282-0.95938 1.996-12.1-5.8952-30.157-10.475-35.558-10.986-5.2608-0.51036-8.1543-2.1972-9.5623-4.8432-0.9749-1.8413-0.54122-4.3788 0.63388-6.2357 1.7638-2.7697 5.6786-4.4099 10.104-4.1313 13.276 0.8363 31.89 6.8081 40.942 12.889"/>
   <path d="m60.27 193.18c-5.6942 2.4911-7.4426 6.7308-5.6477 10.769 0.68019 1.5938 3.2029 4.4408 7.7829 3.466l1.2225-0.26331c5.787-1.2843 17.732-3.2958 27.929 0.88217 0.49492 0.20071-0.13895-2.5376-0.63386-2.7388-10.769-4.4098-21.461-1.7329-27.449-0.40227 0 0-0.94403 0.30964-1.4236 0.38684-3.1101 0.43316-4.9204-1.176-5.5395-2.0579-0.60298-0.86682-2.3054-4.4563 3.6362-7.2414 6.1429-2.8781 18.784-4.379 30.358-0.77454 0.51036 0.16983 0.58755-2.1197 0.08578-2.29-12.286-4.3324-23.767-2.5994-30.312 0.26333"/>
   <path d="m90.291 248.72c-0.10802 0.5258 1.5783 2.352 1.6867 1.8259 2.6304-12.518 8.9125-16.788 13.493-16.788 6.0191 0 11.357 5.1372 12.301 6.9939-12.425-1.3152-18.367 15.164-18.042 21.894 0.03434 0.54123 2.3674 3.0019 2.3519 2.4603-0.57211-13.183 7.4117-24.045 16.293-22.498 1.2842 0.23159 1.5474-0.9285 1.5474-1.3926 0-2.8006-6.4833-10.321-14.56-9.7791-9.5624 0.63387-14.436 14.282-15.071 17.284"/>
   <path d="m44.814 240.15c1.8723-5.0288 6.7618-7.4736 13.756-6.8701 17.949 1.5163 40.168 22.436 41.901 32.819 0.86683 5.1216-0.63388 8.9126-4.4408 11.264-8.0925 4.9979-25.005 2.2281-36.207-5.9417-13.137-9.5625-17.949-23.411-15.009-31.271m-1.733-1.3618c-4.6574 9.5625 2.2281 25.856 14.916 34.676 13.787 9.5933 31.488 11.388 39.596 5.6323 3.0018-2.1199 6.2048-5.7406 5.3383-13.245-1.5319-13.199-26.784-33.716-42.783-35.078-7.9378-0.68019-14.282 2.3365-17.067 8.015"/>
   <path d="m164.87 266.9c7.489 1.7638 15.906 6.7772 13.972 24.169-2.5685 23.132-22.715 36.285-34.289 34.614-6.2975-0.91316-10.011-4.9359-11.048-11.961-2.0425-13.802 7.6283-35.728 18.057-41.453 0.27877-0.13895-0.60299-1.8722-0.91306-1.7174-12.874 6.4522-22.08 28.022-19.899 42.752 1.4545 9.81 6.669 13.709 14.359 14.823 13.292 1.9032 34.366-14.823 36.377-36.083 2.0115-21.26-10.398-26.892-17.268-27.155-0.54124-0.0343 0.12352 1.8876 0.64931 2.0115"/>
   <path d="m42.244 139.13c-6.1119 0.0171-13.276 2.5376-17.67 9.6244-4.0539 6.5607-5.1371 14.576-2.8935 21.307 1.7795 5.3537 5.8799 9.5315 10.723 11.435 1.3307 0.52579 8.6959 2.5685 14.483-0.1544 3.0481-1.4545 4.7192-4.5027 5.9262-8.2317 0.16983-0.51036-1.207-0.68019-1.3771-0.15439-1.0367 3.1874-2.8471 5.4155-5.3847 6.6224-5.168 2.4293-11.775-0.0171-12.502-0.30965-4.3016-1.671-7.5509-5.2453-9.1446-10.027-2.0581-6.1893-1.0522-13.508 2.7077-19.574 4.6884-7.5663 12.131-9.3612 18.011-8.2472 7.5663 1.4236 12.301 6.7927 13.26 11.481l2.6304 0.77367c-1.6866-8.9435-8.7887-14.56-18.769-14.545"/>
   <path d="m56.235 165.67c-3.2494 8.9589-10.321 9.0209-13.245 8.8198-2.5376-0.18526-3.3732 1.8876-3.5278 2.8471-0.1544 0.95938 0.58755 1.0366 1.1295 0.55667 0.55667-0.49491 1.0986-1.5473 2.259-1.47 2.6305 0.18528 11.373 1.3772 14.839-10.243 0.1544-0.52579-1.2689-1.0212-1.4545-0.51034"/>
   <path d="m27.836 200.91c-4.0539 13.013 2.4138 24.448 10.336 28.161 4.4562 2.0889 10.305 1.8567 14.22-0.18528 2.6923-1.4081 6.081-5.2144 6.7464-11.945 0.05145-0.54124-1.5938-0.37141-1.6867 0.16983-0.78826 4.611-2.9553 7.9532-6.2511 9.6863-3.4041 1.7793-7.9378 1.7484-11.837-0.0926-6.9475-3.2339-12.673-12.781-8.7888-25.283 3.9921-12.812 15.303-16.293 22.034-14.916 6.5915 1.3461 8.959 7.8913 8.9899 7.9532 0.18527 0.51035 1.9806-0.24703 1.7949-0.75739-0.12351-0.32507-2.3674-7.8605-10.522-9.4697-7.4581-1.4854-20.688 2.7078-25.036 16.68"/>
   <path d="m63.634 205.56c-0.54122 8.5721-6.4678 10.754-9.3148 11.806-3.3114 1.2224-3.76 2.8006-3.9766 5.4311-0.10802 1.3461 0.88217 1.733 1.1914 0.41771 0.58755-2.522 1.1296-3.1565 3.3732-3.9921 3.0637-1.1295 10.29-3.0481 10.29-13.477 0-0.52581-1.5319-0.72651-1.5629-0.18528"/>
   <path d="m115.36 152.4c0.82085 0.66475 2.2282 2.0115 2.5222 2.816 0.41771 1.0986 0.27876 3.0946-0.95939 4.8895-1.0368 1.4854-3.1102 3.2649-7.1796 3.2649-0.68017-0.0171-3.466-3.172-4.2706-4.1003l-1.9805 0.9285c1.9186 2.2436 4.8121 4.7658 6.2511 4.9824 3.0018 0.4486 6.5606-0.06 9.0672-3.6827 1.439-2.0733 1.8569-4.7502 0.92859-7.2569-0.57212-1.5473-2.8935-3.141-3.1566-3.3576-0.41771-0.34053-1.6402 1.1759-1.2224 1.5163"/>
  </g>
  <path d="m103.98 159.44 4.3944 6.3286c1.9652 1.7174 4.6266 2.1352 7.8605-1.7949 2.9089-3.528 3.0637-8.0462 2.6459-9.7018l-2.4911-2.4912s-6.6226 5.3847-12.41 7.6594" fill="#30353a"/>
  <path d="m115.36 152.4c0.82085 0.66475 2.2282 2.0115 2.5222 2.816 1.2224 3.2649-1.6247 10.723-7.257 10.723-2.0888-0.24703-5.2144-6.8081-6.019-7.752l-1.47 1.4699c1.8413 3.8219 5.4466 7.783 6.8701 7.9997 5.756 0.88218 11.837-7.7212 9.7327-13.415-0.57212-1.5474-2.8935-3.141-3.1566-3.3577-0.41771-0.34052-1.6402 1.176-1.2224 1.5164" fill="#0f141b"/>
  <path d="m153.1 225.57s-7.0713 0.71107-8.0616 8.8351c-0.97482 8.1235-5.9726 19.496 5.3538 36.718 0 0 4.5491 7.8603 11.821 4.4409 4.1778-1.9806 2.7079-7.3963 1.4854-10.352-1.2379-2.9553-6.901-7.3807-4.6884-23.643 2.2126-16.247-1.4854-15.009-5.9107-15.999" fill="#30353a"/>
  <path d="m146.4 233.3c1.6092-6.7464 7.6901-6.7464 8.6186-6.5916 2.8471 0.46403 3.8373 2.6614 3.8373 5.9263 0 1.2997-0.27876 2.878-0.57212 4.7038-2.1353 12.626-1.7485 18.831 4.5181 28.997 0.99034 1.5782 1.5474 3.3576 1.0677 5.0752-0.54124 1.9495-1.8103 2.9399-2.5376 3.3422-2.1352 1.2069-5.2144 1.1296-7.5818-1.5938-11.373-13.106-11.048-24.448-7.3498-39.859m-2.3365 0c-1.9032 8.7423-6.1118 26.645 8.4175 41.576 3.0636 3.1255 6.9474 3.5124 9.7945 1.9032 1.2533-0.69563 2.816-2.4757 3.4815-4.843 0.603-2.1972 0.37141-4.4873-0.85088-6.5297-4.8741-8.0461-6.7309-13.322-4.2552-28.053 0.30964-1.9032 0.58755-3.5588 0.58755-5.0133 0-4.2551-2.1972-7.1486-5.9881-7.783-1.5938-0.26333-9.2839-9e-3 -11.187 8.7424" fill="#0f141b"/>
  <path d="m78.959 46.774s-34.985 0-49.127 28.78c-14.142 28.78-11.914 62.527 8.9281 83.37 0 0 6.4522 11.651 24.571 11.404 11.605-0.15439 21.554-16.03 22.328-19.604 0 0 22.653-13.23 28.285-8.6805 5.199 4.2241 4.2086 10.429 4.2086 10.429s20.347-37.724 12.41-67.494c-7.9378-29.77-26.552-37.708-51.603-38.203" fill="#e50044"/>
  <path d="m101.66 168.12c-11.961 6.8082-29.384 9.3922-47.054 1.7175 0 0 18.475 3.4196 29.028-14.39 0 0 13.369 3.9766 22.436-13.369 0 0 13.833-3.7446 12.085 10.382 0 0-6.1584 9.7791-16.494 15.659" fill="#ffe792"/>
  <g fill="#30353a">
   <path d="m44.946 91.086s-10.382 1.8414-8.2626 14.901c1.8413 11.249 9.5469 12.085 12.75 10.94 3.2185-1.145 7.6747-7.0403 5.8334-15.52-1.8413-8.4793-5.5084-10.785-10.321-10.321"/>
   <path d="m37.149-16.239s-1.145-0.46404-3.4351 2.7542c-2.2901 3.203-32.803 56.864-33.252 77.969 1.1451 5.7251 24.525 21.322 24.525 21.322l3.1102-6.576-12.301-17.036c10.414-19.465 25.02-76.592 21.353-78.434"/>
   <path d="m101.41 20.633c8.2317-20.873 16.278-45.29 13.477-44.671-3.2339-0.5721-21.028 30.003-28.734 46.698-6.4832 14.019-11.713 27.836-12.038 34.366-0.68019 13.988 6.1274 30.049 9.3458 27.976 3.2029-2.058 2.847-13.322 2.7852-18.831-0.092628-7.6748 0.5721-11.992 4.2242-19.357 3.4505-6.9939 7.0248-16.262 10.94-26.181"/>
  </g>
  <path d="m39.533 97.382c-0.95947 2.9089-0.64931 5.6787 1.408 6.3286 2.0889 0.66475 4.1004-1.2688 5.0287-4.1932 0.88219-2.8161 0.34052-5.7716-1.5317-6.3595-1.7021-0.52579-3.9457 1.3153-4.905 4.2241" fill="#9ba4a9"/>
  <path d="m44.189 63.8c-3.3885 4.1158-6.1893 11.976-2.1972 15.148 4.054 3.2185 10.12 0.61843 14.607-5.0597 4.3325-5.4775 5.6012-12.471 1.9496-15.334-3.2958-2.584-9.748-0.34052-14.359 5.2454" fill="#f19a96"/>
  <path d="m36.486 150.84s4.2396 7.3497 16.108 10.46c11.883 3.1102 23.473-4.8121 27.712-8.2008l3.0637 2.2901s-9.2529 17.268-26.15 14.56c-16.897-2.7079-19.357-14.328-20.734-19.109" fill="#c6003a"/>
  <path d="m2.2598 52.626c0 10.135 4.8122 16.061 24.742 29.476l-1.8259 3.5124s-23.225-12.673-24.448-20.471c-1.2224-7.783 1.5318-12.518 1.5318-12.518" fill="#30353a"/>
  <path d="m37.649 109.25s8.7423 9.5779 18.042-3.0946c0 0-0.01711 10.568-7.8913 10.986-7.8914 0.41773-9.1601-5.493-10.15-7.8913" fill="#30353a"/>
  <g fill="#0f141b">
   <path d="m75.358 58.803c0-20.688 36.053-83.617 39.317-81.977 0.91314 0.46403-5.756 22.235-13.849 43.077-7.0558 18.196-15.612 35.511-15.659 39.457-0.30964 20.765-0.86683 24.711-1.8103 24.804-2.3365 0.24788-7.9998-12.657-7.9998-25.361m-1.9031-3.9921c-2.0733 12.332 4.9359 31.952 9.9802 31.411 3.9611-0.43316 2.8935-21.136 3.6362-27.155 0.23245-1.996 8.0151-19.125 15.071-37.693 8.2627-21.74 15.814-45.305 13.4-46.342-4.0694-1.7639-37.569 52.949-42.087 79.78"/>
   <path d="m16.749 62.512c17.67-39.039 23.798-78.882 20.951-79.795-8.1853-2.6615-40.571 71.548-38.08 81.93 1.8103 7.52 22.483 20.765 25.979 22.483 0.52579 0.24788 1.3153-1.7485 0.94402-1.9342-3.8683-1.8877-22.668-15.195-24.556-20.672-2.6459-7.7211 27.449-75.06 34.706-80.043 0.09263-0.08578 0.18528-0.03434 0.18528 0.12352 0 5.4621-9.2529 51.495-23.024 78.635 6.8546 7.2106 10.321 11.543 13.431 17.763 0.26333 0.52579 1.5319-1.5783 1.2689-2.1044-3.3886-6.4833-7.4736-11.698-11.806-16.386"/>
   <path d="m75.906 48.299c-0.2942 0.01711-0.60298 0.05145-0.89771 0.06-45.46 3.5898-52.423 49.592-53.29 58.829-0.05145 0.60298-2.1818 0.40227-2.1353-0.18528 0.06-0.55667 1.5938-56.508 55.502-61.274 0.55668-0.05145 1.0986-0.09263 1.6401-0.12351z"/>
   <path d="m54.191 103.49c0.54124 7.5818-2.2281 12.502-7.1951 12.858-4.4562 0.32509-8.4637-4.936-8.9435-11.713-0.03434-0.4486-0.05145-0.88219-0.05145-1.3306 0-6.1893 3.0946-11.234 7.2415-11.528 4.905-0.35596 8.4174 4.2551 8.9435 11.713m-9.0672-13.555c-5.4621 0.38685-10.29 7.0867-9.6243 14.854 0.74194 8.5722 6.1583 13.787 11.62 13.4 6.1119-0.43315 10.305-6.1583 9.6862-14.87-0.60298-8.5722-5.6632-13.802-11.682-13.384"/>
   <path d="m96.607 159.5c0.16983 2.5375-1.0367 5.0752-2.4912 6.3904-1.9031 1.733-4.2087 1.4699-4.7038 1.4389-1.6711-0.0926-1.702 0.91307 0 1.2689 0.61843 0.13895 3.5898 0.83628 6.0965-1.4236 1.8567-1.702 2.8781-4.2551 2.3674-7.7056-0.26333-1.8413-1.3771-1.6402-1.2688 0.0343"/>
   <path d="m16.269 122.77c0-0.86674 0.03434-1.6247 0.06-2.2281l0.0086-0.38684c0-3.3422 1.2379-11.775 3.5279-12.224 2.3829-0.47947 7.3344 7.3808 9.5934 19.991 0.4486 2.5221 4.3635 22.22 7.52 29.306-18.46-8.3865-20.719-26.351-20.719-34.459m88.522 43.944c18.521-13.214 29.446-40.741 27.836-67.401-1.0212-16.959-4.4563-29.647-12.966-38.992-6.9321-7.6284-17.609-12.162-29.09-14.251l-0.54124 2.6149c10.63 1.6557 20.548 6.2976 27.125 13.539 8.634 9.5005 13.23 23.813 13.276 39.983 0.0514 14.576-3.7754 33.391-12.1 47.441 0.27876-3.6981-0.40229-6.2202-3.2958-7.9223-4.8121-2.8315-10.243 0.32507-10.46 0.44859-0.52579 0.27877 0.49491 1.8568 1.0212 1.5783 0.0343-0.0171 4.2705-2.2282 8.0306-0.0171 5.8024 3.4041 3.4505 12.255-9.8873 21.43-4.9515 3.4041-10.723 5.9261-17.392 7.2105-11.141 2.1353-21.57 0.46404-27.604-1.733 13.926 0.82 24.061-10.769 25.964-15.21 0.23158-0.54123-1.7331-1.3925-1.9806-0.85088-0.01711 0.06-3.0174 6.7617-12.673 11.883-9.6243 5.1061-22.715 0.16983-28.084-5.199-4.6884-4.7039-9.2221-30.823-9.9184-33.964-1.733-7.5973-5.9107-21.786-12.471-21.059-3.9302 0.43315-5.6632 11.589-5.8179 14.081-0.10802 1.8568-2.4448 27.465 24.695 39.735 5.756 9.7326 27.48 18.274 49.592 14.019 6.019-1.1604 11.651-3.7135 16.742-7.3652"/>
  </g>
  <path d="m150.88 125.12s-1.5165 20.858-12.317 31.271c-6.8856 6.6535-1.4699 11.326 0.24703 12.069 1.7331 0.72651 9.6088 1.965 15.767-10.104 6.1583-12.069 8.6185-23.38 8.8661-31.751z" fill="#30353a"/>
  <path d="m136.16 164.93c3.4969 2.4448 14.003-2.4447 24.865-23.287-2.6304 7.0712-8.2162 25.701-16.819 26.97-7.1641 1.0368-7.6902-1.7639-8.0461-3.6827" fill="#30353a"/>
  <path d="m149.92 124.03c-1.6867 16.262-5.4311 24.324-13.013 32.54-3.6362 3.9302-2.584 9.1756-0.1544 11.527 2.6615 2.5996 8.3865 3.3423 13.616-1.7484 5.493-5.3383 13.957-22.668 14.313-39.782 0.0171-0.54122-1.9188-0.66474-1.9496-0.12351-1.0368 17.036-9.7945 33.608-14.421 38.095-4.2861 4.1777-8.2164 4.1004-10.197 2.1662-1.8104-1.764-2.1507-5.1371 0.68019-8.2008 7.7986-8.4639 12.642-18.8 13.059-34.273 9e-3 -0.54122-1.8724-0.74194-1.9342-0.20071" fill="#0f141b"/>
  <path d="m189.3 171.16s-11.172 8.9589-20.935 11.326c-8.1233 1.965-13.291 1.965-11.806 9.3612 1.4699 7.3808 19.929 2.4603 23.132 0.72822 3.203-1.7175 13.307-6.638 15.767-10.088 0 0-6.1583-7.1486-6.1583-11.326" fill="#30353a"/>
  <path d="m156.61 190.73c2.5995 2.9708 23.04 1.3306 36.78-11.265l2.6303 2.4447s-13.833 14.715-34.49 13.833c0 0-4.0384-1.1605-4.9204-5.0133" fill="#30353a"/>
  <path d="m188.96 169.9c-7.6592 5.9417-17.438 11.032-27.836 12.92-4.2086 0.75738-5.9108 4.6884-5.493 7.9378 0.38685 2.9864 3.3886 6.6999 9.7482 6.1893 12.703-1.0057 24.185-7.3652 31.039-14.05 0.38684-0.3714-1.0987-1.7021-1.501-1.3462-6.2047 5.4157-17.763 12.085-29.987 13.044-4.9824 0.40228-7.0713-1.8568-7.3653-4.1004-0.30964-2.3364 1.2069-5.1371 4.2861-5.6322 12.719-2.0425 19.481-5.9417 27.511-12.549 0.41772-0.35597 0.0171-2.7388-0.40228-2.4138" fill="#0f141b"/>
  <path d="m137.34 103.69s-3.1566 14.375 12.348 19.79c15.52 5.4157 21.879 2.1198 25.082-0.58755 0 0 14.359-7.5355 3.9302-23.875-10.831-16.99-30.776-10.847-30.776-10.847s-12.796 2.4758-10.584 15.52" fill="#fff"/>
  <path d="m189.79 157.86s-4.6573 9.1292 1.7175 19.202c5.3382 8.4174 12.796 10.909 16.309 10.707 3.8219 0.60299 12.951 0.80456 18.413-8.9899 8.5102-15.226-3.4505-28.548-6.6534-30.033-3.6827-2.9553-14.762-6.8856-23.38-2.4602-4.1933 2.7078-6.6535 5.6631-6.4059 11.574" fill="#fff"/>
  <g fill="#dcdddd">
   <path d="m138.12 99.653s1.4854 6.8856 7.2879 6.6226c5.8179-0.27876 11.218-2.5686 17.825 5.4002 6.6225 7.9687 14.328 7.1486 18.104 2.29 0 0-2.5066 9.9802-11.342 8.6495-7.1641-1.0832-7.288-4.9979-10.94-8.9125-3.6516-3.9148-6.7463-4.5955-12.967-4.1932-6.2202 0.40228-9.7172-6.2049-7.9687-9.8565"/>
   <path d="m137.54 104.24c5.8488 9.315 9.8409 2.9399 16.479 5.23 4.2396 1.4699 7.0557 7.8449 9.485 10.305 2.4447 2.4758 6.7463 3.9457 12.564 1.9032 0 0-4.9358 7.1487-19.28 4.1932-16.479-3.3885-21.941-14.622-19.249-21.631"/>
   <path d="m188.99 170.54c2.6615 4.9668 7.5046 7.6283 13.075 7.9842 0 0 1.2843 7.0249 5.8799 9.4541-3.5898 0.4486-16.541-4.8431-18.955-17.438"/>
   <path d="m202.19 178.41s2.1818 1.207 7.9842 0.1235c11.76-2.2126 16.711-8.8352 18.645-13.322-0.12351 3.7291-0.23158 15.628-9.4696 20.842-8.6186 4.8741-14.313 0.82086-16.139-3.7444-0.77454-1.9651-1.0212-3.8993-1.0212-3.8993"/>
  </g>
  <g fill="#0f141b">
   <path d="m140.78 106.39c-2.8781-3.8063-2.9863-7.9996-0.29421-11.512 3.9457-5.199 14.065-8.8662 26.753-3.8219 8.3709 3.3422 13.245 12.301 13.137 20.425-0.0343 1.7948-0.82 5.1525-2.7542 7.3652-1.2843 1.2379-4.7348 3.8838-9.8409 1.9651-3.0638-1.145-4.1159-2.8006-5.7561-5.0597-1.2688-1.7795-2.7232-3.7755-5.2608-5.7251-2.9709-2.2591-6.0501-1.9187-8.7579-1.5938-2.8625 0.32508-5.3382 0.4486-7.2259-2.0425m11.497 16.773c-11.806-4.1623-14.034-11.497-14.034-16.448 0-0.21702 0.0171-0.40229 0.0343-0.61843 0.27876 0.49491 0.58755 0.99034 0.94394 1.4701 2.5685 3.3886 5.8643 3.0017 8.7732 2.6613 2.5841-0.29419 5.0134-0.5721 7.3499 1.2069 2.321 1.7795 3.6207 3.5744 4.874 5.3228 1.6711 2.321 3.0792 4.7502 6.6844 6.0965 2.1818 0.81999 4.4098 0.66475 6.1893 0.3714-0.29421 0.16983-0.54124 0.3714-0.85174 0.5258-5.0442 2.4448-11.945 2.2437-19.96-0.58755m-15.38-20.533s-0.63386 1.6556-0.78997 4.7967c-0.26333 5.5239 2.2592 13.261 15.164 17.81 8.5102 3.0018 16.433 3.2184 21.817 0.26333 5.8644-3.2029 8.3555-8.2163 8.9125-9.8409 0.38684-1.1296 0.83631-3.2339 0.91316-4.3789 0.46403-7.6592-5.2764-18.336-14.375-22.343-12.92-5.6942-26.521-1.4236-29.987 3.8992-0.71106 1.0986-2.5685 3.7291-1.6556 9.7945"/>
   <path d="m207.01 145.45c8.6186 0.72821 15.736 6.2357 19.078 14.746 2.2592 5.8025 1.9033 12.611-0.95938 18.227-2.4138 4.7039-6.4678 7.1487-11.048 8.3246-2.5067 0.64931-4.673 0.34052-6.4369-0.91306-2.5685-1.8103-4.1778-4.8586-4.5337-9.5161-0.71106-9.4541-5.9261-11.914-8.9744-14.978-2.9554-3.0637-2.7543-7.4891-1.4854-9.7327 2.4602-4.3788 7.9532-6.6999 14.359-6.1583m-16.433 5.0907c-2.0424 4.0696-1.439 8.4948 1.9342 12.162l1.6247 1.6557c3.6361 3.6362 6.5451 6.5606 7.0248 12.131 0.21702 2.5066 0.16983 7.0868 5.3537 10.94 2.2282 1.6556 5.23 2.4447 8.3092 1.6556 11.574-2.9864 18.738-17.609 13.864-30.08-3.6208-9.2221-11.357-15.195-20.734-15.984-7.2415-0.60298-14.375 1.501-17.376 7.52"/>
   <path d="m189.46 154.31c-3.4196 6.8547-2.9244 16.309 1.1605 23.303 3.8838 6.6844 11.682 11.852 20.517 11.559 0.5258-0.0171-2.8779-2.0581-3.4194-2.1045-5.9417-0.58755-11.419-5.3227-14.839-10.692-4.0385-6.2976-4.5182-13.075-1.9496-18.831 0.21614-0.49491-1.2225-3.7135-1.47-3.2339"/>
  </g>
  <path d="m19.991 107.05c-3.6672 0.15439-6.8546 15.876-3.172 29.461 4.085 14.994 21.245 23.349 23.38 23.628 0 0-3.8992-7.0558-6.3286-19.233-3.9921-20.007-9.1911-34.706-13.879-33.855" fill="#003856"/>
  <path d="m19.639 107.23c-2.9091 0.1235-6.0346 9.7016-4.2707 18.97 2.2126 11.713 8.7114 17.407 13.23 15.814 3.6671-1.2997 3.6981-9.1756 1.0986-19.171-3.2339-12.487-6.344-16.247-10.058-15.612" fill="#005981"/>
  <path d="m109.52 93.827c-4.5181-2.5685-18.475-1.965-28.548 18.444-11.156 22.637-3.2803 40.339 4.054 43.062 5.6941 2.1043 18.63-3.0638 25.825-26.49 7.3033-23.829 3.3267-32.354-1.3307-35.016" fill="#003856"/>
  <path d="m109.01 93.326c-7.2724-3.4505-19.527 2.6768-23.148 15.875-3.1101 11.342 0.603 22.405 8.0306 24.556 6.9939 2.0269 17.376-5.2765 20.022-16.51 2.8935-12.348 0.30964-21.446-4.905-23.921" fill="#005981"/>
  <path d="m110.6 107.71c-2.1353 7.2414-7.4272 9.9184-11.93 8.5877-4.3015-1.2688-6.9629-7.1795-5.1835-13.663 1.9032-6.9475 8.1389-10.259 12.363-8.8043 5.3227 1.8104 6.6535 7.4426 4.7502 13.879" fill="#fff"/>
  <path d="m26.967 117.38c1.4235 5.1525-0.97483 9.6552-3.8528 10.336-4.673 1.1295-7.8913-4.7502-8.108-7.4581 0 0 0.29421-13.276 4.6575-13.384 4.348-0.10803 7.3033 10.506 7.3033 10.506" fill="#fff"/>
  <path d="m85.405 154.32c-5.2918-1.9652-15.628-16.912-3.4659-41.577 7.3808-14.978 19.635-22.204 27.047-17.995 6.1429 3.497 6.4988 15.334 0.83628 33.762-7.7985 25.422-20.951 27.094-24.417 25.809m-5.8799-43.217c-10.336 20.966-4.7193 41.577 5.1372 45.228 8.8971 3.2958 22.018-7.8914 27.945-27.171 6.5606-21.399 3.7909-32.648-2.5531-36.269-8.6032-4.8895-23.04 3.0328-30.529 18.212" fill="#0f141b"/>
  <path d="m16.269 122.77c0-0.86674 0.03434-1.6247 0.06-2.2281l0.0086-0.38684c0-3.3422 1.2379-11.775 3.5279-12.224 2.3829-0.47947 7.3344 7.3808 9.5934 19.991 0.4486 2.5221 4.3635 22.22 7.52 29.306-18.46-8.3865-20.719-26.351-20.719-34.459m22.189 37.29c0.63386 1.0675 1.2997 2.0115 1.996 2.7232 5.8334 5.8334 20.038 11.914 30.56 6.3286 10.367-5.5085 13.57-13.384 13.694-13.678 0.23158-0.54124-1.7331-1.3926-1.9806-0.85088-0.01711 0.06-3.0174 6.7617-12.673 11.883-9.6243 5.1216-22.715 0.16983-28.068-5.1989-4.7038-4.7039-9.2375-30.823-9.9338-33.964-1.7174-7.5973-5.9107-21.786-12.471-21.059-3.9302 0.43316-5.6632 11.589-5.8179 14.096-0.10802 1.8413-2.4448 27.449 24.695 39.72" fill="#0f141b"/>
 </g>
</svg>
