<?xml version="1.0" encoding="UTF-8"?>
<!-- Created with Inkscape (http://www.inkscape.org/) -->
<svg version="1.1" viewBox="0 0 273.36 261.94" xmlns="http://www.w3.org/2000/svg">
 <g transform="translate(51.567 -16.006)">
  <path d="m94.936 68c-31.729 9.575-52.139 36.365-57.705 71.603-10.64 67.454 44.144 114.56 113.16 91.933 51.001-16.716 71.15-66.767 42.877-116.68-10.489-18.445-47.05-62.347-98.33-46.86" fill="#00afec"/>
  <path d="m201.53 179.47c1.8835-40.312-44.616-61.537-82.293-55.74-42.329 6.509-80.92 45.656-65.202 84.145 8.5954 21.042 46.57 31.06 73.299 28.72 25.236-2.2125 50.714-13.434 61.337-28.299 5.4133-7.5783 12.389-18.748 12.858-28.826" fill="#fff"/>
  <g fill="#00afec">
   <path d="m77.695 75.923c-2.3208-28.555-21.785-36.052-36.376-35.793-20.507 0.38083-39.31 21.031-39.487 44.102-0.12913 20.365 13.247 39.489 40.727 34.347 0.61379-0.87439 0.58242-2.0676 1.5226-3.7141-32.427 3.6693-39.616-23.31-32.201-40.707 6.0639-14.201 21.192-21.387 31.589-19.865 15.731 2.3103 20.291 21.793 18.413 33.618 3.2769-3.2168 12.318-10.703 15.81-11.988"/>
   <path d="m128.27 66.338c3.9724 0.90053 14.272 3.5558 18.368 5.3554-8.2951-9.5937-7.2203-24.263-1.6569-31.439 9.0959-11.701 24.556-13.553 38.344-3.2586 21.034 15.708 14.931 46.541-9.9336 52.855 0.55031 0.34348 2.5578 2.4021 4.3254 3.7455 30.183-9.6116 29.332-46.599 11.006-64.198-14.92-14.304-36.426-16.701-52.544-1.6517-7.0992 6.6091-14.067 21.211-7.9079 38.591"/>
   <path d="m101.71 235.45c0.41068 1.9153-2.0732 13.495-3.2058 16.701-2.4577 6.9152-1.2381 21.258 11.195 24.195 4.249 1.0036 14.546-3.6118 15.21-16.561 0.44803-8.5296-5.6135-18.98-3.0767-22.786-4.22 0.40322-7.3415 0.0895-10.724-0.10456-2.6948-0.14932-5.6846-0.59736-9.3988-1.4411"/>
  </g>
  <path d="m44.572 54.762c-14.417-2.6605-28.036 9.5645-32.09 19.098-12.552 29.532 11.185 45.332 32.472 40.28 2.2101-8.7827 8.2161-17.987 17.07-25.623 1.9335-15.763-3.6642-31.218-17.452-33.755" fill="#ea545e"/>
  <path d="m146.17 71.658c-5.7926-8.5878-7.7524-20.782-1.0852-30.153 8.1344-11.491 19.875-11.617 27.714-8.9433 11.733 3.9986 21.353 14.509 23.487 26.255 0.93778 5.1762-0.29794 14.596-8.3847 23.215-5.9902 6.4089-11.598 7.1863-14.412 7.7314-6.899-6.9249-20.465-16.371-27.319-18.105" fill="#ea545e"/>
  <path d="m20.427 149.73c-1.7017 19.375-18.779 33.699-38.143 31.995-19.367-1.6853-33.71-18.763-32.019-38.127 1.7044-19.382 18.779-33.705 38.162-32.01 19.364 1.6965 33.699 18.771 32 38.143" fill="#00afec"/>
  <path d="m120.3 105.82c0.44802-2.0572 0.54509-4.3227 0.15011-6.5799-6.8701-1.3777-13.482 0.35842-18.002 3.3848 0.36887 2.3103 1.2275 4.4362 2.4629 6.1902 3.5193-3.5192 10.516-5.7265 15.389-2.995" fill="#932f00"/>
  <path d="m104.91 108.81c2.2944 3.3243 5.8453 5.2792 9.6992 4.4705 2.7053-0.57497 4.8548-3.617 5.6899-7.4656-4.8733-2.7314-11.87-0.52269-15.389 2.995" fill="#ee869a"/>
  <path d="m-16.123 133.13c-4.9997 4.4093-11.68 4.4309-15.11 1.533-3.4851-2.9316-3.5299-10.063 1.0484-14.43 5.2842-5.0522 12.62-4.2361 15.558-1.7309 4.3121 3.691 3.6431 10.1-1.4962 14.628" fill="#9fd8f7"/>
  <g fill="#009ace">
   <path d="m97.39 254.27c1.2618-2.5052 4.5888-9.0642 14.364-8.3922 8.7877 0.61228 11.309 7.815 12.333 10.173 0.18444-5.5637-4.6836-16.382-3.2664-22.035-4.2569 0.29122-16.074-0.67203-20.123-1.5434 2.8765 7.2572-2.2338 16.961-3.3086 21.798"/>
   <path d="m61.679 69.343c4.2095 4.0038 12.884 0.51522 13.382-4.4757 1.3066 3.3087 2.11 7.9479 1.2855 12.059-3.8486 1.589-10.813 7.6186-13.582 11.017 0.99841-5.1821 0.39276-14.362-1.0853-18.6"/>
   <path d="m126.72 55.102c-0.41592 2.3208 0.44278 8.8589 2.1601 11.369 2.3049-0.22402 12.631 2.4126 16.959 5.0783-1.7096-2.5814-4.81-9.5936-5.1657-13.577-3.5772 3.0981-11.864 1.3329-13.953-2.8711"/>
   <path d="m-40.175 169.09c7.5312 10.779 25.699 16.561 42.369 7.8867 9.5542-4.9783 18.547-16.221 17.014-32.069-5.2078 24.361-37.327 32.532-59.383 24.182"/>
  </g>
  <path d="m58.757 213.75c15.202 18.013 48.253 27.459 76.223 21.656 35.952-7.4812 58.822-25.992 66.935-54.104-30.006 43.027-108.73 49.554-143.16 32.448" fill="#dcdddd"/>
  <path d="m15.082 68.638c2.887-3.7723 12.059-14.725 26.553-13.737 17.046 1.1537 22.467 19.875 20.152 32.171-0.98258 5.2321-1.8308 1.2253-1.9493-0.16428-1.2144-12.81-5.8689-23.434-18.937-24.422-12.544-0.94533-27.064 11.669-30.591 27.254-1.6833-8.1294 2.0362-17.531 4.7732-21.106" fill="#ca4751"/>
  <path d="m146.43 70.819c-4.7178-5.5054-10.418-19.691 0.51374-32.469 2.4814-2.8823 11.195-11.264 27.016-5.6503 14.051 4.9969 26.656 19.187 20.231 38.428 0.65859-19.796-11.53-30.855-24.862-32.983-9.2593-1.4777-15.331 2.4425-19.267 7.6134-3.3691 4.4571-5.7162 15.682-3.6326 25.062" fill="#ca4751"/>
  <g fill="#0d131a">
   <path d="m42.267 117.81c-18.732 4.4541-39.787-8.3086-38.567-34.708 0.78763-17.594 11.372-34.672 29.867-39.763 27.767-7.6784 44.068 17.944 41.591 32.627-0.47118 2.7426 3.3823 0.78777 3.3508-0.8378-0.26359-21.445-18.455-43.675-46.81-34.637-21.103 6.7353-29.959 25.689-30.781 42.719-1.3382 26.853 19.767 41.433 40.069 36.976 0.61603-0.82734 0.45324-1.017 1.2802-2.376"/>
   <path d="m176.88 92.773c1.7386-1.0797 17.704-4.3331 22.483-23.086 6.3694-24.994-18.121-59.367-49.484-48.788-21.166 7.1303-25.694 31.636-20.378 44.597 0.87455 2.1385-2.2812 1.1193-2.5262 0.30614-7.4048-24.543 6.4195-43.08 21.319-47.798 33.315-10.547 59.96 22.691 53.477 52.289-3.9303 17.95-19.035 23.661-23.816 24.109-1.1301 0.09705-1.836-1.1566-1.0747-1.6256"/>
   <path d="m44.192 113.91c-23.476 2.5313-35.417-11.504-33.262-29.445 2.1415-17.971 18.829-30.51 32.027-27.839 13.332 2.6949 20.71 16.519 17.191 32.016-0.60333 2.6284 2.5447-0.68697 3.1742-2.8718 3.5298-11.87-3.4113-31.078-19.411-32.933-17.304-2.0153-33.789 12.684-35.933 31.236-2.0573 17.863 10.121 35.396 35.928 31.434 0.0078-0.2688 0.23149-1.0536 0.28749-1.5987"/>
   <path d="m172.77 89.017c15.152-1.9653 27.011-20.513 20.373-36.729-7.028-17.191-27.195-24.501-39.526-17.575-14.341 8.0368-13.645 27.907-6.7725 35.227 3.2875 3.4983-1.3382 2.9689-2.8502 0.47788-8.145-13.303-5.0682-30.636 8.4373-38.143 14.886-8.2473 35.135 1.0357 42.806 18.671 7.6577 17.597-5.5977 37.629-20.676 39.292-0.98783-0.47043-2.1811-1.1328-1.7913-1.2194"/>
   <path d="m88.314 97.99c-2.7791 3.6588-7.5839 5.5002-11.459 2.8763-3.7853-2.5731-4.3675-7.7336-1.7649-11.648 2.6263-3.8911 8.1002-5.8721 12.015-3.2668 3.9038 2.6239 3.8222 8.6162 1.2091 12.038"/>
   <path d="m139.55 78.65c2.6553 2.9637 3.2875 8.1346 0.27404 10.747-3.8486 3.3408-9.4726 2.5157-12.889-1.2455-3.5246-3.8672-2.7054-9.7071 1.3882-11.986 4.0751-2.2655 8.8351-0.15681 11.227 2.4843"/>
   <path d="m125.13 98.761c-0.75074 0.50029-1.7175 0.73178-2.6816 0.83258-1.7834 0.15681-3.1795 0.14181-7.9579 0.10456-2.2549 0-5.113 0.8617-9.1986 2.7031-1.9862 0.89531-3.7774 1.8145-5.6451 1.8257-1.2249 0-2.247-0.26881-2.9898-0.6571-1.2381-0.61976-1.0906-1.5016 0.14479-1.2545 0.48461 0.097 1.5858 0.36588 2.7949 0.11943 1.4751-0.29868 3.2874-1.2089 4.897-2.0019 4.0962-2.0176 6.8937-2.6344 9.5332-2.7792 1.7492-0.09705 7.3258 0.39575 8.1924 0.32108 1.0221-0.08969 1.6359-0.08969 2.463-0.45549 1.6411-0.75044 1.7544 0.36588 0.44803 1.2463"/>
   <path d="m119.68 99.765c0.11881 6.7801-1.512 11.271-5.5318 12.297-3.2296 0.82138-9.038-2.0467-11.093-9.1777-0.20535-0.74671-2.0363-0.16428-1.7834 0.62723 2.268 7.1049 8.2767 11.833 13.463 10.798 4.4044-0.88259 6.6171-5.7981 6.6988-14.667 0.0157-1.4695-1.786-1.4568-1.7544 0.12694"/>
   <path d="m110.85 93.025c0.11349 0.55256-0.61604 1.1671-1.6253 1.3724-1.0089 0.21654-1.8993-0.07466-2.0284-0.61977-0.0978-0.55256 0.6138-1.1611 1.6227-1.3612 1.0063-0.21656 1.9177 0.07466 2.031 0.60482"/>
   <path d="m119.87 236.41c-2.8239 4.8312 7.4232 17.164 2.197 29.116-5.8032 13.273-18.326 11.817-22.217-2.2998-2.737-10.018 5.5423-20.716 2.2654-27.644-0.90621-1.9414-3.1689-0.7019-2.4551 1.2485 2.6026 7.1572-4.8048 11.838-2.5578 26.261 2.9451 18.801 21.919 19.936 28.22 2.3103 4.1779-11.669-5.6425-24.259-2.6026-28.102 1.7806-2.2229-1.8835-2.5574-2.8502-0.89006"/>
   <path d="m91.89 234.86c-12.465 6.1006-26.785 13.134-33.607 16.335-2.0573 0.94309-4.0488 0.30615-5.1657-1.7996-4.5993-8.7215-7.3573-13.913-9.9968-19.053-0.99304-1.9176-1.7728-1.8623-3.3691-1.1171-6.9965 3.2534-16.243 7.5021-24.103 11.114-1.9467 0.87962-3.1505 0.17921-3.2532-1.8414-0.36887-7.6209-0.63246-13.995-0.75596-19.588-0.03725-1.0797-0.24791-1.7592-1.1617-1.878-4.4465-0.61975-9.9916-1.1036-14.509-1.7017-1.6147-0.22403-1.8176-1.1985-1.5542-2.6187 0.72431-3.7933 2.4656-13.12 2.8292-15.368 0.05228-0.36589-0.2606-0.82437-0.7824-0.83482-2.8739 0-6.949 0.097-8.4479 0.19415-1.0326 0.0822-1.6201-0.29868-1.5384-1.6174 0.2367-4.1151 0.95884-10.727 1.2302-13.993 1.1327 0.19414 3.5719 0.12694 5.0023-0.20163-0.27928 3.0869-1.1854 8.1525-1.5225 10.331-0.10002 0.54509 0.12616 0.67203 0.72431 0.68696 2.542 0.0747 5.7716 0.24641 8.8641 0.35095 1.4304 0.0747 1.8175 0.69443 1.6727 1.6935-0.80345 5.6242-1.5858 10.7-2.1758 14.514-0.20535 1.2276-0.33976 2.1759 1.0589 2.329 3.6932 0.41814 7.9553 0.78777 13.943 1.6517 1.7544 0.24642 1.4962 1.8675 1.6094 3.8746 0.22626 4.8364 0.09486 7.0489 0.31063 13.418 0.07623 1.9444 0.69817 2.7636 2.4525 1.913 5.063-2.4186 15.676-6.6778 22.277-9.507 1.4725-0.64217 2.9951-0.7019 3.8802 1.0036 4.8733 9.2591 6.4723 12.28 10.466 19.659 0.41068 0.75044 1.0115 1.8623 2.6184 1.0588 9.0695-4.6415 20.352-10.363 23.718-12.183 3.1689 1.3276 5.8848 2.2521 9.2856 3.1795"/>
   <path d="m117.89 235.37c-40.928 1.4673-74.69-25.494-79.063-64.359-6.3221-56.311 23.955-99.373 69.864-104.3 17.199-1.8571 39.184 4.2174 54.844 16.071 25.807 19.54 42.034 53.282 40.559 82.772-2.002 39.574-36.895 68.046-86.204 69.812m89.45-68.144c1.5226-30.47-14.53-65.829-42.532-86.373-17.546-12.869-37.4-18.748-57.146-16.625-41.123 4.4145-78.995 43.733-72.251 107.31 4.2516 40.155 39.447 68.61 82.427 67.13 55.094-1.8727 87.629-34.203 89.502-71.442"/>
   <path d="m169.16 213.94c-0.80346-8.4796 2.5315-20.673 9.2514-30.536 9.1406-13.453 22.169-11.092 19.893 5.3763-1.3987 10.179-6.8515 27.723-14.852 33.115-7.1097 4.805-13.495 0.61231-14.293-7.9554"/>
  </g>
  <path d="m178.12 114.15c10.676-5.1605 25.647-4.9551 33.123-0.58989 3.7353 2.1811 10.985 9.0963 9.4068 16.543-1.3698 6.388-6.7357 10.571-14.288 9.2195-6.7093-1.2089-14.546-6.509-19.269-7.3468-2.592-0.45548-5.977 1.7017-7.1414 1.9071-1.1406 0.21654-6.5486-5.1022-7.0518-9.0904-0.61379-4.805 2.9688-9.5436 5.221-10.645" fill="#00afec"/>
  <path d="m53.381 141.89c-2.4024 9.0142 1.1616 21.474 7.8763 26.856 7.8815 6.3589 17.22 7.7441 23.502 3.3086 5.1868-3.6671 8.2951-13.948 0.81399-20.713-4.6257-4.2204-9.4121-3.3034-12.275-7.2759-3.5245-4.9073-1.6937-8.5557-2.2338-10.316-0.83773-2.671-7.1044-2.0019-10.59-0.14932-3.2612 1.7279-6.4565 5.9609-7.0939 8.2869" fill="#00afec"/>
  <path d="m-13.524 180.1c-1.3013 0.0747-2.8344 0-4.1568-0.097-18.511-1.6039-32.23-17.957-30.617-36.462 1.62-18.526 17.965-32.222 36.481-30.612 18.508 1.6248 32.208 17.954 30.588 36.488-1.4936 17.033-15.642 29.999-32.295 30.684m1.5437-69.709c-21.706-1.8884-37.851 14.494-39.426 32.604-1.8308 20.884 12.162 37.732 33.109 39.571 1.4699 0.12694 3.1321 0.1568 4.573 0.12694 21.593-0.78181 34.018-18.284 35.325-33.307 1.8255-20.879-12.615-37.153-33.581-38.994" fill="#0d131a"/>
  <path d="m192.73 180.13c1.7017 0.59737 2.7158 1.9205 3.2612 3.6536-1.0695-5.9953-6.3274-8.8141-12.897-2.0124-5.4897 5.7003-9.3014 14.304-10.806 22.211 0.24268-1.0192 0.51673-2.0124 0.85348-2.9345 4.1647-11.266 14.443-22.728 19.588-20.918" fill="#00afec"/>
  <path d="m171.6 212.98c0.56078 8.9985 7.3468 10.866 12.054 5.6137 8.2003-9.1538 10.034-18.547 12.215-29.203 0.41592-2.0183 0.43757-3.9411 0.12914-5.6137-0.54509-1.7331-1.5595-3.0555-3.2638-3.6536-5.1446-1.81-15.423 9.6519-19.585 20.921-0.33976 0.91919-0.61379 1.9123-0.85348 2.9316-0.61902 3.1951-0.85871 6.2775-0.69519 9.0037" fill="#009ace"/>
  <path d="m53.766 152.54c1.0431 7.1094 5.5371 15.157 14.338 19.114 4.9233 2.2125 16.269 3.5506 19.048-5.1448-3.0373 2.7815-9.0353 4.9178-17.112 0.82735-13.861-7.0235-16.048-18.909-16.567-22.102-0.24194 1.5681-0.23149 3.6014 0.29271 7.305" fill="#009ace"/>
  <path d="m70.076 137.29c-0.46371 6.9809 4.1252 10.073 9.57 11.957 6.035 2.099 12.102 10.823 6.3906 18.703-2.7475 3.7903-10.434 7.5626-20.694 1.4352-8.0106-4.7968-12.831-15.873-11.364-25.138 0.49805-3.172-1.1933-3.2429-1.7597-0.67205-2.2338 10.278 1.923 22.164 11.909 28.27 6.1851 3.7828 16.561 6.7853 23.55-1.0805 7.2783-8.1786 2.3444-19.853-6.791-23.47-7.4469-2.9376-9.0669-7.0489-9.0669-10.152 0.01565-2.7815-1.5437-2.7479-1.7438 0.14933" fill="#0d131a"/>
  <path d="m180.97 133.73c1.3487-0.58243 3.8538-1.4807 6.2088-1.4195 2.5789 0.0747 16.567 7.6918 23.961 7.2124 6.0771-0.41068 8.9721-6.1932 7.9658-10.424-0.95355 2.7583-3.1136 4.9073-6.8226 5.9639-7.8815 2.2625-19.896-9.8938-30.789-4.4466-3.5746 1.7704-3.6326 4.4362-0.52419 3.1138" fill="#009ace"/>
  <path d="m182.29 131.93c4.9997-1.7383 7.5417-0.20909 12.038 1.7704 8.7535 3.859 16.646 7.9442 22.206 1.306 5.3-6.3373 0.97205-14.812-4.4545-18.671-9.5306-6.8122-24.027-5.0895-35.053-0.82735-2.2127 0.83781-3.601 0.19415 0.0671-1.9048 3.7405-2.1602 21.83-8.4161 35.651 0.23895 10.316 6.456 11.277 16.74 5.5609 23.31-4.0857 4.705-10.676 5.4345-24.567-1.3411-3.6642-1.7697-6.9622-3.7402-11.285-2.1094-3.7195 1.409-4.6599-0.224-0.16353-1.7704" fill="#0d131a"/>
  <path d="m119.97 104.96c-2.0468-0.96698-4.2648-1.7226-6.9464-1.2963-3.082 0.48536-5.6794 2.0579-7.8816 4.3361-1.1116 1.1432-0.2367 1.9466 0.65337 1.1328 1.8624-1.707 4.6573-3.0451 7.4864-3.5036 1.5647-0.23894 4.1198-0.35841 6.4353 0.86394 0.81399 0.44056 1.4831-0.95056 0.25314-1.533" fill="#0d131a"/>
  <path d="m86.334 90.051c-0.16354 1.9437-1.8835 3.3953-3.8433 3.2213-1.9546-0.17174-3.3744-1.8884-3.2111-3.8373 0.171-1.9414 1.873-3.3826 3.8275-3.2063 1.952 0.16428 3.3955 1.8839 3.2269 3.8224" fill="#fff"/>
  <path d="m134.93 80.584c-0.16877 1.9601-1.9045 3.4109-3.8644 3.2452-1.9335-0.17921-3.3902-1.8966-3.2243-3.8672 0.16877-1.9519 1.8966-3.3953 3.8485-3.2265 1.9599 0.17174 3.4139 1.8884 3.2401 3.8485" fill="#fff"/>
 </g>
</svg>
