<?xml version="1.0" encoding="UTF-8"?>
<!-- Created with Inkscape (http://www.inkscape.org/) -->
<svg version="1.1" viewBox="0 0 136.09 150.71" xmlns="http://www.w3.org/2000/svg">
 <g transform="translate(-20.748 -12.134)">
  <g transform="matrix(.88839 0 0 -.88839 86.8 12.84)">
   <path d="m0 0c-13.924-12.508-21.195-23.987-18.243-50.453 1.476-0.663 3.033-1.553 4.665-4.322 13.957 13.734 19.528 34.253 13.578 54.775" fill="#485157"/>
  </g>
  <g transform="matrix(.88839 0 0 -.88839 71.924 32.932)">
   <path d="m0 0c-0.385-1.28-1.772-6.482-2.052-8.624 2.786 1.491 7.173 2.358 10.374 1.131 2.788-1.069 5.728-3.987 6.769-6.503 0.91 2.206 2.534 7.263 2.765 8.786-2.279 6.507-12.092 8.507-17.856 5.21" fill="#ffe100"/>
  </g>
  <g transform="matrix(.88839 0 0 -.88839 79.678 39.256)">
   <path d="m0 0c-3.201 1.228-6.712 1.009-9.5-0.481 4e-3 0.024 8e-3 0.051 0.011 0.077-0.342-0.392-0.703-0.762-0.955-1.255l0.528-0.024c2.571 1.875 6.3 2.004 9.558 0.755 3.745-1.435 5.332-3.83 6.324-6.463 0.287 0.352 0.537 0.635 0.573 1.274-1.087 2.336-3.891 5.102-6.539 6.117" fill="#0f141b"/>
  </g>
  <g transform="matrix(.88839 0 0 -.88839 82.225 32.719)">
   <path d="m0 0c1.9-0.701 4.386-2.242 5.55-5.567 0-3e-3 -1e-3 -6e-3 -1e-3 -9e-3 0.406 0.132 0.755 0.213 1.147 0.333-0.547 1.125-2.602 4.846-6.451 6.153-7.7 2.613-12.515-1.104-12.515-1.104-4e-3 -0.012-9e-3 -0.029-0.013-0.04 0.316-0.338 0.93-0.347 1.469-0.459 3.097 1.632 7.442 1.937 10.814 0.693" fill="#0f141b"/>
  </g>
  <g transform="matrix(.88839 0 0 -.88839 97.705 122.71)">
   <path d="m0 0c-1.289 2.147-5.383 4.186-7.523 4.159-0.084-0.011-11.388-1.523-12.851-1.72 0.412-0.975 1.253-2.964 1.253-2.964 1.187-2.833 1.509-4.824 2.864-7.71l0.789-1.875c1.183-2.009 0.686-4.259 0.346-5.018-1.544-3.441-5.288-8.411-5.288-8.411-0.747-1.254-2.118-1.665-3.644-2.119-0.629-0.187-1.472-0.537-1.916-0.741-2.045-0.94-1.843-4.965-0.993-5.404 1.258-0.65 5.754-1.415 7.185-1.36s4.89 1.376 7.403 3.196c0.728 0.527 1.185 1.654 1.728 2.984 0.367 0.9 0.831 2.119 1.426 3.18 1.279 2.274 3.267 4.533 4.967 6.642 1.1 1.365 2.621 3.058 2.784 3.506 0.176 0.482-0.41 2.032-0.68 3.029-0.29 1.072-0.077 2.423-0.032 3.438 0.131 2.968 1.018 4.714 1.41 5.415 0.357 0.641 1.24 0.994 0.772 1.773" fill="#485157"/>
  </g>
  <g transform="matrix(.88839 0 0 -.88839 97.705 122.71)">
   <path d="m0 0c-1.289 2.147-5.383 4.186-7.523 4.159-0.084-0.011-11.388-1.523-12.851-1.72 0.412-0.975 2.544-7.649 3.579-9.931 5.777 0.466 10.591-2.883 13.686-8.349 0.567 0.729 1.322 1.979 1.419 2.243 0.176 0.481-0.165 1.617-0.435 2.613-0.29 1.072-0.317 2.125-0.272 3.14 0.131 2.967 1.233 5.371 1.625 6.072 0.357 0.641 1.24 0.994 0.772 1.773" fill="#30363a"/>
  </g>
  <g transform="matrix(.88839 0 0 -.88839 79.715 151.7)">
   <path d="m0 0c-0.666 0.586-0.875 2.111-0.186 2.943 0.427 0.517 1.194 1.08 2.149 1.641 1.467 0.861 0.908 1.453-0.381 0.794-0.661-0.336-2.397-0.828-2.915-1.764-0.568-1.028-0.681-2.437 0.065-3.777 0.53-0.126 1.3 0.136 1.268 0.163" fill="#0f141b"/>
  </g>
  <g transform="matrix(.88839 0 0 -.88839 94.792 129.68)">
   <path d="m0 0c-0.045-1.015 0.252-2.124 0.542-3.196 0.27-0.996 0.548-2.027 0.373-2.508-0.164-0.448-1.302-1.86-2.401-3.224-1.7-2.11-3.815-4.734-5.093-7.008-0.596-1.061-1.012-2.08-1.379-2.98-0.543-1.331-1.017-2.324-1.7-2.909-3.782-3.238-10.385-3.634-13.299-1.539-0.199 0.143-0.525 0.582-0.592 1.411-0.016 0.199-0.018 0.407-7e-3 0.616 0.057 1.017 0.444 2.079 1.183 2.419 0.444 0.204 1.037 0.381 1.665 0.568 1.526 0.454 3.257 0.969 4.003 2.224 0 0 3.847 4.853 5.391 8.293 0.779 1.74 0.666 4.02-0.411 5.849l-0.451 0.908c-1.356 2.887-2.479 5.561-3.666 8.394 0 0-0.841 1.989-1.253 2.964 0.865 0.116 5.161 0.692 8.552 1.145 2.35 0.315 4.264 0.571 4.299 0.575 2.14 0.027 6.234-2.011 7.523-4.159 0.469-0.779-0.414-1.132-0.772-1.773-0.391-0.7-2.376-3.102-2.507-6.07m4.562 5.105c0.586 1.048 0.522 2.223-0.184 3.399-1.556 2.592-6.148 4.833-8.675 4.781h-0.036l-4.75-0.636-9.847-1.319 1.905-4.509c1.193-2.844 4.157-9.388 4.157-9.388 0.967-1.896 1.063-3.464 0.573-4.438-1.464-2.917-5.513-8.466-5.513-8.466-0.488-0.823-1.964-1.263-3.266-1.65-0.673-0.201-1.309-0.391-1.835-0.632-1.503-0.691-2.048-2.716-1.918-4.304 0.111-1.36 0.738-2.164 1.53-2.543 3.957-1.897 9.522-1.793 14.391 1.737 1.026 0.741 1.657 1.58 2.135 3.463 0.23 0.905 2.861 6.078 6.284 9.666 1.713 1.797 2.809 2.857 3.035 3.476 0.315 0.863-0.431 2.154-0.769 3.396-0.263 0.978-0.239 4.534 1.176 5.912 0.588 0.573 1.14 1.221 1.607 2.055" fill="#0f141b"/>
  </g>
  <g transform="matrix(.88839 0 0 -.88839 128.91 73.87)">
   <path d="m0 0c-5.613-4.459-12.584-15.909-16.338-22.208-1.458-2.449-3.39-6.784-4.576-8.682 1.207-1.105 2.226-2.355 3.986-4.417 5.988 3.266 11.624 4.698 16.653 7.411 13.931 7.518 17.765 10.935 23.779 22.928 2.436 4.859 4.724 15.518 7.217 19.017 0.325 0.456-20.167-5.664-30.721-14.049" fill="#485157"/>
  </g>
  <g transform="matrix(.88839 0 0 -.88839 112.04 102.22)">
   <path d="M 0,0 C 0.684,-0.816 1.338,-1.82 1.991,-3.329 4.376,-1.351 20.082,4.199 25.033,7.205 40.428,16.552 45.741,34.042 48.572,44.018 38.782,23.179 16.534,3.771 0,0" fill="#30363a"/>
  </g>
  <g transform="matrix(.88839 0 0 -.88839 129.39 73.771)">
   <path d="m0 0c-2.308-1.375-4.575-4.242-6.491-6.433 9.636-0.116 15.329-5.609 16.047-15.667 2.015 1.775 4.904 4.457 6.653 6.46-1.601 11.269-8.278 16.565-16.209 15.64" fill="#ffe100"/>
  </g>
  <g transform="matrix(.88839 0 0 -.88839 136.72 87.827)">
   <path d="m0 0c0.735-1.587 1.283-4.223 1.268-6.409 1.8 1.216 6.528 5.66 6.537 6.287 0.019 1.337-0.477 4.716-1.283 6.633-1.75-2.002-4.507-4.736-6.522-6.511" fill="#dcc200"/>
  </g>
  <g transform="matrix(.88839 0 0 -.88839 129.08 74.118)">
   <path d="m 0,0 c 8.536,0.997 15.737,-6.754 16.074,-15.98 0.317,-0.526 0.699,0.696 0.699,0.696 C 17.642,-8.658 11.145,2.35 0.729,1.025 -0.159,0.55 -0.63,0.081 0,0" fill="#0f141b"/>
  </g>
  <g transform="matrix(.88839 0 0 -.88839 124.23 79.067)">
   <path d="m0 0c-0.319 0.042-1.201-0.778-1.067-1.057 11.422 0.473 16.176-8.916 15.745-15.637l1.092 0.977c0.08 9.738-6.561 15.606-15.77 15.717" fill="#0f141b"/>
  </g>
  <g transform="matrix(.88839 0 0 -.88839 123.09 137.61)">
   <path d="m0 0c-0.209 0.376-2.372 3.178-4.067 5.624-1.475 2.127-1.772 3.44-1.807 7.494-0.071 8.435-1.32 16.924-3.734 21.229-3.152 7.128-8.153 11.009-19.184 11.423-3.134 0.116-5.909-0.142-8.703 0.84-1.833 0.644-17.845 6.131-19.343 8.574-1.929 3.145-1.686 6.993-1.658 9.319 0 0 5e-3 1.049 6e-3 1.063-0.01 0.018-0.511 0.835-5.478 0.789-9.14-0.084-22.138-2.754-22.804-4.276 0.133-0.628 0.435-1.691 0.817-3.039 1.142-4.025 2.459-9.322 2.283-12.811-2e-3 -0.047-0.752-6.13-1.306-9.033-0.496-2.601-1.384-5.644-1.498-7.684-0.029-0.526 1.169-6.274 1.118-7.204-0.075-1.342-0.677-2.59-2.201-4.252-2.376-2.593-5.233-4.896-7.802-7.066-6.367-5.375-11.072-11.777-11.691-16.76-0.281-2.258 0.498-4.841 2.914-4.625 1.75-0.633 3.31-0.876 5.038 0.702 4.495 0.554 4.121 4.708 5.571 8.843 2.681 3.535 7.873 5.16 12.378 7.301 2.451 1.164 4.778 2.576 6.641 3.827 2.254 1.515 2.83 2.717 3.545 4.356 0.733 1.681 0.871 2.433 1.173 2.96 0 0 4.466-2.441 11.826-3.593 3.737-0.584 20.674 1.337 24.55 1.582 1.71 0.108 5.182-7.162 8.771-11.271 2.884-3.301 5.852-5.178 8.906-6.225 2.354-0.806 3.539-2.3 4.484-5.43 0 0 2.057-8.32 0.59-11.058-0.71-1.325-1.633-1.828-2.526-2.092-0.985-0.29-2.087-1.025-2.361-2.323-0.7-3.305 3.841-5.221 7.586-4.864 5.28-0.797 7.901 6.481 7.343 9.784-0.144 0.855 1.489 16.34 0.623 17.896" fill="#485157"/>
  </g>
  <g transform="matrix(.88839 0 0 -.88839 53.121 112.01)">
   <path d="m0 0c-1.259-5.846 5.246-13.811 4.272-17.863 1.771 1.315 2.225 2.346 2.875 3.838 0.732 1.681 1.522 2.272 1.823 2.798 0 0 0.198-0.068 0.566-0.184-2.518 2.471-6.977 4.606-9.536 11.411" fill="#30363a"/>
  </g>
  <g transform="matrix(.88839 0 0 -.88839 50.907 90.312)">
   <path d="m0 0c6.175-6.007 12.553-12.323 20.304-8.972 3.529 1.339 4.914 5.38 6.981 8.964-1.095 0.473-2.201 0.904-3.056 2.299-0.324 0.528-0.582 1.066-0.786 1.607z" fill="#30363a"/>
  </g>
  <g transform="matrix(.88839 0 0 -.88839 52.458 109.98)">
   <path d="m0 0c-0.394-0.162 0.134-2.539 0.295-2.932 1.211-2.954 4.503-11.274 14.961-13.319 0.417-0.081-0.173 1.068-0.585 1.171-8.368 2.089-11.927 9.481-13.178 12.534-0.161 0.393-1.1 2.707-1.493 2.546" fill="#0f141b"/>
  </g>
  <g transform="matrix(.88839 0 0 -.88839 30.447 142.81)">
   <path d="m0 0c0.224 1.686-0.364 1.755-0.786 0.37-0.544-1.786-0.229-3.562 0.887-5.248 0.408 0.091 0.781 0.221 1.222 0.275-1.263 1.736-1.563 2.801-1.323 4.603" fill="#0f141b"/>
  </g>
  <g transform="matrix(.88839 0 0 -.88839 111.83 158.93)">
   <path d="m0 0c0.15 0.654 0.613 1.192 1.547 1.853 1.387 0.982 0.805 1.179-0.503 0.559-0.768-0.365-1.829-0.78-2.165-1.797-0.29-0.878 0.058-2.04 0.35-2.852 0.437 0.014 0.807-0.286 1.253-0.337-0.348 0.498-0.684 1.687-0.482 2.574" fill="#0f141b"/>
  </g>
  <g transform="matrix(.88839 0 0 -.88839 116.52 161.36)">
   <path d="m0 0c-0.327 0.659-0.462 1.591-0.316 2.289 0.138 0.656 0.375 1.144 1.196 1.888 1.262 1.141 0.402 1.058-0.767 0.206-0.618-0.451-1.371-0.649-1.689-1.671-0.257-0.83 0.207-2.524 0.567-3.343 0.021-0.047 0.045-0.089 0.067-0.134 0.498 0.076 1.095 0.165 1.483 0.223-0.23 0.119-0.418 0.294-0.541 0.542" fill="#0f141b"/>
  </g>
  <g transform="matrix(.88839 0 0 -.88839 123.49 137.54)">
   <path d="m0 0c-1.028 3.271-3.938 5.242-5.161 7.076-0.791 1.186-0.902 7.331-0.907 11.037-0.018 13.163-4.06 23.846-15.574 27.232-2.308 0.678-4.916 0.892-7.813 0.885-4.175-9e-3 -7.273 0.372-9.101 1.015-4.109 1.442-12.962 4.784-16.749 6.729-1.695 1.175-2.59 3.036-2.629 4.129-0.28-0.445-0.579-0.871-0.865-1.311 0.257-1.065 1.32-2.706 3.059-3.741 3.594-2.137 15.238-6.238 17.071-6.883 1.573-0.552 4.697-1.052 9.166-1.219 2.493-0.093 4.848-0.18 6.947-0.67 9.593-2.238 15.308-11.311 15.129-26.415-0.043-3.639-0.025-9.71 1.56-11.809 1.35-1.788 3.778-4.016 4.537-6.605 0.393-1.337-0.246-19.531-0.549-20.455-1.349-4.125-2.71-5.874-4.88-6.131-2.845-0.338-6.291 0.301-7.964 1.514-0.508 0.369-0.805 1.449-0.531 2.743 0.275 1.298 0.942 1.793 1.927 2.083 1.889 0.557 3.379 2.345 3.392 4.353 0.02 3.033-0.264 8.835-2.138 12.382-0.9 1.704-6.915 3.784-8.593 4.975-3.493 2.481-7.209 7.442-11.4 14.658-0.18 0.31-0.448 0.514-0.938 0.482-4.926-0.333-22.496-1.65-25.832-1.128-7.361 1.152-11.405 2.585-11.405 2.585-0.301-0.526-1.091-1.117-1.823-2.799-0.715-1.639-1.186-2.723-3.441-4.238-1.862-1.251-4.177-2.352-6.627-3.516-4.505-2.142-10.092-4.683-12.774-8.218-0.326-0.43-0.547-2.415-0.927-3.61-1.52-4.775-7.678-6.602-10.123-4.549-1.51 1.267-1.048 4.033 0.989 8.248 2.283 4.722 5.867 8.309 9.847 11.669 2.569 2.169 5.225 4.411 7.601 7.003 1.524 1.663 2.038 2.993 2.112 4.335 0.052 0.93-0.107 1.867-0.287 2.923-0.659 3.87-0.431 5.895 0.696 11.797 1.751 9.182 1.791 14.283-0.032 18.927-0.791 0.714-1.293 1.132-2.087 1.812 3.619-4.623 2.857-12.442 0.781-21.446-1.225-5.312-1.338-7.105-0.622-11.306 0.42-2.464 0.866-4.039-1.506-6.175-2.511-2.262-5.736-5.318-8.638-7.745-5.199-4.348-8.07-8.688-9.18-11.052-2.395-5.1-2.577-7.947-0.652-9.828 2.705-2.644 11.039-0.835 12.182 4.523 0.17 0.799 0.84 3.776 1.07 4.1 1.698 2.395 8.254 5.606 12.1 7.433 2.496 1.186 7.291 3.387 8.809 5.167 1.324 1.553 1.356 3.948 2.985 5.576 3.802-1.837 11.016-3.107 15.544-3.413 5.534-0.375 17.831 2.057 21.238 1.874 3.883-6.867 7.218-11.876 11.027-14.839 1.593-1.24 7.703-3.26 8.483-4.635 1.924-3.391 2.661-9.633 2.514-12.288-0.067-1.198-1.11-2.633-2.724-3.109-1.056-0.31-2.37-0.698-2.802-2.746-0.208-0.982-0.207-2.396 0.616-3.378 1.335-1.593 4.861-2.877 9.345-2.394 2.693 0.292 4.343 2.101 5.589 6.919 0.282 1.092 1.782 18.846 0.958 21.467" fill="#0f141b"/>
  </g>
  <g transform="matrix(.88839 0 0 -.88839 35.475 145.77)">
   <path d="m0 0c-1.661 0.64-2.37 2.918-2.151 4.569 0.224 1.685-0.512 1.791-0.787 0.371-0.453-2.347 0.163-4.419 1.831-5.592 0.364 0.221 0.797 0.305 1.107 0.652" fill="#0f141b"/>
  </g>
  <g transform="matrix(.88839 0 0 -.88839 59.469 53.674)">
   <path d="m0 0c-14.036 0.651-21.5-9.35-22.035-18.973-0.81-14.569 10.964-26.032 26.593-25.919 5.52 2.204 14.053 12.082 14.849 23.012 0.845 11.605-6.824 21.296-19.407 21.88" fill="#485157"/>
  </g>
  <g transform="matrix(.88839 0 0 -.88839 67.202 69.307)">
   <path d="m0 0c0.555-5.582-1.845-11.037-5.138-11.006-2.797 0.027-6.165 4.019-6.714 10.116-0.503 5.562 2.102 10.957 5.6 10.877 2.642-0.062 5.639-3.802 6.252-9.987" fill="#0f141b"/>
  </g>
  <g transform="matrix(.88839 0 0 -.88839 66.595 69.333)">
   <path d="m0 0c0.583-5.27-1.827-10.15-4.224-10.015-2.962 0.165-5.728 4.441-6.102 9.353-0.388 5.126 1.938 9.797 4.84 9.678 1.781-0.075 4.75-2.367 5.486-9.016" fill="#ffe100"/>
  </g>
  <g transform="matrix(.88839 0 0 -.88839 65.173 69.442)">
   <path d="m0 0c0.379-3.105-1.091-6.817-2.465-6.899-1.827-0.109-3.344 3.183-3.593 6.323-0.29 3.649 0.96 6.688 2.473 6.802 1.696 0.123 3.133-2.518 3.585-6.226" fill="#0f141b"/>
  </g>
  <g transform="matrix(.88839 0 0 -.88839 64.519 69.671)">
   <path d="m0 0c0.083-2.488-0.786-5.044-1.759-5.196-1.111-0.172-2.182 2.087-2.475 4.557-0.311 2.612 0.549 5.488 1.655 5.708s2.486-2.342 2.579-5.069" fill="#485157"/>
  </g>
  <g transform="matrix(.88839 0 0 -.88839 115.14 124.13)">
   <path d="m0 0c1.76-5.326 0.607-11.173-2.612-11.861-2.735-0.585-6.893 2.577-8.761 8.407-1.704 5.319-0.338 11.151 3.094 11.836 2.59 0.517 6.331-2.479 8.279-8.382" fill="#0f141b"/>
  </g>
  <g transform="matrix(.88839 0 0 -.88839 114.55 124.28)">
   <path d="m0 0c1.718-5.017 0.433-10.305-1.936-10.697-2.926-0.484-6.56 3.086-7.995 7.798-1.499 4.917-0.247 9.982 2.611 10.501 1.754 0.316 5.152-1.274 7.32-7.602" fill="#ffe100"/>
  </g>
  <g transform="matrix(.88839 0 0 -.88839 113.19 124.7)">
   <path d="m0 0c1.046-2.947 0.422-6.891-0.901-7.269-1.759-0.505-3.956 2.376-4.886 5.387-1.079 3.497-0.523 6.736 0.93 7.176 1.628 0.491 3.606-1.773 4.857-5.294" fill="#0f141b"/>
  </g>
  <g transform="matrix(.88839 0 0 -.88839 112.6 125.07)">
   <path d="m0 0c0.625-2.411 0.333-5.095-0.583-5.456-1.046-0.41-2.584 1.562-3.41 3.908-0.874 2.48-0.66 5.476 0.37 5.932 1.031 0.454 2.937-1.744 3.623-4.384" fill="#485157"/>
  </g>
  <g transform="matrix(.88839 0 0 -.88839 62.975 90.586)">
   <path d="M 0,0 C 0.486,-0.019 1.005,0.388 0.874,0.702 0.722,1.069 -0.854,0.914 -0.942,0.519 -1.001,0.254 -0.494,0.02 0,0" fill="#0f141b"/>
  </g>
  <g transform="matrix(.88839 0 0 -.88839 54.203 83.213)">
   <path d="m0 0c0.294 0.34 0.059 5.964-1.772 8.758-1.577 2.406-5.053 4.077-7.789 4.258-0.12 7e-3 -0.243-0.044-0.318-0.931-0.261-3.083 0.062-6.757 0.913-8.829 1.839-4.473 8.135-4.218 8.966-3.256" fill="#e95550"/>
  </g>
  <g transform="matrix(.88839 0 0 -.88839 45.218 71.876)">
   <path d="m0 0c3.446-0.629 6.231-1.76 7.981-4.44 1.128-1.729 1.732-4.771 2.104-8.819 0.039-0.408 0.308-0.271 0.364 0.764 0.158 2.869-6e-3 6.14-1.882 8.93-2.752 4.093-7.324 4.062-7.878 4.106-0.93 0.071-1.299-0.429-0.689-0.541" fill="#0f141b"/>
  </g>
  <g transform="matrix(.88839 0 0 -.88839 45.772 71.904)">
   <path d="m0 0c-0.65-4.434 0.051-8.723 1.96-10.909 2.176-2.489 6.267-1.957 7.274-1.576 0.554 0.211 0.597-0.538 0.223-0.743-1.215-0.665-5.119-1.176-7.564 1.108-1.917 1.791-3.658 5.808-2.433 12.136 0.057 0.29 0.61 0.458 0.54-0.016" fill="#0f141b"/>
  </g>
  <g transform="matrix(.88839 0 0 -.88839 48.465 77.313)">
   <path d="M 0,0 C -0.023,-2.171 0.907,-4.005 2.075,-4.094 3.244,-4.181 4.21,-2.489 4.233,-0.317 4.256,1.856 3.327,3.69 2.158,3.778 0.99,3.865 0.023,2.173 0,0" fill="#0f141b"/>
  </g>
  <g transform="matrix(.88839 0 0 -.88839 47.76 75.038)">
   <path d="m0 0c-0.087-0.913 0.347-1.734 0.97-1.832s1.199 0.564 1.286 1.478-0.347 1.734-0.971 1.833c-0.622 0.097-1.198-0.565-1.285-1.479" fill="#fff"/>
  </g>
  <g transform="matrix(.88839 0 0 -.88839 68.166 82.756)">
   <path d="m0 0c-0.118 0.373 0.9 5.879 2.402 8.395 1.294 2.166 2.98 3.353 4.6 3.178 0.071-8e-3 0.334-2e-3 0.362-0.889 0.098-3.159-0.824-6.716-1.637-8.632-1.77-4.167-5.394-3.106-5.727-2.052" fill="#e95550"/>
  </g>
  <g transform="matrix(.88839 0 0 -.88839 75.168 72.75)">
   <path d="m0 0c-2.104-0.176-3.9-0.93-5.339-3.345-0.926-1.556-1.754-4.472-2.605-8.411-0.086-0.397-0.375-0.219-0.246 0.808 0.356 2.845 1.12 6.036 2.648 8.54 2.242 3.677 4.897 3.058 5.226 3.029 0.553-0.049 0.69-0.59 0.316-0.621" fill="#0f141b"/>
  </g>
  <g transform="matrix(.88839 0 0 -.88839 74.36 72.68)">
   <path d="m0 0c0.306-2.778-0.62-8.305-2.306-10.516-1.656-2.172-3.953-1.123-4.479-0.617-0.289 0.278-0.423-0.299-0.237-0.547 0.705-0.95 3.345-1.308 4.652 0.112 2.067 2.248 3.358 6.71 2.996 11.498-0.022 0.294-0.678 0.545-0.626 0.07" fill="#0f141b"/>
  </g>
  <g transform="matrix(.88839 0 0 -.88839 72.712 78.272)">
   <path d="m0 0c-0.202-2.157-1.184-3.922-2.194-3.939-1.011-0.018-1.668 1.72-1.466 3.876 0.201 2.159 1.183 3.925 2.195 3.942 1.009 0.017 1.667-1.72 1.465-3.879" fill="#0f141b"/>
  </g>
  <g transform="matrix(.88839 0 0 -.88839 73.23 75.784)">
   <path d="m0 0c-0.092-0.91-0.474-1.662-0.851-1.679-0.378-0.016-0.609 0.71-0.517 1.621 0.093 0.911 0.474 1.662 0.852 1.679 0.377 0.016 0.609-0.71 0.516-1.621" fill="#fff"/>
  </g>
  <g transform="matrix(.88839 0 0 -.88839 62.642 93.013)">
   <path d="m0 0c-10.235 0.207-19.559 6.337-23.478 15.391-5.332 12.314 1.676 29.084 20.135 28.227 12.708-0.59 19.02-9.66 18.499-21.423-0.522-11.779-10.658-22.286-15.156-22.195m-3.608 45.003c-17.654 0.817-26.889-15.962-21.225-29.894 4.032-9.916 15.088-16.301 24.905-16.115 4.857 0.094 15.724 9.839 16.526 23.958 0.676 11.901-5.994 21.392-20.206 22.051" fill="#0f141b"/>
  </g>
  <g transform="matrix(.88839 0 0 -.88839 65.762 123.48)">
   <path d="m0 0c4.308-5.79 4.233-17.717 0.871-25.291-1.401-3.156-3.674-5.095-5.761-6.063-1.016-0.472-1.79-1.689-1.854-2.843-0.127-2.289 2.37-4.257 8.876-4.154 1.761 0.027 2.605 0.97 3.323 1.958 0.569 0.785 0.641 1.436 2.185 2.379 2.068 1.26 2.118 2.357 3.119 4.723 0.844 1.994 3.146 14.867 3.72 18.733 0.244 1.651 0.757 3.248 1.246 4.752 0.511 1.573 1.552 2.863 1.765 4.455 0.164 1.226-0.648 9.231 0.025 14.908-0.956 0.65-4.06 0.608-5.426 0.811-0.128 0.018-11.881 1.174-15.923-0.228-0.733-3.629 1.574-11.104 3.834-14.14" fill="#485157"/>
  </g>
  <g transform="matrix(.88839 0 0 -.88839 76.502 110.72)">
   <path d="m0 0c1.365-0.203 2.683-0.403 3.638-1.053-7e-3 1.873-0.162 4.075-1.868 4.328-4.068 0.606-15.562-0.89-16.228-2.085-0.24-0.365-0.412-0.849-0.526-1.416 4.042 1.402 14.856 0.245 14.984 0.226" fill="#485157"/>
  </g>
  <g transform="matrix(.88839 0 0 -.88839 79.968 123.67)">
   <path d="m0 0c0.5-5.023-1.661-9.933-4.624-9.906-2.517 0.024-5.548 3.618-6.043 9.105-0.452 5.006 1.892 9.86 5.04 9.789 2.377-0.056 5.075-3.422 5.627-8.988" fill="#0f141b"/>
  </g>
  <g transform="matrix(.88839 0 0 -.88839 79.421 123.69)">
   <path d="m0 0c0.524-4.743-1.644-9.134-3.801-9.014-2.666 0.149-5.156 3.998-5.492 8.418-0.35 4.613 1.744 8.817 4.356 8.711 1.602-0.067 4.275-2.13 4.937-8.115" fill="#ffe100"/>
  </g>
  <g transform="matrix(.88839 0 0 -.88839 78.142 123.79)">
   <path d="m0 0c0.34-2.793-0.982-6.135-2.219-6.208-1.643-0.097-3.009 2.865-3.234 5.69-0.261 3.285 0.864 6.02 2.226 6.122 1.527 0.112 2.819-2.266 3.227-5.604" fill="#0f141b"/>
  </g>
  <g transform="matrix(.88839 0 0 -.88839 77.554 124)">
   <path d="m0 0c0.075-2.239-0.708-4.54-1.583-4.676-1-0.156-1.964 1.878-2.229 4.101-0.28 2.35 0.497 4.939 1.491 5.138 0.994 0.196 2.237-2.109 2.321-4.563" fill="#485157"/>
  </g>
  <g transform="matrix(.88839 0 0 -.88839 66.415 154.29)">
   <path d="m0 0c0.268 0.614 1.105 0.829 1.989 1.498 1.359 1.029 0.916 1.482-0.31 0.713-0.734-0.459-2.228-0.533-2.747-1.47-0.365-0.661-0.569-2.775-0.38-4.192 0.425 0.183 1.026 0.179 1.487 0.253-5e-3 0.017-0.32 2.552-0.039 3.198" fill="#0f141b"/>
  </g>
  <g transform="matrix(.88839 0 0 -.88839 62.332 154.16)">
   <path d="m0 0c0.27 0.614 1.137 1.2 2.092 1.762 1.466 0.861 1.054 1.367-0.235 0.709-1.106-0.566-2.486-0.854-2.906-1.613-0.339-0.614-0.368-1.825-0.279-2.771 0.33-0.326 0.821-0.647 1.387-0.86-0.507 0.806-0.257 2.322-0.059 2.773" fill="#0f141b"/>
  </g>
  <g transform="matrix(.88839 0 0 -.88839 81.883 124.18)">
   <path d="m0 0c-0.436 2.282-0.499 8.713-0.03 12.026 0.317 2.247-0.364 2.458-0.874 0.015-0.655-3.135-0.63-9.546-0.541-11.846 0.062-1.606-1.188-3.472-1.7-5.045-0.488-1.504-1.073-4.494-1.317-6.145-0.574-3.866-2.797-12.962-3.627-16.849-0.537-2.512-0.5-3.552-2.568-4.812-1.544-0.942-2.254-1.916-2.823-2.7-0.841-1.157-1.546-1.415-2.875-1.559-4.651-0.504-7.842 1.114-7.71 3.483 0.064 1.154 0.69 2.574 1.707 3.045 5.024 2.332 7.415 7.204 7.99 17.555 0.253 4.547 0.108 9.167-3.445 13.943-1.666 2.24-3.181 6.728-3.488 10.382-0.357 4.266-1.291 3.682-1.28-0.482 9e-3 -3.462 1.482-7.871 3.739-10.666 3.918-4.851 3.443-10.033 3.081-14.894-0.621-8.356-2.975-12.925-7.75-15.137-1.46-0.677-2.107-2.383-2.125-4.115-0.044-4.374 10.624-6.159 13.137-2.699 0.529 0.728 1.184 1.941 2.51 2.749 2.309 1.408 2.438 2.937 3.08 5.407 0.643 2.471 4.047 20.226 4.984 23.098 0.508 1.557 2.248 3.554 1.925 5.246" fill="#0f141b"/>
  </g>
  <g transform="matrix(.88839 0 0 -.88839 21.395 16.246)">
   <path d="m0 0c14.82-6.87 29.641-29.343 31.976-49.443 0.05-0.431 0.568-2.544 2.128-3.409 0.815-0.452-3.7-4.047-4.852-3.309-0.667 0.427-0.41 2.119-3.159 3.549-20.214 10.507-26.662 27.756-26.093 52.612" fill="#485157"/>
  </g>
  <g transform="matrix(.88839 0 0 -.88839 43.958 63.043)">
   <path d="m0 0c0.468-0.386 1.54-0.677 1.854-1.001-0.053 0.284-0.147 0.562-0.304 0.828-13.773 16.386-21.862 26.722-26.356 45.386 0.406-23.234 2.825-26.957 24.806-45.213" fill="#30363a"/>
  </g>
  <g transform="matrix(.88839 0 0 -.88839 51.692 63.199)">
   <path d="m0 0c-0.771 0.427-1.262 1.165-1.581 1.851-1.044-1.366-3.063-2.776-4.935-3.043 0.983-1.112 1.181-1.808 1.664-2.117 1.152-0.738 5.668 2.856 4.852 3.309" fill="#485157"/>
  </g>
  <g transform="matrix(.88839 0 0 -.88839 39.338 32.727)">
   <path d="m0 0c-9.194 1.197-14.411-3.169-16.706-10.253 0.593-1.372 2.221-5.815 4.505-8.085 1.005 7.2 7.972 12.706 15.965 11.366-0.993 2.599-1.809 4.787-3.764 6.972" fill="#ffe100"/>
  </g>
  <g transform="matrix(.88839 0 0 -.88839 24.504 42.055)">
   <path d="m0 0c0.361 1.676 1.622 5.089 2.458 5.667 1.043-2.112 3.584-6.182 4.321-7.383-0.969-1.374-2.21-4.43-2.279-5.676-1.682 1.879-3.565 4.93-4.5 7.392" fill="#dcc200"/>
  </g>
  <g transform="matrix(.88839 0 0 -.88839 29.284 34.14)">
   <path d="m0 0c-5.016-2.901-5.57-8.26-5.57-8.26 0.064-0.388 1.013-0.8 0.975-0.581 0.328 5.919 8.618 11.513 15.953 9.96 0.183 0.331-0.815 0.652-0.711 1.059-1.496 0.288-5.668 0.703-10.647-2.178" fill="#0f141b"/>
  </g>
  <g transform="matrix(.88839 0 0 -.88839 32.252 40.86)">
   <path d="m0 0c-3.793-3.006-5.48-7.996-4.15-9.697l1.008 0.319c-0.493 2.847 1.059 6.092 3.939 8.373 3.456 2.739 8.109 3.81 11.478 2.376l0.781 0.632c-3.52 2.288-8.427 1.665-13.056-2.003" fill="#0f141b"/>
  </g>
  <g transform="matrix(.88839 0 0 -.88839 43.625 63.342)">
   <path d="m0 0c-2.052 1.382-10.847 6.795-16.765 14.774-7.975 10.75-9.273 23.544-8.939 38.497 0.027 1.195 0.366 1.208 1.374 0.596 16.375-9.931 28.561-27.636 31.705-48.269 0.362-2.378-0.448-3.048-0.853-0.812-4.016 22.208-17.006 39.9-31.18 47.919-0.067-12.451 1.742-27.387 8.716-36.306 5.292-6.767 11.126-11.489 16.507-15.558 2.775-2.099 2.249-2.735-0.565-0.841" fill="#0f141b"/>
  </g>
  <g transform="matrix(.88839 0 0 -.88839 155.49 61.001)">
   <path d="m0 0c-4.312-1.405-8.095-2.665-11.465-3.891-16.306-5.927-22.936-11.053-32.811-28.043-2.34-4.026-4.611-8.344-6.818-12.74 0.384-0.252 0.329-0.657 0.733-0.93 1.942 3.822 4.392 8.552 7.246 13.053 13.023 20.535 19.226 23.264 42.982 31.452-1.505-2.276-2.369-4.865-3.252-7.595-7.275-22.496-13.82-27.818-34.363-36.309-4.568-1.889-8.27-3.194-9.576-4.119 0.203-0.18 0.479-0.74 0.65-0.957 2.252 1.286 5.796 2.407 9.48 3.958 21.823 9.193 28.498 15.208 35.083 37.111 0.902 3.002 2.11 5.628 3.182 7.788 0.763 1.536 0.644 1.782-1.071 1.222" fill="#0f141b"/>
  </g>
  <g transform="matrix(.88839 0 0 -.88839 87.464 13.606)">
   <path d="m0 0c-0.524 2.087-0.904 2.054-2.201 0.729-16.409-16.766-19.576-24.638-17.761-49.58 0.271-0.227 0.606-0.409 0.966-0.592-1.333 26.108 3.433 35.444 17.832 49.213 5.264-18.156 0.59-38.971-13.283-52.623-0.21-0.207-0.4-0.392-0.578-0.564 0.206-0.361 0.445-0.724 0.687-1.086 0.305 0.326 0.642 0.697 1.033 1.127 16.348 17.988 18.021 34.604 13.305 53.376" fill="#0f141b"/>
  </g>
 </g>
</svg>
