<?xml version="1.0" encoding="UTF-8"?>
<svg version="1.1" viewBox="0 0 113.15 156.56" xmlns="http://www.w3.org/2000/svg">
 <g transform="translate(0 -.04)">
  <path d="m77.6 85.3q-8.75-8.75-21.1-8.75t-21.1 8.75-8.75 21.1 8.75 21.1q8.75 8.8 21.1 8.8t21.1-8.8q8.75-8.75 8.75-21.1t-8.75-21.1m24.35-84.1q4 0 6.85 2.8 2.8 2.85 2.8 6.85t-2.8 6.8q-2.85 2.8-6.85 2.8h-35.85v37.8q17.05 3.4 28.2 16.85 11.3 13.6 11.3 31.3 0 20.35-14.4 34.75t-34.7 14.4-34.7-14.4-14.4-34.75q0-17.7 11.3-31.3 11.15-13.45 28.15-16.85v-37.8h-35.8q-4 0-6.85-2.8-2.8-2.8-2.8-6.8t2.8-6.85q2.85-2.8 6.85-2.8h90.9" fill="#3e3a39"/>
  <path d="m77.6 85.3q8.75 8.75 8.75 21.1t-8.75 21.1q-8.75 8.8-21.1 8.8t-21.1-8.8q-8.75-8.75-8.75-21.1t8.75-21.1 21.1-8.75 21.1 8.75" fill="#fff"/>
  <path d="m56.25 136.55q-14.95 0.15-23.4-11.45-7.3-10.05-6.15-21.8 2.15 12.25 10.8 19.3 7.9 6.4 18.45 6.55 10.5 0.2 18.75-5.8 8.95-6.5 11.65-17.9 0.25 11.2-6.9 20.2-8.45 10.7-23.2 10.9" fill="#dbdcdc"/>
  <g fill="#0d131a">
   <path d="m78.95 84.95q8.55 9.1 8.55 21.45 0 12.6-8.3 21.5-8.85 9.5-22.7 9.5-12.8 0-21.85-8.85-9.3-9-9.3-22.25 0-12.7 9.2-21.85 9.15-9.1 21.95-9.1 13.45 0 22.45 9.6m-22.45-7.7q-12 0-20.35 8.55-8.3 8.5-8.3 20.6 0 12.05 8.4 20.45 8.35 8.35 20.4 8.35t20.3-8.35q8.2-8.35 8.2-20.45t-8.3-20.6q-8.35-8.55-20.35-8.55"/>
   <path d="m47.6 18.2q0.6 18.55 0.3 39.7l-2.1 0.45q0.55-17.2 0.35-40.15 0-1.5 0.7-1.5 0.7-0.05 0.75 1.5"/>
   <path d="m101.95 21.65-35.7 0.05-0.05-2.2 35.75-0.1q4.05-0.05 6.4-2.7 2.1-2.35 2.1-5.75t-2.15-5.75q-2.35-2.6-6.35-2.65-14.5-0.2-90.9-0.2-4 0-6.35 2.6-2.1 2.4-2.1 5.8t2.1 5.8q2.35 2.65 6.35 2.7l35.75 0.25 0.05 2.15-35.8-0.1q-5.2 0.05-8.3-3.25-2.75-3-2.75-7.3t2.75-7.35q3.1-3.35 8.3-3.45 9.9-0.2 45.35-0.15l45.55 0.05q5.3 0 8.4 3.35 2.8 3 2.8 7.35t-2.8 7.4q-3.1 3.4-8.4 3.45"/>
   <path d="m66.65 38 0.2 20.25-1.75-0.35q-0.35-25.9 0.3-39.7 0.1-1.8 0.8-1.8t0.65 1.8l-0.2 19.8"/>
   <path d="m66.95 106.4q0 4.35-3.05 7.4-3.1 3.05-7.4 3.05-4.35 0-7.4-3.05t-3.05-7.4q0-4.3 3.05-7.4 3.05-3.05 7.4-3.05 4.3 0 7.4 3.05 3.05 3.1 3.05 7.4"/>
  </g>
  <path d="m55.1 99.65q1.55 0 2.7 1.15 1.1 1.1 1.1 2.7t-1.1 2.7-2.7 1.1-2.7-1.1q-1.15-1.15-1.15-2.7t1.15-2.7 2.7-1.15" fill="#fff"/>
  <path d="m64 57.15q18.45 2.4 30.7 17 11.9 14.2 11.9 32.25 0 21.8-15.2 36.3-14.55 13.9-34.9 13.9-21 0-35.55-14.4-14.65-14.5-14.65-35.75 0-19.1 11.9-33 11.95-14 30.55-16.3 1.6-0.2 1.7 0.5 0.1 0.65-1.5 0.95-17.9 3.25-29.15 16.55-11.3 13.3-11.3 31.25 0 20 14 33.95 14 14 34 14 20.05 0 34-13.95 14-14 14-34 0-17.6-11.75-31.2-11.55-13.3-28.95-16.65-1.5-0.25-1.4-0.95 0.1-0.65 1.6-0.45" fill="#0d131a"/>
 </g>
</svg>
