<?xml version="1.0" encoding="UTF-8"?>
<svg version="1.1" viewBox="0 0 108.82 171.56" xmlns="http://www.w3.org/2000/svg">
 <g transform="translate(.015823 .010256)">
  <path d="m79.65 37.5q-8.75-8.75-21.15-8.75-12.35 0-21.1 8.75-8.75 8.8-8.75 21.15t8.75 21.1 21.1 8.75 21.15-8.75q8.75-8.75 8.75-21.1t-8.75-21.15m28 21.15q0 20.3-14.4 34.7-14.45 14.4-34.75 14.4-8.25 0-16.05-2.7-7.45-2.6-13.8-7.5v62.8q0 4-2.8 6.85-2.85 2.8-6.85 2.8t-6.8-2.8q-2.8-2.85-2.8-6.85v-101.7q0-14.85 8.25-27.25l-13.3-13.35q-2.85-2.8-2.85-6.8t2.85-6.8q2.8-2.8 6.8-2.8t6.8 2.8l13.3 13.35q12.4-8.3 27.25-8.3 20.35 0 34.75 14.4 14.4 14.45 14.4 34.75" fill="#3e3a39"/>
  <path d="m79.65 37.5q8.75 8.8 8.75 21.15t-8.75 21.1q-8.8 8.75-21.15 8.75t-21.1-8.75-8.75-21.1 8.75-21.15q8.75-8.75 21.1-8.75 12.4 0 21.15 8.75" fill="#fff"/>
  <path d="m28.9 53.15q1.05 14.2 10.15 22.15 8.1 7.1 19.65 7 11.3-0.1 19.65-6.95 9.05-7.45 10.05-19.75 0.75 13.5-8 23.35-8.8 9.85-21.65 9.85-13.4 0-22.4-10.1-9.4-10.55-7.45-25.55" fill="#dbdcdc"/>
  <g fill="#0d131a">
   <path d="m32.1 17.25-1.65 1.35-13.3-13.35q-2.9-2.9-6.45-2.7-3.2 0.2-5.6 2.65-2.45 2.45-2.6 5.7-0.15 3.55 2.7 6.45l13.05 13.15-1.3 1.8-13.5-13.3q-3.7-3.75-3.45-8.35 0.15-4.2 3.25-7.3 3.1-3.15 7.2-3.35 4.6-0.2 8.3 3.5l13.35 13.75"/>
   <path d="m89.65 58.65q0 12.55-8.95 21.65-9.15 9.25-22.2 9.25-13.25 0-22.3-9.1-8.9-8.95-8.9-21.8 0-12.35 8.3-21.3 8.9-9.65 22.9-9.65 13.55 0 22.55 9.45 8.6 9 8.6 21.5m-31.25-28.95q-12.3 0-20.5 8.65-8 8.35-8 20.3 0 12.05 8.3 20.45t20.3 8.4q12.05 0 20.4-8.4 8.3-8.4 8.3-20.45 0-12.1-8.4-20.5-8.35-8.45-20.4-8.45"/>
   <path d="m68.95 58.65q0 4.3-3.05 7.4-3.05 3.05-7.4 3.05-4.3 0-7.4-3.05-3.05-3.1-3.05-7.4 0-4.35 3.05-7.4 3.1-3.1 7.4-3.1 4.35 0 7.4 3.1 3.05 3.05 3.05 7.4"/>
  </g>
  <path d="m57.1 51.9q1.6 0 2.7 1.1 1.15 1.15 1.15 2.7 0 1.6-1.15 2.7-1.1 1.15-2.7 1.15-1.55 0-2.7-1.15-1.1-1.1-1.1-2.7 0-1.55 1.1-2.7 1.15-1.1 2.7-1.1" fill="#fff"/>
  <path d="m10.75 42.85q2.55-7.9 7.55-13.85 1.15-1.4 1.8-0.95 0.65 0.4-0.5 1.8-9.2 11.25-9.2 28.85l0.3 101.65q0 4 2.6 6.35 2.35 2.1 5.75 2.1t5.75-2.1q2.6-2.35 2.6-6.35l0.3-63.5 1.9 1.6 0.2 61.9q0 5.3-3.35 8.4-3.05 2.8-7.4 2.8-4.4 0-7.45-2.8-3.35-3.1-3.35-8.4l0.05-101.75q0-8.3 2.45-15.75" fill="#0d131a"/>
  <path d="m93.8 94.9q-14.55 14-35.3 14-8.85 0-17.2-3.2t-15.05-9.1q-1.3-1.1-0.9-1.6 0.45-0.5 1.8 0.5 15.1 11.1 31.35 11.1 20.05 0 34.05-14t14-34q0-20.05-14.05-34.2-14.05-14.2-34.05-14.2-15.3 0-28.7 9.5-1.3 0.95-1.75 0.35-0.4-0.65 0.9-1.65 12.95-9.95 29.6-9.95 20.65 0 35.35 14.35 14.95 14.6 14.95 35.85 0 21.75-15 36.25" fill="#0d131a"/>
 </g>
</svg>
