<?xml version="1.0" encoding="UTF-8"?>
<svg version="1.1" viewBox="0 0 165.8 160.3" xmlns="http://www.w3.org/2000/svg">
 <path d="m104 88.9q-8.75-8.75-21.1-8.75t-21.15 8.75q-8.75 8.8-8.75 21.15t8.75 21.1q8.8 8.75 21.15 8.75t21.1-8.75 8.75-21.1-8.75-21.15m41-44.9q0-4 2.8-6.85 2.8-2.8 6.8-2.8t6.85 2.8q2.8 2.85 2.8 6.85 0 16.55-9.4 31.9-9.3 15.15-24.1 23.3 1.25 5.45 1.25 10.85 0 20.3-14.4 34.7t-34.7 14.4-34.75-14.4q-14.4-14.4-14.4-34.7 0-5.4 1.25-10.85-14.8-8.15-24.05-23.3-9.4-15.35-9.4-31.9 0-4 2.8-6.85 2.8-2.8 6.8-2.8t6.85 2.8q2.8 2.85 2.8 6.85 0 10.9 6.25 21.4 6.15 10.25 15.9 16.15 5.45-7.55 13.15-12.65 7.95-5.2 17.15-7.05v-50.35q0-4 2.85-6.85 2.8-2.8 6.8-2.8t6.8 2.8q2.8 2.85 2.8 6.85v50.35q9.25 1.85 17.15 7.05 7.75 5.1 13.2 12.65 9.75-5.9 15.9-16.15 6.25-10.5 6.25-21.4" fill="#3e3a39"/>
 <path d="m104 88.9q8.75 8.8 8.75 21.15t-8.75 21.1-21.1 8.75-21.15-8.75q-8.75-8.75-8.75-21.1t8.75-21.15q8.8-8.75 21.15-8.75t21.1 8.75" fill="#fff"/>
 <path d="m52.9 108q1.4 11.2 9.75 18.15 7.75 6.45 18.4 7.1 10.75 0.6 19.35-5.1 9.4-6.25 12.6-18.25-0.2 11.5-7 19.8-8.15 10.05-22.9 10.3-11.55 0.25-20.8-8.1-10.45-9.4-9.4-23.9" fill="#dbdcdc"/>
 <g fill="#0d131a">
  <path d="m91.8 11.5q0-4.3-2.8-6.8-2.5-2.25-6.1-2.25t-6.1 2.25q-2.8 2.5-2.8 6.8v50.3l-2.2 0.25v-51.55q0-4.95 3.45-7.85 3.15-2.65 7.65-2.65t7.6 2.65q3.45 2.9 3.45 7.85v51.55l-2.15-0.25v-50.3"/>
  <path d="m104.85 88.15q9.05 9 9.05 21.9 0 12.85-8.7 21.8-8.95 9.15-22.3 9.15-12.85 0-21.8-8.75-9.2-9-9.2-22.25 0-13.3 9.05-22.15 8.85-8.65 21.95-8.65 12.9 0 21.95 8.95m-21.95-6.95q-12.05 0-20.5 8.4t-8.45 20.45 8.45 20.4q8.4 8.35 20.5 8.35 12.05 0 20.4-8.35 8.35-8.4 8.35-20.45t-8.35-20.4q-8.35-8.4-20.4-8.4"/>
  <path d="m2.65 44.2q0 16.2 8.85 31t23.55 23l-0.45 1.95q-15.75-8.45-25.25-24.1-9.25-15.3-9.35-31.95 0-5.25 3.45-8.4 3.1-2.8 7.6-2.85t7.65 2.7q3.55 3.05 3.6 8.35 0.15 11.65 5.8 21.4 5.55 9.6 15.3 15.45l-1.05 1.65q-10.65-6.2-16.6-16.5-5.75-9.9-6.15-21.9-0.15-4-2.8-6.3-2.45-2.1-5.8-2.05-3.4 0.05-5.75 2.15-2.6 2.4-2.6 6.4"/>
  <path d="m162.45 35.9q3.45 3.4 3.35 9.05-0.35 17.75-10 32.55-9.2 14.05-24.6 22.35l-0.6-2.25q15.4-8.55 24.05-22.9 8.5-14.15 8.5-30.5 0-4-2.6-6.4-2.35-2.1-5.75-2.15t-5.8 2.05q-2.7 2.3-2.85 6.3-0.4 11.9-6.15 21.75-5.9 10.05-16.7 16.65l-1.3-1.9q9.8-5.9 15.5-15.4 5.85-9.8 6-21.35 0.05-5.3 3.6-8.35 3.2-2.75 7.75-2.65 4.55 0.15 7.6 3.15"/>
  <path d="m75.5 102.65q3.05-3.1 7.4-3.1 4.3 0 7.4 3.1 3.05 3.05 3.05 7.4 0 4.3-3.05 7.4-3.1 3.05-7.4 3.05-4.35 0-7.4-3.05-3.05-3.1-3.05-7.4 0-4.35 3.05-7.4"/>
 </g>
 <path d="m78.8 109.8q-1.15-1.1-1.15-2.7 0-1.55 1.15-2.7 1.1-1.1 2.7-1.1t2.7 1.1q1.1 1.15 1.1 2.7 0 1.6-1.1 2.7-1.15 1.15-2.7 1.15t-2.7-1.15" fill="#fff"/>
 <g fill="#0d131a">
  <path d="m131.05 97.15q3.25 11.6 0.85 23.25-2.25 11.1-9.15 20.2-6.95 9.15-17.05 14.3-10.65 5.4-22.8 5.4-12.65 0-23.4-5.75-10.1-5.4-16.95-14.85-6.65-9.3-8.75-20.45-2.15-11.5 1.05-22.5 0.35-1.25 1-1.05 0.7 0.2 0.4 1.45-2.7 11.2-0.35 22.4 2.35 10.7 8.9 19.45 6.65 8.8 16.3 13.8 10.1 5.2 21.8 5.2 12 0 22.25-5.35 9.65-5.05 16.2-13.95 6.45-8.75 8.65-19.45 2.3-10.95-0.35-21.75-0.3-1.25 0.4-1.45 0.65-0.15 1 1.1"/>
  <path d="m41.25 82.6q5.5-9.15 14.6-14.9 8.85-5.6 19.25-6.9 1.45-0.2 1.55 0.45t-1.35 1q-10.15 2.15-18.5 7.5-8.5 5.4-14.35 13.65-0.85 1.3-1.45 0.95-0.55-0.35 0.25-1.75"/>
  <path d="m90.5 62.25q-1.65-0.35-1.55-1t1.75-0.45q10.35 1.25 19.3 7.05 8.9 5.75 14.5 14.75 0.8 1.25 0.25 1.6-0.6 0.35-1.45-0.8-12.55-16.95-32.8-21.15"/>
 </g>
</svg>
