<?xml version="1.0" encoding="UTF-8"?>
<svg version="1.1" viewBox="0 0 130.17 170.87" xmlns="http://www.w3.org/2000/svg">
 <g transform="translate(.016026 -.034177)">
  <path d="m79.6 37.5q-8.75-8.75-21.1-8.75t-21.1 8.75-8.75 21.1 8.75 21.1 21.1 8.75 21.1-8.75 8.75-21.1-8.75-21.1m28 21.1q0 17.7-11.3 31.3-11.15 13.45-28.2 16.85v37.6q2.3-3.2 7.15-6.4 9.65-6.4 22.25-6.4 14.1 0 22.95 9.5 7.85 8.35 7.85 19.05 0 4-2.8 6.85-2.85 2.8-6.85 2.8h-60.15q-4 0-6.8-2.8-2.85-2.85-2.85-6.85v-53.35q-17-3.4-28.15-16.85-11.3-13.6-11.3-31.3 0-14.85 8.25-27.25l-13.35-13.3q-2.8-2.8-2.8-6.8t2.8-6.8q2.85-2.85 6.85-2.85 3.95 0 6.8 2.85l13.3 13.3q12.4-8.25 27.25-8.25 20.35 0 34.7 14.4 14.4 14.4 14.4 34.7" fill="#3e3a39"/>
  <path d="m79.6 37.5q8.75 8.75 8.75 21.1t-8.75 21.1-21.1 8.75-21.1-8.75-8.75-21.1 8.75-21.1 21.1-8.75 21.1 8.75" fill="#fff"/>
  <path d="m28.6 55.85q2.05 11.7 10.95 18.45 8.1 6.1 18.95 6.3 10.8 0.2 19.05-5.55 8.95-6.2 11.15-17.1 0.1 12.75-8.45 21.55-8.65 8.85-21.55 8.85-13.1 0-21.7-9.05-8.7-9.25-8.4-23.45" fill="#dbdcdc"/>
  <g fill="#0d131a">
   <path d="m30.1 18.4q-7.7-7.9-13.05-12.9-3-2.75-6.5-2.6-3.15 0.15-5.5 2.45-2.35 2.35-2.45 5.45-0.15 3.5 2.6 6.45l13.2 13.35-1.3 1.75-13.7-13.5q-3.65-3.75-3.4-8.3 0.25-4.15 3.35-7.25t7.2-3.25q4.55-0.25 8.25 3.45l13.35 13.65-2.05 1.25"/>
   <path d="m80.7 36.9q8.85 8.9 8.85 21.7 0 13-8.85 21.9-8.9 9-22.2 9-12.85 0-21.8-8.75-9.1-8.95-9.1-22.15t8.8-22q8.85-8.8 22.1-8.8t22.2 9.1m-22.2-7.3q-12 0-20.45 8.5-8.4 8.45-8.4 20.5t8.4 20.4 20.45 8.35 20.35-8.35 8.3-20.4-8.3-20.5q-8.35-8.5-20.35-8.5"/>
   <path d="m47.8 106.7 2.15 0.6 0.15 52.8q0 4 2.2 6.25 2.2 2.3 6.2 2.3h60.05q3.7 0 6.15-2.45 2.5-2.5 2.5-6.15 0-10.1-7.05-18.05-8.4-9.35-22.65-9.35-9.6 0-17.8 4-6.05 2.95-10.6 7.65-2.4 2.55-2.6 1.75-0.2-0.75 1.9-3.5 3.15-4.15 9.6-7.5 8.85-4.55 19.5-4.55 15.45 0 24.65 9.75 8 8.5 8 19.9 0 4.8-2.85 7.65-3.05 3.1-8.7 3.1l-60.1-0.15q-4.8 0-7.5-2.3-3.2-2.7-3.2-8.35v-53.4"/>
   <path d="m68.8 143.1q-1 0.8-1.45 1.5-0.65-23.8-0.15-37.65l1.9-0.15q-0.4 14.4-0.3 36.3"/>
   <path d="m68.95 58.6q0 4.35-3.05 7.4-3.1 3.05-7.4 3.05-4.35 0-7.4-3.05t-3.05-7.4 3.05-7.4 7.4-3.05q4.3 0 7.4 3.05 3.05 3.05 3.05 7.4"/>
  </g>
  <path d="m57.1 51.85q1.55 0 2.7 1.15 1.1 1.1 1.1 2.7t-1.1 2.7-2.7 1.1-2.7-1.1q-1.15-1.15-1.15-2.7t1.15-2.7 2.7-1.15" fill="#fff"/>
  <path d="m19.8 29.55q-9.3 12.4-9.3 29.1 0 17.65 11.65 31.2 11.5 13.4 29 16.6 1.3 0.25 1.2 0.9-0.1 0.7-1.4 0.55-17.75-2.4-29.8-15.5-12.8-13.9-12.8-33.8 0-17.4 10.3-29.9 0.95-1.15 1.5-0.75t-0.35 1.6" fill="#0d131a"/>
  <path d="m96.65 91.55q-12.25 14.2-31.3 16.4-1.6 0.25-1.7-0.45-0.1-0.65 1.5-0.95 18.5-3.4 29.95-16.7 11.5-13.25 11.5-31.3 0-20-14.05-33.95-14-13.95-34.05-13.95-15.6 0-28.75 9-1.15 0.8-1.55 0.25t0.7-1.4q6.25-5.05 14-7.65 7.45-2.5 15.65-2.5 20.5 0 35.1 13.95 15.2 14.5 15.05 36.3-0.1 19.05-12.05 32.95" fill="#0d131a"/>
 </g>
</svg>
