<?xml version="1.0" encoding="UTF-8"?>
<svg version="1.1" viewBox="0 0 139.21 139.21" xmlns="http://www.w3.org/2000/svg">
 <path d="m71.45 29.05q-8.75-8.75-21.15-8.75-12.35 0-21.1 8.75-8.75 8.8-8.75 21.15t8.75 21.1 21.1 8.75 21.15-8.75q8.75-8.75 8.75-21.1t-8.75-21.15m28 21.15q0 14.85-8.3 27.25l21.9 21.9 8-8q2.8-2.8 6.8-2.8t6.8 2.8q2.8 2.85 2.8 6.85t-2.8 6.8l-7.95 7.95 8.2 8.2q2.8 2.8 2.8 6.8t-2.8 6.8q-2.85 2.8-6.8 2.8-4 0-6.8-2.8l-43.75-43.7q-12.35 8.25-27.25 8.25-20.3 0-34.7-14.4t-14.4-34.7 14.4-34.75q14.4-14.4 34.7-14.4 20.35 0 34.75 14.4 14.4 14.45 14.4 34.75" fill="#3e3a39"/>
 <path d="m71.45 29.05q8.75 8.8 8.75 21.15t-8.75 21.1q-8.8 8.75-21.15 8.75t-21.1-8.75-8.75-21.1 8.75-21.15q8.75-8.75 21.1-8.75 12.4 0 21.15 8.75" fill="#fff"/>
 <path d="m49.65 80.15q-12.9 0-21.25-9.55-7.8-8.95-7.9-21.3 2.4 11.25 11.15 17.7 8.05 5.95 18.6 6.1 10.55 0.1 18.75-5.6 8.9-6.25 11.55-17.35-0.55 12.4-8.2 20.7-8.55 9.3-22.7 9.3" fill="#dbdcdc"/>
 <g fill="#0d131a">
  <path d="m136.55 97.6q-0.2-3.15-2.6-5.4-2.4-2.3-5.65-2.45-3.65-0.15-6.7 2.55-5.9 5.15-9.4 8.75-1 1.05-1.55 0.55-0.6-0.5 0.35-1.6 5.4-6.05 9.2-9.5 3.9-3.6 8.55-3.4 4.15 0.2 7.2 3.25 3 3 3.15 7.1 0.15 4.55-3.6 8.35-5.3 5.3-9.55 8.75-1.15 1-1.7 0.55-0.6-0.45 0.5-1.55l9.2-9.5q2.75-3 2.6-6.45"/>
  <path d="m72.15 28q9.25 8.8 9.25 22.2 0 13.05-8.95 22t-22.15 8.95q-12.8 0-21.75-8.7-9.2-8.95-9.2-22.2 0-13.3 8.85-22.05 8.8-8.75 22.25-8.75 12.75 0 21.7 8.55m-21.9-6.7q-12.05 0-20.4 8.45-8.4 8.4-8.4 20.5 0 12.05 8.45 20.4 8.4 8.4 20.45 8.4t20.45-8.4 8.4-20.45-8.45-20.5q-8.4-8.4-20.5-8.4"/>
  <path d="m76.75 91.8 1.7-1.25 43.55 43.3q2.85 2.85 6.35 2.7 3.2-0.15 5.65-2.5 2.45-2.4 2.65-5.6 0.25-3.5-2.5-6.45l-8.15-8.4 1.3-1.55 8.4 8.45q3.7 3.7 3.5 8.25-0.2 4.1-3.3 7.2-3.1 3.05-7.2 3.25-4.6 0.15-8.3-3.55l-43.65-43.85"/>
  <path d="m90.7 78.35 1.1-1.6 21.9 21.65-1.4 1.6-21.6-21.65"/>
  <path d="m57.75 42.8q3.05 3.05 3.05 7.4 0 4.3-3.05 7.4-3.1 3.05-7.45 3.05-4.3 0-7.4-3.05-3.05-3.1-3.05-7.4 0-4.35 3.05-7.4 3.1-3.05 7.4-3.05 4.35 0 7.45 3.05"/>
 </g>
 <path d="m48.9 43.45q1.6 0 2.75 1.1 1.1 1.1 1.1 2.7t-1.1 2.75q-1.15 1.1-2.75 1.1t-2.7-1.1q-1.1-1.15-1.1-2.75 0-1.55 1.1-2.7 1.15-1.1 2.7-1.1" fill="#fff"/>
 <path d="m98.55 53.05q0.7-13.05-5.45-24.8-6.1-11.7-17.1-18.7-11.65-7.35-25.7-7.35-20 0-34.05 14-14 14.05-14 34.05 0 14.05 7.4 25.65 7.05 10.95 18.8 17 11.85 6.1 24.95 5.4 13.95-0.75 25.85-9.3 1.35-0.95 1.8-0.4 0.4 0.55-0.9 1.55-11.8 9.1-26.3 10.05-13.5 0.85-26-5.45-12.45-6.3-19.9-17.75-7.95-12.1-7.95-26.75 0-21.9 14.95-36.3 14.5-13.95 35.4-13.95 15.4 0 27.7 7.9 11.45 7.4 17.55 19.85 6.05 12.35 4.95 25.9-1.1 14.3-10.05 26-0.9 1.2-1.45 0.8t0.3-1.65q8.5-11.85 9.2-25.75" fill="#0d131a"/>
</svg>
