<?xml version="1.0" encoding="UTF-8"?>
<svg version="1.1" viewBox="0 0 114.77 163.15" xmlns="http://www.w3.org/2000/svg">
 <path d="m71.55 29.2q-8.75-8.75-21.1-8.75t-21.1 8.75-8.75 21.1 8.75 21.1 21.1 8.75 21.1-8.75 8.75-21.1-8.75-21.1m28 21.1q0 14.9-8.25 27.25l18.75 18.7q2.8 2.85 2.8 6.85t-2.8 6.8q-2.85 2.8-6.8 2.8-4 0-6.85-2.8l-18.7-18.75q-12.35 8.25-27.25 8.25-8.3 0-16.05-2.7-7.5-2.6-13.8-7.5v62.85q0 3.95-2.85 6.8-2.8 2.8-6.8 2.8-3.95 0-6.8-2.8-2.8-2.8-2.8-6.8v-101.75q0-20.3 14.4-34.7t34.7-14.4q20.35 0 34.7 14.4 14.4 14.4 14.4 34.7" fill="#3e3a39"/>
 <path d="m71.55 29.2q8.75 8.75 8.75 21.1t-8.75 21.1-21.1 8.75-21.1-8.75-8.75-21.1 8.75-21.1 21.1-8.75 21.1 8.75" fill="#fff"/>
 <path d="m50.1 80.45q-11.1 0.15-20-8.4-9.9-9.55-9.4-24.1 1.15 11.5 9.65 18.65 7.85 6.55 18.75 7.15 11 0.6 19.5-5.2 9.35-6.3 11.9-18.2 0.15 13.05-9.45 21.8-8.95 8.2-20.95 8.3" fill="#dbdcdc"/>
 <g fill="#0d131a">
  <path d="m109.25 97.25q-11.8-12.4-18.55-18.8l1.1-1.7q12.4 11.65 19.35 19 3.85 4.05 3.6 8.7-0.25 4.15-3.5 7.15-3.2 2.95-7.45 2.95-4.65 0.05-8.3-3.75l-8.8-9.2-9.9-9.9 1.6-1.25 18.85 18.6q2.95 3 6.5 2.9 3.2-0.1 5.65-2.45 2.4-2.4 2.55-5.65 0.15-3.6-2.7-6.6"/>
  <path d="m72.3 28.5q9 9 9 21.8 0 13.05-9.1 22.05-9 8.85-21.75 8.85-13 0-22.1-9.15-9-9.05-9-21.75t8.75-21.65q8.95-9.2 22.35-9.2 12.8 0 21.85 9.05m-21.85-7.1q-12 0-20.35 8.45-8.35 8.4-8.35 20.45t8.35 20.45q8.35 8.45 20.35 8.45 12.05 0 20.45-8.45 8.45-8.4 8.45-20.45t-8.45-20.45q-8.4-8.45-20.45-8.45"/>
  <path d="m57.85 42.9q3.05 3.05 3.05 7.4t-3.05 7.4q-3.1 3.05-7.4 3.05-4.35 0-7.4-3.05t-3.05-7.4 3.05-7.4 7.4-3.05q4.3 0 7.4 3.05"/>
 </g>
 <path d="m49.05 43.55q1.55 0 2.7 1.15 1.1 1.1 1.1 2.7t-1.1 2.7-2.7 1.1-2.7-1.1q-1.15-1.15-1.15-2.7t1.15-2.7 2.7-1.15" fill="#fff"/>
 <path d="m100.7 53.6q-1.1 14.45-10.25 26.4-0.9 1.2-1.45 0.8-0.55-0.45 0.3-1.65 8.25-12 9.05-25.95 0.75-13.1-5.15-24.85-5.95-11.7-16.85-18.65-11.6-7.35-25.9-7.35-20 0-34 13.95-13.95 14-13.95 34v101.7q0 4 2.65 6.35 2.4 2.15 5.85 2.15t5.85-2.1q2.65-2.35 2.65-6.35l0.1-63.4 1.9 1.2 0.2 62.25q0 5.25-3.35 8.3-3.05 2.75-7.45 2.75t-7.4-2.75q-3.4-3.05-3.4-8.3l-0.1-101.8q0-21.6 15-36.1 14.6-14.2 35.45-14.2 15.2 0 27.45 7.85 11.5 7.4 17.7 19.8 6.15 12.4 5.1 25.95" fill="#0d131a"/>
 <path d="m19.15 87.2q13.95 11.15 31.3 11.15 14.45 0 28.9-9.25 1.4-0.85 1.75-0.35 0.4 0.5-0.85 1.5-6.05 4.85-13.85 7.6-7.95 2.75-15.95 2.75-9.05 0-17.3-3.05-8.65-3.2-14.95-9.25-1.05-1-0.65-1.5 0.45-0.5 1.6 0.4" fill="#0d131a"/>
</svg>
