<?xml version="1.0" encoding="UTF-8"?>
<!-- Created with Inkscape (http://www.inkscape.org/) -->
<svg version="1.1" viewBox="0 0 344.4 343.92" xmlns="http://www.w3.org/2000/svg">
 <g transform="translate(44.448 27.484)">
  <path d="m266.99 97.426c-29.643 5.5924-96.477 49.868-106.24 57.055v0.53801c-7.447 5.4909-7.9394 10.026-7.0413 12.866 2.4765 7.8092 18.922 14.648 40.422 15.039 33.859 0.60782 77.555-11.938 95.695-42.885 9.6491-16.459 12.59-31.294 8.0117-37.8-4.0699-5.7661-16.183-7.5772-30.845-4.81" fill="#0f141b"/>
  <path d="m193.84 180.43c-20.689-0.36963-36.742-5.6794-39.031-12.909-1.1294-3.5483 1.1581-7.5485 6.6211-11.576 9.7358-7.1575 76.845-50.376 106.3-55.925 14.169-2.6818 23.268-1.3183 27.049 4.0576 4.3032 6.0996 1.7085 17.328-7.6786 33.366-17.907 30.541-59.749 43.595-93.26 42.986" fill="#fff"/>
  <path d="m292.48 101.77c-4.6071-3.3882-12.909-3.9837-24.76-1.7536-29.454 5.5636-96.549 48.782-106.29 55.939-5.4622 4.0124-7.7513 8.0265-6.6211 11.576 1.536 4.8535 2.0411 6.5776 13.257 8.7797 22.109-35.076 79.772-64.878 124.41-74.542" fill="#dcdddd"/>
  <path d="m-42.507 132.84c-2.9118 4.0001-2.5216 11.489 0.99797 18.98 9.2146 19.646 41.799 46.507 82.264 41.117 25.876-3.4498 43.769-11.851 45.058-20.196 0.50514-3.3882-0.79673-10.519-12.228-15.85l-0.46408 0.59549c-11.823-5.5053-73.875-28.223-91.478-30.411-13.503-1.6962-21.312 1.8686-24.152 5.7665" fill="#0f141b"/>
  <path d="m-10.599 178.99c-15.053-9.1567-24.369-20.849-28.078-28.745-3.3184-7.0704-3.651-12.503-1.0144-16.14 3.1459-4.3172 10.576-5.969 20.95-4.6794 17.516 2.189 79.598 24.963 91.377 30.469 8.5333 3.9837 12.692 8.3596 12.04 12.663-1.1869 7.693-17.43 14.531-42.393 17.864-23.094 3.0843-41.509-4.5205-52.882-11.431" fill="#fff"/>
  <path d="m84.857 175.36c3.6675 2.3491-3.6962-11.489-12.228-15.474-11.779-5.4909-73.846-28.266-91.363-30.454-10.374-1.3019-17.821 0.32856-20.95 4.6654 32.598 4.3755 103.61 27.832 124.54 41.262" fill="#dcdddd"/>
  <path d="m220.84 37.497c-63.56 21.269-69.196 81.134-69.196 88.581 0 13.459 5.4478 20.964 10.837 22.413 2.8666 0.7803 5.6215 1.462 7.0556-0.99798 9.3596-16.039 48.405-68.109 83.438-94.738 7.4758-5.6646 9.9243-12.112 7.2733-17.719-3.1459-6.6503-17.038-5.0276-39.408 2.4641" fill="#0f141b"/>
  <path d="m162.78 147.38c-4.9694-1.3471-9.997-8.4466-9.997-21.298 0-7.36 1.9261-72.369 68.37-89.885 27.643-7.2873 35.815-3.8235 37.785 0.32856 2.4354 5.1435-4.4917 13.039-7.5776 15.271-35.8 25.89-73.614 77.295-83.003 93.391-1.1581 2.0001-3.2444 2.8091-5.578 2.1725" fill="#46799e"/>
  <path d="m151.37 125.94 1.3922 0.20534c1.3635-3.5196 3.4621-7.2006 5.2737-11.272 8.939-22.312 25.789-44.203 45.623-59.315 20.733-15.763 41.089-21.848 56.2-15.937l0.81317 0.32856-0.0147-0.85424c-0.0288-2.6366-0.50516-5.2014-2.5791-6.7226-21.848-16.096-109.01 19.067-106.71 93.565" fill="#0f141b"/>
  <path d="m256.75 33.693c1.5647 1.1458 2.4354 2.6941 2.6531 4.5784-34.178-12.301-84.089 28.947-102.11 73.889-1.3183 2.9693-3.3184 7.9686-4.4042 10.62 3.4498-73.498 86.234-101.9 103.87-89.088" fill="#5892bf"/>
  <path d="m-27.129 79.032c-2.3615 6.201 5.7373 14.662 9.3161 16.98 39.915 25.803 62.096 43.74 73.614 62.734 2 3.302 6.0273 4.2888 9.9534 3.187 2.7229-0.75155 5.969-3.651 5.969-13.097 0-14.618-27.136-67.442-63.661-74.295-20.066-3.766-32.671-2.1438-35.192 4.4913" fill="#0f141b"/>
  <path d="m56.119 156.33c-11.605-19.153-32.874-36.887-73.411-61.198-3.3307-2.0001-9.852-10.287-7.7226-15.894 1.5935-4.2018 8.5916-8.2581 32.888-3.6962 36.047 6.7661 62.835 58.88 62.835 73.281 0 6.8819-1.8686 11.185-5.2305 12.127-3.3594 0.94048-7.548-1.6386-9.3592-4.6219" fill="#46799e"/>
  <path d="m-25.344 76.256c-1.8399 1.7947-1.4497 4.2161-0.96922 7.0848l0.16428 0.85424 0.68174-0.5339c5.0129-6.2589 13.735-6.3168 22.587-4.3755 27.195 5.9837 58.213 41.48 73.6 71.847l0.8994 1.7947 0.12321-4.0987c-1.7372-63.704-77.454-91.812-97.071-72.571" fill="#0f141b"/>
  <path d="m-25.437 81.647c0-1.8399 0.62424-3.3882 1.8851-4.6071 16.256-15.966 94.26 10.402 94.26 71.789l-0.01434 0.12321c-15.763-30.179-45.956-65.617-72.948-71.557-8.8084-1.9425-18.979-1.2896-23.181 4.2449" fill="#5892bf"/>
  <path d="m87.145 265.58c-9.4898 0-21.819 7.3891-26.195 15.285-4.0124 7.2298-1.9138 16.372 9.5621 17.879 8.4179 1.1006 20.313-6.534 24.703-14.793 5.0995-9.6056 0.98565-18.371-8.07-18.371" fill="#0f141b"/>
  <path d="m91.782 284.59c-4.419 6.4326-13.097 12.677-21.776 11.388-10.055-1.4908-8.8816-10.692-6.6068-14.647 3.2732-5.7229 11.141-12.46 22.732-13.721 7.7945-1.1171 12.315 7.2733 5.6503 16.98" fill="#5892bf"/>
  <path d="m88.878 288.14c1.1006-1.1458 2.0699-2.3491 2.8995-3.5484 6.6642-9.6927 2.1438-18.081-5.6359-16.98-11.605 1.2608-19.472 8.0121-22.747 13.72 9.0409-5.7804 23.471-0.73924 25.485 6.8096" fill="#46799e"/>
  <path d="m70.081 283.13c-11.721-1.5196-14.271 18.748-13.547 27.586 0.57907 7.0848 1.9549 7.3891 6.2445 1.9713 2.7968-3.5196 12.416-13.952 13.213-15.807 1.5812-3.6962-0.49282-13.039-5.911-13.749" fill="#0f141b"/>
  <path d="m59.005 314.34c-1.3758-0.32854-0.32856-23.456 6.1575-28.382 6.9254-5.2593 10.62 6.1283 9.2146 9.3883-0.73924 1.7249-15.343 19.008-15.372 18.994" fill="#fff"/>
  <path d="m73.718 289.09c0.96923 2.3327 1.2321 4.955 0.66532 6.2589-0.60782 1.4046-10.345 13.069-14.01 17.4 3.421-11.489 8.2294-19.82 13.344-23.659" fill="#dcdddd"/>
  <path d="m70.319 266.81c-1.536 5.3459 5.8531 13.3 16.212 8.6495 6.5484-2.9282 8.7941-10.214 6.3024-15.589-0.72282-1.5812-21.008 1.6797-22.515 6.9398" fill="#0f141b"/>
  <path d="m71.496 265.17c1.1746-4.0864 12.938-7.3456 19.907-5.6794 1.9261 7.3456-1.8235 12.518-6.056 14.416-8.7801 3.9426-13.721-2.5504-13.851-8.7362" fill="#46799e"/>
  <path d="m72.878 224.18c3.8974-3.9426 9.084-9.2725 15.241-7.5193 5.9981 1.7085 18.269 37.8 18.269 37.8s-3.8687 5.3751-8.1711 6.8671c-1.8851 0.66531-7.6786 0.0821-14.17 1.0883-3.6798 0.55033-13.532 9.0117-18.69 6.8675-5.1578-2.1438-9.0117-12.677-5.1578-22.978-2.6243-5.042-1.4908-24.702 0.653-25.774 0.87066-0.43533 7.737 3.651 12.025 3.651" fill="#5892bf"/>
  <path d="m100.44 238.49c9.0261-0.32855 5.9402 15.966 5.9402 15.966s-3.8523 5.3751-8.1567 6.8675c-1.885 0.66531-7.679 0.0821-14.17 1.0883-3.6798 0.55033-13.532 9.0113-18.69 6.8671-2.2875-0.95691-4.3324-3.5648-5.5492-7.07 2.0986 1.577 6.6355 1.4333 19.965-9.9826 5.5201-4.7377 8.4754-13.285 20.66-13.735" fill="#46799e"/>
  <path d="m58.68 234.1c-0.04112 5.0129 0.36962 9.997 1.5195 12.199l3.2034-7.2585c-1.6222-1.8851-3.1746-4.6219-3.7537-8.7218-0.20534-1.306-0.44764-2.2465-0.44764-2.2465z" fill="#46799e"/>
  <g fill="#0f141b">
   <path d="m117.37 243.91c-0.32855-8.5624-24.644-28.832-30.063-30.382-3.2609-0.94047-10.185 4.2305-16.517 12.039-4.6363 5.723-2.2875 5.9114 2.7229 0.12321 5.2014-6.0129 10.721-10.098 11.707-9.8233 5.9833 1.7085 27.209 17.415 27.484 24.485 0.20534 6.9834-10.866 19.747-17.111 20.399-12.431 1.3019-10.562-1.4785-20.4 4.8244-8.8232 5.6507-13.141 1.3758-14.836-5.8096-1.2033-5.1287-0.0821-10.779 2.2013-16.256 2.9857-7.0848 2.1438-10.055-0.99797-3.1746-3.1007 6.8096-4.7521 13.996-3.4785 20.356 1.5647 7.8088 6.4182 9.9387 9.4463 10.171 4.6942 0.36962 12.402-7.3312 18.878-7.6643 11.301-0.59549 14.372-0.0147 22.138-9.3304 0 0 8.8232-7.6064 8.8232-9.7797v-0.16427"/>
   <path d="m60.421 245.01c-0.91174-4.897-0.60782-20.631 1.306-22.819 1.0596-1.2156 7.0704 3.9262 10.721 2.6366 0 0 1.6058-1.6099 1.5647-1.5647-5.6507 0.4764-7.3456-2.3615-10.49-3.651-3.3759-1.3758-4.0001-0.36962-4.5492 2.2177-1.766 8.3596-1.536 18.096 0.32856 26.151 0.04111 0.24641 1.7249 0.24641 1.1171-2.9693"/>
   <path d="m39.468 155.3c-1.651 0.62425-3.7249 3.536-4.1434 6.679-0.44764 3.4908-0.16428 6.1866 2.1602 7.8528 2.9857 2.115 5.9402 4.4334 7.7513 7.983 7.2437 14.213 16.618 19.979 26.6 18.197 2.4765-0.43534 4.6359-1.8399 5.6359-4.4769 4.274-11.373-12.735-33.902-13.474-34.859l-0.16428-0.20534-0.28748-0.0411c-5.2157-1.1171-10.707-1.4497-13.214-0.78441-3.0843 0.82548-4.4621 0.41068-6.1427-0.32856-1.536-0.66532-2.998-0.653-4.7233 0"/>
  </g>
  <path d="m70.04 194.33c-5.4622 0.94048-14.662-2.5216-22.674-16.603-1.9426-3.4334-4.4478-6.6938-7.6643-8.983-2.534-1.7947-2.534-4.9402-2.3163-6.6642 0.36963-2.6941 1.6674-4.9841 2.6243-5.3464 1.1458-0.41891 2.4765 0.16427 3.881 0.75155 5.5632 2.419 10.04-2.5339 19.081 0.36963 1.6386 2.2177 13.662 18.791 13.662 29.455 0 1.3183-0.20534 2.5627-0.60781 3.6633-0.63658 1.6962-3.6059 2.9282-5.9837 3.3471" fill="#5892bf"/>
  <path d="m71.593 171.61c2.7229 5.2301 5.042 11.04 5.042 15.705 0 1.3347-0.20535 2.5627-0.60782 3.6798-0.63656 1.6797-3.6059 2.9282-5.9837 3.3307-5.4617 0.9569-14.662-2.5216-22.674-16.604 14.604 16.444 25.89 6.4474 24.224-6.1139" fill="#46799e"/>
  <path d="m23.428 151.24c-1.0719 1.2156-1.766 2.6941-0.5955 3.6058 3.3184 2.5627 14.372 10.664 16.792 10.953 3.651 0.44766 5.9254-6.7226 3.5771-8.2725l-13.43-8.5337c-1.2608-1.0267-4.9841 0.69406-6.346 2.2465" fill="#0f141b"/>
  <path d="m28.792 150.18" fill="#5892bf"/>
  <path d="m42.087 162.38c-0.62424 1.0719-1.7249 1.6674-2.653 1.2608-3.3759-1.462-12.547-7.7078-14.937-9.9534-0.36962-0.32855-0.43532-0.63656-0.16428-1.0719 0.82548-1.421 3.8687-2.5627 4.5205-2.3902 2.3779 1.9426 11.373 7.6351 12.981 8.8232 1.0144 0.7228 0.88298 2.2588 0.2464 3.3307" fill="#5892bf"/>
  <path d="m36.011 161.78c-4.1147-2.4765-9.7214-6.4182-11.518-8.0844-0.36962-0.36961-0.41889-0.65299-0.16426-1.0883 0.82549-1.421 3.881-2.5504 4.5348-2.3902 1.0431 0.85424 3.3882 2.4477 5.8096 4.0576-0.62426 2.534-0.82549 4.5348 1.3471 7.5049" fill="#46799e"/>
  <path d="m1.4046 97.112c-12.764 2.6531-14.793 1.8276-19.863 10.402-0.76799 1.2896-7.9103 2.6079-15.777-0.56265-10.113-4.0699-8.5481 3.6223-4.8104 9.62 6.0852 9.765 21.559 16.85 28.397 21.138-2.2588 0-5.3895-0.16428-6.7661-0.32856-7.215-0.87066-12.518 1.7536 0.79673 8.4902 8.6495 4.3755 11.33 4.2884 20.979 9.765 10.46 5.9402 20.848 5.2014 26.064-0.0411 10.939-10.982-6.302-23.022-10.026-34.786-3.7537-11.909-9.3883-25.687-18.994-23.702" fill="#0f141b"/>
  <path d="m-18.84 109.37c5.0851-8.1858 8.2294-8.0409 20.588-10.605 5.8388-1.2156 11.388 6.3747 16.502 22.558 1.0596 3.3636 4.9985 9.1711 9.1567 15.329 6.4618 9.5621 5.4765 15.56-0.78031 19.269-6.433 4.0289-17.241 0.84192-22.095-2.3614-8.0121-5.2737-17.023-7.2442-22.428-10.562-6.1139-3.766-3.8235-4.1438-0.32854-3.8522 2.9118 0.24641 7.7801 0.71049 9.4462-0.0821 1.7947 1.1171 3.1582 1.3922 2.8543 0.82548-0.28748-0.56675-4.5061-3.8399-4.5061-3.8399-5.5196-3.421-21.24-11.533-27.02-21.08-4.1578-6.8963-1.1581-7.983 2.9405-6.3312 6.1139 2.4641 14.589 2.4641 15.662 0.73923" fill="#5892bf"/>
  <path d="m-5.9168 139.88c-0.52159-0.36962-4.5057-3.8399-4.5057-3.8399-5.5201-3.4169-21.24-11.518-27.02-21.08-1.1171-1.8235-1.7085-3.2444-1.9138-4.3176 0 0 22.891 15.372 31.382 23.862 9.4462 9.4319 4.0124 6.7226 2.0575 5.3751" fill="#46799e"/>
  <path d="m-21.61 140.05c0.28748 0.60782 1.421 1.536 3.7085 2.9405 5.4043 3.3307 14.416 5.2884 22.428 10.576 4.8535 3.187 15.662 6.3895 22.095 2.3615 0.57908-0.32855 1.1171-0.71049 1.6099-1.0883-6.4039 0.96922-13.025-0.41069-22.906-4.7956-8.9682-4.0124-22.949-9.5768-26.933-9.997" fill="#46799e"/>
  <path d="m-18.292 111.45" fill="#5892bf"/>
  <path d="m-12.451 94.933c-8.1136 3.8399-8.5481 14.329-6.6647 16.517 2.0288 2.7968 8.1423 3.6223 13.547 2.1725 7.9973-2.1438 14.198-7.8959 12.924-12.836-1.1294-4.3755-11.431-9.8229-19.805-5.8532" fill="#0f141b"/>
  <path d="m-16.955 110.87c-1.6222-1.9836-0.62424-3.5073-0.20534-6.288 0.24642-1.6099 1.1294-5.5488 3.9837-7.3308 4.4334-2.7804 11.344-2.6079 15.386 0.36962 2.1315 1.5647 3.7249 3.3759 3.3759 5.2158-0.63657 3.3882-6.2297 7.5341-12.083 9.1132-4.6511 1.2444-9.2873 0.32855-10.461-1.0883" fill="#5892bf"/>
  <path d="m-16.955 110.87c-0.68174-0.84191-0.8994-1.5935-0.8994-2.4066 0.01434-1.0883-0.28748-0.66532-0.0821-2.2752 4.8248 2.7229 17.922-0.75157 20.631-8.1859 1.8686 1.4785 3.2034 3.1459 2.883 4.8392-0.63658 3.3882-6.2297 7.5341-12.083 9.1132-4.6511 1.2444-9.2873 0.32855-10.461-1.0883" fill="#46799e"/>
  <path d="m-29.428 91.54c-0.16426-3.1295-0.79673-5.6503 3.7825-1.2321 2.653 2.5504 9.4467 6.5776 11.257 7.4762 1.8111 0.89941 1.1171 2.883 0.653 5.2593-0.53801 2.7804-3.3471 4.7808-3.7824 4.6794-5.8967-1.9138-11.561-9.5621-11.909-16.183" fill="#fff"/>
  <path d="m-13.732 103.04c-0.44766 2.3902-3.3594 4.7812-3.7825 4.6798-5.0999-1.651-9.997-7.5628-11.489-13.402 1.9426 2.3779 8.3452 10.084 15.271 8.7218" fill="#dcdddd"/>
  <path d="m-2.8005 78.308c0.20534-1.2321 1.3758-1.306 2.3779 0.82548 2.2465 4.7377 5.3459 15.937 2.7968 19.472-1.8235 2.5791-8.4319 1.5647-9.6927-2.1315-1.3922-4.1147 2.7968-7.8959 4.5204-18.168" fill="#fff"/>
  <path d="m0.32242 80.362c0.24642 9.2869-1.4785 16.024-5.8388 18.487 1.5072 0.98565 4.1291 0.87066 5.5923 0.82548 2.1315-0.04111 3.0432-2.3163 3.0432-5.9981 0-4.3607-1.5812-10.736-2.7968-13.315" fill="#dcdddd"/>
  <g fill="#0f141b">
   <path d="m1.4962 98.516c-0.94048 1.3347-5.8244 1.2156-7.8815-1.4046-0.94048-1.1869-0.53801-3.0268 0.46408-5.5488 1.1869-2.957 2.8091-7.0269 3.2896-11.373 0.28748-2.6366 1.3183-1.1458 2.3615 1.0883 1.2156 2.5791 2.534 8.8524 2.534 13.214 0 1.7947-0.20534 3.2732-0.76799 4.0289m-0.12321-17.893c-2.2875-4.8535-4.4478-6.4474-5.0129-3.2896-1.536 8.6783-2.345 10.301-3.6962 13.677-1.7536 4.3899-0.91172 5.9981 0 7.1571 2.3902 3.0268 8.6204 3.2609 10.055 1.2321 2.4189-3.3882 0.32854-15.198-1.3471-18.777"/>
   <path d="m-17.274 106.5c-2.4641 0-8.5916-5.3172-10.808-12.547-1.1294-3.7373-1.1746-6.6642 1.3306-3.881 3.0432 3.3594 7.3747 6.5632 11.402 8.1715 2.3615 0.94048 0.73924 8.2581-1.9261 8.2581m2.7968-10.026c-4.0124-1.6099-7.8672-4.1147-11.344-7.447-3.2321-3.1007-4.4913-2.9405-4.3028 1.0883 0.59549 12.054 10.374 18.11 12.532 18.11 4.6798 0 7.0992-10.171 3.1171-11.75"/>
   <path d="m63.551 166.94s1.3471 4.2161-0.32854 9.374c-1.1294 3.4498-0.79674 6.7657 1.5072 12.604 2.2465 5.6794 13.46 46.71 35.394 62.285 24.224 17.212 67.486 11.706 88.9-13.474 12.604-14.807 1.6797-44.479-10.446-80.279-2.2465-6.6647-9.0409-10.75-19.226-12.315-31.527-4.8827-90.232 15.184-95.81 21.805"/>
  </g>
  <path d="m102.35 153.79c13.416-3.7948 38.611-9.7506 56.736-6.9542 9.5477 1.4785 15.864 5.9254 17.835 12.011 13.083 40.451 21.196 63.415 10.054 76.947-19.936 24.21-58.793 27.05-79.38 17.343-20.646-9.7506-33.323-43.045-41.234-67.37-0.85423-2.6079-1.6099-4.9693-1.2896-8.1715 0.2464-2.3491-0.20535-8.2725 0.20534-8.7505 2.4354-2.883 17.908-9.6204 37.061-15.053" fill="#5892bf"/>
  <path d="m152 146.18c2.4477 0.0821 4.8244 0.32856 7.0992 0.66532 9.5333 1.4785 15.864 5.911 17.821 11.996 13.083 40.466 21.196 63.415 10.055 76.961-19.936 24.195-58.793 27.035-79.381 17.328-9.4898-4.4769-17.299-13.938-23.746-25.224 11.084 12.054 41.176 15.082 65.197-0.82548 21.225-14.053 17.864-38.944 2.957-80.902" fill="#46799e"/>
  <g fill="#0f141b">
   <path d="m111.22 251.11c-11.46-14.039-14.923-30.266-29.643-67.645-0.60782-1.8111-0.73924-3.2609-0.12321-4.955-0.62426 0.36961-1.2156 0.88298-1.9426 0.91172-0.20534 0.63657-0.99797 2.1315-0.28748 3.881 14.59 36.902 16.763 54.374 30.266 69.007 2.7229 3.2034 6.6938 5.2736 9.0409 5.7809l3.4046 0.0821c-2.8255-0.41891-7.36-2.9857-10.692-7.0704"/>
   <path d="m158.76 249.29c-8.1858-9.3304-19.428-43.725-28.194-69.529-0.4189-1.2156-1.577-3.7537 0.16427-5.4765-0.43533 0-1.8111 0.0821-2.2465 0.0821-1.0144 1.8851-0.5955 3.7948 0.0821 5.9981 9.765 30.642 20.573 61.922 28.02 69.877 2.9405 3.1582 6.7078 4.2157 8.2438 2.9405l2.23-0.46408c-1.9836 0.50514-5.2736 0.0292-8.3308-3.4498"/>
   <path d="m163.52 166.82c5.4909 11.46 21.095 59.068 19.428 67.225l1.2731 0.24642c2.3163-11.257-11.735-53.519-18.704-68.051z"/>
   <path d="m103.76 241.44 0.55032 1.7536c11.431 4.0288 45.536 0.32855 46.058-5.81l-0.73923-1.9261c-3.8687 7.6934-39.755 8.8524-45.869 5.9837"/>
   <path d="m97.372 81.428c-24.905 4.3611-53.085 26.079-48.796 65.385 2.5504 23.442 15.734 38.959 29.629 34.134 16.227-5.6503 36.742-1.8851 54.142-5.8096 13.865-3.1171 24.427-9.1567 34.279-18.052 7.3743-6.6503 9.6779-10.519 8.6495-16.69-6.2589-37.583-35.206-66.458-77.903-58.967"/>
  </g>
  <path d="m51.186 127.92c3.8235-19.776 20.051-38.872 45.507-44.044 61.517-12.518 80.772 54.808 74.745 66.008-3.2157 5.9546-21.877 19.979-41.697 23.08-18.617 2.9118-38.654 0.87065-51.766 5.433-20.385 7.07-30.671-30.367-26.789-50.477" fill="#5892bf"/>
  <path d="m156.54 161.58c6.7661-3.7824 14.561-8.2873 15.618-10.258 3.1007-5.7661-0.68174-26.788-13.488-44.116-5.8967-7.9834-26.238-13.807-2.1315 54.374" fill="#46799e"/>
  <path d="m181.83 133.53c-4.274 4.6219-6.1431 8.5481-17.603 11.257-10.388 2.4477-14.039 16.835-5.4913 29.44 9.4175 13.88 23.022 8.2586 28.513-3.2034 5.578-11.634 5.0852-19.197 9.6927-23.905 3.1007-3.1746 2.304-8.7074-1.9261-12.634-4.6798-4.3463-10.374-3.9837-13.184-0.95691" fill="#0f141b"/>
  <path d="m180.96 137.76c2.4764-2.8707 5.3172-5.3172 8.5624-4.332 1.4497 0.43534 5.3464 3.421 6.534 6.8675 0.60783 1.766 0.32856 3.84-0.7803 5.0272-2.7968 2.998-4.4621 8.2729-6.0996 13.909-0.96923 3.3471-1.8851 6.5049-2.957 8.7362-2.5627 5.3464-7.7801 11.765-14.01 12.228-4.1726 0.28748-8.0409-2.115-11.503-7.2154-8.0992-11.938-3.6798-24.601 5.5632-26.788 8.1715-1.9261 11.982-5.2884 14.691-8.4323" fill="#5892bf"/>
  <path d="m189.18 159.22c-0.96922 3.3471-1.885 6.5197-2.957 8.7362-2.5627 5.3463-7.7801 11.765-14.01 12.228-4.1726 0.32855-8.0409-2.115-11.504-7.215-0.89941-1.3348-1.651-2.7804-2.2588-4.3032 12.344 12.098 26.166-0.9569 30.729-9.4462" fill="#46799e"/>
  <path d="m198.4 124.39c-0.79674 1.4046-14.155 11.576-14.937 14.227-1.0432 3.5073 3.8112 8.0117 9.1128 5.8531 1.9261-0.78031 15.256-11.996 16.966-15.517 0.32855-0.63656 0.76798-2.2752-1.8974-3.6921-2.3327-1.2321-8.3308-2.4641-9.2434-0.87066" fill="#0f141b"/>
  <path d="m201.56 127.76" fill="#5892bf"/>
  <path d="m207.87 127.26c0.55033 0.52158 0.4107 0.84192 0.28749 1.0144-1.4785 3.0144-14.242 13.358-16.154 14.315-2.3163 1.1746-4.6362 0.28748-5.8096-1.0432-1.8111-2.0124-1.0596-3.3019 2.3615-6.1574 3.8235-3.1746 9.707-7.8672 11.084-10.113 0.87066-0.4189 6.4326 0.28748 8.2146 1.9836" fill="#5892bf"/>
  <path d="m193.89 141.33c4.1434-3.072 13.054-10.562 14.271-13.054 0.0821-0.16426 0.24642-0.49282-0.28748-1.0144-1.7824-1.6962-7.3312-2.3902-8.215-1.9836-0.96921 1.5812-4.1578 4.3755-7.302 6.9977 2.8091 1.1294 2.2875 7.2154 1.5524 9.0553" fill="#46799e"/>
  <path d="m193.11 120.09c-0.32856 8.9682 7.4035 15.792 16.256 15.864 10.054 0.0821 16.734-6.5632 22.341-8.5333 5.6067-1.9836 8.6495-2.1602 14.894-8.0557 6.0704-5.7082 6.4762-11.257-2.2013-8.3308-4.9693 1.6674-8.8811 1.8851-9.475 1.2156 12.126-10.576 21.196-14.459 29.107-25.326 10.374-14.256-8.0992-8.606-12.46-8.8232-5.9694-0.28749-7.7222-3.6346-9.0553-6.1866-1.536-2.9405-12.779-9.6056-22.819-7.0844-9.7218 2.419-14.575 12.459-15.647 20.993-2.0411 16.039-10.765 29.672-10.939 34.265" fill="#0f141b"/>
  <path d="m206.71 85.371c0.84192-7.3312 4.8244-17.096 13.778-19.342 9.374-2.3491 19.559 5.1722 20.819 7.5628 4.3898 8.3744 9.4175 6.4909 19.878 5.665 4.3611-0.32854 4.6942 3.2034-1.3347 9.5912-7.3891 7.8667-19.226 15.763-27.817 23.167-2.3779 2.0411-3.651 4.5927 0.8994 1.5196 1.4497 1.3922 7.447 1.2033 12.46-0.89941 3.7249-1.5647 4.6794 0.36963 0.84192 4.2161-6.0852 6.0848-11.59 7.7366-14.778 8.8084-1.6099 0.53801-3.1294 1.0596-4.81 2.0863l-1.0596 0.65298c-4.3032 2.6941-9.1855 5.7373-16.386 5.7373-8.4758 0-13.011-6.0125-13.764-12.068-0.62424-5.0564 9.7941-23.79 11.272-36.699" fill="#5892bf"/>
  <path d="m230.03 114.94c-0.53389-0.16428 0.52158-1.651 2.0124-2.9405 8.5912-7.3891 20.414-15.285 27.817-23.152 2.9282-3.1171 4.3611-5.5492 4.5492-7.2006-9.0405 3.0432-26.861 20.646-34.033 29.15-1.3635 1.6222-3.8523 6.7078-0.32855 4.1434" fill="#46799e"/>
  <path d="m228.7 123.33c-3.4908 0.92816-18.777 10.504-28.817 7.4758 2.2588 2.0124 5.3603 3.3307 9.3156 3.3307 7.2006 0 12.083-3.0432 16.401-5.7373l1.0555-0.653c1.6797-1.0432 3.2034-1.5524 4.7956-2.0863 3.2034-1.0719 8.6926-2.7393 14.792-8.8232 1.2896-1.3019 2.0452-2.3779 2.3163-3.1746-4.7233 3.8112-11.735 7.5193-19.863 9.6635" fill="#46799e"/>
  <path d="m214.51 65.377c-5.4043 6.7805 0.32854 15.039 14.908 15.068 8.9103 0.01435 12.938-3.1171 13.604-6.6067 0.87066-4.5636-2.8543-12.59-9.8233-14.589-6.5049-1.8851-15.169 1.7249-18.69 6.1283" fill="#0f141b"/>
  <path d="m229.63 78.535c-6.7661-0.01435-13.083-2.5504-14.691-5.911-0.87066-1.8111-0.4189-3.8687 1.3635-6.0852 3.187-4.0124 10.852-7.2877 16.749-5.5923 2.4477 0.71049 4.7665 3.1746 6.3747 6.7513 1.0144 2.2875 1.421 4.3176 1.421 5.5057 0 0.41068-0.0411 0.72282-0.16428 0.8994-1.3471 2.7968-5.4909 4.4478-11.069 4.4334" fill="#5892bf"/>
  <path d="m229.63 78.535c-6.7661-0.01435-13.083-2.5504-14.691-5.911-0.81316-1.6797-0.47639-3.5484 0.96922-5.578 3.1007 5.7082 18.472 7.7509 24.47 3.3019 0.32856 1.1746 0.46408 2.1602 0.46408 2.8543 0 0.41068-0.0411 0.7228-0.16428 0.8994-1.3471 2.7968-5.4909 4.4478-11.069 4.4334" fill="#46799e"/>
  <path d="m234.32 67.162c-1.0883-2.2013-0.79673-4.8244-0.28748-5.2157 0.79675-0.84191 8.5337-8.0265 10.852-13.894 5.0999 6.7805 1.1581 21.471-6.1427 23.529-0.41068 0.0821-2.9857-1.4908-4.419-4.419" fill="#fff"/>
  <path d="m245.1 48.561c1.885 9.9822-4.7086 16.444-9.5477 20.993 1.1869 1.5483 3.2321 1.8276 3.536 1.7372 6.3891-1.8111 10.33-16.995 6.0125-22.732" fill="#dcdddd"/>
  <path d="m217.48 68.499c-5.5344-4.4625-4.5784-17.69-1.1006-21.964 0.0821 0.16428 1.651 4.7812 7.0121 11.866 2.1315 2.8255 2.7804 3.1295 2.4764 5.4765-0.43532 3.3307-6.1139 6.4474-8.3887 4.6219" fill="#fff"/>
  <path d="m223.32 67.107c-1.9713 1.5647-4.419 2.534-5.8388 1.3922-4.187-3.3759-4.665-11.779-3.1418-17.516 0.76799 8.9682 4.3607 13.706 8.9826 16.125" fill="#dcdddd"/>
  <g fill="#0f141b">
   <path d="m225.7 63.136"/>
   <path d="m227.17 63.783"/>
   <path d="m239.02 70.495c-3.0144 0.82549-5.9837-6.8384-4.4769-7.9686 3.9426-2.9693 8.693-9.2142 10.33-12.981 4.0864 5.4334-0.36961 19.4-5.8531 20.95m7.8672-21.848c-1.0144-2.1027-2.2177-1.8235-4.0288 1.651-1.5935 3.0555-6.5488 8.4754-9.8233 10.953-2.2752 1.7249 1.2896 12.242 6.4182 10.794 5.9546-1.6797 11.634-14.749 7.4326-23.399"/>
   <path d="m241.39 270.5c-11.083-8.2146-22.515-7.5772-28.382-5.042-5.81 2.5052-10.156 18.313 3.0268 29.324 8.4466 7.0412 25.079 11.272 31.57 3.3471 5.7809-7.0704 4.2884-19.835-6.2154-27.629"/>
  </g>
  <path d="m244.48 276.75c5.8096 7.1136 4.9985 16.241-1.6797 20.428-8.7801 5.4765-22.877-0.0411-29.31-8.1715-4.0288-5.0856-5.4622-15.111-1.6797-20.428 3.0843-4.3607 20.979-6.1862 32.671 8.1715" fill="#5892bf"/>
  <path d="m244.48 276.75c-10.446-5.4909-28.629 1.0719-30.99 12.257-4.0288-5.0856-5.4622-15.111-1.6797-20.428 3.0843-4.3607 20.979-6.1862 32.671 8.1715" fill="#46799e"/>
  <path d="m206.03 258.01c-0.28748 7.447 2.4066 18.675 13.691 18.675 11.315 0 11.808-10.576 8.8959-17.777-1.0144-2.4929-3.6059-0.63657-7.1862-1.5072-4.0864-0.99797-12.344-1.3471-15.401 0.60783" fill="#0f141b"/>
  <path d="m221.09 258.79c3.1582 0.76799 4.9406 0.85423 6.0852 2.8091 1.5935 2.7516 1.7249 11.996-5.6794 13.01-6.969 0.95691-12.822-3.6962-12.822-14.923 2.7229-1.7372 8.7218-1.7947 12.416-0.89941" fill="#46799e"/>
  <path d="m234.01 283.51c-3.6962 2.8091-4.7085 8.6783-1.9261 13.141 1.3635 2.1725 4.0289 3.3882 6.5197 4.955 2.998 1.8686 5.723 4.274 9.6348 7.5916 5.8532 4.9985 7.0556 3.4909 5.7809-3.9714-3.1294-18.443-12.446-27.469-20.008-21.718" fill="#0f141b"/>
  <path d="m252.33 309.56c-1.0432 0.62425-6.8819-5.5057-12.749-9.6491-2.2752-1.6099-4.3903-2.7516-5.5928-4.665-1.4497-2.3163-2.1438-5.5492-0.91174-8.0413 1.5483-3.1007 5.6215-4.9981 9.2725-1.9836 7.6786 6.3603 11.286 23.558 9.9822 24.34" fill="#fff"/>
  <path d="m250.72 308.9c-2.3615-1.651-6.7513-5.8823-11.142-8.997-2.2752-1.5935-4.3898-2.7393-5.5924-4.6654-1.0432-1.6674-1.7084-3.8235-1.5196-5.8388 9.9243 3.536 19.037 20.052 18.255 19.501" fill="#dcdddd"/>
  <path d="m201.71 207.87c4.81 0.16427 12.764-8.9247 13.938-7.8528 3.6798 3.3882 6.7226 24.195 4.9693 31.715 6.5632 8.8089 11.301 18.168 7.8963 28.194-2.4929 7.3312-10.185 4.0001-18.168 2.3327-15.72-3.2896-27.687-8.9247-29.933-10.823-7.1283-5.9981-10.388-8.3596-11.533-24.818-0.41891-5.8531 3.8974-11.272 8.1567-16.024 5.7373-6.3891 19.067-7.3743 24.673-2.7229" fill="#5892bf"/>
  <path d="m229.63 252.53c0.0821 2.419-0.28748 4.8827-1.1294 7.3891-2.4929 7.3308-10.185 4.0124-18.168 2.3492-15.72-3.3019-27.687-8.9247-29.933-10.823-6.7948-5.7373-11.098-9.9678-11.692-25.398 11.663 17.791 58.141 35.511 60.923 26.484" fill="#46799e"/>
  <path d="m218.37 206.86c2.9693 9.5042 3.1746 20.892 2.23 24.876l-4.2161-7.2733c0.52158-0.0821 2.5791-7.7074 1.9836-17.603" fill="#46799e"/>
  <g fill="#0f141b">
   <path d="m222.83 233.72c-2.5052-2.9857-4.0987-7.2729-6.4182-11.779-3.0268-5.911-3.1746-3.4046-0.68174 2.6531 2.0699 5.0564 4.0412 8.3308 5.578 10.417 3.5648 4.7956 8.3596 10.794 7.1571 20.225-1.0267 8.1279-3.9262 9.8376-13.329 7.3456-4.8539-1.2731-23.167-4.5636-33.874-11.866-16.357-11.17-14.155-37.423 4.0864-44.03 4.1874-1.5196 9.3596-1.0883 13.851 0.82548 3.1418 1.3306 2.189 1.6058 6.1431 0.12322 4.2014-1.5647 8.606-6.5053 9.3448-6.346 1.7372 0.36962 7.2006 18.183 5.288 29.484 0.28748 0.95691 0.76799 2.115 1.4333 2.883 2.3902-12.692-2.9693-34.612-5.5201-35.206-3.3019-0.78032-6.3603 6.8384-13.923 8.3308-4.7233-2.304-10.75-4.1295-16.603-2.6654-15.966 4.0124-26.789 31.512-7.0125 47.376 10.069 8.07 21.747 8.3017 33.279 12.141 13.46 4.4765 19.153 0.28748 19.371-9.5625 0.20534-8.5624-3.5935-14.923-8.1715-20.356"/>
   <path d="m121.46 117.01c-4.5636-16.27-24.022-21.428-33.164-16.951l1.2033 1.5196c10.33-3.7249 25.238 2.4066 29.31 15.647 1.8851 6.0996 1.4908 14.315-1.3758 24.789-3.5484 13.025-8.2294 16.937-15.14 16.372-7.2298-0.60781-12.619-1.7085-16.401-0.96922-2.189 0.4189-6.5197 2.8543-7.2298 3.1582-3.8112 1.5647-5.1143 1.6962-7.3887 0.46408-1.766-0.95691-3.9837-4.2449-5.2593-7.693-0.5955-0.20534-1.3758-0.41068-2.0699-0.78031 1.1294 4.7956 3.5771 8.997 6.7661 10.735 1.9138 1.0431 5.1722 0.89941 7.0121-0.0287 2.115-1.0555 6.6647-3.8235 8.8816-4.274 2.768-0.57907 9.4171 0.71049 16.574 1.6961 6.3316 0.87066 11.808-2.4354 16.242-17.081 3.2609-10.765 4.0001-19.617 2.0411-26.6"/>
   <path d="m106.4 132.22c-1.8399 11.011 1.7372 18.342 8.8668 19.081 6.9106 0.71048 13.735-5.1 15.502-15.633 1.536-9.229-0.71048-18.371-8.5333-19.66-5.8967-0.96922-13.72 3.5935-15.836 16.212"/>
  </g>
  <path d="m115.1 149.52c-3.9714-0.41891-8.5337-5.4186-6.5632-17.14 1.7249-10.344 7.9974-15.343 13.025-14.517 7.1571 1.1869 8.3596 9.4898 7.0556 17.226-1.5072 8.983-6.7513 15.126-13.517 14.43" fill="#ffe100"/>
  <path d="m111.71 132.75c-1.0432 6.2733 0.46407 11.895 4.187 12.518 4.3611 0.72281 7.9251-4.4478 8.8232-9.852 1.2896-7.7509-0.52157-11.909-3.9098-12.721-3.5196-0.82549-7.8524 2.5216-9.0984 10.055" fill="#0f141b"/>
  <path d="m116.3 127.71c-0.32854 2.0001 0.88298 3.3759 2.115 3.6223 1.2731 0.24641 3.1582-0.99798 3.4785-3.0144 0.36962-2.23-0.72282-3.8235-2.1438-3.9837-1.3471-0.16428-3.0555 1.0144-3.4498 3.3758" fill="#fff"/>
  <path d="m55.64 124.48c-4.7665 1.8563-5.7082 10.533-2.5791 18.429 2.998 7.5484 9.4315 12.981 14.503 11.417 5.7373-1.7824 5.9546-11.547 1.7085-19.037-3.9139-6.8092-8.461-12.822-13.633-10.808" fill="#0f141b"/>
  <path d="m54.476 141.9c-2.6366-7.4906-1.6797-14.039 2.2588-15.56 1.1869-0.46407 2.5339-0.36961 3.9714 0.28748 2.5504 3.1007 4.8827 5.6211 7.0125 7.9394l0.92816 2.3327c4.0412 9.7362 1.1746 14.46-1.8851 15.416-4.3467 1.3471-9.9826-3.881-12.286-10.432" fill="#ffe100"/>
  <path d="m66.263 137.23c2.6366 6.4182 1.4046 10.519-0.49282 11.359-2.5627 1.1294-6.5345-1.4497-8.7366-6.824-2.5052-6.0852-1.5935-10.243 0.66531-11.46 2.3779-1.2731 5.9981 0.69406 8.5625 6.9254" fill="#0f141b"/>
  <path d="m61.635 133.86c0.5339 1.5647 0.20534 3.1418-1.0308 3.6346-0.99797 0.41069-2.6941-0.20535-3.2321-1.766-0.5339-1.5483-0.0821-3.113 1.1171-3.6798 1.2033-0.55033 2.6079 0.24642 3.1418 1.8111" fill="#fff"/>
  <path d="m21.183 72.676c-5.1866 5.9689-2.0288 19.501 11.272 18.255 13.416 17.69 24.905 30.208 35.061 36.279l1.1869 0.7105-0.88298-11.33-0.4764-0.16428c-7.3891-3.3184-20.53-20.226-27.47-31.483 1.2033-3.6223 1.8851-8.0265-0.68174-11.547-3.4334-4.6798-12.416-7.1714-18.009-0.73924" fill="#0f141b"/>
  <path d="m34.021 89.59-0.20534-0.32855h-0.41069c-12.662 1.421-15.343-10.562-10.069-15.517 5.4043-5.0708 11.88-2.0576 13.851 0.78031 2.4354 3.536 2.0986 7.6351 0.55033 10.576-1.3922 2.6366-2.534 3.2321-1.8974 3.3759 0.62424 0.16426 2.4765-1.8399 2.4765-1.8399 5.332 7.3312 20.921 28.672 28.136 31.034 0.04111 0.68174 0.43534 5.5923 0.57907 7.5485-9.4754-6.3316-27.441-26.195-33.019-35.612" fill="#5892bf"/>
  <path d="m38.317 76.63c1.1294 2.9693 0.68174 6.0852-0.57907 8.4466-1.3922 2.6531-2.5216 3.2444-1.8974 3.3759 0.63656 0.16428 2.4765-1.8399 2.4765-1.8399 0.66532 0.91174 1.4908 2.0452 2.4354 3.3307-4.4625 1.1746 7.302 18.545 26.107 32.859 0.0821 0.94048 0.16428 1.7947 0.20534 2.3902-9.4754-6.3168-27.441-26.18-33.019-35.612l-0.20534-0.32854h-0.41069c-5.2157 0.59549-8.7366-1.1007-10.707-3.651 5.9689 2.3327 14.155-1.9713 15.618-8.9538" fill="#46799e"/>
  <path d="m72.879-17.329c9.4319-11.62 12.431-9.084 10.707-1.3922-2.4641 10.881-9.0117 33.12-6.4039 36.366 2.2875 2.8707 4.9698 10.765 5.7957 14.908 0.44764 2.2588-0.24642 3.4334-2.6366 2.4066-6.2297-2.6941-13.822-3.3882-19.081 1.2033-1.0267 0.91174-1.6386 1.7947-1.577 2.534 2.345 28.151 16.256 51.564 37.756 69.616 11.648 9.7941-13.257 44.696-25.832 31.294-21.196-22.631-31.179-69.399-33.178-94.405-0.16428-1.8399-1.2608-2.2013-3.4909-3.6798-3.9098-2.5914-11.127-1.3347-17.053 0.16428-1.2608 0.32854-3.6058 0.01435-4.0001-0.5955-1.5072-2.3327 4.3463-15.72 4.4478-16.893 0.0821-1.1746-8.1132-22.703-10.967-31.729-2.189-6.925 0.12322-8.7505 2.9857-6.6642 1.2896 0.94048 5.2301 7.1858 6.056 8.2002 8.6208 10.562 21.095 22.268 28.02 21.732 7.592-0.57907 27.34-31.686 28.455-33.048" fill="#5892bf"/>
  <path d="m37.464 43.225c-0.57907-0.50515-1.4046-0.95691-2.534-1.7085-3.8974-2.5914-11.112-1.3347-17.038 0.16428-1.2772 0.32854-2.9405 0.50514-3.3471-0.0821 6.3312-5.6215 16.516-7.5485 23.514-3.2444z" fill="#46799e"/>
  <path d="m55.48 31.18c-0.653 5.2014-0.50514 18.458 4.8392 37.843 3.2157 11.648 15.763 39.118 30.86 46.58 7.7657 3.8399 7.737-5.9694 2.883-10.403-9.4031-8.6203-31.541-30.338-34.54-66.602-0.0821-1.1746 0.73925-2.23 3.0843-3.6346 4.665-2.7968 8.5045-2.3491 12.59-1.7536 4.0864 0.57907 6.6647 2.1725 7.7078 1.4785 0.66532-0.44764-12.373-9.229-25.036-2.653-0.85423-6.8384-1.8851-4.955-2.3902-0.85424" fill="#46799e"/>
  <path d="m89.656 99.737c-15.097-13.865-26.905-37.394-29.353-61.213v-0.0821c0-1.1294 1.2033-1.9138 2.5791-2.7393 4.3319-2.5956 10.982-1.5647 13.793-0.75156 8.461 2.4641 12.373 1.6797 0.94048-17.893-1.6797-2.8707 7.8672-28.295 7.9977-39.582 0.04112-6.2154-1.8851-8.2873-12.967 3.9714-14.126 15.618-20.254 32.975-28.455 33.221-5.9981 0.20534-21.993-15.227-30.889-26.441-2.7393-3.4498-4.187-6.3168-6.4182-4.2014-6.4326 6.0704 7.7366 30.121 10.605 39.987 0.24642 0.88298-4.9981 11.055-4.9981 14.793 0 1.2608 0.12321 2.7804 0.69406 3.5073 0.85423 1.0144 2.1315 0.81316 3.9714 0.32855 6.0852-1.5195 14.546-2.768 17.821-0.57907 1.5812 1.0431 1.9836 2.7393 2.419 5.9981 2.3615 17.936 8.1136 58.619 30.643 89.088 4.4334 5.9833 5.7661 8.7074 7.215 11.605 3.7085 7.4179 3.5771 4.2161 1.5195-0.84192-2.0576-5.0129-2.5955-7.0413-6.9834-12.301-17.284-20.747-30.541-73.788-30.744-98.447-0.0821-9.6783-1.1006-10.156-2.0576-1.9261-0.20534 1.7372-0.36962 3.7824-0.50515 6.1866-0.20534-0.20535-0.43532-0.41069-0.71048-0.56676-3.8974-2.5955-12.199-1.7988-18.125-0.28748-1.2608 0.28748-2.2013 0.24642-2.6079-0.36962-1.4908-2.3327 3.7948-14.706 3.881-15.879 0.4764-5.4038-16.183-34.728-10.403-38.191 0.57908-0.32854 2.8379 2.6818 4.4334 4.7812 8.5337 11.214 23.833 26.643 31.425 26.05 7.592-0.57908 13.793-12.301 23.094-25.47 2.4929-3.5073 4.7085-6.4761 5.8096-7.8384 4.1438-5.1143 9.5189-9.6635 9.997-6.5197 1.2156 8.07-10.287 36.438-7.0269 40.509 3.1746 3.9549 6.6503 15.546 5.6071 16.256-1.0596 0.69406-2.5627-1.0431-6.6503-1.6386-4.0864-0.57907-8.9103-0.78031-13.575 2.0124-2.3491 1.4046-2.8707 3.1171-2.768 4.2884 2.6654 32.193 17.69 50.723 27.267 60.851 8.0696 8.5481 14.111 10.055 3.5196 0.32856" fill="#0f141b"/>
  <path d="m218.31 68.338c-2.0576-0.73924-6.5341-12.793-1.9713-20.515 0 0 2.3327 6.1283 5.4186 9.4898 3.0843 3.3594 3.7249 5.4765 3.6798 6.0125-0.20534 2.3902-4.8391 5.8388-7.1283 5.0129m-0.41889-20.501c-1.3758-3.6962-3.0145-2.8707-4.1582 0.28748-2.653 7.2729-0.7105 18.327 3.3759 21.631 2.1438 1.7249 9.8808-0.99797 10.026-6.8671 0.0821-2.4929-5.9837-6.3024-9.2434-15.053" fill="#0f141b"/>
  <path d="m114.03 114.29c5.433-3.8974 14.532-21.399 16.415-39.205 9.6491-1.0596 10.605-9.2142 9.4606-14.561-1.3922-6.4905-11.156-11.706-18.762-4.955-5.578 4.9693-2.7804 14.938 1.651 17.328-0.46407 10.359-8.128 32.613-13.981 37.307z" fill="#5892bf"/>
  <path d="m114.03 114.29c5.433-3.8974 14.532-21.399 16.415-39.205 5.5053-0.60781 8.1858-3.536 9.2577-6.925-9.5477 2.883-16.878 0.99799-21.66-5.5636-0.16428 4.3463 1.9836 8.8089 4.7521 10.301-0.0821 1.4785-0.28748 3.187-0.60782 5.0564 7.9398 1.5812-8.1567 36.337-8.1567 36.337" fill="#46799e"/>
  <path d="m117.14 60.813c-0.98565 4.6506 0.53389 9.8085 4.9114 12.315-1.1746 9.707-7.302 31.019-13.677 36.51-1.8686 1.5935 0.12322 1.9261 1.462 0.81316 6.2154-5.1435 13.271-26.629 13.735-36.916 0 0 1.1458 0.4764 1.1458 0.24642 0-0.60782-0.24641-0.73925-1.3922-1.3758-4.0412-2.23-4.5205-7.07-4.419-9.3448 0.12321-2.9405 3.6962-11.475 13.227-9.1711 5.0133 1.2156 8.2442 6.9546 6.8096 12.88-0.87066 3.5935-3.2444 7.3312-8.6639 7.6064-2.1315 0.12321-3.2732-0.76798-3.5196-0.36962-0.2464 0.4189 0.98566 1.3922 2.8707 1.4785-0.43532 9.4754-9.2142 32.743-14.966 37.336-2.304 1.8399-1.3758 2.8543 0.73924 1.2156 6.9398-5.3607 14.459-24.427 16.154-38.321 14.025-2.8543 12.257-20.327 1.0267-23.471-7.8524-2.2013-14.271 3.0145-15.444 8.5625" fill="#0f141b"/>
 </g>
</svg>
