<?xml version="1.0" encoding="UTF-8"?>
<!-- Created with Inkscape (http://www.inkscape.org/) -->
<svg version="1.1" viewBox="0 0 331.88 340.6" xmlns="http://www.w3.org/2000/svg">
 <g transform="translate(44.912 36.653)">
  <path d="m31.079 285.63c4.6637-2.4208 8.6479-4.3789 10.872-5.3467-0.30515 1.9377-0.20343 4.6637-0.5747 7.679 2.6192-2.136 6.6924-3.9822 9.4194-5.1494l0.10177 3.6974c2.6192-1.363 5.2567-2.726 7.8225-4.918 11.806 5.4001 27.827 7.2839 34.968 7.7325l36.26-0.58996 14.712-0.15258c3.499 2.4768 9.6167 6.9971 14.425 11.213-1.0222-3.3566-1.4545-8.1454-1.7394-10.783 6.2616 3.499 17.331 9.9219 23.45 13.546-1.4545-3.3363-3.3566-11.357-4.2365-14.55 10.783 3.7838 26.087 7.2844 34.681 9.1682-2.9243-3.499-4.5213-6.1182-7.1405-10.334 4.3789 1.8818 14.712 4.9536 20.543 6.2616-1.4546-1.307-2.4768-2.6192-4.8061-4.8061 4.9536 1.0222 14.712 2.0292 20.686 2.4768-2.4768-2.1869-4.9536-4.9536-7.5712-8.1637 8.002 1.9021 30.877 6.1182 42.97 8.0198-2.0445-4.9536-4.8061-10.352-7.5718-15.591 5.0955-0.15256 11.788 0 16.166 0-3.7838-3.499-13.689-10.496-19.664-14.281l6.9792-3.3363c-4.2161-1.9021-12.954-6.4229-18.049-8.8986-2.6395-8.4506-4.089-36.421-6.0104-50.99-3.555-53.071-10.926-125.07-27.648-165.73-14.856-36.134-37.175-65.236-75.606-66.976-23.378-1.0578-52.91 11.322-63.836 19.144-11.375 8.1276-26.159 28.15-28.33 41.947-47.204 14.084-49.841 72.538-50.38 127.15 0 0-21.799 52.461-25.226 78.405l6.1177-2.3344s-19.664 19.287-22.965 23.162c2.8175 0.7883 10.567 1.7394 14.192 2.0445-7.1949 7.679-13.205 13.797-16.453 16.865 10.962-0.51875 21.297-0.45772 29.819-1.8665-1.5257 5.2033-3.5702 10.245-4.918 13.259 5.1316-2.4208 8.7379-4.6637 13.008-7.4812-0.40687 2.6904-0.77304 6.0282-1.8461 8.8447 2.4208-1.3274 8.8452-5.9204 11.178-8.9347z" fill="#bf794e"/>
  <path d="m86.627 249.02s-3.321-9.1504-4.3789-12.972c-3.1583-2.5632-6.6741-3.4787-13.689-3.911-7.3739-0.40687-14.299 1.1494-19.126 4.3585-0.45773 2.7107-1.8309 9.276-1.9224 12.164-1.541-1.2714-3.1583-3.7482-3.9669-5.2389-0.77304 1.0782-0.7883 2.5683-0.87985 3.9669-0.53909 9.2216 10.478 15.502 24.239 16.326 21.369 1.2562 29.855-8.1988 23.647-21.099-0.7171 1.3121-3.9313 6.4051-3.9313 6.4051" fill="#f29da6"/>
  <path d="m34.29 268.62c5.7592-5.7592 7.2844-12.523 6.9971-18.354-0.30515-5.8309-4.9536-13.546-16.326-13.115-11.357 0.45772-20.454 7.4634-21.261 18.659-1.1646 16.165 3.6974 37.211 21.853 40.35 6.2616 1.0782 8.3428 1.2206 6.5485-5.1133-1.597-5.6697-4.2161-16.022 2.1869-22.427" fill="#fff"/>
  <path d="m90.664 291.79c-4.2873 3.3922-5.3467 7.2844 1.4545 8.594 15.878 3.0667 41.266 0 41.804-28.545 0.30515-15.448-4.0737-31.523-21.261-32.061-9.4733-0.30514-21.405 7.1405-15 22.588 6.0287 14.551 4.2365 20.561-6.9971 29.424" fill="#fff"/>
  <path d="m153.5 195.93c10.263 59.297 49.788 65.451 65.253 60.015 12.469-4.3789 12.057-19.143 8.8096-29.783-5.598 23.665-58.077 7.0332-74.063-30.232" fill="#985f3b"/>
  <path d="m154.76 227.72c-0.15256 2.6192-51.385 4.2721-57.933 0.50859-2.4564 4.1805-2.492 8.1098-6.5485 13.941 1.9377 6.9976 4.2517 10.496 5.8309 14.515-0.15258-1.007 1.363-6.6563 2.136-9.4016-0.30515-1.3274-0.30515-2.5124 0.30515-3.1023 6.9976-3.4787 13.977-6.9792 22.14-3.4787 3.499 2.3344 4.6637 5.8131 8.1637 6.9792-0.30515 0.57469-0.30515 1.2002-0.20344 1.8665 2.4208 3.0871 4.8468 7.9303 5.2389 12.649 0.84424-3.7126 5.6513-7.6608 6.1716-13.205 6.3517 2.7463 10.999 4.3585 19.664 8.2888-0.15257-9.7602-2.2784-17.654-4.9536-29.532" fill="#985f3b"/>
  <path d="m120.67 240.67c-15.179-6.5129-21.997 5.0756-21.997 5.0756l7.141 6.7097s2.4412-3.4431 3.8906-4.1805c1.4546-0.7171 11.788 7.8581 11.788 7.8581s0.30515-9.455 2.7616-9.9036c1.0223-0.20343 2.6904 1.1494 4.3789 3.2854-0.50859-3.3719-3.3363-5.7592-7.9659-8.8452" fill="#dcdddd"/>
  <path d="m43.854 242.61-9.2221-18.462-9.0965-1.4189-20.633 9.5272-16.309-8.0559c-7.3022 3.8042-16.219 15.609-18.157 17.278 8.1454-3.4634 13.349-3.2651 13.349-3.2651s2.548 10.442 3.0667 14.443c2.9447-1.3986 10.567-6.7819 10.567-6.7819l1.7597 12.792 3.8601-3.4431c1.2206-16.183 19.054-22.499 32.564-16.883 1.0426 1.0426 2.9803 2.9803 2.5836 5.04l3.2498 7.6073z" fill="#985f3b"/>
  <path d="m3.0404 255.21s6.4412-10.119 13.743-11.823c1.4342-0.10176 3.5143 5.2033 3.2854 8.7557 14.425-6.2978 16.829-11.806 16.829-11.806-0.01777-4.1805-29.98-8.5762-33.856 14.873" fill="#dcdddd"/>
  <path d="m42.444 247.63c1.5613 13.564 13.618 15.681 23.647 16.273 16.614 0.98664 25.656-3.0667 26.374-15.179 0-0.0362-0.15258 1.4545-0.15258 1.4189-4.4653 11.411-44.639 7.9659-49.877-2.5124" fill="#d18892"/>
  <g fill="#985f3b">
   <path d="m259.21 257.84c4.8061 0 9.4733-0.15258 12.523-0.57469l-6.9792 3.1939z"/>
   <path d="m265.91 271.39c4.5213 0.15257 12.523 1.1646 18.354 3.6414-6.4051-0.30515-12.523 0-16.165 0z"/>
   <path d="m228.91 276.49c9.186 2.7616 33.066 8.8808 46.468 12.667l0.40687 1.4698c-11.931-1.4698-34.807-5.6874-43.113-8.4506z"/>
   <path d="m174.42 281.3c9.3294 4.5213 24.329 11.214 35.255 14.138l0.30515 1.4546c-8.4506-1.7597-28.545-7.4278-33.945-9.186-0.5747-2.1869-1.007-3.6414-1.5969-6.4051"/>
   <path d="m229.49 278.09c2.1869 3.0667 8.1632 10.191 10.048 11.806-5.2394 0-15.878-0.15258-19.951-1.6122l-1.3121-1.8818c6.2616 1.0222 9.7607 0.7171 14.569 0.7171-1.307-3.1939-2.3344-5.8131-3.3566-9.0248"/>
   <path d="m156.51 287.27c9.9036 4.9536 16.022 6.997 17.619 7.7147 0-3.1939 0.30515-7.5712 0.45772-12.093 1.7394 6.4234 4.0737 15.304 5.9743 19.09-7.733-3.499-16.901-8.594-24.042-14.712"/>
   <path d="m133.05 281c4.8061 0 8.0198 0.30515 10.783 0.5747 2.7616 0.30515 3.7838 0.87984 4.9536 2.3344 1.1646 1.4698 4.5213 7.4278 5.9743 9.186 0.15257-1.3121 1.0222-3.9313 1.7393-5.8309 0.58996 3.6414 1.3122 9.9036 2.0445 12.236-3.499-3.0515-10.048-8.4501-14.425-11.07-5.3823-0.15258-8.594 0-14.712 0 2.0445-3.499 2.6192-4.5213 3.6414-7.4278"/>
   <path d="m99.55 282.32c-11.662 0-35.058-2.7107-47.043-10.191-4.6637-2.9243-10.353-3.499-10.496 1.4545-2.0445 2.3344-8.0198 4.6637-11.949 5.8309 0 1.8818 0.15258 3.9313 0.45773 5.5262l11.214-4.6637-0.87984 7.2844 9.4733-4.9536v3.7838l8.1454-4.8061c5.9743 3.6414 26.805 7.1405 35.112 7.589 2.3344-1.3121 4.0737-3.6414 5.9743-6.8536"/>
   <path d="m-40.003 251.58c5.0955-0.15257 12.667-0.57469 17.78-2.0445l-3.8042 4.8112c-4.7908-0.40686-9.7602-1.3121-13.976-2.7616"/>
   <path d="m-41.46 270.08c10.191-1.4545 22.57-3.3566 30.303-6.5485 1.9733-0.82389 2.6751-0.50858 2.3344 1.4545-0.30515 1.5969-0.73744 3.499-1.9021 6.6924 2.1869-0.85951 5.8309-3.3363 7.7146-5.5262 1.2359-1.4189 2.3344-1.4698 2.3344 1.5969 0 1.7597 0 3.9313-0.30515 5.544 1.5969-0.87984 3.3566-2.1869 4.8061-3.7838 0.30515 1.307 0.87985 4.5009 1.1646 5.6696-3.0515 2.7616-8.594 7.1405-11.501 8.594 1.007-2.3344 1.3121-4.9536 1.7394-8.1454-4.3789 2.6192-9.4728 5.2389-12.523 6.5485 2.1869-5.0954 3.499-9.4728 4.0737-12.236-7.1405 0.57471-19.664 1.3122-28.258 0.15258"/>
   <path d="m201.77 285.39c4.9688 1.0934 9.9575 1.8818 13.833 2.2988-0.50857-2.1004-0.98664-3.499-2.1869-6.4773 2.6904 3.677 7.4639 8.7557 11.249 11.842-6.0821-1.5969-17.026-4.684-22.893-7.6612"/>
  </g>
  <path d="m3.4066 257.84c2.3344 18.946 16.309 25.782 26.805 23.45 0.30515 3.6414 0.73744 7.141 2.1869 10.048 1.4545 2.9243 0.7171 5.5618-4.089 5.2567-11.501-0.73744-26.5-12.828-24.903-38.754" fill="#dcdddd"/>
  <path d="m97.219 286.83c15.304 3.9313 38.162-6.4051 33.21-35.973 8.3072 17.906 4.6484 55.888-36.421 49.806-7.8581-1.1646-8.7013-4.8976-4.3585-8.1454 1.7393-1.307 5.0955-3.6414 7.5712-5.6874" fill="#dcdddd"/>
  <g fill="#0f141b">
   <path d="m81.96 234.38c-3.6618-1.8818-8.1276-3.2498-13.402-3.6618-6.8002-0.53909-13.528 0.7527-18.982 3.911 0 1.0019 0 2.0089-0.05082 3.0159 4.6281-3.2854 11.554-4.9536 18.982-4.5213 5.454 0.35601 10.19 1.9936 13.905 4.2873 0.15258-1.1646 0.20343-2.2225-0.45771-3.0311"/>
   <path d="m90.497 241.36c-0.45772 0.80864-0.85951 1.6529-1.2206 2.4564 1.4342 2.1716 2.1716 4.3789 2.0648 6.3511-0.5391 8.8635-9.4194 13.438-24.382 12.542-13.977-0.8239-23.773-7.2488-23.288-15.251 0.05082-1.0019 0.25429-1.953 0.51875-2.8684-0.50857-0.91545-0.77304-1.9733-1.2002-3.0667-0.84424 1.7597-1.3426 3.677-1.4545 5.7597-0.57469 9.4189 8.6301 17.547 25.333 18.534 16.722 1.0019 26.59-4.862 27.002-15.52 0.10177-2.6904-1.0426-5.8848-3.3719-8.9347"/>
   <path d="m110.31 240.86c12.631-0.6459 22.875 8.3789 22.32 29.532-0.7527 27.505-21.799 32.026-40.387 28.689-4.5009-0.80864-4.5009-3.7838 0.40687-7.1049 12.505-8.504 10.73-17.654 5.7058-30.483-3.7126-9.4189 0.98665-20.076 11.967-20.633m-0.7171-2.5124c-9.4372 0.50859-18.767 10.675-13.582 23.611 6.1894 15.412 4.6281 20.722-5.1855 28.078-9.6345 7.2305-3.677 10.801 1.1646 11.626 32.42 5.5618 43.024-12.056 43.545-31.129 0.55436-20.74-8.5223-33.066-25.944-32.187"/>
   <path d="m71.383 246.92c-1.7394 0.53909 2.0445 10.334 3.5143 9.5806 1.2358-0.62556-2.0648-10.029-3.5143-9.5806"/>
   <path d="m58.798 246.42c1.2358 0.10176-1.9173 9.0787-3.1939 8.6835-1.363-0.40686 1.8665-8.7913 3.1939-8.6835"/>
   <path d="m254.4 249.74c4.0534 2.6192 9.7963 5.6514 14.479 7.8586-1.8309 0.91544-4.2162 1.6681-6.2255 2.4412l2.5276 1.363c2.3852-0.95105 6.1899-2.37 7.8586-3.321 0.6103-0.35601 0.6815-0.84424-0.0508-1.1646-4.9892-2.2581-15.394-7.0871-19.467-9.9036z"/>
   <path d="m285.57 276.54c1.3477 0.10177 1.8817-0.30515 0.8595-1.3477-5.5257-5.6514-16.399-12.828-24.939-17.008-2.7972-1.363-3.4634-0.0508-0.8595 1.3986 7.3022 4.1246 14.766 9.7241 20.184 14.228-4.5009-0.35601-9.186-0.35601-13.689-0.30515l1.3477 2.5276c5.1855-0.10176 12.254 0.20344 17.098 0.50859"/>
   <path d="m278.19 291.3c-3.2142-6.2077-6.997-13.115-10.98-18.928-1.2002-1.7597-2.314-1.0934-1.4545 0.57469 2.4208 4.6637 5.9204 11.357 7.7686 15.824-12.415-1.775-29.227-4.3585-41.858-7.7686l1.7241 2.4564c11.68 3.2804 32.457 7.1944 44.137 8.8091 0.5747 0.10176 0.98665-0.30514 0.66624-0.97138"/>
   <path d="m220.9 289.4c4.8417 1.3274 13.097 2.1004 20.777 2.492 1.0222 0.0355 1.2002-0.62556 0.30515-1.3833-3.8906-3.2854-8.2349-7.7864-11.626-13.025-1.2714-1.9733-2.4564-1.363-1.4545 0.50858 2.4208 4.4297 4.9536 7.9659 8.3428 11.178-6.8358-0.35601-12.667-0.7527-18.067-2.0445z"/>
   <path d="m226.24 293.15c-3.5906-3.1736-8.1815-7.4995-11.339-12.057-1.4189-2.0292-2.492-1.2918-1.3426 0.62556 2.314 3.8601 4.6281 6.7102 7.7686 9.4194-4.4501-1.0578-12.577-3.2295-18.857-5.7414-1.1494-0.45772-1.541-0.0508-0.7527 1.0222 0.91544 1.2562 5.4545 7.6608 6.3517 8.8091-9.276-1.7037-23.845-5.9387-32.277-8.7552l0.66114 2.5836c9.186 3.0311 27.002 8.181 35.758 9.5984 1.1494 0.20344 1.2918-0.30515 0.6103-1.0934-1.2715-1.4901-5.3645-6.8175-6.6024-8.5757 7.4456 2.7108 14.353 4.2518 19.413 5.2745 1.185 0.2543 1.2714-0.51874 0.61029-1.1138"/>
   <path d="m94.702 287.69c-14.335-0.8595-32.384-3.4075-43.957-11.931-2.3496-1.7394-3.4278-0.5391-1.1138 1.2562 10.747 8.4145 27.72 12.039 41.804 13.223z"/>
   <path d="m42.3 278.97c-3.3007 1.1646-8.4684 3.6974-11.249 5.1133l0.7171 2.2072c2.9803-1.7241 7.32-3.9313 10.173-5.1489z"/>
   <path d="m-25.459 253.21c-5.2928-0.20342-9.1321-0.91544-12.577-1.8309 7.1949-6.5129 17.511-16.596 23.916-24.957l-3.7482 1.2562c-6.9971 7.4995-17.008 17.368-24.634 24.221-0.66116 0.57469-0.40687 0.91544 0.25429 1.1138 3.5346 1.0578 9.4016 2.1157 15.071 2.1157z"/>
   <path d="m-4.6275 273.75c-3.9669 3.1583-8.1276 5.2033-11.141 6.4412 2.314-5.0044 3.1736-7.4995 3.7482-10.945 0.05082-0.50858-0.25429-0.7171-0.73744-0.66624-6.6024 0.77304-17.69 1.2358-27.002 1.3274 4.9892-4.6128 12.29-12.38 16.883-18.426 1.541-2.0089 0.66624-2.9599-1.1494-0.95105-3.677 4.1093-15.824 16.56-20.328 20.525-0.9663 0.84424-0.58995 1.1646 0.45773 1.1494 13.726-0.10176 25.047-0.7527 29.173-1.1494-0.7527 3.4634-2.2988 7.3922-4.7196 11.698-0.62555 1.1138 0.30515 1.1494 0.7883 0.9663 3.555-1.2358 8.7374-3.7482 13.528-7.2839z"/>
   <path d="m4.9694 272.68c-2.5276 3.7838-6.4951 7.2127-9.8858 8.7374 0.9663-3.6414 1.2562-6.2255 1.2562-9.9753v-0.0508c0-2.7107-1.2918-2.8328-1.541-0.15257-0.50857 5.0044-1.0578 7.9659-2.9447 12.936-0.25428 0.66115-0.20342 1.2918 0.82391 0.8951 4.089-1.541 9.8858-5.5079 13.241-9.9036z"/>
   <path d="m43.099 278.35c0.30515-2.3496-1.0782-2.6192-1.5969-0.20343-0.6459 2.9243-1.0934 5.5979-1.3477 9.7424-0.03554 0.8239 0.45773 1.4342 1.129 0.96631 2.6904-1.9733 6.3334-4.0178 9.1682-5.3284l0.30515-2.1716c-3.7126 1.597-6.5485 3.1227-8.4323 4.4297 0.30515-2.9091 0.40687-4.8061 0.7883-7.4639"/>
   <path d="m51.551 280.8c0.15258-1.4342-1.007-1.5054-1.4545-0.0178-0.59504 1.9021-0.87985 4.3077-0.84425 6.1899 0.01827 0.58996 0.7171 0.7527 1.4189 0.45773 2.9091-1.3478 6.3517-3.6414 8.7557-5.5435l-1.9021-0.95104c-2.0445 1.6885-4.7705 3.1939-6.2611 3.8601 0.05082-1.4901 0.15258-2.7616 0.30515-3.9822"/>
   <path d="m129.33 287.33c3.6414-0.0508 11.716-0.10177 14.048-0.10177 0.73744-0.0178 0.95104 0 1.4545 0.35601 3.7126 2.6904 9.4016 7.0326 12.433 9.4189-0.6103-2.4208-1.0782-6.5846-1.2358-8.6296-0.10176-1.2714 0.25429-1.5054 1.2358-0.87984 6.549 4.3789 16.435 9.4194 20.651 11.591-1.8817-6.2616-3.0515-11.644-3.7838-16.166-0.40687-2.5276 0.66116-2.7819 1.3071-0.35601 1.5054 5.6158 3.3566 12.452 6.3333 20.364 0.30515 0.80865-0.10176 1.2714-1.007 0.87986-5.3284-2.37-19.664-10.926-22.588-13.134 0.35601 2.904 1.4342 7.6974 1.9174 9.7602 0.20344 0.95104-0.35601 1.3274-1.0934 0.80864-4.7349-3.4278-12.379-10.048-15.16-11.734-3.0159 0-13.438 0.35601-16.058 0.30515z"/>
   <path d="m33.451 271.7c5.5079-5.9026 9.6884-11.895 9.1682-20.417-0.40686-6.7102-2.9091-14.066-13.941-15.25-12.093-1.2714-25.316 5.2028-26.374 19.772-1.2918 17.959 4.6637 39.543 24.418 41.875 6.2438 0.7171 8.7913-0.93071 6.6024-6.4768-2.4056-6.0465-3.0515-16.094 0.10177-19.503m6.459-21.189c0.77304 7.3561-4.1246 13.689-8.6479 19.897-4.5213 6.2077-1.0426 19.503-0.15258 22.104 0.91544 2.5836-0.35601 2.8328-2.8328 2.7107-14.963-0.7883-25.333-16.291-23.396-39.292 1.2765-14.999 15.717-18.659 23.521-17.565 5.5618 0.77304 10.729 4.7705 11.501 12.146"/>
  </g>
  <path d="m76.68 196.37s-0.58996 33.066 10.334 52.73l9.3294-20.238 8.8813 15.142 0.87984-6.997 11.949 11.214-1.0222-16.596 16.452 15.591 1.9021-8.594 17.475 9.4555 2.1869-21.261-20.543-35.542z" fill="#bf794e"/>
  <path d="m153.61 230.86c-0.45772 7.1588-1.5054 14.892-1.5054 14.892s-11.393-5.9926-13.958-7.2844c-3.8601-1.9377-3.6974-1.7037-4.0737 1.6173-0.25429 2.1716-0.87985 4.9536-0.87985 4.9536s-10.209-9.7062-12.9-12.002c-4.2517-3.6262-4.5772-3.499-4.2721-0.35601 0.30515 3.0515 0.7883 12.936 0.7883 12.936s-6.1899-6.3873-7.9298-8.1454c-3.2091-3.1939-3.7482-3.0515-3.911 0.0357-0.0508 1.5613-0.20343 3.4634-0.20343 3.4634s-4.4653-7.6074-5.9743-10.783c-1.8462-3.9313-2.6192-4.1805-4.0737-0.77304-2.1513 5.0756-5.867 13.654-7.733 17.332-3.499-9.3655-9.0426-28.509-9.5089-47.779-0.15258-6.1004-1.8309-2.1513-1.8309 3.4787 0 16.434 5.2572 35.955 8.594 45.051 2.1513 5.8309 2.726 4.5213 4.7552 0.58995 2.7972-5.4184 5.6518-10.603 7.7686-16.883 0.57469 1.6682 3.7838 6.8358 6.2616 11.214 2.6039 4.6484 2.8531 4.3077 3.6414-0.30515 0.15257-0.84424 0.356-2.6751 0.356-2.6751s3.1583 3.1023 8.1098 7.7869c4.8468 4.5925 4.7349 3.3007 4.5009-2.1869-0.15257-3.7686-1.4698-11.052-1.4698-11.052s11.052 10.514 13.169 12.757c3.4634 3.6618 3.0159 3.6618 4.1093-0.70184 0.64589-2.6039 0.9307-5.6518 0.9307-5.6518s11.034 6.3333 14.55 8.1815c2.904 1.541 3.5499 2.1716 4.0381-3.2498 0.30515-3.321 0.62556-7.8408 0.8595-12.38 0.40687-8.4862-1.7241-10.155-2.2428-2.0648" fill="#0f141b"/>
  <path d="m225.36 254.57c20.4-11.626-17.385-101.28-27.236-119.65-6.1716-11.519-6.1177-6.6207-2.4768 1.3834 23.001 50.631 40.422 104.58 28.186 115.1-11.231 9.6345-45.589 4.5365-60.678-28.079-9.7063-20.974-10.209-53.915-11.178-74.565-0.70184-15.215-3.1735-13.259-2.8328 3.1227 0.356 19.143 1.0934 50.003 10.783 72.287 11.662 26.751 44.172 42.54 65.433 30.411" fill="#0f141b"/>
  <path d="m1.417 155.34s-21.369 49.519-25.244 75.552l11.842-6.2077 2.9091 17.672 13.599-9.5267s-0.97139 13.797 0 14.191c0.9663 0.35601 16.506-18.659 16.506-18.659s0.40687 15.358 1.5613 15.358c1.1646 0 12.236-17.295 12.236-17.295l12.811 22.337s4.6637-33.21 11.662-50.882z" fill="#bf794e"/>
  <g fill="#0f141b">
   <path d="m1.6342 150.09c-10.424 21.548-22.086 53.304-26.5 80.073-0.35601 2.2072-0.70184 4.089 2.0445 2.4768 2.4056-1.4189 10.532-6.5846 10.532-6.5846s1.185 17.673 3.0159 18.247c1.8461 0.55435 12.864-9.6706 12.864-9.6706s-0.95105 14.443 0.53909 14.91c1.4901 0.45772 16.363-18.803 16.363-18.803s-0.20342 14.945 1.8309 15.089c2.0292 0.10177 11.07-15.878 12.488-17.995 3.555 6.5663 8.7013 17.242 12.254 22.176 1.0934 1.5257 1.5257 0.51876 1.6529-0.87984 0.91545-11.124 7.8586-40.924 10.621-49.393 1.3477-4.0534-0.51875-3.8957-2.0292 0.10177-3.8042 10.065-9.5272 33.335-10.729 44.944-3.8398-5.454-6.728-13.241-9.9397-18.588-1.5613-2.5836-1.9377-3.2498-4.6484 1.5614-2.6548 4.684-8.2171 12.936-8.2171 12.936s-0.89511-8.6657-1.2715-11.249c-0.58995-3.9466-1.3477-3.1583-3.1023-0.95104-4.4145 5.6158-12.99 16.327-13.492 15.968-0.40686-0.30514-0.356-5.9209-0.25428-10.191 0.15256-4.6637 0.25428-4.8468-2.5632-2.4056-3.8601 3.3566-10.245 8.271-10.837 7.9659-0.58995-0.30515-1.775-8.8452-2.2988-14.156-0.30515-3.321-0.6459-3.4431-3.555-1.6326-2.2581 1.3986-5.9743 3.2651-8.3967 4.684 3.8398-21.907 16.632-54.488 25.37-75.839 3.6414-8.8986 2.5836-11.77-1.7597-2.7972"/>
   <path d="m55.109 23.934c-35.578 9.276-55.565 36.027-55.242 130.81 1.0426-0.20343 3.2498-2.9803 3.2498-3.8042 0.7171-99.074 26.267-118 53.843-125.18 4.3077-1.1138 2.4564-2.9599-1.8462-1.8309"/>
   <path d="m252.29 228.57c-9.1504-118.9-16.327-164.15-33.964-205.34-14.891-34.807-41.104-58.346-73.022-59.799-27.541-1.2358-56.498 11.465-67.64 20.489-14.963 12.111-25.549 33.246-27.648 42.145 0.70184-0.05082 3.4278-0.45771 4.1246-0.57469 2.492-10.173 14.604-28.545 25.441-38.79 12.308-11.608 47.581-21.476 64.644-20.704 31.146 1.4189 55.475 25.459 71.031 59.154 22.247 48.119 30.339 144.86 33.712 203.6 0.7171 12.469 3.4634 22.086 5.3284 27.594 1.2358 3.6058 3.0871 3.2498 2.136-0.58995-2.4412-9.8502-3.0871-13.492-4.1449-27.182"/>
  </g>
 </g>
</svg>
