<?xml version="1.0" encoding="UTF-8"?>
<!-- Created with Inkscape (http://www.inkscape.org/) -->
<svg version="1.1" viewBox="0 0 345.79 289.46" xmlns="http://www.w3.org/2000/svg">
 <g transform="translate(32.68 -14.298)">
  <path d="m142.05 284.07 2.309 4.8836s-9.0705 9.1374-25.989 3.0501c2.5252-2.2362 13.412-9.0148 13.412-9.0148z" fill="#d3ddf1"/>
  <path d="m134.35 283.26-2.5708-0.26759s-10.874 6.7809-13.411 9.0147c9.9757 3.5845 16.659 2.1766 21.171 0.0487-5.3424-1.3381-5.2121-5.0507-5.1885-8.7958" fill="#b7c0d1"/>
  <path d="m125.12 276.01s-0.79164-1.0636-2.4515 0.36886c-4.7452 4.1156-11.484 8.6983-16.714 9.1743 6.4147 5.7271 17.85 7.34 22.39 6.3336 5.2748-1.1825 5.6891-3.0612 4.1495-7.5z" fill="#d3ddf1"/>
  <path d="m119.73 283.62c-7.0194 4.9441-13.577 1.9238-13.78 1.9361 6.4148 5.7271 17.85 7.3401 22.39 6.3335 1.1523-0.26058 2.0601-0.55499 2.7762-0.89758-4.3512 0.80358-10.98-1.3642-11.386-7.372" fill="#b7c0d1"/>
  <path d="m103.64 206.12c-1.8177-6.9737-11.297-15.958-26.984-11.808-19.127-10.701-49.526-28.051-49.77-26.68-0.2426 1.3716 27.869 29.793 54.558 49.947 4.0975 3.0991 5.9572 3.146 4.4966-0.97694-1.4606-4.123-0.73543-8.4013 3.9558-8.878 4.0933 1.7816 9.3778 10.131 8.0992 14.82-1.2255 4.4731-4.5245 3.0032-2.7376 4.579 1.8011 1.5659 6.7932 5.4468 6.7932 5.4468z" fill="#5a77a2"/>
  <path d="m89.773 207.75c-1.0059-0.78949-5.7472-2.5927-8.3404-0.39443-3.2033 2.7112 0.99363 10.506 1.4549 10.856 4.0998 3.087 4.5062 2.5235 3.0455-1.5995-1.4432-4.0821-0.73907-8.3143 3.84-8.8619" fill="#4e678e"/>
  <path d="m99.535 199.27c-1.0666-0.13008-2.2913-0.15273-3.2491 1.7496-2.0315 4.0214 2.0768 11.687 1.0135 17.169 0.64203 1.8632 0.92814 3.4842 0.68764 4.3672-1.2134 4.4754-4.5244 3.0032-2.7233 4.569 1.789 1.5637 6.7789 5.4567 6.7789 5.4567l1.5882-26.45c-0.58163-2.2532-1.9659-4.7067-4.0959-6.8608" fill="#4e678e"/>
  <path d="m134.94 254.4-9.3931 3.4215s2.9839 7.4427 3.0056 10.945c0.0344 3.5051-2.5032 5.7389-4.3708 8.5495-1.8798 2.8083-3.0873 3.0965-1.166 7.3057 1.9355 4.1993 6.4937 4.2998 8.5029 3.5471-0.0695-0.16317 1.0676-3.7629 1.0676-3.7629s3.154 4.791 7.2748 3.3425c3.7354-1.3326 1.0979-6.403 0.63359-10.29-0.43985-3.6813 0.65718-11.89 2.9704-16.411-2.3797 2.2634-9.1159-2.4831-8.5245-6.6485" fill="#5a77a2"/>
  <path d="m135.32 275.36c-1.6988 4.7231-2.7451 9.0417-2.7451 9.0417s2.0426 3.0908 4.9904 3.5546c-0.15293-3.9411-0.40388-8.7657-2.2453-12.596" fill="#4e678e"/>
  <path d="m134.94 254.4-9.3931 3.4215s2.9839 7.4427 3.0056 10.945c0.0344 3.5051-2.5032 5.7389-4.3708 8.5495-0.31341 0.46757 15.696-13.653 16.32-4.1193 0.31369-3.9541 1.3368-8.9541 2.9633-12.148-2.3797 2.2634-9.1159-2.4831-8.5246-6.6485" fill="#4e678e"/>
  <path d="m152.86 252.06-15.242 1.3741-2.6906 0.9763c-0.58874 4.1534-1.2265 9.1001 1.9257 10.417 0.96181 0.55602 4.9577-2.7716 7.5942-4.7988 5.0137-2.9367 10.375 1.0508 12.517 1.6642 2.3195 0.67242 8.3278-5.1006 11.415-8.197z" fill="#b7c0d1"/>
  <path d="m97.411 293.57c-1.4078-0.45178-8.4573 3.0448-10.556-6.5146-6.1377 3.7171-9.418 7.2415-9.418 7.2415s4.7736 10.812 21.289 3.5697c0 0-1.2202-2.8617-1.3154-4.2964" fill="#d3ddf1"/>
  <path d="m88.875 291.68c-0.83705-1.0218-1.5517-2.4973-2.0181-4.6286-6.1378 3.717-9.418 7.2415-9.418 7.2415s3.3678 7.6023 14.19 5.7899c-1.6743-2.445-2.5961-5.4264-2.754-8.4028" fill="#b7c0d1"/>
  <path d="m75.696 286.78c-3.2069 1.4565-12.024 5.3495-20.143 4.2442 5.0297 7.2987 14.87 12.413 20.802 11.604 5.9322-0.80864 9.2072-2.428 9.2072-2.428l-1.0575-5.1386z" fill="#d3ddf1"/>
  <path d="m71.768 294.19c-0.1088-0.55908-0.53552-0.68966-1.5221-0.51069-3.2155 0.56458-8.6346 0.64159-13.204-0.73998 5.2996 6.2582 13.912 10.428 19.306 9.6814 0.98956-0.12836 1.9057-0.33301 2.7439-0.59021-3.2101-0.93913-6.6399-4.1892-7.3235-7.8408" fill="#b7c0d1"/>
  <path d="m86.085 257.18-0.70356-4.2824s-5.9049-4.967-11.766-3.1294c-5.8613 1.8377-14.595 6.9626-15.949 11.387 5.946-0.27943 18.116 5.3834 19.742 5.0731 1.628-0.3231 1.772-1.3613 1.772-1.3613z" fill="#d3ddf1"/>
  <path d="m85.382 252.9s-2.4063-2.0178-5.6581-3.0023c-3.5848 1.1976-6.1915 3.87-8.8675 5.4384-1.4117 0.97731-6.5133 1.7031-9.9465 1.4872-1.6092 1.4293-2.8163 2.9215-3.2459 4.3458 5.9484-0.29147 18.116 5.3834 19.744 5.0611 1.6254-0.30968 1.7698-1.3493 1.7698-1.3493l6.9078-7.6986z" fill="#b7c0d1"/>
  <path d="m88.809 258.62c-3.4504-1.9999-6.0273-4.5135-6.0273-4.5135s-7.2158 6.2616-5.5685 9.2534c1.6495 2.9796 2.7003 6.4114 2.0867 9.557-0.61395 3.1329-2.3063 14.804-4.4132 17.219-0.97087 3.9816 2.842 8.4694 5.7115 8.0784 2.8596-0.40547 5.0992-6.946 6.2628-11.155 1.2906 0.74264 0.94082 4.891 1.4562 6.2915 0.51317 1.4127 3.847 5.1088 6.5992 3.0656 2.7523-2.0432 3.6617-3.9546 2.6818-6.1569-0.95029-2.1591-4.9557-11.849-2.9216-22.654-2.3898 1.4463-9.949-5.1344-5.8678-8.9855" fill="#5a77a2"/>
  <path d="m88.809 258.62c-3.4504-1.9999-6.0273-4.5135-6.0273-4.5135s-7.2158 6.2616-5.5685 9.2534c1.6495 2.9796 2.7003 6.4114 2.0867 9.557-0.51194 2.5877-1.7509 11.034-3.3639 15.234 4.8646-6.5636 12.117-12.618 18.199-12.019 0.04921-1.6711 0.21093-6.7571 0.54189-8.526-2.3898 1.4463-9.949-5.1344-5.8678-8.9855" fill="#4e678e"/>
  <path d="m90.078 280c-0.94443 2.5696-2.2433 4.4833-3.1926 7.0771 1.2573 0.78648 0.93091 4.8766 1.4342 6.2749 0.37012 1.0349 2.2358 3.2648 4.2901 3.6116-1.4794-3.487-2.7944-10.868-2.5317-16.964" fill="#4e678e"/>
  <path d="m104.97 252.61c-1.364 1.1241-5.8244-0.63862-7.3301-1.5724-1.5054-0.93441-4.4402 5.7025-8.4342 7.8143-0.13626-0.0743-0.27046-0.16317-0.39438-0.23644-4.0835 3.8631-2.26 10.336 0.06811 15.587 8.1767-12.001 12.925-10.435 14.455-9.0955 1.53 1.3397 8.0241 2.7554 17.574-5.7279z" fill="#b7c0d1"/>
  <path d="m191.09 192.22-1.1587 6.3415c11.014-6.0526 59.093-26.5 77.833-31.559 1.1613-0.30893 0.92729-1.0679-0.14799-1.2189-8.2354-1.0898-15.397-1.1504-21.419 0.40648z" fill="#aa020b"/>
  <path d="m246.2 166.19-55.105 26.03-1.1588 6.3416c5.2272-2.8717 18.772-8.9775 33.58-15.135 8.1742-6.5588 22.042-13.055 31.112-18.368-1.0857 0.17293-7.3988 0.8729-8.4255 1.1322" fill="#800"/>
  <path d="m191.06 186.77-1.7915 8.3675c10.851-5.92 93.11-44.375 110.32-52.453-9.255-2.4094-27.9-2.8878-34.28-1.1597z" fill="#aa020b"/>
  <path d="m265.31 141.52-74.25 45.246-1.7908 8.3676c2.8214-1.5412 10.467-5.277 20.525-10.104 21.825-15.579 46.185-30.433 68.974-44.728-4.8323 0.0238-11.014 0.56001-13.458 1.2188" fill="#800"/>
  <path d="m193.12 181.86-3.3377 8.0531c9.4726-7.131 99.42-59.471 119.85-71.726-11.867-2.6589-32.207-2.59-46.23 1.3822z" fill="#aa020b"/>
  <path d="m263.4 119.57-70.279 62.29-3.3376 8.0532c3.5039-2.6424 17.864-11.229 35.951-22.316 16.484-17.995 36.353-36.461 55.439-51.273-5.5128 0.51096-13.113 1.923-17.774 3.2453" fill="#800"/>
  <path d="m190.81 185.94c4.4611-4.4069 109.7-96.183 119.92-106.97-2.6955-1.5451-59.935 14.179-74.956 29.05-15.019 14.858-48.107 56.921-48.107 56.921z" fill="#d3ddf1"/>
  <path d="m235.78 108.01c-15.021 14.871-48.121 56.931-48.121 56.931l3.1571 20.993c1.0149-1.0014 3.2736-3.0867 6.4866-5.9842 13.956-27.673 28.338-55.817 48.799-79.188-4.2809 2.3716-7.8599 4.8119-10.322 7.2479" fill="#b7c0d1"/>
  <path d="m150.85 250.55c6.753 5.3265 25.004 6.5718 33.506-8.0388 8.5143-14.609 4.0767-31.44 4.0767-31.44z" fill="#d3ddf1"/>
  <path d="m173.57 226.69-22.708 23.853c5.464 4.3077 18.425 5.9427 27.696-1.3138-6.7869 1.0876-13.567-4.8331-4.987-22.539" fill="#b7c0d1"/>
  <g fill="#0f141b">
   <path d="m75.913 194.75c2.7656 0.9686 9.7241-2.8454 17.715 1.4962 5.1551 2.808 8.4315 6.9447 9.2513 10.07l1.6683-1.1425c-1.0888-4.1663-4.4578-8.546-9.4878-10.816-9.4231-4.2586-16.599-0.22161-19.15-1.6645-30.142-16.976-49.598-26.66-50.145-26.148-0.41316 0.39886 8.0688 14.514 55.143 52.113 2.8569 2.2901 5.5703 3.3371 6.5741 2.5969 0.53631-0.38834-0.55514-4.2045-0.81058-4.9168-0.35274-0.99401-0.55121-1.9466-0.61288-2.8233-0.08604-1.2826 0.13687-2.4071 0.67692-3.2466 0.58777-0.93085 1.5819-1.4847 2.9137-1.6995 4.5879 2.4886 7.265 7.4161 7.6479 12.943 0.10947 1.6255-0.9074 3.6423-2.3844 3.8298-2.8795 0.37673-0.54254 2.0303-0.16637 2.3641 1.7868 1.5757 6.6152 5.3258 6.8227 5.49l0.95908-1.2376c-0.0421-0.0357-4.8482-3.7788-6.6615-5.347 2.1644-1.1123 2.9837-3.0783 2.9768-5.1863-0.03331-5.787-4.1252-12.133-8.1754-14.145-4.6879-2.7582-7.8217-2.0272-9.0789-1.0717-2.5766 1.9757-1.8952 5.8401-1.1826 7.1898 0.72734 1.3399 1.5506 1.8325 0.8131-0.32404-0.73756-2.1569-0.2455-4.3847 1.2876-5.6779 1.146-0.9643 3.0111-0.67804 5.0475 0.16686-0.89642 0.43494-1.626 1.05-2.1451 1.8809-0.70866 1.1088-1.0071 2.5704-0.90983 4.1936 0.07319 1.0169 0.3069 2.114 0.70017 3.2284 0.32026 0.90013 0.44216 2.1267 0.42326 2.1608-0.2029 0.0107-1.0865-0.0907-3.7004-2.0718-22.295-16.824-45.776-39.714-52.753-47.465-0.60093-0.6762-0.31044-0.6851 0.34141-0.34973 5.1581 2.658 15.784 8.7968 25.435 14.389 7.4001 4.2813 18.208 10.254 20.974 11.222"/>
   <path d="m143.56 288.79c0.16686 0.7837-5.485 4.1151-14.111 4.244 2.4431-0.65893 4.0297-1.7665 4.6918-2.9593 0.43512-0.78375 0.3287-1.7568 0.0205-2.8552 1.4648 1.1519 3.5269 2.1271 5.958 1.2649 1.2371-0.4456 1.9046-1.1985 2.2314-2.1406 0.60989 0.82905 1.0584 1.7153 1.2101 2.446m-35.189-3.0728c5.7994-1.5734 12.069-6.5323 14.719-8.8329 0.32784-0.2772 0.59372-0.42765 0.8111-0.5135l-1.2215 1.7026c-1.512 2.0495-2.6578 3.415-0.37133 6.8775 3.5282 5.3376 7.3714 4.5016 9.0807 3.7431 0.62703-0.27126 0.89785-0.50907 1.0271-0.99915 0.043-0.15461 0.0903-0.33414 0.14673-0.52378 0.1246 0.87596 0.0551 1.515-0.22667 2.014-0.50844 0.9081-1.7818 1.5476-4.1371 2.0726-3.6644 0.81912-13.319-0.26042-19.88-4.7354-0.49931-0.34436-0.51891-0.64831 0.0506-0.80556m59.218-32.195c-7.9632 7.9776-9.917 7.562-10.405 7.4206 0 0-2.4636-0.97465-2.9203-1.1477-2.0226-2.6608-0.71327-6.2404-0.0537-8.023l-0.82097-0.30375c-1.264 1.3936-2.0326 4.8989-0.4854 7.8219-1.7334-0.58778-3.7288-1.0487-5.7305-0.87201-2.3926-1.0865-1.8472-4.8724-1.208-6.7467l-0.82552-0.27953c-1.502 2.6659-1.0945 5.7015 0.74254 7.224-0.82904 0.20843-4.8087 2.5111-8.473 5.4746-1.6558-1.5387-1.8396-3.103-1.9341-4.6756-0.15704-2.1737 0.23741-4.2819 0.8638-5.7572l-1.1808 1.0832c-1.1325 2.6346-2.2023 6.8109 0.62403 10.337 1.2795 1.6062 2.061 1.8528 2.9571 0.81674 0.42899-0.48348 1.5576-1.4892 2.9973-2.7497-1.6836 4.7761-2.4035 11.237-2.0178 14.407 0.11929 1.038 0.38699 2.1541 0.64933 3.2315 0.84249 3.4054 1.1977 5.5284-0.77613 6.225-2.9435 1.0544-5.4402-1.8205-6.1455-2.7424 1.0192-3.5712 2.4723-10.134 2.9313-11.176 0.57113-1.3101 0.54714-2.2551-0.65763-0.5742-0.78573 1.1195-3.3674 9.3516-3.3674 9.3516s-1.3653 5.0866-1.5104 5.6613c-1.7974 0.49127-5.4667 0.33148-7.1066-3.2357-1.4308-3.0766-1.0455-3.5939 0.19782-5.2798 0 0 5.4284-7.2983 5.4038-10.25-0.0281-3.6042-2.9352-10.92-3.0671-11.22l-2.0274 0.84968c0.0267 0.08 3.3848 6.6399 3.4164 9.9563 0.0248 2.4124-2.8292 6.7438-2.8292 6.7438-0.11967-0.0295-1.3125-0.96052-3.1518 0.62662-4.6333 3.986-9.8492 6.5964-13.207 7.7865-4.2721 1.5206-4.6087 2.4482-0.35906 4.999 3.7633 2.2716 7.5104 3.6247 10.86 4.3519 9.3828 3.5362 18.207 1.814 24.173-1.1201 2.9388-1.4315 2.5948-2.2733 1.8544-3.6783-0.74034-1.405-2.4458-4.2195-2.4458-4.2195 0.044-1.3085-0.24454-2.1148-0.42982-3.2656-1.334-7.7484 0.49441-15.846 2.8114-19.851 3.4558-2.0496 12.269 2.1831 12.269 2.1831 1.3685 0.39374 4.8215-0.70303 13.002-8.9033z"/>
   <path d="m188.09 212.33c0.0432 0.17074 3.7479 15.624-4.4726 29.735-4.2866 7.3615-10.716 9.958-15.359 10.845-7.1896 1.3634-11.189 0.35184-14.272-2.0677l-2.8468 0.67121c8.6451 6.809 26.599 5.1519 34.533-8.0348 10.033-16.694 3.3276-32.194 3.1449-32.893z"/>
   <path d="m95.728 265.14c-0.52577-0.33681-0.99662-0.8392-1.4044-1.5419-1.132-1.9925-1.4769-5.0416-1.3527-6.9118 0.74181-0.81425 1.4176-1.6785 2.0389-2.4526 0.79084-1.0057 1.8587-2.3608 2.3092-2.4897 0.84525 0.50918 3.0846 1.5427 5.0904 1.8804-1.3562 1.7526-3.2729 4.8926-0.63672 9.8375-1.416-0.34003-3.452-0.18223-6.0447 1.678m1.1622 25.422c0.55249 1.2696 0.87045 3.1223-2.4323 5.2255-1.7631 1.1121-5.1246-1.8994-5.4005-2.7034-0.15029-0.40419-0.54937-5.1062-1.151-6.0464 1.1136-2.6007 1.4634-4.4036 2.4161-6.1439 1.0093-1.8426 0.71625-2.4868-0.38827-1.1385-2.4007 2.9114-6.6764 16.984-9.4527 17.681-0.90621 0.21902-2.2-0.4394-3.1482-1.6048-2.2514-2.7787-2.1515-4.8542-1.6899-5.445 1.674-2.2449 4.4334-17.328 4.4334-17.328 0.17682-0.94504 0.21833-1.9028 0.15351-2.8304-0.18448-2.7683-2.4682-7.5844-2.4804-7.7874-0.11853-1.7777 2.6012-5.0559 5.0226-7.2739 0.52507 0.4743 2.7966 2.8807 5.2434 3.8778-0.9945 0.89228-2.282 2.3443-2.3064 3.8821-0.04139 4.0427 0.91042 8.6724 2.3637 11.227 0.97138 1.7115 0.91824 1.3254 1.8333 0.45558 0.45848-0.44044 2.0813-2.5449 3.6018-4.505-0.97315 9.2229 1.9449 17.217 3.3826 20.458m0.50921 7.1302c-4.3826 1.7757-7.8465 2.1936-10.567 1.9227 0.21814-1.3888-0.94321-5.2802-1.2753-6.3205 0.49333-1.1617 0.9792-2.4878 1.4472-3.9802 0.09216 0.64426 0.36257 3.6918 0.57561 4.296 0.38524 1.0878 2.1577 3.4133 4.3673 4.0023 2.6051 0.68762 4.6614-1.523 5.2268-2.1319 0.12689 0.46236 0.29156 0.91979 0.43267 1.3098 0.21308 0.60362 0.06566 0.78984-0.21031 0.90116m-20.888 3.8665c-4.8653 0.66972-13.592-2.8192-18.933-9.0599-0.37999-0.44716-0.29824-0.6835 0.48729-0.66131 7.097 0.1365 14.098-2.7668 17.219-4.1643-0.32493 0.86722-1.1518 2.2674-1.1518 2.2674-0.89221 1.3505 0.61302 5.3689 2.0372 6.9395 1.3847 1.513 3.0674 2.3044 4.5348 2.1024 1.197-0.16462 2.3475-1.1532 3.4402-2.905 0.2341 0.75882 0.54964 1.8208 0.67774 2.2084-0.17373 1.5976-3.5887 2.6266-8.3118 3.2727m0.74789-36.1c-0.50913 0.0424-3.2731-1.3399-5.429-2.0818-3.8267-1.3298-8.5443-2.5892-12.293-2.9278-0.54515-0.0326-0.49175-0.31793-0.21677-0.71762 2.5782-3.7936 9.5169-8.2387 14.528-9.2196 5.4551-1.0736 11.594 1.504 11.333 4.8416-0.39808-0.35045-0.6637-0.67541-0.86445-1.0771-0.54794-1.0932-1.6782-1.0164-2.9028 0.0331-1.2248 1.05-6.7494 6.0479-4.8847 9.4189 0.27952 0.51595 0.56228 1.0834 0.8357 1.6988-0.04281 6e-3 -0.07466 0.0277-0.10549 0.029m15.815-1.4174c0.43199 0.77108 1.1022 1.3473 1.8179 1.7446-0.20611 0.16164-3.3055 3.0557-5.459 6.5903-0.30518 0.49416-2.0719-4.8769-2.2426-7.5172-0.04089-0.58392-0.10342-1.1228-0.0528-1.5271 0.3288-2.6973 4.0567-4.8588 4.79-5.5618-0.11346 1.9476 0.0986 4.4325 1.1465 6.2713m26.715-4.3814c-9.4926 8.4438-16.071 4.7301-16.161 4.6757-2.6315-4.7685-1.0975-8.745 0.19213-10.61 0.64435-0.0296 1.2234-0.17217 1.6519-0.51849l-1.9604-2.3231c-0.8283 0.67265-3.986-0.14314-5.7521-1.2264-1.3376-0.82653-2.2762 1.4426-3.9851 3.6057-1.2828 1.6284-2.866 3.5894-4.5958 4.6576-0.67714-0.40265-1.7231-0.91116-2.2174-1.2174 0.76921-4.847-6.6054-9.3994-13.774-7.6809-5.2929 1.2794-10.289 3.4544-14.657 8.7692-2.5626 3.107-2.7462 4.0884 1.1027 4.4949 9.7528 1.0222 16.133 4.5861 17.079 4.8257 0.46461 0.12864 0.99674 0.23522 1.4225 0.23839 1.2728 3.7869-1.2611 14.849-2.1957 18.236-7.6288 3.3754-15.157 5.1394-18.986 4.7617-1.7355-0.17457-2.6636 0.42957-1.075 2.3946 7.0542 8.7435 14.98 11.756 21.416 10.866 3.4874-0.47613 5.8881-1.2433 7.4135-2.0238 3.4294 0.50397 8.378-0.0751 13.644-2.1496 0.92126-0.36635 1.7002-1.1114 1.0034-2.6839-0.62446-1.421-0.82377-1.8972-1.1528-2.686 0.38528-0.71793 0.61197-1.5282 0.55464-2.4293-0.0379-0.5333-0.17067-1.0978-0.44675-1.7012-0.83587-1.8994-4.9528-11.999-2.8237-22.373 0.19721-0.25158 4.0244-3.9495 7.3355-1.8754 4.8025 3.0179 12.143 0.9805 20.161-6.1469z"/>
   <path d="m254.37 164.37c-1.1152 0.12986-4.7657 1.8797-2.9357 1.6828 4.5339-0.50603 15.895-0.3741 15.946 0.36267 0.0342 0.62018-17.04 3.3449-76.398 30.924l-0.01 2.1299c50.637-23.531 78.325-30.702 79.077-33.583 0.12186-0.42833-6.2409-2.6348-15.679-1.5166"/>
   <path d="m275.08 139.17c-1.9035 0.12002-6.4645 2.5148-4.2764 2.3474 11.385-0.86675 26.344 1.0167 26.368 1.4224 0.0497 0.67453-98.834 46.352-108.28 51.507l0.7448 1.3808c9.4128-5.1358 104.55-48.995 109.12-51.111 4.574-2.1287 6.4926-2.3967 0.87501-3.6736-4.5335-1.0366-16.536-2.3664-24.554-1.8729"/>
   <path d="m268.95 117.2c-0.74969 0.18575-3.251 2.5642-2.1759 2.314 13.09-3.0057 40.371-1.8388 40.428-1.0005-0.31723 0.35425-107.95 63.281-117.89 70.775l0.93397 1.2406c21.396-16.098 122.34-70.432 120.99-73.016-0.74787-1.4316-27.69-3.8767-42.289-0.31316"/>
   <path d="m234.41 106.82c-14.883 14.734-47.034 57.222-47.363 57.637l1.2232 0.96884c0.34288-0.42452 33.25-42.195 48.057-56.855 13.39-13.257 70.949-30.351 71.853-28.214 0.40926 1.1676-113.4 100.57-117.93 105.03l1.1067 1.1226c4.48-4.4411 113.3-97.855 119.75-105.6 2.9108-3.4932 2.8552-4.0678-1.6443-3.3423-30.328 4.8591-67.547 21.821-75.058 29.257"/>
  </g>
  <path d="m182.32 85.642c-3.1062 7.2186-6.6804 16.469 7.4117 32.837 2.0964 5.4835-15.584 32.221-23.91 37.109-8.3278 4.8998-41.432 14.142-57.362 35.477-9.5234 12.764-14.252 64.509 31.922 62.352 41.859-1.9492 46.925-36.063 50.183-51.868 3.2582-15.805 0.28009-53.706 9.5499-70.343 2.4986 3.6025 3.966 9.6328 3.948 12.075-0.0225 4.6104 6.0599 8.4947 10.199 11.639 8.1686 6.2058 14.252 6.4662 17.042 2.8126 1.4606-1.9086 3.2597-11.391-0.16146-22.125-4.1187-12.972-31.979-55.215-48.824-49.965" fill="#d3ddf1"/>
  <path d="m190.89 97.392c4.8816-1.6949 27.332 19.196 33.649 24.842-10.28-17.172-29.425-40.58-42.222-36.591-3.0918 7.2087-6.6803 16.469 7.4117 32.837 2.1085 5.4857-15.572 32.223-23.898 37.111-8.3377 4.8855-41.432 14.143-57.362 35.477-9.5355 12.762-14.264 64.507 31.91 62.35 18.785-0.87424 30.157-8.2391 37.295-17.5-10.145 9.789-31.33 18.929-46.339 0.15782-8.1524 0.54374-14.336-8.7641-14.298-18.149 0.0228-7.6952 8.8418-23.062 21.479-24.585-2.8193-6.8477 19.635-29.407 26.634-32.636 7.3025-3.3737 15.807-17.595 22.026-27.241 2.3103-3.5679 4.7833-13.1 5.6582-12.346-4.452-7.3036-6.1755-21.683-1.9437-23.725" fill="#b7c0d1"/>
  <path d="m197.73 136.65c0.686-1.9909 1.4683-3.8258 2.374-5.4496 2.5106 3.6048 3.9659 9.6328 3.9578 12.089-0.0202 4.5984 6.0622 8.4826 10.199 11.639 0.77865 0.59685 5.2842 3.2584 6.0324 3.7496-2.8702-3.3586-9.9707-8.4364-12.538-13.08-1.7237-3.1189-1.2722-4.326-2.7814-8.8594-1.7011-5.1838-7.6864-10.592-7.8419-9.4928-0.31208 2.1361-0.25001 5.1573 0.59796 9.404" fill="#b7c0d1"/>
  <path d="m231.15 135.6c-0.099-0.54474-2.1469-2.5334-3.0096-3.2843-0.25205 7.9157 3.0635 15.596-0.45756 23.088 0.37542 0.67221 0.75154 1.3444 1.1252 2.0288 4.2362-0.52411 5.1803-6.6425 2.3419-21.833" fill="#922f00"/>
  <path d="m102.36 223.43c-3.2416 3.7197-5.9013 21.957 5.2291 31.5 9.6057 8.2428 25.847 6.1528 34.281-7.3547 6.1983-9.9381 6.1296-19.155 3.3521-19.524-8.3657 6.9116-30.964 19.048-40.27 4.9174z" fill="#d3ddf1"/>
  <path d="m133.4 248.35c-10.595 3.4098-14.894-2.8993-17.27-8.8993-4.4062-0.71186-9.6563-4.1517-11.189-6.4824l-2.5795-9.5365c-3.2416 3.7198-5.9036 21.969 5.2267 31.512 5.63 4.828 13.544 6.0954 20.819 3.6068 7.8526-4.0357 22.152-15.718 4.9934-10.201" fill="#b7c0d1"/>
  <path d="m176.44 141.51c-1.9225-0.0466-3.1824 2.063-3.1824 2.063s-4.3498 6.5597-7.699 10.184c-1.7115 8.3448 2.6379 31.342 12.833 45.012 9.627-5.2085 15.589-18.037 15.699-19.095 0.0982-1.06 2.2646-13.107 1.8361-14.303-0.42891-1.1963-0.37139-2.8408-0.37139-2.8408z" fill="#5a77a2"/>
  <path d="m184.57 178.34c1.8671-0.12682 11.552-6.1148 11.353-12.961-0.0377-1.2735-0.37134-2.8408-0.37134-2.8408l-19.115-21.019c-1.9224-0.0466-3.1801 2.0509-3.1801 2.0509s-4.3497 6.5596-7.7011 10.196c-0.35085 1.6523-0.67336 5.542-0.54889 8.161 1.6434-1.4106 7.1159-12.162 7.1662-9.2805 0.17889 10.103 10.53 25.821 12.397 25.694" fill="#4e678e"/>
  <path d="m182.63 134.4c-1.0411 0.0686-1.7582-0.053-2.8738 1.4185-1.1299 1.4814-4.7467 7.6766-5.4059 10.864-0.66785 3.198 1.0088 20.077 11.42 29.173 5.7382-3.1899 7.6592-6.7554 8.3636-8.4419 0.87793-2.0805 3.6811-12.704 3.8892-14.822 0.20857-2.1178-0.97923-4.2837-0.97923-4.2837z" fill="#5a77a2"/>
  <path d="m190.24 159.79c3.0097-0.20187 7.677-6.1126 7.7795-7.197 0.20788-2.118-0.96708-4.2815-0.96708-4.2815l-14.426-13.91c-1.0412 0.0686-1.7461-0.0508-2.8738 1.4186-1.1299 1.4815-4.7347 7.6788-5.3938 10.866-0.13834 0.66439-0.0263 3.895 0.0832 5.5205 1.5679-2.4152 4.7269-10.251 5.0181-8.9926 2.2221 9.3692 7.7706 16.778 10.78 16.576" fill="#4e678e"/>
  <path d="m187.33 126.21c-1.2197 0.0853-2.2902 0.71256-2.2902 0.71256s-4.5637 9.3787-4.2335 11.635c0.3326 2.2442 4.7212 18.063 10.365 18.73 4.6972-3.1214 5.2818-4.9055 5.3562-6.3086 0.077-1.415 2.3321-12.241 2.5511-14.006 0.22971-1.7628-0.49461-2.2494-0.49461-2.2494s-1.0752 5.0782-3.9091 4.4727c-4.6396-1.0058-7.3511-12.987-7.3511-12.987" fill="#5a77a2"/>
  <path d="m195.2 141.29c2.5888-0.0293 3.8322-3.86 3.894-4.325 0.22971-1.7628-0.50889-2.2396-0.50889-2.2396s-1.0608 5.0682-3.8948 4.4627c-4.6419-0.99371-7.3533-12.975-7.3533-12.975-1.2176 0.0732-2.288 0.70045-2.288 0.70045s-4.5637 9.3787-4.2334 11.635c0.0733 0.47738 0.31347 1.5383 0.71818 2.9308 1.5956-3.3004 4.8223-12.102 5.146-11.151 2.8798 8.602 5.9315 10.991 8.5202 10.961" fill="#4e678e"/>
  <path d="m216.87 124.85c-4.3781-0.19214-11.654-6.1431-11.654-6.1431 0.97131 1.511 9.0502 22.672 10.775 27.46 1.7251 4.7869 8.5328 12.368 11.263 11.312 2.7308-1.0565 5.4872-12.102 0.43045-24.886 0 0-6.4374-7.5497-10.816-7.7418" fill="#ed8599"/>
  <path d="m230.48 148.04c0.17563-4.2934-0.51936-9.6902-2.8029-15.447 0 0-6.4352-7.5618-10.801-7.7517-4.3781-0.19215-11.666-6.1453-11.666-6.1453 0.64322 0.98558 4.2661 10.241 7.2046 17.926 3.8857-8.101 15.074 4.1496 18.065 11.418" fill="#ce7486"/>
  <path d="m226.19 157.18-2.4544-0.62191-4.7244-4.9092-2.7117-4.8085 4.268-0.29238-1.0783 4.6261 4.2862-0.38941s-0.32646 0.60416-0.62935 1.4874c-0.42691 1.2118-0.96557 2.6157-0.45602 2.5857 0.8768-0.0619 5.0128-1.2566 5.0128-1.2566l-0.13994 3.1589z" fill="#fff"/>
  <path d="m213.1 109.76c-2.4455-5.16-9.9581-11.118-9.9581-11.118-0.92267 5.0064-0.93421 8.6784 1.0399 12.672 3.1471 4.6266 7.3058 7.3986 12.667 9.6431 0 0-1.3031-6.0373-3.7485-11.197" fill="#fff462"/>
  <path d="m232.86 148.8-0.53661 4.0754-1.1581 2.7678 3.9183-4.1198-1.9577-0.39408 2.9412-3.1866-2.6892-1.0419 2.3814-3.4794-2.8723-1.2027z" fill="#dcdddd"/>
  <path d="m203.15 98.637c-0.29698 1.5872-0.40362 3.0971-0.39155 4.5038 6.68 4.5102 9.2651 10.8 13.816 16.304-0.65818-2.3802-1.8848-6.3467-3.4663-9.6898-2.4454-5.1599-9.9582-11.118-9.9582-11.118" fill="#e0d456"/>
  <path d="m202.01 71.294c-3.4524 0.75847-16.978 2.5415-24.144 7.9346-2.9892 2.2372-0.90033 4.9604 9.0535 9.7195 9.9466 4.7451 19.287 11.459 23.566 17.137 3.3652 4.4668 7.577 13.657 6.818 20.662 5.516 3.8285 25.93 18.445 29.434 23.64 3.4925 5.1928 6.7165 16.38 8.7336 12.569 2.0171-3.811 1.4784-32.365-2.432-43.366-4.2857-12.012-16.943-28.676-22.694-36.273-1.337-9.5422-3.4691-28.776-5.4109-35.622-3.0183-10.609-11.14-22.361-13.531-24.125-2.4032-1.7664-3.2122-2.4695-3.1402 5.4566 0.18036 18.204-6.2532 42.268-6.2532 42.268" fill="#d3ddf1"/>
  <path d="m190.07 85.34c-4.1122-3.8918 2.0649-7.5514 11.191-9.079 3.7273-0.61934 7.3814-12.776 8.1131-25.668 0.33683-6.1567 0.95095-12.186-1.1682-17.749-0.61566 17.566-6.192 38.455-6.192 38.455-3.4524 0.7585-16.99 2.5393-24.156 7.9323-2.9892 2.2371-0.88687 4.9629 9.0558 9.7074 1.8873 0.90437 11.009 6.2356 12.814 7.2504-0.21976-1.7716-5.5452-6.9563-9.6575-10.848" fill="#b7c0d1"/>
  <path d="m247.29 146.11c-1.6722-2.8584-23.32-17.982-24.428-18.828-3.1365-2.4051-2.5436-6.445-5.2476-12.769-2.692-6.3222-5.4864-9.6164-9.2496-11.487 0.0395 0.0491 2.0804 3.0226 2.1221 3.0681 3.134 4.1603 5.8081 9.4383 7.1534 20.813 5.5137 3.8405 25.594 18.294 29.099 23.489 3.4948 5.1807 6.4234 14.795 8.4406 10.984-2.0172-0.0764-4.8073-10.029-7.8896-15.27" fill="#b7c0d1"/>
  <path d="m54.949 141.59c-19.261 0.13302-41.039 4.9366-45.792 10.769 14.004 3.6359 85.831 20.799 126.94 40.141z" fill="#aa020b"/>
  <path d="m136.11 192.76-81.181-51.417c-10.948 0.0708-21.545 2.0882-31.003 4.4444 20.913 7.5244 41.036 17.196 61.043 27.084 15.953 5.2169 36.584 13.04 51.141 19.889" fill="#800"/>
  <path d="m37.176 101.83c-11.374-2.6793-46.181-5.1795-54.288-0.65231 5.4846 4.8008 62.805 31.138 161.99 97.573-2.1245-7.3446-9.2962-16.599-9.2962-16.599z" fill="#aa020b"/>
  <path d="m135.58 182.15-98.407-80.322c-6.2094-1.4628-19.376-2.8727-31.382-3.1128 35.009 19.516 67.279 42.947 95.316 70.903 13.511 8.6849 28.104 18.35 43.769 29.131-2.1124-7.3424-9.2962-16.599-9.2962-16.599" fill="#800"/>
  <path d="m30.006 65.714c-23.1-8.8365-39.176-12.86-54.24-12.707-4.0706 0.04097 147.16 113.72 173.79 143.41-0.42802-6.4253-6.0994-18.672-6.0994-18.672s-33.62-43.158-113.45-112.03" fill="#aa020b"/>
  <path d="m149.56 196.42c-0.42797-6.4252-6.0995-18.672-6.0995-18.672s-33.874-43.142-113.45-112.03c-8.5188-3.2617-16.072-5.8536-22.974-7.8348 33.458 29.346 65.93 63.223 95.251 96.522 22.633 18.706 38.81 33.181 47.277 42.014" fill="#800"/>
  <path d="m121.43 100.02c-9.2836-11.305-76.591-68.641-139.25-83.549-12.521-2.9829-13.141 0.46314-13.141 0.46314s94.062 67.22 187.92 175.83c-0.60998-9.0049-23.804-78.464-35.528-92.746" fill="#d3ddf1"/>
  <path d="m144.53 151.6c1.6765 6.1196 5.709 25.383 3.6824 24.352-111.93-124.17-179.16-159.02-179.16-159.02s94.062 67.22 187.92 175.83c-0.29464-4.2559-5.6388-22.072-12.437-41.163" fill="#b7c0d1"/>
  <g fill="#0f141b">
   <path d="m195.88 150.93c-0.05 0.86846-0.16482 2.4896-4.8302 5.6421-4.9962-0.97652-9.2496-15.775-9.5882-18.121-8e-3 -0.0294-0.0181-0.0521-0.011-0.0896-0.11095-1.5507 2.2045-7.0236 3.8962-10.569 0.18805-0.40344 0.39045-0.47817 0.80572-0.55174 0.33763-0.062 0.69499-0.0959 0.75114-0.0596 0.7326 2.9209 3.2786 11.899 7.6417 12.64 3.2437 0.55818 3.4354-1.7398 3.8288-2.569-0.15451 0.97423-2.45 12.834-2.4899 13.679m1.4945 1.5963c-0.20025 2.0065-2.8441 11.92-3.7252 14.012-1.2495 2.989-4.1161 5.9136-7.858 8.0851-7.8123-7.1046-10.455-18.584-10.856-24.615-0.10267-1.4613-0.0702-2.5713 0.058-3.1869 0.6452-3.077 4.189-9.1854 5.2833-10.611 0.0344-0.0353 0.0538-0.065 0.0874-0.0962-0.25464 0.8928-0.39517 1.6439-0.3219 2.1217 0.25512 1.7907 2.216 15.099 9.1278 19.778 1.2019 0.81505 1.916 0.68452 3.016-0.10092 2.7871-1.9615 4.4498-4.1458 5.2048-5.8353-1e-5 0.15009 0.0127 0.30337-9e-3 0.44945m-3.5433 24.567-0.39445 2.5094c-0.21119 1.2772-5.9865 13.163-14.844 18.277-7.5144-10.372-11.952-26.463-12.651-36.939-0.16233-2.4129-0.12132-4.512 0.11394-6.1733 0.0637-0.48925 0.12915-0.7283 0.52203-1.1814 3.2468-3.6811 7.0632-9.4001 7.2243-9.6583 0.0186-0.0243 0.33905-0.53786 0.86565-1.0043-0.64293 1.3594-6.1514 13.709 9.1147 33.118 0.88175 1.118 1.7926 0.87412 2.8123 0.25021 3.081-1.8563 7.2137-5.8482 8.6806-9.1978-0.25316 2.6236-1.086 7.7471-1.4449 9.9998m-85.667 77.18c-5.6958-4.8779-7.3166-11.765-7.6774-16.672-0.30604-4.396 0.32383-8.5668 1.2867-11.233 1.9672 10.262 7.7455 12.622 11.585 13.416 15.8 3.2196 29.014-9.6319 32.08-10.337 0.44349-0.0929 0.67982 0.0521 0.6787 0.52807 0.0171 3.3263-1.0429 11.204-5.3587 17.381-11.299 16.157-28.271 10.623-32.594 6.918m105.16-101.3c-3.656-2.7782-8.2814-6.139-8.2554-9.6955 7e-3 -2.7826-0.66954-8.3516-4.139-12.662-5.2346-6.4719-1.6961 0.0838-1.6961 0.0838-1.2084 2.169-2.1901 4.6688-3.0288 7.4087-0.0907 0.0832-0.18127 0.16629-0.26818 0.22579-0.3573 0.23414-0.71909 0.29157-1.1167 0.20467-3.2069-0.68763-5.7228-8.0178-6.6578-11.666 1.2167-2.6816 2.0311-5.0246 2.2712-6.7102 0.65293 0.79993 5.8449 4.4167 0.0512-2.348-12.457-14.519-10.113-27.11-7.3197-31.653l-1.8985-0.6437c-2.7892 4.5192-6.1348 17.374 7.5422 33.413 0.0181 0.0521-0.55987 2.3908-2.0209 6.0424-0.50076 0.13153-0.97499 0.31876-1.331 0.47849-0.49029 0.20924-0.72206 0.44115-0.92727 0.8673-0.6671 1.3549-2.2826 4.6264-3.381 7.4807-0.59295 0.0893-1.2188 0.34821-1.9371 1.3053-0.56131 0.72261-1.963 2.9181-3.2796 5.3303-1.7557 0.5368-3.1498 2.1568-3.202 2.2349-0.0211 0.0378-5.9037 8.1623-7.6836 10.638-0.53939 0.7392-0.57265 0.98386-0.65802 1.507-0.0362 0.19344-0.0567 0.37797-0.0796 0.57389-1.9032 1.1236-13.091 5.4257-15.931 6.6625 0.11239 0.67375-5e-3 1.5666 0.2401 2.2018 2.8972-1.2762 13.667-5.2176 15.608-6.1459-0.66633 9.7943 2.2284 25.823 12.664 41.694 1.0819 1.657 1.4179 1.2684 3.0401 0.10515 5.1323-3.7046 8.7241-8.224 11.103-12.093-0.31087 5.2839-0.7193 10.01-1.4517 13.522l-0.41673 2.0789c-3.3224 16.483-10.268 47.035-49.588 49.02 6.3621-6.8602 9.5146-18.146 8.0917-24.08-0.66581-2.8082-2.9571-1.0169-2.9571-1.0169-0.17446 0.13-17.096 12.087-28.095 11.158-5.9-0.50262-9.0675-2.6746-10.328-5.2554-6.1455-12.662-4.2431-37.373 9.8313-49.06-0.71821-0.18311-1.8114-0.63992-2.5363-0.98826-10.923 9.8565-13.243 23.329-12.305 37.349 0.049 0.67441 0.083 1.6332 0.16518 2.7396-8.5266 15.747 1.3842 39.985 23.086 36.66 5.1008-0.78868 7.9951-1.7143 13.069-5.2417 40.931-0.60549 49.784-31.841 53.206-48.857l0.42793-2.0642c0.94606-4.5882 1.5769-12.383 1.9974-19.991 1.0909-2.2788 1.6-3.9266 1.633-4.3718l0.38084-2.4367c1.3503-8.287 1.5637-11.846 1.573-12.697 0.0158-0.6873-0.0717-1.2925-0.18879-1.8035 0.9996-4.0013 2.0998-9.2126 2.2396-10.629 0.14666-1.4522-0.37277-2.5652-0.78953-3.22 0.48136-3.5089 1.5756-10.966 1.6527-11.579 0.15015-1.0629-0.024-1.7476-0.24075-2.2019 0.22499-0.53417 0.55754-1.438 0.80237-1.944 1.5769 2.966 2.696 7.0377 2.8806 10.408 0.23564 4.3704 5.0452 8.355 8.964 11.27 8.1837 6.0581 15.669 8.8758 19.123 4.3556 3.1566-4.1369 2.9786-14.779 1.26-21.747l-2.3425-1.3536c1.9907 8.0594 2.7223 18.692 0.39604 21.743-2.6572 3.478-10.241 0.71718-17.246-4.6061"/>
   <path d="m203.99 118.15c0.87503 1.355 9.3712 22.632 11.384 28.225 1.5024 4.1686 6.3898 9.9485 9.6963 11.445 0.93601 0.42609 2.1962 0.45965 2.8576 0.20866 0.81317-0.32403 1.2868-1.1135 1.7497-2.5818 1.5066-4.7717 2.6642-11.628-0.57503-20.585-0.12998-0.37535-1.6647-1.089-1.5017-0.6195 3.0419 8.6072 2.639 16.658 0.88323 20.68-0.45857 1.0428-0.96541 1.5374-1.4244 1.7148-0.31266 0.12918-0.85248 0.2666-1.4531-8e-3 -2.9929-1.3625-7.6206-6.8557-9.01-10.689-1.5652-4.3683-9.7874-25.971-10.837-27.597z"/>
   <path d="m229.5 156.47c-1.0583 0.62955-2.1297 0.79279-3.1875 0.48205l-0.46233 1.1298c1.2715 0.37559 2.5903 0.0961 3.8477-0.65944 1.6942-1.0122 2.836-2.8928 3.0303-3.7969l-0.67123-0.90311c-0.37174 1.1844-1.0328 2.8414-2.557 3.7476"/>
   <path d="m220.54 146.12c-0.77078 0.0309-3.9402 0.21573-3.9402 0.21573l0.16839 0.90932s3.1308-0.37974 3.2391-0.2215c0.10124 0.19481-1.1091 4.7206-1.1091 4.7206s4.0878-0.602 4.1574-0.43846c0.0477 0.14659-1.6441 3.0907-1.6441 3.0907l1.714 1.3615s3.9292-1.6975 4.114-1.6128c0.17252 0.081-0.54945 3.308-0.54945 3.308l0.86846 0.0499s0.47822-2.594 0.61027-3.4846c0.12521-0.89206 0.0938-0.87277-0.56914-0.84651-0.66006 0.0392-3.7733 1.2-4.7652 1.3405 0.4185-0.76177 0.8507-1.7342 1.3082-3.1033 0.31738-0.89372 0.29011-0.94894-0.66744-0.99018-1.5212-0.0461-3.3377 0.0779-3.3377 0.0779s0.67468-2.3316 1.014-3.8105c0.13579-0.57728 0.0619-0.59111-0.60921-0.56513"/>
   <path d="m232.71 142.62s2.3687 0.74418 2.384 0.99728c0.0263 0.23086-2.3981 3.5014-2.3981 3.5014s2.6043 0.82582 2.6188 1.0162c0.0109 0.1647-3.032 3.2699-3.032 3.2699s1.9271 0.2229 1.9336 0.38955c0.0153 0.17873-4.2007 4.3554-4.2007 4.3554l1.2645 0.0107s4.7041-4.7001 4.6556-4.9098c-0.0505-0.19785-1.3908-0.27427-1.9578-0.39409 0.7079-0.77038 2.9019-2.8427 2.8458-3.079-0.0581-0.22428-2.1182-0.80993-2.7839-1.0721 0.46765-0.69006 2.4921-3.3332 2.3815-3.4794-0.1104-0.14585-3.7418-1.5152-3.7418-1.5152z"/>
   <path d="m216.85 121.68-0.56243-1.4846c-10.386-4.3385-14.424-12.517-12.388-20.651l-1.5799-1.2738c-2.0198 10.87 1.6089 17.405 14.53 23.409"/>
   <path d="m211.01 107.66c-2.1478 0.68917-1.6668 7.0992 0.51654 10.041 0.49022 0.66799 4.1218 3.3042 4.4496 3.027 0.32782-0.2772-0.28897-5.1578-1.6917-8.1163-1.3906-2.9563-2.634-5.1576-3.2745-4.9515"/>
  </g>
  <path d="m214.39 114.13c-0.90094 0.0566-1.4571 1.019-1.1037 2.477 0.23641 0.94707 0.97818 1.6753 1.7028 1.6227 0.57184-0.0431 0.8869-1.3889 0.83938-2.075-0.0334-0.55748-0.81634-2.0713-1.4395-2.0249" fill="#fff"/>
  <g fill="#0f141b">
   <path d="m200.61 117.38c-2.0759 0.84054-1.1702 1.1604 0.086 0.88142 1.256-0.27871 2.9613-0.21101 5.0319 1.255 0 0 4.8291 3.6122 6.992 4.7192 2.1507 1.1049 4.6549 1.2596 4.6549 1.2596l-0.1548-1.7845s-2.1209-0.0583-4.0434-0.70781c-1.9227-0.64822-6.6974-4.5511-6.6974-4.5511-2.5365-1.7913-3.7928-1.9135-5.869-1.0703"/>
   <path d="m211.43 106.43c-4.0736-5.8408-13.741-13.418-23.963-18.302-7.9988-3.829-9.906-5.5652-9.7913-6.6473 0.30462-3.103 14.83-8.486 23.148-8.7103-0.25236 1.8839 0.28539 3.5018 1.699-0.43467 1.5333-4.24 7.037-24.34 6.8628-42.442-0.0334-3.8435-0.10586-5.3994 0.37197-5.6737 0.85247-0.46751 10.344 9.6598 14.588 24.574 1.4611 5.1263 4.4086 28.513 5.2484 34.614 0.63778 4.6337 1.3712 3.9307 1.431 1.9356 0.90153 1.3474 3.7492 4.8271 6.856 9.1327 12.719 17.54 15.724 27.081 17.447 40.458 1.5135 11.682 0.72123 24.964-0.66894 26.898-0.45631 0.62956-2.6217-3.0111-3.6803-5.1277-1.0412-2.0758-3.3038-6.537-4.6484-8.1303-4.4938-5.4053-26.09-20.406-28.316-21.976-0.5069-0.37082 1.3338-8.8042-6.5846-20.167m-4.391-77.265c0.16839 16.459-4.8352 37.906-5.7372 41.387-17.174 1.9782-25.552 6.5427-26.504 10.628-0.29608 1.2111 1.5948 4.4115 12.103 9.4374 9.9808 4.7641 18.748 10.518 22.89 15.995 4.5818 6.0739 6.6105 12.523 6.8301 18.52 0.0392 1.1986-0.13763 1.9429 0.62484 2.4242 4.3964 2.8415 24.227 17.424 27.574 22.389 1.1107 1.6373 7.3794 13.707 8.6397 14.746 2.0102 1.6552 2.2267-0.57403 2.6942-1.4647 1.5496-2.9202 2.4937-15.672 1.4255-26.518-1.5514-15.702-5.7673-29.294-26.526-53.731-0.0453-0.35952-0.88782-8.9942-0.88782-8.9942-1.2325-9.4976-2.0473-19.419-3.5341-24.675-3.1072-10.939-8.8923-21.64-14.87-26.821-5.9776-5.1813-4.765 1.5412-4.723 6.6778"/>
   <path d="m10.254 149.17c-3.8909 2.6326-3.8556 3.517 2.3781 5.185 8.7077 2.3188 88.279 22.461 124.78 39.836l-5.1034-4.0898c-32.592-16.82-120.72-37.987-121.78-38.235 6.3479-4.706 27.469-8.8801 46.14-9.0107l-4.2629-2.0139c-19.135 0.1315-38.259 5.6951-42.15 8.3277"/>
   <path d="m-16.228 99.146c-3.4425 0.77291-3.935 1.9975-1.1311 3.5002 68.071 36.437 110.24 62.797 158.22 94.736 5.3653 3.562 6.1562 2.8197 3.2101-2.9481-1.467-2.8828-3.4862-6.4332-4.7683-8.6293-0.69397-1.1832-4.5245-3.0285-4.5245-3.0285 0.06 0.0807 4.7839 6.1994 7.6037 12.307 0.46742 0.9903 0.42435 1.0199-0.47815 0.41174-72.348-49.501-154.67-92.691-156.91-94.09 9.7625-3.252 40.518-1.2846 51.953 1.4066l-2.4124-2.3198c-11.11-2.6174-36.255-4.614-50.76-1.3465"/>
   <path d="m-24.327 55.422c2.339 2.0428 138.32 106.82 169.95 138.98 4.2236 4.3014 6.292 5.3781 4.354-1.3547-1.5209-5.2754-4.2368-13.144-4.4135-13.541l-3.6742-2.8819c0.049 0.10928 4.2871 9.5926 6.0788 16.035 0.32329 1.1514 0.17294 1.0857-0.46907 0.36337-21.965-24.688-164.98-135.04-169.45-138.96 15.137 0.46218 38.311 6.2905 51.524 12.211l-3.5644-3.2c-14.071-6.2943-31.562-10.796-50.96-12.005-3.9169-0.24419-1.7119 2.3131 0.62706 4.3558"/>
   <path d="m-18.045 17.456c60.338 14.362 128.19 70.407 138.7 83.208 10.376 12.638 29.988 69.74 34.407 87.608 0.16841 0.70857 0.12003 0.90027-0.41245 0.26136-69.702-84.82-163.52-156.03-184.33-171.96 1.0501-0.51853 4.1786-0.88601 11.634 0.88522m-13.063 0.65318c82.726 63.87 137.46 117.47 184.32 171.95 4.111 4.7695 5.0376 4.2405 3.6579-1.9239-4.5486-20.325-24.735-78.914-35.276-90.404-6.6538-7.2641-73.165-67.586-139.06-82.122-11.236-2.4783-18.588-1.321-13.635 2.5024"/>
  </g>
 </g>
</svg>
