<?xml version="1.0" encoding="UTF-8"?>
<!-- Created with Inkscape (http://www.inkscape.org/) -->
<svg version="1.1" viewBox="0 0 471.01 624.38" xmlns="http://www.w3.org/2000/svg">
 <g transform="translate(47.004 203.52)">
  <path d="m359.59 82.025c-26.583 17.31-40.728 62.226-43.671 120.53-2.5373 50.202-1.9668 89.504-67.447 98.759l-2.0277 3.8922 2.4174 17.059-3.161 5.5825c83.017-10.183 88.638-67.766 90.259-120.1 0.25364-8.0209 0.41595-20.413 1.0873-28.145 4.7239-53.776 21.414-72.54 31.893-80.675l2.2315-4.0792-10.57-13.614z" fill="#0f141b"/>
  <path d="m360.17 84.871c1.2191 1.5659 6.2655 8.061 7.4276 9.5525-10.948 8.9683-28.851 31.465-33.511 84.606-0.68406 7.7692-1.092 15.872-1.4888 23.717-2.5055 49.431-5.5083 108.24-81.705 119.64-0.28097-1.954-1.2997-13.21-1.5503-15.057 66.27-9.9579 68.585-54.009 71.159-104.99 0.41134-8.0051 0.8244-16.271 1.5295-24.361 4.8485-55.145 23.19-81.012 38.137-93.103" fill="#fff1ac"/>
  <path d="m249.33 307.33c0.26278 1.854 1.2739 13.091 1.5547 15.045 18.53-2.7635 32.715-8.3498 43.63-15.902-5.585-1.5976-10.727-4.0779-15.232-7.7124-8.1627 3.8539-18.004 6.7706-29.952 8.5677" fill="#fff1ac"/>
  <path d="m346.36 69.445c0.0956 21.161 18.274 39.355 39.435 39.259 21.144-0.0882 39.007-13.787 38.18-38.274-0.8613-25.227-18.259-39.624-39.42-39.528-21.149 0.09964-38.291 17.382-38.195 38.543" fill="#0f141b"/>
  <path d="m350.61 69.659c-0.0856-19.331 15.066-34.492 34.398-34.577 19.32-0.08983 34.653 16.635 34.738 35.966 0.0896 19.319-15.104 34.328-34.428 34.128-17.81-0.17376-34.618-16.197-34.708-35.517" fill="#00233c"/>
  <path d="m63.321 355.27c-16.245 4.223-29.538 28.43-32.508 47.974-1.044 6.829 1.9373 7.2767 8.8342 5.3265 6.8807-1.9432 12.075-5.4849 13.759-6.1932 0.09195 0.88538 0.81368 10.343 1.9707 13.782 1.17 3.4432 2.352 6.5482 8.0585 3.4114 30.956-16.99 56.952-50.464 58.599-60.287l0.24739-1.4358-58.778-2.6226z" fill="#0f141b"/>
  <path d="m35.275 404.58c2.9828-16.807 14.847-43.055 28.549-46.785 0.473 0.0151 51.869 2.3311 55.14 2.472-4.891 10.749-45.456 50.864-58.273 55.215-0.34995 0.1068-0.52537 0.0427-0.70576-0.0595-2.0003-1.3-2.7655-9.0454-3.1774-13.217l-0.5963-5.2538-1.5319 0.7062-5.9692 2.5338c-4.174 1.8238-11.864 5.2049-13.444 4.5642 6.15e-4 -0.0773 0.02902-0.18434 0.02902-0.18434" fill="#00233c"/>
  <path d="m-11.271 287.82c-4.2313 1.5307-8.1039 7.2934-8.0847 16.196 0.2689 98.193 118.29 88.616 147.17 54.335 1.6115-1.9148 2.7367-5.324-1.0048-10.687-17.153-24.59-116.53-67.649-138.08-59.842" fill="#0f141b"/>
  <path d="m-15.232 304.01c-0.02491-7.6276 1.737-12.645 4.8315-13.777 20.335-7.3682 118.82 35.574 135.1 58.901 3.4109 4.873 1.7016 6.903 1.1445 7.566-22.276 26.46-140.82 41.149-141.08-52.691" fill="#f6c8dd"/>
  <path d="m124.7 349.13c-3.4506-4.9536-10.63-10.794-19.956-16.847-11.057 20.075-34.514 33.987-61.71 34.108-14.19 0.0657-27.39-3.6281-38.366-10.017 34.797 33.147 104.61 19.997 121.18 0.32313 0.55169-0.66411 2.2631-2.6828-1.1444-7.5663" fill="#d5adbf"/>
  <path d="m-22.889-73.213c-3.5688-6.2201-7.5095-9.7059-10.832-8.3005-16.572 6.987-23.26 113.93 35.553 166.29-5.6815 6.1386-57.601 69.474-47.546 161.15 5.2468 47.886 29.8 88.855 83.586 111.72 48.817 20.734 120.84 37.36 183.42-11.175 36.225-28.096 45.66-67.62 45.466-109.37-0.0356-8.4689 0.5414-14.465 0.27506-23.36 0 0-1.9375-36.475-2.6325-45.059 20.458 9.3552 79.8 31.467 115.82 20.046 3.5017-1.106-0.0842-10.312-3.4152-13.659 5.8195 1.2156 18.768 3.4437 21.108-0.10128 6.6809-10.114-76.598-117.52-160.2-109.62-18.803 1.7728-36.538 3.9324-52.142 6.1216-39.9 5.5982-90.31-6.0746-90.31-6.0746-12.294-7.4856-8.0007-24.503-17.931-39.011-16.546-37.947-71.582-98.764-87.551-109.45-9.442-6.3014-11.684 1.6731-12.669 9.855" fill="#0f141b"/>
  <path d="m259.57 162.54c-8.6669-2.9818-7.8287 0.0493 0.0845 4.8078 0.5289 4.0749 2.0489 45.685 2.0489 45.685 1.5628 52.071 2.7418 94.586-39.799 127.57-61.603 47.764-131.96 33.401-180.13 12.929-126.65-53.797-88.159-215.92-28.378-275.33 8.476-8.4353 5.7246-11.6-2.2462-3.9961-1.4047 1.3436-3.4857 3.4052-6.009 6.1298-28.702-19.725-50.545-86.344-46.422-128.11 12.378-3.5908 30.329-6.8799 49.333-12.506 16.579 14.609 55.392 64.309 64.386 89.556 10.774 13.619 9.5962 30.448 21.774 37.876 0 0 51.298 12.516 91.706 6.8413 15.572-2.1739 33.229-4.6497 51.995-6.0928 61.731-4.7375 121.57 59.069 138.46 78.744 11.137 12.995 16.375 23.06 16.383 25.465 3e-3 0.0776-0.0151 0.15014-0.0407 0.21886-1.1954 1.6685-10.791 0.76125-19.075-1.1537l-2.1032-0.48897 0.57882 2.0773c0.0848 0.30318 4.01 6.2149 4.954 12.556 0 0 0.0656 0.14039 0.10976 0.23428-1.3147 1.17-14.159 3.4678-28.586 2.2535-40.744-3.8634-71.962-19.406-89.031-25.269" fill="#f6c8dd"/>
  <path d="m14.336 71.517c-0.92682 0.66845-1.9925 1.5591-3.1796 2.6779-1.4097 1.3575-3.4859 3.4056-6.0135 6.1422-22.984-15.802-41.844-63.207-46.02-101.19 6.0165 27.368 40.548 81.462 55.213 92.371" fill="#d5adbf"/>
  <path d="m253.7 161.5c0.70222-0.34892 2.6198-0.0673 5.87 1.0394 17.067 5.8668 48.286 21.406 89.03 25.269 14.427 1.2142 27.27-1.0824 28.586-2.2535-0.0441-0.0937-0.10976-0.23429-0.10976-0.23429-34.249-0.30475-147.43-62.225-123.39-23.829" fill="#d5adbf"/>
  <path d="m93.202 116.02c-73.248-19.418-125.12 26.802-135 70.941-12.644 56.468-2.4369 134.37 82.597 170.5 51.296 21.811 100.47 23.52 142.18 7.8996l0.71391-0.26297 1.2682-8.7382c9.701-37.451 14.784-84.562 9.0059-122.37-9.1441-59.949-42.845-102.61-100.76-117.96" fill="#0f141b"/>
  <path d="m41.783 353.54c-83.51-35.474-90.167-109.95-81.057-166.18 5.1854-31.92 57.189-87.03 130.82-67.226 64.668 17.411 99.748 65.362 100.17 157.78 0.13068 28.573-3.6505 56.196-9.2783 77.962-0.0253 0.14633-0.78737 5.3568-1.0635 7.3021-51.685 19.04-104.4 5.3118-139.59-9.6382" fill="#fff1ac"/>
  <path d="m10.236 335.9c9.0392 6.5797 19.491 12.519 31.544 17.638 35.193 14.95 87.901 28.692 139.59 9.6379 0.28018-1.9453 1.0393-7.1599 1.0773-7.2972 2.9844-11.577 5.447-24.797 7.0841-38.947-56.878 36.571-114.62 39.279-179.3 18.969" fill="#fff1ac"/>
  <path d="m-18.943-82.86c-1.6648 1.3741-2.6939 9.828-3.3709 12.644-1.613-2.37-4.351-7.8893-7.683-9.9469-1.1273-0.68045-2.7797-0.06068-3.8955 0.48486-3.9622 1.916-6.8816 10.056-9.209 29.653l0.28083 3.094c14.825 6.0672 49.022-2.5843 52.807-13.569-8.0048-10.462-17.282-16.991-23.373-22.12-0.84315-0.70212-3.8945-1.6044-5.5549-0.24036" fill="#0f141b"/>
  <path d="m-20.857-69.526c0.82885-3.9558 2.0904-10.322 4.9727-10.705 3.4167-0.45195 13.784 8.7916 22.994 19.415-12.649 10.672-33.245 14.857-48.031 11.564 1.0784-16.289 4.9744-26.862 8.755-27.786 3.2783-0.78998 6.9827 5.8898 7.8325 7.297 1.4116 2.3243 2.6329 4.1789 3.4783 0.21628" fill="#00233c"/>
  <path d="m373.61 142.79c-13.981 11.659-24.461 31.737-23.516 47.138 0 0 27.788-0.57943 29.349-3.0344 1.2672-1.985-1.5982-8.554-5.3092-14.002 5.8073 1.2111 18.453 4.3882 20.782 0.83785 0.24756-0.36178 0.35065-0.86148 0.36801-1.4466-0.026-4.9376-8.2458-17.152-16.953-27.305z" fill="#0f141b"/>
  <path d="m375.53 145.67c0.43367 0.46828 0.8408 0.97755 0.8408 0.97755 11.149 13 17.147 22.748 16.396 25.469-0.55231 1.9558-0.015 0.15005-0.0396 0.21896-1.1855 1.6838-17.544-0.83262-19.063-1.1491-1.53-0.32036-2.0521-0.58713-1.526 1.6034 0.51984 2.1649 6.4018 11.666 4.954 12.556-1.4601 0.88399 0.0316 0.12802 0.0756 0.22189-2.5787 2.3079-19.556 2.6396-22.434 2.4356-1.3424-16.959 9.4907-31.871 20.783-42.321" fill="#00233c"/>
  <path d="m378.32 144.97" fill="#00233c"/>
  <path d="m269.9 205.46c-22.578-17.755-77.98-15.106-107.65 28.543-33.769 49.713-35.26 140.56-19.709 146.52 20.573 7.8988 85.154-12.333 120.76-62.122 31.836-44.524 32.479-92.57 6.5921-112.94" fill="#0f141b"/>
  <path d="m143.56 375.96c-13.991-5.3762-11.965-43.015 5.4588-100.7 19.544-64.76 64.729-75.172 88.364-75.277 25.355-0.11483 37.884 10.212 44.346 39.266 7.0878 31.956-19.788 78.44-49.88 104.91-28.442 25.025-76.018 36.506-88.29 31.803" fill="#f6c8dd"/>
  <path d="m198.2 323.14c-16.845 18.131-39.986 27.942-63.856 28.581 0.0881 13.485 3.1348 21.905 9.208 24.24 12.268 4.7135 59.848-6.778 88.29-31.802 24.436-21.505 46.756-56.2 50.476-85.589-31.399 15.938-58.414 37.099-84.118 64.57" fill="#d5adbf"/>
  <path d="m113.29 343.57c-0.42112 27.481 7.1826 47.241 22.351 49.973 12.497 2.2593 32.625-12.652 38.906-41.759 3.5757-16.51 0.53051-40.372-4.755-44.921-7.7472-6.6607-22.546 10.823-25.4 15.446-2.702-7.8558-4.5624-20.047-12.16-20.257-7.2212-0.22482-18.538 15.376-18.942 41.518" fill="#0f141b"/>
  <path d="m134.01 388.81c-5.7788-1.8973-13.13-8.6654-15.424-29.936-2.8245-26.061 2.7947-42.531 9.0058-49.26 1.7354-1.87 3.1602-2.5059 3.922-2.4928 2.187 0.0639 5.4273 6.6594 7.3763 10.605 2.3636 4.8091 3.5656 7.1385 5.2002 7.401 0.60847 0.10319 1.1852-0.0924 1.6275-0.55098 5.9235-5.9689 18.327-15.247 20.108-13.834 1.1185 0.88744 5.5582 10.015 5.6078 22.923 0.1699 37.565-24.412 59.47-37.423 55.144" fill="#00233c"/>
  <path d="m56.445-202.56c-11.339 6.2184-13.109 89.15 55.634 100.46-27.365 27.776-31.053 57.492-47.965 84.796-10.534 29.174 20.783 24.724-8.7524 51.329-10.277 9.4303-6.5188 11.601 0.56525 4.9955 5.2305 13.878-0.27471 45.05 23.527 58.896 27.398 15.931 71.194 12.731 124.82-11.167 28.858-12.862 53.987-17.589 50.593-21.22-3.4102-3.6237-8.1284-12.318-8.5606-21.933-0.75489-16.609 2.9826-30.384 5.3039-39.907 2.6451-10.876 3.7444-26.497 3.3191-37.002 20.792 20.073 47.273 33.572 71.327 34.469 10.647 0.39493 14.011-4.5373 11.733-15.081-4.8015-22.343-27.366-50.869-57.062-60.301-33.072-8.4856-58.401-18.985-78.52-33.599-13.24-9.6115-32.075-13.175-54.073-14.029l-0.76626-0.0439c-5.9226-0.21011-14.598-0.28764-22.579-12.141 0 0-24.171-39.142-34.421-49.922-15.455-16.234-27.896-22.028-34.116-18.61" fill="#0f141b"/>
  <path d="m58.534-155.14c-6.8707-31.493-3.6097-40.69 0.33294-42.86 3.5111-1.9276 11.614-0.38082 30.155 17.986 5.9288 5.8818 17.073 23.065 26.034 36.879l7.8083 11.914c8.6302 12.83 18.444 11.962 24.611 12.178l0.75592 0.0405c21.525 0.83231 39.52 3.9834 51.957 13.88 10.076 8.0402 26.031 17.811 79.14 33.783 32.995 11.505 56.428 48.362 55.591 62.431-0.1984 3.2785-1.5524 5.1484-4.1732 5.7235-18.264 3.9997-53.075-12.198-78.913-36.762-1.001-0.95383-3.8934-4.2227-5.6658-4.2184-3.4532 0.02625 3.5966 5.6123 4.433 8.1938 0.71797 9.2786-0.0646 27.747-3.1031 38.453-3.6251 12.744-5.715 29.174-4.7098 41.262 0.80222 9.5016 5.632 19.102 5.6378 21.438 0.0165 2.3407-23.753 8.8488-45.434 17.926-59.512 24.923-100.63 26.485-123.31 9.3928-17.513-10.362-16.289-43.661-20.242-57.391 3.8693-3.1427 6.8139-6.3462 9.824-9.5805 36.037-38.611 14.659-80.956 16.137-84.128 4.1774-9.003 23.259-37.443 30.649-43.485 3.9243-3.2193 1.731-3.1907-1.4264-2.0145-9.394 1.8708-48.161-14.66-56.095-51.028" fill="#00233c"/>
  <path d="m148.33-121.86" fill="#00233c"/>
  <path d="m52.258-182.55c0.21819 7.0937 1.5655 16.381 4.0178 27.619 8.7856 40.272 46.704 49.894 55.456 52.033 3.4364-2.1725 7.8572-4.6782 8.6809-9.267 1.1471-6.3936-7.2408-16.06-15.199-27.068-21.787-30.18-32.034-43.663-52.998-44.718z" fill="#0f141b"/>
  <path d="m58.535-155.42c-2.2626-10.36-3.5331-18.946-3.8706-25.712 19.349 4.0392 33.775 23.95 47.724 43.248 3.7386 5.1823 7.2752 10.088 10.887 14.634 2.2744 3.3915 4.4684 6.6555 4.4773 9.816 0.0228 3.0434-3.0051 5.872-7.5588 8.8222-14.874-2.2558-44.755-19.178-51.658-50.809" fill="#fff1ac"/>
  <path d="m117.71-113.94c-0.23097-3.0059-2.2818-6.097-4.4415-9.3085-3.6109-4.5485-7.1483-9.4514-10.887-14.635-13.944-19.31-28.375-39.209-47.724-43.248 0.33049 6.5577 1.5401 14.82 3.6706 24.748 14.402-8.3492 46.358 20.817 59.381 42.444" fill="#fff1ac"/>
  <path d="m137.09-114.29c1.3276 4.2978 26.33 4.5483 32.074 2.3311 8.3048-3.1846 4.3978-32.74 0.40505-34.034-6.8475-2.2064-34.734 24.394-32.479 31.703" fill="#0f141b"/>
  <path d="m140.95-115.4c-0.0231-6.6114 21.218-27.365 26.069-25.788 4.2006 1.365 5.729 24.408 1.4722 26.574-5.1297 2.6043-23.489 2.6575-27.525-0.60211-4e-3 -0.0288-0.022-0.0469-7e-3 -0.19693" fill="#fff"/>
  <path d="m147.31-103.97c-5.3582 4.375 2.0605 38.524 8.6316 45.021 4.01 3.977 44.34-21.96 43.156-29.911-1.3084-8.8612-41.545-23.455-51.787-15.109" fill="#0f141b"/>
  <path d="m157.62-62.471c-4.3588-1.0409-12.504-35.537-7.4711-39.617 7.6631-6.1898 45.017 6.6597 45.303 12.886 0.27631 6.0302-31.322 28.279-37.832 26.732" fill="#f6c8dd"/>
  <path d="m235.62-126.5c-6.8115-2.1156-23.255 21.617-24.979 27.404-3.684 12.38 23.409 19.593 28.561 16.283 7.3896-4.7517 3.1953-41.59-3.5822-43.687" fill="#0f141b"/>
  <path d="m220.89-88.288c-7.779-3.5008-7.8702-7.269-6.82-10.815 1.7648-5.9501 14.792-22.924 19.475-23.082 0.27817-0.016 0.7284 0.0302 1.2988 0.62581 2.9636 2.8861 4.6872 13.9 4.6081 29.439-0.0223 3.6302-0.824 5.9203-2.483 6.9668-3.3948 2.1759-10.809-0.74166-16.097-3.1228" fill="#fff"/>
  <path d="m137.96-73.602c-11.823-21.302-38.225-23.831-63.705 33.701-9.9965 12.333-13.073 20.869-13.402 28.067-1.1195 25.086 19.93 63.977 50.086 76.5 43.812 18.179 107.21 3.1465 117.26-28.685 7.5592-23.881 8.5262-51.425 2.1122-73.94-7.5052-26.328-24.961-30.931-44.236-22.355-5.9063 2.6255-27.817 17.495-32.902 15.805-5.0989-1.6901-12.27-23.783-15.221-29.093" fill="#0f141b"/>
  <path d="m186.95-56.788c19.797-9.3339 33.093-2.379 40.033 20.011 6.3542 20.557 5.3925 49.531-3.8095 73.586-9.7621 25.527-57.179 39.413-101.86 27.809-30.287-7.8743-59.308-46.55-56.281-77.74 0.90247-9.2416 4.1919-13.171 11.785-24.246 3.5165-5.1242 6.8886-15.16 12.585-24.189 19.015-30.153 38.937-27.018 46.816-8.9283 9.125 20.943 10.471 28.184 16.653 29.461 7.0315 1.4325 28.204-12.99 34.081-15.763" fill="#f6c8dd"/>
  <path d="m387.83 58.92c0.0319 7.0816-5.6788 12.839-12.758 12.87-7.0849 0.04244-12.838-5.6786-12.875-12.746-0.0275-7.0935 5.6694-12.856 12.751-12.887 7.0812-0.03207 12.851 5.6831 12.882 12.762" fill="#518aa4"/>
  <path d="m146.25-16.882c12.903 2.9977 16.638 8.4938 14.881 12.36-1.4364 3.2156-15.381 8.283-20.62 6.867-5.1065-1.366-12.221-12.276-11.588-16.604 0.34522-2.3615 2.5759-6.0409 17.326-2.6232" fill="#0f141b"/>
  <path d="m147.82-9.6759c-0.52409 1.6625-3.6411 2.2113-6.9921 1.1889-3.3513-1.0186-5.6513-3.1976-5.1543-4.8738 0.52408-1.6625 3.6411-2.2113 6.9921-1.1889 3.3513 1.0186 5.6634 3.2019 5.1543 4.8738" fill="#8a969d"/>
  <path d="m100.88 14.262s-0.25931-0.76706-0.49823-1.4722c4.6274 2.1576 8.1669 2.2015 12.416 2.0666 3.4275-0.10561 7.3022-0.22445 12.821 0.79683 9.2944 1.703 15.233 5.3199 20.982 8.8173 8.91 5.4201 16.747 10.126 33.909 5.3017-1.0374 0.73736-2.3596 1.6596-2.3596 1.6596-8.945 6.5083-21.218 15.422-31.48 17.226-23.94 4.2097-37.844-9.9794-45.794-34.396" fill="#ed8599"/>
  <path d="m100.38 12.785c0.24895 0.72049 0.49823 1.4722 0.49823 1.4722 0.55922 1.7122 1.1275 7.9583 1.888 9.8399 2.6922-3.6104 7.1347-6.9305 16.693-9.7851-3.3673 0.01455-15.229 0.28002-19.078-1.5252" fill="#922f00"/>
  <path d="m146.67 48.658c-23.662 4.16-37.505-9.6643-45.509-33.551 0.75803 0.26009 1.5421 0.48049 2.3557 0.6193 4.8903 0.86362 13.244-1.3555 22.1-0.07151 2.4114 0.43321 4.5881 1.0149 6.5998 1.6771 2.865 1.1149 11.643 6.3276 20.264 10.534 1.0408 0.53241 2.0974 1.0317 3.1769 1.5003 4.8441 2.2049 9.3866 3.8766 12.485 4.0408 2.817 0.14034 5.2859 0.07294 7.534-0.18333-8.6443 6.2462-19.649 13.78-29.005 15.431m49.885-26.885c-0.4504-1.2604-1.8457-0.51249-2.3535-0.20605-3.1669 1.9977-5.8319 3.5584-8.5893 4.7291l-0.06-0.04931c-2.2139 0.80562-4.2483 1.4272-6.1868 1.961-2.8523 0.55897-6.0968 0.80087-10.153 0.7449-14.065-0.20506-24.968-10.852-35.83-14.632-12.381-4.2874-23.044-1.9451-28.889-2.9766-10.764-1.8925-14.578-12.402-17.173-17.898-0.25463-0.54357-1.1594-1.9568-1.7645-1.8762-0.59849 0.094645-0.80656 1.2606-0.71071 1.8557 0.67365 4.6639 4.485 13.662 11.038 18.767 6.2586 21.429 20.084 37.237 30.793 39.961 20.222 5.153 41.067-6.5075 57.344-21.096 3.5511-1.5006 6.8968-3.6947 10.885-6.5201 0.5109-0.33646 2.0567-1.6291 1.6575-2.762" fill="#0f141b"/>
  <path d="m101.71 23.105 2.0963 1.9807c2.9211-4.6942 10.059-8.8643 19.647-10.513l-5.2518-1.874c-9.5568 2.0177-13.36 5.2808-16.492 10.407" fill="#0f141b"/>
  <path d="m128.96 194.2c8.5521 1.9713 13.685 16.005 9.1625 22.014-9.975 13.26-43.459 26.122-50.435 8.95-8.4551-20.783 26.03-34.477 41.272-30.964" fill="#f6c8dd"/>
  <path d="m136.6 216.9c-9.502 12.635-41.611 27.121-50.327 5.6944 20.02 10.489 58.305-14.612 50.327-5.6944" fill="#d5adbf"/>
  <path d="m105.63 275.07c8.6016 0.69733 17.012 9.5086 14.746 14.782-6.5398 15.217-37.18 37.332-48.302 20.237-11.111-17.049 13.916-36.625 33.557-35.02" fill="#f6c8dd"/>
  <path d="m120.37 289.85c-5.3178 12.379-36.374 39.806-49.928 19.003 18.525 5.7448 51.513-22.699 49.928-19.003" fill="#d5adbf"/>
  <path d="m9.7686 255.51c8.7001 1.1455 15.463 16.099 10.179 22.999-10.631 13.86-45.359 26.478-52.023 9.5834-7.3129-18.516 20.83-35.358 41.844-32.583" fill="#f6c8dd"/>
  <path d="m19.943 278.5c-10.619 13.864-45.947 29.052-53.052 6.8907 10.423 13.3 58.408-13.875 53.052-6.8907" fill="#d5adbf"/>
  <path d="m17.371 177.39c7.9446 0.38938 15.208 12.177 12.259 17.177-5.2426 8.9466-41.8 33.902-53.513 14.686-11.262-18.491 26.145-32.596 41.254-31.863" fill="#f6c8dd"/>
  <path d="m28.513 194.53c-4.9678 8.4562-40.56 35.367-53.937 13.393 24.751 6.4073 51.917-17.103 53.937-13.393" fill="#d5adbf"/>
  <g fill="#0f141b">
   <path d="m-25.209 193.64c-7.1053 12.157 0.12748 24.069 12.919 24.719 13.061 0.66506 34.882-11.643 41.925-23.781 1.6542-2.8605 0.58209-3.6611-1.5481-1.1518-9.0142 10.642-27.95 21.77-40.097 21.272-8.1126-0.34141-15.263-9.5609-9.7504-18.987 5.6815-9.7075 22.948-16.333 39.05-16.407 3.131-7e-3 3.1931-1.5757 0.07691-1.9216-16.921-1.8701-36.57 5.9935-42.578 16.256"/>
   <path d="m-32.184 270.02c-7.0363 10.494-3.6355 26.084 10.605 28.384 13.512 2.187 34.041-8.6388 42.207-20.124 1.6833-2.3713 0.52113-3.4496-1.4289-1.2877-7.7435 8.5358-27.067 19.633-39.762 17.577-9.7265-1.5714-14.089-13.941-8.5841-22.134 6.8855-10.26 24.636-15.269 39.174-15.649 3.2315-0.091 3.2413-1.5583 0.05284-1.9304-15.314-1.7971-35.013 4.347-42.264 15.161"/>
   <path d="m88.317 207.01c-8.4078 11.205-3.6142 25.721 9.8881 27.822 13.07 2.0426 33.624-8.7761 40.409-18.304 1.9382-2.7422 1.0021-3.5207-1.4891-1.2395-8.4149 7.8119-25.723 18.197-38.184 16.254-10.2-1.5912-14.069-13.96-7.7322-22.401 7.2783-9.679 24.923-13.71 37.555-13.036 3.2166 0.17599 3.3438-1.315 0.19581-1.9059-13.13-2.4457-32.858 2.4503-40.644 12.81"/>
   <path d="m69.045 293.15c-6.2494 13.964 3.6955 26.157 17.51 24.816 11.58-1.1204 27.672-11.864 34.23-27.816 1.2361-2.9846-0.0204-3.7702-1.6473-0.98535-7.9353 13.504-21.689 24.078-32.699 25.144-11.551 1.1175-18.067-10.424-13.926-19.702 4.5999-10.278 19.099-16.999 33.599-18.148 3.3216-0.26461 3.2981-1.565-0.0144-1.9274-15.631-1.719-32.154 7.6741-37.044 18.602"/>
  </g>
  <path d="m119.04-72.442c-14.699-3.535-29.375 26.046-30.703 40.143-0.40694 4.4241 29.418 15.015 34.51 10.734 5.7502-4.8506 13.571-46.702-3.8066-50.879" fill="#fff"/>
  <path d="m129.38-49.917c-1.7598-5.0711-3.7297-8.5435-7.252-9.0909-4.8643-0.74527-12.369 6.7513-14.784 15.129-2.4324 8.3856-2.3667 14.202-1.8863 20.265 2.8026 0.97564 11.244 3.0666 14.396 2.8923 3.1489-0.16368 4.1482-2.3546 5.1873-5.4937 1.0214-3.144 4.7747-17.092 4.3385-23.701" fill="#004da0"/>
  <g fill="#0f141b">
   <path d="m92.258-27.835c7.516 4.8337 20.187 7.3349 26.302 8.0387 3.5983 0.41149 5.4687-0.6975 6.8869-4.5765 8.5829-23.634 7.7237-45.909-5.8856-49.421-14.026-3.6105-26.633 14.985-31.605 38.883-0.74034 3.6038 0.92923 3.8073 1.6984 0.8872 6.8282-25.806 18.376-39.197 28.991-36.439 11.053 2.8765 12.546 23.513 4.7936 44.853-1.1323 3.0883-2.4007 3.9767-5.2495 3.6178-3.5617-0.43713-15.986-3.1644-23.868-7.103-3.821-1.9202-5.3875-0.89186-2.0585 1.2471"/>
   <path d="m106.43-24.166c-0.35853-20.131 8.4488-34.829 16.557-32.882 4.947 1.1994 5.6833 8.0012 5.304 14.851l0.83592-9.0597c-0.33321-5.529-3.0763-8.2244-5.7913-8.8777-9.4189-2.2695-21.242 15.07-18.782 35.275z"/>
   <path d="m122.37-36.607c1.6131-5.7031 2.1434-11.908-0.65915-12.854-3.0456-1.0247-6.4812 3.7214-8.4547 10.159-1.0672 3.4855-2.0284 10.989 1.3066 12.128 3.3277 1.1268 6.5192-4.8882 7.8073-9.4323"/>
  </g>
  <path d="m119.81-52.989c-2.095-1.3071-4.2758 0.66239-5.3963 2.8098-1.1266 2.1448-1.3093 5.4014 0.31928 6.1695 1.636 0.74788 3.5965-0.15336 5.0887-2.7565 1.5002-2.5855 1.2416-5.4399-0.012-6.2229" fill="#fff"/>
  <path d="m205.94-48.743c15.613 6.2434 11.93 37.539 3.4613 52.401-2.3308 4.0845-35.733-5.193-37.523-12.004-0.8182-3.1251 12.701-48.925 34.061-40.397" fill="#fff"/>
  <path d="m183.19-37.854c4.587-3.3086 7.7804-2.7977 11.167-1.1187 7.3453 3.6746 6.3555 31.512-6.251 40.058-3.0232-0.8609-11.869-4.4134-14.48-6.4909-2.6076-2.0841-1.9117-4.9202-0.90303-8.2751 1.0149-3.341 4.1751-17.295 10.467-24.174" fill="#004da0"/>
  <g fill="#0f141b">
   <path d="m204.04 3.6898c-9.5487-0.54599-24.515-7.1739-28.172-9.1283-2.6785-1.4366-3.2479-2.9735-2.3405-6.3518 8.7462-32.47 23.635-37.911 31.242-35.034 11.431 4.3327 14.176 22.84 4.8328 48.574-1.081 2.9862 0.26764 4.2698 1.9085 0.45737 8.0813-18.874 10.698-45.971-5.586-52.182-11.892-4.5385-26.626 6.3951-34.882 37.999-1.11 4.2381-0.18952 6.3282 3.176 8.178 5.0375 2.7691 18.229 8.8365 29.9 9.2866 3.3906 0.11451 2.911-1.635-0.0717-1.812"/>
   <path d="m188.11 1.0886c10.332-11.401 14.217-36.393 3.9365-39.277-5.509-1.5429-9.8641 3.1696-12.826 9.1528l3.9734-8.8157c3.2246-3.4041 7.4273-4.628 10.184-3.5204 11.544 4.5913 8.8758 31.793-3.3354 43.077z"/>
   <path d="m180.76-20.44c2.3917-6.8217 5.6187-10.856 9.1154-9.9747 3.6345 0.91878 3.1481 8.2917 0.92918 14.27-2.2093 5.9955-5.5287 10.683-8.9616 9.5498-3.4364-1.1273-3.0084-8.3368-1.083-13.845"/>
  </g>
  <path d="m189.26-34.088c-2.1616-1.4673-4.6658 0.45113-5.9644 2.673-1.2435 2.1453-1.7141 5.9821 0.13015 6.9929 2.1146 1.1779 4.5112-0.47986 6.217-3.1442 1.7223-2.6724 0.90319-5.6445-0.3825-6.5216" fill="#fff"/>
  <path d="m140.95-115.4c-0.0193-3.5908 6.255-11.367 12.761-17.468-8.5403 12.708-4.4231 17.26 3.0905 20.131-6.5248 0.16344-13.52-0.6111-15.836-2.4795-4e-3 -0.0288-0.022-0.0469-7e-3 -0.19692" fill="#dcdddd"/>
  <path d="m220.89-88.288c9.5902 0.35481 16.421-1.8665 18.077-17.589 0.34653 4.0089 0.51469 8.6287 0.48951 13.74-0.0223 3.6302-0.82401 5.9203-2.483 6.9668-3.3948 2.1759-10.809-0.74167-16.097-3.1228" fill="#dcdddd"/>
 </g>
</svg>
