<?xml version="1.0" encoding="UTF-8"?>
<!-- Created with Inkscape (http://www.inkscape.org/) -->
<svg version="1.1" viewBox="0 0 378.79 400.53" xmlns="http://www.w3.org/2000/svg">
 <path d="m340.22 168.55c-1.8235 0.97453-2.5318 7.5315-1.7029 11.519 0.72839 3.436 2.4966 5.4584 5.0133 5.6709 4.6617 0.40187 8.595 11.997 9.2505 14.957 0.97453 4.3402 1.4718 4.4457 3.5264 1.6828 2.2505-3.0642 3.4912-5.0329 5.8306-10.934 2.1098-5.2278 1.3463-16.445-2.4815-21.744-5.5649-7.6908-12.689-4.7873-19.44-1.1504" fill="#0f141b"/>
 <path d="m358.04 171.4c2.3409 3.225 3.3506 7.6556 3.3506 11.891 0 3.0492-0.53248 5.9718-1.4518 8.3112-1.4518 3.667-3.4561 6.3797-4.6617 7.7973-1.4869-4.2196-5.8301-15.01-11.572-15.506-1.3664-0.10047-2.356-1.08-2.9939-2.8734-0.50233-1.4367-0.69322-3.0994-0.69322-4.6968 0-2.9788 0.65806-5.689 1.1353-6.1496 7.1236-3.8278 12.422-4.943 16.888 1.2207" fill="#6cba5a"/>
 <path d="m358.04 171.4c2.3409 3.225 3.3506 7.6556 3.3506 11.891 0 3.0492-0.53248 5.9718-1.4518 8.3112-1.4518 3.667-3.4561 6.3797-4.6617 7.7973-1.4869-4.2196-5.8301-15.01-11.572-15.506-1.3664-0.10047-2.356-1.08-2.9939-2.8734-0.50233-1.4367-0.69322-3.0994-0.69322-4.6968 0-2.9788 0.65806-5.689 1.1353-6.1496 7.1236-3.8278 12.422-4.943 16.888 1.2207" fill="#5da24d"/>
 <path d="m172.34 297.07c-25.2 3.5264-41.149 12.015-50.063 20.096-10.349 9.3746-15.878 19.458-18.04 28.939-1.08 4.7822-1.8586 5.9014 2.6222 5.3343 37.215-4.6416 52.455-23.091 63.105-43.205 1.0448-1.9842 4.3753-8.6477 3.0642-10.827l-0.25117-0.40187z" fill="#0f141b"/>
 <path d="m171.92 298.56c0 0.0502 0.0352 0.10047 0.0352 0.20094 0 1.3312-0.88411 4.4105-3.225 8.8255-2.1249 4.0237-21.903 39.111-62.999 41.928 2.3208-17.828 24.012-44.782 66.189-50.931" fill="#007b36"/>
 <path d="m33.959 321.62c-1.6828 2.7478-3.2451 4.3402 1.296 4.943 33.033 4.4105 105.16-15.949 129.61-42.23l0.25117-0.3014-0.10047-0.40187c-1.5572-5.2986-9.5871-9.0908-22.027-10.597-45.083-5.4227-88.341 14.744-109.04 48.556" fill="#0f141b"/>
 <path d="m142.84 274.45c11.395 1.3111 19.033 4.7672 20.681 9.2686-10.721 11.235-34.025 22.701-64.151 31.473-26.139 7.6199-51.551 11.413-64.062 9.6052 24.933-42.815 79.037-53.642 107.53-50.347" fill="#007b36"/>
 <path d="m148.62 331.83c12.44-10.455 18.944-22.045 20.114-24.26 2.3409-4.4105 3.225-7.4959 3.225-8.8426 0-0.0502-0.0357-0.10047-0.0357-0.1507-28.318 4.1091-47.386 17.615-57.576 31.455 11.43-0.30141 22.843 0.40186 34.273 1.8084" fill="#00662a"/>
 <path d="m163.52 283.71c-1.6477-4.4808-9.2862-7.9389-20.681-9.2681-17.738-2.0546-45.455 1.3814-69.839 14.62 23.321 0.56764 46.872 3.7223 69.733 9.2686 9.02-4.7471 16.108-9.7117 20.787-14.62" fill="#00662a"/>
 <path d="m122.79 204.79c-5.8482 12.405-12.759 40.688 5.8834 61.599 1.2759 1.4367 1.9491 0.67313 3.6319-1.7883 16.02-23.392 16.481-49.549 9.995-63.602-2.0746-4.4658-5.157-6.9292-8.9315-7.1241-3.3305-0.1507-7.2839 3.9182-10.58 10.916" fill="#0f141b"/>
 <path d="m118.5 236.7c-0.95946-12.617 2.3409-24.508 5.5468-31.331 2.9588-6.2732 6.5922-10.243 9.2505-10.101 3.2803 0.1507 5.8658 2.2856 7.7264 6.3088 1.4015 3.0291 2.2706 7.0528 2.6222 11.661 1.1704 15.524-3.5616 37.746-13.716 51.498-7.4964-8.5061-10.704-18.483-11.43-28.035" fill="#007b36"/>
 <path d="m120.81 180.27c-19.919 1.9692-49.283 16.215-57.931 48.592-0.60281 2.2856 0.0357 2.1098 2.16 2.0746 27.255-0.56764 57.772-19.511 67.288-34.539 2.8533-4.5009 3.5465-8.4885 2.0395-11.82-1.5623-3.4912-6.3797-5.0133-13.557-4.305" fill="#0f141b"/>
 <path d="m120.95 181.66c6.4505-0.63797 10.863 0.63797 12.157 3.4912 1.291 2.8683 0.63797 6.4153-1.9491 10.491-9.2154 14.567-41.504 32.713-66.543 33.635 7.0176-28.141 37.055-45.721 56.336-47.617" fill="#007b36"/>
 <path d="m143.64 213.23c-0.35164-4.6064-1.2207-8.6301-2.6222-11.66-1.8436-4.0237-4.4457-6.1315-7.7088-6.3088-2.6775-0.15071-6.2913 3.8278-9.2505 10.119-2.2354 4.732-4.5009 11.909-5.3695 20.078 7.9565 2.2505 15.931 4.6265 23.888 6.8052 1.1353-6.7519 1.4869-13.344 1.065-19.033" fill="#00662a"/>
 <path d="m133.1 185.15c-1.2759-2.8533-5.706-4.1091-12.157-3.4912-5.8658 0.58271-12.742 2.6222-19.653 5.9718 3.1547 8.6482 7.4074 16.906 10.757 25.2 8.6126-5.4579 15.577-11.589 19.104-17.172 2.587-4.094 3.2451-7.6199 1.9491-10.509" fill="#00662a"/>
 <path d="m120.84 191.75c-16.268 9.3927-36.01 29.684-33.954 66.792 0.20093 3.014 0.72838 3.4209 2.6071 2.376 28.744-16.02 45.047-44.286 46.997-61.901 0.50233-4.3251-0.40187-7.425-2.5669-9.1973-2.6071-2.1098-7.2477-1.4367-13.078 1.934" fill="#0f141b"/>
 <path d="m88.548 255.69c-2.16-28.531 17.845-53.997 32.979-62.733 5.2102-2.9939 9.4103-3.7374 11.501-2.0395 1.2609 1.0097 1.9842 2.6423 2.145 4.8576 0.0502 0.91928 0.0357 1.9491-0.10047 3.0844-1.8787 17.065-24.42 48.981-46.129 60.359-0.1507-1.1704-0.3014-2.356-0.40187-3.5264" fill="#007b36"/>
 <path d="m128.1 217.81c3.863-7.0352 6.4148-13.698 6.982-18.944 0.10046-1.1353 0.1507-2.16 0.10046-3.0994-0.1507-2.1952-0.88411-3.8278-2.145-4.8576-2.0897-1.7029-6.2908-0.95444-11.501 2.0546-3.3656 1.9491-6.982 4.732-10.544 8.1871 4.9631 6.2912 10.615 12.104 17.119 16.658" fill="#00662a"/>
 <path d="m325.87 200.4c-1.5773 2.0194-1.3312 5.9014 0.65304 10.952 7.5672 19.104 17.296 32.412 49.726 40.954 3.1898 0.83388 2.8332-0.99462 1.8436-5.0133-7.2125-29.169-25.856-44.285-40.848-48.946-5.1389-1.5924-9.0732-0.88411-11.377 2.0546" fill="#0f141b"/>
 <path d="m336.84 199.68c14.425 4.4859 37.534 28.071 39.465 50.594-24.313-4.2347-42.939-25.483-48.467-39.43-1.065-2.6925-1.6125-5.0133-1.6125-6.8046 0-1.1855 0.25117-2.145 0.74346-2.7829 2.4112-3.0843 6.6986-2.572 9.8709-1.5773" fill="#007b36"/>
 <path d="m308.71 202.61c-9.8357 17.314-10.793 50.577 6.5565 69.291 3.225 3.4912 2.8382 4.5713 4.521 1.507 10.562-19.086 14.425-55.503 7.2125-71.506-1.8787-4.1995-4.4457-6.6454-7.6199-7.2477-3.5264-0.67313-7.4074 2.2354-10.668 7.9565" fill="#0f141b"/>
 <path d="m303.54 231.11c0-11.164 2.6574-21.248 6.3792-27.804 2.9437-5.1751 6.2913-7.8154 9.1978-7.2658 2.6925 0.51238 4.9279 2.6774 6.6097 6.4505 2.376 5.263 3.4711 12.848 3.4711 21.319 0 16.321-4.1091 35.85-11.129 48.255-10.597-12.37-14.532-27.45-14.532-40.954" fill="#007b36"/>
 <path d="m336.84 199.68c-3.1697-0.9896-7.4612-1.507-9.8709 1.5773-0.50233 0.63797-0.74345 1.5924-0.74345 2.783 0 1.7883 0.54754 4.1091 1.6125 6.8046 2.356 5.9547 7.106 13.238 13.663 19.954 4.1995-7.0528 7.957-14.514 9.9593-22.382-5.1213-4.2699-10.261-7.3894-14.62-8.7366" fill="#00662a"/>
 <path d="m329.21 223.81c0-8.4704-1.1001-16.055-3.4712-21.319-1.7029-3.7725-3.9182-5.9366-6.6102-6.4505-2.9085-0.56764-6.2556 2.0897-9.1973 7.2658-3.7374 6.557-6.3797 16.64-6.3797 27.805 0 6.9468 1.0449 14.301 3.4912 21.496 6.8227-3.2099 13.751-5.9898 20.486-9.5519 1.1001-6.5037 1.6828-13.096 1.6828-19.246" fill="#00662a"/>
 <path d="m321.86 198.21c-2.356 0.6229-3.8831 3.7575-4.4306 9.1089-2.0043 19.972 5.0329 51.356 32.022 66.933 4.305 2.4815 4.8576 3.1898 5.1926 0.35163 3.7374-31.828-6.6635-57.984-21.213-71.825-4.094-3.8831-8.0811-5.4584-11.572-4.5562" fill="#0f141b"/>
 <path d="m318.64 211.44c0-1.4367 0.0502-2.7628 0.20094-3.9886 0.4521-4.5009 1.718-7.4607 3.3857-7.8862 2.9939-0.77862 6.5394 0.67313 10.261 4.2196 11.076 10.526 21.283 36.648 21.283 59.012 0 3.863-0.35164 7.6028-1.0097 11.129-24.863-12.759-34.096-45.066-34.096-62.486" fill="#007b36"/>
 <path d="m343.33 219.65c-3.2602-6.6273-7-12.192-10.864-15.878-3.7223-3.5264-7.2653-4.9782-10.261-4.1995-1.6678 0.40187-2.9236 3.3656-3.3857 7.8857-0.10047 1.2056-0.20094 2.5519-0.20094 3.9886 0 6.6278 1.3463 15.417 4.3754 24.473 7.6024-4.1995 15.01-9.2148 20.309-16.268" fill="#00662a"/>
 <path d="m315.67 167.34c-2.6423 2.3911-3.652 10.119-3.652 20.823 0 3.5113-15.223 28.886-27.308 46.518-1.2759-3.014-4.0589-9.4987-5.6181-12.618-1.9692-3.9333-5.1922-14.195-9.0732-25.377-2.356-6.8403-7.3899-8.2755-15.949-7.3894-2.2153 0.25117-3.9182 1.6125-4.943 3.9685-0.74346 1.7029-1.1001 3.8831-1.1001 6.2908 0 5.813 2.0395 12.883 5.387 17.367 5.37 7.1417 17.438 23.976 20.132 34.716-3.2953 5.7417-2.9437 10.296-1.9139 10.916 1.7381 1.0449 4.7672 0.56764 8.3468-1.7381 7.1412-4.5712 30.498-18.289 52.136-55.007 1.9139-3.2099 4.2548-5.6176 5.5995-6.7871 0.50234 0.81379 1.1704 2.1801 2.1801 4.1845 1.0097 2.0194 1.1704 0.84895 3.014-1.8436 8.0459-11.732 6.3621-26.795 0.50233-36.187-1.9139-3.0642-3.014-3.8479-7.2477-4.2699-7.4255-0.76355-18.2 4.3603-20.486 6.4324" fill="#0f141b"/>
 <path d="m285.31 237.17c4.4808-6.3083 28.992-44.037 28.992-48.574 0-5.387 1.0298-16.977 3.4008-19.352 1.8988-1.8988 11.643-7.3547 18.2-6.5037 2.2304 0.3014 3.7926 1.2558 4.7672 2.9437 3.3506 5.7593 5.0133 11.519 5.0133 17.243 0 5.6352-1.6828 11.218-4.9078 16.729-0.77862-1.4166-0.54755-1.6276-2.2153-4.3251-2.5167-4.0237-2.1801 0.20093-2.1801 0.20093-0.20094 0.1507-3.014 4.7119-5.8482 9.3394-19.919 32.571-44.498 49.885-51.551 54.405-3.2099 2.0546-5.6533 2.356-6.3445 1.6125-0.54754-0.61788 0.81379-5.9899 2.9236-9.0556 2.0897-3.0843-0.67313-1.3463-0.67313-1.3463-2.8533-13.734-14.478-27.327-19.972-34.663-4.3402-5.7769-6.3616-16.569-4.074-21.797 0.74346-1.718 1.8988-2.6925 3.4209-2.8533 5.2102-0.54755 11.112-1.1704 14.549 8.7723 3.8831 11.253 6.238 19.351 8.2584 23.392 2.0043 4.0036 6.3616 11.572 6.3616 13.238-2.5167 3.5264-2.6071 6.9287 1.8787 0.61787" fill="#6cba5a"/>
 <g fill="#5da24d">
  <path d="m268.8 199.93c-3.436-9.9412-9.3389-9.3213-14.532-8.7718-1.5221 0.1507-2.6774 1.1152-3.436 2.8533-2.2706 5.2278-0.25117 16.02 4.0739 21.797 3.2602 4.3251 8.6306 10.864 13.096 18.306-5.6533-10.066-1.7883-29.222 0.79872-34.184"/>
  <path d="m278.97 259.26c7.0533-4.516 31.633-21.833 51.552-54.404 2.8332-4.6265 5.6704-9.1978 5.8477-9.3394 0 0-0.10047-1.7029 0.40186-1.8787-1.6828-3.1195-4.4859-4.9631-6.8227-7.8862 1.0298 14.053-37.268 60.696-51.002 73.508"/>
  <path d="m341.52 167.25c4.5562 18.696-1.7532 27.468-2.9588 28.089 1.6678 2.6925 1.4367 2.9035 2.1952 4.3251 3.2451-5.5111 4.9279-11.093 4.9279-16.729 0-5.2097-1.4015-10.438-4.1644-15.683"/>
 </g>
 <path d="m327.33 185.29c2.572 1.7029 8.8431 8.9315 9.888 12.564 0.67313 2.3409 3.9684 3.2803 3.9684 3.2803-2.1249-8.8256-10.385-15.79-13.167-17.013-2.7829-1.2207-2.1952 0.1507-0.69322 1.1704" fill="#0f141b"/>
 <path d="m203.29 84.862c-3.7223 8.2408-7.4607 21.602-7.4607 29.294 0 5.1746 1.1152 8.9667 4.5009 12.493 8.0454 8.3292 19.759 27.627 19.759 46.838 0 7.6199-4.0589 16.374-8.1162 23.233-4.094 6.8936-20.327 28.584-28.584 37.25-1.4166 1.4869-4.8928 3.014-9.2862 4.943-8.5593 3.7374-21.903 8.8964-30.161 18.785-13.504 16.232-30.463 51.551-31.03 59.898-0.35164 5.3167 8.7015 12.104 13.663 15.825 4.9631 3.7223 12.919 11.785 15.559 15.064-4.8375 0.88411-22.665 3.2802-32.288 4.305-13.308 1.4367-21.106 5.157-25.076 13.38-1.296 2.6925-1.6125 7.3366-0.45211 10.721 1.3463 3.9534 2.4464 4.2347 5.3162 1.5422 3.863-3.6168 9.5876-5.8482 14.869-6.0783-3.9182 2.7478-8.8255 4.521-10.367 11.342-1.1353 4.9782 2.587 15.222 6.3445 16.729 3.0994 1.2408 6.4857-8.8431 10.455-12.121 3.9684-3.2802 47.104-27.043 53.466-28.744 12.688-3.3656 18.412-5.8834 18.129-8.6126-0.35164-3.225-10.172-4.4457-19.139-4.0237-1.7883-2.6071-8.9672-11.678-11.466-24.42 6.2913-6.5389 67.873-24.384 106.72-13.22 1.2207 1.4869 5.7236 7.195 6.5389 17.225 0.10047 1.3111 0.40187 4.2548 0.15071 5.6352-3.4008 3.9182-9.1797 11.342-11.377 15.329-1.3463 2.4614-2.9939 8.701 0.4521 10.313 3.436 1.6125 7.1769-0.91927 11.306-4.1794 8.0102-6.3088 30.179-16.534 40.936-19.246 6.2556-1.5773 35.425-7 39.785-7.8329 3.6872 2.1801 14.372 11.2 14.124 0.74346-0.25117-10.881-6.8579-17.208-14.124-18.005-9.8709-1.065-22.595 3.3305-31.154 6.0783 11.554-7.9213 16.924-11.43 20.769-11.43 10.828 3.0642 17.137 3.8429 13.185-5.3695-3.9684-9.2154-11.413-14.886-21.389-12.387-9.5168 2.376-31.384 23.126-44.002 34.344 2.2153-7.4431 10.704-29.701 7.1417-40.156-2.376-7.0001-9.038-12.228-30.339-14.035 3.2099-11.041 4.0388-20.858 3.5817-31.314-0.72839-16.144-3.9685-30.817-7.0176-44.304-2.5669-11.306-4.9982-22.01-4.9982-31.987v-0.69322c2.1249-1.1504 4.0589-3.3154 4.1292-3.4008 1.8084 1.934 4.7471 1.9491 6.7695 0.91928 7.6908-3.8981 16.498-17.473 14.744-41.928-1.8988-26.546-11.147-38.349-19.724-38.685-3.2099-0.10047-6.4862-0.0502-8.7015 0.10047-5.0133 0.4521-9.9417 0.56764-23.605-3.0844-9.9061-2.6423-17.951 2.783-22.524 12.901" fill="#0f141b"/>
 <path d="m215.98 196.5c14.815-24.987-1.4367-59.26-12.989-71.239-7.7088-7.9927-3.3858-22.861 1.8586-36.364 5.1213-13.167 11.218-17.473 21.07-14.851 13.982 3.7374 18.678 3.3154 23.658 2.8533 2.16-0.20093 4.3753-0.40186 7.4607-0.25116 9.7644 0.40187 16.551 14.336 18.2 37.303 2.16 30.374-10.243 37.747-12.742 38.916-2.6071 1.2207-4.732 1.3312-9.0908-5.1037l-1.9139-3.0994-0.3014-0.10047c-12.334-4.8928-27.769-18.572-34.114-26.422-1.8586-2.3057-6.344-5.5644-6.344-4.5361 0 1.0097 0.93937 2.1098 4.7119 5.2986 1.5773 9.144 10.048 23.41 16.676 28.69 8.5061 6.77 16.906 7.6029 20.876 7.5496-0.6028 0.56764-1.3312 1.1353-2.1098 1.4518l-0.54755 0.25117-0.0176 0.60281c0 0.40186-0.0176 0.84894-0.0176 1.296 0 10.19 2.4614 20.982 5.0505 32.377 3.0291 13.379 6.3088 27.84 6.3088 43.842 0 9.9593-1.2558 20.521-4.6617 31.757l-0.35164 1.1152 1.1504 0.10047c21.159 1.5422 26.422 6.6986 29.612 11.04 1.4518 2.0043 1.8436 5.8658 1.6678 9.8885-0.30141 7.8681-4.4457 22.843-8.0278 34.29 0 0-2.2153 1.5924-4.6265 4.094-2.4263 2.4966-2.3057 3.5465 1.2408 0.93937 6.7343-4.9782 41.681-36.79 50.967-39.111 9.5519-2.3911 16.109 4.0237 18.838 10.261 1.0097 2.3057 1.929 6.2908-9.4635 2.4263-1.065-0.35164-4.8576-1.6678-6.5389-2.0043-1.6678-0.35164-6.6986-0.67313 1.6828 2.6774-6.876 1.3463-15.453 8.6834-23.57 14.868l1.7732 1.3111c6.8227-2.2856 24.952-8.3644 36.453-7.1241 6.663 0.72839 11.182 10.881 10.827 15.914-0.35164 5.0133-8.5593-0.67313-11.235-3.014-2.6925-2.356-3.863-3.1898-5.1922-3.1898-1.3463 0 2.8332 3.014 2.4966 3.6872-1.4015 0.40187-30.569 5.0862-37.268 6.7695-10.916 2.7478-36.187 14.904-44.339 21.337-3.7223 2.9437-6.4148 3.3857-7.425 2.5368-0.95946-0.81378-1.6678-3.0994 0.50233-7.0357 2.1952-3.9885 7.1769-10.154 8.6834-11.66 1.507-1.507 3.7726-4.1292 4.1292-4.9078 0.83388-1.8436-1.8436-0.50234-1.8436-0.50234 2.3409-12.228-4.521-20.947-7.0352-24.296-2.5167-3.3506-3.863-4.0237-5.1926-4.3603-3.2099-0.79872 1.8436 4.1794 1.8436 4.1794-40.865-11.908-92.133 6.4862-104.56 12.068-3.3506 1.507-8.5593 4.521-8.7186 6.5394-0.10047 1.3463 5.706-1.6828 5.706-1.6828 0 7.2658 12.245 23.747 13.22 24.987 0.91928 1.1855 1.8436 1.2609 2.0194-0.0176 23.127-0.35164 18.767 4.1794-0.56764 8.9491-6.8046 1.6828-49.637 25.022-54.28 28.39-5.7944 4.2196-7.301 11.413-9.1973 10.597-2.1952-0.95444-4.6265-9.3389-3.4209-13.77 1.065-3.9182 6.0431-7.3718 10.048-10.154l0.50233-2.3409c-6.5213-0.65806-14.673 1.296-19.175 6.5746-1.6276 1.9139-3.4912-4.6265-1.1704-9.4454 4.6617-9.6408 14.159-11.413 25.2-12.583 11.519-1.2408 31.402-4.9631 31.597-4.9982 0 0 1.4367 1.5422 2.7628 2.0043 1.3111 0.4521 1.08-1.1504-1.929-4.6617-3.014-3.5264-11.501-12.972-16.888-16.516-3.1748-2.0746-12.653-6.8046-12.228-15.027 0.35163-6.7519 18.289-41.326 31.331-56.974 7.957-9.5695 19.44-14.585 27.805-18.253 4.5914-2.0043 8.2227-3.5967 9.9061-5.3519 8.3116-8.7366 27.114-31.792 31.243-38.757" fill="#6cba5a"/>
 <g fill="#5da24d">
  <path d="m252.71 98.362c-0.65303-7.2301-2.2505-14.46-4.1141-21.372-4.6617 0.40187-9.6228 0.53248-22.683-2.9437-0.1507-0.0352 14.319 6.238 26.795 24.314"/>
  <path d="m254.95 302.74c1.3463 0.35164 2.6774 1.0097 5.1922 4.3603 2.1801 2.9035 7.638 9.8528 7.5139 19.653 2.3057-7.0176-7.195-27.521-10.083-28.177-11.98-2.7628-50.967-1.4367-79.551 11.537 21.797-5.9542 52.455-10.863 78.771-3.1898 0 0-5.0329-4.9782-1.8436-4.1845"/>
  <path d="m157.64 345.34c2.1952 1.4166 2.2153 1.3814 3.5415 1.718-3.3506-4.7119-11.962-17.154-11.962-23.215 0 0-3.5817 1.8637-5.0505 2.0043 2.2354 7.7264 11.271 18.076 13.468 19.493"/>
  <path d="m176.59 349.36c1.9842 4.4658-15.984 5.3876-31.331 13.521-15.364 8.1519-37.02 18.289-39.944 23.658-1.8436 3.4209-3.0642 7.9922-4.8928 10.207 1.8787 0.81378 3.3857-6.3797 9.1973-10.597 4.6416-3.3656 47.476-26.706 54.28-28.39 14.656-3.5967 20.681-7.0709 12.689-8.4001"/>
  <path d="m93.806 369.8c-4.9078 2.7628-6.5038 8.4885-5.4403 7.2658 3.7223-4.3753 13.893-7.106 19.883-6.6454 5.9014-2.7478 12.583-4.4658 12.583-6.1491-12.831 0.79872-22.116 2.7628-27.025 5.5287"/>
  <path d="m305.54 322.65c-0.35163-1.507 4.8224-6.4857 11.554-11.129 5.7065-4.3402 11.325-8.1871 16.109-9.1089-8.3825-3.3506-3.3506-3.014-1.6828-2.6925 1.6828 0.35163 5.4755 1.6678 6.5389 2.0194 9.1797 3.0994 10.367 1.1152 9.9417-0.97453-5.6709 1.9139-14.797-7.1417-21.319-3.4008-21.443 13.043-54.599 40.936-62.078 48.929-7.4959 7.9746-3.5817 8.3468-1.4518 6.663 8.1343-6.4148 33.404-18.572 44.339-21.319 6.6986-1.7029 35.868-6.3616 37.268-6.7695 0.35163-0.67313-3.8429-3.6871-2.5167-3.6871 1.3463 0 2.5167 0.83388 5.1922 3.1748 2.6925 2.356 10.899 8.0454 11.253 3.014-3.5465 3.7725-8.4885-10.881-20.858-10.048-12.157 0.83388-27.468 2.8332-32.288 5.3338"/>
  <path d="m255.31 150.31c3.1346 3.7926 4.9982 3.5817 7.195 2.5519 2.16-1.0097 11.625-6.6273 12.848-27.521-2.0194 10.597-11.076 30.073-20.043 24.969"/>
  <path d="m171.82 256.92c21.957-12.901 39.395-35.159 40.493-55.06-7.0885 9.676-20.805 26.281-27.574 33.387-1.6828 1.7732-5.3167 3.3656-9.9061 5.3695-8.3825 3.667-19.848 8.6834-27.805 18.235-4.0388 4.8375-8.5417 11.483-12.83 18.554 17.189-15.719 21.779-11.183 37.622-20.486"/>
 </g>
 <path d="m215.1 117.98c-2.9085 8.0635-1.7532 12.919 1.8787 21.673 2.6574 6.4329 7.425 15.896 9.6228 27.114l0.0502 0.35163c2.7628 13.787 4.943 24.668-5.476 42.655-8.8431 14.443-19.352 23.924-27.291 31.827-5.8482 5.813-10.81 10.545-15.382 17.349-5.5644 8.276-6.2556 20.185-1.7883 29.346 4.9631 10.207 15.577 16.463 28.957 17.438 26.103 1.8787 45.101-17.438 53.873-38.012 0 0 4.1141-21.159 4.1141-31.668 0-17.331-3.9886-34.29-7.6913-55.095-1.3463-7.638-2.7478-15.506-3.9333-23.144 2.0897-1.1152 3.667-3.2803 3.7374-3.3858l-0.67313-1.1001c-0.10047 0.0176-11.093 1.5924-21.939-7.0533-4.6968-3.7374-14.39-15.878-16.268-26.99z" fill="#0f141b"/>
 <path d="m206.2 303.85c-12.866-0.91927-22.559-6.8046-27.308-16.551-1.8586-3.8278-2.783-8.0278-2.783-12.21 0-5.37 1.507-10.686 4.4859-15.099 4.5009-6.6986 9.9769-12.157 15.789-17.916 25.856-25.696 34.698-40.44 34.698-56.548 0-11.2-5.0133-29.577-11.359-44.923-2.5519-6.1496-4.4808-10.828-4.4808-15.683 0-1.2408 0.20094-2.5167 0.4521-3.8127 2.9437 10.916 11.023 22.417 15.595 26.068 8.8788 7.0704 18.678 7.8324 22.294 7.7083-0.65806 0.69322-1.5773 1.4869-2.587 1.9139l-0.50234 0.20093-1.1504 0.35164c1.6828 10.845 3.9886 20.256 4.8375 25.04 3.5465 20.007 7.6024 39.235 7.6024 56.832 0 10.349-1.2558 19.724-4.521 27.468-7.7088 18.271-25.714 38.969-51.073 37.144" fill="#e9545d"/>
 <path d="m256.25 193.81c-0.69323-3.7725-1.3814-7.5667-2.0546-11.412-0.83388-4.6064-2.9939-13.504-4.6416-23.818-4.3954 0.91927-9.0024 1.296-13.628 1.296 6.6278 3.2803 13.415 10.686 20.327 33.936" fill="#c94850"/>
 <path d="m206.2 303.85c18.536 1.3463 33.121-9.3565 42.655-22.346-26.068 20.575-46.855 20.77-61.351 16.038 4.9631 3.5967 11.306 5.7769 18.696 6.3083" fill="#c94850"/>
 <path d="m191.7 244.77c-2.4614 2.4966-5.3519 5.494-8.0987 8.8607l-0.40187 0.4521 0.40187 0.4521c17.615 18.625 34.361 23.091 46.571 22.665 14.354-0.51238 26.316-7.4431 28.248-9.8001l0.0502-0.10047 0.0357-0.10046c1.6125-3.8479 2.8332-8.2936 3.5967-13.202l0.3014-1.7732-1.4015 1.1152c-18.962 15.045-51.516 10.952-68.316-8.5769l-0.50233-0.56764z" fill="#0f141b"/>
 <path d="m192.2 246.27c16.977 19.104 46.784 25.767 68.28 9.2505-0.74346 4.0589-1.7883 7.7978-3.1547 11.058-1.929 2.2505-11.838 7.6908-25.643 8.1695-11.82 0.40187-29.471-2.8734-46.589-20.716 2.4112-2.9085 4.9078-5.5292 7.106-7.7621" fill="#6cba5a"/>
 <g fill="#0f141b">
  <path d="m105.83 370.93s-6.8755 7.0357-0.67313 3.014c6.2023-4.0237 19.511-9.9774 22.293-12.405 2.7628-2.4112 2.3057-3.9182-0.53247-1.6125-2.8181 2.2856-4.8224 3.5465-21.089 11.005"/>
  <path d="m300.65 325.99c-1.8084 2.0546 0.53248 1.2056 3.3858-1.291 2.8533-2.5167 6.6278-5.4935 9.7112-7.5491 0 0 1.9139-4.29-2.4966-1.0097-4.4306 3.2953-8.7894 7.7973-10.597 9.8528"/>
  <path d="m95.486 160.04c-5.6528 7.7797-2.8332 21.833 0.54754 26.635 1.5773 2.2505 1.7029 1.934 2.8533-0.50233 5.4584-11.377 15.63-12.653 15.701-12.618l2.2002-17.26c-10.651-2.2856-17.827-1.0298-21.301 3.7374"/>
 </g>
 <path d="m94.788 172.38c0-3.8077 0.86904-7.7084 3.1697-10.881 3.6319-5.0133 12.069-4.5713 18.838-3.225-0.20094 1.4718-1.5422 12.37-1.7381 13.911-12.245-1.5924-16.924 11.537-17.349 12.264-0.45211 0.74346-2.9236-7.3014-2.9236-12.069" fill="#6cba5a"/>
 <path d="m104.42 157.78c-0.74346 7.4255-4.074 14.39-8.8964 20.362 0.77862 3.5967 1.9139 6.7871 2.1801 6.3264 0.40186-0.74346 5.1037-13.876 17.349-12.281 0.20093-1.5422 1.5572-12.44 1.7381-13.911-3.9886-0.79872-8.5417-1.2609-12.37-0.50234" fill="#5da24d"/>
 <path d="m211.15 213.32-26.529 36.347s0.50234 4.4306 4.4306 9.3394c3.9182 4.9078 0 5.9009-3.436 4.9078-3.436-0.97453-4.9279-2.9437-20.149-16.215-15.222-13.255-33.404-49.602-38.809-57.47-5.4051-7.8505-7.744-11.838-7.744-11.838s-2.3911 3.8981-2.9939 6.0431c-8.7366-8.7366-8.0811-25.377-3.6671-31.26 4.4306-5.9014 12.653-5.9899 20.521-4.0237 7.8505 1.9692 14.549 8.3111 16.481 21.336 1.1001 7.425 12.777 51.675 22.595 62.981 9.3389-8.3644 28-32.926 31.455-39.306 3.436-6.3797 13.681-11.873 19.157-6.3797 5.4584 5.476-11.306 25.536-11.306 25.536" fill="#6cba5a"/>
 <path d="m139.08 190.81c-4.3603-12.635 0.3014-19.954-1.1001-22.453-4.3603-7.8505-13.149-11.749-18.093-8.2936-9.5876 6.77-4.9782 23.375-3.9685 24.367 0.6028-2.1249 2.9939-6.0426 2.9939-6.0426s2.3409 3.9886 7.744 11.856c5.4051 7.8505 23.587 44.215 38.809 57.47 15.223 13.256 16.711 15.223 20.149 16.215 1.9692 0.54754 4.094 0.4521 4.8224-0.63797-2.8533-1.4869-5.4584-3.3858-7.6199-5.5463-17.775-15.861-35.903-44.215-43.736-66.934" fill="#5da24d"/>
 <g fill="#0f141b">
  <path d="m110.2 152.5c-4.1995 5.6-4.9078 22.666 4.29 32.182 2.145 2.2153 2.2505 1.7029 2.9236-0.10047 0.40186-1.1001 0.76355-2.3208 1.507-3.6168 1.1001 1.7732 3.3506 4.5361 6.9644 9.7996 1.3664 1.9842 3.5817 5.8306 6.3621 10.721 8.4352 14.709 17.934 34.663 29.382 44.623l12.103 10.101c7.2839 6.4681 9.1621 8.063 11.962 8.825 7.5667 2.0546 5.2811-4.5562 4.4457-6.3264-1.7381-3.652-4.3402-7.744-4.5361-8.8075 0.4521-0.61788 24.207-33.139 26.298-36.028 2.0897-2.8884 1.2207-4.8727-1.507-1.1001-2.7277 3.7725-24.42 33.476-26.6 35.992-1.4518-1.507-2.0043-0.0352-0.67313 1.6828 1.2207 1.5773 2.6774 4.3603 4.732 7.7973 2.376 3.9886-0.10047 5.3162-2.0043 4.7822-2.3911-0.69322-3.863-1.9842-10.881-8.2052l-8.8964-7.8148c-11.218-9.7644-24.349-32.731-32.217-46.466-2.798-4.9078-5.0329-8.7894-6.4329-10.845-5.3162-7.7264-7.6908-11.749-7.7264-11.784 0 0-0.20093-5.4051-1.5974-1.7883-1.4015 3.6319-2.1249 6.3088-2.5167 6.5213-0.40187 0.25117-5.7236-7.5139-5.5287-16.889 0.10047-5.1037 1.1855-9.6936 2.9437-12.032 4.4658-5.9547 13.078-5.2811 19.529-3.6671 6.0426 1.507 13.663 6.3088 15.789 20.575 1.0097 6.7871 7.6024 39.961 18.997 58.551 3.6168 5.9014 5.0329 7.3723 5.5292 8.0454 0.99463 1.3111 3.5465 2.1249 0.1507-2.8533 5.9009-4.5712 27.627-33.298 31.101-39.767 2.1098-3.9182 6.6811-7.2653 10.863-7.9746 1.8586-0.3014 4.8928 0.35163 6.8408 1.8235 1.9692 1.4718 3.6168 0.81378 1.2759-1.3664-2.356-2.1801-5.813-3.7575-9.0913-3.2099-4.7873 0.81378-9.2505 4.4306-11.643 8.8607-3.2602 6.0607-20.964 30.516-30.375 39.324-9.7644-12.388-20.822-55.149-21.814-61.724-2.2706-15.276-10.845-21.017-17.438-22.648-10.03-2.5167-18.501-0.56764-22.524 4.8023"/>
  <path d="m118.11 176.13c-2.1098 5.9366-0.77862 6.9649 0.3014 4.3251 2.9035-7.0352 7.4431-10.562 12.245-10.792 1.5422-0.0502 3.4561-0.77862 0.0502-1.4015-6.5927-1.1855-11.076 3.5817-12.6 7.8681"/>
  <path d="m223.33 98.179c0.6028 0.72839 1.6276 1.6125 1.6276 1.6125-3.0994 5.3338-2.9788 13.379 0.20093 17.916 4.0388 5.7944 11.129 8.506 16.481 7.7083 0 0 0.56764 1.6477 1.3463 1.6828 0.35163 0 0.54754-0.76355-0.0181-3.9534-2.376-13.468-10.473-22.825-19.174-25.891-1.0298-0.35163-1.2207 0-0.45211 0.91928"/>
 </g>
 <path d="m226.68 116.32c-2.8533-4.0589-2.6423-9.7996-0.4521-15.984 9.9593 6.3088 13.787 16.179 15.205 23.729-5.6176 0.54755-10.845-2.16-14.762-7.7445" fill="#fcd13e"/>
 <path d="m234.19 106.84c-2.1098 12.264 1.5974 16.038 3.1547 16.18 2.0194 0.20094 3.3506-4.6767 3.6319-5.6709l-0.0181-0.40187c-1.3814-3.7926-6.7695-10.083-6.7695-10.083" fill="#0f141b"/>
 <path d="m236.8 110.84c0.69323 1.1704 1.3463 2.2706 1.7029 3.7575-0.20093 2.5368-0.99462 3.014-1.3312 2.8181-0.54755-0.3014-1.0097-2.7277-0.35163-6.5746" fill="#fff"/>
 <path d="m244.3 100.49c1.507 3.4561 3.1195 10.279 3.3656 13.007 0.25117 2.7277 1.2408 3.7022 1.1504 0.25116-0.25117-7.744-1.929-11.926-2.9939-13.663-1.065-1.7381-3.0291-3.0291-1.5221 0.40186" fill="#0f141b"/>
 <path d="m114.85 2.087c-34.787 6.9116-75.794 32.927-99.505 82.776-26.795 56.283-16.321 122.4 14.638 180.28 2.8181 5.263 3.1195 4.943 2.376-0.79872-3.1195-23.835-5.263-59.171-2.9788-92.186 2.798-40.192 13.77-74.057 32.607-100.64 16.109-22.719 38.278-36.754 65.835-41.202 24.633-3.9886 48.999-0.40187 68.457 11.483 34.114 20.805 48.166 41.113 57.258 59.969 0 0 1.2759 2.2153 1.3312-0.25116 0.58271-28.23-9.9242-48.769-32.536-68.723-28.833-25.466-70.176-38.101-107.48-30.694" fill="#0f141b"/>
 <path d="m3.326 156.59c0-25.501 5.2811-49.867 15.932-72.232 19.67-41.361 55.857-70.903 96.794-79.037 36.878-7.3185 75.9 3.3305 104.43 28.496 20.964 18.519 33.121 41.999 33.121 63.566 0 0.4521-0.0352 0.84895-0.0352 1.296-9.1621-18.342-22.701-37.977-55.627-58.073-39.483-24.101-103.85-19.44-138.95 30.109-18.997 26.795-30.055 60.891-32.873 101.35-0.51238 7.425-0.74346 14.797-0.74346 22.081 0 23.587 2.3911 46.164 5.051 66.207-17.952-35.141-27.096-70.407-27.096-103.76" fill="#007b36"/>
 <path d="m30.415 260.35c-2.6574-20.043-5.0329-42.62-5.0329-66.224 0-7.2658 0.25117-14.638 0.74346-22.063 1.3664-19.795 4.732-38.048 10.013-54.67-13.22 21.124-22.843 44.959-30.428 69.13 3.7725 24.189 12.051 49.035 24.703 73.827" fill="#00662a"/>
 <g fill="#0f141b">
  <path d="m229.57 53.057c4.9631 5.6 19.813 26.423 24.26 47.281 0 0 0.91927 2.4614-0.91928-8.595-1.8436-11.058-12.6-28.868-21.495-38.686-8.8964-9.8172-6.8052-5.5995-1.8436 0"/>
  <path d="m24.978 251.73 3.7575 7.8862c-21.301-60.695-17.101-116.64-9.3038-148.06 4.305-17.402 0.67313-9.3038-2.0395 1.2408-6.0074 23.392-13.823 77.903 7.5848 138.93"/>
  <path d="m30.13 261.63 0.74345-1.8586c-14.337-44.498-9.9417-114.53-0.0176-144.91 5.3338-16.321 3.2953-12.263-1.2759-0.56764-9.1445 23.41-16.64 83.272 0.54754 147.33"/>
  <path d="m258.89 143.82c0.40187 1.0449 0.86904 2.572 1.8084 2.7126 0.45211 0.0502 0.20094-1.4367-0.51238-3.225-0.72839-1.8084-1.718-0.53248-1.296 0.51238"/>
  <path d="m235.7 158.2c-2.8332-0.88411-3.1697 0.58271-0.35163 1.5924 2.8181 1.0298 13.734 0.95444 17.881-2.6774l0.50233-2.5519c-4.943 3.8479-15.17 4.521-18.005 3.6319"/>
 </g>
 <g>
  <path d="m245.07 143.83c-9.4278-4.6768-17.845-11.483-26.919-21.708 2.6774 9.2862 9.6403 19.6 15.152 23.995 4.4306 3.5264 8.8426 5.3167 12.547 6.238 0.74345-2.6222 0.25117-5.7417-0.77862-8.5241" fill="#ed8599"/>
  <path d="m245.07 143.83c-9.4278-4.6768-17.845-11.483-26.919-21.708 1.6477 5.7417 4.943 11.873 8.5241 16.747 6.7162 1.0298 13.149 3.4711 18.997 6.8403-0.20093-0.63797-0.35163-1.2558-0.6028-1.8787" fill="#ce7486"/>
  <path d="m254.77 153.16c-1.8787-2.2655-3.4711-4.6968-4.5361-7.0176-1.3111-0.51238-2.5669-1.1001-3.8278-1.6828 1.2408 2.572 1.5974 5.6176 0.99462 8.3292 3.2953 0.53248 6.5746 0.45211 7.3718 0.35164" fill="#922f00"/>
 </g>
</svg>
