<?xml version="1.0" encoding="UTF-8"?>
<!-- Created with Inkscape (http://www.inkscape.org/) -->
<svg version="1.1" viewBox="0 0 300.02 346.43" xmlns="http://www.w3.org/2000/svg">
 <path d="m24.945 137.55 4.2692-4.9354c-8.2365-22.44-20.187-33.502-26.344-37.216-1.6015 3.5854 1.8084 24.583 7.9346 35.232z" fill="#6cba5a"/>
 <path d="m10.806 130.62 14.14 6.9193 0.44986-0.47685c-5.8243-14.553-12.283-28.693-22.821-40.294-0.6523 5.9193 2.6812 24.17 8.2522 33.851" fill="#5da24d"/>
 <path d="m51.103 162.79c-1.2371-22.488 4.0307-50.07 21.917-66.702 3.5719 8.9981-0.45886 43.436-15.013 72.288z" fill="#6cba5a"/>
 <path d="m54.044 129.86c-2.8251 11.173-3.4145 23.916-2.9376 32.471l6.6498 6.8239c1.1112-2.2358 2.1728-4.4896 3.176-6.7767-4.7771-9.6171-7.1415-21.821-6.8878-32.518" fill="#5da24d"/>
 <path d="m185.9 264.59c-2.6497 1.1246-7.586 1.507-7.586 1.507-7.9032 11.982-16.711 35.644-12.871 34.755 3.8418-0.87274 15.426-17.251 15.426-17.251s-5.3164 13.696-2.1593 13.553c3.176-0.13491 15.616-19.806 15.616-19.806s2.6182-6.8559-8.4268-12.76" fill="#00662a"/>
 <path d="m216.67 185.56-8.7602 22.076-21.314-27.091c1.0167-0.76026 5.3003-2.5237 18.012 12.49-2.6497-4.1117-9.4426-15.061-6.6337-15.537 2.7936-0.47684 16.33 11.919 16.33 11.919s-7.6814-14.093-3.0636-13.252c4.6178 0.85475 6.8716 3.9183 6.8716 3.9183z" fill="#00662a"/>
 <path d="m208.07 207.32c1.7454-8.1888 16.568-45.579 27.011-49.499 7.824-2.9376-2.2043 21.599-2.2043 21.599s10.935-23.393 15.489-23.964c4.5548-0.55334-1.57 19.806-1.57 19.806s11.062-23.789 14.204-24.281c3.158-0.49035-0.85473 15.585-0.85473 15.585s7.2841-17.949 10.76-19.171c3.4594-1.2056-1.3946 15.918-1.3946 15.918s7.9351-19.377 11.776-20.266c3.8238-0.87272 0.13491 10.919 0.13491 10.919s4.3007-14.283 7.824-14.092c3.5404 0.17994-6.8082 28.503-9.6171 36.723 5.0623-5.1577 10.792-10.696 12.283-9.0139 1.4935 1.696-7.2369 19.362-15.902 30.328 10.331 10.093 24.979 30.216 23.011 33.486-1.9704 3.2705-19.044-8.3004-19.044-8.3004s17.901 18.393 13.854 22.615c-3.2705 3.4144-23.567-13.346-30.582-20.425 7.0147 7.0781 26.297 30.153 22.583 33.835-3.7114 3.6978-23.837-13.014-23.837-13.014s18.219 22.901 15.251 25.741c-3.7473 3.5854-30.693-19.584-35.104-23.615 8.7759 12.331 26.567 35.502 23.583 39.945-2.5057 3.7428-21.425-12.379-27.376-19.505 6.1896 7.0624 24.631 25.567 19.171 28.931-6.1577 3.8103-34.295-19.647-35.771-21.33z" fill="#007b36"/>
 <path d="m277.53 199.81c-0.35989-0.35989-1.1741-1.57-1.525-1.9029 8.6648-10.966 17.378-28.614 15.902-30.312-1.4935-1.696-7.2369 3.8553-12.283 9.0143 2.7936-8.2365 13.14-36.533 9.6171-36.739-3.3155-0.17995-7.2842 12.363-7.7763 13.934-0.0316 0.09-0.0449 0.17993-0.0449 0.17993s0.0157-0.0449 0.0449-0.17993c0.44986-1.3946 3.3784-11.57-0.17994-10.744-3.8418 0.87274-11.76 20.266-11.76 20.266s4.8563-17.14 1.3946-15.918c-3.4774 1.2056-10.776 19.155-10.776 19.155s4.0308-16.06 0.87273-15.568c-3.1445 0.49035-14.22 24.281-14.22 24.281s6.1258-20.362 1.57-19.806c-4.5548 0.55333-15.473 23.948-15.473 23.948s10.03-24.535 2.1908-21.583c-10.427 3.9183-25.249 41.31-26.995 49.499l9.3634 47.293c25.504-10.173 44.484-31.946 60.084-54.816" fill="#00662a"/>
 <path d="m221.46 113.69c-11.157-20.631-30.836-43.849-43.595-45.388 0.0451 8.8078 9.062 37.437 39.612 58.608z" fill="#6cba5a"/>
 <path d="m218.85 109.1c-0.82325 2.1413-3.0456 4.5072-3.4594 2.6362-0.40488-1.8579-13.664-29.169-37.358-41.103 1.3631 10.76 11.188 36.707 39.437 56.275l3.9813-13.204c-0.82324-1.525-1.696-3.0636-2.6047-4.6025" fill="#5da24d"/>
 <path d="m234.64 124.72c28.233-14.949 45.801-47.436 43.215-49.531-2.7756-2.2223-40.882 30.883-40.882 30.883z" fill="#6cba5a"/>
 <path d="m117.4 134.61c-5.6341 0.26993-10.411-4.1117-10.665-9.7282-0.26991-5.6341 4.1117-10.411 9.7444-10.665 0.72878-0.0316 1.4441 0.0162 2.1413 0.13491z" fill="#fcd13e"/>
 <path d="m147.52 114.6c1.4441-3.9363 5.1104-6.824 9.538-7.0147 5.8878-0.26992 10.887 4.3322 11.157 10.284 0.26991 5.9355-4.3007 10.966-10.188 11.236-0.69728 0.0319-1.3946 0-2.0649-0.09z" fill="#fcd13e"/>
 <path d="m116.48 114.21c-1.1426 0.0449-2.2223 0.31489-3.221 0.68378 2.5057 5.1104-4.0128 11.617-6.4114 10.966 0.72877 5.1419 5.2688 8.9824 10.554 8.7444l1.2236-20.266c-0.69729-0.09-1.4126-0.17993-2.1414-0.1349" fill="#d9b536"/>
 <path d="m152.54 108.82c-2.3168 1.2371-4.1117 3.302-5.0151 5.7767l8.443 14.41c0.66579 0.09 1.3496 0.13491 2.0648 0.09 3.5854-0.17993 6.6656-2.0963 8.4745-4.9197-7.7606 4.4446-19.155-7.2684-13.965-15.362" fill="#d9b536"/>
 <path d="m174.33 157.72 11.458 4.0173c0.68379 1.3496 1.4756 3.6798 1.5565 5.3003 0.13491 3.2075-0.13491 6.2688-3.239 8.2365-4.2377-4.4761-9.7759-17.552-9.7759-17.552" fill="#fcd13e"/>
 <path d="m174.33 157.72 11.458 4.0173c0.68379 1.3496 1.4756 3.6798 1.5565 5.3003 0.13491 3.2075-0.13491 6.2688-3.239 8.2365-4.2377-4.4761-9.7759-17.552-9.7759-17.552" fill="#d9b536"/>
 <path d="m192.26 188.55c1.7275-1.4756 3.9498-2.4112 6.3957-2.5237 5.8878-0.26991 10.887 4.3502 11.157 10.284 0.17995 3.5539-2.2043 7.2684-3.9498 8.8712-3.7608-1.507-13.601-16.632-13.601-16.632" fill="#fcd13e"/>
 <path d="m209.56 194.5c-5.3803 3.8238-15.156-2.2043-15.124-7.3795-0.79177 0.40486-1.525 0.87272-2.1728 1.426 0 0 9.8394 15.124 13.601 16.632 1.7455-1.6015 4.1117-5.3007 3.9498-8.8555-0.0319-0.63431-0.13491-1.2371-0.26991-1.8264" fill="#d9b536"/>
 <path d="m105.32 194.7c-16.473 11.966-42.024 29.026-43.674 47.071-1.651 18.06 10.109 27.408 11.744 32.264-5.1104 3.0141-43.389 16.045-43.881 20.647-0.49035 4.6025 20.631 12.347 35.009 10.633 10.078-9.0139 25.107-19.393 29.772-23.297-2.0649-6.6022-4.8243-18.124 4.4131-24.17 9.4907-6.2373 26.455-6.2531 26.455-6.2531 33.026 21.044 61.068 12.871 61.068 12.871s-0.62082-0.80975 6.0623 6.6337c6.6813 7.4591-0.22493 27.995-0.22493 27.995s5.2692 5.9674 9.8398 13.506c4.5706 7.5383 2.9376 18.187 13.045 23.726 10.125 5.5229 34.914 0.52184 35.771-3.7293 0.87272-4.2692-29.439-28.963-34.819-37.549-3.3335-5.3007 9.9662-21.234 15.489-39.453 5.5067-18.219-3.6169-32.962-19.663-44.912-16.045-11.966-31.708-43.183-37.628-52.911 14.569 2.5057 27.788 14.584 37.215 20.155 12.664 1.3316 25.027-62.084 28.693-66.48 3.6799-4.3952 8.649-11.315 9.2204-14.521 5.2053-1.633 6.8401-0.62081 8.4587 6.0146 8.7129-9.9028 8.2684-20.742 6.5545-24.662-2.9511-6.7448-10.554-1.3946-10.554-1.3946s6.6813-5.6179 4.9831-13.886c-2.8566-13.823-6.348-12.157-13.235-10.649-10.03 2.2223-13.728 15.775-13.728 15.775s-6.11-2.5417-8.5379-1.732c-2.4292 0.82325-8.3638 9.9032-9.5699 14.188-1.2236 4.2692 6.7767 17.299 10.03 27.027-4.2692 14.632-17.267 46.579-17.267 46.579s-23.313-8.8078-27.868-15.997c-4.5391-7.1892-12.982-6.8082-19.679-6.8559-6.5225-3.9363-13.394-22.313-13.553-26.884-0.26992-8.586 7.0147-30.471 7.0147-30.471l8.0939-1.0482s5.967 4.6974 8.3791 5.4433c17.918-24.424-7.4906-76.034-13.87-76.811-5.6026 8.3634-16.061 15.092-16.061 15.092-12.807-2.9376-24.9-1.1112-31.914 7.3161-10.475-2.9376-21.853-5.0465-30.645-3.7788 1.795 8.3634 11.887 29.058 21.917 40.231 10.014 11.173 24.662 31.296 17.886 76.002-3.7923 1.9344-12.14 2.7622-14.156 14.378-1.5385 8.9189-9.744 26.17-18.06 37.12-4.3007-2.8881-13.061-9.7444-21.076-15.902-4.8243-3.7293-9.887-6.7762-12.14-9.7282-4.1252-13.204-4.4446-20.234-7.4115-23.631-2.9691-3.3785-7.3476-6.7128-10.173-6.9351-2.8386-0.22493-7.8874 4.9354-7.8874 4.9354s-12.712-8.2365-16.838-6.2846c-4.1432 1.9524-5.8082 5.253-6.9828 8.3161-2.3168 5.967 1.2056 15.347 5.1104 17.14 1.8579-6.7767 4.7609-8.3161 4.7609-8.3161s5.3165 0.80975 6.7925 2.1593c-7.8082 2.5057-10.189 9.9032-5.9989 16.759 2.0648 3.3784 4.6974 5.8082 6.8397 7.411 2.2043 1.633 3.365 0.72877 2.9826-1.4935-0.6343-3.6169-0.95372-8.6967 1.714-10.649 3.0141 4.4446 5.3803 11.426 9.6333 11.95 4.2512 0.50835 8.2365 2.7936 8.2365 2.7936s29.407 26.741 47.42 27.804c3.1085-1.1876 10.569-18.695 20.631-30.074z" fill="#6cba5a"/>
 <g fill="#5da24d">
  <path d="m121.54 22.588c4.3322-4.1432 16.791-4.9039 28.153 0.13491 3.176 1.4126 6.3957-12.712 5.3326-21.139-0.0319 0-0.09-0.01618-0.1349-0.03188-5.6021 8.3638-16.045 15.092-16.045 15.092-12.331-2.8251-24.472-0.52184-31.582 7.0781 5.1581 2.5237 11.998 4.8882 11.998 4.8882s-2.0648-1.8894 2.2673-6.0308"/>
  <path d="m160.39 70.87c-2.4922 0.74677-18.647 6.761-37.326-5.8878-1.6825 14.347 2.0649 32.978 14.347 42.183 2.7127 1.9659 6.5702 2.7442 7.8717-2.7127-0.26991-8.5856 7.0147-30.47 7.0147-30.47l8.0934-1.0617s5.3803 4.2512 7.9828 5.3007c-1.8264-4.2512-5.491-8.0939-7.9828-7.348"/>
  <path d="m217.16 327.37c-10.776-8.0935-12.886-22.678-16.981-30.74-7.1573-14.14 10.125-49.816-16.933-68.971-3.6034-2.5552-11.506 8.1731-12.458 12.855-20.711 9.9824-61.894-2.3483-64.084-14.378-7.6652 13.046-32.835 21.726-20.552 38.628 1.7005 2.2538 3.7923 8.681 5.9674 10.744-0.3149-5.2526-0.57132-13.584 6.586-17.663 9.8556-5.6336 26.455-6.2526 26.455-6.2526 33.01 21.059 61.068 12.871 61.068 12.871s-0.62081-0.80975 6.0623 6.6498c6.6813 7.4429-0.22492 27.979-0.22492 27.979s5.253 5.9674 9.8236 13.506c4.5706 7.5541 2.9376 18.187 13.061 23.726 10.014 5.4752 34.359 0.63428 35.723-3.5854-9.6014 2.1098-25.424 0.72877-33.534-5.3641"/>
  <path d="m114.38 158.59c-10.744 10.744-26.091 38.723-27.741 39.58-6.7925 3.5854-26.741-15.14-39.786-22.821-4.3951-2.6992-9.062-1.7634-14.601-1.9344 0.31491 0.09 0.62081 0.22493 0.9357 0.22493 4.2512 0.50835 8.2365 2.7936 8.2365 2.7936s29.407 26.741 47.404 27.804c3.1265-1.1876 11.045-18.536 21.091-29.915 0 0 1.4306-5.2053 4.4581-15.743"/>
  <path d="m225.65 130.47c2.4292-4.2692 6.8086-14.648 5.4752-18.679-3.7788-11.315 4.3322-31.295-4.3502-25.455-9.3157 6.2846-5.8716-4.4446-4.3322-9.0462 1.5385-4.6178 9.1731-9.4903 13.014-6.4114 1.5385 1.525 4.5229 6.0466 4.5229 5.2688 2.0649-6.1892-2.4427-7.3476 0-13.569 2.8251-7.7448 6.6022-10.569 5.491-10.22-9.8394 2.9826-13.743 15.759-13.743 15.759s-6.11-2.5372-8.5384-1.714c-2.4293 0.80974-8.3476 9.887-9.5695 14.172-1.2236 4.2872 6.7763 17.314 10.03 27.027-4.2692 14.648-17.267 46.595-17.267 46.595s-3.221-1.2236-7.4906-3.113c3.5539 4.5706 7.5703 13.426 9.9028 14.41 2.3348 0.9987 14.426-30.756 16.854-35.025"/>
  <path d="m25.173 136.67s-4.5229-1.9029-6.4276-2.9826c-1.6195 5.4276-1.8894 10.554 2.8251 16.965-1.525-6.5225-0.9357-7.6971 3.7428-14.124-0.08999 0.09-0.13491 0.13491-0.13491 0.13491"/>
  <path d="m36.663 148.77c-0.03188-0.0316-2.0289-2.1099-4.1432-1.3181-3.365 1.2371-5.1581 4.634-5.1581 10.427-2.3033-1.5385-5.6021-8.1731-5.6021-8.1731s0.76026 9.8551 3.2075 13.965c1.696 1.8894 4.5234 10.934 8.681 9.6171-3.7788-11.887 3.6484-23.964 3.0141-24.519"/>
 </g>
 <path d="m122.85 250.27c32.486 22.202 63.385 14.188 63.385 14.188s-0.0319-0.0319-0.0157-0.0162c-4.6817-3.0456-7.9985-6.8716-9.4268-8.1888-32.978 5.6341-53.943-5.9832-53.943-5.9832" fill="#00662a"/>
 <path d="m148.18 62.776c-3.7788-5.0308-13.982-11.125-21.123-11.3 0.1349 4.6817 2.1593 10.76 8.0147 12.95 7.2527 2.7307 13.108-1.651 13.108-1.651" fill="#e9545d"/>
 <path d="m148.18 62.776c-3.7788-5.0308-13.982-11.125-21.123-11.3 0.0319 1.0932 0.17995 2.2538 0.44986 3.4459 7.6656 0.13491 14.426 3.7608 20.631 7.9032 0.0319-0.0314 0.0449-0.0449 0.0449-0.0449" fill="#c94850"/>
 <path d="m129.66 51.789c-0.0451 3.4594 1.9344 16.537 16.87 9.6176-3.8103-6.5387-16.87-9.6176-16.87-9.6176" fill="#fcd13e"/>
 <path d="m129.66 51.789c-0.0157 0.6523 0.0449 1.633 0.26991 2.7756 5.7294 1.2236 11.712 3.0321 16.426 6.9351 0.0449-0.03141 0.1349-0.04492 0.17993-0.08999-3.8103-6.5387-16.87-9.6176-16.87-9.6176" fill="#d9b536"/>
 <path d="m157.08 73.114c1.2056-0.22493 4.6655 9.0935 3.347 11.887-2.4292 2.1278-10.649 6.761-13.014 7.0781-2.3663 0.31491-12.855 1.1561-17.251-5.0623-4.3951-6.2211-7.586-14.648-6.4434-21.33 8.2527 5.3484 15.791 10.982 33.359 7.4272" fill="#e9545d"/>
 <path d="m151.69 85.805c1.7949-0.17995 5.3961-0.52184 8.8398-1.0482 1.0302-3.0636-2.2673-11.887-3.4414-11.649-17.442 3.5404-24.885-1.9344-33.359-7.4272-1.1426 6.6813 2.0649 15.124 6.4434 21.345 2.2538 3.176 6.0938 4.5072 9.6171 5.0146 8.5222-0.87272 9.9982-3.8553 11.902-6.2369" fill="#c94850"/>
 <g>
  <path d="m147.78 86.062c-3.5539 0.09-7.2689-0.0451-8.681-1.0797-3.0006-2.2223-7.11-5.967-10.363-15.679 2.9691 1.1741 8.3161 3.8868 14.712 4.8877 3.239 0.50835 7.9351 0.35988 13.886-0.9672 2.0154 2.7307 3.0141 4.2692 3.3785 11.251 0 0-8.8713 1.462-12.934 1.588" fill="#922f00"/>
  <path d="m138.71 84.524c3.8553 2.2673 9.919 1.3316 9.919 1.3316 0.09-3.0951-4.3502-12.728-17.41-11.744 0 0 3.6349 8.1416 7.4906 10.411" fill="#ed8599"/>
  <path d="m131.21 74.114s2.8071 6.3008 6.11 9.3634c3.347-1.6825 7.4592-1.8264 10.728-0.26991-1.57-4.0173-6.491-9.887-16.838-9.1097" fill="#ce7486"/>
 </g>
 <path d="m175.52 226.31c3.8103-6.8559 11.062-16.33 13.918-20.901-68.75 25.519-84.699-6.0623-84.699-6.0623-0.31491 2.2673-1.7275 9.6968-0.40488 18.743 14.426 16.378 48.88 15.537 71.177 8.2208" fill="#e9545d"/>
 <g fill="#6cba5a">
  <path d="m244.09 335.18c1.0797-1.3946 5.8406-3.9813 7.1577-2.4292 3.4279 4.0488 5.0623 8.7921 4.634 9.538-0.44984 0.74677-5.9831-1.2551-9.3315-3.5854z"/>
  <path d="m216.18 337.03c1.444-5.7767 5.8243-8.3157 8.9509-6.1892 3.158 2.1593 8.1888 14.204 7.4906 14.807-0.68379 0.6208-12.236-4.4132-16.442-8.6175"/>
  <path d="m233.51 337.95c-0.09-2.1278 5.4118-7.3161 8.1416-5.9193 2.7442 1.4126 8.7444 11.902 7.7763 12.918-1.2686 1.3181-15.775-4.2197-15.918-6.9989"/>
 </g>
 <g fill="#5da24d">
  <path d="m244.09 335.18 2.4608 3.5224c3.347 2.3348 9.3319 3.5854 9.3319 3.5854s-0.17995-0.69728-0.50835-1.777c-3.0141-2.4292-6.3165-4.5706-9.6491-6.6656-0.72877 0.45886-1.3316 0.9357-1.633 1.3316"/>
  <path d="m222.5 330.37c-2.5552 0.52183-5.3003 2.6362-6.3161 6.6656 3.9363 3.9363 14.934 8.062 16.298 8.5698-3.9363-4.6025-7.9666-9.4745-9.9824-15.235"/>
  <path d="m236.56 333.72c-1.444 1.2866-2.6497 2.9691-3.0456 4.2197 3.9363 4.1747 11.077 6.4434 16.013 7.3161-0.0162-0.26991-0.17995-0.77826-0.40488-1.4261-3.7788-3.9498-8.0147-7.5383-12.553-10.109"/>
 </g>
 <g fill="#6cba5a">
  <path d="m32.062 298.74c1.5385-1.0932 3.239-5.872 2.7936-7.9666-6.9193 0.57131-13.029 5.8401-13.934 7.0619 2.3663 0.66579 9.5694 1.3496 11.141 0.90423"/>
  <path d="m43.94 303.21c-0.08999-2.2223-0.40487-10.569-6.967-7.1096-6.5387 3.4774-8.3638 9.887-8.3638 9.887s10.728-0.44986 15.331-2.7756"/>
  <path d="m61.227 305.84c0.31491-5.2368-2.8746-9.4745-6.4591-8.443-7.7448 4.3187-10.951 11.522-10.871 13.442 2.3978 0.76027 13.95-3.1085 17.33-4.9993"/>
 </g>
 <g fill="#5da24d">
  <path d="m34.86 290.78c-6.9193 0.57131-13.045 5.8401-13.934 7.0624 0.31489 0.09 0.74677 0.17995 1.2371 0.26991 3.7923-2.7936 8.0462-5.047 12.76-6.3957 0.01571-0.35988 0-0.66579-0.04507-0.9357"/>
  <path d="m40.696 295.99c-0.08999 0.09-0.22493 0.22493-0.31491 0.31491 0.40487-0.17995 0.76026-0.31491 1.1427-0.49035-1.0167-0.69729-2.4607-0.79177-4.5391 0.3149-3.9048 2.0784-6.1258 5.1896-7.2684 7.3795 3.0321-2.9196 6.5545-5.348 10.665-7.1888 0.13491-0.09 0.22493-0.17995 0.31491-0.3149"/>
  <path d="m54.633 297.31c-3.9363 2.1908-8.3319 7.7606-9.9982 10.887 3.8733-3.6664 9.5694-7.6017 13.728-10.046-1.7769-1.3631-4.0128-0.76026-3.7293-0.84124"/>
 </g>
 <g fill="#0f141b">
  <path d="m2.476 94.564c-1.714 0.77825-1.6015 17.283 7.1577 35.406l1.6645 0.35989c-5.7609-10.03-9.2842-32.93-7.8082-33.565 1.2686-0.53982 15.251 11.268 24.71 37.009l1.5565-1.3631c-9.4268-25.678-25.249-38.771-27.28-37.85"/>
  <path d="m73.618 95.076c-1.4441-0.31491-16.172 13.395-21.441 38.533-2.2358 10.681-2.2853 20.821-1.651 28.756 0 0 1.0797 0.85923 1.0617 0.6523-0.58932-11.077 0.44986-20.679 2.2538-28.836 5.2373-23.393 18.219-36.867 18.886-36.676 1.1111 0.3149 1.7949 18.028-3.6844 39.183-2.6992 10.395-6.586 21.425-11.712 31.581l1.1292 0.80976c5.9355-11.062 10.094-21.79 12.823-31.598 7.1101-25.503 3.9993-42.024 2.3348-42.405"/>
  <path d="m163.94 298.04c-0.3149 3.4909 1.4306 3.7114 2.4113 3.2525 3.8238-1.8084 8.3481-7.0939 12.458-13.871-0.90422 2.5687-1.6015 5.872-1.714 7.6179-0.13491 1.7635 0 4.4581 4.3816 0.90423 4.3816-3.5539 11.045-14.378 13.584-17.806l-0.79175-1.3316c-5.5544 7.9823-11.411 15.949-13.505 17.552-2.0964 1.6195-2.5687 0.76026-1.9344-1.9704 0.63431-2.7306 1.3316-4.1747 2.1728-6.9193 2.7756-5.5225 5.11-10.204 5.5544-11.283 0.77826-1.8714 0.87273-3.8418-1.2866 0.17995-7.0938 13.188-13.442 20.948-17.838 24.17-2.4292 1.777-1.9659-0.45886-1.9839-0.77826-0.17994-3.7923 5.9035-20.044 13.664-31.772l-1.8084-0.35988c-7.173 10.839-12.712 25.138-13.363 32.407"/>
  <path d="m186.01 179.93 1.2866 1.57c0.92221-0.68379 3.5089-1.57 10.3 4.84 0.49035-0.0157 0.99868-0.0316 1.4935-0.0449-7.618-7.2999-11.315-7.6494-13.077-6.348"/>
  <path d="m208.67 176.7c0.09 2.4427 2.3798 7.4906 3.7113 10.22-4.0487-3.5539-9.9028-8.3157-12.442-9.6171-2.5552-1.2866-4.2512-0.44987-3.6034 1.9029 0.6523 2.3483 2.2718 4.4446 3.6169 7.0304 0.40488-0.0157 0.84125-0.0314 1.2686-0.0449-1.8579-3.4909-3.7923-7.2527-2.4742-7.4744 2.2043-0.35989 10.157 6.8874 15.41 11.696l0.6523-1.2686c-2.1593-3.9678-4.7613-9.919-4.4446-11.855-0.35991-0.22493-1.714-1.0797-1.7005-0.58932"/>
  <path d="m214.73 176.73c-0.31491 0.35989-0.6208 0.63431-0.95371 0.82326 2.5552 1.1606 4.2062 3.8868 4.2197 3.9048l0.57132-1.714c-0.0449-0.09-1.3316-1.7635-3.8418-3.0141"/>
  <path d="m276.54 197.54c7.205-9.2523 15.013-24.487 15.934-28.09 0.92221-3.6169-1.0302-3.7473-3.347-2.2358-2.3168 1.525-3.3964 2.4607-8.1254 7.1892 0.22494-0.63431 8.6176-24.836 9.5222-33.168 0.31491-3.0636-0.77825-3.365-2.0334-2.4427-1.2551 0.92221-2.2673 1.9344-4.9201 7.5698 0.99868-5.7605-2.2358-5.5067-4.9035-2.1413-2.6497 3.365-4.2062 6.6971-6.9355 12.569 0.58932-2.7307 1.3631-6.586 1.2866-8.5222-0.09-1.9524-1.2371-3.1895-3.6034-0.71528-2.3798 2.4922-5.3642 8.6495-7.824 14.172 0.31491-2.3348 1.6015-5.0623 1.777-8.9189 0.17993-3.8418-1.3001-5.015-4.9035-0.74677-3.5854 4.2692-5.904 9.5065-9.3796 16.854 0.84124-3.5854 1.6015-6.3637 1.8579-10.998 0.26991-4.634-1.9659-5.4276-4.9831-2.4742-3.0006 2.9511-5.6656 8.2842-9.3157 15.156 1.1292-3.6664 1.7275-6.0785 1.9659-10.348 0.22493-4.2692-2.1414-4.9669-4.1747-3.8553-10.347 5.6656-25.344 43.389-26.916 50.816l1.1292 0.22493c1.8264-8.6018 19.854-48.087 26.646-49.087 3.4144-0.49035-0.09 13.903-2.9376 20.838 0 0-6.792 16.664-5.4591 16.346 1.3496-0.31489 7.2207-17.98 9.3949-22.044 3.9858-7.4272 9.5222-17.171 12.141-17.457 2.6362-0.31489-0.26993 12.759-2.1908 19.06 0 0-15.6 37.168-13.41 34.915 2.2043-2.2718 14.49-34.518 14.49-34.518 4.9674-11.172 9.9348-19.06 11.871-21.964 1.9209-2.9061 3.8553-0.82324 0.35988 12.902-0.89072 3.5854-8.3958 21.377-6.5707 19.933 1.8264-1.4261 8.6337-21.695 8.6337-21.695 2.7757-6.8402 5.5068-12.252 7.5541-14.839 2.0469-2.5732 3.2705 0.50833-0.22493 13.331 0 0-11.506 31.661-9.9505 30.232 1.5565-1.4126 11.045-29.868 11.045-29.868 3.0141-7.3795 7.4906-15.696 10.157-18.727 1.6645-1.9029 2.2043-0.26991 2.2358 0.40488 0.09 2.1413-0.72878 5.9197-1.57 8.6018 0 0-5.2373 15.441-4.0622 14.441 1.1607-0.99868 5.1577-14.108 5.1577-14.108 1.7275-5.7452 5.2211-12.902 6.9351-13.188 1.7275-0.31491-10.807 38.247-12.442 42.96-1.6195 4.7289 0.35989 3.6664 4.1117-7.4272 2.9826-2.7127 8.9666-9.094 9.8394-7.1577 0.87273 1.9344-15.759 29.185-17.425 31.153-1.6645 1.9839 0.22494 1.1741 2.6182-2.1593 3.9363 3.4909 22.853 27.709 23.059 32.09 0 0.26991-0.0316 0.87272-2.0964 0.74677-2.0649-0.09-12.378-5.6021-16.076-8.4587-3.6979-2.8566-3.3335-1.9029-1.633-0.26992 1.7005 1.651 13.14 16.029 14.124 18.076 1.5565 3.2075 0.77826 5.8405-3.239 3.9813-10.601-4.9354-23.011-16.568-26.09-19.615-3.077-3.0636-2.9691-1.7275-0.82324 0.80975 2.1413 2.5372 22.694 26.582 22.932 31.867 0.0157 0.50835-0.09 0.90422-0.3149 1.1606-1.9974 1.9839-12.633-5.1262-19.362-10.173-1.462-1.0932-2.7442-2.0964-3.7158-2.8881-5.4433-4.4132-2.1098-0.40488-0.82324 0.80975 0.31491 0.26991 1.462 1.696 3.0141 3.7114 4.9831 6.4749 14.045 19.187 12.077 20.821-3.9678 3.3155-30.74-20.647-33.407-23.091-2.6677-2.4608-2.9511-1.3496-1.1112 0.99868 1.8399 2.3348 21.155 31.344 22.25 34.407 1.4755 4.1117 1.1112 6.2211-4.3322 2.7936-5.459-3.4279-19.663-16.092-22.948-19.409-2.2673-2.2853-1.8579-0.85472-0.40487 0.9987 1.0617 1.3316 3.5224 3.9183 5.0785 5.491 5.4591 5.872 14.013 17.553 15.362 20.742 0.90422 2.1278-0.47686 3.6979-2.7756 2.9376-13.013-4.3007-30.28-19.806-31.708-21.504l-0.98521 1.588c0.77827 0.96721 21.631 19.552 33.518 21.599 4.3952 0.76028 4.3952-1.1606 3.9363-3.8553-0.44986-2.6812-4.5386-8.4588-9.2523-14.109 5.1104 4.2377 6.761 6.1415 13.299 8.9347 2.0469 0.87272 5.2688 0.0319 3.347-4.7609-2.7622-6.967-13.664-23.678-20.504-32.692 13.14 12.156 25.17 20.155 28.566 21.091 3.3964 0.92221 4.7294-0.44986 4.1747-3.3335-0.57133-2.8881-8.3157-13.728-13.283-20.203 6.3795 4.9354 18.346 13.505 21.408 10.474 0.44986-0.44985 0.6343-1.0932 0.58932-1.9209-0.22493-5.0785-9.6648-17.076-16.457-25.075 7.4115 6.2684 13.506 11.045 18.568 12.982 5.0627 1.9344 7.2212-0.69728 5.0942-5.0942-2.1278-4.4131-6.4591-9.5065-10.395-14.458 4.6502 2.8251 9.7125 5.491 13.315 6.0466 1.6195 0.26991 3.1086-0.22493 2.1593-3.6349-1.588-5.6498-14.569-22.853-23.186-31.407"/>
  <path d="m231.7 237.37 0.44984 1.5385c17.536-9.3315 35.676-30.074 37.835-33.407 2.1413-3.347 0.9537-2.7621-0.82326-0.35988-1.7949 2.3798-18.949 22.393-37.438 32.248"/>
  <path d="m177.34 67.618c-2.3798 1.1426 8.062 42.167 39.469 59.561l0.66579-0.95371c-31.216-21.599-40.151-55.767-38.501-56.942 3.0636-2.1593 28.296 19.441 42.262 45.5l0.85473-0.93571c-19.631-36.676-40.739-48.166-44.754-46.23"/>
  <path d="m278.62 73.904c-1.1112-0.47686-6.4749 1.777-13.521 8.6018l0.13491 2.3798c0.0451-0.0449 11.379-9.7125 11.791-8.6648 1.0302 2.6812-18.409 34.708-41.183 47.34l-0.71528 2.2043c35.184-21.885 46.246-50.689 43.516-51.864"/>
  <path d="m105.57 124.66c0.26991 5.6498 5.3799 10.332 10.633 10.554 0.26993 0 0.17995-1.1426-0.09-1.1606-4.5544-0.26991-8.5856-4.2062-8.8078-9.2046-0.26993-5.872 5.8563-11.014 10.887-10.173l0.0449-1.4126c-6.8559-1.1426-12.934 5.7447-12.68 11.395"/>
  <path d="m147.35 113.13 0.71528 1.6645c1.4126-3.8553 4.9512-6.4591 9.0139-6.6494 5.5549-0.26991 10.3 4.1252 10.554 9.7444 0.26991 5.6021-4.0622 10.379-9.6333 10.633-0.6523 0.0316-1.3181 0-1.9524-0.09l0.13491 0.85474c0.71528 0.09 1.1292 0.44987 1.8579 0.40487 6.2054-0.26991 11.426-5.9831 11.141-12.236-0.26991-6.11-5.4591-11.315-11.95-10.713-4.5229 0.40489-8.3157 2.1098-9.887 6.3957"/>
  <path d="m185.25 161.46c0.71529 1.8714 1.4621 4.1252 1.525 5.6021 0.13491 2.9196-0.98519 5.7609-3.3784 8.1258l0.79176 0.82324c2.4292-1.3496 4.4131-5.4276 4.2512-8.681-0.0451-1.6825-0.3149-3.2075-1.7634-5.5387z"/>
  <path d="m191.89 188.12 0.74677 0.87273c1.714-1.4441 3.8103-2.2718 6.0466-2.3798 5.5706-0.26993 10.3 4.1117 10.554 9.7282 0.13491 3.221-1.2551 6.3642-3.7293 8.3953l0.72877 0.89073c2.7622-2.2538 4.7609-6.1734 4.6021-9.7602-0.26992-6.2531-5.872-11.204-12.077-10.919-2.4922 0.09-4.9674 1.5565-6.8716 3.1715"/>
  <path d="m145.28 50.581c2.1908 2.0649 4.0937 5.0785 5.3961 8.9032 0.52184 1.4935 0.71527 1.6645 0.45885-0.04492-0.57131-3.7788-2.4742-7.0624-5.2688-9.1569-1.7634-1.3496-2.0469-1.0617-0.58482 0.31491"/>
  <path d="m166.05 72.388c0.17995 0.49033 0.45886 1.0617 0.71528 1.4935 0.31491 0.52635 0.35989 0.40488 0.31491-0.09-0.0451-0.60282-0.17995-1.0617-0.35991-1.7455-0.22493-0.72877-0.96719-0.40487-0.66579 0.35989"/>
  <path d="m135.2 64.071c-5.3479-1.9974-7.4906-7.5064-7.7444-12.157 6.8716 0.35989 16.362 6.0308 20.139 10.776-3.347 2.1413-8.2684 2.9196-12.395 1.3811m-8.4745-12.22c0.17995 5.7294 2.9376 11.157 7.9508 13.029 4.6817 1.7455 9.681 1.1606 13.537-1.462 0.89074 0.76026 1.0617 0.68379 0.17995-0.84123-3.5089-6.0623-13.188-11.268-21.551-11.696-3.077-0.17995-2.5237 0.66579-0.1349 0.96719"/>
  <path d="m134.13 62.56c3.1265 1.9659 7.9032 1.588 12.855-0.90421l-0.63431-0.58482c-4.6817 2.3483-8.5222 2.6362-11.411 0.82324-3.7923-2.3978-4.9354-7.8402-4.9039-10.094l-0.76027-0.0157c-0.0449 2.3978 0.77826 8.2208 4.8563 10.776"/>
  <path d="m134.39 53.117c-0.09 4.9674 0.79176 7.7291 1.5565 7.6814 0.52184-0.01618 1.1427-2.5237 0.95371-6.6656-1.0932-0.76026-2.5057-1.0167-2.5057-1.0167"/>
  <path d="m127.84 68.888c0.26993 1.588 6.8397 15.902 12.442 17.203 5.3003 1.2056 14.426 0.26991 19.964-1.0167l0.0316-0.99868c-5.4114 1.2686-14.092 1.8579-19.25 0.66579-4.9201-1.1246-11.807-14.616-12.062-16.06z"/>
  <path d="m130.86 73.96 0.35989 0.53984c8.8555-0.66579 14.854 3.239 17.251 11.617l0.65229-0.31489c-1.7634-8.4268-9.1727-12.934-18.282-11.823"/>
  <path d="m119.71 154.37c-1.1112 0.44986-4.1747 1.8084-5.9832 4.4761l-0.17994 1.6825c1.3316-1.9524 5.5864-4.5706 6.7133-5.0785 6.2684 9.8394 13.49 19.965 15.41 19.965 1.8579 0 16.061-20.52 18.124-21.171 3.7113-0.26991 17.886 3.8553 23.789 10.268l-1.777-2.9376c-6.2211-6.7448-18.393-8.7921-22.186-8.4745h-0.0449l-0.0449 0.0157c-2.2043 0.63431-17.235 19.774-18.108 19.774-0.89072 0-12.95-16.648-13.712-17.758-0.79177-1.1921-0.89073-1.1921-1.9974-0.76028"/>
  <path d="m104.96 219.22c1.57 2.8881 9.1889 8.5222 21.314 11.395 9.9667 2.3483 25.757 3.41 48.436-3.6664l0.65229-1.3496c-41.929 13.061-67.591-2.7442-70.527-8.1096z"/>
  <path d="m233.48 337.73c-1.1741 0.09-2.3483 0.22493-3.5224 0.26991 0.31491 0.57132 0.45886 1.1561 0.65229 1.7275 1.4126-0.09 2.8386-0.22493 4.2377-0.44987-0.53984-0.45886-1.0167-0.96719-1.3631-1.5565"/>
  <path d="m258.06 102.86c3.7923 0 14.49-25.075 3.1265-28.455-1.633-0.49035-3.4144-0.22493-4.9197 0.26991 3.158-4.0173 4.2872-8.2684 3.347-12.776-1.3496-6.5383-2.7622-9.506-5.0146-10.951-2.1728-1.3946-8.1416-0.17994-11.855 1.4306-6.7924 2.9061-10.522 11.696-11.506 14.743-1.8084-0.69728-6.3008-2.6677-8.4749-1.9344-2.9376 0.98519-9.3157 10.76-9.887 15.187-0.57132 4.4266 2.3663 9.8398 5.0308 15.632 1.8264 3.9363 3.6979 8.0143 4.9359 11.633-3.9363 13.346-14.871 40.389-16.759 45.071-3.7788-1.4755-22.964-8.6805-26.916-14.918-4.1747-6.6017-11.823-8.681-20.377-7.1416-5.0947-4.7289-12.744-19.282-12.744-26.217 0-3.1085 0.72877-8.0777 2.6182-12.442-0.49035 0-1.9029 0.72877-2.4293 0.52184-1.0617 4.5863-1.8264 9.0143-1.7275 11.982 0.13491 4.4896 3.7923 15.204 9.9028 23.694 2.5372 3.5089 5.3322 5.3799 6.5383 5.6498 1.1921 0.26991-1.0617-1.8894-1.0617-1.8894 6.8244-0.69728 14.315 0.85474 17.981 6.6498 4.6498 7.3318 25.725 14.172 27.297 16.124-0.13491 0.26991-0.76028 3.9498-0.35989 3.8103 1.2551-0.49035 19.012-46.547 19.314-49.372 0.6343 2.0154 1.2551 1.3496 0.49035-1.1112-0.76027-2.4607-3.428-8.6333-5.3007-12.696-2.7622-5.9832-5.6179-12.189-4.9516-14.553 1.1921-4.1747 7.0466-12.982 9.0777-13.664 3.4414-1.1606 15.854 4.2692 16.204 12.109 0.1349 3.0456-1.7275 11.442-2.4922 11.649-0.53984 0.17995-2.6992-5.0312-5.5864-5.9517-2.2223-0.69728-6.0938 1.5385-6.9193 2.4427-0.82325 0.90423-0.66579 1.462 0.69729 0.72879 1.3631-0.71529 4.0622-2.2853 5.7609-1.714 2.8071 0.96721 5.0627 6.2054 6.2211 6.0943 1.3946-0.13491 3.239-5.015 3.8553-12.791 0.47686-6.0151-5.9197-10.411-8.5222-11.934 0.82326-2.5552 4.6498-12.823 12.982-14.664 0 0 6.1892-1.3946 7.824-0.35989 1.8579 1.1921 3.239 4.3951 4.4761 10.411 1.1426 5.5387-3.7923 12.791-6.0466 14.839-0.80975 0.74677-1.0302 0.55333-1.1921-0.55333-0.35988-2.5237-1.2236-8.1096-3.1265-9.3949-1.0167-0.66579-3.0006-0.85474-6.0308 0.60282-1.4756 0.71528-1.1247 1.1246 0.47684 0.84123 3.5089-0.6343 4.3637-0.45886 5.0627 0.45886 0.9537 1.2236 1.633 3.284 2.1908 6.729 0.72877 4.5386 1.1741 4.634 4.5229 1.2371 0.47685-0.47686 0.87273-0.9987 1.2686-1.4935 2.2043-0.58932 4.0307-0.49035 5.4276-0.09 9.062 2.7307-0.31491 25.249-2.1593 25.107-0.22493-0.0162-0.31491-0.45886-0.52184-1.1741-0.58482-2.2223-1.5385-3.5404-2.8566-4.2692-1.6825-0.9537-5.2845-0.49035-7.7606 0.6658-2.4922 1.1426 0.9987 1.1741 0.9987 1.1741-0.49035 2.7756-5.1419 8.6175-9.268 13.537-1.1426 1.3811-2.0469 5.8878-4.6498 15.235-4.9197 17.616-13.966 46.626-20.949 50.086-2.7307 1.3496-7.0462-2.9826-9.9028-4.9831-3.9363-2.7621-19.758-13.03-28.566-14.553-2.4608-3.7923-3.6484-3.7474-1.4441 0.88622 1.2866 2.6812 21.742 41.199 37.882 53.228 17.711 13.204 24.234 28.043 19.377 44.087-2.4607 8.0777-6.3799 15.584-9.8394 22.218-4.4266 8.4587-7.6337 14.553-5.5549 17.869 2.4742 3.9543 10.109 11.22 17.489 18.251 6.7286 6.4272 16.79 16.013 17.219 18.457 0.60282-0.26991 1.7005 0.49035 2.0964 0.57133-0.52184-2.7442-5.4118-8.2684-16.568-18.901-7.3003-6.967-16.553-15.41-18.933-19.203-0.26993-0.40488-0.3599-0.89072-0.40488-1.462-0.13491-3.1085 2.5867-8.7282 6.0146-14.87 9.1727-16.425 12.315-27.011 11.966-34.708-0.55333-12.093-8.1573-23.266-21.933-33.534-15.267-11.395-26.916-36.216-36.501-51.133 9.9509 2.1728 19.362 9.3634 27.027 14.743 3.0141 2.1098 6.3318 4.634 7.3318 5.1257 0.98521 0.49035 1.9704 1.1112 4.4896-0.85474 10.347-8.0458 15.807-31.645 21.187-50.911 2.0784-7.4587 3.8733-13.918 4.872-15.092 3.0456-3.6484 8.2365-10.585 9.2365-14.378 2.1593-0.65231 3.4594-0.72879 4.3502-0.22494 2.0334 1.1426 2.6812 5.5225 3.8553 5.5225"/>
  <path d="m42.774 304.28c1.0932 0.3599 2.2043 0.6973 3.365 0.98521 0.31491-0.52184 0.69728-1.0167 1.0797-1.4756-1.1292-0.26991-2.2358-0.6028-3.3155-0.9537-0.26993 0.35988-0.60282 0.76027-0.57133 1.1426-0.17995 0.17995-0.35989 0.22493-0.55333 0.31491"/>
  <path d="m130.32 253.78c15.95 5.4753 36.232 5.4595 45.801 2.9376 1.8714 2.1413 4.2377 4.3816 7.2212 6.7605-3.5404 0.92222-25.345 5.9355-53.022-9.6968m-25.202-52.736c1.777 2.5417 6.6022 8.5856 16.14 12.157 11.395 4.2512 32.073 5.8878 66.766-6.6971-1.1426 1.696-2.7307 3.9498-4.5234 6.4748-4.4896 6.3165-10.077 14.172-11.823 18.171-3.1086 7.1573-3.1265 16.283 3.5539 24.519-20.885 4.0488-46.626-1.8399-52.34-6.316-14.838-11.681-19.838-26.963-17.774-48.309m54.816-116.39c-2.4608 2.1098-10.395 6.5545-12.601 6.8559-1.2371 0.17995-12.236 1.4756-16.695-4.8243-4.9197-6.967-6.9036-15.664-6.4434-19.996 3.9183 2.6362 15.505 11.569 32.851 7.173 1.8264 1.1561 3.6349 8.9824 2.8881 10.792m56.355 251.46c-0.31491-0.1349-0.6523-0.3149-0.95372-0.45886-6.3003-3.4594-7.8078-8.8555-9.3949-14.569-0.84124-3.0321-1.714-6.1572-3.365-8.887-3.9678-6.5225-9.1888-11.332-9.6333-13.283-0.49035-2.1728 3.239-7.8555 3.0006-18.885-0.09-3.6979-0.35989-9.6491-10.141-16.775-13.918-10.125-16.791-20.932-12.633-31.312 1.588-3.9498 6.9351-11.902 11.395-18.171 2.3483-3.3335 6.5068-10.188 6.2531-10.236-0.17996-0.0319-0.62082 0.3149-1.588 1.3316-29.344 10.284-56.228 10.807-67.623 6.5702-10.426-3.8733-14.95-10.157-16.108-12.49 2.8746-17.568 9.8713-43.659 10.252-46.499 0.44986-3.284-0.69728-3.0006-1.4306 0.47684-0.60282 2.7756-2.8251 12.331-4.6979 19.298-5.3003 6.0938-10.76 16.219-14.362 22.027-2.7442 4.4131-5.3322 8.5698-6.586 9.2208-17.553-1.2371-43.151-25.122-46.833-27.567-3.6799-2.4293-4.2062-2.4922-8.5541-3.0141-2.6992-0.31489-4.7294-3.9813-6.6813-7.5221-0.76026-1.3946-1.3811-2.1413-2.2223-3.3965 0 0 1.2866-2.6992-1.2866-0.88623-2.5687 1.8264-3.2705 6.2369-2.7442 10.046 0.40488 2.9691 0.3599 2.9826-1.3946 1.7455-2.1098-1.525-3.6979-2.5867-6.2846-6.8401-3.8553-6.3003-2.1728-13.124 5.5706-15.632 0 0 3.0006 1.6645 0.57133-0.6343-1.2056-1.1427-3.6169-2.5552-7.2212-2.5237 0.9987-0.79175 2.6992-0.9987 2.6497-1.2056-0.08999-0.44986-2.3348-0.52184-3.9678 0.62081-4.1747 2.8881-3.8103 7.9985-4.3322 7.9508-0.9357-0.09-4.1117-6.0938-4.3007-10.141-0.31491-6.6656 2.3348-10.903 7.0147-13.395 1.7005-0.90422 11.395 3.7608 15.077 6.0628-2.1414 2.1728-4.6025 6.0146-3.6034 10.204 0.6343 2.6047 2.2673 6.0466 4.3951 8.5698 2.8881 3.4414 3.0456 3.9363 3.9048-1.0167 0.45884-2.7307 1.651-5.9035 3.3335-6.8716 1.0797-0.6343 2.4607-0.35988 4.0802 0.49035 1.6015 0.85475 1.4755-0.0449 0.22493-0.69728-1.2371-0.6523-3.5089-2.0469-5.0942-1.1246-2.2358 1.3001-3.7788 6.3322-4.0128 8.411-0.13491 1.0482-0.26993 1.462-0.40488 1.5565-0.35989 0.22493-4.9516-7.5541-5.1104-10.966-0.26993-5.7767 8.5226-13.442 11.538-13.204 2.3348 0.17995 6.4911 3.0636 9.6653 6.6813 1.6825 1.9209 2.5057 5.3007 3.7608 10.427 0.82324 3.4279 1.9974 8.9981 3.3785 13.283 1.3811 4.3007 1.1427 0.71526 1.1427 0.71526s22.171 18.092 30.566 23.678c0 0 3.4909 2.3663 4.9989 2.7127 1.4935 0.31491-1.588-2.2358-1.588-2.2358 8.0939-10.506 16.156-27.503 17.759-36.803 1.588-9.1412 9.8713-13.188 12.68-13.426-0.17993 1.633-0.22493 3.7608 0.17996 3.7788 0.45886 0.0319 0.90421-1.651 1.3181-4.7451 0.31491-2.4428 2.5057-18.282 2.1593-26.138-1.1427-25.249-11.204-40.437-20.234-50.499-8.9666-10.014-20.219-33.565-20.869-38.104-0.04507-0.40487-0.26993-1.0302 0.84124-1.0167 26.725 0.68379 53.038 9.4745 76.193 34.168 2.6362 2.7936 3.8103 3.6349 6.0466 4.8882 1.2866 0.71528 1.57 0.31491 0.17995-0.55333-2.5867-1.6195-3.9813-3.1265-5.7924-5.2053-9.7921-11.22-27.408-24.488-46.484-30.296 4.1747-4.8086 10.903-7.4906 18.012-7.6494 16.188-0.35989 31.963 10.062 34.47 31.978 0.44987 3.8553 0.74677 4.872 0.74677 0.13491 0-11.03-7.1577-26.074-21.695-31.661 0 0 7.8397-3.7788 14.458-13.696 0.31491-0.50835 0.6658-0.47686 1.0167-0.17995 1.7455 1.4126 6.1258 7.8717 9.9347 16.679 4.4266 10.22 7.5541 22.361 8.3953 33.628 0.80975 10.728-4.0622 22.885-5.4753 24.472-0.1349 0.1349-0.47684 0.0449-0.62081-0.0319-1.2866-0.80974-4.9831-3.4774-6.6813-4.5706-1.9029-1.2056-2.5237-0.74677-3.9183-0.45887-13.744 2.7307-21.869 1.2236-32.74-6.7448-1.8084-1.3181-4.0802-2.5237-1.777 0.26993 0.0451 7.8559 2.3663 15.966 6.348 21.615 4.8405 6.8559 16.838 5.2373 18.139 5.0627 2.4922-0.31489 12.252-5.8244 13.839-7.6494 1.4126-1.633-0.89072-8.8078-3.1265-11.522 0.98519-0.13491 1.588 0 3.1085 1.0932 1.9344 1.3811 5.3165 3.7114 5.9035 4.1252 1.4126 0.9987 1.8264 1.5565 2.8881-0.45885 9.681-18.171 5.8563-39.85-2.4428-58.989-3.6349-8.3791-7.824-15.188-10.649-17.886-1.8894-1.777-2.4113-1.696-3.1895-0.49035-4.3322 6.6813-13.585 13.918-15.14 14.966-12.442-3.8553-25.297-0.40488-31.994 7.2684-17.695-4.9197-27.217-4.3187-29.375-4.3187-2.1728-0.01571-2.4113 0.40487-1.8399 2.6047 3.0141 11.553 11.934 28.154 22.139 39.548 8.8398 9.8555 18.203 23.964 19.33 48.785 0.35989 7.6332 0.09 16.298-1.3631 26.154-6.0938 1.588-12.855 4.5072-14.569 14.505-1.5565 8.9504-9.4903 25.948-17.314 36.485-0.58931-0.35989-26.122-20.107-32.915-24.9-1.588-5.11-3.0456-19.933-6.8397-24.583-2.7621-3.3784-7.586-6.1734-10.824-6.4272-2.6812-0.22493-6.6656 3.3964-8.0462 4.729-2.6497-1.6825-12.886-7.6175-17.06-6.0146-6.8086 2.6182-12.093 14.156-3.6979 25.345 2.0154 2.6812 2.6362 2.4607 3.5539-1.1112 0.6973-2.6992 2.0784-5.0308 2.7442-5.5544 1.57-0.26991 3.6664-0.0157 6.0146 1.2371-7.5068 3.3335-9.681 10.601-5.491 17.663 1.4261 2.3978 4.2062 5.0308 6.967 7.0462 3.6349 2.6497 4.6655 1.9029 4.2377-2.9826-0.04492-0.82775-0.13491-1.6825-0.13491-2.5867-0.08999-2.3033 0.22493-4.4446 1.2551-5.7452 0.62081 0.98521 1.2236 2.0649 1.8264 3.1265 2.1278 3.8733 3.8238 7.824 7.3003 8.2522 3.8553 0.45886 6.9827 1.507 8.3949 2.7127 17.616 15.077 33.407 25.424 45.182 27.757 2.3978 0.47685 2.9691 0.1349 2.9691 0.1349 2.6677-1.0167 4.9674-5.904 7.4434-9.9032 3.1445-5.078 7.5383-12.997 11.95-18.457-0.90423 4.2827-3.7788 17.172-3.8868 17.648-0.40488 0.31491-3.5224 2.5372-3.5224 2.5372-16.315 11.76-39.517 28.106-41.072 45.166-0.17995 1.8714-0.22493 3.6484-0.13491 5.3326 0.47686 10.506 5.872 16.695 9.2523 21.425 1.1741 1.6645 2.6677 3.8103 3.1445 4.9035-1.8714 1.57-11.458 4.6345-18.917 7.6656-9.9505 4.0802-17.044 7.173-20.996 9.6329 0.87273 0.0319 1.8264 0.26993 2.7756 0.31491 5.1738-2.6812 13.379-6.0785 19.267-8.4749 10.76-4.3952 13.934-5.8239 18.568-7.8235 1.57 2.2358 3.158 2.8386 1.7275-0.13491-1.4306-2.9691-2.6182-4.6498-4.0173-6.6336-3.7788-5.2845-9.4745-13.299-8.2842-26.329 1.4935-16.378 25.773-33.517 41.849-45.103 0 0-0.17993 0.71528-0.35988 1.9029-0.22493 1.2371-0.35989 2.4112-0.35989 2.4112-0.50835 3.6978-4.666 34.01 18.584 49.801-5.4114 0.17995-16.727 1.1606-23.964 5.9035-6.0308 3.9543-7.2212 10.268-6.9828 15.394 0.17995 3.6799 1.9344 7.0624 1.9344 9.1092 0 1.5565-18.346 13.331-21.234 16.283-2.9061 2.9376-6.5383 6.7133-8.681 7.1735-0.69728 0.17995-1.4126 0.26993-2.1593 0.35991-0.0157 0.52183-0.04492 1.0482-0.22493 1.5565 0.26993-0.0157 2.6497 0.6658 4.7771-0.72878 1.3001-0.84124 3.9048-2.9376 5.7605-4.9831 1.8399-2.0289 19.996-15.553 22.012-16.521 2.0154-0.9537 2.3168-2.6047 1.1426-4.7609-3.5539-6.6022-1.3181-17.203 4.634-21.155 8.6176-5.7132 23.884-5.7447 25.773-5.7767 30.28 19.203 56.751 13.665 60.925 12.649 5.9989 4.4132 8.3319 9.125 8.5861 14.664 0.35989 8.4115-2.2538 14.902-3.0456 16.664-0.77826 1.777-0.35988 3.3785 0.72878 4.3007 1.1292 0.92221 4.6975 4.6183 9.1727 12.014 1.5385 2.5552 2.7127 8.1569 3.5719 11.22 1.6015 5.7609 3.1445 9.5222 10.014 13.284 0.44986 0.22493 0.89072 0.44986 1.3631 0.63431-0.22493-0.6658-0.22493-1.3316 0.09-2.0154"/>
  <path d="m244.03 334.38c-0.13491 0.13491 0.72877 0.89073 0.85473 0.76028 1.6825-1.6825 5.2054-2.8566 5.9193-2.0154 2.4922 2.9376 5.0627 8.4587 4.2692 8.3796-0.79176-0.0449-7.1573-2.2853-8.8713-4.2377l0.76026 1.651c1.9974 1.9659 4.8882 2.9826 7.0624 3.4909 2.0334 0.47686 2.8566 0.58482 2.1593-1.8714-0.84125-3.0141-2.1098-5.491-4.7136-8.6333-0.72877-0.89072-5.3165 0.31491-7.443 2.4742"/>
  <path d="m220.67 331.35c1.6015-0.60282 3.0456-0.55333 4.0937 0.17995 2.2043 1.507 7.9985 12.998 6.935 13.188-1.0617 0.22494-14.6-7.0462-14.838-7.824-0.26993-0.76027 1.633-4.6974 3.8103-5.5229m-0.40488-1.0797c-1.9659 1.1426-3.284 3.347-4.0128 4.7613-0.95371 1.8579-0.89073 2.9376 0.72878 4.0128 2.7442 1.8399 7.9985 4.5072 12.156 6.3165 4.3502 1.9029 5.1739 1.3946 3.4909-2.9691-4.4581-11.617-8.681-14.236-12.363-12.125"/>
  <path d="m239.18 332.67c0.89072-0.35989 1.633-0.40488 2.2043-0.09 2.2043 1.1291 7.8717 11.426 7.3638 11.934-0.63431 0.68378-12.061-3.4414-14.791-6.3795-0.58482-0.62081 3.158-4.5706 5.2211-5.4438m-0.31491-1.444c-2.6182 1.0932-5.8401 5.1577-6.2211 6.1577-0.40488 0.98521-0.57133 0.96721 0.60282 1.8579 4.3951 3.302 11.077 5.3799 14.569 6.1896 2.3798 0.55333 2.6992 0.45886 1.7635-2.2403-1.3181-3.8238-5.2054-10.411-7.649-11.664-0.89072-0.44987-1.8714-0.80975-3.0635-0.31491"/>
  <path d="m34.351 291.44c0.52184 0.22493-1.3001 5.7609-2.5552 6.761-1.3316 0.31491-9.3634 0.09-9.7759-0.69728-0.40488-0.82325 10.236-6.9193 12.331-6.0623m0.45886-1.2371c-7.0619 0.58933-12.744 4.9831-14.109 6.4429-1.2371 1.3496-0.47686 2.2223 1.1291 2.5237 1.8579 0.31491 8.6018 0.6343 10.395 0.13491l0.08999-0.0319 0.08999-0.0449c1.7275-1.2236 3.6169-5.9512 3.1265-8.2365z"/>
  <path d="m37.236 296.61c1.57-0.82326 2.8386-0.9852 3.7608-0.45886 1.9344 1.1112 2.8881 6.0146 2.3483 6.6336-0.55333 0.6208-13.378 3.095-13.871 2.4922-0.47686-0.60281 2.9061-6.0943 7.7606-8.6652m-0.53984-1.0167c-6.6813 3.5404-8.8713 8.3004-9.2366 9.7287-0.35989 1.4306 0.01618 1.6825 1.9704 1.507 3.9048-0.35991 13.855-2.2538 14.696-2.6182 0.85473-0.35989 0.85473-0.35989 0.79175-1.5565-0.04492-1.1921-0.69728-5.9832-3.347-7.5064-1.3001-0.72879-2.9376-0.58932-4.8725 0.44986"/>
  <path d="m55.551 297.67c2.4607-0.09 4.8725 2.5372 5.1104 7.6814 0.03141 0.96721-14.68 4.8878-15.315 4.3187-1.3811-1.2371 6.4906-11.871 10.204-11.998m-1.1427-0.9537c-5.3641 2.0963-10.681 10.617-11.331 12.839-0.52184 1.7635-0.35989 2.2718 3.7474 1.777 2.9196-0.31491 13.363-3.8418 14.521-4.4266 1.1606-0.60281 0.72877-0.68379 0.66579-1.8714-0.04492-1.1921-0.76028-5.4118-2.8566-7.1096-1.507-1.2371-3.2705-1.795-4.7451-1.2056"/>
 </g>
 <path d="m136.1 55.195c0.0314 0.69728-0.17994 1.0167-0.35989 1.0167-0.22493 0.0157-0.44986-0.31491-0.47686-0.9537-0.0319-0.80975 0.17995-0.9987 0.40488-1.0167 0.17995 0 0.40489 0.17995 0.44987 0.95372" fill="#fff"/>
</svg>
