<?xml version="1.0" encoding="UTF-8"?>
<!-- Created with Inkscape (http://www.inkscape.org/) -->
<svg version="1.1" viewBox="0 0 122.21 143.79" xmlns="http://www.w3.org/2000/svg">
 <path d="m78.06 122.7s-4.1832-10.3 4.6964-26.45c8.8807-16.152 13.977-20.963 22.483-25.989 8.5058-5.026 14.553-4.4396 15.699 0.75596 1.2206 5.5323 0.17957 16.015-4.3493 26.922-4.53 10.908-14.198 23.479-18.991 26.672-5.9804 3.985-13.788 3.3282-19.538-1.9097" fill="#8fcdf0"/>
 <path d="m92.42 122.47c8.1526-0.15399 20.324-17.862 27.636-36.446 0 0-1.643 11.34-9.0514 22.718-7.4108 11.376-15.138 18.891-19.366 18.676z" fill="#79abc8"/>
 <g fill="#0f141b">
  <path d="m77.6 118.5c-0.69309-7.4409 3.3324-18.794 11.332-31.539 9.3617-14.908 25.087-21.598 29.333-18.723 4.5319 3.067 3.6566 20.498-8.0288 39.762-8.5572 14.107-14.72 17.706-18.383 18.242-5.4065 0.79311-12.443-1.8998-13.304-3.8538-0.49792-1.1369-0.81421-2.4384-0.94922-3.8886m9.8758-32.271c-11.412 18.174-12.879 29.718-9.8632 36.57l1.7e-4 2e-3c1.1247 2.5537 7.444 5.9864 14.153 5.1744 4.3493-0.5278 10.897-4.31 19.826-18.785 10.688-17.329 13.378-38.648 7.7423-42.464-5.4207-3.6683-22.218 4.1492-31.858 19.502"/>
  <path d="m120.9 79.517c-15.159 5.8179-35.628 22.269-43.301 42.898-0.0985 0.26509 0.86269 0.62278 0.95946 0.35704 5.5614-14.947 26.714-35.983 42.832-42.355 0.26327-0.10336-0.22714-1.001-0.49053-0.89976"/>
  <path d="m110.34 108.18c-12.634 1.2959-20.663 3.9898-32.599 14.033-0.21739 0.18254 0.4605 0.93852 0.68185 0.76381 10.968-8.5933 18.623-11.482 32.09-13.788 0.27951-0.0487 0.10846-1.0379-0.17307-1.0094"/>
 </g>
 <path d="m45.827 51.648s-31.489 6.4021-29.263 32.643c1.3294 15.68 20.733 25.67 36.367 25.015 25.375-1.0602 35.695-13.62 34.46-29.224-1.6224-20.484-23.327-31.431-41.564-28.433" fill="#00b8f1"/>
 <path d="m66.45 59.621c-0.7683 0.87396-0.21072 2.6172 1.2493 3.8922 1.4554 1.2753 3.254 1.6026 4.0223 0.72874 0.76487-0.87478 0.20574-2.6168-1.2516-3.892-1.4554-1.2753-3.2582-1.6-4.02-0.72892" fill="#8dd7f7"/>
 <path d="m57.39 130.37s2.7183 8.0614 7.6105 6.7797l-0.9272-5.8785z" fill="#00b8f1"/>
 <path d="m62.6 108.16s11.128-2.3209 13.813-5.1427c0 0 7.6721 2.0083 12.754 9.4755 5.0824 7.466 2.2216 18.169-0.42214 21.438-2.6445 3.2721-7.1209 4.746-10.037-3.8278-2.9151-8.5773-16.108-21.943-16.108-21.943" fill="#00b8f1"/>
 <path d="m45.713 108.75s-3.2169 6.8798-0.77777 15.198c0 0 7.9718 7.6466 19.134 7.3273 0 0-0.21959-8.0315 0.51866-10.671 0 0-2.9456-3.2046-1.9904-12.443-4.955 0.94486-15.462 0.88421-16.884 0.58841" fill="#8fcdf0"/>
 <path d="m57.52 108.84c7.8285-0.83943 10.907-1.6174 15.938-4.155 0 0-5.8741-0.27116-5.318-15.647 0 0-7.812 5.2882-21.9 4.7305-14.089-0.55875-21.285-7.4933-22.3-8.3353l2.0286 15.25c0.29546 0.59338 11.701 10.277 31.551 8.1567" fill="#8fcdf0"/>
 <path d="m59.72 130.76s1.2348 5.1276 3.4903 6.0772c2.2565 0.94836 4.759-0.84771 5.5869-5.5115 0 0-6.8979 0.64234-9.0772-0.56568" fill="#009ac9"/>
 <path d="m81.06 119.38c0.0903 1.3528 2.4677 4.6679 3.3742 4.5395l-0.3638 0.76641c-1.6769 3.0253-1.0192 10.886 3.1958 10.926-3.0495 1.1134-6.5492 1.3255-8.4874-5.2929 0 0 2.3298-7.4384 2.2811-10.939" fill="#009ac9"/>
 <g fill="#0f141b">
  <path d="m56.72 130.59c2.2551 5.5802 5.1433 7.4547 7.5363 7.3141 2.5219-0.14714 4.5447-3.5967 4.7888-6.5055 0.0269-0.28309-0.69481-0.40755-0.7182-0.12595-0.20353 2.4272-2.3334 5.2333-4.0484 5.3322-2.3908 0.14059-5.006-2.2644-6.5108-5.983-0.10545-0.26298-1.1543-0.29369-1.0476-0.032"/>
  <path d="m76.32 103.45c13.181 4.467 18.628 18.393 12.634 29.02-1.0071 1.7831-2.4434 2.9895-3.5636 3.1447-2.9383 0.40768-5.3867-1.8503-6.8162-6.8673-0.078-0.27114-0.82912-0.0694-0.75294 0.20424 1.9278 6.7602 4.569 8.3061 7.7063 7.8697 1.4643-0.20178 2.9717-1.4645 4.1547-3.5615 6.4207-11.383 3.1627-25.191-12.645-30.548-0.26624-0.0914-0.98659 0.64744-0.7178 0.73849"/>
  <path d="m82.53 132.49c-0.22909 0.71328-0.75155 2.3498-0.28989 3.2771 0.12153 0.24113 0.95533-0.0158 0.9448-0.28631-0.0354-1.0661 0.20327-2.0643 0.31149-3.154 0.14842-1.5138-0.42017-1.5363-0.96636 0.16328"/>
  <path d="m86.62 135.47c-0.0345 0.28043 0.71113 0.41285 0.81506 0.14841 0.40083-1.0448 0.29772-2.0044-0.14445-3.5127-0.41928-1.4282-0.95913-1.2124-0.79108 0.0365 0.23503 1.2302 0.29304 1.9381 0.1217 3.3278"/>
 </g>
 <path d="m40.282 107.53s-4.2438 11.694-4.0078 16.939c0.23572 5.2432 1.607 11.146 2.5284 12.836 0.91826 1.6917-0.12338 4.8359 2.2941 5.5631 2.4161 0.72616 5.8165-0.2261 7.5497-3.4336s3.4557-7.8734 2.8653-10.8c0 0-6.2319-3.5454-6.5777-5.2262 0 0-1.9973-7.8097 0.79553-14.608z" fill="#00b8f1"/>
 <path d="m44.638 123.65s5.343 6.876 3.5974 12.117c-1.5742 4.7333-4.3692 7.2125-6.8357 7.2404 0 0 4.9855 0.49473 6.9544-3.2677 1.9686-3.7647 3.0317-5.8787 3.1461-7.9054 0.11323-2.0278 0.11303-3.6404 0.11303-3.6404s-4.1369-1.6816-6.9751-4.5434" fill="#009ac9"/>
 <g fill="#0f141b">
  <path d="m39.802 107.89c-5.3365 12.037-5.668 19.78-1.5718 29.084 0.31016 0.70697 0.45156 1.8839 0.48934 3.0513 0.05825 1.6118 0.56338 3.1086 2.6813 3.6698 1.4178 0.37623 4.0687-0.309 5.8761-1.8488 1.2318-1.0523 2.0382-2.8843 3.1692-5.1049 1.6547-3.252 1.7905-4.3702 1.7037-7.5908-0.0098-0.28533-1.1625-0.51498-1.1542-0.23171 0.08039 3.042-0.29838 4.2144-1.5103 7.4646-0.80877 2.1703-1.7755 3.7456-2.8749 4.6831-1.4847 1.2652-3.5945 1.6983-4.7777 1.3847-1.4132-0.37437-1.6391-1.3248-1.9181-2.9768-0.13405-0.78764-0.33986-2.1355-0.69256-2.9354-1.0635-2.4163-2.4711-7.3553-2.1801-12.533 0.30605-5.439 1.1388-8.9728 3.7172-15.751 0.09936-0.26406-0.03181-0.56062-0.29704-0.66089-0.26267-0.10062-0.54528 0.0393-0.65985 0.29583"/>
  <path d="m40.566 137.05c-0.01087 0.68172-0.19491 1.0177-0.5585 1.6748-0.44625 0.79885-0.72568 1.7073-0.7495 2.4318-0.0084 0.28143 0.21292 0.51899 0.49637 0.52754 0.28289 9e-3 0.60258-0.12489 0.56845-0.40682-0.10128-0.83464 0.21536-1.4006 0.57943-2.0554 0.44323-0.7952 0.6733-1.3136 0.68853-2.1546 0.02208-1.4558-0.99943-1.4745-1.0249-0.0177"/>
  <path d="m45.27 138.4c0.12312 1.1538-0.06192 2.9527-1.946 4.165-0.23824 0.15301-0.25932 0.49635-0.08509 0.71903 0.176 0.22267 0.49089 0.24828 0.71906 0.0849 2.4422-1.7533 2.5496-3.5777 2.3151-5.1764-0.20217-1.374-1.1508-1.1751-1.0028 0.20721"/>
  <path d="m45.256 108.98c-1.9143 4.482-2.3609 9.2106-0.64589 14.848 0.08162 0.27177 1.1414 0.76162 1.037 0.49971-1.6843-4.2551-1.0711-12.423 0.66452-15.228 0.17826-0.28935-0.93268-0.40672-1.0558-0.11941"/>
  <path d="m84.12 124.92c-4.483 5.2396-12.811 8.0278-23.515 6.844-10.32-1.1408-18.735-7.3656-19.462-14.507-0.18795-1.8363 0.54501-1.9046 0.8316 0.0837 0.67946 4.733 7.5084 11.772 18.678 13.007 10.352 1.1445 19.115-1.7935 23.05-6.102 1.0062-1.1034 1.6435-0.7582 0.41797 0.67448"/>
 </g>
 <path d="m62.73 108.04s-1.0773 8.8589 1.5827 12.229c0 0-0.50811 8.1703-0.0543 10.986 0.45258 2.8124 0.99468 5.2356 1.0424 6.4381 0.0511 1.2-0.22874 5.0351 2.0545 5.0117 2.2823-0.022 4.9443-1.4115 6.5118-3.6513 1.5697-2.24 7.0288-9.7298 7.2153-20.664z" fill="#00b8f1"/>
 <g fill="#0f141b">
  <path d="m62.24 108.34c-0.80719 4.6562-0.60416 8.3979 1.805 12.654 0.13668 0.24749 0.71301-0.68056 0.57393-0.92793-1.3529-2.3905-1.8559-6.5212-1.4574-11.584 0.0218-0.28266-0.87207-0.42017-0.92153-0.14186"/>
  <path d="m64.03 120.83c-0.81805 4.5152-0.77197 11.364 0.0539 14.665 0.43332 1.7267 0.70298 2.6967 0.72691 3.5949 0.0218 0.78794-0.057 1.7836 0.22448 2.819 0.33418 1.2401 2.11 1.8557 4.3651 1.409 2.9156-0.57915 5.2774-3.9703 8.3595-9.8526 3.2436-6.1937 4.0015-10.313 3.745-13.71-0.16661-2.1854-1.0099-2.1925-1.0249-5e-3 -0.0258 4.7063-1.3283 9.226-3.3869 13.089-3.0692 5.7672-5.8033 8.8144-8.3592 9.3229-1.6621 0.32836-2.4833-0.29724-2.6107-0.77001-0.24923-0.92002-0.268-1.573-0.28704-2.3308-0.0246-0.9499-0.0547-2.0268-0.51514-3.8625-0.6639-2.6394-0.98545-10.292-0.28309-14.188 0.52855-2.9286-0.47798-3.1121-1.0076-0.18231"/>
  <path d="m66.95 138.15c0.069 0.74744-0.1786 1.3261-0.57529 1.9187-0.50704 0.75044-0.6088 1.5341-0.12856 2.4315 0.13362 0.24889 1.1589-8e-3 0.94154-0.18796-0.35526-0.29487-0.41579-0.9902 0.24916-2.1914 0.33211-0.59891 0.60646-1.499 0.39411-2.2545-0.33876-1.2149-0.99806-0.97413-0.88079 0.28373"/>
  <path d="m70.74 137.85c0.36544 2.3404 0.12622 3.4175-0.87794 3.981-0.24526 0.13902 0.50297 0.91228 0.71717 0.73115 1.547-1.3105 1.7392-2.4891 1.1716-4.8693-0.36819-1.5592-1.2571-1.4223-1.0108 0.15724"/>
 </g>
 <path d="m79.48 100.78-5.9668 3.6581c-7.9372-1.9498-4.4522-20.061-4.4522-20.061 3.8817-14.941 12.683-14.831 12.683-14.831 4.3896 0.52207 4.7926 5.9638 4.7926 5.9638s1.9725 18.012-7.0568 25.27" fill="#f6921e"/>
 <path d="m26.12 100.78c-0.71718-7.6877-4.9332-30.769-5.8319-32.651 0 0-2.1495 3.0209-3.3078 7.5013-1.8622-1.0458-7.9469-4.3662-9.0739-3.6639-1.3349 0.82865 0.84864 10.203 0.84864 10.203s-8.0354 6.7977-7.6784 8.4774c0.35806 1.6807 10.152 3.9974 10.152 3.9974s-0.24314 9.2974 0.82186 9.9025c0.8569 0.49058 7.5111-5.6388 10.073-8.0456 1.5079 1.8881 2.9824 3.3093 3.9968 4.2787" fill="#f6921e"/>
 <path d="m73.14 104.74c2.1491-1.0893 4.2543-2.4191 6.2578-4.0436 0 0-1.067-1.7162-1.7868-2.9586 0 0-2.5969 2.0888-7.2889 4.3942z" fill="#cb7a17"/>
 <path d="m73.14 104.74c-15.049 7.6141-32.281 3.2765-32.281 3.2765 12.851 0.77889 23.091-2.7508 29.464-5.8844z" fill="#79abc8"/>
 <g fill="#cb7a17">
  <path d="m20.199 94.407c-2.0977 3.1896-3.4291 5.5201-8.4707 10.402 0 0 2.3978 0.29849 10.187-8.0889z"/>
  <path d="m1.434 90.597c2.2073 0.9879 10.049 2.2501 11.853 2.3796 0.58534 0.0426 5.62e-4 2.1862-1.0885 2.1918-1.5974 7e-3 -9.2902-2.1382-10.764-4.5715"/>
  <path d="m7.863 73.587s0.95335 4.9498 1.9578 7.6161l-1.108 1.087s-2.5533-6.2771-0.85003-8.7031"/>
 </g>
 <g fill="#0f141b">
  <path d="m9.128 81.827c0.01702-0.0199 0.07293 0.49362 0.07293 0.49362-1.1002-4.5293-1.5495-9.0402-1.0113-9.4803 0.26306-0.21498 3.298 0.18762 8.5334 3.4754 0.2391 0.15163 0.71214-0.73911 0.48138-0.90582-4.3038-3.0983-8.8-4.6079-9.944-3.8951-1.1439 0.71281-0.54632 4.819 0.87613 10.752z"/>
  <path d="m11.746 94.797c-0.01 3.1259 0.06107 8.6425 0.92627 8.9789 0.63987 0.25266 5.28-4.0878 8.9796-7.635 0.20496-0.197 0.89315 0.52647 0.70902 0.73844-5.4204 6.295-9.6581 9.0866-10.627 8.6043-1.2771-0.63283-1.1959-5.0849-0.83411-10.479z"/>
  <path d="m11.827 94.437c-7.2451-1.9489-9.7807-3.1226-9.8423-3.7716-0.0786-0.84923 3.7199-5.1573 7.1871-8.3077 1.3957-1.2648 0.959-1.9488-0.40252-0.68049-4.4917 3.6819-8.8924 8.1114-8.767 9.3496 0.1686 1.6657 6.8088 3.29 10.898 3.9797 2.2436 0.50672 2.2581-0.20917 0.92623-0.5697"/>
  <path d="m45.978 108.35c-9.1542-0.8605-20.259-7.1144-24.265-12.997-3.4632-5.0834-4.2127-4.8187-1.6747-0.31511 4.0274 7.1495 14.884 13.571 25.685 14.346 4.3995 0.31385 4.1322-0.66875 0.25537-1.0335m12.291 1.0361c20.833-2.162 31.4-14.191 30.047-28.722-1.4684-15.769-15.019-29.632-35.321-29.889-19.185-0.2442-38.216 13.842-37.212 30.519 0.27489 4.587 1.1953 4.7278 1.1298-0.0297-0.23399-17.217 19.023-29.68 36.069-29.464 9.2156 0.1155 17.407 3.2576 23.688 9.0872 5.7558 5.3421 9.3123 12.421 10.01 19.93 1.2393 13.309-8.3367 25.092-28.502 27.538-3.5004 0.42174-3.6114 1.408 0.0923 1.0317"/>
  <path d="m73.58 104.01c-3.8381-0.67488-5.9568-8.7482-3.6457-19.872 2.2877-11.001 12.207-17.711 14.955-11.535l0.0637-1.3266c-2.0787-4.8958-12.994-1.8091-16.424 12.537-2.5174 10.53-0.10926 21.53 5.3041 20.933z"/>
  <path d="m20.07 68.867c1.4986 5.6372 4.7113 23.909 5.4804 31.248 0.02771 0.28249 0.88342 0.5804 0.86066 0.29967-0.80262-9.4288-3.4295-25.72-5.6832-32.592-0.05895-0.27755-0.71859 0.76676-0.65781 1.0439"/>
  <path d="m23.926 85.717c4.2011 4.6462 11.801 8.0856 19.547 8.72 8.6862 0.71139 17.847-0.89455 24.515-4.5401 0.24901-0.13602 0.31681-1.2815 0.0608-1.1619-7.653 3.6427-15.965 4.9756-24.47 4.2767-7.5074-0.6138-15.626-4.0049-19.665-8.4735-0.18727-0.21396-0.17794 0.96999 0.01179 1.1788"/>
  <path d="m40.711 85.107c0.45501-0.0139 0.58352 1.1109 0.08898 1.1469-0.5058 0.0377-0.70561-1.1278-0.08898-1.1469"/>
  <path d="m47.047 85.487c0.51557 0.0794 0.38141 1.23-0.19355 1.1528-0.54337-0.0732-0.46362-1.2528 0.19355-1.1528"/>
  <path d="m57.31 84.817c2.1332 0.30166 4.3286-2.0687 4.7684-5.6482 0.62694-5.1026-1.5772-7.6425-3.6258-7.738-2.2805-0.10425-4.226 2.4818-4.3988 7.0766-0.14361 3.8292 1.4503 6.0507 3.2562 6.3096"/>
  <path d="m32.597 82.787c1.7211 0.37841 3.9756-1.3946 4.6485-5.2528 0.77908-4.4856-0.498-7.2956-2.573-7.5904-1.9005-0.27159-4.2898 1.905-4.7637 6.4975-0.40056 3.8554 0.91074 5.9556 2.6881 6.3457"/>
 </g>
 <path d="m56.39 74.627c-0.14394 1.2789 0.45732 2.3939 1.545 2.5168 1.091 0.12112 2.0869-0.813 2.2318-2.0887 0.14168-1.2764-0.62459-2.411-1.7145-2.5337-1.0832-0.12331-1.9184 0.83114-2.0624 2.1056" fill="#fff"/>
 <path d="m32.426 72.907c-0.2196 1.1992 0.28026 2.2943 1.282 2.4759 1.0051 0.18023 1.8488-0.67025 2.0693-1.873 0.21359-1.2021-0.19622-2.3607-1.198-2.5424-1.0053-0.18246-1.9385 0.7361-2.1533 1.9394" fill="#fff"/>
 <path d="m86 105.34c1.5506-0.27848 2.148-6.9211 2.4975-8.7117 0 0 14.843-3.8637 15.583-5.8969 0.74237-2.0356-10.953-8.8048-10.953-8.8048s4.061-9.6867 3.0978-11.148c-0.96424-1.4598-16.734 9.342-16.734 9.342l-2.5549 16.421c1.4931 3.0367 6.9061 9.1872 9.064 8.7981" fill="#f6921e"/>
 <g fill="#cb7a17">
  <path d="m86.82 97.027c-0.10948 1.3918-0.0416 9.9367-2.5997 7.7588 0 0 1.2622 1.6698 2.3005 0.41576 1.0418-1.2533 2.0308-8.7133 2.0308-8.7133z"/>
  <path d="m87 97.247c-0.62788 0.0463-2.891-2.5819-0.75576-2.8394 4.3922-0.52735 16.058-3.3108 18.037-4.3246-1.8236 3.483-15.868 7.065-17.282 7.1639"/>
  <path d="m95.9 71.027c0.53667 2.5217-0.35474 5.1944-2.5924 11.13l-1.3295-0.73362s3.1118-6.6412 3.9217-10.396"/>
 </g>
 <g fill="#0f141b">
  <path d="m88.19 96.397c-0.18687 2.0594-1.6937 8.0733-2.4764 8.3209-0.71125 0.22851-5.5323-3.5959-7.2505-6.4483-1.6896-2.7998-2.5892-2.22-0.87147 0.54092 2.6054 4.1863 7.5348 7.9398 8.5569 7.4906 1.3803-0.60747 2.1552-2.645 2.7443-9.6677z"/>
  <path d="m93.89 81.887c6.6186 3.8373 11.198 7.2864 11.001 8.9636-0.17494 1.4982-5.6647 3.5872-15.998 6.1755-2.8012 0.66996-2.6734-0.29426-0.61565-0.88829 12.027-3.4798 14.64-4.9098 14.785-5.7358 0.14679-0.84536-4.9962-4.8088-10.118-7.8952-2.0157-1.2164-1.5242-2.0871 0.90698-0.64345"/>
  <path d="m93.85 81.857c2.6067-6.1716 3.6999-10.673 2.9789-11.385-1.0365-1.0247-6.2063 0.91713-15.784 8.1818-2.4883 1.8883-2.1181 2.5975 0.55992 0.85851 6.6489-4.3212 13.105-8.151 13.909-7.6219 0.80458 0.53132-2.8012 10.375-2.8012 10.375z"/>
 </g>
 <path d="m46.745 59.726c-0.14294-0.67749-6.288-26.246-2.9412-41.315 3.5508-15.988 12.877-18.15 18.312-17.738 7.1594 0.54365 12.681 12.735 10.973 23.631-1.707 10.895-5.6144 25.778-8.1813 30.706z" fill="#00b8f1"/>
 <g fill="#0f141b">
  <path d="m44.36 13.015c-3.0104 8.7583-3.1366 23.643 1.2613 44.95 0.53708 2.6107 1.6327 2.4061 1.0912-0.20191-3.8942-18.874-3.5865-35.949-0.82883-43.973 2.8583-8.3215 10.395-12.741 15.739-12.064 4.956 0.62713 8.4529 4.5591 10.211 12.135 1.9043 8.215-1.5309 26.813-6.6209 39.293-0.99554 2.4401-0.0512 2.8278 0.94756 0.38633 5.5626-13.639 8.9548-29.491 7.2673-40.206-0.98653-6.2618-5.0144-12.424-11.517-13.245-6.7122-0.84899-14.639 4.4533-17.551 12.926"/>
  <path d="m67.37 4.065c-0.62528 4.1163-2.9038 27.076-3.223 30.426-0.26843 2.804 0.61194 3.1221 1.0196 0.10565 0.66735-4.9474 2.8028-24.638 3.7327-29.26 0.0554-0.27791-1.4876-1.5497-1.5293-1.2708"/>
  <path d="m56.52 1.799c0.55594 8.389 0.42004 20.631-0.0841 28.663-0.24245 3.7989 0.67224 3.8546 1.0215 0.066 0.73907-8.0137 1.1937-20.74 0.63336-29.178-0.0181-0.28117-1.5915 0.16624-1.5708 0.44943"/>
 </g>
</svg>
