<?xml version="1.0" encoding="UTF-8"?>
<!-- Created with Inkscape (http://www.inkscape.org/) -->
<svg version="1.1" viewBox="0 0 144.11 118.95" xmlns="http://www.w3.org/2000/svg">
 <g transform="translate(-11.004 -15.772)">
  <g transform="matrix(.35278 0 0 -.35278 122.5 114.98)">
   <path d="m0 0-38.392 16.449-4.099 0.199-8.938-23.378c2.936-4.003 33.866-8.145 54.953 3.065z" fill="#074f64"/>
  </g>
  <g transform="matrix(.35278 0 0 -.35278 122.85 86.14)">
   <path d="m0 0-65.75 58.808c6.128 9.805 15.21 107.89 17.548 131.29 0.613 6.128 3.038 9.056 15.598 6.064 7.708-1.836 51.727-10.839 76.41-75.436 22.875-59.863 13.975-114.09 5.214-138.42z" fill="#1a657e"/>
  </g>
  <g transform="matrix(.35278 0 0 -.35278 138.3 43.549)">
   <path d="m0 0c-24.684 64.597-68.702 73.6-76.41 75.437-1.92 0.457-3.578 0.76-5.054 0.951-14.044-19.979-12.682-133.86-13.075-152.2-2.783-13.87 50.733-44.918 50.733-44.918l49.019-17.692c8.762 24.334 17.662 78.559-5.213 138.42" fill="#074f64"/>
  </g>
  <g transform="matrix(.35278 0 0 -.35278 66.052 99.207)">
   <path d="m0 0c-9.341-1.334-31.006-19.416-18.46-45.573z" fill="#f2984f"/>
  </g>
  <g transform="matrix(.35278 0 0 -.35278 71.028 93.439)">
   <path d="m0 0c-2.137-7.476-13.613-14.412-21.621-23.488-8.007-9.077-11.744-31.498-10.943-42.442 0.8-10.943-0.995-17.495-7.741-21.62-8.672-5.303-28.561-15.216-12.546-21.62-0.267-4.806 10.198-7.107 30.697-3.738 2.134-1.868 24.55-4.238 31.758 2.703 7.206 6.938 15.207 25.055 16.143 28.983 1.335 5.607-7.706 14.311 4.415 23.3 7 5.192 12.341 9.067 29.094 13.612 16.755 4.548-57.118 51.787-59.256 44.31" fill="#00aeeb"/>
  </g>
  <g transform="matrix(.35278 0 0 -.35278 71.028 93.439)">
   <path d="m0 0c-0.534-1.867-1.651-3.701-3.151-5.543 24.427-27.195 6.66-47.378 4.384-55.627-2.277-8.249 7.392-17.466 8.451-23.821 4.237-18.01-12.112-24.742-32.874-23.706-1.457 0.073 1.524 4.254 4.92 7.885 1.758 1.883 4.581 3.49 4.942 4.574-7.415 1.06-20.551-11.757-24.637-13.663-4.084-1.909-8.02-3.214-12.163-2.869 4.313-2.078 13.711-2.482 27.974-0.138 2.134-1.868 24.55-4.238 31.758 2.703 7.206 6.938 15.207 25.055 16.143 28.983 1.335 5.607-7.706 14.311 4.415 23.3 7 5.192 12.341 9.067 29.094 13.612 16.755 4.548-57.118 51.787-59.256 44.31" fill="#0098cd"/>
  </g>
  <g transform="matrix(.35278 0 0 -.35278 124.59 117.01)">
   <path d="m0 0c0.115-17.7 3.773-43.414 19.253-46.619 15.482-3.202 24.826-0.76 27.495 2.671 4.002-1.07 22.154-2.671 23.488 4.003 8.008-0.534 18.953 5.34 12.012 12.28-6.94 6.938-17.351 6.404-25.357 26.424 0 0-57.005 18.94-56.891 1.241" fill="#00aeeb"/>
  </g>
  <g transform="matrix(.35278 0 0 -.35278 153.61 126.77)">
   <path d="m0 0c-6.94 6.938-17.351 6.404-25.357 26.424 0 0-57.005 18.94-56.891 1.241 0.028-4.359 0.273-9.205 0.854-14.08 6.306 2.487 44.635-4.528 56.309-23.986 1.982-3.303 0-5.708-5.117-6.656 6.857-0.574 17.195-0.199 18.19 4.777 8.008-0.533 18.953 5.34 12.012 12.28" fill="#0098cd"/>
  </g>
  <g transform="matrix(.35278 0 0 -.35278 106.9 109.35)">
   <path d="m 0,0 c 5.071,1.068 28.826,-4.003 44.575,-16.814 15.749,-12.814 25.359,-22.155 42.975,-19.219 17.616,2.935 25.357,16.014 23.755,37.901 C 109.704,23.758 86.416,66.914 48.312,74.739 10.207,82.564 0,0 0,0" fill="#00aeeb"/>
  </g>
  <g transform="matrix(.35278 0 0 -.35278 146.17 108.69)">
   <path d="m0 0c-1.602 21.89-24.89 65.046-62.994 72.871s-48.311-74.739-48.311-74.739c3.383 0.713 15.089-1.314 27.182-6.544 19.158 14.779 51.173 12.79 69.053-4.096 5.297-5.298 7.094-9.689 6.704-18.133 1e-3 -4e-3 1e-3 -5e-3 1e-3 -8e-3 6.628 6.456 9.38 16.776 8.365 30.649" fill="#0098cd"/>
  </g>
  <g transform="matrix(.35278 0 0 -.35278 132.98 88.017)">
   <path d="m0 0c-6.65-2.85-3.288-29.045 10.221-47.21 13.97-18.784 25.794-20.439 28.227-17.52 2.434 2.92 2.153 24.45-11.719 43.904-10.513 14.741-23.322 22.286-26.729 20.826" fill="#f2984f"/>
  </g>
  <g transform="matrix(.35278 0 0 -.35278 142.41 95.364)">
   <path d="m0 0c-10.512 14.741-23.321 22.286-26.729 20.826-1.372-0.589-2.313-2.185-2.83-4.488 8.369 4.601 17.498-38.719 12.612-42.108 17.38-23.818 27.537-19.491 28.667-18.134 2.433 2.921 2.152 24.45-11.72 43.904" fill="#d18344"/>
  </g>
  <g transform="matrix(.35278 0 0 -.35278 61.704 83.879)">
   <path d="m0 0c-11.683 1.063-29.801 0.865-29.801 0.865-6.472-6.152-7.33-15.355-10.092-21.744-2.018-4.669-9.576-15.714-20.605-22.832-34.41-22.211-47.656-34.509-58.193-42.88-15.106-12.001-25.571-24.598-23.457-27.722 2.386-3.53 6.373-5.1 6.373-5.1s-2.988-3.714 7.339-7.274c8.074-2.783 12.808-1.948 15.106 2.722 3.127 6.357 11.137 13.459 14.85 15.779-2.392-6.25-6.29-21.562-0.999-23.234 6.195-1.956 22.275-2.784 23.946 6.127 1.983 10.574 5.359 24.994 8.608 27.78 4.64 1.391 25.052 9.461 33.435 28.742 9.955 22.896 9.467 33.969 17.264 43.715 7.172 8.964 16.124 13.856 18.444 14.785 4.641-1.394 11.602-3.714 16.706-6.498 0 0-7.241 15.707-18.924 16.769" fill="#00aeeb"/>
  </g>
  <g transform="matrix(.35278 0 0 -.35278 30.375 130.68)">
   <path d="m 0,0 c 6.114,0.203 12.272,2.046 13.272,7.378 1.983,10.574 5.359,24.994 8.608,27.78 2.623,0.786 10.284,3.71 17.962,9.587 C 31.94,43.472 26.727,44.714 20.587,41.69 8.995,35.98 9.514,3.625 0,0" fill="#0098cd"/>
  </g>
  <g transform="matrix(.35278 0 0 -.35278 28.665 118.84)">
   <path d="m0 0c-21.628-9.516-25.261-25.607-31.236-28.353-0.071-0.071-0.161-0.129-0.236-0.197 6.082-1.473 9.831-0.291 11.795 3.697 2.503 5.088 8.13 10.647 12.181 13.856 3.672 3.566 5.247 8.229 7.496 10.997" fill="#0098cd"/>
  </g>
  <g transform="matrix(.35278 0 0 -.35278 61.704 83.879)">
   <path d="m0 0c-11.683 1.063-29.801 0.865-29.801 0.865-1.97-1.873-3.416-4.032-4.559-6.305 7.148 0.626 14.763-5.504 13.292-12.908-1.473-7.403-8.161-39.242-16.407-57.616 1.5 2.202 2.855 4.594 3.985 7.193 9.955 22.896 9.467 33.969 17.264 43.715 7.172 8.964 16.124 13.856 18.444 14.785 4.641-1.394 11.602-3.714 16.706-6.498 0 0-7.241 15.707-18.924 16.769" fill="#0098cd"/>
  </g>
  <g transform="matrix(.35278 0 0 -.35278 43.406 98.023)">
   <path d="m0 0c-2.903 2.033-20.303-0.774-34.526-13.644-11.694-10.579-18.377-26.728-12.25-29.235 6.125-2.508 21.717 4.733 36.195 17.263 9.868 8.538 16.15 21.718 10.581 25.616" fill="#f2984f"/>
  </g>
  <g transform="matrix(.35278 0 0 -.35278 43.406 98.023)">
   <path d="m0 0c-0.123 0.086-0.281 0.159-0.456 0.229-7.91-20.499-25.417-35.126-45.392-43.373 6.656-1.541 21.458 5.576 35.267 17.528 9.868 8.538 16.15 21.718 10.581 25.616" fill="#d18344"/>
  </g>
  <g transform="matrix(.35278 0 0 -.35278 108.21 86.768)">
   <path d="m0 0c-7.385 15.04-75.328 24.505-69.978 42.771-18.756-21.229-61.057-34.582-61.057-34.582 5.06-3.373 19.343-19.524 31.71-37.514 12.367-17.988 25.296-37.663 68.582-34.291 0 0 38.128 48.576 30.743 63.616" fill="#e9eff8"/>
  </g>
  <g transform="matrix(.35278 0 0 -.35278 105.64 96.731)">
   <path d="m0 0c6.066 11.271 10.179 22.339 7.282 28.241-7.385 15.04-75.328 24.505-69.978 42.771-18.757-21.229-61.057-34.581-61.057-34.581 2.886-1.924 8.773-8.006 15.59-16.212 35.219 14.929 106.87 14.835 108.16-20.219" fill="#c9cfd7"/>
  </g>
  <g transform="matrix(.35278 0 0 -.35278 109.75 73.814)">
   <path d="m0 0c-22.013 9.172-58.664 21.387-67.69 18.466-2.124-5.841-8.498-15.135-8.498-15.135-1.124-8.433-0.192-12.599 21.408-20.345 21.441-7.688 41.595-11.369 46.092-22.049 0 0 30.702 29.891 8.688 39.063" fill="#fff"/>
  </g>
  <g transform="matrix(.35278 0 0 -.35278 109.75 73.814)">
   <path d="m0 0c-22.013 9.172-58.664 21.387-67.69 18.466-2.124-5.841-8.498-15.135-8.498-15.135-1.124-8.433-0.192-12.599 21.408-20.345 21.441-7.688 41.595-11.369 46.092-22.049 0 0 30.702 29.891 8.688 39.063" fill="#0098cd"/>
  </g>
  <g transform="matrix(.35278 0 0 -.35278 85.903 66.911)">
   <path d="m0 0c8.935 2.087 15.408 2.448 21.266 1.151 11.603 2.403 34.229 7.225 47.333 7.92 11.708 0.621 15.676-6.148 25.233-23.575s19.044-38.503 19.044-49.184 9.168-25.389 15.178-34.291c9.796-14.508 12.006-20.954 10.164-24.636-2.161-4.327-15.116-12.249-18.034-10.217-8.855 6.164-11.978 25.91-23.221 34.343-2.394-11.971 4.421-38.124 5.71-44.387 0.969-4.703-29.141-11.639-31.862-4.604-6.632 17.128-6.079 36.467-6.079 36.467s-9.395-23.943-11.787-34.073c-1.172-4.954-27.565-4.97-25.969 9.394 2.21 19.89 20.004 48.758 25.75 57.388 11.453 17.203 8.322 45.751 7.77 60.117-15.287 2.578-23.451-0.364-44.103-5.348-28.292-6.827-25.33 21.448-16.393 23.535" fill="#00aeeb"/>
  </g>
  <g transform="matrix(.35278 0 0 -.35278 117.96 112.74)">
   <path d="m0 0c0-10.728-3.114-14.881-18.845-19.037 6.299-4.424 31.523 1.755 30.636 6.068-1.286 6.249-8.073 32.301-5.723 44.307-1.954 3.313-3.646 7.247-5.376 7.593-1.73 0.345-0.692-28.204-0.692-38.931" fill="#0098cd"/>
  </g>
  <g transform="matrix(.35278 0 0 -.35278 108.46 101.94)">
   <path d="m0 0c-4.899-5.879-11.82-48.616-33.98-44.412 6.684-6.057 22.09-5.148 22.98-1.388 2.392 10.13 11.787 34.073 11.787 34.073s-0.033-1.172 0.015-3.191c0.957 5.055 4.098 20.796-0.802 14.918" fill="#0098cd"/>
  </g>
  <g transform="matrix(.35278 0 0 -.35278 131.08 101.48)">
   <path d="m0 0c-6.01 8.902-15.178 23.61-15.178 34.291 0 10.682-9.487 31.758-19.044 49.185-9.557 17.426-13.526 24.196-25.233 23.575-13.105-0.696-35.73-5.518-47.334-7.92-5.857 1.297-12.331 0.935-21.265-1.152-8.937-2.086-11.9-30.362 16.392-23.535 2.496 0.604 4.808 1.176 6.974 1.712-0.655 15.454 45.368 28.258 52.636 21.684 7.266-6.576 22.493-41.353 25.952-65.404 1.955-13.583 16.571-23.843 27.165-51.387 2.181-6.544-7.785-13.669-12.474-12.423 1.088-1.393 2.252-2.583 3.539-3.479 2.917-2.032 15.872 5.89 18.034 10.217 1.841 3.683-0.369 10.128-10.164 24.636" fill="#0098cd"/>
  </g>
  <g transform="matrix(.35278 0 0 -.35278 107.7 73.847)">
   <path d="m0 0c-1.927-4.464-7.551-14.733-4.604-34.072 1.837-12.058 9.945-29.653 20.627-29.285 8.959 0.309 14.533 13.998 14.367 29.469-0.185 17.127-8.072 32.636-12.709 37.572-5.709 6.078-13.629 5.71-17.681-3.684" fill="#f2984f"/>
  </g>
  <g transform="matrix(.35278 0 0 -.35278 113.94 72.548)">
   <path d="m0 0c-2.637 2.807-5.743 4.218-8.725 4.021 16.66-19.041 17.466-62.283 4.544-70.802 0.823-0.192 1.664-0.288 2.523-0.26 8.959 0.31 14.533 13.998 14.366 29.47-0.184 17.127-8.071 32.635-12.708 37.571" fill="#d18344"/>
  </g>
  <g transform="matrix(.35278 0 0 -.35278 55.569 49.785)">
   <path d="m0 0c-29.754-13.839-44.749-38.946-45.991-59.662-1.242-20.717 9.557-29.476 25.689-34.805 46.405-15.33 100.37 13.239 108.14 53.449 7.043 36.46-18.557 44.85-36.462 47.647-13.258 2.071-33.56 1.658-51.375-6.629" fill="#00aeeb"/>
  </g>
  <g transform="matrix(.35278 0 0 -.35278 84.094 52.063)">
   <path d="m0 0c-7.799 8.402-19.771 11.57-29.483 13.087-4.725 0.738-10.352 1.15-16.434 1.013-1.107-15.28 6.439-29.759 12.23-44.24 1.287 1.112 2.592 2.091 3.914 2.958 7.496 10.975 19.418 26.968 29.773 27.182" fill="#0098cd"/>
  </g>
  <g transform="matrix(.35278 0 0 -.35278 52.425 51.458)">
   <path d="m0 0c-13.807-8.31-23.689-19.194-29.771-30.489 16.928-3.024 32.597-13.493 48.776-19.376-13.088 20.713-20.347 42.037-19.005 49.865" fill="#0098cd"/>
  </g>
  <g transform="matrix(.35278 0 0 -.35278 84.184 64.395)">
   <path d="m0 0c-17.524-50.449-84.171-56.025-100.1-44.608-1.192-5.877-3.094-5.877-8.365-5.704 2.208-1.015 4.565-1.917 7.05-2.74 45.869-15.153 99.119 12.585 107.85 52.062-2.934-0.334-3.508-0.337-6.429 0.99" fill="#e9eff8"/>
  </g>
  <g transform="matrix(.35278 0 0 -.35278 53.202 81.628)">
   <path d="m0 0c-5.256 0.814-9.529 2.271-12.277 4.24-1.192-5.877-3.094-5.877-8.366-5.703 2.208-1.016 4.565-1.918 7.051-2.74 2.301-0.76 4.621-1.403 6.953-1.952 1.708 2.484 4.017 4.637 6.639 6.155" fill="#c9cfd7"/>
  </g>
  <g transform="matrix(.35278 0 0 -.35278 86.452 64.745)">
   <path d="m0 0c-2.934-0.334-3.508-0.337-6.429 0.99-4.65-13.389-12.762-23.618-22.467-31.207 0.609-3.242 1.709-6.228-0.395-10.054 14.808 10.079 25.739 24.202 29.291 40.271" fill="#c9cfd7"/>
  </g>
  <g transform="matrix(.35278 0 0 -.35278 79.661 64.81)">
   <path d="m0 0s-1.745-10.465-2.696-11.258c-0.951-0.792-9.439 0.75-9.439 0.75l-5.577-3.717s-7.926-15.542-10.09-16.197c-2.164-0.654-21.824 2.992-21.824 2.992l-10.148-3.805s-4.654-8.77-6.053-8.904c-1.399-0.133-10.356 5.842-10.356 5.842l-0.382-0.031c-3.249-2.955-4.407-7.266-5.087-11.536 25.6-8.424 77.506 3.367 93.82 44.364-2.561 1.427-5.575 2.393-8.273 3.539z" fill="#ed8599"/>
  </g>
  <g transform="matrix(.35278 0 0 -.35278 62.154 74.487)">
   <path d="m0 0-10.147-3.806s-0.903-1.701-2.033-3.617c6.264 1.766 13.345 4.029 20.657 5.945-4.54 0.749-8.477 1.478-8.477 1.478" fill="#ce7486"/>
  </g>
  <g transform="matrix(.35278 0 0 -.35278 83.953 65.339)">
   <path d="m0 0c-2.561 1.427-5.575 2.393-8.273 3.539l-3.895-2.039s-1.745-10.465-2.697-11.258c-0.951-0.792-9.439 0.75-9.439 0.75l-5.577-3.717s-3.315-6.499-6.242-11.268c6.597 0.762 17.617 2.814 18.785-0.851 7.287 6.645 13.37 14.874 17.338 24.844" fill="#ce7486"/>
  </g>
  <g transform="matrix(.35278 0 0 -.35278 54.887 78.234)">
   <path d="m0 0c-2.844 1.679-5.959 3.755-5.959 3.755l-0.382-0.031c-3.249-2.955-4.407-7.266-5.087-11.536 0.843-0.278 1.723-0.526 2.619-0.758 1.364 4.227 5.288 6.379 8.809 8.57" fill="#ce7486"/>
  </g>
  <g transform="matrix(.35278 0 0 -.35278 82.779 63.178)">
   <path d="m0 0-4.945-2.589c2.698-1.146 5.713-2.112 8.274-3.539 0.401 1.012 0.802 2.025 1.161 3.073z" fill="#922f00"/>
  </g>
  <g transform="matrix(.35278 0 0 -.35278 52.65 76.92)">
   <path d="m0 0-10.714-0.873-0.487-7.973c1.805-1.05 3.858-1.947 6.114-2.69 0.68 4.27 1.838 8.581 5.087 11.536" fill="#922f00"/>
  </g>
  <g transform="matrix(.35278 0 0 -.35278 41.664 68.074)">
   <path d="m0 0c-3.063 0.39-5.743-2.325-6.862-4.835-19.525-11.3-49.333-32.769-48.613-34.641 0.72-1.87 25.284 2.654 25.284 2.654s-20.675-17.341-18.371-19.645 48.617 13.016 58.976 17.159c6.693-2.904 13 2.128 7.457 19.474-3.494 10.934-11.7 19.051-17.871 19.834" fill="#f2984f"/>
  </g>
  <g transform="matrix(.35278 0 0 -.35278 47.968 75.071)">
   <path d="m0 0c-2.414 7.554-6.709 13.141-10.967 16.229 6.194-8.623 10.949-26.61 4.995-28.594-16.486-7.326-61.376-23.354-60.461-24.268 2.304-2.305 48.617 13.016 58.975 17.159 6.694-2.904 13 2.128 7.458 19.474" fill="#d18344"/>
  </g>
  <g transform="matrix(.35278 0 0 -.35278 82.753 50.603)">
   <path d="m0 0c15.409 4.608 50.835 11.953 51.556 10.945 0.72-1.007-2.245-4.068-2.245-4.068s10.394 2.426 10.969 0.986c0.576-1.44-26.15-28.457-48.673-43.662-1.095-4.668-7.045-8.286-14.087 4.973-7.043 13.258-5.298 37.739 2.48 30.826" fill="#f2984f"/>
  </g>
  <g transform="matrix(.35278 0 0 -.35278 104.02 47.829)">
   <path d="m0 0c-0.576 1.439-10.969-0.986-10.969-0.986s2.965 3.06 2.244 4.068c-0.72 1.008-36.146-6.337-51.555-10.945-4.185 3.719-6.62-1.655-6.882-9.475 1.947-1.571 4.321-2.563 6.962-3.105 21.563 6.748 40.736 11.941 41.934 9.943 1.197-1.997-2.35-9.3-4.614-12.739 13.111 11.635 23.236 22.346 22.88 23.239" fill="#d18344"/>
  </g>
  <g transform="matrix(.35278 0 0 -.35278 59.022 68.813)">
   <path d="m0 0c-5.25 16.836-39.207 63.468-65.723 77.141-26.517 13.672-42.262 9.115-45.991 0.415-3.728-8.702 6.63-19.06 19.888-26.518 13.259-7.457 29.496-24.412 39.855-39.741 4.895 3.456 17.098 0.015 34.524-13.234z" fill="#1a657e"/>
  </g>
  <g transform="matrix(.35278 0 0 -.35278 70.914 64.659)">
   <path d="m0 0c-22.467 37.73-11.386 85.095 0.833 108.46 14.088 26.931 37.511 36.076 36.897 18.305-0.747-21.676-19.08-42.75-12.45-81.698-3.097-2.627-12.171-9.107-13.898-28.548z" fill="#1a657e"/>
  </g>
  <g transform="matrix(.35278 0 0 -.35278 83.415 21.811)">
   <path d="m0 0c-27.795-4.205-42.435-54.777-27.843-94.173 1.006-4.018 4.68-8.014 4.68-8.014 1.727 19.442 9.911 23.163 13.007 25.791-5.832 34.261 7.654 54.692 11.491 73.868 0.225 1.125 0.317 2.782-1.335 2.528" fill="#074f64"/>
  </g>
  <g transform="matrix(.35278 0 0 -.35278 75.397 61.726)">
   <path d="m0 0c-0.996-5.516-6.542-10.916-10.37-10.225-3.827 0.692-5.132 7.176-4.032 12.673 1.296 6.481 5.388 10.052 9.217 9.361 3.828-0.691 6.18-6.291 5.185-11.809" fill="#f2984f"/>
  </g>
  <g transform="matrix(.35278 0 0 -.35278 53.988 70.974)">
   <path d="m0 0c4.407-3.465 12.142-4.354 14.545-1.296 2.406 3.058-0.305 8.825-4.777 12.206-5.269 3.988-10.701 3.944-13.106 0.885-2.405-3.058-1.068-8.329 3.338-11.795" fill="#f2984f"/>
  </g>
  <g transform="matrix(.35278 0 0 -.35278 73.829 57.631)">
   <path d="m0 0c3.656-8.71 1.346-16.223-4.006-21.711 3.548 0.911 7.613 5.46 8.452 10.106 0.928 5.151-1.061 10.373-4.446 11.605" fill="#d18344"/>
  </g>
  <g transform="matrix(.35278 0 0 -.35278 59.13 69.198)">
   <path d="m0 0c0-0.213-0.024-3.497-2.475-4.723-2.45-1.225-8.578-1.532-13.379 0.84 0.395-0.399 0.816-0.786 1.278-1.15 4.408-3.465 12.142-4.354 14.546-1.296 1.264 1.607 1.106 3.964 0.03 6.329" fill="#d18344"/>
  </g>
  <g transform="matrix(.35278 0 0 -.35278 102.19 49.668)">
   <path d="m0 0c-3.357-25.226-6.034-40.506-8.111-43.831l2.088 0.159c2.605 4.169 5.578 22.288 8.483 45.946-1.05-0.718-1.431-1.537-2.46-2.274" fill="#0f141b"/>
  </g>
  <g transform="matrix(.35278 0 0 -.35278 139.01 43.631)">
   <path d="m0 0c-23.538 61.595-65.714 74.511-77.697 77.588-14.559 3.739-17.106-0.844-17.606-4.991-3.988-33.1-5.641-62.496-8.427-84.095 0.96 0 1.307-0.168 2.222-0.168 3.18 26.415 5.306 58.049 8.558 81.164 0.44 3.132 1.568 8.653 14.348 5.128 11.66-3.215 52.471-14.206 75.615-74.772 20.817-54.478 15.815-108.22 5.207-137.68l1.754-0.596c11.282 24.503 16.222 85.571-3.974 138.43" fill="#0f141b"/>
  </g>
  <g transform="matrix(.35278 0 0 -.35278 104.85 64.498)">
   <path d="M 0,0 2.499,0.445 C -1.333,5.556 2.664,62.596 3.541,71.847 4.416,81.099 3.02,90.609 1.952,73.636 1.413,65.074 -4.113,5.484 0,0" fill="#0f141b"/>
  </g>
  <g transform="matrix(.35278 0 0 -.35278 126.78 25.535)">
   <path d="m0 0c0.477-4.818-17.678-87.579-28.269-122.24l1.935-2.09c10.772 35.257 28.144 118.56 27.623 123.74z" fill="#0f141b"/>
  </g>
  <g transform="matrix(.35278 0 0 -.35278 121.87 76.885)">
   <path d="M 0,0 0.36,-2.228 C 25.922,18.86 56.891,45.544 58.732,50.15 l -0.779,1.226 C 56.58,47.945 35.999,29.699 0,0" fill="#0f141b"/>
  </g>
  <g transform="matrix(.35278 0 0 -.35278 130.55 85.379)">
   <path d="m 0,0 2.341,-1.342 c 10.373,3.608 30.18,12.189 32.834,15.374 l 0.736,2.065 C 33.562,13.279 11.287,3.926 0,0" fill="#0f141b"/>
  </g>
  <g transform="matrix(.35278 0 0 -.35278 66.095 99.503)">
   <path d="m0 0 2.069 3.193c-18.149-3.672-33.302-29.966-21.096-48.794l0.868 1.871c-2.752 6.039-3.566 11.515-3.299 16.269 1.656 0.163 3.936 0.203 4.816-0.149l0.344 1.469c-1.09 0.435-3.041 0.351-5.077-0.251 0.418 4.523 1.794 8.35 3.379 11.315 0.857 1.603 1.824 3.073 2.851 4.426 1.908 0.155 3.781-0.249 4.602-0.659l0.68 1.43c-0.816 0.407-2.34 0.585-4.412 0.319 4.825 5.832 10.787 9.062 14.275 9.561" fill="#0f141b"/>
  </g>
  <g transform="matrix(.35278 0 0 -.35278 89.629 109.03)">
   <path d="m0 0c-8.797-2.084-19.648-9.492-24.165-13.398-7.316-6.331-5.429-13.202-4.714-18.574 0.306-2.298 0.57-4.281 0.212-5.789-0.914-3.835-9.203-19.653-16.253-26.442-3.837-3.694-9.354-4.37-14.413-4.722-3.345-0.233-15.985-1.385-16.305 3.936-0.12 1.991 2.197 4.486 3.392 5.849 2.785 3.173 6.348 5.775 9.509 8.562 2.515 2.22 0.528 1.908-1.51 0.421-2.038-1.489-15.467-10.92-14.469-16.548 0.09-0.509 0.391-0.971 0.808-1.392-6.872-0.994-14.393-2.047-21.256-0.507-2.108 0.471-3.615 2.074-3.635 4.222-0.032 3.422 3.746 7.324 15.771 15.753 3.133 2.195 2.002 2.198-1.318 0.531-3.103-1.558-15.551-9.632-17.202-15.376-3.139 1-4.93 2.671-5.034 4.203-0.311 4.57 7.59 9.179 16.251 13.966 8.66 4.789 10.878 12.973 10.097 23.659-0.796 10.865 3.026 32.48 10.649 41.121 2.992 3.39 6.668 7.337 10.192 10.629 5.986 5.591 10.445 8.972 10.998 12.488l-2.5 3.152c0.74-4.586-4.48-8.989-9.945-14.093-3.559-3.324-7.086-6.909-10.303-10.234-9.528-9.851-11.316-27.85-11.316-39.932 0-1.172 0.037-2.272 0.11-3.287 0.201-2.734 0.352-5.083 0.352-7.141 0-6.405-3.681-11.942-9.379-14.519-24.152-10.92-18.808-19.737-10.334-22.222 0.438-3.149 3.101-6.649 14.668-6.452 4.466 0.076 9.736 0.747 15.582 2.175 4.798-3.265 25.94-3.56 33.163 3.393 7.439 7.164 13.051 20.406 14.585 24.351 1.852 4.767 2.025 8.319 1.403 9.984-2.418 6.472-2.263 12.437 4.437 17.714 7.066 5.566 17.152 10.669 28.007 13.404z" fill="#0f141b"/>
  </g>
  <g transform="matrix(.35278 0 0 -.35278 151.83 124.68)">
   <path d="m0 0c-5.803 3.399-13.931 6.441-19.384 20.075l-1.553-1.908c5.723-14.309 12.278-16.424 18.374-19.995 2.501-1.466 9.995-6.63 8.436-9.973-1.391-2.985-6.526-5.298-11.588-5.224-0.41 2.371-12.282 11.097-14.353 13.168-2.071 2.073-2.679 1.197-1.191-0.437s12.946-11.194 12.946-13.647c0-6.321-21.483-3.981-21.483-3.981 0 4.219-9.593 11.464-14.787 16.312-1.877 1.753-2.489 1.188-1.194-0.602 1.296-1.787 12.392-10.563 12.392-14.512 0-2.52-10.452-5.995-24.344-3.122-14.518 3.004-18.551 34.693-17.982 44.63l-2.687 1.696c-0.501-8.762 2.155-46.117 18.824-49.566 15.838-3.277 25.928-0.066 29.15 3.254 4.059-0.889 16.809-2.017 22.193 1.332 1.15 0.715 2.084 1.929 2.516 2.959 6.801-0.147 12.602 2.68 14.525 6.51 1.946 3.879-1.746 8.89-8.81 13.031" fill="#0f141b"/>
  </g>
  <g transform="matrix(.35278 0 0 -.35278 123.32 116.06)">
   <path d="m0 0c-1.218-0.647-2.466-1.23-3.729-1.773 0.144-0.722 0.486-2.254 0.547-2.976 2.535 1.063 3.827 2.228 5.019 2.837z" fill="#0f141b"/>
  </g>
  <g transform="matrix(.35278 0 0 -.35278 146.68 110.58)">
   <path d="m0 0c-0.764-1.307-1.083-0.876-2.34-1.676-0.454-17.314-8.172-27.349-23.038-29.828-15.787-2.63-24.86 4.82-38.595 16.101l-3.538 2.895c-1.214 0.987-2.482 1.921-3.773 2.827 0.043-0.877 4e-3 -1.757 0.05-2.633 0.814-0.594 1.612-1.206 2.386-1.837l5.011-4.667c13.673-11.229 23.682-18.493 40.416-15.703 14.549 2.425 24.334 12.44 23.421 34.521" fill="#0f141b"/>
  </g>
  <g transform="matrix(.35278 0 0 -.35278 110.48 118.49)">
   <path d="m0 0c-0.994 0.057-1.954 0.134-2.886 0.221-1.514 4.581-4.904 18.725-3.968 24.686 0.478-0.039 0.993-0.09 1.544-0.161 0.073 0.943 0.243 1.885 0.393 2.791-1.837 0.216-3.303 0.233-4.257 0.031l-0.739-2.713c0.478 0.103 1.154 0.138 1.988 0.112-0.96-6.032 1.198-19.39 2.567-24.466-6.031 0.782-10.262 2.153-11.125 3.33l-0.184-2.642c1.62-2.208 9.16-4.397 19.455-4.378-1.267 0.996-2.122 2.028-2.788 3.189" fill="#0f141b"/>
  </g>
  <g transform="matrix(.35278 0 0 -.35278 124.02 82.619)">
   <path d="m0 0 0.548-2.91c9.93-1.944 18.738-6.312 26.377-12.06 1.928-0.37 3.741-0.99 5.511-1.924-9.632 8.923-20.059 14.47-32.436 16.894" fill="#0f141b"/>
  </g>
  <g transform="matrix(.35278 0 0 -.35278 132.86 87.743)">
   <path d="m0 0m35.29-65.797c-5.15 0.143-14.173 5.026-24.056 18.314-10.491 14.106-15.157 33.752-12.784 42.559 0.336 1.246 0.993 2.842 2.218 3.366 2.586 1.109 14.98-5.502 25.704-20.542 13.67-19.169 13.857-40.348 11.759-42.867-0.471-0.563-1.506-0.866-2.841-0.83m-35.29 65.797c-6.41-2.75-5.388-28.716 9.576-48.832 15.766-21.198 28.376-18.758 29.856-17.219 3.142 3.269 3.121 24.432-10.67 43.775-10.837 15.197-24.889 23.933-28.762 22.276" fill="#0f141b"/>
  </g>
  <g transform="matrix(.35278 0 0 -.35278 136.87 104.9)">
   <path d="m 0,0 0.441,-1.489 c 1.727,3.887 11.995,15.032 23.082,13.908 l -0.899,1.4 C 9.85,15.353 1.81,4.073 0,0" fill="#0f141b"/>
  </g>
  <g transform="matrix(.35278 0 0 -.35278 136.02 93.93)">
   <path d="m0 0c-4.49-2.583-7.754-6.541-8.953-10.86l0.557-1.15c2.38 8.57 15.197 15.118 22.638 13.167l-0.383 1.037c-4.302 1.196-9.354 0.396-13.859-2.194" fill="#0f141b"/>
  </g>
  <g transform="matrix(.35278 0 0 -.35278 50.659 83.57)">
   <path d="m0 0c-7.461-5.571-8.763-19.494-9.558-21.335-1.57-3.632-7.235-12.295-15.826-19.185 1.053 0.063 2.097 0.057 3.089-0.179 7.921 6.884 13.152 14.985 14.682 18.523 0.842 1.951 1.499 4.107 2.193 6.389 1.625 5.346 3.307 10.873 7.656 15.009z" fill="#0f141b"/>
  </g>
  <g transform="matrix(.35278 0 0 -.35278 22.258 112.93)">
   <path d="m0 0c3.725 2.925 7.806 6.433 12.945 10.427 0.475 1.76-0.349 0.533 0.495 2.202-6.551-4.328-9.371-5.836-14.788-10.992-1.356-1.291-4.819-3.936-6.187-5.042-12.272-9.908-25.431-24.225-24.298-27.485 1.746-5.018 5.723-5.829 7.136-6.55-0.054-0.233-1.905-4.071 7.955-7.956 5.347-2.105 12.315-4.138 15.677 2.691 2.384 4.845 9.387 12.53 13.336 15.677-1.208-3.896-3.393-12.633-3.393-17.198 0-1.924-0.13-4.875 2.925-5.965 5.001-1.788 15.475-2.549 21.291 0.935 2.345 1.404 3.988 3.057 4.446 5.498 2.732 14.574 5.629 25.494 7.944 27.678 14.526 4.606 26.107 13.439 32.415 26.253 7.487 15.208 12.635 39.073 18.517 46.466 6.796 8.542 15.047 13.152 17.467 14.215 4.787-1.448 11.547-3.577 16.349-6.196l-4.363 4.422c-4.516 2.462-7.259 3.328-11.531 4.02-3.86 0.624-10.574 0.224-11.263-0.602-0.687-0.825 4.129-0.09 7.756-0.967-2.614-0.964-8.874-4.454-16.069-13.568-5.866-7.431-13.037-33.901-17.408-43.955-9.055-20.823-29.636-27.031-29.873-27.101 0 0 1.101 1.375 0.964 2.201-0.137 0.827-1.475-0.483-3.653-3.385-4.913-6.551-7.824-19.249-9.552-28.464-0.345-1.847-1.402-3.276-3.23-4.372-4.964-2.973-14.594-2.443-19.355-0.94-0.524 0.164-0.929 0.558-1.24 1.2-1.899 3.934 0.714 14.411 2.909 20.645 2.196 6.233 6.186 11.188 3.571 9.399-2.614-1.788-5.228-7.843-5.228-7.843-3.544-2.214-11.815-9.748-15.133-16.488-1.361-2.767-4.161-5.514-13.809-2.188-1.953 0.673-7.487 3.755-5.753 7.513 2.759 5.984 19.879 24.123 23.905 27.807 2.993 2.737 2.707 3.822-0.918 0.824-8.967-7.419-22.102-21.437-25.298-28.523-1.202 0.615-3.553 2.03-5.117 4.343-1.169 1.73 6.026 12.515 23.239 26.3 1.934 1.549 4.884 4.019 6.217 5.064" fill="#0f141b"/>
  </g>
  <g transform="matrix(.35278 0 0 -.35278 42.369 103.53)">
   <path d="m0 0c-2.606 7.361-7.725 10.211-16.703 10.859 9.561 4.479 17.706 5.086 19.157 4.07 3.034-2.124 2.214-7.782-2.454-14.929m-8.194-9.354c-3.607-3.12-7.159-5.812-10.562-8.106-2.376 8.829-13.881 12.113-18.142 12.516 1.738 2.184 3.701 4.325 5.88 6.296 4.272 3.863 8.764 6.756 13.026 8.884 8.918-0.663 14.415-4.302 17.2-11.396-2.027-2.885-4.561-5.735-7.402-8.194m-35.322-17.118c-0.924 0.379-1.48 1.161-1.695 2.394-0.664 3.794 2.226 11.17 7.6 18.224 4.214-0.51 14.752-4.294 17.94-12.223-10.835-7.129-19.972-9.979-23.845-8.395m46.942 42.79c-3.633 1.8-21.641-0.857-36.114-13.953-9.102-8.236-15.312-20.347-14.193-26.736 0.317-1.801 1.258-3.07 2.723-3.669 6.564-2.687 21.898 4.274 38.026 17.889 10.525 8.882 15.069 23.736 9.558 26.469" fill="#0f141b"/>
  </g>
  <g transform="matrix(.35278 0 0 -.35278 61.97 84.395)">
   <path d="m0 0c4.858-3.241 18.594-18.785 30.877-36.65l0.472-0.688c17.023-24.777 26.063-37.641 67.305-34.429l1.595 2.481c-42.124-3.283-54.848 15.237-67.153 33.145l-0.473 0.689c-12.895 18.758-25.121 32.391-30.079 35.698z" fill="#0f141b"/>
  </g>
  <g transform="matrix(.35278 0 0 -.35278 90.299 80.167)">
   <path d="m0 0c4.958-1.778 9.795-3.327 14.475-4.824 14.878-4.76 27.727-8.87 30.999-16.641l0.301 2.676c-3.47 7.683-13.831 11.056-29.841 16.178-4.662 1.492-10.296 2.84-15.218 4.605-21.233 7.613-21.673 12.442-20.622 20.32l-1.595-0.553c-1.165-8.732-0.769-13.776 21.501-21.761" fill="#0f141b"/>
  </g>
  <g transform="matrix(.35278 0 0 -.35278 107.34 71.814)">
   <path d="m0 0c-0.962 4.266-1.695 4.486-1.695 1.595 0-1.584 0.078-4.567 0.078-4.567-14.455 2.419-31.096-1.989-40.575-5.545-3.966-1.485-3.916-2.737-0.757-1.727 6.951 2.223 26.744 7.228 41.655 5.007 0.062-1.267-0.244-5.4-0.244-5.4 0.02-0.349 1.468 2.907 2.029 4.04-0.184 3.909-0.287 5.693-0.491 6.597" fill="#0f141b"/>
  </g>
  <g transform="matrix(.35278 0 0 -.35278 131.39 101.27)">
   <path d="m0 0c-3.709 5.493-14.997 22.21-14.997 33.697 0 13.67-14.223 42.462-19.831 51.669-12.584 20.657-16.04 22.942-26.053 22.41-12.446-0.66-46.474-8.092-46.801-8.161-8.424 3.076-15.538 1.418-20.693-0.873l-1.295-2.492c4.854 2.158 15.054 2.791 22.93 1.196 7.876-1.594 6.418-0.032 2.274 0.856 8.286 1.924 31.906 6.445 44.19 7.097 10.776 0.572 14.404-5.079 24.248-23.027 11.841-21.593 18.912-39.789 18.912-48.675 0-8.167 5.024-19.576 15.36-34.883 8.811-13.049 11.831-20.099 10.095-23.571-1.533-3.065-9.564-8.526-14.323-9.738-1.587-0.404-6.894 3.332-12.038 14.829-5.5 12.293-9.061 15.875-13.795 20.313-4.438 4.163-3.417 2.091-1.191-1.543-2.065-11.033 2.612-31.141 4.876-41.065l0.835-3.743c0.087-0.419-1.721-2.243-8.019-4.097-9.231-2.716-20.524-3.255-21.818 0.09-6.473 16.72-5.922 32.423-5.749 37.128 0.424 11.565-1.471 13.232-2.332-1.665-2.803-3.5-9.42-23.123-11.805-33.209-0.314-1.338-5.747-2.969-12.653-1.775-3.668 0.634-12.102 2.96-11.23 10.808 2.396 21.578 23.213 53.365 25.578 56.919 2.443 3.67 4.182 9.008 5.407 15.068-0.291 0.659-0.562 1.328-0.804 2.011-1.275-5.799-3.278-11.266-6.365-15.905-8.808-13.232-26.26-46.599-26.26-59.334 0-6.008 4.829-10.578 13.102-12.009 6.625-1.146 14.94-0.633 15.754 2.808 1.684 7.125 6.482 23.468 9.359 31.039 0.319-7.045 0.908-21.585 5.413-33.224 2.16-5.581 16.953-3.763 25.237-1.325 4.425 1.302 10.041 4.313 9.358 6.94-5.569 21.453-7.01 36.74-6.286 43.011 4.87-4.358 8.342-12.152 11.473-18.599 3.159-6.5 7.721-12.634 11.699-14.974 2.731-1.606 14.604 3.352 18.133 10.412 2.179 4.361-0.351 11.449-9.895 25.586" fill="#0f141b"/>
  </g>
  <g transform="matrix(.35278 0 0 -.35278 110.6 71.453)">
   <path d="m0 0c9.577 1.68 21.063-17.979 21.308-40.684 0.173-16.039-5.652-28.34-13.548-28.611-11.184-0.388-20.584 17.775-20.584 38.969 0 15.992 5.51 29.045 12.824 30.326m-0.293 1.67c-7.952-1.393-17.164-20.541-13.725-43.098 1.954-12.822 10.852-29.941 21.836-29.561 10.179 0.35 15.131 13.295 15.131 30.146 0 22.886-12.787 44.344-23.242 42.513" fill="#0f141b"/>
  </g>
  <g transform="matrix(.35278 0 0 -.35278 105.85 78.293)">
   <path d="M 0,0 0.883,-0.583 C 6.606,8.088 24.566,7.093 29.862,4.632 L 29.211,6.267 C 22.342,9.456 6.593,9.989 0,0" fill="#0f141b"/>
  </g>
  <g transform="matrix(.35278 0 0 -.35278 106.51 88.297)">
   <path d="m0 0 0.877-0.592c10.732 15.899 27.548 7.843 32.447 4.995l0.532 0.916c-9.68 5.628-23.435 10.12-33.856-5.319" fill="#0f141b"/>
  </g>
  <g transform="matrix(.35278 0 0 -.35278 55.726 50.124)">
   <path d="m0 0c10.378 4.828 21.004 6.756 29.964 7.349-0.095 0.786-0.147 1.564-0.169 2.383-9.347-0.469-20.449-2.322-31.186-7.316-6.784-3.155-12.678-6.845-17.791-10.868 0.488-0.773 0.951-1.569 1.436-2.343 5.096 3.985 10.981 7.649 17.746 10.795" fill="#0f141b"/>
  </g>
  <g transform="matrix(.35278 0 0 -.35278 41.233 64.564)">
   <path d="m0 0h-2.414c-2.84-5.445-4.542-11.078-5.081-15.686 0.798 0.623 2.929 2.076 3.749 2.655 0.667 4.109 1.885 8.512 3.746 13.031" fill="#0f141b"/>
  </g>
  <g transform="matrix(.35278 0 0 -.35278 86.189 64.185)">
   <path d="m0 0c-3.341-17.29-15.771-33.374-34.103-44.126-22.21-13.027-51.78-15.963-75.069-8.27-0.918 0.304-3.673 0.494-5.378 0.478 24.717-11.183 59.151-6.912 81.418 6.147 19.183 11.252 33.081 30.218 35.768 48.709-0.901-0.737-2.6-2.749-2.636-2.938" fill="#0f141b"/>
  </g>
  <g transform="matrix(.35278 0 0 -.35278 80.227 48.724)">
   <path d="m0 0c-0.517-0.539-1.583-1.339-2.922-2.07 2.435 0 4.065-0.678 9.497-4.261 0.925 0.075 1.37 0.381 2.255 0.704-2.594 2.183-5.318 4.038-8.83 5.627" fill="#0f141b"/>
  </g>
  <g transform="matrix(.35278 0 0 -.35278 68.212 79.547)">
   <path d="m0 0c-20.103-7.5-42.673-7.775-54.887-0.67l-0.853-1.464c12.623-7.345 35.787-7.119 56.332 0.545 22.705 8.472 38.978 23.853 45.932 44.181l-1.543 1.027c-9.158-26.767-32.112-38.818-44.981-43.619" fill="#0f141b"/>
  </g>
  <g transform="matrix(.35278 0 0 -.35278 80.02 64.278)">
   <path d="m0 0s-1.468-0.926-1.579-1.25c-0.53-1.539-2.015-9.472-2.594-10.689-0.643-0.503-8.201 0.884-8.809 0.783-0.429-0.073-3.763-2.249-5.061-3.174-0.877-0.585-1.523-1.209-1.872-1.871-1.555-2.956-7.498-13.589-8.79-14.092-3.105-1.206-14.913 1.209-18.526 2.101-1.046 0.257-1.989 0.409-2.983 0.175-4.793-1.128-8.973-3.002-9.847-3.389-1.332-0.592-1.4-1.049-1.908-1.961-0.507-0.914-2.839-5.413-4.763-6.651-0.795-0.511-8.138 3.958-9.294 4.849-1.156 0.888-1.618 0.756-2.943 0.608-1.826-0.203-6.131-0.453-10.133-1.463l0.436-1.638c5.428 1.448 10.972 0.968 11.995 0.861 2.662-1.979 8.976-6.31 10.396-5.702s6.492 8.371 7.088 9.348c0.839 0.461 4.82 2.786 10.402 3.438 3.225-0.921 16.8-4.408 21.127-2.725 2.702 1.05 8.093 13.315 9.402 16.113 0.362 0.235 4.906 3.156 5.43 3.496 4.213-0.987 9.276-1.873 9.885-1.062 0.608 0.812 2.594 10.183 2.95 11.951 1.306 0.803 6.405 3.911 8.324 4.632l-1.219 1.269c-2.356-0.884-6.846-3.79-7.114-3.957" fill="#0f141b"/>
  </g>
  <g transform="matrix(.35278 0 0 -.35278 50.681 80.88)">
   <path d="m 0,0 1.955,-0.524 c 0,4.093 2.154,9.306 4.079,11.23 L 5.285,11.455 C 3.209,9.381 0,4.474 0,0" fill="#0f141b"/>
  </g>
  <g transform="matrix(.35278 0 0 -.35278 80.628 64.35)">
   <path d="m0 0c2.372 0 7.267-2.384 8.823-3.551l0.426 1.756c-1.639 1.229-5.498 3.006-8.19 3.006z" fill="#0f141b"/>
  </g>
  <g transform="matrix(.35278 0 0 -.35278 47.653 81.524)">
   <path d="m0 0c-1.524-1.38-3.01-1.318-4.416-0.707 4.782 2.434 3.208 2.776-2.114 0.811-8.945-3.303-46.484-14.367-52.812-16.054-6.329-1.69-5.486 0.211 2.741 7.595 11.183 10.758 36.694 29.602 38.863 31.365 2.314 1.878 1.901 2.704-1.126 0.639-1.747-1.191-9.673-6.681-18.26-13.121-2.446-0.643-3.238-0.327-1.813 1.653 1.619 2.247 10.546 11.09 12.917 13.256 2.124 1.943 1.673 1.853-0.804 0.202-2.478-1.652-12.362-10.955-15.144-14.864-1.086-1.523-0.667-2.694 2.255-2.203-2.809-2.137-4.961-4.014-7.604-6.169-9.908-1.819-14.552-2.975-20.042-3.586-3.798-0.422-2.863 0.881-0.434 2.923 8.806 7.402 40.958 28.475 43.149 29.752 2.699 1.573 6.536 3.729 5.943 3.906-0.728 0.217-3.267-0.745-3.267-0.745 0.997 2.238 3.519 2.385 5.296 2.064 5.413-0.98 13.248-7.527 16.807-18.667 2.824-8.839 2.775-15.418-0.135-18.05m2.144 17.511c-3.767 11.794-13.505 21.655-19.535 21.987-2.595 0.143-4.737-1.757-6.277-4.875-9.013-5.226-37.729-24.045-49.604-34.258-2.936-2.525-1.67-4.103 2.238-3.81 4.022 0.3 11.547 1.147 20.597 3.278-5.087-4.161-9.98-8.973-13.258-12.557-4.275-4.673-4.434-7.272 2.185-6.083 15.131 2.711 48.94 14.297 54.777 16.578 2.939-1.166 6.305-2.032 8.215-0.304 1.993 1.804 4.801 7.095 0.662 20.044" fill="#0f141b"/>
  </g>
  <g transform="matrix(.35278 0 0 -.35278 102.04 49.499)">
   <path d="m0 0c-10.13-10.065-36.277-33.234-43.598-37.644-6.392-3.85-3.748-3.947-0.484-2.36-0.175-0.951-1.207-2.105-3.104-2.351-2.745-0.357-6.126 2.84-9.275 8.77-5.612 10.564-5.261 27.713-1.704 30.509 0.291 0.229 1.238 0.762 2.636-0.264 0 0-2.045-1.888 0.932-1.025 13.516 3.916 45.129 10.703 48.167 11.071 2.848 0.346 3.284 0.184 0.6-2.292-8.282-2.176-16.227-4.579-23.143-6.833-4.764 0.048-22.227-4.011-23.828-4.892-1.621-0.891-1.684-1.418 0.934-0.856 2.05 0.439 9.954 2.433 15.334 3.21-8.384-2.898-14.243-5.214-15.677-5.904-3.995-1.924-2.533-2.54-9e-3 -1.418 2.426 1.078 42.677 13.824 50.816 15.87 5.613 1.415 6.271 1.247 1.403-3.591m-3.262 5.029c2.098 2.013 3.938 4.325 0.831 4.177-3.251-0.155-35.16-6.332-52.087-11.464-2.217 1.75-3.842 1.051-4.63 0.432-4.452-3.5-4.655-22.193 1.168-33.153 4.522-8.514 9.118-10.256 11.585-9.936 2.124 0.276 3.334 1.845 4.243 5.819 13.008 8.814 25.702 20.267 32.294 26.539 5.898 5.614 12.395 11.166 15.353 15.012 2.958 3.847 1.035 4.883-8.757 2.574" fill="#0f141b"/>
  </g>
  <g transform="matrix(.35278 0 0 -.35278 25.459 40.369)">
   <path d="m0 0c0.265-4.499 6.333-10.785 20.355-21.837 7.78-6.133 27.225-22.846 37.316-47.685-3.701 1.582-6.932 2.405-9.638 2.423-18.254 33.371-45.979 48.647-53.18 48.225-1.183-0.068-2.28-1.155-2.59-1.766-8.213 7.167-9.811 12.597-7.862 17.147 2.398 5.594 7.891 7.956 17.107 7.584-1.274-1.05-1.585-2.803-1.508-4.091m43.53-68.021c-6.126 10.675-27.401 32.436-39.697 39.352-3.62 2.037-7.186 4.405-10.294 6.95 0.24 0.413 0.565 0.82 0.911 0.839 7.643 0.448 34.635-14.76 52.497-46.265-1.266-0.1-2.418-0.375-3.417-0.876m52.484-13.602c-2.943 17.411-39.852 65.535-66.112 79.074-26.696 13.766-44.266 10.579-48.846-0.109-3.55-8.282 4.114-16.186 21.739-27.858 14.312-9.478 28.461-23.081 39.496-39.412l1.368-0.987c3.163 3.427 14.918 1.55 33.392-12.497l0.351 1.688c-1.567 1.192-3.084 2.293-4.572 3.344-5.037 36.783-33.477 56.252-59.333 72.221-3.294 2.035-2.053 0.343 0.204-1.316 16.257-11.948 49.323-26.974 57.146-69.53-3.941 2.678-7.582 4.831-10.892 6.438-10.18 25.252-30.621 43.469-38.497 49.677-13.572 10.7-19.208 16.738-19.45 20.84-0.081 1.389 0.432 2.641 1.644 3.992 6.202-0.597 14.51-2.82 25.28-8.374 25.836-13.322 61.006-61.866 66.309-78.873 0 0 1.183-0.748 0.773 1.682" fill="#0f141b"/>
  </g>
  <g transform="matrix(.35278 0 0 -.35278 78.945 42.856)">
   <path d="m0 0c0-5.068 0.422-10.487 1.379-16.309-0.03-0.025-0.102-0.084-0.102-0.084-0.586-0.487-1.283-1.041-2.044-1.707-4.878 27.061 6.221 57.562 12.325 69.681-0.96-3.419-2.125-6.94-3.377-10.687-3.894-11.657-8.181-24.49-8.181-40.894m-7.294-26.488c-6.823 22.873 2.196 54.614 7.214 72.44l1.865 6.782c2.291 8.911 0.581 12.608-1.257 14.141-1.044 0.87-2.395 1.262-3.91 1.206 5.152 3.915 9.957 5.643 13.276 4.766 3.273-0.864 4.023-4.278 4.023-7.226 0-0.212-3e-3 -0.422-0.011-0.628-0.104-3.012-0.553-5.995-1.23-9.03-5.523-9.399-20.095-45.133-14.654-75.177-1.72-1.67-3.628-3.949-5.316-7.274m18.444 101.23c-7.939 2.097-25.359-9.168-34.924-29.408-13.726-29.044-21.885-67.513-0.614-106.42v4.425c-19.686 38.233-6.683 83.548 3.396 102.81 4.681 8.95 10.449 15.972 15.96 20.599 1.952 0.51 3.706 0.282 4.882-0.698 1.603-1.337 3.062-4.688 0.908-13.063l-1.857-6.759c-5.103-18.125-14.521-51.608-7.187-74.869-1.235-2.94-2.284-6.578-2.956-11.112-12.23 22.924-12.353 63.955 6.043 87.668 1.466 1.891 3.477 4.841 2.016 3.867-1.462-0.974-2.67-2.516-3.275-3.273-20.816-26.069-17.41-73.466-5.215-91.863-0.011-0.109-0.024-0.213-0.033-0.322l1.379-1.719c1.594 17.938 9.1 24.104 12.501 26.923l2.192 0.974c-5.236 25.082 0.765 42.56 5.824 57.71 7.941 23.771 6.073 33.173 0.96 34.523" fill="#0f141b"/>
  </g>
  <g transform="matrix(.35278 0 0 -.35278 71.789 65.057)">
   <path d="m0 0c-0.846 0.152-1.582 0.68-2.185 1.568-1.499 2.204-1.985 6.289-1.211 10.166 1.126 5.63 4.694 9.385 8.297 8.735 2.783-0.502 4.758-4.269 4.758-8.495 0-0.786-0.069-1.59-0.214-2.39-0.904-5.007-6.024-10.202-9.445-9.584m-4.953 12.134c-0.854-4.268-0.27-8.838 1.453-11.372 0.842-1.237 1.955-2.01 3.218-2.239 4.306-0.777 10.216 4.91 11.291 10.866h1e-3c1.087 6.026-1.285 12.408-5.474 13.165-4.553 0.821-9.167-3.812-10.489-10.42" fill="#0f141b"/>
  </g>
  <g transform="matrix(.35278 0 0 -.35278 52.67 68.091)">
   <path d="m0 0c0 1.168 0.329 2.251 1.022 3.133 2.264 2.878 7.423 2.436 12.003-1.028 2.831-2.142 4.966-5.369 5.31-8.03 0.161-1.248-0.067-2.275-0.678-3.052-2.032-2.584-9.312-1.808-13.43 1.429-2.7 2.124-4.227 5.032-4.227 7.548m-1.117 4.585c-2.728-3.468-0.632-9.467 4.01-13.118 4.515-3.55 12.793-4.81 15.66-1.162 0.873 1.108 1.22 2.574 1.007 4.237-0.402 3.104-2.729 6.675-5.929 9.094-5.374 4.066-11.889 4.586-14.748 0.949" fill="#0f141b"/>
  </g>
  <g transform="matrix(.35278 0 0 -.35278 65.543 72.157)">
   <path d="m0 0c0.914-0.564 2.243-1.073 2.794-1.301 0.84-0.346 1.529-0.301 0.617 0.511-0.913 0.811-2.038 1.678-3.099 1.802-1.06 0.125-1.125-0.509-0.312-1.012" fill="#0f141b"/>
  </g>
  <g transform="matrix(.35278 0 0 -.35278 69.93 71.183)">
   <path d="m0 0c0.101-0.305 0.292-0.43 0.507 0 0.367 0.731 0.811 2.13 1.014 3.042 0.203 0.913-0.565 1.502-1.093 0.751-0.53-0.751-0.53-3.489-0.428-3.793" fill="#0f141b"/>
  </g>
  <g transform="matrix(.35278 0 0 -.35278 56.619 69.342)">
   <path d="M 0,0 C 1.157,-2.072 2.716,-2.3 3.42,-1.879 4.125,-1.459 4.48,0 3.083,2.263 2.138,3.795 0.802,4.081 0.097,3.66 -0.607,3.242 -0.876,1.57 0,0" fill="#0f141b"/>
  </g>
  <g transform="matrix(.35278 0 0 -.35278 57.104 69.126)">
   <path d="M 0,0 C 0.462,-0.829 1.087,-0.92 1.368,-0.752 1.651,-0.583 1.792,0 1.233,0.905 0.855,1.518 0.32,1.633 0.039,1.464 -0.243,1.297 -0.351,0.628 0,0" fill="#fff"/>
  </g>
  <g transform="matrix(.35278 0 0 -.35278 71.003 62.637)">
   <path d="m0 0c0.793-2.235 2.294-2.72 3.058-2.423 0.766 0.296 1.359 1.675 0.36 4.141-0.676 1.667-1.946 2.173-2.712 1.875-0.763-0.294-1.308-1.898-0.706-3.593" fill="#0f141b"/>
  </g>
  <g transform="matrix(.35278 0 0 -.35278 71.303 62.555)">
   <path d="m0 0c0.318-0.894 0.917-1.088 1.224-0.969 0.306 0.119 0.543 0.67 0.143 1.656-0.27 0.667-0.778 0.871-1.085 0.751-0.305-0.118-0.522-0.759-0.282-1.438" fill="#fff"/>
  </g>
 </g>
</svg>
