<?xml version="1.0" encoding="UTF-8"?>
<svg version="1.1" viewBox="0 0 321.78 182.16" xmlns="http://www.w3.org/2000/svg">
 <g transform="translate(.016038)">
  <path d="m117.8 148.45q-1.55-0.45-4.1-2.55-2.75-2.3-4.5-4.85-4.75-6.9 1.85-9.3 11.85-4.4 34.3 9.2 11.2 6.8 20.05 14.45l-41.1 5.5q-8.85 1.35-13.95-0.75-4.85-2-3.2-5.4 0.65-1.3 4.95-3.45l5.7-2.85" fill="#c1bfb8"/>
  <path d="m113.95 151.5q3.45 0.1 5.05 3.45 1.55 3.3-0.5 3.75-23.95 4.25-23 3.1 0.75-1 8.85-5.65 8.3-4.7 9.6-4.65" fill="#dbdcdc"/>
  <path d="m99.85 163.75q0.75-0.95 9.8-6.05 9.2-5.15 10.5-5.1 3.45 0.1 5.05 4.1 1.55 3.95-0.55 4.4-25.7 3.85-24.8 2.65" fill="#dbdcdc"/>
  <path d="m29.95 92.8 10.2 5.85-2.95 24.35-12.35 9.1 4.75-16.75-4.8 3.4q-5.55 3.75-9.4 5.35 5.05-4.1 10.15-16.6 4.4-10.85 4.4-14.7" fill="#e5e3da"/>
  <path d="m35.55 96 4.6 2.65-2.95 24.35-12.35 9.1 4.75-16.75-2.55 1.9-5.95 3.9q11.6-12.25 14.45-25.15" fill="#c1bfb8"/>
  <path d="m43.75 101.35q6.05 0 13.3 2.95 7.8 3.2 11.95 7.95 4.8 5.55 2.8 11.5-4.1 12.05-18.4 30-13.6 17.1-18.35 18-4.85 0.9-10.55-2.9-5.95-3.95-2.95-7.65 8-9.8 12.15-32.15 1.3-7.1 2.25-15.5l0.9-8.75q0.55-3.4 6.9-3.45" fill="#e5e3da"/>
  <path d="m43.75 101.35q6.05 0 13.3 2.95 7.8 3.2 11.95 7.95 4.8 5.55 2.8 11.5-4.1 12.05-18.4 30-13.6 17.1-18.35 18l-4.45-0.25q8.05-13.55 10.2-27.95 2.5-16.65-5.9-21.95l1.3-10.75 0.65-6.05q0.55-3.4 6.9-3.45" fill="#c1bfb8"/>
  <path d="m20.65 162.55q3.4-0.4 5.1 3.55 1.7 3.9-0.45 4.35-25.3 4.85-24.4 3.7 0.9-1.2 8.75-6.1 8.45-5.25 11-5.5" fill="#fff"/>
  <path d="m28 163.1q3.45 0.1 5.25 4.25 1.7 4.1-0.35 4.55-29.3 4.95-28.4 3.8 0.75-0.95 11.4-6.75 10.8-5.9 12.1-5.85" fill="#fff"/>
  <path d="m10.25 175.4q6.5-3.8 12.8-6.8 7.75-3.7 9.05-3.15 1.45 1.9 1.7 4.05 0.3 2.2-0.9 2.4l-22.65 3.5" fill="#dbdcdc"/>
  <g fill="#0d131a">
   <path d="m112.25 145.4 0.7-2q3.3 2.85 7.7 5.15 4.8 2.55 9.8 3.8 4.05 1.05 2.8 1.15l-5.5-0.75q-3.25-0.7-6.95-2.3l-3.05-1.45-1.8 0.7q-1.4 0.45-2 1.05l-2.4 1.65-2.45 1.35-1.05-0.8q2.6-2 5.55-3.4l2.75-1.05-4.1-3.1"/>
   <path d="m148.85 157.1 1.1 1.2-24.35 3.05q-1.15-0.2-0.85-0.9 0.3-0.65 1.25-0.45l22.85-2.9"/>
   <path d="m104.65 160.35-2.95 1.75-5.65 0.5q-0.9 0-1.15-0.4l-0.2-0.45 0.25-0.35q0.75-1 9-5.7 8.5-4.9 10-4.85 2.85 0.05 4.7 2.45-0.6 0.05-1.3 0.45-0.6-0.7-1.8-1.2-1.25-0.55-2.3-0.6-1 0.05-7.25 3.75l-8.9 5.6 7.55-0.95"/>
   <path d="m112.2 163.5-10.95 1.15q-1.65 0.05-1.95-0.45l-0.25-0.45 0.3-0.4q0.85-1.1 9.85-6.2 9.2-5.25 10.65-5.2l2.8 0.95q3 1.6 3.9 5.1 0.7 2.85-1.55 3.35l-12.8 2.15m7.9-10.3q-1.1 0.05-8.4 4.1-7 3.85-10.25 6.05l12.9-1.5 9.9-1.65q1.25-0.45-0.1-3.6-1.35-3.3-4.05-3.4"/>
   <path d="m28.5 94.1 1.45 2.25q-1.5 5.95-4.4 12.75-3.6 8.4-7.25 12.9 8.05-4.25 10.9-7.15 1.4-1.4 1.7-1.3t-0.15 2q-2.75 10.9-4.8 14.95 5.5-3.8 8.3-6.1l-0.8 2.55q-8.55 6.45-9.75 6.8-0.55 0.15 1.4-5.25 2.6-7.15 3.3-10.85l-4.7 3.15q-3.35 1.95-8.05 3.9l-1.6 0.35q-0.4-0.25 0.95-1.45 3.9-3.5 8.4-14.25 3.75-8.95 5.1-15.25"/>
   <path d="m35.8 105.4 1.75 1.85q-3.9 40.35-15.4 54.45l-0.5 0.9h-1.6q0.25-1 0.9-1.9 7-8.55 11.1-28.65 2.15-10.4 3.75-26.65"/>
   <path d="m68.35 129.75 2.4 1.05q-6.05 12.1-18.15 26.05-11.1 12.7-16.9 15.7-0.7 0.4-3.5 0 1.2-0.45 1.6-1.45l1.1-0.1q3.75-0.7 15.2-14.4 12.15-14.55 18.25-26.85"/>
   <path d="m23.85 164.35q-1.35-1.35-3.1-1.2-2.1 0.25-8.95 4.35-5.75 3.45-9.3 6.15l6.15-0.85-1.85 1.55q-8.5 1.35-6.4-0.6 2.3-2.1 8.5-6.05 8.25-5.3 12.3-5.7 1.3-0.1 2.2 0.35l1.65 1.4-1.2 0.6"/>
   <path d="m21 173.2 11.75-1.9q0.45-0.15 0.45-1.2v-0.35q-0.15-2.05-1.55-3.85-1.55-2.1-3.65-2.15-2.6 0.45-10.6 4.85-5.9 3.25-11.15 6.6l14.75-2m13.5-3.55q0.15 2.6-1.45 2.9l-14.4 2.3-13.1 1.55q-2.6 0-1.55-1.1 1.5-1.6 10.7-6.95 10.25-5.95 13.35-5.9 2.1 0.05 4.2 2.5 2.05 2.4 2.25 4.7"/>
  </g>
  <path d="m299.25 89.45q1.2 3.6 1.15 8.2l-0.3 3.9q2.9-4.15 5.55-10.3 5.3-12.25 4.15-22 6.3 8.9 6.2 20.95-0.05 6.05-1.35 10.3l2.05-2.5q2.3-3.6 3.65-9.25 0.65 17.6-7.75 33.3-2.65 4.9-5.85 9.05l-2.7 3.15 4.35-2.2q5-2.9 8.05-6.5-3.2 14-15.35 22.55-3.8 2.65-8.05 4.45l-3.5 1.25 5.85-0.25q6.8-0.75 11.85-3.2-11.35 11.5-30.95 14.05l-12.3 0.55-5-0.35 3.9 2.05q4.6 3.25 8.05 8.95-4.65-3.05-15.45-6.75-11.15-3.85-17.2-7.6-14.7-9.15-24.4-21.9-2.75 6.95-7.7 12.8-4.5 5.4-9.3 8.1 5.85 3.85 6.7 6.25 0.7 2.15-10.7 4.5-10.55 2.2-27.65 3.85-10.8 1-17-2.05-5.7-2.85-3.85-6.55 0.55-1.05 5.05-2.5l5.35-1.85q-2.25-1.3-5.25-4.95-3.1-3.75-3.5-5.9-7.8-3.4-31.65-7.9-1.7 9.9-7.45 20.15-4.65 8.2-9.65 13.2-2.8 1.4-9.7 0.45-7.55-1-12.8-4.2-4.55-2.8-0.5-5.25 5.9-2.65 7.55-4.35 2.9-6.55 0-27.9-48.9-16.95-59.75-57.6-3.6-13.55-2.4-27.95 0.85-10.35 3-14.9-4.2-4.95-9.2-9.65l-4.15-3.7 6.65-0.9-6.2-6 7.95-1.05q-6.3-6.65-7.55-8.75 6.1 0.85 14.2 4.3 6.55 2.75 9.55 4.9 14.25-11.4 32.5-7.9 9.15 1.75 15.4 5.8l11.95-10.85-0.65 5 8.05-3.45-2.8 5.3 5.1-0.35-9.95 13.5q7.55 11.45 5.6 26.7-1 7.6-3.5 12.9l1.5 3.45q1.95 3.75 4.3 5.3 3.45 2.3 10.25 3.6 8.7 1.7 21.45 1.4l14.15-0.5q8.55-0.1 15.55 1.45 19.1 4.1 39.75 22.85l0.3 0.05q11.45 9.2 20.2 13.1 20.4 9.05 42.45 3.75-0.95 1.35-6.8 5.9l5.25-0.6q6.4-1.1 12.15-3.6 18.3-8.1 23.1-27.3" fill="#e5e3da"/>
  <g fill="#c1bfb8">
   <path d="m133.35 133.95q7.55 2.35 14.25 3.2-3.75 6.3-2.65 13.45-8.05-3.1-30.55-7.45-1.7 9.9-7.45 20.15-4.65 8.2-9.65 13.2-2.1 1.05-7.2 0.7-5.45-0.35-10.4-2.15 12.3 0.25 17.75-11.05 5.85-11.95 4.4-37.6-0.5-2.55-1.45-4.5l-1.8-3.15q0.45 0 7.7 4.5 8.2 5.1 12.75 8.75 0-1.7-1.3-5.1 6 4.1 15.6 7.05"/>
   <path d="m47.4 6.8q-4 2.25-6.2 4.55-0.85 0.85-3.55 4.6 2 4.85-6.55-0.15l-16.15-10.05q5.45 1.4 11.6 4.25 5.1 2.3 7.4 3.95 6.25-5.05 13.45-7.15"/>
   <path d="m64.65 120.7q6.4 1.75 15.8 2 1.15 5.95 1.4 12.55-26.55-9.25-42-25.75 14.8 8.4 24.8 11.2"/>
   <path d="m92.7 43.75q0.3-8.05-1-15.65-1.25-7.2-3.2-10.35l5-5.55q3.3-3.8 4.9-4.35 2.75-0.95 5.1-0.35l-9.95 13.5q7.55 11.45 5.6 26.7-1 7.6-3.5 12.9l1.5 3.45q1.95 3.75 4.3 5.3 2.85 1.95 8.3 3.2 6.7 1.55 16.35 1.8-9.85 3.9-23.45 3.9-19.3 0.1-41.6-7.95-3.15-2.65-5.7-5.8 19.9 8.8 26.9 6.4 9.75-6.5 10.45-27.15"/>
   <path d="m207.5 126.95q4.15 6.9 6.4 12.4-2.75 6.95-7.7 12.8-4.5 5.4-9.3 8.1 5.85 3.85 6.7 6.25 0.95 2.8-18.15 5.85l-20.1 2.55-0.95-2.5q-0.85-2.05-1.65-2.1 1.4-0.95 9.1-3.15 6.8-2 6.35-2.2 10.65-8.75 16.1-25 6.1-18.4-1.75-30.1 6.6 3.15 14.95 17.1"/>
  </g>
  <path d="m84.15 18.95q1.75 14.15-1.3 29.05-5.55-9.25-11.4-15.6-5.25-5.65-14-12.4l4.45-1.1 4.55-0.8q-4.9-6.25-9.8-8.55-4.1-1.85-11.3-2.1 13.35-4.8 26.75-0.15 1.85 1.5 3.55 4.45 1.85 3.1 2.05 5.45l4 1.05 2.45 0.7" fill="#756550"/>
  <path d="m95.7 24.8q1.05 2.3 2 5.65 1.1 4 1.1 6.35-1 1-2.4 8.15-1.5 7.65-1.95 8.55 0.35-15.15 1.25-28.7" fill="#635442"/>
  <path d="m53.6 35.1q4.25 4.9 6.65 10.05 2.8 5.9 2.8 11.35-7.15-9.95-17.9-12.1-11.95-2.4-19.35 7.9-3 5-3.6 12.2l-0.7 10.6q-3-12.85-1.7-26.3 0.9-9.75 2.9-14l-0.3-0.4q6.65-8.45 15.85-7.3 7.6 0.95 15.35 8" fill="#756550"/>
  <path d="m117.2 83.5q-12.8-7.5-17.2-15.35 1 1 3.8 2.4 4.35 2.15 8.9 2.6 8.4 3.15 18.15 5.2 10.1 2.1 19.45 2.6l-7.75 0.85q-4.4 0.25-6.75 1.2l5.75 3.1q4.8 2.45 7.05 3.75l-9.85-1.6-7.5-1.35 3.7 3.95q2.4 2.35 3.4 4.35-14-7.5-21.15-11.7" fill="#756550"/>
  <path d="m112.7 73.15 4.55 1.4 4.85 1.25q-8.35 1.75-13.8 2-2.8-2.15-4.75-4.45-1.85-2.15-3.55-5.2 1 1 3.8 2.4 4.35 2.15 8.9 2.6" fill="#635442"/>
  <path d="m58.35 178.7q2.35-2.65 7.6-6.45 7.65-5.55 12.7-5.95 4.3-0.3 5.65 4.2 0.55 1.7 0.2 3.2-0.4 1.5-1.5 1.7-25.8 4.65-24.65 3.3" fill="#fff"/>
  <path d="m77.45 179.85q-15.45 2.25-14.7 1.4 1.7-1.95 9.35-6.45 9.5-5.6 15.95-6.45 4.3-0.55 6.35 3.95 0.8 1.75 0.7 3.2-0.15 1.55-1.25 1.75l-16.4 2.6" fill="#fff"/>
  <path d="m196.05 114.05q-7.65-8.4-20.35-14.75-13.15-6.6-23.6-6.8l7.5-0.45q9.35 0.3 18.3 3.9 11.15 4.5 35.4 21 26.7 18.1 37.65 23.55 17.75 8.9 37.7 5.3 20.45-3.7 27.2-17.95-3.8 12.8-15.4 20.65-3.65 2.45-7.65 4.15l-3.25 1.15 5.85-0.25q6.8-0.75 11.85-3.2-11.35 11.5-30.95 14.05l-12.3 0.55-5-0.35 3.9 2.05q4.6 3.25 8.05 8.95-5.6-3.65-18.8-8.8l-13.85-5.55q-17.05-11.2-27.35-25.75-9.05-15-14.9-21.45" fill="#756550"/>
  <path d="m196.05 114.05-9.15-8.45q5.2 2.05 9.55 5.1 6.05 4.2 13.3 11.9 19.65 20.8 36.05 29 18.95 9.45 45.6 9-9.95 3.9-22.2 4.35l-10.2-0.35 3.9 2.05q4.6 3.25 8.05 8.95-5.6-3.65-18.8-8.8l-13.85-5.55q-17.05-11.2-27.35-25.75-9.05-15-14.9-21.45" fill="#635442"/>
  <path d="m191.7 94.15q-6.3-5.6-12.05-9.1-13.95-8.4-37.1-11.05 14.7-0.6 25.05 2.5 15.55 4.75 32.35 19.3 2.6 4.65 3.45 9.45l-11.7-11.1" fill="#756550"/>
  <path d="m149.95 164.35q4.3-0.25 5.65 4.2 0.55 1.75 0.2 3.2-0.4 1.5-1.5 1.7-27.45 5.3-26.35 4 2-2.35 8.45-6.85 8.45-5.85 13.55-6.25" fill="#fff"/>
  <path d="m164.05 170.55q0.75 1.6 0.6 2.95-0.2 1.45-1.3 1.65l-16.4 2.55q-15.4 2.25-14.7 1.4 1.6-1.8 9.45-6.05 9.65-5.2 16.15-6.05 4.25-0.6 6.2 3.55" fill="#fff"/>
  <path d="m67.25 181.2q6.85-3.6 13.5-6.45 7.6-3.3 12.4-4.4 1.7 1.9 1.95 4.3 0.2 2.35-1.25 2.6l-26.6 3.95" fill="#dbdcdc"/>
  <path d="m163.25 169.25q1.35 1.75 1.4 3.7t-1.3 2.2l-22.4 3.4q1.2-1.75 8.25-4.8 7.55-3.3 14.05-4.5" fill="#dbdcdc"/>
  <g fill="#0d131a">
   <path d="m170.5 117.15q2.4-1.25 2.5-0.75 0.1 0.45-2 1.9-7.9 4.05-14.05 9.55-12.05 10.8-9.4 22.5 1.15 5 4.7 8.25 4.85 4.45 14.85 6.7 2.95 0.7 2.1 0.85l-3-0.05q-6.15-0.65-11.3-3.55-3.7 1.15-4.4 1.45l-3.25 1.25q-1.85 0.15-3.55 0.75v-0.1q0.5-0.95 1.95-1.7 1.3-0.65 4.3-1.55l3.3-0.9q-6.1-3.6-7.9-10.2-7.5-3.15-30.4-7.5-1.8 9.65-7.85 20.8-5.25 9.75-8.25 11.7-1.1 0.7-3.25 1.1l-2.6 0.35 1.2-0.9q0.85-0.65 0.9-1.1h0.4l1.35-0.15q1.1-0.25 3.6-3.7 2.85-4 5.5-9.75 7.45-15.7 8.8-33.55l0.85 0.8 0.7 0.9-1.1 11.6q7.25 1.35 15.35 3.4 9.45 2.35 14.45 4.25-2.5-10.8 8.2-21 6.4-6.15 17.3-11.65"/>
   <path d="m82.65 46.85q1.85-10.1 1.85-17.4 0-3.95-0.75-10.25l-6.2-1.6-0.35-0.2-0.1-0.8q-0.55-2.4-2-4.95-1.55-2.65-3.25-3.95-11.95-4.25-24.1-0.55 5.3-0.05 10 2.4 5.3 2.75 9.05 8.25l0.3 0.55-0.6 0.15q-6 1-8.15 1.65 8.1 6.3 13.05 11.65 5.85 6.25 11.25 15.05m1.95-28.3 0.15 0.25q1.4 6.55 0.65 16.9-0.65 8.6-1.85 12.2l-0.6 1.45q-0.4 0.25-1.1-1.25-2.7-5.55-9.65-13.3-7.2-7.95-15.6-14.5l-0.4-0.4q0-0.2 0.55-0.35 0.55-0.2 3.85-0.85l5-0.95q-4.55-5.65-9.55-7.8-4.1-1.7-11.25-1.95l0.4-0.95q13.6-4.9 27.05-0.15h0.05l0.05 0.05q1.8 1.2 3.6 4.3 1.85 3.15 2.1 5.6l4.05 0.9 2.5 0.8"/>
   <path d="m95.65 46.7q1.65-8.65 2.7-10 0-3.6-2.35-10-0.65 10.75-1 23.25l0.65-3.25m-0.4-21.65 0.85-0.45q1.4 3 2.35 8.05l0.65 4.45q-0.95 0.95-2.65 9.75l-1.6 6.85-0.45 1.05q-0.25 0-0.35-1.25-0.1-1.1 0.45-12.9l0.75-15.55"/>
   <path d="m58.9 43.35q-1.65-3.1-5.5-7.6-3.1-3.65-8.65-6.15-5.6-2.5-9.9-2.15-8.35 0.7-11.95 9.4-2.85 6.8-3.1 19.75-0.15 7.05 1.55 15.75-1.5-11.65 3.5-20.1 5.3-8.9 15.2-8.9 5.75 0 12 3.25 6.35 3.3 10.45 8.55-1.1-7-3.6-11.8m-5.85 4.8q-6.25-3.7-11.9-3.7-9.15-0.05-15 8.1-2.25 3.7-3.1 8.4-0.5 2.85-0.65 8.05-0.2 4.3 0.4 11.3l-1.75-5.1q-2.4-10.6-2.1-18.7 0.55-16 4.3-23.05 3.7-6.95 11.7-7.35 10.65-0.5 19.2 8.55 8.6 9.15 9.3 21.85 0.05 1.35-0.75 0.25-3.7-5.1-9.65-8.6"/>
   <path d="m112.6 73.55q-5.8-0.55-10.95-3.7 3.7 5.35 11.25 10.45 4.5 3.05 14.55 8.35 5.5 2.85 9.7 5.35l-3.25-3.75-3-3.05-0.8-0.65 1.2-0.05 15 2.55q-9.6-5.3-10.35-5.55l-0.9-0.35q-0.25-0.25 0.55-0.55l7.85-1.3 2.5-0.4-3.1-0.45-12.85-2.15q-10.7-2.25-17.4-4.75m0.15-0.8h0.1q7.85 2.95 19.3 5.1 10.05 1.9 18.4 2.45l2.75 0.4-2.9 0.65-6.6 0.75-6.95 1 4.6 2.35 5.4 2.8q2.4 1.5 2.6 1.85 0.15 0.25-0.9 0.2l-8.05-1.35-8.2-1.45 3.1 3.45 3.35 4.05q0.7 1.05 0.5 1.15l-1.15-0.6q-2.55-1.6-11.05-6.15-13.9-7.3-15.3-8.25-8.1-5.4-14.35-14.6-1.9-2.8 0.3-1.05l2.6 2.35q1.15 1.05 3.85 2.4 4.2 2.05 8.6 2.5"/>
   <path d="m59.65 178.3 8.3-1q-1.55 0.8-2.4 1.6l-7.2 0.75q-1.65-0.05-0.5-1.35 3.15-3.45 7.3-6.6 7.55-5.7 13.45-6 2.25-0.1 3.8 0.8 1.6 0.9 2.1 2.7-0.65 0-1.25 0.35-1.55-2.8-4.55-2.6-4.35 0.35-10.95 4.85-4.35 2.95-8.1 6.5"/>
   <path d="m74.35 174.25q-5.95 3.3-10.15 6.55 5.55-0.25 29.5-4.15 0.75-0.1 0.75-1.5l-0.05-0.8q-0.35-2.2-1.9-3.8-1.85-1.9-4.35-1.55-5.55 0.7-13.8 5.25m3.85 6.1-14.45 1.8q-2.85 0.1-1.5-1.35 4.5-4.45 11.1-8.05 7.6-4.1 14.65-5.05 3.1-0.4 5.35 1.9 1.9 1.95 2.3 4.55 0.6 3.35-1.2 3.7l-16.25 2.5"/>
   <path d="m177.75 96.35q-5.55-2.25-11.15-3.3-5.1-0.95-9.25-0.75 9.3 1.15 20.45 7.1 11.5 6.1 18.8 14.1 2.5 2.8 5.2 6.55l4.7 7.15q6.85 10.7 11.85 16.4 8.45 9.55 20.35 17 4 2.45 8.85 4.5l8.6 3.15q2.5 0.85 7.6 3.05l4.7 2q-3.95-5.2-9.65-7.95-4.7-2.3-2.65-2.1l2.95 0.6 4.55 0.3 11.1-0.45q17.7-1.95 28.85-11.1l-8.1 1.75-6 0.2q-2.05-0.15-1.95-0.5 0.05-0.25 1.8-1 6.2-2.6 10-5.1 9.4-6.1 13.8-14.8-5.8 8.1-16.6 11.8-10.7 3.7-23.15 2.85t-22.9-6.05q-6.9-3.45-17.05-10.35l-17.55-12.2q-13.5-9.2-20.05-13.3-10.6-6.55-18.1-9.55m133.85-22.9-0.7-1.55-0.3 3.35q-0.3 7.45-4.25 16.55-3.05 6.95-5.65 10.05-1.5 1.75-1.65 1.3l0.3-1.75 0.25-4.15q0-2.5-0.4-4.75-5.65 17.75-22.65 25.1-8.05 3.5-17.75 4.1l-2.2 0.15q-1.1-0.1 0.55-1 2.4-1.3 6-4.5-32 6.5-59.85-16.85l-4.45-3.65q-17.4-14.95-33.75-19.2-9.7-2.5-25.8-1.75l-6.15 0.25q-13.55 0.3-22.8-1.75-6.35-1.45-9.75-3.7-3.6-2.35-5.25-7.35-4.35 7.65-11.2 9.55l-8.65 0.25q-4.8-0.65-10.35-2.6-2.25 0.45-5.15 1.55-2.25 0.9-3.55 1.65-1.25 0.7-1.4 0.3-0.1-0.45 1-1.05 4.8-2.6 7-3.2-5.2-2-10.55-5.5-1.55-1.05-1.55-1.6 0-0.6 1.75 0.5 6.55 4 15.8 6.6 10.3 2.95 15.65 1.4 5.95-1.7 9.4-7.35l1.4-2.55q1.05-2.15 2.05-5.5 2.05-6.7 2.05-13.15 0-4.8-1.75-11.05-1.8-6.35-3.9-8.6-0.95 1-1.5 0.85-0.5-0.2 0.7-1.75l5.45-7.1 4.25-5.8-2.45 0.15-2.8 0.35 1.1-2.2 1.8-2.85q0.65-0.95-7.75 3.6-0.3 0.15 0.1-1.85l0.45-2.45q0-0.55-9.7 9l0.65 0.5 1.2 1.05q0.55 0.6 0 0.4l-3.25-1.75q-24.75-13.55-46.5 1.75l1.05 0.9q0.75 0.75 0.4 1.15-0.45 0.45-3.1-1.4-3.8-2.65-12.2-5.75-7.4-2.8-8.8-2.8-0.55 0 2.05 3.05 2.45 2.85 3.75 3.95 1 0.8 0.9 0.95l-1.25 0.15-6.55 0.8q-0.5 0.15 2.75 3l3.5 3.2-2.95 0.5-3.55 0.4q-0.25 0.15 3.6 3.8 5.15 4.85 7.75 7.95 0.65-1.75 1.65-3.75 0.75-1.55 1.1-1.5t-0.3 1.8q-4.8 12.5-4.8 26.4 0 16.1 6.05 30.5 6.9 16.35 20.45 27.9 13.7 11.7 34.6 18.9-1.8-14.05-2.5-16.3-0.5-1.75 0.2-1.9 0.7-0.2 1.4 1.65 1.85 5.2 2.95 19.05 0.75 9.85 0.75 16.4 0 7.2-1.45 10.55l-0.1 0.15-0.1 0.1q-0.95 1-4.15 2.6-4 1.05-6.5 2.5 0.45-0.95 1.95-1.9 0.9-0.55 3.15-1.65 3.3-1.55 4.4-2.55 1.25-3.15 1.25-9.8 0-6.8-1.3-16.95l-0.05-0.15q-43.35-15.2-56.95-47.4-6.45-15.4-6.45-31.2 0-7.15 1.65-14.3 1-4.4 2.4-7.95l-6.8-6.7-5.05-4.85-1.75-2.15q-0.2-0.5 0.65-0.7l5.45-0.55-3.85-3.35q-2.6-2.35-2.35-2.65 0.3-0.25 3.5-0.6l4.55-0.45q-2.45-2.35-4.6-4.95-1.9-2.3-2.05-2.85l-0.1-0.7 1.15-0.1q5.4 0.65 13.4 3.8 6.75 2.7 9.95 4.85 10.9-8.5 24.45-8.85 12.85-0.3 23.45 6.75l11.1-9.75q1.25-1.15 1.45-1.15l0.05 1.35-0.35 3.45 4.85-2.4q3.55-1.75 4-1.4t-1 2.65l-2.2 3.35 3.2-0.4 2.2 0.05q0.2 0.5-10.65 14.4 6.2 9.7 6.2 20.6 0 9.2-4.2 19 2.25 5.95 5.45 8.1 2.6 1.7 8.35 2.95 8.35 1.8 21.2 2l10.85-0.2q7.05-0.25 9.8-0.1 14.3 0.9 24.05 5.45 10.1 4.7 27.8 18.85 16.5 13.2 30.95 16.85 13.55 3.5 30.5-0.25l1.55-0.3q0.4 0.1-0.75 1.5l-2.45 2.45-2.5 2q12.1-1.5 22.8-9.5 11.95-8.95 14.45-21.15l0.35-1.6q0.35-0.7 1.15 1.5 1.25 3.5 1.15 9.2 2.8-4.85 4.85-10.75 2.85-8 3.2-15 0.15-3.3 0.35-3.95 0.2-0.75 0.85 0.1 6.45 8.05 6.45 20.85 0 3.8-0.75 7.85 1.25-1.95 3.4-7l1.35-4.1q0.4-1.2 0.75 0.8 0.3 1.6 0.05 5.9-0.85 14.35-6.05 25.5-2.9 6.1-8.55 13.3l4.75-3.25q2.85-2.2 4.05-3.6l1.6-1.75q0.35-0.2 0.2 1.1-1.35 11.3-10 19.6-5.6 5.3-13.55 8.85l6.7-1.25q3.95-1 6.1-1.95 1.95-0.85 2.1-0.5t-1.2 1.75q-9.3 9.75-24.6 13.15-9.45 2.1-20.45 1.6 3.05 2 3.95 2.85 2.5 2.3 4.9 6.75 0.9 1.65 0.55 1.9-0.35 0.2-1.65-0.9-1.1-0.95-6-2.95-4.15-1.75-8.8-3.35l-8.85-3.25q-5.1-2.1-9.2-4.6-7.8-4.85-13.65-10.2-4.8-4.4-9.4-10.2-2.05 5.9-6.8 11.05-4.15 4.45-9.55 7.5l4.9 3.75q2.1 2.15 0.95 3.65-1.95 2.55-17.7 5.3l-21.8 2.9-2.4-0.1q0.2-0.4 1.05-0.9l1.1-0.7 0.8-0.1q17.75-1.7 28.55-4.35 8.15-1.95 8.45-3.15 0.2-0.85-0.75-1.85-1.1-1.2-4.6-3.5l-2.55 1.2q-2.4 1.1-2.8 1.1-0.95 0.1-0.8-0.25 0.2-0.55 3.05-2.05 6.15-3.25 11.25-8.95 5.2-5.85 8-12.8-3.2-4.3-7.75-11.45l-4.65-7q-2.65-3.75-5.1-6.45-9.3-10.25-23.2-16.35-11.65-5.1-20.5-5.15l-3.35-0.25q-0.3-0.25 3.65-0.65 7.4-0.7 12.85-0.1 6.2 0.65 12.35 3.1 7.9 3.2 17.85 9.1 8.05 4.8 19.75 12.75l18.4 12.5q10.8 7.1 17.9 10.65 10.3 5.15 22.4 6 12.1 0.9 22.65-2.75 5.9-2.05 11.3-6.7 4.25-3.65 7.35-8.1-2.2 1.85-6.1 3.95-3.7 1.95-4.45 2.45l-1.6 0.8q-0.65 0 0.8-2.1l3.3-4.15q2.9-3.8 5.1-7.75 6.9-12.4 7.6-27.75-1.45 3.15-4.35 7.05-1.45 1.85-1.45 1.5l0.6-3.9q1.25-7.45-0.1-15.6-0.9-5.65-2.6-9.65"/>
   <path d="m109.65 92.9-1.5-1.65q-0.3-0.75 2.05 0.6 3.4 1.95 10.05 9.05 7.85 8.45 12.3 16.35 1.2 2.15 1.05 2.7-0.15 0.5-1.65-0.25-1.4-0.75-5.1-2.05l-5.35-1.8 5.5 6.35q3.6 4.45 5.55 7.95 1.1 1.9 0.85 2.2-0.2 0.25-2-0.9-4.35-2.8-14.75-8.65l2.1 4.3q1.25 2.75 1.75 4.6 0.55 2.05 0.25 2.2-0.25 0.05-1.65-1.15-1.3-1.15-14-9.25-12.8-8.2-16.2-10.05-3.05-1.65-2.15-1.7 0.85-0.05 2.45 0.75 6.45 3.1 15.65 8.95 7.6 4.8 13.6 9.2-1.65-5.65-3.85-9.15-0.9-1.35-0.75-1.45l1.65 0.6q1.6 0.8 6.2 3.5l8.45 5q-2-3.45-6-8.35l-4.95-5.6q-1.15-1.15-1-1.35 0.15-0.25 1.6 0.3l4.05 1.05q3.45 0.85 6.65 2.15-2.15-4.8-10.25-13.7-5.6-6.15-10.6-10.75"/>
   <path d="m199.6 96.05 2 1q1.2 2.15 1.9 5.1 0.6 2.4 0.55 3.55-0.05 0.7-0.75 0.15l-3.25-2.95q-15.3-13.9-23.15-18.35-13.5-7.6-35.2-10.1l6-0.15q19.15 2.85 31.75 10.3 8.15 4.8 21 17.2l2.25 2.2q-0.95-4.1-3.1-7.95"/>
   <path d="m154.35 167.3q-1.5-2.5-4.35-2.3-4.35 0.35-11.6 5.05-5.2 3.4-9.05 6.95l7.15-1-2.3 1.7-6.75 0.75q-1.85-0.05-0.5-1.55 2.05-2.35 8.9-6.95 8.8-5.85 14.05-6.2 3.9-0.25 5.8 3.3l-1.35 0.25"/>
   <path d="m163.2 174.5q0.8-0.15 0.8-1.5l-0.05-0.65q-0.3-1.95-1.8-3.4-1.75-1.65-4.25-1.35-5.6 0.75-13.85 4.95-6.25 3.2-10.25 6.15 5.65-0.3 29.4-4.2m-0.1-6.35q1.95 1.9 2.35 4.35 0.45 2.9-1.35 3.25l-15.6 2.6q-20.75 3.05-17.4 0.3 3.75-2.95 10.35-6.5 9.85-5.35 16.3-5.8 3.05-0.4 5.35 1.8"/>
  </g>
  <path d="m90.85 56.6q1.3 1.05-0.95 3.1-2.35 2.1-5.35 2.4-2.9 0.3-5.45-1.55-2.45-1.85-1.4-3.05 1.05-1.25 6.2-1.7 5.3-0.45 6.95 0.8" fill="#595757"/>
  <path d="m90.85 56.6q1.3 1.05-0.95 3.1-2.35 2.1-5.35 2.4-1.8 0.2-3.6-0.55 3.1 0.15 5.6-1.55 2.65-1.9 1.4-4.2 2.05 0.15 2.9 0.8" fill="#3e3a39"/>
  <path d="m41.95 34.65q3.4 0.95 6.65 3.2 5.5 3.85 9.3 10.6-2 2.9-5.05 3.75-3.45 1-6.6-1.4-3.4-2.6-4.2-9.65l-0.1-6.5" fill="#00b8ee"/>
  <path d="m50.4 42.4q-3.6-3.55-8.55-5.65l0.1-2.1q3.4 0.95 6.65 3.2 5.5 3.85 9.3 10.6l-2 2.1q-1.8-4.55-5.5-8.15" fill="#00a0cf"/>
  <path d="m96.55 42.2 1.65-8.25q1.4 4.6 1.1 10.45-0.25 5.3-1.55 7.95-0.85 1.75-1.1-4l-0.1-6.15" fill="#00a0cf"/>
  <g fill="#0d131a">
   <path d="m81.5 65.95q5.3-0.55 6.55 0 0.6 0.25-0.05 0.6l-1.2 0.3-9.55 0.7-1.35-0.2q-0.8-0.25-0.2-0.55l5.8-0.85"/>
   <path d="m84.5 61.7q2.15-0.25 4.1-1.6 1.8-1.25 2.15-2.35l0.05-0.3-0.25-0.5q-1.5-1.15-6.65-0.7-5 0.45-5.9 1.5-0.3 0.35 0.05 1 0.65 1.2 2.4 2.15 2 1 4.05 0.8m-1.2-6.35q5.45-0.5 7.8 0.95 0.95 0.55 0.65 1.55-0.4 1.45-2.6 3-2.4 1.7-4.75 1.95-2.2 0.2-4.6-1-2.2-1.1-3-2.6-0.65-1.25 0-2 1.25-1.4 6.5-1.85"/>
   <path d="m57.35 48.4q-3.45-6.05-8.3-9.7-3.3-2.45-6.7-3.5l-0.1 2.05q0 10 4.25 13.2 2.6 2 5.4 1.55 3.2-0.55 5.45-3.6m-16.45-10.3q0.1-4.55 1.05-4.3 4.1 0.95 7.25 3.35 4.8 3.55 9.05 11.05 0.6 1.05-1.8 2.8-2.65 1.9-6.05 1.9-4.35 0-7-4.5-2.55-4.25-2.5-10.3"/>
   <path d="m97.25 39.85q-0.55 3.05-0.55 4.4 0 2.55 0.35 5 0.35 2.3 0.65 2.3l0.8-3.55q0.4-2.75 0.4-5.25 0-4.5-0.5-7.55-0.6 1.3-1.15 4.65m0.55-5.95q0.45-1.2 0.7-0.7l0.15 0.75q0.9 2.55 0.9 8.5 0.1 10.25-1.85 10.25-0.6 0-1.15-1.6-0.8-2.2-0.75-6.45 0.75-7.4 2-10.75"/>
   <path d="m52.3 41.05q0.3 3.5-0.35 5.15-0.45 1.25-1.35 1.25-0.7 0-1.25-1.25-0.6-1.3-0.65-2.95v-5.25l1.75 1q1.8 1.2 1.85 2.05"/>
  </g>
  <path d="m49.65 41.4q0 1.2-0.5 2.1-0.55 0.85-1.3 0.85t-1.25-0.85q-0.55-0.9-0.55-2.1 0-1.25 0.55-2.1 0.5-0.85 1.25-0.85t1.3 0.85q0.5 0.85 0.5 2.1" fill="#fff"/>
  <path d="m97.95 42.15q0 3.45-0.5 3.45-0.2 0-0.35-1-0.15-1.05-0.15-2.45t0.15-2.4 0.35-1l0.35 1 0.15 2.4" fill="#0d131a"/>
  <path d="m98.7 40.75-0.2 1.25-0.45 0.5-0.45-0.5-0.2-1.25 0.2-1.2q0.2-0.5 0.45-0.5l0.45 0.5 0.2 1.2" fill="#fff"/>
 </g>
</svg>
