<?xml version="1.0" encoding="UTF-8"?>
<!-- Created with Inkscape (http://www.inkscape.org/) -->
<svg version="1.1" viewBox="0 0 406.64 323.5" xmlns="http://www.w3.org/2000/svg">
 <g transform="translate(67.388 11.154)">
  <path d="m336.16 261.73c-27.384-84.231-101.46-125.06-138.11-135.1 0 0 0.89166-15.636-4.7678-29.726-8.3486-20.803-35-35.705-45.292-38.367 2.5545-13.348 20.685-45.656 42.179-61.43 6.5302-4.7896 2.8517-6.4397-2.5432-4.3036-32.811 12.79-56.219 49.71-61.136 63.144-40.923 1.5674-66.061 27.569-71.478 48.619 0.13089-0.65815 0.21863-1.0473 0.21863-1.0473-122.32-20.187-137.35 90.858-108.72 136.78 5.0287 8.1047 8.9617 8.0196 5.3298-0.87312-20.006-48.929-2.7992-144.26 102.31-117.39-0.27661-2.7194 2.6142 9.298 4.6488 13.775-0.0435-0.0362-0.74991 0.17705-0.74991 0.17705-39.081 14.238-79.129 55.887-65.079 125.37 1.766 8.6603 7.2568 13.197 5.4288 1.1361-6.2868-41.372 22.275-101.87 68.656-114.22 8.8048 9.6304 23.131 17.715 46.104 22.02 37.206 6.9641 68.18-5.8053 79.877-28.924 0.42797-0.84405 0.72561-1.3376 0.43338-0.70522 24.191 0.4332 98.498 42.918 138.59 119.85 6.523 12.522 7.0176 10.273 4.0876 1.1787" fill="#00b8ee"/>
  <g fill="#00a0cf">
   <path d="m54.248 103.38c-7.1534-1.1506-13.922-1.8218-20.337-2.0933-4.0841 7.7911-8.2706 11.965-16.132 16.119 10.641-0.22523 22.575 1.1587 35.971 4.5539-0.23905-6.222 0.83089-12.239 0.4966-18.578"/>
   <path d="m66.083 148.59c-3.2369-3.9404-6.334-7.9485-8.356-12.46-9.6216 3.5392-19.301 8.7465-28.198 15.632 1.5709 8.3267 1.4625 14.34-1.8679 22.049 10.564-11.856 23.546-21.022 38.422-25.222"/>
   <path d="m232.49 140.8c-13.014-6.9107-24.971-11.582-34.431-14.154 0 0 0.89818-15.653-4.7606-29.744-5.2405-13.05-17.682-23.771-28.771-30.612 34.369 58.214 20.683 91.271-29.131 106.85 38.213-4.4457 50.409-17.444 57.665-31.758 0.42796-0.84407 0.72559-1.3376 0.4259-0.6852 8.2981 0.12862 22.488 5.2307 39.156 14.966 1.4579-4.6849 1.4418-9.7596-0.15215-14.837"/>
  </g>
  <path d="m147.99 58.531c2.5543-13.347 20.685-45.656 42.172-61.412 6.5302-4.7896 2.8517-6.4397-2.5357-4.3237-32.818 12.807-56.22 49.71-61.143 63.162-17.503 0.66762-32.106 5.8131-43.534 13.125 4.7028 28.657 91.127 43.594 102.01 14.401-11.5-13.629-29.066-22.899-36.969-24.954" fill="#ffe792"/>
  <path d="m184.97 83.484c-11.5-13.629-29.066-22.899-36.969-24.954 2.4535-12.923 19.521-43.555 40.089-59.814-30.173 16.889-50.204 62.948-46.642 63.751 14.422 3.2333 27.475 15.067 36.243 29.933 3.4037-2.3307 5.9248-5.2765 7.2787-8.9158" fill="#dbc77f"/>
  <path d="m79.001 121.79c-4.6095 0.82184-9.7506-2.9263-10.917-4.7626-2.5167-3.9917-6.001-0.14045-5.7297 4.645 0.54911 9.8169 11.942 11.361 16.08 8.9405 7.2907-4.2456 4.4169-9.4976 0.56726-8.8184" fill="#ed8599"/>
  <path d="m144.68 136.86c3.2586 0.75623 11.21-0.8347 13.112-1.6775 2.9481-1.2746 5.262 3.0463 2.967 7.539-4.4876 8.707-17.166 4.4127-20.629 1.395-5.2614-4.6138-4.4361-9.3727 4.5519-7.2556" fill="#ed8599"/>
  <g fill="#0f141b">
   <path d="m-52.351 239.6c-7.0536-11.311-11.48-26.874-12.13-43.505-0.7346-19.378 3.6912-40.193 15.179-57.397 13.903-20.83 43.06-43.526 102.96-34.051-0.4675 2.4825-1.278 7.9708-1.0457 14.211 0.0513 0.47509 0.0858 0.99527 0.1077 1.488-49.31-12.05-75.776 3.6835-89.293 19.207-15.218 17.445-20.938 42.063-20.073 64.927 0.50844 12.899 3.0972 25.244 7.26 35.46 1.0138 2.4692 1.2822 3.9542 1.311 4.6889 0.01103 0.024 0.01103 0.024-0.0011 0.0566-0.77535-0.45944-2.3006-1.9218-4.2792-5.092m0.43761-104.21c-21.945 32.88-18.41 80.407-2.6928 105.62 1.8205 2.9517 5.3057 7.685 7.9396 6.3341 1.7691-0.90945 1.7069-3.6688-0.24868-8.4179-11.254-27.534-11.286-69.394 11.812-95.913 18.912-21.701 50.018-29.636 88.946-19.678l1.8421 0.45731-0.17817-1.8961c-0.93939-9.2581 1.0092-18.005 1.042-18.093l0.2859-1.3815-1.4001-0.23584c-62.242-10.265-92.925 11.562-107.37 33.196"/>
   <path d="m199.09 128.33c36.022 10.363 108.86 50.914 135.81 133.82 0.24763 0.71346 0.3853 1.2321 0.55128 1.8126-0.59057-1.0634-1.3044-2.3778-2.1717-4.0457-39.961-76.643-112.7-118-137.87-120.45 2.286-5.6851 3.2867-9.2945 3.6871-11.137m-2.3691-1.8448c4e-3 0.0421-0.50361 4.219-4.4684 13.681l-0.73372 1.8191 1.9561 0.0436c22.812 1.8708 96.929 41.407 137.45 119.14 5.053 9.662 6.0194 9.8209 7.3261 9.2809 1.3548-0.56194 1.5331-1.9606-0.79041-9.1222-27.643-85.051-101.16-128.21-139.03-135.96l-1.4844-0.43825z"/>
   <path d="m-5.7019 261.11c-1.6053-7.8971-2.487-15.424-2.7772-22.59-2.082-54.89 32.346-88.174 65.977-100.86 1.2333 1.9865 4.2441 6.6465 7.218 10.005-42.194 12.658-69.994 65.44-68.438 106.34 0.11721 2.9793 0.37889 5.8921 0.80326 8.7046 0.20934 1.3833 0.30724 2.4686 0.33942 3.3014 0.03919 1.1204-0.01911 1.7828-0.11433 2.192-0.78736-0.74895-2.2061-3.0952-3.0104-7.0928m63.294-126.35c-39.341 14.342-81.023 52.167-65.907 126.89 1.011 4.9592 3.5269 9.9795 6.2324 9.5182 2.7626-0.49996 2.185-5.2603 1.8081-8.8595-4.5034-42.598 25.009-101.12 67.746-112.75l2.3165-0.60321-1.7402-1.6507c-3.876-3.6936-8.8044-11.902-8.8552-11.982l-0.55958-0.93213z"/>
   <path d="m113.42 168.99c-40.91-7.6579-61.522-33.606-57.912-60.175 1.3821-10.044 7.8124-21.306 17.603-30.453 13.734-12.809 30.807-20.212 51.534-21.007 0 0-0.11185 5.7095 3.0872-0.94354 9.0794-18.844 33.253-53.871 60.981-63.645 4.1044-1.4715 6.1962-1.1949 0.677 3.2674-20.8 16.775-37.938 46.195-42.701 62.24-1.5882 5.3416 2.1048 1.9117 2.1048 1.9117 9.6281 2.4988 34.953 16.481 43.268 37.212 2.8354 7.0881 4.3715 14.034 4.6203 20.662 0.46009 11.573-3.0246 22.242-10.283 31.105-14.709 17.916-42.665 25.494-72.974 19.828m72.718-178.01c-30.463 11.773-55.421 50.59-60.584 63.712-42.016 1.965-69.561 28.277-74.107 52.548-4.1164 22.097 5.6031 53.968 60.904 65.431 31.159 6.4616 61.526-1.7051 76.834-20.363 7.7193-9.3955 11.403-20.432 11.306-34.344-0.22413-33.506-36.941-56.436-50.91-60.346 3.1224-13.036 20.317-41.972 41.376-59.435 12.622-10.467 4.8642-10.96-4.8209-7.2031"/>
   <path d="m80.819 70.176c3.9273 16.362 35.803 29.709 63.126 31.186 22.579 1.2003 38.009-5.7889 42.293-17.789l-2.5218-0.89817c-3.8519 10.814-20.545 15.604-39.592 15.234-25.853-0.50817-57.125-13.369-60.718-28.36z"/>
   <path d="m99.849 86.729 2.3374 1.4396c1.3158-3.9967 8.1724-11.64 10.579-15.028 2.4199-3.3636 1.8722-3.8068-0.47862-2.0079-2.3759 1.7896-11.063 11.469-12.447 15.62"/>
   <path d="m138.06 98.394 2.932 0.22433c-0.72118-6.0599-1.0142-12.624-0.87287-18.303 0.14037-5.679-0.59537-5.0497-1.492-0.95407-0.9148 4.0832-1.3201 12.681-0.56576 19.035"/>
  </g>
  <path d="m176.56 150.87c29.432 10.186 91.468 71.111 96.622 153.04 0.56224 8.8162-0.45221 10.731-3.537-1.9999-18.613-77.268-75.241-131.6-106.5-139.97-8.0245-2.1587-4.0437-17.13 13.412-11.078" fill="#00b8ee"/>
  <path d="m93.618 106.07c0.23915 6.283-4.5944 11.584-10.807 11.806-6.2045 0.24559-11.44-4.655-11.676-10.94-0.23263-6.3005 4.5944-11.584 10.813-11.824 6.1975-0.22536 11.44 4.655 11.67 10.957" fill="#0f141b"/>
  <path d="m89.594 102.61c0.1008 2.9162-2.1679 5.3676-5.0742 5.4726-2.9236 0.12082-5.3671-2.1677-5.4726-5.0742-0.12268-2.9186 2.1677-5.3671 5.0742-5.4726 2.9112-0.10264 5.3671 2.1677 5.4726 5.0742" fill="#fff"/>
  <path d="m135.76 121.15c0.24756 6.6282 5.7661 11.798 12.317 11.54 6.5265-0.24548 11.639-5.8253 11.384-12.436-0.24775-6.6277-5.7668-11.798-12.311-11.558-6.5515 0.25899-11.639 5.8253-11.39 12.454" fill="#0f141b"/>
  <path d="m139.71 117.19c0.12611 3.0624 2.6925 5.4651 5.7735 5.3458 3.0625-0.12625 5.4651-2.6925 5.3458-5.7735-0.12625-3.0624-2.6981-5.45-5.7735-5.3458-3.0625 0.12625-5.4725 2.7125-5.3458 5.7735" fill="#fff"/>
  <path d="m67.861 129.63c-2.1516-1.1424-4.7585-3.4804-5.0086-7.9964-0.15785-2.9773 2.4508-7.3538 4.8136-4.3428 1.3746 1.7598 4.2911 5.1135 11.571 5.0057 3.396-0.0421 3.2864 5.6461-1.0385 7.8786-2.2094 1.1276-6.7147 1.4011-10.335-0.54422m-6.0019-7.9218c0.34999 4.9584 3.1508 7.7481 5.5101 9.0278 3.9901 2.1456 8.6751 1.979 11.17 0.67809 6.5808-3.4238 6.6401-10.279 1.1938-10.395-5.8292-0.11646-10.072-2.6581-11.234-4.2362-4.0206-5.6798-6.9039 1.3136-6.6463 4.9482" fill="#ed8599"/>
  <path d="m157.76 135.91c2.5644-0.73333 3.9085 3.928 2.556 6.5828-1.2933 2.5572-3.4379 4.1079-6.346 4.6774-5.0644 0.97184-11.198-1.4128-13.503-3.4331-2.4236-2.1272-5.1956-8.6291 4.0999-6.3778 3.3638 0.79537 8.0988 0.0145 13.188-1.4485m-1.5329-0.79828c-2.025 0.63186-8.3644 1.9958-11.435 1.2754-5.8037-1.3725-7.5741 0.19775-8.1294 1.2567-0.87651 1.7432 0.30409 4.377 3.1382 6.8565 2.4587 2.1403 9.1765 4.9016 14.55 3.8625 3.2263-0.61249 5.6717-2.114 7.0058-4.9952 1.6287-3.4585 0.85718-6.5792-0.42602-7.9412-0.90859-0.95935-2.1315-1.135-4.707-0.32598" fill="#ed8599"/>
  <path d="m176.56 150.87c31.925 17.429 91.468 71.111 96.622 153.04 0.56224 8.8162-0.45221 10.731-3.537-1.9999-18.613-77.268-68.584-125.92-106.5-139.97" fill="#00b8ee"/>
  <path d="m175.93 152.04c26.596 10.293 90.785 70.354 95.937 151.97 0.0326 0.52517 0.0488 0.94159 0.0638 1.3918-0.27908-1.0273-0.60872-2.2558-0.9798-3.8018-18.39-76.301-74.175-132.95-107.33-140.9-3.6642-0.90714-3.7264 1.5893-0.92583 2.4886 33.058 10.873 87.514 63.687 105.67 139.04 2.2639 9.4287 3.1575 10.324 4.6506 10.095 1.4239-0.21133 1.9466-1.4477 1.5102-8.4876-5.2264-82.765-63.155-140.19-97.324-154.13-4.9064-1.9963-4.6603 1.0195-1.2708 2.3432" fill="#0f141b"/>
 </g>
</svg>
