<?xml version="1.0" encoding="UTF-8"?>
<!-- Created with Inkscape (http://www.inkscape.org/) -->
<svg version="1.1" viewBox="0 0 370.58 317.72" xmlns="http://www.w3.org/2000/svg">
 <g transform="translate(51.184 13.11)">
  <path d="m274.41 241.83c-5.8796 0.10117-19.427-2.0763-22.153-2.8299 0.71711 1.759 3.0395 5.4565 3.0395 5.4565l-8.7915-2.8546s6.0368 15.178 24.06 20.753z" fill="#595757"/>
  <path d="m252.26 239c0.71712 1.7589 3.0394 5.4569 3.0394 5.4569l-8.7919-2.8547s2.378 5.9697 8.6039 11.804c5.3962 1.7766 10.935 3.0126 16.508 3.3296l2.7922-14.906c-5.8796 0.10117-19.427-2.0763-22.153-2.8299" fill="#3e3a39"/>
  <path d="m20.741 182.7c-10.588 1.4932-59.246 1.6196-62.504-52.36-11.837 23.706-7.3711 59.704 4.7245 68.278-3.3651-0.7021-7.7772-5.7168-10.526-9.26-1.5675-2.0095-2.3138-2.0125-1.5871 0.35001 2.2681 7.213 8.8692 22.092 25.201 23.821-6.494 1.4906-10.086 1.2047-11.962 0.7061-0.63921-0.14642-1.4116 0.14515-1.0495 0.73033 2.0394 3.3375 9.1137 10.88 31.436 9.8221z" fill="#eeeeef"/>
  <path d="m-19.583 202.77c-18.454-9.8651-25.43-25-28.953-45.286-1.1035 18.038 3.5428 35.505 11.487 41.125-3.0879-0.63264-7.0684-4.9422-9.8272-8.3729-1.9446-2.4251-2.906-2.3346-1.8693 0.69387 2.6018 7.56 9.3497 20.96 24.802 22.595-4.9391 1.1332-8.2012 1.2408-10.307 1.0098-2.6424-0.27855-3.0187 0.4169-1.2388 2.3642 3.3109 3.6567 11.315 8.7742 29.956 7.8986l6.819-10.917c-10.824-1.0463-21.229-3.9535-30.496-10.406 3.5108 0.32605 6.207 0.14364 9.63-0.70524" fill="#c8c9ca"/>
  <path d="m219.98 75.947c12.711-2.0027 68.109 65.073 85.89 101.22 28.945 58.852-2.9476 97.651-33.517 85.922-9.668-3.7102-2.9984-20.114 4.9569-23.219 3.3312-17.952-28.441-76.942-72.799-84.717z" fill="#eeeeef"/>
  <path d="m283.87 254.04c24.642-32.697-40.862-122.58-68.399-154.98l-10.969 56.086c44.372 7.7929 76.131 66.765 72.815 84.719-5.7663 2.234-10.833 11.45-9.5517 17.783 2.0187-5.4382 11.739 2.1796 16.106-3.6066" fill="#c8c9ca"/>
  <path d="m183.9 11.827c-10.325-1.6589-19.343 1.2729-24.911 6.4779-6.064-1.044-9.9632-2.1666-11.423-0.55053-1.5341 1.7355-0.38627 6.4077 0.95766 11.762-3.4854 3.8658-13.231 22.424-22.88 30.172-19.046 5.4571-90.858 74.779-111.65 135.92-5.6418 2.9781-61.704 47.399-18.429 85.748 13.744 8.751 19.301 15.715 27.515 13.617 8.2281-2.0795 28.98-7.0863 26.882-13.158-2.1139-6.0574-11.482-21.245-8.4314-23.815 3.0324-2.5565 32.958-18.714 78.644-9.2669-0.46832 7.3364-11.799 17.172-6.2205 21.537 5.5642 4.364 28.862 13.815 37.878 11.978 4.5571-0.92864 22.499-6.2943 21.24-10.182-1.2563-3.9025-8.5427-10.878-8.5427-10.878s20.381-11.051 19.151-17.966c-1.2464-6.9167-13.02-27.362-34.249-40.296 5.6623-3.2102 26.973-11.849 35.144-19.568 7.4602-7.0362 30.644-14.254 30.644-14.254s-7.5831-2.5275-15.797-0.4288c6.353-3.1222 11.981-5.7642 15.917-7.5739 3.5912-1.6526-0.0256-2.2555-0.0256-2.2555l-6.7785 0.3995s19.528-10.19 23.059-20.525c-5.6418 2.9736-12.557 4.2057-12.557 4.2057s7.8302-7.2733 9.1791-13.739c-6.0439 1.2425-11.686 4.2193-11.686 4.2193s4.3957-9.893 1.9057-21.569c-2.49-11.675-4.4959-29.385 3.7527-34.939 8.2481-5.5386 20.865-17.958 3.3858-44.428" fill="#eeeeef"/>
  <path d="m183.9 11.827c-10.325-1.6589-19.343 1.2729-24.911 6.4779-6.064-1.044-9.9632-2.1666-11.423-0.55053-1.5341 1.7355-0.38627 6.4077 0.95766 11.762-3.4854 3.8658-13.231 22.424-22.88 30.172-19.046 5.4571-90.858 74.779-111.65 135.92-5.6418 2.9781-61.704 47.399-18.429 85.748 13.744 8.751 19.301 15.715 27.515 13.617 2.4836-0.6216 6.1164-1.524 9.9113-2.6324 2.035-7.4044 7.3496-14.408 13.797-17.519-3.3047-6.7811-7.4328-15-5.2568-16.823 3.0324-2.5566 32.958-18.714 78.644-9.2669-0.4683 7.3364-11.799 17.172-6.2205 21.537 5.3725 4.2032 27.254 13.165 36.881 12.128-2.4737-2.1885 0.36039-4.0789-1.773-5.9954-8.275-7.4428-16.649-10.531-14.436-14.207 6.932-11.477 9.1119-15.315-10.936-20.609-23.381-6.1766-40.538-7.1843-43.404-22.161-2.864-14.977 14.855-41.892 17.077-49.438 12.778-36.697 39.292-100.28 44.609-103.17 5.3173-2.8944 4.9814-8.4291 14.315-23.027 5.7638-9.0265 14.706-10.029 22.848-8.2627 3.2855-2.7231 6.6664-5.234 10.125-7.5622z" fill="#c8c9ca"/>
  <path d="m211.86 46.989c-3.4576 2.3301-6.8218 4.8393-10.125 7.5622 5.7152 1.2201 11.039 3.8178 14.612 5.9397z" fill="#c8c9ca"/>
  <path d="m161.79 272.61c0.9496-3.0104 6.1692-7.1502 8.7818-4.936 2.6108 2.2141 15.282 14.519 13.522 14.507-1.7434-0.0192-12.502-2.3414-12.502-2.3414" fill="#595757"/>
  <path d="m158.76 270.93c2.2006 0.23931 16.502 11.121 16.637 13.909 0.11375 2.785-25.834-2.2988-28.756-3.3503-2.9218-1.0362 6.1647-11.228 12.119-10.559" fill="#595757"/>
  <path d="m146.64 281.5c2.0011 0.71652 14.732 3.3166 22.574 3.9915-6.2173-3.9765-12.915-7.1863-19.205-10.519-3.0355 2.7452-4.9385 5.9578-3.3695 6.5251" fill="#3e3a39"/>
  <path d="m6.8388 286.3c-1.2696-2.8872-7.4086-6.4776-9.7686-4.0069-2.3771 2.4705-15.503 18.511-13.756 18.316 1.7497-0.20523 15.223-6.5406 15.223-6.5406z" fill="#3e3a39"/>
  <path d="m10.911 283.85c-2.1692 0.47399-21.104 16.001-20.937 18.776 0.15954 2.7756 29.02-6.4639 31.819-7.8033 2.7868-1.3549-5.0406-12.266-10.882-10.973" fill="#595757"/>
  <path d="m18.667 287.35c-2.2589-2.2774-5.1943-4.0615-7.7516-3.4914-2.1692 0.47399-21.12 15.999-20.953 18.775 0.097771 1.4389 7.819-0.32559 15.665-2.5648 3.6231-4.9159 7.832-9.4468 13.039-12.715" fill="#3e3a39"/>
  <path d="m4.5253 261.43 2.3856-3.2793-0.2591-9.8442c-6.2155-3.8189-9.7428-7.1759-10.376-5.9307-0.63164 1.244 2.8123 13.576 4.663 16.723z" fill="#595757"/>
  <path d="m4.5253 261.43 2.3856-3.2793-0.2591-9.8442c-6.2155-3.8189-9.7428-7.1759-10.376-5.9307-0.63164 1.244 2.8123 13.576 4.663 16.723z" fill="#3e3a39"/>
  <path d="m4.6776 260.8c-6.4388-3.8072-15.371-10.815-17.837-13.079-1.8617-1.7341-1.6059 15.63 13.095 31.192z" fill="#3e3a39"/>
  <path d="m130.38 59.443c-59.709 1.6578-132.62 128.35-123.37 198.35-5.7759 6.4708-17.993 28.731 6.8805 27.898 24.855-0.81729 33.462-20.827 40.409-46.663 6.9471-25.835 30.63-71.199 72.214-89.5 0 0 44.329-91.202 3.8664-90.081" fill="#eeeeef"/>
  <path d="m39.151 181.46c29.548-75.119 106.93-113.96 105.48-116.93-1.4511-2.9707-7.9121-5.2686-14.242-5.0992-59.71 1.6739-132.63 128.37-123.37 198.36-5.7749 6.4551-17.991 28.715 6.8645 27.897-13.617-2.8357-7.9826-12.193 1.8901-16.81 9.8642-4.6182-3.2582-19.692 23.384-87.42" fill="#c8c9ca"/>
  <g fill="#0f141b">
   <path d="m250.36 239.17c0.83567 1.4861 2.2978 2.5508 2.9842 3.7403-2.4653-0.80699-3.7248-1.3141-6.0993-2.4414-2.3736-1.1317-2.92 0.0118-2.197 1.5015 2.6939 5.6009 7.0497 15.569 25.258 21.208l0.50568-1.6509c-13.792-4.2635-20.434-14.388-22.644-18.47 2.361 0.76631 14.355 5.6175 19.633 5.6701 1.9059-0.19145 2.452-1.8927 0.97214-1.4838-7.1868-0.90486-12.869-3.5792-12.869-3.5792-0.0127-0.033-1.1672-1.7043-2.0947-3.4233 4.7534 0.97317 13.988 2.5852 19.121 2.499l1.4565-1.7738c-5.6892 0.10001-21.043-2.6508-22.959-3.2339-1.9013-0.57277-1.64 0.43978-1.081 1.4426"/>
   <path d="m-22.729 170.13c-8.4353-6.8858-14.725-24.054-17.009-33.759-2.387-10.143-4.4461-8.5797-6.6268-1.1387-2.0465 6.9752-4.1604 18.022-4.2358 26.408-0.08958 12.162 3.2493 23.738 7.4152 31.182-1.2779-1.3677-1.9634-1.8556-2.7598-2.7175-5.3963-5.9031-6.1535-3.0803-4.3886 2.2793 2.2446 6.767 7.3326 16.673 20.77 21.002-2.3556 0.24158-3.5214 0.35448-4.4078 0.30765-5.5615-0.26651-7.0231 1.1875-1.9677 5.0145 3.7953 2.8585 10.332 6.0693 21.663 7.1182 0.19784-0.71112 0.34971-1.4128 0.7588-2.1233-13.658-0.74804-19.424-5.3502-21.739-8.2353 3.9476 0.57367 8.3198 0.11444 11.549-0.88201 3.2322-1.0007 4.5518-1.5812-0.12588-2.1385-14.996-1.7747-20.917-13.764-23.609-21.189 2.8462 3.5212 7.5306 7.2498 10.174 8.4035 2.6581 1.1704 5.618 3.0375 0.85498-1.9394-7.8477-8.1508-11.374-19.601-11.246-35.598 0.0771-9.3225 1.6873-19.097 5.2198-27.67 1.7385 16.21 8.6044 30.113 19.082 38.67 12.889 10.532 29.233 11.405 39.548 11.031 0.15866-0.77755 0.44881-1.5165 0.82797-2.1936-9.8046 0.52796-26.948-1.3645-39.748-11.826"/>
   <path d="m307.71 176.77c-16.302-33.141-58.673-91.053-82.049-101.24-0.56933 0.53887-2.6982 1.2683-3.2647 1.7759 15.187 4.8185 65.023 64.8 82.51 100.33 18.022 36.657 11.789 63.571-0.0506 76.535-8.5563 9.3829-20.574 12.335-32.115 7.9202-3.3756-1.2967-4.0982-4.266-4.1046-6.5189-0.0155-5.729 3.1646-12.096 7.8302-13.921 0 0 0.0703 2.7677-0.74487 5.3762-0.83302 2.6069 1.101 2.8093 1.8683 0.0301 3.2785-11.959-0.44561-29.265-15.125-50.411-13.569-19.541-31.804-34.575-49.19-40.363-0.43319 0.32153-1.6652 1.2336-1.1014 2.03 0.4033 0.52588 4.4223 0.75056 4.136 0.93664 2.1465 0.6484-2.5324 1.3774-0.3804 2.2691 15.477 6.3809 31.292 18.822 43.298 36.114 12.12 17.445 18.073 34.646 17.048 41.569-5.1836 2.4609-10.519 10.05-10.57 16.376-0.0533 4.6759 2.1192 7.4225 5.4496 8.7161 12.415 4.7624 27.413 2.377 36.6-7.6822 12.315-13.493 18.453-42.208-0.0547-79.828"/>
   <path d="m125.95 60.729 0.23103-0.06955 0.19428-0.16274c6.712-5.3887 13.281-15.629 18.084-23.122 2.0783-3.212 3.238-4.6801 4.2755-6.1909 2.5283 8.1881 2.4232 2.9126 1.0366-1.6535-1.0926-3.6181-1.8196-7.0465-1.8016-9.2348-0.0155-0.84241 0.13091-1.4816 0.43337-1.8507 0.79317-0.8834 6.4904 0.16868 8.7298 0.68137 2.2573 0.51428 12.515 2.0098 3.8397-1.055 8.313-5.1996 13.522-6.6908 22.784-5.206l0.53085-2.4447c-9.7154-1.5555-19.316 1.1493-25.582 6.7043-0.67439-0.10449-2.4839-0.44434-2.4839-0.44434-4.7144-0.87528-7.8364-1.4525-9.4229 0.34131-0.70455 0.79678-0.9978 1.9267-1.01 3.3379-0.0234 2.3007 0.66995 4.787 1.5507 8.3082-6.7669 11.223-20.13 28.146-26.54 33.354-2.741 0.83724 3.8096-0.91822 5.1769-1.3056"/>
   <path d="m-1.8472 282.2c-0.12987-0.0565-1.779-1.6009-1.8969-1.6923-10.653-9.4457-15.987-20.008-15.879-31.47 0.03179-1.3779 0.11104-2.7832 0.27941-4.1805 2.6974-22.435 24.605-41.617 31.817-46.93-0.01119-0.89149 0.02179-1.7746 0.0091-2.6482-6.0641 3.9861-32.141 23.466-35.135 48.382-0.17837 1.5089-0.27988 2.9886-0.30425 4.4617-0.10186 12.097 7.6379 25.792 18.791 35.678 0 0 1.7015-1.136 2.3006-1.6048"/>
   <path d="m48.941 282.17c0.13908 0.46205 0.10201 0.88154-0.1539 1.3806-2.3729 4.4076-19.296 8.8306-25.659 9.9186 0 0-8.8821 3.1956-3.7564 3.0143 0 0 3.7853-0.28622 6.9471-1.0503 3.1622-0.76853 22.804-5.7915 25.289-10.395 0.54826-1.013 0.64447-2.1019 0.29131-3.118-0.6705-1.9302-6.6891-12.824-7.8215-15.447-0.51355 0.62025-1.0316 1.2401-1.5573 1.8458 0.84729 1.9144 5.7913 12.031 6.4241 13.848"/>
   <path d="m114.62 269.41c-4.6475-4.5034 5.1487-15.158 6.5629-18.967 0 0 5.5232 1.7743 6.5701 2.1366 1.0608 0.3636 4.5496 0.5819-2.064-2.4986-23.868-11.073-61.749-3.2656-74.788 1.8965-0.02799 0.82507-1.7817 3.1123-1.8717 3.9274 14.867-6.6516 38.303-12.593 69.878-6.3129-0.49291 2.5246-8.9241 14.269-8.9485 17.059-0.0428 1.5029 0.62061 3.0547 2.0415 4.1787 4.4376 3.4684 27.586 14.607 39.771 12.462 0.1084-0.71902-6.4202-1.5028-6.0612-2.1547-10.553-1.4092-27.204-7.9725-31.093-11.728"/>
   <path d="m222.39 141.04c2.4988-2.7791 6.6035-10.269 6.9133-11.622 0.30115-1.3722 0.53091-1.9365-1.2805-1.287-1.5427 0.56082-6.8437 1.8555-9.5463 3.1684 0.77405-2.4997 1.7955-6.6794 1.8438-11.705-5e-3 -2.4921-0.20838-5.1753-0.80226-7.9727-0.89416-4.2348-2.1915-11.491-2.1231-18.323 0.0552-6.58 1.788-13.059 6.1856-15.241 9.6236-4.7663 12.445-12.99 12.526-21.455 0.0487-6.6593-2.1267-14.515-8.1817-22.507-0.0125 1.1593-0.0858 2.4976-0.28945 3.7839 9.1766 16.455 7.8193 29.663-5.3693 38.525-9.0579 6.0859-7.1732 24.8-4.8649 35.666 2.3903 11.175-0.80437 17.35-1.8042 20.42-10.414 4.7284-9.0347 6.3574-5.3124 4.8139 3.7208-1.5422 11.255-5.2729 16.356-6.615-2.095 5.5902-6.3475 9.5304-8.31 11.451-1.9644 1.9223-0.30337 1.9071 0.92869 1.8586 1.243-0.0701 5.1129-0.94248 10.057-3.0288-5.3406 8.9051-18.708 15.816-21.252 17.321-2.5304 1.508-1.4585 1.949 0.56693 2.0335 2.025 0.089 3.3632-0.19305 6.7-0.40647-3.9704 1.8215-14.19 6.3462-16.38 7.7871-2.1903 1.4256-2.4868 1.5748 0.94479 1.3203 3.4194-0.26908 8.3764-0.16391 11.257 0.27946-6.9368 2.369-20.664 8.8681-27.321 13.278-11.848 7.8543-19.051 11.089-30.769 17.289-11.719 6.2156-25.968 14.128-31.029 16.457-5.0596 2.3145-2.3795 2.3444 1.0931 1.2704 3.4726-1.0739 26.281-13.18 26.281-13.18 21.305 12.973 30.316 31.302 32.31 36.206 1.6737 4.0653 0.47455 5.4206-0.35972 6.6165-5.1083 7.3708-23.709 16.04-25.953 17.365-2.2579 1.3252 0.14663 0.88549 1.6766 0.418 1.5494-0.48376 6.7106-3.0411 6.7106-3.0411 1.0694 1.03 3.1353 3.151 4.9545 5.3401 0.93613-7e-3 1.8901-0.0129 2.7732 0.0202-1.7642-2.3282-3.9546-4.6176-5.208-5.8865 4.5784-2.5954 12.462-7.4349 16.436-11.653 2.8539-3.0311 3.6007-3.95 2.4367-8.3368-2.7441-10.429-14.056-25.882-33.606-38.415 1.5312-0.7867 9.1702-4.6638 11.44-5.7486 8.6924-4.1028 11.874-6.1699 22.311-13.133 6.0867-4.0637 18.051-9.099 25.094-11.952 6.3849-2.5931 8.3423-4.4513 0.24009-5.2625-1.2437-0.12564-2.7614-0.15403-4.8924-0.11745 4.9048-2.3596 8.2824-3.7738 10.807-4.8677 4.785-2.0824 0.81494-4.1332-0.63467-4.1174-0.78938-0.0249-1.6982 0.0299-2.8436 0.0636 6.0348-3.654 16.487-11.157 19.528-18.821 0.67513-1.6854 0.9232-2.7114-1.517-1.3079-2.4581 1.4019-6.2767 2.6207-8.7305 3.2764"/>
   <path d="m167.32 266.41c-2.6212 0.75335-5.5961 3.5354-6.3638 5.943l1.6509 0.50566c0.50844-1.6821 2.9217-4.154 5.1852-4.8094 0.9464-0.2762 1.6788-0.16649 2.2101 0.28522 2.3942 2.0196 10.335 9.8138 12.719 12.817-2.4878-0.39972-7.5225-1.4112-10.963-2.1605l-0.37495 1.6984c1.1038 0.23241 11.829 3.141 13.62 3.1554 0.45023-5e-3 0.8309-0.24141 0.98033-0.65997 0.81614-2.2127-14.719-16.04-14.883-16.166-0.97317-0.84608-2.3037-1.0581-3.8009-0.60569"/>
   <path d="m146.94 280.64c8e-3 -0.26913 0.23949-1.1842 1.4982-2.755 2.6237-3.2763 7.1538-6.4444 10.233-6.0928 2.0405 0.27025 14.777 10.175 15.765 12.817-2.7425 1.0575-23.916-2.6348-27.483-3.9215-0.0141-0.0175-0.0127-0.033-0.0111-0.0462m-1.6573-0.63667c-0.37061 1.6493 0.59675 2.7648 0.93657 2.8892 1.7834 0.63433 27.122 5.6662 30.262 3.3574 0.38463-0.28083 0.58156-0.67721 0.55813-1.1245-0.16671-3.6622-15.955-14.801-18.185-15.062-5.3408-0.60676-12.761 6.5201-13.571 9.9391"/>
   <path d="m-3.5584 281.7c-0.14973 0.16667-16.859 17.693-15.78 19.851 0.19159 0.37674 0.58192 0.59112 1.0138 0.53932 1.7943-0.20121 11.475-4.349 13.743-5.4183l2.7403-3.3739c-5.0996 2.4054-10.75 4.9366-13.443 5.9679 2.4447-3.7958 10.639-13.927 12.966-16.371 0.60885-0.62983 1.5917-0.60596 2.3282-0.49141-0.30694-0.5983-0.59157-1.1947-0.8271-1.7866-1.1236-9e-3 -2.0612 0.37107-2.7453 1.0887"/>
   <path d="m22.939 292.17c-0.66892-1.9481-2.506-4.5211-4.7914-6.4685-0.823 0.15215-1.6381 0.21506-2.4544 0.29136 2.5914 1.7222 4.9127 4.7337 5.6074 6.7466 0.29038 0.78574 0.20514 1.2414 0.10918 1.3094-3.0019 1.4483-26.86 8.7807-30.443 8.2105 1.2043-2.6866 13.881-13.624 18.631-16.743-0.67046-0.14919-1.3543-0.29955-2.0208-0.49337-6.0989 4.3796-19.771 15.278-19.577 18.294 0.0051 0.45022 0.24417 0.79966 0.63818 1.0234 3.3781 1.9806 31.936-7.5074 33.891-8.4455 0.49671-0.22597 1.2289-1.3352 0.41772-3.7096"/>
   <path d="m-4.7361 240.07c-0.02315-3e-3 -0.1476-0.02-0.29722-0.0219-0.30936-4e-3 -0.71953 0.19384-0.51681 1.6739 0.2944 2.2163 4.012 14.032 5.5454 16.611l1.6845 0.32874c-1.6539-2.8132-4.5364-13.126-4.607-15.56 0.68986 0.28583 2.0949 1.233 3.5016 2.2119l5.6375 3.7184 0.90849-1.4759-5.5624-3.6668c-2.7504-1.9071-5.2384-3.7505-6.294-3.8191"/>
   <path d="m4.2376 261.55 0.87844-1.492c-6.1379-3.6186-15.849-11.333-17.688-12.97-1.8387-1.6377-2.8841-1.667-2.799 0.0675 0.40324 8.3656 1.9154 17.67 14.184 31.796 0.029178-0.83846 0.00655-1.6005 0.00359-2.5858-9.4819-11.024-12.01-22.64-11.964-26.745-0.0076-0.27052 0.0133-0.50706 0.04714-0.71095 2.9773 2.5973 11.065 8.9109 17.322 12.621"/>
   <path d="m37.052 138.77c-20.348 34.203-31.807 71.413-32.075 102.82-0.035014 5.4866 0.27076 10.781 0.91564 15.852-3.0958 3.6304-8.0291 11.682-8.0907 18.483-0.012072 1.663 0.26501 3.2617 0.93544 4.6837 2.0439 4.3543 7.1436 6.4227 15.179 6.1648 26.687-0.89378 35.101-23.935 41.433-47.477 6.0468-22.472 36.375-74.626 71.612-88.792 2.4012-0.96171 2.6787-3.0331-0.87303-1.9796-36.524 10.767-66.691 67.394-72.834 90.223-7.6562 28.47-16.567 45.104-39.403 45.863-7.0961 0.22755-11.52-1.4226-13.146-4.9215-2.8725-6.1245 2.0937-15.094 5.6721-19.3 0 0 0.81732 2.4064 1.4375 3.8375 0.62135 1.4177 1.9215 0.85342 1.6316-0.85429-13.269-76.807 56.465-188.52 121.2-202.88 5.0012-1.1143 3.3293-2.8631-0.53016-2.0932-38.814 7.5977-67.818 37.942-93.066 80.375"/>
  </g>
  <path d="m219.86 82.959c3.9471 2.9213 19.686 16.384 25.028 23.631-4.6757-0.77294-10.449-0.0822-10.449-0.0822s4.2634 7.231 5.2759 14.809c-5.0098-3.9957-11.826-6.9475-11.826-6.9475s2.4707 5.0734 0.97711 11.542c-3.2-4.7084-7.4965-9.0714-7.4965-9.0714s1.3918 6.1362 0.66149 8.293c-2.8695-2.1875-12.555-6.9481-12.555-6.9481z" fill="#eeeeef"/>
  <path d="m228.53 37.633c5.373 4.0143 9.1998 24.454 3.0035 28.856-9.0701 6.4019-17.264-4.1115-18.607-16.384z" fill="#89694e"/>
  <path d="m228.53 37.633s-16.302 13.014-14.536 17.803c6.4961-2.7722 15.934-8.8417 18.598-10.986-1.088-3.1095-2.5129-5.6641-4.0626-6.8165" fill="#755740"/>
  <path d="m183.22 26.44c-7.5784 2.0919-23.581 18.892-13.978 33.75 9.6036 14.859 33.418 10.378 38.624-7.9635z" fill="#89694e"/>
  <path d="m205.36 58.019c1.0449-1.7472 1.9121-3.672 2.5086-5.7916l-24.647-25.787c-2.9921 0.82853-7.2822 3.9418-10.794 8.3122 14.435 4.5272 27.454 18.261 32.93 23.266" fill="#755740"/>
  <path d="m226.32 42.658c3.7639 2.8062 7.0869 13.89 2.7392 16.949-6.3475 4.5007-11.511-1.8895-11.826-8.375z" fill="#fff"/>
  <path d="m186.75 35.479c-5.3178 1.4641-14.511 11.776-8.1401 21.018 4.2739 6.2168 18.432 6.3411 22.072-6.4904z" fill="#fff"/>
  <path d="m226.32 42.658-9.0875 8.574c0.11047 1.8043-0.0594 1.6903 0.69777 3.2504 3.6366-2.9304 7.9293-5.5191 11.39-6.9746-0.96998-2.3075-1.1376-3.4647-2.9986-4.8502" fill="#dcdddd"/>
  <path d="m186.75 35.479c-2.8957 0.80557-3.0443-0.71874-5.1049 3.7227 5.6513 3.0225 11.911 8.1289 17.998 13.411 0.94928-1.3778 0.51014-0.68353 1.0399-2.6067z" fill="#dcdddd"/>
  <path d="m224.7 63.57c-0.0365 4.4853-5.1383 8.0662-11.419 8.0191-6.2629-0.04515-11.3-3.7285-11.269-8.2152 0.0353-4.472 5.1383-8.0662 11.419-8.0191 6.2618 0.06303 11.301 3.7285 11.269 8.2152" fill="#e85377"/>
  <path d="m205.38 57.671c-2.0621 1.4504-3.3509 3.4639-3.3596 5.7007-0.0365 4.4853 5.0059 8.1691 11.269 8.2147 3.6429 0.05202 6.8956-1.1853 8.9985-3.0773-9.902 2.17-18.243-2.0166-16.908-10.839" fill="#c94768"/>
  <path d="m222.53 77.654c-2.6674-0.50552-15.271-1.7091-28.839-0.24535-6.8882 0.74065-19.405 3.7752-30.673-6.2497-3.6927 9.1141-5.2553 25.017 0.33562 35.142 3.7315 6.7873 15.923 18.574 44.001 13.614 21.05-3.7252 14.49-17.997 11.694-22.274-3.5351-10.435 3.4794-19.986 3.4794-19.986" fill="#89694e"/>
  <path d="m172.76 101.37c3.0623-7.1707 7.1164-15 8.6774-22.97-5.7738-0.19531-12.283-1.7689-18.417-7.228-3.6913 9.0985-5.2405 25.003 0.33563 35.142 2.1047 3.82 6.9103 9.2418 15.728 12.338-8.6989-4.7984-11.214-13.859-6.3267-17.282" fill="#755740"/>
  <path d="m177.27 102.63c8.283 3.2235 38.067 8.2186 41.857-4.8695-0.0273-0.04748-0.0366-0.09316-0.0814-0.09714-3.5351-10.435 3.466-19.987 3.466-19.987-2.6674-0.50554-15.271-1.7091-28.824-0.24397-5.2385 0.56709-14.714 2.397-23.416-1.1154-5.2164 4.8067-1.8008 22.926 6.9866 26.337" fill="#922f00"/>
  <path d="m179.7 104.2c-13.37-5.6249-11.286-18.799-11.286-18.799 9.1796-3.8696 40.324-8.5275 44.026 19.074 0 0-19.37 5.3493-32.74-0.27517" fill="#ed8599"/>
  <path d="m168.42 85.393s-1.8905 12.082 9.6713 18.038c8.0131-12.937 21.813-13.971 30.066-10.766-9.7774-14.144-32.191-10.444-39.738-7.271" fill="#ce7486"/>
  <g fill="#fff">
   <path d="m174.16 77.09c1.7035 3.3213 3.5458 8.5321 4.5011 7.601 0.95488-0.93207 4.628-6.4139 4.628-6.4139z"/>
   <path d="m215.92 76.653c1.2476 2.2196 3.072 8.855 3.879 7.2762 0.80362-1.5616 2.7272-6.28 2.7272-6.28z"/>
   <path d="m176.01 101.53c0.80768-1.4038 3.3711-6.7471 3.9789-5.3289 0.61976 1.4355 2.14 7.9001 2.14 7.9001z"/>
   <path d="m216.59 102.36-3.6987 1.8006c1.1265-2.5181 3.184-8.9054 3.5026-8.5917 0.88734 0.90146 2.0268 3.4803 2.0268 3.4803z"/>
  </g>
  <g fill="#c8c9ca">
   <path d="m183.29 78.27-9.1313-1.1666c0.89393 1.7431 1.8188 4.0016 2.6479 5.6126 1.0374-1.5095 2.1351-2.4289 5.4064-2.8235 0.62188-0.93003 1.0769-1.6004 1.0769-1.6004"/>
   <path d="m222.53 77.654-6.6082-0.98865c0.645 1.1499 1.4639 3.5385 2.2105 5.3198 0.59282-1.5173 1.6673-1.8181 3.3478-1.8001 0.57009-1.3619 1.0462-2.5252 1.0462-2.5252"/>
   <path d="m176.01 101.53 3.0616 1.287c-1.9901-1.3497-1.5296-2.4379-1.0219-4.9773-0.81396 1.3223-1.6457 2.9984-2.0398 3.6922"/>
   <path d="m214.9 98.921c-0.68447 1.842-1.4639 3.9949-2.0184 5.2322l3.6987-1.8006 0.94119-1.6934c-1.74 0.65582-2.4951-1.03-2.6214-1.7383"/>
  </g>
  <path d="m228.29 30.869c-5.2244-20.422-17.714-22.906-22.909-27.315-5.2112-4.4093-8.0769-8.7895-10.637-16.092-1.4897 4.6439 0.47581 12.227 0.47581 12.227s-6.0669-4.4219-13.609-6.5177c3.7096 7.5945 0.31439 20.162 4.6065 27.776-4.0525-5.1336-8.037-4.9288-8.037-4.9288s3.5483 6.0097 5.9536 16.837c1.5856 7.2004 13.55 20.11 27.233 20.224 13.667 0.1146 18.988-14.141 16.924-22.209" fill="#e85377"/>
  <path d="m188.95 26.158c1.6412 0.66672 2.001 2.1422 5.234 2.176-4.4331-10.88-6.0673-20.401-7.3353-26.161-1.2676-5.7605-4.6154-8.8169-5.25-8.9998 3.723 7.5957 0.31444 20.162 4.6235 27.762-4.0695-5.1198-8.0538-4.9168-8.0538-4.9168s3.5617 6.0109 5.9536 16.837c1.587 7.1848 13.567 20.095 27.233 20.224 7.452 0.05575 12.425-4.1535 15.069-9.299-17.006 7.5096-33.66-3.1539-37.474-17.622" fill="#c94768"/>
  <g fill="#0f141b">
   <path d="m117.18 94.6c-2.5546 0.91666-1.4953 1.5005 0.16488 1.6967 1.6663 0.17914 8.7218 0.41082 11.56 0.43668-2.9651 2.8638-8.479 8.152-12.247 17.037-0.84267 2.0034-0.0147 2.2025 2.9776 1.1176 2.9818-1.0678 12.019-4.2214 15.973-5.5221-1.8802 3.3105-6.6514 10.455-7.5552 12.422-0.89057 1.9857-0.57388 2.423 1.8185 1.51 2.366-0.91983 10.391-4.4767 13.82-5.5698-1.301 2.1518-2.9274 5.1357-3.9711 9.0576-1.0438 3.9241 1.7032 0.67671 4.6527-0.76279 2.95-1.4214 9.8124-3.6711 12.455-4.3101 2.662-0.65531 1.6639-1.4226-0.8756-1.2377-2.5252 0.22661-8.7546 2.1139-12.381 4.0148 0 0-0.81503 0.41821-1.6423 0.82185 1.4713-4.2821 3.3649-7.0328 4.4719-8.6171 1.1054-1.5664 1.4067-1.9221-0.94476-1.3203-2.3543 0.58356-8.3714 2.4491-14.054 5.1682 2.4618-4.701 5.5086-10.445 6.8274-12.264 1.3209-1.8172 2.2898-2.1949-1.014-1.25-3.3026 0.93153-10.976 3.5525-17.495 6.0385 3.3708-9.2379 11.829-16.614 13.41-17.807 1.5972-1.1767-0.43201-0.65884-1.861-0.67266-1.4404-0.03731-5.3506 0.39979-10.123 0.18498 7.2592-3.8647 14.494-14.459 15.548-17.222 1.0671-2.7617 0.82358-3.9256-0.8079-1.0878-1.6303 2.8244-10.873 15.318-18.722 18.131"/>
   <path d="m219.35 83.654c3.7232 2.7576 17.455 14.521 23.568 21.836-4.1754-0.33742-6.9544-0.12423-8.5807 0.14585-1.3838 0.23755-1.0808 0.21933-0.63716 1.3065 0.4258 1.0856 3.3854 5.8684 4.7777 12.37-4.7191-3.3359-9.163-5.2982-10.251-5.7294-1.0881-0.41096-1.6766-0.41799-1.1198 1.1694 0.55687 1.5874 1.402 2.9664 1.3738 7.103-8e-3 0.60195-0.018 1.2218-0.11931 1.8604-2.9606-4.008-5.2218-6.4427-6.3835-7.4817-1.1437-1.0545-1.7286-0.89933-1.4509 0.79381 0.25575 1.6867 0.82176 6.5302 0.8296 6.5943-3.6954-2.3594-9.4567-4.4831-9.8221-4.6593l-2.1201 0.47833c0.0853 0.0524 8.0742 3.7897 11.023 5.6069 2.4248 1.4691 2.7665 1.3688 2.6495-1.43-0.0812-1.6263-0.21482-3.3202-0.33054-3.996 1.1422 1.2748 2.5391 2.8734 3.5955 4.2036 2.7228 3.4923 3.4513 3.4937 3.6242-0.60178 0.14574-3.1759-0.26916-6.1162-0.57007-7.1903 1.7329 0.85024 5.3201 2.6424 7.758 4.3195 3.3086 2.2578 3.702 1.9282 3.1458-1.4986-0.83069-5.3095-3.4063-9.5511-4.4954-11.615 1.9153-0.14559 7.8472 0.0727 8.9151 0.19851 1.0682 0.1263 2.1497 0.45979 0.83614-1.3698-5.7757-8.0788-16.941-18.363-25.203-23.805z"/>
   <path d="m214.92 55.619c-0.39035-1.3343-1.0256-1.6783-1.2621-3.1249-0.57072-0.0054-1.3306 0.70548-0.43994 3.4512 0.58014 0.05126 1.1548 0.01208 1.693-0.32715"/>
   <path d="m229.04 36.939-1.0264 1.3845c3.156 2.3567 5.9315 11.345 5.839 18.857-0.0646 4.294-1.054 7.3481-2.8232 8.5878-2.5229 1.7785-5.004 2.2249-7.4171 1.3461-0.31508 0.51188-0.59891 1.0265-0.9409 1.4865 3.048 1.2363 6.2781 0.77958 9.3432-1.4098 2.8601-2.0321 3.5285-6.5425 3.5626-9.9824 0.0974-7.2109-2.5643-17.299-6.5392-20.268"/>
   <path d="m208.7 52.467-1.6727-0.46262c-0.45435 1.579-1.5999 4.1088-2.326 5.5064 0.61222-0.26073 1.9114-1.5267 2.7808-1.6433 0.45559-1.0841 0.89203-2.2059 1.2208-3.3822"/>
   <path d="m202.43 60.618c-3.3778 3.9203-8.0537 6.5709-13.407 7.3675-7.8314 1.179-14.936-1.9089-19.039-8.2671-4.0498-6.2442-3.0212-12.484-1.4525-16.598 3.2048-8.4277 10.852-14.717 14.919-15.849l-0.45605-1.6594c-5.2048 1.4426-13.384 8.8925-16.545 17.197-2.46 6.4624-1.8127 13.136 1.6933 18.555 4.4805 6.9326 12.622 9.6039 21.127 8.34 5.162-0.78074 9.7162-3.1219 13.23-6.6213-0.10356-0.86368-0.12061-1.6927-0.0521-2.4648"/>
   <path d="m218.95 56.232c-0.59678-1.339-0.81797-3.4679-0.90342-5.046l-1.6989 0.547c0.0894 1.5326 0.49113 2.5351 0.98699 3.8966 0.62166-0.21492 1.0707 0.45441 1.611 0.6011"/>
   <path d="m226.81 42.007-0.97343 1.2948c2.3493 1.7637 4.5184 7.2216 4.4631 11.263-0.0389 1.4583-0.31817 3.417-1.7054 4.3874-2.0147 1.4231-4.0246 1.7223-5.82 0.86652 0.3026 0.6474 0.56832 1.305 0.82393 1.9753 1.573 0.31888 3.682 0.7301 6.0147-0.91229 1.5219-1.0889 2.2747-3.6534 2.3197-6.3003 0.0478-4.613-2.343-10.488-5.1244-12.575"/>
   <path d="m199.9 49.789c-1.5414 5.4327-5.2842 9.0054-10.293 9.8321-4.1708 0.67942-8.419-0.78891-10.33-3.5798-2.7256-3.9693-2.1932-7.8572-1.2514-10.423 1.4666-4.0262 4.762-7.3699 7.5513-8.7894-0.32154-0.43319-0.55394-0.90798-0.71232-1.4572-3.1407 1.5935-7.2658 5.1968-8.8826 9.6711-1.5295 4.178-1.0245 8.5407 1.4654 12.124 2.3083 3.3477 7.5837 4.8573 12.431 4.0487 5.6355-0.9323 9.8607-4.9356 11.585-10.987z"/>
   <path d="m202.88 63.386c0.0382-3.995 4.7614-7.2112 10.533-7.1614 5.7869 0.05256 10.463 3.3352 10.427 7.3312-0.0397 4.0128-4.7614 7.2112-10.533 7.1614-5.7884-0.03471-10.463-3.3351-10.427-7.3312m-2.5268 0.3974c-0.0323 4.9472 6.0525 8.8962 12.791 8.9523 6.7227 0.05428 12.23-3.9175 12.272-8.8801 0.077-4.9437-5.3915-9.0123-12.13-9.0684-6.7227-0.05428-12.891 4.0336-12.933 8.9962"/>
   <path d="m164.12 105.89c-2.5301-4.6042-3.5927-10.694-3.5412-16.846 0.0595-5.865 1.127-11.737 2.8646-16.438 10.074 8.2679 20.793 6.9144 27.969 5.9614l2.3741-0.29846c12.398-1.3332 22.305-1.0426 28.022 0.33507-1.0096 3.1805-1.9057 3.9559-3.1318 5.2607-1.2969 1.3921-1.476 5.2005-1.4967 7.4201-6e-3 2.1088 0.28242 4.3425 1.0469 6.6293l0.0368 0.09324 0.0814 0.09715c0.61405 0.94027 3.0962 5.0176 3.0587 9.3616-0.0208 1.253-0.22397 2.5348-0.78143 3.7539-1.6964 3.9294-6.2123 6.5591-13.416 7.8268-31.076 5.4889-41.353-10-43.104-13.17m-2.7674-33.866c-3.8711 14.747-4.3422 24.558 1.2518 34.7 1.8447 3.3518 12.679 19.732 44.915 14.043 9.816-1.7368 15.955-4.2387 16.151-12.916 0.10354-4.7349-3.0275-9.3589-3.8105-10.57-0.68125-2.0121-0.93288-3.9998-0.9234-5.8888 0.058-7.325 4.239-13.16 4.2951-13.234l0.81282-2.7347c-1.0017 0.54565-2.1226 1.5755-3.5315 1.1812-5.7306-1.5857-16.684-1.1593-26.906-0.04301l-2.4232 0.29411c-7.0964 0.94266-19.512 0.67323-27.588-6.3235-0.73417-0.64955-1.7688-0.29129-2.242 1.502"/>
   <path d="m169.29 97.119c2.0462 3.9722 4.7271 5.9389 9.4252 7.3538 12.736 3.8238 31.773 3.3156 38.357-1.3393 1.7734-1.2375 2.144-2.8869 2.2264-4.5316l-1.1375-0.0556c-0.0667 1.2624-0.84887 2.4301-2.3073 3.4616-6.3447 4.469-22.839 5.1062-35.297 1.3699-4.3718-1.3218-7.5449-3.8554-9.4402-7.5454-3.6004-6.9979-1.6978-16.366-0.66649-19.384l-1.0786-0.36515c-1.0884 3.1556-3.8596 13.701-0.0831 21.048"/>
   <path d="m201.59 85.39c-6.1919-3.547-13.898-4.1468-20.582-3.5501-0.0793 0.89701-0.38999 1.3598-0.80441 1.7234 6.4216-0.49404 13.959 0.21688 20.107 3.7285 6.0711 3.4733 10.276 8.6824 11.38 16.84l1.3977-0.19132c-0.3519-8.2342-5.0329-14.867-11.497-18.564"/>
   <path d="m168.15 84.745 0.55046 1.3035c2.0093-0.85241 5.0994-1.6903 8.7285-2.1792-0.22202-0.54133-0.49984-1.0111-0.84001-1.437-3.5139 0.62502-6.4951 1.504-8.4393 2.3172"/>
   <path d="m173.54 77.411s3.1905 8.7863 4.5538 8.7957c0.9986-0.0017 5.4084-6.9795 5.7919-7.5483l-1.1673-0.78678c-0.93421 1.4107-3.3746 4.9537-4.3134 6.0603-0.54005-0.55594-3.2229-6.2823-3.2229-6.2823z"/>
   <path d="m214.99 77.002c0.39526 0.71856 3.4424 8.6341 4.6481 8.6295 1.2218 0.01799 3.7625-7.9184 3.843-8.1172l-1.5901-0.12468c-0.0195 0.04318-1.2269 3.8584-2.1062 5.7161-0.41036-0.75137-2.5739-5.1774-3.0248-5.9792z"/>
   <path d="m175.39 101.18 1.2251 0.69292s2.2038-4.1229 2.9066-4.8996c0.55135 1.6499 1.5437 5.6895 1.9117 7.2769l1.3782-0.32798c-0.0656-0.27564-1.8842-6.6717-2.1779-8.0303-0.28613-1.3431-0.82641-2.1509-1.7262-0.77319-0.89982 1.3777-3.5152 6.0359-3.5152 6.0359"/>
   <path d="m211.78 104.31 2.0338-0.77378 1.5332-3.8629c0.35254-0.93582 0.78847-2.1027 1.1066-2.8526 0.54645 0.83985 1.843 2.8614 2.0678 3.3715l0.9113-0.99889c-0.15485-0.28354-2.5725-5.1935-3.2552-4.9997-1.1417 0.34889-4.4018 10.115-4.4018 10.115"/>
   <path d="m223.64 46.159c-2.1084 2.6876-5.9462 5.8845-12.272 5.8334-13.396-0.12223-24.733-12.784-26.182-19.37-1.6314-7.3951-3.769-12.471-5.0281-15.105 1.3519 0.47925 3.802 1.5098 5.569 3.7753 1.7653 2.2653 3.5262 4.0715 1.4279-0.89029-2.0849-4.9597-2.2428-8.9243-2.3999-13.968-0.1237-3.9958-0.3019-8.0872-1.3891-11.563 6.2828 2.1563 9.0733 3.977 11.223 5.6879 2.1456 1.7277 2.454 1.1388 1.6881-1.1371-0.78256-2.2909-1.0021-3.9295-1.0028-7.6886 2.307 5.2969 5.0626 8.9675 9.4016 12.651 1.2105 1.011 2.7192 1.9043 4.4548 2.9168 5.973 3.5096 14.148 8.3108 18.108 23.829 0.26239 1.1026 0.41674 2.3081 0.40202 3.5436-0.0326 3.9325-1.478 8.2785-3.9965 11.483m5.8026-15.941c-3.5931-13.566-13.287-21.293-19.231-24.769-1.646-0.96848-3.0783-1.8102-4.1409-2.7136-3.5567-3.0128-6.7448-7.7043-8.6602-11.523-3.1004-6.1918-4.2649-5.4222-4.3168 0.34718-6e-3 2.1088 0.26213 4.2104 0.53487 5.8068-2.0475-1.2603-5.9519-3.5707-9.5697-5.0013-3.5859-1.4097-3.6619-0.95771-2.6731 3.4788 0.60228 2.7023 1.1083 7.2063 1.1992 10.657 0.13319 3.5828 0.26686 7.2111 1.0569 10.486-1.2109-0.85358-1.9838-1.2682-2.5961-1.5157-4.3347-1.5884-4.8267-1.218-2.5283 3.3162 1.2715 2.5095 2.5534 7.191 4.2571 14.847 1.5705 7.1676 14.128 20.399 28.571 20.517 7.1976 0.06476 11.96-3.1934 14.373-6.2666 3.6868-4.7201 5.0969-12.433 3.7195-17.664"/>
   <path d="m191.8 51.08c-4e-3 -0.96738 0.41524-1.6454 0.79732-1.6431 0.35984-1.16e-4 0.76229 0.68802 0.75783 1.6546-0.0401 0.96345-0.41523 1.6454-0.79733 1.6431-0.35978-2.98e-4 -0.76673-0.68841-0.75782-1.6546m-1.7746-0.02193c-0.0235 1.7924 0.95438 3.1966 2.2215 3.2097 1.253 0.02075 2.2501-1.3888 2.2642-3.1776 0.0218-1.7746-0.95438-3.1966-2.2227-3.1963-1.253-0.02075-2.2485 1.371-2.263 3.1642"/>
   <path d="m222.04 52.118c0.0333-0.88757 0.36233-1.5556 0.70715-1.5386 0.31517-0.0041 0.68797 0.66346 0.68576 1.5538-0.0329 0.88311-0.40696 1.5517-0.70714 1.5387-0.31515 0.0037-0.70136-0.66464-0.68577-1.5538m-1.5413-0.1681c-0.0444 1.5208 0.82215 2.7082 1.9003 2.7225 1.0923 0.0066 1.9436-1.1775 1.9685-2.682-2.9e-4 -1.5247-0.83999-2.7098-1.9181-2.7241-1.079-0.0054-1.9436 1.1775-1.9507 2.6836"/>
  </g>
 </g>
</svg>
