<?xml version="1.0" encoding="UTF-8"?>
<svg version="1.1" viewBox="0 0 254.14 284.45" xmlns="http://www.w3.org/2000/svg">
 <g transform="translate(.044898 .025)">
  <path d="m2.9 189.35q-2.1-15.55-0.2-20.25 1.35-3.45 25.1-12.4 22.4-8.5 29.3-9.4l18.4 62.75-65.75-3.55q-4.6-0.6-6.85-17.15" fill="#3396cd"/>
  <path d="m9.85 185.65q-0.75-13.3 1.4-15.9 5.85-4.45 21.3-10.55 16.25-6.5 27.7-8.5l15.25 59.35-63.15-3.1q-1.85-10.85-2.5-21.3" fill="#2880ae"/>
  <path d="m109.4 263.65q-1.45 0-6.8-1.9-5.1-1.85-6.35-2.65-1.55-1-15.7-44.5l56.65 2.05-9.6 43.95-18.2 3.05" fill="#3396cd"/>
  <path d="m106.8 238.15q-12.95-6.9-22.75-13l-3.5-10.55 56.65 2.05-7.3 33.4-23.1-11.9" fill="#2880ae"/>
  <path d="m99.75 232.8q-0.3-0.85 3.75-7.2l4.85-7.95 55.65-1.1q55.35-0.85 54.1 0.1-0.95 0.7-25.75 32.5-24.55 31.45-25.35 31.7l-11.65 1.15-12.1 0.35q-1.35-0.35-13.4-7.95l-13.4-8.75q-1.3-0.95-8.9-16.4-7.15-14.5-7.8-16.45" fill="#3396cd"/>
  <path d="m145.45 242.4q-15.65-10.55-20.05-12.95l-12.5 1.15-13.5 1.45 8.95-14.4 55.65-1.1q55.35-0.85 54.1 0.1-0.7 0.5-16.9 22.1l-26.85 35.35q-0.8-1.3-4.9-9.5-3.15-6.2-5.95-9.55l-18.05-12.65" fill="#2880ae"/>
  <g fill="#0d131a">
   <path d="m26.7 158.25q-21.85 8.45-23 11.25-0.65 1.8-0.65 6.6 0 7.1 1.2 14.8 1.4 8.8 3.55 12.55 1.15 1.8 2.1 1.95l30.55 1.85 33.55 1.6-17.7-60.25q-8.55 1.6-29.6 9.65m29.3-12.7 1.9 0.5 19.1 65.2-1.55-0.1-66.4-3.1q-1.15-0.15-2.45-1.1-1.45-1-2.2-2.3-3.3-5.6-4.15-19.5-0.85-12.8 0.75-16.8 1.65-4.1 26.15-13.4 22.4-8.55 28.85-9.4"/>
   <path d="m8.1 170.3q1.05-2.45 21.45-10.85 18.5-7.65 25-9.35l0.45 1.6q-6.75 1.8-24.75 9.35-18.6 7.8-19.65 9.6-1.25 3.1-0.1 18.35 1.15 14.8 2.4 17.2l-1.7-0.15q-1.35-2.75-2.85-17.25-1.6-15.25-0.25-18.5"/>
   <path d="m83.2 219.1 8.35 24.75q4.5 13 5.4 14.4 1.4 0.85 6.25 2.55 5 1.75 6.2 1.75l3.85-0.55 0.65 1.4 0.7 1.4-4.95 0.55q-1.6 0-7.6-2.05-5.8-2-7.15-2.9-1-0.6-5.2-11.6-4.75-12.35-10.9-31.2 2.75 1.15 4.4 1.5"/>
   <path d="m102.45 241 2.45 5.3 2.6 5.25 2.7 11.9-1.65 0.4-6.1-22.85"/>
   <path d="m99.55 216.45 2.45 10.7-2.05 2.65-2.75-12.1 2.35-1.25"/>
   <path d="m36.05 173.65q3.55 0 6.1 3.2 2.5 3.15 2.5 7.65t-2.5 7.7q-2.55 3.2-6.1 3.2t-6.1-3.2q-2.5-3.2-2.5-7.7t2.5-7.65q2.55-3.2 6.1-3.2"/>
   <path d="m215.9 217.4-0.4 0.5-48.85-0.25 6.35-0.1q35.4-0.55 42.9-0.15m-106.85 1.35-3.25 5.3q-4.75 7.4-4.9 8.55 1 2.65 7.75 16.35 7.25 14.75 8.5 15.85l13.2 8.6q11.85 7.5 13.2 7.9l11.3-0.4 11.65-1.1q1.7-1.55 27.65-34.8 16.95-21.7 21.35-27.1h5.15l-23.95 30.7q-24.1 30.7-28.2 33.85-1.05 0.8-12.05 1.55-10.75 0.7-12.55 0.25-1.6-0.4-14.85-8.4-12.25-7.45-13.95-8.7-1.6-1.2-9.6-17.5l-7.75-16.2q-0.25-0.75 4-8.2l4.55-7.9 60.35 0.3q-26.85 0.4-57.6 1.1"/>
   <path d="m124.95 228.45 0.3-0.05 1.55 0.35q9.8 6 22.4 14.4 13.55 9.05 14.65 10.5 1.55 2.05 9.95 17.65l-0.85 2.6q-9.75-15.6-11.25-17.55-0.75-0.9-13.85-9.55l-23.85-15.6-22.6 1.95q-2.25 0.35-2.2-0.25 0.05-0.5 2-1.45 1.5-0.7 12.8-1.95l10.95-1.05"/>
   <path d="m184.5 217.7 3.2 0.7-24 37.1-1.45-0.85 22.25-36.95"/>
   <path d="m124.3 228.85 6.1-11.1 1.45 0.8-4.8 11.25-2.75-0.95"/>
   <path d="m146.85 266.3q-1.2 1.85-5.1 0.95t-8.25-4.05q-4.3-3.15-6.55-6.7-2.2-3.55-1.05-5.4 1.2-1.85 5.1-0.95 3.95 0.9 8.25 4.05 4.35 3.15 6.6 6.7 2.2 3.55 1 5.4"/>
  </g>
  <path d="m213.75 22.7q18.35 16.05 18.65 18.25l10.25 77.95q8.55 64.65 8.55 66.8 0 2.4-7 12.9l-11.2 16q-7 2.8-75.45 7l-76.85-3.3q-15.85-5.1-18.2-6.95-2.95-2.4-10.05-11.5-8.25-10.45-7.65-13.2 0.95-4.2 31.7-76.85 2.1-9.65 4.55-20.15 4.85-21 6.6-25.05 1.8-4.25 26.8-31.25 23.5-25.35 26.45-27.7 1.55-1.25 22.2-2.75l22.1-1.1q1.45 0.3 5.3 2.3l4.9 2.9 18.35 15.7" fill="#3396cd"/>
  <path d="m215.15 23.85q17 15 17.25 17.1l10.25 77.95q8.55 64.65 8.55 66.8 0 2.4-7 12.9l-11.2 16q-5.45 2.2-50.7 5.4-5.45 1.55-52.7 1l-51-1.95q-1.3-0.8-10.1-12.8l-12.4-17.05 47.1 2.05 47.3 1.85q3.95-15.8 7.9-45.85 3.7-28.45 4.05-42.9-0.25-13.6 0.05-20 0.5-10.85 4.7-21.6 4.65-12.5 7.85-20.5 5.9-14.55 11-22.9 2.2-3.55 4.8-6.65l4.85-5.5 19.45 16.65" fill="#2880ae"/>
  <path d="m86 87.1 2.95-1.6q2.05 3.65 4.15 5.55 2.15 1.95 5.15 2.85l-0.95 3.2q-3.65-1.05-6.3-3.4t-5-6.6" fill="#3396cd"/>
  <path d="m168.05 91.6 2.4 2.4q-5.75 5.75-14.3 4.6-6.35-0.8-12.55-5.15t-9.9-10.65l2.9-1.7q3.25 5.55 8.85 9.5 5.6 4 11.15 4.7 6.9 0.9 11.45-3.7" fill="#3396cd"/>
  <g fill="#0d131a">
   <path d="m231.3 41.1q-0.65-2-15.5-15.15-11.6-10.25-21.1-18.1-1.25-0.95-4.75-2.75-3.7-1.95-4.95-2.2l-22.05 1.1q-19.6 1.55-21.4 2.55-3.4 2.8-26.55 27.9-24.6 26.6-26.3 30.6-2.7 6.35-11.1 44.95l-0.1 0.2q-30.75 72.85-31.6 76.7v0.25q0 2.5 7.65 12.25 6.95 8.85 9.65 11.05 1.1 0.85 7.15 3.1l10.55 3.65 76.65 3.25q66.8-4.1 74.75-6.8l1.85-2.6q15.9-22.4 15.9-25.35t-12.6-97.5l-6.15-47.1m-15.25-19.15q18.5 16.2 18.85 18.85l6.25 47.95q3.25 24.9 9.05 67.2l3.9 29.8q0 2.2-7.5 14.3-5.55 8.95-10.65 16.3-0.95 1.4-2 1.8l-5.25 1.05-37.15 2.7-33.9 1.95-77.3-3.1q-16.5-5.6-18.9-7.55-18.4-18.7-18.4-24.6l0.75-5.2q0.6-2.6 15.55-37.1l16.05-36.85 4.2-21.2q4.2-20.35 5.95-24.4 1.85-4.3 26.35-31.25 23.25-25.5 26.55-28.1 0.75-0.65 4.6-1.4 6.55-1.25 20.05-2.25l14.2-0.75q7.05-0.25 8.1 0 1.65 0.3 6.25 2.7 4.2 2.15 5.65 3.25l18.75 15.9"/>
   <path d="m166.85 60.4q2.2 0 14.55 18.05 12.2 17.85 11.55 18.75-0.75 0.95-30.75 13.95l-26.1-4.5-27.45-4.8q-1.2-0.3-15.65 0.3l-14.2 0.65 4.1-18.55q4.2-18.75 4.75-19.65 0.6-0.85 11.05 4.4l11.35 5.85q0.7 0.2 27.7-7.05 27.45-7.4 29.1-7.4"/>
   <path d="m197.6 7.8q-9.1 8.85-11.2 12.25l-8.55 20.55-9.35 22.7q-1 2.75-2.55 0.7-1.55-2.1 0.15-3.95 1.7-1.9 9.45-20.05l8.65-20.75-0.4-17.6 2.55 1-0.4 14.35 8.2-9.8 3.45 0.6"/>
   <path d="m157.7 163.2-3.5 1.95 7.15-54.1 2.5-1.8-6.15 53.95"/>
   <path d="m54.25 188.8 7.45-32.15 1.8 0.05-3.25 15.9q-3.05 16.15-2.25 17.25l21.35 28.05-3.05-0.9-10.95-13.05q-11-13.35-11.2-14.8-0.2-1.4-0.05-1l0.15 0.65"/>
   <path d="m44.75 187.6q-0.9-0.4-0.7-1.55t1.4-0.8l9.75 2.9 97.25 4.15-0.05 1.7-96.95-3.6-10.7-2.8"/>
  </g>
  <path d="m86 87.1q-0.65-1.55 0.05-2.4t1.85 0.7q1.6 2.2 4.25 4.6 3.45 3.1 6.1 3.9l-0.95 3.2q-3.2-0.95-7.15-4.8-3.3-3.25-4.15-5.2" fill="#3396cd"/>
  <path d="m163 93.95c2.1-0.63333 3.7833-1.4167 5.05-2.35 1.4947-1.1014 2.0722-0.56898 2.65 0.1 0.50409 0.58362 0.61667 1.6-0.25 2.3-1.1667 0.86667-3.25 1.7667-6.25 2.7-3.6333 1.0667-6.6833 1.45-9.15 1.15-3.7667-0.5-8.2167-2.7833-13.35-6.85-4.4-3.5333-7.0667-6.2667-8-8.2-0.7-1.3667-0.66667-2.2 0.1-2.5 0.76667-0.26667 1.5333 0.21667 2.3 1.45 1.0333 1.7 3.6167 4.05 7.75 7.05 4.8667 3.5333 8.95 5.5 12.25 5.9 2.0667 0.26667 4.3667 0.01667 6.9-0.75" fill="#3396cd"/>
  <path d="m219.25 88.05q1-0.55 1.7-0.15l1.4 1.15 5.65 5.1 6.4 6.3q0.35 1.2 1.75 20.15l1.6 23.85q0.2 4.8-1.05 4.75t-1.6-4.45l-1.35-23.7-1.15-19.6-6.7-6.15q-5.5-4.8-6-4.9-0.7-0.15-9.1 4.65-8.6 4.85-8.8 6-0.3 2-2.05 28.85l-1.7 26.85-3-0.15 3.9-56.5q0.15-1.15 7.9-5.55 5.5-3.15 12.2-6.5" fill="#0d131a"/>
  <path d="m110.5 77.3q1.15-0.8 10.4 6.95 9.15 7.7 9.95 9.65 0.95 2.35 1.45 19.9l-14.95 18.75 28.2 8.7-2.85 22.3-35.5 2.35-41.05-10.8 12.55 11.4-12.25-1.55-16.1-18.5q-1.45-1.8-3.15-11.25-1.7-9.5-0.65-10.55 0.9-0.9 30.05-22.4l33.9-24.95" fill="#e63556"/>
  <path d="m130.85 93.8v0.1q0.95 2.35 1.5 21.2l-14.75 17.05q-4.7-0.4-10.65-2.3l-11-3.5 16.7-15.45 18.2-17.1" fill="#c72b4a"/>
  <path d="m66.15 155.1 12.55 11.4-12.25-1.55-16.85-19.5 46.45 8.9 46.65 9.2-35.5 2.35-41.05-10.8" fill="#c72b4a"/>
  <path d="m165.45 160.65q26.9-11.2 33.65-10.85 6.1 0.3 20.05 3.7 12.55 3.05 16.9 4.8 3.1 1.25 6.55 11.85 2.9 9.05 3.05 13.2 0.15 3.45-3.8 12.4-3.45 7.95-5.3 10.35-1.75 2.15-13.25 7.7-12.5 6-18.65 6.75-10.2 1.2-33.45-1.65-24.9-3.1-29.15-7.35-1.8-1.8-3.7-17.2t-0.85-19q1.1-3.55 27.95-14.7" fill="#3396cd"/>
  <path d="m236.05 158.3q3.1 1.25 6.55 11.85 2.9 9.05 3.05 13.2 0.15 3.45-3.8 12.4-3.45 7.95-5.3 10.35-1.75 2.15-13.25 7.7-12.5 6-18.65 6.75-8.65 1.05-29.05-1.15-21.7-2.35-30.3-5.9 1.3-4.9 21.5-5.2 5.5-0.1 16.85-0.05l14.1-0.9q4.6-0.8 12.15-12.5 6.9-10.8 6.9-13.9 0-3.25-5.05-12.65-5.9-10.9-13.15-18.55 7.1 0.85 20.9 4.05 12.9 3.05 16.55 4.5" fill="#2880ae"/>
  <g fill="#0d131a">
   <path d="m130.2 96.15-0.2 0.2-15.9 15.1-16.25 15.65 18.85 4.45 14.45-18.15q-0.35-12.15-0.95-17.25m-9.3-10.55q-8-6.65-10.05-7.2l-33.8 24.9q-27.95 20.65-29.65 22.1l-0.1 1.25q0 3.45 1.45 10.55 1.45 7.25 2.45 8.55l15.8 18.15 8.35 1.05-5.65-4.95-4.3-4.1q-1.05-1.25-0.65-1.7l1.7-0.2 20.9 5.4 19.95 5.35 34.4-2.3q3.25-19 2.7-20.3-0.4-0.95-21.95-6.25l-27.35-6.45q-1.9-0.4-2-0.9-0.1-0.6 1.75-2.45l34.55-32.4q-0.7-1.55-8.5-8.1m-11.05-9.2 1.55-0.2q2.8 0.85 11.3 8.1 8.4 7.2 9.2 9.15 0.7 1.75 1.3 9.45 0.55 7.35 0.3 9.7-0.15 2-0.45 2.8l-1.1 1.9-6.05 7.1-6.65 7.6 14.35 4.05q12.55 3.5 13.65 4.05 1.25 0.6-0.1 12.45-1.3 11.7-2.2 12.2l-18.9 1.55-20.25 0.75-16.2-4.35-19.35-5.4 8.55 6.3q5.45 3.95 4.4 4.25l-9.55-0.55q-7.6-1.05-8.05-1.6-17.4-17.3-18.7-19.15-1-1.4-2.45-10.9-1.4-9.6-0.65-11.1 0.65-1.3 31.5-23.45 15.75-11.35 34.55-24.7"/>
   <path d="m50.95 147.15-1.3-2.6 39 6.7q41.1 7.4 54.35 11.2l-4.7 1.2q-13.1-3.75-51.3-10.45l-36.05-6.05"/>
   <path d="m199.05 150.9q-6.8-0.35-33.2 10.8-25.95 10.95-27.25 14-1.05 3.45 0.9 18.6 1.9 14.9 3.35 16.45 3.85 3.85 28.1 6.95 23.15 2.95 33.55 1.75 5.9-0.7 18.25-6.65 11.35-5.45 12.9-7.4 1.75-2.25 5.2-10.1 3.8-8.75 3.7-11.9-0.2-4.1-3.1-13.05-3.3-10-5.8-11-4.35-1.75-16.85-4.8-13.8-3.35-19.75-3.65m-35.45 8.65q11.25-4.7 20.65-7.9 11.6-3.95 15.15-3.8l14.65 2.85q15.95 3.5 22.4 6.6 3.65 1.75 7.75 12.95 3.55 9.6 3.65 13.15 0.15 3.6-4.35 12.8-3.85 7.7-6.1 10.6-2.05 2.6-13.6 8.8-12.6 6.75-18.7 7.45-9.95 1.2-33.85-1.9-25.85-3.35-30.45-7.95-2.15-2.15-4.5-18.1-2.35-15.8-1.25-19.5 0.75-2.4 11.6-8.1 8.45-4.45 16.95-7.95"/>
   <path d="m174.05 161.4q21.4-4.95 23.5-4.95l22.25 1.25 16.95 1.85q1.9 0.65 1.9 1.5t-2.25 0.15q-2.4-0.7-16.85-1.85l-21.4-1.1q-1.25 0-55.45 13.7l10.35-5.6 21-4.95"/>
   <path d="m155.05 209.4q-2.15 0-5.9 1.8l-4.4 2.2-1.65 0.25q-0.45-0.3 0.45-1.45 1-1.25 5.45-2.95 4.65-1.75 7.6-1.75l35.95-1.25q35.7-1.2 38.8-0.9 3.4 0.25 2.75 0.9-0.6 0.5-2.85 0.75l-76.2 2.4"/>
   <path d="m204.55 158.25 2.05 0.15q2 2.4 6.7 11.3 4.9 9.4 5 11.6 0.05 1.1-6.15 10l-10.7 14.9-1.55 0.3q-1.25 0 0.15-1.25 1.6-1.45 8.3-12.3 6.6-10.65 6.85-11.9-0.1-1.95-4.5-11.3-4.4-9.4-6.15-11.5"/>
   <path d="m218.65 182.3q-2.5 0.1-2.55-0.7 0-0.85 2.55-1l12.65 0.6 11.65 0.85q1.6 0.15 1.4 0.95-0.2 0.85-1.85 0.65l-11.55-0.8-12.3-0.55"/>
   <path d="m225.5 114.9q0 5-1.7 8.5-1.7 3.55-4.1 3.55t-4.1-3.55q-1.7-3.5-1.7-8.5 0-4.95 1.7-8.45 1.7-3.55 4.1-3.55t4.1 3.55q1.7 3.5 1.7 8.45"/>
  </g>
 </g>
</svg>
