<?xml version="1.0" encoding="UTF-8" standalone="no"?>
<!-- Created with Inkscape (http://www.inkscape.org/) -->

<svg
   version="1.1"
   viewBox="0 0 174.24 156.82"
   id="svg426"
   sodipodi:docname="303-2.svg"
   inkscape:version="1.2.2 (b0a8486, 2022-12-01)"
   xmlns:inkscape="http://www.inkscape.org/namespaces/inkscape"
   xmlns:sodipodi="http://sodipodi.sourceforge.net/DTD/sodipodi-0.dtd"
   xmlns="http://www.w3.org/2000/svg"
   xmlns:svg="http://www.w3.org/2000/svg">
  <defs
     id="defs430" />
  <sodipodi:namedview
     id="namedview428"
     pagecolor="#505050"
     bordercolor="#eeeeee"
     borderopacity="1"
     inkscape:showpageshadow="0"
     inkscape:pageopacity="0"
     inkscape:pagecheckerboard="0"
     inkscape:deskcolor="#505050"
     showgrid="false"
     inkscape:zoom="2.1282643"
     inkscape:cx="111.12342"
     inkscape:cy="51.685311"
     inkscape:window-width="1311"
     inkscape:window-height="674"
     inkscape:window-x="44"
     inkscape:window-y="42"
     inkscape:window-maximized="0"
     inkscape:current-layer="svg426" />
  <path
     d="m 124.264,30.829 -5.8204,3.9327 -3.8541,6.371 -1.1798,6.371 2.9102,12.585 2.4383,4.09 4.1687,4.09 2.517,1.8091 -0.55059,1.1012 6.371,2.7529 0.8652,-1.3371 4.1687,1.0225 8.0228,-0.62923 1.1012,0.94385 3.1462,-0.94385 2.5169,-1.8091 0.86521,-2.3596 2.4383,-2.4383 2.281,-6.0564 0.0787,-2.9889 0.94386,-0.31462 -0.31462,-6.7643 -1.4158,1.8877 -1.8877,1.0225 -0.31462,-4.0114 -1.1798,-4.562 -1.0225,-1.809 -1.3371,3.5394 -2.1237,4.2474 -0.8652,1.4944 -6.1351,-2.6743 -8.9666,-5.8991 -6.371,-7.1576 -1.5731,-3.5395 z"
     fill="#fff2b1"
     id="path324" />
  <path
     style="fill:#d9d29a;fill-opacity:1;stroke:none;stroke-width:1px;stroke-linecap:butt;stroke-linejoin:miter;stroke-opacity:1"
     d="m 151.98167,66.32456 -0.2388,2.9383 2.36725,-2.42955 1.64046,-3.68585 -0.56066,-0.0311 -1.54702,2.08692 z"
     id="path1542" />
  <path
     d="m 129.364,47.689 -1.0011,1.2514 -1.2792,2.8921 -0.44494,3.0311 0.80645,2.6418 1.8076,2.2247 1.8354,0.9733 2.3359,-0.6396 2.1413,-2.0578 0.77864,-3.5039 -0.44494,-3.8654 -1.5295,-1.2514 -3.5595,-1.4738 z"
     fill="#eb5176"
     id="path326" />
  <path
     d="m 6.81,142.629 -5.5617,4.1157 -0.55617,2.8921 0.3337,1.891 2.6696,2.3359 4.2269,0.66741 3.5595,-0.88988 1.2236,1.1124 3.4483,1.3348 9.01,0.22248 8.5651,-1.0011 8.3426,-2.5584 8.8988,-3.782 10.345,-6.3404 8.2314,-7.3415 8.4538,-10.122 8.2313,-13.014 9.1212,-17.909 6.6741,-17.13 10.901,-31.813 3.6707,-17.798 0.55617,-4.1157 4.7831,3.8932 3.0033,3.2258 4.8943,-1.3348 -4.4494,-4.2269 -4.8943,-5.673 -2.8921,-6.8965 -1.891,-3.5595 -2.5584,-3.5595 -6.0067,-3.5595 -7.6752,-1.0011 -8.7875,1.1123 -6.8965,3.1146 -5.1168,3.337 -7.3415,6.4516 -7.3415,8.1201 -6.6741,9.3437 -8.4538,17.575 -6.1179,17.019 -4.5606,17.019 -3.0033,9.1212 -6.2291,11.791 -7.8976,13.348 -8.1201,14.016 -2.6696,5.228 -1.2236,3.1146 z"
     id="path328"
     style="fill:#5a5858" />
  <path
     d="m 123.864,30.829 0.39328,2.3596 2.045,3.9327 6.0564,6.2924 6.5283,4.6406 7.1576,3.6181 1.2585,0.39328 3.4608,-7.0003 0.70789,-2.3596 1.2585,2.1237 1.1798,5.0339 0.23596,3.3035 1.3371,-0.47193 1.9664,-2.281 -1.4158,-5.5058 -2.045,-3.9327 -4.326,-5.4272 -4.1687,-3.0675 -5.0339,-2.517 -4.7193,-1.0225 -5.5845,0.0787 -4.6406,1.2585 z"
     id="path330"
     style="fill:#5a5858" />
  <path
     d="m 156.904,59.459 1.5731,7.8655 1.5731,13.45 0.15731,4.9552 7.1576,2.9889 6.2924,1.1012 -0.78655,-5.3485 -3.0675,-11.169 -5.1126,-12.585 -4.4833,-9.1239 -3.5395,-5.0339 0.8652,4.7979 0.0786,5.5845 -1.0225,0.62923 z"
     id="path332"
     style="fill:#5a5858" />
  <path
     d="m 159.104,70.949 c 0.79303,-3.8573 2.0703,-7.4799 5.6631,-9.9891 l -4.4047,-9.2812 -3.7754,-5.1912 0.94386,6.1351 v 4.4047 l -0.8652,0.39327 0.70789,4.4833 z"
     fill="#3f3a39"
     id="path336" />
  <path
     d="m 135.664,38.389 c -0.7935,1.3957 -2.2231,3.3352 -2.9102,5.4272 l -1.927,-1.5731 z"
     fill="#3f3a39"
     id="path338" />
  <path
     d="m 125.334,69.929 -1.2792,3.2258 -1.5017,0.61179 -2.2247,3.0033 -3.0033,6.4516 -2.8365,9.2325 -6.2291,5.0056 -8.2314,8.7875 -6.5628,8.7875 -6.1735,10.234 4.8943,3.6151 8.8431,3.2814 2.0022,0.11123 5.1168,2.614 9.8999,2.4472 9.7886,0.88987 10.79,-0.3337 7.7308,-1.168 9.0656,-2.8365 -1.8354,-6.3404 -5.673,-12.069 -17.408,-23.137 2.614,0.66741 8.287,2.8921 1.6685,0.66741 -0.22247,-4.2269 -0.3337,-1.9466 -3.5039,-2.6696 -6.7297,-8.6763 -1.891,-3.2258 1.7798,-3.2814 z"
     fill="#fff2b1"
     id="path340" />
  <path
     d="m 114.744,41.369 c -0.14043,22.308 11.132,27.688 20.529,31.855 l -3.3821,-0.55059 -1.4158,3.4608 -2.2023,-2.2023 -3.058,-0.34243 c -0.65024,-0.35474 -1.1982,-0.0848 -1.6343,-0.0826 l 1.8607,-3.5077 -3.3822,-2.4383 -5.1126,-6.4497 -2.3596,-7.2362 -0.94385,-8.1801 z"
     fill="#d9d29a"
     id="path342" />
  <path
     d="m 127.484,29.809 c -7.436,-8.1281 -17.136,-15.628 -24.651,-7.9672 -15.813,-0.081 -26.106,18.961 -29.269,34.427 -0.3597,1.7589 -1.2693,2.9233 -1.6564,4.568 l 20.733,3.5012 14.63,-12.742 5.0339,-3.7754 3.2912,-14.876 1.6685,-9.6218 3.4483,3.0033 3.8376,4.2269 z"
     fill="#3f3a39"
     id="path344" />
  <path
     d="m 65.653,69.659 c -6.4093,9.3042 -2.4516,13.869 -3.6707,20.801 -0.7608,5.0851 -1.2083,10.561 -5.2836,14.349 -3.8692,4.6818 -11.173,9.6043 -16.914,15.234 -2.4164,2.3697 -4.3955,7.0948 -6.6745,11.676 -2.5508,5.1281 -3.6288,7.0103 -6.7167,10.421 -3.9167,4.3263 -15.779,12.508 -23.367,9.7789 -0.92953,-0.33433 -1.6038,-1.0304 -2.3906,-1.7268 l 1.3348,2.5028 3.9488,2.0022 5.7286,-1.0011 1.2236,1.2792 4.3381,1.1123 9.0656,0.0556 8.9544,-1.2792 10.345,-3.2814 9.9555,-4.9499 11.735,-8.9544 11.846,-14.071 9.9555,-16.463 5.951,-12.848 7.2302,-16.963 5.1724,-17.074 -31.646,-4.6718 -2.1135,5.4505 z"
     fill="#3f3a39"
     id="path346" />
  <path
     d="m 133.224,34.919 -10.461,5.5845 -11.326,7.7082 -11.72,9.5959 -6.7643,6.6856 3.8541,6.607 7.0789,8.1014 3.8541,-7.4722 6.7643,-10.54 8.7307,-10.776 6.0564,-6.4497 6.371,-5.5845 z"
     id="path348"
     style="fill:#5a5858" />
  <path
     d="m 130.724,92.399 6.7853,10.234 4.1713,5.228 2.8921,5.673 2.1691,3.5595 2.0022,-3.0033 0.88987,-2.0578 4.9499,3.5595 3.2814,1.5017 -0.38933,-5.1724 -0.6674,-2.2247 3.5595,0.61179 1.5573,-0.16685 -2.2247,-2.8921 -8.9544,-9.2325 -8.1757,-7.3971 0.44494,3.6151 -0.0556,2.3915 -9.8999,-3.6151 z"
     id="path350"
     style="fill:#5a5858" />
  <path
     d="m 108.034,87.449 -8.6763,5.951 -7.9533,6.8409 -1.2236,1.6685 4.3938,0.55617 -3.1146,6.6741 4.1157,-0.44494 3.8376,-1.6685 8.7319,-9.6218 4.0044,-3.2814 -5.5061,-0.27808 0.77864,-4.0601 z"
     id="path352"
     style="fill:#5a5858" />
  <path
     d="m 112.074,103.749 c -4.6948,6.3491 -11.918,19.316 -14.708,27.215 l 5.7418,1.7304 1.1012,-6.607 4.09,-12.899 z"
     fill="#d9d29a"
     id="path356" />
  <path
     d="m 93.904,129.779 -1.4158,3.6968 9.006,1.6124 7.0789,0.0393 -5.7811,-2.8316 z"
     fill="#3f3a39"
     id="path358" />
  <path
     d="m 127.054,138.199 -1.4551,3.1855 1.4551,2.0057 7.4722,1.7697 7.0396,0.39327 5.5452,-1.4158 -1.7697,-0.82588 -1.2585,-0.78654 0.47193,-1.2585 2.1237,-0.31462 -2.045,-1.3371 -4.68,-1.8484 z"
     fill="#5a5858"
     id="path360" />
  <path
     d="m 120.214,76.609 -6.6184,6.2848 -5.3392,4.6718 -1.5573,4.8943 -0.0556,1.5017 5.2836,0.11124 2.4472,-1.5573 3.6151,-10.957 2.2803,-4.7831 z"
     fill="#fff2b1"
     id="path362" />
  <path
     d="m 80.28,40.849 -1.5573,1.0011 -2.5028,5.0612 -0.88988,4.4494 0.66741,2.3915 2.2247,0.66741 5.7286,-0.61179 4.3381,-1.8354 -1.3348,-2.7252 -4.4494,-6.0067 z"
     id="path364"
     style="fill:#ffffff" />
  <path
     d="m 61.481,61.309 1.446,4.1713 2.3915,4.06 1.891,1.8354 1.7241,-0.44494 3.5595,-4.4494 1.5017,-4.7831 -0.16685,-0.77864 -7.0634,-0.27808 z"
     id="path366"
     style="fill:#ffffff" />
  <path
     d="m 64.04,80.779 -1.2792,1.891 -1.0011,4.3938 0.38932,3.782 0.66741,1.5573 2.4472,0.38932 5.1724,-0.72302 3.6707,-2.0022 -2.7252,-2.6696 -5.0056,-4.8387 z"
     id="path368"
     style="fill:#ffffff" />
  <path
     d="m 47.633,103.359 1.446,6.7297 1.5017,3.6151 0.83426,0.61178 3.1146,-1.2236 3.1702,-3.782 1.0567,-3.7264 -3.3927,-1.5017 -6.396,-0.88988 z"
     id="path370"
     style="fill:#ffffff" />
  <path
     d="m 44.629,120.659 -3.059,1.0011 -2.7809,2.8365 -1.7798,3.059 -0.38932,1.7798 2.3915,1.1123 3.5039,0.83426 4.2269,0.50056 1.5573,-0.3337 -1.1123,-4.5606 z"
     fill="#d5d5d5"
     id="path374" />
  <path
     d="m 131.034,60.479 2.5306,-0.52836 2.1413,-2.3081 0.6396,-4.3938 -0.27808,-2.6418 2.0022,2.5306 1.168,2.7531 0.19466,3.4483 -0.0556,2.8087 -3.4205,-0.0834 -4.0601,-0.91768 z"
     fill="#ffffff"
     id="path376" />
  <path
     d="m 154.514,58.559 -1.2097,1.307 -0.0695,1.0289 -0.80645,1.6824 -0.0417,2.1274 0.9594,-0.9594 1.1123,-2.8365 0.41713,-1.9327 z"
     fill="#eb5176"
     id="path378" />
  <path
     d="m 156.224,57.529 -1.4739,0.69522 0.0278,1.4182 -0.66741,2.475 -2.0022,3.0311 -0.0278,1.3904 1.1402,-0.75083 1.9744,-2.8365 1.0011,-3.5873 z"
     fill="#ffffff"
     id="path380" />
  <path
     d="m 143.964,142.479 -0.90453,-1.1012 c 0.54308,-1.1397 1.9399,-0.64835 2.8316,-0.82588 z"
     id="path382"
     style="fill:#3f3a39" />
  <path
     d="m 126.204,139.559 c 5.174,0.93427 14.071,-0.11279 15.203,-1.1703 l -2.7922,-0.74722 -11.877,0.62924 z"
     id="path384"
     style="fill:#3f3a39" />
  <path
     d="m 132.614,92.629 c 4.8387,6.9522 8.4388,11.065 11.179,14.683 1.508,1.9911 2.7809,9.8442 2.7809,9.8442 l -5.1724,-9.7886 -6.7297,-8.7875 -4.2825,-6.396 z"
     id="path386"
     style="fill:#3f3a39" />
  <path
     d="m 149.804,110.139 c 2.438,2.1386 4.7395,4.2188 8.1757,6.7853 l -1.891,-0.61179 -5.2836,-3.2814 -1.446,-1.168 z"
     id="path388"
     style="fill:#3f3a39" />
  <path
     d="m 155.974,107.529 c 0.8226,0.73725 2.6075,1.5802 5.228,2.6696 -2.5267,0.15848 -1.8168,-0.14831 -2.9477,-0.22246 l -1.5017,-0.16686 z"
     id="path390"
     style="fill:#3f3a39" />
  <path
     d="m 111.954,94.099 -1.2252,-0.14418 h -1.5343 c -5.5698,6.4531 -13.832,13.008 -17.343,15.377 l 7.0001,-1.6516 5.1914,-5.8208 z"
     id="path392"
     style="fill:#3f3a39" />
  <path
     d="m 120.404,76.769 -6.7779,6.3066 c 1.3225,0.6475 0.95024,2.3888 0.32815,3.8396 -0.93386,2.1779 -2.6545,4.6018 -4.7589,7.0399 h 1.5343 l 1.2252,0.14418 0.34778,-0.34107 2.4381,-1.1798 1.9663,-7.6295 z"
     fill="#d9d29a"
     id="path396" />
  <path
     d="m 95.794,100.439 c -0.46579,0.68008 -2.4095,1.0994 -5.3949,1.3348 l 2.4472,0.69522 1.6963,-0.0278 z"
     fill="#3f3a39"
     id="path398" />
  <path
     d="m 133.934,39.569 c -8.7028,6.1951 -25.061,23.335 -32.642,36.889 l 2.6743,2.9102 5.4272,-10.225 5.8991,-9.0453 8.888,-10.854 6.7643,-6.9216 z"
     fill="#3f3a39"
     id="path400" />
  <path
     d="m 78.016,43.309 c 2.5205,0.4706 6.2297,4.1033 9.1049,6.4937 l 1.1123,2.1134 -1.6129,0.9455 -5.673,1.3348 -4.4494,-0.27809 -1.2236,-1.5017 0.83426,-5.3393 z"
     id="path402"
     style="fill:#d5d5d5" />
  <path
     d="m 61.613,61.079 c 1.3648,2.0847 5.3743,7.6293 9.0453,8.0228 l -2.5563,2.2417 -0.70789,0.0393 -2.6349,-2.399 z"
     id="path404"
     style="fill:#d5d5d5" />
  <path
     d="m 63.068,82.829 c 2.6789,1.0701 8.77,5.8204 10.933,7.0396 l -2.2417,1.7304 -5.4272,1.1798 -3.1069,-0.35394 -1.4551,-2.4383 0.23596,-4.5226 z"
     id="path406"
     style="fill:#d5d5d5" />
  <path
     d="m 47.927,104.419 c 1.0819,1.9033 2.41,7.0248 5.8598,9.0846 l -2.2023,0.86521 -0.8652,-0.15732 -2.0057,-5.7025 z"
     id="path408"
     style="fill:#d5d5d5" />
  <path
     d="m 127.254,84.789 c 0.0685,0.20555 0.12879,2.306 0.50409,4.4224 0.23399,1.3195 0.59042,2.6452 1.1477,3.5217 3.9211,6.1681 8.1922,11.896 10.943,15.946 1.2956,1.908 2.0374,3.4438 2.6441,4.4781 1.1356,1.9358 2.2194,4.3644 2.8386,4.7903 0.61882,0.42567 1.5866,-0.8318 1.5866,-0.8318 l -1.4944,-1.6518 -3.8541,-7.9441 -3.6968,-4.4833 -7.2362,-10.933 z"
     fill="#d9d29a"
     id="path412" />
  <path
     d="m 125.924,81.209 c 1.6336,1.96 4.4381,8.1078 7.1916,11.805 l -2.3915,-0.61179 -3.4747,-7.6114 z"
     fill="#d9d29a"
     id="path414" />
  <path
     d="m 128.674,51.119 c 0.13194,-0.79199 0.68439,-1.2651 1.4767,-1.2651 0.98354,0 1.5536,0.756 1.4661,1.7526 -0.0734,0.84807 -0.73483,1.3942 -1.6178,1.2996 -0.89076,-0.096 -1.4799,-0.86219 -1.325,-1.7872 m 4.9346,3.447 c 0.36689,-2.0338 -0.004,-3.696 -0.98601,-3.931 -0.24589,-0.0589 -0.49565,-0.0423 -0.74013,0.0339 -0.25188,-0.65934 -0.81738,-1.124 -1.5268,-1.1963 -1.1003,-0.11253 -1.9163,0.51506 -2.0937,1.578 -0.18556,1.1077 0.46708,2.0698 1.6926,2.2013 0.006,7.1e-4 0.012,0 0.018,2.7e-4 -0.0233,0.0942 -0.0462,0.18909 -0.0653,0.28716 -0.31397,1.5967 0.0508,3.4188 1.1398,3.6939 1.2227,0.30833 2.2807,-1.1116 2.5615,-2.6674 m 27.288,30.945 c -0.1083,-4.101 -0.63359,-9.4844 -1.4506,-15 -0.60325,-4.076 -1.3667,-8.2172 -2.2401,-11.976 0.0162,-0.26352 0.0289,-0.52775 0.0349,-0.79198 0.2219,-0.1203 0.72249,-0.26882 0.74789,-0.53305 0.30304,-3.168 0.0924,-6.1987 -0.58667,-9.0428 2.2828,3.2046 4.7706,7.9999 7.0845,13.298 4.3797,10.028 8.1333,21.826 8.6741,27.909 -3.2766,-0.27446 -9.6545,-2.3269 -12.264,-3.8633 m -7.6789,-18.405 c -0.26105,0.31855 -0.53587,0.61912 -0.81703,0.90981 0.0342,-0.37253 0.0603,-0.756 0.0769,-1.1603 1.07,-0.72954 2.0249,-1.8256 2.7499,-3.2664 -0.52246,1.3212 -1.1956,2.5238 -2.0098,3.5168 m 2.0969,-8.7697 c 0.21237,-0.15134 0.42086,-0.28504 0.62088,-0.39969 -0.28892,3.75 -1.5974,6.5094 -3.429,7.9629 0.005,-0.19368 0.009,-0.39229 0.0123,-0.59408 1.6256,-1.809 2.8243,-4.439 2.7958,-6.9691 m -2.0482,3.3359 c 0.049,0.0437 0.10371,0.0808 0.16898,0.10125 0.16369,0.0508 0.31573,0.0127 0.44803,-0.078 -0.34749,0.94192 -0.80822,1.8387 -1.3494,2.5869 0.006,-0.51858 0.0134,-1.0164 0.036,-1.4651 0.28575,-0.3295 0.52141,-0.72285 0.69639,-1.1451 m 0.99695,-1.2054 c -0.0561,-0.16545 -0.15522,-0.3048 -0.30586,-0.36336 -0.10019,-0.0388 -0.22049,-0.0243 -0.34114,0.018 0.002,-0.0663 -2.6e-4,-0.13053 -10e-4,-0.19579 0.27235,-0.33761 0.57715,-0.65476 0.89535,-0.94157 -0.042,0.48437 -0.12347,0.98108 -0.24694,1.4827 m -0.82056,0.39123 c 0.0695,-0.27693 0.23636,-0.4759 0.39758,-0.43004 0.16122,0.0462 0.2039,0.28081 0.15346,0.53764 -0.0646,0.32773 -0.27623,0.45896 -0.40323,0.42862 -0.0967,-0.0229 -0.23954,-0.16898 -0.14781,-0.53622 m -1.3543,-0.0656 c -0.40816,0.90488 -0.56832,2.5012 -0.54116,4.3494 0.0303,2.1594 -0.14675,4.1554 -0.78493,5.4349 -0.58455,1.1705 -2.5795,2.4444 -5.1259,2.8392 -0.60043,-0.41875 -1.3652,-1.2478 -1.7191,-1.7198 -0.32843,-0.4378 -1.4259,-0.61807 -4.04,-1.1247 -1.5409,-0.29845 -3.5969,-0.66992 -4.1074,-1.0114 -0.60854,-0.4064 -1.2996,-1.1973 -1.6475,-1.7268 -0.24024,-0.36583 -0.44485,-0.5655 -0.5835,-0.62442 -0.24306,-0.10265 -0.28398,0.22684 0.048,0.8756 0.44874,0.87736 1.0746,1.6468 1.8577,2.1706 0.65052,0.43462 2.4102,0.77576 4.2736,1.137 1.3776,0.26706 3.2632,0.52106 3.5306,0.76376 0.0878,0.11748 0.23601,0.30163 0.4124,0.51295 -1.8754,0.40428 -3.8171,0.55703 -5.734,0.49141 -2.2236,-0.0758 -4.4129,-0.44273 -6.4248,-1.0432 -1.0538,-0.31503 -1.3127,0.10619 -0.32315,0.502 0.13194,0.0526 0.26882,0.10231 0.40499,0.15275 -0.41945,0.52741 -0.93027,1.5907 -1.1515,2.5016 -1.3945,-1.7212 -3.0618,-2.3682 -5.2409,-1.9942 -0.002,7.1e-4 -0.005,7.1e-4 -0.007,0.001 -0.35101,0.0607 -0.51258,0.19438 -0.50165,0.31185 0.0113,0.12065 0.20638,0.22367 0.57362,0.21061 2.6889,-0.0967 4.0809,0.99589 5.4631,3.4692 1.9046,3.41 7.4951,10.484 8.9436,11.538 0.75671,0.54962 1.5776,1.197 2.437,1.9075 0.39934,1.1797 0.66745,3.8975 0.54716,5.3227 -2.6211,-1.0866 -6.839,-2.6822 -10.147,-3.6343 -0.52916,-0.1524 -1.0329,-0.28751 -1.5053,-0.40217 -0.0483,-0.0882 -0.0949,-0.17392 -0.13547,-0.25294 -0.43497,-0.84067 -1.0287,-2.2394 -1.657,-3.7211 -2.4712,-5.8201 -3.9046,-8.285 -4.9788,-8.703 -0.34537,-0.13581 -0.59302,-0.0921 -0.65299,0.025 -0.0497,0.0959 0.0247,0.24024 0.29492,0.38382 0.70238,0.37253 1.5416,1.7812 3.6957,6.7497 0.24942,0.57538 0.51576,1.1959 0.80257,1.8708 0.66252,1.561 1.1649,2.9101 1.6147,3.7786 1.5448,2.9866 8.3517,12.451 10.176,14.466 0.69039,0.76376 1.7078,2.5802 2.8706,4.9234 0.90311,1.8193 1.8969,3.8199 3.0148,5.4917 0.40005,0.59832 0.54998,0.62372 0.86254,0.38806 0.0127,-0.009 0.0258,-0.0229 0.0381,-0.0325 0.2473,-0.19438 0.50835,-0.4826 0.77082,-0.83714 2.4945,4.3935 5.6258,11.637 7.039,17.041 -2.4839,1.0167 -5.2211,1.8299 -8.1061,2.4568 -1.0569,-7.3029 -3.9663,-16.799 -7.269,-22.69 -0.57361,-1.0238 -0.93521,-0.73201 -0.47131,0.26 2.9542,6.3256 5.9457,16.083 6.7095,22.643 -6.9314,1.3832 -14.64,1.7131 -21.785,1.1426 -0.51294,-5.1964 -0.88406,-17.93 -0.9779,-23.645 -0.0222,-1.349 -0.54575,-1.1878 -0.62583,0.15945 -0.23354,3.9793 0.048,17.932 0.54822,23.39 -7.7823,-0.72355 -14.804,-2.5153 -19.275,-5.1721 1.3201,-7.9802 6.9148,-23.755 8.9433,-28.146 0.82798,-1.791 0.41099,-2.171 -0.50482,-0.44309 -0.09,0.16933 -0.1838,0.35384 -0.28081,0.54822 -2.6472,5.3068 -7.8059,19.574 -9.1895,27.616 -1.6856,-0.30868 -3.3807,-0.75636 -5.0077,-1.3109 -1.9438,-0.66252 -3.7832,-1.4732 -5.3904,-2.364 2.1848,-5.165 7.227,-15.282 10.818,-20.138 1.0844,-1.4665 0.67451,-1.8778 -0.5274,-0.42051 -3.598,4.3554 -8.9743,14.93 -11.141,20.067 -1.2499,-0.75671 -2.3283,-1.5575 -3.1443,-2.3692 3.8022,-7.8782 16.772,-26.191 26.767,-32.266 0.0988,-0.0607 0.16863,-0.1591 0.19191,-0.27269 1.2732,-6.2643 6.1955,-18.325 8.9288,-19.118 0.0243,-0.007 0.0483,-0.0162 0.0705,-0.0275 0.0459,-0.0226 0.0931,-0.0582 0.14076,-0.10019 0.55563,-0.48577 1.2305,-2.1576 1.5328,-2.9626 0.94333,0.41451 1.0206,-0.13829 -0.0473,-0.77788 -4.0231,-2.4052 -7.0707,-6.0854 -9.0216,-10.23 0.29492,-0.39335 0.59373,-0.78564 0.89394,-1.1776 4.2333,-5.5284 8.9443,-10.897 13.51,-15.222 6.5712,5.7827 15.242,9.5218 16.282,9.519 0.48719,-10e-4 3.277,-5.1608 4.2972,-8.8953 1.2675,2.4303 2.0362,6.8492 2.068,9.4245 0.005,0.41063 0.19579,0.8008 0.62195,0.62829 1.1328,-0.46002 2.0165,-1.2418 2.7453,-2.2722 0.19332,1.7477 0.20849,3.5465 0.0367,5.382 -1.1638,0.0603 -3.1249,1.3106 -4.317,2.8741 -0.27658,0.36301 -0.51364,0.74189 -0.68721,1.1275 m 3.0251,42.311 c 1.4937,1.5681 5.3308,5.595 5.8424,6.64 -0.0314,0.006 -0.0709,0.0113 -0.11112,0.0159 -0.66993,0.0776 -2.4956,-0.0751 -3.7296,-0.29562 -0.16016,-0.47167 -0.34184,-0.94474 -0.54504,-1.4168 -0.0586,-0.13547 -0.11536,-0.27093 -0.17745,-0.40569 -0.54822,-1.1899 -1.041,-0.9585 -0.61453,0.28045 0.73589,2.1382 1.524,5.4705 1.6697,8.4423 -0.0847,-0.0346 -0.17427,-0.0748 -0.26141,-0.11183 -2.3918,-1.0255 -5.6801,-3.0173 -7.299,-4.39 0.0981,-0.38488 0.1651,-0.74295 0.18591,-1.0481 0.0116,-0.17533 0.009,-0.32209 -0.002,-0.44697 -0.0642,-0.7052 -0.4505,-0.59619 -0.6223,0.38312 -0.22366,1.2781 -1.7148,4.3296 -2.7947,5.5397 -0.0406,-0.0663 -0.078,-0.13088 -0.11783,-0.19685 -0.99695,-1.6492 -1.712,-3.1217 -2.6232,-4.941 -1.088,-2.1731 -1.9756,-3.98 -2.9997,-5.1121 -1.6055,-1.7755 -7.1131,-9.3818 -9.3765,-13.108 0.48789,0.12983 1.0058,0.28223 1.5445,0.45156 3.09,0.96979 6.8552,2.5001 9.5179,3.6103 0.56515,0.23601 0.72779,0.27164 0.83327,-0.42334 0.17603,-1.1585 -0.019,-3.4548 -0.35843,-5.0359 3.9345,3.3602 8.5337,7.8909 12.039,11.569 m -10.096,37.253 c 0.16334,0.0917 0.32033,0.18309 0.46179,0.27375 -1.0312,0.24413 -1.5409,0.77647 -1.6136,1.3938 -0.34326,-0.33161 -0.45121,-0.64453 -0.40746,-0.91969 0.0201,-0.12841 0.0187,-0.22543 0.004,-0.2981 -0.0487,-0.24694 -0.266,-0.17004 -0.44909,0.26176 -0.21272,0.50342 -0.12135,1.112 0.51929,1.7067 0.66887,0.62159 1.7244,1.0418 2.5972,1.3134 -6.9589,2.5478 -19.544,-0.61877 -19.963,-2.4186 -0.0759,-0.3295 0.10795,-1.1497 0.49213,-2.0101 0.12876,-0.28751 0.2794,-0.57609 0.45226,-0.85619 4.1702,0.16686 8.3922,0.024 12.443,-0.4131 0.37853,0.0674 0.77822,0.1598 1.1857,0.26881 1.5113,0.40464 3.1369,1.0566 4.2778,1.6976 m -51.936,-7.2252 c 0.14958,-0.75071 0.48824,-1.8482 0.97755,-2.7358 2.6063,1.1434 5.4793,1.9431 8.3972,2.3643 0.0275,0.03 0.06,0.0561 0.0963,0.0773 1.2294,0.72002 2.5633,1.372 3.9818,1.9586 -4.1088,0.0187 -10.735,-0.70273 -13.453,-1.6644 m -0.62407,-24.472 c -0.12946,0.006 -0.24588,0.008 -0.3309,-10e-4 0.49847,-1.6828 3.0635,-6.4004 3.8862,-7.8645 0.49706,-0.88265 0.13088,-1.2047 -0.48648,-0.40111 -0.0988,0.12806 -0.19932,0.26459 -0.30092,0.40816 -0.27764,0.39194 -0.5655,0.83962 -0.85443,1.3152 -0.92639,-0.0303 -2.1163,-0.16827 -3.0628,-0.37747 -0.0907,-0.0198 -0.18345,-0.0395 -0.26917,-0.061 2.3618,-3.6054 11.618,-10.249 16.596,-13.308 -0.67592,1.5409 -1.1292,3.4188 -1.379,5.34 -0.0699,0.54186 0.0498,0.63535 0.67734,0.61524 0.49177,-0.0162 1.179,-0.0183 1.8934,-0.01 0.79163,0.01 1.6164,0.0321 2.2458,0.0639 -3.9515,3.1196 -8.1686,7.627 -12.003,12.349 -1.8687,1.0276 -5.2931,1.8676 -6.6121,1.9322 m -5.8738,-58.929 c 0.37148,0.57115 0.68898,1.0806 0.92181,1.4856 0.31398,0.54504 0.28998,0.62335 -0.24729,0.91158 -2.0422,1.0933 -9.1758,2.1625 -10.713,1.4369 -0.77434,-0.36548 -0.92216,-2.081 -0.38594,-4.4771 0.40252,-1.796 1.0601,-3.5419 1.7551,-4.9248 0.85584,-1.7025 1.7681,-2.854 2.3336,-2.854 0.42686,0 4.2464,5.207 6.3355,8.4219 m -13.201,11.721 c 0.37077,1.2199 -1.524,5.2024 -3.4085,7.6313 -0.88865,1.1458 -1.7755,1.9473 -2.4211,1.9473 -0.02893,0 -0.05256,-0.004 -0.07091,-0.0109 -1.6954,-0.65476 -4.8345,-6.7818 -5.4448,-9.4368 -0.0046,-0.0208 -0.01058,-0.043 -0.01517,-0.0635 4.0072,-0.50729 7.4863,-0.50729 10.675,-0.23107 0.36654,0 0.64664,0.0342 0.6858,0.16369 m -8.7648,20.078 c 3.3853,2.764 5.9672,5.2052 8.5016,8.0839 0.07973,0.0903 0.15981,0.17709 0.23918,0.26846 -2.0436,1.9089 -7.1886,2.8787 -9.9314,2.1167 -1.6947,-0.47025 -1.3529,-5.6004 -0.42298,-8.5972 0.23918,-0.76976 0.51611,-1.4012 0.80821,-1.7741 0.28998,-0.37006 0.49142,-0.35383 0.80539,-0.0977 m -16.025,24.798 c -0.28222,-1.2122 -0.46355,-2.2017 -0.45649,-2.5993 1.8538,-0.28787 9.0731,0.99413 10.088,2.0994 -0.27481,2.2063 -2.3657,5.9157 -4.8888,7.3925 -0.67663,0.39617 -1.3839,0.63323 -2.0962,0.6357 -0.64664,-0.22542 -1.953,-4.5508 -2.6465,-7.5283 m -0.68404,24.816 c -3.9942,0.26211 -7.7653,-0.4505 -10.793,-2.038 0.41628,-3.1634 4.5335,-7.5374 7.5445,-8.0377 1.5169,4.0527 2.292,6.4093 3.2487,10.076 m -5.6254,21.033 c -12.525,4.5759 -27.682,4.4249 -30.037,1.7716 6.489,-1.8376 11.929,-5.0973 15.589,-9.2135 4.0037,-4.5032 5.6501,-9.8005 8.8921,-14.648 0.03422,-0.0512 0.07303,-0.10618 0.11183,-0.16122 3.2498,1.7911 7.1413,2.1438 10.935,2.0175 0.78034,-0.0257 0.96873,-0.0639 0.8516,-0.80504 -0.45332,-2.8533 -1.7431,-7.3014 -3.2251,-10.433 -0.0187,-0.0395 -0.03881,-0.0737 -0.05927,-0.1083 1.8419,-2.0824 3.3718,-3.8153 5.7101,-5.903 0.0099,-0.009 0.01905,-0.018 0.02893,-0.0265 0.04939,0.0116 0.09913,0.0236 0.14817,0.0236 3.4847,0 7.4348,-4.4326 7.8437,-8.932 0.0067,-0.0776 -0.0074,-0.15558 -0.04233,-0.22437 -2.64e-4,-7.1e-4 -7.05e-4,-10e-4 -0.0011,-0.002 2.7852,-3.1676 4.8091,-7.8835 4.7205,-12.536 -2.64e-4,-0.0116 0,-0.0282 0,-0.0409 3.0275,0.7059 8.0416,-0.41275 10.37,-2.2782 0.61278,-0.49036 0.65229,-0.75812 -0.02611,-1.5057 -2.4642,-2.7157 -5.5541,-5.654 -9.1521,-8.4109 -0.0515,-0.0399 -0.1016,-0.0709 -0.15134,-0.10407 0.006,-0.0522 0.01235,-0.10653 0.01834,-0.15557 0.40499,-3.333 1.6711,-6.954 3.1408,-8.6984 2.6042,-0.60149 5.9993,-6.3549 6.3405,-9.9942 0.04127,-0.43744 0.05327,-0.71508 -0.03105,-0.9024 1.1515,-1.5797 2.0458,-3.882 2.0465,-6.5342 1.6813,0.70308 8.5111,0.31291 11.593,-1.6609 0.93768,-0.60043 0.99131,-0.65687 0.45614,-1.8267 -0.9973,-2.1745 -5.4561,-8.3876 -7.3223,-10.083 1.077,-1.8475 2.6698,-3.6675 4.2287,-5.2056 1.0329,-1.0192 0.73589,-1.4365 -0.42792,-0.57503 -2.0073,1.4859 -3.6604,3.3937 -4.7551,5.382 -0.59584,0.14499 -1.2404,0.74048 -1.8651,1.5956 -1.294,1.7709 -2.5015,4.6461 -3.0085,6.9063 -0.19579,0.87524 -0.28963,1.6535 -0.29598,2.3347 -0.0095,1.0333 0.18521,1.8387 0.54787,2.3946 -0.18944,2.3686 -0.99096,4.9886 -2.1512,6.8608 -0.21625,-0.0303 -0.47272,-0.0596 -0.78317,-0.0949 -0.14605,-0.0166 -0.2981,-0.031 -0.45156,-0.0455 -2.7982,-0.25964 -6.7659,-0.13511 -10.39,0.1771 -0.69321,0.0596 -0.74013,0.32702 -0.52634,1.1081 0.82514,3.0102 2.2059,6.2745 4.0594,8.4589 0.45297,0.53375 0.9331,1.0051 1.4414,1.3903 0.07514,0.0568 0.14711,0.10337 0.21767,0.14464 -1.6997,1.9823 -2.6226,5.2797 -2.8363,8.4483 -0.02152,0.11642 -0.04339,0.24448 -0.06491,0.37783 -0.20391,0.0561 -0.39441,0.20179 -0.57326,0.45826 -0.66428,0.95003 -1.1688,2.1615 -1.5074,3.4459 -0.59478,2.2581 -0.67346,4.742 -0.18309,6.4438 0.254,0.8823 0.6611,1.5526 1.2273,1.8718 -0.0011,0.0124 -0.0021,0.0282 -0.0028,0.0392 -0.34925,4.3053 -1.7036,8.3781 -4.4916,12.194 -0.3362,-0.23848 -0.77999,-0.45544 -1.2982,-0.65123 -3.1542,-1.1913 -9.0167,-1.5921 -9.5825,-1.185 -0.47237,0.34008 0.3369,5.1664 1.5388,8.4896 0.40075,1.107 0.8449,2.0447 1.3,2.5964 -2.6289,2.0271 -4.0058,3.6809 -5.9034,6.071 -0.121,0.007 -0.25259,0.0219 -0.40992,0.0501 -4.1032,0.72461 -7.5032,5.376 -7.8126,8.8918 -3.2156,4.5791 -5.8226,11.08 -8.9937,14.663 -4.917,5.5552 -13.627,9.1736 -18.973,9.9603 -3.6541,0.53834 -6.1253,-1.0887 -6.8894,-3.0085 -0.30833,-0.77435 -0.34678,-1.5956 -0.06068,-2.3435 0.58914,-1.5402 1.8493,-2.8226 3.7987,-3.9892 2.5213,-1.5085 4.0531,-3.2928 4.9481,-5.3873 2.728,-6.3867 7.2492,-13.914 12.036,-21.883 7.0005,-11.653 14.378,-23.703 16.742,-33.472 3.6611,-15.124 11.74,-43.07 25.638,-60.296 14.109,-17.486 25.981,-23.963 40.023,-21.651 6.1697,1.0153 11.167,5.2109 13.912,14.137 1.3374,4.0114 6.1408,9.6421 10.432,12.995 -0.74401,0.14993 -1.4771,0.33444 -2.1943,0.55774 -0.53164,0.16546 -1.0523,0.35525 -1.566,0.55951 -1.9117,-2.1922 -5.7506,-5.6878 -8.6258,-7.7936 -3.8121,-2.7908 -9.6425,-2.7344 -11.514,0.38418 -0.50025,0.83361 -0.13618,1.168 0.46531,0.42651 1.9018,-2.3477 7.1155,-2.6543 10.554,-0.13653 0.16935,0.12383 0.38735,0.28998 0.64277,0.49072 -0.60643,5.8635 -2.5679,14.56 -5.3717,24.382 -8.116,6.0494 -15.419,12.575 -18.821,16.427 -0.11219,0.12665 -0.13406,0.30692 -0.0624,0.46002 2.08,4.438 5.8392,9.1116 9.0579,12.658 -1.2989,3.4311 -2.6349,6.8097 -3.9927,10.071 -1.6267,3.9088 -3.247,7.5713 -4.8645,11.03 -1.3201,1.27 -2.3375,2.438 -2.8346,3.38 -0.15911,0.30092 -0.14076,0.47977 0.15698,0.58772 0.20531,0.0748 0.44026,0.13582 0.68545,0.19121 -15.068,30.615 -30.047,42.925 -48.319,49.601 m 84.086,-114.24 c -3.8897,2.0962 -8.0342,4.7629 -12.077,7.6405 0.32068,-2.5739 1.0943,-5.001 2.3597,-7.0937 1.6517,-2.7323 4.118,-5.0116 7.063,-6.6068 -0.0505,1.512 0.72143,3.4241 2.6546,6.06 m -8.6738,-13.693 c 1.7466,1.4587 4.2721,3.7525 6.375,6.23 -3.5391,1.6337 -6.5532,4.2034 -8.5513,7.5075 -0.31009,0.51329 -0.58349,1.0442 -0.83679,1.5836 1.499,-6.0022 2.5509,-11.271 3.0131,-15.321 m 2.8977,51.416 c -1.4228,1.2823 -3.2082,3.0374 -4.9449,4.7452 -2.8642,2.8162 -6.035,5.6593 -7.275,6.3634 -2.896,1.6436 -9.0759,5.8346 -13.594,9.6841 1.2647,-2.7862 2.5294,-5.691 3.7998,-8.7408 1.2749,-3.0632 2.5298,-6.2262 3.7522,-9.4364 0.32737,0.35137 0.64911,0.69356 0.95744,1.0153 0.77963,0.81385 0.94438,0.74295 1.2898,-0.0843 2.2066,-5.2857 6.3884,-12.13 11.399,-18.908 2.0997,4.0199 5.1728,7.4828 8.9143,9.6693 -0.502,1.3797 -0.94967,2.5767 -1.1508,2.7538 -0.92464,0.16475 -2.014,1.2322 -3.1475,2.9386 m -8.6572,18.062 c -0.58702,-0.0723 -1.5833,-0.1651 -2.5552,-0.22084 -0.90206,-0.0522 -1.7812,-0.072 -2.2864,-0.0141 0.22578,-1.6535 0.92393,-4.3981 1.6549,-5.781 0.0825,-0.0473 0.16722,-0.0967 0.24518,-0.14111 0.907,-0.51506 2.5213,-1.9823 4.414,-3.8047 0.89464,-0.86148 1.851,-1.8016 2.8254,-2.7598 0.97155,-0.95532 1.917,-1.8355 2.8109,-2.6674 -1.863,3.623 -3.7006,8.6335 -5.001,13.945 -0.68897,0.42615 -1.3935,0.91264 -2.1078,1.4443 m 33.36,-60.766 c 6.519,4.222 10.565,10.395 11.631,17.48 -0.52564,0.72425 -1.585,1.7233 -2.3491,2.1244 -0.0423,-2.7252 -1.003,-7.075 -2.5467,-9.525 -0.49106,-0.77964 -0.64311,-1.003 -0.93944,-0.0949 -0.85902,2.6278 -2.6134,6.7232 -4.0573,8.4748 -4.0266,-1.2584 -9.6044,-4.354 -14.139,-8.0931 -0.39053,-0.32208 -0.77224,-0.64805 -1.1458,-0.97931 1.173,-1.0866 2.3329,-2.099 3.4706,-3.0251 0.25823,-0.2099 0.51611,-0.42121 0.77153,-0.62159 0.63323,-0.49742 0.68121,-0.87983 0.36195,-0.88512 -0.16898,-0.002 -0.43957,0.0984 -0.78493,0.34854 -0.0692,0.0504 -0.1397,0.10584 -0.20885,0.15699 -11.812,8.7062 -26.459,27.996 -31.546,40.037 -0.69603,-0.78705 -1.4291,-1.6327 -2.1756,-2.516 -2.9482,-3.4883 -6.1119,-7.5925 -8.0913,-11.293 6.4396,-7.1579 27.154,-23.828 39.6,-29.009 1.2488,-0.51964 1.2273,-0.99413 0.25965,-0.77893 -0.17886,0.0399 -0.3863,0.10054 -0.62795,0.19155 -1.7431,0.65723 -3.6047,1.5166 -5.5368,2.5241 -2.0884,-2.7866 -2.9245,-4.6771 -2.6808,-6.0297 5.9962,-2.8917 13.752,-3.0088 20.735,1.5131 m 11.489,13.055 c -1.8725,-5.5891 -5.6589,-10.344 -11.035,-13.826 -4.9491,-3.2057 -10.487,-4.2189 -15.585,-3.4982 -4.2894,-3.2745 -9.7144,-9.4315 -10.985,-13.242 -2.6504,-8.6191 -7.5762,-13.845 -14.502,-14.985 -14.379,-2.3668 -26.833,4.408 -41.156,22.159 -14.001,17.353 -22.123,45.71 -25.801,60.903 -2.334,9.6435 -9.6086,21.639 -16.577,33.238 -4.8017,7.995 -9.199,15.546 -11.949,21.985 -0.93909,2.1989 -1.9752,3.266 -4.8521,5.02 -1.6658,1.0153 -3.296,2.2437 -4.1152,4.3857 -1.1497,3.0046 2.2183,7.8172 8.2691,6.6858 0.99095,-0.18521 1.9618,-0.40393 2.9118,-0.65158 2.2934,3.3098 17.518,4.0428 31.162,-0.94227 20.075,-7.335 34.777,-20.894 49.228,-50.469 0.74295,0.0819 1.5014,0.10972 2.1248,0.10442 -1.1557,2.0207 -2.2433,4.3505 -2.6469,5.5199 -0.4004,1.1599 -0.37818,1.3346 0.72813,1.3346 1.325,0 3.8763,-0.65405 5.8205,-1.4474 -5.0362,6.3973 -9.2505,12.95 -11.056,16.8 -0.0772,0.1651 -0.0321,0.35313 0.0938,0.48366 1.7276,1.7967 3.9451,3.2988 6.4361,4.4806 -0.51858,0.95497 -1.0559,2.2871 -1.1642,3.0399 -0.0991,0.6784 0.061,0.89006 0.67451,1.0883 3.1122,1.0054 11.31,1.9957 16.006,1.4771 5.1551,1.7794 11.198,2.794 17.399,3.1097 -0.92922,1.5356 -1.2869,3.0568 -0.84349,3.6661 1.7664,2.426 14.969,5.7097 21.76,2.0221 0.86255,-0.46814 0.51012,-0.80398 -0.18344,-0.99589 -0.7426,-0.20638 -1.7191,-0.54822 -2.3435,-0.89888 -0.0208,-0.0113 -0.0367,-0.0229 -0.0568,-0.0342 -0.139,-0.63465 0.54222,-1.0619 1.9618,-1.1338 0.84172,-0.0423 0.76976,-0.27763 0.14675,-0.79833 -1.3109,-1.0947 -3.15,-1.9456 -5.0285,-2.4522 5.1252,-0.69039 9.9053,-1.8542 13.86,-3.4533 0.69779,-0.28328 0.8262,-0.51188 0.58561,-1.4154 -1.5244,-5.7196 -5.098,-13.531 -7.6482,-17.846 0.48683,-0.86289 0.92851,-1.8606 1.234,-2.7792 1.9329,1.6281 5.5929,3.773 7.7054,4.7509 0.86889,0.40252 0.99024,0.27023 0.97754,-0.56621 -0.0222,-1.4908 -0.19826,-3.9289 -0.95885,-6.5257 1.2086,0.23212 2.8811,0.46707 4.0181,0.40604 0.9846,-0.0526 1.1564,-0.38206 0.56304,-1.3039 -0.60537,-0.93875 -2.5488,-3.2092 -6.175,-7.015 -4.6161,-4.8436 -11.197,-11.03 -15.633,-14.255 -1.2407,-0.90311 -6.7589,-7.855 -8.7055,-11.339 -0.11042,-0.19685 -0.2226,-0.38417 -0.33584,-0.56479 0.1658,-0.89006 0.95461,-2.5682 1.3832,-3.1475 3.3655,1.0428 7.7032,1.3582 11.858,0.38735 0.38241,0.42439 0.73765,0.7867 0.85513,0.82233 0.62159,0.18979 5.3894,-0.97861 6.4939,-3.3581 0.20109,-0.43498 0.34678,-0.89006 0.45826,-1.3667 0.63676,-0.56022 1.2393,-1.179 1.7992,-1.862 1.4062,-1.7138 2.3946,-4.0231 2.8995,-6.5296 1.6397,7.795 2.7421,17.455 2.9192,24.728 0.004,0.14005 0.0766,0.26916 0.19544,0.3436 2.7174,1.7113 10.536,4.0266 13.834,4.1296 0.005,0 0.008,2.6e-4 0.0131,2.6e-4 0.34431,0 0.43356,-0.17745 0.41698,-0.44415 -0.63712,-10.091 -10.147,-35.396 -17.455,-43.925 m -17.672,15.741 c -2.2881,0.18486 -4.7276,-0.18697 -6.761,-0.95109 1.8239,-0.29633 3.369,-1.6566 4.0128,-3.9896 0.48542,-1.7582 0.55421,-3.3122 0.0716,-5.1086 1.9999,2.2814 2.819,5.2271 2.6765,10.049 m -9.4562,-13.714 c 2.273,0.57679 4.3452,1.5342 5.6698,2.5852 0.68545,1.6623 0.76518,4.0552 0.22508,5.8561 -0.72038,2.3911 -2.5686,3.8798 -4.6066,3.6961 -0.74259,-0.38983 -1.3938,-0.8375 -1.9106,-1.3342 -3.0476,-2.9288 -2.0077,-8.7517 0.6223,-10.803 m -0.88512,-0.75459 c -0.89464,-0.0769 -1.0446,0.34819 -0.22225,0.50694 0.0928,0.0176 0.1845,0.0385 0.27658,0.0575 -2.7238,2.419 -3.7518,8.2702 -0.38418,11.666 2.3287,2.3481 6.8965,3.2625 10.688,2.9887 0.1083,0.58103 0.53622,0.4946 0.62618,-0.32314 0.62159,-5.6575 -0.51259,-9.1881 -3.2272,-11.839 -1.4608,-1.4273 -4.0929,-2.7428 -7.7569,-3.0565"
     fill="#0f141b"
     id="path416" />
  <ellipse
     cx="130.09399"
     cy="51.338997"
     rx="1.9045"
     ry="1.9439"
     fill="#ffffff"
     stop-color="#000000"
     id="ellipse418" />
  <ellipse
     transform="matrix(0.99078563,0.1354394,-0.20391951,0.97898766,0,0)"
     cx="163.28059"
     cy="39.655746"
     rx="0.61547273"
     ry="0.88057208"
     fill="#ffffff"
     stop-color="#000000"
     id="ellipse420"
     style="stroke-width:1" />
  <path
     d="m 154.254,60.469 c 3.5e-4,-5e-5 -0.0689,0.33348 -0.15053,0.59653 -0.11799,0.38019 -0.2293,0.63234 -0.2293,0.63234 0,0 -0.006,-0.002 0,0 -0.11692,0.31695 -0.2473,0.62843 -0.3886,0.93121 l 0.80977,-0.0145 c 0.46345,-0.97313 0.79462,-2.0199 0.93534,-3.0748 l -0.80667,0.0837 c -0.0435,0.27939 -0.0996,0.56148 -0.1695,0.84542 h -3.5e-4 z"
     fill="#0f141b"
     id="path422" />
</svg>
