<?xml version="1.0" encoding="UTF-8"?>
<!-- Created with Inkscape (http://www.inkscape.org/) -->
<svg version="1.1" viewBox="0 0 279.23 297.46" xmlns="http://www.w3.org/2000/svg">
 <g transform="translate(51.669 .9914)">
  <path d="m-51.635 243.22c-0.54101 7.7868 5.3993 16.242 16.796 17.578-4.1063 8.1114-2.0234 15.631-0.37871 18.418 3.1865 5.3452 10.364 8.5501 17.635 7.9967 21.891-1.6392 27.045-31.739 27.045-34.793 0-3.3975-16.356-22.33-24.067-25.46-10.65-4.3335-35.537-6.4126-37.045 16.261" fill="#0f141b"/>
  <path d="m-32.111 276.91c-2.9756-4.9827-2.1208-12.349-0.61134-15.65 3.5869 0.10824 5.8402-0.4328 7.9399-0.89807 2.1208-0.4869 1.8124-2.2722-1.9476-1.6609-12.158 1.9476-21.472-5.7066-21.013-15.459 0.91432-19.697 22.368-18.456 32.369-14.391 7.4432 3.0134 22.521 21.281 22.788 23.571 0 2.4832-6.0501 29.888-25.174 31.072-8.3023 0.54101-12.386-3.2839-14.352-6.5846" fill="#b4ce8e"/>
  <path d="m-16.734 283.36c0.01895 0 0.05405 0.0189 0.05405 0.0189 18.265-2.1748 24.067-28.533 24.067-30.957-0.21641-1.9476-11.108-15.383-18.952-21.242-10.802 2.7862-8.7411 22.483-17.75 27.788 0.83856-0.054 1.6988-0.10824 2.5752-0.2705 3.7384-0.61135 4.0468 1.201 1.9476 1.6393-1.3363 0.2705-2.7105 0.62756-4.4633 0.82233 11.643 3.7005 15.04 17.807 12.501 22.197" fill="#97ae79"/>
  <path d="m91.802 110.35c-73.728 0-124.69 50.176-124.69 102.7 0 48.172 37.771 83.499 126.42 83.423 50.901-0.0385 85.695-9.4092 112.26-25.957 14.658-9.123 21.758-16.929 21.758-23.055 0-5.4398-10.592-12.94-28.991-14.811 15.421-58.554-46.168-122.3-106.76-122.3" fill="#0f141b"/>
  <path d="m73.274 292.41c-46.321-2.8457-74.109-16.528-91.382-41.091-14.276-20.288-22.311-77.392 39.87-118.45 20.612-13.608 46.493-19.429 71.571-18.475 34.316 1.2984 66.799 19.697 86.858 49.26 15.784 23.227 21.242 49.966 14.257 69.777l-0.57346 1.6014 1.6771 0.2164c21.586 2.7483 27.045 7.5384 27.827 11.089 1.1091 5.0584-5.7066 12.215-20.212 21.242-29.812 18.551-72.392 28.38-129.9 24.831" fill="#b4ce8e"/>
  <g fill="#97ae79">
   <path d="m223.37 246.34c-0.78447-3.549-6.2216-8.3597-27.808-11.089l-1.6988-0.21641 0.57347-1.6014c7.0044-19.811 1.5473-46.55-14.238-69.796-3.7816-5.5345-7.9777-10.688-12.54-15.402 8.3023 23.743 11.547 56.608-5.6492 85.618-32.884 55.482-106.38 56.398-167.57 31.663 17.406 15.689 42.37 24.64 78.823 26.892 57.505 3.5328 100.09-6.2795 129.92-24.85 14.505-9.0273 21.3-16.165 20.193-21.223"/>
   <path d="m45.699 249.64c0.37871 0.3246 0.82233 0.5897 1.2389 0.87642 0.70873-0.54101 1.412-1.0333 2.0991-1.5473-1.0712 0.4328-2.1965 0.61133-3.338 0.66544"/>
   <path d="m122.66 119.77c-9.4471-3.1487-19.315-4.9989-29.335-5.3614-2.8457-0.10824-5.7066-0.10824-8.569-0.054-1.4337 2.045 1.7745 4.4309 0.4328 6.6798 20.669-2.3642 25.785-3.2244 37.484-1.2606"/>
   <path d="m68.957 240.73c-1.3904-2.77-23.933 7.5005-20.25 11.337 8.226 8.5312 21.643-8.5696 20.25-11.337"/>
  </g>
  <path d="m193.11 188.21c-0.4869 11.146-3.7384 19.697-6.3363 22.693-0.78446 0.91431-0.70872 0.95218 0.3246 2.0234 4.5228 4.5012 7.2528 9.848 8.6837 14.715l1.7962 4.0846 0.70872-2.9972c2.8836-12.253 1.7745-26.357-3.1865-40.805z" fill="#0f141b"/>
  <path d="m194.7 193.66c2.0396 7.2333 3.1108 14.314 3.1108 21.051 0 3.5328-0.37871 6.9282-0.95218 10.249-1.6771-6.3936-4.5228-9.6954-7.9972-13.436 2.7862-3.7005 4.907-10.287 5.8402-17.864" fill="#0f141b"/>
  <path d="m58.613 197.57c-7.6721-8.3786-26.223-12.406-33.629 1.5473-4.6581 8.7984 0 21.719 8.7984 24.315-6.1837 7.1186-4.5607 20.67 5.172 25.346 6.5462 3.1487 20.899 0.48692 28.457-7.2338 7.5579-7.7483-1.1253-35.595-8.7984-43.973" fill="#b4ce8e"/>
  <path d="m44.751 224.51c7.6726-8.8747-12.94-5.9928-19.601-9.0273 5.3614 11.089 19.429 9.7333 19.601 9.0273" fill="#97ae79"/>
  <path d="m32.175 242.17c-2.2722-2.137-0.21641 3.2082 6.7756 6.6036 13.36 6.5083 23.762-2.9756 26.3-5.9738-12.94 6.4699-30.805 1.5094-33.076-0.62757" fill="#97ae79"/>
  <path d="m37.721 188.08c-4.3497 0.54099-11.203 3.0946-15.02 10.306-1.2984 2.4616-2.3859 5.5919-2.3859 8.5122 0 2.6888 0.61135 5.383 1.7204 7.9967 1.8124 4.2956 6.6609 7.4627 10.268 8.951-2.559 3.457-4.2956 6.9092-4.2956 10.65 0 1.2606 0.10824 2.559 0.37871 3.8358 1.1091 5.3452 4.3714 9.6765 8.9889 11.89 7.348 3.5328 21.854 1.6014 30.709-7.9966 1.4337-1.5635 1.0279-3.7005-1.3958-1.3742-7.1759 6.8519-21.166 9.4282-26.854 6.6988-4.0468-1.9476-7.4243-5.4393-8.3975-10.173-1.0117-4.8853 0.05405-9.466 2.9756-12.787 0 0 2.7104 0.86021 7.2717 1.1469 2.137 0.10824 5.7828-1.715 0.4328-1.715-8.2834 0-14.734-5.6108-16.528-9.829-2.0775-4.9448-1.9855-10.401 0.21639-14.6 3.4354-6.4699 8.7984-8.3981 12.692-8.8558 6.8519-0.82233 14.448 3.6248 17.921 7.1954 2.4237 2.5211 5.6876 2.348 2.8836-1.0117-4.6581-5.554-14.161-9.7338-21.624-8.8368" fill="#0f141b"/>
  <path d="m132.58 233.89c8.1687-3.5707 33.915-10.135 38.649 9.8096 2.7267 11.433-3.7979 20.135-10.345 22.865 5.4588 7.6152 1.9476 21.109-6.5273 24.487-16.337 6.5462-29.697-0.97381-33.209-17.96-3.5112-16.986 3.2623-35.632 11.432-39.202" fill="#b4ce8e"/>
  <path d="m171.23 243.7c-0.10824-0.37871-6.0501-7.9014-6.1648-8.2639 1.6988 24.563-14.352 30.155-22.387 30.155 15.077 10.707 3.1703 27.235-8.226 25.784-0.2164-0.019-0.4328-0.019-0.62757-0.019 5.6876 2.7483 12.768 2.8241 20.536-0.27049 8.4738-3.3976 11.967-16.872 6.5273-24.506 6.5273-2.7105 13.073-11.432 10.344-22.865" fill="#97ae79"/>
  <g fill="#0f141b">
   <path d="m131.98 233.06c-2.8241 1.7583-2.045 3.4733 1.201 1.6771 3.246-1.7961 15.173-6.0885 24.067-2.2885 15.211 6.5273 12.158 27.369 1.7962 31.606-4.9232 2.0017-11.604 2.4075-20.04 0.0541-5.5729-1.5473-4.907 0.019-2.3263 1.3147 11.375 5.7828 23.475 2.3858 23.475 2.3858 7.6152 22.445-27.521 38.572-37.98 5.1342-0.68708-2.1965-2.4021-2.6131-2.0396 0.3246 4.5986 37.617 57.658 22.063 42.198-6.279 13.723-5.4588 13.188-32.045-3.7817-37.312-10.268-3.2082-19.391-1.0874-26.567 3.3975"/>
   <path d="m-4.3128 204.99c-0.61133 1.6771 0.03847 2.5968 1.9476 1.2984 1.926-1.2768 12.558-12.272 13.665-13.646 1.1091-1.3742 0.5897-2.3642-1.3363-1.926-1.926 0.43281-13.818 13.036-14.276 14.276"/>
   <path d="m84.924 192.31c1.3579 1.0117 15.994 13.36 17.215 14.047 1.201 0.70872 2.7862 0.37869 1.8719-1.3904-1.4337-2.77-14.867-13.627-18.15-14.811-3.3001-1.1848-2.2884 1.1469-0.93593 2.1586"/>
   <path d="m210.46 0.16111c-91.935 17.368-116.29 67.601-133.22 111.98l-2.0017 4.696c-0.76282 1.7583-1.1253 3.3975 0.21641 4.6743 2.7483 2.6726 10.669 2.3859 14.085 0.82234 65.234-29.869 103.29-71.552 128.01-103.31 4.9989-6.4321 11.298-15.746 9.2182-18.609-1.7204-2.3101-10.707-1.2984-16.28-0.2705"/>
  </g>
  <path d="m79.763 113.21c10.573-28.266 39.164-92.26 130.93-109.36 5.8781-1.1091 9.2561-1.0279 10.02 0.21639 0.32461 0.48692 0.87644 2.7483-4.8312 10.096-24.544 31.548-64.49 76.896-127.99 106.31-2.4454 1.1253-8.0546 0.83856-9.8675-0.9143-0.3246-0.2705 0.2705-2.4832 1.7366-6.3552" fill="#fff095"/>
  <path d="m85.397 121.08c0.97382-0.10823 1.8502-0.27051 2.4995-0.58971 63.478-29.43 103.44-74.777 127.99-106.33 3.7817-4.8691 4.8096-7.4816 4.9827-8.8558-25.46 29.563-91.497 84.759-135.47 115.77" fill="#dccf81"/>
  <path d="m77.761 117.92" fill="#feed7e"/>
  <path d="m186.79 248.46c-1.5852 2.1748-0.10824 2.9377 1.5473 1.3579 1.6771-1.5852 7.2717-8.5122 9.9243-15.593 0 0-0.3246-9.5239-2.9214-2.4237-2.5752 7.1186-6.9666 14.486-8.5506 16.661" fill="#0f141b"/>
 </g>
</svg>
