<?xml version="1.0" encoding="UTF-8"?>
<!-- Created with Inkscape (http://www.inkscape.org/) -->
<svg version="1.1" viewBox="0 0 251.45 321.38" xmlns="http://www.w3.org/2000/svg">
 <g transform="translate(-.0804 20.333)">
  <path d="m113.79 255.42 37.723-7.9667c-2.6732 12.716-9.3626 31.935-8.2562 38.54 1.105 6.6049-14.316 7.7114-20.359 4.4104z" fill="#cfa7cd"/>
  <path d="m148.07 261.13c1.2932-4.8012 2.5719-9.5836 3.4405-13.669l-37.722 7.9666 9.1069 34.964c0.95542 0.52596 2.1424 0.93611 3.4742 1.2449 2.4513-12.188 10.248-24.241 21.704-30.505" fill="#b491b2"/>
  <path d="m138.79 287.92c1.824-1.0905 3.8313-3.0979 5.2939-1.824 1.4476 1.2787 5.8898 4.4779 4.256 4.8514-1.6503 0.33778-6.809 1.0037-7.541 0.81549z" fill="#e9e9e9"/>
  <path d="m141.71 286.05c-0.95543 0.48254-1.9591 1.2932-2.9097 1.8722l2.0073 3.8458c0.48254 0.0965 2.7746-0.0965 4.8012-0.38602-2.0266-1.2063-5.4136-3.8651-3.8989-5.345" fill="#bdbcbc"/>
  <path d="m124.2 290.1c1.6358-1.6358 9.2946-5.1067 11.116-4.0195 1.824 1.105 9.2434 5.5327 5.4136 6.8095-3.8313 1.2787-12.92 0.66589-15.474-0.43428z" fill="#e9e9e9"/>
  <path d="m124.2 290.1 1.0568 2.3644c2.4175 1.0374 10.741 1.6358 14.844 0.59353-4.3235-0.76724-12.648-2.3837-11.848-5.3619-1.8047 0.81548-3.4019 1.7516-4.0533 2.3982" fill="#bdbcbc"/>
  <path d="m151.95 113.93 46.625 6.826c7.1155-10.928 21.5-42.693 21.687-47.562 0.0965-2.3837-9.6521 3.8313-10.197 4.1884 2.5526-4.1884 7.0648-11.456 6.3328-13.635-0.73345-2.1955-6.52 0.86856-9.0731 2.3306 0.43429-9.754-2.8759-31.85-5.0729-40.225-1.0374-4.0195-3.233-2.0073-4.3573-0.86856-0.86857 0.86856-3.4887 10.299-3.4887 10.299s-5.3282-24.343-21.142-37.331c-1.0712-3.5563-2.4175-12.529-3.3006-15.44-0.49218-1.602-5.345-0.19301-6.2816 2.0604-1.8192 4.3766-2.1087 15.337-2.1087 15.337l-6.009 6.741s-7.2858-0.73345-8.7498 0.19301c-1.4621 0.92164-0.33777 12.937-0.33777 12.937s-10.707 17.431-14.044 34.454z" fill="#cfa7cd"/>
  <path d="m163.59 38.274c-12.495-22.538-29.381 6.741-31.186 15.968l19.542 59.699 17.346-0.14475c1.3945-2.2969 6.7922-52.975-5.7026-75.513" fill="#b491b2"/>
  <path d="m114.83 160.92-4.4924-15.712c-8.4603 8.4429-22.113 15.695-33.79 14.895-11.66-0.80101-22.521-4.8345-24.138-2.8276-1.602 2.0266 2.5864 16.869 1.7854 24.513-5.6346-1.6165-19.883-4.8012-20.292-2.3837-0.38603 2.4175 4.4248 9.6517 4.034 14.486-4.4248 0-11.677-1.2112-13.277 0.80101-1.6165 2.0073-0.801 3.6238 0 6.0433 0.80101 2.3982 3.6238 10.043 2.4175 14.077z" fill="#cfa7cd"/>
  <path d="m143.31 180.45-15.95-33.892-45.996-28.292-1.327 13.227s-20.785-31.764-36.139-48.191c-3.508-3.7445-8.137 1.4621-7.3369 6.2812 0.801 4.8345 7.2689 52.737 6.4515 57.979-6.4346-5.6346-31.1-21.329-33.518-22.538-2.4175-1.1919-7.7794 1.2932-6.162 5.3108 1.602 4.0195 20.461 46.761 19.253 49.179-1.6696 3.3343-1.8529 3.1316-4.8857 3.1316-0.801 0-12.392-3.6624-14.316-2.6202-2.4175 1.327-1.4621 3.1316 1.1581 6.6218 1.1388 1.5489 16.24 24.002 15.831 36.888-3.3536 5.5665-5.3962 13.244-6.1113 22.334-0.93613 12.035 3.9327 22.368 9.9585 30.42 2.5044 4.8012 4.8514 10.537 15.32 13.754 10.452 3.2185 31.203 5.1409 32.82 3.1316 1.3463-1.684 3.3874-8.4091 6.3666-14.554 8.9201-6.7579 31.22-3.2861 45.281-11.116 11.048-6.1282 28.973-17.687 30.982-26.539 1.4138-6.2131 5.6341-17.295 8.0516-20.529z" fill="#cfa7cd"/>
  <g fill="#b491b2">
   <path d="m20.054 224.09c-3.2185 5.4985-5.0729 12.495-5.7537 21.295-0.95543 12.035 3.8989 23.015 9.9243 31.067 2.6732 4.8012 4.8514 10.367 15.32 13.584 6.5195 2.0073 17.057 3.508 24.462 3.8651-2.8952-1.2594 0.04825-5.0898-2.7939-6.0259-19.713-6.4515-34.148-19.525-35.986-45.604-1.5345-21.857 9.8905-33.143 8.4603-34.114-1.4283-0.98919-9.7366 10.196-13.635 15.933"/>
   <path d="m43.102 153.81c0.52596-1.9929 0.04825-4.6806-0.04825-6.3323 0 0.0338-0.01686 0.0483-0.01686 0.0483-6.4346-5.6346-31.101-21.313-33.518-22.521-1.2112-0.59352-3.1509-0.28953-4.5792 0.68037 6.0433 3.0641 37.654 30.096 38.182 28.105"/>
   <path d="m19.004 185.36c3.2861-0.95542 4.1691-3.8989 3.4887-5.6857-1.2594 2.2631-2.7215 3.3874-4.7819 2.9772-2.0604-0.43429-11.422-4.0678-14.282-2.6395 1.906 2.2969 12.29 6.2985 15.576 5.345"/>
   <path d="m31.061 197.56c2.7746 1.1243 6.6899 2.9965 7.4219 2.485 0.71415-0.49219 0.90234-6.2985-0.14476-6.2985-1.0375 0-10.912-0.52596-12.903 0.43429-1.9929 0.96989 2.8614 2.2631 5.6346 3.3874"/>
   <path d="m54.278 186.99c0.95542-2.4175 0.38603-3.812 0.24126-5.1067-3.151-0.48253-15.422-4.5117-19.049-3.1172-3.6431 1.3801 10.827 4.3235 18.793 8.2219"/>
   <path d="m52.545 157.11c-0.19301 1.9929 21.04 10.333 28.496 9.2603 6.077-0.84927 23.781-15.661 13.346-9.8732-16.274 9.0562-41.553-2.7939-41.842 0.61283"/>
   <path d="m124.53 146.1-43.153-27.832-1.3463 13.209s-20.785-31.747-36.139-48.174c-2.9435-3.1509-6.6899 0.0343-7.3196 4.0002 4.8157-11.065 25.126 37.62 40.241 53.741 8.1201 7.3876 10.571 9.4476 21.993 12.512 14.469-0.96989 25.722-7.4561 25.722-7.4561"/>
   <path d="m138.32 197.53c1.4476 3.8458 1.5344 5.3793 6.2811 12.563 4.7482 7.1835 9.2608 15.014 12.784 22.862 1.824-5.1747 4.1016-10.452 5.6514-12.512z"/>
   <path d="m85.845 264.02c-2.6395 4.6806-4.4586 9.3626-6.3323 14.044 9.3621-6.0259 30.828-2.9628 44.497-10.554 10.026-5.5834 23.951-12.75 28.258-21.177-1.0568-1.327-15.423 0.48253-21.891 3.0979-5.6857 8.0858-33.279 13.482-44.532 14.588"/>
  </g>
  <path d="m72.121 285.61c1.6165-1.2112 5.2259-0.38602 7.2346 1.2063 2.0267 1.6165 7.2515 4.8345 4.4248 5.6346-2.8084 0.80102-5.6346 0.80102-5.6346 0.80102z" fill="#bdbcbc"/>
  <path d="m59.65 288.43c1.9591-1.3125 7.2346-3.6238 9.6517-3.6238 2.4175 0 10.469 5.2427 10.861 6.8428 0.38604 1.6165-2.0073 3.2185-6.8433 3.6287-4.8157 0.38602-15.678-0.801-17.295-1.6165 0-2.0074 1.2063-3.6094 3.6238-5.2258" fill="#e9e9e9"/>
  <path d="m63.278 286.56c-1.4814 0.6466-2.8276 1.3463-3.6238 1.8722-2.4175 1.602-3.6238 3.2185-3.6238 5.2258 1.5152 0.74792 11.184 1.8722 16.359 1.6696-3.7975-2.128-13.091-4.9194-9.1074-8.7667" fill="#bdbcbc"/>
  <path d="m151.21 112.41c20.682-3.3681 38.369 5.0386 38.369 5.0386 2.0074 0.38603 14.418 3.0303 23.338 19.713 9.4138 17.618 15.678 45.059 13.278 52.294-2.4175 7.252-18.912 22.93-18.912 24.955 0 2.0074 2.8084 12.069 0 14.078-2.8084 2.0074-12.069 8.8521-14.486 8.0347-2.4175-0.801-12.069-3.2185-14.878-2.3982-2.8083 0.801-6.8433-0.81549-9.2603-5.2427-2.3982-4.4248-24.938-28.547-30.965-31.373-6.0428-2.8084-20.512-6.4346-20.512-15.695 0-9.243 3.6094-20.904 3.6094-20.904s9.7371-45.127 30.419-48.498" fill="#cfa7cd"/>
  <path d="m185.99 227.66c-8.8178 1.6165-15.627-6.3154-17.431-11.728-3.0834-9.2265-8.205-21.125-16.836-22.981-8.6137-1.8385-30.607-5.856-32.411-24.087-0.90234 3.1992-2.128 5.4811-2.128 12.954 0 9.2603 14.469 12.869 20.513 15.695 6.0259 2.8084 28.564 26.947 30.982 31.373 2.3982 4.4248 6.4346 6.0433 9.243 5.2259 2.8084-0.80101 12.478 1.6165 14.878 2.4175 2.4175 0.80102 9.4138-3.5563 11.865-6.0264 2.4706-2.4513-9.8562-4.4586-18.674-2.8421" fill="#b491b2"/>
  <path d="m182.87 180.79c-0.51149 7.5242-6.9794 23.27-7.1666 15.576-0.76722-29.892-16.955-47.391-15.32-47.868 5.3624-1.549 23.134 22.641 22.487 32.292" fill="#b491b2"/>
  <path d="m205.18 170.45c3.9134-1.0568 8.4945-4.7337 8.4945-4.7337 1.1726 4.2029-0.48253 19.814-4.8012 21.976-4.9194 2.4513-13.754-14.077-13.056-18.759 1.5345 0.38602 5.788 2.485 9.3626 1.5152" fill="#935f83"/>
  <path d="m145.67 152.12c1.7709 3.9664-9.4644 4.0678-12.12 2.5864-2.6395-1.4814 3.6576-12.477 4.4779-12.733 0.81548-0.24126 7.3369 9.448 7.6434 10.146" fill="#b491b2"/>
  <path d="m196.09 138.71c12.886-1.3125 43.782-4.3573 48.617-4.3573 4.8157 0 7.2346 0.80101 2.8084 4.8157-4.4248 4.034-29.466 24.837-43.442 31.39-13.976 6.5364-18.691-30.76-7.9835-31.85" fill="#cfa7cd"/>
  <path d="m190.76 163.98c-0.19301 2.3499 7.8986 9.4138 13.141 6.9625 13.976-6.5538 39.187-27.73 43.612-31.765 0.33777-0.33777 0.6659-0.61281 0.91681-0.90234-44.77 17.414-57.486 23.355-57.673 25.704" fill="#b491b2"/>
  <path d="m192.8 236.53c1.1388-1.2787 1.2063-6.0259-3.2185-5.6346-4.4248 0.38603-11.661 3.2185-11.661 3.2185s-6.0428 10.469-3.6238 11.269c2.4175 0.80102 14.878-4.834 18.504-8.8516" fill="#fff"/>
  <path d="m192.73 236.61 0.0965-0.0965c1.1388-1.2594 1.2063-6.0264-3.233-5.6177-4.4104 0.38602-11.661 3.2185-11.661 3.2185s-1.38 2.3982-2.5526 4.988c3.455-2.4513 7.7621-5.3282 17.363-2.5044" fill="#dcdddd"/>
  <path d="m46.72 228.59c-4.7819 3.1847-11.32 13.329-13.21 15.984-2.0267 2.8277 1.602 6.4346 2.403 8.0516 0.81549 1.602 7.1155 6.673 10.775 4.9194 5.5327-2.6395 8.8352-6.962 16.189-10.145 3.5418-1.5489 1.8385-12.597 0.80101-13.686-1.8722-1.9398-16.665-5.3282-16.955-5.124" fill="#935f83"/>
  <path d="m80.166 185.85c-1.6696 3.3198-2.4175 14.078 1.2063 16.086 3.6238 2.0073 9.822 7.8137 13.856 6.2136 4.0195-1.6165 9.3284-5.4985 9.4476-8.8178 0.0965-3.2185 2.0411-16.699-0.38603-17.908-2.4175-1.2112-20.597-2.6202-24.138 4.4248" fill="#935f83"/>
  <path d="m163.03 152.46c6.0259 9.6517 12.886 27.441 12.444 42.608-11.695-3.6576-25.228-13.567-25.228-17.193-3.6914-15.916 11.065-24.581 12.784-25.415" fill="#fff"/>
  <path d="m170.09 165.05-5.0386-8.5795c-7.8817 4.256-11.576 17.653-8.7667 25.909 2.1762 6.3834 11.984 5.4811 16.41-8.205z" fill="#c90436"/>
  <path d="m156.6 132.34c0.33778-7.1497-2.2824-59.988-2.3644-63.427-0.0965-3.6094-2.0411-6.9794-7.694 1.4814 0.24127-5.5665-0.6273-10.537-1.023-12.154-0.38603-1.602-5.4131 2.0942-7.0132 5.3113-5.6346-10.861-35.237-42.761-42.642-47.068-4.2559-2.4706-1.8722 6.6903-1.5152 14.265-5.2258-5.6346-36.276-18.027-41.893-18.521-4.0195-0.33778-4.8688 2.6539-3.6624 3.4549 1.2063 0.80101 12.563 11.048 12.563 11.048s-3.8458 6.1108-4.5262 13.482c-4.4248 2.0266-8.0347 2.4175-8.4434 3.6238-0.38603 1.2063 0 3.2185 0.80101 3.2185 0.81548 0 8.052 2.4175 8.052 2.4175s2.0073 14.486 4.4248 22.93c-1.2063 2.4175-4.7674 8.2388-2.7601 9.8563 2.0074 1.602 8.7324 6.9794 8.7324 6.9794s10.112 29.023 19.372 36.258c9.2434 7.252 29.297 19.729 45.86 21.721 0 0 23.389-7.7114 23.73-14.878" fill="#cfa7cd"/>
  <path d="m74.76 86.355c-8.6987-0.28952-12.767-36.122-16.563-30.658 0.81549 4.9537 2.0749 11.831 3.4742 16.716-3.8458 7.6771-4.1546 8.3411-2.0266 10.043 2.0266 1.6165 8.0009 6.7753 8.0009 6.7753s10.112 29.041 19.355 36.276c9.2603 7.2346 29.296 19.729 45.859 21.721 0 0 11.66 2.1618 17.687-3.5563-34.216-4.5262-56.346-29.245-75.785-57.315" fill="#b491b2"/>
  <path d="m148.48 136.03c1.2112-12.869-5.9579-45.11-17.227-57.588-11.065-12.256-30.982-32.581-38.624-37.416-7.6434-4.8157-23.338-9.2603-25.33-4.4248-5.6346 13.686 13.874 71.393 25.143 81.454 11.252 10.043 19.508 21.125 44.855 24.751z" fill="#00a094"/>
  <path d="m148.37 127.8c-1.2932-15.218-7.7963-39.05-17.108-49.366-11.065-12.239-30.982-32.581-38.624-37.416-7.6434-4.8157-23.356-9.2603-25.347-4.4104-1.0905 2.6539-1.2256 6.9794-0.66589 12.308 10.554-14.929 72.653 46.932 81.743 78.883" fill="#008b81"/>
  <path d="m154.19 142.4c-4.6999-6.1624-17.091-19.423-19.1-21.04-2.181-1.7371-3.9664 0.24128-3.4212 4.5455 0.38603 3.2185 6.1789 19.099 8.0347 24.547 1.8915 5.4816 19.286-1.7709 14.486-8.0516" fill="#cfa7cd"/>
  <path d="m131.61 125c0 0.28951 0.0169 0.59351 0.0482 0.90234 0.38603 3.2185 5.9921 19.525 7.8475 24.972 1.0037 2.929 6.6218 1.906 6.1962 1.1918-0.43429-0.73345-8.9539-17.959-14.095-27.066" fill="#b491b2"/>
  <path d="m89.42 230.5c-2.6539 11.882-4.8345 36.599 0.80101 50.694 5.6346 14.078 11.405 17.755 15.423 17.346 4.034-0.38602 18.776-1.2594 18.776-3.2668 0-2.0267-2.4175-17.312-1.6165-22.13 0.81547-4.8345 7.7452-26.096 12.069-34.59 4.3235-8.494-42.796-19.934-45.451-8.0516" fill="#cfa7cd"/>
  <path d="m87.782 255.63c-1.0712 12.018-1.3801 16.001 2.432 25.551 5.6346 14.095 11.405 17.772 15.422 17.363 1.8578-0.19301 5.9921-0.48254 9.9074-0.91681-8.5114 0.28951-23.1-22.776-27.764-41.995" fill="#b491b2"/>
  <path d="m117.05 294.56c1.6165-2.4175 2.6202-5.941 4.5455-4.9368 2.8759 1.5152 8.0521 6.8433 6.0433 7.6434-2.0266 0.81549-7.252 0.81549-8.8521 0.38602z" fill="#e9e9e9"/>
  <path d="m119.53 290.37c-0.81549 1.0568-1.5489 2.8084-2.4706 4.1884l1.7178 3.1172c1.2787 0.33778 4.7674 0.38603 7.1835 0-2.9435-1.6165-7.9324-3.8651-6.4346-7.3027" fill="#bdbcbc"/>
  <path d="m102.29 296.07c1.2594-1.8915 6.4346-5.2258 8.4434-5.2258 2.0073 0 12.069 6.4346 9.6517 8.4429-2.3982 2.0073-20.512 0.38603-18.095-3.2185" fill="#e9e9e9"/>
  <path d="m107.41 292.06c-2.0942 1.1388-4.3428 2.8421-5.1067 4.0195-1.9929 2.9628 9.8731 4.5792 15.508 3.9471-4.1546-1.5152-12.614-5.1578-10.401-7.9666" fill="#bdbcbc"/>
  <path d="m114.96 225.77c-3.8989 0.68038-9.8562 7.541-8.2388 9.5498 1.602 2.0266 3.6238 4.8345 6.0259 3.6238 2.4175-1.2063 5.2427-2.8084 5.6346-5.2258 0.38603-2.4175-0.48253-8.4776-3.4212-7.9498" fill="#935f83"/>
  <path d="m195.82 168.94c1.5345 0.38603 5.7875 2.485 9.3626 1.5152 0.80102-0.24126 1.6358-0.54526 2.4513-0.93611 0.61283-4.3235 0.63213-8.7324 0.0482-10.792 0 0-16.563 3.9664-16.937 5.2601-1.3125 4.4248 4.0002 13.788 8.9028 16.052-2.432-4.1884-4.1691-8.9197-3.8458-11.099" fill="#b491b2"/>
  <path d="m203.69 179.92c1.9929-1.4283 3.3005-5.856 3.9472-10.401-0.81549 0.38603-1.6503 0.71415-2.4513 0.93612-3.5756 0.9506-7.8475-1.1243-9.3622-1.5152-0.33776 2.1811 1.4138 6.9114 3.8458 11.099 1.4283 0.6659 2.8276 0.73346 4.0195-0.0965" fill="#7f5172"/>
  <g fill="#0f141b">
   <path d="m148.74 261.63c1.3463-4.9706 2.5381-9.7028 4.3428-15.133l-2.5381 1.8385c-1.8047 5.3793-2.4706 8.7329-3.7976 13.686-2.7215 10.043-4.8519 19.185-4.2222 23.798 0.6659 0.0337 1.327 0.24127 1.8867 0.55974-0.62731-4.3235 1.7371-15.218 4.3235-24.751"/>
   <path d="m138.43 287.32 0.71415 1.1918s2.9435-2.6877 4.4779-1.8915c1.5152 0.78171 4.3766 3.1316 4.1691 3.7252-0.24126 0.57905-6.2474 0.84927-6.2816 0.74794l0.0482 1.0374c0.38602 0.24128 5.9752 0.14476 7.4561-0.19301 0.6659-0.14475 0.81547-1.0374 0.38602-1.9398-0.90234-2.0266-5.2944-4.9026-5.2944-4.9026-1.5634-1.3608-5.7195 2.1955-5.7195 2.1955"/>
   <path d="m123.72 289.61 0.9892 0.9892c1.7034-1.7178 8.9708-4.6806 10.265-3.9134 5.9916 3.5901 6.1788 4.9194 6.1451 5.1409 0 0.14476-0.24128 0.28951-0.59353 0.38602-3.6431 1.2063-12.58 0.62729-14.98-0.38602l-0.54527 1.2787c2.6395 1.1388 12.699 1.4283 16.767 0.0482 1.1919-0.38602 1.4621-0.81547 1.5152-1.327 0.19301-1.5489-2.9628-3.6914-7.8306-6.6218-2.3162-1.38-10.009 2.6732-11.728 4.3911"/>
   <path d="m161.91-15.247c-0.83479 2.5044-1.1388 13.431-1.2256 14.793-3.5225 3.0303-4.9706 5.5834-5.4985 6.1625-2.1425-0.19301-8.2219-0.801-9.4987 0.38604-0.83479 0.801-0.43429 10.486-0.19301 13.448-1.3125 2.1955-10.674 13.635-14.146 33.364l1.7854 2.3306c3.2523-16.665 11.558-31.799 12.869-33.45 0.76723 3.7107 1.1581 3.508 1.327 0 0.19301-3.508-0.33778-13.584 0.69967-14.35 1.023-0.76724 7.6434-0.19301 9.4818-0.19301 1.8384 0 3.3874-0.28953-0.19301-1.0037 0.88304-1.1726 2.0604-2.9435 3.508-4.1691 0.55974 4.7337 0.92164 3.7638 1.4283 0.24126 0.49218-3.508 0.19301-13.277 1.906-17.448 0.33778-0.81549 4.2704-2.7408 4.9026-2.0942 0.61282 0.6659 1.7854 9.2603 2.9435 16.273 1.1726 7.0136 1.9591 3.3729 1.8384 0.66589 12.444 9.9243 17.703 30.726 19.627 35.731-0.74793 5.6857 0.19301 7.5242 1.4138 1.1726 0.71415-3.6431 1.9398-7.2515 2.7939-9.3453 1.684-4.1546 3.0641-3.4887 3.6624-1.2449 2.2293 8.6137 5.4985 34.284 5.0386 39.952-5.4811 3.6769-3.4405 3.5756-0.76723 2.0604 1.9398-1.0712 5.4811-2.929 7.6091-3.7782 2.0073-0.81549 3.0979-0.28952 1.2449 3.2861-1.1581 2.2148-3.4212 6.6387-4.9706 9.1923-2.128 1.8192-4.0533 3.5225-5.6003 5.1747-1.8722 1.9736-3.4212 4.5262-0.43428 1.9736 2.707-2.2824 8.2388-6.4177 12.001-8.7329 4.2029-2.5864 4.4924-2.4851 2.6395 2.5044-3.6094 9.669-14.555 33.654-20.342 42.557l1.8192 0.9892c6.0428-9.2941 17.89-34.284 21.193-43.067 3.0303-8.0347-0.0482-8.8859-8.0516-3.5418 0.64659-1.2594 2.2486-3.9134 3.6094-7.2009 2.1955-5.3108 0.90234-6.8771-3.1847-5.4131-1.684 0.61283-3.6769 1.9398-5.0218 2.7746 0-9.8558-2.1618-29.858-4.2222-38.931-2.1955-9.5836-7.6771-1.4959-9.5836 6.1793-2.0266-6.1793-6.673-23.696-20.87-34.692-0.14476-1.6358-1.4283-14.146-1.9398-15.661-0.49217-1.4959-1.3607-2.3306-3.5418-1.8385-2.1618 0.51149-5.277 2.3837-6.1113 4.8857"/>
   <path d="m38.843 80.974c-2.2631 1.1243-4.1015 3.9327-4.1015 6.8091 0 0.38603 0.0343 0.81549 0.0965 1.2256 0.7817 4.613 7.0132 46.489 7.1835 56.362-8.0516-6.4008-30.011-20.819-32.599-22.096-4.3235-2.1618-9.4987 2.432-7.8475 6.588l3.0834 6.7068c4.1691 9.754 17.125 41.4 16.784 42.216-0.33778 0.801-1.6358 2.8952-2.432 2.8614-0.78171-0.0482-1.8385-0.6466-3.9857-1.1243-1.1919-0.24127-4.2222-1.1581-7.2346-1.7854-8.5963-1.8047-9.6685 2.0749-4.8852 8.4603 6.894 9.2096 17.908 26.232 15.814 39.288l1.9929-3.812c2.1618-13.346-15.269-36.327-15.457-36.565-3.9664-5.2944-2.1618-5.8049 2.2824-5.1072 2.6877 0.43428 6.0433 1.1919 7.5242 1.5827 2.0266 0.54527 4.1546 0.86857 4.4586 0.86857 1.0375 0 2.1087-0.38603 3.508-3.1847 0.74793-1.4814-1.3945-9.5325-16.41-44.514l-2.4513-5.7538c-0.81549-2.0749 2.2631-5.4811 4.9194-4.1546 2.1135 1.0568 26.709 16.648 33.195 22.334 0 0 0.14476 2.6057 0.24126 3.7107 0.14476 1.4283 0.6466 6.9282 1.5682-1.4283 0.90234-8.3584-6.0264-57.452-6.6218-61.027-0.48253-2.6877 1.0375-5.3962 2.7408-6.2305 1.0712-0.52596 2.0942-0.28951 3.0303 0.71415 15.133 16.189 34.386 46.268 36.037 48.072-1.1388 8.5968-0.0343 8.0009 1.4814 3.508 1.5152-4.4924 2.0942-14.419 2.0942-14.419l-2.3837-2.9097s-0.43429 6.2474-0.74794 9.5498c-4.8857-7.32-22.453-32.054-35.441-45.945-1.4814-1.5827-3.6238-1.6841-5.4304-0.80101"/>
   <path d="m79.191 277.06-0.84926 2.8759c2.4706-1.7371 5.856-2.8759 10.537-3.7638-0.24126-0.63213-0.38603-1.5682-0.49219-2.1956-4.0195 0.69968-7.0986 1.6165-9.1923 3.0834"/>
   <path d="m161.18 220.32c-2.7746 4.613-5.6683 14.214-7.0817 20.427-2.0411 9.0562-21.721 20.989-29.381 25.33-0.19301 0.83479-0.57903 1.7178-0.90234 2.5864 1.2256-0.51149 2.3837-1.0568 3.4405-1.6358 8.6818-4.8345 24.632-12.733 29.177-25.126 1.5152-4.1353 1.2256-12.733 6.7748-19.797z"/>
   <path d="m107.33 146.16c-10.282 7.0474-16.291 13.754-28.768 12.886-9.1923-0.62729-16.615-3.2861-21.381-3.8796-5.0217-0.61283-6.3497 0.48253-6.3497 3.4742 0 1.8192 0.38603 5.0898 0.95542 8.8347 0.61283 4.0533 1.9398 10.877 1.8385 13.176-2.4175-0.63211-8.6818-2.5719-13.755-3.3198-8.5283-1.2449-8.2388 1.1726-5.5323 7.694 1.023 2.485 2.4851 4.8157 3.0979 8.0347-0.6659-0.0169-4.9706-0.6659-8.6644-0.61283-7.4219 0.0965-8.0178 1.2256-5.8218 7.5922 0 0 4.2753 11.082 3.2523 14.52l1.3608-0.54526c1.1919-4.0002-2.2824-14.265-2.2824-14.265-1.4814-4.2704-1.1726-5.0386 3.6238-5.2258 3.6962-0.14476 8.8521 0.28951 8.8521 0.28951s0.28951 1.8722 0.38603 3.3536c0.14476 2.0074 0.96989 3.9664 1.38-0.86856 0.38604-4.834-2.128-10.026-3.233-12.971-1.7371-4.5937-1.4283-5.345 3.5418-4.6468 3.4743 0.48253 8.7836 1.5152 13.805 2.9434 0 0-0.04825 1.9929-0.03372 3.011 0.01686 1.0037 0.63213 4.4104 1.5345-1.2256 0.90234-5.6514-0.51149-12.188-1.2787-17.21-1.5152-9.9581-1.9591-10.384 8.1196-8.3749 4.1015 0.80101 9.2265 1.8192 14.487 2.181 11.763 0.81549 17.891-2.1087 31.883-13.09 4.7144-3.6769 3.7782-5.056-1.0375-1.7516"/>
   <path d="m90.646 230.03c1.0037-5.4985-1.3463-3.011-1.9929 1.7034-0.14476 1.0568-0.54526 3.2861-0.9892 6.2985 0.38604 1.1243 0.9699 2.1955 1.5489 3.3198 0.52596-5.4136 1.1243-9.6179 1.4283-11.32"/>
   <path d="m102.2 296.9c-2.8952-1.4621-6.9113-5.4985-11.133-16.052-2.1955-5.4811-2.8421-13.908-2.7939-22.368-0.81548 1.2401-1.684 2.5719-2.432 3.9809 0.14476 6.588 0.33778 13.142 2.3982 18.368 5.0729 12.801 11.133 17.159 14.827 18.299-0.48253-0.55974-0.78171-1.2787-0.86856-2.2293"/>
   <path d="m135.85 237.93c1.8529-3.3005-0.19301-2.6877-1.7033 0.0965-7.694 14.112-11.745 30.233-12.529 34.982-0.14476 0.73347-0.19302 1.6841-0.19302 2.7939 0 3.9471 0.9892 9.7708 1.5152 14.18 0.54526 0.90233 1.3125 1.4814 2.0604 2.0604-0.0483-0.48253-0.0965-0.95541-0.19302-1.4958-0.63211-5.2259-1.327-14.027-0.7817-17.295 1.2739-7.6771 6.7068-26.266 11.797-35.305"/>
   <path d="m56.404 292.26c-6.077-0.71415-12.716-1.8529-17.465-3.3198-8.1539-2.5044-10.775-7.541-12.58-10.469 3.3198 1.7178 3.9327 1.2787 2.2148 0-1.6165-1.2112-2.6057-2.0604-4.034-3.6238-4.8012-5.2944-10.077-16.955-9.0562-29.909 0.90234-11.559 5.856-22.504 12.733-30.114 7.3538-8.1196 5.9067-9.2603-0.24126-2.4175-1.8047 2.0073-13.925 14.248-15.337 32.19-0.86855 11.133 3.7107 24.547 10.707 31.662l3.233 6.4515c3.1172 4.6806 4.7337 5.9579 13.482 8.6475 4.1209 1.2787 10.367 2.1473 16.359 2.8614 0.0965-0.6273 0.38603-1.3945 0-1.9591"/>
   <path d="m89.692 240.2c-5.277-14.265-12.12-22.878-24.019-25.602-3.0641-0.69967-4.1015-0.14475-1.4476 0.68038 11.184 3.4743 17.67 11.099 22.725 24.785 0.801 2.128 1.0037 4.5262 1.1243 7.0812 0.55974 12.137-11.456 33.79-12.682 36.837 0.48254-0.0965 0.9699 0.24128 1.4814 0.63213 1.2787-2.9772 3.2668-6.3666 4.9025-9.1411 3.3005-5.6177 12.324-23.373 7.9155-35.271"/>
   <path d="m71.706 285.06 0.83479 1.105c1.2449-0.93612 3.011-0.96989 5.498 0.59351 2.5044 1.5489 6.4346 4.1016 5.856 4.8852-0.59351 0.801-4.1353 1.2256-4.1546 1.2256l-1.5827 1.0712c0.0965 0 4.0678 0.14475 6.9456-0.68038 0.93612-0.28952 1.2256-0.71415 1.2932-1.105 0.24128-1.327-4.8514-6.5026-9.7371-8.137-1.6503-0.55975-3.011-0.38604-4.9537 1.0374"/>
   <path d="m60.035 289c1.9736-1.327 7.1324-3.508 9.2772-3.508 2.3306 0 9.8563 5.1578 10.18 6.3154 0.04825 0.24128 0 0.48254-0.19301 0.71416-0.57904 0.78171-2.4706 1.7516-6.0601 2.0411-4.4104 0.38603-14.436-0.84926-15.746-1.327-1.3125-0.49219 0.43428-2.8614 2.5188-4.2367m-1.1388-1.0905c-1.2932 0.86857-2.6539 1.8915-3.5225 3.2185-0.38604 0.59352-0.86856 1.602-0.71415 2.3306 0.19301 0.81549 0.84925 0.80101 1.5345 1.0037 1.4476 0.43427 2.929 0.71415 4.4248 0.96989 3.8651 0.6273 7.6265 0.95542 11.882 0.86856 3.508-0.0482 5.3624-0.52596 7.4561-1.3125 2.1087-0.80101 2.7939-2.0266 1.2449-3.6962-3.0834-3.3005-9.5836-7.7789-12.222-7.7789-2.6057 0-8.1027 3.0786-10.078 4.3911"/>
   <path d="m116.48 294.18 1.1581 0.76723s2.9435-5.0555 3.6431-4.6999c2.7553 1.4283 6.1282 5.2939 6.1282 6.2985 0 0.0338 0 0.0482-0.0169 0.0965h-0.0169c-1.8915 0.76723-6.9625 0.73345-7.4219 0.28952l0.69968 1.2256c0.61281 0.51149 5.8218 0.68038 8.0516-0.19301 0.52596-0.24128 0.84925-0.6659 0.88304-1.2401 0.0965-2.1811-5.3793-6.2474-7.6602-7.6602-2.0749-1.2932-5.4473 5.1578-5.4473 5.1578"/>
   <path d="m103.04 297.14c-0.38603-0.33778-0.28952-0.52596-0.19302-0.68038 1.1919-1.8047 6.1962-4.9194 7.8817-4.9194 1.38 0 8.4091 4.338 9.2603 6.6725 0.14476 0.38603 0.0169 0.48253-0.0482 0.54526-1.7709 1.4621-14.401 0.64659-16.921-1.6165m-1.327-1.4621c-0.55974 0.84927-0.98919 1.9253-0.19301 2.654 2.8084 2.5044 17.737 3.73 20.206 1.684 0.33776-0.28953 0.90233-0.76724 0.49217-1.8915-1.0037-2.8084-8.937-8.0004-10.996-8.0004-2.2969 0-8.1539 3.508-9.533 5.5492"/>
   <path d="m155.72 111.48 0.43428 2.2631c4.0195-1.2063 11.388-1.3607 12.852-1.3945 1.4476-0.0169 2.3306-0.49218 0.14476-1.0567-2.1955-0.54527-9.1923-1.0712-13.414 0.19301"/>
   <path d="m180.14 233.07c-1.0037-0.0482-1.8529 0-2.4658 0.19302-2.0749 0.59351-5.4816 0.24126-8.205-4.7819-2.3499-4.309-22.981-28.496-32.394-32.871-7.0132-3.2523-18.572-6.5364-18.572-13.499 0-8.9882 2.7408-18.521 3.1654-20.921 0.38602-2.3982-0.57904-2.0266-2.0074 1.8385-1.5682 4.256-3.6624 9.9412-3.7976 19.218-0.0965 9.8394 14.231 11.337 20.836 15.542 10.282 6.5538 28.326 27.832 30.896 32.531 2.6539 4.9026 7.473 5.5834 10.571 4.6999 0.0338-0.0169 0.0482-0.0169 0.0965-0.0169 0.54526-0.71415 1.1919-1.3607 1.8722-1.906"/>
   <path d="m222.97 157.61c-0.74792 0.55974-1.4138 1.2063-2.0604 1.8722 3.9327 12.937 5.8729 25.347 4.4248 29.704-1.3945 4.1691-7.9666 11.61-12.75 17.04-4.6999 5.3112-5.6519 6.077-6.2647 7.0648-0.61282 0.96989-0.0483 3.6576 0.19301 5.0217 0.52597 2.9965 1.8722 7.6771 0.28952 9.4476-1.6165 1.7516-12.444 7.9493-13.431 7.9493-0.33777 0.73345-0.73345 1.4959-1.2256 2.1618 2.2148 0.28952 14.078-5.6857 16.274-7.5073 1.5827-1.327 2.0266-2.3162 2.0266-4.4104 0-2.128-1.3125-5.5492-1.7854-8.2388-0.19301-1.0905-0.71415-2.9628-0.68036-3.5563 0.0482-0.57904 3.9133-3.9326 6.4857-6.8433 9.3621-10.622 13.72-16.342 13.72-20.921 0-6.4689-1.7709-17.602-5.1747-28.786"/>
   <path d="m214.45 136.31c-8.3073-15.542-21.21-19.117-24.683-19.746-3.4742-0.61281-4.4248 0.0965-0.88304 1.0905 3.4742 0.9699 14.52 4.4924 22.64 18.861 0.95543-0.0965 1.906-0.19301 2.929-0.19301z"/>
   <path d="m196.51 137.89c-5.7026 0.7817-6.4689 2.0266-0.28953 1.7178 3.4405-0.19303 43.612-4.3428 48.463-4.3428 3.9327 0 4.3428 1.2932 2.1955 3.2523-4.8157 4.3766-25.551 20.274-36.633 27.407-6.162 3.9664-8.8347 4.309-12.716 2.8084-4.7674-1.8192-5.7706-1.3125-1.2063 1.6503 4.2222 2.7408 8.6306 1.5489 14.35-2.1955 13.584-8.8685 34.675-24.734 37.774-27.679 5.8556-5.5834 3.1992-7.9498-6.588-7.3201-13.261 0.84926-42.404 4.2897-45.366 4.6999"/>
   <path d="m189.67 223.28c0.51147 0.86855 1.5152 2.0073 1.8047 2.8952 0.28952 0.90234 0.61282 0.88304 0.71416-0.0965 0.0965-0.96989-0.0965-2.9097-1.1919-3.6431-1.0905-0.73345-1.8384-0.0337-1.327 0.83478"/>
   <path d="m189.66 231.75c1.3125-0.0965 2.1955 0.28952 2.6395 1.1581 0.24127 0.48254 0.28952 0.95543 0.28952 1.4283 0 0.71415-0.19301 1.3608-0.43429 1.6165-3.4887 3.8796-15.559 9.1411-17.533 8.6301-0.0482-0.0965-0.0482-0.19301-0.0482-0.33777 0-1.38 1.6696-5.4304 3.9471-9.4306 1.2932-0.48254 7.3538-2.707 11.15-3.0496m0.54526-2.128c-4.4924 0.38603-12.291 3.5756-12.597 3.6962l-0.28953 0.0965-0.14476 0.24126c-1.2063 2.0942-5.9236 9.9412-5.0044 12.358 0.19301 0.49219 0.54526 0.83479 1.0037 0.98919 2.9097 0.9699 16.376-5.6346 20.002-9.6685l0.24127-0.28952c0.86856-0.96989 1.9398-3.6624 1.0905-5.3619-0.43427-0.90234-1.602-2.3499-4.3235-2.1087"/>
   <path d="m150.6 176.96c-1.0568-10.35 4.1884-19.781 12.103-23.491 10.707 18.691 11.933 33.909 12.359 40.616-11.814-4.1691-24.462-13.209-24.462-17.125m11.269-24.7c-9.6348 4.5793-14.01 13.669-12.733 24.955 0.48254 4.2366 11.014 13.227 25.892 18.401 0.33778 2.181 1.3125 2.929 1.327-0.54526 0.0482-16.955-4.9875-31.424-12.682-42.812-3.3343-4.9368-5.3962-4.9706-1.8047 0"/>
   <path d="m159.17 186.37c4.0678 1.7854 11.541-2.0411 13.84-11.49l-0.83477-0.84926c-2.1425 6.6556-7.6091 12.699-12.529 10.98-6.3328-2.2293-3.6624-22.504 5.8044-27.594l-0.51147-1.2449c-10.333 5.0386-14.316 26.454-5.7706 30.198"/>
   <path d="m167.28 160.91c-6.2985 5.3962-8.6137 17.159-5.5496 18.504 2.3644 1.8915 7.3881-4.5455 8.1539-12.069z"/>
   <path d="m48.286 16.439c4.0678 4.034 6.3154 6.5369 11.524 10.673-0.96989 1.7033-3.2185 6.8944-3.8989 12.886-4.0002 0.81549-8.426 2.128-8.9708 2.8614-0.54526 0.71415-1.0712 3.7638 0.92165 4.5793 1.9929 0.81549 5.3281 1.6503 8.5626 2.7215 0.38603 2.6539 2.1811 14.64 4.2704 22.164-1.1243 2.2969-2.9435 4.0871-3.6576 5.5491-0.92164 1.906-1.0905 3.7107 1.0905 5.3793 1.9929 1.5296 8.3237 5.941 8.6132 6.1793 0.90234 2.5864 8.6644 28.36 18.18 36.446 9.0731 7.694 24.172 18.231 44.055 21.329 7.3196 1.1388 7.9493-0.0482 0.52596-1.3607-16.784-2.9772-34.284-14.419-43.153-22.147-7.0474-6.1451-17.244-32.241-17.653-33.552 3.6238 2.5044 2.7408 0.61282-0.95543-2.2824-2.8614-2.2486-5.8218-4.6999-6.9963-5.6688-1.602-1.327-1.6841-2.2631-0.90234-4.256 0.55974-1.4138 1.5827-3.2668 2.3982-5.2944 1.1919-2.8952 1.1243-4.9025-0.28951-2.3644-0.90235-2.5381-3.6238-18.487-3.6238-19.849 1.5682 0.28951 1.1726-0.38603-0.801-1.2256-1.9929-0.81549-7.7452-3.0979-8.1196-3.3343-0.38603-0.24126-0.68038-1.5152-0.14476-2.0604 0.54526-0.54526 5.0391-2.1955 7.916-2.9628 2.8614-0.7817 3.9664-1.5827 0.51149-1.1243 0.90234-6.6218 3.4887-11.746 3.5225-11.797 0 0 0.69968 0.49219 2.1425 1.2256 1.4476 0.73345 3.8796 1.5489 1.4138-0.38603-2.4706-1.9591-15.525-13.056-15.61-14.095-0.0965-1.0375 1.2449-1.6696 3.1847-1.4959 5.3788 0.48254 36.156 12.648 41.314 18.215 0 0 0.14476 1.0375 0.43428 2.4706 0.57905 3.0303 1.2256 2.1087 1.327 0.83479 0.0965-1.0037-0.61283-8.8347-0.88304-12.92-0.28952-3.9809-0.24126-5.1752 1.3463-4.3428 6.4346 3.3536 36.02 35.68 41.484 46.234 0 0-1.8047 2.4175-2.5526 3.6962-1.0037 1.6841-0.63211 2.4706 1.2932 0.38603 2.0411-2.2293 5.7706-6.741 6.6898-7.7114 1.3608-1.3945 2.3644-0.6659 2.5381 1.4283 0.0483 0.57904 0.33778 5.5834 0.33778 9.09 0 0-0.92164 1.4959-1.4959 2.5381-0.55974 1.0375-1.6696 3.8313 0.0965 1.6503 1.8047-2.1618 5.3282-7.0136 6.1451-7.6265 1.602-1.1919 2.2148-0.38603 2.8276 4.5117 1.5682 12.427 2.1811 54.303 2.5526 60.312 0.24127 3.508 1.2932 6.4177 1.684 0.49219 0.33777-5.3108-0.59352-50.149-1.8385-61.929-0.86856-8.2562-3.3729-8.9201-8.29-2.6395 0.24126-13.312-2.8276-15.099-8.6475-5.788-7.0305-11.984-35.424-43.289-42.829-47.595-3.4067-1.9736-3.8458-0.0965-3.2668 6.5195 0.28951 3.1992 0.49218 6.2131 0.63211 7.6602-8.4945-6.2985-35.51-17.448-40.736-17.891-2.9628-0.28952-7.9324 2.0266-4.2367 5.7026"/>
   <path d="m68.228 33.261c-1.2787 0.38603-2.1425 1.1243-2.5526 2.1087-5.6346 13.72 14.231 73.351 25.637 83.531l4.613 4.2704c9.158 8.6137 19.882 18.078 41.246 20.666l-0.43428-2.2631c-20.904-2.5381-29.79-10.894-39.186-19.746l-4.6661-4.3042c-11.201-10.009-30.488-67.223-24.955-80.654 0.24128-0.59351 0.80101-1.0375 1.6841-1.3125 4.6661-1.4959 16.359 2.0749 22.64 6.0601 7.6091 4.8012 27.458 25.092 38.472 37.28 10.809 11.967 18.282 44.038 16.784 56.431l1.7034 1.3463c1.5489-12.937-2.5719-41.246-17.142-58.694-10.588-12.682-30.419-32.599-38.148-37.467-6.5707-4.1546-20.563-8.8859-25.704-7.2515"/>
   <path d="m137.14 122.02c-5.6857-5.0217-8.0009-1.4138-6.8259 3.4067 0.7817 3.1992 7.2346 22.725 8.6301 25.295 1.3945 2.5526 2.1811 1.2932 1.4621-1.3463-0.73345-2.6202-7.2004-20.308-7.9666-23.559-1.0037-4.3573 1.2787-4.5937 3.9664-1.9253 3.508 3.4742 14.231 15.337 16.359 17.057 2.3499 1.906 3.0303 1.2401 1.7178-0.28953-8.0178-9.3115-13.737-15.473-17.346-18.657"/>
   <path d="m213.2 165.17c0.81548 9.4306-1.3463 21.313-5.2432 21.942-3.3005 0.54526-8.6132-6.5538-11.422-17.772l-1.6165-1.0037c2.929 13.976 9.2603 21.687 13.329 21.023 4.7144-0.74794 7.2689-13.329 6.2985-24.632z"/>
  </g>
  <path d="m166.41 165.95c0 1.8047-1.4621 2.929-2.7746 2.929-1.6165 0-2.929-1.3125-2.929-2.929 0-1.7178 1.4138-2.929 2.929-2.929 1.5827 0 2.7746 1.4476 2.7746 2.929" fill="#fff"/>
 </g>
</svg>
