<?xml version="1.0" encoding="UTF-8"?>
<!-- Created with Inkscape (http://www.inkscape.org/) -->
<svg version="1.1" viewBox="0 0 487.61 324.63" xmlns="http://www.w3.org/2000/svg">
 <g transform="translate(145.13 15.828)">
  <path d="m332.69 156.56c-6.5606 1.2478-32.338 12.064-33.396 14.349-1.4398 3.1555 3.3655 9.2908 7.9152 13.587 6.899 6.497 17.756 12.233 24.401 8.7197 0.53992-0.29995 8.169-32.296 4.6793-36.38-0.53992-0.6359-1.6318-0.6539-3.5995-0.29995" fill="#0f141b"/>
  <path d="m333.09 160.54c0.17997 0.53993 0.29996 1.5658 0.29996 3.1135 0 7.7035-2.4116 25.587-4.0854 27.471-5.5852 2.8796-14.518-2.6636-20.507-8.3172-5.0812-4.7813-7.4497-8.9735-7.4497-10.54 0-0.0599 0.0215-0.17998 0.0426-0.23997 2.6636-2.1357 27.873-11.682 31.682-11.492" fill="#007b36"/>
  <path d="m315.17 187.85c4.9493 3.2575 10.328 5.2252 14.159 3.2815 1.3978-1.6078 3.3655-14.709 3.9354-23.365-4.9313 7.7245-10.963 14.624-18.095 20.084" fill="#00662a"/>
  <path d="m330.49 193.15" fill="#007b36"/>
  <path d="m267.89 211.96c-0.6959 0.29995-1.5238 1.0558-2.5616 5.9031-1.0378 5.0153-2.7716 15.872-2.7716 22.92 0 3.1975 0.29996 7.2799 0.95387 8.0418 0.6359 0.70188 1.7757 0.6539 2.8136 0.53992 5.6932-0.6779 29.946-10.857 31.153-13.058 1.6498-3.0476-2.7296-9.5026-6.9632-14.095-6.4334-6.9626-15.745-13.312-22.624-10.243" fill="#0f141b"/>
  <path d="m288.8 223.78c4.6133 4.9973 6.7298 9.2488 6.7298 10.9 0 0.17997-0.0426 0.29995-0.0599 0.41993-2.6456 2.0757-26.222 10.645-29.798 10.327-0.23997-0.6119-0.35994-1.9497-0.35994-3.8334 0-8.2326 2.0937-25.65 3.6834-27.513 5.7592-2.4356 14.285 3.6835 19.851 9.7138" fill="#00662a"/>
  <path d="m267.89 211.96" fill="#007b36"/>
  <path d="m231.25 139.07c-11.386 0.59992-19.873 6.3285-22.708 15.323-1.8177 5.8011-0.71989 11.703 2.6876 14.349 9.46 7.3651 19.47 19.576 32.317 33.311 8.148 8.6981 18.01 19.873 28.19 30.053 23.301 23.301 46.073 20.93 58.009 11.915 14.434-10.942 16.55-33.185 6.6242-50.898-21.078-37.629-84.844-55.11-105.12-54.052" fill="#0f141b"/>
  <path d="m274.3 228.32c-10.137-10.137-19.365-19.999-27.492-28.676-12.93-13.82-24.105-25.756-33.756-33.269-2.3516-1.8177-3.0656-6.6026-1.6498-11.089 1.1638-3.7254 5.4592-12.466 20-13.227 14.18-0.73789 83.046 18.053 102.35 52.528 9.1853 16.423 6.1377 36.359-7.1108 46.391-14.138 10.708-33.714 5.9691-52.338-12.656" fill="#8bc56c"/>
  <path d="m235.6 142.24c-1.6738-0.17997-3.1135-0.23997-4.1934-0.17997-14.561 0.76188-18.836 9.5026-20 13.227-1.4158 4.4873-0.69589 9.2692 1.6498 11.089 9.6508 7.5133 20.825 19.449 33.756 33.269 8.127 8.6771 17.333 18.539 27.492 28.676 18.624 18.624 38.2 23.365 52.338 12.656 3.4255-2.6036 6.1587-5.8611 8.19-9.5656-1.9077 0.59991-27.661-1.9257-41.036-10.434-36.063-22.941-59.025-46.856-58.2-78.729" fill="#78ab5e"/>
  <path d="m216.66 147.19c16.656 4.3374 101.97 54.094 117.48 88.993l1.4578-1.7577c-18.074-40.655-98.516-83.448-118.56-88.696z" fill="#0f141b"/>
  <path d="m299.64 211.4c-2.3277 7.6189 0.17997 16.127 3.8754 18.582 7.4071 4.9313 30.031 0.0215 33.353-3.9774 5.2072-6.2433-1.0978-26.285-11.936-30.116-9.0161-3.0716-20.952 2.1597-25.29 15.513" fill="#0f141b"/>
  <path d="m324.67 198.55c5.3092 1.6917 13.354 20.063 8.8253 25.714-2.7296 1.8597-21.629 6.8996-28.825 3.3235-2.5196-1.3738-4.0194-8.8253-2.2197-14.942 3.4495-11.597 14.73-16.486 22.221-14.095" fill="#007b36"/>
  <path d="m324.93 195.89" fill="#007b36"/>
  <path d="m185.71 50.214c-3.1975 1.6497-3.7854 2.5196-3.9594 3.2155-0.17998 0.77989-0.23996 1.5898-0.23996 2.3937 0 8.4444 9.5656 18.137 19.851 24.465 6.434 3.9354 14.391 7.2169 17.481 4.6133 2.1357-1.8177 11.534-39.83 10.434-46.687-0.0426-0.35995-0.23996-1.5658-1.2058-1.9677-3.6415-1.4818-33.037 9.1427-42.348 13.968" fill="#0f141b"/>
  <path d="m225.91 39.4c0.12 0.35995 0.17998 0.86988 0.17998 1.6498 0 8.3388-6.8996 39.491-8.8253 42.221-1.3318 1.1218-7.0262-0.17998-14.751-4.9073-9.418-5.7772-18.793-15.005-18.793-22.518 0-0.6119 0.0599-1.2298 0.23997-1.8177 1.9917-3.0056 37.354-15.28 41.967-14.624" fill="#007b36"/>
  <path d="m198.47 75.64c1.3318 0.97186 2.6876 1.8837 4.0614 2.7296 7.7245 4.7393 13.418 6.0105 14.751 4.9133 1.3138-1.8597 4.9313-16.931 7.1108-28.973-6.857 8.6351-16.063 15.408-25.925 21.333" fill="#00662a"/>
  <path d="m163.75 39.035" fill="#007b36"/>
  <path d="m218.99 89.568c-1.6498 0.35994-2.4356 0.7019-2.8136 1.2898-0.59991 0.92987-0.92987 1.9497-1.1218 3.0236-1.0978 6.1797 3.3655 14.772 8.7191 20.973 2.0937 2.4356 7.3225 7.8942 10.751 6.3915 2.2017-0.97186 19.555-26.56 19.978-30.75 0.0601-0.91188-0.29995-1.3738-0.61191-1.6078-2.6036-1.8417-28.444-0.61191-34.899 0.67791" fill="#0f141b"/>
  <path d="m251.37 91.216c-0.99586 4.2534-16.085 26.666-17.862 28.042-0.82787 0.35995-3.9774-1.1878-8.0208-5.8611-5.0393-5.8191-9.1427-13.926-8.2116-19.132 0.11999-0.76188 0.41994-1.4578 0.77988-2.0937 2.5376-1.4818 29.079-2.2017 33.311-0.95387" fill="#007b36"/>
  <path d="m225.48 113.4c4.0434 4.6793 7.196 6.2013 8.0208 5.8611 1.1218-0.86987 7.5133-10.053 12.338-17.798-7.217 3.7854-15.364 5.9451-23.767 7.4071 1.0378 1.6078 2.2017 3.1315 3.4075 4.5293" fill="#00662a"/>
  <path d="m205.59 77.037" fill="#007b36"/>
  <path d="m103.76-15.816c-4.1934 0.7019-11.555 18.857-15.893 29.227-11.661-7.4281-26.18-18.158-28.931-17.46-3.4735 0.86988-6.7088 21.058-8.4228 29.057-8.466-3.3655-25.566-7.7671-27.407-7.9362-1.8177-0.17997-2.5376 1.2718-1.6318 3.0895 5.0992 10.243 25.692 24.994 34.814 32.74l0.53994 0.47994 82.432-18.074 0.29997-0.63591c7.0262-14.095 20.592-41.078 16.846-44.846-0.97186-0.95387-4.3614 0.86986-29.269 17.079-7.3441-8.2752-19.153-23.428-23.407-22.709" fill="#0f141b"/>
  <path d="m89.944 16.205c4.9973-12.148 11.809-25.713 14.138-26.518 2.4536 0.04264 13.163 10.455 21.692 20.148l0.84586 0.97185 1.0978-0.71989c9.8836-6.455 20.91-13.206 24.296-14.666 0 0.02095 0.0215 0.04205 0.0215 0.06007 0 4.5713-7.3015 22.01-14.815 37.184-1.3738 0.29996-78.157 17.142-79.575 17.46-13.269-11.302-26.983-24.254-28.719-27.936 2.4536-0.47994 12.084 2.1777 22.095 6.2643l1.6498 0.6779 0.35994-1.7577c2.3937-11.217 5.8851-23.999 7.5343-25.946 2.6636 0.47994 15.682 8.0844 27.153 15.471l1.5238 0.97186z" fill="#fcd13e"/>
  <path d="m57.133 10.837c-1.3738 4.8653-2.8556 10.9-4.0614 16.529l-0.35994 1.7577-1.6498-0.6779c-10.032-4.0854-19.662-6.7724-22.116-6.2433 1.7337 3.6835 15.45 16.634 28.74 27.914 0.95386-0.17997 36.338-7.9572 59.597-13.058-22.307-3.7495-57.1-5.3092-60.126-26.222" fill="#d9b536"/>
  <path d="m99.261 236.5c-1.1638 2.2197-0.6539 5.4412 1.5238 9.778 8.2536 16.465 38.475 45.417 45.226 46.539 6.1587 1.0378 53.332-42.856 58.136-56.845 0.41995-1.2718 0.63592-2.4956 0.63592-3.6835 0-5.5012-4.4634-10.391-12.952-14.01-23.322-9.9681-78.453-9.1211-92.569 18.222" fill="#0f141b"/>
  <path d="m103.47 244.94c-1.4158-2.8136-1.7997-4.6133-1.7997-5.7352 0-0.63591 0.11999-1.0558 0.23997-1.3318 12.338-23.873 64.02-27.386 88.739-16.846 5.3092 2.2617 11.132 5.9691 11.132 11.301 0 0.84588-0.17997 1.7338-0.47993 2.6696-4.8653 14.222-49.671 52.676-54.877 53.544-5.4172-1.1218-34.899-27.513-42.962-43.597" fill="#007b36"/>
  <path d="m193.02 247.38c4.1454-4.8653 7.2169-9.2272 8.2962-12.38 0.29996-0.92987 0.47994-1.8177 0.47994-2.6636 0-5.3332-5.8192-9.0371-11.132-11.301-24.698-10.561-76.401-7.0478-88.718 16.846-0.11999 0.23997-0.29995 0.6779-0.29995 1.3318 0 1.1218 0.41994 2.8976 1.7997 5.7352 7.3651 14.666 32.486 37.861 40.994 42.708 7.0478-19.111 28.253-33.735 48.571-40.274" fill="#00662a"/>
  <path d="m204.15 235.97" fill="#007b36"/>
  <path d="m-4.955 146.12c0 68.824 55.999 124.8 124.8 124.8 68.824 0 124.82-55.977 124.82-124.8 0-68.824-55.999-124.8-124.82-124.8-68.803 0-124.8 55.978-124.8 124.8" fill="#0f141b"/>
  <path d="m0.39078 145.69c0-66.347 53.967-120.31 120.31-120.31 66.348 0 120.32 53.967 120.32 120.31 0 66.348-53.967 120.32-120.32 120.32-66.347 0-120.31-53.967-120.31-120.32" fill="#8bc56c"/>
  <path d="m36.257 60.099c-22.116 21.82-35.872 52.126-35.872 85.586 0 66.348 53.988 120.31 120.31 120.31 24.317 0 46.941-7.2589 65.882-19.704-19.344 3.2575-43.618 7.0688-84.443-9.502-77.861-31.64-99.765-79.702-65.882-176.7" fill="#78ab5e"/>
  <path d="m164.14 55.839c7.4707-5.6092 15.703-11.576 21.164-13.989-11.957-7.3441-33.269-19.047-65.459-19.047-25.249 0-56.888 8.6555-75.068 25.227 0 0 52.422-15.322 60.253-15.217 6.7088 0.06007 37.82 13.439 52.401 22.878 4.5953 2.9816 3.8514 2.4776 6.7088 0.11999" fill="#0f141b"/>
  <path d="m59.609 40.265c18.222-10.391 38.899-15.957 60.253-15.957 25.206 0 47.597 8.169 60.993 16.634-6.2007 3.0895-20.275 12.868-20.275 12.868-11.555-7.8726-46.602-24.803-55.978-24.444-9.3754 0.35995-37.523 8.5925-44.993 10.899" fill="#007b36"/>
  <path d="m7.5105 38.841c-4.3793 0.17997-4.7393 2.2017-4.5713 3.6595 0.86987 6.878 17.439 43.279 19.915 44.57 3.8334 1.9917 14.031-3.2575 19.915-8.9525 7.6189-7.4281 13.142-18.518 9.2272-26.581-4.2954-4.6553-40.804-12.846-44.486-12.698" fill="#0f141b"/>
  <path d="m49.996 52.568c0.6119 1.2898 0.88787 2.6636 0.88787 4.1274 0 6.4544-5.4592 14.18-10.942 19.534-6.5606 6.3705-12.761 9.2062-14.73 8.1906-2.5196-2.3276-17.925-35.386-17.925-40.634 0-0.06007 0.02095-0.11999 0.02095-0.17997 4.1034-1.3558 40.253 6.1797 42.687 8.9729" fill="#007b36"/>
  <path d="m8.7529 49.347c3.8934 11.09 14.412 33.185 16.465 35.068 1.9677 1.0378 8.148-1.8177 14.709-8.1906 0.41994-0.41993 0.88786-0.86986 1.3138-1.3318-12.868-5.5852-24.275-14.349-32.486-25.545" fill="#00662a"/>
  <path d="m39.899 58.635" fill="#007b36"/>
  <path d="m-25.585 103.42c-1.0978 2.9216 24.359 25.164 26.497 25.206 2.4776 0.0601 7.4917-3.2815 10.18-7.5553 9.3964-14.962 1.1398-24.782 1.1398-24.782-1.8417-2.9816-36.698 4.1454-37.82 7.1317" fill="#0f141b"/>
  <path d="m10.518 98.37c1.1218 2.2257 1.6318 4.7213 1.6318 7.2805 0 5.0153-1.8177 10.306-4.2954 14.307-2.4536 3.9594-4.9133 5.7112-6.2433 5.6932-2.2857-0.76188-21.672-16.952-21.841-21.016 2.3937-2.2617 27.471-7.3651 30.751-6.2649" fill="#007b36"/>
  <path d="m-15.761 102.81c-2.2857 0.6779-3.9354 1.3318-4.4873 1.8417 0.17997 4.0614 19.576 20.253 21.862 20.994 1.3318 0.0426 3.7674-1.7157 6.2223-5.6932 0.97186-1.5658 1.8417-3.3415 2.5376-5.2072-9.3118-2.3696-18.158-6.0741-26.137-11.936" fill="#00662a"/>
  <path d="m138.47 69.86c3.4315 14.815-5.3752 27.195-19.09 28.338-16.973 1.4158-29.312-5.9031-32.74-20.698-3.4075-14.815 7.2379-30.158 20.91-31.682 13.65-1.5238 27.492 9.2272 30.92 24.041" fill="#0f141b"/>
  <path d="m129.84 64.544c-4.6373-6.5816-15.322-8.8037-21.608-4.0614-7.0052 5.2672-9.2489 16.106-3.8334 24.106 5.4412 7.9998 18.031 9.481 24.655 3.7674 6.6452-5.7112 6.3489-15.894 0.78588-23.809" fill="#fff"/>
  <path d="m129.92 75.337c0 4.9493-3.9774 8.9525-8.8889 8.9525-4.9133 0-8.8673-4.0014-8.8673-8.9525 0-4.9493 3.9594-8.9519 8.8673-8.9519 4.9073 0 8.8889 4.0014 8.8889 8.9519" fill="#0f141b"/>
  <path d="m125.93 72.48c0 1.6917-1.2898 3.0475-2.8796 3.0475s-2.8796-1.3558-2.8796-3.0475c0-1.6918 1.2898-3.0476 2.8796-3.0476s2.8796 1.3558 2.8796 3.0476" fill="#fff"/>
  <g fill="#0f141b">
   <path d="m97.411 122.26c-1.9257 9.4816-10.095 15.83-18.243 14.18-8.148-1.6737-13.185-10.709-11.259-20.19 1.9497-9.4816 10.116-15.83 18.243-14.159 8.148 1.6498 13.185 10.687 11.259 20.168"/>
   <path d="m226.4 121.91c-4.8053-7.9998-7.6825-20.867-3.4915-23.343 3.9774-2.3276 9.9255 7.7245 12.127 16.846 1.4398 6.0105 0.97185 10.624-0.69591 12-1.6918 1.4158-4.8653-0.35995-7.9362-5.5012"/>
   <path d="m145.12 128.89c-1.5658 14.01-12.804 24.254-25.1 22.878-12.317-1.3738-21.015-13.841-19.449-27.852 1.5658-14.01 12.804-24.253 25.1-22.878 12.296 1.3738 21.016 13.841 19.449 27.851"/>
   <path d="m193.36 125.1c1.1638 15.217-7.6609 28.296-19.725 29.227-12.063 0.91186-22.793-10.666-23.957-25.862-1.1638-15.217 7.6609-28.296 19.725-29.227 12.063-0.92987 22.793 10.645 23.957 25.862"/>
   <path d="m221.95 117.56c2.8796 12.275-0.71989 23.598-8.0208 25.312-7.3015 1.7158-15.555-6.857-18.433-19.111-2.8556-12.275 0.71989-23.619 8.0208-25.333 7.3015-1.6918 15.556 6.857 18.433 19.132"/>
   <path d="m119.66 149.54c-4.0614 46.454-28.402 84.591-53.332 103.45l1.5238 0.61191c31.322-22.179 49.946-59.448 54.432-103.51z"/>
   <path d="m213.49 141.34c10.434 26.793 6.5396 68.697-7.1744 90.305l1.6078 0.5999c18.222-28.719 17.1-68.167 7.4281-92.527z"/>
   <path d="m226.1 184.24c0.35995 1.7337 6.6236 10.095 6.6236 10.095l1.2718-1.3138c4.0014-10.285 8.6351-25.375 8.6351-35.682 0 0-6.2643-4.6793-7.4497-4.2294-1.2058 0.47994-9.3964 29.607-9.079 31.131"/>
  </g>
  <path d="m236.18 155.8c0.47992-0.11999 2.8556 1.8177 4.2954 3.2575-0.53992 9.0371-3.1975 19.302-7.7671 31.322-1.9677-2.9216-3.5155-5.0393-3.7255-5.8192 0.0215-0.91187 6.7088-28.634 7.196-28.762" fill="#007b36"/>
  <path d="m213.43 67.661c6.1161 11.281 3.8334 23.936-5.6692 26.941-10.244 3.2395-21.672-0.97186-26.92-12.677-5.4412-12.169-1.3558-25.164 5.3512-28.931 8.6771-4.8893 21.122 3.3655 27.238 14.666" fill="#0f141b"/>
  <path d="m192.07 61.522c8.2536 0.05992 15.301 8.9099 15.598 18.54 0.17998 6.2853-4.6973 10.518-10.878 10.476-7.4287-0.0599-13.143-7.4071-13.376-16.825-0.17997-6.899 4.5713-12.232 8.6561-12.19" fill="#fff"/>
  <path d="m186.39 76.74c0.97186 4.2114 4.8233 7.1114 8.5919 6.4976 3.7854-0.6119 6.0741-4.5293 5.1233-8.7197-0.97186-4.2114-4.8233-7.1108-8.6135-6.497-3.7674 0.61191-6.0525 4.5053-5.0992 8.7191" fill="#0f141b"/>
  <path d="m189.11 73.648c0.23997 1.3738 1.4158 2.3516 2.7116 2.1777 1.2898-0.17997 2.1597-1.4398 1.9677-2.8136-0.23997-1.3978-1.4158-2.3696-2.7116-2.1777-1.2898 0.17997-2.1777 1.4398-1.9677 2.8136" fill="#fff"/>
  <path d="m89.069 223.25c-18.984 1.2898-37.036 11.894-38.475 25.735-1.0798 10.159 37.311 44.846 53.776 55.83 6.4976 4.3194 8.6987 4.2954 9.9897 3.7014 4.9073-2.2617 23.491-50.772 20.02-66.348-3.2575-14.645-25.734-20.254-45.311-18.921" fill="#0f141b"/>
  <path d="m96.747 294.6c-18.709-15.068-41.206-38.475-40.952-45.057 0.59991-15.026 18.433-21.926 33.544-23.301 18.518-1.6738 39.343 4.0854 42.116 16.592 0.29995 1.2058 0.41993 2.6216 0.41993 4.2114 0 17.693-16 53.777-19.407 56.232-0.97186 0.17998-5.7352-0.6539-15.703-8.6771" fill="#007b36"/>
  <path d="m74.491 229.4c-10.01 3.5335-18.306 9.9681-18.687 20.127-0.23995 6.5816 22.243 30.01 40.952 45.078 9.9675 8.0214 14.709 8.8463 15.703 8.6771 0.0209-0.0209 0.0599-0.0601 0.0599-0.0601-22.095-19.132-37.481-44.634-38.052-73.798" fill="#00662a"/>
  <path d="m302.14 213.89c-1.2898 5.8192 0.17997 12.402 2.5376 13.693 7.196 3.5755 26.095-1.4578 28.825-3.3235 0.042-0.0601 0.0599-0.12 0.11999-0.17998-0.80389 0.0426-1.6318 0.0601-2.4536 0.0601-11.005 0-21.079-3.8514-29.015-10.264" fill="#00662a"/>
  <path d="m172.73 163.84c-4.3614 0.59992-48.528 35.407-48.528 38.709-0.0426 6.1581 29.798 39.872 35.11 38.221 10.476-3.3235 36.316-19.64 46.348-36.232 2.4956-4.1034-29.481-41.164-32.93-40.698" fill="#0f141b"/>
  <path d="m171.93 166.85c2.6636 0.29995 31.767 33.862 32.042 36.656-6.9416 11.365-37.989 33.29-44.951 35.491-2.6456-0.35995-32.232-32.803-32.994-36.422 1.2058-2.3696 42.433-35.152 45.903-35.724" fill="#007b36"/>
  <path d="m48.536 180.48c-0.23997 8.487 10.539 31.301 14.73 34.328 2.5616 1.8597 32.401-11.344 35.682-17.544 1.8177-3.4495-8.3592-32.93-11.196-34.983-4.8473-3.5155-39.131 15.322-39.216 18.2" fill="#0f141b"/>
  <path d="m64.216 212.1c-1.8177-1.3138-13.079-25.989-12.91-31.3 0.59991-1.3138 17.735-10.497 27.957-14.349 5.7112-2.1597 6.6242-1.8597 6.7298-1.8177 2.5616 1.8597 10.92 29.799 10.37 32.126v0.0209c-1.3978 2.6216-30.2 16.211-32.147 15.322" fill="#007b36"/>
  <path d="m-113.23 198.85c-9.9471 0.61192-27.598 2.9636-31.259 6.6032-0.91186 0.92986-0.73788 1.2898-0.17997 2.6036 2.0097 4.6973 26.116 27.026 28.507 27.852 4.4873 1.5418 11.534-2.9396 15.682-10.032 2.2197-3.7914 3.3235-7.6189 3.3235-11.322 0-5.3572-2.3037-10.392-6.857-14.455-0.80389-0.71989-2.6636-1.6498-9.2272-1.2478" fill="#0f141b"/>
  <path d="m-105.49 201.78c10.095 9.0161 4.9073 19.852 3.0896 22.963-3.5155 5.9871-9.5872 10.222-13.016 9.0365-2.4776-1.2718-24.529-22.983-25.608-26.835 3.2995-2.1597 32.232-8.1264 35.534-5.1652" fill="#007b36"/>
  <path d="m-141.02 206.94c1.0798 3.8514 23.111 25.566 25.608 26.836 3.4075 1.1878 9.502-3.0475 13.015-9.0371 1.3558-2.3277 4.5893-8.9735 1.9257-15.936-13.227-0.59991-26.349-1.6318-39.11-2.5196-0.6539 0.23996-1.1398 0.47993-1.4398 0.6539" fill="#00662a"/>
  <path d="m-103.99 200.11" fill="#007b36"/>
  <path d="m-77.123 232.81c-9.1217 0.11999-19.724 4.6373-22.095 17.037-0.02095 0.17997-0.04263 0.35995-0.04263 0.53992 0 1.1638 0.6359 2.6276 1.9497 4.5533 5.2672 7.6189 23.28 24.423 26.709 25.037 0.35995 0.0601 0.97186 0.0209 1.5658-0.5999 3.4915-3.6175 8.6561-36.529 8.169-38.899-0.95387-4.4634-7.9362-7.7671-16.253-7.6825" fill="#0f141b"/>
  <path d="m-97.023 250.48c0-0.0601 0-0.12 0.02095-0.23997 2.6456-13.947 15.894-15.174 19.894-15.217 7.0262-0.0601 13.311 2.5796 14.031 5.9031v0.23997c0 3.9354-5.4172 32.041-7.8096 34.941-3.8754-1.4998-26.137-21.142-26.137-25.671" fill="#00662a"/>
  <path d="m-99.211 249.85" fill="#007b36"/>
  <path d="m6.6173 133.7c-38.243 2.3096-95.998 19.174-128.38 58.284-24.105 29.122-16.613 55.131-4.0434 68.38 14.18 14.962 44.422 22.116 73.734 0.35994 8.6981-6.476 16.529-16.486 25.227-25.29 14.476-14.623 30.666-30.031 58.094-47.258 10.751-6.7724 16.126-17.312 13.142-30.476-3.7434-16.444-20.296-25.036-37.777-23.978" fill="#0f141b"/>
  <path d="m-121.71 256.87c-11.725-12.359-17.312-36.592 5.5432-64.189 30.412-36.719 89.818-51.914 123.11-54.666 24.994-2.0517 32.465 12.995 34.137 20.36 2.4536 10.815-0.6119 20.147-11.852 26.793-19.301 11.428-32.126 21.777-58.199 48.126-8.6135 8.7191-16.042 16.253-24.592 22.581-27.83 20.698-54.835 15.027-68.147 0.99586" fill="#8bc56c"/>
  <path d="m-121.71 256.87c52.57 18.54 80.548-67.935 163.45-94.516 0.23997 2.1777 0.17998 4.2774-0.11999 6.3069-1.0138 6.4545-4.8893 12.084-12.38 16.507-19.301 11.428-32.126 21.777-58.2 48.126-8.6135 8.7191-16.042 16.253-24.592 22.581-27.83 20.698-54.834 15.027-68.146 0.99586" fill="#78ab5e"/>
  <path d="m-46.969 232.26c-11.576 12.508-32.359 26.54-52.888 24.931-12.571-0.99586-25.354-10.709-33.46-22.772l1.0798 3.9354c5.5252 12.91 19.216 21.396 32.275 22.434 21.016 1.6318 41.628-12.359 54.009-25.735 17.672-19.089 77.755-61.692 88.443-65.692l0.35995-2.5796c-12.169 3.6835-70.856 44.972-89.839 65.48" fill="#0f141b"/>
  <path d="m-116.13 152.49c-2.6456 2.3697-1.2898 26.201-1.1878 31.323 0.23997 11.026 1.3738 11.957 1.8417 12.338 7.5127 6.1581 22.814-0.53991 30.983-7.767 4.2354-3.7254 5.8011-6.9632 4.4453-9.1427-4.0014-6.3279-28.825-26.37-34.349-27.153-0.73788-0.11999-1.3138 0.0209-1.7337 0.41994" fill="#0f141b"/>
  <path d="m-114.04 194.42" fill="#007b36"/>
  <path d="m-115.1 180.59c0-9.9255 0.7199-21.714 1.9077-23.682 3.5575 0.29995 26.878 16.592 31.237 23.534 0.05992 0.11999 0.11999 0.29997 0.11999 0.47994 0 1.0978-1.1878 3.1555-4.1454 5.7352-7.3645 6.4976-21.545 12.974-28.021 7.7461-0.76189-1.1638-1.0978-7.0262-1.0978-13.841" fill="#007b36"/>
  <path d="m-81.952 180.45c-3.1135-4.9493-15.851-14.645-24.211-19.915 7.4497 8.0634 13.947 18.158 17.163 28.55 1.0978-0.77989 2.1177-1.5898 3.0236-2.3937 2.9396-2.5796 4.1454-4.6313 4.1454-5.7352 0-0.17997-0.04205-0.35995-0.11999-0.47992" fill="#00662a"/>
  <path d="m-74.909 236.15c-2.0757 7.5343-0.11999 14.328 4.8893 16.868 1.4578 0.76188 36.062 6.899 40.57 4.3794 0.76188-0.41993 0.91186-1.0138 0.92986-1.3318 0.29996-3.5155-12.063-26.539-18.285-33.735-1.7757-2.0757-3.1975-3.0656-4.4633-3.1555-12.867-0.84587-21.142 7.9152-23.64 16.973" fill="#0f141b"/>
  <path d="m-69.027 251.01c-4.0014-2.0337-5.5012-7.788-3.7015-14.264 2.0757-7.5763 8.9309-16.148 21.312-15.322 4.2114 0.29995 18.37 28.084 18.941 32.444-3.8094 1.4998-33.756-1.7338-36.549-2.8556" fill="#007b36"/>
  <path d="m-73.394 240.21c-0.47992 4.9973 1.0978 9.1217 4.3614 10.794 2.7956 1.1218 32.74 4.3614 36.55 2.8556 0-0.0599-0.02154-0.11999-0.04263-0.23996-13.65-4.4214-28.359-6.7298-40.867-13.439" fill="#00662a"/>
 </g>
</svg>
