<?xml version="1.0" encoding="UTF-8"?>
<!-- Created with Inkscape (http://www.inkscape.org/) -->
<svg version="1.1" viewBox="0 0 307.59 318.58" xmlns="http://www.w3.org/2000/svg">
 <g transform="translate(22.06 13.905)">
  <path d="m216.14 188.56c8.2003-10.134 4.3712-27.999-10.835-28.541 5.7746-32.001-38.588-43.464-49.707-19.356-9.2466-7.3996-20.735-6.2548-28.036-0.34901-10.823-10.269-27.593-8.1141-35.005 4.7649l-27.15-8.6558c-4.211-4.6542-11.192-2.8201-13.691 2.3384-15.108-8.3113-37.616 0.41883-35.781 20.55-14.049-1.8847-22.483 12.793-19.355 23.875-19.442 8.7298-22.951 42.676-9.6655 54.57-9.1486 14.788 0.91094 30.314 17.619 29.711 0.77483 15.76 20.008 22.963 32.666 13.36 8.1881 17.238 36.618 20.673 50.15 8.4341 5.1962 6.2056 15.564 6.7595 21.191 0.73993 9.7269 11.463 32.912 9.3207 39.265-5.1963 19.073 7.2894 45.274-7.7078 46.949-30.585 10.847 0.24432 15.772-9.9486 13.987-20.267 17.534-6.6367 21.559-31.508 7.4-45.397" fill="#fff"/>
  <path d="m228.76 40.02c-17.903 13.347-43.661 12.177-60.862-3.04-31.397-27.765-73.938-17.595-80.685 4.0141-0.56541-17.57 15.12-51.221 75.182-26.374 33.971 14.061 62.783 8.4219 70.577-26.682-16.031 27.975-61.687 29.255-88.369 15.92-26.201-13.101-53.893-10.244-64.728 5.8486-8.0649 11.98-4.5188 26.559 3.4344 32.148-21.572 1.3926-34.451 15.145-34.451 30.942 0 6.3658 1.773 12.436 9.6288 19.11 6.895 5.8482 10.244 32.296 4.1492 49.768-5.3561 15.366-22.114 28.886-22.803 37.653 5.7376 1.2565 10.946 7.6338 12.386 13.716 5.5407-9.3699 24.884-17.78 38.958-5.8116 0.36996-4.9991 2.7817-9.3576 7.9787-10.441-14.024-14.049-5.2451-66.378 7.72-79.196 9.1116-9.0006 11.611-15.096 11.968-22.729 0.71549-15.255-9.6407-29.981-26.866-32.543 7.0921-6.9197 36.175-15.711 71.476 1.1937 44.658 21.375 64.248 19.06 77.127 1.6509 4.3338-5.8486 12.054-12.867 18.728-16.388-11.648-0.40487-20.735 3.9279-30.548 11.242" fill="#00b8ee"/>
  <path d="m48.912 75.931c-6.7595 5.4667-3.8047 18.407 9.4316 16.856-3.1028-1.8463-4.3342-4.0138-4.1495-6.5257-2.869-3.1028-4.4078-6.0824-5.2821-10.33" fill="#fff"/>
  <g fill="#00b8ee">
   <path d="m233.01 262.94c-7.8185-4.8144-17.964-10.318-27.002-13.987-1.2809 1.773-2.9806 3.1412-5.0605 4.1003 7.4122 4.6912 19.06 14.32 24.65 18.309 2.1779 1.5636 2.4118 2.1186 4.9128 0.24432 2.499-1.8708 3.04-2.8794 4.063-5.1467 0.7504-1.6858-0.10471-2.6107-1.5636-3.5091"/>
   <path d="m197.19 254.28c-0.90048 0.20941-1.3402 0.17451-2.3384 0.24432-0.24431 1.972-0.66314 4.7404-1.1692 6.5505 5.3069 4.0633 13.987 12.227 17.558 17.016 0.82369 1.1064 1.4764 1.2425 3.2006 0.4677 2.7224-1.232 5.1345-1.5392 6.8091-3.6075 1.0226-1.2565-0.51655-2.513-1.4275-3.6445-4.3097-5.3809-15.662-12.054-22.631-17.016"/>
   <path d="m192.33 264.26c-1.232 2.9318-1.8603 4.642-3.9893 7.2768 3.8047 5.7502 10.232 17.324 13.556 23.481 1.3053 2.4117 1.6125 3.04 4.2724 2.4117 3.8661-0.91094 5.2207-2.1779 7.1784-4.211 1.0331-1.082 1.267-2.2303 0.61428-3.5091-3.6937-7.4-13.643-18.789-21.633-25.45"/>
   <path d="m241.36 247.96c-11.007-3.4344-18.863-4.7282-32.469-6.8457-0.24432 2.0802-0.7888 3.9646-1.5776 5.6022 9.4931 3.5831 19.91 8.6928 27.223 13.261 3.4483 2.1535 3.7799 1.9196 5.1837 0.31412 2.6491-3.0156 2.9074-4.642 3.7429-8.1141 0.54099-2.2652-0.24431-3.6323-2.1046-4.211"/>
   <path d="m277.57 240.47c-21.535-7.4122-50.716-8.816-68.705-6.5875 0.20942 1.6997 0.27922 3.3122 0.20942 4.8392 24.01 2.0557 46.407 9.7883 65.048 17.275 2.3873 0.95982 3.4239 0.67711 4.9617-1.2076 2.4257-2.9806 4.5558-6.6489 5.627-9.6533 0.97377-2.7224-4.9373-3.9031-7.1536-4.6664"/>
  </g>
  <g fill="#00a0cf">
   <path d="m75.255 22.97c0.356 6.1934 7.1783 6.6981 10.22 1.1204 12.029-22.064 35.461-26.017 66.378-15.206 31.139 10.885 67.338 16.45 80.538-18.137-5.1589 21.301-23.271 42.922-70.7 23.518-66.144-27.051-74.209 16.24-74.283 25.253-0.0349 3.9031-1.6753 4.3097-4.4078 1.972-5.3683-4.605-8.8407-13.335-7.7448-18.518"/>
   <path d="m96.543 28.234c-3.3995 5.1467 0.7155 6.9812 5.6147 5.6147 23.185-6.4398 39.918-3.2634 62.339 7.8062 37.222 18.383 57.919 19.035 74.098 1.2914 4.7896-5.2699 10.182-11.118 19.897-14.16-6.5135 4.285-13.852 10.294-17.361 15.366-12.46 17.989-31.804 21.744-77.681-0.63871-31.951-15.588-63.201-9.9733-71.118-0.95981-1.3193-0.34902-4.248-0.89699-5.627-0.81322 0.57939-2.129 4.3342-9.8749 9.8379-13.507"/>
   <path d="m113.9 57.187c5.0975 26.596-18.137 43.722-57.661 32.136 8.9762 7.4 10.503 19.627 9.8257 36.741 5.7994-4.568 22.2-1.6858 25.598 13.532 0.46769-6.5627 4.211-32.924 15.453-43.021 12.165-10.946 14.566-27.544 6.7843-39.389"/>
   <path d="m95.057 170.88c-0.69107 5.2451-8.5574 11.18-15.181 10.626 2.2512 0.7155 9.2467 3.8661 11.414 5.5652 0.41883-4.6664 3.6075-9.7517 8.1263-10.121-1.2181-1.0575-3.8661-5.1467-4.3586-6.0702"/>
  </g>
  <path d="m30.526 179.86c-9.9119-19.035 6.8705-37.061 23.875-30.203-0.40836-5.7009 4.8881-6.5135 7.326-4.7404-3.2738 8.3109-21.584 29.55-21.584 34.34-2.3035-0.70154-7.0799-0.88652-9.6163 0.60381" fill="#dcdddd"/>
  <g fill="#00a0cf">
   <path d="m49.66 163.7c0.46769 10.589 8.9266 17.324 20.291 17.94-9.5179 1.9336-14.628 6.7595-17.497 11.094-1.602-5.2329-5.8978-11.882-12.276-13.286 0.13961-2.9318 5.1467-10.133 9.4809-15.748"/>
   <path d="m212.78 233.14c-1.232 1.6369-0.45373 3.3995 2.3873 3.6567 17.164 1.6125 41.605 9.3084 59.089 16.499 1.3193 0.54099 2.5618 0.81322 3.3995-0.27922 1.6125-2.1046 5.5282-7.0674 5.3313-9.5301 2.314 2.6596-2.5967 9.8009-3.9031 11.316-1.5497 1.8114-2.7712 2.5234-6.7229 0.81322-17.854-7.72-46.123-16.438-63.029-16.856-0.13961-1.5776-0.356-3.5094-0.53051-4.7896 1.4659-0.41883 2.4257-0.55495 3.9771-0.82369"/>
   <path d="m213.37 241.91c-0.76436 2.4013 0.38043 4.6172 2.9806 5.7994 7.1414 3.2145 13.101 6.5257 18.407 9.7147 1.5636 0.93537 2.4013 1.4031 3.375 1.0226 0.9598-0.38043 5.6022-4.9743 4.9251-9.247 2.869 3.0051-1.8847 9.678-3.2389 11.18-2.1535 2.4013-4.3097 0.45373-5.4915-0.31412-5.627-3.6937-18.322-10.367-27.101-13.408 0.82369-1.6369 1.5287-3.8047 1.6997-5.5655 1.6369 0.356 3.1028 0.53051 4.4448 0.82369"/>
   <path d="m209.8 250.75c-1.1692 2.0453-0.13961 5.6147 2.2791 7.437 3.8047 2.869 12.485 9.6407 14.603 11.426 1.0715 0.90047 1.6369 1.0715 3.1517 0.34902 1.6614-0.81322 4.494-4.2972 4.4204-5.8486 1.8359 2.2896-3.1412 7.1784-4.5436 8.3479-1.6753 1.3786-2.5723 0.44326-4.0016-0.78879-5.6517-4.8636-19.947-15.994-24.749-18.568 1.9336-1.1064 3.9768-2.6979 5.0975-4.1495 1.3403 0.63872 2.4501 1.0471 3.7429 1.8114"/>
   <path d="m200.9 256.49c-1.1099 2.1674-1.4519 6.2918 0.82369 8.3727 2.8306 2.5863 7.646 7.9047 9.7391 10.564 0.84812 1.0715 1.3542 1.3926 2.698 0.98424 1.7102-0.51656 6.8953-1.9336 5.9718-4.211 4.3834 3.1412-4.5188 6.1934-6.378 6.378-1.6858 0.17451-2.499-0.24432-3.5953-1.6753-4.1003-5.3317-13.298-13.63-16.401-16.782 0.63872-2.2896 0.87256-4.0386 1.1099-5.91 0.88652-0.0698 2.3524-0.13961 2.9911-0.17451 1.2809 1.0575 1.9825 1.7626 3.04 2.4641"/>
   <path d="m197.1 268.89c-2.7468 2.2791-3.7799 6.1686-2.1535 9.6777 1.2425 2.6735 6.9567 12.645 8.4345 14.935 0.69107 1.082 1.3054 1.8359 2.7328 1.6264 2.499-0.35601 7.363-2.4152 7.6956-4.8636 2.5234 2.7817-5.8486 6.9937-8.3113 7.4492-1.6125 0.27921-2.3768 0.0698-3.7551-2.3769-2.6979-4.7652-10.417-20.168-13.372-24.502 1.9092-2.5723 3.1272-4.1865 4.0633-6.5749 1.8359 1.3298 3.2005 2.8934 4.6664 4.6294"/>
  </g>
  <g fill="#dcdddd">
   <path d="m45.821 84.499c1.1692 2.3385 4.9865 2.5967 8.2617 1.5776 0.13961 1.5636 1.8708 2.9667 5.0731 6.6363-5.8608 0.93539-12.707-0.79926-13.335-8.2125"/>
   <path d="m92.249 153.3c2.129-14.578 25.376-16.044 28.947-3.5583-0.77484 3.5831-0.61428 5.9348-0.39439 9.5053-10.466-2.7328-22.163 0.70153-25.512 12.165-1.7242-3.3506-4.1003-11.168-3.04-18.112"/>
   <path d="m-18.701 200.9c-1.4275 12.682 5.4667 29.661 18.691 32.235-3.04 16.216 10.478 19.91 11.882 19.38 1.9336 10.934 17.152 17.497 32.247 11.229 4.679 7.5228 24.306 19.233 42.43 4.9743 4.568 5.8238 14.394 6.4765 18.999 1.3682 11.894 9.6037 33.109 4.9865 37.098-7.0922 18.112 8.0279 39.499-4.1617 40.349-20.882 11.709 3.2005 22.348-10.724 16.93-20.969 9.4808 1.9336 23.394-13.138 14.677-30.782l1.5776-1.8219c15.169 15.588 9.1112 39.819-7.3756 45.422 1.7486 11.956-4.0386 19.959-13.926 20.254-1.0087 22.065-27.716 37.664-46.924 30.585-7.8188 14.307-29.576 16.856-39.327 5.2329-5.9222 5.4545-14.898 5.8486-21.375-0.55494-20.316 15.268-44.942 3.9031-49.94-8.6558-14.024 9.6163-32.1 1.9196-32.777-13.421-18.568 0.41883-25.463-16.327-17.866-29.735-7.1784-7.0182-10.638-22.668-5.3683-36.766"/>
  </g>
  <path d="m54.97 65.472c-2.0802 0.24432-3.3611 3.3367-2.9807 8.3605 0.4293 5.6392 2.4501 7.5968 4.0138 7.4492 1.5497-0.13961 3.1901-2.3768 2.7573-7.8802-0.40835-5.2329-1.8219-8.1633-3.7925-7.9295" fill="#0f141b"/>
  <path d="m55.147 66.305c-0.94934 0.03487-1.6614 1.232-1.6264 2.3629 0.03487 1.3053 0.84813 2.6212 1.7975 2.5479 0.94934-0.06984 1.6997-1.1692 1.6125-2.513-0.06984-1.3542-0.77482-2.4501-1.7835-2.4013" fill="#fff"/>
  <path d="m91.271 67.515c-2.2058-0.38044-4.494 2.1674-5.3439 7.794-0.65268 4.3586 0.39439 7.9047 2.5234 8.2865 2.4152 0.44326 4.7774-2.9667 5.2947-6.7969 0.84813-6.2548-0.31412-8.9144-2.4746-9.2837" fill="#0f141b"/>
  <path d="m91.233 68.685c-1.2809-0.17451-2.3524 0.60381-2.6735 2.1674-0.36998 1.7242 0.9982 2.7468 1.8603 2.869 0.93538 0.13961 2.1186-0.44326 2.3873-2.1046 0.20942-1.3437-0.62824-2.7957-1.5776-2.9318" fill="#fff"/>
  <g fill="#0f141b">
   <path d="m82.379 40.817c-20.07 0.31412-34.648 15.871-34.648 31.976 0 7.6094 3.2738 14.763 10.614 19.479 6.2426 6.4025 10.983 35.461 1.0715 54.336-6.1072 11.648-17.349 21.781-21.215 32.776l1.9929 0.46769c2.5723-9.4686 14.234-20.082 20.784-32.222 9.2222-17.115 6.7721-50.359-1.6997-56.762-6.5135-4.248-9.8257-11.611-9.8257-17.94 0-15.871 14.812-30.363 34.685-30.708 0.13961-0.73993-1.4659-0.93539-1.7591-1.4031"/>
   <path d="m92.407 43.06c16.425 2.7084 25.98 16.93 25.278 32.038-0.36996 7.794-3.3855 13.396-12.079 21.978-13.458 13.322-21.449 65.848-7.363 80.156l2.1779-0.4677c-14.221-13.532-6.6245-65.073 6.5627-78.112 8.7912-8.6928 12.46-16.425 12.793-23.517 0.83765-18.051-10.761-30.745-27.297-33.442-3.5091-0.56541-3.8539 0.73993-0.0698 1.3682"/>
   <path d="m59.57 93.51c-14.911 2.4013-18.518-12.855-10.601-18.765l0.17451 2.0941c-5.7254 4.9373-2.4257 16.081 8.705 15.28z"/>
   <path d="m86.864 38.984c0.49212-18.629 15.575-50.076 75.81-25.155 38.588 15.97 60.948 3.3506 68.656-22.2-16.487 25.278-60.776 26.115-87.076 12.977-23.912-11.955-52.342-11.032-63.558 5.6269-7.0552 10.478-5.6884 23.148 2.2163 30.179 2.9423 2.6107 2.2791 3.3367-0.82369 0.93537-8.5081-6.5871-11.18-20.193-3.1272-32.148 11.402-16.942 39.474-19.196 65.996-6.058 27.888 13.803 71.845 10.54 87.162-15.28 1.4659-2.4641 2.1186-2.3768 1.5497 0.4293-6.1194 30.413-31.04 43.907-71.512 27.15-59.2-24.49-73.409 7.5598-74.234 23.246-0.20942 4.3342-1.1692 4.5806-1.0575 0.27922"/>
   <path d="m91.391 41.98c7.4492-7.7078 36.212-16.548 72.424 0.78879 47.687 22.84 64.506 17.139 75.92 1.7242 4.4078-5.9718 10.7-11.402 17.115-15.083-9.4194 0.4293-17.139 3.7185-27.531 11.463-18.432 13.729-43.243 13.347-62.032-3.2634-29.132-25.77-71.734-18.112-79.824 3.3611-0.4677-0.34902-0.20943-0.97377-0.40488-1.5392 7.8062-21.929 50.372-30.437 81.338-3.054 18.691 16.523 41.753 16.228 59.852 2.7468 11.316-8.4345 19.775-11.389 30.523-11.045 2.0697 0.06984 2.2303 0.42929 0.46769 1.5252-6.7721 4.1862-13.323 9.9855-17.866 16.13-12.214 16.511-30.585 21.412-78.346-1.4519-34.574-16.548-62.438-7.831-69.616-1.972z"/>
   <path d="m51.908 193.51c-2.7328-10.774-13.347-16.622-23.21-12.485-3.1656 1.3158-3.7059 0.3944-0.24432-1.1936 11.315-5.1711 21.363 1.267 24.564 12.116z"/>
   <path d="m46.317 200.77c8.9758-20.747 30.634-25.278 44.461-14.997 0.56542-7.1047 5.8364-11.081 13.323-9.247 2.4606 0.60381 2.2407 1.588-0.24432 1.1692-7.2028-1.2076-11.106 3.5461-11.648 9.4442-0.10471 1.1692-0.51655 1.2425-1.4903 0.54099-14.123-10.38-33.934-4.8389-43.292 13.679-1.1588 2.2896-2.1674 1.8463-1.1099-0.58985"/>
   <path d="m94.727 170.38c3.0295-9.2344 12.374-15.12 25.032-12.116-3.04-19.011 19.848-31.028 35.571-18.802 10.958-23.69 56.306-12.695 50.901 19.823 14.948 1.0087 20.045 18.888 10.121 30.006-1.8847 2.1046-2.7328 1.5008-0.94934-0.82371 7.4495-9.6777 4.2605-26.349-9.7883-27.654-0.91095-0.0699-1.1343-0.31412-1.0087-1.1204 4.6786-30.967-37.763-41.112-48.205-18.851-0.36996 0.7888-0.69106 0.88653-1.3647 0.36997-14.615-11.34-36.47-0.62824-33.516 17.94 0.17451 0.99821-0.0699 1.1832-0.98424 0.94934-13.47-3.5831-22.483 3.9154-24.687 12.239z"/>
   <path d="m216.62 187.91c15.132 13.913 10.983 39.61-6.9937 46.542 1.8219 11.278-3.6445 21.067-14.935 20.686l0.17451-1.7242c8.9392 0.13961 14.751-8.6561 13.224-18.999-0.10471-0.79926 0.0349-1.0087 0.65268-1.2809 16.118-6.8088 20.414-29.391 6.9319-43.932z"/>
   <path d="m88.116 288.65c4.9006 5.5285 14.283 6.304 19.565 1.0575 0.7155-0.70154 1.0226-0.72597 1.7486 0.0698 9.4561 10.417 31.25 7.9539 37.579-5.0975 0.34902-0.69107 0.60381-0.75041 1.2425-0.53051 18.875 6.5627 44.511-8.5944 45.976-30.967 0.20941-2.9562 1.2565-2.9178 1.2076 0.0349-0.50608 24.552-27.654 39.832-47.219 32.53-6.7969 14.702-29.452 16.819-39.696 5.3805-6.6489 6.3658-17.028 4.8144-21.904-1.082z"/>
   <path d="m37.831 280.36c9.1238 17.497 37.185 19.577 49.719 7.8677 2.0313-1.8952 2.8061-1.0575 0.86209 0.91096-13.704 13.901-43.193 10.589-51.849-7.7448z"/>
   <path d="m-12.511 238.3c-8.3849 14.098 1.6753 28.873 16.807 28.344 0.84813-0.0244 0.97377 0.13961 1.0331 1.0226 1.1448 14.972 19.799 21.548 32.222 12.116 2.0313-1.5392 2.6735-0.70154 0.7504 0.97378-12.694 11.007-33.367 4.568-34.488-12.46-16.991 0.4293-27.58-15.613-17.509-31.077z"/>
   <path d="m-12.706 238.91c-14.431-10.774-12.559-46.197 8.3727-56.134-3.1412-12.436 5.9222-25.758 19.368-24.428-0.94934-21.646 26.263-31.188 40.435-17.164 1.9336 1.9092 1.2809 2.6735-0.78879 0.91096-14.874-12.67-39.487-2.0453-37.985 17.053 0.06984 0.84813-0.24432 1.0331-0.97377 0.95981-13.999-1.5008-20.612 13.064-18.395 22.643 0.13961 0.57939 0.03487 0.87256-0.57937 1.1692-18.432 8.7053-22.249 42.504-8.7298 53.992 2.0557 1.7486 1.4519 2.6212-0.72596 0.99821"/>
   <path d="m50.993 138.79c2.7817-6.3903 10.663-7.3752 13.95-3.9523l-0.57938 2.0208c-3.6078-4.3338-10.072-1.232-12.067 2.9178z"/>
   <path d="m92.808 143.64c6.5505-12.411 25.241-14.283 35.732-3.9646l-1.7486 1.4659c-9.136-8.6069-26.633-9.5548-34.451 6.5501z"/>
   <path d="m210.3 232.84c21.806-2.0802 45.114-0.46769 69.161 7.2276 6.3902 2.0558 6.9937 2.8062 5.1959 7.1414-1.3298 3.2006-2.5618 5.5163-3.9398 7.4-2.7817 3.8291-3.0784 4.1248-8.7298 1.8219-9.0376-3.7059-38.736-15.329-62.918-16.807l0.0126-1.8359c25.844 1.5636 57.414 14.036 65.097 17.225 2.1779 0.91095 2.8829 1.1343 4.2724-0.79926 1.7381-2.4013 3.4728-5.2699 4.4082-7.8802 0.86208-2.3873 0.34902-3.0888-1.7346-3.7921-24.355-8.2987-50.261-10.035-72.374-7.757z"/>
   <path d="m209.15 240.57c13.839 1.9964 16.869 2.6596 30.634 6.2671 5.2699 1.3786 6.7351 1.8463 4.8019 6.7107-0.99822 2.499-2.4885 5.2821-4.1492 7.2154-1.958 2.2652-2.9318 2.328-6.1442 0.24432-7.7323-4.9373-17.854-9.9486-27.408-13.544l0.77483-1.5776c9.5918 3.6201 20.919 9.4686 28.123 13.987 1.6369 1.0226 2.0557 1.0226 3.2494-0.356 2.1046-2.4257 3.3506-4.4082 4.1495-7.1906 0.72596-2.499 0.31412-2.7328-2.314-3.5461-11.587-3.5709-17.509-4.7038-32.013-6.8461z"/>
   <path d="m206.42 248.23c8.5451 3.4728 17.509 8.3971 26.078 13.384 3.7677 2.2058 4.211 2.8934 2.4013 6.267-1.0959 2.0313-2.1186 3.2983-4.1 4.9128-2.1186 1.7486-3.3506 1.7242-5.4545-0.10471-6.6119-5.7749-18.371-14.381-25.734-19.011l1.8114-0.81322c7.4984 4.4452 18.174 12.534 24.983 18.149 1.2809 1.0471 1.8463 1.1588 2.9562 0.40487 1.7975-1.2181 3.2634-2.9074 4.3467-5.1959 0.66663-1.3682 0.45722-1.5392-0.83765-2.3384-8.4711-5.2081-18.863-10.774-27.408-14.234z"/>
   <path d="m197.5 254.09c7.6094 3.7677 14.985 9.3332 21.289 14.898 5.1222 4.5188 4.999 5.8978 1.602 7.8924-1.2914 0.7504-3.41 1.5881-5.0605 2.2058-3.1412 1.1588-3.4483 1.0715-6.1194-1.9092-4.568-5.0853-9.2836-10.491-15.773-15.366l0.54099-1.7102c6.5009 4.5184 11.918 10.675 16.905 16.228 1.2809 1.4415 1.7835 1.7346 3.2738 1.2076 1.2181-0.44326 3.9276-1.5636 5.2329-2.2547 1.7486-0.93538 1.9092-1.5008-0.54099-3.8661-5.8734-5.6887-15.502-12.46-22.988-16.622z"/>
   <path d="m192.72 263.37c8.4097 6.9567 16.302 16.745 21.313 24.281 2.3768 3.5705 2.6212 4.962 0.20941 6.8213-2.1674 1.6997-4.642 3.0295-7.9294 3.9031-2.869 0.77483-3.8417 0.24432-5.4667-2.7712-3.6201-6.7351-9.6288-18.37-13.347-23.997l1.1937-1.4659c3.8047 5.7498 10.121 17.509 14.184 25.118 0.55495 1.0331 1.1099 1.5636 2.2163 1.3542 3.1412-0.61428 6.0088-1.8847 8.2865-4.0016 0.99822-0.93538 0.51656-2.0697-0.27922-3.2634-5.4423-8.3109-13.31-17.546-21.153-24.268z"/>
  </g>
  <path d="m87.003 88.223c-3.8291-2.4501-8.2125-4.0508-11.931-5.5655-5.2085-2.1046-12.645-3.054-17.632 0.99821-2.2302 1.8114-2.8201 3.2878-1.0226 6.2426 1.4415 2.3768 4.6542 4.6417 9.4561 3.3611 4.1003 3.8661 17.287 3.6815 20.956-1.9336 2.7468-0.13961 2.2268-1.787 0.17452-3.1028" fill="#fff"/>
  <path d="m8.3637 242.97c-1.5636-2.3384-2.7573-1.958-2.2652 0.86209 1.0226 5.7379 1.9196 11.389 2.5967 17.029-3.225-6.4398-9.2959-12.103-13.618-13.852-1.8708-0.76436-2.7573 0.0122-1.2914 2.4013 3.0051 4.8514 5.5407 9.9611 7.7693 15.612-4.5062-4.0878-8.7912-6.3163-13.322-7.0674-1.4031-0.24432-1.8603 0.40486-0.53051 2.1046 4.285 5.4175 10.367 10.995 18.481 18.1 2.314 2.0453 3.8169 4.605 4.4078 7.1784 0.57938 2.5723 1.2809 4.3342 2.2163 6.5627 0.72596 1.6998 2.0069 2.3036 3.04-0.17451 6.6733-15.797 1.4903-35.301-7.4862-48.771" fill="#00b8ee"/>
  <path d="m122.91 262.32c-1.8219 5.0361-4.3342 8.5696-7.2646 12.386-0.0349-6.9197-0.93537-15.231-4.8266-19.639-1.1692-1.3298-1.8359-1.0226-1.8708 0.84812-0.13961 6.1561-0.57938 11.414-1.267 16.868-3.3366-4.1-6.8087-7.831-10.675-10.072-1.4764-0.86209-2.6596-0.38043-1.6369 1.7102 8.2003 16.782 11.623 24.823 12.017 36.36 0.13961 3.7551 2.3629 3.7185 4.605 0.86209 7.4122-9.4439 13.421-25.118 13.261-38.933-0.0248-2.8062-1.5287-2.6491-2.3384-0.39439" fill="#00b8ee"/>
  <path d="m6.4591 241.81c8.7175 14.689 13.273 38.095 7.5232 51.209-1.1832-0.89698-2.684-3.9523-3.2738-6.7103-0.58984-2.7573-1.1832-5.5038-4.3956-8.1263-8.7175-7.0799-19.307-17.287-19.233-19.75 4.6912 1.8847 11.783 6.1194 15.514 9.5548-2.1046-6.2056-6.6119-15.514-8.5081-18.235-0.6771-0.9598-0.9982-1.8952-0.93537-2.3629 3.6693 0.9598 12.559 10.478 15.883 17.115-0.13961-8.3113-3.9893-22.323-2.5723-22.692" fill="#00a0cf"/>
  <path d="m107.21 275.99c-3.0644-4.4574-7.474-9.062-11.845-12.892-1.417 0.70153 12.965 22.803 11.931 37.381-0.0698 1.0959 0.39439 2.8794 1.4031 3.1168 5.3558-4.9868 13.347-23.407 14.48-35.153 0.10471-1.1064-0.24432-1.1448-0.7888-0.24432-2.5374 4.2605-6.0206 7.3263-8.5818 8.7298 0.0699-6.7351-1.2809-16.647-4.3219-22.495-0.62824 0.38044-0.55496 13.113-2.2791 21.547" fill="#00a0cf"/>
  <path d="m66.719 91.385c3.9771-1.0087 8.2743-1.8708 12.251-2.1046 2.0453-0.13961 9.5179 1.4031 4.9128-2.8061 1.6369 0.87256 3.8169 2.2163 5.1097 3.5091-0.60381 4.9006-18.567 9.0254-22.827 3.2738-3.3506 1.3298-9.7395-0.82369-10.761-4.531 2.9667 2.8934 7.8432 3.5461 11.315 2.6596" fill="#dcdddd"/>
  <g fill="#0f141b">
   <path d="m58.01 83.891c-2.1779 1.3926-2.8201 3.3506-0.45373 6.4765 2.1186 2.8061 6.1194 2.9562 9.8623 1.8708 2.2896-0.66664 6.2178-1.5776 8.742-1.787 4.679-0.3944 8.3235 0.13961 11.217 0.10471 1.7381-0.02473 0.90048-0.83765 0.13961-1.3298-3.1761-2.0208-7.1414-4.1003-11.032-5.5533-9.8009-3.6323-13.569-2.9178-18.457 0.20942m-1.8359 6.7843c-2.7817-3.9893-1.773-6.1072 0.92491-7.794 6.7107-4.2232 11.266-3.8539 20.242-0.27921 4.1248 1.6509 7.326 3.2389 10.552 5.3927 3.7433 2.4885 2.0069 3.7803-0.75041 3.7433-3.5091-0.03487-6.9319-0.4293-11.291 0.13961-1.0471 0.1396-6.3533 1.1588-8.3109 1.7102-4.4078 1.2425-8.4959 1.2181-11.365-2.8934"/>
   <path d="m89.343 91.11c-2.7328 5.1467-18.999 8.2617-24.65 2.2652l1.5741-0.31412c4.9746 4.3586 18.445 1.6509 21.363-2.1919z"/>
   <path d="m8.8907 262.63c-2.9807-6.7595-9.6285-12.99-14-14.96-1.2181-0.55494-1.4415-0.0699-0.56542 1.3437 3.2738 5.1959 5.9226 10.589 8.2129 17.065 0.87256 2.4606-0.03487 2.7328-0.98424 0.38043-2.4013-5.91-5.1589-11.512-8.3479-16.671-1.9824-3.2005-0.41882-4.3708 2.1186-3.3995 4.3464 1.6614 9.8257 6.6363 13.199 12.867z"/>
   <path d="m1.8234 266.06c-4.6912-4.0878-9.0498-6.5627-13.335-7.4492-0.98424-0.20941-1.1692 0.0247-0.31412 1.0471 3.9279 4.6909 10.072 10.49 18.58 17.853 2.328 2.0209 3.9771 4.716 4.605 7.4862 0.57938 2.5234 1.2181 4.6298 2.2163 6.5135 0.62824 1.2076 1.0331 1.0715 1.5776-0.24431 6.9072-16.351 0.44326-36.237-7.3508-47.933-1.0471-1.5636-1.3682-1.4275-1.0087 0.4293 1.4275 7.511 2.0802 12.547 2.6351 18.555 0.27922 2.9562-0.71549 3.0784-1.0575 0.13961-0.70154-6.0088-1.6509-11.303-2.9178-18.481-0.66315-3.7185 1.3926-4.5436 3.5091-1.3682 8.2373 12.374 14.935 32.284 7.6586 49.51-1.1343 2.684-3.0051 2.9911-4.5314 0.13961-0.97377-1.8359-1.7835-4.0878-2.3768-6.6981-0.57938-2.5618-1.958-4.9373-4.1125-6.8213-8.5943-7.5354-14.357-12.941-18.469-18.272-1.7835-2.314-0.97377-3.6201 1.3193-3.2494 4.4818 0.75039 9.3332 3.41 12.756 6.6363z"/>
   <path d="m115.03 275.4c-0.0699-9.5915-1.588-16.339-4.7156-19.873-0.48165-0.541-0.70153-0.40487-0.7155 0.44326-0.10471 6.4765-0.61428 11.783-1.5392 17.964-0.44326 2.9423-1.417 2.8062-1.0471-0.13961 0.77483-6.3166 1.0959-11.623 1.2425-17.841 0.0699-2.9178 1.417-3.1761 3.054-1.3158 3.1517 3.5705 4.8388 10.072 4.9128 19.306z"/>
   <path d="m107.54 273.57c-3.4728-4.1988-6.8705-7.8432-10.823-10.244-1.0959-0.66314-1.3053-0.41883-0.67709 0.82369 8.3357 16.831 11.771 24.945 12.165 36.544 0.0698 2.5618 1.0331 3.0295 3.1656 0.31412 7.8925-10.047 13.323-25.611 13.175-38.293-0.0126-1.5497-0.48165-1.5392-0.98425-0.17452-1.9196 5.3069-4.6172 9.173-8.1141 13.273-1.6997 2.0069-2.4117 1.4659-0.83764-0.63871 3.4344-4.5802 5.7871-7.9661 7.6586-13.125 1.1692-3.2494 3.6201-3.225 3.6693 0.65267 0.13961 12.904-5.0483 29.317-13.384 39.499-3.2634 3.9893-5.873 2.8585-6.0084-1.3786-0.39439-11.389-3.7677-19.27-11.746-36.076-1.3193-2.7712 0.27922-3.9276 2.499-2.6351 3.9646 2.314 7.7078 6.2426 10.491 9.8009z"/>
  </g>
  <path d="m88.861 89.652c0.20941-3.5461 5.0975-7.8185 13.408-7.5846 8.0282 0.20941 12.448 4.8636 12.239 8.7298-0.20941 3.6567-5.2455 7.2398-12.522 7.2768-8.5696 0.02484-13.396-3.3367-13.125-8.4219" fill="#fff"/>
  <path d="m90.008 87.251c-1.4659 6.5627 24.576 5.5529 21.043-2.1535 7.9909 5.6269 1.2565 13.224-7.9912 13.175-9.3577-0.03487-16.622-4.8392-13.051-11.02" fill="#dcdddd"/>
  <path d="m102.16 82.545c-6.9445-0.20942-12.473 3.1761-12.682 7.0674-0.24431 4.4696 4.2232 7.5232 12.288 7.794 6.9937 0.24432 11.242-3.8661 11.414-7.0429 0.20941-3.6075-3.6323-7.5968-11.02-7.8185m0.24432-1.3158c7.7078 0.24431 12.436 4.3219 12.3 9.1238-0.10471 4.0508-5.2081 8.8774-13.334 8.6313-7.4862-0.20942-13.803-3.6815-13.483-9.5549 0.20941-3.9153 5.6025-8.4956 14.517-8.2003" fill="#0f141b"/>
 </g>
</svg>
