<?xml version="1.0" encoding="UTF-8"?>
<!-- Created with Inkscape (http://www.inkscape.org/) -->
<svg version="1.1" viewBox="0 0 137.08 158.71" xmlns="http://www.w3.org/2000/svg">
 <defs>
  <clipPath id="clipPath16064">
   <path d="m0 792h612v-792h-612z"/>
  </clipPath>
 </defs>
 <g transform="translate(-8.4468 -7.7435)">
  <g transform="matrix(2.7335 0 0 -2.7335 -757.96 1268.9)">
   <g clip-path="url(#clipPath16064)">
    <g transform="translate(299.1 460.13)">
     <path d="m0 0c-5.79-1.914-9.883-5.388-11.463-7.757-0.862-1.292-0.828-2.251-0.546-2.614 0.403-0.519 1.701-0.372 3.684 0.132 2.854 0.723 5.639 0.162 7.596-1.967 3.297-3.586 3.719-9.97 1.444-16.556-1.784-5.166-4.55-9.084-7.935-10.43-2.301-0.915-6.273-0.165-8.38 1.761-0.909 0.831-2.16 1.805-2.709 1.446-0.474-0.311-0.911-2.136 0.903-7.105 2.769-7.585 9.47-12.713 17.897-13.597 8.343-0.875 20.027 2.466 26.842 14.606 4.181 7.448 5.257 17.704 2.763 26.052-1.956 6.55-6.302 11.903-11.5 14.6-5.582 2.896-12.228 3.534-18.596 1.429" fill="#061922"/>
    </g>
    <g transform="translate(288.04 450.6)">
     <path d="m0 0c-0.136 0.175-0.05 0.567 0.243 1.103 2.638 4.836 16.052 13.051 28.96 6.354 5.073-2.632 8.922-7.614 10.839-14.029 2.455-8.219 1.424-17.878-2.692-25.208-6.692-11.921-17.816-15.251-25.996-14.393-8.218 0.863-14.638 5.878-16.953 13.027-2.497 7.713 0.07 5.096 0.574 4.661 0.487-0.42 0.947-0.817 1.333-1.019 2.674-1.397 5.271-1.612 7.719-0.639 3.523 1.4 6.721 5.405 8.554 10.712 2.336 6.762 1.633 13.539-1.791 17.264-2.091 2.274-4.92 3.102-7.967 2.329-1.635-0.415-2.585-0.469-2.823-0.162" fill="#cdc09e"/>
    </g>
    <g transform="translate(322.97 446.12)">
     <path d="m0 0c-0.856 1.183-2.354 2.828-3.138 3.576-0.373 0.356 6e-3 0.663 0.339 0.723 1.095 0.196 2.862-1.551 3.346-3.729-0.957 4.311-3.506 5.174-4.214 4.147-2e-3 3e-3 -3e-3 8e-3 -7e-3 0.01-8.727 6.936-22.013 7.493-30.083-0.433 0.676 0.14 2.01 0.345 2.826 0.364 2.666 0.064 5.264-0.686 6.792-2.348 3.424-3.725 4.127-10.501 1.791-17.264-1.834-5.306-5.031-9.311-8.554-10.712-2.448-0.973-5.045-0.758-7.719 0.64-0.386 0.201-0.846 0.598-1.333 1.018-0.047 0.041-0.112 0.1-0.19 0.169 0.363-5.578 13.429-21.05 28.385-16.206 5.253 2.053 10.417 6.04 14.18 12.742 1.808 3.22 3.02 6.889 3.603 10.688-0.05 4.577-1.335 11.062-5.23 16.515-0.014 0.02-0.045-0.284-0.073-0.307-0.034 0.578-0.201 1.182-0.201 1.182 0.203-0.963-0.291-1.092-0.52-0.775" fill="#aaa084"/>
    </g>
    <g transform="translate(290.86 450.62)">
     <path d="m0 0 0.097-0.237c2.941 0.746 5.677-0.081 7.707-2.331 3.34-3.702 3.964-10.28 1.59-16.757-2.334-6.368-5.365-10.077-9.01-11.024-4.108-1.067-7.597 1.807-7.982 2.138l-0.212-0.077c-0.176-1.054 1.399-3.201 3.515-4.634 1.625-1.1 7.891-4.494 14.336-0.575 4.979 3.028 8.137 7.672 9.324 12.917 1.257 5.554 0.147 11.858-3.271 17.083-4.089 6.248-12.502 6.035-16.094 3.497" fill="#061922"/>
    </g>
    <g transform="translate(306.13 446.97)">
     <path d="m0 0c3.381-5.167 4.609-11.277 3.368-16.763-1.171-5.175-4.39-9.491-9.307-12.482-6.314-3.838-12-0.618-13.593 0.46-2.033 1.377-3.192 2.952-3.283 3.85 0.914-0.72 4.192-3.001 7.997-2.012 3.731 0.969 7.099 4.771 9.464 11.222 2.406 6.567 1.485 13.209-1.917 16.981-1.875 2.078-4.335 2.975-7.006 2.592 4.016 1.847 10.554 1.842 14.277-3.848" fill="#cdc09e"/>
    </g>
    <g transform="translate(309.5 430.21)">
     <path d="m0 0c1.241 5.485 0.014 11.595-3.368 16.763-3.722 5.69-10.26 5.695-14.277 3.848 2.671 0.383 5.131-0.514 7.006-2.592 3.403-3.772 4.324-10.415 1.917-16.981-0.408-1.113-0.846-2.144-1.311-3.099 3.416-2.252 4.413-5.391 4.79-7.279 2.647 2.602 4.434 5.766 5.243 9.34" fill="#aaa084"/>
    </g>
    <g transform="translate(309.7 429.53)">
     <path d="m0 0c-1.042-5.127 0.863-10.161 4.406-10.96 3.486-0.789 7.34 2.563 8.458 8.064v1e-3c1.041 5.127-0.81 10.238-4.353 11.039-3.229 0.729-7.315-2.256-8.511-8.144" fill="#061922"/>
    </g>
    <g transform="translate(314.34 419.26)">
     <path d="m0 0c-3.288 0.743-5.158 5.309-4.168 10.18 0.594 2.925 2.128 5.435 4.105 6.714 1.187 0.768 2.446 1.032 3.639 0.763 2.691-0.608 4.433-3.78 4.433-7.583 0-0.841-0.086-1.714-0.265-2.597-0.595-2.926-2.13-5.436-4.106-6.715-1.188-0.768-2.446-1.032-3.638-0.762" fill="#322216"/>
    </g>
    <g transform="translate(310.76 430.19)">
     <path d="m0 0c-0.62-2.617-0.018-4.928 1.67-5.474 1.11-0.36 3.353 0.894 4.01 3.672 0.604 2.55-0.041 5.264-1.519 5.743-1.523 0.492-3.36-0.558-4.161-3.941" fill="#061922"/>
    </g>
    <g transform="translate(312.58 425.11)">
     <path d="M 0,0 C -1.354,0.438 -1.989,2.765 -1.415,5.187 -1.044,6.752 -0.226,8.055 0.723,8.589 1.175,8.844 1.636,8.907 2.056,8.771 3.409,8.333 4.044,6.005 3.471,3.583 3.1,2.018 2.28,0.715 1.332,0.182 0.88,-0.073 0.419,-0.135 0,0" fill="#ef5b7e"/>
    </g>
    <g transform="translate(290.59 436.37)">
     <path d="m0 0-0.14-0.032-0.113-1.648 19.891-5.319 0.57 2.176-0.249 0.119c-0.55 0.253-13.558 6.188-19.959 4.704" fill="#322216"/>
    </g>
    <g transform="translate(310.25 431.37)">
     <path d="m0 0c-0.047-0.232-0.284-1.387-0.346-1.689-0.388 0.107-18.859 5.209-19.156 5.291 0.015 0.214 0.057 0.827 0.071 1.036 5.973 1.266 17.999-3.996 19.431-4.638" fill="#322216"/>
    </g>
    <g transform="translate(309.77 429.85)">
     <path d="m0 0c-7.496 3.558-17.282 5.844-19.97 5.193-0.27-0.065-0.342-0.428-0.044-0.7 1.052-0.965 3.327-3.652 11.085-6.792 2.137-0.865 5.438-0.415 9.053 1.554 0.412 0.224 0.388 0.502-0.124 0.745" fill="#061922"/>
    </g>
    <g transform="translate(309.48 429.56)">
     <path d="m0 0c-3.548-1.911-6.738-1.874-8.78-1.047-6.511 2.635-9.622 5.452-10.43 6.26 2.003 0.287 11.877-1.774 19.21-5.213" fill="#cdc09e"/>
    </g>
    <g transform="translate(300.7 428.51)">
     <path d="m0 0c1.513-0.613 3.657-0.789 6.109-0.063-5.835 3.567-12.258 5.178-15.783 5.627 1.412-1.216 4.446-3.448 9.674-5.564" fill="#aaa084"/>
    </g>
    <g transform="translate(301.74 438.95)">
     <path d="m0 0c-8.265-0.461-11.638-1.983-12.121-2.198-0.395-0.175 0.465-1.566 0.782-1.416 2.924 1.383 16.009-2.451 19.761-4.589 0.232-0.132 0.42 0.155 0.657 0.885-1.402 2.935-5.786 6.207-8.838 7.258z" fill="#061922"/>
    </g>
    <g transform="translate(301.62 438.35)">
     <path d="m0 0c2.254-0.787 6.933-3.761 8.674-6.587 0.084-0.137-0.162-0.45-0.237-0.438-4.289 2.353-15.668 5.595-19.558 4.598-0.022 0.013-0.176 0.456-0.219 0.482 0.996 0.451 4.561 1.562 11.34 1.945" fill="#cdc09e"/>
    </g>
    <g transform="translate(290.31 436.42)">
     <path d="m0 0c-0.012-5e-3 -0.025-0.011-0.036-0.016 0.043-0.025 0.198-0.468 0.219-0.482 3.89 0.998 15.27-2.244 19.558-4.598 0.06-9e-3 0.223 0.184 0.249 0.333-5.848 3.514-15.781 5.725-19.99 4.763" fill="#aaa084"/>
    </g>
    <g transform="translate(319.83 451.37)">
     <path d="m0 0c-0.285-0.104-0.517-0.311-0.656-0.562-0.187-0.339-0.073-0.361 0.139-0.135 0.134 0.144 0.275 0.253 0.436 0.312 1.107 0.405 2.651-1.046 3.44-3.204 0.286-0.782 0.459-1.972 0.455-2.311s0.144-0.344 0.194 4e-3c0.05 0.347-0.126 1.782-0.419 2.583-0.827 2.259-2.381 3.755-3.589 3.313" fill="#061922"/>
    </g>
    <g transform="translate(318.99 446.25)">
     <path d="m0 0c0.555-1.518 1.415-2.817 2.386-3.268 0.431-0.2 0.906-0.271 1.27-0.138 0.296 0.109 0.71 0.513 0.769 0.74s-0.029 0.281-0.164 0.102c-0.136-0.179-0.406-0.39-0.66-0.483-0.319-0.117-0.633-0.07-1.022 0.11-0.926 0.431-1.781 1.594-2.319 3.065-0.402 1.098-0.507 2.814-0.474 3.078 0.032 0.263-0.112 0.297-0.191 0.031-0.08-0.265-8e-3 -2.109 0.405-3.237" fill="#061922"/>
    </g>
    <g transform="translate(299.29 413.94)">
     <path d="m0 0c-1.019-0.185-2.069-1.288-2.264-2.375-0.155-0.869 0.248-1.739 1.043-1.682 0.31 0.021 0.299 0.14 0.044 0.188-0.59 0.114-0.956 0.76-0.82 1.521 0.181 1.01 1.1 1.939 2.049 2.07 0.391 0.055 0.848-0.107 0.991-0.26 0.144-0.152 0.31-0.18 0.129 0.145-0.113 0.206-0.565 0.504-1.172 0.393" fill="#061922"/>
    </g>
    <g transform="translate(299.21 410.22)">
     <path d="m0 0c-0.448-0.281-0.102-0.272 0.083-0.175 0.939 0.491 1.539 1.593 1.584 2.036s-0.067 0.453-0.191 0.034c-0.123-0.419-0.841-1.496-1.476-1.895" fill="#061922"/>
    </g>
    <g transform="translate(309.18 415.21)">
     <path d="m0 0c-1.019-0.185-2.264-1.111-3.119-2.347-0.447-0.645-0.831-1.678-0.926-2.067-0.096-0.39 0.027-0.459 0.186-0.052 0.16 0.407 0.505 1.331 0.94 1.958 0.827 1.196 1.944 2.048 2.914 2.224 0.43 0.078 0.922-0.02 1.099-0.186 0.176-0.165 0.293-0.067 0.11 0.16s-0.722 0.397-1.204 0.31" fill="#061922"/>
    </g>
    <g transform="translate(304.97 409.45)">
     <path d="m0 0c0.035-0.595 0.187-1.202 0.587-1.479 0.311-0.216 0.955-0.221 1.25-0.138 0.296 0.083 0.229 0.218-0.027 0.192-0.257-0.027-0.748 8e-3 -1.022 0.197-0.351 0.243-0.547 0.718-0.595 1.241-0.047 0.523-0.214 0.333-0.193-0.013" fill="#061922"/>
    </g>
    <g transform="translate(309.77 410.26)">
     <path d="m0 0c-0.489-0.706-1.389-1.556-1.697-1.703-0.308-0.146-0.077-0.254 0.106-0.161 0.469 0.236 1.375 1.029 1.877 1.755 0.463 0.667 0.803 1.621 0.858 2.08 0.053 0.459-0.1 0.439-0.188 0.05-0.09-0.391-0.506-1.373-0.956-2.021" fill="#061922"/>
    </g>
    <g transform="translate(318.78 415.07)">
     <path d="m0 0c-1.243-1.534-1.959-3.308-1.822-4.279 0.044-0.307 0.228-0.484 0.442-0.608 0.213-0.123 0.263 0.068 0.145 0.2s-0.26 0.296-0.296 0.548c-0.128 0.906 0.588 2.504 1.78 3.975 1.566 1.931 3.533 3.113 4.296 2.581 0.295-0.205 0.342-0.623 0.304-0.931-0.024-0.198 0.128-0.311 0.193-0.015 0.066 0.296 0 1.002-0.293 1.207-0.873 0.607-3.065-0.602-4.749-2.678" fill="#061922"/>
    </g>
    <g transform="translate(313.88 429.3)">
     <path d="m0 0c-0.312-1.129-0.749-1.879-1.169-1.75-0.347 0.107-0.181 0.748 0.219 2.19 0.366 1.328 0.633 2.267 1.012 2.135 0.364-0.127 0.378-0.984-0.062-2.575" fill="#061922"/>
    </g>
    <g transform="translate(290.29 435.47)">
     <path d="m0 0c-0.014-0.232 0-0.424 0.014-0.506l0.451 0.082s-0.027 0.287 0 0.533z" fill="#061922"/>
    </g>
    <g transform="translate(319.83 451.37)">
     <path d="m0 0c-0.285-0.104-0.517-0.311-0.656-0.562-0.187-0.339-0.073-0.361 0.139-0.135 0.134 0.144 0.275 0.253 0.436 0.312 1.107 0.405 2.651-1.046 3.44-3.204 0.286-0.782 0.459-1.972 0.455-2.311s0.144-0.344 0.194 4e-3c0.05 0.347-0.126 1.782-0.419 2.583-0.827 2.259-2.381 3.755-3.589 3.313" fill="#061922"/>
    </g>
   </g>
  </g>
 </g>
</svg>
