<?xml version="1.0" encoding="UTF-8"?>
<svg version="1.1" viewBox="0 0 293.06 299.6" xmlns="http://www.w3.org/2000/svg">
 <g transform="translate(.096774 -.15)">
  <path d="m210 204.8q1 1.25 4.65 8.4 3.75 7.25 5.1 9.05v0.05l0.05 0.1q0.9 1.85 4.45 6.15l2.65 3.4q1.1 1.6 1.25 2.6 0.55 4.3 2.1 11.55 0.35 1.4 0.25 2.8-0.15 1.8-1.05 2.3-1.05 0.55-8.45-3.35-5.7-2.95-9.9-5.6l-11.1-7.75-10.15-7.1q-1.25-0.7-2.95-8.2-1.95-8.55-2.8-10.15-0.6-1.15-0.15-2.45 1.4-3.55 10.7-6.95l0.4-0.15 0.35 0.3q3.7 3.5 8.95 3.8 5 0.3 5.65 1.2" fill="#0d131a"/>
  <path d="m209.35 207.3 4.1 7.5q3.45 6.3 4.95 8.4 1 1.95 4.6 6.35 3.4 4.25 3.55 5.2 0.6 4.9 2.15 11.7l0.05 0.4q0 0.95-1 1.5-0.65 0.35-6.55-2.75l-7.65-4q-1.25-0.55-10.7-7.65-9.35-7.05-10.65-7.55-1.4-0.55-3.5-8-2.5-8.85-3.15-10.1l-0.2-0.6 0.15-0.5q0.6-1.6 4-3.5 2.45-1.35 5.3-2.4 4.45 3.6 9.65 4.5 4.45 0.75 4.9 1.5" fill="#ffee7d"/>
  <path d="m203.6 234.5q-10.25-7.65-11.4-8.1-1.4-0.55-3.5-8-2.5-8.85-3.15-10.1l-0.2-0.6 0.15-0.5q0.55-1.45 3.5-3.15 2.15-1.3 4.95-2.4 3.55 6.1 14.5 18.95 9.9 11.55 10.7 14 1 2.95-5.25-2.1-7.45-5.95-8.05-6-2.05-0.15-2.5 2.9-0.3 2.35 0.25 5.1" fill="#dccd6c"/>
  <path d="m215.05 215.35 3.35 6.05q3.65 6.85 5.35 11.6 1.85 5.15 0.25 6.2-0.95 0.6-2.8-0.25-1.7-0.75-3.25-2.3-1.5-1.45-9.1-7-7.5-5.45-8.95-6.9-1.4-1.35-4.65-7.5t-4.9-7.8l0.7-1.95q1.6 1.6 4.95 8.3 3.2 6.45 4.75 7.7l17.7 13.8q2.95 2.3 3.9 1.05 0.85-1.1-0.25-4.05-1.6-4.4-4.7-10.1l-4.2-7.75q-1.3-2.8 0.15-1.2l1.7 2.1" fill="#0d131a"/>
  <path d="m229.65 138.9q0.85-0.15 8.25 2.3 8.1 2.75 15.7 2.7l7.6 0.45 5 0.5 3.8-0.3 6-0.15q2.15 0.1 7.95 2.5 5.75 2.35 7.35 3.75 1.45 1.25 1.65 2.35 0.1 0.75-0.4 1.8-0.65 1.25-6.3 1.9l-7.2 0.45q-6.7 0-17.65 4.1-8.1 3-11.95 5.3-2.85 1.7-7.65 3.55-5.7 2.2-8 1.95l-2.9-0.9-3.9-1.35q-5.45-1.65-13.45-1.65l-0.35-1.2-0.25-0.25q-0.8-0.95-0.2-16.8l-0.15-1.25q11.95-8.75 17.05-9.75" fill="#0d131a"/>
  <path d="m228.35 141.65q1.15-0.5 5.8 0.9l6.8 2.05 5.55 0.55 7 0.35 12.7 0.95 3.2-0.3 5.5 0.3q5.65 1.6 8.45 2.7 6.25 2.35 6.9 4.35 0.35 1.15-4 1.7l-7.2 0.35q-6.9 0-17.95 4.05-8.3 3.05-12.45 5.55-2.3 1.4-7.95 3-5.7 1.7-7.8 1.5-1.15-0.1-5.45-1.4-9.2-2.75-13.25-2.9l-0.1-3.35 0.25-11.6 6.55-4.25q6.25-4 7.45-4.5" fill="#ffee7d"/>
  <path d="m214.35 150.4 3.55-2.3q7.95 1.05 17.9 3.6l11.35 3q-4.15 2.5-6 4.05-3.1 2.7-1.35 4.05 3 1.9 7.9 2.85-2.95 1.4-7.85 2.75-5.05 1.45-6.95 1.25-1.15-0.1-5.45-1.4-9.2-2.75-13.25-2.9l-0.1-3.35 0.25-11.6" fill="#dccd6c"/>
  <g fill="#0d131a">
   <path d="m240.3 157.55-7.1-0.8-10-1.5-4.7-1.3-1.8-0.55-0.15-0.8 10.7 1.7 12.3 1.95q2.15 0 12.9-3.7 10.45-3.65 12.3-4.8 0.6-0.35 0.5-0.85-0.1-0.45-0.4-0.55l0.2-0.8 2.45 0.7q1.55 0.95-2.35 2.2l-12.15 4.85q-10.7 4.25-12.7 4.25"/>
   <path d="m215.3 163.6q2.85-0.6 12.5 0.85 10.5 1.6 12.85 3.8l-0.3 0.7q-3.25-1.4-13.1-3.2-9.8-1.8-11.75-1.35l-0.2-0.8"/>
   <path d="m99.2 180.8q0.25-0.2 1.6 0.85l2.35 1.95q2.45 1.75 4.7 6.25 2.35 4.75 1.55 7.15l-0.75 2.25q-0.5 1-2.15 2.35l-5.55 4.25q-3.75 2.95-5.1 5.1l-5.1 8.15q-2.85 3.4-7.3 2.95-2.5-0.25-8.6 1.7-5.25 1.6-10.9 4.05-4.6 2.05-11.05 4l-3.8 1.15-3-0.1q-0.55-1 2.15-3.9l6.9-7 2.15-2.2q2.45-2.6 5-7.9 1.85-3.6 3-5.3 2-2.85 4.65-4.65 2.9-2 10.05-8.5 5.7-5.15 7.2-5.35 9.45-1.2 12-5.9v-1.35"/>
  </g>
  <path d="m101.2 184.55q0.25-0.25 1 0.35 2.1 1.5 4.2 5.6 2.1 4.15 1.5 6-0.35 1-1.75 2.35l-3.2 2.65-4.35 3.75q-2.55 2.4-4.1 4.8-3.7 5.85-5.7 7.65-2.8 2.5-6.7 2.1-2.65-0.25-8.05 1.65-3.4 1.2-10.4 4.3-8.2 3.6-11.2 4.5l-2.5 0.4q0.25-1.3 6.35-7.55l2.15-2.25q1.65-1.7 3.05-4.05l2.25-4.2q1.8-3.55 2.85-5.1 1.8-2.65 4.25-4.3l10.8-8.45q6.45-5.15 8.25-5.1 4.35 0.15 11.3-5.1" fill="#ffee7d"/>
  <path d="m107.9 196.5q-0.35 1-1.75 2.35l-3.2 2.65-4.35 3.75q-2.55 2.4-4.1 4.8l-0.05 0.1q-1.25-1.95-4.6-3.7-3.5-1.85-4.5-0.6-1.85 2.15-14 10.35l-10.7 1.95q1.45-2.1 3.1-5.55 1.8-3.55 2.85-5.1 1.8-2.65 4.25-4.3l10.8-8.45q6.45-5.15 8.25-5.1 4.35 0.15 11.3-5.1 0.25-0.25 1 0.35 2.1 1.5 4.2 5.6 2.1 4.15 1.5 6" fill="#dccd6c"/>
  <path d="m123.25 203.75 34.5 9.65 0.95 3.1q0.6 2.6-0.35 3.5l-5.3 4.1-4.45 3.3 2.05 6.25q1.95 6.1 1.6 7.95-0.6 2.95-15.4 28.65-0.3 0.55-2.35 11.05l-1.3 7.85-1.05 5.6q-0.7 2.15-2 3.6-1.25 1.4-2.45 1.4-0.75 0-3.3-3.5-2.45-3.35-3.1-5-0.55-1.2-0.35-13.6l0.25-13.2-1.65-17.1q-1.55-14.25-1.35-16.35 0.3-2.75 1.95-6.1 1.55-3.1 2.7-3.95l-2.45-5.4q-1.45-3.5-1.45-5.4 0-0.9 2.15-3.75l2.15-2.65" fill="#0d131a"/>
  <path d="m156.45 217q-0.15 1.9-0.9 2.7l-4.65 3.4q-3.8 2.85-3.9 4.25-0.05 0.9 1.45 7.2 1.4 5.95 1 7.55l-0.3 1.1 0.3-1q0 1.8-5.9 12.85l-8.05 14.4q-0.35 0.6-2.3 9.8-1.9 9.05-2.15 11.4-0.3 2.35-1.65 4-1.45 1.75-2.55 0.65l-2.45-2.7q-1.3-1.95-1.55-4.4-0.2-2.25 0.2-11.55l0.45-9.85q0-3.1-1.55-18.7l-1.55-15.25q0-4.95 2.35-7.5l2.45-1.65 0.1-2.2-3.75-9.65q0-0.7 1.15-3.35 0.9-2.05 1.35-2.85l32.25 8.55q0.25 1.3 0.15 2.8" fill="#ffee7d"/>
  <path d="m156.45 217q-0.15 1.9-0.9 2.7l-4.65 3.4q-3.8 2.85-3.9 4.25-0.05 0.65 0.35 2.5-2.4-0.8-4.65-0.75-2.75 0.05-3.45 1.45-1.7 4.95-2.75 13.15-0.85 6.95-0.85 12.65-4.05 2.3-6.75 15.75-2 10.1-2.65 22.6-3-2.9-3.4-6.5-0.2-2.25 0.2-11.55l0.45-9.85q0-3.1-1.55-18.7l-1.55-15.25q0-4.95 2.35-7.5l2.45-1.65 0.1-2.2-3.75-9.65q0-0.7 1.15-3.35 0.9-2.05 1.35-2.85l32.25 8.55q0.25 1.3 0.15 2.8" fill="#dccd6c"/>
  <g fill="#0d131a">
   <path d="m145.55 212.95h0.8q0 1.6-7.5 12.25-0.9 1.3-0.7 2.3 0.1 0.55 1.15 2.4 1.2 2.1-0.75 0.35-1.2-1.3-1.95-2.6-0.55-1-0.35-1.85 0.25-0.95 1.5-2.45 7.8-9.7 7.8-10.4"/>
   <path d="m136.45 245.65q0.1-3.05 0.9-3.5 0.8-0.4 0.45 3.3l-1.15 11.55q-0.5 8.1 0.8 10.5l-1.75 3.05q-1.35-2.5-0.5-12.5l1.25-12.4"/>
   <path d="m123.95 221.3q-0.8-1.7-1.4-4.15-0.6-2.55 1.25 1 2.7 5.2 3.3 7.3 1.1 3.85 0.2 8.8l-0.8-0.05q0.2-3.15-0.9-7.65-0.85-3.65-1.65-5.25"/>
   <path d="m200.15 110.25q19 19 19 44.95 0 26-18.55 44.7-18.6 18.75-44.55 18.75-12.75 0-24.8-5.15-11.65-4.95-20.8-13.85-9.2-9-14.35-20.4-5.3-11.9-5.3-24.6 0-25.9 19.2-44.7 19.1-18.75 45.15-18.75 25.95 0 45 19.05"/>
  </g>
  <path d="m216.75 155.45q0 25.3-17.95 43.25t-43.25 17.95-43.25-17.95-17.95-43.25 17.95-43.25 43.25-17.95 43.25 17.95 17.95 43.25" fill="#ef821e"/>
  <path d="m94.35 155.45q0-16.65 8.45-30.95 8.15-13.85 22.1-21.95-7.85 20.55-6.05 40.85 1.75 19.7 12.05 34.25 10.6 15 27.65 20.65 18.35 6.1 40.65 0-8.5 8.7-19.6 13.45-11.5 4.9-24.05 4.9-25.3 0-43.25-17.95t-17.95-43.25" fill="#ce7117"/>
  <path d="m98.05 159.75 2.15 2.9q1.85 3.2 0.6 4.55-2 2.2-3.55 2.5-1.55 0.95-8.2 1.05-1.45-0.2-2.55-4-0.65-2.25-0.95-4.65l12.5-2.35" fill="#0d131a"/>
  <path d="m87.3 162.7 10.35-1.3 0.05 0.1 1.15 2.85q0.65 1.75 0.35 2.25-0.5 0.85-2.8 1.7l-2.5 0.2-2.8-0.15q-1.1 0.15-1.85-0.35-0.75-0.55-0.85-1.45l-0.5-2.05-0.6-1.8" fill="#dccd6c"/>
  <path d="m60.6 137.9q4.95-1 14.3 2.65 9.4 3.7 9.7 3.65 4.8-0.9 8.35-2.4l3.15 3.6q3.5 4.7 5.05 10.2 1.7 6.15-0.25 8.1-1.75 1.7-6.85 0.15-1.85-0.55-8.75 2.45l-10.4 4.85q-2.35 1.1-3.95 1.05-1.3-0.05-4.05-1.05-11.4-4.1-35-7.05l-24.45-2.25q-3.05-0.1-5.8-3.65-2.85-3.6-1.05-5.65 1.45-1.65 7.75-3.35l11.45-3q4.5-1.4 20-4.35l20.8-3.95" fill="#0d131a"/>
  <path d="m34.55 146.65 19 0.45q27.2 0.1 29.55-0.35l9.45-2.05q1.65 1.25 3.15 3.3 2.6 3.45 3.9 8 0.4 1.45 0.4 3.9 0.05 2.35-0.25 2.65-1.05 1.05-5.25-0.25-2.35-0.65-6.7 0.75-2.55 0.85-8.3 3.45-1.55 0.75-4.2 2.65-2.25 1.35-4.15 0.7-11.6-3.9-33.55-7.4-19.25-3-28.2-3.2-2.25-0.05-4.05-1.7-1.05-1-2.4-3.15-0.8-1.35 5.65-3.45l12.05-3.35q4.4-1.15 13.9-0.95" fill="#ffee7d"/>
  <path d="m5.95 151.9 34.55 5.7q22.2 3.85 27.15 3.2 8.75-1.1 13.95-2.95 8.3-3 14.5-9.3 2.3 3.2 3.5 7.45 0.4 1.45 0.4 3.9 0.05 2.35-0.25 2.65-1.05 1.05-5.25-0.25-2.35-0.65-6.7 0.75-2.55 0.85-8.3 3.45-1.55 0.75-4.2 2.65-2.25 1.35-4.15 0.7-11.6-3.9-33.55-7.4-19.25-3-28.2-3.2-2.25-0.05-4.05-1.7-1.05-1-2.4-3.15-0.6-1 3-2.5" fill="#dccd6c"/>
  <path d="m64.15 138.8 8.15 2.45q7.9 2.4 10.05 3.3 2.25 0.95 2.75 1.45 0.45 0.45 0.35 1.6-0.1 1.95-4.65 3.8-5.3 1.8-7 2.65l-5.15 2.6q-2.9 1.35-4.35 1.5-1.1 0.1-5.25-1.45-5.95-2.15-10.8-3.4l-8.5-2.05-5.05-0.5-5.15-0.25-5.4-0.45q-2.15-0.3-2.75-1.2-0.6-0.8 0.3-1.9l1-0.9 41.45-7.25" fill="#0d131a"/>
  <path d="m60.25 139.9q3.1-0.35 10.1 1.75 4.7 1.4 8.85 3.1 3.3 1.4 3.9 1.85 1.65 1.25-0.55 2.6-1.8 1.1-5.8 2.25-4.05 1.2-5.2 1.85l-3.9 2q-2.2 0.85-4.45 0.6l-6.15-1.45-8.55-2.45-8.9-2.05-7.25-0.9h-5.85q-3.05-0.05-3.55-1.1-0.5-1.1 1.15-1.5l4.15-0.6 15.4-2.95 16.6-3" fill="#ffee7d"/>
  <path d="m28.25 145.85 5.4-1q5.35 3.05 19.75 5.4 12.95 2.1 15.25 4.6-2.75 1.35-5.45 1.05l-6.15-1.45-8.55-2.45-8.9-2.05-7.25-0.9h-5.85q-3.05-0.05-3.55-1.1-0.5-1.1 1.15-1.5l4.15-0.6" fill="#dccd6c"/>
  <path d="m183.35 206.6q2.8 0.4 3.5 0.85 0.75 0.45 0.3 3.15-0.45 2.45-1.05 3.4-0.65 0.95-2.85 2.05-2.3 1.15-3.25 0.85-1.4-0.5-4.25-2.7-0.3-0.05-0.5-0.25-0.35-0.35 0.45-0.95l2.15-2.4q1.3-1.7 1.55-2.65 0.2-0.8 0.8-1.3l0.5-0.35 2.65 0.3" fill="#0d131a"/>
  <path d="m181.6 208 2.1-0.2q1.9 0.2 2.15 0.6 0.3 0.45-1.1 4.7-0.35 1-2.35 1.55l-2.55 0.3q-0.45-0.15-2.4-1.5 2.75-2.95 4.15-5.45" fill="#dccd6c"/>
  <path d="m207.85 120.35 0.85 0.05q8.1 0.2 9.65 1.35 0.5 0.5 0.5 1.05 0.15 1.45-2.3 5.4l-2.95 4.25q-1 1.05-2 0.35-1.15-1.1-1.85-1.5l-1.45-1.05q-0.45-0.5-0.45-1.35v-8.55" fill="#0d131a"/>
  <path d="m209.5 122.05q6.5 0.3 7.75 0.95 0 0.85-1.7 3.55-1.7 2.65-2.55 3.25l-2.05-0.1q-1.25-0.65-1.45-1.6-0.2-0.75-0.1-3l0.1-3.05" fill="#ffee7d"/>
  <path d="m252.4 86.4 3.7 0.5q2.1 0.35 2.25 1.35 0.1 0.95-1.2 2.3l-3.25 2.45q-3.85 2.1-8.35 6.2-5.45 4.9-10.35 11.4l-2.15 2.65-2.4 1.95-7.6 4.75-5.85 3.55q-2.3 1-4.55 1.6-4.6 1.3-4.6-0.4t-3.8-6.65l-3.85-4.65 1.45-6.75 7.15-0.9q2.85-0.5 2.9-1.3 0.25-1.7 2.6-5.05 1.95-2.7 3.9-4.65 2.05-2 14.75-5.6 13.85-4 19.25-2.75" fill="#0d131a"/>
  <path d="m252.05 92.05q-4.65 2.5-18.95 17.55l-1.2 1.4-1.65 1.55q-1.4 1.2-13.6 9.35l-3.4 1.55q-3.25 1.15-3.85-0.45-0.6-1.55-3.75-5.65l-3.4-4.3 1.5-4.6 6.75-1q4.3-1.1 4.55-3.05 0.15-1.25 1.85-4.35 1.6-2.9 2.75-4.2 1.35-1.6 13.65-5 13.2-3.65 18-2.55 3.3 0.75 3.45 1.45 0.05 0.75-2.7 2.3" fill="#ffee7d"/>
  <path d="m219.65 95.85q0.4-0.5 3.45-1.7l7.15-2.45q-7.35 5.75-13.4 16.3-1.55 2.6-5.6 5.15-4.75 3.05-5.7 4.05l-3.3-4.15 1.5-4.6 6.75-1q4.3-1.1 4.55-3.05 0.15-1.25 1.85-4.35 1.6-2.9 2.75-4.2" fill="#dccd6c"/>
  <path d="m205.4 105.1q1.3 3.05 1 4.6l-0.05 0.2-0.75 5.2q-0.5 2.65-1.55 3.1-1.7 0.65-6.3-2.8l-0.2-0.2-0.05-0.25q-0.75-2.8-2.45-6.45-1.95-4.05-3.05-4.45l4-1.7q4.3-1.55 6.05-1.1 1.85 0.5 3.35 3.85" fill="#0d131a"/>
  <path d="m202.55 115.85-1.6-0.35-1.95-1.25q-2.05-6.8-4.05-8.9l3.85-1.45 3.4-0.1q0.9 0.8 1.8 2.9l0.85 2.6-0.05 0.1v0.2q-1.15 5.8-2.25 6.25" fill="#ffee7d"/>
  <path d="m200.8 103.45q0.7 2.3-0.15 4.65l-2.25 4.25q-1.65-5.1-3.45-7l2.85-1.05q1.95-0.75 3-0.85" fill="#dccd6c"/>
  <path d="m162.45 4.05q0-2.8 1.1-3.65l3.35-0.25q4.8 0.9 7.15 3 1.9 1.7 1.6 3.5-0.9 4.8-0.45 11.7 0.25 3.35 2.8 11.85 2.45 8.3 4.5 12.9 1.5 3.3 0.45 9.5l-2.1 9.95-0.45 3.05q-0.35 4.55 2.1 11.45 2.25 6.3 1.9 7.3-0.45 1.25-2.95 4.65-2.6 3.55-3.4 5.4-1 2.45-1.05 4.2 0 1.65 0.85 3.2 0.95 1.7 0.95 2.2-0.05 0.7-1.5 1l-5.05 0.6-3.5 0.3-1.7-0.35-7.3-8.3q-2.55-2.9-6.25-3.5l-6.75 0.4-2.5-1.6q4-1.8 6.55-6.5 2.5-4.75 1.7-9.05-0.4-2.2-1.5-3.75l-2.05-2.15-2.1-1.6q-1.2-1-1.3-2.25-0.15-1.35 0.9-4.25l2.25-5.8 2.35-5.65q1.4-3.4 1.75-5.45 0.6-3.35 4.85-19.2l3.25-14.05q1.55-7.4 1.55-8.8" fill="#0d131a"/>
  <path d="m165 4.2q0.7-0.6 2.7-0.6 1.35 0 3.2 0.95 1.85 0.9 2.7 2 0.65 0.8 0.35 2.75l-0.5 3.85q0 3 0.15 5.3 0.25 3.85 2.05 11.25 1.9 8 3.85 12.3 1.1 2.55 1.1 7.15 0 5.15-1.35 13.15l-0.45 3.1-0.05 1.4q0 5.05 3.05 17.55-4.45 6.55-6 10.2-0.75 1.85-0.75 4.2 0 1.75 0.5 4l-7.85 1.05-6.75-7.6q-4.05-4.75-11.15-4.1 2.25-2.1 3.45-5.4 1.15-3.1 1.15-6.6l-0.3-3.4q-0.5-2.55-1.75-4.35-0.8-1.1-2.35-2.45l-1.35-1.35q-0.6-0.7-0.65-1.6v-0.25q0-1.75 2.75-8.9 3.05-7.85 3.65-11.4 0.45-2.5 4.8-19.05 5-18.5 5-20.55 0-1.95 0.8-2.6" fill="#ffee7d"/>
  <path d="m164.15 47.25q0.95 7.75 0.35 10.75-1.45 7.15-1.75 10.7-0.85 9.7 1.75 15.35 1.2 2.8 5.4 1.9 6-1.35 6.9-1.2l4.1 0.9q-3.9 6.05-5.1 8.9-0.75 1.85-0.75 4.2 0 1.75 0.5 4l-7.85 1.05-6.75-7.6q-4.05-4.75-11.15-4.1 2.25-2.1 3.45-5.4 1.15-3.1 1.15-6.6l-0.3-3.4q-0.5-2.55-1.75-4.35-0.8-1.1-2.35-2.45l-1.35-1.35q-0.6-0.7-0.65-1.6v-0.25q0-1.75 2.75-8.9 3.05-7.85 3.65-11.4 0.45-2.5 4.8-19.05 5-18.5 5-20.55 0-1.95 0.8-2.6 0.7-0.6 2.7-0.6 1 0 2.35 0.55l-2.35 14.1-2.55 13.9q-1.95 7.7-1 15.1" fill="#dccd6c"/>
  <path d="m180.9 87.95q-2.25 3.65-3.2 5.9-0.9 2.15-0.9 6 0 1.95 0.15 3.45l0.15 0.5-8.9 1.15-0.9 0.05q-0.9-1.35-1.65-3.35l-1.15-3.45q-0.85-1.8-0.45-3.75 0.4-1.75 2.1-4.7l5.2-7.8q1.9-2.1 6.65-1.1 2.35 0.55 4.35 1.45l0.75 2.25-0.1 0.15-2.1 3.25" fill="#0d131a"/>
  <path d="m175.45 98.75q0 1.95 0.6 4.35l-7.45 1q-2.65-4.05-3.35-6.2-0.35-0.65-0.35-1.55 0-1.25 0.8-3.1l1.7-3.35q3.45-6.4 7.15-7.5 3.05-0.95 7.6 1.6l0.1 0.4-2.7 4.2q-2.4 3.9-3.35 6.1-0.75 1.75-0.75 4.05" fill="#dccd6c"/>
  <path d="m172.2 40.1q3.3-5.2 5.95-4.65l0.85 1.5q-2.35-0.45-5.95 4.45-2.85 3.95-5.25 9.2l-1.85 5.4q-1.9 5.8-2.3 7.85-0.3 1.7-0.5 4.7-0.1 1.8-0.5 1.85l-0.5 0.25-0.65-0.05q-2.1-2-5.7-11.15l-3.15-8.75 0.5-2.2q7.8 18.1 8.7 19.7l1.45-6.55q1.45-6.45 2.2-7.95l1.6-3.45q3.2-7.15 5.1-10.15" fill="#0d131a"/>
  <path d="m82.15 75.1q6.65 4.4 10.4 4.8l5.15 0.05q3.5 0.3 4.25 2.45l3.1 7.25q3.5 7.9 5.2 10.95 1.65 2.9 5.15 5.7l3.15 2.25 0.75 0.45-0.5 0.75q0.7 0.75-1.3 2.6l-3.7 3.3q-1.4 1.4-7 3.7l-5.3 2-3.9-8.2q-1.5-2.9-10.75-5.05l-3.75-1.05q-0.95-0.5-1.75-2.4-1.1-2.8-3.65-7.7-3.2-6.05-5.85-9.7l-3.95-5.6-4.75-6.55q-2.45-3.35-2.75-4.7-0.5-2.4 0.45-5.45 1.05-3.2 2.9-4 1.15-0.5 2.8 0.95l2.5 2.75q2.1 2.55 3.95 3.9l9.15 6.55" fill="#0d131a"/>
  <path d="m104.05 91.8 4.8 9.6q2.5 4.45 8.1 8.05l-4.3 5.05q-1 1-4.25 1.95l-4.95 1.1q-3.05-3.45-4.5-6.2-0.85-1.75-3.7-2.9l-4.55-1.4q-3.75-1.15-5.55-2.05-1-0.5-4.5-6.65-4.55-8-7.5-12.05l-3.9-5.6q-6.1-8.85-6.6-11.1l-0.15-1.1q0-1.55 0.85-2.95 0.75-1.3 1.85-1.75 0.45-0.2 1 0.25l1.6 1.7q2.4 2.75 4.3 4.1l11.5 8.2q6.6 4.25 10.25 4.1l4.7-0.1q0.9 0.15 1.8 1.95l3.7 7.8" fill="#ffee7d"/>
  <path d="m64.55 64.2q6.05 7.85 16.15 16l15.4 11.5q-1.6 4.15 3.5 11.45l9.65 13.05-5.8 1.35q-3.05-3.45-4.5-6.2-0.85-1.75-3.7-2.9l-4.55-1.4q-3.75-1.15-5.55-2.05-1-0.5-4.5-6.65-4.55-8-7.5-12.05l-3.9-5.6q-6.1-8.85-6.6-11.1l-0.15-1.1q0-1.3 0.6-2.5 0.55-1.15 1.45-1.8" fill="#dccd6c"/>
  <path d="m93.5 91.45q2 0.85 5.6-0.8 1.25-0.6 2.4-1.95l1.1-1.75 0.6 1.35q-0.55 1.55-3.45 3.6-3.65 2.5-6.6 1.2-14.3-6.15-24.1-17.1-3.1-3.45-5.3-6.9l-1.65-2.85 0.35-1.95 1.65 2.85q2.25 3.55 5.35 7 9.75 11 24.05 17.3" fill="#0d131a"/>
  <path d="m123.95 99.25q2.05 0.3 3.2 4.15 1 3.3 0.65 5.1-0.3 1.4-1.9 2.75-1.55 1.25-2.55 1.25-1.15 0-5.6-2.55l-0.1-0.05-5.65-5.3-0.85-1.3q0.65-2.15 3.1-3.25 1.75-0.8 3.55-0.8l1.9-0.15 4.25 0.15" fill="#0d131a"/>
  <path d="m123.35 110.9q-0.65 0.05-2.05-0.75l-2.7-1.55-4.7-4.45q0.65-1.6 2.05-2.55 1.05-0.7 1.85-0.7l2.35-0.2 3.3 0.2q0.85 0.35 1.85 3.45 0.9 2.75 0.9 3.7v0.15q-0.15 0.8-1.1 1.75-1 0.9-1.75 0.95" fill="#ffee7d"/>
  <g fill="#0d131a">
   <path d="m60.75 167.3q4.7-1.85 11.2-1.55 5.1 0.2 7.5 1.25l-0.35 0.75-8.9-0.5-9.1 0.8-0.35-0.75"/>
   <path d="m100.25 194 4.55-2.8 0.35 0.7q-0.45 0.25-1.25 1.05l-1.85 1.6q-2.8 1.85-10.4 4.9-7.1 2.85-7.85 3.5-0.7 0.6-5.4 6.75-4.8 6.3-6.8 8.15-2.5 2.25-4 4.15-1.45 1.9-1.45 2.75v0.05l-1.2 1q-1.15 0.8-1.2 0.55-0.15-1.3 3.1-5.35 2.7-3.4 4.9-5.45 2.05-1.85 5.85-7.25 3.95-5.7 5.1-6.85 1.45-1.45 8-3.6 7.25-2.35 9.55-3.85"/>
   <path d="m253.4 88.05 0.85 0.75q-3.05-0.5-13.8 5.55-8.45 4.75-13.5 8.5l-7.15 5q-5.5 3.6-6.6 3.8l-1.6 0.05q-0.3-0.3-0.1-1.5l0.95-4.3q0.35-1.75 2.7-5.35 2.35-3.5 1.35 0.35-0.8 3.1-2.7 6.8-1.3 2.45-0.85 2.45 0.7-0.05 6.9-4.2l7.65-5.25 10.85-6.75q11.4-6.5 15.05-5.9"/>
   <path d="m175.2 127.4 4.15-0.1q3.65 0.1 4.05 0.85l2.35 5.4q2.2 5.6 1.65 6.9l-2.1 4.1-2.25 3.35q-0.75 0.6-4.1 1.25l-4.05-0.1q-0.4-0.65-1.15-3.9l-1-4.1q-0.25-0.55 0-1.6 0.1-0.6 0.75-2.65l0.85-4.6 0.25-3.7q-0.05-0.95 0.05-1l0.55-0.1"/>
  </g>
  <path d="m177.4 128.75h2.45l2.15 0.2 2.4 5.7q1.5 3.9 1.5 5v0.2l-1.95 3.7-2.05 3.15-3.1 0.45-2.85-0.2-1.7-6.5v-0.1q0-0.65 0.8-3.05 1.45-4.8 1.45-6.9 0-1.75 0.9-1.65" fill="#ffee7d"/>
  <path d="m176.55 129.65q1.95 6.8 2.15 9.3 0.5 5.25-2.35 8.15l-0.4-0.15-1.7-6.5v-0.1q0-0.65 0.8-3.05 1.45-4.8 1.45-6.9l0.05-0.75" fill="#dccd6c"/>
  <path d="m173.05 165.2q5-0.95 6.85-0.15 1.3 0.6 1.55 2.55l1.6 6.2q1.3 4.95 0.7 6.4-1.2 2.95-7.3 8.75l-1.2 0.8-1.25 0.05-6.15-0.8-1-0.3q-0.45-0.25-0.15-1 0.85-1.75 2.75-9 2.3-8.65 2.05-12.05-0.1-1.3 0.4-1.45h1.15" fill="#0d131a"/>
  <path d="m178.6 166.6q0.9 0 1.3 1.5 2.55 7.3 2.55 10.2l-0.2 1.3q-1.1 2.75-7.45 8.3h-3.1q-2.7-0.05-2.95-0.6-0.1-0.25 2.15-7.1 2.45-7.55 2.45-11.2v-1.35q0.15-0.9 0.75-0.95l4.5-0.1" fill="#ffee7d"/>
  <path d="m173.8 166.8q1.55 11.2 0.75 14.45-0.6 2.35-5.15 6.45l-0.65-0.4q-0.1-0.25 2.15-7.1 2.45-7.55 2.45-11.2v-1.15q0.05-0.85 0.45-1.05" fill="#dccd6c"/>
  <path d="m161.8 211.1-1.3 0.2-2.9-0.35q-1.4-0.5-2.1-1.1l-0.7-0.8q-0.15-0.4 0.35-0.95l8.6-9.1q1-0.9 3.6-0.05 2.65 0.8 2.65 2.2l0.25 3 0.05 3.4q-0.2 1.65-2.8 2.5l-5.7 1.05" fill="#0d131a"/>
  <path d="m157 208.5 7.1-7.85q3.65 0.25 4.35 0.95 0.4 2 0.4 3.75l-0.15 2q-0.15 1.4-7.05 2.15l-1.45 0.2q-0.9 0.2-3.2-1.2" fill="#dccd6c"/>
  <g fill="#0d131a">
   <path d="m146.15 110.15 4.35-0.25q2.8 0.8 3.8 3.75 0.65 1.95 0.2 1.85-0.5-0.15-0.95-1.5-0.4-1.3-2.55-2.4-2.4-1.2-4.65-0.7l-1.65 0.15q-0.2-0.2 1.45-0.9"/>
   <path d="m142.45 115.25q-0.55-1-0.2-1.4 0.3-0.35 0.85 0.95 0.65 1.5 3.45 2.6 3.1 1.25 6.15 0.6l1.35 0.05q0.15 0.3-1.05 0.7-4.55 1.55-7.7-0.4-1.8-1.1-2.85-3.1"/>
   <path d="m188.15 197 4.65 0.1q0.7 0.5 0.25 0.6l-0.9-0.1-1.95-0.1q-1.4 0.4-2.7 1.5-1.25 1-1.65 2.05-0.4 1.1-0.8 1.1-0.35 0 0-1.2 0.75-2.65 3.1-3.95"/>
   <path d="m190.45 202.15q0.8-0.55 1.1-1.5 0.25-0.75 0.65-0.9 0.4-0.2 0.15 1-0.75 3.4-5.7 3.1-1.1-0.05-0.95-0.45 0.2-0.35 1.15-0.35 2.25 0 3.6-0.9"/>
   <path d="m100.8 178.65q0 0.95-0.35 1.1t-0.45-1q-0.15-1.05 0.2-1.75 0.25-0.5 0.65-0.65 0.75-0.3 1.95 0.6 1.25 0.9 1.6 2.15 0.5 1.7-0.5 0.1-1.35-2.2-2.7-1.85-0.4 0.2-0.4 1.3"/>
   <path d="m105.5 183.6q0-0.9 0.35-1.25 0.3-0.4 0.45 1.2 0.15 1.65-0.1 2.3-0.2 0.5-0.85 0.7-0.85 0.3-1.85-0.45-0.85-0.7-1.6-2-0.7-1.2-0.5-1.45t1.15 1q1.6 2.15 2.3 1.9 0.55-0.2 0.65-1.95"/>
   <path d="m178.55 140.1q6.45 1.4 8.15-0.75l0.6 0.55q-2.15 2.65-4.75 2.35l-4.3-1.4q-0.65-0.2-0.65-0.6t0.95-0.15"/>
   <path d="m175.1 181.65 4.2 0.35q2.1 0 2.85-1l0.25 1q-0.95 1.35-3.5 1.25-1.95-0.05-3.95-0.8l-1.8-0.8q-0.15-0.2 1.95 0"/>
   <path d="m162.35 206.8 3.3 0.85q1.7 0.15 3.85-0.65l-0.75 1.15q-4.1 1.55-6.75-0.65l-1.15-1.05q-0.05-0.25 1.5 0.35"/>
   <path d="m139.65 133 2.85 1.45q-2.05 4.1-5.8 24.1-4.2 22.4-4.25 35.45l-3.2-2.3q0.05-13.15 4.25-34.6 3.75-19.3 6.15-24.1"/>
   <path d="m121.7 137.85 0.75 1.9q4.7 11.8 9.4 20.7 8.9 16.75 19.65 27.85l-2.2 2.05q-11-11.35-20-28.35-4.7-8.9-9.5-21l-0.25-1.2 2.15-1.95"/>
   <path d="m156.6 145.55 1.65 2.55q-4.45 2.9-22.25 15.85-17.65 12.9-21.5 16.05l-1.5-2.7q3.9-3.2 21.45-15.95 17.4-12.65 22.15-15.8"/>
   <path d="m202.8 141.45 3.2-0.25q1.15 9.95-1.3 26.15-2.9 19.35-9.1 26.9l-3.95 0.15q5.65-6.95 9.1-26.45 3.1-17.3 2.05-26.5"/>
   <path d="m182.15 186.45q8.25-3.9 20.1-19 9.85-12.55 12.65-19.1l1.3 1.45q-3.3 7.65-12.4 19.85-11.3 15.1-19.9 19.2l-1.75-2.4"/>
   <path d="m198.95 168.35q-5.65-12.5-10-19.2l2.05-1.8q4.35 6.65 10 19.35 6.2 13.9 6.65 19.6l-2 1.45q-0.4-5.45-6.7-19.4"/>
   <path d="m133.05 141.85q3.15-0.4 6.3 0.55 3.2 0.9 5.9 3.05 3.55 2.75 5.85 7t2.95 9.25q1.15 9.15-3.35 16.35-4.5 7.15-12 8.1-7.55 1-13.7-4.85-6.15-5.8-7.3-15-0.65-5 0.5-9.7 1.2-4.7 3.95-8.25 2.1-2.75 4.95-4.4 2.8-1.7 5.95-2.1"/>
  </g>
  <path d="m134 160q2-0.25 3.65 1.05 2.25 1.8 2.65 4.9t-1.35 5.4q-1.35 1.65-3.3 1.95-1.95 0.25-3.65-1.1-2.25-1.75-2.65-4.85-0.4-3.2 1.35-5.4 1.35-1.7 3.3-1.95" fill="#e50012"/>
  <path d="m200.45 187q-4.35 1.55-8.05-0.4-4.9-2.6-6.1-9.85-1.25-7.3 1.95-15 1.95-4.7 5.05-8.1 3.15-3.4 6.7-4.65 4.3-1.6 8.05 0.4 4.9 2.6 6.1 9.85 1.25 7.3-1.95 14.95-1.95 4.7-5.05 8.1-3.15 3.4-6.7 4.7" fill="#0d131a"/>
  <path d="m201.4 176.05-2.45-0.1q-1.5-0.8-1.9-2.95-0.35-2.2 0.6-4.5 1.25-2.95 3.6-3.85l2.45 0.15q1.5 0.75 1.9 2.95 0.35 2.2-0.6 4.5-1.3 3-3.6 3.8" fill="#e50012"/>
  <path d="m87.9 141.95 4.35-3.5q3.2-2.4 3.75-1.4l5.7 9.85q2.2 1.8 3.5 3.85 0.2 0.35-0.2 2-0.4 1.7-0.95 2.3l-1.95 1.55q-1.35 0.7-2.3 0.25l-7.4-3.95-1.05-0.8q-1.8-1.3-3.2-5.2-1.45-4-0.25-4.95" fill="#0d131a"/>
  <path d="m95.45 139.25 2.05 4q1.6 3.5 2.3 4.3l2.45 2.05q1.5 1.2 1.55 2 0.1 1.25-1.3 2.55-1.55 1.45-3.05 0.45-1.1-0.7-3.55-1.75-2.25-0.95-3.2-1.65-1.25-1-2.3-4.15-1.05-2.9-0.85-3.95 0.2-0.95 2.75-2.75t3.15-1.1" fill="#ffee7d"/>
  <path d="m95.35 139.2 0.1 0.05 2.05 4q1.6 3.5 2.3 4.3l2.45 2.05q1.5 1.2 1.55 2 0.1 1.25-1.3 2.55-1.55 1.45-3.05 0.45-1-0.7-2.95-1.5l-2.85-1.3q2.05-2.5 2.55-6 0.45-3.55-0.85-6.6" fill="#dccd6c"/>
  <path d="m133.35 144.25q5.55-0.7 10.4 3.1 3.2 2.5 5.25 6.3 2.1 3.85 2.65 8.35 0.4 3.05 0.1 6.55-19.95-5-31-11.75 0.5-1.7 1.45-3.7 1-2.15 1.85-3.25 3.8-4.85 9.3-5.6" fill="#ffee7d"/>
  <path d="m120.1 166-0.2-2.2q7.45 4.25 15.1 7 6.9 2.45 15.05 4.05-1.8 3.45-4.95 5.9-3.25 2.55-6.7 3-6.55 0.85-11.9-4.35-5.4-5.2-6.4-13.4" fill="#ffee7d"/>
  <path d="m122.2 153.1q1-2.15 1.85-3.25 2.4-3 5.35-4.4-1.25 8.25 0.8 16.05-5.5-2.3-9.45-4.7 0.5-1.7 1.45-3.7" fill="#dccd6c"/>
  <path d="m120.1 166-0.2-2.2q6.65 3.8 13.75 6.5l3.7 6.3q2.4 3.3 5.95 5.35-2.45 1.5-4.9 1.8-6.55 0.85-11.9-4.35-5.4-5.2-6.4-13.4" fill="#dccd6c"/>
  <path d="m199.5 168.3q-8.9 2.7-11.5 2.25 0.8-4.85 2.05-8.05 1.8-4.3 4.6-7.4 2.85-3.1 6.05-4.25 3.5-1.3 6.4 0.25 4.95 2.65 5.4 11-3.25 3.2-13 6.2" fill="#ffee7d"/>
  <path d="m199.75 185.1q-3.5 1.3-6.4-0.25-4.2-2.15-5.15-8.55 12.05-0.8 23.65-7.55l-1.45 4.7q-1.8 4.35-4.65 7.45-2.8 3.05-6 4.2" fill="#ffee7d"/>
  <path d="m190.95 160.6q-0.9 4.85-0.2 9.75l-2.75 0.2q0.8-4.85 2.05-8.05l0.9-1.9" fill="#dccd6c"/>
  <path d="m188.2 176.3 3.85-0.45q1.8 5.35 5.35 9.8-2.3 0.15-4.05-0.8-4.2-2.15-5.15-8.55" fill="#dccd6c"/>
  <path d="m107.1 193.8q1.9-0.75 5.05 1.25 0.6 0.35 4 3.05l1.5 1.25 0.4 1.35q0.1 1.05-1.15 2.1l-2.75 1.6q-1.75 0.75-6.15 0.8-4.95 0.05-6.35-1.35-1.45-1.45 0.85-5.35 2.2-3.8 4.6-4.7" fill="#0d131a"/>
  <path d="m111.3 196.9q3.6 1.85 4.05 2.75 1 1.95-2.7 3.4l-4.9 0.35q-3.05-0.4-3.95-1.55-0.75-1 1.2-3.7l2.4-2.8q0.35-0.3 3.9 1.55" fill="#dccd6c"/>
  <path d="m106.85 115.05q4.5-0.15 6.35 0.8 1.5 0.75 1.75 2.35 0.2 1.25-0.45 2.75-0.6 1.3-1.6 2.3-1.2 1.25-4.05 2.2l-4.75 1.3-3.1 0.05q-0.95-0.45-1.55-1.95t-0.1-4.65q0.5-3.25 1.75-4.05 1.35-0.95 5.75-1.1" fill="#0d131a"/>
  <path d="m106.85 116.65q4.1-0.1 5.6 0.65 0.8 0.35 0.95 1.15v0.35q0 1.7-1.65 3.35-1.45 1.45-4.15 1.4-5.55 1.65-5.85 0.75-0.25-0.9-0.25-3.75 0-2.6 0.5-3.1 1-0.65 4.85-0.8" fill="#dccd6c"/>
  <g fill="#0d131a">
   <path d="m119.1 164.4v-1.2q4.2 2.5 12.45 5.7 10.45 4.05 19.1 5.7l-0.25 1.25q-19.5-3.65-31.3-11.45"/>
   <path d="m120.3 157.15 0.35-1.5q4.1 2.45 13.05 5.9 10.35 4.05 18.75 5.95l-0.5 1.45q-8.4-1.85-18.7-5.9-8.65-3.4-12.95-5.9"/>
   <path d="m187.55 169.55q4.6-0.15 11.3-2.1 8.7-2.5 14.25-6.65l0.5 1.1q-5.65 4.2-14.65 6.85-6.9 2-11.55 2.15l0.15-1.35"/>
   <path d="m187.8 175.75q5.25-0.2 11.4-1.95 7.6-2.25 13.9-6.3l-0.55 1.7q-6.4 4.1-13.6 6.1-5.55 1.55-11.05 1.75l-0.1-1.3"/>
  </g>
 </g>
</svg>
