<?xml version="1.0" encoding="UTF-8" standalone="no"?>
<svg
   version="1.1"
   viewBox="0 0 378.65 363.39"
   id="svg546"
   sodipodi:docname="356.svg"
   inkscape:version="1.2.2 (b0a8486, 2022-12-01)"
   xmlns:inkscape="http://www.inkscape.org/namespaces/inkscape"
   xmlns:sodipodi="http://sodipodi.sourceforge.net/DTD/sodipodi-0.dtd"
   xmlns="http://www.w3.org/2000/svg"
   xmlns:svg="http://www.w3.org/2000/svg">
  <defs
     id="defs550" />
  <sodipodi:namedview
     id="namedview548"
     pagecolor="#505050"
     bordercolor="#eeeeee"
     borderopacity="1"
     inkscape:showpageshadow="0"
     inkscape:pageopacity="0"
     inkscape:pagecheckerboard="0"
     inkscape:deskcolor="#505050"
     showgrid="false"
     showguides="false"
     inkscape:zoom="1.2988799"
     inkscape:cx="189.7789"
     inkscape:cy="200.17247"
     inkscape:window-width="1331"
     inkscape:window-height="656"
     inkscape:window-x="75"
     inkscape:window-y="113"
     inkscape:window-maximized="0"
     inkscape:current-layer="svg546" />
  <path
     d="m 84.658333,226.39 q 11.5,2.7 13.25,10.5 2.05,9.25 -11.15,23 -24.6,25.65 -38.25,37.9 -6,5.4 -10,4.1 -1.6,-0.55 -7.15,-5.85 -7.1,12.9 -11.8,11.85 -3.1,-0.75 -8.65,-10.7 -3.5499997,-6.3 -7.1499997,-15.15 l -2.9,-7.65 18.9499997,5.65 q 5.3,-12.45 6.8,-15.4 0.95,-1.9 3.55,-0.75 1.65,0.75 6.25,3.7 1.15,-5.1 3.7,-11.5 l 8.15,-19.6 q 2.8,-6.7 14.6,-9.7 11.3,-2.9 21.8,-0.4"
     fill="#e4e2d9"
     id="path402" />
  <path
     d="m 96.458333,233.44 q 6.249997,9.75 -9.7,26.45 -24.6,25.65 -38.25,37.9 -6,5.4 -10,4.1 -1.6,-0.55 -7.15,-5.85 -6.25,11.35 -10.5,11.9 -3.35,0.4 -7.5,-6.45 0.35,-0.5 2.05,0.2 1.65,0.65 2.55,-0.9 l 3.75,-7.5 q 2.75,-5.65 3.55,-6.3 0.7,-0.55 4.85,2.5 4.8,3.45 6.35,3.8 4.15,0.95 17.7,-24.7 9.9,-18.75 20.7,-43.3 16.35,0 21.6,8.15"
     fill="#c0bfb8"
     id="path404" />
  <path
     d="m 82.708333,284.59 q -0.8,-7.6 2.45,-19.7 2.8,-10.65 5.25,-13.9 l 75.799997,38.6 q 1.3,7.4 0.75,15.5 l -0.75,6.65 4.7,5.3 5.6,-1.2 -3.55,5.05 h 7.1 l -3.4,3.6 q -4.1,4.2 -7.8,7.3 -5.1,4.3 -18.7,7.75 -15.8,3.95 -33.5,3.75 -16.6,-0.2 -23.899997,-5 -2.65,-1.75 -4.5,-4.35 l -2.6,-4.2 q -2.05,-3.15 0.5,-9.6 l 3.35,-6.95 q 0.2,-0.55 -2.7,-10.65 -3.4,-11.65 -4.1,-17.95"
     fill="#89887f"
     id="path406" />
  <path
     d="m 124.95833,287.64 q -8.1,-13.85 -25.799997,-32.2 l 67.049997,34.15 q 1.3,7.4 0.75,15.5 l -0.75,6.65 4.7,5.3 5.6,-1.2 -3.55,5.05 h 7.1 l -3.4,3.6 q -4.1,4.2 -7.8,7.3 -3.65,3.05 -12.4,5.95 -9.85,3.2 -21.85,4.6 -2.7,-5.3 -3.95,-10.7 -1.45,-6.05 -0.1,-8.9 6.6,-14.15 -5.6,-35.1"
     fill="#727069"
     id="path408" />
  <path
     d="m 287.00833,29.99 q -1.75,1.55 -4.7,3.05 -5.85,3 -11.6,2.6 l -15.65,-2.65 q -9.7,-1.8 -12.8,-0.6 l -9.2,4.7 q -5.9,3.05 -8.55,2.7 l -13.4,-2 -13.55,-0.65 4,3.15 q 3.05,2.45 3.95,4.25 0.45,0.85 -3.9,4.45 l -4.45,3.45 -60.65,1.85 -6.15,-3 q -3.9,-1.9 -3.9,-2.6 0,-0.75 4.75,-5.95 l 4.7,-5.05 q -2.95,-1.3 -5.8,-2.95 -5.7,-3.25 -5.15,-4.75 0.4,-1.1 4.6,-5.25 4.85,-4.9 10.55,-9.4 16.45,-13 27.8,-13.75 11.45,-0.75 23.7,3 6,1.85 14.5,5.85 l 11.6,5.6 q 7.8,3.45 10.05,2.7 1.8,-0.55 9.3,-3.8 7.6,-2.3 12.6,0.85 l 14.4,9 q 9.05,5.25 12.85,5.8 3.7,0.55 7.3,0.05 l 2.8,-0.65"
     fill="#e4e2d9"
     id="path410" />
  <path
     d="m 353.05833,256.04 q 2.65,2.65 12.75,24 l 4.9,-7.25 q 5.15,-7.45 6.65,-8.15 0.4,2.75 -2.9,17.5 -3.05,13.55 -4.2,16.55 -1,2.45 -4.6,0.5 -4.05,-2.1 -9.05,-8.8 -0.9,7.1 -3.65,14 -4.05,10 -8.8,7.35 -4.15,-2.3 -12.35,-8.5 -11.1,-8.35 -21.45,-18 -30.4,-28.25 -42.6,-56.15 -6.75,-15.4 -5.6,-26.45 1,-9.75 7.65,-13.7 6.25,-3.75 14.45,-0.7 8.6,3.15 14.9,12.4 17.85,26.25 25.45,38.5 12.85,20.7 15.4,29.95 2.8,-6.25 6.85,-10.5 4.3,-4.45 6.2,-2.55"
     fill="#e4e2d9"
     id="path412" />
  <path
     d="m 284.20833,30.64 2.8,-0.65 q -1.75,1.55 -4.7,3.05 -5.85,3 -11.6,2.6 l -15.65,-2.65 q -9.7,-1.8 -12.8,-0.6 l -9.2,4.7 q -5.9,3.05 -8.55,2.7 l -13.4,-2 -13.55,-0.65 4,3.15 q 3.05,2.45 3.95,4.25 0.45,0.85 -3.9,4.45 l -4.45,3.45 -61.6,2.3 q -9.15,-6.75 11.2,-15.3 5,-2.1 13.9,-5.25 5.85,-2.25 3.75,-2.75 -4.05,-0.95 -11.75,0.05 -9.75,1.3 -15.4,5.35 -2.85,-0.95 -4.8,-2.95 -2.65,-2.75 0.1,-5.05 4.2,-3.45 13.2,-7.8 11,-5.35 19.6,-6.7 8.3,-1.3 28.1,2.65 7.3,1.45 32.6,7.55 3.45,0.85 13.65,-3.7 9.65,-4.3 11.85,-3 l 12.4,7.05 q 9.6,5.2 12.95,5.7 3.7,0.55 7.3,0.05"
     fill="#c0bfb8"
     id="path414" />
  <path
     d="m 327.60833,277.54 q 4.25,4.75 8.35,8.15 5.4,4.5 9.25,5.4 2.9,0.7 6.4,-15.9 1.65,-7.95 2.45,-10.3 1.4,-4 2.8,-1.95 4.2,6.15 11.1,21.9 l 2.05,-4.7 q 2.25,-4.8 3.1,-5.3 1.35,-0.85 1.6,6.15 l -4.45,17.7 q -1,2.45 -4.6,0.5 -4.05,-2.1 -9.05,-8.8 -0.9,7.1 -3.65,14 -4.05,10 -8.8,7.35 -4.15,-2.3 -12.35,-8.5 -11.1,-8.35 -21.45,-18 -30.4,-28.25 -42.6,-56.15 -6.2,-14.1 -5.75,-24.65 0.45,-9.3 5.8,-14 l 28.4,43.95 q 19.9,30.3 31.4,43.15"
     fill="#c0bfb8"
     id="path416" />
  <path
     d="m 162.90833,46.34 q 18.5,-0.85 33.95,5.2 22.4,14.05 40.8,48.15 20.5,38 30.15,91.05 8.5,46.5 -21.65,71.4 -11.4,9.4 -28.85,16.1 -11.4,4.4 -29.4,8.8 -25.95,6.35 -54.25,-3.25 -26.75,-9.05 -39.549997,-26.35 -10.95,-14.75 -11.4,-61.4 -0.15,-17.85 1.4,-33 1.55,-14.7 3.7,-17.6 5.15,-26.2 19.499997,-53.4 14.15,-26.85 28.2,-37.8 9.1,-7.05 27.4,-7.9"
     fill="#89887f"
     id="path418" />
  <path
     d="m 164.40833,46.14 q 7.3,-0.1 18.2,1.9 9.65,1.75 14.25,3.5 22.4,14.05 40.8,48.15 20.5,38 30.15,91.05 8.5,46.5 -21.65,71.4 -11.4,9.4 -28.85,16.1 -11.4,4.4 -29.4,8.8 -10.75,2.65 -23,2.4 7.8,-3.1 14.8,-17.6 6.3,-13.05 10.2,-31.55 3.85,-17.95 3.85,-33.2 0.05,-16.2 -4.35,-22.5 -23.9,-5.85 -54.7,-2.2 -28.5,3.4 -52.749997,13.5 0.1,-8.6 1.05,-20.75 0.85,-11.2 1.8,-17.75 97.149997,-26.1 104.549997,-31.15 2.65,-1.8 2.35,-11.7 -0.35,-9.85 -3.5,-22.5 -8,-31.9 -23.8,-45.9"
     fill="#727069"
     id="path420" />
  <path
     d="m 189.40833,168.84 q -1.5,-0.5 -4.2,-12.7 -2.8,-12.4 -4.75,-13.45 -2.05,2.2 -5.85,14.2 -3.35,10.35 -6.2,10.55 -9.7,0.65 -27.5,3.65 l -16.15,2.55 q -1,-0.2 -2.55,-3.45 l -3.3,-6.5 q -1.3,1.05 -5.2,6.85 -3.35,4.95 -5.45,5.5 -2.35,0.65 -15.699997,5.55 l -12.85,4.8 -4.8,-4.75 q -4.9,-5.25 -5.55,-7.65 -0.6,-2.35 8.05,-14.15 l 8.8,-11.3 q 2.75,-2.7 8.15,-6.35 10.799997,-7.35 23.949997,-12.2 42.05,-15.5 91.9,-0.15 22.9,7.05 20.55,26.3 -1.2,9.65 -6.95,17.85 -4.25,-1.75 -18.75,-3.3 l -15.65,-1.85"
     fill="#89887f"
     id="path422" />
  <path
     d="m 172.80833,137.09 q 6.25,-8.85 7.8,-8.7 1.6,0.15 6.8,8.8 3.55,5.9 7.55,13.65 1,0.7 14.65,2.8 15.5,2.4 19.5,3.45 5.2,1.35 0.5,9.25 l -5.8,7.65 q -4.25,-1.75 -18.75,-3.3 l -15.65,-1.85 q -1.5,-0.5 -4.2,-12.7 -2.8,-12.4 -4.75,-13.45 -2.05,2.2 -5.85,14.2 -3.35,10.35 -6.2,10.55 -9.7,0.65 -27.5,3.65 l -16.15,2.55 q -1,-0.2 -2.55,-3.45 l -3.3,-6.5 q -1.3,1.05 -5.2,6.85 -3.35,4.95 -5.45,5.5 -2.35,0.65 -15.699997,5.55 l -12.85,4.8 -4.8,-4.75 q -4.9,-5.25 -5.55,-7.65 -0.2,-0.85 0.75,-2.85 6.4,-1.45 19.1,-6.65 12.699997,-5.2 16.449997,-6.05 l 8.7,-13 q 6.15,-9.1 8.1,-8.95 l -3.55,11.45 q -2.6,9.15 -1.05,9.15 l 17.15,-2.85 q 17.9,-2.95 28.45,-3.25 l 0.95,-0.2 0.6,-1 q 1.9,-4.3 7.8,-12.7"
     fill="#727069"
     id="path424" />
  <path
     d="m 181.50833,82.39 q 2.6,11.05 -4.2,21.15 -6.75,10.1 -18.95,13.4 -12.2,3.25 -22.6,-2.2 -10.45,-5.5 -13.05,-16.5 -2.6,-11.05 4.2,-21.15 6.75,-10.1 18.95,-13.35 12.2,-3.3 22.65,2.2 10.4,5.45 13,16.45"
     fill="#ffffff"
     id="path426" />
  <path
     d="m 163.25833,94.84 q -3.2,4.75 -8.9,6.3 -5.7,1.55 -10.6,-1.05 -4.9,-2.55 -6.1,-7.7 -1.25,-5.15 1.95,-9.9 3.2,-4.75 8.9,-6.3 5.7,-1.55 10.6,1 4.9,2.6 6.1,7.75 1.25,5.15 -1.95,9.9"
     fill="#ea6d8d"
     id="path428" />
  <path
     d="m 85.908333,259.19 -0.35,4.5 q -6.85,8.15 -18.5,19.35 -9.7,9.3 -16.55,14.95 -6.65,5.55 -10.7,5.1 -2.4,-0.3 -7.55,-4.65 l -4.2,5.2 q -4.7,5.3 -7,5.85 -2.6,0.65 -6.25,-3.7 -3,-3.55 -6.1999997,-9.8 -3.85,-7.6 -7.6,-18.2 -1.1,-3.2 -1,-3.95 0.15,-1.15 2.5,-0.5 7.7999997,2.25 16.6999997,5.4 4.45,-11.55 5.75,-14.1 0.85,-1.75 2.6,-2.2 1.15,-0.3 4.5,1.4 l 3.65,2.1 q 1.7,-6.35 5.4,-16.5 3.65,-10 5.5,-13.55 l 2.55,1.1 q -2.15,4.05 -6,14 -4.2,10.85 -5.75,16.85 l -1.6,5.55 q -0.75,1.95 -1.25,1.45 -0.45,-0.45 -0.15,-3.7 l 0.35,-3.15 -3.95,-2.55 q -2.6,-1.35 -3.65,-0.05 -1.15,1.4 -7.25,17.95 -1.1,3.15 -1.45,1.6 -0.35,-1.4 0.15,-3.8 -3.85,-2.05 -10.0499997,-3.9 -5.85,-1.75 -6,-1.2 -0.1,0.6 3,7.7 3.45,7.9 6.2999997,12.95 2.95,5.3 4.35,7.2 2.3,3.05 4.2,3 1.7,0 5.3,-4.25 3.05,-3.65 4.6,-6.65 -3.45,-3.35 -3.35,-4.6 0.05,-1.25 1.7,0.3 7.45,7.15 10.05,8.2 4.1,1.65 9.1,-2.85 l 18,-16.9 q 13.55,-13.2 20.1,-20.95"
     id="path430"
     style="fill:#0f141b" />
  <path
     d="m 83.758333,261.74 q 3,-9.65 5.35,-12.85 l 2.15,2.7 q -2.25,3.05 -5.05,13.5 -3.2,12 -2.45,19.4 0.7,6.55 6.8,26.2 0.6,1.9 0,3.25 l -2.15,3.8 q -2.05,3.7 -2.55,5.65 -0.9,3.3 0.7,5.75 l 1.95,2.95 q 2.5,3.4 5.1,5.5 3.1,2.55 7.349997,3.55 5.3,1.3 15.7,1.1 17.95,-0.3 33.35,-4.05 13.5,-3.25 18.15,-7.2 9.25,-7.95 9.45,-9.05 0.1,-0.45 -2.7,-0.35 l -3.05,-0.25 q -0.3,-0.6 2.25,-3.9 0.55,-0.65 -2.8,0.5 h -0.7 q -0.45,-0.1 -0.65,-0.35 l -3.9,-4.35 -0.9,-1.7 q 0.7,-2.4 1,-6.3 0.7,-7.8 -1,-15.45 l 2.1,-0.35 1.1,6.2 q 0.6,3.55 0.6,5.65 0,3.3 -0.7,6.55 l -0.9,3.55 3.95,4.5 2.85,-0.8 3.65,-0.8 q 1.25,-0.1 -0.25,2.15 l -2.5,3.35 3.55,-0.3 2.8,-0.3 q 1.1,0 1.4,0.3 0.45,0.45 -0.5,1.7 l -4.7,4.5 -8.05,6.9 q -5.15,4.4 -19.1,8.1 -16.45,4.35 -34.45,4.15 -13.5,-0.15 -19.299997,-2.4 -5.35,-2.05 -10.15,-8.45 -1.25,-1.65 -2.35,-3.85 -1.15,-2.25 -1.25,-3.35 -0.3,-3.8 2.55,-9.35 2.7,-5.3 2.5,-6.2 l -3.7,-12.15 q -3.5,-11.25 -3.9,-15.3 -0.15,-1.4 -0.15,-3.05 0,-7.8 3.5,-19"
     id="path432"
     style="fill:#0f141b" />
  <path
     d="m 85.158333,267.64 0.5,-1.15 q 2.2,2 8.1,3.5 7.149997,1.85 16.899997,2.1 v 1.2 l -15.749997,-1.1 q -6.95,-1.2 -9.75,-4.55"
     id="path434"
     style="fill:#0f141b" />
  <path
     d="m 84.408333,293.04 -0.9,-2.05 q 2.5,2.75 10.8,5.25 8.749997,2.65 20.099997,3.75 28.7,2.7 52.1,-5.85 l 0.4,1.1 q -24.65,9 -52.6,6.55 -11,-0.95 -19.499997,-3.55 -7.9,-2.4 -10.4,-5.2"
     id="path436"
     style="fill:#0f141b" />
  <path
     d="m 124.55833,325.24 q 14.3,-0.5 25.6,-4.55 10.9,-3.9 15.55,-9.8 l 0.45,1.7 q -7,6.65 -17,10.15 -10.5,3.7 -25,4.2 -13.2,0.5 -23.4,-1.6 -10.199997,-2.15 -13.799997,-6.15 l 0.4,-1.55 q 3.45,3.85 13.849997,5.95 10.4,2.15 23.35,1.65"
     id="path438"
     style="fill:#0f141b" />
  <path
     d="m 250.80833,14.34 3.15,2 c 10.66667,6.766667 17.53333,10.883333 20.6,12.35 2.6,1.233333 5.06667,1.666667 7.4,1.3 l 6.45,0.2 c 0.0667,0.733333 -1.76667,2.066667 -5.5,4 -4.3,2.266667 -7.9,3.316667 -10.8,3.15 l -6.55,-1.05 -7.05,-1.5 -9.15,-1.6 c 0,0 -3.28359,-0.810486 -6.7,0.2 l -6.8,4.05 c -4,2.4 -6.56667,3.7 -7.7,3.9 -1.23333,0.2 -2.73333,0.216667 -4.5,0.05 l -2.3,-0.3 -10.75,-1.9 c -4.83333,-0.866667 -8.28333,-1.283333 -10.35,-1.25 l 0.1,0.1 4.3,3.2 c 1.8,1.466667 2.75,2.7 2.85,3.7 0.13333,1.166667 -0.46667,2.3 -1.8,3.4 -1.23333,1.033333 -3.86667,2.683333 -7.9,4.95 l -1.25,-1.7 c 4.66667,-3.433333 6.9,-5.85 6.7,-7.25 -0.0667,-0.4 -3.41667,-3 -10.05,-7.8 -5.93333,-4.3 -7.93333,-6.383333 -6,-6.25 1.4,0.06667 4.26667,1.6 8.6,4.6 1.53333,-0.4 4.98333,-0.15 10.35,0.75 l 14.65,2.5 3.8,0.6 c 1.06667,0.133333 4.03333,-0.95 8.9,-3.25 l 8.35,-4.1 c 3.89759,-1.154841 7.3,-0.4 7.3,-0.4 l 9.8,1.7 c 5.66667,1.1 9.6,1.733333 11.8,1.9 3.8,0.233333 7.61667,-0.666667 11.45,-2.7 l -5.45,-0.25 c -2.36667,-0.366667 -6.11667,-1.983333 -11.25,-4.85 -3.1,-1.733333 -7.51667,-4.433333 -13.25,-8.1 l -3.15,-2 c -2.63333,-1.666667 -5.85,-2.1 -9.65,-1.3 -2.23333,0.466667 -5.1,1.533333 -8.6,3.2 l -2.75,1.2 c -1.36667,0.433333 -4.06667,-0.08333 -8.1,-1.55 l -10.8,-4.5 c -8.5,-3.8 -14.1,-6.1666667 -16.8,-7.1 -9.13333,-3.1666667 -17.28333,-4.5 -24.45,-4 -7.66667,0.5 -16.86667,4.95 -27.6,13.35 -4.03333,3.166667 -7.41667,6.216667 -10.15,9.15 -2.63333,2.866667 -3.75,4.616667 -3.35,5.25 0.8,1.366667 2.03333,2.6 3.7,3.7 1.8,1.233333 3.71667,2 5.75,2.3 3.8,-2.766667 6.35,-4.116667 7.65,-4.05 0.46667,0.03333 0.6,0.25 0.4,0.65 -0.2,0.4 -0.65,0.783333 -1.35,1.15 -1.5,0.833333 -4.53333,3.333333 -9.1,7.5 -4.66667,4.266667 -6.75,6.566667 -6.25,6.9 l 4.95,2.65 c 2.1,0.966667 3.58333,1.7 4.45,2.2 l -1.1,1.85 -5.5,-2 c -3.36667,-1.3 -5.56667,-2.616667 -6.6,-3.95 -0.73333,-0.933333 0.0167,-2.466667 2.25,-4.6 l 8,-6.65 c -2.86667,-0.733333 -5.53333,-1.866667 -8,-3.4 -2.6,-1.633333 -3.96667,-3.116667 -4.1,-4.45 -0.13333,-0.933333 1.25,-2.966667 4.15,-6.1 3.06667,-3.366667 6.76667,-6.7 11.1,-10 11.66667,-9.0333333 22.13333,-13.71666667 31.4,-14.05 7.23333,-0.26666667 14.53333,0.8 21.9,3.2 2.2,0.7333333 8.71667,3.4 19.55,8 l 10.6,4.8 c 3.43333,1.5 5.66667,2.066667 6.7,1.7 l 2.55,-1.1 c 4.13333,-1.933333 7.35,-3.15 9.65,-3.65 4.43333,-1 8.16667,-0.55 11.2,1.35"
     id="path440"
     sodipodi:nodetypes="cccccccccccccccccccccccccccccccccccccccccccccccccccccscccccccccccccccccccccc"
     style="fill:#0f141b" />
  <path
     d="m 348.50833,255.29 q 2.35,-2.15 3.75,-2.15 1.15,0 2.15,1.6 3.25,5.15 6.85,12.25 l 4.95,10.3 q 6.4,-10.65 9.3,-13.55 1.7,-1.65 2.5,-1.5 0.8,0.15 0.6,2.1 -0.7,7.2 -3.35,20 -2.55,12.4 -3.7,14.6 -1.1,2.25 -2,2.85 l -1.65,0.25 q -1,0 -4.05,-2.45 -3.55,-2.85 -6.6,-6.65 -5.7,23.85 -13,20.4 -15.25,-7.3 -35.3,-26.1 -26.95,-25.25 -42.15,-55.3 l 1.9,-3.35 q 14.9,29.4 41.85,55 18.75,17.85 34,26.35 1.8,1 3.95,-1.3 3.8,-4.2 7.05,-18.35 0.95,-4.4 1.55,-4.95 0.8,-0.85 0.95,4.9 4,5.15 7.25,7.3 2.95,1.95 3.95,0.75 0.9,-1.1 4.1,-15.7 3.2,-14.55 2.85,-15.4 -0.3,-0.75 -3.1,3.25 -2.5,3.6 -5.75,9.1 1.1,4.3 0.45,4.9 -0.75,0.65 -3,-3.95 l -7.55,-15 q -4.7,-9.05 -5.35,-9.05 -1.15,0 -5.15,5.05 -3.65,4.6 -4.75,6.75 1.4,7.35 0.9,8 -0.55,0.7 -3.9,-6.9 -3.55,-8.05 -19.7,-34.9 -16.2,-26.9 -20.45,-31.75 l 3.45,-1.45 q 4.2,4.65 18.25,27.5 15.55,25.3 19.75,36.45 4.6,-6.6 8.2,-9.9"
     id="path442"
     style="fill:#0f141b" />
  <path
     d="m 198.00833,50.94 0.2,0.1 q 11.3,7.1 21.8,19.2 10.9,12.5 19.85,29.1 20.25,37.55 30.1,92.1 8.8,48.3 -24.35,74.1 -12.05,9.35 -29.9,15.9 -10.25,3.75 -27.65,8.05 -26.25,6.45 -55.6,-4.15 -27.25,-9.8 -40.199997,-27.2 -4.35,-5.85 -7,-17.9 l 2.95,-0.55 q 2.75,11.55 6.85,17.05 12.499997,16.8 38.749997,25.85 28.05,9.6 53.8,3.3 18.6,-4.55 30.7,-9.3 16.25,-6.4 27.1,-15.35 23.15,-19.2 23.15,-50.9 0,-9 -1.9,-19.4 -9.9,-54.3 -31.25,-92.7 -18,-32.35 -39.05,-45.6 -15.1,-5.95 -33.15,-5.2 -18.05,0.75 -26.95,7.7 -14.1,10.95 -28.05,37.6 -13.949997,26.65 -19.099997,52.35 -2.9,2.05 -5,4.35 0.55,-2.1 1.2,-3.05 5.1,-25.95 20.099997,-54 14.85,-27.8 29.4,-39.1 9.35,-7.3 28.75,-8.05 19.45,-0.75 34.45,5.7"
     id="path444"
     style="fill:#0f141b" />
  <path
     d="m 224.00833,77.69 -0.75,0.95 q -16,-11.85 -35.2,-15.9 -14.6,-3.05 -30.15,-1.5 -14,1.45 -25.95,6.3 -10.8,4.4 -15.35,9.55 l -0.9,-0.75 q 5.05,-5.7 14.55,-10.2 11.45,-5.45 25.2,-6.85 15.55,-1.6 31.65,1.9 20.65,4.45 36.9,16.5"
     id="path446"
     style="fill:#0f141b" />
  <path
     d="m 121.50833,93.49 -0.25,2 q -7.85,3.1 -13.4,6.65 -5.7,3.65 -8.049997,7.15 l -1,-0.65 q 2.599997,-3.9 8.549997,-7.85 5.9,-3.95 14.15,-7.3"
     id="path448"
     style="fill:#0f141b" />
  <path
     d="m 181.85833,87.29 v -2.3 q 33.7,2.5 58.45,19.4 l 1.25,2.65 q -13.45,-9.15 -30.05,-14.25 -14.05,-4.3 -29.65,-5.5"
     id="path450"
     style="fill:#0f141b" />
  <path
     d="m 214.75833,131.14 1.2,2.3 q -21.1,-9.5 -45.4,-10.7 -19.5,-0.95 -37.25,3.35 -14.8,3.6 -29.55,11.15 -11.299997,5.8 -16.999997,10.65 l 0.7,-2.9 q 5.9,-5.05 15.399997,-10 13.1,-6.9 27.95,-10.5 18.3,-4.45 37.85,-3.75 24.95,0.9 46.1,10.4"
     id="path452"
     style="fill:#0f141b" />
  <path
     d="m 179.35833,142.09 0.9,-1.15 q 0.4,-0.15 1.2,0.7 0.85,0.95 2.1,4.8 1.35,4.1 2.7,10.2 2.4,10.7 3.45,11.3 l 15.85,2 q 15.75,1.95 18.6,3.15 l -0.75,2.65 q -2.7,-1.1 -18.8,-2.9 l -16.3,-1.85 q -1.25,-0.4 -2.3,-3.85 l -2.15,-9.3 -1.5,-7.85 q -0.9,-4.6 -1.75,-5.85 -1.1,1.5 -2.5,5.75 l -2.25,7.2 -2.6,8.85 q -1.35,3.7 -3.6,3.85 -6.2,0.4 -26.45,3.55 l -19.1,2.9 q -0.9,-0.2 -3,-5.1 l -2.45,-5.95 q -0.6,0.7 -1.75,2.75 l -1.75,3.05 -3.1,4.7 q -1.75,2.35 -3.4,2.8 l -15.199997,5.2 -12.65,4.5 -1.3,-0.75 -0.45,-0.4 -6.05,-5.65 q -5.5,-5.45 -6.15,-7.95 -0.7,-2.5 7.6,-13.45 3.45,-4.55 11.6,-14.35 l 3,0.05 q -6.4,7.75 -12.45,16.7 -6.35,9.25 -6.35,11.15 l 0.05,0.2 q 0.5,1.8 4.05,5.85 l 5.55,5.7 q 23.749997,-9 28.099997,-10.15 1.25,-0.35 2.9,-2.35 l 2.85,-4.1 q 3.05,-4.55 4.55,-5.75 l 0.85,-0.7 0.55,0.95 2.8,5.4 q 2.1,4.05 2.4,4.1 l 18.05,-2.8 q 19.1,-3 25.4,-3.4 1.5,-0.1 3.2,-4 1.05,-2.4 2.7,-7.8 1.1,-3.45 2.85,-7.7 1.6,-3.8 2.25,-4.9"
     id="path454"
     style="fill:#0f141b" />
  <path
     d="m 92.458333,162.09 q 8.249997,-2.9 12.599997,-3.45 0.85,-0.15 0.8,0.45 -0.05,0.55 -0.6,0.7 l -10.349997,3.15 q -10.45,3.4 -13.55,5.05 l -0.55,-1.05 q 4.1,-2.2 11.65,-4.85"
     id="path456"
     style="fill:#0f141b" />
  <path
     d="m 122.15833,155.89 q 1.7,-0.95 15.2,-3.15 15.6,-2.6 23.95,-2.1 1.7,0.1 1.65,0.55 0,0.45 -1.65,0.45 -7.1,-0.1 -23.2,2.55 l -15.6,2.8 q -0.9,0.2 -1.05,-0.2 -0.2,-0.4 0.7,-0.9"
     id="path458"
     style="fill:#0f141b" />
  <path
     d="m 196.35833,151.84 q -0.95,-0.15 -1,-0.85 -0.05,-0.7 1.4,-0.6 l 12.6,2 q 11.45,2 15.65,3.15 l -0.35,1.15 q -3.75,-1.05 -16,-2.95 l -12.3,-1.9"
     id="path460"
     style="fill:#0f141b" />
  <path
     d="m 183.30833,132.09 q -0.7,-1.3 -0.6,-1.85 0.05,-0.5 0.7,0 0.85,0.65 9.65,15.55 1.2,2 0.8,3.45 -0.4,1.5 -1.2,-0.2 -1.6,-3.55 -5.35,-10 l -4,-6.95"
     id="path462"
     style="fill:#0f141b" />
  <path
     d="m 165.50833,147.44 q 0.6,-1.3 5.7,-8.55 5.3,-7.65 6.55,-8.65 1.3,-1 0.95,-0.05 l -1.35,2.15 q -1.05,1.25 -5.2,7.65 -4.35,6.6 -5.05,8.15 -0.65,1.6 -1.4,1 -0.7,-0.6 -0.2,-1.7"
     id="path464"
     style="fill:#0f141b" />
  <path
     d="m 121.90833,137.04 q 0.55,-0.55 0.3,0.7 l -2.6,9.1 q -2.2,8.15 -1.85,9.45 l 1.95,5.35 3.6,9.1 q 1.55,3.45 -1,-0.35 -2.55,-3.8 -3.7,-6.3 -0.85,-1.85 -1.75,-4.65 l -0.7,-2.4 q -0.5,-1.75 1.9,-9.55 l 2.9,-8.7 q 0.4,-1.25 0.95,-1.75"
     id="path466"
     style="fill:#0f141b" />
  <path
     d="m 111.95833,148.44 q 4.95,-7.35 6.5,-8.9 1.7,-1.7 1.7,-1.05 0,0.5 -0.8,1.85 l -5.7,8.15 q -5.3,7.55 -5.9,8.7 -0.75,1.45 -1.4,0.95 -0.7,-0.45 0.15,-1.6 l 5.45,-8.1"
     id="path468"
     style="fill:#0f141b" />
  <path
     d="m 190.55833,191.19 q 21.35,1.2 40.65,5.8 26.9,6.35 38.95,17.45 l -0.2,1.85 q -11.95,-10.95 -36.85,-17.25 -18.35,-4.65 -38.65,-5.8 -21.65,-1.25 -40.45,0.7 -17.25,1.75 -23.65,5.2 l -1.3,-1 q 7.3,-3.9 23.95,-5.95 17.8,-2.15 37.55,-1"
     id="path470"
     style="fill:#0f141b" />
  <path
     d="m 112.15833,247.89 q -11.45,5.35 -16.549997,10.45 l -0.85,-0.85 q 5.449997,-5.8 17.199997,-11.35 13,-6.2 29.35,-9.8 41.35,-9.15 83.3,1.75 l -0.25,1.1 q -41.15,-10.7 -83.05,-1.05 -16.05,3.65 -29.15,9.75"
     id="path472"
     style="fill:#0f141b" />
  <path
     d="m 132.20833,282.64 q 4.75,-7.05 19.9,-10.55 17.65,-4.05 43.55,-1.35 l -0.1,1.15 q -30.95,-2.25 -49.5,4.2 -5.95,2.05 -9.9,4.75 -2.15,1.45 -3.05,2.55 l -0.9,-0.75"
     id="path474"
     style="fill:#0f141b" />
  <path
     d="m 181.55833,88.09 q 0,-2.9 -0.65,-5.55 -1.1,-4.8 -4.05,-8.75 -2.95,-3.95 -7.35,-6.6 -5.05,-3 -11.2,-3.75 -6.15,-0.75 -12.3,0.9 -11.95,3.2 -18.6,13.1 -6.65,9.9 -4.1,20.65 1.1,4.8 4.05,8.75 2.95,3.95 7.3,6.6 5.05,3.05 11.25,3.8 6.15,0.75 12.25,-0.9 10.3,-2.8 16.9,-10.8 6.5,-7.95 6.5,-17.45 m -11.5,-23.65 q 10.85,5.75 13.6,17.65 2.65,11.45 -4.9,22.2 -7.45,10.6 -20.15,14.1 -12.65,3.45 -23.65,-2.15 -11.25,-5.7 -14,-17.45 -2.65,-11.5 4.7,-22.3 7.3,-10.75 19.95,-14.2 13.45,-3.7 24.45,2.15"
     id="path476"
     style="fill:#0f141b" />
  <path
     d="m 164.95833,87.64 -0.3,-2.55 c -0.7,-3 -2.4333,-5.3333 -5.2,-7 -1.5667,-0.93333 -3.3519,-1.5178 -5.15,-1.75 -1.8725,-0.24184 -3.8721,-0.23541 -5.65,0.4 -3.2877,1.175 -6.5167,3.0167 -8.55,6.05 -2.0333,3.0333 -2.6667,6.1833 -1.9,9.45 0.73333,3 2.8508,5.2882 5.2,7 1.4653,1.0678 3.3509,1.5257 5.15,1.75 1.8748,0.23375 3.859,0.15137 5.65,-0.45 2.9059,-0.97569 5.7167,-2.4833 7.75,-4.95 2,-2.4333 3,-5.0833 3,-7.95 m 1.85,-2.6 c 0.66667,4.0667 -0.18333,7.7833 -2.55,11.15 -2.4,3.4 -5.8,5.55 -10.2,6.45 -4.1,0.8 -7.85,0.28333 -11.25,-1.55 -3.4667,-1.8667 -5.6167,-4.65 -6.45,-8.35 -0.83333,-3.6667 -0.0667,-7.3 2.3,-10.9 2.3667,-3.5667 5.5333,-5.9 9.5,-7 4.2333,-1.1667 8.25,-0.68333 12.05,1.45 3.7667,2.1 5.9667,5.0167 6.6,8.75"
     id="path478"
     style="fill:#0f141b" />
  <path
     d="m 36.058333,189.19 q -0.4,-0.85 -0.5,-2.1 7.85,8.3 -1.9,18.25 -3.95,4 -9.7,7.05 -5.55,2.9 -10.5,3.8 8.1,-7.4 13.6,-13.2 10.4,-11 9,-13.8"
     fill="#e4e2d9"
     id="path482" />
  <path
     d="m 38.758333,193.09 q -3.35,-2.75 -3.2,-6 0.2,-3.75 3.2,-10.8 2.45,-5.85 4.05,-8.15 3.35,-5.1 5.65,-7.05 1.25,-1.05 8.1,-2.65 5.95,-1.4 8.65,-1.65 1.85,-0.2 10.25,5.3 7.15,4.75 12.45,9 3.95,3.25 9.7,13.9 5.349997,9.9 6.749997,15.55 14.85,-9.6 20,-7.3 3.65,1.6 8.3,7.5 5.15,6.6 2.4,8.95 -3.55,3.1 -12.2,9.1 -1.65,1.1 -14.35,9.7 -4.2,2.85 -9.999997,7.7 -4.8,3.55 -9.55,3.8 l -10.3,-1.15 -8.05,-0.75 q -2.75,0.9 -8.8,1.8 l -10.05,0.4 q -2.3,-0.65 -6.45,-4.5 -5.05,-4.75 -6.3,-5.55 -2.35,-1.5 -6.55,-3.7 l -3.7,-1.95 -0.95,1.4 q -1.05,2.25 -1.75,6.7 -0.5,3.2 -4.75,5.4 -2.35,1.25 -6.6,2.7 -2.6,1.1 -5.2499997,0.35 -2.85,-0.8 -3.4,-3.35 -1.05,-4.7 -0.55,-9 0.8,-7.05 5.6999997,-11.1 6.85,2 9.55,-1.1 2.6,-4.95 5.3,-7.8 4.5,-2.5 7.75,-4.7 6.15,-4.2 7.7,-7.75 0.3,-0.7 -2.75,-3.25"
     fill="#e4e2d9"
     id="path484" />
  <path
     d="m 109.45833,197.44 q 10.6,-6.1 14.9,-4.2 2.65,1.2 6.7,5.65 4.45,5 4.85,8.2 -5.1,-2.15 -11.6,-3 l -12.2,-0.65 q -1.75,0 -2.45,-1.8 -0.65,-1.65 -0.2,-4.2"
     fill="#c0bfb8"
     id="path486" />
  <path
     d="m 39.408333,192.44 q -2.95,-3.75 -3.6,-5.6 3.15,0.1 9.55,-1.1 l 8.85,-1.85 q 1.9,-0.4 6.35,-13.35 4.4,-12.85 7.05,-13.05 3.1,-0.25 10.25,5.25 l 10.05,8.35 q 3.95,3.25 9.7,13.9 5.349997,9.9 6.749997,15.55 2.7,-1.75 5.1,-3.1 -0.45,2.55 0.2,4.2 0.7,1.8 2.45,1.8 l 12.2,0.65 q 6.5,0.85 11.6,3 0.15,1.65 -0.85,2.6 -3.55,3.1 -12.2,9.1 -1.65,1.1 -14.35,9.7 l -6.3,4.75 -5.149997,3.95 q -3.95,2.55 -8.1,2.8 l -10.3,-1.15 -8.05,-0.75 q -2.75,0.9 -8.8,1.8 l -10.05,0.4 q -2.25,-0.65 -5.8,-3.9 4.15,-3.6 11.15,-6 3.8,-1.35 12.5,-3.35 7.6,-1.8 10.65,-3.15 4.7,-2.1 5.65,-5.35 2.65,-9.45 0.35,-13.75 -2,-3.85 -7.65,-3.3 -21.95,2.15 -30.2,6.25 -9.8,4.9 -15.95,18.75 l -3.7,-1.9 -0.95,1.4 q -1.05,2.25 -1.75,6.7 -0.5,3.2 -4.75,5.4 -2.35,1.25 -6.6,2.7 -2.6,1.1 -5.2499997,0.35 -2.85,-0.8 -3.4,-3.35 l 6.1499997,-2.85 q 6.35,-2.9 6.85,-4.5 0.3,-1 0,-4.2 -0.35,-3.8 0.45,-8.55 1.35,-0.85 3,-3.75 2,-3.5 3.55,-5.15 4.5,-2.5 7.75,-4.7 6.15,-4.2 7.7,-7.75 0.35,-0.9 -2.1,-3.9"
     fill="#c0bfb8"
     id="path488" />
  <path
     d="m 324.35833,134.94 q 1.05,5.9 0.2,8.05 2.45,0 8.95,2.65 7.2,2.9 9.4,5.45 2.15,2.5 1.9,13.7 -0.2,9.65 -1.35,14.15 -0.75,3.05 -3.9,4.6 -2.9,1.4 -5.55,0.75 -2.85,-0.7 -6.5,-2.35 l -7,-3.55 q -1.65,0.4 -8.5,9.7 -7.8,10.7 -12.3,14.35 -5.6,4.55 -12.55,4.5 -5.55,0 -13.95,-3.15 -2.9,-1.1 -11.25,0.85 l -9.25,2.1 q -4.85,-0.2 -9.35,-2.3 l -6.6,-3.65 q -0.7,0.15 -14.55,6.35 -13.5,5.95 -18.4,6.9 -5.65,1.05 -10.25,-4.2 -3.8,-4.3 -4.6,-9.05 -0.85,-4.75 -0.3,-7.6 0.75,-4.25 4.35,-6.45 1.4,-0.85 11.25,-4.5 8.8,-3.3 14.1,-7.35 5.85,-4.5 6.2,-16.2 0.15,-5.75 -1.3,-14.6 -1.35,0.8 -3.25,0.8 -1.55,0 -4.85,-3.7 -3.4,-3.9 -3.8,-6.55 -0.5,-3.45 1.9,-11.35 2.6,-8.8 5.95,-11.35 3.45,-2.7 13.25,-3.6 9.45,-0.85 11.6,0.9 1.75,1.4 5.15,10.75 l 5.1,15.45 q 1.8,-12.25 2.8,-16.35 2.05,-8.45 5.05,-9.85 3.05,-1.45 12.05,-0.55 7.35,0.8 12,2.15 2.85,0.85 4.8,5.8 1,2.45 1.4,4.75 l 1.9,-1.1 q 2.4,-1.3 5.1,-2.15 3.1,-0.95 11.55,2.45 8.15,3.3 10.35,5.9 1.95,2.35 3.05,8.45"
     fill="#e4e2d9"
     id="path490" />
  <path
     d="m 283.10833,292.39 c 0.73333,10.06667 -0.0833,16.86667 -2.45,20.4 1.76667,2.76667 3.23333,6.13333 4.4,10.1 1.5,5.1 1.61667,8.91667 0.35,11.45 -1.86667,3.76667 -5.33333,7.01667 -10.4,9.75 -2.6,1.4 -5.3,2.73333 -8.1,4 -1,0.96667 -1.83333,3.51667 -2.5,7.65 l -8.9,-4.45 1,9.9 -13.35,-7.9 -2.95,5.4 -4.2,-4.25 c -2.96667,-2.83333 -4.96667,-4.15 -6,-3.95 -22.43333,0.43333 -36.05,-2.23333 -40.85,-8 -3,-3.6 -4.38333,-7.68333 -4.15,-12.25 0.23333,-4.06667 1.85,-9.41667 4.85,-16.05 -1.76667,-3.43333 -2.55,-9.08333 -2.35,-16.95 0.23333,-9.76667 2.41667,-18.13333 6.55,-25.1 6.46667,-10.9 13.06667,-19.83333 19.8,-26.8 9.7,-10 19,-14.81129 27.9,-15.01129 9.43333,-0.2 17.38333,2.52796 23.85,8.76129 5.63333,5.5 9.66667,12.96667 12.1,22.4 2.93333,11.36667 4.73333,21.66667 5.4,30.9"
     fill="#89887f"
     id="path492"
     sodipodi:nodetypes="ccscccccccccccccccccccc" />
  <path
     d="m 324.60833,142.99 2.35,0.45 q 0.9,9.8 0.1,26.1 -0.15,3.7 8.15,6.85 4.1,1.6 8.25,2.55 -0.75,3.05 -3.9,4.6 -2.9,1.4 -5.55,0.75 -2.85,-0.7 -6.5,-2.35 l -7,-3.55 q -1.65,0.4 -8.5,9.7 -7.8,10.7 -12.3,14.35 -5.6,4.55 -12.55,4.5 -5.55,0 -13.95,-3.15 -2.9,-1.1 -11.25,0.85 l -9.25,2.1 q -4.85,-0.2 -9.35,-2.3 l -6.6,-3.65 q -0.7,0.15 -14.55,6.35 -13.5,5.95 -18.4,6.9 -5.45,1 -9.85,-3.75 14.4,-0.55 24.4,-9.1 l 6.2,-6.1 q 2.95,-2.95 4.8,-3.35 l 12.7,0.5 q 10.15,0.75 17.6,-2.15 9.7,-3.7 11.65,-11.85 2,-8.35 -5.4,-15.75 -13.3,-13.2 -41.15,-5.7 -0.6,-7.05 -1.5,-12.7 -1.35,0.8 -3.25,0.8 -1.55,0 -4.85,-3.7 -3.4,-3.9 -3.8,-6.55 v -0.25 q 2.4,1.3 13.7,-1.55 10.9,-2.8 13.75,-5 1.45,-1.1 3.8,-11.3 0.9,-3.9 1.6,-4.9 0.95,-1.35 2.1,1.2 2.2,4.75 4.55,11.75 l 3.45,10.85 q 0.95,-6.5 2.9,-14.05 1.65,-6.4 3.25,-10.75 1.15,-3 4,6.7 l 3.7,12.8 q 1.2,2.55 12.3,3.5 11.3,1 12.25,-2.25 0.85,-2.9 0.5,-5.8 l -0.5,-2.35 2.2,-2.3 q 2.35,-2.2 3.2,-1.75 2.4,1.2 3.9,9.8 l 1.5,11.6 q 0.35,2.85 7.05,5.75 5.35,2.3 9.5,2.9 2.35,0.35 3.8,-3.25 l 0.75,-3"
     fill="#c0bfb8"
     id="path494" />
  <path
     d="m 277.70833,261.49 c 2.93333,11.36667 4.73333,21.66667 5.4,30.9 0.73333,10.06667 -0.0833,16.86667 -2.45,20.4 1.76667,2.76667 3.23333,6.13333 4.4,10.1 1.5,5.1 1.61667,8.91667 0.35,11.45 -1.86667,3.76667 -5.33333,7.01667 -10.4,9.75 -2.6,1.4 -5.3,2.73333 -8.1,4 -1,0.96667 -1.83333,3.51667 -2.5,7.65 l -8.9,-4.45 1,9.9 -13.35,-7.9 -2.95,5.4 -4.2,-4.25 c -2.96667,-2.83333 -4.96667,-4.15 -6,-3.95 -1.73333,0.36667 -5.51667,0.38333 -11.35,0.05 -7.43333,-0.4 -13.71667,-1.38333 -18.85,-2.95 -3.4,-1.03333 -5.98333,-2.56667 -7.75,-4.6 -1.76667,-2 -2.21667,-3.91667 -1.35,-5.75 2.83333,-6.3 13.06667,-10.18333 30.7,-11.65 13.5,-1.16667 26.33333,-0.9 38.5,0.8 -0.6,-3.63333 -1.58333,-7.6 -2.95,-11.9 -1.43333,-4.5 -2.91667,-8.23333 -4.45,-11.2 0.76667,-14.7 -0.5,-28.78333 -3.8,-42.25 -3.5,-14.36667 -8.29086,-23.91129 -14.75753,-29.21129 2.76667,-0.96667 5.24086,-1.75538 7.80753,-1.78871 9.43333,-0.2 17.38333,2.81667 23.85,9.05 5.63333,5.5 9.66667,12.96667 12.1,22.4"
     id="path496"
     sodipodi:nodetypes="cccsccccccccccccccccccccccc"
     style="fill:#727069" />
  <path
     d="m 235.70833,335.04 q 9.1,-0.35 15.6,1.05 6.5,1.45 6.6,3.9 0.1,2.45 -6.25,4.45 -6.4,2 -15.5,2.35 -9.05,0.4 -15.6,-1.1 -6.5,-1.45 -6.6,-3.85 -0.1,-2.45 6.25,-4.45 6.4,-1.95 15.5,-2.35"
     id="path498"
     style="fill:#727069" />
  <path
     d="m 241.95833,338.54 q 2.6,0.6 2.65,1.55 0.05,0.95 -2.5,1.75 -2.55,0.8 -6.2,0.95 l -6.25,-0.45 q -2.6,-0.55 -2.65,-1.55 -0.05,-0.95 2.5,-1.75 2.55,-0.8 6.2,-0.95 l 6.25,0.45"
     id="path500"
     style="fill:#727069" />
  <path
     d="m 14.308333,190.59 q 3.05,-3.65 5.5,-4.1 l 6.75,20.8 -3.25,4 -5.1,6 q -1.6,1.75 -5.05,0.05 -1.9,-0.95 -5.1999997,-3.55 -1.75,-1.4 -0.8,-5.95 l 2.65,-8.95 q 1.3999997,-4.55 4.4999997,-8.3"
     fill="#e4e2d9"
     id="path504" />
  <path
     d="m 26.558333,207.29 -3.25,4 -5.1,6 q -1.55,1.75 -4.95,0.1 l -5.1999997,-3.5 q 3.8499997,-1.3 8.0499997,-8.6 3.75,-6.45 5.5,-13.3 l 4.95,15.3"
     fill="#c0bfb8"
     id="path506" />
  <path
     d="m 39.158333,174.19 q -3.7,6.8 -3.9,10.5 -0.15,3.4 2.4,8.2 2.35,4.4 2.15,4.95 -0.3,0.9 -4.6,3.8 -5.85,3.95 -7,4.85 -2.45,1.9 -5.3,0.85 -1.1,-0.4 -4.45,-2.75 -3,-2.1 1.35,-17.3 1.25,-4.2 7,-10.4 3.9,-4.2 7.6,-7.15 3.8,-3.05 8.4,-1.6 l -3.65,6.05"
     fill="#e4e2d9"
     id="path508" />
  <path
     d="m 38.908333,174.64 q -3.9,7.25 -3.9,11.15 0,3.6 3.2,7 2.9,3.1 2.75,3.55 -0.35,0.95 -5.15,4.55 l -7.6,5.6 q -2.45,1.9 -5.4,0.65 l -4.6,-2.95 q -0.25,-0.2 4.65,-4.6 4.9,-4.45 8.35,-7.05 2.8,-2.1 3.1,-7.85 0,-8.65 0.7,-15.4 3.55,-2.45 7.8,-1.15 l -3.9,6.5"
     fill="#c0bfb8"
     id="path510" />
  <path
     d="m 343.40833,164.79 q 0,-10.8 -1.95,-12.8 -3.35,-3.45 -10.95,-6 l -6.9,-1.8 q 0.75,-1.85 -0.35,-8.2 -1.1,-6.6 -2.85,-8.7 -2,-2.45 -9.95,-5.6 -8.1,-3.25 -10.7,-2.4 -2.5,0.8 -4.75,3.55 l -1.8,2.65 -1.65,-2.1 -0.3,-1.8 q -0.55,-2.8 -1.65,-5.3 -1.65,-3.7 -3.75,-4.3 -4.5,-1.3 -11.85,-2.1 l -11.35,0.4 q -2.4,1.15 -4.25,8.85 -0.75,3.1 -2.55,14.1 -0.95,5.65 -2.05,4.35 -0.6,-0.7 -1.3,-3.85 -0.55,-2.6 -3.95,-11.95 -3.8,-10.45 -5.25,-11.65 -1.7,-1.35 -10.65,-0.6 -9.45,0.75 -12.75,3.3 -2.8,2.2 -5.25,9.95 -2.2,6.85 -2.2,10.85 l 0.05,0.8 q 0.35,2.35 3.25,5.6 2.6,2.9 3.8,3.1 l 3.1,-0.1 1.85,1.3 q 1.5,9.05 1.2,15.25 -0.55,11.55 -6.6,16.2 -3.9,3 -9.1,5.4 -3.2,1.45 -8.7,3.35 -6,2.25 -7.7,3.25 -3.2,1.9 -3.85,5.7 -0.4,2.6 0.35,7.1 0.4,2.45 2.1,5.4 2,3.45 4.7,5.35 3.3,2.2 6.65,1.55 3.2,-0.65 17.05,-6.75 l 13.9,-6.15 -3.45,-4.3 q -0.95,-1.3 -0.4,-1.6 0.55,-0.3 1.95,1 4.05,3.8 7.5,6 2.9,1.8 6.3,3 4.6,1.6 11.3,-0.2 11.4,-2.95 15.95,-1.2 8.3,3.1 13.6,3.1 6.45,0 11.7,-4.3 4.65,-3.8 12.6,-14.8 3.7,-5.05 5.2,-6.75 2.05,-2.4 3.45,-2.7 l 0.45,-0.1 7.7,3.85 q 3.35,1.5 5.9,2.15 2.2,0.55 4.65,-0.6 2.75,-1.3 3.4,-3.9 1.05,-4.25 1.1,-13.85 m -17.55,-29.85 0.15,4.35 -0.05,2.7 q 3.95,0.75 9.45,3.15 6.3,2.7 8.4,5.2 1.2,1.45 1.9,4.75 0.7,3.2 0.7,7.35 0,4.9 -0.4,10.2 l -0.85,6.85 q -0.95,3.9 -3.7,5.5 -1.65,1.05 -3.7,1.45 -2.05,0.4 -3.7,0 -2.6,-0.65 -8.35,-3.25 l -5.4,-2.5 q -0.9,0.5 -3,3.35 l -3.95,5.5 -6.15,8.3 q -3.85,4.9 -6.8,7.3 -5.6,4.55 -12.95,3.9 -4.75,-0.45 -14.65,-4.15 -1.5,-0.55 -9.75,1.4 -9.25,2.2 -12.5,2.1 -4.25,-0.1 -7.6,-2.05 l -5.25,-3.6 -1.1,-0.65 -14.8,7.05 q -14.6,6.85 -18,7.5 -4.45,0.85 -8.45,-1.95 -3.45,-2.4 -5.9,-7.1 -2.8,-5.45 -3.35,-12.5 -0.25,-2.8 1.2,-5.45 1.5,-2.85 4.55,-4.65 1.1,-0.65 12.2,-4.75 10.35,-3.8 13.6,-6.3 5.7,-4.35 5.7,-16.5 0,-5.1 -0.95,-11 l -1.1,0.05 -1.35,-0.05 q -2.15,0 -6.2,-4.3 -4.05,-4.3 -4.45,-7.2 -0.55,-3.7 2.1,-12.35 2.9,-9.5 6.5,-12.3 3.75,-2.9 14.55,-3.8 10.6,-0.9 13.15,1.15 1.45,1.2 3.7,8 l 4.6,14.6 q 1.55,-10.4 2.65,-14.5 1.9,-7.1 4.85,-8.5 3.4,-1.6 13.4,-0.35 7.7,1 12.45,2.4 2.6,0.75 4.2,4.45 0.65,1.45 1.75,5.8 l 2.35,-1.6 q 1.8,-1.2 3.4,-1.7 3.45,-1.05 12.55,2.85 8.65,3.7 11.05,6.6 2.85,3.35 3.3,9.25"
     id="path512"
     style="fill:#0f141b" />
  <path
     d="m 232.20833,143.69 -8.75,2.1 q -1.55,-0.4 -2.35,-0.95 -1.7,-1.1 1.8,-1.9 l 10,-2.7 9.35,-3.2 q 2.85,-1.1 3.8,-2.95 0.65,-1.25 1.1,-4.85 0,4.25 0.05,-0.15 0.05,-5 0.9,-3.7 0.85,1.25 1.2,5.05 0.35,3.85 -0.4,5.75 -1.05,2.65 -4.75,4.1 -3.05,1.15 -11.95,3.4"
     id="path514"
     style="fill:#0f141b" />
  <path
     d="m 291.25833,121.59 2.3,-0.4 1.9,11.9 q 0.45,3.35 -1.75,7.55 -2.1,4.05 -4.15,4.35 l -15.95,-0.5 q -9.3,-1.25 -11.15,-2.6 -1.2,-0.8 -2,-6.7 -0.7,-4.8 -0.7,-8.25 0,-2.9 0.7,-4.15 0.75,-1.25 1.25,2.6 1.65,13.25 2.2,13.65 1.4,1 9.75,2.1 9.35,1.25 15.05,0.4 1.05,-0.15 2.8,-2.8 1.95,-2.95 1.6,-5.3 l -1.85,-11.85"
     id="path516"
     style="fill:#0f141b" />
  <path
     d="m 325.10833,140.04 1.15,3.1 -1.1,6.8 q -0.45,2.55 -4.6,5 -2.4,1.35 -4.8,2.15 -2.6,0.85 -12.2,-2.8 -8.55,-3.25 -9.9,-4.4 -0.75,-0.6 -0.55,-6.6 l 0.3,-5.85 1.85,-2.3 0.5,6 q 0.6,6.1 0.95,6.65 1.7,1.3 8.4,4.1 7.3,3.1 8.85,2.55 2.65,-0.9 5.45,-2.65 3.15,-2 3.4,-3.3 l 0.7,-3.05 q 0.35,-1.6 0.4,-4.7 0.05,-3.2 1.2,-0.7"
     id="path518"
     style="fill:#0f141b" />
  <path
     d="m 324.95833,179.59 q 2.5,1.35 0.45,1.8 l -2.6,0.15 -4.2,-2.75 q -2,-1.7 -2,-3.85 0,-8.6 -0.4,-12.1 -0.3,-2.7 0.7,-3.8 0.95,-1.1 1.55,1.75 0.6,2.7 0.7,5.4 l 0.1,7.6 q 0,1.55 1.35,2.9 1.3,1.25 4.35,2.9"
     id="path520"
     style="fill:#0f141b" />
  <path
     d="m 276.55833,261.79 q -2.9,-11.3 -9.2,-19 -9.8,-11.9 -25.55,-11.55 -12.9,0.25 -27.25,15.15 -10,10.35 -19.5,26.35 -6.05,10.2 -6.35,24.7 -0.2,11.45 2.2,16.25 l 0.25,0.5 -0.25,0.5 q -4.55,10.05 -4.75,16.1 -0.2,6 3.9,10.95 6.7,8.05 39.7,7.6 1.45,-0.25 5.9,3.6 l 4.3,3.75 1.1,-2.6 q 1,-2.45 1.65,-2.45 l 6.35,3.8 q 5.7,3.75 6.05,3.55 0.3,-0.15 -0.65,-4.85 -0.9,-4.65 -0.35,-4.85 0.6,-0.2 4.95,2.3 4.3,2.5 4.45,2.4 l 0.95,-3 q 0.85,-3 1.6,-3.75 0.6,-0.6 3.3,-1.75 4.95,-2.15 7.8,-4.1 5.1,-3.35 7.2,-7.6 0.7,-1.4 0.7,-3.7 0,-3.8 -1.95,-9.3 -1.65,-4.45 -3.45,-7.35 l -0.4,-0.65 0.45,-0.65 q 2.5,-3.8 2.5,-13.4 0,-15.05 -5.65,-36.95 m -33.15,-31.95 q 13.5,-0.65 23.15,7.8 9.5,8.35 13.6,24.15 2.25,8.75 3.55,19.15 1.2,9.9 1.2,18.55 0,8.05 -2.9,13.25 2.1,3.6 3.75,7.95 2.3,5.95 2.3,10.05 0,2.9 -0.95,4.8 -2.3,4.6 -8.1,8 -1.55,0.95 -8.7,4.1 l -2.6,1.25 q -0.35,0.35 -1.1,4.55 -0.8,4 -1.3,4.1 -0.55,0.1 -3.65,-1.6 l -4.75,-2.6 1.35,6.05 q 0.85,4.05 -0.35,4 -1.25,-0.05 -7.2,-3.85 l -7.1,-4.6 -1.85,3.15 q -1.5,2 -2.45,1.4 l -4.7,-4.25 q -3.75,-3.6 -4.4,-3.55 -35.4,0.7 -42.95,-8.4 -2.35,-2.85 -3.25,-5.05 -0.9,-2.3 -0.9,-5.45 0,-6.55 5.45,-18.6 l -2.15,-5.15 q -1.2,-3.75 -1.2,-8.1 0,-6.8 2,-14.75 2.15,-8.55 5.8,-14.65 10.7,-17.95 20.85,-27.65 14,-13.25 29.55,-14.05"
     id="path522"
     style="fill:#0f141b" />
  <path
     d="m 269.45833,247.89 q 5.8,4.3 7.55,8.8 l -1.1,0.45 q -1.7,-4.35 -6.25,-7.9 -4.55,-3.5 -11.45,-5.85 -11.35,-3.8 -23.7,-2.95 -12.4,0.85 -20.7,6 l -0.65,-1 q 8.75,-5.4 20.2,-6.65 12,-1.25 23.25,2.5 7.25,2.45 12.85,6.6"
     id="path524"
     style="fill:#0f141b" />
  <path
     d="m 256.50833,266.99 q 16.05,4.8 26.4,16.05 l -0.9,0.8 q -10.05,-10.95 -25.95,-15.4 -11.1,-3.1 -23.6,-2.75 -13.5,0.4 -25.3,4.55 -11.75,4.2 -16.9,10.4 l -0.9,-0.75 q 5.3,-6.5 17.4,-11 12.35,-4.65 25.9,-5 12.3,-0.35 23.85,3.1"
     id="path526"
     style="fill:#0f141b" />
  <path
     d="m 189.25833,315.89 0.55,-2.25 q 16.75,-14.65 51.65,-12.25 13.45,0.9 25.1,4.25 11,3.2 14.55,6.75 l 0.05,1.95 q -3.45,-3.5 -14.65,-6.6 -11.75,-3.2 -25.45,-4.05 -35.35,-2.2 -51.8,12.2"
     id="path528"
     style="fill:#0f141b" />
  <path
     d="m 194.00833,334.29 q -2.45,2.25 -1.25,7.05 0.35,1.3 -0.4,1.3 -0.7,-0.05 -1.55,-1.35 -2.8,-4.25 1.65,-8.2 4.5,-4 15,-6.45 15.9,-3.7 39.25,-2.85 25,0.9 32.9,6.8 1.45,1.1 2.15,2.55 0.75,1.55 0.15,2.65 l -1.2,1.65 q -0.6,0.45 -0.4,-0.5 0.15,-1 -0.55,-2.4 -0.75,-1.45 -1.85,-2.25 -7.5,-5.6 -31.85,-6.3 -22.6,-0.6 -38,3 -11.1,2.55 -14.05,5.3"
     id="path530"
     style="fill:#0f141b" />
  <path
     d="m 215.15833,342.89 q 1.9,1.75 7.8,2.65 l 13.2,0.65 q 7.25,-0.3 13.05,-1.7 5.85,-1.45 7.6,-3.35 0.5,-0.55 0.5,-1.1 -0.1,-2 -6.1,-3.35 -6.45,-1.45 -15.5,-1.05 -9.05,0.35 -15.35,2.35 -5.9,1.8 -5.8,3.8 0,0.5 0.6,1.1 m -1.25,0.85 q -0.9,-0.85 -1,-1.9 -0.1,-2.95 7.15,-5.1 6.55,-1.95 15.6,-2.3 9.1,-0.35 15.75,1 7.4,1.55 7.55,4.55 0,1.1 -0.85,1.95 -2,2.15 -8,3.65 -6.05,1.5 -13.9,1.8 l -14,-0.7 q -6.1,-1 -8.3,-2.95"
     id="path532"
     style="fill:#0f141b" />
  <path
     d="m 227.30833,340.79 c 0.0333,0.46667 0.81667,0.88333 2.35,1.25 1.85435,0.28921 3.52801,0.45 6.25,0.45 3.06667,-0.1 5.43333,-0.53333 7.1,-1.3 0.8,-0.33333 1.2,-0.7 1.2,-1.1 0,-0.36667 -0.4,-0.68333 -1.2,-0.95 -1.83333,-0.63333 -4.26667,-0.88333 -7.3,-0.75 -2.43333,0.1 -4.5,0.41667 -6.2,0.95 -1.5,0.5 -2.23333,0.98333 -2.2,1.45 m 2,1.9 c -2.06667,-0.43333 -3.11667,-1.05 -3.15,-1.85 -0.0333,-0.83333 0.96667,-1.53333 3,-2.1 1.8,-0.53333 3.98333,-0.85 6.55,-0.95 0,0 3.65577,-0.26989 7,0.5 1.9,0.46667 2.8,1.08333 2.7,1.85 -0.1,0.7 -0.76667,1.26667 -2,1.7 -1.96667,0.73333 -4.46667,1.15 -7.5,1.25 -3.67468,0.1361 -6.6,-0.4 -6.6,-0.4"
     id="path534"
     sodipodi:nodetypes="ccccsccccccccccccc"
     style="fill:#0f141b" />
  <path
     d="m 38.808333,178.54 q -3,7.55 -1.7,10.1 1.7,3.45 3.35,4.75 1.4,1.1 3.4,1.1 4.05,0 10.5,-1.45 7,-1.5 7.6,-2.95 l 0.85,-2.15 q 3.9,-9.8 6,-11.6 1.35,-1.05 1.75,-0.5 0.4,0.55 -0.3,2.4 l -2.3,4.85 q -1.85,3.7 -2.55,5.4 l -1.05,3.3 q -1.15,2.8 -10.4,4.55 l -10.1,1.2 q -2.75,0 -4.9,-2 -1.95,-1.75 -4,-5.8 -1.9,-3.85 1.7,-13.35 l 4.1,-8.85 2.85,-4.55 q 1.55,-2.3 3.75,-3.85 2.5,-1.75 9.95,-3.3 7.15,-1.5 10.55,-1.2 2.7,0.25 10.25,6.2 l 9.85,8.15 q 4,3.2 9.8,13.75 5.199997,9.45 7.299997,15.95 7.15,-4.5 10.75,-6.1 5.95,-2.6 9.1,-1.2 2.8,1.25 7.4,6.15 5.2,5.55 5.75,9.25 0.35,2.45 -1.2,3.8 l -17.85,12.95 -15.65,10.95 -6.049997,5 q -3.35,2.4 -7.05,2.6 l -11.5,-1.25 -4.65,-1.1 -3.1,-0.55 -8.65,2.3 q -7.25,1.55 -10.1,0.8 -1.8,-0.5 -4.6,-2.8 l -4.6,-4.2 q -2.25,-2.15 -7.6,-5.5 l -6.35,-3.7 q -0.85,1.5 -1.65,6.95 -0.9,5.5 -10.1,8.75 l -1.8,0.7 q -1.75,0.75 -3.8,0.65 -2.0499997,-0.05 -3.5999997,-0.85 -1.35,-0.7 -2.4,-1.65 -1.25,-1.15 -1.5,-2.25 -0.75,-3.4 -0.5,-8.55 0.25,-6.2 2.15,-8.5 l 3.35,-3.8 1.5499997,-1.55 2.75,1.7 -1.65,1.4 -3.2999997,3.55 q -1.45,1.75 -1.8,7.1 -0.3,4.8 0.4,7.8 0.3,1.4 1.7,2.1 1.0999997,0.55 2.5499997,0.6 1.5,0 2.8,-0.55 l 1.9,-0.7 q 3.75,-1.35 5.45,-2.4 2.9,-1.75 3.25,-4.1 0.8,-5 2.5,-8.85 1.5,-3.45 3.15,-4.95 1.45,-1.3 2.1,-1.05 0.6,0.2 -0.25,1.25 -1,1.2 -2.25,5.1 9.1,4.55 14.6,9.6 l 3.8,3.45 q 2.15,1.75 3.55,2.1 l 8.45,-0.3 q 4.8,-0.8 7.55,-1.7 l 4.3,-0.15 6.55,0.7 q 7.35,1.25 10,1.1 3.4,-0.15 6.45,-1.9 1.9,-1.05 5.849997,-4.3 0.3,-0.25 15.5,-10.95 14.8,-10.4 17.55,-12.8 0.6,-0.6 0.45,-1.7 -0.4,-2.85 -4.55,-7.45 -3.85,-4.3 -6.25,-5.35 -2.9,-1.3 -12.6,4.05 -5.7,3.1 -11.2,6.95 -1.899997,1.3 -1.849997,0.35 0.05,-0.85 1.4,-2.6 l 2.149997,-2.3 0.95,-0.8 q -1.35,-5.55 -6.449997,-15 -5.4,-10 -9.15,-13 l -11.8,-9.25 q -6.75,-4.95 -8.95,-5.25 -2.4,-0.3 -8.65,1.35 -6.25,1.65 -8.55,3.15 -1.9,1.25 -3.05,2.95 l -2.4,3.85 q -2.55,3.75 -4.95,9.75"
     id="path536"
     style="fill:#0f141b" />
  <path
     d="m 12.958333,189.69 q 3.65,-3.85 6.65,-4.35 l 0.4,2.3 q -2,0.35 -5.1,3.6 -3.2,3.3 -4.1,6.3 -1.3999997,4.55 -2.1499997,8.7 -1.1,5.75 0,6.6 1.9499997,1.6 4.7999997,2.7 3.5,1.4 4.75,0.25 l 4.2,-5.05 2.55,-3.55 2.55,0.85 -3,4.35 -4.65,6.1 q -2.1,2.35 -6.9,0.65 -3.5999997,-1.3 -6.6499997,-3.75 -1.85,-1.45 -0.4,-9.4 l 1.8,-7.65 q 1.4,-4.6 5.2499997,-8.65"
     id="path538"
     style="fill:#0f141b" />
  <path
     d="m 35.158333,170.64 q -4,3.2 -8,7.6 -5.15,5.7 -6.2,9.4 -2.45,8.4 -2.55,12.65 -0.1,2.75 0.75,3.35 l 0.8,0.55 q 2.75,2 4,2.4 2,0.7 3.7,-0.65 l 5.7,-3.95 q 4.75,-3.35 5.35,-4.55 l 1.5,-3 1.9,1.4 -1.55,3.95 q -0.5,1.15 -5.6,4.5 l -6.1,3.9 q -2.65,2.1 -5.7,0.9 l -4.55,-2.95 -0.8,-0.6 q -2,-1.4 -1.7,-6.85 0.25,-5.5 2.7,-13.9 1.45,-4.85 7.9,-11.3 l 6.25,-5.5 q 3.7,-3 10.15,-1 l -0.65,2.25 q -4.05,-1.2 -7.3,1.4"
     id="path540"
     style="fill:#0f141b" />
</svg>
