<?xml version="1.0" encoding="UTF-8"?>
<!-- Created with Inkscape (http://www.inkscape.org/) -->
<svg version="1.1" viewBox="0 0 101.02 69.063" xmlns="http://www.w3.org/2000/svg">
 <defs>
  <clipPath id="clipPath150446">
   <path d="m0 792h612v-792h-612z"/>
  </clipPath>
 </defs>
 <g transform="translate(-14.96 -39.424)">
  <g transform="matrix(1.4388 0 0 -1.4388 -248.41 697.28)">
   <g clip-path="url(#clipPath150446)">
    <g transform="translate(228.16 451.5)">
     <path d="m0 0c-0.973-0.824-1.967-5.978-2.214-11.491-0.182-4.059-0.103-11.495 2.473-15.686 1.764-2.87 4.368-3.473 7.688-2.069l0.199 0.04c14.344 5.458 16.503 17.933 16.934 21.596 0.307 2.605-6.014 5.687-8.451 4.611-0.661 1.645-6.854 3.738-8.645 2.303-2.026 1.979-5.815 2.531-7.984 0.696" fill="#001921"/>
    </g>
    <g transform="translate(250.16 446.42)">
     <path d="m0 0c-4.909 2.902-5.737 1.509-7.508-3.386-0.477-1.319-1.088-2.339-1.379-2.899-0.29-0.56-0.546-0.356-0.25 0.194 0.297 0.55 0.628 1.806 1.059 2.996 0.71 1.964 1.314 4.064 2.213 4.792-0.236 0.412-1.374 1.1-3.204 1.674-3.982 1.247-5.456 0.325-6.416-3.271l-0.394 0.298c0.093 0.57 0.669 2.404 1.465 3.36 0.015 0.018 0.027 0.031 0.041 0.047-0.291 0.497-1.596 1.207-3.21 1.491-0.981 0.174-2.807 0.312-4.01-0.706-1.541-1.304-3.974-19.265 0.389-26.362 1.601-2.604 3.952-3.274 6.986-1.99 13.403 5.671 15.817 17.781 16.238 21.358 0.084 0.719-0.652 1.595-2.02 2.404" fill="#65a9dc"/>
    </g>
    <g transform="translate(234.07 447.33)">
     <path d="M 0,0 C 0,0 0.334,0.525 0.708,1.102 0.96,1.73 1.292,2.394 1.675,2.854 1.689,2.872 1.701,2.885 1.715,2.901 1.615,3.073 1.39,3.271 1.076,3.467 1.023,2.926 0.68,2.052 0.335,1.609 -0.134,1.005 0,0 0,0" fill="#5892bf"/>
    </g>
    <g transform="translate(242.79 446.86)">
     <path d="m0 0c-0.654-1.253-1.795-5.743-1.839-6.691 0.02 0.051 0.045 0.106 0.077 0.165 0.297 0.55 0.628 1.806 1.058 2.996 0.711 1.964 1.314 4.064 2.214 4.792-0.153 0.265-0.68 0.645-1.524 1.035 0.383-0.514 0.53-1.308 0.014-2.297" fill="#5892bf"/>
    </g>
    <g transform="translate(251.28 445.62)">
     <path d="m0 0c0.994-4.717-5.998-19.11-16.72-21.891-1.231-0.318-2.397-0.732-3.489-1.196 1.345-0.717 2.973-0.677 4.868 0.125 13.402 5.67 15.816 17.781 16.237 21.358 0.057 0.486-0.262 1.044-0.896 1.604" fill="#5892bf"/>
    </g>
    <g transform="translate(184.66 426.7)">
     <path d="m0 0c-0.698-0.126-1.258-0.359-1.473-0.833-0.648-1.424 1-4.379 3.459-6.533 2.795-2.449 7.858-4.6 11.529-2.305 0.266 0.166-0.104 0.753-0.076 1.048 0.101 1.039-1.374 2.509-3.313 4.323l-0.933 0.89c-2.009 2.009-6.858 3.833-9.193 3.41" fill="#001921"/>
    </g>
    <g transform="translate(187.03 420.05)">
     <path d="m0 0c-2.179 1.909-3.433 4.204-2.917 5.339 0.125 0.274 0.432 0.456 0.913 0.544 2.135 0.387 6.52-1.229 8.379-3.088l0.948-0.904c1.172-1.097 3.117-2.917 3.117-3.752 0-0.016 0-0.033-2e-3 -0.049-6e-3 -0.069-0.03-0.151-0.156-0.23-3.377-2.11-7.65-0.166-10.282 2.14" fill="#fffbda"/>
    </g>
    <g transform="translate(184 424.91)">
     <path d="m0 0c-0.075-1.226 1.124-3.19 3.029-4.86 2.234-1.957 5.65-3.652 8.697-2.83-4.399 0.839-9.283 3.484-11.726 7.69" fill="#dcd9bd"/>
    </g>
    <g transform="translate(192.78 422.84)">
     <path d="m0 0-2e-3 3e-3z" fill="#3ca9d9"/>
    </g>
    <g transform="translate(187.64 433.11)">
     <path d="m 0,0 c 0,-14.934 13.494,-23.895 28.421,-23.895 17.028,0 26.578,10.351 26.038,23.062 C 53.9,12.313 43.466,23.975 26.941,24.103 12.046,24.218 0,13.061 0,0" fill="#001921"/>
    </g>
    <g transform="translate(232.73 414.82)">
     <path d="m0 0c-0.499 6.703-16.921 14.399-29.898 14.654-3.898 0.077-6.621-0.512-8.465-1.412-2.667-1.3-3.423-4.875-1.721-7.209 4.501-6.174 12.358-10.582 21.804-10.768 8.456-0.167 15.873 2.36 18.28 4.735" fill="#fffbda"/>
    </g>
    <g transform="translate(197.92 424.09)">
     <path d="m0 0c2.413-0.805 3.933 0.447 5.094 0.268 1.438-0.221 4.063-3.272 10.635-2.771 5.274 0.402 8.491 3.352 3.55 5.138-4.638 1.611-9.723 2.655-14.366 2.746-3.898 0.077-6.621-0.512-8.465-1.412-0.016-8e-3 -0.03-0.017-0.045-0.025 1.056-2.219 2.637-3.624 3.597-3.944" fill="#dcd9bd"/>
    </g>
    <g transform="translate(195.26 417.84)">
     <path d="m0 0c4.64-4.551 11.372-7.603 19.194-7.757 8.456-0.167 15.873 2.361 18.28 4.736-0.011 0.141-0.031 0.284-0.055 0.426-10.294-4.537-28.333-3.579-37.419 2.595" fill="#dcd9bd"/>
    </g>
    <g transform="translate(240.98 433.13)">
     <path d="m0 0c-1.567 13.48-12.275 23.223-26.539 23.223-19.32 0-30.847-18.338-23.541-32.683 0.603 5.362 4.928 6.556 11.663 6.502 13.515-0.108 30.755-7.806 30.7-15.015 5.407 3.665 7.771 10.678 7.771 16.314 0 0.547 0.01 1.102-0.054 1.659" fill="#65a9dc"/>
    </g>
    <g transform="translate(201.5 450.81)">
     <path d="m0 0c-4.896 6.388-12.342 0.11-7.956-5.36 0.813-1.013 9.235 3.691 7.956 5.36" fill="#65a9dc"/>
    </g>
    <g transform="translate(197.32 449.81)">
     <path d="m0 0c-1.357-0.262-1.97-1.707-0.963-2.058 1.007-0.35 1.207 0.784 1.775 1.266 0.57 0.481 0.545 1.055-0.812 0.792" fill="#5892bf"/>
    </g>
    <g transform="translate(196.32 453.89)">
     <path d="m0 0c-1.899-0.246-3.942-1.46-4.429-3.602-0.411-1.809 0.228-4.012 1.426-5.049 0.521-0.451 1.247-0.308 0.47 0.423-0.777 0.732-1.636 2.946-1.069 4.48 0.575 1.553 1.982 2.704 3.651 2.921 1.828 0.237 3.967-1.216 4.88-2.433 0.912-1.218 0.879-0.236 0.517 0.364-1.601 2.653-4.246 3.052-5.446 2.896" fill="#001921"/>
    </g>
    <g transform="translate(196.46 449.61)">
     <path d="m0 0c-0.467-0.343-0.747-0.741-0.544-1.247 0.204-0.505 0.235-0.273 0.317 0 0.081 0.273 0.422 1.101 1.72 1.25 0.693 0.08 0.465 0.217 0.094 0.302-0.37 0.084-1.128 0.032-1.587-0.305" fill="#001921"/>
    </g>
    <g transform="translate(219.79 447.05)">
     <path d="m0 0c-0.391 3.211 4.96 5.719 8.456 2.648 2.848-2.503 2.747-7.494-1.103-8.6s-6.962 2.74-7.353 5.952" fill="#65a9dc"/>
    </g>
    <g transform="translate(223.27 446.31)">
     <path d="m0 0c-0.219-0.525 0.919-1.839 1.401-2.146 0.481-0.306 1.094-0.437 1.225 0.044 0.132 0.482-0.13 1.839-0.962 2.189-0.944 0.398-1.445 0.438-1.664-0.087" fill="#5892bf"/>
    </g>
    <g transform="translate(222.41 451.29)">
     <path d="m0 0c-1.723-0.697-2.726-2.239-3.018-3.943-0.115-0.673 0.333-0.918 0.536-0.048 0.267 1.144 1.128 2.459 2.628 3.066 1.739 0.703 3.729 0.363 5.305-1.022 1.522-1.338 2.107-3.484 1.655-5.305-0.343-1.387-1.7-2.215-2.454-2.626-0.807-0.441-0.38-0.788 0.147-0.616 1.577 0.516 3.023 1.663 3.426 3.29 0.506 2.041-0.449 4.452-2.141 5.938-1.76 1.546-4.119 2.061-6.084 1.266" fill="#001921"/>
    </g>
    <g transform="translate(223.57 446.67)">
     <path d="m0 0c-0.425-0.251-0.139-0.291 0.138-0.285 1.627 0.034 2.132-1.822 2.05-2.111-0.083-0.289 0.173-0.385 0.313-0.044 0.14 0.339-0.055 1.751-1.028 2.336-0.526 0.314-1.048 0.354-1.473 0.104" fill="#001921"/>
    </g>
    <g transform="translate(194.08 426.33)">
     <path d="m0 0c0.983-3.388 1.802-5.778 2.315-5.778 0.512 0 1.485 1.59 2.69 5.507l-0.164 0.383-4.933 0.205z" fill="#001921"/>
    </g>
    <g transform="translate(196.46 421.71)">
     <path d="M 0,0 C -0.32,-0.064 -1.261,2.485 -1.831,4.441 -1.312,4.42 1.335,4.31 1.825,4.29 0.981,1.595 0.32,0.064 0,0" fill="#fff"/>
    </g>
    <g transform="translate(194.63 426.15)">
     <path d="m0 0c0.195-0.672 0.436-1.413 0.678-2.095 1.02 0.056 1.738-0.334 1.864-1.198 0.312 0.728 0.69 1.787 1.114 3.141-0.49 0.021-3.137 0.131-3.656 0.152" fill="#dbdcdc"/>
    </g>
    <g transform="translate(216.31 423.89)">
     <path d="m0 0-5.28-0.065 0.129-0.321c1.236-3.092 2.269-5.258 2.781-5.45 0.513-0.192 1.892 2.083 2.947 5.508l-0.251 0.332z" fill="#001921"/>
    </g>
    <g transform="translate(215.99 423.41)">
     <path d="m0 0c-0.4-1.286-1.559-4.033-1.921-4.205-0.364-0.17-1.517 2.1-2.34 4.153 0.556 7e-3 3.735 0.046 4.261 0.052" fill="#fff"/>
    </g>
    <g transform="translate(211.73 423.36)">
     <path d="m0 0c0.277-0.692 0.592-1.406 0.901-2.045 1.265 0.126 1.922-0.399 2.129-0.981 0.457 0.957 0.986 2.291 1.231 3.078-0.526-6e-3 -3.705-0.045-4.261-0.052" fill="#dbdcdc"/>
    </g>
    <g transform="translate(194.23 431.65)">
     <path d="m0 0c-3.929-4.054 0.581-8.675 9.153-5.304 3.911-4.759 21.22-5.382 15.18 2.153-3.574 4.46-21.964 5.595-24.333 3.151" fill="#65a9dc"/>
    </g>
    <g transform="translate(202.88 425.95)">
     <path d="m0 0c0.338 0.126 0.56 0.073 0.854-0.21 7.442-7.158 20.557-2.682 15.139 2.823-0.437 0.444-1.25 0.648-0.414-0.41 3.776-4.782-6.547-8.044-14.418-1.717-0.599 0.482-0.832 0.528-1.606 0.183-7.307-3.255-11.391 1.802-8.013 4.772 0.762 0.67 0.261 0.955-0.382 0.505-3.996-2.795-0.405-9.776 8.84-5.946" fill="#001921"/>
    </g>
    <g transform="translate(200.49 429.01)">
     <path d="m0 0c0.118-0.163 0.445-0.421 0.626-0.599 0.181-0.176 0.415-0.272 0.311 0.057-0.104 0.328-0.633 0.817-0.777 0.815s-0.279-0.109-0.16-0.273" fill="#001921"/>
    </g>
    <g transform="translate(205.7 427.92)">
     <path d="M 0,0 C -0.132,-0.238 0.002,-0.233 0.152,-0.188 0.503,-0.083 1.265,0.352 1.375,0.503 1.473,0.639 1.353,0.796 1.224,0.784 0.91,0.753 0.168,0.302 0,0" fill="#001921"/>
    </g>
    <g transform="translate(200.82 435.77)">
     <path d="m0 0c-0.26-1.774-1.752-3.026-3.334-2.796-1.582 0.231-2.653 1.856-2.393 3.63 0.26 1.775 1.752 3.027 3.334 2.797 1.581-0.231 2.653-1.856 2.393-3.631" fill="#001921"/>
    </g>
    <g transform="translate(230.86 434.66)">
     <path d="m0 0c-0.812 2.425-3.479 4.049-5.362 3.418-2.126-0.711-3.2-3.482-2.28-6.233 0.82-2.446 3.28-3.691 5.296-3.017 1.883 0.631 3.158 3.406 2.346 5.832" fill="#001921"/>
    </g>
    <g transform="translate(226.19 429.55)">
     <path d="m0 0c-1.046 0.521-1.894 1.561-2.326 2.852-0.432 1.29-0.381 2.63 0.141 3.676 0.364 0.729 0.918 1.236 1.603 1.465 1.719 0.575 3.732-0.796 4.489-3.056 0.196-0.585 0.288-1.173 0.288-1.733 0-1.605-0.76-2.982-2.033-3.408-0.686-0.23-1.433-0.159-2.162 0.204" fill="#fff"/>
    </g>
    <g transform="translate(238.97 426.41)">
     <path d="m0 0c-0.087 2.444-1.637 4.361-3.553 4.29-2.081-0.077-3.396-2.002-3.306-4.513 0.086-2.427 1.541-4.008 3.703-3.928 2.043 0.075 3.237 1.864 3.156 4.151" fill="#001921"/>
    </g>
    <g transform="translate(233.91 423.23)">
     <path d="M 0,0 C -0.762,0.708 -1.225,1.818 -1.268,3.044 -1.343,5.167 -0.117,6.941 1.466,7 2.088,7.023 2.689,6.781 3.205,6.301 3.967,5.593 4.429,4.483 4.473,3.256 4.548,1.134 3.322,-0.64 1.739,-0.699 1.117,-0.722 0.516,-0.48 0,0" fill="#fff"/>
    </g>
    <g transform="translate(231.21 426.32)">
     <path d="m0 0c-0.577 1.231-2.162 2.075-3.106 1.631-1.005-0.472-1.481-2.163-0.872-3.463 0.608-1.294 2.352-1.987 3.241-1.568 1.005 0.472 1.346 2.1 0.737 3.4" fill="#001921"/>
    </g>
    <g transform="translate(227.75 424.69)">
     <path d="M 0,0 C -0.537,1.142 -0.284,2.395 0.564,2.793 1.22,3.102 2.536,2.584 3.071,1.444 3.515,0.499 3.324,-0.964 2.507,-1.349 1.772,-1.694 0.533,-1.138 0,0" fill="#fff"/>
    </g>
    <g transform="translate(225.74 416.94)">
     <path d="m0 0c2.554 2.715 8.074 6.644 12.604 4.902 2.276-0.876-1.768-10.091-11.735-9.116-2.735 0.268-3.422 1.499-0.869 4.214" fill="#fffbda"/>
    </g>
    <g transform="translate(226.27 413.77)">
     <path d="M 0,0 C -1.528,-0.213 -2.009,-1.414 -0.013,-1.298 9.997,-0.717 12.979,4.624 12.676,7.156 10.075,2.701 4.6,0.642 0,0" fill="#dcd9bd"/>
    </g>
    <g transform="translate(225.48 417.12)">
     <path d="m0 0c-0.685-0.849-0.256-1.009 0.398-0.304 1.357 1.462 7.879 6.547 12.353 4.731 0.399-0.162 0.671-0.897 0.503-1.699-0.49-2.336-3.267-6.021-12.234-6.854-0.825-0.076-1.041-0.633 0.095-0.583 8.808 0.391 11.932 3.808 12.972 6.668 0.512 1.41 0.198 2.706-0.833 3.139-5.358 2.249-10.8-2.052-13.254-5.098" fill="#001921"/>
    </g>
    <g transform="translate(218.84 434.06)">
     <path d="m0 0c0-1.852-1.501-3.353-3.353-3.353-1.851 0-3.353 1.501-3.353 3.353s1.502 3.353 3.353 3.353c1.852 0 3.353-1.501 3.353-3.353" fill="#001921"/>
    </g>
    <g transform="translate(199.59 437.38)">
     <path d="m0 0c-0.142-0.802-0.874-1.343-1.636-1.208-0.762 0.134-1.265 0.894-1.123 1.695 0.141 0.803 0.874 1.344 1.636 1.209 0.762-0.134 1.265-0.894 1.123-1.696" fill="#fff"/>
    </g>
    <g transform="translate(216.97 435.53)">
     <path d="m0 0c0-0.869-0.705-1.573-1.573-1.573-0.869 0-1.573 0.704-1.573 1.573s0.704 1.573 1.573 1.573c0.868 0 1.573-0.704 1.573-1.573" fill="#fff"/>
    </g>
   </g>
  </g>
 </g>
</svg>
