<?xml version="1.0" encoding="UTF-8"?>
<!-- Created with Inkscape (http://www.inkscape.org/) -->
<svg version="1.1" viewBox="0 0 120.85 120.23" xmlns="http://www.w3.org/2000/svg">
 <defs>
  <clipPath id="clipPath33682">
   <path d="m0 792h612v-792h-612z"/>
  </clipPath>
 </defs>
 <g transform="translate(-2.7751 -3.8573)">
  <g transform="matrix(2.014 0 0 -2.014 -547.88 935.38)">
   <g clip-path="url(#clipPath33682)">
    <g transform="translate(287.39 430.55)">
     <path d="m0 0c-1.131 0.565-3.569 1.043-5.768-0.693l-0.657-0.603c-0.622 0.245-1.369 0.296-2.351 0.025-3.356-0.926-5.323-3.472-4.05-3.935 1.273-0.462 4.754-1.15 5.796-2.886l3.414 2.47z" fill="#0086bb"/>
    </g>
    <g transform="translate(277.55 424.38)">
     <path d="m0 0c1.16-0.447 2.292-1.053 2.813-1.921l3.414 2.47 2.047 2.97c-2.976-0.35-7.964-1.208-8.274-3.519" fill="#006b95"/>
    </g>
    <g transform="translate(283.18 427.14)">
     <path d="M 0,0 C 0.312,0.624 1.054,0.912 1.054,0.912 0.244,1.953 -1.7,3.229 -2.857,2.419 -1.891,1.946 -0.627,1.332 0,0" fill="#eef3f6"/>
    </g>
    <g transform="translate(324.52 426.78)">
     <path d="m0 0c-0.463 2.662-2.131 7.108-3.172 8.034l-23.974 4.64c-0.589-0.261-1.97-1.899-2.676-2.885-0.811-1.133-7.131-5.946-9.141-7.406-3.633-2.637-6.193-6.26-5.872-10.914 0.152-2.205 1.478-4.276 2.942-5.872l-0.045 0.014c-2.542-0.847-3.631-3.412-3.506-4.288l17.019-1.234 0.059-0.115c2.661-1.273 15.258-3.254 23.539 3.2z" fill="#0086bb"/>
    </g>
    <g transform="translate(303.89 414.74)">
     <path d="m0 0c-0.854 0-1.351 0.64-1.28 1.564-4.693-2.488-12.596-2.375-16.995 0.925-2.845 2.134-4.978 5.831-0.7 11.439-3.265-2.591-5.359-6.066-5.058-10.437 0.153-2.205 1.312-4.261 2.776-5.857l-0.044 0.014c-2.083-0.694-3.622-3.478-3.507-4.288l17.019-1.234 0.059-0.115c2.662-1.273 15.258-3.254 23.539 3.2 0 0-0.947 3.794-3.08 5.5-1.122-2.654-10.098-3.413-12.729-0.711" fill="#006b95"/>
    </g>
    <g transform="translate(297.7 433.3)">
     <path d="m0 0c1.707-1.28-0.145 6.152-0.145 6.152-0.588-0.261-1.929-1.845-2.854-2.886-0.324-0.365-1.297-1.204-2.509-2.203 2.45 1.426 3.801 0.217 5.508-1.063" fill="#006b95"/>
    </g>
    <g transform="translate(303.18 416.97)">
     <path d="m0 0c-1.883-2.389-6.664-9.773-7.626-11.254-0.963-1.481-1.29-1.881-3.702-2.295-5.183-0.889-12.701 0.131-14.956 1.258-1.516 0.758-0.885 1.167 0.148 1.555-0.148 0.741 2.591 3.11 8.292 3.924-0.987 2.878-1.109 10.295 3.628 14.586 0 0 16.099-5.385 14.216-7.774" fill="#0086bb"/>
    </g>
    <g transform="translate(285.6 418.67)">
     <path d="m0 0c-1.026-3.505-0.818-6.891-0.263-8.512-5.701-0.814-8.44-3.183-8.292-3.924-1.485-0.558-1.549-0.854-0.148-1.555 0.855-0.427 2.468-0.839 4.422-1.137 0.243 1.952 10.569 1.845 9.329 2.725-3.823 2.711-5.032 7.689-5.048 12.403" fill="#006b95"/>
    </g>
    <g transform="translate(323.76 427.56)">
     <path d="m0 0c1.703-1.851 6.521-9.136 6.743-16.021 1.504-1.112 3.029-1.901 2.508-3.012-0.468-0.996-5.319-3.591-7.868-2.415-4.903 2.262-7.233 5.9-8.269 8.787z" fill="#0086bb"/>
    </g>
    <g transform="translate(332.26 410.26)">
     <path d="m0 0c-0.486 0.401-1.122 0.812-1.754 1.279-0.011 0.333-0.035 0.667-0.067 1.001-0.452-1.995-1.092-2.208-0.737-2.706 0.392-0.549 1.992 0.782 2.558 0.426" fill="#006b95"/>
    </g>
    <g transform="translate(317.31 415.69)">
     <path d="m0 0c-1.898 1.964-0.431-0.792-0.431-0.792 1.036-2.888 3.367-6.525 8.269-8.787 2.549-1.176 7.4 1.418 7.868 2.414 0.016 0.035 0.03 0.068 0.043 0.102-6.91-4.127-13.851 5.099-15.749 7.063" fill="#006b95"/>
    </g>
    <g transform="translate(297.29 439.22)">
     <path d="m0 0c-2.242-4.657 1.658-7.996 6.478-9.897 7.507-2.963 16.932-0.458 17.455 5.164z" fill="#eef3f6"/>
    </g>
    <g transform="translate(297.29 439.22)">
     <path d="m0 0c-0.957-1.988-0.792-3.735 0.083-5.233 0.685 0.596 2.523 1.943 3.458 3.511z" fill="#cacfd2"/>
    </g>
    <g transform="translate(298.4 441.97)">
     <path d="m0 0c-1.328-1.822-1.568-5.152-0.329-7.01 4.562-6.844 18.602-7.103 22.717-1.427 1.018 1.405 0.964 4.237 0.476 5.32z" fill="#0086bb"/>
    </g>
    <g transform="translate(321.42 437.03)">
     <path d="m0 0c-0.025 0.774-0.129 1.459-0.289 1.814l-22.728 3.124c-1.327-1.821-1.568-5.151-0.329-7.01-0.089 1.261 1.689 3.181 2.756 2.825 1.067-0.355 19.982 0.356 20.59-0.753" fill="#006b95"/>
    </g>
    <g transform="translate(299.79 441.39)">
     <path d="m0 0s0.179 0.201 0.29 0.379c3.078-0.271 21.189-2.269 21.189-2.269 0.565-1.178-2.339-6.192-11.355-5.23-8.519 0.909-10.379 5.542-10.662 7.144z" fill="#eef3f6"/>
    </g>
    <g transform="translate(304.3 440.98)">
     <path d="m0 0-4.172 0.86-0.335-0.468-0.537 0.046c0.155-0.878 0.662-2.559 2.32-4.02 1.13 0.985 2.107 2.214 2.724 3.582" fill="#cacfd2"/>
    </g>
    <g transform="translate(320.56 447.91)">
     <path d="m0 0c-1.52 2.955-16.841 5.403-18.529 2.406s-1.858-7.985-1.858-7.985c-0.329-1.225 1.862-4.875 6.73-6.221 6.156-1.703 13.404 0.073 14.323 3.604 0.319 1.226 0.407 3.692-0.517 4.5 0.354 0.192 0.881 1.693-0.149 3.696" fill="#0086bb"/>
    </g>
    <g transform="translate(320.71 444.21)">
     <path d="m0 0c0.694 1.214 0.372 2.683-0.149 3.696-1.519 2.954-16.841 5.403-18.529 2.406s-1.858-7.985-1.858-7.985c-0.211-0.782 0.608-2.551 2.492-4.079-0.056 0.668 0.798 4.081 4.14 3.726 0.542 1.952 2.037 1.901 3.342 1.422 2.133-0.783 4.843-0.733 6.613-0.143 1.281 0.427 1.351-1.421 0.285-2.204 1.79 0.199 2.773-0.426 3.152-3.023 0.509 0.502 0.868 1.065 1.029 1.684 0.254 0.975 0.631 3.496-0.517 4.5" fill="#006b95"/>
    </g>
    <g transform="translate(317.03 453.76)">
     <path d="m0 0c-6.01-2.05-10.83 2.759-11.951-0.965-0.452-2.054 0.596-5.011 0.596-5.011 3.634 4.806 12.303-1.429 12.815-2.439 0.511-1.01-0.638 7.409-1.46 8.415" fill="#973010"/>
    </g>
    <g transform="translate(320.87 444.2)">
     <path d="m0 0 0.312 7.899 7.818 0.169c1.046-1.402 2.122-0.102 2.12 0.283 0 0.384 1.099-1.409 0.755-1.508-0.345-0.1-1.461-0.33-0.99-0.801 0.471-0.472 1.429-0.303 1.743-0.236 0.263-0.692-0.235-1.414-0.235-1.414s-1.414 0.472-1.555-0.094 0.282-1.084 0.942-0.989c-0.235-0.754-0.801-1.084-0.801-1.084s-0.707 0.612-1.178 0.188-0.956-1.53 0.75-1.101c0.736-0.537 0.693-1.152 0.664-1.161-0.363-0.103-0.707-0.942-0.189-1.272-0.282-0.141-0.243-0.291-0.706-0.424s-0.848 0.094-0.848 0.094-0.189 1.273-0.943 0.943-0.613-0.754-0.141-0.848c0.282-0.283 0.282-0.849 0.282-0.849s-0.951 0.458-0.942-0.329c4e-3 -0.361 0.7-0.799 0.707-0.801 0 0-1.037-0.895-1.508-0.754-0.027 0.329 0.021 0.865-0.199 0.995-0.158 0.093-0.494-0.033-0.91-0.55-0.377-0.047-0.776 0.167-0.776 0.167s0.189 0.943-0.471 0.895c-0.659-0.046-0.801-0.8-0.848-1.366-0.566 0.094-0.942 0.283-0.942 0.283s0.706 0.518 0.47 0.942c-0.235 0.424-0.659 0.518-0.895 0s-0.424-0.659-0.424-0.659l-0.471 0.329 0.047 1.037s0.997-0.186 0.801 0.99c-0.094 0.565-0.565 0.612-0.801 0.471-0.235-0.142-0.283-0.377-0.283-0.377z" fill="#eef3f6"/>
    </g>
    <g transform="translate(328.34 451.69)">
     <path d="m0 0c0.04 0.667-0.538 0.556-1.397 0.537l-2.52-0.054c-1.08-0.024-2.16-0.046-3.24-0.07-0.033-0.837-0.067-1.674-0.1-2.512-0.029-0.727-0.057-1.454-0.086-2.181-0.014-0.348-0.028-0.697-0.041-1.044-0.011-0.274-0.106-0.682-0.039-0.945 0.094-0.376 0.617-0.26 0.922-0.381 0.246-0.098 0.273-0.238 0.413-0.409 0.225-0.274 0.968 0.282 1.293 0.26 0.337-0.024 0.729-0.62 1.039-0.494 0.723 0.295 0.425 1.282 1.074 1.707 0.672 0.439 1.406 0.309 1.625 1.282 0.107 0.475-0.032 0.693 0.354 1.045 0.56 0.51 1.507 0.51 0.862 1.58-0.388 0.643-0.54 0.278-0.276 1.126 0.071 0.227 0.108 0.408 0.117 0.553" fill="#cacfd2"/>
    </g>
    <g transform="translate(295.27 453.51)">
     <path d="m0 0c-0.61-1.114-1.542-1.014-2.126-0.154-0.377-0.377-0.802-0.566-0.802-0.566s0.849-0.659 0.425-1.272c-0.425-0.612-1.037-0.566-1.367 0-0.566-0.141-0.754-1.036-0.754-1.036s0.699-0.541 0.707-0.99c0.141-0.235 0.989-0.283 0.989-0.283s-0.376 1.131 0.425 0.754 0.518-1.602-0.425-1.885c0.142-0.282 0.471-0.754 0.471-0.754s0.802 0.142 0.472-0.471-1.181-0.892-1.762 0.301c-0.33-0.377-0.689-1.008-0.689-1.008l0.472-1.508s1.084 0.707 1.602 0.048c0.236 0.848 0.66 1.366 1.272 1.036 0.683-0.367 0.259-1.746-0.594-1.437-0.283-0.189-0.396-0.872-0.396-0.872l0.472-0.471s0.801 0.755 0.895-0.094c0.104-0.937-0.449-1.398-0.626-1.442 0.344-0.396 0.956-0.631 0.956-0.631s0.282 1.225 0.659 0.989c0.378-0.235 0.707-0.659 0.707-0.659s-0.329 1.602 0.518 1.413c0.849-0.188 0.943-0.236 0.707-0.848 0.377-0.424 0.802-0.707 0.802-0.707s0.895 0.66 1.602 0.424c0.235 0.566 0.329 1.272 0.989 1.367 0.66 0.094 1.216-0.331 0.745-0.803-0.049-0.172 0.416-0.93 0.433-0.941 0.312-0.19 1.199-0.162 1.273-0.047 0.073 0.115-0.306 1.46 0.565 1.461 0.52 1e-3 0.941-0.304 1.178-0.471 0.184-0.131 0.975 1.019 0.741 1.101-0.277 0.098-1.273 0.612-1.118 1.066 0.156 0.459 0.66 0.707 1.083 0.518 0.661 0.283 0.566 0.896 0.566 0.896s-0.896 1.135 0.046 1.7l-0.261 0.589s-0.393-0.131-0.785 0c-0.392 0.13-0.36 0.371-0.458 0.915-0.097 0.544-9.609 4.772-9.609 4.772" fill="#eef3f6"/>
    </g>
    <g transform="translate(303.81 444.73)">
     <path d="m0 0c0.423 0.364 0.727 0.779 2.104-0.052 0.171-0.104 0.666 0.543 0.423 0.85-1e-3 1e-3 -0.896 1.135 0.046 1.701l-0.261 0.588s-0.393-0.131-0.785 0-0.36 0.371-0.458 0.915c-0.097 0.542-9.545 4.744-9.609 4.772 0.104-0.046-0.332-0.407-0.365-0.44-0.207-0.207-0.206-0.275-0.175-0.559 0.064-0.562-0.129-0.999-0.6-1.332-0.233-0.166-0.306-0.443-0.318-0.756-0.014-0.39 0.338-0.26 0.779-0.779 0.281-0.33 0.087-0.975 0.512-1.058 0.539-0.104 1.043 0.274 1.462-0.059 0.505-0.402-0.148-0.855 0.014-1.362 0.312-0.978 1.23-1.149 2.084-1.186 0.434-0.019 0.469 0.222 0.831-0.232 0.26-0.327 0.07-0.65 0.281-1.014 0.471-0.814 1.438-0.202 2.139-0.347 0.623-0.129 0.992-0.832 1.608-0.897 0.317-0.033 0.293 0.099 0.418 0.339 0.075 0.145-0.227 0.824-0.13 0.908" fill="#cacfd2"/>
    </g>
    <g transform="translate(313.59 450.74)">
     <path d="m0 0c-3.985 0.956-6.84-1.793-7.582-2.609-0.126-0.138 0.405-0.795 0.405-0.795s-0.349-0.288-0.371-0.398c0.582-1.452 2.422-3.642 6.934-3.946 3.912-0.264 5.54 1.814 5.634 2.238 0 0-0.361 4.392-5.02 5.51" fill="#ff859a"/>
    </g>
    <g transform="translate(318.64 445.18)">
     <path d="m0 0s-0.384 4.436-5.042 5.554c-3.985 0.956-6.84-1.793-7.583-2.609-0.125-0.137 0.405-0.795 0.405-0.795s-0.349-0.288-0.371-0.398c0.145-0.361 0.719-0.989 1.042-1.402 2.987 3.058 6.969 2.276 8.96 0.925 0.837-0.568 1.493-1.92 1.28-2.56 0.996 0.569 1.273 1.123 1.309 1.285" fill="#d56f81"/>
    </g>
    <g transform="translate(309.76 453.72)">
     <path d="m0 0c1.116-3.553-1.211-13.985-1.729-15.399-0.32-0.872-0.709-0.895-0.754-0.235-0.095 1.366-0.456 11.36-1.225 13.617-1.063 3.117 2.879 2.394 3.708 2.017" fill="#ffe792"/>
    </g>
    <g transform="translate(309.78 453.77)">
     <path d="m0 0c-1.367 0.44-4.731 0.875-3.731-2.062 0.135-0.395 0.257-1.028 0.367-1.81 0.597 2.108 1.663 3.459 3.611 2.28-0.046 0.56-0.12 1.186-0.247 1.592" fill="#dbc77f"/>
    </g>
    <g transform="translate(330.01 453.99)">
     <path d="m0 0s-0.455 1.553-0.778 1.105c-0.324-0.448-0.801-0.801-1.414-0.519-0.612 0.283 0.565 1.201 0.565 1.201s-0.329 0.119-0.565 0.59c-0.235 0.471 1.461 0.754 1.461 0.754s-0.094 0.801-0.424 0.99c-0.33-0.519-1.131-0.943-1.461-0.472-0.329 0.472 0.943 0.801 0.943 0.801s-0.774 0.82-0.943 0.754c-0.199-0.249-0.801-0.848-1.272-0.141s0.801 1.46 0.801 1.46-0.188 0.377-0.801 0.802c-0.048-0.754-0.754-1.179-1.131-0.848-0.377 0.33 0.33 1.083 0.33 1.083s-0.229 0.256-0.519 0.424c-0.093 0.055-0.677-0.278-1.177-0.612 0.377-0.943-0.142-1.131-0.707-1.272-0.566-0.142-0.283 0.669-0.262 0.833 0.026 0.213-0.938-0.052-1.011-0.221-0.055-1.684-0.814-2.572-2.254-3.647-1.031 2.43-4.125 4.148-7.549 4.001-4.033-0.172-6.479-2.038-7.022-3.343-0.913 0.824-1.507 2.055-1.394 3.372-0.377 0.613-0.864 0.512-0.864 0.512s-0.047-1.13-0.754-0.753c-0.707 0.376-0.377 1.46-0.377 1.46l-0.488 0.098-0.549-0.145s0-1.225-0.424-0.99c-0.424 0.236-0.471 0.707-0.471 0.707l-0.546-0.108-0.585-0.269 0.095-0.942s1.413-0.188 0.848-0.895c-0.566-0.707-1.512-0.349-1.653 0.405-0.519-0.094-0.797-0.405-0.797-0.405s0.753-0.565 0.188-0.99c-0.566-0.424-1.037-0.094-1.131 0.66-0.613-0.236-1.386-0.439-1.555-0.613s0.33-1.131 0.33-1.131 0.66 0.471 1.037 0.142c0.377-0.33-2e-3 -1.065-0.707-1.131-8e-3 -0.312 0.377-0.801 0.377-0.801s1.366 0.424 1.461-0.236c0.094-0.659-0.896-1.319-1.508-0.942-0.425-0.188-1.084-0.236-1.084-0.236l0.236-1.083s0.706 0.518 1.083 0c0.377-0.519 0.377-0.99-0.377-1.179-0.082-0.309 0.171-1.185 0.236-1.272l0.848 0.283s0.519 1.178 1.084 0.518c0.565-0.659 0.659-1.366-0.236-1.319-0.188-0.189 0.141-1.037 0.141-1.037s0.707 0.848 1.273 0.377c0.565-0.471 0.442-1.066-0.893-1.661 0.37-0.267 0.775-1.182 0.775-1.182l1.06 0.205s-0.282 1.413 0.518 1.366c0.802-0.047 0.943-0.465 0.755-0.747-0.01-0.015-0.017-0.026-0.024-0.036 0 1e-3 -0.041-0.072-0.04-0.071-0.017-0.026-0.172-0.062-0.078-0.23 0.094-0.167 1.116-0.271 1.272-0.188 0.157 0.082-0.329 1.366 0.189 1.319s0.83-0.929 0.789-0.99c-0.041-0.062 1.001 0.048 1.001 0.048s-0.282 1.366 0.424 1.413c0.707 0.048 0.823-0.527 0.823-0.527l0.995 1.092s-1.158 1.085-0.734 1.65c0.424 0.566 1.131 0.424 1.131 0.424s0.545 0.737 0.424 0.896c-0.121 0.158-0.754 0.094-0.99 0.377-0.215 0.259-0.104 1.847 4.335 0.753 3.167-0.78 4.814-0.709 6.508 0.035 0 0 0.484 0.322 0.991 0.542l3.296-5.854c0.092 0.321 0.154 0.606 0.61 0.149 0.613-0.612 0.14-1.044 0.14-1.044s0.754-0.047 0.989 0.094c-0.047 0.283 0.189 0.754 0.707 0.801 0.519 0.047 0.433-0.461-0.027-1.274 0.612-0.141 1.594 0.31 1.594 0.31l0.648 1.105s-0.377 0.189-0.754 0.707 0.565 1.225 1.225 0.848-0.134-0.669-0.134-0.669 0.868-0.702 1.166-0.6c0.299 0.103 0.131 0.463 0.696 0.792 0.297 0.174 0.924-0.165 1.005-0.277 0 0 0.311 0.62 0.094 1.461-0.294-0.062-0.659-0.424-1.225 0-0.565 0.424 0.053 0.896 0.424 0.99 0.372 0.093 0.912 0.063 0.912 0.063l0.596 0.832s-0.397-0.195-0.821 0.559 1.081 0.739 1.081 0.739" fill="#eef3f6"/>
    </g>
    <g transform="translate(305.8 454.07)">
     <path d="m0 0c-7e-3 -3e-3 -0.014-7e-3 -0.021-0.011-0.729-0.378-0.854-1.361-1.807-1.277-0.249 0.022-0.574 0.078-0.788-0.093-0.166-0.133 0.26-0.609-0.155-0.947-0.241-0.195-0.753 0.208-1.273-0.234-0.254-0.216-0.309-0.553-0.701-0.623-0.617-0.109-0.835 0.524-1.428 0.234-0.475-0.232-0.591-0.466-0.396-0.986 0.152-0.405 0.225-0.63-0.013-0.993-0.209-0.318-0.525-0.531-0.877-0.663-0.065-0.024-0.682-0.325-0.644-0.367 0.297-0.324 0.539-0.712 0.721-1.12l1.084 0.142s-0.283 1.413 0.518 1.366 0.965-0.422 0.776-0.705c-9e-3 -0.013-0.016-0.023-0.022-0.033-0.017-0.025-0.235-0.178-0.141-0.346 0.094-0.167 1.116-0.271 1.272-0.188 0.047 0.332-0.355 1.368 0.188 1.319 0.519-0.047 0.895-0.904 0.854-0.966-0.041-0.061 0.937 0.024 0.937 0.024s-0.282 1.366 0.424 1.413c0.707 0.048 0.833-0.527 0.833-0.527l0.985 1.102s-1.158 1.075-0.734 1.64c0.424 0.566 1.131 0.424 1.131 0.424s0.545 0.737 0.424 0.895c-0.122 0.159-0.754 0.095-0.99 0.377-0.378 0.455 0.914 1.429 3.773 0.877-0.71 0.137-1.392 0.393-2.101 0.537-0.589 0.119-1.278 9e-3 -1.829-0.271" fill="#cacfd2"/>
    </g>
    <g transform="translate(323.14 453.24)">
     <path d="m0 0c-0.381 6e-3 -0.839-0.213-1.253 0.112-0.373 0.293-0.386 0.833-0.731 1.149-0.34 0.311-1.026 0.677-1.485 0.471-0.279-0.126-0.78-0.305-1.056-0.434-0.323-0.15-0.517-0.2-0.803-0.395 0.793-1.388 1.562-2.8 2.343-4.199l0.597-1.072c0.034-0.059 0.254-0.35 0.234-0.419 0.094 0.33 0.105 0.731 0.717 0.119 0.613-0.613 0.131-1.061 0.131-1.061s0.754-0.047 0.99 0.094c-0.048 0.283 0.188 0.754 0.706 0.802 0.519 0.046 0.471-0.755-0.047-1.226 0.613-0.141 1.484 0.209 1.484 0.209 0.135 0.068 0.376 0.379 0.468 0.503 0.137 0.185 0.258 0.435 0.374 0.632-0.461 0.378-1.654 0.892-1.439 1.687 0.086 0.317 0.552 0.47 0.503 0.815-0.075 0.524-0.963 0.22-1.153 0.763-0.139 0.393 0.189 0.585 0.01 1.005-0.149 0.353-0.355 0.442-0.59 0.445" fill="#cacfd2"/>
    </g>
    <g transform="translate(307.28 456.37)">
     <path d="M 0,0 C -0.937,0.992 -0.619,2.385 0.056,3.504 -1.222,2.898 -2.207,1.99 -2.542,1.32 -2.305,0.989 -0.613,0 0,0" fill="#cacfd2"/>
    </g>
    <g transform="translate(320.85 453.59)">
     <path d="m0 0c-0.319 1.491-1.646 1.188-2.681 0.779-1.035-0.41-1.208-0.412-0.914-1.168 0.806-2.07 2.042-11.74 2.087-12.899 0.048-1.225-0.047-1.885 0.518-0.235 0.566 1.648 1.838 9.565 0.99 13.523" fill="#ffe792"/>
    </g>
    <g transform="translate(318.1 454.37)">
     <path d="m0 0c-1.035-0.41-1.141-0.412-0.847-1.167 0.185-0.476 0.392-1.351 0.603-2.431 0.324 2.015 1.675 3.294 3.013 2.707-7e-3 0.037-0.014 0.076-0.021 0.112-0.32 1.491-1.713 1.189-2.748 0.779" fill="#dbc77f"/>
    </g>
    <g transform="translate(313.4 458.3)">
     <path d="m0 0c-1.27 0.121-3.346-1.131-3.205-2.45 0.142-1.32 1.556-1.178 3.393-1.178 1.838 0 2.723 0.362 2.639 1.366-0.094 1.131-0.848 2.074-2.827 2.262" fill="#0086bb"/>
    </g>
    <g transform="translate(310.62 457.03)">
     <path d="m0 0c-0.296-0.359-0.468-0.764-0.424-1.176 0.141-1.32 1.555-1.178 3.393-1.178 0.989 0 1.7 0.106 2.135 0.36-3.733 0.027-5.084 0.098-5.104 1.994" fill="#006b95"/>
    </g>
    <g transform="translate(318.15 458.05)">
     <path d="m0 0c-0.458-0.133-0.791-1.02-0.791-2.056l1.186 0.548c0.049 0.42-0.095 1.011-0.395 1.508" fill="#ffe792"/>
    </g>
    <g transform="translate(318.1 458.04)">
     <path d="m0 0c0.3-0.497 0.497-1.046 0.448-1.465l0.825 0.402c-0.363 0.803-0.96 1.154-1.273 1.063" fill="#fff"/>
    </g>
    <g transform="translate(309.15 455.98)">
     <path d="m0 0c-0.373 2.683-1.829 2.774-1.829 2.774-0.902-0.081-1.661-0.545-1.957-1.558 0 0 2.355-1.431 3.786-1.216" fill="#fff"/>
    </g>
    <g transform="translate(309.11 456)">
     <path d="m0 0c-0.267 2.321-1.31 2.399-1.31 2.399-0.518-0.33-1.109-1.145-0.827-1.946 0 0 1.112-0.639 2.137-0.453" fill="#ffe792"/>
    </g>
    <g transform="translate(281.05 429.95)">
     <path d="M 0,0 0.676,-0.215 C 2.803,1.464 5.196,1 6.274,0.46 L 6.775,0.779 C 5.45,1.75 2.251,1.777 0,0" fill="#001921"/>
    </g>
    <g transform="translate(279.8 429.5)">
     <path d="m0 0 0.612-0.075c1.007 0.705 2.862-0.403 3.696-1.475l0.25 0.194c-0.912 1.172-2.014 2.683-4.558 1.356" fill="#001921"/>
    </g>
    <g transform="translate(278.37 429.42)">
     <path d="m0 0c-2.592-0.557-4.494-1.965-4.917-3.567-0.117-0.443 2e-3 -0.778 1.637-1.12 1.635-0.343 4.337-1.016 5.142-2.359l0.267 0.354c-0.869 1.448-3.302 1.982-4.915 2.462l-0.958 0.301c-0.203 0.074-0.294 0.202-0.286 0.403 0.033 0.84 1.59 2.455 4.179 3.169 2.203 0.608 3.314-0.405 4.433-1.647l0.297-0.33 0.234 0.214-0.297 0.327c-1.139 1.266-2.056 2.385-4.816 1.793" fill="#001921"/>
    </g>
    <g transform="translate(294.53 436.76)">
     <path d="m0 0c-0.601-0.765-7.326-6.084-9.414-7.6-4.086-2.966-6.191-5.864-5.78-10.873 0.295-3.591 2.762-6.788 5.619-8.17l0.23 0.354c-2.214 1.436-4.883 4.333-5.12 7.772-0.286 4.153 1.657 7.868 5.619 10.745 1.915 1.39 8.175 6.026 8.98 7.168 0.806 1.141 2.257 2.731 2.726 2.94l0.08 0.547c-1.061-0.4-1.947-1.619-2.94-2.883" fill="#001921"/>
    </g>
    <g transform="translate(278.87 408.07)">
     <path d="m 0,0 0.421,0.25 c -0.095,0.667 1.332,3.192 3.36,3.868 l -0.133,0.4 C 1.531,3.813 -0.7,1.108 0,0" fill="#001921"/>
    </g>
    <g transform="translate(296.25 406.94)">
     <path d="m0 0-0.182-0.381c2.624-1.641 15.316-3.537 23.888 3.143l-0.388 0.414c-7.965-6.208-20.443-4.551-23.318-3.176" fill="#001921"/>
    </g>
    <g transform="translate(321.23 434.56)">
     <path d="m0 0c0.937-0.832 2.604-5.031 3.089-7.822l0.451-0.28c-0.111 3.429-2.229 7.687-3.319 8.655z" fill="#001921"/>
    </g>
    <g transform="translate(303.47 414.67)">
     <path d="m0 0c-0.579-0.51-1.322-1.529-3.427-1.976l-0.093-0.389c2.204 0.468 3.135 1.329 3.521 1.827 0.388 0.498 0.578 1.048-1e-3 0.538" fill="#001921"/>
    </g>
    <g transform="translate(315.73 413.53)">
     <path d="m0 0c0.273-0.422 1.575-1.581 2.651-1.888l-0.128 0.524c-0.996 0.285-1.967 1.035-2.25 1.412-0.283 0.376-0.546 0.375-0.273-0.048" fill="#001921"/>
    </g>
    <g transform="translate(284.57 413.89)">
     <path d="m0 0c0-1.332 0.256-2.729 0.502-3.553-4.923-0.751-8.666-2.841-8.227-3.96-0.4-0.185-2.429-0.788-0.042-1.879 2.302-1.051 10.206-2.256 15.531-1.343 2.476 0.424 2.657 0.934 3.66 2.477 4.274 6.575 6.913 10.546 7.337 11.196 0.424 0.651 0.555 1.218-0.299 0.299-0.854-0.92-5.132-7.41-7.653-11.288-0.918-1.412-1.165-1.792-3.561-2.203-5.076-0.87-12.997 0.527-14.826 1.24-1.83 0.713 0.296 1.231 0.296 1.231l-0.035 0.176c-0.011 0.051 0.023 0.174 0.149 0.353 0.579 0.817 2.877 2.689 7.826 3.266 0.884-1.741 0.6-0.68 0.31 0.332-0.697 2.434-0.532 10.729 3.395 14.324 0.533 0.489 0.774 1.132-0.122 0.337-3.777-3.351-4.241-7.651-4.241-11.005" fill="#001921"/>
    </g>
    <g transform="translate(323.6 427.42)">
     <path d="m0 0c1.051-1.343 5.973-8.339 6.498-14.146 0.168-1.853 0.056-3.069 0.249-2.931s0.221 0.857 0.221 0.857c1.539-1.137 2.534-1.956 2.13-2.516-0.72-0.996-5.052-3.493-7.471-2.377-5.001 2.307-7.186 6.635-8.159 8.667-0.555 1.159-0.668 0.536-0.397-0.143 1.509-3.769 3.543-6.824 8.255-9.004 2.36-1.093 6.621 0.598 8.241 2.608 0.348 0.43 0.332 0.774-0.027 1.189-0.36 0.415-1.264 1.161-2.437 2.029-0.328 8.368-5.983 15.304-6.792 16.053s-0.635 0.129-0.311-0.286" fill="#001921"/>
    </g>
    <g transform="translate(276.97 406.38)">
     <path d="m0 0s-1.148-0.794-0.264-0.435c0.885 0.359 5.895 0.909 6.653 0.957 1.007 0.066 1.098 0.262 0.029 0.316-1.068 0.055-5.546-0.398-6.418-0.838" fill="#001921"/>
    </g>
    <g transform="translate(277.17 406.57)">
     <path d="M 0,0 0.444,-0.178 C 1.704,0.979 4.831,1.415 5.776,1.655 6.721,1.896 6.473,1.979 5.615,1.896 4.758,1.813 1.29,1.184 0,0" fill="#001921"/>
    </g>
    <g transform="translate(296.84 434.72)">
     <path d="m0 0c0.939-2.944 4.219-4.739 6.755-5.74 4.804-1.895 10.999-1.604 14.701 0.671 1.936 1.19 2.954 3.119 3.127 4.973l-0.357-0.12c-0.164-1.751-1.226-3.277-3.074-4.412-3.622-2.226-9.447-2.482-14.165-0.62-2.478 0.977-5.65 2.702-6.693 5.363-0.529 1.353-0.429 2.806 0.299 4.319l-0.285 0.137c-0.767-1.595-0.778-3.1-0.308-4.571" fill="#001921"/>
    </g>
    <g transform="translate(297.9 434.84)">
     <path d="m0 0c2.2-3.3 7.007-5.506 12.35-5.611 4.788-0.094 8.577 1.757 10.714 4.178 1.414 1.602 1.058 5.016 0.361 5.522l-0.263-0.547c0.376-0.835 0.312-3.69-0.44-4.727-1.815-2.504-5.833-4.004-10.484-3.912-5.208 0.102-9.762 2.145-11.887 5.331-1.23 1.845-0.826 4.717 5e-3 5.964l-0.351 0.234c-1.122-1.397-1.332-4.442-5e-3 -6.432" fill="#001921"/>
    </g>
    <g transform="translate(311.74 461.28)">
     <path d="m0 0c-3.942-0.169-6.36-1.963-7.125-3.506l0.35-0.227c0.675 1.688 3.729 3.145 6.882 3.28 3.403 0.146 6.444-1.438 7.359-3.916l0.307 0.224c-1.161 2.516-4.19 4.298-7.773 4.145" fill="#001921"/>
    </g>
    <g transform="translate(306.68 446.3)">
     <path d="m0 0c-0.192 0.251-0.355 0.5-0.495 0.74-0.088-0.06-0.18-0.121-0.253-0.195 0.201-0.35 0.448-0.716 0.748-1.082z" fill="#001921"/>
    </g>
    <g transform="translate(305.56 448.8)">
     <path d="m0 0h-0.316c0-0.217 0.07-0.557 0.222-0.965h0.331c-0.162 0.407-0.237 0.748-0.237 0.965" fill="#001921"/>
    </g>
    <g transform="translate(318.67 445.61)">
     <path d="m0 0c-0.061-0.274-1.791-2.73-5.678-2.468-1.433 0.096-2.618 0.447-3.592 0.93-0.038-0.138-0.112-0.256-0.169-0.374 1.018-0.53 2.258-0.913 3.758-1.014 3.939-0.265 5.713 1.952 5.834 2.495z" fill="#001921"/>
    </g>
    <g transform="translate(306.44 448.98)">
     <path d="m0 0c-0.293-0.29-0.557-0.606-0.783-0.949 0 0 0.121-0.35 0.338-0.23 0.185 0.103 0.265 0.332 0.41 0.489-0.011 0.23 0.079 0.46 0.035 0.69" fill="#001921"/>
    </g>
    <g transform="translate(313.54 450.88)">
     <path d="m0 0c-1.162 0.263-2.359 0.251-3.482 7e-3v-0.442c1.087 0.279 2.254 0.327 3.413 0.064 2.678-0.606 4.596-2.767 4.965-5.407l0.215 0.266c-0.243 3.079-2.299 4.876-5.111 5.512" fill="#001921"/>
    </g>
    <g transform="translate(319.18 442.63)">
     <path d="m0 0c-1.688-1.29-3.987-1.835-4.621-1.932-0.852-0.129-0.844-0.421 0.049-0.312 1.471 0.178 3.162 0.62 4.54 1.673 0.015 0.19 0.07 0.381 0.032 0.571" fill="#001921"/>
    </g>
    <g transform="translate(321.19 446.57)">
     <path d="m0 0c-0.025 0.053-0.092 0.183-0.185 0.279-0.026-0.167-0.048-0.334-0.067-0.501 0.12-0.316 0.193-0.872-0.109-1.642-7e-3 -0.248-0.01-0.495-0.012-0.742 0.024 0.043 0.051 0.082 0.075 0.125 0.706 1.309 0.444 2.171 0.298 2.481" fill="#001921"/>
    </g>
    <g transform="translate(331.01 452.62)">
     <path d="m0 0c-0.159-0.267-0.908-1.545-1.691-0.51l-0.176-0.198c0.276-0.27 0.514-0.452 0.932-0.415 0.961 0.084 1.005 0.811 1.093 0.789s0.663-1.127 0.519-1.159c-0.144-0.03-0.921-0.286-1.014-0.607-7e-3 -0.026-0.013-0.057-0.013-0.09 0-0.08 0.03-0.176 0.131-0.277 0.471-0.471 1.533-0.367 1.693-0.317 0.159 0.05-0.016-1.205-0.182-1.084-0.165 0.121-1.004 0.26-1.37 0.059-0.285-0.156-0.355-0.77-0.023-1.137 0.169-0.188 0.412-0.286 0.681-0.295-0.185-0.441-0.479-0.699-0.61-0.796-0.21 0.156-0.812 0.536-1.268 0.125-0.296-0.266-0.644-0.825-0.453-1.181 0.144-0.268 0.831-0.419 1.144-0.184 0.151 0.113 0.838-0.856 0.615-0.997-0.224-0.141-0.39-0.495-0.39-0.799v-0.029c6e-3 -0.16 0.121-0.311 0.188-0.406 0.066-0.095-0.272-0.268-0.532-0.325s-0.723-0.012-0.745 0.208-0.152 0.615-0.499 0.807c-0.171 0.094-0.361 0.097-0.566 7e-3 -0.514-0.225-0.606-0.477-0.606-0.629 0-0.014 1e-3 -0.027 2e-3 -0.039 0.02-0.189 0.187-0.338 0.435-0.403 0.15-0.163 0.202-0.421 0.221-0.587-0.219 0.031-0.704 0.205-0.902-0.191-0.198-0.397 0.414-1.074 0.57-1.12 0.156-0.047-0.86-0.611-1.148-0.616-3e-3 0.083-5e-3 0.177-5e-3 0.177-2e-3 0.35-4e-3 0.713-0.259 0.832-0.221 0.104-0.633 0.045-0.964-0.484-0.223-0.023-0.513 0.055-0.639 0.077 6e-3 0.051 0.011 0.11 0.011 0.179 0 0.186-0.034 0.416-0.171 0.573-0.076 0.086-0.218 0.185-0.462 0.168-0.753-0.054-0.963-1.219-0.951-1.339 0.01-0.12-0.684 0.116-0.591 0.167 0.148 0.053 0.407 0.431 0.407 0.72 0 0.082-0.019 0.164-0.064 0.246-0.151 0.271-0.376 0.428-0.602 0.419-0.123-6e-3 -0.356-0.068-0.519-0.428-0.142-0.311-0.259-0.469-0.326-0.546-0.1 0.07-0.256 0.179-0.325 0.227 5e-3 0.105-0.127 0.838 0.038 0.837s0.37-0.034 0.562 0.153c0.201 0.198 0.314 0.57 0.243 0.993-0.046 0.281-0.188 0.489-0.398 0.586-0.188 0.087-0.421 0.076-0.592-0.027-0.281-0.168-0.34-0.448-0.342-0.46 0 0 0.155-0.287 0.248-0.051 0.092 0.236 0.042 0.185 0.224 0.294 0.084 0.05 0.226 0.074 0.356 0.014 0.133-0.061 0.222-0.199 0.255-0.397 0.056-0.336 0.014-0.576-0.125-0.712-0.192-0.191-0.285-0.289-0.528-0.133-0.244 0.157-0.354-1.087-0.2-1.224 0.154-0.138 0.263-0.298 0.461-0.408 0.198-0.111 0.33-0.089 0.396 0.066 0.066 0.154 0.041 0.15 0.283 0.683 0.08 0.176 0.186 0.275 0.299 0.28 0.127 5e-3 0.225-0.121 0.327-0.304 0.176-0.317-0.276-0.585-0.461-0.804-0.185-0.22 1.176-0.774 1.212-0.355 0.037 0.418 0.301 1.22 0.731 1.251 0.114 7e-3 0.197-0.02 0.253-0.084 0.145-0.164 0.131-0.544 0.046-0.72-0.086-0.176 1.076-0.409 1.187-0.145 0.124 0.298 0.407 0.499 0.567 0.422 0.281-0.137 0.035-0.927 0.19-0.978 0.562-0.188 1.577 0.548 1.709 0.68 0.132 0.133 0.29 0.163 0.013 0.324-0.278 0.161-0.725 0.448-0.607 0.791 0.083 0.241 0.435 0.25 0.752 0.053 0.286-0.177 0.158 0.778-0.158 1.095 0 0-0.334 0.164-0.343 0.25-0.011 0.097 0.041 0.242 0.391 0.395 0.131 0.057 0.243 0.059 0.342 3e-3 0.266-0.147 0.415-0.638 0.348-0.859-0.067-0.222 0.721-0.38 1.095-0.29 0.722 0.172 0.898 0.591 0.777 0.751-0.186 0.25-0.301 0.852 0.211 1.068 0.257 0.109-0.552 1.548-0.909 1.425-0.358-0.124-0.812-0.132-0.897 0.026-0.105 0.195 0.085 0.534 0.356 0.778 0.233 0.209 0.498 0.194 0.976-0.211 0.298-0.253 1.508 1.415 0.963 1.398-0.215-7e-3 -0.513 0.018-0.686 0.211-0.148 0.163-0.211 0.529-0.053 0.659 0.159 0.13 1.059 0.098 1.332-0.185 0.273-0.282 0.607 1.94 0.145 1.833-1.039-0.239-1.643 0.041-1.583 0.251 0.053 0.181 0.482 0.434 0.897 0.448 0.636 0.023-0.633 2.151-0.879 1.737" fill="#001921"/>
    </g>
    <g transform="translate(324.75 462.09)">
     <path d="m0 0c-0.157-4e-3 -1.346-0.614-1.236-0.771 0.11-0.158 0.153-0.571 0.07-0.733-0.106-0.208-0.554-0.306-0.708-0.328s-0.131 0.557-0.065 0.741c0.095 0.27-1.239 0.122-1.285-0.289-0.323-2.873-3.283-4.383-4.61-4.797-0.486-0.152-0.532-0.331-1e-3 -0.232 1.403 0.262 5.134 2.27 4.854 4.929-0.016 0.155 0.422 0.259 0.742 0.236-0.058-0.281-0.081-0.626 0.077-0.793 0.061-0.064 0.175-0.13 0.368-0.083 0.347 0.087 0.699 0.198 0.854 0.5 0.051 0.1 0.077 0.214 0.077 0.342 0 0.143-0.039 0.309-0.102 0.49 0.151 0.079 0.775 0.525 0.936 0.473 0.162-0.052 0.452-0.185 0.365-0.312-0.087-0.128-0.325-0.434-0.325-0.739 0-9e-3 0-0.018 1e-3 -0.027 6e-3 -0.128 0.059-0.24 0.153-0.322 0.18-0.158 0.425-0.188 0.674-0.085 0.313 0.131 0.594 0.665 0.624 0.801 0.031 0.136 0.656-0.482 0.542-0.537-0.114-0.053-0.733-0.538-0.838-0.998-0.013-0.057-0.02-0.113-0.02-0.169 0-0.14 0.042-0.275 0.126-0.401 0.177-0.264 0.39-0.397 0.636-0.397 0.32 0 0.694 0.389 0.756 0.424s0.651-0.418 0.654-0.522-0.724-0.29-0.826-0.565c-0.013-0.035-0.023-0.078-0.023-0.127 0-0.067 0.019-0.146 0.078-0.229 0.121-0.173 0.303-0.262 0.526-0.257 0.351 7e-3 0.773 0.266 1.047 0.613 0.134-0.152 0.346-0.626 0.269-0.699-0.078-0.073-1.249-0.272-1.428-0.621-0.068-0.134 0.01-0.564 0.527-0.833-0.265-0.219-0.707-0.632-0.707-0.967 0-0.013 1e-3 -0.025 2e-3 -0.037 9e-3 -0.093 0.058-0.221 0.238-0.304 0.619-0.285 1.267-4e-3 1.476 0.429 0.145 0.3 0.707-0.773 0.459-0.798-0.546-0.054-0.827-0.161-0.936-0.454-0.187-0.505 0.444-1.109 0.764-1.047 0.122 0.024-0.357-0.522-0.434-0.635-0.196 0.087-0.601 0.047-0.942-0.052-0.728-0.21-0.876-0.849-0.409-1.198 0.44-0.331 0.969-0.328 1.16-0.109 0.109 0.124 0.134-1.19-0.066-1.017s-0.649 0.317-1.083 0.064c-0.376-0.22-0.457-0.554-0.525-0.663-0.067-0.109-0.855 0.405-0.912 0.456-0.058 0.051 0.26 0.189 0.275 0.343 2e-3 0.011 2e-3 0.02 2e-3 0.031 0 0.145-0.106 0.279-0.315 0.399-0.45 0.257-1.017 0.076-1.307-0.246-0.128-0.143-0.193-0.303-0.193-0.458 0-0.115 0.036-0.228 0.11-0.329 0.267-0.366 0.527-0.631 0.673-0.666 0.147-0.035-0.669-0.905-0.701-0.949-0.119-0.056-1.015-0.315-1.118-0.285-0.104 0.032 0.281 0.503 0.281 0.739 0 0.094-0.016 0.183-0.051 0.261-0.079 0.18-0.244 0.272-0.454 0.253-0.261-0.024-0.49-0.148-0.645-0.349-0.114-0.148-0.159-0.357-0.181-0.493-0.022-0.137-0.394-0.062-0.621-0.06 0.03 0.064 0.056 0.138 0.061 0.229 1e-3 0.012 1e-3 0.024 1e-3 0.036 0 0.228-0.03 0.498-0.264 0.732-0.31 0.31-0.533 0.421-0.689 0.379-0.159-0.043-0.046-0.487-0.046-0.487 0.017 0.066 0.184 0.175 0.468-0.109 0.184-0.184 0.269-0.68 0.151-0.801-0.118-0.122-0.14-0.276 0.058-0.298s0.676 0.039 0.913 0.052c0.208 0.012 0.237 0.137 0.224 0.263-0.014 0.125 0.029 0.277 0.126 0.402 0.078 0.103 0.224 0.229 0.467 0.251 0.133 0.013 0.179-0.052 0.2-0.102 0.14-0.338-0.618-1.048-0.318-1.17 0.148-0.06 1.434 0.044 1.674 0.277 0.241 0.233 1.035 1.23 0.778 1.385-0.764 0.461-0.909 0.912-0.716 1.128 0.223 0.248 0.655 0.389 0.993 0.195 0.144-0.082 0.191-0.149 0.188-0.185-6e-3 -0.052-0.097-0.158-0.23-0.236-0.177-0.103-0.224-0.162-0.04-0.303 0.386-0.296 1.246-0.746 1.4-0.46 0.461 0.859 0.66 0.903 1.393 0.447 0.374-0.233 0.493 1.875 0.111 1.661-0.382-0.215-0.594-0.371-1.081-6e-3 -0.314 0.235-0.088 0.674 0.349 0.761 0.265 0.054 0.622 0.161 0.838 0.014 0.217-0.147 1.028 1.078 0.622 1.126-0.405 0.048-0.691 0.532-0.597 0.852 0.056 0.191 0.545 0.2 0.885 0.188 0.504-0.017-0.408 2.048-0.869 1.309-0.313-0.503-0.87-0.681-1.19-0.386-0.208 0.192 0.16 0.574 0.416 0.784 0.217 0.177 0.151 0.318-0.065 0.479-0.156 0.117-0.299 0.302-0.283 0.451 0.023 0.223 0.942 0.44 1.292 0.462s-0.222 1.647-0.488 1.279c-0.265-0.368-0.683-0.659-0.992-0.665-0.139-3e-3 -0.349 0.244-0.338 0.273 0.07 0.19 0.56 0.374 0.894 0.482 0.335 0.11-0.952 1.102-1.079 0.947s-0.378-0.426-0.637-0.426c-0.156 0-0.526 0.523-0.495 0.658 0.107 0.474 0.524 0.707 0.831 0.908 0.306 0.203-0.926 1.304-0.993 0.918-0.066-0.385-0.294-0.713-0.511-0.802-0.216-0.09-0.473 0.125-0.476 0.185-0.013 0.253 0.306 0.648 0.405 0.758 0.16 0.178-0.513 0.627-0.67 0.623" fill="#001921"/>
    </g>
    <g transform="translate(309.56 453.78)">
     <path d="m0 0c0.13-0.875 0.193-2.078 0.193-3.069 0-5.16-1.606-11.647-1.867-12.336-0.262-0.688-0.324-0.506-0.428 0.86s-0.581 10.463-1.252 12.517l-0.435-0.184c0.659-2.013 1.15-11.187 1.254-12.25 0.139-1.411 0.211-1.873 0.501-1.926 0.295-0.053 0.502 0.345 0.706 0.903 0.488 1.331 2.72 9.928 1.767 15.364z" fill="#001921"/>
    </g>
    <g transform="translate(292.21 452.68)">
     <path d="m0 0c0.393-0.217 0.616-0.782 0.409-1.081-0.179-0.258-0.36-0.338-0.58-0.33-0.207 8e-3 -0.694 0.455-0.694 0.455-0.468-0.117-0.743-0.691-0.859-1.001-0.081-0.219-0.071-0.283 0.087-0.402 0.304-0.229 0.682-0.558 0.635-1.016-0.016-0.156 0.994-0.256 1.208-0.268 0 0 0.167-0.031 0.041 0.212-0.125 0.244-0.169 0.816 0.251 0.599 0.268-0.138 0.416-0.382 0.392-0.696-0.026-0.351-0.546-0.865-0.879-0.923-0.158-0.027-0.139-0.065-0.077-0.177 0.136-0.244 0.408-0.651 0.475-0.783 0.066-0.132 0.211-0.069 0.211-0.069 0.133 0.023 0.342 0.019 0.391-0.049 0.027-0.037 7e-3 -0.126-0.053-0.238-0.166-0.307-0.482-0.507-0.771-0.485-0.296 0.022-0.664 0.523-0.694 0.704-0.031 0.181-0.096 0.283-0.24 0.181-0.144-0.103-0.771-0.878-0.796-1.108s0.481-1.981 0.686-1.767c0.111 0.117 1.035 0.592 1.44 0.088 0.144-0.18 0.221 0.044 0.221 0.044 0.152 0.545 0.383 0.985 0.633 1.091 0.14 0.06 0.293 0.044 0.468-0.05 0.216-0.117 0.324-0.345 0.281-0.596-0.041-0.244-0.347-0.844-0.696-0.577s-0.719-0.843-0.712-1.002c4e-3 -0.091 0.511-0.614 0.511-0.614s0.136-0.12 0.244 0.028c0.109 0.148 0.42 0.316 0.554 0.267 0.084-0.032 0.117-0.171 0.129-0.283 0.087-0.786-0.297-1.271-0.612-1.324s1.144-1.209 1.202-0.851c0.057 0.359 0.253 0.939 0.411 1.005 0.012 5e-3 0.024 8e-3 0.047-7e-3 0.353-0.221 0.593-0.532 0.674-0.63s0.257-0.092 0.224 0.103-0.115 1.009 0.091 1.212c0.041 0.04 0.114 0.088 0.276 0.053 0.394-0.088 0.657-0.153 0.706-0.245 0.039-0.074-0.02-0.252-0.09-0.434l0.024-0.13c0.383-0.431 0.807-0.716 0.825-0.728l0.145 3e-3c9e-3 6e-3 0.985 0.508 1.487 0.406 0.2-0.04 0.288 0.423 0.288 0.423 0.164 0.469 0.381 0.823 0.835 0.888 0.389 0.056 0.644-0.038 0.726-0.204 0.049-0.099-0.085-0.224-0.216-0.389-0.13-0.164 0.424-0.845 0.392-1.084-0.031-0.241 1.673-0.311 1.634-0.06-0.039 0.25-0.094 1.163 0.087 1.356 0.074 0.079 0.168 0.112 0.288 0.101 0.481-0.044 1.042-0.369 1.219-0.538 0.177-0.17 1.146 1.227 0.828 1.343-0.859 0.313-0.88 0.657-1.045 0.945-0.164 0.287 0.592 0.746 0.904 0.41 0.311-0.336 0.735 0.808 0.757 0.962s-0.102 0.193-0.102 0.193c-4e-3 5e-3 -0.434 0.559-0.346 1.038 0.036 0.197 0.18 0.397 0.358 0.475 0.178 0.077-0.273 0.918-0.366 0.817-0.095-0.101-0.36-0.116-0.705 0-0.255 0.085-0.356 0.624-0.371 0.805l-0.186 0.062c8e-3 -0.088 0.019-0.955 0.477-1.108 0.303-0.1 0.597-0.062 0.752-0.028 0.05-0.113 0.137-0.309 0.182-0.408-0.206-0.152-0.348-0.338-0.39-0.57-0.011-0.059-0.016-0.12-0.016-0.179 0-0.464 0.299-0.907 0.388-1.029 1e-3 -0.012 2e-3 -0.016 2e-3 -0.037 0-0.144-0.052-0.486-0.468-0.68-0.485 0.163-0.933-0.162-1.17-0.589-0.028-0.051-0.036-0.242-0.024-0.281 0.114-0.367 0.975-0.909 1.095-0.939 0.119-0.03-0.474-0.987-0.64-0.827-0.166 0.159-0.7 0.378-1.11 0.415-0.198 0.018-0.369-0.044-0.496-0.18-0.167-0.178-0.252-0.481-0.252-0.876 0-0.119 0.064-0.433-0.047-0.456-0.11-0.022-0.842-0.077-0.949 0.105s-0.394 0.688-0.416 0.732 0.227 0.316 0.227 0.409c0 0.084-0.024 0.154-0.048 0.203-0.145 0.29-0.602 0.458-1.064 0.392-0.606-0.086-0.796-0.628-0.963-1.106 0 0-0.056-0.15-0.092-0.246-0.619 0.128-1.297-0.264-1.517-0.41-0.124 0.09-0.397 0.304-0.658 0.586 0.055 0.153 0.093 0.282 0.093 0.386 0 0.067-0.013 0.126-0.043 0.18-0.103 0.194-0.371 0.261-0.874 0.373-0.261 0.058-0.42-0.033-0.509-0.12-0.179-0.176-0.228-0.495-0.228-0.789 0-0.084 5e-3 -0.165 0.01-0.241-0.128 0.128-0.285 0.271-0.459 0.38-0.088 0.056-0.185 0.064-0.278 0.026-0.268-0.112-0.459-0.844-0.529-0.929-0.069-0.084-0.803 0.432-0.641 0.488s0.531 0.555 0.531 1.16c0 0.079-4e-3 0.161-0.013 0.245-0.03 0.266-0.129 0.431-0.294 0.492-0.254 0.094-0.566-0.116-0.72-0.24-0.096 0.095-0.253 0.204-0.33 0.33-0.077 0.127 0.13 0.867 0.434 0.706s0.806 0.406 0.878 0.823c8e-3 0.052 0.013 0.103 0.013 0.153 0 0.3-0.155 0.563-0.424 0.708-0.243 0.131-0.475 0.151-0.688 0.06-0.289-0.123-0.526-0.466-0.698-0.977-0.48 0.374-1.398 0.022-1.475-0.09s-0.372 1.193-0.404 1.295c0.091 0.121 0.497 0.951 0.577 0.73 0.081-0.221 0.624-0.662 0.832-0.677 0.391-0.029 0.797 0.219 1.012 0.618 0.113 0.211 0.125 0.381 0.035 0.506-0.128 0.178-0.409 0.176-0.557 0.161-0.075 0.11-0.239 0.355-0.356 0.564 0.529 0.224 0.809 0.698 0.84 1.109 2e-3 0.028 3e-3 0.056 3e-3 0.084 0 0.381-0.198 0.699-0.541 0.861-0.246 0.116-0.435 0.118-0.56 7e-3 -0.101-0.09-0.133-0.236-0.133-0.386 0-0.123 0.021-0.246 0.045-0.346-0.308 0.034-0.605 0.105-0.687 0.188 0 5e-3 1e-3 9e-3 1e-3 0.014 0 0.371-0.49 0.807-0.697 0.975 0.051 0.186 0.222 0.685 0.568 0.833 0.178-0.25 0.417-0.403 0.676-0.413 0.31-0.012 0.607 0.164 0.837 0.496 0.099 0.143 0.14 0.291 0.14 0.436 0 0.346-0.33 0.729-0.392 0.811s0.472 0.493 0.555 0.41c0.082-0.082 0.726-0.591 1.035-0.562 0.553 0.054 1.166 0.578 1.291 0.984l-0.35 0.022c-0.1-0.322-0.52-0.71-0.965-0.754-0.371-0.035-0.867 0.491-0.929 0.623-0.154 0.331-1.147-0.676-1.04-0.736" fill="#001921"/>
    </g>
    <g transform="translate(319.74 440.11)">
     <path d="m0 0c-0.103-0.3-0.184-0.522-0.247-0.677-4e-3 0.108-7e-3 0.232-0.01 0.357l-0.015 0.519c-0.042 1.108-1.118 10.991-2.223 13.476 0.823 0.541 2.247 1.01 2.909 0.679 0.286-0.144 0.473-0.437 0.572-0.898 0.199-0.932 0.281-2.091 0.281-3.339 0-3.954-0.816-8.801-1.267-10.117m1.321 13.564c-0.114 0.534-0.447 0.901-0.801 1.079-0.793 0.397-2.577-0.321-3.319-0.691-1.548-0.775-3.894-0.931-6.995-0.166-2.649 0.652-3.769 0.132-4.093-0.388-0.054-0.085-0.085-0.32-0.085-0.404 0-0.091 0.032-0.177 0.094-0.252 0.194-0.233 0.751-0.359 0.9-0.394 0.15-0.036-0.261-0.552-0.313-0.661-0.223 0.02-0.781 0.016-1.156-0.485-0.087-0.116-0.123-0.245-0.123-0.38 0-0.511 0.631-1.148 0.713-1.304s-0.565-0.673-0.764-0.91c-0.107 0.228-0.346 0.461-0.817 0.43-0.171-0.012-0.309-0.085-0.411-0.218-0.147-0.194-0.187-0.489-0.187-0.755 0-0.186 0.02-0.35 0.036-0.46-0.155-0.022-0.686-0.018-0.701 0.033-0.1 0.354-0.49 0.888-0.932 0.928-0.117 0.011-0.219-0.028-0.293-0.114-0.104-0.12-0.138-0.328-0.138-0.547 0-0.216 0.154-0.52 0.064-0.6-0.09-0.079-0.971 0.053-0.971 0.053 0.059 0.088 0.248 0.353 0.248 0.454 0 0.083-0.019 0.166-0.058 0.243-0.078 0.158-0.303 0.428-0.929 0.465-0.2 0.012-0.368-0.055-0.486-0.191-0.172-0.197-0.217-0.509-0.217-0.782 0-0.165 0.017-0.309 0.031-0.411-0.179-0.024-0.753-0.25-0.851-0.112-0.099 0.139-0.37 0.776-0.578 0.863s0.928 0.59 1.026 1.014c0.014 0.064 0.021 0.128 0.021 0.191 0 0.252-0.116 0.49-0.333 0.671-0.156 0.13-0.334 0.186-0.53 0.169-0.318-0.029-0.633-0.334-0.771-0.408-0.14-0.074-0.219 0.649-0.113 0.672 0.106 0.024 0.587 0.167 0.658 0.312 0.145 0.296-7e-3 0.752-0.407 1.219-0.16 0.187-0.338 0.268-0.527 0.24-0.384-0.057-0.66-0.564-0.745-0.738-0.08-0.027-0.615-0.186-0.702-0.234s-0.196 0.933-0.176 1.026c0.318 0.095 0.524 0.25 0.602 0.464 0.024 0.065 0.036 0.135 0.036 0.207 0 0.201-0.091 0.427-0.272 0.676-0.112 0.154-0.259 0.246-0.437 0.274-0.255 0.04-0.505-0.065-0.663-0.15-0.045 0.206-0.213 0.701-0.168 0.774 0.044 0.071 0.115-0.154 0.928 0.211 0.629-0.25 0.733-0.122 1.101 0.12 0.38 0.249 0.584 0.623 0.533 0.977-0.021 0.152-0.101 0.276-0.229 0.357-0.36 0.227-1.032 0.08-1.293 0.01-0.062 0.118-0.465 0.536-0.268 0.567s0.663 0.398 0.757 0.681c0.026 0.079 0.039 0.156 0.039 0.228 0 0.159-0.061 0.299-0.178 0.401-0.334 0.293-0.808 0.088-1.044-0.044-0.061 0.206-0.357 0.716-0.252 0.863 0.105 0.148 1.097 0.432 1.308 0.516 0.08-0.373 0.254-0.647 0.501-0.752 0.24-0.102 0.523-0.044 0.799 0.163 0.173 0.13 0.261 0.287 0.261 0.466 0 0.264-0.193 0.49-0.328 0.618 0.101 0.072 0.489 0.42 0.523 0.23 0.035-0.191 0.383-0.623 0.734-0.71 0.4-0.1 0.81 0.052 1.094 0.408 0.108 0.134 0.162 0.265 0.162 0.39 0 0.055-0.01 0.109-0.031 0.161-0.141 0.351-0.722 0.489-0.961 0.532-0.014 0.137-0.111 0.613-0.075 0.746 0.037 0.132 0.905 0.404 0.926 0.235 0.022-0.17 0.151-0.406 0.479-0.588 0.141-0.078 0.25-0.038 0.303-8e-3 0.246 0.145 0.348 0.845 0.307 0.987s0.782 0.173 0.75 0.034c-0.032-0.138-0.043-0.257-0.043-0.424 0-0.36 0.101-0.789 0.522-1.014 0.209-0.111 0.395-0.122 0.552-0.032 0.256 0.146 0.343 0.517 0.372 0.734 0.143-0.052 0.646-0.277 0.602-0.409-0.12-0.359 0.156-2.243 1.191-3.263 1.69-1.666 4.073-1.919 5.12-2.04 0.3-0.034 0.272 0.174-0.124 0.239-1.503 0.251-3.58 0.775-4.871 2.152-0.787 0.84-1.081 2.302-1.013 2.884 0.068 0.583-1.096 0.876-1.16 0.672-0.065-0.203-0.049-0.639-0.242-0.749-0.029-0.017-0.116-0.066-0.308 0.036-0.606 0.322-0.4 1.084-0.315 1.312 0.158 0.421-1.275 0.236-1.285 0.061s-0.074-0.897-0.184-0.961c-4e-3 -3e-3 -0.015-0.01-0.051 0.01-0.359 0.2-0.401 0.427-0.407 0.61-6e-3 0.182-1.305-0.148-1.393-0.302s0.052-1.123 0.213-1.156c0.162-0.033 0.774-0.179 0.86-0.392 0.012-0.03 0.049-0.122-0.093-0.299-0.225-0.28-0.529-0.397-0.836-0.32-0.3 0.074-0.557 0.494-0.575 0.7-0.038 0.425-1.274-0.348-1.082-0.567 0.194-0.219 0.37-0.313 0.37-0.527 0-0.097-9e-3 -0.173-0.116-0.253-0.142-0.106-0.352-0.216-0.548-0.133-0.197 0.084-0.409 0.553-0.378 0.768 0.04 0.27-1.736-0.423-1.859-0.738-0.104-0.268 0.403-1.362 0.567-1.267 0.35 0.205 0.674 0.343 0.87 0.172 0.219-0.192-0.036-0.824-0.659-0.831-0.33-4e-3 0.155-1.209 0.435-1.121 0.787 0.249 1.259 0.13 1.292-0.105 0.036-0.252-0.256-0.622-0.548-0.813-0.305-0.2-0.689 0.249-0.929 0.022-0.239-0.228-0.608-0.108-0.96-0.166-0.354-0.058 0.115-1.4 0.246-1.355 0.13 0.045 0.42 0.238 0.713 0.192 0.11-0.017 0.199-0.074 0.27-0.173 0.134-0.183 0.278-0.445 0.204-0.648-0.055-0.15-0.384-0.387-0.612-0.337-0.229 0.052 0.177-1.505 0.324-1.539 0.145-0.034 1.01 0.38 1.01 0.38 0.068 0.154 0.32 0.604 0.575 0.641 0.098 0.015 0.195-0.036 0.296-0.154 0.318-0.371 0.468-0.749 0.373-0.942-0.077-0.157-0.283-0.253-0.601-0.205-0.319 0.047 5e-3 -1.45 0.327-1.207 0.323 0.242 0.633 0.745 1.095 0.36 0.196-0.163 0.279-0.385 0.227-0.61-0.088-0.382-0.982-0.77-1.167-0.866-0.184-0.095 0.586-0.41 0.744-1.32 0.028-0.16 1.523-5e-3 1.343 0.28-0.18 0.284-0.112 0.86 0.107 1.111 0.067 0.077 0.158 0.111 0.28 0.104 0.364-0.021 0.625-0.14 0.718-0.325 0.021-0.042-0.441-0.626-0.335-0.759 0.107-0.133 1.406-0.265 1.604-0.155s-0.066 0.617-0.066 0.881 0.106 0.409 0.148 0.405c0.19-0.017 0.42-0.203 0.586-0.473 0.126-0.204 0.081-0.439 0.169-0.461s1.167-0.088 1.233 0.022c0.065 0.11-0.243 0.881 0.021 1.265 0.053 0.077 0.128 0.112 0.226 0.118 0.559 0.038 0.699-0.516 0.842-0.52s1.134 1.109 1.068 1.273-1.026 1.123-0.734 1.512c0.37 0.493 0.815 0.371 1.005 0.376 0.192 5e-3 0.866 1.066 0.615 1.137s-0.892 0.141-1.059 0.34c-0.017 0.022-0.072 0.088 7e-3 0.214 0.242 0.387 1.487 1.176 3.909 0.362 2.914-0.756 4.619-0.827 6.947 0.04 1.068-2.423 2.152-12.039 2.207-13.394 0.031-0.773 0.156-1.335 0.32-1.361 0.152-0.023 0.446 0.232 0.786 1.223 0.599 1.748 1.67 9.655 0.829 13.577" fill="#001921"/>
    </g>
    <g transform="translate(305.22 457.43)">
     <path d="m0 0 0.249-0.166c0.31 0.572 1.238 1.264 1.979 1.115 0.784-0.158 1.312-0.933 1.484-2.462l0.279-0.041c-0.23 2.102-1.127 2.833-1.779 2.964-0.888 0.179-1.842-0.727-2.212-1.41" fill="#001921"/>
    </g>
    <g transform="translate(318.1 458.32)">
     <path d="m0 0c-0.622-0.134-0.885-1.433-0.885-2.434l0.303 0.109c0 1.087 0.361 1.837 0.696 1.909 0.253 0.055 0.656-0.346 0.937-0.967l0.191 0.207c-0.452 0.999-0.947 1.239-1.242 1.176" fill="#001921"/>
    </g>
    <g transform="translate(306.82 456.4)">
     <path d="M 0,0 0.275,-0.043 C 0.022,0.675 0.592,1.566 1.061,1.865 L 0.856,2.031 C 0.337,1.7 -0.329,0.931 0,0" fill="#001921"/>
    </g>
    <g transform="translate(318.63 456.49)">
     <path d="m0 0-0.177-0.035c0.163 0.575-0.202 1.289-0.502 1.528l0.131 0.132c0.332-0.264 0.758-0.88 0.548-1.625" fill="#001921"/>
    </g>
    <g transform="translate(308.69 456.99)">
     <path d="m0 0c0-0.309-0.105-0.56-0.235-0.56-0.131 0-0.236 0.251-0.236 0.56s0.105 0.56 0.236 0.56c0.13 0 0.235-0.251 0.235-0.56" fill="#001921"/>
    </g>
    <g transform="translate(318.09 457.04)">
     <path d="m0 0c0-0.29-0.095-0.525-0.212-0.525-0.118 0-0.212 0.235-0.212 0.525s0.094 0.525 0.212 0.525c0.117 0 0.212-0.235 0.212-0.525" fill="#001921"/>
    </g>
    <g transform="translate(310.36 455.87)">
     <path d="m0 0c-0.054 0.507 0.268 0.952 0.548 1.235 0.647 0.655 1.738 1.112 2.484 1.041 1.36-0.133 2.58-0.872 2.684-2.117 0.024-0.288-0.04-0.51-0.196-0.68-0.324-0.352-1.05-0.516-2.285-0.516l-0.488-2e-3c-1.731-0.012-2.639 0.029-2.747 1.039m0.334 1.564c-0.471-0.476-0.702-1.098-0.649-1.598 0.144-1.342 1.433-1.333 3.064-1.321l0.486 2e-3c1.348 0 2.124 0.191 2.517 0.618 0.217 0.235 0.311 0.545 0.28 0.92-0.082 0.976-1.1 2.315-3.071 2.43-0.969 0.057-1.909-0.324-2.627-1.051" fill="#001921"/>
    </g>
    <g transform="translate(311.87 456.56)">
     <path d="m0 0c0.118-0.093 0.468-0.519 0.597-0.652 0.13-0.133 0.319-0.211 0.185 0.116-0.135 0.327-0.314 0.67-0.641 0.819s-0.26-0.19-0.141-0.283" fill="#001921"/>
    </g>
    <g transform="translate(314.64 456.13)">
     <path d="m0 0c-0.092-0.276-4e-3 -0.449 0.219-0.211 0.223 0.239 0.423 0.529 0.489 0.619s-0.072 0.274-0.224 0.223c-0.152-0.05-0.401-0.382-0.484-0.631" fill="#001921"/>
    </g>
    <g transform="translate(320.2 438.1)">
     <path d="m0 0 0.472-0.689s0.846 1.311 0.561 2.112c0 0-0.898-1.363-1.033-1.423" fill="#cacfd2"/>
    </g>
    <g transform="translate(299.1 441.39)">
     <path d="m0 0c0.184-1.042 1.639-6.458 10.87-7.443 7.384-0.788 10.241 2.431 10.942 3.423 0.566 0.803 0.734 1.838 0.515 2.296l-0.297-0.231c0.136-0.282 0.023-0.951-0.544-1.754-0.675-0.958-3.441-4.02-10.653-3.25-9.006 0.961-10.344 6.012-10.521 7.014z" fill="#001921"/>
    </g>
    <g transform="translate(320.68 443.92)">
     <path d="m0 0c0.631-0.552 0.417-3.819 0.336-4.152-0.248-0.953-1.016-1.824-2.221-2.519-2.905-1.676-7.775-2.06-11.841-0.935-4.663 1.29-6.891 4.818-6.583 5.963l-0.302-0.217c-0.35-1.301 1.779-4.772 6.772-6.153 4.167-1.153 9.17-0.751 12.165 0.976 1.305 0.753 1.853 1.835 2.419 2.778 0.663 1.109 0.33 4.204-0.537 4.962z" fill="#001921"/>
    </g>
   </g>
  </g>
 </g>
</svg>
