<?xml version="1.0" encoding="UTF-8"?>
<!-- Created with Inkscape (http://www.inkscape.org/) -->
<svg version="1.1" viewBox="0 0 320.68 274.48" xmlns="http://www.w3.org/2000/svg">
 <g transform="translate(20.594 -15.576)" stroke-width="3.784">
  <path class="uuid-9c9b7cac-7a60-42df-9768-3b796a5245ba" d="m137.22 232.08s-4.1511 22.594-7.8517 29.038c-2.3914 4.1549-6.8149 2.2326-9.1308 1.2786 0 0-3.8368 2.0094-6.3911 1.4606-2.0092-8.582 1.6422-28.308 1.6422-28.308l21.735-3.4698z" fill="#92541c"/>
  <path class="uuid-00cfc187-3523-4094-94cd-6ac30ba05bfe" d="m9.767 44.254a2.172 2.172 0 0 0-0.81363 0.55635c-3.0764 3.6402 2.4899 33.117 19.143 49.578l11.098-14.807c-7.988-13.036-16.305-26.552-29.428-35.327" fill="#a86124"/>
  <path class="uuid-4714941a-920f-404f-879a-3b3da34917f0" d="m28.475 45.893c-9.2594-2.0244-16.127-2.7585-18.708-1.6423 13.123 8.7751 21.44 22.288 29.428 35.327l15.953-21.285s-16.158-10.099-26.673-12.4" fill="#f2984f"/>
  <path class="uuid-4714941a-920f-404f-879a-3b3da34917f0" d="m188.79 259.67 8.881-3.3034c-0.11451-8.8583-0.79518-18.621-2.4936-26.783-1.5477-3.1748-4.6922-4.6392-7.4431-5.2295 2.872-9.1875 4.9116-18.977 4.5938-24.694-0.57492-10.338-7.6967-25.814-23.162-34.835-10.304-6.0128-23.737-0.17747-28.902 0.19302-10.716 0.76372-25.803-2.1-29.666-9.1875-2.6828-4.9192-2.978-9.1193 0.57493-12.824 8.8052-9.1875 14.356-22.78 14.356-22.78s12.328-7.6474 23.351-18.761c11.64-11.73 23.116-27.377 20.29-29.477-5.2712-3.9126-48.825-16.982-75.99 8.041l-54.554-7.4657s-12.453 12.275-13.887 17.546c-1.4341 5.2749-1.7331 13.327-1.7331 13.327s-5.6078 0.65072-8.5821 3.4056c-6.8187 6.3154-0.19303 18.598 2.2742 22.988 6.0695 10.796 19.484 27.188 38.01 30.207 0 0-1.1503 9.3804-6.202 15.843-1.6838 2.1531-12.782 11.927-18.89 13.834s-11.511 1.8239-17.21 1.3315c-5.6987-0.49198-4.7867 24.312-4.7867 24.312 8.2339-1.1498 20.138 4.0488 26.223 1.5324 11.102-4.5937 21.822-12.635 26.223-14.356 0.94218 3.2619 9.5355 20.638 32.924 29.095 28.993 7.0873 51.875-1.7218 51.875-1.7218s4.4309 7.6701 10.145 10.527c5.1539 2.5769 6.3913 4.3062 16.339 5.3468 0.68075 2.732 0.97251 6.0808 1.044 9.4409l16.4 4.45z" fill="#f2984f"/>
  <path class="uuid-1cc8e428-a7bd-4d26-a9fb-f1c2980bfe22" d="m67.484 22.546s-14.371-2.2968-19.957 9.7285c-5.5851 12.026-0.86266 19.257 2.1455 22.265-22.836 0-20.528 32.864-11.341 39.611 0 0 1.8693 6.7506 3.1596 8.041 4.1624-17.228 16.078-18.95 16.078-18.95s0.30648 0.65072 1.0065 0.43193c4.397-1.3958 21.406-7.0192 34.169-3.3034l9.1875-7.6096c6.2132-3.099 11.571-5.3997 16.229-5.9674 1.5098-2.1947 2.713-5.0289 3.4131-8.6236 1.5666-8.0108 2.3083-27.54-20.778-30.673-2.3081-3.6287-5.5207-9.2025-17.978-10.061-9.6379-0.66645-13.55 3.7499-15.337 5.1121" fill="#ef8200"/>
  <path class="uuid-eb80e2ff-2fa1-4149-bba9-329ec4f75a47" d="m74.518 165.98c9.5963-5.4073 10.535-9.88 1.0783-6.97-5.5852 1.7216-15.162 1.9979-20.967 0.34037 0 0-0.37842 5.7933 0 6.2814 2.9666 3.837 13.596 3.8936 19.889 0.34754" fill="#d18344"/>
  <g>
   <path class="uuid-fa9f8df0-540c-44fe-aee6-6eb141b1d1ee" d="m28.763 87.812c2.2136 0.88527 1.6763 11.579-0.90058 14.402-2.1001 2.3006-4.3024 2.7093-4.6505 0.60497-0.3481-2.1039 0.23071-4.6695 0.61297-6.1187 0.38214-1.4569 2.4369-9.8837 4.9381-8.8847" fill="#5a4c2a"/>
   <path d="m32.267 124.09s1.3206 12.294 5.1538 15.601c0.52973-2.3801 5.0251-6.3456 8.5934-3.9656 0.21564-1.29-0.92701-7.6663-0.92701-7.6663l-12.824-3.9657z" fill="#922f00"/>
   <path d="m37.42 140.22c0.91573 3.5002 5.0478 7.322 6.8339 6.8376 2.6601-0.72652 1.7595-12.124 1.7595-12.124s-1.1882-0.52917-4.4953 0.66215c-3.4283 1.2342-4.098 4.6277-4.098 4.6277" fill="#ed8599"/>
  </g>
  <path class="uuid-25adde7e-6bfa-453a-9633-a9a8216c3980" d="m26.405 91.448c-0.19667 1.786 0.5941 3.3412 1.3547 3.3866 0.86269 0.05713 1.5287-1.2986 1.7255-3.084 0.19692-1.7897-0.25728-3.3034-1.0141-3.3866-0.75686-0.08582-1.8693 1.2971-2.0661 3.084" fill="#fff"/>
  <path class="uuid-9e6e3915-cded-4d83-af78-c676678b26d3" d="m22.765 100.57c0 1.8579 0.89298 3.364 1.9979 3.364 1.1049 0 1.9979-1.5061 1.9979-3.364 0-1.8579-0.89684-3.3639-1.9979-3.3639-1.1011 0-1.9979 1.5059-1.9979 3.3639" fill="#7e6b3b"/>
  <path class="uuid-b0394308-0876-4c56-a75a-94deb8918079" d="m187.72 287.73 0.0858 5e-3 -0.0858-5e-3" fill="#0f141b"/>
  <path class="uuid-00cfc187-3523-4094-94cd-6ac30ba05bfe" d="m17.119 191.28s-19.014-1.044-30.529 3.837c-3.977 1.6876-8.3739 6.8036-5.7592 13.259 0 0-0.52215 8.548 9.0702 7.3257 0 0 1.7444 3.6629 8.3739 1.9184 6.6295-1.7444 9.9443-2.9666 16.4-2.0925 0 0 8.6123-3.871 8.4383-4.5711-0.17406-0.69935-5.6457-1.5363-5.6457-1.5363s11.39-11.48 10.815-12.15c-0.57521-0.66932-8.1355 0.66932-8.1355 0.66932s2.7774-3.4473 2.3915-3.8294c-0.38214-0.38184-8.1355 0.9568-8.1355 0.9568l2.7131-3.7916z" fill="#a86124"/>
  <path class="uuid-cbff318e-4fb1-4536-aa71-6a7a3e725126" d="m56.662 195.52c-2.1152-8.1318-1.593-22.515 6.0165-24.236 6.9058-1.559 18.417 13.963 18.704 24.074 0.16313 5.6948 2.278 32.856 2.278 32.856s-21.281-10.686-26.999-32.694m62.946 20.006-3.9013 19.355s22.935-1.6271 29.602-5.2068c0 0-3.7425-10.572-4.5559-18.053 0 0-9.5961 5.044-21.145 3.9051" fill="#fff1ac"/>
  <path class="uuid-cbff318e-4fb1-4536-aa71-6a7a3e725126" d="m63.189 170.55c-7.3674 0.36755-11.545 14.599-5.6078 27.79 0.22317 0.49197 1.0254-0.31035 0.80218-0.80232-3.644-8.0938-2.4596-24.671 4.9002-25.039 6.0998-0.30604 16.479 9.4259 17.682 27.256 0.043 0.53776 1.3015 0.34755 1.29-0.18889-0.40188-18.341-11.579-29.394-19.071-29.019m77.216 40.629c-5.2824 2.6412-14.489 3.8331-20.808 3.8218-0.54059 0-0.5449 1.6271 0 1.6271 5.044 7e-3 15.287-0.82807 21.686-4.0299 0.48053-0.24165-0.39329-1.6612-0.87385-1.423" fill="#f5ebb0"/>
  <path class="uuid-00cfc187-3523-4094-94cd-6ac30ba05bfe" d="m29.485 196.94c-0.69621-0.79517-3.7878-0.49627-7.8707 0.0858 0 0 2.1909-2.3725 1.7936-3.0763-0.48055-0.8481-5.1462-0.0431-7.5718 0.5263l4.3743-3.784-2.3839-0.4319s-2.2628 2.0357-3.3412 3.572c-1.4455 2.0586-0.70766 2.0586 1.3471 1.8202 2.592-0.2989 5.8803-0.73795 5.8803-0.73795s-1.033 1.1613-2.066 2.2326c-1.6006 1.6612-1.4379 1.7482 0.96494 1.4947 3.6251-0.37898 6.8566-0.78373 6.8566-0.78373s-4.2835 5.3392-9.8762 10.603c-1.8239 1.7142-1.7633 2.0699 0.0372 2.1267 1.7974 0.0572 3.9845 0.51057 3.9845 0.49912-0.15121 0.6164-11.064 4.7906-11.064 4.7906l4.7867-8e-3s9.1686-4.2835 9.1686-4.9836c0-0.69934-2.6904-1.2943-4.8813-1.7444 0.8438-0.88958 10.561-11.413 9.8648-12.207" fill="#a86124"/>
  <path class="uuid-1cc8e428-a7bd-4d26-a9fb-f1c2980bfe22" d="m151.36 163.19s-12.529-3.9165-14.292-11.749c-1.7634-7.8329-4.5029-29.765 12.729-38.574 0 0 3.3298-16.055 15.075-19.779-0.19741-14.686 31.331-45.82 53.653-31.721 27.021-13.902 60.51 6.2663 56.196 39.947 30.741 15.469 31.804 59.912 3.7197 69.315 5.8727 15.666-1.5666 38.771-21.735 40.14-19.313 1.3129-24.671-14.686-24.671-14.686s-23.888-15.862-41.707-6.2663c0 0-14.682-33.874-38.967-26.632" fill="#ef8200"/>
  <path class="uuid-9c9b7cac-7a60-42df-9768-3b796a5245ba" d="m21.615 211.09s-2.1872-0.44335-3.9845-0.49912c-1.0557-0.0287-1.4947-0.17722-1.3243-0.63213-3.8029-0.30607-7.5036-0.30319-11.64 1.31-9.3805 3.6554-15.423 0.79518-15.423 0.79518-5.8841-0.79518-7.7912-5.0894-7.7912-5.0894-0.95363 10.02 8.5858 9.2215 8.5858 9.2215 3.6553 4.1359 7.1555 1.1127 15.427-0.47624 1.8276-0.35182 3.9656-0.3976 6.2171-0.27602 2.7888-1.0855 9.8118-3.8596 9.9329-4.3553" fill="#92541c"/>
  <path class="uuid-eb80e2ff-2fa1-4149-bba9-329ec4f75a47" d="m54.853 190.94c-0.16264 6.6826-9.547 16.46-22.518 19.056a34.302 34.302 0 0 1-7.9804 0.61353c0.09433 0.0858 0.15121 0.18598 0.15121 0.28032 0 0.63928-7.7117 4.2949-8.9756 4.8927 6.9247 0.82092 14.039 2.5845 16.646 2.1683 3.9732-0.63499 27.509-15.423 27.509-15.423l-4.8284-11.583z" fill="#d18344"/>
  <path class="uuid-9c9b7cac-7a60-42df-9768-3b796a5245ba" d="m24.506 210.89c0-0.10016-0.06005-0.18889-0.15121-0.28032-2.838-0.0858-5.4678-0.43906-8.0485-0.64786-0.17042 0.45478 0.26858 0.5978 1.3243 0.63213 1.7974 0.0572 3.9845 0.51057 3.9845 0.49912-0.12155 0.49627-7.1442 3.2694-9.933 4.3554 1.2601 0.0715 2.5466 0.18598 3.8521 0.33753 1.2639-0.5978 8.9756-4.2494 8.9756-4.8927" fill="#92541c"/>
  <path class="uuid-3ad47a03-ccea-4924-b22f-eb3788015304" d="m56.484 194.92s9.4297 19.173 26.174 22.628l1.2757 10.001s-18.988-8.6313-27.449-32.629m62.901 29.068c5.869 0.51772 16.052-0.42047 22.787-2.7622l3.5607 8.5668s-19.147 5.3505-30.03 5.0932z" fill="#dcd096"/>
  <path class="uuid-eb80e2ff-2fa1-4149-bba9-329ec4f75a47" d="m146.01 229.72c13.376 7.9538 35.823 4.0375 45.748-25.076 0 0-2.8721 17.418-4.0185 19.525 0 0 7.4657 0.95677 8.041 6.1262 0.57492 5.1689 1.7216 27.373 1.7216 27.373l-24.694 1.9147-1.1498-13.781s-22.78-2.6791-25.652-16.078" fill="#d18344"/>
  <path class="uuid-8738451f-394c-40f5-b4f9-2e83be0aa585" d="m231.64 193.58s24.225 20.562 46.475 1.4073c0 0-6.4781 17.183-26.48 15.492-19.998-1.6876-19.998-16.899-19.998-16.899m37.185-36.614c1.3543 0.75654 16.998 5.5397 29.012-7.8858 0 0-6.4782 19.998-19.998 21.126 0 0 0-8.7334-9.0133-13.24" fill="#cf7100"/>
  <path class="uuid-8738451f-394c-40f5-b4f9-2e83be0aa585" d="m195.73 168.18c-1.9034-16.324-11.677-37.147-26.802-37.904-7.5112-0.37469-14.092 5.5398-19.06 12.37-2.6753 3.678-10.031 4.6806-14.379 1.0025-1.3358 15.715 15.196 19.366 15.196 19.366 22.935-6.3987 36.36 20.229 38.873 24.497 0.0146 0 0.0287-7e-3 0.043-0.0122l0.62784 2.6979c17.304-9.2972 34.139 1.31 41.408 6.7582l0.043-7.1441c-15.624-13.354-33.935-4.363-35.955-21.641" fill="#cf7100"/>
  <path class="uuid-9c9b7cac-7a60-42df-9768-3b796a5245ba" d="m197.26 256.8c0.17455 12.858-0.40187 23.385-1.1012 24.789a9.3956 9.3956 0 0 1-8.4988 5.2673c-3.1218 1.9676-7.7534 3.4698-13.074 0.1145-1.7368 0.1145-5.4791-0.0715-6.8262-5.8992-1.0412-4.5143 3.7007-9.7172 3.7007-9.7172s1.0941-8.1053 0.93103-16.131l5.6306-7.4659 10.625 8.3249 3.0158-4.5938 5.6002 5.3128z" fill="#92541c"/>
  <path class="uuid-9c9b7cac-7a60-42df-9768-3b796a5245ba" d="m172.3 257.31c2.2062-3.6818 6.1225-8.0371 6.1225-8.0371s5.2446 4.3288 7.356 5.9067c2.804 2.1039 2.959 2.8153 4.6392-0.10016 0.80232-1.4001 1.4758-2.3196 1.4758-2.3196l5.271 5.0592v-1.9828c-0.1517-0.22731-4.3212-5.8159-5.271-5.8159-0.94962 0-3.4774 5.165-3.4774 5.165s-9.4298-8.6842-10.213-8.529c-1.2114 0.24599-6.4403 8.6313-6.4403 8.6313l0.53773 2.0244z" fill="#92541c"/>
  <path class="uuid-8738451f-394c-40f5-b4f9-2e83be0aa585" d="m45.223 37.398c-1.1503 8.2679 10.379 10.379 14.478 4.3704 4.1775 8.6918 14.182 9.7248 19.31 4.1927-1.7216 5.7441 9.8913 12.601 17.085 8.4913 5.6948 4.5256 15.84 4.3325 18.348 0.74225 2.4672 0.33753 6.6787-0.6207 8.5897-5.5964-0.73798 6.3305-0.25028 10.167-4.6959 16.347 0 0-15.015 4.0791-25.023 14.273 0 0-14.186-4.8813-34.018 3.6441 9.0815-6.2701 14.86-7.7913 24.312-8.2302 7.4733-0.34754 1.1012-5.8085-0.57492-7.655-5.029-5.5512-13.566-13.361-33.829-13.656-0.17042-0.2273-5.6154-5.1273-3.9807-16.918m-13.108 40.14s0.95735 11.291 6.5084 5.362c-0.76442 4.4008 3.2542 12.824 8.2339 8.2302 0 0-5.7441 9.7626-5.7441 11.484l-3.4472-9.5696s-6.5084-4.0186-5.5511-15.503" fill="#cf7100"/>
  <path class="uuid-9c9b7cac-7a60-42df-9768-3b796a5245ba" d="m9.7178 60.506c2.5693-1.6385 11.31-1.2643 22.397 8.041-2.2969-5.3581-19.601-24.615-22.78-24.308-2.3574 0.22317-0.50328 13.07 0.38214 16.271" fill="#92541c"/>
  <path class="uuid-fa9f8df0-540c-44fe-aee6-6eb141b1d1ee" d="m86.612 105.47c0.46479-4.1927-5.3959-13.645-13.997-13.085-5.8386 0.38185-13.153 7.568-13.036 13.706 0.12885 6.7053 9.1269 11.413 14.182 11.624 3.8143 0.15875 12.052-5.0402 12.85-12.245" fill="#5a4c2a"/>
  <path class="uuid-25adde7e-6bfa-453a-9633-a9a8216c3980" d="m65.929 103.13c1.1654 1.5553 3.3071 1.1499 4.7792-0.901 1.4719-2.0508 1.7216-4.976 0.55204-6.5311-1.1656-1.5552-3.3073-1.1499-4.7792 0.901-1.472 2.0547-1.7218 4.976-0.55248 6.5311" fill="#fff"/>
  <path class="uuid-9e6e3915-cded-4d83-af78-c676678b26d3" d="m68.241 115.12c-1.5402-2.9364 1.3172-7.7988 4.764-9.5393 4.2267-2.1304 8.4042-1.3129 9.8573 1.1356 1.7216 2.8985-0.10016 7.4772-4.3479 9.7211-4.0034 2.1114-8.6539 1.7708-10.273-1.3172" fill="#7e6b3b"/>
  <g fill="#0f141b">
   <path class="uuid-b0394308-0876-4c56-a75a-94deb8918079" d="m73.497 91.342c-5.9106 0.10016-14.489 6.2624-16.377 16.184-0.74169 3.8899 0.42004 4.8587 1.8996 0.63644 0.86281 3.8331 7.6058 10.743 13.963 11.008 7.1668 0.2989 14.243-7.723 14.478-13.399 0.29175-7.0118-7.1593-14.534-13.963-14.421m0.02869 2.278c6.2587-0.10016 12.215 6.4214 11.98 12.063-0.18889 4.6203-6.5122 11.45-12.446 11.204-5.5814-0.23023-13.335-6.4442-12.987-11.473 0.37842-5.4338 7.5452-11.692 13.452-11.791m-48.98-1.2485c-0.12447 0.33753 0.76814 0.79518 0.89298 0.45337 1.1201-3.0045 2.6337-4.2607 3.2618-4.1548 0.94977 0.42048 0.9838 7.2993-0.20445 10.849-0.68104 2.0281-2.645 4.1472-3.4623 4.0299-1.0028-0.14295-1.0709-0.38615-1.3434-2.2931-0.05299-0.35613-0.94218-0.17455-0.96491 0.18597-0.30279 5.2105 5.7024 3.9959 7.6588-1.8315 1.1314-3.364 0.75297-12.275-1.4682-12.869-1.7596-0.47338-3.0537 2.1191-4.3667 5.6343"/>
   <path class="uuid-b0394308-0876-4c56-a75a-94deb8918079" d="m58.55 161.14c8.7638 0.35897 9.3653-0.8481-1.4947-2.0547-6.9285-0.76799-12.941-3.2352-14.78-4.2228-17.705-9.5129-29.507-31.044-29.507-39.614 0-6.5085 4.6883-10.89 11.356-11.11-0.51458-9.9745 2.8569-16.264 7.5717-22.443-0.36327-1.0712-0.25358-2.1379-0.12155-3.2089-5.3808 5.8425-9.3351 12.188-9.3351 23.96-7.5301 1.7634-12.113 5.3392-12.113 12.48 0 14.421 21.111 38.044 31.286 42.297 5.536 2.3157 12.184 3.7121 17.138 3.9164"/>
   <path class="uuid-b0394308-0876-4c56-a75a-94deb8918079" d="m1.0714 193.16c10.879-1.127 23.423-0.4162 29.587-2.698 5.0894-1.8844 25.67-15.276 25.478-30.96-0.72652 0.44335-1.9715-0.635-2.8191-0.36755 1.0369 11.598-15.382 27.116-23.79 29.39-5.6835 1.5363-17.845 1.4455-28.891 2.4104-19.907 1.7444-23.915 10.126-19.745 19.93 0.93089 0 0.26873-2.138 0.40116-2.6715-1.8693-9.3501 6.1073-13.615 19.779-15.037"/>
   <path class="uuid-b0394308-0876-4c56-a75a-94deb8918079" d="m33.387 215.9c-6.149 1.892-19.563-3.3526-30.926-0.54489-3.8899 0.96107-8.6161 2.7925-11.102 0.35182-2.4861-2.4406-1.3811-5.6191 3.0499-9.2177 1.699-1.3815 1.2259-2.1796-0.85524-1.0826-4.9532 2.6185-7.9085 7.9918-4.0072 12.078 2.032 2.1304 6.9776 1.7936 13.547-0.14731 11.636-3.4358 25.092 3.7499 31.422 0.87383 2.9439-1.3401 19.957-11.477 25.674-14.886a7.1139 7.1139 0 0 0-0.72652-2.066c-5.3354 3.2278-22.549 13.55-26.079 14.64"/>
   <path class="uuid-b0394308-0876-4c56-a75a-94deb8918079" d="m-12.392 201.66c1.5741-1.147-0.0075-1.3286-1.6006-0.60211-7.6815 3.4889-9.5507 16.131 4.7035 16.199-0.58651-0.67362-0.52601-1.1384-0.86282-1.8655-6.7847 0.20446-11.193-7.2046-2.2401-13.732m21.292-157.91c-3.118 3.9278-1.2751 27.347 15.711 48.136-0.01459-0.81805 0.6849-1.2757 1.1693-1.8389-17.017-23.071-17.55-42.294-16.059-44.481 2.3309 0.31465 13.573 10.516 22.787 25.33 0.23071-0.96535 0.41632-1.9791 0.63198-2.959-7.8252-12.237-16.653-20.241-21.633-23.411 10.856-0.33323 25.394 4.7527 35.077 10.557 0.9838-0.10016 1.9904-0.30605 2.9931-0.53345-17.853-12.343-39.16-12.718-40.678-10.803"/>
   <path class="uuid-b0394308-0876-4c56-a75a-94deb8918079" d="m45.439 33.353c-4.2797 10.221 0.88928 18.613 3.1747 21.474h1.8239c-3.0158-4.0223-6.4857-11.999-2.4104-20.774 4.6467-10.009 15.579-11.227 18.829-11.14 0 0-0.28317-0.01459 1.805-1.1913-4.3138-1.6234-18.159-0.46479-23.219 11.628m60.911 11.863c-9.1344-0.44192-13.694 10.266-12.169 18.409 0.81377 4.3364 2.8077 7.5832 6.2247 9.3654 0.76085-0.77517 1.6309-0.90817 2.8948-0.93105-4.2532-1.207-7.4167-5.1765-7.4167-10.807 0-7.1668 2.944-13.917 9.8195-13.917 7.6966 0 9.2593 7.8706 4.5711 13.059-1.4342 1.5855-1.147 2.4709 1.2757 0.6364 5.903-4.4764 5.1765-15.314-5.1992-15.817"/>
   <path class="uuid-b0394308-0876-4c56-a75a-94deb8918079" d="m123.46 54.917c1.5476-17.773-10.213-27.506-19.817-28.637-19.892-2.346-32.463 20.74-23.525 38.426 1.2328 2.4444 2.1909 2.4254 1.7142 1.1727-9.0248-23.737 7.4846-39.191 21.625-36.898 20.88 3.3904 17.614 25.913 17.614 25.913-0.0715 4.3062-2.0094 8.4649-4.6998 11.662a19.374 19.374 0 0 1 3.3185-0.68075c1.9526-3.1558 3.4245-6.9588 3.7726-10.958"/>
   <path class="uuid-b0394308-0876-4c56-a75a-94deb8918079" d="m76.626 16.336c-22.337 5.6191-21.277 32.243-12.211 39.342 2.0774 1.6234 5.8992 2.312 3.3412 1.1727-10.027-5.6002-11.454-32.769 8.9719-37.919 8.7372-2.2023 17.997 0.3175 23.449 8.3285h2.3575c-3.6894-6.1603-12.896-14.201-25.909-10.928m92.874 59.707c1.7255-3.5644 0.96107-4.3704-1.8694-5.6722-14.054-6.4705-56.865-13.97-77.008 10.875-1.7027 2.1-7.7722 11.496 1.7216 1.2528 22.711-24.516 61.293-15.813 73.072-10.924-17.467-0.65502-40.712 1.1956-57.6 21.765-7.708 9.3919-8.06 8.9605 2.4369 6.781 5.8499-0.85524 14.962-2.5959 19.06-2.91-4.064 2.9856-9.0209 7.5944-11.87 10.357-4.1738 4.0526-4.1283 4.4651-0.0572 3.6704 4.4008-0.86237 5.744-0.95677 5.744-0.95677s-3.3336 6.7771-2.645 7.6436c0.6922 0.86669 4.2872-1.4568 4.2872-1.4568-0.43907 5.1349-0.15875 5.517 4.0262 3.1331 13.475-7.6701 34.919-31.611 40.7-43.553m-32.493 69.258c-1.1498-17.611 6.8226-28.773 11.893-30.942 0.043-2.0434 0.47336-1.4795 0.74224-3.5229-10.13 6.5803-16.411 18.716-15.374 34.85 0.76799 11.87 10.122 16.54 15.753 17.611l3.943-1.2071c-5.6078 0.39758-16.184-4.8737-16.96-16.786"/>
   <path class="uuid-b0394308-0876-4c56-a75a-94deb8918079" d="m220.82 60.287c-23.071-12.691-56.203 8.635-59.416 42.649-1.5287 16.161 11.208 30.544 12.063 45.438 0.53775 9.3009-3.9996 16.865-3.9996 16.865l1.96 0.94965s3.6138-4.2948 4.3592-16.668c0.901-14.939-13.342-27.918-11.594-46.831 2.9137-31.52 35.346-51.477 53.021-40.345 1.892-0.1286 3.2202-0.1145 3.6062-2.0586"/>
   <path class="uuid-b0394308-0876-4c56-a75a-94deb8918079" d="m146.64 124.97c-0.0572 23.438 8.5744 28.622 13.263 36.697l2.8608 1.3515c-4.696-11.212-14.916-16.146-13.463-38.714 0.83665-12.945 4.1699-23.468 15.374-30.302 0.57064-1.6689 0.46909-1.1613 0.57492-2.8721-11.833 5.2067-18.576 21.376-18.606 33.844m126.85-24.656c3.1521-11.742-6.8717-37.878-29.878-41.332-23.525-3.5342-49.116 13.195-51.787 49.351-1.7558 23.782 3.0423 44.424-14.845 62.572l-1.5137-2.2023c17.686-16.608 11.855-38.328 13.827-60.082 3.3602-37.019 25.436-55.643 54.111-52.298 23.15 2.7017 35.944 27.146 32.557 45.139l-2.4672-1.1498zm-9.2632 28.357c9.1914 1.5363 11.606 10.955 10.448 16.301-1.3243 6.1224 0.86668 5.1992 2.2968 0.19303 1.7028-5.9635-1.1127-17.762-12.903-19.393-11.515-1.593-20.063 9.3919-20.093 21.092 0.83235 0.0715 1.6763 0.17456 2.5352 0.29178 0.22731-12.714 9.8384-19.802 17.713-18.485"/>
   <path class="uuid-b0394308-0876-4c56-a75a-94deb8918079" d="m229.49 107.43c-17.974 13.709-28.804 53.229-48.991 66.462l1.3658 2.0699c24.301-19.506 30.699-50.717 48.927-65.516 32.368-26.28 67.275-1.5287 66.072 28.698-0.56347 14.243-6.5803 26.136-18.129 30.143 0.31462 0.70792 0.63212 1.4158 0.92674 2.1228 12.29-3.9996 19.817-16.49 20.388-31.063 1.3057-33.572-36.356-59.004-70.56-32.921"/>
   <path class="uuid-b0394308-0876-4c56-a75a-94deb8918079" d="m260.24 184.14c-0.81664-4.2835-4.59-10.391-13.138-10.788-6.3382-0.29176-15.45 3.8331-17.02 14.833-1.9449 13.611 10.607 24.433 26.598 24.077 15.473-0.34468 26.976-18.016 25.213-34.109-2.4709-22.511-21.974-32.368-41.802-31.596-25.421 0.99111-35.509 26.488-55.454 33.416l1.1012 2.3007c24.585-12.177 31.286-31.608 54.599-33.144 21.868-1.4417 36.803 13.422 38.544 28.459 1.8655 16.12-7.4998 30.121-21.735 31.392-18.012 0.80663-25.163-10.425-24.592-19.109 0.65503-9.9594 8.6767-13.834 14.633-13.777 7.8366 0.0715 10.413 6.1225 10.966 9.2103 0.90387 5.0592 3.1142 4.2569 2.085-1.1613"/>
   <path class="uuid-b0394308-0876-4c56-a75a-94deb8918079" d="m231.08 194.86c-13.236-10.402-27.736-11.632-41.438-6.6749l0.90099 2.1909c12.884-4.7753 26.548-2.5656 41.113 7.2236-7e-3 -1.4273-0.57492-2.7396-0.57492-2.7396m17.255-105.38c-6.8641-7.935-22.307-4.2948-22.307 9.3199 0 7.8253 4.5106 10.194 4.5106 10.194l-1.5022 2.1454s-6.0658-3.1898-6.0658-12.279c0-15.825 18.716-22.03 27.199-10.459 2.327 3.1748 0.4319 3.7008-1.839 1.0826m-134.49 172.81c-0.52914-0.10017 0.38187 2.3157 0.9196 2.3762 2.5277 0.27602 4.9192-0.73795 7.3485-1.7065-0.8824-0.54489-1.1355-1.0712-1.9979-1.6347-1.6763 0.74512-3.3186 1.5022-6.27 0.96537"/>
   <path class="uuid-b0394308-0876-4c56-a75a-94deb8918079" d="m138.77 231.28c0.17455-0.50626-2.191-0.16579-2.3536 0.34468-2.8796 9.1762-3.8521 21.652-7.0495 27.014-2.278 3.8218-5.3997 4.6543-7.9842 2.7925-1.6385-1.1799-2.0623-5.3807 0.60925-8.8999 1.044-1.3816 0.46909-1.9525-1.5213 0.0715-3.4963 3.5381-2.8038 8.5821-0.55204 10.652 1.8013 1.6574 8.6313 3.436 11.609-3.9959 4.3101-10.75 4.4614-19.892 7.2464-27.971"/>
  </g>
  <path class="uuid-00cfc187-3523-4094-94cd-6ac30ba05bfe" d="m121.78 116.38s4.2948-2.0283 4.6996-1.7029c0.40475 0.32178-0.71937 3.8976-0.71937 3.8976 17.092-8.7486 43.989-42.619 42.99-45.007-0.42047-1.014-42.225-4.7035-63.306 25.485 9.021-1.9412 14.065-2.558 20.029-3.1256 5.9635-0.56777 7.4544-0.38615 2.0547 4.5862-3.9315 3.6213-10.338 9.4751-10.338 9.4751s7.3257-2.0321 8.1355-1.6272c0.80949 0.40471-3.5494 8.0183-3.5494 8.0183" fill="#a86124"/>
  <g fill="#0f141b">
   <path class="uuid-b0394308-0876-4c56-a75a-94deb8918079" d="m54.036 184.67c3.3186 13.316 15.321 37.507 36.686 45.139 16.945 6.0543 32.807 4.6051 53.77-0.67363l0.88955 1.7821c-18.95 5.2447-38.824 8.3966-56.797 0.97965-20.078-8.2831-34.302-31.403-36.129-47.144-0.44279-3.7954 0.65087-3.8181 1.5817-0.0858m132.16 46.853c4.4159-9.5772 8.3778-28.747 6.4214-39.096-1.7557-9.3009-13.437-24.093-24.047-29.174-14.269-6.8378-24.289 3.1823-39.792 0.31036-5.4073-1.0026-12.79-3.2278-17.213-8.4345-2.3385-2.747-2.3801-8.1884-0.91245-9.8534 4.5258-5.1312 12.192-13.759 15.908-25.553-1.0669-0.56062-1.3286-0.77942-1.6611-1.7822-8.0863 21.364-17.463 24.921-17.463 30.2-0.10017 1.5022 1.1356 6.9436 2.1947 8.1545 5.3126 6.0732 13.081 8.6652 19.484 9.4561 16.892 2.0812 25.92-5.7138 37.068-0.6965 11.484 5.1689 21.345 18.708 23.464 28.293 2.6035 11.776-1.423 27.101-5.464 37.639-2.7359 7.1252-0.18598 5.3089 2.013 0.53775m-166.99-112.97c1.6498 0.25312 6.7014-2.9024 7.1328-6.1642 0.5449-4.098-11.87-5.5322-13.157-1.7292-0.74541 2.2022 2.7926 7.3976 6.0241 7.8934m12.529 6.4819c-5.1916-2.2476-4.3024-3.7046-0.56004-2.3876 3.4359 1.2142 8.5253 2.9022 11.439 3.8559 3.2353 1.0555 3.5191 1.32 3.8899 4.7072 0.84008 7.6437 0.84766 15.783-1.6082 16.453-4.624 1.26-13.418-11.938-13.161-22.628m12.502 21.368c1.8163-0.46908 0.44279-14.863-0.30648-17.228 0 0-8.4307-2.785-10.455-3.5531 1.0445 10.599 8.5404 21.353 10.762 20.782"/>
   <path class="uuid-b0394308-0876-4c56-a75a-94deb8918079" d="m37.015 139.42 0.69249 1.2671c1.7747-3.4284 4.7338-5.869 8.3096-4.9608l-0.26486-1.1885c-3.6629-1.0483-7.0193 0.0287-8.7334 4.8813m110.72 91.776c-2.7396-5.0061-5.29-12.022-6.1301-22.064-0.58637-7.0268-1.7444-7.7724-1.9828-0.54918-0.23022 6.9663 3.1256 19.594 5.8614 24.259 4.2154 7.1933 15.196 13.509 26.821 13.936 2.2931 0.0858 8.2187-0.82951-0.29891-1.8807-13.577-1.68-21.512-8.6578-24.27-13.698"/>
   <path class="uuid-b0394308-0876-4c56-a75a-94deb8918079" d="m187.86 225.4c0.043 0.0146 4.8094 1.4984 6.2208 5.377 1.3844 3.8067 1.8882 26.499 1.9487 32.629 0.0572 6.1338-0.24597 13.407-0.88955 15.791-1.3887 5.131-4.6506 6.7128-7.2426 6.4819a1.0103 1.0103 0 0 0-0.61639 0.1444c-7.0799 4.2419-11.03 0.67788-12.639-0.0287-5.1047-0.10015-7.9161-6.1035-3.1294-12.544 0.9768-1.3129 0.87097-0.94963 1.2414-3.5381 1.373-9.6226 0.10017-23.457 0.043-24.142-0.0572-0.56347-3.0726-0.43477-3.0726 0.0858 1.7671 6.3382 1.8655 19.938 0.64642 25.754-2.1493 2.1189-4.3175 5.5586-4.3175 8.2944 0 3.171 2.3575 7.7458 8.6389 8.1053 3.4586 2.5617 7.2046 3.4397 13.342-0.0858 3.2278 0.14294 8.1015-1.1613 9.7702-7.3183 0.70078-2.592 1.0326-8.7864 0.6164-17.054-0.41618-8.2681-0.45051-29.905-2.0283-34.245-1.7595-4.8397-8.4874-5.8311-8.7068-5.903-0.53774-0.17017-0.35899 2.0092 0.17723 2.1872"/>
   <path class="uuid-b0394308-0876-4c56-a75a-94deb8918079" d="m174.61 276.69c-2.9666 9.0438 2.3991 10.781 6.8755 11.723 0 0-1.805 0.52202-3.837 0.0715-4.6808-1.0412-7.356-5.2976-4.6808-11.068 0.77514-1.6687 2.278-2.6677 1.6422-0.72653m8.8167 0.0715c-0.70792 6.3571 1.7444 9.1193 6.0241 8.9036-0.0715 1.0855-0.72652 1.5174-2.0283 1.7368-3.8067-0.53346-7.3296-3.8331-5.1916-10.58 0.74512-2.3499 1.453-2.346 1.1956-0.0715"/>
  </g>
  <path class="uuid-9c9b7cac-7a60-42df-9768-3b796a5245ba" d="m168.75 73.565c-0.42049-1.0111-42.225-4.7035-63.306 25.485a173.26 173.26 0 0 1 11.356-2.1039c11.662-7.8216 26.84-10.281 40.053-6.501 7.2689-8.5291 12.339-15.813 11.897-16.876" fill="#92541c"/>
  <path class="uuid-4714941a-920f-404f-879a-3b3da34917f0" d="m113.75 250.87c1.6498-20.203 8.3134-46.91 8.3134-46.91l-41.09-12.237s3.5531 49.532 3.5002 55.038z" fill="#f2984f"/>
  <path class="uuid-00cfc187-3523-4094-94cd-6ac30ba05bfe" d="m113.85 248.52c-0.6393 7.8329-0.28033 14.568 1.0969 19.726 1.6876 6.3154-4.329 13.997-7.8517 12.601-3.8522 6.0998-10.41 3.6515-14.061 0.36755 0 0-3.1027 0.1816-6.9397-5.6608-3.8331-5.8462-1.6423-25.568-1.6119-28.792l6.5008-9.1724 2.9932 3.6478 4.3024-5.2333 2.8038 9.2556 5.797-4.0186 6.9778 7.288z" fill="#a86124"/>
  <path class="uuid-00cfc187-3523-4094-94cd-6ac30ba05bfe" d="m94.169 240.28c-0.79805-0.9196-2.4445-4.1662-3.1331-4.2154-0.68505-0.043-6.8642 10.103-6.8642 10.103-0.3218 0.43474 0.16312 3.0953 0.48052 2.6601l6.5008-10.115s0.61642 1.1084 1.5136 2.1191c1.3815 1.5627 1.5666 1.854 3.1408-0.22317l2.0092-2.6488 1.8163 6.077c0.74225 2.486 0.9196 2.7472 3.1558 1.1427a30.715 30.715 0 0 0 4.0262-3.0914c0.91957 0.92387 5.9901 6.9512 5.9901 6.9512 0.379 0.38188 1.7632-0.99537 1.3844-1.3815 0 0-6.1679-6.8944-7.3106-7.0383-0.7866-0.10016-3.8938 2.1492-5.3202 3.0309-0.54917-1.8428-2.3386-8.5215-3.1785-8.7788-0.83949-0.25315-3.2277 4.1131-4.2117 5.4073" fill="#a86124"/>
  <path class="uuid-9c9b7cac-7a60-42df-9768-3b796a5245ba" d="m83.922 265.95s1.911 10.33 7.5225 10.073c1.5855 3.0271 9.0514 3.6023 10.837-1.0211 2.8077 1.2757 12.487 1.2457 12.627-8.7978 1.1055 7.4583-0.043 13.161-7.78 14.281 0 0-3.4395 6.2511-11.984 2.2968 0 0-10.33-0.76371-11.219-16.831" fill="#92541c"/>
  <g fill="#0f141b">
   <path class="uuid-b0394308-0876-4c56-a75a-94deb8918079" d="m41.522 55.424c-7.3144 3.5684-11.651 11.802-9.9027 21.792 0.09432 0.52914 1.646-1.3358 1.6233-1.8731-0.29132-8.2074 2.558-14.629 9.1345-17.838 10.251-5.0023 25.303-1.1999 37.495 8.3816 4.658 3.6591 5.7933 2.9666 1.2557-0.8438-12.396-10.417-28.686-14.947-39.611-9.6188"/>
   <path class="uuid-b0394308-0876-4c56-a75a-94deb8918079" d="m42.408 76.929c-6.2549 4.7489-7.409 13.622-3.1445 23.184 2.4407 5.4755 2.0736 5.0215 4.2872-0.68077 3.0537-7.8517 6.7166-12.801 14.216-15.518 0.507-0.18598 0.54862-2.4974 0.04157-2.312-8.4042 3.0461-14.538 10.224-16.68 18.822-4.1624-11.87-2.3233-19.098 3.7424-23.646 2.1077-1.5818-0.18914-1.5742-2.4634 0.15583"/>
   <path class="uuid-b0394308-0876-4c56-a75a-94deb8918079" d="m49.098 59.89c-7.2274 0.8824-14.023 4.5522-17.096 12.184-3.1482 7.829-0.07147 17.543 6.6182 24.857v-2.9553c-4.6656-5.6873-7.2993-14.167-4.4802-21.171 2.4482-6.0846 8.2491-9.6264 14.693-11.231 5.5397-1.3815 5.8159-2.3573 0.26486-1.68m9.214 20.293c-5.6873 7.7306-4.2986 6.5387 3.4472 3.625 9.2292-3.4737 20.85-4.6164 29.84-3.3034 1.8012 0.26457 2.6525-0.72224 1.2414-1.0483-9.653-2.6375-21.179-1.9753-33.867 3.4812 3.451-5.6306 10.868-10.239 17.985-11.352 4.6127-0.71938 6.3798-1.7821 1.8655-1.7821-9.3804 0-16.43 4.8358-20.509 10.379m59.772 136.65c-3.2468 19.457-7.3259 33.329-5.6381 46.6 0.31463 2.4974 2.6525 6.8339 0.10016 12.563-1.8881 4.2493-9.0588 4.2909-10.372-3.3944-0.36756-2.1568-1.4044-1.9449-1.393 0.40474 0.0572 10.134 9.3806 10.909 13.248 5.1084 4.6656-7.0004 1.1198-11.552 0.62068-15.787-1.7936-15.181 3.1597-28.622 5.8614-44.87 2.5051-15.056 0.0715-15.635-2.433-0.62355"/>
   <path class="uuid-b0394308-0876-4c56-a75a-94deb8918079" d="m108.72 281.34c-0.91532 0.81805-2.085-0.36755-3.05-0.80232-1.7784 2.8493-11.446 5.0326-13.626-5.0063-0.7108-3.2579-1.6234-1.6839-1.32 1.4342 0.89242 9.2102 12.283 11.359 18 4.378"/>
   <path class="uuid-b0394308-0876-4c56-a75a-94deb8918079" d="m85.129 254.98c1.6309-23.79-1.3587-37.212-2.3422-52.215-1.1727-17.906-3.3829-15.079-2.4596 0.55204 1.2786 21.599 3.9619 28.841 2.2628 50.997-1.7255 22.454 4.9797 28.3 15.374 29.765-1.4455-0.80233-1.9375-0.82093-2.418-1.4644-8.7447-5.6268-11.689-9.0778-10.417-27.634"/>
  </g>
  <path d="m19.798 111.03c0 0.63643-1.1087 1.1498-2.4709 1.1498-1.3622 0-2.4747-0.51485-2.4747-1.1498 0-0.63643 1.1087-1.1498 2.4747-1.1498 1.3659 0 2.4709 0.51484 2.4709 1.1498" fill="#8a969d"/>
 </g>
</svg>
