<?xml version="1.0" encoding="UTF-8"?>
<!-- Created with Inkscape (http://www.inkscape.org/) -->
<svg version="1.1" viewBox="0 0 241.2 259.56" xmlns="http://www.w3.org/2000/svg">
 <path d="m15.787 168.97c-4.7196 10.613-5.8936 51.311 2.3598 54.263 8.2534 2.941 17.53 5.8123 23.005-4.1383 1.6972-3.0921 5.9518-6.2889 5.9518-6.2889z" fill="#515457"/>
 <path d="m52.353 40.397c14.74-30.666 114.42-38.338 139.19-1.7669 18.867 3.5339 61.924 56.612 38.919 104.98 8.2651 21.54-11.857 67.295-43.057 72.537-4.1848 16.1-49.323 30.747-101.44 16.518-14.74 0-68.41-28.899-74.316-83.755-13.089-21.703-2.941-90.23 40.698-108.52" fill="#e3eff5"/>
 <path d="m172.81 192.82c2.848-2.848 18.541-22.831 24.807-36.513-8.9858-8.5557-19.866-42-20.564-44.696 0 0-41.476 8.1953-53.45 4.2081-1.1392 3.4176-11.276 37.303-19.831 48.126 23.075 19.006 27.132 32.444 27.132 32.444s29.933-5.8472 41.907-3.5687" fill="#7e8387"/>
 <path d="m181.03 124.15c-2.5109-7.1724-3.964-12.543-3.964-12.543s-41.407 8.451-53.368 4.4638c-1.1392 3.4176-11.206 36.954-19.75 47.789 3.9988 3.1619 9.195 7.3816 12.717 11.52 9.0439-37.815 30.131-54.903 64.365-51.229" fill="#515457"/>
 <path d="m222.28 66.341c3.9872 15.682-10.02 45.103-13.822 50.241-5.3124 7.1723-2.9294 10.102 2.9178 9.0323 5.8588-1.0578 29.84-12.287 27.818-35.769-2.1273-24.725-16.914-23.505-16.914-23.505" fill="#e3eff5"/>
 <path d="m211.38 125.62c4.336-0.79047 18.634-7.1724 24.923-19.994-8.5673 7.928-19.773 12.845-30.759 17.925 0.33711 1.9994 2.5342 2.6736 5.8355 2.0692" fill="#c1cbd1"/>
 <path d="m85.118 18.76c5.1032-9.939 19.134-19.936 34.56-15.682 35.745 9.8576 40.395 63.83 38.803 74.432-1.5926 10.625-6.905 13.287-11.427 4.243-5.9053-11.799-34.025-52.357-61.936-62.993" fill="#e3eff5"/>
 <path d="m96.975 6.478c-5.3357 3.1968-9.5321 7.742-11.857 12.276 27.911 10.636 56.03 51.195 61.936 63.005 0.34874 0.68585 0.69747 1.2903 1.0462 1.8483-4.3011-32.258-20.296-68.364-51.125-77.129" fill="#c1cbd1"/>
 <path d="m45.787 213.55-5.5914-7.1258c-1.3252 3.9872-1.3252 10.102 0 12.752z" fill="#99003f"/>
 <path d="m104.16 164.33 11.532-23.296c2.3598 2.3598 19.227 13.182 25.132 14.961-1.1741 3.9872-7.6722 23.586-26.539 16.507z" fill="#ffe792"/>
 <path d="m115.69 141.04-11.532 23.296 10.125 8.1721c0.31386 0.12787 0.62773 0.22087 0.94159 0.32549 1.2903-9.4391 9.7762-22.726 12.357-24.191-5.789-3.4874-10.602-6.3121-11.892-7.6025" fill="#dbc77f"/>
 <path d="m197.16 157.36-10.334-17.879s-8.8579 13.508-13.566 17.1c0 0 4.5917 20.506 15.798 13.426z" fill="#ffe792"/>
 <path d="m31.632 54.961c-23.9 51.136 75.002 90.416 74.293 93.578-1.3252 5.975-3.5222 13.322-8.0907 17.53 3.5106-0.69747 14.38 11.229 19.645 16.832 5.2659 5.6147 9.474 12.985 10.869 18.588 3.5106-3.8594 45.568-6.3005 48.405-4.5568 0.46498-0.60448-2.5574-3.592-2.4644-4.9056 5.2659-7.37 24.051-35.397 23.854-35.397-7.7303-7.3467-19.611-42.116-22.075-45.266-13.67 4.9056-45.464 7.3351-53.066 3.9523-24.202-37.884-66.167-73.746-69.678-74.444v-1.0578c14.031-7.3583 70.491 61.378 72.944 67.69 2.4644 6.3121 43.848 0 49.102-1.0578 5.2659-1.0462 14.38-24.9 16.484-47.335 9.1253 23.144-6.6609 51.195-7.7187 52.601-0.84859 1.1392 9.7995 37.175 18.564 44.894-7.5908 10.822-14.775 24.179-16.832 29.457-2.0575 5.2776 19.285 9.8228 35.304 4.336-7.9628 12.845-19.738 23.389-33.758 25.748-4.1848 16.1-49.323 30.747-101.45 16.518-14.74 0-68.41-28.899-74.304-83.755-10.695-17.716-5.8936-66.632 19.971-93.95" fill="#c1cbd1"/>
 <path d="m77.232 22.114c-2.0227 1.4763 39.57 31.026 66.923 55.926-8.0674-34.711-42.79-57.867-52.95-58.913-10.171-1.0578-11.95 1.5112-13.973 2.9875" fill="#c1cbd1"/>
 <path d="m111.7 230.88c1.8018-9.7414-18.832-25.946-40.407-12.496-5.7774 3.6036-2.476 29.189 4.7893 34.56 6.1145 4.522 28.445 7.1724 29.236 0.80209 1.0462-8.3348 6.3819-22.865 6.3819-22.865" fill="#7e8387"/>
 <path d="m71.295 218.39c-5.7774 3.6036-2.4877 29.189 4.7893 34.56 2.0343 1.4996 5.882 2.8015 10.125 3.6269 5.696-19.308 25.876-25.318 25.876-25.318 1.8018-9.7414-19.215-26.33-40.791-12.868" fill="#515457"/>
 <path d="m110.69 234.46s3.22-9.567-2.6969-12.706c0.69748 7.277-5.603 17.367-1.8716 23.737z" fill="#ba004f"/>
 <path d="m108.22 221.98c0.34874 3.6269-1.5693 8.3813-2.4876 12.38 1.7088-0.95322 3.5571-1.7088 5.4635-2.2203 0.40685-2.8015 0.99971-8.0558-2.9759-10.16" fill="#99003f"/>
 <path d="m210.06 202.37c4.2662 10.974-4.2313 23.633-2.4412 29.282 1.302 4.0802 0.45336 10.439-0.60447 10.974-4.2546 2.1273-17.704 2.0808-23.284-1.9064-6.2889-4.4987-12.124-7.9977-12.706-12.124 1.3368-6.0796 29.887-28.062 39.035-26.225" fill="#7e8387"/>
 <path d="m210.99 205.77c-0.19762-1.1508-0.48823-2.29-0.92996-3.406-9.1485-1.8251-37.687 20.145-39.035 26.225 0.59286 4.1383 6.4168 7.6373 12.717 12.124 1.6623 1.1973 4.0337 2.0227 6.6492 2.5574 0.98808-14.275 9.9971-27.748 20.599-37.501" fill="#515457"/>
 <path d="m172.98 224.88c-1.7437 2.1738-4.1383 3.4874-1.7437 5.882 2.3946 2.3947 11.543 9.5786 11.543 9.5786 4.7893-3.685 7.3351-18.099 2.8131-26.469 0 0-10.869 8.8347-12.613 11.008" fill="#99003f"/>
 <path d="m18.665 82.29c-11.962-4.522-25.144 18.227-10.102 30.038 21.11 16.565 65.342 22.61 70.712 22.854 5.8471 0.26737 8.2302-2.6504 2.6504-8.7649s-50.962-39.477-63.261-44.127" fill="#e3eff5"/>
 <path d="m4.5484 89.133c-3.9872 6.7655-4.3243 16.646 4.0105 23.191 21.11 16.577 65.342 22.621 70.712 22.865 1.4298 0.0581 2.6504-0.0697 3.6036-0.38361-24.993-8.0093-77.954-31.863-78.326-45.673" fill="#c1cbd1"/>
 <g fill="#0f141b">
  <path d="m12.781 220.63c1.023 2.383 2.3133 3.871 3.8594 4.4173 7.3002 2.6039 20.134 6.719 26.318-4.522 1.5577-2.8248 4.8591-6.6957 4.8939-6.7306l-1.4879-1.9762c-0.18599 0.12787-4.4871 3.3827-6.3005 6.6841-4.7777 8.6835-12.566 6.7422-21.494 3.5571-0.86022-0.31386-1.6972-1.3601-2.4179-3.0573-4.4057-10.264-3.2897-40.407 0.76722-49.532l-2.4877-1.8716c-4.3243 9.7065-6.3354 42.092-1.6507 53.031"/>
  <path d="m16.252 82.246c5.7077-13.763 16.716-32.049 36.699-40.419l0.54635-0.23249 0.25574-0.5231c4.15-8.637 16.832-16.205 32.979-20.703 0.40686-1.4647-1.0811-2.1854 0.24412-3.9407-17.704 4.9986-30.875 13.345-35.734 22.796-17.948 7.3235-31.421 22.993-39.489 43.267 1.4531-0.40686 2.9759-0.49986 4.4987-0.24412"/>
  <path d="m46.521 210.19c-13.461-11.845-30.166-32.13-33.316-61.447l-0.0465-0.33711-0.17437-0.29061c-4.7428-7.8814-6.1843-21.703-4.3476-36.699-1.2671-0.87184-2.4179-1.8832-3.3944-3.0224-2.0808 19.645 1.1276 35.025 5.4752 42.209 3.9291 42.476 34.42 68.399 58.216 78.756-0.15112-1.3136-0.20924-2.6271-0.23249-3.9407-6.7306-3.4292-14.461-8.4394-22.18-15.228"/>
  <path d="m172.9 232.86c-0.53473-1.3136-1.0462-2.662-1.6623-3.9988-13.833 6.3586-35.792 9.9739-61.192 6.9399-0.58122 1.0578-1.0578 2.1273-1.4879 3.1735 26.376 3.8942 48.916 1.2555 64.342-6.1145"/>
  <path d="m192.45 37.263c-10.915-15.53-33.793-23.028-56.123-25.086 1.1392 1.4182 2.197 2.8829 3.2316 4.3476 20.657 2.1157 41.116 8.823 50.706 22.97l0.36037 0.53473 0.63935 0.11625c7.9512 1.4996 21.064 12.706 31.072 29.503 0.46498-1.8367 0.86022-3.685 1.116-5.5333-10.218-14.717-23.191-25.016-31.003-26.853"/>
  <path d="m237.98 102.92c-0.83697 1.9064-1.7321 3.7896-2.7085 5.603 0.83697 10.636-0.52311 22.459-6.2075 34.42l-0.27899 0.59285 0.23249 0.62773c5.4635 14.24-2.383 41.314-18.739 57.635 0.46499 1.3601 0.95322 2.7318 1.4298 4.1267 16.763-14.589 26.283-45.626 20.401-62.261 4.6963-10.113 6.4981-20.11 6.4981-29.41 0-3.9756-0.2325-7.7536-0.62773-11.334"/>
  <path d="m207.18 203.54c2.7666-0.6626 2.8713 3.8012 2.8713 5.7425 0 4.1965-1.1857 8.4394-2.2784 12.334-0.86021 3.0921-1.6391 5.882-1.6391 8.1953 0 0.79046 0.90672 5.1962 0.90672 6.7074 0 2.3947 0.83696 4.7893-1.6042 5.789-3.6966 1.5228-15.914 1.023-20.982-2.5923l-2.5109-1.7786c-4.8358-3.3828-8.9974-6.3238-9.6135-9.2764 1.6739-5.4054 23.958-22.505 34.85-25.121m-37.361 24.784-0.0465 0.22087 0.0232 0.23249c0.59286 4.1035 13.217 12.95 13.217 12.95 5.9518 4.2546 20.622 5.6728 25.26 3.1968 3.2665-1.7437 2.1505-7.9396 0.87184-11.985-0.6161-1.9297 0.68585-7.3118 1.7321-11.101 1.6739-5.9866 3.0456-12.985 0.34873-19.913l-0.24411-0.63935-0.67423-0.12787c-13.147-1.9762-39.024 20.552-40.488 27.167"/>
  <path d="m171.28 192.19 1.5926 1.9064c8.6022-6.6841 23.947-32.921 25.702-37.024l-2.2784-0.98809c-1.7902 4.1848-18.332 30.538-25.016 36.106"/>
  <path d="m129.4 196.33 1.6158 1.8832c3.6152-3.0921 37.175-5.138 41.581-4.1267 2.2203 0.49986 8.7882 9.9506 11.718 19.901l2.5225-1.7321c-3.0108-10.218-10.137-19.622-13.752-20.61-8.3813-2.2668-38.965 0.63935-43.685 4.6847"/>
  <path d="m131.42 194.11c-2.1622-8.6603-21.703-28.527-27.26-30.991l-0.99971 2.2668c4.8242 2.1506 24.702 22.993 25.818 29.166 0.90672 4.9869-10.357 16.728-18.588 25.307l-1.8018 1.8948c0.5696 0.54636 0.6161 2.755 1.2322 3.3479 0 0 23.958-21.564 21.598-30.991"/>
  <path d="m51.893 41.547c18.088 7.2305 69.596 69.096 70.003 74.141-0.63935 5.51-7.3118 26.271-16.379 43.859-1.8367 3.5571-6.2424 6.0099-13.089 7.277-22.203 4.15-65.539-6.068-79.942-18.843l-1.6507 1.8599c15.135 13.415 53.461 24.505 82.046 19.425 7.649-1.3601 12.636-4.3127 14.833-8.5789 9.6251-18.646 15.17-33.165 16.646-44.766 0.77885-6.068-51.787-70.724-71.549-76.676z"/>
  <path d="m175.64 112.21 1.8832 4.9404c9.9506 26.364 15.856 42 21.378 41.302 16.902-2.1157 31.747-13.403 32.328-13.868l-1.5228-1.9529c-0.1395 0.11625-13.973 10.834-30.177 12.857-4.6614 0.58123-15.972-29.375-19.692-39.21l-1.8832-4.9637z"/>
  <path d="m189.97 37.355c2.3482 11.136-2.6504 63.586-13.415 72.7-2.8015 2.3714-42.581 6.2656-53.02 4.6149l0.22087 2.3947c16.774 2.4063 50.311-1.6623 54.403-5.1148 11.88-10.067 17.832-60.901 15.298-72.979z"/>
  <path d="m76.817 251.95c-4.4755-3.313-7.5443-16.03-7.2072-24.76 0.16274-4.0337 1.0346-6.9282 2.3365-7.742 12.264-7.649 24.202-5.2194 31.293-0.39524 4.5219 3.0805 7.3351 7.1956 7.3351 10.578 0 0.32549-0.0349 0.65098-0.093 0.96484-0.49986 1.395-5.3822 14.891-6.3935 22.993-0.0814 0.67423-0.6626 1.2438-1.7321 1.6972-5.7425 2.4644-20.994 0.0116-25.539-3.3362m-6.1726-34.618c-2.6504 1.6623-4.243 5.975-4.3825 9.5089-0.37199 9.5554 3.8361 23.737 9.1485 27.666 5.1613 3.8128 23.203 6.7655 29.84 3.9175 2.4063-1.0346 1.8251-3.2665 1.9529-6.7539 0.22086-5.882 5.603-20.215 5.6612-20.355l0.0349-0.10462 0.0233-0.10462c0.83696-4.5684-2.4063-10.102-8.2883-14.101-7.7303-5.2659-20.727-7.9512-33.99 0.32549"/>
  <path d="m209.45 117.32c6.44-8.9625 14.786-27.911 14.786-44.58 0-1.5461-0.1395-2.9991-0.34874-4.4057 5.9402 3.4292 12.694 7.5676 13.566 20.854 1.5228 23.319-20.913 34.42-26.295 35.211-2.1854 0.32549-7.6025 1.1276-1.7088-7.0794m11.625-50.671c3.8826 15.298-9.9041 44.185-13.624 49.195-3.0224 4.0918-4.8242 7.8698-3.5455 9.939 0.75559 1.209 3.9175 1.9646 10.241 0.65098 1.209-0.24412 25.574-8.3116 27.004-35.501 0.87184-16.553-10.892-25.039-18.518-27.225z"/>
  <path d="m119.34 4.272c34.699 9.567 39.5 62.435 37.908 73.049-0.89509 6.0331-2.848 8.4278-4.2546 8.6487-1.4182 0.23249-3.2316-1.5577-4.8358-4.7661-5.324-10.648-32.165-51.369-60.552-63.238 4.0221-7.0445 15.24-17.634 31.735-13.694m-35.246 13.775-0.91834 1.302 1.4996 0.5696c28.236 10.753 55.937 51.753 61.261 62.389 2.7899 5.5914 5.8006 7.8349 7.6606 7.5327 3.0573-0.48823 5.8006-6.0796 6.7539-12.415 1.6391-10.985-4.0686-67.109-40.512-76.443-17.867-4.5801-32.456 7.8349-35.745 17.065"/>
  <path d="m79.327 133.95c-5.3008-0.24412-47.789-8.3697-69.689-22.982-5.9053-3.9291-7.3816-12.88-3.7082-20.029 2.2319-4.3476 7.6722-9.2299 12.299-7.4862 12.136 4.5801 56.937 37.768 62.784 43.801 6.812 7.0212 0.62773 6.8004-1.6856 6.6957m-77.431-42.988c-4.2546 8.2767-0.95321 17.367 5.975 22.401 20.715 15.031 64.818 22.819 70.363 23.749 14.38 2.3947 7.6722-8.1837 4.6149-11.532-5.7542-6.3005-51.415-39.791-63.749-44.452-5.1381-1.9413-13.729 3.0805-17.204 9.8344"/>
  <path d="m39.253 221.18 1.4996-2.2668c-1.2555-2.5109-1.2438-8.4859 0.03487-12.287l-1.1741-0.39523c-1.3833 4.1383-1.7553 12.159-0.36036 14.949"/>
  <path d="m107.21 221.4c-0.0349-0.0116 0.44173 1.7553 0.43011 1.7321 0.30224 0.5231-0.90672 4.5684-1.5228 6.9747-1.3717 5.4287-3.6036 11.741-0.65097 17.425l1.1857-2.3365c-2.011-3.4525-0.19762-10.602 1.1276-15.821 1.0927-4.336 1.5461-6.2889 0.76722-7.091-0.16274-0.16275-1.3484-0.94159-1.3368-0.88347"/>
  <path d="m185.05 214.16c4.4987 8.3348 1.5577 21.866-2.9178 25.307l2.104 0.20924c4.8358-3.7199 6.6609-17.297 1.9064-26.109z"/>
  <path d="m114.81 141.91c2.4295 2.4295 17.669 12.194 24.458 14.845-1.302 3.9872-4.4638 11.357-10.822 14.542-3.9407 1.9646-11.055 1.5112-16.228-0.4301l1.6274 2.8015c5.8472 2.1854 11.125 2.1389 15.705-0.15112 7.8698-3.9407 10.764-12.671 12.066-15.716 1.7437 0.43011 6.9515 0.7556-0.44173-2.9991-7.3932-3.7547-23.144-13.194-25.26-15.298z"/>
  <path d="m172.5 155.6c-4.5801 4.1965-1.0462 3.2898 0.25574 2.4179 0.87184 2.3946 2.1505 11.346 8.8695 14.135 2.5458 1.0578 5.2659 0.68585 8.0791-1.0927l0.0465-2.5806c-2.1273 1.3368-5.3938 2.1273-7.1723 1.3833-4.7312-1.9646-7.277-10.369-7.928-12.834 4.9056-4.2546 12.857-16.332 13.205-16.867l-1.5926-3.0456c-0.093 0.12787-7.835 13.066-13.763 18.483"/>
  <path d="m122.63 153.26c0 6.2656-2.3365 11.334-5.2194 11.334-2.8713 0-5.2078-5.0683-5.2078-11.334 0-6.254 2.3365-11.334 5.2078-11.334 2.8829 0 5.2194 5.0799 5.2194 11.334"/>
  <path d="m186.94 153.13c0 5.3589-1.6158 9.7065-3.6036 9.7065-1.9994 0-3.6152-4.3476-3.6152-9.7065s1.6158-9.7065 3.6152-9.7065c1.9878 0 3.6036 4.3476 3.6036 9.7065"/>
 </g>
 <path d="m119.14 149.94c0 1.9878-0.90671 3.592-2.0227 3.592-1.1276 0-2.0227-1.6042-2.0227-3.592s0.89509-3.592 2.0227-3.592c1.116 0 2.0227 1.6042 2.0227 3.592" fill="#fff"/>
 <path d="m184.72 150.2c0 1.7669-0.62773 3.1851-1.395 3.1851s-1.3949-1.4182-1.3949-3.1851 0.62772-3.1851 1.3949-3.1851 1.395 1.4182 1.395 3.1851" fill="#fff"/>
</svg>
