<?xml version="1.0" encoding="UTF-8"?>
<!-- Created with Inkscape (http://www.inkscape.org/) -->
<svg version="1.1" viewBox="0 0 446.89 398.96" xmlns="http://www.w3.org/2000/svg">
 <g transform="translate(89.326 66.63)">
  <path d="m169.08 268.67c1.3319 9.9463 11.417 20.809 6.037 22.833-5.3624 2.0066-55.717 16.779-59.073-1.3492z" fill="#00a8b8"/>
  <path d="m162.09 276.79-46.047 13.354c3.3558 18.128 53.71 3.3558 59.073 1.3492 2.0239-0.76111 1.8682-2.7504 0.81301-5.4662-8.0436-2.2833-11.278-4.1342-13.838-9.2371" fill="#008d9a"/>
  <path d="m166.83 291.87c0.53624-3.0444 4.3072-10.742 7.3343-8.4241 3.0444 2.3352 7.3516 7.7149 7.3516 9.8598-1.972 1.2454-9.3063 0.70922-12.714 0.36326z" fill="#d6e7f0"/>
  <path d="m170.3 284.7c-1.7298 2.0239-3.1482 5.397-3.4596 7.1786l1.972 1.7817c2.8542 0.29407 8.5106 0.72652 11.399 0.10379-4.0823-2.0758-7.9744-5.0164-9.9117-9.0641" fill="#b0bfc8"/>
  <path d="m153.04 295.45c0-2.5082 5.0164-8.2338 6.0889-8.0608s12.178 7.3516 11.642 9.3063c-2.8715 0.8995-13.614 1.0898-16.658 0.53624z" fill="#b0bfc8"/>
  <path d="m211.24 194.63c17.419 4.5667 55.907 14.115 86.075 14.945 21.519 0.58813 45.667-5.3624 38.28 1.3492-7.3862 6.7116-47.829 29.839-89.084 28.213z" fill="#00a8b8"/>
  <path d="m247.65 239.81c-3.6845-5.7083-8.1992-13.164-8.1992-13.164 19.149 2.785 53.831 2.4044 79.346-4.9818 0 0-34.942 20.1-71.146 18.146" fill="#900041"/>
  <path d="m40.911 167.28-2.5082-3.9612c-34.458-3.4077-106.3 5.8813-114.89 50.631-7.2478 37.761 22.66 54.713 22.66 54.713z" fill="#00a8b8"/>
  <path d="m-37.573 173.78c-19.426 7.9225-35.167 20.671-38.92 40.166-7.2478 37.761 22.66 54.713 22.66 54.713l73.655-78.827c-51.911 24.477-99.982 7.5938-57.395-16.053" fill="#008d9a"/>
  <path d="m40.911 167.28-2.5082-3.9612c-9.5312-0.95139-21.934-0.91679-35.063 0.57083 10.258 2.6985 27.573 3.0098 28.023 13.613z" fill="#008d9a"/>
  <path d="m-55.011 268.04c-13.146-8.3895-22.868-24.719-23.214-38.73-0.34596-14.029 5.5872-27.781 5.5872-27.781-2.6812 11.417-1.3319 36.931 21.501 51.029 0 0-1.0725 6.3656-3.8747 15.482" fill="#900041"/>
  <path d="m80.157 154.31c-10.085-27.14-18.336-158.74 112.09-206.66-30.168-23.058-154.76-16.416-219.53 59.003-55.821 64.988-67.445 133.09-55.907 201.42 16.52-51.392 91.921-88.462 122.3-42.121 0 0 12.316-5.691 41.048-11.642" fill="#b30e53"/>
  <path d="m81.759 39.481c30.41-71.077 89.759-91.212 96.35-92.682s-20.342-8.2338-27.504-10.534c-51.029-3.1655-130.48 15.188-177.89 70.385-55.803 64.988-67.427 133.11-55.89 201.42 15.949-49.645 90.088-91.195 122.5-41.705 0 0 7.5419-2.906 17.523-6.1754 5.6045-1.8336 12.005-2.6985 19.408-4.584-12.091-43.954-6.037-89.136 5.5008-116.12" fill="#900041"/>
  <path d="m137.5 298.98c-2.9061-1.1071 5.397-10.275 9.4447-7.6457 5.4488 3.5461 7.2132 6.1235 8.9603 8.4241 1.7471 2.3006-12.316 1.5568-18.405-0.77841" fill="#b0bfc8"/>
  <path d="m183.56 162.07c1.626 8.1473 29.303 34.198 40.702 46.134 11.399 11.936 21.173 26.051 25.514 39.076 4.3418 13.025 9.756 24.961 11.936 29.303 2.1622 4.3418 7.0576 9.2198 3.8056 13.025-3.2693 3.8056-13.025 15.741-36.378 13.025-23.335-2.7158-18.993-8.1473-24.407-22.245-5.4316-14.115-7.4727-13.077-24.425-29.856-16.969-16.779 3.252-88.462 3.252-88.462" fill="#00a8b8"/>
  <path d="m216.66 248.69c-7.2651-11.797-20.1-27.815-25.445-28.732-3.252 8.3549-17.557 23.992-10.915 30.565 16.969 16.779 18.993 15.741 24.425 29.856s1.0898 19.547 24.425 22.245c9.3063 1.0898 16.45-0.15568 21.882-2.3006-19.512-11.469-20.36-29.061-34.371-51.634" fill="#008d9a"/>
  <path d="m179.78 249.35s5.1375-7.4381 6.1581-18.267c1.8509-2.8196 3.3212-5.2586 3.3212-5.2586s13.285 13.302 17.09 28.507c3.8056 15.188 1.0898 15.188-8.1473 15.188z" fill="#900041"/>
  <path d="m183.18 234.56c17.869-14.357 6.6597-64.124 0-72.184 11.918-20.325 23.473-69.728 23.473-69.728l-15.724-4.9472c-11.936 3.252-51.877 27.694-68.154 39.647-16.277 11.936-26.587 24.961-55.353 30.393-28.767 5.4143-52.638 21.709-65.127 32.019-12.489 10.31-42.328 46.134-47.76 54.817-5.4316 8.6836-8.1473 15.188-10.31 30.929-2.1795 15.741-2.1795 30.393-2.1795 30.393l26.051 4.3418s-6.504 9.2198 1.0898 13.025c7.5938 3.8056 34.734 11.399 58.623-4.878 2.7158-9.2371 11.382-42.345 23.335-58.069 8.943-11.815 16.07-20.567 19.529-33.818 1.159-4.411 20.636 11.849 43.47 13.665 22.851 1.8163 51.167 8.7701 69.036-5.6045" fill="#00a8b8"/>
  <path d="m183.69 150.69c8.943-22.989 22.972-58.052 22.972-58.052l-15.724-4.9472c-7.196 1.9547-24.58 11.624-40.806 21.605 9.4101-1.799 25.203 11.676 33.558 41.394" fill="#008d9a"/>
  <path d="m3.482 204.34c-2.8369-11.347 5.051-15.914 12.628-24.805-5.4835 3.6326-10.154 7.1786-13.821 10.223-12.472 10.31-42.328 46.134-47.76 54.817-5.4316 8.6663-8.13 15.188-10.31 30.929-2.1622 15.741-2.1622 30.393-2.1622 30.393l26.051 4.3418s-6.5213 9.2198 1.0725 13.025c3.0271 1.5049 3.9958 1.5568 11.78 2.5255 3.0098-0.93409 0.20758-4.0131 1.159-10.223 4.1861-27.4 6.9192-48.901 14.167-64.089 9.5139-19.962 32.278-54.575 24.84-48.538-8.5798 3.0271-16.71 5.1202-17.644 1.4011" fill="#008d9a"/>
  <path d="m261.11 287.67c0.53624-3.0444 1.6606-8.8738 3.8747-7.49 3.252 2.0239 11.105 7.2824 11.105 9.4274-1.972 1.2628-6.037 1.4703-9.4274 1.1071z" fill="#d6e7f0"/>
  <g fill="#b0bfc8">
   <path d="m-53.729 305.61c-0.39785-3.0098-3.8401-6.2965-5.2413-6.2965-2.2487 2.3006-8.0436 5.3624-8.0436 7.49 1.453 1.2454 9.3236 0.93409 11.832 0.57083z"/>
   <path d="m-45.938 307.92c0-2.4736-4.2034-5.7256-4.9991-5.5526-0.79571 0.19027-11.209 7.49-10.811 9.4447 2.1104 0.8822 10.24 0.24217 12.489-0.27677z"/>
   <path d="m-34.013 310.42c1.8509-0.813-5.1721-9.5831-7.8187-7.2824-4.0131 3.5115-8.9949 8.7355-8.5625 9.9982 0.44975 1.28 8.8912 0.60543 16.381-2.7158"/>
  </g>
  <path d="m-28.187 323.45c-0.53624-3.2693-2.4909-12.212-5.5526-9.7042-3.0444 2.5082-9.1506 9.0641-9.1506 11.365 1.972 1.3492 9.9117-0.72651 13.319-1.1071z" fill="#d6e7f0"/>
  <path d="m-12.655 325.39c0-2.6985-4.7396-9.6177-5.8294-9.4274-1.0725 0.19028-13.285 9.808-12.749 11.918 2.8715 0.96868 14.686 0.0346 17.748-0.55354z" fill="#d6e7f0"/>
  <path d="m-16.995 317.12c-0.64002-0.74381-1.1936-1.2109-1.4876-1.159-1.0725 0.19027-13.302 9.8079-12.749 11.936 0.67462 0.22487 1.8509 0.34596 3.3039 0.38055 2.5428-4.7223 6.9192-8.009 10.932-11.157" fill="#b0bfc8"/>
  <g fill="#d6e7f0">
   <path d="m2.7036 329.2c2.439-1.0033-4.2726-12.42-7.8706-9.9117-5.4662 3.8228-11.832 9.9636-11.226 11.365 0.62273 1.4184 12.991 1.0552 19.097-1.453"/>
   <path d="m253.12 296.11c0-2.5082 6.3484-8.6144 7.4208-8.4414 1.0898 0.19027 12.749 7.1786 12.212 9.1506-2.8715 0.89949-15.516 1.626-18.561 1.0898z"/>
   <path d="m240.12 302.92c-2.439-0.93409 3.5115-10.811 7.9398-9.4274 6.21 1.9374 11.019 7.8533 11.105 9.1506 0.0865 1.2974-12.956 2.612-19.045 0.27677"/>
  </g>
  <g fill="#b0bfc8">
   <path d="m270.81 290.85c-3.5807-1.8336-6.5905-4.2553-8.7355-7.5419-0.43245 1.4876-0.74381 3.1482-0.96868 4.3591l5.5526 3.0617c1.3319 0.13839 2.7677 0.19028 4.1515 0.12109"/>
   <path d="m267.39 297.62c-4.0131-1.6779-7.7668-3.7364-9.4793-8.1819-2.1622 1.9547-4.7915 5.0683-4.7915 6.677l1.0725 1.799c2.0412 0.34595 8.3722 0.13838 13.198-0.29407"/>
   <path d="m244.25 294.51c-3.2693 2.3871-5.8813 7.7322-4.1342 8.4068 4.9126 1.8855 14.34 1.4011 17.765 0.46704-4.9818-2.1104-9.5139-5.0683-13.631-8.8738"/>
  </g>
  <path d="m212.61 119.27 12.195 15.672c-14.651 4.3418-36.36 15.724-45.58 34.181-9.2371 18.457-13.423 33.316-25.376 33.852-11.936 0.55353-16.433-2.4217-20.239-13.285-3.7883-10.846 23.352-57.464 59.176-75.384z" fill="#b30e53"/>
  <path d="m224.81 134.93-12.195-15.672-19.823-4.9472c-7.1614 3.5807-13.492 7.3343-19.789 12.697 3.9439 6.9711-3.7191 26.933 11.659 33.645 10.69-13.51 27.884-22.089 40.149-25.722" fill="#900041"/>
  <path d="m285.5 126.63 4.878 0.69192c1.7817 4.4456 17.955 46.445 18.197 54.575-10.846-7.8879-29.147-33.074-29.147-33.074z" fill="#00a8b8"/>
  <path d="m299.83 173.81c-7.196-9.8598-14.392-19.875-18.664-31.361l-1.7471 6.3656s10.569 14.548 20.412 24.996" fill="#008d9a"/>
  <path d="m88.043 42.129c-13.146 42.103-12.091 56.461-13.146 61.719-1.0552 5.2586-0.41515 18.059-0.41515 18.059 11.936-6.504 21.571 4.5321 18.024 27.608l53.537-37.952-0.24218-0.29406c68.621-88.825 141.03-68.24 169.42-62.03-88.064-77.789-186.7-46.064-227.17-7.1095" fill="#b30e53"/>
  <path d="m307.18 42.468c-55.077-17.281-135.3-2.612-176.89 80.245l15.741-11.157-0.22487-0.27677c68.621-88.842 141.03-68.24 169.42-62.03-2.6639-2.3698-5.3451-4.6186-8.0436-6.7808" fill="#900041"/>
  <path d="m312.69 72.684c18.457-11.365 37.779-22.141 40.685-21.674 0.46704 1.972-16.848 20.412-33.714 39.059z" fill="#00a8b8"/>
  <path d="m312.69 72.684c18.457-11.365 37.779-22.141 40.685-21.674 0.46704 1.972-17.471 15.24-34.319 33.887z" fill="#008d9a"/>
  <path d="m285.94 126.44c10.656 2.6639 49.662 11.78 70.991 13.302-2.6639-3.5461-33.056-22.851-41.048-26.397z" fill="#00a8b8"/>
  <path d="m356.17 138.96c-21.968-3.2174-42.795-8.4587-64.21-15.153l-6.0197 2.6293c10.638 2.6639 49.662 11.78 70.991 13.302-0.15568-0.20758-0.41515-0.46705-0.76111-0.77841" fill="#008d9a"/>
  <path d="m282.69 64.958-6.8673-7.0922c11.936-1.626 43.418 9.2371 45.044 33.108z" fill="#b30e53"/>
  <path d="m282.18 64.115c11.642 1.3838 36.516 18.18 39.768 30.652 3.252 12.489 1.626 13.579-1.626 16.295-3.252 2.6985-28.23 11.382-32.019 13.562-3.8056 2.1622-5.4316 15.205-7.0576 21.173-1.626 5.9678-6.504 11.382-16.831 11.936-10.31 0.53624-26.206-5.864-32.71-14.011-6.5213-8.1473-18.18-22.643-18.18-22.643l-42.294 35.132s10.258-27.469 34.042-63.605c-67.877-24.044-87.926-34.734-87.926-34.734s54.817 5.4316 93.34 12.472c-4.3418-5.9678-36.43-65.871-35.893-75.09 8.6836 3.7883 67.376 65.871 74.969 73.464z" fill="#00a8b8"/>
  <path d="m286.81 80.143c-21.519-9.6004-37.035-11.417-37.035-11.417-0.25947-0.25947-12.316-12.437-12.679-12.818 2.4909 7.49-1.6433 7.3689-4.0131 4.9991-21.432-21.449-53.97-59.972-56.806-59.263 9.5831 26.518 35.322 69.503 35.322 69.503s18.215 3.5288 22.989 4.7396c4.7742 1.2109-2.1104 5.5526-5.2413 4.4975-37.087-6.0024-105.45-19.979-110.27-21.657 6.0889 2.9752 29.389 13.752 86.196 33.869-5.5354 8.4068-10.327 16.347-14.426 23.577 1.5395 1.0033 13.51 7.9398 15.257 6.1927 1.7471-1.7471 11.97-13.544 23.491-17.73 18.855-6.2965 46.722-13.008 53.226-12.005 6.4867 1.0033 8.9949-9.4966 3.9958-12.489" fill="#008d9a"/>
  <path d="m282.18 64.115-0.27677 0.0346c4.1515 3.252 7.9917 8.0954 7.9917 8.0954s13.164 3.6499 26.518 13.146c-8.822-10.223-25.359-20.221-34.233-21.276" fill="#008d9a"/>
  <path d="m233.03 104.65c-2.5947 1.4357-13.786 10.379-19.806 16.07 2.0412 2.5428 12.61 15.672 18.474 23.006 6.5213 8.13 22.418 14.548 32.728 14.011 10.31-0.55353 15.205-5.9851 16.831-11.953 0.43245-1.5914-36.153-23.024-48.227-41.135" fill="#d6e7f0"/>
  <path d="m260.63 70.894c0.72651 4.1342 4.3418 9.2198 4.3418 9.2198s15.741 3.2693 26.051 2.7158c0 0-14.478-9.9463-30.393-11.936" fill="#fff"/>
  <path d="m232.95 50.813c4.3072-2.785 25.653-3.0617 39.076 4.3418 12.506 6.9019 19.581 20.048 21.709 28.23-14.115-6.5213-37.45-15.741-42.328-14.115z" fill="#b30e53"/>
  <path d="m289.41 78.661c-16.191-17.938-41.411-25.134-45.58-26.31-4.1688-1.159-2.3871-1.8855-3.1828-3.2174-3.6326 0.24217-6.4176 0.8476-7.6976 1.6779l18.457 18.457c4.878-1.626 28.213 7.5938 42.328 14.115-0.19028-0.74381-0.43245-1.5222-0.70922-2.3179-0.89949 0.05189-0.7957 0.70922-3.6153-2.4044" fill="#900041"/>
  <path d="m284.8 130.48 3.5115-5.6045 32.71-14.444c0.83031-2.4909 1.6606-3.3212-3.3385-5.8294-4.9818-2.4909-17.73-11.33-34.665-11.088-19.962 0.27677-49.092 9.4274-50.475 11.365-1.3838 1.9547 8.5971 33.022 16.641 40.771 8.0436 7.7668 25.791 10.275 31.067 1.9547z" fill="#883614"/>
  <path d="m247.27 143.5c-5.1894-6.383-16.571-36.741-14.686-38.955 1.8855-2.1968 15.205-4.9299 15.205-4.9299 17.194 4.7223 42.588 31.638 16.641 52.43-7.2305-0.7957-11.97-2.1622-17.16-8.5452" fill="#e08b9b"/>
  <path d="m247.79 99.617s-13.319 2.7331-15.205 4.9299c-0.8476 0.98598 0.8822 7.7322 3.5115 15.464 6.7462-5.1375 25.22-6.8846 39.197 8.6836-2.0239-13.856-16.45-26.051-27.504-29.078" fill="#c37987"/>
  <g fill="#fff">
   <path d="m251.12 146.77s6.6597-4.4456 7.7668-6.9365c0.55354 3.0617-0.89949 9.1679-1.1071 10.534-0.20757 1.3838-6.6597-3.598-6.6597-3.598"/>
   <path d="m273.03 151.49s-1.1071-1.9374 0.27677-3.3212c1.3838-1.4011 4.7223-7.49 4.7223-7.49s1.1763 5.2759 1.1071 7.7668c-0.0692 2.4736-6.1062 3.0444-6.1062 3.0444"/>
   <path d="m290.15 93.454c-0.27677 2.0412 0.36326 10.258 0.98598 11.936 0.64003 1.6952 6.504-9.9982 6.504-9.9982s-7.2132-3.9785-7.49-1.9374"/>
   <path d="m315.75 104.06c0 1.9547-0.24217 9.0641 0.74381 11.019 1.0898 0.8303 4.8088-5.1894 4.5321-7.6976 0 0-5.2759-5.2759-5.2759-3.3212"/>
  </g>
  <g fill="#dcdddd">
   <path d="m256.58 142.36c-2.0412 1.6779-5.4662 4.411-5.4662 4.411s2.266 1.7471 4.1515 2.8888c-0.17298-2.8715 0.89949-4.8088 1.3146-7.2997"/>
   <path d="m275.9 144.38c-0.93409 1.5568-1.9547 3.1482-2.5947 3.7882-1.3838 1.3838-0.27677 3.3212-0.27677 3.3212s1.1417-0.10379 2.4217-0.43245c-0.25947-2.145 0.0346-4.3937 0.44975-6.677"/>
   <path d="m295.95 95.383c-2.0758-1.0379-6.0716-2.8196-6.2792-1.3146-0.17298 1.3665 0.0519 5.518 0.39785 8.5971 0.98599-3.1482 2.2487-7.5246 5.8813-7.2824"/>
   <path d="m319.74 106.17c-1.5568-1.4357-3.9958-3.4423-3.9958-2.1104 0 1.0898 0.0865 3.7537 0.12109 6.3656 1.0033-1.5222 1.4357-4.0477 3.8747-4.2553"/>
  </g>
  <path d="m161.31 229.91c8.6836-1.626 22.245-3.8056 23.871-1.626 1.6433 2.1622 0.0173 8.6836-1.626 13.562-1.626 4.8953-15.188 29.32-20.619 34.198-5.4316 4.878-24.425 11.399-41.238 11.936z" fill="#d6e7f0"/>
  <path d="m130.87 274.53-9.1852 13.458c16.831-0.55353 35.824-7.0576 41.256-11.953 2.2314-1.9893 5.8121-7.2824 9.3928-13.146-5.5872 6.6597-26.916 13.025-41.463 11.642" fill="#b0bfc8"/>
  <path d="m113.52 234.84c2.7158-3.252 6.2446-10.119 13.285-10.673 7.0576-0.53624 36.758-1.972 36.758 1.28 0 3.252-3.252 14.651-6.504 21.709-3.252 7.0576-9.2198 19.547-14.651 23.888-5.4316 4.3418-17.921 17.903-29.303 21.155-11.399 3.252-45.027 7.0576-52.638 5.4316-7.5938-1.626-9.2544-4.5494-9.2544-4.5494z" fill="#d6e7f0"/>
  <path d="m72.615 273.42-21.398 19.668s1.6606 2.9061 9.2544 4.5321c7.5938 1.626 41.221-2.1622 52.62-5.4143 7.5592-2.1622 16.744-10.534 22.885-16.07-10.984 2.1968-59.349 5.864-63.362-2.7158" fill="#b0bfc8"/>
  <path d="m44.066 272.05c5.2413-9.4101 15.603-22.107 20.533-29.58 4.9472-7.4554 6.8327-17.8 6.8327-17.8 4.0477-4.8607 31.551 1.5222 39.941 6.3311 3.8056 2.1622 1.7471 5.4316-3.6845 11.399s-17.471 20.066-28.334 28.213c-10.846 8.1473-27.677 22.245-31.465 22.799-3.8056 0.53623-11.399-1.0898-11.399-1.0898s2.3352-10.863 7.5765-20.273" fill="#d6e7f0"/>
  <path d="m44.066 272.05c-5.2413 9.4101-7.5765 20.273-7.5765 20.273s7.5938 1.626 11.399 1.0898c2.9061-0.41515 13.492-8.822 23.162-16.381-8.8393-1.8336-17.436-4.2034-24.027-9.8425-1.0898 1.6779-2.0931 3.3212-2.958 4.8607" fill="#b0bfc8"/>
  <path d="m277.22 77.341c0 2.958 0.74381 4.7742 1.7644 4.7742s1.7817-2.2833 1.7817-3.9266c0-1.0033-0.69192-1.8336-1.7817-1.8336-1.4703 0-1.7644 0.34596-1.7644 0.98598" fill="#0f141b"/>
  <path d="m278.47 78.964c0-0.65732 0.25947-0.79571 0.51894-0.79571 0.27677 0 0.41515 0.25947 0.41515 0.91679 0 0.67462-0.24217 1.2109-0.41515 1.2109-0.25947 0-0.51894-0.67462-0.51894-1.3319" fill="#fff"/>
  <g fill="#0f141b">
   <path d="m175.31 281.53c-1.8682-3.8056-5.2413-10.5-5.7948-14.634l-1.2108 1.8682c0.58813 4.3937 2.7677 8.8392 4.6877 12.749 0.25947 0.53624 0.50164 1.0379 0.76111 1.5568 1.5741 0.64002 2.5601 1.3146 3.598 2.266-0.58813-1.0725-1.2974-2.3006-2.0412-3.8056"/>
   <path d="m137.84 298.44c-5.8467 0.19028-11.14-0.43245-14.755-2.4909-2.439-1.3665-4.4629-3.2347-4.9126-5.7256l-2.7677 0.8822c0.55353 2.9234 2.145 4.3418 4.9299 6.0024 5.0164 2.9925 12.126 3.7018 19.581 3.2347-0.76111-0.50165-1.453-1.1417-2.0758-1.9028"/>
   <path d="m171.92 282.44c-2.9926 1.159-5.4662 7.0403-5.864 9.289l1.5568 0.27677c0.39785-2.2833 2.7331-7.2651 4.878-8.0954 0.44975-0.19028 0.8303-0.13839 1.2109 0.15568 2.8542 2.1968 7.4208 8.1646 6.9365 8.7528-0.50164 0.60543-7.0922 0.55354-12.506 0.0519l1.1417 1.5222c6.3138 0.8476 12.956 0.50164 13.406-0.20758 1.0206-1.6087-4.0996-9.0295-8.0262-11.365-0.8822-0.51894-1.7644-0.76112-2.7331-0.38056"/>
   <path d="m151.98 295.05 1.4357 1.6433c0-2.0066 3.8402-8.7009 5.6564-8.4933 1.8336 0.22487 11.382 7.2997 10.69 7.9398-0.70922 0.65732-13.095 1.159-15.914 0.65732 0 0 1.0552 1.3838 1.6087 1.453 2.7158 0.34596 6.7462 0.53624 12.8-0.20757 4.4456-0.55354 5.3451-1.1417 1.4184-4.6878-4.0477-3.6499-9.6177-6.85-10.69-6.85-2.3698 0-7.0057 6.6078-7.0057 8.5452"/>
   <path d="m289.6 127.64c2.0758 5.1894 19.132 51.79 17.886 52.326-1.2282 0.55354-27.21-31.396-26.846-30.842l-1.3146 1.5914c0.22488 0.24217 13.959 20.066 28.248 32.451 3.9093 3.3731 3.4423 0.51893 2.6639-2.5255-5.7083-22.141-18.907-53.174-19.08-53.624z"/>
   <path d="m339.88 207.6c-0.8476-1.9374-6.4002-1.1417-16.917-0.22487-7.0922 0.62272-19.287 0.89949-27.625 0.67462-21.449-0.60543-50.147-5.7256-86.455-15.188l2.4044 3.0098c36.43 9.4793 64.452 13.908 86.005 14.496 8.4241 0.24217 17.281-0.53623 24.407-1.159 6.4175-0.55353 13.7-1.1763 14.461-0.22487-0.0173 0.0692-0.0865 0.44974-1.0898 1.3665-8.649 7.836-18.63 12.143-34.596 14.634-21.467 3.3385-45.494 3.2866-60.923 1.0552l-0.17298 1.2455c19.166 2.7677 48.728 2.612 72.859-3.5807-17.004 7.836-41.083 15.62-65.68 14.651l0.69191 1.972c41.948 1.6606 82.373-21.795 89.517-28.282 0.88219-0.79571 3.6153-3.2866 3.1136-4.4456"/>
   <path d="m-70.282 202.41c3.3558-9.0814 11.901-17.506 26.293-24.615 26.327-12.991 62.307-15.412 82.286-13.441l-3.1828-2.5947c-32.641-3.2347-105.21 6.21-114.08 52.43-7.317 38.056 24.321 55.215 24.615 55.388l0.46704-2.3006c-0.29406-0.15568-28.594-16.571-21.571-53.122 0.34596-1.8509 0.8303-3.6326 1.3838-5.3624-0.48434 14.098 5.224 34.163 23.387 45.407l0.34596-1.7125c-17.436-10.777-25.393-35.322-19.945-50.078"/>
   <path d="m202.63 57.019c-4.7915 2.6466-9.635 5.7256-14.513 9.2371 1.5914 0.27677 3.1828 0.72651 4.7569 1.0898 3.9093-2.6293 7.8533-5.0337 11.866-7.2305-0.70922-1.0206-1.4703-1.9201-2.1104-3.0963"/>
   <path d="m141.37 114.46 5.2067-2.4736c8.8912-11.52 18.197-21.605 27.85-30.237-1.0552-0.48434-2.1276-1.0725-3.2001-1.5222-9.8598 9.2371-19.841 20.498-29.856 34.233"/>
   <path d="m91.371 37.625-2.5947 5.2413c17.004-16.987 49.316-33.696 87.96-38.125-0.29407-1.0725-0.60543-2.1968-0.98599-3.3212-36.689 4.6704-68.016 19.841-84.379 36.205"/>
   <path d="m314.89 46.689c-40.495-38.92-89.067-49.714-131.55-46.082 0.98598 1.159 2.0758 2.2141 3.1309 3.2866 38.367-2.2314 81.975 7.9917 122.64 41.584 2.3871 1.9028 2.4736 2.2141-0.19028 1.3492-16.641-5.3451-49.818-9.5658-80.695-0.55354 0.79571 0.93409 1.5741 1.972 2.2487 2.9925 3.8574-1.1763 7.7495-2.1622 11.693-2.9407 29.199-5.864 63.311 1.7125 69.244 3.1482 5.9332 1.4184 8.3376 1.8855 3.4769-2.785"/>
   <path d="m73.975 120.99 1.0033 1.8336c4.1169-2.2314 7.8879-2.3006 10.932-0.17298 5.4662 3.8402 6.3484 14.876 4.3764 27.763l3.252-0.74382c2.1104-13.683 1.2973-24.926-4.8261-29.234-3.6845-2.5947-9.9463-2.0585-14.738 0.55353"/>
   <path d="m187.91-58.147c-24.58-10.188-58.692-10.88-95.883-3.7883-29.476 5.6218-83.982 22.972-122.64 67.981-50.026 58.242-66.787 117.04-55.198 195.85 1.3319 9.0641 2.8715 9.8079 7.3862 0.31136 13.492-28.386 38.817-50.856 67.722-54.765 14.184-1.9201 35.115-2.093 49.507 19.858l2.2314-0.60543c-14.98-22.868-35.755-25.29-50.545-23.283-29.407 3.9785-59.764 28.68-72.115 57.689-0.55353 1.3492-0.8822 1.799-1.1071 1.7817-1.1417-0.10379-3.4077-23.871-3.4077-40.944 0-57.17 19.702-108.09 59.661-154.59 38.228-44.525 92.925-60.526 122.14-66.095 37.969-7.2478 68.638-4.0131 92.302 4.9472 2.1276 0.79571 2.145 1.1763-0.0173 2.0066-47.535 18.163-83.653 51.825-102.09 96.125-17.125 41.135-14.167 93.063-6.2273 110.15l1.9028-0.88219c-6.0024-12.991-12.351-60.197 7.9052-108.84 16.554-39.785 57.55-78.688 98.685-93.478 10.102-3.6153 10.016-5.1894-0.20758-9.4274"/>
   <path d="m311.43 71.556 1.6952 1.8336c20.792-12.783 38.696-22.781 38.938-21.328 0.24217 1.453-32.295 36.17-32.295 36.17l0.95138 3.3385s29.095-31.257 32.901-36.741c3.8056-5.4835 3.1828-7.4035-3.9612-4.4975-16.018 6.5213-32.105 17.454-38.228 21.225"/>
   <path d="m354.26 136.46c-8.7528-7.0057-27.608-18.976-35.651-23.075-0.50164 0.50164-1.2282 0.8476-1.7817 1.332 9.2198 4.6012 38.384 22.712 37.744 23.975-0.67462 1.3492-54.402-9.9982-66.718-13.077l-2.1104 1.6433c12.455 3.1136 31.707 8.2165 66.459 13.527 6.4867 1.0033 6.9884-0.89949 2.0585-4.3245"/>
   <path d="m137.54 299.95m0.60543-1.453c-3.0271-1.1417 5.9332-7.8706 8.3722-6.504 4.1169 2.3179 8.9949 6.8327 8.1992 7.5246-0.7957 0.67462-11.901 0.74381-16.571-1.0206m3.9266-7.5246c-6.1754 3.7191-6.5732 8.1992-4.5321 8.9776 4.6532 1.7817 10.898 2.0412 14.911 2.1104 4.7742 0.0865 6.4175-1.2974 2.6812-5.3624-3.9266-4.238-6.2446-5.9505-7.663-6.4175-1.5741-0.50164-3.425-0.50164-5.397 0.69192"/>
   <path d="m264.97 280.17c-3.9093-6.85-9.5485-19.633-13.838-32.468-4.1169-12.385-9.3409-23.888-25.497-39.837l-9.2371-9.2198c-11.953-12.039-30.998-31.569-32.088-36.983l-1.6433 1.28c1.2108 6.037 18.128 23.041 31.707 36.689l9.1333 9.289c12.264 12.852 21.242 26.587 25.272 38.678 4.3245 12.939 9.7388 24.926 12.005 29.458l1.8163 3.079c0.55353-0.41515 2.3698 0.0346 2.3698 0.0346"/>
   <path d="m229.27 301.6c-17.834-2.0758-18.786-5.518-21.104-13.838-0.62273-2.2487-1.3319-4.8088-2.4563-7.7495-4.7223-12.247-17.869-24.701-20.031-26.656-2.1796-1.9547-5.1029-4.4629-5.1029-4.4629l-0.98599 2.4044s1.7298 1.5049 3.8056 3.4596c2.0584 1.9547 15.828 14.236 20.36 25.999 1.0898 2.8542 1.7644 7.6803 2.3698 9.8771 2.5947 9.3409 4.411 10.898 22.902 13.043 4.1169 0.48435 7.8014 0.50165 11.14 0.20758-0.43245-0.62273-0.69191-1.2974-0.96868-2.0066-2.9926 0.20757-6.2792 0.15568-9.929-0.27677"/>
   <path d="m189.48 221.52c-1.1936 3.252-3.7018 7.7149-3.7018 7.7149s-0.74382 5.1029 0.65732 3.252c1.4184-1.8509 2.1968-4.2034 2.958-5.397 2.7331 2.9234 12.991 14.582 16.208 27.435 1.9893 7.9398 1.972 11.313 0.86489 12.731-1.159 1.4876-3.9785 1.4876-8.2511 1.4876l0.50164 1.1071c4.9472 0.41516 7.6457 0.48435 9.2717-1.5914 1.626-2.0758 1.4357-6.037-0.62273-14.219-3.8056-15.24-16.295-28.715-16.848-29.268 0 0 1.1244-3.0098 0.91679-5.4316-0.20758-2.4044-0.76111-1.0725-1.9547 2.1795"/>
   <path d="m131.68 189.32c2.2487 11.815 12.195 17.644 23.075 14.842 13.077-3.3731 18.336-18.405 21.242-24.944 9.3236-21.052 19.01-29.804 49.386-43.228l-1.1936-1.9893c-21.795 8.3722-38.419 20.204-45.667 34.769-8.5798 17.211-12.558 30.652-24.304 32.676-11.244 1.9374-17.8-2.6466-19.305-13.043-1.5222-10.465 21.467-54.264 57.377-73.015l0.13839-2.5774c-36.43 18.388-63.535 61.892-60.75 76.509"/>
   <path d="m162.43 228.58-0.96869 2.093c20.481-3.8401 22.833-2.266 23.093-1.9201 1.1071 1.4703 0.44975 6.2619-1.7471 12.852-1.4876 4.4975-14.997 28.991-20.394 33.852-5.5526 4.9991-24.563 11.209-40.754 11.745l0.0519 1.5568c16.502-0.51894 36.118-6.037 41.878-11.226 5.7083-5.1375 19.65-30.86 21.207-35.547 1.7125-5.1548 3.4077-12.057 1.5568-14.53-1.972-2.6293-8.822-1.7125-23.923 1.1244"/>
   <path d="m125.6 223.59c-6.9884 1.2974-9.1333 6.6424-12.662 10.707-3.5115 4.065-1.9893 4.4629 1.2109 1.0033s6.4521-8.4587 11.399-9.4793c4.9472-1.0379 34.492-2.1276 36.585-0.69192 1.1071 0.76111-3.252 14.409-6.4176 21.276-2.4217 5.224-8.822 19.114-14.444 23.594 0 0-20.412 18.561-29.026 21.034-11.624 3.3212-44.49 6.4175-51.721 4.8607-7.1614-1.5222-9.3582-3.7364-9.3755-3.771l-1.6779 0.65732c0.08649 0.10379 0.93409 3.8747 8.6836 5.5354 8.13 1.7471 44.387-1.6433 55.509-4.8088 8.9603-2.5774 30.237-23.093 30.237-23.093 9.5658-7.663 23.197-43.798 19.945-46.289-4.5667-3.4769-31.257-1.8336-38.246-0.53624"/>
   <path d="m70.868 222.69-0.22487 2.1968c5.1548-2.5774 25.947 1.0552 39.872 6.6251 2.1622 0.8649 1.5568 3.5461-0.25947 6.0024-1.799 2.4736-6.037 6.6943-9.3063 10.292-3.252 3.5807-27.14 26.725-32.088 29.925s-18.128 13.769-20.654 14.132c-3.6153 0.50164-10.984-1.2108-11.053-1.2282l-0.8303 2.4563c0.31136 0.0692 7.0749 2.5082 10.967 1.9547 2.7504-0.39785 17.851-11.157 22.211-14.288 10.31-7.3862 30.738-28.023 34.544-32.14 3.7882-4.1342 6.1927-6.4175 8.5798-9.8944 2.3871-3.4769 2.8888-7.6111-0.10378-9.0122-6.85-3.2174-33.869-10.915-41.653-7.023"/>
   <path d="m73.893 211.51c-0.10379-5.2067-1.6779-3.3904-2.0931-0.10379-2.5601 20.654-8.8912 31.69-19.772 45.995l-1.7298 2.266c-10.932 14.426-21.086 48.244-21.778 53.191-0.67462 4.9645-1.3665 4.7915-4.0996 6.331-6.6597 3.7537-14.011 6.037-21.605 6.8673 0.39785 0.96868 0.10379 2.2833 0.50164 3.0444 8.3203-0.95139 17.696-4.1515 25.065-8.9603 1.626-1.0725 1.8855-1.0206 2.5601-5.4662 0.69192-4.4629 10.327-39.63 21.034-53.745l1.7125-2.2487c11.123-14.617 20.654-24.01 20.204-47.172"/>
   <path d="m189.23 86.675c-13.441 3.9093-50.337 26.812-65.836 38.177-3.4077 2.5082-6.5905 5.0683-9.6523 7.5419-11.711 9.4793-26.691 20.412-49.213 24.667-29.96 5.6564-53.779 22.089-65.421 31.69-12.455 10.292-39.976 46.48-45.459 55.267-5.4489 8.7009-8.5279 13.389-10.742 29.441-1.2973 9.3582-1.5395 20.291-1.7471 26.068 0.76111 0.12109 1.5395 0.38056 2.0931 0 0.20758-5.7256 0.72651-14.651 2.0066-23.888 2.1622-15.655 4.878-22.072 10.171-30.514 5.4316-8.7009 35.184-44.369 47.535-54.575 11.486-9.4793 35.149-26.224 64.642-31.794 23.041-4.3418 34.302-13.458 46.22-23.093 3.0444-2.4736 6.21-5.0164 9.5658-7.49 17.142-12.558 56.339-36.343 68.88-40.01z"/>
   <path d="m-9.1767 235.18 1.7471-1.5222s0.79571-3.425 1.0206-6.9192c0.20758-3.5115-0.8476-2.1276-1.5395 0.60543-0.67462 2.7331-1.2282 7.836-1.2282 7.836"/>
   <path d="m-15.921 242.86c-4.6186 6.3484-14.461 40.062-18.197 71.614l2.4217-1.3665c2.5601-17.557 13.925-63.276 17.973-68.846 4.2553-5.864 30.531-37.45 34.509-40.616s1.972-2.5947-1.5049-0.25947c-9.4101 6.331-30.894 33.558-35.201 39.474"/>
   <path d="m263.34 279.09c-1.7471 0.77841-2.6639 4.4629-3.3385 8.2511l1.8855 0.46704c0.93409-5.3624 2.0758-7.1441 2.6812-6.9538 0.62272 0.19028 10.863 7.3689 10.569 8.3376-0.27677 0.96868-6.0716 1.5568-9.5139 1.1936l1.8509 1.7298c4.0304 0.43245 9.5485-0.58813 10.154-1.8336 1.1071-2.2487-11.745-12.333-14.288-11.192"/>
   <path d="m-59.367 298.5c-1.159 0.48434-4.584 3.4769-7.0057 5.8467-2.7158 2.6639-1.28 4.1169 0.77841 4.2553 2.6639 0.17298 6.6943 0.17298 6.3484-0.10379l1.7817-1.8509c-0.67462 0.51894-9.5312 0.76111-8.7701-0.15568 1.7471-2.145 6.8327-6.4348 7.7149-6.7289 0.8649-0.29406 3.8574 3.5634 4.0477 4.9645l1.0725-0.62272c-0.25947-1.9547-3.6672-6.5559-5.9678-5.6045"/>
   <path d="m276.48 56.831 1.4703 1.6952c6.7462-1.0206 19.979 3.3385 30.116 11.59 7.1614 5.8294 11.226 13.077 11.763 20.931l1.8509 1.7125c1.6606-8.0954-3.4942-18.059-11.192-24.165-12.714-10.102-26.812-12.852-34.008-11.763"/>
   <path d="m322.97 94.51c-3.4769-13.337-28.939-30.029-40.668-31.43l2.6466 3.3904c11.157 1.3319 32.797 16.312 35.997 28.576 3.0098 11.538 1.7471 12.679-1.0552 15.015-0.53623 1.159-0.98598 2.4044-1.6779 3.4077 1.3838-0.65732 1.2282-0.22487 3.0271-1.453 3.598-2.9752 4.9645-5.1202 1.7298-17.506"/>
   <path d="m259.66 71.133s1.28 4.9472 3.7537 8.0954c-3.8056-0.08649-4.6013 0.31136-1.5914 1.0898 6.85 1.7817 20.861 3.8401 31.154 3.2866l-1.9893-1.5049c-9.289 0.48434-22.66-1.9893-25.514-2.6293-2.9925-4.0996-3.6499-8.2165-3.6499-8.2165z"/>
   <path d="m232.38 49.934 1.6433 2.0931c3.7882-2.4563 24.304-3.2347 37.502 4.0477 11.711 6.4521 18.076 18.111 20.515 25.376-11.261-5.051-36.775-15.378-42.311-13.527l2.0066 2.3352c3.9612-1.3319 37.208 11.624 41.55 14.063 1.7817 1.0033 1.9893 1.2109 1.453-1.2109-1.6779-7.7322-7.4208-21.657-20.982-29.147-13.562-7.49-36.481-7.196-41.377-4.0304"/>
   <path d="m248.63 146.23c5.2586 5.0856 14.721 8.3722 22.435 7.4554 2.0412-0.24217 3.8402-0.8303 5.3797-1.6433-2.4044 2.3698-6.1581 4.3245-12.074 4.6359-10.344 0.55353-25.826-6.0716-31.846-13.614l-17.8-22.228s13.302-11.053 16.71-14.34c-0.0519 7.9398 10.31 33.091 17.194 39.733m35.668-54.61c-17.99 0.24217-46.532 9.116-51.686 12.264-0.34596 0.20757-2.958 1.9201-5.0683 3.5807-4.584 3.6499-53.278 46.532-53.71 45.113s14.046-30.617 32.313-58.398c0 0 4.0823 1.1417 7.8014 2.0758 3.7364 0.91679 8.1646 1.2455 0.77841-1.5914-7.3862-2.8542-92.06-34.146-91.506-35.132 0.20758-1.0206 93.651 12.749 101.04 14.409 7.3689 1.6606 3.5634-0.70922-1.1936-2.1449-4.7742-1.4357-11.52-2.0585-11.52-2.0585-4.3072-5.9332-39.716-71.371-35.478-72.513s70.351 70.385 72.963 72.236c2.612 1.8509 4.1688 1.8509 1.4876-1.4703-2.6812-3.3385-60.699-64.764-72.6-73.482-4.2899-3.1482-8.1819-4.2553-4.4975 5.5526 10.846 28.836 28.144 57.187 35.132 68.846-44.663-8.5106-81.906-11.278-87.597-11.676-5.6737-0.41515-7.0057 0.12109-0.91679 3.2866 22.176 11.572 34.717 15.257 83.636 32.624-16.398 25.117-25.601 43.677-30.202 53.918-4.4629 9.8944-5.7429 14.651 7.1268 3.8574 10.811-9.0641 27.313-23.975 32.555-28.611 1.2628 1.5741 18.094 22.816 18.094 22.816 6.504 8.1127 22.141 14.686 33.229 14.098 12.628-0.65733 16.571-8.6836 17.782-13.146l1.2628-5.5872c1.2109-5.7256 2.8542-13.562 5.2932-14.945 1.5049-0.8649 6.7116-2.8888 12.23-5.0164 6.2446-2.4217 11.434-4.4629 15.015-6.0543v-2.3006c-3.9785 1.8163-10.327 4.2899-15.776 6.4002-5.8294 2.266-10.88 4.2207-12.506 5.1548-3.252 1.8509-4.8607 9.5485-6.2965 16.329l-1.2454 5.4662c-0.13838 0.51894-0.32866 1.1071-0.57083 1.7125l-0.0865-0.0519c-2.0412 3.2347-5.8813 4.3245-8.7355 4.6532-7.2824 0.88219-16.174-1.9547-21.121-6.7289-7.5073-7.2478-16.554-35.132-16.554-39.439 0-0.13839 0.0173-0.25947 0.0346-0.34596 1.8336-1.799 30.946-11.226 50.441-11.486 17.16-0.24217 38.159 11.97 36.845 15.741l-0.0692 0.17298c0.7784-0.36326 1.5741-0.65733 2.1622-1.1244 1.0033-3.4596-23.664-17.211-38.28-17.004"/>
   <path d="m247.2 99.893c10.292 2.8196 23.508 14.928 26.224 27.746 1.8855 8.9603-1.7817 17.454-10.137 24.598l2.6466 0.77841c21.622-18.249 5.3278-47.777-17.938-54.16z"/>
   <path d="m256.63 141.24c-2.5774 1.972-4.7915 3.7191-6.2619 5.1894l1.1071 0.8649c0.55353-0.38056 6.7981-5.9851 7.0922-5.7083 0.53624 0.50164-1.3838 8.5971-1.4011 8.6663l1.5049 0.93409c0.0519-0.24218 0.89949-4.2726 1.4184-7.6111 0.76111-4.9991 0.13839-5.0856-3.4596-2.3352"/>
   <path d="m276.33 142.11c-1.1244 1.972-3.1482 5.2586-4.0131 6.1235-1.3665 1.3665-0.41515 3.9093 1.0552 4.0996l1.0725-0.813c-0.8476 0.12108-1.6606-1.6087-0.69192-2.9061 0.96869-1.3146 3.6326-6.4348 4.0996-6.3484 0.50164 0.0173 1.1244 3.9612 0.8649 6.677l1.4357-1.0552c0.0865-2.3698-0.25947-4.1688-0.8822-5.6391-1.1763-2.8196-1.4703-2.7158-2.9406-0.13838"/>
   <path d="m288.47 93.695c-0.25947 6.2965 1.3838 12.524 2.7331 12.628 1.159 0.0865 4.9991-3.7018 7.1614-11.071l-1.6087-0.36326c-2.439 6.7462-4.6186 9.3755-5.0856 9.289-0.88219-0.17298-1.5049-6.6943-1.2454-10.327z"/>
   <path d="m314.85 103.13c-0.0692 7.0057 0.43245 12.195 1.4357 12.576 1.972 0.74381 5.5872-6.3138 5.3451-8.3895 0 0-1.2628-0.36326-1.2628-0.29407 0 2.9406-2.6466 7.8187-3.598 7.317-0.64002-0.32866-0.31136-10.24-0.31136-10.24z"/>
   <path d="m307.22 93.132c0.79571 1.3319 1.0725 1.8163 1.6952 2.5947 0.64002 0.77841 1.0552-0.39785 0.51894-1.453-0.53624-1.0725-3.0098-2.4736-2.2141-1.1417"/>
   <path d="m318.06 100.53c-0.34596 0.89949 1.5222 0.0173 2.1968-0.38056 0.44975-0.27676-0.77841-0.93408-1.5222-0.46704-0.12109 0.06919-0.57083 0.58813-0.67462 0.8476"/>
   <path d="m-51.069 301.76c-0.64002 0.13838-6.1235 3.2866-10.154 7.3343-2.6466 2.6639-1.7644 3.8056 1.972 4.0131 4.5494 0.24217 7.1268-0.17298 8.9084-0.58813l0.93409-1.6087c-2.266 0.53624-11.157 1.0033-11.572 0.46704-0.32866-0.53623 8.7182-7.7668 10.154-8.3722 0.8303 0.17298 4.2553 2.958 4.2553 4.9126l1.5914-1.4876c0-2.2833-4.6532-4.9818-6.0889-4.6704"/>
   <path d="m-41.685 303.86c1.8509-1.0033 7.0749 4.1515 7.1787 5.8986-5.4143 2.3525-13.89 3.1309-14.496 2.8888-0.60543-0.25947 5.9851-8.0608 7.317-8.7874m-0.65732-1.3146c-2.612 2.266-5.5872 5.4316-7.5765 7.7322-3.1136 3.5807-1.6952 4.705 2.1795 4.3072 3.8574-0.39785 9.9463-1.2973 14.721-2.9234 0 0 0.34596-1.7298 0.36326-2.3179 0-1.9893-3.7883-5.7429-6.4521-6.9711-1.6433-0.74382-2.6639-0.32867-3.2347 0.17298"/>
   <path d="m-34.134 313.26c-2.8023 2.3006-8.0781 7.8879-9.2544 9.635-2.0758 3.0444-1.4703 3.5288 1.5741 3.771 3.0617 0.24217 12.195-1.4703 12.195-1.4703s3.3039-2.3006 0.12109-1.6952c-3.1655 0.60543-11.901 1.7298-12.662 1.2282-0.74381-0.50164 8.7182-10.742 9.7215-10.742 1.0033 0 3.4423 5.9678 3.6326 9.5658l1.5049-0.9168c-0.36326-2.2141-2.0239-8.822-4.705-9.8252-0.48434-0.19027-1.2628-0.25947-2.1276 0.44975"/>
   <path d="m-19.979 315.69c-4.7569 3.4077-12.195 10.119-12.922 11.469-0.74381 1.3319 0.34596 1.5741 2.0758 1.8163 5.1202 0.74381 12.87-0.0173 15.966-0.60543l1.2282-1.799c-3.0098 0.55353-16.398 1.2454-16.675 0.72651s10.5-10.5 11.849-10.5c1.0033 0 5.0164 6.3484 5.0164 8.5971l1.8682-0.55353c0-2.6639-3.2866-6.8327-4.6186-8.303-1.3492-1.453-2.3525-1.8682-3.7883-0.8476"/>
   <path d="m3.0028 329.93m-8.1127-9.8425c1.1244-0.77841 2.439-0.36326 3.9093 1.3319 2.1276 2.4736 4.1688 6.3311 3.4077 6.5905-7.0057 2.3352-16.295 2.8369-17.419 2.2141-1.1071-0.62273 6.0716-7.317 10.102-10.137m-0.96869-1.3492c-4.0131 2.8023-7.7668 6.331-9.8771 8.7528-2.9234 3.3558-1.5741 4.9126 3.4596 4.8434 3.9266-0.0519 9.0987-0.48435 15.499-2.4044 1.6087-0.48434 1.7644-0.95139 1.159-3.0098-0.60543-2.0758-2.9234-6.5905-5.9678-8.303-1.6779-0.93409-3.5807-0.36326-4.2726 0.12108"/>
   <path d="m257.8 287.88c-1.453 1.2282-5.4662 5.7775-5.4662 8.2338l1.6606 0.77841c0-1.972 5.1548-8.4068 6.504-8.4068 1.5914 0 11.105 6.9192 11.209 7.7668 0.10379 0.8649-14.669 1.3492-17.367 0.8649 0 0 1.6779 1.972 2.3352 2.0066 6.383 0.32866 16.087-0.27676 16.935-1.799 1.0898-1.9028-9.5312-9.8598-12.922-10.431-0.27677-0.0519-1.0033-0.60543-2.8888 0.98598"/>
   <path d="m239.84 303.66m0.48434-1.7644c0-0.57083 0.34596-1.8509 1.4876-3.5807 1.5568-2.3698 4.0996-4.6532 6.0197-4.065 4.5321 1.4184 10.033 7.0922 9.9463 7.8533-0.0865 0.77841-12.628 1.9028-17.384 0.0865-0.0346-0.0519-0.0692-0.13838-0.0692-0.29406m-2.0758-0.64003c-0.55354 1.9547-0.15568 2.3525 0.20757 2.4909 4.4802 1.7125 12.299 1.5222 17.056 1.1936 2.4217-0.15568 3.9093-0.46705 4.4629-1.159 0.62273-0.81301 0.0346-2.1276-1.7817-4.3418-2.785-3.3731-4.8953-5.3451-10.171-6.9884-3.8747-1.2108-8.8738 5.5872-9.7733 8.8047"/>
  </g>
 </g>
</svg>
