<?xml version="1.0" encoding="UTF-8"?>
<!-- Created with Inkscape (http://www.inkscape.org/) -->
<svg version="1.1" viewBox="0 0 165.29 155.65" xmlns="http://www.w3.org/2000/svg">
 <g transform="translate(-5.7854 -11.03)">
  <g transform="matrix(4.0649 0 0 -4.0649 130.85 152.54)">
   <path d="m0 0-2.759-0.472 0.497-0.331c0.887-0.536 0.757-0.804 0.757-0.804 0.419-0.087 0.701-0.078 0.88-0.015 0.354-0.08 0.654-3e-3 0.833 0.151 0.964-0.03 0.885 1.3-0.208 1.471" fill="#fff8b0"/>
  </g>
  <g transform="matrix(4.0649 0 0 -4.0649 130.85 152.54)">
   <path d="m0 0-2.759-0.472 0.497-0.331c0.887-0.536 0.757-0.804 0.757-0.804 8e-3 -2e-3 0.015-3e-3 0.023-4e-3 0.465 0.715 1.34 1.145 2.198 1.201-0.144 0.197-0.382 0.357-0.716 0.41" fill="#ddd698"/>
  </g>
  <g transform="matrix(4.0649 0 0 -4.0649 118.41 154.48)">
   <path d="m0 0c0.888-0.178 1.793-0.854 2.181-2.361-0.888 0.355-3.424 1.591-6.148 1.058z" fill="#ef8200"/>
  </g>
  <g transform="matrix(4.0649 0 0 -4.0649 125.16 159.16)">
   <path d="m0 0c-0.451 0.68-1.06 1.029-1.66 1.149l-3.967-1.302c1.371 0.268 2.695 0.088 3.785-0.202 0.52 0.355 1.197 0.457 1.842 0.355" fill="#cf7100"/>
  </g>
  <g transform="matrix(4.0649 0 0 -4.0649 116.18 59.651)">
   <path d="m0 0c2.676-5.225-7.996-12.831-7.996-12.831l0.788 19.632c0.71 0.058 1.627 0.16 2.633-0.432 0 0 1.899-1.145 4.575-6.369" fill="#fff8b0"/>
  </g>
  <g transform="matrix(4.0649 0 0 -4.0649 94.261 63.271)">
   <path d="m0 0c-0.226-5.63-2.603-11.94-2.603-11.94s2.329 1.373 4.793 4.337c-1.889 0.172-1.315 4.614-2.19 7.603" fill="#ddd698"/>
  </g>
  <g transform="matrix(4.0649 0 0 -4.0649 80.355 111.08)">
   <path d="m0 0 0.521 0.266c4.035 4.718 8.139 14.978 0.17 19.8-2.751 1.665-5.779 0.821-7.694-1.094z" fill="#fff8b0"/>
  </g>
  <g transform="matrix(4.0649 0 0 -4.0649 78.374 60.306)">
   <path d="m0 0 0.487-12.49 0.521 0.265c1.134 1.326 2.272 3.088 3.147 5.044-0.847-0.421-2.222 1.684-4.155 7.181" fill="#ddd698"/>
  </g>
  <g transform="matrix(4.0649 0 0 -4.0649 80.748 108.45)">
   <path d="m0 0c1.342 2.024 3.758 13.008-3.93 17.386-5.103 2.905-10.078-1.009-10.01-5.565z" fill="#fff8b0"/>
  </g>
  <g transform="matrix(4.0649 0 0 -4.0649 29.298 44.467)">
   <path d="m0 0c-0.825-1.114-1.305-2.485-1.283-3.92l13.94-11.821c0.386 0.582 0.861 1.906 1.158 3.6-1.011-1.075-16.344 4.852-13.815 12.141" fill="#ddd698"/>
  </g>
  <g transform="matrix(4.0649 0 0 -4.0649 76.151 114.86)">
   <path d="m0 0 1.16 1.026c0.06 2.131-0.179 9.157-7.026 12.312-3.724 1.715-11.023 0.617-11.147-6.511-0.063-3.643 3.383-5.869 5.209-5.327z" fill="#fff8b0"/>
  </g>
  <g transform="matrix(4.0649 0 0 -4.0649 39.965 93.476)">
   <path d="m0 0c-1.073-4.037-7.644-1.253-6.476 6.298-0.968-1.129-1.599-2.681-1.634-4.733-0.064-3.643 3.382-5.869 5.209-5.327l11.78-1.535 1.184 1.062c4e-3 0.175-2.272-3.014-10.063 4.235" fill="#ddd698"/>
  </g>
  <g transform="matrix(4.0649 0 0 -4.0649 74.409 114.86)">
   <path d="m0 0c-1.241 1.877-7.963 3.801-12.5 0.967-4.395-2.745-4.107-6.708-2.924-8.661 1.185-1.954 4.652-4.754 9.495-4.007z" fill="#fff8b0"/>
  </g>
  <g transform="matrix(4.0649 0 0 -4.0649 9.1052 139.26)">
   <path d="m0 0c0.129-0.649 0.36-1.229 0.642-1.693 1.184-1.954 4.651-4.754 9.495-4.007l5.928 11.701c-0.106 0.16-9.246-14.753-16.065-6.001" fill="#ddd698"/>
  </g>
  <g transform="matrix(4.0649 0 0 -4.0649 64.505 117.91)">
   <path d="m0 0c-3.196 0.178-7.955-1.729-7.174-6.603 0.719-4.48 6.088-5.164 8.858-5.198 2.25-0.027 5.716 0.909 8.379 1.797 2.665 0.888 8.15 2.526 11.501 0.748-1.334 2.257-4.042 2.982-5.521 3.1z" fill="#fff8b0"/>
  </g>
  <g transform="matrix(4.0649 0 0 -4.0649 35.344 144.75)">
   <path d="m0 0c0.719-4.48 6.088-5.164 8.857-5.198 2.25-0.028 5.717 0.909 8.38 1.797 1.343 0.448 3.404 1.086 5.546 1.38-0.352 1.734-9.634-1.52-15.819-0.45-3.403 0.589-8.192 2.96-5.396 7.244-1.188-1.071-1.91-2.636-1.568-4.773" fill="#ddd698"/>
  </g>
  <g transform="matrix(4.0649 0 0 -4.0649 152.16 155.54)">
   <path d="m0 0c-1.334 2.257-4.042 2.981-5.521 3.1 0 0-1.452 4e-3 -1.66-0.343 0.585 0.097 1.794-0.217 1.649-0.362-0.146-0.146-3.214-1.675-2.168-2.075 2.581 0.56 5.571 0.81 7.7-0.32" fill="#ef8200"/>
  </g>
  <g transform="matrix(4.0649 0 0 -4.0649 121.79 150.87)">
   <path d="m0 0c-0.422-0.349-0.636-0.673-0.229-0.828 2.45 0.531 5.268 0.782 7.37-0.16-1.911 1.273-5.748 0.956-7.141 0.988" fill="#cf7100"/>
  </g>
  <g transform="matrix(4.0649 0 0 -4.0649 104.67 41.692)">
   <path d="m0 0-1.713 1.376c-0.65 0.06-0.947 0.022-0.946-0.059 1e-3 -0.201 1.243-1.184 1.597-2.486z" fill="#ddd698"/>
  </g>
  <g transform="matrix(4.0649 0 0 -4.0649 111.43 39.465)">
   <path d="m0 0c-0.593-0.593-2.19-1.303-2.901-0.415-0.71 0.888-0.655 2.619 0.47 3.685 1.125 1.065 3.613 1.596 4.917 1.821 0.703 0.12 1.96 0.737 2.663 1.539-0.042-0.998-0.769-1.658-0.769-1.658s4.603 1.547 7.103-2.131c-1.183 0.829-3.255 0.651-3.255 0.651s3.493-1.953 2.841-5.86c-0.118 1.006-0.295 1.73-1.094 2.211 0.548-0.8 1.933-4.147-0.434-7.403 0.319 2.537-0.138 4.319-1.508 5.438 0.532-0.414 0.488-2.776-0.281-3.842 0.06 1.599-0.412 2.471-0.412 2.471s0.249-0.953-0.107-1.782c-0.059 1.894-1.846 4.209-3.504 4.504z" fill="#fff8b0"/>
  </g>
  <g transform="matrix(4.0649 0 0 -4.0649 133.57 18.3)">
   <path d="m0 0c-0.649-0.096-1.066-0.235-1.066-0.235s0.619 0.624 0.684 1.353c-1.205-1.751-2.67-1.681-2.283-1.795 0.386-0.114 1.73 0.163 2.665 0.677" fill="#ddd698"/>
  </g>
  <g transform="matrix(4.0649 0 0 -4.0649 158.11 27.918)">
   <path d="m0 0c-0.473 0.696-2.085 1.377-2.6 1.437-1.33 0.153-2.669-0.03-2.788-0.43-0.12-0.402 1.226 0.054 2.617-0.683-0.29 0.218-0.485 0.327-0.485 0.327s2.072 0.178 3.256-0.651" fill="#ddd698"/>
  </g>
  <g transform="matrix(4.0649 0 0 -4.0649 149.71 35.909)">
   <path d="m0 0c-0.257 0.02 0.178-0.573 0.557-1.032 0.799-0.481 0.976-1.205 1.094-2.211 0.139 0.831 0.011 1.443-0.306 2.195-0.317 0.751-1.088 1.028-1.345 1.048" fill="#ddd698"/>
  </g>
  <g transform="matrix(4.0649 0 0 -4.0649 136.28 38.159)">
   <path d="m0 0c-0.238 0.066 0.534-1.365 0.158-1.068-4.116 3.249-5.815 2.413-7.418 1.978-1.602-0.435-2.015 0.082-1.908 1.189-0.762-0.734-0.39-2.158 0.152-2.835 0.711-0.888 2.309-0.178 2.902 0.415l3.729-0.771c1.657-0.296 3.445-2.61 3.504-4.505 0.356 0.829 0.107 1.783 0.107 1.783s0.471-0.873 0.412-2.471c0.769 1.065 0.813 3.428 0.281 3.842 1.37-1.12 1.827-2.902 1.508-5.438 0.272 0.375 0.417 0.527 0.529 1.65 0.337 3.363-1.781 5.624-3.956 6.231" fill="#ddd698"/>
  </g>
  <g transform="matrix(4.0649 0 0 -4.0649 135.22 89.796)">
   <path d="m0 0-0.083-4.081c-0.414-0.828-1.14-3.898-1.14-4.964 0-1.065-2.261-1.305-2.557-0.713 0.355 0.71 0.43 1.266 0.311 2.805z" fill="#fff8b0"/>
  </g>
  <g transform="matrix(4.0649 0 0 -4.0649 135.22 89.796)">
   <path d="m0 0-3.469-6.953c0.099-1.278 0.064-1.878-0.154-2.451 0.57 1.068 1.51 1.863 2.654 2.191 0.249 1.23 0.628 2.616 0.886 3.132z" fill="#ddd698"/>
  </g>
  <g transform="matrix(4.0649 0 0 -4.0649 85.527 134.92)">
   <path d="m0 0c2.048 0 7.792 1.875 7.792 1.875l0.398 1.922s3.276 2.681 4.162 6.667c1.001 4.509-7.342 1.416-7.342 1.416-0.414-0.889-2.814-3.869-4.176-4.639-1.111-0.628-3.938-2.017-4.147-4.449-0.132-0.998 0.178-2.792 3.313-2.792" fill="#fff8b0"/>
  </g>
  <g transform="matrix(4.0649 0 0 -4.0649 126.4 82.345)">
   <path d="m0 0c-2.667-2.6-4.22-8.955-6.279-10.018-0.173 1.15-0.997 1.8-0.997 1.8s1.092-3.332-1.351-4.874c0.224-0.199 2.769 0.046 2.769 0.046s7.444 6.013 8.155 10.576c0.285 1.834-0.844 2.422-2.297 2.47" fill="#ddd698"/>
  </g>
  <g transform="matrix(4.0649 0 0 -4.0649 105.89 86.628)">
   <path d="M 0,0 C -0.236,-0.508 -1.121,-1.698 -2.091,-2.769 -0.292,-1.26 1.36,-0.396 3.004,0.858 1.414,0.552 0,0 0,0" fill="#ddd698"/>
  </g>
  <g transform="matrix(4.0649 0 0 -4.0649 106.38 100.1)">
   <path d="m0 0c-0.034-2.261 0.171-3.428 0.236-4.262 0.141-1.797-0.132-3.199-0.132-3.199l2.559 0.772s0.345 2.243 0.582 2.716c0.236 0.473 0.814 1.423 0.78 3.085-0.034 1.661-3.991 3.149-4.025 0.888" fill="#fff8b0"/>
  </g>
  <g transform="matrix(4.0649 0 0 -4.0649 122.74 103.71)">
   <path d="m0 0c-0.023 1.132-1.867 2.183-3.052 2.022-0.062-1.531 1.296-3.921 1.294-3.615-2e-3 0.308 0.036 1.082 0.205 0.846 0.598-0.837 0.475-2.295 0.553-2.166s1.033 1.251 1 2.913" fill="#ddd698"/>
  </g>
  <g transform="matrix(4.0649 0 0 -4.0649 104.03 42.379)">
   <path d="m0 0c-0.236-0.178-1.07-0.896-0.894-1.725 0.207-0.957 0.125-1.958-0.296-2.532-0.975-1.327-0.82-1.327-0.524-1.623 0.297-0.296 1.305-0.528 1.66-0.47 0.229-0.205 0.28-0.186 0.517-0.128 0.236 0.06 1.179 0.742 1.533 0.861 0.06-0.533-0.119-2.879-1.248-4.384-0.384-0.512-0.581-2.291-0.034-3.522-0.059 0.651 0.753 1.539 0.753 1.539s-0.041-2.629 1.143-3.517c-0.206 0.685-0.081 1.536-0.081 1.536s0.592-1.657 1.421-1.953c-0.592 0.77-0.257 1.835-0.296 2.131 0.487-1.189 2.634-2.491 1.598-4.321 1.303 0.591 2.132 2.486 2.072 3.374 0.537-0.704 0.468-1.716 0.468-1.716 0.476 0.827 0.977 2.13 0.667 3.987 0.474-0.651 0.76-1.502 0.76-1.502s-0.381 2.254-0.263 3.793-0.718 4.959-1.336 6.686c-0.616 1.721-1.469 2.993-2.604 4.143-1.126 1.547-2.842 3.434-3.256 3.374-0.414-0.059 2e-3 -2.68 0.041-3.371-0.974-0.682-1.801-0.66-1.801-0.66" fill="#fff8b0"/>
  </g>
  <g transform="matrix(4.0649 0 0 -4.0649 112.15 65.212)">
   <path d="m0 0c0.058-0.514-0.258-2.222-0.44-2.612 0.365-0.756 0.625-1.025 1.641 0.025 1.589 1.642 0.794 3.507 0.416 3.557-0.379 0.049-1.094-0.428-1.248-0.491s-0.428-0.078-0.161 0.133c0.267 0.21 0.571 0.502 0.267 0.407-0.961-0.302-1.805-1.45-2.875-1.676 0.19-0.108 0.673-0.251 0.867-0.203 0.236 0.059 1.179 0.741 1.533 0.86" fill="#ddd698"/>
  </g>
  <g transform="matrix(4.0649 0 0 -4.0649 140.44 83.726)">
   <path d="m0 0c0.01 0.135-0.483-1.284-0.562-0.466-0.08 0.82-0.426-3.273-0.577-3.419-0.15-0.146-0.404 1.361-0.427 1.042-0.069-0.964-1.136-3.564-1.347-3.076s-0.488 1.057-1.122 1.598-1.241 1.637-1.268 1.862c-0.026 0.224-0.343-1.018-0.554-1.308-0.211-0.291-0.67 1.593-0.766 1.651-0.097 0.057-0.38-1.075-0.561-0.697-0.179 0.38-0.076 1.638-0.153 1.766s-0.884-0.739-1.003-1.32-0.024-0.709 0.098-0.985c-0.059 0.652 0.753 1.54 0.753 1.54s-0.041-2.629 1.143-3.517c-0.206 0.684-0.081 1.536-0.081 1.536s0.592-1.657 1.421-1.953c-0.592 0.769-0.257 1.835-0.296 2.131 0.487-1.189 2.634-2.491 1.598-4.322 1.303 0.592 2.132 2.487 2.072 3.375 0.537-0.705 0.414-1.894 0.414-1.894s1.086 1.972 0.721 4.165c0.474-0.651 0.76-1.502 0.76-1.502s-0.381 2.254-0.263 3.793" fill="#ddd698"/>
  </g>
  <g transform="matrix(4.0649 0 0 -4.0649 111.04 39.93)">
   <path d="m0 0c-0.749-0.566-1.776-0.639-1.776-0.639-0.136-0.101-0.341-0.298-0.595-0.688 0.353-0.374 1.943 0.59 2.371 1.327" fill="#ddd698"/>
  </g>
  <g transform="matrix(4.0649 0 0 -4.0649 114.55 48)">
   <path d="M 0,0 C -1.166,-0.333 -1.439,-0.689 -1.439,-1.873 -0.433,-1.399 0,-1.361 0,0" fill="#e50044"/>
  </g>
  <g transform="matrix(4.0649 0 0 -4.0649 114.53 49.052)">
   <path d="m0 0c4e-3 0.081 6e-3 0.167 6e-3 0.259-1.166-0.333-1.44-0.69-1.44-1.873 6e-3 2e-3 0.01 5e-3 0.015 7e-3 0.079 0.695 0.473 1.42 1.419 1.607" fill="#c70129"/>
  </g>
  <g transform="matrix(4.0649 0 0 -4.0649 113.89 40.216)">
   <path d="m0 0c-0.236 0.06-0.407 2.357-0.271 2.586 0.434-0.114 1.803-2.034 1.981-2.449 0 0-1.473-0.196-1.71-0.137" fill="#fff8b0"/>
  </g>
  <g transform="matrix(4.0649 0 0 -4.0649 116.85 33.769)">
   <path d="m0 0c-0.393 0.502-0.798 0.946-1 1-0.137-0.229 0.034-2.526 0.271-2.586 0.064-0.016 0.221-0.013 0.414 0-0.147 0.822 0.011 1.812 0.315 1.586" fill="#ddd698"/>
  </g>
  <g transform="matrix(4.0649 0 0 -4.0649 76.298 114.78)">
   <path d="m0 0c-0.947 0-2.661-0.247-4.025-1.835-1.844-2.144-1.611-6.209 2.513-7.583 2.766-0.922 7.318-0.296 10.155 1.013 2.758 1.272 10.283 3.461 14.503-0.356-1.109 2.449-4.7 5.868-9.863 6.006-3.901 0.103-7.045-2.252-11.662-2.183-1.661 0.025-2.692 1.185-2.568 2.985 0.208 1.282 0.947 1.953 0.947 1.953" fill="#fff8b0"/>
  </g>
  <g transform="matrix(4.0649 0 0 -4.0649 72.503 125.57)">
   <path d="m0 0c-0.025 0.219-0.031 0.452-0.014 0.699 0.241 1.065 0.948 1.953 0.948 1.953-0.412 0-0.97-0.042-1.581-0.22-0.162-0.844 0.105-1.734 0.647-2.432" fill="#ddd698"/>
  </g>
  <g transform="matrix(4.0649 0 0 -4.0649 144.72 137.59)">
   <path d="m0 0c-5.463 0.438-7.291-2.31-14.986-2.689-2.897-0.143-6.785 0.796-6.826 4.605-0.721-2.144 0.373-4.687 3.441-5.71 2.766-0.921 7.345-0.31 10.182 0.999 2.758 1.273 10.283 3.461 14.502-0.355-0.665 1.469-4.253 2.985-6.313 3.15" fill="#ddd698"/>
  </g>
  <g transform="matrix(4.0649 0 0 -4.0649 170.38 150.4)">
   <path d="m0 0c-1.104 2.438-4.32 5.776-9.799 6.003-0.861-0.309-2.847-0.4-3.201-0.941s2.122-0.759 1.841-0.822c-0.28-0.062-1.529-0.478-1.206-0.583 0.322-0.103 2.786-0.692 2.651-0.897-0.107-0.163-2.515-1.3-2.391-1.485 0.031-0.046 1.093 0.288 1.378 0.34 3.398 0.796 7.837 0.999 10.727-1.615" fill="#ef8200"/>
  </g>
  <g transform="matrix(4.0649 0 0 -4.0649 129.91 138.43)">
   <path d="m0 0c0.175-0.074 0.273-0.139 0.243-0.185-0.107-0.163-2.514-1.299-2.391-1.484 0.031-0.047 1.093 0.288 1.378 0.34 3.398 0.796 7.837 0.999 10.727-1.615-0.097 0.213-0.209 0.431-0.338 0.655-0.44 0.489-4.576 3.486-9.619 2.289" fill="#cf7100"/>
  </g>
  <g transform="matrix(4.0649 0 0 -4.0649 130.8 152.83)">
   <path d="m0 0c0.575-0.09 0.849-0.515 0.815-0.869-0.022-0.231-0.19-0.471-0.542-0.443l-4e-3 -0.146c0.363-0.028 0.787 0.14 0.823 0.512 0.04 0.421-0.284 0.943-0.947 1.048z"/>
  </g>
  <g transform="matrix(4.0649 0 0 -4.0649 131.27 155.25)">
   <path d="m0 0c0.112-0.082 0.267-0.427 0.171-0.61-0.118-0.227-0.326-0.366-0.791-0.235l-0.195-0.163c0.565-0.159 0.996 0.021 1.137 0.29 0.13 0.25 7e-3 0.614-0.232 0.74-0.168 0.09-0.202 0.061-0.09-0.022"/>
  </g>
  <g transform="matrix(4.0649 0 0 -4.0649 127.41 155.64)">
   <path d="m0 0c0.156-0.061 0.304-0.22 0.377-0.393 0.028-0.066 0.063-0.192-0.021-0.294-0.076-0.093-0.308-0.229-1-0.085l0.11-0.167c0.728-0.152 0.895-5e-3 1.015 0.14 0.097 0.118 0.142 0.29 0.072 0.454-0.095 0.225-0.465 0.406-0.58 0.42-0.116 0.015-0.13-0.015 0.027-0.075"/>
  </g>
  <g transform="matrix(4.0649 0 0 -4.0649 118.34 154.8)">
   <path d="m0 0c0.583-0.116 1.467-0.764 2.057-1.942 0.15-0.299 0.097-0.24-0.119-0.151-1.465 0.607-3.41 1.432-5.904 0.944l-0.248-0.18c2.447 0.479 5.62-0.748 6.339-1.08 0.241-0.112 0.327-0.214 0.27 0.055-0.307 1.42-1.436 2.311-2.073 2.439z"/>
  </g>
  <g transform="matrix(4.0649 0 0 -4.0649 85.976 31.328)">
   <path d="M 0,0 0.213,-0.229 C 1,-0.18 1.866,-0.106 2.817,-0.666 l 0.106,0.244 C 1.93,0.162 0.606,0.229 0,0"/>
  </g>
  <g transform="matrix(4.0649 0 0 -4.0649 100.3 50.568)">
   <path d="m0 0c-0.706 2.194-2.111 4.132-4.165 5.375-3.084 1.865-6.449 0.448-7.773-1.22l0.247-0.045c1.628 1.628 4.594 2.597 7.344 0.928 2.466-1.497 3.937-3.599 4.369-6.284 0.019-0.111 0.033-0.223 0.047-0.335 0.076 0.606-0.012 0.959-0.069 1.581"/>
  </g>
  <g transform="matrix(4.0649 0 0 -4.0649 100.68 67.689)">
   <path d="m0 0c-0.374-3.848-2.442-7.836-4.6-10.359l0.496 0.306c2.159 2.525 3.931 6.098 4.36 9.968-0.084 0.023-0.167 0.053-0.256 0.085"/>
  </g>
  <g transform="matrix(4.0649 0 0 -4.0649 36.443 36.512)">
   <path d="m0 0c-2.058-1.217-3.27-3.538-3.235-5.879l0.292 3e-3c-0.035 2.272 1.186 4.416 3.184 5.597 2.018 1.193 4.452 1.15 6.681-0.118 2.534-1.444 4.19-3.73 4.92-6.793 1.025-4.303-0.129-8.906-0.949-10.329l0.087-0.234c1.033 1.414 2.164 6.314 1.125 10.671-0.743 3.118-2.555 5.623-5.139 7.095-2.29 1.303-4.886 1.216-6.966-0.013"/>
  </g>
  <g transform="matrix(4.0649 0 0 -4.0649 19.263 61.767)">
   <path d="m0 0c-1.834-1.152-3.353-3.33-3.315-6.199 0.057-4.615 4.232-5.787 5.17-5.508l0.309 0.238c-1.609-0.478-5.149 1.49-5.084 5.233 0.058 3.337 1.7 5.061 3.068 5.92 5.656 3.552 15.182-0.942 14.882-11.717l0.219 0.132c0.305 11.305-9.724 15.372-15.249 11.901"/>
  </g>
  <g transform="matrix(4.0649 0 0 -4.0649 25.257 89.061)">
   <path d="m0 0c-0.514-0.26-0.361-0.334-0.032-0.207 0.793 0.305 2.007 0.098 2.862-0.378 1.118-0.622 1.882-1.783 2.352-3.344l0.321 0.079c-1.048 4.045-4.449 4.382-5.503 3.85"/>
  </g>
  <g transform="matrix(4.0649 0 0 -4.0649 22.364 110.27)">
   <path d="m0 0c-4.513-2.875-3.903-7.22-2.916-8.85 2.031-3.35 6.022-4.6 10.054-4.126l-0.47 0.302c-4.694-0.723-7.999 1.91-9.204 3.899-1.189 1.96-1.399 5.848 2.891 8.529 4.627 2.89 11.225 0.79 12.368-0.939l0.225 0.057c-1.925 2.559-8.7 3.834-12.948 1.128"/>
  </g>
  <g transform="matrix(4.0649 0 0 -4.0649 34.05 144.74)">
   <path d="m0 0c0.724-4.318 5.743-5.332 8.866-5.396 3.155-0.064 6.932 1.224 8.99 1.911 1.86 0.62 7.125 2.519 11.155 0.743 0.356-0.157 0.321-0.134 0.093 0.255-1.44 2.447-4.508 2.973-5.164 3.026l-0.413-0.192c0.614-0.049 3.644-0.414 5.251-2.761-2.436 1.106-6.123 0.812-11.253-0.898-2.047-0.682-5.854-1.823-8.347-1.792-2.393 0.03-8.037 0.587-8.763 5.117-0.687 4.286 3.231 6.703 7.072 6.49l0.224 0.208c-5.208 0.313-8.337-2.978-7.711-6.711"/>
  </g>
  <g transform="matrix(4.0649 0 0 -4.0649 93.522 36.889)">
   <path d="m0 0c0.413-0.413 1.505-1.638 1.639-2.671l0.114 0.339c-0.224 1.011-1.106 1.949-1.5 2.396-0.128 0.146 0.151 0.114 0.771 0.058l-0.023 0.226c-1.284 0.089-1.33-0.018-1.001-0.348"/>
  </g>
  <g transform="matrix(4.0649 0 0 -4.0649 121.94 18.149)">
   <path d="m0 0c-1.684-0.262-4.176-0.864-5.229-1.863-1.177-1.115-1.22-2.799-0.361-3.824 0.77-0.918 2.404-0.266 3.058 0.387l-0.111 0.111c-0.633-0.634-2.211-1.016-2.765-0.323-0.291 0.364-0.472 0.784-0.472 1.342 0 0.735 0.281 1.537 0.916 2.139 1.026 0.971 3.222 1.494 4.876 1.801 1.543 0.286 2.36 1.239 2.491 1.342 0.132 0.104-0.199-0.868-0.665-1.329-0.222-0.072-0.599-0.269 0.048-0.153 0.512 0.092 4.341 1.42 6.821-1.771-1.203 0.61-2.499 0.573-2.972 0.466-0.63 0.226-0.459 0.056-0.162-0.121s3.011-1.679 3.011-4.871c0-0.108-0.28 0.983-1.056 1.332-0.27 0.349-0.533 0.531-0.142-0.097 0.314-0.502 0.912-1.884 0.912-3.451 0-1.137-0.277-2.329-1.136-3.618 0.108 1.059 0.313 3.668-1.348 5.085-0.349 0.298-0.83 0.493-0.817 0.405 0.014-0.088 0.274-0.211 0.502-0.419 0.187-0.228 0.322-0.696 0.322-1.335 0-0.716-0.146-1.563-0.473-2.163 0 1.421-0.203 1.901-0.353 2.27-0.151 0.368-0.43 0.662-0.193 0.042 0.059-0.344 0.057-0.462 0.057-0.881 0-0.194-0.021-0.411-0.072-0.629-0.268 1.841-1.619 3.723-3.501 4.161l0.248-0.297c1.651-0.729 2.61-1.77 3.134-4.259 0.105-0.498 0.104-0.457 0.188-0.222 0.083 0.234 0.16 0.667 0.161 1.248 0.088-0.209 0.162-1.153 0.169-1.592 7e-3 -0.426-0.026-0.419 0.176-0.129 0.533 0.765 0.675 1.524 0.675 2.383 0 0.383-0.096 0.803-0.179 1.071 1.276-1.337 1.254-3.167 1.029-4.985-0.051-0.407-0.043-0.382 0.23-0.103 0.843 0.865 1.416 2.533 1.416 3.773 0 1.341-0.32 2.45-0.788 3.39 0.346-0.301 0.599-0.938 0.726-1.396 0.165-0.599 0.189-0.846 0.302 5e-3 0.23 1.732-0.574 3.963-2.783 5.246 0.573 0.017 2.054-0.114 2.963-0.635 0.403-0.232 0.297-0.086 0.147 0.135-1.875 2.761-4.744 2.883-6.958 2.212 0.392 0.419 0.621 0.965 0.756 1.491 0.135 0.525-2e-3 0.44-0.273 0.144-0.55-0.602-1.603-1.372-2.525-1.515"/>
  </g>
  <g transform="matrix(4.0649 0 0 -4.0649 121.87 122.31)">
   <path d="m0 0c0 0.312 0.018 0.899-0.017 1.343l-0.264-0.306c0.083-1.081 0.071-1.674-0.078-2.19 0.076 7e-3 0.151 0.04 0.226 0.07 0.086 0.315 0.133 0.662 0.133 1.083"/>
  </g>
  <g transform="matrix(4.0649 0 0 -4.0649 135.06 104.82)">
   <path d="m0 0c-0.391-0.78-1.223-3.994-1.277-5.208 0.063-0.011 0.184-0.018 0.249-0.021 0.049 1.163 0.728 3.873 1.103 4.624z"/>
  </g>
  <g transform="matrix(4.0649 0 0 -4.0649 118.54 119.51)">
   <path d="m0 0-0.018-0.292c0.639 0.586 1.347 1.023 1.965 2.221l-0.059 0.26c-0.443-0.671-0.957-1.341-1.888-2.189"/>
  </g>
  <g transform="matrix(4.0649 0 0 -4.0649 94.511 114.19)">
   <path d="m0 0c1.145-0.831 1.81-1.974 1.265-4.45l0.257 0.031c0.836 2.629-0.43 4.038-1.427 4.513-0.228 0.108-0.284 0.043-0.095-0.094"/>
  </g>
  <g transform="matrix(4.0649 0 0 -4.0649 107.22 130.58)">
   <path d="m0 0c0.05 0.327 0.166 1.265 0.166 2.197 0 0.326 0.042 0.74 0.014 1.106l-0.015 0.174c-0.066 0.851-0.29 3.021-0.314 3.876-0.014 0.47-0.172 0.118-0.192-0.176-0.076-1.177 0.15-2.665 0.233-3.725l0.013-0.174c0.11-1.396-0.116-2.882-0.182-3.313"/>
  </g>
  <g transform="matrix(4.0649 0 0 -4.0649 123.49 104.54)">
   <path d="m0 0-0.282 0.21c-0.118-1.745-0.559-2.625-0.771-3.049-0.203-0.407-0.527-2.27-0.615-2.814 0.061 0 0.179 0.037 0.244 0.037 0.092 0.567 0.455 2.395 0.641 2.765 0.218 0.435 0.662 1.068 0.783 2.851"/>
  </g>
  <g transform="matrix(4.0649 0 0 -4.0649 111 25.064)">
   <path d="m0 0c-0.525-0.075-0.184-2.408 0.064-3.756 0.049-0.27 0.173-0.378 0.137-0.012-0.215 2.161-0.355 3.384-0.136 3.444 0.308 0.083 1.845-1.533 3.157-3.336l5e-3 -6e-3 4e-3 -5e-3c1.206-1.222 2.003-2.489 2.582-4.108 0.592-1.656 1.094-4.084 1.217-5.725 0.067-0.888 0.067-1.571 0.067-1.797 0-0.845 0.12-1.548 0.201-2.178-0.124 0.258-0.258 0.566-0.476 0.814-0.204 1.021-0.213 0.713-0.191 0.349 0.021-0.364 0.059-1.152 0.063-1.446 0.013-0.99-0.241-2.181-0.563-2.665-0.016 0.423-0.132 0.985-0.435 1.325-0.056 0.718-0.16 0.654-0.18 7e-3 -0.032-0.95-0.705-2.386-1.757-3.041 0.109 0.265 0.158 0.518 0.158 0.762 0 0.86-0.595 1.595-1.137 2.266-0.313 0.386-0.586 0.669-0.728 1.016 0 0-0.034 0.84-0.178 0.267-0.176-0.707-0.051-1.771 0.088-2.078-0.617 0.505-0.747 0.904-1.056 1.712-0.377 0.987-0.209 0.08-0.15-0.113-0.065-0.233-0.18-0.664-0.025-1.172-0.855 0.942-0.894 2.92-0.894 3.303 0 0.538-0.112 0.413-0.16 0.037-0.248-0.292-0.58-0.636-0.723-1.239-0.139 0.445-0.197 0.923-0.197 1.371 0 0.759 0.08 1.315 0.354 1.686 1.03 1.385 1.384 3.652 1.384 4.46 0.121 0.065 0.651 0.404 0.945 0.541 0.295 0.136 0.174 0.213-0.253 0.025-0.869-0.381-2.077-1.224-2.429-1.337-0.196-0.062-0.248-0.017-0.415 0.133l-0.32-8e-3c-0.33-0.055-1.111 0.233-1.38 0.502-0.357 0.357 0.305 0.992 0.66 1.66 0.343 0.652 0.397 1.385 0.184 2.378-0.175 0.815 0.842 1.604 0.959 1.692l-0.387-0.013c-0.207-0.155-0.98-0.899-0.785-1.812 0.201-0.933 0.244-1.476-0.136-2.122-0.33-0.552-1.006-1.28-0.864-1.684 0.142-0.403 1.28-0.897 1.83-0.819 0.125-0.101 0.349-0.178 0.64-0.116 0.277 0.06 1.306 0.694 1.489 0.816 0-0.754-0.424-2.955-1.433-4.299-0.23-0.306-0.355-0.959-0.355-1.741 0-0.611 0.276-1.492 0.441-1.795 0.19-0.354 0.212-0.316 0.22 0.055 0.017 0.626 0.359 1.171 0.574 1.448 0-0.863 0.139-2.93 1.157-3.485 0.234-0.128 0.251-0.155 0.151 0.106-0.145 0.383-0.111 1.035-0.109 1.094 0.209-0.632 0.527-1.284 1.274-1.558 0.188-0.07 0.254-0.115 0.165 0.051-0.219 0.409-0.334 1.068-0.302 1.742 0.163-0.27 0.382-0.542 0.613-0.827 0.517-0.641 1.087-1.344 1.087-2.152 0-0.415-0.17-0.801-0.334-1.019-0.163-0.218-0.105-0.194 0.236 0 1.64 0.93 1.955 2.061 2.075 3.075 0.205-0.431 0.275-0.798 0.244-1.266-0.029-0.467-0.036-0.52 0.275-0.056 0.417 0.621 0.663 1.25 0.704 3.007 4e-3 0.166-9e-3 0.337-0.024 0.509 0.323-0.552 0.405-0.71 0.531-1.009 0.107-0.255 0.186-0.651 0.177-0.066-0.016 0.962-0.359 2.162-0.32 4.102 0.033 1.636-0.655 5.011-1.288 6.668-0.531 1.394-1.203 2.482-2.586 3.87-1.069 1.621-3.021 3.623-3.406 3.568"/>
  </g>
  <g transform="matrix(4.0649 0 0 -4.0649 112.85 30.593)">
   <path d="m0 0c0 0.169-5e-3 0.172 0.229-0.069 0.292-0.299 1.336-1.539 1.611-2.071-0.544-0.099-1.288-0.161-1.567-0.166-0.074 0.166-0.296 1.432-0.273 2.306m-0.169 0.207c-0.037-0.437 0.062-2.001 0.262-2.53 0.141-0.372 0.214-0.215 0.214-0.092 0.241-0.061 1.111 0.03 1.602 0.145 0.13-0.207 0.253-0.18 0.144 0.102-0.11 0.282-0.993 1.65-1.996 2.471-0.225 0.183-0.208 0.115-0.226-0.096"/>
  </g>
  <g transform="matrix(4.0649 0 0 -4.0649 101.38 64.029)">
   <path d="m0 0c-0.187 0.302-1.377 0.082-1.367-0.191 0.015-0.447 0.812-0.635 0.938-0.603 0.125 0.032 0.616 0.493 0.429 0.794"/>
  </g>
  <g transform="matrix(4.0649 0 0 -4.0649 111.52 63.045)">
   <path d="m0 0c-0.996-0.812-1.561-1.162-2.332-1.166-0.537-2e-3 -0.607-0.146 0.119-0.206 0.615-0.053 1.659 0.711 2.219 1.192 0.199 0.17 0.338 0.304 0.593 0.478 0.255 0.173 0.141 0.213-0.036 0.105-0.176-0.107-0.345-0.225-0.563-0.403"/>
  </g>
  <g transform="matrix(4.0649 0 0 -4.0649 111.2 49.711)">
   <path d="M 0,0 C 0.021,-0.38 0.756,-0.336 0.604,0.282 0.577,0.39 -0.021,0.38 0,0" fill="#fff"/>
  </g>
  <g transform="matrix(4.0649 0 0 -4.0649 114.35 48.274)">
   <path d="m0 0c-0.013-1.125-0.341-1.276-1.114-1.626 0 0-0.142-0.064-0.224-0.103 0.013 1.07 0.281 1.417 1.338 1.729m0.035 0.102c-1.255-0.224-1.577-0.815-1.441-1.887 0.016-0.131 0.071-0.118 0.071-3e-3 1.027 0.359 1.493 0.505 1.418 1.814 0.102 0.032 0.144 0.11-0.048 0.076"/>
  </g>
  <g transform="matrix(4.0649 0 0 -4.0649 98.726 65.03)">
   <path d="m0 0c0-0.067-0.104-0.122-0.233-0.122s-0.234 0.055-0.234 0.122 0.105 0.122 0.234 0.122 0.233-0.055 0.233-0.122" fill="#6c787b"/>
  </g>
  <path d="m138.64 141.52c-10.841 0.90681-20.084 3.9348-27.381 7.0688-20.296 8.7272-49.502 8.7639-54.632-9.2069-4.2397-14.869 9.5239-23.686 18.341-24.17-1.9755 2.4715-3.0528 4.7519-3.3007 8.0322-0.58534 7.8127 4.1056 11.739 10.926 12.044 9.3532 0.4102 18.117-2.6583 25.934-4.955 7.2761-2.1341 14.142-4.1503 21.747-3.9552 21.662 0.57727 33.864 13.215 38.921 22.548-7.4591-5.9631-17.711-8.4752-30.556-7.4062m-7.7029-16.345c-8.8817-0.17515-16.621 2.3251-23.954 4.4795-5.3982 1.5894-13.727 5.1137-24.097 4.638-11.735-0.5404-12.475-12.674-6.2152-19.467 2.6056-2.8373 6.9347-5.8859 12.438-8.9956 5.76-3.2601 15.272-15.345 16.885-18.8l0.0461-1.9551c-1.7277 3.7112-12.004 17.129-17.324 19.95-6.2315 3.3088-10.317 6.3616-12.93 9.2313-16.223 1.3495-23.926 14.682-20.649 25.47 5.4144 17.832 33.71 19.861 57.075 9.654 7.0729-3.0893 15.325-6.0485 26.064-6.9387 13.455-1.1223 24.69 2.256 31.832 8.2476 1.2032 1.0082 1.1177 0.67062 0.62567-0.45513-4.3127-9.9305-17.812-24.617-39.799-25.06"/>
 </g>
</svg>
