<?xml version="1.0" encoding="UTF-8"?>
<!-- Created with Inkscape (http://www.inkscape.org/) -->
<svg version="1.1" viewBox="0 0 298.43 299.23" xmlns="http://www.w3.org/2000/svg">
 <path d="m82.094 46.058c-7.329 4.9374-20.402 27.839-19.804 29.108 0.32614 0.67945 4.8739 1.9206 12.384 1.3861 1.7575-0.11777 4.2307-7.2475 5.5443-11.487 1.4857-4.7743 4.9283-17.494 3.0258-19.007-0.18119-0.14495-0.58886-0.38049-1.1505 0" fill="#0f141b"/>
 <path d="m63.079 74.966c-0.56168-1.5492 13.408-24.723 19.423-28.202 0.09059-0.05436 0.20836-0.09965 0.23554-0.07248 0.88782 0.70663-0.3352 8.6155-3.2885 18.137-2.446 7.8816-4.2579 10.88-4.8286 10.917-7.2656 0.51639-11.46-0.55262-11.542-0.7791" fill="#e85377"/>
 <path d="m82.094 46.058" fill="#e85377"/>
 <path d="m81.51 49.366c-5.5987 3.1889-16.488 23.772-16.126 24.614 0.09965 0.22648 9.8203 0.49826 9.8203 0.49826 0.3352 0 0.78816 0 2.9443-5.9067 0.07247-0.18119 6.3506-17.539 4.3938-19.197-0.16307-0.13589-0.50732-0.30802-1.0328-0.0091" fill="#0f141b"/>
 <path d="m82.005 49.612s0.07248-0.02718 0.11777-0.0453c0.01812 0.02718 0.10871 0.16307 0.10871 0.75193v0.22648c-0.19931 5.1276-6.0788 21.887-7.1569 23.011-0.2446 0.0091-8.697 0.08153-8.7876-0.12683-0.2446-0.6251 11.016-21.135 15.718-23.817" fill="#008c46"/>
 <path d="m81.51 49.366" fill="#009f50"/>
 <path d="m246.9 147.01c-1.4676 0-9.9834 2.1833-12.511 3.3791-1.83 0.8697-2.7178 2.2377-3.3157 5.8342 0 0-4.7652 29.035-5.0461 30.276-0.29896 1.3408 0.12683 4.0133 4.113 6.5046 3.1617 1.9749 8.9054 6.4865 8.9597 6.5318l0.97841-0.89687c0.37143-1.83 9.2224-44.898 7.2112-51.348l-0.0906-0.28084z" fill="#0f141b"/>
 <path d="m231.07 191.79c-2.292-1.4314-3.515-3.1164-3.515-4.8105 0-0.26272 0.0272-0.51639 0.0906-0.77911 0.27178-1.2592 2.3011-14.142 3.6419-22.657l1.1687-7.4468c0.37144-2.1924 1.2683-3.7596 2.6091-4.5297 1.3136-0.74287 9.5395-3.4335 11.505-3.7053 0.14495 0.60698 0.21742 1.4133 0.21742 2.4823 0 10.763-6.3868 42.624-7.3743 47.489-1.4223-1.1052-5.6983-4.3847-8.3437-6.0426" fill="#e85377"/>
 <path d="m246.28 150.72c-1.984 0.0996-8.5158 1.8844-9.4489 2.591-0.95123 0.70663-1.368 2.1018-1.7575 4.2579-0.15401 0.85158-3.7596 26.109-3.9952 26.825-0.46203 1.368 0.18119 4.1764 2.1924 5.2907 1.7666 0.98747 6.9395 4.3666 6.9938 4.4028z" fill="#0f141b"/>
 <path d="m234.17 189.13c-1.3498-0.75193-1.9115-2.4732-1.9115-3.6238 0-0.27178 3.66-26.906 3.814-27.74 0.40767-2.2558 0.72475-2.8446 1.377-3.3248 0.61604-0.47109 6.0064-2.0202 8.4252-2.3101-0.13589 0.99653-5.5443 39.698-5.7074 40.921-1.3589-0.87875-4.5116-3.0983-5.9973-3.9227" fill="#009f50"/>
 <path d="m281.46 153.82c-3.5784 5.7255-6.1694 52.744-6.2781 54.746l0.5798 0.38955c0.0634-0.0272 6.1422-2.2014 9.6845-3.3067 3.7053-1.1596 5.7074-3.6056 6.2419-5.5806 1.4857-5.4447 3.053-33.194 3.053-33.194 0.22648-2.4642-0.84253-4.3213-2.1199-5.5806-0.85158-0.83346-9.1771-7.2475-10.717-7.6552l-0.28084-0.0725z" fill="#0f141b"/>
 <path d="m281.99 154.55c1.83 0.97841 8.7151 6.8217 9.9834 8.0628 0.94217 0.915 1.4223 2.3101 1.4223 4.0767 0 0.30801-0.0181 0.62509-0.0453 0.96029l-0.20836 3.1708c-0.43485 6.9032-1.4495 23.065-2.9081 28.428-0.50732 1.8481-1.4314 3.7053-4.7471 4.738-3.0077 0.93312-7.8001 3.1527-9.458 3.9408 0.32614-5.807 2.7903-47.127 5.9611-53.378" fill="#c94768"/>
 <path d="m281.4 158.59-5.6983 45.596 0.6251-0.23554c0.0543-0.0272 6.0426-2.0202 7.9269-2.8265 2.9262-1.2592 3.5513-2.7994 3.968-5.5172 0.2899-1.8844 2.9352-29.407 2.2739-30.603-0.67039-1.1868-6.5046-6.097-8.5702-6.7492l-0.46202-0.14495z" fill="#0f141b"/>
 <path d="m281.99 159.83c2.0384 1.06 7.2112 5.7165 7.3381 6.6405 0.13589 0.93312-1.8662 27.377-2.138 29.153-0.38049 2.4642-1.2502 3.6056-3.9499 4.7652-1.4948 0.64321-5.1367 2.0202-6.5771 2.5638 0.16307-1.2774 5.191-42.045 5.3269-43.123" fill="#008c46"/>
 <path d="m231.04 88.713-2.4551 8.8057 0.10872 0.15401c1.368 1.984 4.4481 8.706 5.9248 11.931l0.8697 1.8753c0.90593 1.7032 1.9387 3.2704 3.3248 3.198 1.368-0.0815 2.6453-1.7485 4.0224-5.2454 1.0962-2.7812-9.0322-17.847-11.071-20.837l-0.48921-0.72475z" fill="#0f141b"/>
 <path d="m231.58 89.774c4.3938 6.5137 10.554 16.533 10.554 19.025 0 0.13589-0.0181 0.2446-0.0544 0.33519-1.522 3.8412-2.6453 4.6928-3.3157 4.729-0.94217 0.0544-1.8662-1.4495-2.5728-2.7722l-0.84253-1.8209c-1.4586-3.1798-4.4391-9.6935-5.8886-11.886 0.0815-0.29896 1.7485-6.2691 2.1199-7.6099" fill="#c94768"/>
 <path d="m249.06 63.389 17.938 32.179 0.30802-0.08154c0.38049-0.09059 1.5129 0.03624 2.6091 0.15401 2.5004 0.28084 5.8342 1.2864 6.7674 0.19025 0.20836-0.2446 0.43485-1.1777 0.23554-1.8662-0.65227-2.3464-13.326-27.078-15.428-28.863-1.9568-1.6669-10.744-1.7122-11.741-1.7122z" fill="#0f141b"/>
 <path d="m250.45 64.209c2.9986 0.0453 9.159 0.35332 10.518 1.5039 1.6216 1.3861 13.897 25.529 14.667 28.256 0.0362 0.12683 0.0453 0.22648 0.0453 0.30802 0 0.17213-0.0543 0.27178-0.10871 0.3352-0.65227 0.77004-3.6056 0.44391-5.5624 0.22648-1.1143-0.12683-1.9931-0.21742-2.5729-0.16307-0.2446-0.44391-16.334-29.298-16.986-30.467" fill="#c94768"/>
 <path d="m249.71 65.665 15.347 26.1 2.9805 0.48921c2.3283 0.40767 3.6147 0.63416 4.1854-0.11777 0.48014-0.63416 0.26272-1.6941-0.85158-4.0405-0.69758-1.4586-10.065-19.595-11.777-21.009-1.676-1.3861-8.4161-1.4223-9.1771-1.4223z" fill="#0f141b"/>
 <path d="m251.13 66.485c2.3464 0.0453 6.8398 0.31708 7.9451 1.223 1.4948 1.2411 10.636 18.78 11.56 20.728 0.67039 1.4314 1.0146 2.4098 1.0146 2.9081 0 0.13589-0.0272 0.23554-0.0725 0.29896-0.27178 0.36237-1.7213 0.10871-3.3973-0.19025 0 0-2.283-0.37143-2.6182-0.42579-0.19024-0.31708-13.743-23.364-14.432-24.542" fill="#008c46"/>
 <path d="m166.58 40.976c-0.0906 0.55262 0.64321 0.70663 1.1324 0.81534 2.0746 0.45297 5.5896 1.6307 8.996 2.7631 4.2488 1.4223 9.458 3.5513 11.505 3.7778 1.2683 0.14495 1.1052-1.7666 1.1052-1.8119 0-1.9206-4.8558-6.3959-6.0788-6.5409-0.6704-0.08153-16.397-0.58886-16.66 0.99653" fill="#0f141b"/>
 <path d="m183.14 40.786c0.80628 0.09965 5.1367 4.5659 4.9736 5.9158-0.0181 0.15401-0.22648 0.20836-0.6251 0.16307-1.9659-0.21742-6.3144-1.6669-10.527-3.0802-3.4063-1.1415-6.6043-2.2014-8.7332-2.6997 3.044-0.42579 12.321-0.60698 14.912-0.29896" fill="#c94768"/>
 <path d="m183.24 39.98" fill="#e85377"/>
 <path d="m85.883 41.057c-1.7213 0.02718-4.8105 2.2739-6.0517 4.7924-4.9826 10.101-10.445 32.17-11.623 39.091-2.292 13.462 1.1868 9.5214 5.7618 2.2014 4.584-7.329 17.557-29.878 19.133-34.054 0.78816-2.0655 0.99653-4.1039 0.99653-5.4719 0-1.0146-0.21742-1.8753-0.64322-2.6091-1.6307-2.8265-6.0788-3.968-7.5736-3.9499" fill="#0f141b"/>
 <path d="m68.769 92.317c-2.0655-0.84252 6.5137-34.706 12.076-45.958 1.1777-2.4007 3.7596-4.4753 5.0461-4.4934 1.3136-0.01812 5.4175 1.0509 6.8579 3.5513 0.58886 1.0056 1.0509 2.7088-0.5798 7.0029-3.4788 9.1862-21.978 40.477-23.4 39.897" fill="#009f50"/>
 <path d="m92.17 52.42c1.6216-4.2941 1.1687-5.9973 0.5798-7.0029-0.2899-0.50732-0.68851-0.95123-1.1505-1.3408-7.9904 12.013-16.579 32.677-21.634 47.172 4.4481-5.5262 19.142-30.738 22.204-38.828" fill="#008c46"/>
 <path d="m93.455 45.007" fill="#009f50"/>
 <path d="m89.55 51.481c-2.2105 1.676-10.083 17.167-12.52 25.022-0.86064 2.7812 4.4119 8.8782 6.0879 9.467 0.23554 0.08153 0.4892 0.03624 0.71569-0.11777 2.7178-1.9206 6.7583-27.957 6.7583-33.701 0-0.15401 0-0.61604-0.34426-0.79722-0.15401-0.07247-0.38955-0.10871-0.69757 0.12683" fill="#0f141b"/>
 <path d="m89.776 52.388c-0.09059 7.5283-4.584 32.007-6.4231 32.795-1.2321-0.49826-4.9283-5.8523-5.5172-8.7695 0.30802-1.4404 9.6573-21.48 11.94-24.025" fill="#009f50"/>
 <path d="m90.17 50.623c-0.39861 0.01812-1.368 0.2446-1.6307 1.8753l-1.4857 9.8566c-1.3408 9.159-3.9589 20.583-4.1764 20.664-0.02718 0.01812-0.76099-0.57074-3.6147-5.5624-0.69757-1.4314-1.8481-1.8662-2.9986-1.0781-1.0146 0.68851-0.79722 2.2014-0.25366 3.1798 2.5638 4.6475 7.2928 9.7298 7.9813 9.5939 1.1415-0.23554 6.405-16.243 8.1172-37.107 0.07247-0.86064-1.0871-1.4676-1.9387-1.4223" fill="#0f141b"/>
 <path d="m83.107 84.078c0.38955-0.14495 3.3973-12.393 4.7471-21.607l1.4857-9.8475c0.30802-1.9296 2.0837-1.3589 1.984-0.37143-2.1924 22.078-7.1116 35.839-7.5646 35.929-0.2446 0.0453-3.8049-3.4697-7.0844-8.8872-1.2864-2.1199 0.99653-3.5422 1.839-1.7394 3.3248 5.5987 4.4844 6.559 4.5931 6.5227" fill="#e85377"/>
 <g fill="#0f141b">
  <path d="m86.219 41.284c-0.41673 0.85158-0.69757 2.3373-0.34426 3.3791 0.44391 1.2955 1.531 2.5185 2.745 3.1074 1.3045 0.64321 3.1798 0.21742 4.5569-0.25366 0.98747-0.3352 1.7122-0.93311 2.0927-1.7122 0.96935-1.9659-0.42579-5.2273-2.7087-6.3506-2.2558-1.1052-5.336-0.21742-6.3416 1.83"/>
  <path d="m89.119 46.51c-1.0237-0.49826-1.8572-1.4586-2.2286-2.5547-0.2899-0.83346-0.26272-1.6579 0.05436-2.3101 0.80628-1.6397 3.4063-2.3645 5.2544-1.4586 1.8934 0.92406 3.1164 3.6781 2.3464 5.2635-0.36237 0.73381-1.0871 1.1143-1.6307 1.2955-1.1868 0.40767-2.6725 0.31708-3.7959-0.23554"/>
  <path d="m142.42 9.7328c-29.597 2.0565-52.354 19.867-54.827 29.597-0.58886 2.3373 0.0453 5.1276 2.0293 6.7039 1.7847 1.4133 4.2579 1.4676 6.26 0.43485 11.958-6.1694 32.931-11.487 46.955-10.781 1.3227 0.06341 2.3011-1.4223 3.2523-3.0802 2.6725-4.6565 3.2342-16.008 0.10871-20.791-0.98747-1.522-2.292-2.1833-3.7778-2.0837"/>
 </g>
 <path d="m90.435 45.237c-1.7122-1.3589-2.5547-3.7053-2.0474-5.7074 2.4098-9.5123 25.221-25.928 54.121-28.99 1.1777-0.12683 2.1924 0.45297 3.0168 1.7122 2.6997 4.1492 2.6182 15.147-0.13589 19.958-0.80628 1.3861-1.7213 2.0655-2.7269 2.0202-14.694-0.73381-35.259 5.3903-47.145 11.524-1.7122 0.87876-3.5603 0.68851-5.0823-0.51638" fill="#009f50"/>
 <path d="m145.52 12.255c-0.8244-1.2593-1.8391-1.8391-3.0077-1.7122-8.5973 0.90594-16.651 2.9986-23.79 5.7436 12.701-3.9499 27.115-3.5513 26.798-4.0314" fill="#008c46"/>
 <path d="m134.81 31.66c-9.8566 1.223-28.12 5.8976-43.077 14.323 1.214 0.48015 2.5366 0.40767 3.7778-0.23554 11.895-6.1332 32.46-12.257 47.145-11.524 1.0146 0.05436 4.2851-1.6126 2.7269-2.0202-2.3464-0.60698-6.0335-0.98747-10.572-0.54356" fill="#008c46"/>
 <path d="m115.91 27.082c-3.2523 1.6126-4.2941 4.9736-3.1527 8.5702-0.67039 0.25366-1.8391 0.67945-2.292 0.81534-2.8175-3.0892-8.5067-3.9952-12.375-1.8753-3.6147 1.9749-3.9136 5.7708-3.0077 9.0684-2.3917 1.1505-4.5931 2.5547-4.5931 2.5547 1.7213 1.3589 2.8628 1.1596 4.9102 0l4.0133-2.1018c-1.5401-2.5819-1.1777-4.5569 0.67945-5.7889 2.5819-1.7213 7.5102-1.2955 9.8113 1.8119l0.12683 0.16307 8.2621-2.4823c-1.7485-1.1415-3.2885-4.6565-1.6035-6.5499 4.1764-4.7018 13.861 2.1018 13.87 4.0586 0 0 5.5624-0.18119 7.8273-0.15401 1.7938 0.02718 0.51638-4.4572 0.51638-4.4572-2.3826-0.10871-4.276-0.29896-6.9032 0.02718-2.8718-4.0677-11.17-6.106-16.089-3.66" fill="#0f141b"/>
 <path d="m113.66 36.177c-1.2955-3.7506-0.46203-6.8036 2.5547-8.3074 4.6384-2.3101 12.919-0.20837 15.51 3.66 0 0 2.0837-0.30802 7.329-0.28084 0 0 1.1777 3.1798-0.63416 3.1617-2.2105-0.02718-4.7471 0.09965-7.3743 0.40767-0.38049-1.4314-3.0258-3.7234-6.1604-4.9464-3.4335-1.3317-6.9848-1.1324-9.0503 1.1324-1.8481 2.0293 0.17213 5.7708 1.3408 6.6858-0.54356 0.14495-6.5318 1.9115-6.867 2.0021-2.5457-3.198-7.9904-3.8412-10.735-2.0112-0.68851 0.45297-1.8662 1.531-1.8028 3.4426 0.03624 0.8244 0.39861 1.8934 1.0418 3.053-2.3645 1.0962-3.2976 1.5763-3.2976 1.5763-1.2864 0.57074-2.899 0.83346-3.6962 0.43485 0.56168-0.3352 3.9408-2.1652 3.9408-2.1652-0.2899-0.96029-1.6035-6.3959 2.7178-8.5973 3.7596-1.9206 9.2315-1.1596 11.822 1.8572z" fill="#ffec60"/>
 <g fill="#ddcc54">
  <path d="m95.756 44.025s-3.3791 1.83-3.9408 2.1561c0.79722 0.40767 2.4098 0.14495 3.6962-0.43485 0 0 0.93312-0.47109 3.2976-1.5673-0.28084-0.50732-0.49826-0.99653-0.67039-1.4495-0.80628 0.39861-1.6126 0.80628-2.4007 1.223 0 0.01812 0.0091 0.05436 0.01812 0.07248"/>
  <path d="m110.31 39.691c0.3352-0.09059 6.3234-1.8572 6.867-1.9931-0.41673-0.32614-0.93312-1.0146-1.3589-1.8572-2.3826 0.71569-4.7652 1.5129-7.1207 2.3826 0.60698 0.40767 1.1596 0.89688 1.6126 1.4676"/>
  <path d="m139.6 31.726c-3.1345 0.0453-6.559 0.37143-10.128 0.95123 0.84252 0.77005 1.4133 1.531 1.5763 2.1471 2.6182-0.30802 5.1548-0.44391 7.3653-0.41673 0.74287 0.0091 1.3498-0.3352 1.8572-0.85158z"/>
 </g>
 <path d="m161.92 1.8911c-3.3791 1.7032-6.2328 6.8851-6.3597 7.1025l-0.25366 0.47109 34.507 7.9269-0.17213-0.64322c-0.23554-0.90594 0.0634-2.292 0.36237-3.6419 0.40768-1.8481 0.82441-3.7596 0.0544-5.0189-1.3227-2.1652-24.506-8.0266-28.138-6.1966" fill="#009f50"/>
 <path d="m162.29 2.6158c3.2432-1.6307 26.037 4.1764 27.078 5.8886 0.22649 0.37143 0.31708 0.85158 0.31708 1.3951 0 0.89688-0.23554 1.9749-0.47108 3.0349-0.23555 1.0871-0.46203 2.129-0.46203 3.0349 0 0.12683 0.0272 0.23554 0.0362 0.35332-1.06-0.2446-31.21-7.175-32.233-7.4106 0.75193-1.2683 3.1164-4.9826 5.7346-6.2963" fill="#008c46"/>
 <path d="m155.46 7.2326-1.1234 1.5673c-0.48015 0.65227-0.37143 1.377 0.2899 1.8843 1.0328 0.80628 3.1164 0.87876 3.9771-0.18119l1.1505-1.7485c1.1505-1.8753 3.1436-4.7562 4.8377-5.1185 2.5638-0.56168 21.543 4.0133 22.866 5.49 0.81534 0.90594 0.58886 2.8899 0.37143 4.8105-0.16307 1.3951-0.32613 2.8356-0.0906 3.9318 0.1993 0.92406 2.2558 1.9568 3.3067 1.8481 0.58885-0.06342 0.93311-0.44391 0.93311-1.0056l0.23554-1.9296c0.28084-4.6293 0.74287-8.8057-1.1958-10.11-6.8579-4.6293-26.897-6.8579-28.736-6.6586-1.839 0.19025-3.9952 3.2251-6.8217 7.2203" fill="#0f141b"/>
 <path d="m155.12 10.044c-0.38955-0.29896-0.28084-0.55262-0.12683-0.77005l1.1234-1.5763c1.7666-2.5004 4.5569-6.2057 6.0607-6.6224 0.82441-0.22648 19.777 1.2411 28.347 6.5409 0.71569 0.44391 0.90593 2.5094 0.90593 4.7018 0 1.5854-0.0996 3.2342-0.16306 4.3757l-0.0997 2.0112c0 0.11777-9e-3 0.18119-0.20836 0.19931-0.83346 0.09059-2.3554-0.87876-2.4279-1.214-0.20837-0.96029-0.0544-2.3373 0.0996-3.669 0.2446-2.0927 0.48921-4.2579-0.57074-5.4356-1.7302-1.9296-21.38-6.26-23.908-5.7074-2.0293 0.44391-3.7959 3.3338-5.0914 5.4537l-1.0871 1.6579c-0.56168 0.68851-2.129 0.60698-2.8537 0.054356" fill="#c94768"/>
 <path d="m142.26 36.285c-0.16307 0.09965-3.9771 2.437-4.3576 4.9374-0.11777 0.78816 0.0996 1.5039 0.66133 2.129 2.7269 3.0711 26.625 6.2872 28.673 4.7652l1.7756-1.223c3.1074-2.0655 5.2997-3.6056 5.3088-4.6837 0-0.27178-0.13589-0.50732-0.37144-0.67039-7.0301-4.7471-30.476-5.2907-31.472-5.3088l-0.11777-0.0091z" fill="#009f50"/>
 <path d="m139.17 42.81c-0.32614-0.36238-0.48015-0.75193-0.48015-1.1868 0-0.09059 9e-3 -0.18119 0.0181-0.28084 0.29896-1.9659 3.3973-3.9952 3.8774-4.3032 1.3408 0.03624 24.243 0.67039 30.911 5.1729 0 0 9e-3 0.0091 0.0181 0.0091v0.0091c0 0.69757-3.4607 3.0077-4.9464 3.9952l-1.8209 1.2411c-1.6125 1.2139-25.14-1.9116-27.577-4.6566" fill="#009f50"/>
 <path d="m140.35 35.872c-1.5763 1.7847-5.2544 5.49-4.8558 7.7639 0.12683 0.72475 0.2899 1.0509 0.96029 1.4133 1.5039 0.8244 26.363 6.8126 31.019 5.7074 2.3373-0.56168 8.6608-6.3687 9.4942-8.4705 0.21743-0.55262-0.49826-1.2955-1.0599-1.5944-0.96935-0.50732-3.1345-0.39861-3.6509 0.36237-1.6398 2.4279-4.2036 5.0189-6.2328 5.3541-3.8049 0.61604-22.648-2.8899-24.723-4.2851-0.26272-0.18119-0.30802-0.34426-0.31708-0.44391-0.0906-0.6251 0.79722-1.6397 1.5763-2.5457 0.99653-1.1505 1.9387-2.2377 1.6397-3.1889-0.31708-0.99653-0.8697-1.3045-1.2864-1.3951-0.76099-0.16307-1.6669 0.30802-2.5638 1.3227" fill="#0f141b"/>
 <path d="m138.18 44.203c-0.45297-0.2446-0.70663-0.59792-0.78816-1.069-0.25366-1.4223 1.0509-3.8683 3.5603-6.722 0.67039-0.76099 1.3408-1.1596 1.7938-1.069 0.36237 0.08154 0.57074 0.50732 0.67945 0.85158 0.16307 0.51638-0.75193 1.5673-1.4857 2.4098-0.97841 1.1324-1.8934 2.1924-1.7666 3.1798 0.0544 0.39861 0.28084 0.74287 0.67039 1.0056 2.2105 1.4857 21.262 5.0732 25.312 4.4119 2.4279-0.38955 5.1638-3.3067 6.7673-5.6893 0.19025-0.28084 1.839-0.50732 2.6091-0.09965 0.25366 0.13589 0.21742 0.22648 0.17212 0.3352-0.79722 2.0293-6.6405 7.3653-8.552 7.8182-4.276 1.0146-27.368-4.4844-28.972-5.3631" fill="#e85377"/>
 <g fill="#0f141b">
  <path d="m132.22 23.295c0 7.6733 6.0426 13.906 13.462 13.906 7.4287 0 13.471-6.2328 13.471-13.906 0-7.6552-6.2691-14.133-13.689-14.133-7.3018 0-13.245 6.3416-13.245 14.133"/>
  <path d="m133.03 23.295c0-7.3471 5.5806-13.317 12.429-13.317 6.9848 0 12.882 6.097 12.882 13.317s-5.6802 13.1-12.656 13.1c-6.9757 0-12.656-5.8795-12.656-13.1"/>
  <path d="m149.99 8.0272-2.0927 0.027178c-9.4761-0.11777-14.042 8.0085-14.278 15.618-0.19931 6.2781 2.6 13.535 9.4852 13.87 9.3402 0.46203 21.77 3.3429 29.343 5.182 2.5366 0.61604 5.0732 1.1505 6.106 1.3227 8.8963 1.522 14.577-5.6349 16.252-12.728 1.6579-6.9938-0.3805-15.392-8.4977-18.155-18.508-6.2963-30.485-5.2816-36.319-5.1367"/>
 </g>
 <path d="m150.01 8.8389c5.7889-0.13589 17.847-0.43485 36.065 5.1004 7.7005 2.3464 9.5123 10.554 7.9451 17.195-1.5944 6.7402-7.1297 13.344-15.51 11.904-0.99653-0.17213-2.9896-0.65227-5.5172-1.2593-7.6008-1.839-20.311-4.9192-29.724-5.3813-6.3416-0.31708-9.0231-6.8036-8.8419-12.701 0.22648-7.2203 4.5297-14.939 13.462-14.83z" fill="#009f50"/>
 <path d="m171.91 36.844c-2.9443 0.16307-8.8238-2.9443-20.909-4.4119-8.6789-1.0509-14.595-0.67039-15.301-1.685 1.3589 3.1074 3.8231 5.4628 7.5736 5.644 9.4127 0.46203 22.123 3.5422 29.724 5.3813 2.5276 0.61604 4.5206 1.0962 5.5172 1.2683 2.1833 0.37143 4.1673 0.19931 5.9429-0.38049-4.113-1.8119-8.2893-4.3938-12.547-5.8161" fill="#008c46"/>
 <path d="m189.06 20.112c1.8209 0.36237 3.3338 3.0892 5.1548 3.2161-0.83346-4.2035-3.352-7.9269-8.1353-9.3855-18.218-5.5353-30.276-5.2454-36.065-5.1004l-2.1199 0.027178c-4.0948-0.054356-7.2203 1.5492-9.4217 3.9861 10.609 1.4404 21.181 2.3192 31.626 4.3666 6.9032-6.097 12.901-2.5638 18.961 2.8899" fill="#008c46"/>
 <path d="m139.49 4.5483c-1.83 1.4676 0.23554 5.0642 1.8934 7.9541l0.8697 1.5492 0.20836 0.03624c0.18119 0.02718 18.517 2.3826 26.299 4.5025l0.51639 0.13589v-0.52544c0-1.7485-2.1108-4.8739-6.4322-9.5576-2.6725-2.899-22.159-5.0551-23.355-4.0948" fill="#0f141b"/>
 <path d="m142.09 12.1c-1.0418-1.8209-2.5004-4.3576-2.5004-5.8886 0-0.44391 0.12683-0.79722 0.40767-1.0328 1.2683-0.61604 19.813 1.368 22.25 4.0133 4.4028 4.7743 5.8161 7.2113 6.1332 8.4614-7.6823-1.984-23.491-3.8049-25.357-4.0495-0.15401-0.27178-0.93311-1.5039-0.93311-1.5039" fill="#008c46"/>
 <path d="m137.92 3.9124c-0.37143 0.090594-1.1505 0.43485-0.85158 2.129 0.29896 1.7032 3.1164 7.5917 3.1164 7.5917 0.52544 1.3045 5.2725 2.1924 4.5569 0.44391-0.22648-0.56168-3.814-7.1025-3.2976-7.1931 1.2049-0.21742 16.651 1.2774 18.798 2.6635 2.0474 1.3227 5.2363 6.4231 6.4865 8.7876 0.37143 0.69757 3.1074 1.8481 4.6112 0.70663 0.58885-0.45297 0.38955-0.97841 0.15401-1.522-1.6216-3.6509-6.6768-10.5-9.3764-11.442-1.5673-0.54356-18.128-3.5966-24.198-2.1652" fill="#0f141b"/>
 <path d="m138.3 4.9522c4.0586-1.5401 20.9 1.1234 23.745 2.138 2.2377 0.80628 8.2259 9.458 8.706 10.763 0.4892 1.2955-2.6816 0.99653-3.198 0.03624-0.52544-0.96029-5.8976-8.3074-6.867-9.0231-0.96935-0.72475-17.367-3.4607-19.949-2.3464-1.0056 0.42579 2.138 5.4628 3.1889 7.6914 0.22648 0.48015-1.9659 0.52544-2.9896-0.88782-1.0146-1.4133 9e-3 0.0091 9e-3 0.0091s-3.814-7.936-2.6453-8.3799" fill="#e85377"/>
 <g fill="#0f141b">
  <path d="m177.14 15.554c-3.6509 1.9115-6.3144 5.345-7.7095 9.9291-2.3101 7.5917 1.8934 15.981 9.1771 18.327 2.9805 0.95123 6.106 0.66133 9.0412-0.84252 3.6238-1.8572 6.4865-5.3722 7.8545-9.6392 1.3498-4.1854 1.0237-8.7332-0.88782-12.457-1.5582-3.0349-4.0586-5.2363-7.0482-6.1966-3.4969-1.1234-7.2022-0.80628-10.427 0.87876"/>
  <path d="m178.86 43.034c-6.8761-2.2105-10.835-10.137-8.6517-17.322 1.3317-4.3666 3.8593-7.637 7.3109-9.4399 3.0349-1.5854 6.5137-1.8753 9.8022-0.8244 2.7812 0.89688 5.1185 2.9534 6.5771 5.7889 1.8209 3.5422 2.129 7.8545 0.84252 11.85-1.3046 4.0586-4.0224 7.3924-7.4558 9.159-2.7359 1.4042-5.653 1.676-8.4252 0.78816"/>
  <path d="m172.01 25.527c-2.0746 6.1966-0.5345 14.142 6.3868 16.651l2.1108 0.66133c5.1276 1.4948 13.163 4.8649 28.238 19.568 2.1561 2.1108 6.0426 2.6997 10.618 1.5854 6.5227-1.5944 14.468-6.7583 16.325-13.172 0.96935-3.3248 0.0272-6.4956-2.5819-9.304-15.772-16.986-34.987-23.21-43.114-25.692-9.3764-2.8718-15.79 3.1436-17.983 9.7026"/>
 </g>
 <path d="m209.61 61.775c-14.957-15.655-24.016-18.291-28.881-19.713l-2.0565-0.64322c-6.4412-2.3373-7.8454-9.8022-5.8976-15.636 1.9115-5.7346 7.5102-11.397 16.977-8.5067 8.0628 2.4641 28.365 9.8113 42.769 24.805 2.4732 2.5819 3.2795 5.4447 2.3826 8.5158-1.7122 5.9067-9.3493 11.043-15.736 12.611-4.2217 1.0328-7.7005 0.50732-9.5576-1.4314" fill="#009f50"/>
 <path d="m235.15 46.934c-0.2899-1.7032-1.1687-3.3338-2.6272-4.8558-14.404-14.993-34.706-22.34-42.769-24.805-1.839-0.56168-3.5332-0.79722-5.0823-0.77005 11.016 2.0112 37.479 16.162 50.479 30.43" fill="#008c46"/>
 <path d="m178.67 41.42 2.0565 0.64322c4.8739 1.4133 13.933 4.0586 28.881 19.713 1.6941 1.7666 4.729 2.3373 8.4433 1.6579-2.7631-2.5457-5.8886-5.1004-9.1862-7.5827-2.6997-2.446-12.203-9.1228-21.398-14.051-5.5353-2.9715-11.215-5.1185-14.513-5.8795 1.0237 2.446 2.8809 4.4663 5.7165 5.499" fill="#008c46"/>
 <path d="m177.84 31.26c-2.5729 1.8753-2.3101 4.9555-1.7213 7.4196-0.17213-0.07247-2.9534-0.83346-2.9534-0.83346 1.2683 2.0021 3.0349 3.4335 5.2635 4.2398l2.1199 0.66133 0.54356-0.41673c-1.6307-2.1108-1.9931-7.5646 0.38049-7.1841 6.559 1.0599 6.5952 9.5576 6.568 9.8838l0.17213 0.29896c2.899 1.3589 5.499 3.3248 9.4308 6.3959l0.47108-0.35332c-0.80628-1.984-1.7213-6.5771 1.9206-6.251 1.1596 0.10871 2.1561 0.8244 2.9896 1.9387 1.7303 2.3283 2.3101 6.1332 1.685 10.337l-0.0181 0.16307 0.11777 0.10871c1.0418 0.96029 1.6579 1.6669 2.3736 2.4823l1.9206 2.1199c2.3826 2.5004 7.0482 2.8537 12.475 0.95123l0.49827-0.17213-0.39861-0.34426c-1.7938-1.5492-3.8231-2.6997-5.7889-3.8049-2.3011-1.3045-4.6746-2.6453-6.6586-4.6293-0.15401-0.15401-0.23554-1.1052-0.30802-1.9478-0.22648-2.7722-0.56168-7.8998-4.0405-10.753-2.5094-2.0565-5.2273-2.5638-7.4106-1.6941-1.7394 0.68851-2.9262 2.6363-3.3248 4.8105-0.79722-0.45297-2.3464-1.3498-2.8446-1.9568-0.26272-3.0802-2.7903-12.167-9.2858-12.656-1.8209-0.13589-3.1074 0.40767-4.1764 1.1868" fill="#0f141b"/>
 <path d="m178.03 32.179c0.86064-0.75193 2.0746-1.1324 3.7143-1.0146 6.2238 0.46203 8.9144 9.6301 9.0865 12.076l3.7325 2.4732c0.28084-2.2014 1.4314-4.3032 3.0983-4.9645 1.9659-0.7791 4.4391-0.13589 6.7673 1.7847 3.2886 2.6816 3.66 7.166 3.8774 9.8385 0.11777 1.3589 0.18119 2.0293 0.48921 2.3283 2.0384 2.0474 4.4572 3.4063 6.7855 4.729 1.7666 0.99653 3.5694 2.0565 5.2001 3.3791-4.9283 1.5944-9.1137 1.2683-11.243-0.96029l-1.9025-2.1018c-0.70663-0.79722-1.3317-1.5039-2.3192-2.4188 0.14495-0.98747 0.21742-1.9659 0.21742-2.9171 0-3.198-0.75192-6.0879-2.138-7.9541-1.2683-1.7032-4.5025-3.5694-6.0698-1.3408-1.2864 1.8209-0.41673 4.5659-0.12683 5.499-3.4244-2.6544-5.8886-4.4663-8.543-5.7346 0-0.12683 9e-3 -0.2899 9e-3 -0.51638 0-2.1108-1.2683-9.2406-7.0663-10.047-2.1742-0.29896-2.6 2.6-2.6 3.6237 0 1.2955 0.3805 2.7631 1.1505 4.0495-0.59792-0.19025-1.522-0.47109-1.522-0.47109-1.6488-0.60698-3.0258-1.5763-4.122-2.8809 0.35331 0.16307 2.2286 0.97841 2.2286 0.97841s-1.5401-4.9464 1.2955-7.4377" fill="#ffec60"/>
 <g fill="#ddcc54">
  <path d="m188.67 44.367c0 0.22648-9e-3 0.38955-9e-3 0.51638 2.6544 1.2683 5.1185 3.0711 8.543 5.7346-0.19025-0.60698-0.6251-1.9931-0.54356-3.3882-1.7666-1.0871-5.9248-3.6056-8.2259-4.9374 0.16307 0.86064 0.23554 1.5944 0.23554 2.0746"/>
  <path d="m176.74 39.615s-1.8753-0.81534-2.2286-0.97841c1.0962 1.3045 2.4732 2.2739 4.122 2.8809 0 0 0.92405 0.28084 1.522 0.47109-0.77005-1.2864-1.1505-2.754-1.1505-4.0495v-0.02718c-0.78816-0.30802-1.8572-0.69757-2.6725-0.97841 0.0453 1.4948 0.40767 2.6816 0.40767 2.6816"/>
  <path d="m217.57 60.589c-0.66133-0.39861-1.3227-0.78816-1.984-1.1596-1.7938-1.0146-3.6419-2.0655-5.3269-3.4244-1.5854-0.97841-3.1708-1.9568-4.7652-2.9262 0.0272 0.43485 0.0453 0.87876 0.0453 1.3317 0 0.95123-0.0725 1.9296-0.21743 2.9081 0.99653 0.92406 1.6216 1.6307 2.3192 2.4279l1.9025 2.1018c2.129 2.2286 6.3144 2.5547 11.252 0.96029-0.67039-0.54356-1.368-1.0328-2.0836-1.4948-0.38049-0.2446-0.76099-0.48015-1.1415-0.72475"/>
  <path d="m217.57 60.589c0.38049 0.2446 0.76099 0.48015 1.1415 0.72475-0.38049-0.25366-0.76099-0.48921-1.1415-0.72475"/>
 </g>
 <g fill="#0f141b">
  <path d="m212.53 42.216c-6.8579 6.106-8.4886 15.845-3.6238 21.697 2.0565 2.4823 5.0732 3.9861 8.4977 4.2398 4.4119 0.3352 9.0775-1.377 12.801-4.6928 6.867-6.106 8.4886-15.845 3.6237-21.697-2.0565-2.4823-5.0732-3.9861-8.4977-4.2398-4.4119-0.3352-9.0775 1.377-12.801 4.6928"/>
  <path d="m217.47 67.347c-3.207-0.2446-6.0245-1.6397-7.936-3.9499-4.5931-5.5172-2.9986-14.749 3.5332-20.574 3.5603-3.1708 8.0085-4.8105 12.203-4.4934 3.207 0.2446 6.0245 1.6488 7.936 3.9499 4.584 5.5262 2.9986 14.758-3.5332 20.574h-9e-3c-3.5513 3.1708-7.9994 4.8105-12.194 4.4934"/>
  <path d="m213.59 43.801c-6.3234 5.8161-9.5123 16.407-2.9715 24.587 9.8294 12.275 19.668 30.929 23.174 37.143l1.1958 1.984c4.7199 8.3527 16.37 7.32 24.832 2.9624 7.1569-3.6872 14.187-12.71 9.6845-22.34-6.1694-13.236-21.344-35.585-28.718-42.579-10.572-10.029-21.253-7.2203-27.196-1.7575"/>
 </g>
 <path d="m235.8 106.21-0.46203-0.81534c-3.515-6.2328-14.214-25.194-24.08-37.524-6.2419-7.7911-3.1708-17.91 2.8809-23.473 5.6802-5.2273 15.926-7.8998 26.091 1.7485 7.175 6.8036 22.259 30.738 28.265 43.621 4.2579 9.1228-2.2105 16.461-9.0412 19.985-8.1262 4.1854-19.179 4.3666-23.654-3.5422" fill="#009f50"/>
 <path d="m235.34 105.39 0.46203 0.81534c2.3373 4.1311 6.4684 6.0517 11.034 6.3506-7.9088-10.618-16.515-20.683-25.502-30.512 6.26 9.621 11.687 19.242 14.006 23.346" fill="#008c46"/>
 <path d="m268.5 89.773c-6.0154-12.891-21.09-36.817-28.265-43.63-4.1945-3.968-8.389-5.8523-12.284-6.3234 13.788 12.266 36.346 40.441 29.506 47.29 2.283 6.8126 4.0495 13.743 5.3088 20.592 5.3632-3.9408 9.2858-10.319 5.7346-17.928" fill="#008c46"/>
 <g fill="#0f141b">
  <path d="m250.2 83.611c-4.7109 0.98747-8.9054 3.8412-11.524 7.8454-2.4188 3.7053-3.2886 7.9994-2.4279 12.094 1.8119 8.6698 10.445 13.689 20.085 11.678 9.313-1.9478 15.854-11.424 14.006-20.275-1.8119-8.6336-10.282-13.408-20.139-11.342"/>
  <path d="m237.04 103.38c-0.81534-3.8774 9e-3 -7.9541 2.3192-11.478 2.4913-3.8231 6.5046-6.559 11.007-7.5012 9.3946-1.9659 17.457 2.5457 19.17 10.726 1.7666 8.4252-4.4844 17.448-13.372 19.305-9.1771 1.9206-17.403-2.8265-19.124-11.052"/>
  <path d="m246.34 87.923c-5.3994 3.2251-8.552 8.3527-8.552 13.363 0 1.3227 1.0509 5.6983 1.0509 5.6983 2.292 6.2057 7.7005 23.237 7.7005 38.647 0 1.0146 1.9931 6.6586 4.8286 8.4071 6.106 3.7687 17.385 3.4063 24.623-0.77911 3.2886-1.9115 7.329-6.6586 7.329-12.547 0-21.77-9.15-42.969-15.084-49.555-7.0663-7.8363-16.207-6.6405-21.896-3.2342"/>
 </g>
 <path d="m251.79 153.35c-2.7269-1.685-4.0858-4.0858-3.9136-6.9395 0.93311-15.591-5.6349-33.32-8.1081-39.997l-0.53451-1.4767c-2.292-6.3869 2.0474-13.036 7.5193-16.316 5.6802-3.3973 14.151-4.3757 20.873 3.0802 5.1729 5.7436 13.924 31.083 14.54 50.289 0.17213 5.4809-3.4878 8.7695-6.5862 10.563-7.012 4.0586-17.901 4.43-23.79 0.79722" fill="#009f50"/>
 <path d="m267.63 91.7c-3.361-3.7234-7.1478-5.345-10.817-5.6077 5.0189 10.898 9.7932 47.408 5.6983 53.55-0.0815 5.6349 1.8753 10.862 0.81534 16.189 4.3213-0.15401 8.7604-1.2593 12.248-3.2795 3.1074-1.7938 6.7673-5.0914 6.5862-10.572-0.60698-19.206-9.3583-44.545-14.531-50.279" fill="#008c46"/>
 <path d="m238.47 105.2" fill="#009f50"/>
 <path d="m241.44 100.18c-0.85158 0.30802-1.8028 1.3589-2.3101 2.7631-0.0362-0.0815-0.0906-0.19025-0.0906-0.19025-0.30802-0.66133-0.44391-0.915-0.67039-0.99653l-0.42579-0.13589-9e-3 0.45297c0.0725 1.0871 0.28084 2.129 0.62509 3.0892l1.3589 3.6872 0.20836-1.069c0.21743-1.1143 0.90594-1.4767 1.7666-1.3136 0.62509 0.11777 1.1596 0.58886 1.5854 1.3951 1.3408 2.5638 1.2774 6.9214-0.31708 10.554l-0.0453 0.0996 0.0272 0.10871c1.0509 3.5513 1.9115 7.0301 2.5638 10.328h0.59792c0.31708-1.6307 0.81534-1.9025 1.4133-2.0384 0.42579-0.0906 0.80628 0.0634 1.0871 0.44391 3.2976 4.4572 1.531 13.607-1.522 17.548l-0.0544 0.0725-0.0543 1.3861c-0.11778 1.8209 0.33519 3.4788 1.3317 4.9102l0.35332 0.50732 0.18119-0.58886c1.1052-3.5422 1.984-5.2091 2.9171-6.9848 0.8697-1.6579 1.7756-3.3701 2.8899-6.7311 0.92405-2.7631 0.67039-12.312-2.7631-14.894-1.2502-0.95124-3.1889-0.80629-4.8015 0.19024-0.36238-0.67945-0.70663-2.1018-0.87876-2.8446 0 0-0.0544-0.23554-0.0815-0.35331 1.0056-2.4732 1.8119-5.5443 1.8119-8.3708 0-4.3757-1.2864-8.5339-4.1582-10.482-0.92405-0.63416-1.7756-0.81534-2.5366-0.54356" fill="#0f141b"/>
 <path d="m239.51 103.69c0.45297-1.5401 1.1052-2.5004 1.8662-2.7722 0.57074-0.20836 1.2411-0.0453 1.9931 0.47109 4.3847 2.9715 4.8558 11.995 2.3645 18.064l-0.0453 0.0906 0.12683 0.52545c0.29896 1.2864 0.65227 2.6997 1.0962 3.2976l0.17213 0.23554 0.2446-0.16307c1.4948-1.0237 2.8084-1.1234 3.9136-0.2899 2.3736 1.7938 3.3701 7.3381 3.3701 11.116 0 1.2864-0.11777 2.3736-0.3352 3.0258-1.1052 3.3067-1.9931 5.0008-2.8537 6.6405-0.87876 1.6669-1.7122 3.3067-2.7178 6.3778-0.5798-1.0418-0.94217-2.1652-0.94217-3.4154 0-0.16307 9e-3 -0.32614 0.0181-0.48921 0 0 0.0543-1.214 0.0543-1.223 2.5366-3.3248 3.8865-7.5374 3.8865-11.388 0-2.7631-0.68851-5.345-2.1108-7.2656-0.42579-0.57074-1.0509-0.81534-1.7122-0.67039-0.6251 0.14495-1.368 0.72475-1.839 1.8572-0.6251-2.9534-1.377-6.0154-2.3011-9.159 0.88782-2.0655 1.3498-4.4934 1.3498-6.713 0-1.839-0.30802-3.5332-0.95124-4.738-0.50732-0.96935-1.2049-1.5673-2.0112-1.7213-1.4223-0.27178-2.0565 0.57074-2.3554 1.3498-0.0453-0.12684-0.65227-1.7666-0.65227-1.7666-0.17213-0.48015-0.29896-0.96029-0.39862-1.4676 0.12684 0.23555 0.24461 0.38956 0.38956 0.41673l0.27178 0.0453z" fill="#ffec60"/>
 <g fill="#0f141b">
  <path d="m245.89 151.12c0 8.6879 8.5973 15.745 19.161 15.745 10.563 0 19.151-7.0572 19.151-15.745s-8.5883-15.745-19.151-15.745c-10.563 0-19.161 7.0572-19.161 15.745"/>
  <path d="m246.71 151.12c0-8.235 8.235-14.939 18.345-14.939 10.119 0 18.345 6.7039 18.345 14.939s-8.2259 14.939-18.345 14.939c-10.11 0-18.345-6.7039-18.345-14.939"/>
  <path d="m243.77 152.47c-0.39861 2.2558-7.1207 48.259-7.4559 49.98 0 0 3.8593 9.2496 12.103 11.415 11.551 3.044 29.334 1.1687 31.445-5.1729 1.4495-4.3485 3.2161-20.402 4.5206-35.522 0.57074-6.6586 0.88782-14.241 1.377-18.925 0.99653-9.467-8.1625-15.482-16.914-16.724-10.436-1.4767-23.129 4.0133-25.076 14.948"/>
 </g>
 <path d="m241.84 176.7c1.5944-11.089 3.2523-22.558 3.6509-24.805 1.8572-10.427 13-14.441 23.056-13.018 8.3708 1.1868 16.388 6.3778 15.455 15.31-0.49826 4.6928-1.0418 10.98-1.6126 17.648-1.2955 15.075-2.7722 32.161-4.1854 36.419-1.9568 5.8614-18.59 7.7186-29.588 4.8286-4.4934-1.1777-11.85-4.1582-10.545-10.835 0.33519-1.7484 2.0836-13.852 3.7687-25.547" fill="#009f50"/>
 <path d="m268.55 138.88c-2.7269-0.38955-5.5353-0.37143-8.2168 0.0634-1.9115 1.7213-7.0301 65.862-16.035 72.62 1.4948 0.68851 3.0258 1.1777 4.3304 1.522 10.989 2.8899 27.631 1.0328 29.579-4.8286 1.4223-4.2579 3.3429-20.51 4.6474-35.594 0.57074-6.6586 1.1143-12.946 1.6035-17.639 0.94217-8.9325-7.5374-14.957-15.908-16.144" fill="#008c46"/>
 <path d="m271.62 142.22-0.25366 0.0996v0.28084c0 1.8028-3.9589 45.632-4.5659 48.486l-0.23554 1.0962 1.8934-1.4948c3.7687-2.9534 10.781-8.4614 11.533-13.535 0.80628-5.4537 1.8119-36.083 1.8119-37.361 0-0.18119-0.0906-0.34425-0.23554-0.44391-0.81534-0.56168-5.8614 1.2502-9.9472 2.8718" fill="#0f141b"/>
 <path d="m280.99 140.02c-0.0725 2.3554-1.0146 31.717-1.7938 37.017-0.70663 4.7562-11.034 13.036-11.107 13.091 0.92405-7.0482 4.1854-43.612 4.4028-47.489 3.7143-1.4676 7.483-2.6091 8.4977-2.6182" fill="#009f50"/>
 <path d="m280.7 136.39c-1.5763 0.51638-7.6461 2.6182-9.0865 3.2251-2.6363 1.0962-1.5673 6.414 0.81534 5.0823 0 0 6.5046-2.899 6.9123-2.6544 0 9e-3 -2.0655 35.123-2.6816 36.591-1.9931 3.814-9.2677 8.9506-9.2677 8.9506-1.6035 1.4223-2.3736 2.4188-1.069 4.9102 0.65228 1.2321 2.4098 2.2196 3.7234 1.8572 1.8934-0.50732 10.753-10.618 10.753-10.618 1.5401-1.7666 1.7213-7.0391 1.7213-8.3618 0-0.48921 2.129-34.924 1.7303-36.917-0.12683-0.62509-0.93311-2.9171-3.5513-2.0655" fill="#0f141b"/>
 <path d="m280.89 137.18c1.7575-0.31708 2.2014 1.7213 2.3101 2.292 0.10871 0.79722-1.8119 35.313-1.8119 35.821 0 1.3498-0.72474 6.2328-2.0384 7.7367 0 0-7.8726 9.0865-9.775 9.6029-0.9603 0.26272-3.9227-1.8572-1.8028-3.7234 0 0 8.09-6.0335 10.174-10.02 0.79722-1.531 2.446-36.962 2.446-37.288 0-0.43485-0.22649-0.65228-0.37144-0.74287-0.73381-0.46203-7.5917 2.5638-7.5917 2.5638-1.8572 0.74287-1.7303-2.437-0.49827-3.053 1.4223-0.61604 7.3743-2.7903 8.9597-3.1889" fill="#e85377"/>
 <path d="m243.3 193.39c-8.0266 5.8161-8.8963 16.887-2.0746 26.317 6.4593 8.9235 18.535 11.243 26.924 5.182 4.1492-3.0077 6.8761-7.3834 7.6733-12.339 0.78817-4.9555-0.46203-10.02-3.5241-14.259-3.1527-4.3576-8.1987-7.3743-13.843-8.2712-5.5443-0.88782-10.935 0.30802-15.156 3.3701" fill="#0f141b"/>
 <path d="m241.89 219.23c-6.5499-9.0503-5.7527-19.641 1.8934-25.185 4.0495-2.9352 9.2134-4.0767 14.549-3.2251 5.4356 0.8697 10.282 3.7687 13.308 7.9451 2.9443 4.0676 4.1401 8.9144 3.3791 13.662-0.76099 4.738-3.361 8.9235-7.3381 11.804-8.0266 5.807-19.595 3.5603-25.792-5.0008" fill="#0f141b"/>
 <path d="m260.46 80.485" fill="#e85377"/>
 <path d="m232.37 43.771-0.46203 0.21742 0.31708 0.39861c15.872 20.275 24.497 32.124 25.629 35.232l0.30802 0.86064 0.43484-0.80628c2.2377-4.276 3.6781-8.7513 3.9499-12.294 0.29896-3.7778-14.386-25.783-18.735-26.381-4.2126-0.5798-11.152 2.6363-11.442 2.7722" fill="#0f141b"/>
 <path d="m243.7 41.8c3.8321 0.52544 18.046 21.987 18.046 25.439 0 0.02718 0 0.05436-9e-3 0.08153-0.2446 3.2161-1.2592 6.6496-3.2251 10.59-2.0384-4.0858-10.246-15.537-25.33-33.61 1.5763-0.68851 7.1207-2.9715 10.518-2.5004" fill="#009f50"/>
 <path d="m237.02 40.232c-1.5492 0.54356-3.1527 1.1052-4.4934 1.3589-0.95124 0.17213-1.6126 0.69757-1.8481 1.4676-0.26273 0.85158 0.0181 1.8934 0.71569 2.591 0.5798 0.5798 2.2105 1.0056 2.9262 0.78816 0 0 7.8816-2.7631 8.4886-2.4551 2.7088 1.6307 16.787 20.556 16.823 23.446 0.0543 3.2704-1.8572 8.1081-3.0892 11.116-0.36238 0.88782 0.4439 1.984 1.3861 2.4732 1.0056 0.52544 1.9659 0.32614 2.5276-0.5345 1.4404-2.1924 4.267-8.9507 4.267-12.529 0-0.44391-0.31708-1.8028-0.39861-2.129-1.8844-7.936-17.494-25.158-18.862-26.417-1.676-1.5401-4.9645-0.38955-8.4433 0.8244" fill="#0f141b"/>
 <path d="m231.97 45.076c-0.47109-0.47109-0.68851-1.223-0.51638-1.7756 0.14495-0.48015 0.57074-0.79722 1.223-0.915 1.4042-0.26272 3.0349-0.83346 4.6112-1.3861 3.0983-1.0871 6.3053-2.2105 7.628-0.99653 1.2955 1.1958 16.651 19.242 18.463 26.852 0.59792 2.5457-1.9659 10.699-3.5966 13.181v0.0091c-0.44391 0.66133-1.1143 0.44391-1.4767 0.25366-0.66134-0.34426-1.1596-1.0599-1.0056-1.4495 1.685-4.1492 3.3338-8.4614 3.2886-11.632-0.0544-3.4879-15.093-23.038-17.476-24.469-0.75193-0.45297-2.8718 0.19025-7.3472 1.8028l-2.5638 0.89688c-0.5798 0.17213-1.0237-0.15401-1.2321-0.37143" fill="#e85377"/>
 <path d="m209.96 64.321c-0.0272 0.05436-2.4551 5.5262-3.5966 9.0684-0.8244 2.5729 12.312 22.069 14.051 23.418 2.0474 1.5944 10.989 3.3882 12.656 2.1833 0.35332-0.2446 0.47109-0.61604 0.32614-1.0146-3.0258-8.6789-21.942-32.722-22.748-33.746l-0.41673-0.52544z" fill="#0f141b"/>
 <path d="m220.91 96.168c-2.1652-1.685-13.788-19.94-13.788-22.386 0-0.05436 0-0.10871 0.0181-0.14495 0.91499-2.8265 2.6363-6.867 3.2886-8.3708 2.754 3.5332 18.191 25.457 21.679 32.904 0 0 0.5345 0.11777 0.5345 0.12683 0 0-0.58885 0.03624-0.94217 0.11777-2.2739 0.5345-9.0412-0.88782-10.79-2.2467" fill="#009f50"/>
 <path d="m210.18 60.525c-0.36237-0.02718-0.87876 0.19931-1.2321 0.95123 0 0-5.9611 8.7332-4.5025 13.508 0.71569 2.3283 10.31 18.744 15.935 24.025 2.0927 1.9659 10.808 2.7631 13.372 1.9115 2.5638-0.30802 2.0293-4.8196-0.96935-5.037-5.1095-0.37143-8.697-0.17213-10.5-1.1596-1.7938-0.98747-12.801-19.496-12.801-19.496-1.4948-2.4188 3.0168-10.137 3.0168-10.137 0.59791-1.0146 0.97841-4.3123-2.3192-4.5659" fill="#0f141b"/>
 <path d="m220.94 98.421c-5.5534-5.2091-14.812-21.951-15.51-24.243-0.75193-2.4823 0.96029-5.8342 2.7812-9.3855 0 0 1.8119-3.4969 2.0202-3.4607 1.1234 0.2446 2.0655 2.1924 1.6488 2.899 0 0-5.3088 7.8363-3.3067 11.614l4.3123 7.2022c3.9499 6.6677 6.8036 11.496 8.7966 12.583 2.4823 1.3589 7.4377 1.3227 11.161 1.0599 0.19931-0.01812 0.83346 0.73381 1.06 1.9025 0.0634 0.31708 0.21742 1.3589-0.40767 1.5582-2.292 0.76099-10.708 0-12.556-1.7303" fill="#e85377"/>
 <path d="m233.75 100.92" fill="#e85377"/>
 <path d="m44.592 202.23c-0.76099 5.499 7.483 10.581 25.122 13.199 10.808 1.6035 15.682-6.568 17.856-10.808 3.4426-6.722 4.6475-16.914 1.4042-20.248-5.5443-5.6983-13.227-6.1876-18.581-6.3416-15.872-0.45297-25.33 20.791-25.801 24.198" fill="#0f141b"/>
 <path d="m69.512 212.93c-16.361-2.4279-24.343-5.9701-23.717-10.536 0.26272-1.839 8.5249-22.648 24.361-22.195 5.1276 0.13589 11.678 0.99653 16.932 6.3868 2.5819 2.6635 2.8718 10.699-0.59792 17.485-2.0293 3.9499-6.9214 10.355-16.977 8.8601" fill="#008c46"/>
 <path d="m43.875 184.83c-0.68851 3.8774 1.9115 8.4433 4.5297 9.2949 0 0 15.356 5.5081 21.081 1.5854 4.1492-2.8537 7.6189-12.294 5.3813-15.718-1.7485-2.6725-7.9179-7.012-12.402-7.175-12.085-0.44391-17.611 6.4865-18.59 12.013" fill="#0f141b"/>
 <path d="m49.369 192.24-0.69757-0.22648c-2.0112-0.65228-3.1436-3.6962-2.5729-6.9304 0.88782-5.0279 5.8705-10.246 17.167-9.8294 4.4119 0.16306 9.2134 3.3067 10.581 5.4084 0.3352 0.51639 0.48921 1.214 0.48921 2.0202 0 3.2976-2.5638 8.4433-5.7074 10.599-5.2273 3.5875-15.057 0.34425-19.26-1.0418" fill="#009f50"/>
 <path d="m73.849 180.66c-1.1052-1.6941-4.4481-4.0676-8.0085-5.0098-1.8028 8.697-10.88 11.243-19.885 11.333 0.06341 2.4551 1.1052 4.5025 2.7178 5.0279l0.69757 0.22649c4.1945 1.3861 14.033 4.6293 19.26 1.0509 3.1436-2.1561 5.7074-7.3018 5.7074-10.609 0-0.80629-0.15401-1.5039-0.48921-2.0202" fill="#008c46"/>
 <path d="m44.972 192.33c-4.3847 1.7394-13.109 5.8705-14.921 14.033-0.41673 1.8662-0.30802 6.0607 1.5854 8.389 1.3136 1.6126 4.8558 4.4753 9.9744 3.8502 6.8308-0.83346 13.29-9.1137 14.957-14.504 0.97841-3.1527-0.99653-7.2475-3.9589-9.9925-2.3101-2.138-5.0914-2.7812-7.637-1.7756" fill="#0f141b"/>
 <path d="m33.796 212.61c-1.6216-1.9931-1.8209-4.3847-1.4676-5.9701 1.6941-7.6189 8.9325-11.524 13.091-13.181 2.8628-1.1324 5.2182 0.48014 6.3687 1.5401 2.591 2.4098 3.9771 6.3959 3.1436 9.0865-1.5673 5.0642-10.636 11.496-13.335 11.533-3.4607 0.0453-6.1604-0.99653-7.8001-3.0077" fill="#009f50"/>
 <path d="m51.785 195c-1.1505-1.06-3.4969-2.6725-6.3687-1.5401-1.3951 0.55262-3.1436 1.377-4.9102 2.4913 3.1527 6.568 1.8028 13.381-1.6941 19.423 0.86064 0.17212 1.7847 0.25366 2.7903 0.2446 2.6906-0.0362 11.768-6.4684 13.335-11.542 0.8244-2.6816-0.55262-6.6768-3.1527-9.0775" fill="#008c46"/>
 <path d="m39.93 206.25c-2.7359 0.20837-4.575 3.0258-4.5659 5.3722 0.01812 2.6 1.7575 5.2997 5.0732 5.8252 4.1401 0.65228 11.976-1.6669 13.535-2.3464 2.3464-1.0418 3.8502-1.6035-0.66133-3.4788-1.8662-0.7791-4.9736-2.1471-6.4865-3.0983-2.2105-1.4042-4.276-2.4732-6.8942-2.2739" fill="#0f141b"/>
 <path d="m40.949 216.31c-2.8537-0.22648-4.1492-2.591-4.1582-4.8921-0.01812-1.984 0.97841-4.1945 3.198-4.3666 2.3554-0.17213 4.738 1.3317 6.8489 2.6634 1.5854 1.0056 7.9451 3.5422 6.3778 4.2126-3.3791 1.4495-8.6426 2.6634-12.266 2.3826" fill="#eeeeef"/>
 <path d="m51.287 211.99c-4.8739 1.2955-9.9653 1.6579-14.477-0.11777 0.17213 2.1561 1.4767 4.2217 4.1401 4.4391 3.6237 0.28084 8.8872-0.94218 12.257-2.3826 0.77005-0.32613-0.37143-1.1143-1.9206-1.9387" fill="#c8c9ca"/>
 <path d="m73.505 205.47c2.745-0.18119 4.9645 2.3373 5.2816 4.6656 0.35332 2.5729-0.97841 5.49-4.1945 6.4865-3.9952 1.2411-12.094 0.0543-13.725-0.39862-2.4732-0.68851-4.0405-1.0328 0.16307-3.5332 1.7303-1.0328 4.6112-2.8356 5.9701-3.9861 1.9931-1.7032 3.8865-3.053 6.5046-3.2342" fill="#0f141b"/>
 <path d="m73.932 215.58c2.7903-0.63416 3.7325-3.1527 3.4244-5.4356-0.27178-1.9659-1.5763-4.0133-3.7959-3.8593-2.3554 0.15401-4.5025 1.9931-6.3959 3.6056-1.4314 1.223-7.3562 4.6384-5.7074 5.0823 3.5422 0.95124 8.9235 1.4042 12.475 0.60698" fill="#eeeeef"/>
 <path d="m43.634 185.4c-4.0405 4.6022-6.0245 10.473-6.5771 13.535-0.55262 3.0258-0.09965 4.7833 0.84252 5.3541 0.72475 0.42579 2.2377-0.60698 3.9499-1.9749 0 0 7.8001-6.6768 11.505-8.8419 1.4586-0.85158 2.6182-2.1742 2.4913-3.7506-0.17213-2.1652-2.2558-4.729-4.6022-5.6349-1.4495-0.56168-5.3178-1.2955-7.6099 1.3136" fill="#0f141b"/>
 <path d="m50.863 185.24c2.0293 0.78816 3.6147 2.6906 3.7596 4.5387 0.06342 0.87876-0.16307 2.1199-1.676 2.9986-3.7596 2.1924-11.741 8.6245-11.741 8.6245-1.8934 1.5129-3.0168 1.3861-2.4913-3.198 0.34426-2.9805 2.6453-8.4705 5.8614-11.478 2.6363-2.4732 5.0189-1.984 6.2872-1.4857" fill="#eeeeef"/>
 <path d="m54.621 189.77c-0.08153-1.06-0.65227-2.138-1.5039-3.0077-4.8196 4.1039-9.0231 9.0775-12.031 14.721 0.03624-0.0272 0.08154-0.0544 0.11777-0.0906 0 0 7.9904-6.4322 11.741-8.6245 1.5129-0.87876 1.7485-2.1199 1.676-2.9986" fill="#c8c9ca"/>
 <path d="m213.51 117.77-18.997 19.441 23.627 55.28 0.94218-0.17213c0.2446-0.49826 7.2022-15.075 7.2022-15.075 1.9296-4.7924 2.9081-8.8782 1.5763-13.77 0 0-10.654-41.22-13.109-46.012l-0.85158-0.0906z" fill="#0f141b"/>
 <path d="m213.68 118.75c2.4732 5.191 13.064 44.463 13.064 44.463 0.32614 1.1777 0.45297 2.3645 0.45297 3.5241 0 3.0802-0.96029 6.0788-1.9387 8.8238l-0.0362 0.0906c-1.0962 3.0892-5.6621 12.221-7.021 14.921-0.66133-1.5492-22.522-52.698-22.73-53.188 0.36238-0.37144 17.439-17.847 18.209-18.635" fill="#c94768"/>
 <path d="m196.48 137.63 21.027 49.047c0.0362-0.0906 4.2851-9.5758 5.6349-12.457 2.0202-4.2941 1.3589-7.8816 0.66134-10.219-7.3653-24.596-12.13-39.571-12.194-39.725z" fill="#0f141b"/>
 <path d="m210.37 125.74c1.1415 2.7903 6.1604 17.62 12.438 39.426 0.17213 0.58885 0.6251 4.883-0.83346 8.235-1.0599 2.437-3.5513 8.1625-5.1004 10.98-0.69757-1.676-19.215-46.049-19.432-46.547 0.38955-0.36238 12.14-11.351 12.928-12.094" fill="#008c46"/>
 <path d="m191.35 195.79c-7.166 4.2398-8.3165 9.8566-7.012 16.887 1.4404 7.8273 10.436 22.513 29.407 30.548 19.115 8.0991 43.748 0.87876 57.464-17.765 2.9352-3.9952 3.8955-10.917 2.3917-17.249-1.1052-4.6656-4.0042-11.034-11.505-14.848-12.565-6.405-22.522 4.3123-23.5 6.0698-0.42579 0.76099-1.8934 2.2739-4.3847 2.5004-2.8084 0.25366-7.5193-1.0781-13.979-8.9054-3.207-3.8865-18.97-3.0983-28.881 2.7631" fill="#0f141b"/>
 <path d="m213.74 240.8c-18.744-7.7729-26.281-22.467-28.646-28.428-3.1798-7.9904 1.8753-13.045 6.6768-15.89 9.4308-5.5806 24.877-6.5318 27.839-2.9443 6.6858 8.0991 11.668 9.467 14.676 9.1952 2.8356-0.26272 4.5206-2.0202 5.0189-2.9171 0.88782-1.5854 10.599-11.759 22.431-5.7346 7.2203 3.6781 10.011 9.8113 11.08 14.314 1.4223 6.0154 0.49827 12.828-2.2558 16.579-13.489 18.327-35.794 24.551-56.82 15.827" fill="#009f50"/>
 <path d="m272.81 208.39c-1.069-4.5025-3.8593-10.636-11.08-14.314-3.4154-1.7394-6.6496-2.1199-9.5576-1.7575-1.5129 5.4266-4.3122 10.871-10.255 12.647-2.2105 0.55262-3.9589-1.1415-5.2635-2.8809-0.67945 0.31708-1.4586 0.56168-2.3736 0.64322-2.9986 0.28084-7.9904-1.0962-14.667-9.1862-2.6816-3.2432-15.546-2.7812-24.959 1.4495 6.8761 24.759 10.391 39.109 21.38 46.692 20.338 7.3653 41.519 0.95123 54.519-16.715 2.754-3.7415 3.6872-10.563 2.2558-16.579" fill="#008c46"/>
 <path d="m203.13 191.48c-1.3589 0.27178-2.6634 0.59792-3.8774 0.96029l-0.44391 0.12683 0.18119 0.42579c2.899 6.4865 8.3527 16.198 11.134 18.997-2.5366 6.26-1.4767 15.437 5.6168 20.13 5.3994 3.5784 12.239 1.7938 18.78-4.883 2.0836 0.66134 9.1862 0.31708 11.179-0.19024 1.4948 3.8683 7.175 6.1694 12.266 4.8649 2.4098-0.62509 9.1137-3.3973 9.1137-14.875 0-2.3373-0.28084-5.0551-0.93311-8.1806 1.3408-2.0021 2.3826-7.791 2.4913-10.273l9e-3 -0.16307-0.10871-0.12683c-1.0237-1.1505-2.2467-2.2286-3.6238-3.207l-0.54356-0.38956-0.0906 0.66134c-0.39862 3.0439-1.8028 8.1172-2.437 8.8782-0.20837-0.16307-0.77911-0.55262-0.77911-0.55262-2.2467-1.6579-7.329-4.0676-11.478-1.3046-4.1945 2.5185-5.49 5.3541-5.49 9.5758 0 3.1255 0.61603 6.2057 1.069 8.4524 0 0 0.27178 1.4404 0.32614 1.7122-1.069 0.58886-9.0594 0.28084-10.083-0.38955 9e-3 -0.16307 9e-3 -0.32614 9e-3 -0.4892 0-8.3799-3.4244-14.649-9.2315-16.841-4.3485-1.6397-9.1318-0.78816-12.176 2.6906-1.4404-0.13589-8.6245-10.935-10.427-15.365l-0.12683-0.30802z" fill="#0f141b"/>
 <path d="m214.06 208.52c2.8084-3.3248 7.7548-4.9011 11.832-3.361 5.6168 2.1199 8.8691 8.3618 8.706 16.696-9e-3 0.16307 0.0634 0.39861 0.40768 0.58886 1.4767 0.77911 9.7932 1.1868 11.043 0.30802 0.2899-0.20837 0.2899-0.48015 0.27178-0.58886l-0.36237-1.9206c-1.0237-5.0914-2.6091-13.236 4.2126-17.331 3.6872-2.4551 8.2984-0.14495 10.409 1.4223 0.7338 0.54357 1.0056 0.73381 1.2321 0.77005l0.44391-0.11777c0.92405-0.68851 2.2558-6.0517 2.7088-8.8238 1.0599 0.79722 2.0293 1.6488 2.8446 2.5547-0.15401 2.8718-1.2683 8.2893-2.4188 9.8294l-0.10871 0.14495 0.0362 0.18119c0.66134 3.1345 0.95124 5.8252 0.95124 8.1444 0 10.917-6.26 13.526-8.5068 14.105-4.8649 1.2502-10.328-0.98747-11.46-4.6928l-0.14495-0.48015-0.44391 0.24461c-0.72475 0.39861-9.4217 1.0237-11.143 0.22648l-0.26272-0.12683-0.19931 0.20836c-6.2963 6.5137-12.828 8.3165-17.928 4.9374-3.9136-2.5819-6.1875-7.7729-6.1875-13.045 0-2.2558 0.41673-4.5297 1.3045-6.6133l0.10872-0.25366-0.20837-0.19931c-2.591-2.4732-8.2803-11.705-11.261-18.227 0.96936-0.27179 1.9749-0.52545 3.0349-0.75193 1.6488 3.7778 8.7423 15.247 11.089 16.171" fill="#ddcc54"/>
 <path d="m235.41 221.87v9e-3z" fill="#009f50"/>
 <path d="m217.36 208.81c-4.3304 3.8593-6.2691 12.919-2.3554 17.983 1.1415 1.4857 2.9534 2.0837 5.0914 1.6941 4.1039-0.75193 8.3618-4.7471 9.6845-9.0956 0.7791-2.5547 0.93311-6.3597-2.754-9.9472-3.1527-3.0711-6.6768-3.2976-9.6663-0.63416" fill="#0f141b"/>
 <path d="m215.92 226.24c-3.66-4.7471-1.8844-12.928 2.1924-16.561 2.6725-2.3826 5.499-2.4279 8.3437 0.34425 3.3973 3.3067 3.2523 6.7855 2.5457 9.1228-1.223 4.0224-5.2816 7.8454-9.0503 8.5339-1.2955 0.23554-2.8175 0.12683-4.0314-1.4404" fill="#008c46"/>
 <path d="m253.18 205.27c-1.1505 0.18119-2.129 0.98747-2.8899 2.4098-2.1924 4.0586-2.0384 11.931-0.7791 14.712 1.0418 2.3011 3.7325 4.8558 6.6677 5.0551 1.5582 0.10871 3.8321-0.41673 5.807-3.5603 3.0892-4.9102 1.7666-10.328-0.49826-13.752-2.2377-3.3973-5.499-5.3088-8.3074-4.8649" fill="#009f50"/>
 <path d="m256.23 226.64c-2.5276-0.17213-5.028-2.4642-5.9792-4.584-1.1687-2.5819-1.3046-10.192 0.74287-13.997 0.64321-1.1777 1.4133-1.8481 2.3101-1.9931 2.4551-0.38955 5.4628 1.4223 7.5012 4.5116 2.1199 3.2161 3.3701 8.2893 0.4892 12.873-1.4133 2.2467-3.1164 3.3248-5.0642 3.1889" fill="#009f50"/>
 <path d="m127.05 94.65c-0.96029 1.0962-0.55262 4.2035 0.52544 6.9485 1.9568 5.0098 14.731 22.875 15.247 23.672l0.27178 0.43485 14.468-13.997-0.67945-0.6704c-3.515-2.899-16.986-13.897-22.087-16.117-3.1889-1.3861-6.414-1.7847-7.7458-0.27178" fill="#0f141b"/>
 <path d="m129.1 100.41c-0.50732-1.3045-0.77005-2.4098-0.77005-3.2704 0-0.70663 0.18119-1.2502 0.5345-1.5944 0.74287-0.71569 2.3373-0.58886 4.5025 0.35332 4.8921 2.129 18.164 12.42 22.096 15.636-0.56168 0.58886-11.587 12.167-12.239 12.864-1.7847-2.7994-12.348-19.45-14.124-23.989" fill="#e85377"/>
 <path d="m135.31 103.56c2.0837 3.6781 9.612 14.857 10.844 16.089 0.18119 0.18119 0.42579 0.26272 0.69757 0.23554 1.5582-0.17213 4.5931-4.8468 5.182-5.7799l0.19931-0.30802-0.86064-1.4586c-6.26-4.9645-12.022-9.5395-14.368-10.455 0 0-3.7778-2.0021-1.6941 1.676" fill="#0f141b"/>
 <path d="m136.73 103.47c2.8628 1.3589 9.6029 6.6949 13.435 9.7298 0 0 0.63416 0.50732 0.97841 0.7791-1.8391 2.8537-3.9046 5.2454-4.4119 5.0914-1.0237-1.0146-8.0447-11.741-10.002-15.6" fill="#009f50"/>
 <g fill="#0f141b">
  <path d="m140.71 121.89c-6.1604 12.602-2.9715 33.438 11.605 44.373 7.9269 5.952 12.891 14.794 25.04 38.575 5.3813 10.545 17.512 12.475 26.779 9.1047 9.5939-3.4878 17.666-13.1 14.866-25.348-0.74287-3.2614-15.401-41.537-19.287-48.223-3.7143-6.405-13.598-23.418-33.483-28.845-11.469-3.1255-20.773 0.65227-25.52 10.364"/>
  <path d="m178.08 204.47c-11.433-22.368-16.841-32.532-25.267-38.847-14.259-10.699-17.394-31.065-11.37-43.376 4.5659-9.3221 13.517-12.946 24.578-9.9291 19.568 5.336 29.325 22.132 32.994 28.455 3.8683 6.6586 18.463 44.753 19.206 48.006 2.6906 11.768-5.4537 20.429-14.721 23.799-8.9325 3.2432-20.257 1.9931-25.421-8.1081"/>
  <path d="m158.9 109.33c-1.6669 0.51638-3.2704 1.3951-3.1527 1.7032 0.19025 0.50732 3.0621 0.26272 3.0621 0.26272 1.5129 0.12683 10.246 0.63416 15.401 7.4377 4.3123 5.7074 5.5081 13.834 3.5422 24.17l-0.12683 0.63415 2.5638-0.67945c7.3018-1.9478 14.205-3.7959 18.291-1.069 0.37144 0.2446 1.4948 0.99653 2.138 0.35331 1.522-1.5129-3.1345-10.011-4.1945-11.632-6.0698-9.2224-19.197-26.924-37.524-21.181"/>
 </g>
 <path d="m195.75 130.96c2.0112 3.053 5.0461 9.8747 4.3032 10.609-0.0362 0.0362-0.3352 0.0725-1.1143-0.45296-4.3847-2.9262-11.46-1.0328-18.952 0.96029 0 0-0.77005 0.20836-1.3408 0.36237 0.54357-3.0349 0.84252-5.8976 0.84252-8.552 0-6.3325-1.5492-11.569-4.6203-15.636-4.1673-5.49-9.9472-7.3381-13.082-7.9541 12.484-2.5728 28.301 12.058 33.964 20.664" fill="#009f50"/>
 <path d="m195.75 130.96c-2.4279-3.6872-6.713-8.4796-11.804-12.547-3.4697-2.0021-9.8838-5.3541-7.5918-1.8481 2.292 3.515 5.644 9.005 2.4823 10.663 0.43485 2.0655 0.65227 4.2851 0.65227 6.6586 0 2.6544-0.29895 5.5172-0.84252 8.552 0.57074-0.15401 1.3408-0.36237 1.3408-0.36237 7.4921-1.9931 14.567-3.8865 18.952-0.96029 0.7791 0.52544 1.0781 0.4892 1.1143 0.45296 0.74286-0.7338-2.292-7.5555-4.3032-10.609" fill="#008c46"/>
 <path d="m161.87 162.35c-2.0021 4.3304-2.3192 8.7423-1.2774 9.7841 1.9568 1.9568 13.263 7.8092 14.577 7.5464 0.86064-0.17213 2.8537-2.5819 6.4684-7.2837l1.5854-2.0293-0.11777-0.24461c-4.0224-7.628-0.66134-18.599-0.6251-18.708l0.15401-0.48921-0.50733-0.0362c-12.574-0.99653-18.082 6.7583-20.257 11.46" fill="#0f141b"/>
 <path d="m161.16 171.56c-0.64321-0.63416-0.5798-4.4934 1.4404-8.8691 2.0565-4.4481 7.2384-11.723 18.952-11.016-0.35331 1.2864-1.2592 4.9464-1.2592 9.2043 0 3.0621 0.48921 6.414 1.984 9.3764-0.23554 0.30802-1.2864 1.6488-1.2864 1.6488-1.6941 2.2014-5.2182 6.7855-5.9882 6.9848-0.96936 0.0634-11.813-5.2997-13.843-7.329" fill="#009f50"/>
 <path d="m180.99 171.91s1.0418-1.3408 1.2864-1.6488c-1.4948-2.9624-1.9931-6.3144-1.9931-9.3764 0-4.267 0.90594-7.9179 1.2683-9.2043-11.714-0.70663-16.905 6.559-18.952 11.016-1.0328 2.2377-1.5492 4.3304-1.7303 5.9429 6.559 0.65227 12.611 2.6906 18.418 5.4628 0.64321-0.81535 1.2411-1.5944 1.7032-2.1924" fill="#008c46"/>
 <path d="m159.48 174.5c-0.0453 0.0453-0.70663 1.4314-0.70663 1.4314 1.7756 2.9986 15.736 29.099 15.736 29.099 2.4551 4.5659 10.255 7.0754 12.185 6.9485 0.14495-9e-3 0.75193-1.4495 0.48921-1.7032-0.45297-0.48014-3.1708-6.4412-5.5624-11.696-5.2907-11.596-7.0391-15.256-7.6914-15.519-0.36237-0.14495-2.6544-1.6398-4.8649-3.0892-9.0866-5.9429-9.2134-5.8252-9.5848-5.4718" fill="#0f141b"/>
 <path d="m176.1 204.46-6.9757-13.1c-3.5332-6.6768-6.6133-12.493-8.4796-15.763 1.685 0.94217 5.3541 3.3338 7.9722 5.0461 2.9171 1.9115 4.584 3.0077 5.0098 3.1708 0.61604 0.54356 4.4482 8.9597 7.2475 15.102 2.8175 6.1785 4.7018 10.291 5.4719 11.56-1.6579-0.0634-7.9179-1.6941-10.246-6.0154" fill="#009f50"/>
 <path d="m186.22 173.63c-1.368 0.36237-8.4162 8.244-8.6698 9.0231-0.38049 1.1324 12.647 25.765 13.598 27.251 0.93312 1.4495 4.2307 2.1471 8.0266 1.7032 2.8175-0.3352 12.294-2.2286 15.881-12.502 1.7122-4.9102-5.6077-20.637-5.9158-21.308l-0.21743-0.44391-0.38955 0.2899c-0.39861 0.2899-9.7388 6.876-21.806-3.9136-0.0725-0.0634-0.2446-0.17212-0.50732-0.0996" fill="#0f141b"/>
 <path d="m186.19 174.34" fill="#009f50"/>
 <path d="m186.34 174.46c11.125 9.8385 20.302 5.2726 22.25 4.1039 1.0056 2.2105 5.9339 13.29 5.9339 18.626 0 0.64322-0.0725 1.1958-0.23555 1.6398-3.4335 9.8385-12.511 11.65-15.211 11.967-3.7143 0.44391-6.6043-0.33519-7.2475-1.3317-2.0565-3.2161-12.611-24.569-13-26.2 0.60698-1.0056 6.2872-8.244 7.5102-8.8057" fill="#009f50"/>
 <path d="m208.59 178.56c-1.9568 1.1777-11.125 5.7346-22.25-4.1039-0.32614 0.15401-0.9603 0.76099-1.7303 1.6035 2.4188 1.7122 11.052 22.703 14.857 34.688 3.0983-0.4439 11.533-2.5094 14.821-11.913 0.15401-0.45296 0.22648-1.0056 0.22648-1.6397 0-5.345-4.9192-16.425-5.9248-18.635" fill="#008c46"/>
 <path d="m209.9 161.39 1.3227 14.296 0.0272 0.0634c0.0362 0.0634 3.0892 6.2057 6.106 15.256l1.2049 0.78816c0.64322-1.1415 1.4223-6.8851 0.12683-11.542-0.65227-2.3282-7.1116-18.762-7.474-19.922z" fill="#0f141b"/>
 <path d="m211.01 164.6c0.49826 1.377 1.1234 3.044 1.7847 4.8377 1.9387 5.2272 4.1311 11.152 4.7743 13.453 0.46203 1.6669 0.62509 3.044 0.62509 4.1673 0 1.1687-0.18118 2.0384-0.41673 2.6997-2.8265-8.2893-5.5715-13.915-5.7618-14.305-0.0181-0.10872-0.65227-6.9938-1.0056-10.853" fill="#009f50"/>
 <path d="m184.6 124.14c-1.7032 1.0509-1.4133 3.8774-0.67945 5.2544 0.69757 1.3136 2.3011 3.1889 5.0098 1.9568 4.8377-2.2014 13.879-14.332 14.25-14.803l-0.48014-0.62509c-4.3847 1.9749-15.437 6.5771-18.101 8.2168" fill="#0f141b"/>
 <path d="m184.64 129.02c-0.19025-0.35332-0.2899-0.77911-0.2899-1.2049 0-0.81534 0.38049-1.676 1.2321-2.2014 2.3736-1.4586 10.944-5.8795 15.854-8.1987-2.5729 3.1074-9.0322 10.609-12.737 12.294-2.1924 0.99653-3.5332 0.29896-4.0586-0.68851" fill="#e85377"/>
 <path d="m183.87 160.48c0 9.3855 7.637 18.336 16.724 18.336s17.041-7.7367 17.177-18.753c0.10872-9.3855-8.09-17.693-17.177-17.693s-16.724 8.7242-16.724 18.11" fill="#0f141b"/>
 <path d="m184.68 160.48c0-8.9416 7.0301-16.216 15.673-16.216 8.6336 0 15.664 7.2747 15.664 16.216s-7.0301 16.216-15.664 16.216c-8.6426 0-15.673-7.2747-15.673-16.216" fill="#009f50"/>
 <path d="m202.11 144.37c4.0042 14.785-3.9771 22.549-14.142 26.028 2.8628 3.8321 7.3471 6.2963 12.375 6.2963 8.6426 0 15.673-7.2747 15.673-16.216 0-8.3256-6.097-15.202-13.906-16.108" fill="#008c46"/>
 <path d="m200.2 172.91c0 2.9262 2.9534 5.1729 5.9429 5.1729s5.7255-2.7722 5.7255-5.6983c0-2.9262-3.044-5.5081-6.0335-5.5081s-5.6349 3.1074-5.6349 6.0335" fill="#0f141b"/>
 <path d="m201.53 172.77c0-2.4823 2.0655-4.5025 4.6112-4.5025 2.5366 0 4.6112 2.0202 4.6112 4.5025s-2.0746 4.5025-4.6112 4.5025c-2.5457 0-4.6112-2.0202-4.6112-4.5025" fill="#008c46"/>
 <path d="m204.4 169.24c-2.3464 0.83346-4.3757 3.2251-4.1945 5.5081 0 0 4.7471 18.526 8.1262 23.989 1.223 1.975 5.5624 1.5039 8.2803 0.19931 2.5547-1.214 4.5025-3.6962 3.5784-6.6496-2.9534-9.458-7.7639-20.429-8.5792-21.607-1.1868-1.7032-4.5206-2.4007-7.2112-1.4404" fill="#0f141b"/>
 <path d="m209.75 197.3c-0.96029-1.4404-7.9451-19.496-8.2168-22.92-0.20837-2.591 1.7032-3.669 2.8628-4.0767 2.3373-0.83346 5.2363-0.3352 6.2057 1.069 0.77911 1.1143 4.9192 12.04 7.8001 21.253 1.0781 3.4516-0.87876 4.9826-2.138 5.5896-2.3011 1.0962-5.4718 0.65227-6.5137-0.915" fill="#009f50"/>
 <path d="m216.09 198.28c0.0544-0.0272 0.11777-0.0453 0.17213-0.0725 1.2592-0.59792 3.2161-2.129 2.138-5.5806-2.8809-9.2134-7.021-20.139-7.8001-21.262-0.96936-1.4042-3.8684-1.9025-6.2057-1.069-1.1596 0.41673-3.0711 1.4948-2.8628 4.0767 0.0362 0.43485 0.17213 1.0871 0.38956 1.9115 7.3562 4.7562 11.061 13.544 14.169 21.996" fill="#008c46"/>
 <path d="m208.98 197.16c0 3.1074 3.4788 5.5624 7.1931 5.5624 3.7053 0 6.722-2.5276 6.722-5.644 0-3.1074-3.0258-5.3903-6.722-5.6349-4.8377-0.30802-7.1931 2.6091-7.1931 5.7165" fill="#0f141b"/>
 <path d="m210.25 197.09c0-2.6634 2.6544-4.8286 5.9158-4.8286s5.9158 2.1652 5.9158 4.8286-2.6544 4.8286-5.9158 4.8286-5.9158-2.1652-5.9158-4.8286" fill="#008c46"/>
 <path d="m211.57 194.88c-1.0962 1.4133-3.3067 6.0879 1.5763 11.505 4.2851 4.7471 16.262 14.214 22.123 15.573 4.584 1.0509 11.795-7.637 13.408-12.348 0.8244-2.4007 1.1687-4.5297-0.6251-5.3541-5.5806-2.5729-21.362-9.5667-24.832-11.415-3.9227-2.0836-9.15-1.1686-11.65 2.0384" fill="#0f141b"/>
 <path d="m235.5 219.17c-5.5534-1.2864-17.186-9.8928-21.271-14.423-3.0077-3.3248-3.6238-6.6496-1.7032-9.1137 2.1561-2.7722 6.6949-3.5332 10.128-1.7122 3.4788 1.8481 18.418 9.2043 24.007 11.786 1.1868 0.54356 1.4767 1.7303 0.8697 3.506-1.5582 4.5569-8.4071 10.79-12.031 9.9562" fill="#009f50"/>
 <path d="m247.52 209.22c0.60698-1.7847 0.31708-2.9624-0.86064-3.506-5.5987-2.5819-20.538-9.9472-24.016-11.795-2.9443-1.5582-6.7039-1.214-9.0775 0.67039 11.958 3.5241 22.585 9.9109 32.913 16.778 0.45297-0.73381 0.80629-1.4586 1.0418-2.1471" fill="#008c46"/>
 <path d="m256.28 200.4c-10.681-0.2446-25.013 12.964-28.383 17.457v1.531c-2.1561 2.8899-3.814 12.448 1.6397 16.76 5.3994 4.2851 35.884 12.846 50.397 8.5611 5.3813-1.5944 2.8084-16.778 1.1596-24.85-2.0655-10.101-15.954-19.26-24.814-19.46" fill="#0f141b"/>
 <path d="m256.31 201.62c8.244-0.20837 21.67 9.0684 23.591 18.481 2.6634 13 2.446 21.806-0.5798 23.554-3.9318 2.283-44.255-4.6746-49.029-8.4524-4.8015-3.8049-3.3157-12.547-1.4223-15.075 3.506-4.6656 19.052-18.3 27.441-18.508" fill="#009f50"/>
 <path d="m273.84 210.14c-16.298 0.64321-32.161 5.4447-46.348 13.408-0.85158 3.6872-0.64321 8.9325 2.7993 11.65 4.7743 3.7778 45.098 10.735 49.029 8.4614 3.0258-1.7575 3.2433-10.563 0.5798-23.554-0.71569-3.506-3.0258-6.9848-6.0607-9.9653" fill="#008c46"/>
 <path d="m270.52 237.77c-0.56168 3.2251 4.2126 13.326 6.9938 15.618 9.2134 7.5646 17.412-2.754 17.412-2.754 3.207-3.814 4.7652-6.3959 2.292-12.792-2.5094-6.4865-8.1172-13.245-13.009-13.245-2.8718 0-12.556 6.6949-13.689 13.172" fill="#0f141b"/>
 <path d="m278.24 252.42c-2.4642-1.8481-6.9123-11.723-6.5227-14.468 0.41673-2.9081 10.445-12.13 12.484-12.13 4.1311 0 8.7604 6.3868 11.206 12.692 2.2105 5.7255 0.21743 8.4796-2.6453 11.496-5.1548 5.4356-12.203 4.1492-14.522 2.4098" fill="#009f50"/>
 <path d="m295.41 238.51c-2.446-6.3053-7.0754-12.692-11.206-12.692-1.1052 0-4.584 2.7359-7.5918 5.6983 3.6328 6.0245 2.8809 13.154 0.36238 19.505 0.45297 0.61604 0.88781 1.1052 1.2683 1.3951 2.3282 1.7394 9.3674 3.0258 14.522-2.4098 2.8628-3.0258 4.8558-5.7799 2.6453-11.496" fill="#008c46"/>
 <path d="m215.76 218.51c-3.669 6.6496-3.7143 11.976 0.98747 18.68 4.8921 7.0029 15.183 12.303 20.474 9.0775 4.6656-2.8446 12.04-9.4489 9.1862-18.255-2.7269-8.398-14.586-15.075-14.586-15.075-3.044-1.6488-12.294-1.2502-16.062 5.5715" fill="#0f141b"/>
 <path d="m217.98 235.55c-4.5206-6.4593-3.4697-9.9744-0.18119-15.926 3.2432-5.8886 10.346-6.722 13.127-5.2091 5.1004 2.754 10.88 5.8886 13.453 13.825 0.38955 1.2049 0.56168 2.3645 0.56168 3.4607 0 6.1785-5.5443 10.581-9.2406 12.837-4.584 2.7903-13.136-2.446-17.72-8.9869" fill="#009f50"/>
 <path d="m244.62 232.69c-13.707 3.0802-23.428-1.7485-28.111-10.59-2.1833 4.5659-2.3826 7.936 1.4676 13.444 4.584 6.5499 13.136 11.786 17.72 8.9869 3.506-2.129 8.6608-6.1966 9.1952-11.877-0.0906 0.0181-0.18119 0.0181-0.27178 0.0362" fill="#008c46"/>
 <path d="m253.46 199.99c-1.1415 1.7032-1.6216 3.8684-0.81534 5.5715 3.2976 7.0119 11.514 16.977 15.401 18.68 3.6872 1.6126 14.015 4.0586 17.521-0.86064 3.0892-4.3213 5.1367-7.4377 2.4732-13.725l-1.6398-4.9102c-2.292-5.8071-5.1638-13.698-13.435-14.096-2.4732-0.12683-15.981 4.0676-19.505 9.3402" fill="#0f141b"/>
 <path d="m268.53 222.47c-3.2795-1.4314-9.9291-10.137-13.426-17.584-0.62509-1.3046-0.4892-2.6 0.40768-3.9408 3.1708-4.738 14.703-8.1625 16.887-8.0538 7.4921 0.36238 10.663 8.3708 12.973 14.214l0.88782 2.2014c2.1652 5.1095 1.7213 8.6064-1.676 13.363-3.0349 4.2488-12.855 1.2049-16.053-0.19931" fill="#009f50"/>
 <path d="m286.26 209.32-0.88782-2.2014c-2.3011-5.8161-5.4537-13.77-12.864-14.205 8.2621 13.363 4.6384 22.54-1.522 30.485 4.2398 1.377 11.143 2.7178 13.598-0.71569 3.3973-4.7652 3.8321-8.2621 1.676-13.363" fill="#008c46"/>
 <path d="m275.58 213.73c-3.1074 0.17213-4.9102 1.7847-5.4084 4.0767-0.66133 3.0892 2.5547 13.163 3.0621 17.648 1.0056 8.8238 2.6544 6.3234 6.3234 0.81534 3.6147-5.4175 6.2238-13.154 4.2851-18.354-0.99653-2.6816-5.0189-4.3666-8.2621-4.1854" fill="#0f141b"/>
 <path d="m274.25 233.62c-0.71569-5.7165-3.2795-13.1-2.6544-15.99 0.46202-2.1471 2.5276-2.5729 3.7143-2.6363 3.2161-0.18119 6.9214 1.6669 7.637 3.8049 1.2683 3.823-0.0272 9.005-4.1039 16.144-2.3917 4.1764-3.7053 5.7889-4.5931-1.3227" fill="#eeeeef"/>
 <path d="m282.94 218.8c-0.51638-1.5401-2.5819-2.9262-4.9011-3.515 1.4586 7.8545 0.70664 15.682-1.7303 23.119 0.67945-0.36237 1.5038-1.676 2.5276-3.4607 4.0767-7.1388 5.3813-12.33 4.1039-16.144" fill="#c8c9ca"/>
 <path d="m234.27 237.19c-1.2049 2.6182-0.77911 5.4266 1.0237 6.6314 7.0301 4.6928 18.744 3.6238 24.877-0.91499 3.6962-2.7359 10.056-7.0754-0.21743-6.106-5.182 0.4892-10.627-2.2648-13.852-4.267-1.3498-0.83346-2.5185-1.5582-3.5332-1.839-1.7575-0.48015-6.6949 3.0168-8.2984 6.4956" fill="#0f141b"/>
 <path d="m236.46 242.76c-1.8209-1.2411-1.7938-3.2886-1.069-4.8558 1.5944-3.4607 5.6983-6.5046 6.8398-6.1966 0.90594 0.25366 2.0202 0.94217 3.3248 1.7484 3.3248 2.0655 7.8816 4.8921 14.486 4.1582 3.5784-0.39861 4.8196 0.2899-0.28084 4.0677-5.807 4.2851-17.774 4.8468-23.301 1.0781" fill="#eeeeef"/>
 <path d="m236.5 236.05c-0.43485 0.58886-0.81534 1.214-1.1052 1.8572-0.72475 1.5673-0.76099 3.6056 1.069 4.8558 5.5262 3.7687 17.494 3.198 23.292-1.0871 0.13589-0.0996 0.25367-0.19024 0.3805-0.28084-8.5611 1.1052-17.14 0.34426-23.636-5.345" fill="#c8c9ca"/>
 <path d="m242.44 230.93" fill="#fff"/>
 <path d="m284.53 239.87c-7.8182 2.1742-17.666 1.7394-19.686 1.5129-0.95124-0.10871-2.0927-0.13589-2.446 0.5798-0.31708 0.63416 0.12683 1.5401 1.4495 2.9352 3.9136 4.1311 11.841 9.8566 20.293 8.4071 5.8886-1.0146 10.101-8.0538 4.8649-12.583-0.78817-0.67945-2.0746-1.522-4.4753-0.85158" fill="#0f141b"/>
 <path d="m288.41 241.28c3.5784 3.66 0.11777 10.092-4.7109 10.79-5.1729 0.75193-14.821-3.7234-18.526-7.637-1.5039-1.5854-0.34426-1.9931 1.1234-1.83 2.1742 0.23554 10.418 0.28084 18.445-1.9478 1.5944-0.4439 2.8446-0.21742 3.669 0.6251" fill="#eeeeef"/>
 <path d="m268.06 246.82c4.5387 3.1164 11.514 5.8524 15.646 5.2544 3.8955-0.57074 6.9032-4.8739 6.0245-8.4343-5.9792 5.2273-13.915 4.8105-21.67 3.1798" fill="#c8c9ca"/>
 <path d="m66.245 245.04c-3.506 9.0231-18.11 28.365-19.623 30.258-1.069 1.3317-3.7415 8.4705-4.3394 10.835-0.34426 1.3951 0.78816 2.8809 2.3011 1.7938 1.1958-0.86064 29.407-31.101 30.566-32.378l-0.30802-1.6397-7.9541-9.5486z" fill="#0f141b"/>
 <path d="m47.728 276.4c1.4767-1.8481 15.392-20.175 19.514-29.706 0.99653 1.1868 5.4356 6.5137 5.9882 7.1841-2.9805 3.2704-27.468 31.336-28.32 31.01-0.85158-0.32613 1.8934-7.329 2.8175-8.4886" fill="#009f50"/>
 <path d="m70.718 250.86c-1.3951-1.676-2.9352-3.5241-3.4697-4.1673-4.1311 9.5304-18.046 27.858-19.523 29.706-0.52544 0.66134-1.6397 3.207-2.3464 5.345 9.6573-9.0141 17.974-19.695 25.339-30.883" fill="#008c46"/>
 <path d="m139.91 205.35c-0.34426 1.1052-9.3855 27.631-2.6635 32.741 4.8558 3.6872 45.116 47.408 47.208 48.767 1.2502 0.80629 2.5819 0.95124 2.7269-1.1777 0.13589-2.0202 0.49826-8.0538-0.87876-9.8566-12.683-16.624-43.739-66.305-45.242-70.5l-0.61604-1.7213z" fill="#0f141b"/>
 <path d="m139.12 236.71c-1.6216-1.2321-2.2286-4.1401-2.2286-7.7548 0-6.8579 2.1742-16.234 3.7143-21.634 4.8105 10.228 30.186 52.762 44.69 69.965 0.23555 0.26273 0.36238 3.1164 0.37144 5.4447 9e-3 1.4857-0.10871 2.7993-2.0202 0.96029-1.9206-1.8481-39.58-43.222-44.527-46.982" fill="#009f50"/>
 <path d="m185.67 282.46c-0.0181-2.2739-0.14495-4.9283-0.37143-5.1729-7.2837-8.6064-39.879-59.737-44.69-69.975-1.5492 5.4084-3.7143 14.776-3.7143 21.643 0 0.32613 9e-3 0.65227 0.0181 0.96935 7.175 6.6314 23.092 24.714 48.757 52.535" fill="#008c46"/>
 <path d="m106.52 249.14c-15.066 5.2363-30.104 10.744-30.249 10.799l-0.38955 0.70663c1.0237 4.43 8.9144 28.763 10.581 31.753 0.93312 1.685 6.713 6.1513 12.728 6.7673 5.9882 0.60698 17.385-2.8809 19.151-5.3269 1.5944-2.2014 3.6237-6.0154 5.6621-10.989 3.6147-8.7785 7.4468-20.42 10.255-27.867 2.9624-7.8545 4.4481-13.363 4.738-14.504 0.0725-0.28084-0.0181-0.56168-0.22648-0.74287-0.5345-0.4892-1.4314-1.2955-32.251 9.4036" fill="#0f141b"/>
 <path d="m137.65 240.71c-0.6251 1.9206-2.8446 7.8001-5.3813 14.54-4.4119 11.678-8.235 22.422-9.8747 26.924-2.3464 6.4774-5.7165 10.717-7.0119 11.243-4.2217 1.685-12.466 3.8865-16.08 3.4879-3.9408-0.43485-11.161-4.3123-11.551-5.2635-1.1958-2.899-9.1681-25.421-10.554-30.757 22.476-8.2259 55.869-19.94 60.453-20.175" fill="#009f50"/>
 <path d="m97.35 253.63c10.835 11.505 15.383 27.604 16.352 40.405 0.60698-0.20837 1.1777-0.42579 1.685-0.6251 1.2955-0.51638 4.6656-4.7652 7.0119-11.243 1.6397-4.5025 5.4628-15.238 9.8747-26.924 2.5366-6.7402 4.7562-12.62 5.3813-14.54-3.3338 0.17213-21.824 6.3868-40.305 12.928" fill="#008c46"/>
 <path d="m114.24 290.56c4.575-4.122 8.1081-16.361 11.125-34.136 0.3352-1.9568-0.64322-3.1345-1.7938-3.9861-7.1841-5.3088-41.945 10.599-45.079 12.158 0.13589 0.58886 0.32614 1.3498 0.54356 2.2105 2.3373 7.1297 6.0788 17.756 7.8635 22.585 3.207 1.676 10.21 4.3123 12.203 4.4663 3.8683 0.29896 13.517-1.839 15.138-3.2976" fill="#ed8599"/>
 <path d="m123.57 252.44c-7.1841-5.3088-39.662 10.563-42.796 12.112 0.20836 0.94217 0.52544 2.283 0.89688 3.8412 12.982-3.0349 33.656 6.26 36.881 14.821 2.4913-6.251 5.2816-16.18 6.2328-26.607 0.18119-1.9749-0.0634-3.3157-1.214-4.1673" fill="#ce7486"/>
 <path d="m113.97 290.86c1.0962-0.55262 2.591-3.5241 3.2251-4.4934 1.3317-2.3192 2.8899-5.8976 3.968-10.645 0.59792-1.531 2.5819-9.7026 2.6997-11.578l-1.9115 0.71569c-0.45297 2.2105-0.71569 4.3847-1.1052 4.6203-0.38955 0.24461-2.3826 0.47109-2.4732 1.069-0.0906 0.59792 0.80628 3.8955 0.73381 4.2217-0.0815 0.31708-2.8537 1.5129-2.8537 1.8119-0.12683 0.67946 0.26272 2.7359 0.8244 4.8739-0.29896 1.7213-2.138 6.251-4.4934 7.6823-3.352 2.0293-8.2078 2.8446-12.873 2.8446-5.9611 0-11.342-3.3791-11.406-4.2851-0.56168-3.0983-1.1234-7.9179-1.1234-9.2406 0-5.1729 0.38955-10.137 1.2502-15.328-3.8231 1.7122-7.9632 4.3938-8.9869 4.9374 2.3464 7.0935 5.7889 16.823 7.4649 21.353 2.5004 1.7666 8.8872 4.5478 12.783 4.5478 6.3416 0 13.181-2.5547 14.278-3.1074" fill="#e85377"/>
 <path d="m124.05 252.88c0.56168 0.6251 0.84252 1.4676 0.84252 2.5185 0 0.37144-0.0362 0.77911-0.10871 1.214-0.46203 2.6997-1.0146 5.345-1.6216 7.936-0.43485-5.0732-2.6182-9.5576-4.738-13.136 2.7359-0.0996 4.6384 0.3805 5.6259 1.4676" fill="#fff"/>
 <path d="m79.242 267.57s3.4244 14.323 4.6746 16.515c0.27178 0.47108 1.2321 1.6307 1.5763 1.5673 0.7791-0.12683 2.1108-9.1318 2.1108-9.1318 0.88782-3.1164-2.7631-7.9904-4.9736-9.7388-0.98747-0.77911-3.4969-0.0634-3.3882 0.78816" fill="#0f141b"/>
 <path d="m85.048 283.32c-1.1143-1.9478-4.0677-13.082-4.3938-15.709-0.01812-0.14495-0.02718-0.26273-0.02718-0.37144 0-0.31708 0.07247-0.45297 0.11777-0.48014 0.09059-0.0453 0.50732-0.0272 1.3861 0.66133 2.138 1.685 4.8015 5.5443 4.8015 8.081 0 0.28084-0.03624 0.55262-0.10871 0.79722l-0.73381 3.4063c-0.25366 1.3498-0.6251 3.2976-0.95123 3.7325-0.0453-0.0543-0.09059-0.11777-0.09059-0.11777" fill="#fff"/>
 <path d="m82.128 267.42c-0.8697-0.68851-1.2955-0.70663-1.377-0.66133-0.05436 0.0272-0.12683 0.16307-0.12683 0.48014 0 0.10872 0.0091 0.23555 0.02718 0.37144v9e-3c0.09059 0.68851 0.35332 1.9659 0.72475 3.506 2.899 2.6363 3.8774 6.8761 4.2035 11.034 0.19025-0.76098 0.37143-1.6941 0.51638-2.4551l0.73381-3.4063c0.06342-0.24461 0.09965-0.51639 0.09965-0.78817 0-2.5457-2.6635-6.405-4.8015-8.09" fill="#dcdddd"/>
 <path d="m108.04 266.08c-1.9296 0.26272-4.8558 1.214-5.345 2.4732-0.14495 0.38049-0.20836 0.88781-0.20836 1.4857 0 4.3757 2.7359 13.19 3.1889 14.178 0.78816 1.7032 1.4495 3.4063 2.8899 0.38956 1.4948-3.1255 2.3645-13.915 3.3248-16.035 0.39861-0.87875 0.19931-1.4495-0.0362-1.7666-0.73381-0.98747-2.7088-0.87876-3.814-0.72475" fill="#0f141b"/>
 <path d="m107.26 284.18c-0.65227-0.92405-3.9771-10.146-3.9771-14.114 0-0.49826 0.0544-0.91499 0.17213-1.214 0.25366-0.66133 2.3101-1.6398 4.7018-1.9659 1.5401-0.20837 2.7087-0.0544 3.0439 0.40767 0.0725 0.0906 0.10871 0.20836 0.10871 0.34425 0 0.17213-0.0544 0.37144-0.15401 0.59792-1.0056 2.2105-1.676 6.1151-2.2648 9.5576-0.44391 2.5547-1.0418 6.0064-1.5492 6.4774-0.0362-0.0453-0.0815-0.0906-0.0815-0.0906" fill="#fff"/>
 <path d="m111.2 267.29c-0.34426-0.46203-1.5129-0.61604-3.053-0.39861-2.3826 0.32614-4.4481 1.3046-4.7018 1.9568-0.11777 0.30802-0.16307 0.72475-0.16307 1.223 0 1.0962 0.25366 2.591 0.63416 4.2126 2.8084 1.6941 3.9589 4.5931 4.1673 7.7639 0.2899-1.2864 0.57074-2.899 0.79722-4.2579 0.59792-3.4426 1.2593-7.3471 2.2648-9.5486 0.10871-0.23554 0.16307-0.43485 0.16307-0.59791 0-0.14495-0.0362-0.26273-0.10871-0.35332" fill="#dcdddd"/>
 <path d="m102.69 268.55" fill="#fff"/>
 <path d="m1.948 70.899c-1.6488 0.50732-2.4188 1.3951-1.6488 2.9262 1.984 3.968 67.547 123.23 73.743 132.66 1.5854 2.4188 3.8412 2.3917 5.4175 1.83 4.3847-1.5673 6.3959-15.564 5.7346-21.969-0.15401-1.5038-0.79722-2.1108-1.8209-2.3464-1.377-0.30801-3.0439 0.20837-5.4356-3.2885l-2.1652-3.0258c-12.864-17.63-14.939-30.548-12.556-39.644 2.0565-7.8545-51.457-66.532-51.992-67.148-0.86064-0.99653-7.4287-0.56168-9.2768 0.0091" fill="#0f141b"/>
 <path d="m3.943 72.768c2.0565-0.6251 5.7165-0.35332 6.2328-0.03624 17.53 20.22 51.05 61.404 51.059 64.838-0.93311 2.3736-1.3408 4.883-1.3408 7.4559 0 13.498 13.199 31.844 15.238 34.371 2.0474 2.5366 3.6419 6.3868 7.3018 6.4774 2.6363 0.0634 0 20.085-3.3791 21.29-0.98747 0.35332-2.1108-0.42579-3.352-2.3192-6.1875-9.4127-71.723-128.48-72.611-129.62-0.88782-1.1505 0.21742-2.2648 0.85158-2.4551" fill="#009f50"/>
 <path d="m82.437 185.87c-3.66-0.0906-5.2635-3.9408-7.3018-6.4774-2.0474-2.5276-15.247-20.873-15.247-34.371 0-2.5728 0.40767-5.0823 1.3498-7.4558-0.00906-3.4335-33.538-44.617-51.068-64.847-0.36237-0.21742-2.3554-0.42579-4.2035-0.2899-0.46203 0.2446-1.3498 0.2446-0.71569 1.3861 0.63416 1.1505 37.37 68.516 54.148 96.473 5.3541 8.9235 12.846 23.899 11.605 26.58 2.3011 4.0224 3.9408 6.8217 4.7018 7.9722 1.2411 1.8934 2.3645 2.6634 3.3429 2.3192 3.3882-1.2049 6.0245-21.226 3.3882-21.29" fill="#008c46"/>
 <path d="m117.09 129.52c-13.118 16.397-20.701 35.078-22.667 40.867-6.097 2.899-8.7876 5.8071-12.094 10.029-1.7666 2.2558-3.2704 6.3959-3.2704 6.3959-0.73381 0.77004-1.5944 5.644-6.3506 19.124-2.6453 7.5102-4.0948 15.664-5.2001 18.97-0.56168 1.6941-4.267 9.92-4.5569 16.57-0.29896 6.6496 15.827 28.818 23.989 37.361 3.4426 3.6056 5.7889 5.7255 6.5499 5.6349 1.4404-0.15401 4.0948-3.1345 9.766-7.166 5.182-3.6781 11.17-8.6879 14.74-9.9744 7.9904-2.8809 9.4942-3.814 13.598-12.013 1.7847-3.5784 4.8739-7.9541 7.9269-11.56 3.6872-4.3485 8.0991-8.0538 8.8963-11.587 0.84252-3.7053-1.5673-27.477-1.5673-32.514 0-11.542 14.459-31.681 20.23-34.326 4.276-1.9568 10.156-17.095 8.7966-30.639-0.81534-8.2078-4.5569-18.644-17.729-21.733-11.56-2.8446-28.392 0.72474-41.057 16.561" fill="#0f141b"/>
 <path d="m79.806 190.29c1.7575-1.9659 7.628-12.484 16.307-17.856l0.18119-0.11778 0.07247-0.20836c1.8481-5.5353 9.5123-23.5 22.667-39.934 11.795-14.758 30.195-19.768 38.937-17.72 12.466 2.9262 16.017 12.855 16.796 20.664 1.3408 13.453-4.5297 27.776-8.09 29.416-6.1332 2.8084-21.697 24.515-21.697 36.69 0 5.0914 0.47109 10.319 0.87876 14.93 0.5798 6.3687 1.069 11.868 0.27178 15.383-0.73381 3.2432-4.122 7.2475-7.7186 11.478-3.0983 3.6509-6.3053 7.4377-8.1625 11.152-3.9227 7.8273-5.8252 8.8782-12.502 11.659-3.6147 1.5129-9.5395 5.7165-14.767 9.4399-4.3847 3.1074-8.9054 6.3234-10.101 6.4503-0.28084 0.0362-1.4223-0.12683-4.6112-3.4607-8.9235-9.3402-19.976-27.16-23.255-35.033-0.42579-1.0328-0.12683-3.4063 0.26272-5.1095 0.39861-1.7032 2.9534-10.898 3.4879-12.511 1.1143-3.3429 9.2858-33.348 11.043-35.313" fill="#009f50"/>
 <path d="m170.78 123c-15.845-10.373-46.438 20.574-54.066 54.972-1.3498 6.0879-1.4857 12.828-1.223 18.88 0.38049 8.8148-11.469 41.084-15.383 48.975-2.6997 3.3791-12.493 7.0935-15.165-9.304-0.65227-4.0314-6.8851 12.747-2.1199 25.747 4.1673 11.406 9.621 9.4036 10.364 11.406 0.75193 1.9931 1.1324 6.097 0.38049 7.8545 2.3283-1.1324 6.4412-4.1582 9.4127-6.2691 5.2273-3.7143 11.152-7.927 14.767-9.4399 6.6768-2.7812 8.5792-3.8321 12.502-11.659 1.8572-3.7143 5.0642-7.5012 8.1625-11.152 3.5875-4.2307 6.9848-8.2259 7.7186-11.478 0.79722-3.515 0.30802-9.0141-0.27178-15.383-0.40767-4.6112-0.87876-9.8385-0.87876-14.93 0-12.176 15.564-33.882 21.697-36.69 3.5603-1.6307 9.4308-15.963 8.09-29.416-0.38955-3.8865-1.4676-8.2984-3.9861-12.112" fill="#008c46"/>
 <path d="m172.79 125.83c-13.997 1.3136-23.346 8.6426-27.223 15.22-6.2328 0.57074-17.476 3.4063-22.494 5.5896-0.97841-1.685-4.8196-7.7458-6.405-12.312l-5.7618 6.9666c1.7756 4.1492 3.2342 7.0663 5.3178 10.237-3.1527 4.43-7.3471 13.489-8.2259 15.283-12.774 1.0509-20.556 5.9339-26.263 15.809-1.1324 1.9568-2.8718 7.936-2.8718 14.504 0 4.2036 1.377 9.5939 3.352 13.172 5.4084 9.775 16.298 10.002 25.122 7.6461 13.979-2.7903 20.918-18.273 21.951-21.344 4.6384-13.752 0.32614-24.669-11.061-28.782 1.676-5.0914 6.7492-12.765 7.4015-13.154 0.66133-0.38955 17.158-4.5387 23.609-6.0698l0.22648-0.0544 0.12683-0.19024c7.1841-10.056 16.869-15.709 26.209-16.153z" fill="#0f141b"/>
 <path d="m146.44 141.94c0.48921-0.73381 9.9019-13.399 26.082-14.821 0.10871 0.22649 1.223 2.6635 1.5492 4.0224-6.7311 0.50732-16.443 3.4607-25.439 15.944-6.5318 1.5582-22.866 5.49-23.781 6.1422-0.915 0.65227-6.6949 9.6392-8.3256 15.356 0 0 13.426 5.1548 12.638 19.396-0.55262 10.047-10.219 25.538-21.697 28.365-8.398 2.2377-19.867 1.214-24.134-7.4649-2.7631-5.6168-4.3666-17.711 0.08153-25.529 8.5249-14.966 25.602-15.093 25.765-15.102 0 0 6.9214-14.368 8.5702-16.66 0.45297-0.63415-3.814-6.3868-5.5806-10.464 1.2049-1.7938 2.4732-3.5694 3.7778-5.3269 2.0384 5.2726 6.0335 12.728 6.4231 12.602 0.39861-0.13589 18.291-5.8795 24.071-6.4593" fill="#ffec60"/>
 <path d="m172.52 127.11c-16.18 1.4223-25.593 14.096-26.082 14.821-3.3248 0.33519-10.645 2.3736-16.352 4.0767-1.4495 2.2377-2.9171 4.4934-4.1764 6.8126 3.8774-1.214 17.023-4.3757 22.721-5.7346 8.9959-12.493 18.708-15.446 25.439-15.944-0.32614-1.368-1.4404-3.8049-1.5492-4.0314" fill="#ddcc54"/>
 <path d="m119.18 170.03c-0.5798 2.6453-1.1596 4.9374-1.7847 8.0991-1.223 6.2147-1.8572 14.268-2.8718 21.96-0.75193 5.644-1.83 11.007-3.7868 15.093 9.9834-4.6112 17.919-18.128 18.427-27.205 0.52544-9.5939-5.5262-15.646-9.9834-17.947" fill="#ddcc54"/>
 <path d="m103.93 172.04c-7.5193 1.2683-14.305 6.5046-16.832 12.792-3.2795 8.1353-1.2502 15.981 4.2398 20.474 5.3903 4.421 13.236 4.2217 20.474-0.52544 5.6983-3.7415 9.2949-9.1228 10.119-15.147 0.11777-0.83346 0.17213-1.676 0.17213-2.5094 0-4.122-1.4042-8.0538-4.0133-11.043-2.8356-3.2523-8.1534-5.0551-14.16-4.0405" fill="#0f141b"/>
 <path d="m92.093 204.1c-5.1457-4.2217-6.3869-11.379-3.2704-19.124 2.3736-5.8886 8.0357-10.119 15.129-11.324 5.5081-0.92405 10.699 0.34426 13.218 3.2342 2.899 3.3248 4.1945 7.9179 3.5513 12.583-0.77911 5.6712-4.1945 10.482-9.5939 14.024-6.7764 4.4482-14.069 4.6746-19.034 0.60698" fill="#009f50"/>
 <path d="m117.72 177.55c-0.85158 5.7527-2.591 17.584-3.4335 23.518 3.5694-3.207 5.8252-7.1297 6.4412-11.596 0.59792-4.3666-0.4892-8.6608-3.0077-11.922" fill="#008c46"/>
 <path d="m118.09 176.09" fill="#009f50"/>
 <path d="m131.54 197.78c6.8308-7.9632 85.937-104.15 93.909-109.55 7.9632-5.4084 11.949-4.8377 12.52-4.267 0.56168 0.57074-37.569 66.867-42.688 75.972-5.1185 3.1345-39.734 14.323-53.215 52.082-4.8739 13.652-10.527-14.232-10.527-14.232" fill="#009f50"/>
 <path d="m225.96 91.523c-16.108 20.827-33.13 39.218-48.866 57.953-11.342 13.498-20.755 27.821-34.625 40.278-2.5185 2.1561-4.1764 1.4767-4.421 0-1.2955 1.5401-5.9882 7.4287-6.5137 8.0356 0 0 5.653 27.885 10.536 14.223 13.48-37.75 48.087-48.948 53.206-52.073 4.6022-8.1806 35.857-62.546 41.736-73.897-0.45297-0.8244-9.2224 3.0349-11.052 5.4809" fill="#008c46"/>
 <path d="m238.57 81.951c-2.283-0.38955-7.474 0.37143-13.852 4.7018-6.4774 4.3938-93.9 109.95-93.9 109.95s-0.3352 2.7269 1.1868 1.5763c4.3394-3.2795 86.897-104.74 93.239-109.04 4.9011-3.3338 8.4977-4.5206 10.482-4.8196 0.69757-0.10871 1.5854-0.02718 1.3408 0.80628-0.25367 0.84252-40.015 71.46-41.021 73.064-0.65227 1.0418-3.515 1.6126-5.7436 2.6091-22.467 10.056-42.461 24.56-48.794 50.977-2.5638 10.699 0.75193 4.5931 1.4042 1.377 4.5931-22.676 31.454-42.035 47-49.482 3.352-1.6035 7.1841-2.8718 7.9632-3.9136 0.78817-1.0418 41.863-75.383 41.863-76.307 0-0.915-0.40767-1.377-1.1687-1.5039" fill="#0f141b"/>
 <path d="m108.25 256.57c12.493-19.278 39.861-67.193 27.839-61.631-8.3709 3.8774-11.659 3.1255-13.372 5.6893-1.7032 2.5638-14.785 49.464-17.82 56.603-2.138 5.0098-1.4495 6.7492 3.352-0.66133" fill="#009f50"/>
 <path d="m137.74 207.87c3.0439-6.8851 2.4641-14.903 0.76099-12.275-1.6941 2.6363-9.6301 4.9283-11.614 7.2113-2.2648 2.2648-13.172 40.486-19.215 55.117-0.44391 1.368 0.30802-0.0815-0.13589 1.2049 7.8001-12.556 23.681-36.518 30.204-51.258" fill="#008c46"/>
 <path d="m121.94 199c-1.9659 2.8809-2.8175 8.235-5.3722 17.43-4.2217 15.174-13.199 43.141-14.296 45.65-1.3045 2.9896-0.26272 3.3882 1.0599 0.58886 2.9171-6.1422 11.623-31.273 15.854-46.493 2.0565-7.4196 4.7199-14.558 4.9826-15.473 0.26272-0.915 10.763-4.4119 12.203-5.2182 1.4314-0.81535 2.3283-1.8934-0.54356-1.0962-2.8718 0.80629-11.922 1.7303-13.888 4.6112" fill="#0f141b"/>
 <path d="m76.69 197.5c2.292-12.457-1.7666-4.883-2.7993-3.1798-3.3157 5.4628-7.2203 11.868-9.2134 13.571-1.9931 1.7032 12.901 51.24 17.63 55.769 3.9227 3.7687-6.7492-59.973-5.6168-66.161" fill="#009f50"/>
 <path d="m92.526 248.59c-9.304-2.4098-11.759-46.837-14.531-55.778-1.5944 6.0516-4.2307 8.1172-6.9032 12.438-2.6635 4.3213-3.0168 5.3178-1.5673 10.536 1.4404 5.2272 9.2043 31.21 13.662 47.417 0.85158-2.1924 21.724-11.406 9.3402-14.613" fill="#008c46"/>
 <g fill="#0f141b">
  <path d="m63.206 207.26c-2.8809 3.8412 9.5304 39.472 16.334 52.916 2.283 4.5025 3.3338 4.7652 0.98747-0.71569-4.6203-10.808-13.652-40.405-14.305-44.337-0.66133-3.9318-0.915-6.5499 0.26272-7.8635s6.8761-10.717 8.3799-15.165c0.6251-1.839 0.61604-4.8105-1.531-0.50733-0.97841 1.9659-7.6189 12.33-10.128 15.673"/>
  <path d="m79.458 226.08c1.5854 8.389 1.8119 6.3416 1.1324 0-1.2683-11.859-3.3338-23.554-0.78816-37.297 1.223-6.5771-1.4042-2.437-2.2558 2.7269-1.1596 7.1116-1.3408 17.403 1.9115 34.571"/>
  <path d="m69.22 229.65c-2.1199 5.1004-0.77005 21.525 6.26 21.344 2.6997-0.0725-5.2273-13.924-6.26-21.344"/>
 </g>
 <path d="m74.369 248.77c-1.0056 0.16307-2.6272-1.5129-3.0802-4.3123-0.44391-2.7903-0.07247-4.0314 0.20836-5.1276 0.36238 2.138 2.4098 7.4015 2.8718 9.4399" fill="#ffec60"/>
 <path d="m73.744 245.74c-0.13589 0.44391-0.61604 1.0146-1.1052 0.16307-0.56168-0.96029-0.38049-3.9499-0.21742-4.122 0.09965 0.38049 1.1958 3.5966 1.3227 3.9589" fill="#0f141b"/>
 <path d="m137.23 212.87c-0.11777-0.915-10.536 19.179-18.454 33.447-4.4481 8.0175-8.9869 14.105-8.2984 13.788 1.9387-0.86064 7.1207-7.4015 7.1207-7.4015s4.5206 2.9986 9.1047-2.8446c3.1255-3.9771 4.8377-15.926 3.9861-20.773 1.1324-3.1255 6.7311-14.785 6.5409-16.216" fill="#0f141b"/>
 <path d="m124.39 240.15c-1.6307 2.9896-3.2795 5.9339-4.8739 8.6608 2.5276 3.6056 6.6949-0.19931 4.8739-8.6608" fill="#ffec60"/>
 <g fill="#0f141b">
  <path d="m122.48 242.46c-0.31708 0.5798-1.4314 2.7178-1.7394 3.2432 0.61604 4.3213 2.9715-0.0634 1.7394-3.2432"/>
  <path d="m98.93 292.6c-3.669 0-10.228-3.1255-11.116-4.6112-0.42579-0.70663-1.1324-6.7673-1.3317-9.0412-0.01812-0.25366 1.0871-0.98747 1.1052-0.67039 0.11777 2.129 0.94217 8.5158 1.223 9.15 0.56168 0.93312 6.6043 4.0224 10.119 4.0224 8.1806 0 13.562-1.7575 15.718-5.1004 0.70663-1.0962 1.3317-2.9262 1.8028-4.6746-0.31708-1.4042-1.1143-5.2907-0.41673-5.7527 0.12683-0.0815 2.1108-1.1415 2.4732-1.377-0.0453-0.23554-0.93311-3.6781-0.64321-4.2488 0.2446-0.49827 2.3736-1.1143 2.5276-1.1777 0.0996-0.2899 0.78816-3.4969 0.92406-3.9046 0.0906-0.30802 1.1868 0.0362 1.0962 0.34425-0.11777 0.36238-0.92406 4.0042-1.0871 4.2488-0.20836 0.30802-2.2467 0.90594-2.437 1.0328-0.0544 0.41673 0.85158 3.823 0.77004 4.0858-0.0996 0.36238-2.6453 1.7575-2.7812 1.83 0 0.5798 0.17213 2.2377 0.61604 4.2851 0.0906 0.42579 0.0725 0.94218-0.0634 1.3952-0.55262 1.8662-1.4133 3.9136-1.8028 4.5206-1.8481 2.8537-6.3053 5.644-16.696 5.644"/>
  <path d="m99.699 294.55c-3.0258 0-9.3946-2.1652-13.354-4.9555-0.25366-0.17213-0.25366-1.6216-0.0091-1.4314 3.5966 2.8175 10.346 5.2363 13.363 5.2363 5.5806 0 12.919-2.1924 14.16-3.2704 2.9715-2.5729 8.1715-15.917 9.3855-25.801 0.0181-0.16307 1.5582-0.90594 1.522-0.58886-1.1505 10.346-6.9214 24.46-10.156 27.26-1.5401 1.3408-9.3311 3.5513-14.912 3.5513"/>
 </g>
</svg>
