<?xml version="1.0" encoding="UTF-8"?>
<svg version="1.1" viewBox="0 0 163.59 139.5" xmlns="http://www.w3.org/2000/svg">
 <g transform="translate(0 .043883)">
  <path d="m81.15 81.25q1.95 0.35 1.6 3.2-0.4 2.85-2.45 2.6-2.1-0.3-5.55 0-3.55 0.25-7.2 1.05-3.05 0.7-12.7 4.3l-9.85 3.8-2.45-0.2-2-0.55q-0.35-0.05-5.15 2.7l-5.6 3.1-2.05-0.1q-1.1-0.45-1.8-1.25-0.5-0.6-3.75-1.55l-4.8-1.45-6.2-1.25-5.95-1.05q-1.7-0.3-1.95-1.05-0.35-0.8 1.45-1.6 4.15-1.75 11.55-3.95 11.7-3.45 23.5-5.3 12.95-2.05 24.95-2.3l16.4 0.85" fill="#ffe792"/>
  <path d="m98.2 90.3q-0.35-0.6 0.2-1.75 0.6-1.2 1.35-0.75l3.95 3.3 4.95 4.95q1.75 1.95 5.15 8.8 3.1 6.35 5.5 12.35 1.9 4.85 3 13 1 7.2 0.6 7.7-0.2 0.2-3.4-3.15l-3.95-4.2q-1.5-1.45-4.95-1.9-2.8-0.35-5.3-2.5-0.7-0.65-0.8-2.55l0.05-2.25-1.65-3.6-2.15-4.55q-0.45-1.25-0.55-5.75l0.1-7q0.15-2.45-0.6-5.75-0.65-2.95-1.5-4.4" fill="#ffe792"/>
  <path d="m13.05 95.35 8 0.85q5.15 0.25 7.3-0.15 2.55-0.4 6.8-2 3.6-1.3 5-1.25 6.5 0.3 16.3-3.35 3-1.15 9.55-2.1l11.3-0.55q-6.8 0.45-12.05 2-2.55 0.75-11.65 4.3-8 3.15-8.6 3.1l-4.5-0.55q-0.65 0.05-5.9 3.05-5.05 2.85-5.95 2.65l-2.75-1.35q-2.2-1.35-3.55-1.8l-9.3-2.85" fill="#dbc77f"/>
  <path d="m100.05 98.25q0-2.55-0.7-5.3l-0.75-2.25q1.6 1.95 3.05 10.8l1.55 10.7q0.35 1.65 2.2 5l2.5 5q0.6 1.85 2.9 2.85l3.6 1.5q1.65 1 4.2 4.2 2.85 3.5 4.15 6.55l-3.45-3.15-2.9-2.55-3-2.25-3.5-1.1q-2.95-0.85-4.15-1.8-1.3-1.05-1.3-2.45l0.3-1.65-0.65-1.9-1.2-2.45-1.45-2.9q-1-2.1-1.1-2.95-0.3-3.9-0.3-13.9" fill="#dbc77f"/>
  <path d="m101.6 85.1q2.05 2.95 5.6 10.25 3.75 7.6 4.85 11.45 2.25 3.35 1.65 3.8-0.65 0.45-1.65-0.35 0.3 1.8-0.15 2.05l-1.55-0.25q0.25 1.6-0.1 1.9-0.35 0.25-1.8-0.9-8.75 4.6-9.3 4.5-0.35-0.05-1.2-4.2-0.7-3.35-1.05-6l-1.65-9.6q-1.35-8.05-1.25-9.85 0.1-2 3.5-2.95l4.1 0.15" fill="#e9eff8"/>
  <path d="m99 106.9q0 1.15 0.8 4.35 0.8 3.25 1.1 3.3l3.05 0.2q-3.95 2.55-4.5 2.25-0.55-0.25-2.2-7.4l1.75-2.7" fill="#c9cfd7"/>
  <path d="m84.6 79.3q2.15 0.25 8.05 3.2 4.15 2.1 6.3 5.15 1 1.4 1.8 3.7 0.7 1.95 0.6 3.8-0.2 4.2-3.1 12.45-3.1 8.7-9.45 14.8-5.55 5.3-8.2 4.45-1.8-0.55-3.1-5.35l-0.95-4.7q-3.2-1.5-5.35-3.5l-1.45-1.7q-4.45-0.4-9.55-1.85-5.2-1.45-5.35-2.4-0.15-1.1 1.85-4.6 1.8-3.25 3.55-5.35 2.3-2.8 6.2-6.65 5.3-5.2 9.8-8.45 4.7-3.4 8.35-3" fill="#e9eff8"/>
  <g fill="#c9cfd7">
   <path d="m68.25 109.75q1.6 0.45 2.9 1.25 1.4 0.9-0.3 0.75l-8.3-1.2q-6.7-1.35-7.65-2.75-0.4-0.55 0.45-2.15l0.9-1.5q-0.45 0.95 2.8 2.5 3.35 1.6 9.2 3.1"/>
   <path d="m78.2 121.9q1.15 3.35 7.85-0.2 6.4-3.45 8.7-7.75l-1.05 2.8q-1.55 3.2-3.95 5.15l-5.3 3.75q-2.45 1.4-3.2 1.3-1.55-0.2-2.45-2.65l-0.6-2.4"/>
   <path d="m81.5 81.6q7.95 5.1 17.85 5.8l-1.9 1.15q-2.6 0.95-6.05 0.05t-7.05-4.05l-2.85-2.95"/>
  </g>
  <path d="m126.45 22.1q2.4 8.35 3.25 15.9 14.3 5.7 25.1 18.85 4.05 4.95 6.35 9.45 2.1 4.15 1.6 5.55-0.9 2.65-9.2 6.95-8.4 4.35-16.1 6.05-6.5 1.45-15.4 1.6l-7.65-0.15q6.5-2.2 7.95-3.6 1.95-1.9 3.25-8.35 1.15-5.6-3.2-10.3l-4.6-3.55q-8.05 3.65-18.7 1.7-6.2-1.1-11.55-5.65l-4.1-4.35q-2.55 0.7-5.5 2.25-5.95 3.2-7.9 7.65t2.1 10.75q2 3.15 4.4 5.4-20.5-8.1-30.6-21.45-3.6-4.8-5.15-9.35-1.25-3.8-0.55-5.4 1.4-3.3 5.7-5.8 3.9-2.35 11.7-4.8 6.25-1.95 14.75-3l7.2-0.7q10.1-14.8 21.7-22.25 9.45-6.05 13-4.15 7.45 4 12.15 20.75" fill="#ffe792"/>
  <path d="m105.15 11.7 12.9 4.35q-2.05 8.45-4.7 15.9-2.7 7.45-8.1 16.5-4.9-1.2-10.1-4l-4.25-2.6q5.55-8.95 8.55-14.85 3.05-5.9 5.7-15.3" fill="#60c0bd"/>
  <path d="m83.55 51.95 4.1 4.25q5.45 4.6 12.15 6.2 5.55 1.4 12.3 0.05l5.6-1.65 1 0.5 2.45 1.65q1.9 1.55 3.4 3.8l-0.5 1.4q-0.65 1.95-1.2 4.95-0.9 4.75-0.35 9.65-6.35 3.65-13.5 4.35-7.3 0.75-17.25-1.35-8.35-1.8-15.3-8.05l-5.3-5.9 2.8-7.95q0.7-1.9 1.4-5.35l0.5-3.05 1.2-0.7 2.6-1.3 3.9-1.5" fill="#e9eff8"/>
  <path d="m83.25 79.15q-0.3 0.95-1.4 2.6-2.15 3.35-6.1 6.8-6.35 5.5-17.1 8.85-0.55-0.1-2.25-8.7-3.2-1.5-3.2-1.9l0.45-1.15q-1.15-0.45-1.25-0.9-0.05-0.3 0.5-0.9l0.6-0.55q-1.55-0.8-1.65-1.45-0.15-0.85 2.35-1.25l12.4-0.85 7.25-0.45q6.25-0.35 9.4-0.15" fill="#e9eff8"/>
  <path d="m93 73 3.9 0.8 4.5 1.35-1.6 3.6q-0.4-0.65-1.45-1.35-1.05-0.65-1.9-0.9-0.7-0.15-2.25 0l-1.45 0.2 0.25-3.7" fill="#922f00"/>
  <path d="m92.75 77.15 1.3-0.4 2.7-0.15q1.8 0.35 3.05 2.15l-1.75 2.65q-1.5 1.6-2.85 1.25-1.3-0.35-2-2.95l-0.45-2.55" fill="#ed8599"/>
  <path d="m57.5 93.95 9.75-3.05 7.6-2.9 1.4-0.25q0.45 0.2-0.75 0.95-6.9 4.6-9.15 5.8-6.9 3.55-7.7 2.9-0.45-0.35-0.85-1.95l-0.3-1.5" fill="#c9cfd7"/>
  <path d="m40.25 42.05q4.1 7.25 8.8 12 7.8 8.1 20.3 13.95l1.7 3.25q2.5 3.9 6.6 7.2-3.7-1-8.65-3.25-9.85-4.5-15.8-10.7-9.85-10.3-12.4-17.4-0.8-2.25-0.75-3.85l0.2-1.2" fill="#dbc77f"/>
  <path d="m113.95 86.4 1.75-0.5 3.75-1.5q2.65-1.35 5.55-3.4 11.45 0.85 25.25-3.6 6.9-2.2 11.5-4.6-10.85 10.2-30.4 12.9l-12.35 0.85-5.05-0.15" fill="#dbc77f"/>
  <path d="m82.65 69.2-1.3 1.65q-0.8 0.75-1.15 0.6-0.5-0.2-0.85-3.35l3.3 1.1" fill="#bedfc2"/>
  <path d="m110.45 75.25 3.25 1.15-1.15 1.5q-0.8 0.75-1.25 0.7-0.35-0.05-0.65-1.45l-0.2-1.9" fill="#bedfc2"/>
  <path d="m85.9 60.9q0 1-0.75 1.75t-1.8 0.75-1.8-0.75-0.75-1.75q0-1.05 0.75-1.8t1.8-0.75 1.8 0.75 0.75 1.8" fill="#fff"/>
  <path d="m116.9 68.3q0 1.05-0.75 1.8-0.75 0.7-1.8 0.7t-1.8-0.7q-0.75-0.75-0.75-1.8t0.75-1.8 1.8-0.75 1.8 0.75 0.75 1.8" fill="#fff"/>
  <path d="m47.05 41.6 0.8 1.5 2.1 2.95q1.65 1.95 5.75 5.55l-1.3 2.05q-2.05 2.75-5.65 6.15-5.8 5.4-22.3 15.8-3.25-3.15-5.8-6.9-1.6-2.35-3.5-5.85l-1.55-3.05q8.9-2.65 16.25-6.5 4.6-2.4 10.35-7.3l4.85-4.4" fill="#60c0bd"/>
  <path d="m145.25 69.05 13.25 1.35 0.15 5.75q0.05 6.7-0.35 11.6-0.6 7.85-3.4 19.75l-16.85-4.8q3.25-9.3 5.15-16.75 1.2-4.7 1.75-11.25l0.3-5.65" fill="#60c0bd"/>
  <path d="m125 65.35q0.5-1.1 3.15-0.95 2.75 0.15 3.6 1.65l2.5 5.05q1.7 4.15 2.35 9.05 0.7 5.5-0.7 9.7-1.3 3.95-3.65 4.4-2.3 0.45-5.6-3.65-3.35-4.15-4.05-8.5-0.65-3.9 0.35-9.25 0.7-3.8 2.05-7.5" fill="#ffe792"/>
  <path d="m123.4 70.95 1.15-4.2q-1.2 4.8 0.7 13.85 2.15 10.1 6.45 10.1 1.55 0 2.95-2.85 1.3-2.7 1.3-5.2l0.2 5.7q-0.5 5.7-4 5.7-3.85 0-7.05-5.55-2.9-5-2.9-9.45 0-3.2 1.2-8.1" fill="#dbc77f"/>
  <path d="m62.8 60.55q4.1-4.9 7-7.15 1.9-1.35 3.6-1.8 2.85-0.85 2.55 2.15-1.05 10.85-5.15 18.8-2.5 4.85-6.55 7.45-3.6 2.35-5.15 1.25-2.3-1.7-3.15-3.45-1.55-3.1 0.15-7.15 1.8-4.25 6.7-10.1" fill="#ffe792"/>
  <path d="m75.25 56.55-0.45 3.8q-0.75 4.55-2.3 8.1-2.3 5.35-5.45 9.05-3.95 4.65-7.4 3.9-3.15-0.7-3.85-3.7l-0.1-2.75q0.05 1.1 1.65 2.2 1.65 1.1 3.3 1.1 3.25 0 8.3-7.45 5.1-7.5 6.3-14.25" fill="#dbc77f"/>
 </g>
 <path d="m85.9 60.944q0 1-0.75 1.75t-1.8 0.75-1.8-0.75-0.75-1.75q0-1.05 0.75-1.8t1.8-0.75 1.8 0.75 0.75 1.8" fill="#fff"/>
 <path d="m116.9 68.344q0 1.05-0.75 1.8-0.75 0.7-1.8 0.7t-1.8-0.7q-0.75-0.75-0.75-1.8t0.75-1.8 1.8-0.75 1.8 0.75 0.75 1.8" fill="#fff"/>
 <g transform="translate(0 .043883)">
  <path d="m81.15 81.25q1.95 0.35 1.6 3.2-0.4 2.85-2.45 2.6-2.1-0.3-5.55 0-3.55 0.25-7.2 1.05-3.05 0.7-12.7 4.3l-9.85 3.8-2.45-0.2-2-0.55q-0.35-0.05-5.15 2.7l-5.6 3.1-2.05-0.1q-1.1-0.45-1.8-1.25-0.5-0.6-3.75-1.55l-4.8-1.45-6.2-1.25-5.95-1.05q-1.7-0.3-1.95-1.05-0.35-0.8 1.45-1.6 4.15-1.75 11.55-3.95 11.7-3.45 23.5-5.3 12.95-2.05 24.95-2.3l16.4 0.85" fill="#ffe792"/>
  <path d="m98.2 90.3q-0.35-0.6 0.2-1.75 0.6-1.2 1.35-0.75l3.95 3.3 4.95 4.95q1.75 1.95 5.15 8.8 3.1 6.35 5.5 12.35 1.9 4.85 3 13 1 7.2 0.6 7.7-0.2 0.2-3.4-3.15l-3.95-4.2q-1.5-1.45-4.95-1.9-2.8-0.35-5.3-2.5-0.7-0.65-0.8-2.55l0.05-2.25-1.65-3.6-2.15-4.55q-0.45-1.25-0.55-5.75l0.1-7q0.15-2.45-0.6-5.75-0.65-2.95-1.5-4.4" fill="#ffe792"/>
  <path d="m13.05 95.35 8 0.85q5.15 0.25 7.3-0.15 2.55-0.4 6.8-2 3.6-1.3 5-1.25 6.5 0.3 16.3-3.35 3-1.15 9.55-2.1l11.3-0.55q-6.8 0.45-12.05 2-2.55 0.75-11.65 4.3-8 3.15-8.6 3.1l-4.5-0.55q-0.65 0.05-5.9 3.05-5.05 2.85-5.95 2.65l-2.75-1.35q-2.2-1.35-3.55-1.8l-9.3-2.85" fill="#dbc77f"/>
  <path d="m100.05 98.25q0-2.55-0.7-5.3l-0.75-2.25q1.6 1.95 3.05 10.8l1.55 10.7q0.35 1.65 2.2 5l2.5 5q0.6 1.85 2.9 2.85l3.6 1.5q1.65 1 4.2 4.2 2.85 3.5 4.15 6.55l-3.45-3.15-2.9-2.55-3-2.25-3.5-1.1q-2.95-0.85-4.15-1.8-1.3-1.05-1.3-2.45l0.3-1.65-0.65-1.9-1.2-2.45-1.45-2.9q-1-2.1-1.1-2.95-0.3-3.9-0.3-13.9" fill="#dbc77f"/>
  <path d="m101.6 85.1q2.05 2.95 5.6 10.25 3.75 7.6 4.85 11.45 2.25 3.35 1.65 3.8-0.65 0.45-1.65-0.35 0.3 1.8-0.15 2.05l-1.55-0.25q0.25 1.6-0.1 1.9-0.35 0.25-1.8-0.9-8.75 4.6-9.3 4.5-0.35-0.05-1.2-4.2-0.7-3.35-1.05-6l-1.65-9.6q-1.35-8.05-1.25-9.85 0.1-2 3.5-2.95l4.1 0.15" fill="#e9eff8"/>
  <path d="m99 106.9q0 1.15 0.8 4.35 0.8 3.25 1.1 3.3l3.05 0.2q-3.95 2.55-4.5 2.25-0.55-0.25-2.2-7.4l1.75-2.7" fill="#c9cfd7"/>
  <path d="m84.6 79.3q2.15 0.25 8.05 3.2 4.15 2.1 6.3 5.15 1 1.4 1.8 3.7 0.7 1.95 0.6 3.8-0.2 4.2-3.1 12.45-3.1 8.7-9.45 14.8-5.55 5.3-8.2 4.45-1.8-0.55-3.1-5.35l-0.95-4.7q-3.2-1.5-5.35-3.5l-1.45-1.7q-4.45-0.4-9.55-1.85-5.2-1.45-5.35-2.4-0.15-1.1 1.85-4.6 1.8-3.25 3.55-5.35 2.3-2.8 6.2-6.65 5.3-5.2 9.8-8.45 4.7-3.4 8.35-3" fill="#e9eff8"/>
  <g fill="#c9cfd7">
   <path d="m68.25 109.75q1.6 0.45 2.9 1.25 1.4 0.9-0.3 0.75l-8.3-1.2q-6.7-1.35-7.65-2.75-0.4-0.55 0.45-2.15l0.9-1.5q-0.45 0.95 2.8 2.5 3.35 1.6 9.2 3.1"/>
   <path d="m78.2 121.9q1.15 3.35 7.85-0.2 6.4-3.45 8.7-7.75l-1.05 2.8q-1.55 3.2-3.95 5.15l-5.3 3.75q-2.45 1.4-3.2 1.3-1.55-0.2-2.45-2.65l-0.6-2.4"/>
   <path d="m81.5 81.6q7.95 5.1 17.85 5.8l-1.9 1.15q-2.6 0.95-6.05 0.05t-7.05-4.05l-2.85-2.95"/>
  </g>
  <path d="m126.45 22.1q2.4 8.35 3.25 15.9 14.3 5.7 25.1 18.85 4.05 4.95 6.35 9.45 2.1 4.15 1.6 5.55-0.9 2.65-9.2 6.95-8.4 4.35-16.1 6.05-6.5 1.45-15.4 1.6l-7.65-0.15q6.5-2.2 7.95-3.6 1.95-1.9 3.25-8.35 1.15-5.6-3.2-10.3l-4.6-3.55q-8.05 3.65-18.7 1.7-6.2-1.1-11.55-5.65l-4.1-4.35q-2.55 0.7-5.5 2.25-5.95 3.2-7.9 7.65t2.1 10.75q2 3.15 4.4 5.4-20.5-8.1-30.6-21.45-3.6-4.8-5.15-9.35-1.25-3.8-0.55-5.4 1.4-3.3 5.7-5.8 3.9-2.35 11.7-4.8 6.25-1.95 14.75-3l7.2-0.7q10.1-14.8 21.7-22.25 9.45-6.05 13-4.15 7.45 4 12.15 20.75" fill="#ffe792"/>
  <path d="m105.15 11.7 12.9 4.35q-2.05 8.45-4.7 15.9-2.7 7.45-8.1 16.5-4.9-1.2-10.1-4l-4.25-2.6q5.55-8.95 8.55-14.85 3.05-5.9 5.7-15.3" fill="#60c0bd"/>
  <path d="m83.55 51.95 4.1 4.25q5.45 4.6 12.15 6.2 5.55 1.4 12.3 0.05l5.6-1.65 1 0.5 2.45 1.65q1.9 1.55 3.4 3.8l-0.5 1.4q-0.65 1.95-1.2 4.95-0.9 4.75-0.35 9.65-6.35 3.65-13.5 4.35-7.3 0.75-17.25-1.35-8.35-1.8-15.3-8.05l-5.3-5.9 2.8-7.95q0.7-1.9 1.4-5.35l0.5-3.05 1.2-0.7 2.6-1.3 3.9-1.5" fill="#e9eff8"/>
  <path d="m83.25 79.15q-0.3 0.95-1.4 2.6-2.15 3.35-6.1 6.8-6.35 5.5-17.1 8.85-0.55-0.1-2.25-8.7-3.2-1.5-3.2-1.9l0.45-1.15q-1.15-0.45-1.25-0.9-0.05-0.3 0.5-0.9l0.6-0.55q-1.55-0.8-1.65-1.45-0.15-0.85 2.35-1.25l12.4-0.85 7.25-0.45q6.25-0.35 9.4-0.15" fill="#e9eff8"/>
  <path d="m93 73 3.9 0.8 4.5 1.35-1.6 3.6q-0.4-0.65-1.45-1.35-1.05-0.65-1.9-0.9-0.7-0.15-2.25 0l-1.45 0.2 0.25-3.7" fill="#922f00"/>
  <path d="m92.75 77.15 1.3-0.4 2.7-0.15q1.8 0.35 3.05 2.15l-1.75 2.65q-1.5 1.6-2.85 1.25-1.3-0.35-2-2.95l-0.45-2.55" fill="#ed8599"/>
  <path d="m57.5 93.95 9.75-3.05 7.6-2.9 1.4-0.25q0.45 0.2-0.75 0.95-6.9 4.6-9.15 5.8-6.9 3.55-7.7 2.9-0.45-0.35-0.85-1.95l-0.3-1.5" fill="#c9cfd7"/>
  <path d="m40.25 42.05q4.1 7.25 8.8 12 7.8 8.1 20.3 13.95l1.7 3.25q2.5 3.9 6.6 7.2-3.7-1-8.65-3.25-9.85-4.5-15.8-10.7-9.85-10.3-12.4-17.4-0.8-2.25-0.75-3.85l0.2-1.2" fill="#dbc77f"/>
  <path d="m113.95 86.4 1.75-0.5 3.75-1.5q2.65-1.35 5.55-3.4 11.45 0.85 25.25-3.6 6.9-2.2 11.5-4.6-10.85 10.2-30.4 12.9l-12.35 0.85-5.05-0.15" fill="#dbc77f"/>
  <path d="m82.65 69.2-1.3 1.65q-0.8 0.75-1.15 0.6-0.5-0.2-0.85-3.35l3.3 1.1" fill="#bedfc2"/>
  <path d="m110.45 75.168 3.2461 1.232-1.15 1.5c-0.53333 0.5-0.95 0.73333-1.25 0.7-0.23333-0.03333-0.44609-0.5987-0.64609-1.532l-0.2-1.9" fill="#bedfc2"/>
  <path d="m85.9 60.9q0 1-0.75 1.75t-1.8 0.75-1.8-0.75-0.75-1.75q0-1.05 0.75-1.8t1.8-0.75 1.8 0.75 0.75 1.8" fill="#fff"/>
  <path d="m116.9 68.3q0 1.05-0.75 1.8-0.75 0.7-1.8 0.7t-1.8-0.7q-0.75-0.75-0.75-1.8t0.75-1.8 1.8-0.75 1.8 0.75 0.75 1.8" fill="#fff"/>
  <path d="m47.05 41.6 0.8 1.5 2.1 2.95q1.65 1.95 5.75 5.55l-1.3 2.05q-2.05 2.75-5.65 6.15-5.8 5.4-22.3 15.8-3.25-3.15-5.8-6.9-1.6-2.35-3.5-5.85l-1.55-3.05q8.9-2.65 16.25-6.5 4.6-2.4 10.35-7.3l4.85-4.4" fill="#60c0bd"/>
  <path d="m145.25 69.05 13.25 1.35 0.15 5.75q0.05 6.7-0.35 11.6-0.6 7.85-3.4 19.75l-16.85-4.8q3.25-9.3 5.15-16.75 1.2-4.7 1.75-11.25l0.3-5.65" fill="#60c0bd"/>
  <path d="m125 65.35q0.5-1.1 3.15-0.95 2.75 0.15 3.6 1.65l2.5 5.05q1.7 4.15 2.35 9.05 0.7 5.5-0.7 9.7-1.3 3.95-3.65 4.4-2.3 0.45-5.6-3.65-3.35-4.15-4.05-8.5-0.65-3.9 0.35-9.25 0.7-3.8 2.05-7.5" fill="#ffe792"/>
  <path d="m123.4 70.95 1.15-4.2q-1.2 4.8 0.7 13.85 2.15 10.1 6.45 10.1 1.55 0 2.95-2.85 1.3-2.7 1.3-5.2l0.2 5.7q-0.5 5.7-4 5.7-3.85 0-7.05-5.55-2.9-5-2.9-9.45 0-3.2 1.2-8.1" fill="#dbc77f"/>
  <path d="m62.8 60.55q4.1-4.9 7-7.15 1.9-1.35 3.6-1.8 2.85-0.85 2.55 2.15-1.05 10.85-5.15 18.8-2.5 4.85-6.55 7.45-3.6 2.35-5.15 1.25-2.3-1.7-3.15-3.45-1.55-3.1 0.15-7.15 1.8-4.25 6.7-10.1" fill="#ffe792"/>
  <path d="m75.25 56.55-0.45 3.8q-0.75 4.55-2.3 8.1-2.3 5.35-5.45 9.05-3.95 4.65-7.4 3.9-3.15-0.7-3.85-3.7l-0.1-2.75q0.05 1.1 1.65 2.2 1.65 1.1 3.3 1.1 3.25 0 8.3-7.45 5.1-7.5 6.3-14.25" fill="#dbc77f"/>
 </g>
 <path d="m85.9 60.944q0 1-0.75 1.75t-1.8 0.75-1.8-0.75-0.75-1.75q0-1.05 0.75-1.8t1.8-0.75 1.8 0.75 0.75 1.8" fill="#fff"/>
 <path d="m116.9 68.344q0 1.05-0.75 1.8-0.75 0.7-1.8 0.7t-1.8-0.7q-0.75-0.75-0.75-1.8t0.75-1.8 1.8-0.75 1.8 0.75 0.75 1.8" fill="#fff"/>
 <g transform="matrix(.33101 0 0 -.33093 63.391 6.7147)">
  <path d="m161.68-186.12c0 4.225-3.425 7.648-7.648 7.648s-7.651-3.423-7.651-7.648c0-4.224 3.428-7.65 7.651-7.65s7.648 3.426 7.648 7.65m-10.711-24.497c-0.615 0.021-1.854 0.182-1.854 0.182l-5.751 2.529 5.751-2.529 1.854-0.182m15.081 15.208c-1.581-8.787-6.793-14.225-12.911-15.096 0.046-0.235 0.124 0.224 0 0l-2.17-0.112-1.854 0.182c-5.9809 1.6906-7.468 4.1-7.468 4.1 0 0.342-0.31501-0.0619-0.065 0.13005-3.276 3.621-4.676 9.121-3.43 15.797 1.664 8.926 9.071 14.86 16.975 13.886 8.054-0.987 12.336-11.028 10.923-18.887m-98.075 31.689c0 4.227-3.424 7.65-7.647 7.65-4.227 0-7.649-3.423-7.649-7.65 0-4.224 3.422-7.648 7.649-7.648 4.223 0 7.647 3.424 7.647 7.648m-13.929-24.858s-3.23 1.167-4.591 2.165l4.591-2.165s-0.816-1.429 0 0m18.028 13.931c-2.517-8.671-7.253-13.417-12.888-14.223-2e-3 -0.153 0.103 0.454 0 0l-5.14 0.292-4.591 2.165s-1.58 1.526-1.827 1.623c-0.037 0.355-0.25-0.216 0 0-3.468 3.725-4.968 9.65-2.87 16.7 3.002 10.108 10.733 16.092 18.846 13.386 8.057-2.686 10.476-13.029 8.47-19.943m91.234 145.22c-2.782 0.952-32.623 11.177-35.866 12.287-7.532-28.63-27.368-73.244-41.751-89.339 5.027-3.044 20.655-11.94 40.341-17.854 4.205 7.412 26.982 48.892 37.276 94.906m4.014 0.818c-11.226-51.782-38.15-99.492-38.423-99.957-0.432-0.73-1.304-1.076-2.119-0.84-25.108 7.28-46.137 20.567-46.33 20.692-1.542 1.011-1.472 1.69-0.294 2.869 14.137 14.136 37.091 63.091 44.205 91.556 0.265 1.054 1.319 1.683 2.393 1.313l39.358-13.482c0.895-0.307 1.408-1.23 1.21-2.151m-53.932-179.06c-5.242 1.914-15.817 4.583-22.736 5.889-0.437-3.2-0.62-6.223-0.587-9.001 6.899 3.688 16.017 0.781 19.802-4.947 1.105 2.27 2.274 4.937 3.521 8.059m-4.6-10.191c-2.172 4.186-13.315 7.43-18.601 4.134 0.551-7.649 2.873-12.884 5.995-13.775 3.707-1.059 7.43-0.168 12.606 9.641m13.372 9.345c-2.122-0.95-4.566-0.627-6.125-0.164-8.647-21.724-14.251-24.335-20.88-22.442-7.463 2.136-9.231 16.362-7.324 29.829-0.389 0.058-0.759 0.111-1.096 0.153-2.023 0.253-4.099 1.003-6.014 3.187-2.097 2.402-1.043 3.158 1.641 1.367 1.364-0.911 3.503-1.575 4.917-1.821 7.286-1.276 23.122-5.238 28.871-7.195 1.103-0.377 4.094-0.91 5.282-0.611 3.131 0.789 3.666-0.984 0.728-2.303m80.289 111.83c0.106-2.076 0.179-4.145 0.21-6.2 0.064-4.59-2.376-4.304-2.586 0.282-2.13 47.399-30.957 111.72-47.455 116.31-14.449 4.024-75.235-33.765-101.9-78.386-0.316-0.53-0.872-0.868-1.49-0.903-1.035-0.06-101.88-6.703-116.48-42.402-0.304-0.743-0.521-1.576-0.654-2.489-0.342-2.327-0.128-5.186 0.645-8.464 1 0.82 1.993 1.648 2.976 2.485 4.741 4.037 9.282 8.273 13.544 12.675 0.714 0.738 2.299 0.811 2.963-0.394 7.403-13.398 26.367-30.301 26.561-30.469 0.72-0.637 0.835-1.715 0.266-2.489-3.83-5.232-8.157-10.322-12.786-15.224-2.57-2.722-5.233-5.384-7.957-7.98 6.457-6.944 14.128-14.032 23.046-20.951 2.419 3.935 5.154 7.866 8.074 11.674 9.191 11.989 20.204 22.748 28.899 28.483 1.108 0.731 1.98 0.987 2.511 0.93 0.961-0.103 0.792-1.249-1.216-2.571-12.103-7.987-27.652-28.542-37.161-45.879-4.245-7.742-5.532-14.317-5.023-19.614 0.602-6.24 3.702-10.704 7.431-13.189 7.016-4.68 19.682-3.091 33.456 18.838 6.118 9.749 12.126 28.641 15.721 44.36 1.325 5.798 2.326 11.169 2.878 15.484 0.187 1.46 0.675 2.302 1.163 2.567 0.742 0.403 1.488-0.534 1.204-2.75-0.095-0.74-0.203-1.522-0.318-2.322 6.899 4.824 17.806 9.815 21.549 10.564 0.731 0.146 1.479-0.16 1.902-0.774 0.158-0.233 16.351-24.187 45.544-30.236 21.244-4.402 39.228-2.353 55.986 4.949 0.495 0.218 1.065 0.206 1.551-0.03 6.002-2.892 13.794-9.88 19.097-17.536 1.328 2.718 2.652 3.441 3.009 2.524 0.233-0.596 0.058-1.874-0.799-3.747-1.04-2.272-1.97-4.941-2.78-7.864-3.64-13.146-4.796-31.491-2.135-42.585 4.867-20.281 16.971-33.086 26.086-32.386 5.916 0.457 11.066 9.401 10.995 28.739-0.014 4.235-0.276 8.959-0.839 14.211-1.043 9.733-5.882 27.777-10.927 36.424-1.172 2.009-1.172 3.34-0.591 3.711 0.613 0.389 1.872-0.291 3.106-2.41 5.241-8.987 11.868-26.311 12.992-36.799 0.162-1.521 0.293-2.993 0.406-4.439 0.307-3.9 0.439-7.536 0.41-10.9 6.368 1.339 12.255 2.845 17.69 4.462 0.69 3.5 1.314 6.939 1.863 10.279 2.014 12.281 3.006 23.223 2.519 30.88-0.096 1.491 0.745 2.048 1.97 1.972 17.718-1.085 40.713-4.354 40.943-4.385 0.896-0.127 1.566-0.878 1.594-1.78 0.12-3.615 0.189-7.168 0.217-10.663 4e-3 -0.484 0.01-0.969 0.013-1.45 1.109 0.989 2.07 1.918 2.892 2.773 2.308 2.402 3.52 4.226 3.771 5.13 4.505 20.256-52.573 84.395-94.555 99.955m84.174-109.53c0 3.935-0.078 7.993-0.197 12.099-5.089 0.698-22.41 2.985-37.048 3.99 0.026-0.786 0.07-1.525 0.07-2.366 0-23.652-9.516-67.914-20.921-96.573 6.682-1.278 27.562-5.541 46.476-12.131 2.343 8.285 11.62 44.291 11.62 94.981m-106.59-33.238c-0.788 2.056-1.503 4.213-2.12 6.476-5.518-2.898-11.158-5.241-16.929-7.073 6.632 0.044 12.982 0.248 19.049 0.597m-145.65 27.31c-4.229 3.87-7.781 7.812-10.611 11.706-0.755-1.512-1.524-2.908-2.306-4.155-0.265-0.42-0.529-0.824-0.792-1.232 4.397-2.186 8.969-4.297 13.709-6.319m-15.56 3.55c-2.826-4.066-5.655-7.442-8.459-10.172 10.449 0.708 21.072 1.145 29.458 1.27-7.448 2.841-14.44 5.818-20.999 8.902m158.22-20.808c-2.635 13.483 1.051 34.991 6.252 48.065-7.603 9.568-16.572 14.809-19.021 16.131-17.236-7.298-35.396-8.649-57.069-4.157-27.458 5.689-43.498 25.214-47.086 30.013-4.567-1.31-16.813-6.842-21.769-9.897-2.301-13.935-6.956-33.681-12.718-47.142 5.057-7.288 12.839-15.135 23.006-22.385 2.716-1.937 5.61-3.827 8.658-5.656 4.371-2.623 9.058-5.119 14.076-7.407 4.66-2.127 5.786-3.989 3.886-4.082-0.711-0.036-1.848 0.181-3.388 0.724-0.504 0.178-1.036 0.378-1.626 0.629-5.271 2.248-10.17 4.696-14.723 7.278-3e-3 2e-3 -7e-3 3e-3 -0.01 5e-3 -4.171 2.366-8.055 4.843-11.604 7.403-10.06-0.377-25.014-1.675-38.271-2.893-8.051-5.823-15.756-6.26-22.427-2.031-0.998-0.089-1.629-0.145-1.659-0.147-6.461-1e-3 -14.176-0.509-14.176-1.745 0-1.035 1.505-2.726 3.432-3.135 2.251-0.475 2.149-2.072 0.639-2.549-1.731-0.545-2.401-1.79-2.401-2.334 0-0.64 1.182-2.285 3.399-2.493 2.006-0.188 1.345-1.514 0.186-2.094-1.199-0.601-1.883-1.902-1.883-2.513 0-0.947 2.293-2.454 7.226-3.112 0.794-0.106 1.429-0.707 1.578-1.493 1.121-5.842 2.55-12.178 3.863-17.018 1.037-3.823 2-6.713 2.679-7.684 3.468 0.236 25.961 6.651 50.09 24.393 1.413 1.038 2.417 1.244 2.843 0.953 0.559-0.383 0.113-1.629-1.742-2.997-16.275-11.97-32.336-20.517-42.467-24.735-7.654-8.269-13.577-16.156-16.541-22.012-2.067-4.086-2.698-7.187-1.463-8.733 3.538-4.424 35.885-10.995 45.903-11.542 1.815-0.099 2.525-0.961 2.138-1.625-0.25-0.431-0.958-0.779-2.138-0.779-0.135 0-0.305 5e-3 -0.473 0.01 4.681-5.74 16.198-13.368 21.129-14.511 4.027-0.933 4.66-2.763 0.103-2.218-0.653 0.079-1.326 0.201-2.011 0.359 0.787-5.595 2.381-10.91 4.149-15.275 2.279-5.623 4.85-9.667 6.361-10.673 4.102-2.739 25.574 7.865 40.754 33.253 1.034 1.73 2.04 3.527 3.009 5.394 13.778 26.574 19.256 47.108 16.751 62.776-0.305 1.907-5e-3 3.027 0.472 3.291 0.56 0.312 1.367-0.57 1.728-2.816 1.989-12.428 0.124-27.523-6.978-45.902-0.66-1.707-1.369-3.446-2.12-5.21 1.212-10.469 2.863-18.883 3.917-21.123 1.679 0.388 5.621 1.893 10.488 4.006 4.476 1.942 9.735 4.397 14.768 6.988 0.72 0.371 1.596 0.231 2.165-0.339 1.381-1.381 3.023-2.448 3.621-2.048 1.434 0.955-0.535 5.216 0.135 5.6 0.957 0.546 3.711-1.294 4.495-0.646 0.7 0.576-0.012 5.138 0.493 5.494 0.673 0.477 3.701-1.323 4.247-0.659 0.6 0.728-1.962 4.762-4.136 7.766-0.165 0.222-0.271 0.484-0.325 0.757-0.515 2.833-18.435 47.088-26.29 58.945-3.514 0.184-7.073 0.499-10.679 0.935-1.388 0.168-2.78 0.35-4.182 0.554-0.18 0.027-0.341 0.061-0.504 0.094-1.666 0.348-2.382 1.062-2.23 1.646 0.156 0.597 1.211 1.052 3.095 0.819 26.458-3.276 50.65-0.047 72.376 11.529m-40.182-43.863c6.051-13.391 11.34-26.477 12.123-29.523 4.53-6.32 5.305-10.726 3.809-12.227-1.133-1.126-2.58-1.186-4.032-0.872 0.327-2.083-0.154-4.096-1.042-4.711-0.906-0.626-2.661-0.467-3.993-0.082 0.325-1.689 0.145-3.779-0.97-4.614-1.705-1.279-4.08-0.393-7.082 2.29-4.129-2.332-7.894-4.415-11.251-6.218-1.798-0.966-3.476-1.849-5.032-2.647 0.457-0.825 0.921-1.645 1.393-2.458 2.783-4.768 5.435-9.33 5.68-13.996 0.068-1.236-0.039-2.479-0.353-3.736-0.146-0.578-0.202-1.159-0.173-1.748 0.078-1.408 0.657-2.838 1.75-4.264 4.169-5.446 14.19-9.242 20.929-9.368 8.39-0.157 22.576-16.458 29.623-25.235-0.021 0.199-0.045 0.396-0.066 0.595-5.181 47.781-22.205 91.301-41.313 118.81m-158.87 18.028c-0.263 1.409-0.533 2.909-0.813 4.511-0.121 0.694-0.243 1.404-0.367 2.137-5.568 1.046-9.87 3.818-9.87 6.92 0 1.174 0.757 2.07 1.725 2.846-3.141 1.333-3.545 3.557-3.545 4.439 0 0.538 0.044 1.795 2.391 3.094-2.304 1.09-3.688 2.857-3.854 4.574-51.474-5.505-107.92-18.125-143.77-35.77 8.593-1.198 24.972-3.69 39.903-7.138 13.629-3.147 26.051-7.09 30.234-11.573 4.449-4.764 13.669 0.677 22.588 5.94 9.029 5.328 17.559 10.36 23.873 7.204 3.829-1.918 15.651 2.727 29.339 8.105 3.839 1.508 7.913 3.107 12.167 4.711m-2.983 118.99c-4.232 3.879-17.719 16.663-24.825 28.213-26.662-26.897-62.149-47.87-91.867-54.343 4.113-7.324 18.608-32.331 30.281-43.141 8.033 4.352 59.07 32.915 86.411 69.271m327.36-61.618c-0.374-1.679-4.192-6.305-12.039-11.99-0.421-56.496-11.746-95.048-11.88-95.458-0.27-0.866-1.227-1.609-2.401-1.188-22.882 8.225-50.723 13.794-50.994 13.84-1.177 0.209-1.866 1.398-1.393 2.539 6.596 15.995 12.789 37.571 16.926 57.595-5.322-1.514-11.026-2.925-17.118-4.19-0.716-19.066-6.905-28.744-15.209-29.385-8.669-0.667-20.164 8.09-27.065 23.803-9.88-0.638-20.448-0.896-31.719-0.696-8.681-1.713-17.655-2.383-26.95-2.117 2.362-3.629 5.28-9.117 8.311-15.304 23.741-25.95 47.16-75.061 52.203-135.25 0.614-7.324-2.235-6.958-6.443-1.703-8.643 10.804-22.147 26.104-28.047 26.214-7.578 0.145-19.198 3.11-24.175 9.615-2.233 2.92-2.641 7.305-1.867 10.388 1.139 4.536-1.672 9.369-4.935 14.961-0.494 0.851-1.033 1.724-1.588 2.618-5.017-2.442-8.247-3.648-9.31-3.342-2.172 0.619-3.675 8.853-4.529 19.593-0.979-2.047-2.01-4.125-3.11-6.245-15.823-30.522-40.453-46.601-49.366-40.668-3.714 2.476-10.123 16.965-11.932 30.845-8.309 3.21-17.391 10.484-20.21 15.577-12.301 1.273-39.721 5.616-43.984 10.947-3.999 5 2.132 17.283 13.558 30.675-1.127-0.265-1.963-0.356-2.449-0.259-0.954 0.19-2.777 2.136-5.695 16.303-4.195-1.703-8.206-3.351-11.977-4.831-16.285-6.401-26.84-9.052-32.152-6.396-4.505 2.253-12.431-3.858-20.205-8.447-10.186-6.01-20.709-12.219-27.195-5.273-7.987 8.558-59.044 16.999-76.888 19.206-3.143 0.385-2.124 2.687-0.658 3.481 40.099 21.591 101.93 35.085 157.63 39.748 2.578 0.827 6.438 1.294 11.542 1.399-6.077 6.829-9.193 19.316-0.416 35.327 0.128 0.232 0.262 0.465 0.392 0.698-9.701 7.118-17.768 14.367-24.418 21.46-29.836-27.26-65.119-46.324-65.579-46.563-0.678-0.355-1.505-0.257-2.082 0.247-14.292 12.462-33.58 47.153-34.345 48.562-0.716 1.315 0.24 2.511 1.282 2.712 23.113 4.465 51 18.055 74.95 36.766-2.155 7.356-2.282 12.959-1.093 15.863 14.895 36.419 109.34 43.55 120.32 44.257 29.735 50.11 89.253 86.601 106.5 81.799 18.754-5.22 44.071-61.121 47.668-113.08 47.273-16.951 105.42-80.834 100.13-104.65m-214.63-108.46c-24.772-11.837-61.583 9.449-63.017 38.793-0.204 4.198 2.065 4.337 2.399 0.15 1.722-21.779 36.762-46.409 59.191-36.757 6.142 2.642 7.457 0.696 1.427-2.186" fill="#0f141b"/>
 </g>
 <path d="m81.25 69.144q-1.95-0.45-2.85-2.3-0.95-1.95-0.2-4.5 0.75-2.5 2.5-3.75 1.75-1.3 3.75-0.65 1.85 0.65 2.65 2.8 0.7 1.9 0.15 3.8-0.8 2.75-2.45 3.95-1.55 1.15-3.55 0.65" fill="#0f141b"/>
 <path d="m109.1 69.744q0.4-2.2 2.05-3.5 1.6-1.3 3.55-1.1 1.95 0.25 3 2.3 1 1.9 0.65 3.95-0.5 2.6-2.1 4-1.55 1.35-3.55 1-2-0.4-3.05-2.2-1.05-1.85-0.55-4.45" fill="#0f141b"/>
 <g fill="#fff">
  <path d="m85.9 60.944q0 1-0.75 1.75t-1.8 0.75-1.8-0.75-0.75-1.75q0-1.05 0.75-1.8t1.8-0.75 1.8 0.75 0.75 1.8"/>
  <path d="m116.9 68.344q0 1.05-0.75 1.8-0.75 0.7-1.8 0.7t-1.8-0.7q-0.75-0.75-0.75-1.8t0.75-1.8 1.8-0.75 1.8 0.75 0.75 1.8"/>
  <path d="m85.9 60.944q0 1-0.75 1.75t-1.8 0.75-1.8-0.75-0.75-1.75q0-1.05 0.75-1.8t1.8-0.75 1.8 0.75 0.75 1.8"/>
  <path d="m116.9 68.344q0 1.05-0.75 1.8-0.75 0.7-1.8 0.7t-1.8-0.7q-0.75-0.75-0.75-1.8t0.75-1.8 1.8-0.75 1.8 0.75 0.75 1.8"/>
 </g>
</svg>
