<?xml version="1.0" encoding="UTF-8"?>
<svg version="1.1" viewBox="0 0 260.19 314.67" xmlns="http://www.w3.org/2000/svg">
 <g transform="translate(-.01383 -.028571)">
  <path d="m178.05 179.05q1.75 3.5 2.75 13.45 1.05 10.35 0.3 18.75-0.7 7.35-8.6 22.4-8.85 16.9-10.5 23-1.1 4.25-1.55 8.1-0.55 4.85 0.4 6.7-0.1 3-1.25 4.7-1.9 2.75-6.8 3.4-5.35 0.7-9.8-0.9-4.1-1.45-8.55-5.25-0.2-5.15-2.05-9.05-1.4-3-4.5-6.45-3.05 1.05-9.5 2.3l-9.7 1.4q-9.75 0.65-16.15 6.15-4.1 3.45-7.5 9.8-2.2 4.05-6.85 6.1-3.95 1.7-8.2 1.5-3.45-0.2-5.6-2.2-1.65-1.5-3.15-4.85-1.05-2.45-1.15-6.9l0.15-8q0-3.35-2.85-16.6l-5.6-25.55q12.2-9 24.05-18.65 13-10.55 18.95-16.45l19.75-19.55q9.95-10.25 20.1-23.3-1.25 11.9 2.25 19.45 2.55 5.55 6.6 7.2 3-5.45 3.7-12.55 0.9-8.65-2.25-16.1 4.6 3.8 8.9 8.3l6.15 6.45q2.3 2.2 8.7 10.85l9.35 12.35" fill="#9ed8f5"/>
  <path d="m167.75 82.9q0.9 4.95-0.55 14.8-1.55 10.8-4.6 15.7-4.05 6.5-7.65 6.1-3-0.3-5.45-5.3 0.05-2.9 0.7-4.65 0.5-1.35 1.65-2.6 3.45-3.65 8.1-10.7 4.5-6.85 7.8-13.35" fill="#9ed8f5"/>
  <path d="m162.9 105.9q-1.95 4.75-5.35 5.35-1.5 0.3-3.15-0.4-1.7-0.7-2.7-2.25l0.1-1.45q3.15-3.25 6.15-7.1l6.2-2.35q0.45 4-1.25 8.2" fill="#fff"/>
  <path d="m107.15 83.8q4.2-14.05 14.15-20.15 4.2 4.75 7.15 14.3 3.85 12.65 3.5 28.85-3.35 4.6-11.55 5.25-8.6 0.75-11.7-4.35-5.85-9.55-1.55-23.9" fill="#9ed8f5"/>
  <path d="m111.35 93.55q-0.65-4.3 0.7-8.2 0.45-1.25 1.55-2.9 1-1.5 1.7-2.15 3.2 2.3 8.15 6.75 5.9 5.3 8.15 8.4l-0.85 2.2q-2.55 4.05-6.85 5.4-4.95 1.55-8.9-2.1-2.95-2.75-3.65-7.4" fill="#fff"/>
  <path d="m125.25 88.55q1 4.65-1 8.5-2.1 4.05-5.8 3.4-3.1-1.2-1.8-7.25 1.35-6.2 5.6-6.95l3 2.3" fill="#36a0da"/>
  <path d="m151.7 107 4.7-5.15 3.3-2.15q0.4 4.55-0.85 7.3-1.15 2.45-3.85 3.8-0.6-0.15-1.7-0.8l-1.5-1.1-0.1-1.9" fill="#36a0da"/>
  <path d="m154.05 82.05q2-1.4 8.15-8.35-0.45 6.4-3.7 13.4-3.35 7.15-8.4 12.3-0.75-8.1-2.45-10.7l-3.7 4.85q-2.25 2.9-3.95 4.45l-0.75-14.55q-0.75-10.1-1.9-14.4 1.45 1.1 2.9 3.85l2.4 5q4-5.7 6.2-10.2 3.1 3.95 5.2 14.35" fill="#9ed8f5"/>
  <path d="m162 47.85q4.45-2.6 9.2-3.9 7.1-1.95 6.9 7.85-0.25 12.25-9.6 30.3-7.95 15.35-16.65 24.85-1.6 1.75-2.05 4.75l-0.25 4.5q-0.05 1.05-0.95 1.35l-1.95-0.1q-4 1.95-7.9 1.25-3.4-0.65-5.35-2.9-1.55-1.75-2-4.15-0.2-1.4-0.05-3.55 1.6-16.15-2.55-29.5-3.6-11.65-10.55-18.25-2.3-2.25-4.15-1.65-1.5 0.5-3.25 3.3-2.1-7.3-2.25-16.45-0.15-9 1.6-16 1.15-4.35 3.1-5.05 2-0.8 5.25 2.1 11.4 10 16.5 31 3.35 13.65 5.1 40.1 1.35-1.05 3.6-3.9l3.85-4.85q1.45 2.35 2.5 10.45 5.75-6.15 9.45-15.4 3.35-8.35 3.05-13.75-0.3-5.1-2.8-8.8-2.05-3-6.55-6.35 3.5-4.2 8.75-7.25" fill="#f9bf3d"/>
  <g fill="#fff">
   <path d="m113.75 179.9q3.3 0.3 4.8 5.4 1.35 4.45 0.55 8.4-1.05 5.05-2.85 8.15-2.65 4.65-6.45 3.95-3.85-0.7-4.7-5.95-0.65-4 0.45-8.9 0.9-4.15 3.2-7.5 2.5-3.75 5-3.55"/>
   <path d="m107 216.95q3.15 0.85 3.8 6.6 0.5 4.35-0.45 9.2-0.75 3.85-3.65 7.95-3.5 4.95-6.95 4.2-3.85-0.9-4.75-6.25-0.75-4.45 0.65-10.55 1.2-5.35 4.55-8.7 3.4-3.4 6.8-2.45"/>
   <path d="m160.3 240.2q-2.8-0.65-3.3-5.95-0.4-4.4 0.75-9.55 1-4.5 3.3-7.85 2.45-3.6 4.55-3.1 2.7 0.65 3.9 5.45 0.95 4.05 0.45 7.95-0.45 3.75-3.45 8.45-3.4 5.2-6.2 4.6"/>
   <path d="m165.9 177.75q2.8-0.35 4.95 4.55 1.65 3.75 2 7.45 0.3 3.75-0.55 7.45-1.15 5-3.85 5.35-2.75 0.4-4.75-3.85-1.6-3.4-2.3-8.85-0.6-4.75 0.65-8.2 1.25-3.6 3.85-3.9"/>
  </g>
  <path d="m249.85 198.15q4.8 7.35 7.35 13.2 2.5 5.8 1.65 7.6-1.75 3.85-24.25-0.15-23.2-4.1-35.9-11.4 13.5 4.85 23.75 3.7 9.95-1.15 12.5-7.3 4.15-10.1-11.2-34.1 14.15 10.35 26.1 28.45" fill="#9ed8f5"/>
  <path d="m163.7 160.55q-10.45-12.35-18.75-19.6 3 6.85 2 16.6-0.85 8.75-3.6 12.05-4.95-1.45-7.3-8.2-2.45-7.25-1-18.15-13.15 16.2-30.8 33.6-13.45 13.25-26.5 24.3-15.4 12.95-35.6 26.2-24.1 15.8-39.8 21.5 4.25-9.35 18-23.2 14.05-14.15 29.85-24.65 3-20.55 12.1-38.15 2.65-5.25 7.75-13.55l7.1-12.3q5.4-10.45 17.35-45.25 4.25-12.5 10.65-22.9 6.2-10.2 9.5-10.5 1.65-0.1 6.65 5.3-10.85 6.6-14.7 20.65-3.6 13.3 1.35 22.4 3.05 5.55 11.9 5.35 8.5-0.25 11.9-5.05-1.3 9.1 4.85 11.25 4.6 1.55 10.05-0.8 1.5 0.7 2.25-0.5 0.65-1 0.6-2.75 2.65 6.8 7.75 4.95t7.4-10.55q-3.9 18.5-2.65 24.9 15.65 6.9 30.2 15 18.75 10.45 30.6 20.25 18 26.15 11.75 36.1-2.6 4.15-8.6 5.8l-13.45 0.4q-17.15-2.65-31.3-15.6l-0.95-7.9q-0.55-2.45-2.9-8.35-3.25-6.35-13.65-18.65" fill="#005b96"/>
  <path d="m151.75 73.5q-1-2.8-2.75-6.15l-2.6 5.9q-1.95 4-3.55 6.25l-2.7-5.85q-1.3-2.75-2.55-3.95-0.6-4.35-2.15-10.25-1.4-5.55-2.95-9.8 5.8-0.25 11.55 1.4 6.3 1.8 11.25 5.55 8.45 6.35 6.6 17.65l-3.4 3.65-4.45 4.15q-1-4.95-2.3-8.55" fill="#005b96"/>
  <path d="m84.55 278.05q-1 2.65 0.65 6.85l3.2 6.35 3.5 6.5q2.2 4.3 2.55 6.2 0.4 2.1-1 2.45-1.2 0.35-2.65-0.75l-4.85-2.95q-3.45-1.95-6.35-3.4-2.45 4.05-7 8.9-4.65 4.95-6 4.85-1.25-0.05-2.85-5.4-1.3-4.35-2.1-9.3-6.55 3.2-14.4 7.85-1.9 1.1-2.55 0.3-0.6-0.75-0.05-2.55 1.1-3.55 4.45-10.3 2.95-5.95 4.9-9.05l3.1-4.85q1.5-2.7 2.6-6.25 1.8 11.45 11.3 11.85 3.9 0.15 7.65-1.8 3.9-2.05 5.9-5.5" fill="#f9bf3d"/>
  <path d="m134.45 273.4q4.1 4.15 10.1 5.65l8.75 0.45q7.35-1.2 7.4-8.35 0.8 1.85 4.55 3.4 16.7 6.9 21.2 11.05 2.6 2.4-3 2.85l4.5 4.5q0.9 1 0.15 1.45l-2.4-0.05q-4.25-1.15-10-1.9l2.55 3.25 1.95 3.1q0.6 1.2 0.15 1.7l-2.15-0.1q-8.3-3.4-22.5-7.45-10.6-3-19.1-4.9-3-0.7-3.65-3.1-0.4-1.6 0.2-3.8 0.7-2.5 1.3-7.75" fill="#f9bf3d"/>
  <path d="m181.3 195.6q-1.3-9.1-3.25-16.15-2.05-7.55-5.35-14.75l-7.45-19.4q15 6.9 33.2 18.4 19.85 12.5 35.55 25.55 3.75 11.65 0 16.65-2.4 3.25-8.1 4.6-9.2 2.15-24.65-1.65-11.45-5.45-19.95-13.25" fill="#004a7e"/>
  <path d="m257.9 212.9q2.1 4.45 0.9 6.25-1.25 1.85-6.75 1.5-30.45-2.15-50.8-11.8 15.45 3.8 24.65 1.65 5.7-1.35 8.1-4.6 3.75-5 0-16.65 14.8 12.3 23.9 23.65" fill="#88bbd5"/>
  <path d="m123 237.85q21.9-2.6 37.6-10.3 17.1-8.4 20.9-20.25-0.8 5.85-4.85 16.4-4.15 10.8-8.55 18.15-5 9.05-7 18.35-0.9 4.1-1 6.25-0.2 3.05 0.75 5.2-0.15 3.9-3.3 6.25-2.9 2.15-6.55 1.9-5.05-0.25-7.85-1.1-4.95-1.5-8.65-5.45-0.5-9.75-6.45-15.5-9.95 2.7-20.05 3.75-5.7 0.55-9.4 2.35-7.15 3.45-13.25 12.55-3.3 4.85-6.55 7-4 2.7-8.8 2-5-0.7-7.8-5.25-2.6-4.25-1.95-9.65 0.8-6.2-2.2-21.55-3.8-17.75-5.1-25.45 9.4 9.65 29.6 13.45 18.75 3.5 40.45 0.9" fill="#88bbd5"/>
  <path d="m84.5 278.7q-0.75 3.1 2.25 9.5 1.7 3.55 5.25 9.9-7.65-7.85-20.9-8.55-11.2-0.55-21.8 3.75 1.45-3.45 5.4-9.75 3.9-6.15 5.25-9.6 0.95 5.35 3.95 8.3 2.7 2.7 6.8 3.15 3.65 0.4 7.7-1.75 3.6-1.9 6.1-4.95" fill="#d6a535"/>
  <path d="m160.85 271.65q1 1.35 5.95 3.45 2.75 1.2 8 3.15-7.9-0.85-15.5 3.6-7.55 4.4-7.9 9.75-5.1-1.8-12.15-3.2-3.5-0.6-4.35-1.1-2.55-1.45-1.85-5.2 1.25-6.15 1.45-8.85 4.45 4.1 10.35 5.8l9.55 0.35q5.8-1.8 6.45-7.75" fill="#d6a535"/>
  <path d="m29.2 253.95q-16.75-0.3-26.35-5 13.8-6.05 26.35-13.15 13.9-7.9 22.85-15.15 0.4 3.5 6.2 30.5-14.2 3.05-29.05 2.8" fill="#004a7e"/>
  <path d="m120.6 90.6q0.7-0.8 1.3-0.6 0.65 0.2 0.75 1.45 0.1 1.15-0.35 2.5-0.5 1.7-1.25 2.55-0.65 0.75-1.2 0.6-0.65-0.2-0.75-1.4-0.1-1.15 0.3-2.65 0.45-1.6 1.2-2.45" fill="#0d131a"/>
  <path d="m121.25 87.55q0.55 0.1 0.8 0.85 0.3 0.7 0.05 1.55-0.2 0.85-0.75 1.4-0.55 0.5-1.1 0.4-0.55-0.15-0.8-0.85t-0.05-1.6q0.25-0.85 0.75-1.4 0.55-0.5 1.1-0.35" fill="#fff"/>
  <path d="m156.8 105.75s-0.51135 1.2602-1 1.7c-0.29937 0.26945-0.8 0.63333-1.1 0.5s-0.45-0.5-0.45-1.1c-0.0333-0.6 0.0667-1.2333 0.3-1.9 0.26667-0.73333 0.6-1.35 1-1.85 0.43333-0.56667 0.8-0.8 1.1-0.7 0.33333 0.13333 0.5 0.56667 0.5 1.3l-0.35 2.05" fill="#0d131a"/>
  <path d="m158.65 103.05c-0.26667 1.1-0.75 1.5667-1.45 1.4-0.73333-0.16667-1.0167-0.76667-0.85-1.8 0.0667-0.43333 0.25-0.8 0.55-1.1 0.33333-0.33333 0.66667-0.46667 1-0.4 0.3 0.0333 0.52154 0.37182 0.65 0.65 0.17524 0.37949 0.1 1.25 0.1 1.25" fill="#fff"/>
  <g fill="#0d131a">
   <path d="m118.45 193.25q0.4-3.55-0.45-7.3-1.15-4.8-4-5.3-2.25-0.35-4.5 2.75t-3.4 8.15q-1.25 5.55-0.05 9.55 1.15 4 4.1 4.35 2.9 0.3 5.45-3.9 2.25-3.75 2.85-8.3m-4.2-13.9q3.5 0.55 5.05 5.15 1.35 4.05 0.7 9.1-0.6 5.2-3.3 9.1-3 4.45-6.75 4-3.55-0.4-5.2-4.2-1.9-4.3-0.3-11.3 1.35-6.1 4.15-9.3 2.65-3.05 5.65-2.55"/>
   <path d="m51 244q1.35-0.65 1.55-0.3 0.2 0.4-1.1 1.15-7.9 4.6-24 6.2-16.25 1.6-24.8-1.5l0.3-1.65q8.1 2.95 24.1 1.6 15.65-1.4 23.95-5.5"/>
   <path d="m159.8 80.65q4.5-14.9-3.3-21.8-9.1-8.05-23.65-7.9l-0.5-2q15.25-0.5 25.5 8.65 6.75 6 4.75 18.3-2.1 12.75-12.7 25.05l-0.2-1.65q6.55-6.85 10.1-18.65"/>
   <path d="m107.75 43.15q0.15-10 1.9-14.95 2.2-6.05 6.95-4.3 5.7 2.1 12.9 15.7 11.15 21.1 11.15 61 0 1.6-0.45 1.65-0.45 0-0.5-1.65-0.8-19-3.65-33.9-3.05-15.9-8.15-25.65-6.05-11.6-10.65-14.4-4-2.5-5.7 2.15-1.65 4.6-1.95 14.05-0.3 10.6 1.6 18.35l-1 1.8q-2.55-8.4-2.45-19.85"/>
   <path d="m149 95.95q-0.55-3.9-1.4-6.1l-3.6 4.8-3.65 4.5-0.15-2.15q2.15-2.1 6.45-8.25 0.8-1 1.1-1l0.75 1q2.55 4.95 1.85 14.4-0.1 1.5-0.5 1.5-0.4-0.05-0.35-1.55 0.1-3.1-0.5-7.15"/>
   <path d="m148.8 66.25q0.5-0.05 1.3 1.25 2.85 4.75 4.4 13.3l3.9-3.85 3.7-3.9-0.25 2.5q-5.8 5.95-7.2 6.9l-0.95 0.45q-0.25-0.1-0.45-1.05-1.2-7.2-4.25-13-3.35 7.5-5.35 10.8l-0.9 1q-0.3-0.05-0.65-1.1-1.9-5.4-3.9-8.35l-0.7-3.55q1.55 1.9 3.2 5.15l2.3 5.3 2.35-4.85 2.5-5.75q0.55-1.2 0.95-1.25"/>
   <path d="m145.9 117.2q0.75 0.35 1.5 0.65-2.8 1.35-6 1.7-3.55 0.4-5.9-0.7-3.05-1.5-4.3-4.8-1.2-3.15-0.3-6.8l1.15 1.7q-0.45 1.85 0.65 4.3 1.25 2.75 3.6 3.95 1.75 0.95 4.75 0.95 2.95 0 4.85-0.95"/>
   <path d="m105.35 87.45q1.6-7.9 5.55-14.5 4.25-7 9.85-10.15l0.85 1.3q-4.9 2.85-8.85 9.45-3.75 6.25-5.4 13.7-1.7 7.6-0.55 13.5 1.3 6.5 5.75 9.05 4.3 2.45 10.85 0.9 6.5-1.6 8.5-5.45v2.15q-2.1 3.6-8.5 5-6.75 1.5-11.75-1.3-4.8-2.65-6.4-9.45-1.5-6.25 0.1-14.2"/>
   <path d="m167.3 82.9 1.45-3q0.85 10-1.35 21.25-2.35 11.85-6.65 16.25-3.75 3.9-7.6 2.25-3.45-1.5-3.55-4.8l0.25-1.25q1.3 3.9 4.05 4.8 2.9 0.95 5.7-2.05 3.8-4.05 6.15-15 2.15-10.2 1.55-18.45"/>
   <path d="m110.45 92.35q-0.4-7 4.15-12.3l1 0.9q-4.55 5.75-3.65 12.1 0.75 5.25 4.15 7.8 3.45 2.5 7.9 1.3 5-1.35 6.9-6.9l0.9 1.05q-1.5 5.4-7 7.1-5.2 1.55-9.25-1.15-4.7-3.1-5.1-9.9"/>
   <path d="m114.85 80.85q-1.85-1.55-1.6-2.05 0.3-0.5 2.35 0.95 3.35 2.35 7.75 6.3 5.35 4.8 8.55 8.8l-0.1 2.05q-3.05-4-9.6-9.8l-7.35-6.25"/>
   <path d="m115.85 97.4q-0.5-2.6 0.65-6 0.8-2.2 2.5-3.95 1.65-1.7 2.95-1.7l0.85 0.95q-1.55-0.1-3.05 1.45-1.35 1.45-2.15 3.55-0.85 2.6-0.7 4.85 0.25 2.55 1.8 3.2 1.65 0.7 3.35-0.8 1.6-1.4 2.5-4.05 0.6-1.7 0.55-3.65-0.05-2-0.7-3.05l1.1 0.5q0.55 1.1 0.6 2.95 0.05 1.95-0.5 3.65-0.95 3.05-3 4.7-2.15 1.7-4.15 0.8-2.05-0.85-2.6-3.4"/>
   <path d="m163.85 97.05q1.8-0.55 1.9 0 0.1 0.5-1.55 1.2-6.1 2.6-7.85 3.6l1.55-2.5q2.3-1.2 5.95-2.3"/>
   <path d="m163.55 98.2q-0.15-0.5 0.35-0.6l0.65 0.1q0.25 5.15-1.55 9.2-2 4.55-5.7 4.95-1.85 0.25-3.6-0.65-1.85-1-2.5-2.65l0.65-0.85q0.8 1.45 2.2 2.2 1.45 0.8 3.15 0.6 2.3-0.2 4.15-3.1 2.2-3.5 2.2-9.2"/>
   <path d="m152.7 106.95q-0.5 1.2 0.2 2.5l-1.4-1 0.5-1.4 0.7-0.1"/>
   <path d="m159.05 100.2 1.05-0.5q0.4 3.75-0.85 6.95-1.4 3.5-4.05 4.15l-1.05-0.5q2.6-0.35 4.05-3.65 1.35-3.05 0.85-6.45"/>
   <path d="m181.25 196.75q-0.05-1.4 0.05-1.95 15.6 13.15 38.85 19.7 16.6 4.65 34.05 5.25 5.4 0.2 3.5-4.95-10-26.55-44.5-51.45-22.15-16-51.1-29.15l-0.15-1.75q29.5 12.45 52.75 29.15 34.45 24.75 44.7 52.6 1.4 3.75 0.35 5.45-1.15 1.75-5.25 1.75-17.75-0.15-34.5-4.65-23.3-6.35-38.75-20"/>
   <path d="m220 167.2 3.95 2.8q7.85 9.45 11.3 20.2 3.6 11.4-0.55 16.25-4.5 5.3-13.55 5.8-10.8 0.6-25.1-6.05l-2.8-2.2q14.85 6.75 26.15 6.55 9.8-0.2 13.8-5.2 3.85-4.85-0.85-17.6-4.5-12.2-12.35-20.55"/>
   <path d="m163.9 109.1 3.25-7.7-2 9.35q-1.6 6.8-2.2 10.85-1.3 9.2 0.6 16.05 1.1 3.75 5.05 14.05l6.95 17.8q8.3 21.3 7.2 36.8-1 14.15-10.65 30.35-5.5 9.2-8.45 17.45-3.25 8.9-2.65 14.45 0.2 1.9 0.75 2.75 0.7 1.15 2.4 1.8 10.25 4.05 14.6 6.2 6.1 2.95 8.9 5.85 2.5 2.55-0.2 3.4l-3.7 0.3-1.35-1.3 3.55-0.1 0.6-0.4-0.3-0.7q-4.65-4.65-22.75-11.6-2.25-0.9-3.05-2.3-0.6-1-1-3.65-0.9-6 2.35-15.15 2.8-8 8.45-17.75 8.95-15.55 10.05-29.95 1.25-16-6.45-36.05l-6.75-17.3q-3.75-9.75-5.05-14.55-0.9-3.25-1.1-7.6-0.2-4.45 0.4-8.65 0.75-4.95 2.55-12.7"/>
   <path d="m175.6 45.3q-1.35-1.2-4.65-0.35-4.3 1.1-8.5 3.6-5.05 3-8.4 7.3l-1.45-0.8q3.5-4.5 8.95-8.05 4.9-3.2 9.05-4.2 4.35-1.1 6.45 0.8 2 1.75 2.15 6.25 0.3 11.1-9.55 31.05-9.25 18.7-18.15 27.45-0.5 0.5-0.75 1.25l-0.35 1.55q-0.15 0.7-0.2 2.8l-0.4 3.05q-0.3 1.1-1 1.3l-2.1-0.2q-5.85-1.6-10.85-4.9-4.65-3.1-5.2-5.25 1.6-12.8-1.95-26.15-3.6-13.65-10.65-20.4-1.8-1.7-3.05-1.6-1.3 0.1-3.4 2.2-8.8 8.55-17.5 33.15l-7.35 21.35q-4.55 12.7-8.8 21.35-2.85 5.9-7.15 13l-6.1 10.5q-5.7 11.05-8.75 20.1-3.55 10.6-4.05 19.85l-0.25 0.3q-11.9 7.3-25.55 20.45-13.45 12.95-22 25.25-0.5 0.75-0.5 1.3 0 0.45 0.4 0.6 9.65 3.75 27.3 3.75 16.7 0.05 27.1-3l0.35 2.3q-11.85 3.1-27.7 3-17.4-0.15-27.45-4.35-1.55-0.65-1.9-1.4-0.55-1.05 0.65-2.9 9.2-14.2 22-26.55 11.75-11.35 24.5-19.15 1.05-10.7 4.25-20.25 3-8.85 8.85-19.75 1.6-3 7.35-12.15 5.05-8.05 7.05-12.3 4.9-10.25 9.45-23.05l6.9-20.4q7.7-22.25 17.35-32.4 2.7-2.85 5-2.8 1.95 0.05 4.35 2.4 7.6 7.3 11 21.65 3.1 12.75 1.85 25.8 1.2 2.45 6.7 5.6 4.5 2.6 7.85 3.65l1.45 0.2q0.3-0.2 0.4-0.9l0.2-3 0.2-2.55q0.5-2.4 1.55-3.45 8.55-8.5 17.4-26.75 9.35-19.4 9-30.35-0.1-3.65-1.4-4.8"/>
   <path d="m135.75 140.2-0.75 3.85q-19.8 28-62.5 62.1-42.2 33.65-68.95 43.3l-0.55-1.35q32.3-12.9 75.55-49.7 37.8-32.15 57.2-58.2"/>
   <path d="m54.7 242.05q-3.5-15-4.05-20.7l2.2-1.85q0.4 3.45 4 20.25 3.55 16.7 3.95 20.4 0.95 8.85-0.25 13.75-0.85 3.55-4.3 8.9-3.75 5.9-5.7 9.5-3.25 6.15-5.05 12.1-0.4 1.25 0 1.45 0.45 0.2 1.8-0.6l6.5-3.85q5.2-3 7.95-4.15l0.5 1.85q-2.75 1.15-7.7 4.1l-6.25 3.8q-3.1 1.8-4.45 0.8-1.3-1-0.4-4.1 1.75-5.9 5.55-12.4l6.1-9.7q2.9-4.5 3.7-9.5 0.75-4.7-0.1-11.65-0.35-2.9-4-18.4"/>
   <path d="m87.3 286.9 5 9.35q2.9 5.75 3 8.4 0.05 2.35-1.05 2.95-1.05 0.55-2.95-0.55l-5.45-3.55q-4.05-2.6-5.9-3.25l-4.5 6.45q-3.3 4.35-6.3 6.75-3.3 2.7-4.7-0.45-3.4-7.8-3.4-17.55 0-1.7 0.5-1.65 0.45 0 0.65 1.65 0.5 4.7 1.5 9.05 1.15 4.7 2.55 7.25 0.2 0.4 0.75 0.35 0.65 0 1.3-0.6 5.8-5.35 10.85-12.85 0.15-0.25 0.5-0.15 2 0.6 6.25 3.15l5.9 3.65 1.3 0.1q0.45-0.4 0.35-1.3-0.1-1.65-3.05-7.35l-4.75-8.95q-2.55-5-2.3-8.15 0.25-3.25 3.65-7.3 4.15-4.9 7.55-7.2 5.25-3.6 12.3-4.25 13.45-1.2 28.4-5.8 1.95-0.6 2.1 0 0.15 0.55-1.7 1.4-11.25 5.05-28.65 6.6-6.85 0.65-11.6 3.75-3.1 2.05-6.95 6.6-3 3.6-3.15 6.8-0.1 2.75 2 6.65"/>
   <path d="m129 257.7q5.45 6.65 6.05 13.25 0.3 3.7-1.35 11.4-0.9 3.95 4.05 5 7.8 1.65 20.6 5.6 12 3.7 20.5 6.9h0.6l0.05-0.35q-4.05-8.1-13.25-15.25-1-0.8-0.65-1.2 0.3-0.45 1.4 0.25 4.95 3.15 8.8 7.4 3.55 3.9 5.5 7.9 1.25 2.5 0.3 3.5l-3.6-0.15q-9.1-3.85-21.25-7.55-11.95-3.65-20.25-5.15-3.2-0.6-4.4-2.55-1.15-1.8-0.5-4.6 1.8-7.7 1.6-11.1-0.45-6.5-5.8-12.7l1.6-0.6"/>
   <path d="m176.5 293.1-1.2-1.6 6.5 1.35 5.1 1.25q0.45 0.15 0.6-0.15l-0.25-0.85q-3.15-4.4-15.45-12.3-1-0.65-0.8-1l1.3 0.15q4.8 2.25 9.55 5.75 5 3.7 7 6.75 1.05 1.6 0.6 2.65-0.5 1.15-2.5 0.6-6.8-2-10.45-2.6"/>
   <path d="m84.7 279.2q-2.25 3.6-6.25 5.4-3.5 1.65-7.65 1.65-4.25 0-7.4-3-3.6-3.4-3.85-9.15l1.35-3.75q-0.55 6.2 2.45 10.25 2.8 3.8 7.35 4.1 3.8 0.3 7.6-1.75 4.35-2.35 6.3-6.85l0.1 3.1"/>
   <path d="m159.9 270.9 1.35 0.85q0.45 2.55-1.15 4.75-1.45 1.95-3.95 3-4.55 1.85-11.1 0.4-7-1.55-10.55-5.9l0.15-1.55q3.25 4.1 10.2 5.85 6.65 1.7 10.85 0 2.15-0.9 3.4-3 1.3-2.15 0.8-4.4"/>
   <path d="m46.45 236.3q1.5-0.8 1.7-0.4 0.25 0.4-1.2 1.3-10.35 6.4-22.35 9.6-11.2 3-21.5 2.7l-0.15-1.6q20.75 0.55 43.5-11.6"/>
   <path d="m179.1 185.7q-2.3-7.95-12.65-20.75-8.3-10.25-21.1-22.85l-1.3-3q11.65 9.95 20.85 20.85 10 11.8 13.1 20.25l1.1 5.5"/>
   <path d="m135.3 139.7q0.55-1.85 1.05-1.65 0.45 0.2 0 1.95-1.7 6.15-0.8 13.7 1.25 10.25 7.65 14.55 3.2-6.4 3-15.05-0.2-7.9-2.95-13.85-0.95-2.05-0.5-2.25t1.55 1.45q3.4 5.3 3.75 14.15 0.35 9.65-3.5 16.9-0.5 1.05-1 1.15-0.45 0.1-1.5-0.5-6.3-3.9-7.95-13.45-1.4-8.5 1.2-17.1"/>
   <path d="m166.1 178.25q-1.95 0.1-3.05 3.7-1.15 3.5-0.85 8.2 0.35 5.45 2.05 8.8 1.65 3.3 3.8 3.1 2.3-0.15 3.45-4.6 0.9-3.6 0.6-7.35-0.3-3.55-1.65-7.15-1.85-4.8-4.35-4.7m-0.2-1.55q3.35-0.15 5.6 4.8 1.8 3.9 2.15 8.5 0.3 4.3-0.75 8.15-1.4 5-4.5 5.3-3.45 0.3-5.7-3.9-1.95-3.75-2.25-9.3-0.3-5.7 1.15-9.5 1.5-3.9 4.3-4.05"/>
  </g>
  <path d="m40.45 30.75q-11.55-2.95-18.25 0.95-6.1 3.5-7.8 14.55-1.55 9.85 0.85 20.45-8.8-16.55-12.2-34.5-2.5-13.45-1.7-25.95 0.25-3.65 1.9-4.65 1.8-1.15 6.15 0.1 26.15 7.3 54.05 41.4-10.9-9.3-23-12.35" fill="#9ed8f5"/>
  <path d="m43.15 31.4q11.6 3.7 19.4 11.05 12.05 15 22.4 34.25 12.6 23.4 19.7 47.9l-22.05 16.05q-22.55-13.45-41.5-35.15-14.8-17.05-24.4-35.35-3.8-10.25-2.8-21.45 1.1-12.8 8.3-17 7.8-4.55 20.95-0.3" fill="#005b96"/>
  <path d="m0.4 6.05q0.4-4.3 2.05-5.45 1.45-1 4.9-0.25 31.35 7.25 60.45 46.6 26 35.1 37.1 75.85 0.65 2.35-0.05 2.55-0.7 0.25-1.4-2.1-5.1-17.25-14.45-36.1-9.95-20.15-22.25-37.15-29.55-40.85-59.85-47.8-2.1-0.5-3.1 0.3-1.2 0.9-1.5 3.85-1.55 16.5 4.1 35.55 5.5 18.55 17.25 37.6 10.75 17.5 25.35 32.65 14.75 15.3 31.05 25.7 2.5 1.6 2.05 2.3-0.45 0.65-3.05-0.9-16.7-9.9-31.9-25.25-14.85-15.05-25.75-32.7-11.8-19.2-17.25-38.65-5.4-19.45-3.75-36.6" fill="#0d131a"/>
  <path d="m65.35 45.6 1.75 3.5q-11.05-13.25-25.2-17.3-12.05-3.5-19.15 0.8-6.2 3.75-7.8 15.3-1.8 12.95 4.55 26.55l-3.55-5.85q-4.85-12.4-2.5-23.8 2.15-10.15 8.3-13.75 7.25-4.25 19.05-1.4 14.05 3.35 24.55 15.95" fill="#0d131a"/>
  <path d="m99.75 244.9q-3.85-0.9-4.8-6.35 6.05 0.45 12.9 0.35-1.7 3-3.6 4.6-2.3 1.9-4.5 1.4" fill="#dbdcdc"/>
  <path d="m160.3 240.2q-2.2-0.5-2.95-3.9-0.7-2.85-0.3-7.1 7.55-3.25 12.9-7.25 0.3 3 0 5.2-0.45 3.75-3.45 8.45-3.4 5.2-6.2 4.6" fill="#dbdcdc"/>
  <path d="m161.8 217.15q-2.3 3.4-3.45 8.65-1.2 5.45-0.5 9.65 0.6 3.85 2.3 4.15 1.9 0.4 4.65-3.15 3-3.85 4-8.9 0.9-4.5-0.2-8.65-1.1-4.05-3.05-4.55-1.6-0.4-3.75 2.8m-1.95 23.85q-2.95-0.6-3.75-5.2-0.8-4.3 0.55-10.5 1.35-6.1 4.2-9.6 2.6-3.2 5.05-2.7 3.05 0.65 4.35 5.65 1.15 4.5 0.25 9.2-1.2 6.2-4.65 10.1-3.2 3.6-6 3.05" fill="#0d131a"/>
  <path d="m95.85 239.65q1.25 4.05 3.7 4.55 3.65 0.8 6.75-3.95 1.85-2.85 3.15-7.1 1.35-4.55 0.7-9.4-0.75-5.2-3.35-6.1-2.75-0.95-5.9 1.95-3.5 3.3-5 9.6-1.4 5.9-0.05 10.45m3.45 6q-3.5-0.75-5.05-5.5-1.65-4.95-0.15-11.35 1.7-7.2 5.85-10.75 3.8-3.2 7.5-1.9 3.45 1.2 4.35 6.8 0.8 5.05-0.7 10.75-1.35 5.15-4.15 8.6-3.5 4.25-7.65 3.35" fill="#0d131a"/>
 </g>
</svg>
