<?xml version="1.0" encoding="UTF-8"?>
<!-- Created with Inkscape (http://www.inkscape.org/) -->
<svg version="1.1" viewBox="0 0 205.44 304.58" xmlns="http://www.w3.org/2000/svg">
 <g transform="translate(-2.1805 -1.1965)">
  <path d="m119.97 79.149c-0.17233 3.6839 0.48594 8.0973 4.0123 12.182 1.606-0.70652 4.5351-2.285 5.8968-4.2308-3.05-1.3992-7.7082-4.754-9.9091-7.9515" fill="#fff"/>
  <path d="m140.16 89.007c3.3086 4.6323 7.0517 5.8358 9.3618 6.5047 3.6353-0.99599 10.359-3.9757 10.03-11.575-4.4131 1.9817-13.666 5.2888-19.392 5.07" fill="#fff"/>
  <path d="m118.59 76.422c5.0579 9.1309 13.739 13.252 24.158 12.146 22.359-2.3952 51.259-24.498 61.046-54.152-1.7508 1.0098-4.0123 2.5159-5.8968 4.146 0.75476-1.8852 1.1304-3.1362 1.6302-5.0214-10.176 9.4228-23.745 18.712-35.174 19.599-6.5289-1.6405-18.091 1.251-26.261 6.6505-8.1583 5.4105-15.514 12.024-19.502 16.632" fill="#888780"/>
  <g fill="#e95532">
   <path d="m136.19 60.806c-3.088 0.10345-4.9604 0.54798-7.0517 1.2166 1.7611-5.3984 4.4135-9.3618 6.3951-12.231-3.3085 0.4377-7.8299 3.7449-11.793 8.4864 1.544-8.2676 6.1763-23.915 8.0487-29.301-2.8674 0.87538-6.8328 3.0742-11.575 7.7082-8.5836 12.45-17.508 36.571-14.979 58.711 4.1825-6.7232 15.416-23.793 30.954-34.59"/>
   <path d="m123.27 82.838c0 2.8708 0.62035 5.7631 2.7227 7.6351 1.1304-0.62035 2.9294-1.8369 3.8906-3.3809-2.054-1.0201-4.7416-2.6365-6.614-4.2553"/>
   <path d="m145.89 88.271c-0.069 1.9817 0.31018 4.7781 1.1063 6.3951 1.3854 0.36533 3.514 0.4377 5.0579-0.24125 0.81335-1.8369 1.7646-4.9849 0.96154-7.7813-2.054 0.74097-4.6323 1.3992-7.1247 1.6164"/>
  </g>
  <g fill="#e3eff5">
   <path d="m140.82 58.136c-3.9268 2.2608-10.723 7.3312-14.735 10.991-0.96155 6.7963 1.0443 17.787 16.389 15.781 15.356-2.0058 20.936-11.076 19.185-17.094-1.737-6.0181-8.8024-11.331-20.839-9.6778"/>
   <path d="m203.28 36.901c-5.6169 11.343-16.085 33.593-43.733 47.04 0.20679 3.8541-2.2022 10.577-10.906 11.453 2.8708 0.88917 4.9604 1.3269 5.07 3.1983 0.10345 1.8714-0.77889 2.8708-3.7448 4.7419-2.9777 1.8714-9.7019 5.629-13.009 5.386-4.5106-0.34464-7.7082-4.1826-12-6.2738-1.544 0.34464-3.8541 0.99601-5.5077 1.544-7.0517 20.049-10.322 45.787-7.7082 48.134 2.3091 2.1023 21.921-19.38 28.413-28.972 6.9424 17.191 22.14 40.656 25.775 40.219 3.6353-0.44802 9.8116-18.067 6.2859-43.514 10.687 10.018 22.249 23.344 23.574 23.015 1.3269-0.34464-0.20678-30.626-21.046-49.568 16.523-20.158 25.338-40.426 28.535-56.402"/>
   <path d="m120.21 79.476c-0.85125-1.1304-1.2028-2.0196-1.6301-3.0501l-2.7847 3.83c0.94776 3.7445 2.9294 9.5682 4.6809 12.498l3.4895-1.4234c-2.602-2.5055-4.3283-7.1733-3.7569-11.854"/>
   <path d="m189.4 151.58c-0.6548 4.073-0.87537 8.8145-0.43768 12.122-2.3229-1.4337-4.9604-4.5227-6.1763-8.9241-1.096 19.271-6.7112 28.948-16.96 39.769-1.9817 2.092-3.2706 1.737-4.6323-1.1063-4.2918-9.0334-14.31-28.754-18.395-35.915-2.3091 5.1792-4.1825 9.471-6.2738 11.903-1.6543-2.6503-1.4337-9.2525-0.996-13.994-5.2888 7.4894-10.128 12.559-14.979 16.632 10.14 11.793 24.9 29.411 32.389 47.818 23.027-7.8299 40.645-37.897 41.97-58.943-1.3268-2.3091-3.7448-6.6019-5.5077-9.3618"/>
  </g>
  <path d="m95.873 128.88c-4.073 0.20678-13.435 2.5296-19.283 5.5077l-1.2028 1.9817c-1.9817-3.8541-6.3951-12.45-10.578-17.629 1.1063 5.1796 1.8714 10.249 1.6543 12.231-3.4154-1.8714-8.3768-4.2918-12.012-5.3984-3.526-5.7262-9.3618-13.106-12.778-16.632 2.3091 6.9424 4.4131 14.979 4.7416 21.483-7.4894-4.4134-19.283-10.796-27.1-9.8115 0.76509 1.8714 1.4337 3.6352 2.6365 6.2859 4.1946 3.4154 7.8299 6.2735 9.8115 8.0363 2.9673 6.9424 5.5077 13.338 6.3831 18.505-6.1642-2.2022-18.833-6.4923-23.903-7.3801 1.3234 2.4332 3.1983 6.1766 4.4134 7.9395 4.073 2.1988 8.5836 4.7295 12 7.3798 0.77888 3.7448 2.7606 10.797 4.5227 13.994-6.067-2.3229-16.523-5.1792-21.265-4.4135 3.6353 4.6323 6.8328 9.4714 11.125 12.45 2.092 15.416 9.2525 32.608 17.848 41.204 2.8571 2.8571 6.4803 4.3404 13.216 3.1845 5.1792-0.87538 11.125-1.9817 16.195-3.9637 2.2022 1.9817 5.5077 4.4134 10.03 6.5047-3.1983 1.3131-8.8145 3.9637-11.027 6.0546 3.088-0.20679 7.9395-0.43769 10.14-0.10345-1.544 1.6543-3.526 4.5227-4.6202 5.7265 3.7449-0.76509 7.7086-1.544 10.128-2.3091-0.98566 1.7611-2.092 4.1822-2.6399 5.7265 3.9634-1.544 10.237-4.073 12.45-5.1796 1.2028 2.8708 3.1845 5.07 6.1642 6.8332 0.20678-2.2022 0.65482-5.8361 1.096-7.4897 2.1023 2.092 5.5198 4.8511 8.3772 5.7265-0.65482-2.6399-1.1063-6.8328-1.1063-8.2676 41.945 0.6686 85.119-27.538 89.532-62.784-1.6164-3.8176-3.9634-9.2522-5.8844-12.778-3.2224 23.21-18.505 49.277-42.006 58.383-5.8723-14.322-19.672-34.298-32.377-47.806-5.9574 4.8387-15.368 11.878-20.353 14.103-2.6365 1.1683-4.2918 1.3234-4.1095-2.3573 0.88916-17.921 5.7265-41.569 8.9606-52.73-4.2553 3.6718-9.6899 8.6687-13.508 11.903 0-2.9432 1.606-8.8145 4.3283-14.103" fill="#888780"/>
  <g fill="#3f3927">
   <path d="m179.54 47.99c-1.9334-10.018-8.0849-35.343-12.292-43.38-1.251-2.3849-1.9714-2.2505-3.9882-1.4716-9.1064 3.526-25.277 9.4469-41.216 30.967 2.9673-1.8232 6.8328-3.7569 9.4469-5.1307-2.0437 6.8328-7.1613 23.343-7.6234 29.033 3.4154-3.6473 7.2705-7.7813 11.66-8.219-2.6641 3.781-4.7905 7.4408-6.3831 12.231 2.2367-0.82713 4.401-1.2752 6.5654-1.058 8.7659-5.1186 15.939-9.1064 28.34-7.854 4.7905-0.78923 10.25-1.8128 15.489-5.1186"/>
   <path d="m191.38 68.848c-3.7445 6.5047-9.9087 17.289-16.632 24.45 12.888 12.45 19.757 29.775 21.593 46.274 0.20678 1.9817-0.17232 4.9118-2.6503 2.2022-5.2888-5.8358-16.742-17.848-21.471-21.921 1.3131 14.432 2.2264 31.49-4.6323 41.97-1.8714 2.8708-3.0638 1.8611-4.8511-0.43768-5.6169-7.2705-16.413-20.936-22.578-38.225-8.7049 12.34-20.535 24.17-25.775 27.976-2.4297 1.7646-3.6352 1.4475-3.526-1.544 0.31018-9.4714 2.8571-32.268 8.5836-45.605-2.2022 0.44802-4.1822 1.4337-5.7265 2.092-1.2028 2.4297-2.0782 3.9754-6.4923 3.9754-8.9241 0-26.663 9.1429-31.283 24.231 3.526-1.4337 12.997-5.2888 19.939-5.3981-2.7606 5.5073-4.4135 10.906-4.6323 14.213 4.9604-4.073 10.505-9.471 13.775-12.45-3.8665 15.976-8.7052 38.553-8.7052 52.876 0 3.8541 0.52386 4.6444 3.8906 2.6503 10.432-6.1766 25.41-15.976 35.319-30.736-0.65827 6.4927-0.54798 11.125 0.99601 13.982 2.7468-4.1825 5.1792-8.9241 6.2735-11.891 6.8328 12.219 13.593 26.979 18.395 35.915 1.544 2.857 2.8329 2.8192 4.8511 0.65481 9.0334-9.6902 16.413-20.718 16.632-39.66 1.544 4.5227 3.1982 7.3798 5.8482 9.1426 0.10345-3.8541 0.34464-9.3614 0.87539-12.012 4.5106 7.2705 9.3618 17.192 12.45 25.897 8.9241-13.228 3.453-34.067-0.6686-42.31-1.6405-3.2948-4.2918-8.1459-6.2735-15.307-1.9817-7.1609-6.8207-24.267-5.2888-33.265 0.996-5.8358 1.7646-14.979 1.7646-17.739"/>
   <path d="m78.199 129.28c-2.4194-3.3189-7.7933-9.4955-13.082-10.395 2.8708 4.2067 8.0611 12.814 10.031 17.568l1.6164-1.799c-0.53419-1.1683-0.06897-2.7709 1.4337-5.374"/>
   <path d="m66.729 131.34c-0.35153-5.4712-1.351-10.31-2.8708-13.617-5.5563-6.3586-11.672-12.061-18.456-15.867-2.2367-1.251-3.2224-0.88572-2.602 1.9713 0.6307 2.8708 1.4337 6.6385 2.0678 8.8755 3.6718 4.754 7.1733 8.9972 9.5806 12.875 3.5015 1.1924 8.5105 3.526 12.279 5.7631"/>
   <path d="m41.191 108.31c2.8708 7.4408 5.0214 16.134 5.374 22.578-6.7236-4.2067-16.426-9.9577-27.246-10.262-4.2922-8.9968-9.3132-21.058-11.55-32.839-0.71685-3.7569-0.20678-4.6078 3.0501-2.9536 8.9603 4.5713 22.492 13.982 30.371 23.477"/>
   <path d="m31.761 134.94c-7.6841-6.6505-18.991-14.419-23.003-16.96-2.6882-1.7025-5.1307-1.4475-4.1215 2.2505 2.0541 7.611 5.5077 18.614 9.6048 25.836 5.1796 1.2166 19.429 5.4346 24.171 7.8543-1.1683-5.0214-3.9882-13.581-6.6505-18.979"/>
   <path d="m30.886 161.36c-5.8241-4.0364-17.751-10.371-23.478-12.28-2.9536-0.98567-4.4986-0.76509-3.2224 2.7847 2.0541 5.7265 7.1854 15.538 9.7264 19.1 5.3254-0.46182 15.453 1.861 21.277 4.827-1.6164-3.769-3.5019-10.043-4.3042-14.432"/>
   <path d="m131.06 101.52c-0.0345-3.2465-1.1201-10.675-4.1336-11.611-2.6365 1.351-6.2128 2.4194-8.6322 4.1822-2.409 1.7646-6.687 6.055-7.5138 10.31-0.37566 1.8955-0.24125 2.9777 2.5055 1.8128 5.1916-2.2367 11.976-4.1822 17.775-4.6929"/>
  </g>
  <path d="m85.651 265.62c-2.5641 1.7611-4.1457 2.5538-5.6535 2.9053-1.4957 0.35151-4.5837 3.0018-3.343 6.0915 1.9334-1.3269 4.8511-2.9053 6.1763-3.4395 1.3234-0.52386 3.088-2.6503 2.8192-5.5563" fill="#d7a400"/>
  <g fill="#3f3927">
   <path d="m81.504 293.16c0.97189-2.9191 0.62035-5.3009-2.7364-5.7386-3.3568-0.4377-6.5288 0.43768-6.0912 5.8237 0.4377 5.386 2.0299 9.8846 2.8226 11.21 2.5641-3.8786 4.3283-6.7963 6.006-11.295"/>
   <path d="m108.33 290.42c-1.3751-3.3671-2.9191-4.3283-6.3586-2.8192-3.4395 1.4957-4.5837 4.9359-2.0299 8.474 2.5641 3.526 5.386 6.2614 7.854 8.7297 2.3849-4.0609 1.6784-11.563 0.53419-14.383"/>
   <path d="m121.92 286.71c-1.5302-2.5641-4.2308-3.1741-6.3586-1.6784-2.1161 1.5061-3.6959 5.9088-0.60658 7.854 3.088 1.9472 6.5288 4.146 8.1094 5.5563 0.62035-3.3568 0.80301-8.4619-1.1442-11.733"/>
   <path d="m121.75 271.18c-2.1161 1.8473-3.9754 4.146-4.9359 6.4437l1.4096 1.8473c1.4096-0.069 4.2308-0.43769 5.9088-0.97188-0.97188-2.285-2.1161-5.2888-2.3849-7.3191"/>
   <path d="m171.34 281.33c-2.54-1.0822-4.2308-0.35154-5.2037 1.7646-0.97189 2.1161-1.3269 4.146 1.7611 5.3009 3.088 1.1442 7.672 3.2568 9.6172 5.0214 0.27571-3.5257-0.35154-9.6172-6.1763-12.085"/>
   <path d="m184.67 277.62c-1.7266-1.9093-3.9758-2.4676-5.8237-0.069-1.861 2.3814-3.7083 3.6959-0.53419 5.2037 3.1845 1.4957 9.1795 4.8512 10.334 6.3586-0.17231-4.1581-1.4234-8.6567-3.9754-11.477"/>
   <path d="m182.64 275.86c0.97189-2.2988 4.4134-5.1186 7.1492-2.4676 2.7364 2.6503 4.9359 7.5014 5.2885 11.21-2.8226-1.4096-6.1763-2.9191-8.1094-3.2706-1.4096-2.6503-2.7364-4.2311-4.3283-5.4712"/>
  </g>
  <g fill="#f9be00">
   <path d="m129.74 86.936c-0.85125 1.4337-1.7646 2.4194-2.54 2.8708 1.8231 1.8231 3.6477 5.2158 3.7204 11.55l-5.4222 1.1787c2.6744 1.8232 4.8267 3.4529 6.9786 4.754 2.1506 1.3131 5.1551 1.8369 8.4254 0.85125 3.2568-0.97188 9.0702-4.4376 11.027-6.1277 1.9576-1.7025 2.9915-4.8997-0.27572-5.6169-3.2568-0.71684-9.459-3.0638-11.417-7.5624-2.54 0-7.3067-0.34464-10.505-1.8955"/>
   <path d="m99.692 244.48c-0.80301-0.88917-2.2746-2.2746-2.9432-4.2187-4.2553 1.7266-8.5836 3.708-10.565 4.9483-2.1402 2.4332-3.8176 3.9634-2.9432 7.1244 0.87539 3.1604 2.5779 9.763 2.347 14.176-0.13778 2.795-1.6887 3.9637-4.4014 5.5807-2.7227 1.6164-4.705 2.2746-5.7993 5.3616-1.1063 3.088-2.2126 5.9454-3.5987 8.596-1.3992 2.6365-1.4716 4.9969 0.87538 6.0181 0.36533-2.6365 1.6887-5.4346 5.2158-4.693 3.5257 0.73064 5.5077 1.6887 3.3085 6.9665 1.9817 1.251 4.5472 0.31017 4.6199-2.7847 0.06897-3.088 0.6686-6.687 4.3407-8.0852 2.4917 1.7646 5.6535 4.9239 5.8723 7.7933 0.20678 2.857 1.9817 3.8906 3.2327 3.6718-1.1063-3.088 0-6.0305 2.0541-7.1247 2.054-1.1063 5.5077-1.7611 6.9786 2.1264 1.2407-0.73064 1.9093-2.4194 1.9093-4.2556 1.6164 1.7646 1.8369 4.9121 3.4529 5.7265-0.74096-2.347-0.13778-4.8512 1.6164-6.1032 1.7611-1.2407 4.6202-1.6164 6.3831 1.1063 0.81336-1.7611 0.6686-3.4529-1.1787-4.9969-1.8369-1.544-4.693-4.6202-6.31-6.675-1.6164-2.0678-2.6365-3.453-6.31-3.7566-3.6839-0.27571-6.4682-0.65482-8.6687-3.4395-2.1988-2.795-3.4529-6.614-3.5991-10.797-0.13778-4.1946-0.06897-8.231 4.1095-12.267"/>
   <path d="m132.3 242.2c-1.3234 5.2888-1.0339 8.0728 1.0339 11.453 2.0541 3.3809 4.9849 8.3768 3.5987 11.234-1.3992 2.8708-4.1215 2.5055-6.3951 2.3573-2.2746-0.13778-5.6535 0.069-7.5621 1.4578-1.9093 1.3992-1.1063 3.9027-0.27572 6.1763 0.80303 2.2746 1.544 6.3827 5.945 4.1822 4.4014-2.2022 7.611-2.4435 11.599-1.1683 4.8511 1.5336 16.292 4.1702 20.195 9.0334 1.8369 2.2746 3.9758 4.766 6.4682 1.1683-1.6164-0.73064-1.6164-2.7847-0.87537-4.6933 0.73062-1.9093 3.7445-4.2673 7.5621-0.6686 1.0201 0.13794 3.0776-0.20678 3.7448-0.58243-0.96154-1.1063-0.13778-2.9432 1.096-4.2553 1.251-1.3269 2.7847-2.602 4.2187-2.0437 1.3613-2.4435 3.5381-5.2158 7.1492-2.4676 0.38944-1.9576 0.31017-4.8994-3.2086-4.8267-3.526 0.069-11.161 0-15.94-1.0925-4.7781-1.1063-11.38-3.8296-16.085-6.9059-2.1264-1.3992-4.1095-2.2022-5.7265-1.9093-1.8369-2.6503-4.6202-7.5624-5.7993-9.9818 0.65482-2.3573 1.3234-5.07 2.1988-7.8664l-2.1988-1.9817c-0.65825 2.2746-1.6887 5.2888-2.4917 6.7598-1.0339-1.6164-3.3809-4.8511-4.1946-5.9454-1.1683 0.58244-2.4917 1.3131-4.0364 2.5641"/>
  </g>
  <path d="m53.353 167.95c3.526 20.851 16.158 39.952 47.003 40.827 10.979 9.7144 30.481 12.097 50.408 7.246 1.289 3.1845 2.1747 5.1672 5.9209 2.7468 3.7448-2.4194 9.0213-5.3009 14.091-10.14 9.7995-4.9483 18.991-11.757 26.517-20.413-9.763 20.413-36.973 48.948-86.104 48.73 0.20679 2.4194 0.34464 5.6173 1.3234 8.3771-3.1983-1.3269-6.2859-3.3085-8.4864-5.7386-0.4377 2.7606-0.88917 5.2885-1.1063 7.7203-2.2022-1.4337-4.2918-3.526-6.2735-6.9424-3.7448 1.544-8.0487 3.4154-12.341 5.2888 0.88917-1.9817 1.7611-4.1946 2.7606-5.9574-4.1946 1.1063-8.596 1.9955-10.25 2.3229 1.7646-2.092 3.088-3.7445 4.7419-5.6169-2.6503-0.34464-7.8299-0.10345-10.03-0.10345 2.7468-2.3229 5.6169-3.9754 10.796-5.8478-3.8541-1.7646-8.2676-4.5106-10.249-6.7115-8.5836 2.7468-16.742 4.6202-20.486 4.2918-3.7448-0.34466-6.3221 0.10345-10.359-5.5073-5.6169-7.8178-15.963-22.359-15.854-44.499 3.1845 10.018 9.9087 19.271 17.18 24.997 1.6543-10.797 5.5073-24.851 10.796-35.064" fill="#717069"/>
  <path d="m54.454 125.14c-0.88917 7.2705-3.9637 14.103-13.216 17.629 1.544 7.0517-1.544 17.398-9.0337 19.38l-1.3269-0.87538c1.1063 4.401 2.4194 10.358 4.4014 13.872-2.6365-0.65827-5.5077-1.5336-8.1459-2.2022-1.544 2.2022-4.6323 4.1946-8.1459 4.8512 1.5336 1.544 3.5136 3.7448 6.1642 5.5077-0.4377-5.2158 0.20678-6.2859 4.1091-3.8906 1.9093 1.1683 9.1064 5.5804 14.833 16.158 3.9637-16.304 9.5565-34.663 30.991-58.906-1.4578-4.5472-6.1639-12.778-10.869-18.504 1.6164 5.4346 2.3573 9.6899 2.3573 12.924-3.088-1.7611-7.4893-3.6718-12.122-5.9454" fill="#717069"/>
  <g fill="#c1cbd1">
   <path d="m123.41 103.18c2.9432 6.0181 7.927 9.6899 12.341 9.9818 4.4014 0.31017 13.362-3.6718 17.471-11.599-4.5472 3.088-10.419 6.3221-12.924 6.7598-2.4918 0.4377-6.0181 0.27571-7.7813-0.88572-1.7611-1.1683-4.5592-3.2224-7.0517-4.8387z"/>
   <path d="m143.68 58.089c-7.3436 6.9059-11.903 15.271-14.322 23.21-3.4529-2.2022-4.1825-7.4894-3.1603-12.341 5.2888-4.8511 10.578-8.3768 14.249-10.869z"/>
   <path d="m150.76 216.02c6.7966-1.6543 12.9-3.5622 20.389-7.5259-4.1822 4.1825-10.614 8.4257-14.468 10.274-1.8369 0.88572-3.6842 2.7226-5.9212-2.7468"/>
  </g>
  <path d="m153.08 228.49c2.3573 2.9191 5.6414 7.7327 6.918 13.119-3.7445-1.799-8.6563-3.7449-10.711-4.0002-0.0345 2.7123 0.0345 4.2067 0.10345 6.0426-1.8473-1.0201-5.0214-3.4292-6.31-4.8632-0.71684 2.4573-1.8955 5.4346-2.8088 6.9665-0.97189-1.8473-3.0742-5.1186-4.0485-6.0912-2.5159 1.6301-6.2008 4.4014-7.2826 5.3254 0.51006-1.737 0.71684-3.1741 0.76509-4.4134-2.7123 1.3372-5.4712 2.9294-7.1127 4.1095 0.35151-2.3573 2.1023-5.8482 4.9604-8.7659 7.1247-1.2752 18.395-3.7449 25.52-7.4287" fill="#717069"/>
  <g fill="#d7a400">
   <path d="m116.18 277.63c-4.2187-3.0397-11.113-1.544-11.878 1.8473-3.7083-1.0822-10.334 2.4676-11.113 6.7963-0.62035-0.96154-1.9438-2.1402-2.8192-2.7226-1.0339 0.13778-1.7611 0.58243-2.6503 1.4716 0-3.8176-6.31-9.1064-12.341-7.0517 0.88917-2.4918 2.0678-4.2553 5.4346-5.7265 3.3809-1.4716 5.4346-3.088 4.8511-7.6351-0.58244-4.5596-1.0201-8.5229-2.2022-11.465-1.1787-2.9294-0.17231-5.0579 3.4895-8.5839 2.7468-1.2166 7.2705-2.9777 9.6899-4.1943 0.77889 1.544 1.6543 2.6503 2.6503 3.8541-2.3229 3.4154-3.8662 5.7386-3.7445 9.9208 0.10345 4.1825 0 8.8148 2.7468 12.122 2.7606 3.2948 4.401 3.9637 7.7082 4.4014 3.3085 0.43769 6.1398 0.60657 10.176 6.9665"/>
   <path d="m153.05 282.01c-0.43768-2.8709 2.4194-8.0366 5.9454-7.4894 0.34464-1.9817 4.0729-5.3981 8.158-4.4135 1.544-1.4234 4.9607-2.092 7.052-1.8714-6.067-1.2028-13.338-3.7445-16.973-6.1642-3.6353-2.4194-6.1642-3.9634-8.3647-3.4154-1.6543-2.3091-5.1796-8.2552-5.8482-10.237 0.44802-1.8852 1.3234-4.8511 2.3229-7.3922l-2.2505-2.2264c-0.83748 2.1161-1.8231 5.4226-2.8192 6.9666-1.2166-2.2022-3.0259-4.8146-4.0485-6.1032-1.2407 0.7065-3.0018 1.9196-4.1095 2.9053-1.3131 4.3038-0.98567 7.9391 1.3234 11.343 2.3091 3.4154 4.8511 8.9241 3.3085 11.246-1.544 2.3091-4.2918 2.3091-6.8328 2.092-2.5296-0.20678-9.3618-0.13778-8.0366 4.9604 1.4337 5.5077 2.4676 9.1064 7.7082 6.7112 3.8541-1.7646 5.7996-2.1747 10.03-1.0925 4.7295 1.2028 8.4743 2.2022 13.435 4.1826"/>
   <path d="m147.7 101.37c1.5061 0.10345 2.2608 1.606 0.85126 3.0156-2.7364 1.9713-5.1792 3.2948-7.7203 3.8541-2.5538 0.57209-5.9333 0.75475-8.0973-0.83747-2.1781-1.606-6.0305-3.8665-7.538-4.8997 7.0637-0.93742 13.459-1.6887 22.505-1.1304"/>
  </g>
  <path d="m129.26 81.549c-0.39978 1.2166-0.86505 3.0156-1.0339 4.4255-3.3671-1.3751-7.6472-5.1186-9.8115-8.9727 2.3573-3.6473 6.6626-6.9179 7.4773-7.4649-0.73064 4.012 0 9.1915 3.3671 12.012" fill="#717069"/>
  <path d="m149.3 87.163c0.52384-0.06897 1.1063 0.74098 1.1442 1.9196 0.0245 1.1201-0.54798 1.8714-1.1442 1.8714-0.57211 0-1.096-0.75476-1.1304-1.7645-0.0345-1.1442 0.53419-1.9576 1.1304-2.0299" fill="#fff"/>
  <path d="m126.89 87.983c-0.53419 0-1.2407-1.1787-0.78923-2.5297 0.86505 0.49972 1.4337 0.94776 1.7508 1.1683 0 0.78923-0.47559 1.3613-0.96154 1.3613" fill="#fff"/>
  <path d="m76.315 133.63c-14.748 14.894-30.967 37.277-34.882 73.411-0.20678 1.8611 0.68239 2.0058 0.98566 0.17233 5.7996-36.28 21.496-57.399 35.903-72.961z" fill="#0f141b"/>
  <path d="m121.43 36.13c3.8055-3.088 6.8938-4.7416 8.9972-5.8602-3.2086 10.213-6.1763 21.483-7.3436 27.453-0.36531 1.9438 0.85125 1.3855 1.482 0.65482 3.7324-4.2794 6.4923-6.0912 9.2887-7.4894-3.1121 5.082-4.0243 6.7963-5.4101 11.417-0.4377 1.4337 0.43768 1.8232 0.98566 0.20679 1.4716-4.3404 3.2948-7.0272 5.7992-11.222 2.4297-4.0609 1.4958-3.8786-2.347-1.544-2.7847 1.7025-5.0576 3.2086-8.2796 6.8814 1.3854-6.5654 4.3524-16.523 7.4287-25.994 1.0339-3.1604 0.83748-3.2948-2.0678-1.8473-1.9713 0.98568-4.5106 2.6124-7.8178 5.374z" fill="#f04338"/>
  <path d="m136.62 60.188c-2.0782-0.03448-5.9695 0.51007-7.5866 1.3855l0.0345 1.289c1.8369-0.85126 5.1065-1.7266 7.6476-1.6784z" fill="#f04338"/>
  <g fill="#0f141b">
   <path d="m125.47 69.692c-2.7123 8.3041 3.6232 17.07 14.906 16.377 12.608-0.77888 23.149-8.2796 22.249-16.669-0.87538-8.3037-9.1064-13.811-21.739-11.757l-1.7128 2.2505c11.502-2.6882 20.924 1.351 21.848 9.6537 0.75477 6.8935-8.6446 13.982-20.645 14.723-9.5441 0.58244-16.134-6.4803-12.632-16.413z"/>
   <path d="m203 34.7c-6.7718 19.38-22.164 37.022-40.815 46.821-20.414 10.711-36.353 7.5621-43.028-5.2888l-1.1201 0.93742c6.1763 11.696 21.836 18.177 45.009 5.9698 18.42-9.7023 34.091-27.234 40.462-46.748z"/>
   <path d="m192.89 142.64c2.9777 3.3086 5.0579 2.1506 4.6444-2.3711-1.6164-17.775-9.7871-35.952-21.836-46.906 15.684-16.803 26.967-44.377 29.034-58.14 0.31018-2.3711-0.34464-2.5055-2.2126-1.1442-5.1792 3.7569-7.0517 5.6535-12.474 11.039-1.0822 1.058-0.42391 1.7611 0.68239 0.73064 5.0214-4.6809 7.7082-6.991 12.328-10.274-2.5296 14.152-14.176 41.07-28.45 56.584-0.87538 0.94776-0.71685 1.6784 0.13778 2.4676 14.323 12.997 19.83 33.885 20.584 46.152 0.0345 0.64447-0.4239 0.91329-0.80301 0.51006-6.1277-6.6746-17.143-18.14-23.526-22.979-1.3028-0.99601-1.8955-0.31017-0.64448 0.75476 5.6659 4.8391 16.62 16.997 22.529 23.575"/>
   <path d="m190.17 71.381c0 2.1264-0.17231 5.8723-0.69272 8.5836-1.0684 5.7386-1.289 12.462-0.5721 17.313 2.1747 14.845 7.307 30.322 11.21 37.946 6.1763 12.085 7.295 28.669 1.9817 40.207-2.1023-6.5168-8.7294-19.222-11.854-23.927-0.80301-1.2028-1.4957-0.76511-1.6887 0.36531-0.57209 3.4529-0.57209 6.6384-0.71684 10.298-2.3332-2.9294-4.207-6.1884-5.2888-10.675-0.42391-1.7749-1.2028-1.6301-0.97189 0.17233 0.6686 5.4105 2.3229 8.7538 4.9239 11.879 2.1402 2.5538 3.4154 1.251 3.3809-0.6686-0.069-3.8906-0.2068-6.3104-0.34464-9.9577 4.9242 8.7904 8.9727 17.009 10.407 22.736 1.0201 4.0974 2.9915 3.6597 4.146 0.7065 6.7598-17.435 2.6503-31.234-2.5779-42.104-3.6718-7.6476-8.7052-22.48-10.906-37.216-0.94777-6.3586 0.17231-12.51 0.88917-17.52 0.47559-3.343 0.96154-9.7995 0.76509-12.328z"/>
   <path d="m119.16 103.47c-5.7627 15.939-9.4955 29.751-9.4955 46.116 0 5.0696 1.4096 5.9816 5.2647 2.8192 9.1064-7.4894 17.155-16.109 25.228-28.17 3.83 13.532 15.064 30.006 22.748 39.149 2.3229 2.7709 3.7204 2.54 5.5077-0.13779 6.2614-9.3983 6.8935-29.727 4.1943-42.858l-1.1201-0.8995c1.8369 13.69 1.4475 32.705-4.8387 42.128-0.55832 0.83748-1.5578 0.93742-2.092 0.31019-7.9391-9.3256-17.933-24.012-23.295-38.335-0.53419-1.4234-1.1787-1.5819-2.092-0.34466-8.6811 11.83-16.268 19.502-25.751 27.392-1.096 0.91329-1.5199 0.17232-1.5199-1.2407 0-16.243 3.343-29.8 8.5836-46.019z"/>
   <path d="m124.85 91.706c1.8611-0.6686 4.5716-1.9817 5.3984-4.2432l-1.1545-0.60656c-0.78922 1.7129-2.3711 2.7606-4.8756 3.6597-7.3436 2.6503-12.596 7.1733-14.237 13.751-0.92364 3.6838 0.4618 4.6323 3.2465 2.857 6.2614-3.9634 24.924-6.2614 33.909-5.2764 1.289 0.13778 1.3992-0.78923 0.10345-0.99601-9.2891-1.4337-28.122 0.64447-34.76 4.8632-0.57209 0.36532-1.1924 0.34465-0.83748-1.058 1.5578-6.2249 6.1884-10.419 13.204-12.948"/>
   <path d="m131.57 101.34c-0.17232-5.7265-1.3131-10.869-4.2432-11.781l-0.93741 0.93742c2.347 0.73064 3.6352 5.5563 4.0243 11.064z"/>
   <path d="m139.55 89.227c2.092 4.3769 8.0608 6.9545 12.012 8.0242 1.7887 0.4756 1.6646 2.5055 0.2757 3.5991-5.5442 4.3645-9.7754 6.5774-12.997 7.0151-3.1121 0.4239-4.5596-0.13779-6.2979-1.3131-1.2166-0.81335-4.7054-3.05-6.7477-4.1216l-1.2752 0.49974c1.6164 0.65481 5.945 3.8786 7.3798 4.8511 1.7646 1.1924 3.6477 1.8852 7.0882 1.5061 3.769-0.39978 8.231-2.3229 13.897-6.7718 2.6641-2.1023 2.9053-6.1401-0.96154-6.918-3.8055-0.76509-8.9-3.3327-10.845-6.3224z"/>
   <path d="m121.05 92.421c-1.7887-3.2086-3.7204-8.6442-4.5227-12.839l-1.6164 1.737c1.0201 4.3042 3.1603 8.9 4.9242 11.866z"/>
   <path d="m124.37 90.796c-2.1988-1.3269-3.9878-5.8358-3.8296-10.663l-1.058-0.7065c-0.35152 4.8025 1.058 9.6902 4.0485 11.903z"/>
   <path d="m159.16 84.159c0.17233 5.8358-5.7262 11.076-11.769 10.395l1.6887 1.0925c5.5077 0.0245 11.453-4.8753 11.015-11.988z"/>
   <path d="m113.34 105.81c-1.1925 2.2505-2.409 3.2706-5.4467 3.3913-12.888 0.49972-26.237 8.7297-32.572 22.602-1.606 3.5136-0.49972 4.5592 2.4194 3.1983 8.0608-3.769 14.395-5.6169 20.802-5.7265 1.3131-0.0121 1.3372-0.89951 0.0242-0.996-6.2369-0.4756-14.687 1.9093-21.264 4.7295 5.3981-13.131 20.073-22.067 30.833-22.225 3.8541-0.069 5.3981-2.1264 7.5866-5.4956z"/>
   <path d="m182.02 152.6c0.13778 21.009-9.155 33.192-17.325 41.362-0.94775 0.93742-1.544 1.1787-2.5538-0.83748-6.1642-12.328-11.587-23.027-18.444-35.635-0.59623-1.1063-1.1201-1.1683-1.6405 0.0242-1.6405 3.7204-3.5743 7.9394-5.3616 10.614-1.3854-4.1095-1.0098-7.672-0.31018-12.62 0.17232-1.251-0.7065-1.6543-1.4234-0.44803-6.4803 10.967-22.699 23.538-35.842 30.675-1.2166 0.66862-1.8128 0.47562-1.8128-1.3131 0-14.456 2.6158-29.228 8.3768-52.62 0.41356-1.7025-0.57211-2.2988-1.7611-1.2166-3.6108 3.2706-7.3191 7.0761-11.526 10.529 0.49972-3.4395 1.9334-7.5383 4.3769-12.268l-1.482 0.0345c-2.6365 5.2158-3.8906 8.0001-4.9121 12.705-0.59623 2.6744 0.58244 3.4654 2.7123 1.6164 4.5596-3.9633 7.1978-7.0517 10.991-10.772-6.1036 22.334-8.8634 37.824-8.8634 52.049 0 4.4014 1.8955 4.6933 4.9969 3.0018 12.474-6.7722 27.684-19.307 34.797-30.298-0.57211 3.465-1.0822 7.3191 0.069 11.465 0.77888 2.7226 1.9817 1.9196 3.088 0.10345 1.7749-2.9191 2.9536-5.9574 4.766-9.9939 6.6384 12.231 11.331 23.161 17.337 35.186 1.8231 3.6353 3.6962 3.8541 5.8968 1.6543 8.158-8.158 17.021-20.681 16.875-39.696z"/>
   <path d="m44.261 194.42c-4.3283-8.3892-10.736-14.456-16.876-17.131-2.8088-1.2269-3.465 0.31017-3.3809 2.0678 1.1925 24.146 11.429 38.517 17.617 45.836 2.1161 2.4917 4.6809 3.9513 8.3161 4.3163 12.669 1.2648 35.307-9.3618 44.414-14.93 15.952-9.7509 21.131-26.797 22.213-39.417l-1.4096 1.351c-1.8231 11.806-7.1492 27.234-21.909 36.255-9.0092 5.4956-30.991 15.271-43.417 14.031-3.3671-0.34464-4.8873-1.1063-6.8084-3.3913-4.8756-5.8237-16.17-21.714-16.985-44.316 4.7781 1.4716 11.963 6.7112 17.593 17.204z"/>
   <path d="m194.22 160.14c-3.0018 25.605-18.249 47.769-39.283 58.286-0.94776 0.47215-1.606 0.41356-1.8611-0.2068-6.1401-14.991-19.964-34.395-32.158-46.432l-1.1063 0.87537c13.325 13.678 26.14 33.362 31.514 46.493 0.87539 2.1506 1.8955 2.4676 4.4741 1.1787 21.325-10.663 36.644-32.985 39.514-58.238z"/>
   <path d="m199.86 173.39c-4.3283 38.043-51.173 64.292-89.423 62.906-2.6744-0.10345-2.7847 1.482-0.10345 1.6164 37.484 1.8852 82.809-20.729 91.15-60.632z"/>
   <path d="m70.831 224.13c3.0156 2.857 7.6961 5.6779 11.331 6.7236l1.4475-0.6307c-3.6718-1.6164-8.231-4.0364-11.161-6.8208z"/>
   <path d="m83.977 230.67c-2.4435 0.81336-8.7414 3.3809-10.869 5.1427 3.088-0.36531 5.8723-0.36531 8.0001-0.20678 1.0443 0.069 1.6887 0.60656 0.88917 1.4096-1.1063 1.1063-2.6503 3.0259-3.4154 4.0243 3.1362-0.71685 6.9786-1.5681 8.1579-2.0437 1.096-0.43768 1.4096 0.48594 0.87539 1.2648-0.71684 1.0443-1.6543 2.9777-2.0437 4.0244 5.4591-2.3711 12.377-5.1672 15.587-6.5047 1.3234-0.54798 1.6164 0.31017 0.27572 0.93742-4.2432 2.0437-10.906 5.0696-15.149 7.1123-2.9432 1.4096-3.3085 0.27572-2.4814-1.3751 0.71684-1.4337 1.544-2.9294 2.1506-3.9758-2.5882 0.93741-5.4467 1.7646-7.2705 2.1506-2.9432 0.62035-3.7204-0.0345-1.7611-2.1506 0.77889-0.82714 2.6985-2.8571 3.5867-3.6839-2.5882 0.10345-4.6078 0.2068-7.3315 0.49974-2.602 0.2757-4.5348-0.6686-0.60656-3.088 2.1506-1.3269 7.4408-3.6963 10.906-4.462 1.7266-0.38944 2.1506 0.38945 0.49974 0.93741"/>
   <path d="m97.085 240.15c1.2648 2.0437 3.3085 4.462 5.1796 5.3981 0.38945-2.0437 0.76511-4.5713 1.0443-5.7872 0.27571-1.2028 1.0201-0.91328 1.4819-0.37566 1.8231 2.0299 3.9634 3.7445 6.6626 4.5713-0.54798-2.2608-0.82713-5.1792-0.87539-6.7842l1.2648 0.069c0.17233 2.5296 0.60658 4.6809 1.1546 6.3345 0.88917 2.6365 0.20679 3.5381-1.9955 2.4573-2.1506-1.0442-5.2158-3.3912-6.5899-5.374-0.17231 1.9196-0.2757 3.1845-0.34463 5.1186-0.069 2.2608-0.75476 3.15-2.9191 1.4337-1.8714-1.4957-4.0123-4.6323-5.07-6.7236z"/>
   <path d="m88.015 244.62c-1.1063 1.544-3.3671 3.769-3.8176 4.4014-0.51007 0.74096-0.75476 1.4096-0.36531 2.5055 1.2407 3.5257 2.6262 9.471 2.4917 14.322-0.06897 2.6365-1.0339 4.6202-2.4917 5.4346-1.4716 0.803-3.088 1.4716-4.1946 2.1264-1.096 0.65482-2.4194 1.6164-3.3671 4.1822-0.96154 2.5779-3.088 7.7206-3.9027 9.1795-0.80302 1.4716-0.94776 3.3809 0.59622 4.5592l-0.06897 1.9093c-2.6503-0.81336-3.9999-3.6232-2.285-6.7601 1.251-2.2746 3.3809-7.3432 4.0488-9.3253 0.65481-1.9817 2.5641-4.1095 4.401-4.9239 1.8369-0.80301 3.3809-1.544 4.1825-2.2746 0.81334-0.73063 1.5922-1.1063 1.544-3.9637-0.06897-4.4135-0.93742-9.0578-2.4194-13.52-0.58244-1.7646-0.36531-3.0776 0.51007-4.2553 0.88917-1.1787 1.8369-2.4194 2.5779-3.5257z"/>
   <path d="m85.591 266.51c-2.2022 1.544-3.7324 2.5882-5.07 2.7847-1.9093 0.31018-3.5257 1.7646-3.3085 4.9969l-1.1683 2.0541c-1.544-3.526-0.6686-7.1978 3.6718-8.3648 2.0678-0.55832 3.9637-1.4716 5.8727-3.0156z"/>
   <path d="m98.959 243.74c-1.9093 2.4917-4.1822 5.5928-4.1822 8.9606 0 3.3671 0.20678 9.3739 1.1683 11.234 1.251 2.4194 3.6594 6.6629 8.1945 7.2829 1.6164 0.20678 3.8786 0.36532 5.0576 0.65482 1.1683 0.27571 2.4194 0.80301 4.0244 2.9294 1.6164 2.1264 4.766 5.6414 6.3104 6.8935 1.5302 1.2407 2.2746 2.6365 1.3854 4.0974l1.3234 1.7129c1.544-1.9093 1.3131-4.8511-1.1063-6.687-2.4194-1.8231-4.9242-4.401-6.5292-6.6746-1.6164-2.2746-3.6108-3.453-5.3616-3.6718-1.7646-0.20679-3.0397-0.27571-4.8146-0.58245-2.2022-0.36531-4.3404-1.4234-6.9665-6.6626-1.3131-2.6365-1.096-7.7689-1.096-10.261 0-2.1988 1.3269-4.766 3.8782-7.915z"/>
   <path d="m81.273 293.57c2.1264 1.1683 3.4395 0.2757 3.5867-1.6164 0.13778-1.8955-0.27572-6.4072 4.766-8.9362 0.4377-0.20678 0.96154-0.13779 1.3269 0.13778 2.2022 1.7646 5.5807 5.0093 5.8602 8.0608 0.13778 1.6784 0.80301 2.6399 2.347 2.6399l0.68239 2.0196c-2.1264 0.31017-4.6202-0.65482-4.5472-4.0364 0.06897-3.15-2.4331-5.3619-5.07-7.6355-2.5641 1.0201-3.7445 3.465-3.7445 8.3041 0 2.5641-2.5055 4.8387-6.1036 2.9294z"/>
   <path d="m98.568 273.78c2.2264 4.1826 5.6659 7.5138 8.4499 9.2036 2.7847 1.6887 3.6111 4.8511 0.92364 6.4561l0.52385 1.7887c1.9817-1.1787 5.2037-5.1065-0.58244-9.532-2.6744-2.0437-4.4376-2.4814-8.4375-8.2069-0.51006-0.73064-1.5681-1.0201-0.87539 0.27572"/>
   <path d="m110.15 285c1.7611 0.87538 2.2746 4.766 3.514 5.4226l0.86505 1.9438c-3.3809-0.13779-3.0018-3.5257-4.1581-5.386z"/>
   <path d="m82.435 293.17c1.2028-2.7606 1.3269-5.7992-3.5257-6.614-4.6688-0.77888-6.4075 2.0437-6.6505 4.5227-0.36531 3.6597 0.34464 7.9756 1.3613 11.708 0.9133 3.3327 2.4676 3.2706 3.9634 0.45147 2.5641-4.8391 3.83-7.7203 4.8511-10.067m-6.8084 9.3373c-0.94775-1.5336-1.9713-6.298-2.1161-10.103-0.17231-3.8179 2.1161-4.766 5.0455-4.1826 2.9432 0.58244 3.4154 2.3573 2.2746 4.766-1.2407 2.6365-3.4395 6.6626-5.2037 9.5196"/>
   <path d="m108.83 289.83c-1.1304-3.1983-3.4395-4.4014-7.1123-3.0018-3.6597 1.3855-4.9849 6.298-2.6365 9.2281 2.347 2.9432 4.6564 6.0791 5.9819 7.6841 2.4194 2.9673 3.9878 2.7123 4.6199-0.94776 0.65482-3.8176 0.65482-8.6932-0.85126-12.961m-1.3131 13.629c-1.8369-1.6784-4.693-5.2764-6.8208-7.6958-2.1264-2.4194-1.4716-6.0064 1.096-7.3315 2.5641-1.3131 4.8026-0.78923 5.7265 1.8369 1.096 3.15 1.6784 8.5715 0 13.191"/>
   <path d="m122.61 286.63c-1.4096-2.9294-4.6199-3.9758-7.4042-2.2264-2.7847 1.7646-3.5381 7.2219-1.1166 8.7659 2.4194 1.5336 4.6323 3.1603 6.4682 4.6933 2.6641 2.2367 3.7324 1.9817 3.8906-1.4716 0.13779-3.15-0.069-6.1032-1.8369-9.763m-0.13778 10.091c-1.9093-1.251-4.766-3.0018-7.0396-4.4745-2.2746-1.4578-1.7508-5.0576 0.51007-6.6626 2.2746-1.6164 4.6688 0.0245 5.5077 2.1884 1.1683 3.088 1.3131 5.7265 1.0201 8.9486"/>
   <path d="m128.7 235.7c-2.1506 2.2022-4.2432 4.8632-5.021 7.2705 2.8192-1.5061 5.2644-2.6985 7.854-3.769 0.88917-0.36533 1.2648 0.31016 0.20678 0.8995-2.7227 1.5061-5.4467 3.088-7.1733 4.389-2.5882 1.9679-3.6597 1.0442-2.1988-2.2988 1.251-2.8812 3.6597-5.3981 4.9728-6.4923z"/>
   <path d="m130.84 240.09c-0.20679 0.94776-0.36532 2.092-0.68239 2.9294 1.8852-1.5199 4.2918-3.088 5.131-3.6597 0.83747-0.58244 1.2648-0.54798 1.6302-0.10345 1.0925 1.3613 2.8192 3.8782 3.3912 4.9724 0.74099-1.6784 1.6784-4.085 1.8852-5.1792 0.20677-1.0925 0.91329-0.96154 1.4716-0.47559 1.4096 1.2648 3.5016 3.088 5.0821 4.0364-0.20678-1.6301-0.13779-3.6108-0.069-4.9239 0.069-0.73064 0.48594-0.81335 1.1545-0.63068 2.2505 0.63068 7.4284 2.4676 9.1064 3.5136-1.3613-4.45-3.9272-9.1064-6.4437-11.514l0.94776-0.74097c2.1506 2.1506 5.2768 7.0517 7.0155 11.258 0.99601 2.409 0.5721 4.3163-2.7709 2.2505-2.0437-1.251-4.9728-2.6124-7.8057-3.4526 0 1.7749 0.10345 2.9777 0.31017 4.4011 0.20679 1.4096-0.31017 2.664-2.3573 1.1442-1.4096-1.0443-3.2465-2.5641-4.5468-4.1336-0.27572 1.6301-0.94776 3.8176-1.6301 5.2888-0.94776 2.0541-1.6405 2.3091-3.088-0.20678-0.62035-1.1063-1.4578-3.088-2.5641-4.5592-2.2505 1.3131-3.9272 3.15-5.2282 4.5106-1.3131 1.351-3.3189 1.5302-2.4676-0.83747 0.4756-1.3131 0.68239-2.1023 0.99601-3.2465z"/>
   <path d="m144.35 240.35c-0.5721 2.0437-1.3131 5.0214-1.7266 7.2219l1.2028 1.8231c0.4756-2.7227 1.2648-5.4836 2.2126-7.7813z"/>
   <path d="m142.72 246.74c-0.41357-0.8616-1.3131-0.34465-0.87537 0.75475 1.6784 4.2311 6.0912 11.745 8.8148 14.833 1.1304 1.289 2.1781 1.0443 0.85125-0.77889-2.4676-3.4154-6.5778-10.164-8.7904-14.808"/>
   <path d="m133.77 241.24c-1.6301 4.766-2.6158 7.3801 0.78923 12.985 3.3913 5.5925 4.45 9.1064 2.5641 11.72-1.8852 2.6158-4.766 2.2505-6.7112 2.092-1.9334-0.13793-6.0791-0.0345-7.4773 1.9438-0.99601 1.4096 0.54797 5.7751 2.2022 8.0608 0.62035 0.85125 1.8369 0.81333 3.0259 0.17231 3.15-1.7266 6.4437-2.7847 10.991-1.4234 4.5592 1.3613 19.477 5.3254 22.723 10.578 1.1063 1.7887 3.1982 1.7887 4.1946 0l1.6887 0.96155c-0.73064 2.4573-4.5472 4.1091-6.7477 0.51006-2.7123-4.4255-12.596-7.8785-22.189-10.493-2.2987-0.6307-5.9454-0.74099-9.6899 1.606-2.9191 1.8369-4.6202 0.64448-5.5807-0.73063-1.096-1.5681-3.3086-6.8328-2.2746-9.8357 0.86505-2.5538 6.2008-3.2224 9.0337-3.0156 2.8226 0.20678 4.705 0.34464 5.6535-1.1787 0.93742-1.5199 1.1545-3.8786-3.0156-10.274-2.3573-3.6108-3.3671-6.1763-1.544-12.194z"/>
   <path d="m122.1 270.04c-2.1506 1.4096-5.0334 4.462-6.0302 7.3436l1.2648 1.1304c1.1063-2.664 3.453-5.751 4.8146-6.748z"/>
   <path d="m124.19 277.68c-2.1506 0.68238-5.1792 1.0443-6.5409 0.99601l1.1304 1.5681c2.1885-0.069 4.4862-0.58243 6.0426-1.3613z"/>
   <path d="m155.13 272.13c2.8708 3.343 6.7722 4.8025 11.417 4.1336 3.2706-0.47217 4.9242 3.2086 4.8267 5.3012l1.8369 1.0339c0.93742-4.2432-2.5055-8.231-6.7232-7.6961-5.0093 0.64447-7.2585-0.99601-10.517-3.343-0.94776-0.68239-1.8128-0.54798-0.83747 0.57211"/>
   <path d="m171.44 280.61c-2.2264-0.96155-4.9118-0.45149-6.1642 2.054-1.2648 2.5159-0.82713 5.374 1.2648 6.006 2.092 0.63068 7.3801 2.895 9.1553 4.5716 2.2505 2.1161 3.3085 1.351 2.9432-1.8369-0.31017-2.7709-1.6543-8.3892-7.1978-10.797m5.1551 10.942c-1.4716-1.1546-6.3951-3.2465-8.7538-3.8786-2.347-0.62035-1.7749-3.1845-0.98567-4.4496 0.77889-1.251 2.3711-1.7404 4.1336-1.096 4.7054 1.7266 5.3374 6.2855 5.6049 9.4224"/>
   <path d="m172.67 281.76c1.8852 0.20679 3.5015 0.17232 4.45-0.20678l1.4716 1.0442c-0.99601 0.57211-2.2022 1.1545-4.3528 0.88917z"/>
   <path d="m184.52 276.5c-1.351-1.4234-3.1121-2.1023-4.7781-0.87539-1.351 0.98568-2.5882 2.1747-3.4529 3.8906-0.70652 1.4234-0.8754 2.9294 1.1063 3.5987 1.6646 0.54799 6.9304 3.281 9.5441 5.7996 1.6887 1.6164 3.405 1.8611 2.7227-1.9817-0.6824-3.8296-2.895-8.0728-5.1427-10.432m3.2844 10.553c-2.1023-1.6784-5.4956-3.405-9.532-5.1792-1.096-0.48594-0.99601-1.1545-0.63068-1.7266 0.37565-0.58243 1.058-1.6784 2.2022-2.7227 1.1545-1.0442 2.6503-1.1304 3.83 0.2068 2.2988 2.6124 3.5015 5.2402 4.1336 9.4224"/>
   <path d="m183.19 276.21c1.2028-2.2987 3.4154-4.3039 5.8847-2.2126 2.4573 2.092 4.1702 6.1887 4.5834 9.0702-2.0437-1.1546-4.705-2.2022-7.3798-3.1362l0.52384 1.7749c2.5641 1.4096 4.1095 1.9817 6.237 3.3809 2.347 1.544 3.6232 1.251 2.9432-2.054-0.58244-2.7709-2.6882-7.6596-6.1883-10.383-3.5136-2.7227-6.5409-0.20678-8.0608 3.0397z"/>
   <path d="m158.95 264.96c-1.1442-1.0443-1.7508-0.41358-0.78922 0.52386 3.3568 3.2465 7.2705 5.4591 12.766 5.8723 5.4956 0.4239 8.8876 2.7123 10.14 4.7054l1.9093-0.81335c-1.7887-2.7709-5.2158-4.6444-11.672-5.1065-3.6597-0.24125-8.1094-1.2993-12.353-5.1792"/>
   <path d="m189.16 272.92c-0.2757-2.5641-0.2757-3.405-4.1822-3.453-3.9272-0.0345-11.417-0.10345-17.435-1.8852-6.0181-1.7887-11.113-5.082-13.823-6.8573-1.8369-1.2028-3.1259-1.2648-4.3769-1.2648l-1.251-1.9817c2.5641-0.10345 4.1822 0.49974 6.1763 1.9093 1.9817 1.4234 8.851 5.629 13.872 6.8328 5.0335 1.2028 13.836 1.6405 16.827 1.4716 3.8906-0.20679 7.3436 0.87538 5.7265 6.6016z"/>
   <path d="m24.784 129.62c-7.3315-12.158-14.14-31.465-16.11-42.553-0.36533-2.0678 0.13778-2.2608 2.4917-1.0718 17.666 8.8269 42.335 31.064 54.079 62.712l1.3131-1.2752c-12.438-33.374-36.803-54.772-54.626-63.684-4.2918-2.1402-6.5168-2.0196-5.4832 3.8055 1.9438 10.942 8.4985 27.952 15.672 40.17z"/>
   <path d="m46.375 113.9c-0.81335-2.4435-2.0678-7.4042-2.5297-10.225-0.20678-1.251 0.20678-1.4716 0.85126-1.096 13.703 8.0611 23.234 19.429 30.104 34.602l0.96154-0.96154c-6.9545-15.368-16.134-27.696-30.018-35.866-3.5743-2.1023-4.5348-0.65481-3.8417 3.4891 0.38945 2.3815 1.0201 4.9121 2.2746 8.1459z"/>
   <path d="m65.319 119.71c4.6444 1.5061 9.532 5.9209 12.414 10.419l0.85126-1.1201c-3.343-5.7141-10.03-10.845-15.246-11.733z"/>
   <path d="m21.075 155.98c-8.1824-11.307-12.851-25.933-15.271-35.392-0.70652-2.795 0.31017-3.05 2.6503-1.5922 3.5625 2.2264 35.161 22.991 47.867 44.037l0.88917-1.6543c-12.888-21.045-42.857-41.739-46.444-43.976-6.6264-4.146-8.4988-1.9334-6.8938 4.3159 2.3711 9.3377 7.0641 22.48 14.894 33.155z"/>
   <path d="m25.703 183.08c-11.052-9.763-16.292-21.07-20.633-31.672-0.64448-1.5681-0.13778-2.092 1.5199-1.482 12.827 4.6685 30.991 15.21 42.638 28.243l0.59621-1.7025c-11.757-13.155-29.021-23.733-41.97-28.438-5.702-2.0782-6.8083-0.069-4.6443 5.2282 4.3769 10.699 11.307 22.638 22.517 32.535z"/>
   <path d="m34.735 183.63c4.2187 1.544 8.0728 3.9999 10.59 6.3586l0.53419-1.6164c-2.8708-2.6882-9.0943-6.0791-13.885-7.5014z"/>
   <path d="m29.669 161.05c0.89952 3.6353 2.092 8.4864 3.9758 13.058-5.0455-2.1644-12.924-4.1336-19.952-4.1336l0.37566 1.5819c7.356 0 13.945 2.3814 18.797 4.3648 3.6718 1.5061 4.2311 0.65482 2.4194-3.088-1.6405-3.3912-2.6399-6.4923-3.8541-10.906z"/>
   <path d="m14.577 146.62c7.9271 2.092 15.842 5.2768 21.265 7.599 3.3327 1.4337 4.073 0.88916 3.2947-2.5297-1.289-5.751-4.4014-12.012-6.93-16.523l-2.092-1.2166c2.6365 5.0696 5.4346 12.669 6.8083 18.249-6.2614-2.7123-15.295-5.5804-23.343-7.3432z"/>
   <path d="m19.534 121.28c10.796 0.76509 19.185 6.2614 24.341 9.6899 3.0156 2.0196 4.1336 1.4578 3.7445-2.092-0.64448-5.9578-1.8714-11.781-5.6169-19.721l-2.2022-2.092c3.2844 7.7813 4.766 15.842 5.4346 21.763-5.4832-3.5257-15.623-9.094-26.359-9.094z"/>
   <path d="m62.826 116.99c1.3992 4.3404 2.795 9.9573 3.0156 13.07-2.8571-1.8369-8.0852-4.3648-11.83-5.69l0.88572 1.7646c3.9637 1.6543 6.9059 3.5987 9.4714 5.07 2.9191 1.6646 3.3568 0.75476 3.1983-1.9817-0.20678-3.343-1.1063-6.3951-2.8708-10.577z"/>
   <path d="m126.39 90.058c-1.8473-1.3751-2.54-3.0156-2.7468-6.614l-0.97187-0.7065c-0.17233 2.0678 0.49972 5.9454 2.9294 7.8419z"/>
   <path d="m151.06 94.931c1.6543-2.0299 2.1747-4.8997 1.6784-7.8905l0.87538-0.20678c0.58245 2.3229 0.17233 5.4467-1.1442 7.611z"/>
   <path d="m147.73 94.691c-1.0684-1.1304-1.5061-3.3327-1.4337-5.9819h-0.99601c-0.0345 1.7404 0.34464 4.0974 1.1201 5.69z"/>
   <path d="m197.6 39.158c1.482-1.8128 2.0058-3.0742 2.6262-4.7901 1.0684-2.9053 0.13778-3.0397-2.0678-0.99601-8.4254 7.8175-21.483 17.678-33.775 18.845-0.52384 0.03448-0.88915 0.0121-1.4819-0.06897-19.514-2.1264-42.894 15.757-57.119 41.544-1.9196-24.462 9.3252-71.636 57.629-89.739 1.6164-0.60657 2.2608-0.54798 2.6262 0.2757 4.9242 10.882 10.03 31.356 12.815 43.878l1.3992-0.44804c-2.1264-10.419-7.1003-32.632-11.951-44.012-1.2028-2.8329-2.6744-2.895-5.8237-1.7646-32.851 11.769-60.645 44.766-58.238 92.304 0.13778 2.6262 1.544 2.4814 2.6503 0.54797 14.614-25.763 39.55-43.599 55.891-40.997 0.49973 0.06897 1.0442 0.10345 1.4578 0.06897 11.769-1.1545 25.338-10.164 34.006-18.237-0.65826 1.4957-1.482 3.15-2.347 4.5106z"/>
   <path d="m115.99 66.405c-5.2523 7.854-8.6687 16.17-11.113 27.331-0.0345 0.20678 0.20678 0.8616 0.54797 0.97189 0.35153 0.10345 1.2166-0.64448 1.2648-0.83748 2.1023-9.6778 5.5687-17.751 10.407-26.383 3.343-5.9454 2.4676-6.4317-1.1063-1.0822"/>
  </g>
 </g>
</svg>
