<?xml version="1.0" encoding="UTF-8"?>
<!-- Created with Inkscape (http://www.inkscape.org/) -->
<svg version="1.1" viewBox="0 0 302.47 341.74" xmlns="http://www.w3.org/2000/svg">
 <g transform="translate(46.435 31.724)">
  <g fill="#f9dbe1">
   <path d="m-12.527 175.74c3.9218 5.1807 26.248 24.481 36.221 25.155 9.9871 0.68761 11.544-27.087 2.6188-30.725-8.9095-3.6375-27.476-7.8912-32.358-7.7112-4.8361 0.16981-14.614 2.5466-6.4833 13.281"/>
   <path d="m66.27 270.82c-11.874 2.292-28.884 10.092-41.042 24.122-6.4986 7.502 6.1837 14.03 15.782 13.521 25.919-1.3625 56.06-20.678 59.534-24.601 8.2354-9.3284-30.366-13.791-34.274-13.042"/>
   <path d="m196.07 259.07c1.7954 5.1659 22.22 37.328 38.227 41.671 13.955 3.7903 22.46-3.7436 18.971-19.825-2.0076-9.2685-16.201-23.119-43.393-35.337-6.4685-2.9032-16.785 4.8964-13.805 13.491"/>
   <path d="m30.994 90.156c-0.33955-3.9813-4.7915-23.059-8.9689-30.98-4.6718-8.8343-15.52-24.224-27.828-38.074-12.718 5.0971-19.44 9.3419-30.314 16.423 7.6366 23.059 19.315 46.897 25.514 52.616 4.7317 4.3722 28.914 18.447 33.496 18.252 4.5666-0.21221 6.6332-0.8701 8.0555-5.7796 1.0951-3.6969 0.50934-7.0075 0.04245-12.458"/>
  </g>
  <path d="m-42.637-7.3479c-4.8064 3.3701-0.53904 23.568 6.5135 44.86 11.08-3.7139 21.322-9.2983 30.321-16.411-15.333-17.265-31.699-32.043-36.834-28.449" fill="#fff"/>
  <path d="m44.276 160.65c12.054-13.731 24.928-19.256 51.686-8.3405 38.856 15.827 84.493 77.383 76.647 112.18 16.276-6.738 35.578-20.71 46.239-35.638 0.25469 3.1579-1.2733 5.3302-1.7954 8.2949 8.5347-16.815 9.2986-37.643 2.0967-54.982-4.3573-10.481-13.521-23.179-35.517-49.591-13.715-16.471-33.151-40.952-41.327-48.454-16.396-15.033-51.942-19.166-75.54-11.05-19.001 6.5432-34.573 13.431-38.272 21.307-20.274 42.973-9.5079 92.46-1.4389 112.21 0.16981 0.43293 0.91256 1.5704 1.0951 1.9906-0.83571-19.315 5.062-35.335 16.128-47.928" fill="#f9dbe1"/>
  <path d="m65.449 264.61c-0.47962-0.91255-0.92953-1.8251-1.3497-2.8013 13.776 6.8577 46.462 13.925 86.471 6.873 7.367-1.303 15.887-3.7436 24.556-7.3373 7.8458-34.798-39.994-95.724-78.85-111.55-26.772-10.915-44.037-6.0194-56.09 7.7113-11.065 12.593-19.51 31.489-13.625 50.82 5.4651 13.162 11.604 24.541 18.312 34.154 6.783 9.1637 13.955 16.441 20.574 22.131" fill="#fff"/>
  <path d="m218.85 228.84c-10.661 14.943-27.446 25.754-43.722 32.492-2.3788 5.6298-1.9928 6.5882-5.4206 11.08-1.4813 1.8421-3.9685 2.9796-7.2919 4.477 13.82-3.9091 26.533-11.724 38.272-20.843 6.9477-5.3904 10.212-11.605 16.246-18.971 0.53904-2.9668 2.1859-5.0759 1.9185-8.2354" fill="#d7bdc4"/>
  <path d="m170.88 271.04c2.6655-3.2937 3.3047-5.5262 4.2465-9.704-8.6696 3.595-15.566 4.553-22.933 5.856-40.009 7.0372-74.058 0.16981-87.834-6.6633 3.3531 4.1171 6.9175 6.0941 8.8942 7.6064 1.1672 0.88284 2.3939 1.7063 3.6672 2.517 2.275 1.3794 4.612 2.6358 6.9625 3.7563 0.38201 0.16982 0.74703 0.33956 1.1375 0.52207 0.16981 0.0849 0.29712 0.16981 0.46265 0.21222 6.9477 2.9966 14.674 4.9711 22.595 6.1391 18.103 2.067 31.834 1.9906 56.569-4.9863 3.3234-1.511 4.747-3.4125 6.2291-5.2554" fill="#dcdddd"/>
  <path d="m134.37 172.52c-10.99 6.5135-28.03 27.596-21.053 38.527 3.5356 5.5551 26.428-1.4516 43.049-12.428 6.4685-4.2822-14.254-30.68-21.996-26.099" fill="#f9dbe1"/>
  <g fill="#d7bdc4">
   <path d="m41.394 114.14c5.9596 9.3585 14.195 14.254 27.94 13.027 17.249-1.528 34.019-16.935 33.091-29.273-0.73427-9.8526-5.1506-12.128-6.1841-12.518-1.0314-0.42444-57.512 24.571-54.847 28.764"/>
   <path d="m-15.151 170.32c2.7122 2.5594 9.1938 6.5283 16.71 11.095 9.2537 5.6298 21.082 9.7626 21.082 9.7626 0.95923 4.5517 2.0373 8.1153 2.7716 11.425-12.592-3.0984-39.14-23.628-40.563-32.283"/>
   <path d="m74.613 270.2c-3.4295-1.4219-16.89 1.9779-23.269 6.6782 7.3369-3.6078 24.452-1.736 25.904 20.813 13.027-5.6901 21.292-10.976 26.563-16.591 0.64515-0.68761-25.081-9.1786-29.198-10.901"/>
   <path d="m119.11 212.33c-2.4108 0-5.5699-1.0314-3.1578-1.7063 2.9796-0.85314 8.8496-3.4422 10.347-3.9813 7.8314-2.8607 19.675-11.125 24.107-14.868 5.9443-5.016 9.1637 5.6447 4.1935 8.46-6.7079 3.7903-23.224 12.068-35.487 12.098"/>
   <path d="m197.96 263.43c-5.151-6.9176-2.8013-14.704 13.042-17.279 2.6188-0.42443 14.314 6.0194 12.338 6.6782-16.441 5.5551-16.875 16.815-17.459 21.816-0.29712 2.7122-6.199-8.909-7.9209-11.215"/>
  </g>
  <path d="m28.612 97.114c-14.075 26.488-17.669 98.854 22.011 149.58 45.968 58.8 151.93 35.172 169.18-23.059 7.232-24.436-1.9015-50.55-29.587-80.856-26.683-29.198-51.269-77.682-97.911-71.692-3.264 0.42444-3.9982-3.0093-1.4516-3.2809 51.209-5.1956 74.852 44.411 99.288 70.405 24.077 25.59 43.976 56.539 32.118 89.706-19.301 53.949-121.21 82.952-173.36 22.669-28.015-32.387-45.714-105.97-21.562-157.56 1.6935-3.6078 2.831 1.1545 1.2733 4.0874" fill="#0f141b"/>
  <path d="m49.438 118.16c5.8246 8.1455 4.8212 20.439-2.2453 27.461-7.0521 7.0228-17.504 6.1243-23.313-2.0076-5.8246-8.1455-4.8217-20.439 2.2453-27.461 7.0521-7.0377 17.504-6.1243 23.313 2.0076" fill="#0f141b"/>
  <path d="m47.994 119.31c5.106 7.1421 4.1765 17.968-2.0501 24.167-6.244 6.2142-15.437 5.4354-20.543-1.7063-5.106-7.1425-4.1935-17.968 2.0501-24.167 6.2287-6.199 15.437-5.435 20.543 1.7062" fill="#fff"/>
  <path d="m49.182 122.88c4.612 6.4685 3.7266 16.321-1.9906 21.996-5.7198 5.6748-14.105 5.016-18.717-1.4516-4.612-6.4685-3.7139-16.306 2.0076-21.981 5.6149-5.5848 14.165-4.9409 18.702 1.4388" fill="#0f141b"/>
  <path d="m48.334 124.12c4.0874 5.7198 3.3531 14.375-1.6298 19.331-5.0012 4.9711-12.353 4.3569-16.441-1.3624-4.0874-5.7198-3.3531-14.374 1.6468-19.33 4.9863-4.971 12.338-4.3573 16.426 1.3625" fill="#008a8a"/>
  <path d="m128.62 113.75c7.1124 10.287 3.8921 24.017-7.2024 30.68-11.08 6.6633-25.859 3.7266-32.971-6.5585-7.1272-10.271-3.9091-24.017 7.1871-30.665 11.095-6.6633 25.859-3.7436 32.986 6.5432" fill="#0f141b"/>
  <path d="m126.89 114.69c6.4834 9.3585 3.5483 21.861-6.5432 27.925-10.092 6.0491-23.538 3.3828-30.022-5.9744-6.4685-9.3432-3.5483-21.846 6.558-27.91 10.092-6.064 23.523-3.3998 30.007 5.9596" fill="#fff"/>
  <path d="m125.95 116.43c5.7049 8.2201 3.1281 19.211-5.7499 24.541-8.8789 5.3306-20.693 2.9796-26.383-5.2406-5.7049-8.2202-3.1281-19.211 5.7499-24.541 8.8789-5.3306 20.693-2.9796 26.383 5.2406" fill="#0f141b"/>
  <path d="m124.51 117.3c5.1807 7.4867 2.8438 17.489-5.2257 22.325-8.0856 4.8514-18.836 2.7249-24.017-4.7614-5.196-7.4867-2.8438-17.489 5.2253-22.34 8.0856-4.8361 18.837-2.7122 24.017 4.7767" fill="#008a8a"/>
  <path d="m44.618 126.26c0.08491 2.2623-1.4389 4.1765-3.4422 4.2822-2.0203 0.0849-3.7436-1.6638-3.8624-3.9218-0.08491-2.275 1.4388-4.1935 3.4592-4.2975 2.0203-0.0849 3.7436 1.6638 3.8497 3.9388" fill="#fff"/>
  <path d="m115.99 114.42c2.4108 1.9779 2.9202 5.3904 1.1375 7.6366-1.7827 2.2325-5.1807 2.4235-7.5916 0.4499-2.4108-1.9779-2.9202-5.3904-1.1375-7.6213 1.7826-2.2326 5.1807-2.4405 7.5916-0.46263" fill="#fff"/>
  <g fill="#0f141b">
   <path d="m21.369 106.81c-7.8309-3.1154-25.41-12.667-30.336-17.369-12.712-12.143-30.8-62.604-34.423-87.759-1.2266-8.46 3.056-9.9425 10.092-4.657 21.097 15.842 51.958 55.162 55.536 65.359 4.4622 12.757 7.4867 22.011 7.7864 25.529 0.25466 3.1154 1.7232 2.3642 1.5577-0.16981-0.16981-2.5297-6.4532-24.047-7.5313-26.683-10.482-25.62-50.835-63.562-55.312-66.572-10.691-7.1875-16.082-3.1281-15.049 5.9443 2.7249 24.077 23.598 82.638 37.628 92.94 3.803 2.7843 28.255 15.737 29.917 16.351 3.3998 1.2266 2.3939-2.0373 0.12736-2.9329"/>
   <path d="m21.933 199.35c-6.738-1.9906-39.425-23.987-35.562-31.953 3.4295-7.0525 22.265-1.2139 28.404 0.62817 6.5283 1.9609 6.2588-0.25468 0.76401-2.3811-7.5614-2.9032-27.326-8.4748-31.519 0.92954-5.016 11.2 31.279 35.023 41.012 36.61 3.2342 0.50932 1.6171-2.4406-3.0984-3.8327"/>
   <path d="m154.05 198.84c-4.3722 2.8905-21.592 10.332-29.857 11.904-8.2953 1.5577-12.488-1.3625-11.395-6.5436 2.067-9.7774 14.209-24.047 21.023-29.692 0.97197-0.80644 0.50933-2.3811-1.2861-1.5407-8.5198 4.011-20.199 21.951-21.936 28.944-2.6655 10.781 3.7733 13.386 15.378 11.14 6.2741-1.2266 22.82-6.9778 29.138-12.084 2.5297-2.0501 1.9312-4.1044-1.0611-2.1265"/>
   <path d="m71.346 271.17c-18.552 2.0967-42.345 17.519-44.935 25.889-2.1392 6.9027 5.9146 14.315 33.151 5.7796 15.812-4.9558 36.79-17.204 43.363-21.651 2.5-1.6935 5.106-1.5704 3.0984 0.53905-6.2885 6.5882-32.911 19.795-41.985 23.253-31.459 11.949-43.557-0.21223-41.461-7.4566 3.8921-13.416 31.744-26.158 44.037-28.255 8.7596-1.4813 15.782 0.64514 4.7317 1.9015"/>
   <path d="m212.17 248.19c9.5079 4.8212 37.688 18.088 40.144 36.176 2.3047 17.054-13.401 20.124-28.494 8.909-12.203-9.0737-23.179-28.105-25.305-31.923-2.6061-4.6417-5.0759-2.8608-2.3938 1.8888 7.1272 12.563 19.271 28.629 28.644 34.738 16.845 10.96 34.633 3.6375 30.725-15.273-3.1918-15.467-25.081-29.587-43.079-37.254-3.8794-1.6638-4.477 0.59846-0.25468 2.7419"/>
   <path d="m23.473 96.437c-17.549-40.503-50.206-83.506-61.57-92.176-2.9499-2.2453-3.6247-1.3922-1.2563 0.71729 1.0484 0.92954 2.1392 2.0076 3.264 3.1748 2.4575 12.862 26.203 70.54 31.055 74.972 3.264 2.9668 12.293 8.6696 24.182 9.7329 0.95925 1.9312 2.0373 4.2232 2.5764 5.3603 2.9202 6.1841 3.5017 2.275 1.753-1.7826"/>
  </g>
  <path d="m59.93 147.34c-4.2975 1.5407-4.8212 10.421-0.44991 14.674 5.2856 5.151 14.015 2.1859 13.102-4.6566-0.73428-5.5101-6.7682-12.128-12.653-10.017" fill="#ed8599"/>
  <path d="m124.47 58.47c-4.2975 8.0856-5.2856 25.485-1.6044 31.549 2.2156 3.6247 4.1341 5.0912 7.1425 6.1391 4.2525 1.4983 6.3785 2.5297 20.753-3.5016 22.79-9.5529 45.564-42.36 60.387-72.082-9.0755-6.235-22.435-15.423-34.723-22.175-19.959 16.546-40.173 37.867-51.958 60.073" fill="#f9dbe1"/>
  <path d="m215.48-29.103c-9.2235 4.8964-22.849 14.09-39.05 27.506 9.957 9.4332 21.711 17.01 34.723 22.161 9.0436-18.088 14.494-35.053 15.842-44.92 0.59846-4.3123-4.1044-8.6697-11.515-4.7465" fill="#fff"/>
  <path d="m140.65 91.951c41.267-1.511 82.009-93.164 84.869-115.67 0.43292-3.3701-2.7844-6.9324-9.7176-3.5186-13.925 6.8577-65.374 43.078-89.735 86.426-4.4617 7.9358-4.3272 18.163-3.5483 26.593 0.33956 3.9091-1.6171 1.511-2.6061-2.6188-2.8438-11.814 1.9906-20.678 4.5521-26.742 10.706-25.41 66.047-75.226 89.481-85.977 9.1934-4.2232 16.47-2.8438 13.88 9.2235-7.2469 33.675-48.588 114.31-84.644 114.65-5.0908 0.0425-7.8462-2.1731-2.5297-2.3641" fill="#0f141b"/>
  <path d="m75.424 60.465c6.4834 0.43293 21.846 10.721 21.172 29.303-0.49234 13.476-9.3135 29.063-35.532 29.063-20.304-0.01464-35.532-20.753-37.329-35.786-3.4889-29.258 15.423-46.133 28.494-48.259 11.649-1.8845 23.149 2.1095 25.26 12.982 0.59846 3.0984 0.59846 7.4719-2.067 12.698" fill="#f9dbe1"/>
  <path d="m28.616 98.363c3.578 6.4986 18.133 23.748 39.335 21.053 18.956-2.4108 26.997-16.171 28.12-24.646 0.84039-6.1688 0.65788-12.113-0.16981-9.4179-4.4172 14.224-12.698 22.25-26.323 26.473-12.083 3.7436-30.471-1.6341-41.461-17.16-2.8438-4.011-0.70457 1.4813 0.50932 3.6969" fill="#d7bdc4"/>
  <path d="m55.998 58.899c-0.77673 0.80642 2.7419 11.515 11.32 11.649 7.8462 0.12736 12.922-7.2172 12.622-8.2953-0.29711-1.0611-4.2975-1.4091-4.2975-1.4091s-3.3234 3.3828-9.1336 3.8327c-6.0793 0.46265-8.7745-3.0263-10.511-5.7796" fill="#d7bdc4"/>
  <path d="m215.34-15.637c-27.94 10.062-79.209 72.336-81.784 97.821-0.59846 5.8844 1.9609 5.7796 2.5297 2.2453 0.0424-0.42445 0.16981-0.85314 0.25468-1.2733 3.4592-3.3531 14.734-10.287 15.528-10.002 0.16982 0.0849-0.25466 4.4023-0.70457 7.0075-0.12736 0.67485-0.29711 1.5874 0.0849 1.6298 1.1375 0.16981 9.2685-4.5818 15.632-11.02 14.465-14.599 50.371-73.444 47.181-83.372 0.91255-0.38198 1.7657-0.70457 2.5297-0.8701 3.6969-0.7937 2.8607-3.6544-1.2733-2.1689" fill="#0f141b"/>
  <path d="m75.002 61.76c9.1187 0.88284 20.768 12.503 20.469 27.222-0.52208 25.514-29.513 32.462-43.453 27.087-19.001-7.3369-31.025-26.068-26.817-48.783 3.8624-20.918 20.873-33.48 36.041-31.638 9.3135 1.1078 15.183 7.3967 15.527 16.081 0.25466 6.4536-4.6417 12.278-11.964 11.694-4.5521-0.382-6.3339-2.6655-6.7979-4.9711-0.91253-4.4473 2.9923-5.9294 2.8905-6.3339-0.12736-0.56876-5.3454 0.95923-5.1807 6.2439 0.12736 4.1638 5.2559 7.4417 10.302 7.2321 8.9842-0.33957 13.057-6.199 12.997-14.749-0.0424-9.1191-7.3666-15.752-17.024-17.429-18.567-3.247-35.352 14.045-38.497 31.01-4.7313 25.604 5.1209 44.471 27.611 53.455 21.322 8.5198 47.825-7.1124 46.642-29.423-0.98895-18.836-13.94-27.806-22.385-29.168-1.7954-0.2971-2.9626 2.2156-0.33955 2.4702" fill="#0f141b"/>
  <path d="m58.597 161.56c0.95925 2.1859 0.70457-4.2673 4.9859-5.4953 4.2975-1.2266 8.3403-0.68759 9.1488 0.49237-0.0425-1.1545-4.522-9.7774-10.616-9.7028-6.0941 0.0849-7.2019 6.2291-3.5186 14.704" fill="#923000"/>
  <path d="m58.513 161.17c-0.21222 1.1969 1.3625 1.8124 1.4686 0.59847 0.38201-4.5819 7.322-7.3518 12.218-4.6116 1.0611 0.58147 1.303-1.0611 0.21223-1.5407-6.4235-2.7546-12.922 0.21222-13.88 5.5551" fill="#0f141b"/>
  <path d="m60.589 148.07c-4.2525 1.511-4.2062 10.107-1.0314 13.192 5.7049 5.5551 13.476 1.5874 12.458-3.5186-0.65789-3.2767-5.4053-11.829-11.425-9.6726m13.072 10.047c1.0017 5.3157-8.3398 10.736-14.808 4.4473-3.5016-3.4295-5.0912-13.701 1.0186-15.887 7.2771-2.6061 12.817 6.199 13.79 11.44" fill="#0f141b"/>
  <path d="m18.761 90.823c-11.035-1.1375-19.48-6.4685-22.445-9.1637-3.6077-3.2937-24.302-51.733-29.513-70.045 13.177 14.045 36.625 46.417 51.958 79.209" fill="#3e4e57"/>
  <path d="m135.71 81.055c3.9388-24.916 49.412-79.853 76.454-93.164l0.0302 0.12736c2.6952 8.3848-31.774 66.287-46.702 81.365-4.252 4.2975-9.1637 7.6816-12.068 9.3436 1.0781-6.738 0.25467-7.0377-0.89982-7.4269l-0.29711-0.08491-0.33955-0.01464c-2.1689-0.08491-12.532 6.8127-16.186 9.8823" fill="#3e4e57"/>
 </g>
</svg>
