<?xml version="1.0" encoding="UTF-8"?>
<!-- Created with Inkscape (http://www.inkscape.org/) -->
<svg version="1.1" viewBox="0 0 230.02 335.2" xmlns="http://www.w3.org/2000/svg">
 <g transform="translate(12.456 10.924)">
  <path d="m45.612 90.931c1.294 0.15936 3.7107-1.4502 5.0598-1.6861 2.0239-0.34742 3.0694 0.59602 5.5545 0.93388 4.8014 3.9131 11.121-1.1697 20.464-7.8707 1.8327-1.3164 3.7779-2.6997 5.8579-4.0817 7.0165-1.2048 13.808 8.4556-2.7666 21.69 3.8793 4.1266 7.2524 10.153 8.7367 16.743 7.7136-21.398 9.3213-33.181 6.0944-44.797-5.4423-19.509-16.27-31.281-27.503-34.677 0.91158-3.9915-6.3867-28.605-10.21-26.3-1.6638-6.5891-3.733-12.672-5.9144-16.293-2.2024-3.6431-6.3979-6.9939-5.4535 0.69801 0.34741 2.8909 0.60878 30.584-0.06376 42.435-4.1155 6.1391-16.338 4.7899-16.585 35.194-3.1809 8.062-3.3282 11.593-1.5076 17.293-0.12749-5.7458 2.7315-11.311 9.8609-5.0936 3.8232 3.3397 5.1274 5.4535 8.3657 5.8133" fill="#f29600"/>
  <path d="m147.35 194.46 1.2717 16.338c-32.81-11.604-47.709-53.455-37.724-82.746 9.2429-27.098 14.336-60.156-22.792-71.31 4.0705 6.9152 7.0615 15.348 7.7812 25.007 1.8678 24.602-24.13 58.84-8.3546 101.07 14.078 37.679 52.611 68.398 67.465 60.347 13.639-7.3872 15.562-36.644-7.646-48.709" fill="#fccf00"/>
  <path d="m106.57 216.09c-20.487-25.513-32.125-56.839-18.238-98.138-3.2718-11.413-4.9696-14.078-8.3093-18.238 2.6646-2.3713 6.3756-5.3072 8.1971-8.2532 5.3521-8.658-0.76495-16.765-7.7474-11.784-4.5875 3.2721-13.83 9.7936-17.147 11.076-3.5194 1.3705-6.7354-0.22311-7.871-1.3036l-5.9144 0.25499c-0.84463 0.31872-3.1044 1.5076-4.2276 1.1474-3.2045-1.0231-9.8163-7.1625-11.008-8.0393-3.4407-2.4957-9.4338 1.2271-5.4308 9.6024 1.4152 5.1386 15.944 13.055 19.655 13.853 13.167 23.467 8.8378 51.172 1.7211 64.631-2.1706 16.09-19.812 32.023-13.156 61.426 4.9473 21.87 27.233 28.628 44.099 23.984 17.181-4.1827 26.705-20.194 25.378-40.231" fill="#fff1ac"/>
  <path d="m35.397 99.607c-4.4976 25.659 5.7231 32.001 6.3418 51.183 0.78727 24.602-12.998 39.152-10.828 53.544 3.5532-11.761 42.975-45.842 17.541-98.15-3.4519-1.1251-11.705-5.3971-13.054-6.5776" fill="#fccf00"/>
  <path d="m145.41 186.85c-7.5896-3.1934-17.327-33.89-18.418-41.007-5.2622-3.4069-7.3761-7.1176-0.15936-9.2875-5.2957-2.4861-5.9593-13.729-0.93389-15l-1.2367-2.6295 7.1176-1.7084s0.46216 0.61833 0-2.0112c-1.157-1.157-8.6695-5.1048-14.696-10.21-0.31873 10.828-11.806 30.022-8.9729 47.506 2.4734 15.315 6.9601 44.1 40.377 58.796 0.31873-3.8681-0.46216-14.078-3.0917-24.445" fill="#f29600"/>
  <path d="m33.536 166.27c-2.9355 9.5912-25.996 39.928-30.022 44.403-5.172 5.7681-6.7689 6.9152-7.1173-2.3172-0.2231-5.9482 4.3739-33.339 9.4899-43.717 5.2285 5.0261 16.315 8.6692 27.649 1.6319" fill="#00b8ee"/>
  <path d="m148.47 244.1c-0.1275 16.012-13.392 29.291-20.082 35.632-2.2024 2.0813-3.012 7.3088 0.47173 11.717 1.2271 1.5522 3.3282 3.1714 4.4074 5.4532 5.9482 12.594 4.0931 23.781 0.28686 26.143-5.0933 3.1586-22.567-14.999-17.889-30.584 0.92112-3.1044-3.0598-7.0953-6.8476-9.2652-15.326-8.8266-42.154-13.448-48.889-13.909-6.6567-0.46216-8.4333 0.12749-8.7482 1.2239-1.157 3.9468 6.0944 5.4312 0.74264 11.424-5.1048 5.6893-29.201 9.7261-33.193 9.355-8.6357-0.80958-8.4333-3.4069-6.1394-5.8133 4.8237-5.0487 20.509-10.311 23.467-11.626 2.9578-1.3164 5.9032-2.5403 2.9578-7.3423-35.082-8.883-25.221-38.376-12.616-55.883 8.5343-11.851 17.203-28.571 22.781-35.385-2.3267 8.6691-15.326 29.403-13.774 49.204 1.5968 20.453 16.214 33.339 36.363 33.271 23.984-2.1706 36.408-18.249 34.969-42.244 13.144 17.023 31.944 29.246 41.738 28.627" fill="#f29600"/>
  <path d="m166.96 206.11c3.4295 1.2048 6.7016-1.6861 8.7705-9.7487-1.4853 17.012 7.9944 18.553 9.7822 11.019l0.15937-5.9482c0.28686 6.2293 2.5403 12.324 7.0838 12.324 4.3851 0 6.3418-7.2524 6.3418-13.628 2.9801 9.355 3.6093 14.291 9.0962 13.628 3.6093-0.43985 6.2293-7.376 6.5104-15.213-5.3859-23.14-17.664-35.891-20.071-56.884-0.51635-4.4638-2.0239-4.0928-3.1044-1.2367-2.8558 7.5899-4.9476 16.551-6.0157 26.941-2.2821-6.7577-5.6897-13.886-10.94-22.151-2.6996-4.2617-2.9801-2.7092-2.8781-0.22311 1.0454 23.995-4.6216 44.886-7.9609 55.85 0.46216 2.3841 1.5522 4.6662 3.2383 5.2622" fill="#fff1ac"/>
  <path d="m214.69 198.55c-0.28686 7.8373-2.9005 14.775-6.5104 15.213-5.487 0.66295-6.1168-4.2841-9.0966-13.628 0 6.3756-1.957 13.628-6.3526 13.628-4.5314 0-6.7915-6.0944-7.0726-12.324l-0.15937 5.9481c-1.7881 7.5224-11.278 5.9931-9.7936-11.019-2.059 8.062-5.3295 10.94-8.759 9.7487-1.6861-0.59602-2.7762-2.8781-3.2383-5.2622-1.294 4.2165-2.2375 6.9824-2.3172 7.8707 4.5199 6.3306 8.1407 33.564-12.661 36.319-0.75221 17.181-16.877 31.506-16.877 31.506 46.494 7.8934 76.044-17.923 83.33-51.948 1.9666-9.2202 1.396-17.901-0.50678-26.053" fill="#f29600"/>
  <path d="m147.62 116.37c-0.19123-2.553 0.0319-5.9593-0.0956-6.4654-0.34742-1.4152-0.80002-1.3036-2.2152-0.59603-0.59603 0.28686-3.9806 2.9674-5.195 4.2165-0.6534-0.85419-3.4292-3.2832-4.5763-3.958-1.8901-1.1028-2.8558-0.88926-3.0375 0.68527-0.25498 2.2024-0.36972 3.6769-0.4271 7.2973-1.8327-0.0956-4.9139 0.80957-5.7684 1.0454-1.157 0.31872-1.8996 1.2144-0.64064 2.2024-1.7658 1.7753-7.0838 10.109 1.5522 16.012-6.4543 0-6.5553 5.2849 0.25498 9.625 10.142 1.1028 13.021 2.4734 12.335 0.55141 3.0247-0.82233 6.8588-4.6662 9.0513-10.839 1.922 0 4.8014 2.8909 5.2173 4.5314 2.9801-3.5194 4.4638-18.148-6.4428-24.31" fill="#fff1ac"/>
  <path d="m66.397 200.02c-1.4279-4.7787-2.9355-5.7008-6.0042-0.36973-5.2173 9.0513-10.693 23.489-6.7354 31.765 3.9131 8.1856 15.034 8.7479 17.923-1.3164 1.753-6.1056-2.4192-20.813-5.1835-30.078" fill="#f29600"/>
  <path d="m10.341 141.58c-0.19124-1.0454-1.259-4.8237-1.8773-6.1394-0.53866-1.1698-1.2016-1.2717-2.1801-0.43985-0.59602 0.51634-4.2841 4.6324-4.2841 4.6324-0.34742-0.25499-4.7226-2.3044-6.0269-2.7092-2.0144-0.60878-2.5403-0.43985-2.1801 1.2239 0.15937 0.72989 1.2144 3.7556 1.7435 6.1168-1.2239-0.34742-7.2862 1.5522-6.9037 2.7092 0.79683 2.451 7.4099 5.8245 7.4099 5.8245 3.2495 4.3402 7.4771 10.221 13.673 14.404 6.1843 4.1716 10.491 3.7218 15.618 2.4734 5.7346-1.3928 11.615-5.1048 15.787-6.8138 0.47173-6.9263 1.0454-14.28 0.03194-17.372-0.34742-1.0805-4.0253-0.25499-6.7351 2.1801 1.753-3.1363 2.9897-8.017 0.87651-10.828-1.3164-1.753-5.0713-1.1347-7.4325 0.25498 0 0-5.071 5.0936-5.5322 5.8583-3.8455-0.92114-6.7689-0.92114-11.997-1.3833" fill="#fff1ac"/>
  <path d="m51.686 47.76c3.8566-0.12749 6.2066 5.2511 6.4428 11.154 0.28686 6.9713-2.6773 11.975-5.7231 11.975-1.9347 0-6.3641-3.317-6.6567-11.154-0.22311-5.667 1.6064-11.84 5.937-11.975" fill="#fff1ac"/>
  <g fill="#0f141b">
   <path d="m87.631 64.546c-0.91157 0.03182-3.7441 13.268-3.6431 13.527 2.349-0.36016 4.8348 2.059 4.8348 2.059 0.51634-1.2239-0.12749-15.618-1.192-15.584"/>
   <path d="m89.92 81.788c1.3928 3.1809-0.58328 6.9939-0.58328 6.9939 3.9465-2.4733 6.825-7.4098 6.825-9.8274-0.67571 0.74264-3.362 2.0144-6.2404 2.8335"/>
   <path d="m29.248 71.289-1.1698 4.1715c-0.68526 2.0462 0.49404 8.2421 0.74265 8.9841 0.47172-1.6191 1.9793-2.4957 2.8335-1.9889-0.96575-2.9132-2.2598-7.3649-2.4064-11.165"/>
  </g>
  <path d="m127.45 146.43c1.6287 0.87651 10.985 2.6072 13.268 1.4184 4.801 15.854 6.6675 36.622 4.3513 38.702-7.421-4.0479-16.326-32.36-17.619-40.119" fill="#fff1ac"/>
  <path d="m36.483 127.43c-2.7666 2.9228-5.5322 6.9152-6.7689 7.9944 6.454-0.38248 8.4556 3.0821 4.7676 11.998 1.6988-1.0805 5.3859-3.0821 6.4651-1.5395-0.92114-7.8373-2.0016-11.536-4.4638-18.452" fill="#f29600"/>
  <path d="m134.37 298.43c-2.2821-4.8801-6.4654-7.4436-7.4886-10.524-1.2144-3.6992 0.36016-7.0949 1.5076-8.1856 3.8455-3.6319 9.85-9.5689 14.291-16.99-23.016 20.408-40.411 5.4758-71.973 0.0956-19.553-3.3393-44.47-2.6295-55.602-20.273 1.0678 8.3208 4.9473 19.227 24.017 24.333 3.3393 5.442-5.7569 7.8032-9.2875 9.2425 4.0928-0.28686 12.931 5.8245 7.6008 12.132 7.8035-1.9442 12.267-3.9357 14.482-6.3306 2.7761-3.012 2.553-4.329-0.41435-9.6024-1.5745-2.8112 1.6861-3.5083 8.4218-3.0343 6.7239 0.46216 33.676 5.4085 49.665 14.123 3.8343 2.0909 7.1061 5.8356 6.1728 8.9391-1.0359 3.4518-0.38247 8.8939 0.22311 12.02 0.9562-6.6905 13.504-9.625 18.384-5.937" fill="#d18200"/>
  <path d="m158.14 203.55c3.6431 32.585-14.404 36.543-40.557 23.545 14.314 13.391 29.358 20.442 37.421 16.079 10.772-5.8356 13.774-25.625 3.1363-39.624" fill="#dab300"/>
  <path d="m185.62 208.7c0.19123-0.72033 0.39204-1.4502 0.59602-2.1801-1.9793-5.1724-1.7307-31.528-1.2367-36.465-4.9247 17.001-1.9889 34.047-4.1489 41.974 1.5076 0.41435 3.3731-1.361 4.7899-3.3282" fill="#dcd096"/>
  <path d="m180.83 212.02c-1.5841 6.1955-4.6439 17.383-19.25 38.342 9.4676-6.1056 23.062-23.343 24.04-41.67-1.4152 1.9793-3.1714 3.5982-4.7899 3.3282" fill="#d18200"/>
  <path d="m49.104 106.41c0.64064 1.259 0.40479 3.2832 1.4502 4.6213 3.5644 4.5202 9.2537 7.1176 13.313 7.1176 3.8455 0 11.919-6.634 17.912-15.281-0.63109-1.0359-1.2367-2.1036-1.9889-3.0248-10.671 9.0064-20.745 12.807-30.685 6.5665" fill="#dcd096"/>
  <path d="m79.784 99.839c0.75219 0.92113 1.361 1.9889 1.9889 3.0248 2.2056-3.1714 4.1266-6.6117 5.4535-10.097-2.4957 2.62-4.9811 4.9926-7.4436 7.0726" fill="#d18200"/>
  <path d="m119.38 144.62c1.3482 1.9889 4.5763 4.0029 8.2083 5.7346-0.0956-1.3164-0.1275-2.6423-0.58328-3.8455-5.0034-0.97851-7.6234-1.8901-7.6234-1.8901" fill="#d18200"/>
  <path d="m142.55 155.23c-0.65339-3.6769-1.0805-4.7676-1.9443-6.9263-5.6332-0.43985-10.176-1.1347-13.605-1.7976 0.47172 1.2016 0.48447 2.5307 0.58327 3.857 6.2519 2.9897 13.729 5.1386 14.966 4.8686" fill="#dcd096"/>
  <path d="m125.91 121.55s4.2952 11.997 4.9811 12.807c0-3.8904 0.12749-8.0056 0.12749-8.4668-1.4853-1.4853-5.0936-4.3402-5.0936-4.3402" fill="#dcd096"/>
  <path d="m33.536 166.27c-8.2755 5.1386-16.417 4.5763-22.241 1.957-3.7556 8.883-10.412 31.686-8.2981 43.031 0.15937-0.19125 0.33785-0.38248 0.51635-0.58329 4.0256-4.4753 27.087-34.812 30.022-44.403" fill="#00a0cf"/>
  <path d="m7.0339 165.18c0.8542 0.69801 1.7307 1.3833 2.6773 2.0239 6.1843 4.1715 10.491 3.7218 15.629 2.4733 5.7234-1.3928 11.604-5.1048 15.776-6.8138 0.15937-2.3937 0.33785-4.8237 0.46216-7.1287-5.6444 3.5982-20.34 14.269-34.542 9.4449" fill="#dcd096"/>
  <path d="m106.21 226.8c0.48448-3.3958 0.60877-6.9824 0.36017-10.704-10.401-12.965-18.519-27.436-22.173-43.953-0.69803 17.563 8.6019 38.646 21.814 54.658" fill="#dcd096"/>
  <path d="m147.52 251.41c0.58327-2.3618 0.93388-4.8014 0.94345-7.32-9.7822 0.63108-28.582-11.604-41.738-28.616 0.25498 4.0367 0.0956 7.8373-0.44941 11.402 12.043 14.561 27.312 24.894 41.243 24.535" fill="#d18200"/>
  <path d="m142.24 263.94c-4.7561 7.6122-10.367 12.605-10.367 12.605 25.772 4.3739 46.337-1.6192 60.797-13.628-14.572 7.8146-37.971 8.9726-50.43 1.0231" fill="#d18200"/>
  <g fill="#0f141b">
   <path d="m44.985 37.043c-0.92114 1.5299-2.5626 2.5849-4.3178 3.8117-9.9508 6.9828-11.503 15.326-12.121 27.874-0.15937 3.2157-0.22311 4.3175-1.0805 6.6341-1.1251 3.0821-1.9889 6.0154-1.9889 8.4556 0 11.289 8.928 17.653 24.602 23.995 4.6101 1.8678 5.1724 1.0454 0.60878-0.9562-18.137-7.5788-27.526-15.236-21.69-31.944 0.68527-1.9666 0.84464-2.6295 1.0582-5.2511 0.7299-8.7029 0.25499-20.093 11.649-27.514 1.3482-0.87651 2.5753-1.7976 3.5867-2.9132 0.39203-0.41754-0.06376-2.5626-0.31874-2.1929"/>
   <path d="m44.62-4.6181c0.12749 4.2614 0.74264 36.341-0.15937 45.246-0.34741 3.4968 1.2048 2.6646 1.5395-0.88926 0.93388-9.7375 0.44941-41.367 0.28686-44.549-0.22311-4.4864 1.4279-4.4527 4.0029-0.19123 4.6098 7.6457 8.6242 25.861 9.6362 36.678 0.40478 4.3739 1.6191 2.416 1.1793-2.1036-1.0901-11.031-5.0261-28.774-10.019-36.307-3.9803-6.0269-6.7351-5.7458-6.4878 2.1132"/>
   <path d="m57.182 11.044c3.1268 1.361 7.5561 13.201 9.1527 26.232 0.03182 0.4271 1.7753 0.51635 1.753 0.06376-0.47173-6.949-5.5096-26.671-10.693-27.773-0.77451-0.15937-0.4271 1.3705-0.22311 1.463"/>
   <path d="m65.347 37.389c15.09 4.9362 28.684 22.342 29.763 44.414 0.52909 10.952-3.1044 21.443-6.083 31.641-5.7346 19.576-12.616 43.301-2.451 70.501 10.929 29.246 36.127 53.173 53.96 59.852 6.0607 2.2598 11.739 2.3395 15.393 0.36973 6.3641-3.4518 9.9846-11.345 9.9058-20.802-0.12749-12.593-7.3085-24.118-18.823-30.1-0.38248-0.19123-0.0638 1.753 0.25498 1.9347 10.378 5.8242 16.607 16.124 16.698 27.75 0.0638 8.7479-3.5981 16.405-9.355 19.531-3.2383 1.753-7.916 1.5618-13.538-0.53866-17.496-6.5553-42.042-30.561-52.814-59.391-9.9734-26.705-3.2157-49.789 2.7443-70.163 4.3178-14.73 6.4543-23.084 5.7907-31.765-1.8773-24.906-17.653-40.659-30.483-44.212-4.104-1.1347-5.2511-0.4271-0.97851 0.9785"/>
   <path d="m88.594 57.705c11.559 3.6205 19.643 9.7375 24.04 18.193 8.2306 15.843 2.5307 37.207-2.4734 51.892-10.277 30.146 4.97 73.042 39.186 84.601 4.6774 1.5745 4.0029-0.19123 0.39522-1.5395-29.527-11.053-48.979-49.991-37.96-82.296 5.0936-14.966 11.064-37.454 2.5403-53.837-4.7676-9.1638-13.898-15.224-26.559-18.913-0.42709-0.12749 0.41755 1.7658 0.83189 1.8996"/>
   <path d="m80.931 78.49c-4.7338 2.7092-11.784 9.8612-18.564 11.941-3.6316 1.1124-6.3303-0.66296-6.9263-1.2271-0.31874-0.31872 0.12749 1.3036 0.61833 1.6861 0.80958 0.58328 3.3282 1.3833 6.6226 0.64065 5.2511-1.1793 17.035-10.94 18.744-12.008 6.3306-3.9242 16.09 6.6902-3.1363 20.858-3.4184 2.518-2.655 3.362 0.92112 0.83189 19.936-14.044 10.491-27.739 1.7212-22.724"/>
   <path d="m29.089 82.536c-1.957 1.6319-2.1132 5.0936-1.2048 8.1184 0.44941 1.4853 1.9889 2.451 1.7976 2.0558-1.7435-3.6431-1.6988-7.4322 0.28686-9.0851 4.2165-3.5083 9.5912 6.5665 15.404 7.7133 1.3259 0.25498 2.5977-0.46216 3.4295-1.0231 0.36973-0.2231 0.31874-1.1474-0.03182-0.87651-0.78727 0.60559-2.059 0.96576-3.0917 0.79683-4.8463-0.78726-11.638-11.818-16.585-7.7021"/>
   <path d="m52.06 87.296c2.4638 0 4.3739 1.9219 4.4753 4.2729 0.06376 2.0686-1.3259 4.3513-4.1942 4.3513-2.4287 0-4.3178-1.7753-4.43-4.2729-0.09558-2.2471 1.7435-4.3513 4.1489-4.3513"/>
   <path d="m79.378 100.17c3.1268 4.6324 6.3641 9.4338 8.0846 18.395 0.0638 0.4271 1.7212-0.5514 1.6287-0.9785-1.7753-9.2763-5.1947-13.538-8.4107-18.305-0.22311-0.36016-1.5522 0.5291-1.3036 0.88926"/>
   <path d="m39.097 192.26c3.2157-5.3859 7.6572-11.649 10.378-17.17 9.0067-18.26 12.965-45.01-0.31872-68.387-0.22311-0.36973-2.2279-0.67571-2.0016-0.28686 13.74 23.051 9.0516 50.688 0.09558 68.87-2.5977 5.2734-6.5553 10.997-10.457 17.035-10.255 15.82-18.002 27.065-21.094 36.971-5.7343 18.339 2.2726 32.945 20.06 37.139 7.0051 1.6542 10.873 1.1698 0-1.8678-21.094-5.8806-21.735-26.086-17.743-35.992 5.521-13.707 14.516-25.322 21.072-36.307"/>
   <path d="m48.656 174.65c-1.0582 4.1715-2.9674 8.2755-5.0936 12.83-4.6662 10.018-10.187 21.42-8.7367 38.623 1.09 12.807 8.3995 23.208 19.632 28.605 11.919 5.7343 27.436 4.8575 38.14-2.3044 11.514-7.7136 15.415-21.836 15.281-35.093l-2.1482-2.2502c-0.0318 9.029 0.22312 25.817-14.921 35.959-10.243 6.8699-24.242 7.7582-35.666 2.2726-10.715-5.1612-17.462-15.135-18.497-27.368-1.4279-16.788 3.7668-27.942 8.3431-37.78 2.8558-6.1279 5.5548-11.919 6.0383-18.103 0.03182-0.4271-1.9793 3.0471-2.3714 4.6101"/>
   <path d="m34.774 99.105c-5.9593 21.881 6.6114 35.925 6.1729 52.948-0.74264 28.335-15.033 44.92-11.131 52.982 0.19125 0.39523 1.463-1.5522 1.4725-2.2598 0.06376-4.9362 2.059-10.423 4.3178-16.641 3.2832-9.0067 6.6675-22.117 6.9149-34.126 0.3251-15.955-11.806-34.385-6.1955-51.813 0.12749-0.41434-1.4407-1.5076-1.5522-1.0901"/>
   <path d="m146.38 186.4c1.8327-5.9144-0.7745-26.491-5.2734-38.455-0.3251-0.87651 1.1251-2.1355-1.3482-1.2144-0.40479 0.15935-0.19125 1.6064-0.0319 2.0239 3.542 9.4338 6.0718 30.258 5.1274 36.869-7.0612-4.8801-15.843-32.777-16.596-38.95-0.0637-0.43985-1.8327 0.12749-1.8327 0.15937 0.69802 5.6893 10.086 36.206 18.294 40.49 2.3044 9.1865 3.2383 18.8 3.2383 23.286 0 0.64064 1.5841 1.0231 1.6191 0.58327 0.28686-3.688-0.37291-16.506-3.1809-24.805"/>
   <path d="m190.82 140.72c-5.4085 14.516-8.1295 37.769-6.0944 62.135 1.4853 17.766-13.448 41.03-27.975 50.947-3.9242 2.6773-3.1714 3.8904 0.8542 1.3259 14.809-9.4338 31.113-33.226 29.055-51.813-2.1355-19.385 0.12749-44.133 5.1835-60.651 1.4725-4.7899 1.7434-3.6992 2.2375 0.82232 0.87651 7.9272 3.8678 16.675 8.6803 26.694 6.1056 12.706 12.874 26.783 12.874 42.705 0 3.7441-0.36973 7.5896-1.2144 11.548-6.6678 31.146-34.531 58.986-81.857 51.622-0.49404-0.0638-2.1801 1.2367-1.753 1.3164 44.212 8.388 77.978-16.383 85.286-50.554 4.6777-21.847-2.553-38.804-11.413-57.233-4.0141-8.3431-7.6683-17.057-9.0625-26.334-1.3036-8.6692-2.4064-8.9614-4.8014-2.5307"/>
   <path d="m170.94 145.08c1.1347 23.972-7.8035 57.716-10.018 62.112-0.55141 1.09 1.0327 2.6423 1.2144 2.2375 2.9228-6.2968 10.457-34.688 10.457-58.728 0-1.0359-0.0116-2.0813-0.0318-3.1267-0.12749-4.6213-0.15937-4.3628 1.9124-1.0231 5.7796 9.355 8.9729 17.372 10.985 24.242 0.1275 0.4271 0.82233-3.2606 0.53866-4.1604-2.0016-6.4202-4.6327-12.515-10.907-22.409-3.4181-5.4085-4.4412-5.4758-4.1378 0.85419"/>
   <path d="m36.368 126.02c-2.0239 3.3059-13.943 15.877-16.281 16.461-0.40479 0.0956 2.1706 1.3482 2.4733 1.0582 0 0 12.02-11.559 14.336-15.348 0.22311-0.37291-0.31874-2.5403-0.5291-2.1706"/>
   <path d="m-5.148 152.5c2.9578 3.9354 7.9494 10.985 14.415 15.348 6.5891 4.4527 11.3 4.0141 16.304 2.7984 2.6072-0.64065 12.649-5.1159 15.213-6.2516 0.25498-0.12749 0.43985-2.4287 0.03182-2.2598-1.4502 0.59602-11.975 5.8694-15.675 6.7689-4.7899 1.1697-8.9276 1.7307-14.999-2.3618-5.5545-3.7556-10.007-9.2763-12.953-13.178-0.36973-0.47171-2.5977-1.2144-2.3395-0.86693"/>
   <path d="m24.714 142.96c-3.5755-1.1347-11.311-1.9124-13.999-1.6542-0.43985 0.0318 0.12749 1.8008 0.56096 1.753 2.4192-0.22311 9.3439 0.50678 12.863 1.259 3.0248 0.66297 3.4856-0.42709 0.57372-1.361"/>
   <path d="m5.4619 163.7c-5.1835 10.524-10.423 39.579-10.198 45.516 0.31872 8.1971 1.753 10.401 8.5232 2.8686 4.1601-4.6436 27.953-35.745 30.966-45.572 0.1275-0.41434-2.2598 0.37292-2.451 0.84463-4.3401 10.637-25.558 38.534-29.369 42.795-4.7003 5.2288-5.4984 4.8125-5.7458-1.82-0.22311-5.8356 4.4189-33.384 9.5125-43.728 0.19125-0.39204-1.0454-1.294-1.2367-0.89881"/>
   <path d="m12.639 169.4c-0.72989 4.2391-14.213 30.427-15.539 34.283-0.89882 2.6072-0.49402 4.4864-0.41753 5.5322 1.0454-4.9588 16.529-34.531 17.518-39.579 0.06376-0.42709-1.4853-0.66296-1.5618-0.22311"/>
   <path d="m23.033 170.22c-0.40479 1.294-21.307 41.3-21.454 41.659-0.19123 0.40479 2.4192-1.6415 2.5849-2.0462 0.15937-0.33785 18.969-37.319 20.374-39.152 0.25498-0.33787-1.3833-0.87652-1.5076-0.46216"/>
   <path d="m26.511 280.42c-5.0372 1.0582-12.042 3.2609-13.471 5.1947-0.3251 0.72034-1.4725 1.7881-0.84464 2.3937 0.31874-3.2832 12.211-5.7343 15.337-6.8476 3.0917-1.1124 2.2598-1.4406-1.0231-0.74264"/>
   <path d="m30.625 284.82c4.3513-1.1474 2.9578-1.9347-1.2717-0.74264-8.287 2.3172-12.83 4.1601-14.393 6.5215 0.5291 0.0956 1.5076 0.12749 2.0813 0.0638 1.3482-2.349 9.8163-4.8348 13.583-5.8356"/>
   <path d="m125.31 307.91c1.8773 3.6431 4.2165 11.39 4.4415 14.91 0.36016 0.22311 1.0008 0.31873 1.6064 0.22311 0.0638-3.9468-2.9228-11.919-4.8122-15.596-1.6861-3.3056-2.8781-2.7092-1.2367 0.47171"/>
   <path d="m132.61 306.9c-1.753-3.9465-2.4861-3.0024-0.96576 1.0008 1.5076 3.9692 3.4069 10.997 2.8208 13.695 0.50679 0 1.1124-1.5076 1.4407-1.8901-0.0637-3.8005-1.7084-9.2425-3.2944-12.807"/>
   <path d="m133.18 324.15c6.7466-1.8232 7.3423-23.972-3.4518-33.193-3.2609-2.7889-2.9451-8.3657-0.78727-10.412 8.6692-8.2083 20.813-20.746 20.925-36.037 0-0.4271-2.1801-0.8542-2.1801-0.41753-0.12749 14.685-11.368 27.042-19.835 35.059-3.0598 2.8909-2.5626 10.547 0.38247 12.785 10.243 7.7808 9.175 29.201 4.6774 30.528-5.6106 1.6415-20.082-16.439-16.382-29.617 3.1363-11.165-31.405-21.791-56.547-24.355-11.357-1.157-10.615 1.9443-8.1522 6.4655 1.6861 3.0821 0.7522 6.4766-4.0029 8.7029-7.421 3.4745-17.754 5.442-25.142 6.308-13.065 1.5395-12.177-3.4184-5.2285-7.2075 14.685-8.0059 24.029-8.7256 23.669-13.347-0.06376-0.89881-0.41754-1.8454-0.91157-2.7538-0.69802 0-1.82-0.41754-2.518-0.41754 0.65339 0.96576 1.5299 2.3841 1.6064 3.2947 0.25499 3.5867-8.7479 4.4077-22.623 12.11-10.603 5.892-8.5343 11.402 6.4428 9.9061 9.1304-0.91157 20.723-4.1378 25.524-6.4992 7.3872-3.6205 6.3192-8.1745 5.0034-10.592-1.8996-3.4745-4.6774-5.4085 6.2181-4.2729 22.432 2.349 57.829 12.874 55.062 23.084-4.1938 15.483 11.638 32.664 18.249 30.876"/>
   <path d="m120.9 145.64c7.6234 2.5626 18.733 3.4519 20.217 3.317 0.4271-0.0318 0.19123-2.2056-0.19124-1.9889-1.5841 0.88926-12.548-0.36972-19.902-2.9578-3.4971-1.2271-3.8232 0.38249-0.12749 1.6287"/>
   <path d="m174.43 197.26c-4.059 12.537-11.21 9.6473-9.1077 0.81914 0.0956-0.4271-1.4056 2.1801-1.4056 3.9242 0 6.1732 6.7915 8.3769 11.064-1.7434 0.19124 13.909 9.3551 15.517 11.3 7.3088 0.0956-0.4271-1.0582-0.79683-1.157-0.36973-1.7084 7.196-9.0628 4.2388-8.6016-9.5351 0.12749-4.2729-0.77452-4.4638-2.0909-0.40479"/>
   <path d="m213.15 194.76c2.059 11.087-2.1482 17.766-5.071 18.215-5.5998 0.86695-7.4774-10.873-7.7923-11.773-1.2239-3.9915-1.8773-3.913-1.8773 0.28685 0 6.5104-2.1801 11.492-5.6782 11.492-3.9806 0-6.4205-5.8468-6.679-11.604-0.0226-0.43985-0.9562-0.33785-0.94344 0.0956 0.41753 9.0966 3.4971 13.83 7.9832 13.83 3.9357 0 5.9934-5.2058 6.7243-10.805 2.0813 6.9486 3.4742 10.862 8.759 10.221 3.2045-0.39204 7.8822-6.3752 5.7681-20.194-0.0638-0.43984-1.2717-0.19124-1.192 0.22311"/>
  </g>
  <path d="m180.27 182.46c-1.0359-3.2495-25.918-41.221-27.908-44.054-1.9793-2.8335-3.9692-1.9793-4.3854-0.4271-0.34742 1.259-2.3395 6.308-7.0723 8.1069 2.8686 7.6798 24.501 33.26 34.126 38.354 6.6114 3.5083 6.229 1.1347 5.2396-1.9793" fill="#00b8ee"/>
  <g fill="#0f141b">
   <path d="m148.74 138.19c0.63109-2.2949 1.9347-0.82233 2.9801 0.6757 1.3833 1.9666 25.805 38.443 27.795 43.829 1.157 3.114 0.85419 3.6769-4.1151 1.0454-9.4676-5.0034-29.842-29.235-33.44-37.252 5.0933-2.4064 6.7574-8.2306 6.78-8.2982m-1.5618-0.15937c-0.50677 1.8327-2.8335 6.5668-7.7244 7.6687-2.6104 0.58327-2.2598 2.1259 0.33785 1.5395 0.255-0.0638 0.43985-0.15937 0.67572-0.22312 6.1053 12.47 25.423 33.676 35.329 39.051 5.8694 3.1809 7.9609 2.3937 5.2284-3.8455-2.8909-6.6117-24.962-40.591-27.716-44.515-2.8112-4.0141-5.3748-2.4064-6.1282 0.33785"/>
   <path d="m146.65 141.82c0.50678 0.55139 32.867 42.424 33.755 42.784 0.36973 0.15937-0.19123-1.9666-1.4152-3.4856-4.6888-5.7569-31.034-40.546-31.562-41.12-0.28685-0.32512-1.0677 1.4948-0.77451 1.8231"/>
   <path d="m142.81 145.11c0.22311 0.31872 22.128 28.774 30.382 37.893 0.95619 1.0582 4.0364 1.8901 3.6992 1.5968-4.7338-4.0594-30.82-37.78-32.822-40.434-0.25499-0.34742-1.5172 0.59602-1.259 0.94344"/>
   <path d="m147.54 116.58c6.5327 4.1827 10.592 15.753 5.9931 23.545-0.2231 0.36973 1.0454 1.3706 1.3164 1.0359 5.3406-6.6564 1.6861-20.397-6.7915-25.817-0.36016-0.22312-0.88926 1.0008-0.51633 1.2367"/>
   <path d="m116.82 105.8c1.0901 1.3164 8.3093 5.9593 14.809 10.39l0.22311-1.8773c-1.3928-0.95619-12.368-7.9832-14.999-11.492-0.25499-0.34742-0.31873 2.6423-0.0226 2.9801"/>
   <path d="m125.72 120.85c-6.7128 2.722-4.1942 12.526-0.44941 15.483-6.7689 2.2279-3.362 7.646 2.7984 10.839 0.38248 0.19123 2.0239-0.55141 1.6319-0.74264-4.4638-2.1259-6.8476-4.8686-6.5327-6.5442 0.22312-1.2494 1.8996-1.9793 3.2383-2.1482 2.2375-0.28685 2.2024-0.47172 0.31873-2.1578-2.3395-2.0909-3.3846-5.892-3.1586-8.7705 0.19123-2.4861 1.2494-4.2952 2.9004-4.9585 0.40479-0.15937-0.33785-1.1697-0.74264-1.0008"/>
   <path d="m131.7 110.15c-0.22312 1.9889-0.22312 3.7441-0.28686 6.8814-1.7435 0.0956-5.341 0.79683-5.341 0.79683-2.8208 0.76495-3.3731 1.6414-0.91157 3.5867 0 0 3.8117 3.6431 6.0603 5.0598 2.2502 1.4152 2.6996 0.7522 0.80958-0.80958-1.0805-0.89882-4.475-3.9692-5.5657-5.0484-0.84462-0.84464-0.63108-1.0104 0.31874-1.3482 1.361-0.48447 3.1714-0.84464 4.4412-0.93388 1.6542-0.0956 1.6064 0.0956 1.6415-1.5745 0.0318-2.9578 0.0318-3.8793 0.28686-5.9032 0.19123-1.4502 0.0319-1.753 1.9793-0.61833 1.192 0.69802 3.6654 2.6869 4.6436 3.8232 1.4502 1.6861 2.0686 0.96575 0.7299-0.80958-0.77451-1.0359-2.7984-3.2271-4.5763-4.3739-3.012-1.9443-3.9354-1.1921-4.2276 1.2717"/>
   <path d="m144.69 108.97c-0.95618 0.72989-4.0252 3.149-5.0038 4.284-0.28685 0.33785 0.61834 1.3036 0.89882 0.96576 0.70758-0.82233 3.3731-3.0024 4.5426-3.857 1.1793-0.87652 1.5745-0.56097 1.7658 1.192 0.15936 1.4279 0.22311 4.3962 0.31872 6.1955 0.1275 3.2045 1.1124 3.9691 1.2016 0.55139 0.12749-4.1604 0.0638-5.9258-0.43985-8.7144-0.39204-2.2152-1.5618-1.922-3.2721-0.61834"/>
   <path d="m130.07 125.46c-0.25499 3.2272 0.12749 6.6003 0.28686 7.466 0.6534 3.0248 1.855 3.0598 1.3833 0-0.0638-0.57372-0.28686-3.508 0-6.8138 0.0319-0.43984-1.6415-1.09-1.6765-0.65339"/>
   <path d="m53.088 224.56c0-7.9383 4.1604-17.912 8.1069-24.692 2.2502-3.8566 3.2609-3.6992 4.6101 0.74264 2.0813 6.7804 5.0825 17.192 5.4085 24.332 0.19124 4.2503-1.3387 11.301-7.7808 11.84-5.3187 0.43984-10.345-3.7556-10.345-12.222m7.8822-26.795c-5.4761 8.1407-13.144 24.04-8.3995 33.957 3.8904 8.1407 16.788 10.187 19.891-1.4056 1.855-6.9375-2.2375-22.027-5.7572-31.607-1.7658-4.8122-3.2268-4.6662-5.7343-0.94343"/>
   <path d="m29.734 135.44c-0.83188 0.25499-2.3841 2.4861-2.0144 2.2726 2.1578-1.2813 5.9819-1.6988 6.949-0.39204 1.8231 2.4287 0.80001 6.8702-0.93388 9.9737-1.0454 1.8901-0.39204 2.4287 1.2271 0.97851 2.5626-2.3267 5.2511-2.3172 5.8921-2.0463 0.40478 0.15937 0.19124-1.5968-0.03182-1.6319-1.1251-0.19123-2.8112 0.0318-4.554 0.92114 1.1124-3.0694 1.3259-6.949-0.32511-9.1527-1.2239-1.6415-3.8904-1.6319-6.1955-0.92114"/>
   <path d="m-6.9874 138.31c0.40478 2.2821 1.1028 3.958 1.6287 5.4308-2.0016 0.22311-5.0372 1.0231-6.1955 1.7881-1.2144 0.80958-1.0454 1.3036-0.41435 2.1259 1.0008 1.3164 4.3851 4.6213 9.2088 6.2293 2.8463 0.9562 1.8678-0.34742-0.94345-1.6861-3.4856-1.6638-6.9824-4.5202-6.8027-5.296 0.1275-0.59604 1.9666-1.6542 5.296-2.0144 1.6415-0.15937 1.5841-0.19123 1.192-1.2271-0.74264-1.957-1.3928-4.3064-1.5841-5.3859-0.19123-1.0327 0.19125-1.192 1.3482-0.84463 1.2494 0.38247 5.4312 2.349 5.8022 2.5976 0.34742 0.2231 1.2717-0.77452 0.93388-1.0359-0.50678-0.36973-5.0598-2.3618-6.2854-2.8208-3.6319-1.3833-3.587-0.15937-3.1809 2.1355"/>
   <path d="m5.7688 134.4c-0.60878 0.52908-2.4415 2.4861-3.7218 4.2503-1.6542 2.2598-1.1474 3.7894 0.5514 1.5172 1.2239-1.6638 3.7553-4.1939 4.1939-4.5648 0.59602-0.50679 0.74264-0.28686 0.95618 0.15937 0.59602 1.259 2.059 6.263 2.3172 7.1963 0.60558 2.3267 1.463 2.1036 1.192-0.37291-0.19124-1.7658-1.5076-6.0492-2.0686-7.4997-0.96575-2.4861-1.4949-2.349-3.4181-0.69802"/>
   <path d="m46.539 59.706c-0.22311-6.5215 1.8901-11.053 5.1724-11.154 3.4181-0.09558 5.4197 5.1501 5.6332 10.401 0.25498 6.8253-1.9347 11.154-4.9362 11.154-3.0821 0-5.6559-4.5202-5.8694-10.401m5.1274-12.357c-3.7894 0.12749-6.8476 5.1271-6.578 12.413 0.28686 7.5561 4.0256 11.424 7.32 11.424 3.7107 0 6.6678-4.2053 6.3529-12.132-0.22311-5.8356-2.4383-11.851-7.0949-11.705"/>
   <path d="m86.611 65.337c-0.52909 1.957-2.6646 10.502-3.362 12.728-0.0637 0.28686 0.92114 0.40479 1.0136 0.1275 0.25498-0.84146 2.7315-12.2 3.1714-12.144 0.55141 0.06376 1.3482 8.7817 0.88926 13.133-0.0638 0.6757 0.56096 1.3833 0.65339 1.1028 0.70758-2.3267 0.72989-9.6473-0.66296-14.932-0.5514-2.0813-0.94344-2.8335-1.6988-0.01161"/>
   <path d="m95.512 78.72c-1.2494 0.66295-4.5202 2.1929-6.0042 2.655-0.28686 0.06376 0.0223 1.2144 0.31872 1.1251 0.9562-0.28686 3.7894-1.5522 5.5998-2.5084-1.0805 2.9897-3.2947 5.8694-5.7795 8.2421-0.64065 0.61833-1.4056 2.4064-1.1697 2.2375 3.8793-2.7889 6.5216-6.5891 7.792-9.7822 0.31873-0.77452-0.58328-2.059-0.74265-1.9666"/>
   <path d="m29.028 73.189c0.22311 2.553 1.0104 6.6229 1.9889 8.9165 0.15937 0.36973 1.7753 0.76496 1.6287 0.51635-1.4853-2.5084-2.6518-8.1518-2.7443-13.021 0-0.28686-0.9562 2.6104-0.87651 3.587"/>
   <path d="m27.682 77.464c-0.28686 2.655 0.12749 6.409 0.47173 7.2301 0.09558 0.25498 1.1793-1.1347 1.09-1.4056-0.64064-1.9219-0.91157-6.5665-0.65339-8.7817 0.03182-0.28686-0.80958 1.9793-0.91157 2.9578"/>
  </g>
  <path d="m50.672 89.245c0.68527-0.12749 1.4502 0.25499 1.5745 1.1698 0.06376 0.39204-0.19124 1.2144-1.0805 1.3259-0.72989 0.09558-1.361-0.46216-1.4279-1.0901-0.06376-0.6757 0.34742-1.294 0.93388-1.4056" fill="#8a969d"/>
  <path d="m32.486 92.647c-0.15937 1.1921-0.03194 3.8904-0.01161 4.1155 0.1275 0.8542 0.28686 1.1793 0.74264 0.80957 0.46216-0.38247 1.2271-1.3036 1.5841-1.7084z" fill="#fff"/>
  <path d="m80.721 91.908c0.63108 0.47172 3.0248 1.2494 3.362 1.3482 0.47171 0.15937 0.56096 0.22311 0.59602-0.50678 0.0318-1.0231-0.32511-3.9468-0.6534-4.925z" fill="#fff"/>
  <g fill="#0f141b">
   <path d="m85.069 82.421c1.753 3.317-8.5455 13.245-12.852 14.246-5.9819 1.3928-6.3195-0.66296-9.153 0.36016-1.7435 0.6279-4.6885 4.475-8.9503 4.5652-3.6992 0.0637-6.9824-4.0029-8.3654-4.329-2.0909-0.48447-3.2498 1.0231-5.0375 0.92114-3.8566-0.22311-10.637-8.534-8.6692-11.874 0.64064-1.0805-0.03194-1.0454-0.72033-0.06376-2.4733 3.4745 3.8455 12.672 9.254 13.279 1.9443 0.22311 3.0471-1.8996 4.9923-1.1793 1.3482 0.50678 4.6551 4.9139 8.8381 4.7902 3.7779-0.1275 6.9037-4.2503 9.3213-5.0487 2.7889-0.93389 3.0598 1.3928 8.9165-0.09558 4.7449-1.192 16.034-12.189 13.302-15.944-0.86695-1.1793-1.6542-1.1028-0.87651 0.36973"/>
   <path d="m31.752 90.765c-0.15937 1.2144 0.09558 5.2622 0.15936 6.1617 0.09558 1.3705 0.89883 1.3482 1.6319 0.91157 0.89883-0.56096 1.6638-1.192 2.0813-1.6638l-0.61834-0.83188c-0.38247 0.4271-2.0112 2.0686-2.1482 1.9347-0.15936-0.12749-0.2231-3.5532-0.06376-4.7115 0.03182-0.22311-1.0136-2.0112-1.0359-1.7976"/>
   <path d="m83.519 88.538c0.31872 0.91157 0.70758 3.9803 0.63108 4.2053-0.58328-0.09558-2.4861-0.99125-2.9801-1.361-0.19124-0.15937-0.88926 0.72033-0.69803 0.8542 0.74264 0.57372 3.2606 1.2271 3.2832 1.2367 1.1124 0.33785 1.1697 0.06376 1.2144-0.96575 0.0638-1.0901-0.0956-4.0253-0.4271-5.0261-0.0637-0.22311-1.0901 0.83189-1.0231 1.0582"/>
  </g>
  <path d="m43.614 80.171c-1.7211-15.348-4.2614-17.44-6.1168-17.53-2.0144-0.09558-3.7107 4.0252-3.0375 11.581 0.39204-4.8798 5.2061-9.7598 9.1527 5.9481" fill="#fff1ac"/>
  <path d="m43.396 78.904c-1.3929-6.4205-5.8694-14.111-8.8154-6.0157-0.19124 2.8686 0.25498 4.5652 0.69802 7.5899 0.36016 1.3036 7.0277 6.4766 8.6242 5.7008 0.1275-2.722 0.44942-2.5849-0.50678-7.275" fill="#fff"/>
  <path d="m74.594 65.451c1.5968-0.25499 3.2271 2.2821 4.2729 5.6559-0.60877-7.1851-3.1268-12.492-5.5434-12.335-4.8912 0.31872-6.5215 9.8159-5.2622 20.554 0.77451-9.3216 3.8678-13.448 6.5327-13.875" fill="#fff1ac"/>
  <path d="m78.373 69.387c-1.2367-3.2271-3.317-4.8125-5.0487-3.8005-2.4383 1.4184-4.5088 7.0615-5.3295 12.503 0.09558 2.62 0.53866 4.0367 1.0454 5.4197 1.4407 0.22311 9.4453-5.0149 10.142-6.409-0.0956-3.5421-0.0956-4.3405-0.80957-7.7136" fill="#fff"/>
  <g fill="#0f141b">
   <path d="m74.527 80.972c1.3164-3.7779 0.41753-11.975-1.1921-15.191-2.5084 2.1132-4.5202 6.6341-4.4979 8.5566-0.12749 2.7889 0.82233 7.1851 1.9666 8.6131 0.22311 0.25498 3.5083-1.361 3.7218-1.9793"/>
   <path d="m42.421 85.794c-0.59602-0.19123-2.3618-0.83189-2.8112-1.4184-2.5753-3.4181-2.8558-12.065-1.4853-14.797 0 0 2.1482 0.39204 4.2952 6.6455 0.76496 3.8005 0.65341 7.9494 0 9.5686"/>
   <path d="m42.426 85.4c-2.7889-1.2271-6.4317-4.2729-6.6564-5.0261-2.4192-11.266-0.70758-17.237 1.5745-17.125 3.7218 0.19124 6.3756 13.819 6.0269 22.443-0.19124-0.0223-0.47173-0.06376-0.94344-0.28686m-7.4325-4.8014c0.37291 1.3164 3.9918 4.2729 6.7016 5.4873 2.1705 0.96576 2.7443 1.3929 2.5976-2.0016-0.19123-11.761-2.9801-22.05-7.0162-22.252-3.6208-0.19124-4.6439 8.9614-2.2821 18.766"/>
   <path d="m70.658 61.439c1.5745-2.5626 4.5875-3.0471 6.1394 2.1036 1.0678 3.5306 1.7084 8.6354 1.8455 13.279-1.1793 1.9347-7.2636 5.8694-9.2202 6.2293-1.1921-3.8455-2.553-15.416 1.2367-21.611m8.8716 14.336c-0.43985-20.936-7.5109-18.733-9.6811-15.393-3.317 5.0822-3.2045 15.123-1.463 22.612 0.25498 1.157 0.6757 1.5076 1.753 1.0359 2.7538-1.192 7.2524-4.3401 8.928-6.0157 0.39203-0.40479 0.49403-0.74264 0.46215-2.2375"/>
  </g>
  <path d="m72.707 72.182c0.15936 2.1578-0.41436 3.3393-1.1347 3.3958-0.76496 0.06376-1.4279-1.1921-1.5172-3.0694-0.03194-0.86694 0.53866-3.2832 1.1474-3.317 0.57372-0.03194 1.361 1.0582 1.5076 2.9897" fill="#fff"/>
  <path d="m78.305 69.185c-0.50677-2.9897-2.8686-4.4638-4.1377-4.3064-2.4192 0.28686-5.071 4.2726-6.0607 12.02-0.22311 1.7211 0.36017 4.0813 0.36973 3.7891 0.43985-7.5447 3.012-14.302 5.8245-14.651 2.059-0.25499 3.9019 3.1044 4.3064 6.8141 0.0318 0.28686-0.15937-2.8335-0.31874-3.6657" fill="#0f141b"/>
  <path d="m41.321 74.805c0.12749 1.6988-0.25499 3.1044-0.86695 3.149-0.59602 0.03194-1.192-1.294-1.3164-2.9897-0.12749-1.6861 0.25498-3.1044 0.86695-3.1491 0.59602-0.03182 1.192 1.294 1.3164 2.9897" fill="#fff"/>
  <path d="m43.396 78.904c-1.8901-10.378-7.3987-13.515-8.8154-6.2181-0.09558 0.50679 0.12749 2.0016 0.19124 1.7211 2.1355-9.4676 7.0612-2.3172 8.7817 8.1181 0.03182 0.28686 0.03182-2.6518-0.15937-3.6205" fill="#0f141b"/>
 </g>
</svg>
