<?xml version="1.0" encoding="UTF-8"?>
<!-- Created with Inkscape (http://www.inkscape.org/) -->
<svg version="1.1" viewBox="0 0 241.95 286.64" xmlns="http://www.w3.org/2000/svg">
 <g transform="translate(7.657 -2.0487)" stroke-width=".94449">
  <path class="st0" d="m227.09 142.77c-2.1988 21.864-21.742 37.866-43.606 35.667-21.864-2.1988-37.866-21.742-35.667-43.606 2.1988-21.864 21.742-37.866 43.606-35.667 21.865 2.0769 37.866 21.62 35.667 43.606" fill="#f3848d"/>
  <path class="st0" d="m92.12 128.48s73.41 10.26 67.791 92.953c-14.413 56.187-56.065 66.081-56.065 66.081s-4.6413-1.2212-13.436-9.6499c-17.345 0.61107-29.437 1.9542-53.988-9.1607 0 0-5.0077 9.6499-10.993 8.5505-5.8634-1.2212-17.589-16.49-17.589-16.49-13.314-20.398-20.643-55.332-5.497-88.556 32.613-55.698 89.778-43.728 89.778-43.728" fill="#f3848d"/>
  <path class="st1" d="m101.28 131.53c-20.765-2.5653-52.156 25.406-51.668 69.99 0 3.0536-9.2834 2.4425-9.4053-1.0994-1.344-30.17 16.856-69.99 47.881-71.944z" fill="#b40a5c"/>
  <path class="st1" d="m187.76 129.94s7.5729-2.9317 11.238-7.8176c0 0 0.97754 5.2523-2.8099 7.8176-3.6646 2.5652-8.4277 0-8.4277 0" fill="#b40a5c"/>
  <g fill="#00aa5b">
   <path class="st2" d="m108.24 78.518s9.649 24.307-8.9169 51.424l7.5729 2.5652s32.857-11.359 37.498-45.56c-0.12172-9.27e-4 -9.8936-23.086-36.154-8.4287"/>
   <path class="st2" d="m159.91 66.303s-12.092 10.138-15.39 22.352c-3.2982 12.214-3.42 10.383-3.42 10.383s6.7182 10.505 17.223 13.07l5.9852-6.5963c-9.2e-4 0.12279-13.436-12.214-4.3976-39.209"/>
   <path class="st2" d="m66.222 4.0085s31.147-9.1606 63.027 24.551c0 0 26.139-28.582 60.095-17.345 34.568 11.481 51.057 40.064 40.308 68.279 0 0-17.223-30.048-55.454-19.543-23.696 6.3517-29.925 26.872-29.925 26.872s-5.1305-14.902-20.765-13.192c-15.757 1.7105-25.039 11.604-34.689 11.848-9.6489 0.24453-27.605-4.5194-31.758-5.8634-4.0311-1.3441-33.223-6.3517-48.98 11.604 0 9.27e-4 -10.016-73.042 58.141-87.211"/>
  </g>
  <g fill="#008f4d">
   <path class="st3" d="m111.17 90.61s15.512-12.337 32.857-3.5419c0 0-5.2523-22.842-35.545-8.917z"/>
   <path class="st3" d="m147.2 81.815s-2.4425 19.177 11.238 28.338l-1.4659 2.0769s-11.359-3.5418-16.123-13.803c0 0 2.9317-7.2065 3.0536-11.359z"/>
   <path class="st3" d="m144.77 86.457s-10.383-19.788-29.682-11.481c-19.299 8.3068-21.376 15.146-53.988 5.9853-33.59-10.871-52.645 8.7942-52.645 8.7942s8.3059-16.856 29.925-19.788c12.214-1.9542 33.223 4.764 34.201 4.8859 5.8634 1.344 17.467 3.1754 35.789-6.1071 18.567-9.2834 35.423 5.7406 36.4 17.711"/>
   <path class="st3" d="m146.84 80.35s7.0846-27.116 39.575-29.803c27.849-0.61108 41.774 18.689 43.362 28.582 0 0-14.901-23.33-43.118-20.52-31.147 1.8314-39.819 21.741-39.819 21.741"/>
  </g>
  <g>
   <path class="st4" d="m152.58 120.17s-9.4052 30.292 29.437 42.14c34.323 8.5505 41.774-9.4053 41.774-9.4053s-9.1606 32.124-47.515 24.674c-37.255-14.414-29.925-51.668-23.696-57.409" fill="#c86e77"/>
   <path class="st4" d="m-5.1104 216.79c-1.7105 33.59 20.887 56.675 30.658 60.218 3.42 1.2212 11.115-7.0846 11.848-7.8176 7.8176 3.6646 17.833 6.84 30.536 8.6723 0 0 11.359 3.5419 23.33-0.24453 0 0 7.4511 10.016 13.436 9.6499 15.512-0.97753 52.522-34.445 55.21-65.837-41.041 46.293-148.04 28.46-165.02-4.6412" fill="#c86e77"/>
   <path class="st5" d="m30.189 154.74c-1.2212-1.5877-0.85477-5.1305 1.9542-7.4511 2.4425-1.9541 5.9852-2.9317 8.0613-0.36646 2.076 2.5652 0.24463 6.2299-2.1988 8.0612-2.9308 2.0769-6.228 2.0769-7.8166-0.24381" fill="#f9bfbe"/>
  </g>
  <g fill="#191a21">
   <path class="st6" d="m62.558 222.04c-5.6188 6.2299-22.963 4.3976-26.75-2.4425-1.344-2.5652-2.4425-1.2212-1.2212 1.344 4.1529 8.3059 22.963 9.6499 28.338 3.42 2.1988-2.4444 1.4658-4.5204-0.36647-2.3216"/>
   <path class="st6" d="m149.28 134.95c1.8323-18.199 16.856-36.522 41.286-34.445 21.131 1.7105 36.277 20.398 34.078 42.873-2.3206 22.719-22.231 35.422-40.675 33.468-20.887-2.0779-36.766-21.255-34.689-41.897m41.529-37.011c-26.017-2.077-43.118 17.223-45.072 36.644-2.1988 21.986 15.39 43.117 37.621 45.316 21.742 2.1988 42.752-11.359 45.316-36.155 2.1988-23.451-13.069-43.727-37.865-45.804"/>
   <path class="st6" d="m170.9 118.46c-0.48831 0-0.85478 1.2212-0.85478 1.8323 0 0.12173-1.4658 9.8936-5.4969 14.902-0.36648 0.36646-1.344 1.5877-0.97758 1.9542 0.36647 0.36643 1.5877-0.6111 1.9542-0.97757 6.2299-5.6188 5.8634-14.779 5.9852-15.146 0.12279-0.97754 9.6e-4 -2.5652-0.61014-2.5652"/>
   <path class="st6" d="m204.74 107.22c-6.1071 2.6871-12.459 0.85478-12.581 0.73295-0.4883-0.12174-2.4424-0.61108-2.5652-0.12174-0.12172 0.48831 1.2212 1.344 1.7096 1.4658 0.36646 0.12173 6.84 3.1754 13.803-0.61106 0.4883-0.24453 1.9541-1.2212 1.7096-1.7105-0.24382-0.36648-1.2212 0-2.076 0.24452"/>
   <path class="st6" d="m198.75 123.1c-0.24454 1.5877-0.97754 4.764-3.1763 6.2299-2.3206 1.4658-5.1305 0.97753-6.5954 0.61106 2.3206-0.85571 5.9853-2.1997 9.7717-6.8409m-0.48831-1.344c-4.0311 4.6413-10.383 7.2065-10.505 7.3284-0.36647 0.12172-0.97757 0.48827-0.97757 0.85474s0.6111 0.6111 0.85477 0.73294c0.24453 0.12172 4.8859 2.6871 8.7942 0 3.7865-2.5653 3.2982-8.184 3.2982-8.4277 0-0.36648-0.12173-0.97754-0.4883-1.0994-0.24381-0.12102-0.7329 0.36739-0.97661 0.61107"/>
   <path class="st6" d="m199.73 17.445c27.728 13.192 33.102 36.033 31.758 50.08 0 0-0.36643 5.497-1.9542 10.26-6.1071-11.726-22.352-23.818-48.98-20.765-23.818 2.5653-33.346 20.887-36.4 27.727-2.4424-4.8859-5.497-8.917-11.116-11.238-7.2065-2.6871-14.169-2.6871-24.551 3.0536l-0.73294 0.36647c-13.192 7.2065-17.223 9.6499-48.492 1.5877-26.628-6.9618-42.14 1.0994-50.324 10.383-0.24463-3.1754-0.36646-8.7942 0.24464-16.001 1.9542-19.91 10.871-50.813 46.538-63.027 49.102-16.856 79.761 30.17 80.738 31.148 0.97758 1.4658 1.7096 2.1988 2.3206 1.8323 0.61111-0.6111-0.36643-2.4424-0.4883-2.6871-0.12172-0.12173-2.4424-5.497-7.6948-11.604 16.491-16.125 42.386-23.82 69.135-11.117m1.5886-3.2982c-34.445-16.612-62.05 1.9541-72.432 12.581-13.681-15.634-41.286-32.612-74.877-20.643-56.553 20.033-47.515 85.136-47.392 85.747 0.12184 0.4883 0.24463 1.4658 0.73292 1.5877 0.4883 0.12173 0.97755-0.36647 1.4659-0.85478 0.12184-0.24452 16.245-19.91 49.102-10.749 32.491 9.7717 36.522 5.7406 49.958-1.5877l0.73294-0.36647c8.5505-4.8859 16.734-5.8634 23.33-3.42 5.2523 1.9541 9.0388 5.9853 10.993 11.726 0.24452 0.48831 0.73289 0.85478 1.2212 0.85478 0.6111 0 1.0994-0.36647 1.2212-0.85478 0.12173-0.24452 7.8176-24.674 35.789-27.605 26.995-2.9317 40.553 8.917 47.515 19.788 0.24452 0.36648 0.4883 0.85478 0.97756 0.85478 0.48831 0 0.73291-0.4883 0.97754-1.2212 7.3283-15.88 6.4736-48.614-29.315-65.837"/>
   <path class="st6" d="m106.78 78.761c0.12173 0.24453 8.184 26.628-8.4277 50.935-0.36647 0.6111 1.7095 1.9542 2.076 1.4659 19.91-26.383 8.917-52.889 8.7942-53.133-0.12173-0.73294-2.5652 0-2.4424 0.7329"/>
   <path class="st6" d="m142.93 87.434c-6.9619 32.613-32.735 42.385-37.743 43.973-0.73291 0.24452 0.36647 2.4425 1.0994 2.1988 5.2523-1.7105 32.246-8.7942 39.331-46.172 0.12174-0.73294-2.5652-0.73294-2.6871 0"/>
   <path class="st6" d="m140.24 98.916c0.12172 0.36643 2.4424 9.5271 16.856 13.803 0.61107 0.24452 1.344-1.7105 0.7329-1.9542-12.092-5.3741-15.146-12.703-15.146-12.703-0.36739-0.73293-2.688 0.24381-2.4434 0.85478"/>
   <path class="st6" d="m158.93 67.158c-0.36647 0.7329-10.505 19.665 4.0311 39.453 0.36648 0.6111 2.4425-0.48831 2.076-1.0994-12.459-17.956-4.153-38.354-4.0311-38.598 0.24453-0.48924-1.8313-0.48924-2.076 0.24381"/>
   <path class="st6" d="m32.266 265.4c-0.61109-0.36646-3.5419-1.7105-3.9083-1.0994-0.36647 0.61111 1.7105 2.077 2.5652 2.5653 9.2834 5.9853 34.323 16.367 61.439 12.337-0.61109-0.97753-1.0994-1.8323-1.7095-2.8089-24.186 2.076-48.981-6.108-58.387-10.994"/>
   <path class="st6" d="m-7.1873 201.39c-4.0311 40.43 18.811 74.753 33.223 76.83 3.9083 0.4883 10.26-5.2523 13.192-7.8176 0.4883-0.4883-2.6871-2.4424-3.1754-1.9542-3.7865 3.42-7.573 7.3283-9.7717 7.0846-9.5271-1.0994-33.956-29.925-29.559-73.898 3.9083-38.599 35.422-76.708 87.701-72.066 49.102 4.3976 77.807 45.439 73.532 88.189-3.9083 43.117-45.194 69.257-54.721 67.669-2.4424-0.36643-10.016-5.8634-13.925-11.971-0.61109-0.85475-1.7095-2.4425-2.3206-2.0769-0.6111 0.36643 0.24463 2.3206 0.61109 2.9317 3.0535 5.1305 10.749 13.68 14.902 14.291 10.138 1.7105 55.699-24.185 59.973-70.6 4.5194-45.56-28.827-86.968-77.807-91.366-54.478-4.8868-87.824 33.834-91.855 74.753"/>
  </g>
  <path class="st1" d="m91.506 197s-9.1606 0-8.3059 11.848c0 7.9394 7.2065 8.3059 7.2065 8.3059s7.5729 1.0994 8.3059-9.1606c0.85571-10.137-7.2065-10.993-7.2065-10.993" fill="#b40a5c"/>
  <path class="st1" d="m20.662 189.55s-8.184-0.12173-7.9394 11.481c-0.36647 7.6948 6.1071 8.184 6.1071 8.184s6.7182 1.2212 7.8176-8.7942c1.2212-9.8936-5.9852-10.871-5.9852-10.871" fill="#b40a5c"/>
  <path class="st7" d="m19.685 197.12s-1.8323-0.4883-1.8323-2.4425c0.12184-2.6871 2.1988-2.9317 2.1988-2.9317s1.8323-0.24452 2.6871 1.4659c0.73292 1.7105-0.36647 3.0535-0.4883 3.1753-0.24463 0.36648-1.2222 1.2212-2.5652 0.73295" fill="#fff"/>
  <path class="st7" d="m89.919 205.3s-2.3206-0.61106-2.4425-2.8089c-0.12184-3.1754 2.6871-3.5419 2.6871-3.5419s2.3206-0.36643 3.42 1.7105c0.97755 1.9542-0.24463 3.6647-0.48829 3.7865-0.24464 0.36551-1.344 1.3431-3.1763 0.85381" fill="#fff"/>
  <path class="st6" d="m84.3 207.14c0.36646-7.4511 4.1529-9.6499 7.0846-9.2834 3.1763 0.36646 6.2299 4.3976 5.4969 10.26-0.4883 4.8859-3.6646 8.7942-6.9619 8.4277-4.032-0.48734-5.8644-5.1286-5.6197-9.4043m-2.4434-0.12173c-0.36647 5.8634 3.42 10.505 8.184 10.993 4.8859 0.61108 9.0388-4.2748 9.5271-9.2834 0.85478-7.3283-3.6646-12.092-7.9394-12.581-4.2748-0.36646-9.4043 3.0536-9.7717 10.871" fill="#191a21"/>
  <path class="st6" d="m14.067 198.96c0.4883-4.0311 2.6871-8.6723 6.84-8.184 2.9317 0.36647 5.1305 4.1529 4.3976 9.6499-0.85476 5.1305-3.5418 8.184-6.7182 7.6948-2.6871-0.36554-5.1305-4.2748-4.5194-9.1607m7.0837-9.7708c-4.6412-0.61111-8.7942 3.5419-9.5271 9.6499-0.36646 3.9083 1.2212 9.8936 6.5963 10.871 4.2748 0.85477 8.3059-2.8089 9.1606-8.917 0.85477-6.108-1.9542-11.116-6.2299-11.604" fill="#191a21"/>
 </g>
</svg>
