<?xml version="1.0" encoding="UTF-8"?>
<!-- Created with Inkscape (http://www.inkscape.org/) -->
<svg version="1.1" viewBox="0 0 169.2 321.3" xmlns="http://www.w3.org/2000/svg">
 <g transform="translate(-28.673 7.0192)">
  <path d="m167.41 112.49c-0.2371-16.686-10.79-29.901-22.959-38.265-0.1186-2.1931 16.352-24.57 13.926-42.406l0.0207-0.2371-0.17781-0.17782c-4.5996-4.5581-17.606-5.8147-23.147-4.9789l-0.47419 0.05923-1.464-1.1499-0.17781-0.1186c-9.598-7.4233-35.485-6.817-45.438 1.0254l-0.17782 0.1186-1.0432-2.3413-0.59273-0.05923c-0.83575-0.1186-20.262-2.1101-29.839 9.598l-0.96022 0.1186c-0.1186 10.413 10.204 32.243 12.002 34.941-2.0093 0.17782-4.9552 1.1084-8.3432 2.8451 0.1186 0.1186 0.17781 0.29636 0.29636 0.4149 0 0-19.927 14.449-20.178 38.621-0.05923 8.7611 2.6969 17.376 6.0434 26.786l4.3921 11.709 1.0669-1.8197c0.29636-2.7621 2.1931-7.674 2.1931-7.674s-5.7909-6.0429-3.3667-12.023c1.0254-2.5072 5.5598-3.7638 9.6182-3.6571 0 0 19.447 9.2839 46.295 11.291 26.828 1.9856 46.4-4.89 48.428-4.4514 2.0271 0.47419 3.343 2.1338 3.9535 3.7223 0.41492 1.1084 0 4.0542-0.23708 6.8377 7.1928-7.0677 10.455-19.572 10.329-28.751" fill="#f09cb4"/>
  <path d="m54.938 33.73-1.0669 0.17782c-2.2761 0.1186-5.7495 0.4149-9.1168 3.9298 1.713 7.904 4.9967 21.726 14.345 34.648 3.094-2.1338 5.8324-3.6393 7.8412-3.8053-1.796-2.6969-12.107-24.548-12.003-34.941" fill="#f09cb4"/>
  <g fill="#ffe33f">
   <path d="m57.805 123.81 0.29636 0.0421c1.3396 0.17781 2.6791 0.59272 3.995 1.1914 4.3269 1.9678 9.1582 3.7223 14.323 5.1864l0.29636 0.0592 0.23709-0.1186c4.5818-3.3667 7.632-10.204 8.1548-18.276 0.53346-8.3426-1.3573-15.39-5.3938-19.885-2.365-2.6554-5.2694-4.1195-8.3847-4.2676-6.8377-0.29636-14.742 6.7956-15.954 20.555-0.47418 5.625 0.35563 11.04 2.3413 15.264z"/>
   <path d="m49.83 126.97c-2.1101 3.912-1.3573 7.7369 4.1609 13.424 5.7909 5.9385 25.029 11.208 40.084 13.236 12.881 1.713 27.1 1.1084 39.876-1.464 5.5183-1.1084 11.124-3.0348 16.142-5.6013 5.625-2.9044 8.3432-9.6395 7.0677-13.068-0.81796-2.2168-3.829-2.7621-7.0677-1.9856-23.67 5.6428-59.28 6.1685-88.847-6.3564-3.5979-1.5292-9.5767-1.5707-11.417 1.8197"/>
   <path d="m33.2 242.05c2.1516-8.7196 6.587-16.227 11.375-24.611 3.26-5.708 7.9046-12.421 10.686-18.84 3.9713-9.1588 2.448-18.694 1.464-27.748-1.0017-9.0747-2.0686-17.794 2.1753-26.66l-6.3564-3.6156c-3.4319 7.4233-0.53346 24.109-0.53346 24.109 1.547 9.0332 3.6156 19.342 1.0847 27.559-2.1101 6.9213-6.9213 13.32-11.061 19.217-6.6706 9.5346-13.131 20.575-11.229 32.829z"/>
  </g>
  <path d="m153.72 201.67c-0.59273-0.75277-5.3346-2.1931-6.1685-2.531 0.17782 0.0592-0.71127-6.712-0.71127-6.712-0.68757-5.6902-3.2837-19.906-6.3778-20.575-4.6826-1.0017-15.202 13.675-15.202 13.675-1.3396-1.3574-5.0797-4.89-5.0797-4.89-1.2744 28.291 17.795 71.387 23.211 78.873 2.0093 2.7799 5.542 5.1034 8.5104 5.4353 3.094 0.35563 6.7956-0.81797 9.6188-3.26 4.5166-3.912 10.162-8.4476 15.599-6.3357 5.7317 2.2168 10.329 3.8053 14.867-0.72907 0 0-2.5902-17.23-4.8959-22.123-2.6317-5.5598-7.402-11.856-11.793-16.142-0.17783 0.60459 4.7063-23.566 1.1914-24.486-5.7317-3.2422-22.395 10.309-22.771 9.8067" fill="#f09cb4"/>
  <path d="m174.76 265.68c-3.0763 0-5.5835 2.7384-8.5311 4.8722-3.7875 2.7206-8.4896 6.1057-16.414 6.2936-3.3667 0.0592-7.1092-2.5902-11.124-7.9668-14.26-19.091-27.936-67.456-21.893-86.254 2.0508-6.357 4.5581-11.083 7.9461-15.077 0.68757-0.96021 18.903-15.85 23.399-18.756-28.166 8.9917-60.598 7.3605-87.969-4.2439-6.5449 6.712-4.2854 17.941-3.26 27.204 1.0017 9.2424 2.4658 17.167-1.63 26.66-2.8214 6.4827-7.0677 13.299-10.35 19.028-6.9426 12.149-14.658 26.619-12.149 41.172 0.71127 4.1017 2.6554 8.866 2.365 9.7859-2.9696 9.6395-6.1478 23.001 0.53346 25.197 6.2314 2.0508 13.843 1.0669 21.6 0.29637 7.1305-0.72906 15.202-1.5707 24.151-0.23708 9.0124 1.3396 16.038 5.9806 22.834 10.476 7.2769 4.807 14.135 9.3467 22.353 8.7819 9.4095-0.6283 14.616-5.6665 18.966-11.061 3.3904-4.2262 6.2314-8.6775 13.403-11.501 3.6986-1.464 8.7617-1.5885 12.693-1.3988 8.8032 0.41492 15.682 0.29636 18.338-19.112 0 0-12.776-4.1372-15.264-4.1372" fill="#fff"/>
  <path d="m197.06 257.7c-1.2744-4.1609-4.8722-5.9385-4.8722-5.9385s-0.96022 3.995-1.1084 4.1195c-4.6233 4.1609-9.2009 1.7782-14.7-0.35564-4.724-1.8374-10.455 1.5885-14.679 5.2456-3.1178 2.7206-5.9806 4.9137-9.4724 4.4988-3.3667-0.4149-6.4406-2.3235-8.6781-5.4175-6.1472-8.5317-24.82-49.662-23.189-84.477-1.2744 0.53346-3.8053 7.4441-3.8053 7.4441-5.9593 18.464 8.4061 67.247 22.479 86.129 3.6808 4.9137 8.0297 7.674 10.873 7.6118 7.5069-0.17782 11.794-3.5979 15.599-6.357 2.9044-2.0686 5.1864-3.9713 8.6983-3.9713 2.7206 0 5.3108 0.59273 7.4441 1.2566 3.4497 1.1262 6.942 2.5724 11.961 0 1.9442-0.98393 4.5818-6.0849 3.4497-9.7859" fill="#ffe33f"/>
  <path d="m149.95 131.13 2.2761-0.35564 0.17783-0.23709c2.1516-3.2007 3.6808-7.6326 4.3506-12.797 1.4818-11.208-2.9874-21.203-10.016-22.249-2.4065-0.35565-4.9137 0.4149-7.2135 2.2168-4.3684 3.4319-7.5069 10.079-8.1968 17.376-1.0017 10.936 2.3828 16.226 4.4988 18.38l0.2371 0.2371 0.29636-0.0414c4.8307-0.68756 9.4096-1.547 13.633-2.5487" fill="#ffe33f"/>
  <g fill="#ea6d8d">
   <path d="m93.647 1.5868c-1.8612-0.1186-4.2024 0.4149-5.6665 1.2981l-0.64608 0.35563 0.59273 0.47419c1.0017 0.85945 1.9679 1.8375 2.8629 2.9459l0.53344 0.62828 1.7367-3.2837 1.5292-2.3828z"/>
   <path d="m130.44 10.852c-0.72905-2.3235-1.7367-4.4988-2.9873-6.4406 0 0-2.9044-8.8026-14.679-9.451-7.7369-0.41492-15.222 3.0111-19.153 9.7859-3.4912 6.0221-5.8147 13.048-6.8798 20.847l-0.17782 1.2566 1.0432-0.72905c9.9952-7.0262 35.004-7.5697 44.602-0.98394l0.96022 0.6698s-1.4226-10.769-2.7384-14.951"/>
   <path d="m56.339 15.584c0.94244-3.1177 2.2405-5.8976 3.8705-8.3012l0.75277-1.1084-1.2981 0.29636c-4.5996 0.91874-10.162 4.4514-12.693 9.7646-2.6139 5.542-2.9044 12.839-2.2168 20.701v2.2168c2.2168-3.1355 4.9552-4.6233 9.1168-4.8544l0.53344-0.04142-0.04142-0.53346c-0.4149-6.3149 0.2371-12.421 1.9679-18.108"/>
   <path d="m90.646 9.0077-0.17782-0.23709c-4.6233-6.2521-11.563-9.4724-18.15-8.4061-7.0256 1.1499-12.609 6.9841-15.306 16.017-1.63 5.4353-2.2998 11.27-1.9856 17.355l0.05923 1.3573 0.90095-1.0254c9.8067-11.166 28.835-9.2003 29.629-9.1167l0.53344 0.05923 0.05923-0.53346c0.85946-5.4353 2.2998-10.539 4.3091-15.181z"/>
   <path d="m158.14 20.165c-2.0094-9.2631-6.9213-15.704-13.822-18.192-5.1626-1.8612-11.061-1.2566-15.745 1.6122l-0.47419 0.29636 0.29637 0.47417c1.1736 1.8789 2.1338 3.9535 2.8451 6.127 1.5707 4.7892 2.5487 10.12 2.9044 15.85l0.0421 0.59273 0.62828-0.05923c6.0429-0.85945 18.443 0.47419 23.356 4.4988l0.91873 0.75276 0.0207-1.1499c0.0592-3.8053-0.2371-7.4227-0.96021-10.727"/>
  </g>
  <path d="m174.76 265.68c-3.0763 0-5.5835 2.7384-8.5311 4.8722-3.7875 2.7206-8.4896 6.1057-16.414 6.2936-0.23709 0-0.41492-0.0207-0.62829-0.0416-14.909-1.9442-48.051 12.964-71.889 9.9738-17.564-2.1931-35.38-6.8585-42.468-17.355-2.8629 9.5346-5.6013 22.06 0.85945 24.172 6.2308 2.0508 13.843 1.0669 21.6 0.29637 7.1299-0.72905 15.202-1.5707 24.151-0.23708 9.0124 1.3396 16.038 5.9806 22.834 10.476 7.2763 4.807 14.135 9.3467 22.353 8.7819 9.4096-0.62829 14.616-5.6665 18.966-11.061 3.3904-4.2262 6.2308-8.6775 13.403-11.501 3.6986-1.464 8.7611-1.5885 12.692-1.3988 8.8032 0.4149 15.683 0.29636 18.338-19.112 0 0-12.776-4.1373-15.265-4.1373" fill="#dcdddd"/>
  <path d="m95.911 170.96c7.6948 2.2998 17.167 4.1847 25.28 1.5885 1.0669-1.796 2.2405-3.4497 3.5564-4.9967 0.68756-0.96021 18.903-15.871 23.377-18.778-26.64 8.5104-57.127 7.5069-83.515-2.4657 6.0429 12.274 18.484 20.826 31.303 24.653" fill="#dcdddd"/>
  <path d="m147.56 193.15 0.35564 6.3357 6.5449 2.365 6.1478-5.2456s-0.47419-9.4932-2.7206-9.9744c-2.2405-0.47419-7.8625 3.4319-10.33 6.5242" fill="#f09cb4"/>
  <path d="m52.59 62.339s3.2422 2.2168 9.2631-3.5327c5.7317 8.2176 21.6 4.9374 26.535 0 8.4268 7.862 32.766 7.1934 41.758-0.35563 2.6554 4.89 15.724 8.9289 22.29 3.5327l-8.1133 12.421c-9.2632 20.137-72.642 14.951-85.522-2.7621z" fill="#d0879d"/>
  <path d="m49.353 128.05c22.164 22.583 86.442 25.908 107.52 9.5352 0 0 0.90096 5.542-9.9744 10.643-18.213 8.5525-58.276 11.605-91.774-7.5484-3.9535-2.2346-7.1513-7.1305-5.7732-12.63" fill="#dcc437"/>
  <path d="m183.94 226.74s6.2936 23.942-10.162 28.04c0 0 7.9876 3.3904 12.107 2.6554 4.0958-0.71127 6.5236-1.9264 5.791-7.7369-0.72905-5.791-2.6554-16.435-7.7363-22.959" fill="#d0879d"/>
  <path d="m126.64 243.91c14.512 29.002 27.309 29.901 35.778 22.959 7.3599-6.0014 10.81-7.1933 19.112-4.3506 7.172 2.4894 13.278 0.96022 14.971-5.3108 0 0 0.98393 10.162-4.5818 11.354-5.5598 1.2151-10.162-0.71127-12.567-1.4403-4.9552-1.4818-8.0712-2.1753-15.724 4.3506-6.5242 5.5598-18.38 5.3108-22.479 0.47419-4.1194-4.8307-9.6816-12.316-14.512-28.04" fill="#dcc437"/>
  <path d="m30.73 231.94s2.0508 2.4243 7.862-1.5055c0 0-6.7328 10.852-6.3564 16.477 0 0-2.6317-3.5564-1.5055-14.972" fill="#dcc437"/>
  <g fill="#d0879d">
   <path d="m178.01 196.76c-3.1355 12.776-13.947 15.766-15.222 20.492-0.53346 1.9856 8.3219 4.724 11.229 1.8197 1.63-1.63 4.724-14.156 3.995-22.311"/>
   <path d="m158.98 190.06s0 5.98-6.9005 10.162l2.3828 1.63 5.9593-4.5403s1.464-3.26-1.4403-7.2556"/>
   <path d="m144.47 177.55c0.0592 17.042-7.8204 21.057-7.2769 24.131 0.35565 1.9679 8.9704 4.2024 10.769 1.0669 0.53346-6.7121-3.4912-25.197-3.4912-25.197"/>
  </g>
  <g fill="#0f141b">
   <path d="m59.62 70.963c-24.486 16.372-28.564 39.499-16.184 66.243 4.4336 9.5767 12.567 41.214 8.4683 54.533-2.0508 6.6285-7.5276 14.01-11.563 19.781-10.162 14.533-15.348 21.621-8.6775 40.608 0.23709 0.64607 1.1914-6.587 0.96022-7.5905-2.9281-13.027 4.078-23.064 11.041-32.997 4.1432-5.938 8.4476-12.086 10.602-19.07 2.5487-8.3432 0.98394-17.648-0.53344-26.66-2.3828-13.947-2.9044-19.844 0.79426-26.117 0.35563-0.59273-2.2405-2.0094-2.5724-1.4226-1.3988 2.365-2.1516 4.9552-2.4895 7.7161-1.0254-3.4912-2.1753-6.7749-3.4912-9.8073-10.518-24.381-7.7997-48.218 16.059-64.194 3.746-2.4895 1.3396-3.5149-2.4065-1.0254"/>
   <path d="m62.031 285.11c9.3681 3.1178 17.042 4.0365 28.291 3.3667 6.5034-0.35564 6.357-2.4243-0.1186-2.0508-4.9552 0.29637-19.948-0.77053-27.371-3.2422-5.3938-1.796-6.1685 0.1186-0.77054 1.9264"/>
   <path d="m58.127 142.99c-5.0797 9.3675-3.2837 18.84-2.2168 28.479 0.98393 8.9917 2.6969 17.397-1.2151 26.41-2.7799 6.3985-7.632 13.299-10.894 19.008-12.379 21.684-19.091 35.401-7.0463 55.955 3.2185 5.5005 4.2024 3.1592 1.3988-2.5724-9.6609-19.823-1.6122-35.15 8.1755-52.296 3.3015-5.7495 7.6112-11.961 10.434-18.484 4.1846-9.6188 2.4065-18.987 1.381-28.292-1.0669-9.6816-1.9442-18.025 2.7621-26.723 0.29636-0.59271-2.448-2.0923-2.7799-1.4818"/>
   <path d="m120.75 172.49c-8.0083 25.343 14.93 79.082 21.622 88.346 2.3235 3.2422 5.6665 5.3938 9.1796 5.8147 3.6394 0.4149 7.8827-1.6715 11.124-4.4751 7.3605-6.3772 10.853-6.8584 13.885-5.6842 7.5276 2.9281 12.609 3.4497 15.097-0.66978 2.7621-5.6428 0.0421-27.518-15.808-40.942-0.53346-0.41491-2.1101 2.2405-1.8197 2.4658 14.01 10.057 17.439 32.076 15.997 36.885-1.4818 2.0508-5.0382 3.4912-12.567 0.59273-5.459-2.1101-10.246 0.41491-16.394 5.7317-2.6969 2.3413-5.6902 3.5979-8.6147 3.26-2.8214-0.35563-6.0434-2.3828-7.9668-5.0382-6.9005-9.598-34.23-71.994-18.756-91.482 0.4149-0.59271-3.8883 1.7782-4.9789 5.2279"/>
   <path d="m147.44 199.87 5.9154 3.2837c0.60459 0.29637 2.0686-2.0923 1.464-2.3828l-6.6492-3.1592c-0.23708 0.85945-0.1186 2.5724-0.72905 2.2583"/>
   <path d="m120.32 175.26c-0.53344 10.246 7.3184 15.954 16.331 19.258 4.2262 1.5292 4.8722 0.41491 1.1736-1.5707-9.556-5.1034-16.707-9.7438-15.745-20.659 0.0416-0.69351-1.713 2.282-1.7545 2.9696"/>
   <path d="m34.434 266.56-1.464 5.2456c-2.3828 7.7576-6.0014 20.471 3.0111 23.44 6.6285 2.1753 13.843 0.41492 21.495-0.35563 7.0049-0.71127 14.972-1.5292 23.691-0.2371 8.5732 1.2744 15.662 6.3772 22.29 10.748 18.861 12.483 30.989 11.898 42.427-2.3235 3.3904-4.2262 6.67-9.5773 13.361-12.212 3.3252-1.2981 7.1726-0.71126 10.894-0.53346 9.4932 0.41492 20.011 2.4243 21.558-21.622 0.0421-0.68756-2.5962-0.0592-2.6791 0.60459-2.0271 17.167-7.7363 19.07-18.777 18.548-3.9713-0.17783-8.0919-0.41492-11.898 1.1084-7.2977 2.8866-10.999 7.9254-14.428 12.191-10.246 12.756-22.792 12.839-39.144 2.0271-6.8377-4.5344-14.135-9.4303-23.252-10.769-9.0332-1.3396-17.146-0.72907-24.297 0-7.6954 0.79424-14.595 2.1101-20.471-0.53346-8.2597-3.7223-0.29636-22.813-0.29636-22.813 0.17782-0.66978-1.8375-3.1592-2.0271-2.5072"/>
   <path d="m153 202.26c-2.1753 2.3413-1.713 4.5818 0.47419 2.2346 6.0642-6.5449 20.555-13.425 22.729-12.191 1.8375 1.2981 0.59273 17.983-3.2837 26.054-1.2329 2.6139 0.87725 2.2998 2.1338-0.29637 2.9459-6.1899 7.0884-25.51 2.5724-28.082-4.2262-2.4243-18.986 6.2308-24.611 12.295"/>
   <path d="m124.88 185.5c-0.29636 0.60459 1.5055 1.6952 1.796 1.0847 3.4912-7.0671 11.376-14.72 13.675-14.198 2.6317 0.60457 6.1478 17.188 6.4192 28.04 0.1186 4.3506 1.7367 4.1432 2.0271-0.71127 0.29637-5.1864-2.1516-28.835-7.904-30.153-4.6233-1.0432-13.006 9.8488-16.017 15.934"/>
   <path d="m147.13 192.41c-0.4149 0.53346 0.17782 2.8214 0.59273 2.2761 2.4065-3.3667 8.2804-7.1513 9.6395-6.6072 1.1499 0.47419 2.0271 4.7478 2.0271 9.5767 0 0.66978 2.0923-0.4149 2.0923-1.0847 0-4.5996-1.1262-10.309-2.8451-11.082-2.4895-1.1084-8.4896 2.7384-11.48 6.9213"/>
   <path d="m191.73 250.2c-0.0592 0.91872 0.4149 1.5707 0.29636 2.2583 4.2854 1.9442 4.5996 11.166 1.0669 13.675-3.5326 2.4895-7.8412 1.2744-11.333 0.1186-2.1753-0.71127-4.4099-1.4226-7.1934-1.4226-3.6986 0-6.5028 2.0093-9.4718 4.1432-9.368 6.7541-18.589 7.1726-24.883-1.2566-14.01-18.778-28.124-66.892-22.207-85.251 4.6826-14.511 12.023-19.049 21.203-25.05 12.211-7.9882 31.888-19.175 30.487-44.957-0.53346-10.037-6.0221-24.904-25.05-39.332-0.53346-0.4149-2.0271 1.3396-1.4818 1.7545 18.276 13.843 22.729 28.103 23.252 37.617 1.2329 22.646-13.278 32.933-29.065 43.263-9.2424 6.0429-16.644 11.145-21.6 26.493-6.1057 18.923 6.8164 65.908 22.374 87.759 5.2694 7.4026 16.205 10.142 28.27 1.464 2.8866-2.0686 5.2694-4.1847 8.1761-4.1847 2.4065 0 4.3506 0.62829 6.4192 1.2981 7.3398 2.4065 9.9116 2.5072 13.696-0.0207 5.0382-3.3667 4.1372-16.812-2.9696-18.38"/>
   <path d="m56.496 140.23c-12.337-7.8833-5.3938-18.798 5.0619-13.989 21.747 9.9952 58.674 13.069 88.618 5.9154 1.7367-0.41492 4.7655-0.47419 5.7317 2.1338 1.1914 3.2185-1.2151 8.7196-6.587 11.48-23.399 12.023-68.439 10.037-92.82-5.542m-0.79426 2.2583c21.956 14.01 67.142 19.153 94.556 5.0619 11.668-6.0014 9.6609-19.635-0.64606-17.167-25.865 6.1685-63.901 4.2439-87.237-6.1893-14.114-6.3149-20.659 9.3467-6.67 18.296"/>
   <path d="m58.971 136.93c19.53 12.274 61.747 17.376 89.83 5.5835 4.5996-1.9204 2.7384-2.9874-1.5648-1.464-26.159 9.2418-63.651 6.3357-86.004-5.3523-4.3921-2.2998-6.4406-1.381-2.2583 1.2329"/>
   <path d="m108.62 125.48c0-0.90095 3.4082-0.87725 3.3904-0.0592-0.0213 0.98393-3.3904 0.85946-3.3904 0.0592"/>
   <path d="m129.72 114.93c-0.68756 7.5069 1.6952 14.888 5.2694 19.091 0.41491 0.53346 2.1931-0.23708 1.7782-0.75275-2.3413-3.1178-5.4175-9.1381-4.5996-18.108 1.1084-11.835 8.5519-19.237 14.407-18.359 10.037 1.5055 12.755 22.311 4.7892 33.31-0.4149 0.59273 1.3396 1.8197 1.7367 1.2566 9.0539-12.483 5.708-34.397-6.1478-36.195-7.1928-1.0669-16.038 6.9628-17.23 19.76"/>
   <path d="m145.15 103c3.6571 0.29635 6.6913 5.5835 5.7732 13.905-0.98392 8.9496-4.7892 13.445-8.8453 13.131-2.9696-0.2371-6.7328-5.5598-5.625-14.428 0.87723-7.0256 4.5581-12.922 8.6983-12.608"/>
   <path d="m53.539 108.28c-0.29636 3.6156 0.17781 11.124 3.4319 15.954 0.4149 0.59273 2.3413 0 2.0271-0.60458-2.1931-4.078-3.3252-9.5145-2.8036-15.285 1.0847-12.483 8.2176-19.655 15.035-19.363 7.7991 0.35563 13.821 10.037 13.006 22.75-0.53346 7.9668-3.7638 14.742-8.3432 17.794-0.59273 0.35563 0.81796 2.0093 1.381 1.63 5.1034-3.3904 9.0747-10.852 9.6182-19.258 0.68756-10.602-4.6825-24.068-15.536-24.548-8.1133-0.35565-16.603 6.9628-17.816 20.931"/>
   <path d="m71.467 96.592c4.3684 0.35564 7.9254 5.98 7.4648 14.637-0.47419 8.7824-4.724 13.968-8.8032 13.926-3.6986-0.0416-8.0291-4.5581-7.7576-14.658 0.23709-9.4095 4.89-14.219 9.096-13.905"/>
   <path d="m110.71-7.0031c-26.158 0.059226-34.711 47.466-18.213 80.127 2.9281 5.8147 5.6013 6.5034 2.7621 0.64608-17.585-36.467-5.5835-78.706 15.808-77.785 25.678 1.1084 27.12 50.602 10.602 79.04-2.0686 3.5741 0.4149 3.4734 2.5072-0.1186 18.422-31.7 14.156-82.009-13.466-81.926"/>
   <path d="m127.04 2.7408c-0.53346 0.4149 0.94243 2.3828 1.4818 1.9679 9.6816-7.3184 24.82-1.7782 28.417 15.578 4.078 19.698-5.8739 42.72-14.052 53.676-3.5741 4.7655-2.0686 6.1685 1.6952 1.547 8.4689-10.351 19.698-35.422 15.452-55.914-4.0365-19.551-21.245-25.74-32.996-16.854"/>
   <path d="m55.064 15.25c-7.4233 24.695 6.8377 48.093 13.257 57.503 2.6317 3.8468 5.2931 3.8053 2.6554-0.04214-6.2313-9.1375-19.928-32.892-12.797-56.562 5.0797-16.854 23.106-19.718 32.202-6.7956 0.4149 0.53346 2.4065-0.87723 2.0271-1.4225-10.748-15.285-31.805-11.061-37.345 7.3184"/>
   <path d="m63.239 4.5622c-26.221 0.41492-26.535 39.854-4.5344 68.689 0.4149 0.53346 2.365-0.96022 1.9679-1.5055-21.475-28.144-17.628-63.943 0.4149-64.591 0.68756-0.02071 2.8036-2.5902 2.1338-2.5902"/>
   <path d="m85.389 2.5405c-0.41492 0.53344 1.4818 2.0923 1.9264 1.547 1.2981-1.5885 5.7317-2.5487 7.779-1.6537 0.62829 0.29636 1.5707-1.9264 0.98393-2.2583-3.6394-2.1338-8.6989-0.1186-10.685 2.365"/>
  </g>
  <path d="m67.442 102.88c-0.1186 2.8451 1.2981 5.2279 3.177 5.3345 1.9027 0.0592 3.5564-2.1516 3.6986-4.9967 0.1186-2.8451-1.2981-5.2279-3.177-5.3286-1.9026-0.0592-3.5564 2.1516-3.6986 4.9967" fill="#fff"/>
  <path d="m141.49 108.8c-0.23709 2.6317 0.98393 4.89 2.6317 5.0204 1.6537 0.1186 3.1592-1.9264 3.343-4.5581 0.23709-2.6554-0.96022-4.89-2.6139-5.0204-1.6715-0.1186-3.1592 1.9264-3.3667 4.5581" fill="#fff"/>
 </g>
</svg>
