<?xml version="1.0" encoding="UTF-8"?>
<!-- Created with Inkscape (http://www.inkscape.org/) -->
<svg version="1.1" viewBox="0 0 263.28 337.09" xmlns="http://www.w3.org/2000/svg">
 <g transform="translate(21.078 32.299)">
  <path d="m110.12 190.09c-0.50024 4.2736-1.035 8.687-1.2635 12.825-0.60806 10.512 3.8941 19.138 10.771 24.448 7.5304 5.7964 18.743 6.6636 29.285 3.2257 8.5805-2.7988 12.886-0.91424 19.321 1.5352 6.3897 2.4193 12.825 5.1723 21.42 0.65549 8.5499-4.488 11.578-3.2559 16.263-2.2813 2.7858 0.59511 5.2336 1.1428 7.8499-0.6253-3.7863-19.488-8.7323-33.226-13.768-40.437 10.65-14.757 10.543-22.79 1.1126-30.153-3.0273-2.3589-7.652-3.0877-10.786-2.6608-3.9847 0.53473-8.565 4.1701-12.475 9.1588-4.0149-3.1955-14.924-8.3825-20.295-9.402 1.5826-7.972 0.21566-16.202-2.691-20.295-2.1605-3.0575-6.131-5.0658-10.665-5.6286-11.227-1.3843-17.085 5.4919-19.199 20.34-4.2132-0.66841-11.821-3.8467-17.283-9.6758 2.1433 6.0853 4.1098 17.785 4.2003 30.868 0.0302 5.5682-1.0781 12.11-1.794 18.104" fill="#a4725d"/>
  <path d="m101.01 144.47c0.63824 17.358 1.1557 36.679-3.6958 60.23-2.1002 10.208 0.50025 21.436 7.3932 28.358 6.5571 6.6028 21.284 13.661 46.812 8.565 6.344-1.2765 11.608 0.60803 16.43 2.208 6.9676 2.3417 14.194 4.7618 26.274-1.5654 3.5448-1.8544 7.9716-0.86681 12.262 0.0862 5.2487 1.1859 10.816 2.1131 14.163-1.5826 1.8414-2.0398 1.6603-5.1723 1.3369-7.7283-0.50024-4.1831-5.1879-6.5264-8.9-7.2113 0.12944 0.57787 0.38811 3.105 0.51749 3.6958-2.1002 2.7858-5.0356 1.4921-8.3674 0.78919-3.713-0.77625-7.9263-1.6603-15.107 2.1131-9.2955 4.8834-15.974 2.3416-22.44-0.0862-5.6592-2.1304-10.999-4.1529-18.241-1.794-11.075 3.6052-23.033 2.1131-30.989-4.0321-5.1271-3.9545-10.117-11.334-9.2955-25.376 0.21567-4.1831 0.75898-8.6258 1.2765-12.931 0.69862-5.9331 1.4317-12.079 1.4016-17.556-0.12945-19.595-3.9416-27.917-6.9676-34.9-0.91422-2.1002-2.5271-6.4807-3.1955-8.5649-1.3369 2.1735-0.84956 12.201-0.66843 17.282" fill="#ffe33f"/>
  <path d="m117.82 94.307c18.013 0.43987 30.229-6.3285 30.001-9.9035-0.0862-1.4921-3.6224-3.8036-7.2264-4.5337-6.3289 6.6023-22.774 14.437-22.774 14.437" fill="#a4725d"/>
  <path d="m149.16 37.422c5.7812-13.266 6.4048-30.183-0.34498-41.167-1.7336-2.829-5.0964-5.9637-6.542-5.8114-1.5525 0.17245-3.9114 3.5146-5.203 7.0435-2.3287 6.3289-6.2983 10.984-9.8125 13.981 3.0575 2.0225 7.5002 5.4919 10.041 8.1238 4.8377 4.9748 9.4624 11.684 11.851 17.83" fill="#a4725d"/>
  <path d="m145.3 61.416c-1.4619-0.0862-3.3766-1.4619-4.2003-3.3637-2.3891 13.144-8.8237 24.22-18.788 33.728 9.9039-3.0144 25.832-15.594 29.027-34.732-2.678 1.3368-4.2909 4.488-6.0396 4.3659" fill="#ffe33f"/>
  <g fill="#f19eb4">
   <path d="m174.18 204.05c-1.1557 2.208-0.51751 7.8806 9.7823 12.217 4.8985 2.07 11.805 2.4624 13.068-0.12944 1.1557-2.4193-1.4145-8.3825-7.9565-11.897-5.7049-3.0575-13.357-3.1653-14.894-0.21566"/>
   <path d="m171.54 186.13c3.7561 2.2683 7.972 1.9147 9.0367 0.30187 1.2937-1.9147-0.17245-5.3703-4.2133-8.0324-3.726-2.4322-8.2303-2.967-9.6603-0.53043-1.2032 2.0398 1.0781 5.9788 4.8377 8.2454"/>
   <path d="m130.92 193.03c4.7467 3.5578 11.912 2.9972 13.479 0.95736 0.98754-1.2937 1.7336-6.344-5.3095-11.38-6.1159-4.3508-12.095-3.5578-13.418-1.3843-1.4145 2.2985-0.345 7.6218 5.2487 11.805"/>
   <path d="m234.74 264.05c-7.4394-5.9632-14.711-14.407-18.469-20.751-2.9066 0.38811-6.2375-0.12944-9.3869-0.85386-4.1701-0.92717-9.2648-2.5702-12.262-1.0048-12.719 6.6632-18.85 5.1422-26.167 2.691-4.8075-1.6128-11.06-3.6958-16.948-2.5271-26.273 5.2638-39.296-0.98754-46.142-7.8806-7.3027-7.3329-10.269-17.252-8.0479-28.023 4.792-23.352 4.488-43.647 3.851-60.899-0.25875-7.15-0.47006-15.015-0.345-21.648 0.30187-15.715 7.6826-20.614 19.473-30.198 0 0 13.585-9.5693 18.788-27.186 1.0048-6.7697-5.2185-12.612-10.573-14.94-7.0439-3.0575-17.678-2.3589-22.516 4.0451-8.6715 24.844-35.219 55.483-72.796 83.704-34.154 25.68-42.734 53.718-43.449 71.655-0.74606 18.378 6.5415 30.868 9.2347 35.401-3.3033 8.1544-14.651 20.858-14.772 20.979-3.1783 3.1783-4.1831 7.059-2.9497 10.026 2.0398 4.9446 10.086 8.1091 21.786 8.1091 10.223 0 21.451-3.0748 31.354-5.7662 7.3329-2.0096 17.967-5.1422 23.976-5.6592 7.8806 2.5098 13.433 9.2191 19.762 17.115l3.4672 4.1701c9.706 10.847 24.98 10.071 34.595 3.9847 2.7858-1.7638 6.2832-4.6096 9.995-7.6067 5.0813-4.1227 7.5157-6.0853 9.8582-7.9258 3.2732 0.88403 8.474 3.1481 12.916 4.5181 20.097 6.2073 52.136 15.487 56.32 4.3357 0.897-2.402-0.0432-4.0451-1.2636-6.1461-1.3843-2.3718-2.5271-6.3591-2.3589-5.4005 4.5794-1.2334 9.6456-1.1255 14.879-0.47005 4.7467 0.59513 11.486 1.4447 17.8 0.78919 3.8036-0.38814 6.2375-2.678 6.9374-5.0964 0.95735-3.2257-1.4317-7.4394-6.5571-11.547"/>
   <path d="m201.68 280.38c0.0151 0 0.0432-0.0151 0.0432-0.0151-0.0862-0.17244-0.0862-0.17244-0.0432 0.0151"/>
  </g>
  <path d="m216.28 243.3c-2.9066 0.38811-6.2375-0.12944-9.402-0.83662-4.1529-0.94444-9.2497-2.5875-12.246-1.0048-12.718 6.6636-18.849 5.1266-26.167 2.678-4.8226-1.6128-11.06-3.6958-16.947-2.5098-26.274 5.2487-39.296-1.0048-46.142-7.8956-2.2382-2.2511-4.0623-4.7316-5.4617-7.4243-38.064 23.307-85.681 20.051-109.81-6.7852 1.4145 13.312 6.6942 22.409 8.8849 26.121-1.5827 3.9243-5.0205 8.8845-8.185 13.008 14.879 1.781 21.223 14.027 24.311 24.95 6.5722-1.1428 13.19-2.9368 19.306-4.6096 7.3329-2.0096 17.967-5.1266 23.976-5.6592 3.9243 1.2463 8.5197 4.0925 11.684 7.0435 21.04-9.8582 47.207-9.1432 57.582 9.4477 4.1227-3.3335 6.2983-5.0964 8.4131-6.7546 3.2688 0.88406 8.4735 3.1481 12.916 4.5332 5.8727-14.027 36.847-23.17 54.175-3.6052-0.6986-1.5654-1.2334-3.1783-1.4317-3.6354-0.0151 0.0151-0.0303 0.0151-0.0432 0.0151-0.0302-0.17244 0-0.17244 0.0432-0.0151 4.5794-1.2161 10.406-0.74606 14.833-0.45714-3.105-30.001 9.0065-23.048 11.38-21.999-6.2069-4.9748-9.0824-10.224-11.669-14.605" fill="#d1889d"/>
  <path d="m33.722 138.26c43.16-32.45 73.496-69.129 75.002-96.817-3.0273 2.5271-4.8071 5.8723-7.7128 5.8723-2.4667 0-5.112-1.8845-6.5571-4.5337-2.4193 16.081-13.844 36.847-32.541 57.552-9.2804 10.284-19.975 18.515-22.485 20.645-17.952 15.304-43.632 39.266-43.799 60.747 6.3897-12.582 19.58-29.544 38.094-43.465" fill="#ffe33f"/>
  <path d="m62.077 100.17c24.022-26.608 34.93-50.706 30.868-68.125-1.9147-8.2458-8.5956-19.032-18.834-20.873-6.04-7.0586-11.501-13.479-10.482-32.678 0.25875-4.9442-0.51749-8.0328-2.2684-8.9302-1.3843-0.71587-5.4009-0.25876-11.699 4.7618-18.636 14.909-24.128 40.848-17.282 57.719 5.6743 13.996 8.7629 13.463 17.115 19.473-0.04322 1.0824-0.17245 3.7432-0.17245 4.8532-6.5415-3.3464-10.695-5.2793-16.947-4.5186-3.7432 0.43989-4.0321 4.1227-2.4193 8.0479 2.7858 6.7395 10.786 13.494 19.336 17.86-2.3589 21.557-15.807 42.673-27.612 58.48 3.6224-3.2861 14.833-13.22 18.408-16.278 7.2565-6.1767 17.054-14.331 21.983-19.793" fill="#a4725d"/>
  <path d="m141.61 48.831c1.0824-1.9147 3.3465-4.1356 4.8683-4.0321 1.2161 0.08622 3.3939 0.12944 4.2003 1.5223-1.5525-9.4477-6.4962-20.036-13.601-27.354-2.1907-2.2684-10.208-8.5956-13.053-9.2799 11.729 10.862 16.704 23.657 17.587 39.144" fill="#ffe33f"/>
  <path d="m93.605 35.832c1.4145-3.0877 4.0321-7.4998 6.7244-7.4998 2.402 0 6.9525 3.1783 8.3976 5.7351-1.8544-14.437-14.514-27.414-23.793-30.807-6.5877-2.402-11.578-1.9492-15.639 1.4447 1.0824 1.656 3.0748 4.6096 4.2305 6.0094 10.254 3.0877 18.606 12.855 20.082 25.117" fill="#ffe33f"/>
  <path d="m108.82 37.012c0.25873 4.4578-1.0479 12.308-2.5098 17.42 4.8683-5.4617 14.651-7.1656 23.063-3.4974 7.6524 3.3163 8.8237 7.6067 10.01 13.099 1.781-5.3095 2.5573-16.552 1.6603-23.033-2.1131-15.472-10.801-28.844-21.588-34.017-7.1958-3.0273-15.487-4.8377-23.596-4.7161-2.6004 0.04322-7.2872 0.91424-9.6754 1.2463 10.482 5.2638 21.755 17.739 22.637 33.499" fill="#a4725d"/>
  <g fill="#815847">
   <path d="m68.888 53.59c-9.0673 1.0048-19.397-2.07-19.397-2.07l-0.25876 4.8071c3.3033 1.8414 6.1767 4.2305 9.0367 6.4506 5.5074-7.4696 10.619-9.1889 10.619-9.1889"/>
   <path d="m33.552-4.1051c2.9799 19.382 18.53 36.725 38.885 41.533 11.319 2.6608 2.5271 15.746-3.4543 16.415-18.773 2.1001-49.976-8.2307-35.432-57.948"/>
   <path d="m143.33 27.066c1.8242 2.6004 3.3335 5.2793 5.72 11.44 3.3465-7.6826 5.4315-18.408 4.6553-26.745-1.9794 8.2303-5.9632 12.444-10.375 15.304"/>
   <path d="m29.962 58.455c11.821 5.9486 22.546 11.425 29.286 16.689 9.0367 7.059 2.3115 6.7395-0.25873 6.131-5.9029-1.3843-26.182-11.075-29.027-22.82"/>
   <path d="m117.11 95.132c7.3937-0.34497 14.955-1.8241 19.747-3.3292 4.9744-1.2334 8.8388-3.1653 8.8237-4.2434-3.105-0.6253-10.68 0-16.994 1.4749-8.2152 3.3637-11.577 6.1004-11.577 6.1004"/>
   <path d="m195.99 183.21c5.8873 25.437-8.0781 42.233-25.923 49.337 4.5332 2.7686 12.079 4.5186 20.142-0.25873 8.0479-4.7773 13.829-2.2684 17.861-1.2636 4.0321 1.0048 5.2939-1.505 5.2939-1.505-3.1351-21.071-11.38-37.714-17.374-46.31"/>
   <path d="m128.35 138.15c1.4447 11.045 27.019 13.221 29.407 3.6526 0 0 1.2161 10.36-0.75897 15.244-2.8764-1.4015-27.171-5.5527-31.994-6.2526 0.30187-1.8242 1.2161-8.6865 3.3464-12.642"/>
   <path d="m207.99 171.38c-6.6938 6.0245-24.752 0.17245-25.011-11.045 0 0-2.8462 1.9794-4.8528 5.3397 0 0 13.251 8.9 21.648 23.991 3.1955-2.3589 9.4472-11.714 8.2152-18.286"/>
  </g>
  <path d="m106.27 233.67c18.058 12.125 39.037 1.2636 50.204 2.3115 6.1461 0.57786 12.49 5.5678 22.303 5.5678 9.8125 0 10.588-4.2305 19.625-4.8071 9.0367-0.57786 18.073 6.5416 24.417-1.5352 0 0-0.43124 7.1349-7.6826 7.8801-7.5002 0.77625-14.24-2.4969-17.693-2.1131-3.4672 0.38811-13.281 5.7808-18.849 5.3854-5.5833-0.38813-16.355-5.1879-20.964-5.1879-4.6251 0-18.667 3.0748-26.745 2.1131-8.078-0.95737-18.271-1.7336-24.615-9.615" fill="#dcc437"/>
  <g fill="#0f141b">
   <path d="m50.699 51.466c-0.59513-0.17244-2.2209-0.30187-2.7988-0.4873-0.08622 1.6258 0.30189 3.3163 0.25876 5.0201 0.59511 0.30187 1.7336 0.63824 2.3287 1.0048 0.03069-1.8888 0.08622-3.7432 0.21567-5.538"/>
   <path d="m48.046 77.311c-2.4495 24.965-15.396 43.663-32.618 64.261-5.5984 6.6787-10.603 13.707-13.235 18.697-0.21567 0.43125 1.2937 0.65549 1.505 0.21567 2.5573-4.8226 7.3329-10.543 12.87-17.161 13.388-16.019 31.142-37.242 33.88-65.174-0.57787-0.17244-1.8543-0.56062-2.402-0.85386"/>
   <path d="m137.92 18.982c-16.081-16.567-38.52-19.686-54.494-16.43 0.65549 0.54768 2.2986 1.3067 2.9497 1.7207 10.193-1.932 33.515-1.5827 49.991 15.396 9.4322 9.7211 14.285 22.166 13.692 35.052-0.97462 20.766-17.617 32.465-27.917 36.497-0.75898 0.30187-2.7556 2.7255-2.3115 2.5875 11.547-3.6354 31.218-15.457 32.328-39.098 0.63822-13.738-4.1227-25.285-14.24-35.721"/>
   <path d="m68.303 4.255c-0.30187 0.345 0.8366 2.1907 1.1557 1.8544 3.3335-3.5276 8.8086-4.2434 15.061-1.9622 10.847 3.9545 22.318 16.628 23.246 33.165 1.4447 26.03-28.19 65.067-75.048 100.29-31.035 23.322-43.251 45.108-44.362 72.552-0.78917 19.792 7.8198 35.478 15.183 41.989 3.2861 2.9066 4.4423 1.6129 1.2765-1.4317-10.193-9.7819-14.194-27.84-13.677-40.847 1.0652-26.487 14.605-49.094 42.901-70.362 38.718-29.088 77.482-72.035 75.823-101.94-0.85387-15.244-11.045-30.29-24.767-35.31-6.9068-2.5271-12.977-2.0398-16.796 2.0096"/>
   <path d="m74.674 11.846c11.395 5.3552 15.472 13.281 17.115 20.295 3.5577 15.32-5.6441 39.783-30.959 67.836-4.9442 5.4613-13.996 13.266-21.238 19.443-33.028 28.16-44.894 41.593-46.507 68.749-0.03025 0.4873 1.8241 0.57786 1.8543 0.0862 1.7811-29.94 27.521-51.649 47.968-69.084 7.2872-6.222 14.179-12.094 19.184-17.647 24.402-27.034 36.101-52.014 31.918-69.997-2.3416-10.056-10.452-19.123-21.268-21.983-0.45711-0.08622 1.1126 1.8845 1.932 2.2813"/>
   <path d="m117.99 7.3522c11.212 4.8838 19.914 18.104 22.105 33.972 2.8591 20.781-6.7852 39.981-19.473 50.006-17.115 13.525-20.827 17.769-21.101 31.492-0.12944 6.648 0.53043 14.529 0.80643 21.679 0.85387 22.85-0.38813 42.475-4.1701 60.883-2.2037 10.756 0.759 21.512 8.0634 28.86 6.846 6.8917 21.314 13.768 47.587 8.5196 5.8878-1.1859 10.832 0.60806 15.64 2.208 10.558 3.5448 16.248 3.5922 27.08-2.0829 2.9497-1.5352 6.253-0.85385 11.851 0.43124 5.4919 1.2463 11.075 2.4322 15.091-2.0096 4.701-5.1879 2.1605-14.864-8.7474-16.217-0.47006-0.0432 0 1.9018 0.45713 1.9622 6.4354 0.80641 11.045 7.7434 6.5113 12.764-3.3464 3.6958-8.3066 2.5875-13.555 1.3972-4.2736-0.9746-8.7016-1.9622-12.262-0.0862-12.08 6.3289-19.291 3.9114-26.274 1.5654-4.8075-1.6128-9.7823-3.2732-16.126-2.0096-25.528 5.112-38.702-1.6732-45.259-8.276-6.8917-6.9219-9.7517-17.145-7.6524-27.353 4.8532-23.55 4.1227-43.221 3.4672-60.579-0.25876-7.1198-0.51749-13.86-0.38812-20.447 0.30187-16.43 5.9939-19.701 20.477-31.492 14.802-12.064 22.729-30.974 19.96-51.071-2.2683-16.461-11.547-29.909-23.307-35.021-0.43125-0.21566-1.2334 0.75898-0.78917 0.94441"/>
   <path d="m100.23 120.43c-0.0862 6.4048 1.7207 10.604 3.8338 15.457 3.0273 6.9827 6.8003 15.67 6.9219 35.28 0.12944 21.527-9.5387 43.967 7.3178 56.944 7.9564 6.1461 20.051 6.8913 31.126 3.2688 7.257-2.3589 12.597-0.043 18.256 2.1002 9.6754 3.6526 15.806 3.575 22.424 0.0862 7.1957-3.7734 11.41-3.1783 15.122-2.402 3.3163 0.69862 5.7204 1.1256 8.4588-0.30187 2.4969-1.3067 2.9368-3.2257 0.43124-1.794-3.5146 2.0096-5.2939 1.1256-8.5343 0.43987-4.701-0.9746-7.7288-2.208-16.263 2.2813-7.5308 3.9545-13.023 2.5702-21.101-0.48732-9.6146-3.6526-11.836-4.1529-19.458-1.6732-13.114 4.2736-22.79 1.2161-29.149-3.6828-15.609-12.034-6.5571-36.01-6.6636-55.118-0.12944-19.96-4.2305-28.494-7.3173-35.614-2.1131-4.8683-4.0753-8.7172-3.9718-14.742 0-0.47005-1.4145-0.50024-1.4317-0.0307"/>
   <path d="m235.08 262.98c-10.999-8.8082-14.361-13.327-18.256-20.234-0.25876-0.43124-2.0096 0.43125-1.781 0.83663 3.8165 6.7701 7.1806 11.486 18.347 20.447 9.0673 7.2565 7.1048 15.031-0.53044 15.822-6.3285 0.65549-11.714-0.0151-16.476-0.60805-5.4768-0.68568-10.284-1.2765-15.107 0.21566 0.43125 0.43125 0.72879 0.94444 0.9746 1.505 4.3357-1.2161 8.8237-0.21567 13.92 0.43124 4.8528 0.60806 11.349 1.3369 17.876 0.66843 9.2191-0.95735 11.988-10.284 1.035-19.063"/>
   <path d="m195.06 183.6c9.6909 13.783 13.966 28.982 17.328 46.431 0.0862 0.45711 2.1907 0.12944 2.1131-0.30187-2.967-18.408-7.5459-32.876-17.86-46.705-2.7082-3.6354-4.2003-3.1179-1.5827 0.59081"/>
   <path d="m149.87 156.08c12.292 2.5702 24.646 8.2764 32.298 13.662 2.8764 2.0096 3.5578 0.94443 0.92719-1.2032-9.4779-7.7283-19.58-12.125-32.876-13.996-5.0356-0.71587-5.3397 0.50457-0.34498 1.5352"/>
   <path d="m107.13 141.18c5.5225 7.7438 13.175 10.269 24.463 11.593 6.4958 0.77625 5.8114-0.63824-0.62532-1.8544-12.627-2.4193-20.614-5.0658-25.999-16.278-0.21566-0.43124 1.3239 5.3703 2.1606 6.5415"/>
   <path d="m202.18 275.85c0.91422-4.0019-0.53043-5.0352-1.5525-1.0652-2.1131 8.1846 5.4462 11.227 3.1783 16.278-4.8532 10.878-34.991 2.3718-54.464-4.5488-4.9442-1.7638-9.4171-2.9066-12.916-3.8036-0.54767 0.71586-1.794 1.4619-1.5525 1.505 3.5922 0.88405 11.014 2.9971 16.461 5.0507 22.424 8.4739 49.717 15.061 54.844 2.54 2.1002-5.1115-5.2944-10.239-4.0019-15.959"/>
   <path d="m46.689 271.66c16.78 0.897 24.828 12.293 31.309 20.356l3.5146 4.2434c8.7478 9.7668 21.329 11.775 35.599 2.7384 7.7585-4.914 18.423-14.453 23.824-17.952 5.6441-3.6526 4.8075-5.0507 0.65549-2.8462-5.7049 3.0144-17.86 13.783-24.98 18.286-10.71 6.7852-23.672 8.6258-33.819-2.7254l-3.4543-4.1701c-6.344-7.8956-13.981-18.819-31.522-19.762-4.7467-0.25874-5.8727 1.5654-1.1255 1.8242"/>
   <path d="m35.416 277.81c-9.9039 2.7082-21.116 5.7812-31.354 5.7812-11.684 0-19.565-2.8462-21.618-7.7891-1.2334-2.967-0.08622-6.4812 3.0877-9.6758 0.08622-0.12945 11.167-11.41 14.012-19.671 0.21567-0.65548-2.1001-3.9847-2.07-3.5146 0.45711 5.6441-7.7283 15.548-13.159 20.979-4.7467 4.7467-6.3742 9.4779-4.8226 13.22 2.3287 5.6139 10.436 9.1131 22.85 9.1131 10.467 0 22.653-3.3637 32.724-6.3747 10.026-3.0144 20.447-5.7963 27.155-4.7161 0.38811 0.043-0.63824-1.5352-1.5654-1.8845-6.8611-0.4873-15.807 1.9622-25.239 4.5332"/>
   <path d="m142.06-10.709c-2.2985 0.21567-4.2305 3.3637-5.8114 7.6675-2.54 6.8917-5.3246 11.227-9.3563 14.042-0.38811 0.25873 1.6905 0.89698 2.0398 0.6253 3.7863-3.0273 6.6179-7.4239 9.0673-14.072 1.2937-3.5276 2.8764-5.5678 4.4116-5.72 1.4619-0.12944 3.2085 1.3369 4.9446 4.1701 7.0741 11.547 7.5455 27.293 0.77624 41.076-0.21567 0.43124 1.3239 1.6128 1.5352 1.1859 5.0964-10.361 8.3519-28.738-0.56492-43.297-2.1605-3.5146-4.8532-5.8873-7.0439-5.6747"/>
   <path d="m48.776-26.634c-16.598 13.281-25.056 41.092-16.902 61.203 5.9792 14.742 19.595 21.77 36.436 20.158 4.8071-0.45713 4.6398-2.1605-0.17245-1.7034-16.035 1.5352-28.494-5.6139-34.154-19.595-6.846-16.887-2.7858-43.252 15.837-58.161 6.3139-5.0356 9.2955-5.2487 10.695-4.5337 1.7336 0.89698 2.5098 3.9847 2.2511 8.9457-1.0048 19.184 5.8265 27.293 11.318 33.819 3.6958 4.3814 6.8917 8.1544 7.0439 14.331 0.12945 4.7769 1.5654 4.1701 1.5654-0.60806 0-6.5722-3.1351-10.36-6.8766-14.802-8.8388-10.467-12.064-16.294-11.197-32.648 0.30187-5.8416-0.45713-10.39-2.9066-11.638-2.7082-1.4015-7.2419 0.66843-12.962 5.2332"/>
   <path d="m28.293 53.494c-2.9368 6.2073 9.2648 22.288 28.51 27.826 4.0451 1.173 5.1723-0.21566 1.1255-1.4317-16.081-4.792-28.632-18.012-27.551-25.071 0.77624-5.1728 19.169-0.57787 33.256 13.92 3.105 3.1955 4.1831 2.0096 1.0824-1.2032-16.75-17.237-33.546-20.127-36.421-14.042"/>
   <path d="m105.08 55.594c-0.25875 0.43124 0.75898 1.7336 0.98755 1.3239 4.4422-7.7439 14.833-8.4438 22.363-5.1728 5.8421 2.54 11.547 8.1544 9.1588 15.883-0.12944 0.45712 1.173 0.80642 1.3067 0.345 2.0829-6.7244-0.25876-14.742-10.208-18.88-8.3217-3.4672-19.001-1.5525-23.611 6.4807"/>
   <path d="m139.33 80.582c4.1831 0.63822 7.0741 2.1735 7.1806 3.8036 0.21567 3.6526-9.0061 8.1544-26.593 9.3256-0.47005 0.0307-2.829 1.6129-2.3589 1.6129 18.804-0.38813 31.735-5.5833 31.385-11.091-0.17245-2.2986-3.3939-4.1227-7.759-5.0508-0.51749-0.0862-2.3287 1.3239-1.8543 1.4016"/>
   <path d="m131.89 132.14c-4.7467 3.5923-7.2415 10.148-7.6981 18.226-0.0303 0.47005 1.643 0.68567 1.7034 0.21566 0.98754-7.6977 3.3766-13.737 7.8348-16.841 5.5833-3.864 16.917-2.1907 20.842 4.1831 2.5271 4.0925 3.3464 10.193 1.5352 18.515-0.0862 0.47006 1.8716 0.75898 1.9794 0.30187 1.9794-9.1739 1.2161-15.563-1.4921-19.975-4.5794-7.4847-17.587-10.01-24.706-4.6402"/>
   <path d="m190.88 155.22c-4.8226 0.6986-9.7668 4.2434-13.874 9.9954-0.25876 0.38813 1.2334 1.5525 1.5223 1.173 4.3206-5.8114 8.8543-8.4584 13.008-8.9147 8.063-0.88406 15.746 7.2565 15.517 14.559-0.17245 6.3747-4.0322 12.886-7.7585 16.872-0.30187 0.345 0.95735 1.6431 1.2937 1.3239 3.9847-3.8941 8.3825-11.182 8.7172-18.15 0.38811-8.4282-8.078-18.362-18.423-16.856"/>
   <path d="m129.36 19.252c3.3766 6.2375 3.7561 13.403 0.17244 16.309-4.4267 3.6052-12.779-0.59511-17.404-9.9191-4.4578-8.9604-2.2511-16.354 3.4542-16.734 4.6704-0.30189 10.482 4.2736 13.768 10.345"/>
  </g>
  <path d="m125.83 20.56c1.8544 3.4974 2.0225 7.1656 0.17244 8.2307-2.0225 1.173-5.5984-1.2463-7.7434-5.4311-2.1002-4.1097-1.7336-7.7896 0.57786-8.2609 2.1131-0.43124 5.1572 2.0096 6.9982 5.4613" fill="#fff"/>
  <path d="m92.866 37.886c0 6.4661 3.5146 11.699 7.8499 11.699 4.3357 0 7.8504-5.2331 7.8504-11.699 0-6.4656-3.5146-11.699-7.8504-11.699-4.3357 0-7.8499 5.2332-7.8499 11.699" fill="#0f141b"/>
  <path d="m97.61 37.886c0 3.0273 1.656 5.4923 3.6829 5.4923 2.0398 0 3.6957-2.4667 3.6957-5.4923 0-3.0273-1.6603-5.4919-3.6957-5.4919-2.0226 0-3.6829 2.4667-3.6829 5.4919" fill="#fff"/>
  <path d="m140.56 52.536c-0.38811 5.4923 1.656 10.117 4.5337 10.315 2.8764 0.21567 5.507-4.1097 5.8873-9.5995 0.34498-5.5074-1.6603-10.117-4.5337-10.315-2.8764-0.21567-5.5221 4.1054-5.8873 9.5995" fill="#0f141b"/>
  <path d="m143.7 52.749c-0.17244 2.5874 0.77625 4.7467 2.1304 4.8532 1.3541 0.08622 2.5875-1.932 2.7686-4.5181 0.17244-2.5875-0.77623-4.7467-2.1303-4.8381-1.3541-0.08622-2.5875 1.919-2.7686 4.5031" fill="#fff"/>
  <path d="m197.03 216.14c0.72879-1.505-0.0109-4.4046-2.2469-7.2189-1.2463 3.2387-2.919 6.214-4.9113 8.8915 3.3465 0.38813 6.3677-0.042 7.1586-1.6722" fill="#d1889d"/>
 </g>
</svg>
