<?xml version="1.0" encoding="UTF-8"?>
<!-- Created with Inkscape (http://www.inkscape.org/) -->
<svg version="1.1" viewBox="0 0 343.5 295.25" xmlns="http://www.w3.org/2000/svg">
 <g transform="translate(57.762 -.0025061)">
  <path d="m64.928 49.274c2.1702 25.202 24.83 43.914 50.146 41.728 25.331-2.184 44.447-24.474 42.262-49.66-2.1702-25.202-25.105-43.347-50.437-41.162-25.315 2.184-44.14 23.891-41.971 49.093" fill="#0f141b"/>
  <path d="m68.411 48.712c-2.0234-23.389 15.458-44.059 38.977-46.083 23.502-2.0372 44.27 15.328 46.293 38.718 2.0097 23.373-15.474 44.059-38.977 46.082-23.502 2.0372-44.269-15.345-46.293-38.718" fill="#cf7240"/>
  <path d="m153.68 41.344c-0.82589-9.6633-4.8723-18.291-10.991-24.959-2.0877 29.848-34.59 48.866-61.799 54.597-1.0828 0.18354-2.2024 0.36707-3.3357 0.53224 8.6434 10.78 22.353 17.19 37.147 15.911 23.519-2.0234 41-22.694 38.977-46.083" fill="#aa5b31"/>
  <path d="m97.956 17.746c-0.50012-0.32118-0.468-1.0691 0.09178-2.2345 0.97271-2.0418 3.0925-3.1063 4.5149-2.964 0.79377 0.09178 1.2939 0.55059 1.4728 1.3765 0.22941 0.94059-0.13766 1.8628-1.1654 3.0925-0.46801 0.56436-3.689 1.5049-4.9044 0.72954" fill="#f5e7e6"/>
  <path d="m119.71 20.906c-1.8124-2.4777-1.5875-5.3091 0.63317-7.8019 1.2159-1.3765 2.574-1.7803 4.1432-1.2618 9.5661 3.1384 10.295 10.586 7.7858 11.719-5.1797 2.3492-10.327 0.36706-12.561-2.6566" fill="#f5e7e6"/>
  <path d="m32.063 206.23c-1.8445 0.74329-4.3038 2.8814-7.2678 5.0824-5.6491 4.2258-14.681 10.311-24.279 13.062-3.7211 1.0691-5.2444 3.4136-4.953 6.9117 0.04583 0.45883 0.09178 0.90848 0.22941 1.3581 1.5692 6.1831 8.9834 12.48 20.638 9.8739 16.883-3.7853 23.357-14.438 26.529-20.314l0.97272-1.7481c2.0372-3.5467 1.1471-9.21-1.3444-12.091-1.4912-1.7344-3.611-4.9209-10.537-2.1381" fill="#0f141b"/>
  <path d="m-0.38118 232.46c-0.63318-2.4593-0.83966-4.368 1.7481-5.0985 10.133-2.9136 18.145-8.9026 23.972-13.273 2.6704-1.9913 4.9695-3.7073 6.4424-4.29 3.8174-1.5371 6.8305-1.326 8.4814 0.59648 1.6518 1.895 1.8445 5.2609 0.45883 7.6725l-1.0048 1.8307c-3.1384 5.8271-7.1219 15.62-22.645 19.1-10.359 2.3171-16.381-2.4455-17.433-6.5392" fill="#5892bf"/>
  <path d="m40.271 210.39c-1.6655-1.9271-4.6777-2.1381-8.4979-0.59647-1.4728 0.58271-3.7716 2.2987-6.4259 4.29-2.2024 1.6518-4.7264 3.5467-7.5431 5.4064 5.8922 2.574 10.327 7.1058 13.71 12.318 4.3221-3.9964 6.3933-8.5947 8.19-11.913l1.0048-1.8307c1.3902-2.4134 1.1975-5.7789-0.45883-7.6725" fill="#46799e"/>
  <path d="m36.806 204.11" fill="#5892bf"/>
  <path d="m174.96 204.01c-3.6568 3.7394-4.29 12.965-1.1975 16.672l0.48635 1.4407c4.1432 5.2444 12.982 16.041 30.268 16.883 11.654 0.5506 18.453-5.115 19.213-11.217 0.53224-4.2396-1.4728-7.5426-5.8918-8.3034-22.386-3.8541-30.787-11.8-34.509-14.794-4.3864-3.5284-7.1224-1.9408-8.3685-0.67906" fill="#0f141b"/>
  <path d="m204.03 235.69c-15.895-0.76165-24.231-10.78-28.326-15.976l-0.72952-1.9408c-2.1519-2.5557-0.27531-9.0972 2.184-11.606 0.32117-0.32117 1.3581-1.3765 4.2396 0.94059 3.8863 3.1246 14.082 10.295 34.979 14.552 2.7988 0.56435 4.1937 3.1751 3.8679 5.795-0.468 3.8037-5.293 8.7728-16.219 8.2387" fill="#5892bf"/>
  <path d="m196.39 215.68c-7.9473-3.3036-12.642-6.6851-14.988-8.5787-2.8814-2.3125-3.9-1.2801-4.2396-0.9406-2.4593 2.5098-4.3359 9.048-2.184 11.606l0.72954 1.9408c0.98648 1.248 2.2161 2.7851 3.7394 4.3864 4.368-4.3222 10.489-7.0733 16.947-8.4167" fill="#46799e"/>
  <path d="m66.721 235.41c-1.6334 0.71118-1.973 1.8307-2.0372 2.4455-0.18354 1.6013-0.09178 3.7394-0.04583 6.2157 0.13765 5.1145 0.32117 12.836-2.2483 14.05-1.6334 0.76164-36.258 6.8627-45.128 13.078-16.801 11.735-0.13766 25.72 13.516 23.568 27.759-4.3864 47.653-14.762 51.537-20.379 4.8402-7.0251 0.72952-12.108-1.1975-14.26-1.6334-1.8445-1.4591-9.0641-0.27529-18.76 0.2294-1.7298-0.5506-3.3357-2.1198-4.5011-3.1384-2.3308-9.1293-2.7025-11.978-1.4591" fill="#0f141b"/>
  <path d="m75.927 238.8c1.3122 0.61481 1.9271 1.3581 1.8307 2.2024-1.326 11.007-1.0691 18.015 0.76165 20.816 1.7803 2.7025 4.2717 6.2804 0.18354 11.848-2.6566 3.5788-25.267 14.341-48.187 17.19-15.49 1.9271-20.556-10.23-11.379-17.19 8.174-6.2152 42.651-11.832 44.593-12.755 4.4047-2.0739 4.1937-9.9708 3.9964-16.931-0.04583-2.1702-0.09178-4.1937 0.03218-5.6004 0.77541-0.64695 5.115-1.0186 8.1905 0.41294" fill="#5892bf"/>
  <path d="m77.754 241.01c0.09178-0.85801-0.51848-1.5875-1.8307-2.2024-3.0741-1.4407-7.3972-1.0828-8.1905-0.41295-0.13765 1.3902-0.09178 3.4137-0.01609 5.6004 0.13765 5.5036 0.27529 11.589-1.8307 14.908 5.5036 1.6839 10.505 4.7264 15.005 8.6759-0.09178-2.3446-1.3444-4.1937-2.363-5.7624-1.8445-2.7988-2.106-9.7927-0.77541-20.8" fill="#46799e"/>
  <path d="m64.673 236.44" fill="#5892bf"/>
  <path d="m136.68 240.72c-1.5233 1.2297-2.2161 2.8631-1.9271 4.5791 0.468 2.8814 2.4914 5.8271 4.6617 8.9508 2.2161 3.2072 4.5011 6.5392 4.597 9.2587 0 0-0.0458 9.8739 3.1567 14.309 5.9891 8.2547 34.623 16.219 48.689 17.303 24.587 1.895 23.68-18.129 12.302-23.778-15.701-7.8184-42.959-11.055-44.82-11.833-4.3359-1.8445-11.88-13.467-12.609-18.387-0.0918-0.59647-0.48636-1.6976-2.1381-2.3492-2.8952-1.147-8.854-0.51846-11.913 1.9408" fill="#0f141b"/>
  <path d="m197.79 291.34c-23.47-0.63319-45.047-11.832-47.944-15.248-3.8679-4.597-2.753-12.674-2.753-12.674-0.0918-3.6431-2.6704-7.3325-5.1471-10.91-1.8628-2.7025-3.7853-5.5036-4.1432-7.6886-0.13764-0.83966 0.45883-1.6013 1.7298-2.2666 3.0282-1.5875 7.4458-1.3902 8.2066-0.76165 1.0186 6.0212 9.0967 18.323 14.406 20.573 2.106 0.89012 27.647 3.0741 43.638 11.055 6.1184 3.0741 13.37 18.501-7.996 17.918" fill="#5892bf"/>
  <path d="m156.36 257.45c-4.0606-4.7589-7.9313-11.622-8.6112-15.652-0.77541-0.62859-5.1797-0.83965-8.2066 0.7433-1.2939 0.6653-1.8766 1.4407-1.7481 2.2804 0.36706 2.184 2.2987 4.9696 4.1616 7.6725 2.4777 3.5788 5.0177 7.2839 5.1471 10.91 0 0-0.0458 0.468-0.0918 1.248 2.5419-3.1751 5.7138-5.6491 9.372-7.2031" fill="#46799e"/>
  <path d="m147.69 240.17" fill="#5892bf"/>
  <path d="m24.719 183.72c-6.2318 53.399 33.522 74.83 86.872 72.272 49.449-2.363 82.502-26.044 73.389-86.03-6.1671-40.466-41.308-78.439-86.872-74.506-44.803 3.8679-68.177 43.59-73.389 88.264" fill="#0f141b"/>
  <path d="m28.063 182.26c4.6777-42.133 27.743-79.556 69.974-83.198 42.214-3.6431 75.477 27.533 83.182 69.974 10.813 59.339-28.391 82.227-70.524 83.748-58.756 2.1198-87.649-25.364-82.631-70.524" fill="#5892bf"/>
  <path d="m143.75 147.58c-5.6491 0-10.537 12.933-35.529 13.823-19.666 0.71118-30.673-7.996-34.963-10.424-7.9799-4.547-34.445 10.295-43.299 19.149 7.4619-36.953 29.961-67.772 68.08-71.058 37.924-3.2852 68.63 21.56 80.057 57.396 0.046 0.18353-19.893-8.8861-34.347-8.8861" fill="#46799e"/>
  <path d="m62.32 197.09c-1.6839 3.5605-0.858 7.1705 2.964 10.521 12.738 11.184 60.942 10.715 75.493 5.3251 8.1098-3.0099 10.068-7.7372 9.194-11.589-1.0186-4.5791-5.8592-6.8145-11.282-6.2639-16.98 1.7481-35.821 2.8493-57.251-1.716l-6.6686-1.1471c-5.2444-0.83965-10.489 0.71118-12.448 4.8723" fill="#0f141b"/>
  <path d="m67.326 205.86c-1.9408-1.716-3.9826-4.3543-2.6199-7.2513 1.3765-2.9319 5.6812-4.8076 9.5661-4.1753l6.6204 1.1471c6.976 1.248 14.891 2.6566 21.738 2.8814 15.053 0.50012 30.414-0.63318 36.338-1.1333 4.4185-0.36706 7.4298 2.184 8.0125 4.7911 0.7433 3.2852-2.0555 6.5392-7.2839 8.4814-13.662 5.0829-60.57 5.617-72.369-4.7424" fill="#b6aed1"/>
  <g fill="#0f141b">
   <path d="m39.664 174.18c-3.3678-0.0458-4.4047 1.6334-0.71118 2.4455 17.708 3.8358 38.41-9.2747 45.111-18.21 2.2482-2.9961 0.6653-5.1632-2.363-1.9913-10.246 10.731-25.04 17.983-42.036 17.757"/>
   <path d="m164.83 176.77c3.3678-0.046 4.4047 1.6334 0.71118 2.4455-17.708 3.8358-37.18-5.0338-45.111-18.21-1.9271-3.2072-0.45883-5.3412 2.363-1.9913 11.67 13.872 25.04 17.983 42.036 17.757"/>
   <path d="m71.656 202c20.298 8.2712 52.039 6.0859 65.231 2.7208 2.7346-0.71118 5.8597-3.1246-0.77541-1.8628-21.997 4.1616-52.12 1.4407-63.467-2.5419-3.4825-1.2159-3.3678 0.71118-0.98647 1.6839"/>
   <path d="m244.7 162.83c5.6651-22.159-2.6566-44.658-21.884-60.052-17.125-13.71-39.721-15.005-51.764-8.87l0.0458-3.5284-0.18354 0.18354c-4.5148 4.8723-19.003 21.204-16.122 27.485 0.55058 1.1975 0.46801 3.8863 3.8358 3.7532 39.511-1.5233 72.483 18.145 83.198 40.466 0.82589 2.184 2.2024 3.0604 2.8814 0.5506"/>
  </g>
  <path d="m221.42 106.16c8.2873 6.6365 20.281 19.31 21.9 37.973 0.36706 4.3038 0.18352 8.9508-0.7433 13.888-12.706-21.852-43.995-42.068-82.631-40.579-0.74329 0.0321-2.0555-0.0165-2.3446-0.66531-0.0918-0.18352-0.13765-0.36706-0.13765-0.5827-0.32118-3.689 7.4784-14.568 15.49-23.276 10.942-5.3577 32.6 0.53224 48.478 13.24" fill="#ef8200"/>
  <path d="m221.42 106.16c-15.879-12.706-37.536-18.598-48.478-13.24-8.012 8.7081-15.814 19.585-15.49 23.276 0.0165 0.22941 0.0458 0.41294 0.13765 0.5827 0.27529 0.64695 1.6013 0.69742 2.3446 0.6653 24.166-0.92224 45.451 6.636 61.12 17.773 6.2804-1.8445 12.852-3.1246 19.423-3.6247-4.4047-11.913-12.787-20.411-19.067-25.429" fill="#cf7100"/>
  <path d="m252.05 39.033c9.6308 10.359 13.678 29.411 6.5071 41.243-10.553 17.4-39.333 23.162-56.07 20.621-7.5913-1.1471-12.48-3.8863-13.37-7.5105l-0.61483-2.4593-1.9087 1.6655c-0.87176 0.77541-21.674 19.1-21.399 30.269 0.0459 2.3951 1.0048 4.3543 2.831 5.8106l0.0918 0.0458 0.0918 0.046c42.311 25.089 92.505 10.052 110.71-20.605 17.805-29.993-2.3951-60.132-24.83-71.382-6.6686-3.3494-5.9726-2.0051-2.0372 2.2345" fill="#0f141b"/>
  <path d="m261.19 81.873c2.7025-4.469 4.8071-10.57 4.1294-18.404-0.5506-6.3286-2.964-13.807-8.2391-22.45 17.093 11.962 24.49 25.558 25.591 38.394 0.82589 9.5982-1.7986 18.76-6.3777 26.465-17.675 29.767-64.616 44.998-106.39 20.33-0.97271-0.79377-1.505-1.7802-1.6197-3.0604 0-0.0918-0.0165-0.22941-0.0165-0.36706-0.18354-7.4619 12.35-20.508 18.793-26.449 2.2024 3.7853 7.3646 6.4584 14.972 7.6078 17.578 2.6704 47.928-3.5284 59.161-22.078" fill="#ef8200"/>
  <path d="m202.03 103.95c-7.6078-1.1471-12.771-3.822-14.956-7.5913-6.458 5.9239-18.97 18.97-18.792 26.432 0 0.0918 0 0.22941 0.0161 0.36706 0.0918 1.2801 0.64695 2.2666 1.6013 3.0604 15.215 8.9834 31.094 12.658 46.001 12.286 1.1516-12.334 3.8037-24.344 8.692-35.303-8.174 1.5233-16.203 1.7298-22.564 0.76166" fill="#cf7100"/>
  <path d="m25.7 205.71c-3.221-18.938 1.7344-66.656 49.384-77.856 11.622-2.7346 17.044-6.0212 17.044-10.327-0.01609-10.084-33.959-17.579-40.936-19.213l-0.85801-0.04583-0.56436 0.04583c-17.708 2.7025-41.809 22.353-49.028 48.284-4.4369 15.911-3.8037 38.232 22.839 60.424 2.9457 2.7025 2.6566 1.3581 2.1198-1.2939" fill="#0f141b"/>
  <path d="m2.1974 165.44c-0.58271-6.8306 0.32117-13.127 1.8124-18.485 6.7659-24.296 29.573-44.011 45.969-46.681 16.154 3.8037 38.572 11.508 39.042 17.077 0.01609 0.0458 0.01609 0.0918 0.01609 0.18352 0 1.1654-1.4224 4.2074-14.665 7.316-45.695 10.748-53.885 55.762-52.056 76.95 0.03263 0.32118 0.09178 0.53224 0.13764 0.858-13.904-12.723-19.262-25.72-20.249-37.213" fill="#ef8200"/>
  <path d="m89.028 117.35c-0.48635-5.5683-22.904-13.273-39.058-17.077-9.388 1.5371-20.897 8.6759-30.269 19.051 10.958 2.9457 21.9 8.7246 29.977 16.753 6.6525-4.953 14.794-8.9021 24.7-11.233 13.224-3.1062 14.665-6.151 14.648-7.3164v-0.18353" fill="#cf7100"/>
  <path d="m208.96 206.22c16.979-20.071 18.226-54.581 4.3221-78.714-11.946-20.718-30.608-29.281-48.252-26.125l-0.89012-2.4593-0.27529 0.18354c-4.3359 2.9961-25.931 18.339-24.085 26.093 0.51847 2.1702 2.4914 2.6704 5.8592 3.1246 48.268 6.5878 61.573 57.17 60.877 76.837-0.0918 2.4272 0.60107 2.8952 2.4456 1.0507" fill="#0f141b"/>
  <path d="m210.49 129.31c4.9044 8.4979 8.7406 19.31 9.7441 30.835 1.1471 13.402-1.6197 27.76-10.974 40.596-0.0458-0.87177-0.0918-1.7298-0.18354-2.6887-1.9271-22.273-15.927-66.057-63.645-72.58-1.115-0.13765-2.4134 0.0918-2.6704-0.97272-0.0161-0.0918-0.0321-0.18352-0.0458-0.27529-0.36707-4.368 12.755-15.523 22.612-22.37 16.235-2.7346 33.927 7.996 45.144 27.452" fill="#ef8200"/>
  <path d="m165.33 101.86c-9.8414 6.8305-22.968 17.999-22.596 22.354 0 0.0918 0.0165 0.18353 0.0458 0.27529 0.22941 1.0691 1.5371 0.83966 2.6566 0.98648 11.541 1.5692 21.091 5.3416 28.99 10.44 9.89-6.1666 19.974-12.642 30.851-14.39-11.055-14.438-26.028-22.013-39.948-19.666" fill="#cf7100"/>
  <path d="m-9.7802 180.16c-1.4591 13.144-7.6725 19.65-17.401 19.747-12.836 0.13764-25.526-14.244-26.837-49.223l1.895 0.97271c1.6013 16.429 11.12 30.754 21.237 33.959 6.1992 1.973 13.111 1.1471 18.954-7.3325 1.9592-2.7025 2.2161-1.5371 2.1519 1.8766" fill="#0f141b"/>
  <path d="m-26.693 197.4c-8.4006 0.0918-18.663-6.9439-21.69-26.756 4.3221 8.87 10.602 15.62 17.433 17.773 4.5011 1.4407 11.104 1.4224 18.258-5.0342-1.4086 8.5626-7.0733 13.937-14.001 14.018" fill="#cf7100"/>
  <path d="m-53.71 115.59c-10.343 30.884 0.83965 70.896 14.212 78.763l0.72952-1.0828-2.5557-3.5605c-9.2421-25.137-3.9826-48.753 13.467-63.451 19.569-16.478 52.8-22.79 72.126-11.622l4.5791 0.36706-1.4591-3.9964c-1.4912-4.079-14.988-35.675-28.585-38.103-48.397-5.5518-66.348 24.231-72.515 42.667" fill="#0f141b"/>
  <path d="m-54.706 154.23c-1.0369-12.01 0.09178-25.639 4.29-38.167 5.8753-17.562 22.628-46.212 68.776-40.919 8.9347 1.5875 19.747 24.279 24.684 36.581-20.961-9.4853-53.253-4.3543-72.887 12.172-13.645 11.493-19.877 27.08-18.323 45.063 0.41295 4.6777 1.3581 9.5174 2.8172 14.503-4.8076-5.9891-8.2713-16.704-9.3559-29.233" fill="#ef8200"/>
  <path d="m43.041 111.72c-4.937-12.286-15.749-34.979-24.684-36.581-5.7298-0.64695-11.006-0.79377-15.863-0.48636 7.3811 9.0641 11.525 21.042 11.298 32.551 10.537-0.71118 20.816 0.69742 29.249 4.5148" fill="#cf7100"/>
  <path d="m11.252 79.026c2.363 27.387 26.578 46.067 53.965 43.703 27.387-2.363 47.75-21.253 45.387-48.64-2.363-27.387-26.578-50-53.965-47.636-27.387 2.3813-47.75 25.186-45.387 52.573" fill="#0f141b"/>
  <path d="m14.703 78.348c-2.1519-25.008 16.429-47.119 41.437-49.272 25.008-2.1702 47.119 16.429 49.288 41.438 2.1519 25.008-16.429 47.118-41.453 49.271-25.008 2.1702-47.103-16.429-49.271-41.437" fill="#cf7240"/>
  <path d="m27.196 105.89c9.21 9.5986 22.515 15.134 36.791 13.888 16.3-1.4086 29.88-11.298 36.759-24.943-18.743 17.352-49.644 21.042-73.551 11.055" fill="#aa5b31"/>
  <path d="m111.11 81.42c2.2804 26.335 25.558 45.079 51.91 42.813 26.335-2.2804 45.921-24.717 43.638-51.068-2.2666-26.351-25.558-45.645-51.894-43.363-26.351 2.2666-45.937 25.267-43.655 51.618" fill="#0f141b"/>
  <path d="m114 80.914c-2.1198-24.506 16.105-46.179 40.612-48.284 24.506-2.1198 46.163 16.09 48.284 40.612 2.1198 24.506-16.09 46.164-40.612 48.284-24.506 2.1198-46.164-16.105-48.284-40.612" fill="#cf7240"/>
  <path d="m193.57 80.246c-20.54 19.067-45.241 28.359-71.495 22.628 8.87 12.464 23.907 20.055 40.223 18.647 22.37-1.9271 39.495-20.168 40.693-41.971-3.689-1.3581-7.4784-1.248-9.4206 0.69741" fill="#aa5b31"/>
  <path d="m87.534 40.943c-4.1615 3.9505-6.5392 9.032-6.6851 14.309-0.13765 5.2765 2.7988 10.472 6.7337 14.648 5.115 5.3898 12.771 8.5947 21.01 8.8214 15.167 0.41295 27.792-9.4527 28.132-21.981 0.13764-5.2765-1.9408-10.473-5.8918-14.648-5.0985-5.3903-12.755-8.6113-21.01-8.8379-8.2387-0.22941-16.899 2.5924-22.288 7.6885" fill="#0f141b"/>
  <path d="m108.03 74.557c-7.4293-0.22941-14.309-3.0741-18.841-7.8666-3.432-3.6247-5.1797-7.9152-5.0503-12.447 0.09178-4.5149 2.0876-8.7081 5.7138-12.14 4.7911-4.547 11.816-7.0411 19.245-6.8466 7.4298 0.22941 14.293 3.0741 18.841 7.8826 3.432 3.611 5.1797 7.9152 5.0498 12.431-0.27529 10.829-11.492 19.343-24.959 18.987" fill="#ef8200"/>
  <path d="m127.94 43.131c-0.6653-0.71119-1.4086-1.3581-2.1702-1.973 5.3738 20.541-13.467 30.997-30.333 30.188 3.7211 1.9592 8.0446 3.0925 12.593 3.2072 13.467 0.36707 24.668-8.1419 24.96-18.97 0.13765-4.5148-1.6196-8.8219-5.0503-12.447" fill="#cf7100"/>
  <path d="m53.842 102.78c2.4272 28.019 28.019 48.284 56.037 45.872 28.035-2.4272 48.575-26.627 46.163-54.645-2.4272-28.018-26.627-48.85-54.645-46.438-28.019 2.4272-49.984 27.193-47.555 55.211" fill="#0f141b"/>
  <path d="m57.173 102.08c-2.2666-26.319 17.287-49.595 43.622-51.861 26.319-2.2804 49.578 17.287 51.861 43.606 2.2666 26.335-17.303 49.595-43.622 51.861-26.319 2.2804-49.595-17.287-51.861-43.606" fill="#cf7240"/>
  <path d="m149.42 80.209c-1.4912-0.18352-4.4827-2.3813-11.152 13.92-11.929 29.087-34.332 44.804-66.477 38.41 9.6147 9.194 22.984 14.39 37.245 13.16 26.319-2.2804 45.888-25.542 43.622-51.861-0.41293-4.8076-1.5371-9.372-3.2393-13.629" fill="#aa5b31"/>
  <g fill="#f5e7e6">
   <path d="m117.59 71.419c0.32118-3.221 2.7208-6.5878 8.4819-6.4259 4.9852 0.13766 8.0281 5.9079 9.1128 10.812 0.69741 3.1062 0.468 5.5197-0.67906 6.9604-4.1937 5.2765-17.983-0.79377-16.915-11.347"/>
   <path d="m67.678 48.032c0.27529 1.2618-0.32118 2.831-1.7481 4.5653-2.2161 2.7346-5.9244 5.3903-9.0806 3.9321-3.6752-1.6977-4.1111-4.5653-3.3173-6.6851 2.6199-6.9278 12.982-7.3811 14.147-1.8124"/>
   <path d="m82.893 94.571c-0.59647-0.97271-0.90848-3.3494-0.04595-5.0338 0.53224-1.0828 1.4407-1.6977 2.7208-1.8307 4.3038-0.45882 5.2279 4.469 5.2279 4.469 2.4777 7.1545-3.611 9.388-7.8826 2.3951"/>
   <path d="m26.256 67.388c-0.60107-0.97271-0.90848-3.3494-0.04583-5.0338 0.53223-1.0828 1.4407-1.6977 2.7208-1.8307 4.3038-0.45883 4.6452 1.4591 4.9691 3.2852 0.79377 6.458-3.9964 9.5014-7.6239 3.5788"/>
   <path d="m112.76 109.02c-0.76165-0.50013-1.2296-1.3122-1.248-2.1198-0.0165-0.83966 0.45882-1.6334 1.3444-2.2987 0.41295-0.32118 0.83966-0.41295 1.2801-0.2753 1.0048 0.2753 1.8766 1.6518 2.0418 2.0097 0.82588 1.8766 0.59647 2.2804 0.51847 2.363-0.53224 0.50012-2.574 1.248-3.9321 0.32118"/>
   <path d="m147.5 60.056c-0.76165-0.50012-1.2296-1.3122-1.248-2.1198-0.0165-0.83965 0.45883-1.6334 1.3444-2.2987 0.45883-0.32118 0.83966-0.41295 1.2801-0.27529 1.0048 0.27529 1.8766 1.6518 2.0372 2.0097 0.82589 1.8766 0.59647 2.2804 0.51848 2.363-0.53224 0.50012-2.574 1.248-3.9322 0.32118"/>
   <path d="m49.489 88.676c-0.76165-0.50012-1.2297-1.3122-1.248-2.1198-0.01654-0.83965 0.45883-1.6334 1.3444-2.2987 0.45883-0.32118 0.83966-0.41294 1.2801-0.27529 1.0048 0.27529 1.8766 1.6518 2.0372 2.0051 0.82589 1.8766 0.59647 2.2804 0.51848 2.363-0.53224 0.50012-2.574 1.248-3.9321 0.32118"/>
   <path d="m91.985 65.815c-0.53224-0.36706-0.858-0.92224-0.87176-1.4912-0.01609-0.58271 0.32117-1.1471 0.94059-1.6013 0.32117-0.22941 0.59647-0.2753 0.89012-0.22941 0.71118 0.18352 1.326 1.1471 1.4269 1.4086 0.59648 1.3122 0.45883 1.6013 0.36707 1.6518-0.36707 0.36706-1.7986 0.87176-2.753 0.22941"/>
   <path d="m173.65 80.636c-0.46801-0.32118-0.77543-0.83966-0.79377-1.3581-0.0161-0.53224 0.27529-1.037 0.858-1.4545 0.27529-0.18352 0.53224-0.27529 0.80753-0.18352 0.64695 0.18352 1.1975 1.0369 1.2939 1.2801 0.53223 1.1792 0.36705 1.4545 0.32118 1.5049-0.32118 0.32118-1.6334 0.79377-2.5098 0.22941"/>
   <path d="m89.419 27.744c-0.41295-0.27529-0.6653-0.71118-0.67906-1.1471 0-0.45883 0.27529-0.89012 0.7433-1.2296 0.22941-0.18354 0.45883-0.22941 0.67906-0.18354 0.53224 0.13765 1.0186 0.89012 1.1012 1.0828 0.45883 1.0048 0.32118 1.2296 0.2753 1.2801-0.2753 0.2753-1.3765 0.6653-2.1198 0.18354"/>
  </g>
  <path d="m136.64 203.78c-1.7481 0.63317-4.8558 0.72953-7.8666 0.80753-5.3091 0.18353-11.201-0.27529-11.589 2.363-0.13764 1.0828 1.7986 2.3951 3.4641 3.3816 1.7619 1.0507 4.775 2.5098 4.4827 4.0331-1.0507 5.7138-0.18353 10.57 3.51 11.557 0.87177 0.22941 2.0234-0.45883 2.6887-1.8628 0.32118 0.67906 0.61483 1.6334 0.858 3.2714 0.6653 4.5148 2.106 6.4424 4.0973 5.8597 3.2531-0.95435 2.6887-5.2444 2.2161-8.1579-0.22941-1.3765-0.45882-2.7851-0.22941-3.4458 0.32117-0.98647 0.72953-1.2939 1.1975-1.6518 0.92224-0.71117 1.5692-1.4086 1.4224-3.9184l-0.27529-2.2482c-0.22941-1.4591-0.51848-3.1246-0.18353-4.0147 0.95436-0.92224 1.895-6.2639-0.59648-7.1705-0.95435-0.32118-1.7986 0.69741-3.1888 1.1975" fill="#0f141b"/>
  <path d="m139.25 203.42c0.45882 0.22941 0.90847 1.6655 0.77541 2.8631-0.0918 0.89013-0.83965 2.184-1.0691 3.0099-0.22942 0.6653-0.27529 1.505-0.18354 2.4272 0.046 0.74329 0.18354 1.5233 0.32118 2.2987l0.2753 2.0877c0.0918 1.8766 0.0458 2.2804-0.53224 2.7208-0.53223 0.41295-1.5371 0.82589-2.0234 2.2804-0.18353 0.5506-0.18353 1.248-0.13764 2.0234 0.0458 0.64694 0.18352 1.3765 0.27529 2.1381 0.13764 0.85801 0.27529 1.6655 0.32118 2.3813 0.18352 1.973-0.0918 3.3173-1.3902 3.7211-1.3444-0.36706-1.6656-3.432-2.1381-4.9696-0.92224-2.9594-1.3765-4.2717-2.4272-4.3221-0.83966-0.0161-1.1975 0.90847-1.3122 1.2159-0.36706 0.9406-0.79377 0.82589-0.94059 0.77542-0.98649-0.27529-2.753-2.106-3.0283-5.3091-0.0918-1.147 0.32118-2.6887 0.58271-4.1111 0.0458-0.2753 0.0458-0.5506 0.0458-0.80754-0.18353-2.1519-2.753-3.6752-4.6782-4.8236-0.7433-0.45883-2.6566-1.5875-2.8814-1.9087 0.41294-1.2618 6.1184-1.4086 9.6473-1.5233 3.1384-0.0918 6.1506-0.82589 8.1254-1.5233 0 0 1.8766-0.87177 2.3308-0.64695" fill="#fff"/>
  <path d="m180.93 45.742c2.7025 0 4.8558 6.9765 4.2074 10.035-0.27529 1.248-1.0828 1.9913-2.4777 2.2804-2.5419 0.51848-4.5332-0.45883-5.4871-2.6382-1.9087-4.3864 1.5875-9.6794 3.7532-9.6794" fill="#f5e7e6"/>
  <path d="m71.656 202c20.298 8.2712 52.039 6.0859 65.231 2.7208 2.7346-0.71118 5.8597-3.1246-0.77541-1.8628-21.997 4.1616-52.12 1.4407-63.467-2.5419-3.4825-1.2159-3.3678 0.71118-0.98647 1.6839" fill="#0f141b"/>
 </g>
</svg>
