<?xml version="1.0" encoding="UTF-8"?>
<!-- Created with Inkscape (http://www.inkscape.org/) -->
<svg version="1.1" viewBox="0 0 231.99 345.28" xmlns="http://www.w3.org/2000/svg">
 <path d="m139.87 226.31c54.476-1.0437 69.559-44.43 74.951-40.92 5.394 3.5106 17.766 36.282 15.893 56.748-12.372-10.155-22.684-17.809-22.684-17.809s-25.62 32.772-67.754 20.212z" fill="#00a4e3"/>
 <path d="m221.35 196.16c-12.09 12.133-36.643 31.024-44.632 21.429-9.6778 4.8958-21.747 8.4396-36.845 8.729l0.40343 18.231c42.136 12.56 67.757-20.212 67.757-20.212s10.311 7.6545 22.684 17.809c1.2832-14.007-4.1083-33.778-9.3671-45.986" fill="#008fc5"/>
 <path d="m54.125 249.08c-0.46253 8.0625-1.8739 30.556-20.06 53.24-8.1313 10.145-18.933 8.4349-23.056 9.1868-4.1249 0.74957-9.1062 1.0745-10.124 5.8114-1.02 4.7536 1.2358 9.8795 7.3129 9.4739 1.8288 1.0816 5.4533 1.658 7.6996 0.40342 1.0484 0.92506 3.0148 2.5902 10.129 0 11.267-4.0988 19.481-3.392 23.13-5.4177 3.6458-2.0258 4.1416-5.6146 6.8504-13.217 6.3665-17.864 15.148-27.625 15.553-32.485 0.40565-4.8627-7.0449-11.677-2.5879-27.477z" fill="#686d70"/>
 <path d="m113.54 251.03c2.0258 4.8626 10.534 11.749 17.42 24.714 6.8884 12.965 16.208 38.894 14.586 44.565-1.62 5.6738-3.2402 13.774 0 18.231 3.2426 4.457 10.94 4.457 13.371 3.6482 2.8346 2.0233 19.851 4.0514 19.446-1.2169 6.3024 0.57622 12.282-1.6865 10.257-8.9781-2.0258-7.2916-11.065-16.547-16.334-24.648-5.2659-8.1028-11.687-28.984-17.358-34.252-5.6715-5.2658-14.716-10.902-21.142-25.134z" fill="#686d70"/>
 <g fill="#515457">
  <path d="m68.971 248.6-14.846 0.48143c-0.29886 5.2469-1.0081 16.604-6.4709 30.146 5.0595-2.2036 8.4325 10.522 6.7365 17.306-2.6163 7.8466-4.9623 15.776-12.154 19.045-5.2303 2.614-24.882 8.5417-29.456 6.1032-1.9877 0.44108-4.0846 0.84922-7.5264-0.47941-2.6401 0.13515-3.577-1.0105-4.5733-2.3601-0.28462 4.2577 2.0874 8.3139 7.5169 7.951 1.8288 1.0816 5.4533 1.658 7.6996 0.40544 1.0484 0.92514 3.0148 2.5879 10.129 0 11.267-4.1012 19.481-3.3943 23.13-5.4176 3.6458-2.0257 4.1415-5.6146 6.8504-13.219 6.3665-17.864 15.148-27.622 15.553-32.485 0.40558-4.8627-7.0449-11.677-2.5879-27.477"/>
  <path d="m142.33 270.92c4.2673 1.5252 9.4501 5.6383 13.411 11.127 3.9636 5.4864 10.129 19.069 17.534 26.773-0.34358-0.49824-0.67837-0.99149-0.99627-1.4802-5.2658-8.1028-11.687-28.984-17.358-34.252-5.6716-5.2658-14.716-10.902-21.144-25.134l-20.243 3.0694c1.9569 4.6966 9.9625 11.286 16.713 23.417 1.1694-3.8474 7.8158-5.0429 12.083-3.5201"/>
  <path d="m187.53 329.15c-1.9118 2.2842-4.0467 6.0937-9.9909 3.8071-2.1325 3.66-13.563 4.5732-20.727 0.91558-1.5252 1.8288-8.3827 4.2673-12.887 0.58564 0.27299 1.5323 0.78036 2.9318 1.6177 4.0822 3.2402 4.457 10.937 4.457 13.369 3.6458 2.8369 2.0257 19.851 4.0514 19.448-1.2145 6.3001 0.57623 12.28-1.6865 10.254-8.9804-0.25416-0.918-0.62868-1.8668-1.084-2.8417"/>
 </g>
 <path d="m73.933 95.149-8.4041-9.9743c-8.091 21.493-25.523 35.307-19.451 44.786 4.6586 7.2726 14.768 4.0182 18.03 1.9522z" fill="#686d70"/>
 <path d="m73.933 95.149-8.3732-10.665c-1.3378 4.2862-3.3635 8.5298-6.8148 13.684 4.7227 11.715 3.1121 22.778 0.61906 35.803 2.0091-0.5453 3.7051-1.3995 4.744-2.0589z" fill="#515457"/>
 <path d="m71.612 94.641c-3.7264 19.254-11.711 27.94-7.6592 36.854 4.0514 8.9116 22.567 19.047 24.465-26.726z" fill="#686d70"/>
 <path d="m88.418 104.77-10.956-7.4173-5.8494-2.7113c-0.42218 2.1799-0.89899 4.2175-1.4066 6.1412 10.857 11.02 8.9639 25.381 5.4438 38.232 5.8399-1.0674 11.741-9.4573 12.769-34.245" fill="#515457"/>
 <path d="m133 82.884-15.01 13.826c0 8.1028 3.6482 35.203 10.537 37.229 6.8884 2.0257 19.854 3.6458 22.283-10.534z" fill="#686d70"/>
 <path d="m133 82.884-15.01 13.826c0 2.5618 0.36511 7.0188 1.0817 11.983 9.0184-2.576 16.099 4.023 22.956 12.251 2.8963 3.4774 4.7251 8.3851 5.3892 10.2 1.5917-1.8004 2.8038-4.3028 3.392-7.7399z" fill="#515457"/>
 <path d="m133.93 85.323c3.2402 6.0771 9.5854 21.066 12.828 31.6 4.7132 15.326 17.444 15.7 18.962 15.148 4.4547-1.6201 14.258-8.665 7.3722-26.087-6.8883-17.42-34.034-44.16-44.162-49.831z" fill="#686d70"/>
 <path d="m174.03 124.37c1.8597-4.1795 2.3175-10.15-0.93933-18.39-6.8859-17.42-34.031-44.16-44.16-49.831l5.0002 29.171c1.5964 2.9958 3.9494 8.1597 6.312 13.886 13.955 0.8895 25.945 12.826 33.787 25.165" fill="#515457"/>
 <path d="m72.212 135.16c-0.81124 2.4313-15.8 17.826-22.688 22.688-6.8883 4.8626-28.844 21.685-38.085 33.222-4.8626 6.0724-8.1004 5.6715-8.5061 9.7229-0.40557 4.0514 0.40565 11.343 6.886 10.94 2.8773 5.2943 7.8537 4.9433 11.5 2.1064 3.6458 2.0257 6.4519 0.18961 10.124-2.0613 3.494-2.1443 4.6871-6.9358 4.6871-14.623 1.6201-4.0514 16.232-24.721 21.903-27.964 5.6715-3.2402 13.369-14.989 19.043-25.117z" fill="#00a4e3"/>
 <path d="m72.212 135.16c-0.43175 1.2951-4.884 6.2669-9.9933 11.364 1.2263 5.4959 2.0352 11.087 2.2605 16.666 4.31-5.1781 8.8856-12.493 12.595-19.116z" fill="#008fc5"/>
 <path d="m32.43 192.66c4.2151-10.567 10.29-27.608 10.29-27.608s-1.7268 0.16876-3.6576 0.676c-9.2888 7.3058-21.367 17.532-27.622 25.343-4.865 6.0724-8.1028 5.6715-8.5084 9.7229-0.40323 4.0514 0.40557 11.343 6.8883 10.94 2.8749 5.2943 7.8537 4.9433 11.5 2.1064 3.6458 2.0257 6.4519 0.18961 10.124-2.0613 3.4916-2.1443 4.6847-6.9358 4.6847-14.623 0.34392-0.85869 1.6984-3.4228 1.6984-3.4228l-0.16843-4.049s-3.5438 1.6888-5.2279 2.9768" fill="#686d70"/>
 <path d="m17.658 206.15c-3.9636 2.4384-8.9923 0.91559-8.8405-1.9806-0.10679 0.34426-4.2673 1.371-5.885-3.3778-0.40565 4.0514 0.40323 11.345 6.886 10.94 2.8773 5.2943 7.8537 4.9433 11.5 2.1064 3.6458 2.028 6.4519 0.19231 10.124-2.0613 3.494-2.1444 4.6871-6.9358 4.6871-14.621 0.34392-0.86097 1.696-3.4228 1.696-3.4228l-0.16844-4.0514s-5.9775 9.0018-9.3291 12.05c-3.354 3.048-6.2503 6.3998-10.669 4.4191" fill="#515457"/>
 <path d="m31.292 179.32c-3.4133-4.2862-15.221-14.41-16.206-13.774-1.9854 1.2785-0.32974 22.797 1.6201 25.523 3.9874 1.0816 15.971-7.3509 14.586-11.749" fill="#fff"/>
 <path d="m86.52 116.59c-6.4827-1.2145-13.665 2.2771-15.942 10.56-1.7482 6.3594 1.2216 17.736 10.954 18.136z" fill="#686d70"/>
 <path d="m70.237 133.09c0.69263 5.7688 4.1914 11.905 11.293 12.199l1.454-8.3638c-4.3598-0.87524-8.7124-2.0162-12.747-3.8355" fill="#515457"/>
 <path d="m88.013 245.5c-5.6715 2.0257-35.281 5.56-47.436 1.5086-1.2145-4.8627-5.2137-34.088-2.3981-39.997 5.496-11.528 19.043-19.043 24.308-24.308 5.2683-5.2682 18.409-21.903 19.043-36.285-5.0761-6.9785-3.354-21.054 5.1971-29.47 0.41284-1.658-3.0386-7.1018-3.0386-7.1018l15.99 0.99862s14.393-7.9415 13.988-6.7246c-0.40343 1.2145-3.1026 7.4433-1.8881 7.4433 1.2169 0 4.7085 1.1789 4.7085 1.1789l-0.9227 1.8952s4.8602 18.231-3.6482 29.98-14.586 16.206-10.534 24.308c4.0514 8.1028 12.965 15.8 22.285 27.145 9.3173 11.343 12.963 15.394 15.8 23.903 2.8369 8.5084 4.8626 23.094 4.8626 23.094-1.6224 0.91088-34.686 13.127-52.671 10.128-2.4313-5.2658-3.6458-7.6972-3.6458-7.6972" fill="#00a4e3"/>
 <path d="m77.862 209.96c-2.7444-2.2866-4.7251 8.9924-4.2673 18.594 0.21113 4.4475 2.2866 8.6887 0.53132 19.6 6.4899-0.69974 11.803-1.6462 13.888-2.391 0 0 1.2145 2.4313 3.6458 7.6972 0.37722 0.54799 2.4384 1.001 5.8637 1.0057-6.2479-17.377-16.917-42.22-19.662-44.506" fill="#008fc5"/>
 <path d="m139.47 220.24c-2.8369-8.5084-6.4827-12.56-15.8-23.903-9.3196-11.345-18.231-19.043-22.283-27.145-4.0514-8.1028 2.0257-12.56 10.532-24.308 8.5085-11.751 3.6482-29.982 3.6482-29.982l0.92272-1.8952s-3.4916-1.1765-4.7061-1.1765c-1.2169 0 1.2785-6.1483 1.6817-7.3628 0.40544-1.2168-13.784 6.6417-13.784 6.6417l-16.659-1.5489s4.1202 5.9964 3.7074 7.6545c-8.5488 8.4135-10.271 22.489-5.1948 29.468-0.40074 9.0801-5.7853 19.052-11.025 26.5 28.085 15.136 50.946 25.502 62.358 75.233 7.0544-2.6021 11.464-5.0809 11.464-5.0809s-2.0257-14.586-4.8626-23.094" fill="#008fc5"/>
 <path d="m101.43 195.75c3.5533-2.3696 10.435-6.357 13.366-9.5355-5.764-6.3119-10.691-11.583-13.414-17.029-4.0514-8.1028 2.0257-12.56 10.534-24.311 8.5084-11.749 3.6457-29.98 3.6457-29.98l0.92514-1.8952s-3.494-1.1765-4.7085-1.1765c-1.2144 0 1.3592-6.0273 1.7648-7.2418 0.40544-1.2145-13.867 6.5206-13.867 6.5206l-16.659-1.5489s4.1226 5.9964 3.7075 7.6521c-8.5488 8.416-10.271 22.491-5.1948 29.47-0.63338 14.382-13.777 31.016-19.043 36.285-2.2558 2.2534-3.6149 3.4987-7.6236 6.7152 0.16843 21.766 30.02 17.105 46.565 6.0747" fill="#686d70"/>
 <path d="m115.33 137.99c-1.0461 0.2918-2.0898 0.63808-3.1358 1.0555-22.463 9.1062-28.694 29.764-8.276 55.104 3.6742-2.3364 8.5346-5.3892 10.876-7.9273-5.764-6.3143-10.691-11.583-13.414-17.031-4.0514-8.1028 2.0257-12.56 10.534-24.308 1.5441-2.1325 2.6424-4.4808 3.4157-6.8931" fill="#515457"/>
 <path d="m115.56 114.9 0.9227-1.8952s-3.4916-1.1765-4.7061-1.1765c-1.2168 0 1.2785-6.1483 1.6842-7.3651 0.40343-1.2145-13.786 6.644-13.786 6.644l-16.659-1.5489s4.1226 5.9964 3.7075 7.6521c-8.5488 8.416-10.271 22.491-5.1948 29.47-0.53387 12.066-10.61 26.697-16.713 33.891 0.75193 1.4967 1.3521 1.6296 2.6994 2.5286-2.614 1.9617-3.2686 4.0988-3.5414 7.0425 3.9233-3.2686 8.6033-5.1852 8.6033-5.1852l1.8573 5.3489s1.8549-3.9992 2.6994-5.6857c2.3602 0.84209 18.559 0.33687 28.512-7.7612-2.3483-2.844-2.8773-4.8958-4.2649-7.6687-4.0514-8.1052 2.0257-12.56 10.534-24.311 8.506-11.749 3.6458-29.98 3.6458-29.98" fill="#fffbda"/>
 <path d="m116.49 113s-3.4916-1.1765-4.7085-1.1765c-1.2144 0 1.2785-6.1483 1.6842-7.3651 0.28711-0.86105-6.886 2.7539-11.675 5.5316-0.50294 0.29384-1.715-1.3284-2.13-1.0864-1.1978 0.69975-1.0556 2.2297-1.0556 2.2297l-15.447-1.5798s3.985 5.9964 3.5723 7.6521c-0.19433 0.18961 1.6509 0.99628 1.6509 0.99628s3.354-1.3734 4.4215 0c15.698 4.725 9.1702 33.659 1.371 46.333-3.4845 6.0985-0.5742 10.89 2.1348 17.375 3.7976-1.2406 6.1625-2.4693 9.3434-5.0548-2.3507-2.844-2.8797-4.8958-4.2673-7.6687-4.0514-8.1028 2.0257-12.56 10.534-24.311 8.5085-11.749 3.6482-29.98 3.6482-29.98z" fill="#dcd9bd"/>
 <path d="m125.75 140.52c5.0025-10.126-1.3141-23.566-11.806-24.814-15.283-1.817-23.519 13.464-19.085 26.318 4.2934 12.451 21.479 17.551 30.891-1.5039" fill="#686d70"/>
 <path d="m104.23 128.42c-1.307 3.9233-1.371 12.04 0.30594 14.785 1.6746 2.742-6.2503 1.5229-9.322-0.24206 4.8104 11.758 21.36 16.132 30.533-2.436 3.4347-6.9548 1.5324-15.473-3.3967-20.53-8.0601-3.3138-15.055 0.75898-18.12 8.423" fill="#515457"/>
 <path d="m122.11 129.42c1.7719 2.3436 27.995 12.809 34.71 14.512 9.3339 2.372 18.592 4.2957 19.666 7.4031 1.7743 5.1235-0.63541 8.8832-4.0182 12.055-3.3825 3.1714-28.357 20.433-30.049 23.182-1.6912 2.7492-3.3659 6.848-6.9618 7.2726-3.5936 0.42226-11.419-0.63539-12.477-2.327-1.0579 1.4801-9.5165-0.84679-11.421-4.0182-2.7491-0.84438-5.7047-5.579-5.7047-7.2702 0-1.6936 4.8603-13.243 9.5118-14.512 4.6539-1.269 25.378-1.269 37.222-10.574-7.1896-4.0182-32.852-12.913-40.815-15.015-6.5562-3.8071-3.3042-12.788-0.84915-14.208 3.5628-2.0613 8.1764-0.48411 11.186 3.5011" fill="#00a4e3"/>
 <path d="m125.01 144.3c-5.375-5.0168-8.1242-13.748-1.5703-14.967-3.6576-3.5059-9.7869-4.9907-12.51-3.4157-2.4551 1.4232-5.7071 10.401 0.84915 14.208 2.7729 0.73054 7.6925 2.289 13.231 4.1748" fill="#008fc5"/>
 <path d="m173 158c-5.885 6.5373-13.732 12.422-21.576 14.384-10.461 3.2686-21.576-0.6549-32.691-4.5756-1.39-0.5574-2.659-1.2335-3.864-1.9261-4.5803 1.8786-9.0137 12.707-9.0137 14.339 0 1.6913 2.9556 6.4258 5.7047 7.2726 1.9048 3.1714 10.363 5.4983 11.421 4.0182 1.0579 1.6912 8.8832 2.7492 12.477 2.3246 3.596-0.42225 5.2706-4.5211 6.9618-7.2702 1.6912-2.7492 26.666-20.01 30.049-23.182 3.1192-2.9247 5.4011-6.3499 4.3503-10.88-1.1742 2.0067-2.7634 3.9114-3.819 5.4959" fill="#008fc5"/>
 <path d="m147.32 171.63 6.7484-16.872s-0.78515 0.61926-2.2249 0.93932c-11.945 8.7432-31.918 8.7765-36.475 10.019-4.6515 1.269-9.5118 12.818-9.5118 14.51 0 1.6936 2.9556 6.4258 5.7047 7.2726 1.9048 3.1714 10.363 5.4983 11.421 4.0182 1.0579 1.6912 8.8832 2.7492 12.477 2.327 3.596-0.42495 5.2706-4.5235 6.9618-7.2726 0.96305-1.5655 11.632-8.9093 19.408-14.604-4.8911-0.0787-14.51-0.33686-14.51-0.33686" fill="#686d70"/>
 <path d="m154.83 172.01c-7.7091 5.0002-23.473 14.631-28.348 6.5539-5.1829 1.9806-10.975-0.45789-10.975-4.5733-2.1229-1.1314-4.8769-2.742-3.966-4.8697-0.11167-0.11166-0.21113-0.24205-0.31334-0.3725-3.4963 3.8285-5.3726 10.266-5.3726 11.478 0 1.6937 2.9555 6.4258 5.7047 7.2726 1.9047 3.1714 10.363 5.4984 11.421 4.0182 1.0579 1.6912 8.8832 2.7492 12.477 2.3269 3.596-0.42495 5.2706-4.5235 6.9618-7.2726 0.96306-1.5655 11.632-8.9093 19.408-14.604-1.8739-0.0269-4.5448 0.10226-6.9975 0.0404" fill="#515457"/>
 <path d="m86.132 104.11c-2.6258-0.77566-7.5311-4.4096-7.9059-6.2858-5.5434-2.0423-12.702-6.9999-12.555-15.224 0.21113-11.843 4.8626-24.956 4.8626-24.956s-9.0943-28.127-7.4007-49.699c0.25618-3.2734 1.3876-4.8152 5.4983-0.84679 6.1317 5.9229 20.935 32.781 22.84 38.28 3.3849-1.4802 8.6698-1.2691 10.997-1.0579 4.2293-20.091 15.098-38.04 17.766-41.24 4.2293-5.0761 5.9205-1.9024 6.9785 4.2293 0.76141 4.4214 1.9024 38.28 0.21113 45.683 2.7491 4.4404 7.8253 24.954 7.1895 29.819-0.63339 4.865-12.439 12.55-23.051 16.709-4.4404 4.4404-7.6142 5.9205-7.6142 5.9205l-0.42225 5.923-0.84679 0.63338-2.9603-3.596-2.3269 6.134-2.7492-0.84679-0.21381-7.2679s-4.0514-0.62868-8.2973-2.3104" fill="#00a4e3"/>
 <path d="m91.4 45.196c-2.1324-5.8542-16.699-32.236-22.774-38.099-1.7007-1.6414-2.8844-2.3293-3.7146-2.353 9.4122 15.935 20.013 31.498 23.089 49.955 0.83026-3.3185 2.1846-6.376 3.3991-9.5023" fill="#008fc5"/>
 <path d="m127.4 49.459c3.5129-19.126 0.57624-37.729-0.1849-42.151-0.81836-4.7464-2.0186-7.7162-4.4783-6.4661 0.74715 27.193 2.7942 55.425-7.9226 80.011-3.9233 7.8442-17.653 7.8442-24.192 14.384-2.55 2.5499-5.107 4.7061-7.97 7.0828 1.2429 0.83025 2.5167 1.5039 3.4821 1.7885 4.246 1.6818 8.2973 2.3103 8.2973 2.3103l0.21382 7.2679 2.7492 0.84679 2.327-6.1341 2.9602 3.596 0.84679-0.6354 0.42226-5.9205s3.4797-0.67601 7.9226-5.1164c10.61-4.1606 22.11-12.648 22.743-17.513 0.63541-4.865-4.4665-28.91-7.2157-33.351" fill="#008fc5"/>
 <path d="m129.02 56.58c-9.5355 8.2522-28.599 17.7-31.859 19.04 1.8123-10.283 1.9095-19.899 4.393-31.372-2.474-0.15667-6.6464-0.17548-9.6233 0.9488-5.2469 10.174-6.6274 20.001-8.3827 31.107-5.7355-2.3602-9.9506-9.5829-14.137-15.129-1.39 4.7014-3.596 13.354-3.7383 21.424-0.04039 2.1419 0.36766 3.6292 0.83495 5.1781 4.7962 2.2321 7.5928 4.3859 12.147 4.7251-0.3368 1.8549-1.6865 4.2175 0.05711 6.3119 1.0365 1.4706 4.7725 4.0395 6.8622 5.1591 4.1249-3.373 8.2665-7.2536 11.808-9.4477 9.7869-2.8678 26.996-8.7741 37.253-11.9 0.40813-4.2601-2.9128-18.663-5.6146-26.045" fill="#686d70"/>
 <path d="m101.55 44.248c-2.4764-0.15868-6.6464-0.1755-9.6233 0.94644-1.658 3.2117-2.9271 6.3903-3.947 9.583 1.3117-0.28441 8.1692-0.58834 11.051 6.2621 0.57892-5.3323 1.2239-10.809 2.5191-16.792" fill="#515457"/>
 <path d="m129.02 56.58c-9.5355 8.2522-28.599 17.7-31.859 19.04 0.34426-1.9545 0.61657-3.883 0.86582-5.8067-4.3123 1.6035-9.0493 1.9119-13.58 0.83732-0.30391 1.8501-0.79227 8.0767-0.48613 9.6019 0.30324 1.5229 10.821 0.30392 11.125 2.1325 0.30593 1.8288-3.9613 11.737-5.4864 13.717-1.5229 1.9831-3.4703 2.2629-11.594 1.4161 0.13521 0.43906 0.35582 0.87289 0.70685 1.2951 1.0366 1.4706 4.7725 4.0395 6.8622 5.1591 4.1249-3.373 8.2665-7.2536 11.808-9.4477 9.7869-2.8678 26.996-8.7741 37.253-11.9 0.40814-4.2601-2.9128-18.663-5.6146-26.045" fill="#515457"/>
 <path d="m84.915 54.047c-3.1714-7.6142-10.235-19.861-11.421-19.458-1.186 0.40544-3.5936 5.0762 2.9627 23.054 0-6.3451-0.42461-9.5189 1.4801-8.461 1.9024 1.0579 6.9785 4.865 6.9785 4.865" fill="#686d70"/>
 <path d="m73.451 34.609c-1.2002 0.50026-3.475 5.2706 3.003 23.032 0-3.15-0.10203-5.5173 0.02623-6.9738-2.6092-4.7274-3.2402-10.458-3.0291-16.059" fill="#515457"/>
 <path d="m110.1 52.131c-0.4653 0.96777-0.67104 0.53858-0.60045-0.05374 1.0817-9.0682 6.4021-21.837 7.9866-20.079 1.6865 1.8763 2.8108 11.623 0.41755 23.111-1.658-6.1245-2.9223-8.7242-3.9802-8.2997-1.3378 0.53387-2.9128 3.43-3.8236 5.3252" fill="#686d70"/>
 <path d="m109.66 50.925c-0.15196 1.001 0.19701 1.6486 0.94167 0.21315 0.56481-1.0911 1.2667-2.3032 1.983-3.1785 0.23466-5.4319 2.1562-10.797 4.0277-15.883-2.028 1.6272-5.7924 11.217-6.9524 18.848" fill="#515457"/>
 <path d="m83 129.84c-3.3137 0-16.357 4.763-16.357 5.3821 0 0.62128 12.01 5.7972 14.908 6.2123 3.9328-2.6922 3.105-10.56 1.4493-11.594" fill="#fff"/>
 <path d="m126.09 173.11c-0.6307-5.0453 9.0777-23.009 10.133-21.74 1.0579 1.2691 5.4462 9.7846 6.9477 14.659-0.40814 5.2824-16.917 8.3874-17.081 7.0805" fill="#fff"/>
 <g fill="#dbdcdc">
  <path d="m31.292 179.32c-2.0589-2.5855-7.1753-7.2964-11.125-10.487 3.1311 4.3953 8.7124 13.722 7.441 16.789 2.6495-2.5807 4.3242-4.2721 3.6837-6.3024"/>
  <path d="m72.967 137.08c-1.779 0-3.558-0.9061-5.5434-1.2809 2.7065 1.5252 11.675 5.2824 14.128 5.6335 1.4398-0.98672 2.2392-2.6661 2.5973-4.4499-3.4679 1.6533-7.3224 0.64752-11.182 0.0975"/>
  <path d="m143.17 166.03c-1.4991-4.8745-3.9256-11.265-4.9836-12.534-0.0269-0.0269-1.1149-1.4588-1.1457-1.4706 0.70923 6.478-0.19431 17.083-2.5144 19.716 4.0538-0.1802 8.3495-2.2747 8.6436-5.7118"/>
 </g>
 <g fill="#fff">
  <path d="m71.605 75.721c0 3.2235 1.0152 6.8409 2.5191 8.7314 1.7577 2.206 3.7596 2.697 4.986 2.697-1.2667-1.6343-2.3293-4.8223-2.4503-6.7437-0.12331-1.919 0.04039-3.9636 0.53132-5.2303l-3.9233-4.616c-0.53132 0.36779-1.6628 2.3554-1.6628 5.1615"/>
  <path d="m106.98 74.236s-3.188 2.4527-4.1273 3.2686c-0.93931 0.81836-3.105 3.0244-3.105 3.0244 1.855 3.5722 4.6587 5.477 7.1516 5.477 0.73533 0 2.7776-0.24677 3.5129-0.73767-1.8786-0.81601-2.9413-3.3493-3.2686-5.5576-0.32746-2.206-0.16339-5.4746-0.16339-5.4746"/>
  <path d="m111.11 71.335s2.002 1.307 2.002 5.4747c0 4.17-0.77567 6.867-1.39 7.7233 2.8867-2.6875 3.5557-6.032 3.5557-8.99 0-1.8786-0.69503-4.7796-2.2463-5.5552z"/>
 </g>
 <path d="m77.067 75.503s-0.53132 1.1433-0.53132 3.7596c0 4.2008 2.1372 7.9676 2.8203 7.9676 0.87528 0 1.594-1.4825 1.594-5.19 0-1.1433-0.20373-2.2866-0.20373-2.2866s-1.0626-1.6343-1.798-2.3293c-0.7377-0.69504-1.881-1.9213-1.881-1.9213" fill="#e95520"/>
 <path d="m107.06 73.95c-0.12304 1.7577-0.0404 2.8606-0.0404 4.495 0 3.0646 1.8572 6.7009 3.392 6.7009 1.6699 0 2.6566-3.335 2.6566-8.4586 0-2.2463-0.90139-4.5756-1.964-5.3537z" fill="#e95520"/>
 <g fill="#dbdcdc">
  <path d="m71.931 73.132c0.60009 0.60044 3.6505 2.9413 4.5756 3.9779l0.6547-1.7434-3.8948-4.8081z"/>
  <path d="m100.7 81.469c1.2524-0.98201 5.1212-3.7051 6.21-4.4689l-0.0537-2.4503c-1.9072 1.2524-6.3215 5.1757-6.9761 5.7213z"/>
  <path d="m112.85 73.786s1.3615-0.70923 1.8526-0.92749c0 0-0.38192-1.307-0.60045-1.7411-0.21785-0.43637-1.1432-0.98201-1.1432-0.98201l-1.798 1.0888s0.65491 0.59977 0.97967 1.0911c0.32745 0.49084 0.70923 1.4707 0.70923 1.4707"/>
 </g>
 <path d="m76.671 77.219c0.60011 0.60044 3.6506 4.1961 4.087 4.8484l-0.01346-2.3151s-1.1575-1.4707-1.798-2.3293c-0.64044-0.8587-1.6746-1.7838-1.6746-1.7838z" fill="#ca4819"/>
 <path d="m107.13 76.946c1.307-0.81601 4.6847-2.7231 5.5576-3.1595 0 0-0.27299-1.1979-0.5453-1.4707-0.27299-0.27299-1.1433-0.76376-1.1433-0.76376l-4.0182 2.6827z" fill="#ca4819"/>
 <g fill="#0f141b">
  <path d="m140.23 225.25 0.44108 1.9119c46.494 0 72.539-40.948 73.616-40.948 2.3032 0 15.646 21.524 15.646 51.347 0 0.88714-0.0713 1.7245-0.11363 2.5831-11.573-9.4382-19.178-14.929-20.795-16.839 3.9233-5.2279 3.8189-6.5467-1.4825-0.55269-20.812 23.53-42.58 28.125-66.428 21.016l-1.1172 1.7149c28.047 8.359 49.238 1.409 67.766-20.283 1.9901 1.492 13.71 11.348 19.062 15.949 4.6444 3.9992 4.7345 4.3456 5.0524-1.5062 1.62-29.691-14.811-56.07-17.847-56.07-2.6923 0-23.865 39.719-73.798 41.676"/>
  <path d="m43.981 125.63c0.02821 9.4572 12.617 12.565 20.16 6.6203l-0.55504-1.1646c-8.4491 5.3489-17.755 0.60514-17.84-5.6241-0.10911-8.3613 14.716-24.595 20.217-40.018l-0.43174-1.9024c-7.4932 20.485-21.581 31.83-21.55 42.089"/>
  <path d="m89.065 104.9-1.6272-0.17078c-0.0713 1.7245-0.16608 3.3612-0.27971 4.9149 0.53857 0.0901 1.0792 0.1849 1.6201 0.30863 0.11634-1.6011 0.21383-3.2829 0.28712-5.0524"/>
  <path d="m64.794 131.71c-3.2686-7.7376 6.5397-27.461 7.7826-36.878l-1.0389-0.82548c-1.4042 10.461-12.002 28.763-8.2689 38.358 1.2168 3.1311 5.0714 6.4827 8.9354 6.9737-0.42695-0.82071-0.27991-0.92035-0.66175-1.7268-3.2615-0.99863-5.5742-3.1216-6.7484-5.9016"/>
  <path d="m118.97 96.711-1.1078 0.77566c-0.10888 3.9233 0.43638 11.552 1.9854 20.454 0.78514 0.40075 1.5015 0.90375 2.2487 1.4564-1.9522-7.9415-3.1263-17.389-3.1263-22.686"/>
  <path d="m149.84 123.24c-1.6343 9.526-8.0909 11.979-16.476 10.764 1.1931 0.88716 1.8526 1.243 3.1287 2.168 7.1469 0.27299 12.935-2.614 14.519-11.86z"/>
  <path d="m128.45 57.007c10.242 5.7356 36.951 32.195 43.728 49.338 5.1758 13.091 2.5499 25.336-10.302 24.418-6.663-0.47673-11.288-4.7156-14.182-14.128-3.4181-11.111-10.515-26.116-13.599-31.896l-0.7994 1.065c3.373 6.3262 9.4454 21.412 12.522 31.408 3.1215 10.145 6.9974 15.288 16.55 15.366 12.019 0.0975 18.182-10.392 11.635-26.953-6.9144-17.491-34.774-44.022-45.218-49.872z"/>
  <path d="m50.089 158.65c6.5563-4.6278 20.594-18.12 21.578-21.073l-1.167-0.74245c-0.68077 2.0423-14.699 15.383-21.543 20.212-3.4465 2.4337-13.447 9.9056-22.907 18.134 0.53845 0.40814 1.1149 0.78036 1.6747 1.1646 8.48-7.358 17.574-14.315 22.363-17.695"/>
  <path d="m42.372 164.43c-1.2548 0.40074-6.6654 3.3707-6.6654 3.3707l-0.06187 0.93462s3.9636-1.6984 5.8043-2.4883c-2.0731 5.3228-9.1513 25.257-9.4098 26.242-0.25617 0.98202 0.02356 1.5892 1.0508 0.59506 1.0247-0.9915 2.9864-1.9878 3.9945-2.5214-0.09483 1.4208-0.28705 4.2388-0.28705 4.2388l1.3046 0.0901s0.04504-3.0101 0.25617-4.9196c0.21349-1.9118 0.16366-1.5679-0.81834-1.103-0.98439 0.46529-1.8881 0.89192-3.8 2.1538 1.4896-5.005 8.8547-24.463 9.4952-25.751 0.64044-1.2904 0.39139-1.243-0.86341-0.84209"/>
  <path d="m15.165 171.28c0-2.1514 0.12574-3.8 0.39374-4.5994 2.4384 1.3402 11.507 9.0113 14.818 13.067 0.77803 3.2758-8.5179 11.367-13.048 10.416-1.1576-2.4455-2.1633-12.576-2.1633-18.884m-1.205-7.6166c-2.1206 2.334 0 25.566 1.8051 27.262 4.3859 4.1297 18.865-8.2048 16.293-12.223-2.2676-3.5462-17.022-16.222-18.098-15.039"/>
  <path d="m76.218 143.59c-7.3675 13.155-14.173 22.176-18.673 24.747-5.8897 3.366-21.626 27.259-21.626 27.259s-0.80174 1.7885-0.74245 3.0765c0.21113 4.6682-1.2927 10.449-4.2483 12.266l-0.27991 0.17079c-2.3032 1.4161-4.6254 2.3341-6.6108 2.3388-4.2412 0.0135-7.2465-5.7782-6.0368-11.027 0.83969-3.6411-0.70924-2.2652-1.2406-0.41486-1.4185 4.9409 0.73532 9.3268 3.1619 11.312-1.7648 1.3022-3.3256 1.8193-5.0548 1.4564-4.9979-1.0437-6.727-7.83-4.1321-13.172 1.4208-2.9294 0.67131-3.2639-1.0223-0.81601-1.3141 1.8977-2.0755 6.2456-1.084 9.5735-1.3639 0.0732-1.8573-0.0202-2.7492-0.94887-1.8905-1.9593-2.2439-5.8162-1.9735-8.5227 0.1874-1.8549 1.0508-2.5286 2.7705-3.8688 1.4019-1.0911 3.3208-2.5831 5.5268-5.3417 1.0152-1.2643 2.2036-2.6093 3.513-4.0016-0.39376-0.67837-0.48627-1.4446-0.57879-2.2486-1.6675 1.7339-3.1809 3.4228-4.4641 5.0263-2.0637 2.576-3.8024 3.9305-5.2018 5.0169-1.8146 1.4137-3.2473 2.5309-3.5177 5.2208-0.15894 1.5892-0.44592 7.0093 2.512 10.081 1.2524 1.2975 3.0765 2.3293 5.0382 2.3269 1.3165 2.1419 2.8773 3.1595 4.9623 3.596 2.2297 0.46529 4.7322-0.19231 6.9642-1.7576 3.7668 1.7506 6.7887-0.0337 10.245-2.1562l0.27749-0.17079c3.5794-2.1965 5.1212-6.7673 5.1497-15.231 1.7861-4.1819 16.073-24.128 21.415-27.34 6.4637-3.8877 11.896-12.747 19.026-25.475z"/>
  <path d="m69.861 133.34c0.57402-0.21585 0.6784-0.14456 1.3805-0.16878-1.3212-10.1 6.3878-17.252 15.098-15.62l0.1802-0.96305c-9.7324-2.3483-18.075 5.3086-16.659 16.751"/>
  <path d="m80.578 144.15c-3.1856-0.13045-4.7749-1.3639-6.6772-3.9708-0.44121-0.60514-0.81834-1.25-1.148-1.9189-0.81361-0.31535-1.6248-0.49824-2.4384-0.67844 0.49104 1.3118 1.148 2.5832 2.002 3.7526 2.2416 3.0717 5.4129 4.7772 9.175 4.9314z"/>
  <path d="m117.22 112.59c-0.11834-0.32947-3.7312-0.99149-5.4343-1.103 0.77566-1.6865 2.7942-7.7944 2.206-8.0506-0.15196-0.0672-3.2686 0.85863-10.19 4.7108 0.0269 0.70688-0.14725 1.1671-0.15397 1.7932 3.6174-2.066 7.0923-3.9636 9.1156-4.9528-1.5845 3.6529-2.3791 5.6881-2.3791 6.6963 0 0.36309-2e-3 0.80881 1.3924 1.1196 1.3971 0.30862 2.353 0.21583 3.7288 0.40814-0.3799 0.56683-1.0058 1.5063-1.0058 1.5063l0.11364 0.42966c7e-3 0.0269 0.10423 0.40343 0.24205 1.0508 0.73774 0.0537 0.72113-0.0537 1.3426 0.1923-0.12574-0.6354-0.0854-0.94174-0.16339-1.2667 0.15397-0.42966 1.3046-2.2036 1.186-2.5333"/>
  <path d="m78.238 130.7c0.70448-0.29651 1.2572-0.35367 1.9617-0.36779 0.82071-3.0243 2.5831-6.5965 4.5614-9.3078-0.5601-0.37923-0.63339-0.49555-1.1149-0.86812-2.3222 3.2117-4.5827 6.9476-5.4082 10.544"/>
  <path d="m94.43 109.96c-7.5193-0.92749-11.345-0.85635-11.618-0.43638-0.28442 0.43638 3.0386 6.4092 3.2283 7.5193-0.51974 0.52916-0.55472 0.89427-0.94174 1.3497 0.72114 0.15667 0.82784 0.16137 1.5917 0.27299 0.77801-0.55942 1.0271-0.87524 1.0271-1.594 0-1.5584-3.5841-6.459-3.3137-6.7698 0.32746-0.4505 6.2716 0.53387 9.972 1.0199-2e-3 -0.57623-0.13783-0.75428 0.0537-1.3615"/>
  <path d="m101.89 168.86c-1.7458-3.4916-1.0556-8.1953 5.1829-16.236-0.6974-0.16339-1.5489 0.12304-2.2463-0.076-5.4556 7.0971-6.4946 12.731-4.3218 17.074 1.1812 2.3673 3.8877 6.2598 5.7569 8.6366 0.27972-0.69263 0.10888-2.066 0.49084-2.6566-1.549-2.0281-3.8664-4.7512-4.8627-6.7413"/>
  <path d="m77.707 184.15c0.54792-2.1348 0.21348-2.334-0.77566-0.12305-0.52661 1.1789-1.2263 2.901-2.5238 5.3181-0.47202-2.0115-0.75194-3.0766-0.97016-4.2341-0.25383-1.3378-0.5527-1.4517-1.1433-1.0911-0.21826 0.12304-4.8294 2.7658-7.9534 5.2588 0.34392-1.8858 2.4147-5.3726 5.356-7.9344 1.2168-1.0579 1.9617-1.9617 1.8146-2.1135-0.28704-0.22996-1.7624 0.0901-4.374 2.9318l-1.7553-1.6842-0.92509 0.92513s1.0911 1.2002 1.7197 1.8265c-2.0897 2.4455-2.9342 7.0496-2.5381 7.2963 0.58114 0.35839 5.2635-3.475 8.7361-5.3347 0.22532 1.8193 1.4303 6.2622 1.9 6.3144 0.46966 0.0537 2.9128-5.4794 3.2259-6.2384 2.6804 0.13784 16.542 0.40075 28.308-7.8442l-0.74957-1.0698c-9.4359 6.6108-19.683 7.9985-27.352 7.7968"/>
  <path d="m63.362 202c-4.9291-2.4384-7.7352-6.8314-7.8965-12.37l-1.307 0.0404c0.17556 5.9562 3.0219 11.649 8.3282 14.272 5.4011 2.6733 21.384 5.8707 50.327-14.908l-0.76376-1.0626c-19.681 14.13-37.881 19.375-48.688 14.028"/>
  <path d="m144.63 241.83c-0.14725-2.6448-1.5158-13.366-3.9968-21.972-1.5038-5.2113-7.6925-16.644-17.774-27.074-1.2975 0.0135-2.697-0.3772-4.068-0.65691 7.2086 5.7545 15.375 16.775 19.74 28.414 2.6993 7.1991 3.4631 19.09 3.8996 22.05-3.807 1.9972-31.892 11.609-50.121 9.9554-7.4458-16.196-11.867-29.57-13.9-39.99-0.81835-4.2008-1.7031-4.0775-1.5086-2.1182 1.1386 11.523 7.3935 28.851 10.012 34.634-7.071 2.0138-34.034 4.891-45.512 1.4137-3.0362-13.755-4.986-33.249-2.3412-38.797 3.7786-7.9297 18.945-18.969 24.116-24.038 3.3185-3.2497 10.805-12.316 15.444-22.506 3.743-8.2238 3.8711-13.236 2.678-16.232-0.32745-0.98201-0.93932-2.64-1.2667-3.8-0.72582-0.18961-1.307-0.41014-2.0043-0.65489 0.29652 1.3188 0.93932 3.494 1.4683 4.6183 1.5418 3.271 1.5869 5.9656-2.678 15.328-4.495 9.8628-11.599 18.912-14.809 22.102-5.0927 5.0643-20.71 15.923-24.721 24.337-2.5025 5.2493-1.4991 26.194 2.3341 40.659 0.79463 3.0006 32.24 3.8403 47.934-0.62128 0.58094 1.2239 1.715 4.0348 2.1562 5.0642 0.44108 1.0294 0.73531 2.6021 2.9389 2.6448 17.774 0.3557 40.699-5.4153 50.154-9.7798 1.9118-0.88236 1.9712-0.33418 1.8241-2.9816"/>
  <path d="m108.81 151.91c-5.6406-0.35838-10.79-4.5424-12.816-10.413-4.9076-14.23 5.3727-26.531 18.044-25.025 6.9951 0.83019 12.076 7.7399 12.617 14.87 0.73768 0.3725 1.4778 0.7401 2.2107 1.1172-0.22055-8.6602-6.1791-16.329-14.491-17.316-14.443-1.7174-25.236 12.171-20.027 27.273 2.2795 6.6109 8.1241 10.786 14.545 11.194 6.0463 0.38192 11.682-2.41 15.907-8.7053-0.72114-0.25415-1.4636-0.51235-2.1941-0.83973-3.7762 5.3561-8.6436 8.1716-13.796 7.8443"/>
  <path d="m147.43 169.24c-1.186 2.8891-0.80888 3.2947 1.6248 3.1785 3.2378-0.15665 12.636-0.37249 12.636-0.37249l2.0779-1.7956s-13.29 0.74245-15.157 0.76853c1.5015-3.0196 5.2682-14.989 5.6762-16.296 0.68315-2.1846-0.14456-2.7634-1.1196-0.16607-0.69269 1.8454-4.0538 10.579-5.7379 14.683"/>
  <path d="m154.35 155s-8.6792 5.5173-12.92 6.9263c-0.25147-0.63541-0.36981-1.3378-0.42225-2.0732 3.4893-1.1078 6.8457-2.5736 9.7158-4.5756-8.4562-4.1724-31.391-12.199-37.537-13.504-4.8508-1.0271-6.2574-5.1853-6.2574-8.5559v-7e-3c2e-3 -5.6644 2.7563-9.4359 7.8752-9.2722 2.8203 0.0901 5.6288 1.6675 7.7802 4.514 1.4327 1.8858 27.375 12.724 34.475 14.526l3.2639 0.81835c9.8984 2.4598 15.719 4.2459 17.09 7.2133 2.7894 6.0487-0.0881 9.5474-2.9413 12.223-1.4113 1.3212-7.5667 5.7213-13.146 9.8059-7.2442 5.3038-17.166 12.569-18.075 14.045l-1.2595 2.7492c-1.4992 2.6329-3.2615 5.0263-6.7603 5.439-2.8962 0.33887-9.239 0.91322-12.199-2.0589-2.9934 0.49554-10.622-1.7932-12.693-6.0416-9.488-4.3242-3.6481-19.761 5.0073-22.121 1.1528-0.31534 11.189-1.9118 13.948-2.2891-0.42696 0.84922-0.49554 1.167-0.92036 2.0163-2.0186 0.27972-11.739 1.6058-12.752 1.881-6.2312 1.7007-11.796 15.093-5.522 18.17-0.30861-3.1311 0.65221-7.5858 4.6254-10.726 2.3839-1.8858 2.8702-0.8753 0.85634 0.98672-1.8478 1.7102-4.5377 7.7375-3.494 11.447 0.48412 1.288 1.6793 2.8393 7.0259 4.1249 1.3473 0.32476 2.2487 0.35837 2.735 0.30862-1.2738-2.8962 0.38191-8.4776 3.1808-11.737 1.0129-1.1741 2.4124-1.1575 0.97254 0.87531-1.2927 1.824-3.3588 7.3722-2.493 10.404 0.66902 1.345 3.1002 3.3825 11.832 2.3554 2.5143-0.29651 3.9755-2.863 5.3868-5.3465l0.85393-1.4659c1.0318-1.677 8.0293-6.867 18.585-14.597 5.299-3.8806 10.306-7.5454 11.63-8.786 3.9542-3.7074 5.1164-7.1066 3.762-11.018-0.77566-2.2416-8.7076-4.2128-15.707-5.9538l-3.2758-0.81829c-5.9277-1.5063-33.365-12.346-35.557-15.247-2.0162-2.6661-3.7881-3.8023-6.8361-3.6387-3.1453 0.17078-5.2896 2.5784-5.292 7.2157v7e-3c0 1.8501 0.58093 4.3811 3.2924 6.0012 8.4918 2.2653 33.042 10.596 40.22 14.607 1.798-1.307 3.7596-2.7776 4.2482-2.289 0.49083 0.49085-0.84203 2.1846-2.3008 3.4632"/>
  <path d="m83.363 75.661c0 0.06048 7e-3 0.09751 7e-3 0.15398-5.1259-2.6353-12.033-12.501-13.596-15.401 0 0-0.59062 1.8525-0.38427 2.1917 2.0115 3.3232 7.9818 11.787 13.947 14.289 0.76854 0.32274 1.0176 0.30593 1.1054-0.99156 0.63809-9.2437 5.1425-24.809 8.1929-30.504l-1.2524 0.16339c-3.0931 5.7735-8.0198 23.651-8.0198 30.099"/>
  <path d="m96.74 75.86c-0.0135 0.88957 0.0672 0.98444 0.91324 0.56951 3.3991-1.658 25.63-13.924 31.882-19.133l-0.83732-1.0034c-5.9276 4.9385-23.578 15.238-30.673 18.528-5e-3 -0.22996-0.0135-0.44849-0.0135-0.68792 0-10.181 3.131-25.694 4.7606-30.096l-1.4706 0.16339c-2.0566 5.5553-4.3456 19.356-4.559 31.659"/>
  <path d="m98.05 93.181-0.0732 0.0202-0.0672 0.04039c-0.21114 0.12305-5.1876 3.0338-6.5136 4.5803 0 0-4.7345 5.5363-6.2835 5.847l0.84922 0.42494c2.0091-0.40342 6.4281-5.4201 6.4281-5.4201 0.96784-1.1314 4.6848-3.4275 6.1127-4.2649 1.9996-0.60246 32.596-9.5735 35.751-11.258l-0.15868-1.5537c-3.0788 1.6415-35.715 11.483-36.045 11.583"/>
  <path d="m73.239 35.32c1.0342-0.43638 6.7366 9.3814 10.093 16.746-1.6533-1.2026-6.1649-5.0026-6.5966-4.7464-0.43644 0.26089-0.81834 2.5618-0.7709 7.3414-3.1666-9.6328-4.087-18.85-2.7254-19.341m-0.43645-1.307c-1.6272 0.55472-1.7434 10.57 2.5618 21.685 1.0152 2.6211 1.4825 2.6187 1.4707-0.38192-0.0093-2.3697 0.27991-5.5932 0.53366-5.6691 0.52897-0.18759 3.4489 1.8644 7.154 4.9243 1.2311 1.0129 1.3995 1.4991 0.7021-0.8634-2.9223-9.9103-10.349-20.402-12.422-19.695"/>
  <path d="m117.08 32.549c0.8326 0.13516 2.41 10.686 0.78513 20.532-1.4706-5.0666-2.818-7.1753-3.596-7.1919-0.38931-7e-3 -3.1049 2.7254-4.1392 4.9054 1.5205-8.748 6.1222-18.397 6.95-18.246m-7.9866 19.662c-0.0404 1.0674 0.17079 1.9901 1.2572 0.28712 1.9569-3.067 3.3208-5.1378 3.8071-5.0761 0.51235 0.15196 1.8573 2.9745 2.9816 6.7887 0.45319 1.5371 0.97018 1.0532 1.2714-0.04039 3.0836-11.125 0.65491-22.883-1.0887-23.101-1.7269-0.21584-7.8727 12.081-8.2286 21.139"/>
  <path d="m71.441 270.1c-1.7577-4.6183-4.4831-10.755-1.5252-21.234l-1.8881-0.53387c-3.1334 11.103-0.48861 18.056 1.2619 22.658 0.78276 2.0589 1.4019 3.6861 1.2927 5.0049-0.15896 1.9072-1.8976 4.9006-4.3052 9.0446-3.1999 5.5102-7.581 13.056-11.196 23.194l-1.3592 3.9683c-1.6177 4.8413-2.4313 7.2703-5.0429 8.722-1.4422 0.79932-3.8806 1.1575-6.9666 1.6106-4.0514 0.59304-9.5996 1.4043-16.023 3.7431-6.6203 2.41-8.2617 0.96306-9.1441 0.18492l-0.01683-0.0135c-0.06187-0.0713-0.12096-0.14456-0.18975-0.22525-2.9413-3.3801-3.7075-5.5149-2.9935-7.7826 0.80648-2.5666 2.2582-3.3873 4.7606-4.2673 1.798-0.63071 2.0115-1.39-0.44122-0.86342-2.455 0.52446-5.3465 1.5774-6.3238 4.6848-0.80174 2.5452 0.52418 5.6122 3.0006 8.7551-1.9118 0.46461-4.393-0.0605-5.643-0.7994l-0.03564-0.0202c-0.0093-7e-3 -0.01416-0.0202-0.02356-0.0269-2.002-2.3222-2.2249-5.8731-1.8193-7.2371 0.55741-1.8644 1.8383-3.0552 3.5699-3.8379 2.4194-1.0935 1.8786-1.53-0.40801-0.918-2.7658 0.74009-3.9897 1.8075-4.6681 4.087-0.73296 2.4669-0.04039 5.337 1.6319 7.811-1.5916-0.12305-2.901-0.72342-3.819-1.7861-1.3426-1.5537-1.8217-3.9802-1.2833-6.4945 0.77565-3.6079 4.3147-4.2008 8.0625-4.8295l1.2761-0.22323c0.72109-0.13045 1.7221-0.18289 2.882-0.24407 5.1995-0.27299 13.902-0.72819 20.767-9.2912 18.514-23.096 19.837-46.204 20.274-53.797l-1.9593-0.11364c-0.42696 7.441-2.0542 30.288-20.176 52.896-4.9623 6.1862-8.7741 8.0079-19.702 8.582-1.2263 0.0672-4.3811 0.48882-4.3811 0.48882-5.8447 0.98203-8.0625 3.6553-8.6626 6.4566-0.66889 3.1121 0.21826 6.2408 1.9593 8.2546 1.0603 1.2239 2.1396 1.8596 5.477 1.7173 2.0565 1.0887 5.681 1.9901 8.091 1.0081 1.76 1.3378 3.6244 2.2653 9.8462 0 6.2337-2.27 11.955-3.6648 16.144-4.2791 3.2829-0.47941 7.3153-0.90375 9.0706-1.8786 3.2805-1.8218 3.2639-5.1449 4.986-10.297l1.3473-3.9328c3.4038-9.5545 5.0382-12.043 10.828-22.017 2.5357-4.3645 4.4713-7.6925 4.6658-10.038 0.14705-1.7647-0.32497-3.5936-1.1979-5.885"/>
  <path d="m189.91 330.48c-2.2036-7.0544-5.3822-8.2238-9.6992-13.815-2.2131-2.8654-5.3133-7.1042-7.1018-9.8581-2.1704-3.3398-4.5376-8.8856-7.0425-14.759-3.4584-8.1052-6.8148-17.458-10.254-20.651l-4.8484-3.5248c-5.4604-4.6231-11.151-8.952-16.286-20.321l-1.7862 0.80887c5.3157 11.772 12.297 17.683 17.906 22.432l3.4632 3.0172c3.1311 2.9081 6.6227 11.094 10 19.009 2.5405 5.9514 4.9385 11.575 7.2014 15.055 1.8359 2.8227 4.1463 5.8162 6.3831 8.71 4.2032 5.4415 8.2427 8.8974 9.8273 15.667 0.55471 2.372 0.43167 4.2008-0.65692 5.503-1.3473 1.6154-4.0372 2.4337-7.4695 2.3033 0.44849-3.8166-1.9949-9.8866-3.1572-11.049-1.3236-1.3212-1.0033 0.64549-0.44108 1.9119 0.74245 1.6675 1.3046 4.7915 1.3995 7.2798 0.12775 3.3137-1.3236 5.1876-7.0639 5.1259-6.2811-0.0672-8.9781-0.57892-10.11-1.3639-1.9759-1.3734-3.1026-5.4296-2.3127-10.413 0.45049-2.8346-0.3772-3.29-1.6058 0.10691-1.0603 2.9224-0.72826 7.6687 0.88472 9.8723-2.8986 0.30594-8.3115-0.14456-10.8-3.5675-2.2961-3.1548-2.2463-9.0066 0.14926-17.387 1.7506-6.1293-7.9012-32.565-14.664-45.294-4.049-7.626-8.7456-13.281-12.173-17.413-2.4669-2.9721-3.1714-4.5566-3.9613-6.4566l-2.436 0.56951c0.90375 2.1704 2.3151 4.0419 4.8888 7.1421 3.5603 4.2886 7.9937 9.6304 11.95 17.079 7.1018 13.364 15.119 39.051 13.668 44.139-2.6045 9.1157-2.2653 15.679 0.44108 19.401 3.4584 4.7559 11.594 4.253 14.593 3.4893 3.2402 1.7197 14.498 3.1762 18.673 0.82073 1.0769-0.60717 1.556-1.3568 1.7529-2.0613 4.1629 0.19902 8.3282-0.56682 10.1-2.6899 1.5252-1.8288 1.5181-5.8423 0.58834-8.8191"/>
  <path d="m82.607 130.85c2.4147 0 1.4351 9.5261-1.3545 9.5261-4.1107 0-12.745-4.0538-12.745-5.0975 0-0.85393 10.024-4.4286 14.099-4.4286m-16.943 4.374c0 1.2738 11.639 6.3049 15.802 6.3049 1.7814 0 3.9968-2.0921 3.8901-7.2133-0.0759-3.6695-1.167-4.7606-2.0732-4.7606-4.2009 0-17.619 3.8-17.619 5.6691"/>
  <path d="m133.64 82.682c-0.49084 3.7597-10.214 11.763-20.629 16.222-1.3568 0.58094-2.6282 1.8976-3.8142 2.7776-2.9674 2.2084-5.9514 3.4347-5.9917 3.6387 0 0-0.34427 4.1487-0.43638 5.4604-1.1504-1.1125-2.6306-3.2046-3.1595-2.8867-0.53117 0.31804-2.3269 4.1582-2.8084 5.4296-0.18288-0.0537-0.98914-0.20642-1.2738-0.29182-0.047-1.5655-0.20844-6.8124-0.20844-6.8124-1.4706-0.16339-2.697-0.49084-4.4143-0.98201 2.901-0.40814 6.765-1.8811 8.6626-4.5756 2.2843-0.51706 4.6634-0.39133 6.293-0.20374 1.7482 0.19902 2.0779-0.29182 0.23264-0.78992-1.4564-0.39603-6.739-0.49824-7.3746 0.13784-2.9248 2.9247-6.1554 4.3099-9.2841 4.2886-5.3916-0.0404-10.812-4.7298-10.838-7.7233-0.0046-0.65691 0.28226-1.5703 0.98675-3.3421 1.1006-2.7681-0.02693-1.8075-0.73294-0.90845-2.4788 0-10.017-4.0965-11.926-5.8257-0.17792-0.98672-0.27749-2.0731-0.27749-3.2757 0-0.13313 0.0023-0.26828 0.0046-0.40342 0.16366-9.1632 3.067-19.23 4.2815-23.054 2.4313 3.1999 1.5442 0.76619 0.53366-2.2226-7.3224-22.648-9.5474-50.526-6.7009-51.613 1.6272-0.61658 17.482 17.273 25.281 39.81-1.5252 0.59775-1.6604 1.0627-1.4967 1.39 0.14456 0.29182 2.225-0.45991 3.2686-0.87289 3.3659-1.0674 6.8266-1.1385 10.079-0.84445-0.27029 2.6163-0.43436 4.6587 0.16339 4.6587 0.38662 0 0.5453-1.4707 1.3663-5.3466 5.1307-24.368 18.307-43.562 20.527-42.967 2.1918 0.58834 6.2645 16.604 2.7895 48.313 3.2686 9.8083 7.645 27.074 6.8978 32.814m-56.758 13.632c-3.4276-1.5513-6.0842-3.5391-9.4525-8.0506 2.8962 1.8431 8.3068 4.3788 10.847 5.0287-0.63332 1.0128-1.3046 2.1159-1.3947 3.022m51.494-46.119c3.1595-29.641 0.16339-49.608-4.087-50.182-4.2673-0.57422-16.73 18.597-22.285 43.835-2.1325-0.14255-7.0449-0.05374-10.323 1.0342-12.375-30.153-25.022-41.752-27.544-40.782-2.7753 1.0674-3.9708 21.804 6.0486 53.94-3.1382 9.1441-5.1757 18.815-5.1757 28.524 0 2.1063 5.2872 8.8642 12.095 11.253 1.8668 4.1012 7.6687 7.8442 16.946 9.1536 0.0269 0.90139 0.12574 3.9874 0.1802 5.6763-1.2619-0.3651-2.4859-0.32005-2.8512 0.047-0.49083 0.48882 0.63338 5.764 1.2192 5.5174 0.68785-0.2871-0.56479-3.9376 0-4.291 0.32476-0.20172 2.3056 0.21112 3.577 0.62397 1.1742 0.3846 1.5656 0.0927 1.9048-0.59775 0.63539-1.2904 1.5821-3.9779 1.8525-4.0324 0.33888-0.0672 2.4954 2.4147 3.1311 2.9437 0.6381 0.53118 0.66902 0.59506 0.8468-1.2003 0.15196-1.511 0.27298-3.596 0.35569-5.6383 3.5129-1.594 4.9836-2.372 7.5999-4.8223 12.199-4.2435 23.023-12.937 23.718-18.257 0.0404-0.31804 0.0605-0.69262 0.0605-1.1149 0-6.459-5.145-25.252-7.2703-31.626"/>
  <path d="m127.4 172.62c-1.2406-0.0337 7.3556-20.596 8.6626-20.596 0.98201 0 3.9352 6.8693 5.1331 10.857 0 0 0.83967 2.7777 0.96541 3.1951-0.34628 2.7207-8.4326 6.7224-14.761 6.5444m8.6626-22.231c-2.4645 0-13.229 23.585-9.0777 23.701 4.8461 0.13515 17.572-3.8616 16.509-7.8443-2.1775-8.1621-5.8304-15.857-7.4316-15.857"/>
  <path d="m71.06 68.692c1.3781 1.5987 7.5193 9.3718 9.6446 11.552 1.3947 1.4279 1.5655 1.1006 0.49354-0.58364-1.6391-2.5784-7.6854-9.6067-9.647-11.459-0.98914-0.93219-1.3758-0.53386-0.49104 0.49084"/>
  <path d="m72.581 70.206c-3.4987 4.5495-1.4374 17.403 6.8694 17.403 0.306 0 0.306-0.74715 0-0.74715-6.6393 0-9.2105-11.784-5.9893-15.978 0.1874-0.24408-0.69263-0.92272-0.88001-0.67843"/>
  <path d="m76.603 75.215c-1.8264 3.9566 0.44358 12.394 2.8464 12.394 1.1172 0 2.6163-2.8369 1.7482-7.9486-0.05374-0.30392-1.0342-0.53589-0.98437-0.23466 0.58094 3.4253-0.24407 7.275-0.77566 7.275-1.1267 0-3.4798-7.4339-1.8241-11.02 0.12809-0.27769-0.88239-0.7448-1.0105-0.46528"/>
  <path d="m79.069 78.336c0.31548 0 0.60011 1.084 0.60011 2.5072 0 1.4493-0.18027 2.3958-0.408 2.3958-0.20165 0-0.68315-0.93932-0.68315-2.5594 0-1.5964 0.28226-2.3436 0.49104-2.3436"/>
  <path d="m115.9 68.147c-6.2645 2.9959-12.384 7.8087-17.489 12.968-1.3805 1.3948-0.98201 1.8977 0.48882 0.54329 4.8935-4.5092 11.661-9.6114 17.491-13.02 2.1206-1.2382 1.7529-1.5632-0.49084-0.49084"/>
  <path d="m112.74 70.653c0.92742 0.16339 1.8952 2.1704 1.8952 4.6847 0 6.599-2.6472 10.233-7.4529 10.233-2.7658 0-6.0155-2.7255-6.9738-5.6003-0.0975-0.29182-1.001 0.76376-0.96063 0.86812 1.2311 3.1999 4.7867 5.5601 7.9344 5.5601 5.4437 0 8.5654-3.8498 8.5654-11.061 0-2.2415-0.53589-4.9362-1.8098-5.6644-0.1069-0.06048-1.5015 0.92749-1.1978 0.97967"/>
  <path d="m110.9 71.948c0.98202 0.10888 1.6106 2.1253 1.6106 5.2445 0 4.7702-0.81124 7.5074-2.2226 7.5074-1.5062 0-3.4323-4.457-2.5025-10.42 0.047-0.30122-1.0508-0.4747-1.0983-0.17078-1.1148 7.1421 1.4588 11.405 3.6008 11.405 2.0612 0 3.3351-3.4489 3.3351-8.321 0-3.4323-0.62868-5.3916-1.919-5.9537-0.18289-0.08067-1.1101 0.67366-0.80411 0.70923"/>
  <path d="m110.18 73.433c0.40343 0 0.68072 0.97965 0.68072 3.2971 0 2.0969-0.24408 3.7858-0.62599 3.7858-0.40545 0-0.76376-1.6201-0.76376-3.8142 0-2.2866 0.46731-3.2687 0.70923-3.2687"/>
 </g>
 <path d="m89.353 118.15c-0.3651-0.0901-0.85863-0.0807-1.4706-0.0807-0.61456 0-4.4143 0.93932-4.4547 1.2239-0.0404 0.2871 2.7777 3.3113 3.7194 3.9234 0.93931 0.61456 2.4503-1.7577 2.5736-2.614 0.12304-0.85869 0.12304-2.3293-0.3678-2.4527" fill="#fffbda"/>
 <path d="m82.529 119.13c-0.04713 0.2777 2.8583 3.3327 3.883 3.9636 0.62128 0.38191 1.4422 0.3698 0.36779-0.73533-1.473-1.511-2.6021-2.6827-2.5737-2.9294 0.0202-0.17818 1.8929-0.74958 3.6363-1.1837 1.3758-0.34426 1.5038-1.001-0.0807-0.77802-1.6367 0.23264-5.1876 1.4113-5.2327 1.6628" fill="#0f141b"/>
</svg>
