<?xml version="1.0" encoding="UTF-8"?>
<!-- Created with Inkscape (http://www.inkscape.org/) -->
<svg version="1.1" viewBox="0 0 305.04 298.93" xmlns="http://www.w3.org/2000/svg">
 <g transform="translate(45.333 2.4857)">
  <path d="m191.18 168.08s-3.9906 11.117-0.1403 17.491c5.0458 6.8147 15.871 6.5047 15.871 6.5047 8.8952 6.0725 13.34-1.1916 13.34-1.1916s5.3357 0.88713 8.2955 0.14341c2.9693-0.75559 8.2985-9.6437 8.2985-9.6437s1.9199-15.553 2.8002-19.265c0.89227-3.7016-15.727-21.628-27.147-33.776-11.42-12.148-21.947-18.069-34.551-19.685-12.605-1.6281-18.092-3.245-29.651-10.946-11.572-7.7098-26.562-12.12-26.562-12.12s1.2417-1.2249-3.8019-6.7069c-5.0415-5.4814-13.096-3.8263-13.096-3.8263-13.358-23.556-25.38-28.459-39.083-33.838-2.7885-1.1024-5.8112-2.5824-8.8495-5.3952-10.841-10.001-21.762-29.569-23.268-32.349-1.9316-3.5585-4.4248-5.2524-4.4248-5.2524s-6.2273 0.41307-7.591 23.164c-0.88362 14.808 3.0217 29.094 2.6439 28.295 0 0-20.19 11.63-22.105 31.005 0 0-1.8998 1.653 2.2121 5.3849 0 0 1.9661 21.584 18.868 27.789 0 0 57.951 46.168 64.048 52.392 6.0966 6.2231 5.9537 13.413 5.9537 13.413-4.4209 8.1626-9.0539 12.552-21.425 17.723-20.887 8.7341-37.336 20.17-29.473 41.785 6.7444 17.194 37.028 10.995 37.028 10.995s5.4214 8.4203 5.2447 10.098l-8.9783 6.3599s-20.03 3.0926-21.536 6.3842c0 0-15.823-4.782-14.476 10.407 3.2976 10.582 16.272 5.4973 16.272 5.4973s7.1088 5.6864 14.485-0.62422c0 0 6.3552 7.7769 14.714 1.104 0 0 9.5503 1.8955 15.137-9.3075 5.5981-11.205 8.0114-15.916 7.7299-20.087-0.56074-8.269-3.0319-18.586-4.1092-18.843-1.077-0.25544-5.232 8.268-6.5703 10.316 0 0-3.8229-3.1089-4.6217-7.2855 0 0 7.5796-3.8312 13.065-9.0548 3.415-3.2389 7.9644-5.4862 10.08-7.141 2.751 1.0237 6.417 1.8506 11.025 0.90514 2.3872 5.2944 13.121 19.846 32.234 17.769 0 0 7.1239 12.884 5.797 17.479-1.3262 4.5947-9.7815 10.238-12.746 10.682 0 0-12.693-2.2015-12.066 9.6866 0.27516 5.0249 6.7696 10.157 15.722 6.3382 0 0 2.2332 4.6843 8.147 4.6762 5.9017-5e-3 7.6764-3.6198 7.6764-3.6198s3.6619 4.5916 9.1058 3.4154c5.4316-1.1844 7.9233-3.581 8.3183-8.493l-0.31608-2.7937c2.6151-5.0713 2.7828-11.496 0.31953-25.781-1.7952-10.447-5.0154-15.476-6.3492-15.267-1.8711 0.29177-3.4841 7.122-4.5857 8.2516-2.6918-3.9911-4.0511-9.8012-4.0511-9.8012s11.996-6.3566 9.4569-33.779c-2.5378-27.411-30.267-34.364-30.267-34.364l-6.8274-6.072c-2.2252-15.264-13.194-42.289-13.194-42.289s8.9214-5.0998 12.776-6.5764c7.2416-2.8012 19.934-3.5734 26.032 5.4205 7.7192 9.3308 19.159 44.304 19.159 44.304" fill="#00add1"/>
  <path d="m20.056 111.71c-3.8324 1.5329-30.821 10.849-36.155 17.079-5.3343 6.2304-22.052 32.486-19.205 71.757l10.453 16.536c2.4001 0.80879 11.12 4.6992 15.401 2.9802 4.4733-1.7876 5.2171-4.1423 5.5165-6.3582 8.3572 1.6695 10.501-0.24062 12.028-5.6889 0 0 8.0382-1.1271 7.5929-11.348-0.45997-10.234-9.7919-17.782-13.956-21.192 0 0-5.3567-40.156-2.2442-43.126 3.1011-2.9696 6.864-3.1069 12.326-2.7359 2.7894-7.8669 10.3-14.644 11.929-16.13 0 0-0.77277 0.74792-3.6859-1.7742" fill="#00add1"/>
  <g fill="#e85377">
   <path d="m16.781 165.88c-15.464-23.153-4.3006-47.204 7.5843-51.713 25.08 4.3 25.065-2.0679 38.608-2.3714 25.006-0.54357 51.731 45.172 11.228 64.871-20.624 10.035-49.346 1.3198-57.428-10.785"/>
   <path d="m1.497 85.781c-0.96271-0.47982-1.6052-1.547-1.0088-3.0343 0.46079-1.1502 2.5087-2.1679 3.5113-3.099 2.2948-2.1443 3.6002-2.4534 6.6572-0.77417 3.0715 1.6903 4.985 2.5327 4.985 2.5327s11.648-5.5265 13.441-6.1392c1.7903-0.61843 2.8814-0.84931 7.3307 1.3678 4.4374 2.2192 13.436 6.1235 18.255 6.1137 5.685-0.0051 13.166-4.7461 15.324-4.9174 2.1479-0.16956 3.2287 1.145 2.4071 2.9237-1.0186 2.2322-8.7151 5.8694-14.449 6.9759-7.5085 1.4779-12.718-2.1369-14.33-2.9023-1.6122-0.7654-11.501-4.8132-12.731-4.9718-1.2285-0.14729-11.695 6.22-13.99 6.3671-2.3025 0.16239-9.0475-3.9782-9.0475-3.9782-2.5988 2.6879-4.8286 4.3029-6.3564 3.5365"/>
   <path d="m69.991 275.9s-4.4628-4.8488-10.955-2.5764c-6.4925 2.2721-5.6236 11.197-5.6236 11.197s0.86342 6.9545 9.6289 6.5581c5.8655-0.62608 7.0353-3.4366 7.0353-3.4366s-3.217-5.5588-0.08528-11.742"/>
   <path d="m171.79 279.26s-8.2402-6.2465-15.117 0.58782c-4.1696 4.152-2.8383 16.146 7.5646 15.621 6.8189-0.26006 7.3178-4.1605 7.3178-4.1605s-3.6597-6.7316 0.2326-12.05"/>
   <path d="m-27.989 248.24c-5.6365-20.08 2.4669-28.427 6.3035-41.188 0.97659-3.2369-3.5673-13.853-10.412-13.406-4.1491 0.26593-4.0464 6.1022-6.1716 11.365-8.7482 21.695-7.6864 36.284 10.281 43.229"/>
   <path d="m243.15 163.27c4.1605 4.637 12.089 9.844 14.709 17.574 1.796 5.2652 0.35121 17.418-7.5922 26.47-0.43098-13.316-11.568-25.358-18.026-30.893-7.6016-6.5141-4.9235-18.881 0.60392-20.625 2.0714-0.66737 2.804-0.88352 10.305 7.4738"/>
  </g>
  <path d="m9.2641 63.401s3.1056 1.8275 0.46874 7.9364l5.3645 4.3674s20.824-8.1944 26.227-10.445c-0.98651-5.2739-0.97202-5.9736 2.998-5.4266 8.7686 1.2026 18.088-1.129 23.01-4.8246 3.8691-2.9091 5.9953-2.6421 7.5819 10.268 0 0 11.973 5.176 17.505 13.265 4.2877-1.8166 11.197 0.30941 17.055 4.748-15.651-0.68869-20.666 5.1728-16.213 23.908 3.5425 14.963 29.234 27.884 38.226 17.735 0 0-3.302 10.516 2.0679 22.228 5.3685 11.711 8.2622 18.384 20.391 26.045-2.5091-0.31957-11.875-2.404-20.208 3.587-14.995 13.779-14.317 30.863-8.0245 50.083 0 0-21.057-18.272-0.31163-51.012 4.0828-6.4449 5.9866-19.952-0.64108-30.951-4.212-6.1066-8.1124-8.7573-18.284-13.598-21.945-10.46-27.036-35.9-20.573-46.834 0 0 2.0845-4.3301-13.018-12.075-1.6985 2.3982-6.746 9.7219-16.527 8.8523-9.8252-1.4037-13.588-10.521-13.588-10.521l-10.76 4.2045s-1.8922-0.57351-4.5328 0.75522c-2.6435 1.3156-11.833 5.7033-11.833 5.7033l-6.9326-3.6374c-2.7042-0.97052-5.309 1.957-7.2691 3.3342 0 0 2.6978-11.637 7.8214-17.699" fill="#595757"/>
  <path d="m46.662 66.632c-0.26179-1.6991 0.0594-2.6921 2.6391-2.2996 6.9296 1.0662 13.407-0.32744 17.301-3.9873 1.2822-1.2081 2.157 0.01968 2.5273 2.1463 1.0728 6.2324-0.44608 12.291-8.9529 14.169-6.0093 1.319-12.635-3.8705-13.515-10.028" fill="#f9be00"/>
  <path d="m8.5508 89.224s2.1705 6.5943 4.9535 9.5238c0 0 1.1589-3.2073 4.0079-4.1842 0 0-5.5849-1.9717-8.9601-5.3398" fill="#922f00"/>
  <path d="m41.202 92.957s5.1148 1.0687 7.7499 4.6731c0 0 4.989-6.3505 5.8122-9.3549l-3.0445-0.63525s-6.6181 4.7951-10.518 5.3178" fill="#922f00"/>
  <path d="m13.498 98.745s1.6281-3.3503 4.4033-4.3972c0 0 11.4 2.9916 23.536-1.3927 1.2813 0.11765 6.1421 2.3442 7.5044 4.3672-3.7617 4.2855-11.327 11.649-21.479 10.304-10.828-1.4334-13.964-8.8802-13.964-8.8802" fill="#ed8599"/>
  <g fill="#595757">
   <path d="m93.162 178.82c-2.0536 5.4666-7.106 10.83-7.106 10.83s1.168 15.749 11.283 22.474c0 0-4.985-9.7827-3.455-26.182 0 0-0.20196-4.136-0.72235-7.1228"/>
   <path d="m-16.922 129.88s8.7272-3.1076 15.518 9.4513l0.076146 8.2454s-8.2457-14.769-22.774-6.1083c0 0 4.4838-8.0778 7.1782-11.588"/>
   <path d="m-27.355 151.1s-4.2366 11.016-4.8029 14.528c0 0 15.985-15.345 33.301 4.227l-1.8873-14.361s-11.108-14.847-26.611-4.3943"/>
   <path d="m172.74 125.15s-4.1062-16.067 14.7-14.713c0 0 8.2071 3.2952 11.289 6.1488 0 0-19.38-4.7759-22.684 13.459z"/>
   <path d="m180.62 138.59 4.7977 13.326s4.3133-25.419 34.413-15.97l-11.746-11.395s-22.469-6.7022-27.464 14.039"/>
   <path d="m56.426 274.26s7.2431-4.2429 13.394 1.5988c0 0 4.0869-4.5585 10.08-2.8627 6.0074 1.7073 11.287 7.2429 5.1858 16.396 0 0 8.8979 0.77114 13.86-6.8372 0 0 3.1133-9.6663-6.8112-13.227-9.9361-3.5591-22.682-1.2316-22.682-1.2316s-14.162 1.7198-14.888 4.6609z"/>
   <path d="m153.06 275.04 5.2476 3.0053s6.5158-3.3121 13.812 1.3092c0 0 4.2004-3.6994 9.2998-2.5803 5.2361 1.143 6.8853 4.8839 7.4432 7.7439l2.0518-9.2047s-5.3085-9.498-30.327-5.5744c0 0-4.4707 4.7695-7.5276 5.3018"/>
  </g>
  <path d="m117.18 196.22c-4.7864 2.0602-13.066 4.0778-22.8-0.045-2.3628 14.597 10.766 34.489 32.671 32.983 0 0-13.515-13.827-9.871-32.938" fill="#fff"/>
  <path d="m4.4574 85.205 3.6049-2.8393s7.0825 3.948 8.8362 3.8709c1.761-0.10224 14.105-6.6035 14.105-6.6035s19.253 9.2218 20.724 8.0038c-6.3068 5.2698-33.129 15.819-47.27-2.4316" fill="#fff"/>
  <path d="m125.59 147.31c-11.256 25.521-29.244 31.912-32.188 31.511 0 0-2.5137-9.1914-4.9-11.565 14.687-22.248 0.52878-47.36-17.75-54.022 0 0 8.2267 3.5443 19.796 4.4026 0 0 7.0146 10.668 19.714 15.597 12.689 4.9429 15.326 14.077 15.326 14.077" fill="#0093b2"/>
  <path d="m90.55 117.64s6.7858 10.804 21.527 16.76c12.957 5.5816 13.473 12.824 13.473 12.824s3.7906-4.603 5.9425-22c-8.0525 5.4654-19.338 3.7524-30.199-7.604 0 0-6.5099 0.92913-10.743 0.0204" fill="#3e3a39"/>
  <g fill="#0093b2">
   <path d="m117.32 77.81s0.4282 4.0248-3.2335 5.4556l2.7999 1.3048 5.1385 0.58414s-1.4314-3.4653-4.7047-7.3433"/>
   <path d="m100 216.78c-26.199 36.081-58.145 19.958-58.145 19.958s4.5057 22.705 40.806 12.597l10.561-5.3492s5.7007-2.676 10.805-7.0506c5.0928-4.3731 10.429-7.899 12.862-8.635 0 0-11.787-3.1407-16.888-11.521"/>
   <path d="m92.736 244.34s-3.3922 7.1663-9.0974 12.511l-4.3773-6.9192z"/>
   <path d="m39.942 280.68s2.4367 7.4377 14.092 5.3358l2.0679 3.0304s-15.423 5.5956-16.159-8.3659"/>
   <path d="m69.45 285.04s4.357 4.5186 11.049 2.9086c6.434-1.7099 7.0414-5.4696 7.0414-5.4696s-1.3308 9.3436-8.1329 9.35c-9.5912 0.0106-9.9577-6.7891-9.9577-6.7891"/>
  </g>
  <path d="m87.327 283.85s7.6888-1.8909 11.361-6.7628c0 0 0.67509 3.6812-0.16869 6.0761-0.84591 2.3827-7.6827 7.5168-13.158 5.8974 0.43327-0.76036 1.9653-5.2107 1.9653-5.2107" fill="#3e3a39"/>
  <g fill="#0093b2">
   <path d="m98.944 277.17s5.4613-7.7791 7.0897-11.2l-6.8215 17.02z"/>
   <path d="m140.64 282.83s2.7769 7.1018 13.881 4.88l0.66754 3.442c-9.409 2.8515-15.739-1.4667-14.552-8.3212"/>
   <path d="m170.4 285.81s2.6702 5.8824 9.5576 5.873c6.8771 5e-3 8.9897-5.328 8.9897-5.328s-0.78418 8.9602-9.4371 9.1086c-10.451 0.18386-9.1102-9.6536-9.1102-9.6536"/>
   <path d="m175.59 244.5s-8.657 7.4458-11.087 14.889c0 0-2.6713-9.5484-5.904-12.988 0 0 7.8818 0.32109 15.323-4.7844z"/>
   <path d="m123.78 219.95s12.488 16.422 34.994 10.015c22.518-6.4086 24.628-21.01 24.628-21.01s4.2492 37.788-25.077 37.966c-29.323 0.18958-34.545-26.971-34.545-26.971"/>
  </g>
  <path d="m100.42 216.73s7.3141 7.1411 20.069 2.516c0 0 3.3162 6.0701 5.675 9.6026 0 0-13.462 3.1858-25.744-12.119" fill="#dcdddd"/>
  <g fill="#0093b2">
   <path d="m147.13 118.01c19.584-5.2367 26.295 6.9976 26.295 6.9976-3.7661-6.5206-13.236-15.33-35.761-9.9293-22.536 5.4032-42.94-5.3855-42.94-5.3855s8.6824 19.694 29.582 18.699c17.099-7.4972 22.824-10.382 22.824-10.382"/>
   <path d="m191.73 167.93s1.6421 11.916 14.699 13.861c0 0-2.2725 6.695 0.0121 9.7954 0 0-10.121 2.6279-16.333-7.9869-1.6372-8.8152 1.6232-15.67 1.6232-15.67"/>
   <path d="m206.44 183.27s7.8432 6.5201 17.31 0.96479c0 0-4.2389 11.762-10.931 10.126-6.7023-1.6237-8.3383-3.9095-6.3792-11.091"/>
   <path d="m224.4 181.79s7.0251 1.1314 10.778-3.2706l1.7963 1.9601s-4.2467 7.5076-7.0221 9.7939c-2.7645 2.284-9.7857 0.82486-9.7857 0.82486s3.4144-4.898 4.2334-9.3083"/>
  </g>
  <path d="m228.28 165.85s25.497 17.884 21.978 41.096c0 0-1.0551-19.17-19.812-31.76-0.76832-0.53751-3.0949-6.1689-2.1674-9.3356" fill="#c94768"/>
  <path d="m-21.845 208.7c-11.388 24.763-8.2034 34.559-6.3269 39.606-11.018-13.986 2.6347-49.625 2.6347-49.625 1.313 0.29955 5.1839 4.1582 3.6938 10.019" fill="#c94768"/>
  <g fill="#0093b2">
   <path d="m1.0412 194.03s2.4516 3.1794 7.6503 2.9955c5.1856-0.18057 6.1904-2.2808 6.7311-3.4552 0 0 1.0001 5.5479-0.62715 8.8248-1.6408 3.2776-6.4607 5.2843-6.4607 5.2843s0.5353-6.1039-7.3854-8.1026z"/>
   <path d="m-21.473 203.94c5.7474 1.3198 23.296 6.967 29.814 1.8048 0 0-0.36383 6.9514-4.7591 8.0173-4.4051 1.0738-7.4418-0.074-7.4418-0.074s-1.2142 7.6645-9.5751 6.5238c-8.1387-1.1078-12.033-3.5906-12.033-3.5906s3.7567-7.9031 3.9947-12.681"/>
   <path d="m-1.6386 133.63c1.79-4.4952 8.6746-4.7204 13.339-4.306 0.86685-1.9297 2.0737-3.629 3.0731-5.2713-16.406 1.2586-16.412 9.5776-16.412 9.5776"/>
  </g>
  <path d="m15.435 96.03s12.412 1.2766 25.055 8.6443c0 0 6.7417-4.1556 8.6124-7.4262 0 0-3.8172-3.3505-8.383-4.1662 0 0-11.933 4.9266-23.294 1.1938z" fill="#ce7486"/>
  <g fill="#c94768">
   <path d="m78.54 117.55c13.074 41.805-36.561 61.003-57.47 52.142 9.7525 12.583 42.065 15.756 60.523 3.1531 22.647-20.16 12.135-44.909-3.0529-55.295"/>
   <path d="m53.779 283.36s7.2082 6.4623 14.976 1.299l1.5604 3.4429s-3.1085 4.1717-9.4929 2.7843c-6.3844-1.3894-7.0442-7.5248-7.0442-7.5248"/>
   <path d="m155.12 285.75s4.0462 8.5399 14.952 2.8178l1.388 3.3526c-1.543 2.5279-5.5565 4.6099-9.7571 3.4062-6.5167-1.8708-7.387-7.4892-6.5844-9.5764"/>
  </g>
  <path d="m25.353 139.19c-1.5481-0.53462-2.9936-2.965-2.1733-5.7883 0.68961-2.3214 2.602-4.5286 5.2943-3.6991 2.5522 0.78231 3.1462 4.0565 2.307 6.2822-1.0249 2.666-3.2148 3.9739-5.4284 3.2045" fill="#f3b1b9"/>
  <g fill="#0f141b">
   <path d="m106.77 76.829c-10.879-22.641-24.284-30.381-38.394-35.473-5.2064-1.8706-7.6454-3.1047-10.556-5.8074-5.7376-5.336-11.881-14.039-17.609-23.32-3.8796-6.2725-8.2706-13.117-9.8242-14.169-1.2951-0.88194-2.363-0.79141-3.8159 1.0052-1.4394 1.7534-3.5743 5.9839-4.9768 13.669-2.045 11.175-0.89745 29.296 2.6553 39.965 0.14966 0.46804 0.83018 2.067 1.2943 1.9146 0.3622-0.13124 0.06236-1.5988-0.10735-2.1826-2.7842-11.644-3.682-28.522-1.6531-40.007 1.3363-7.5897 3.194-10.858 4.0343-12.039 0.57906-0.82324 1.2149-0.96804 2.096-0.33089 1.3361 0.98045 5.2308 7.3958 8.7705 13.571 5.8728 10.253 12.403 18.553 17.343 22.898 2.7245 2.3982 5.7628 4.5141 11.491 6.6183 13.74 5.0367 27.765 14.544 37.469 34.997 0.79413 1.6643 2.2348 3.578 3.7797 5.2683 0.93831 0.0068 1.8072 0.02606 2.6922 0.0014-2.1807-2.4452-4.0303-5.2005-4.6934-6.5878"/>
   <path d="m23.824 49.107c-7.2827 4.1544-20.118 14.322-22.817 32.03-0.084164 0.49512 2.2857-0.96366 2.3556-1.4427 2.6955-16.277 15.479-26.052 21.216-29.347 0.42762-0.24485-0.32647-1.4834-0.75737-1.238"/>
   <path d="m52.882 112.78c-40.303 8.8582-46.001-15.852-47.734-27.74-0.071406-0.48166-1.6449 1.0429-1.6541 1.0684 1.4223 11.906 7.3335 38.729 50.693 28.234 5.4207-1.3154 5.1441-2.9744-1.305-1.5652"/>
   <path d="m56.92 113.91c21.786-5.7769 44.584 21.592 33.217 46.268-7.905 17.148-37.33 27.105-61.585 13.596-25.783-14.347-21.339-48.54-4.4226-58.879 9.0738 3.024 20.072 2.3952 32.791-0.98556m36.335 45.881c11.034-30.315-17.531-55.599-39.502-47.085-13.401 5.1958-23.175 3.0506-30.526 0.45909-21.666 12.404-22.439 48.626 4.812 63.464 22.339 12.17 57.521 4.277 65.216-16.838"/>
   <path d="m130.46 125.67c-0.72398 5.9203-0.85184 11.605 0.51324 16.548 1.987 7.2035 6.9605 17.95 12.104 23.185 4.6151 4.6901 7.4802 6.7155 9.7123 8.4184l2.7532-0.27495c-2.9117-1.9465-6.0383-4.37-11.278-9.4683-5.2413-5.1099-9.9466-16.805-11.538-22.286-1.2615-4.3482-1.2533-10.504-0.65784-16.282 0.0641-0.6109-1.5139-0.61212-1.6048 0.17722"/>
   <path d="m143.22 242.8c-10.942-5.2595-19.983-16.933-20.108-36.156-0.12544-17.902 6.9658-28.549 16.307-31.51 7.4987-2.3621 17.248-0.63518 24.591 3.7721 10.621 6.3854 16.932 16.67 18.31 31.974 1.1709 12.947-3.3532 27.343-12.922 32.315-6.36 3.3087-16.771 4.1334-26.179-0.39413m-22.802-36.024c0.0468 17.94 7.9632 31.72 21.78 37.957 9.6536 4.3535 19.763 4.3485 27.862 0.53379 11.012-5.1752 16.202-19.759 15.085-34.11-1.2688-16.465-8.7678-27.433-19.747-33.876-9.2643-5.431-18.298-6.7792-26.779-4.0521-10.606 3.4347-18.251 14.899-18.201 33.547"/>
   <path d="m50.99 210.88c5.74-5.0747 14.592-9.8137 23.812-13.679 9.0186-3.7819 14.679-7.7972 18.469-16.68 0.19376-0.45288-0.46572-3.2617-0.6589-2.8056-3.5077 8.4366-9.8369 13.926-18.601 17.581-9.2553 3.8709-18.146 8.3887-24.807 13.973-7.0909 5.9468-12.799 15.969-9.526 27.24 5.103 17.564 26.23 18.501 41.347 14.258 1.476-0.42742 3.2122-1.1591 2.9464-1.7875-0.18044-0.44904-2.591 0.032-3.0805 0.11714-15.261 2.9301-33.716 2.2286-38.235-13.021-3.2588-10.985 1.9455-19.549 8.3201-25.191"/>
   <path d="m115.31 227.45c-0.15384 0.0949-4.264 2.1601-11.636 8.2893-7.1841 5.9633-11.887 7.9484-11.956 7.9722-0.80551 0.34473-2.9443 1.3884-2.7699 1.842 0.14966 0.46806 2.921-0.27009 3.3832-0.4528 0.28613-0.11809 5.0546-1.8309 12.469-7.9897 7.192-5.9885 12.981-8.2949 13.014-8.3129 0.44329-0.21351-2.0668-1.5756-2.5089-1.3555"/>
   <path d="m126.67 227.89c-2.8141 1.2363-10.716 0.59158-20.65-6.9589-12.816-9.7416-11.085-26.38-11.229-34.108-0.18684-9.7046-2.1564-15.769-5.5998-21.18-0.69238 0.7203-1.357 1.463-1.9328 2.2857 3.5544 4.1895 5.6483 11.59 5.6274 18.795-0.02378 8.7674-1.8883 25.261 11.421 35.902 10.095 8.0634 19.132 8.6659 23.091 6.8946 0.44332-0.21351-0.28372-1.8248-0.72985-1.6278"/>
   <path d="m85.448 189.93c0.51865 6.1486 2.802 16.678 12.123 23.711 0.35525 0.27889-0.0388-2.1809-0.53151-2.6608-6.5586-6.323-9.5875-16.398-10.17-22.296-0.02833-0.30174-1.4375 0.86368-1.4055 1.2432"/>
   <path d="m94.241 195c-0.38915-0.23889-1.2243 1.1878-0.83631 1.4201 5.1734 2.994 13.664 4.7375 23.138 0.94781 0.21353-0.76983 0.48831-1.5401 0.78899-2.2399-9.8196 4.2213-18.795 2.3834-23.091-0.12656"/>
   <path d="m98.653 212.76c-0.76485-0.51767-0.69226 1.3473 0.08534 1.8593 4.0716 2.7412 12.083 5.0488 20.607 2.0857-0.16179-0.53749-0.41637-1.0214-0.8713-1.4226-8.1301 2.7379-15.558 0.32723-19.806-2.5257"/>
   <path d="m118.27 77.855c-4.6497-4.0588-9.8986-4.0345-13.704-3.1074-0.48372 0.11831-0.0541 1.4508 0.43799 1.3413 3.3666-0.82475 8.444 0.23683 11.993 3.4292 1.9955 1.7925 3.3255 4.0491 4.0667 6.0358 0.65302 0.09077 1.3276 0.10958 1.995 0.20463-0.62921-2.4393-2.0411-5.4988-4.7906-7.9052"/>
   <path d="m131.63 125.22c3.9367 8.655 11.085 28.243 13.915 41.527 0.0974 0.48735 2.329 2.2012 2.223 1.729-3.5912-16.553-10.263-36.019-14.276-44.565-0.21351-0.44329-2.0612 0.86325-1.8643 1.3094"/>
   <path d="m205.9 120.69c-11.788-10.605-20.714-11.948-31.104-13.421-10.156-1.4414-17.434-4.8501-26.661-10.757-13.487-8.6269-37.245-18.591-51.17-12.127-4.9813 2.3224-8.7454 10.046-4.742 22.957 3.0637 9.8648 17.566 22.594 30.141 22.388 5.2153-0.0798 12.544-5.7666 18.874-8.4197 12.391-5.1972 21.117-5.2037 27.356 0.24946 7.9262 6.9265 20.979 46.331 22.008 47.546 0.30236 0.36648 1.4879-1.5335 1.3118-1.997-3.385-9.0874-13.244-39.191-22.145-46.885-6.7772-5.8524-14.641-7.1036-29.398-0.79545-5.5591 2.3856-12.821 8.3155-18.088 8.3789-10.677 0.12805-24.545-11.173-27.902-20.506-3.0398-8.4745-2.4202-19.221 4.153-21.989 13.314-5.6238 39.994 7.5211 48.448 12.925 9.6612 6.1916 16.255 9.3349 27.568 10.791 10.414 1.3351 18.062 3.214 29.51 13.519 11.602 10.433 26.354 26.185 32.123 34.533 0.85722 0.0892 2.5326 1.4331 3.3929 1.8728-4.9036-8.6308-20.385-26.287-33.675-38.266"/>
   <path d="m191.58 164.65c-0.24287 0.67949-5.853 15.541-1.1286 22.099 4.7285 6.5816 14.986 6.7428 16.707 6.3352 0.47544-0.10711 0.0651-1.8378-0.40215-1.7224-0.84753 0.18164-9.8969 0.18655-14.278-5.9166-4.1863-5.8224 0.25811-19.435 0.4024-20.194 0.0883-0.472 0.90245-2.9582 0.43161-3.1181-0.46035-0.15835-1.2406 1.1531-1.7264 2.5122"/>
   <path d="m204.53 171.66c-0.4433 0.21351 0.39945 2.4895 0.61293 2.9328l1.2815 2.8778c0.11237 0.25305 0.2445 0.23004 0.50422 0.2734 0.28187 0.0532 0.56051-0.03 0.76899-0.20211l1.8312-1.9886c0.65374-0.72722 1.9096-2.2817 1.6628-2.5249-0.33371-0.35079-1.6578 0.63627-2.0196 0.96506 0 0-0.85848 0.72535-1.8344 1.6177-0.5989-1.2281-1.108-2.0186-1.108-2.0186-0.2112-0.43009-1.2502-2.1506-1.6957-1.9299"/>
   <path d="m206.97 190.44c-0.8909-1.4567-0.0613-7.6707 1.0096-13.399 0.0861-0.48524-1.434-0.85779-1.5298-0.37086-0.93285 4.9947-2.4454 12.88-0.89567 15.29 1.3497 2.0958 6.6527 5.0686 11.773 2.8548 4.897-2.1135 7.7686-12.34 8.3653-14.368 0.34097-1.1532 0.82976-3.3169 0.35963-3.4532-0.47026-0.15664-1.3335 1.7349-1.6635 2.6579-1.102 3.0645-4.1443 11.685-7.6554 13.198-4.2466 1.8469-8.9077-1.0352-9.7605-2.4117"/>
   <path d="m236.2 180.1c-0.58907 1.0397-3.1405 5.3672-5.6573 8.1738-2.4131 2.7169-6.1241 2.869-10.069 1.9578-0.47772-0.12129-0.81171 1.6202-0.34391 1.7432 4.2155 1.0822 9.359 1.0044 11.947-2.0122 2.8362-3.3188 5.0053-7.8438 5.5398-8.7783 0.23257-0.42555-1.1749-1.5026-1.4141-1.0759"/>
   <path d="m173.9 113.75c-3.5533 4.5858-1.7551 11.185-1.6849 11.449 0.11252 0.45066 1.7672 0.83384 1.642 0.38877-0.0121-0.066-1.4974-6.6032 1.5558-10.537 1.9843-2.557 5.7891-3.8943 10.661-3.8771 0.45472-0.0106 0.13254-1.5872-0.31121-1.5917-5.4127-0.0184-9.5434 1.1813-11.861 4.1678"/>
   <path d="m182.02 117.95c-5.7693 4.2861-6.3769 11.773-6.3959 12.077-0.0237 0.45052 1.3923 1.6556 1.4365 1.2049-1.5e-4 -0.0682 0.80799-7.7863 5.9847-11.609 3.705-2.7476 8.8497-3.439 15.295-2.0499 0.4356 0.0945 0.78385-1.5063 0.3432-1.6102-6.9419-1.4832-12.566-1.056-16.664 1.9884"/>
   <path d="m187.93 125.7c-6.872 4.7187-8.0108 13.02-8.0748 13.343-0.0575 0.45299 1.3958 1.597 1.4748 1.1505 0.0119-0.0702 1.4068-8.3591 7.6866-12.674 4.5879-3.1297 11.034-4.0136 18.301-2.3212 0.44883 0.0924 0.65485-1.4839 0.21752-1.5883-7.9426-1.7076-14.632-1.3232-19.603 2.0913"/>
   <path d="m196.13 135.51c-9.0013 5.0537-11.286 15.405-11.383 15.819-0.12758 0.44136 1.3065 1.7693 1.4104 1.3287 0.0157-0.10497 2.5716-10.497 10.949-15.202 5.86-3.2797 13.734-3.5569 22.443-0.555 0.42394 0.16472 0.44717-1.5806 7e-3 -1.7187-9.2286-3.1534-17.157-3.1914-23.432 0.32951"/>
   <path d="m232.17 174.85c-5.0813-3.9836-3.1165-17.826 1.7546-17.953 1.4236-0.0437 3.1188 1.1402 5.3072 3.6921 7.7426 9.05 15.912 10.885 18.083 23.839 1.1018 6.1316-1.6631 14.956-6.6429 20.944-1.0806-10.355-8.6215-22.794-18.502-30.522m1.444-20.495c-8.285 0.53965-8.1121 17.894-2.9529 21.84 9.2214 7.0495 17.216 18.929 18.663 30.686 0.22234 1.6685 0.76072 1.3941 1.9215 0.19359 7.4903-7.7958 9.0776-16.282 8.2642-23.233-1.4494-12.394-13.477-17.404-19.933-25.62-2.2383-2.8543-4.2384-3.9743-5.9626-3.8666"/>
   <path d="m18.633 111.43c-3.634 1.2223-20.954 7.243-26.775 10.541-10.386 5.8717-14.717 13.309-18.89 23.93-7.1493 18.243-10.788 35.454-9.4202 52.009 0.3843-1.0415 0.99365-2.0234 1.8909-2.8781-0.04341-15.572 4.2329-34.649 9.687-48.546 3.8557-9.8194 9.0119-18.11 17.291-22.545 7.1465-3.8308 28.83-11.163 29.044-11.248 0.46228-0.18274-2.3625-1.4151-2.8267-1.2627"/>
   <path d="m-1.7682 133.03c-2.3224 7.3044 1.9855 38.879 2.5292 42.139 0.083507 0.47958 2.4099 1.55 2.3246 1.0605-1.1006-6.5162-4.9934-36.132-3.0385-42.303 1.0288-3.2698 7.3932-3.7272 12.054-3.5404 0.1077-0.75138 0.22663-1.3991 0.56441-2.0815-5.0774-0.23357-12.959 0.0688-14.432 4.7246"/>
   <path d="m-4.7407 214.06c-0.71217 2.4071-2.1875 4.0713-5.2065 4.8257-3.0289 0.76594-10.947-1.29-14.713-2.6192-0.46033-0.15837-1.2646 1.5049-0.7996 1.6897 3.22 1.2317 11.984 4.3443 16.008 3.1509 3.2676-0.97792 5.5313-3.5121 6.4202-6.5517 0.12357-0.46451-1.575-0.96269-1.7085-0.49647"/>
   <path d="m-5.2723 198.29c-0.085892 0.48519 2.4132 1.0212 2.8909 1.1424 3.0266 0.74743 8.2551 2.1207 9.2654 5.0222 1.2292 3.5367-0.77104 6.746-2.717 7.9385-2.6506 1.6269-11.637 0.27144-17.904-1.1982-0.47774-0.12127-2.7756-0.53897-2.934-0.0786-0.15607 0.47356 1.9935 1.3703 2.4677 1.5297 7.2132 2.3502 16.218 3.3907 19.09 1.7968 2.5198-1.3997 5.1021-6.0454 3.6771-10.57-1.3877-4.4468-9.3353-5.5631-10.462-5.7516-0.4852-0.0859-3.2889-0.31668-3.3715 0.16796"/>
   <path d="m0.71046 192.91c-0.48531 0.0504-0.49047 2.1538-0.49022 2.6444-0.004011 2.1884 0.11373 3.2753 0.026639 3.7342-0.09223 0.44882 1.5177 0.9863 1.6852 0.55844 0.070438-0.18263 0.44921 1.2099-0.25055-4.1395-0.16619-1.1501-0.48375-2.8497-0.96795-2.7994"/>
   <path d="m14.132 193.74c0.72266 8.7097-0.50163 10.798-6.4762 13.618-0.44328 0.21352 0.31675 1.819 0.76119 1.6122 6.5527-3.1004 8.8864-5.5745 7.9821-15.118-0.81608-8.5612-8.834-15.316-15.719-19.647-0.41808-0.26797-2.1835-1.0135-2.4482-0.59598-0.26967 0.40818 0.88236 1.3491 1.4646 1.718 6.2708 3.9813 13.837 11.187 14.434 18.416"/>
   <path d="m-42.88 229.71c-0.94117-7.8903 6.0136-26.147 7.0087-29.614 0.98431-3.4665 1.95-5.3763 3.9983-5.2041 4.6761 0.41245 11.446 8.4294 8.9265 14.121-6.0863 13.718-10.196 24.568-6.2832 37.855-8.6351-4.3026-12.779-9.8079-13.65-17.157m21.492-20.031c2.0997-4.8497-1.2118-11.714-5.8742-15.242-4.5988-3.4907-8.7674-2.4404-10.319 4.0458-2.7761 11.603-8.8305 22.19-7.5847 31.554 1.1496 8.5393 6.4685 14.02 16.376 18.654 1.3641 0.65187 1.7043 0.53128 1.2638-1.1571-3.9128-13.84 0.78997-25.563 6.1389-37.854"/>
   <path d="m-17.019 129.31c-0.43742 0.11011 0.02396 1.703 0.44583 1.5819 4.5391-1.2709 10.866 1.0282 14.211 8.8494 0.1741 0.41266 1.6784-0.22406 1.5092-0.64786-4.2753-10.267-11.001-11.26-16.165-9.7833"/>
   <path d="m-24.322 141.28c-0.33342 0.29658 0.516 1.5935 0.86034 1.2814 0.02898-0.0293 4.4492-3.4429 9.8804-2.7666 4.1527 0.51385 8.1596 3.1593 11.596 8.4632 0.2362 0.37802 1.4971-0.71728 1.251-1.0936-3.7148-5.7366-7.9734-8.9256-12.629-9.4974-6.2033-0.75994-10.773 3.44-10.959 3.6155"/>
   <path d="m-28.22 151.22c-0.30449 0.32564 0.51749 1.7977 0.80819 1.4711 0.02732-0.0388 4.6559-4.465 10.975-4.4224 5.1153 0.0361 10.298 2.7388 15.309 8.2494 0.29659 0.33341 1.3758-0.92451 1.0792-1.2579-5.3482-5.8607-10.896-8.8619-16.49-8.8855-7.0523-0.0464-11.5 4.6469-11.682 4.8455"/>
   <path d="m-18.231 158.68c-8.7528 0.13049-14.289 6.443-14.519 6.7116-0.3045 0.32562 0.94406 1.4099 1.2325 1.07 0.0604-0.0445 5.2847-5.5484 13.308-5.6601 6.1152-0.0903 12.503 2.8358 18.487 9.3791 0.29659 0.33339 1.3041-0.92565 0.99483-1.2534-6.3349-6.903-12.898-10.352-19.504-10.248"/>
   <path d="m78.538 250.87c1.5482 2.0612 4.7519 7.407 5.4931 10.56 0.10702 0.47546 0.54613 2.5492 1.0415 2.5958 0.48937 0.0512 0.56512-1.3728 0.58976-1.8576 0.17504-4.4545-2.7357-8.7439-5.1039-11.914-0.30696-0.39296-2.3141 0.23257-2.0177 0.62394"/>
   <path d="m91.799 244.25c0.47703 2.1523 1.9389 5.2641 5.1948 8.0874 0.55376 0.47946 1.8657 1.321 2.187 0.95495 0.33184-0.36446-0.63359-1.3686-1.0047-1.6992-3.0435-2.7038-4.2158-5.9134-4.6386-7.7153-0.10873-0.48539-1.8436-0.0981-1.738 0.37084"/>
   <path d="m84.027 259.62c-2.078 1.5886-5.0427 4.0403-8.6929 5.7211-2.5925 1.1977-5.9943 1.957-9.0685 2.4583-5.6179 0.94421-11.803 3.1866-13.005 4.4999-0.33181 0.36449 2.0312 1.2343 2.2942 0.82727 0.75989-1.1546 6.29-2.8127 11.173-3.5574 4.3112-0.64845 7.1525-1.4499 9.6207-2.6022 2.956-1.3802 6.6083-4.2993 8.7516-5.9357 0.39294-0.30694-0.68242-1.7076-1.0738-1.4112"/>
   <path d="m103.75 242.5c0.61456 2.5509 2.472 11.711 2.9052 15.314 0.42116 3.5929-0.14353 6.0837-1.998 10.686-1.5672 3.9156-4.6608 10.513-6.0438 13.134-2.1964 4.1571-9.0687 8.1186-13.291 6.8585-0.4835-0.15433-1.2575 1.4082-0.78569 1.5544 4.9441 1.4699 12.986-2.5339 15.73-7.764 2.287-4.3412 4.9526-9.4573 6.5588-13.211 2.1407-5.0248 2.5929-7.6159 1.9305-11.696-0.676-4.0777-2.6486-12.51-3.5506-15.009-0.59656-1.6647-0.82168-1.9594-1.3631-2.0355-0.73397-0.14479-1.5408 1.2292-1.7539 1.5322-0.0175 0.0371-5.5991 8.9208-5.5991 8.9208-0.26566 0.43129 1.2665 1.3436 1.5206 0.92445l5.3962-9.2582s0.22854-0.44869 0.34801 0.0416"/>
   <path d="m95.049 272.07c3.1875 2.8457 3.8737 7.6079 2.5975 11.473-0.50385 1.5292 1.732 5e-3 2.0868-1.6753 0.80072-3.7576 0.09853-7.9272-3.3609-11.219-3.5008-3.3337-15.984-4.4656-23.466-3.247-0.71108 0.12371-2.6689 1.3064-2.2118 1.2507 6.3407-0.79743 19.779-0.66701 24.349 3.4176"/>
   <path d="m48.085 291.04c2.36 0.22626 5.167-0.082 8.3535-1.3183 0.44905-0.18042-0.11511-1.6394-0.59507-1.4604-3.0269 1.1881-5.5972 1.4074-7.6941 1.1012-4.9489-0.7364-8.0211-4.71-7.6477-9.0546 0.44805-5.2351 4.2416-7.398 8.9514-7.4129 3.797-0.0104 6.8298 2.082 7.0077 2.2057 0.39608 0.27859 1.4332-1.1628 1.0348-1.4546-0.19415-0.13655-3.6887-2.3972-8.0418-2.4826-6.3093-0.12808-10.727 2.948-11.355 9.142-0.51951 5.2356 3.4903 10.103 9.9726 10.741"/>
   <path d="m52.15 282.25c-0.1435 5.2424 4.6696 9.6935 9.9315 9.883 5.1768 0.18217 7.7059-2.4834 8.6976-3.692 0.30292-0.39349-1.0345-1.3226-1.3436-0.94506-1.0138 1.2227-2.8578 3.1181-7.4636 2.8399-4.616-0.27642-7.5794-4.2458-7.6348-8.1552-0.0914-5.5739 3.605-8.7058 8.3918-8.5538 3.8753 0.0953 6.0838 2.0074 6.8507 2.8222 0.3337 0.35081 1.4182-0.48548 1.0812-0.83572-0.92714-0.98008-3.3342-3.747-7.8796-3.7608-6.2674-0.0263-10.449 3.5029-10.631 10.398"/>
   <path d="m78.906 290.86c-6.0456 0.28272-8.9966-3.4102-9.2594-8.2328-0.28846-5.179 2.7873-8.9846 8.1752-9.1775 5.0416-0.17995 8.9624 4.0414 8.8715 8.6974-0.1117 5.0923-2.9932 8.4912-7.7872 8.713m-1.2472-19.041c-6.6353 0.0719-10.562 4.9298-10.232 10.894 0.31953 5.8466 4.7833 10.347 11.394 9.9289 6.1595-0.38761 9.4887-5.4991 9.4781-10.462 2e-3 -5.7224-4.0781-10.446-10.64-10.361"/>
   <path d="m148.09 273.78c-4.7712 0.55821-9.0292 3.9269-9.1355 9.3924-0.1029 5.4755 3.4144 9.804 10.49 10.051 4.0134 0.12919 6.5195-1.4964 6.649-1.5803 0.40863-0.27562-0.54424-1.7556-0.95845-1.4926-0.12657 0.0559-2.2588 1.3918-5.793 1.111-5.1181-0.39682-8.1355-3.8488-8.1526-8.0892-0.0187-4.5888 3.2457-7.2488 7.1077-7.6449 5.0547-0.519 8.3723 1.8952 9.5104 3.1166 0.33369 0.35081 1.2793-0.46127 0.92677-0.82245-1.663-1.6834-5.178-4.6762-10.647-4.0484"/>
   <path d="m163.98 277.46c3.3048-0.0814 5.2668 0.83779 7.5861 2.766 0.39581 0.31615 0.93379-0.91908 0.72165-1.1002-2.4333-1.9582-4.613-3.2961-8.4305-3.1963-5.0728 0.13717-10.555 3.5212-10.358 10.17 0.21941 6.9943 5.8624 10.472 10.9 10.34 4.2382-0.10082 6.8127-2.4369 7.9766-4.3808 0.26796-0.41808-1.2642-1.3303-1.5189-0.91454-1.2685 2.1087-2.9335 3.3118-6.4992 3.4761-3.9805 0.19904-8.4079-2.515-8.6726-8.3834-0.2526-5.4617 4.3686-8.6704 8.293-8.7768"/>
   <path d="m179.13 294.67-0.13646-2e-3c-4.2682-3e-3 -7.83-2.8558-7.9415-8.5346-0.11753-6.1343 4.5754-8.8628 8.7455-8.6635 4.4 0.20839 8.2106 3.2465 8.1637 8.5681-0.0546 4.7941-3.007 8.7581-8.8353 8.631m-10.306-8.3032c0.0958 5.8736 3.759 9.9239 10.365 10.024 6.9651 0.0957 10.682-4.794 10.674-10.153-7e-4 -6.0704-4.2652-10.209-9.8807-10.421-5.3228-0.19085-11.27 3.07-11.158 10.55"/>
   <path d="m160.14 269.54c-0.41599 0.17467-0.29874 1.8069 0.11677 1.6494 4.2547-1.5928 13.604-2.3007 19.748-0.98523 5.9667 1.268 8.9894 3.5076 9.5326 6.9715l1.1759-1.2509c-0.49034-3.9901-3.2564-5.648-9.8255-7.0646-6.0706-1.3112-16.795-1.0427-20.762 0.68133"/>
   <path d="m163.92 263.83c0.1234 4.4265-11.934 10.577-12.012 10.615-0.36218 0.13127 1.7808 1.1074 2.1483 0.94804 4.9816-2.1794 11.733-7.4526 11.662-11.383-0.19306-9.523-5.6488-17.529-5.8871-17.86-0.27563-0.40862-2.7318 0.33936-2.6244 0.52518 0.0445 0.0605 6.4793 8.2845 6.7152 17.163"/>
   <path d="m172.92 241.85c0.0958 0.35474 1.9207 6.6858 5.0657 11.283 0.2733 0.39537 1.7268 2.1869 2.1255 1.913 0.40863-0.27561-0.40606-2.2601-0.63876-2.6898-2.7229-5.344-4.4248-11.263-4.4523-11.342-0.11671-0.47378-2.2431 0.36671-2.1133 0.83825"/>
   <path d="m183.57 242.51s0.0122-1e-3 0.0144 0.0108c-0.0388-0.0274-0.11082-0.0489-0.1884-0.10345 0.037 0.0174 0.11081 0.0489 0.18266 0.0706m5.9331 31.039c-0.0571 3.8207-0.54073 7.2467-1.4625 10.172-0.15608 0.47358 1.2634 2.1483 1.4351 1.6856 1.1905-3.0458 2.4208-7.4299 2.4148-11.745 2e-3 -6.6839-2.9634-22.204-6.3451-28.924-0.80923-1.614-1.625-2.0717-1.976-2.2286-0.42555-0.23258-0.89176-0.28771-1.346-0.13703-0.99648 0.34388-1.551 1.582-1.6569 1.8151-0.91901 1.9626-3.3316 6.6868-3.3469 6.7376-0.19548 0.44293 1.5163 1.467 1.7283 1.0212 0.0978-0.22146 2.4393-5.5215 3.1981-7.3847 0.1466-0.33219 0.3569-0.70959 0.56223-0.7828 0 0 0.50711-0.39499 1.4725 1.8222 1.7678 4.0079 5.4645 18.27 5.3232 27.948"/>
   <path d="m66.635 61.184c0.91688-0.66398 1.1661-0.62219 1.5015 0.26672 2.5053 6.8727-1.6496 13.102-7.4765 14.501-6.4706 1.5697-11.734-3.6668-13.255-9.5687-0.25397-1.4585-0.3774-1.5801 1.092-1.3215 5.1648 0.94075 13.704-0.69271 18.138-3.8807m-0.67181-1.1575c-4.2453 2.8894-11.668 4.6522-17.357 3.8028-2.8134-0.42333-3.1309 0.23851-2.4603 2.9159 1.7995 7.1639 7.2399 12.167 14.735 10.405 8.694-2.0557 10.713-10.064 8.409-16.395-0.63135-1.6688-1.3612-2.0835-3.324-0.73311"/>
   <path d="m56.541 64.491c0.26673 0.55329 0.59029 1.2568 0.90252 2.8347 0.38265 2.0018 0.54257 4.4857-0.50714 4.6804-1.1171 0.21876-1.983-2.132-2.313-4.1051-0.27816-1.5974-0.24952-2.2158-0.1879-3.1534z"/>
   <path d="m8.1166 89.748c2.8416 9.4107 10.372 19.111 21.672 18.766 15.236-0.45183 23.898-15.329 25.977-20.163 0.16642-0.41403-1.6165-0.59428-1.8-0.18067-1.9763 4.5995-10.529 18.303-24.173 18.719-10.379 0.3182-17.403-8.6062-19.994-16.377-0.71175-0.42811-1.3247-0.77798-1.6834-0.76325"/>
   <path d="m18.086 94.03c-2.4259 0.35425-4.3358 2.9904-4.9737 4.4362-0.14085 0.36529 0.51708 1.2082 0.6923 0.86424 0.40792-0.82753 2.267-3.6149 4.8546-4.2222 0.37163-0.07714-0.19696-1.1311-0.57299-1.0793"/>
   <path d="m40.82 93.876c2.6422 0.477 6.3498 2.2235 7.768 4.2252 0.22295 0.30195 1.1025-0.63496 0.90257-0.96135-1.4601-2.3185-4.2235-3.8205-8.4115-4.6059-0.37362-0.07115-0.62987 1.2751-0.26014 1.3436"/>
   <path d="m4.2887 85.692c1.5024 4.3424 10.751 10.858 22.221 10.664 11.028-0.17907 20.658-3.9687 25.245-8.0026 0.34334-0.2983-0.73688-1.5312-1.0796-1.2296-4.5099 3.9237-13.363 7.2072-24.428 7.3785-11.221 0.17521-19.395-5.9633-20.709-9.6414-0.14333-0.43166-1.3933 0.41301-1.249 0.83085"/>
   <path d="m30.862 80.275c0.35184 4.2906 1.4505 11.168 3.2177 14.682 0.16028 0.3333 1.3948-0.20881 1.2488-0.55821-1.2957-3.0184-2.8784-11.208-3.1164-14.316-0.02969-0.36625-1.3812-0.20247-1.3543 0.16766"/>
   <path d="m15.31 86.362c0.1963 2.1058 0.70508 5.419 1.9106 7.9978 0.16028 0.33328 1.4964 0.10063 1.3175-0.24189-0.70993-1.3178-1.6408-6.0374-1.9549-7.9782-0.05066-0.36259-1.302-0.15834-1.27 0.22114"/>
   <path d="m8.1645 82.98c0.00148 0.20419 0.012176 5.1188 1.3408 7.6285 0.19508 0.33745 1.5956 0.45479 1.4155 0.12496-1.1657-2.213-1.376-7.7062-1.3841-7.7528 0.00112-0.38525-1.377-0.3736-1.3698 8e-6"/>
   <path d="m2.0416 82.087c0.89325-0.87796 2.4641-2.1499 3.4548-2.8029 1.3567-0.89731 2.0365-1.2201 3.9742-0.23541 2.0469 1.0509 5.6499 2.8988 5.9176 3.0566 0.18841 0.10347 0.43143 0.12934 0.62828 0.02691 0.40275-0.17237 9.8979-4.6677 12.369-5.9403 2.1857-1.1269 3.355-0.82274 6.8028 0.75093 15.04 6.8416 19.651 8.8155 31.618 2.5004 2.7523-1.4538 4.5626-1.275 5.1566-0.41745 0.78526 1.1241-0.69038 2.6691-3.7017 4.2147-3.2246 1.6417-8.2046 3.555-11.017 3.9017-3.0384 0.35871-6.2535-0.01513-9.835-1.4599-5.7664-2.3251-15.98-6.5821-16.525-6.5352-0.98056 0.10257-11.463 5.4824-12.577 5.9888-1.2146 0.55906-2.8939 0.50392-5.456-0.81848-2.4055-1.2509-3.8341-2.205-4.6374-2.6066-0.22723-0.1308-0.5952-0.03268-0.79375 0.13822 0 0-2.6083 2.2807-3.4957 2.8441-0.87908 0.54835-1.9482 0.61186-2.4625-0.0517-0.49351-0.62284-0.47257-1.5397 0.57581-2.5639m-1.8376 3.4584c1.0216 1.4441 2.8322 1.4901 4.2828 0.43327 1.7202-1.2366 3.1264-2.4799 3.4922-2.7958 0.54866 0.31338 2.6533 1.5587 4.3964 2.3967 3.0561 1.4647 4.6104 1.5552 6.0159 0.997 1.2835-0.4961 11.735-6.0583 12.551-6.0682 0.80356-0.0036 9.1222 3.785 15.97 6.4514 8.0487 3.1425 14.032 1.3312 22.563-3.1826 3.6993-1.9527 4.2102-3.6432 3.6544-4.9037-0.52514-1.2546-2.8716-2.2056-6.6636-0.36627-11.799 5.6973-15.183 4.484-30.778-3.1275-3.5176-1.708-5.4282-1.9035-7.7777-0.69021-2.2088 1.1309-10.6 5.1887-12.227 5.9279-1.1594-0.59207-3.4242-1.9151-5.6042-3.0512-2.0626-1.0822-3.6313-0.83292-5.3091 0.3009-1.5599 1.0417-2.6898 2.0086-3.8154 3.0804-1.2789 1.2075-1.8038 3.1049-0.74907 4.6022"/>
   <path d="m92.689 77.739c-4.0549-4.7154-8.9797-9.1113-17.398-12.862 0.02965-2.5302-0.71693-6.7394-1.54-8.8441-0.24806-0.64172-1.1895-2.7609-2.8467-3.1586-1.1561-0.27916-2.439 0.22024-3.9025 1.2691-6.33 4.5163-15.571 5.7782-20.686 5.2615-2.3114-0.22111-4.3365-0.88053-5.5335 0.25474-1.196 1.1351-0.6993 3.4987-0.45286 4.5029 0.17705 0.82107 0.26246 0.7244-0.71404 1.0853-6.8237 2.7864-21.801 8.5927-24.416 9.6611-0.51346-0.4047-4.2204-3.1119-4.888-3.6329 1.4596-3.2222 1.7022-6.7998-0.62006-8.0423-0.33797-0.17969-1.0024 0.7402-0.6544 0.86022 1.6783 0.59714 1.4987 3.9102-0.018109 6.9996-0.15237 0.29915-0.05999 0.63404 0.17936 0.8343l5.4987 4.5843c0.19415 0.13656 0.45042 0.16009 0.6894 0.08441 1.3761-0.51223 17.344-6.9873 24.718-10.062 2.0744-0.86554 1.9656-0.64896 1.4922-2.761-0.23406-1.1485-0.41573-1.996 0.30414-2.7347 0.72316-0.73929 1.9133-0.40132 4.2724-0.17829 5.6992 0.55804 14.191-0.45036 21.669-5.552 1.1182-0.76038 1.9579-1.1826 2.6866-1.0096 1.0018 0.23447 1.7588 1.8814 1.973 2.3484 0.65719 1.4258 1.2605 5.1059 1.3543 7.3856 0.0394 1.4005 0.0038 1.5873 0.96218 2.0815 4.8389 2.4525 9.7552 4.1075 16.36 12.49 0.75472 0.94879 1.3119 0.84154 2.3586 0.4923 4.4866-1.5037 10.441 1.0067 14.387 3.854 1.3079-0.02351 1.5931-0.10711 2.8887 0.22959-5.464-4.9389-13.164-7.3245-18.127-5.4507"/>
   <path d="m73.866 72.179c3.7847 2.1284 10.359 6.8153 12.79 11.321 0.40682 0.77083 0.30127 0.75173-0.07423 1.3351-4.734 7.4-4.6645 35.481 24.877 48.285 11.025 4.7761 15.763 11.068 17.475 21.24 1.058 6.2711 1.6155 13.074-1.8465 19.495-6.8146 12.643-16.431 30.39-2.1402 51.499 0.65038 1.3282 1.1348 3.1316 1.9038 4.573-17.707-18.639-11.894-40.412-1.8859-56.532 3.5584-5.7286 3.1897-12.541 2.2108-18.922-1.3944-9.1819-7.3248-15.831-16.355-19.848-34.718-15.4-28.875-45.149-25.494-50.654-5.6657-6.9957-10.48-9.8597-12.261-10.355-8.6228 11.095-22.935 12.156-30.482-2.3255-0.19417-0.13656-0.21572-0.06468-0.81862 0.21071-4.2715 1.9092-7.7202 3.4366-9.8014 3.9796-0.34897 0.12893-1.5994-0.82896-1.2527-0.97111 3.629-0.90452 9.0166-3.5158 10.92-4.3891 1.2377-0.56309 1.5125-0.57006 1.8694 0.16858 7.7381 15.651 23.244 11.64 28.473 2.1106 0.42221-0.68688 0.95441-0.74207 1.8826-0.22558"/>
  </g>
 </g>
</svg>
