<?xml version="1.0" encoding="UTF-8"?>
<!-- Created with Inkscape (http://www.inkscape.org/) -->
<svg version="1.1" viewBox="0 0 265.88 331.78" xmlns="http://www.w3.org/2000/svg">
 <g transform="translate(13.125 24.149)">
  <path d="m93.009 294.79c-8.2637-5.679-16.673-17.122-22.631-29.548-1.626 0.1376-3.8467 0.59508-5.4485 0.64324 1.7718 14.999 6.0552 30.64 13.615 37.12 7.6206 6.5407 18.602 3.8102 20.884-4.6598-2.0264-0.84962-4.1743-2.0157-6.4192-3.5553" fill="#9ed8f5"/>
  <path d="m32.632 134.37c-1.432 0.88402-2.8275 1.8093-4.1743 2.7793-11.249 8.0452-18.918 19.075-24.548 30.615 2.1598-1.8437 3.3128-2.8653 7.1231-2.7174 7.2686 0.27517 17.826 13.336 21.757 39.28 4.4292 29.281-2.2327 49.837-7.6691 52.203 11.297 5.4001 23.687 9.3802 37.957 9.2832 23.092-29.317 12.232-124.31-30.446-131.44" fill="#003a59"/>
  <path d="m32.785 204.33c-3.9316-25.944-14.61-38.758-21.879-39.025-3.8103-0.13758-7.4992 3.4463-9.5621 7.5719-4.7083 11.649-7.0988 24.815-7.5599 36.465-0.18231 4.417-5.1694 8.3727-5.1815 12.304-0.02425 7.4629 14.501 24.366 36.525 34.887 5.4242-2.3666 12.098-22.922 7.657-52.203" fill="#9ed8f5"/>
  <path d="m44.555 128.46c-4.2836 1.7371-8.2516 3.7617-11.928 6.043 44.279 10.824 53.053 102.1 30.191 131.14 0.52181-0.0121 11.164-0.77738 12.984-1.0663 0.27861-0.30958 0.59473-0.66731 0.67969-0.7877 24.087-29.718 10.327-123.3-31.926-135.33" fill="#9ed8f5"/>
  <path d="m120.4 218.8c-18.518-21.042-35.288-50.917-39.935-69.192-1.4805-2.0638-3.1794-4.6354-4.235-6.6618 2.1237-7.2444 4.8781-14.586 7.9482-21.491-6.4799-0.20637-12.948 0.20639-19.5 1.2486-7.2323 1.1523-14.501 2.9135-20.483 5.3395 42.932 12.219 55.395 107.23 32.29 135.74-0.09627 0.13759-0.40039 0.47468-0.6797 0.78771 1.1042-0.172 2.2087-0.36462 3.3249-0.58132 17.437-3.5189 35.822-13.311 53.611-32.824-4.1258-3.5553-8.2758-7.7418-12.341-12.365" fill="#003a59"/>
  <path d="m77.138 108.43c0.53385-0.92185-1.0557-10.994-1.4925-11.431-5.315-1.0182-8.9069-3.2402-16.139-3.4824-12.244-0.40245-11.94-3.0717-10.472-11.164-4.1015-3.1921-7.2808-2.8516-9.2466-4.2715-1.9779-1.4309 0.58234-5.7275-3.3734-9.3558 0.93423-4.0531 3.4584-4.8538 5.9824-6.4678l-2.0264-5.667s-5.6305-2.8997-9.6228-3.7858c1.2135-6.8926 2.0387-15.448 2.0387-15.448s-8.4457-7.6448-12.353-10.8c-13.057 36.234-13.081 80.962 7.7298 110.67 8.5428-6.1038 21.321-11.516 33.637-14.101 0.09627-1.9538 0.54589-6.2129 0.59473-9.028 5.3271-0.97001 14.21-4.7448 14.744-5.667" fill="#003a59"/>
  <path d="m64.951 59.524c-14.61-11.249-23.214-34.584-18.857-50.553 35.591-11.564 31.004-46.354 4.6354-26.053-13.469 10.375-23.93 26.527-30.616 45.056 3.1794 2.5832 8.8098 7.487 10.763 9.1979 0.74024 0.64323 0.71582 0.485 0.60678 1.5307-0.25455 2.5007-1.0072 9.5381-1.9414 15.071-0.07226 0.42309 0.13415 0.58132 0.26829 0.61916 3.3854 0.80147 8.1788 2.5489 9.5621 3.0579 0.25454 0.1032 0.49739 0.61916 0.49739 0.61916l0.64323 2.9616c0.086 0.36462 0.09627 0.66731-0.34054 0.97002-2.1842 1.4791-3.9559 3.4088-4.866 6.8317-0.11012 0.39901-0.07226 0.62947 0.18231 0.91153 3.4584 3.5553 0.93423 7.7178 2.8516 9.1009 1.8809 1.3587 4.9752 1.2142 8.8219 3.9925 0.32678 0.24079 0.48535 0.62948 0.40039 1.1145-1.262 7.5599 0.15823 10.594 12.025 10.982 7.2323 0.24078 9.6835 1.94 14.998 2.9616 0.43684 0.43684 1.8564 8.3851 1.3105 9.3073-0.53385 0.92185-10.157 5.2786-15.496 6.2493-0.03786 2.8275-0.3027 8.1426-0.41243 10.096 1.5531-0.34398 3.1309-0.61916 4.7447-0.88746 6.5649-1.0422 13.13-1.3828 19.61-1.1661 3.1914-7.1839 6.844-14.161 10.897-20.908 0.38834-12.171-4.4655-21.175-30.288-41.064" fill="#9ed8f5"/>
  <path d="m110.43 270.79c-9.5136-4.138-19.136-5.8125-31.307-6.8076-2.9485 0.59508-5.8732 1.0078-8.7491 1.2624 5.9702 12.414 14.38 23.869 22.631 29.548 2.2448 1.541 4.3928 2.7071 6.4314 3.5557 21.782 9.1009 30.676-18.991 10.994-27.558" fill="#9ed8f5"/>
  <path d="m137.2 189.32c-6.9896-1.1282-16.709-5.6911-26.478-12.086-11.528-7.5475-23.104-17.644-30.264-27.63 4.6476 18.275 22.316 49.461 40.833 70.502 3.0824-2.3425 5.048-5.9824 4.8418-7.5238-0.14447-1.1523-6.1038-10.072-6.1038-10.072s2.4756-4.332 3.6283-4.4049c3.0824-0.20639 8.5914 3.2884 10.46 5.1816 1.456 1.4791 2.4997 4.0286 3.4948 4.332 1.0072 0.30958 8.3972-4.3929 9.5985-5.7519 2.0143-2.3184 1.1891-5.679 2.8275-8.1666 0.94662-1.4068 3.1914-2.5248 3.604-3.168 0.38834-0.58131 0.78873-2.9238 0.88573-4.8418-4.2957 3.4463-10.278 4.7689-17.328 3.6282" fill="#003a59"/>
  <path d="m175.12 174.68c-0.72819-1.8678-1.638-3.7012-2.7301-5.4971-2.779-4.6234-6.7469-8.9554-12.001-12.681 0.12039 0.62947 0.25455 1.2727 0.38835 1.9297 2.694 12.863-0.0122 22.279-6.2372 27.254-0.11012 1.9297-0.80077 3.8587-1.1891 4.4534-0.42481 0.62947-2.8154 1.8815-3.7617 3.2884-1.638 2.4869-0.42482 5.57-2.4512 7.8877-1.1891 1.3587-8.6884 5.8974-9.6834 5.5817-0.99513-0.30959-1.3591-2.3906-2.8275-3.8708-1.8564-1.9056-7.9846-5.776-11.079-5.57-0.93424 0.0688-3.4584 3.4827-4.3806 4.7692-0.20638 0.30958-0.23046 0.62948-0.0619 0.87369 1.165 1.5892 5.5698 7.6689 5.7033 8.664 0.20637 1.541-1.335 4.6959-4.4049 7.0381 4.0651 4.6234 8.2152 8.8099 12.329 12.365 1.6989 1.455 3.3978 2.8137 5.0723 4.041 28.031 20.471 34.79 1.056 19.864-11.589-4.2957-3.6403-8.7491-6.2978-13.385-7.5234 26.939 1.5032 38.831-20.981 30.834-41.416" fill="#9ed8f5"/>
  <path d="m170.61 164.43c-1.723-4.6474-4.9509-8.0088-11.127-13.397 0.21671 1.6855 0.52181 3.4948 0.91016 5.473 5.2543 3.7132 7.4386 5.1448 10.217 7.9238" fill="#002d49"/>
  <path d="m212.39 104.85c-3.4219 1.5272-7.7055 5.4121-10.412 10.144-2.8516 4.9997-5.9824 10.545-9.2588 16.285-6.8682 12.001-14.38 24.815-21.333 35.057 0.2683 0.69139 0.58236 1.9297 0.75228 2.7174 1.0801 1.7956 1.9902 3.6282 2.7301 5.4971 17.243-5.9583 45.99-27.279 52.592-49.607 4.684-15.86-5.23-24.488-15.071-20.095" fill="#003a59"/>
  <path d="m214.48 110.57c-0.92219-0.64323-2.4391-0.27517-4.1743 0.85995-2.0508 1.3484-4.3806 3.7252-6.3585 6.7711-1.9417 2.996-3.3613 6.2129-3.871 8.664-0.37631 1.8575-0.24423 3.2746 0.58235 3.8467 2.0628 1.4447 7.1958-0.77739 11.504-7.317 3.8467-5.8369 4.2836-11.455 2.3177-12.826" fill="#e75297"/>
  <path d="m89.91 292.4c-7.2201-6.1644-14.319-16.285-19.537-27.158-1.626 0.13759-3.8467 0.59507-5.4485 0.64323 1.0677 9.0648 3.0579 18.348 6.128 25.713 6.2251-0.70515 12.547-0.30958 18.857 0.80146" fill="#88bbd5"/>
  <path d="m31.804 244.23c-1.8079 6.929-4.3563 11.285-6.6862 12.305 11.297 5.3877 22.935 9.3798 37.217 9.2708 4.2957-5.4365 8.9311-14.161 10.654-24.197-13.385 2.3666-27.267 3.0098-41.185 2.6211" fill="#002d49"/>
  <path d="m25.122 256.53c2.3177-1.0078 4.8781-5.3636 6.6862-12.305-9.6107-0.27517-19.233-1.0319-28.711-2.0742 5.9096 5.1452 13.385 10.254 22.024 14.38" fill="#88bbd5"/>
  <path d="m62.814 265.64c0.52181 0 11.164-0.77739 12.984-1.0663 0.27862-0.30958 0.59473-0.66731 0.69174-0.78771 4.9631-6.1282 8.3122-14.974 10.145-25.253-4.5505 1.2761-9.1859 2.3046-13.882 3.1302-2.0143 9.7441-5.3271 18.129-9.9383 23.978" fill="#88bbd5"/>
  <path d="m76.486 263.78c-0.09627 0.13758-0.40038 0.47468-0.69174 0.78769 1.1042-0.17198 2.2207-0.36461 3.3249-0.58132 17.45-3.5192 35.834-13.312 53.611-32.824-3.3369-2.8756-6.6862-6.1764-9.999-9.7806-11.164 8.1305-23.444 13.64-36.392 17.231-1.7718 10.375-5.0359 19.221-9.8534 25.167" fill="#002d49"/>
  <path d="m28.167 137.23c8.5307-6.1038 20.532-11.273 32.849-13.858 0.09627-1.94 0.24423-6.7591 0.29238-9.5742 5.3271-0.98376 15.168-4.9268 15.702-5.849 0.53385-0.92185-1.2376-10.715-1.6745-11.152-5.3029-1.0182-8.2637-2.5351-15.496-2.7793-11.212-0.36461-11.613-1.8815-12.487-8.6035-0.0022-6e-6 -0.0043-1.2e-5 -0.0065-1.8e-5 -12.933-0.03559-25.684-3.6539-36.131-11.176-0.60677 22.886 4.5505 45.299 16.952 62.991" fill="#002d49"/>
  <path d="m47.347 85.415c-0.81315 6.4922 1.1679 9.1577 12.235 9.5216 6.8682 0.24078 9.4286 1.7715 14.222 2.7896 0.55827 0.13759 0.91015 0.34397 1.0436 0.84962 0.57032 2.0398 1.5049 7.8392 1.0557 8.6279-0.52181 0.89777-9.6592 5.0478-15.059 6.1644-0.27861 0.0688-0.43684 0.24079-0.44888 0.46093-0.06187 2.8894-0.3027 7.8509-0.40039 9.7197 1.5534-0.34397 3.1309-0.62947 4.7447-0.88744 6.5527-1.0423 13.118-1.3828 19.597-1.1661 3.1914-7.1836 6.8561-14.161 10.909-20.908 0.25454-8.2757-1.9053-15.083-11.431-24.851-11.212 6.3704-23.957 9.6915-36.468 9.6794" fill="#88bbd5"/>
  <path d="m187.31 140.66c-5.2786 9.0524-10.751 18.069-15.909 25.677 0.25455 0.70514 0.57032 1.9297 0.74024 2.7174 1.0921 1.7956 2.0023 3.6403 2.7301 5.4971 12.826-4.4294 31.671-17.195 43.187-32.63-2.8275 1.3002-5.6669 2.3769-8.4093 3.2024-6.8804 2.0638-18.19 1.9159-22.34-4.4655" fill="#002d49"/>
  <path d="m0.062235 173.78c-0.15823 0.36462 1.1771 0.94594 1.335 0.571 1.7594-4.1016 5.6911-8.3851 9.4893-8.2396 7.4628 0.27519 17.365 13.627 21.029 37.848 4.6718 30.834-2.4632 50.929-7.5963 51.669-0.40039 0.0688 1.1042 1.2727 1.4925 1.1764 6.213-1.5169 13.19-22.753 8.5914-53.089-3.8224-25.252-15.52-39.377-23.76-39.68-4.5019-0.17199-8.5792 5.0843-10.581 9.7441" fill="#0f141b"/>
  <path d="m52.813 203.11c-0.26831-2.6108-0.32678-4.3564-0.93424-6.6497-2.6575 0.92185-17.668 3.5068-20.677 3.6282-0.086 2.2702-0.06187 3.7617 0.20638 6.2249 1.3711 13.093 8.2516 21.976 12.936 21.321 5.6062-0.7877 9.8048-11.807 8.47-24.524" fill="#e75297"/>
  <path d="m41.242 191.1c-2.5482 0.30957-3.9802 6.4072-3.2884 13.882 0.64323 6.9531 2.779 12.875 5.7761 12.778 2.876-0.10319 4.053-5.6426 3.2764-13.882-0.49739-5.4362-2.0264-10.132-3.8831-11.977-0.61881-0.60539-1.262-0.8737-1.8809-0.80146" fill="#0f141b"/>
  <path d="m39.211 200.5c0.40038 4.2591-0.63085 7.4993-2.803 7.7054-2.2692 0.20639-3.8103-2.8412-4.2107-7.0381-0.38835-4.0771 0.86165-7.5234 2.803-7.7054 1.9417-0.20638 3.8224 2.9616 4.2107 7.0381" fill="#fff"/>
  <path d="m30.774 199.96s11.564-1.0801 20.969-3.5068c0 0-3.3128-15.168-12.511-14.877-4.2229 0.13759-8.7127 11.88-8.4579 18.384" fill="#9ed8f5"/>
  <g fill="#0f141b">
   <path d="m64.889 121.08c-50.577 8.0573-71.328 49.327-72.383 87.661-0.061917 2.0501-1.2015 3.6888-2.4391 5.6546-1.2741 2.026-3.1794 4.5019-3.1914 6.6497-0.02428 8.567 18.699 29.912 45.105 40.142 20.957 8.1061 61.68 14.513 101.57-29.609 0.26831-0.27518-1.5654-1.3105-1.7959-1.056-39.086 42.617-79.167 35.749-99.662 27.813-26.66-10.314-42.932-29.936-42.908-37.169 0-1.7371 1.1527-3.5677 2.3662-5.4971 1.335-2.1361 2.7181-4.344 2.8154-6.7832 1.444-36.004 20.714-77.31 70.466-85.234 6.2736-1.0078 12.389-1.3484 18.287-1.2142 0.34053-0.67762 0.84928-1.7852 1.165-2.4766-6.2251-0.24079-12.729 0.0688-19.391 1.1179"/>
   <path d="m158.74 149.04c0.21671 0.84963 0.37632 1.6373 0.53385 2.4285 5.4727 4.8294 9.4408 9.6953 11.261 14.015 0.42482 1.0078 2.4147 3.0442 2.3421 2.6589-1.1042-5.7155-6.2736-12.499-14.137-19.1"/>
   <path d="m5.6612 225.77c-4.5262 3.4226-7.8511 3.9196-9.8776 3.7132-1.7839-0.17198-3.7375-1.2624-4.8053-2.6108-0.25454-0.30959 0.13415 2.0982 0.60677 2.4629 1.1406 0.88745 2.5605 1.7611 4.0894 1.9159 3.5312 0.37494 7.6206-1.627 11.928-5.1576 2.876-2.3666 1.0436-2.5833-1.9414-0.34397"/>
   <path d="m79.434 148.64c5.4121 24.767 32.824 69.422 56.899 87.006 15.047 10.994 25.434 10.508 28.711 6.3463 3.5919-4.5749 0.54624-13.469-6.6619-19.573-6.4556-5.4726-16.151-7.39-19.852-8.0332-4.6354-0.78771-1.5534 0.77739 1.638 1.627 4.2107 1.142 11.613 3.2162 16.879 7.6813 7.2808 6.1644 8.9068 13.627 6.2372 17.013-2.7301 3.4707-10.97 3.8346-25.204-6.5648-22.801-16.661-49.024-57.967-56.353-82.613-0.34054-1.1179-2.3782-3.2781-2.2936-2.8894"/>
   <path d="m160.19 156.87c15.787 11.394 18.772 27.97 14.659 39.462-4.6112 12.911-17.207 20.18-32.849 18.979-0.40038-0.0344 3.1309 1.7096 4.417 1.6992 14.61-0.17199 26.077-7.8148 30.531-20.277 4.3442-12.147 0.25454-30.482-16.673-42.325-0.34054-0.24077-0.27862 2.3184-0.086 2.4629"/>
   <path d="m201.14 113.83-7.9482 14.246c-6.759 12.256-14.428 26.199-21.806 37.023-0.21671 0.34398 0.63084 2.7896 0.86165 2.4629 7.4143-10.885 15.763-26.041 22.546-38.334l7.9239-14.222c5.3878-9.4407 13.19-11.455 18.153-9.3437 4.502 1.9297 8.6035 8.0576 5.3635 19.027-6.8682 23.25-34.669 43.321-51.257 48.296-0.38834 0.13759 0.52182 2.0638 0.89813 1.9434 16.904-5.0726 45.323-25.532 52.337-49.267 3.5069-11.88-0.19263-19.707-6.128-22.231-5.5334-2.3666-15.108 0.20638-20.944 10.399"/>
   <path d="m49.189-17.418c-19.5 15.011-33.722 41.246-38.588 72.468-4.9388 31.708 1.0677 62.408 16.928 82.904 0.24422 0.30958 1.9053-0.78771 1.6745-1.1042-14.756-20.568-20.41-50.335-15.532-81.666 4.7204-30.288 18.736-56.997 37.484-71.437 7.0866-5.4486 13.166-7.4749 16.697-5.5456 4.4413 2.4388 3.5797 12.292-5.3514 20.689-4.0166 3.7741-9.55 7.2445-16.673 9.6471-0.21671 0.068796-0.40039 0.27519-0.46127 0.49877-4.4777 16.394 4.2836 39.899 19.112 51.33 25.992 20.01 30.106 29.196 29.524 41.464-0.01217 0.39901 1.8203-3.0958 1.8203-3.8226 0-11.637-4.684-20.107-29.645-39.328-17.377-13.384-21.939-35.809-18.663-48.454 7.8268-2.4629 13.979-6.1403 18.129-10.545 9.732-10.302 8.5671-20.483 3.9559-23.007-2.3782-1.3105-10.06-2.0638-20.411 5.9095"/>
   <path d="m43.77 129.4c15.375 3.7982 28.759 19.246 36.489 43.418 10.897 34.086 8.6641 74.737-4.9752 90.622-0.25454 0.30959 1.5654 1.1523 1.8324 0.84963 13.931-16.224 16.054-57.373 5.0237-91.896-7.8875-24.67-21.466-40.445-37.35-44.377-0.38835-0.10319-1.4075 1.2865-1.0192 1.3828"/>
   <path d="m32.441 135.17c14.016 3.0339 26.636 16.673 33.88 37.799 11.237 32.727 8.7976 76.157-4.599 92.163-0.25455 0.30958 1.8688 0.39902 2.1237 0.10319 13.676-16.345 15.69-59.763 4.3078-92.915-7.4143-21.624-19.5-35.263-34.038-38.418-0.38835-0.0688-2.0628 1.1901-1.6745 1.2727"/>
   <path d="m77.358 264.79c13.712 0.99408 22.631 1.8334 32.642 6.1888 6.2615 2.7312 10.169 7.9482 10.46 13.967 0.26829 5.2546-2.2327 9.999-6.5042 12.378-5.4849 3.0683-12.838 1.7852-20.677-3.6162-8.1666-5.6061-16.309-16.139-22.34-28.88-0.16855-0.36462-1.4805 0.24078-1.3226 0.61916 5.9702 13.979 13.421 24.33 21.794 30.082 11.237 7.7298 20.18 5.6426 23.65 3.7132 4.7568-2.6589 8.385-8.373 8.0938-14.186-0.32677-6.5892-5.1572-13.227-11.94-16.175-9.3194-4.0531-16.819-4.9876-29.681-5.6549-1.1527-0.0688-4.5748 1.541-4.1743 1.5651"/>
   <path d="m64.36 265.46c1.4925 13.13 3.6404 30.47 13.045 38.176 4.1379 3.3847 9.9747 4.9144 14.719 3.4329 4.0651-1.2727 7.2808-4.6715 8.3244-8.6881 0.0963-0.38869-1.7354-1.1764-1.8324-0.7877-0.92219 3.5189-3.4948 6.1764-7.0745 7.2926-4.2593 1.3346-8.9918 0.24078-12.669-2.9135-8.1424-6.9896-11.601-23.796-13.069-36.683-0.04814-0.39901-1.4925-0.24079-1.444 0.17199"/>
   <path d="m40.559 225.61c-4.1258-3.2265-7.6206-11.322-8.4943-19.695-1.2985-12.353 3.07-23.08 7.5477-23.711 1.347-0.17198 2.7425 0.27518 4.1622 1.3828 4.1015 3.1921 7.3657 10.885 8.3123 19.598 1.3835 12.741-2.9974 23.032-7.839 23.723-1.1406 0.17199-2.3782-0.27517-3.6889-1.2968m-1.1527-44.837c-5.6669 0.80146-10.691 11.904-9.4529 25.289 1.2741 13.858 8.7369 23.201 14.671 22.364 6.1037-0.85994 11.103-11.94 9.6956-24.924-1.8568-17.013-9.0889-23.553-14.914-22.728"/>
   <path d="m50.995 195.97c-3.6525 1.1042-15.217 2.8997-19.597 3.2746-0.40038 0.0344-0.27861 1.4791 0.12039 1.4447 4.4413-0.37494 16.273-2.4525 19.998-3.5798 0.38835-0.13759-0.13414-1.2624-0.5218-1.142"/>
   <path d="m201.43 130.01c-1.2741-0.88402-0.0379-6.1159 3.4826-11.516 3.0215-4.6839 6.4556-7.208 8.3608-7.5719 0.48535-0.1032 0.8737-0.0344 1.1406 0.13759 1.4684 1.0319 1.2256 6.1523-2.512 11.831-3.1549 4.7933-6.5284 6.929-8.652 7.3415-0.77669 0.13759-1.4076 0.0688-1.8203-0.20639m11.564-20.52c-2.7301 0.53316-6.4678 3.8346-9.3073 8.2031-3.3854 5.2301-5.8368 12.147-3.3008 13.919 0.75226 0.52284 1.7594 0.67763 2.9365 0.46093 2.4027-0.46093 6.395-3.2162 9.7927-8.3851 3.7496-5.679 4.7204-12.013 2.1358-13.821-0.60677-0.42308-1.359-0.54692-2.2572-0.37493"/>
  </g>
  <path d="m76.358 142.41c14.95-51.524 57.312-91.859 80.416-109.19 43.272-32.46 87.831-41.61 93.934-30.24 5.4121 10.084-19.925 25.325-37.63 16.964-10.048 14.016-8.3608 34.669-6.6376 52.385 1.6869 17.316 8.6035 27.048 4.1864 40.809-9.8048 30.482-42.787 14.028-49.182 22.874-8.8583 13.033 11.31 37.132-9.101 51.147-20.41 14.016-71.315-30.24-75.987-44.752" fill="#003a59"/>
  <path d="m213.21 3.4355c-9.0403 2.8034-18.445 6.8076-27.898 11.831 1.4684 3.0579 5.6305 11.989 5.6305 15.314 0 0.30957-0.0379 0.571-0.12039 0.76363-0.8252 2.1223-11.043 12.05-14.222 14.38-0.0379 0.24078-0.0723 0.49876-0.0723 0.77738 0 1.2865 0.47331 3.6403 0.87371 4.2471 0.12038 0.20638 0.35187 0.34397 0.76431 0.58132 1.5169 0.91153 3.9316 1.5651 6.3585 11.346 0.0122 0.0344 0.0242 0.10319 0.0242 0.17199 0 0.24078-0.12039 0.47468-0.32678 0.6054-2.3786 1.5513-6.6619 3.8952-7.9239 4.5869-0.0242 0.59508-0.25454 6.3707-0.36392 8.8825-0.0242 0.70514-0.32678 1.8093-0.61881 2.3425-1.0801 1.8919-3.6282 6.3948-4.6354 8.1787-0.27862 0.50908-0.38834 1.0422-0.35189 1.5892 0.0963 1.1764 0.25454 3.254 0.35189 4.4899 0.0379 0.50908 0.24422 1.2005 0.48535 1.5272 1.6504 2.2324 7.6327 10.351 9.3194 12.766 0.29238 0.41277 0.1823 1.1042 0.0379 1.3243-1.8564 3.0339-4.5626 7.9482-5.6184 9.6712-0.3027 0.485-0.53384 0.46092-0.89812 0.0688-3.2399-3.5068-12.656-6.4069-19.112-6.4433-0.64323 0-0.91015 0.0344-1.2985 0.35085-1.359 1.0422-5.1087 4.15-6.0188 4.8174-2.3421 1.6992-4.7446 3.2884-7.0988 4.9752-0.8252 0.59508-1.8808 1.1902-2.512 2.0157-0.94661 1.2486-1.3346 14.671-1.3226 15.084 0.0619 0.30958 0.8252 1.2246 1.444 1.9779 1.6624 1.9916 3.2764 3.0579 4.2714 5.4726 0.71581 1.7233 1.8929 5.8734 0.38835 7.5358-1.2861 1.4068-8.3122 8.567-11.152 11.225-0.91015 0.85993-1.3955 0.88401-2.4147 0.46092-5.7518-2.425-13.773-4.9144-16.831-5.873-0.69173-0.20639-1.0556-0.1376-1.541 0.27518-0.61881 0.53316-1.5046 1.2486-2.2936 1.8678-0.43684 0.34398-0.5218 0.71547-0.35189 1.2142 1.0436 3.1061 2.2812 10.132 2.5967 13.154 9.4408 6.1279 18.275 10.873 25.07 11.977 7.6327 1.2246 16.006-0.13758 20.216-4.5504 5.1087-5.3392 6.6619-14.258 4.3928-25.094-2.5846-12.341-1.8809-19.573 1.347-23.238 2.7181-3.0717 7.6812-4.126 16.078-3.4088 11.431 0.97001 21.211-2.5867 27.509-10.12 6.1401-7.3414 8.0453-18.226 5.2786-28.504-8.4578-31.465-7.9846-59.69 2.0628-73.512 0.18231-0.24079 0.50977-0.36462 0.81316-0.27518 16.964 5.4847 31.477-3.1542 36.016-9.3561 2.2448-3.0682 3.0579-6.3584 1.1891-8.1178-3.4584-3.2265-10.06-7.8756-37.52 0.62947" fill="#9ed8f5"/>
  <path d="m77.643 141.66c12.062-39.583 37.448-69.774 56.754-88.207 24.536-23.42 53.538-41.489 79.579-49.546 27.449-8.5065 34.013-2.9616 35.373-1.056 1.4925 2.0879 1.068 5.0478-1.1771 8.1178-4.5384 6.1888-18.056 13.979-35.021 8.4945-0.3027-0.10319-0.63084 0.01206-0.81315 0.27517-10.048 13.821-11.079 43.078-2.6211 74.531 2.7666 10.278 0.8252 20.386-5.3028 27.728-6.31 7.5234-16.066 11.14-27.509 10.169-8.385-0.71547-13.348 0.34399-16.066 3.4088-3.2399 3.6523-3.5069 10.181-0.92219 22.522 2.2692 10.836 0.71582 19.755-4.3927 25.095-4.2107 4.417-10.727 6.1644-18.348 4.9388-16.503-2.6692-48.126-24.633-59.266-44.061-0.55828-0.98377-0.59473-1.3106-0.2683-2.4044m135.33-139.27c-26.247 8.1302-56.463 26.077-81.157 49.667-19.367 18.481-44.498 49.606-55.771 88.789-0.59473 2.0501-0.37631 3.4088 0.69173 5.1937 11.661 19.646 43.212 41.78 59.848 44.461 8.106 1.2968 15.872-0.89777 20.423-5.679 5.4484-5.6911 7.1716-15.496 4.8053-26.818-2.4756-11.831-2.9-17.68 0-20.944 2.3782-2.6933 7.7783-3.8102 15.666-3.1439 11.928 1.0182 22.073-3.0958 28.686-10.994 6.8076-8.1422 8.9311-19.027 6.2372-29.05-3.7981-14.101-6.6012-27.558-6.6012-39.498 0-14.101 2.4267-25.362 7.5963-32.752 15.532 5.6185 31.089-1.7096 37.011-9.8047 2.6455-3.6042 3.0824-7.1839 1.2015-9.817-4.0651-5.7031-19.197-5.6305-38.637 0.38869" fill="#0f141b"/>
 </g>
</svg>
