<?xml version="1.0" encoding="UTF-8"?>
<!-- Created with Inkscape (http://www.inkscape.org/) -->
<svg version="1.1" viewBox="0 0 362 325.47" xmlns="http://www.w3.org/2000/svg">
 <path d="m224.68 86.08c21.899-0.8217 39.902 20.362 40.536 29.715 0.98471 14.471-7.1118 20.35-12.252 24.035-0.23288-13.25-10.257-40.629-28.283-53.75" fill="#759ab5"/>
 <path d="m285.15 114.11c-3.7086-10.457-22.815-13.332-27.967-13.672 12.123 13.731 11.255 28.871-4.4714 39.914-3.0406 23.636-28.718 44.96-61.789 53.316-30.983 7.8278-68.315 3.4974-96.399-13.367-50.546 6.9242-74.969-10.891-68.596-34.105-3.2968 0.40919-26.828 15.445-24.293 27.673 2.9342 14.212 40.36 24.235 77.575 24.634 37.273 20.268 91.422 27.579 126.27 13.179 33.999-14.059 56.145-33.776 64.641-68.103 2.3353-2.3254 18.695-18.73 15.034-29.469" fill="#87b1d0"/>
 <path d="m185.36 217.72c-42.12 5.3866-70.474-3.1936-100.81-16.371-1.2076 0.90486-3.826 1.8996-4.4362 1.9727 19.212 12.593 60.24 30.185 105.25 14.4" fill="#759ab5"/>
 <path d="m84.749 201.95c-11.947 4.3304-30.044 7.2176-47.448-7.9216 10.222 2.0659 40.97 4.8114 41.921 4.4711 2.3354 2.2522 5.5277 3.4505 5.5277 3.4505" fill="#759ab5"/>
 <path d="m274.21 150.5c-2.7811-1.5835-4.9641-1.69-5.8091-0.0998-0.8583 1.5835 66.613 44.326 66.613 44.326l25.667 8.1448s-68.397-42.097-86.47-52.377" fill="#595757"/>
 <path d="m271 152.83c-1.9262-1.4671-2.6647-2.8277-2.3586-3.4152 0 0-5.4688 16.923-8.1448 18.801 2.4751 3.8024 65.439 46.369 65.439 46.369l9.3185-20.033s-51.157-31.769-64.254-41.721" fill="#717071"/>
 <path d="m335.25 194.56-9.3065 20.022 14.799 2.5715 8.0274-17.85z" fill="#00a4e3"/>
 <path d="m352.29 200.54-7.6634 16.712 8.6139 1.6434 7.0064-15.562z" fill="#e50020"/>
 <path d="m348.84 198.8-7.5343 16.771 3.2968 1.68 7.734-16.724z" fill="#595757"/>
 <path d="m227.22 86.017s-7.0297-9.9991-8.9192-13.379c-3.6497-0.8217-7.8397 0.53893-10.68 2.4285 0 0 17.686 11.02 17.862 11.477 1.4538-0.26614 1.7366-0.52895 1.7366-0.52895" fill="#888784"/>
 <path d="m244.64 109.92c-0.23287-3.0273 0.36262-5.4688 1.9362-6.5017 2.6281-1.7266 7.3584 0.95144 11.407 8.8254 3.6264 7.065 2.4651 13.015 0.49235 14.224-2.1258 1.2775-5.2692 0.19961-8.0623-2.8743-0.51564-1.7831-4.5652-11.231-5.7742-13.672" fill="#fff"/>
 <path d="m226.75 87.991c3.9432 10.633-0.96142 19.975-10.433 27.544 10.246 20.667 7.0533 49.115-12.264 58.374-23.331 11.172-52.025-2.4518-61.003-37.684-34.844-0.91485-66.93-15.28-73.525-37.05-3.8846 4.3656-7.2645 9.1305-9.9522 14.318l1.3373 0.0233c-25.209 0.91485-41.369 31.546-34.832 47.237 6.9242 16.618 32.462 25.655 68.256 19.528 25.866 14.952 66.284 21.16 96.68 12.992 29.962-8.051 58.187-29.293 61.461-53.281-0.93814-21.101-10.762-38.858-25.725-52.002" fill="#87b1d0"/>
 <path d="m142.73 136.49c8.9076 34.973 39.456 48.293 61.731 37.613 19.317-9.2596 22.521-37.696 12.264-58.363-12.369 9.8817-32.497 16.712-50.793 19.376-7.4758 1.0912-15.761 1.5735-23.202 1.3739" fill="#fff"/>
 <g fill="#b4b4b0">
  <path d="m143.05 136.22c-0.0665-0.29941-0.16632-0.60879-0.23286-0.91485 0.0665 0.2994 0.16633 0.60879 0.23286 0.91485 7.4405 0.1996 14.998-0.23287 22.463-1.3041 18.308-2.6647 38.435-9.5061 50.793-19.388-0.0998-0.23287-0.19961-0.45908-0.33267-0.68197 0.133 0.23287 0.23287 0.45908 0.33267 0.68197 9.4708-7.5696 14.388-16.923 10.445-27.544-21.665-19.035-54.079-28.389-85.837-24.176-23.108 3.0739-52.999 14.693-71.389 35.36 6.5955 21.77 38.681 36.135 73.525 37.05"/>
  <path d="m79.38 89.566c-1.3506 4.6591 7.8514 1.1045 15.327-3.8024 6.22-4.0842 10.903-9.5646 9.0716-11.149-7.4874 2.3586-23.624 13.567-24.399 14.952"/>
  <path d="m124.25 92.754c-8.3324-3.5559-16.184 2.2056-20.233 7.4758-5.2811 6.9006-4.5652 16.829 2.3354 20.96 6.7366 4.0489 16.512 1.5602 22.427-7.2293 3.8024-5.6331 3.9784-17.58-4.53-21.207"/>
  <path d="m199.69 78.923c2.0892-2.7578 12.323 3.2169 15.386 5.4688 3.1803 2.3354 10.562 9.4359 8.3324 12.522-1.4305 1.9727-11.114-2.159-15.491-5.3048-4.354-3.1338-10.727-9.4003-8.227-12.686"/>
 </g>
 <path d="m194.01 145.11c2.2655-0.0116 6.4901 1.4538 6.8068 6.6424 0.23288 3.8493-2.4518 6.8657-6.2083 6.9478-3.4385 0.0665-6.6188-2.3254-6.6188-6.7835 0-3.9199 2.851-6.7832 6.0204-6.8068" fill="#ed192e"/>
 <path d="m192.97 136.96c6.9947-0.0998 14.06 6.2083 14.06 14.505 0 9.2363-6.2083 15.433-13.074 15.492-10.304 0.0665-15.045-7.2762-15.045-14.717 0-9.4592 7.3234-15.186 14.06-15.28" fill="#e50020"/>
 <path d="m71.78 138.35c8.2502 0 15.081 6.889 15.081 16.184 0 7.4994-5.6451 15.973-13.978 16.301-9.6821 0.3859-16.923-7.03-16.923-15.691 0-10.187 7.0533-16.794 15.82-16.794" fill="#fff"/>
 <path d="m226.75 87.991c2.5117 6.7482 1.4305 12.991-2.1125 18.578 10.551 19.54 15.304 41.557 14.212 59.372 7.3703-7.8397 12.358-16.688 13.626-25.948-0.93812-21.101-10.762-38.858-25.725-52.002" fill="#759ab5"/>
 <path d="m215.08 84.388c3.1804 2.3354 10.562 9.4475 8.3324 12.522-0.56222 0.77512-2.3952 0.60879-4.6591-0.06653 2.1258 3.157 4.0842 6.4076 5.8913 9.729 3.5326-5.5862 4.6125-11.83 2.0992-18.578-11.09-9.7526-25.009-16.947-40.207-21.089 5.88 3.1803 11.267 7.0417 16.161 11.431 3.9199 0.68198 10.105 4.3893 12.381 6.0556" fill="#888784"/>
 <path d="m223.41 96.91c2.2289-3.0739-5.1404-10.187-8.3324-12.522-2.2655-1.6667-8.4615-5.3753-12.37-6.0559 6.1145 5.4691 11.466 11.748 16.043 18.508 2.2655 0.68198 4.0958 0.84498 4.6591 0.06653" fill="#888784"/>
 <path d="m285.27 114.11c-3.7086-10.457-22.932-13.332-28.084-13.672 12.123 13.731 11.501 28.46-4.2249 39.386-0.96142 7.4638-5.023 16.512-12.182 24.974 9.6352 0 17.51 8.2855 14.142 13.109 5.7153-8.356 12.393-22.991 15.198-34.328 2.3354-2.3254 18.813-18.73 15.151-29.469" fill="#759ab5"/>
 <path d="m221.33 77.59c2.8044-2.1723 6.4665-7.4289 4.4245-10.738-2.3586-3.8261-14.353-2.8177-24.411 4.8587 2.2655 0.60879 5.8796 2.7113 6.1498 3.167 3.8843-2.3487 10.222-2.7113 10.762-2.2655 1.0912 1.4438 3.0739 4.9761 3.0739 4.9761" fill="#888784"/>
 <path d="m226.03 66.016c-3.4385-7.2293-11.313-8.5204-15.48-8.1564 0.48238 0.49235 0.60879 0.69196 1.2209 1.3041-0.3626 0.23287-3.6734 1.2309-6.2555 1.9594-0.77514-0.06653-2.3254-0.33267-3.544-0.48237-1.9727-0.13307-7.8514 3.509-9.565 7.9685 1.161 0.48237 8.6611 2.2888 8.9312 3.0972 5.7036-4.2485 15.374-9.4006 24.692-5.692" fill="#b4b4b0"/>
 <path d="m210.34 57.513-4.9408 3.6148 6.2436-1.8663z" fill="#888784"/>
 <path d="m210.52 58.975c-0.46908 0.16634-1.161 0.37592-2.0659 0.6221l1.5735-1.0912m15.245 3.7203c-3.9432-3.9668-13.038-5.3517-14.423-5.3048-0.84498 0.02362-1.0679 0.03326-1.7 0.50566-0.6354 0.45909-3.7555 2.9209-3.7555 2.9209-0.79842-0.09981-3.6501-0.6221-3.6501-0.6221-2.3453-0.16634-7.863 3.8141-9.5763 8.5906-0.16634 0.43247 1.2675 1.1045 1.4305 0.66867 1.5735-4.0842 6.713-7.6165 8.3091-7.5227 0.0123 0.01161 3.5326 0.49235 3.5326 0.49235 0.0998 0.01161 6.6072-2.0193 6.7951-2.1025 0.76183-0.2994 0.52895-0.5855 0.19961-1.1278 6.044 0.6221 11.736 4.2602 12.698 6.713-2.1125-1.8896-12.464-3.2968-24.61 5.9033-0.37592 0.26614 1.6068 1.1843 1.9594 0.89156 9.6824-7.8161 20.937-7.6987 22.568-4.9525 1.5369 2.6048-1.7964 7.0766-4.0842 9.4356-0.33267 0.33267 1.008 2.006 1.3274 1.6767 5.5629-5.7273 7.1238-12.029 2.994-16.172" fill="#0f141b"/>
 <path d="m29.284 109.26c-5.0347 1.7266-9.905 2.2988-11.806-0.0665-3.4388-4.2955 3.6497-12.78 11.032-17.651 7.5929-5.0346 20.714-5.1521 22.31-1.3506 1.0313 2.4651-1.8064 6.4315-5.5866 9.87-1.0912-1.0912-1.5602-1.8763-2.8044-4.0489-5.1521-1.7266-11.536 1.2442-15.28 7.3231 0 2.8044 1.4072 4.366 2.1357 5.9385" fill="#888784"/>
 <path d="m37.591 79.788c0.16634 2.8044-2.4984 3.157-4.4598 3.2735-1.9594 0.13307-10.105-0.40919-11.372 0.13307-9.189 3.9195-11.137 21.688-5.2106 25.431 1.2442-15.902 21.817-24.622 33.353-20.256-1.843-2.5715-8.0976-6.8653-12.311-8.5789" fill="#b4b4b0"/>
 <path d="m37.134 80.216c-3.5676-0.3859-5.1873 1.4072-6.9126 2.1357l6.7482-0.33267z" fill="#888784"/>
 <g fill="#0f141b">
  <path d="m38.253 104.17c-6.713 4.0253-17.228 7.6401-20.127 4.4831-2.1025-2.2755 2.1723-11.431 10.844-16.43 8.1917-4.7412 19.423-5.5626 20.937-1.9727 1.3041 3.1105-5.0347 9.9402-11.654 13.919m-24.07-4.6943c0.0665-6.0676 2.5582-12.933 7.6518-15.104 6.044 0.1996 13.496-0.93813 14.482-1.2675 0.97472-0.33267 1.7731-0.57552 1.6301-2.0426 2.4884 0.71524 7.1235 3.5326 9.9286 6.1029-2.8743-1.1843-11.278-1.2209-19.869 3.6028-6.8304 3.8257-12.182 11.102-12.135 16.266-1.0446-1.7498-1.7365-4.5772-1.69-7.558m22.122-18.156v0.02362c-0.4591 0.16634-2.8976 0.43247-4.4009 0.6221 0.97472-0.55224 3.1105-1.0546 4.3187-1.1144m16.149 9.1658c-0.64538-4.8587-11.348-10.304-14.916-11.149-3.9199-0.2994-8.3441 2.9807-8.403 3.0406 0 0-6.8773-0.16634-7.7808 0.23287-6.0087 2.5582-8.9076 10.961-9.0014 17.357-0.0665 5.4808 1.3606 10.257 4.5536 11.724 4.706 2.149 12.041 0.1996 22.052-5.7975 8.2033-4.9175 14.012-11.478 13.496-15.409"/>
  <path d="m227.82 88.56c-0.23287-0.55223-1.8763-1.5968-1.7133-1.161 8.2858 20.702-19.951 40.618-60.71 46.697-40.454 6.0323-87.092-7.4289-95.19-35.525-0.02321-0.09979-0.0665-0.1996-0.133-0.26614-0.3859 0.3859-0.97474 1.0679-1.4305 1.4671 7.3467 26.687 51.744 43.528 97.361 36.886 41.745-6.0792 70.791-27.92 61.825-48.106"/>
  <path d="m224.5 85.353c-0.45909 0.03326 0.71525 1.527 1.1278 1.5037 17.991-0.91484 37.25 17.181 38.611 29.926 1.2309 11.677-6.3141 18.848-11.548 22.592l0.72856 1.8663c8.3091-5.9269 14.6-12.651 13.45-25.326-1.3507-15.034-25.232-32.485-42.367-30.56"/>
  <path d="m256.62 99.912c-0.4591 0.03327 0.7851 1.6667 1.2442 1.6301 1.7366-0.13307 21.982 1.853 25.854 12.898 3.7792 10.762-12.358 26.734-14.188 28.554-0.0998 0.0998-0.16633 0.23287-0.19961 0.3859-7.7812 31.405-26.993 51.38-64.242 66.777-33.259 13.755-87.198 8.4266-125.46-12.381-0.133-0.0665-0.26613-0.0998-0.38922-0.0998-40.278-1.5037-75.427-11.337-76.096-25.232-0.5855-12.1 20.374-24.845 22.275-25.091 0.45576-0.0333 0.73853-2.4052 0.33267-2.2289-13.05 5.7622-26.453 18.144-25.725 27.567 1.2775 16.783 41.334 26.253 78.736 26.699 38.376 21.559 94.145 27.779 127.73 13.778 40.63-16.959 57.154-38.776 64.759-69.219 3.8024-3.9199 19.446-18.296 15.374-30.208-4.2838-12.076-28.319-13.966-29.985-13.825"/>
  <path d="m284.6 117.02c-2.0892 6.5017-11.126 18.332-14.048 21.301-2.3719 2.4185-0.77512 2.2888 1.6068-0.13307 3.0173-3.0739 8.4379-9.4356 11.959-16.066 2.1956-4.1428 2.0293-9.9286 0.48238-5.1168"/>
  <path d="m33.116 190.4c10.644 3.2036 40.254 6.0204 46.404 5.3281 33.178 16.149 62.177 19.951 79.159 20.104 9.6235 0.0665 7.4169-0.8217-3.6264-1.1843-17.264-0.57552-44.291-5.3986-75.075-20.42-0.09982-0.0333-0.19961-0.0665-0.33267-0.0333-5.3753 0.70526-33.389-1.6667-44.749-4.6591-4.7881-1.2675-6.0789-0.3992-1.7964 0.88158"/>
  <path d="m79.543 204.06c5.6098 3.6966 56.344 37.426 118.27 11.29 0.4358-0.16634-11.337 1.7365-15.304 2.8876-51.239 14.811-95.577-11.431-100.72-14.811-0.37592-0.26613-2.6414 0.37592-2.2522 0.63208"/>
  <path d="m36.666 194.72c14.564 13.942 34.539 14.236 49.091 7.37 0.40918-0.19961-2.4651-0.77513-2.8976-0.60879-11.912 4.3071-29.891 5.0346-44.244-7.4642-0.35262-0.29941-2.2755 0.38924-1.9494 0.70526"/>
  <path d="m352.75 217.95c-0.835-0.16634-4.6474-0.83168-6.5955-1.2076l6.8537-14.67c1.5835 0.56221 5.0466 1.3839 6.1145 1.7598-0.64538 1.4205-5.9032 13.074-6.3726 14.118m-8.5553-1.8064-1.69-0.98471c1.9361-4.2366 6.6424-14.693 6.7599-14.952 0.13314 0.0665 1.7266 1.0313 1.7598 1.0446-0.50566 1.0778-5.4219 11.841-6.8301 14.893m-3.7792-0.53892-12.158-2.2888 7.5463-17.252 11.712 3.9079c-0.85829 1.8796-5.7858 12.757-7.1002 15.632m-68.913-63.432c-1.3506-1.0213-1.9029-1.853-2.0426-2.2522 0.51565-0.0333 2.159 0.0665 4.213 1.1843 17.287 9.3181 67.763 40.958 82.41 49.889l-3.3201-1.161v-0.0109s-64.254-38.705-65.674-39.574c-2.2888-1.3972-7.8278-3.1105-2.6514 0.0665 8.051 4.9994 43.587 27.051 57.6 35.759l-6.4196-2.2655c-2.2422-1.3839-51.427-31.98-64.113-41.627m89.674 49.572c-0.68198-0.4225-68.526-42.108-87.409-52.26-5.8094-3.1204-8.3796 0.52895-3.3919 4.3191 12.205 9.2712 55.84 37.391 63.268 41.322-0.55223 1.1843-6.9359 15.879-7.6518 17.416-7.1944-4.7296-59.489-39.081-64.677-45.747-0.26613-0.3626-1.4571 2.2755-1.161 2.6281 5.6335 6.713 62.729 44.855 65.217 46.474 0.0236 0.0236 0.0333 0.0236 0.0665 0.0333 0.0665 0.0333 0.13301 0.0665 0.23287 0.0998l14.2 2.3586c1.0679 0.16634 1.4438-0.16634 1.5503-0.36262 0 0 2.9208 1.1976 2.9342 1.1976l9.0836 1.6534c0.80839 0.16633 1.1144-0.26615 1.3374-0.77513l7.0766-16.771c0.4225-0.93813-0.23286-1.314-0.66866-1.5835"/>
 </g>
 <path d="m46.689 299.03-22.65 16.29 13.473 8.8604 23.46-16.278z" fill="#e50020"/>
 <path d="m90.221 267.1-23.061 16.911 13.731 10.293 23.132-15.773z" fill="#00a4e3"/>
 <path d="m90.107 266.58c-0.83168-6.9475-9.7995-43.493-13.79-57.741-6.8657-24.516-38.517-4.7412-46.099 8.9545-8.4029 15.186-8.9429 58.351-5.3284 97.232l21.336-16.301s-5.2106-61.895-1.3041-69.711c2.7578-5.516 8.2502-6.5134 11.724 1.3041 4.1311 15.421 8.884 49.056 10.422 52.988 0 0 23.061-16.536 23.037-16.724" fill="#717071"/>
 <path d="m103.69 277.1c-6.2552-24.094-10.269-42.93-13.755-53.985-4.9056-15.562-13.731-23.413-21.699-25.49 2.0293 0.57552 4.3893 2.8177 6.1378 6.0792 5.6451 13.684 11.114 41.639 15.421 62.318 2.8177 3.6966 13.895 11.079 13.895 11.079" fill="#595757"/>
 <path d="m54.006 246.47c-1.008-9.201 1.5137-11.935 3.8024-11.689l-0.98471-4.2482c-2.8177-7.9688-10.786-8.708-12.874 3.5559-1.5037 8.8607 0.83168 61.977 2.7811 64.9 1.9594 1.3373 14.306 8.9192 14.306 8.9192-0.26613-0.51563-4.5769-39.127-7.0297-61.437" fill="#717071"/>
 <path d="m54.064 247.01c-0.02362-0.16634-0.03332-0.35264-0.0665-0.52896-1.008-9.201 1.5137-11.936 3.8024-11.689l-0.9847-4.2486c-2.8177-7.9685-10.785-8.708-12.874 3.5559-0.43581 2.5948-0.61212 17.897-0.49236 25.702 3.3683-11.091 7.6282-13.954 10.609-12.792" fill="#595757"/>
 <g fill="#0f141b">
  <path d="m80.723 293.4c-1.8197-1.3839-9.1421-7.2293-11.736-9.189 4.1311-3.0273 20.327-15.421 21.207-16.055 0.86828 0.71524 11.173 9.06 12.616 10.257-1.5369 1.0546-19.165 12.992-22.087 14.987m-22.955-62.869c-1.1377-4.1428-3.8261-6.9711-7.3584-6.7482-3.5443 0.1996-6.7835 2.8743-7.5463 10.422-1.1144 11.114 1.2442 53.257 2.3819 64.078l-19.74 13.93c-3.3101-36.886-2.8643-79.018 5.4455-94.028 4.8939-8.8371 21.406-21.43 33.33-20.045 5.6098 0.65868 9.3887 4.3307 11.231 10.915 4.1897 14.975 11.959 50.464 13.485 57.459l-21.324 15.785c-0.39922-2.0293-8.4382-46.486-9.905-51.767m-2.7213 4.4831c-1.0213 1.0213-2.0992 3.1704-2.0992 7.6285 0 1.1377 0.0665 2.4418 0.23287 3.9195 1.3839 12.628 5.6331 49.96 6.8537 59.102-3.2269-1.996-10.668-6.4548-12.522-7.687-1.0679-7.9805-3.9082-53.645-2.7346-63.749 0.69196-5.9734 3.0173-8.4615 5.6098-8.696 2.5948-0.23286 4.4478 1.8763 5.6567 5.2812 0.16634 0.45576 0.43248 1.6201 0.7851 3.2635-0.64538 0.16634-1.2675 0.4225-1.7831 0.93813m-17.334 87.632c-1.6434-0.76182-9.3887-5.3397-11.489-7.511 1.6068-1.1743 17.522-12.945 20.327-14.998 2.4185 1.5835 10.21 5.9269 13.086 7.699-4.3307 2.9441-21.148 14.294-21.923 14.811m51.298-98.734c2.1823 6.9478 4.7296 17.181 7.9568 30.126l5.9971 22.216-11.853-10.234c-1.3506-6.6425-9.741-43.799-13.531-57.354-0.7984-2.841-1.6201-4.8114-3.1205-6.6894 5.7622 3.2735 11.29 11.607 14.552 21.934m16.665 55.734c0.36261-0.33268 0.40918-0.51564 0.1996-1.2908-1.6068-6.396-12.558-48.822-14.506-55.311-6.1614-20.421-19.13-26.101-26.664-26.981-12.757-1.4904-29.645 10.163-36.041 21.336-10.809 18.848-7.558 73.537-5.8796 97.854 0.13314 1.68 14.177 10.574 14.952 10.199 3.6614-1.8197 21.042-14.201 24.058-16.383 0.44578-0.33267 0.4591-0.44578 0.36262-1.3606-0.64538-5.9269-4.4362-36.581-6.889-58.879-0.5988-5.4571-1.0579-11.548 1.9262-12.229 1.5735 7.675 7.4641 42.495 8.4498 47.824 0.09982 0.50566 0.133 0.69195 0.49236 0.98471 2.2422 1.7831 14.083 10.68 14.083 10.68 0.49236 0.37592 0.6587 0.3626 1.1278 0.0333 0 0 21.101-13.684 24.317-16.489"/>
  <path d="m207.16 74.373c-0.38589 0.26614 1.6301 1.5137 2.0293 1.3041 2.3353-1.2076 4.9292-2.5449 8.4735-1.8996 2.1357 3.6497 8.5789 12.675 8.8604 13.074 0.26613 0.37592 1.8064-0.71524 1.5502-1.0912-0.0665-0.09979-7.0886-10.093-8.9076-13.637-0.19961-0.40919-0.64539-0.40919-1.0912-0.46907-4.2482-0.48237-8.1564 0.87825-10.914 2.7213"/>
  <path d="m215.27 79.06c-0.36261 0.2994 1.0213 1.5037 1.4305 1.3041 0.76182-0.3859 3.1936-1.4904 5.2575-1.161 0.45909 0.06653-0.26613-1.853-0.73852-1.9262-2.4884-0.3992-4.8823 0.91485-5.9502 1.7831"/>
  <path d="m225.23 82.364c0.0665 0.02362 0.1996 0.01161 0.26613 0.03327-0.0998-0.03327-0.1996-0.03327-0.26613-0.03327m-4.1191 0.53893c-0.44578 0.13307-0.0236 1.5835 0.4225 1.4671 1.0446-0.26614 3.5323 0.71524 4.7412 1.0679 0.13314 0.06653-0.92816-2.8177-1.0446-2.8177-1.3373-0.26614-3.6381-0.09981-4.1191 0.26614"/>
 </g>
 <path d="m53.147 114.57s-9.9286-17.287-10.293-18.261c-6.5014-3.4388-15.21 3.3101-15.691 8.3324 1.1045 3.1936 10.046 19.986 10.046 19.986 1.008-3.0639 12.534-9.7759 15.937-10.058" fill="#888784"/>
 <g fill="#0f141b">
  <path d="m26.434 105.25c1.1144 3.2169 9.189 19.247 9.5646 19.939 0.1996 0.40918 2.0193-0.83168 1.9495-0.96142-0.0665-0.16634-8.5906-16.137-9.9166-19.646 0.33267-2.3819 2.7445-5.3044 5.8796-6.9828 1.7365-0.93813 5.0932-2.2189 8.3324-0.64538 1.2575 2.4751 8.6258 15.327 10.187 18.026 0.23287 0.3992 2.3586-0.57552 2.1125-0.97473-4.0722-6.6894-10.539-17.228-10.856-18.026-5.7622-4.8939-18.097 3.4854-17.252 9.2712"/>
  <path d="m36.084 123.1c-0.09982 0.44578 1.161 1.314 1.2575 0.85496 1.3739-6.9475 9.8697-10.809 15.186-9.9519 0.45908 0.0665 0.33932-1.4305-0.133-1.5037-7.4405-0.98471-14.834 3.5912-16.325 10.598"/>
  <path d="m32.553 116.53c-0.13314 0.43579 1.0313 1.1743 1.1743 0.73852 2.4285-7.2642 9.8111-9.8933 15.456-9.3534 0.45576 0.0333 0.33267-1.3373-0.13314-1.4072-6.0443-0.92815-13.766 1.8297-16.501 10.022"/>
  <path d="m29.438 110.14c-0.0665 0.16634 1.0912 1.0446 1.161 0.86828 2.3819-6.009 9.9169-9.9169 14.658-8.9898 0.45909 0.0998 0.5855-1.1843 0.13314-1.3141-4.9408-1.5137-12.874 1.9727-15.961 9.4356"/>
  <path d="m56.8 155.15c0-9.2479 6.6661-15.961 14.975-15.961 7.9924 0 14.248 6.7366 14.248 15.351 0 7.6518-4.9292 15.139-13.179 15.468-7.7223 0.29941-16.043-5.5629-16.043-14.858m-2.4884 0.0333c0 9.7406 8.1801 17.205 18.719 16.735 10.293-0.44578 15.35-9.3654 15.35-17.357 0-10.551-7.9452-17.44-16.782-17.44-9.3887 0-17.287 7.7459-17.287 18.062"/>
  <path d="m248.14 118.08c-2.841-6.0087-3.9315-12.123-1.0912-13.978 1.9728-1.2908 6.6192 1.1278 10.375 8.884 3.2735 6.7952 2.1491 11.807 0.6221 12.757-2.0193 1.2675-6.6188-0.70526-9.905-7.6634m-2.2189-15.28c-1.68 1.1045-2.1823 2.7712-2.1823 5.3986 1.1278 3.0739 2.851 6.5955 4.4009 9.8817 1.0579 2.2422 1.0812 3.6264 1.7133 5.5629 2.1823 3.5443 6.4312 4.7765 8.7782 3.5323 2.9209-1.5602 3.8494-8.5084 0.48238-15.327-3.7322-7.558-9.6704-11.349-13.191-9.0487"/>
  <path d="m215.33 117.02c13.238 25.725 3.6966 48.774-11.642 56.133-21.758 10.421-51.814-5.3164-59.501-37.086-0.13314-0.44578-3.0639 0.29941-2.9574 0.73853 7.6285 32.896 39.703 49.713 63.714 38.212 17.052-8.1684 26.253-33.741 12.804-59.642-0.1996-0.40919-2.6281 1.2309-2.4185 1.6434"/>
  <path d="m103.33 75.254c-0.0333 2.0759-3.6148 6.2316-9.0836 9.8111-6.5839 4.3187-12.686 6.2552-13.884 5.375-0.23287-0.16634-0.23287-0.89156 0.1996-1.2808 0.35264-0.2994-2.3353 0.88158-2.3254 1.2076 0.02362 0.8217 0.13314 1.2309 0.50566 1.527 2.7445 2.0193 12.076-1.9129 16.383-4.7412 4.7412-3.1205 10.562-8.9076 10.269-12.863-0.0665-0.92815-2.0659 0.68198-2.0759 0.96142"/>
  <path d="m106.37 120.47c-7.4289-4.4598-5.6684-14.564-1.69-19.74 5.3986-7.0417 12.933-9.8817 19.505-7.0886 6.6657 2.851 8.5906 12.886 3.9079 19.846-6.0792 9.0131-15.89 10.48-21.723 6.9828m-3.3799-21.277c-5.2695 6.8657-5.5862 18.273 2.4884 23.12 6.1025 3.6614 17.557 2.8876 24.446-7.3114 5.5746-8.2386 3.5443-19.329-4.9056-22.932-8.2386-3.521-16.782 0.2994-22.028 7.1235"/>
  <path d="m214.32 84.861c3.8024 2.7346 9.9991 9.377 8.4146 11.56-0.88158 1.2209-9.1658-1.7731-14.329-5.4924-5.8796-4.2249-9.7878-9.2127-8.051-11.501 1.2675-1.6767 9.4592 2.1956 13.966 5.4339m-15.421-6.5603c-2.9442 2.7811 0.92814 9.6115 8.3793 14.353 8.5204 5.4222 15.034 7.2176 16.83 4.7416 2.1823-3.0173-3.0972-10.07-8.8022-14.013-5.0932-3.5207-14.001-7.3351-16.407-5.0816"/>
  <path d="m199.52 149.6c1.0679 2.7113 0.0333 6.2669-2.2888 7.5696-2.8876 1.6068-6.8657 0.16633-7.9805-2.7712-1.2076-3.1438-0.38589-6.6192 2.9442-8.0626 2.8643-1.2442 6.2083 0.40919 7.3231 3.2635m1.6534-0.44578c-1.1843-3.5207-5.8796-5.8208-9.5883-4.2249-4.178 1.7964-5.3514 6.4665-3.7436 10.293 1.7133 4.0606 6.9828 5.1637 9.9519 3.4621 3.7203-2.1358 4.542-6.0909 3.38-9.5297"/>
  <path d="m180.23 155.99c-1.8996-7.206 1.8763-15.726 9.5414-17.698 6.6188-1.9361 14.646 2.5582 16.195 10.785 1.2908 6.7718-2.0293 13.837-8.1095 16.254-5.8444 2.3354-15.268-0.3992-17.627-9.3417m27.603-7.7576c-2.1823-10.269-11.959-13.543-18.648-11.642-8.5437 2.4285-13.684 11.126-11.255 20.162 2.4984 9.3185 13.309 13.109 20.737 10.234 7.7339-3.0173 10.762-11.255 9.1658-18.754"/>
  <path d="m72.423 153.15c0.85496-0.0236 1.4538 0.53893 1.527 1.5369 0.0665 1.008-0.53892 1.843-1.3506 1.843-0.75184 0-1.6301-0.66867-1.6301-1.6534 0-1.0446 0.66866-1.7033 1.4538-1.7266"/>
  <path d="m252.25 113.2c-0.4358 0.26614-0.37592 1.1377 0.0998 1.9494 0.37592 0.65869 1.2076 1.2542 1.7266 0.92816 0.49236-0.33267 0.48238-1.2209 0.0236-1.996-0.53892-0.91485-1.3606-1.1743-1.843-0.88158"/>
  <path d="m140.33 64.812c59.806-7.9335 109.36 29.105 111.3 75.133-3.4149 24.669-32.133 45.113-60.827 52.518-29.234 7.558-69.547 2.4052-96.047-12.909-0.16634-0.0998-0.36261-0.13314-0.56221-0.0998-33.365 5.7153-62.576-4.178-67.212-19.318-2.3586-7.6987-0.71524-18.39 5.4924-28.084 6.9595-10.856 17.334-17.451 28.471-17.71 6.6075-0.16633 14.952 3.1803 20.679 9.0603 10.245 10.515 15.139 27.579 14.552 46.826-0.16634 4.9761 1.5835 5.0819 1.9029-0.48238 1.1278-19.141-3.5676-36.639-14.822-47.742-6.4897-6.4079-13.966-9.729-21.805-10.034 15.198-27.826 49.796-43.305 78.877-47.166m-0.16633-2.5948c-29.891 3.7083-66.777 20.655-81.119 49.69-10.809 1.1045-21.641 8.1445-28.671 19.106-4.4362 6.9359-9.565 19.118-6.2083 30.208 4.6707 15.421 34.257 26.136 69.923 20.092 23.894 16.067 68.068 22.158 98.03 14.119 30.607-8.2153 58.644-30.161 61.754-55.57-3.0273-47.378-51.532-85.355-113.71-77.644"/>
 </g>
 <path d="m142.58 25.014c5.375-2.2056 8.4615-8.3208 7.5696-13.332-1.3041-7.3584-8.1681-11.607-14.541-10.292-6.361 1.3041-11.443 7.0297-10.304 14.212 0.96141 6.0792 5.7153 9.7879 11.642 10.21 0.29941 4.9408 2.698 44.925 3.0739 46.955 5.8211 3.7908 11.76 1.8896 13.391-1.3506-2.5117-11.689-9.8228-42.179-10.832-46.404" fill="#fcd13e"/>
 <path d="m143.92 30.59c-0.64539-2.7113-1.1278-4.706-1.3373-5.5746 5.3753-2.2189 8.4618-8.3208 7.5696-13.332-0.16633-0.85829-0.3859-1.6667-0.66868-2.4285-1.008 7.4758-7.4056 13.25-15.163 13.25-2.4651 0-4.7885-0.59881-6.8537-1.6434 2.1258 2.9209 5.5393 4.6707 9.4825 4.9525 0.0665 1.1976 0.26614 4.4714 0.52895 8.7549 2.0892-4.7176 4.5064-5.8327 6.4428-3.9784" fill="#d9b536"/>
 <path d="m148.95 73.731c-2.5582 0.69196-5.504 0.13307-8.1564-1.4804-0.38591-3.4152-2.0293-30.114-2.9574-45.5-0.0665-1.3041 0.133-1.6068-1.7133-1.853-5.2811-0.70526-9.1774-4.2718-9.9988-9.4239-1.1278-7.1002 4.1075-12.229 9.6468-13.273 6.6072-1.2309 12.311 2.6048 13.555 9.6235 0.8217 4.6005-1.9129 9.8111-6.361 12.064-1.1976 0.60879-1.3506 0.66867-0.96142 2.3121 1.5968 6.6777 8.1092 33.917 10.515 45.054-0.6587 1.1144-1.9594 2.0426-3.5676 2.4751m5.3517-2.994c-2.4418-11.348-8.9545-38.435-10.422-45.125 5.4339-2.4285 8.4615-8.9429 7.4642-14.552-1.3606-7.6518-8.356-12.311-16.348-10.762-7.0533 1.3606-12.452 8.051-11.231 15.761 0.96141 6.0087 6.173 10.058 12.323 10.797 0.4358 7.7339 2.5117 44.103 2.8876 46.134 0.0333 0.23287 0.35262 0.59881 0.55224 0.71524 3.0173 1.7731 6.7246 2.4052 9.8348 1.5602 2.1956-0.5855 4.0606-2.0526 4.8939-3.7203 0.0665-0.16634 0.0665-0.63208 0.0333-0.80839" fill="#0f141b"/>
 <path d="m51.454 121.11c0.51563-1.0812 1.6667-2.0992 3.2169-2.851 1.9262-0.92816 4.2835-1.3606 6.2905-1.161 3.0639 0.29941 6.361 1.6667 5.551 4.4947-0.38589 1.3606-1.7365 2.3586-2.7944 2.9574-1.9827 1.1144-4.6943 1.8197-6.6072 1.7266-4.5183-0.23287-6.9478-2.4651-5.6567-5.1637" fill="#c6d8e8"/>
 <path d="m136.41 118.26c1.3606-4.53 7.8161-6.9475 14.142-5.1285 4.6122 1.314 8.403 5.551 6.9475 10.163-1.1843 3.7439-6.5955 7.1002-14.024 5.387-6.2552-1.4305-8.3088-6.2672-7.0649-10.422" fill="#dbdcdc"/>
</svg>
