<?xml version="1.0" encoding="UTF-8"?>
<svg version="1.1" viewBox="0 0 444.82 380.75" xmlns="http://www.w3.org/2000/svg">
 <g transform="translate(.0058442 .014205)">
  <path d="m156.45 134.6 142.8-3.9q9.75 47 6.65 79.75-3.4 35.8-22.6 61.75-22.1 29.85-58.6 35.25-16.65 2.45-33.7-0.95-16.9-3.4-31.85-12.1-26.55-15.45-37.1-44.6-9.95-27.6-1.7-55.2 10.05-33.35 36.1-60" fill="#e73820"/>
  <g fill="#f9be00">
   <path d="m130.4 197.35q3.1 0.35 4.7-0.65l1.95-2.2q0.5-0.65-0.5-3.9-1.05-3.55-0.2-5.75 0.95-2.45 8.1-4.6 3.6-1.05 6.95-1.65 0.15 0.75 4.4 5.4l-2.15 23.85q-11.5-4.45-25.4 2.8-4.35 2.25-8.4 5.4l-3.2 2.7v-4.55q5.95-3.95 8.35-5.95 1.55-1.25 1.5-2.7l-0.5-2q-0.45-2.95 1-4.75 1.35-1.7 3.4-1.45"/>
   <path d="m239 158.9q7.95 7.3 15.9 10.95 11.15 5.1 24.1 4.25l0.25 2.9q0 3.05-1 3.75-2.45 1.85-16.3 2.25-5.65 0.2-8.15 1.25-1.95 0.85-2.75 2.6-0.85 1.75 2.5 9.05 3.3 7.15 2.3 8.8-0.95 1.55-5.6 3.35-7 2.7-9.25 3.9-8.9 4.6-14.35 12.6 0-2.1 1.25-5.85 2.55-7.5 8.85-15.85-3.1-0.15-7.6 0.9-8.9 2.15-15.55 8.45l-10.6-26.9q1.15-0.4 2.3-2.05 2.2-3.35 1.95-9.75l1.95 0.75q2 0.85 2.3 1.4 0.9 1.85 2.1 3.4 2.2 2.7 4.3 2.4 2.7-0.35 5.6-2.55 3.2-2.45 2.9-4.55l-2.05-6.5q-1.4-4.75 0.05-6.65 1.7-2.25 6.1-2.8l8.5 0.5"/>
   <path d="m306.7 179.45q0.5 10.8 0 21.55-1.55 34.25-12.75 54.75l-5.1 1.5q-5.3 1.8-6.5 3.1l-2.85 3.7q-1.65 2.1-2.95 2.1-0.4 0-6.5-3-5.85-2.85-7.2-2.45-1.55 0.5-4.6 6.75-2.95 5.95-2.95 7.65 0 0.8 2.5 7.45 2.4 6.35 2.1 7.45-0.5 1.8-2.95 4.35-2.8 2.85-4.95 2.85-1.6 0-3.6-0.75l-2.4-0.3q-0.95 0.3-2.95 3.85l-1.8 3.5q-4.4 1.6-10.75 2.95-12.6 2.75-22.05 1.65l20.7-63.75q2.1-1.65 5-3.25 5.75-3.2 9.6-2.9l11.5 2.1q7.5 1.35 9.7 0.2 3.05-1.6 9.55-9.95 6.75-8.7 6.25-11.3-0.4-2.05-3.95-5.6-3.75-3.8-4.1-4.75-0.6-1.7 0.25-4.15 0.8-2.15 2-3.2l8.2-3.4q7.55-3.05 9.2-5.2 0.95-1.3 1.65-8 0.65-6.7 1.5-7.8 1.1-1.45 5.95-4.05l4.6-2.3 0.65 8.65"/>
   <path d="m364.85 159.6q-4.7-8.7-6.7-11.5l20.55-33.4q11.9 3.65 32.3 17.25 19.55 13.1 26.4 21.3 4.85 5.8 2.85 17.85-2.05 12.5-9.95 21.2-9.4 10.4-24.05 11.9-4.95 0.5-9.6-0.1-3.65-0.5-4.55-1.1-5.95-3.9-18.25-26.45l-9-16.95"/>
  </g>
  <path d="m365.65 145.65q-6.4 3.55-13.65 1.75-3.5-0.85-8.8-4.3-4.85-3.15-7.55-5.95-2.6-2.8-2.3-8.5 0.4-6.7 4.85-15.3 3.85-7.35 8.5-10.75 4-2.9 8.35-2.7 4.25 0.2 12.15 4.2 7.75 3.95 9.4 6.55 3.1 4.85 2.6 12.05-0.5 6.9-4.05 13.2-3.75 6.6-9.5 9.75" fill="#595757"/>
  <path d="m277.95 324.5 29.1-0.75 19.85 8.15-3.75 13.15-14.25 9.8q-9.95 0.55-20.3-1.25-9.5-1.6-14.2-4.1-3.95-2.1-4.35-5.35-0.3-2.75 2.05-6.55 2-3.15 4.15-8.45l1.7-4.65" fill="#e73820"/>
  <path d="m302.3 231.5 2.25-11.6 0.6-4.6q12.5 14 13.95 30.65 1.45 16.25-7.8 33.3-9.8 18.05-27.3 20.9-13.15 2.1-25.4-4 4.9-3.35 11.35-9.2 12.85-11.65 20.4-24.2t11.95-31.25" fill="#f09cb4"/>
  <path d="m304.15 295.8q-1.7 10.7-1.25 19.4 0.15 2.85 2.6 7.8 1.9 3.8 0.9 4.9-1.15 1.2-5.55 2l-9.4 0.55q-12.7-0.45-13.5-5.95-3.2-22.4-9.2-25.45 7.55 3.35 17.9 0.7 12.05-3.1 19.25-12.9l-1.75 8.95" fill="#595757"/>
  <path d="m305.05 323.3q5.1 1.6 12.35 4.5 9.1 3.75 11.45 5.8l-23.8-10.3" fill="#e73820"/>
  <path d="m326.35 356.45-17.45-1.6q-3.15-0.9-1-6.8 2.05-5.7 4.5-6.4 2.85-0.8 16.5 6.35t12.6 8.8q-0.35 0.55-15.15-0.35" fill="#eeeeef"/>
  <path d="m340.75 338.55q11.75 6.8 10.85 8.55l-13.5-0.55q-13.35-1.25-15.85-2.45-1.1-0.5-0.1-5.15 1-4.8 3.05-5.7 3.6-1.65 15.55 5.3" fill="#eeeeef"/>
  <path d="m57.35 146.45q0.7 1.4 0.2 3.8-0.5 2.3 0 3.1 0.5 0.75 5.05 2.35 4.4 1.55 5 3 0.7 1.75-0.3 4.75l-2.4 5.8q-3.5 7.9-1.1 11.6 1.65 2.55 6.2 3.15 2.6 0.35 9.5 0.2 13.95-0.4 18.3 3.95 2.85 2.85 2.7 7.15-0.15 2.95-1.9 7.9-2.1 5.75-2.35 7.3-0.7 3.65 1.3 5.4 3.3 2.95 11.1-0.4 5.55-2.45 8.75-5.25l-1.05 8.3q-9.4 9.35-14.65 20.1-8.4 17.35-4.75 35.85-1.45-2.55-4.95-3.15-3.1-0.6-6.6 0.4-14.15 4.1-16.3 4.3-7.95 0.75-14.95-4.95-7.75-6.3-4.8-18.9l2.5-9.7q1.05-5.3-0.3-8.5-1.45-3.45-10.3-2.55l-6.55 0.6q-3.3 0.1-4.4-0.95-0.9-0.85-0.85-6.85 0.1-6.35-1.6-9-1.7-2.7-6.55-4.1-4.4-1.3-8.85-0.95l3-2.25q3.7-2.25 7.05-2.4 2.5-0.1 7.1 1.45l4.75 0.2q1.4-1.15-0.15-7.9-1.75-7.7-6.35-12.65l-7.5-5.2q-4.75-3.2-4.35-6.65 0.4-3.2 3.45-6.35 3.2-3.25 3.5-4.7 1.25-6.15-5.55-15.55-7.3-10.1-16.8-12.95 9.05-0.8 19.3 3.3 8.6 3.45 11.85 7.2 1.75 2 1.65 7.4-0.05 5.6 1.6 7.8 1.4 1.9 4.25 2.3l6.9-0.5q5.55-1.1 6.1-5.7 0.55-4.5-3.85-9.7-2.55-3.05-2.2-8.3l0.85-4.7q0.4 7.6 4.9 9.75l3.3 1.1q1.7 0.45 2.1 1.25" fill="#e73820"/>
  <path d="m153.45 113.6q-0.25 3.65 1.25 12.75l1.55 8.4-15.5 18.3q-6.3-10.8-13.95-31.95-8.25-22.7-5.6-25.35 1.75-1.75 13.9 5.7 5.35 3.25 18.35 12.15" fill="#f09cb4"/>
  <path d="m90.15 135.9q2.75-3.15 19.2 9.8 11.4 8.95 23.05 20.15-3.25 4.65-7.8 16.95-5.65 15.15-7.2 27.45-8.15-17.05-15.6-34.9-14.95-35.65-11.65-39.45" fill="#f09cb4"/>
  <path d="m370.9 23.85q5.35 4.5 5.15 10.5-0.15 4.8-3.15 7.6-3.05 2.85-3.1 3.6-0.1 1.85 2.05 3.45t2.1 2.05q-0.05 0.6-1.95 1.4-2 0.8-2.5 2-0.35 0.9 1 4.65 1.25 3.35 0.05 4.6l-5.25 0.15-8.45-2.1-5.95-0.7q-2.95 0.05-3.45 1.15-0.45 0.95 1.45 3.25l4.2 4.6q6 6.55 4.2 9.45-1 1.6-4.75 2.6l-7.1 1.75q-9.3 2.65-8.85 10.7 2.65 8.1 2.85 14.85 0.45 12.1-5.85 21.9-5.2 8.05-14.9 12.45-8.55 3.85-16.55 3.25l-3.4-15.4-2.65-68.95q-0.3-4.8 0.3-7.2 0.85-3.2 3.7-4.55l12.7 0.55q10.1 1.4 12.6-0.7 1.5-1.25 2-3.35l0.45-3.95q0.55-5.25 5-7.6 4.55-2.35 10.7-1 7.85 1.7 10.9 1.3 7.35-0.9 10.35-5.95 3.25-5.35-1.85-11 5.05 2.2 7.95 4.65" fill="#e73820"/>
  <path d="m357.15 111.9q0.4 4.4-1.45 9.3-1.85 4.95-5.3 8.25-3.75 3.6-8.3 3.95-1.5 0.15-3.95-0.95l-4.25-2.15q4.9-5.8 5.3-18.2l-0.55-11.3q5.25 0.55 9.4 1.65 4.15 1.15 5.75 2.4 2.9 2.35 3.35 7.05" fill="#f9be00"/>
  <path d="m439.85 173.85q4.35 10.55 4.05 11.7-0.2 0.7-4.65 1.05l-4.4 0.15 2.5-4.9q2.5-5.45 2.5-8" fill="#eeeeef"/>
  <path d="m414.2 203.4 11-6.15q1.4 8.15 0.35 8.75t-11.35-2.6" fill="#eeeeef"/>
  <path d="m310.65 88.6q-0.15 10.9-10.3 19.8-10.85 9.55-25.45 8.9-17.4-0.7-31.55-14.3l-14.3 0.45q-1.35-2.25-3.75-5.2-4.9-5.85-10.4-9.2-0.85-1.5-1.6-3.5-1.5-3.95-1.05-6.35 0.4-2.1 2.45-5.8 2.1-3.9 2.45-5.35l0.9-2.65q0.55-1.8 0.15-3.2-1.1-4.2-10.45-8.9l2.75-0.8 6.55-0.3q10.25 1.25 15 12.85 0.75-1.5 1.2-3.75 1-4.4-0.3-7.85-2.7-5.85-3.9-8.95-2.1-5.45-0.9-8.8t4.75-6.2q1.8-1.4 3.3-2.15l56.15 32.75q4.1 2.75 7.55 6 10.95 10.45 10.75 22.5" fill="#e73820"/>
  <path d="m302.65 106.6 1.4 8.55q0.9 9.2-1.4 12.45-2.35 3.25-4.9 4.5l-2.1 0.55q-1.4 4.2-5.6 8.15-8.3 8-21.95 7.05-19.6-1.35-30.45-16.65-10.6-14.9-7.4-34.9l5.65 6.45 1.2-14.75 5.55 13.6q6.8 14.65 13.2 19.75 6.8 5.4 20.05 4.8 11.15-0.5 15.1-3.3 7.75-5.6 8.65-13.85l3-2.4" fill="#f09cb4"/>
  <path d="m292.8 121.8q-7.15 4.2-17.4 4.6-10.75 0.4-17.9-3.85-4.25-2.55-8.75-9.05-4.2-6-5.4-10.5l2.4 2.15q3.05 2.6 6.5 4.8 11.1 7 21.8 7.05 10.7 0.1 19.05-3.65 4.2-1.85 6.25-3.75l-1.25 4.9q-1.95 5.35-5.3 7.3" fill="#595757"/>
  <path d="m287.85 115.55q2.65-0.45 7.3-3.25l4.1-2.65q0.45 1.45-1.25 5.45-1.7 4.05-3.1 4.5-4.2 1.4-6.05-1.2l-1-2.85" fill="#fff"/>
  <path d="m267.05 116.4q-0.65 1.6-2.25 3.05-3.2 2.9-7.95 2.25-2.9-0.4-7.4-7.5-3.95-6.15-5.1-10.15l7.15 5.8q8.5 5.95 15.55 6.55" fill="#fff"/>
  <path d="m228.55 147.75q3.95-5.4 5.8-13.9l1.05-7.45q3.45 9.65 14.35 15.6 10.75 5.85 23.5 5.45 10.55-0.35 17.6-7.8 3.55-3.7 5-7.35l3.65-0.7 3.7 17.65q0.3 1.8-1.2 5.55-1.7 4.3-4.65 8.2-8.1 10.7-19.7 11.4-18.35 1.15-35.55-12.65-5.4-4.3-10-9.6l-3.55-4.4" fill="#595757"/>
  <path d="m273.9 46.1q1.95 3.5 5.8 5.85 16.15 10.05 18.6 22.15 2.7 13.5-12.35 27.45-0.2-4.3-1.4-9.4-2.5-10.15-7.7-13.85-6.1-4.35-10.5-5.7-4-1.2-12.25-1.45-11.85-0.35-14.6-8.65-0.75-2.15 0.8-5.65 1.5-3.3 4.4-6.4 3.15-3.4 2.75-6.7-0.45-3.95-6.05-7.15-9.85-5.6-5.8-8.8 0.05-0.05 4.4-2.35 2.85-1.55 3.05-3 0.1-0.65-0.75-5.5-0.7-4.25 0.15-5.95 1.8-3.6 8.05-6.75 8.6-4.4 19.95-3.4-14.25 9.25-11.95 16 1.7 5.05 11.35 7.25 5.45 1.2 7.9 4.7 3.25 4.6-2.95 9.9-3.45 2.9-0.9 7.4" fill="#f9be00"/>
  <path d="m240.95 120.25q6.5 17.3 16.6 18.65 6.7 0.9 12.4-0.85 9.1-2.75 12.45-3.25l13.25-1.85q-1.25 3.45-4.75 7-6.95 7.1-18.1 7.65-21.55 1.1-33.75-15.25-11.3-15.15-8.8-35.85l6.25 6.7 1 5.3q1.45 6.35 3.45 11.75" fill="#d0879d"/>
  <path d="m287.6 134.05q-0.55 1.25-2.1 2.55-3.05 2.7-7.95 3.3t-7.05-0.65l-1.15-1.4 12.1-3.05 6.15-0.75" fill="#ce7486"/>
  <g fill="#c82e19">
   <path d="m231.8 64.5q-0.85 1-5.05 8.2-2.7 4.6-1.85 11.3 0.85 7.1 5.3 11.7l-0.4 9.65q-2.25-5.05-8.75-11.45l-6.1-5.4q-3.55-5.7-2.25-10.85 0.35-1.55 4.15-8.85 1.95-3.8 0.95-7.35l-1.4-2.85q5.15 1.7 7.9-0.05 1.4-0.9 1.75-2.1 2.15 1.25 4.15 4.8 1.05 1.75 1.6 3.25"/>
   <path d="m254.55 111.6q-8.55-4.6-11.65-9.85l-2.8-6.65q17.85 15.8 37.8 15.8 18.25 0.05 29.9-12.4-1.6 4.55-6.35 9.15-9.45 9.2-25 9.45-11.45 0.2-21.9-5.5"/>
   <path d="m334.5 130.25q-9.55 16.15-32.3 16.85l-2.9-15.4 2.7-3.05q2.7-4.1 2.4-9.25 2.05 2.2 6.6 3.4 4.65 1.25 9.95 0.9 13-0.8 18.55-9.45-0.2 7.95-5 16"/>
   <path d="m353.65 70.55q4.35 5.5 3.95 7.55-0.45 2.15-2.65 3.15l-5.85 1.65q-5.5 1.25-7.85 2.8-4.3 2.8-5.1 8.8-3.5-7.15-5.6-8.6-2.3-1.6-1.65-4 0.85-3.05 7.25-4.05l7.6-0.6 6.45-0.85q5.65-1.9-1-10.95l4.45 5.1"/>
  </g>
  <path d="m267.4 116.7q-1.1 1.7-2.75 3-11.45-2.55-17.1-9.4l-4-7.15q2.9 3.5 8.3 7 7.5 4.9 15.55 6.55" fill="#dbdcdc"/>
  <path d="m299.4 109.7-0.4 3.35q-3.6 3.6-9.65 5.65-1.35-1.35-1.9-2.9 5.2-1.4 9.1-3.9l2.85-2.2" fill="#dbdcdc"/>
  <path d="m287.45 115.8q0.55 1.55 1.9 2.9-5.45 1.85-12 2.15-6.5 0.25-12.7-1.15 1.65-1.3 2.75-3l8.5 0.75q6.15-0.15 11.55-1.65" fill="#3e3a39"/>
  <path d="m338.8 119.85 7.6 2.75q7.9 2.25 9.35-0.05-3.55 9.25-11.55 10.5l-5.9-0.4q-2.6-0.8-3.7-2.3 1.65-3.45 4.2-10.5" fill="#d7a400"/>
  <path d="m368.8 143.4q-6.65 5.2-13.35 4.85-4.95-0.25-12.4-5-6.2-4-8.2-6.65-0.7-0.95-1.15-3l-0.25-1.85 0.5-1.3 3.45 1.95q4.1 1.7 7.05 0.75 3.7-1.2 6.45-3.5 2.85-2.4 3.25-4.85 0 2.85 1.45 4.55 1.75 2 7.15 4.65 5.65 2.75 9.3 2.9 2.8 0.05 3.55-1.35-1.65 3.8-6.8 7.85" fill="#3e3a39"/>
  <path d="m365.25 145.9q3.7-1.75 5.3-3.65 7.05 21.2 18.15 35.05 9.9 12.3 18 13.35 15.5 1.95 24.95-9.4 8.85-10.6 7.9-26.35 1.6 5.25 1 13-1.05 13.25-9.3 23.3-8.45 10.3-22.7 12.65-9.9 1.65-16.65-0.45-5.25-1.55-21.1-31.3l-12.65-24.15q3.35-0.35 7.1-2.05" fill="#d7a400"/>
  <path d="m438 181.15q0.15 1.8 2.25 3.3l3.4 1.75-8.6 0.65 2.95-5.7" fill="#c8c9ca"/>
  <path d="m421 205.35-7.65-2.3q1.9-0.4 11.9-5.8l0.6 2.1q-2.65 0.8-3.8 2.8-0.55 0.95-1.05 3.2" fill="#c8c9ca"/>
  <path d="m124.65 113.4q5 5.3 13.95 7.45 8.85 2.15 15.35-0.25l0.4 4.85q0.7 5.55 2.1 8.9l-7 7.65q-7.3 8.3-8.55 11.55-4-8.35-8.05-17.55-8.05-18.4-8.2-22.6" fill="#d0879d"/>
  <path d="m94.2 156.05q4.45 3.95 15.3 4.85 10.6 0.85 15.15-1.95l7.65 6.8-7.15 15.55q-7.3 17.7-8.15 28.4l-11.25-25.05q-11.25-25.65-11.55-28.6" fill="#d0879d"/>
  <path d="m89.3 184.4q7.25 0.1 9.8 5.95 2.55 5.8-0.9 13.3-4.15 9.1-0.2 12.05 3.75 2.8 11.85-1.05 4.05-1.9 7.35-4.4v8.55q-18.3 16.35-21.1 37.05-1.45 10.35 0.8 17.45-3.5-3.2-13.4-0.55l-8.2 2.35q-4.7 1.2-7.7 1.15-12.1-0.3-18.5-11.4-2.1-3.6-0.5-11.55 2.5-9.45 3.4-13.95 1.1-5.7-2.15-7.25l-5.45-0.55-6.2 0.55-6.85-0.35q-1.4-0.5-1.75-2.7-0.35-2.15-0.2-8.9 0.05-2.6-1.4-4.8l-1.5-1.65q12.15 3.4 24.6 2.75 11.95-0.65 21.35-4.8 9.6-4.25 14.1-11.1 4.8-7.3 2.75-16.15" fill="#c82e19"/>
  <path d="m277.1 266.15q1.3-0.1 2.8-2.35l2-3.2q0.7-0.65 11.65-5.5-7.35 14.05-17.35 24.95-12.55 13.7-28.1 20.95-3.4 1.65-7.1 2.9 0.6-2.1 2-4.35 1.6-2.5 3.15-3.2l1.85 0.15 3.1 0.75q1.95 0.2 5-2.1 3.05-2.35 3.5-4.25 0.3-1.3-1.85-7.25-2.3-6.35-2.3-7.95-0.05-2.7 2.65-8 2.85-5.5 5.05-6.4 1.7-0.65 6.9 2.1 5.55 2.9 7.05 2.75" fill="#c82e19"/>
  <path d="m303.05 229.75q-0.1 2.4-2.3 8.85-2.8 8.15-7.2 16.5-10.95 4.85-11.65 5.5l-2 3.2q-1.5 2.25-2.8 2.35-1.5 0.15-7.05-2.75-5.2-2.75-6.9-2.1-2.2 0.9-5.05 6.4-2.7 5.3-2.65 8 0 1.6 2.3 7.95 2.15 5.95 1.85 7.25-0.45 1.9-3.5 4.25-3.05 2.3-5 2.1l-3.1-0.75-1.85-0.15q-1.55 0.7-3.15 3.2-1.4 2.25-2 4.35-23.95 8.4-53.15 1.25-9.15-2.25-17.7-5.75l-6.7-3.05q8.55-6.45 12.8-19.05 1.35-3.95 2.1-8.05l0.5-3.3q36.5 9.65 71.85-0.5 35.7-10.3 52.35-35.7" fill="#d7a400"/>
  <path d="m270.8 285.95q14.05-11.8 18.15-21.5 3.55 8.1 11.9 11.5 8.1 3.3 13.25-0.45-1.7 4.25-5.5 9.2-7.6 9.95-18.05 13.7-10.5 3.75-22.75 0.95-3.85-0.85-7.4-2.3l-2.8-1.25q6.2-3.95 13.2-9.85" fill="#d0879d"/>
  <path d="m299.7 293.7 5.45-4.5-1.5 10.55q-1.95 12.25-14.9 13.65-5 0.55-9.2-1.05-4.15-1.55-4.75-4.25l-2-4.7-1.75-3.65 4.65 0.8q5.8 0.5 11.6-0.8 5.75-1.3 12.4-6.05" fill="#3e3a39"/>
  <path d="m286.15 346.85q11.3 3.3 21.55 2.5-1.2 1.7-0.75 3.75 0.25 1.05 0.75 1.75l-14.4-1.35q-15.35-1.85-20-4.3-7.9-4.05 0.3-13.7-1.25 7.3 12.55 11.35" fill="#c82e19"/>
  <path d="m316.35 342.65q-4.2 1.6-2.55 7.4 1.6 5.75 5.95 5.85l-5.55-0.05q-5.75-0.3-6.8-1.45-1.7-1.85 0.85-7.35 2.5-5.35 4.65-5.6l1.6 0.2 1.85 1" fill="#c8c9ca"/>
  <path d="m333.45 345.95q-11.45-0.6-11.9-1.65-0.5-1.15 0.75-5.65 1.35-5 3.4-6 0.85-0.4 2.3 0 1.4 0.35 1.6 0.9-3.5 1.65-1.95 6.3 1.55 4.5 5.8 6.1" fill="#c8c9ca"/>
  <g fill="#0d131a">
   <path d="m228.35 57.45q2.5 2.9 3.55 6.3l-0.35 1.55q-0.5 1.3-0.55 0.95-0.55-3.55-3.3-7.05-2.7-3.4-5.95-4.85-2.9-1.3-6-1.5-3.1-0.25-6 0.6 4 1.9 6.1 3.75 2.15 1.9 2.85 4.2 0.65 2.15-0.2 5.25-0.85 2.95-2.75 5.85-2.7 4.25-2.45 8.7 0.3 5.1 4.7 9.15l-0.5 0.4-0.8 0.1q-4.75-4.4-5.5-8.5-0.85-4.5 2.8-10.15 4.3-6.75 3.25-10.35-1.05-3.35-8.2-6.8-2.45-1.15-2.4-1.95 0-0.85 2.8-1.6l6.5-0.3q3.4 0.4 6.45 1.75 3.4 1.55 5.95 4.5"/>
   <path d="m263.65 21.15q2.5 1.25 7.4 2.55 8.15 3 8.9 7.05 0.7 3.35-2.9 6.7-3.75 3.5-3.5 5.85 0.35 3.2 5.9 7.65 3.25 2.6 10.2 6.85 9.45 5.8 14.45 11.4 7.55 8.4 7.4 18.2-0.2 10.35-7.85 19t-18.5 10.85q-13.6 2.8-25.8-2.2-10-4.05-16.15-11.75l-0.55-1.7q-0.35-1.45-0.15-1.2 6.85 8.6 17.15 12.8 11.9 4.9 25.2 2.2 10.4-2.1 17.3-10 7-8 7.2-18.4 0.15-9.25-6.85-17.15-4.7-5.25-13.65-10.75-7.7-4.7-11.55-8-5.15-4.4-5.3-7.65-0.1-2.65 3-6.1 3.1-3.35 2.85-5.8-0.4-3.9-7.35-6.45l-8.2-3q-4.6-2.5-4.8-7v-0.3q0-3.4 2.95-6.95 2.95-3.5 8.1-6.3-8.9 0.1-15.75 2.8-6.15 2.35-8.7 5.95-1.6 2.2-1.05 4.85 1 4.8 1 5.9 0 1.7-0.9 2.9-0.9 1.15-2.9 2.1-6 2.9-8.45 5.35-2.8 2.85-2.8 6.65 0 4.25 3.6 11.9 2.45 5.2 1.45 10.45-1.05 5.7-6.15 11.8-1.95 2.35-2.25 1.6-0.3-0.8 1.65-3.35 3.25-4.4 4.5-9.4 1.5-6.35-1.1-10.95-5.8-10.25-3.25-15.9 2.1-4.6 12.15-9.5 2.35-1.15 2.65-2.95 0.2-1.2-0.55-3.7-1.75-5.8 0.4-8.65 3-3.95 10-6.55 6.9-2.55 15.25-2.85 8.35-0.25 1.25 3.9-9.8 5.7-9.6 11.15 0.15 3.9 4.65 6.1"/>
   <path d="m256.2 70.55 6.65 0.55q3.65 0.5 6.1 1.55 9.55 4.15 13.7 11.9 3 5.6 3.8 15.2 5.45-4.45 8.45-10.15 3-5.75 3-11.75l-0.05-1.85q-0.55-6.35-5.25-12.25-4.45-5.65-12-10l0.8-0.05 1.2 0.25q7.6 4 11.85 9.45 4.35 5.6 4.9 12.45 0.55 6.4-2.15 12.8-2.7 6.45-8 11.3-3.3 3-3.9 2.75-0.4-0.2-0.8-3.9-1.05-8.95-3.3-13.55-3.75-7.55-12.85-11.45-2.25-0.95-5.8-1.35l-6.45-0.4q-15.05-0.85-17.35-8.1-1.8-5.75 3.95-12.05 4.5-4.85 3.8-8.35-0.6-2.95-5.5-6.1l-4.75-3.05q-2.5-1.9-2.7-3.65-0.1-1 0.85-2.25 0.85-1.05 2.1-1.8l0.95 0.05q0.65 0.2 0.55 0.3-3 2.3-2.15 4.05 0.75 1.7 5.95 5.05 6.45 4.15 6.75 7.85 0.3 3.45-4.75 8.9-6.05 6.6-2.25 11.85 3.75 5.2 14.65 5.8"/>
   <path d="m235.75 91.35q0.5-3.7 1.15-4 0.8-0.45 2.4 3.5 3.5 9.1 6.8 15.8 5.75 11.75 13.3 15.85 7.6 4.1 20.95 2.65 15.75-1.7 18.3-15.55l0.95-0.55 0.8 0.05q-1.5 8.6-6.5 12.65-4.55 3.65-13.4 4.65-14.35 1.6-21.6-1.95-8-3.95-14.4-17.1-4.05-8.3-7-15.65-0.2 1.6-0.35 9.3-0.05 2.75-0.45 2.9-0.4 0.2-2.1-1.65l-3.7-3.95q-0.95 10.05 4.5 25.85 3.4 9.95 13.1 16.15 8.55 5.5 18.75 6.3 9.25 0.75 16.65-2.8 7.35-3.6 11.15-10.65 0.15-0.25 1.05-0.4l0.7 0.1q-3.45 7.4-10.45 11.65-8.2 5-19.25 4.1-10.4-0.8-19.45-6.8-10.1-6.7-13.7-17.15-3.25-9.55-4.5-17.3-0.95-5.8-0.6-9.3 0.25-2.75 0.85-2.9 0.5-0.15 2.3 1.9l3.65 4.3q-0.3-6.55 0.1-10"/>
   <path d="m237.4 112.4q-0.65-2.95 0.05-3.1t1.45 2.8q3.05 12 8.35 18.7 5.3 6.6 12.3 7.25 4.25 0.35 12.4-1.55l11.1-2.8 8.05-1.1q6.05-0.95 8.35-2.5 3.25-2.2 3.9-8.05 0.65-5.9-1.45-14.9-0.05-0.3 0.6-0.7 0.65-0.45 0.7-0.15 2.45 10.6 1.9 16.55-0.6 6.15-4.55 8.8-2.95 1.95-8.7 2.65l-8.45 0.9-11.2 3.1q-8.15 2.2-12.75 1.75-7.65-0.7-13.45-7.85-5.95-7.35-8.6-19.8"/>
   <path d="m287.45 133.65q0.2-0.25 0.85 0t0.5 0.5q-1.4 2.4-3.85 4.1-2.8 2-6.55 2.65-3.05 0.55-5.85-0.05-2.7-0.6-4.5-2.1-0.25-0.2 0.25-0.8 0.5-0.55 0.7-0.35 3.15 2.6 8.9 1.55 3.15-0.55 5.85-2.1 2.65-1.55 3.7-3.4"/>
   <path d="m266.45 115.95q0.1-0.35 0.7-0.15t0.5 0.5q-0.9 3.85-4.75 5.6-3.9 1.75-7.45-0.1-0.25-0.15 0.1-0.65 0.4-0.55 0.65-0.4 2.5 1.35 6.05-0.4 3.45-1.75 4.2-4.4"/>
   <path d="m287.05 115.65q-0.05-0.3 0.6-0.4 0.6-0.1 0.65 0.2 0.4 2.6 2.7 3.55 2.35 0.9 4.35-0.85l0.65 0.1q0.35 0.3 0.1 0.5-2.8 2.5-5.6 1.65-2.9-0.85-3.45-4.75"/>
   <path d="m257.1 115.35q0 2.9-0.85 2.9-0.4 0-0.7-0.7-0.3-0.8-0.3-2.2 0-2.8 0.95-2.8 0.9 0 0.9 2.8"/>
   <path d="m292.65 115.15q-0.05 2.6-0.8 2.6-0.35 0-0.55-0.6-0.25-0.75-0.2-2.05 0.05-1.15 0.3-1.25l0.55 0.15 0.55-0.1 0.15 1.25"/>
   <path d="m370.7 46.05q0.1 1.3 2.35 2.85 1.55 1.05 1.5 2.15-0.05 1.2-2 1.95-2 0.8-2.35 1.9-0.25 0.95 0.5 2.95 2.25 5.85-1.05 6.65-2.75 0.65-12.95-2l-7.55 0.2q-0.55 1.4 3.2 5.4 6.75 7.15 6.2 10.25-0.6 3.15-8.95 5-5.8 1.25-8.7 3.5-4 3.1-3.7 8.6l-0.7-0.1-0.7-0.75q-0.35-6.2 4.2-9.25 2.65-1.75 9.3-3.25 6.5-1.4 6.95-4.25 0.45-2.95-5.25-8.95-4.95-5.25-4.35-7.2 0.8-2.45 10.35-0.4 8.15 2.05 10.9 1.8 3.65-0.35 1.65-4.45-1.5-3.05-1.15-4.05 0.35-1.15 3.6-2.5 1.1-0.45 1.2-1.15 0.1-0.75-1.1-1.6-3-2.05-3.2-3.25-0.25-1.35 2.35-3.45 5.8-4.75 3.9-11.25-1.9-6.35-9.9-10.3 2.95 5.05-0.25 10-3.25 5.05-10.45 5.55-2.3 0.2-10.8-1.3-6.2-1.05-10.55 1.2-2.85 1.5-3.95 3.75-0.75 1.5-1 4.35-0.55 6.7-4.25 8-3.15 1.15-13-0.7-7.95-1.5-10.95 0.25-3.85 2.2-3.35 10.75 0.05 0.3-0.65 0.2-0.7-0.15-0.7-0.45-0.6-9.35 3.65-12.05 3.55-2.25 11.75-0.25 8.15 2 11.8 0.8 4-1.25 4.45-6.65 0.3-3.7 0.85-5.15 1.15-3.05 4.4-4.7 4.5-2.35 11.8-0.9 8.9 1.75 10.3 1.6 6.85-0.85 9.55-5.35 2.45-4.15 0.1-8.1-1.8-3.1-1.65-3.45 0.25-0.5 4 1.5 9.05 4.9 10.7 11.55 1.7 6.6-4.6 11.75-1.85 1.5-1.75 2.75"/>
   <path d="m331.25 87.8q-2.1-2.3-1.4-2.65 0.7-0.4 2.7 1.8 6.45 7.2 7.65 20.1 1.3 14.2-5.45 24.7-5.35 8.35-15.25 12.75-8.7 3.95-16.8 3.3-0.3 0-0.4-0.85-0.15-0.9 0.2-0.9 7.75 0.6 15.85-3.05 9.25-4.15 14.35-12.1 6.55-10.15 5.45-24.05-1.05-12.65-6.9-19.05"/>
   <path d="m348 101.35q4.4 1.1 6.05 2.4 3.45 2.8 4.1 7.95 0.65 4.85-1.2 10.05-1.9 5.25-5.6 8.65-4.05 3.65-8.95 3.75-3.9 0.1-8.35-2.65l0.7-1.6q4.9 2.7 7.3 2.5 9.3-0.7 13.05-11.85 1.55-4.6 1.1-8.8-0.45-4.35-2.85-6.3-1.55-1.2-5.6-2.25-4.05-1.1-9.15-1.65-0.35-0.05-0.5-0.95-0.15-0.95 0.15-0.9l9.75 1.65"/>
   <path d="m377.75 110.25q3.3 5.15 2.25 13.65-1 8.35-5.6 14.75-4.35 6.05-10.15 8.65-5.95 2.65-12.15 1.1-3.65-0.9-9.6-4.8-5.3-3.5-7.9-6.2-1.25-1.3-2-3.85l1.35-2.1q0.1 1.55 0.55 2.65 0.4 0.95 1.3 2.05 1.6 1.95 6.95 5.45 5.95 3.95 9.45 4.85 5.8 1.4 11.25-0.95 5.35-2.3 9.35-7.85 4.6-6.45 5.4-13.95t-2.5-12.65q-1.55-2.4-9.2-6.2-7.75-3.9-11.9-4.1-3.35-0.2-6.4 1.7l-1.95-0.4q4.4-3.15 8.6-2.9 4.4 0.25 12.7 4.2 8.4 4.05 10.2 6.9"/>
   <path d="m378.45 115.45q-0.3-0.1-0.05-0.95 0.2-0.85 0.5-0.75 11.95 3.65 32.8 17.2 20.4 13.3 27.3 21.55 4.85 5.85 2.55 18.4-2.35 13-10.65 22.15-8.95 9.9-23.85 12.15l-10.3 0.45q-4.2-0.35-5.55-1.25-4.45-2.85-11.8-15.35-3.25-5.5-12.6-23.15l-5.55-10.5q-2.75-5.1-4.2-7.1-0.2-0.25 0.7-0.55l1.05-0.05q2.3 3.15 9.85 17.5 8.15 15.5 12.4 22.5 7.2 11.9 11.45 14.7 1.45 0.85 5.4 1.15l9.65-0.5q13.85-2.25 22.2-11.5 7.75-8.55 9.7-20.7 1.9-11.65-2.6-17.1-6.9-8.25-26.5-21.3-20.2-13.45-31.9-17"/>
   <path d="m395.4 175.55q-1.9-3.75-1.3-4.2 0.65-0.45 2.7 3.2 4.6 8.05 10.25 15.4 6.6 8.55 10.8 10.85 0.25 0.15-0.35 0.85-0.65 0.65-0.9 0.5-4.7-2.65-11.5-11.55-6.05-7.9-9.7-15.05"/>
   <path d="m412.7 158.6q-2.75-1.8-2.6-2.5 0.2-0.7 2.95 0.9 5.65 3.2 14.4 10.2 7.4 5.9 11.65 10 0.25 0.2-0.3 1-0.5 0.8-0.75 0.6-4.05-3.9-11.35-9.8-8.4-6.8-14-10.4"/>
   <path d="m438.95 174.8 0.75-0.8q0.75-0.7 0.85-0.45l3.1 7.7q1.45 4.2 1.1 4.85-0.4 0.75-3.9 1.35l-6.55 0.55q-0.3 0 0-1 0.25-1.05 0.55-1.05l5.3-0.2 3-0.55q0.15-0.3-1.3-3.65l-2.9-6.75"/>
   <path d="m424.45 197.35q-0.05-0.3 0.85-0.65l0.95-0.1q1.45 8.3-0.3 10.05l-4.6-0.15q-4.05-0.85-9.15-2.75-0.3-0.1 0.85-0.85 1.1-0.7 1.4-0.6l7 2.25q3.35 1.05 3.65 0.75 0.6-0.55-0.65-7.95"/>
   <path d="m298.3 131.8q-0.05-0.25 0.95-0.6l1.1-0.1q9.3 45.25 7.25 76.05-2.6 38.45-22.7 65.65-23.45 31.7-62.05 36.05-16.7 1.85-33.85-1.95-16.3-3.6-30.2-11.7-26.75-15.6-37.6-42.85-11.05-27.6-1.95-57.95 5.25-17.5 14.3-32.4 8.8-14.45 22.4-28.35 0.2-0.25 0.75 0.65 0.5 0.85 0.3 1.05-25.55 26.2-35.55 59.5-8.4 28.15 2.35 55.95 10.8 27.9 36 42.6 14.6 8.5 31.15 11.9 16.75 3.45 33.1 1.2 36.3-5.05 58.25-34.75 19.2-26 22.55-61.65 3-32.1-6.55-78.3"/>
   <path d="m305.6 217.25q-0.25-0.3-0.2-1.5t0.3-0.95q13.3 14.1 15.05 30.85 1.7 16.4-7.9 34.1-9.4 17.35-27.15 21.05-15.15 3.15-27.95-4.2-0.25-0.15 0.6-0.75 0.9-0.6 1.15-0.45 12.2 6.05 25.6 3.35 16.45-3.35 25.4-19.85 9.15-16.85 7.9-32.45-1.25-15.65-12.8-29.2"/>
   <path d="m303.9 289.65q0.15-0.8 1.5-1.9 1.35-1.2 1.2-0.75l-1.5 9q-1.5 10.65-1.3 19.15 0.05 2.45 2.8 7.55 2.25 4.1 0.95 5.7-1.7 2.2-10.05 2.8-8.5 0.55-14.3-1.25-5.6-1.75-6.15-5.25-2.85-19.95-7.8-24.45-0.45-0.45 0.9-0.5 1.3-0.1 1.9 0.7 2.65 3.45 4.45 11.25 0.95 4.1 2.2 12.65 0.35 2.75 4.95 4.15 5.45 1.7 13.1 1.1 7.05-0.55 8.7-2.2 1.05-1.1-0.95-5-2.45-4.85-2.45-7.15-0.1-7.45 0.55-15.25 0.55-6.4 1.3-10.35"/>
   <path d="m277.15 322.35q0.15-0.35 0.7 1.4 0.55 1.8 0.35 2.3-2.7 7.6-5.45 11.95-4.5 7.3 2 10.85 4.45 2.35 13.5 3.95 9.85 1.7 19.35 1.35 0.3-0.05 1.4 0.7l0.75 0.75q-10.15 0.55-20.9-1.05-10.05-1.5-14.95-3.9-3.95-1.95-5.05-4.85-1.4-3.8 2.35-8.7 2.35-3.05 4.4-9.15l1.55-5.6"/>
   <path d="m329.35 333q0.25 0.25-0.85 0.3l-1.55-0.15q-3.15-1.9-9.45-4.55-5.8-2.4-10.75-3.95-0.5-0.15-0.75-1.05-0.2-0.85 0.1-0.75 6.5 1.75 12.9 4.45 7.25 3.05 10.35 5.7"/>
   <path d="m330.3 347.8q14.6 7.7 13.6 9.35-0.8 1.35-16.55 0.4-15.2-0.9-19.45-2.1-3.5-1-0.85-7.45 2.5-6.2 5.35-7.05 3.25-0.95 17.9 6.85m-6 7.8 16.2 0.6q-2.15-2.7-13.9-8.55-11.8-5.9-13.95-5.3-1.25 0.35-2.95 3.6-1.8 3.35-1.8 5.9 0 1.85 1.2 2.25l15.2 1.5"/>
   <path d="m325 332.4q3.95-1.75 16.4 5.85 11.85 7.2 12.05 9.1 0.1 1.4-15 0.15-15.25-1.25-17.6-3.25-1.4-1.2 0.35-6.1 1.75-4.85 3.8-5.75m13.1 5.65q-10-5.3-12.6-4.15-1.25 0.6-2.4 4.35-1.2 3.8-0.45 5.2 2.35 1.05 13.65 2.15l14.25 0.9q-2.85-3.4-12.45-8.45"/>
   <path d="m138.7 102.35q7.8 5 15.2 10.65 0.25 0.2-0.2 1.05t-0.7 0.65q-10.5-8.1-20.1-13.75-9.85-5.8-11.15-4.5-2.1 2.05 5.5 23.15 7.3 20.4 14.1 32.65 0.15 0.3-0.65 1.15l-0.85 0.7q-6.35-11.5-13.85-32.35-8.5-23.6-5.45-26.65 2.65-2.65 18.15 7.25"/>
   <path d="m89.45 135.4q3.4-3.75 22.05 10.75 13.3 10.35 21.7 18.85 0.25 0.25-0.45 1.2-0.65 0.95-0.9 0.7-7.95-8.3-22.3-19.65-16.65-13.15-18.8-10.75-2.1 2.4 7.45 26.95 7.85 20.25 19.25 44.75 0.45 0.95-0.35 3.75-10.45-22.2-18.1-41.1-12.85-31.75-9.55-35.45"/>
   <path d="m50.35 143.95q-2.35-1.7-3.35-5.25-0.45 5.25 2 8.15 3.15 3.75 3.85 7.55 0.45 2.5-0.2 4.2-1.6 4.65-8.4 5.6-6.6 0.85-9.5-2.55-1.85-2.2-2.1-7.85-0.2-5.85-1.5-7.55-2.3-3.1-9.85-6.35-8.7-3.8-17-4 9.4 4.5 15.5 14.5 5.45 8.95 4 13.55-0.55 1.8-3.1 4.35-4.2 4.2-3.25 7.85 0.85 3.2 5.8 6.25 3.9 2.35 5.15 3.75 3.8 4.1 6 10.15 1.75 4.95 1.75 8.65 0 3.25-1.3 3.7-1.25 0.45-5.85-1.1-4.2-1.3-6.5-1.2-3.75 0.1-7.85 3.05 4.3 0.15 7.9 1.4 4.3 1.45 5.95 4.05 1.25 1.95 1.6 4.75l0.1 5.6q-0.05 4.2 1.6 5.25t7.35 0.45l8.15-0.35q4.3 0.45 5.45 3.15t0.4 6.8l-1.95 7.65q-2.15 7.95-2.05 11.75 0.25 6.4 5.45 10.6 6 4.9 13.35 4.85 5.2-0.05 12.25-2.8 6.85-2.7 10.7-2.55 4.05 0.1 5.6 3.4l0.1 1.2-0.25 0.6q-1.4-3.05-5.85-3-3.6 0-9.85 2.15-8.6 3-13.85 3-7.65 0.05-14.05-5.15-5.7-4.6-5.8-11.9-0.1-4.55 2.5-12.55 1.45-4.5 1.75-7.4 0.35-3.45-0.75-6.05-0.8-2-4.15-2.1l-6.9 0.6-9.1-0.3q-1.85-1.25-1.75-7.35l-0.05-5.05q-0.25-2.8-1.3-4.45-1.35-2.15-5.25-3.5-3.55-1.2-7.65-1.25l-3.2-0.45q0-0.3 2.35-2.05 2.5-1.85 3.8-2.55 2.75-1.55 5.2-1.65 1.7-0.1 3.8 0.55l3.2 1.15q2.85 0.95 3.7 0.7 1-0.3 0.95-2.45-0.15-3.75-1.55-7.9-1.85-5.45-5.25-9.1-1-1.1-4.8-3.45-6.8-4.15-7.55-7.5-0.75-3.6 4.65-9 1.95-1.85 2.35-3.95 0.8-3.75-3.45-11.2-5.35-9.35-14.95-14.4-3.7-1.95-3.55-2.5 0.1-0.5 3.6-0.55 8.75 0 18 3.45 8.2 3.05 11.1 6.4 1.6 1.85 1.65 8.1 0.05 6.35 1.25 7.95 2.35 3.15 8.25 2.1 5.85-1.05 7.15-4.75 0.75-2.15-0.05-4.7-0.8-2.65-3.1-5.35-3.05-3.55-2.3-9.95 0.5-4.05 1.25-3.95 0.7 0.05 1.4 3.55 0.75 3.5 2.8 5.05 1.05 0.8 3.8 1.5 2.75 0.75 3.45 1.95 0.75 1.3 0 4.65-0.45 1.95 0.85 2.95 0.6 0.5 2.9 1.3l4.05 1.45q2 0.95 2.5 2.15 0.7 1.7-0.15 4.45l-2.15 5.25q-1.9 4.3-2.4 6.45-0.7 3.45 0.75 5.7t5.55 2.9l8.7 0.25q7.6-0.2 10.7 0.15 5.85 0.75 8.9 3.75 3.3 3.3 2.8 8.5-0.25 3.1-2.5 9.05-1.4 4-1.6 5.9-0.2 2.6 1.4 4.05 2.95 2.6 10.4-0.6 5.6-2.45 8.65-5.15 0.3-0.3 0.1 0.85t-0.75 1.55q-5.1 3.55-9.85 5.3-7.05 2.6-10.2-0.2-2.05-1.85-1.6-5.35 0.3-2.05 2.05-6.85 1.95-5.35 2.15-8.15 0.25-4.3-2.65-7.2-2.75-2.75-7.9-3.65l-10.05-0.45q-6.85 0.2-9.55-0.2-4.65-0.65-6.4-3.35-1.5-2.35-0.95-5.75 0.5-2.9 2.85-8.15 1.4-3.05 1.8-4.8 0.6-2.3 0-3.7-0.55-1.25-5.1-2.85-3.15-1.05-4.1-1.8t-0.95-2.2l0.25-1.85q0.4-1.9 0-2.9-0.5-1.15-2.3-1.65-2.7-0.75-4.1-1.8"/>
   <path d="m135.35 184.2q1.15-1.95 5.05-3.45 3.5-1.3 10.9-2.95 0.35-0.05 0.5 0.6 0.15 0.7-0.15 0.75-12.55 2.75-14.7 6.3-0.8 1.25 0.15 4.6 1 3.7 0.85 4.5-0.3 1.55-2.65 2.7-2.3 1.1-4.9 1.05-0.95-0.05-2.15 0.75l-1.5 1.4q-0.3 0.4 0.1 3.15l0.3 3.35q-0.4 1.75-4.25 4.4-3.2 2.2-5.5 3.05-0.3 0.1-0.55-0.6-0.3-0.75 0-0.85 2.1-0.75 5.1-3 3.15-2.35 3.3-3.45l-0.15-3.15q-0.2-2.55 0.15-3.35 0.5-1.1 1.8-2.25 1.4-1.25 2.55-1.3h3.5q2.5-0.35 3.45-2.35l-1-4.25q-1.05-4.15-0.2-5.65"/>
   <path d="m238.85 158.4 0.7 0.75q0.35 0.7 0.05 0.6-3.4-1-7.7-0.55-4.35 0.4-6.05 2-1.95 1.85-0.65 6.5l1.85 7.05q0.05 1.95-3.05 4.9-3.2 3-5.55 2.95-1.95-0.05-3.85-1.65-1.85-1.55-3.15-4.15-0.5-1.05-4.05-2.25-0.25-0.05-0.25-0.9 0.05-0.8 0.3-0.75 1.4 0.35 2.7 1.1 1.75 1 2.3 2.15 1.15 2.25 3 3.45 1.5 0.95 3.05 1 1.95 0.05 4.5-2.2 2.35-2.05 2.65-3.5l-2.05-6.75q-1.7-6 0.8-8.4 1.8-1.7 6.35-2 4-0.25 8.1 0.65"/>
   <path d="m228.05 148.25q-0.3-0.55 0.3-1.2 0.55-0.65 0.75-0.3 3.65 7.05 15.4 15.55 15.6 11.3 30.75 10.9 11.7-0.35 19.55-8.55 7.5-7.9 7.5-18.45 0-0.65 0.45 1.35 0.45 1.85 0.3 3.15-1.05 10.15-8.75 17.1-7.85 7.1-19 7.45-15.1 0.4-30.6-10.5-12-8.4-16.65-16.5"/>
   <path d="m252.7 195.3q-4-8.45-1.8-10.6 1.85-1.9 13.1-2.55l8.3-0.65q4.25-0.6 5.3-1.75 1.2-1.3 0.55-5.5-0.05-0.25 0.55-0.3t0.75 0.2q0.45 1.05 0.65 3 0.2 2.6-0.75 3.6-1.3 1.45-5.95 2.15l-9.3 0.8q-10.1 0.55-11.7 2.95-1.25 1.8 1.7 8 3.5 7.4 2.5 10.05-0.5 1.4-2.35 2.6-1.6 1-4.65 2.1-6.7 2.4-9.8 4.1-6.2 3.4-10.4 8.9-3.4 4.45-3.95 3.8-0.4-0.55 0.95-5.25 3-10.45 9.25-17.5-4.7 0.6-9.7 2.35-7.3 2.6-11.55 6.7-0.25 0.25-0.45-0.5-0.25-0.7-0.05-0.95 4.25-4.6 11.15-7.05 4.55-1.6 9.8-2.1l3.45 0.15q0.2 0.45-1.65 2.55-6.2 7.1-9.05 17.75 4.45-6.2 11-10.1 3.85-2.3 10.45-4.65l4.2-1.65q1.75-0.9 2.1-1.8 0.65-1.85-2.65-8.85"/>
   <path d="m305.6 170.3q0.25-0.1 0.35 0.55 0.05 0.7-0.3 0.85-3.75 1.8-6.55 3.45-3 1.85-3.2 2.55l-0.7 6.8q-0.8 6.7-1.95 8.2-2.45 3.15-8.2 5.35-7.65 2.9-9.8 4.25-0.95 0.6-1.65 3.15-0.8 2.65-0.05 3.45 3.9 3.65 4.8 4.65 3.45 3.85 3.15 6.05-0.4 3.5-6.85 12.1-6.35 8.45-9.3 9.7-2.8 1.2-9.6 0.1l-10-2.2q-2.55-0.55-7.55 1.1-5.05 1.65-8.55 4.3-0.2 0.2-0.35-0.55-0.15-0.7 0.05-0.9 3.5-2.7 8-4.45 4.9-1.95 7.8-1.45l9.9 2q7.2 1.2 9.7 0.15t8.65-9q6.25-8.1 6.6-11.1 0.2-1.7-3.3-5l-4.95-4.25q-1.3-1.5 0-4.9 1.15-3.05 2.65-4.2 2.45-1.9 9.4-4.15 5.85-1.9 8.35-5.15 0.9-1.15 1.3-7.35 0.4-6.6 0.6-7.1 0.6-1.45 4.7-3.7l6.85-3.3"/>
   <path d="m282.5 261.15-2.35 3.2q-1.6 2.35-3.1 2.45-0.9 0.05-6.9-2.6-5.75-2.55-6.7-2.2-1.95 0.75-4.65 6-2.65 5.1-2.6 7.7 0 1.15 2.6 7.75 2.4 6.2 2.05 7.65-0.55 2.15-4 4.65-3.55 2.5-5.85 2.3l-2.3-0.65-2.25-0.35q-0.85 0.15-2.75 3.1-1.95 2.95-1.8 4.15 0.05 0.3-0.75 0.4-0.75 0.1-0.75-0.25-0.2-1.75 1.5-4.9 1.8-3.3 3.95-4.3 0.45-0.2 2.5 0.45l2.8 0.8q1.7 0.2 4.55-2 2.75-2.1 3.15-3.75 0.25-1.05-1.85-7.1-2.25-6.4-2.3-7.9-0.05-3 2.7-8.6 2.9-5.95 5.35-6.9 1.75-0.7 7.6 2.2 6.15 3 6.7 2.95 0.9-0.05 2.35-2.45 1.75-2.95 2.2-3.35 1-0.95 5.35-2.6 3.95-1.5 6.5-2.1 0.35-0.05 0.15 0.6l-0.5 0.75q-9 3.65-10.6 4.9"/>
  </g>
  <path d="m135.7 207.75q8.45-2.8 15.2-0.55 12.5 4.05 21.45 24.55 8.85 20.3 5.85 37.3-3.7 20.85-19.45 30.85-14.95 9.5-33.5 5.15-16.4-3.85-24.6-19.15-8.65-16.2-2.9-36.6 5.25-18.7 22.15-32.5 7.9-6.45 15.8-9.05" fill="#f09cb4"/>
  <path d="m148.95 304.45q-6.15 6.6-9.45 15.4-0.75 2.05-2.85 10.3-0.8 3.25-12.35 6.9-11.65 3.65-15.35 1.6-1.55-0.85-1.8-3.55-0.2-2.55 0.9-4.05 2.8-3.7 3.65-14.5 0.9-11.7-1.85-19.75l4.65 3.55q5.85 3.8 11.9 5l15.7 0.45q4.15-0.5 6.85-1.35" fill="#595757"/>
  <path d="m136.65 330.15 1.45 3.5q1.85 4.15 4.05 7.25 2.55 3.65 1.15 7.2-1.4 3.5-5.85 5.25-12.95 5.15-26.1 9-5.4 1.55-15-1.45-6.1-1.9-9.75-3.9-2.85-1.65-3.5-3.85-0.9-3 2.6-6.65 3.3-3.45 11.5-8.55 10-6.25 10.85-6.9l-1.35 2.9q-0.75 3.25 2.25 4.7 3.9 1.9 14.85-1.1 11.35-3.1 12.85-7.4" fill="#e73820"/>
  <path d="m96.65 251.65q4.2 10.05 14.4 16.95 9.6 6.45 22.15 8.65 12.5 2.15 24.4-0.6 12.6-2.9 21.25-10.7l-1.3 7.15q-2.2 8.5-6.6 15.15-13.95 21.35-44.5 16.7-16.2-2.5-25.45-19.5-9.1-16.75-4.35-33.8" fill="#d0879d"/>
  <path d="m127.25 305.25 16.1 0.55q4.15-0.65 6.7-1.65-3 2.45-4.7 5.1l-2.45 3.85q-3.65 4.65-9.1 6.25-4.9 1.45-10.1 0.25-4.95-1.15-8.25-4.2-3.45-3.15-3.6-7l-0.85-7.05-0.7-4.35 3.8 3.05q5.35 3.4 13.15 5.2" fill="#3e3a39"/>
  <path d="m90.1 351.15q2.1 3.05 6.9 4.5 4.75 1.4 10.7 0.85 13.4-1.2 24.65-6.6 11-5.25 9.75-9.35 2.2 3.9 2.2 6.2-0.05 2.1-1.9 4.1-2.35 2.5-16.6 7.45-14.2 4.9-19 4.9-4 0-11.05-2.5l-6.25-2.55 0.65-2q0.4-2.1-0.05-5" fill="#c82e19"/>
  <g fill="#0d131a">
   <path d="m136.1 206.7q8.15-2.3 14.8-0.6 13.35 3.4 22.7 24.8 9.15 21 6 38.8-3.7 20.7-20.15 30.9-15.6 9.6-34.35 5.2-15.5-3.65-24.45-18.05-10.35-16.75-4.15-38.65 6-21.35 23.7-34.35 7.75-5.75 15.9-8.05m14.55 1.2q-5.5-1.8-13.2 0.45-7.65 2.25-15.3 7.85-17.7 13-23.45 33.3-5.95 21.15 4.2 37.45 4.2 6.75 10.5 11.35 5.85 4.3 12.05 5.75 17.4 4.15 32.45-5.25 15.75-9.9 19.2-29.25 3-17.05-5.75-37.4t-20.7-24.25"/>
   <path d="m124.3 336.5q10.9-3.55 11.6-6.5 1.5-6.55 3.1-10.6 3.5-9.15 9.4-15.45l1.15-0.05q0.95 0.15 0.7 0.35-8.4 9.05-12.8 26.65-0.9 3.75-12.7 7.25-11.9 3.55-16.55 1.15-2.35-1.2-2.45-3.85-0.1-2.45 1.7-4.85 2.55-3.45 3.45-13.95 0.95-11.65-1.8-19.6l0.95-0.2q1.05 0.1 1.1 0.4 2.75 8.05 1.6 19.6-1.1 10.65-4.1 14.65-1.4 1.9-1.3 3.6 0.1 1.85 1.95 2.9 3.85 2.15 15-1.5"/>
   <path d="m136.1 331.05q-0.1-0.3 0.65-1.3 0.8-1 0.9-0.7l1.2 3.95q1.6 4.45 3.9 7.35 3.55 4.4 2.3 8.2-1.25 3.7-6.8 5.9l-12.8 4.55-13.9 4.3q-5.85 1.7-16.1-1.75l-9.2-3.9q-3.85-2.25-4.15-5.4-0.3-3.1 2.95-6.45 6.35-6.6 23.25-15.7 0.25-0.15 0.05 0.9l-0.4 1.2-9.85 6.1q-8.75 5.45-11.85 8.7-2.6 2.7-2.3 5.25 0.25 2.45 3.05 4.05 3.25 1.95 9.75 3.95 9.25 2.85 14.4 1.35 12.05-3.5 26-8.95 4.7-1.85 5.75-5.1 0.95-2.95-1.4-6.2-2.2-3.15-4-6.95l-1.4-3.35"/>
  </g>
  <path d="m105.1 352.55q2.45 0.2 4.5 3.95 2.05 3.8 0.85 6.35-1.05 2.35-12.3 9.8-11.1 7.35-11.95 6.6-0.75-0.65 1-5 1.7-4.35 4.7-9.25 7.9-12.9 13.2-12.45" fill="#eeeeef"/>
  <path d="m73.8 354.95q9.6-9.05 13.4-9.25 1.4-0.05 2.65 4.95 1.25 5.1 0.15 6.7-1.2 1.65-12.6 5.45-11.5 3.8-12.15 2.6-0.9-1.6 8.55-10.45" fill="#eeeeef"/>
  <path d="m105.65 351.7q1.95 0.5 3.9 4.35 2 3.95 1.35 6.45-0.2 0.75-9.7 7.85 3.75-6.25 3.05-11.2-0.7-4.9-5.05-3.65 1.05-1.7 3.3-2.95 2.1-1.15 3.15-0.85" fill="#c8c9ca"/>
  <path d="m89.3 349.75q1.4 4.5 1.1 7.35-0.2 1.7-5.2 3.25l-4.95 1.2q4.95-3.5 5.25-9.3 0.1-2.3-0.7-3.65-0.85-1.4-2.15-1 3.25-2.55 4.35-2.35 0.95 0.15 2.3 4.5" fill="#c8c9ca"/>
  <path d="m110.2 356.05q2.25 4.7 1.3 6.8-1.2 2.55-13.25 10.7-12.15 8.15-13.3 7.05-0.75-0.65 1.15-5.55 1.9-5.05 5.1-10.45 8.5-14.55 14.6-13.6 2.15 0.35 4.4 5.05m-1.2 0.75q-1.85-3.65-3.65-3.8-3.6-0.3-9.5 7.6-3.6 4.9-6.35 10.65-2.45 5.1-2.45 6.85 2.7-0.85 12.3-7.4 9.85-6.7 10.7-8.6 0.75-1.65-1.05-5.3" fill="#0d131a"/>
  <path d="m77.05 363.7q-12.5 3.65-12.95 2.25-0.7-2.25 9.4-11.95 10.15-9.7 13.6-9.9 1.5-0.1 3.3 5.9 1.9 6.1 0.45 8.15-1.3 1.9-13.8 5.55m-1.7-9.1q-8.3 7.6-9.3 10.3 2.5 0.1 12.4-3.3 10-3.4 10.9-4.7 0.45-0.65 0.3-2.65-0.1-2.05-0.75-4.25l-1.05-2.65-0.6-0.9q-3.2 0.15-11.9 8.15" fill="#0d131a"/>
  <path d="m194.15 47.85q-3.85 0-8.05 4.15-4.6 4.45-5.4 10.1-0.7 4.95 1.8 9.5t7.1 6.5l7.15 2.3q6.1 1.95 10.7 4.2 14.7 7.1 22.05 20.15 7.1 12.6 5.3 26.05-1.75 13.1-11.25 21.95-12.2 11.4-29.65 10.5-16.95-0.85-27.3-12.25-6.5-7.2-9.45-15.1-2.15-5.7-2.95-13.85l-1.4-13.1q-1.25-7.3-4.7-12.85-4.8-7.7-19.15-13.45-7.4-3-9.55-4.2-4.45-2.45-5.7-5.65-2.2-5.6 1.3-10.5l2.55-3.35q1.15-1.7 0.85-3-0.7-3-4.1-6.5-3.3-3.35-6.55-4.75l3.35-0.45q3.4-0.9 3.75-3.1 0.25-1.5-2.2-3.5-2.65-2.2-2.55-5.8 0.15-4.6 3.15-9.45 2.75-4.45 5.95-6.35-1.25 3.7-1.75 7.85-0.95 8.25 2.75 10.35 3.35 1.9 7.35 1.05l5.7-0.3q2.35 1 3.7 4.85l0.85 3.65q12.5-4.05 17.05-0.5 3.25 2.55 5.3 13.55 0.6-3.6 3.45-7.25 3.05-3.9 7.4-5.95 11.15-5.25 23.15 4.5" fill="#e73820"/>
  <path d="m234.2 134.85q-4.85 22.95-32.65 28.3-19.55 3.7-33.9-10.6-5.8-5.85-9.4-13.5-3.35-7.2-3.7-13.75 7.55 6.3 19.4 8.9 11.4 2.55 23.45 1 12.45-1.6 21.8-7.05 10.15-5.95 14.3-15.15l1.25 6.65q0.95 8.05-0.55 15.2" fill="#c82e19"/>
  <path d="m192.25 47.4q-5.65-4.2-11.25-4.9-4.3-0.55-8.25 0.95-4.3 1.6-7.85 5.6-2.95 3.3-4.25 7l0.05 1.35q0.1 3.05-0.7 3.05-0.75 0-0.85-2.85-0.3-10.45-4.75-13.7-4.3-3.1-14-0.4l-2.8 0.55q-0.4-0.15-0.85-2.15-1.2-4.85-3.8-5.95-1.65-0.7-5.9 0.1-4 0.7-7.2-1.15-3.45-1.95-3.5-7.5-0.05-3.55 1.5-9.4-4.75 4.2-6.35 10-1.8 6.35 2.1 9.4 3.05 2.4 1.7 4.9-1.3 2.25-5.05 2.9 7.5 5.55 8.75 9.3 1.05 3.15-2.1 6.6-2.3 2.5-2.8 5.9-0.45 2.9 0.55 5.5 1.1 2.85 4.8 5.05 2.35 1.45 8.25 3.8 8.25 3.3 11.75 5.3 6.55 3.8 9.8 9.05 3 4.85 4.15 11 0.45 2.55 1.15 11.15 0.85 10.25 2.55 15.6 2.8 9 10.1 17 10.4 11.5 26.85 12.15 16.85 0.7 29-10.65 9.5-8.9 11.05-21.95 1.5-12.85-5.3-24.9-6.9-12.3-20.6-18.95-4.35-2.1-10.7-4.2l-8.45-2.9q-4.1-1.7-6.75-5.95-2.6-4.2-2.75-9.15-0.25-12 12.7-16.55m-27.55-0.85q3.6-3.85 7.5-5.3 4.7-1.75 10.4-0.55 5.55 1.2 10.1 4.75 2.05 1.6 2.05 2.25t-1.9 1.45q-4.8 2.05-7.25 4.4-3.4 3.35-4.15 8.65-0.7 4.8 1.7 9.2t6.75 6.25q1.9 0.8 9.15 3.05 6.6 2.05 10.85 4.05 13.6 6.4 21 19.6 7.15 12.7 5.35 26.35-1.75 13.6-11.65 22.85-12.05 11.3-29.95 11-17.95-0.3-28.6-12.05-7.5-8.25-10.5-18-1.9-6-2.75-16.55-0.6-7.2-1.35-10.85-1.3-5.85-4.25-10.6-3.1-5.05-9-8.6-3.65-2.25-11.05-5.15-6.6-2.65-9-4.05-4.2-2.45-5.45-5.65-1.6-4.2-0.25-7.8 0.75-1.95 3.25-5.1 2.7-3.3 1.2-6.45-1.65-3.4-8.65-7.55-2.25-1.35-1.75-1.7l3.05-0.65q4.2-0.65 4.55-2.8 0.15-0.75-0.2-1.25l-1.25-1.15q-4.15-3.3-3.55-8.7 0.65-5.7 6.45-12.2 3.3-3.65 4.45-3.6 1.2 0.05-0.2 4.35-1.6 4.85-1.7 8.75-0.1 5 2.5 6.35 2.8 1.5 7.05 0.6l5.9-0.35q3.6 1.5 4.85 8.75 6.25-1.9 10.25-2.05 4.35-0.2 6.9 1.7 3.8 2.75 4.85 10.75 1.45-3.3 4.3-6.4" fill="#0d131a"/>
  <path d="m204.6 135.1-0.95 5.85-1.3 5.7q-8.35-6.2-20.75-6.15-8.85 0-17.4 2.95 4-6.85 6.8-11l5.95-8.2q2.8-3.75 7.85-4.4 4.6-0.65 9.5 1.35 4.85 2 7.7 5.65 3.15 3.9 2.6 8.25" fill="#f9be00"/>
  <path d="m195.95 143.4q6.65 2.75 9.55 7.15 2.15 3.2 2.05 14.95-0.05 8.75-0.9 14.8-0.6 4.25-7.2 6.9-7.65 3.05-21.1 2.9-13.1-0.15-20.8-4.8-6.25-3.75-6.25-8 0-4.65 1.2-14.05 1.35-11 2.85-12.9 4.15-5.4 11.6-8 6.8-2.4 14.85-2 7.75 0.3 14.15 3.05" fill="#595757"/>
  <path d="m204.65 138.8q-0.5 4.65-1.9 8.55l-6.6-4.25 4.9-17.15q4.6 3.6 3.6 12.85" fill="#d7a400"/>
  <path d="m200.6 147.9q-0.5-1.85-2.15-2.7l2.45 1.15q2.95 1.75 4.75 4.1 2.5 3.25 2.25 15.6-0.2 10.1-1.35 15.25-0.45 2-3.35 3.8-3.6-9.35-6.3-13.45l-1.95-2.2q2.6 0.5 3.85-2.45 1.05-2.45 1.75-9.15 0.75-7.25 0.05-9.95" fill="#3e3a39"/>
  <path d="m202.6 126.3q3.6 4.35 3 9.15l-1.9 12.65q-0.05 0.3-1.1-0.5t-1-1.15q1.7-7.8 2.1-11.45 0.55-4.25-2.55-7.95-2.75-3.35-7.25-5.15-4.8-1.95-9.4-1.1-4.45 0.85-6.8 3.9-3.2 4.2-5.2 7.4-1.5 2.35-6.3 10.6-0.15 0.25-1.6 0.7l-1.3 0.15 6.8-11.25 5.7-8.1q3.15-4.2 8.95-4.95 5-0.7 9.7 1.2 5 2 8.15 5.85" fill="#0d131a"/>
  <path d="m165.3 142.2q7.6-2.95 16.05-2.65 8.35 0.25 15.15 3.1 6.9 2.85 9.9 7.35 2.35 3.5 2.15 16.1-0.1 8.4-0.85 14.3-0.65 4.45-7.3 7.4-8 3.45-22.05 3.3-14-0.15-22-5.35-6.2-4.05-6.2-8.45 0-5 1.3-14.7 1.5-11.2 3.05-13.15 3.6-4.45 10.8-7.25m16-1q-8.2-0.25-14.9 2.25-6.75 2.55-10.45 7.35-1.35 1.75-2.55 12.45-1.1 9.25-1.1 14.05 0 3.8 5.65 7.25 7.3 4.5 20.4 4.65 13.35 0.15 20.7-2.75 6.1-2.45 6.6-6.25 0.85-6.2 1-14.65 0.25-11.55-1.75-14.55-2.8-4.2-9.3-6.85-6.45-2.7-14.3-2.95" fill="#0d131a"/>
  <path d="m164.4 167.95q5.45-3.25 13.05-3.45 7.35-0.2 13.35 2.55 6.35 2.95 8.3 8.1 12.5 33.2 20.55 49.25l12.65 26.95q8.65 18.95 11.15 25.6 2.4 6.25-5.5 15.5-8.75 10.25-23.55 14.6-21.15 6.25-33.55 2.9-8.3-2.2-11.55-8.1-12.75-23.4-15.25-64.05-2.15-34.15 3.05-60 1.25-6.25 7.3-9.85" fill="#f9be00"/>
  <g fill="#d7a400">
   <path d="m189.55 166.85q6.05 2.45 8.35 5.3 0.75 0.9 5.1 13 5.2 14.45 8.6 21.85l16.75 35.7q12.4 26.5 13.85 31.5-3.4-3.55-11.4-5.6-12.65-3.15-29.55 1.05 2.9-1 4.85-2 5.6-2.75 7.65-6.95 4-8.25-3.9-31.7-15.9-47.2-18.4-53-2.65-6.35-3.6-7.85-1.45-2.3-3.8-3.15l5.5 1.85"/>
   <path d="m169.95 302.8q10.5 1.7 36.25-4.65 27.6-6.75 37.45-15.2-0.9 4.45-5.95 10-10.2 11.05-31.15 16.35-13.7 3.45-25.35 0.9-10.7-2.4-11.25-7.4"/>
   <path d="m201.45 277.3q13.9-4.1 24.05-2.95 8.95 1 9.9 5 1.4 6.05-6.5 12.85-7.45 6.45-18.3 9.7-11.15 3.35-21.7 2.75-10.3-0.6-11.65-4.3-1.9-5.45 4.55-12.1 6.95-7.15 19.65-10.95"/>
  </g>
  <path d="m177.5 294.75q0.7-2.75 4.85-6.55 6.4-5.95 17.9-10.2 11.2-4.1 22.5-3.4 5.6 0.35 9 1.5 1 1.05 0.5 3.65-0.6 2.95-2.8 6.15-5.95 8.45-19.4 12.6-14.4 4.45-24.15 2.1-7.7-1.9-8.4-5.85" fill="#3e3a39"/>
  <g fill="#0d131a">
   <path d="m175.65 163.85q7.8-0.65 14.8 2.2 7.7 3.1 9.9 8.95 13.85 37 19.95 49.05 7.15 14 13.15 26.75 9.55 20.25 10.75 26 0.1 0.3-1.7-1.3l-1.9-1.95q-1.85-5.95-8.95-21.25l-13.05-27.6q-5.75-12.15-10.15-23.15l-10.05-26.15q-2-5.35-8.95-8.05-6.25-2.45-13.65-1.85-6.5 0.5-11.2 3.3-5.55 3.35-6.75 9.15-5.35 26.65-2.75 61.65 2.9 38.85 14.5 59.65 0.15 0.3-0.5 1.85-0.65 1.5-0.85 1.25-12.85-23-15.45-63.35-2.2-34.3 3.2-61.1 1.3-6.4 7.5-10.25 5.25-3.25 12.15-3.8"/>
   <path d="m172.45 244.1q-0.35-3.15 0.4-3.1 0.75 0 1.15 3.2 0.85 6.85 3.75 18.25 2.8 11.05 4.9 16.25 0.1 0.3-0.8 0.65l-1 0.05q-2.1-5.15-4.9-17-2.8-11.8-3.5-18.3"/>
   <path d="m198.75 236.3q-0.95-2.95-0.35-3.15 0.65-0.2 1.75 2.7 4.1 10.4 13.75 31.3 0.1 0.3-0.9 0.55t-1.1 0q-9.75-20.95-13.15-31.4"/>
   <path d="m168.25 296.45q1.05-4.75 4.45-9.6 8.75-12.35 26.55-17.4 19.05-5.4 32.5-1.7 11.25 3.1 12.8 9.85 1.7 7.55-6.65 16.3-9.1 9.45-24.95 14.3-15 4.65-27.65 3.3-12.9-1.35-16.65-8.2-1.35-2.5-0.4-6.85m31.4-25.55q-14.7 4.25-23.4 14.55-8.2 9.65-5.55 17.1 1.95 5.45 14.45 7 13.15 1.6 27.35-2.8 16.15-4.95 24.4-14.3 6.9-7.85 5.4-14.4-1.35-5.75-12.35-8.65-13.1-3.45-30.3 1.5"/>
   <path d="m181.95 287.45q7.8-7.3 19.3-10.75 13.5-4 23.9-2.95 9.6 1 11.25 5.4 1.9 5.05-5.3 12.15-7.7 7.5-20.3 11.35-11.35 3.4-21.65 3-10.45-0.4-12.5-4.45-3.05-6 5.3-13.75m19.7-9.4q-11.35 3.4-18.55 10.55-6.85 6.75-5.1 11.6 1.25 3.6 11.25 4 10.2 0.4 21.1-2.9 10-3.05 17.65-9.45 8-6.75 6.8-11.85-0.8-3.6-10.1-4.6-10.35-1.1-23.05 2.65"/>
   <path d="m177.1 295.4q-0.15-0.35 0.6-1.15 0.75-0.75 0.7-0.4-0.35 4.45 9.05 6.1 10.2 1.75 22.4-2.3 13.1-4.35 18.9-12.2 2.25-3.05 2.6-5.8 0.4-2.5-0.95-3.6-0.25-0.25 0.65-0.2 0.9 0 1.05 0.25 2.6 4.05-2.7 10.9-6.2 7.9-19.05 12.2-11.65 3.9-22.15 2.3-9.7-1.5-11.1-6.1"/>
  </g>
  <g fill="#eeeeef">
   <path d="m184.75 289.5q-0.3-2.55 1.15-4.25t4.1-2.05q2.75-0.35 4.75 0.85 2.15 1.25 2.55 3.95 0.4 2.9-0.9 10.85-1.35 8-2.25 8-0.95 0-5.05-7.4-4.1-7.45-4.35-9.95"/>
   <path d="m214.45 293.75q1.35 2.05 1.75 11.2 0.35 8.95-0.45 9.7-0.75 0.65-6.5-5.8-5.85-6.6-6.65-9.6-0.45-1.85 0.4-3.95 1.05-2.55 3.55-3.45l4.8-0.3q2.05 0.55 3.1 2.2"/>
   <path d="m212.6 283.85q-1.1-1.15-0.7-3.8 0.45-2.9 2.75-4.15 3.1-1.65 6.45-0.8 2.85 0.75 3.4 2.05 1.4 3.1 2.35 10.8 1 7.6 0.2 8.45-0.5 0.6-5.65-4-4.55-4.05-8.8-8.55"/>
  </g>
  <g fill="#c8c9ca">
   <path d="m187.3 296.35-1.4-2.25q-1.35-2.8-1.2-5.7 0.25-4.75 5.35-5.25 4.95-0.5 6.75 2.95 1.05 1.95 0.15 9.2-0.45-2.6-2.2-4-1.55-1.2-3.5-0.95-1.95 0.2-3.1 1.75-1.25 1.7-0.85 4.25"/>
   <path d="m206.2 292.2q4.65-2.35 7.8 0.85 1.35 1.35 1.8 8.2-2.15-4.1-6.15-3.25t-4.1 5.35q-2.4-2.85-3-5.25-0.9-3.65 3.65-5.9"/>
   <path d="m216.35 288.25-1.95-1.8q-2.05-2.2-2.65-4.35-0.95-3.45 3-6.15 4.25-2.9 9.15 0.3 1.4 0.9 2.4 7.5-2.9-3.75-6.85-2.25-4 1.5-3.1 6.75"/>
  </g>
  <g fill="#0d131a">
   <path d="m186.9 285.4q-1.5 1.5-1.4 3.85 0.05 1.55 4.1 9.25 3.95 7.65 4.4 7.5 0.45-0.1 1.65-8 1.25-8.05 0.85-9.85-0.55-2.45-2.45-3.6-1.65-1.05-3.8-0.75-2 0.25-3.35 1.6m-1-0.8q1.75-1.75 4.3-2.1 2.75-0.35 5 1.1 2.3 1.5 2.9 4.2 0.4 1.85-0.5 7.85-0.85 5.5-1.9 9.3-0.85 3.1-1.4 3.15-0.5 0-2.1-2.4-2.4-3.55-5.1-8.7-3.05-5.75-3.1-7.4-0.15-2.95 1.9-5"/>
   <path d="m205.9 291.45q2.25-1.05 4.8-0.65 2.7 0.4 4.2 2.1 1.35 1.6 1.8 8.55 0.4 6.1-0.05 11.25-0.2 2.85-0.6 2.95-0.4 0.15-2.65-1.9-3.45-3.1-7.15-7.7-4.25-5.35-4.6-7.75-0.2-1.7 0.8-3.6 1.2-2.2 3.45-3.25m7.6 2.4q-1.55-1.4-3.35-1.75-1.85-0.3-3.6 0.5-1.4 0.65-2.25 1.85-1 1.4-1 3.2 0 2.35 4.75 8.35 4.35 5.5 7.3 7.65l0.15-3q0-6.45-0.45-10.85-0.55-5-1.55-5.95"/>
   <path d="m211.85 277.8q1.3-2.15 3.8-3.1 2.4-0.95 5.2-0.4 2.7 0.55 4 2.1 1.4 1.7 2.25 8.3 0.75 5.65 0.6 9.8-0.05 2.7-0.4 2.85-0.3 0.1-2.5-1.4-3.7-2.5-8-6.5-5.1-4.75-5.65-6.85-0.65-2.55 0.7-4.8m8.5-2.2q-2.25-0.45-4.35 0.35-1.95 0.75-2.9 2.75-0.85 1.7-0.6 3.2 0.35 1.8 6.95 7.9 6.4 5.9 6.95 5.65 0.6-0.25-0.45-8.2-1.1-8.15-2.3-9.75-1.05-1.45-3.3-1.9"/>
  </g>
 </g>
</svg>
