<?xml version="1.0" encoding="UTF-8"?>
<!-- Created with Inkscape (http://www.inkscape.org/) -->
<svg version="1.1" viewBox="0 0 306.24 320.88" xmlns="http://www.w3.org/2000/svg">
 <g transform="translate(54.832 13.668)">
  <path d="m92.953 115.77c11.528-5.9328 27.93-15.426 32.633-18.605-0.63574-1.9072-1.0602-3.8143-1.187-5.466 2.0339-0.25548 5.0435-0.12655 7.2062 0.25378-1.867-2.2894-3.9853-5.4238-4.8323-7.3732 2.8809 0.84697 6.7817 1.6939 9.9161 2.0339 6.7797-8.0532 13.561-18.138 16.698-26.87-2.203-1.0159-4.6614-2.4584-6.4418-4.1543 3.8144-0.42257 6.8682-0.84497 9.5802-1.6939 6.2708-16.02 13.137-36.87 15.764-58.825-9.0692 11.868-19.283 18.838-30.428 23.14-4.8323 1.8649-13.057 5.5083-16.784 7.4577 0.42429 2.7139 0.76447 5.9348 0.84898 8.8157-2.2029-1.525-5.7638-3.3899-7.8822-4.4059-10.606 7.4477-31.617 21.57-37.339 39.88 0-4.8324-1.018-11.57-4.4501-17.927l-28.225-4.3234c-3.0519 9.6627-7.1197 17.038-16.275 23.775 0.25548-9.7893-9.4091-23.266-16.02-24.92 4.7056 9.5359 5.2186 16.959 3.8164 21.868-1.7804 6.2305-4.5788 10.427-6.2305 13.477-5.7215-17.036-19.708-35.345-33.185-44.499-2.8829 1.8226-4.4079 2.7541-7.2042 3.2631 1.527-3.5588 2.2049-5.2548 2.7964-8.3067-9.8316-7.6287-24.327-22.546-29.328-34.496-1.6939 16.527 1.2714 42.803 5.5968 54.924 2.4564 0.08442 7.7132 1.4405 10.168 2.6274-1.356 1.525-4.7438 3.5589-7.3733 5.0859 1.865 8.9846 6.4418 25.851 10.596 35.092 2.5409-0.76451 5.5948-1.358 8.3066-1.527-1.6114 2.2894-2.7139 4.3233-4.1543 6.8662 3.0519-1.0159 5.5948-1.8649 8.8157-2.0339-0.93348 1.5249-1.2714 2.6274-2.3739 5.0859 6.4438 4.5768 16.104 11.188 25.769 15.764-5.0013-0.76245-8.6446 0.33988-11.274 1.7804 14.155 2.4584 18.394 9.9644 21.19 23.395 0.84897 4.0679 2.8728 7.9446 8.5622 10.341 4.8303 2.0339 14.002 5.8865 20.605 6.0797 9.8558 0.28741 26.509-4.4843 35.506-12.352 3.3919-2.9654 5.5083-8.5602 7.5442-13.901 2.0339-5.3393 7.7132-16.442 18.225-17.798-2.2049-1.187-4.7478-2.0359-9.1557-1.527" fill="#faedab"/>
  <g fill="#9e6124">
   <path d="m27.513 142.82c-0.50868-3.2208-4.9691-13.382-8.3188-16.261-2.0943-1.8026-4.4461-2.895-6.8823-2.6817-1.1045 5.3835-0.3359 11.145 1.2976 14.602 2.2693 4.8142 7.8017 7.0533 13.904 4.3414"/>
   <path d="m75.617 128.15c-1.9092-2.8608-8.3972-6.8441-11.835-5.7095-4.8041 1.5853-9.735 9.8397-10.839 18.917 3.1505 3.5066 12.081 5.466 17.563 1.3359 4.1242-3.1102 5.5425-10.262 5.1119-14.543"/>
   <path d="m43.655 279.14c-1.4746 4.9993-3.3456 9.2603-5.627 11.236-5.0838 4.4098-6.6107 7.1217-5.5928 10.343 1.018 3.2208 4.2429 5.1924 8.1377 5.5948 4.9148 0.50925 11.147-1.03 13.899-6.6127 2.7361-5.5566 5.792-12.986 8.4214-19.856-7.0353 2.9915-14.503 1.7583-19.239-0.70411"/>
  </g>
  <path d="m142.83 242.79c-3.6916-5.6894-7.2284-14.457-6.6128-25.53l-1.3841-2.1526c-10.61 1.2312-26.145 9.381-35.679 11.841 3.5368 5.6913 10.842 11.866 18.454 16.149 2.4624 1.3841 3.2289 3.076 2.6153 7.2284-0.36612 2.4726-1.4887 8.2142-2.7622 13.495 5.7074 4.0558 12.238 4.2408 18.446 1.8508 2.6012-5.977 5.114-11.588 6.6148-14.423 1.3841-2.6153 2.2693-5.4379 0.30794-8.4596" fill="#faedab"/>
  <path d="m117.46 263.82c-0.86704 3.5911-1.8025 6.9709-2.6214 8.9585-1.0763 2.6133-2.4202 4.9872-4.4601 6.15-5.3815 3.076-6.9206 6.1541-6.303 10.152 0.61362 3.9974 6.303 5.5364 10.763 5.0758 4.4622-0.46247 9.6909-2.6153 11.996-7.5362 1.364-2.909 5.3111-12.312 9.0711-20.949-6.2084 2.388-12.739 2.2049-18.446-1.8509" fill="#9e6124"/>
  <path d="m195.18 233.42c-8.9846-12.377-14.881-22.216-18.478-41.024-2.2029-11.53-8.8137-21.528-17.291-25.429-8.4757-3.8988-17.46-3.5588-32.209 2.0339-14.748 5.5948-26.954 3.0519-37.804-4.9168l3.0096 0.21329-6.2305-5.0858-4.1966-1.1447c-2.4161-2.6696-4.5044-5.1643-6.3814-8.3047-9.9905 6.1943-20.579 11.588-34.762 11.588 0.2013 4.794 1.199 13.183-4.7941 16.979 0 13.384-1.018 37.482 7.3913 58.133 2.905 7.1298 5.1059 13.741 3.921 23.743-0.65588 5.5184-1.8771 12.785-3.6957 18.937 4.7338 2.4624 12.204 3.6956 19.239 0.7061 2.905-7.5885 5.291-14.497 6.1581-17.44 0.84697-2.8809 1.6919-7.1197 1.3539-10.001l17.122-22.886c12.206-1.6959 20.681-5.5948 27.634-8.4777 6.9487-2.8809 14.068-5.2548 19.323-5.7638 6.6107 9.6646 21.418 21.397 33.398 26.785 3.3899 1.527 5.0838 3.8989 5.5928 8.6467 0.4568 4.265 0.96365 10.397 0.678 16.893 5.2829 3.6735 13.256 3.5267 19.931 0.60957 2.044-8.7131 3.8485-17.13 4.6512-22.419 0.88318-5.8322-0.0622-7.5563-3.5609-12.374" fill="#faedab"/>
  <path d="m174.15 267.6c-0.35414 7.9626-1.9092 16.473-6.2708 22.776-1.5269 2.2049-3.5367 4.7941-3.2229 7.6287 0.31991 2.897 2.8829 5.4258 6.9508 6.4418 5.7457 1.4364 13.177-1.0301 14.748-6.2708 1.7543-5.8483 4.957-18.177 7.7252-29.966-6.6751 2.9171-14.648 3.064-19.931-0.60956" fill="#9e6124"/>
  <g fill="#3eac80">
   <path d="m46.02 269.85c-2.74 2.0339-6.4558 3.6253-10.17 2.213 1.2413 2.563 3.2712 4.4199 8.5783 4.3314 0.44254-1.5933 0.9717-3.6273 1.5913-6.5444"/>
   <path d="m120.02 245.27c-2.384 3.6695-8.6648 8.2484-16.533 6.3553 1.9696 3.6313 9.7974 5.3332 16.116 2.044 0.7182-2.7622 0.94757-5.8282 0.4163-8.3992"/>
   <path d="m88.946 164.03c10.856 1.6215 24.952-1.6839 28.634-10.791 3.6816-9.1094 1.6215-17.468-7.5482-25.954 3.245 8.9846 3.9934 17.593-1.185 23.894-5.1784 6.3009-14.288 12.103-27.262 6.6128 1.4968 1.6839 4.43 4.4923 7.3612 6.2386"/>
  </g>
  <path d="m141.86 18.207c-4.8303 1.865-13.054 5.5083-16.784 7.4597 0.42429 2.7119 0.76445 5.9328 0.84897 8.8137-2.2029-1.5249-5.7618-3.3899-7.8822-4.4058-10.039 7.0513-29.394 20.086-36.287 36.987 13.429 7.0372 29.131 20.587 36.679 34.522 3.1646-1.877 5.7075-3.4461 7.1499-4.4199-0.63375-1.9092-1.0582-3.8144-1.187-5.468 2.0339-0.25548 5.0435-0.12654 7.2062 0.25321-1.865-2.2874-3.9834-5.4238-4.8323-7.3732 2.8829 0.84697 6.7817 1.6959 9.9181 2.0339 6.7797-8.0512 13.562-18.138 16.696-26.867-2.2008-1.0179-4.6613-2.4605-6.4417-4.1543 3.8164-0.42429 6.8682-0.84697 9.5802-1.696 6.2708-16.02 13.137-36.87 15.764-58.825-9.0691 11.868-19.283 18.838-30.428 23.14" fill="#bad695"/>
  <path d="m141.86 18.207c-4.8303 1.865-13.054 5.5083-16.784 7.4597 0.42429 2.7119 0.76445 5.9328 0.84897 8.8137-2.2029-1.5249-5.7618-3.3899-7.8822-4.4058-6.8682 4.8243-18.098 12.451-26.715 22.2 12.081 6.8099 31.036 19.881 43.829 34.136 0.52523 0.0764 1.0421 0.14488 1.533 0.19901 6.7797-8.0512 13.562-18.138 16.696-26.867-2.2008-1.0179-4.6613-2.4604-6.4417-4.1543 3.8164-0.42429 6.8682-0.84697 9.5802-1.696 6.2708-16.02 13.137-36.87 15.764-58.825-9.0691 11.868-19.283 18.838-30.428 23.14" fill="#3eac80"/>
  <path d="m-19.864 37.405c-2.8829 1.8227-4.4058 2.7562-7.2042 3.2651 1.527-3.5609 2.2049-5.2568 2.7984-8.3067-9.8336-7.6287-24.329-22.548-29.33-34.5-1.6939 16.529 1.2715 42.805 5.5968 54.926 2.4564 0.08431 7.7132 1.4404 10.168 2.6274-1.354 1.525-4.7438 3.5609-7.3732 5.0858 1.8649 8.9847 6.4417 25.852 10.596 35.092 0.25776-0.0782 0.53891-0.14487 0.80471-0.21898 10.878-13.479 28.877-21.55 42.055-25.115-6.9749-13.211-17.686-25.773-28.111-32.855" fill="#bad695"/>
  <path d="m-39.22 83.044c12.733-12.706 27.036-19.832 40.612-23.896-6.2627-8.864-13.829-16.696-21.257-21.741-2.8829 1.8226-4.4058 2.7561-7.2042 3.2631 1.525-3.5608 2.205-5.2548 2.7984-8.3067-9.8337-7.6287-24.329-22.546-29.328-34.498-1.6959 16.529 1.2694 42.805 5.5948 54.926 2.4543 0.08431 7.7112 1.4404 10.168 2.6274-1.3539 1.5249-4.7438 3.5588-7.3732 5.0838 1.1789 5.6752 3.4382 14.489 5.9891 22.542" fill="#3eac80"/>
  <path d="m38.325 108.36c-3.8506-13.924 2.5067-26.616 16.591-35.108 10.073-6.0716 26.501-20.732 25.924-38.069-0.59349-17.776-14.964-33.182-34.961-33.036-19.997 0.14885-37.922 18.368-34.219 38.367 3.7037-7.85 9.9262-15.257 20.886-15.109 10.962 0.14656 16.913 11.998 16.444 22.812-0.14716 3.4079-1.2634 12.96-9.035 20.295-10.52 9.9222-13.038 28.883-1.6316 39.848" fill="#3eac80"/>
  <g fill="#9e6124">
   <path d="m-34.601 44.548c2.3014 8.8177 3.0559 16.104 3.8344 21.983 1.4042 10.606 6.1239 20.888 13.803 26.839 5.114 3.9612 14.058 8.8177 22.492 10.99-2.8105-10.99-7.2846-24.538-12.266-32.207-4.9873-7.6689-11.503-14.445-15.338-17.253-3.8345-2.8125-9.2019-6.647-12.525-10.353"/>
   <path d="m141 36.241c-7.6689 5.2387-15.348 9.5761-24.282 14.441-11.503 6.2647-16.615 10.608-21.983 21.474-5.3674 10.862-9.0752 20.064-12.27 30.032 3.3255-3.0679 7.8903-5.3614 12.27-6.5161 11.119-2.9392 20.464-5.6169 26.2-17.639 5.3675-11.246 14.827-30.927 20.066-41.791"/>
   <path d="m40.814 154.2c0.18078-1.4063-5.975-1.6839-6.1179-0.20702-0.1426 1.4787 1.875 2.559 2.9412 2.5912 1.0643 0.0343 3.0016-1.016 3.1766-2.384"/>
  </g>
  <path d="m167.8 173.24c6.1018-1.6959 12.544-2.6274 21.188-0.84698 6.9508-10.596 17.207-13.648 41.195-12.121 3.7298-3.3919 8.6467-8.7332 10.594-15.428-3.0499-2.5429-7.2042-5.4238-11.612-7.5422 4.4924-2.6274 10.258-5.8503 14.835-7.4597-0.93348-2.8809-0.42429-6.6952 3.6433-8.2222-1.3539-8.3067-1.7784-20.935 2.7139-32.293-8.1377-3.6454-23.142-12.461-27.887-20.852 0.67999-16.189 1.9514-44.754 3.7299-56.704 6.1862-7.6287 15.68-18.818 19.919-24.327-11.019 3.8143-28.821 10.425-42.636 17.291-7.5442 9.8316-20.85 20.935-34.667 30.004-1.4404 10.256-3.1364 33.736-2.0339 49.671 4.7478 3.4744 11.699 8.4777 17.631 13.392 5.8483-1.7804 11.359-3.3074 16.784-4.2388-2.3759 3.4764-4.4944 6.1883-8.7332 9.8337 2.0339 2.6254 3.8988 5.4238 6.1882 9.2381 2.5449-0.76244 5.9328-1.3559 9.0692-1.1025-2.8809 2.6274-5.1724 3.9854-7.6288 5.3393 0.33988 2.7139 0.76451 4.5768 1.018 7.4597 1.6094 0.33988 3.3053 0.93347 4.5768 1.865-1.187 1.018-2.6294 1.7784-4.5768 2.4584-3.8989 20.937-20.005 30.428-29.497 29.159-2.1184 2.2874-6.8662 8.3047-9.5782 11.019 1.6115 0.84697 3.4744 2.2049 5.7638 4.4078" fill="#faedab"/>
  <path d="m250.36 89.322c-8.1377-3.6453-23.142-12.459-27.887-20.85 0.68-16.191 1.9495-44.754 3.7299-56.706 6.1863-7.6287 15.68-18.818 19.919-24.327-11.019 3.8144-28.821 10.425-42.636 17.291-7.5442 9.8316-20.85 20.935-34.667 30.006-1.4404 10.256-3.1364 33.734-2.0339 49.669 4.7458 3.4764 11.697 8.4777 17.631 13.392 5.8483-1.7784 11.359-3.3054 16.782-4.2388-2.3739 3.4764-4.4923 6.1903-8.7312 9.8337 2.0339 2.6274 3.8989 5.4238 6.1883 9.2381 2.5429-0.76247 5.9328-1.3559 9.0691-1.1005-2.8809 2.6274-5.1723 3.9834-7.6287 5.3393 0.33988 2.7139 0.76446 4.5768 1.0179 7.4577 1.6094 0.33988 3.3054 0.93547 4.5768 1.867-1.187 1.0159-2.6294 1.7785-4.5768 2.4564-1.6275 8.7372-5.3815 15.473-9.892 20.273 7.9164 1.6175 12.479 6.8844 14.831 12.151 6.0615-1.2694 13.829-1.4626 24.133-0.8067 3.7299-3.3899 8.6467-8.7312 10.594-15.426-3.0499-2.5429-7.2042-5.4238-11.612-7.5442 4.4923-2.6274 10.256-5.8503 14.835-7.4597-0.93346-2.8809-0.42426-6.6952 3.6434-8.2202-1.3539-8.3087-1.7784-20.937 2.7139-32.295" fill="#bad695"/>
  <path d="m250.36 89.322c-8.1377-3.6453-23.142-12.459-27.887-20.85 0.68-16.191 1.9495-44.754 3.7299-56.706 6.1863-7.6287 15.68-18.818 19.919-24.327-11.019 3.8144-28.821 10.425-42.636 17.291-7.5442 9.8316-20.85 20.935-34.667 30.006-1.4404 10.256-3.1364 33.734-2.0339 49.669 4.7458 3.4764 11.697 8.4777 17.631 13.392 5.8483-1.7784 11.359-3.3054 16.782-4.2388-2.3739 3.4764-4.4923 6.1903-8.7312 9.8337 2.0339 2.6274 3.8989 5.4238 6.1883 9.2381 2.5429-0.76247 5.9328-1.3559 9.0691-1.1005-2.8809 2.6274-5.1723 3.9834-7.6287 5.3393 0.33988 2.7139 0.76446 4.5768 1.0179 7.4577 1.6094 0.33988 3.3054 0.93547 4.5768 1.867-1.187 1.0159-2.6294 1.7785-4.5768 2.4564-0.12881 0.68802-0.27144 1.362-0.42428 2.0239 17.356-0.18706 29.69 9.8416 36.818 21.166 1.368-2.1164 2.5348-4.4622 3.2732-6.999-3.0499-2.5429-7.2043-5.4238-11.612-7.5442 4.4923-2.6274 10.256-5.8503 14.835-7.4597-0.93346-2.8809-0.42428-6.6952 3.6434-8.2202-1.3539-8.3087-1.7784-20.937 2.7139-32.295" fill="#3eac80"/>
  <path d="m14.814 126.28c-1.2895 0.21727-1.6235 2.2069-1.3781 4.9872 0.17109 1.9233 1.4223 4.6312 2.8889 4.5688 1.3821-0.0605 1.9273-2.1606 1.5088-4.8202-0.43683-2.7883-1.8247-4.939-3.0197-4.7358" fill="#fff"/>
  <path d="m61.5 126.85c-1.5833 0.0513-2.9996 2.2512-2.8829 5.5124 0.09229 2.5429 1.0662 5.134 3.0881 5.2166 1.9333 0.0827 3.072-2.9352 2.9634-5.4077-0.10836-2.5992-1.0682-5.3936-3.1685-5.3212" fill="#fff"/>
  <path d="m40.539 171.51c9.8337 0 29.992-6.7214 37.498-17.849l-2.3739-3.9753c-8.6587 6.4679-22.067 11.342-34.81 11.439 0.27943 2.8628 0.55716 6.4679-0.31364 10.385" fill="#d9cd94"/>
  <path d="m53.117 211.72c6.2708 4.7478 15.366 10.166 24.58 11.019 9.1556 0.84901 19.671-1.8528 25.427-4.0678 8.8156-3.3898 18.649-6.315 28.821-7.84 1.016 1.3982 1.7784 2.7964 2.6697 4.1966-5.3413 0.76045-19.601 6.0414-28.227 9.4071-28.35 11.061-42.59 3.1786-55.686-11.57z" fill="#d9cd94"/>
  <path d="m138.22 41.855c-10.343 7.6287-27.632 17.291-32.72 23.395-5.0838 6.1018-12.884 17.631-19.494 34.243l-3.3919 2.5007c3.0539-9.1536 11.954-31.913 18.436-39.922 6.486-8.011 35.218-20.979 39.797-25.683z" fill="#7e4a22"/>
  <path d="m-33.467 48.975c5.2125 5.8482 10.681 8.3912 20.595 23.395 6.8844 10.413 10.936 17.674 15.64 31.022l2.4161 0.76245c-2.2894-11.95-7.5925-25.55-13.477-33.818-9.4091-13.223-22.504-21.108-26.572-26.065 0.50868 1.6517 1.0159 3.1786 1.3982 4.7035" fill="#7e4a22"/>
  <g fill="#33976e">
   <path d="m104.53 252.13c5.1039 2.1264 10.952 1.2775 15.843-2.2331l-0.53093 3.7218c-3.8285 2.5509-13.399 2.7642-15.312-1.4887"/>
   <path d="m36.264 272.33c2.2331 1.9133 6.2748 2.4444 8.7191 2.0198l-0.42429 1.9132c-5.2105 1.0642-7.8681-2.4443-8.2946-3.933"/>
   <path d="m86.95 162.19c25.246 3.422 37.196-16.668 23.888-33.281 6.5262 3.5608 11.528 15.682 6.3573 25.007-5.1703 9.3227-17.629 11.61-28.139 10.085z"/>
  </g>
  <path d="m70.068 252.23-8.6447-29.835c-4.2369-2.5429-8.8157-6.2728-10.723-9.5359-3.6031 1.3137-7.5844 1.0582-9.4514 0.21099-1.3559 0.50926-2.7119 0.678-3.7299 1.018 0.50925 4.5768 1.527 13.221 5.0878 20.512 4.3233 8.8559 5.5928 18.647 4.7176 26.793 5.9609 0.33018 12.572 5.9248 12.155 11.749-0.1512 2.0782-0.64783 4.9752-1.4968 8.1236 1.6356-0.27771 3.2853-0.73427 4.9128-1.4243-2.6314 6.8682-5.6873 14.298-8.4234 19.854 6.0595-12.296 10.383-23.337 14.239-36.617 1.525-5.2548 1.696-7.9667 1.356-10.85" fill="#d9cd94"/>
  <path d="m57.983 281.27c-1.5129 5.6169-4.1503 12.047-7.9828 16.116-4.9752 5.287-17.71 2.9332-16.901-1.6557-0.0016 1e-3 -0.0016 3e-3 -0.0033 7e-3 -0.12492 0.21101-0.23551 0.42257-0.33589 0.6297l-0.0065 0.0114c-0.09864 0.20529-0.18535 0.4106-0.25948 0.61156-0.0016 7e-3 -0.0033 0.0114-0.0065 0.0228-0.07415 0.1973-0.1306 0.39234-0.18134 0.58743-0.0033 0.0114-0.0065 0.0229-0.01135 0.0343-0.04559 0.18706-0.07869 0.3741-0.1027 0.56114-0.0016 0.0171-0.0065 0.0399-0.01135 0.0582-0.02288 0.17679-0.03423 0.35413-0.03991 0.53092 0 0.0285-0.0033 0.0571-0.0033 0.0843 0 0.16708 0.01135 0.33589 0.02287 0.50297 0.0033 0.0343 0.0033 0.0748 0.0065 0.11292 0.0172 0.16077 0.04559 0.3262 0.07869 0.49101 0.0065 0.0399 0.01135 0.0827 0.02287 0.12265 0.04558 0.20531 0.09864 0.4106 0.16481 0.6196 1.018 3.2209 4.2429 5.1924 8.1377 5.5948 4.9148 0.50698 11.147-1.0301 13.899-6.6128 2.7361-5.5586 5.792-12.984 8.4214-19.854-1.6256 0.69008-3.2772 1.1468-4.9108 1.4244" fill="#7e4a22"/>
  <path d="m143.14 243c-1.712-3.2692-8.0934-12.141-6.8481-25.683l-1.6779-2.2955c-12.487 3.2309-31.322 10.858-35.524 11.946 4.2026 5.9167 11.63 12.702 18.213 16.189 2.6455 1.4002 3.2691 2.6476 3.1122 4.3576-0.15509 1.712-0.15509 3.579-0.77852 6.6932 6.8381-2.8386 9.0652 4.4099 8.3147 13.006 2.6556 7e-3 5.3353-0.5372 7.9546-1.5451-1.7724 4.0719-3.585 8.3088-5.1502 11.962 1.5833-3.6192 3.3416-7.7394 5.0536-11.723 2.5328-5.8945 4.9631-11.479 6.5504-14.658 1.4022-2.8024 2.4926-4.9812 0.78059-8.2504" fill="#d9cd94"/>
  <path d="m127.95 267.21c-0.71216 8.1578-4.1 17.529-8.8056 20.665-4.8122 3.2088-14.4-0.73236-12.586-5.8121-3.2109 2.7541-3.5548 8.8117 1.9052 11.383 1.9716 0.69408 4.3012 0.91735 6.3713 0.70213 1.3801-0.1426 2.8306-0.44882 4.2449-0.94359 3.2188-1.366 6.152-3.8184 7.8701-7.2484 0.98177-1.9695 2.3136-4.9269 3.8023-8.3288 1.5672-3.6534 3.3778-7.8903 5.1502-11.964-2.6234 1.0099-5.3031 1.5531-7.9526 1.547" fill="#7e4a22"/>
  <path d="m193.9 232.5c1.6879 5.2065 2.2512 8.5823 1.6879 11.96-0.57736 3.4764-2.6495 14.27-5.0978 25.017 1.2211-0.33589 2.4282-0.75442 3.595-1.2634l0.34786-0.16309c1.8368-8.0733 3.3939-16.175 4.5326-24.154 0.56343-3.9391-0.28172-6.8944-5.0657-11.397" fill="#d9cd94"/>
  <path d="m190.49 269.47c-2.545 11.155-5.4983 22.262-7.6267 25.081-4.257 5.6471-15.762 5.7054-17.326-0.4967-0.62564 1.2473-1.028 2.5671-0.87507 3.9471 0.31364 2.8326 2.7823 5.303 6.6952 6.3633 1.4344 0.30167 2.8849 0.47275 4.3012 0.45849 2.565-0.11061 5.122-0.85906 7.1298-2.1667 1.537-1.1347 2.8246-2.7522 3.7218-4.9913 1.7824-6.0253 4.8847-17.987 7.5744-29.459-1.1648 0.50925-2.3719 0.92949-3.595 1.2634" fill="#7e4a22"/>
  <g fill="#0d1319">
   <path d="m27.547 132.82c0.36783 1.1708 1.3458 0.9475 1.1085-0.35585-0.22525-1.2191-1.195-3.1223-2.1848-4.4098-0.8148-1.0602-1.2956-0.73025-0.67799 0.53491 0.676 1.3862 1.2292 2.555 1.7543 4.2308"/>
   <path d="m50.94 131.44c-0.31195 1.533 0.83288 1.8549 1.195 0.31992 0.48871-2.0882 0.86908-3.074 1.7442-5.0898 0.37239-0.86509-0.03428-1.2352-0.73833-0.31763-1.2272 1.6014-1.7402 2.8306-2.2009 5.0878"/>
   <path d="m11.466 123.27c-1.2373 0.2937-1.0462 1.1065 0.22526 1.1307 1.9474 0.0343 3.575 0.2395 5.9509 2.0701 3.0519 2.3518 6.8019 7.8822 9.7713 18.175 0.48701 1.6939 1.4726 1.4364 1.1145-0.292-2.1124-10.19-6.5625-16.611-9.9302-19.281-2.4222-1.9192-5.0859-2.2894-7.1318-1.8026"/>
   <path d="m27.325 142.23c-4.5325 2.5469-10.19 0.76246-12.608-3.5568-3.074-5.4962-2.5148-12.471-1.4264-14.891l-1.4324-0.0456c-1.3359 3.1786-1.877 10.268 1.2714 15.893 2.726 4.8665 9.725 6.7395 14.493 3.752z"/>
   <path d="m63.596 121.72c-4.7921 1.201-10.671 9.1979-11.6 22.548-0.11243 1.6256 0.94961 1.7362 1.1488 0.11859 1.4968-12.262 6.5705-19.798 10.866-20.874 3.9673-0.99583 10.656 3.3376 13.109 7.0896 0.9556 1.4686 1.8227 1.0019 1.0139-0.55146-2.0681-3.9652-9.6867-9.5459-14.537-8.3308"/>
   <path d="m75.006 127.23c0.6297 10.3-3.3959 14.435-7.8621 16.04-5.7175 2.054-12.35-0.0948-14.068-2.4584l-0.17109 1.6537c2.6254 2.9232 9.3066 4.3857 14.789 2.4162 3.4603-1.2433 9.3669-5.128 8.5099-16.432z"/>
   <path d="m102.33 118.09c0.98579-0.22925 1.1226-0.81681 0.12492-1.372-7.2988-4.0659-15.583-0.22924-18.877 3.4301-1.3036 1.4465-0.66797 2.0762 0.81274 0.8168 3.1786-2.6978 9.2482-5.7839 15.603-3.762-6.7314 1.539-12.558 5.3674-19.148 22.973-2.0943 5.5928-4.0598 7.9768-9.6083 11.379-6.7979 4.1664-18.162 8.703-28.746 9.1275-5.4339 0.21728-16.382-3.4985-21.611-6.0575-5.9851-2.9332-6.9387-4.7398-8.0512-9.8336-3.1464-14.398-8.7392-21.52-20.365-23.397 4.9892-1.8488 9.9644-1.4465 13.827 1.2191 1.5068 1.0401 2.1586 0.43055 0.81281-0.81673-4.096-3.7983-12.187-3.7983-17.167-0.85906-1.1407 0.67194-1.1125 1.2392 0.27544 1.4465 12.411 1.8729 17.263 8.0652 20.494 22.856 1.37 6.2607 2.9835 7.852 9.375 10.982 5.464 2.6756 16.786 6.315 22.484 6.0877 10.791-0.43055 22.719-4.8886 29.646-9.1336 5.7397-3.5206 8.4314-6.5162 10.604-12.326 6.6209-17.682 13.388-21.327 19.514-22.759"/>
   <path d="m5.6803 120.96c-7.1821-3.3697-21.476-11.592-28.596-17.376 0.70007-1.7161 1.2091-2.8608 1.9997-4.1483 0.60552-0.98173 0.1551-1.3238-0.75241-1.2413-2.4282 0.22128-4.6794 0.62167-7.4799 1.6899 0.9556-1.8307 1.8448-3.2933 3.3135-5.1944 0.83288-1.0803 0.68398-1.4002-0.62166-1.2856-3.2109 0.27944-4.8504 0.4528-7.4054 1.1648-3.1887-8.0814-6.8019-20.386-10.109-33.71 2.1748-1.3298 4.6553-3.0459 6.6249-4.7639 0.62364-0.5429 0.52522-1.1266-0.12654-1.4606-2.9895-1.527-5.8483-2.2894-9.4192-2.7239-4.7579-13.614-6.9608-34.722-6.0977-51.51 7.1459 15.125 22.061 28.682 27.3 32.768-0.34217 2.3297-0.97574 4.1745-2.0963 7.1157-0.43055 1.1286-0.10837 1.2876 0.97574 1.1527 2.3176-0.2897 4.4943-1.3438 6.9165-2.9714 15.374 13.073 26.548 25.858 32.5 45.183l1.1548-2.4825c-5.7517-19.132-17.577-32.076-33.168-44.608-0.20132-0.1631-0.48302-0.18078-0.69608-0.03417-2.0862 1.4264-4.0035 2.7622-5.8644 3.2169 1.2071-2.1426 1.875-4.8122 2.5952-7.2565 0.08842-0.30965-0.03991-0.49499-0.20302-0.61966-5.1119-3.9552-22.226-18.36-29.189-34.259-0.69806-1.5974-1.4284-1.4183-1.5591 0.31764-1.9012 24.926 1.875 42.916 5.5465 55.894 0.06441 0.22127 0.25377 0.41631 0.48472 0.41459 3.0338-0.0067 5.987 0.08667 9.2019 1.4083-1.879 1.4103-4.5144 2.7763-7.0755 4.1664-0.34616 0.18932-0.32392 0.39234-0.26347 0.63373 3.3979 13.759 7.8017 27.718 11.073 35.9 0.10659 0.26972 0.39634 0.41628 0.67594 0.34615 2.2391-0.55945 4.4118-1.4626 7.1439-1.7543-1.356 1.6597-2.3699 3.3134-3.4422 5.5244-0.43057 0.88519-0.08663 1.356 0.79666 1.0643 2.3598-0.78664 4.9571-1.4847 7.4517-1.7905-0.94756 1.374-1.8367 2.8366-2.5348 4.4782-0.1306 0.30566-0.09069 0.47503 0.18305 0.67999 6.3291 4.8102 18.504 11.729 26.029 15.076z"/>
   <path d="m-53.941-0.15981c1.9193 11.888 8.1397 28.855 14.978 39.041 1.1648 1.7362 2.054 1.1668 0.97168-0.62166-6.2828-10.389-12.584-27.067-14.439-38.822z"/>
   <path d="m-51.269 37.914c4.7055 1.7804 8.009 3.4965 12.495 6.1882 1.4525 0.86909 1.9977-0.04564 0.59348-0.99182-4.8867-3.2893-8.192-5.0053-13.405-7.2304z"/>
   <path d="m-23.63 55.078c4.2328 3.1203 9.1376 8.7091 14.35 15.734 6.997 9.4313 11.115 22.071 15.674 40.075 0.43681 1.7221 1.4686 1.4827 1.1246-0.25948-3.4804-17.661-7.7897-31.446-14.907-41.038-5.2789-7.1157-10.831-12.875-15.145-16.068-4.0598-3.0056-9.2804-6.5785-13.217-11.198-1.2634-1.4827-2.0661-0.83088-0.89727 0.72624 3.7721 5.0356 9.0873 9.1295 13.018 12.029"/>
   <path d="m-35.996 43.079c2.06 6.152 2.909 13.825 3.8304 20.391 1.2493 8.9163 2.8728 16.143 7.4698 23.202 7.174 11.019 23.055 16.467 30.318 18.645l-0.48073-1.8408c-6.5283-1.9494-21.224-7.7414-27.932-18.044-4.4782-6.8803-6.2064-13.487-7.4356-22.248-0.78863-5.633-1.9293-12.684-3.5911-17.881z"/>
   <path d="m32.443 70.977c0.03423-9.4594-7.8923-22.341-16.642-25.023-1.2151-0.37011-1.7262-0.26974-0.92345 1.1145 6.7154 11.588 4.7277 22.735 0.44481 29.306-8.5903 13.187-7.8943 24.391 1.6939 33.671 1.5712 1.5209 2.1888 0.70012 0.8248-0.80265-9.226-10.174-7.852-20.665-0.92944-31.979 5.3071-8.6708 5.6049-19.474-0.09864-29.308 7.6528 4.2409 14.604 14.921 13.568 25.351z"/>
   <path d="m48.602 3.2027c14.692 0.60551 30.45 13.187 30.801 30.897 0.22754 12.33-6.2607 26.101-22.313 36.333-20.15 12.847-22.536 25.204-19.923 35.635-8.526-11.377-6.3995-26.423 3.8667-37.496 12.99-14.022 8.5099-31.599 3.1143-38.413-8.0894-10.222-26.586-6.6007-31.951 8.2262-1.4022-17.706 13.763-36.116 36.405-35.182m-37.443 38.176c0.26746 1.1205 0.93347 1.3579 1.366 0.06441 4.7378-14.083 21.699-20.005 29.913-9.6325 6.2888 7.9486 8.1055 23.667-2.4986 35.108-9.4534 10.2-15.939 27.829-2.2251 42.079 0.87114 0.9073 1.5129 0.69003 1.2212-0.64379-4.0014-18.438 6.8059-28.101 19.361-36.206 15.115-9.7592 23.812-23.844 23.536-37.985-0.35186-17.669-15.135-32.277-32.863-33.007-26.169-1.0783-42.262 21.629-37.812 40.224"/>
   <path d="m47.902 41.855c-1.0763 9.8558-5.7095 19.05-12.94 25.443-15.074 13.336-17.531 26.515-7.5181 38.415 1.4002 1.6658 2.1325 1.1024 0.91341-0.70211-8.2987-12.298-6.7315-23.043 7.9969-36.067 6.3573-5.627 10.371-12.646 12.183-21.027z"/>
   <path d="m71.154 59.226c-0.57539 4.7518-4.7438 10.202-10.115 16.537-4.9229 5.804-12.415 17.118-8.1357 29.31 0.64173 1.8388 1.6094 1.5048 1.0904-0.37637-3.082-11.137 3.8445-22.021 8.6065-27.64 4.955-5.8423 10.351-12.654 10.522-20.029z"/>
   <path d="m75.698 53.116c2.2452 3.9572 4.2811 10.956 4.0719 17.839l2.0942-3.1988c-0.5007-6.651-3.0619-12.886-5.2025-16.39z"/>
   <path d="m127.07 83.812c-1.3339-0.39405-1.6034 0.0741-0.93148 1.3137 1.0582 1.9495 2.3558 4.0055 3.9834 5.8906-1.7985-0.0787-3.4764-0.0827-5.8885 0.23553-0.51496 0.0684-0.64778 0.211-0.55546 0.82485 0.30167 1.7945 0.56114 3.0398 1.1468 4.5346-10.003 6.4418-22.886 13.901-35.806 20.162l4.1322-0.55543c10.524-4.774 24.5-12.769 33.432-18.267 0.23154-0.14082 0.4106-0.35585 0.23325-0.70412-0.84901-1.6537-1.2976-3.1665-1.6316-4.79 2.1808-0.25379 3.9612-0.211 6.2064 0.17107 1.2916 0.21728 1.5894-0.32561 0.89123-1.1447-1.7361-2.0339-3.2208-4.1523-4.1624-5.9006 2.8909 1.0682 5.2649 1.6215 8.7754 2.2934 0.19105 0.0343 0.38835-0.0171 0.52693-0.14876 6.0414-5.8906 13.405-19.362 16.788-27.648 0.13855-0.33816 0.12897-0.54916-0.27545-0.73427-2.394-1.0884-3.7258-2.1466-4.9611-3.2028 3.1002-0.1306 6.1782-0.72025 8.0552-1.2212 0.16708-0.04553 0.30394-0.16077 0.37637-0.31993 8.7956-19.392 14.716-49.955 15.756-59.454 0.20303-1.8529-0.63977-1.9997-1.541-0.65587-7.5664 11.27-19.058 18.768-28.441 22.321-3.9129 1.4807-13.191 4.8243-19.114 8.015-0.30794 0.16481-0.35014 0.32619-0.29198 0.62764 0.29768 1.3801 1.2956 4.8062 1.4243 7.8541-2.0258-1.5612-4.5708-3.2128-7.0513-4.3897-0.20531-0.09638-0.44255-0.10663-0.63175 0.02852-19.764 14.139-35.629 27.063-40.562 47.905-2.225 9.4071-3.6232 16.497-8.0089 27.324-0.78458 1.9394 0.08273 2.3518 1.0542 0.47048 5.1119-9.9 6.8421-17.756 9.0812-27.222 4.8162-20.347 19.587-32.342 39.005-46.249 2.5429 1.018 4.7679 2.2894 7.5985 4.1 0.63772 0.4106 0.96164 0.33418 1.022-0.54517 0.21557-3.1726-0.16708-5.971-0.67594-8.1961 5.6411-3.0076 14.143-6.3673 17.929-7.8017 7.852-2.9734 20.79-11.206 27.338-21.194-1.8729 11.071-7.7212 37.765-15.704 55.505-2.2472 0.76245-5.2991 1.3137-8.5622 1.7382-1.718 0.22355-1.8166 0.59952-0.50924 1.6959 1.6436 1.37 2.9332 2.3961 5.3836 3.6856-3.3879 8.0975-9.9624 19.703-15.764 25.471-2.5409-0.31763-6.3573-1.018-9.0712-1.8227"/>
   <path d="m170.94-3.4034c-3.8244 9.5238-13.119 22.5-24.131 34.265-1.4002 1.4968-0.64777 2.227 0.82684 0.8047 11.455-11.045 20.993-24.52 24.824-34.734z"/>
   <path d="m144.18 33.336c-6.3291 4.4501-13.342 9.1134-20.41 12.714-5.283 2.6918-19.269 9.5842-24.204 16.117-5.297 7.007-14.499 26.902-19.227 45.257-0.51495 1.9957 0.5047 2.2874 1.1065 0.31594 5.4862-17.909 14.503-37.18 19.738-44.105 4.778-6.3231 18.183-13.376 23.319-15.996 7.5221-3.8345 14.304-8.6447 20.355-13.37 1.4264-1.1145 0.80271-1.9756-0.67799-0.93348"/>
   <path d="m139.7 37.278c-4.5748 9.1355-11.552 22.369-15.941 32.611-6.9528 16.225-11.735 20.158-25.045 23.602-6.5222 1.6899-11.829 3.7882-15.974 7.7695l-0.70013 2.9252c3.6414-4.2268 8.3711-6.4096 17.006-8.6467 13.473-3.4844 19.601-7.9164 26.699-24.473 4.3736-10.21 12.201-26.604 16.768-35.727z"/>
   <path d="m163.7 34.45c-4.6835 1.185-12.375 1.9152-17.253 1.9494-1.545 0.01135-1.5812 1.0381-0.0456 1.1527 4.4984 0.33418 11.707-0.30395 16.66-1.1567z"/>
   <path d="m44.299 235.87c1.6698 4.3435 3.3476 8.4898 4.1905 14.956 1.5712 12.045-4.611 35.913-10.087 40.445-1.9676 1.6296-5.6713 4.613-5.289 8.1799 0.52523 4.8827 5.4258 5.7256 7.5945 5.9489 5.2548 0.54118 10.984-0.35813 15.845-11.636 4.084-9.4715 10.23-26.501 11.636-31.855 0.69812-2.6515 1.5068-6.2828 1.1025-9.6264l1.8005-0.0342c0.3684 3.5267-0.51896 7.4175-1.2352 10.125-1.4163 5.3876-7.6046 22.611-11.705 32.12-4.7337 10.98-9.7672 13.362-17.344 12.58-5.0999-0.52522-9.3226-3.4865-9.7491-7.4537-0.4488-4.1845 4.1423-7.6146 6.0736-9.4755 4.9651-4.774 10.988-27.304 9.4514-39.095-0.82484-6.3271-2.388-10.26-4.2328-14.668-6.0193-14.368-7.7997-32.549-6.6389-49.239l1.9635-0.10837c-1.197 15.708-0.07252 31.42 6.6228 48.838"/>
   <path d="m38.665 305.06c-3.2853-0.97575-2.5449-5.0214-0.58544-6.7838 0.89121-0.80266 0.35813-1.5249-0.68604-0.92743-2.394 1.3761-3.3014 4.7579-1.8227 7.3088z"/>
   <path d="m46.016 305.17c-2.4584 0.57136-3.0297-3.581-1.4585-6.6047 0.48701-0.93347-0.30396-1.4002-0.98377-0.59953-2.0701 2.4363-2.1265 6.6591-0.22755 8.2846z"/>
   <path d="m111.28 221.51c-13.079 5.0798-25.532 9.3307-36.554 6.2306-7.1579-2.0138-17.1-7.2485-23.755-15.334l-1.2916 0.52123c6.2305 8.7091 17.134 14.7 24.538 16.782 11.367 3.1967 24.427-1.1548 37.697-6.2929 8.2885-3.2088 17.682-6.9488 23.331-7.327l-1.0784-1.6356c-5.7276 0.55314-14.837 3.929-22.886 7.0553"/>
   <path d="m44.639 275.42c-3.0519 0.80472-6.6108-0.7202-7.7132-2.5006 3.2269 0.93748 7.2686-0.11698 9.0269-2.2452l0.46649-2.7985c-1.527 3.3698-6.9085 5.0014-10.214 3.5609-0.74438-0.32392-1.0844-0.1186-0.95361 0.65381 0.57135 3.3295 5.8141 5.7236 8.9223 5.0677z"/>
   <path d="m135.41 216.23c-0.28798 12.397 1.696 18.289 6.5544 26.668 1.4203 2.4464 1.7985 3.6695 0.40661 6.5766-4.3053 8.9786-11.602 25.777-16.37 36.556-2.2874 5.1743-8.2142 8.1799-14.622 7.3732-4.5124-0.56514-7.0916-3.3698-6.5162-7.3089 0.3684-2.4966 2.9272-4.4299 4.4823-5.468 4.3656-2.9131 5.7758-5.0456 7.6609-12.3 1.6577-6.3854 3.6594-13.789 4.259-19.357 0.32391-3.0217-0.3319-4.7458-3.3074-6.3894-7.9345-4.3817-14.65-10.331-18.052-15.893l-2.4222 0.49271c3.752 6.2768 11.419 12.318 19.649 16.863 2.1587 1.193 2.7522 1.8187 2.4323 4.8002-0.59148 5.4841-2.5288 12.666-4.1805 19.007-1.8187 6.9769-2.8226 8.7332-6.9286 11.473-2.0942 1.4002-5.0938 3.7259-5.5023 6.5182-0.74431 5.0778 2.9594 8.3691 8.2021 9.0249 6.9064 0.86911 14.095-1.885 16.563-7.5281 5.0717-11.592 11.55-28.294 16.137-37.206 1.5632-3.0358 1.706-4.9248-0.0229-7.9023-4.5648-7.8741-6.9407-13.059-6.9306-24.347z"/>
   <path d="m108.55 292.69c-2.7541-1.4405-1.2714-5.0013 1.4908-6.6811 1.1065-0.67195 0.69008-1.523-0.51723-1.03-3.2189 1.3117-4.5467 4.8564-3.748 6.7998z"/>
   <path d="m116.39 293.28c-3.0298 0.42428-3.0298-3.8788-0.50071-6.4659 0.92139-0.94757 0.25778-1.6658-0.78664-0.84697-3.3536 2.6294-3.4804 6.6349-1.6577 8.4153z"/>
   <path d="m119.8 252.55c-5.1341 2.6636-11.393 2.8507-14.658-0.0229 5.8382 0.68398 12.519-2.1204 15.123-6.3472l-0.96969-1.7113c-2.2532 4.778-9.9684 7.7575-15.541 6.645-0.9576-0.19504-1.2332 0.35413-0.70007 1.1628 3.1464 4.7821 11.145 4.9671 16.473 2.217z"/>
   <path d="m133.54 165.9c-13.859 4.6191-26.638 10.027-45.71-3.5126-1.2574-0.89328-1.9032-0.0171-0.68603 0.92744 18.358 14.201 31.776 9.8819 46.961 4.5627 10.449-3.6615 19.078-2.9875 26.503 1.37 7.7092 4.5245 13.04 12.797 15.189 24.097 2.9553 15.557 9.4675 29.348 20.12 42.99 2.0721 2.6536 2.565 3.4402 1.9554 8.4395-1.0442 8.5179-8.7493 45.64-12.602 53.842-1.6618 3.5428-4.9913 5.5003-9.5238 5.5606-7.8158 0.10432-13.352-5.2669-8.5521-11.546 9.3408-12.216 8.2282-29.314 7.3631-41.195-0.37011-5.0617-1.9252-7.9627-5.1964-9.6164-23.343-11.791-37.667-27.048-40.918-42.491-0.39234-1.8508-1.4323-1.6778-1.1386 0.19103 2.6093 16.521 16.905 32.138 41.276 43.903 1.9917 0.96159 3.7299 2.5147 4.1162 8.0914 0.95761 13.875 2.0339 28.282-7.0916 40.21-5.3152 6.9528 0.35813 14.066 10.174 13.934 5.3312-0.07 9.4836-2.2673 11.401-6.3533 3.8888-8.2765 10.542-42.831 12.821-54.244 1.0421-5.2045-0.15688-7.0212-2.4946-9.9-11.499-14.159-16.541-25.797-19.645-42.133-2.207-11.634-8.1699-20.919-16.173-25.614-7.6167-4.4702-17.464-5.0738-28.149-1.5129"/>
   <path d="m170.63 303.39c-2.5751-1.1125-2.4806-5.8805 0.24123-7.5965 1.1065-0.69607 0.62363-1.5672-0.55945-1.0079-3.2108 1.5169-4.09 5.3152-2.736 7.8722z"/>
   <path d="m177.84 304.02c-3.8445 0.31764-3.3355-4.9893-0.92337-7.4235 1.0401-1.0502 0.4123-1.7563-0.7645-0.86511-3.7158 2.8206-3.3275 7.681-1.5531 9.1154z"/>
   <path d="m74.767 150.42c2.6576 4.3998 5.0295 7.2908 8.9686 10.097 1.5954 1.1346 2.1969 0.44653 0.7524-0.87718-3.591-3.2893-6.1983-6.8501-8.3731-10.729z"/>
   <path d="m90.284 164.76c6.146 1.527 19.708-0.11697 25.614-6.9085 7.6287-8.7714 5.1964-22.188-5.1341-30.621-1.5068-1.2292-1.7845-0.89726-1.1628 0.70212 3.925 10.129 2.7602 19.301-3.8063 25.512-6.4559 6.1098-16.509 7.3894-24.962 3.2229l2.1365 2.3317c7.7796 3.1344 17.75 1.5974 23.971-4.2388 8.2222-7.7132 7.3068-17.303 4.6855-24.996 6.7134 7.005 10.093 18.166 2.7722 26.733-6.2023 7.2585-21.953 8.4334-26.775 6.3713z"/>
   <path d="m163.22 169.46c3.0016-3.2229 6.2225-7.0151 8.7996-10.598 15.434 0.46078 27.902-14.871 29.877-29.732 1.9031-0.61355 3.1525-1.2875 4.259-2.2291 0.64578-0.54918 0.57534-0.89925 0.10836-1.2252-1.2574-0.88518-3.06-1.5329-4.3857-1.9112-0.22526-2.0661-0.48701-4.2006-0.90126-6.4116 3.0579-1.7764 5.5123-3.5387 7.3792-5.4017 0.98178-0.98172 0.73635-1.2996-0.47504-1.2795-2.9594 0.0456-5.7779 0.4203-8.6929 1.0843-1.708-2.7099-3.6655-5.7597-5.4218-8.1558 3.9592-3.8224 6.8743-7.2887 8.4918-9.9121 0.46078-0.74637 0.26347-1.2252-0.72424-1.0301-5.8101 1.1528-12.459 2.8447-16.813 4.0839-4.444-3.5468-11.095-8.7311-16.875-12.743-0.30567-23.244-0.13466-36.299 2.0903-48.39 18.478-13.129 29.481-22.936 34.196-29.986 14.437-6.83 28.396-12.586 39.524-16.561-3.2269 4.0517-15.966 18.631-18.661 22.095-0.0662 0.08839-0.11061 0.19504-0.11859 0.30396-1.7442 19.87-3.6172 42.574-3.6172 57.388 0 0.06216 7e-3 0.12881 0.0286 0.18933 2.2089 6.4176 17.714 16.064 27.656 20.719-4.3556 10.24-3.9009 23.721-2.2351 31.281-3.3275 0.93347-4.8524 5.0436-3.6474 8.2624-4.1162 1.7744-9.218 4.2811-14.453 7.4638-0.55316 0.33819-0.60352 0.79462 0 1.1346 5.3011 2.9956 8.2242 4.9028 10.842 7.2545-2.0702 5.4198-5.7718 10.65-9.5902 13.968-15.618-1.1689-34.098-0.67395-41.197 12.204-6.5947-1.4404-16.219-0.75447-21.635 1.3338l1.2433 1.537c5.3534-1.9072 14.694-2.6234 20.935-0.46477 0.24921 0.0867 0.52125-0.0605 0.64173-0.29369 7.6891-14.678 26.236-13.059 40.831-11.948 0.15103 0.0114 0.30394-0.0399 0.41857-0.13692 4.094-3.4804 8.7673-10.773 10.878-16.535 0.0923-0.2515 0.0114-0.49273-0.17509-0.64584-2.7742-2.2532-6.4296-4.6774-11.133-6.8461 5.275-3.0438 9.5359-5.0778 14.064-6.832 0.44252-0.17108 0.44482-0.48701 0.26746-0.82684-1.5551-3.0117 0.0986-6.5102 3.0841-7.0936 0.34786-0.0685 0.59952-0.33588 0.51723-0.70816-2.1084-8.9222-1.1044-23.433 2.738-32.559 0.14082-0.33418 0.0622-0.58544-0.2897-0.74636-10.089-4.6453-25.065-14.278-27.197-20.219 0.0113-14.73 1.7885-36.246 3.5206-56 2.6596-3.414 15.354-19.06 19.317-24.292 1.3218-1.7442 0.87719-2.044-1.0018-1.4324-11.862 3.8687-27.628 10.31-42.944 17.281-0.0986 0.04562-0.18704 0.11862-0.2492 0.211-4.5929 6.9648-16.09 16.764-34.703 29.974-0.12492 0.08835-0.20931 0.22526-0.23325 0.37638-1.6335 9.9624-1.9755 26.944-1.6597 50.325 1e-3 0.18705 0.0948 0.36042 0.24749 0.46705 5.8966 4.0759 13.56 9.9744 18.032 13.555 0.14714 0.11697 0.34387 0.16481 0.52124 0.10431 4.2449-1.4585 9.8799-3.1122 15.127-4.4138-1.8589 2.3759-4.9068 5.3312-8.4455 8.4515-0.22753 0.20129-0.27144 0.48301-0.0644 0.76045 1.8247 2.4624 4.947 6.7878 6.7375 9.6566 0.13287 0.21101 0.38607 0.32392 0.62164 0.25549 2.559-0.74033 4.9892-1.2433 7.4134-1.4444-1.7402 1.4545-4.0699 2.6938-6.5443 4.1081-0.22926 0.13059-0.32791 0.34616-0.27945 0.60958 0.46478 2.4202 0.72026 5.462 0.9536 7.6991 0.0229 0.23723 0.18706 0.46477 0.42429 0.49671 1.2272 0.1648 2.7019 0.61562 3.9431 1.2151-1.0059 0.62365-2.3337 1.1125-3.9491 1.5068-0.22526 0.057-0.38208 0.25379-0.4106 0.47904-1.8709 14.451-13.97 29.151-29.04 28.497-0.19504-0.0114-0.38037 0.0805-0.49272 0.23952-2.6234 3.6715-6.0756 7.9808-9.1697 11.202z"/>
   <path d="m165.76 171.32c3.076-2.4946 8.3711-6.6549 11.061-7.0875 3.1263-0.5047 14.899-3.3034 21.17-7.852 8.5018-6.1702 17.482-12.721 18.85-16.131 1.4062-3.5166 1.4062-22.329 0.0113-32.929-1.37-10.477 1.8167-20.237 5.6391-31.45 0.6035-1.7664-0.36442-2.1204-1.0824-0.39635-4.6855 11.266-7.6609 21.253-6.2546 31.99 1.3458 10.246 1.3599 28.781 0.0286 32.102-1.2413 3.1002-10.166 9.5178-18.148 15.306-6.0656 4.3958-17.408 7.1016-20.47 7.5965-2.9955 0.48073-8.6828 5.1421-12.047 7.8661z"/>
   <path d="m168.81 35.053c2.4584 7.3531 5.4056 20.915 6.5805 28.799 0.0171 0.1512 0.0986 0.28342 0.21728 0.37638 18.854 14.414 34.317 35.904 41.304 56.328l-0.0843-5.0858c-7.3894-19.585-21.613-38.184-39.693-52.065-1.2252-8.0975-4.3877-22.053-6.8622-29.306z"/>
   <path d="m193.95 27.853c-3.6856 9.9342-7.2485 21.802-9.3347 32.074-0.47904 2.3599 0.49898 2.6254 1.1165 0.29598 2.6676-10.103 6.6087-23.325 9.3126-32.004 0.55945-1.7965-0.44083-2.1305-1.0944-0.36611"/>
   <path d="m235.07-5.867c-16.352 8.4998-25.886 16.191-37.58 28.056-1.4867 1.5088-0.78058 2.2632 0.78864 0.84092 11.857-10.737 22.158-19.064 37.345-27.885 1.869-1.0843 1.364-2.0078-0.55315-1.0119"/>
   <path d="m37.655 156.05c0.83494 0 2.6838-1.372 2.547-1.885-0.18134-0.67801-4.6935-0.86911-4.9047-0.0456-0.15282 0.59149 1.4565 1.9333 2.3578 1.9333m-3.929-2.4041c0.23323-1.5672 7.6468-1.7281 7.8862 0.35015 0.19332 1.716-3.0217 3.243-3.9572 3.2329-1.2111-0.0113-4.2147-1.6959-3.929-3.583"/>
  </g>
  <path d="m45.048 183.46c1.4143-4.951-1.4143-8.3128-6.1017-8.0472-3.7138 4.6855-10.61 6.5424-18.215-0.97168 1.3258 9.2844 10.964 16.623 21.753 10.874-4.2549 14.722-32.541 20.516-38.111 3.0076-3.3617 20.074 18.569 30.507 36.43 24.671 7.2505 3.4503 21.045-3.0861 21.045-16.623 0-7.7816-7.2505-14.944-16.8-12.91" fill="#3eac80"/>
  <path d="m60.995 202.86c0.37638 6.7797 0.89323 17.251 0.0034 22.844-0.50298 3.1625-2.9231 4.5768-6.486 6.3572-3.3295 1.6658-8.8499 3.5368-14.73 5.2186 6.8341 1.9212 10.918 6.2546 9.737 15.893 8.7976-1.0502 17.442-0.87308 21.735-0.87308 7.2284 0 8.5742-3.5307 10.423-8.2403 4.102-10.445 9.4192-21.693 13.793-29.597 4.607-8.3288-25.898-18.665-34.476-11.602" fill="#faedab"/>
  <path d="m39.782 237.28c-6.4276 1.8408-13.286 3.4542-18.199 4.3173-4.0759 0.71419-8.6467 2.2874-10.427 6.6108-1.7785 4.3233 1.0179 8.5199 4.098 10.147 5.623 2.9755 10.779 2.3115 17.32-0.84092 4.8202-2.3277 10.918-3.6232 16.945-4.3415 1.1789-9.6405-2.905-13.972-9.737-15.893" fill="#9e6124"/>
  <g fill="#33976e">
   <path d="m4.8021 189.85c1.6517 16.911 28.861 29.879 50.22 12.332-5.5928 8.3932-15.449 14.95-32.802 11.316-16.4-3.4321-18.181-18.309-17.418-23.649"/>
   <path d="m51.209 207.39c3.3054-0.38038 8.6447-4.8324 10.552-11.063 0.63772 8.6467-5.975 18.945-21.488 16.911 3.1806-0.76246 8.0109-3.3054 10.936-5.8482"/>
   <path d="m20.949 174.46c3.4321 8.2644 15.764 12.841 24.411 8.3911-5.2126 6.486-21.488 6.993-24.411-8.3911"/>
  </g>
  <path d="m77.301 245.88c-1.4364 1.4365-4.1785 2.0561-7.0533 1.9595-5.116-0.17507-12.793 0.0113-20.581 0.90125 0.09071 1.3379 0.05126 2.8024-0.1465 4.432 1.5571-0.14878 9.8558-1.0079 19.943-0.76246 5.3574 0.13059 9.6364-1.4847 11.232-5.8764 1.0461-2.8749 2.3498-6.7918 3.919-10.972-3.919 6.5302-5.8765 8.882-7.3129 10.318" fill="#d9cd94"/>
  <path d="m49.667 248.74c-7.8581 0.89726-15.829 2.5107-21.391 5.1965-7.4819 3.6132-19.376-2.8326-14.706-8.8418-0.55943 0.40434-1.0159 0.84699-1.3982 1.3177-0.39235 0.5412-0.73832 1.1326-1.0119 1.7965-0.09637 0.23724-0.17679 0.47447-0.24921 0.71216-0.62364 2.5007 0.22354 5.2226 1.543 7.0614 0.80072 1.0119 1.7844 1.8348 2.8024 2.3719 4.7659 2.5228 9.2019 2.4222 14.425 0.41459 0.3319-0.15121 0.6659-0.30397 0.9978-0.48076 2.1446-1.1447 4.6513-2.0802 7.3793-2.8507 3.6052-1.0803 7.5462-1.7965 11.463-2.2653 0.19903-1.6276 0.23724-3.0921 0.1465-4.432" fill="#7e4a22"/>
  <g fill="#0d1319">
   <path d="m11.94 255.27 1.9534 1.1709c-2.9895-3.2732-0.38208-7.6609 2.9412-9.1637 1.1004-0.49899 0.83693-1.3318-0.35414-1.0984-3.3818 0.6639-5.7035 3.5226-5.5103 6.5444z"/>
   <path d="m60.427 204.41c0.51895 6.1098 0.28343 16.036-0.17507 20.392-0.29369 2.7883-1.1145 4.2388-2.7662 5.0214-13.165 6.2507-28.835 9.9342-35.44 10.98-14.467 2.2914-14.459 13.453-7.7876 17.945 3.8767 2.6114 10.749 3.8345 16.909 0.52523 9.4232-5.0597 21.731-6.0193 38.307-6.0193 5.1341 0 10.351-1.0441 12.374-6.6108 3.7299-10.258 7.1218-17.631 13.817-31.269 0.88518-1.8046 0.0114-2.2553-1.022-0.53491-7.6227 12.646-11.524 22.48-14.73 31.187-1.708 4.6291-5.0818 5.454-10.679 5.454-16.754 0-29.292 1.0602-38.926 6.2346-5.7376 3.082-11.634 2.1003-15.223-0.31764-5.6813-3.8285-5.468-13.067 7.1519-15.066 6.6591-1.0541 22.856-4.6291 36.138-10.934 2.0239-0.95766 3.3859-3.1907 3.7198-6.3714 0.46478-4.4159 0.68399-15.465-0.50298-23.771z"/>
   <path d="m20.503 259.46c-4.0376-0.66791-3.241-6.7395 1.1286-8.4555 1.2735-0.50128 0.98776-1.4123-0.34616-1.0984-5.0737 1.193-6.2205 6.7375-4.3214 9.4474z"/>
  </g>
  <path d="m58.116 231.13c-7.162-1.1488-15.37-6.6349-13.071-15.921-6.6308 6.2808-4.8786 19.331 9.9765 20.923 2.3317-0.93347 3.4482-2.7904 3.0941-5.0013" fill="#3eac80"/>
  <path d="m44.346 216.19c-3.8284 7.335 0.67395 15.913 11.481 19.643-10.341 0.84897-19.667-10.18-11.481-19.643" fill="#33976e"/>
  <path d="m44.806 214.59c-7.3672 5.5144-5.8382 21.363 10.487 22.037 1.9494 0.0787 2.0018-0.98377 0.07239-1.1528-13.061-1.1427-15.797-12.264-11.22-18.422-1.3801 7.2686 4.3676 14.219 14.785 14.666 1.7945 0.0764 1.8589-0.99381 0.06846-1.1528-7.7514-0.68197-15.909-6.4297-13.079-15.28 0.3701-1.1628 0.03423-1.5552-1.1145-0.69613" fill="#0d1319"/>
  <path d="m67.419 250.22c-0.61967-3.3617-3.3617-4.6875-5.8362-3.8023-5.4821 7.4276-3.9793 22.725 10.168 24.671-5.8362-4.3334-8.0472-14.149-4.3314-20.868" fill="#3eac80"/>
  <path d="m67.843 248.72c-7.2304 7.6549-6.2728 19.563 3.6152 21.902-4.2529-3.2953-8.6125-10.632-3.6152-21.902" fill="#33976e"/>
  <path d="m61.94 245.09c-4.0196 3.7982-5.2508 11.224-2.9573 17.231 2.1486 5.631 6.8582 9.1074 12.821 9.4333 1.3298 0.0742 1.4304-0.57941 0.4488-1.3077-6.1239-4.5305-7.4718-12.493-4.0437-20.504 0.7303-1.6979-0.19104-2.1426-1.0361-0.50469-3.42 6.6128-3.6574 15.048 2.6636 20.736-4.3495-0.94756-7.508-4.0517-9.22-8.544-2.0299-5.3192-1.3318-12.191 2.1466-15.73 1.1346-1.1568 0.47048-2.0319-0.82282-0.80877" fill="#0d1319"/>
  <path d="m55.835 260.48c-1.0602-2.6515-3.0076-4.3334-6.1903-3.6253-0.44253 5.2166-4.6855 9.0188-13.175 4.774 2.8286 7.4296 16.358 9.552 19.366-1.1487" fill="#3eac80"/>
  <path d="m55.934 259.25c-3.2953 4.5708-10.95 9.4655-18.712 3.0841 1.702 5.9549 16.374 9.6747 18.712-3.0841" fill="#33976e"/>
  <path d="m49.246 255.95c0.15283-1.2071 1.1648-1.1688 1.0844 0.17279-0.39005 6.5102-5.1723 10.121-12.336 6.822 5.2146 6.0535 15.811 5.969 17.436-3.5568 0.27372-1.5934 1.3117-1.4666 1.1447 0.1426-1.2473 12.095-16.672 11.332-20.649 2.5168-0.63574-1.4042-0.17109-1.6557 0.97168-1.02 5.633 3.1384 11.393 2.4302 12.348-5.0778" fill="#0d1319"/>
  <path d="m194.24 246.17c-2.2874-1.3338-4.257-0.95355-5.5284 1.018 0.31592 12.143 8.7452 16.636 18.563 14.113 4.448-1.1447 12.459-2.0983 16.338 1.4605-2.1627-3.3054-5.277-6.2285-13.35-5.6572-8.0753 0.57336-16.084-5.0858-16.022-10.934" fill="#3eac80"/>
  <path d="m188.73 245.96c2.4464 7.6549 7.7937 15.328 17.118 13.397 3.084-0.63775 12.016-1.702 15.736 1.8066-4.4661-1.3801-8.6044-1.205-12.014-0.42428-8.8237 2.0218-20.414 2.3376-20.84-14.779" fill="#33976e"/>
  <g fill="#0d1319">
   <path d="m193.65 245.89c1.201 9.381 9.7713 12.181 17.384 11.95 4.1604-0.12492 7.009 0.36042 9.4896 2.4745-3.3315-1.2333-7.5965-1.356-13.252 0.0963-9.8256 2.5228-17.708-2.3317-18.008-13.306-0.0513-1.9112-1.1347-1.9132-1.1528 0-0.11859 12.163 8.4234 17.8 19.446 14.972 7.3591-1.8891 11.996-1.3801 15.519 1.191 1.4827 1.0803 2.1506 0.39862 1.0462-1.0944-3.5227-4.7599-6.8059-6.1882-12.994-5.9991-7.1117 0.22125-14.662-2.1405-16.336-10.445-0.3644-1.8086-1.3761-1.6718-1.1427 0.16078"/>
   <path d="m39.873 161.4c0.55943 7.9888-0.32564 13.087-3.3275 15.459-4.5607 3.5971-10.976 1.6296-14.917-2.905-0.91733-1.0562-1.7402-0.93547-1.5249 0.55147 1.7804 12.461 15.255 18.647 25.729 8.9062 1.36-1.2634 0.63772-2.0782-0.76446-0.86304-9.5399 8.2744-20.092 2.382-23.003-5.9227 4.0135 4.0236 11.083 5.0476 15.497 1.7 3.6675-2.7823 4.939-8.3006 4.3415-16.813z"/>
   <path d="m4.9691 191.23c2.8849 5.9086 8.4858 9.1596 15.491 8.9786 10.872-0.27944 20.542-6.152 23.624-16.147l-2.3256 1.378c-2.7984 7.2042-12.21 12.457-21.361 12.692-4.3314 0.11061-11.274-0.99387-15.024-9.5983-0.65985-1.5129-1.5732-1.6658-1.7804 0.21099-1.4183 12.968 4.9853 21.494 16.338 25.26 13.161 4.3636 29.541 0.1688 35.184-10.66 0.89323-1.71 0.11859-2.1888-0.98173-0.60552-6.5263 9.4011-20.756 13.354-33.44 9.1516-9.9845-3.3094-15.724-10.572-15.724-20.661"/>
   <path d="m38.128 214.09c7.4416 1.9554 14.561-0.16481 18.991-3.9994 3.6715-3.1786 5.5726-7.9044 5.2307-13.557-0.11859-1.9294-1.0924-1.9112-1.1508 0.0229-0.15915 5.1623-1.9091 8.9082-5.3071 11.86-3.8083 3.3074-8.8961 4.941-14.585 4.2429z"/>
  </g>
 </g>
</svg>
