<?xml version="1.0" encoding="UTF-8"?>
<!-- Created with Inkscape (http://www.inkscape.org/) -->
<svg version="1.1" viewBox="0 0 161.03 173.94" xmlns="http://www.w3.org/2000/svg">
 <g transform="translate(-40.874 -68.678)" stroke-width="3.6008">
  <g>
   <path d="m137.3 131.83 6.4019-1.7363s4.5274-2.5055 7.1185-4.6073l3.0137-1.1904c7.5579-4.5919 19.65-10.28 29.194-11.419 6.9591-0.83128 10.542-4.6286 11.311-4.8484 0.7712-0.2207 1.8956-0.0405-0.0811 4.8286 1.2832 0.47625 7.5832 4.3176 7.1127 5.6847-0.92814 2.7018-14.166 4.7122-24.456 5.4872-14.063 0.65377-19.434 3.4203-28.774 8.8859 0 0 2.5087 5.3665 10.937 21.351 3.2432 8.3215 4.4642 18.901-0.79551 26.939-1.7156 2.799-3.5536 5.0478-3.5536 5.0478s-17.419 50.579-57.529 55.781c-26.411 1.6059-35.39-20.134-34.437-35.663 0 0 0.89529-12.641 8.106-22.476l-3.2028-3.9067 4.6893 0.21326-2.1552-4.0312 4.9924 0.86593c-4.1712-2.6619-8.787-12.628-4.3716-23.448 0.47023 0.0839 6.3611 0.72071 9.617 9.8121 3.1984-5.1643 7.1645-9.7105 14.448-9.26 1.4983 2.8935-0.03094 10.904-5.4161 15.855 4.1804 0.32821 9.4971 2.0177 11.309 5.5734-1.4069 2.107-11.535 9.3688-21.419 4.3868l2.469 3.6805-4.5427 0.0468 1.8703 3.7121-5.0105-1.2006s-16.664 26.34 3.1277 45.253c0 0 8.0708 7.366 16.594 7.7316 3.085 1.388 35.481-7.3684 42.823-51.635 0 0-3.1-0.54203-5.6928-2.6473 0 0-3.5607 4.0954-7.8676 5.2746 0 0-33.092 30.412-65.901 13.272-3.2093-1.6747-29.341-19.301-7.19-61.459l-2.7393-3.487 4.4135 0.12622-2.026-3.7164 4.4553 0.47849s-10.106-10.933-2.0774-24.399c1.8799-0.13281 8.1366 4.8958 9.4892 11.426 3.5523-5.5825 9.5758-10.281 16.58-9.2524-0.57733 5.487-2.0129 12.266-6.9242 17.128 1.2973-0.15114 6.5202 2.0092 10.743 7.2195-2.8763 3.7684-14.115 6.8038-23.636 1.3658l2.1696 4.3175-4.7004-0.91021 1.9069 3.5561-4.1736-0.38381s-18.496 26.798 0.17784 48.76c0 0 8.3938 9.4524 21.12 8.7621 0 0 21.157-1.2909 48.134-35.506 0 0 11.515-16.101 15.664-20.195 0 0 1.4918-6.6413 1.109-10.658z" fill="#c6e9fa"/>
   <path d="m64.595 131.98c1.6287-2.0964 1.6501-4.8729 0.92955-5.2079-0.72053-0.33501-3.0488-0.0249-4.7975 1.9305-1.9248 2.1491-1.1731 4.9755-0.99113 5.0782 0.375 0.21493 2.9927 0.60153 4.8593-1.8008" fill="#ef5b7e"/>
   <path d="m83.219 173.29c1.5306-2.0844 1.5885-5.0025 1.0037-5.3707-0.2378-0.14839-2.4778-0.08-4.3357 1.8375-1.327 1.3669-2.0941 4.6266-1.3359 5.2752 1.0889 0.93158 3.8014-0.56166 4.6679-1.7421" fill="#ef5b7e"/>
   <path d="m138.57 131.56c-2.6199 1.2549-20.856 10.548-22.528 16.737-1.364 5.046 11.463 26.297 19.407 30.144 0 0 1.0851 1.5325 0.26929-7.4576 0 0 3.4659-1.6682 3.9213-2.5298 0.43405-0.81909-1.898-1.9318-4.289-3.0004-1.4847-3.0836-9.064-13.717-9.7956-14.201 0 0 6.3903-10.175 14.938-15.908z" fill="#c6e9fa"/>
  </g>
  <g fill="#a4c2d1">
   <path d="m126.74 177.46c2.1408 2.0876 10.015 8.7324 20.634 5.3699 12.514-3.9607 14.408-12.857 14.408-12.857s-0.84932 9.8983-6.1014 14.93c-5.2494 5.0312-7.3085 6.9446-8.0719 8.3677-0.18928-0.17786-2.7028-1.6646-3.406-5.3422 0 0-12.744 0.69054-16.759-7.0817 0 0-0.88612-1.4978-1.192-3.199 0 0-0.0808-0.40511 0.0657-0.45308 0.0845-0.0742 0.42217 0.26551 0.42217 0.26551"/>
   <path d="m127.73 181.47s-3.6279 5.5847-7.9049 7.1112c0 0-0.28476 2.7073 1.5647 2.0692 1.8486-0.63963 7.6533-2.7854 9.4872-5.6868 0 0-2.3687-2.0269-3.1471-3.4935"/>
   <path d="m135.7 176.48c-11.809-7.7188-19.751-28.77-19.751-28.77 0.8605 9.4788 11.625 26.187 19.462 30.744z"/>
   <path d="m120.31 179.22c-17.783 14.218-33.297 20.685-44.86 24.037-14.632 2.5959-22.281-3.1682-22.281-3.1682s26.182 24.521 69.689-9.6866c0 0-1.9308 0.68322-2.538 0.1374-0.60846-0.54612-0.0114-11.32-0.0114-11.32"/>
   <path d="m143.79 187.91s9.0452-0.63179 10.92-1.6624c-8.0469 25.331-32.125 50.842-54.441 55.293-19.226 3.8215-28.576-8.758-28.576-8.758 3.4396 3.5928 16.906 7.9537 24.98 6.408 4.8737-0.93367 10.931-4.0744 16.354-7.9683 24.068-14.292 30.762-43.315 30.762-43.315"/>
   <path d="m62.758 210.84s1.7191 1.1519 4.8303 1.2409l0.03182-4.2535-4.7523-1.7121z"/>
  </g>
  <g>
   <path d="m64.243 129.23c-0.28858 0.3944-0.81057 0.50422-1.1662 0.24258-0.3573-0.25955-0.41092-0.79123-0.12232-1.1856 0.28756-0.39588 0.81057-0.50422 1.1662-0.24253 0.35585 0.26036 0.41116 0.78994 0.12237 1.1856" fill="#f6abb4"/>
   <path d="m82.903 170.59c-0.28882 0.39564-0.81205 0.50522-1.1662 0.24258-0.3573-0.25954-0.4124-0.79022-0.12384-1.1846 0.28904-0.39689 0.81205-0.50523 1.1677-0.24354 0.35585 0.26036 0.40968 0.79094 0.12236 1.1856" fill="#f6abb4"/>
   <path d="m59.912 130.15s-0.35248 4.0385 4.8655 1.2334c-0.19488 0.9327-3.4644 3.7517-5.0447 2.3303-0.62603-0.56243 0.04516-3.4472 0.17899-3.5636" fill="#c64a69"/>
   <path d="m83.478 172.9c-1.6329 1.6104-3.7115 2.9365-4.9234 2.1261-0.3092-0.20734-0.43972-2.814 0.01276-3.4535 0.20015 1.5254 0.52721 3.3912 4.9108 1.3275" fill="#c64a69"/>
   <path d="m87.819 73.865c-1.4507 2.8943 4.2513 13.445 11.203 25.564-3.6711 5.8078-13.39 27.598-9.2676 33.78 1.3246 1.9864 11.483 6.9165 13.441 6.9414-1.5324-0.73279-3.026-2.5682-0.0887-13.273 2.6034-9.4886 8.909-20.068 13.074-23.143 4.1653-3.075 8.8353-2.3492 13.343-0.74402l0.33974 15.591c-0.963 2.9085-1.7003 10.203 7.8036 12.153 10.224 2.0976 21.913-5.95 25.559-12.557 4.5121-8.1731 3.4037-13.113-1.3636-14.34l-2.7186-16.082s-11.404-14.674-37.666-17.587c-21.041-2.3317-32.528 1.4425-33.658 3.6961" fill="#00b8ee"/>
   <path d="m160.87 89.479 2.6376 3.959 9.3342 2.4118s-9.914-5.892-11.972-6.3707" fill="#00b8ee"/>
  </g>
  <g fill="#c6e9fa">
   <path d="m166.41 109.73c1.1324-10.532-2.9188-15.957-2.9188-15.957s7.4719 1.258 9.9117 2.5171c6.3482 3.2801 4.7604 7.4431-0.17622 10.578-0.59732 0.37859-6.8165 2.862-6.8165 2.862"/>
   <path d="m165.06 98.726s0.26428 6.2258-4.4844 6.9545c2.2916 1.3223 3.7301 2.5002 3.4743 10.656 2.7076-5.4897 2.0692-15.443 1.0101-17.611"/>
   <path d="m129.15 102.89c-3.4777-1.0384-10.247-5.0624-18.717 7.2661-6.5803 9.58-11.357 26.823-7.6046 29.95 3.1491 2.627 7.5258-1.4125 10.029-3.2853 1.109-0.82944 6.7474-5.8576 8.0376-5.6712 2.7679 1.2412 21.007 3.919 24.358-0.69672-3.1121 0.95003-18.871 1.7504-15.38-11.869z"/>
  </g>
  <path d="m118.48 102.87c-3.2921 3.1094-1.6402 15.486 8.214 16.254 7.1019 0.54327 10.534-3.1874 11.369-7.0561-2.2177-5.653-12.583-14.21-19.584-9.1982" fill="#fff"/>
  <path d="m159.7 88.921s-3.6102-2.0357-5.0419 1.1469c-1.431 3.1802-1.1094 10.213 1.5909 15.292 2.5868 1.0276 8.7997 0.95618 8.9662-6.1578-1.2229-5.5781-5.5152-10.281-5.5152-10.281" fill="#fff"/>
  <g>
   <path d="m122.15 103.62s-2.6818 2.3829-0.19785 8.1312c1.5296 3.54 5.012 6.7179 7.1329 5.3472 2.2055-1.4271 1.111-7.6881-0.4009-9.8232-2.0381-2.8789-5.074-4.4864-6.5341-3.6552" fill="#fcd13e"/>
   <path d="m159.64 95.44c-0.57704-1.3565-3.1365-4.9368-4.5188-4.3802-1.7006 0.68378-1.9264 3.4737-0.61266 8.0949 1.3548 4.7638 3.9114 5.2911 5.3103 4.5827 2.1402-1.0826 0.64699-6.3611-0.17881-8.2973" fill="#fcd13e"/>
   <path d="m132.95 82.898c-0.65565 0.94699-1.7315 7.7994 4.6692 12.657 6.4024 4.8562 9.3563 3.5612 9.3563 3.5612 0.67254-2.6245 1.3568-9.4054-2.8162-13.754-5.1318-5.8718-10.553-3.4125-11.209-2.4644" fill="#ef5b7e"/>
   <path d="m115.89 124.05c6.2786 4.9217 15.145 5.9269 21.156 6.5991 6.5065 0.64408 9.5127-0.84149 9.4573-0.46787-0.0723 0.50612-3.025 1.87-7.2734 2.6209-3.03 0.50655-4.2871 0.40284-10.135-0.0995-8.6409-1.0069-10.453-3.4383-13.597-8.0338 0 0-0.44905-0.67438-0.22065-0.84493 0.16249-0.11745 0.61348 0.22626 0.61348 0.22626" fill="#a4c2d1"/>
   <path d="m88.753 130.13c0.93781 0.95018 9.5263 5.6229 12.697 6.035 0 0 0.21525 3.1781 1.8812 3.7892 0 0-12.05-3.4293-13.319-6.0016-0.78704-1.5951-1.2588-3.8227-1.2588-3.8227" fill="#00a0cf"/>
   <path d="m141.07 84.727c0.96609 1.1782 0.99769 2.7525 0.0671 3.5156-0.92733 0.76626-2.4655 0.43087-3.4316-0.74741-0.96637-1.1769-0.99643-2.7523-0.0683-3.5158 0.92982-0.76578 2.4655-0.43088 3.4328 0.74765" fill="#f6abb4"/>
   <path d="m135.34 92.933s10.916 5.888 11.638-0.63173c0 0 1.4088 6.3022-0.34389 6.9076-1.7517 0.60663-7.9594-2.0679-11.294-6.2759" fill="#c64a69"/>
   <path d="m87.834 75.079c4.8076 8.7964 15.065 12.594 15.509 15.729 0.17496 1.2411-4.1027 9.2863-3.9529 9.0538-1.1065-1.0346-10.337-14.461-11.556-24.783" fill="#00a0cf"/>
   <path d="m201.16 117.78c-3.2275 2.6822-21.312 4.6987-24.677 4.7856-3.868 0.28998-7.0001-0.0254-13.034 1.4057-2.6469 0.66617-8.4992 2.6836-8.4992 2.6836s-9.4682 6.4321-18.594 3.5456l-0.38493 2.662-7.4514 4.1027s6.3342-3.3034 9.0847 0.77453l2.1195-1.8047-0.0519 2.9607c1.8549-3.0308 7.0952-5.4564 9.9825-2.7598l-1.5264-3.2094 7.0045-3.986c4.5861-2.2004 10.878-4.4793 17.198-4.42 11.91-1.3075 25.111-3.3974 26.026-3.8001 4.5175-1.9808 2.8039-2.9402 2.8039-2.9402" fill="#a4c2d1"/>
  </g>
  <g fill="#0f141b">
   <path d="m136.19 171.11c0.38325 7.175 0.0924 7.6079-0.29453 7.775-1.2652 0.54686-7.0453-4.4968-12.096-11.969-5.5422-8.196-9.0842-17.107-8.2483-19.018 1.4371-3.2851 10.103-10.709 19.993-15.145 0.29178-0.12981 1.2659 0.23801 0.9498 0.39372-9.074 4.4626-18.236 11.506-19.784 15.044-0.0913 0.21008-0.12691 0.61853-0.098 1.1934 0.15347 2.8556 3.2455 9.6922 7.944 16.641 3.5062 5.187 7.3885 9.594 9.944 11.304 0.74441 0.49881 0.93389 0.68287 0.90057-0.57479-0.0388-1.4437-0.17937-3.624-0.28368-5.5708-0.0309-0.57529-0.11809-0.74616 0.28871-0.88861 2.1665-0.75791 3.8575-1.9599 3.8198-2.1664-0.0196-0.22642-1.754-1.1587-2.8528-1.6316-1.0998-0.47448-1.3494-0.91604-1.9538-1.8172-2.4301-3.6406-7.3082-10.99-9.1585-13.116-0.11414-0.13214 0.22069-1.026 0.43086-0.81582 3.4939 3.4999 7.4773 9.7301 9.7826 13.627 0.36731 0.62232 0.5844 0.92444 1.2926 1.2829 2.613 1.3263 3.8294 2.4288 3.7393 2.7594-0.0993 0.36116-0.24621 0.75065-4.315 2.6928"/>
   <path d="m139.64 135.47c-9.6425 6.2506-14.373 15.503-14.492 15.739-1.198 2.1773-0.56393 2.4708 0.63799 0.44043 2.2598-3.7986 7.1511-10.289 14.369-15.522 1.5306-1.1088 1.0485-1.7197-0.51451-0.65731"/>
   <path d="m194.82 112.67c1.5166-5.3865 1.2228-6.4282-2.5102-4.189-1.1624 0.69745-3.6086 2.8996-5.8826 3.3028-8.7116 1.549-14.746 2.9425-22.819 6.7333-0.35219 0.55545-0.7421 1.1126-1.0865 1.6683 9.5079-4.5649 14.666-5.5392 24.162-7.5369 2.8056-0.59018 5.0628-2.6244 6.9645-3.6109 1.0482-0.5423 1.2024-0.50338 0.92851 0.57056-0.24417 0.95419-0.62536 2.2066-0.92298 3.2359-0.12375 0.425-0.18366 0.50139 0.36157 0.66521 2.3988 0.7154 4.8709 2.7624 6.1451 4.0805 0.72761 0.75293 0.91697 1.1247 0.076 1.7058-1.7336 1.195-6.2094 1.7839-11.505 2.6978-7.0663 1.2181-16.813 1.6106-22.733 2.6678-6.4214 1.1476-15.46 5.7904-18.174 7.9292-0.23341 0.18257 0.20912 1.0718 0.44389 0.88816 4.1444-3.2679 13.323-7.1062 17.399-7.762 4.9079-0.78862 16.933-1.7828 23.436-2.7774 7.5364-1.153 12.858-2.551 12.802-4.3267-0.0476-1.5386-4.4066-4.9538-7.0863-5.9422"/>
   <path d="m127.15 180.47c-0.19646 0.12626-9e-3 0.6154 0.29108 1.1963 2.0031 3.554 5.7613 6.1555 10.715 6.8001 5.9777 0.74999 12.031-1.2128 15.554-4.4448 0.52797-0.47485 1.0653-1.0915 0.85996-1.3072-0.20427-0.21414-0.70297 0.13566-1.2918 0.63747-3.1706 2.776-9.2505 4.4116-14.917 3.674-3.27-0.42599-7.452-1.6088-10.45-5.9092-0.21647-0.30452-0.56775-0.7698-0.76105-0.64681"/>
   <path d="m147.56 132.27c0.33664 2.0034 1.8942 4.9849 4.3189 9.4885 3.5972 6.6808 8.0726 14.994 8.9248 21.311 0.12659 0.94317 0.21446 1.8724 0.26494 2.7879 0.48151 8.986-2.7782 16.672-9.5174 22.361-1.616 1.3562-2.5634 2.4731-3.2186 3.3309-0.79532 1.0403-1.0217 1.3742-1.6994 0.35021-0.79536-1.2047-1.7527-3.3037-1.9306-4.5896-0.0403-0.29387-1.5324-0.0781-1.491 0.21587 0.22207 1.606 2.6991 6.2275 4.3798 6.1946 0.75056-0.0139 3.0944-3.3642 4.6531-4.6794 7.7212-6.5166 11.494-15.181 10.068-25.748-0.87739-6.514-5.7298-15.019-9.3676-21.776-2.2319-4.1029-3.8183-7.0563-4.5428-8.9612-0.72271-1.9074-1.1265-1.9002-0.84258-0.28602"/>
   <path d="m131.64 185.12c0.17601-0.24027-1.1693-0.95102-1.3451-0.71078-2.6394 3.6008-8.6641 6.2552-9.6498 5.8186-0.72665-0.32336-0.50752-12.226 1.947-17.992 0.92584-2.1083 0.0134-1.7869-0.77949-0.35781-3.3318 5.9666-3.4473 17.839-1.7661 19.35 1.091 0.98112 8.9545-2.5099 11.593-6.1072"/>
   <path d="m51.393 111.19c-3.9592 6.0263-4.0384 16.492 1.877 23.642-1.3716-0.18015-2.9698-0.40565-3.5975-0.47806-0.91647-0.10484-1.0308-0.0558-0.54971 0.79413 0 0 1.5225 2.0933 2.1626 3.1178-1.2-0.0241-3.7716-0.17397-3.7716-0.17397-0.86695 0.0471-0.85776 0.20655-0.45553 0.7955 0 0 2.0725 2.808 2.4121 3.2658-11.813 20.195-11.289 43.98 0.57694 56.107 13.427 13.723 43.365 18.084 75.415-8.6902 0.23142-0.18552-2.2131 0.27664-2.4489 0.4587-31.814 24.655-58.843 20.863-71.942 7.4776-5.0108-5.12-8.5157-13.02-9.0348-22.694-0.50295-9.3966 1.8135-20.47 8.3095-32.294 0.32351-0.58819 0.25347-0.63411-0.12945-1.0822-0.46094-0.53952-1.5275-1.7941-2.0856-2.5466 1.2475 0.0256 3.7571 0.31484 3.7571 0.31484 0.9304 0.0665 0.9127-0.0961 0.46732-0.82303 0 0-1.1063-1.7772-1.7783-2.8571 1.3083 0.17297 3.5677 0.42569 3.5677 0.42569 0.96887 0.12823 1.2912 0.0406 0.50356-0.84315-4.9031-5.4769-6.9901-16.447-2.3344-23.612 5.4548 3.0011 7.7062 7.5917 8.5111 10.157 0.5732 1.8241 0.60902 1.9799 1.8903 0.10087 4.2212-6.1902 10.61-8.8115 14.77-8.2622 0.15076 4.8141-2.05 11.014-5.8471 15.528-0.99105 1.1822-1.6743 1.5972-0.03476 1.7698 4.0282 0.86804 6.9272 3.1348 9.7806 6.662-4.9709 4.97-15.477 5.2268-22.791 0.96283-0.81886-0.48867-1.2358-0.55364-0.61707 0.65425 0 0 1.3788 2.5417 1.9368 3.7159-1.2354-0.23517-3.9403-0.99995-3.9403-0.99995-0.97489-0.21079-0.95005-0.0919-0.50993 0.7423 0 0 1.0836 1.9281 1.5753 2.9368-1.1504-0.14647-3.5138-0.6236-3.5138-0.6236-0.20852-0.0257-0.41364 0.0714-0.52438 0.2491-17.253 27.601-6.0318 59.493 23.284 58.282 0.29741-0.0125 1.0492-0.87463 0.75357-0.86462-16.85 0.69521-29.968-10.149-30.959-28.658-0.48091-8.9756 2.005-18.826 7.6593-27.987 0.59216 0.0758 3.8168 0.50878 3.8168 0.50878 1.0227 0.13091 0.92855 0.0893 0.5545-0.70522 0 0-1.1493-1.8425-1.6534-2.8743 1.2416 0.23637 3.8497 0.90722 3.8497 0.90722 0.90715 0.14633 1.0402 0.1943 0.5848-0.76143 0 0-0.82071-1.722-1.4395-3.0231 8.6073 4.1071 17.822 2.8043 22.183-1.4131 0.92801-0.8968 0.99566-0.87208 0.28611-1.8052-2.2689-2.9832-6.8773-6.6276-9.8859-6.7848 3.7199-3.0732 6.3147-9.8504 6.51-15.684 0.0534-1.5721-0.04189-1.6345-1.9998-1.6669-4.9608-0.086-12.008 3.4117-14.782 8.8772-0.97576-5.1976-4.9871-8.5246-8.6065-10.513-1.1076-0.60785-1.1799-0.62185-1.762 0.26564"/>
   <path d="m139.27 136.06c-0.0665 1.0119-0.53142 10.181-1.3889 11.188-2.3102 2.7692-5.7427 6.6848-7.8024 9.442-0.17821 0.23838 0.70104 1.0169 0.88448 0.7846 2.2918-2.8945 5.6773-7.0081 7.8481-9.5586 1.2492-1.466 1.3995-10.408 1.486-12.163 0.0238-0.15971-1.0102 0.0116-1.0273 0.30699"/>
   <path d="m136.04 187.22c-1.8076 18.502-12.645 37.163-27.302 46.204-9.5603 5.8979-16.158 7.1525-27.931 3.5669-0.43022-0.16368-1.7918-0.61617-1.9086-0.34026-0.1162 0.27238 0.77937 0.706 1.3257 0.95153 10.833 4.432 19.117 3.1766 28.99-2.913 14.772-9.1106 27.018-29.329 28.148-47.251 0.0177-0.29806-1.2929-0.51297-1.3218-0.21704"/>
   <path d="m61.148 128.92c1.5511-1.8294 3.6083-2.1297 4.1565-1.7324 0.58659 0.42535 0.59324 2.6561-1.1647 4.6045-1.6295 1.8064-3.4564 2.2135-4.0223 1.7287-0.56825-0.48657-0.61469-2.659 1.0307-4.6008m4.6723-2.3921c-0.79125-0.69145-3.8826-0.0285-5.5522 1.9448-1.7912 2.1206-1.4749 4.9908-0.76084 5.6998 0.66626 0.66208 3.5796 0.29724 5.4154-1.8807 1.1758-1.3948 2.0774-4.7344 0.89749-5.7639"/>
   <path d="m79.778 170.57c1.1282-1.6499 3.3221-2.616 4.0816-2.1015 0.75825 0.5143 0.01302 3.3537-1.1081 4.6866-1.2874 1.5298-3.3119 2.1289-3.8452 1.6957-0.53384-0.43054-0.24216-2.6515 0.87166-4.2809m4.4502-2.7831c-0.7311-0.47423-3.6198-0.0696-5.2213 2.221-1.3386 1.9146-1.4255 4.682-0.44778 5.4461 0.73067 0.56978 3.5252 0.16381 5.137-2.1326 1.3428-1.9163 1.6694-4.7991 0.53213-5.5343"/>
   <path d="m61.541 203.02c12.59 2.1546 24.965-2.3867 40.103-14.278 8.6742-6.8147 15.033-14.08 21.74-22.69 0.18266-0.23494 1.2832 0.35595 1.0995 0.58942-6.7585 8.6763-13.164 15.995-21.923 22.876-15.605 12.258-28.407 16.988-41.131 14.192-1.4825-0.35563-1.2772-0.68079-1.2772-0.68079s0.10252-0.26219 1.3899-8e-3"/>
   <path d="m68.493 202.31c0.78288-4.6308 2.5017-9.8252 5.5836-15.571 0.6954 0.16399 4.7564 1.049 4.7564 1.049 0.7259 0.17358 1.1064 0.16618 0.61075-0.75512-0.24948-0.46236-1.1053-2.0164-1.575-3.0054 1.1562 0.0427 3.2017 0.18397 3.9043 0.21781 0.701 0.0349 0.9757-0.10082 0.46245-0.84465 0 0-1.1461-1.3114-1.8795-2.3746 6.6979 2.3282 14.893 0.63385 20.008-4.2719 1.1866-1.1366 1.0726-1.2026-0.20815-2.7873-2.5196-3.1119-7.0722-4.2652-9.8422-4.1185 4.2978-3.8258 5.525-8.8143 5.4495-13.435-0.04333-2.723-0.19589-2.7034-2.7179-2.5086-6.1831 0.47958-10.037 4.2633-12.442 8.6313-1.1664-3.6987-4.5916-8.0005-8.8402-9.113-1.219-0.32008-1.3329-0.23976-1.7054 0.74888-3.177 7.8804-1.8166 17.279 3.5564 22.106-1.4008-0.25658-3.2313-0.46544-3.2313-0.46544-0.8606-0.15952-1.0434-0.13748-0.57095 0.78351 0 0 1.077 2.0291 1.6211 3.0544-1.1837-0.048-3.6337-0.14469-3.6337-0.14469-0.92668-0.0254-1.0678 0.0753-0.44435 0.87146 0 0 2.4069 3.072 2.7927 3.5659-3.3705 5.325-5.7001 10.954-6.9292 16.574l1.0241 0.54491c1.1448-5.6448 3.4562-11.32 6.9009-16.707 0.2786-0.43643 0.31893-0.52439-0.13778-1.0191-0.54123-0.58613-1.9665-2.1392-2.6347-2.9919 1.2918 0.051 3.9591 0.35524 3.9591 0.35524 0.81061 0.0301 0.90303 0.074 0.49131-0.72648 0 0-1.3709-2.1416-1.9518-3.2375 1.316 0.24016 4.1754 0.76088 4.1754 0.76088 1.2229 0.18619 1.3875-0.0288 0.42471-0.70316-5.5191-3.8454-7.8292-14.072-4.4081-22.673 4.2635 1.1814 6.5411 4.2879 8.4194 8.4183 0.70383 1.5505 0.85444 1.9821 1.6286 0.864 3.5691-5.1611 7.0046-8.6235 13.644-8.7751 0.40951 6.6651-1.8033 11.264-4.9973 14.347-1.3003 1.2556-1.2897 1.6018 0.6014 1.7118 4.3812 0.2532 7.9789 1.7611 9.9939 4.7443-5.0786 5.6606-15.407 6.9263-20.956 4.052-0.79896-0.45106-1.277-0.43471-0.57292 0.58648 0 0 1.7494 2.2848 2.4744 3.3387-1.3352-0.0942-4.091-0.40921-4.091-0.40921-0.823-0.0597-0.89216-3e-3 -0.50726 0.76867 0 0 1.2355 2.039 1.7478 3.1151-1.3348-0.31673-4.3723-1.328-4.3723-1.328-0.23614-0.0567-0.47979 0.0515-0.59504 0.26647-3.2652 5.9704-5.1349 11.356-6.0313 16.152z"/>
   <path d="m67.971 207.67c-0.14422 6.3976 1.4965 11.462 3.3794 15.156 4.4484 8.7269 13.758 14.894 23.557 16.134 0.29402 0.0386-0.58416 1.0656-0.87858 1.0293-10.148-1.2857-19.314-7.6979-23.92-16.738-1.9714-3.8714-3.5888-9.1429-3.2995-15.815z"/>
   <path d="m63.517 206.22c-1.4333 18.687 11.331 34.142 27.278 35.24 11.142 0.76669 23.414-3.9757 34.558-13.354 11.939-10.049 22.002-24.734 29.103-42.474 0.11029-0.27609 1.8837-0.89421 1.7735-0.61923-7.1659 17.902-16.245 32.569-29.749 44.018-11.358 9.5594-24.339 14.29-35.759 13.503-18.166-1.2509-30.086-18.465-28.334-36.755z"/>
   <path d="m159.68 89.211c4.2019 1.6547 13.581 7.5338 15.973 9.4215 1.8182 1.4351 4.1159 5.9132-9.2481 10.307-0.20455 0.21529-0.5309 1.5521-0.24858 1.454 13.441-4.6002 13.395-9.8094 9.7364-12.776-2.4574-1.9897-12.32-8.4617-16.71-10.192-0.2763-0.10925 0.2225 1.6772 0.49797 1.7849"/>
   <path d="m162.59 93.847c0.077 0.01755 7.4615 1.3246 12.504 4.0478 0.26131 0.1412-0.59846-1.4331-0.86827-1.5565-4.1277-1.9108-11.356-3.872-11.675-3.9456-0.28923-0.06334-0.25041 1.3878 0.0393 1.4542"/>
   <path d="m97.35 117.74c-4.1289 10.785-4.3909 18.606-0.98806 20.484 0.25699 0.14948 0.79141-0.78612 0.53268-0.93327-2.548-1.8093-2.2612-8.6217 1.3629-19.038 1.8494-5.3144 1.1047-5.7652-0.9075-0.51207"/>
   <path d="m118.8 102.93c-4.5163 2.3214-2.8393 15.304 7.0756 16.515 6.5979 0.80669 12.681-2.8196 12.238-7.8793-0.0265-0.29123-0.76275-0.67822-0.69473-0.39458 0.80553 3.3571-3.7367 7.9106-11.237 7.2628-8.2298-0.71125-11.785-13.532-5.4092-15.993 0.27245-0.1039-1.7121 0.35553-1.9721 0.4889"/>
   <path d="m92.618 135.06c-2.5671-1.4365-3.381-4.3694-3.1335-8.1605 0.43184-6.5865 4.0157-15.973 9.9665-26.771 2.6833-4.7025 1.5233-5.1538-1.2608-0.48476-5.7121 9.3924-9.6109 19.812-10.045 27.271-0.28118 4.8196 0.80254 7.5888 4.3036 9.4804 2.3791 1.2849 7.6936 3.7076 10.777 4.6035-0.24761-0.48528-0.61523-0.91877-0.82227-1.4065-2.6413-0.85955-7.8147-3.4309-9.7853-4.5318"/>
   <path d="m139.04 132.34c-7.1973 0.45136-13.702-0.68005-16.841-1.5921-1.8069-0.52449-1.9804-0.55039-3.5064 0.74167-2.5416 2.1538-5.6057 4.4601-8.816 6.7059-4.6921 3.2822-7.4645 2.6059-7.6165-0.71924-0.43612-9.4742 6.1911-23.719 10.716-29.536 8.6544-11.122 20.778-4.1125 24.884 4.7179 0.88684 1.9081 1.5519 1.6009 0.7287-0.48904-3.6298-9.2117-17.454-16.983-26.65-5.0261-6.3774 8.8315-11.225 21.313-10.779 30.091 0.24893 4.8951 4.462 5.2077 9.3581 1.8268 3.1352-2.1657 6.7312-4.9669 8.7899-6.6035 1.2835-1.0221 1.4481-0.83623 2.914-0.42167 3.426 0.97006 10.291 1.8142 16.549 1.1823 2.9944-0.30253 3.3042-1.0668 0.2679-0.87584"/>
   <path d="m112.73 106.75c-1.8669 4.035-1.5009 11.011 0.62635 14.833 1.3365 2.3989 1.8468 1.6347 0.77884-0.5608-1.1704-2.4017-2.5934-8.6578 0.24574-15.087 0.1209-0.27037-1.5261 0.54424-1.651 0.81505"/>
   <path d="m122.31 111.5c-1.5046-3.6891-1.3137-6.8068 0.18029-7.5525 1.4542-0.72764 4.4312 0.71688 6.4104 5.1633 1.6532 3.7102 1.3753 7.0296-2e-3 7.7254-1.9476 0.98401-4.8364-1.0374-6.589-5.3361m-0.28148-8.1415c-1.872 0.93396-2.2309 4.6918-0.68858 8.4737 2.0985 5.1458 5.9478 6.6754 7.9945 5.6692 1.8003-0.88443 2.1927-4.8753 0.38334-8.9352-1.5815-3.5526-5.0686-6.5128-7.6892-5.2077"/>
   <path d="m126.38 112.1c-0.52395 0.19343-1.0824-0.43077-1.4401-1.3295-0.29992-0.76323-0.4537-1.713 0.0326-1.9125 0.32024-0.13091 0.92993 0.16907 1.4083 1.3402 0.42411 1.0706 0.3447 1.7746-8.3e-4 1.9018"/>
   <path d="m154.66 98.655c-0.88114-2.7662-0.58402-6.8063 0.29506-7.1096 1.6629-0.57592 3.6216 2.2993 4.6895 5.4095 1.4721 4.445 0.83205 6.4274-0.31119 6.7922-1.1236 0.35689-3.1603-0.34424-4.6733-5.092m4.9102 5.6734c2.1102-0.67438 2.1735-3.9745 0.95167-7.654-1.2158-3.5504-3.8201-6.6323-5.8991-5.785-1.1645 0.47452-1.2557 6.617-0.75943 8.178 1.4163 4.4459 3.9404 5.8234 5.7068 5.261"/>
   <path d="m157.41 99.408c-0.3765 0.16769-0.87389-0.35812-1.2002-1.2455-0.1998-0.5459-0.43146-1.5806 0.0855-1.7652 0.35372-0.12956 0.8583 0.41855 1.1192 1.2764 0.29612 0.79612 0.3323 1.5847-5e-3 1.7342"/>
   <path d="m163.77 96.311c1.4012 3.6756 0.70888 5.8006-0.48794 7.344-1.4707 1.8954-5.6692 2.5548-6.9966 1.0647-0.23294-0.26113-0.45813 0.45474-0.16513 0.64604 2.2106 1.4334 5.9911 0.94779 7.7877-0.98659 1.4429-1.5514 2.0162-4.5185 0.60306-8.3594-0.12042-0.32736-0.86648-0.03575-0.74088 0.29126"/>
   <path d="m157.22 84.847c-11.46-11.826-36.45-17.235-52.018-15.995-7.9969 0.63683-15.944 2.0533-17.86 4.8547-2.1685 3.1733 5.6265 16.227 11.358 26.558 0.18568-0.59805 0.64952-1.0556 1.0905-1.4554-7.4267-13.003-12.63-22.408-11.308-24.343 1.7072-2.4953 8.8075-3.8078 16.365-4.4107 15.319-1.2192 40.347 3.8732 51.427 15.581 12.181 12.872 11.438 28.317 3.1944 36.804-7.8247 8.0532-19.091 9.7336-25.401 6.3833-3.852-2.045-5.3029-6.3576-3.593-10.144-0.40294 0.0228-0.83058 0.0464-1.1914 0.0656-1.6294 4.1316-0.087 8.8283 4.0993 11.051 6.5739 3.4895 18.537 1.6164 26.702-6.6151 9.7592-9.8381 8.6148-26.487-2.8661-38.333"/>
   <path d="m134.97 82.519c2.3182-0.52539 4.6509 0.02339 6.7384 1.6438 3.949 3.0666 5.5812 8.3964 5.2055 12.874-0.14286 1.7075-0.35442 1.7545-1.6631 1.4855-3.5374-0.72242-6.9064-2.8616-9.2884-5.9894-1.7691-2.3236-2.7696-4.8672-2.8982-7.2637-0.10977-2.0656 0.17469-2.3586 1.9055-2.7506m-1.0009-0.59103c-1.6269 0.51691-1.7825 0.74558-1.9049 2.1995-0.57109 6.7444 5.2466 13.872 12.939 15.314 2.5114 0.468 2.4907 0.38145 2.7603-1.8527 1.2516-10.386-6.1681-18.08-13.795-15.661"/>
   <path d="m160.63 105.5c-0.29539-0.0315-0.67855 0.38359-0.3901 0.45753 3.4498 0.8672 5.6538 9.9246 0.15953 15.974-0.20054 0.2212 2.9126-3.4148 3.0313-3.6867 2.741-6.2234 0.51382-12.402-2.8007-12.745"/>
   <path d="m148.69 119.98c-1.2612 1.8558-4.7786 2.3275-6.3281 0.95351-1.0567-0.95769-1.205-0.19188-0.44423 0.58939 1.727 1.7991 5.9579 1.5055 7.4366-1.0261 0.68187-1.2628 0.24659-1.9552-0.6646-0.51685"/>
   <path d="m155.87 87.85c-3.8882 1.7106-3.1944 12.821 0.29237 17.874 0.93376 1.3518 1.5608 0.98026 0.59552-0.3492-1.8889-2.6003-4.3283-13.569-0.66313-16.327 0.98453-0.74095 2.3014-0.46526 4.1557 1.1903 0.26046 0.23272-0.46316-1.4302-0.75235-1.6272-1.4375-0.97575-2.6752-1.1792-3.6282-0.76091"/>
  </g>
  <path d="m125.94 105.82c0.5362 0.99275 0.48242 2.139-0.12624 2.4702-0.67664 0.36708-1.6392-0.28809-2.136-1.2042-0.63776-1.1767-0.64664-2.3468-0.016-2.6905 0.57554-0.31295 1.613 0.19608 2.2783 1.4245" fill="#fff"/>
  <path d="m157.4 93.575c0.4757 0.95774 0.47383 2.0365-0.11299 2.3278-0.65443 0.32616-1.5429-0.32445-1.9818-1.2118-0.56402-1.1366-0.53193-2.2444 0.0781-2.5481 0.55434-0.27692 1.4297 0.24751 2.0167 1.4321" fill="#fff"/>
 </g>
</svg>
