<?xml version="1.0" encoding="UTF-8"?>
<!-- Created with Inkscape (http://www.inkscape.org/) -->
<svg version="1.1" viewBox="0 0 426.89 296.45" xmlns="http://www.w3.org/2000/svg">
 <g transform="translate(93.328 1.7851)">
  <path d="m84.356 201.4c-10.536-11.308 10.113-40.845 10.113-40.845 9.9089-24.219 87.868-137.53 203.74-158.72 13.333-2.4329 21.29-0.5535 25.996 5.7849 6.193 8.35 14.674 40.597-17.617 71.227-32.291 30.644-37.217 43.541-38.557 55.766-3.3499 30.426-1.6027 52.517-49.675 72.451 0 0-123.47 5.6395-134-5.6684" fill="#cea6cc"/>
  <path d="m141.13 138.85c-1.4705-12.677-3.5688-23.169 4.5903-34.215-10.346 10.055-29.479 35.57-36.313 31.213-10.229 12.896-13.493 23.388-20.998 34.798-5.1 9.6462-10.608 23.723-4.0521 30.746 5.2025 5.5953 37.989 7.0381 69.829 7.0819 0.0827-0.49567 25.267-1.5738 37.391-6.9216-11.249-5.2314-48.16-43.118-50.447-62.703" fill="#b390b1"/>
  <path d="m110.01 195.72c39.46-11.614 93.434 0.16522 111.52 11.687 18.084 11.512 13.916 21.216-10.608 42.054 12.838 6.4702 15.402 16.976 9.7193 20.153-8.5974 4.8084-16.437 3.2921-19.847-13.464-12.911 5.4644-33.486 11.235-61.435-21.61z" fill="#cea6cc"/>
  <path d="m157.41 201.58c-2.0818-7.6941 6.6449-7.7085 15.971-8.7432-20.59-2.8873-43.759-2.8873-63.358 2.8873l29.333 38.805c3.321 3.9034 6.5284 7.2422 9.6466 10.127 8.6119-12.386 13.799-23.242 8.4078-43.074" fill="#b390b1"/>
  <path d="m72.444 202.09c1.2392-9.6904-37.421-52.648-37.421-52.648-17.398-20.998-76.181-61.741-94.396-69.988-17.836-8.0728-24.189-4.8671-28.022 2.4618-3.4387 6.6011-8.0874 32.16 8.1311 45.085 18.637 14.849 41.166 34.783 47.227 48.364 6.0476 13.596 13.654 36.794 28.124 45.464 13.96 8.3789 29.26 9.6466 49.807 6.5284 0 0 25.311-15.577 26.55-25.268" fill="#cea6cc"/>
  <path d="m46.311 159.56c-10.405-2.974-21.173-9.9382-31.257-18.288 15.971 25.122 9.0489 56.684 9.6317 64.247 0.58241 7.5627 5.6102 17.836 14.514 22.717 2.1727-0.24783 4.4007-0.52459 6.7031-0.87569 0 0 25.311-15.577 26.535-25.268 0.81785-6.3384-14.79-29.056-26.127-42.535" fill="#b390b1"/>
  <path d="m81.182 218c-10.827-10.331-21.741-1.5861-21.741-1.5861-6.7903 4.1818-31.082 23.825-32.276 32.014-1.1937 8.2038 5.6684 20.007 27.614 25.501-0.20653 2.7262-8.3934 11.497-4.8819 16.189 3.3086 4.4441 11.352 4.998 14.514 0.65678 2.8997-4.0067 1.6027-10.506 2.0405-14.747 8.4665 0.58242 19.191 1.8505 21.071-19.949 0 0 4.4879-27.745-6.3388-38.076" fill="#cea6cc"/>
  <path d="m87.495 256.32c0-0.0825 0.0149-0.16522 0.0294-0.24783 0 0 4.4734-27.745-6.3388-38.076-10.827-10.317-21.756-1.5903-21.756-1.5903-1.9951 1.2392-5.5082 3.8167-9.5152 7.0385 4.7502 16.772 27.993 39.14 37.581 32.874" fill="#b390b1"/>
  <path d="m77.899 222.29c0.52458 6.7176 1.2103 20.634 6.2219 28.838 5.4648 8.9473 18.9 15.169 35.978 18.288 17.093 3.1021 17.953-16.583 18.914-26.317 0.917-9.1076 2.3462-34.681-29.843-47.242-32.204-12.576-31.271 26.433-31.271 26.433" fill="#e5e3da"/>
  <path d="m109.17 195.85c-32.204-12.576-31.271 26.433-31.271 26.433 0.08255 0.9459 0.16522 2.057 0.24784 3.2508 24.612-9.9522 54.018-0.33045 57.428 35.614 2.4908-5.7704 2.9575-13.158 3.4366-18.054 0.917-9.1075 2.3627-34.666-29.843-47.242" fill="#c1bfb8"/>
  <path d="m45.93 209.97c0.33045 8.6994 6.6445 13.144 7.2277 12.401 1.1359-1.4003-0.04135-5.7415-0.04135-5.7415z" fill="#e5e3da"/>
  <path d="m43.661 203.82c2.6973 12.168 13.333 14.776 14.208 12.998 0.58241-1.2103-6.1641-8.1749-6.1641-8.1749z" fill="#c1bfb8"/>
  <path d="m56.774 164.8-8.2038 12.896c-9.2823 13.858 3.891 33.909 11.483 38.936 23.33 15.475 47.329-1.2226 49.282-15.038 1.4416-10.215-4.1673-28.78-15.606-36.211z" fill="#beaaac"/>
  <path d="m93.73 165.38-36.954-0.58241-8.2038 12.896c-0.41307 0.61132-1.0946 1.8505-1.7638 3.5564 5.3186 6.6449 15.723 19.672 18.623 17.821 20.007-12.692 28.75 1.6192 34.637 15.329 0.12389 0.33044 0.28914 0.7146 0.41306 1.0616 5.1732-3.8167 8.4516-9.4715 8.6995-14.455 0.55349-11.031-3.9943-28.197-15.432-35.628" fill="#968587"/>
  <path d="m47.252 179.42c-2.9575 2.6064-7.4024 9.4426-5.6829 18.244 1.7349 8.8015 4.9836 14.237 15.607 16.321-5.1442-3.9654-11.964-14.674-11.949-25.253z" fill="#e5e3da"/>
  <path d="m47.571 200.12c0.46676 3.1764 0.62785 6.5429-0.20653 9.5152 2.2883 2.024 5.4061 3.4821 9.8213 4.3425-3.2508-2.5073-7.1546-7.7085-9.6028-13.858" fill="#c1bfb8"/>
  <path d="m98.746 198.79c0.20652-1.4003 1.5283-3.383 2.7386-0.93351 1.1938 2.4494 3.1186 13.916 0.65676 18.2-2.9575 5.1583-8.6701 8.6119-9.0927 8.0584-0.42132-0.57003 4.9687-8.452 4.9542-15.869z" fill="#e5e3da"/>
  <path d="m101.48 197.86c-1.2103-2.4494-2.5197-0.45023-2.7386 0.93352l-0.7435 9.457c0 2.0529-0.24785 3.9199-0.64026 5.6102 3.0154-0.94591 2.5651 4.2838 0.62787 6.9654 1.3837-1.297 2.7675-2.9575 3.9034-4.9546 2.4618-4.2694 0.80133-15.563-0.41307-18.011" fill="#c1bfb8"/>
  <path d="m94.89 192.29c0.20653-1.677 3.8043-1.9248 4.2549 2.7675 0.46676 4.6924 1.487 13.348-2.3462 17.282-3.8456 3.9323-11.993 7.0237-12.488 6.1786-0.12389-0.20653 5.0269-6.9803 5.9307-8.0001z" fill="#e5e3da"/>
  <path d="m99.148 195.05c-0.45024-4.6924-4.0521-4.4445-4.2549-2.7675l-3.2054 12.561c5.2454-0.61134 5.3186 5.421 0.99134 10.521 1.3714-0.84678 2.6973-1.834 3.8745-3.0442 3.8456-3.9365 3.0442-12.576 2.594-17.268" fill="#c1bfb8"/>
  <path d="m90.507 187.89c-0.16522-2.2718 3.2921-2.4908 4.2405 0.80133 0.96244 3.2797 1.7348 14.79-0.7559 18.2-6.8341 9.3843-15.956 8.7577-16.044 8.2187-0.16522-1.1814 6.8634-4.4297 10.463-12.4 2.1562-4.7361 2.3297-11.774 2.0983-14.82" fill="#e5e3da"/>
  <path d="m94.752 188.68c-0.96243-3.2921-4.4156-3.0732-4.2405-0.80133 0.0825 1.1235 0.0825 2.7551-0.0149 4.6192 3.7754 1.7183 4.8671 8.8453 2.9286 15.125 0.20653-0.24783 0.41306-0.49568 0.57002-0.72698 2.4784-3.4077 1.7183-14.922 0.7559-18.215" fill="#c1bfb8"/>
  <path d="m49.328 182.94c-2.8253 4.6192-2.9286 10.827 1.3714 14.455 0.08255-6.1203 1.3838-7.621 2.7097-9.3405z" fill="#fff"/>
  <path d="m53.407 188.06-4.081-5.1145c-0.49566 0.81786-1.1235 2.1438-1.5159 3.7588 1.5572 1.6192 2.3751 4.2987 3.0732 8.2918-0.08269-3.4078 1.487-5.5957 2.5197-6.9365" fill="#dcdddd"/>
  <path d="m56.562 161.87c0.28913 8.1018-5.6395 14.921-13.275 15.213-7.6499 0.28914-14.105-6.0476-14.411-14.149-0.33045-8.1022 5.6246-14.922 13.275-15.213 7.6503-0.28915 14.106 6.0472 14.412 14.149" fill="#afcee5"/>
  <path d="m42.152 147.72c-7.6503 0.28915-13.595 7.0964-13.289 15.213 0.12389 3.3499 1.3259 6.3971 3.2219 8.8011 7.6941-11.788 15.708-11.453 24.422-10.594-0.65676-7.7519-6.9361-13.712-14.353-13.42" fill="#93aec1"/>
  <path d="m45.357 166.44c-13.391-18.04-25.34-58.083-26.171-62.921-1.0326-5.9894 0.83025-8.5103 3.8043-2.7551 2.4618 4.794 16.874 32.554 22.28 37.872z" fill="#beaaac"/>
  <path d="m44.456 137.49c-5.4061-5.3186-19.016-31.927-21.465-36.721-0.41307-0.7435-2.5775-2.8708-1.9662-0.28914 1.9538 8.2331 21.756 49.675 22.397 44.91 0.62785-4.7502 1.0326-7.8977 1.0326-7.8977" fill="#968587"/>
  <path d="m101.8 92.658c-2.0984 2.7386-34.579 46.776-34.579 46.776-1.0492-5.1294-0.24783-69.391 2.6973-87.985 1.0781-6.8779-1.6316-7.8399-5.2314-1.1359-2.1562 4.0521-19.308 42.798-20.269 91.613l0.24784 12.065c-0.64025 31.14 11.424 45.289 16.189 44.473 5.8869-0.99134 23.621-27.103 20.663-40.058 0 0 24.029-59.657 25.748-65.573 1.7348-5.9307-0.83025-6.2223-5.4644-0.16522" fill="#beaaac"/>
  <path d="m61.48 147.36c2.086-4.3718 3.4243-5.4355 5.6102-9.02-0.84676-9.88 0.01448-69.158 2.8253-86.892 0.71459-4.5172-1.5448-7.3004-3.5688 0.24784-2.024 7.5334-6.0183 30.805-7.0819 43.176-1.0657 12.372-1.107 59.482 2.214 52.502" fill="#968587"/>
  <path d="m104.45 94.006c-2.9451 4.0232-24.043 53.449-35.293 62.192-4.0356 6.5866-5.7998 10.171-6.6304 18.521-0.81785 8.3496-0.57002 23.548-6.9216 19.541-0.12389 1.3135 2.3338 3.701 5.2459 4.2111 3.3954 0.58241 21.887-22.703 20.663-40.058 0 0 24.029-59.657 25.763-65.588 0.37175-1.3259 0.12389-2.8418-2.8253 1.1814" fill="#968587"/>
  <path d="m68.877 185.71c1.5159 8.4223 0.33045 12.168 1.0492 12.837 0.42132 0.37175 3.4821-2.0818 4.7795-5.4933 0.94591-2.4908 0.47915-5.4648-0.28915-8.3207-0.97482-3.7299-6.3388-3.4077-5.5519 0.97482" fill="#fff"/>
  <path d="m74.43 184.74c-0.97482-3.7299-5.9745-3.4532-5.5519 0.97482 0.04134 0.5535 0.16522 1.2805 0.28914 2.1107 2.5197 0.57002 4.3863 2.6229 5.0273 6.2368 1.3135-2.5486 1.2516-5.3917 0.20654-9.3261" fill="#dcdddd"/>
  <path d="m94.488 159.57c0.33045 8.4078-6.2079 15.49-14.572 15.81-8.364 0.33045-15.417-6.2364-15.738-14.645-0.33045-8.4078 6.193-15.49 14.572-15.81 8.364-0.33045 15.417 6.2368 15.738 14.645" fill="#afcee5"/>
  <path d="m78.745 144.92c-8.3645 0.33045-14.892 7.4024-14.572 15.811 0.08269 2.3462 0.7146 4.5317 1.7183 6.4698 7.5483-9.8651 14.572-13.887 27.715-12.211-2.1851-6.0765-8.0873-10.331-14.863-10.069" fill="#93aec1"/>
  <path d="m38.611 155.08c-2.594 1.5283-4.4301 4.4152-4.2987 7.6503 0.16522 4.6482 4.357 8.2476 8.7139 8.0728 0.99134-0.0294 1.9373-0.28914 2.7964-0.66916-0.01448-0.41306-0.7435-5.4937-0.7435-5.4937s-6.3099-9.253-6.4702-9.559" fill="#0f141b"/>
  <path d="m71.218 160.44c0.20653 4.8088 4.1967 8.583 8.9469 8.3934 4.7361-0.16523 8.4516-4.2405 8.2624-9.0489-0.16522-4.8233-4.1967-8.583-8.9324-8.4082-4.7506 0.20654-8.4665 4.2549-8.2769 9.0638" fill="#0f141b"/>
  <path d="m37.793 152.71c-0.28914-0.0413-0.57002-0.0825-0.85917-0.0825-2.0694 0.0825-3.6721 1.8216-3.5977 3.8745 0.08255 2.0694 1.8216 3.6721 3.891 3.5977 1.3713-0.0413 2.5362-0.85916 3.1351-1.9827-0.97482-1.8794-2.1273-3.4697-2.5651-5.4206" fill="#fff"/>
  <path d="m79.122 152.54c0.08255 2.1438-1.677 3.9488-3.9489 4.0356-2.2594 0.0825-4.1529-1.5738-4.2405-3.7175-0.08269-2.1438 1.6894-3.9654 3.9489-4.0521 2.2594-0.0827 4.1533 1.5903 4.2405 3.7299" fill="#fff"/>
  <g fill="#0f141b">
   <path d="m326.77 4.7813c-5.6102-7.5627-26.506-11.191-65.705 3.7299-63.329 24.116-128.93 80.67-166.73 148.55 0.16523 0.7146 0.28915 2.8129 0.24783 3.5275l0.59894 0.24784c4.5028-11.002 25.588-45.1 61.959-80.233 24.175-23.329 60.196-51.73 104.87-68.05 32.51-11.89 54.557-13.96 61.595-4.4734 4.6341 6.2368 16.073 38.353-17.515 70.236-33.632 31.898-37.537 44.794-38.804 56.218l-0.7146 7.0526c-2.6808 27.045-3.7175 46.557-47.577 64.757l2.8708 1.3548c28.094-11.716 46.572-22.659 47.519-65.938l0.84678-7.0381c1.297-11.789 4.1818-21.931 38.892-54.863 33.195-31.504 25.457-64.567 17.661-75.074"/>
   <path d="m324.47 7.1581c-7.0237-3.9943-20.109-3.9323-36.663 1.2516-58.419 18.317-154.21 87.139-189.9 160.61 0.24783 0.28913 0.53698 0.90459 0.75591 1.2103 35.308-73.209 133.54-141.97 189.22-159.43 16.262-5.1005 30.236-5.5519 36.998-1.7183z"/>
   <path d="m219.08 72.591c-45.143 29.581-86.396 68.502-114.48 105.98 0.16522 0.37175 0.37175 1.0326 0.5535 1.3714 28.022-37.508 70.178-75.919 115.38-105.54 43.497-28.488 84.21-44.401 109.41-43.628l0.0825-1.7472c-26.783-0.99134-67.293 14.965-110.96 43.57"/>
   <path d="m231.08 66.406-2.4618 1.9083c38.528-19.774 82.448-8.3058 87.679-0.45024l0.66915-1.4416c-5.3479-8.058-46.863-20.051-85.887-0.01448"/>
   <path d="m293.84 91.09c-1.0946 0.24784-111.47 25.88-186.33 96.393 0.20652 0.28914 0.45023 0.85916 0.68567 1.1359 73.602-69.202 182.6-94.863 183.68-95.11z"/>
   <path d="m109.92 194.92 0.94591 0.83024c32.437-31.402 133.2-68.619 160.79-76.138l1.6027-2.0983c-26.331 7.1839-128.67 43.847-163.34 77.405"/>
   <path d="m151.3 167.64-1.6316 1.4292c41.923-15.286 71.781-7.2128 85.755 5.4355 6.4991 5.8869 9.3843 13.669 7.9564 19.264l1.1814-0.65676c1.5448-5.989-0.24783-13.669-7.0674-19.832-14.208-12.852-43.817-21.085-86.192-5.6395"/>
   <path d="m110.48 194.86 0.9046 1.2103c39.213-10.666 90.739 0.42132 109.65 12.459 7.0526 4.5028 10.564 8.1311 10.856 12.488 0.45023 6.5429-10.973 20.197-20.911 27.511-1.6481 1.2103-1.3548 1.1359-0.41305 1.6027 7.1988 3.5564 12.08 10.419 12.168 14.178 0.0413 2.0818-0.83026 3.7299-2.4784 4.6486-4.2112 2.3462-7.8106 2.8873-10.666 1.5572-3.7299-1.7059-7.1839-8.8448-8.0584-14.528-0.16523-0.97482-0.28915-0.87569-1.0492-0.5535-14.047 5.96-34.623 9.0927-60.56-21.406l-0.72697 2.7675c27.817 32.903 48.612 25.807 60.764 20.692 1.7472 7.8981 4.6341 13.333 8.685 15.184 3.321 1.5283 7.5334 1.3383 12.196-1.2681 2.1562-1.1938 3.7754-4.081 3.7175-6.7465v-0.16522c-0.16523-4.0232-2.974-10.55-11.541-15.199 10.871-8.5974 21.523-19.03 21.668-28.255 0.0825-4.6341-4.3132-9.9233-11.818-14.688-19.147-12.197-74.578-22.717-112.39-11.512"/>
   <path d="m122.03 202.44 0.78894 1.1814c42.622-3.0442 87.999 16.044 99.686 26.565 2.024 1.8051 3.1186 3.4243 3.164 4.6482l1.0781-0.0413c-0.0827-1.5448-0.84678-3.8332-3.1186-5.8725-13.828-12.459-61.945-29.872-101.59-26.477"/>
   <path d="m131.87 213.43c21.77-0.83025 76.444 28.152 81.296 34.841l0.91699-0.94591c-6.0183-8.3207-59.861-35.905-82.36-35.045z"/>
   <path d="m137.87 228.57c20.022 5.3912 44.721 21.741 48.291 31.606l1.0037-0.37175c-3.1351-8.6701-23.548-25.442-49.282-32.378z"/>
   <path d="m-89.21 79.318c-3.468 5.6684-9.9088 34.521 7.2131 48.174 18.098 14.426 43.774 37.799 47.912 47.825 7.1112 17.238 13.916 39.023 28.546 47.81 11.891 7.1257 26.739 8.9469 49.122 5.5664l2.2016-2.0818c-21.596 3.2632-36.342 1.3424-49.311-6.4404-11.949-7.155-19.06-24.248-24.787-37.974l-3.0319-7.1402c-6.193-13.887-29.217-34.127-47.446-48.656-16.393-13.071-10.885-38.484-7.9271-44.138 3.8617-7.4024 13.217-8.3645 27.031-2.1149 17.792 8.0584 76.575 48.582 94.134 69.77l1.3548-1.1938c-20.911-25.239-81.223-66.156-95.664-72.437-14.718-6.4115-24.306-5.2021-29.348 3.0319"/>
   <path d="m-89.451 84.479 0.67039 1.1524c5.6393-4.4152 11.891-7.2422 31.329 2.974 19.06 9.996 61.172 40.16 87.562 67.7l0.61134-1.4416c-31.46-32.16-68.983-58.229-88.101-68.269-18.186-9.5446-25.034-7.6209-32.073-2.1149"/>
   <path d="m-53.867 113.25c-21.391-9.3698-31.839-8.2769-36.167-7.9126l0.07439 1.0037c23.038-1.9951 64.116 19.133 119.74 61.537-0.24783-0.88808 0-1.1938-0.43785-1.9827-34.491-26.841-61.085-42.958-83.205-52.648"/>
   <path d="m46.695 180.05c-1.2805-1.0492-2.5651-2.0818-3.8332-3.1186-0.57002 0.029-1.1938 0.0413-1.7762 0.0825 1.6316 1.2805 3.2797 2.5651 4.9398 3.8745z"/>
   <path d="m-68.246 135.57 0.8162 0.55351c6.0473-4.5028 25.093-9.0344 55.431 1.3259l-1.7761-1.5283c-32.947-11.25-48.262-5.4206-54.47-0.33045"/>
   <path d="m-32.061 174.39c14.863 1.1648 48.947 8.7577 72.67 17.399l0.37176-1.0037c-23.694-9.1216-54.542-16.102-73.777-17.836z"/>
   <path d="m-23.983 194.35 0.46674 1.2805c7.1257-3.3086 39.49-1.8051 65.938 7.6065l0.37175-1.0037c-28.648-10.2-58.695-11.614-66.768-7.8832"/>
   <path d="m0.062466 223.09 1.3425 0.24785c2.0529-8.0873 11.992-25.034 28.196-24.306l-1.7927-0.52458c-16.874-0.75589-25.632 16.204-27.745 24.582"/>
   <path d="m59.833 217.05-0.80133-1.297c-1.1938 0.7435-3.0153 2.024-5.2021 3.6721 0.20653 0.45023 0.33045 0.97482 0.37175 1.6151 2.2718-1.7472 4.2405-3.1475 5.6246-3.9943"/>
   <path d="m86.972 255.62c-1.7638 20.546-10.331 20.43-19.045 19.716-1.8959-0.16523-2.3751-0.57002-2.2305 0.61132 0.12389 1.1814-0.02925 3.891 0.01448 5.1583 0.04134 1.2516-0.01448 6.5866-1.9249 9.224-2.7097 3.7464-11.381 1.8959-13.289-0.65678-2.0694-2.784 0.58241-7.3442 2.6808-10.885 1.1359-1.9249 1.867-3.3375 2.1851-4.1384 0.28915-0.81785 0.33045-1.107-0.77241-1.4292-19.206-5.5813-27.934-16.087-26.681-24.67 0.84678-5.8142 14.892-18.594 24.67-26.259-0.37175-0.37175-0.69806-0.75589-1.0203-1.107-13.391 10.477-27.133 20.648-26.798 29.187 0.33045 8.6557 9.6615 19.453 28.575 24.393-0.33045 0.81786-1.7638 2.8129-2.4783 4.0232-3.4697 5.858-3.8456 7.9564-2.784 11.075 1.3424 3.9075 13.625 7.388 17.428 2.1562 2.2016-3.0319 1.9827-7.7812 1.9373-11.526-0.02897-1.1937-0.08255-2.6229-0.01449-3.6432 11.497 2.024 19.191 1.6605 21.071-20.226z"/>
   <path d="m36.917 266.36 1.4416 0.33045c-0.58241-7.5483 25.501-41.122 30.936-46.339l-1.2392-0.24785c-4.5899 4.4152-31.781 37.901-31.14 46.236"/>
   <path d="m51.859 273.07 1.3838 0.47914c0.99134-5.0273 19.191-35.861 25.224-43.963l-0.43785-1.297c-5.7267 7.6792-25.093 39.256-26.171 44.779"/>
   <path d="m80.819 246.41c-3.6886 9.1802-4.5755 25.399-4.1674 29.129l1.7059-0.42132c-0.41307-3.5978-0.16522-18.783 3.2343-27.744-0.24783-0.33045-0.57003-0.64025-0.77242-0.96243"/>
   <path d="m108.77 195.79c21.246 10.346 31.402 26.667 29.347 47.228l-0.16523 1.6605c-0.65676 6.9799-1.8216 17.807-7.2273 22.004-2.6229 2.024-6.7469 2.4784-10.463 1.834-17.763-3.1186-30.31-9.5739-35.366-17.851-4.5172-7.4314-5.4206-19.584-5.9745-26.841l-0.12389-1.6027-1.8216 0.16522 0.12389 1.5862c0.5535 7.4318 1.3837 20.328 6.1348 28.124 5.3334 8.7288 18.871 15.942 35.118 18.696 4.663 0.78482 10.477 0.96243 13.508-1.3259 6.5284-4.9542 8.1022-17.967 8.787-25.282l0.16522-1.6481c2.1438-21.377-9.0055-37.93-31.665-48.189z"/>
   <path d="m118.88 200.63s1.9538 3.6432 2.404 4.4879c-0.85916 0.0825-3.7299 0.0413-3.9654 0.42132-0.24784 0.37175 3.1351 5.0129 3.4986 5.5957-0.53699 0.37175-3.6721 2.2305-3.7754 2.594-0.0825 0.37175 1.7762 5.3479 2.024 6.0765-1.9538 0.45024-4.896 0.50808-5.2752 0.96243-0.41306 0.43785 0.58242 2.6684 1.4705 5.9745-2.4618-0.24785-6.2512-0.80135-6.6156-0.62785-0.37175 0.20652-0.0413 3.701 0.20653 5.7271-0.97482-0.33044-5.1-2.2305-5.5082-1.9372-0.42132 0.28915-1.5448 5.0856-1.9538 5.9307-0.62784-0.37175-3.8456-5.3628-4.3276-5.2169-0.46676 0.16522-3.003 4.6775-3.4986 5.4354-0.59894-0.69806-3.9488-4.998-4.3136-4.998-0.37175 0-4.5172 4.1529-5.0562 4.6482-0.49568-0.58242-5.1001-6.1492-5.1001-6.1492l-0.24784 0.7435s4.8378 6.6011 5.2459 6.5718c0.42132-0.0145 4.5461-4.1674 5.0856-4.663 0.46676 0.5535 3.9943 5.1876 4.4734 5.1732 0.46676-0.0145 2.9162-4.5172 3.4408-5.3334 1.6192 2.2429 4.2405 5.2459 4.7213 5.0274 0.46676-0.20653 1.6316-4.7502 2.0405-6.1199 0.69806 0.24782 5.5808 2.4205 5.9307 2.0818 0.37175-0.33045-0.54111-6.0179-0.54111-6.1637 1.3838 0.20652 6.8634 0.96243 7.0964 0.78481 0.20653-0.16522-1.4127-5.3041-1.677-6.3095 0.75589 0 5.3772-0.62785 5.4499-0.96243 0.0827-0.33045-1.9538-5.8142-2.1273-6.3388 0.43785-0.28915 3.8332-2.3627 3.9034-2.6973 0.0825-0.33044-2.6684-4.2694-3.2219-5.1583 0.90459-0.0825 3.7299-0.24783 3.8745-0.41306 0.16522-0.16522-2.8542-5.1438-2.8542-5.1438z"/>
   <path d="m128.81 214.56c-0.24784 0.28913 2.8418 4.3569 3.3664 5.1587-0.87568 0.20654-4.1678 0.65678-4.4156 0.93352-0.24784 0.28914 2.594 7.5338 2.9162 8.4516-0.9046 0.0149-5.2748-0.16522-5.5371 0.0825-0.28913 0.24783 0.74352 4.9398 0.87569 5.7267-0.78894-0.0145-4.5172-0.0827-4.8671-0.0414-0.33045 0.0293-0.41305 0.50806-0.28915 1.3548 0.0827 0.85917 0.1239 1.6316 0.33045 3.1021-0.7848 0.0145-6.2074-0.20655-6.5135 0.12389-0.28914 0.33045 0.16523 4.663 0.20653 5.523-0.83026-0.20653-5.0856-1.3548-5.3768-1.1938-0.28915 0.16522-1.6192 4.0232-1.9538 4.8671-0.72699-0.62785-4.9546-4.7361-5.3772-4.6048-0.41306 0.16522-2.3916 4.2111-2.8129 4.9398-0.62785-0.59893-4.5028-4.6192-4.8522-4.6192-0.33044 0.0145-3.0608 4.0067-3.5854 4.692-0.53699-0.66917-3.5564-4.8229-3.9323-4.8084-0.37176 0-1.6605 3.5564-2.0694 4.4152-0.62786-0.7435-3.0318-3.5854-3.0318-3.5854l-0.61134 0.50806s3.4821 4.561 3.8456 4.5466c0.37175-0.0145 1.6481-3.5275 2.0529-4.4007 0.64025 0.80133 3.5564 4.6775 3.7754 4.6048 0.20653-0.0825 3.193-4.1678 3.6597-4.7795 0.57002 0.53699 4.6919 4.7502 4.9398 4.7213 0.24785-0.0294 2.4495-4.2843 2.8419-4.9836 0.64024 0.53698 4.9687 4.7068 5.4933 4.692 0.51219-0.0145 1.8959-4.7213 2.1149-5.2748 0.58241 0.12389 5.625 1.5283 5.7271 1.2681 0.1239-0.24784-0.20652-5.0418-0.20652-5.7415 0.72698-0.0145 5.1145 0.1239 5.7556 0.0825 0.62785-0.0413 0.83025 0.0825 0.78894-0.65676-0.0413-0.74351-0.42132-3.891-0.41305-3.9943 0.50806 0.0149 5.0418 0.28913 5.2896 0.0825 0.24783-0.20653-0.75591-4.9836-0.87569-5.756 0.77242 0 5.6684 0.20653 5.7267-0.0825 0.0413-0.24783-2.7097-7.8539-2.9864-8.6408 0.727-0.16523 4.6192-0.52459 4.6924-0.97482 0.0413-0.45024-2.7675-4.2256-3.321-5.0856 0.7435-0.0825 2.1149-0.28913 2.1149-0.28913l-0.12389-0.80134s-3.1351 0.16523-3.3664 0.45024"/>
   <path d="m137.09 242.53c-0.66916 0.0413-3.7878-0.0292-4.1529 0.28915-0.33045 0.33044-0.0294 5.0418-0.0294 5.7415-0.69806 0-4.9398-0.33045-5.2892-0.0413-0.33045 0.24785 0.28913 4.7064 0.33045 5.7704-2.4494-1.1524-5.4355-2.9286-5.8142-2.784-0.37175 0.12389-0.66917 0.33044-0.7146 5.9307-0.78894-0.20653-3.891-1.0203-3.891-1.0203-0.33045-0.0825-0.84678-0.16523-2.6064 4.5028-0.69806-0.33045-5.654-3.1021-6.0183-3.0897-0.37175 0-3.0608 2.9575-3.5688 3.4532-0.46676-0.54111-3.321-3.8167-3.7878-3.7464-0.46676 0.0413-1.8051 2.6973-2.0405 3.3375-0.69806-0.28913-7.9559-2.6229-7.9559-2.6229l1.9662 1.5448s6.1492 2.2884 6.4404 2.1438c0.28914-0.16522 1.5738-2.3007 1.9083-3.2053 0.65676 0.7559 3.1475 3.6886 3.4119 3.7175 0.24784 0.0294 3.4077-3.2921 3.7754-3.6432 0.46676 0.24784 6.0183 3.3664 6.295 3.2508 0.28915-0.12389 1.8051-4.4445 2.1727-4.8088 0.28913 0.0825 4.5028 1.5159 4.7068 1.2227 0.20652-0.28915 0.12389-5.1872 0.28914-6.0034 1.2805 0.77243 6.0327 3.3954 6.3239 3.1186 0.28914-0.24783-0.33045-5.5082-0.37175-6.2512 0.72699 0 5.0711 0.33045 5.2169 0.0413 0.16522-0.28913 0.0413-5.1583 0.0413-5.8138 0.61133-0.0413 3.7754 0.33044 3.9654-0.0413 0.20654-0.37176-0.33045-6.7469-0.41305-7.5338 0.58241 0.0145 1.9083 0.0413 1.9083 0.0413l0.0145-0.81786s-2.594-0.33044-2.8129-0.0413c-0.20653 0.28915 0.61134 6.63 0.68569 7.3587"/>
   <path d="m44.912 209.39c0.12389 3.7464 0.61132 9.3405 6.5573 13.115 2.6518 1.6894 2.9575 0.0827 2.9864-1.834 0.04134-1.9083-0.04135-3.6886-0.04135-3.701l-1.677-0.33045c-0.01448 0.20653 0.08255 1.487 0.33045 3.0442 0.41307 2.4494-0.52458 1.7927-1.834 0.74351-4.1678-3.3086-4.6048-7.9415-4.6775-9.7048z"/>
   <path d="m57.98 215.53c-0.28915-0.61133-0.99134-1.1235-1.7059-1.8051-0.7146 0.33045-1.9083-0.5535-2.6519-0.87569 0.54111 0.66915 1.6605 1.9249 2.4908 2.8997 0.9046 1.0657 0.33045 1.2392-1.4705 0.47915-5.7849-2.4205-8.6263-6.3677-9.7924-9.588-0.41307-0.37175-1.297-1.2681-1.7059-1.6481 0.71459 4.7944 3.6721 10.098 11.716 12.969 3.1764 1.1359 4.1818-0.20652 3.1186-2.4329"/>
   <path d="m48.117 180.77c-0.33045-0.78482-0.87569-1.4416-1.0946-2.1851-0.80134 1.5283-1.9662 2.813-2.3916 6.6883-0.93352 8.7143 1.6481 12.984 1.6027 9.2534-0.04134-3.4243-0.45024-5.0567 0.04135-8.3496 0.50808-3.3086 1.2681-4.0645 1.834-5.4061"/>
   <path d="m94.211 164.23-0.97482 1.9248c13.464 8.7577 20.153 35.818 9.9233 45.843-0.0414 0.69807-0.12389 1.4994-0.16522 2.2594 12.837-10.404 7.2566-38.528-8.7726-50.025"/>
   <path d="m55.65 212.33c-0.50806 0.55351-0.84678 0.59895-1.8216 0.64025 6.63 6.0765 22.237 16.044 41.209 6.8052 0.66915-0.84677 1.4581-1.7472 1.7472-2.9864-5.3628 4.7506-24.233 9.6173-41.137-4.459"/>
   <path d="m40.444 198.59c1.3424 6.8196 5.0856 12.459 12.459 14.892 3.8332 1.2681 4.4883 0.33045 1.8959-2.7964-4.5024-5.4061-9.0633-12.328-9.0344-22.995 0 0-1.0492 1.7183-1.0492 2.0694-0.04134 8.9617 3.9943 15.84 7.9853 20.488 1.8959 2.2305 2.2884 2.8253-0.52458 1.6481-6.426-2.6684-8.7284-7.4318-10.069-14.339-0.20653-1.0657-0.33045-2.1107-0.37175-3.1186-0.28915-7.0964 3.3788-12.415 5.858-14.616l-0.83025-1.1524c-4.8233 3.2632-7.8395 12.182-6.3244 19.92"/>
   <path d="m102.1 197.3c-1.0203-2.0818-2.5775-1.3548-2.7097-0.65677 0.0149 0.42132 0.0413 0.85917 0.0413 1.2805 0.20652-0.45024 1.0203-1.1814 1.677 0.0827 0.66916 1.3094 1.4705 5.4354 1.6192 9.5156 0.12389 3.1599-0.16523 6.3095-1.1937 8.1162-1.7473 3.0319-3.9943 5.2169-5.8869 6.5284-2.0818 1.4416-2.3173 1.3135-1.1235-0.5535 1.9083-3.0029 4.0356-7.0964 4.0934-12.809-0.33045 0.72697-1.1937 1.867-1.5862 2.6684-0.45023 3.7588-2.594 7.0964-4.0067 10.011-1.8051 3.6886-0.9459 4.9253 4.0356 1.5159 2.0694-1.4127 4.5466-3.8332 6.2079-7.0674 2.8253-5.5375 0.0413-16.131-1.1814-18.652"/>
   <path d="m100.07 194.37c-0.33045-2.3627-1.3838-4.0067-3.5564-4.0356-0.45024-0.0145-1.0368-0.0413-1.3838 0.28915 0.20654 0.24784 0.20654 0.97482 0.41306 1.2681 0.16523-0.0413 2.6684-0.81787 3.2053 3.2219 0.16522 1.2516 0.28915 2.9121 0.37175 4.7357 0.16523 4.3132-0.20653 9.5008-2.8418 12.211-3.1186 3.193-6.9799 4.8233-9.8217 5.6391-1.2103 0.33045-1.5738 0.33045-0.66915-0.61133 3.1599-3.3375 4.7506-6.2223 4.8233-6.3537l-2.3751 1.2681c-0.0145 0.029-2.0405 2.7675-3.8332 4.6626-2.594 2.7386-0.87569 2.8253 2.8997 1.9538 3.4243-0.80134 7.5776-2.5073 10.9-5.9018 3.2632-3.3499 2.8542-11.657 1.8794-18.331"/>
   <path d="m94.367 188.8c0.99134 3.4077 1.6481 14.645-0.69807 17.865-2.1562 2.9575-7.0819 6.9361-12.546 8.058-2.3916 0.47915-2.4205 0.12389-1.2103-0.78895 1.8959-1.4003 5.5226-4.4152 8.6846-10.244 1.2226-2.2594 2.5073-7.592 2.3173-15.825-0.16521-1.896 2.6353-1.867 3.4532 0.9335m-4.9687-1.3548c0.0413 3.4408 0.16522 10.142-1.834 14.79-1.5614 3.701-5.1294 7.6503-8.9762 11.118-1.4581 1.3135-2.5486 3.3954 2.2594 2.6808 5.989-0.90461 11.22-4.2405 14.411-8.6119 2.6518-3.6432 1.4292-15.942 0.33045-19.424-1.2516-3.9488-6.2219-3.9943-6.193-0.5535"/>
   <path d="m48.747 196.63c1.4003 1.5448 2.6064 1.7183 2.6808-0.20652 0.08255-2.4908 0.47915-4.3863 1.3424-5.5082l-1.1937-1.8092c-0.68569 0.81785-1.107 3.4532-1.1524 5.6978-0.04135 2.0694-0.12389 1.9538-1.0657 0.64024-2.0529-2.8708-2.214-7.0819 0.52458-11.555l-1.0327-1.3135c-2.7262 2.3586-3.5854 10.2-0.12389 14.032"/>
   <path d="m43.25 176.32c-7.2128 0.28913-13.333-5.7411-13.624-13.421-0.20653-5.2603 2.3916-9.9523 6.3677-12.473-0.41305-0.37175-0.80134-0.74351-0.83026-1.3259-4.7068 2.8418-7.9853 8.1893-7.7523 14.077 0.33045 8.5099 7.8399 14.965 15.898 14.659 1.3424-0.0413 2.6353-0.28915 3.8621-0.7146-0.04135-0.49567-0.16522-0.99135-0.41305-1.4705-1.107 0.37175-2.2884 0.62784-3.511 0.66916"/>
   <path d="m18.195 104.21c1.6894 8.4954 11.876 42.768 26.769 63.037l0.68567-3.2508c-13.479-18.156-24.991-56.451-25.719-60.604-0.87568-5.1294 0.24784-6.528 2.3751-2.2718 2.7386 5.435 16.947 32.655 22.44 38.061l0.16522-2.8708c-5.333-7.7234-19.584-34.127-21.275-37.421-2.8997-5.6246-7.1988-3.5399-5.4354 5.319"/>
   <path d="m69.105 188.84c-1.7472 2.7262-4.3421 5.7122-6.3384 7.3442-2.5073 2.024-3.0029 2.2718-6.9072-2.0529-7.1984-7.9853-9.8069-24.262-10.244-35.395-0.42132-11.075-2.3007-8.8164-2.0818-0.66917 0.37175 13.887 3.2921 29.421 11.045 37.522 4.8671 5.0856 6.9654 4.2694 10.477 1.1814 1.6605-1.4705 3.1764-3.2921 4.459-4.882 0.02925-1.0203-0.33045-2.024-0.41305-3.0442"/>
   <path d="m76.757 175.49c-0.77241 2.3338-1.7348 4.7361-3.2343 7.1695 0.52459 0.68568 0.68568 1.4581 0.75589 2.5651 2.0984-3.2921 3.7878-6.3677 4.8378-9.253-0.64025 0.12389-1.7183-0.20653-2.3586-0.48328"/>
   <path d="m100.41 92.11c-7.6065 9.6755-21.187 27.599-33.165 44.619-9.0344 12.837-8.9469 15.941 0.37175 3.1475 10.87-14.907 34.914-46.659 34.914-46.659 5.2459-6.8779 4.8382-3.1186 2.5651 2.8418-3.6721 9.6028-13.435 34.594-19.497 49.734 0.47915 0.41305 1.5903 1.0781 2.0694 1.4003 6.528-15.708 16.102-40.16 19.759-49.806 4.5465-11.963 0.16522-14.368-7.0088-5.2752"/>
   <path d="m60.603 54.681c-7.4318 15.766-17.472 60.779-17.428 79.795 0.01449 9.4859 1.6316 10.302 2.3173-0.24785 1.6605-25.399 9.9816-60.473 18.258-79.752 4.5028-10.462 5.9452-9.457 4.8522 1.867-2.2718 23.402-3.8456 80.189-2.8708 84.91l2.1438-3.1021c-1.0946-9.7048 1.5159-59.307 3.2508-81.894 1.297-16.918-3.7175-16-10.521-1.5572"/>
   <path d="m71.074 182.71c1.0781-0.20654 2.404 0.47915 2.8419 2.1562 0.43785 1.6894 0.69806 3.1599 0.7559 4.4879 0.08255 2.7262-0.77243 4.9546-2.7386 7.0237-1.8959 1.9827-1.834 1.7348-1.7638 0.12389 0.12389-2.5775 0.16522-4.9104-0.46676-8.7866l-0.28914-2.0529c-0.20653-1.9249 0.72699-2.784 1.6605-2.9451m-0.16522-1.4994c-1.2681 0.24783-3.131 1.5614-3.0319 3.9654 0 0.12389 0.42132 2.7964 0.42132 2.7964 0.57002 2.4784 0.88808 5.7411 0.74352 8.8015-0.16522 3.2219 0.68568 3.4532 3.3375 1.0203 3.3788-3.0732 4.5755-6.4553 2.6973-13.581-0.59894-2.3007-2.6105-3.2797-4.1678-3.0029"/>
   <path d="m64.932 160.71c-0.28915-7.9853 5.9014-14.718 13.843-15.024 7.9415-0.28915 14.645 5.9307 14.951 13.916 0.28915 7.9853-5.9018 14.717-13.843 15.023-7.9419 0.28914-14.645-5.9307-14.951-13.916m-1.8216 0.0826c0.33045 8.8159 8.6412 16.379 17.428 16.044 8.7721-0.33045 15.577-8.2914 15.227-17.107-0.33044-8.8159-8.2913-16.189-17.063-15.854-8.7721 0.33045-15.927 8.1017-15.592 16.918"/>
  </g>
 </g>
</svg>
