<?xml version="1.0" encoding="UTF-8"?>
<svg version="1.1" viewBox="0 0 175.12 178.56" xmlns="http://www.w3.org/2000/svg">
 <g transform="translate(.0062016 .012353)">
  <path d="m53.05 23.75q-3.4-2.8-7.65-3.9-11.7 2.85-18.75 11.85-4.85 6.15-6.85 14.15-1.3 5.1-0.15 11.55 1 5.25 3.45 10.6 1.7 3.7 5.6 7.05 3.1 2.7 7 4.65 3.2-9.3 8.9-17.65 5.5-8.1 11.7-13 2.45-2.9 2.65-9.2 0.2-5.6-1.25-9.65-1.25-3.55-4.65-6.45m81.45 9q2.5 0.5 4.8 3.4 2.65 3.35 2.15 7-0.5 4.3-3.2 6.85-3 2.8-8.2 2.8-3.6 12.25-11.7 20.85 4.95 7.95 5.8 16.65 0.8 8.55-3.9 15.55-4.35 6.35-12.2 10.1-5.85 2.75-12.4 3.95 1.8 1.45 4.65 6.75 2.9 5.5 3.55 8.95 1.2 6.05 0.05 11.75 2.2 1.75 3.75 4.15 1.9 3.05 1.65 5.65-0.25 2.2-2.75 3.6-2.55 1.4-6.65 1.35-5.25-0.05-11.05-2l-6.55-1.95q-4.7-1.25-7.2-1.25l-5 0.7q-2.9 0.5-5.55-0.05-2.75-0.6-3.5-2.9-0.65-2.15 0.7-4.55 0.75-1.25 2.95-3.2l2.95-2.55q1.6-1.45 3.4-5.1 1.65-3.45 2.9-7.55l1.5-5.15q-5.75 2.05-10.05 2.65-10.4 1.5-18.1-2.4-8.5-4.35-12.85-14.95-2-4.85-2.35-10.95-0.35-5.65 0.65-11.6-6.15-1.55-12.9-6.1-6.95-4.65-10.5-9.75-4.35-6.2-6.3-12.8-2.45-8.15-2-18.8 0.45-10.7 6.4-21 5.25-9 12.35-14.2 5.85-4.25 13.35-5.2 5.7-0.75 13.6 0.35 3.2-1.05 8.05-0.9 5 0.1 9.25 1.35 5.2 1.5 8.85 4.95 4.7 4.45 5.8 11.25 1.05 6.3-2.2 14.4-2.55 6.4-7 12.25 11.55 0.8 23.25 6.5 12.05 5.8 20.2 14.85 3.75-3.15 6.6-7.35 3.45-5.1 4.05-9.6-2.65 0.05-5.45-1.35-5.65-2.8-6.5-9.95-0.55-4.3 2.85-8.35 3.5-4.2 8.45-4.45 3.65-0.15 6.85 1.75 3.4 2.05 4.7 5.6" fill="#00b8ee"/>
  <path d="m166.3 137.3q7.65-1.25 7.85 3.8 0.2 4.2-2.55 8.9-2.8 4.8-7.4 8.1-4.8 3.45-11.35 4.2-6.45 0.8-13.6-1.15-9.9-2.6-19.55-9.9-9.1-6.85-15.7-15.95l-6.75-8.6-3.6-4.75q-0.75-1.65 0.05-2.3t2.55 0.45q11.45 7.3 20 11.15 11 4.9 22.65 6.9l15.95 0.55 11.45-1.4" fill="#00b8ee"/>
  <path d="m103.85 85.6q0.55-0.15 1.2 0.65 0.7 0.9 1.25 2.6 0.45 1.4 0.35 2.6-0.05 1.25-0.65 1.45-0.55 0.2-1.25-0.75-0.7-1-1.2-2.55t-0.4-2.7 0.7-1.3" fill="#0d131a"/>
  <path d="m53.6 104.4q0.55-0.25 1.35 0.55t1.35 2.3l0.7 2.8q0.05 1.1-0.4 1.35-0.6 0.25-1.4-0.6t-1.4-2.4q-0.6-1.5-0.65-2.6t0.45-1.4" fill="#0d131a"/>
  <g fill="#00a0cf">
   <path d="m44.15 124.75q-5.85-4.25-8.9-10.85-4.05-8.8-2.7-21 1.45 16.5 12.9 25.55 12.85 10.15 33.65 6.3-2.85 1.6-7.25 2.9-4.3 1.25-8.35 1.75l-9.3-0.35q-5.7-1.15-10.05-4.3"/>
   <path d="m60.55 152.75q0.55-2.35 3.4-4.6-3.8 5.05 2.95 5.95l6-0.45 7.2-0.85q2.7 0 7.25 1.4 3.95 1.15 7.65 2.85 4.9 2.25 9.25 1.1 5.15-1.3 2.6-7.35 1.45 1.1 2.1 4.35 0.65 3.6-1.25 4.7-2.4 1.35-4.05 1.7-2.25 0.45-6.6 0.05-3.75-0.35-7.65-1.7-4.15-1.6-6.55-2.3-3.65-1-7.35-1.15-3.95-0.15-7.3 0.7-5.4 1.45-7.2-1.3-0.9-1.35-0.45-3.1"/>
   <path d="m103.45 135.35q0.05-1.45-0.55-2.95 10.95 9.85 22 15.9 11.2 6.15 21.2 7.65 6.25 0.9 12.85-0.55 6.75-1.55 12.9-5.35-11.2 16.7-31.45 11.6-12.5-3.15-24.75-13.7-5.75-4.95-12.2-12.6"/>
  </g>
  <path d="m89.65 125.95q1.9-0.35 3.55 1.5 1.7 1.9 2.25 5.25 0.65 4.05-0.5 6.6-1.05 2.25-2.95 2.45-1.8 0.15-3.6-1.8-2.05-2.2-2.25-5.55-0.2-3.65 0.8-5.95 0.95-2.25 2.7-2.5" fill="#e85377"/>
  <g fill="#ffee7d">
   <path d="m91.2 144.1q1.2 0.05 1.9 1.3 0.65 1.25 0.45 3-0.2 1.8-1.05 3-0.9 1.2-1.95 1.1-1.15-0.15-1.85-1.35-0.7-1.25-0.65-3.05t1-2.95q0.9-1.15 2.15-1.05"/>
   <path d="m101.25 75.6q3.6-1.15 7.05 1.9 3.35 2.95 4.9 8.35 1.85 6.3 0.2 10.9-1.4 3.95-4.45 4.7-3.05 0.8-6.3-2-3.5-3.05-5.3-8.8-1.55-5.05-0.6-9.35 1.05-4.6 4.5-5.7"/>
   <path d="m56.25 97.35q3.45 2.55 5.5 7.8 2.15 5.55 1.45 10-0.75 4.4-3.85 5.5-3.15 1.1-6.9-1.55-3.85-2.7-5.95-7.8-2.05-5.1-1.15-9.5 0.8-4.3 3.9-5.6 3.45-1.45 7 1.15"/>
   <path d="m94.45 58.55q2.55-0.6 4.8 0.55 2.1 1.1 2.6 2.95 0.55 1.7-0.55 3.45-1.15 1.8-3.1 2.3l-4.9-0.2q-2-0.9-2.65-3-0.5-1.75 0.5-3.55 1.1-2 3.3-2.5"/>
   <path d="m38.65 80.3q1.6-2.35 4.25-2.65 2.25-0.25 3.95 1.3 1.75 1.6 1.75 4.15t-2.1 4.4q-1.95 1.65-4.3 1.7-1.75 0.05-3.15-1.15-1.45-1.25-1.65-3.15-0.25-2.4 1.25-4.6"/>
   <path d="m38.85 98.5q-0.05 2.5-1.7 3.9-1.45 1.25-3.5 1.15l-0.85-0.15-0.05-10.9q0.7-0.35 1.7-0.35 2 0.1 3.25 2 1.25 1.85 1.15 4.35"/>
  </g>
  <path d="m102 80.15q2.05-0.8 4.1 1.3 2.05 2.05 3.35 6.1 1.25 3.9 0.8 6.75-0.4 2.75-2.05 3.35-1.95 0.75-4.15-1.5-2.1-2.1-3.4-5.75-1.35-3.8-0.9-6.7 0.45-2.75 2.25-3.55" fill="#006985"/>
  <path d="m51.25 99.75q1.9-0.9 4.05 0.95 2.15 1.8 3.7 5.5 1.55 3.6 1.35 6.7-0.2 3-1.9 3.75-1.65 0.65-3.8-1.15-2.3-1.9-3.8-5.55-1.5-3.7-1.35-6.6 0.15-2.85 1.75-3.6" fill="#006985"/>
  <path d="m108.65 62.7 3.05 3.15q3.25 3.4 4.3 4.95-0.9 1-2.85 1.4-2.3 0.45-3.95-0.7-2.95-2-2.65-5.05 0.3-2.6 2.1-3.75" fill="#ffee7d"/>
  <path d="m32.5 103.75q-0.55-4.9 0.05-10.85 0.55 5.8 2.35 10.6l-2.4 0.25" fill="#dccd6c"/>
  <path d="m59.25 33.75q-4.45-13.3-16.45-14.45-7.4-0.7-14.3 3.85-5.5 3.65-9.65 9.85-3.1 4.65-4.1 10.75-0.75 4.3-0.4 9.95 0.2 3.7 1.6 8.05l1.3 3.6q-3.7-5.55-5-11.05-1.5-6.1-0.2-12.7 1.35-7 4.05-12 2.7-5.15 7.4-9.25 4.2-3.7 10.5-5.25 6.65-1.65 11.8 0.25 5.25 1.9 8.7 6 4.25 5.05 4.75 12.4" fill="#00a0cf"/>
  <path d="m7.25 68.9q4.65 6.6 11.95 11.05 4.95 3 14.25 6.55l-0.6 2.75q-9.1-3.05-14.75-7.4-6.15-4.75-10.85-12.95" fill="#00a0cf"/>
  <path d="m130.05 32q0 1.55-1.1 2.65-1.15 1.1-2.7 1.1t-2.65-1.1-1.1-2.65 1.1-2.7q1.1-1.1 2.65-1.1 1.6 0 2.7 1.1 1.1 1.15 1.1 2.7" fill="#7dccf3"/>
  <path d="m128.9 31.2q0 1-0.7 1.75-0.7 0.7-1.7 0.7t-1.75-0.7q-0.7-0.75-0.7-1.75t0.7-1.75q0.75-0.7 1.75-0.7t1.7 0.7q0.7 0.75 0.7 1.75" fill="#bae2f8"/>
  <path d="m82.05 60.1q-1.6 1.3-4.2 0.9-2.7-0.45-4.55-2.4-1.65-1.75-1.5-3.8 0.15-1.9 1.7-3.05 1.55-1.1 3.75-0.95 2.5 0.15 4.6 2 1.75 1.5 1.8 3.75t-1.6 3.55" fill="#7dccf3"/>
  <path d="m74.7 52.1q1.05-0.8 2.65-0.6 1.5 0.15 2.6 1.15 1.15 1.05 1.15 2.65 0 1.55-1.05 2.4-1.05 0.8-2.7 0.5-1.7-0.3-2.8-1.55-1.05-1.1-0.95-2.45 0.05-1.35 1.1-2.1" fill="#bae2f8"/>
  <path d="m90.1 127.2c0.46667-0.13333 0.9 0.0333 1.3 0.5 0.4 0.46667 0.73191 1.1817 0.85 1.85 0.10766 0.60925 0.08397 1.2773-0.15 1.85-0.19691 0.48201-0.56667 1.1-1 1.2-0.4 0.1-0.83333-0.15-1.3-0.75-0.43333-0.56667-0.68333-1.2-0.75-1.9-0.06667-0.66667 0-1.2667 0.2-1.8s0.48333-0.85 0.85-0.95" fill="#f3b1b9"/>
  <path d="m162.9 143.55c-2.2667 0.16667-3.4833-0.26667-3.65-1.3-0.0667-0.33333 0.15-0.65 0.65-0.95 0.43333-0.3 1-0.51667 1.7-0.65l4.65-1.1s1.0671-0.204 1.6-0.15c0.39865 0.0404 0.95 0.15 1.15 0.35 0.53333 0.6 0.33333 1.2833-0.6 2.05-0.53333 0.43333-1.4876 0.87671-2.3 1.15-1.0286 0.34601-3.2 0.6-3.2 0.6" fill="#9ed8f5"/>
  <path d="m130.5 47.5q6.25 2.2 10.6-2.4-1.9 4.65-4.8 6.4-2.65 1.65-6.15 1.15v0.2l-0.45 1.05q-1.25 5.15-5.05 11.65-3.85 6.65-6.6 8.2l-3.9-4.9q3.4-3 5.4-5.45 2.85-3.55 4.65-7.95 0.45-1-0.05-1.15-1.15-0.2-1.6-0.8l1.3-3.8h-0.15q-5.3-0.45-8.75-3.95-1.45-1.2-2.4-4.15-1.2-3.65 0.2-6.3 0.7 5.65 8.1 8.8 7.8 3.3 13.35-1.3-1.1 2.6-3.7 4.7" fill="#00a0cf"/>
  <path d="m35.05 19.95q5.8-1.85 10.25 0.05-3.7 0.45-9.3 3.65-6.4 3.65-9.5 8.1-3.95 5.6-5.55 10.3-2.05 6.1-1.35 13.25-0.9-3.55-2.4-1.65-0.9 1.1-0.9 4.7 0 3.2 0.65 6.95-4.6-11.45-1.7-23.2 1.35-5.55 4.2-10.05 2.75-4.35 6.5-7.2 4.5-3.4 9.1-4.9" fill="#00a0cf"/>
  <path d="m97 124.5q-1.1-0.95-0.8-1.25 0.3-0.25 1.45 0.65 5.55 4.3 7.05 12.65 1.3 7.5-1 13.95-0.6 1.7-1.1 1.55-0.45-0.15 0.1-1.8 1.9-5.6 0.45-13.3-1.5-8.4-6.15-12.45" fill="#0d131a"/>
  <path d="m73.25 132.45q0.4-1.6 0.95-1.55 0.5 0.05 0.15 1.65-0.9 4.1-2.65 7.5-1.55 2.95-3.5 4.85l-1.3 1.1q-3.25 2.75-4.45 4.6-1.45 2.25-0.55 4.2 0.75 1.6 3.15 1.8l5.8-0.65q3.75-0.7 7.5-0.15 3.9 0.65 10.7 3.1 5.25 1.9 10.85 2 3.7 0.05 5.95-1.05t2.45-3.05q0.45-4.3-4.75-8.4-0.25-0.2 0.1-0.65 0.35-0.5 0.6-0.3 6.3 4.95 5.8 9.65-0.3 2.6-3.05 4.05-2.65 1.35-7.05 1.3-5-0.05-11.3-2.25-6.75-2.4-10.95-2.95-3.45-0.45-6.75 0.15l-6.9 0.75q-3.1-0.25-4.1-2.5-1.1-2.4 0.45-5 1.4-2.35 5.55-5.8l1.2-1.05q1.6-1.45 3.25-4.4 1.85-3.3 2.85-6.95" fill="#0d131a"/>
  <path d="m77.9 125.65q1 1.15 0.1 5.4-2.55 12.35-11.65 24.7-10.05 13.65-22.35 18.55-8.4 3.35-16.75 3-7.8-0.35-15-3.9-3.9-2-6.7-5.45-2.4-3.05-2.7-5.45-0.25-1.95 0.85-3.45 0.9-1.25 2.6-1.85l10.65-2.8q10.8-2.95 18.3-6.05 10.9-4.55 21.25-10.4 10.1-5.7 15.55-10.25l5.85-2.05" fill="#00b8ee"/>
  <path d="m4.05 165.15q4.5 4.05 11.7 5.45 8.25 1.65 18.45-0.65 10.7-2.4 23.4-12.4 12.4-9.75 18.15-19.9-4.35 12.2-10.2 19.35-6.7 8.35-11.95 12.35-6.55 5-15.55 7.5-9.6 2.65-20.6-1.15-10.95-3.8-13.4-10.55" fill="#00a0cf"/>
  <g fill="#0d131a">
   <path d="m42.7 0.2q9.45 1.05 16.2 6.25 7.45 5.75 9.2 15.2 2.05 10.7-3.75 24.6-0.55 1.35-0.95 1.2-0.45-0.2 0.1-1.5 5.1-13.25 3.05-23.45-1.8-8.9-8.75-14.35-6.3-4.9-15.15-5.85-8.5-0.9-16 2.15-11.75 4.85-18.5 17.8-6 11.5-6 24.7 0 14.7 8.05 25.65 8.1 11.05 22.65 15.95l-0.4 1.65v-0.2q-15.1-5.05-23.7-16.45-8.5-11.35-8.75-26.55-0.2-13.95 6.05-25.85 7-13.3 19.65-18.6 7.9-3.3 17-2.35"/>
   <path d="m76.3 14q-2.7-7.15-10.85-10.2-8.1-3.1-19-1.25l-2.85-1.3q12.25-2.75 21.75 0.65 9.25 3.3 12.55 11.15 3.25 7.65 0.3 17.05-2.45 7.85-8.7 15.65-0.85 1.1-1.3 0.85-0.4-0.3 0.45-1.4 5.7-7.5 7.9-15.05 2.55-8.85-0.25-16.15"/>
   <path d="m43.45 19.65 3.5 1q-12.75 2.8-20.2 12.4t-6.35 21.9q1.5 16.55 15.3 23.95-0.3 0.3-0.6 1.45-14.9-7.85-16.45-25.35-1.1-12.2 5.8-22t19-13.35"/>
   <path d="m133.5 31.35q3.75 1 6.15 4 2.5 3.05 2.5 6.95 0 5.9-4.4 9.05-3.6 2.55-7.45 2.1-3.75 12.4-11.85 21.15l-0.9-1.55q3.6-3.4 6.7-8.7 3.25-5.5 5.05-11.45l0.2-0.6 0.5-0.1q3.9 0 6.85-2.2 3.6-2.75 3.55-7.7-0.05-3-1.75-5.5-1.65-2.45-4.3-3.55l-0.85-1.9"/>
   <path d="m35.25 79.9-0.45 1.5-0.85-0.35 0.55-1.5 0.75 0.35"/>
   <path d="m122.25 87q-3.35-15.35-18.4-27.15-15.2-12-34.5-14.1-0.65-0.05-0.25-0.7 0.4-0.7 0.9-0.6 20.55 2.5 35.95 14.65 14.95 11.75 18.55 27.2 3.05 13.25-5.5 22.7-8.2 9.15-23.85 11.4-1.5 0.25-1.6-0.25-0.1-0.45 1.5-0.75 14.2-2.75 21.7-10.85 8.3-8.85 5.5-21.55"/>
   <path d="m56.1 48.2q1.45-1.45 1.85-5.95 0.25-3.2 0-6.8-0.5-8.15-7.8-12.7-7.7-4.75-16.85-1.15-8.4 3.35-13.35 11.35-4.95 7.95-4.95 18.05 0 9.45 4.65 16.6 4.95 7.7 14.85 11.95l-0.55 1.5q-10-4.2-15.15-11.7-5.3-7.7-5.3-18.35 0-10.6 5.15-19 5.2-8.45 14.05-11.95 9.55-3.75 17.8 0.9 8.35 4.7 8.95 14.4 0.3 3.95-0.3 7.85-0.6 4.3-1.95 5.7-19.2 20.2-23.1 38.95-2.8 13.3 2.25 24.95 4 9.15 11.55 13.15 7.4 3.95 17.4 2.5 5.2-0.75 14.25-4.15 2-0.75 2.1-0.25 0.05 0.45-1.85 1.3-2.95 1.45-6.6 2.65-4.3 1.45-7.85 1.95-22.25 3.25-31-15.95-3-6.45-3.4-13.75-0.6-9.3 3-19.2l0.85 0.35 0.45-1.5-0.75-0.35q6.1-15.35 21.6-31.35"/>
   <path d="m131.5 29.8q-3.25-3.25-7.85-3.25-4.55 0-7.85 3.25-3.25 3.3-3.25 7.85 0 4.45 3.05 7.7 3 3.25 7.35 3.5l1.3 0.15q0.4 0.2 0.1 1.15-3.15 9.85-10.9 17.05l-1.25-1.2q7.9-7.25 10.65-15.85-5-0.4-8.45-3.95-3.55-3.6-3.55-8.6 0-5.35 3.75-9.15 3.75-3.9 9.25-3.9 5.25 0 8.85 3.85 3.5 3.8 3.75 9.4 0.15 4.15-2.35 7.3-1.7 2.05-4.95 3.95-4.05 13.35-12.35 22.85l-1.15-1q8.75-9.25 12.15-21.95 0.2-0.85 0.8-1.1 2.7-1.45 4.4-4.2 1.75-2.85 1.75-6 0-4.55-3.25-7.85"/>
   <path d="m166.2 136.55 4.6-0.2q1.6 0.2 2.6 1 1.55 1.3 1.7 3.7 0.2 4.3-2.2 8.85-2.5 4.8-7.05 8.15-11.2 8.25-27.85 3.8-9.25-2.5-18.95-10.05-8.7-6.75-14.95-15.2-1.4-1.9-1-2.4 0.5-0.5 1.15 0.45 5.5 7.95 14.7 15.05 10.15 7.8 19.5 10.3 15.35 4.1 26.1-3.5 4.35-3.05 6.75-7.45 2.3-4.1 2.1-7.95-0.05-1.65-1.05-2.4-1.45-1.25-5.9-0.65l-11.55 1.45q-13.25 1.1-26.75-3.05-14.95-4.55-33-16.25-0.4-0.25 0.3-0.6l1.15-0.05q15.1 10.1 29.8 14.75 14.9 4.8 28.4 3.65l11.4-1.4"/>
   <path d="m94.9 132.8q-0.5-3-1.85-4.8-1.45-1.9-3.3-1.6-1.65 0.25-2.5 2.6-0.85 2.25-0.55 5.35 0.3 2.8 1.85 4.9 1.6 2.2 3.45 2 1.45-0.15 2.4-2.1 1.1-2.4 0.5-6.35m-1.25-5.8q1.9 2.05 2.5 5.6 0.7 4.55-0.8 7.25-1.25 2.15-3.2 2.35-2.2 0.25-4.2-1.8-2.2-2.25-2.5-6-0.3-3.8 0.95-6.25 1.15-2.3 3.2-2.7 2.2-0.4 4.05 1.55"/>
   <path d="m93 148.35q0.2-1.65-0.4-2.75-0.55-1-1.4-1.1-0.95-0.05-1.75 1t-0.85 2.6 0.5 2.7 1.45 1.25q0.75 0.05 1.45-0.85 0.8-1.05 1-2.85m-5.65-0.3q0.1-1.85 1.25-3.15t2.65-1.25q1.35 0.1 2.25 1.45 0.9 1.4 0.7 3.4-0.25 2.3-1.45 3.5-1 1.05-2.25 0.9-1.4-0.15-2.3-1.5t-0.85-3.35"/>
   <path d="m95.9 81.25q1.25-4.9 5.15-6.15 3.55-1.15 7.2 1.4 4.15 2.85 5.95 9.15 2 7-0.25 11.8-1.75 3.75-4.85 4.55-3.25 0.85-6.85-1.95-4-3.1-5.85-9.2-1.6-5.15-0.5-9.6m1.35 0.35q-0.85 4.05 0.65 8.85 1.75 5.65 5.1 8.55 3 2.65 5.85 1.9 2.6-0.65 3.95-4.2 1.7-4.4-0.1-10.7-1.5-5.25-4.85-8.05-3.3-2.8-6.45-1.8-3.25 1.05-4.15 5.45"/>
   <path d="m55.75 97.8q-3.3-2.35-6.3-1.1-2.95 1.3-3.65 5.45t1.25 8.9q2 5 5.75 7.6 3.55 2.45 6.35 1.45 2.75-0.95 3.45-4.85 0.8-4.25-1.4-9.9-1.95-5.15-5.45-7.55m-6.75-2.1q3.5-1.5 7.2 0.8 4.05 2.5 6.3 8.35 2.5 6.45 1.25 11.15-1.05 4.05-4.2 5.15-3.55 1.25-7.7-1.45-4.25-2.8-6.35-7.95-2.1-5.25-1.1-9.9 1.05-4.65 4.6-6.15"/>
   <path d="m79.7 114.5c-1.8 0-3.25-0.36667-4.35-1.1-0.53333-0.33333-0.66728-0.60034-0.5-0.9 0.17891-0.32049 1.1-0.05 1.1-0.05 0.93333 0.46667 2.1667 0.66667 3.7 0.6 1.6667-0.0667 3.3833-0.43333 5.15-1.1 1.5667-0.6 2.9333-1.35 4.1-2.25 1.2333-0.93333 2.0667-1.9167 2.5-2.95 0.23333-0.56667 0.48333-0.83333 0.75-0.8 0.3 0.0333 0.4 0.35 0.3 0.95-0.23333 1.3-1.0167 2.55-2.35 3.75-1.3333 1.1667-2.9167 2.0833-4.75 2.75-2 0.73333-3.8833 1.1-5.65 1.1"/>
   <path d="m98.95 59.6c-1.3667-0.7-2.8167-0.86667-4.35-0.5-1.4 0.3-2.4167 1.0167-3.05 2.15-0.56667 1-0.68333 2.05-0.35 3.15 0.36667 1.1667 1.3705 2.0972 2.45 2.6 1.3316 0.6203 2.99 0.66213 4.4 0.25 1.0656-0.31146 2-0.91667 2.7-1.95s0.9-2.0667 0.6-3.1c-0.33333-1.1-1.1333-1.9667-2.4-2.6m3.6 2.25c0.4 1.3667 0.15 2.7167-0.75 4.05-0.9 1.2667-2.0948 2.0588-3.45 2.45-1.7321 0.49994-3.76 0.44867-5.4-0.3-1.3724-0.62654-2.6833-1.75-3.15-3.25-0.4-1.3667-0.21667-2.7 0.55-4 0.83333-1.4667 2.15-2.4 3.95-2.8 1.8333-0.43333 3.5833-0.21667 5.25 0.65 1.5667 0.8 2.5667 1.8667 3 3.2"/>
   <path d="m108.15 62.3 0.6 0.95q-1.4 1-1.5 3.2-0.05 2.15 1.15 3.45 1.45 1.55 3.55 1.75 1.8 0.2 2.9-0.65 0.45-0.3 0.7-0.95l0.4 0.4 0.25 0.75-0.65 0.75q-1.55 1.15-3.9 0.9-2.6-0.25-4.25-2.05-1.6-1.75-1.4-4.45 0.25-2.75 2.15-4.05"/>
   <path d="m97.7 68.1q-0.1-0.2 0.4-0.5l0.6-0.05q2.35 4.35 3.25 7.7 0.1 0.2-0.55 0.45l-0.7-0.05q-1.1-3.85-3-7.55"/>
   <path d="m109.4 71.5 0.65 0.05q0.5 0.25 0.4 0.45-1.95 3.65-2.9 4.7-0.15 0.2-0.7-0.2-0.55-0.35-0.35-0.5 1.6-1.9 2.9-4.5"/>
   <path d="m38 84.85q0.15 1.65 1.35 2.7 1.15 1.05 2.85 1.1 2.45 0.05 4.15-1.55t1.7-4q0-2.3-1.5-3.7t-3.6-1.15q-2.35 0.25-3.8 2.35-1.4 2-1.15 4.25m0.55 3.65q-1.55-1.35-1.75-3.55-0.3-2.65 1.4-5 1.75-2.5 4.65-2.85 2.7-0.4 4.75 1.35 2 1.75 2 4.6 0 2.65-1.95 4.65-2.15 2.15-5.45 2.15-2.15 0-3.65-1.35"/>
   <path d="m32.5 92c0.63333-0.3 1.3-0.43333 2-0.4 1.5 0.06667 2.7333 0.71667 3.7 1.95 1 1.2667 1.4667 2.85 1.4 4.75-0.03333 1.6333-0.7 3.0333-2 4.2-1.2333 1.1333-2.5667 1.6667-4 1.6l-0.95-0.15c-0.13333-0.0333-0.15-0.23333-0.05-0.6l0.35-0.5 0.7 0.1c1.0333 0.0667 2.0167-0.35 2.95-1.25 0.96667-0.93333 1.4667-2.0333 1.5-3.3 0.06667-1.5667-0.25-2.8833-0.95-3.95s-1.6167-1.6333-2.75-1.7c0 0-0.9046-0.06465-1.45 0.25-0.13333 0.06667-0.28333-0.06667-0.45-0.4-0.16667-0.33333-0.16667-0.53333 0-0.6"/>
   <path d="m44 89.05 0.5-0.35 0.6-0.1q0.7 3.2 3.4 8 0.15 0.25-0.5 0.55l-0.8 0.1q-0.7-1.25-1.65-3.65-1.1-2.65-1.55-4.55"/>
   <path d="m45.15 102.5q0.25 0.1 0.05 0.7l-0.4 0.5q-4.3-1.4-6.45-3.1-0.2-0.15 0.15-0.7 0.35-0.6 0.55-0.45 2.4 1.85 6.1 3.05"/>
   <path d="m103.85 85.6q0.55-0.15 1.2 0.65 0.7 0.9 1.25 2.6 0.45 1.4 0.35 2.6-0.05 1.25-0.65 1.45-0.55 0.2-1.25-0.75-0.7-1-1.2-2.55t-0.4-2.7 0.7-1.3"/>
   <path d="m53.6 104.4c0.36667-0.16667 0.81667 0.0167 1.35 0.55 0.53333 0.53333 0.98333 1.3 1.35 2.3 0 0 0.72072 1.8382 0.7 2.8-0.01011 0.46923-0.1 1.1833-0.4 1.35-0.4 0.16667-0.86667-0.0333-1.4-0.6-0.53333-0.56667-1-1.3667-1.4-2.4-0.4-1-0.61667-1.8667-0.65-2.6-0.03333-0.73333 0.11667-1.2 0.45-1.4"/>
  </g>
  <path d="m102.2 86c-0.7-0.33333-1.15-0.85-1.35-1.55-0.23333-0.66667-0.21667-1.3333 0.05-2 0.26667-0.63333 0.76139-1.0907 1.35-1.3 0.56727-0.20175 1.2628-0.12197 1.8 0.15 0.61127 0.3095 1.15 0.85 1.35 1.55 0.23333 0.66667 0.21667 1.3167-0.05 1.95s-0.76037 1.0935-1.35 1.3c-0.87978 0.30805-1.8-0.1-1.8-0.1" fill="#fff"/>
  <path d="m51.85 104.95c-0.6-0.23333-1.0333-0.68333-1.3-1.35-0.23333-0.66667-0.21667-1.2833 0.05-1.85 0.26667-0.6 0.70822-0.9998 1.25-1.2 0.54806-0.20252 1.2192-0.14412 1.75 0.1 0.54617 0.25117 0.98333 0.7 1.25 1.3 0.2 0.63333 0.18333 1.25-0.05 1.85-0.26667 0.6-0.70196 1.0176-1.25 1.2-0.86463 0.28775-1.7-0.05-1.7-0.05" fill="#fff"/>
  <path d="m71.5 127.45q0.25-0.2 0.85 0.15 0.55 0.35 0.3 0.55-14.7 11.1-33 18.95-14.3 6.15-29.8 9.9-3.45 0.9-4.5 1.5-2.1 1.3-1.75 3.9 0.3 2.25 2.4 4.85 2.3 2.75 5.85 4.8 6.3 3.65 14.1 4.3 8.95 0.75 17.75-2.75 12.1-4.85 21.9-18.15 8.4-11.5 11.65-23.85 0.4-1.45 0.9-1.35t0.15 1.55q-3.2 13.25-11.35 24.9-9.7 13.75-22.65 18.95-8.95 3.55-18.3 2.75-8.25-0.7-15-4.55-3.9-2.2-6.45-5.5-2.35-3-2.75-5.65-0.5-3.15 2.05-4.95 1.7-1.2 5.65-2.2 35.4-8.9 62-28.1" fill="#0d131a"/>
  <path d="m6.15 161.8c-0.33333-0.73333-0.05-1.4667 0.85-2.2 0.73333-0.56667 1.8266-1.0929 2.85-1.3 1.6741-0.33882 4.4177-0.45555 5.9364-0.21513 0.55685 0.0882 0.94906 0.22431 1.0636 0.41513 0.4 0.66667 0.08333 1.4333-0.95 2.3-0.96667 0.8-2.5114 1.4965-3.9 1.9-1.1435 0.33226-2.3436 0.43955-3.55 0.4-1.1667-0.1-1.9333-0.53333-2.3-1.3" fill="#7dccf3"/>
  <path d="m6.65 161.25c-0.13333-0.36667 0.05-0.81667 0.55-1.35 0.53333-0.56667 1.3663-0.95623 2.15-1.2 0.84722-0.26353 2.65-0.25 2.65-0.25 0.9 0.0667 1.4667 0.31667 1.7 0.75 0.26667 0.46667 0.15 0.96667-0.35 1.5-0.5 0.56667-1.4608 1.0331-2.3 1.3-0.94192 0.29954-1.9991 0.38391-2.95 0.3-0.8-0.13333-1.2833-0.48333-1.45-1.05" fill="#bae2f8"/>
  <path d="m100.25 84q-0.3 2.75 0.9 6.2 1.45 4 3.5 5.85 1.85 1.65 3.35 1.1 1.35-0.5 1.7-3.05 0.35-2.8-0.8-6.4-1.2-3.75-3.3-5.75-1.95-1.85-3.4-1.25-1.6 0.65-1.95 3.3m-0.25 6.65q-1.35-3.9-0.85-7.1 0.55-3.1 2.6-3.9 2.1-0.8 4.45 1.1 2.55 2.05 3.95 6.5 1.25 3.9 0.75 7.05-0.55 3.15-2.5 3.9-2.05 0.75-4.35-1.1-2.5-2.05-4.05-6.45" fill="#0d131a"/>
  <path d="m58.5 106.4q-1.55-3.6-3.7-5.3-1.95-1.55-3.35-0.85-1.3 0.65-1.35 3.2-0.15 2.75 1.3 6.3 1.4 3.55 3.5 5.35 1.9 1.6 3.3 1.05 1.6-0.7 1.65-3.45 0.1-2.8-1.35-6.3m-3.4-6.65q2.6 1.75 4.5 6.2 1.85 4.25 1.3 7.6-0.45 2.85-2.25 3.6-1.95 0.85-4.35-1-2.5-1.95-4.1-5.95-1.4-3.35-1.35-6.45 0.05-3.5 2.15-4.5 1.9-0.95 4.1 0.5" fill="#0d131a"/>
 </g>
</svg>
