<?xml version="1.0" encoding="UTF-8"?>
<svg version="1.1" viewBox="0 0 148.77 323.99" xmlns="http://www.w3.org/2000/svg">
 <g transform="translate(-.034375 .028125)">
  <g fill="#76161b">
   <path d="m81.7 27.8 5.9 0.3q1.65 1.25 0.2 14.95 2.7 3.65 3.7 8.5 0.75 3.9 0.2 6.5-6.25-1.25-12.3 1.2-5.8 2.3-9.75 7.3-3.15-3.55-7.6-5.5-3.65-1.55-7.5-1.8-3.45-0.25-7.6 1.3-4.4 1.6-7.5 4.5-2.55-4.7-7.6-7.5-5.25-2.95-11.05-2.5 0.35-4.55 2.4-9.5 1.9-4.5 4-6.75l-0.05-8.6q0.35-5.85 2.15-6.6 1.9-0.8 6.55 1.35 3.65 1.65 7.1 4.15 5.6-1.9 13.85-1.85 8.85 0.05 14.9 2.55 5.6-1.5 10-2"/>
   <path d="m31.45 57.3q-9.8-1.7-15.75 3.45-4.75 4.15-5.3 10.35-0.55 5.75 1.95 11 3.2 6.6 10.7 10.5-9.45-1.95-14-9.5-4.65-7.8-1.65-17.75 2.05-6.75 9.15-9.2 7.2-2.5 14.9 1.15"/>
   <path d="m95 64.05q-5.9-5.55-15.8-4.9 8.3-2.75 15.3 0 7.8 3 10.25 11.85 3.5 12.85-6.65 21.25-4.25 3.5-9.75 4.95-5.45 1.4-10.3 0.25 10.75-1.25 16.75-7.3 5.7-5.85 5.45-14.35-0.2-6.95-5.25-11.75"/>
  </g>
  <path d="m92.6 62.15q7.5 5.05 7.65 14.95 0.1 7.5-5.95 13.45-6.25 6.15-15.55 6.9-2.75-0.2-5.85-1.4-3-1.2-4.55-2.65 0.1 5.8-1.25 15.45-1.2 8.75-2.85 15.5-6.35 6.5-11.15 12.55-5.55 7-8 12.15-2.4 0.25-6 1.35-3.75 1.2-6.45 2.65-2.25-4.1-3.45-15.5-1-9.25-0.8-15.95 1.55-5.7 4.75-28.05-9.1 1.4-16.25-5.4-7.25-6.9-6.5-16.7 0.5-6.9 6.4-11.35 6.5-4.9 15-2.55 2 0.95 4.2 3.1t3.45 4.4q3.95-2.95 7-4.3 3.85-1.7 7.75-1.6 4 0.05 8.4 2.35 3.95 2 7.05 5.05 5.45-5.9 9.55-7.4 7-1.35 13.4 3" fill="#f4e8d0"/>
  <path d="m45.75 42.9 1.7 6.4q-4.55-2.6-8.2 0.05-3.95 2.85-4.25 10.3-1.75-1.5-4.45-2.85 0.2-7.25 4.8-11.55 4.65-4.4 10.4-2.35" fill="#ffe45f"/>
  <path d="m42.3 33.45 1.7 4.05q-6.85-0.8-11.9 4.55-5.05 5.3-5.3 13.45l-3.05-0.5q-0.25-6.45 4.6-13.4 5.7-8.15 13.95-8.15" fill="#4e5143"/>
  <path d="m44 37.5 1.75 5.4q-5.75-2.05-10.4 2.35-4.6 4.3-4.8 11.55l-3.75-1.3q0.25-8.15 5.3-13.45 5.05-5.35 11.9-4.55" fill="#e50012"/>
  <path d="m39.45 65.05q-1.7-2.95-4.45-5.4 0.3-7.45 4.25-10.3 3.65-2.65 8.2-0.05 1.45 6.05 1.9 10.45-2.2 0.55-5.4 2.35-2.9 1.6-4.5 2.95" fill="#e50012"/>
  <path d="m67.5 44.3q5.05-0.1 8.4 4 3.5 4.35 3.05 11.05l-3.45 1.85q-0.55-13.8-10.55-12.15l2.55-4.75" fill="#ffe45f"/>
  <path d="m88.05 57.65-4.05 0.25q-0.1-7.5-3.6-12.5-3.85-5.55-10.3-5.5 1.8-2.9 3.4-4.65 6.75 0.8 10.75 7.5 3.7 6.2 3.8 14.9" fill="#4e5143"/>
  <path d="m70.1 39.9q6.45-0.05 10.3 5.5 3.5 5 3.6 12.5-2.4 0.35-5.05 1.45 0.45-6.7-3.05-11.05-3.35-4.1-8.4-4l2.6-4.4" fill="#e50012"/>
  <path d="m75.5 61.2q-3.3 2.1-5.55 5.4-5.85-5.3-10.15-6.5 2.55-5.95 5.15-11.05 10-1.65 10.55 12.15" fill="#e50012"/>
  <path d="m46.25 60.8q3.8-1.7 8.3-1.55 4.2 0.1 7.5 1.7 1.05 1.5-2.75 3.8-3.7 2.2-5.9 2-2-0.15-4.95-2.55-2.95-2.45-2.2-3.4" fill="#4e5143"/>
  <g fill="#76161b">
   <path d="m68.35 93.4q3 2.45 7.75 3.65 3.95 1 7.15 0.8l0.45 11.05 0.6 11.35q-1.35-2.05-3.45-4.25-2.4-2.4-3.35-2.3-1.9 0.25-6.8 4.55-3.4 2.95-7 6.65 2.25-5.65 3.65-17.65 1.1-9.5 1-13.85"/>
   <path d="m69.65 148.45q0.95-2.55 2.7-5.1 2.25-3.3 4.05-3.5 1.75-0.2 5.85 6.4 2.55 4.15 4.7 8.5 0.55 8.7 4.45 38.8 3.55 27.55 5.75 41.6 1.5 9.75 1.3 14.55-0.25 7.75-3.85 15.95-2.35 5.35-9.5 13.75-6.65 7.8-10.65 10.65l-3.95 2.2q-3.45 1.7-4.55 2.4-0.65-1.3-1.25-3.55-0.65-2.55-0.8-4.65-2.95 1.05-6.45 5.55 0.7-7.8-4.25-11.85-2.9-2.35-6.45-6.45-1.95 2.75-6.25 6.55-4 3.5-7.35 5.65-0.25-1.9-1.7-5.65l-3.2 2.8-3.4 2.4q-13.5-16.85-18.95-31.8-4.9-13.5-4.7-30.05 0.15-7.9 4.5-23.5 3.25-11.55 8.35-25.8-4.9 1.2-6.7-0.6-1.1-1.1-1.2-3.9-0.55-12.25 6.6-24.5 6.2-10.6 14-15.3l-4.2 17.7q1.8 0.4 5.25 2.7 1.85 1.25 4.55 3.25l20.7 0.15q8.15-2.95 16.6-5.35"/>
   <path d="m129.3 69.3q0.85 13.05 0.8 30.65 0 15.4-0.65 26.7-1.3 24-6.4 48.8-8.45 41-24.75 68.55-0.2-3.05-2.1-16l-2.5-16.5q7.45-14.15 13.7-45.7 4.7-24.05 6.1-41.45 2.6-32.85 1.4-55.05 2.85 1.65 7.35 1.8 4.9 0.15 7.05-1.8"/>
  </g>
  <g fill="#ffe45f">
   <path d="m129.6 78.25q0.7 13.95 0.55 21.6-2.9 2-7.05 2.25-5.05 0.35-7.9-2.7 0.35-14.85 0-21.4 2.5 1.9 6.65 2.2 4.6 0.3 7.75-1.95"/>
   <path d="m129 131.25q-2.75 2.35-7.8 2.45-5.45 0.1-8.05-2.9l1.75-23q2.1 2.95 6.95 3.3 4.95 0.35 8.2-2.4 0 5.75-1.05 22.55"/>
   <path d="m76.4 139.85q-1.65 0.25-3.95 3.6-1.2 1.75-3.15 5.35-2.15 0.45-8.1 2.3l-8.15 2.7q-4.3-5.35-7.55-4.85 2.6-7.55 16.1-21.65 12.8-13.45 15.9-13.6 0.95-0.05 3.35 2.3l3.2 3.45q0.4 6.1 1.55 18.75l1.75 17.7q-2.05-4.75-5.3-9.95-3.95-6.3-5.65-6.1"/>
   <path d="m28.45 120.85q-0.1 6.3 0.8 15.55 1.25 12.25 3.6 17.75l-5.3-4.25q-2.95-2.05-5-2.2l2.95-12.65 2.95-14.2"/>
   <path d="m7.2 194.1 2.95-8.65q2.05-5.75 3.05-7.45l4.45 1.8 1-6.6 2.35-0.75 2.5-1.15q2.6 3.6 6.05 6.75 3.4 3.1 5.9 4.3l7.8 0.25 9.6-1.4-1.25 4.6q6.3 1.45 19.8-0.95 13.35-2.4 18.15-5.7l1.15 9.2 0.9 8.15q-7.15 4.45-18.6 6.95-11.3 2.5-23.6 2.45-28.35-0.1-42.2-11.8"/>
   <path d="m92.9 206.15q0.8 6.45 2.95 20.6-8.2 4.4-21.75 6.55-13.2 2.15-27.4 1.55-14.85-0.6-26.4-4-12.7-3.7-18.75-10.05 0-3.45 1.15-9.6 1-5.5 2.05-8.85 4.5 5.1 15 8.5 10.25 3.25 23.25 4.05 29.8 1.85 49.9-8.75"/>
  </g>
  <g fill="#fff">
   <path d="m46.1 80.95q4.75-7.15 7.1-7.35 1.45-0.05 4.1 2.4 2.35 2.2 4.35 5.1-1.3 2.35-3.85 5.25-2.75 3.1-3.9 3.15-1.1 0.1-3.75-2.85-2.55-2.85-4.05-5.7"/>
   <path d="m34.25 152.3q2.7-1.25 6.05-2.25 4.2-1.2 6.3-0.9 2.15 0.3 5.15 3.4 2.65 2.8 4.1 5.65-3.1-0.45-5.65-0.1l1 5.2q-2-1.35-8.45-4.25 0.15 1.85-0.35 5.7-2.2-2.75-8.5-9.35-0.8-0.85-0.65-1.75t1-1.35"/>
   <path d="m142.55 23.8-5.05 6.1q4.15 1.6 8.45 2.05-1.75 2.3-7.65 7.65-5.65 5.15-7.75 6.45-2.5 1.65-2.3 4.4l1.1 19.2q-2.8 1.3-6.55 1.45-4.75 0.25-7.65-1.85-1.2-13.75-3.1-27.35-2.5-17.8-4.75-23.65 1.15 0.3 2.65 1.45 1.85 1.35 2.95 3.05 1.05-5.15 2.8-9.4 1.7-4.1 3.65-6.25l1.8 3.6 1.8 4.15q6.45-9 13.7-13.5l-1.05 8.05q-0.7 6.6-0.7 9.05 2.35-0.75 6.15-1.2l6.65-0.5-5.15 7.05"/>
   <path d="m39.85 280.9q-1.75 4.9-2.25 13-0.4 6.85 0.2 10.85 0.2 1.4-0.4 2.3-0.55 0.8-1.85 1.35-4.45 2.05-10.75 4-7.1 2.2-7.65 1.2-0.25-0.45 0.55-2.05 0.75-1.55 1.75-2.8-4.1 1.4-6.55 1.8-2.4 0.35-2.65-0.35-0.2-0.5 0.65-1.9 0.8-1.3 1.9-2.35l-2.2-0.15q-1.1-0.3-1.3-0.95t5.8-4.45q6.45-4.1 7.1-5.05 0.6-0.8 0.4-5.8l-0.5-7.7 3.15 3.5q2.8-1.6 6.2-5.1 1.15 2.25 1.95 5.8 3-1.95 6.45-5.15"/>
   <path d="m57.55 292.25q1.05-1.9 3.1-3.7 1.75-1.55 3.25-2.25 0.05 1.8 0.8 4.5 0.65 2.35 1.4 4.05 1.5-1.4 5.2-3.4l4.9-2.55q-3.5 5.3-5.65 14.55-1.85 8.1-1.5 12.7 0.15 1.75-0.3 2.65-0.5 1-2.05 1.7-1.5 0.7-5.6 1.5l-6.1 0.9q-2.45 0.15-1.5-2.4-2.85 1.45-6.35 2.25l-3.45 0.3q-0.3-0.25-0.25-1.05 0.1-0.75 0.45-1.4-1.85 0.2-3.85 0-2.3-0.2-2.4-0.75-0.15-1 6.85-6.65 8-6.4 9.05-7.75 1-1.25 2.2-5.8l1.8-7.4"/>
   <path d="m21.65 147.75q2.2 0.05 3.8 1-3.45 0.25-5.85 1.9-2.55 1.7-3.45 4.65-0.45-2.1-0.05-4.1 0.5-2.2 1.9-2.85 1.6-0.65 3.65-0.6"/>
  </g>
  <path d="m44.05 54.3q1 0 1.65 1.1 0.7 1.1 0.75 2.95 0 1.4-0.45 2.35-0.3 0.75-1.6 1.2l-1.45 0.2q-1.45-1.1-1.35-3.9 0.05-1.9 0.8-2.95 0.65-1 1.65-0.95" fill="#0d131a"/>
  <path d="m67 55.9q1 0 1.65 1.15t0.7 3q0.05 1.95-0.6 3.1t-1.65 1.15q-0.9 0-1.6-1.1-0.8-1.2-0.85-3.05-0.05-1.9 0.6-3.1 0.65-1.15 1.75-1.15" fill="#0d131a"/>
  <path d="m43.9 37.5 1.55 5.05-1.5-0.25-1.2-4.85 1.15 0.05" fill="#c6000b"/>
  <path d="m45.3 48.35 1.95 1 2.15 10.3-2.3 0.8q-0.2-4.45-1.8-12.1" fill="#c6000b"/>
  <path d="m42.3 33.4 1.6 4.1-1.15-0.05-1.05-4.05h0.6" fill="#3b3e33"/>
  <path d="m45.45 42.55 1.8 6.8-1.95-1-1.35-6.05 1.5 0.25" fill="#dcc552"/>
  <path d="m64.75 49.35 2.6-0.35q-3.6 7.8-4.8 12.05l-3.1-1.1 5.3-10.6" fill="#c6000b"/>
  <path d="m70.2 39.95 1.45 0.05-2.15 4.45-1.9-0.2 2.6-4.3" fill="#c6000b"/>
  <path d="m73.9 35.45-2.25 4.55-1.45-0.05 3.1-4.6 0.6 0.1" fill="#3b3e33"/>
  <path d="m64.75 49.35 2.85-5.1 1.9 0.2-2.15 4.55-2.6 0.35" fill="#dcc552"/>
  <path d="m48 83.45q1.35 1.35 3.35 2.45 1.75 1 2.35 1 0.95-0.05 2.7-0.9 1.6-0.8 2.95-1.8l-2.9 3.4q-1.95 1.95-2.75 1.9-0.85-0.05-2.7-2.05-1.75-1.9-3-4" fill="#dbdcdc"/>
  <path d="m105 72.4q1.85 13.05-7.1 20.05-7.55 5.95-18.35 5.2 5.85-1.3 10.45-4.05 4.75-2.85 7.3-6.75 3.5-3.1 5.5-6.8 2.1-3.8 2.2-7.65" fill="#5c070c"/>
  <path d="m97.3 86.85q-2.55 3.9-7.3 6.75-4.6 2.75-10.45 4.05-4.05-0.25-7.25-1.6-3.3-1.4-4.9-3.6 7.95 3.05 16.35 1.2 7.7-1.7 13.55-6.8" fill="#d3c9b5"/>
  <path d="m11.85 80.8q3.1 7.2 10.5 12.1-7.45-2.1-11.75-7.55-5-6.3-4.35-15.65 1.2 6.1 5.6 11.1" fill="#5c070c"/>
  <path d="m39.25 91.45q-3.3 1.9-7.8 2.3-4.55 0.4-9.1-0.85-7.4-4.9-10.5-12.1 4.8 5.6 11.95 8.5 7.5 3.05 15.45 2.15" fill="#d3c9b5"/>
  <path d="m32.9 94.8 0.15-1.45 3.2-0.75 3-1.15q2.5-1.35 3.05-0.55 3 4.05 9.95 4.75 7.6 0.75 13.35-3.8 0.25-0.2 0.85 0t0.95 0.6l1.05 0.95q-0.05 6.15-1.15 13.75-11.8 0.5-20.85-2.45-10-3.25-13.55-9.9" fill="#d3c9b5"/>
  <g fill="#5c070c">
   <path d="m68.45 93.4q2.85 2.35 6.9 3.5 3.9 1.1 7.95 0.9l0.15 5.45q-7.15 3.5-16.15 3.9 1.1-7.6 1.15-13.75"/>
   <path d="m6.15 167.4q1.6 3.4 4.3 3.1 5.6-0.6 10.65-3l2.3 3.6q-2.1 1-6.5 2.2l-5.95 1.25q-2.7 0.2-3.85-1.6-1.1-1.7-0.95-5.55"/>
   <path d="m15.8 153.35q2.05 6.65 9.15 14.65 7 7.85 12 9.4 5.3 1.7 15.35 0.9 9.7-0.75 17.45-3.3-4.8 2.95-15.7 5.55-12 2.9-18.35 1.8-3.65-0.6-10.75-9.15-8.35-10.15-9.15-19.85"/>
   <path d="m21.45 242.8q1.75 3.05 6.55 6.55 5.7 4.15 10.55 4.35 0 3.25 2.45 9.85 2.7 7.4 5.75 10.25-2.4 2.7-6.55 6.6-4.8 4.5-6.85 5.6-0.85-3.8-1.75-5.8l-6.55 5.25q-10.4-11.75-17.15-27-6.5-14.75-6.75-26 2 3.9 8.6 7.15 6.4 3.2 11.7 3.2"/>
   <path d="m95.7 227.35 1.3 7.9q2 9.15 1.4 17-0.7 9.65-5.3 16.4-4.3 6.3-9.65 12.5-6.25 7.25-9.5 9.05-6.65 3.45-7.9 4.55l-1.35-4.25-0.8-4.25q-3.95 2.2-6.25 5.3 0.3-8.15-4.9-11.65-4.05-2.65-8.5-9.7-5.25-8.35-5.6-15.75 5.6 4.7 12.65 5.3 6.85 0.6 13.8-2.75 15.2-7.3 22.45-27l8.15-2.65"/>
  </g>
  <path d="m92.9 206.35 2.8 21-8.15 2.65q3.95-10.65 4.4-23.15l0.95-0.5" fill="#dcc552"/>
  <g fill="#dbdcdc">
   <path d="m21.65 281.05 1.9 2.4 1.8 1.85q4-2.9 6-5.05 1.55 3.65 1.75 5.85 4.25-2.95 6.8-5.4-1.35 2.55-2.1 11.45-0.7 8.7 0 12.3 0.35 1.65-0.4 2.7-0.65 0.85-2.2 1.5-5.45 2.35-10.5 3.85-6.95 2.15-7.35 0.65 3.75-1.3 7.1-3.75 3.2-2.35 3.6-3.85 0.55-2.1-1.95-5.15t-5.15-3.6l1.35-1.75 0.4-2.2-0.25-5.1-0.8-6.7"/>
   <path d="m9.4 304.3 2.7 0.05q2.2-0.25 3.6-0.85l-2.5 2.2-3.3-0.25q-1-0.45-0.5-1.15"/>
   <path d="m11 308.8q0.3 0.55 4.85-0.8 4.4-1.3 6.2-2.4l-2.5 3-4.55 1.45-3.35 0.7q-0.85 0.05-1.15-0.5-0.35-0.6 0.5-1.45"/>
   <path d="m56.55 296.25 0.95-4.3q0.95-1.4 2.9-3.1 1.9-1.7 3.5-2.6 0.2 3.65 2.05 8.7 5.9-4 9.8-5.55-3.15 5.05-5.05 13.25-1.75 7.45-1.6 13.2 0.05 1.75-0.45 2.85-0.55 1.25-1.95 1.9t-5.65 1.5l-5.5 0.9q-1.25 0.15-1.75-0.4-0.5-0.45-0.15-1.1 4.65-0.5 8.15-2.65 3.95-2.4 4.35-5.85 0.75-6.8-1.9-11.8-2.8-5.25-7.7-4.95"/>
   <path d="m57.6 314.7q-2.85 3-4.05 5.95-5.1 1.95-6.95 2.35-3.9 0.8-2.95-1.75 0.8 0.75 6.15-1.7 5.35-2.4 7.8-4.85"/>
   <path d="m44.2 320.4q-2.55 0.45-4.75 0.05-2.4-0.45-1.55-1.75l3.7-0.25q3.05-0.75 5.2-2.05l-2.6 4"/>
  </g>
  <path d="m40.4 186.4-6.8-0.3q-4.2-1-10.8-7.6-4.15 1.5-10.95 2.9l2.1-7.2 4.7-1.15 4.85-1.6q3.1 4.1 5 6 3.65 3.75 7.2 4.9 5.15 1.7 17.1-1.2l-1 3.55q-5.55 1.4-11.4 1.7" fill="#dcc552"/>
  <g fill="#5c070c">
   <path d="m69.75 175q-5.9 6.7-17.95 9.7l1-3.55q4.85-1.15 9.4-2.75 4.55-1.7 7.55-3.4"/>
   <path d="m13.95 174.2 4.65-0.95q-0.5 4.2-1.25 6.7l-4.25-2 0.85-3.75"/>
   <path d="m126.8 153.75q-1.3 18.75-11.55 50.6-9.8 30.5-16.6 39.65l-2.55-16.2-2.4-15.55q2.35-5.3 5.35-13.6 9.5-2.4 17.9-16.9 7.65-13.3 9.85-28"/>
  </g>
  <g fill="#dbdcdc">
   <path d="m119.6 7.5q-1.55 3.75-2.65 8.4-1.05 4.4-1.3 7.75-0.05 0.7-0.85 1-0.75 0.3-1.15-0.2l-0.7-1.25q0.9-4.65 2.6-9.15 2.15-5.6 4.05-6.55"/>
   <path d="m136.4 1.5-0.85 8.85-0.6 8.35-2.1 0.65-0.95-0.2q-0.4-0.3-0.3-0.9l2-8.4q1.65-6.35 2.8-8.35"/>
   <path d="m147.55 17q-4.4 6.1-10.2 13.1l-0.95-0.3q-1-0.35-1.15-1.05-0.2-0.75 0.7-1.75 7.55-8 11.6-10"/>
   <path d="m107.85 18.7q2.7 2.95 4.15 11.85 1.2 7.65 1.3 18.1l-2.55-16.35q-1.85-10.65-2.9-13.6"/>
   <path d="m145.6 31.85q-1.35 2.35-7.25 7.65l-7.45 6.3q-0.75 0.55-1.75 2.4l-1.3 2.5q-0.95-1.65-0.65-3.8 0.25-2.4 2-3.35l8.05-5.55 8.35-6.15"/>
   <path d="m34.35 152.45q1.95 1.3 4.3 4.6 2.65 3.7 3.65 7.2l-8.1-8.55q-0.95-0.95-1.05-1.65-0.1-0.9 1.2-1.6"/>
   <path d="m42.75 156.15q1.95 0.7 4.25 2.4 2.8 2.1 4.15 4.45-1.25-0.9-3.95-2.15-2.9-1.4-4.25-1.65l-0.2-3.05"/>
   <path d="m48.65 154.3q1.2 0.45 3.45 1.65l3.25 1.95q-2.7-0.25-5.05 0.05-0.65-1.9-1.65-3.65"/>
  </g>
  <g fill="#0d131a">
   <path d="m87.25 43.5q-0.15-0.15-0.15-0.45 0.95-6.1 0.6-11.8-0.1-1.75-0.6-2.4-0.6-0.65-2.25-0.6-6.85 0.4-14.55 2.7l-1.4-0.05q-0.15-0.4 1.05-0.95 3.15-1.35 7.25-2.3 4.15-0.95 7.65-1.15 2.45-0.1 3.5 1 0.95 1 1.15 3.55 0.25 3.55-1.05 11.75 2.5 2.65 3.75 7.55 1.15 4.6 0.6 8.3l-2.1-0.55q0.65-3.5-0.4-8.1-1.05-4.7-3.05-6.5"/>
   <path d="m42.9 28.25c4.5333-1.7 9.5333-2.4167 15-2.15 5.4 0.23333 10.317 1.35 14.75 3.35l-1.7 0.7c-3.8667-1.3-8.5333-2-14-2.1-5.8-0.1-10.483 0.53333-14.05 1.9l-0.5-0.05c-3.3333-2.4-6.1204-4.2949-9.65-5.3-0.91494-0.26054-2.0138-0.6037-2.85-0.15-0.76133 0.4131-1.0667 1.05-1.3 2.25-0.66667 3.5667-0.88333 7.5-0.65 11.8l-1.45 1.35c-0.3-5.3667-0.18333-9.8833 0.35-13.55 0.3-1.9333 1-3.1667 2.1-3.7 1-0.5 2.4333-0.4 4.3 0.3 2.9667 1.0667 6.1833 2.85 9.65 5.35"/>
   <path d="m22.35 45.15q2.35-5.5 5.9-7.8 0.85-0.55 1.15-0.15 0.3 0.35-0.5 0.95-2.85 2.35-4.85 7.35-1.9 4.75-2.15 9.45l-1.85 0.1q0.25-5 2.3-9.9"/>
   <path d="m61.3 60.75 1.25 0.5q0.3 0.5 0.1 1.2-0.2 0.65-0.75 1.15-1.5 1.35-4.05 2.65-2.85 1.45-4.45 1.4-1.35-0.05-3.9-1.8-2.4-1.7-3.5-3.2-0.6-0.8-0.25-1.55l1.15-0.55q-0.15 0.25-0.05 0.75l0.2 0.6q0.95 1.2 3.35 2.6 2.25 1.35 3 1.3 1.35-0.05 3.9-1.1 2.5-1.05 3.7-2.05l0.55-1q0.1-0.6-0.25-0.9"/>
   <path d="m38.7 66.65q-0.85 0.75-1.15 0.45-0.35-0.35 0.4-1.2 3.4-3.8 7.8-5.8 4.35-2 8.95-1.85 4.65 0.2 8.95 2.55 4.35 2.4 7.4 6.45 0.65 0.9 0.3 1.2t-1.1-0.5q-7.2-7.6-15.6-7.9-8.5-0.3-15.95 6.6"/>
   <path d="m65.85 45.55q4.85-8.35 8-11.7 0.95-0.95 1.3-0.65t-0.5 1.35q-2.7 3.3-7.25 11.7-4.35 8.05-6.8 14l-1.75-0.6q2.25-5.9 7-14.1"/>
   <path d="m51.4 49.1q0.25-1.1 0.7-1t0.3 1.2q-0.65 4.6-0.95 10.2l-1.65 0.1q0.3-4.6 1.6-10.5"/>
   <path d="m45.55 45.4q-2.15-8-4.45-13.15-0.5-1.25-0.1-1.45 0.45-0.2 1.05 1 2.4 4.55 4.9 13 2.3 7.85 3.35 14.6l-1.75 0.5q-0.85-6.6-3-14.5"/>
   <path d="m40.15 64.5q-0.55 0.45-1.15 0.85-2.1-3.9-6.6-6.5-4.35-2.55-9.25-2.8-6.6-0.35-11.1 4.05-5 4.95-4.6 13.8 0.5 11.4 11.5 16.6 10.3 4.85 19.75 0.65l1.2 0.05q0.2 0.4-0.7 0.9-4.55 2.45-10.35 2.4-5.65 0-10.8-2.45-12-5.6-12.6-18.1-0.45-10 5.35-15.5 5.05-4.75 12.5-4.4 5.45 0.3 10.15 3.35 4.4 2.85 6.7 7.1"/>
   <path d="m30.8 56.8 2.85 2.45q-8.05-4-15.4 0.55-7.4 4.6-7.05 13.75 0.25 7.2 4.55 12.5 4.35 5.4 11.7 7.4l-3.95-0.2q-6.3-2.6-10.1-7.75-3.85-5.25-4.1-11.85-0.35-9.3 6.65-14.3 6.65-4.75 14.85-2.55"/>
   <path d="m92.25 57.45q6.4 1.6 10.15 6.5 4.15 5.4 3.85 13.4-0.3 7.7-5.05 13.1-4.25 4.85-11 6.95-6.45 1.95-12.8 0.8-6.5-1.15-10.2-5.1-0.7-0.75-0.35-1.1 0.35-0.3 1.1 0.4 3.6 3.25 9.65 4.2 6 0.95 11.85-0.75 6.3-1.9 10.15-6.3 4.4-5 4.65-12.3 0.3-7.15-3.5-12.1-3.4-4.45-9.2-5.95-5.65-1.45-11.35 0.55-6 2.1-9.85 7.35l-1.15-1.15q4.05-5.65 10.65-7.9 6.2-2.15 12.4-0.6"/>
   <path d="m92.15 91.35q7.8-6.25 7.25-16.15-0.45-7.55-6.95-12-6.35-4.35-14.55-3.2l2.35-1.4q8.5-0.45 14.4 4.1 6.05 4.65 6.45 12.45 0.45 9.25-6 15.6-6.25 6.2-16.25 7l-3.4-0.9q9.65 0.15 16.7-5.5"/>
   <path d="m41.4 87.5q2.1-4.65 5.75-9.55 3.9-5.3 5.85-5.4 2.4-0.15 7.2 5.55 4.85 5.7 6.45 10.6 0.4 1.1-0.1 1.25-0.45 0.15-0.85-0.9-1.7-4.2-6.35-9.45-4.5-5.15-6.2-5.05-1.35 0.1-5.05 4.8-3.55 4.5-5.75 8.6-0.55 0.95-1 0.75-0.4-0.2 0.05-1.2"/>
   <path d="m53.95 73.65h-1.5q-0.15-3.3 0.2-6.85l1.5 0.1q-0.35 4.05-0.2 6.75"/>
   <path d="m53.7 88.7q0.95 0 3.45-2.8 2.35-2.7 4-5.45l0.9 1.4q-1.65 2.65-4 5.3-2.95 3.4-4.4 3.4-1.15 0-3.95-3.2-2.7-3.1-4-5.7l0.95-1.45q1.2 2.5 3.85 5.55 2.45 2.85 3.2 2.95"/>
   <path d="m41.85 91.25c-0.4-0.56667-0.48333-0.95-0.25-1.15 0.26667-0.16667 0.61667 0.01667 1.05 0.55 2.0333 2.3333 6.0913 3.5929 9.5 4.2 2.3183 0.41292 7.05-0.45 7.05-0.45 2.2333-0.56667 4.1667-1.4667 5.8-2.7 0.56667-0.43333 0.95-0.51667 1.15-0.25 0.2 0.23333 0.03333 0.58333-0.5 1.05-1.6333 1.5333-3.6833 2.6833-6.15 3.45-2.5 0.76667-5.0333 1.0167-7.6 0.75-2.1667-0.23333-4.1333-0.83333-5.9-1.8s-3.15-2.1833-4.15-3.65"/>
   <path d="m41.9 32.9 0.6 1.1q-6.85-0.2-12.25 6.1-5.35 6.3-5.85 14.95l-1.2-0.1q0.55-9.2 5.85-15.5 5.35-6.45 12.85-6.55"/>
   <path d="m43.7 37.2 0.35 1.25q-6.4-1.25-11.45 3.95t-5.15 13.25l-1.2-0.2q-0.05-8.6 5.4-14.1 5.3-5.35 12.05-4.15"/>
   <path d="m45.25 42.1 0.35 1.4q-4.85-2.1-9.75 2.25-5.05 4.45-4.65 11.45l-1.15-0.5q-0.15-8.15 5.2-12.45 4.85-3.95 10-2.15"/>
   <path d="m39.75 49.9q-4.4 3.2-4.2 10.15l-1.2-0.9q-0.05-7.55 4.7-10.8 4.45-3.05 8.05 0.3l0.35 2.05q-3.4-3.95-7.7-0.8"/>
   <path d="m75.95 60.8-1.15 0.85q0.25-7-3-10.15-3.05-3-7.4-1.1l0.65-1.45q4.35-1.65 7.45 1.05 3.6 3.15 3.45 10.8"/>
   <path d="m67.35 44.9 0.6-1.2q5.35-0.25 8.7 3.85 3.6 4.4 2.85 11.5l-1.05 0.45q0.7-6.95-3-11.2-3.35-3.9-8.1-3.4"/>
   <path d="m84.35 58-1.15 0.1q0.25-7.55-3.65-12.75-3.95-5.25-9.7-4.75l0.55-1.2q6.6-0.35 10.5 5.2 3.75 5.3 3.45 13.4"/>
   <path d="m88.4 57.8-1.1-0.05q0.35-8.1-3.4-14.35-4.15-6.9-11.05-7.35l0.8-1.05q7.3 0.8 11.35 7.4 3.85 6.3 3.4 15.4"/>
   <path d="m13.1 174.3 2.3-0.35-6.2 18.2q-8.25 23.3-6.65 41.95 2.2 26.1 22.85 50.25 3.6-2.6 5.75-4.95l0.5-0.15 0.35 0.35q1 2.55 1.65 5.25 3.45-2.4 7-5.9 3.35-3.3 5.35-6.1l1.2 1.7q-2.5 3.05-6.2 6.35-3.9 3.5-7.65 5.9-0.65 0.45-0.8-0.35-0.5-2.7-1.4-5.2-2.8 3.15-5.4 4.9l-0.7 0.35-0.55-0.45q-21.4-24.8-24.1-51.2-1.95-19.4 6.5-43.2l6.2-17.35"/>
   <path d="m31.8 93.75 2.35-0.4q-1.05 10.2-4.75 28.05-2.85 13.75-6.05 26.5l-2.1-0.3q3-11.65 5.85-25.4 3.65-17.8 4.7-28.45"/>
   <path d="m20.9 280.3 1.8 1.95q0.65 3.7 0.75 7.85 0.15 4.55-0.5 5.6-0.8 1.25-7.05 5.05-5.85 3.6-5.75 4.05l1.2 0.35 2.65-0.2-1.5 1.55-2.7-0.2q-1.3-0.4-1.4-1.25-0.2-1.25 5.8-4.95 6.55-4.05 7.25-5.1 0.6-0.95 0.45-5.3-0.2-4.15-1-9.4"/>
   <path d="m10.8 307.2c1.2667-1.5 2.6833-2.7167 4.25-3.65 0.63333-0.36667 1.05-0.43333 1.25-0.2 0.16667 0.23333-0.03333 0.58333-0.6 1.05-1.2 0.93333-2.3167 2-3.35 3.2-1.0667 1.2333-1.5333 1.9833-1.4 2.25 0 0 2.1847-0.0362 3.25-0.25 2.1342-0.42829 4.2333-1.1833 6.2-2.05l-1.15 1.85c-1.8667 0.8-3.7667 1.4167-5.7 1.85-2.4667 0.5-3.8833 0.4-4.25-0.3-0.43333-0.83333 0.066667-2.0833 1.5-3.75"/>
   <path d="m36.7 291.85q0.55-5.95 2.3-10.15l2.1-1.75q-1.8 3.65-2.55 11.6-0.7 7.65 0.1 13.5 0.4 2.85-2.15 3.9-5.95 2.45-11.05 4.1-7.9 2.5-9.1 1.45-1.05-0.95 1.1-4.1 1.75-2.6 4.1-4.7 0.65-0.6 1-0.25t-0.25 0.95q-1.75 1.95-3.15 4.05-1.45 2.2-1.2 2.65 0.3 0.65 7.15-1.6 6.5-2.1 10.8-4.1l0.95-0.65q0.3-0.55 0.15-1.6-0.9-7.1-0.3-13.3"/>
   <path d="m56.95 291 1.4 0.6q-2.8 12.05-4.2 14.4-0.5 0.85-8.35 7.1-7.45 5.9-7.25 6.45 0.15 0.45 2.15 0.45l4.1-0.4-0.9 1.5-4.4 0.2q-2.45-0.25-2.7-1.35-0.3-1.2 6.95-7.25l8.7-7.7q1-1.35 2.25-5.35l2.25-8.65"/>
   <path d="m82.35 97.8 2.5-0.1q-0.05 24.7 4.6 69.15 4.3 41.45 9.55 71.9 1.35 7.95 0.7 14.35-0.7 6.35-3.5 12.1-4.95 10.1-16.65 21.8-3.6 3.6-6.2 4.65-3.4 1.35-6.8 3.85l-0.85 0.4q-0.3-0.05-0.5-0.6-1.5-3.9-1.95-7.9-2.8 1.55-5.2 5.15-0.45 0.7-0.85 0.6t-0.4-0.95q0.1-5.15-1.45-8.25-0.55-1-3.25-3.05-5.75-4.55-9.85-11.85-4.05-7.3-4.75-14.3-5.65-1.35-10.05-4.6-4.15-3.05-6.3-7-0.4-0.75-0.05-1 0.4-0.3 0.95 0.45 2.55 3.65 6.8 6.35 4.45 2.8 10.1 4.2l0.4 0.45q0.6 6.9 4.55 14 3.95 7.05 9.65 11.55 2.7 2.15 3.45 4.05 1.45 3.25 1.3 6.65 2.05-2.75 5.05-4.3l0.85-0.15 0.35 0.8q0.5 4.05 1.75 7.3 2.3-1.75 6.2-3.7l2.9-2 2.6-2.5q10.6-10.6 15.8-21.25 5.15-10.5 2.6-24.9-4.15-24.3-9-71.8-5.05-49.65-5.05-69.55"/>
   <path d="m54.1 319.45-0.85 1.9q-2.8 1.35-5.9 2.1-3.95 1-4.8-0.1-0.75-0.95 1.2-3.95 2.05-3.1 5.75-6.35 0.9-0.75 1.2-0.4 0.35 0.35-0.45 1.1-2.65 2.55-4.55 5.4-1.75 2.6-1.45 3.1 0.35 0.65 3.85-0.35 3.4-1 6-2.45"/>
   <path d="m75.3 289.1 2.6-1.6c-2.6667 4.1-4.7 8.65-6.1 13.65-1.5 5.3333-2.15 10.7-1.95 16.1 0.03333 1.0667-0.16667 1.9-0.6 2.5l-1.7 1.2c-2 1-4.7167 1.8333-8.15 2.5-3.9 0.76667-6.2333 0.66667-7-0.3-0.56667-0.73333-0.16667-2.1667 1.2-4.3 1.1667-1.8667 2.45-3.4167 3.85-4.65 0.53333-0.5 0.91667-0.63333 1.15-0.4 0.2 0.23333 0.06667 0.6-0.4 1.1-1.1333 1.2667-2.15 2.6833-3.05 4.25-0.86667 1.5-1.2167 2.4333-1.05 2.8 0.41248 0.90745 3.5551-6e-3 5.3-0.3 2.5803-0.43492 5.9167-1.3167 7.55-2.15l1.05-0.9c0.23333-0.4 0.33333-0.93333 0.3-1.6-0.23333-6.2667 0.26667-11.633 1.5-16.1 1.0333-3.6333 2.8667-7.5667 5.5-11.8"/>
   <path d="m67.6 92.85 1.5 1.15q0.25 7.15-0.9 15.1-1.1 7.85-3.35 14.6l-2.55 2.7q2.2-5.4 3.85-16.85 1.55-10.4 1.45-16.7"/>
   <path d="m25.2 148.7 2.15 1.4q-4.4-1.4-7.7 1.3-3.25 2.65-2.8 6.9l-0.85-2.4q0.2-3.7 3.05-5.8 2.75-2 6.15-1.4"/>
   <path d="m42.65 159.7 0.1-1.55q3.9 1.5 7.65 3.7-0.9-5-2.85-8.75-0.4-0.75 0-1.05t0.9 0.55q1.3 2.1 2.35 5.25 1.05 3.05 1.35 5.55 0.1 0.6-0.25 0.8t-0.85-0.2l-4.05-2.35q-2.55-1.3-4.35-1.95"/>
   <path d="m39.9 150.95q-3.35 1.15-5.55 2.35-0.95 0.45-0.35 1.05l7.9 8.5q0.45-3.7 0.1-7.45-0.1-0.95 0.35-1 0.5-0.05 0.65 1 0.8 5.75 0.15 9.55-0.1 0.65-0.45 0.75-0.4 0.1-0.8-0.45l-4.2-4.65-5.15-5.45q-1.45-1.6 0.9-3.25 2.2-1.55 5.75-2.65 3.55-1.05 6.65-1.1 2.65-0.05 6.05 3.25 3.1 3 4.6 6.5 0.5 1.25-0.7 1l-5.5-0.3-0.3-1.2 4.35-0.2q-1.7-2.95-3.8-5-2.55-2.5-4.7-2.5t-5.95 1.25"/>
   <path d="m28.05 140.3q-0.9-6.55-0.35-15.3l1.25-4.2q-0.4 8.5 0.85 17.9 1.25 9.5 3.45 14.25l-1.1 1.45q-3.05-6.85-4.1-14.1"/>
   <path d="m10.6 146.6q6.1-11.85 16.35-18.2l-0.35 2.6q-8.75 5.95-14.4 17.1-5.6 11.15-5.1 21.5 0.1 2.7 1.1 3.55 0.9 0.85 3.3 0.55 6.85-0.8 11.5-3.2l0.95 1.5q-5.6 2.85-12.3 3.6-3.25 0.35-4.7-1.05t-1.65-4.95q-0.6-11.45 5.3-23"/>
   <path d="m7 195.25 0.75-1.7q12.45 10.6 39.65 11.25 27.4 0.65 44.1-9.45l0.3 1.85q-16.35 10.45-44.35 9.8-12.75-0.3-23.25-3.25-11.15-3.1-17.2-8.5"/>
   <path d="m92.8 205.05 0.3 1.8q-6.75 4.4-19.2 6.9-12.2 2.45-25.75 2.35-14.25-0.15-25.35-3.15-12.35-3.35-18.2-9.6l0.7-1.7q5.75 6 17.8 9.25 10.9 2.9 24.9 3.05 13.3 0.15 25.45-2.25 12.4-2.4 19.35-6.65"/>
   <path d="m95.55 226.1 0.25 1.75q-8.55 4.3-22.15 6.5-13.5 2.25-27.6 1.75-14.95-0.55-26.3-4-12.55-3.85-18.3-10.6l0.45-2q10.95 12.85 43.5 14.35 14 0.6 27.45-1.45 13.7-2.05 22.7-6.3"/>
   <path d="m61.35 125.55q11.95-12.6 16.35-12.55 1.15 0.05 3.15 1.85 2 1.85 3.35 4.1l-0.15 2.35q-1.75-2.75-3.8-4.85-1.95-2-2.7-2-2.9 0.1-14.7 12.4-12.6 13.15-16.75 22.15l-1.8-0.1q4.85-10.4 17.05-23.35"/>
   <path d="m52.05 181.55 1.75-0.15-1.2 3.8q6.15 1.15 18.65-1.15 12.65-2.25 18.3-5.65l0.2 1.6q-6.25 3.55-19.05 5.9-13.15 2.35-19.7 0.9-0.85-0.2-0.6-1l1.65-4.25"/>
   <path d="m72.95 141.35q2.3-2.45 3.7-2.35 1.8 0.1 4.85 4.4 3.3 4.65 5.6 10.9l0.25 3.35q-3.2-7.35-6.7-12.6-3.05-4.55-4.15-4.65-0.8 0.05-2.6 2.15-2.2 2.55-3.75 6.05l-1.95 0.35q2-4.75 4.75-7.6"/>
   <path d="m110.65 38.1q-2.35-15.1-4-19.7-0.25-0.65 0-0.9 0.3-0.3 1 0 4.4 1.7 6.4 6.2 0.45 1 0.1 1.25-0.4 0.2-1-0.75-2-3.1-4.45-4.35 2.6 8.6 5.8 34.55 1.5 12.45 1.6 32.15 0.05 19.45-1.3 34.4-2.4 25.9-7.05 48.1-5.5 26.1-13.6 44.8l-0.75-3.8q14.85-35.45 19.35-89.25 1.65-19.5 1.7-37.05 0-17.2-1.5-29.25l-2.3-16.4"/>
   <path d="m123.35 14.4-0.9 1.15q-1.45-4.05-3.15-7.2-4.65 6.75-5.65 15.35l-1.1-1.4q0.75-5.1 2.1-8.65 1.45-3.75 4.05-7.3 0.8-1 1.3 0 1.65 3.2 3.35 8.05"/>
   <path d="m137.3 0.05q0.4 0.2 0.2 1.05-1.65 8.2-2 17.5l-1.25 0.15-0.1 0.05q-0.7-7.15 1.6-16.2-8.1 6.65-13.1 13.8-0.55 0.85-1 0.6-0.4-0.3 0.15-1.15 3.45-5.4 5.95-8.25 3.45-3.95 8.35-7.25 0.8-0.55 1.2-0.3"/>
   <path d="m148.5 17.15q-5.25 8.25-10.4 13.1l-1.25-0.6 9.7-12.25q-5.4 0.4-12.95 2.1-1.05 0.25-1.1-0.2-0.1-0.4 0.9-0.8 6.75-2.65 14.45-2.65 1.5 0 0.65 1.3"/>
   <path d="m129.65 45.9 7.5-6.2q4.45-3.95 7.35-7.1-5.1-0.55-7.85-2.3-0.9-0.55-0.75-0.9l1.15-0.05q4 1.45 9.2 1.75 1.55 0 0.4 1.5-2.65 3.6-7.4 7.75-4.25 3.75-8.7 6.7-1.1 0.75-1.4 1.35-0.25 0.5-0.2 1.5 1.95 31 2.1 50.65 0.15 27.8-2.8 50.95-6.5 50.1-29.5 94.7l-0.45-3.45q21.15-40.45 27.9-91.8 3.65-27.75 3.2-59.2-0.15-11.3-1.9-41.9-0.15-2.2 2.15-3.95"/>
   <path d="m115 69.95 0.05-1.6q2.15 1.95 7 2.05 4.75 0.1 7.3-1.6v1.45q-2.9 2-7.3 1.95-4.5-0.05-7.05-2.25"/>
   <path d="m115.3 78.75 0.05-1.65q2.4 2.2 6.95 2.3 4.65 0.15 7.35-2.05l0.1 1.55q-2.9 2.3-7.3 2.3-4.45-0.05-7.15-2.45"/>
   <path d="m130.15 100.45q-2.7 2.8-7.45 2.8-4.8-0.05-7.6-3.1l0.25-1.55q2.45 2.75 7.3 2.8 4.8 0.05 7.45-2.6l0.05 1.65"/>
   <path d="m122.25 110.3q4.6 0.15 7.7-2.45l0.1 1.6q-3.35 2.8-7.95 2.65-4.6-0.2-7.25-3.2l0.25-1.6q2.45 2.85 7.15 3"/>
   <path d="m129.1 130.15-0.05 1.75q-3.75 3.05-8.6 2.9-4.75-0.2-7.5-3.25l0.3-1.65q2.55 2.75 7.35 2.95 5.05 0.2 8.5-2.7"/>
   <path d="m17.15 148.1q2.2-1.65 5.1-1.2 3 0.45 6.4 3.1l3.8 3.1 2.45 4.05-7.2-6q-2.5-1.95-4.9-2.55-2.8-0.7-4.7 0.7-2.55 1.9-0.9 8 1.65 6.5 7.95 14.55 6.05 7.75 10.15 9.25 4.65 1.75 15.35-0.3 10.4-2 18.3-5.9l1.2-0.1q0.25 0.4-0.65 1-6.55 4.4-18.35 6.85-11.7 2.45-16.65 0.55-4.65-1.75-10.85-10.1-6.25-8.35-8.05-15.4-0.8-3-0.55-5.4 0.3-2.85 2.1-4.2"/>
   <path d="m73.4 147.55q1.45-0.1 1.5 0.35 0 0.5-1.4 0.7-7.8 1.2-19.9 6l-0.95-1.8q5.25-2.05 10.85-3.45t9.9-1.8"/>
   <path d="m59.85 49.95-0.2 10-1.55-0.3q0-3.7 0.7-9.75 0.1-1.05 0.6-1 0.5 0 0.45 1.05"/>
   <path d="m13.35 177.15q2.75 1.45 3.55 1.75l0.9-5.55 1.7-0.45q-0.4 4.35-1.2 7.3-0.25 0.9-1.15 0.6-2.25-0.8-4.4-2.2l0.6-1.45"/>
  </g>
 </g>
</svg>
