<?xml version="1.0" encoding="UTF-8"?>
<!-- Created with Inkscape (http://www.inkscape.org/) -->
<svg version="1.1" viewBox="0 0 342.76 289.1" xmlns="http://www.w3.org/2000/svg">
 <g transform="translate(61.802 -2.255)">
  <path d="m-35.164 248.93-0.04285-7.0812s-24.596 12.532-24.49 14.631c0.1284 2.0972 2.2941 3.3812 8.0022 5.1788z" fill="#888"/>
  <path d="m-17.388 220.55-10.131 7.5494s-8.7572 20.112-11.445 22.361c-2.6878 2.2513-12.849 9.1048-12.849 9.1048s-2.508 5.7527-0.34239 6.3412c2.1271 0.59064 19.07 2.4909 23.494 6.4777 7.0059-0.3852 20.187-4.7413 20.187-4.7413 2.9275 5.2241 3.6251 7.2776 13.74 9.2558 5.6923 1.1171 16.171 3.2913 21.954 6.5073 5.7831 3.2014 39.634 3.5652 42.397 2.7178 2.7649-0.84314 12.487-7.6098 12.487-7.6098s31.934 11.566 42.428 11.007c10.494-0.54356 23.72-2.6579 23.72-2.6579l8.2137-3.9418s18.088-3.0644 24.46-1.9944c6.3716 1.0743 28.068-0.0856 30.832-0.93732 2.7477-0.84743 24.883-6.9305 29.126-6.4473 4.2414 0.48364 28.099-12.713 28.099-12.713 8.3344-0.45369 12.819-2.6408 7.2926-8.108-7.4133-7.323-10.871-6.4473-10.871-6.4473s-3.6551-8.7722-17.499-12.411c-10.524-2.7649-14.328-5.5562-14.328-5.5562z" fill="#888"/>
  <g fill="#717171">
   <path d="m10.66 244.76c-8.6365-19.145-33.64 4.0446-34.893 7.4437-1.254 3.4111-2.568 14.57-4.4542 20.172 7.0059-0.34239 19.417-4.5295 19.417-4.5295s13.755 0.015 12.607-3.745c-1.147-3.7578 8.3498-17.53 7.323-19.342"/>
   <path d="m132.1 277.22c-1.4509 0.0856-3.0944 4.4392-7.5494 12.305 6.9306-0.34241 15.053-1.4038 19.764-2.0672-2.4139-4.1216-10.765-10.312-12.215-10.237"/>
   <path d="m62.636 273.96c-1.7805-0.0304-8.093 7.3834-10.841 12.396 8.6665 0.29959 16.533 0.17119 17.801-0.2568 0.99724-0.2996 2.8547-1.284 4.8317-2.4139-4.0446-4.3938-9.9954-9.7082-11.792-9.7386"/>
   <path d="m276.25 252.73c-7.3984-7.323-10.871-6.4473-10.871-6.4473-4.6806-6.9451-8.4101-10.494-17.499-12.396-10.645-2.2513-14.329-5.5562-14.329-5.5562l-239.68-7.4287c12.29 15.522 21.184 30.424 24.989 30.228 3.8049-0.21399 34.848 22.376 54.929 17.499 2.4781-1.4038 8.4405 7.7609 9.7087 7.6855 14.706-6.0245 19.87-9.9804 32.523-26.438 4.3484 9.9346 12.955 19.402 17.258 22.089 4.3031 2.6878 26.891-3.0944 31.526-5.8434 4.6502-2.7349 35.482 13.74 39.408 9.1651 3.9247-4.5898 38.834-8.4705 50.581-7.6851 3.578-1.8746 14.163-6.7645 14.163-6.7645s14.691-0.78323 7.2926-8.108"/>
   <path d="m233.08 227.96 1.6435-13.498s9.769 8.3648 10.615 11.127c0.84743 2.7649 1.6007 8.2137 1.6007 8.2137z"/>
  </g>
  <path d="m104.27 175.46-22.014-78.257c-3.4282-28.205-2.0672-54.808 24.626-78.921 21.063-19.009 68.76-17.303 87.603 0.428 18.843 17.741 32.583 46.278 18.073 126.12z" fill="#b1826f"/>
  <path d="m198.71 24.735c-7.2627 69.832-16.186 86.305-44.073 111.93-13.981 13.619-37.158 15.748-56.258 17.862l5.8888 20.942 108.29-30.636c13.106-72.187 2.2812-101.95-13.846-120.1" fill="#956e5e"/>
  <path d="m-15.467 233.21s2.8376-4.6202 7.1415-4.1216c4.2881 0.48363 18.496 2.2641 20.972 5.2695 1.6777 4.907 9.6483 11.867 9.6483 11.867l18.722-1.7377 19.327 6.402s25.124-3.4411 27.6-3.715c2.4781-0.2568 8.1837 3.3084 11.053 3.0516 2.8676-0.2568 12.245-3.2314 12.245-3.2314l-4.0146-71.191c0.6206-28.431 0.25681-60.893-21.938-83.058-21.773-21.697-68.775-19.145-88.433 3.1543-19.236 21.833-27.495 53.948-13.725 133.93z" fill="#b1826f"/>
  <path d="m89.145 96.957c-5.0884 8.4251-7.1869 18.466-7.7155 27.601-2.0672 41.989 1.0871 97.296-33.398 122.25l12.32 4.0745s25.109-3.4411 27.586-3.715c2.4909-0.2568 8.6211 3.6979 11.49 3.4411 2.8676-0.25679 11.823-3.6251 11.823-3.6251l-4.0146-71.19c0.57352-26.68 0.2996-56.907-18.088-78.846" fill="#956e5e"/>
  <path d="m119.97 264.14c1.0571 0.0856 8.8326 5.4505 15.401 2.9917 6.568-2.4481 17.379-14.646 25.895-14.193 8.5154 0.46651 20.504 8.1683 25.17 7.8062 4.6656-0.34241 8.1533-7.127 11.988-7.6552 3.822-0.52644 11.702 5.6316 13.423 3.8348 1.7077-1.8104 8.8026-12.124 11.611-14.661 2.8076-2.538 9.014-4.4092 9.014-4.4092 2.3839-41.34 1.1-73.319-23.388-95.741-20.927-19.16-66.797-19.809-86.44 2.4909-19.251 21.833-25.788 37.203-14.57 110.73 4.1088 1.5108 10.675 4.1986 11.898 8.8026" fill="#b1826f"/>
  <path d="m209.08 142.1c-3.4882-3.2014-7.6851-5.8584-12.336-8.0172 14.706 43.318-1.3439 114.4-27.872 120.55 7.0662 2.1271 14.254 6.3716 17.56 6.0998 4.6656-0.34239 8.1533-7.1266 11.989-7.6547 3.8177-0.52643 11.716 5.647 13.423 3.8348 1.7077-1.7976 8.8026-12.124 11.611-14.661 2.8077-2.5209 9.014-4.4088 9.014-4.4088 2.3839-41.325 1.1042-73.304-23.388-95.741" fill="#956e5e"/>
  <g fill="#fff">
   <path d="m126.37 41.072c0.0856 1.421-0.84744 2.6108-2.0544 2.6707-1.1941 0.08559-2.2341-1.0272-2.3112-2.4439-0.0856-1.4038 0.84743-2.6108 2.0373-2.6707 1.2069-0.04285 2.2513 1.0272 2.324 2.4481"/>
   <path d="m161.94 40.589c0.0856 1.4209-0.84743 2.6108-2.0544 2.6707-1.1941 0.08558-2.2341-1.0272-2.3112-2.4439-0.0856-1.4038 0.84743-2.6108 2.0373-2.6707 1.2069-0.04285 2.2513 1.0272 2.324 2.4481"/>
   <path d="m20.184 119.8c0.08558 1.4209-0.84744 2.6108-2.0544 2.6707-1.2069 0.0856-2.2341-1.0272-2.3112-2.4481-0.08559-1.4038 0.83032-2.6108 2.0373-2.6707 1.2069-0.0428 2.2513 1.0272 2.324 2.4439"/>
   <path d="m54.546 118.6c0.08558 1.421-0.84744 2.6108-2.0544 2.6707-1.2069 0.0856-2.2341-1.0272-2.3112-2.4439-0.08559-1.4209 0.83031-2.6108 2.0373-2.6707 1.2069-0.0428 2.2513 1.0272 2.324 2.4481"/>
   <path d="m144.94 167.27c0.0856 1.4209-0.84744 2.6108-2.0544 2.6878-1.207 0.0428-2.2341-1.04-2.3112-2.461-0.0856-1.4038 0.83031-2.6108 2.0372-2.6707 1.207-0.0428 2.2513 1.0272 2.324 2.4481"/>
   <path d="m178.94 166.48c0.0856 1.421-0.84743 2.6108-2.0544 2.6707-1.207 0.0856-2.2341-1.0272-2.3112-2.4481-0.0856-1.4038 0.83032-2.6108 2.0373-2.6707 1.207-0.0428 2.2513 1.0272 2.324 2.4481"/>
  </g>
  <g fill="#888">
   <path d="m11.265 232.98 2.3411 4.5599s-0.48363 5.4959-5.7981 8.5158c-5.3144 3.0174-18.979 10.78-18.979 10.78s-10.72-3.3512-11.973-4.8466c-1.254-1.4937 7.7608-22.799 13.362-22.995 5.5866-0.21401 21.048 3.9846 21.048 3.9846"/>
   <path d="m-4.1137 273.72s-5.6769-4.1516-4.907-6.1452c0.75327-2.0073 6.2509-7.2776 8.2286-6.598 1.9945 0.66339 7.8516 7.7908 7.6551 11.701-0.1712 3.9119-0.59064 4.0617-3.1244 4.2714-2.538 0.214-7.8512-3.2314-7.8512-3.2314"/>
   <path d="m42.094 241.54c-1.6307-0.51359-6.8398 2.7349-6.8398 2.7349s-7.6397 6.9909-6.7037 9.6783c0.92019 2.6878 12.094 7.1719 13.906 4.3484 1.7976-2.8376 4.0446-11.943 4.0446-11.943s-2.7777-4.3035-4.4088-4.8167"/>
   <path d="m70.623 242.09c-2.6407 0.2568-10.645 7.7609-10.584 8.9383 0.04274 1.177 1.9174 6.6134 3.9718 8.4705 2.0544 1.8404 6.4473 3.5652 6.4473 3.5652s13.8-5.0281 12.849-8.108c-0.93732-3.0816-3.8948-7.2173-3.8948-7.2173s-6.1452-5.8884-8.7876-5.647"/>
  </g>
  <path d="m83.308 254.96c-0.95015-3.0816-3.8948-7.2173-3.8948-7.2173s-6.1452-5.8884-8.7872-5.647c-0.2996 0.0304-0.68052 0.1712-1.1171 0.3424 2.568 6.6887 3.0217 13.619 1.6307 20.353 2.7948-1.07 12.985-5.1937 12.17-7.8512" fill="#717171"/>
  <path d="m135.03 287.64c-2.4139-2.1271-1.421-5.2545-0.2996-6.0998 3.9247-2.9275 14.072 0.93732 13.483 5.3298-0.34239 2.6878-8.078 5.2845-13.196 0.77041" fill="#888"/>
  <path d="m182.09 268.09c-1.9645 0.99723-1.254 13.362-0.0304 14.072 1.207 0.71048 13.982 5.9034 16.715 5.7527 2.7178-0.12841 10.131-0.52644 9.5576-4.0146-0.57351-3.4882-5.2395-10.267-7.6402-11.324-2.4011-1.04-16.639-5.4805-18.602-4.4841" fill="#888"/>
  <g fill="#717171">
   <path d="m200.7 272.58c-1.391-0.60347-6.7944-2.354-11.445-3.531 2.354 2.9275 4.681 5.1638 7.0512 8.3498 1.4338 3.638 2.2512 7.3076 1.7205 10.463 0.2996 0.0428 0.5564 0.0856 0.75327 0.0428 2.7178-0.1284 10.131-0.52644 9.5576-4.0146s-5.2395-10.282-7.6402-11.324"/>
   <path d="m255.57 268.11c-1.4809-1.6136-2.0373-7.2323 1.8875-8.6969 5.4959-1.6606 16.382-0.48365 17.228 0.65055 0.84744 1.1342 0.1712 3.1244-2.0972 4.8013-2.2513 1.6778-15.537 4.862-17.016 3.2485"/>
   <path d="m230.03 239.66c-3.1543 0.72331-8.5004 3.9418-9.4818 5.9487-0.99723 2.0073-0.90735 7.1116 0.69335 8.5462 1.6007 1.4338 10.313 0.54356 13.076 1.207 2.1143 0.49648 7.1719 3.0816 8.2137 2.3711 2.7349-1.8404 3.9547-4.3934 3.4282-5.4052-1.7077-3.1843-12.275-13.514-15.929-12.668"/>
  </g>
  <path d="m106.88 255.12c1.1171-0.3424 13.558 4.9524 12.411 8.0626-1.147 3.1115-18.587 6.8548-21.697 5.9337-3.0944-0.9202-6.1751-5.7677-4.5295-7.5944 1.6307-1.8275 11.249-5.617 13.815-6.402" fill="#888"/>
  <g fill="#956e5e">
   <path d="m167.5 83.078c0.3424 6.6583-8.6969 12.547-20.232 13.151-11.52 0.6206-21.138-4.2881-21.501-10.946-0.3424-6.6438 8.7123-12.532 20.232-13.151 11.52-0.60347 21.154 4.2881 21.501 10.946"/>
   <path d="m185.47 211.2c0.3424 6.6583-8.6969 12.547-20.232 13.151-11.52 0.60348-21.138-4.2881-21.501-10.946-0.3424-6.6438 8.7123-12.532 20.232-13.151 11.52-0.60347 21.154 4.2881 21.501 10.946"/>
   <path d="m59.778 163.63c0.34239 6.6583-8.6969 12.547-20.232 13.151-11.52 0.62059-21.138-4.2881-21.501-10.946-0.34239-6.6438 8.7123-12.532 20.232-13.151 11.52-0.60347 21.154 4.2881 21.501 10.946"/>
  </g>
  <g fill="#f6c8dd">
   <path d="m55.569 158.08c-0.1284 7.1266-10.041 12.743-22.15 12.547-12.125-0.214-21.848-6.1452-21.727-13.272 0.08558-7.1266 10.025-12.744 22.15-12.532 12.109 0.214 21.848 6.1302 21.727 13.257"/>
   <path d="m162.12 77.996c-0.1284 7.1266-10.041 12.743-22.15 12.547-12.125-0.214-21.848-6.1452-21.727-13.272 0.0856-7.1266 10.025-12.744 22.15-12.532 12.109 0.214 21.848 6.1302 21.727 13.257"/>
   <path d="m180.41 206.39c-0.1284 7.1266-10.041 12.743-22.15 12.547-12.125-0.21399-21.848-6.1452-21.727-13.272 0.0856-7.1266 10.025-12.744 22.15-12.547 12.109 0.21401 21.848 6.1452 21.727 13.272"/>
  </g>
  <g fill="#0f141b">
   <path d="m-61.761 255.74c-0.51359 2.9917 3.9119 5.3298 9.6783 7.1415l0.75327-2.4139c-4.7713-1.5108-6.7037-2.5808-6.9909-3.8049 1.5536-1.7976 13.03-8.2441 23.69-13.68l2.1271-4.0617c-25.336 12.894-28.748 13.845-29.261 16.82"/>
   <path d="m180.69 279.62c-6.8094-0.90735-23.72 1.9346-24.46 2.0544l-0.17119 0.03s-7.9269 3.8348-9.1651 4.2286c0.0428 4.2714-9.5272 2.7178-11.49 1.391-21.35 3.6679-53.283-10.479-51.125-10.162 0 0 6.9156-4.9523 1.9645-2.8847-4.9528 2.0672-17.545 10.161-19.674 10.826-2.3711 0.71048-33.338 0.214-38.758-2.8076-5.602-3.1115-20.671-6.0091-22.09-6.583-3.9846 0.60347-13.695-5.9337-12.607-8.9383 1.1042-2.9917-2.7948-0.1284-2.7948-0.1284-0.1284 0.0428-11.868 3.9547-18.677 4.4392-4.1516-3.1415-14.706-4.907-20.519-5.8584 0 0-2.6279-0.46651-2.8547-0.51359-0.03-0.0856-0.04285-0.1712-0.04285-0.2568-0.04274-0.78323 0.3852-2.4909 1.0101-4.0317 1.5708-1.07 10.116-6.8548 12.622-8.9533 2.7178-2.2641 9.9351-18.557 11.671-22.528 0.49648-0.38519 9.3307-4.9977 9.3307-4.9977l-0.99724-4.3784-10.131 7.5494-0.2568 0.214-0.1284 0.29959c-3.3384 7.6701-9.3008 20.398-11.098 21.893-2.5979 2.1742-12.638 8.9537-12.744 9.014l-0.45368 0.54357c-0.48363 1.1-1.9645 4.8466-1.0272 6.8244 0.2996 0.6206 0.83031 1.0743 1.4937 1.254l3.2314 0.59063c4.9523 0.81319 14.797 2.0672 17.998 4.9523 0 0 0.80035 1.9174 5.647 1.1042 4.8466-0.81747 13.77-3.745 16.201-4.5449 0.62059 4.0617 6.4623 7.323 9.1347 8.3648 2.6878 1.04 5.2849 0.54356 5.2849 0.54356 0.1712 0.03 16.065 3.3084 21.606 6.3716 6.0245 3.3384 39.166 4.0018 42.277 3.0345 2.5808-0.78323 10.72-6.1152 12.804-7.4437 4.5299 1.5237 32.945 11.218 42.911 10.69 10.433-0.54355 8.4551-0.49647 10.811-0.77039 7.7305 2.5979 12.245 1.0871 14.902-2.538 1.8703-0.72331 6.2205-3.1843 6.5376-3.3384 1.2669-0.214 17.968-2.9446 23.856-1.9645 0.84743 0.12839 1.9945 0.25679 3.3084 0.2996-1.4038-0.75328-2.4011-1.6178-3.3084-2.8847"/>
   <path d="m280.96 256.63c-0.0856-1.361-2.2512-3.2613-3.8177-4.8013-5.8734-5.813-9.4823-6.7795-11.128-6.8398-1.6778-2.2641-8.2287-10.313-17.862-12.351-10.086-2.1271-14.706-8.1837-14.736-8.2137l-0.71048 4.8466c0.1712 0.1284 4.0617 3.5609 14.918 5.858 9.9954 2.0972 13.347 6.3266 16.714 11.868 3.3683 5.5413 3.1714 1.8275 3.1714 1.8275 0.03 0 1.284-1.6906 7.8512 4.8017 0.77039 0.77039 2.0073 2.1913 1.6435 3.1543-0.62059 1.6307-5.2091 2.6279-8.108 2.7948 0 0 5.5413-0.428 6.568 1.9944 5.2845-1.5707 5.5263-4.4242 5.4959-4.9374"/>
   <path d="m254.48 266.95c-6.3416 3.1115-11.958 5.5109-13.468 5.3448-4.9673-0.55638-29.427 6.4324-29.654 6.4927-0.57353 0.1712-2.0972 0.3852-4.1815 0.5564 0.29959 1.04 0.2568 2.1913 1.4338 2.4139 1.6606-0.17119 2.8975-0.34239 3.4882-0.54355 3.8819-1.1941 23.962-6.9301 27.767-6.8548 8.7273 0.1712 9.784-2.1914 16.186-5.3298-0.68051-0.5564-1.2369-1.2241-1.5707-2.0844"/>
   <path d="m233.22 214.69c5.2995 4.7713 10.433 9.7536 10.902 11.279 0.81747 2.6279 1.5408 7.9423 1.5536 8.0027l2.5081-0.34239c-0.03-0.21399-0.54357-6.6887-1.421-9.5272-0.90735-2.9446-10.931-9.3312-12.834-11.022z"/>
   <path d="m104.38 17.681c-21.108 18.284-27.057 42.292-23.931 70.964l3.685 2.8248c-2.7349-22.406-1.361-48.271 23.584-70.798 19.945-17.998 65.921-18.239 84.84-0.43656 18.345 17.258 31.164 49.146 18.753 124.37l3.0045 2.7648c16.382-79.963 0.2996-112.91-18.526-130.66-9.1955-8.6515-27.51-14.389-45.447-14.45-18.436-0.042846-35.633 6.4773-45.961 15.431"/>
   <path d="m-6.1429 94.022c-18.707 21.229-27.676 53.495-11.973 136.01l2.5081-0.428c-14.072-81.669-4.8167-112.18 13.423-132.87 9.2404-10.494 25.426-17.107 43.288-17.681 17.636-0.56068 33.414 4.7559 43.288 14.585 21.108 21.063 21.803 50.777 21.123 82.031l3.9247-11.264c0.69335-31.843-1.5108-53.208-23.342-74.98-10.358-10.328-27.283-15.356-45.629-14.752-18.541 0.59063-36.901 8.3348-46.61 19.342"/>
   <path d="m163.1 126.05c-16.971 0.90735-32.357 5.8584-42.971 16.941-20.685 21.546-24.596 50.143-13.317 112.53l3.3384 1.5708c-11.113-72.836-5.7377-89.898 13.438-111.66 8.3498-9.4673 22.467-15.386 38.758-16.262 17.922-0.96727 35.497 4.3484 45.885 13.861 24.989 22.875 25.185 56.439 22.965 94.73l3.4111 4.7863c3.3384-45.523 2.431-78.498-23.373-102.13-10.871-9.9501-29.563-15.37-48.135-14.374"/>
   <path d="m124.04 36.257c-1.5707 0-3.1244 1.0871-3.6251 3.6251-0.69335 3.5781-0.72331 14.691 0 18.133 0.74043 3.4411 6.8248 4.7863 7.0966-0.52644 0.25679-5.2999 0.48364-14.223 0.2996-17.394-0.1284-2.354-1.9474-3.8348-3.7749-3.8348"/>
   <path d="m159.66 35.774c-1.5708-0.015-3.1543 1.0571-3.6679 3.6251-0.69335 3.5781-0.72331 14.691 0 18.133 0.74043 3.4411 6.8244 4.7863 7.0962-0.52644 0.2568-5.2999 0.48364-14.223 0.29959-17.394-0.12839-2.3411-1.9345-3.822-3.745-3.8348"/>
   <path d="m139.99 89.269c-7.4287-0.1284-14.298-2.538-17.937-6.2963-1.6906-1.7505-2.5808-3.715-2.5509-5.6769 0.0856-6.2963 9.6633-11.475 20.867-11.294 11.218 0.1712 20.595 5.662 20.489 11.973-0.0856 6.3112-9.6633 11.475-20.867 11.294m-23.342-11.686c-0.0427 2.6878 1.1171 5.3149 3.3512 7.5948 4.2714 4.3484 11.852 7.0208 20.293 7.1565 13.392 0.21399 23.992-5.9487 24.127-14.011 0.1712-8.063-10.237-14.54-23.629-14.736-13.393-0.21399-23.992 5.9487-24.143 13.996"/>
   <path d="m18.01 114.99c-1.5408-0.0429-3.2314 1.3139-3.8819 4.6052-0.71047 3.578-0.65055 13.075 0.03 16.533 0.34239 1.9003 1.7976 3.638 3.4882 3.608 1.7676-0.0428 3.5053-1.0572 3.6551-3.8819 0.2568-5.2999 0.52644-12.925 0.34239-16.111-0.17119-2.9574-1.4038-4.6502-3.6551-4.7559"/>
   <path d="m52.305 113.78c-1.7205-0.0428-3.2613 1.4038-3.8648 4.4542-0.69335 3.5952-0.72331 13.181 0 16.608 0.34239 1.5836 1.6906 3.6551 3.4582 3.6679 2.4011 0 3.6979-2.0244 3.7878-3.7749 0.2568-5.2999 0.48363-13.212 0.29959-16.397-0.1284-2.5209-1.7676-4.5145-3.6979-4.5599"/>
   <path d="m33.435 169.35c-7.4133-0.1284-14.299-2.538-17.937-6.2963-1.6906-1.7505-2.5808-3.715-2.5509-5.6769 0.08558-6.2962 9.6633-11.475 20.867-11.294 11.203 0.1712 20.595 5.662 20.489 11.973-0.08558 6.3112-9.6633 11.475-20.867 11.294m-23.026-12.034c-0.04285 2.6707 1.1171 5.2994 3.3512 7.5794 4.2714 4.3484 11.853 7.0358 20.293 7.157 13.393 0.214 23.992-5.9492 24.128-13.997 0.17119-8.0626-10.237-14.54-23.629-14.751-13.393-0.21401-23.992 5.9487-24.143 14.012"/>
   <path d="m138.99 166.08c-0.71048 3.578-0.72332 14.706 0 18.134 0.74043 3.4411 6.8248 4.7863 7.0966-0.51361 0.2568-5.3148 0.46652-14.223 0.2996-17.409-0.21399-4.3634-6.3262-5.7073-7.3984-0.214"/>
   <path d="m172.99 165.29c-0.71047 3.578-0.72331 14.706 0 18.134 0.72331 3.4411 6.8248 4.7863 7.0966-0.5136 0.2568-5.3148 0.46651-14.223 0.29959-17.409-0.21399-4.3634-6.3262-5.7073-7.3983-0.214"/>
   <path d="m158.27 217.66c-7.4133-0.1284-14.284-2.538-17.937-6.2962-1.6906-1.7505-2.5808-3.715-2.538-5.677 0.0856-6.2962 9.6483-11.475 20.852-11.294 11.218 0.1712 20.595 5.677 20.489 11.973-0.0856 6.3112-9.6633 11.475-20.867 11.294m-22.995-11.701c-0.0428 2.6878 1.1042 5.3149 3.3512 7.5944 4.2714 4.3484 11.853 7.0213 20.278 7.157 13.392 0.21399 23.992-5.9487 24.143-14.012 0.1284-8.0626-10.252-14.54-23.645-14.751-13.393-0.21399-23.992 5.9487-24.128 14.012"/>
   <path d="m-18.299 230.34c0.78323 3.0045 2.1443 5.798 3.608 3.6251 1.4637-2.1913 3.745-3.7578 6.7645-3.6551 3.0345 0.0856 16.186 2.7948 18.103 3.501 1.2069 0.43656 2.324 4.3484 2.324 4.3484 0.90736 1.6007 7.5794 7.9569 8.9083 9.2255 0 0-4.0146 6.2808 3.2314-0.43656 2.4909-0.77039 8.3498-0.0429 8.3498-0.0429s6.4619-3.9718 7.8661-4.0446c1.0101-0.0427 3.1244 2.0672 5.1034 4.3181l0.96728 0.56067 0.2568 0.0856c3.9418 1.7976 10.856 4.6502 12.985 3.6679 1.7377-0.80035 8.3648-8.4101 10.449-7.9723 2.0843 0.43655 8.6969 5.4809 8.6969 5.4809 1.3739 0.1284 6.024 0.43655 7.7454-0.54356l-0.1284 0.0429c1.147-0.2568 6.598 1.4338 11.943 3.0216l8.7418-1.9174-0.72331-3.2142s-6.9002 2.7178-7.5344 2.9146c-8.259-2.431-12.26-3.8049-13.558-3.0644-0.66339 0.38519-3.5652 0.428-5.9791 0.21399-0.53072-0.34239-7.5644-5.2091-7.5644-5.2091s-3.2142-0.84315-5.2395 1.1171c-2.0244 1.9773-6.583 6.1601-7.8965 6.779-1.1342 0.2568-6.3416-1.6007-10.645-3.5481-1.361-1.5108-5.1334-5.4505-7.7455-5.3149-2.3839 0.1284-5.8434 2.6878-6.9002 3.5181-0.65055 0.0856-10.056 1.177-11.098 1.2968-3.6551-3.471-7.0966-7.0512-6.7491-8.3344 0 0-1.1941-4.1216-4.9224-5.3602-2.8847-0.96727-19.176-4.0446-21.244-3.3384-2.0544 0.71047-2.9574 1.4809-4.0617 2.2042-0.95015-1.1342-2.508-5.5562-2.508-5.5562s-2.324 2.5979-1.5408 5.6016"/>
   <path d="m230.7 241.07c2.3112 0.21401 11.928 7.8965 13.483 10.63 0.17119 0.29959 0.2568 0.62059 0.2996 0.92019 0.0154 0.21399-0.015 0.43656-0.0856 0.66339-0.428 1.391-1.2369 3.3983-3.1244 3.2142-1.8704-0.17119-5.5413-2.3112-7.2926-2.568-1.7077-0.2568-8.4401-0.0154-10.282-0.3424-1.8275-0.2996-3.0345-2.0672-2.8376-3.608 0.214-1.5536 0.63344-3.6679 1.7077-4.5599 1.0743-0.90736 5.8434-4.5449 8.1533-4.3484m0.49648-3.7878c-5.2391 1.254-11.686 6.0549-12.592 10.01-2.431 1.6778-5.451 7.0816-7.1116 8.3348-1.6606 1.254-10.252-3.531-12.004-4.2714-1.7377-0.74044-2.4139-0.42799-3.9119 1.2669-1.5108 1.6777-6.6737 6.5834-8.259 6.9002-2.3112 0.45367-8.6969-2.461-10.418-3.0045-5.858-1.7976-12.381-5.6016-18.496-4.4542-3.1715 0.59063-8.0476 3.8648-13.196 7.323-4.3031 2.8975-9.1951 6.1905-11.399 6.4773-3.7621 0.49648-9.3462-1.6606-12.683-3.0345-1.284-2.8975-9.965-9.0744-14.902-8.3947-4.8616 0.66339-13.121 5.7223-13.468 5.9337l-0.57352 0.77039c-0.03033 0.1712-0.90735 3.685 0.80036 6.2963 0.89023 1.361 2.2941 2.2042 4.1387 2.4909 5.5712 0.89023 21.138-1.8104 24.264-4.7863l-3.7878-2.1143c-2.1143 2.0073-14.646 5.2545-20.081 4.3938-1.1171-0.17119-1.9046-0.63343-2.4011-1.3739-0.43656-0.6634-0.60347-1.4638-0.63343-2.2042-0.03043-0.63343 0.03-1.207 0.08558-1.5836 1.7676-1.0572 8.2287-5.3452 12.003-5.3149 6.4777 0.0428 11.777 4.3634 9.769 6.7795 0 0 11.943 5.662 17.273 4.9673 2.7948-0.3424 4.0916-1.1342 9.0744-4.4691 4.4841-3.0217 13.529-9.1651 16.186-9.6633 5.4959-1.0272 18.662 4.2714 20.187 4.9673 7.4587 3.3983 15.039 6.0095 10.071 2.2341 2.3411-1.1941 7.897-6.9909 8.9083-7.8816 1.0101-0.90735 12.517 6.6887 14.45 4.7559 1.9345-1.9474 3.852-5.4659 6.1905-8.8026 0.38519 1.7976 1.3139 6.2359 3.9718 6.417 2.6407 0.21399 9.3915-0.015 10.946 0.21399 1.4638 0.21401 4.877 2.1443 5.9791 2.8975 1.1042 0.74043 3.9718-0.48363 3.9718-0.48363 0.428-0.214 2.3711-1.9003 3.2613-4.8312 0.3852-1.2241 0.214-2.461-0.42799-3.5952-2.2513-3.9547-10.962-9.9047-12.441-11.505-1.4937-1.6007-2.0972-2.6707-2.7477-1.6606"/>
   <path d="m-24.225 250.39c-0.1284 1.0871-0.015 1.7676 0.34239 2.2042 1.3268 1.6007 9.5122 4.7709 11.113 5.2994 1.6007 0.54356 5.3298-1.5708 5.3298-1.5708l15.718-9.4519c5.6769-3.2142 6.2509-8.9986 6.2659-9.2554 0 0-2.5509-4.8013-2.4011-1.7377 0.1712 3.0645-0.015 6.6284-4.8162 9.3462 0 0-16.578 8.5458-18.058 9.603-1.4809 1.0572-9.4215-2.1614-10.206-2.9617-0.01543-0.0428-1.6007-1.2968-0.75327-3.7278 0.84744-2.4182 7.4133-16.307 10.237-17.515 2.8248-1.1941-3.5181 0.68051-3.5181 0.68051-4.1387 3.0816-8.7423 14.691-9.2554 19.085"/>
   <path d="m-10.682 267.48 2.9146 0.80035c2.8676-3.715 5.7976-6.553 6.6887-6.402 1.5237 0.52644 7.1565 7.2323 6.9905 10.765-0.17119 3.3512-1.3439 4.4841-1.3439 4.4995l3.3512 0.1712c0.1712-0.1712-0.2996-0.34239-0.085585-4.5749 0.214-4.3035-5.8884-11.838-8.289-12.668-2.2042-0.74043-7.9723 4.2881-10.207 7.4133"/>
   <path d="m27.644 254.26c0.89024 2.5808 7.8965 6.3112 11.686 6.7641 2.2213 0.25679 3.9846-0.34241 4.6956-1.4809 1.8575-2.9275 3.3213-12.577 3.4111-12.955l-1.8575-0.46652c-0.015 0.0856-2.2341 8.9991-3.9247 11.656-0.21399 0.2996-0.99723 0.59064-2.5808 0.428-4.0916-0.48363-9.1951-3.3084-9.6329-4.5445-0.43656-1.284 4.877-6.8248 8.078-10.207l-3.8648 0.71047c-1.7377 1.8275-7.0363 7.1116-6.0095 10.116"/>
   <path d="m78.634 248.29c0.03033 0.0429 2.8847 4.0617 3.7578 6.9455 0.015 0.015 0.015 0.0427 0.015 0.0856 0.04285 1.07-4.9973 4.1516-11.943 6.7191-1.0101-0.428-4.2286-1.8104-5.813-3.2485-1.5237-1.3739-3.471-6.9151-2.1143-10.343l-3.8177 2.2042c0.2568 0.77039 2.7948 8.5462 4.7559 10.569 1.9773 2.0244 8.1837 3.5609 10.524 2.6407 2.354-0.92019 11.309-5.6166 10.222-9.1801-0.98011-3.1843-0.2568-4.6048-4.0317-7.4887-3.7621-2.8847-1.5536 1.1-1.5536 1.1"/>
   <path d="m132.53 280.83c-1.361 0.93731-1.2669 6.0848 1.3568 7.6851 2.6108 1.6007 7.0512 1.5237 4.2714 0.0856-2.7649-1.4338-2.8975-3.0944-2.9575-4.1216-0.0427-1.07 0-1.8575 0.1712-2.1614 0.89023-0.25679 5.1034-1.5708 8.3044 0.77039 3.2142 2.354 3.8648 4.4088 3.8648 4.4088s1.5408-0.72332 2.5081-1.4509c0.96727-0.72332-2.1443-3.0345-4.9524-4.6202-2.8248-1.5836-9.3462-2.8376-12.547-0.60348"/>
   <path d="m182.37 279.36c-0.17119-3.0345-0.48363-10.328 0.52644-10.509 1.0101-0.1712 15.098 3.5952 17.424 4.6048 1.9645 0.86029 6.5226 7.338 7.0662 10.599 0.0154 0.0428 0.0154 0.0856 0.0154 0.1712 0.015 0.25679-0.0428 0.51359-0.2568 0.74043-1.3268 1.6478-6.6887 1.9345-8.4401 2.0244-2.324 0.1284-11.747-3.4882-13.71-4.8013-1.9773-1.3268-2.5808-1.7976-2.6407-2.8077m1.7206-12.366s-3.7278 0.015-4.4242 1.9174c-0.69335 1.9046-0.6206 11.596 1.284 13.392 5.7826 5.4659 14.782 6.7341 17.877 6.568 3.9247-0.21401 8.1833-0.69336 9.814-2.7349 0.56068-0.69335 1.2669-2.431 1.1171-3.3084-0.6206-3.7578-5.9337-9.9351-8.6819-11.128-1.177-0.51359-14.857-5.7223-16.986-4.7105"/>
   <path d="m258.22 260.35c1.4038-0.71047 14.435-0.0856 15.733 0.428 0.0428 0.0856 0.0856 0.21401 0.12841 0.34241 0 0.0856 0 0.17119-0.0154 0.25679-0.1284 0.84743-0.89023 1.8703-2.0373 2.7349-1.391 1.0272-13.015 4.4542-15.25 2.9147-2.2213-1.5408 0.0304-5.9641 1.4509-6.6738m-3.7749 0.60348c-0.56069 2.1571-2.0244 4.6352-1.391 6.4623 0.62059 1.8276 1.9773 2.2941 4.1088 2.1914 2.1143-0.1284 13.649-2.2213 15.99-3.9718 1.6007-1.1941 3.578-3.1543 3.7878-4.5295 0.0856-0.8132-1.0572-1.0101-1.5108-1.6007-0.2996-0.428-14.706-2.8676-17.047-1.9474-2.354 0.92019-3.3983 1.2369-3.9418 3.3983"/>
  </g>
  <g fill="#fff">
   <path d="m20.002 119.61c0 1.9003-0.93731 3.4411-2.0843 3.4282-1.147 0-2.0843-1.5536-2.0672-3.4582 0-1.9046 0.93731-3.4411 2.0843-3.4282 1.147 0 2.0672 1.5536 2.0672 3.4582"/>
   <path d="m53.959 118.55c-0.08558 1.9474-1.0272 3.531-2.1143 3.531-1.0871 0-1.9003-1.5836-1.8276-3.531 0.08558-1.9346 1.0272-3.5181 2.1143-3.5181 1.0871 0 1.9003 1.5707 1.8275 3.5181"/>
   <path d="m144.77 166.98c0.0856 1.9003-0.81748 3.501-1.9773 3.5952-1.177 0.0856-2.1913-1.3867-2.2641-3.2913-0.0856-1.9046 0.8132-3.5181 1.9945-3.5952 1.1642-0.0856 2.1742 1.391 2.2512 3.2913"/>
   <path d="m126.25 40.828c-0.0304 1.9003-1.0101 3.4582-2.2042 3.471-1.177 0.015-2.1143-1.5108-2.0843-3.4111 0.0303-1.9046 1.0101-3.4582 2.2042-3.4711 1.177-0.015 2.1143 1.5108 2.0844 3.4111"/>
   <path d="m161.71 40.719c-0.0303 1.9474-1.0101 3.5481-2.1742 3.578-1.1642 0.015-2.0972-1.5536-2.0544-3.5053 0.0304-1.9474 0.99722-3.5481 2.1742-3.5781 1.1642-0.01543 2.0843 1.5536 2.0544 3.501"/>
   <path d="m178.65 166.4c0.0856 1.9046-0.7704 3.501-1.9003 3.5952-1.1171 0.0856-2.0843-1.3867-2.1571-3.2913-0.0428-1.9003 0.78324-3.5181 1.9003-3.5952 1.1171-0.0856 2.0844 1.391 2.1571 3.2913"/>
  </g>
  <g fill="#fae5ee">
   <path d="m26.662 156.52c-2.2213 0.1712-4.3484-0.34241-5.5413-1.361-0.5564-0.48364-0.87739-1.04-0.92019-1.6136-0.1712-1.8875 2.5509-3.715 5.9038-3.9846 3.3512-0.25679 6.3112 1.1042 6.4623 2.9917 0.1712 1.8875-2.5509 3.6979-5.9038 3.9718"/>
   <path d="m132.86 76.968c-2.2213 0.17119-4.3335-0.3424-5.5263-1.391-0.56067-0.48363-0.87739-1.04-0.92019-1.6307-0.1284-1.8875 2.568-3.6851 5.9188-3.9419 3.3512-0.2568 6.3112 1.1342 6.4473 3.0217 0.1712 1.8875-2.568 3.685-5.9188 3.9419"/>
   <path d="m152.42 204.34c-2.2213 0.214-4.3484-0.2568-5.5562-1.254-0.57351-0.46651-0.90735-1.0101-0.96727-1.6007-0.1712-1.8875 2.4781-3.7621 5.828-4.0916 3.3384-0.34239 6.3266 0.96728 6.5227 2.8547 0.1712 1.8875-2.4909 3.7578-5.828 4.0916"/>
  </g>
 </g>
</svg>
