<?xml version="1.0" encoding="UTF-8"?>
<!-- Created with Inkscape (http://www.inkscape.org/) -->
<svg version="1.1" viewBox="0 0 143.53 110.66" xmlns="http://www.w3.org/2000/svg">
 <defs>
  <clipPath id="clipPath73">
   <path d="m-730.13-846.98h1245.1v1611.2h-1245.1z" stroke-width="2.0344"/>
  </clipPath>
  <clipPath id="clipPath76">
   <path d="m-730.13-846.98h1245.1v1611.2h-1245.1z" stroke-width="2.0344"/>
  </clipPath>
  <clipPath id="clipPath79">
   <path d="m-730.13-846.98h1245.1v1611.2h-1245.1z" stroke-width="2.0344"/>
  </clipPath>
  <clipPath id="clipPath82">
   <path d="m-730.13-846.98h1245.1v1611.2h-1245.1z" stroke-width="2.0344"/>
  </clipPath>
  <clipPath id="clipPath85">
   <path d="m-730.13-846.98h1245.1v1611.2h-1245.1z" stroke-width="2.0344"/>
  </clipPath>
  <clipPath id="clipPath88">
   <path d="m-730.13-846.98h1245.1v1611.2h-1245.1z" stroke-width="2.0344"/>
  </clipPath>
  <clipPath id="clipPath91">
   <path d="m-730.13-846.98h1245.1v1611.2h-1245.1z" stroke-width="2.0344"/>
  </clipPath>
  <clipPath id="clipPath94">
   <path d="m-730.13-846.98h1245.1v1611.2h-1245.1z" stroke-width="2.0344"/>
  </clipPath>
  <clipPath id="clipPath97">
   <path d="m-730.13-846.98h1245.1v1611.2h-1245.1z" stroke-width="2.0344"/>
  </clipPath>
  <clipPath id="clipPath100">
   <path d="m-730.13-846.98h1245.1v1611.2h-1245.1z" stroke-width="2.0344"/>
  </clipPath>
  <clipPath id="clipPath103">
   <path d="m-730.13-846.98h1245.1v1611.2h-1245.1z" stroke-width="2.0344"/>
  </clipPath>
  <clipPath id="clipPath106">
   <path d="m-730.13-846.98h1245.1v1611.2h-1245.1z" stroke-width="2.0344"/>
  </clipPath>
  <clipPath id="clipPath109">
   <path d="m-730.13-846.98h1245.1v1611.2h-1245.1z" stroke-width="2.0344"/>
  </clipPath>
  <clipPath id="clipPath112">
   <path d="m-730.13-846.98h1245.1v1611.2h-1245.1z" stroke-width="2.0344"/>
  </clipPath>
  <clipPath id="clipPath115">
   <path d="m-730.13-846.98h1245.1v1611.2h-1245.1z" stroke-width="2.0344"/>
  </clipPath>
  <clipPath id="clipPath118">
   <path d="m-730.13-846.98h1245.1v1611.2h-1245.1z" stroke-width="2.0344"/>
  </clipPath>
  <clipPath id="clipPath121">
   <path d="m-730.13-846.98h1245.1v1611.2h-1245.1z" stroke-width="2.0344"/>
  </clipPath>
  <clipPath id="clipPath124">
   <path d="m-730.13-846.98h1245.1v1611.2h-1245.1z" stroke-width="2.0344"/>
  </clipPath>
  <clipPath id="clipPath127">
   <path d="m-730.13-846.98h1245.1v1611.2h-1245.1z" stroke-width="2.0344"/>
  </clipPath>
  <clipPath id="clipPath130">
   <path d="m-730.13-846.98h1245.1v1611.2h-1245.1z" stroke-width="2.0344"/>
  </clipPath>
  <clipPath id="clipPath133">
   <path d="m-730.13-846.98h1245.1v1611.2h-1245.1z" stroke-width="2.0344"/>
  </clipPath>
  <clipPath id="clipPath136">
   <path d="m-730.13-846.98h1245.1v1611.2h-1245.1z" stroke-width="2.0344"/>
  </clipPath>
  <clipPath id="clipPath139">
   <path d="m-730.13-846.98h1245.1v1611.2h-1245.1z" stroke-width="2.0344"/>
  </clipPath>
  <clipPath id="clipPath142">
   <path d="m-730.13-846.98h1245.1v1611.2h-1245.1z" stroke-width="2.0344"/>
  </clipPath>
  <clipPath id="clipPath145">
   <path d="m-730.13-846.98h1245.1v1611.2h-1245.1z" stroke-width="2.0344"/>
  </clipPath>
  <clipPath id="clipPath148">
   <path d="m-730.13-846.98h1245.1v1611.2h-1245.1z" stroke-width="2.0344"/>
  </clipPath>
  <clipPath id="clipPath151">
   <path d="m-730.13-846.98h1245.1v1611.2h-1245.1z" stroke-width="2.0344"/>
  </clipPath>
  <clipPath id="clipPath154">
   <path d="m-730.13-846.98h1245.1v1611.2h-1245.1z" stroke-width="2.0344"/>
  </clipPath>
  <clipPath id="clipPath157">
   <path d="m-730.13-846.98h1245.1v1611.2h-1245.1z" stroke-width="2.0344"/>
  </clipPath>
  <clipPath id="clipPath160">
   <path d="m-730.13-846.98h1245.1v1611.2h-1245.1z" stroke-width="2.0344"/>
  </clipPath>
  <clipPath id="clipPath163">
   <path d="m-730.13-846.98h1245.1v1611.2h-1245.1z" stroke-width="2.0344"/>
  </clipPath>
  <clipPath id="clipPath166">
   <path d="m-730.13-846.98h1245.1v1611.2h-1245.1z" stroke-width="2.0344"/>
  </clipPath>
  <clipPath id="clipPath169">
   <path d="m-730.13-846.98h1245.1v1611.2h-1245.1z" stroke-width="2.0344"/>
  </clipPath>
  <clipPath id="clipPath172">
   <path d="m-730.13-846.98h1245.1v1611.2h-1245.1z" stroke-width="2.0344"/>
  </clipPath>
 </defs>
 <g stroke-width="2.0344">
  <path d="m78.951 33.938c1.7476-1.89 7.0166-5.7838 7.4988-5.6251 0.48012 0.16072 0.62456 3.4381 0.46791 5.7797 0 0 7.1062-4.8907 8.4346-4.5286 0.87276 0.23802 1.8737 3.7474 2.6549 5.621l2.6549-0.93582s3.4931-1.1291 4.6669-0.34788c1.1738 0.78324-0.60625 5.971-0.60625 5.971-0.46791 1.0945-0.83817 2.4942-1.5624 3.906 2.9702 0.01628 6.8051 0.64287 7.1855 1.2491 0.38247 0.60625-1.1677 6.6138-2.8868 10.207 0 0 4.2966 0.4374 4.2926 0.8809-2e-3 0.44553-2.187 2.6569-3.5928 3.5948 3.4829 1.3895 8.9941 4.7951 8.9025 5.6231-0.0997 0.90531-4.9985 5.1552-6.5589 6.4023 0 0 4.0037 6.5813 3.7494 7.0289-0.25634 0.4496-3.2815 0.78121-5.6251 0.46995 0 0 2.6122 12.973 2.189 13.431-0.42519 0.45977-5.3403 0.01627-9.1711-1.5156 0 0 1.3203 5.4502 0.91955 5.7472-0.40078 0.29702-4.673-0.15462-7.2791-1.6865 0 0 1.1433 3.6355 0.91955 3.9834-0.22582 0.34992-2.836-0.99482-3.8328-1.7618 0 0 0.3784 8.2617-0.61236 8.3532-5.6455 0.51674-11.877-3.9772-11.877-3.9772 0.91955 2.3497 1.123 5.9242 0.8158 6.0259-0.30516 0.10172-5.1063-3.9834-5.1063-3.9834-0.71408 1.9408-2.8543 6.6281-3.371 6.4348-4.083-1.5319-8.3736-9.1914-8.3736-9.1914-0.71611 1.2247-1.7374 5.3098-2.1463 5.3098-0.31737 0-1.7618-2.6122-2.3477-4.494-1.125 1.6357-3.133 4.0302-3.4727 3.7799-3.4727-2.5532-5.1063-11.848-5.1063-11.848-1.0213 1.6357-3.2693 4.0851-3.5744 3.9834-0.52284-0.17496 0.30516-7.3544 0.30516-7.3544-4.1868-0.10172-7.096-1.3508-7.3523-1.8371-0.91955-1.7374 1.2247-8.8863 1.2247-8.8863-1.3285 0-3.1655 0-3.2693-0.51064-0.08341-0.41909 1.7537-3.0068 2.8604-4.1888-2.5532-1.0213-6.9414-4.3902-6.8437-4.9009 0.51267-2.6569 6.1296-7.4561 6.1296-7.4561-0.71611-0.71611-2.9621-3.4727-2.7586-3.9834s2.8604-1.0213 2.8604-1.0213c-0.3072-3.7799-0.61236-7.9667-0.10172-8.4773 0.38654-0.3906 4.022 0.04883 7.0431 0.73035-0.62456-4.8419 1.6072-14.048 2.1341-14.284 0.52488-0.23396 5.9343 2.3436 7.9647 4.374 0 0 3.0842-6.9963 3.5928-7.0289s1.3854 2.0059 1.5421 3.0984c2.8319-6.4043 9.4661-10.717 10.017-10.752 0.59404-0.03865 5.2915 4.7625 6.8702 7.8101" clip-path="url(#clipPath73)" fill="#9fd7ee"/>
  <path d="m96.63 48.626c6.1581-10.502 17.854-15.905 30.538-14.402-4.5143-15.675 3.4829-21.491 15.728-20.122-11.755-11.598-35.128-16.318-47.918-11.332-0.93582 0.36619-1.2044 0.82597-0.30719 1.2227 5.5153 2.4169 8.8313 7.4866 9.7204 15.012 1.5319 12.971-9.7021 23.288-12.664 25.229 1.2573 0.68966 3.1248 1.835 4.9029 4.3923" clip-path="url(#clipPath76)" fill="#515457"/>
  <path d="m40.053 55.889c-6.3168-1.3203-12.08 1.0131-16.035 7.6616-0.26651 0.44553-2.3497-8.1722-10.52-9.4986-8.1722-1.3285-13.563 6.7237-13.38 6.0259 3.8715-14.882 14.402-29.7 28.598-35.952 0.26447-0.11596-5.0331 10.39-0.3072 18.69 4.1888 7.3544 11.543 8.3756 11.543 8.3756z" clip-path="url(#clipPath79)" fill="#515457"/>
  <path d="m62.859 80.79c-6.5813 1.0986-12.809-2.2134-14.249-8.2983-1.2328-5.2101 2.0364-11.502 8.2047-13.447 7.7999-2.4474 14.538 0.02238 16.34 6.449 2.0629 7.3625-2.779 14.043-10.296 15.297" clip-path="url(#clipPath82)" fill="#f09cb4"/>
 </g>
 <g stroke-width="2.0344">
  <path d="m67.823 70.821c1.2634-5.2589-2.1178-9.2321-5.8428-8.8944-3.727 0.33974-4.9131 3.135-5.4217 4.2356 0 0-1.949-1.7781-4.7422-0.5086-2.7953 1.2715-2.602 5.4278-1.2471 7.8853 1.3549 2.4555 4.4594 4.7381 8.4448 4.4797 2.6264-0.16886 4.4899-0.92972 6.3534-2.7932 1.8635-1.8635 2.2928-3.725 2.4555-4.4045" clip-path="url(#clipPath85)" fill="#515557"/>
  <path d="m73.01 94.156c-8.2007 2.2338-16.827-2.2745-20.169-8.5872-1.3508-2.5511-0.55336-3.9162 1.5929-2.6488 3.843 2.2724 7.0105 2.8543 12.123 1.1332 3.9549-1.3305 9.2118-5.7675 12.758-11.765 1.3142-2.2216 3.2571-2.2541 4.2377 0.23192 2.4209 6.1419-0.27871 18.847-10.542 21.636" clip-path="url(#clipPath88)" fill="#922f00"/>
  <path d="m73.01 94.156c5.1511-1.3997 8.3939-5.2976 10.044-9.6085-0.0081-0.04476-0.01627-0.09155-0.03255-0.12613-0.67542-1.4343-3.4178-2.777-6.7847-2.5654-7.2587 0.45164-14.011 6.2436-13.476 11.641 0.0081 0.08341 0.02441 0.16479 0.04069 0.24413 3.192 1.0945 6.7379 1.361 10.209 0.41502" clip-path="url(#clipPath91)" fill="#ed8599"/>
  <path d="m66.805 89.66c1.5136-0.28075 3.7311-5.3016 4.5469-8.278-1.6702 1.2695-3.3161 2.191-4.7849 2.6854-2.3843 0.80359-4.3434 1.0986-6.148 0.96024 1.6886 2.0303 4.8602 4.9171 6.386 4.6323" clip-path="url(#clipPath94)" fill="#fff"/>
  <path d="m71.281 69.947c-0.55336 0.36009-0.89717 0.72425-1.0843 1.3061-1.5909 4.9721-3.6416 6.7359-8.2068 8.0318-6.2497 1.772-11.452-1.9083-13.038-5.6455 1.9103 5.3464 7.7531 8.1783 13.907 7.1509 7.7775-1.2979 11.285-7.4825 11.193-12.571-0.76087 0.41502-2.008 1.2369-2.7709 1.7272" clip-path="url(#clipPath97)" fill="#d0879d"/>
  <path d="m67.151 89.741c0.07934-0.118 0.16072-0.23192 0.24616-0.34585" clip-path="url(#clipPath100)" fill="#db7486"/>
  <path d="m69.226 87.219c1.4017-0.07324 6.7481 0.07527 9.997 3.5439 0 0 2.2989-1.7374 3.8308-6.2049 0 0-2.01-2.9885-5.8489-2.6935-3.8369 0.29702-6.1256 1.18-6.1256 1.18z" clip-path="url(#clipPath103)" fill="#ce7486"/>
  <path d="m67.823 70.821c1.2634-5.2589-2.1178-9.2321-5.8428-8.8944-3.727 0.33974-4.9131 3.135-5.4217 4.2356 0 0-1.949-1.7781-4.7422-0.5086-2.7953 1.2715-2.602 5.4278-1.2471 7.8853 1.3549 2.4555 4.4594 4.7381 8.4448 4.4797 2.6264-0.16886 4.4899-0.92972 6.3534-2.7932 1.8635-1.8635 2.2928-3.725 2.4555-4.4045" clip-path="url(#clipPath106)" fill="#0f141b"/>
  <path d="m117.08 65.329c-3.2652 3.1777-12.182 4.2906-12.524 4.3048-0.34381 0.01221-0.43536 0.10172-0.2665 0.48419 0.16885 0.38247 2.0303 2.5084 3.5582 3.548-3.9447-0.36212-10.493 1.1087-11.279 1.4607-0.78528 0.35399-0.3133 0.50453-0.02034 0.68356 3.5073 2.1443 7.0187 5.7512 7.0187 5.7512-0.86869 0.29906-3.8267 0.26854-6.86-0.06917-0.57167-0.06307-0.77918 0.01221-0.58387 0.74256 0.25837 0.9582 0.81172 2.5857 1.6743 5.0921-1.0213-0.42722-3.2571-1.0375-6.8763-1.1698-0.5676-0.01831-0.51267 0.1241-0.34585 0.4374 0.45977 0.87276 1.4526 2.7851 1.8249 3.7596-0.14648 0.22582-3.3832-0.68356-6.6972-0.87683-0.77511-0.04476-0.76494-0.08138-0.64897 0.68559 0.47198 3.1309 1.9388 6.0544 1.9388 6.0544-2.5389 0.23192-5.973-0.91344-8.2495-1.8981-0.23802-0.10375-0.58591-0.16682-0.50046 0.28482 0.28278 1.5055 1.599 4.0098 1.599 4.0098-0.08544-0.07324-3.4625-0.67542-4.8276-0.91344-0.49232-0.08545-0.51267 0.03865-0.50046 0.4435 0.03255 0.98668 0.27871 1.9774 0.27871 1.9774-1.6255-1.2796-5.1084-3.0801-6.4877-3.6619-0.47808-0.20344-0.59608-0.09358-0.6388 0.33364-0.17292 1.6804 0.05289 2.777 0.05289 2.777-0.95413-0.35805-3.1859-0.99279-5.4563-3.6334-0.29092-0.33974-0.36416-0.09562-0.39467 0.03662-0.21972 0.9582-0.21972 2.1178-0.21972 2.1178-1.363-1.1596-2.8136-3.0455-3.7657-4.2275-0.23396-0.29295-0.42926-0.15461-0.41298 0.17496 0.059 1.1454 0.28482 2.4718 0.5798 3.6843-2.1707-1.0477-5.3078-4.5794-6.9088-7.3564-0.05289-0.09562-0.25837-0.38247-0.34178 0.01831-0.20344 0.98058-0.09358 2.0527-0.09358 2.0527-0.72425-0.66932-2.0161-4.197-2.2033-4.3292-0.3133-0.21565-3.8938 0.73849-8.3675 0.27668 2.8848 2.2012 6.508 2.1422 7.3849 2.0893-0.30719 3.0292-0.55946 7.2628-0.30312 7.3483 0.20344 0.06713 2.4128-2.3762 3.7555-3.9996 0.50046 4.7259 3.0679 10.495 4.9253 11.863 0.33974 0.25023 2.3497-2.1443 3.4727-3.7799 0.58591 1.8818 2.0324 4.494 2.3497 4.494 0.40892 0 1.4302-4.083 2.1463-5.3098 0 0 4.2885 7.6616 8.3736 9.1934 0.5147 0.19124 2.6549-4.494 3.371-6.4348 0 0 4.8012 4.083 5.1063 3.9834 0.3072-0.10172 0.10172-3.6782-0.81579-6.0259 0 0 6.2293 4.494 11.875 3.9772 0.99075-0.0915 0.61439-8.3553 0.61439-8.3553 0.99686 0.76697 3.607 2.1117 3.8328 1.7638 0.22378-0.34788-0.92158-3.9834-0.92158-3.9834 2.6061 1.5299 6.8803 1.9815 7.2811 1.6865 0.40077-0.29906-0.91955-5.7492-0.91955-5.7492 3.8308 1.5319 8.7459 1.9754 9.169 1.5177 0.42315-0.45977-2.187-13.433-2.187-13.433 2.3436 0.31126 5.3667-0.02034 5.6231-0.46791 0.25633-0.44757-3.7494-7.0309-3.7494-7.0309 1.5624-1.2471 6.4612-5.4969 6.5609-6.4023" clip-path="url(#clipPath109)" fill="#89bbcf"/>
 </g>
 <g fill="#0f141b" stroke-width="2.0344">
  <path d="m61.15 32.493c-0.60422-0.0061-1.6682 1.182-3.8918 6.8071-2.6773-2.4982-7.1428-4.4736-7.985-4.0362-1.4322 0.74052-3.4198 9.5983-2.7058 14.381 0.03662 0.25227 1.1698 0.14037 1.1677 0.12003-0.45164-6.5345 1.5645-13.519 1.8778-13.728 0.31126-0.20751 5.3159 2.5369 7.4866 4.3516 0.39467 0.32957 0.55132 0.31533 0.75273-0.14037 1.2247-2.7831 2.9845-6.7807 3.2286-6.8173 0.24209-0.03458 0.87886 2.4087 1.007 3.3018 0.03662 0.2543 0.83207-0.70187 0.79748-0.95617-0.10579-0.72628-1.1311-3.2774-1.7353-3.2835" clip-path="url(#clipPath112)"/>
  <path d="m72.542 24.925c-1.0416-0.03458-8.8415 4.9538-10.876 12.721-0.18716 0.71814 0.33771 0.8931 0.62456 0.20751 2.8156-6.7054 9.698-12.027 10.272-11.972 0.57167 0.05289 5.0657 4.6995 6.5854 7.629 0.11596 0.22785 0.71407-0.10579 0.62456-0.34585-1.5522-4.2275-6.1886-8.2047-7.2303-8.2393" clip-path="url(#clipPath115)"/>
  <path d="m78.768 33.795c-0.53708 0.78528-0.28278 1.1657 0.41705 0.52284 1.8065-1.6682 6.7359-5.678 7.1245-5.5275 0.41909 0.16479 0.18513 4.8785 0.17292 5.3525-0.01424 0.47198 0.16072 0.77104 0.72628 0.38043 3.312-2.2806 7.4764-4.793 8.1356-4.5143 0.66118 0.27668 2.2623 5.4054 2.2623 5.4054 0.1302 0.33974 0.1363 0.41502 0.58184 0.25837l2.6569-0.93786c0.24006-0.08544 0.19734-1.1291-0.0448-1.0436 0 0-1.9429 0.8931-2.543 1.1047-0.65304-3.135-1.9388-5.4074-2.7546-5.6312-1.2451-0.33771-5.7553 1.774-8.1518 4.2499 0.24413-2.1565-0.02034-5.2569-0.72832-5.4929-1.0457-0.34585-6.1276 3.3507-7.8548 5.8733" clip-path="url(#clipPath118)"/>
  <path d="m104.34 39.736s-1.1942 2.7973-1.5482 3.8776c-0.12206 0.36823 0.0305 0.65304 0.40892 0.67339 3.2754 0.20344 6.5386 0.83614 6.7461 1.121 0.20751 0.28685-1.4098 6.2232-2.8624 9.6736-0.13021 0.31126-0.22786 0.60218 0.37229 0.66118 1.422 0.14444 3.8532 0.34992 3.9183 0.58591 0.0793 0.28482-2.486 2.3497-3.6924 3.1554-0.13427 0.08951 0.71611 0.73035 0.93175 0.59608 1.6316-1.0233 3.8348-3.4239 3.7331-3.9162-0.10986-0.51674-0.85648-0.93176-4.1664-1.2715 1.6641-3.0536 3.2062-9.1975 2.602-10.064-0.58794-0.84021-4.3801-1.3549-6.8722-1.4465 0.3072-0.68763 1.597-3.9427 1.597-3.9427 0.0203-0.05696-1.0782 0.05696-1.1678 0.29702" clip-path="url(#clipPath121)"/>
  <path d="m39.829 48.789c-0.73442 0.80766-0.16275 5.7146 0.06714 8.577-1.6519 0.35195-2.8644 0.62049-2.8319 1.418 0.03052 0.79748 1.8106 3.0801 2.5613 3.9142-1.8554 1.2654-6.0361 6.1174-5.9282 7.4764 0.10782 1.3569 4.9273 4.6751 7.1326 5.3484 0.24413 0.07527 0.87886-0.67949 0.6978-0.75273-2.427-0.97041-6.801-3.9447-6.8722-4.6018-0.07324-0.65711 3.7881-5.3769 5.9323-7.0817 0.27668-0.21972 0.21768-0.49029 0.02645-0.68152-0.78731-0.78731-2.8197-3.3934-2.7668-3.5744 0.05086-0.18106 1.5421-0.43536 2.6284-0.64694 0.44757-0.08544 0.38857-0.33161 0.37433-0.49232-0.12817-1.5767-0.65508-7.6026-0.23396-8.0806 0.41909-0.47402 5.912 0.53505 9.1528 1.3651 0.52081 0.13427 0.66728-0.31737 0.18106-0.54318-2.3314-1.0904-9.2769-2.5715-10.121-1.6438" clip-path="url(#clipPath124)"/>
  <path d="m41.64 74.402c-0.93176 0.67339-4.1726 3.8593-3.9427 4.9599 0.17292 0.84224 1.4505 0.77511 3.2693 0.79342-0.72628 1.8391-1.8208 7.6371-1.182 8.7296 0.63677 1.0945 3.9915 2.368 7.3767 2.0263-0.4435 2.6691-0.90734 7.0248-0.06714 7.3889 0.70797 0.30516 2.7098-1.9937 3.489-3.4992 0.49232 6.5732 4.1726 11.275 5.3891 11.405 0.93176 0.0997 3.8369-3.8226 3.8633-3.8613 0.13427-0.19733-0.35806-1.3875-0.49232-1.1942-1.064 1.5482-3.0211 4.1237-3.31 4.0586-0.39671-0.0915-3.5338-4.1095-4.7605-11.411-0.08138-0.48622-0.33364-1.0091-0.85038-0.16682-1.0314 1.6886-2.8726 3.786-2.9763 3.7087-0.10376-0.07731 0.29295-4.4411 0.56149-6.7807 0.04883-0.3906-0.07527-0.50657-0.44757-0.51674-4.0261-0.09562-6.5976-1.1433-6.9719-1.6133-0.37433-0.47198 0.71408-6.0971 1.2756-8.5119 0.07324-0.32347 0.11189-0.59811-0.4435-0.59811-0.70187 0-2.6468 0.01017-2.7424-0.18716-0.09562-0.1953 2.5227-3.5378 3.3242-4.317 0.48622-0.46995 0.26854-0.87072-0.36212-0.41298" clip-path="url(#clipPath127)"/>
  <path d="m107.31 59.897c3.1391 1.4831 9.1955 4.8765 9.3013 5.4705 0.10782 0.59404-4.319 4.4167-6.3636 6.0523-0.19123 0.15461-0.34381 0.27668-0.10579 0.60422 2.0425 2.8278 3.7962 6.3148 3.6314 6.5569-0.16479 0.23802-3.0089 0.51267-5.0494 0.24006-0.54726-0.0712-0.56557 0.29702-0.51674 0.54929 1.1148 5.5376 2.5816 12.723 2.2297 13.006-0.35398 0.28278-4.8378-0.28685-8.5852-1.6112-0.27057-0.09562-0.83003-0.28888-0.62252 0.53912 0.50046 2.0608 1.2959 5.2203 1.0518 5.3729-0.24209 0.15054-4.4065-0.72425-6.7257-1.8188-0.29906-0.14241-0.94396-0.30719-0.67746 0.53708 0.39671 1.2634 1.1576 3.4056 1.0009 3.5114-0.15461 0.10375-2.3823-1.1738-3.1879-1.7943-0.52081-0.40078-0.74662-0.12206-0.74662 0.36823v0.01831c0.04883 1.0477 0.06917 3.8226 0.0651 4.1298-0.03052 1.8574-0.14648 3.6009-0.45774 3.784-0.47198 0.27464-3.5399-0.36823-5.6292-1.121-3.2795-1.182-5.3606-2.5857-5.735-2.8136-0.2543-0.15461-0.89514-0.53708-0.63677 0.48622 0.59608 2.3599 0.94193 5.3118 0.78528 5.3627-0.15461 0.0549-2.5735-1.9408-4.4085-3.784-0.36823-0.37027-0.54522-0.22786-0.73442 0.19326-1.1616 2.5817-2.6813 5.9262-3.0577 5.9608-0.37636 0.0366-3.0068-2.0792-4.3434-3.7006-2.0039-2.4291-3.4809-5.0392-3.5032-5.084-0.23396-0.41299-0.65101-0.45367-0.90938 0.0427-0.97855 1.8635-1.4587 3.9874-1.595 5.2528-0.03255 0.20954-1.7231-4.2946-2.189-5.6943-0.2482-0.74255-0.65304-0.73238-0.59608 0.0509 0.04679 0.65508 0.92362 3.8023 1.8167 5.4054 0.81376 1.4587 1.3508 1.599 1.7984 0.0651 0.36823-1.2654 1.0253-3.5154 1.2573-4.0952 2.4494 5.7268 7.3544 8.7967 8.4753 8.7337 0.90734-0.0509 2.836-3.8674 3.4727-6.0076 2.5654 2.8461 4.6649 3.6904 5.0799 3.4931 0.54318-0.25837 0.31126-3.4707-0.14648-5.1999 1.2756 0.87276 2.7729 1.7211 4.8114 2.4535 3.7636 1.3508 5.8367 1.0314 6.2802 0.79545 0.49436-0.25837 1.121-0.80969 1.184-4.4513 0.0041-0.21971-0.05493-2.1056-0.20751-3.5236 1.239 0.87276 3.3181 1.7882 3.7311 1.5014 0.41705-0.28482 0.03662-1.8452-0.47605-3.5866 2.543 1.1108 6.2517 1.7292 6.799 1.1677 0.54725-0.56149 0.27668-3.0719-0.69577-5.5376 3.6762 1.8025 8.4082 1.8513 9.0104 1.2491 0.60422-0.60218 0.17699-5.8774-1.951-13.23 2.7912 0.36212 5.1308-0.1953 5.4502-0.7568 0.3194-0.55743-0.41298-3.0679-3.548-7.153 2.1137-1.1698 6.4104-5.1267 6.4206-6.5121 0.0122-1.6418-6.9861-5.324-10.017-6.0747-1.007-0.25023-1.1271 0.17496-0.23396 0.59608" clip-path="url(#clipPath130)"/>
  <path d="m73.987 44.211c-0.5798 0.83817-0.08138 1.1474 0.58794 0.38043 1.8289-2.1076 6.6749-6.8091 7.7328-7.395 0.79748 0.59404 3.8654 5.1918 5.8713 10.052 0.33771 0.81783 0.85648 0.54115 0.62253-0.30923-1.4404-5.2345-5.3688-10.548-6.3575-10.713-1.1637-0.1953-6.5101 5.1572-8.457 7.985" clip-path="url(#clipPath133)"/>
  <path d="m43.491 66.468c0.16275 3.7291 1.949 8.7906 2.5939 8.7723 0.3255-0.0081 0.6327-0.47198 1.1087-1.8961 0.33974-1.0192 0.80359-2.4169 1.4729-3.6517 0.12206-0.22378-0.3133-1.1759-0.45367-0.96227-0.93379 1.4261-1.6153 3.4158-2.1056 5.4827-0.84834-2.4962-1.5339-6.1215-1.8798-7.8406-0.22785-1.1291-0.78528-1.0355-0.73645 0.09562" clip-path="url(#clipPath136)"/>
  <path d="m84.993 55.706c-1.5238 2.3111-2.425 6.1174-2.4433 9.4274-0.73442-0.49639-2.4331-1.9754-3.8572-3.251-0.28685-0.2543-0.48215-0.27058-0.70797 0.10782-0.14648 0.24413-0.74866 1.9815-1.0009 3.1391-0.84631-1.1271-2.6101-4.1014-3.4992-7.5069-0.27871-1.0701-0.71611-0.90124-0.58998 0.19734 0.49232 4.2804 3.3161 8.0806 3.902 8.4712 0.29499 0.19734 0.49843 0.18716 0.74052-0.37026 0.56353-2.0242 0.80766-2.6976 0.98058-3.1655 3.2388 3.1147 4.2031 3.4015 4.4777 3.2937 0.39874-0.15868 0.4496-0.64897 0.58591-1.9917 0.20344-1.9876 0.67542-5.1552 1.9042-8.1071 0.35602-0.85445 0.01831-1.0192-0.49232-0.24413" clip-path="url(#clipPath139)"/>
  <path d="m90.465 44.089c1.0111 0.64897 4.3333 2.5267 7.1123 6.8966 0.46791 0.73442 0.85445 0.45571 0.46995-0.3255-2.2745-4.6201-5.9567-6.4979-7.2567-7.1123-1.1555-0.54318-1.3366-0.10579-0.3255 0.54115" clip-path="url(#clipPath142)"/>
  <path d="m121.21 1.6722c-9.2301-2.3538-18.926-2.3111-26.35 0.66525-0.28075 0.11393-1.1413 0.44553-1.1535 1.1149-0.0081 0.39467 0.27058 0.72018 0.828 0.96431 5.3993 2.368 8.5669 7.336 9.4945 14.644 1.6072 12.668-9.8974 23.19-12.729 25.045-0.21361 0.14241 0.51674 0.65711 0.73238 0.5147 1.658-1.0864 5.5173-4.3231 8.7439-9.165 2.7912-4.1888 5.1979-10.426 4.4716-16.389-0.90938-7.5008-4.2051-12.892-10.424-15.421-0.28685-0.118-0.45774-0.25633 0.063066-0.46181 6.622-2.5796 16.393-2.5878 25.951-0.20141 7.9748 1.9896 15.59 5.6149 21.524 10.872-5.9791-1.1881-11.627 0.48622-14.345 3.7046-1.8106 2.1443-2.718 4.9721-2.718 8.4489 0 2.2358 0.47809 5.1267 1.4627 7.8853-5.7452-1.0314-11.502-0.16682-16.54 1.8981-5.6353 2.3111-10.489 6.4592-13.942 12.601-0.1241 0.22175 0.51064 0.79342 0.64084 0.5737 6.2131-10.595 17.486-15.795 30.243-14.279 0.73645 0.08544 0.59404-0.29092 0.49843-0.58998-2.2419-7.0634-1.6174-12.355 1.2328-15.734 2.7058-3.2062 7.5476-4.5204 14.001-3.7982 0.828 0.09358 0.75477-0.36619 0.37637-0.79138-4.8785-5.4949-13.612-9.9421-22.063-12.101" clip-path="url(#clipPath145)"/>
  <path d="m103.81 8.8129c1.9245 1.1861 5.8814 3.6863 10.211 7.8101 3.0353 2.895 6.2558 6.5854 9.0856 11.185 0.48826 0.79748 0.84021 0.5147 0.46995-0.34178-1.9103-4.4126-5.4847-8.5852-8.7235-11.59-4.4391-4.1217-8.6421-6.6016-10.701-7.5781-0.98668-0.46588-1.2715-0.058998-0.34178 0.5147" clip-path="url(#clipPath148)"/>
  <path d="m20.563 37.6c-0.77918 1.8574-1.418 5.1796-1.422 8.5282-2e-3 2.9356 0.48012 6.0117 1.7659 8.5872 0.38654 0.77104 0.74662 0.49029 0.46995-0.32754-0.86869-2.5837-1.241-5.4888-1.2532-8.3634-0.01017-2.8726 0.34178-5.7187 0.91751-8.1742 0.25227-1.0843-0.04679-1.2776-0.47808-0.25023" clip-path="url(#clipPath151)"/>
  <path d="m28.559 23.705c-6.6647 2.5572-13.165 7.6595-18.387 14.279-4.5448 5.7635-8.9819 14.373-10.113 20.767-0.1302 0.73442-0.16682 2.1687 1.1311 0.88496 4.3272-4.2783 7.9911-5.8184 12.263-5.1226 6.2924 1.0213 8.813 6.4877 9.7611 8.5445 0.42722 0.92972 0.8219 1.418 1.2308 0.73035 3.7026-6.2212 9.2321-8.9473 15.695-7.5944 0.25023 0.05289 0.28075-0.67339 0.03662-0.75476-6.4674-2.189-13.451 1.776-16.155 7.629-0.72018-2.1565-3.6579-8.6279-10.439-9.7305-4.3028-0.6978-9.3928 1.3325-12.835 5.7085 4.3394-14.815 15.289-28.579 27.491-34.377-1.6723 3.8348-2.4413 7.3828-2.4413 10.363 0 3.0516 0.68152 5.7858 2.0446 8.1824 4.2519 7.4662 11.793 8.2637 12.103 8.3085 0.25226 0.03255 0.35398-0.75069 0.09969-0.78731-0.0712-0.01017-7.1855-1.0884-11.203-8.1457-2.6142-4.5937-2.5633-10.557 0.15258-17.73 0.39264-1.0335 0.53505-1.5299-0.43536-1.1555" clip-path="url(#clipPath154)"/>
  <path d="m48.964 72.53c-1.1026-4.6588 1.0559-10.75 8.0237-13.024 4.2702-1.3956 8.2942-1.1942 11.281 0.42519 2.2155 1.2003 3.8084 3.1737 4.5184 5.7065 0.90531 3.2306 0.41095 6.4979-1.3061 9.2016-1.8371 2.8909-4.9029 4.9456-8.573 5.558-6.6016 1.1006-12.593-2.1585-13.944-7.867m7.3584-13.997c-6.0503 2.1341-9.6736 7.8792-8.1844 14.172 1.4343 6.0666 7.9077 9.8689 14.855 8.7113 3.9101-0.65304 7.4093-2.7444 9.3766-5.8408 1.8533-2.9153 2.541-6.6016 1.5706-10.072-0.85038-3.0292-2.4006-5.1186-5.0046-6.5284-3.192-1.7333-8.0603-2.0466-12.613-0.44146" clip-path="url(#clipPath157)"/>
  <path d="m57.122 66c0.63473-1.2166 1.7801-3.3547 4.9334-3.6416 1.5238-0.13834 3.0231 0.50453 4.1136 1.7638 1.4505 1.6804 1.9327 4.1054 1.3203 6.6545l-0.0061 0.02238c-0.15868 0.66728-0.58184 2.4331-2.3477 4.199-1.7374 1.7353-3.5053 2.5125-6.1032 2.6813-3.8165 0.24616-6.9007-1.9062-8.1742-4.2153-0.89107-1.6133-1.1515-3.8776-0.6449-5.4095 0.31737-0.95413 0.96227-1.7272 1.7882-2.0975 2.3355-1.0498 4.2336 0.30109 4.4167 0.40484 0.4435 0.24616 0.54725-0.06103 0.7039-0.36212m9.8872-2.4494c-1.2532-1.4526-3.2469-2.2907-5.0209-2.1321-3.546 0.32347-4.8988 2.6915-5.4359 4.2987-1.1372-0.73238-2.9946-1.2735-4.9334-0.40688-1.125 0.50453-1.7577 1.3793-2.1626 2.5206-0.65304 1.8391-0.18513 4.4635 0.64897 5.975 1.3915 2.5227 4.7483 4.9721 8.9758 4.6913 2.6244-0.17496 4.8317-0.90327 6.858-2.9295 2.8807-2.8807 4.0627-8.5567 1.0701-12.017" clip-path="url(#clipPath160)"/>
  <path d="m70.813 83.679c1.7353-0.77714 3.6151-1.2613 5.4868-1.3773 3.2144-0.2014 5.9649 1.1657 6.4226 2.4209 0.08544 0.24209 0.75273-0.0712 0.66525-0.3133-0.66321-1.8228-3.7433-3.2449-7.1448-3.0333-1.7394 0.10782-3.4809 0.49232-5.1186 1.1189z" clip-path="url(#clipPath163)"/>
  <path d="m64.466 88.989c-0.92565 1.5706-1.1881 3.4829-1.1881 4.734 0 0.25633-0.71814 0.21768-0.74459-0.03662-0.17089-1.6316 0.19327-3.5602 1.1738-5.3057z" clip-path="url(#clipPath166)"/>
  <path d="m70.854 81.563c-0.65304 3.078-2.8014 7.5639-4.0973 7.806-1.3956 0.25837-4.2844-2.4209-5.6658-4.2885-0.12613-0.17089-1.2369-0.09155-1.1087 0.08138 1.1494 1.5563 4.8541 5.2203 6.921 4.8358 1.9876-0.36823 4.5672-6.2131 5.1206-8.8273 0.04476-0.20954-1.1271 0.1831-1.1698 0.39264" clip-path="url(#clipPath169)"/>
  <path d="m73.173 94.583m-6.4755-10.241c4.4289-1.4912 9.7285-5.9994 12.957-11.734 0.54318-0.96227 1.2349-1.7842 2.0181-1.7048 0.60015 0.06103 1.1067 0.79138 1.4912 1.7679 1.4159 3.5928 0.90734 9.0917-1.2389 13.37-1.3773 2.7464-4.0566 6.3046-8.9961 7.6473-8.3227 2.2663-16.631-2.4576-19.748-8.3431-0.95617-1.8065-0.69576-2.3294-0.46995-2.545 0.16479-0.15461 0.69576-0.19734 1.4871 0.29906 4.1868 2.6203 7.6107 2.8868 12.499 1.243m12.259-12.31c-3.8267 6.2944-9.0246 10.17-12.548 11.356-5.2711 1.772-8.4143 0.97855-11.696-0.887-1.4932-0.85038-2.2256-0.50453-2.5389-0.20547-0.64897 0.62049-0.65101 1.8065 0.32347 3.6416 3.2937 6.2049 11.826 11.183 20.598 8.7947 5.2691-1.4322 8.1966-5.088 9.6593-8.0033 1.3956-2.781 2.1666-6.0523 2.1666-9.0551 0-1.8554-0.26447-3.6741-0.84021-5.1328-0.52284-1.3224-1.3997-2.3029-2.3741-2.3823-0.99686-0.07731-1.8757 0.43129-2.7505 1.8737" clip-path="url(#clipPath172)"/>
 </g>
</svg>
