<?xml version="1.0" encoding="UTF-8"?>
<!-- Created with Inkscape (http://www.inkscape.org/) -->
<svg version="1.1" viewBox="0 0 137.59 180.29" xmlns="http://www.w3.org/2000/svg">
 <path d="m63.809 30.831s-19.182-1.3527-20.19-3.4761c-0.67238-1.4163-0.0197-7.5005 0.82533-8.3149 1.7232-1.6686 17.471 6.843 17.471 6.843s-16.178-18.047-16.242-20.094c-0.0617-2.045 3.9628-5.2639 5.9839-5.2609 2.2545 6e-3 11.14 12.265 15.476 23.978 0 0-2.4104-22.436-1.4371-23.726 1.0925-1.449 5.6006-0.64755 6.6831 0.50552 1.0468 1.1134-0.78558 28.383-0.78558 28.383z" fill="#0f141b"/>
 <path d="m111.05 180.03c-3.8248 0.74888-11.401-5.538-11.401-5.538s-11.529 6.0425-14.748 4.8239c-1.6099-0.60884-1.011-7.9395 0.30988-12.512 0 0 28.647-9.7014 28.582-9.7063 7.4042 4.2617 17.827 15.4 15.312 18.587-1.7976 2.2774-14.333-3.6539-14.333-3.6539s-1.1908 7.5045-3.7224 7.9991" fill="#0f141b"/>
 <path d="m110.73 177.86c-1.2464 0.38933-8.3636-2.2505-12.165-7.8372-0.73493-1.0796-1.2643-0.67835-0.73296 0.67438 0.45188 1.161 0.84121 2.1602 0.84121 2.1602-2.765 1.7877-9.7908 5.091-11.765 4.3432-1.4501-0.54725-0.80845-7.8571 0.38038-11.977l23.896-7.4916c7.3515 3.2507 17.111 14.734 15.711 16.338-0.6406 0.72998-8.4182-2.0519-11.81-4.2071 0 0 0.0366-0.48564 0.0456-1.2127 6e-3 -1.024-0.39727-1.8324-0.70516-0.3476-0.22832 1.0984-1.4778 8.8691-3.6956 9.5574" fill="#fffbc6"/>
 <path d="m101.62 167.3c-6.117 1.8741-15.376 3.2507-15.376 3.2507 8e-3 -0.0113 0.33868-3.4851 0.33868-3.4851l25.522-9.3617 3.3997 2.6925s-8.452 5.237-13.884 6.9036" fill="#ddd8ac"/>
 <path d="m42.459 180.29c3.0034 0.22748 10.035-6.4467 10.035-6.4467s11.884 6.9254 14.979 5.4208c2.4293-1.1789-1.8265-8.8393-4.4703-13.389l-23.941-7.9127c-7.5948 3.3182-20.597 15.058-18.447 17.556 1.6517 1.9258 17.293-2.0003 17.293-2.0003s1.6407 6.551 4.5508 6.7715" fill="#0f141b"/>
 <path d="m42.489 177.95c1.9744 0.29696 8.9476-4.7772 10.762-7.7081 0.48863-0.7866 1.2415-0.8313 0.9475 0.3645-0.14217 0.57404-0.46681 1.4421-0.46681 1.4421 2.8643 2.4899 10.589 5.9313 11.83 5.1616 1.3239-0.82137-2.2218-8.5255-4.956-12.757l-18.619-6.2154c-10.246 4.0929-19.249 14.48-18.71 15.53 0.40521 0.79553 9.5574-0.60585 14.492-2.3112 0 0-0.1112-0.44592-0.0735-0.93257 0.0873-1.175 0.48866-1.3259 0.7022-0.28604 0.27224 1.3309 1.4917 7.3237 4.0909 7.712" fill="#fffbc6"/>
 <path d="m47.849 166.33c7.5462 2.617 15.802 3.5834 15.802 3.5834-0.0113-0.0113-1.9834-4.0472-1.9834-4.0472l-21.488-6.9374-2.8475 1.5881s5.1457 3.9499 10.518 5.8131" fill="#ddd8ac"/>
 <path d="m25.522 145.4c-4.373-6.5669-4.5686-10.92-4.5686-10.92-6.5927 1.307-16.024-9.5514-20.455-5.0811-3.8615 3.8913 15.303 24.958 36.125 26.769 0 0-6.7298-4.2051-11.102-10.768" fill="#0f141b"/>
 <path d="m23.611 137.17c-8.7529 1.0905-19.015-10.012-21.8-6.8062-2.5416 2.9239 17.992 22.361 33.709 24.072z" fill="#fabe00"/>
 <path d="m31.706 148.91s-10.416 2.2078-26.675-12.344c4.8686 6.3186 19.503 16.675 30.486 17.869z" fill="#d8a500"/>
 <path d="m123.61 105.09c10.805-8.6546 16.127-26.207 13.173-39.435-3.2298-14.46-13.781-21.299-15.04-23.807-2.7074-5.398-4.508-10.101-7.2671-9.8871-1.6983 0.13007-2.1462 3.1732-2.1462 3.1732s-4.5031-1.7083-5.973-0.65451c-1.4759 1.0558-0.18581 3.1861-0.18581 3.1861s-2.5992-1.1174-3.795 0.0684c-1.3944 1.3835 4.9123 7.286 7.6425 19.791 2.7302 12.503-6.4368 23.207-6.4368 23.207z" fill="#0f141b"/>
 <path d="m122.84 103.19c10.169-9.1015 13.798-21.596 11.827-36.116-1.8324-13.518-14.295-23.495-14.756-24.626-1.755-4.2876-4.2955-9.1045-5.5837-8.6039-0.87796 0.34068-0.77765 3.3093-0.77765 3.3093s-4.1942-2.2605-5.5231-1.307c-1.3269 0.9515 0.17878 4.2568 0.17878 4.2568s-2.5654-1.3219-3.3341-0.28013c-0.5989 0.8154 5.1963 7.4776 7.6574 18.752 2.4641 11.274-6.5878 23.824-6.5878 23.824z" fill="#fabe00"/>
 <path d="m75.139 167.86c-32.48-0.35955-56.38-17.436-56.166-39.317 0.22551-23.174 25.339-61.881 56.758-61.536 31.964 0.35259 56.086 41.761 55.884 62.853-0.22438 23.171-25.057 38.344-56.476 37.999" fill="#0f141b"/>
 <path d="m75.339 166.07c-29.847-0.32776-54.271-15.861-54.057-37.874 0.21255-22.014 24.771-58.785 54.619-58.457 29.849 0.32773 53.686 37.631 53.472 59.644-0.21453 22.015-24.187 37.015-54.034 36.686" fill="#fabe00"/>
 <path d="m43.639 98.93c0 15.609 16.754 28.263 37.42 28.263 20.663 0 37.415-12.654 37.415-28.263 0-0.40622-0.0169-0.81143-0.0397-1.2137-8.1709-12.58-20.304-23.605-34.287-26.946-1.02-0.0625-2.0479-0.1022-3.0888-0.1022-20.666 0-37.42 12.652-37.42 28.262" fill="#d8a500"/>
 <path d="m21.231 128.31c-0.2134 22.012 24.209 37.546 54.058 37.875 18.836 0.20665 35.326-5.6949 44.989-15.606-18.366 14.695-83.959 20.646-99.047-22.269" fill="#d8a500"/>
 <path d="m76.079 98.38c28.624-1.5891 48.687-17.729 46.851-38.09-1.6685-18.515-23.116-34.76-53.498-33.073-28.622 1.5871-49.052 18.83-47.217 39.193 1.8354 20.362 25.24 33.558 53.863 31.97" fill="#0f141b"/>
 <path d="m75.849 97.51c26.663-1.4778 46.888-18.054 45.18-37.018-1.7082-18.967-24.71-33.143-51.368-31.663-26.663 1.4778-46.889 18.051-45.182 37.019 1.7113 18.964 24.71 33.139 51.37 31.662" fill="#fabe00"/>
 <path d="m7.485 86.41c1.4818-15.497 9.5455-26.299 9.9199-28.225 1.1541-5.9312 1.4421-11.221 4.1584-11.758 1.6686-0.33074 2.917 3.0014 2.917 3.0014s3.4851-3.4592 5.1894-2.8385c1.7023 0.62075 1.3785 3.8923 1.3785 3.8923s1.9357-1.4689 3.4036-0.64854c1.7162 0.95642-0.875 6.1577-0.69325 11.802 0.27816 8.6 2.0112 20.726 3.0292 26.671 2.7382 16.009-0.71211 23.516-4.0164 26.717-3.1782 2.1999-3.5894 2.4492-7.0367 3.792-2.8395 0.77764-5.9094 0.86703-8.8403-0.68134-8.9357-4.7176-10.97-15.39-9.4094-31.723" fill="#0f141b"/>
 <path d="m32.054 112.9c-1.4669 1.9844-2.1294 4.5905 1.6427 1.7133 0 0-0.96039 1.7768-3.8555 3.3589-2.8971 1.5831-4.8001 1.6338-4.8001 1.6338 4.5418-1.459 2.0778-2.8971-0.87598-2.4144-9.3677 1.5295-16.574-7.4191-14.608-29.782 1.4093-16.063 9.4729-27.85 9.612-29.065 0.53235-4.6014 1.6864-9.9219 3.057-9.7878 0.94054 0.0923 1.6407 2.9786 1.6407 2.9786s3.4334-3.3063 4.9679-2.7481c1.5364 0.56213 0.97629 4.1485 0.97629 4.1485s2.1135-1.9645 3.1315-1.167c0.41517 0.32278-0.44792 5.4297-0.6982 8.7211-0.10135 1.3567 0.79654 17.79 2.2813 26.474 2.7422 16.033 0.67635 20.684-2.472 25.936" fill="#fabe00"/>
 <path d="m79.539 67.09c5.0881-0.36647 9.0777 5.0513 14.65 6.695 5.5737 1.6437 11.079 0.0225 12.899 1.7182 2.0042 1.8702 0.15681 5.39 2.2724 8.5493 1.3388 1.9993 13.026 6.3266 12.115 18.357-0.71709 9.4829-16.487 19.018-39.42 18.458-21.47-0.52441-39.144-4.95-38.51-19.635 0.2621-6.0177 2.3469-9.1293 2.1264-12.181-0.21847-3.054-2.479-3.8684-1.303-6.3107 2.0837-4.3342 11.897-2.2208 18.995-5.4585 5.5608-2.5396 12.143-9.901 16.175-10.192" fill="#0f141b"/>
 <path d="m80.249 68.8c4.6908-0.28702 7.4727 5.0026 12.61 6.4964 5.1367 1.4928 11.049 0.38238 12.73 1.9178 1.8473 1.6894 0.27815 5.3642 2.2307 8.2186 1.7788 2.5972 11.616 4.3978 11.543 15.68-0.0526 7.5293-9.8097 12.893-17.408 15.607-3.0362 1.0816-12.894 2.908-22.801 2.4929-11.288-0.47376-22.801-3.5516-26.308-5.686-4.2876-2.6121-7.4042-5.7813-7.1012-12.851 0.23254-5.4357 1.8066-8.9068 1.6-11.662-0.20552-2.7571-1.9943-3.2914-0.93556-5.5052 1.3924-2.907 12.492-2.04 18.299-4.9768 3.8575-1.9526 12.208-9.5286 15.542-9.7322" fill="#fffbc6"/>
 <path d="m73.969 78.06c-0.72303-0.64059-3.2408-1.3607-2.2208-2.2962 0.58893-0.53931 1.9943-0.0526 3.2219 1.1729 1.2296 1.2256 1.9824 2.9716 1.2296 3.2656-0.90977 0.35755-1.4938-1.4888-2.2307-2.1423" fill="#0f141b"/>
 <path d="m86.739 77.96c0.41517-0.49161 1.5603-1.3408 0.8005-1.8592-0.44195-0.30093-1.3219 0.15597-2.0132 1.0806-0.69522 0.92565-1.0111 2.1016-0.49955 2.2724 0.95841 0.32081 1.2881-0.9902 1.7122-1.4938" fill="#0f141b"/>
 <path d="m50.999 108.69c8.4589 7.717 62.809 14.368 68.416-7.4667-0.0527 7.5283-9.8077 12.892-17.407 15.605-3.0371 1.0816-12.895 2.909-22.803 2.4929-11.286-0.47376-22.8-3.5506-26.307-5.687-4.2856-2.6101-7.5462-5.7168-7.2442-12.784 0.23057-5.4357 1.0051-5.5727 1.4262-8.5622 0 0-2.2287 10.79 3.9201 16.402" fill="#ddd8ac"/>
 <path d="m98.029 69.53c8.301 1.2782 15.75-2.3528 16.635-8.1113 0.8899-5.7575-5.1248-11.46-13.426-12.739-8.302-1.2782-15.749 2.3538-16.634 8.1093-0.88691 5.7594 5.1238 11.463 13.425 12.741" fill="#0f141b"/>
 <path d="m98.279 68.17c7.4568 1.0726 14.168-2.0946 14.985-7.0764 0.81638-4.9848-4.5637-9.8911-12.023-10.965-7.4538-1.0736-14.162 2.0926-14.981 7.0754-0.81737 4.9818 4.5637 9.8931 12.019 10.966" fill="#fff"/>
 <path d="m96.269 60.01c0.83823-0.0281 1.4938-0.72998 1.4679-1.5662-0.0298-0.83925-0.72899-1.4967-1.5702-1.4689-0.83525 0.0287-1.4927 0.72998-1.4639 1.5672 0.0281 0.83725 0.72801 1.4947 1.5662 1.4679" fill="#0f141b"/>
 <path d="m52.839 48.85c9.324-1.3448 17.641 2.8047 18.572 9.2733 0.9346 6.4656-5.8677 12.799-15.193 14.144-9.323 1.3478-17.64-2.8038-18.574-9.2704-0.93061-6.4686 5.8687-12.801 15.195-14.147" fill="#0f141b"/>
 <path d="m53.129 50.46c8.3348-1.17 15.765 2.4293 16.597 8.0398 0.83429 5.6095-5.245 11.104-13.577 12.273-8.3328 1.168-15.763-2.4303-16.597-8.0418-0.83426-5.6085 5.247-11.103 13.577-12.271" fill="#fff"/>
 <path d="m56.519 61.55c0.83626-0.0754 1.4501-0.8134 1.3746-1.6487-0.0746-0.83328-0.81343-1.449-1.6477-1.3736-0.83328 0.0746-1.449 0.81242-1.3726 1.6477 0.0726 0.83525 0.81241 1.451 1.6457 1.3746" fill="#0f141b"/>
</svg>
