<?xml version="1.0" encoding="UTF-8"?>
<!-- Created with Inkscape (http://www.inkscape.org/) -->
<svg version="1.1" viewBox="0 0 120.01 138.71" xmlns="http://www.w3.org/2000/svg">
 <g transform="translate(-37.782 -17.321)">
  <g transform="matrix(.46585 0 0 -.46585 79.263 101.05)">
   <path d="m0 0c-9.004 6.792-19.588 5.687-24.169 3.792-4.635-1.918-3.317-8.689-1.738-12.48 18.799 6.477 22.432-18.324 6.793-15.165 6.003-10.584-2.212-17.692-11.057-14.375-9.637-3.633-22.748 8.214-12.322 24.643-2.528 4.581-4.423 24.327 1.422 29.382 7.274 6.291 27.802 5.687 38.228-0.79 1.263-5.213 2.211-10.426 2.843-15.007" fill="#ffe792"/>
  </g>
  <g transform="matrix(.46585 0 0 -.46585 102.37 109.69)">
   <path d="m0 0c0.234 5.571 5.333 9.414 9.804 9.572 3.608 4.156 6.118 14.197 1.649 19.375-4.473 5.178-18.436 1.883-23.691-2.119 2.982-5.569 9.022-19.375 12.238-26.828m15.216 118.72c3.582-26.538-14.111-51.603-41.913-63.082 2.212-3.475 6.109-11.057 8.637-16.218 17.27 11.585 31.803 10.743 41.491 5.687 7.518-3.921 11.48-18.746 9.69-30.436 15.375-8.107 8.636-27.802-3.266-24.852-3.21-7.866-15.927-8.353-17.795 0.526-1.37-0.316-3.791-0.632-4.952-0.526-5.212-7.267-13.743-13.269-22.431-18.64-0.79 25.907-8.372 50.391-18.324 63.187-6.433 8.269-14.592 6.842-18.482-1.422-2.528 7.425-3.634 12.006-6.793 17.323-26.854-1.526-67.82 13.27-73.719 39.176l8.849 50.971c9.688 18.746 34.992 29.196 60.659 30.961 33.699 2.318 73.381-15.819 78.349-52.655" fill="#ffe792"/>
  </g>
  <g transform="matrix(.46585 0 0 -.46585 108.13 66.01)">
   <path d="m0 0c2.935 7.886 4.023 16.334 2.86 24.944-4.968 36.836-44.65 54.973-78.349 52.655-25.667-1.765-50.971-12.216-60.659-30.962l-8.849-50.97c0.259-1.132 0.605-2.233 0.992-3.321 13.047-11.708 30.431-18.762 59.243-18.762 34.899 0 65.214 9.015 84.762 26.416" fill="#f5aa00"/>
  </g>
  <g transform="matrix(.46585 0 0 -.46585 80.073 30.057)">
   <path d="M 0,0 C 1.58,6.318 7.41,19.459 10.532,23.063 17.376,30.961 31.51,20.057 23.589,13.269 19.166,9.478 10.532,2.105 7.583,-1.16 5.265,-0.632 2.95,-0.316 0,0" fill="#e50021"/>
  </g>
  <g transform="matrix(.46585 0 0 -.46585 45.471 44.201)">
   <path d="m0 0c-5.437 0.761-13.862-12.426-14.817-24.28-0.957-11.852 1.338-27.052 5.734-28.007 4.398-0.957 13.671 10.515 14.627 25.618 0.955 15.103-0.766 26-5.544 26.669" fill="#fff"/>
  </g>
  <g transform="matrix(.46585 0 0 -.46585 92.828 46.198)">
   <path d="m0 0c-11.186-0.324-21.745-15.972-20.852-32.542 0.776-14.429 8.928-26.708 22.01-25.8 14.372 0.997 19.583 17.596 18.85 29.804-1.002 16.69-9.656 28.839-20.008 28.538" fill="#fff"/>
  </g>
  <g transform="matrix(.46585 0 0 -.46585 47.841 74.21)">
   <path d="M 0,0 C 5.371,8.846 15.36,12.071 25.171,11.585 37.913,10.953 53.5,2.948 64.135,-7.583 50.13,-9.794 15.903,-9.478 0,0" fill="#fff"/>
  </g>
  <g transform="matrix(.46585 0 0 -.46585 45.523 52.477)">
   <path d="m0 0c-2.908 0.485-5.45-3.08-6.003-7.977s0.237-10.268 2.291-10.505c2.053-0.237 4.719 3.511 5.528 8.451 0.869 5.292 0.553 9.636-1.816 10.031" fill="#0f141b"/>
  </g>
  <g transform="matrix(.46585 0 0 -.46585 94.974 55.2)">
   <path d="m0 0c-3.88-0.149-6.318-6.713-6.082-11.215 0.237-4.503 3.555-10.347 6.872-10.268 3.611 0.086 5.697 5.684 5.608 11.057-0.079 4.818-2.291 10.584-6.398 10.426" fill="#0f141b"/>
  </g>
  <g transform="matrix(.46585 0 0 -.46585 74.557 124.19)">
   <path d="m0 0c1.567 4.278 4.912 10.913 6.368 14.818 6.259 16.8 5.021 36.723 1.148 48.523 2.503 7.513 11.033 11.045 18.053 2.713 11.163-13.252 19.575-46.04 18.813-63.77-8.38-6.146-24.13-10.451-29.249-10.111-6.262 0.417-12.628 5.53-15.133 7.827" fill="#e50021"/>
  </g>
  <g transform="matrix(.46585 0 0 -.46585 70.212 117.97)">
   <path d="m0 0c-1.738-2.922-7.187-3.475-10.584-1.264-1.185-0.868-3.081-1.658-4.818-1.342-2.606-4.581-6.618-12.163-6.476-15.007 0.236-4.818 6.16-8.451 11.926-12.322-4.186-0.79-9.518-4.424-9.636-7.108-0.158-3.555 12.183-9.021 17.929-9.873 2.133-0.316 6.082-1.185 6.477-4.107-9.162-1.659-16.624-6.688-15.086-14.139 2.054-9.951 33.015-6.16 39.966 6.24 10.9-2.764 33.331-4.502 43.836-3.396-1.027-10.031 11.294-18.166 22.905-18.166 11.61 0 17.929 3.396 18.482 7.898s-3.712 12.322-16.587 15.165c6.635 1.027 10.979 4.739 8.689 9.794 6.556-3.712 13.269-2.843 17.692 1.816 4.423 4.661 10.584 13.744 13.506 19.431 2.212-5.056 6.951-10.584 9.715-11.532 2.765-0.948 4.843 0.105 6.003 2.527 2.765 5.766 9.952 17.061 13.427 20.931 2.29-4.66 5.05-7.389 6.95-7.345 3.476 0.079 11.91 15.432 12.874 22.431 0.316 2.29-1.068 3.021-2.527 1.106-2.527-3.318-5.45-6.161-7.108-7.109-1.659-0.947-3.713-0.947-4.581 1.027-0.87 1.975-3.007 6.714-4.581 6.872-2.37 0.237-8.293-4.344-12.321-7.978-0.316 5.845-1.16 14.486-3.871 15.007-2.053 0.395-5.845-1.895-8.293-4.265-2.922 11.137-7.425 23.774-12.242 24.959-4.818 1.185-14.217-0.79-20.852-10.979 0.237-5.607-3.475-13.506-11.927-11.689-3.633-7.82-14.822-8.505-17.796 0.525-1.397-0.289-3.529-0.762-4.951-0.525-8.451-11.453-36.515-30.157-52.129-28.75-8.767 0.79-20.299 10.425-24.011 21.167" fill="#f5aa00"/>
  </g>
  <g transform="matrix(.46585 0 0 -.46585 45.094 54.635)">
   <path d="m0 0c-1.029 0.163-2.227-1.804-2.51-3.91-0.289-2.14-0.165-4.237 0.535-4.401 0.968-0.229 1.99 1.499 2.469 4.031 0.409 2.179 0.289 4.154-0.494 4.28" fill="#fff"/>
  </g>
  <g transform="matrix(.46585 0 0 -.46585 95.144 57.399)">
   <path d="m0 0c-1.074 0-1.755-2.465-1.706-4.676 0.062-2.907 0.823-4.992 1.77-4.992 1.074 0 1.957 2.464 1.832 4.929-0.128 2.524-0.63 4.739-1.896 4.739" fill="#fff"/>
  </g>
  <g transform="matrix(.46585 0 0 -.46585 44.601 75.372)">
   <path d="m0 0c30.751-25.011 92.885-19.522 129.79 7.617-6.947-9.119-18.738-20.235-32.639-25.132 2.021-3.638 6.634-11.689 8.688-16.586-3.475-6.951-22.747-15.481-33.805-6.793-1.896 6.161-4.581 13.428-6.635 17.061-19.43-1.264-46.657 5.299-65.403 23.833" fill="#dbc77f"/>
  </g>
  <g transform="matrix(.46585 0 0 -.46585 88.051 95.353)">
   <path d="m0 0c-6.987 11.429-17.12 11.845-21.234 1.997 5.948-4.674 14.271-4.361 21.234-1.997" fill="#c6001a"/>
  </g>
  <g transform="matrix(.46585 0 0 -.46585 96.015 97.473)">
   <path d="m0 0c-2.214 0-0.543 6.162 2.354 7.373 14.649 6.116 28.01 1.367 26.401-11.11-1.207 4.508-4.347 8.693-9.819 9.177-5.534 0.489-12.074-1.609-17.549-4.749z" fill="#dbc77f"/>
  </g>
  <g transform="matrix(.46585 0 0 -.46585 102.92 107.99)">
   <path d="m0 0c-0.967-5.874 6.198-8.854 10.624-6.76-0.08-2.174-0.082-4.589 0.323-6.52-7.166-3.622-15.617 5.553-10.947 13.28" fill="#dbc77f"/>
  </g>
  <g transform="matrix(.46585 0 0 -.46585 108.32 110.27)">
   <path d="m0 0c0-11.671 14.81-11.028 17.949-1.771 0.723-6.762-2.656-13.12-10.626-13.12-7.967 0-9.9 10.867-7.323 14.891" fill="#dbc77f"/>
  </g>
  <g transform="matrix(.46585 0 0 -.46585 116.69 111.1)">
   <path d="M 0,0 C 2.656,-1.287 10.221,1.529 10.463,8.531 13.2,1.529 8.693,-9.256 -0.886,-6.922 -0.242,-4.911 0.082,-2.253 0,0" fill="#dbc77f"/>
  </g>
  <g transform="matrix(.46585 0 0 -.46585 78.945 98.113)">
   <path d="m0 0c-14.121 5.381-26.709 4.805-27.765-7.494 2.019 4.132 5.393 6.134 9.031 6.438 5.766 0.48 13.741-0.865 19.312-5.381-0.097 1.827-0.193 4.324-0.578 6.437" fill="#dbc77f"/>
  </g>
  <g transform="matrix(.46585 0 0 -.46585 67.783 110.1)">
   <path d="m0 0c4.053-1.079 13.968 0.36 13.968 5.548 3.65-4.035 0.385-12.585-8.165-10.087-0.867 1.441-2.577 3.295-5.803 4.539" fill="#dbc77f"/>
  </g>
  <g transform="matrix(.46585 0 0 -.46585 62.385 112.75)">
   <path d="m0 0c3.172-10.666 16.236-8.84 18.152-0.955 2.307-6.984-1.53-13.265-7.39-13.072-5.862 0.193-10.473 5.86-10.762 14.027" fill="#dbc77f"/>
  </g>
  <g transform="matrix(.46585 0 0 -.46585 58 110.91)">
   <path d="m0 0c1.249-6.629 6.534-10.087 10.088-9.224 1.345-3.17 3.554-6.148 5.571-7.397-7.013-4.036-18.542 3.843-15.659 16.621" fill="#dbc77f"/>
  </g>
  <g transform="matrix(.46585 0 0 -.46585 75.985 120.51)">
   <path d="m0 0c4.868-4.359 28.992-8.919 40.042-6.385-8.414-4.968-21.999-9.663-27.774-9.428-4.969 0.203-11.456 4.258-15.511 8.11 1.014 2.939 1.824 5.067 3.243 7.703" fill="#c6001a"/>
  </g>
  <g transform="matrix(.46585 0 0 -.46585 78.383 115.22)">
   <path d="m0 0c-3.386 0.967-9.35 4.191-12.654 6.208-1.291-0.162-2.985-0.323-4.355-0.082 2.017-3.627 1.857-9.672-0.965-12.493 1.531-3.466 5.561-10.074 9.671-12.977 2.016 4.836 6.449 15.315 8.303 19.344" fill="#d49400"/>
  </g>
  <g transform="matrix(.46585 0 0 -.46585 60.596 123.76)">
   <path d="m0 0c0-3.792 6.521-9.171 15.165-12.847 28.224-12.006 100.77-13.517 116.48 18.534-0.106-3.37-3.949-13.27-11.058-19.272 4.527-1.474 8.74-3.895 12.532-8.108-0.948-2.95-6.349-7.163-9.901-8.531-1.367-0.527-2.5-2.219-1.473-2.843 2.422-1.475 4.949-4.634 5.055-8.426-3.159-2.106-6.318-3.475-10.004-4.107 9.582-2.843 13.474-16.341 11.053-20.554-4.356-3.825-33.783-3.496-33.59 16.342-6.951-0.632-32.542 0.422-44.441 3.266-0.738-4.846-16.169-14.763-32.704-11.078-4.529 5.161-2.155 12.025 8.799 15.71-0.212 3.16-1.054 7.372-6.005 7.372-4.949 0-16.113 4.845-18.218 8.636 0.948 2.107 6.847 4.844 10.954 6.108-1.264 1.896-4.164 3.364-6.741 5.266-8.424 6.214-9.056 9.794-5.899 14.532" fill="#d49400"/>
  </g>
  <g transform="matrix(.46585 0 0 -.46585 121.72 123.12)">
   <path d="m0 0c6.109-8.53 23.273-9.373 33.279-2.843-3.581-10.217-10.951-21.906-17.06-30.12-6.109-8.215-15.797-6.213-19.798-3.37-1.16 1.58-2.95 4.108-4.426 4.74 4.529 0.737 10.428 6.95 10.428 9.162 0 2.211-4.319 7.476-10.425 9.899 1.683 2 5.79 8.215 8.002 12.532" fill="#d49400"/>
  </g>
  <g transform="matrix(.46585 0 0 -.46585 137.42 124.35)">
   <path d="m0 0c0.578-5.581 3.702-8.683 7.155-8.233 3.374 0.441 10.009 7.497 15.17 9.708l0.947-2.107c-4.738-5.791-11.583-16.216-13.584-20.429-2.002-4.213-5.161-4.636-8.108-2.002-2.95 2.634-6.003 6.844-7.583 10.426 2.421 3.791 4.791 8.847 6.003 12.637" fill="#d49400"/>
  </g>
  <g transform="matrix(.46585 0 0 -.46585 147.69 124.26)">
   <path d="m0 0c-0.614 1.538 0.975 3.636 3.097 1.992 3.764-2.914 11.189-1.649 17.507 14.361 1.158-4.53-8.742-24.749-12.637-24.749-3.902 0-6.491 4.711-7.967 8.396" fill="#d49400"/>
  </g>
  <g transform="matrix(.46585 0 0 -.46585 91.526 20.72)">
   <path d="m0 0c-7.267-4.423-13.901-10.584-20.637-20.622l3.475-0.632c2.923 3.159 13.25 12.267 15.639 14.138 3.633 2.844 2.945 4.905 1.523 7.116" fill="#c6001a"/>
  </g>
  <g transform="matrix(.46585 0 0 -.46585 43.567 44.551)">
   <path d="m0 0c8.752 16.16 28.997 30.917 65.075 32.509 42.4 1.888 77.584-23.097 78.374-58.92 0.551-25.005-17.132-49.088-45.502-58.811-1.824-0.626-2.801 0.485-0.671 1.339 26.109 10.475 43.485 33.137 42.952 57.414-0.743 33.702-34.459 58.349-75.054 56.55-33.326-1.472-53.334-16.232-60.909-29.045z" fill="#0f141b"/>
  </g>
  <g transform="matrix(.46585 0 0 -.46585 41.411 68.589)">
   <path d="m0 0c8.987-27.67 55.664-42.026 87.632-35.475 1.867 0.383 2.155-0.85 0.306-1.305-33.933-8.353-84.087 7.391-91.719 38.799z" fill="#0f141b"/>
  </g>
  <g transform="matrix(.46585 0 0 -.46585 45.192 44.677)">
   <path d="m0 0c-4.144 0-10.641-10.3-12.657-22.392-2.13-12.78 1.495-27.387 4.835-27.748 4.606-0.488 10.66 11.287 12.469 24.088 2.116 14.94-1.226 26.052-4.647 26.052m-8.155-52.327c-5.314 0.576-9.483 15.565-7.03 30.291 2.289 13.73 10.15 24.934 15.738 24.406 4.766-0.424 8.799-11.797 6.398-28.77-2.558-18.078-10.224-26.461-15.106-25.927" fill="#0f141b"/>
  </g>
  <g transform="matrix(.46585 0 0 -.46585 45.29 52.872)">
   <path d="m0 0c-2.11 0-4.191-3.303-4.731-7.516-0.607-4.717 0.2-8.94 1.759-9.219 1.743-0.328 3.92 3.875 4.515 8.313 0.716 5.317 0.012 8.422-1.543 8.422m-3.275-18.428c-3.078 0.552-4.112 5.474-3.374 11.22 0.654 5.085 3.747 9.293 7.081 8.901 2.456-0.288 3.838-4.08 2.989-10.401-0.864-6.43-3.924-10.209-6.696-9.72" fill="#0f141b"/>
  </g>
  <g transform="matrix(.46585 0 0 -.46585 92.886 72.879)">
   <path d="m0 0c11.875-1e-3 18.801 12.164 18.226 29.816-0.595 18.28-11.409 26.687-18.759 26.19-10.048-0.697-20.487-15.13-19.035-31.936 1.301-15.067 9.194-24.07 19.568-24.07m0.06-2.271c-10.908-0.508-20.914 8.78-22.41 26.092-1.577 18.255 9.503 33.551 21.741 34.398 10.011 0.697 20.861-10.335 21.441-28.166 0.649-19.93-8.088-31.731-20.772-32.324" fill="#0f141b"/>
  </g>
  <g transform="matrix(.46585 0 0 -.46585 95.017 55.588)">
   <path d="m0 0c-2.488 0-5.349-5.091-4.996-10.593 0.361-5.672 3.115-9.062 5.569-9.062 2.816 0 5.072 6.071 4.783 10.723-0.321 5.177-2.572 8.932-5.356 8.932m0.856-21.676c-4.139-0.303-7.481 4.653-7.893 11.106-0.474 7.44 3.155 12.352 6.867 12.51 4.159 0.178 7.177-4.288 7.585-10.872 0.35-5.685-1.824-12.4-6.559-12.744" fill="#0f141b"/>
  </g>
  <g transform="matrix(.46585 0 0 -.46585 108.38 65.355)">
   <path d="m0 0c-11.638-18.324-49.195-28.271-80.314-29.086-19.45-0.511-54.223 2.232-66.287 23.083l3.001-0.592c9.747-13.382 33.04-20.519 63.286-19.726 32.082 0.84 70.026 11.41 80.418 30.218z" fill="#0f141b"/>
  </g>
  <g transform="matrix(.46585 0 0 -.46585 77.129 77.856)">
   <path d="m0 0c-14.525 13.005-30.966 19.412-44.29 17.771-7.649-0.943-13.694-4.406-17.692-10.425l-1.955 0.967c4.016 6.884 11.188 11.119 19.351 12.124 14.015 1.727 32.265-5.24 47.035-19.805z" fill="#0f141b"/>
  </g>
  <g transform="matrix(.46585 0 0 -.46585 53.36 76.264)">
   <path d="m0 0c-0.686 4.022-0.894 9.886-0.474 13.921l2.212 0.77c-0.474-4.225-0.316-11.176 0.651-15.342z" fill="#0f141b"/>
  </g>
  <g transform="matrix(.46585 0 0 -.46585 65.53 70.221)">
   <path d="m0 0c-1.024-5.36-0.997-12.104-0.059-17.199l-2.291-0.039c-1.078 5.304-1.078 12.203 0.257 17.969z" fill="#0f141b"/>
  </g>
  <g transform="matrix(.46585 0 0 -.46585 74.05 123.7)">
   <path d="m0 0c1.471 4.36 4.707 10.562 6.481 14.799 6.186 14.758 5.468 43.153-5.738 64.974l2.836 0.256c11.095-22.17 11.421-51.156 5.363-66.207-1.577-3.92-5.629-11.779-6.755-15.691z" fill="#0f141b"/>
  </g>
  <g transform="matrix(.46585 0 0 -.46585 104.64 114.02)">
   <path d="m0 0c0.331-0.88 0.644-1.735 0.943-2.562l-2.365-2.256c-0.841 2.488-1.834 5.255-2.932 8.193z" fill="#0f141b"/>
  </g>
  <g transform="matrix(.46585 0 0 -.46585 102.17 111.28)">
   <path d="m0 0c-3.641 9.547-8.214 20.502-12.344 29.491-0.16 0.351 1.412 1.13 1.58 0.804 3.981-7.687 8.071-16.601 11.532-24.833z" fill="#0f141b"/>
  </g>
  <g transform="matrix(.46585 0 0 -.46585 90.494 83.412)">
   <path d="m0 0c2.55-4.502 5.213-9.721 8.037-15.895 0.653-1.433-1.069-2.212-1.815-0.768-2.924 5.671-5.743 10.772-8.749 15.636z" fill="#0f141b"/>
  </g>
  <g transform="matrix(.46585 0 0 -.46585 94.238 91.902)">
   <path d="m0 0c9.779 7.877 27.755 12.23 38.979 6.338 9.546-5.01 11.983-18.444 10.248-29.922-0.057-0.372 0.135-0.737 0.474-0.901 14.076-6.847 8.386-26.129-2.252-22.491l-0.671-2.408c12.803-4.944 21.385 18.857 4.68 26.42 1.53 11.128-0.516 26.063-11.314 31.731-11.937 6.265-30.542 1.214-40.963-7.089-2.775-2.125-1.741-3.774 0.819-1.678" fill="#0f141b"/>
  </g>
  <g transform="matrix(.46585 0 0 -.46585 111.25 117.78)">
   <path d="m0 0c-7.405 0.66-10.734 10.801-6.23 18.4 1.138 1.922 2.518 1.151 1.501-0.838-3.214-6.287-1.158-14.48 5.025-15.034 8.044-0.713 11.769 6.009 10.073 14.086-0.457 2.172 1.029 2.563 1.664 0.436 2.717-9.145-2.461-17.922-12.033-17.05" fill="#0f141b"/>
  </g>
  <g transform="matrix(.46585 0 0 -.46585 108.16 114.66)">
   <path d="m0 0c-8.057-3.199-13.699 3.485-13.884 9.939-0.183 6.314 4.727 12.176 13.499 11.407 2.029-0.178 1.932-1.659-0.124-1.715-7.385-0.201-10.682-4.575-10.544-9.6 0.148-5.372 4.107-9.794 10.282-7.8z" fill="#0f141b"/>
  </g>
  <g transform="matrix(.46585 0 0 -.46585 96.898 97.497)">
   <path d="m0 0c7.936 5.333 18.556 5.515 22.073 2.137 3.431-3.293 2.888-11.479-1.52-18.304l2.764-0.04c4.367 7.542 4.707 16.365 0.711 20.201-4.038 3.876-16.186 3.631-25.062-2.237-2.506-1.555-1.545-3.437 1.034-1.757" fill="#0f141b"/>
  </g>
  <g transform="matrix(.46585 0 0 -.46585 94.695 123.33)">
   <path d="m0 0c0.141 20.687-8.306 52.679-19.699 64.783-5.136 5.461-13.469 4.566-15.303-6.003l-1.136 3.593c2.33 8.511 11.64 10.348 17.94 3.93 11.61-11.827 20.649-44.691 20.271-65.412z" fill="#0f141b"/>
  </g>
  <g transform="matrix(.46585 0 0 -.46585 89.703 98.939)">
   <path d="m0 0c-6.455-2.521-16.979-3.392-22.964-2.192v2.014c7.177-1.056 17.089 0.296 22.273 2.153z" fill="#0f141b"/>
  </g>
  <g transform="matrix(.46585 0 0 -.46585 93.567 110.82)">
   <path d="m0 0c-9.352-4.448-25.156-4.167-31.495-2.133l0.533 2.014c8.644-1.977 23.375-0.775 30.547 2.271z" fill="#0f141b"/>
  </g>
  <g transform="matrix(.46585 0 0 -.46585 75.225 122.49)">
   <path d="m0 0c8.629-2.113 31.929-3.574 42.177-1.323l-3.712-2.705c-9.735-2.073-32.166-0.217-39.235 2.132z" fill="#0f141b"/>
  </g>
  <g transform="matrix(.46585 0 0 -.46585 65.857 119.04)">
   <path d="m0 0c-12.954-7.202-25.169 11.611-14.713 24.936-3.977 9.265-3.564 26.099 2.517 30.965 6.529 5.22 26.408 5.803 38.389-2.079l0.333-2.799c-11.71 9.176-31.396 7.337-36.964 2.883-5.403-4.322-5.776-20.512-1.943-28.861 0.133-0.295 0.091-0.642-0.111-0.896-9.636-12.046 1.637-27.109 10.492-22.411z" fill="#0f141b"/>
  </g>
  <g transform="matrix(.46585 0 0 -.46585 61.94 112.72)">
   <path d="m0 0c0.151 1.926 1.733 1.815 1.715-0.123-0.071-8.616 8.097-15.59 14.126-11.262 5.613 4.027 1.916 16.494-4.519 15.935-1.989-0.173-2.209 1.465-0.22 1.707 9.182 1.117 13.711-14.364 6.161-19.735-8.096-5.761-18.04 3.58-17.263 13.478" fill="#0f141b"/>
  </g>
  <g transform="matrix(.46585 0 0 -.46585 79.188 101.62)">
   <path d="m0 0c-6.383 6.886-19.018 5.866-22.587 4.389-3.846-1.594-4.606-6.482-2.39-10.743 8.63 2.923 16.424-2.584 16.943-9.162 0.629-7.942-6.314-10.34-10.545-8.174l-1.006 2.922c3.758-2.372 9.384-1.219 8.786 5.154-0.525 5.629-7.419 9.916-14.473 6.753-0.541-0.243-0.968-0.099-1.284 0.434-3.265 5.544-2.081 13.112 2.982 15.205 4.539 1.882 16.737 1.575 23.517-4.147z" fill="#0f141b"/>
  </g>
  <g transform="matrix(.46585 0 0 -.46585 78.159 115.76)">
   <path d="m0 0c-4.633 1.158-11.1 4.917-13.531 6.741l3.105 0.789c2.532-1.708 7.163-4.055 11.112-5.054z" fill="#0f141b"/>
  </g>
  <g transform="matrix(.46585 0 0 -.46585 106.44 114.58)">
   <path d="m0 0c-17.722-20.802-43.026-29.633-53.038-29.456-8.47 0.151-21.616 9.915-25.965 20.792l2.172 1.817c3.749-10.271 16.527-20.205 23.932-20.417 9.231-0.212 33.269 8.707 49.908 27.851z" fill="#0f141b"/>
  </g>
  <g transform="matrix(.46585 0 0 -.46585 63.856 119.28)">
   <path d="m0 0c-4.129-5.319-7.148-12.333-7.049-14.671 0.126-2.987 3.549-6.789 7.069-8.767 2.54-1.428 4.62-3.114 5.447-4.532 1.207-2.073-0.123-2.682-1.459-0.91-0.762 1.012-2.318 2.118-4.936 3.566-3.167 1.75-8.686 6.318-8.866 10.544-0.121 2.904 3.295 9.531 7.188 14.75z" fill="#0f141b"/>
  </g>
  <g transform="matrix(.46585 0 0 -.46585 65.842 132.39)">
   <path d="m0 0c-4.875-1.218-8.898-4.511-8.846-6.042 0.098-2.878 10.519-8.115 18.008-9.004 4.441-0.53 6.052-3.353 6.111-7.351 0.032-2.168-1.372-2.19-1.505-0.048-0.203 3.291-1.528 4.928-4.823 5.325-8.333 1.007-20.42 6.505-20.575 11.018-0.092 2.687 4.951 6.441 10.109 7.859z" fill="#0f141b"/>
  </g>
  <g transform="matrix(.46585 0 0 -.46585 84.515 145.41)">
   <path d="m0 0c-0.454-6.497-18.225-13.605-30.093-13.19-11.642 0.406-13.881 7.403-12.282 12.242 1.481 4.483 8.274 7.8 16.214 9.757l0.576-1.962c-7.805-2.365-12.939-5.524-14.124-8.664-1.468-3.89 1.293-8.395 9.72-8.862 11.492-0.66 26.827 6.268 27.817 11.014z" fill="#0f141b"/>
  </g>
  <g transform="matrix(.46585 0 0 -.46585 77.197 143.6)">
   <path d="m0 0c-2.165 1.077-1.503 2.483 0.726 1.559 16.584-6.872 44.878-8.827 60.324-7.761 2.855 0.198 3.016-1.325 0.197-1.709-10.989-1.498-42.355-1.498-61.247 7.911" fill="#0f141b"/>
  </g>
  <g transform="matrix(.46585 0 0 -.46585 116.61 144.48)">
   <path d="m0 0c9.505-1.226 17.315-9.489 16.666-15.968-0.657-6.562-10.668-9.345-21.22-8.74-15.764 0.903-24.065 11.688-22.498 19.041l2.251 0.178c-1.678-6.926 7.323-16.154 20.299-16.797 9.034-0.456 17.887 1.433 18.43 6.845 0.598 5.988-7.469 13.507-17.976 14.019z" fill="#0f141b"/>
  </g>
  <g transform="matrix(.46585 0 0 -.46585 118.08 128.58)">
   <path d="m0 0c4.739-1.185 11.482-6.588 11.63-10.485 0.106-2.732-3.653-6.792-9.695-9.676 4.226-3.04 4.907-7.563 3.653-10.07-1.987-3.976-9.932-6.872-19.46-6.516-2.774 0.103-2.757 1.605 8e-3 1.719 9.046 0.374 15.676 3.11 17.132 6.024 0.905 1.812 0.197 5.56-3.782 8.133-1.083 0.7-0.93 1.341 0.04 1.777 6.114 2.73 9.406 6.883 9.34 8.589-0.106 2.816-5.823 7.671-10.13 8.748z" fill="#0f141b"/>
  </g>
  <g transform="matrix(.46585 0 0 -.46585 118.52 114.39)">
   <path d="m0 0c4.976-4.68 8.789-10.934 9.182-14.73 0.434-4.187-5.944-13.724-11.1-18.58-1.644-1.549-2.624-0.857-1.009 1.02 5.059 5.884 9.468 14.172 9.127 17.441-0.36 3.504-3.389 8.838-8.491 14.059z" fill="#0f141b"/>
  </g>
  <g transform="matrix(.46585 0 0 -.46585 121.76 108.28)">
   <path d="m0 0c4.976 7.879 15.441 13.027 21.76 10.643 6.309-2.383 12.993-22.747 13.711-36.071 0.153-2.816-1.441-2.896-1.715-0.11-1.214 12.249-7.81 31.484-12.924 33.417-5.326 2.014-15.698-3.081-20.556-11.335z" fill="#0f141b"/>
  </g>
  <g transform="matrix(.46585 0 0 -.46585 137.03 115.17)">
   <path d="m0 0c2.407 3.063 6.874 5.764 9.419 4.937 3.589-1.166 4.904-14.486 3.636-24.821-0.319-2.588-1.859-2.483-1.713 0.146 0.664 11.978-1.237 21.547-2.713 22.068-1.533 0.526-5.837-2.122-7.938-5.213z" fill="#0f141b"/>
  </g>
  <g transform="matrix(.46585 0 0 -.46585 149.04 117.87)">
   <path d="m0 0c-0.62 1.065-1.308 1.498-2.586 0.73-1.639-0.982-8.545-5.891-10.722-8.589l-0.158 2.863c2.841 3.02 8.426 7.177 9.794 7.997 2.569 1.541 4.186 1.126 5.528-1.185 0.783-1.347 2.103-3.987 3.199-6.456 0.442-0.992 1.437-1.106 2.725-0.079 2.957 2.354 4.779 4.028 6.696 6.483 2.404 3.081 4.897 1.988 4.176-1.78-1.315-6.875-5.274-15.088-10.107-21.211-2.009-2.542-4.83-2.968-7.005-0.527-2.579 2.897-3.672 5.095-4.509 7.602-0.671 2.017 0.849 2.522 1.631 0.546 0.931-2.356 2.194-4.304 4.3-6.463 1.222-1.253 2.503-1.174 3.846 0.527 4.682 5.931 8.868 14.398 10.285 20.063 0.33 1.328-0.222 1.534-1.171 0.243-2.344-3.185-4.037-4.971-7.029-7.365-2.347-1.878-4.635-1.84-5.694 0.539-1.059 2.384-2.434 4.749-3.199 6.062" fill="#0f141b"/>
  </g>
  <g transform="matrix(.46585 0 0 -.46585 134.95 129.74)">
   <path d="m0 0c1.659-4.423 5.26-8.726 8.392-10.88 2.308-1.582 4.03-0.902 5.351 1.56 2.883 5.371 8.965 15.086 13.901 21.009l1.106-2.152c-4.621-5.667-9.913-14.908-12.835-20.595-2.244-4.366-5.63-4.643-8.964-2.35-3.335 2.292-6.438 6.299-8.254 10.722z" fill="#0f141b"/>
  </g>
  <g transform="matrix(.46585 0 0 -.46585 119.51 138.86)">
   <path d="m0 0c6.393-5.18 12.864-5.006 18.502 0.632 4.085 4.086 14.584 19.356 18.336 29.126 1.062 2.771 2.53 2.26 1.624-0.565-2.952-9.205-13.37-26.04-17.985-30.654-5.717-5.718-13.297-7.09-19.075-2.172z" fill="#0f141b"/>
  </g>
  <g transform="matrix(.46585 0 0 -.46585 82.878 30.419)">
   <path d="m0 0c5.097 4.723 10.863 10.065 16.147 14.466 3.098 2.584 3.014 6.715-0.494 9.308-3.643 2.694-7.444 2.291-9.853-0.592-6.242-7.461-8.811-15.381-10.598-22.708l-2.449 0.197c1.834 7.52 4.658 16.491 11.124 24.221 3.296 3.94 8.901 4.285 13.401 0.948 4.425-3.278 5.398-9.221 0.632-13.137-5.608-4.607-9.873-8.32-15.086-13.335z" fill="#0f141b"/>
  </g>
  <g transform="matrix(.46585 0 0 -.46585 54.358 58.956)">
   <path d="m0 0c-0.607 0.1-1.55-0.634-1.768-1.624-0.216-0.996-0.051-1.962 0.433-2.077 0.631-0.148 1.429 0.425 1.757 1.347 0.395 1.109 0.025 2.277-0.422 2.354" fill="#0f141b"/>
  </g>
  <g transform="matrix(.46585 0 0 -.46585 63.644 59.59)">
   <path d="m0 0c-0.578-0.098-1.155-1.045-1.02-2.111 0.183-1.445 0.881-2.15 1.338-2.084 0.543 0.079 1.111 0.97 1.064 2.167-0.045 1.118-0.745 2.133-1.382 2.028" fill="#0f141b"/>
  </g>
 </g>
</svg>
