<?xml version="1.0" encoding="UTF-8"?>
<svg version="1.1" viewBox="0 0 424.86 256.84" xmlns="http://www.w3.org/2000/svg">
 <g transform="translate(-.0019231)">
  <path d="m411.3 96.95q-1.25 2.7-3.95 13.05-3.4 10.25-9.15 15.7-5.8 5.55-17.75 8.1l-12.95 2.05q-5.65 1.45-8.3 3-7.5 4.4-15.35 15.25-8.45 11.75-17.1 15.05-6.5 2.5-16.7 0.95-7.45-1.2-5.85-9.5 0.55-2.85 2.1-5.95 1.25-2.55 2.05-3.3 5.35-4.85 10.4-12.65 5.65-8.8 9.15-18.7l4.1-11.7q3.15-7.35 8.1-12.75 13.7-14.75 46.45-19.95l5.6-0.45 12.35-0.4q18.1 0.2 18.75 5.5l-5.05 6.35q-5.35 7-6.9 10.35" fill="#9f8c55"/>
  <path d="m405.15 98.2q0.35-11.15 7.35-15.6 4.3-2.75 10.65-2.75l0.1 0.4-5.05 6.35q-5.35 7-6.9 10.35-1.25 2.7-3.95 13.05-3.4 10.25-9.15 15.7-5.8 5.55-17.75 8.1l-12.95 2.05q-5.65 1.45-8.3 3-7.5 4.4-15.35 15.25-8.45 11.75-17.1 15.05-6.5 2.5-16.7 0.95-6.35-1.05-6.1-7.3l12.45-5.85 7.8-2q8.25-2.4 10.6-4.6 1.15-1.05 3.45-4.55 2.4-3.7 4.45-5.75 7.2-7.05 22.3-8.2 8.75-0.65 18.35-4.2 9.75-3.55 14.45-7.95 2.05-1.85 4.4-7.95 2.75-7.1 2.95-13.55" fill="#867747"/>
  <path d="m190.6 32.75q3.5 13.85 4.55 26.45 1.15 14-1.2 22-1.3 4.4-4.8 7-3.45 2.55-5.1 0.75-8.7-9.75-13.25-25.3-3.9-13.35-4.15-28.6-0.25-13.6 2.3-23.5 2.55-9.75 6.25-10 3.45-0.2 7.9 9.1 4.15 8.7 7.5 22.1" fill="#0d6f6b"/>
  <path d="m166.65 36.1q-0.35-13.35 2.05-23.45 2.35-9.9 5.95-10.95 0.25 25 3.25 44.35 3.6 23.25 11.55 41.9-1.6 1.3-3.05 1.6-1.5 0.3-2.35-0.6-8.55-9.55-13.1-24.75-3.9-13.1-4.3-28.1" fill="#005854"/>
  <path d="m130.75 206.65q1.85 3.35 2.5 6.75 0.75 3.5-0.3 4.9-1.9 2.65-5.75 6.5l-11.45 10.85q-7.3 6.85-17.4 9.9-10.4 3.1-16.85-0.05-5.45-2.7-12.4-2.6l-5.85 0.6q-8.55 5.85-17.35 8.85-7.1 2.35-16 3.3-6.55 0.65-16.1-2.4-4.8-1.5-8.3-3.15-3.65-2.8-3.6-4.75 0-3.4 9.9-4.9 9.85-1.5 20.3-11.4 2.8-2.65 16.85-18.75 7.3-8.3 21.65-8.95 11.65-0.55 25.65 3.9 10.25 3.25 17.2 0.95 2.2-0.75 8-4.8 4.55-3.2 9.3 5.25" fill="#9f8c55"/>
  <g fill="#0d6f6b">
   <path d="m192.1 82q6.3-3.75 17.45-3.75 11.35 0 20.4 5.85 9.05 5.8 17.75 18.75 7.35 10.95 12.55 16.95 5.15 6 8.95 7.95 11.3 5.8 16.95 10.85t7.95 11.5l0.5 0.4 0.7 0.45 6.15-6.1q6.1-6.1 6.75-5.85 1.05 0.5 0.1 17.65l8.1 0.3-3.3 7.6q-3.35 7.45-3.35 7.75 0.05 0.45 3.15 2.4 3.05 1.9 2.9 2.35-0.3 0.85-14.85 0.1l-0.1 1.55q1.2 10.8-4.85 19.75-9.15 13.35-17.85 20.25-8.7 6.95-18.3 8.5-5.1 0.85-42.15 0.85l-5.85 0.6-6 1.15-5.6 1.95q-3.75 1.35-6.3 1.8-7.7 1.55-23.9 0.05-12.15-1.1-22.65-7.2-3.3-1.9-6.05-4.05l-2.05-1.8q-4.5 7.35-5.45 7.1-0.6-0.1-1-5l-0.6-5.2-7.9 0.85q-7.95 0.55-8.5-0.9-0.25-0.65 4.3-6.15l4.6-5.6-5.65-6.2q-5.55-6-5.4-6.25 0.3-0.7 6.4 0.9l6.2 1.6q-0.2-1 0.05-3 0.45-4.15 3.55-10.05 3.15-6 4.15-10.35 0.8-3.6 1.75-14.15 2.2-25.75 15.85-36.9 6.85-5.6 13.2-6.05 3.75-3.6 8.65-10.15 4.2-5.55 6.4-9.3 5.9-10.05 12.2-13.75"/>
   <path d="m291.85 91.9q-31.35 13.15-61.15 10.4-8.75-0.8-7.9-4.8 0.45-2.4 3.9-5.2 21.25-17.5 57.8-22.5 14.05-1.9 24.3-0.95 10 0.95 10.25 3.95 0.25 2.95-7.25 8.35-7.9 5.7-19.95 10.75"/>
   <path d="m170.05 233.6q1.55-1.75 6.25-3.55 4.7-1.75 9.35-2.4 12.1-1.65 8.9 5.7-3.6 8.25-16.2 15.8-12.6 7.6-16.5 3.7-3.35-3.3 1-10.3 1.55-2.45 7.2-8.95"/>
   <path d="m266.75 225.7q6.7 2.95 10.7 6.05 6.65 5.15 3.6 9.3-1.75 2.35-8 2.35-6 0-12.9-2.05-7.25-2.1-11.65-5.45-5.05-3.75-4.5-7.9 1.55-11.65 22.75-2.3"/>
  </g>
  <path d="m167.1 186.35q-3.45 3.45-7.35 3.4-3.7-0.1-7.55-4.55-5.15-5.95-5-15.95 0.15-10.3 4.55-16.25 3.45-4.65 7.8-5.2 3.8-0.45 8.35 4.5 6.05 6.45 5.2 17.65t-6 16.4" fill="#fff"/>
  <path d="m249.7 128.05q3.9-1.35 8.55 0.75 6.7 3 11.45 12.5 4.8 9.65 2.6 17.1-1.75 5.75-6 7.65-3.8 1.75-9.15-0.9-6.55-3.3-10.7-11.85-4.2-8.6-2.35-16.8 1.65-7.1 5.6-8.45" fill="#fff"/>
  <path d="m369 127.5q-8.65-3.15-9-6.55-0.25-2.25 0.35-5.5 0.55-2.75 1.2-3.9 1.5-2.5 4.6-5.05 4.8-3.9 9.1-2.9 5.5 2.45 5.5 3.9l-0.65 6.35q-0.8 5.6-1.85 7.3-1.05 1.75-4.9 4.15-3.45 2.2-4.35 2.2" fill="#ed848c"/>
  <path d="m371.35 77.35q1-0.65 5.5-0.7l5.1 0.3 1.95 1.85q1.95 2 1.95 2.8 0 1.15-5.65 5-5.85 4.05-8.15 3.7-3.75-2.15-4.6-3.75-0.5-0.9 1.15-4.75 1.65-3.8 2.75-4.45" fill="#009fd9"/>
  <path d="m87.55 234.3-11 0.55-7.45-2.85q-0.5-1.05-0.85-4.4-0.45-3.7 0.15-4.3 1.1-1.1 7.85-3.05 7.6-2.25 10.6-1.2l2.5 3.45q2.45 3.95 2.1 6.3l-1.1 2.5q-1.35 2.55-2.8 3" fill="#ed848c"/>
  <path d="m42.6 230.5q-1.45 3.55-2.4 3.8-1.1 0.3-3.7-0.65-2.8-1.1-3.4-2.55-0.7-1.4 0.7-4.7 1.65-4 5.35-4.35l2.15 0.6q2.25 0.85 2.45 2.4 0.25 1.8-1.15 5.45" fill="#009fd9"/>
  <path d="m313.1 164.55q-3.35 7.45-3.35 7.75 0.05 0.45 3.15 2.4 3.05 1.9 2.9 2.35-0.3 0.85-14.85 0.1l-0.1 1.55q1.2 10.8-4.85 19.75-9.15 13.35-17.85 20.25-8.7 6.95-18.3 8.5-5.1 0.85-42.15 0.85l-5.85 0.6-6 1.15-5.6 1.95q-3.75 1.35-6.3 1.8-7.7 1.55-23.9 0.05-12.15-1.1-22.65-7.2-3.3-1.9-6.05-4.05l-2.05-1.8q-4.5 7.35-5.45 7.1-0.6-0.1-1-5l-0.6-5.2-8.1 0.75q-8.2 0.45-9-0.9 8.9-1.2 19-4.25l2.35 4.65q19.25 11.35 43.45 7.95 7-1 16.1-3.6 8.15-2.3 9.5-2.35l8.2 0.15q7.05 0.2 13-0.1 19.2-0.95 36.75-7.05 17.5-6.1 28.4-25.75 5.45-9.8 7.4-18.4 3.75-1.75 8.65-5.3l7.95-6.45 0.5 0.15-3.3 7.6" fill="#005854"/>
  <path d="m319 72.55 0.05 0.25q0.25 2.95-6.55 8.1-7.25 5.5-18.6 10.35-29.4 12.7-60.6 11.4-3.9-0.15-6-1.35-1.7-0.95-1.95-2.4 17.1-2.15 48.25-10.9 31.35-8.8 45.4-15.45" fill="#005854"/>
  <path d="m380 106.4q0.75 0.65 0.75 1.1l-0.65 6.35q-0.8 5.6-1.85 7.3-1.05 1.75-4.9 4.15-3.45 2.2-4.35 2.2-8.65-3.15-9-6.55l-0.05-0.35q2.6 1.65 5.8 2.3l3.2 0.3q0.8-0.15 3.05-1.75 2.35-1.65 3.55-3 0.75-0.8 2.2-4.65 1.5-4.05 2.25-7.4" fill="#ce737b"/>
  <path d="m366.9 84.9q5.15 2.85 5.8 2.8 1.5-0.1 5.35-3 4.4-3.35 5.5-6.25 2.35 2.55 2.3 3.15-6.95 8.2-13.8 8.7-1.05-0.35-2.2-1.2-2.3-1.7-2.95-4.2" fill="#008cbe"/>
  <path d="m127.6 218.6 4.65-1.15 0.3 1.65-6.4 6.75q-7.4 7.65-12.35 11.85-5 4.3-15.35 7.65-11.3 3.65-15.3 0.95-3.6-2.45-11.05-3.35l-6.7-0.35q6-3.15 13.5-2.8l6.8 0.5q4.3 0.3 7.95 0 6.4-0.55 15.25-9.1 5.3-5.2 11.15-13 2.4 1.25 7.55 0.4" fill="#867747"/>
  <path d="m9 251.25q-6.35-3-7-5.4 6.45 0.1 14.8 3.25 7.9 3 13.2 2.75l14.15-1.3q5.8-0.9 11.85-2.7-4.25 2.35-10.15 4.5-11.85 4.3-20.3 3.35-9.25-1.05-16.55-4.45" fill="#867747"/>
  <path d="m86.65 231.35q0.5-0.25 1.4-2 0.95-1.8 0.95-2.55l-0.3-3.2-0.5-2.75 1.8 2.9q1.75 3.15 1.55 4.35l-1.05 2.7q-1.4 2.85-3.1 3.9-9.9 0.75-11.5 0.15-1.25-0.15-2.7-0.7-2.95-1-4.05-2.8l7.9 1.1 4.95-0.4 4.65-0.7" fill="#ce737b"/>
  <path d="m42.7 229.25q-1.35 4.25-2.9 4.6l-3-0.45q-3.15-0.9-4.05-3.3 5.4 1.7 6 1.5 1.05-0.3 5-6.55l-1.05 4.2" fill="#008cbe"/>
  <path d="m252.3 237.65-5.65-3.05q-2.4-1.35-2.7-3.95l0.2-2.3q3.8 0.75 13.4-0.95l8.85-1.85q1.9 0.5 13.1 7.65-2.65-1.55-5.2-2.15l-5.65-0.35q-5.8 0.4-6.7 4.25-0.95 3.95 4.3 7.35-6.95-1.35-13.95-4.65" fill="#005854"/>
  <path d="m168.55 235.7 1.8-1.75v-0.2l13.95 0.45 10-0.9q-5.55 9.65-15.1 15.2-4.75 2.8-8.45 3.65 9.45-4.6 8.8-9.6-0.45-3.8-4.9-5.45-3.15-1.15-6.1-1.4" fill="#005854"/>
  <path d="m250.15 158.85q9.75 6 14.85 5 3.35-0.65 4.95-5.95 1.35-4.55 1.2-11.85l0.65 2.5q0.6 3 0.6 5.8 0.05 8.85-6.1 11.7-2.15 0.9-5.25 0.4-6.2-0.9-10.9-7.6" fill="#dbdcdc"/>
  <path d="m171.15 179.8q-3.2 8.95-10.85 9.9-1.65 0.05-3.75-0.9-4.15-1.8-6.25-6.6 0.85 1.15 3.6 2.9 3.15 2 4.9 1.95 3.9-0.2 7.5-3.7 4.45-4.35 6.5-12.3l-0.25 2.7q-0.4 3.25-1.4 6.05" fill="#dbdcdc"/>
  <path d="m183.5 173.35q4.55-7.55 10.05-11.85 5.8-4.5 13.25-5.8 13.8-2.45 24.45 2.2 3.7 1.65 6.3 3.8 2.1 1.75 2.25 2.65 0.3 1.6-0.95 7.6-1.25 6.25-2.2 6.25-1.35 0-14.5-8.65-0.15 0.75-4.45 6.45-4.4 5.85-5.2 5.85-1.2 0-10.7-9.65-9.65 12.15-10.8 12.35-1.2 0.15-7.5-11.2" fill="#005854"/>
  <path d="m190.35 164.75q8.15-8.1 17.25-9.55 9.7-1.55 19.05 1.2 7.25 2.1 10.45 5.2-0.6 13.2-2.7 15.5l-6.7-4.25-7.15-4.25-9.45 11.55-11.3-9.35-10.1 11.9q-5.5-7.8-5.65-10.15 2.25-3.75 6.3-7.8" fill="#fff"/>
  <g fill="#dbdcdc">
   <path d="m236.05 161.55 1.25 0.65q0.8 2.55-1 9l-1.9 5.9q-0.7-0.05-12.95-8.55 1.75 0.65 11.5 5.25 0.35-0.4 1.55-5.35l1.55-6.9"/>
   <path d="m220.05 168.45-8.95 11.7-10.8-9.85q1.7 0.75 6.1 3.7l4.3 2.8 4.1-3.8q4.15-4.1 5.25-4.55"/>
   <path d="m199.05 170.45q0.4 0.25-4.2 6.25t-5.15 6q-0.75-0.05-5.5-9.15l1-1.5q0.25 0.75 2.25 4.1 2.05 3.55 2.35 3.4 0.65-0.25 9.25-9.1"/>
  </g>
  <g fill="#0f141b">
   <path d="m169 113.2q3.8-0.55 3.95-0.05 0.1 0.55-3.65 1.4-14.95 3.5-23.5 14.85-8.7 11.45-9.15 28.8-0.2 9.45-1.45 14.25-1 4.1-4.5 10.65-2.95 5.65-3.35 9.1-0.3 2.9 1.15 7.85 0.55 2 0.25 2.2-0.35 0.2-1.3-1.65-2.6-5.2-2.3-9 0.3-3.55 3.5-9.6 3.45-6.6 4.35-10.1 1.15-4.35 1.35-13.75 0.5-19.8 9.45-31.3 8.85-11.4 25.2-13.65"/>
   <path d="m307.75 141.1q-0.3-0.1-5.55 4.85l-6.6 6.5q-0.2 0.25-0.7-0.65-0.45-0.9-0.25-1.15 1.3-1.85 5.05-5.85 4-4.3 6.2-6.05 3.8-3.15 4.05 2.1 0.15 2.65-0.85 14.95l6-0.35q2.3 0.05 2.65 0.7 0.4 0.65-0.7 3.1l-3.45 6.55q-3.1 5.9-3.05 6.4l2.25 1.45 2.55 1.45q2.5 1.4 2.35 2.25-0.15 0.8-2.65 1.35-3 0.6-14.35-0.3-0.35 0-0.4-1.1-0.1-1.15 0.25-1.1 3.3 0.4 8.25 0.15l4.5-0.45-4.2-2.7q-0.5-0.35-0.35-0.9 0.35-1.7 3.55-8.4l3.1-6.4-3.05-0.15-4 0.15q-0.9 0.05-0.9-0.85 0.5-15.45 0.3-15.55"/>
   <path d="m253.25 136.15c0.4-0.13333 0.8-0.0167 1.2 0.35 0.43333 0.33333 0.73333 0.78333 0.9 1.35 0.16667 0.5 0.18496 1.0035 0 1.45-0.15334 0.37019-0.46127 0.75282-0.85 0.85-0.38873 0.0972-0.75-0.0167-1.15-0.35-0.43333-0.33333-0.73333-0.8-0.9-1.4-0.13333-0.53333-0.13333-1.0167 0-1.45 0.16667-0.43333 0.43333-0.7 0.8-0.8"/>
   <path d="m132.1 217.55q0.15-0.25 0.5 0.8l0.25 1.2q-2.65 4.1-10.35 11.55-8.05 7.85-13.65 11.45-7.4 4.7-15.1 5.55-7.2 0.8-12.95-1.85-7.45-3.6-17.75-2-0.35 0.05 0.2-0.9 0.6-0.95 0.95-1 10.75-1.5 17.05 1.5 5.2 2.45 12.15 1.65 7.4-0.9 14.25-5.25 5.7-3.65 14.1-11.4 8.55-7.85 10.35-11.3"/>
   <path d="m86.45 219.95-0.15-0.1q-2.85-0.8-9.75 1.05-6.95 1.85-7.55 3.25-0.3 0.7 0.1 3.85 0.4 3.05 0.65 3.3 0.45 0.5 2.8 1.3l3.85 0.95 5.85 0.3 4.9-0.5q1-0.45 2.25-2.05 1.3-1.65 1.4-2.7 0.2-2.15-1.65-5.35-1.7-2.85-2.7-3.3m0.55-1.65q1.65 0.55 3.5 4.2 1.9 3.7 1.7 6.1-0.15 1.9-1.7 4.2-1.5 2.2-2.75 2.75l-5.85 0.5-5.75-0.25q-1.45-0.2-4.25-1.5-3-1.4-3.4-2.25-0.6-1.25-0.9-4.3-0.35-3.3 0.25-4.45 1.15-2.4 8.4-4.3 7.2-1.9 10.75-0.7"/>
   <path d="m161.25 253.65c-1.8333-1.4333-2.4667-3.35-1.9-5.75 1.2667-5.6333 4.9167-10.517 10.95-14.65 0.13333-0.0667 0.48333 0.05 1.05 0.35 0.6 0.3 0.8 0.5 0.6 0.6-3.1333 2.0667-5.55 4.3333-7.25 6.8-1.4333 2.1-2.4833 4.5167-3.15 7.25-0.43333 1.8333 0.15297 2.9586 1.2 3.75 1.1973 0.90494 3.0314 0.45921 4.5 0.15 5.7189-1.2041 10.5-4 15.8-7.6 5.9333-4.0667 9.3333-7.9333 10.2-11.6 0.0667-0.23333 0.41667-0.28333 1.05-0.15 0.66667 0.13333 0.96667 0.31667 0.9 0.55-1 4.0667-4.6 8.3667-10.8 12.9-5.6 4.0667-11.067 6.8667-16.4 8.4-2.6667 0.76667-4.9167 0.43333-6.75-1"/>
   <path d="m167.8 183.95q3.9-5.5 4.1-14.2 0.3-9.3-3.4-15.3-3.4-5.65-8.4-5.7-4.35-0.05-8 5.45-4 6.1-4 15.2-0.05 9.05 4.15 14.8 3.45 4.75 7.25 4.75 4.75-0.05 8.3-5m6.4-14.2q-0.3 9.1-4.65 15-4.25 5.7-10.1 5.6-4.6-0.05-8.7-5.3-4.85-6.25-4.9-15.95 0.05-10.1 4.95-16.5 4.25-5.55 9.3-5.55 6.25 0 10.35 6.85 3.95 6.6 3.75 15.85"/>
   <path d="m159.85 157.1c0.36667 0 0.7 0.2 1 0.6 0.3 0.43333 0.45 1.0167 0.45 1.75 0 0.53333-0.13435 1.025-0.45 1.4-0.25443 0.30229-0.65506 0.56144-1.05 0.55-0.38857-0.0113-0.7-0.2-1-0.6-0.3-0.43333-0.45-0.93333-0.45-1.5 0-0.66667 0.15-1.2 0.45-1.6s0.65-0.6 1.05-0.6"/>
   <path d="m165 32.9q0-13.7 3.1-23.4 3.05-9.5 7.25-9.5 3.25 0.1 7.75 8 4.6 8.05 8.15 20.05 8.95 30.3 3.25 54.3l-1.2 0.15q-1.1-0.2-1-0.55 4.8-20.3-3.65-50.85-3.25-11.8-7.25-20.15-3.9-8.1-6.15-8.1-3 0-5.25 9.2-2.35 9.6-2.1 22.5 0.6 34.2 17.35 53.85 0.2 0.25-0.75 0.9-0.95 0.6-1.1 0.45-9.55-11.2-14.3-27.5-4.1-14-4.1-29.35"/>
   <path d="m199.85 169.95c0.33333 0.0333 0.93333 0.35 1.8 0.95l4.95 4.25 4.4 3.8 3.85-4.8 4.4-5.6c0.46667-0.53333 0.86667-0.8 1.2-0.8l2.05 0.8 11.1 7.05c2.6333-7.2 3.4167-11.933 2.35-14.2l0.7-0.05c0.56667 0.16667 0.88333 0.36667 0.95 0.6 0.66667 1.4667 0.75 3.9167 0.25 7.35-0.46667 3.3-1.1833 5.85-2.15 7.65-0.36667 0.66667-0.76667 1.0167-1.2 1.05-0.4 0.0333-1-0.23333-1.8-0.8l-6.15-4.2-5.85-3.75c-0.26667 0.0667-1.6667 1.9-4.2 5.5l-4.1 5.75s-0.69097 0.91589-1.2 0.95c-0.61887 0.0415-0.86667-0.31667-1.6-0.95-6-5.8667-9.2833-8.8-9.85-8.8-0.33333 0-1.7 1.6333-4.1 4.9l-5.15 6.85c-0.33333 0.43333-0.51295 0.56694-0.85 0.55-0.42634-0.0214-1-0.8-1-0.8-0.9-1.0667-1.9167-2.5667-3.05-4.5-1.2333-2.1333-2-3.8-2.3-5-0.0333-0.16667 0.21667-0.5 0.75-1 0.56667-0.46667 0.86667-0.6 0.9-0.4 0.2 0.93333 1 2.7333 2.4 5.4 1.3667 2.5667 2.15 3.85 2.35 3.85l3.85-5c2.6333-3.4667 4.2167-5.4167 4.75-5.85 0.66667-0.53333 1.1833-0.78333 1.55-0.75"/>
   <path d="m200.75 84.55q-0.15-1.2 0.7-2.9t2.2-2.7l1.6-0.2 0.95 0.2q-1.85 0.8-3.05 2.45-1.3 1.65-1 3.15 0.15 0.6 3 5.95 2.7 5.1 2.65 5.6-0.05 0.6-4.75 8.05t-4.75 7.95q-0.05 0.65 3.75 6.85 3.75 6.15 3.75 6.6 0 0.85-3.6 6.85l-3.6 6.35q0 0.6 2.2 4.1 2.35 3.75 4 5.6 1.25 1.45 0.95 1.75-0.3 0.35-1.7-0.95-1.95-1.85-4.55-5.6-2.55-3.75-2.65-4.9-0.05-0.65 3.75-6.75l3.8-6.4-3.9-6.2q-3.95-6.1-3.9-7.3 0.05-1.05 4.95-8.5l4.8-7.65-2.7-5.15q-2.8-5.25-2.9-6.25"/>
   <path d="m204 193.8q2.55-3.15 4.8-5.1 1.4-1.25 1.7-1 0.25 0.2-0.9 1.6-6.45 7.65-6.4 8.45 0.05 0.65 2.6 3.85l3.45 4.05q0.55 0.45 0.1 1.05l-2.9 4.6q-2.3 3.8-2.3 4.9 0 0.95 3.15 4.55 3.8 4.35 8.25 7 0.3 0.2-1.2 0.4l-1.7 0.05q-3.85-2.4-7.05-6.55-2.85-3.7-3-5.45 0-1.5 2.75-5.75l2.8-4.1-3.3-3.6q-3.3-3.75-3.35-5-0.05-0.8 2.5-3.95"/>
   <path d="m121.7 201.15q0.6 0.6 0.35 0.85-4.4 4.4-10.15 5.55-5.8 1.2-14.2-0.65-15.9-3.5-21.65-3.95-7.55-0.65-15.8 1.7-5.5 1.5-11.3 6.9-4.2 3.95-9.15 10.55l-2.3 0.3 0.45-0.65q5.75-7.8 9.5-11.55 6.3-6.35 12.35-8.05 8.35-2.4 16-1.7 5.35 0.5 22.3 4.25 8.5 1.9 13.8 0.9 5.05-0.95 8.95-4.8 0.25-0.25 0.85 0.35"/>
   <path d="m59.55 246.85q-8.95 5.65-14.35 7.25-11.8 3.45-20.75 2.55-8.55-0.85-20.2-6.35-4.7-2.15-4.2-5.6 0.55-3.4 5.7-4.15 6.25-1.05 11.05-2.85 9.3-3.5 16.2-10.25l-0.15 2.55q-11.1 10.15-26.85 12.8-2.9 0.5-3.05 2.4-0.15 1.85 2.3 3 11.1 5.25 19.7 5.85 8.35 0.65 19.75-2.7 4.6-1.35 14.1-6.55 8.25-4.6 11.85-4.9l3 0.1q0.05 0.35-2.85 0.95-2.75 0.55-11.25 5.9"/>
   <path d="m257.9 241.5q-10.3-3.45-13.95-8.4-0.9-1.2-0.95-2.75-0.05-1.35 0.45-2.45 0.05-0.2 1.1 0t0.85 0.45q-0.45 0.6-0.4 1.75 0 1.2 0.6 2 2.9 4.15 12.6 7.2 9.55 3 17.25 2.45 3.65-0.25 4.6-1.5 0.9-1.15-0.05-3.75-0.9-2.6-5.95-5.8-4.4-2.85-9.4-4.6-0.3-0.1 0.35-0.75l0.85-0.6q14.2 5.5 16.3 10.9 1.35 3.85-0.25 6.05-1.65 2.25-6.35 2.6-7.85 0.55-17.65-2.8"/>
   <path d="m420 75.95q4.35 1.4 4.8 3.4 0.4 1.55-1.65 3.8-9.15 10.6-11.05 13.7-0.55 0.85-3.7 13.2-2.8 11.05-6.75 14.4-6.65 5.6-13.25 8.1-6.3 2.4-17.7 3.8-8.55 1.1-13.8 4.85-3.3 2.3-8.45 8.75-8.05 11.75-12.2 15.7-6.7 6.35-19.1 6.35l-6.45-0.6q-0.35-0.05-0.2-1.2 0.15-1.1 0.5-1.05l6.15 0.6q10.55 0 18.65-8.15 4.45-4.55 10.85-13.4 6-6.4 8.85-8.45 6.3-4.55 14.95-5.65 10.8-1.35 17.05-3.95 5.6-2.35 12.2-7.85 3.55-3 6.55-13.5 3.5-12.25 4.2-13.45 1.55-2.55 5.4-7.55l4.9-6.05q1.05-1.15 0.9-2.15-0.2-1.15-2.1-1.75-6.8-1.9-15.75-1.95-9.7-0.1-20.4 2l-2-1.15-4.9-0.4q12.75-3.2 24.55-3.15 10.75 0.05 18.95 2.75"/>
   <path d="m369 81.65q-18.3 6.05-25.85 13-8.4 7.7-13.85 25.1-3.2 10.3-11.1 21.65-6.1 8.85-9.45 11.4l-0.45-0.95q-0.4-1-0.15-1.2 2.75-2 8.55-10.75 7.35-11.05 10.4-20.95 5.7-18.55 14.3-26.65 7.95-7.5 27.1-13.65l1.8-0.6-1.3 3.6"/>
   <path d="m250.25 128.95q-4.2 1.6-5.4 8-1.2 6.6 1.8 14.1 3.25 8.2 9.45 12.4 5.6 3.8 9.55 2.2 5.1-2.1 5.9-9.05 0.8-6.75-2.65-14.65-3.6-8.2-9.3-11.65-5.05-3.1-9.35-1.35m-0.6-1.6q5.1-2.05 11 1.3 6.55 3.65 10.35 12.35 3.65 8.2 2.45 15.7-1.25 7.8-7.15 10.25-4.75 1.95-11.05-1.8-7.1-4.2-10.75-13.2-3.2-7.95-1.6-15.3 1.6-7.2 6.75-9.3"/>
   <path d="m320.6 72.7q0.4 2.4-5.8 7.7-7.05 6-17.8 11.1-29.8 14.15-65.3 11.2-1.35-0.1-1.3-0.5 0-0.35 1.35-0.35 33.65 0.5 61.95-12.35 10.2-4.65 16.9-9.8 5.9-4.55 5.55-6.45-0.55-2.8-10.2-3.25-9.7-0.4-23.3 1.85-34.55 5.7-55.3 20.65-0.8 0.6-1.05 0.25-0.2-0.35 0.55-1.05 10.55-9.45 27.2-15.65 14.2-5.3 30.45-7.35 14.45-1.9 25.05-0.65 10.5 1.2 11.05 4.65"/>
   <path d="m300.45 170.75q2.35 8.7 1.5 15.75-0.85 6.95-4.8 12.75-8.6 12.55-16.85 19.5-9.65 8.1-20.25 9.85l-27.15 1q-18.1-0.5-20.2-0.15l-7.7 2.1q-6.45 1.85-10.75 2.7-6.15 1.2-12.55 1.45l-11.95-0.7q-14.8-2.9-22.8-7.3-8.15-4.55-12.25-12.3-1.45-2.75-1.1-3.05 0.3-0.25 2.1 2.2 5.25 7.15 12.55 11 7.7 4.05 22.15 6.95l11.25 0.95q6.55 0 12.25-1.15l10.6-2.7q6.15-1.8 7.85-2.1 2.15-0.35 20.15-0.3l27-1.4q10.2-1.65 19.2-9.1 7.85-6.45 16.2-18.7 3.55-5.2 4.55-11.35 1.1-6.55-0.35-15.7-0.5-3.3 0-3.35 0.55-0.1 1.35 3.15"/>
   <path d="m190.75 84.75q-4.8 3.45-9.8 11.2l-6.25 9.05q-5.1 7-7.5 9.35l-2.45 0.6-2 0.25q3.85-3.35 9.25-10.45 4.35-5.75 6.65-9.7 5.45-9.2 11.2-13.2 6-4.1 15.35-4.85 8.55-0.7 15.6 1.35 7.7 2.2 14.55 8l-2.65 1.65q-12.25-9.45-27.4-8.15-8.8 0.75-14.55 4.9"/>
   <path d="m245.8 102.3 3.05-0.25q13.9 20.8 21 24.45 14.15 7.25 20.1 13.9 5.45 6.15 7.2 15.8 0.4 2.05-0.05 2.2-0.4 0.2-1-1.7-3-9.3-9.05-15.35-5.7-5.7-18.6-12.8-7.95-4.45-22.15-25.55l-0.5-0.7"/>
   <path d="m41.7 229.6q1.5-3.1 1.4-4.35 0.05-0.95-1.8-1.75-1.75-0.75-2.85-0.6-2.15 0.25-3.9 3.4-1.65 3.05-0.8 4.45 0.6 1 2.7 1.8 2 0.7 3 0.4 0.8-0.3 2.25-3.35m1.2-7.05q1.85 1.2 1.85 2.9-0.05 2.45-1.5 5.65-1.5 3.25-2.95 3.9-1.65 0.7-4.6-0.85-3-1.55-3.45-3.25-0.65-2.45 1.4-5.85 2.2-3.6 5-3.65 2.45 0.05 4.25 1.15"/>
   <path d="m191.25 165.2q-8.5 8.35-13.6 24.8-0.45 1.35-0.75 1.15-0.35-0.2-0.05-1.7 3.35-16.2 12.5-25.55 10.15-10.4 25.75-10.4 11.15 0 21.25 6.35 9.95 6.3 16.1 17 0.75 1.3 0.45 1.6t-1.2-0.85q-16.95-21.8-36.6-21.8-14.35 0-23.85 9.4"/>
   <path d="m114.1 195.95q-2.15-1.95-1.85-3.15 0.25-1.3 3.1-1.1 2.8 0.15 11.3 3.25l0.15 1.3q-0.1 1.2-0.4 1.05-1.5-0.85-5.9-1.75l-4.3-0.65 4.5 4.75q4.65 4.85 4.75 6 0.05 0.55-4.15 5.75-4.15 5.15-3.95 5.45l5.3 0.5 9.55-0.75h0.8l0.25 0.75 0.2 4.05 0.3 4.3q4.2-5.2 5.45-6.1 0.3-0.2 0.85 0.6 0.5 0.85 0.25 1.05-0.9 0.75-2.65 3.2-1.45 2-2.35 3.55-1 1.75-2 1.3-0.95-0.5-1.05-2.5l-0.65-8.35-5.6 0.55q-6.3 0.5-9.55 0-1.85-0.3-2.1-1t1.05-2.5q1.8-2.45 8.25-9.9-0.4-1-4.25-4.7l-5.3-4.95"/>
   <path d="m379.6 107.35q-0.65-0.9-2.2-1.9-1.6-1-2.8-1.15-2.8-0.35-6.5 1.8-4.1 2.4-6.1 6.15-0.45 0.95-0.8 4.4-0.3 3.35-0.05 4.1 0.7 1.8 3.2 3.7 2.55 1.85 4.4 1.85 0.75 0 4.05-2.2l4.05-3.15q1.35-1.45 2.35-7.15 1-5.55 0.4-6.45m-0.7-2.9q2.15 1.6 2.35 2.45 0.45 2-0.05 7.55-0.6 6.15-1.9 7.75-1.2 1.4-5.15 3.85-4.1 2.5-5.35 2.5-2.65 0-5.8-2.3-3-2.2-3.85-4.45-0.4-1 0.25-5.3 0.6-4.15 1.15-5.1 2.1-3.5 6.15-6.1 4.2-2.7 7.9-2.7 1.9 0.05 4.3 1.85"/>
   <path d="m379.45 85.6q5.25-3.4 5.2-4.3 0-0.5-1.25-1.95-1.3-1.5-2-1.7l-4.75-0.1-4.9 0.55q-0.65 0.45-2.05 3.3-1.45 3-1.4 4.25 0.05 0.6 1.7 1.95t2.4 1.35q1.7 0.05 7.05-3.35m-2.6-9.65q3.95-0.3 5.15 0.1 1.5 0.65 3.3 2.65t1.6 2.9q-0.5 2.65-5.9 6.05-5.15 3.25-8.6 3.55-1.4 0.15-3.95-1.8-2.7-2.05-2.7-3.75 0.05-1.5 1.9-4.75 2-3.45 3.55-4.1 1.75-0.6 5.65-0.85"/>
  </g>
 </g>
</svg>
