<?xml version="1.0" encoding="UTF-8"?>
<svg version="1.1" viewBox="0 0 159.36 255.31" xmlns="http://www.w3.org/2000/svg">
 <g transform="translate(.011787 -.043182)">
  <path d="m26.45 188.4q6.3-24.6 25.45-37.2 13.3 20.7 34.25 22.35 9.35 0.7 18.2-2.85t15.6-10.7q7.2 16.3 2.6 38.4-4.45 21.25-16.7 34.55-18.75 12-40.7 9.85-19.1-1.9-34.45-13.3-5-8.25-6.05-19.25-1.05-10.7 1.8-21.85" fill="#fac03e"/>
  <path d="m128.75 12.05q3.55 4.4 3.75 9.7 0.25 5.35-3 9.95-3.45 4.9-10.05 7.55-2.05 0.85-3.2 6.45-1.3 6.45-0.35 15.6 0.9 8.3 6.95 19.7l11.6 21.55q6.8 14.25 9.15 28.7 3 18.65-0.6 41.1-3.1 19.5-12.95 35.5-9.75 15.9-24.2 25.1 12.25-13.3 16.7-34.55 4.6-22.1-2.6-38.4 5.8-6.15 9.3-14.3 3.5-8.1 4.25-17.2 1.8-22.3-11.05-37.35-11.75-13.75-28.7-14.55-16.75-0.75-31.4 10.4-16.8 12.8-18.45 34.05-0.65 7.9 1.55 15.85 2.05 7.5 6.45 14.3-19.15 12.6-25.45 37.2-2.85 11.15-1.8 21.85 1.05 11 6.05 19.25-14.6-10.8-22-27.8-8.05-18.45-6.2-41.45 1.8-23.45 12.4-41.95 10.4-18.15 32-36.25l17.15-14.45q8.65-7.85 13.4-15.1 4.4-6.75 6.05-11.95 2.1-6.75-1.1-9.15-5.8-4.35-7.1-9.85-1.15-4.9 1.4-9.75 2.35-4.55 7.15-7.55 4.85-3.05 10.25-3.3 4.35-0.2 5.15 0.55 0.7 0.75-0.7 3.65-2.8 5.85 0.35 9.65 2.7 3.3 8.05 3.7 5.3 0.4 8.2-2.25 3.25-3 0.6-8.1-1.15-2.2-0.55-3.05 0.6-0.9 3.3 0.05 6.5 2.25 10.25 6.9" fill="#0081cc"/>
  <path d="m65.7 146q1.9-5.6 6.05-9.9 0.9 1.7 3.55 4.8 2.5 2.95 2.9 2.95 0.9-1 2.2-6.25 1.25-5.2 1.2-7.7 6.1-2.1 12.25-0.95 6.45 1.15 10.55 5.5-0.6 2.6-1.05 7-0.5 5.05 0.05 6.1 1.3-0.1 6.35-3.55 1.8 6.3 0.3 12.65-1.55 6.6-6.15 11.05-4.35-10.7-15.65-16.85-10.8-5.8-22.55-4.85" fill="#933000"/>
  <path d="m103.4 147.55q-0.55-1.05-0.05-6.1 0.45-4.4 1.05-7 3.85 4.1 5.35 9.55-5.05 3.45-6.35 3.55" fill="#fff"/>
  <path d="m94 76.6q13.05 0.75 23 9.15-0.95 6.2-7.7 13.85-6.95 7.75-11.95 7.65-6.2-0.15-13.85-8.9-7.7-8.8-9.8-18.25 10-4.1 20.3-3.5" fill="#7ecef4"/>
  <path d="m78.2 143.85q-0.4 0-2.9-2.95-2.65-3.1-3.55-4.8 4.2-4.35 9.85-6.2 0.05 2.5-1.2 7.7-1.3 5.25-2.2 6.25" fill="#fff"/>
  <path d="m72.4 169.75q-5.05-4.05-6.85-10.6-1.85-6.55 0.3-13.1 13.35-0.55 23.4 5.05 10.25 5.7 14.65 16.6-3.85 3.65-9.6 5.4-11.85 1.45-21.9-3.35" fill="#ee869a"/>
  <path d="m53.35 95.85q8-10.65 20.35-15.75 2.1 9.45 9.8 18.25 7.65 8.75 13.85 8.9 5 0.1 11.95-7.65 6.75-7.65 7.7-13.85 8.6 7.25 13.05 18.55 4.45 11.45 3.45 24.2-1.4 17.25-11.7 29.55-10.85 13-27.5 15.05 14.3-4.25 16.2-19.15 1.15-9-3.45-16.2-4.45-6.9-11.55-8.55-10.1-2.35-18.55 2.8-7.85 4.75-10.95 13.55-5.2 14.85 6.4 24.2-12.35-5.9-20.65-18.9-9.1-14.3-7.85-29.8 1.1-14.05 9.45-25.2" fill="#515557"/>
  <path d="m60.95 95.1q2.9-4.05 6.1-1.6 4.05 3.15 10.7 11.7 7.5 9.55 7.35 13.05-0.1 2.3-2.5 4.6-2.35 2.25-5.95 3.6-8.7 3.15-15.55-1.45-6.35-4.3-5.85-13.95 0.45-8.75 5.7-15.95" fill="#fac03e"/>
  <path d="m126.9 106.65q1.55 8-0.65 14.5-2.25 6.7-7.5 8.75-6.4 2.5-11.9-1.65-5.15-3.85-4-8.4 0.9-3.3 6.95-9.25 6.2-6.05 11.1-8.25 2.6-1.2 3.95-0.25 1.35 1 2.05 4.55" fill="#fac03e"/>
  <path d="m113.4 125.05q-1.35-0.2-2-2.6-0.6-2.4-0.2-5.7t1.65-5.45q1.2-2.15 2.55-1.95 1.3 0.2 1.95 2.6 0.65 2.45 0.2 5.7-0.4 3.25-1.6 5.45-1.25 2.15-2.55 1.95" fill="#f3993a"/>
  <g fill="#515557">
   <path d="m31.35 231.15q-8.75 3.9-14.35 5.2-7.55 1.8-10.4-0.65-3.35-2.95-1.25-13.45 1.85-9.1 5.5-15.55 1.95 3.75 9.15 12.3 7 8.3 11.35 12.15"/>
   <path d="m87.55 241.8q4.95-1.55 11.1-4.6 12.3-6 18.45-13.15 1.75 5.3-2.05 17.2-3.9 12.4-8.7 13.15-4.45 0.75-10.4-4-4.15-3.3-8.4-8.6"/>
   <path d="m32.35 185.8q-9.75-4.75-11.05-9.95-2.35-9.2 3.15-15.35 5.2-5.75 12.1-4.1 6.3 1.5 10.2 15.3 1.6 5.65 1.6 10.2-0.05 4.8-2 6-4.25 2.6-14-2.1"/>
   <path d="m145.8 146.55q10-2.35 11.65 0.4 2.7 4.5-2.85 14.9-5.9 11-14.8 15.2-2.2 1.05-4.6-1.2-2.25-2.15-3.7-6.2-3.5-9.85 1.1-16.4 3.05-4.3 13.2-6.7"/>
  </g>
  <path d="m68.35 120.35q-1.45-0.2-2.05-2.9-0.6-2.65-0.05-6.35 0.6-3.65 2-6.05 1.45-2.35 2.9-2.15t2.1 2.9q0.6 2.65 0 6.3-0.55 3.7-2 6.1-1.4 2.4-2.9 2.15" fill="#f3993a"/>
  <path d="m120.7 205.55q-5.05 16.8-14.85 27.4-18.75 12-40.7 9.85-19.1-1.9-34.45-13.3-6.55-10.75-6.3-25.95 23.8 9.95 48.6 10.7 25.8 0.7 47.7-8.7" fill="#d7a635"/>
  <path d="m30.7 229.5q-8.6-6.3-14.8-15.1-6.5-9.1-10-20.25 8.95 5.4 18.5 9.4-0.25 15.2 6.3 25.95" fill="#0071b2"/>
  <path d="m105.85 232.95q9.8-10.6 14.85-27.4 7.9-3.4 14.75-7.85-5.1 11.2-12.6 20.2-7.6 9.05-17 15.05" fill="#0071b2"/>
  <path d="m77.3 146.8q-5.9-1.3-11.6-0.8 1.9-5.6 6.05-9.9 0.9 1.7 3.55 4.8 2.5 2.95 2.9 2.95 0.9-1 2.2-6.25 1.25-5.2 1.2-7.7 6.1-2.1 12.25-0.95 6.45 1.15 10.55 5.5-0.6 2.6-1.05 7-0.5 5.05 0.05 6.1 1.3-0.1 6.35-3.55l0.8 4q-11.3 0.1-22.2 2.95-5.2-2.85-11.05-4.15" fill="#6a1b00"/>
  <path d="m80.1 153.45q-7 2.5-14.3 6.55-2.25-7.05 0.05-13.95 13-0.55 22.85 4.8l-8.6 2.6" fill="#cf7487"/>
  <g fill="#38393a">
   <path d="m25.85 225.95 5.5 5.2q-8.75 3.9-14.35 5.2-7.55 1.8-10.4-0.65l-1.55-1.45q-0.45-0.7-0.45-2.7 4.3 3.6 12.3 0.8 7.4-2.6 8.95-6.4"/>
   <path d="m117.1 224.05q0.65 1.95 0.35 5.8-0.3 3.65-1.4 8.05-6.85 0-13.1 1.95-6.5 2.05-11.85 6.05l-3.55-4.1q4.95-1.55 11.1-4.6 12.3-6 18.45-13.15"/>
   <path d="m22.55 178.35q7.25 4 13.75 5.4 7.7 1.7 12-0.85-0.25 4-1.95 5-3.65 2.25-12.1-1.25-8.2-3.45-11.7-8.3"/>
   <path d="m133.85 173.3q6.85-1.45 12.2-5.05 5.45-3.65 10.25-10.05-2.35 5.8-6.5 10.75-4.65 5.6-10 8.1-1.75 0.85-3.4-0.55-0.95-0.8-2.55-3.2"/>
  </g>
  <g fill="#0f141b">
   <path d="m128.45 31.7q3.35-4.4 3.2-9.7-0.1-5.3-3.7-9.65-3.6-4.3-9.7-6.4-1.95-0.65-2.3-0.4-0.4 0.35 0.55 2.2 1.8 3.4 1.05 6.15-0.5 1.9-2.1 3.2-2.85 2.4-7.7 2.3-4.85-0.15-8.05-2.65-2.2-1.65-2.95-4.1-1.05-3.45 1.05-7.9 1.05-2.15 0.45-2.65l-4.1-0.3q-5.95 0.25-11.05 3.95t-6.75 8.95q-1.3 4.35 0.4 8.5t6.2 7.5q3.85 2.9 1.1 10.85-1.75 5.1-5.9 11.45-4.3 6.55-10.8 12.65l-19.9 17.1q-20.8 17.45-31.4 35.8-10.9 18.95-12.7 41.75-2.5 31.8 13.65 54.1 15 20.75 40.45 26.35 13.85 3.05 27.55-0.1 13.45-3.1 24.95-11.7 24.6-18.4 31.45-52.5l3.15-1.8q-6.3 36.2-31.45 55.5-11.9 9.1-26.15 12.3-14.6 3.3-29.9-0.05-26.65-5.85-41.95-25.3-17.45-22.1-14.75-56.05 1.85-23.35 12.6-42.45 10.65-18.8 31.75-36.65l18.85-15.8q9.25-8.15 13.15-14.1 4.15-6.35 5.65-11.8 1.6-6.1-1.15-8.2-5.95-4.45-7.35-9.9-1-3.8 0.25-7.7 1.75-5.75 7.6-9.95 5.85-4.15 12.35-4.4 5.7-0.25 6.5 0.6 0.75 0.8-1.2 4.8-2.9 6 1.85 9.7 2.8 2.15 6.75 2.4 4.05 0.2 6.4-1.8 3.1-2.5 0.65-7.25-1.95-3.7-1.25-4.65 0.8-1.05 5.05 0.45 6.65 2.25 10.9 7.15 4.25 4.95 4.4 10.8 0.15 5.9-3.55 11-3.75 5.15-10.2 7.75-1.75 0.75-3 5.35-1.55 5.95-0.6 14.8 0.65 6 4.15 13.5 1.6 3.35 7.45 13.65 8.4 14.9 11.85 24.05 5.95 15.85 6.5 33.5-1.3 0.05-2.65 0.75-0.35-17.9-6.2-33.85-3.45-9.45-11.8-24.2-5.2-9.2-7.15-13.6-3.2-7.25-3.85-13.6-1-9.4 0.4-15.95 1.2-6 3.65-7 6.05-2.4 9.35-6.75"/>
   <path d="m122.8 93.1q-11.4-14.8-29.1-15.65-19.05-0.85-33.25 11.8t-15.7 31.85q-1.55 19.05 11.8 34.95 5.95 7.05 13.4 11.4 7.6 4.35 15.05 4.95 18.5 1.5 32.2-10.95 13.8-12.6 15.45-33 1.6-20.45-9.85-35.35m-29-17.35q19.15 0.9 30.9 16 11.75 15.2 10 36.95-1.6 20.15-15.25 33.55-14.55 14.2-35.1 12.55-7.7-0.6-15.6-5.15-7.75-4.5-13.9-11.8-13.95-16.55-12.4-36.15 1.65-20.3 17.3-33.75 15.1-13.05 34.05-12.2"/>
   <path d="m27.1 182.25 1.85 1.6q-4.25 12.5-3.55 24.65 0.8 12.8 6.95 22-1.8-1.05-3.25-2.1-5.85-9.8-6.15-22.4-0.3-11.7 4.15-23.75"/>
   <path d="m51.65 150.35q0.3-0.2 0.75 0.55 0.45 0.7 0.15 0.9-5.7 3.75-10.35 9l-0.8-0.65-0.85-0.65q4.35-4.8 11.1-9.15"/>
   <path d="m119.3 160.7 0.55-0.9q0.6-0.7 0.75-0.4 7.5 16.7 3.6 39.05-4.05 23.05-17.6 34.6-0.25 0.25-1.95 0.7l-1.45 0.2q13.3-12.15 18.25-34.4 4.95-22.4-2.15-38.85"/>
   <path d="m48.6 180.3q-0.45-0.45-0.75-1.9-0.35-1.55-0.05-1.2 6.15 6.4 16.85 10.2 10.05 3.6 21.7 4t21.45-2.5q10.45-3.1 16.15-9.2 0.2-0.25 0.65 0.85 0.45 1.05 0.25 1.25-6.1 6-16.45 9.05-9.7 2.8-21.1 2.5-11.3-0.35-21.4-3.65-10.55-3.45-17.3-9.4"/>
   <path d="m96.15 221.3q13.7-3.4 22.95-11.75 0.25-0.2 0 1.15-0.25 1.4-0.5 1.6-8.6 7.4-21.65 10.7-12.75 3.25-26.5 1.85-14.25-1.4-25.95-7.45-12.65-6.55-19.9-17.35-0.2-0.25 0.2-1.75 0.35-1.5 0.55-1.2 6.2 10.45 18.25 17.3 11.4 6.45 25.5 8.3 14.05 1.85 27.05-1.4"/>
   <path d="m10.45 204.7q0.2-0.3 0.8 1.15l0.45 1.75q-3.6 6.9-5.35 15.4-2 9.6 0.8 12.05 2.55 2.25 9.9 0.3 5.25-1.4 13.95-5.25 0.35-0.1 1.15 0.7t0.45 0.95q-21 9.4-26.55 4.6-3.7-3.25-1.3-15.05 2-10 5.7-16.6"/>
   <path d="m116.15 225.8q0.05-0.45 1.25-1.55 1.2-1.15 1.2-0.8-0.3 9.5-3.2 19.05-3.6 11.9-8.9 12.75-4.75 0.75-11.5-4.05-5.3-3.75-9.4-8.9-0.2-0.25 1.1-0.8 1.3-0.5 1.5-0.25 3.9 4.85 7.8 8.05 6 4.95 10.2 4.3 3.9-0.6 6.85-9.95 2.55-8.15 3.1-17.85"/>
   <path d="m22.15 175.65q1.15 4.65 10.6 9.25 9.4 4.6 13.15 2.3 1.7-1.05 1.6-5.65-0.05-4.3-1.6-9.7-3.75-13.2-9.55-14.6-6.2-1.45-11.15 3.95-5.25 5.8-3.05 14.45m-1.95 1.05q-2.55-9.2 3.45-16.3 5.8-6.9 13.45-5.1 6.8 1.65 10.7 16.4 1.6 6.05 1.45 10.85-0.1 5.15-2.15 6.4-4.6 2.85-14.95-1.85t-11.95-10.4"/>
   <path d="m157.25 148.4q-0.65-1.8-3.7-1.9-4.75-0.15-11.15 1.95-6.95 2.25-9.1 5.3-3.05 4.35-2.1 11.05 0.85 6.05 3.9 9.7 2.35 2.75 4.3 1.8 5.8-2.75 10.7-9.15 4.5-5.85 6.35-11.95 1.5-4.9 0.8-6.8m-3.65-3.6q4.45 0.15 5.4 2.25 1 2.25-0.9 8.65-2 6.55-6.5 12.75-5.25 7.25-11.5 10.2-2.95 1.35-6.2-2.55-3.4-4.05-4.25-11.1-1-7.85 2.45-12.7 2.45-3.45 9.7-5.7 6.5-2 11.8-1.8"/>
   <path d="m108.75 98.85q6.55-7.45 7.45-13.25 0.05-0.35 1.05 0t0.95 0.7q-0.75 7.05-8.15 14.6-7.3 7.4-12.95 7.3-6.6-0.2-14.45-9.05-7.8-8.9-9.8-18.6-0.05-0.35 0.75-0.8 0.8-0.5 0.85-0.15 1.9 9.05 9.4 17.85 7.55 8.8 13.55 8.95 4.65 0.1 11.35-7.55"/>
   <path d="m64.6 145.55q3.6-10.35 13.25-15.05 8.7-4.25 17.85-2.15 7.8 1.85 12.5 9.45 4.7 7.65 3.5 16.65-1.6 12.75-13.4 17.8-1.9 0.85-7.45 0.7 7.95-1.5 12.85-6.4 4.95-5 5.95-12.7 1.1-8.2-3.1-15.2-4.25-7-11.25-8.65-8.55-2-16.4 1.9-8.75 4.25-12.1 13.95-2.8 7.9 0 14.8 2.75 6.9 10.05 10.15-5.75-1.45-7.3-2.95-4.4-4.15-5.75-9.85-1.45-6.05 0.8-12.45"/>
   <path d="m71.7 135.9q0.85-0.5 0.9-0.25 0.25 1 2.35 3.65l3.05 3.55q0.85-1.7 1.9-5.8 1.05-4.3 1.05-6.45l0.7-0.5 0.7-0.1q0.25 2.75-1.4 8.8-1.7 6.1-2.75 5.75-0.95-0.3-3.9-3.45-3-3.25-3.35-4.4-0.05-0.3 0.75-0.8"/>
   <path d="m103.8 134.5q0.05-0.25 0.7 0t0.65 0.35q-0.7 2.5-1.1 6.7-0.35 3.85-0.15 5.1l5.55-3.25q0.25-0.15 0.65 0.45 0.4 0.65 0.15 0.75-0.35 0.15-3.75 2.35-3.2 2-3.45 1.65-0.9-1.65-0.35-7.25 0.4-4.5 1.1-6.85"/>
   <path d="m66.55 94.2q-2.5-1.95-4.9 1.4-5.55 7.6-5.5 16.4 0.05 8.65 5.45 12.3 6.4 4.35 14.7 1.3 3.4-1.2 5.6-3.3 2.3-2.05 2.35-4.05 0.1-3.2-7.15-12.5-6.6-8.5-10.55-11.55m-6.3 0.4q1.9-2.55 3.55-2.95 1.7-0.45 3.8 1.2 4.05 3.15 10.85 11.85 7.65 9.85 7.5 13.6-0.1 2.6-2.75 5.1-2.55 2.45-6.45 3.85-9.45 3.4-16.55-1.4-6.3-4.2-6-13.95 0.25-9.3 6.05-17.3"/>
   <path d="m72.5 106.1q-0.55-2.35-1.45-2.5-1.05-0.15-2.25 1.95-1.3 2.25-1.85 5.65-0.45 3-0.05 5.6 0.45 2.65 1.55 2.85 1.05 0.15 2.3-1.95 1.25-2.3 1.8-5.7 0.5-3.3-0.05-5.9m-1.25-3.9q1.65 0.2 2.5 2.85 0.9 2.9 0.2 7.2-0.6 3.75-2.15 6.3-1.7 2.85-3.65 2.55-1.7-0.25-2.5-2.85-0.95-2.85-0.25-7.05 0.6-3.8 2.2-6.4 1.7-2.9 3.65-2.6"/>
   <path d="m125.4 120.9c1.4333-4.2 1.65-8.9 0.65-14.1-0.4-2.0333-0.58619-3.1195-1.8-3.85-0.85788-0.51628-3 0.15-3 0.15-3.2 1.4333-6.8167 4.15-10.85 8.15-3.9333 3.8667-6.1667 6.8167-6.7 8.85-0.7 2.6667 0.53333 5.1833 3.7 7.55 3.3667 2.5333 7.0333 3.0167 11 1.45 3.2333-1.2333 5.5667-3.9667 7-8.2m-0.1-19.6c1.2667 0.76667 2.1833 2.6 2.75 5.5 1.1 5.7 0.85 10.783-0.75 15.25-1.6333 4.4333-4.2833 7.3667-7.95 8.8-4.5333 1.8-8.8167 1.2167-12.85-1.75-3.8667-2.8667-5.35-6.0167-4.45-9.45 0.6-2.3667 2.9833-5.6 7.15-9.7 4.2-4.0667 7.9833-6.8667 11.35-8.4 2-0.9 3.5833-0.98333 4.75-0.25"/>
   <path d="m115.4 122.7q1.05-2 1.45-5.15 0.4-3-0.15-5.25-0.5-2.15-1.4-2.25-0.85-0.1-1.85 1.75-1.15 2.1-1.55 5.05-0.35 3.05 0.15 5.25 0.5 2.1 1.45 2.25 0.9 0.1 1.9-1.65m-2.85-12.2q1.4-2.05 2.95-1.85 1.85 0.25 2.6 3.6 0.6 2.85 0.2 6.1-0.5 3.65-1.85 5.7-1.3 1.95-2.95 1.75-1.85-0.25-2.65-3.1-0.8-2.65-0.35-6.05 0.5-3.85 2.05-6.15"/>
   <path d="m65.7 147.3q-0.35 0.05 0.1-1.05 0.45-1.05 0.8-1.05 12.8-0.7 23.2 5.35 10.3 6.05 14.3 16.5 0.1 0.35-0.65 0.95-0.75 0.65-0.85 0.3-3.75-10.45-14.15-16.35-10.4-5.85-22.75-4.65"/>
  </g>
 </g>
</svg>
