<?xml version="1.0" encoding="UTF-8"?>
<svg version="1.1" viewBox="0 0 627.67 422.2" xmlns="http://www.w3.org/2000/svg">
 <g transform="translate(-.0071429)">
  <g fill="#009a64">
   <path d="m407.7 16.4q10.95 13 10.95 28.45 0 15.6-10.8 28.5-12.55 15-32.65 15-20.15 0-32.7-15-10.8-12.85-10.8-28.5 0-15.55 10.95-28.45 12.6-15 32.55-15 19.9 0 32.5 15"/>
   <path d="m347 24q3.3 1.05 4.05 1.45 1.95 0.9 3.05 2.45 1.4 2 1.3 4.7-0.1 2.55-1.5 4.8-2.95 4.6-8.3 4.45-2.1 0-3.6-0.9-1.55-0.85-3.45-3.2-3.15-4-6.5-9.9-3.2-5.75-2.85-6.5 0.4-0.85 6.55 0.05 6.25 0.95 11.25 2.6"/>
   <path d="m398.45 8.75q6-4 6.35-3.55 0.45 0.4-0.3 7.25-0.8 6.85-1.8 12.1-0.95 5.35-3.15 7.35-4.25 3.65-10.25 0.05-5.1-3.1-5.25-7.6-0.15-2.8 1.4-5.15 1-1.35 2.95-3 4.05-3.45 10.05-7.45"/>
   <path d="m345.1 91.85 1.2-10.25q1.35-10.7 2.25-12.7 1.5-3.2 4.85-4.3 3.4-1.1 6.8 0.7 3.4 1.75 4.25 5.85 0.9 4.05-1.35 6.7-1.8 2.2-10.1 8.3l-7.9 5.7"/>
   <path d="m387.25 63.3q0.8-2.3 2.45-4.05 2.4-2.3 5.35-2.95 2.75-0.55 5 0.45 4.4 2.05 6.5 8.35l3 9.8q1.55 5.5 1.2 5.9-0.2 0.35-5.1-1.2-5.2-1.6-10.15-3.7-3.3-1.4-4.9-2.55-2.75-1.95-3.45-4.5-0.8-2.75 0.1-5.55"/>
  </g>
  <g fill="#c9c9c4">
   <path d="m236.05 252.9q-0.45-12.05 1.05-12.95 0.95-0.55 4.8 1.8 3.25 1.95 5.05 3.55l-1.7 9.5-9.2-1.9"/>
   <path d="m309.5 389.45q0.5-0.1 6.1 3.05l5.45 3.15q-17.95 25.85-20.4 25.15-1.65-0.5-2.95-10.85l-1.2-13.4-0.5-7.05 13.5-0.05"/>
   <path d="m396.7 376.95q2.65 30.95 0.4 32.15-1.55 0.8-14.15-9.45-9.1-7.4-14.7-12.55l7.75-7.05 20.7-3.1"/>
   <path d="m475.25 297.9-2.6-8.25 3.15-10.55 8.8 2.6q6.95 2.2 7.05 3.25 0.2 1.25-7.05 6.7-6.7 5-9.35 6.25"/>
   <path d="m439.7 245-17.35-2-5.3-9.9q25.55-9 27-7.55 0.9 1-1.35 9.6-1.7 6.45-3 9.85"/>
   <path d="m464.85 323.65q-12.8 19.65-29.75 32.05-16.1 11.75-36.85 21.7-24.75 11.95-45.4 15.75-25.9 4.85-46.45 3.25-28.25-2.15-62.7-16.05-34.7-13.85-49.4-31.4-11.45-13.65-11.7-31.05-0.2-13.85 19.15-35.7 17.4-19.6 38.6-33.25 44.75-28.9 71.65-33.65 25.1-4.5 52.4 0.05 19 3.15 36 10.05 25.5 10.25 42.9 20.85 30.3 18.4 33.5 35.55 3.4 18.15-11.95 41.85"/>
  </g>
  <path d="m270.35 304.95q-2.15 1.7-14.75 7.4-12.6 5.75-13.55 5.45-1.15-0.3-7.7-9.9-6.85-9.95-6.45-12.05 0.65-3.05 2.9-10.45 2.55-8.45 4.45-12.7l19.2 1.55 23.2 7.2q-0.45 3.05-2.9 11.9-2.95 10.45-4.4 11.6" fill="#009a64"/>
  <path d="m360.65 271.45q1.1 3.35 2.95 12.55 2.05 9.7 1.6 10.6-0.5 1.05-13.85 10.9-13.65 10-15.65 10.45-2.8 0.65-33.95-11-0.65-0.45-1.15-9.7-0.45-7.9-0.45-13.9l32.45-8.8 28.05-1.1" fill="#009a64"/>
  <path d="m348.55 274.8 0.9 3.35q1.35 8.45-1.6 14.55-3.65 7.45-13.1 9-8.9 1.45-15.05-4.9-5.1-5.2-6.35-12.75-0.25-1.65-0.25-3.6l17.25-6.85 18.2 1.2" fill="#f7bf4a"/>
  <path d="m266.4 284.45q-2.2 8.25-6.5 12.8-5.3 5.65-12.35 3.75-6.55-1.8-8.4-9.8-1.55-6.6 0.45-14l0.5-1.75 12.7-0.9 14.45 6.2-0.85 3.7" fill="#f7bf4a"/>
  <g fill="#009a64">
   <path d="m614.25 105.45-75.35 79.45q-7.25-8-11.25-18.45-3.7-9.7-3.7-19.1 0-19.7 13.8-36 15.95-18.9 41.15-18.9 20.5 0 35.35 13"/>
   <path d="m369.2 39.4q2.9-0.5 5.35 1.15 2.45 1.7 2.95 4.6 0.55 2.85-1.1 5.25t-4.55 3q-29.25 6.65-43.15 34.5-19.4 38.75-7.9 116.2l-8.45-2.2-7.55-11.15q-4.25-37.5-0.6-66.75 3.65-29.55 15.25-49 9.85-16.5 24.8-25.9 11.4-7.1 24.95-9.7"/>
   <path d="m539.9 108-1.25 11.65-7 0.2q-55.8-28.65-106.7-11.2-33.75 11.55-46.9 54.85-5 16.45-5.9 34.5-0.85 15.8 1.6 26.6 1.95 8.35-5.3 7.9-3.7-0.2-6.05-2-2.35-1.7-3.05-4.65-2.95-12.6-2-30.35 1.2-20.2 7.2-38.65 15.65-47.95 55.75-61.7 57.3-19.6 119.6 12.85"/>
   <path d="m305.05 233.85q-4.45-1.1-7.2-3.85-2.2-2.2-2.85-4.7-0.7-2.55-0.05-6.15 1.3-7.9 6.15-21.35 4.6-12.85 5.75-13.05 1.1-0.2 10.2 12.1 9.2 12.2 13.15 19.15 1.05 1.8 1 4.75-0.05 3-1.4 5.1-2 2.95-5.8 5.05-3.85 2.2-9.05 3.15-5.3 0.95-9.9-0.2"/>
  </g>
  <g fill="#c9c9c4">
   <path d="m435.5 288q-2.9 4.35-5.3 6.3-2.8 2.25-7.05 3-4.45 0.85-9.55-1.35-5.4-2.25-8.4-6.75-2.85-4.15-3.15-9.2-0.3-4.05 1.05-7.8 1.25-3.8 4.85-6.5 3.15-2.45 6.85-3.25 9.35-2.1 22.2-3.9 12.95-1.8 13.4-1.05 0.5 0.9-4.55 11.7-5.5 11.4-10.35 18.8"/>
   <path d="m207.7 298q-2.75 1.7-5.5 2-3.1 0.35-4.95-0.7-1.55-0.85-3.5-3.35-4.8-6.35-10.7-15.75-6.5-10.25-5.8-11.05 0.7-0.85 13.05 1.1 12.4 1.95 19.75 4.05 3.25 0.95 4.8 2.55 1.65 1.75 1.8 4.6 0.25 5.9-3.85 11.7-2.15 3-5.1 4.85"/>
   <path d="m422.3 331.6q4.9 1 10.65 6.2 5.25 4.85 11.35 11.6 6.2 6.95 5.85 7.7-0.45 0.85-9.45 2.05l-17.1 1.15-8.05-0.45q-3.4-0.55-5.9-2.95-3.1-2.75-3.7-7.45-0.5-3.9 0.75-7.9 2.1-6.9 7.3-9.2 3.85-1.75 8.3-0.75"/>
   <path d="m297.2 363.45q4.95 1.75 7.95 4.7 3.1 3.1 3.45 6.8 0.25 2.9-2.1 7.15l-3.95 5.9q-1.95 2.65-9.45 10-8.05 7.75-9.1 7.45-1-0.35-3.3-11.5-2.2-10.8-2.25-14.4-0.15-5.4 0-6.9 0.3-3.9 2.05-6.75 2.1-3.35 7.85-3.7 4.55-0.3 8.85 1.25"/>
   <path d="m196.25 351.3q1.95-2.05 6.5-0.7 4.45 1.3 7.65 4.45 2.85 2.75 4.5 6.1 1.9 3.75 0.7 5.7-1.2 2.15-15.2 8.1-14 6-14.9 4.8-0.9-1.25 3.95-13.85 4.85-12.4 6.8-14.6"/>
  </g>
  <path d="m568.55 103.5q-2.75-0.15-4.8-1.15-4.35-2.2-4.2-9.7 0.05-7.75 0.95-16.8 1.05-9.5 1.95-9.75 0.85-0.2 7.5 8.2 5.6 7 10.7 14.1 3.5 4.8 1.5 8.55-1.05 1.9-3.15 3.55-2.25 1.7-4.85 2.4-2.7 0.8-5.6 0.6" fill="#009a64"/>
  <path d="m517.55 156.8q-7.75-3.6-14.3-7.2-8.1-4.4-7.9-5.4 0.15-1.1 8.4-3.4 7.25-2.05 14.55-3.4 4.65-0.9 6.9-0.65 3.6 0.35 5.4 3.25 2.25 3.6 1.95 8.65-0.25 4.5-2.85 7.2-3.2 3.3-6.55 3-1.4-0.15-5.6-2.05" fill="#009a64"/>
  <g fill="#525557">
   <path d="m264.65 252.85q0.65-0.1 2.25 1.15 1.65 1.15 1.65 1.55-0.1 0.35-3.25 1.6-3.2 1.2-3.6 0.8-0.35-0.35 1-2.7 1.35-2.3 1.95-2.4"/>
   <path d="m292.95 257.7 2.9-0.1q2.25 0.1 2.25 0.35-2.65 4.7-3.8 4.65-0.75-0.05-1.9-1.35-1.1-1.15-1.1-1.6 0-0.4 0.55-1.05 0.55-0.7 1.1-0.9"/>
   <path d="m338.85 249.3q0.2-0.5 2.75-0.45 2.6 0 2.65 0.45t-0.95 2.5q-1.1 2.1-1.5 2.1-0.45 0-1.8-2.05-1.4-2.05-1.15-2.55"/>
   <path d="m329.85 234.9 0.65 2.05 0.2 2.05-1.05 0.5-1.15 0.3-1.75-1.45q-1.4-1.4-1.2-1.8 0.2-0.45 2.1-1.1 1.9-0.7 2.2-0.55"/>
   <path d="m350.25 218.35 1.8 2.1q1.4 1.95 1.15 2.25l-2.7 0.25-2.7-0.25q-0.2-0.3 0.05-1.35l0.45-1.35q1.4-1.75 1.95-1.65"/>
   <path d="m216.4 310.7q0.45-0.4 2.65 0.9 2.15 1.2 2.25 2.05 0 0.85-2.6 2.3-2.5 1.4-3.15 1.25-0.55-0.15-0.1-3.15 0.45-3.05 0.95-3.35"/>
   <path d="m291.05 327.8q0.5-0.8 2.8-0.9 2.3-0.15 2.65 0.3 0.25 0.5-0.7 3.4-1.05 2.95-1.75 3.15-0.75 0.2-2.1-2.5-1.35-2.65-0.9-3.45"/>
   <path d="m387.8 300.9q3.45 4.65 2.95 5.15l-2.9-0.05-2.85-0.7q-0.3-0.35-0.45-1.55-0.1-1.3 0.2-1.75 0.4-0.45 1.6-0.85l1.45-0.25"/>
   <path d="m453.6 320.05q0.4 2.25 0.05 2.6l-2.75-0.2q-2.35-0.45-2.35-0.9 0-0.5 1.95-2.45 2-2 2.4-1.65t0.7 2.6"/>
   <path d="m391.25 341.85 2-0.3 1.8 0.05q0.2 0.35-0.15 2.9-0.25 2.65-0.7 2.85-0.4 0.15-1.9-1.25l-1.65-1.8q0-2.05 0.6-2.45"/>
   <path d="m341.55 372 3.1 0.15q2.9 0.4 2.9 0.7l-1.5 2.2q-1.6 1.7-2.05 1.35-0.65-0.45-1.65-2.25-1.05-1.9-0.8-2.15"/>
   <path d="m239.75 363.6q0.35-0.6 3.15-0.7 2.75-0.15 3.05 0.7 0.35 0.85-0.35 2.9-0.75 2.05-1.25 2.3-0.55 0.2-2.75-2.2-2.2-2.45-1.85-3"/>
   <path d="m420.5 360.4 5.2-0.2 2.6 0.2q-6.95 4.6-12.45 7.7-28.6 12.8-60.85 17.35-26.7 3.85-53.15 4.05l3.2-4.95q24.55-0.3 49.7-4 34.7-4.95 65.75-20.15"/>
   <path d="m234.8 376.65q18.8 5.6 44.25 7.25l0.55 4.95-17-1.6q-9.7-3.15-18.9-6.9l-8.9-3.7"/>
   <path d="m438.8 304.65q14.7-9.85 22.4-19.8 7.9-10.25 7.15-18.8 4.2 4.8 6.35 9.45 0 9.8-10.75 21.1-10.55 11.25-29.45 21.75-41.9 23.4-98.4 31.5-60.3 8.6-105.05-0.35-21.15-4.15-33.5-11.8-12.8-7.9-14.25-18.4-0.7-4.55 1.2-11 1.55-4.1 4.2-8.6-0.8 2.8-1.1 5.9-0.2 2.65 0 4.45 1.15 9.85 11 17.3 9.45 7.2 26.15 11.7l8.35-10.75q8.5-10.65 8.95-10.5 0.3 0.15 3.85 8.5 4.55 10.8 8.05 17.75 30.95 2.95 68.4-1.1 1.85-4.55 7.25-15.55 5.55-11.3 6.1-11.45 0.5-0.1 12.1 9.85 11.35 9.75 12.25 10.9 46.65-10.6 78.75-32.05"/>
   <path d="m384.25 254.2q24.4-11.45 22.75-23.15-0.05-0.65-1.1-1.95-1.2-1.45-2.9-2.7l12.35 5.35q4.45 14.45-23.8 28.6-26.6 13.35-66.25 19.1-39.5 5.65-68.75 0.7-29.7-5-30.5-18.05-0.1-1.25 0.1-2.85 3.55-2.9 8.55-6.4-0.75 2.4-0.65 4.35 0.75 11.2 27.45 14.9 26.2 3.75 62.55-1.55 36.3-5.2 60.2-16.35"/>
  </g>
  <path d="m615.1 106.2q11.6 10.6 6.2 31.3-4.6 17.8-17.8 32.3-13.25 14.5-30.4 20.75-20.05 7.25-31.8-3.4-11.7-10.7-6.3-31.25 4.6-17.75 17.85-32.3 13.2-14.5 30.55-20.75 20.05-7.2 31.7 3.35" fill="#c9c9c4"/>
  <path d="m274.25 232.45q0.6 2.7-1.55 4.95-1.9 2.1-4.95 2.75-2.9 0.65-4.9-0.65-1.95-1.25-2.55-4.1-10.2-48.05-45.6-69.35-22.8-13.7-51.9-14.45-25.9-0.65-51.05 11.8-16.7 8.35-30.8 21.1l-10.95 1.35-0.35-10.3q15.3-14.3 34.1-24.05 29.15-14.95 59.4-14.2 33.1 0.85 59.15 16.45 40.3 24.15 51.95 78.7" fill="#009a64"/>
  <path d="m3.8 184.7q7.2-7.55 16.45-11.65 10.25-4.5 22.2-4.5 25.2 0 41.2 18.95 13.75 16.4 13.75 36 0 6.95-2.1 14.3-2.25 7.7-6.45 14.6l-85.05-67.7" fill="#009a64"/>
  <path d="m27.65 185.2q15.5 6.35 30.6 18.65 15.05 12.2 24.45 26.15 10.9 16.15 5.25 23.1t-23.7-0.4q-15.55-6.45-30.6-18.6-15.1-12.25-24.5-26.15-10.95-16.15-5.2-23.15 5.65-7 23.7 0.4" fill="#c9c9c4"/>
  <path d="m38.2 225.45q-1.85-1.5-2.95-3.15-1.3-1.95-0.65-2.85l2.9 0.1q1.8 0.75 3.65 2.25 1.8 1.45 2.95 3.15 1.3 1.95 0.65 2.75l-2.9-0.05q-1.85-0.75-3.65-2.2" fill="#0f141b"/>
  <path d="m31.4 142.5q0.75-0.15 7.45 8.55 5.9 7.8 10.6 14.8 2 2.95 2.3 4.85 0.35 2.05-1.25 3.95-2.85 3.35-8.75 4.6-6.7 1.35-10.75-0.8-2.25-1.15-3-2.9-0.75-1.6-0.55-4.7 0.45-7.5 1.75-17.4 1.35-10.65 2.2-10.95" fill="#009a64"/>
  <path d="m99 224.15q-3.25 1.5-4.4 1.75-2.25 0.45-4.7-0.8-2.45-1.2-3.95-3.7-1.65-2.9-1.8-7.15-0.25-6.1 2.7-9.75 1.6-2.15 3.85-2.45l4.05 0.3q6.7 1.55 16.5 4.7 10.2 3.3 10.2 4 0 0.75-8.25 5.5-8.1 4.8-14.2 7.6" fill="#009a64"/>
  <path d="m349.35 245.95q-4.2-3.1-2.35-5.6 1.8-2.5 6.5-0.25 4.65 2.2 7.4 4.2 3.1 2.15 6.2 5.75 2.95 3.4 0.75 5.6-2.1 2.15-5.8-0.5l-12.7-9.2" fill="#e6e6e6"/>
  <path d="m409.4 306.5q2.1 6.1-1.05 7.6-3.2 1.55-6.5-4.05l-9.2-15.35q-5.5-8.85-11.35-16.55-4.5-5.85-1.35-7.5 3.05-1.75 8 3.8 8.25 9 14.3 18.35 5.05 7.85 7.15 13.7" fill="#e6e6e6"/>
  <g fill="#9f9f9b">
   <path d="m470.9 314.8q-9.25 19.15-21.3 29.55l-5.05 4.95-14.85-14.9q10.85-5.8 20.3-12.4 3.2 1.35 3.8 0.75 0.6-0.55-0.2-3.3 14.4-10.5 24.1-21.7-2.15 7.55-6.8 17.05"/>
   <path d="m431.9 359.75q-16.35 12.05-35.5 20.6-25.45 11.45-53.6 15.4-22.45 3.05-46-0.1l5.8-7.1q5.9-7.9 6.9-11.9 1-3.95-2.35-7.9l-3.5-3.15 34.3-2.8q35.25-3.95 67.65-17.1l-0.1 1.95q0.15 2.3 0.85 4.35 2.2 6.65 9.45 8l12.4 0.65q2.6-0.35 3.7-0.9"/>
   <path d="m239.8 362.3q18.75 3.3 40.25 3.8l-1.3 3.15q-1.15 4-0.6 8.1 0.85 6.6 2.55 15.8-23.75-5.25-46.25-16.1-7-3.45-13.1-6.95l-4.65-2.9q0.25-2.5-3-7.6l-3.3-4.55q14.8 4.7 29.4 7.25"/>
  </g>
  <g fill="#38393a">
   <path d="m341.55 372 3.1 0.15q2.9 0.4 2.9 0.7l-1.5 2.2q-1.6 1.7-2.05 1.35-0.65-0.45-1.65-2.25-1.05-1.9-0.8-2.15"/>
   <path d="m239.75 363.6q0.35-0.6 3.15-0.7 2.75-0.15 3.05 0.7 0.35 0.85-0.35 2.9-0.75 2.05-1.25 2.3-0.55 0.2-2.75-2.2-2.2-2.45-1.85-3"/>
   <path d="m420.5 360.4 5.2-0.2 2.6 0.2q-6.95 4.6-12.45 7.7-28.6 12.8-60.85 17.35-26.7 3.85-53.15 4.05l3.2-4.95q24.55-0.3 49.7-4 34.7-4.95 65.75-20.15"/>
   <path d="m234.8 376.65q18.8 5.6 44.25 7.25l0.55 4.95-17-1.6q-9.7-3.15-18.9-6.9l-8.9-3.7"/>
  </g>
  <g fill="#9f9f9b">
   <path d="m306 416.35q-3.4 3.5-5.4 4.65l1.1-24 18.15 0.85q-7.05 11.65-13.85 18.5"/>
   <path d="m295 362.9 6.25 2.8q6.5 3.5 7.6 6.45 1.25 3.45-2.6 10.15-3.6 6.3-10.85 14.1-5.8 6.15-9.25 8.1-1.8 0.95-2.4 0.7 10.05-14.85 12.6-27.65 2.15-10.6-1.35-14.65"/>
   <path d="m391.55 381.85 5.7 27.9-26.2-20.1 20.5-7.8"/>
   <path d="m449.75 356.8q-0.25 0.55-1.6 1.15-2.65 1.2-7.9 1.45l-14.15 1.45q-11.7 0.35-16.6-3.6t-3.85-11.4l1.95-6.75q-0.35 3.15 7.45 7.8 11.55 6.85 34.7 9.9"/>
   <path d="m492 284.6q-0.2 2-7.65 7.65l-7.45 5.2 1.25-10.3 13.85-2.55"/>
   <path d="m207.5 371.95-13.4 5.65q-4.75 1.85-7.2 2.2l-1.55-0.05q15.5-8.05 20.7-18.35 1.6-3.2 2.05-6.25l0.05-2.4 4.65 5.1q4.35 5.8 3.25 8.75-0.75 1.75-8.55 5.35"/>
   <path d="m201.75 300.2q-3.4 0.25-5.95-1.6-2.05-1.55-8.95-12.35l-6.5-10.45q3.5 5.05 11.35 10.2 11.7 7.65 22.4 5.9l-1.05 1.75q-1.6 2.1-4.45 4.05-3.4 2.25-6.85 2.5"/>
   <path d="m450.35 259.3-6.65 16.35q-8.05 16.95-15.3 20.2-7.2 3.25-15.3-0.45-2.5-1.15-4.8-2.9l-1.8-1.5q13.7 1.95 29.3-13.3 10.3-10.1 14.55-18.4"/>
   <path d="m444.55 225.25-4 18.6-7-4.35 11-14.25"/>
   <path d="m237.2 240.15 2.45 7.9-3.65 3.35q-0.15-2.6-0.05-5.4 0.2-5.45 1.25-5.85"/>
  </g>
  <g fill="#008857">
   <path d="m323.35 205.15 4.65 5.55q4.5 6.65 3.9 11.8-1.9 7.25-11.6 10.25l-9.4 1.65q9.3-3.15 12.2-15 2.25-9.2 0.25-14.25"/>
   <path d="m377.9 43.85 0.3 1.1q0.2 1.55-0.6 3.6-0.75 2.25-3 3.5-1.3 0.75-6.6 2.65-17.25 6.2-26.95 16.25-11.9 12.3-18.85 35.65-6.15 20.8-4.55 59.65 0.85 19.45 2.9 34.7l-4.45-4.95q-2.45-10.3-3.55-26.55-2.25-32.45 4.25-62.4 6.7-30.95 26.7-46.35 10.35-8 23.5-10.95 4.85-1.1 7.85-2.7 3.05-1.6 3.05-3.2"/>
   <path d="m534.1 115.35-3.35 4.65q-9.7-5.4-25.35-10.05-31.2-9.3-60.75-5.5-31.2 4.05-47.75 24.1-9.9 12.05-18.75 38.65-5.3 15.95-5.2 38.1 0.05 11.4 1.15 23.05 0 3.4-4 4.15l-4 0.1q2.15-0.8 2.2-4.95 0.05-2.8-0.75-6.4-1.35-5.85-1.45-18.2-0.1-18.5 4.25-33.2 8.95-30.35 24.75-47.15 18.9-20.1 49.75-23.9 28.95-3.55 55.25 3.2 15.8 4.05 34 13.35"/>
   <path d="m213.2 160.2q21.65 11.4 33.15 28.4 9.5 14.15 14.55 28.95 2.5 7.45 3.3 12.8l1.7 5.55q1.65 3.45 5.4 2.9-0.65 0.65-1.95 1.15-2.55 0.9-5.7 0-2-0.5-2.9-3.2l-1.2-4.35q-1.1-6.25-3.55-13.6-4.85-14.4-14.35-27.25-27.75-37.35-81.65-39.6-25.8-1.05-54.7 15.75-14.4 8.45-23.65 17.1l-3.8-4.65q15-12.7 30.55-20.55 25.85-13.05 51.95-12.65 28.4 0.4 52.85 13.25"/>
   <path d="m506.9 151.9-11.4-7.45q8.75 3.15 18.75 4.9 14.45 2.5 18.6-1.35-0.05 2.75-1.35 5.5-2.5 5.55-8.35 5.65-4.1 0.15-16.25-7.25"/>
   <path d="m524.3 136.15 4.45-10.8 1.8 4.65q3.15 5.7 10.05 11.35l-2 3.75q-2.25 4.6-3.6 9.5-4.4 15.5 1.9 27-2.8-2.65-5.7-6.75-5.9-8.2-6.5-15.5l3.5-1.65q3.6-2.65 4.5-7.6 0.95-5.8-1.7-9.85-2.45-3.75-6.7-4.1"/>
   <path d="m564.2 102.15q-4-2.05-4.45-10.95l0.4-8.4q0 4.25 4.3 10.15 5.65 7.85 14 7.45-2 1.3-4.75 2.15-5.55 1.65-9.5-0.4"/>
   <path d="m350.5 66.45-2.05 2.25-1.75 8.65q-3.3-2.95-5.8-6.25l6.95-6.5 2.65 1.85"/>
   <path d="m361.75 79.4q2-1.1 2.8-4.2l0.55-2.9 8.65 0.9q7.55 0 14.65-2.5l0.9 1.75q1.7 2 5.15 3.3l8.2 3.2q-11.85 9.4-27 9.4-10.25 0-19.35-4.5l1.5-1.55q1.95-1.75 3.95-2.9"/>
   <path d="m417.15 32.2q1.95 6.3 1.95 12.65 0 7.95-2.7 15.25-2.7 7.1-7.6 12.8-1.85-5.7-2.05-7.65-0.15-1.2-1.3-3l-1.15-1.55q5.7-5.6 9-12.8 3.4-7.45 3.85-15.7"/>
   <path d="m333.7 56.45q-1.55-5.45-1.55-11.6l0.1-2.4q1.7 5.95 5.15 10.95l-3.7 3.05"/>
   <path d="m411.3 81-5.05-0.9q-3-0.7-6.6-2.05-7.2-2.7-10.6-5.65t-2.25-7.75l1.9-4.15q-0.4 3.1 2.95 7 5.3 6.25 19.65 13.5"/>
   <path d="m360.5 65.05 2.35 2.3q2.3 2.9 2.35 5.4 0.15 2.8-3.15 6.4-2.45 2.55-8.2 7.1-4.05 3.15-6.55 4.25l-1.7 0.45q10.3-9.9 13.7-17.55 2.4-5.2 1.2-8.35"/>
   <path d="m353.5 38.25q0.15 0.5-0.35 1.2-1.1 1.45-4.4 2.35-3.45 0.95-6.35-0.65-1.6-0.9-4.65-3.95-1.85-1.85-5.45-9l-3.15-6.75 7.95 8.55q9.4 8.5 16.4 8.25"/>
   <path d="m405.15 5.85q-0.15 4.9-0.8 10.5-1.25 11.15-3.7 14.55-3.15 3.75-8.5 2.25l-4.7-2.25q7.4-1 12.95-11.75 3.65-7.05 4.75-13.3"/>
   <path d="m85 217.55 1.3 3.15q1.8 3.35 4.4 4.7 2.7 1.35 5.25 0.8 1.25-0.25 1.95-0.8-0.55 7.25-4.15 17.15-1.8 4.95-3.55 8.4 0.6-6.8-4.8-16.9l-5.55-8.65q2.4-2.4 3.75-4.95l1.4-2.9"/>
   <path d="m99 224.5q-6.1 2.55-10 0.35-3.95-2.1-4.65-8.35l0.15-5.8q0.25 1.45 2.5 3.05 2.75 1.9 6.95 2.7 11.5 2.2 27.35-5.35-8.7 6.45-13.4 8.75-5.5 3.3-8.9 4.65"/>
   <path d="m43.2 178.9q-2.75 0.9-6.05 0.85-6.55-0.05-9-4.75-1.85-3.6-0.05-15.9l2.2-11.65q-0.95 6.45 1.65 16.4 3.5 13.15 11.25 15.05"/>
  </g>
  <g fill="#9f9f9b">
   <path d="m29.8 228q12.9 7.75 24.6 8.2l-2.3 10.45q-13.65-6.25-25.55-17.65l-8.85-9.9q3.8 4.05 12.1 8.9"/>
   <path d="m79.85 225.4 6.55 11.75q5.75 12.65 1.5 16.75-4.25 4.15-13.95 1.9l-8.9-3.05 4.25-2.7q4.4-3.45 5.35-7.25t-1.5-7.4l-2.6-2.8q4.8-2.55 9.3-7.2"/>
   <path d="m609.75 158.25q6.9-7.45 10.05-14.7l-3.45 7.5q-5.7 11.7-11.5 17.25-4.7 6.6-14.7 14-14.9 11-28.65 11.25-13.4 0.25-21.7-8.1-2.6-2.55-4.35-5.7l-1.3-2.65q-3.25-14.05 4.65-31-0.9 1.95-0.15 6.25 0.95 5.3 4.05 9.8 8.7 12.9 29.2 12.7 22.8-0.25 37.85-16.6"/>
  </g>
  <g fill="#0f141b">
   <path d="m347.1 76.65-0.45 3q-3.95-3.3-7.3-7.65l1.8-2.2q2.85 4 5.95 6.85m7.65 8.4 2.15-1.8q8.3 4 18.3 4 15.3 0 26.35-9.15l2.75 1.1q-12.3 10.55-29.1 10.55-11.2 0-20.45-4.7m-20.15-28.6-2.45 2.1q-2.5-7.1-2.5-13.7 0-7.5 3.3-15.6l1.9 3.35q-2.05 6.5-2.05 12.25 0 5.4 1.8 11.6m65.25-49.05-2.25 1.6q-9.95-6.5-22.4-6.5-12.1 0-21.75 5.85-8.35 5.1-13.8 13.9l-2.8-0.85q6-9.5 15.05-15.05 10.35-6.35 23.3-6.35 13.6 0 24.65 7.4m16.9 20q4.15 9 4.15 17.45 0 7.05-2.9 14.7-3.1 8-8.6 14.55l-1-3.2q4.45-5.9 6.9-13.05 2.25-6.75 2.25-13 0-7.65-3.35-15.6-3.6-8.5-9.9-14.8l0.4-3.35q7.65 6.75 12.05 16.3"/>
   <path d="m589.45 158.1q-1.5 1.8-3.55 2.6-2.4 0.9-3.85-0.3-1.4-1.25-0.9-3.65 0.5-2.15 2-4 1.45-1.8 3.5-2.65 2.4-0.95 3.9 0.25 1.4 1.25 0.9 3.75-0.55 2.1-2 4"/>
   <path d="m51.75 248.4q-10.35-5.55-19.35-12.8-9.8-7.95-17.65-17.5l3.15-0.7q7.7 8.75 16.45 15.8 8.55 7.05 18.1 12.45l-0.7 2.75m-18.7-59.55q-14.25-7.05-22.3-6.2-3.35 0.35-5.4 2.25-2.65 2.45-2.2 7 0.6 4.95 4.4 11.45l-1.25 2.75q-3.8-6.75-5.15-12.6-1.8-8.4 6.4-14.55 3.5-2.8 8.4-5.3 5.6-2.85 11.85-4.6l-0.25 3q-5.8 1.7-11.1 4.5-4.35 2.25-6.4 4.05 5.85-0.75 15.25 2.15 16.35 5.05 34.25 19.4 11.65 9.35 20.9 22.05 9.65 13.4 10.4 22.05 2-3.6 3.55-9.55 1.6-6.1 1.85-11.4l2.95-1.2q-0.2 5.15-1.85 11.75-1.75 6.65-4.2 11.7-2.3 4.95-4.8 7.15-2.65 2.25-6.95 2.7-6.95 0.75-18.25-3.65l2.65-1.65q9.5 3.75 15.4 3.1 3.8-0.4 5.9-2.75 1.95-2.4 1.55-6.35-0.8-8.1-10.65-20.65-8.9-11.4-20.45-20.75-11.5-9.4-24.5-15.85m43.45-6.8q-10.7-9.1-24.5-11.55l-1.6-3.1q15.85 2 28 12.3 10.65 9 16.3 22.4l-3.35-0.05q-5.3-11.85-14.85-20"/>
   <path d="m38.2 225.45c-1.2333-1-2.2167-2.05-2.95-3.15-0.86667-1.3-1.0833-2.25-0.65-2.85 0.5705-0.78992 1.9741-0.17978 2.9 0.1 1.3682 0.41341 2.4167 1.25 3.65 2.25 1.2 0.96667 2.1833 2.0167 2.95 3.15 0.86667 1.3 1.2408 2.0164 0.65 2.75-0.60639 0.753-1.9708 0.21703-2.9-0.05-1.3653-0.39236-2.45-1.2333-3.65-2.2"/>
   <path d="m214 368.05 2.05-2.45q12.05 7.4 28.05 13.75 19.35 7.85 36.2 11.7l0.4 3.8q-17.75-4.15-36.9-11.9-17.45-7-29.8-14.9m-22.75-76.7 1.95 3.5q-9.7 13.95-9.5 22.95 0.1 8.25 2.55 15.25 3.35 9.25 11.05 17.55l-2 2.15q-14.45-15.7-14.7-34.85-0.25-11.2 10.65-26.55m165.95-79.4 0.6 3.55q-14.3-1.95-28.45-1.1l-2.4-3.6q14.8-0.9 30.25 1.15m-62.1 5-0.45 4.4q-10.05 3.75-20.9 9.35l-0.8-4.05q11.65-5.9 22.15-9.7m-57.7 31.05q10.7-7.25 22.4-14.15l0.95 3.95q-8.35 4.75-19.8 12.05-15.75 10.3-30.4 24.7l-3.8-1.2q14.35-14.3 30.65-25.35m207.65 102.75-2-3.1q15.3-14 24.55-30.75 10.95-19.7 8.1-34.9-2.05-11.3-16.75-23.5-19.35-16-58.95-32.15-12.8-5.15-27.2-8.3l-0.05-3.4q12.9 2.9 26.3 7.9 35.55 13.5 56.8 29.45 20.4 15.35 23 29.45 3 15.75-8.4 36.75-9.7 17.8-25.4 32.55m-17.65 9 6.35 0.1q-16.85 11.9-37.4 21.5-23.3 10.85-42.75 14.45-15.4 2.85-27.15 3.45-16.05 0.85-32.7-1.8l2.8-3.25q15.45 2.2 30.55 1.3 11.05-0.65 25.6-3.45 17.9-3.25 39.25-12.85 18.8-8.45 35.45-19.45"/>
   <path d="m473.85 274q-0.05-0.35 0.8-0.4 0.75-0.05 0.8 0.25 1.05 10.4-9.25 22.25-10.2 11.55-29.9 22.8-20.45 11.7-46.35 20.15-25.9 8.35-53.85 12.35-46.25 6.6-85.65 2.4-39.25-4.15-57-17.45-9.6-7.2-10.95-16.9-0.75-5.5 1.45-11 0.1-0.35 0.7 0 0.65 0.3 0.5 0.65-1.85 4.75-1 10.05 1.15 8.5 10.4 15.45 17.4 13.05 56.45 17.05 38.95 3.95 84.95-2.6 58.05-8.35 100.05-32.4 18.55-10.65 28.6-21.9 10.1-11.3 9.25-20.75"/>
   <path d="m234.7 375.6q18.2 5.75 44.05 7.55l0.4 1.9q-26.45-2-44.95-7.9-0.3-0.05-0.05-0.85 0.25-0.75 0.55-0.7"/>
   <path d="m422.8 360.4q-32.15 16.55-68 21.7-25.45 3.6-50.7 3.8l1.2-2.1q23.85-0.4 49.3-4 34.85-5.1 65.15-19.85l3.05 0.45"/>
   <path d="m414.65 232.25q-0.05-0.3 0.7-0.55l0.85 0.05q2.05 6.5-1.7 12.25-7.3 11.6-32.2 22-25.1 10.5-56.8 15.05-31.3 4.45-58.15 1.75-26.45-2.65-36.9-11.05-4.95-4.05-5.25-9.6-0.05-1.6 0.2-3.35 0.05-0.3 0.85-0.2 0.8 0.2 0.75 0.55-0.25 1.45-0.2 2.85 0.35 4.5 4.9 8.25 10.1 8.15 36.2 10.55 26 2.3 57.25-2.2 31.6-4.5 56-14.45 24.5-9.95 31.55-21.15 3.5-5.55 1.95-10.75"/>
   <path d="m233.8 252.75 0.9-0.05q0.8 0.25 0.7 0.6-0.55 2.05-0.5 3.85 0.2 3.6 3.8 6.5 8.5 6.85 32.25 8.6 23.85 1.75 53-2.45 36.2-5.2 60.05-16.4 23.75-11.2 22.25-22.25-0.2-1.35-1.5-2.55-1.2-1.15-3-1.8-0.35-0.05-0.1-0.85 0.25-0.85 0.6-0.7 2.1 0.75 3.85 2.55 1.65 1.75 1.95 3.3 1.8 12-22.35 23.85-24.2 11.9-61.55 17.25-29.7 4.2-53.9 2.15-23.85-2-32.75-9.3-4-3.15-4.2-7.8-0.2-2.1 0.5-4.5"/>
   <path d="m269.8 304.25q1.15-0.95 3.85-10.4 2.4-8.35 2.85-11.25 0.05-0.4 1.15-0.4t0.95 0.4q-4.5 21.4-7.25 23.5-1.75 1.45-14.7 7.15-13.4 5.85-14.8 5.45-1.8-0.45-8.8-10.45-7.2-10.3-6.7-12.6 0.5-2.65 2.9-10.05 2.55-7.9 4.35-12.15 0.15-0.3 1 0.55l0.75 0.8q-1.85 4.5-4.35 12.5-2.45 7.95-2.2 8.75 1.4 3.5 6.75 11.6 5.15 7.9 6.75 9.25 2.05-0.45 13.65-5.7 11.8-5.4 13.85-6.95"/>
   <path d="m364.95 283.95q2.45 10 1.8 11.25-0.75 1.55-14.85 11.45-14 9.75-16 10.2-2.3 0.5-18.25-4.75-15.05-4.95-16.85-6.1-1.15-0.8-1.5-12.15l-0.1-11.4q0-0.35 0.95-0.35 0.9 0 0.9 0.35 0 5.4 0.45 12.85 0.45 7.75 0.9 8.95 3.05 1.4 16.6 6.05 14.8 5.1 16.5 4.75 1.7-0.4 15.1-10.2 13.35-9.8 13.8-10.7 0.35-0.75-1.5-9.75-1.8-8.7-2.85-11.75-0.05-0.1 0.8-0.45 0.85-0.4 0.95-0.15 1.15 3.55 3.15 11.9"/>
   <path d="m349.6 275.6q3.15 9.25-0.25 17-3.8 8.75-14.2 10.5-10.2 1.65-16.85-5.9-5.8-6.55-6-15.55l1.6 0.15q0.8 8.05 6 13.8 6.05 6.65 14.7 5.25 10.55-1.65 13.45-11.05 2.05-6.9-0.05-14l1.6-0.2"/>
   <path d="m267.8 282.2q-1.6 10.05-7.2 15.95-5.95 6.3-13.4 4.2-7.45-2.15-9.35-11.2-1.6-7.85 1.35-15.35l1.45 0.9q-2.15 6.9-0.8 13.65 1.7 8.2 7.9 9.8 12.8 3.4 18.65-18.5l1.4 0.55"/>
   <path d="m333.4 278.1q1.2 2.8 2.05 6.95 0.65 3.85 0.45 7.2-0.25 3.9-1.65 4.1-1.45 0.25-3-3.3-1.35-3.05-1.95-6.9-0.65-3.7-0.45-7.1l4.55-0.95"/>
   <path d="m253.7 280.2-0.9 5.35q-0.9 3.85-2.35 6.9-1.65 3.45-2.95 3.15-1.3-0.35-1.2-4.2 0.05-3.3 0.95-7.15 0.85-3.25 1.75-5.45l4.7 1.4"/>
   <path d="m416.5 366.95q0.35-0.15 0.65 0.55 0.35 0.8 0 0.9-31.25 14.15-61.9 18.55-27.6 3.95-55.15 3.65l1.85-1.85q25.9-0.2 53-4.05 32.75-4.8 61.55-17.75"/>
   <path d="m279.85 389.8-17.95-1.85q-0.3-0.05-0.25-0.85 0.15-0.8 0.45-0.75l17.6 1.75 0.15 1.7"/>
   <path d="m621.85 124.05q-0.55-10.65-7.55-17-7-6.45-17.65-5.95-11 0.55-23.65 7.95-11.25 6.4-19.3 15.3-8.3 9.1-13.65 20.7-6.1 13.15-5.55 24.15 0.5 10.65 7.55 17.15 7.1 6.45 17.75 5.9 10.95-0.5 23.65-7.8 11.2-6.55 19.25-15.45 8.1-8.85 13.5-20.55 6.15-13.4 5.65-24.4m-87.1-12.45q10-12.8 24.85-17.8l0.35 2.95q-13.5 4.95-22.7 16.7-8.05 10.3-10.95 23.15l-3.2 0.05q2.9-13.85 11.65-25.05m16.95 10.15q8.3-9.1 20.05-15.5 12.95-6.95 24.55-7.45l6.9 0.45q-9.25-4.8-20.25-5.6l-0.7-2.7q16.95 1.25 29 9.9 13.3 9.6 13.5 24.2 0.1 11.6-6 25.05-5.55 12.1-13.9 21.2-8.6 9.55-19.85 16.15-13 7.6-24.35 8.05-13.2 0.5-23.6-9.35-10.75-10.2-13.9-27.3l3.25-0.45q1.8 7.95 6.1 15.6-0.45-1.9-0.7-4.85-0.55-11.5 5.75-25.55 5.65-12.6 14.15-21.85"/>
   <path d="m368.95 38q3.4-0.4 6.15 1.6 2.85 2 3.5 5.35t-1.35 6.35-5.3 3.65q-26.85 5.05-41 32.5-19.95 38.75-8.6 115.5 0.05 0.45-1.5-0.8-1.45-1.15-1.55-1.6-11.25-77.55 9.7-116.15 14.6-26.75 42.65-32.05 2.45-0.45 4.05-2.6 1.55-2.1 1.1-4.5-0.45-2.45-2.7-3.85-2.2-1.4-4.7-0.9-13.4 2.5-24.55 9.5-14.8 9.25-24.45 25.6-23.15 38.75-14.8 113.2 0.1 0.45-1.2 1.75-1.3 1.35-1.35 0.9-3.65-32.1-2.4-55.1 2.1-37.6 16.4-61.65 10.1-16.95 25.9-26.95 12.95-8.15 26-9.75"/>
   <path d="m540.4 107.05q0.4 0.25-0.4 1.25-0.75 1.1-1.15 0.85-61.95-32.25-118.15-13-39.6 13.65-55.1 61.35-5.9 18.25-7.05 38.3-1 17.55 1.9 29.85 0.6 2.55 2.7 4.25 2.2 1.65 5.4 1.85 2.7 0.2 3.8-1.1 1.35-1.5 0.4-5.85-2.5-10.85-1.7-26.85 0.9-18.2 6-34.85 5.6-18.4 15.4-31.55 12.95-17.4 32.15-23.95 51.2-17.6 107.55 11.2 0.4 0.25-0.2 1.35-0.55 1.15-1 0.95-57.15-26.8-105.55-10.2-32.85 11.3-45.55 53.55-4.8 15.95-5.85 33.75-0.8 15.2 1.2 26.15 1 5.25-0.85 7.45-0.85 0.95-2.65 1.55l-3.65 0.4q-4-0.25-6.8-2.4-2.85-2.2-3.55-5.5-2.75-14.1-1.6-32.15 1.2-20.75 7.4-39.3 15.85-47.7 56.5-61.65 28.65-9.8 59.45-6.15 30.8 3.6 60.95 20.45"/>
   <path d="m275.55 231.6q0.55 3.25-1 5.55-0.95 1.45-2.75 2.55t-3.85 1.55q-2.9 0.6-5.45-0.55-3.15-1.3-3.8-4.45-10.1-47.55-44.9-68.4-22.2-13.3-51-14.1-25.9-0.6-50.95 11.7-16.25 8.05-29.5 20.1-0.3 0.3-1.4-0.6-1.05-0.9-0.7-1.2 13.55-12.45 30.4-20.9 25.85-13 52.2-12.35 29.35 0.75 52.45 14.65 35.75 21.4 46.05 70 0.55 2.5 2.1 3.4 1.75 1.15 4.1 0.7 3.3-0.7 4.95-3.35 1.05-1.6 0.65-3.25-11.5-54.05-51.4-78-25.8-15.4-58.6-16.25-30-0.75-58.95 14.15-18.6 9.6-33.8 23.8-0.3 0.3-1.35-0.85-0.95-1.1-0.65-1.4 15.55-14.6 34.75-24.45 29.75-15.35 60.2-14.6 33.55 0.85 60.1 16.85 40.95 24.55 52.1 79.7"/>
   <path d="m298.6 229.25c1.7667 1.7333 4.0833 2.95 6.95 3.65 2.8333 0.7 5.8833 0.75 9.15 0.15 6.8-1.2667 11.533-3.8667 14.2-7.8 0.86667-1.3333 1.3333-2.7833 1.4-4.35 0.0333-1.5667-0.33333-3.0333-1.1-4.4-2.3-4.1-6.5167-10.267-12.65-18.5-5.9-7.9667-9.0667-11.917-9.5-11.85-0.53333 0.13333-2.25 4.3667-5.15 12.7-3.1667 8.9333-5.1167 15.767-5.85 20.5-0.33333 2.1-0.25 4.0667 0.25 5.9 0.46667 1.6333 1.2333 2.9667 2.3 4m5.55-42.1c1.1-2.2333 2.0833-3.3167 2.95-3.25 0.5 0 1.4833 0.78333 2.95 2.35 3.0333 3.2 7.2 8.3833 12.5 15.55 4.9667 6.7667 8.05 11.3 9.25 13.6 2.0333 3.9 1.85 7.6833-0.55 11.35-1.4333 2.1667-3.5667 4.05-6.4 5.65-2.8667 1.6333-6.2762 2.9146-9.65 3.45-3.4582 0.54883-7.1167 0.60192-10.5-0.3-2.9973-0.79903-6.1333-2.3333-8.2-4.4-1.5333-1.5333-2.55-3.2667-3.05-5.2s-0.51667-4.2167-0.05-6.85c0.56667-3.2667 2.05-8.4667 4.45-15.6s4.5-12.583 6.3-16.35"/>
   <path d="m447.1 256.3q3.95-0.2 4.5 0.95 0.35 0.65-0.7 3.5-1.75 5.15-6.5 14.65-4.7 9.4-7.5 13.45-3.3 4.6-5.75 6.75-3.25 2.75-7.65 3.5-4.6 0.85-10.35-1.55-6.15-2.55-9.5-7.5-3.25-4.9-3.4-11-0.05-4.05 1.15-7.5 1.5-4.25 5.4-7.1 3.3-2.35 7.7-3.5 4.25-1.2 18-3l14.6-1.65m-2.5 13.05q5.4-10.8 5-11.2l-13.1 1.55q-13.45 2-21.45 3.8-3.5 0.75-6.45 3-3.35 2.6-4.5 6-1.1 3.15-1 6.55 0.05 5.2 3 9.6 2.85 4.25 7.95 6.35 4.8 1.95 8.9 1.2 4-0.7 6.6-2.8 2.25-1.85 5.05-6 4.2-6.35 10-18.05"/>
   <path d="m202.1 298.9q2.65-0.25 5.3-1.95 2.65-1.75 4.5-4.4 3.85-5.5 3.65-11.05-0.05-2.4-1.45-3.85-1.35-1.4-4.4-2.3-6.5-1.9-19.25-4.05-12.3-2.1-12.6-1.65t6.15 10.25q6.35 9.7 10.65 15.4 1.8 2.4 3.15 3.1 1.55 0.8 4.3 0.5m-24.85-26.4q-1.2-2.65-0.85-3.55 0.55-1.2 3.8-1 3.75 0.1 15.15 1.9 11.6 1.9 15.2 2.9 7.4 2.15 7.6 8.7 0.1 6.65-4.15 12.7-2.15 3.05-5.3 5.05-3.15 1.9-6.3 2.25-3.45 0.35-5.75-0.8-2-1-4.05-3.7-2.25-3-8.2-12.5-6.1-9.7-7.15-11.95"/>
   <path d="m422.6 329.95q3.35 0.8 5.95 2.4 1.9 1.2 5.3 4.25l7.1 7.2q5.95 6.5 8.75 10.4 1.4 2.05 1.2 2.95-0.25 1.15-3.15 1.8-4.35 1.05-13.05 1.9l-11.95 0.9-8.05-0.55q-3.45-0.8-6.2-3.35-3.35-3.05-4.15-8.25-0.65-4.4 0.65-8.55 2.15-7.1 7.9-9.9 4.75-2.4 9.7-1.2m9.6 8.7q-5.45-5-10.1-6-3.65-0.8-6.85 0.4-5.35 1.85-7.55 8.8-1.1 3.75-0.65 7.35 0.55 4.3 3.35 6.85 2.15 2 5.6 2.65l6.75 0.5 14.85-1 11.4-1.5q0.05-0.3-6-7-6.5-7.05-10.8-11.05"/>
   <path d="m281.4 366.5q-2.35 3.45-1.9 12.95 0.15 3.75 2.35 14.4 2.1 10.35 2.55 10.5 0.5 0.15 8.15-7.45 7.8-7.65 9.35-9.85l3.7-5.5q2.15-3.75 1.9-6.5-0.35-3.3-3.15-6.05-2.85-2.9-7.45-4.5-4.2-1.4-8.5-1.15-5.1 0.35-7 3.15m-4.3 12.95q-1.2-9.7 1.85-14.2 2.55-3.8 8.2-4.5 4.9-0.65 10.55 1.1 5.15 1.6 8.7 5.3 3.55 3.6 3.85 7.55 0.3 3.1-2.25 7.75l-4.2 6.15q-1.65 2.3-6.9 7.5-5.6 5.55-9.65 8.7-2.65 2-3.75 1.5-0.75-0.35-1.65-3.05-1.55-4.5-3.15-13-1.25-6.65-1.6-10.8"/>
   <path d="m199.4 351.2q-1.4 0.05-2.05 0.55-0.55 0.45-1.4 2.15-2.45 4.5-6.3 14.7-3.85 10.1-3.4 10.5 0.45 0.35 11.35-4.25 11.25-4.85 15.45-7.35l1.6-1.2 0.35-1.15q0-1.9-1.65-4.6-1.5-2.7-3.7-4.75-2.15-2.05-5-3.35-3-1.35-5.25-1.25m-2.3-2.35 2.45-0.45q2.75-0.05 6.15 1.45 3.5 1.55 5.95 3.85 2.95 2.8 4.8 6.85 2.05 4.65 0.7 7.1-1.1 1.9-12.2 6.7-10.4 4.4-16.65 6-4.6 1.2-3.6-3.5 1.15-5.4 5.15-15.3 3.6-9 4.9-10.7 1.05-1.45 2.35-2"/>
   <path d="m294.95 397.1 2.65 0.2q0.95 11.6 1.9 17.85 0.8 4.8 1.3 4.95t4.2-4.3q5.05-6.1 13.5-18.2l2.35 1.15q-11.65 16.7-17.55 21.85-2.2 1.9-3.2 1.55-0.7-0.3-1.55-2.5-2.2-5.7-3.6-22.55"/>
   <path d="m395.8 380.1 2.6-0.55q1.8 20 0.55 27.7-0.45 2.9-1.45 3.2-0.6 0.15-2.4-0.75-4.8-2.5-15.35-10.9l-9.8-8q-0.3-0.25 0.8-1.15t1.4-0.65q3.65 3.45 14 11.55 10.25 8.05 10.75 7.9 0.45-0.05 0.05-10-0.35-9.45-1.15-18.35"/>
   <path d="m476.7 280.45 0.5-2.7q7.25 2.15 13.2 4.85 2.35 1.15 2.5 2.25 0.05 0.75-1.3 2.35-2.2 2.6-8.15 6.95l-6.05 4.2q-0.4 0.2-0.85-1.15-0.4-1.35-0.05-1.5 2.1-0.95 8.35-5.6 6.25-4.55 6.1-5-0.3-0.9-14.25-4.65"/>
   <path d="m427.1 228.35q10.2-3.1 14.7-3.8l3.4 0.25q0.5 0.6 0.1 2.95-0.95 5.8-3.8 16.2-0.25 0.6-2.3-0.95l2.75-9.4q1.95-7.25 1.7-7.5-0.2-0.25-10.75 2.9-10.1 3-13.15 4.15l-1.3-0.75q-1.15-0.9-0.85-1.1 0.25-0.25 9.5-2.95"/>
   <path d="m242.3 241.15 4.55 2.7q0.35 0.3-0.35 1.15-0.75 0.75-1.1 0.5l-4.5-3.2q-3.05-1.95-3.35-1.75-0.85 0.45-0.5 11.1 0.05 0.45-1.05 0.45-1.1 0.1-1.15-0.35-0.2-5.55 0.45-9.15 0.55-3.4 1.6-3.8 0.75-0.3 5.4 2.35"/>
   <path d="m33.7 143.3 6.15 7.05 11 14.85q1.8 2.8 2.2 4.85 0.5 2.95-1.4 5.25-3.4 4.05-9.65 5.4-6.95 1.4-11.65-1-2.65-1.45-3.6-3.6-0.9-1.95-0.75-5.05 1.85-19.7 3.85-26.8 0.7-2.65 1.45-2.75 0.65-0.05 2.4 1.8m-1.95 0.4q-0.35 0.1-1.65 10.25-1.35 10.35-1.75 17l-0.05 1.25q0 2.2 0.7 3.35 0.65 1.15 2.4 2.05 3.9 2 10.15 0.75 5.7-1.2 8.2-4.25 1.35-1.6 1.1-3.25-0.2-1.6-2.15-4.5l-10.35-14.5q-6.2-8.35-6.6-8.15"/>
   <path d="m85.7 203.85q3.3-4.25 9.2-2.9 4.45 0.9 14.7 4.2 12.75 4.15 12.75 5.9 0 1.6-10.65 7.75-7.5 4.25-12.95 6.95-2.65 1.3-4.5 1.55-2.45 0.25-5.05-1-2.85-1.45-4.6-4.6-1.7-3.2-1.85-7.3-0.25-6.65 2.95-10.55m5.2-0.9q-1.85 0.25-3.35 2.1-2.75 3.5-2.5 9.2 0.15 3.65 1.5 6.25 1.35 2.65 3.7 3.8 1.95 0.95 4.7 0.3l3.7-1.3q1.2-0.45 11.25-6.1 10-5.65 10-5.9 0-0.3-9.75-3.45-10.3-3.35-15.55-4.6l-3.7-0.3"/>
   <path d="m561.55 78.7q-0.7 11.3-0.6 13.8 0.15 3.35 0.85 5.15 0.85 2 2.9 3.3 3.6 2.1 9.2 0.55 5.5-1.45 6.8-5.45 1.15-3.4-1.05-6.95-1.2-2-8.8-11.95-7.9-10.35-8.2-10.15-0.4 0.2-1.1 11.7m-3.1 14.15q0.6-17.95 2.3-24.85 0.65-2.55 1.7-2.55 0.75-0.05 2.45 1.6 3.15 3.1 9.3 10.8l7.6 9.95q1.85 2.6 2.05 5.35 0.1 2.3-0.9 4.2-1.15 2.15-3.3 3.85-2.35 1.85-5.25 2.6-2.9 0.8-5.9 0.6-3.05-0.25-5.15-1.4-4.95-2.8-4.9-10.15"/>
   <path d="m496.8 144.45q0 0.4 6.8 4.2 7.5 4.15 14.35 7.3l1.05 0.5q3.15 1.5 4.75 1.5 2.65 0.05 5.35-2.75 2.35-2.5 2.55-6.65 0.3-4.75-1.8-8.1-1.55-2.45-4.55-2.8l-6.85 0.65q-6.35 1.2-14.25 3.5-7.4 2.2-7.4 2.65m11.4-6.1 10.15-2.5q4.1-0.85 6.8-0.55 4.65 0.6 6.75 4.25 2.3 4.2 2.05 9.2-0.25 4.75-3.05 7.8-3.35 3.45-6.85 3.7-2.5 0.15-5.9-1.4-3.1-1.4-10.95-5.8-9-5-11.35-7-1.35-1.1-1.4-1.65-0.1-0.9 1.9-1.95 3.6-1.85 11.85-4.1"/>
  </g>
  <path d="m590.6 114.6q5.9-4.1 10.9-1.5 3.8 1.95 5.25 6.1 0.95 2.9 2.25 11.3 1.25 8.85 0.6 9.6-0.45 0.45-5.65-1.25-5.6-1.8-10.15-4.05-3.65-1.75-5.2-3.2-2.3-2.15-2.75-5.35t0.95-6.6q1.4-3.3 3.8-5.05" fill="#c9c9c4"/>
  <path d="m586.35 121.05 2.25-4.65q-1.05 2.85 3.55 9.2 6.05 8.45 17.75 14.65-4.35-0.9-9.3-2.55-9.8-3.3-12.95-7-3.15-3.75-1.3-9.65" fill="#9f9f9b"/>
  <g fill="#0f141b">
   <path d="m584.35 126.65q-0.95-7.6 4.85-12.75 2.5-2.1 5.85-2.9 3.15-0.75 5.45-0.05 2.7 0.85 4.8 2.95 2.15 2.05 2.95 4.6 0.75 2.25 1.5 8.65 0.85 6.5 0.9 10.7 0.05 2.7-0.7 3.15l-2.5-0.3q-3.05-0.55-7.9-2.1-4.6-1.5-6.4-2.4-3.95-1.9-5.85-3.7-2.5-2.45-2.95-5.85m3.05-6.45q-1.3 3.25-0.65 6.4 0.5 2.6 2.6 4.55 1.75 1.55 5.15 3 4.05 1.8 9.4 3.6 4.9 1.7 5 1.45-1.8-16.15-3.25-20.1-1.9-4.6-6.3-5.85-4.05-1.15-8.7 2.35-2.1 1.65-3.25 4.6"/>
   <path d="m340.25 21.3 8.1 1.65q2.6 0.7 4 1.55 1.6 0.95 2.85 2.65 1.55 2.1 1.45 5.25 0 3.1-1.6 5.6-1.55 2.45-4.05 3.85t-5.4 1.35q-2.35-0.05-4.25-1.1-1.9-1-3.85-3.45-1.9-2.35-4.7-7.3t-3.95-8q-0.8-1.95-0.55-2.5 0.35-0.85 2.8-0.8l9.15 1.25m10.35 5q-1.25-0.6-3.9-1.4l-9.25-2.1q-7.25-1.4-7.55-1.05-0.25 0.45 3.05 6 3.55 5.85 6.3 9.4 1.8 2.25 3.25 3.1 1.3 0.65 3.1 0.7 4.95 0.15 7.55-4.05 1.25-2.05 1.35-4.35 0.05-2.4-1.2-4.05-0.9-1.3-2.7-2.2"/>
   <path d="m405.05 4.65q0.85 0.35 0.8 2.5-0.05 3.8-0.85 9.65l-1.2 8.15q-1.15 6.05-3.35 7.95-1.8 1.5-4.25 1.9-3.75 0.6-7.5-1.65-2.7-1.65-4.35-3.9-1.6-2.3-1.7-4.7-0.15-3.15 1.65-5.8 1.05-1.4 3.35-3.45 1.8-1.6 6.05-4.65 4.9-3.45 8.4-5.3 2.15-1.1 2.95-0.7m-1.45 8.45q0.9-6.75 0.65-6.95-0.2-0.25-5.95 3.75-5.9 4.1-9.3 7-4.05 3.4-4.05 7.15 0 4.15 4.9 7.15 2.75 1.65 5.6 1.4 2.15-0.25 3.5-1.4 1.95-1.75 2.9-6.75l1.75-11.35"/>
   <path d="m362.45 77.25q1.95-2.15 1.15-5.75-0.85-3.8-3.8-5.4-3.15-1.6-6.35-0.6-2.25 0.85-3.35 2.6-1.15 1.85-2 6l-1.6 10.45-0.65 5.9q0.2 0.3 7.55-5.45 7.3-5.8 9.05-7.75m-9.65-14 4.1-0.4q2.2 0.3 4.15 1.25 1.8 0.95 3.15 2.95 1.35 1.95 1.8 4.2 0.35 2.05-0.15 4.05-0.5 1.9-1.75 3.3-1.6 1.95-6.9 6l-9.2 6.35q-2.35 1.45-3.1 0.7-0.5-0.5-0.45-2.5 0.15-4.7 0.9-10.55 0.9-7.35 2.25-10.6 1.55-3.5 5.2-4.75"/>
   <path d="m388.85 58.2q2.65-2.6 6.2-3.25 3.1-0.5 5.45 0.65 4.9 2.3 7.1 8.9l2.05 6.85 1.85 7.7q0.3 2-0.15 2.4-0.5 0.45-2.6 0l-8.55-2.55-5.1-1.8q-3.4-1.45-5.25-2.8-3.3-2.25-4.15-5.15-0.75-3 0.35-6.35 0.95-2.7 2.8-4.6m10.8-0.6q-1.9-0.9-4.35-0.45-2.85 0.5-4.95 2.75-1.4 1.55-2.1 4.05-0.8 2.6-0.2 4.65 0.65 2.25 2.95 3.9 1.6 1.15 4.9 2.6l9.1 3.5q4.85 1.75 5.15 1.5 0.3-0.2-1.35-5.4l-3.1-9.3q-2-6-6.05-7.8"/>
   <path d="m467.5 267.95-0.05-1.6q0-0.35 0.75-0.4t0.85 0.25q1 8.35-6.3 18.4-7.3 10.1-21.55 20.05-31.9 22.25-80.8 33.8-0.5 0.15-0.85-0.3-0.65-0.9-11.9-10.8-11.3-10.1-11.6-9.9-0.4 0.1-5.8 11.25-5.45 11.05-7.15 15.15-0.2 0.45-0.7 0.45-37.2 4.1-69.1 1.1l-0.65-0.45q-2-4-6.7-15.5l-4.25-10.15q-0.25-0.05-6.3 7.8l-10 13.05q-0.35 0.45-0.9 0.3-17.25-4.65-26.95-12.55-9.65-7.75-10.8-17.8-0.35-3.7 0.6-7.7l0.9-1.25 0.85-0.9q-0.6 2.1-0.8 4.95-0.2 2.8 0.15 4.7 2.8 18.9 35.45 27.85 10.9-14 15.25-18.5 2.4-2.45 3.2-2.15 0.8 0.25 5.3 10.7l6.85 15.5q30.35 2.95 66.75-1 2.45-5.5 7.05-14.7 6.1-12.15 7.2-12.4 1.05-0.25 12.1 9l13.25 11.5q46.1-10.55 77.45-31.55 13.9-9.4 21.55-18.9 7.65-9.45 7.65-17.3"/>
   <path d="m264.6 252.3q1.15-0.2 3.65 2 0.8 0.85 0.8 1.3-0.05 0.85-4.5 2.35-2.75 1-3.2 0.4l-0.2-0.55 0.1-0.85q0.45-1.25 1.45-2.7 1.2-1.85 1.9-1.95m1.95 1.95q-1.3-0.9-1.75-0.85-0.45 0-1.8 2.05-1.3 2.05-1.1 2.35 0.2 0.25 3.05-0.9l2.8-1.45-1.2-1.2"/>
   <path d="m297.5 257.2q0.85 0.15 1.05 0.5 0.15 0.4-0.3 1.25-1.25 2.3-2.65 3.5-0.7 0.75-1.35 0.75-0.95-0.1-2.25-1.55-1.25-1.35-1.25-2 0-0.6 0.65-1.4t1.35-1.05l2.05-0.2 2.7 0.2m-1.2 3.1q1.55-1.9 1.4-2.15l-2.15-0.1-2.45 0.2q-1.3 0.75-1.25 1.35l1 1.4 1.45 1.2q0.5 0 2-1.9"/>
   <path d="m341.55 249.25-2.3 0.15q-0.15 0.3 1.1 2.2 1.2 1.95 1.45 1.95t1.15-1.95q1-2 0.85-2.2l-2.25-0.15m1.7-0.85q1.45 0.1 1.5 0.85 0.1 0.5-0.6 2.1l-1.35 2.45q-0.85 1.15-1.8 0.2l-1.1-1.3q-1.9-2.75-1.55-3.6 0.25-0.75 2.65-0.85l2.25 0.15"/>
   <path d="m326.9 235.1 1.5-0.45 1.7-0.2q0.4 0.1 0.8 1.8 0.65 2.65 0.2 3.1l-1.2 0.7-1.5 0.3-1.7-1.3-1.6-1.85q-0.25-0.5-0.05-0.9 0.3-0.55 1.85-1.2m2.65 0.35q-0.25-0.05-1.95 0.45-1.75 0.55-1.8 0.75l1.3 1.4 1.55 1.2 0.95-0.1 0.85-0.4-0.35-1.65-0.55-1.65"/>
   <path d="m347.9 219.65q1.5-2.1 2.45-1.85 0.55 0.1 1.9 2.05l1.45 2.45q0.2 0.45-0.05 0.75l-3.85 0.45q-1.9-0.05-2.45-0.45-0.4-0.5-0.05-1.8 0.25-1.15 0.6-1.6m0.85 0.65-0.45 1.15q-0.25 0.85-0.1 0.9l4.8 0.25q0.05-0.25-2.9-3.65-0.2-0.05-0.7 0.5l-0.65 0.85"/>
   <path d="m215.45 317.7q-0.6-0.15-0.65-0.85l-0.1-0.7q0-1.55 0.4-3.45 0.45-2.15 0.95-2.45 0.6-0.6 2.7 0.5 3.05 1.65 3.05 2.9 0 0.75-1.15 1.65t-2.8 1.7q-1.8 0.9-2.4 0.7m5.25-4.05-0.7-0.8q-0.85-0.7-2-1.25l-1.3-0.4q-0.25 0.15-0.75 2.85-0.45 2.7-0.2 2.85t2.55-1.25q2.35-1.5 2.4-2"/>
   <path d="m291.5 328.05q-0.35 0.7 0.95 3.1 1.15 2.25 1.55 2.25 0.25 0.05 1.1-2.55l0.9-3.25-2.45-0.15q-1.8 0.15-2.05 0.6m-0.6 2.25q-0.85-2-0.3-2.85 0.7-1.15 3.75-1.15 2.15 0 2.6 0.65 0.3 0.45-0.2 2.25l-0.7 2.1q-1.05 2.7-1.85 3-0.8 0.15-1.8-1.2l-1.5-2.8"/>
   <path d="m384.3 301.7q0.45-0.6 1.85-1.05l1.8-0.25 1.8 2.25q1.45 2.1 1.55 2.95 0.1 0.6-0.2 0.85l-3.3 0.1q-2.65-0.45-3.1-0.9-0.5-0.45-0.65-1.85-0.2-1.45 0.25-2.1m3.2-0.25-1.2 0.3q-0.9 0.3-1.1 0.6l-0.1 0.75q0 1.4 0.3 1.75l2.65 0.7 2.45 0.25-1.25-2.05-1.75-2.3"/>
   <path d="m451.1 322 2.3 0.25q0.2-0.1-0.1-2.3-0.4-2.15-0.6-2.2-0.25-0.05-3.7 3.65 0 0.2 2.1 0.6m1.2-5 1 0.05q0.3 0.4 0.65 1.85l0.35 2.5v1.45q-0.2 0.35-1.15 0.35-2.1 0.15-4.3-0.75-0.85-0.45-0.9-0.9 0-0.65 1.8-2.5 1.8-1.75 2.55-2.05"/>
   <path d="m394.6 341.95-1.55 0.1-1.5 0.35-0.25 0.8-0.05 1.05q0 0.3 2.75 2.75 0.2-0.05 0.45-2.5l0.15-2.55m-3.65-0.55q0.75-0.45 3.2-0.45 1.45 0 1.45 1.25 0.15 2.3-0.55 4.7l-0.6 0.95q-0.45 0.2-1.35-0.35l-1.7-1.45q-1.2-1.1-1.25-1.7-0.3-2.15 0.8-2.95"/>
   <path d="m344.45 372.45-2.65-0.2q-0.05 0.4 2.45 3.6 2.85-2.55 2.75-2.8l-2.55-0.6m3-0.3q0.6 0.3 0.6 0.7 0 0.5-1.2 2.05l-2.1 1.95q-0.6 0.3-1.05 0l-1.3-1.6-1.25-2.25q-0.7-1.7 0.85-1.7l2.95 0.35 2.5 0.5"/>
   <path d="m239.3 363.35q0.3-0.6 2.15-0.85l2.9-0.15q1.85 0.2 2.15 1.05 0.35 1.05-0.4 3.35-0.8 2.2-1.55 2.5-0.85 0.5-3.55-2.45-2.3-2.65-1.7-3.45m6.15 0.45q-0.3-0.45-2.85-0.4-2.5 0-2.55 0.4 0 0.3 1.95 2.3l2.15 2.05q0.4 0 1.3-4.35"/>
  </g>
  <path d="m24.65 223.2q-1.7 3.8-9.15 5.9-6.85 2-7.65 0.95-0.7-1.05 1.5-7.95 2.45-7.45 5.7-8.15 3.65-0.8 7.25 2.9 3.55 3.65 2.35 6.35" fill="#c9c9c4"/>
  <path d="m22.7 218.1q1.7-0.45 2.2 2.45 0.45 2.75-0.4 3.75-2 2.1-9.45 4.1l-7 1.55q11.3-7.6 14.65-11.85" fill="#9f9f9b"/>
  <path d="m22.3 215.55q2.35 2.05 3.05 4.15 0.4 1.3 0.3 2.65-0.05 2.2-1.45 3.3-3.55 2.6-10 4.3-6.1 1.55-6.85 0.5-1.1-1.55 1.65-8.95 2.85-7.55 5.5-8.45 2.15-0.8 4.05 0 1.8 0.65 3.75 2.5m1.3 4.75q-0.55-1.65-2.5-3.45-1.65-1.65-3.15-2.15-1.55-0.55-2.7 0-1.65 0.8-4.55 7.25-2.85 6.4-2.2 7.5 0.2 0.3 5.45-1.45 5.55-1.8 8.2-3.35 1.4-0.8 1.7-1.9 0.25-0.95-0.25-2.45" fill="#0f141b"/>
  <path d="m30.05 203.5q0.7 2.7-0.15 5.15-1.4 4-7.85 6.95-5.6 2.5-13.15 4.7-7.55 2.25-8.05 1.6-0.45-0.5 2.7-8.95 2.95-7.9 4.35-10.7 3.35-6.65 8.5-7.9l5 0.3q2.6 0.9 5.05 3.15 2.75 2.5 3.6 5.7" fill="#c9c9c4"/>
  <path d="m26.8 197.6 1.95 2.4q1.85 2.55 1.85 3.65l0.1 5.1q-1.1 4.15-7.15 6.75-5.9 2.55-14.8 4.85l-7.7 1.75q15.95-8.75 22.5-16.65 4.6-5.55 3.25-7.85" fill="#9f9f9b"/>
  <path d="m27.4 196.7q3.1 2.75 3.9 6.55 0.75 3.15-0.25 5.85-1.7 4.75-8.35 7.65l-8.85 3.15q-7.45 2.4-11.05 2.85l-2.6-0.2q-0.45-0.5 0.15-2.95 1-3.95 3.35-10.25 1.95-5.5 3.05-7.8 1.6-3.35 3.55-5.3 2.4-2.45 5.8-3.35 2.55-0.65 5.6 0.4t5.7 3.4m1.65 11.65q0.4-1.05 0.4-2.5 0-4.05-3.65-7.4-4.75-4.3-9.2-3.2-4.75 1.2-7.9 7.35-1.35 2.8-4.3 10.5-3.15 8.05-2.9 8.35 0.25 0.4 7.7-2.05 7.8-2.5 12.5-4.65 5.95-2.6 7.35-6.4" fill="#0f141b"/>
  <path d="m51.4 239.2 1.7 2.45q1.55 2.8 1 4.6-0.75 2-6.4 5.55-5.45 3.45-6.3 2.9-0.95-0.6-0.7-6.65 0.25-6.35 2.15-8.9 1.7-2.35 5.3-1.35 1.8 0.45 3.25 1.4" fill="#c9c9c4"/>
  <path d="m70.15 248.95q-5.45 3.8-12.15 7.75-7.05 4.05-7.65 3.6-0.5-0.45 0.95-9.25 1.35-8.3 2.25-11.45 1.1-3.95 1.7-5.05 1.15-2.25 3.8-3.45 4.8-2.25 10.4 1.15 3.25 2 4.6 4.85 1.25 2.35 0.8 4.95-0.4 2.55-1.3 3.9-0.95 1.35-3.4 3" fill="#c9c9c4"/>
  <path d="m43.2 238.1q2.05-1.15 5.55-0.05 3.25 1 4.1 2.55 0.95 1.9-0.85 8.05l-10.45 6.05q-0.35-3.75-0.25-7.65 0.1-7.9 1.9-8.95" fill="#9f9f9b"/>
  <path d="m69.4 232.45 3.2 2.55q3.1 3.35 2.35 7.3-0.6 3.6-5.3 7.4-3.4 2.7-10.6 6.75-4.9 2.75-7.3 3.5l-1.4 0.25q11.9-8.9 16.95-18.1 4.15-7.35 2.1-9.65" fill="#9f9f9b"/>
  <path d="m70.1 231.05q3.2 2 4.85 5 1.7 3.1 1.2 6.1-0.45 2.65-1.65 4.45-1.15 1.65-3.6 3.4l-8.2 5.25q-6.35 3.8-10.25 5.35-2.25 0.85-2.75 0.4-0.4-0.4-0.3-2.5 0.1-3.75 1.4-10.95l1.8-9.1q0.75-3.15 1.8-4.85 1.4-2.45 4.1-3.7 2.5-1.2 5.6-0.85 3.15 0.25 6 2m2.7 5.65q-1.45-2.2-3.85-3.65-5.15-3.15-9.55-1.1-2.1 0.95-3.35 3.35l-1.6 4.55q-0.65 2.2-2.15 10.9-1.5 8.55-1.35 8.85 0.1 0.25 7.05-3.95l11.65-7.4q4.15-2.95 4.4-7.45 0.15-1.9-1.25-4.1" fill="#0f141b"/>
  <path d="m43.3 237.25q0.9-0.55 2.4-0.5 2.55 0.05 4.95 1.35 1.95 1.05 3.05 2.3 0.25 0.35-0.45 0.9-0.7 0.6-0.95 0.3-0.85-1.05-2.45-1.95-2-1.05-4.15-1.1-1.15 0-1.8 0.6-0.5 0.5-0.9 1.8-0.55 2.15-1.15 13.1l3.85-2.5 6.5-4.9q0.4-0.3 0.25 1.1-0.05 1.35-0.7 1.8-8.85 7.15-10.85 5.9-0.85-0.5-0.5-7.05 0.3-6.55 1.35-9.05 0.55-1.5 1.55-2.1" fill="#0f141b"/>
  <path d="m585.05 177.6q2.8 0.8 7.85 8.95 4.95 8.05 4.3 10.05-0.25 0.8-7 0.05-7.25-0.8-13.75-2.7-2.7-0.85-3.25-2.15-0.55-1.05 0.05-4.2 0.7-3.6 4.1-7.1 3.85-3.95 7.7-2.9" fill="#c9c9c4"/>
  <path d="m575.1 193.8q-2.75-1.4-2.9-4.3-0.2-3.05 2.85-5.9 3.65 4.2 10 7.7 5.75 3.15 12.3 5.15l-10.25-0.65q-9.25-0.5-12-2" fill="#9f9f9b"/>
  <path d="m626.8 163.4q-21.5-3.7-20.85-11 0.4-4.85 4.45-8.55 4.1-3.75 8.5-2.7 3.85 1.05 6.45 11.4 2.45 9.75 1.45 10.85" fill="#c9c9c4"/>
  <path d="m609.35 146.45q1.05 2.3 9.2 9.9l8 7.05q-4.2-0.55-10.5-3-5.25-2.15-6.9-3.2-3.65-2.55-2.3-7.4 0.5-1.7 1.4-2.85 0.85-1.1 1.1-0.5" fill="#9f9f9b"/>
  <path d="m556.45 159.35q2.45-0.1 4.4 1 1.8 0.95 3.65 3.3 2.9 3.75 6.25 10.5 3 6.25 2.75 7-0.2 0.65-7.35 0.7l-10.6-0.55q-6.65-1.1-8.75-5.35-1.85-3.8 0.35-9.5 1.4-3.85 4.15-5.55 2.1-1.3 5.15-1.55" fill="#c9c9c4"/>
  <path d="m570.8 181.5q-3.4 0.55-9.6 0.15-6.35-0.6-8.7-1.45-3.25-1.1-5.35-4.05-1.85-2.65-0.7-7.4l1.45-4.25q-0.65 3.1 3.25 6.65 6 5.5 21.85 9.7l-2.2 0.65" fill="#9f9f9b"/>
  <g fill="#0f141b">
   <path d="m564.7 165.4q-1.35-2.2-3.35-3.55-2-1.25-4.05-1.4-5.85-0.25-9 5.75-1.05 1.9-1.15 4.65-0.05 3 0.95 5.1 0.95 2 2.65 2.75 1.15 0.55 4.55 1.1l11 0.9q6.1 0.25 6.3-0.05 0.2-0.2-2.7-5.8-2.95-5.85-5.2-9.45m8.55 12.65q0.9 2.55 0.7 3.15-0.3 1.05-3 1.25-3.35 0.25-9.4 0l-6.7-0.45q-3.55-0.6-5.2-1.4-2.3-1.2-3.55-3.7-1.35-2.55-1.15-6.1 0.05-3.25 1.3-5.5 2-3.95 5.5-5.8 2.8-1.5 5.8-1.4 2.4 0.1 4.9 1.7 2.45 1.7 4 4.25l3.2 6q2.35 4.75 3.6 8"/>
   <path d="m572.9 185.15q2.85-6.2 7.8-7.9 2.3-0.8 4.35-0.45 2.4 0.35 3.85 2.25 1.95 2.45 4.85 7.4 2.75 4.75 3.6 7 0.85 2.15 0.4 3.05-0.4 1-2.2 1.1-4.3 0.35-12.4-1.2t-10.25-3.15q-2.8-2.05 0-8.1m20.05 3.85q-3.75-6.6-5.3-8.5-1.35-1.45-2.65-1.8-1.35-0.35-3.2 0.35-4.05 1.45-6.5 6.2-2.3 4.45-0.85 5.95 1.6 1.6 11.85 3.45 9.9 1.8 10.2 1.3 0.25-0.35-3.55-6.95"/>
   <path d="m619.25 142.4q-1.35-0.7-3.9 0.05-2.75 0.8-4.75 2.95-1.95 2.05-2.7 4.75-0.65 2.4-0.4 3.5t1.85 2.2q3.15 2.25 10.1 4.85 6.3 2.4 6.75 2.15-2.1-10.8-4.1-16.3-1.25-3.3-2.85-4.15m7.6 14.45q1.2 6.55 0.65 7.2-0.95 1.05-8.9-1.6-7.8-2.65-11.05-5.1-1.7-1.35-2.1-3t0.3-4.7q1-4.05 4.2-6.75 2.9-2.45 6.35-2.9 2.75-0.35 4.3 0.7 1.7 1.2 3.15 4.8 1.8 4.35 3.1 11.35"/>
  </g>
 </g>
</svg>
