<?xml version="1.0" encoding="UTF-8"?>
<!-- Created with Inkscape (http://www.inkscape.org/) -->
<svg version="1.1" viewBox="0 0 168.34 172.77" xmlns="http://www.w3.org/2000/svg">
 <g transform="translate(-15.156 -34.662)">
  <g transform="matrix(.8028 -.030092 -.030092 -.8028 64.658 122.85)">
   <path d="m0 0c0.96 4.008 3.355 8.901 5.104 13.723 3.016-3.578 5.577-9.696 6.467-13.053 0.828 0.459 2.328 2.867 2.912 4.197-2.226 13.31-12.109 33.269-12.97 50.063-7.808-17.365-10.618-42.648-10.068-53.941 0.491 3.641 1.753 6.638 2.861 8.498 1.793-2.445 4.921-7.951 5.694-9.487" fill="#767cba"/>
  </g>
  <g transform="matrix(.8028 -.030092 -.030092 -.8028 76.139 118.51)">
   <path d="m0 0c-0.584-1.33-2.084-3.739-2.912-4.197-0.89 3.357-3.452 9.475-6.467 13.053-1.75-4.823-4.145-9.715-5.104-13.723-0.773 1.535-3.901 7.042-5.695 9.486-1.107-1.859-2.37-4.856-2.86-8.497 0.206-4.217 0.299-12.117 9.454-15.158-2.677-22.417-19.961-39.882-26.787-45.188-1.677-1.303-1.281-2.207-0.097-1.837 11.341 3.543 28.376 22.555 31.966 46.601 8.751 1.695 9.527 13.335 8.502 19.46" fill="#515457"/>
  </g>
  <g transform="matrix(.8028 -.030092 -.030092 -.8028 182.79 126.46)">
   <path d="m0 0c-9e-3 0.815-0.1 1.775-0.26 2.85-0.853-1.294-2.386-3.778-3.154-5.794-0.554 3.154-3.849 10.538-5.715 13.12-0.842-3.801-3.824-10.213-5.053-12.231-1.386 2.557-3.345 6.426-5.158 7.991-1.203-2.19-2.251-4.115-2.914-6.041-0.265-1.803-0.415-3.161-0.39-3.932 0.15-4.673 3.339-9.709 8.922-13.076-0.109-10.141-8.931-31.572-15.581-38.163-1.245-1.234-0.54-1.937 1.468-0.506 11.877 8.466 17.408 24.175 20.196 38.561 5.348 2.926 7.723 9.304 7.639 17.221" fill="#515457"/>
  </g>
  <g transform="matrix(.8028 -.030092 -.030092 -.8028 171.46 128.54)">
   <path d="m0 0c1.228 2.018 4.211 8.43 5.052 12.231 1.867-2.582 5.162-9.967 5.716-13.12 0.767 2.016 2.301 4.5 3.154 5.794-1.732 11.623-11.707 36.968-16.679 44.509 1.165-13.899-3.849-37.503-5.315-47.464 0.663 1.925 1.71 3.851 2.913 6.041 1.813-1.566 3.772-5.434 5.159-7.991" fill="#767cba"/>
  </g>
  <g transform="matrix(.8028 -.030092 -.030092 -.8028 95.089 113.11)">
   <path d="m0 0c0.552-0.376 1.171-0.933 1.824-1.601 0.321 1.937 2.538 5.638 4.661 5.728-1.048-2.578-1.378-7.975-0.435-10.764 1.329-1.725 2.586-3.428 3.57-4.676 0.942 1.172 2.748 3.461 4.61 5.633-0.343 2.891-2.315 7.851-0.841 12.113 1.723 4.98 7.561 6.65 8.639 14.924 1.303 10.001-6.472 13.961-13.324 23.776-6.868 9.84-0.524 20.276 0.056 28.357 0.693 9.654-5.269 19.325-14.922 23.86 5.943-6.603 8.584-13.431 7.514-21.546-1.484-11.263-14.905-18.279-13.722-32.281 1.215-14.39 14.645-20 14.509-28.645-0.156-9.894-11.691-13.887-9.655-23.427 2.558-1.507 5.012-3.219 5.793-3.857 0.107 2.024 1.38 8.713 1.723 12.406" fill="#767cba"/>
  </g>
  <g transform="matrix(.8028 -.030092 -.030092 -.8028 100.17 109.6)">
   <path d="m0 0c-2.123-0.09-4.34-3.791-4.661-5.729 1.335-1.365 2.82-3.21 4.226-5.035-0.943 2.789-0.613 8.185 0.435 10.764" fill="#afb7d5"/>
  </g>
  <g transform="matrix(.8028 -.030092 -.030092 -.8028 148.21 157.84)">
   <path d="m0 0c-0.821 2.68-1.522 5.43-2.064 8.088-2.01 0.345-4.161-1.138-4.228-4.611 0.523-1.976 1.114-3.877 1.778-5.687 0.034 2e-3 0.069 1e-3 0.104 4e-3 1.762 0.094 3.348 0.957 4.41 2.206" fill="#515457"/>
  </g>
  <g transform="matrix(.8028 -.030092 -.030092 -.8028 138.5 139.38)">
   <path d="m0 0c1.154 3.656 2.055 7.198 3.534 9.314 1.476-1.319 3.423-5.003 4.526-7.176 1.161 1.348 3.429 3.988 4.323 5.579-2.091 9.98-9.853 27.747-14.769 33.288 1.987-14.954-6.447-29.035-4.594-40.454 0.184-1.132 0.461-2.159 0.798-3.109 0.101 2.069 1.313 6.167 1.824 7.403 0.097-0.1 3.522-3.916 4.358-4.845" fill="#fff"/>
  </g>
  <g transform="matrix(.8028 -.030092 -.030092 -.8028 138.51 147.21)">
   <path d="m0 0c1.13-0.648 2.304-1.097 3.447-1.359 0.105-0.675 0.22-1.343 0.338-2.007 1.23 1.55 3.027 2.33 4.925 2.434-0.056 0.414-0.109 0.823-0.156 1.226 1.271 0.704 2.375 2.073 3.204 3.882-3.456 0.851-7.737 0.689-11.758-4.176" fill="#515457"/>
  </g>
  <g transform="matrix(.8028 -.030092 -.030092 -.8028 150.16 162.79)">
   <path d="m0 0c-0.602-0.493-3.272-1.924-3.943-2.143 2.851-5.236 6.578-9.158 11.329-11.056 0.195 0.468 0.382 0.941 0.561 1.417-2.84 1.445-5.64 6.058-7.947 11.782" fill="#515457"/>
  </g>
  <g transform="matrix(.8028 -.030092 -.030092 -.8028 39.714 171.57)">
   <path d="m0 0c-6.084 6.019-14.155 22.899-14.539 32.1 8.853 4.108 7.355 15.353 6.854 19.955-1.583-1.769-3.631-4.421-5.199-6.998-0.984 3.095-3.434 7.792-4.785 10.026-1.773-2.229-3.639-6.217-5.18-9.099-0.558 0.416-3.224 3.473-4.528 5.046-1.833-9.495 0.421-16.821 7.377-19.107 0.856-11.935 9.801-29.832 21.679-35.092-0.601 1.029-1.162 2.085-1.679 3.169" fill="#515457"/>
  </g>
  <g transform="matrix(.8028 -.030092 -.030092 -.8028 19.987 135.35)">
   <path d="m0 0c1.542 2.882 3.407 6.87 5.18 9.099 1.351-2.234 3.801-6.931 4.785-10.026 1.568 2.577 3.617 5.229 5.199 6.998-1.186 10.883-6.173 29.016-10.808 40.021-0.095 0.224-0.275 0.181-0.273-0.062 0.073-13.975-6.466-29.861-8.611-40.984 1.304-1.573 3.971-4.63 4.528-5.046" fill="#767cba"/>
  </g>
  <g transform="matrix(.8028 -.030092 -.030092 -.8028 133.88 161.51)">
   <path d="m0 0c6.675-6.738 14.334-5.709 18.217-3.666 5.178 2.724 9.056 11.378 3.842 17.354-4.254 4.878-9.664 3.278-11.854 0.52-2.688-3.392-0.775-7.348 1.509-7.544-0.35 6.114 5.317 5.797 6.776 3.565 2.409-3.685-1.174-8.358-5.009-8.544-4.093-0.158-9.455 3.13-9.697 8.57-0.314-3.155-1.717-6.7-3.784-10.255" fill="#515457"/>
  </g>
  <g transform="matrix(.8028 -.030092 -.030092 -.8028 163.46 151.77)">
   <path d="m0 0c-2.619 10.13-9.551 16.179-17.524 17.752-9.516 1.88-15.267-1.839-18.681-5.554 1.647-3.513 2.888-6.548 2.858-10.221 2.046 5.981 6.784 8.635 9.261 9.167 5.014 1.076 14.369-3.271 16.747-12.581 3.725-14.581-3.09-33.003-14.876-41-12.821-8.701-28.874-6.172-42.574 0.965-0.175-0.701-0.36-1.396-0.556-2.085 9.14-6.655 29.908-12.755 45.024-3.466 12.806 7.868 25.68 26.294 20.321 47.023" fill="#515457"/>
  </g>
  <g transform="matrix(.8028 -.030092 -.030092 -.8028 139.4 139.09)">
   <path d="m0 0c3.938 1.346 7.994 1.613 11.812 0.859 0.063 1.225-0.348 5.545-0.555 6.53-0.894-1.591-3.497-4.077-4.323-5.58-0.457 2.267-3.05 5.858-4.526 7.176-1.479-2.115-2.292-5.213-3.446-8.87-0.836 0.93-4.206 4.614-4.304 4.714-0.511-1.236-1.865-5.646-1.965-7.715 0.197-0.554 0.41-1.086 0.652-1.581 1.951 2.064 4.257 3.647 6.655 4.467" fill="#515457"/>
  </g>
  <g transform="matrix(.8028 -.030092 -.030092 -.8028 86.466 143.09)">
   <path d="m0 0c-1.688 0.089-6.962-1.702-7.227-6.717-0.281-5.324 4.77-7.352 6.479-7.442 2.437-0.129 6.954 1.533 7.228 6.718 0.278 5.245-4.122 7.316-6.48 7.441" fill="#fcd13e"/>
  </g>
  <g transform="matrix(.8028 -.030092 -.030092 -.8028 125.6 155.49)">
   <path d="m0 0c-3.232 1.019-5.55 4.797-5.562 9.189-0.878 0.206-2.57 0.411-4.758 0.597-0.113-2.353-0.316-4.727-0.607-6.266-0.307-1.628-2.982-1.122-2.674 0.506 0.271 1.428 0.463 3.709 0.571 5.964-1.914 0.13-4.04 0.244-6.238 0.337-0.076-9.412-1.468-19.06-3.606-27.166 4.241-0.282 7.751-0.628 10.605-0.994 5.429 4.321 10.039 10.692 12.269 17.833" fill="#d2ddf0"/>
  </g>
  <g transform="matrix(.8028 -.030092 -.030092 -.8028 107.71 147.78)">
   <path d="m0 0c-2.728 0.092-5.476 0.146-7.984 0.149 0.035-2.502 0.086-4.851 0.124-5.652 0.073-1.556-2.532-1.72-2.718-0.127-0.099 0.844-0.157 3.225-0.181 5.76-2.593-0.041-4.744-0.155-6.073-0.36 0.011-4.659-3.223-8.691-7.653-9.63 0.898-6.689 3.044-12.887 5.91-17.588 4.64 0.41 9.864 0.568 15.033 0.331 2.133 8.044 3.498 17.714 3.542 27.117" fill="#fff"/>
  </g>
  <g transform="matrix(.8028 -.030092 -.030092 -.8028 114.83 145.62)">
   <path d="m0 0c0.027 1.635 0 3.026-0.085 3.741-0.207 1.721 2.496 2.045 2.702 0.324 0.098-0.817 0.129-2.422 0.094-4.288 2.044-0.191 3.759-0.414 4.951-0.663 0.709 3.195 2.652 5.683 5.07 6.602-2.379 6.525-7.508 12.831-16.391 18.09-1.917 0.368-4.575 0.654-7.589 0.814 3.253-6.634 4.717-15.256 4.901-24.273 2.216-0.088 4.373-0.205 6.347-0.347" fill="#d2ddf0"/>
  </g>
  <g transform="matrix(.8028 -.030092 -.030092 -.8028 127.04 142.32)">
   <path d="m0 0c-1.897 0.103-4.812-2.247-5.026-6.601-0.251-5.134 2.888-7.213 4.441-7.317 1.758-0.118 4.897 1.803 5.07 6.74 0.217 6.272-4.054 7.155-4.485 7.178" fill="#fcd13e"/>
  </g>
  <g transform="matrix(.8028 -.030092 -.030092 -.8028 78.472 134.2)">
   <path d="m0 0c-4.225-2.167-8.176-6.025-10.333-8.8 0.251-0.531 0.478-1.08 0.68-1.649 0.807 1.379 5.236 7.74 9.653 10.449" fill="#d2ddf0"/>
  </g>
  <g transform="matrix(.8028 -.030092 -.030092 -.8028 70.505 155.42)">
   <path d="m0 0c1.146-7.674 6.256-15.317 14.831-22.024 2.28 0.811 5.964 1.548 10.384 2.062-2.911 4.868-5.196 11.064-6.164 17.748-4.942 0.616-8.652 5.058-8.379 10.225 0.279 5.279 4.613 9.368 9.737 9.284 1.945 6.251 5.531 12.243 11.28 17.34-2.146-0.156-4.227-0.391-6.131-0.716-11.994-5.928-19.986-13.141-23.597-20.933 0.744-3.77 0.812-8.2-1.961-12.986" fill="#d2ddf0"/>
  </g>
  <g transform="matrix(.8028 -.030092 -.030092 -.8028 81.427 173.57)">
   <path d="m0 0c0.075 0.065 0.163 0.13 0.258 0.195-7.845 6.308-12.873 13.367-14.586 20.592-0.75-0.914-1.595-1.748-2.528-2.473 2.424-7.545 8.496-14.567 16.801-19.521-0.268 0.507-0.271 0.924 0.055 1.207" fill="#d2ddf0"/>
  </g>
  <g transform="matrix(.8028 -.030092 -.030092 -.8028 71.037 142.88)">
   <path d="m0 0c0.293-0.826 0.535-1.69 0.714-2.596 3.611 7.792 11.603 15.004 23.598 20.933l-0.024-3e-3c-6.392-1.078-18.105-7.778-24.288-18.334" fill="#515457"/>
  </g>
  <g transform="matrix(.8028 -.030092 -.030092 -.8028 88.663 141.23)">
   <path d="m0 0c3.009-1.015 5.329-3.507 6.192-6.602 1.531 0.212 3.781 0.346 6.421 0.411 1e-3 2.071 0.025 3.909 0.069 4.697 0.105 1.895 2.811 1.627 2.717-0.143-0.039-0.747-0.042-2.51-0.027-4.513 2.523 0.017 5.262-0.016 7.989-0.095-0.219 9.138-1.767 17.826-5.154 24.292-2.205 0.054-4.52 0.041-6.817-0.052-5.917-4.866-9.534-11.207-11.39-17.995" fill="#fff"/>
  </g>
  <g transform="matrix(.8028 -.030092 -.030092 -.8028 81.628 173.41)">
   <path d="m0 0c0.426 0.292 1.045 0.582 1.833 0.862-8.574 6.707-13.685 14.35-14.83 22.024-0.466-0.804-0.999-1.573-1.589-2.294 1.713-7.224 6.741-14.283 14.586-20.592" fill="#515457"/>
  </g>
  <g transform="matrix(.8028 -.030092 -.030092 -.8028 115.23 127.59)">
   <path d="m0 0c6.809-4.742 11.126-10.385 13.383-16.315 1.807 0.026 7.622-1.282 7.355-9.878-0.15-4.829-3.024-8.694-6.611-9.2-1.911-6.859-6.035-13.214-11.677-18.07 4.654-0.738 6.87-1.473 7.285-1.838 0.033-0.029 0.058-0.063 0.086-0.094 8.931 6.144 14.785 13.649 15.302 23.438 0.593 11.209-7.396 24.693-25.123 31.957" fill="#d2ddf0"/>
  </g>
  <g transform="matrix(.8028 -.030092 -.030092 -.8028 111.04 121.68)">
   <path d="m0 0c0.203 3.834 0.61 8.85 0.291 10.896-2.147-0.362-9.172-9.632-10.114-10.805-0.898 1.139-7.866 10.382-9.62 11.313-0.344-3.692-1.616-10.382-1.723-12.406-1.274 1.041-9.684 6.657-12.084 6.497 1.934-2.367 6.758-11.575 6.79-11.665 7e-3 2e-3 0.015 3e-3 0.023 4e-3 8.173 1.396 21.124 1.289 27.276-0.181 0.086 0.028 7.119 10.005 7.81 11.674-1.876-0.451-7.87-4.627-8.649-5.327" fill="#515457"/>
  </g>
  <g transform="matrix(.8028 -.030092 -.030092 -.8028 124.71 171.69)">
   <path d="m0 0c-2.473 2.176-18.214 3.103-21.885 3.335-6.636 0.421-28.445-0.526-32.046-3.65-0.325-0.283-0.323-0.7-0.054-1.207 1.21-2.287 7.896-6.433 15.003-8.629-0.116-12.953 7.766-32.177 11.167-32.157 5.228 0.032 12.765 22.419 13.613 32.382 9.362 3.603 16.385 8.016 14.202 9.926" fill="#515457"/>
  </g>
  <g transform="matrix(.8028 -.030092 -.030092 -.8028 94.518 187.31)">
   <path d="m0 0c-12.823-2.32-18.436-2.872-29.797-0.051-11.554 2.87-34.937 20.066-33.792 41.735 0.575 10.879 8.561 19.521 17.776 19.034 6.759-0.357 11.997-5.422 11.653-11.937-0.354-6.711-5.068-8.652-8.459-8.473-2.418 0.128-4.937 1.581-4.748 5.165 0.134 2.535 2.467 4.088 4.856 3.962 1.654-0.087 3.245-1.234 4.039-3.417 0.774 12.559-15.778 11.133-16.14-0.216-0.246-7.678 4.375-12.194 13.11-12.655 9.097-0.481 15.042 7.737 15.438 15.232 0.645 12.209-8.388 19.644-19.226 20.216-15.452 0.817-25.248-10.857-26.074-26.5-0.39-7.371 1.115-14.064 3.928-19.964 0.517-1.084 1.078-2.14 1.679-3.169 8.202-14.031 23.96-22.95 38.213-24.9 10.463-1.431 20.82 1.913 27.65 5.327 0.646 0.322 1.263 0.646 1.842 0.966-0.669-0.123-1.315-0.241-1.948-0.355" fill="#515457"/>
  </g>
  <g transform="matrix(.8028 -.030092 -.030092 -.8028 126.99 153.51)">
   <path d="m0 0c-2.153 0.145-4.627 3.528-4.441 7.317 0.193 3.919 3.067 6.708 5.026 6.601 1.432-0.075 4.664-2.015 4.485-7.177-0.168-4.814-3.405-6.852-5.07-6.741m-50.666 0.694c-1.348 0.071-6.796 1.43-6.479 7.442 0.263 4.974 5.1 6.829 7.227 6.717 2.354-0.124 6.74-2.542 6.481-7.441-0.263-4.971-4.81-6.846-7.229-6.718m50.639 15.785c-2.257 5.929-6.574 11.572-13.383 16.314-1.236 0.507-4.685 1.334-5.007 1.396 8.883-5.259 14.012-11.565 16.391-18.09-2.417-0.919-4.36-3.407-5.07-6.602-1.192 0.249-2.906 0.472-4.95 0.663 0.034 1.867 3e-3 3.471-0.095 4.288-0.206 1.722-2.908 1.398-2.702-0.324 0.085-0.715 0.113-2.105 0.085-3.741-1.973 0.143-4.131 0.259-6.346 0.347-0.184 9.017-1.649 17.639-4.902 24.273-0.931 0.049-1.897 0.086-2.884 0.11 3.387-6.466 4.934-15.155 5.154-24.292-2.728 0.079-5.466 0.112-7.99 0.095-0.015 2.003-0.011 3.766 0.028 4.512 0.094 1.771-2.613 2.039-2.718 0.144-0.044-0.789-0.067-2.626-0.068-4.698-2.64-0.065-4.89-0.198-6.422-0.411-0.863 3.096-3.183 5.588-6.192 6.603 1.857 6.787 5.474 13.129 11.39 17.995-0.99-0.04-1.976-0.096-2.948-0.167-5.749-5.097-9.335-11.09-11.281-17.34-5.123 0.084-9.458-4.005-9.737-9.284-0.273-5.167 3.437-9.609 8.38-10.226 0.968-6.683 3.252-12.879 6.163-17.747 0.919 0.107 1.867 0.204 2.844 0.29-2.866 4.701-5.013 10.899-5.91 17.588 5.888 1.247 7.657 7.716 7.652 9.63 1.33 0.205 3.481 0.318 6.073 0.36 0.024-2.536 0.083-4.916 0.182-5.761 0.186-1.592 2.791-1.428 2.718 0.128-0.038 0.801-0.089 3.15-0.124 5.652 2.508-3e-3 5.256-0.058 7.983-0.149-0.043-9.404-1.408-19.073-3.542-27.117 0.566-0.025 2.274-0.129 2.562-0.148 2.138 8.105 3.53 17.753 3.605 27.166 2.198-0.093 4.324-0.208 6.239-0.337-0.108-2.256-0.3-4.536-0.571-5.964-0.308-1.628 2.367-2.134 2.674-0.506 0.291 1.539 0.494 3.913 0.607 6.266 2.187-0.187 3.88-0.391 4.758-0.597 0.012-4.392 2.33-8.17 5.562-9.189-2.231-7.142-6.84-13.512-12.269-17.833 1.147-0.147 2.186-0.297 3.128-0.445 5.642 4.856 9.766 11.21 11.677 18.07 3.587 0.505 6.461 4.371 6.611 9.199 0.27 8.674-5.78 9.901-7.355 9.879" fill="#515457"/>
  </g>
  <g transform="matrix(.8028 -.030092 -.030092 -.8028 138.5 139.38)">
   <path d="m0 0c1.154 3.656 2.055 7.198 3.534 9.314 1.476-1.319 3.423-5.003 4.526-7.176 1.161 1.348 3.429 3.988 4.323 5.579-2.091 9.98-9.853 27.747-14.769 33.288 1.987-14.954-6.447-29.035-4.594-40.454 0.184-1.132 0.461-2.159 0.798-3.109 0.101 2.069 1.313 6.167 1.824 7.403 0.097-0.1 3.522-3.916 4.358-4.845" fill="#767cba"/>
  </g>
  <g transform="matrix(.8028 -.030092 -.030092 -.8028 153.07 153.19)">
   <path d="m0 0c-0.866-8.983-8.591-12.87-17.301-13.897 4.485-1.477 8.694-0.572 11.257 0.777 4.041 2.125 7.289 7.863 6.044 13.12" fill="#383839"/>
  </g>
  <g transform="matrix(.8028 -.030092 -.030092 -.8028 123.08 190.63)">
   <path d="m0 0c-4.363 1.133-8.666 2.849-12.758 4.981-0.175-0.701-0.36-1.396-0.556-2.085 7.695-5.602 28.512-14.21 46.629-2.804-15.606-5.651-26.281-4.351-33.315-0.092" fill="#383839"/>
  </g>
  <g transform="matrix(.8028 -.030092 -.030092 -.8028 107.71 147.78)">
   <path d="m0 0c-2.728 0.092-5.476 0.146-7.984 0.149 0.035-2.502 0.086-4.851 0.124-5.652 0.073-1.556-2.532-1.72-2.718-0.127-0.099 0.844-0.157 3.225-0.181 5.76-2.593-0.041-4.744-0.155-6.073-0.36 0.011-4.659-3.223-8.691-7.653-9.63 0.898-6.689 3.044-12.887 5.91-17.588 4.64 0.41 9.864 0.568 15.033 0.331 2.133 8.044 3.498 17.714 3.542 27.117" fill="#bbb3d7"/>
  </g>
  <g transform="matrix(.8028 -.030092 -.030092 -.8028 88.663 141.23)">
   <path d="m0 0c3.009-1.015 5.329-3.507 6.192-6.602 1.531 0.212 3.781 0.346 6.421 0.411 1e-3 2.071 0.025 3.909 0.069 4.697 0.105 1.895 2.811 1.627 2.717-0.143-0.039-0.747-0.042-2.51-0.027-4.513 2.523 0.017 5.262-0.016 7.989-0.095-0.219 9.138-1.767 17.826-5.154 24.292-2.205 0.054-4.52 0.041-6.817-0.052-5.917-4.866-9.534-11.207-11.39-17.995" fill="#bbb3d7"/>
  </g>
  <g transform="matrix(.8028 -.030092 -.030092 -.8028 97.637 197.35)">
   <path d="m 0,0 c 2.413,-6.641 5.322,-11.664 7.061,-11.654 3.19,0.02 9.871,15.653 12.737,24.421 C 15.563,5.044 8.191,-9.138 0,0" fill="#383839"/>
  </g>
  <g transform="matrix(.8028 -.030092 -.030092 -.8028 50.55 157.73)">
   <path d="m0 0c1.061-2.144 3.106-3.525 5.365-4.394 0.421 0.614 0.802 1.194 1.254 1.836-2.224 0.515-4.442 1.416-6.619 2.558" fill="#383839"/>
  </g>
  <g transform="matrix(.8028 -.030092 -.030092 -.8028 60.091 159.78)">
   <path d="m0 0c-0.691-0.732-1.018-1.706-1.447-2.577 0.518-0.06 1.016-0.101 1.484-0.126 9.097-0.48 15.042 7.737 15.438 15.233-4.683-8.673-10.016-12.116-15.475-12.53" fill="#383839"/>
  </g>
  <g transform="matrix(.8028 -.030092 -.030092 -.8028 94.518 187.31)">
   <path d="m0 0c-5.893-1.066-10.262-1.757-14.368-1.921-10.742-3.665-30.152 2.154-42.735 10.913 4.982-6.643 17.491-13.209 29.559-14.93 10.455-1.492 20.82 1.913 27.65 5.327 0.646 0.322 1.263 0.646 1.842 0.966-0.669-0.123-1.315-0.241-1.948-0.355" fill="#383839"/>
  </g>
  <g transform="matrix(.8028 -.030092 -.030092 -.8028 86.369 140.92)">
   <path d="M 0,0 C 1.945,6.251 5.532,12.243 11.28,17.34 9.536,17.213 8.54,17.262 6.943,17.026 3.497,11.852 -0.495,5.89 -2.034,-0.019 -1.646,0.024 -0.4,0.007 0,0" fill="#bbb3d7"/>
  </g>
  <g transform="matrix(.8028 -.030092 -.030092 -.8028 85.866 156.63)">
   <path d="m0 0c-0.618 0.078-2.071 0.26-2.645 0.45 0.355-7.131 2.814-13.696 5.455-18.653 1.058 0.166 2.179 0.319 3.353 0.455-2.91 4.869-5.195 11.065-6.163 17.748" fill="#bbb3d7"/>
  </g>
  <g transform="matrix(.8028 -.030092 -.030092 -.8028 120.86 148.28)">
   <path d="m0 0c-0.878 0.206-2.57 0.411-4.758 0.597-0.113-2.353-0.316-4.727-0.607-6.266-0.307-1.628-2.982-1.122-2.674 0.506 0.271 1.428 0.463 3.709 0.571 5.965-1.914 0.129-4.04 0.243-6.238 0.336-0.076-9.412-1.468-19.06-3.606-27.166 4.241-0.282 7.751-0.628 10.605-0.993 1.574 1.252 3.075 2.681 4.473 4.246 2.008 4.469 3.55 10.29 4.039 16.564-1.121 1.673-1.798 3.851-1.805 6.211" fill="#bbb3d7"/>
  </g>
  <g transform="matrix(.8028 -.030092 -.030092 -.8028 113.92 128.25)">
   <path d="m0 0c-1.052 0.735-2.163 1.455-3.346 2.156-1.917 0.368-4.574 0.654-7.589 0.813 3.253-6.634 4.718-15.256 4.902-24.273 2.215-0.088 4.372-0.204 6.346-0.347 0.028 1.636 0 3.027-0.085 3.742-0.207 1.721 2.496 2.045 2.702 0.324 0.098-0.818 0.129-2.422 0.095-4.288 2.043-0.192 3.758-0.415 4.95-0.664 0.237 1.069 0.615 2.056 1.1 2.934-1.109 7.043-3.886 13.961-9.075 19.603" fill="#bbb3d7"/>
  </g>
  <g transform="matrix(.8028 -.030092 -.030092 -.8028 136.18 106.94)">
   <path d="m0 0c-1.437 1.839-1.464 1.008-1.297-0.789 0.607-6.487-0.97-13.347-2.896-21.378-1.087-4.536-2.473-9.212-2.69-13.317-0.138-2.602 0.394-4.844 1.115-7.148 0.582-0.926 1.774-1.892 2.054-1.658-1.299 2.728-1.858 5.985-1.68 9.34 0.213 4.03 1.248 8.35 2.326 12.845 1.493 6.226 3.307 13.581 2.609 21.261 6.743-8.895 14.647-29.544 14.321-37.857 0.439-0.06 0.889-0.236 1.3-0.447 0.509 8.952-8.309 30.382-15.162 39.148" fill="#0f141b"/>
  </g>
  <g transform="matrix(.8028 -.030092 -.030092 -.8028 141.66 148.13)">
   <path d="m0 0c-0.028 0.176-0.159 0.317-0.333 0.357-1.175 0.27-2.244 0.692-3.209 1.237-0.146-0.285-0.392-0.528-0.617-0.769 1.002-0.519 2.113-0.937 3.345-1.227 0.121-0.757 0.25-1.496 0.383-2.229 0.234 0.315 0.467 0.62 0.703 0.988-0.094 0.542-0.185 1.089-0.272 1.643" fill="#0f141b"/>
  </g>
  <g transform="matrix(.8028 -.030092 -.030092 -.8028 143.2 154.48)">
   <path d="m0 0c-0.148-0.455-0.413-0.903-0.566-1.357 0.502-1.893 1.061-3.671 1.667-5.357 0.391-0.017 0.698-0.015 0.966 0.039-0.77 2.063-1.462 4.29-2.067 6.675" fill="#0f141b"/>
  </g>
  <g transform="matrix(.8028 -.030092 -.030092 -.8028 156.39 172.69)">
   <path d="m0 0c-4.106 1.614-7.653 5.079-10.522 10.139-0.358-0.053-0.752 0.032-1.159 0.089 2.952-5.502 6.706-9.307 11.258-11.207 0.222-0.092 0.602 0.908 0.423 0.979" fill="#0f141b"/>
  </g>
  <g transform="matrix(.8028 -.030092 -.030092 -.8028 146 147.61)">
   <path d="m0 0c-0.053 0.384-0.103 0.765-0.148 1.142 1.308 0.822 2.425 2.026 3.196 3.485-0.328 0.067-0.752 0.186-1.076 0.331-0.688-1.478-1.636-2.718-2.931-3.436-0.133-0.073-0.216-0.209-0.224-0.357-1e-3 -0.024 0-0.049 2e-3 -0.074 0.044-0.38 0.095-0.768 0.148-1.163 0.306 0.261 0.679 0.159 1.033 0.072" fill="#0f141b"/>
  </g>
  <g transform="matrix(.8028 -.030092 -.030092 -.8028 146.86 151.65)">
   <path d="m0 0c-0.357 0.019-0.742 0.039-1.055 0.056 0.539-2.616 1.232-5.361 2.043-8.051 0.277 0.288 0.563 0.601 0.74 1.007-0.665 2.306-1.251 4.67-1.728 6.988" fill="#0f141b"/>
  </g>
  <g transform="matrix(.8028 -.030092 -.030092 -.8028 156.77 171.59)">
   <path d="m0 0c-2.539 1.164-5.208 5.769-7.447 11.607-0.178-0.326-0.484-0.465-0.814-0.581 2.279-5.801 5.056-10.514 7.898-11.818 0.218-0.101 0.53 0.715 0.363 0.792" fill="#0f141b"/>
  </g>
  <g transform="matrix(.8028 -.030092 -.030092 -.8028 147.1 135.45)">
   <path d="m0 0c1.039 1.2 1.637 1.864 1.681 2.699 0.012 0.24-0.663 1.526-0.669 1.285-0.038-1.312-1.087-2.505-1.903-3.448-0.703-0.812-1.407-1.642-1.91-2.456-0.813 2.436-3.988 7.249-4.64 7.248-0.47-1e-3 -3.01-4.621-3.588-9.071-1.926 2.323-3.487 3.741-4.022 4.538-0.432 0.643-1.776-3.302-2.405-7.307-0.074-0.47 0.987-1.341 0.997-1.142 0.091 1.711 0.905 5.488 1.437 7.128 0.139-0.172 2.416-3.079 3.693-4.384 0.333 0.094 0.664 0.192 0.993 0.295 0.446 2.355 1.625 6.791 2.98 8.437 1.476-1.53 3.654-4.918 3.953-6.86 0.307 2e-3 0.617-0.01 0.933-0.037v1e-3c0.436 0.97 1.541 2.002 2.47 3.074" fill="#0f141b"/>
  </g>
  <g transform="matrix(.8028 -.030092 -.030092 -.8028 157.94 153.04)">
   <path d="m0 0c-2.405 9.415-10.866 14.27-17.26 12.899-4.904-1.053-9.979-6.156-9.716-12.076 0.237-5.316 5.603-9.229 10.26-8.98 2.326 0.123 4.506 1.539 5.554 3.607 2.006 3.955-1.239 8.754-5.098 7.303-2.374-0.892-2.808-3.181-2.697-4.777-1.716 0.564-2.726 3.408-1.32 5.82 1.008 1.729 2.716 2.791 4.81 2.99 5.507 0.523 10.293-4.861 9.072-11.41-1.507-8.084-10.402-11.937-18.868-7.858-1.753 0.844-3.303 1.939-4.599 3.209-0.221-0.306-0.433-0.621-0.646-0.936 1.286-1.316 2.827-2.45 4.6-3.304 9.74-4.692 19.085 0.679 20.584 8.718 1.266 6.785-4.168 13.197-10.443 12.6-2.38-0.226-4.505-1.61-5.658-3.588-1.544-2.646-0.863-6.619 2.385-7.463 0.851-0.221 1.48 0.078 1.278 0.775-0.579 1.996 0.305 3.843 1.808 4.409 2.681 1.008 5.488-2.973 3.914-6.079-0.91-1.794-2.702-3.039-4.722-3.147-4.1-0.219-8.935 3.284-9.153 8.195-0.24 5.398 4.483 9.893 8.947 10.85 5.998 1.288 13.938-3.842 16.018-12.21 3.594-14.461-3.072-32.263-14.977-40.056-15.401-10.081-32.742-3.506-41.972 1.32-0.213 0.112-0.487-1.18-0.274-1.29 9.402-4.917 27.507-11.584 43.119-0.989 12.054 8.178 18.806 26.781 15.054 41.468" fill="#0f141b"/>
  </g>
  <g transform="matrix(.8028 -.030092 -.030092 -.8028 148.36 189.84)">
   <path d="m0 0c-14.883-9.144-35.483-3.273-44.72 3.576-0.193 0.143-0.712-0.557-0.519-0.699 9.428-6.99 29.95-13.526 46.098-3.869 8.273 4.949 15.603 13.708 19.257 24.077-0.658-0.339-1.256-0.834-1.879-1.349-3.786-9.283-10.637-17.065-18.237-21.736" fill="#0f141b"/>
  </g>
  <g transform="matrix(.8028 -.030092 -.030092 -.8028 164.08 151.55)">
   <path d="m0 0c-4.989 19.302-27.06 23.989-37.375 13.126 0.137-0.295 0.408-1.382 0.595-1.622 9 10.064 30.426 8.058 35.574-11.851 1.763-6.819 1.487-13.554-0.201-19.792 0.571 0.917 1.194 1.831 1.915 2.74 1.061 5.592 1.02 11.488-0.508 17.399" fill="#0f141b"/>
  </g>
  <g transform="matrix(.8028 -.030092 -.030092 -.8028 81.985 175.66)">
   <path d="m0 0c-0.132 0.41-0.536 1.514-0.651 1.923-5.639 3.42-13.428 10.318-16.357 19.13-0.271-0.244-0.55-0.476-0.84-0.696 2.989-9.451 8.685-15.186 17.848-20.357" fill="#0f141b"/>
  </g>
  <g transform="matrix(.8028 -.030092 -.030092 -.8028 90.041 127.53)">
   <path d="m0 0c-0.067 0.303-0.113 0.63-0.22 0.884-9.318-2.975-19.026-8.345-25.095-16.697 0.254-0.312 0.484-0.63 0.698-0.953 6.259 7.842 16.413 14.135 24.617 16.766" fill="#0f141b"/>
  </g>
  <g transform="matrix(.8028 -.030092 -.030092 -.8028 112.19 126.27)">
   <path d="m0 0c-0.253-0.227-0.506-0.454-0.759-0.682 17.003-5.306 29.911-19.025 29.17-33.042-0.512-9.698-8.078-18.302-15.304-23.222 0.175-0.245 0.876-0.611 1.041-0.836 8.411 5.537 15.223 14.513 15.723 23.971 0.819 15.506-14.271 29.124-29.871 33.811" fill="#0f141b"/>
  </g>
  <g transform="matrix(.8028 -.030092 -.030092 -.8028 22.433 147.02)">
   <path d="m0 0c0.627-11.208 8.457-29.159 22.18-35.069 0.221-0.095 0.082 0.912-0.045 0.969-11.305 5.062-20.447 22.172-21.351 34.641-0.073 1.014-0.882 1.213-0.784-0.541" fill="#0f141b"/>
  </g>
  <g transform="matrix(.8028 -.030092 -.030092 -.8028 26.673 146.13)">
   <path d="m0 0c0.425-9.446 8.949-27.978 15.202-33.05 0.186-0.152 0.236 0.936 0.078 1.078-6.067 5.479-14.004 22.973-14.41 32.011-0.011 0.241-0.881 0.201-0.87-0.039" fill="#0f141b"/>
  </g>
  <g transform="matrix(.8028 -.030092 -.030092 -.8028 21.625 99.028)">
   <path d="m0 0c-0.621-9.324-3.37-18.97-5.815-27.572-2.156-7.586-4.076-14.081-3.949-18.953 0.189-7.274 4.723-11.753 8.736-13.027 0.229-0.073 0.565 0.356 0.567 0.392 0.01 0.193-0.111 0.377-0.303 0.438-3.599 1.142-7.553 5.473-7.73 12.282-0.131 5.002 3.003 15.739 3.859 18.749 1.502 5.284 5.147 17.857 5.377 27.246 5.235-12.91 10.226-32.67 10.508-41.982 0.145-4.744-0.61-13.587-6.981-16.063-0.164-0.064 0.092-0.899 0.316-0.812 2.392 0.93 8.282 4.202 7.903 16.664-0.314 10.354-6.215 31.03-11.099 42.93-0.796 1.938-1.257 1.69-1.389-0.292" fill="#0f141b"/>
  </g>
  <g transform="matrix(.8028 -.030092 -.030092 -.8028 19.872 134.77)">
   <path d="m0 0c-0.976 1.041-3.23 3.839-4.052 4.861l-0.524-1.031c1.952-2.426 4.391-5.039 4.799-4.996 0.269 0.027 3.816 7.05 5.04 8.744 3.195-5.313 4.331-9.688 4.735-9.73 0.412-0.044 2.885 4.462 5.58 6.947 0.176 0.163-0.257 1.544-0.419 1.368-1.559-1.696-3.472-4.467-4.963-6.821-1.292 3.551-4.49 10.266-4.724 10.281-0.595 0.038-5.317-9.325-5.472-9.623" fill="#0f141b"/>
  </g>
  <g transform="matrix(.8028 -.030092 -.030092 -.8028 99.469 109.43)">
   <path d="m0 0c-1.953-0.768-3.813-3.344-4.257-5.244-0.057-0.245 0.843-1.321 0.856-1.081 0.078 1.483 1.847 4.685 3.603 5.461-0.733-2.416-1.041-6.72-0.402-9.518 0.105-0.459 2.04-2.22 1.919-2.012-1.526 2.644-1.549 8.505-0.686 11.316 0.35 1.145 0.3 1.602-1.033 1.078" fill="#0f141b"/>
  </g>
  <g transform="matrix(.8028 -.030092 -.030092 -.8028 87.092 34.709)">
   <path d="m0 0c-3.453 0.951 8.758-7.299 7.212-22.031-0.503-4.788-3.79-8.985-6.766-13.199-3.929-5.562-8.11-11.168-7.427-19.261 0.678-8.017 5.225-13.182 9.057-17.826 3.067-3.717 5.978-6.94 5.919-10.69-0.073-4.636-3.374-7.908-5.785-11.021-2.677-3.459-4.994-6.623-3.962-11.925 0.046-0.236 1.257-0.492 1.219-0.301-0.673 3.37 0.212 6.54 4.24 11.744 4.304 5.56 5.104 8.078 5.158 11.489 0.065 4.071-2.679 7.396-5.855 11.246-3.75 4.545-8.001 9.697-8.655 17.443-0.569 6.737 1.537 10.883 7.151 18.832 3.04 4.303 5.912 8.369 6.569 13.355 0.627 4.747 0.533 11.88-6.202 20.198 11.55-6.605 13.051-18.143 12.744-22.424-0.161-2.252-0.782-4.703-1.438-7.298-1.966-7.765-3.104-14.8 1.459-21.339 2.05-2.936 4.212-5.386 6.12-7.548 6.007-6.807 7.851-10.39 7.13-15.922-0.632-4.845-2.891-7.307-5.076-9.689-1.454-1.585-2.828-3.083-3.543-5.15-1.618-4.675 0.804-9.124 0.229-13.537-0.031-0.239 1.551 1.728 1.557 1.968 0.072 2.987-2.226 7.599-0.863 11.155 0.718 1.874 2.103 3.575 3.494 5.092 2.17 2.365 4.843 4.951 5.509 10.07 0.942 7.225-3.157 11.345-7.784 16.589-1.892 2.144-4.037 4.575-6.058 7.471-4.808 6.887-2.714 14.002-1.083 20.443 0.666 2.633 1.295 5.119 1.463 7.449 0.938 13.084-9.584 22.923-15.733 24.617" fill="#0f141b"/>
  </g>
  <g transform="matrix(.8028 -.030092 -.030092 -.8028 71.13 154.72)">
   <path d="m0 0c-0.246-0.336-0.87-1.291-1.122-1.63 1.363-7.52 6.449-14.972 14.806-21.527 0.354 0.116 1.352 0.399 1.35 0.401-8.814 6.765-14.959 14.463-15.034 22.756" fill="#0f141b"/>
  </g>
  <g transform="matrix(.8028 -.030092 -.030092 -.8028 91.236 127.16)">
   <path d="m0 0c0.243 0.115-2.113-0.05-3.295-0.664-10.443-5.426-17.815-11.971-21.592-19.074 0.135-0.427 0.292-2.233 0.367-2.677 2.388 7.992 12.227 16.582 24.52 22.415" fill="#0f141b"/>
  </g>
  <g transform="matrix(.8028 -.030092 -.030092 -.8028 69.597 157.03)">
   <path d="m0 0c-0.233-0.296-0.47-0.588-0.714-0.875 1.79-7.123 6.693-14.186 14.443-20.442 0.282 0.163 0.676 0.426 0.956 0.557-8.005 6.383-13.03 13.55-14.685 20.76" fill="#0f141b"/>
  </g>
  <g transform="matrix(.8028 -.030092 -.030092 -.8028 86.432 128.72)">
   <path d="m0 0c0.211 0.116-5.674-2.328-7.95-3.966-5.183-3.731-9.135-7.769-11.792-12.022 0.172-0.295 0.326-0.595 0.465-0.898 3.699 6.158 10.204 11.882 19.277 16.886" fill="#0f141b"/>
  </g>
  <g transform="matrix(.8028 -.030092 -.030092 -.8028 161.18 171.96)">
   <path d="m0 0c7.168 7.105 15.605 28.595 15.71 38.469 2e-3 0.154-0.078 0.297-0.21 0.377-5.223 3.15-8.561 8.023-8.712 12.717-6e-3 0.174-2e-3 0.38 0.01 0.617 0.104 1.971 0.808 6.053 1.675 11.079 1.481 8.591 3.531 20.485 4.063 30.551 0.139 2.632 0.168 5.129 0.062 7.419 5.636-9.72 15.867-36.531 15.963-45.647 8e-3 -0.733-5e-3 -1.494-0.046-2.273-0.284-5.383-1.916-11.58-7.366-14.562-0.114-0.062-0.194-0.172-0.219-0.299-3.583-18.492-10.32-31.374-20.021-38.29-1.055-0.751-1.498-0.741-0.909-0.158m11.571 102.17c0.96-16.812-5.722-43.387-6.226-49.917-0.405-5.234 2.731-10.04 9.254-14.076-0.192-8.571-7.761-30.175-15.212-37.56-1.622-1.607-0.91-3.25 1.57-1.497 11.362 8.03 18.058 20.75 20.75 38.938 6.581 3.743 8.225 11.007 8.104 17.132-0.209 10.607-11.037 37.341-16.688 46.869-1.085 1.829-1.664 2.076-1.552 0.111" fill="#0f141b"/>
  </g>
  <g transform="matrix(.8028 -.030092 -.030092 -.8028 174.88 117.95)">
   <path d="m0 0c-0.285-1.887-2.845-8.682-4.734-12.11-1.478 2.724-3.927 7.314-4.708 8.08-0.69 0.677-2.738-4.557-2.985-5.178-0.491-1.238-0.479-4.876-0.439-4.639 0.429 2.503 1.642 5.448 3.075 8.103 1.453-1.508 4.458-7.049 5.018-7.762 0.401-0.509 4.231 7.443 5.297 11.299 1.824-2.95 4.568-8.904 5.072-11.769 0.404-2.298 1.546 2.789 3.983 5.672 0.155 0.183-0.505 1.409-0.639 1.209-0.562-0.832-1.882-3.474-2.797-5.433-1.03 3.661-5.88 14.266-6.143 12.528" fill="#0f141b"/>
  </g>
  <g transform="matrix(.8028 -.030092 -.030092 -.8028 125.01 171.1)">
   <path d="m0 0c-2.159 0.906-9.561 2.667-22.08 3.458-13.191 0.832-28.35-1.513-32.414-3.756-1.492-0.823-1.96-1.409-0.911-2.687 2.085-2.544 8.731-6.186 15.266-8.241-0.069-2.311 0.165-4.875 0.612-7.523 0.423-0.07 0.908-0.306 1.289 0.02-0.463 2.669-0.73 5.331-0.707 7.847 1e-3 0.192-0.123 0.363-0.307 0.419-7.957 2.459-14.513 7.006-14.881 8.754-0.377 1.792 17.584 4.781 31.821 3.882 15.434-0.974 21.869-2.752 21.725-3.563-0.272-1.517-5.447-5.465-14.457-8.932-0.156-0.06-0.264-0.203-0.277-0.369-1.391-16.355-11.075-31.898-12.895-31.91-1.776-5e-3 -7.898 12.111-9.951 23.479-0.283-0.371-0.71-0.581-1.153-0.775 2.193-11.518 8.175-24.147 11.09-24.301 1.971-0.104 13.839 16.849 13.989 33.078 7.596 2.654 12.517 6.013 14.477 8.357 1.303 1.555 1.296 2.12-0.236 2.763" fill="#0f141b"/>
  </g>
  <g transform="matrix(.8028 -.030092 -.030092 -.8028 65.963 149.54)">
   <path d="m0 0c-0.454-0.845-0.982-1.644-1.612-2.384-0.411-1.291-1.03-2.305-1.774-3.087-0.114-0.575-0.271-1.129-0.467-1.662 1.917 1.219 3.544 3.416 3.853 7.133" fill="#0f141b"/>
  </g>
  <g transform="matrix(.8028 -.030092 -.030092 -.8028 69.169 138.86)">
   <path d="m0 0c-0.151-0.354-0.293-0.711-0.428-1.07 2.201-3.056 3.463-7.029 3.201-11.982-0.397-7.518-6.511-15.268-14.98-14.821-0.558 0.029-1.096 0.078-1.618 0.143-0.289-0.289-0.577-0.575-0.863-0.859 0.933-0.136 1.91-0.213 2.93-0.226 9.001-0.11 15.283 7.509 15.786 15.443 0.379 5.965-1.314 10.033-4.028 13.372" fill="#0f141b"/>
  </g>
  <g transform="matrix(.8028 -.030092 -.030092 -.8028 58.908 148.55)">
   <path d="m0 0c-2.491 0.132-5.408-1.52-5.561-4.425-0.176-3.315 1.933-5.003 4.066-5.513 0.177 0.26 0.493 0.637 0.673 0.892-1.929 0.325-3.596 1.596-3.441 4.53 0.125 2.362 2.153 3.755 4.217 3.646 1.138-0.06 2.152-0.673 2.89-1.69 0.16 0.269 0.292 0.56 0.414 0.859-0.863 1.016-1.989 1.634-3.258 1.701" fill="#0f141b"/>
  </g>
  <g transform="matrix(.8028 -.030092 -.030092 -.8028 59.793 145.12)">
   <path d="m0 0c-5.053 3.276-13.876 0.515-14.163-8.481-0.176-5.491 2.484-9.522 7.059-11.535 0.253 0.252 0.495 0.512 0.73 0.777-4.444 1.844-6.748 5.578-6.577 10.927 0.212 6.644 7.516 10.666 12.248 7.598 1.554-1.008 2.533-2.654 2.886-4.743 0.194 0.509 0.389 1.025 0.668 1.498-0.524 1.723-1.514 3.092-2.851 3.959" fill="#0f141b"/>
  </g>
  <g transform="matrix(.8028 -.030092 -.030092 -.8028 42.709 156.02)">
   <path d="m0 0c0.573 10.846 8.719 19.387 17.149 18.942 4.333-0.229 7.827-2.392 9.645-5.559 0.111 0.423 0.219 0.842 0.323 1.259-2.145 2.952-5.716 4.947-9.922 5.17-9.461 0.499-17.641-8.224-18.234-19.447-0.355-6.723 1.653-13.067 4.953-18.704 0.267 0.241 0.536 0.645 0.824 0.904-3.14 5.363-5.069 11.173-4.738 17.435" fill="#0f141b"/>
  </g>
  <g transform="matrix(.8028 -.030092 -.030092 -.8028 94.983 186.85)">
   <path d="m0 0c-13.264-2.414-19.179-2.704-30.676 0.151-7.285 1.809-19.612 10.1-26.944 21.237-0.315-0.187-0.64-0.545-0.955-0.703 7.465-11.491 20.103-19.73 28.073-21.709 11.178-2.775 16.791-2.314 29.023-0.127-22.576-10.729-42.252-3.398-56.202 10.056-9.554 9.215-14.473 20.798-13.848 32.616 0.864 16.369 11.159 26.853 25.616 26.089 4.104-0.216 8.167-1.44 11.466-3.724 0.076 0.301-0.056 0.889 0.024 1.193-3.434 2.246-7.345 3.185-11.444 3.401-15.494 0.819-26.707-10.615-27.163-27.9-0.319-12.086 4.5-22.668 14.076-32.227 12.744-12.722 35.292-22.629 59.218-9.617 1.545 0.841 1.302 1.549-0.264 1.264" fill="#0f141b"/>
  </g>
  <g transform="matrix(.8028 -.030092 -.030092 -.8028 65.258 134.15)">
   <path d="m0 0c-3.002-26.225-25.409-44.184-26.374-44.934-2.86-2.222-1.063-3.477 1.396-2.213 17.252 8.866 28.67 27.661 31.194 46.327 0.032 0.239-0.897 0.373-0.933 0.135-3.306-22.242-19.88-41.431-30.562-45.642-1.072-0.422-1.962-0.384-0.561 0.706 0.978 0.759 23.972 18.914 27.015 45.5 0.027 0.239-1.148 0.36-1.175 0.121" fill="#0f141b"/>
  </g>
  <g transform="matrix(.8028 -.030092 -.030092 -.8028 63.679 78.792)">
   <path d="m0 0c-8.157-18.884-11.136-47.012-10.105-56.446 0.695-6.358 4.256-10.911 9.239-12.75 1.671-0.617 2.321 0.11 0.712 0.7-4.695 1.726-7.978 6.453-8.643 12.531-1.073 9.82 1.89 36.956 9.193 54.274 0.825-9.594 4.324-20.184 7.463-29.602 3.137-9.41 6.099-18.902 5.778-24.398-0.347-5.964-3.223-12.444-8.78-13.368-1.103-0.184-0.45-1.055 0.69-0.861 6.123 1.044 9.231 8.31 9.614 14.575 0.384 6.268-3.289 14.765-6.476 24.327-3.173 9.52-6.583 21.018-7.325 30.624-0.165 2.148-0.571 2.219-1.36 0.394" fill="#0f141b"/>
  </g>
  <g transform="matrix(.8028 -.030092 -.030092 -.8028 68.132 111)">
   <path d="m0 0c-0.624-1.15-4.34-11.113-4.998-13.417-1.113 2.047-5.076 9.489-5.602 9.299-0.459-0.167-2.106-3.493-2.847-6.579-0.337-1.406 0.294-4.309 0.372-3.58 0.421 3.926 1.741 6.875 2.546 8.366 1.786-2.583 5.622-10.151 5.799-9.22 0.465 2.44 4.516 11.863 5.088 13.389 4.671-5.787 5.565-13.635 6.7-12.666 1.23 1.05 2.509 3.004 3.002 4.263 0.088 0.224-0.697 1.547-0.784 1.323-0.434-1.105-1.58-3.436-2.363-4.276-1.154 4.847-6.399 14.046-6.913 13.098" fill="#0f141b"/>
  </g>
  <g transform="matrix(.8028 -.030092 -.030092 -.8028 103.13 122.59)">
   <path d="m0 0c0.453-0.323 6.899 9.27 9.797 11.028 0.106-1.277-0.168-9.122-0.292-10.654-0.076-0.936 5.5 3.811 8.148 4.91-1.573-2.964-5.903-9.848-6.994-10.404-6.572 1.51-17.308 1.783-26.959 0.201-0.96 2.471-4.025 7.79-6.082 10.607 2.989-0.811 10.508-6.047 11.231-6.487 0.538-0.328 1.354 9.456 1.941 12.149 2.327-1.736 8.518-10.857 9.21-11.35m0.072 1.568c-4.92 6.426-10.172 14.283-10.247 12.065-0.079-2.355-1.528-11.181-1.695-12.685-5.446 3.977-14.443 8.24-11.83 5.041 1.978-2.42 5.261-9.018 6.108-11.447 0.07-0.202 0.327-0.502 1.093-0.371 9.384 1.609 22.117 1.366 27.125-0.172 0.076-0.023 0.916 0.256 0.992 0.281 1.716 0.559 7.033 10.543 7.672 12.088 0.733 1.772-3.48-0.687-8.794-4.209 0.22 3.827 0.332 9.51 0.155 10.203-0.476 1.86-8.79-8.679-10.579-10.794" fill="#0f141b"/>
  </g>
  <g transform="matrix(.8028 -.030092 -.030092 -.8028 81.191 148.78)">
   <path d="m0 0c0.312 3.819 3.208 6.437 6.915 6.297 3.468-0.23 6.145-3.111 6.004-6.852-0.202-3.59-3.194-6.391-6.754-6.201-3.623-0.026-6.181 3.272-6.165 6.756m-0.93 0.061c-0.265-3.995 3.09-7.577 6.837-7.899 4.077-0.123 7.637 2.95 7.79 7.282 0.241 4.146-2.826 7.656-6.732 7.824-4.148 0.361-7.475-3.05-7.895-7.207" fill="#0f141b"/>
  </g>
  <g transform="matrix(.8028 -.030092 -.030092 -.8028 86.168 156.26)">
   <path d="m0 0c-3.988 0.206-8.533 3.996-8.445 9.665 0.468 5.71 5.22 9.206 9.735 8.967 1.895 6.149 5.564 12.56 11.681 17.834-0.404 0.021-0.818 0.043-1.242 0.065-5.878-5.287-9.273-11.314-11.155-16.974-5.331-1e-3 -9.624-4.592-9.98-9.696-0.376-5.385 3.466-9.962 8.483-10.727 0.851-5.874 2.91-11.804 6.276-17.463 0.31 0.04 0.628 0.071 0.95 0.098-3.054 5.016-5.18 11.086-6.157 17.266-0.051 0.321-0.101 0.643-0.146 0.965" fill="#0f141b"/>
  </g>
  <g transform="matrix(.8028 -.030092 -.030092 -.8028 108.03 147.45)">
   <path d="m0 0c-0.335 0.012-7.632 0.204-8.84 0.166 4e-3 -0.299 0.097-5.356 0.131-6.084 0.024-0.529-0.425-0.755-0.818-0.787-0.349-0.028-0.959 0.094-1.033 0.731-0.089 0.755-0.178 5.824-0.181 6.129-2.404 0.02-5.992-0.252-6.889-0.41 0.184-4.597-3.267-8.76-7.772-9.548 0.039-0.313 0.087-0.624 0.132-0.937 0.899-6.363 2.933-12.439 5.899-17.306 0.318 0.019 1.209 0.055 1.183 0.095-3.009 4.841-5.191 10.991-6.164 17.421 3.697 1.034 7.278 4.329 7.544 9.357 1.225 0.199 3.001 0.326 5.107 0.394-5e-3 -2.354 0.024-4.491 0.117-5.282 0.242-2.069 3.839-1.831 3.744 0.184-0.033 0.707-0.08 2.821-0.115 5.158 2.205 6e-3 4.463-0.053 6.837-0.126-6e-3 -9.217-1.159-18.719-3.32-26.779 0.31 0.039 0.619 0.073 0.928 0.101 1.837 6.956 3.507 16.845 3.51 27.523" fill="#0f141b"/>
  </g>
  <g transform="matrix(.8028 -.030092 -.030092 -.8028 111.85 126.59)">
   <path d="m0 0c-0.419 0.255-1.927 0.124-1.719 5e-3 8.334-4.785 13.977-10.829 16.663-17.75-2.336-0.941-4.121-3.197-4.854-6.437-1.102 0.206-2.533 0.397-4.186 0.57 7e-3 1.67-0.038 3.082-0.128 3.833-0.258 2.158-3.626 2.014-3.494-0.013 0.069-1.051 0.088-2.257 0.074-3.504-1.706 0.131-3.453 0.234-5.326 0.327 0.11 8.475-1.663 16.779-4.889 23.579-0.334 0.018-0.664 0.036-0.991 0.053 3.883-7.889 4.46-15.931 4.88-24.52 0.318-0.012 6.912-0.374 7.205-0.396 7e-3 0.303 2e-3 3.576-0.077 4.236-0.04 0.33 0.063 0.59 0.305 0.771 0.289 0.217 0.722 0.268 1.054 0.126 0.278-0.119 0.438-0.346 0.478-0.677 0.088-0.733 0.093-4.311 0.086-4.608 0.388-0.035 4.252-0.432 5.754-0.809 0.372 2.01 1.626 5.18 4.457 6.521 0.263 0.126 0.535 0.224 0.811 0.306-0.105 0.302-0.215 0.606-0.333 0.911-2.194 5.69-6.754 11.983-15.77 17.476" fill="#0f141b"/>
  </g>
  <g transform="matrix(.8028 -.030092 -.030092 -.8028 93.627 146.73)">
   <path d="m0 0c0.257 0.042 0.538 0.081 0.845 0.118 1.373 0.164 5.972 0.353 6.287 0.36-1e-3 0.35 0.027 4.369 0.066 5.078v1e-3c0.039 0.695 0.513 0.917 0.943 0.894 0.46-0.025 0.94-0.346 0.905-0.991-0.036-0.694-0.029-4.606-0.025-4.952 0.287 3e-3 8.5-0.091 8.841-0.102-0.134 9.377-1.817 18.272-4.998 24.559-0.332 0.018-0.971 0.08-1.314 0.098 3.282-6.213 4.843-14.694 5.189-23.688-2.367 0.08-4.655 0.148-6.854 0.152-0.01 1.737-4e-3 3.22 0.031 3.887 0.062 1.174-0.844 1.859-1.728 1.907-0.874 0.047-1.793-0.527-1.859-1.716-0.041-0.738-0.083-2.302-0.112-4.115-2.304-0.054-4.266-0.169-5.647-0.355-0.924 2.802-3.024 5.058-5.856 6.173 1.83 6.093 5.343 12.574 11.62 17.689-0.429 0.023-1.329-0.129-1.755-0.107-5.929-5.105-9.981-12.571-11.042-18.091 2.289-0.345 5.99-3.681 6.463-6.799" fill="#0f141b"/>
  </g>
  <g transform="matrix(.8028 -.030092 -.030092 -.8028 126.03 155.22)">
   <path d="m0 0c-4.082 0.931-5.733 5.84-5.653 9.19-0.873 0.229-5.343 0.698-5.628 0.721-0.013-0.304-0.353-5.211-0.622-6.629-0.056-0.296-0.22-0.493-0.49-0.587-0.349-0.123-0.806-0.037-1.086 0.205-0.217 0.186-0.298 0.431-0.242 0.725 0.253 1.337 0.581 6.127 0.594 6.424-0.293 0.02-6.809 0.372-7.129 0.384-0.077-10.636-1.603-19.93-3.568-27.411 0.293-0.014 0.769-0.067 1.061-0.112 2.055 7.871 3.465 17.315 3.538 26.612 1.833-0.086 3.528-0.18 5.156-0.298-0.143-2.618-0.373-4.894-0.537-5.677-0.366-1.752 3.213-2.379 3.563-0.526 0.276 1.458 0.458 3.663 0.557 5.895 1.732-0.177 3.103-0.372 3.933-0.575 0.182-4.146 2.34-7.766 5.331-9.071-2.249-6.59-6.649-12.771-12.446-17.267-0.19-0.147 1.246-0.402 1.475-0.216 5.577 4.546 9.722 10.666 11.868 17.17 0.114 0.346 0.222 0.694 0.325 1.043" fill="#0f141b"/>
  </g>
  <g transform="matrix(.8028 -.030092 -.030092 -.8028 126.76 139.91)">
   <path d="m0 0c-0.025 1e-3 -0.049-1e-3 -0.074 0-1.951 5-5.079 10.047-11.621 14.93-0.816 0.61-3.773 1.548-3.571 1.417 7.868-5.123 12.085-10.971 14.261-16.37 0.12-0.299 0.235-0.596 0.343-0.891 0.203 0.013 0.407 0.019 0.614 8e-3 0.11-6e-3 0.216-0.026 0.324-0.038 3.619-0.418 6.396-4.53 6.245-9.378-0.131-4.198-2.463-7.686-5.446-8.591-0.339-0.103-0.685-0.175-1.039-0.208-0.101-0.38-0.211-0.759-0.327-1.137-1.985-6.494-6.003-12.565-11.64-17.305-0.072-0.06 1.217-0.429 1.468-0.21 5.58 4.863 9.386 11.025 11.212 17.599 3.561 0.613 6.54 3.921 6.716 9.567 0.17 5.482-3.199 10.382-7.465 10.607" fill="#0f141b"/>
  </g>
  <g transform="matrix(.8028 -.030092 -.030092 -.8028 126.97 153.11)">
   <path d="m0 0c-2.267 0.079-4.086 3.202-3.896 6.878 0.015 3.342 2.324 6.089 4.505 5.995 2.21-0.06 4.123-3.087 3.99-6.585-0.093-3.658-2.512-6.402-4.599-6.288m0.612 13.788c-2.534 0.147-5.364-2.741-5.531-6.966-0.264-4.154 2.062-7.541 4.848-7.897 2.96 0.067 5.355 3.021 5.572 7.19 0.075 4.221-2.069 7.623-4.889 7.673" fill="#0f141b"/>
  </g>
 </g>
</svg>
