<?xml version="1.0" encoding="UTF-8"?>
<!-- Created with Inkscape (http://www.inkscape.org/) -->
<svg version="1.1" viewBox="0 0 208.37 293.11" xmlns="http://www.w3.org/2000/svg" xmlns:cc="http://creativecommons.org/ns#" xmlns:dc="http://purl.org/dc/elements/1.1/" xmlns:rdf="http://www.w3.org/1999/02/22-rdf-syntax-ns#">
 <defs>
  <clipPath id="clipPath143">
   <path d="m-267.42-247.02h744.1v1052.4h-744.1z" stroke-width="1.25"/>
  </clipPath>
  <clipPath id="clipPath146">
   <path d="m-267.42-247.02h744.1v1052.4h-744.1z" stroke-width="1.25"/>
  </clipPath>
  <clipPath id="clipPath149">
   <path d="m-267.42-247.02h744.1v1052.4h-744.1z" stroke-width="1.25"/>
  </clipPath>
  <clipPath id="clipPath152">
   <path d="m-267.42-247.02h744.1v1052.4h-744.1z" stroke-width="1.25"/>
  </clipPath>
  <clipPath id="clipPath155">
   <path d="m-267.42-247.02h744.1v1052.4h-744.1z" stroke-width="1.25"/>
  </clipPath>
  <clipPath id="clipPath158">
   <path d="m-267.42-247.02h744.1v1052.4h-744.1z" stroke-width="1.25"/>
  </clipPath>
  <clipPath id="clipPath161">
   <path d="m-267.42-247.02h744.1v1052.4h-744.1z" stroke-width="1.25"/>
  </clipPath>
  <clipPath id="clipPath164">
   <path d="m-267.42-247.02h744.1v1052.4h-744.1z" stroke-width="1.25"/>
  </clipPath>
  <clipPath id="clipPath167">
   <path d="m-267.42-247.02h744.1v1052.4h-744.1z" stroke-width="1.25"/>
  </clipPath>
  <clipPath id="clipPath170">
   <path d="m-267.42-247.02h744.1v1052.4h-744.1z" stroke-width="1.25"/>
  </clipPath>
  <clipPath id="clipPath173">
   <path d="m-267.42-247.02h744.1v1052.4h-744.1z" stroke-width="1.25"/>
  </clipPath>
  <clipPath id="clipPath176">
   <path d="m-267.42-247.02h744.1v1052.4h-744.1z" stroke-width="1.25"/>
  </clipPath>
  <clipPath id="clipPath179">
   <path d="m-267.42-247.02h744.1v1052.4h-744.1z" stroke-width="1.25"/>
  </clipPath>
  <clipPath id="clipPath182">
   <path d="m-267.42-247.02h744.1v1052.4h-744.1z" stroke-width="1.25"/>
  </clipPath>
  <clipPath id="clipPath185">
   <path d="m-267.42-247.02h744.1v1052.4h-744.1z" stroke-width="1.25"/>
  </clipPath>
  <clipPath id="clipPath188">
   <path d="m-267.42-247.02h744.1v1052.4h-744.1z" stroke-width="1.25"/>
  </clipPath>
  <clipPath id="clipPath191">
   <path d="m-267.42-247.02h744.1v1052.4h-744.1z" stroke-width="1.25"/>
  </clipPath>
  <clipPath id="clipPath194">
   <path d="m-267.42-247.02h744.1v1052.4h-744.1z" stroke-width="1.25"/>
  </clipPath>
  <clipPath id="clipPath197">
   <path d="m-267.42-247.02h744.1v1052.4h-744.1z" stroke-width="1.25"/>
  </clipPath>
  <clipPath id="clipPath200">
   <path d="m-267.42-247.02h744.1v1052.4h-744.1z" stroke-width="1.25"/>
  </clipPath>
  <clipPath id="clipPath203">
   <path d="m-267.42-247.02h744.1v1052.4h-744.1z" stroke-width="1.25"/>
  </clipPath>
  <clipPath id="clipPath206">
   <path d="m-267.42-247.02h744.1v1052.4h-744.1z" stroke-width="1.25"/>
  </clipPath>
  <clipPath id="clipPath209">
   <path d="m-267.42-247.02h744.1v1052.4h-744.1z" stroke-width="1.25"/>
  </clipPath>
  <clipPath id="clipPath212">
   <path d="m-267.42-247.02h744.1v1052.4h-744.1z" stroke-width="1.25"/>
  </clipPath>
  <clipPath id="clipPath215">
   <path d="m-267.42-247.02h744.1v1052.4h-744.1z" stroke-width="1.25"/>
  </clipPath>
  <clipPath id="clipPath218">
   <path d="m-267.42-247.02h744.1v1052.4h-744.1z" stroke-width="1.25"/>
  </clipPath>
  <clipPath id="clipPath221">
   <path d="m-267.42-247.02h744.1v1052.4h-744.1z" stroke-width="1.25"/>
  </clipPath>
  <clipPath id="clipPath224">
   <path d="m-267.42-247.02h744.1v1052.4h-744.1z" stroke-width="1.25"/>
  </clipPath>
  <clipPath id="clipPath227">
   <path d="m-267.42-247.02h744.1v1052.4h-744.1z" stroke-width="1.25"/>
  </clipPath>
  <clipPath id="clipPath230">
   <path d="m-267.42-247.02h744.1v1052.4h-744.1z" stroke-width="1.25"/>
  </clipPath>
  <clipPath id="clipPath233">
   <path d="m-267.42-247.02h744.1v1052.4h-744.1z" stroke-width="1.25"/>
  </clipPath>
  <clipPath id="clipPath236">
   <path d="m-267.42-247.02h744.1v1052.4h-744.1z" stroke-width="1.25"/>
  </clipPath>
  <clipPath id="clipPath239">
   <path d="m-267.42-247.02h744.1v1052.4h-744.1z" stroke-width="1.25"/>
  </clipPath>
  <clipPath id="clipPath242">
   <path d="m-267.42-247.02h744.1v1052.4h-744.1z" stroke-width="1.25"/>
  </clipPath>
  <clipPath id="clipPath245">
   <path d="m-267.42-247.02h744.1v1052.4h-744.1z" stroke-width="1.25"/>
  </clipPath>
  <clipPath id="clipPath248">
   <path d="m-267.42-247.02h744.1v1052.4h-744.1z" stroke-width="1.25"/>
  </clipPath>
  <clipPath id="clipPath251">
   <path d="m-267.42-247.02h744.1v1052.4h-744.1z" stroke-width="1.25"/>
  </clipPath>
  <clipPath id="clipPath254">
   <path d="m-267.42-247.02h744.1v1052.4h-744.1z" stroke-width="1.25"/>
  </clipPath>
  <clipPath id="clipPath257">
   <path d="m-267.42-247.02h744.1v1052.4h-744.1z" stroke-width="1.25"/>
  </clipPath>
  <clipPath id="clipPath260">
   <path d="m-267.42-247.02h744.1v1052.4h-744.1z" stroke-width="1.25"/>
  </clipPath>
  <clipPath id="clipPath263">
   <path d="m-267.42-247.02h744.1v1052.4h-744.1z" stroke-width="1.25"/>
  </clipPath>
  <clipPath id="clipPath266">
   <path d="m-267.42-247.02h744.1v1052.4h-744.1z" stroke-width="1.25"/>
  </clipPath>
  <clipPath id="clipPath269">
   <path d="m-267.42-247.02h744.1v1052.4h-744.1z" stroke-width="1.25"/>
  </clipPath>
  <clipPath id="clipPath272">
   <path d="m-267.42-247.02h744.1v1052.4h-744.1z" stroke-width="1.25"/>
  </clipPath>
  <clipPath id="clipPath275">
   <path d="m-267.42-247.02h744.1v1052.4h-744.1z" stroke-width="1.25"/>
  </clipPath>
  <clipPath id="clipPath278">
   <path d="m-267.42-247.02h744.1v1052.4h-744.1z" stroke-width="1.25"/>
  </clipPath>
  <clipPath id="clipPath281">
   <path d="m-267.42-247.02h744.1v1052.4h-744.1z" stroke-width="1.25"/>
  </clipPath>
  <clipPath id="clipPath284">
   <path d="m-267.42-247.02h744.1v1052.4h-744.1z" stroke-width="1.25"/>
  </clipPath>
  <clipPath id="clipPath287">
   <path d="m-267.42-247.02h744.1v1052.4h-744.1z" stroke-width="1.25"/>
  </clipPath>
  <clipPath id="clipPath290">
   <path d="m-267.42-247.02h744.1v1052.4h-744.1z" stroke-width="1.25"/>
  </clipPath>
  <clipPath id="clipPath293">
   <path d="m-267.42-247.02h744.1v1052.4h-744.1z" stroke-width="1.25"/>
  </clipPath>
  <clipPath id="clipPath296">
   <path d="m-267.42-247.02h744.1v1052.4h-744.1z" stroke-width="1.25"/>
  </clipPath>
  <clipPath id="clipPath299">
   <path d="m-267.42-247.02h744.1v1052.4h-744.1z" stroke-width="1.25"/>
  </clipPath>
  <clipPath id="clipPath302">
   <path d="m-267.42-247.02h744.1v1052.4h-744.1z" stroke-width="1.25"/>
  </clipPath>
  <clipPath id="clipPath305">
   <path d="m-267.42-247.02h744.1v1052.4h-744.1z" stroke-width="1.25"/>
  </clipPath>
  <clipPath id="clipPath308">
   <path d="m-267.42-247.02h744.1v1052.4h-744.1z" stroke-width="1.25"/>
  </clipPath>
  <clipPath id="clipPath311">
   <path d="m-267.42-247.02h744.1v1052.4h-744.1z" stroke-width="1.25"/>
  </clipPath>
  <clipPath id="clipPath314">
   <path d="m-267.42-247.02h744.1v1052.4h-744.1z" stroke-width="1.25"/>
  </clipPath>
  <clipPath id="clipPath317">
   <path d="m-267.42-247.02h744.1v1052.4h-744.1z" stroke-width="1.25"/>
  </clipPath>
  <clipPath id="clipPath320">
   <path d="m-267.42-247.02h744.1v1052.4h-744.1z" stroke-width="1.25"/>
  </clipPath>
  <clipPath id="clipPath323">
   <path d="m-267.42-247.02h744.1v1052.4h-744.1z" stroke-width="1.25"/>
  </clipPath>
  <clipPath id="clipPath326">
   <path d="m-267.42-247.02h744.1v1052.4h-744.1z" stroke-width="1.25"/>
  </clipPath>
  <clipPath id="clipPath329">
   <path d="m-267.42-247.02h744.1v1052.4h-744.1z" stroke-width="1.25"/>
  </clipPath>
  <clipPath id="clipPath332">
   <path d="m-267.42-247.02h744.1v1052.4h-744.1z" stroke-width="1.25"/>
  </clipPath>
  <clipPath id="clipPath335">
   <path d="m-267.42-247.02h744.1v1052.4h-744.1z" stroke-width="1.25"/>
  </clipPath>
  <clipPath id="clipPath338">
   <path d="m-267.42-247.02h744.1v1052.4h-744.1z" stroke-width="1.25"/>
  </clipPath>
  <clipPath id="clipPath341">
   <path d="m-267.42-247.02h744.1v1052.4h-744.1z" stroke-width="1.25"/>
  </clipPath>
  <clipPath id="clipPath344">
   <path d="m-267.42-247.02h744.1v1052.4h-744.1z" stroke-width="1.25"/>
  </clipPath>
  <clipPath id="clipPath347">
   <path d="m-267.42-247.02h744.1v1052.4h-744.1z" stroke-width="1.25"/>
  </clipPath>
 </defs>
 <metadata>
  <rdf:RDF>
   <cc:Work rdf:about="">
    <dc:format>image/svg+xml</dc:format>
    <dc:type rdf:resource="http://purl.org/dc/dcmitype/StillImage"/>
   </cc:Work>
  </rdf:RDF>
 </metadata>
 <path d="m57.892 130.8c6.25-7.8125 20-20.312 36.562-21.719 17.344 22.031 64.951 47.986 78.594 43.281 4.5312-1.5625 7.5-12.969 7.9688-21.25-10.781-17.969-25.312-36.875-61.719-44.688-17.812-18.75-48.302-61.069-56.562-81.719-0.9375-2.3438-2.3438-3.5938-4.0625-3.4375s-4.8438 0.46875-6.0938 2.3438-2.8512 5.8288-3.4375 8.4375c-4.0625 18.072-6.1462 103.91 5.3125 139.06 0.625-7.24 1.4588-13.385 3.4375-20.312" clip-path="url(#clipPath344)" fill="#86834B" stroke-width="1.25"/>
 <g fill="#B9BF9C" stroke-width="1.25">
  <path d="m94.929 184.4c11.719 14.844 53.968 30.38 72.188 26.25 22.222-5.0375 33.146-45.265 13.75-78.594-0.46875 9.5312-3.7025 18.544-7.8125 20.312-12.344 5.3125-62.031-22.188-78.594-43.281-10.938 1.4062-24.844 7.0312-36.562 21.719-4.0625 13.594-5.1862 34.294 1.0938 44.062 2.8125 4.375 8.2812 10.781 15 13.906 4.8438-1.0938 15.156-3.4375 20.938-4.375" clip-path="url(#clipPath329)"/>
  <path d="m178.33 204.32-0.875 5.7238c2.545 0.31875 4.005 1.8212 2.2262 3.8162-2.6238 2.9412-5.9375 7.0525-10.176 8.8238-9.6988 4.0562-23.531 6.6788-34.502 8.03l0.55625-2.385c5.9625-1.7475 13.595-10.572 14.469-18.125 6.5188 1.1125 13.992 1.0312 17.65-0.08 3.6562-1.1125 7.6312-3.0212 10.652-5.8038" clip-path="url(#clipPath347)"/>
  <path d="m108.62 204.72c-3.2288 0-10-0.20875-13.646-0.52125 8.4675 8.93 22.918 18.542 32.605 18.021 5.84-0.31375 13.02-6.0412 16.666-13.125l-3.8538-0.72875c-1.0412 3.125-6.2488 8.9588-11.666 9.0625s-16.876-6.6675-20.105-12.709" clip-path="url(#clipPath224)"/>
  <path d="m43.104 179.19c-4.0625 4.8962-10.312 13.229-13.229 17.188-3.6462-3.5412-11.146-9.4788-13.75-7.9162-2.605 1.5625-4.0625 13.02-4.0625 16.666-2.5-0.3125-5-0.52-5.73 0.4175-0.72875 0.9375 0 4.7912 0.83375 7.2912-3.2288 1.25-6.1375 3.0325-5.9375 4.1662 0.3125 1.7712 4.5838 6.875 12.084 9.8962-3.23 7.6038-7.2925 19.48-7.1875 25.209 0.10375 5.7288 4.1662 15.625 7.8125 22.188-1.25 2.395-2.605 5.6238-3.125 7.395-0.52125 1.7712-0.2525 3.77 1.25 4.8962 3.3325 2.5 10.946 5.715 15.832 5.4162 5.105-0.3125 10.625-1.6675 12.396-2.8125s2.2412-2.6975 1.9788-4.0625c-0.52-2.7075-1.5625-5.415-3.3325-8.9575 4.27-2.1875 9.895-5.5225 13.125-7.9175 30.976 9.7325 78.801-11.198 83.176-39.166-3.5938 4.6875-11.719 13.281-15.469 16.094-1.875 1.4062-3.42 1.45-5.4688 0.3125-2.8125-1.5625-10.312-7.5-13.594-10.469-16.719-5-54.114-28.074-57.604-55.834" clip-path="url(#clipPath332)"/>
  <path d="m88.204 268.36c3.23 2.0825 7.5 5.5212 9.5825 7.1875-0.8325 2.2912-2.29 6.145 0.5225 7.7075s5.7288 2.8138 8.3325 3.23 14.791 1.4588 17.291 0 3.125-5.5225 3.0212-6.6675-2.5-5.3125-4.0625-6.9788c4.2712-3.4375 13.334-10.832 14.271-14.27s-1.5638-12.708-5.73-19.375c-6.25 12.082-23.02 24.271-43.229 29.166" clip-path="url(#clipPath335)"/>
 </g>
 <g stroke-width="1.25">
  <path d="m94.929 184.4c-7.9688 1.1462-36.51 7.9162-35.885 12.5s44.686 10.312 66.041 6.5625c-6.875-2.0838-23.958-11.041-30.156-19.062" clip-path="url(#clipPath341)" fill="#D7E7AF"/>
  <path d="m189.35 184.5c-1.98 5.9375-5.52 14.895-11.25 20 6.145 0.9375 27.374-0.8425 29.479-5.52 0.9375-2.0838-9.1662-11.148-18.229-14.48" clip-path="url(#clipPath338)" fill="#D7E7AF"/>
  <path d="m155.13 203.54c-2.2225-2.11-6.7838-6.3275-9.2912-6.8975-2.5062-0.57-3.5912 0.3425-3.7038 1.425-0.1325 1.2525 0.3325 2.4662 2.2225 2.7362 1.5962 0.2275 7.1825 1.71 10.772 2.7362" clip-path="url(#clipPath179)" fill="#86834B"/>
  <path d="m179.75 197.9c1.2875-1.5688-1.5162-3.4888-2.68-1.71-0.96875 1.4812-3.02 4.96-4.0462 6.0425 2.6788-0.685 5.415-2.7362 6.7262-4.3325" clip-path="url(#clipPath182)" fill="#86834B"/>
  <path d="m54.454 160.96c-4.375 1.25-7.175 4.8512-8.5938 7.1875-2.6562 4.375-3.3912 15.524 0.15625 22.5 9.2188 18.125 35.625 39.844 54.219 44.219 3.8012 2.865 11.302 9.115 13.49 10.365s4.2738 1.6625 6.77-0.52125c4.1675-3.6462 11.8-11.01 15.068-16.39 6.2875-2.1512 14.109-10.975 14.469-18.125l-5.7862-1.11c-2.395 5.2088-9.3588 12.292-15.52 13.125-7.7088 1.0412-22.084-6.4588-34.166-18.02-8.335-0.62625-27.096-3.4125-32.501-5.0012-3.5412-1.0412-3.9788-2.7488-1.4575-4.6875 1.3538-1.0412 7.395-3.75 13.645-5.4162-10.104-5.7288-17.082-11.77-19.791-28.125" clip-path="url(#clipPath185)" fill="#C3D700"/>
  <path d="m108.22 204.76c3.8012 5.1688 13.846 13.682 22.099 12.356 3.3262-0.535 8.3762-4.6338 10.515-8.8512-3.3275-0.7725-12.239-3.325-15.862-4.8712-4.5738 0.95-11.939 1.4262-16.751 1.3662" clip-path="url(#clipPath188)" fill="#ed8599"/>
  <path d="m50.204 8.115c-0.4575 27.45 9.6088 75.26 21.045 98.135-9.4488 10.491-16.168 29.554-16.792 43.616-10.312-28.594-10.589-123.97-4.2525-141.75" clip-path="url(#clipPath191)" fill="#696839"/>
 </g>
 <g fill="#92977B" stroke-width="1.25">
  <path d="m54.454 150.8c3.75 16.822 13.178 29.74 30.832 35.365-3.3325 0.72875-8.1238 1.98-11.145 2.8125-13.021-7.1875-20.834-17.5-19.688-38.178" clip-path="url(#clipPath170)"/>
  <path d="m95.966 180.78c-1.3888 0.12375-2.3075 1.0312-2.3075 1.8488l0.93875 1.3875-8.0038 1.7962c0.6125-3.3475 6.2212-6.6212 9.3725-5.0325" clip-path="url(#clipPath173)"/>
  <path d="m100.08 209.19c2.8125 0.20875 7.7088-0.2075 11.354-0.72875l-3.5412-4.1662c-2.9175 0-9.7912 0-13.332-0.3125 1.5625 1.3538 3.54 3.7488 5.52 5.2075" clip-path="url(#clipPath176)"/>
  <path d="m142.68 223.75c7.2138 1.2025 21.93-0.4 29.974-3.1838-3.8275 3.2038-19.844 8.2038-37.734 10.079l0.78125-2.3438c1.3275-0.46875 4.3225-2.52 6.9788-4.5512" clip-path="url(#clipPath152)"/>
  <path d="m6.7165 204.95c0.46875 2.5788 2.0312 6.5238 3.7888 8.6325 1.38 1.655-1.4988 3.675-2.71 1.6038-0.9-1.5388-2.7975-8.0488-1.0788-10.236" clip-path="url(#clipPath155)"/>
  <path d="m1.479 215.96c11.719 9.7925 35.781 11.146 50.312 7.735 3.155-0.74125 4.5925 1.5125 0.5475 2.5775-9.8962 2.6038-27.996 4.8462-39.87 0.20875-6.6675-2.6038-11.668-7.7088-10.99-10.521" clip-path="url(#clipPath158)"/>
  <path d="m28.879 207.58c0.10375 2.0825-0.69625 4.2338-1.6288 5.6762-0.8725 1.3512 1.9825 3.205 2.775 0.99 0.69-1.9312 0.4425-6.435-1.1462-6.6662" clip-path="url(#clipPath161)"/>
  <path d="m58.329 249.16c11.442 6.335 40.141 2.5338 53.474-5.2275 3.5938 3.0475 6.3638 3.395 8.9062 0.78125 2.8125-2.89 11.171-10.39 14.844-15.859-3.0475 12.812-15.535 29.514-38.49 37.109-14.166 4.6875-31.355 6.6662-45.312 2.1875 2.6038-1.7712 6.1425-4.7475 6.7712-6.3538 0.9375-2.3962 0.5525-7.775-0.1925-12.638" clip-path="url(#clipPath164)"/>
  <path d="m16.716 188.49c-1.1225 4.2475 0.24 11.302 2.0838 15.231l-3.2062 2.5638-3.4462-1.0425c-0.16125-4.7288 0.56-14.268 4.5688-16.752" clip-path="url(#clipPath167)"/>
  <path d="m6.854 246.49c9.6562 23.052 37.292 21.409 52.318 13.074-0.9875 4.935-15.546 14.739-23.464 18.176-2.885 3.0888-15.286 3.4525-20-0.17375-2.8125-3.8538-12.812-23.368-8.8538-31.076" clip-path="url(#clipPath194)"/>
  <path d="m102.69 263.58c4.2725 4.27 22.39 4.0475 34.578-4.7025-2.1875 4.0625-12.082 12.189-16.666 15.73-1.0412 3.3688-10.521 4.3062-20.521 3.3325-2.605-2.6038-7.7075-7.0825-11.77-9.4788 3.9575-0.72875 10.11-2.6938 14.38-4.8812" clip-path="url(#clipPath146)"/>
 </g>
 <g stroke-width="1.25">
  <path d="m59.066 196.74c7.1662 2.605 38.438 4.8438 53.438 1.25 2.42 1.3012 9.6875 4.4538 12.656 5.625-12.578 2.2662-64.844-0.46875-66.094-6.875" clip-path="url(#clipPath197)" fill="#BAC998"/>
  <path d="m183.98 196.9c5.9375 1.7188 15 3.125 23.281 2.0312-2.0012 4.2838-20.751 6.7188-29.202 5.4088 1.8488-1.6675 4.375-4.9475 5.9212-7.44" clip-path="url(#clipPath206)" fill="#BAC998"/>
  <path d="m46.816 166.22c-6.4062 21.804 19.514 50.796 54.825 62.828 0.86625 0.295 1.26 0.815 1.98 1.51 4.8512 4.675 14.091 10.05 15.28 10 2.1875-0.0925 12.011-7.0838 16.802-12.5-4.5838 7.0825-12.969 14.948-15 16.666-2.2875 1.9362-4.175 2.6112-7.0312 0.625-3.5938-2.5-10.781-7.9688-13.281-10.469-18.594-5-40.506-22.944-49.219-35.781-2.9688-4.375-12.931-18.101-4.3562-32.879" clip-path="url(#clipPath218)" fill="#A8B900"/>
  <path d="m142.73 211.79c-0.83375-0.26-2.76-0.78-3.5412-1.145l1.4062-2.24 3.5412 0.885z" clip-path="url(#clipPath215)" fill="#92977B"/>
  <path d="m135.29 214.82c1.875-1.4062 4.2712-3.9588 5.3125-6.4062-3.255-0.885-13.255-3.9325-16.068-5.0262-3.985 0.625-11.329 1.25-16.329 1.25 14.576-0.785 22.366 3.7025 27.084 10.182" clip-path="url(#clipPath203)" fill="#ce7486"/>
 </g>
 <g fill="#0f141b" stroke-width="1.25">
  <path d="m111.33 86.79c44.528 3.855 70.765 37.999 77.145 70.182 4.67 23.569-5.4125 50.345-23.906 52.656-16.839 2.1062-55.326-9.1925-69.932-26.679-1.2475-1.4938-2.2812-0.69875-1.1238 0.86375 14.168 19.122 52.814 30.061 71.29 28.218 19.276-1.9225 32.139-28.774 26.446-55.566-8.255-38.841-37.09-69.701-79.82-71.339-2.285-0.08625-2.375 1.4662-0.0988 1.6638" clip-path="url(#clipPath143)"/>
  <path d="m75.804 188.42c-8.5412-4.4788-14.061-9.9912-16.471-15.552-11.462-26.452 4.3362-71.739 38.909-83.802 2.4938-0.87 1.97-2.4038-0.56625-1.6475-37.6 11.211-52.616 59.656-40.999 86.465 2.46 5.6762 8.2938 11.881 16.002 15.631z" clip-path="url(#clipPath200)"/>
  <path d="m54.816 147.84c-8.0975-38.176-9.9562-104.38-3.9588-136.91 0.28625-1.5525 2.2488-6.2138 2.985-7.2675 0.4075-0.5825 2.0662-1.17 5.375-1.17 1.275 0 1.515 0.49375 2.1875 2.285 6.8162 18.18 36.782 63.57 56.364 81.9l5.0762 0.3075c-20.06-17.891-52.245-64.916-59.116-83.242-1.0288-2.745-2.5362-3.7112-4.4912-3.7112-3.4925 0-6.275 1.0688-7.325 2.4412-1.6338 2.1375-3.2088 5.1875-3.7112 7.91-6.1162 33.176-5.8325 104.13 5.8338 145.22l0.78125-7.7612z" clip-path="url(#clipPath227)"/>
  <path d="m95.166 89.402c-8.2175-12.608-18.635-34.482-24.605-49.208-0.8975-2.215-2.0412-1.7462-1.3125 0.5325 5.015 15.696 14.981 36.248 22.971 49.695z" clip-path="url(#clipPath149)"/>
  <path d="m179.14 129.14c0.2775 8.6512-2.0225 20.495-7.4025 22.398-8.6375 3.0575-58.63-21.304-76.301-42.778-0.625-0.7575-1.055-0.8975-2.2225-0.71625-13.489 2.0688-23.369 7.0588-34.699 20.388l-0.625 4.1988c10.312-12.709 22.779-20.435 35.994-22.401 19.225 23.762 68.438 47.016 78.752 43.375 5.5925-1.9738 9.3162-11.599 8.795-21.339z" clip-path="url(#clipPath233)"/>
  <path d="m178.19 210.3c0.5525-1.845 1.0725-4.9288 1.2225-6.8712l-2.2838 1.4288c-0.16875 1.7175-0.45 3.5812-0.80625 5.0512z" clip-path="url(#clipPath209)"/>
  <path d="m134.73 231.56c13.055-1.32 28.995-4.2838 36.066-7.8775 4.8238-2.4525 11.422-10.14 10.732-12.372-0.66125-2.1438-5.3012-2.6462-8.075-2.2425-1.69 0.245-1.7075 1.39 0 1.4188 3.2425 0.0525 5.69 0.54625 5.8662 1.425 0.20875 1.0425-5.12 7.1412-9.6288 9.395-6.4125 3.2075-21.868 6.9138-34.726 8.2425z" clip-path="url(#clipPath230)"/>
  <path d="m92.029 203.85c8.9575 8.75 18.516 14.245 25.938 17.656 6.2112 2.855 12.831 2.6275 17.344-0.78125 3.8288-2.89 7.3438-6.7962 10.182-11.328l-2.0988-0.54625c-2.615 4.4525-5.8962 7.8112-9.41 10.189-4.3088 2.9162-9.3988 3.025-15.241 0.40875-7.6775-3.4375-14.448-7.7075-23.198-15.442z" clip-path="url(#clipPath326)"/>
  <path d="m87.729 185.58c1.7188-3.0325 4.4538-4.4538 7.6712-4.6138 1.8088-0.0913 1.9025-1.0838 0.15375-1.4088-4.1525-0.775-9.075 2.1938-10.481 6.4138z" clip-path="url(#clipPath314)"/>
  <path d="m123.42 202.74c-16.562 2.1875-45.255-0.235-61.245-4.5838-2.88-0.7825-3.0975-1.5488-0.70375-3.0462 6.8412-4.275 24.679-8.2275 34.24-9.7662l-1.77-2.0838c-9.6825 1.5575-26.178 5.6775-33.6 10.288-3.5125 2.1812-3.6775 5.1475 1.5888 6.6925 17.396 5.1038 47.219 7.2912 65.135 4.27z" clip-path="url(#clipPath317)"/>
  <path d="m139.77 207.99c-2.55 4.72-6.6662 8.4588-11.094 8.6675-5.9462 0.28-14.379-5.9762-19.739-12.261l-2.3962 0.10375c6.3538 8.0212 15.064 14.02 21.895 13.801 4.8338-0.155 10.199-4.3212 12.908-9.5825z" clip-path="url(#clipPath320)"/>
  <path d="m54.379 159.85c-5 2.3438-8.3325 4.7125-9.7662 7.8462-3.125 6.8362-3.0762 14.138-0.46625 20.88 7.9238 20.466 35.566 41.146 55.766 47.539 2.835 2.6375 9.72 7.9388 14.095 10.674 2.2238 1.39 4.345 1.1575 6.0225-0.27875 6.3025-5.3938 11.041-10.716 15.192-16.681 0.3775-0.54125 0.81875-0.995 1.3025-1.2338 9.39-4.6138 14.26-12.245 14.572-18.339l-2.265-0.39c-0.86 5.8588-4.5838 12.782-12.969 17.154-0.6575 0.34375-1.1575 0.94625-1.5625 1.5175-4.0825 5.755-9.4288 11.006-15.262 15.924-1.2325 1.0388-2.4162 1.225-3.9 0.315-3.4238-2.0962-11.106-8.11-13.986-10.722-0.0725-0.0637-0.16-0.11125-0.25125-0.14-20.11-6.3125-46.145-25.68-54.14-46.332-2.3012-5.9438-2.7712-12.188 0.15625-18.692 0.9975-2.2125 4.1012-5.22 8.125-6.855z" clip-path="url(#clipPath323)"/>
  <path d="m11.966 226.43c-2.5988 6.0688-4.885 12.144-6.5038 17.812-1.58 5.53-1.3212 10.942 0.27375 15.391 1.4838 4.14 5.51 11.952 9.2862 18.005 1.0875 1.7438 2.1788 1.1062 1.225-0.71125-3.0475-5.81-6.055-12.782-7.8138-18.075-1.39-4.1862-1.415-8.7762 0.07875-14.005 1.6038-5.61 3.5962-11.428 6.1712-17.441z" clip-path="url(#clipPath254)"/>
  <path d="m31.016 197.43c4.0825-6.1638 8.235-11.926 12.539-16.928l-0.35125-3.2612c-4.4938 5.1712-11.728 14.218-16.466 22.371z" clip-path="url(#clipPath239)"/>
  <path d="m37.966 276.52c1.1262 2.3338 2.3062 5.475 2.9688 8.125 0.475 1.9 0.05 2.9825-0.85875 3.4375-8.97 4.485-18.959 3.5675-27.292-2.265-1.25-0.87625-1.6612-1.6338-1.4062-2.8125 0.41625-1.9275 1.3538-4.115 3.1512-7.6575l-1.2762-2.2388c-1.6662 3.1762-3.39 7.6988-3.88 9.6612-0.54125 2.16 0.04 3.6438 2.1638 5.07 9.8962 6.64 20.438 6.715 29.685 2.0912 1.7675-0.88375 2.6238-2.555 1.8238-5.755-0.68375-2.735-2.0312-6.0675-3.3338-8.5675z" clip-path="url(#clipPath242)"/>
  <path d="m54.542 240.73c2.73 6.095 4.0025 17.01 2.9438 19.869-1.3375 3.61-12.87 11.304-21.232 16.061-1.6738 0.9525-1.12 1.9812 0.6575 1.255 6.6888-2.7312 21.355-11.536 23.109-16.274 1.2625-3.405-0.4825-15.754-4.21-21.546-1.1288-1.7538-2.12-1.2688-1.2675 0.635" clip-path="url(#clipPath236)"/>
  <path d="m50.192 269.24c18.176 5.4762 41 2.6312 58.926-7.2462 13.9-7.6612 25.956-19.785 27.606-33.895l-2.7725 2.1825c-3.0962 11.459-12.731 21.422-26.299 28.9-17.415 9.5975-38.115 13.001-55.371 8.1638z" clip-path="url(#clipPath257)"/>
  <path d="m16.642 206.74c4.6012-3.505 17.948-9.3275 25.015-11.924 2.3388-0.86 1.955-1.7-0.02375-1.4038-8.8975 1.3325-22.391 8.2212-28.418 12.244z" clip-path="url(#clipPath260)"/>
  <path d="m7.2665 206.28c0.985-0.865 5.885 0.0513 10.016 1.3675 1.4688 0.4675 1.8075-0.58625 0.46375-1.3412-3.5262-1.98-10.022-2.9675-11.886-1.9012-1.8862 1.0775-0.20875 7.4475 1.4762 10.362 0.8825 1.5275 1.9438 1.1038 1.2925-0.58125-1.3625-3.5312-2.0338-7.3162-1.3625-7.9062" clip-path="url(#clipPath212)"/>
  <path d="m2.3665 217c-0.0525-0.98875 2.4475-2.3438 5.3125-3.1762l-0.83375-2.0838c-3.9575 1.1975-6.6838 3.2988-6.8488 5.0775-0.23375 2.5262 7.7512 9.9238 14.882 11.896 9.1962 2.5425 28.946 1.385 38.334-2.3262 1.945-0.76875 1.535-1.9438-0.4675-1.3388-9.4675 2.8625-28.446 3.7-37.26 1.2612-6.7262-1.8588-13.054-8.0788-13.119-9.31" clip-path="url(#clipPath263)"/>
  <path d="m30.929 195.85c-4.6838-4.5375-11.868-9.315-14.698-8.2462-2.9225 1.1038-4.8088 6.7712-5.3425 17.605l2.3712 0.28c0.26125-12.084 2.3062-15.864 3.5838-16.316 2.0225-0.7125 8.9275 4.1688 12.979 9.1812 0 0 1.5738-2.0512 1.1062-2.5038" clip-path="url(#clipPath266)"/>
  <path d="m28.829 208.52c0.625 0.41625 0.78125 2.7075 0.345 4.8325-0.34375 1.6775 0.79625 1.985 1.3675 0.37375 0.68375-1.925 1.03-5.8788-0.4625-6.8738-1.4112-0.94125-5.9375 0.3125-9.2875 2.3038-1.3475 0.8-0.78125 1.9438 0.63375 1.2662 3.7575-1.7988 6.9062-2.235 7.4038-1.9025" clip-path="url(#clipPath269)"/>
  <path d="m86.879 268.85c4.0362 2.3175 9.245 6.2238 12.011 8.9325 1.3238 1.2975 2.235 0.38375 1.0025-1.0025-2.2588-2.5388-6.7112-6.3762-10.409-8.7638z" clip-path="url(#clipPath272)"/>
  <path d="m121.95 273.44c1.9238 2.1638 3.7462 4.7688 4.0388 6.3762 0.24 1.31-1.0262 5.205-2.8462 5.9838-1.96 0.84125-13.592 0.1575-17.225-0.6325-2.375-0.51625-6.2612-2.1162-7.3475-2.9688-1.14-0.89625-1.165-1.7662-1.0962-2.19 0.17625-1.0775 0.6-2.5212 0.925-3.6262l-1.5575-1.3862c-0.625 1.7712-1.0762 3.61-1.24 4.5512-0.26125 1.4925 0.125 3.2862 1.605 4.4512 1.3538 1.0625 5.8212 2.8362 8.2238 3.3588 3.6638 0.79625 16.179 1.505 18.614 0.46125 2.61-1.12 4.2562-6.4638 3.8675-8.3675-0.34-1.66-2.1625-4.7325-4.4275-7.155z" clip-path="url(#clipPath275)"/>
  <path d="m124.77 286.12c-1.0475-2.2188-3.0475-5.0388-4.3762-6.3312-1.0825-1.0525-1.98-0.2675-1.0662 0.9325 1.1062 1.4538 2.5125 3.7188 3.5675 6.2588z" clip-path="url(#clipPath278)"/>
  <path d="m130.63 240.22c2.1462 3.5312 3.8912 8.615 4.8538 12.308 0.93625 3.5888 1.0125 6.0012-0.525 7.8375-3.165 3.78-7.8525 8.2062-14.281 13.232-1.54 1.205-0.75 2.2538 0.85 1.1325 6.5938-4.6225 13.276-9.8562 15.745-12.916 2.0112-2.49 2.3125-5.43 1.165-9.8312-1.025-3.9388-3.8475-10.33-6.1725-13.968z" clip-path="url(#clipPath281)"/>
  <path d="m178.77 197.53c0.73375-1.0612-0.595-1.765-1.25-0.58625-0.58625 1.055-2.305 3.555-3.1638 4.2588 1.875-0.9375 3.71-2.6562 4.4138-3.6725m-5.0788 5.3125c-1.1325 0.43-1.7338-0.1525-0.97625-1.1712 1.25-1.68 2.2912-3.8775 3.2812-5.6262 2.0225-3.5712 7.0625-0.3375 4.0238 2.8525-1.5625 1.64-3.75 2.9688-6.3288 3.945" clip-path="url(#clipPath284)"/>
  <path d="m145.35 197.46c-0.9125-0.36625-1.9512-0.095-2.3025 0.53-0.34 0.60625-0.15625 1.3675 0.82 1.64 0.9775 0.27375 7.4225 1.9925 8.8675 2.6175-2.305-1.875-5.7862-4.145-7.385-4.7875m10.276 5.6475c0.89375 0.95375 0.62875 1.65-0.7425 1.1712-3.3988-1.185-7.93-2.1738-10.899-2.7475-2.885-0.5575-3.4512-2.8938-2.5525-4.635 0.66375-1.2888 2.815-1.925 4.5838-1.1462 2.6838 1.1812 6.7188 4.2712 9.61 7.3575" clip-path="url(#clipPath287)"/>
  <path d="m177 205.7c13.072 0.78125 30.708-2.5525 31.332-6.5362 0.7075-4.5088-10.812-12.422-18.781-15.651l-0.78125 2.0825c8.9062 3.6988 18.056 10.548 17.834 13.125-0.205 2.3138-16.765 5.5212-28.094 4.6875z" clip-path="url(#clipPath290)"/>
  <path d="m26.854 291.8c0.41625-2.4488 0.60125-5.195 0.58125-6.855-0.025-1.9888 1.1912-1.9625 1.4175 0 0.18875 1.6462 0.345 4.355 0.13625 6.9588z" clip-path="url(#clipPath293)"/>
 </g>
 <g stroke-width="1.25">
  <path d="m132.64 178.26c7.2612-7.5338-6.4825-55.339-37.256-54.172-14.372 0.545-23.431 21.529-14.499 38.401 7.9975 15.109 40.712 27.231 51.755 15.771" clip-path="url(#clipPath296)" fill="#86834B"/>
  <path d="m110.97 127.2c-13.285 7.9212-18.038 33.76-13.041 50.214 3.29 1.585 10.971 4.1425 15.602 4.8738 6.335-6.8238 12.918-26.324 10.235-41.315-3.4112-4.9975-8.53-11.091-12.796-13.772" clip-path="url(#clipPath245)" fill="#fff"/>
  <path d="m117.98 133.65c-7.8612 1.6338-11.944 10.719-13.27 18.579-1.3288 7.86-0.1025 19.091 5.3075 20.111 5.4088 1.0212 10.004-4.5925 12.148-8.2688 1.6325-6.7388 2.45-16.845 1.53-23.48-2.245-3.0612-4.1838-5.41-5.715-6.9412" clip-path="url(#clipPath251)" fill="#E83921"/>
  <path d="m116.73 146.18c-2.4062-0.4325-4.595 1.88-5.9275 6.5088-1.25 4.3388-0.98625 9.4438 1.6838 10.098 2.6712 0.6575 5.7038-3.1138 6.66-7.7375 0.95375-4.6162 0.05625-8.4262-2.4162-8.8688" clip-path="url(#clipPath248)" fill="#AD191F"/>
  <path d="m99.192 177.42c-4.5938-16.538-0.40125-42.052 12.231-49.172l-1.5088-1.55c-13.886 7.9588-17.666 32.044-13.076 49.958z" clip-path="url(#clipPath299)" fill="#0f141b"/>
  <path d="m118.05 155.72c-1.1588 4.6788-3.7388 6.9025-5.345 6.4125-1.7125-0.52625-2.2888-4.1825-1.3688-8.1238 1.2512-5.3725 3.5475-7.6488 5.2688-7.1688 1.8362 0.51625 2.7225 3.7225 1.445 8.88m-0.955-10.376c-2.855-0.8-6.1338 2.245-7.5812 8.4438-1.0725 4.5962-0.0125 8.8788 2.8225 9.6912 2.6275 0.75625 6.0688-1.715 7.4562-7.325 1.4738-5.9288 0.07-10.036-2.6975-10.81" clip-path="url(#clipPath302)" fill="#AD191F"/>
  <path d="m110.9 139.28c-1.7938 4.5888 0.0863 9.7388 4.685 10.702 3.7775 0.79 7.1488-1.8788 8.3338-6.2538l-0.22625-3.1725c-1.35-2.0375-4.5488-5.83-6.3638-7.0462-2.5288 0.4625-4.9438 3.3262-6.4288 5.77" clip-path="url(#clipPath221)" fill="#fff"/>
 </g>
 <g fill="#0f141b" stroke-width="1.25">
  <path d="m83.954 164.95c-10.825-13.919-4.0262-38.919 13.06-39.59 26.654-1.045 41.316 46.485 34.348 52.938-8.58 7.985-35.618 1.8088-47.408-13.348m48.828 14.902c8.9425-8.1325-7.4838-57.998-35.894-56.902-19.652 0.75625-27.304 27.94-15.346 43.311 12.458 16.015 41.661 22.3 51.24 13.591" clip-path="url(#clipPath305)"/>
  <path d="m114.68 182.39c8.1188-10.002 11.82-25.266 9.8475-39.606l-1.9288-2.9625c2.105 15.541-2.2025 32.309-10.166 41.956z" clip-path="url(#clipPath308)"/>
  <path d="m122.27 160.7c-2.3488 6.84-8.15 11.904-11.81 10.842-5.205-1.5088-6.8175-10.092-4.2675-21.358 1.9412-8.585 7.0688-15.185 12.122-15.796l-1.45-1.2338c-5.5575 1.1112-10.834 7.7675-12.836 16.622-2.7212 12.014-0.39375 21.619 5.9612 23.302 3.9625 1.0512 9.4725-2.1712 11.975-7.99z" clip-path="url(#clipPath311)"/>
 </g>
</svg>
