<?xml version="1.0" encoding="UTF-8"?>
<!-- Created with Inkscape (http://www.inkscape.org/) -->
<svg version="1.1" viewBox="0 0 196.64 279.05" xmlns="http://www.w3.org/2000/svg" xmlns:cc="http://creativecommons.org/ns#" xmlns:dc="http://purl.org/dc/elements/1.1/" xmlns:rdf="http://www.w3.org/1999/02/22-rdf-syntax-ns#">
 <defs>
  <clipPath id="clipPath5898">
   <path d="m0 841.89h595.28v-841.89h-595.28v841.89z"/>
  </clipPath>
 </defs>
 <metadata>
  <rdf:RDF>
   <cc:Work rdf:about="">
    <dc:format>image/svg+xml</dc:format>
    <dc:type rdf:resource="http://purl.org/dc/dcmitype/StillImage"/>
   </cc:Work>
  </rdf:RDF>
 </metadata>
 <g transform="translate(-161.68 -332.84)">
  <g transform="matrix(1.25 0 0 -1.25 -85.612 1082.6)">
   <g clip-path="url(#clipPath5898)">
    <g transform="translate(343.05 580.86)">
     <path d="m0 0c-6.562 3.564-17.178 1.556-21.771-6.736 5.542-6.762 10.298-13.905 13.097-20.055 5.508-3.792 10.02-7.039 13.205-12.38 10.122 13.456 7.19 32.804-4.531 39.171" fill="#99def9"/>
    </g>
    <g transform="translate(261.68 489.09)">
     <path d="m0 0c-2.909 10.804-10.644 13.522-18.226 10.5-16.1-6.413-21.106-30.753-14.272-40.319 8.15-11.409 20.48-7.438 27.479-0.579-1.836 5.753-2.444 19.851 5.019 30.398" fill="#fff"/>
    </g>
    <g transform="translate(315.1 492.11)">
     <path d="m0 0c-1.781-0.574-3.528-1.029-5.236-1.374-5.433-7.211-14.997-18.397-18.709-22.16 0 0-10.409-9.675-18.758-23.111-5.643 0.648-12.904 4.349-15.738 13.227-2.996-2.935-6.796-5.141-10.769-6.033 0.609-31.885 19.425-61.037 21.856-63.016 4.914-4.004 14.196-5.084 20.31-2.761 1.273-9.938 25.073-12.306 30.409-4.894 13.959 19.387 32.834 64.441-3.365 110.12" fill="#fff"/>
    </g>
    <g transform="translate(309.87 490.74)">
     <path d="m0 0c-16.376-3.301-29.189 3.711-35.188 16.339-8.372 17.626 9.475 24.015 15.862 34.81 2.963 5.006 10.356 26.218 20.71 27.321 6.168 0.657 19.749-14.055 23.499-15.305-7.24 15.909-32.684 44.793-45.75 45.049-14.406 0.283-29.522-8.242-41.458-20.684-3.574 11.855-14.758 19.836-26.18 17.38-20.49-4.407-26.218-29.965-19.168-46.488 4.098-9.604 13.343-15.785 22.902-15.78-0.187-1.957-0.262-3.897-0.209-5.81 0.164-5.935 6.872-20.561 18.568-27.978 5.308 2.117 14.752 2.402 18.225-10.5 3.583 5.063 8.839 8.43 16.123 7.846 10.27-0.82 16.249-15.089 14.238-26.283 6.754 7.062 11.851 13.518 17.826 20.083" fill="#99def9"/>
    </g>
    <g transform="translate(349.37 538.14)">
     <path d="m0 0c-3.851 9.243-10.735 13.001-15.863 16.524-10.269 7.06-16.085 15.199-22.253 14.542-10.354-1.104-17.747-22.315-20.71-27.321-6.387-10.796-24.234-17.184-15.862-34.81 12.341-25.98 41.133-16.72 53.317-9.457 11.457 6.829 26.574 28.034 21.371 40.522" fill="#9acaee"/>
    </g>
    <g transform="translate(277.8 496.94)">
     <path d="m0 0c-17.632 1.414-22.476-20.167-22.359-30.314 0.118-10.177 5.219-19.81 16.956-21.157 8.35 13.436 18.758 23.111 18.758 23.111 3.903 11.704-2.1 27.461-13.355 28.36" fill="#fff"/>
    </g>
    <g transform="translate(334.38 420.4)">
     <path d="m0 0c9.932 0 17.556 7.948 17.556 17.716s-8.103 17.557-18.306 17.409c2.759-11.245 3.792-27.048 0.75-35.125" fill="#fff"/>
    </g>
    <g transform="translate(324.88 477.9)">
     <path d="m0 0c1.8-5.252-1.752-9.177-7.604-6.477l4.854 10.477 2.75-4z" fill="#99def9"/>
    </g>
    <g transform="translate(319.85 541.01)">
     <path d="m0 0c-1.553-5.619 6.098-12.894 13.18-13.756 9.418-1.146 16.587 5.704 15.758 10.054-1.8 9.454-26.563 12.306-28.938 3.702" fill="#4f4c4d"/>
    </g>
    <g transform="translate(256.86 538.65)">
     <path d="m0 0c-0.48-8.425 2.604-15.532 7.185-15.81 4.582-0.278 8.699 6.35 9.18 14.773 0.406 7.102-1.136 15.47-6.908 15.82-5.673 0.346-9.068-7.967-9.457-14.783" fill="#4f4c4d"/>
    </g>
    <g transform="translate(334.98 509.39)">
     <path d="m0 0c-8.853-2.701-36.014 1.5-43.967 6.454-0.719-2.626-1.081-5.204-1.075-7.636 9.281 1.536 21.78-6.194 26.128-13.69 7.784 2.86 14.919 8.593 18.914 14.872" fill="#89260e"/>
    </g>
    <g transform="translate(289.93 508.21)">
     <path d="m0 0c0.019-7.716 3.836-13.938 12.48-15.325 4.448-0.713 9.156-0.016 13.648 1.635-4.348 7.496-16.847 15.227-26.128 13.69" fill="#ed8599"/>
    </g>
    <g transform="translate(284.44 461.46)">
     <path d="m0 0c-6.056-6.728-10.722-12.384-12.637-17.492-5.463-14.569 8.773-23.509 20.62-14.922 4.224 3.06 8.46 8.786 12.558 15.982-3.409 7.553-13.287 17.416-20.541 16.432" fill="#fff"/>
    </g>
    <g transform="translate(333.75 526.9)">
     <path d="m0 0-4.025 1.248c0.551-1.15-0.249-3.351-1.852-6.852-12.634-27.627-30.987-46.009-43.435-59.839 7.254 0.984 17.132-8.879 20.541-16.432 13.454 23.625 25.422 63.107 30.599 76.221 0.76 1.927 1.901 5.552 3.752 6.302l-5.58-0.648z" fill="#99def9"/>
    </g>
    <g transform="translate(231.83 456.22)">
     <path d="M 0,0 C 7.992,-7.502 18.553,-3.683 24.83,2.468 24.387,3.853 24.021,5.729 23.816,7.915 20.049,0.883 7.061,-1.9 0,0" fill="#d3d2d2"/>
    </g>
    <g transform="translate(281.94 497.26)">
     <path d="m0 0c-16.642 1.613-33.01 5.141-48.676 11.865 2.775-3.598 6.183-6.995 10.195-9.539 5.307 2.116 14.752 2.402 18.225-10.5 3.582 5.063 8.839 8.43 16.123 7.846 7.337-0.586 12.482-8.038 14.09-16.328 3.737 1.165 7.554 2.099 11.364 2.606 2.17 2.518 4.326 5.012 6.61 7.522-11.407-2.299-21.08 0.409-27.931 6.528" fill="#7fb7ce"/>
    </g>
    <g transform="translate(295 496.08)">
     <path d="M 0,0 C -4.769,0.186 -8.646,0.755 -13.381,1.221 -4.76,-6.868 12.834,-8.968 16.834,-3.134 9.188,-3.625 4.766,-3.71 0,0" fill="#7fa6c4"/>
    </g>
    <g transform="translate(257.7 455.67)">
     <path d="m0 0c2.895-6.593 8.641-9.514 14.696-10.209 2.828 4.551 3.072 4.982 5.887 8.44-5.949-7.397-16.08-2.733-20.583 1.769" fill="#d3d2d2"/>
    </g>
    <g transform="translate(336.05 429.14)">
     <path d="m0 0c-0.252-3.363-0.784-6.387-1.671-8.741 8.63 0 15.511 6.004 17.168 13.986-4.375-3.523-9.838-5.214-15.497-5.245" fill="#d3d2d2"/>
    </g>
    <g transform="translate(291.01 515.85)">
     <path d="m0 0c-0.719-2.626-1.081-5.203-1.075-7.636 4.326 0.717 9.346-0.595 13.92-2.944 4.915 1.843 10.063 2.964 15.215 3.696-10.771 1.022-23.12 3.807-28.06 6.884" fill="#5f1909"/>
    </g>
    <g transform="translate(289.93 508.21)">
     <path d="m0 0c9e-3 -3.46 0.788-6.615 2.417-9.173 3.59 2.698 7.465 4.715 11.503 6.229-4.573 2.349-9.593 3.66-13.92 2.944" fill="#ce7486"/>
    </g>
    <g transform="translate(270.25 418.03)">
     <path d="m0 0c0.421-0.221 14.446-5.199 17.25-4.5 0.619-1.237 0.309-4.395 0-6.25-5.5 2.75-12.75 6.5-17.25 10.75" fill="#d3d2d2"/>
    </g>
    <g transform="translate(223.5 524.29)">
     <path d="m0 0c1.535-6.816 8.174-18.316 18.797-25.018 0.222-0.14 2.375 1.019 1.973 1.261-10.032 6.017-16.373 17.138-18.149 23.855-0.759 2.867-0.502 5.115-0.19 8.609h-2.551c-0.325-2.612-0.543-5.763 0.12-8.707" fill="#191a21"/>
    </g>
    <g transform="translate(288.73 599.8)">
     <path d="m0 0c-14.94 0.294-31.83-9.773-41.417-19.232 0.295-0.826 0.665-3.062 0.933-2.792 9.592 9.667 25.695 20.614 40.451 20.324 10.491-0.206 35.003-24.084 43.832-42.616 0.221-0.464 3.941-2.263 3.75-1.833-8.625 19.5-35.447 45.912-47.549 46.149" fill="#191a21"/>
    </g>
    <g transform="translate(221.01 596.95)">
     <path d="m0 0c-22.013-4.735-27.266-32.275-20.284-48.641 6.215-14.564 22.894-20.642 35.761-12.213 2.429 1.591 2.702 3.245 0.273 1.653-11.58-7.587-27.801-2.279-33.783 11.741-6.45 15.117-1.78 40.947 18.564 45.322 13.956 3.001 28.389-11.342 26.078-28.358-0.348-2.573 1.151-1.241 1.501 1.332 2.31 17.008-11.666 32.7-28.11 29.164" fill="#191a21"/>
    </g>
    <g transform="translate(321.02 574.69)">
     <path d="m0 0c-0.156-0.28 0.928-2.096 1.134-1.674 3.324 6.792 12.796 11.271 20.493 7.089 11.364-6.173 14.241-24.782 4.287-37.702-0.286-0.372 1.124-1.91 1.411-1.538 10.058 13.054 9.279 33.836-4.461 41.301-7.827 4.252-18.131 1.003-22.864-7.476" fill="#191a21"/>
    </g>
    <g transform="translate(350.62 538.38)">
     <path d="m0 0c-3.261 7.824-11.017 13.517-16.781 16.98-2.563 1.54-6.442 5.03-9.118 7.315-5.133 4.379-9.348 8.313-13.726 7.847-8.74-0.932-15.042-15.277-18.904-23.564-2.882-6.187-4.048-7.341-10.471-13.561-7.096-6.871-14.469-13.816-8.325-26.75 3.812-8.027 11.125-13.601 19.224-16.062 4.899-1.487 10.379-1.822 16.284-0.847 0.477 0.638 0.958 1.277 1.387 1.914-6.151-1.318-11.988-1.2-17.318 0.419-7.746 2.353-13.915 7.666-17.571 15.365-5.62 11.832 1.106 18.208 8.078 24.96 5.804 5.62 8.085 9.189 10.254 13.843 3.71 7.962 9.919 21.287 17.703 22.117 3.651 0.389 7.459-2.861 12.28-6.975 2.709-2.312 5.78-4.932 9.401-7.422l0.15-0.103c6.831-4.696 12.225-8.405 15.41-16.047 3.517-8.44-5.64-29.484-20.279-39.155-0.697-1.223-1.117-1.524-1.653-2.744 15.997 7.794 28.328 32.024 23.975 42.47" fill="#191a21"/>
    </g>
    <g transform="translate(302.12 493.87)">
     <path d="m0 0c-10.056 1.613-13.037 10.981-10.674 20.917 5.961-3.122 18.652-5.699 29.261-6.584 0.3 0.653 0.519 0.976 0.885 1.557-10.746 0.697-23.976 3.252-29.513 6.304-1.111 0.612-1.656 0.432-1.939-0.702-2.934-11.647 0.728-21.387 11.281-23.081 3.06-0.49 6.249-0.332 9.415 0.325 0.526 0.739 1.053 0.88 1.58 1.572-3.291-0.832-7.066-0.827-10.296-0.308" fill="#191a21"/>
    </g>
    <g transform="translate(334.49 510.11)">
     <path d="m0 0c-0.729-0.192-1.6-0.339-2.573-0.448-0.079-0.673-0.246-1.064-0.558-1.737 0.567 0.051 1.541 0.252 2.047 0.33-0.931-1.244-2.277-3.207-3.597-4.064-0.311-1.351-0.969-2.269-1.635-3.551 2.701 2.226 5.039 4.693 6.806 7.224 1.354 1.939 1.471 2.764-0.49 2.246" fill="#191a21"/>
    </g>
    <g transform="translate(290.5 508.63)">
     <path d="m0 0c-0.39-0.041-0.954-1.199-0.569-1.132 5.929 1.038 18.616-4.121 23.465-10.821 0.229-0.316 1.207 0.354 1.006 0.691-3.329 5.603-14.919 12.194-23.902 11.262" fill="#191a21"/>
    </g>
    <g transform="translate(307.58 489.5)">
     <path d="m0 0c-2.614-2.094-7.695-3.232-11.252-3.57-2.272-0.218-1.102-1.451 1.17-1.237 1.201 0.115 5.727 0.286 9.603 2.453 0.553 0.31 0.846 2.647 0.479 2.354" fill="#191a21"/>
    </g>
    <g transform="translate(243.64 500.74)">
     <path d="m0 0c-7.753-2.699-14.229-10.123-17.251-19.632-2.781-8.75-1.724-17.337 1.899-22.408 6.344-8.882 19.554-10.147 28.515-0.574 0.321 0.343-0.603 1.768-0.924 1.426-7.094-7.578-19.119-9.417-26 0.213-3.271 4.579-3.733 13.12-1.149 21.249 2.858 8.995 8.652 15.598 15.894 18.121 8.461 2.945 14.434-3.052 16.151-10.201 0.11-0.457 1.501 1.007 1.418 1.305-2.367 8.473-8.481 14.01-18.553 10.501" fill="#191a21"/>
    </g>
    <g transform="translate(263.97 493.04)">
     <path d="m0 0c-7.07-6.602-9.636-18.356-9.543-26.422 0.175-15.134 10.016-21.361 16.785-21.834 0.468-0.032 1.715 1.498 1.246 1.531-6.164 0.43-16.145 6.327-16.307 20.318-0.088 7.719 2.315 18.94 8.98 25.164 6.333 5.912 16.9 6.36 22.529-2.147 3.829-5.786 4.91-14.146 2.69-20.804-0.149-0.446 2.676 0.942 2.755 1.61 0.927 7.81 0.05 14.303-3.69 19.954-6.163 9.315-18.438 9.173-25.445 2.63" fill="#191a21"/>
    </g>
    <g transform="translate(247.26 500.88)">
     <path d="m0 0c-1.961-1.476-4.595-4.804-5.758-7.106-1.035-2.048-0.181-2.636 0.906-0.629 1.292 2.386 5.489 6.583 6.761 7.046 0.368 0.133-1.505 0.993-1.909 0.689" fill="#191a21"/>
    </g>
    <g transform="translate(255.42 498.97)">
     <path d="m0 0c-1.248-1.108-4.668-5.822-5.756-8.774-0.728-1.983 0.258-2.481 1.223-0.362 1.208 2.649 4.027 6.612 5.694 7.778 0.32 0.224-0.868 1.618-1.161 1.358" fill="#191a21"/>
    </g>
    <g transform="translate(272.86 496.89)">
     <path d="m0 0c-2.944-2.834-4.052-5.636-4.472-9.091-0.238-1.964 0.546-2.472 0.814-0.982 0.554 3.08 2.451 7.805 5.57 9.624 0.338 0.197-1.618 0.732-1.912 0.449" fill="#191a21"/>
    </g>
    <g transform="translate(281.25 496.11)">
     <path d="m0 0c-1.447-1.287-1.999-6.448-2.167-9.25-0.144-2.423 0.91-2.752 1.107-0.253 0.222 2.793 1.262 7.824 2.136 8.603 0.292 0.259-0.784 1.16-1.076 0.9" fill="#191a21"/>
    </g>
    <g transform="translate(245.12 451.88)">
     <path d="m0 0c-0.767-30.09 20.025-61.217 22.094-62.9 5.293-4.313 13.843-6.047 20.287-3.208 0.43 0.189 0.744 2.282 0.315 2.092-5.82-2.563-14.762-1.449-19.528 2.434-2.367 1.927-20.699 31.333-21.296 62.533-9e-3 0.469-1.86-0.481-1.872-0.951" fill="#191a21"/>
    </g>
    <g transform="translate(321.09 481.42)">
     <path d="m0 0c23.995-36.284 13.252-75.935-3.311-98.936-3.056-4.247-12.78-4.924-19.943-2.893-5.467 1.551-8.74 4.36-8.979 7.71-0.291 4.076-0.747 23.907-0.747 26.2 0 0.455-0.358 0.829-0.812 0.85-3.218 0.146-12.688 2.231-17.188 4.699-2.623 1.437-1.476-0.778 1.016-2.15 4.472-2.452 11.32-4.121 15.25-4.5 0.057-4.319 0.093-21.549 0.375-25.5 0.293-4.105 4.179-7.493 10.375-9.25 7.686-2.179 18.447-1.142 22.034 3.84 21.824 30.31 24.881 70.362 3.216 101.54-0.267 0.386-1.393-1.443-1.286-1.605" fill="#191a21"/>
    </g>
    <g transform="translate(353.21 438.11)">
     <path d="m0 0c0 10.112-8.747 18.044-19.292 18.097 0.014-0.549 0.143-0.976 0.196-1.554 9.285-0.096 16.97-7.621 16.97-16.543 0-9.253-7.03-16.525-16.107-16.836-0.147-0.256-0.342-0.465-0.059-1.601 10.027 0.315 18.292 8.232 18.292 18.437" fill="#191a21"/>
    </g>
    <g transform="translate(324.53 477.15)">
     <path d="m0 0c0.723-4.951-2.265-7.097-6.9-4.956-0.427 0.196-1.131-1.044-0.713-1.262 4.836-2.529 9.093-0.949 8.898 4.09-0.032 0.844-1.352 2.593-1.285 2.128" fill="#191a21"/>
    </g>
    <g transform="translate(263.99 523.49)">
     <path d="m0 0c-4.055 0.246-6.979 7.003-6.52 15.062 0.356 6.241 3.685 14.422 8.706 14.116 5.226-0.317 6.346-8.317 5.96-15.072-0.492-8.638-4.323-14.338-8.146-14.106m-8.374 14.874c-0.435-8.867 3.279-16.105 8.144-16.401 5.171-0.313 9.752 7.416 10.216 15.552 0.562 9.827-2.951 16.279-7.714 16.568-5.236 0.319-10.24-7.412-10.646-15.719" fill="#191a21"/>
    </g>
    <g transform="translate(261.87 527.04)">
     <path d="m0 0c0-1.691 1.108-3.07 2.469-3.07s2.469 1.379 2.469 3.07c0 1.692-1.108 3.069-2.469 3.069s-2.469-1.377-2.469-3.069" fill="#fff"/>
    </g>
    <g transform="translate(261.88 546.56)">
     <path d="m0 0c-0.233-3.34 1.556-6.197 3.989-6.366 2.434-0.171 4.604 2.41 4.837 5.75 0.234 3.341-1.557 6.199-3.99 6.37-2.433 0.169-4.602-2.411-4.836-5.754" fill="#fff"/>
    </g>
    <g transform="translate(328.3 528.4)">
     <path d="m0 0c1.375-1.375-0.2-4.644-1.325-7.144-11.196-24.879-26.481-40.764-38.967-54.426-8.215-8.989-14.653-16.368-17.066-22.805-5.799-15.463 9.288-25.315 21.933-16.15 13.806 10.003 29.446 52.751 38.075 78.15 2.062 6.068 6.674 20.125 8.604 20.905 0.497 0.202-1.108 1.262-1.347 1.082-2.186-1.65-6.59-14.737-8.734-20.893-8.718-25.028-23.309-66.918-37.622-77.289-11.533-8.359-24.134 0.474-19.139 13.793 2.281 6.085 8.658 13.061 16.731 21.895 11.819 12.931 28.003 30.64 39.314 55.374 1.343 2.932 1.69 5.22 1.689 6.675-1e-3 0.484-2.526 1.212-2.146 0.833" fill="#191a21"/>
    </g>
    <g transform="translate(319.03 541.23)">
     <path d="m0 0m14.526-13.138c-6.096 1.073-14.341 7.418-12.887 12.685v1e-3c0.843 3.054 8.447 5.609 16.475 3.831 5.367-1.188 10.12-3.859 10.808-7.466 0.827-4.353-6.607-10.422-14.396-9.051m-14.933 12.868c-1.96-7.078 9.38-13.763 14.728-14.415 7.312-0.889 15.691 3.064 16.454 8.678 0.67 4.942-4.996 9.425-11.905 10.986-10.153 2.295-17.998-0.613-19.277-5.249" fill="#191a21"/>
    </g>
   </g>
  </g>
 </g>
</svg>
