<?xml version="1.0" encoding="UTF-8"?>
<svg version="1.1" viewBox="0 0 585.65 521.65" xmlns="http://www.w3.org/2000/svg">
 <g transform="translate(.052941 .038235)">
  <path d="m423.2 272.4q2.6 3.55 0.8 6.2-4.75 7.25-17.85 18.4-13.25 11.4-23.9 17.25 1.8 6.35 2.05 14 0.25 7.55-1.25 10.85 2.05 2.45 3.05 17 5.95 4 12.65 9.7 7.3 6.3 9.35 9.4 2 3.25 4.5 20.75l12.3 53.7 14.4 15.1 12.1 12.95q1.8 2.05 2.5 3.95 0.7 1.7 0.7 3.95 0 8.55-1.15 17.65-0.25 2.05-1.6 3.2-1.15 0.95-3.65 1.6-7.55 2.15-56.45 11.75l-5.45 0.15q-1.65-0.45-3.35-2.05-7.15-6.35-55.6-43.2-1.6-1.25-2.3-2.65-0.65-1.35-0.85-3.45-0.3-4-0.25-10.7 0-7 0.4-12.1l9-48.9q0-13.95 0.5-19.3 0.25-2.45 3.7-7.2l4.75-6.6q1.3-2.45 0.2-9.3-1.1-6.5-2.75-9.25-3-4.8-13.9-11.75-14.25 1.85-26.4 2.15-15.6 0.25-30.15-1.95-11.2 5.35-13.15 6.55-3.75 2.25-4.3 5.35-0.35 1.85-0.8 6.35l-0.35 5.95q-0.2 3.8 1.75 6.2l4.7 5.95q3.55 4.6 4.3 6 1.25 2.3 0.85 16.35l8.25 52.25-0.25 22.8q0 3.85-4.15 5.85-14.1 7.1-84.8 35.6-4.6 1.85-8.95 0.75-15.1-3.55-44.3-11.2-2-0.5-2.8-1.95-0.8-1.15-1-3.5-0.6-9.65-0.6-15.6 0-2.05 0.75-3.4 0.65-1.15 2.45-2.65l40.65-30.5 18.95-55.15q3.1-14.5 5.25-17.8 1.7-2.45 9.15-8.25 7.25-5.75 11.25-8 0.4-3 1.55-7.4t2.15-6.55q-1.8-6.5-2.45-20.75-18.75-9.05-34.55-35.95-2.15-3.75 0.85-8 3.85-5.45 12.2-15.9 8.7-11 15.2-18.45-12.7-12.35-20.15-36.8-6.95-22.95-6.2-45.2l-12 1.2q-2.6 5.75-8.9 13.95-5.5 7.1-9.85 11.35-0.65 4.6-2.45 10.4-1.65 5.5-3.4 9.2l-41.15 37.6q-8.15 4.85-35.65 19.45-1.1 0.55-2.8 0.35-1.45-0.1-2.1-0.7-2.75 8.1-9.05 29.85-0.55 1.9-1.55 2.35-0.75 0.45-2.3 0-0.7 4.25-3.25 5.6-2.2 1.1-5.4 0-1.8 3.9-6.75 2.1-5.9-2.3-15.1-8.6-6.7-2.6-12.5-6.5-3.4-2.25-4.3-8.35-0.8-5.35-0.8-22.65-0.1-12.65 0.3-24.85 0.2-6.1 1.75-10.85 1.5-4.75 4.6-9l43.2-41.55 51.85-22.15q5.3-0.6 13.6 1.1 6.5 1.25 11.25 3.05 0.8-2.8 3.7-6 3.15-3.5 6.35-4.65 0.5-2.9 0.85-8.85l0.2-8.6q-0.1-1.9-0.6-3.15-0.65-1.35-2.3-3.05-1.8-1.8-4.65-5.75-2.85-4.1-4.35-6.9-0.7-1.45-0.9-2.3-0.2-1.25 0.45-2.7 1.6-3.85 7.15-13.3 4.45-7.85 7.35-12.25 1.8-2.85 4.95-3.85 4.25-1.3 5.95-2.85 1.25-1.1 2.45-1.1 1.1-0.05 2.45 0.75 4.6 2.4 11.55 2.95 6.85 0.55 9.05-1.35t4.45-0.6q5.05 3 12.7 10.4 7.15 6.85 10.95 12.05 7.65-11.4 21.2-22.85 13-11.1 22.85-15 1.05-7.25 3.85-19.45 0.6-2.5 5.3-6.35 3.9-3.2 7.75-5.3-2.75-2.4-8.3-7.8l-6.75-6.65q-2.65-2.5 0.8-2.75 7.15-0.4 23.2-0.55 15.2-0.05 22.6 0.2 2.25 0.1 2.85 0.95 0.55 0.8-0.05 2.45-1.1 3.15-3.15 10.2 3.55 1.1 9.05 3.95 5.9 2.95 7.65 4.75 0.85 0.8 2.8 7.95l2.95 11.75q24.8 0.6 48.8 20.65 23.2 19.5 35.3 48.2 11.6 27.7 8.4 60.25-3.45 34.9-23.05 58.45l16.65 20.4 16.75 21.05" fill="#6bb5b6"/>
  <g fill="#007b95">
   <path d="m64.65 183.15-18.1 14.7q-14.05 11.3-19.95 16.55-2.25 1.85-4.7 0.8l-11.85-6q-1.95-0.95-2.7-2.6-2.5-5.05-3.55-7.85l-0.45-1.85q-0.05-1 0.6-1.55 5.8-5.65 17.9-15.75 11-9.2 17.3-13.9 2.2-1.6 4.3-0.95l19.25 5.75q2.3 0.85 2.5 2.75l0.7 6.9q0.2 1.85-1.25 3"/>
   <path d="m286.6 8.2q-1.4 0.65-1.85 1.55-0.3 0.65-0.25 1.85 0.25 5.85 0.45 7.5 0.3 2.8-2.7 2.4-3.4-0.5-13.05-0.3l-8.95-8.3-8.6-8.4q-1.15-1.15-0.9-1.95 0.3-0.7 1.7-0.8 8.3-0.6 25.25-0.6 17.75-0.05 22.85 0.65l-13.95 6.4"/>
   <path d="m321.4 48.2q1.2 3.45 1.3 5.85 0 2.6-1.45 5.55-2.95 6.25-13.65 11.25-10.35 4.8-21.9 5.75-12.5 1.05-24.35-3.75-12.9-5.2-12.55-13.1 0.25-5.2 1.9-14.65 1.6-9.35 3.2-14.95 3.9 3.75 12.2 6.7 6.7 2.4 12.55 3.2l1.75-0.05q0.65-0.3 0.75-1.15l0.05-4.45q0-1.2 0.35-1.55 0.3-0.25 1.35 0l8.65 1.75 10.2 1.7q2 0.35 2.75 2.8l2.8 10.75q0.35 1.3 1.05 1.8 0.85 0.6 2.45 0.45 1.7-0.05 5-1.35 3.35-1.2 5.6-2.55"/>
  </g>
  <path d="m274.1 49.1 0.15 8.6q0 6-0.3 8.4-0.25 2.35-2.75 1.9l-5-1q-1.4-0.3-1.4-2.4 0-3.25 0.7-17.6 0.05-1.95 2.2-1.5l4.85 1.2q1.35 0.3 1.55 2.4" fill="#fad47b"/>
  <path d="m283.6 48.6q0.05-1.8 1.9-1.7l4.25 0.15q0.95-0.15 1.35 0.45 0.4 0.45 0.5 1.6l1.1 8.45q0.35 2.15 2.25 2.15 1.7-0.1 4.3-1l1.55-0.05 0.65 1.3q0.65 2.15 0.9 4.85 0.25 1.9-1.4 2.6-1.9 0.7-6.85 1.45l-7.7 0.7q-1.25-0.05-1.7-0.45-0.5-0.35-0.65-1.5-0.25-2.35-0.4-8.8-0.2-6.75-0.05-10.2" fill="#fad47b"/>
  <path d="m379.1 83.8q-1.05 8.4-2.3 13.1-1.1 3.9 1 9.3 2.05 5.1 8.65 15.3 5.1 7.8 10.3 14.85-2.75 6.9-8.35 22.5l-1.5 2.55q-0.95 0.95-2.4 1.1l-9.95 0.3q-2.9 0.25-3.85 3.55l-7.65 25.55q-1.55 5.2-4.5 6.35-3.35 1.25-9.25 2.5l-10.4 1.55q-2.35 0.15-3.7 0.95-1.5 0.8-2.5 2.7-3.9 7.1-13.95 23.6-12.7 2.05-27.25 2.35l-23.5-0.85-5.7-8.25q-3.75-5.55-5.25-8.4-1.35-2.25-4.75-2.65l-4.9-0.25q-2.2 0-3.4-2.35l-3.1-6.85-13.6-11.4q-0.55-1.9-1.9-5.1l-2.25-5.55q-0.6-1.55-1.35-2.35-0.9-0.95-2.5-1.5l-5.15-1.4-5.1-1.15q-3.05-0.6-4.25-3.65l-8.5-18.6-10.35-22.35q0.8-4 2.85-10.7 4.25 13.6 14.2 26.35 9.05 11.7 15.65 14.05 2.05 0.8 9.95-2.75l31.15-19.75q9.4-9.75 12.35-12.55 25.8 3.35 55.15-5.75 34.65-10.85 51.85-34.35" fill="#007b95"/>
  <path d="m211.55 67.7q2.3 2.9 1.65 11.05-1.95 2.1-7.45 9.15-3.8-5.05-10.2-11.4-7.05-6.95-12.25-10.25-1.95-1.25-3.15-1.2-1.1 0-2.5 1-3 2.05-9.3 1.55-6-0.6-11.6-3.15-2.9-1.45-5.3 0.75-1.8 1.65-5.75 2.8-2.4 0.65-4.45 3.5-2.15 2.9-7.45 12.3-4.75 8.55-6.7 12.85-1.1 2.3-0.2 4.7 1.2 3 4.55 7.7 2.95 4 5.2 6.25 2.35 2.4 2.7 5.3 0.25 3.05-0.2 8.7-0.4 5.15-1.1 9.05l-3.55 1.85q-4.65-3.25-11.2-8.5-7.4-6.05-9.55-8.7-2.15-2.6-4.25-14.5-2-11.1-1.6-14.5 0.25-2.55 4.1-11.35 3.55-7.95 7-14.5-9.05-15.7-32.55-50.9 2.95-2.8 5.7-4.5 6.9 1.1 31.1 6.9 24.95 5.95 27.95 7.45 2.25 1.05 6.25 6.15l5.35 7.5 3.85-0.2q4.4 0.45 23.15 11.9 18.5 11.25 21.75 15.25" fill="#007b95"/>
  <g fill="#fad47b">
   <path d="m145.1 104.05q-2-2.15-0.8-4.2l7.3-12.55q4.8-7.8 8-11.25 1.75-1.95 3.15-2 1.4-0.1 3.9 1.4 5.55 3.55 19.35 13.7 2.6 1.85 1.1 5.2-3.35 7.6-7.85 14.3-1.2 1.85-3.35 0.75-5.3-2.6-12.1-8.5-1.05-0.9-1.25-1.45-0.25-0.55 0.25-1.25l2.55-3.15q1.2-1.4 2.5 0.1 2.95 3.55 5.1 4.75 1.8 1.15 2.75-0.55 1.55-2.65 2.25-5.9l0.15-1.85q-0.15-0.9-1.1-1.7-5.15-3.95-12.1-7.5l-1.5-0.05q-0.85 0.25-1.35 0.95-2 2.55-4.85 7.55-2.7 4.85-4.4 8.55-0.8 2.05 1.35 4.25 4.45 3.95 16 12.7l1.1 1q0.35 0.65 0.3 1.65-0.2 2.55-0.75 4.1-0.65 1.55-2.85 0.2-11.3-7.55-22.85-19.25"/>
   <path d="m39.5 169.7q1-0.9 2.6-0.15l9.3 4.7q0.85 0.45 0.85 1.15 0 0.65-0.65 1.25l-9.6 8.25-11.55 9.15-1.05 0.6-1.2-0.25q-2.4-1.3-4.1-3.15-0.8-0.8 0.35-1.95 2.45-2.7 13.6-11.6l1.5-0.05q0.7 0.45 1 0.8 0.4 0.4-0.45 1.1l-11.55 9.45q-0.55 0.5-0.15 1.3l0.9 0.8q0.5 0.5 1.65-0.4l14.9-13.05q1-1.05 0.1-1.7-2.9-1.95-5.2-2.8l-0.9-0.2q-0.5 0-1.05 0.45-3.25 2.45-20.05 17.2-1 0.9 0 1.55 1.85 1.25 5.35 2.75 1.05 0.65 0.55 1.4l-1.45 2q-0.9 0.9-1.8 0.25-6.5-3.7-7.85-4.95-0.95-0.8 0.2-2.1 5.5-5.95 25.75-21.8"/>
   <path d="m350.55 108.15q0.75 8.25 0.45 13.15-0.2 3-3.05 3.5-4.55 0.9-13 3.35-2.75 0.8-3.35 2.4-0.95 2.65-2.75 8.85-1.95 6.25-2.25 8-0.6 3.1-4.35 3.1l-40.45 3.3-6.65-6.25q8.15-10.2 10.25-11.35l12.85 0.45 17.75 2.1q3.55 0.5 4.5-2.55 3.6-11.3 5-12.75 0.65-0.6 7.75-1.7 7.45-1.15 8.55-1.8 1.5-0.9 2-8.5l6.75-3.3"/>
   <path d="m221.55 190.45 2.3 0.1 10.65 1.95q1.65 0.4 2.55 0 0.9-0.3 1.95-1.6 1.65-2.05 3.65-6.15l8.4 7.45q-2.15 2.8-6.2 6.55-4.05 3.65-5.15 3.8-1 0.2-6.05-1.55-4.65-1.6-6.2-2.45-1.15-0.65-1.65-0.4l-1.05 0.9q-1.2 1.1-5.25 7.55-3.8 6-6 10.1l-3.3-2.05q1.35-5.1 4.8-12.8 2.75-6.3 4.8-9.8 0.7-1.25 1.75-1.6"/>
  </g>
  <g fill="#d29660">
   <path d="m265.25 139.85q8.7 6.8 21.7 18.35 11.45 10.25 21.5 20 5.75 5.65 6.4 14.4 0.6 8.35-3.8 15.15-5.45 8.45-14.85 11.15-9.2 2.55-15.5-2.05-7.45-5.55-22.85-18.8-15-12.95-21.75-19.6-6.75-6.6-7.1-17.05-0.4-10 5.05-16.45 6.15-7.15 16.05-8.45 9.3-1.2 15.15 3.35"/>
   <path d="m96.45 178.15q-9.95-7.9-21.3-11-12.25-3.2-23.85-0.15l-7.5-2.15q-2.45-0.65-4.65 0.85-2.95 2-9.55 7.25-0.15-1.75 0.4-3.6 0.55-2.05 1.8-3.4 1.95-2.25 7.5-7.4 5.5-5.25 8.85-8 12.55-10.35 32.15-10.25 21.6 0.05 40.05 13.65 13.6 10 20.8 31.65 7.45 22.45-1.25 32.35-3.2 3.6-11.6 10.45-6.85 5.6-13.75 10.6-2.95 2.1-6.2 2.5-3.3 0.3-5.35-1.15l2.45-2.2 2.65-3q1.25-1.8 4.2-5 2.9-3.15 4.9-4.9 1.75-1.55 2.25-3.2 0.3-1.25 0.05-3.45-0.95-11.3-7.25-22.15-6.1-10.55-15.8-18.3"/>
   <path d="m167.55 440.85q-2.35-1.5-3.2-3.5-0.7-1.75-0.3-4.45 0.7-5.25 2.3-14.05 1.85-10.05 3.55-17.4 1.6-7.15 6.55-11.2 3.5-2.95 10.2-5.15-0.85 4.05-1.5 9.75-0.4 4.5 1.6 5.8 10.6 7.35 33.95 8.05 22.65 0.75 37.4-5.15 5.2-2.15 4.2-11.15 6.1 0.55 9.8 4.15 3.2 3.1 3.4 7.3 0.15 3.35-0.3 16.8l-0.65 16.3q-0.15 3.1-1.1 4.8-0.9 1.55-2.9 2.9-7.15 4.7-20.25 7.35-12.95 2.6-27.9 2.5-34.8-0.3-54.85-13.65"/>
   <path d="m420.85 399.6q4.05 3.75 4.75 7.65 0.9 5 2 16.5l1.4 16.3q0.35 5.3-3.2 8.6-6.1 5.85-17.75 9.3-11.5 3.45-25.55 3.8-31.9 0.8-54.7-13-7-4.2-7.8-13-0.4-3.45 0-12.7l0.65-14.35q0.25-5.3 4.4-8.65 3.6-2.95 8.3-3.15 0.1 4.95 0.7 7.15 0.9 3.15 3.4 4.85 9.4 6.8 31.75 8.15 24 1.45 39.15-6.1 6.6-3.2 4.25-15 4.05-0.25 8.25 3.65"/>
  </g>
  <path d="m321.65 48.6 0.9 4q1.1 5.4-4.7 11.3-4.85 5.1-11.45 7.8-0.75-5.65-2.5-14.8t-3.1-14.15q-0.9-3.55 1.9-6.25 1.3 0.65 1.7 2.15 2 8.35 3.2 11.65 0.85 2.2 3.4 1.8l5-1.25q3.1-1.05 5.65-2.25" fill="#00667c"/>
  <g fill="#5c9e9f">
   <path d="m313.65 22.85q1.9 1.65 2.5 3.7 3.75 14.25 5.5 22.05-2.55 1.2-5.65 2.25l-5 1.25q-2.55 0.4-3.4-1.8-1.2-3.3-3.2-11.65-0.4-1.5-1.7-2.15l5.55-5.9q3.8-4.5 5.4-7.75"/>
   <path d="m322.85 54.7q-0.55-4.6-2.6-11.65 13.2-0.3 32.4 10.1 18.5 10.15 27.9 22l-0.5 5.15q-11.3-11.55-29.85-19.85-18.45-8.2-27.35-5.75"/>
   <path d="m297.4 238.65q41.85-2.5 73.6-23.1 34.8-22.6 43.2-58.85-0.2 25.25-9 47.1-8.55 21.4-24.3 37.3-32.95 33.3-83.65 33.8-49.5 0.55-80.65-26.6-32.2-28.05-34.7-77.45 7.8 35.15 42.15 53.55 31.5 16.85 73.35 14.25"/>
  </g>
  <path d="m376.15 103.65q3.85 7.75 9.4 16.55 5.8 9.05 11.45 15.9-2.4 5.7-4.55 11.55-5.15-8.35-10.2-22.15-5.15-13.75-6.1-21.85" fill="#00667c"/>
  <g fill="#5c9e9f">
   <path d="m397.55 153.75q-2.1-1.2-5.1-6.1 2.15-5.85 4.55-11.55 4.35 5.4 7.75 8.35 1.7 1.4 4.2 1.95l4.15 0.5q0.4 2 0.5 6.15l0.15 6.35q-3.75-0.45-9.05-2.45-4.75-1.7-7.15-3.2"/>
   <path d="m389.55 230.65 4.6 5.1q-15.5 25.2-43.7 38.4-25.7 12-56.25 11.8-29.45-0.2-53.85-11.55-25.35-11.75-36.6-31.7l3.35-4.05q14.95 17.8 40 27.4 24.05 9.25 51.25 8.7 27.85-0.6 51.3-11.4 25.2-11.6 39.9-32.7"/>
   <path d="m253.2 342.2q-1.05 1.45-1.8 7.75-0.65 5.1-0.65 8.25 0 2.4 0.3 3.55 0.35 1.3 1.4 2.45l4.15 5.1 3.9 5.4q1.4 2.15 1.4 5.85l0.25 7.85 0.4 8q0.15 2.5-1.35 4.55-1.45 1.85-3.9 2.85l-6.45 2.05-7.55 1.6q2.35-7.7 3.35-13.5 0.95-5.75 1.15-13.45 0.2-3.35-2.45-7.6-2.45-3.9-5.7-6.35-5.8 2.95-10.4 4.7-5.7 2.05-7.45 1.4-1.8-0.65-5.9-6.6-3.9-5.7-4.3-7.65-0.25-1.6 0.45-5.65 0.7-3.7 1.65-6.8 1.5 3.85 5.2 7.8 3.6 3.65 6.1 4.3 4.2 1 8.95 0.95 7.15 0 11.35-2.75 2.6-1.7 2.5-5.6-0.05-3.65-2.3-6.6-2.9-3.75-8.3-7.9-5.6-4.3-7.85-4.35-1.6-0.1-5.8 1.8-4.45 1.85-7.25 3.9 0.05-3.65 0.9-9.25 0.75-5.4 1.6-8.65 9.95 5.1 25.2 9.35 13.6 3.8 24.35 5.1-4.7 1.95-8.95 4.15-5.4 2.75-6.2 4"/>
   <path d="m179.25 498.75 0.15-8.85q0-1.85 0.95-3.2 0.85-1.2 2.9-2.55l20.2-14.7 19.4-14.85q14.05-0.5 25.05-2.3 15.95-2.55 22.75-7.3l-0.45 21.6q0 4.35-3.85 6.45-7.85 4.2-41.85 18.25-29.2 12.2-45.1 18.3-0.2-3.25-0.15-10.85"/>
  </g>
  <path d="m261.5 412.65q9.4-3.35 13.8-8.3 0.15 5.6-0.1 16.1-0.25 11.45-0.7 17.3-0.35 4.45-4.65 7.55-4.05 2.75-15.05 5.4-10.35 2.45-18.45 2.95 1.3-7.75 1.55-18.6 0.25-10.3-0.55-18.35 13.65-0.4 24.15-4.05" fill="#ac7b4d"/>
  <path d="m262.5 392.4q6 0.85 9.5 4 3.4 3.1 3.45 7.65-4.5 5.9-17.4 9.35-10.95 2.95-22.5 3.1 2.7-0.7 5.05-3.35 2.3-2.65 3-5.6 5.6-0.75 14.15-4.15 3-1.2 4.05-3.9 0.95-2.45 0.7-7.1" fill="#ac7b4d"/>
  <path d="m345 344.4q-1.8 1.95-0.9 5.15 1 3.6 4.65 5.65 4.35 2.55 11.75 4.9 7.85 2.35 11.55 1.9 2.8-0.4 7-3.95 4.35-3.8 6.35-8.05 0.75 4.05 0.7 6.15-0.2 3.6-4.1 9.2-3.8 5.6-6.45 6.3-2.25 0.6-8.9-1.05-5.6-1.45-9.5-3.15-2.75 2.3-5.65 5.8-2.75 3.3-3.2 4.65-1.05 3.05 0.1 15.7 1.15 12.95 3.35 21.55-17.45-4.45-18.05-13.7-0.5-7.1 0-21.5 0.1-3.05 1.1-5.35 0.9-2.05 3.1-4.9l3.7-5.15q1.75-2.85 1.55-5.25-0.25-3.5-1.15-7.75-1.3-5.9-3-7.75-2.05-2.25-6.45-5.65-4.5-3.5-7.1-4.75 11.15-1.05 26.95-6 15.5-4.95 24.05-10.05 5.1 7.45 6.7 21.4-4.05-3.05-9.4-6.05-5.7-3.25-7.25-3.05-2.3 0.25-10.05 5.55-7.85 5.35-11.45 9.2" fill="#5c9e9f"/>
  <path d="m334.35 403.95q0.95 3.3 3.05 4.85 4.75 3.65 14.35 6.35 0.6 2.8 2.1 5.5 1.9 3.35 4.5 4.95-14.05-1.6-23.4-6.3-11.95-6.1-12.7-15.95 1.95-2.5 4.8-4.2 3.2-1.85 6.6-2.1-0.25 3.85 0.7 6.9" fill="#ac7b4d"/>
  <path d="m356.65 425.1q-0.55 6.85 0.15 17.1 0.8 11.3 2.6 17.55-9-1.05-18.5-4.55-10.4-3.8-15.5-8.6-5.5-5.1-5.5-11.75 0-7.85 0.4-15.85 0.6-12.5 1.8-16 0.15 8.8 11.05 15.15 9.85 5.8 23.5 6.95" fill="#ac7b4d"/>
  <path d="m425.8 488.25q5.45-0.55 13.4-2.45 7.8-1.95 9.95-3.15 2.25-1.2 3.6-1.35 1.5-0.05 1.7 1.1 0.25 1.8-0.2 10.35l-0.7 10.45q-0.35 3.75-4.75 4.8l-29.1 6.25-27.95 5.7q-3.1 0.65-5.1 0-1.55-0.45-3.95-2.4-52.05-40.4-55.6-43-3-2.1-3.2-6.25-0.2-4.3-0.15-11.05 0.1-7.45 0.4-11.65 4 4 12.4 7.9 8.35 3.95 15.05 5 5.1 5.2 20.8 19.1l19 16.55q2.2 2 5.1 0.8 5.2-1.95 12.6-3.75 8.8-2.2 16.7-2.95" fill="#5c9e9f"/>
  <path d="m311.05 181.75q4.45 6.4 3.6 14.7-0.75 7.55-5.3 13.15-6.2 7.55-14.6 9.7-8.2 1.95-13.85-2.15-6.3-4.75-10.85-8.9 12.05 8.35 21.3 6.75 7.8-1.3 12.9-9.45 3.95-6.1 3.35-13.55-0.45-6.85-4-10.5l7.45 0.25" fill="#ac7b4d"/>
  <path d="m123.7 60.45-4.5 7.9q-4.75-8.15-16.55-26.5-11-17-16.4-24.85l2.85-1.85q7.5 9.35 17.4 22.25 10.65 13.95 17.2 23.05" fill="#00667c"/>
  <path d="m118.65 90.6q4.85 5.75 8 6.7-0.9 2.45 0.5 4.75 5.15 8.7 8.85 12.45 2.05 2 2.75 3.85 0.45 1.2 0.5 3.15l-0.3 7.75-0.95 9.3q-2.75 1.3-3.65 2l-11.75-9.45q-7.7-6.45-8.95-8.25-1.6-2.4-3.9-13.75-2.35-11.5-1.8-14.85 0.9-4.8 4.95-13.95 0.75 4.4 5.75 10.3" fill="#00667c"/>
  <path d="m126.25 99.4q-0.15-0.95 0.4-2.1l2.05-4.85q1.6 6 8.15 13.55 6.35 7.35 15.05 13.55 20.6 14.75 33.3 10.85-1.5 4.75-2.95 13.85-1.45 9.05-1.2 12.15l-6.3 0.9-5.85 0.5q-3.4 5.8-9.15 13.75-6.15 8.35-10.1 12.25-1.9 10.8-5.45 18.1-0.5-6.55-2.3-13.5-1.85-7-4.55-12.3 3.7-0.25 6.95-2.55 3.45-2.6 5.2-6.7l0.6-1.1 1.1-0.7q6.75-2.45 11.6-9.15 4.6-6.35 4.15-11.65-2.2-3.95-5.3-7.3-1.35-1.4-4.75-2.25l-5.95-0.25q-7.75 1.8-12.5 3.85 0.45-3.4 0.7-9.5 0.2-5.9-0.05-7.9l-0.55-3.2q-0.45-1.4-1.8-2.5-1.65-1.3-5-5.9-3.6-4.9-4.85-7.9-0.6-1.3-0.65-2" fill="#5c9e9f"/>
  <path d="m70.75 166.55q-10.5-1.8-19.55 0.45-2.3-0.85-6.9-2.05-3.3-0.85-5.25 0.7l-4.7 3.5-4.7 3.75q-0.3-0.85-0.35-2.05 0-1.3 0.3-2.15 24.9-13.4 51.25-4.85 27.55 8.9 39.95 37.15 0.5 1.2 1.15 1.4l1.4-0.3q15.75-9.15 17.7-15.65 2.7 7.25 3.25 15.75 0.55 10.75-3.75 15.15-4.75 5-13.1 11.75-6.9 5.65-12.65 9.65-2.75 1.95-5.95 2.5-3.2 0.5-6.05-0.65 2.65-2.15 7.6-7.85l6.6-7.65q1.05-1 1.75-2.95 0.8-2.1 0.55-3.85-4.8-29.7-27.85-43.95-9.7-5.95-20.7-7.8" fill="#ac7b4d"/>
  <path d="m63.4 184.25-36.25 29.5-2.9 1.95q-1.25 0.35-3.25-0.6-11.4-5.45-12.85-6.8-0.95-0.9-2.75-5.15-1.8-4.3-2.05-6.4l9 4.9q4.85 2.55 7 3.5 1.8 0.85 2.8 0.8 1.5-0.1 3.2-1.75 4.75-4.6 17.9-15.9 15.85-13.7 21.15-16.95 0.45 1.1 0.9 3.85l0.45 4.4q0 1.8-0.45 2.65-0.4 0.85-1.9 2" fill="#00667c"/>
  <g fill="#5c9e9f">
   <path d="m103.8 239.8q-1.5 1.5-17.3 10.1-15.25 8.35-18.1 9.5-4.45 1.8-7.3-1.1-3.8-4.05-6.4-7.55 28.15-15.15 45.45-28.65 2.95-2.3 4.3-4.8 1.4-2.55 1.25-5.8-0.3-8.35-3.65-18.1-3.7-11.15-9.65-18.15 12.45 8.2 19.65 21.05 5.85 10.45 7.25 22 0.55 4.3-3 7.6-0.95 0.95-6.15 6.85l-6.35 7.05"/>
   <path d="m51.15 244.65q0 1.6 4.1 6.8 3.35 4.2 7.15 8.15-2.3 6.7-9.05 29.75-0.5 1.6-1.55 2.25l-2.55 0.05q-3.8-1.6-6.6-1.8-1.45-0.1-2.8-1.05-1.45-1.1-1.85-2.65-1.6-6.2-4.1-22.2-2.7-16.6-2.65-21.45 2.5 1.75 9.3 2.5l10.6-0.35"/>
   <path d="m37.7 285q0.95 2.95 2.3 3.9 0.7 0.5 2.45 0.65l3.4 0.75q2.25 0.65 3.9 1.45-0.75 3.5-3.2 5.2-2.5 1.65-5.55 0.45-3.55-1.45-7.35-3.55-4.45-2.45-5.35-3.85-1.25-2-6-14.35-3.85-10.05-6.8-18.4 3.85 0.55 8.85-2.6 5.45-3.45 6.7-8.3 0.9 7.7 3.25 21.3 2.35 14.15 3.4 17.35"/>
   <path d="m1.35 255.55q1.85 3.5 6.5 4.5 4.1 0.8 8.15-0.8 1.3 4.7 5.75 16.2 4.9 12.55 6.55 14.55 0.85 0.95 5.65 3.7 4.7 2.7 7.05 3.7-1.2 1.8-2.5 2.4-1.5 0.75-3.6 0-2.5-0.8-7.6-3.7-5.65-3.15-7.65-5.15-3.6-3.6-9.5-15-5.9-11.45-8.8-20.4"/>
   <path d="m2.7 278.65q2.25-0.25 3.65-2.3 1.55-2.25 1.15-5.4 1.8 4.1 4.95 9.6 3.4 6.1 6.3 9.85-6.3-2.6-9.6-4.65-5.65-3.45-6.45-7.1"/>
  </g>
  <g fill="#0f141b">
   <path d="m296.5 23.8q-0.4 1.5-1.05 1.35-0.6-0.2-0.35-1.65 2.55-12.7 4.75-19.2 0.35-1.4-0.85-1.55-4.35-0.3-21.5-0.3-17.45 0-25.2 0.3-1.05 0.15-0.25 0.9l12.15 11.75 12.7 11.55q1.35 1.15 0.85 1.6-0.5 0.5-1.8-0.5-5.2-4.1-13.4-11.6l-12.15-11.45q-1.9-1.9-1.45-3.05 0.45-1.05 2.9-1.2 8.4-0.35 23-0.6 18.5-0.4 24.55 0.05 1.95 0.2 2.8 1.55 0.8 1.25 0.2 2.85-2.95 8.3-5.9 19.2"/>
   <path d="m301.1 2.9q-13 5.4-15 6.4-0.9 0.5-0.85 2.3l0.8 7.8q0.1 1.7-0.6 2.4-0.7 0.8-2.5 0.65l-12.7-0.35-1.65-1.7q5.05-0.4 14.25 0.25 1.45 0.25 1.25-1.25-0.5-4.75-0.65-7.6-0.05-1.9 0.2-2.55 0.35-0.85 1.55-1.5 1.35-0.7 14.5-6.4l1.4 1.55"/>
   <path d="m314 24.75q-1.2-1.9-7.15-4.85-4.6-2.25-9-3.85l0.45-1.75q15.25 5.85 17.5 9.45 1.15 1.8 4.2 13.1 2.5 9.6 3.9 16.35 1.5 7.05-8.2 14.45-10.65 8.1-27.55 10-12.85 1.5-25.8-3.1-13.55-4.8-14.8-12.35-0.55-2.95 1.65-15.5 2.05-11.55 3.6-16.55 0.9-2.8 5.45-6.55 3.85-3.15 8.2-5.35l1.25 1.4q-4.7 2.45-8.4 5.55-3.85 3.3-4.6 5.65-1.45 4.9-3.2 16.4-1.8 11.8-1.35 14.6 1 5.65 12.6 10.1 12.25 4.65 25.2 3.15 16.05-1.9 26-9.3 8.75-6.5 7.5-12.3l-3.8-16.3q-2.65-10.9-3.65-12.45"/>
   <path d="m312.2 26.95q-1.35 2.95-4.85 5.95-0.95 0.8-1.5 0.4-0.5-0.45 0.45-1.4 2.5-2.45 4.7-5.7 0.7-1.1 1.3-0.8 0.5 0.35-0.1 1.55"/>
   <path d="m316.35 51.8q-3.25 1.1-6.1 1.45-2.9 0.35-3.55-1.9-1.85-5.9-3.4-12.85-0.15-0.7-0.5-0.95t-1.1-0.4q-11.95-1.75-19.15-3.4-0.55-0.2-0.55 0.25l0.1 5.25q-0.15 2.25-2.55 2-5.75-0.7-12.95-3.05-9.25-2.95-13.05-6.55l0.8-2.45q2.8 3.4 11.65 6.5 7.35 2.55 13.35 3.3 0.4 0.1 0.55-0.55 0.3-2 0.25-4.7 0-2.65 2.55-2 8.3 2 19.45 3.6 1.35 0.15 2.05 0.7 0.7 0.65 1.05 2 0.95 4.7 3.45 12.4 0.2 0.65 0.45 0.75l0.95 0.05q2.75-0.3 6.05-1.45 3.25-1.15 5.05-2.45l0.45 2q-2 1.3-5.3 2.45"/>
   <path d="m284.55 57.65q0.25 6.35 0.6 10.2 0.05 0.7 0.8 0.7l7.1-0.7q4.9-0.7 7.9-1.6 0.35-0.1 0.3-0.85l-0.9-5.6q-0.15-0.35-0.65-0.2l-5.05 1.1q-2.3 0.2-2.7-1.7-0.95-6.25-1.25-9.85-0.05-1.15-0.95-1.15l-4.6-0.15q-0.7 0-0.7 0.85-0.15 2.4 0.1 8.95m0.5-11.7 5.1 0.15q1.3 0 1.8 0.55 0.5 0.6 0.55 1.95 0.3 3.7 1.35 9.55 0.15 0.75 0.85 0.55l4.75-1.2q2.25-0.7 2.8 1.6l1.3 6.5q0.15 2.1-1.8 2.7l-8.45 1.7-7.65 0.8q-2.55 0-2.75-2.5-0.85-13.3-0.4-20.05 0.2-2.5 2.55-2.3"/>
   <path d="m274.85 48.7q0.55 11.1 0 18.15-0.15 2.9-2.8 2.45l-6.35-1.35q-1.4-0.25-1.85-0.9-0.4-0.65-0.25-2.15l1-18.25q0.2-2.9 2.95-2.1l5.25 1.35q2.05 0.45 2.05 2.8m-8.4-1.65-0.65 17.65q0 0.7 0.15 0.9t0.6 0.3l5.3 1.1q0.85 0.2 0.9-0.75 0.65-9.2 0.4-17.5 0-0.9-0.9-1.15l-4.9-1.15q-0.9-0.2-0.9 0.6"/>
   <path d="m352.85 51.8q16.5 8.9 30.05 23.85 30.35 33.5 32.05 77.6 1.1 27.4-8 50.95-8.6 22.2-25.3 38.75-16.1 16.05-37.6 24.7-21.5 8.7-45.1 8.7-56.3 0-87.7-30.55-31.05-30.3-31.8-84.9-0.5-34.5 21.7-68.15 20.95-32 48.75-43.9l-0.3 2.75q-26.3 12.05-46.3 42.95-21.2 32.85-20.95 66.55 0.3 53.35 31.3 83 30.75 29.4 85.2 29.4 22.7 0 43.45-8.4 20.85-8.45 36.65-24.05 16.4-16.25 24.9-37.9 9.05-23.1 8.2-49.85-1.25-42.55-30.65-75.5-13.1-14.65-29.05-23.5-16.15-8.95-31.8-10.1l-0.35-2.4q16.15 1 32.65 10"/>
   <path d="m320.25 42.6q9.55 1.4 12.75 9.55 3.35 8.45-3.6 16.3-13.85 15.8-39.45 18.1-24.65 2.25-40.7-9.05-7.55-5.35-8.95-12.7-1.35-6.7 2.75-11.3l5.3-2.5q-6.35 3.8-5.95 11.25 0.45 7.7 8.3 13.2 14.95 10.6 38.65 8.55 24.9-2.2 38.1-17.2 5.9-6.8 3.55-13.45-2.3-6.5-10.45-8.6l-0.3-2.15"/>
   <path d="m375.5 70.2q-1.15 15.45-24.4 28.8-23.2 13.35-55.9 17.2-29.2 3.4-55.6-7-28.05-11-27.45-29.1l1.8-1.8q-0.6 17.95 26.6 28.6 25.55 10 54.45 6.6 32.35-3.85 55.55-17.15 23-13.3 23-27.95l1.95 1.8"/>
   <path d="m379.05 85.1q-10.15 15.65-32.75 26.7-22.85 11.15-50 13.45-30.15 2.6-56.85-6.25-30.3-10.1-34.35-29.5l1.6-2.1q3.5 18.55 31.8 28.55 26.15 9.25 57.7 6.6 27.85-2.35 50.85-13.95 23-11.65 32.35-27.95l-0.35 4.45"/>
   <path d="m308.2 229.6q33.8-3.75 61.15-18.3 27.3-14.6 43.05-37.3l-0.25 3.95q-15.3 22.1-42.75 36.45-27.4 14.4-61.1 17.9-31.8 3.4-61.35-2.9-36.85-7.8-60.4-29.5l-0.55-3.35q20.8 19.4 53.9 28.25 32.7 8.75 68.3 4.8"/>
   <path d="m301.2 242.25q33.4-2.1 61.4-14.9 28.45-12.95 45.75-34.5l-0.7 3.95q-17.5 20.95-45.45 33.5-27.8 12.6-60.9 14.65-27.7 1.65-53.85-4.1-32-7.15-54.8-24.4l-1.1-3.5q19.85 15.85 49.2 23.6 28.9 7.7 60.45 5.7"/>
   <path d="m393.1 226.6q-16.65 18.3-39.5 29-21.95 10.25-46.95 12.35-24.9 2.05-49.45-4.25-25.15-6.5-46.65-20.85l-3.15-4.75q21.65 15.4 47.4 22.4 25.15 6.8 50.85 4.65 25.95-2.15 48.8-13.15 23.8-11.4 41.25-31.1l-2.6 5.7"/>
   <path d="m308.95 177.4q6.1 5.9 6.85 14.6 0.8 8.8-4.1 16.35-6.1 9.5-16.1 11.95-9.25 2.2-15.7-2.55-7.55-5.55-23.05-18.95-15.15-13-21.75-19.5-7.55-7.3-7.8-18.1-0.3-10.05 5.6-16.95 6.5-7.55 16.3-9.1 9.7-1.5 16.5 3.8 8.8 6.85 21.75 18.45 11.7 10.4 21.5 20m-44.6-36.65q-5.85-4.5-14.7-3.15-9.1 1.35-14.8 8-5.35 6.25-5.1 15.55 0.25 9.95 6.95 16.5 6.55 6.45 21.55 19.45 15.4 13.35 22.85 18.8 6.1 4.55 14.9 1.85t13.9-10.65q4.35-6.8 3.65-14.85-0.7-7.95-6.15-13.25-9.75-9.5-21.35-19.9-12.9-11.55-21.7-18.35"/>
   <path d="m247.9 151.2q3.75 0 6.2 2.7 2.35 2.55 2.35 6.3 0 3.85-2.7 6.2-2.55 2.2-6.4 2.2-3.9 0-6.45-2.9-2.3-2.7-2.15-6.25 0.1-3.4 2.55-5.75 2.55-2.55 6.6-2.5m-4.65 3.65q-1.95 1.8-2.05 4.6-0.1 2.9 1.6 4.9 1.7 2.05 4.6 2.1 2.95 0.15 4.8-1.7 1.8-1.8 1.8-4.65t-1.65-4.85q-1.75-1.95-4.45-2.05-2.75-0.1-4.65 1.65"/>
   <path d="m293.65 188.4q2.45 2.75 2.45 6.35 0 4.5-2.7 7.2-2.4 2.5-6.15 2.5-4.4 0-7.05-2.75-2.5-2.55-2.65-6.8-0.1-3.9 2.5-6.55 2.8-2.75 7.2-2.75 3.8-0.05 6.4 2.8m-6.4-0.75q-3.5 0-5.6 2.1-1.95 2-1.75 5.1 0.1 3.5 2.1 5.5 1.9 2 5.3 2 2.5 0 4.4-1.95 2.05-2.1 2.05-5.7 0-3-2-5.05-1.95-2-4.5-2"/>
   <path d="m303.95 180.65q5.3 5.95 5 14.05-0.3 7.3-5.05 13.65-4.45 6-11.4 7.55-5.95 1.35-10-1.05-1.1-0.65-0.85-1.2l1.5-0.1q5.35 2.15 10.9-0.25 4.75-2 8.1-6.4 4.25-5.7 4.5-12.6 0.2-7.15-4.25-12.1-5.75-6.6-18.65-18.35-13.3-12.1-25.5-21.75-1.5-1.15-0.95-1.75 0.45-0.6 1.9 0.6 12.35 9.6 25.75 21.55 13.3 11.8 19 18.15"/>
   <path d="m273.85 124q-8.15 7.35-13.4 13.45l-2.65-0.7q5.6-6.55 12.75-12.95l3.3 0.2"/>
   <path d="m229.1 157.4-7.45 2.6-3 0.5q-1.3-0.15-2.95-1.3-18.15-12.8-27.2-38.3l1.15-3.25q4.45 12.95 11.35 22.95 7 10.15 16 16.45 0.95 0.65 1.8 0.7l2.25-0.35q4.85-1.45 8.25-2.8l-0.2 2.8"/>
   <path d="m224.1 179.7 4.55 11.85-2.3-0.45-4.15-10.7-1.15-2.1q-0.45-0.55-1.25-0.75l-11.55-2.55q-1.7-0.3-2.6-1.2-0.8-0.7-1.5-2.4-15.2-32.4-18.75-41.2l1-3.45q2.1 5.6 10.8 24.05l9.25 19.45 0.95 1.55q0.45 0.45 1.45 0.65 3.25 0.55 11.75 3.15 1.4 0.45 2.1 1.35 0.65 0.75 1.4 2.75"/>
   <path d="m243.45 185.45q-2.1 4.2-3.95 6.5l-1.85 1.55-2.65 0.2-11.7-2.15-1.55 0.15q-0.6 0.3-1.15 1.25-2.05 3.5-4.7 9.5-2.85 6.45-4.75 12.55l-2.05-1q2.1-6.4 4.95-12.8 2.6-6 4.75-9.45 1.05-1.8 1.85-2.25l2.65-0.05 11.7 2.25 1.75-0.1 1.15-1q1.75-2.25 4.05-6.4l1.5 1.25"/>
   <path d="m251.95 193.05-9.35 9.15q-1.3 1.1-2.25 1.35l-2.1-0.05q-5.1-1.3-11.4-4.25-0.7-0.25-1.2 0.45l-5.65 8.5-5.4 8.65-1.9-1.05q6-10.05 11.1-17.65 0.8-1.2 1.65-1.45t2.1 0.4q6.2 3.1 11.15 4.4 1.4 0.35 2.65-0.9l8.9-9 1.7 1.45"/>
   <path d="m241.8 201.75 3.4 7.7q0.45 1.05 2.2 1.05 3.4-0.15 6.6 0.1 2.5 0.3 4.1 3.25 5.15 8.95 11.25 17.35l-2.7-0.05q-6.6-9.25-10.5-16.05-1.05-1.8-2.6-2.1l-6.15-0.4q-1.75 0-2.65-0.5-0.9-0.45-1.45-1.75l-3.3-7.75 1.8-0.85"/>
   <path d="m326.4 124.1q-0.45 0.35-0.75 1.1-2.05 4.8-4.25 12.05-1.05 3.4-4.6 2.9-17.65-2.55-29.35-3.2l-1.55 0.15q-0.45 0.1-1 0.7-5.1 5.2-9.25 10.65l-1.75-1.25q4.35-5.55 9.5-10.85 0.95-1 1.75-1.25l2.45-0.2q13.35 0.75 29.35 2.8 1.6 0.25 2.05-1.15 1.55-5.25 4.5-12.2 1.05-2.25 3.55-2.7l13-2.2 1.2-0.4 0.5-0.8q0.8-2.35 1.15-6.25l2.05-0.85q-0.25 4.55-1.3 7.9-0.35 1.15-1 1.65l-2.05 0.65-13.1 2.4q-0.8 0.1-1.1 0.35"/>
   <path d="m349 125.65q-4.25 0.75-14.75 3.7-1.05 0.35-1.55 1.55-2.45 6.1-5 17-0.55 1.95-1.45 2.85-0.95 0.9-2.65 0.95l-40.75 3.1-2.25-1.95 21.75-2.15 20.25-1.55q2-0.05 2.45-1.85 0.9-3.6 2.85-9.2 1.6-4.8 2.95-8 0.5-1.35 1.05-1.9t1.7-0.9q11.15-3 14.75-3.55 1.3-0.2 1.35-2.1 0.2-5.05-0.2-12.95l1.95-0.95q0.55 9.05 0.35 14.05-0.1 3.45-2.8 3.85"/>
   <path d="m397.55 137.15q-6.65 17.1-8.5 23.15-0.55 1.6-1.35 2.3-0.9 0.7-2.7 0.8l-11 0.55q-0.95 0.1-1.35 0.4-0.45 0.4-0.8 1.4-1.55 4.7-8.4 29-0.8 2.4-1.5 3.15-0.85 0.9-3.1 1.6-11.8 3.6-20.05 3.95-1.95 0.1-2.9 0.6-0.9 0.55-1.75 1.95-4.15 7.5-14.05 23.3l-2.95 0.55q7.7-12.1 14.85-25.25 1.1-2 2.75-2.85 1.4-0.75 3.85-0.9l10.4-1.4 8.85-2.25q1.4-0.4 2.05-1.15 0.6-0.65 1.05-2.05 7.4-24.4 9.05-29.15 0.5-1.65 1.25-2.25 0.8-0.55 2.65-0.7l10.85-0.5 1.55-0.4q0.45-0.3 0.75-1.35 2.5-7.95 8.9-24.35l1.6 1.85"/>
   <path d="m422.85 274.75-16.35-21.05q-10.6-13.3-17.8-21.9l1.8-2.05 18.25 22.15 16.8 21.35q2.45 3.2-0.05 6.3-22.8 27.95-54.75 42.6-32.05 14.65-71.95 15.3-39.8 0.55-70.2-11.45-37.15-14.65-51.9-45.55-0.8-1.6-0.6-3.4 0.15-1.75 1.1-3.1 2.35-3.4 13.1-16.85 10.7-13.55 15.7-19.45l2.15 2.1q-5.4 6.35-14.8 18.25-9.85 12.55-13.2 17.5-0.7 1.05-0.65 1.85l0.5 1.55q13.45 27.25 44.3 41.4 30.6 14 74.55 13.3 39.75-0.65 70.55-14.55 30.85-13.95 53.4-41.55l0.65-1.3q0.05-0.65-0.6-1.45"/>
   <path d="m377.55 316.7q-4.45-10.45-12.9-28.5-8-17.15-12.75-26.35l1.9-1q5.05 9.45 12.9 25.7 9.05 18.75 13.15 28.85l-2.3 1.3"/>
   <path d="m298.25 274.8-1 60.7h-2.85q0.05-10.4 0.7-31.45 0.5-19.2 0.95-29.25h2.2"/>
   <path d="m239.6 262.9q-9.25 19.1-21.9 55.65l-2.4-1.15q11.75-34.6 22.35-55.45l1.95 0.95"/>
   <path d="m235.45 336.25q-4.65-3.45-6.45-3.45-1.85 0-6.5 2.45-4.55 2.45-5.6 3.8-1 1.35-2.6 9.35-1.7 8.2-1.15 10.15 0.5 2.05 3.75 7 3.4 5.05 4.9 5.8 1.5 0.8 9-1.9 7.15-2.55 12.45-5.5 1.25-0.75 1.65-0.15 0.3 0.65-0.9 1.35-5.65 3.45-13 6.35-8.15 3.1-10.15 2-2.15-1.15-5.9-6.5-3.8-5.2-4.45-7.75-0.55-2.25 1.15-11.35 1.75-9 2.9-10.55 1.2-1.6 6.65-4.15 5.55-2.7 7.8-2.7 2.35 0 7.9 4.35 4.75 3.85 8.4 8.05 1.2 1.35 0.7 1.8-0.45 0.5-1.75-0.8-4.15-4.3-8.8-7.65"/>
   <path d="m214.85 317.2q-0.3 4.05 0.3 9.85 0.5 5.3 1.6 10.25l-1.9 2q-1.25-5-1.95-12.15-0.75-6.85-0.45-11.4l2.4 1.45"/>
   <path d="m193 368.7q-1.8 2.65-4.2 12.9-2.3 10-2.5 15.45-0.05 1 0.6 1.85l2.15 1.8q10.05 6.25 34.1 6.75 24 0.45 34.2-5.25l2.9-2.35q0.7-0.95 0.7-2.4l-0.25-17.6q-0.1-1.85-0.4-2.7-0.25-0.85-1.15-2.05-5.4-7.6-6.95-9.35-1.5-1.75-2.1-3.15-0.7-1.5-0.65-3.3 0.2-8.4 1.6-15 0.4-1.75 1.15-2.75 0.8-1.05 2.25-1.9 6.1-3.4 12.65-6.05l5 0.7q-8 3.05-16.35 7.7-1.85 1-2.3 3.05-1.05 4.75-1.35 14.2 0 1.6 0.35 2.55 0.45 0.95 1.75 2.45l7.15 9.1 1.65 2.7 0.45 3.6 0.3 17.8q0 4.45-5.05 7.05-11.35 5.9-35.1 5.65-24.2-0.35-35.55-7-4.65-2.75-4.45-6.1 0.2-5.4 2.6-15.9 2.5-11.05 4.45-14 1.9-2.75 9.5-8.65 6.5-5.1 12.4-8.9l-0.3 3.25q-5.4 3.4-11.2 8.15-6.25 5.05-8.05 7.7"/>
   <path d="m208.9 397.6q0-9.2 3.7-15.2 0.85-1.2 1.35-0.9 0.6 0.25 0 1.6-2.95 6.5-3.55 14.6-0.15 1.65-0.8 1.65-0.65-0.05-0.7-1.75"/>
   <path d="m186.55 386.65q-13.2 4.05-15.15 14.35l-3.3 16.9q-2.4 12.5-2.75 16.8-0.1 1.1 0.15 1.85 0.35 0.8 1.35 1.9 5.35 5.85 23.45 10.5 16.55 4.25 29.5 4.35 19.2 0.15 35.55-3.9 16.85-4.25 17.45-9.75 0.9-7 1.15-35.95 0.1-3.6-2.85-6.35-3.15-2.95-8.55-3.7l-0.05-2.3q6.2 0.6 10.2 3.95 4.05 3.4 4.05 8.3-0.25 29.4-1.05 36.45-0.85 7.25-18.8 11.8-16.35 4.25-37.2 4.1-13.95-0.05-30.65-4.5-18.2-4.95-24.55-11.45-2.2-2.25-1.85-5.4 0.5-5.6 6-34.1 1.25-6.35 5.9-10.5 4.65-4.2 12.2-5.8l-0.2 2.45"/>
   <path d="m168.85 441.65-21.75 16.4q-16.9 12.85-20.35 15.1-1.35 0.9-1.45 3.1-0.1 4.15 0.45 17.7 0 1.3 0.3 1.85 0.3 0.6 1.15 0.8l24.65 6.5 21 5.35 4.6 0.2q1.8-0.25 4.75-1.4 18.05-7 46.65-19.15 28.75-12.1 37.25-16.35 1.5-0.8 2.05-1.5 0.5-0.7 0.55-2.1 0.25-10.55 0.85-22.85 1.2-0.85 2.35-1.75-0.25 6.5-0.45 24.65 0 2.15-0.9 3.5-0.95 1.35-3.05 2.4-9.05 4.55-38.45 16.95-28.1 11.9-45.8 18.75-3.7 1.4-5.75 1.65l-5-0.3-21.3-5.35-24.9-6.55q-3.35-0.9-3.35-5-0.45-13.9-0.3-18.1 0-1.9 0.45-2.95 0.6-1.25 2.05-2.25 3.45-2.15 20.3-14.8l21.4-16.05 2 1.55"/>
   <path d="m202.6 469.1 19.2-14.6h3.9q-28.05 20.95-41.45 29.9-1.4 0.95-1.85 0.45-0.45-0.6 1-1.6l19.2-14.15"/>
   <path d="m178.4 504.9q-0.15-7.75 0.2-16.15 0.05-1.65 0.7-1.65t0.7 1.65q0.3 7.3-0.1 16.25-0.05 1.45-0.7 1.45-0.7 0-0.8-1.55"/>
   <path d="m152.5 478.65q17.45 5.65 19.7 5.75 1.75 0.05 1.75 0.75-0.1 0.7-1.75 0.7h-0.05q-3.55 0.2-20.15-5.3-16.7-5.45-19.2-5.35-1.6 0.2-1.6-0.5 0-0.65 1.6-0.95 3-0.55 19.7 4.9"/>
   <path d="m206.9 414.05q21.85 3.2 42.05 0.05 21.8-3.4 26.25-12.3l0.25 3.45q-5.65 8.5-27.8 11.6-20.35 2.9-41.05-0.15-15.2-2.25-24.65-7.25-9.3-5.05-11.15-11.75l1.4-2.9q0.9 6.8 10.15 11.85 9.15 5.15 24.55 7.4"/>
   <path d="m182 422.8q10.45 5.05 26.75 6.9 21.85 2.6 41.15-1.3 19.65-3.85 25.25-12.1l0.05 3.2q-7 8.55-28.35 11.95-19 3-38.25 0.75-15.85-1.8-26.45-6.75-10.65-4.9-14.4-12.15l0.55-3.6q3 7.9 13.7 13.1"/>
   <path d="m182.1 430.85q11.55 4.65 27.4 6.25 19.5 1.9 37.5-1.3 20.25-3.6 28.15-12.1l-0.1 3q-8.7 8.55-29.4 11.8-17.65 2.8-36.35 1.05-15.95-1.65-27.2-6.05-11.4-4.35-16.15-10.85l0.45-2.8q4.2 6.4 15.7 11"/>
   <path d="m348.1 364.7q-1.4-0.65-1.15-1.3t1.7 0q5.55 2.35 14.95 4.95 9.9 2.85 11.55 2.45 1.8-0.4 5.4-5.4 3.55-4.95 3.85-7.3 0.35-2.6-0.45-9.25-0.75-7-1.8-8.45-1.05-1.7-7.3-5.6-6.35-4.05-8.2-4.05-2.05 0-9.55 5.15-6.75 4.55-10.85 8.25-1.25 1.1-1.7 0.65-0.45-0.5 0.7-1.75 3.85-3.95 11.05-9 7.75-5.6 10.35-5.65 2.25-0.1 9.5 4.3 7.15 4.3 8.45 6.25 1.25 1.75 2.05 9.45 0.8 7.25 0.4 10.1-0.4 3-4.5 8.45-4.15 5.6-6.85 6.15-2.6 0.5-12.45-2.6-9.2-2.9-15.15-5.8"/>
   <path d="m383 313.55q1.95 6.5 2.4 14.25 0.55 8.8-1.55 12.3l-1.7-1.65q1.6-2.9 1.05-10.6-0.6-6.85-2.3-12.75l2.1-1.55"/>
   <path d="m342.05 347.25q1.05 3.1 1.7 6.75 0.75 4.05 0.6 6.65l-0.35 2.45-1.25 2.3-6.4 9.2q-1.35 2.05-1.4 4.4-0.6 16.8 0.1 23.9t16.45 10.7q14.5 3.35 32.7 1.95 12-0.9 19.2-3.6 8.75-3.3 8.4-8.75-0.35-6.65-1.6-14.55-1.35-8.8-2.75-11.55-1.65-3.4-8.9-9.85-6.75-5.95-12.6-9.65l-0.1-3.1q5.7 3.6 13.35 10 8.75 7.45 10.7 11.25 1.55 3.05 2.95 12.75 1.15 7.9 1.6 14.65 0.45 6.35-7.7 10.25-7.7 3.75-22.25 4.9-18.3 1.4-33.45-2.05-17.8-4.15-18.7-13.1-0.7-7.2-0.1-24.35 0.05-1.8 0.45-3.05 0.3-1.1 1.2-2.5l3.3-4.5 3.45-4.55q0.9-1.25 1.05-3.65 0.15-2.45-0.45-6.2-0.6-3.5-1.55-6.4-0.7-2.1-2.3-4-1.25-1.4-6.05-5.05l-7.6-5.5 3.55-0.6q9.25 6.3 11.8 9.25 2 2.5 2.95 5.2"/>
   <path d="m382.9 405.2q-0.1-8.15-3.5-18.85-0.5-1.65 0.05-1.8 0.6-0.2 1.3 1.35 1.75 3.75 2.75 8.9 1.15 5.75 0.8 10.4-0.1 1.8-0.8 1.8-0.6 0-0.6-1.8"/>
   <path d="m420.4 400.85q-3.4-3.5-7.55-3.6l-0.2-2.4q5.2 0.1 9.55 4.3 4.4 4.3 5.3 10.45l1.65 15.4 1.35 17.05q0.1 1.9-0.65 3.55-0.7 1.55-2.45 3.4-4.75 5.2-15.75 9.05-12.6 4.4-28 4.75-25.75 0.65-44.65-6.45-19.65-7.4-20.45-19.15-0.5-6.9-0.05-16.35 0.4-7.75 1.15-14.5 0.45-3.85 4.7-7 4.05-3 8.85-3.6l0.2 2.3q-4.25 0.55-7.4 2.95-3.25 2.55-3.65 5.65-0.75 5.9-1 14.25-0.35 8.85 0.05 16.2 0.55 9.8 19.55 16.8 18.95 7 42.7 6.25 15.15-0.55 26.8-4.45 10.3-3.55 14.85-8.45 2.45-2.6 2.35-5.1l-1.25-16.85-1.75-15.35q-0.75-5.45-4.25-9.1"/>
   <path d="m425.35 406.35q-0.7 7.5-9.95 12.85-15.25 8.65-41.95 8.6-27.1-0.1-42.15-9.25-9.35-5.7-9.9-13.8l2.1-2.75q-0.2 4.15 2.15 7.8 2.3 3.85 7 6.7 14.1 8.5 40.45 8.65 26.4 0.15 41.05-8.3 9.5-5.35 9.35-13.7l1.85 3.2"/>
   <path d="m427.8 425.55q-4.6 6.15-16 10.5-11.2 4.25-25.95 5.55-17.3 1.5-33.6-1.95-20.2-4.35-32.35-15.5l0.15-2.85q10.6 10.2 28.05 14.9 17.4 4.65 37.65 2.9 14.65-1.25 25.9-5.55 11.55-4.4 15.85-10.85l0.3 2.85"/>
   <path d="m428.5 433.95q-8.85 7.55-24.6 11.1-13 2.9-28.3 2.7-16.85-0.2-31.5-4.5-14.75-4.35-24.25-12.05l-0.05-2.85q9.5 8.15 25.15 12.65 14.25 4.05 30.65 4.3t30.3-3.35q14.45-3.7 22.35-10.55l0.25 2.55"/>
   <path d="m425.4 448.7 28 29.2q1.4 1.5 1.85 2.5 0.6 1.3 0.6 3.45 0 3.25-1.15 19.6-0.2 2.45-1.1 3.65-1.05 1.35-3.55 2-13.95 3.8-59.6 12.3-4.6 0.9-8.1-2.05-4.6-3.85-26.95-21.15l-30.45-23.5q-2.15-1.6-2.25-6.05-0.4-11.35 0.3-24.3l2.25 2.15q-0.25 5.3-0.2 10.55l0.4 11.55q0.05 1.9 0.4 2.75 0.25 0.8 1.05 1.4l30.2 23.3 26.95 21.05q2.75 2.25 6.1 1.7 44.05-8.35 59.2-12.4 1.6-0.4 2.15-1.1 0.35-0.5 0.5-2.1 1.2-14.85 1.2-19.4 0-1.3-0.35-2.15l-1.55-2.15q-14.7-15.85-27.5-29l1.6-1.8"/>
   <path d="m352.8 458.6q5.3 5.25 19.1 17.55 14.05 12.6 19.9 17.3 1.35 1.15 0.9 1.65-0.5 0.45-1.85-0.5-7.1-5.4-21.65-18.1-13.75-12-20.8-18.75l4.4 0.85"/>
   <path d="m394.05 500.05q-0.45 9.3-3.4 15-0.65 1.3-1.25 1.05t-0.05-1.7q2.1-4.8 3.2-14.6 0.2-1.45 0.85-1.3 0.7 0.15 0.65 1.55"/>
   <path d="m422.75 489.9q-13.9 1.55-25.75 5.5l-1.85-0.1q-0.2-0.6 1.4-1.3 10.65-4.5 26-6.45 17.85-2.25 26.55-5.5 1.4-0.4 1.65 0.15 0.3 0.6-1.05 1.2-8.9 4.3-26.95 6.5"/>
   <path d="m210.3 68.4q-6.35-5.75-23.4-16.1-17.2-10.4-20.4-10.35-4.65 0.1-19.35 6.25-14.85 6.15-19.35 10.05-4.3 3.75-11.45 18.3-6.65 13.75-7.2 18.25-0.35 3.9 2.1 15 2.3 10.7 3.65 12.45 1.2 1.6 8.6 7.85 7.35 6.15 11.9 9.5l-2.35 1.65-11.9-9.35q-7.4-6.25-8.7-7.9-1.55-2.15-3.9-13.7-2.45-11.75-1.95-15.75 0.7-5.35 7.45-19.55 7.2-15.15 11.75-19.05 4.7-4.05 20.25-10.45 15.25-6.3 20.3-6.55 3.8-0.1 21.8 10.9 17.65 10.8 23.95 16.75 1.4 1.3 2.05 5.1 0.55 3.3 0.25 6.55l-2.6 1.85q0.5-3.05 0.05-6.75-0.45-3.85-1.55-4.95"/>
   <path d="m126.45 148.9q3.5-7 7.3-9.4 2.4-1.55 7.05-3.15 4.9-1.65 9.65-2.5 1.55-0.25 1.7 0.45 0.15 0.65-1.4 1.05-10.05 2.25-15.7 6.05-3.15 1.95-6 8.4l-2.6-0.9"/>
   <path d="m133.1 82.9q4.45-7.8 7.35-12.2 2.15-3.05 5.5-4 3.65-1.2 5.4-2.65 2.8-2.4 5.7-0.9 5.5 2.8 11.8 3.25 6.15 0.4 8.75-1.8 2.25-1.9 5.5 0.3 13.3 8.85 23.7 22.25l-1.7 2.1q-11.15-14.95-23.1-22.5-2-1.3-3.2-0.35-3 2.35-9.9 2.05-7.1-0.25-12.6-3-1.2-0.55-2-0.45-0.9 0.15-1.85 0.95-2.15 1.75-5.95 2.85-1.6 0.5-2.4 1.1-0.8 0.55-1.8 1.95-3.3 4.85-7.4 11.95-4.6 7.95-7.55 14.3-0.6 1.25 0.55 3.35 4.2 7.75 10.15 13.35 1.35 1.35 1.95 2.7 0.45 1.3 0.5 3.45 0.4 8.55-1.05 17.15l-2.6 1.1q1.45-9.65 1.05-18.25l-0.25-2.55q-0.25-0.85-1.25-1.75-2.4-2.3-5.2-6.25-2.9-4.05-5-8.25-1.45-2.6-0.65-4.55 2.75-6.1 7.55-14.7"/>
   <path d="m168.85 149.8q-2.65-5.6-7.45-12.15-0.95-1.2-0.45-1.6 0.55-0.4 1.6 0.75 4.7 4.7 7.65 12.4 0.5 1.4-0.05 1.6-0.65 0.25-1.3-1"/>
   <path d="m150.7 86.3q4.8-7.55 7.95-10.95 2-2.15 3.85-2.25 1.75-0.05 4.45 1.55 5.75 3.6 19.5 13.45 3.35 2.4 1.4 6.7-2.9 6.6-8.1 14.4-1.7 2.45-4.4 1.1-5.2-2.55-12.45-8.7-2.5-2.05-1.15-3.95l2.7-3.25q1.9-2.3 3.75 0 2.85 3.55 4.9 4.6 1.1 0.75 1.6-0.25 1.85-3.2 2.25-5.4 0.4-1.95-0.95-3-3.85-3.15-11.5-7-1.15-0.55-2.15 0.65-1.9 2.45-4.4 7.05-2.45 4.4-4.25 8.5-0.7 1.65 1.15 3.3 6.9 6.35 15.8 12.85l1.4 1.4q0.35 0.65 0.2 1.95-0.1 2.45-0.95 4.55-0.45 1.15-1.55 1.3-1.1 0.05-2.5-0.9-12.3-8.05-23.25-19.2-1.4-1.5-1.6-2.9-0.1-1.2 0.7-2.7 3.7-6.75 7.6-12.9m0.9 12.65q1.65-3.65 4.5-8.55 2.95-5.05 4.95-7.75 0.8-1 1.95-1.3l2.2 0.3q7.65 3.7 12.2 7.3 2.1 1.65 1.45 4.7-0.7 3.45-2.35 6.2-0.7 1.15-1.8 1.4-1.15 0.25-2.45-0.45-2.35-1.4-5.25-4.9-0.65-0.8-1.35-0.1l-2.1 2.65q-0.55 0.75 0.7 1.8 6.55 5.65 11.8 8.25 1.4 0.65 2.25-0.5 4.55-6.75 7.7-14.05 1.1-2.9-1.1-4.5-13.75-9.95-18.95-13.15-1.95-1.3-3.25-1.2-1.3 0.05-2.75 1.6-2.9 3.15-7.65 10.9l-7.25 12.6q-0.75 1.25 0.85 3.2 9.95 10.95 22.25 18.9l1.65 0.1q0.55-1.45 0.55-3.35 0-0.8-0.3-1.25l-0.95-0.95q-12.1-8.9-15.9-12.3-2.9-2.65-1.6-5.6"/>
   <path d="m161.6 41.5q-9.7-12.75-11.1-13.2-5.75-1.85-26.5-7-20.6-5.05-31.75-7.35-1.3-0.4-3.25 1.05-1.9 1.5-1.25 2.45 25.7 38.2 32.15 49.35l-1.75 2.55q-4.15-7.35-17.65-28.4l-14.8-22.7q-1.45-2.15 1.4-4.65 2.7-2.35 4.95-1.9 12.55 2.55 32.25 7.15 21.65 5 27.1 6.8 1.3 0.4 5.6 5.55 3.75 4.5 7.5 9.7l-2.9 0.6"/>
   <path d="m123.5 61.8-16.55-22.25q-1-1.35-0.4-1.75 0.5-0.45 1.55 0.85l16.6 21.1-1.2 2.05"/>
   <path d="m49.9 147.8q11.8-8.75 29.8-8.65 20.75 0 39.5 12.5 15.85 10.65 23.1 33.3 3.05 9.7 3.2 18.3 0.1 8.7-2.85 13.45-2.3 3.75-12.05 11.7-7.45 6.1-15.95 12.1-2.95 2.15-6.8 2.2-3.55 0.05-6.2-1.4l1.95-1.65q1.9 0.95 4.4 0.7 2.7-0.35 5.35-2.2 9.45-6.6 16.75-12.7 8.45-7 10.45-10.35 2.65-4.3 2.4-12.5-0.3-8-3.25-17.2-7.05-21.55-21.85-31.45-18.1-12.15-37.25-12.45-17.2-0.25-29.2 8.6-3.9 2.95-10.95 9.55l-8.15 7.8q-2.2 1.95-1.85 5.2l-2.05 1.45q-1.05-5.5 1.95-8.35l8.6-8.25q7.35-7.1 10.95-9.7"/>
   <path d="m105.65 146-5.15-2.65q10.1-0.45 20.65 2.45 10.15 2.75 15.45 7 1.3 1.15 0.95 1.6-0.4 0.5-1.8-0.4-5.45-3.4-13.55-5.5-8-2.1-16.55-2.5"/>
   <path d="m149.75 190q-2.25 10.1-5.55 17l-0.35-6.35q5.25-13.35 6.7-28.9 0.2-1.75 0.85-1.7 0.7 0.05 0.65 1.8-0.15 8.2-2.3 18.15"/>
   <path d="m160.65 172.9q-5.7 7.6-11.1 13.2l0.3-4.5q5.2-5.55 9.9-11.9 5.15-7 7.7-12.4 0.25-0.7 1.1-0.7l12.5-1.45v2.6l-11.55 1.25q-2.75 5.75-8.85 13.9"/>
   <path d="m66.2 173.15 0.7 7q0.1 1.45-0.25 2.25-0.35 0.75-1.5 1.7l-17.6 14.35q-16.6 13.5-20.5 17-2.65 2.35-5.85 0.95l-11.8-6.05q-2.45-1.25-3.3-2.95l-1.8-3.7-1.85-4.5q-1.15-3.4 0.5-5.05 5.85-5.6 18-15.55 10.85-9 17.4-13.8 1.5-1.1 2.75-1.35l2.7 0.2 19.05 5.85q3.05 0.95 3.35 3.65m-2.2 0.4q-0.2-1.55-1.65-2l-19.1-5.8q-1.9-0.55-3.9 0.85-6.1 4.55-16.8 13.65-11.45 9.6-17.35 15.35-1.1 1.05-0.35 3.1 0.8 2.5 3.25 7.35 0.65 1.4 2.25 2.25l11.75 5.7q1.9 0.85 3.65-0.7l20.4-16.75 17.5-14.05 0.9-1.1q0.3-0.45 0.15-1.2l-0.7-6.65"/>
   <path d="m61.5 174.15q-9.4 7.35-36.4 31.6-2.5 2.15-5.9 0.7-2.7-1.15-7.5-3.65l-8.35-4.75 0.25-2.45 8.2 4.6 8.1 3.95q2.3 0.95 3.9-0.45l18.3-15.6q12.7-10.65 18.5-15.1 1.2-0.9 1.65-0.35t-0.75 1.5"/>
   <path d="m23.95 188.85q2.7-3 13.65-11.75l2.35-0.05 1.2 0.9q0.9 1.05-0.6 2.25l-11.4 9.25q-0.25 0.2-0.15 0.5l0.45 0.4 1-0.15 14.7-12.75q0.6-0.65-0.2-1.25-1.15-0.8-4.4-2.15-0.9-0.35-1.45 0.2-3.6 2.7-19.95 16.8-0.25 0.4 0.05 0.65 1.05 0.65 5.4 2.7 0.95 0.45 1.15 1 0.15 0.45-0.45 1.35l-1.75 2.3q-1.05 1.25-2.5 0.35-5-2.9-7.95-5.2-0.9-0.7-0.85-1.6 0-0.85 0.8-1.7 5.05-5.45 26-22 1.4-1.15 3.3-0.25 4.6 2.2 9.5 5 2.8 1.4 0.45 3.55l-9.65 8.25-11.75 9.25q-1.7 1.15-3.1 0.4-2.25-1.25-4.05-3.2-0.75-0.8-0.7-1.45 0-0.6 0.9-1.6m16-18.6q-21.6 17.15-25.8 21.7-0.25 0.25-0.25 0.65 0 0.35 0.15 0.5 3.15 2.45 7.7 4.9l0.85-0.15 1.35-1.65q0.25-0.35-0.2-0.6-4.25-2-5.4-2.8-1.8-1.2-0.1-2.7 16.35-14.45 20.15-17.2 1.2-1 2.7-0.4 2.8 1.15 5.25 2.95 0.9 0.65 0.9 1.2 0 0.65-0.9 1.5l-15.2 13.3q-1.35 1.15-2.4 0.25l-0.95-1q-0.9-1.2 0.25-2.2l11.9-9.25q0.3-0.35 0.05-0.7l-1.05-0.6q-0.35-0.1-0.9 0.25-9.05 7.25-13.05 11.65-0.65 0.7 0 1.3 1.4 1.55 3.4 2.65l0.75 0.2 0.9-0.5 11.5-9.15 9.55-8.2q0.9-0.75-0.05-1.2-4.3-2.3-9.25-4.7-1.15-0.5-1.85 0"/>
   <path d="m44.75 153.5q18.75-7 36.85-3.8 18.25 3.3 32.5 16.4 13.05 11.9 18.5 27.95 5.4 15.75 1.65 29.65l-2.5 2.15q4.4-14.6-0.95-30.45-5.25-15.6-18.15-27.35-14.45-13.05-33.4-16.1-19.1-3.05-37.45 5l2.95-3.45"/>
   <path d="m37.8 160.1q21.3-9.8 42.5-5.2 18.05 4 31.2 16.75 12.65 12.35 16.8 28.45 4.1 15.95-1.65 29.75l-2.7 1.3q6.35-13.55 2.4-29.4-3.85-15.85-16.6-28.2-13.75-13.45-32-16.85-21.2-3.95-42.9 7l2.95-3.6"/>
   <path d="m96.85 176.85q10.25 7.85 16.8 19.5 6.65 11.7 7.35 23.4 0.1 2.15-0.4 3.45-0.5 1.4-2 2.7-3.7 3.35-10.45 11.3-3.3 3.65-7.4 5.95-26.75 14.95-31.6 17.2-5.35 2.5-8.15-0.4-5.9-6.55-8.9-10.55-1.9-2.7-2.15-4.75-0.4-2.45 1-5.75 1.45-3.05 8.95-13.4 7.95-10.95 12.55-15.7l2.8 0.7q-4.6 4.75-12.9 15.9-8.05 10.8-9.25 13.55-1.05 2.3-0.85 4.05 0.25 1.7 1.85 3.95 2.7 3.8 8.3 9.95 1 1.1 2.35 1.1 1.35 0.05 3.5-0.9 4.65-2.25 31.5-17.25 3.2-1.75 6.4-5.45l4.3-5.1 5.85-6.35 1.3-1.65q0.3-0.85 0.25-2.45-0.65-11.35-6.7-22.2-5.95-10.7-15.95-18.55-8.55-6.6-17-9.5-11.9-4.1-25.25-1.85l-3.95-1.55q13.35-3.35 25.45-0.45 11.5 2.7 22.4 11.1"/>
   <path d="m21.5 215.3q-12.35 7.9-19.95 18.8l-0.05-3.95q7-9.45 17.3-16.2l2.7 1.35"/>
   <path d="m37.6 204.85q10.8-3.4 19.85-2.75 9.5 0.65 14.5 5.5 1.1 1.1 2 1.3l2.95-0.2q12.05-2.1 21.7-3.1l3.7-0.75q1.4-0.5 2.7-1.6 3.6-3.1 7-6.8l1.15 2.15q-3 3.8-6.55 6.7-1.85 1.55-3.2 2.1-1.8 0.8-4.6 1.05-8 0.65-21.5 2.95l-3.75 0.2q-1.75-0.35-3.4-2-5.2-5.1-15.7-5-10.3 0.05-21.9 4.95l5.05-4.7"/>
   <path d="m9.5 209.15q-5 7.3-5.95 13.3-0.85 5.3-0.95 24.15-0.1 19.15 0.75 28.05 0.25 2.85 0.6 4.2 0.55 1.95 1.85 3.15 4.95 4.35 12.55 7.35l2.5 3.2q-3.75-0.8-9.05-3.65-4.85-2.7-7.75-5.25-1.6-1.35-2.35-4.05-0.55-1.75-0.85-4.8-0.85-9.55-0.9-28.35-0.05-19.1 0.75-24.35 1-6.1 6.45-14.9l2.35 1.95"/>
   <path d="m1.35 259.95 0.1-5.9q4.4 10.8 9.75 21.3 6.85 13.5 10 15.6 9 6.2 13.8 7.65 4.3 1.35 4.75-1.65l2.05 0.55q-0.35 2.3-2.4 3.3-2.1 0.95-4.9 0-5.55-1.9-14.6-7.85-3.85-2.55-10.05-14.35-4.95-9.5-8.5-18.65"/>
   <path d="m16.2 240.4q-0.1 14.95 0.7 17.85 1 3.85 5.95 16.6 5.2 13.3 6.35 14.5 1.25 1.3 5.55 3.75 3.95 2.25 6.35 3.15 6.4 2.2 7.45-5.05l2.05 0.8q-0.65 4.4-3.35 6.1t-6.8 0.25q-2.4-0.9-6.75-3.35-4.85-2.7-6.2-4.15-1.35-1.5-6.9-15.2-5.2-13.1-6.15-16.7-0.85-3.2-0.95-17.25-0.15-13.65 0.45-22.6l3-2.45q-0.65 9.65-0.75 23.75"/>
   <path d="m32.35 243.6q-0.3 3.75 2.4 20.1 2.4 14.6 3.85 20.4 0.5 2.1 1.15 3.1 0.75 1.05 2.05 1.25 3.4 0.4 7.7 2.05 2.05 0.9 2.55-0.7 6.25-22.25 9.3-30.65l2.4 0.95q-3.95 10.45-9.65 30.4-0.5 1.95-2 2.45l-3.25-0.3q-3.65-1.55-7.3-1.95-2-0.2-3.2-1.45-1.3-1.35-2.1-4.5-1.5-6.05-3.95-20.75-2.85-16.6-2.5-20.5 0.3-4.4 4.1-16.7 3.8-12.45 7.7-21.7l3.4-0.65q-4.05 9.5-8.15 22-4.15 12.85-4.5 17.15"/>
  </g>
  <path d="m521.35 2.55q1.15 0 3.5 2.5 0.6 0.65 0.5 2-0.05 1.35-0.7 2.3-4.95 7.4-16.05 22.55-12.05 16.3-17.1 22.15 3.15 3.2 6.55 7.8 3.5 4.85 4.55 7.6 1.2 2.85 1.5 13.25 0.25 10.5-0.7 16.05-0.65 3.55-7.6 13.95-6.4 9.55-11.55 15.45 0.9 2.2 4.7 6.75 3.15 3.85 5.6 6.2l10.25 0.85q1.25 0.15 4.1 1.85l4.65 3.2q19.95 2 36.8 17.85 17.4 16.4 21.4 38.6l3.45 1.9q2.5 1.4 3.15 3.85 1.55 5.8 3.7 22.3 2.35 17.15 2.4 24.55 0.05 2.75-3.1 5.45l-5.45 3.55q-0.1 5.25-2.7 14.3-2.25 7.75-4.65 13.1-1.95 4.25-8.8 12.1-6.45 7.35-9.2 9.05-3.5 2.25-20.5 7.85-2.6 0.85-4.2-0.75l-2.7-4.2-7.55 2.3-6.3 1.1q-1.5 0-4.3-4.05-1.85-2.6-3.65-5.95-3.85 1.2-5.2-1.1-1.1-1.75-3.55-10.8-3.7 0.55-4.5-2.8l-2.35-6.4q-1.4-3.75 0.75-7.7l6.65-13.05-13.2-0.75q-3.25-0.35-4.4-4.2-0.5-1.85-0.95-7.75-15.6-15.65-20.6-30.7-4.25-12.7-2.15-29.75-3.65-3.55-3.05-13.2 0.5-8.5 3.25-14.4-2.05-5.85-7.8-17.05l-19.85-1.5q-14.2-1.8-19.75-4.6-4.3-2.15-13.95-16.4-8.2-12.05-12.45-20.45-1.15-2.25-1.55-5.25-0.35-2.85 0.1-5l2.3-13.95q1.55-10.25 1.55-12.2 0-1.85 0.75-3.4 0.45-0.95 1.85-2.7 3.55-4.15 22.4-19.6l22.15-18q1.75-1.45 3.55-1.9l3.9-0.25 6.8 0.75 7.9 0.95q4.65 0.45 8.2-2.25 9-6.85 12.4-10.05 3.05-2.85 8.45-4.2l21.2-4.4q17.25-3.3 21.15-3.3" fill="#6bb5b6"/>
  <path d="m427.95 61.2q0.95-0.6 1.7-0.55 0.65 0 1.35 0.55 3.4 2.85 12.25 12.75 7.6 8.45 12.2 14.15 1.05 1.3-0.25 3.1-15.8 20.4-23.4 26.8-0.55 0.45-1.25 0.4-0.7 0-1.2-0.6-1.35-1.25-2.65-3.25-0.4-0.65-0.1-1.3l0.75-0.95 10.05-10.9 7.7-9.3q0.6-0.7 0.6-1.35 0-0.6-0.65-1.4l-8.55-10.4q-5.7-6.65-9-9.65-0.45-0.45-1.25-0.5-0.75-0.05-1.45 0.5l-7.15 6.85-7.3 7.75q-0.65 0.8 0.4 2.2 1.9 2.8 5.55 6.95l6.1 6.85q1.35 1.5 2.7 0.15l5.8-6.4q0.95-1-0.1-2.05l-2.75-3.1-3-3.55q-1.15-1.15-0.25-2.05l4.15-3.9q1.2-0.9 2.5 0.4 2.05 2.05 7.4 9.55 0.7 0.9-0.2 2.25l-7.25 8.65-7.9 8.5-2.75 0.05q-2.3-2.3-8.85-9.9-6.8-7.75-9.25-11.05-0.9-1.25 0.1-2.75 4.25-6.15 12.55-13.6 7.1-6.4 12.65-9.9" fill="#fad47b"/>
  <path d="m569.9 213.1q-4.45-2.1-8.6-3.65-1.55-0.55-1.45 0.8 0.15 6.2 1.3 20 0.05 0.9 0.25 1.3l0.85 0.55 2.6 0.55q1.1 0.15 1.1-1.1l-0.5-12.5q-0.05-1.45 1.1-0.8l2.05 1.3q0.65 0.35 0.85 2.3 0.8 7.65 0.8 15.8 0 0.8-0.55 1.2-0.55 0.35-1.45 0l-4.3-1.6q-2.65-1.05-5.1-2.3-0.8-0.35-1.05-0.8-0.3-0.5-0.3-1.5l-0.85-13.7q-0.85-11.05-0.75-14.15 0.05-1.5 1.65-1.05 2.4 0.75 7.6 3.4l7.5 3.9q1.45 0.7 1.9 2.8 1.05 5.05 2.15 16 1.25 12.55 0.95 18.8-0.15 1.7-1.7 1.1l-6.9-2.15q-5.2-1.75-8.5-3.35-1.2-0.6-1.2-1.5l0.2-2.4q0.05-0.55 0.45-0.7l1.2 0.1 5.65 2.65 6 2.15 1.25-0.1 0.15-1.1q0-8.65-2.2-26.75-0.25-2.6-2.15-3.5" fill="#fad47b"/>
  <path d="m516.95 172.55q-19.95 0-34.2 13.75-12 11.55-13.8 24.9-0.25 2 1.9 18.3l3.4 25.2q-14.6-14-20.85-31.3-2.05-5.7-2.05-15.65 0.05-11.85 3.45-22.65 9.45-29.75 39.05-36.9 14.25-3.5 29 0.8 13.15 3.95 24.7 13.4 10.7 8.8 17.2 20 6.5 11.1 6.5 20.65l-4.9-2.75q-5.95-11.95-22.25-20.25-14.65-7.5-27.15-7.5" fill="#d29660"/>
  <g fill="#5c9e9f">
   <path d="m524.1 4.25q0.45 0.45 0.8 2.35 0.4 1.95 0 2.45-23.55 33.65-33.85 44.45l-4.6-5-5-4.5q6.4-5.15 21.5-20.75 14.1-14.5 19.1-20.6l2.05 1.6"/>
   <path d="m466.6 123.1q-8.15-0.4-12.1 1.45-2.9 1.35-7.15 7.8-2.75 4.3-5.05 8.9-1.15 2.5-0.5 4.6 0.35 1.3 2.45 4.4-8.1 0.1-22.35-2-13.95-2.05-17.15-3.8-3.15-1.65-12.9-15.25-9.8-13.6-13.1-20.8-1.4-3.1-1.85-4.7-0.55-2.25-0.1-3.65 5.05 8.15 14.6 15.7 9.5 7.55 19.4 11.25 5.7 2.1 21.3-2.25 15.35-4.3 21.7-9.55 2.95-2.45 6.55-6.5 4.1-4.6 6.45-8.45 2-3.15 2.95-10.55l1.1-12.45q3.1-3.85 15.4-5.9 12.2-2.1 16.8 0.35 1.2 7 1.2 14.55 0 7.75-1.2 12.85-1.15 4.85-8 15.15-6.6 9.8-11.05 13.7-0.7-1.15-2.05-2.05-1.4-0.85-2.9-1.15-6.15-1.35-12.45-1.65"/>
   <path d="m461.7 157.95q0.75 4.9 2.7 7.35-4 5.8-7.4 13.7-4.1 9.5-4.6 16.45-3.6-1.65-3.6-11.25 0-9.4 3.2-16.7-1.7-4.45-4.35-10.25-3.1-6.65-5.3-9.9-1.65-2.5-0.05-6.1 6.35-13.6 12.45-16.2 0.2 3.35 2.45 10.7 2.25 7.15 3.95 10.3 1.3 2.2 0.85 3.75-1 3.25-0.3 8.15"/>
  </g>
  <path d="m483.55 185.4q-11.4 10.85-14.4 26-0.35 1.4 1.9 18.35l3.2 24.95q-13.35-11.65-19.1-26.45-8.05-20.35-0.55-44.15 1.3 3.55 5.1 8.3 3.5 4.35 6.45 6.55l0.9 0.1q0.6-0.1 0.9-0.8 7.6-16.4 22.05-24.25 13.05-7.2 29.3-6.25 15.4 0.9 29.25 8.85 14.1 8.1 21.85 21 0.9 2.9 0.9 5.15l-4.65-2.25q-6.65-10.95-20.7-19.2-15.3-8.95-29.85-8.75-19.2 0.25-32.55 12.85" fill="#ac7b4d"/>
  <g fill="#5c9e9f">
   <path d="m569.5 252.9q9.35 3.15 15.05 4.45-0.6 1.35-2.75 3.45-2.05 2-4.1 3.3-1.35 0.85-2.35 1l-3.5-0.45q-25.8-7.4-27.05-10.4 2.5-3.6 6.65-7l3.85 0.1q3.6 2.1 14.2 5.55"/>
   <path d="m522.7 275q-2.35 5.55-5 8.15-3.9 3.9-11.1 8.35-7.85 4.85-12.9 6.05-1.8 0.45-3.25-0.05-1.6-0.65-2.2-2.3-0.75-2.75-2.7-7.1-1.2-3 0.75-6.55l3.35-6.5 3.35-7.05q3.55 0.25 6.6-0.65 3.6-1.05 5.15-3.35 2 2.5 9.35 2.45 7.6-0.05 12.8-2.95l-4.2 11.5"/>
   <path d="m472.7 200.55q3.4-7.2 7-10.65-5.7 11.8-4.8 24 0.5 7 2.65 21.95 1.9 13.65 3.85 24.75 0.3 1.75 1.85 1.8l8.85 0.25 8-0.1q3.3-0.35 4.9-2.95 0 7-6.5 7.9l-9.4 0.35-9.5-0.8q-2.3-0.45-3.3-1.75-0.8-1.1-1.1-3.45l-3.85-28.4q-2.55-19.05-2.2-22.05 0.35-4.05 3.55-10.85"/>
   <path d="m530.85 295.15q-4.55 3.75-16.05 9.25-10.85 5.1-15.05 5.9-2.65 0.55-3.95-2.05-2.3-5.2-3.5-10.35 3.95-0.4 14.15-6.55 10.75-6.5 13.45-10.7 1.6 3 7.5 4.3 6.35 1.4 11.85-0.65l-4.3 6.1q-2.35 3.3-4.1 4.75"/>
   <path d="m527.2 314.9q-10.2 4.15-15.4 4.95-3.9 0.55-5.65-1.85-1.85-2.7-4.4-8.35 6.45-1.95 15.3-6.3 10.3-5 14.6-9.1 2.25 2.05 8.7 3 6.6 1.05 10.65-0.25l-4.6 6.1q-2.7 3.35-4.7 4.7-4.6 3.05-14.5 7.1"/>
   <path d="m542.95 307.2q1.85 1.3 7.6 0.4 5.85-0.9 9.3-3.15l-4.8 5.7q-2.35 2.4-4.95 3.6l-10.4 4.15-9.3 3.3q-2.5 0.75-4.15-0.5-1.15-0.9-3.15-4.2 14.95-5.6 19.85-9.3"/>
   <path d="m576.3 265.1-1.8 9.8-13.8-4.45q-2.75-7.2-5.75-11.1l12.05 3.65q7.55 2.1 9.3 2.1"/>
  </g>
  <g fill="#0f141b">
   <path d="m487.3 184.5q8.35 1.05 15.75 9.25 7.85 8.65 9.7 19.25 1 5.45-1.4 21.75-2.05 13.9-5.2 27.85-1.2 5.35-8 6.15l-9.4 0.4-9.55-0.75q-4.5-0.75-5.05-5.65l-3.55-25.5q-3.25-23.8-3.1-25.5 1.45-12.05 11.25-23.4 12.3-14.25 31.2-16.75 17.4-2.35 35.5 7.5 16.9 9.25 23.55 22.4l-4-1.55q-7.1-11.2-23.6-19.25-17.1-8.2-31.15-6.35-13 1.8-22.95 10.15m13.2 11.15q-7.7-8.25-16.15-8.45l-3.35 3.5q-9.45 11.05-10.55 21.15-0.15 1.55 2.85 25.2l3.25 25.4q0.4 3.15 3.05 3.55 9.15 1.35 18.3 0.45 5.25-0.6 6-4.35 3.8-18.6 5.4-31.65 1.55-12.5 0.7-16.8-1.85-9.9-9.5-18"/>
   <path d="m521.15 3.65q-1.5-0.45-18.25 2.75-15.85 3.05-24.35 5.2-3.95 1.1-7.95 4.5-6.2 5.45-12.9 10.45-1.45 1.15-3.15 1.6l-3.95 0.3-16.9-2.05-2.3 0.25q-0.85 0.3-2.7 1.7-7.75 6.05-22.8 18.7-14.6 12.4-20.65 17.95l-2.2 2.4q-0.8 1.05-0.9 2.3-0.1 4.8-1.8 15.4l-2.4 13.55q-0.45 2.25-0.1 4.05 0.35 1.35 1.45 3.65 4.65 9.85 13.4 22.2 9.3 13.35 13.55 15.05 4.35 1.8 16.85 3.6l20.55 2 1.1 2.4-21.4-1.65q-12.8-1.6-18.1-3.85-5.2-2.2-15.05-16.35-8.75-12.4-13.4-22.2-1.3-2.7-1.7-4.55-0.35-2.2 0.05-4.8l2.45-14.45q1.6-10.55 1.55-14.1 0-2.95 4-6.65 5.8-5.35 20.95-18.1 15.05-12.55 23.05-18.8 2.2-1.65 3.4-2.15 1.3-0.55 3.15-0.45l8.45 1 8.55 1.05 3.3-0.15q1.15-0.25 2.25-1.1 5.05-3.7 12.6-10.2 2.35-2.05 4.05-3 2-1 5-1.8 6.55-1.55 22.5-4.6 19.8-3.8 21.4-3.15 2.05 0.9 3.4 2.35 1.05 1.15 0.65 3.2-0.3 1.8-1.3 3.15-6.85 10.85-16.2 23.95-9.95 13.95-16 20.8l-1.8-2.2q6.25-7 16.7-21.3 9.6-13.2 15.5-22.4 1-1.45 1.05-2.5 0.05-0.95-0.65-1.8-0.65-0.75-2-1.15"/>
   <path d="m495.9 57.35q6.55 8.3 7.8 11.5 1.5 3.65 1.8 14.75 0.35 11.2-0.9 15.85-1.15 4.45-7.75 14.35-5.9 8.85-11.75 15.65l-1.6-2.4q5.65-6.6 11.1-14.75 6.1-9.1 7.2-13.3 1.2-4.45 1-15.2-0.2-10.7-1.5-14.1-1.25-3-7.35-10.8-5.55-7.05-8.85-10.25-4.05-3.85-8.6-7.05-5.65-4-10.7-5.9-1.55-0.6-1.35-1.25l1.85-0.1q5.2 1.5 11.25 5.3 5.2 3.3 8.9 6.8 3.4 3.15 9.45 10.9"/>
   <path d="m457.4 56.15q9.1 10.6 12.55 16.1 1.95 3.1 1.8 6.7-0.5 10.4-2.1 16.4-0.95 3.8-2.25 6.15-1.1 2.1-3.15 4.2l-8.45 9.55q-1.5 1.55-1.45 3.65 0 2.15 1.45 5.6l-2.45 1.2q-1.6-3.85-1.55-7.05 0.15-3.15 1.9-5l8.9-9.6 2.85-3.75q1.15-2.05 2.05-5.6 1.7-6.35 2-15.85 0.05-2.7-1.6-5.35-3.5-5.65-12.7-16.2-9.35-10.85-11.3-11.15-2.25-0.4-7.95-0.05l-9.7 0.95q-2.9 0.55-7.05 3.85-3.45 2.8-26.5 26-2.1 2.1-5.15 1.7l-7.45-0.3v-2.75l7.6 0.5q2.1 0.25 3.6-1.3l14.95-14.7q8.7-8.35 11.85-10.85 4.3-3.5 7.85-4.15l10-1.2q6.05-0.55 8.35-0.15 2.75 0.45 13.1 12.45"/>
   <path d="m485 40.3q8.05-7.4 18.7-18.75 1.1-1.2 1.6-0.7 0.45 0.45-0.55 1.75-8.55 10.2-18.75 18.8-1.1 0.9-1.6 0.45-0.5-0.5 0.6-1.55"/>
   <path d="m518.65 5.95q0.9-1 1.45-0.5 0.5 0.45-0.4 1.5-5.1 6.15-10.2 10.65-1.05 0.95-1.55 0.5-0.6-0.45 0.5-1.55l10.2-10.6"/>
   <path d="m431.7 60.45q3.55 2.95 12.45 12.9 7.95 8.75 12.15 14 1 1.2 0.95 2.15-0.05 0.9-1.15 2.45-3.45 4.8-10.2 12.7-8.55 9.9-13.5 14.05-1.8 1.55-3.5-0.15-1.8-1.8-2.9-3.5-1.05-1.6 0.75-3.4 4.4-4.3 9.7-10.4 5.35-6 7.7-9.3 0.9-1.15-0.05-2.3-10.9-14.1-17-19.55l-1.75 0.05-6.85 6.55-6.95 7.3q-0.55 0.7 0.1 1.6 3 4.2 11.4 13.4 0.85 1.05 1.75 0.15l5.35-6.05q0.45-0.55-0.05-1.05l-5.65-6.45q-1.6-1.9-0.35-3.35 2.6-2.75 4.4-4.1 0.95-0.7 1.85-0.65 0.85 0.1 1.8 1.05 3.3 3.45 7.45 9.7 0.7 1 0.7 1.7 0 0.8-0.75 1.8-1.7 2.45-7.25 8.7l-8.05 8.6q-0.9 0.9-2.05 0.9-1.1 0-2-0.85l-8.9-9.9-9.3-10.95q-1.5-2 0.15-4.2 4.2-6.15 12.45-13.6 7.15-6.4 12.95-10.05 2.25-1.5 4.15 0.05m-3.2 1.55q-5.45 3.45-12.55 9.85-8.1 7.35-12.3 13.3-0.7 1.05 0.1 1.95 2.35 3.2 8.9 10.75 6.35 7.35 8.75 9.7 0.3 0.35 0.9 0.4 0.5 0 0.8-0.4l7.85-8.4 7-8.4q0.65-0.85 0.1-1.6-3.3-5.4-7-9.25-0.75-0.85-1.6-0.15-1.9 1.5-3.6 3.4-0.6 0.65 0.15 1.45l5.7 6.45q1.5 1.6 0.1 3.15l-6 6.55q-2.05 2.1-4.05-0.05-9.15-10.45-11.65-14-1.55-2.2-0.35-3.6l7.35-7.65 7.3-6.9q1.85-1.7 3.85 0.05 3.45 3.15 9.25 9.8 4.95 5.65 8.6 10.4 1.6 2 0 4l-7.95 9.35-10.1 10.85q-0.7 0.7-0.3 1.15l2.3 3.05 1.4-0.1q4.95-4.1 12.9-13.65 6.6-7.9 10-12.9 0.8-1.15 0.1-2.05-4.65-5.8-11.75-13.85-8.7-9.9-12.1-12.65-0.95-0.8-2.1 0"/>
   <path d="m466.8 121.6q7.2 0.35 14.05 2.3 2.6 0.75 4.3 3.55 4.7 7.95 11.95 13.95h-3.5q-6.7-6.2-10.4-12.45l-1.35-1.8q-0.6-0.55-1.55-0.8-6.6-1.9-13.3-2.15-6.55-0.3-10.5 1.2-3.65 1.4-8.05 7.65-3.25 4.75-5.65 10.05-0.8 1.7 0.4 3.6 2.75 4.15 5.35 9.3 2.8 5.6 4.2 9.95l-1.45 4.45q-1.35-4.75-4.25-11.45-3.1-7.25-5.65-11.15-0.85-1.3-1-2.75-0.2-1.55 0.35-2.8 3.4-7.25 5.55-10.55 4.4-7 9.2-8.8 4.2-1.55 11.3-1.3"/>
   <path d="m511.6 145.85q15.1 1.3 28.65 9.65 13 8 21.65 20.7 8.9 12.9 11 27.4l-2.75-0.95q-2.35-13.15-10.65-25.15t-20.5-19.7q-12.9-8.15-27.2-9.45-15.7-1.45-30.85 5.75-14.4 6.8-22.35 24.75-7.95 18.05-5.4 37.8 1.25 9.2 8.15 20.45 5.8 9.5 13.1 16.85l0.3 4.05q-8.7-8.6-15.1-18.75-7.7-12.2-9.05-22.3-2.8-20.7 5.3-39.1 8.3-18.75 23.95-26.15 15.4-7.25 31.75-5.85"/>
   <path d="m518.6 153.9q19.5 1.2 32.65 11.5l7.1 8.9q-12.45-14.25-34.4-17.4-20.9-2.9-37.25 5.5-17 8.75-24.3 29.05-7.8 21.35-1.3 46.7l-3-4.35q-5.15-24.1 2.25-44.05 7.45-20.4 25.35-29.65 14.35-7.45 32.9-6.2"/>
   <path d="m462.4 240.7q-6.15-24.55 2.75-47.3 9-22.75 27.8-30.25 22.4-8.9 44.15-0.6 22.3 8.55 32.2 31.05l1.35 6.1q-10.9-24.85-32.85-33.95-21-8.8-43.95-0.25-18.3 6.85-26.9 30.3-8.6 23.4-1.8 48.25l-2.75-3.35"/>
   <path d="m552.7 192.4q13.35 6.3 24 12.65l1.85 1.7q0.55 0.9 1.1 3.25 1.45 6.65 3.45 21.2 2.1 15.6 2.5 24.3l-0.2 3q-0.4 1.35-1.6 2.55-1.9 1.95-5.7 4.2-1.35 0.8-2.65 0.95l-3.25-0.45-12.35-3.6q-10.4-3.2-12.55-4.35-2.6-1.3-3.75-3.5-0.95-1.7-1.2-4.6l-2.3-25.15q-1.55-18.3-1.95-25.95-0.05-2.75 2.4-3.9 4.05-1.9 7.05-2.95 2.25-0.7 5.15 0.65m-4.65 1.55q-2.3 0.7-6.65 2.55l-1 0.75-0.1 1.35q0.7 13.45 4.4 50.85 0.2 2.5 0.85 3.65 0.8 1.5 2.75 2.5 2.15 1.1 12 4.25l12.35 3.7 2.5 0.35 1.85-0.65q3.25-2 4.8-3.55 1-0.95 1.25-1.85l0.1-2.3q-0.35-8.85-2.25-24.05-1.85-14.65-3.25-21-0.4-1.8-0.8-2.5l-1.2-1.05q-11.1-6.65-23.6-12.65-1.3-0.55-2.25-0.6l-1.75 0.25"/>
   <path d="m553.45 244.1q0.15 1.7-0.65 1.75-0.7 0.05-0.85-1.6-2.3-24.85-2.65-46.8-0.1-1.8 0.6-1.8 0.8-0.05 0.85 1.75 0.4 10.45 2.7 46.7"/>
   <path d="m555.4 246.95q16.35 6 25.65 8.8 1.35 0.45 1.2 1.05-0.1 0.75-1.6 0.35-5.75-1.55-13-4-7.55-2.55-12.8-4.8-1.45-0.65-1.25-1.3l1.8-0.1"/>
   <path d="m557.7 203.15q2.55 0.85 7.75 3.25 5 2.3 7.55 3.75 1.9 1 2.35 3.15 1 4.9 2.1 16.25 1.2 12.85 0.9 19.25-0.2 2.7-2.7 1.85l-7.65-2.5q-5.45-1.85-8-3.05l-1.05-0.65q-0.5-0.55-0.5-1.4l0.25-2.65q0.25-2.5 2.75-1.15l5.5 2.55 5.6 2.1q0.9 0.3 0.9-0.55-0.05-4.15-0.8-12.85l-1.4-13.7q-0.3-2.2-1.75-2.95-4.1-1.9-8.15-3.4-0.8-0.3-0.8 0.45 0.15 6.9 1.25 19.35 0.05 1.1 0.5 1.3l2.25 0.45q0.6 0.1 0.6-0.6l-0.55-12.25q-0.05-1.35 0.6-1.65 0.55-0.35 1.6 0.25l2.1 1.3q0.6 0.35 0.85 1l0.3 1.8q1.05 8.75 1.05 16.1 0 3.15-3.15 1.95-4.75-1.75-9.55-4.2-1.75-0.8-1.75-2.95l-0.85-13.6q-0.8-12.5-0.75-14.3 0.15-2.55 2.65-1.7m-0.8 1.65q-0.25 0.15-0.25 0.5l0.7 14.05 0.8 13.4 0.2 1.15 0.7 0.55q2.7 1.3 9.4 3.85 1 0.35 1-0.55 0-8.35-0.85-15.7-0.15-1.4-0.5-1.85l-1.55-1.05q-0.65-0.3-0.65 0.4l0.7 12.1q0 2.2-2 1.8l-2.6-0.5q-1.55-0.4-1.7-2.55-1.05-13.05-1.35-20.05 0-2.45 2.5-1.45 5.2 2 8.6 3.65 2.25 1.1 2.65 4.05 2.4 20.65 2.4 27.15 0 1.4-0.55 1.8l-2 0.05q-1.95-0.6-6-2.3-3.75-1.7-5.8-2.8h-0.45l-0.2 0.35q-0.15 0.9-0.15 2 0 0.45 0.8 0.8 4.05 2 15.3 5.55 0.65 0.2 0.75-0.45 0.35-6.35-0.95-18.9-1.1-10.8-2.1-15.75-0.3-1.55-1.55-2.35-2.95-1.65-7.35-3.75-5-2.45-7.3-3.2-0.4-0.15-0.65 0"/>
   <path d="m557 260.15q5.2 8.8 8.3 17.1 3.3 8.6 3.75 14.95l-2.25 3.4q0.15-6.75-3.7-16.9-3.8-9.8-10.25-20.1l4.15 1.55"/>
   <path d="m511.5 223.25q6.9-1.2 15.5 3.8 7.7 4.55 15.85 13.6l0.1 4.35q-8.1-9.55-15.95-14.6-8.7-5.55-15.8-4.5l0.3-2.65"/>
   <path d="m577.7 264.45q-3.25 19.4-7.75 28.25-1.85 3.7-8.55 11.6-7.5 9-11.2 10.6l-11.2 4.5q-7.2 2.7-9.4 3.2-3.05 0.7-4.75-1.45-1.7-2.1-2.9-4.4l2.05-0.65q1.15 2 2.45 3.55l1.05 0.85 1.7-0.1q2.15-0.5 9.25-3.1 7.15-2.7 10.9-4.4 3.35-1.45 10.25-9.95 6.3-7.7 8.2-11.55 3.75-7.55 6.95-26.3l2.95-0.65"/>
   <path d="m564.75 280.2q-5.1 8-11.95 16.95-7.9 10.25-11.3 12.3-4.15 2.65-13.7 6.4-10.35 4.1-16 5-3.65 0.6-5.45-1.25-3.35-3.55-5.95-9.45l2.05-0.75q2.25 5.1 5.3 8.5l1.6 0.9 2.2-0.1q5.3-0.85 15.5-5.1 9.2-3.75 13.35-6.4 3.1-1.9 10.95-12.5 6.85-9.25 12.3-18.1l1.1 3.6"/>
   <path d="m555.95 261.5q-5.45 8.85-11.95 18.5-8.65 12.85-11.65 15.45-4.05 3.6-15.15 9.05t-16.9 6.75l-3.15 0.1q-1.15-0.35-1.9-1.7-2.4-4.25-3.9-11.55l2.1-0.45q1.4 6.9 3.65 10.75 0.4 0.75 0.9 0.85l1.85-0.1q5.55-1.25 16.2-6.65 10.6-5.3 14.5-8.85 2.9-2.55 11.8-16.1l11.95-18.85 1.65 2.8"/>
   <path d="m537.9 237.55q-8.45 21.2-12.55 33.85-1.6 4.95-3.3 7.95-2.15 4.05-5.2 6.35-3.7 2.85-10.05 6.75-7.85 4.75-11.95 6.1-2.7 0.9-4.6 0.45-2.15-0.45-2.75-2.3l-2.8-7.1q-1.7-4.3 0.3-7.75 2.5-4.3 6.95-13.85l2.85-0.05q-2.75 6.05-7.9 14.85-1.55 2.75-0.15 6.1l2.7 6.75q0.8 1.9 4.75 0.65 3.8-1.3 11-5.65l10.15-6.85q2.55-2 4.35-5.3 1.35-2.55 3.15-7.9 5.85-18.1 12.7-35l2.35 1.95"/>
   <path d="m450.9 176.15q-2.35 12.8 1.75 18.35l-0.65 3.55q-6.55-6.3-3.75-21.4 2.35-12.3 8-21.15 0.85-1.4 1.4-1.1 0.5 0.3-0.2 1.8-4.7 9.65-6.55 19.95"/>
   <path d="m512.1 147.35-3.2-2.2q-1.8-1-4.15-1.8-2.3-0.75-9.5-1.2l-14.3-0.45q-1.9 0-1.95-0.7 0-0.65 1.95-0.8 6.4-0.35 14.1-0.1 7.95 0.2 10.25 0.95 6.65 2.2 11.55 6.75l-4.75-0.45"/>
  </g>
 </g>
</svg>
