<?xml version="1.0" encoding="UTF-8"?>
<svg version="1.1" viewBox="0 0 228.85 241.16" xmlns="http://www.w3.org/2000/svg">
 <g transform="translate(.030769 .064516)">
  <path d="m112.85 56.4q13.15-0.5 23.15 7.3 10 7.95 11.7 20.3l-0.95 14.1-31.6 7-30.5-8.9-1.95-9.45q-0.5-10.7 8.4-20.1 9.3-9.8 21.75-10.25" fill="#bd7b7a"/>
  <path d="m96.95 68.95q1.9 1.25 5.55 2.6l5.55 1.85q0.25 4.5-2.1 7.75-2.45 3.6-6.3 2.7-2.5-0.6-3.6-5-1.3-4.85 0.9-9.9" fill="#fff"/>
  <path d="m122.6 73 4.8-2.05 4.1-2.45q2.35 3.6 2.3 8.05-0.1 4.65-2.95 5.6-3.75 1.2-6.05-1.85-1.95-2.6-2.2-7.3" fill="#fff"/>
  <path d="m176.85 86.05q8.15-3.9 16.5-7-1 10.65-11.1 25.7-9.6 14.4-17.9 19.2l-2.7-1.1q2 3.35 4 9.5 2 5.9 2.7 10.4-1.85 2.1-5.1 1.55-6.85-1-13.45-3.35l-80.9 4.75q0.05-2.05 1.15-6.7l2.2-7.9q-11.2-4.6-23.3-18.6-10.45-12.1-14.4-21.9 6.9 1.35 19.5 5.25 12.05 3.75 17.15 5.95l44.85 3.45 41.85-8.45q8.25-5.65 18.95-10.75" fill="#60615f"/>
  <path d="m164.35 123.95-2.2-0.95q-7.5-3.15-8.25-3.7-0.7-0.5 0.05-0.8 0.8-0.35 2.1 0.25 4.6 2 11.05 3.3l-2.75 1.9" fill="#4a4c4b"/>
  <path d="m71.55 129.9-0.95 0.45-2.95-1.55q4.45-1.85 6.9-3.2 2.55-1.45 4.75-2.4 2.2-0.9 1.75-0.3l-3.4 3.05q-3.35 2.6-6.1 3.95" fill="#4a4c4b"/>
  <path d="m102.9 73.6q0.85 0.2 1.2 1.5 0.3 1.3 0.05 2.85-0.35 1.7-1.1 2.7-0.8 1-1.7 0.8-0.8-0.2-1.2-1.55-0.3-1.25-0.1-2.8 0.2-1.35 0.95-2.4 0.85-1.25 1.9-1.1" fill="#c6394f"/>
  <path d="m126.25 73.2q0.85-0.2 1.7 0.8 0.7 0.85 1.1 2.15 0.4 1.45 0.25 2.65-0.15 1.35-0.95 1.55-0.9 0.25-1.75-0.65-0.8-0.85-1.15-2.2-0.45-1.35-0.15-2.7 0.2-1.35 0.95-1.6" fill="#c6394f"/>
  <path d="m162.75 124.7q3.45 0 5.9 1.65 1.45 1 4.6 1.9 1.1 0.25 2 1.35 0.9 1 1.2 2.2 0.35 1.45 2.3 4.9 1.3 2.35 1.05 8.8-0.7 18.65-13.75 33.5-15.9 18.1-43.95 21.05-11.8 1.2-23.9-2.8-11.55-3.8-21-11.5-9.55-7.75-14.7-17.75-5.5-10.5-5-21.35 0.15-3 1.75-6.85 1.4-3.15 3.25-5.9l4.05-1.5 3.9-1.75 1.9 0.35q-0.95 2.3-2.1 7.25-1.1 4.55-1.4 7.15 4.8-0.5 11.05-2.4 6.05-1.8 10.05-3.95l0.6-1.95 0.3-1.85q4.15-1.5 6.65-3.2 0.4-0.95 1.9-1.1 1.35-0.15 2.4 0.45 2.9 1.65 4.95 3.3 1.8 1.5 4.3 1.4 1.35-2 2.55-1.8 0.75 0.1 1.75-0.5 1.1-0.6 1.55-1.55 0.45-1.05 1.85-1.4 1.45-0.35 3 0.35 2.1 1 6 3.4l3.15-1.6q1.5-0.9 1.7-1.75 0.4-1.3 1.9-1.4 1.15-0.1 2.3-0.85 0.65-0.4 3 0.4 2.5 0.75 3.35 1.7 2.45 0.85 6.45 9.5 2.55 1.4 8.05 2.65l7.35 1.15q2.1 0.1 3.35-1.65-0.55-3.6-2.35-9.35-1.65-5.25-3.25-8.7" fill="#fff3c5"/>
  <path d="m109.55 162.4q-3.65-6.15-1-7.75l4.35 0.2q2.8 1.05 4.25 2.6l0.85 0.6q0.45 0.05 0.95-0.55 1.8-2.2 5-3.1 3.3-0.95 4.55 0.75 2.15 2.7-2.45 8.1-4.55 5.3-8.55 5.35-4.25 0.05-7.95-6.2" fill="#60615f"/>
  <g fill="#b7af9d">
   <path d="m155.1 85.9 3.8 0.65q-0.3 1.45-1.8 3.85l-2.85 3.8q2.85 1.6 5.4 4.5-2.55 0.95-5.5 2.65 0.9 1.7 1.8 4.3 0.85 2.5 1.2 4.5-1.9-0.75-5.45-1.25l-5.75-0.35q0.2 5.2-0.15 7.5-2.4-1.7-4.95-2.35 0.05 2.1-0.4 4.55-0.55 2.65-1.4 4.4-3.25-2.4-9.65-5.6-1.35 4.15-4.55 8.5-3.1-2.75-8-6l-3.8 4.05q-2.65 2.6-4.6 3.7-1.8-2.05-5.05-9.1-1.55 1.15-4.95 2.75-2.9 1.45-5.6 2.5-1.2-2.5-3.55-10.65-6.1 1.35-10.65 3.5-0.1-1.95 0.1-4.9 0.2-3.3 0.6-5.55-1.85-0.25-4.9 0l-5.15 0.8q0.4-1.8 2.2-4.9 1.55-2.65 3.2-4.7-1.65-2.25-7.8-6.75 1.85-0.95 5-1.8l6.15-1.3q-0.3-3.9-1.25-7.65 3.85 0.45 6.55 2.05-0.25 1.1-0.65 5.15 3.05 0.6 6.95 4.75 0.35-1.9 1.1-3.45 1.8 0.7 5.3 3.4l4.85 4.15q0.8-2.35 0.5-5.2 2.65 0.95 7.15 4.5 4.15 3.3 6.55 6.1 2.05-3.35 5.15-6.15 2.85-2.55 5.4-3.6-0.7 1.85-0.8 5.55 2.1-2.15 6.45-5.25l5.95-4.05q0.75 2 1.05 4.8 3.9-3.95 9.4-8.3l-1.1-4.7q2.6-1.1 5.3-1.9l-0.15 3.95-0.65 4.4 4 0.15"/>
   <path d="m112.15 89.8q-1.5-2.55-1.25-5.55 0.25-2.75 2-4.8 1.75-1.9 3.55-1.85 2.05 0 3.7 2.35 1.6 2.3 1.95 5.7 0.1 0.9-0.35 1.55l-1.15 0.7q0.05 2-1.3 3.25-1.3 1.2-3.15 1.25-2.4 0.05-4-2.6"/>
   <path d="m1.15 92.45q-0.1-3.75 4.25-4.75 4.05-0.95 14.35 0.3 8.1 1.05 15.15 2.7 3.5 9.85 15.55 22.8 11.55 12.55 20.45 17-4.85 2.75-13.25 4.65-7.3 1.6-12.5 1.6-2.3 0-3.35-1.15-1.15-1.2-0.55-3.35 0.45-1.4 1.65-3.45 1.35-2.35 3.05-4.25l-13.45 1.2-12.35-0.75q-3.25-0.55-4.8-2.8-1.6-2.35-0.25-4.85 1.35-2.45 5.25-5.3 3.7-2.7 7.9-4.65-5.65-0.65-13-3.7-6.25-2.55-10.35-5.25-3.65-2.4-3.75-6"/>
  </g>
  <path d="m53.9 133q6.5-1.3 13.95-4.3l2.75 1.65-7.5 3.4q-4.6 1.4-9.85 2.25l-8.1 0.75q-2 0-3.1-0.9-1.15-0.95-0.95-2.65 5.25 1.25 12.8-0.2" fill="#968f81"/>
  <path d="m193.35 79.05q20.4-7.2 28.2-7.5 4.65-0.15 5.8 2.15 1.05 2.05-0.8 5.35-1.7 3.05-9.1 8.3-7.2 5.1-13.1 7.75 3.45 0.65 6.95 2.5 2.9 1.55 4.65 3.25 2.85 2.85 2.8 5.3-0.05 2.85-4.25 4.75-3.45 1.55-12.1 2.6l-15 0.8q7.6 4.6 6.8 8.3-0.75 3.35-7.2 4l-10.95-0.45q-6.7-0.85-11.7-2.2 11.95-9.25 20.5-23.4 7.45-12.45 8.5-21.5" fill="#b7af9d"/>
  <path d="m194.1 122.5 0.1-0.05q-0.25 1.65-2.25 2.8-1.85 1-4.95 1.35l-10.95-0.45q-6.7-0.85-11.7-2.2l2.4-2q7.8 1.6 16.2 1.7 7.7 0.05 11.15-1.15" fill="#968f81"/>
  <path d="m117.35 29.3q2.65-4.2 6.25-8.5 3.6-4.2 4.25-3.85 2.1 1.2-1.75 15.6-3.8 14.1-8.7 24.1-5.95-0.7-10.8 0.8-4.55-6.2-11.15-20.1-6.65-14.1-5.3-15.15 1.3-1 11.35 7.7 0.15-9.4 0.8-17.45 0.9-11.25 2.25-11.45 1.55-0.25 6.45 11.1 4.5 10.4 6.35 17.2" fill="#60615f"/>
  <path d="m93.75 67.05 3.1 1.95-1.35 3.75q-1.4-1.75-1.7-3.9l-0.05-1.8" fill="#525557"/>
  <path d="m131.65 68.45q2.1-2.2 2.7-3.4 0.75 2.25 0.1 4.35-0.5 1.6-1.45 2.45l-1.35-3.4" fill="#525557"/>
  <path d="m102.7 74.35s0.46943 0.27477 0.6 0.5c0.1443 0.24891 0.19931 0.56655 0.15 0.85-0.0461 0.26477-0.18579 0.53772-0.4 0.7-0.2191 0.16598-0.53057 0.25441-0.8 0.2-0.24505-0.04949-0.46667-0.18333-0.6-0.45s-0.16667-0.55-0.1-0.85c0.16667-0.73333 0.55-1.05 1.15-0.95" fill="#fff"/>
  <path d="m126.35 73.9s0.45479-0.04547 0.65 0.05c0.22257 0.10886 0.41066 0.3189 0.5 0.55 0.0901 0.23318 0.0957 0.51903 0 0.75-0.0812 0.19598-0.25402 0.36882-0.45 0.45-0.21557 0.08929-0.49631 0.11382-0.7 0-0.22208-0.1241-0.33071-0.40521-0.4-0.65-0.059-0.20848-0.0717-0.44555 0-0.65 0.0707-0.20141 0.4-0.5 0.4-0.5" fill="#fff"/>
  <path d="m72.85 129.2q3-1.6 4.5-2.95 1.25 4.4 5.85 7.25 3.95 2.45 7.55 2.3-0.15 1.6-0.85 3.4-3.3 1.6-9.85 3.65-7.4 2.25-11.25 2.5l1.8-8.35q1.4-5.75 2.25-7.8" fill="#4a4c4b"/>
  <path d="m165.8 132.85q2.1 6.2 2.5 9.9-1.65 1.8-3.8 1.7-3.25-0.15-8.1-1.6-4.65-1.3-6.9-2.55l-2.95-5.25q3.9-0.65 7.2-4.8 3.25-4.05 3.9-8.9l1.75 0.9 2.15 0.7q2.1 3.6 4.25 9.9" fill="#4a4c4b"/>
  <g fill="#dbd2ab">
   <path d="m179.4 150.35q-1.95 20.55-20.75 35.3-16.95 13.2-36.3 14.45-19.85 1.4-37.8-9.1-20.8-12.2-26.15-34.55 7.55 13.4 25.25 19.85 16.25 6 36.4 4.7 19.8-1.3 35.75-9.15 17.05-8.35 23.6-21.5"/>
   <path d="m62.5 133.75 3.7-1.35 4.05-1.7 2 0.4q-1.1 3.1-2.15 7.75l-1.3 6.5q4.05-0.3 10.6-2.2 6.4-1.9 9.9-3.75-2.4 2.65-6.6 5.65-3.8 2.7-7.2 4.45l-1.95 0.45-1.55-0.35q-0.7-0.45-1.9-0.3-1.3 0.2-2.45 0.95-0.85 0.55-2.15 0.5-1.5 0-2.45-0.9-3.05-2.85-4.55-7.6 1.45-4.6 4-8.5"/>
   <path d="m165.9 133.75-3.1-9.05 3.65 0.6q1.85 0.55 2.75 1.3 1.5 1.15 3.8 1.65 3 0.55 3.95 4.95l1.15 2.75q0.9 2 1.05 3.3-1 2.55-6.15 6.4-4.75 3.65-6.55 3.75-1.55 0.15-5.9-1.5-4.65-1.8-7.15-3.65-2.05-1.55-2.8-3.1 2.8 1.15 7 2.15l6.65 1.1q2.65 0.15 4.05-1.65-0.4-2.75-2.4-9"/>
  </g>
  <path d="m108.3 158.5q-0.5-1.1-0.4-2.3 0.05-1.4 0.85-1.8 1.45-0.7 4.35 0.55 2.6 1.15 4.15 2.85l1.4-0.05q1.4-1.65 4-2.8 2.9-1.25 4.85-0.55 1.15 0.45 1.4 2 0.25 1.45-0.45 2.45-0.3-2.9-3.7-2.5-3.35 0.45-5.9 3.35-1 1.15-1.65 0.15-1.4-2.05-4.75-3.25-3.8-1.3-4.15 1.9" fill="#4a4c4b"/>
  <g fill="#968f81">
   <path d="m10.85 102.1q-12.05-5.8-9.3-11.8 0.7 4.95 12 9.6 9.25 3.85 17.3 4.9 2.1 0.3 2.3 2.1t-2.45 1.35q-10.55-1.65-19.85-6.15"/>
   <path d="m52.85 123.35q-11.1 2.8-23.5 2.55-15.2-0.35-14.65-6.45 2.25 4.15 15.35 4 11.75-0.1 21.25-3 1.75-0.5 2.65 1 0.9 1.45-1.1 1.9"/>
   <path d="m226.95 73.5q2.95 3.25-4.8 10.2-6.95 6.3-17.55 11.4l-3.55-0.1q-1-0.2-0.95-1.25t1.15-1.4q5.6-1.6 14.8-7.9 10.2-6.9 10.9-10.95"/>
   <path d="m218.3 104.45q3.05 5.9-12.6 8.65-12.95 2.2-23.65 1.1-1.9-0.15-0.95-1.8t2.75-1.5q10.65 0.75 21.85-1.1 12-2 12.6-5.35"/>
   <path d="m157.05 90-2.8 4.05 3.2 2.3q1.55 1.3 2.05 2.15-1.3 0.55-2.95 1.4l-2.4 1.5q1 1.8 1.85 4.35l1 4.2q-2.5-0.75-5.55-1.2l-5.55-0.15q0.25 4.2-0.15 7.25-2.3-1.6-4.85-2-0.2 3.85-1.85 8.8-5.65-3.75-9.4-5.6-1.3 3.4-4.9 8.2-2.7-2.2-7.75-5.65l-4.4 4.35-4.05 3.4q-2.45-2.8-5.15-9.2l-5.8 3.1q-3 1.55-4.6 2.1-0.95-2-2-4.95l-1.55-5.5q-5.85 1-10.75 3.6l0.05-5.55q0.2-3.25 0.6-5.2-3.4-0.35-9.85 0.9 0.8-2.3 2.05-4.75 1.6-3.05 3.25-4.7-3.35-3.7-6.9-6.8 2.8 0.9 6.4 3.2 3.35 2.15 4.45 3.6-1.75 1.95-2.4 3.85l8.45 0.45q-0.45 4.05-0.05 6.7 3.75-1.4 7.95-2 0.2 1.8 1.05 4.75 0.8 2.75 1.3 3.7 1.85-0.4 4.75-1.85 3.1-1.55 4.65-3.1 0.8 2.45 2.45 5.2 1.5 2.55 2.45 3.4 3.85-1.75 6.95-6.95 5.3 3.65 6.4 4.95 2.45-2.15 4.25-6.8 5.25 2.55 7.3 4.2l0.65-3.2 0.25-3.55 2.4 0.6q1.35 0.55 2.05 1.05 0-3.45-0.7-5.7l6.8 0.7q4.85 0.7 5.75 1.1l-1.15-4.1q1.15-1.05 3.05-1.65-1.2-1.25-4.15-2.9l4.95-4.5q3.15-3.25 4.65-5.45-0.35 1.4-1.75 3.9"/>
   <path d="m111.4 82.55 0.8 1.65 0.9 0.95q0.85 0.85 2.95 1.75 2.5 1 4.55 0.9 0.05 2-1.2 3.35-1.35 1.4-3.55 1.35-2.7-0.1-4.55-3.15-2.1-3.35 0.1-6.8"/>
  </g>
  <path d="m99.45 45.2q-4.7-9-7.45-16 3.15 5.85 9.7 14.85 7.65 10.5 11.15 12.35l-6.25 1.05q-2.65-3.6-7.15-12.25" fill="#4a4c4b"/>
  <g fill="#0f141b">
   <path d="m108.4 69.85c-0.3-1.7-0.83333-2.9667-1.6-3.8-0.3-0.36667-0.35983-0.67984-0.15-0.9 0.19683-0.20652 0.85 0.1 0.85 0.1 0.63333 0.56667 1.1667 1.2833 1.6 2.15 0.4 0.9 0.61667 1.7167 0.65 2.45 0.0333 0.56667-0.16667 0.85-0.6 0.85s-0.68333-0.28333-0.75-0.85"/>
   <path d="m119.9 69.2q0.4-2.85 1.45-4.05 0.5-0.6 0.9-0.4 0.35 0.2 0.05 0.9-0.7 1.6-1 3.75-0.15 0.95-0.85 0.85-0.65-0.1-0.55-1.05"/>
   <path d="m113.15 55.4q13.5-0.3 23.35 7.5 9.9 7.95 11.85 20.9l-1.35 0.95q-1.8-12.55-11.2-20.15-9.4-7.65-22.6-7.25-11.2 0.3-19.7 8.15-9.1 8.35-10.15 21.35l-1.3-0.45q0.1-12.5 9.75-21.75 9.35-8.9 21.35-9.25"/>
   <path d="m89.75 21.15q0.75-0.4 2 0.35 2.15 1.35 4.95 3.55l4.85 4.3v2.2q-7.05-6.7-10.15-8.55l-0.55-0.1q-0.1 0.05-0.05 0.35 0.7 4 6.65 16.25 6.2 12.85 10.05 17.85l-1.7 0.3q-5.7-7.75-10.6-18.05-4.9-10.2-6-16.6-0.25-1.45 0.55-1.85"/>
   <path d="m117.05 30.65q-1.55-6.3-5.6-15.85-3.85-9.05-6.3-12.55l-0.5 0.05q-1 4.7-1.75 13.15-0.95 9.65-0.75 15.7 0.05 1.6-0.4 1.6t-0.7-1.55q-0.85-7.15 0.1-16.6 0.7-6.85 2-12.8 0.4-1.65 1.2-1.85 0.85-0.15 1.85 1.25 3.75 5.35 7.1 13.35 3.5 8.45 4.75 15.95 0.25 1.25-0.2 1.35-0.5 0.1-0.8-1.2"/>
   <path d="m126.3 16.9q1.3-1.15 2.05-0.85 0.8 0.25 0.85 2.15 0.15 7.8-2.9 18.4-3.05 10.5-8.1 19.95l-1.85-0.05q4.25-7.95 7.8-20.15 3.55-11.95 3.45-17.8l-0.2-0.4q-0.2-0.05-0.4 0.2-2.1 2-4.65 5.4-2.65 3.5-4.7 6.9l-0.55-2.45q1.7-2.7 4.45-6 2.55-3.1 4.75-5.3"/>
   <path d="m111.95 79.5c1.2333-1.5667 2.6833-2.3667 4.35-2.4 2.3667 0 4.2333 1.6 5.6 4.8 1.3333 3.1333 1.4167 5.2 0.25 6.2l-0.9 0.4c-0.1 1.1-0.53333 2.0833-1.3 2.95-0.96667 1-2.1667 1.5167-3.6 1.55-1.7333 0.03333-3.2-0.65-4.4-2.05-1.2667-1.4667-1.9167-3.35-1.95-5.65-0.0333-2.2 0.61667-4.1333 1.95-5.8m1.05 10.5c0.93333 1.3 2.05 1.95 3.35 1.95 1 0 1.8667-0.4 2.6-1.2 0.56667-0.6 0.95-1.3333 1.15-2.2l-2.15-0.3c-2.1-0.5-3.7-1.3-4.8-2.4-0.3-0.3-0.45-0.68333-0.45-1.15-0.0333-0.46667 0.0167-0.71667 0.15-0.75 0.16667-0.1 0.31667 0.05 0.45 0.45l0.6 0.8c1.3 0.93333 2.8353 1.5615 4.4 1.85 0.98397 0.18144 3-0.1 3-0.1 0.63333-0.46667 0.41667-2-0.65-4.6-1.1333-2.7667-2.5833-4.1333-4.35-4.1-1.2667 0-2.4 0.71667-3.4 2.15-0.96667 1.4333-1.4333 3.0667-1.4 4.9 0.0333 1.8667 0.53333 3.4333 1.5 4.7"/>
   <path d="m79.8 85.3q2.8 0.45 5.4 1.85 2.55 1.35 4.1 3.25l0.75-2.85q0.2-0.6 0.9-0.3 1.95 1 4.95 3.25l4.65 3.9q0.2-1.9 0-3.9-0.15-1.25 0.9-0.8 3.25 1.4 7.25 4.45 3.8 2.95 6.25 5.8 1.9-2.85 4.7-5.45 3.1-2.9 5.65-3.85 0.55-0.25 0.85 0 0.25 0.2 0.1 0.8-0.7 2.25-0.75 3.95 2.6-2.35 5.95-4.85 3.15-2.45 5.35-3.75 0.7-0.4 0.9 0.3 0.75 1.8 1.05 3.65 4.9-4.75 9.7-7.7 1-0.65 1.25-0.2 0.3 0.4-0.7 1.1-4.75 3.2-10.15 8.85-0.4 0.4-0.7 0.3-0.35-0.05-0.45-0.6-0.25-2.3-0.9-3.9l-6 4.05q-3.6 2.65-5.65 4.65-0.3 0.3-0.55 0.2-0.3-0.15-0.35-0.6-0.1-2.6 0.3-4.4-2.4 1.3-5.05 3.9-2.45 2.5-4 4.95l-0.9 0.05q-2.05-2.6-5.65-5.35-3.55-2.7-6.85-4.25 0 1.95-0.7 4.15l-0.4 0.4q-0.3 0.05-0.5-0.25-1.35-1.45-4.2-3.6-2.85-2.1-5.3-3.4-0.45 1-0.95 2.75l-0.35 0.55q-0.3 0.05-0.55-0.3-3.3-4.35-8.55-5.1 0.65 3.2 0.45 5.95-0.05 1-0.55 1.05-0.45 0.05-0.55-0.95-0.1-3.55-0.9-6.95-0.2-0.95 0.75-0.8"/>
   <path d="m154.7 93.65q3.3 1.7 5.6 4.6 0.65 0.85-0.25 1.15-3.3 1.1-5.05 2.2 2.3 4.55 2.9 8.5 0.25 1.45-1.1 0.9-4.25-1.75-10.15-1.8l0.1 3.35-0.2 3.8q-0.05 0.6-0.45 0.75-0.3 0.05-0.8-0.3-1.7-1.4-3.8-2.15-0.3 4.75-1.55 8.35-0.4 1.05-1.35 0.4-5.3-3.6-8.7-5.4-1.7 4.25-4.65 7.95-0.5 0.65-1.05 0.1-3.15-2.8-7.25-5.65-3.05 3.85-7.95 7.7l-1.25-0.05q-2.3-3-4.7-8.95-3.75 2.4-9.8 5.25-0.85 0.35-1.15-0.4-1.85-4.7-3.15-10.35-5.45 1.3-9.85 3.5-1.2 0.55-1.25-0.6-0.45-4.4 0.7-10.1l-4.3 0.25-4.6 0.8-0.9-0.15q-0.3-0.35-0.1-0.9 1.25-4.55 5.3-9.3-2.4-2.55-7.45-6.1-0.5-0.3-0.5-0.7 0-0.45 0.65-0.75 1.9-0.95 4.95-1.8 3.25-0.85 5.85-1.05l-1.75-7.25q-0.35-0.9 0.8-0.8 1.5 0.15 3.65 0.9 1.95 0.7 3.2 1.45l-0.25 1.4-2.55-1.1-3-0.8q0.75 2.7 1.35 6.8 0.05 0.6-0.5 0.65-2.1 0.05-5.05 0.9-2.6 0.7-4.9 1.7 4.05 2.8 6.9 6.25 0.3 0.4 0 0.7-3.2 3.5-4.75 8.1l8.9-0.5q0.75 0 0.6 0.85-0.95 3.9-0.6 9.05 4.5-2 9.85-3 0.7-0.1 0.85 0.65 0.85 3.8 3.1 9.85l5-2.35q3.1-1.55 4.65-2.65 0.8-0.5 1.1 0.35 1.8 4.6 4.6 8.45l4.1-3.5 3.55-3.8q0.45-0.55 1-0.2 5.2 3.65 7.35 5.5 2.95-3.9 4.25-7.5 0.3-0.75 1-0.4 5.5 2.9 8.85 5.1 1.3-4.15 1.45-7.8 0.05-0.85 0.95-0.6 2.5 0.6 3.95 1.65 0.3-2.5 0.1-6.25 0-0.7 0.75-0.7 6.3 0 10.1 1.25-0.8-4-2.65-7.3-0.3-0.55 0.25-0.95 2.2-1.5 4.65-2.4-1.9-2.35-4.55-3.6l0.95-1.15"/>
   <path d="m159.9 86.75q-2.55 5.45-6.3 8.85-0.75 0.65-1.05 0.35-0.35-0.4 0.3-1.1 2.75-3.15 5.05-7.8l-7-0.7q-0.95 0.05-0.7-0.8 0.8-3.55 1-7.1l-4.5 1.5-0.4-1.6q2.65-1.15 5.6-1.9 1-0.3 0.95 0.8-0.05 2.95-1.15 7.75l7.7 0.6q0.95 0.15 0.5 1.15"/>
   <path d="m34.9 89.8q21.2 4.55 37 11.2l-1 1.95q-15.8-6.65-36.45-11.2-19.8-4.35-28-3.4-4.1 0.45-4.35 3.5-0.2 3 3.7 5.85 4.7 3.4 11.6 6 6.6 2.5 13.3 3.65 1.35 0.15 1.25 0.7-0.1 0.45-1.35 0.3-6.45-0.6-13.7-3.1-7.75-2.55-12.5-6-4.8-3.4-4.4-7.7 0.4-4.45 6.35-5.15 8.35-0.9 28.55 3.4"/>
   <path d="m52.9 123.45c-5.1 1.6333-10.917 2.65-17.45 3.05 0 0-10.468 0.83837-15.4-0.6-2.0938-0.61067-4.55-1.6-5.65-3.3-1.0333-1.6333-1.15-3.45-0.35-5.45 0.63333-1.5 2.2833-3.25 4.95-5.25 2.7-2.0333 5.5333-3.5833 8.5-4.65l2.85 0.55c-3.0667 1.0667-6.1 2.6833-9.1 4.85-3 2.1-4.7833 3.8667-5.35 5.3-1.2333 3.0667 0.35 5.0667 4.75 6 4.5 0.96667 9.6667 1.2833 15.5 0.95 5.5-0.3 10.967-1.1167 16.4-2.45l1.4 0.1c0.1 0.33333-0.25 0.63333-1.05 0.9"/>
   <path d="m42.15 132.15q-1.4 3.6 3.5 3.55 9.25-0.15 18.8-3.55 10.25-3.65 16.2-9.5 0.8-0.75 1.15-0.4 0.35 0.3-0.35 1.1-5.7 6.6-16.75 10.65-9.65 3.5-19.1 3.75-3.75 0.05-5.1-1.8-1.2-1.8-0.2-4.55 1.5-3.85 5.1-6.9l2.95-0.45q-2.1 1.7-3.8 3.9-1.65 2.15-2.4 4.2"/>
   <path d="m71.5 136.65q-1.55 5.8-1.8 8.75l-1.9 0.1q0.55-5.75 4.1-15.55l2.05-1.25q-1.1 2.7-2.45 7.95"/>
   <path d="m163.15 125.4-0.6-1.35q1.55-1.4 5.85 1.4 2.05 1.3 4.2 1.8 3.65 0.9 4.4 3.55 0.4 1.45 1.15 3.05l1.4 2.9q1.6 3.5 1.2 9.35-1.7 27.55-24.55 43.25-9.05 6.2-20.05 9.45-9.75 2.85-18.2 2.75-29.25-0.65-47.55-20.45-7.75-8.45-11.35-18.45-3.5-9.75-2.15-18.35 0.4-2.3 1.7-5.2 1.3-2.65 2.9-5l2.9-0.8q-1.75 1.95-3.5 5.5t-2.15 5.85q-1.25 7.4 2.05 16.55 3.45 9.5 10.8 17.7 17.85 19.8 46.35 20.05 8 0.05 17.1-2.55 10.55-3 19.2-8.7 22.3-14.75 24.6-41.65 0.5-5.3-0.85-8.6l-1.4-2.95-1.2-3.1q-0.35-1.9-3.15-2.6-2-0.4-4.65-2.1-2.35-1.5-4.45-1.3"/>
   <path d="m69.2 130.45 0.8-0.35 2.5 0.25-0.4 1.45-3.6-0.1 0.7-1.25"/>
   <path d="m66.25 144.7q2.15 0.6 11.85-2.1 10.4-2.9 12.45-5.65l-0.65 2.8q-3.25 2.45-12.4 4.8-8.9 2.3-11.55 1.6l-2.2-1.2q-1.2-1.05-2.15-2.5-0.5-0.9-0.15-1.2 0.4-0.2 1.05 0.55l2 1.9 1.75 1"/>
   <path d="m57.55 146.65 0.75-3.65q0.2 2.6 1.8 6 1.6 3.55 2.9 4.05 2.25 0.9 4.65-0.05 3-1.15 5.1-0.85 1.7 0.35 4.2-1.1 6.1-3.6 9-6.85 3.45-3.85 4.45-9.1 0.1-0.4 0.9-0.65 3.35-1.25 5.2-2.55 1.1-0.75 2.1-0.45 1.15 0.25 1.6 1.55 0.9 2.3 1.95 3.75 0.6 0.7 1.3 0.65 3.15-0.15 3.95 1.15l0.75 0.6q0.45 0 0.75-0.55 0.95-2.05 1.9-3.35 1.35-1.95 3.05-1.65l1.15-0.3 1-1.05q2.25-3.8 6.75-1.45l3.5 2.05 3.7 1.95q0.95 0.45 1.5 1.2 0.5 0.75 0.35 1.5-0.2 1.1 0.5 3 0.85 2.3 0 4.6-0.35 1-0.8 0.9-0.55-0.15-0.2-1.15 0.45-1.85-0.35-4.1-0.8-1.95-0.55-3.15 0.2-0.95-1.15-1.55l-3.6-1.85-3.5-2q-1.75-0.95-2.85-0.75-1.2 0.2-2.1 1.7-0.65 1.1-1.6 1.6l-2 0.35q-0.85-0.2-1.85 1.25-1.35 1.95-1.8 3.4-0.35 1.2-1.5 1.2t-1.9-1.2-3.05-1.05q-1.5 0.1-2.3-0.95-1.1-1.3-2.35-4.05-0.55-1.45-1.85-0.5-2.1 1.4-5.55 2.7-0.9 5.4-4.7 9.7-3.2 3.5-9 6.75-3.2 1.75-5.35 1.35-1.7-0.3-4.2 0.65-3.25 1.25-5.75 0.35-1.4-0.55-2.9-3.1-1.35-2.35-2-4.95"/>
   <path d="m108.7 139.75q-0.5 2.7-0.5 6.05 0 1.05-0.45 1.05-0.5 0-0.6-1.05-0.45-3.9-0.05-6.4l1.6 0.35"/>
   <path d="m101.8 130.7 5.3 3.5 2.25 1.2 2.05 0.1-1 1.4q-1.9 0-3.95-1.6-3-2.15-5.2-3.35-1.55-0.9-3.15 0.4l-1.9 0.35q0.65-1.7 2.5-2.25 1.75-0.5 3.1 0.25"/>
   <path d="m174.2 149.6q-4.2 3.4-7.15 3.85-2.05 0.3-6.2-1.6-3.8-1.8-8.6-5.1-1.6-1.05-2.3-3.2-0.55-1.75-2.5-5.35l-3.2-5.45q-1.25-1.6-5.35-0.25-1.85 0.55-2.75 2.15-1.2 2.4-5.05 3l-0.35-1.35q1.5-0.2 2.6-0.85 1.15-0.6 1.5-1.45 0.45-0.9 1.45-1.7 1.05-0.8 2.25-1.2 5.05-1.6 6.7 0.6 1.5 2.05 3.55 5.65 2.15 3.8 2.65 5.55 0.55 1.55 1.8 2.4l8.2 4.75q4 1.85 5.35 1.7 2.8-0.3 7.4-4.7 4.8-4.55 5.1-7.8l0.65 3.45q-1.35 3.4-5.75 6.9"/>
   <path d="m170.15 131.6q-0.05-0.4 0.55-0.55l1.3 0.2q0.55 0.35 0.6 1 0.15 0.9 1.15 1.35 0.85 0.35 1.15 1.5 0.25 1.15-0.55 2.4l-3.1 3.8q-2.7 2.95-4.3 3.7-1.65 0.8-7.6-0.55-5.35-1.15-9.35-2.85l-1.05-2.45q3.9 2.25 10 3.65 5.75 1.25 7.3 0.55 1.45-0.6 3.85-3.15l3-3.45q0.45-0.75 0.4-1.3l-0.55-0.75q-1.35-0.5-1.5-2 0-0.5-0.6-0.6-0.7-0.05-0.7-0.5"/>
   <path d="m127.1 134.15q1.75-1 3.45-1.7 1.2-0.6 1.4-1.35 0.25-0.75 0.85-1.3 0.65-0.55 1.4-0.6 0.9-0.05 2.45-0.8 0.95-0.45 4.25 0.75 3.35 1.25 4.35 2.6l-2.15-0.05q-0.85-0.9-3.2-1.65l-2.9-0.4q-1.7 0.85-2.75 0.9-0.85 0.1-1.1 0.95l-0.6 1.2-1.2 0.75-2.9 1.5-1.35-0.8"/>
   <path d="m166.5 131.8q1.95 5.55 2.8 10.45l-1.7 1.4q-0.75-5.25-3.1-11.95-2.2-6.3-4.2-9.25l2.2 0.65q2.05 3.2 4 8.7"/>
   <path d="m191.4 80.95q-22 8.5-32.75 16.65l-1.5-1.45q10.4-7.9 32.65-16.65 21.6-8.4 31.25-8.85 5.85-0.25 7.35 3 1.4 3.1-1.9 7-3 3.55-8.9 7.7-5.9 4.1-12.1 7l-2.25-0.4q5.75-2.6 12-7.1 6.4-4.55 9.65-8.4 2.45-2.9 1.5-4.95-1-2.2-5.35-2-9 0.4-29.65 8.45"/>
   <path d="m215.2 111.5q-7 2.7-17.35 3.4l-15.65-0.65q-1.2-0.2-1.15-0.7 0.1-0.4 1.3-0.3 19.15 1.45 32.15-3.55 2.65-1 3.2-2.75 0.5-1.6-0.8-3.25-2.55-3.35-6.25-5.4-3.75-2.15-9.1-3.1-1.25-0.2-1.2-0.65 0.05-0.5 1.25-0.4 5.3 0.4 9.75 2.65 4.6 2.25 7.15 5.9 1.85 2.4 1.2 4.75-0.75 2.65-4.5 4.05"/>
   <path d="m190 117.2c-1.4667-1.1667-3.0833-2.15-4.85-2.95l3.2-0.1c3.1333 1.6667 5.1833 3.5 6.15 5.5 0.93333 1.8667 0.93333 3.4667 0 4.8-0.9 1.2667-2.6 2.1333-5.1 2.6-4.7333 0.9-10.65 0.68333-17.75-0.65-7.5-1.4-13.483-3.5667-17.95-6.5-0.63333-0.4-0.85-0.75-0.65-1.05 0.2-0.26667 0.6-0.21667 1.2 0.15 4.2333 2.4333 9.8 4.3 16.7 5.6 0 0 12.118 1.748 18 0.55 1.403-0.28576 3.3333-1 3.9-1.8 0.5-0.66667 0.48333-1.6333-0.05-2.9-0.43333-1-1.3667-2.0833-2.8-3.25"/>
   <path d="m75.6 157.1 1.75-0.15q0.55 0.3 0.6 1.75 0.05 2.6 0.8 4.3l-1.3 0.45q-0.7-1.55-0.9-4.6-0.05-0.95-0.8-0.7l-1.45 0.1q-0.4-0.25-0.6-1.4-0.35-2.25-0.2-3.85l1.35-0.2q-0.2 1.85 0.1 3.7 0.05 0.75 0.65 0.6"/>
   <path d="m128.15 184-4.75 0.8q-0.95 0.05-1.65 1.35-1.4 3.15-3.65 5.65-1.65 2.05-3.2 2.35l-4 0.15 0.15-1.45 3.65-0.15q1.1-0.15 2.55-1.85 2.05-2.35 3.5-5.35 0.65-1.45 1.15-1.8l1.45-0.3q2.05-0.1 5.15-1.1l-0.35 1.7"/>
   <path d="m110.35 162.4c2.1333 3.5 4.5333 5.2667 7.2 5.3 2.3 0.0333 4.9333-1.6333 7.9-5 2.9333-3.4 3.7-5.75 2.3-7.05-0.76667-0.7-2.05-0.8-3.85-0.3-1.9333 0.53333-3.55 1.5167-4.85 2.95l-1.05 0.7-0.85-0.6c-1.0667-1.2333-2.7731-2.2906-4.45-2.8-1.1327-0.34406-2.7753-0.99513-3.55-0.1-1.5277 1.7652-0.93333 3.4 1.2 6.9m2.2-8.5c2.1333 0.63333 3.8333 1.75 5.1 3.35l0.7-0.05c1.4333-1.8333 3.3-3.0167 5.6-3.55 2.2-0.53333 3.85-0.28333 4.95 0.75 2.0333 1.9 1.4167 4.9167-1.85 9.05-3.1667 4.0667-6.3167 6.1-9.45 6.1-3.4-0.0333-6.35-2.2667-8.85-6.7-1.0333-1.8333-1.65-3.5667-1.85-5.2-0.16667-1.7333 0.10384-2.837 1.1-3.6 1.2047-0.92271 4.55-0.15 4.55-0.15"/>
   <path d="m104.55 78q-0.35 2.1-1.35 3.05-0.9 0.85-1.9 0.7-1.1-0.25-1.55-1.7-0.45-1.35-0.15-3.05 0.25-1.7 1.25-2.8t2.1-0.85q1.15 0.15 1.55 1.6 0.4 1.35 0.05 3.05m-1.7-3.9q-0.75-0.15-1.45 0.7t-0.9 2.35q-0.2 1.4 0.1 2.5 0.3 1.15 0.8 1.25 0.75 0.1 1.4-0.7 0.65-0.85 0.85-2.3 0.3-1.55 0.05-2.6-0.15-1.1-0.85-1.2"/>
   <path d="m125.55 74.8q-0.1 1 0.3 2.6 0.4 1.4 1.15 2.05 0.55 0.55 1.1 0.4 0.5-0.15 0.7-1.1 0.2-1.05-0.25-2.45-0.8-2.95-2.2-2.65-0.65 0.15-0.8 1.15m0.65-2.05q0.9-0.2 1.85 0.65 1.05 0.85 1.45 2.45 0.5 1.7 0.05 3.1-0.4 1.3-1.3 1.6-1.05 0.35-2-0.5-0.95-0.8-1.4-2.25-0.5-1.75-0.05-3.3 0.45-1.5 1.4-1.75"/>
   <path d="m96.15 69.3-2.05-1.55c-0.06667 0.56667 0.01667 1.2167 0.25 1.95 0.2 0.83333 0.53333 1.5833 1 2.25 0.16667-1 0.43333-1.8833 0.8-2.65m6.05 2.9c-2-0.73333-3.5667-1.45-4.7-2.15-1.1667 2.2667-1.5333 4.8833-1.1 7.85 0.5 3.0667 1.7167 4.85 3.65 5.35 1.9667 0.5 3.6333-0.11667 5-1.85 1.3-1.7333 2.0833-4.25 2.35-7.55-1.5-0.36667-3.2333-0.91667-5.2-1.65m-8.8-5.45s0.20199-0.41729 0.4-0.45c0.83216-0.13748 0.8 0.38333 2.2 1.25 1.7667 1.1333 3.45 2.05 5.05 2.75 2.9 1.2333 5.3 2.05 7.2 2.45 0.3 0.06667 0.45 0.25 0.45 0.55-0.1 4.5667-1.15 7.8833-3.15 9.95-1.7333 1.7-3.7333 2.25-6 1.65-1.8-0.5-3.1167-1.9-3.95-4.2-0.7-2.1667-0.85-4.6667-0.45-7.5-0.8-0.86667-1.3667-1.8167-1.7-2.85-0.43333-1.3-0.45-2.5-0.05-3.6"/>
   <path d="m133.25 70.95c0.96667-1.2 1.2833-2.7833 0.95-4.75-0.43333 0.9-1.0667 1.7667-1.9 2.6l0.95 2.15m-7.7 9.4c1.2667 1.4 2.8 1.8667 4.6 1.4 1.6333-0.43333 2.6-1.95 2.9-4.55 0.3-2.7333-0.26667-5.3333-1.7-7.8-2.5667 1.7-5.2667 3.0667-8.1 4.1 0.2 3.1 0.96667 5.3833 2.3 6.85m9.15-15.3c0.43333 0.86667 0.58333 2 0.45 3.4-0.2 1.4667-0.68333 2.6167-1.45 3.45 0.83333 2.6333 0.96667 5.0833 0.4 7.35-0.6 2.2333-1.7333 3.5667-3.4 4-2.2667 0.6-4.2333 0.1-5.9-1.5-1.8333-1.8667-2.8167-4.8-2.95-8.8l0.4-0.5c1.3333-0.33333 2.85-0.95 4.55-1.85l4.45-2.8 2.15-2.2c0.43333-0.63333 0.42577-0.92574 0.85-0.95 0.20037-0.01146 0.45 0.4 0.45 0.4"/>
  </g>
  <path d="m78.15 163.15q9.35-3.2 19.85 5.9 10.7 9.15 13.05 23 0.9 5-4.35 11.45-5.3 6.6-12.55 8.65-0.1 4.5-0.75 9.2l-3.9-4.55q-2.05-2.6-3.35-4.6-3.25 5.95-4.8 9.25l1.25-10.85q-5.85-2-10.2-8.8-4.15-6.4-5.35-14.45-1.2-8.35 1.35-14.7 2.85-7.1 9.75-9.5" fill="#60615f"/>
  <path d="m156.7 160.25q7.25 0.1 11.5 7.4 4.3 7.55 3.05 18.95-0.75 6.65-4.8 13.15-4.25 6.9-10.4 10.45l0.9 9.5q-2.5-2.4-6.05-6.8l-6.25 6.6-0.6-8.35q-9.45-2.85-13.45-10.15-4-7.15-2.2-17.75 1.25-7.15 9.75-14.75 9.25-8.35 18.55-8.25" fill="#60615f"/>
  <path d="m79.4 223.7q1.65-1.2 1.7-2.4l5.05-9.1q1.4 2.4 7.35 9.5l-0.25 2.25q1.4 0.7 2.8 2.5 1.15 1.55 1.55 2.8l-8.6 4.3-4.2 0.15-8.75-3.5q-0.15-1.6-1.55-4.15 3.1-1 4.9-2.35" fill="#bd7b7a"/>
  <path d="m138.9 230.25q0.15-1.55 1.95-3.9 1.7-2.2 3.8-3.9l-0.05-2.6 6.3-6.95q3.3 4.4 6.05 6.8 0.2 2.55 0.85 3.55 0.35 0.55 1.8 1.55l2.95 1.7q-1.85 1.15-3.45 4.4l-8 3.55-4.25-0.1-7.95-4.1" fill="#bd7b7a"/>
  <g fill="#b7af9d">
   <path d="m76.2 230.05q0.9-2.3 3.25-3.25 2.2-0.85 3.9 0 1.6 0.75 2.2 2.85 0.7 2.2-0.45 3.7-1.25 1.8-5.9 3.8-3.65 1.6-6.45 2.25 0.55-2.8 2-6.45l-7.3 0.3-6.75-0.6q1.75-2.3 5.1-4.75 3.85-2.95 6.15-3.15 1.6-0.15 3.05 1.85 1.2 1.85 1.2 3.45"/>
   <path d="m89.8 229.05q1.2-2.2 2.95-2.4t3.3 1.4q1.4 1.55 1.5 3.35 0.05 1.85-1 4.1-1 2.2-2.5 3.75l-3.05-2.8q-2-2.15-2.15-3.35-0.25-2 0.95-4.05"/>
   <path d="m138.85 230.65q0.1-1.45 1.7-2.7 1.55-1.15 3.05-1.05 1.4 0.05 2.65 1.85 1.15 1.65 1.1 2.85 0 3.7-3.4 7.55-1.65-1.4-3.4-4.2-1.75-2.9-1.7-4.3"/>
   <path d="m151.4 235.05q-0.45-1.25 0.25-3.65 0.7-2.5 2-3.1 1.3-0.55 3.05 0.4 1.55 0.8 2.4 2.2 0.85-2 2.25-3.35 1.2-1.15 2.05-1.2 1.55-0.1 5.4 4 2.95 3.15 4.75 5.85l-6.6-0.7q-3.9-0.75-6.6-1.65l0.75 3.15 0.45 3.75q-2.9-0.6-6.35-2.55-3.3-1.95-3.8-3.15"/>
  </g>
  <path d="m110.9 190.35q1.7 5.8-3.75 12.75-5.35 6.9-12.9 9l-0.75 9.5-3.85-4.5q-2.3-2.85-3.45-4.8-2.7 5.25-4.9 8.35l0.6-5.65 0.6-4.4q-7.35-3.75-11.45-10.9-5.45-9.45-3.9-23.4 1.2 7.45 7.7 12.4 5.5 4.25 13.75 5.85 7.5 1.45 14.05 0.25t8.25-4.45" fill="#4a4c4b"/>
  <path d="m151.1 212.9q-5.1 5.25-6.6 7.15l-0.45-8.75q-6.45-1.85-11.3-7.45-5.4-6.1-5-13.2 3.6 3.5 10.7 4.3 6.8 0.75 14.15-1.2 7.6-2.05 12.55-6.25 5.55-4.65 6.1-10.7 1.85 9.6-2.85 19.5-4.5 9.6-12.3 13.9 0.3 5.8 0.85 10l-5.85-7.3" fill="#4a4c4b"/>
  <g fill="#968f81">
   <path d="m75 227q1 1.35 1.25 2.85-1.1 2.2-1.45 3.15-10.9 0.55-13.9-0.7 3.65-0.2 8-1.5 5.4-1.65 6.1-3.8"/>
   <path d="m83.75 227.2q1.75 1.2 1.8 3.35 0.05 1.95-1.1 3.35-1.8 2.05-6 3.7-3.55 1.4-5.8 1.55 4.45-2.45 7.65-5.7 3.75-3.65 3.45-6.25"/>
   <path d="m94.1 239.3q-5.9-4.45-4.95-7.8 0.8 1.6 2.45 3.15 1.5 1.25 1.95 1.25 0.5 0 1.85-1.6 1.6-1.85 1.8-3.55 0.45 1.9-0.7 4.7-1 2.3-2.4 3.85"/>
  </g>
  <g fill="#96605f">
   <path d="m86.2 212.15 3.5 5.05 3.8 4.4-0.3 2.15q-0.3 1.15-5.4 0.8t-6.75-1.8l0.25-1.1 0.2-0.75 2.3-4 2.4-4.75"/>
   <path d="m88.95 231.8v1.65l-1.9 0.2-2-0.15q0.65-1 0.45-3.6l1.95-0.3 1.85 0.35q-0.25 0.7-0.35 1.85"/>
   <path d="m145.3 222.7-0.7-2.85 3.05-3.2 3.45-3.65q2.3 3.55 5.9 7.05l-0.05 3.15q0.7 1.9-6.3 1.75-6.95-0.2-5.35-2.25"/>
   <path d="m151.45 230.95-0.15 1.8v1.75q-2.45 0.25-4.6-0.05 0.45-1 0.65-3.55 0.6-0.45 2-0.4 1.3 0.05 2.1 0.45"/>
  </g>
  <g fill="#968f81">
   <path d="m140.5 234.7q-2.1-3.7-1.05-5.05 0.5 1.35 2.25 3.85 1.7 2.4 2 2.35 0.5 0 1.65-1.5 1.35-1.8 1.75-3.75 0.4 1.9-0.5 4.5-0.95 2.4-2.55 4-1.7-1.1-3.55-4.4"/>
   <path d="m151.4 233.15q0.05-1.4 0.6-2.85 0.35 2.15 4.15 5.75 3.2 3.1 5.45 4.3-2.2-0.15-5.4-1.7-3.55-1.7-4.45-3.4-0.45-0.75-0.35-2.1"/>
   <path d="m160.45 228.4q1.85 1.95 6.5 4.6 4.35 2.5 6.4 2.95l-5.9-0.4q-3.85-0.5-7.1-1.65l-1.55-3q0.85-1.7 1.65-2.5"/>
  </g>
  <g fill="#0f141b">
   <path d="m98.95 168.65q11.6 10.2 13 23.8 0.6 5.6-4.55 11.7-5.15 6.15-12.5 8.65-0.3 5-1 10.65 2.2 1.25 3.45 3.55 1.1 2.15 1 4.35l-1.75-2.15q-0.5-1.4-1.65-2.75l-2.4-2.1q-0.25-0.2-0.2-0.55l1-11.8q0-0.4 0.4-0.5 6.9-2.25 11.8-8 4.85-5.7 4.35-11-1.3-12.4-12.05-22.15-11.05-10-20.45-5.9-5.95 2.55-8.4 9.3-2.2 6.2-0.9 14 1.2 7.7 5.3 13.8 4.35 6.55 10.5 8.85 1 0.35 0.9 0.85l-1.2 0.15q-7-1.75-11.85-8.6-4.45-6.3-5.7-14.65-1.2-8.4 1.4-15.2 2.8-7.4 9.25-10.25 5.1-2.25 11.2-0.4 5.7 1.6 11.05 6.35"/>
   <path d="m80.35 224.05q-2.05 1.6-5.45 2.7l-1-1.3q3.65-1.05 5.65-2.75 0.65-0.55 0.9-1.55l0.35-2.15q0.45-5.85 1.05-8.7l1.5 0.4q-0.8 3.7-1.05 8.4-0.35 3.75-1.95 4.95"/>
   <path d="m81.4 219.3q2.9-4.9 4.2-7.7 0.2-0.3 0.5-0.35 0.2 0 0.45 0.3 2.55 4.15 6.95 9.15l-0.25 2.05q-3.95-4.6-7.05-9.2-1.8 3.85-5.15 9.2l0.35-3.45"/>
   <path d="m81.7 227.2q-3-0.05-4.8 3.1l-2.2 4.9q-1.3 3.15-1.1 3.3 0.55 0.4 4.95-1.75 4.65-2.25 5.75-3.85 1.1-1.55 0.05-3.6-1-2.05-2.65-2.1m4.2 1.55q1.3 3-0.3 5.15-1.9 2.45-7.5 4.45-5.05 1.75-5.5 1.2-0.4-0.4 0.5-3.7 0.95-3.5 2.45-6.35 2.2-4.05 6.05-3.9 2.95 0.1 4.3 3.15"/>
   <path d="m65.95 228.7q-4.45 3.05-4.15 3.55l5.45 0.35 7.8-0.4-0.6 1.6q-4.95 0.5-9.45 0.15-4.35-0.4-4.7-1.2-0.45-1.05 3.95-4.8 4.7-3.95 7.85-3.95 1.65 0 3.05 1.7 1.35 1.5 1.7 3.55l-1.55 1.95q0.25-2.1-0.9-3.95-1.05-1.7-2.3-1.7-1.65 0-6.15 3.15"/>
   <path d="m93 227.45q-1.4 0.15-2.5 1.9-1.05 1.65-0.95 3.4 0.05 0.9 2.1 3.35 1.95 2.3 2.3 2.3t1.55-2.8q1.3-2.9 1.25-4.25-0.05-1.3-1.35-2.65-1.25-1.4-2.4-1.25m5.35 3.9q0.05 2.05-1.8 5.5-1.75 3.15-2.5 3.2-0.6 0.1-3.25-2.65-2.8-2.9-2.85-4.5-0.1-2.35 1.3-4.55 1.45-2.4 3.6-2.6 1.85-0.15 3.7 1.7 1.8 1.8 1.8 3.9"/>
   <path d="m89.3 234.2-2.55 0.3-2.55-0.15 1-1.4 3.5-0.15 0.6 1.4"/>
   <path d="m160.95 162.25q-8.4-3.5-19.55 4.75-10.6 7.85-12.15 16.75-2.05 11.35 3.2 18.55 4 5.4 11.95 8.3l0.4 0.45 0.6 11.6-0.2 0.4q-3.6 2.9-5 5.55l-2.05 2.3q-0.2-1.95 1.9-4.8 1.55-2.1 3.8-4.05l-0.65-10.2q-8.45-3-12.7-9-5.35-7.7-3.3-19.45 0.8-4.6 4.45-9.6 3.55-4.8 8.6-8.45 11.85-8.65 21.4-4.85 5.75 2.3 8.7 9 2.8 6.4 2.2 14.5-0.6 8.35-4.7 15.35-4.5 7.7-12.1 11.6-1.1 0.55-1.35 0.2-0.25-0.45 0.8-1.1 7-4.5 11-12.05 3.65-6.8 4.15-14.55 0.5-7.5-1.95-13.25-2.6-6-7.45-7.95"/>
   <path d="m143.5 227.7q-1.3 0-2.5 0.95-1.3 0.95-1.25 2.15 0.05 1.65 1.85 4.65 1.75 2.8 2.25 2.8 0.55 0 1.55-2.1 1.1-2.3 1.15-4.4 0.05-1.2-1.1-2.65-1.1-1.4-1.95-1.4m0.05-1.7q1.5-0.05 3.05 1.95 1.6 1.9 1.55 3.8-0.05 1.85-1.25 4.25l-1.7 2.55-1.3 1q-0.35 0-1.25-0.8-1.1-1-2.25-2.75-2.15-3.3-2.25-5.05-0.05-1.9 1.8-3.45 1.75-1.4 3.6-1.5"/>
   <path d="m150.9 230.8q0.95-2.8 2.8-3.35 2.2-0.65 4.2 1.15 2.1 1.75 3.3 5.7 0.6 1.9 0.75 4.3 0.2 2.25-0.15 2.5l-2.4-0.35q-2.25-0.7-4.05-1.6-4.5-2.35-4.9-4.05-0.35-1.85 0.45-4.3m1.45 0.5q-0.55 1.9-0.25 3.4 0.3 1.3 4.25 3.45 3.8 2.15 4.5 1.75 0.35-0.3-0.45-3.2-0.7-2.75-1.45-4.25-1-2.05-2.25-2.95-1.25-0.8-2.55-0.5-1.15 0.3-1.8 2.3"/>
   <path d="m169.35 230.2q2.35 2.45 3.6 4.5 0.9 1.5 0.75 1.75l-2.3 0.35-5.1-0.65q-3.1-0.55-5.8-1.5l-0.6-1.85q3.05 1.3 7.75 2.3l4.6 0.5q0.15-0.5-3.65-4.4-3.9-4-5.1-4.05-0.75 0-2.05 1.45-1.3 1.55-1.95 3.2l-0.95-1.65q0.85-1.8 2.2-3.1 1.55-1.5 2.75-1.5 1.45 0 5.85 4.65"/>
   <path d="m156.6 228.65q-0.15-1.7-1.7-3.45-0.6-0.7-0.2-1 0.3-0.3 1 0.3 1.35 1.05 2 2.6 0.55 1.35 0.4 2.65l-1.5-1.1"/>
   <path d="m146.75 233.65q1.6 0.25 4.45 0.05l0.05 1.45q-2.45 0.3-4.7-0.05l0.2-1.45"/>
   <path d="m157.45 217.15q0.5 5 0.85 5.6l2.1 1.7q1.7 1.15 3.05 1.75l-1.5 0.9-2.8-1.65-2.1-1.85q-0.5-0.75-1.05-5.7-0.55-4.7-0.6-7.35l1.5-0.85q0 2.4 0.55 7.45"/>
   <path d="m151.7 212.4q3 4.25 5.45 6.95l0.1 2.35q-3.8-4.3-6.25-7.7-4.25 4.15-6.45 7.1l-0.15-2.1 6.05-6.65 1.25 0.05"/>
  </g>
 </g>
</svg>
