<?xml version="1.0" encoding="UTF-8" standalone="no"?>
<svg
   version="1.1"
   viewBox="0 0 357.4 342.48"
   id="svg746"
   sodipodi:docname="634.svg"
   inkscape:version="1.2.2 (b0a8486, 2022-12-01)"
   xmlns:inkscape="http://www.inkscape.org/namespaces/inkscape"
   xmlns:sodipodi="http://sodipodi.sourceforge.net/DTD/sodipodi-0.dtd"
   xmlns="http://www.w3.org/2000/svg"
   xmlns:svg="http://www.w3.org/2000/svg">
  <defs
     id="defs750" />
  <sodipodi:namedview
     id="namedview748"
     pagecolor="#505050"
     bordercolor="#eeeeee"
     borderopacity="1"
     inkscape:showpageshadow="0"
     inkscape:pageopacity="0"
     inkscape:pagecheckerboard="0"
     inkscape:deskcolor="#505050"
     showgrid="false"
     inkscape:zoom="1.3781827"
     inkscape:cx="171.24"
     inkscape:cy="200.26373"
     inkscape:window-width="1371"
     inkscape:window-height="736"
     inkscape:window-x="0"
     inkscape:window-y="25"
     inkscape:window-maximized="0"
     inkscape:current-layer="svg746" />
  <path
     d="m 314.22733,37.215428 q 1.236,-1.32429 1.94229,-1.236004 0.618,0.08829 0.88286,1.545005 1.10357,7.769168 -1.76572,23.969649 -3.04587,17.083341 -7.81331,27.765947 8.03402,-0.220715 16.42119,1.721577 9.22589,2.163007 14.08162,5.959305 5.20887,4.105303 9.57903,10.506033 4.4143,6.53316 7.01874,14.12576 2.91344,8.25474 1.10357,14.87619 -1.98643,7.32774 -9.27003,10.24118 0.97115,-4.76745 -0.0883,-11.30061 -1.01529,-6.31245 -2.91344,-9.00517 -0.52972,3.57558 -3.57558,10.41775 -3.09001,7.06288 -4.45845,7.46016 -1.80986,0.48558 -12.49247,-5.47373 -7.72502,-4.37016 -16.37705,-9.93217 1.72158,3.26658 3.26658,8.47545 1.45672,5.0323 1.80987,8.47546 -7.68089,1.63329 -20.17336,-3.75216 -14.56719,-6.35659 -22.02735,-17.87791 1.10357,10.50603 6.2683,19.59949 4.94402,8.69617 10.72675,11.30061 -2.82515,1.36843 -7.15116,3.70801 l -6.44488,3.39901 q 0.39729,3.61973 2.95758,9.1376 2.56029,5.3413 5.29716,8.56374 -4.85573,1.05944 -10.41775,4.89988 -4.1053,2.78101 -7.72502,6.31245 5.25301,-0.0883 12.80147,1.01528 6.5773,0.88286 11.03575,2.07473 1.67743,0.48557 1.72157,1.45671 0,1.05944 -2.03057,1.58915 l -6.79803,1.98644 -7.54845,2.56029 q -4.14944,6.84217 -5.47373,14.39062 l 7.28359,1.10357 q 4.89988,0.35315 9.40246,0.13243 -3.35487,3.00173 -7.76917,12.58076 4.37016,1.58915 10.24118,4.32601 5.20887,2.42787 8.87274,4.45845 -3.31072,2.472 -12.71318,7.37188 -9.09346,4.67915 -14.34648,6.75388 2.29544,3.57558 4.89988,9.35831 2.42786,5.47373 3.75215,9.7556 l -10.85918,-0.618 -8.78445,0.97115 q 1.80986,4.94401 2.11886,9.84389 -6.31245,-0.97115 -12.71318,-6.79802 1.854,6.53316 1.854,21.54178 -6.48902,-2.51615 -16.81848,-2.73687 0,2.64858 -0.44143,5.65031 -0.44143,3.39901 -1.28015,5.73859 -5.91516,-3.1783 -12.58075,-13.41947 -2.82515,2.56029 -8.2106,8.69617 -5.38545,6.04759 -8.43131,10.15289 -2.2513,-3.53144 -6.84217,-9.53489 -4.23773,-5.60616 -6.70973,-8.43131 -2.5603,1.36843 -8.91689,6.22416 -5.51787,4.19358 -9.04931,7.23945 l -3.04587,-3.66387 -3.31073,-3.66387 q -1.32429,1.76572 -3.57558,3.66387 l -3.57558,2.60444 q -0.70629,-4.81159 -2.51615,-12.27176 -1.80987,-7.06288 -3.26659,-10.9916 -3.84044,0.88286 -13.15461,3.92872 -8.78446,2.82516 -14.83205,5.12059 0,-3.17829 0.97115,-7.76917 1.05943,-4.89987 2.51615,-7.90159 -4.45844,1.32429 -9.71146,1.94229 3.57558,-3.4873 8.91689,-10.24118 l -8.07817,0.92701 q -5.29716,0.39728 -8.12232,0 1.10358,-2.73687 4.28188,-8.16646 3.00172,-5.07644 5.42958,-8.5196 -3.75215,-1.63329 -11.96275,-5.9593 l -13.8609,-7.5926 q 3.53144,-1.76572 9.7556,-5.29716 l 9.31418,-5.60616 Q 99.16263,211.05056 93.335754,201.20667 l 11.256466,-0.309 11.34475,0.39729 q -0.83872,-3.1783 -1.19186,-8.96103 2.95758,0.35314 5.78273,1.72158 -0.22071,-2.95758 -0.0441,-8.16646 0.22071,-4.45844 0.57386,-7.54845 2.69272,1.14772 9.57903,5.87102 6.48902,4.45844 10.02046,7.41602 l 0.39729,-3.35487 q -2.20715,-1.89815 -7.98989,-7.81331 -6.40073,-6.53316 -8.69617,-9.49074 -1.19186,-1.54501 -0.927,-2.33958 0.22071,-0.66215 1.236,-0.70629 3.13416,-0.22071 9.57903,1.01529 5.25302,1.05943 9.31418,2.38372 -3.1783,-9.97632 -5.42959,-14.96448 -1.76572,-3.88458 -4.23773,-6.2683 -2.11886,-2.03058 -6.00345,-4.01701 -9.22588,-4.81159 -17.17162,-12.75733 -8.74032,-8.87274 -9.57903,-15.8032 -4.149447,-3.39901 -3.266587,-11.47718 0.794574,-7.72502 4.855727,-12.095177 -2.472,-4.237728 -2.73686,-7.989883 -0.441433,-5.076445 5.69444,-13.860902 5.07645,-7.239452 11.0799,-12.492469 4.28187,-3.796298 15.58248,-6.709736 8.25474,-2.163007 17.03919,-3.178296 -2.73686,-7.548453 -4.67915,-24.543508 -1.80987,-15.4941931 -1.36844,-22.3805011 0.0883,-1.32429 0.618,-1.589148 0.52972,-0.264858 1.36844,0.529716 5.3413,4.944016 13.06633,19.8643501 8.03402,15.670765 10.02046,26.04437 6.53316,-10.108747 23.6165,-22.336358 14.56719,-10.461891 23.61651,-13.905045 3.13415,-1.147718 2.33958,1.677434 -2.51615,8.740314 -14.83205,24.013792 -12.05104,15.052763 -21.32107,21.365212 6.75388,5.253017 12.75733,14.390618 6.22416,9.446602 8.25474,18.054487 1.41257,6.135877 -1.80987,19.643634 -2.82515,11.87447 -6.75388,20.34992 -5.25301,11.16818 -0.48557,24.41108 2.25129,-2.82515 6.31245,-6.88631 l 5.3413,-5.12058 q 1.58915,-1.41258 2.5603,-1.14772 1.01529,0.22071 0.79457,1.98643 -0.52971,4.67916 -3.57558,15.1852 -2.78101,9.7556 -5.0323,15.45005 l -1.63329,4.4143 q -0.57386,2.25129 -0.22072,4.85573 l 1.32429,12.36004 1.14772,13.50775 q 5.9593,-18.93734 19.90849,-40.9647 15.53834,-24.27865 29.79653,-33.41625 -0.61801,-10.68261 5.42959,-21.58593 6.62145,-11.96275 17.83377,-17.348197 -10.24118,-7.239452 -21.85079,-25.558797 -9.62317,-15.229335 -12.27175,-23.83722 -0.618,-2.030578 -0.13243,-2.383722 0.39729,-0.309001 1.89815,0.264858 9.84389,3.752155 26.30923,18.231059 16.20048,14.258189 22.33635,24.234507 1.05944,-9.181744 9.71146,-26.883087 8.43132,-17.21577 14.43477,-23.439933"
     id="path482"
     style="fill:#60615f;stroke-width:0.88286" />
  <path
     d="m 211.32999,185.31519 q -5.12059,9.97632 -10.72675,24.98494 -0.48557,-9.7556 -2.29543,-26.57409 2.25129,-2.29543 5.73859,-5.25301 3.66387,-3.00173 6.18002,-4.54673 -0.0883,2.56029 0.17657,5.91516 0.35314,3.35487 0.927,5.47373"
     id="path484"
     style="fill:#60615f;stroke-width:0.88286" />
  <path
     d="m 264.12502,87.71502 q 4.7233,5.208874 9.66732,8.872743 -10.37361,4.590867 -17.12749,16.244627 -6.53316,11.25646 -6.13587,22.6895 -9.04932,6.04759 -18.93735,18.05449 -11.47718,13.94918 -20.26164,31.73881 -0.52971,-2.60443 -0.83871,-5.60616 -0.44143,-3.66387 -0.26486,-5.78273 l -1.58915,0.927 q 5.78273,-18.23106 11.87447,-35.22611 6.79802,-19.11392 9.62317,-24.23451 3.92873,-7.23945 12.75733,-18.937346 8.47545,-11.344751 14.39062,-17.613057 2.64858,4.281871 6.84216,8.872743"
     id="path486"
     style="fill:#60615f;stroke-width:0.88286" />
  <path
     d="m 278.7805,73.633403 q -5.34131,-5.650304 -9.40246,-8.961029 l 11.16818,-12.757327 q 0.13243,4.635015 -0.39729,10.859178 -0.52972,6.003448 -1.36843,10.859178"
     id="path488"
     style="fill:#60615f;stroke-width:0.88286" />
  <path
     d="m 281.29665,76.67927 q 3.13415,-2.560294 7.06288,-5.164731 4.85573,-3.310725 8.43131,-4.767444 -5.20887,12.183468 -6.70974,21.100354 l -4.19358,-5.782733 -4.59087,-5.385446"
     id="path490"
     style="fill:#60615f;stroke-width:0.88286" />
  <path
     d="m 1.209313,63.171512 q -0.529716,-1.76572 0.309001,-2.251293 0.750431,-0.397287 2.030578,0.529716 4.988159,3.884584 17.039198,10.859178 -2.516151,-3.752155 -5.032302,-10.903321 -2.20715,-6.312449 -2.692723,-9.755603 -0.264858,-1.986435 0.529716,-2.20715 0.750431,-0.176572 1.809863,1.191861 12.757327,17.127484 37.565693,39.419699 23.130932,20.791351 38.492696,30.105521 5.826876,3.53144 9.534887,7.68089 4.06116,4.63501 7.10702,11.56546 4.7233,10.90332 12.9339,25.2498 7.37188,12.9339 13.68433,22.0715 -5.82687,-4.19359 -13.46361,-8.38717 -0.309,2.86929 -0.48558,7.23945 -0.17657,4.85573 -0.0441,8.47546 -3.04587,-1.58915 -5.78273,-1.72158 0.0883,4.89987 0.927,9.04931 l -8.38717,-0.618 q -4.59087,-5.78273 -10.285317,-17.52477 -5.429589,-11.30061 -6.268306,-16.24462 -0.529716,-3.26658 -4.590872,-5.16473 Q 62.921227,150.75122 35.375995,118.57098 8.139764,86.699731 1.209313,63.171512"
     id="path492"
     style="fill:#60615f;stroke-width:0.88286" />
  <path
     d="m 161.66912,121.21956 q 2.60443,2.95758 9.27003,4.7233 6.00345,1.63329 11.07989,1.32429 -7.68088,11.78618 -17.3482,16.86262 -10.0646,5.29716 -29.61995,7.37188 -1.05943,-1.50086 -2.91344,-2.95758 -2.03058,-1.58914 -4.23773,-2.472 -7.63674,-3.04587 -16.68605,-12.49247 -9.31417,-9.75561 -10.06461,-16.06806 -4.061151,-2.86929 -3.134148,-11.56546 0.927003,-8.254742 4.723298,-12.006897 1.98644,3.928727 6.44488,7.901597 0.13243,-6.356592 2.38372,-12.713184 2.20715,-6.18002 4.94402,-8.563742 0.48557,7.725025 2.86929,14.478904 2.51615,7.062882 5.12059,7.416022 2.78101,0.39729 12.40418,-6.753877 9.79975,-7.327738 14.25819,-13.331186 0.70629,4.546729 0.309,11.300608 -0.309,6.444875 -1.45671,12.492465 9.97631,-0.79457 19.15806,-7.813307 8.87274,-6.842165 12.31589,-15.803194 0.17658,9.888032 -4.89987,21.232781 -5.78273,13.02219 -14.92033,17.43649"
     id="path496"
     style="fill:#5c94bf;stroke-width:0.88286" />
  <path
     d="m 339.30055,137.6849 q 2.64858,-5.87102 4.1053,-11.30061 2.33958,3.31072 3.09001,9.7556 0.57386,5.38545 -0.0883,10.55018 l 2.78101,-1.19186 q 1.63329,-0.92701 2.78101,-2.38373 0.35314,6.88631 -2.91344,13.06633 -3.00172,5.60616 -6.31245,6.31245 -4.67915,1.01529 -21.89492,-3.39901 -2.91344,-0.75043 -5.12059,-2.69272 -1.76572,-1.58915 -3.4873,-4.28187 -16.06805,6.79802 -25.33808,3.17829 -5.87102,-2.38372 -11.07989,-11.56546 -5.25302,-9.27003 -6.44488,-19.55535 5.25301,9.22588 19.33463,16.46534 14.08162,7.23945 22.86608,5.16473 -1.05944,-5.47373 -1.76572,-8.16646 -1.50087,-5.51787 -3.53144,-9.40246 4.7233,3.88459 16.15633,10.24118 11.6979,6.48902 12.9339,5.78273 1.32429,-0.79457 3.92873,-6.5773"
     id="path498"
     style="fill:#5c94bf;stroke-width:0.88286" />
  <path
     d="m 313.16789,186.72777 q 6.3566,0.48557 11.47718,-3.39901 l 1.67744,-1.14772 1.19186,-0.0883 q 0.618,0.52972 0.26486,2.33958 -0.39729,2.03058 -1.89815,4.01702 -2.11887,3.04586 -7.15117,5.47373 -4.98816,2.42786 -10.94746,2.51615 -10.10875,0.22071 -21.4535,-10.94747 -11.25647,-11.12403 -13.5519,-23.3075 5.29716,-2.11886 13.02218,-7.32774 1.23601,8.69617 5.56202,16.02391 4.01701,6.88631 9.93218,11.16818 5.78273,4.23773 11.87446,4.67916"
     id="path500"
     style="fill:#5c94bf;stroke-width:0.88286" />
  <path
     d="m 316.21376,156.66639 q 3.97287,7.06288 5.47373,15.84733 1.05943,6.40074 0.618,12.44833 -12.71318,5.51787 -23.83722,-4.98816 -10.15289,-9.53489 -12.66904,-25.11737 6.44488,2.2513 12.97805,1.36844 5.38544,-0.70629 13.46361,-4.1053 1.36843,2.51615 3.97287,4.54673"
     fill="#ec869b"
     id="path504"
     style="stroke-width:0.88286" />
  <path
     d="m 101.19321,213.74328 9.53489,13.33119 q -4.7233,3.22244 -18.716636,10.99161 4.149442,2.56029 13.287046,7.32774 l 12.18346,6.13587 q -5.20887,7.23945 -9.71146,16.68606 6.31245,1.01529 16.20049,-0.92701 l -4.19359,5.34131 q -2.64858,2.91343 -5.0323,4.98816 l 5.0323,-0.75044 5.29716,-1.32429 q -1.45672,2.69273 -2.56029,7.50431 -0.97115,4.23773 -1.23601,8.2106 1.72158,-0.66214 5.16473,-1.72157 v 4.7233 q 0.13243,3.26658 0.44143,4.7233 -6.62145,4.81158 -15.84733,14.03747 -1.10358,1.10358 -1.45672,2.20715 -0.309,0.83872 -0.39729,2.60444 -0.13243,4.85573 -2.51615,9.57903 -0.83872,-1.50086 -1.67743,-1.67743 -0.75044,-0.0883 -1.72158,0.618 l -5.341304,4.45844 q -3.663869,3.44315 -3.619726,4.7233 -4.193585,0.57386 -10.59432,0.22072 -7.06288,-0.35315 -10.241176,-1.63329 0.750431,-1.67744 -1.633291,-6.62145 -2.339579,-4.85573 -3.840441,-4.81159 0.04414,-1.72158 0.838717,-9.04932 l -17.966201,0.39729 q -13.772616,0.17657 -18.98149,-0.48557 0.397287,-1.50086 2.030578,-3.66387 1.721577,-2.25129 3.884584,-3.88459 2.030578,-1.545 2.339579,-3.48729 0.264858,-1.23601 -0.264858,-3.44316 -1.721577,-7.23945 -1.854006,-14.52304 -0.220715,-8.78446 2.074721,-14.83205 2.604437,-6.93045 15.582479,-18.71663 13.551901,-12.27176 27.412803,-19.55535 4.635015,-2.47201 6.577307,-4.76745 l 5.208874,-6.09173 6.312451,-6.84217"
     fill="#5c94bf"
     id="path506"
     style="stroke-width:0.88286" />
  <path
     d="m 318.8182,303.70672 q 2.73686,10.55018 4.63501,22.42464 0.17657,1.36844 -0.0441,2.03058 -0.35314,0.75043 -1.54501,1.14772 l -6.93045,1.236 -19.11392,1.98644 -4.67915,-0.13243 q -2.73687,-0.309 -4.1053,-0.927 -1.36844,-0.61801 -2.8693,-3.13416 -1.58915,-2.73686 -2.73686,-6.79802 -1.23601,-4.37016 -3.04587,-7.01874 -1.98644,-2.82515 -5.6503,-5.42959 -2.82516,-2.03057 -9.35832,-5.51787 -6.79802,-3.70801 -11.56547,-5.73859 5.78274,-4.7233 9.79975,-12.53661 3.75215,-7.19531 4.37016,-13.94919 5.29716,-0.39729 10.24117,0.66214 -2.42786,-8.29888 -8.65203,-19.11391 3.44316,-1.32429 7.68089,-3.4873 7.81331,5.87102 18.36348,15.45005 11.78619,10.6826 16.59777,16.86262 4.4143,5.73859 8.60789,21.98322"
     fill="#5c94bf"
     id="path508"
     style="stroke-width:0.88286" />
  <path
     d="m 296.96741,178.29646 q 5.73859,-4.37016 12.53662,-7.81332 -1.05944,7.37189 -3.61973,14.16991 -2.33958,-1.10358 -4.89987,-2.8693 -2.69273,-1.854 -4.01702,-3.48729"
     id="path510"
     style="fill:#ffffff;stroke-width:0.88286" />
  <path
     d="m 321.73164,173.22001 5.29716,-2.11886 q 3.48729,-1.23601 5.56201,-1.54501 l -2.64858,6.22416 -3.00172,5.60617 q -1.10358,1.32429 -4.63502,3.57558 0.48558,-5.95931 -0.57385,-11.74204"
     id="path512"
     style="fill:#ffffff;stroke-width:0.88286" />
  <path
     d="m 59.301501,329.39794 q 7.06288,-6.31244 8.652028,-6.48902 1.456719,-0.13243 3.928727,4.81159 2.383722,4.85573 1.589148,6.40074 -0.485573,0.927 -10.638463,2.38372 l -10.373605,0.48557 q -0.264858,-1.236 6.842165,-7.5926"
     id="path514"
     style="fill:#ffffff;stroke-width:0.88286" />
  <path
     d="m 98.765343,330.06009 q 4.679157,-4.37016 6.091737,-4.23773 1.14772,0.17657 4.94401,7.68088 3.7963,7.50431 2.91344,7.9016 -1.72158,0.75043 -9.97632,-1.94229 -8.210595,-2.73687 -8.43131,-3.92873 -0.264858,-1.14772 4.458443,-5.47373"
     id="path516"
     style="fill:#ffffff;stroke-width:0.88286" />
  <path
     d="m 313.69761,329.00066 q 6.00345,5.25301 5.51787,6.22416 -0.927,1.54501 -12.00689,0.0883 -11.12404,-1.41258 -11.52132,-3.09001 -0.30901,-0.92701 4.98815,-4.76745 5.20888,-3.7963 6.09174,-3.70801 1.01529,0.0883 6.93045,5.25302"
     id="path518"
     style="fill:#ffffff;stroke-width:0.88286" />
  <path
     d="m 321.90821,317.25862 q 4.19358,0.83872 10.85918,4.89987 6.35659,3.88459 6.18002,4.98816 -0.22072,0.88286 -6.48902,1.28015 -5.91517,0.39729 -8.91689,-0.0883 -0.57386,-6.84216 -1.63329,-11.07989"
     id="path520"
     style="fill:#ffffff;stroke-width:0.88286" />
  <path
     d="m 217.77487,10.862057 q 1.236,1.015289 -2.33958,7.592596 -3.35487,6.224163 -9.4466,14.478904 -14.87619,20.217494 -24.49937,25.558797 -0.48557,-0.397287 -3.00172,-1.76572 -0.97115,-0.573859 -0.70629,-1.677434 0.309,-1.147718 1.50086,-1.854006 7.85746,-4.944016 20.70307,-19.246348 12.13933,-13.596044 17.78963,-23.086789"
     id="path524"
     style="fill:#4a4c4b;stroke-width:0.88286" />
  <path
     d="m 123.39714,168.49671 q 6.62145,3.66387 12.71318,7.63674 7.19531,4.76744 11.12404,8.34303 1.28014,4.28187 2.82515,12.93389 -8.16646,-7.54845 -16.64191,-16.28876 -11.74204,-12.09518 -10.02046,-12.6249"
     id="path526"
     style="fill:#4a4c4b;stroke-width:0.88286" />
  <path
     d="m 143.30563,190.78892 q 0,1.01529 -0.48557,1.85401 -0.309,0.52972 -1.14772,0.26486 -0.88286,-0.13243 -1.50086,-0.70629 l 1.01529,-3.35487 2.11886,1.94229"
     id="path528"
     style="fill:#4a4c4b;stroke-width:0.88286" />
  <path
     d="m 122.51428,186.46291 q 0.70629,4.37016 1.36843,7.06288 0.39729,1.50086 -0.88286,1.89815 -1.19186,0.309 -2.47201,-0.618 -0.48557,-14.83205 1.01529,-16.15634 0.17657,2.86929 0.97115,7.81331"
     id="path530"
     style="fill:#4a4c4b;stroke-width:0.88286" />
  <path
     d="m 117.96755,201.73639 q -0.83872,0.48557 -2.03058,0.35314 l -0.79457,-5.12059 q -0.39729,-3.13415 -0.48558,-4.7233 l 0.70629,-0.0883 q 1.54501,5.20887 3.00172,8.03402 0.48558,1.01529 -0.39728,1.54501"
     id="path532"
     style="fill:#4a4c4b;stroke-width:0.88286" />
  <path
     d="m 94.042042,200.85353 q 2.295436,3.61972 8.122308,10.81503 6.40074,8.12232 10.02047,11.60961 1.01528,0.97115 0.927,2.11887 -0.17657,1.36843 -1.94229,2.38372 L 101.8995,214.582 q -6.091738,-8.96103 -8.872747,-13.59604 l 1.015289,-0.13243"
     id="path534"
     style="fill:#4a4c4b;stroke-width:0.88286" />
  <path
     d="m 92.232179,237.66879 q 5.871019,2.69272 14.876191,5.60616 9.88803,3.13415 16.28877,4.06116 -6.35659,10.59432 -7.63674,14.21404 l 9.35831,-0.75043 q 4.63502,-0.66214 8.60789,-1.67743 -2.11887,5.60616 -4.89987,8.96103 3.97287,-0.618 7.63673,-2.78101 -1.58914,5.0323 -1.28014,9.93217 9.18174,-4.1053 17.56891,-5.73859 1.80986,3.35487 3.57558,8.38717 1.54501,4.37016 2.42787,8.34303 2.47201,-1.72158 4.54673,-4.50259 2.69272,2.07473 5.78273,6.40074 8.69617,-6.57731 18.05449,-11.34475 8.5196,7.06288 13.41947,13.50776 7.76917,-7.32774 14.52305,-10.90332 1.80986,3.31072 4.06115,6.22416 2.33958,3.17829 4.45845,4.7233 0.88286,-2.20715 1.236,-4.81159 l 0.26486,-5.0323 q 6.04759,-0.52972 10.55018,1.236 0.22071,-4.81158 -0.66215,-12.84561 -0.88286,-7.15116 -2.16301,-13.59604 -0.22071,-1.23601 0.22072,-1.45672 0.48557,-0.17657 1.36843,0.88286 3.00173,3.75215 6.09174,7.01874 3.57558,3.84044 5.60616,5.3413 0.22071,-2.03058 0,-4.63502 -0.26486,-2.78101 -0.92701,-4.7233 5.69445,-1.63329 12.84562,0.88286 -1.50086,-5.51787 -3.84044,-10.85918 8.47545,-0.52971 20.48235,-3.26658 11.83032,-2.64858 19.55535,-5.69444 -4.37016,3.17829 -12.53662,7.50431 -8.51959,4.50258 -14.12576,6.40073 2.16301,3.66387 4.50259,8.8286 2.73687,5.91516 4.01701,10.19703 -12.18346,-1.14771 -19.55534,0.88286 1.94229,6.00345 2.20715,9.57903 -3.04587,-0.39728 -6.09174,-1.94229 -3.61972,-1.854 -6.53316,-5.12059 1.76572,8.96103 1.67743,21.4535 -4.23773,-1.14772 -8.96103,-1.72157 l -7.98988,-0.48558 q 0,6.75388 -1.54501,11.3889 -3.66386,-2.78101 -6.40073,-5.69445 -3.09001,-3.35487 -5.95931,-7.94574 -4.01701,3.88458 -8.8286,9.22589 -5.73859,6.35659 -7.90159,9.84389 -2.8693,-4.45845 -6.88631,-9.79975 -4.4143,-5.91516 -6.75388,-8.29888 -3.84044,2.38372 -8.25474,5.73859 -5.47373,4.19358 -9.66732,8.25474 -1.236,-2.16301 -3.17829,-4.4143 -1.85401,-2.2513 -3.44316,-3.44316 -4.06115,4.59087 -6.97459,6.26831 -0.52972,-4.67916 -2.38372,-12.0069 -1.85401,-7.54845 -3.39901,-11.12403 -15.89148,4.4143 -28.07495,9.09345 0.22071,-3.26658 1.236,-7.81331 1.14772,-5.20887 2.47201,-7.90159 -4.63502,1.45672 -9.79975,1.89815 l 4.76745,-4.94402 4.19358,-5.3413 q -10.46189,1.76572 -16.28876,0.88286 1.545,-3.39901 4.01701,-7.72503 3.13415,-5.60616 5.73859,-8.91688 -5.47373,-2.42787 -13.28704,-6.62145 -9.314178,-4.98816 -12.006901,-7.2836"
     id="path536"
     style="fill:#4a4c4b;stroke-width:0.88286" />
  <path
     d="m 285.26952,197.58695 q -25.42637,7.50431 -35.66755,12.88975 3.88459,-8.2106 6.31245,-11.16818 5.73859,-1.854 16.15634,-2.91343 l 16.4212,-0.57386 q -0.309,0.927 -3.22244,1.76572"
     id="path538"
     style="fill:#4a4c4b;stroke-width:0.88286" />
  <path
     d="m 241.30309,52.488906 q -3.04587,-6.753879 -1.67743,-7.371881 5.60616,11.168179 17.61305,26.838944 12.09518,15.714908 18.89321,20.614781 1.14771,0.794574 1.19186,1.986435 0.0441,1.236004 -1.14772,1.76572 l -2.38372,0.264858 Q 263.55116,89.833884 249.77855,67.85067 244.26067,59.066213 241.30309,52.488906"
     id="path540"
     style="fill:#4a4c4b;stroke-width:0.88286" />
  <path
     d="m 315.9489,35.846995 q 1.63329,-0.132429 1.45672,6.886308 -0.0883,6.577307 -1.63329,16.33291 -3.75215,23.704791 -8.78446,30.282098 h -4.37015 q 4.45844,-7.636739 9.00517,-27.059659 4.23773,-18.010344 4.32601,-26.441657"
     id="path542"
     style="fill:#4a4c4b;stroke-width:0.88286" />
  <path
     d="m 263.15387,160.41854 q 4.1053,-0.17657 11.6979,-2.78101 6.70974,-2.29543 9.40246,-3.97287 l 1.36843,0.927 q -3.92873,3.88459 -13.06633,7.72503 0.66215,3.66387 2.95758,8.5196 2.51616,5.38544 5.56202,8.78446 -3.84044,0.70628 -8.16645,3.53144 l -7.50431,5.29716 q -1.94229,-1.19187 -3.97287,-3.84045 -4.14944,-5.29716 -4.63502,-12.44832 -0.17657,-2.25129 1.72158,-6.62145 2.11886,-4.98816 4.63501,-5.12059"
     id="path544"
     style="fill:#4a4c4b;stroke-width:0.88286" />
  <path
     d="m 316.30205,157.06367 q 2.29543,1.41258 7.19531,2.5603 -1.45672,2.91343 -3.7963,4.67915 -1.10358,-3.84044 -3.39901,-7.23945"
     fill="#913000"
     id="path548"
     style="stroke-width:0.88286" />
  <path
     d="m 191.4215,145.10092 q 0.35314,5.73859 2.56029,10.28532 -3.97287,4.45844 -9.18174,12.49247 -2.33958,3.53144 -7.2836,7.15116 -5.29716,3.84044 -11.03575,5.87102 -14.69961,5.12059 -21.45349,-4.94401 -1.28015,-4.59088 -3.09001,-9.35832 l -4.14945,-10.50603 q -0.88286,-2.2513 -2.781,-4.4143 12.93389,-0.39729 23.26336,-4.45845 15.31762,-6.04759 23.6165,-19.46706 9.27003,-2.38372 15.36177,-17.21577 5.38544,-13.154613 4.63501,-24.455221 2.60444,8.254741 -0.48557,22.910221 -2.60444,12.27175 -7.54846,23.04264 -2.781,5.95931 -2.42786,13.06633"
     id="path550"
     style="fill:#4a4c4b;stroke-width:0.88286" />
  <path
     d="m 13.745925,49.31061 q 0.750431,4.85573 4.590872,12.757327 3.663869,7.592596 6.312449,10.197033 1.103575,1.059432 0.529716,1.854006 -0.618002,0.750431 -1.854006,0.264858 Q 21.91238,73.545117 20.764662,72.485685 17.409794,67.674098 14.672928,58.889641 11.936062,49.972755 13.745925,49.31061"
     id="path552"
     style="fill:#4a4c4b;stroke-width:0.88286" />
  <path
     d="m 1.341742,60.78779 q 13.066328,25.073224 39.066555,53.41303 27.501089,29.92895 48.380728,39.77284 4.546729,2.16301 6.135877,3.66387 1.854006,1.94229 3.178296,6.31245 2.648582,8.43131 7.416022,16.4212 4.67916,7.90159 9.18175,11.56546 0.17657,4.50259 1.236,9.27003 l -8.87274,-0.48557 q -4.85573,-6.57731 -9.711463,-16.46534 -5.208874,-10.55018 -6.533164,-17.25991 -0.353144,-2.03058 -1.191861,-2.91344 -0.573859,-0.70629 -2.251293,-1.54501 Q 63.804087,150.70708 38.333576,122.01413 12.156777,92.614893 1.739029,65.025518 0.326453,61.273363 1.341742,60.78779"
     id="path554"
     style="fill:#4a4c4b;stroke-width:0.88286" />
  <path
     d="m 280.10479,52.312334 q 0.70629,2.030578 0.13243,9.402459 -0.57386,7.06288 -1.67744,11.91861 l -2.82515,-3.178296 q 2.42786,-5.473732 4.37016,-18.142773"
     id="path556"
     style="fill:#4a4c4b;stroke-width:0.88286" />
  <path
     d="m 166.34828,143.42349 q -5.42959,2.95758 -14.25819,5.3413 -9.71146,2.51615 -17.12749,2.51615 -2.29543,-3.22244 -7.28359,-5.20887 -2.8693,-1.10358 -7.81331,-4.72331 -5.82688,-4.28187 -9.40246,-8.60788 10.41775,7.41602 29.66409,6.48902 20.70307,-1.05943 41.89171,-11.78618 -8.65203,12.22761 -15.67076,15.97977"
     id="path560"
     style="fill:#4a7a9e;stroke-width:0.88286" />
  <path
     d="m 316.12547,194.71765 q -4.89987,2.07472 -8.69617,1.76572 -10.28532,-0.75043 -20.65892,-10.46189 -10.94746,-10.24118 -14.21405,-23.70479 8.87275,-4.4143 13.41948,-7.23945 l 0.75043,4.85573 q -1.36844,11.52132 5.0323,20.74721 5.51787,8.07817 13.59604,10.59432 8.12231,2.56029 18.01035,-1.23601 -2.60444,2.69273 -7.23946,4.67916"
     id="path562"
     style="fill:#4a7a9e;stroke-width:0.88286" />
  <path
     d="m 331.35481,160.72754 q 12.09518,0.88286 17.56891,-5.78273 -0.70628,2.33958 -2.56029,4.67916 -1.80986,2.38372 -3.31073,2.78101 l -5.0323,-0.22072 q -3.53144,-0.44143 -6.66559,-1.45672"
     id="path564"
     style="fill:#4a7a9e;stroke-width:0.88286" />
  <path
     d="m 309.15088,170.92457 q 0,2.42787 -1.10357,6.6656 -1.05944,4.01701 -2.38373,7.06288 -2.25129,-0.97115 -3.84044,-2.38372 3.70801,-6.09174 7.32774,-11.34476"
     id="path568"
     style="fill:#dcdddd;stroke-width:0.88286" />
  <path
     d="m 332.14938,169.73271 q -1.19186,4.67916 -3.57558,8.74032 -2.91344,4.89987 -6.26831,6.18002 l 0.22072,-5.60616 q 2.42786,-1.41258 4.94402,-3.84044 2.60443,-2.5603 4.67915,-5.47374"
     id="path570"
     style="fill:#dcdddd;stroke-width:0.88286" />
  <path
     d="m 73.294832,331.34024 q 0.573859,2.03057 0.264858,2.73686 -0.529716,1.05943 -10.241176,2.42787 l -10.903321,0.39728 q 3.97287,-2.38372 9.667317,-5.12058 5.208874,-2.42787 9.71146,-4.19359 0.971146,1.89815 1.500862,3.75216"
     id="path572"
     style="fill:#dcdddd;stroke-width:0.88286" />
  <path
     d="m 95.763619,333.23839 q 1.412576,-1.67744 3.045867,-3.09001 l 7.460164,5.51787 q 4.37016,3.44315 6.3566,5.73859 -1.80987,0.70629 -9.75561,-1.67743 -8.254739,-2.47201 -8.431311,-4.4143 -0.04414,-0.48558 1.32429,-2.07472"
     id="path574"
     style="fill:#dcdddd;stroke-width:0.88286" />
  <path
     d="m 300.32228,327.58808 q 2.78101,0.88286 9.00517,3.4873 6.40074,2.60444 9.75561,4.28187 -1.6333,1.236 -12.0069,-0.0441 -10.55018,-1.28015 -11.30061,-3.1783 -0.17657,-0.52972 1.32429,-2.03058 1.45672,-1.32429 3.22244,-2.51615"
     id="path576"
     style="fill:#dcdddd;stroke-width:0.88286" />
  <path
     d="m 322.74692,322.68821 q 2.47201,0.22071 7.54846,1.76572 4.81158,1.36843 8.34302,2.86929 -0.75043,0.92701 -5.78273,1.23601 -5.07644,0.39728 -9.53489,-0.22072 0.39729,-1.854 -0.57386,-5.6503"
     id="path578"
     style="fill:#dcdddd;stroke-width:0.88286" />
  <path
     d="m 230.92948,294.21597 8.65203,0.75043 q -1.67743,3.75216 -4.50258,8.38717 -3.84044,6.13588 -6.93045,8.78446 -12.53662,5.3413 -32.88654,6.26831 -18.84906,0.927 -29.22267,-2.20715 2.07473,-4.89988 1.76572,-8.78446 2.95759,-2.73687 8.91689,-7.46017 6.79802,-5.29716 9.84389,-6.8863 9.31417,11.3006 13.64019,18.09863 2.91343,-4.19359 8.47545,-10.41775 4.98816,-5.60616 8.25474,-8.65203 2.20715,3.84044 5.47374,7.54845 3.57558,3.97287 6.8863,6.09174 1.63329,-4.94402 1.63329,-11.52133"
     fill="#4a7a9e"
     id="path582"
     style="stroke-width:0.88286" />
  <path
     d="m 144.89478,309.79845 q -12.18347,-5.16473 -17.70135,-10.10874 -0.88286,-0.88286 -0.97114,-4.54673 l 0.22071,-5.60616 q 17.9662,-6.0476 22.82193,-7.19531 1.9423,5.07644 3.4873,11.16818 1.67744,6.5773 2.29544,11.96275 2.78101,-1.45672 6.97459,-6.26831 l 3.26658,3.1783 q 1.80987,1.98643 2.8693,3.84044 0,4.98816 -2.11887,9.97632 -8.91688,-1.19186 -21.14449,-6.40074"
     fill="#980048"
     id="path584"
     style="stroke-width:0.88286" />
  <path
     d="m 246.11468,275.10205 q 2.163,2.73687 6.22416,4.89988 3.75216,2.07472 6.40073,2.163 -0.22071,-4.06115 -2.20715,-9.57903 4.45845,-1.01529 9.53489,-1.19186 -1.36843,13.59605 -12.53661,24.98494 -10.32946,10.50603 -25.38222,15.75905 3.04586,-2.51615 6.5773,-8.34303 3.00173,-4.85573 4.50259,-8.78445 4.23773,0.39728 8.43131,1.854 0.26486,-3.97287 -0.26486,-11.03575 -0.48557,-6.93045 -1.28014,-10.72675"
     fill="#980048"
     id="path586"
     style="stroke-width:0.88286" />
  <path
     d="m 205.14997,317.52348 q 6.44488,-0.309 17.56892,-3.61973 12.00689,-3.57558 16.64191,-7.19531 l -0.22072,5.34131 q -0.0441,1.10357 0.44143,2.163 0.44143,0.92701 1.10358,1.45672 l 4.76744,3.75216 q 2.82515,2.07472 4.94402,3.35486 1.45672,0.92701 1.41257,1.67744 -0.0441,0.70629 -1.36843,0.927 -11.30061,1.94229 -22.55707,1.98644 -11.91861,0.0441 -20.12921,-2.03058 -1.72158,-0.44143 -2.25129,-0.927 -0.61801,-0.61801 -0.61801,-2.07473 l 0.26486,-4.81158"
     id="path588"
     style="fill:#4a7a9e;stroke-width:0.88286" />
  <path
     d="m 87.067448,242.96595 q 1.236004,4.81159 5.120588,10.28532 3.752155,5.25302 7.151166,7.41602 l -6.533164,6.48902 q -2.64858,-3.26658 -4.502586,-12.09518 -1.677434,-8.07817 -1.236004,-12.09518"
     id="path590"
     style="fill:#4a7a9e;stroke-width:0.88286" />
  <path
     d="m 53.960198,281.37036 q 12.978042,4.54673 26.265085,0.17657 -4.635015,5.20888 -7.901597,16.90677 -2.339579,8.25474 -3.619726,18.18692 l -17.877915,-0.66215 q -13.68433,-0.97114 -18.937347,-2.42786 0.353144,-1.94229 3.619726,-5.20888 3.53144,-3.53144 4.326014,-5.3413 0.44143,-0.97115 0.264858,-2.07472 l -0.573859,-2.82515 q -1.500862,-7.2836 -1.412576,-15.40591 0.04414,-9.88803 2.64858,-14.52305 0.397287,8.74032 13.198757,13.19876"
     id="path592"
     style="fill:#4a7a9e;stroke-width:0.88286" />
  <path
     d="m 67.997672,322.95307 q 0.397287,-6.88631 2.516151,-17.83378 2.472008,-12.84561 4.944016,-17.17162 1.456719,4.50258 3.97287,8.74031 2.516151,4.14944 5.606161,7.2836 2.074721,2.07472 3.399011,2.472 1.545005,0.48558 3.752155,-0.57385 5.120588,-2.33958 15.847334,-5.51788 9.40246,-2.73687 18.14278,-4.63501 l 0.618,3.13415 q -4.14944,3.44315 -9.27003,8.07817 -5.16473,4.63501 -6.88631,6.53316 -1.72158,1.85401 -1.50086,4.67916 0.0883,1.72158 -0.618,4.4143 -0.83872,2.86929 -2.11887,4.63501 -0.57386,-0.97114 -1.32429,-1.236 -0.83872,-0.309 -1.63329,0.309 -2.38372,1.80986 -5.16473,4.45844 -3.619726,3.35487 -3.840441,4.59088 -2.604437,1.10357 -9.976318,0.75043 -7.151166,-0.35315 -10.682606,-1.58915 0.573859,-1.19186 -1.854006,-6.48902 -2.516151,-5.38545 -3.928727,-5.0323"
     id="path594"
     style="fill:#4a7a9e;stroke-width:0.88286" />
  <path
     d="m 311.18146,296.82041 q 2.25129,5.56202 4.81159,14.21405 3.26658,11.07989 4.06115,18.40763 l -4.89987,1.05943 -4.76745,-4.32601 q -2.86929,-2.38373 -3.61972,-2.33958 -1.50086,0.0883 -6.48902,3.84044 -5.0323,3.75215 -4.59087,4.67916 -6.93046,0.35314 -8.60789,-0.75044 -2.69272,-1.76572 -4.7233,-8.03402 -2.07472,-6.00345 -4.28187,-9.27003 -2.25129,-3.35487 -5.87102,-5.65031 -4.14944,-2.69272 -9.71146,-5.60616 -6.48902,-3.44315 -10.94746,-5.12058 4.19358,-3.22244 8.12231,-9.44661 3.88458,-6.09173 5.29716,-11.60961 29.97309,5.60617 42.68628,15.84734 2.78101,2.25129 3.53144,4.1053"
     id="path596"
     style="fill:#4a7a9e;stroke-width:0.88286" />
  <path
     d="m 320.62806,166.90756 q -6.00345,-3.75215 -13.06633,-0.35314 -7.01873,3.31072 -7.63674,9.66731 -1.236,0.75044 -2.86929,2.11887 -3.66387,-3.13415 -7.50431,-11.52132 -3.61973,-7.76917 -3.92873,-12.22762 1.14772,0.79458 3.61973,1.36844 l 8.34302,0.52971 q 4.28188,-0.26485 7.9016,-1.545 l 6.62145,-2.91344 2.29544,2.82515 1.80986,1.94229 q 2.47201,3.75216 4.4143,10.10875"
     fill="#cc7487"
     id="path600"
     style="stroke-width:0.88286" />
  <path
     d="m 272.4239,128.06172 q 4.14945,4.28187 11.03575,9.62318 4.01702,3.09001 9.44661,5.16473 -12.84562,2.60443 -15.40591,4.4143 -1.72158,-2.64858 -3.53144,-6.75388 -3.61973,-8.29889 -4.23773,-15.75905 l 2.69272,3.31072"
     id="path602"
     style="fill:#4a7a9e;stroke-width:0.88286" />
  <path
     d="m 343.40585,126.38429 q 3.09001,7.23945 3.09001,13.81676 l -7.81331,-1.14772 q 3.13415,-6.88631 4.7233,-12.66904"
     id="path604"
     style="fill:#4a7a9e;stroke-width:0.88286" />
  <path
     d="m 323.2325,139.00919 -12.6249,1.10357 q -1.76572,-6.35659 -4.01701,-11.38889 4.1053,3.75215 16.64191,10.28532"
     id="path606"
     style="fill:#4a7a9e;stroke-width:0.88286" />
  <path
     d="m 99.515774,101.39935 1.191856,-3.222439 q 1.28015,-3.399011 2.07473,-4.105299 1.236,2.472008 3.57558,4.85573 -4.23773,1.059432 -6.842166,2.472008"
     id="path608"
     style="fill:#4a7a9e;stroke-width:0.88286" />
  <path
     d="m 179.1056,96.631906 q -2.07472,7.327734 -5.82687,13.110474 -4.4143,-3.61973 -12.3159,-6.62145 13.19876,-5.517878 20.26164,-20.040925 0,6.400735 -2.11887,13.551901"
     id="path610"
     style="fill:#4a7a9e;stroke-width:0.88286" />
  <path
     d="m 151.11894,100.20749 q -8.29888,-1.942293 -17.25991,-2.648581 9.18174,-6.003448 17.39234,-14.832048 0.83872,7.989883 -0.13243,17.480629"
     id="path612"
     style="fill:#4a7a9e;stroke-width:0.88286" />
  <path
     d="m 112.62624,87.097018 q 2.07473,-4.723301 3.92873,-6.798022 -0.22071,8.872743 3.97287,16.906769 l -10.9916,1.059432 q 0.57385,-5.385446 3.09,-11.168179"
     id="path614"
     style="fill:#4a7a9e;stroke-width:0.88286" />
  <path
     d="m 205.81212,35.052421 q -11.6979,15.494193 -23.21922,23.925506 l -1.50086,-1.059432 q 10.81503,-7.769168 22.95436,-23.793077 10.59432,-14.037474 13.11047,-21.365212 0.26486,-0.618002 0.0441,-0.794574 -0.13243,-0.132429 -0.83872,0.176572 -11.21232,4.193585 -26.66237,15.979766 -15.67076,11.962753 -21.58592,21.012068 -0.70629,1.103575 -1.19186,0.88286 -0.48558,-0.309001 0.13242,-1.456719 6.6656,-11.521323 22.29222,-23.130932 13.72847,-10.197033 26.4858,-15.00862 4.45844,-1.6332911 2.95758,2.913438 -2.64858,7.989883 -12.97804,21.718356"
     id="path618"
     style="fill:#0f141b;stroke-width:0.88286" />
  <path
     d="m 169.26171,45.867456 -1.50086,2.64858 q -2.60444,-11.47718 -9.79974,-25.867798 -7.10703,-14.0816171 -13.02219,-20.0850651 -0.52972,-0.529716 -0.75043,-0.485573 -0.13243,0.044143 -0.13243,0.706288 -0.309,6.709736 1.80986,23.2633611 2.20715,16.906769 4.45845,24.013792 0.26486,0.706288 -0.52972,0.838717 -9.18174,0.706288 -18.23106,3.266582 -10.02046,2.825152 -14.56719,6.577307 -4.81158,3.884584 -9.71146,10.638463 -6.48902,8.784457 -6.18002,14.523047 0.17657,3.310725 2.38372,7.50431 2.11887,3.97287 4.98816,6.753883 0.22072,-6.444882 2.64858,-12.492473 2.2513,-5.650304 5.65031,-9.049315 l -0.17657,2.64858 q -2.42787,3.266582 -4.23773,8.916886 -1.85401,5.871019 -2.2513,12.051042 -0.0883,1.41257 -1.32429,0.52971 -3.66386,-2.781006 -6.66559,-7.769165 -3.134152,-5.120588 -3.310724,-9.049315 -0.309001,-6.047591 6.400734,-15.582479 5.25302,-7.460167 10.10875,-11.388894 4.67916,-3.840441 14.56719,-6.533164 8.29888,-2.251293 18.23106,-3.222439 -2.42787,-8.740314 -4.23773,-22.910217 -1.89815,-14.56719 -1.54501,-23.6606481 0.0883,-2.295436 1.10358,-2.604437 1.01529,-0.309001 2.69272,1.412576 6.70974,6.842165 13.28704,19.3787771 6.88631,12.978042 9.84389,25.029081"
     id="path620"
     style="fill:#0f141b;stroke-width:0.88286" />
  <path
     d="m 157.0341,74.869407 q -2.47201,5.73859 -7.01873,10.638463 -6.70974,7.195309 -14.96448,12.845613 -7.72503,5.297157 -10.59432,5.208877 -3.00172,-0.13243 -6.18002,-8.387173 -3.22244,-8.38717 -2.78101,-15.317621 0.35314,-4.590872 5.25302,-11.344751 4.59087,-6.356592 10.55017,-11.03575 1.05944,-0.794574 1.41258,-0.397287 0.35314,0.353144 -0.618,1.280147 -5.38545,5.032302 -9.40246,10.726749 -4.63502,6.665593 -4.94402,10.815035 -0.39728,6.577307 2.38372,14.214046 2.5603,7.107025 4.63502,7.283595 1.80986,0.22071 9.04931,-4.811587 8.16646,-5.694447 14.65548,-12.624898 4.37016,-4.679158 6.97459,-10.197033 1.9423,-4.017013 3.53144,-10.020461 0.35315,-1.368433 0.83872,-1.236004 0.52972,0.08829 0.309,1.500862 -1.14772,6.400735 -3.09001,10.859178"
     id="path622"
     style="fill:#0f141b;stroke-width:0.88286" />
  <path
     d="m 182.19561,82.197145 q 0.22072,11.03575 -5.25301,22.910215 -5.73859,12.3159 -13.59605,16.33291 3.00173,2.16301 8.29889,3.61973 5.60616,1.545 10.63846,1.36843 0.927,-0.0441 1.10357,0.309 0.13243,0.39729 -0.39728,1.05943 -9.27003,12.6249 -15.84734,16.28877 -5.73859,3.26658 -14.61133,5.78273 -9.71146,2.69273 -16.95091,2.5603 l -1.54501,-2.20715 q 6.57731,0.44143 16.77434,-2.29544 9.53489,-2.51615 15.31762,-5.78273 6.70974,-3.84044 14.39062,-13.99333 -5.3413,0.13243 -11.21232,-1.72158 -5.60616,-1.80986 -8.38717,-4.37016 -0.52972,-0.48557 -0.44143,-0.97114 0.17657,-0.39729 0.75043,-0.618 6.40073,-2.38373 12.44832,-13.06633 6.00345,-10.770894 6.84217,-21.321071 -4.50259,9.402459 -15.00862,15.759051 -9.18174,5.51787 -15.75905,5.29716 -1.19186,-0.0883 -0.83872,-1.28015 1.23601,-4.85573 1.63329,-11.477177 0.35315,-6.003448 -0.13243,-11.124036 L 152.04594,81.535 q 0.57386,5.517875 0.35315,11.697895 -0.22072,6.842165 -1.45672,11.918605 7.19531,-0.22071 15.97977,-6.268301 10.19703,-7.06288 13.5519,-16.995055 0.44143,-1.280147 1.05943,-1.103575 0.618,0.08829 0.66214,1.412576"
     id="path624"
     style="fill:#0f141b;stroke-width:0.88286" />
  <path
     d="m 161.7574,121.83756 q -2.78101,-0.97115 -5.56201,-2.42787 -3.09001,-1.545 -4.76745,-3.09001 -9.1376,3.84044 -22.15978,8.25474 -5.42959,1.80987 -10.55018,-0.70628 -5.60616,-2.64858 -10.59432,-10.32947 l -2.73687,3.26659 q -1.98643,2.38372 -2.51615,2.472 -1.72157,0.22072 -3.928725,-3.61972 -2.118864,-3.70801 -2.163007,-6.48902 -0.04414,-4.19359 1.280147,-8.56374 1.456719,-4.50259 3.972875,-7.813315 l 1.32429,2.20715 q -2.07473,2.869295 -3.26659,6.798025 -1.147715,3.79629 -1.191858,7.37188 -0.04414,2.78101 1.456718,5.56202 1.36843,2.51615 2.11887,2.42786 l 2.163,-2.25129 3.26658,-3.57559 q 0.48558,-0.39728 0.83872,0.13243 9.79975,14.30234 19.86435,11.03575 15.93562,-5.25301 22.86608,-8.03402 0.39728,-0.17657 0.618,0.13243 1.58915,1.545 5.07644,3.35486 3.35487,1.72158 6.09174,2.42787 l -1.50087,1.45672"
     id="path626"
     style="fill:#0f141b;stroke-width:0.88286" />
  <path
     d="m 120.4837,111.11081 c 0.0589,-0.50029 0.98589,-0.60328 2.78101,-0.309 1.76572,0.32372 2.60443,0.75043 2.51615,1.28015 -0.0883,0.35314 -0.79296,0.68742 -1.28015,0.83871 -0.63251,0.19643 -1.34113,0.19333 -1.98643,0.0442 -0.50014,-0.11558 -0.99711,-0.35191 -1.36844,-0.70629 -0.31953,-0.30492 -0.721,-0.79458 -0.66214,-1.14772"
     id="path628"
     style="fill:#0f141b;stroke-width:0.88286"
     sodipodi:nodetypes="cccsssc" />
  <path
     d="m 338.37355,153.0908 c -0.0295,-0.47086 0.79453,-0.70629 2.472,-0.70629 1.70687,-0.0294 2.57501,0.23546 2.60444,0.79458 0,0.38257 -0.33843,0.721 -1.01529,1.01529 0,0 -0.71496,0.36207 -1.63329,0.44143 -0.44143,0 -0.95643,-0.17657 -1.545,-0.52972 -0.55915,-0.35314 -0.85343,-0.69157 -0.88286,-1.01529"
     id="path630"
     style="fill:#0f141b;stroke-width:0.88286"
     sodipodi:nodetypes="ccccccc" />
  <path
     d="m 112.49382,133.71203 q 7.63674,7.41602 17.08334,12.27175 4.85573,2.47201 7.59259,6.62145 1.76572,2.73687 4.4143,9.7556 7.98989,21.1445 11.03575,45.59972 1.85401,14.78791 1.54501,27.45695 -0.0442,2.42786 -0.39729,3.70801 -0.52972,1.94229 -1.98643,3.61973 l -2.5603,3.31072 q -0.88286,1.45672 -1.32429,3.13415 -0.309,1.14772 -0.75043,1.05944 -0.52972,-0.0442 -0.39729,-1.23601 0.309,-3.31072 3.75216,-7.28359 1.236,-1.50087 1.545,-3.00173 l 0.22072,-3.35487 q 0.17657,-12.62489 -1.63329,-27.19208 -3.09001,-24.10208 -11.03575,-45.15829 -2.69273,-7.01874 -4.01702,-9.18175 -2.38372,-3.79629 -6.93045,-6.04759 -10.85917,-5.51787 -18.93734,-13.94919 -8.91689,-9.22588 -9.976321,-17.56891 l 2.560291,1.76572 q 1.67744,7.41602 10.19704,15.67077"
     id="path632"
     style="fill:#0f141b;stroke-width:0.88286" />
  <path
     d="m 183.69647,168.27599 q 4.81159,-7.85745 10.55018,-14.69961 5.65031,-6.79803 10.72675,-10.94747 2.20715,-1.854 3.53144,-1.28015 1.28015,0.57386 1.05943,3.26659 -0.57386,5.69444 -3.66387,16.50948 -3.22244,11.03575 -6.04759,16.77434 -0.83871,1.80986 -0.57386,5.16473 1.85401,17.12748 2.33958,28.56052 0.618,12.75733 -0.13243,23.79308 -0.0883,1.72157 -0.66214,1.72157 -0.57386,-0.0441 -0.52972,-1.72157 0.17657,-11.74204 -0.52971,-23.43994 -0.70629,-11.47718 -2.64858,-28.78123 -0.35315,-3.84044 0.79457,-6.09174 2.78101,-5.6503 6.18002,-16.68605 3.35487,-10.94746 3.84044,-15.89148 0.13243,-1.32429 -0.26486,-1.41258 -0.35314,-0.17657 -1.67743,0.88286 -4.59087,3.84045 -10.32946,10.63847 -5.51788,6.48902 -10.99161,14.30233 -0.79457,1.236 -1.28015,0.927 -0.48557,-0.309 0.309,-1.58915"
     id="path634"
     style="fill:#0f141b;stroke-width:0.88286" />
  <path
     d="m 179.50289,56.196918 q 7.85745,3.619726 15.71491,14.611333 7.46016,10.506034 8.96103,18.760775 1.32429,7.50431 -1.85401,20.791354 -3.00172,12.18347 -7.85745,22.42464 -2.16301,4.54673 -2.16301,9.93218 0,5.3413 2.20715,12.27175 l -1.54501,1.54501 q -5.16473,-14.21405 -0.17657,-24.54351 4.1053,-8.69617 6.93045,-21.1445 3.13416,-13.772614 1.72158,-20.835494 -1.545,-7.813311 -8.87274,-18.275202 -7.10703,-10.285319 -13.64019,-14.478904 -1.05943,-0.662145 -0.79457,-1.147718 l 1.36843,0.08829"
     id="path636"
     style="fill:#0f141b;stroke-width:0.88286" />
  <path
     d="m 123.17642,171.10115 c -1.03,-1.17715 -1.39786,-2.14829 -1.10357,-2.91344 0.29429,-0.70629 1.07415,-1.07415 2.33958,-1.10358 0.33581,-0.056 2.49151,0.0152 4.76944,0.24242 1.63747,0.16336 3.32714,0.43012 4.50059,0.5963 3.70801,0.618 7.00402,1.57443 9.88803,2.8693 l 0.618,2.51615 c -2.76629,-1.41258 -6.12116,-2.54558 -10.0646,-3.39901 -3.61973,-0.82401 -6.78331,-1.23601 -9.49075,-1.23601 -0.88286,0 -0.95643,0.42672 -0.22071,1.28015 2.32486,2.67801 6.19473,6.76859 11.6096,12.27175 l 13.81676,13.81676 0.35315,3.09001 -14.78791,-14.92033 -12.22761,-13.11047"
     id="path638"
     style="fill:#0f141b;stroke-width:0.88286"
     sodipodi:nodetypes="cccsccccscccccc" />
  <path
     d="m 275.77877,96.54362 q -10.55017,4.32601 -17.43648,15.53834 -6.79802,11.07989 -6.62145,23.48407 l -0.26486,0.52972 q -14.74376,10.32946 -28.64881,31.5181 -13.68433,20.96792 -21.93907,45.46729 l -0.52971,-5.3413 q 8.91688,-23.92551 21.01206,-42.42143 13.11048,-20.08506 28.1191,-30.50281 -0.0883,-13.8609 6.62145,-24.45522 7.06288,-11.079894 19.33463,-14.920335 1.19186,-0.397287 1.32429,0.132429 0.17657,0.485573 -0.97115,0.971146"
     id="path640"
     style="fill:#0f141b;stroke-width:0.88286" />
  <path
     d="m 240.02294,46.397172 c 1.73629,5.826876 6.16531,14.184617 13.28705,25.073224 8.09288,12.418897 15.27347,20.673638 21.54178,24.764223 l -1.94229,0.794574 C 266.28803,92.46775 259.12215,84.213009 251.41184,72.26497 244.61381,61.641221 240.2878,53.062765 238.43379,46.529601 c -0.76514,-2.589723 0.25015,-3.325439 3.04587,-2.20715 8.44603,3.325439 17.62777,9.402459 27.54523,18.231059 9.47603,8.446027 16.53891,16.553625 21.18864,24.322793 l -0.48557,2.427865 c -3.88459,-6.974594 -11.21232,-15.229335 -21.98321,-24.764223 -10.68261,-9.476031 -19.58478,-15.656051 -26.70652,-18.54006 0,0 -0.81882,-0.272773 -0.97114,-0.176572 -0.14715,0.05886 -0.16188,0.250146 -0.0442,0.573859"
     id="path642"
     style="fill:#0f141b;stroke-width:0.88286"
     sodipodi:nodetypes="cccccccccccccc" />
  <path
     d="m 317.93534,37.436143 c 0.67686,7.121737 0,16.112195 -2.03058,26.971373 -2.06001,10.800321 -4.63502,19.099205 -7.72503,24.896652 l -1.89814,-0.04414 c 3.03115,-5.473732 5.60615,-13.934474 7.72502,-25.382225 2.06001,-11.065179 2.79572,-19.820207 2.20715,-26.265085 0,0 -0.0733,-0.871523 -0.22071,-0.88286 0,0 -0.25521,0.01061 -0.61801,0.44143 -4.50258,5.503161 -9.24059,13.051614 -14.21404,22.645359 -6.06231,11.771467 -9.66732,21.73307 -10.81504,29.884811 -0.11771,1.030003 -0.36786,1.530291 -0.75043,1.500862 -0.35314,-0.02943 -0.50028,-0.573857 -0.44143,-1.633291 0.58857,-8.004597 3.94344,-18.083916 10.06461,-30.237955 5.38544,-10.682606 10.43245,-18.481203 15.14104,-23.39579 0.82401,-0.853431 1.58915,-1.177147 2.29544,-0.971146 0.73572,0.264858 1.16244,1.088861 1.28015,2.472008"
     id="path644"
     style="fill:#0f141b;stroke-width:0.88286"
     sodipodi:nodetypes="cccccccccccccccc" />
  <path
     d="m 354.79474,140.95148 q -2.82515,4.81158 -8.12231,6.48902 -1.236,0.39729 -1.10357,-0.88286 0.88286,-12.05104 -2.42787,-19.29049 l 0.66215,-2.60444 q 2.472,4.59087 3.26658,9.40246 0.83871,4.81159 0.309,11.12404 7.76917,-3.88459 7.76917,-15.14105 0,-6.44488 -4.7233,-15.58248 -4.72331,-9.18175 -11.25647,-15.096908 -6.18002,-5.650304 -18.05449,-7.94574 -10.0646,-1.986435 -21.98321,-1.280147 -1.236,0.132429 -1.28015,-0.44143 -0.0883,-0.573859 1.19186,-0.750431 12.05104,-1.280147 22.64536,0.529716 12.36004,2.163007 18.76078,7.989883 7.54845,6.886307 12.22761,15.979767 4.7233,9.04931 4.7233,16.59777 0,6.40073 -2.60444,10.90332"
     id="path646"
     style="fill:#0f141b;stroke-width:0.88286" />
  <path
     d="m 341.41941,135.7426 q -3.61972,8.78446 -5.60616,9.53489 -2.07472,0.79458 -12.9339,-5.20887 -10.19703,-5.60616 -16.15633,-10.24118 l -1.54501,-3.7963 q 5.42959,4.76745 16.99506,11.34475 11.3006,6.48903 12.80147,5.91517 1.19186,-0.48558 4.4143,-8.43132 3.31072,-7.94574 3.13415,-10.15289 -0.22072,-3.09001 -4.28187,-9.4466 -4.19359,-6.79802 -9.75561,-12.58075 -0.97114,-1.01529 -0.57385,-1.41258 0.35314,-0.39729 1.36843,0.52972 5.60616,4.81158 10.46189,12.18346 4.67916,7.01874 4.98816,10.68261 0.22071,2.56029 -3.31073,11.07989"
     id="path648"
     style="fill:#0f141b;stroke-width:0.88286" />
  <path
     d="m 348.12915,155.38624 q 3.35487,-5.91516 3.09001,-12.13933 l 1.63329,-1.50086 q 0.927,7.37188 -2.69272,14.43476 -3.26658,6.31245 -7.01874,7.41603 -2.20715,0.66214 -9.93217,-0.70629 -7.01874,-1.28015 -13.55191,-3.26658 -4.85573,-1.50087 -7.85745,-6.53317 -6.75388,3.57559 -14.43476,4.32602 -7.15117,0.70628 -10.77089,-1.19186 -7.63674,-3.92873 -12.49247,-13.19876 -4.50259,-8.47546 -5.60616,-19.15806 -0.13243,-1.14772 0.39729,-1.32429 0.52971,-0.17658 1.14771,0.75043 6.57731,10.55017 20.61478,17.30405 12.58076,6.04759 19.86435,4.50259 -1.14771,-8.5196 -6.04759,-18.23106 -4.76744,-9.53489 -12.18347,-18.49592 -0.97114,-1.14771 -0.57385,-1.50086 0.39728,-0.39729 1.41257,0.66215 7.81331,8.12231 13.2429,18.62834 5.20888,10.32946 6.31245,19.29049 0.13243,1.10358 -0.97115,1.36844 -6.79802,1.854 -19.37877,-3.39901 -14.03748,-5.87102 -21.4535,-15.93563 1.76572,9.49075 6.26831,16.64191 4.32601,7.10703 10.24117,10.28532 3.70801,1.89815 9.97632,1.19186 6.53316,-0.79457 14.4789,-4.32601 0.79458,-0.39729 1.23601,0.35314 3.26658,5.16473 7.15116,6.26831 5.25302,1.545 12.3159,2.78101 7.85745,1.36843 9.93218,0.75043 2.73686,-0.79457 5.6503,-6.04759"
     id="path650"
     style="fill:#0f141b;stroke-width:0.88286" />
  <path
     d="m 327.73508,180.63603 q 3.00173,5.34131 -3.92872,11.25647 -7.01874,6.00345 -16.37706,5.6503 -9.97631,-0.26485 -21.18864,-10.50603 -12.00689,-11.03575 -14.4789,-24.49937 l 1.98643,-0.79457 q 2.33958,12.9339 13.99334,23.66065 10.81503,9.93217 19.77606,9.93217 9.1376,0 14.96448,-4.54673 5.07644,-4.01701 4.23772,-7.90159 -4.10529,3.97287 -10.3736,4.45844 -6.35659,0.52972 -12.6249,-2.78101 -15.22933,-8.03402 -19.29049,-30.81181 l 2.33958,1.236 q 2.91344,14.69962 11.38889,23.17508 7.50431,7.50431 16.33291,7.59259 2.91344,0.0442 7.10703,-1.63329 3.92872,-1.545 6.13587,-3.4873"
     id="path652"
     style="fill:#0f141b;stroke-width:0.88286" />
  <path
     d="m 261.16744,165.4067 c -0.73571,-0.0589 -1.10357,-0.27958 -1.10357,-0.66215 0,-0.35314 0.36786,-0.52971 1.10357,-0.52971 h 0.0441 c 2.85458,-0.0294 5.7533,-0.63269 8.69617,-1.80986 4.47316,-1.82458 9.60846,-4.59088 15.40591,-8.29889 l 0.618,2.16301 c -5.91516,3.44315 -11.07989,6.04759 -15.49419,7.81331 0,0 -2.99576,0.96982 -4.54673,1.19186 -1.55915,0.22322 -3.36281,0.26848 -4.7233,0.13243"
     id="path654"
     style="fill:#0f141b;stroke-width:0.88286"
     sodipodi:nodetypes="csscccccsc" />
  <path
     d="m 304.42758,174.14701 q -3.84044,2.51615 -6.70974,4.81159 l -1.36843,-1.236 q 3.84044,-2.95758 8.43131,-5.47374 4.37016,-2.33957 4.94402,-1.98643 0.66214,0.44143 -0.35314,5.16473 -1.01529,4.63502 -2.73687,9.53489 l -1.67743,-0.66215 2.64858,-7.94574 q 1.28014,-4.32601 0.97114,-4.50258 -0.309,-0.22072 -4.14944,2.29543"
     id="path656"
     style="fill:#0f141b;stroke-width:0.88286" />
  <path
     d="m 321.15778,185.44762 q 1.05943,-7.32774 -0.79458,-15.62662 -1.94229,-8.5196 -6.04759,-13.5519 l 3.04587,0.927 q 3.35487,5.3413 4.85573,13.02219 1.50086,7.54845 0.66214,14.43476 l -1.72157,0.79457"
     id="path658"
     style="fill:#0f141b;stroke-width:0.88286" />
  <path
     d="m 324.7775,160.10954 q -1.80986,3.09001 -4.7233,5.56202 l -0.70629,-1.94229 q 1.80987,-1.80987 3.35487,-4.23773 l 2.07472,0.618"
     id="path660"
     style="fill:#0f141b;stroke-width:0.88286" />
  <path
     d="m 325.17479,182.49004 4.19359,-7.15117 q 2.25129,-4.4143 1.94229,-4.7233 -0.26486,-0.22071 -3.66387,1.10358 -3.22244,1.32429 -5.69445,2.56029 l -0.35314,-1.76572 q 3.17829,-1.58915 7.23945,-2.64858 3.61973,-1.01529 4.01701,-0.66214 0.35315,0.39728 -0.88286,3.7963 -1.50086,4.19358 -4.28187,8.87274 l -2.51615,0.618"
     id="path662"
     style="fill:#0f141b;stroke-width:0.88286" />
  <path
     d="m 282.09122,180.72432 q -6.84216,1.54501 -13.72847,7.01874 -7.19531,5.6503 -12.66904,14.12576 -12.9339,19.86435 -11.12404,44.40786 0.0883,1.45671 -0.44143,1.50086 -0.57386,0.0441 -0.75043,-1.36844 -2.82515,-24.80836 10.10875,-45.20243 5.47373,-8.74031 12.88975,-14.65547 7.10703,-5.73859 14.30234,-7.5926 l 1.41257,1.76572"
     id="path664"
     style="fill:#0f141b;stroke-width:0.88286" />
  <path
     d="m 243.59853,238.37508 0.13242,-3.39901 q 0.83872,2.42786 2.78101,4.81158 2.03058,2.47201 4.50259,4.1053 1.10357,0.70629 0.79457,1.14772 -0.39728,0.44143 -1.45672,-0.17657 -4.81158,-2.91344 -6.75387,-6.48902"
     id="path666"
     style="fill:#0f141b;stroke-width:0.88286" />
  <path
     d="m 210.49128,186.33048 q -0.92701,-6.31245 -1.10358,-10.94746 -5.42959,3.57558 -10.85918,9.53489 l -0.35314,-2.07473 q 2.38372,-2.69272 5.82687,-5.56201 2.91344,-2.42787 5.60617,-4.1053 1.41257,-0.88286 1.41257,0.66214 0,4.98816 0.70629,10.37361 l -1.236,2.11886"
     id="path668"
     style="fill:#0f141b;stroke-width:0.88286" />
  <path
     d="M 268.84832,64.142658 279.83993,51.51776 q 0.48557,-0.794574 0.927,-0.706288 0.44143,0.132429 0.48557,1.147718 0.22072,3.928727 -0.22071,10.197033 -0.52972,6.577307 -1.63329,12.183468 l -1.50086,-1.368433 q 2.03058,-11.124036 1.854,-18.893204 l -9.62317,11.212322 -1.28015,-1.147718"
     id="path670"
     style="fill:#0f141b;stroke-width:0.88286" />
  <path
     d="m 280.72279,76.105411 q 6.66559,-5.871019 16.95091,-11.03575 l -0.88286,2.295436 q -9.31417,5.29716 -14.7879,9.976318 l -1.28015,-1.236004"
     id="path672"
     style="fill:#0f141b;stroke-width:0.88286" />
  <path
     d="m 257.636,79.857566 q -20.74721,24.587654 -26.22094,35.799974 -4.1053,8.43131 -11.03575,27.7218 -5.51788,15.40591 -10.37361,30.67939 l -2.82515,1.854 q 6.79802,-21.45349 10.37361,-31.95953 7.19531,-21.1445 11.3006,-29.35509 3.31073,-6.57731 11.6979,-17.259916 5.25302,-6.753879 16.02391,-19.290491 l 1.05943,1.809863"
     id="path674"
     style="fill:#0f141b;stroke-width:0.88286" />
  <path
     d="m 286.81452,197.98423 q -7.81331,2.11887 -19.06977,6.13588 -12.58076,4.45844 -18.23106,7.41602 l 0.79457,-2.56029 q 5.91516,-2.82515 17.83377,-6.93045 10.63847,-3.61973 18.23106,-5.6503 1.14772,-0.26486 1.14772,-0.70629 0,-0.39729 -0.927,-0.66215 -3.7963,-1.28014 -11.3889,-2.20715 l -13.2429,-0.52971 1.72158,-2.07472 q 4.94402,-0.26486 12.58076,0.927 6.84216,1.05943 10.81503,2.38372 2.25129,0.79457 2.25129,2.25129 0,1.54501 -2.51615,2.20715"
     id="path676"
     style="fill:#0f141b;stroke-width:0.88286" />
  <path
     d="m 141.76062,189.28806 -0.52971,2.47201 c -0.14715,0.79457 -0.57386,0.91229 -1.28015,0.35314 -2.06001,-1.70686 -4.98816,-3.85515 -8.78445,-6.44487 -4.09059,-2.79573 -7.25417,-4.78216 -9.49075,-5.95931 -0.50029,5.15002 -0.57386,9.94689 -0.22071,14.39062 0.0883,0.97115 -0.27958,1.20658 -1.10358,0.70629 -1.38315,-0.76515 -2.98701,-1.29486 -4.81159,-1.58915 0.11772,2.44258 0.50029,5.09116 1.14772,7.94574 0.11771,0.47086 0.11771,0.75043 0,0.83872 -0.18439,0.17637 -0.4498,0.1886 -0.75043,0.17657 -6.85688,-0.50029 -13.93447,-0.58857 -21.232783,-0.26486 6.886313,11.12403 12.418903,19.34935 16.597773,24.67594 0.412,0.50029 0.35314,0.91229 -0.17658,1.236 -5.41487,3.47259 -11.256463,6.88631 -17.524768,10.24118 9.240598,5.35601 17.377628,9.68203 24.411078,12.97804 l -1.05943,1.28015 c -8.47545,-4.03173 -16.965624,-8.50489 -25.470512,-13.41948 -0.44143,-0.26485 -0.662145,-0.55914 -0.662145,-0.88286 0,-0.26485 0.220715,-0.515 0.662145,-0.75043 2.354293,-1.26543 5.267731,-2.98701 8.740312,-5.16473 l 8.65203,-5.51787 c -3.85515,-4.97345 -9.314171,-13.25762 -16.377053,-24.85251 -0.323715,-0.58857 -0.426716,-0.98586 -0.309001,-1.19186 0.117715,-0.206 0.485573,-0.33843 1.103575,-0.39729 7.327739,-0.44143 14.375909,-0.41199 21.144499,0.0883 -0.23543,-1.11829 -0.38258,-2.38373 -0.44143,-3.7963 l -0.22072,-4.14944 c -0.0589,-0.38257 -0.0294,-0.63272 0.0883,-0.75043 0.14714,-0.17657 0.42671,-0.26486 0.83872,-0.26486 1.82457,0.17657 3.53143,0.70629 5.12058,1.58915 -0.26485,-3.7963 -0.25012,-8.68146 0.0442,-14.65548 0.0883,-0.97115 0.52972,-1.25072 1.32429,-0.83872 1.91286,0.88286 5.00287,2.82515 9.27003,5.82688 l 9.57903,7.06288 0.35314,-2.38372 1.36844,1.41257"
     id="path678"
     style="fill:#0f141b;stroke-width:0.88286"
     sodipodi:nodetypes="ccccccccccccccccccsccccsccccccccccccc" />
  <path
     d="m 106.84351,267.81846 c 3.29601,-6.70973 6.91574,-12.53661 10.85918,-17.48063 0.52971,-0.67686 0.94171,-0.89757 1.236,-0.66214 0.29429,0.23543 0.206,0.69157 -0.26485,1.36843 -3.73744,5.09116 -6.91574,10.60903 -9.53489,16.55362 3.41373,0.26486 8.43131,-0.0883 15.05276,-1.05943 0.44143,-0.0294 0.70629,0.0736 0.79458,0.309 0.14714,0.23543 0.0883,0.54444 -0.17658,0.92701 -1.73629,2.50143 -4.34072,5.45901 -7.81331,8.87274 2.85458,-0.35315 5.47373,-0.94172 7.85746,-1.76572 0,0 0.69904,-0.29717 0.97114,0.0883 0.17657,0.23543 0.16187,0.55914 -0.0441,0.97114 -1.00057,1.91287 -1.80986,4.13473 -2.42787,6.66559 -0.618,2.53087 -0.98586,5.01759 -1.10357,7.46017 11.18289,-4.0023 20.15864,-6.85688 26.92723,-8.56374 0.44143,-0.11771 0.721,0.0147 0.83872,0.39729 3.06058,8.91689 4.97344,16.33291 5.73859,22.24807 2.17772,-1.61858 4.1053,-3.47259 5.78273,-5.56202 0,0 0.58085,-0.66766 1.14772,-0.0441 2.41315,2.23658 4.4143,4.48787 6.00345,6.75388 2.67801,-2.50144 5.67973,-4.94402 9.00517,-7.32774 l 8.38717,-5.69445 0.66214,-0.26486 c 0.11771,0 0.27957,0.11772 0.48558,0.35315 5.50316,6.65088 9.84389,12.34533 13.02218,17.08334 1.64801,-2.44258 4.2083,-5.5473 7.68088,-9.31417 2.70744,-2.9723 5.44431,-5.81217 8.2106,-8.5196 0.32371,-0.29429 0.57386,-0.44143 0.75043,-0.44143 0.30464,-0.0321 0.66215,0.52971 0.66215,0.52971 1.53029,2.56029 3.32543,4.98816 5.38544,7.2836 2.06001,2.29543 4.01701,4.06115 5.87102,5.29716 0.3628,0.0227 1.01529,-4.28645 1.01529,-4.94402 l 0.26486,-5.12059 c 0,-0.38257 0.0589,-0.618 0.17657,-0.70628 0.15872,-0.13605 0.83872,-0.0883 0.83872,-0.0883 6.03287,0.23543 11.25646,0.94171 15.67076,2.11886 0.206,-4.47315 0.0294,-9.09345 -0.52971,-13.8609 -0.35315,-3.03115 -1.01529,-6.98931 -1.98644,-11.87447 -0.17657,-0.97114 -0.0883,-1.48614 0.26486,-1.545 0.35314,-0.0883 0.64743,0.33843 0.88286,1.28015 2.64858,9.47603 3.73744,18.56948 3.26658,27.28037 -0.0294,0.85343 -0.48554,1.13301 -1.36843,0.83872 -1.97172,-0.61801 -4.3113,-1.08887 -7.01874,-1.41258 l -8.34303,-0.57386 c -0.0294,1.73629 -0.20597,3.47259 -0.52971,5.20888 l -1.23601,5.3413 c -0.17657,0.76515 -0.60328,0.927 -1.28014,0.48557 -2.03058,-1.20657 -4.14945,-2.89872 -6.3566,-5.07644 -2.50143,-2.38373 -4.54672,-4.85574 -6.13587,-7.41603 -7.68089,7.56317 -12.84562,13.46362 -15.4942,17.70135 0,0 -0.33215,0.54105 -0.70628,0.52971 -0.26486,0 -0.50029,-0.16186 -0.70629,-0.48557 -1.11829,-1.79515 -3.25187,-4.60558 -6.40074,-8.43131 l -6.8863,-8.56375 c -4.62031,3.06059 -7.76918,5.20888 -9.44661,6.44488 -2.76629,1.97172 -5.25301,4.01701 -7.46016,6.13588 0,0 -0.55288,0.58641 -0.92701,0.52972 l -0.66214,-0.61801 c -1.97172,-3.26658 -3.81101,-5.6503 -5.51788,-7.15116 -1.94229,2.38372 -4.13472,4.39958 -6.5773,6.04759 0,0 -0.54154,0.35676 -0.92701,0.22071 -0.29429,-0.0883 -0.45614,-0.35314 -0.48557,-0.79457 -0.38257,-3.14887 -1.14772,-6.75388 -2.29544,-10.81504 l -3.53144,-11.3006 c -7.73973,2.03057 -16.62719,4.84101 -26.66237,8.43131 -0.85343,0.32371 -1.28014,0.0441 -1.28014,-0.83872 0.11771,-5.97402 0.91229,-10.65318 2.38372,-14.03747 -1.73629,0.50029 -4.29659,0.88286 -7.68088,1.14772 -0.61801,0.0589 -1.00058,-0.0294 -1.14772,-0.26486 -0.17657,-0.29429 -0.0441,-0.64743 0.39729,-1.05943 1.35371,-1.29487 3.82572,-4.14945 7.41602,-8.56375 -5.38545,0.97115 -10.10875,1.23601 -14.1699,0.79458 -0.94172,-0.11771 -1.20658,-0.60329 -0.79458,-1.45672"
     id="path680"
     style="fill:#0f141b;stroke-width:0.88286"
     sodipodi:nodetypes="ccscccccccccsccccccccccccccccsccccccccccccccccccccccccccccccccccccccccccc" />
  <path
     d="m 283.28308,216.56844 c 0.58857,-0.0295 0.95643,0.10296 1.10358,0.39728 0.14714,0.29429 0,0.67686 -0.44143,1.14772 -2.35429,2.44258 -4.63502,6.01816 -6.84217,10.72675 2.9723,1.17715 6.20945,2.69272 9.71146,4.54673 l 8.43132,4.59087 c 0.91229,0.55915 0.92699,1.10358 0.0441,1.63329 -3.47258,2.26601 -7.82802,4.73802 -13.06633,7.41603 -5.29716,2.76629 -9.79975,4.84101 -13.50776,6.22416 3.61973,6.23888 6.41545,12.37476 8.38717,18.40763 0.23543,0.88286 -0.103,1.28015 -1.01529,1.19186 l -9.84388,-0.57386 -8.69618,0.83872 c 1.20658,3.20773 1.89816,6.22416 2.07473,9.04931 0.0294,0.47086 -0.0589,0.77986 -0.26486,0.92701 -0.29662,0.21645 -0.83872,0.13243 -0.83872,0.13243 -5.35602,-1.05943 -9.47603,-3.3843 -12.36004,-6.9746 l -0.44143,-2.86929 c 2.94287,3.94344 6.91574,6.48902 11.91861,7.63674 -0.29429,-3.00173 -0.94172,-5.75331 -1.94229,-8.25474 -0.26486,-0.64743 -0.0736,-1.03001 0.57386,-1.14772 2.76629,-0.50029 5.63559,-0.83872 8.60788,-1.01529 l 10.02046,0.309 c -2.32486,-6.70973 -5.0323,-12.61018 -8.12231,-17.70134 -0.32371,-0.55915 -0.19128,-0.94172 0.39729,-1.14772 3.29601,-1.20657 7.57788,-3.17829 12.84561,-5.91516 4.67916,-2.44258 9.00517,-4.87045 12.97804,-7.2836 -4.91459,-2.67801 -10.91803,-5.42959 -18.01034,-8.25474 -0.50029,-0.17657 -0.64743,-0.52972 -0.44143,-1.05943 2.06001,-4.64973 4.37016,-8.40189 6.93045,-11.25647 -6.09173,0.0883 -11.16818,-0.35314 -15.22933,-1.32429 -0.50029,-0.11771 -0.69158,-0.48557 -0.57386,-1.10357 1.29486,-5.88573 3.17829,-10.56489 5.6503,-14.03748 l 2.42787,-0.618 c -2.41315,3.09001 -4.34073,7.72503 -5.78274,13.90505 l 6.6656,1.05943 8.65202,0.39729"
     id="path682"
     style="fill:#0f141b;stroke-width:0.88286"
     sodipodi:nodetypes="cscccccccccccsccccccccccccccccccccccc" />
  <path
     d="m 128.07629,299.0717 q 18.62835,14.08162 47.49787,17.39235 28.82538,3.26658 52.88332,-5.95931 31.29738,-12.0069 36.68283,-39.06655 l 2.11886,-0.0442 q -5.51787,29.39924 -38.00712,41.67099 -23.26336,8.78446 -51.55902,6.00345 -30.63525,-2.95758 -51.1176,-18.45177 -0.88286,-0.70629 -1.10357,-4.4143 -0.13243,-3.1783 0.17657,-6.62145 l 1.80986,-0.52972 q -0.35314,3.00173 -0.22071,6.09174 0.13243,3.44315 0.83871,3.92872"
     id="path684"
     style="fill:#0f141b;stroke-width:0.88286" />
  <path
     d="m 154.20895,300.26356 q -6.26831,-1.32429 -13.72847,-4.54672 -8.25474,-3.4873 -12.05104,-6.88631 l 2.03058,-0.75043 q 3.84044,3.09001 10.85917,6.04759 6.75388,2.82515 12.58076,3.97287 l 0.309,2.163"
     id="path686"
     style="fill:#0f141b;stroke-width:0.88286" />
  <path
     d="m 164.97984,315.84604 q 1.05943,-2.07472 1.67744,-5.07644 0.57386,-3.04587 0.48557,-5.78273 l 1.76572,1.67743 q -0.0883,6.09173 -1.80986,9.7556 l -2.11887,-0.57386"
     id="path688"
     style="fill:#0f141b;stroke-width:0.88286" />
  <path
     d="m 222.54231,326.61694 c 11.24175,0.55914 20.46764,-0.14715 27.67767,-2.11887 0.47085,-0.0883 0.42671,-0.32372 -0.13243,-0.70629 -4.70859,-3.20772 -8.15174,-5.79744 -10.32946,-7.76916 -1.11829,-1.08887 -1.66273,-2.41316 -1.6333,-3.97287 l 0.26486,-4.63502 2.5603,-1.10357 -0.61801,5.12058 0.0442,1.9423 c 0.0883,0.67685 0.27957,1.16242 0.57386,1.45671 2.56029,2.32487 5.97402,4.84102 10.24117,7.54846 0.85343,0.55914 1.44201,1.11828 1.76572,1.67743 0.26486,0.55915 0.26486,1.04472 0,1.45672 -0.58857,0.79457 -3.51672,1.545 -8.78445,2.25129 0,0 -6.68948,1.14772 -16.95092,1.14772 -16.00919,0.0883 -23.99908,-2.13358 -23.96965,-6.66559 0.0883,-2.14829 0.206,-3.81101 0.35315,-4.98816 l 2.38372,0.22071 c -0.0883,1.03001 -0.13243,2.69273 -0.13243,4.98816 0,2.17773 5.56202,3.56088 16.68606,4.14945"
     id="path690"
     style="fill:#0f141b;stroke-width:0.88286"
     sodipodi:nodetypes="ccccccccccccccccccsc" />
  <path
     d="m 92.011464,269.49589 q -12.448326,13.28705 -15.89148,20.48236 -2.472008,5.12058 -4.679158,15.97976 -1.942292,9.4466 -2.560294,16.86263 l -1.898149,0.13243 q 0.573859,-8.56375 2.383722,-18.05449 2.118864,-10.59432 4.723301,-15.97977 3.487297,-7.23945 15.759051,-20.43821 11.742043,-12.58075 21.276923,-19.86435 l 2.16301,1.05944 q -9.40246,7.15116 -21.276926,19.8202"
     id="path692"
     style="fill:#0f141b;stroke-width:0.88286" />
  <path
     d="m 59.87536,330.01595 c -2.884009,2.58972 -4.988159,4.63501 -6.312449,6.13587 -0.382573,0.41201 -0.264858,0.60329 0.353144,0.57386 5.915162,-0.52971 11.889181,-1.442 17.922058,-2.73686 0.44143,-0.0883 0.721002,-0.22072 0.838717,-0.39729 0.147143,-0.17657 0.147143,-0.45615 0,-0.83872 -0.824003,-3.00172 -2.20715,-5.88573 -4.149442,-8.65203 -0.545139,-0.83374 -1.589148,0.0442 -1.589148,0.0442 -1.854006,1.35372 -4.208299,3.31073 -7.06288,5.87102 m 10.064604,-7.32774 c 2.20715,3.11944 3.811012,6.41545 4.811587,9.88803 0.264858,0.91229 0.235428,1.60386 -0.08829,2.07472 -0.412001,0.58857 -1.265433,1.00058 -2.560294,1.23601 l -9.049315,1.41257 -9.049315,1.01529 c -1.412576,0.0883 -2.31015,-0.16186 -2.692723,-0.75043 -0.382573,-0.55915 -0.117715,-1.35372 0.794574,-2.38372 1.412576,-1.58915 3.575583,-3.6933 6.489021,-6.31245 2.972295,-2.67801 5.444303,-4.75273 7.416024,-6.22416 1.706863,-1.26543 3.016438,-1.25073 3.928727,0.0441"
     id="path694"
     style="fill:#0f141b;stroke-width:0.88286"
     sodipodi:nodetypes="cccccccccccccccccccc" />
  <path
     d="m 103.7535,327.14665 c -2.53086,2.00115 -5.120586,4.4143 -7.769166,7.23945 -0.676859,0.76515 -0.647429,1.32429 0.08829,1.67744 5.679726,2.61915 10.785606,4.22301 15.317616,4.81158 0,0 0.35325,0.048 0.44143,-0.0883 0.0802,-0.10422 -0.13243,-0.66215 -0.13243,-0.66215 -1.20657,-3.26658 -3.31072,-7.50431 -6.31245,-12.71318 0,0 -0.4497,-0.65814 -0.66214,-0.66215 -0.206,-0.0294 -0.52972,0.10303 -0.97115,0.39729 m 3.13415,-0.75043 c 2.88401,4.88516 5.00288,9.28475 6.3566,13.19876 0.47086,1.26543 0.55915,2.08944 0.26486,2.47201 -0.32372,0.38257 -1.07415,0.50028 -2.2513,0.35314 -2.44258,-0.32371 -5.17945,-0.927 -8.2106,-1.80986 -3.090005,-0.91229 -5.856297,-1.9423 -8.298876,-3.09001 -1.000575,-0.47086 -1.515576,-1.10358 -1.545005,-1.89815 -0.08829,-0.70629 0.279572,-1.48615 1.103575,-2.33958 2.501437,-2.73687 5.311872,-5.31188 8.431306,-7.72503 1.61858,-1.35371 3.00173,-1.07414 4.14945,0.83872"
     id="path696"
     style="fill:#0f141b;stroke-width:0.88286"
     sodipodi:nodetypes="ccccccccccccccccccc" />
  <path
     d="m 73.912834,333.59153 q 2.427865,0.97115 9.314173,1.32429 l 11.168179,-0.35314 0.264858,1.854 -11.03575,0.309 q -7.901597,-0.35314 -11.079893,-1.58915 l 1.368433,-1.545"
     id="path698"
     style="fill:#0f141b;stroke-width:0.88286" />
  <path
     d="m 127.19344,300.04285 q -4.45845,3.22244 -9.22589,7.54845 -4.45844,3.97287 -6.93045,6.79802 -0.618,0.70629 -0.79458,1.28015 l -0.17657,1.36843 q -0.0441,2.8693 -0.927,6.0476 -0.79458,3.00172 -2.11887,5.3413 l -1.05943,-1.76572 q 1.05943,-2.20715 1.72158,-4.89987 0.70629,-2.73687 0.57386,-4.67916 -0.0441,-1.05943 0.22071,-1.76572 0.26486,-1.01529 1.23601,-2.03058 6.93045,-7.76917 16.64191,-15.40591 l 0.83872,2.16301"
     id="path700"
     style="fill:#0f141b;stroke-width:0.88286" />
  <path
     d="m 92.09975,305.86973 q 3.840441,-1.76572 10.19703,-3.92873 6.13588,-2.11887 10.72675,-3.22244 1.23601,-0.309 1.36844,0.26486 0.17657,0.52971 -1.10358,0.88286 l -10.50603,3.61972 q -6.400739,2.33958 -10.064608,4.06116 -1.147718,0.52972 -1.545005,-0.309 -0.353144,-0.79458 0.927003,-1.36843"
     id="path702"
     style="fill:#0f141b;stroke-width:0.88286" />
  <path
     d="m 77.488417,291.92054 q 3.399011,7.41602 7.592596,12.09518 1.059432,1.19186 0.44143,1.76572 -0.662145,0.52972 -1.721577,-0.618 -4.017013,-4.4143 -7.416024,-12.75733 -0.44143,-1.05943 0.08829,-1.236 0.529716,-0.26486 1.015289,0.75043"
     id="path704"
     style="fill:#0f141b;stroke-width:0.88286" />
  <path
     d="m 83.71258,325.82236 q 0.353144,-5.20887 0.971146,-8.78446 0.573859,-3.70801 1.633291,-7.90159 0.353144,-1.23601 1.236004,-1.01529 0.838717,0.17657 0.529716,1.41257 -2.030578,7.54846 -3.178296,16.46534 -0.176572,1.45672 -0.750431,1.41258 -0.529716,-0.0883 -0.44143,-1.58915"
     id="path706"
     style="fill:#0f141b;stroke-width:0.88286" />
  <path
     d="m 16.482791,61.847222 c 1.824577,4.561443 3.86987,8.460742 6.135877,11.697895 l -3.045867,-1.633291 c -2.001149,-3.09001 -3.722726,-6.72445 -5.164731,-10.903321 -1.412576,-4.061156 -2.192436,-7.474881 -2.339579,-10.241176 -0.05886,-1.500862 0.27957,-2.324865 1.015289,-2.472008 0.735717,-0.206001 1.545005,0.294287 2.427865,1.500862 6.945165,9.593745 18.731346,21.9685 35.358543,37.124263 17.245199,15.656054 31.650531,26.868374 43.215997,33.636964 3.178296,1.88343 6.003445,4.45844 8.475455,7.72503 2.50144,3.32544 5.13531,8.01931 7.9016,14.08161 3.85515,8.32831 8.3136,16.89206 13.37533,25.69123 5.4443,9.41717 10.10874,16.49477 13.99333,21.23278 l -4.7233,-3.22244 c -3.91401,-5.00287 -8.16646,-11.56546 -12.75733,-19.68777 -4.23773,-7.47489 -8.18117,-15.1852 -11.83032,-23.13094 -1.73629,-3.76687 -4.14945,-7.76916 -7.23946,-12.00689 -3.296008,-4.53201 -6.077016,-7.44545 -8.343023,-8.74032 C 80.607856,115.34853 66.084809,104.09207 49.369326,88.730309 32.889273,73.633403 21.191378,60.949648 14.275641,50.679043 c 0,0 -0.249901,-0.343013 -0.397287,-0.309001 -0.147143,0.02943 -0.220715,0.17657 -0.220715,0.44143 0.05886,2.795723 1.000577,6.474307 2.825152,11.03575"
     id="path708"
     style="fill:#0f141b;stroke-width:0.88286"
     sodipodi:nodetypes="ccccccccccccccccccccccc" />
  <path
     d="m 2.04803,63.127369 q 8.166455,24.013792 33.769395,54.207601 26.883087,31.73882 52.08874,44.36372 1.633291,0.79457 2.472008,1.67743 0.971146,1.05943 1.368433,3.00173 1.500862,6.8863 6.886308,17.87791 5.385446,10.85918 10.152886,16.7302 l -2.78101,-0.0442 q -4.7233,-5.9593 -9.358311,-15.58247 -4.811587,-9.97632 -6.842165,-18.45178 -0.397287,-1.50086 -0.971146,-2.11886 -0.44143,-0.48558 -1.809863,-1.19186 Q 60.625791,150.48637 33.963419,119.05655 8.537051,88.995167 0.370596,63.701228 q -0.838717,-2.604437 0.220715,-3.619726 1.059432,-1.015289 3.178296,0.529716 9.314173,6.798022 19.643635,12.580755 1.280147,0.794574 0.971146,1.236004 Q 24.163673,74.91355 22.839383,74.251405 12.245063,69.042531 2.93089,61.979651 2.136316,61.361649 1.871458,61.67065 1.650743,61.935508 2.04803,63.127369"
     id="path710"
     style="fill:#0f141b;stroke-width:0.88286" />
  <path
     d="m 83.138721,232.90135 c -8.887457,4.67915 -17.598343,10.87389 -26.132656,18.5842 -8.681457,7.85745 -14.169903,14.67019 -16.465339,20.43821 -1.147718,2.79572 -1.618577,7.10702 -1.412576,12.9339 0.147143,5.50316 0.809288,10.60903 1.986435,15.31762 0.647431,2.61915 0,4.63502 -1.942292,6.04759 -1.265433,0.91229 -2.633866,2.163 -4.105299,3.75215 -1.412576,1.61858 -2.045292,2.54558 -1.898149,2.78101 0.235429,0.55915 4.4143,1.25072 12.536612,2.07472 14.783962,1.08839 23.175075,0.83872 23.175075,0.83872 l -0.264858,2.03058 c -4.208299,0.23543 -9.461316,0.13243 -15.759051,-0.309 -7.092309,-0.47086 -13.404758,-1.23601 -18.937347,-2.29544 -1.589148,-0.26485 -2.472008,-0.75043 -2.64858,-1.45672 -0.235429,-0.70629 0.176572,-1.86872 1.236004,-3.48729 1.471433,-2.29544 3.148867,-4.16416 5.032302,-5.60616 0.706288,-0.52972 1.133004,-1.13301 1.280147,-1.80987 0.147143,-0.618 0.103,-1.442 -0.132429,-2.47201 -1.177147,-4.76744 -1.824577,-10.13817 -1.942292,-16.11219 -0.117715,-6.15059 0.412001,-10.69732 1.589148,-13.64019 2.324865,-5.8563 7.813311,-12.68375 16.465339,-20.48235 8.681457,-7.85745 17.789629,-14.22876 27.324517,-19.11392 1.854006,-0.97115 3.19301,-1.78043 4.017013,-2.42786 0.971146,-0.70629 2.074721,-1.80987 3.310725,-3.31073 4.031727,-4.76744 7.798597,-8.91688 11.30061,-12.44832 l 1.10357,1.76572 c -2.266005,2.32486 -5.841587,6.35659 -10.726746,12.09518 l -3.752155,3.75215 c -0.971146,0.76515 -2.383722,1.61858 -4.237728,2.5603"
     id="path712"
     style="fill:#0f141b;stroke-width:0.88286"
     sodipodi:nodetypes="ccccccccccccccccccccccccccccc" />
  <path
     d="m 91.834892,268.12746 q -2.64858,-5.29716 -4.105299,-12.13932 -1.236004,-5.87102 -1.412576,-11.96276 -0.04414,-1.32429 0.485573,-1.32429 0.529716,-0.0883 0.750431,1.23601 0.794574,6.70973 1.898149,11.3006 1.545005,6.40074 4.061156,11.12404 l -1.677434,1.76572"
     id="path714"
     style="fill:#0f141b;stroke-width:0.88286" />
  <path
     d="m 148.38207,238.06608 c 1.58915,-0.55915 3.19302,-0.95643 4.81159,-1.19186 l -0.13243,1.94229 c -2.97229,0.17657 -5.63559,0.98586 -7.98988,2.42786 0,0 -0.81652,0.51912 -1.236,0.0883 -0.23543,-0.23543 -0.0589,-0.60329 0.52971,-1.10358 1.03001,-0.824 2.36901,-1.545 4.01701,-2.163"
     id="path716"
     style="fill:#0f141b;stroke-width:0.88286"
     sodipodi:nodetypes="ccccccc" />
  <path
     d="m 226.33861,312.27046 q 7.41603,-6.40073 12.09518,-17.30406 l 1.76572,0.35315 q -3.84044,9.71146 -10.19703,16.02391 l -3.66387,0.927"
     id="path718"
     style="fill:#0f141b;stroke-width:0.88286" />
  <path
     d="m 237.90408,298.05641 q 5.16473,-0.39728 10.10875,-1.854 5.25301,-1.54501 8.47545,-3.88459 l -1.854,3.04587 q -3.39902,1.89815 -8.74032,3.1783 -4.85573,1.19186 -8.87274,1.28014 l 0.88286,-1.76572"
     id="path720"
     style="fill:#0f141b;stroke-width:0.88286" />
  <path
     d="m 263.15387,282.16493 -7.98988,1.14772 q -4.37016,0.22072 -7.76917,-0.0441 l -0.26485,-1.89815 q 4.14944,0.39729 8.65202,0.0441 4.45845,-0.309 8.03403,-1.28014 l -0.66215,2.03057"
     id="path722"
     style="fill:#0f141b;stroke-width:0.88286" />
  <path
     d="m 284.65152,326.70522 c 0.76514,1.44201 1.69214,2.69273 2.781,3.75216 0.50029,0.47085 1.61858,0.79457 3.35487,0.97114 1.70687,0.206 3.25187,0.1913 4.63502,-0.0441 l 0.52971,1.76572 c -0.88432,0.20407 -5.3413,0.22071 -5.3413,0.22071 -2.27341,0.0939 -3.73744,-0.618 -4.4143,-1.236 -1.20657,-1.14772 -2.29543,-2.60444 -3.26658,-4.37016 -0.76515,-1.41257 -1.54501,-3.25186 -2.33958,-5.51787 -0.85343,-2.38372 -1.76572,-4.37016 -2.73687,-5.95931 -1.236,-1.97172 -2.83986,-3.70801 -4.81158,-5.20887 -4.64973,-3.53144 -12.15404,-7.51902 -22.51293,-11.96275 l 2.03057,-2.11887 c 3.44316,1.55972 6.93046,3.29601 10.4619,5.20888 5.0323,2.73687 8.9316,5.15002 11.69789,7.23945 2.00115,1.50086 3.57558,3.25187 4.7233,5.25302 0.73572,1.29486 1.76572,3.66387 3.09001,7.10702 l 2.11887,4.89987"
     id="path724"
     style="fill:#0f141b;stroke-width:0.88286"
     sodipodi:nodetypes="cccccscccccccccccc" />
  <path
     d="m 317.84705,334.20953 q -3.61972,-3.57558 -10.15289,-9.09346 -0.57386,-0.48557 -1.01529,-0.44143 -0.35314,0 -1.01529,0.44143 -5.9593,3.84044 -8.65202,6.44488 -0.70629,0.57386 0.17657,0.83872 3.4873,1.14772 10.24117,2.03058 l 10.15289,0.66214 q 1.10358,0 0.26486,-0.88286 m -0.22071,2.47201 -10.99161,-0.70629 q -6.88631,-0.75043 -10.15289,-1.854 -1.63329,-0.52972 -1.89815,-1.67744 -0.26486,-1.05943 0.75043,-1.98643 1.54501,-1.50087 4.81159,-3.84044 l 4.54673,-3.1783 q 1.14772,-0.75043 1.98643,-0.70629 0.88286,0.0441 1.9423,0.927 5.9593,4.85573 10.46189,9.44661 1.545,1.58914 1.19186,2.51615 -0.309,1.01529 -2.64858,1.05943"
     id="path726"
     style="fill:#0f141b;stroke-width:0.88286" />
  <path
     d="m 317.84705,304.45715 c -2.17772,-8.24003 -4.78216,-15.06748 -7.81331,-20.48235 -1.64801,-3.00173 -6.81274,-8.50489 -15.49419,-16.50948 -7.76917,-7.21003 -14.5819,-13.0369 -20.43821,-17.48063 l 2.86929,-1.28015 c 5.56202,4.35544 12.09519,10.07932 19.5995,17.17163 8.53431,8.06345 13.69904,13.69904 15.49419,16.90677 3.06058,5.53259 5.6503,12.37475 7.76917,20.52649 1.50086,5.79745 3.03115,13.5519 4.59087,23.26336 0.35314,1.94229 -0.27958,3.09001 -1.89815,3.44316 -3.03115,0.73571 -5.31188,1.11828 -6.84217,1.14771 l -1.67743,-1.67743 c 1.76572,0 4.3113,-0.38257 7.63674,-1.14772 0.44143,-0.11771 0.721,-0.27957 0.83872,-0.48557 0.0962,-0.016 0,-1.01529 0,-1.01529 -1.50087,-9.0346 -3.04587,-16.49477 -4.63502,-22.3805"
     id="path728"
     style="fill:#0f141b;stroke-width:0.88286"
     sodipodi:nodetypes="cccccccccccccccc" />
  <path
     d="m 323.45321,327.4998 q 8.47546,0.57385 13.81676,-0.22072 1.14772,-0.13243 0.22072,-0.927 -5.12059,-4.1053 -15.58248,-8.38717 l -0.22072,-1.98644 q 11.03575,4.37016 16.99506,9.1376 1.58915,1.28015 1.236,2.29544 -0.309,1.01529 -2.38372,1.41258 l -7.32774,0.618 q -4.45844,0.13243 -7.23945,-0.13243 l 0.48557,-1.80986"
     id="path730"
     style="fill:#0f141b;stroke-width:0.88286" />
  <path
     d="m 309.23917,280.66407 q 0.48557,7.10703 0.26486,10.59432 -0.0442,0.97115 -0.83872,0.92701 -0.83872,-0.0883 -0.79458,-1.05944 0.30901,-7.63674 -0.0883,-12.05104 l 1.45672,1.58915"
     id="path732"
     style="fill:#0f141b;stroke-width:0.88286" />
  <path
     d="m 291.80268,283.75408 c 7.50431,3.47259 12.9339,6.5626 16.28877,9.27003 0.55915,0.44143 0.66215,0.88286 0.309,1.32429 -0.35315,0.44143 -0.77986,0.44143 -1.28015,0 -3.64915,-2.91343 -8.9316,-6.10644 -15.84733,-9.57903 -0.70629,-0.29429 -0.98587,-0.618 -0.83872,-0.97114 0.24852,-0.46497 1.36843,-0.0442 1.36843,-0.0442"
     id="path734"
     style="fill:#0f141b;stroke-width:0.88286"
     sodipodi:nodetypes="ccscccc" />
  <path
     d="m 316.16962,314.8749 q -2.5603,-8.65203 -6.75388,-17.92206 -0.39729,-0.927 0.39729,-1.236 0.75043,-0.35315 1.14771,0.57385 3.4873,7.5926 6.3566,18.23106 0.35314,1.14772 -0.22072,1.32429 -0.52971,0.13243 -0.927,-0.97114"
     id="path736"
     style="fill:#0f141b;stroke-width:0.88286" />
  <path
     d="m 217.15687,171.32186 q -1.10358,-12.58075 -3.57558,-20.43821 -0.79458,-2.42786 0.13242,-2.95758 0.75044,-0.48557 2.20715,0.35315 3.61973,1.98643 9.53489,9.18174 4.28187,5.20887 7.63674,10.32946 1.94229,2.91344 -0.13243,8.34303 -1.76572,4.67916 -5.69444,9.53489 -3.61973,4.59087 -6.62145,6.2683 -3.13416,1.85401 -2.95759,-1.36843 0.44144,-8.38717 -0.52971,-19.24635"
     fill="#60615f"
     id="path740"
     style="stroke-width:0.88286" />
  <path
     d="m 216.58301,149.78008 q -1.72158,-1.14772 -2.25129,-0.92701 -0.48558,0.17658 -0.0442,1.72158 2.38373,8.43131 3.53144,19.42292 1.10358,11.12404 0.48558,20.08507 -0.0442,1.45672 -0.61801,1.45672 -0.57385,-0.0442 -0.57385,-1.54501 0.22071,-8.91689 -1.14772,-20.65892 -1.32429,-10.81504 -3.31073,-18.31935 -0.79457,-3.13415 0.57386,-3.88458 1.41258,-0.79458 4.19359,1.19186 3.57558,2.51615 7.90159,7.54845 4.63502,5.47373 7.85746,11.30061 0.618,1.10357 0.13243,1.41258 -0.48558,0.26485 -1.19186,-0.79458 -3.57559,-5.42959 -8.16646,-10.77089 -4.54673,-5.29716 -7.37188,-7.23945"
     fill="#0f141b"
     id="path742"
     style="stroke-width:0.88286" />
</svg>
