<svg version="1.2" xmlns="http://www.w3.org/2000/svg" viewBox="0 0 167 171" width="781" height="800"><style>.a{fill:#f29b76}.b{fill:#505124}.c{fill:#5893c0}.d{fill:#c6d7e7}.e{fill:#fff}.f{fill:#727171}.g{fill:#d6e9c4}.h{fill:#46799f}.i{fill:#3d3e17}.j{fill:#b9caaa}.k{fill:#d18566}.l{fill:#dcdddd}.m{fill:#a6b6c3}.n{fill:#595757}.o{fill:#0d131a}</style><path class="a" d="m98.7 96.4c-0.1 0.8-0.6 8.3 1.6 11.9 0.6 1-2.4 2.4-11.3 2.5-8.9 0.1-11.3-1.6-10.7-2.7 1.5-2.9 0.9-9.6 0.8-10.4l7.6-6 7.2 0.3z"/><path class="a" d="m60.6 87.3l-6.8 0.4c-0.5 0.6-1.2 1.7-2.4 3.2 0.2 2.1 1.3 6.7 7.5 6.6 1.9-2 3-3.5 3.7-4.5z"/><path class="a" d="m42 99.8c-2.7 2-6.1 3.9-10.3 5.6-0.7 0.6-2.3 4.1-0.2 6.5 1 1.1 3.5 2.1 6.4 0.4 3.8-2 7.1-3.9 9.8-5.7-5.9-0.1-6.4-4.3-5.7-6.8z"/><path class="b" d="m51.4 90.9c-1.8 2.4-4.7 5.7-9.3 8.9-0.8 2.5-0.3 6.7 5.6 6.8 5.5-3.6 9-6.7 11.2-9.1-6.2 0.1-7.3-4.5-7.5-6.6z"/><path class="a" d="m58.6 53c-0.8-3-1.3-5.5-1.3-6.6-5.1-0.8-7.8 2.1-9.1 3.1 0.4 0.8 1.5 3.1 2.4 6.5 1.4-1.3 3.9-3.2 8-3z"/><path class="b" d="m61.2 60.4c-1-2.4-1.9-5.1-2.6-7.4-4.1-0.2-6.6 1.7-8 3 0.6 2.2 1.1 4.8 1.4 7.8 1.4-1.2 4.6-4.2 9.2-3.4z"/><path class="a" d="m61.2 60.4c-4.6-0.8-7.8 2.2-9.2 3.4q0.3 2.8 0.3 5.9l6.3-0.6 5.1-3.6c-0.9-1.4-1.7-3.2-2.5-5.1z"/><path class="c" d="m136.7 68.3c-0.5 0.1-6.6 1.5-6.8 1.5-0.2 0-9.4 2.7-11.8 3.7-2.4 1.1-4.8 1.9-5.4 2-0.6 0.1-7 0.7-7.4 0.6-0.3 0-8.7 0.9-9 0.9-0.3-0.1-4.1-4.5-4.4-4.6-0.4-0.2-7.9 0.1-8.2 0.3-0.2 0.1-5.3 3.4-5.6 3.5-0.3 0.1-12 3.4-12.7 3.1-0.7-0.2-5.2-2.2-5.3-2.4-0.1-0.1 2.4-3.7 2.4-3.7l-6 1.8c0 0-7.4 4.9-7.8 4.9-0.5 0-2.5-0.5-3.1-0.8 0 0 3.3 5.2 4.2 5.8 0.9 0.7 5.3 3.7 10.8 6.5 5.4 2.8 13.9 7.1 14.4 6.8 0.5-0.3 1.1-1.8 1.3-2.7 0 0 5 3.8 5.9 4.3 0.3 0 4.9-6.3 4.9-6.3 0.2 0 4.9 0.5 4.9 0.5 0 0 2.9 4.5 3.1 4.5 0 0 4.4-2.3 5.7-3.4-0.1 0.7-0.1 1.7 0 1.9 0.1 0.2 4.9-1.1 5.2-1.3 0.3-0.2 10.2-5.9 10.7-6.2l9.1-8c0.4-0.4 5.5-5 6.1-5.7 0.7-0.7 4.9-7.2 4.8-7.5z"/><path class="c" d="m111.5 120.6c0-0.2 2.8-4.8 3-5.2 0.2-0.4 1.8-6.1 1.7-6.5-0.2 0.1-1.6 0.9-1.9 0.9-0.3 0-3.4 0.5-3.8 0.5-0.4 0.1-9.5 2.4-9.8 2.4-0.3-0.1-10.4-0.9-10.7-0.9-0.2 0.1-4.3 1.6-4.8 1.6-0.5 0.1-10-0.6-10.1-0.6-0.1-0.1-1.4-0.9-1.6-0.9-0.2 0-7.2-0.9-7.3-0.9-0.2 0-0.8-1.8-0.9-2.3l-0.2-0.3c-0.2 0.3 0.6 3.6 0.6 4.1 0.1 0.4 1.5 5.3 1.7 5.7l9.3 9.4c1.5 0.9 8.3 3.7 8.3 3.7 0 0 2.3 1.2 2.7 1.3 0.4 0 4.2-2.5 4.3-2.6 0.2-0.2 3.9 0.1 4.5 0.1 0.6 0 2.6-0.9 3-0.9z"/><path class="b" d="m164.5 125.1c-1.4-4.5-9.3-11.1-11.6-13.1-2.3-2-4.4-3.3-4.4-3.3-5.7-0.5-8.8 3.9-9.5 5.4 0 0 0.3 10.5 0.5 12.2 0.2 1.7 0.5 5 4.3 7.7 0 0 6 3.1 11.9 1.4 11-3.2 8.8-10.3 8.8-10.3z"/><path class="b" d="m22.3 125.6c11.6-3.4 15.6-13.3 15.6-13.3-2.9 1.7-5.4 0.7-6.4-0.4-2.1-2.4-0.5-5.9 0.2-6.5 0 0-12.8-2.9-23.4 8.2 0 0-3.9 8.9 3 11.4 6.9 2.5 11 0.6 11 0.6z"/><path class="b" d="m54.7 24.7c1.8 2.2 5.8 7.5 2.6 21.7-5.1-0.8-7.8 2.1-9.1 3.1-4.2-2.8-9.9-9-11.2-11.7-1.2-2.7-0.2-7 0.1-9 0.5-3.2 3.7-6.4 7.7-7.1 4.1-0.8 8.3 1 9.9 3z"/><path class="b" d="m119.9 43.2c1.5 1.1 7 3.1 11.2 3.3 4.7-3.3 10.8-14.3 11.2-15.8 0.5-1.5 0.9-5 0.7-7.3 0 0 0.3-5.7-6.6-8.1-6.9-2.3-13.9 1.9-13.9 1.9-1.3 1.9-3.6 6-3.6 7.9-0.1 1.8 0.1 12.6 1 18.1z"/><path class="d" d="m78.7 106.6c-0.1 0.6-0.2 1-0.4 1.5-0.6 1.1 1.8 2.8 10.7 2.7 8.9-0.1 11.9-1.5 11.3-2.5-0.5-0.7-0.8-1.6-1-2.5 0.9 0.1 3.9 0.2 4.4 0.3 0.5 0 2 0.5 2.2 0.5 0.3 0 4.8-0.1 5.2 0 0.4 0 5 1.9 5.1 2.3-0.2 0.1-1.6 0.9-1.9 0.9-0.3 0-3.4 0.5-3.8 0.5-0.4 0.1-9.5 2.4-9.8 2.4-0.3-0.1-10.4-0.9-10.7-0.9-0.2 0.1-4.3 1.6-4.8 1.6-0.5 0.1-10-0.6-10.1-0.6-0.1-0.1-1.4-0.9-1.6-0.9-0.2 0-7.7-1-7.8-1-0.1 0-0.5-2-0.6-2.5 0.3-0.3 7.4-0.8 7.6-0.8 0.3-0.1 2.6-0.8 2.9-0.8 1.2 0 3-0.2 3.1-0.2z"/><path class="d" d="m106 59.4c-9.1 2.9-20 4-21.6 4.2 0 0-2.6 0.4-7.6 1.2-4.9 0.8-8.9-1.1-8.9-1.1-2.8 1.4-10.3 4.4-12 4.9-1.8 0.6-7.9 2.8-8.3 3.2-0.4 0.4-3.5 4.5-3.5 5 0.1 0.1 0.7 1.1 1.5 2.3 0.6 0.3 2.6 0.8 3.1 0.8 0.4 0 7.8-4.9 7.8-4.9l6-1.8c0 0-2.5 3.6-2.4 3.7 0.1 0.2 4.6 2.2 5.3 2.4 0.7 0.3 12.4-3 12.7-3.1 0.3-0.1 5.4-3.4 5.6-3.5 0.3-0.2 7.8-0.5 8.2-0.3 0.3 0.1 4.1 4.5 4.4 4.6 0.3 0 8.7-0.9 9-0.9 0.4 0.1 6.8-0.5 7.4-0.6 0.6-0.1 3-0.9 5.4-2 2.4-1 11.6-3.7 11.8-3.7 0.2 0 6-1.4 6.6-1.5-0.1-0.2-1.3-1.1-1.8-1.4-0.6-0.3-3.5-2.3-3.8-2.4-0.3-0.2-3.9-0.8-5.9-0.9l-11.5-2.2c-1.3-0.3-2.2-0.5-2.3-0.5-0.1 0-2.1-1.8-2.4-2-0.3-0.2-3.6-0.7-5.5-1l0.1 1.1c0.8 0.1 1.5 0.1 2.6 0.4"/><path class="e" d="m27.4 114.3c-2 1.4-4.5 2.7-6.8 3.7 3-0.7 5.4-0.8 6.4 0.5 0.8 1.1 0.3 2.4-0.2 3.1q0.4-0.4 0.8-0.6c1.6-1.2 2.9-2.3 4.2-3.1-4.3 0.6-4.5-2.6-4.4-3.6z"/><path class="e" d="m27 118.5c-1-1.3-3.4-1.2-6.4-0.5-1.9 0.8-3.7 1.4-4.8 1.6 1.7 0.1 5.9 0.5 6.9 1.9 0.7 1.1 0.4 2.1 0.1 2.6 1.8-0.8 3-1.8 4-2.5 0.5-0.7 1-2.1 0.2-3.1z"/><path class="e" d="m135.7 36.2q0 0 0 0c1.8-2.3 2.8-4.7 3-6.8-0.9 1-2.5 2-4.5 1.5-2.4-0.6-3.4-2.8-3.8-4.3-0.8 0.8-1.8 2.5-1.9 5.7q0 0.6-0.1 1.2c0.7 1.7 2.7 5.3 7.3 2.7z"/><path class="a" d="m128.4 33.5c0 2.6 0 4.4-1.1 5.5 1.1-0.5 2.4-0.7 3.9-0.3 1.6 0.3 2.3 1.2 2.5 1.8-0.1-0.8 0.2-2 2-4.3-4.6 2.6-6.6-1-7.3-2.7z"/><path class="f" d="m61.8 67.5c-0.7 0.2-2 1.1-1.9 1.2 0.1 0.1 1.1 0.1 2.2-0.2 1-0.2 1.5-0.8 2-0.9 0.4-0.2 0.7-0.7 0.6-0.8 0-0.2-2.4 0.6-2.9 0.7z"/><path class="f" d="m64.9 72.4c0 0.4 1.1 0.1 2.2-0.2 1.1-0.3 2.1-1.1 1.9-1.4-0.1-0.3-1.3 0.1-1.7 0.2-0.5 0.1-1.3 0.5-1.6 0.7-0.4 0.2-0.9 0.4-0.8 0.7z"/><path class="f" d="m109.5 69.6c-0.2 1-1.5 1.2-3.2 1.3-1.8 0.1-2.5 0.2-3.5 0.2-1 0-3.3-0.7-3.3-1.7 0-0.4 0.6-1 3-1.1 2.4-0.1 1.8 0.2 3 0.2 1.2 0 2.5-0.1 3.1 0.2 0.8 0.3 1 0.4 0.9 0.9z"/><path class="f" d="m99.9 110.2c0 0.3 1.6 0.3 2.6 0.3 1.1 0 2.5-0.7 2.6-1 0-0.3-1.9-0.1-2.5-0.1-0.5 0-2.8 0.4-2.7 0.8z"/><path class="e" d="m82.4 85q0-0.1 0-0.3c-0.3-1.9-1.3-2.9-2.8-3 0.1 1 0.5 2 1.1 2.8 0.5 0.8 1.4 1.1 1.7 0.5z"/><path class="f" d="m82.4 85c-0.3 0.6-1.2 0.3-1.7-0.5-0.6-0.8-1-1.8-1.1-2.8q-0.5-0.1-1.1 0c-2 0.3-2.6 1.3-2.9 1.8-0.7 1-1.5 2.6-0.1 4.4 1.5 1.7 3.1 2.4 4.8 1.3 1.2-0.8 2.4-1.9 2.1-4.2z"/><path class="a" d="m107.9 124.9c3.2-1.3 5.5-0.3 6.6 0.5-1.5-2.2-2.8-4.2-3.8-5.5-1.6-2.1-3.8-2.4-6.9-0.8-3.1 1.6-5 5.9-4.7 7.4 0.1 0.8 1.1 3.1 2.1 5.5 0.9-2.8 2.4-5.3 6.7-7.1z"/><path class="b" d="m114.9 138.8c5.1-0.5 7.2-2.1 8.1-3.4q0 0 0 0c-0.4-0.9-3.9-3.6-7.4-8.6q-0.6-0.7-1.1-1.4c-1.2-0.8-3.4-1.8-6.6-0.5-4.3 1.8-5.9 4.3-6.7 7.1 1.2 2.7 2.5 5.4 2.6 5.8 1.8 0.6 5.3 1.7 11.1 1z"/><path class="e" d="m127 150.4c-0.5 0.1-1.9 0.2-2.1 0-1-1.2-4.2-4.5-4.7-4.6-0.4 0-4.5 5.6-5.3 5.8-3.8 1.2-8.8 0.6-10.9 0.2-0.1 5.6-0.2 11.1 0.1 12.2 0.2 0.6 1.9 2.2 4.9 2.2l20.1-6.7c-0.4-1.6-1.2-5.1-2.1-9.1z"/><path class="e" d="m114.9 151.6c0.8-0.2 4.9-5.8 5.3-5.8 0.5 0.1 3.7 3.4 4.7 4.6 0.2 0.2 1.6 0.1 2.1 0-1.4-6-3.1-12.9-4-15-0.9 1.2-3 2.9-8.1 3.4-5.8 0.7-9.3-0.4-11.1-1q0 0 0 0c0 0 0.2 6 0.2 12.3q0 0.8 0 1.7c2.1 0.4 7 1 10.9-0.2z"/><path class="e" d="m50.5 149.8c-0.6-1.2-3.9-4.4-5.5-5.4-0.2 2.2-0.2 4.4-0.2 6.5l2.6 8.3 5 2c1 0.2 6.7 0.9 12.2-1 4.8-1.6 3.9-3 3.4-5.6-0.2-1.1-0.9-4.4-1.6-8-6.3 4.2-15.6 3.7-15.9 3.2z"/><path class="a" d="m47.5 131.9c-1 1.8-2.1 7-2.5 12.5 1.6 1 4.9 4.2 5.5 5.4 0.3 0.5 9.6 1 15.9-3.2-0.8-4.8-1.7-10-1.1-10.7q0 0 0 0c-11.1 1.5-16.1-2.3-17.8-4z"/><path class="b" d="m59.6 122.8c-5.1 3.3-10.9 7.3-12 8.8q0 0.1-0.1 0.3c1.7 1.7 6.7 5.5 17.8 3.9 0.4-0.5 2.5-2 4.8-3.6-7.7-2.4-10.1-7.6-10.5-9.4z"/><path class="a" d="m76.8 127.2c0.1-0.5-7.4-9-9.2-9.1-0.3-0.1-3.9 2.1-8 4.7 0.4 1.8 2.8 7 10.5 9.4 3.2-2.2 6.7-4.7 6.7-5z"/><path class="b" d="m131.7 87.7c-1.6-0.5-5.9-1.5-7.6 4.4 2.4 2.9 8.9 7.1 10.3 10.8 0.6-1.3 1.3-4.9 6.4-4.4-1.1-2.4-6.1-7.1-9.1-10.8z"/><path class="a" d="m132.2 88.1c-4.8-5.1-8.8-9.1-9.2-9.4-0.7-0.5-3.6 0.1-6.6 2-1.5 1-6 4.4-3.3 6.2 1.2 0.7 5.8 3.3 10.9 7.5 1-6.9 6.6-6.5 8.2-6.3z"/><path class="a" d="m141 98.1c-1.8-0.5-6.6-1.6-8.4 4.8 2.6 3.3 4.9 7 6.4 11.2 0.7-1.5 3.8-5.9 9.5-5.4-1.2-2.6-4.1-6.5-7.5-10.6z"/><path class="a" d="m115.3 58.1c-1.4 3-2.9 5.8-4.7 7.5-0.8 0.8 3.2 2.2 5.8 2.4 2.6 0.3 7.2-0.4 8.1-1.3 0 0 0.2-2.3 1-5.6-3.7-2.6-8.3-3.1-10.2-3z"/><path class="a" d="m127.6 53.9c0.9-2.4 2-4.9 3.5-7.4-4.2-0.2-9.7-2.2-11.2-3.3-0.2 1-0.9 4.2-2.1 8 2.3 0 6.8 0.3 9.8 2.7z"/><path class="b" d="m117.8 51.2c-0.7 2.2-1.5 4.6-2.5 6.9 1.9-0.1 6.5 0.4 10.1 3 0.5-2.1 1.2-4.6 2.2-7.2-3-2.4-7.5-2.7-9.8-2.7z"/><path class="e" d="m84.4 63.6c-2 2.1-15.5 12.3-15.7 12-0.1-0.4 6.7-8.1 7.9-9.5z"/><path class="g" d="m126 158.9c1.5 0 3 0.7 3.2 0.9 0.3 0.2 4.4 4.8 4.7 7.8 0 0.4-3.2 0.1-3.7 0.1 0.3 1 0.4 1.8 0.3 2-0.2 0.3-3.3 0.3-9.5-1.9 0.5 1 0.8 1.6 0.7 1.7-0.2 0.3-9-0.8-12.7-3.3 0 0 2.8-5.9 6.2-5.5 0.1 0 0.3 0 0.4 0.1 1.3-1.4 4.1-4.2 5.3-4.2 1.2-0.1 3.8 1.2 5.1 2.3z"/><path class="g" d="m38.6 163.2c0 0-7.9 1-7.5 0.2 3-5.8 13.2-12.5 13.7-12.5 0.6 0 1.2 0.3 1.4 0.5 0.3 0.2 1.7 1.9 2.3 3.6 0.7-0.5 2.3 1 3.2 2.6 0.8 1.3 1.3 3.5 0.4 3.8-4.3 1.3-13.4 2.1-13.5 1.8z"/><path class="g" d="m37.1 28.8c0.2-1.2 0.9-2.4 2.9-1.6 2.1 0.8 3.1 1.5 3.9 1 0.3-0.2 0.2-1.2-0.3-2.5 1 0.1 6 2.3 7.7 1.7 1-0.4 0.9-1.7 0.2-3.3 0.8 0.6 2.4 1.5 3 1.2 0.6-0.2-0.2-2.6-2.8-5.8-2.6-3.2-5.4-5.1-7.2-5.8-1.1-1-2.3-2.2-3.5-3-5.3-3.6-9.8-1.1-9.6-0.8 1.1 1.3 3.7 5.5 4 7-2.8-1.2-5.5-1.5-5.3-0.9 0.3 0.8 4.5 5.1 7 12.8z"/><path class="g" d="m138.9 23.6c1.1 1.2 1.1 1.9 1.8 1.9 0.9 0.1 2.5-2.2 3.2-3.7 0.5-1 1.8-4.7 3.4-7.8 2.1-4.3 3.5-6 3.1-6-1.2 0.1-4.7 1-6.9 3.4 1.8-4.3 3.5-8.6 4.7-10.8 0.5-0.8-7.3 0.5-11.9 4.5-0.9-0.1-4.2 0.5-7 2.8-3.4 2.9-5.2 6.6-6.8 9.3 0.7-0.6 3.7 1.2 5.1 5.3 0.2 0.6 0.7 1 1.3 0.6 0.3-0.2 0.8-0.8 1.1-2 0.3-0.8 0.4-1.4 0.6-2.1 0.2 0.9 1.8 5.4 4.9 5.8 2.1 0.3 2.9-0.6 3.4-1.2z"/><path class="g" d="m161.2 143.3c2.8-1.9 5.1-6.4 5-11.3-0.1-5-1.5-7-1.9-7-0.8 0-1.4 4.1-1.8 5.2-0.8-3.6-1.8-6.3-3.4-6.7-2.4-0.8-6 5.4-6.5 7.3-0.4-5.7-2.2-5.9-2.8-5.9-1-0.1-1.5 1.1-2.1 3.1-0.6 1.9-2.5 5.2-3.9 6 2.5 5.2 1.9 12.8 2.2 12.8 0.3-0.1 3.5-2.9 5.4-7.5 0.2 0.9 2.2 4.6 2.7 12.2 0.1 0.7 0.7 2.5 4.5-2.8 1.3-1.7 2-3.5 2.6-5.4z"/><path class="g" d="m11.6 119.9c0.5-0.4 0.7-0.7-0.5-1.5-2.1-1.3-2.9-3.3-2.8-4.8 0 0-3.4 2.6-5.3 5.7-1.2 1.9-1.9 4.9-2 6.7-0.8 2.4-0.9 5.2-0.3 8.1 0.3 1.7 0.7 2.1 2.7 0.3 1.8-1.6 3.9-3 6-4.3-0.1 0.5-0.2 2.5 0.2 2.5 0.4 0.1 6.7-4.6 12.7-7 0.6-0.2-2.2-0.6-2.5-0.6 0.3-0.5 0.2-1.2-0.6-2-1.3-1.4-6.3-2.9-7.6-3.1z"/><path class="h" d="m103.4 60.3c0.9-0.2 1.7-0.6 2.6-0.9-1.1-0.2-1.8-0.3-2.6-0.3z"/><path class="b" d="m76.1 32.1c-1.8-0.1-4 1.1-7.1 4.3-3.1 3.4-5.4 8.9-5.2 9.1 0.1 0.2 1.8 0 4.2-0.5 0 0.1 0 0.2 0.1 0.3 0 0.1 1.6-0.1 3.6-0.6 0.1 1.4 0.5 4.8 0.8 5.8-1.1 0.4-0.5 1.9-1.7 4.1-1.1 0.3-1.9 0.9-1.9 0.9-1.6-0.2-11-4-11.3-4-1.2 0 4.4 8.2 9.1 11.4 2.8 1.9 6.6 2.5 10.2 2l7.5-1.3c1.4-0.2 10.7-1 19.1-3.5-0.1-2.4-0.9-7.1-1.7-9.6-0.8-2.6-1.8-3.2-2.6-3.6 0.7-12.9-1.7-15.6-3.5-16-1.1-0.2-2.4 0.2-4 1.4-0.1-1.6-1.5-3.7-3-4-1.3-0.2-3.1 0.8-5.1 2.5-0.3-0.6-0.8-1.6-2.6-1.8-1.1 0-2.8 1-4.9 3.1z"/><path class="a" d="m85.5 60.4q-0.3-0.5-0.3-0.9c0-1.3 1-2.3 2.9-4.1 2-1.8 1.8-4.8 1.7-6.3-1.4 1-7.3 5.1-8.1 5.2-0.9 0-6.4-2.9-6.4-2.9h-0.4c0 0.7 0.1 2.3 0.6 3.4 0 0.6 0.5 1.9 1.3 2.9 0.9 1.1 1.7 2.5 1.7 2.9l3.2-1.9c1 0.2 2.4 0.4 3.8 1.7z"/><path class="d" d="m75.3 70.9c0.6-1 1.9-7.7 2.1-8.1 0.1-0.4 2.8-5.1 3.4-4.9 0.4 0.2 2.6 3.2 2.8 3.6 0.1 0.4 0.6 1.7 0.8 2.1 0 0-7.8 6.5-9.1 7.3z"/><path class="e" d="m80.1 53.7c0 0.4-0.9 2.1-2 2.3-0.7-0.1-1.5-0.2-2-0.5-1-0.7-1.2-3-1.1-4.1q0.1 0 0.3 0c0 0 2.9 1.5 4.8 2.3z"/><path class="e" d="m89.4 53.5c-1.3 0.4-2.9 1.1-4.1 1.8-1.1-0.5-1.8-2-1.8-2 2.1-1.3 5.3-3.5 6.3-4.2 0.1 1 0.2 2.9-0.4 4.4z"/><path class="g" d="m89.8 42.8c-4 1.2-6.9 1.5-7.1 1.3-0.1-0.1 1.1-2.9 3-5.7 0.8-0.6 2.4-0.9 3.6 0.3 1 1.1 1.1 2.8 0.5 4.1z"/><path class="g" d="m68 45c-2.4 0.5-4.1 0.7-4.2 0.5-0.2-0.1 1.1-3.5 3.1-6.5 0.8-0.5 2.1-0.8 3.3 0.7 0.6-1 1.3-2.1 2.2-3.3 0.8-0.6 2.4-0.9 3.6 0.4 0.5 0.5 0.7 1.3 0.8 2q0.6-1.1 1.5-2.2c0.6-0.5 2.7-1 3.9 0.3 1.1 1.2 1.5 3.4 0.6 5.1-6.3 3.1-8.3 2.9-8.5 2.6-0.1-0.1-0.1-0.3 0.1-0.8-2.8 1-6.2 1.6-6.3 1.5q-0.1-0.1-0.1-0.3z"/><path class="g" d="m64.8 61.4c-4.1-3.7-8.2-9.9-7.2-9.9 0.3 0 7.3 2.8 10.3 3.7 0.3 1.1 1.2 5-3.1 6.2z"/><path class="a" d="m82.8 42c0.9-1.7 0.6-3.9-0.6-5.1-1.2-1.3-3.3-0.7-3.9-0.3l1.5-2c1.1-0.4 2.7-0.5 4 1.2 1.4 1.8 1.1 3.3 1 3.9 0 0-0.8 1.5-0.9 1.7z"/><path class="a" d="m92 42c0.1-0.7 0.5-2.6-0.9-4.4-1.3-1.5-2.9-1.4-4-1.1l-1.4 1.9c0.8-0.6 2.4-0.9 3.6 0.3 1 1.1 1 2.9 0.4 4.2z"/><path class="a" d="m76.8 38.7c-0.1-0.8-0.3-1.4-0.8-1.9-1.2-1.3-2.8-1-3.6-0.4l1.4-1.9c1.1-0.3 2.7-0.4 3.9 1.2q0.4 0.4 0.6 0.8z"/><path class="a" d="m70.3 39.6c-1.2-1.3-2.5-1.1-3.3-0.7l1.4-1.8c0.9-0.2 2.1-0.3 3.1 0.5z"/><path class="a" d="m73 65c1-0.5 2.7-3 2.6-5.8-0.1-2.9-2.2-4.9-4.5-5.1l-0.4 0.5-0.1 0.2c1.1 0.3 3.6 1.6 3.7 4.3 0.1 2.3-1 4.7-2.5 5.8z"/><path class="a" d="m68.9 55.5c0.7 1.3 1.3 5.3-3.2 6.7l-0.9-0.7c4.3-1.2 3.5-5 3.1-6.2z"/><path class="i" d="m37.8 112.8l-0.2-0.2c0 0-1.5 1.1-4.2 0.4-3.1-0.8-2.8-3.5-2.8-3.5-3.5 0.8-5.4 2.2-7.9 4-3.8 2.6-6.5 2.9-9.2 3.8-0.5 0.1-1.4 0.4-2.4 0.9 0.6 0.3 1.4 0.9 0.6 1.7 0 0 8.9 1.7 8.1 5.2 0 0 1.5 0 2.9 0.4 6.1-2.5 11.8-5.7 15.1-12.7z"/><path class="j" d="m19.8 125.1c0.8-3.5-8.1-5.2-8.1-5.2 0.8-0.8 0-1.4-0.6-1.7-3.1 1.4-7.5 4.3-9.7 9.7 0 0-0.5-0.5-0.5-1.5 0 0-1.4 4.9-0.1 8.5 0.5 1.2 0.9 1 2.2 0 1.3-1 4.2-3.6 6.3-4.5 0 0-0.1 2.4 0.4 2.4 0.4 0 6.3-4.5 12.6-7.1q0.2-0.1 0.4-0.2c-1.4-0.4-2.9-0.4-2.9-0.4z"/><path class="k" d="m27.4 114.3c-2 1.4-4.5 2.7-6.8 3.7 3-0.7 5.4-0.8 6.4 0.5 0.8 1.1 0.3 2.4-0.2 3.1q0.4-0.4 0.8-0.6c1.6-1.2 2.9-2.3 4.2-3.1-4.3 0.6-4.5-2.6-4.4-3.6z"/><path class="l" d="m27 118.5c-1-1.3-3.4-1.2-6.4-0.5-1.9 0.8-3.7 1.4-4.8 1.6 1.7 0.1 5.9 0.5 6.9 1.9 0.7 1.1 0.4 2.1 0.1 2.6 1.8-0.8 3-1.8 4-2.5 0.5-0.7 1-2.1 0.2-3.1z"/><path class="j" d="m166.2 134.6c-1.2 1-2.2 1.8-3.4 1.9 0 0-0.6 5.2-1.1 6.2 0 0 1.9-1.5 3.3-4.4 1.4-2.9 1.2-3.7 1.2-3.7z"/><path class="j" d="m162.5 137.2c-1.8 1.9-6.6 1.6-10.2 0.2l-0.9 2.2c0 0 2.6 5.1 2.6 10.8 0 1.4 0.2 2.4 1.6 1.8 1.4-0.6 4.2-4.7 5.2-7.5 1.1-2.7 1.7-7.5 1.7-7.5z"/><path class="j" d="m152.1 137.2c-2.8 0.3-4.8-2.6-6.1-6-0.8 1.7-1.3 2.2-2.2 2.6 0 0 2.2 4.9 2 11.2-0.1 1.6-0.1 2.2 1 1.3 1-0.9 3-3.7 3.9-5.4 0.9-1.7 1.4-3.7 1.4-3.7z"/><path class="j" d="m112.8 168.1c2.3-3.5 6.3-3.7 6.3-3.7 0 0-2.6-3.7-3.9-3.7-1.3 0.1-4.1 0.2-6.1 5.3 0 0 0 0.5 0.8 0.9 0.8 0.5 2.9 1.2 2.9 1.2z"/><path class="j" d="m118.7 164.1c0 0 3.8-1.9 7.3-2.2 0.8-0.1 2.1 0.3 2.5 0.4 0 0-1.6-2.3-2.4-3.3-0.8-1-3.9-2.3-5-2.3-1.2 0-4.2 3.1-5.2 4.1 0 0 2.7 2.9 2.8 3.3z"/><path class="j" d="m128.2 162.1c0 0 2.5 0.3 3.4 0.8 0 0-2.3-3.2-2.7-3.3-0.4-0.1-2-0.5-2.5-0.5 0 0 1.6 2.4 1.8 3z"/><path class="j" d="m45.9 162.9c-1-3.1-2.6-4.1-3.2-4.4 0 0 5.1-3.7 6.2-3.6 1 0.1 4.4 2.9 3.5 6.4 0 0-3.9 1.5-6.5 1.6z"/><path class="j" d="m43.3 158.2c-1.5-1.9-3-2.7-3.1-2.7-0.1 0-0.5-0.2-1.5-0.3 0 0 4.9-3.9 5.8-4.1 0.9-0.2 1.6 0.3 1.8 0.4 0.2 0.1 1.9 2.6 2 3.6 0 0-3.3 1.4-5 3.1z"/><path class="k" d="m51.1 47.5c-0.9 0.4-1.8 1.1-2.7 2.2 0.3 0.8 1.3 3.1 2.2 6.3 0.9-0.9 2-1.6 2.9-2.1-1.2-3.6-2.3-6.2-2.4-6.4z"/><path class="k" d="m56.6 68.3c-0.1-2.2-0.5-4.6-1.1-6.9-0.7 0.3-2.2 1.2-3.4 2.7 0.2 1.9 0.2 3.8 0 5.7z"/><path class="i" d="m55.5 61.4c-0.5-2.7-1.3-5.3-2-7.5-0.9 0.5-2 1.2-2.9 2.1 0.6 2.4 1.2 5.2 1.5 8.1 1.2-1.5 2.7-2.4 3.4-2.7z"/><path class="i" d="m51.1 47.5q-0.1-0.1-0.1-0.1c-4.7-0.9-12-6.6-13.5-8.8 0.8 1.3 3.6 5.4 10.8 10.8q0 0 0.1 0.3c0.9-1.1 1.8-1.8 2.7-2.2z"/><path class="e" d="m37.5 38.6q-0.2-0.5-0.2-0.5 0 0.2 0.2 0.5z"/><path class="k" d="m124.8 52.3c0.8 0.4 2.1 1 2.9 1.6 1.4-4 2.9-6.8 3.2-7.3-1.3-0.1-2.7-0.3-3.6-0.4-0.2 0.4-1.3 2.9-2.5 6.1z"/><path class="k" d="m121.2 68c0 0 3.3-0.7 3.4-1.9q0.3-2.6 0.9-5c-0.9-0.8-2.3-1.3-2.9-1.6-0.8 2.9-1.4 5.9-1.4 8.5z"/><path class="i" d="m122.6 59.5c0.7 0.3 2 0.8 2.9 1.6 0.6-2.6 1.4-5.1 2.2-7.2-0.8-0.6-2.1-1.2-2.9-1.6-0.7 2.2-1.6 4.7-2.2 7.2z"/><path class="i" d="m134.6 42.8c-1.6 1.2-4 3-7.3 3.3q0 0 0 0.1c0.9 0.1 2.3 0.3 3.6 0.4q0-0.1 0-0.1c1.6-0.8 3.7-3.7 3.7-3.7z"/><path class="k" d="m42.3 104c-6.4 4-11.7 5.5-11.7 5.5 0 0 0 3.1 3.4 3.4 3.4 0.2 10.5-3.8 14-6.3q0.1 0 0.2-0.1c-3.7 0-5.3-1.5-5.9-2.5z"/><path class="k" d="m59.1 97.3c1.3-1.4 2.5-3 3.7-4.7l-6-3.1q-1.9 3.1-4.1 5.6c0.7 0.9 2.5 2.5 6.4 2.2z"/><path class="i" d="m59.1 97.3c-3.9 0.3-5.7-1.3-6.4-2.2-3.4 3.8-7 6.7-10.4 8.9 0.6 1 2.2 2.5 5.9 2.5 2.7-1.9 6.9-4.7 10.9-9.2z"/><path class="k" d="m124.3 89.6c-3.8-4.7 1.3-8 1.3-8 0 0-2-2.4-2.8-2.9-0.9-0.4-5.7 1-8 3.1-2.4 2.1-3.7 4.1-1.8 5.1 1.3 0.6 6.6 4.1 11.1 7.7 0.2-1.9 0.7-3.1 1.1-3.9q-0.5-0.5-0.9-1.1z"/><path class="k" d="m134.1 99.8c-0.5 0.8-1.1 1.8-1.5 3.2 2.8 3.6 5.1 7.3 6.2 11q0 0 0 0.2c0.7-1.1 1.5-2 2.1-2.6-1.4-4.7-4-8.5-6.8-11.8z"/><path class="i" d="m143.5 133.8c0 0 1.6-0.3 2.5-2.6-2.6-0.9-3.7-4.5-3.8-6.1-0.1-4.1-0.2-9.6-1.3-13.5q0 0 0 0c-0.6 0.6-1.4 1.5-2.1 2.6 0.1 1.3 0.4 8.5 0.4 10.3 0.1 2-0.3 6.5 4.3 9.3z"/><path class="i" d="m125.3 90.7c-0.5 0.8-1 2-1.2 3.9 2.1 1.6 4 3.3 5.3 4.7q1.7 1.8 3.2 3.7c0.4-1.4 1-2.4 1.5-3.2-3.1-3.6-6.5-6.5-8.8-9.1z"/><path class="i" d="m127.3 150.5c-2.7 0.3-2.5-0.2-2.5-0.2-0.3-0.7-4.6-4.5-4.6-4.5l-5.2 5.9c-4.9 1-8.6 0.4-11.2-0.2 0.1 5.6 0.1 10.8 0.1 11.4 0 1.4 1 2.7 5.2 3.1 0 0 2.6-5.9 6.8-5.2 0 0 3.1-4.2 5.2-4.1 2 0 4.7 1.9 5 2.3 0 0 2.6 0.3 3.1 0.7 0 0-0.8-4.1-1.9-9.2z"/><path class="i" d="m117.3 138.7c3.5-0.6 4.9-2 5.6-3.2q-0.1-0.1-0.1-0.1c-5.7-3.1-8.4 1.2-9.5 1.5-5.2 0.9-10.1-1.1-10.1-1.1 0 0 0.5 1.4 0.5 1.9 2 0.8 6.4 2.1 13.6 1z"/><path class="k" d="m115 151.7l5.2-5.9c0 0 4.3 3.8 4.6 4.5 0 0-0.2 0.5 2.5 0.2-1.2-5.2-2.8-11.3-4.5-15-0.6 1.2-2 2.6-5.5 3.2-7.2 1.1-11.6-0.2-13.6-1q0.1 0.2 0.1 0.3c0 0.2 0 7.1 0 13.5 2.6 0.6 6.3 1.2 11.2 0.2z"/><path class="k" d="m98.9 104.7c-14 7-19.6 0.3-19.6 0.3 0 0 0-5.7-0.2-7.3 0 0 2.6 2.4 3.1 2.3 0.4-0.2 5-6.4 5-6.4l4.9 0.5c0 0 2.8 4.6 3 4.5 0.2 0 3.6-2.2 3.6-2.2 0 0-0.1 4.5 0 6.5 0.2 2 0.2 1.8 0.2 1.8z"/><path class="j" d="m36.9 28.7c-0.9-5.1-6.9-12.8-6.9-12.8 0 0 5.1 3 7.8 11.3z"/><path class="j" d="m45.7 26.2c-5-12.1-14.5-16.5-14.5-16.5 0 0 3.6 4.1 4.1 7.2 0 0 5.5 1.4 8.3 8.6z"/><path class="j" d="m53.2 25.1c-1-2.6-3.7-5.3-3.7-5.3 0 0 1.5 3 2 4.5z"/><path class="j" d="m145.3 18.3c-0.2 1.2-3.4 6.3-6.4 5.3 0 0 1.1 1.8 1.6 1.8 0.4 0 1.3-0.1 2.8-2.4 1.4-2.3 2-4.7 2-4.7z"/><path class="j" d="m131 17.4c-0.6 2.3-2.2 4.3-4.6 2.5 0 0 1.1 1.8 1.2 2.3 0.2 0.5 0.6 1.4 1.2 1 0.5-0.3 2.2-5.8 2.2-5.8z"/><path class="j" d="m140.2 20.5c-0.3 0.7-4 4.3-8.3 1.5 0 0 1.5 2.8 4.6 2.6 3.2-0.1 3.6-4.1 3.7-4.1z"/><path class="j" d="m75.7 40.6c0 0-5.7 4-7.5 4.5 0 0 2 0.5 6-1.3z"/><path class="j" d="m68.6 42.9c-0.8 0.5-4.7 2.5-4.7 2.5 0 0 0.5 0.5 3.8-0.3z"/><path class="j" d="m83.2 39.2c-4.9 3.7-8.9 5.4-8.9 5.4 0 0 0.4 0.6 3.3-0.3 2.1-0.7 4-1.6 5.1-2.1 0.5-1.3 0.6-2.3 0.5-3z"/><path class="i" d="m87.4 35.8q-1.3 1.2-2.6 2.2c0.1 0.5 0.2 1.1 0 1.7l-0.1 0.2c0.6-0.8 1.2-1.7 1.6-2.3 0.9-1.1 1.1-1.8 1.1-1.8z"/><path class="k" d="m84.8 38q-0.8 0.6-1.6 1.2c0.1 0.7 0 1.7-0.5 3 0.5-0.3 0.9-0.5 0.9-0.5 0 0 0.5-0.8 1.1-1.8l0.1-0.2c0.2-0.6 0.1-1.2 0-1.7z"/><path class="j" d="m82.7 44.1c0 0 0.3 0.3 2.8-0.1 1.2-0.2 2.8-0.7 4.4-1.2 0.2-0.8 0.3-1.4 0.3-1.9-3.3 1.4-7.5 3.2-7.5 3.2z"/><path class="k" d="m92.1 40q-0.9 0.4-1.9 0.9c0 0.5-0.1 1.1-0.3 1.9q1.1-0.4 2.2-0.8c0.1-0.8 0.1-1.5 0-2z"/><path class="j" d="m57.4 51.6c0 0 0.1 0.7 1.2 2.6 0.8 1.3 3.3 4.6 6 7.2 1.2-0.2 2.2-0.9 2.7-1.5-6.4-3-9.9-8.3-9.9-8.3z"/><path class="i" d="m73.9 61.8c-2-0.2-3.8-0.7-5.5-1.4-1 1.2-2.1 1.6-2.9 1.7 0.8 0.7 1.7 1.4 2.5 1.8 1.1 0.6 2.4 1 3.6 1.2 1.3-1 2-2.4 2.3-3.3z"/><path class="i" d="m75.2 61.9c-0.6 1.7-1.6 2.7-2.3 3.3 2.3 0.3 4.1 0 4.1 0l0.4-2.5 0.4-0.8q-1.4 0.1-2.6 0z"/><path class="k" d="m68.4 60.4q-0.5-0.2-1.1-0.5c-0.5 0.6-1.5 1.3-2.7 1.5q0.5 0.4 0.9 0.7c0.8-0.1 1.9-0.5 2.9-1.7z"/><path class="k" d="m75.2 61.9q-0.7 0-1.3-0.1c-0.3 0.9-1 2.3-2.3 3.3q0.7 0.1 1.3 0.1c0.7-0.6 1.7-1.6 2.3-3.3z"/><path class="i" d="m93.7 39.3c-0.4 0.2-0.9 0.4-1.6 0.7 0.1 0.5 0.1 1.2 0 2 0 0-2 0.7-2.2 0.8 0 0 0.5 4.2 0 6.2 0 0-0.1 4-1.3 6 3.3-2.6 6.4-6.4 6.4-6.4 0 0 0.6-1.9 0.6-6.2 0.1-3.1-0.3-3.9-1.9-3.1z"/><path class="i" d="m71.7 44.8c0 0.7 0.6 5.7 0.9 5.9 0.4 0.3 1.1 0.8 2.6 0.7 0 0 6.1 3.1 6.4 2.9 0.4-0.1 6.9-3.9 8.2-5.4 0 0 0.5-3.7 0.1-6 0 0-7 1.7-7.2 1.2-0.1-0.4 0.9-2.5 0.9-2.5 0 0-8.6 4.1-9.3 3.2-0.1-0.1-0.1-1-0.1-1z"/><path class="i" d="m75.3 57.7c0.4-0.1 0.8-0.2 1.2-0.2 0 0-1.7-2.8-1.6-6 0 0-2-0.2-2.6-0.9 0 0-0.6 0.4-0.7 1.1-0.1 0.5-0.4 1.6-0.6 2.4 1 0.1 3.5 0.8 4.3 3.6z"/><path class="k" d="m73.2 56.6c0.7 0.8 0.9 1.6 0.9 1.6 0 0 0.5-0.3 1.2-0.5-0.8-2.8-3.3-3.5-4.3-3.6-0.2 0.4-0.3 0.7-0.3 0.8 0 0 1.4 0.3 2.5 1.7z"/><path class="k" d="m76.5 57.5c0 0 5.1-1.2 9.5 0 0 0 2.5-2.4 2.8-2.8 0.4-0.5 0.5-1 0.5-1 0 0-0.6-0.1-4.1 1.7 0 0-1.5-1.3-1.5-2 0 0-1.6 0.8-1.9 0.9-0.3 0.1-1.7-0.5-1.7-0.5 0 0-0.8 1.8-1.7 2.2 0 0-2.7-0.4-2.9-0.9 0 0 0.3 1.5 1 2.4z"/><path class="l" d="m83.7 53.4c0 0 0.4 1 1.5 2 0 0 2.1-1.5 4.1-1.9 0 0 0.6-1.6 0.4-4.3z"/><path class="l" d="m74.9 51.6c0 0 0 3.2 1.1 3.9 1.1 0.8 2.4 0.3 2.4 0.3 0 0 1.3-0.4 1.7-2l-4.8-2.3z"/><path class="m" d="m82.9 65.2c-1.3 0.6-5.5 2-6.4 2.2l-1 3.7z"/><path class="k" d="m79.8 81.8c0 0 0 3.6 2.6 3.4 0 0 0-1.2-0.5-2.3-0.5-1.1-2.1-1.1-2.1-1.1z"/><path class="n" d="m80.3 83.8l-5 3.8c0 0-1.4-3 1.3-5.2 1.5-1.3 3.2-0.6 3.2-0.6 0 0 0 1.1 0.5 2z"/><path class="h" d="m76.7 66.1c-1.1 1.1-7.9 8.9-7.6 9.2 0.2 0.3 6.4-4.2 6.4-4.2z"/><path class="i" d="m103.5 60.4c-0.8 0.3-14.6 2.9-15.3 2.6-0.8-0.3-1.9-1.4-1.9-1.4 10.2 0.7 16.7-6.6 16.6-7.7 0 0 0.6 6 0.6 6.5z"/><path class="i" d="m85.9 61.5c-1.4 0.8-2.5 0-2.5 0 0 0 0.9 1.7 0.8 2.3l4.1-0.4z"/><path class="h" d="m68.7 117.4c-0.2-0.1-1.8-4.7-2.6-6.5-0.1-0.5-0.5-0.7-0.5-0.7l0.1 2.6 1.6 5.2c0.5-0.3 3.1 2 3.1 2 0 0-1.5-2.4-1.7-2.6z"/><path class="h" d="m112.8 115.5c-0.3 0.4-3.7 2.9-3.7 2.9 0 0 1.8 1.3 2.2 2.2 0 0 2.9-4.2 3.4-5.1 0.4-0.9 1.3-6.3 1.3-6.3-0.4 1.3-2.9 5.8-3.2 6.3z"/><path class="h" d="m97.9 125l0.8-3c0 0-2.9 2.7-3.4 3-0.6 0.3-3.7 1.8-3.9 1.6-0.2-0.1 0.1-6.4 0.1-6.9 0-0.5-1.2-7.8-1.2-7.8l-5 1.8c0 0 0.4 12.5 0.7 14.5l-7.9-4.2c-0.5-2.1-2.8-10.7-2.9-10.9-0.2-0.3-1.9-1.2-1.9-1.2l1 5.8c0 0 2.5 6.3 2.4 6.4-0.1 0.2-4-1.9-4-1.9 0 0 2.9 3.2 3.4 4 0.4 0.7 0.6 1.5 0.6 1.5l5.4 2.3-0.1-0.1 3.4 1.6-0.2-0.2 2.5 1.2-1.6-4c0.4 0.5 1.6 4 1.6 4l3.3-2 1.2-0.7 3.1 0.1 1.5 0.2 3-1.3-0.7-3.5 2.5-4.9zm-19.7-0.5q0 0-0.1-0.4l4.1 4.3z"/><path class="k" d="m59.3 136.2q0 0 0 0c-2.7 1.4-11.2 6.2-13.4 0.1 0 0-0.6 4-1 8.2 1 0.7 3.8 2.5 5.6 5.3 0 0 7.8 1.6 16.1-3.1-0.9-4.8-1.8-9.8-1.7-10.1 0 0 0-0.2 0.2-0.6-2.2 0.3-4.3 0.2-5.8 0.2z"/><path class="k" d="m73.6 123.3c-0.9 0.6-4.1 4-7.5 7.2 1.2 0.6 2.6 1.2 4.5 1.7 2.7-2 5.7-4.4 6-4.8 0.4-0.6-3-4.1-3-4.1z"/><path class="i" d="m50.5 149.8c-1.8-2.8-4.6-4.6-5.6-5.3-0.1 2.3-0.2 4.6-0.1 6.3 0 0 2.2 0.1 3.5 4.3 0 0 1-0.7 2.4 1.4 1.4 2.1 1.8 2.7 1.7 4.8 0 0 8.1 0.4 12.6-0.8 4.5-1.3 3.4-3.6 3.3-4.9-0.1-0.6-0.9-4.7-1.7-8.9-8.3 4.7-16.1 3.1-16.1 3.1z"/><path class="i" d="m59.3 136.2c1.5 0 3.6 0.1 5.8-0.2 0.2-0.3 0.7-0.8 1.7-1.3 0.8-0.4 2.3-1.4 3.8-2.5-1.9-0.5-3.3-1.1-4.5-1.7-2.5 2.5-5 4.8-6.8 5.7z"/><path class="h" d="m48.7 79.8l-3.3-0.5c0 0 4 5.7 4.5 6 0.5 0.2 6.8 3.9 6.8 3.9l-2.1-1.8z"/><path class="h" d="m69.8 88.3l-4.2-8.9-5.3-2c0 0 0.1 0.2 0.3 0.5l-0.4-0.8 2.3-3.9-6 1.9c0 0 8.8 14.1 8.7 14.2-0.1 0.1-10.2-1.8-10.2-1.8l2.4 2.2 4.1 2.3 13.7 6.4 1-2.7-5.2-4.1c3.1 2.4 6.8 5.3 6.8 5.3z"/><path class="h" d="m113.1 75.6l-1 9.7-3.6 5.3-5 1.2-0.7 1.4-7.7 1.7c0 0-3.2-4-3.3-4.3-0.1-0.3 0.3-5.9 0.3-7.1 0.1-2.2-0.1-10.9-0.1-10.9l-8.3 0.1c0 0 1.1 9.1 1.4 10.3 0.2 0.9 1.2 5.8 1.7 8.6l-1.1-5c0 0-0.9 7.4-1.2 7.8-0.3 0.4-6.2 2.6-6.2 2.6l3.8 2.7 3-4 0.3 0.3 1.7-2.6q0.1 0.1 0.1 0.1l4.5 0.6c0 0 3 4.2 3.3 4.3 0.2 0 0 0.5 2.2-1 2-1.2 4.9-3.6 5.5-4.1l-0.5 0.8-1.4 0.9-0.2 2.1 5.5-1.1 11-6.5-3.2-2q0 0 0 0c-0.5-0.4-0.9-0.7-1-0.8-0.3-0.6-1.7-1.4 0.8-3.9 2.5-2.5 8.2-5.1 9.7-3.8 1.6 1.3 2.5 2.7 2.5 2.7l1.9-1.8 5.3-5.3 3.8-6.4c0 0-16.4 4.2-23.8 7.4z"/><path class="o" d="m74.9 45.2c-0.8 0-1.1-0.2-0.9-1.2 0.3-1.8 3.1-7.1 5.4-9.7 2.3-2.7 6.7-6.9 9.4-6.4 1.8 0.3 3.3 2.5 3.3 4.2 0 0.2-0.8 0.4-0.8 0.2 0-1.5-1.4-3.4-2.7-3.6-1.6-0.4-4.9 2-8.7 6.4-2.9 3.3-4.9 7.5-5.3 9-0.1 0.4-0.1 0.5 0.3 0.5 0.9-0.1 3.3-0.6 8.7-3.4 0.2-0.1 0.5 0.6 0.3 0.7-4.5 2.3-7.5 3.3-9 3.3z"/><path class="o" d="m67.8 44.5c0.3-1.7 1.6-4.9 4.3-8.6 3.5-4.8 7-7.4 9-7.2 1.9 0.1 2.6 1.4 2.7 1.8 0.1 0.2-0.6 0.4-0.7 0.2 0-0.2-0.6-1.2-2.1-1.3-1.3-0.1-4.3 1.6-8.4 7.1-2.7 3.8-3.9 6.9-4.2 8.1-0.1 0.4-0.1 0.5 0.4 0.4 1.2-0.2 3.5-0.8 5.5-1.6 0.2 0 0 0.8-0.1 0.8-1.6 0.6-4.1 1.3-5.3 1.4-1 0.1-1.4 0.1-1.1-1.1z"/><path class="o" d="m64.3 45.9c-0.9 0-1-0.1-0.8-1.1 0.4-1.5 3.1-6.5 5.3-8.8 2.7-2.9 4.9-4.2 6.9-4.3 0.2 0 0.2 0.8 0 0.8-1.7 0.1-3.8 1.4-6.4 4.2-2.5 2.6-4.5 6.7-5.2 8.3-0.1 0.3-0.1 0.4 0.2 0.3 0.6 0 2-0.3 3.6-0.7 0.2-0.1 0.5 0.7 0.3 0.8-0.6 0.1-2.7 0.5-3.9 0.5z"/><path class="o" d="m82.5 41.9c0.9-1.6 0.6-3.7-0.5-4.9-1.1-1.1-2.8-0.7-3.5-0.4-0.1 0.1-0.3-0.2-0.2-0.3 0.8-0.5 2.8-1 4.1 0.4 1.3 1.3 1.5 3.6 0.5 5.3 0 0.1-0.4 0-0.4-0.1z"/><path class="o" d="m84.6 39.5c0.1-0.8 0.2-2-1-3.5-1.3-1.7-2.9-1.5-3.7-1.1-0.2 0-0.3-0.4-0.2-0.5 0.8-0.3 2.8-0.9 4.4 1.2 1.3 1.7 1 3.2 0.9 4 0 0.1-0.4 0-0.4-0.1z"/><path class="o" d="m89.6 48.9c0.2-1.4 0.2-4.3 0-6.1-0.1-0.2 0.6-0.2 0.6-0.1 0.2 1.9 0.5 3.3 0.1 6.3 0 0.2-0.7 0.1-0.7-0.1z"/><path class="o" d="m89.5 42.7c0.5-1.1 0.5-2.8-0.4-3.8-1-1.1-2.5-0.9-3.2-0.5-0.2 0.1-0.5-0.2-0.3-0.3 0.8-0.5 2.7-0.9 4 0.4 1.1 1.2 0.9 3.1 0.3 4.4 0 0.1-0.5 0-0.4-0.2z"/><path class="o" d="m91.7 42c0.3-1 0.4-2.6-0.8-4.2-1.2-1.5-2.7-1.4-3.7-1-0.1 0-0.2-0.4-0.1-0.5 1-0.3 2.8-0.7 4.2 1.1 1.4 1.8 1.1 3.5 1 4.3z"/><path class="o" d="m76.5 38.7c0-0.7-0.3-1.2-0.8-1.7-1-1.1-2.5-0.9-3.2-0.4-0.1 0.1-0.3-0.4-0.2-0.4 0.9-0.6 2.6-1 3.9 0.4 0.5 0.5 0.7 1.3 0.8 2.1 0 0.1-0.4 0.1-0.5 0z"/><path class="o" d="m78.1 36.6q-0.3-0.4-0.6-0.8c-1.1-1.5-2.6-1.4-3.6-1-0.1 0-0.3-0.5-0.2-0.5 1-0.3 2.9-0.6 4.3 1.2 0.2 0.3 0.3 0.6 0.5 1 0 0.1-0.4 0.2-0.4 0.1z"/><path class="o" d="m70 39.8c-1.1-1.3-2.2-1.2-2.9-0.7-0.2 0.1-0.5-0.2-0.3-0.3 0.7-0.5 2.1-1 3.6 0.6 0.1 0.1-0.3 0.4-0.4 0.4z"/><path class="o" d="m71.3 37.8c-1-0.8-2.2-0.8-3-0.5-0.2 0-0.3-0.3-0.2-0.4 0.8-0.2 2.3-0.5 3.6 0.5 0.1 0.1-0.3 0.5-0.4 0.4z"/><path class="o" d="m103 60.3c-0.4-7.6-2.1-12-4-13-0.2-0.1 0.2-0.9 0.4-0.7 2.8 1.4 4.2 7.1 4.5 13.3 0 0.3-0.8 0.6-0.9 0.4z"/><path class="o" d="m66.5 63.3c-3.8-2.6-8.2-8.6-9.1-10.8-0.6-1.4-0.2-1.7 0.9-1.3 0.4 0.2 1 0.4 2.2 0.9 2.7 1 7 2.8 8.3 3.1 0.4-0.1 1-0.5 1.8-0.8 0.9-1.1 0.5-3.3 1.9-4.2 0.2-0.2 0.4 0.5 0.2 0.7-1 0.8-0.8 2.8-1.6 4q-0.1 0.1-0.2 0.2c-1 0.2-1.7 0.8-1.7 0.8q-0.1 0.1-0.3 0c-1-0.1-8.7-3.2-10.8-4.1-0.4-0.1-0.5 0-0.3 0.4 1.2 2.2 5.5 7.9 9.1 10.3 2.5 1.7 6.2 2.5 9.9 2 0.3 0 0 0.8 0 0.8-3 0.3-7.6-0.2-10.3-2z"/><path class="o" d="m71.6 64.7c1.5-1.1 2.6-3.5 2.4-5.6-0.1-2.5-2.4-3.8-3.5-4-0.1-0.1 0-0.6 0.1-0.5 1 0.2 3.8 1.5 4 4.5 0.1 2.3-1 4.8-2.7 6 0 0-0.4-0.4-0.3-0.4z"/><path class="o" d="m64.7 61.2c3.4-1 3.6-3.6 3-5.7 0-0.1 0.4-0.2 0.5-0.1 1 4.4-1.4 5.7-3.3 6.2 0 0-0.3-0.4-0.2-0.4z"/><path class="o" d="m65.6 62q2.4-0.8 3.2-2.7c0.6-1.4 0.3-3-0.1-3.7-0.1-0.1 0.4-0.3 0.4-0.1 0.4 0.6 0.9 2.3 0.2 4-0.6 1.4-1.8 2.3-3.5 2.9 0 0-0.3-0.4-0.2-0.4z"/><path class="o" d="m72.9 64.7c0.9-0.4 2.6-2.9 2.4-5.5-0.1-2.8-2.2-4.7-4.2-4.8-0.1 0-0.1-0.5 0-0.5 2.9 0.2 4.6 2.8 4.8 5.3 0.1 3-1.8 5.6-2.8 6 0 0-0.3-0.4-0.2-0.5z"/><path class="o" d="m81.4 54.3c-0.7-4.1-0.9-8.9-0.5-11.5 0-0.2 0.6-0.1 0.6 0-0.1 2.4-0.1 7.8 0.5 11.4 0 0.2-0.6 0.3-0.6 0.1z"/><path class="o" d="m75.1 51.4c-0.4-1.6-0.6-4.7-0.4-6.4 0-0.2 0.6-0.2 0.6-0.1-0.2 1.7 0.1 5.2 0.3 6.5 0.1 0.1-0.5 0.2-0.5 0z"/><path class="o" d="m87.5 63.2c-1.3-0.9-2.7-2.5-2.7-3.7 0-1.4 1-2.5 3.1-4.4 1.7-1.6 1.6-4.2 1.6-5.7l0.7-0.5c0.1 1.7 0.2 4.9-1.8 6.8-1.9 1.7-2.8 2.7-2.8 3.8 0 1 1.6 2.9 3 3.4 0.2 0.1-0.8 0.5-1.1 0.3z"/><path class="o" d="m78.3 60.9c-0.1-0.9-0.7-1.6-1.8-3-0.8-1-1.4-2.3-1.4-3.5 0-0.2 0.8 0.9 1 1.2 0.2 0.6 0.5 1.3 1 1.8 0.1 0.3 1.6 1.8 1.7 3.2 0 0.2-0.5 0.5-0.5 0.3z"/><path class="o" d="m84.9 55.5c-1-0.6-1.5-2-1.5-2.1-0.1-0.1 0.3-0.3 0.4-0.2 0 0 0.7 1.3 1.6 1.9 0.1 0-0.4 0.4-0.5 0.4z"/><path class="o" d="m79.2 56.6c-0.2-0.1-0.6-0.4-1.1-0.4-0.5 0-1.6-0.1-2.2-0.5-1.3-1-1.2-3.4-1.1-4.2 0-0.1 0.4 0 0.4 0.2-0.1 0.9 0.2 3 1 3.6 0.5 0.3 1.4 0.4 1.9 0.4 0.5 0 1.2 0.3 1.4 0.8 0.2 0.4 0.1 0.4-0.3 0.1z"/><path class="o" d="m77.9 55.8c1.1-0.2 1.9-1.7 1.9-2 0-0.2 0.5 0 0.5 0.1 0 0.3-0.5 1.6-1.5 2.1-0.2 0.1-1.1-0.2-0.9-0.2z"/><path class="o" d="m83.4 56.3c1.3-0.9 3.6-2.3 5.8-3 0.1-0.1 0.3 0.4 0.2 0.5-2.2 0.7-4.4 1.9-5.8 2.7-0.4 0.3-0.7 0.1-0.2-0.2z"/><path class="o" d="m85.1 60.5c-1.3-1.2-2.5-1.4-3.5-1.5-0.1 0 0-0.4 0.1-0.4 1 0 2.4 0.2 3.7 1.5 0.1 0.1-0.3 0.4-0.3 0.4z"/><path class="o" d="m77.9 109c-0.2-0.4-0.2-0.8 0-1.2 0.9-1.7 1.5-5.9 0.8-10h0.8c0.6 3.1 0.4 7.9-1 10.5 0 0 0 0.1 0 0.3 0.6 0.8 3.7 1.7 10.5 1.6 6.7 0 9.8-0.8 10.7-1.4 0.4-0.2 0.3-0.3 0.2-0.6-1.7-3.1-2.1-8.2-1.7-11.7l0.9-0.4c-0.8 4 0.3 9.8 1.5 11.9q0.3 0.5 0.1 1c-0.8 1.3-5 2-11.7 2-5 0.1-10.2-0.6-11.1-2z"/><path class="o" d="m143.7 134.2c-1.9-1.3-3.1-2.5-3.7-3.9-1.5-3.4-1.2-11-1.4-16.2-3.8-10.1-10.7-17.8-24.9-26.4q-0.5-0.3-0.8-0.5c-0.9-0.5-1.1-1.2-1.1-1.7 0-2.2 3.6-4.8 4.3-5.3 2.9-1.8 6.1-2.5 7.2-1.8 0.8 0.5 20.4 19.5 25.4 30 0.5 0.3 5.6 3.9 8.8 7.1 3 2.9 6.4 6.7 7.3 9.6 0.1 0.2-0.6 0.4-0.7 0.1-0.8-2.6-4.2-6.2-7.1-9-4.4-4.1-8.7-7.1-8.7-7.1q-0.1-0.1-0.2-0.2c-3.8-8.3-24.4-29.3-25.3-29.9-0.5-0.4-3.1 0.2-6.1 2.1-1.5 1-4.2 3-4.2 4.4q0 0.6 0.7 1 0.3 0.2 0.8 0.5c13.4 8 21.4 15.8 25.4 26.9q0 0.1 0 0.1c0 0.1 0.2 6.7 0.4 10.3 0.1 2.5 0.4 4.1 1 5.5 0.5 1.2 1.5 2.6 3.3 3.8 0.2 0.2-0.3 0.7-0.4 0.6z"/><path class="o" d="m109 166.5c-3.3 0-5.1-1.7-5.3-2.4-0.3-0.9-0.3-25.5-0.3-26.2-0.7-2.3-4.6-10.1-4.8-11.4-0.2-1.6 1.7-6.1 5-7.8 3.3-1.7 5.7-1.3 7.4 1 0.6 0.8 3.9 5.7 4.8 6.9 3.5 4.6 7.4 8.2 7.6 8.6 1.5 3.3 5.2 19.1 6 24.7 0.1 0.2-0.7-0.3-0.8-0.5-1-5.7-4.7-21.1-6-23.8-0.4-0.8-5.1-5.2-7.4-8.4-0.9-1.3-4.2-6.2-4.8-7-1.5-2-3.5-2.2-6.4-0.7-3 1.5-4.7 5.6-4.5 6.9 0.2 1.3 4.7 11.1 4.7 11.2 0 0.1 0.1 25.5 0.3 26.3 0.1 0.3 1.1 1.6 4.5 1.9 0.2 0 0.2 0.7 0 0.7z"/><path class="o" d="m52.3 161.7c-0.2 0-0.1-0.9 0.1-0.9 0.3 0 6.4 0.9 12.1-1 3.9-1.3 3.7-2.3 3.2-4.3 0-0.3-3.4-19-2.8-19.9 0.5-0.6 3-2.2 6.8-4.8 1.8-1.3 4.5-3.4 4.6-3.6 0.3-0.9-7.5-8.6-8.7-8.7-0.7 0-17.9 10.9-19.6 13.3-1.3 1.8-3.2 11-2.9 19 0 0.3-0.7 0.3-0.7 0.1-0.3-7.8 1.5-17.4 2.9-19.5 1.2-1.7 17.1-12.4 19.5-13.6 0.8-0.3 1-0.2 1.5 0 1.3 0.7 3.3 2.5 5.1 4.3 2.1 2.1 3.9 4.8 3.7 5.3-0.1 0.3-0.2 0.8-5 4.1-2.7 1.9-6.1 4-6.5 4.6-0.4 0.8 2.9 18.6 3 19.3 0.7 3-0.1 4-3.7 5.2-3.9 1.3-9.1 1.5-12.6 1.1z"/><path class="o" d="m121.4 169.9c-2.7 0-9.8-1.3-12.6-3.4-0.1-0.1-0.2-0.3-0.1-0.4 0.1-0.3 2.4-6.1 6.6-5.8 2.2 0.2 6.2 7.4 6.7 8.7 0.3 0.8 0.1 0.9-0.6 0.9zm-11.9-3.7c3.3 1.9 10 3 11.9 3.1 0.1 0 0.2 0 0.1-0.1-0.9-1.9-4.8-8-6.3-8.2-2.6-0.3-5 3.5-5.8 4.9-0.1 0.2 0 0.3 0.1 0.3z"/><path class="o" d="m129.6 170.2c-1.1 0-5.1-0.7-8.2-2-0.2-0.1-0.5-0.8-0.3-0.8 5.4 2 8.6 2.3 9.3 2.1 0.1-1.1-2.1-8.2-4.7-10.5-1.1-1-3.7-2.1-4.7-2-0.8 0-2.8 1.6-5.1 4-0.2 0.1-0.5-0.3-0.4-0.5 1.6-1.7 4-4.1 5.4-4.2 1.4 0 4 1.1 5.2 2.2 2.8 2.5 5.3 10.3 4.7 11.3q-0.2 0.4-1.2 0.4z"/><path class="o" d="m130.3 168c-0.2-0.1-0.1-0.7 0.1-0.7 0.7 0.1 2.3 0.4 3.1 0.3 0.3 0 0.3-0.1 0.2-0.3-0.6-2.8-4.3-7-4.6-7.3-0.4-0.3-1.6-0.8-2.7-1-0.2 0-0.7-0.5-0.4-0.5 1.5 0 2.9 0.8 3.2 1.1 1.7 1.3 5.7 7.6 4.9 8.3-0.3 0.3-2.2 0.2-3.8 0.1z"/><path class="o" d="m130.3 170c-2.4-6-7.9-12.2-9.5-13.1-0.1-0.1 0.4-0.3 0.5-0.2 1.6 0.9 7 6.9 9.3 13.1 0.1 0.2-0.3 0.3-0.3 0.2z"/><path class="o" d="m103.8 138c-0.2-0.1-0.1-0.6 0.1-0.5 1.3 0.4 4.6 1.7 10.9 1 6.2-0.7 7.4-2.6 7.7-3.2 0.1-0.2 0.5 0.1 0.4 0.3-0.4 0.6-1.5 2.8-8 3.6-7.1 0.8-10.1-0.8-11.1-1.2z"/><path class="o" d="m103.9 151.9c-0.2 0-0.1-0.5 0.1-0.5 1.5 0.4 6.5 1.2 10.8-0.1 0.4-0.1 1.9-2 2.9-3.2 2-2.4 2.2-2.6 2.5-2.6 0.8 0.1 4.4 4 4.9 4.7 0.2 0 0.9 0 1.6-0.1 0.2 0 0.4 0.4 0.2 0.5-0.9 0.3-1.8 0.4-2.1 0-1.1-1.3-4.2-4.4-4.5-4.4-0.3 0-1.3 1.3-2.1 2.2-1.8 2.2-2.6 3.4-3.1 3.6-2.5 0.7-6.6 1-11.2-0.1z"/><path class="o" d="m101.1 131.4c0.8-2.4 2.4-5 6.6-6.8 2.8-1.1 5-0.5 6.4 0.3 0.8 0.4 0.8 1.1 0.5 0.9-1.2-0.8-3.4-1.9-6.6-0.6-4.5 1.9-5.8 4.5-6.6 7.1 0 0.1-0.4-0.6-0.3-0.9z"/><path class="o" d="m52.2 157.4c-0.9-1.5-2.6-3.1-3.6-2.8-5.1 1.4-9.8 7.3-10.3 8.3-0.3 0.5 0.1 0.8 0.9 0.8 3.1 0.1 9.3-0.5 13.2-1.9 0.2-0.1 0.3-0.2 0.5-0.6 0.3-0.9-0.1-2.7-0.7-3.8zm0 3.6c-0.1 0.1-0.2 0.1-0.2 0.1-3.4 1.1-10.3 1.9-12.7 2-0.3 0-0.4 0-0.1-0.3 1.3-1.8 5.9-6.4 9.7-7.6 0.4 0 1.6 1.1 2.5 2.6 0.6 1 1 2.6 0.8 3.2z"/><path class="o" d="m32.8 164.1q-1.1 0-1.6-0.1c-0.5-0.2-0.6-0.4-0.3-0.9 3.6-6.5 12.8-12.4 13.9-12.4 0.6 0 1.3 0.2 1.6 0.4 0.4 0.3 1.7 1.9 2.3 3.8 0 0.2-0.5 0.3-0.6 0.1-0.5-1.6-1.8-3.1-2.2-3.3-0.1-0.2-0.6-0.4-1-0.4-1.1 0.3-10.6 6.7-13.6 12.1 0.9 0.2 4.5-0.2 7.3-0.5 0.2-0.1 0.5 0.7 0.3 0.7-2.6 0.4-4.8 0.5-6.1 0.5z"/><path class="o" d="m31.1 163.4c5.5-6.2 10.4-9.5 14.8-12.2 0.1 0 0.4 0.4 0.3 0.5-4.4 2.6-9.4 5.8-14.8 12-0.1 0-0.4-0.1-0.3-0.3z"/><path class="o" d="m50.8 150.2c-0.3 0-0.5-0.1-0.5-0.3-0.7-1.3-4.4-4.8-5.4-5.1-0.1-0.1 0.1-0.5 0.2-0.4 1.1 0.3 4.5 3.4 5.5 4.9 0.3 0.3 0.3 0.3 0.5 0.3 1.9 0.4 10.2 0.3 15-3.1 0.2-0.1 0.5 0.3 0.4 0.4-6.4 4.5-15.2 3.4-15.7 3.3z"/><path class="o" d="m47.3 132c-0.1-0.1 0.3-0.5 0.4-0.4 0.8 1 5.7 5.6 17.5 4 0.2-0.1 0.3 0.5 0.1 0.5-12.6 2-17.2-3.3-18-4.1z"/><path class="o" d="m69.9 132.3c-8.2-2.3-10.5-8.5-10.5-9.5 0-0.2 0.5-0.2 0.5 0 0.1 0.9 2.2 6.5 10.2 9 0.1 0.1-0.2 0.5-0.2 0.5z"/><path class="o" d="m93.4 103.9c-0.7 0-1.3-0.2-2-0.9-1.2-1.1-2.9-2.3-5.2-2.5-2.3-0.2-4.1 1.5-4.7 2.4-0.4 0.6-0.9 0.4-1.1 0.4-0.7-0.1-1-0.4-1.1-0.4-0.1-0.1 0-0.5 0.2-0.4 0 0 0.3 0.1 0.9 0.2 0.2 0.1 0.4 0.1 0.6-0.2 0.6-1 2.6-2.8 5.2-2.7 2.6 0.1 4.4 1.5 5.7 2.7 0.6 0.7 1.2 0.8 1.7 0.7q2.6-0.3 4.9-1c0.2 0 0.3 0.3 0.1 0.4-1.6 0.6-4.5 1.3-5.2 1.3z"/><path class="o" d="m123.7 94.3c0.2-2.5 1.7-7.4 8.6-6.6 0.2 0.1 0.1 0.6 0 0.6-2.2-0.3-7.1-0.1-8 6 0 0.2-0.6 0.2-0.6 0z"/><path class="o" d="m132.4 102.5c0.7-2.2 1.7-3.8 3.2-4.6 2.3-1.3 4.4-0.4 5.2-0.2l0.1 0.5c-0.8-0.3-3.1-0.7-5 0.3q-2.1 1.2-3 4.6c-0.1 0.1-0.6-0.5-0.5-0.6z"/><path class="o" d="m58.7 97.7c-2.3 0-4.3-0.5-5.6-1.7-1.9-1.8-1.9-4.3-1.9-5 0-0.2 0.6-0.2 0.6-0.1 0 0.5 0.1 2.9 1.8 4.6 1.3 1.2 3.2 1.7 5.7 1.6 0.2 0-0.4 0.6-0.6 0.6z"/><path class="o" d="m47.6 106.8c-3.2-0.1-4.8-1.1-5.5-2.2-1-1.7-0.7-3.8-0.2-4.8 0-0.2 0.6 0.1 0.5 0.2-0.3 0.9-0.6 2.7 0.4 4.1q1.3 2.1 4.8 2.1c0.2 0 0 0.6 0 0.6z"/><path class="o" d="m127.3 54.1c-2.8-2.3-7.3-2.7-9.3-2.5-0.1 0-0.3-0.6-0.1-0.6 2.1-0.2 6.7 0 9.8 2.7 0.1 0.1-0.3 0.5-0.4 0.4z"/><path class="o" d="m125.1 61.2c-3.4-2.3-7.7-2.9-9.7-2.8q0 0 0 0c-0.2 0-0.2-0.6-0.1-0.6 2.1-0.1 6.6 0.2 10.1 2.9 0.1 0.2-0.2 0.5-0.3 0.5z"/><path class="o" d="m50.7 55.5c1.4-1.4 3.2-2.9 7.2-2.8 0.2 0 0.3 0.6 0.2 0.6-3.8-0.1-5.8 1.5-7.2 2.7z"/><path class="o" d="m52.4 63.2c1.1-1.2 3.8-3.8 8.8-3 0.2 0 0.1 0.6-0.1 0.5-4.4-0.6-7.1 1.7-8.6 3.2-0.1 0.2-0.2-0.5-0.1-0.7z"/><path class="o" d="m138.9 113.6c0.7-1.3 3.4-5.8 9.3-5.2 0.1 0 0.5 0.7 0.3 0.7-6.2-0.6-9.1 4.9-9.2 5.1-0.1 0.1-0.5-0.4-0.4-0.6z"/><path class="o" d="m51.9 69.7c0.2-10.8-3.5-18.9-4-19.9-4.3-3-10.1-8.9-11.3-11.6-1.3-3.2 0-9.3 0-9.3-0.3-1.2-1.5-4.3-3.1-7.1-0.5-0.8-2.4-3.8-3.4-5.2-0.7-1-0.6-1.2 0.5-1.2 1.9 0 6.2 1.3 8.9 3.6 2.3 2 4.1 5 4.7 7 1 3.3-1 3-3.1 2.1q-0.5-0.2-1.2-0.5-1.1-0.4-1.6-0.1-0.6 0.3-0.8 1.4v0.4c-0.5 2-1.2 5.9-0.1 8.3 1.2 2.6 6.9 8.7 11.1 11.5q0 0.1 0.1 0.2c1.9 3.9 4.5 12.3 4.1 20.4 0 0.3-0.8 0.3-0.8 0zm-13.1-43.2q0.6 0 1.4 0.3 0.7 0.3 1.3 0.5c2.3 1 2.5 1.1 1.9-1-0.6-1.8-2-4.7-4.3-6.7-2.5-2.1-6.8-3.5-8.5-3.7-0.4 0-0.2 0.1-0.1 0.3 0.8 0.9 2.7 3.3 3.8 5.2 0.9 1.7 1.9 3.7 2.8 6.1q0.3-0.5 0.8-0.8 0.4-0.2 0.9-0.2z"/><path class="o" d="m48.3 49.1c1.5-1.7 4.4-3.8 9-2.8 0.2 0 0.1 0.5 0 0.5-4.3-0.7-7 1.3-8.7 2.7-0.2 0.2-0.4-0.1-0.3-0.4z"/><path class="o" d="m50.5 27.9c-1.4 0-3.2-0.7-5.3-1.5-0.7-0.2-1.3-0.4-1.5-0.4-0.2 0-0.1-0.6 0.1-0.6 0.3 0.1 0.8 0.2 1.5 0.5 1.8 0.6 4.8 1.6 5.9 1.2q0.4-0.1 0.5-0.4c0.3-0.8-0.6-2.8-0.9-3.4-0.8-1.6-4.8-8.8-10-12.3-4.1-2.7-7.7-1.9-8.9-1.3-0.2 0.1-0.1 0.2-0.1 0.3 1.5 1.7 3.6 5.2 3.9 6.7 0.1 0.2-0.7 0.4-0.7 0.2-0.4-1.5-2.8-5.5-3.8-6.8-0.2-0.1-0.2-0.4 0-0.6 0.7-0.7 5.2-2.4 10.2 1 5.4 3.7 9.2 10.5 10 12.3 0.9 1.9 1.2 3.4 0.9 4.1-0.4 0.9-1.2 1-1.8 1z"/><path class="o" d="m51 27.5c-5.6-15-15.2-18.4-15.2-18.4-0.2-0.1 0.1-0.4 0.2-0.3 1.9 0.4 10.5 5 15.4 18.5 0.1 0.2-0.3 0.3-0.4 0.2z"/><path class="o" d="m53.8 25.7c-0.5-0.1-1.3-0.6-2.1-1.3-0.1-0.1 0-0.5 0.2-0.4 0.6 0.4 1.1 0.7 1.5 0.9 1 0.5 1.2 0.3 0.7-0.9-0.3-0.9-1.1-2.4-2.7-4.3-1.9-2.3-3.9-3.9-5.6-4.9-0.5-0.3-1.2-0.9-1-0.8 0.9 0.4 3.9 1.2 7.2 5.3 1.7 2.1 2.9 4.1 3.1 5.3 0.2 1.4-0.9 1.2-1.3 1.1z"/><path class="o" d="m117.5 68.5c-1.8 0-5.4-0.8-6.8-1.8-0.7-0.4-0.9-0.8-0.4-1.4 5.1-5.1 8.9-19.4 9.3-22.1-0.9-5.5-1.3-16.2-1.3-18.1 0.1-2.1 2.8-6.6 3.9-8.2 0.1-0.2 0.8 0.3 0.7 0.5-1.5 2.2-3.6 6-3.6 7.7-0.1 1.9 0.1 12.6 1 18q0 0.1 0 0.1c-0.7 5.3-4.8 17.7-9.2 22.4-0.2 0.2-0.3 0.3 0 0.5 0.9 0.6 3.5 1.4 6.5 1.5 2 0.2 4.6-0.3 5.9-0.7 0.7-0.3 0.6-0.4 0.6-0.9 0.7-6 3.4-14.5 6.6-19.7q0-0.1 0.1-0.2c4.6-3.1 10.7-14 11.1-15.5 0.4-1.4 0.9-4.9 0.7-7.1 0-0.3 0.9-0.3 0.9-0.1 0.1 2.3-0.3 6-0.7 7.6-0.5 1.6-6.8 12.3-11.6 15.7-4.7 8.2-5.9 17-6.2 19.4-0.1 0.8-0.6 1.2-1.2 1.5-1.5 0.7-4 1-6.3 0.9z"/><path class="o" d="m131.1 46.8q0 0 0 0c-4.2-0.1-8.5-1.3-11.4-3.4-0.2-0.1 0.2-0.6 0.4-0.5 1.4 1 6.8 3.1 11 3.3 0.2 0 0.1 0.6 0 0.6z"/><path class="o" d="m128.4 23.7c-0.5 0-0.9-0.5-1.1-1.2-1.2-3.3-3.5-5.1-4.4-5.1-0.1 0-0.8-0.2-0.8-0.4 0.4-0.9 2.2-3.9 3.3-5.4 1-1.4 2.2-2.8 3.8-4.1 2.5-2.1 5.5-2.7 6.7-2.8 1-0.1 1.3 0.2 0.8 1.1q-0.2 0.5-0.8 1.5c-0.9 1.7-2.3 4.3-3.4 7.2-0.7 1.8-1.8 5.8-2.1 6.7-0.3 1-0.8 1.9-1.3 2.2q-0.4 0.3-0.7 0.3zm-5.3-6.9c1.5 0.3 3.7 2.4 4.9 5.7 0.1 0.6 0.5 0.6 0.7 0.5 0.2-0.2 0.6-0.8 1-2 0.8-3.1 1.4-5 2.2-7 1.1-2.9 2.5-5.2 3.4-6.8 0.3-0.4 0.6-1 0.9-1.6 0.3-0.6 0.2-0.5-0.2-0.4-1.3 0.2-4.2 1.1-6.4 3-1.5 1.3-2.6 2.6-3.6 4-1 1.4-2.8 4.5-2.9 4.6z"/><path class="o" d="m136.3 25.2q-0.4 0-0.8 0c-3.5-0.5-4.9-5.3-5.1-6.1 0-0.2 0.5-0.4 0.6-0.2 0.2 1.1 1.8 5.1 4.6 5.5 2.5 0.4 2.9-0.8 3.5-2.4 1.2-3.1 5.6-15.3 8.9-21.2 0.2-0.3 0.1-0.4-0.3-0.3-1.9 0.2-7.4 1.7-10.9 4.7-0.1 0.1-0.8-0.2-0.7-0.4 3.6-3.4 9.5-4.8 11.6-4.8 1.2 0 0.9 0.6 0.7 1.1-2.6 5-8.3 20.4-8.6 21.1-0.4 1.1-0.9 3-3.5 3z"/><path class="o" d="m135.3 24.7c2.8-9.7 7-17.4 12.7-24.4 0.1-0.1 0.4 0.2 0.3 0.3-5.6 6.9-9.8 15.2-12.5 24.3 0 0.1-0.6 0-0.5-0.2z"/><path class="o" d="m139.6 25.1c-0.2-0.4-0.5-0.8-0.9-1.3-0.2-0.2 0.2-0.6 0.4-0.4 0.5 0.5 0.9 1 1.1 1.4 0.4 0.6 0.6 0.4 0.9 0.2 0.7-0.4 1.8-1.9 2.5-3.4 0.1-0.3 0.4-0.9 0.7-1.6 0.6-1.7 1.6-4.1 2.6-6.2 0.9-1.7 2.6-4.2 3.2-5.2 0.3-0.5 0.2-0.4-0.1-0.3-1.6 0.3-4.5 1.5-6.2 3.4-0.1 0.1 0-1.1 0.2-1.3 2.1-1.9 4.9-2.6 6.1-2.7 0.6-0.1 1.1 0 0.6 0.9q-0.2 0.3-0.6 1c-0.5 0.9-1.4 2.5-2.5 4.6-1 2.1-2 4.5-2.6 6.1-0.3 0.8-0.5 1.4-0.7 1.7-0.5 1-1.8 3-2.9 3.7-0.6 0.3-1.2 0.3-1.8-0.6z"/><path class="o" d="m146 147.1c-0.4 0-0.4-0.3-0.5-1.8-0.1-2.5-0.3-7.5-2-11.2-0.1-0.1 0-0.4 0.1-0.5 1.3-0.7 3.2-3.8 3.7-5.7 0.5-1.9 1.1-3.5 2.5-3.4 0.6 0.1 1.4 0.4 2 1.3 0.8 1.2 1.5 3.2 1.4 7.3-0.2 7.9-6.5 13.9-7.1 14q0 0-0.1 0zm-1.8-13.1c1.9 3.7 2.1 8.8 1.9 11.5 0 0.9 0.1 0.9 0.7 0.3 1.8-2 5.5-6.9 5.5-12.7 0-3.3-0.3-5.7-1.1-6.9-0.3-0.5-0.8-1-1.5-1-0.7 0-1.2 1.2-1.7 3-0.5 2.3-2.4 4.9-3.8 5.8z"/><path class="o" d="m153.8 151.6c-0.5-6.2-1.9-10-2.5-11.6-0.1-0.4 0.3-1.3 0.5-0.9 0.6 1.6 2.3 5.8 2.7 12.4 0 0.6 0.4 0.7 1.3-0.1 0.6-0.5 1.4-1.3 2.5-2.9 2.7-3.7 3.5-8.4 4-12 0.7-5-1.2-12-3.3-12.7q-0.5-0.1-1.2 0.3c-2.1 1.1-4.5 5.3-4.8 6.8-0.1 0.2-0.4-0.6-0.3-1.1 0.8-2.3 2.8-5.3 4.8-6.4q0.9-0.5 1.7-0.3c2.4 0.7 4.8 7.4 4 13.5-0.5 3.8-1.5 8.5-4.2 12.3-1.2 1.6-2.1 2.5-2.8 3.1-1 0.8-2.3 1.1-2.5-0.4z"/><path class="o" d="m161.6 142.5c2.2-1.9 4.3-5.8 4.2-10.5 0-3.4-0.7-5.2-1.2-6.1-0.2-0.3-0.3-0.7-0.6 0-0.2 0.7-0.4 1.3-0.7 2.4-0.2 0.7-0.4 1.5-0.5 1.9-0.1 0.2-0.5-0.6-0.4-0.9q0.1-0.4 0.2-0.9c0.6-2.6 1-3.8 1.7-3.8 0.8 0 2.3 2.4 2.4 7.3 0.1 4.7-2.1 9.2-5.2 11.4-0.1 0-0.1-0.6 0.1-0.8z"/><path class="o" d="m155.2 151.9c7.2-11.3 5.5-22.4 3.8-28.3l0.6 0.2c1.6 5.6 3.4 16.9-3.9 28.2-0.1 0.1-0.5 0.1-0.5-0.1z"/><path class="o" d="m0.9 127.5c-0.6-1.5 0.2-5.7 1.8-8.4 2.2-3.8 5.3-5.6 5.4-5.7 0.2-0.1 0.6 0.1 0.6 0.3-0.2 1.2 0.6 3.1 2.6 4.4 0.7 0.5 1.1 0.9 1 1.3 0 0.5-0.5 0.8-1 1q-0.1 0.1-0.2 0.2-0.1 0-0.3 0.1c-1 0.5-3.7 2-6.4 4.9q-0.8 0.8-1.2 1.4c-0.4 0.4-0.7 0.7-0.9 0.9-0.5 0.4-1.1 0.5-1.4-0.4zm7.2-13.4c-1.1 0.9-3.4 3.1-4.8 5.3-1.4 2.5-2.1 6.1-1.9 7.6 0 0.9 0.3 0.7 0.6 0.3q0.3-0.3 0.5-0.6c0.3-0.3 0.8-1 1.4-1.6 2.7-3 5.6-4.5 6.7-5 0.6-0.4 1-0.4 1.1-0.7 0.1-0.2 0-0.4-0.7-0.8-2-1.1-2.8-2.9-2.9-4.5z"/><path class="o" d="m0.7 135.5c-0.2-0.4-0.3-0.8-0.4-1.3-0.6-3.1-0.3-6.5 0.5-9 0.1-0.2 0.4 1.7 0.3 2.1-0.5 2-0.6 4.5-0.1 6.9q0.2 1.1 0.4 1.2c0.2 0.1 0.6 0 1.7-1.1 6.1-5.6 15.7-9.1 15.8-9.1 0.2-0.1 0.7-0.3 0.8-0.7 0.1-0.3-0.1-0.7-0.6-1.3-1.2-1.2-6.2-2.8-7.5-3-0.2 0 0-0.5 0.2-0.5 1.5 0.1 6.3 1.5 7.7 3q1 1.1 0.8 2c-0.1 0.5-0.6 0.9-1.3 1.2-0.1 0-9.7 3.8-15.3 8.8-0.7 0.6-1.2 0.9-1.6 1.1-0.4 0.2-1 0.3-1.4-0.3z"/><path class="o" d="m9.1 132.6c-0.2-0.7-0.1-2.1 0-2.4 0-0.2 0.7 0 0.7 0.2-0.1 0.2-0.2 1-0.2 1.5 0 0.6 0.2 0.4 0.4 0.3 0.3-0.3 0.9-0.6 1.3-0.9 2.2-1.4 6.3-4.2 10.5-5.8-0.5-0.1-1.5-0.1-2-0.1-0.2-0.1-0.1-0.6 0.1-0.6 2.7 0.2 2.8 0.4 2.9 0.7 0 0.1-0.1 0.3-0.3 0.4-4.2 1.7-8.6 4.5-10.9 6-0.8 0.5-1.3 0.8-1.5 1-0.4 0.2-0.8 0.2-1-0.3z"/><path class="o" d="m1.3 135.5c3.8-8.1 14.7-12 17.8-12.7 0.1 0 0.3 0.4 0.1 0.4-0.1 0-13.3 3.5-17.5 12.5 0 0.1-0.4-0.1-0.4-0.2z"/><path class="o" d="m15.6 119.5c1.8-0.3 8.3-2.8 12.3-5.8 0.6-0.5 0.8-0.3 0.3 0.2-3.2 2.8-8.6 5-11.3 5.7-0.4 0.1-1.4-0.1-1.3-0.1z"/><path class="o" d="m22.4 124.4c0.6-0.8 0.6-1.9 0.1-2.7-0.9-1.4-5.1-1.8-6.9-1.9-0.7 0-0.7-0.3 0-0.4 1.2-0.1 6.3 0.2 7.5 2 0.7 1 0.4 2.4-0.5 3.2-0.4 0.4-0.5 0.2-0.2-0.2z"/><path class="o" d="m28.1 117.3c-1-0.9-1-2.2-0.9-3 0-0.1 0.5 0 0.4 0.1 0 0.4 0 1.7 0.8 2.5 0.7 0.7 2.1 0.9 3.5 0.7 0.2-0.1-0.5 0.5-0.7 0.5-0.5 0.1-2 0.2-3.1-0.8z"/><path class="o" d="m23 123.7c1.7-0.8 2.6-1.5 3.5-2.2q0.4-0.4 0.9-0.8 0.9-0.6 1.6-1.2c1.3-0.9 2.4-1.8 3.4-2.2 0.5-0.2 0.7 0 0.3 0.2-1.1 0.6-2.1 1.5-3.4 2.4q-0.7 0.6-1.6 1.3-0.4 0.3-0.9 0.7c-0.9 0.7-2.2 1.7-4 2.5-0.1 0 0.1-0.7 0.2-0.7z"/><path class="o" d="m26.3 121.7c0.5-0.5 1.4-2 0.6-3-0.8-1-3.1-1.2-6.1-0.5-0.2 0 0-0.5 0.2-0.6 3.2-0.7 5.3-0.5 6.2 0.8q0.6 0.7 0.5 1.6c-0.1 0.9-0.7 1.6-0.8 1.8-0.1 0-0.7 0-0.6-0.1z"/><path class="o" d="m134.1 31.2c-3.4-0.9-4.1-4.6-4-5.7 0-0.6 0.4-0.6 0.4 0 0 0.7 0.7 4.3 3.7 5.1 1.6 0.4 2.8-0.1 3.5-0.7 1.2-0.7 1.7-1.6 1.9-2.1 0.2-0.6 0.5-0.5 0.3 0.1-0.1 0.7-0.8 1.8-1.9 2.6-0.6 0.4-2.1 1.2-3.9 0.7z"/><path class="o" d="m127.1 38.8c1-0.9 0.9-2.7 1-4.9q0-0.8 0-1.8c0.1-3.4 1.4-4.9 2.1-5.6 0.1-0.1 0.5 0.2 0.4 0.3-0.6 0.7-1.7 2.2-1.9 5.5q0 0.9 0 1.7c0 2.1-0.1 3.7-0.8 4.7-0.1 0.1-0.9 0.2-0.8 0.1z"/><path class="o" d="m133.5 40.3c-0.2-0.9 0.1-1.8 2-4.3 1.7-2.2 2.7-4.3 2.9-6.4 0.1-0.1 0.6-0.1 0.6 0.1-0.3 2.2-1.2 4.3-2.9 6.6-1.8 2.3-2.3 3.1-2.1 4.4 0 0.1-0.5-0.3-0.5-0.4z"/><path class="o" d="m133.7 41.4c0-0.2-0.1-1.9-2.6-2.5-1.9-0.4-3.6 0-5.6 1.3-0.6 0.3-0.8 0-0.3-0.4 2-1.4 4-2 6.1-1.6 2.8 0.7 2.8 2.9 2.8 3.1 0 0.6-0.3 0.7-0.4 0.1z"/><path class="o" d="m130.7 37c-1.8-1.1-2.5-3.4-2.5-3.9 0-0.2 0.4-0.3 0.5-0.2 0 0.5 0.7 2.6 2.3 3.5 1.2 0.7 3 0.5 4.7-0.5 0.1 0 0.1 0.5 0 0.6-1.1 0.8-3.3 1.5-5 0.5z"/><path class="o" d="m59.6 68.8c-0.1-0.3 0.9-1.2 2.2-1.6 1-0.4 3.1-0.7 3.2-0.5 0.2 0.3-1 1.5-2.6 2-1.3 0.4-2.6 0.4-2.8 0.1zm2.3-1.3c-1 0.3-1.8 0.9-1.7 1.1 0.1 0.1 1.4 0 2.2-0.3 1.6-0.6 2.2-1.2 2.1-1.3 0-0.2-1.1 0-2.6 0.5z"/><path class="o" d="m64.6 72.4c0-0.5 0.5-1 2.6-1.6 1.2-0.3 2-0.4 2.1-0.1 0.1 0.3-0.5 1.2-2.1 1.7-1.2 0.4-2.5 0.5-2.6 0zm2.5-0.4c1.3-0.4 1.9-1 1.8-1.1-0.1-0.1-0.9 0-2.2 0.4-1.2 0.4-1.7 0.9-1.6 1 0 0.2 0.7 0.2 2-0.3z"/><path class="o" d="m102.8 71.3c-1 0-3.6-0.7-3.6-1.9 0-0.3 0.3-1.2 3.3-1.3 0.6-0.1 1.3-0.1 2.1 0 3.9 0.1 5.2 0.8 5.2 1.4-0.1 1-1.7 1.5-3.5 1.6-0.6 0.1-2.6 0.2-3.5 0.2zm0.6-2.7q-0.4 0-0.9 0c-2.3 0.1-2.8 0.6-2.9 0.8 0 0.7 2.1 1.4 3.2 1.4 0.9 0 1.6-0.1 2.9-0.1l0.6-0.1c1.6-0.1 2.9-0.6 2.9-1.1 0-0.4-2.6-0.9-4.7-0.9q-0.5 0-1.1 0z"/><path class="o" d="m78.6 90c-1.9 0-4-1.9-4.2-3.9-0.2-2.5 1.5-4.4 4-4.8 2.9-0.3 4.5 1.4 4.6 4.2 0 2.7-2.4 4.5-4.4 4.5zm0.6-8.1c-2.3 0-4.3 2-4.1 4.2 0.2 1.5 1.8 3.3 3.5 3.3 1.8 0 3.5-1.6 3.5-3.8 0-1.7-0.8-3.7-2.9-3.7z"/><path class="o" d="m81.9 85.5c-0.4 0-1.1-0.3-1.5-0.9-0.6-1-0.8-1.9-0.9-2.9 0-0.1 0.4-0.2 0.4-0.1 0.1 1 0.4 1.8 1 2.7 0.3 0.5 0.8 0.7 1.1 0.7q0.1 0 0.2-0.2c0.1-0.1 0.5 0.1 0.5 0.2-0.1 0.3-0.2 0.5-0.8 0.5z"/><path class="o" d="m75.1 70.7c0.5-0.8 1.2-4.2 1.6-6.1 0.2-1.3 0.3-1.7 0.4-1.9 0 0 2.8-5.4 3.8-5.1 0.6 0.2 2.8 3.4 3 3.7 0.1 0.4 0.5 1.6 0.6 2.3 0.1 0.2-0.4 0.3-0.4 0.1-0.2-0.4-0.7-1.7-0.8-2.1-0.2-0.4-2.3-3.5-2.6-3.5-0.3-0.1-2.8 4.4-3 4.9-0.1 0.1-0.2 0.9-0.4 1.7-0.6 2.8-1.2 5.4-1.6 6-0.1 0.1-0.7 0.2-0.6 0z"/><path class="o" d="m69.1 74.3c0.5-0.7 1.4-2 2.8-3.6 1.8-2.2 4.1-4.5 4.7-5.2 0.2-0.2 0.3 0.7 0.1 0.9-1.1 1.2-5.3 6.2-7.3 8.5 3.8-2.6 13.2-10 14.7-11.6 0.1-0.1 0.8 0.5 0.6 0.6-1 1.1-5.1 4.5-8.4 7-3.6 2.7-5.2 3.7-6.4 4.5-1.3 0.8-2.1 0.5-0.8-1.1z"/><path class="o" d="m105.3 58.9c-0.8-0.2-1.2-0.2-1.9-0.2-0.1 0-0.2 0.6 0 0.6 0.3 0.1 1.2 0.1 1.7 0.1 0.3 0.1 0.3 0.1 0 0.2-7.5 1.9-16.4 3.1-19.6 3.5q-0.8 0.1-1.2 0.1c-0.2 0-0.1 0.9 0.1 0.9q0 0 0 0 0.4-0.1 1.2-0.2c3.3-0.4 12.1-1.5 19.8-3.8 1.4-0.4 1-0.9-0.1-1.2z"/><path class="o" d="m74.5 98.5c-2.5-0.9-13.7-6.5-14.1-6.8-0.5-0.2-10.3-5.9-10.8-6.3-0.9-0.6-5.9-7.9-5.9-8.6 0-0.8 3.6-5.3 3.6-5.3 0.5-0.5 17.1-6.8 20.4-8.2 0.3-0.1 0.6 0.7 0.4 0.8-2.9 1.4-19.7 7.6-20.2 8-0.3 0.4-3.5 4.4-3.5 4.7 0 0.3 4.9 7.3 5.7 7.8 0.5 0.3 4.9 3.5 10.7 6.4 0 0 13.9 7 14.2 6.8 0.1-0.1 0.6-1.4 0.9-2.4 0.1-0.3 0.7 0 0.6 0.2-0.1 0.4-0.4 1.6-0.8 2.5-0.3 0.6-0.5 0.7-1.2 0.4z"/><path class="f" d="m68.1 109.3c0.1 0.3 1.3 0.4 2.4 0.3 1 0 1.7-0.2 1.8-0.5 0-0.3-1.4-0.6-1.9-0.6-0.6 0-2.4 0.4-2.4 0.8"/><path class="o" d="m70.5 109.9c-1.6 0.1-2.7-0.3-2.7-0.6 0-0.3 1-0.7 2.6-0.8 1.3-0.1 2.1 0.3 2.1 0.5 0 0.5-1.2 0.9-2 0.9zm-2.2-0.6c0 0.1 1.2 0.3 2.2 0.2 0.6 0 1.6-0.3 1.6-0.4 0-0.2-1-0.3-1.7-0.3-0.7 0.1-2 0.3-2.1 0.5z"/><path class="o" d="m99.5 110.2c0-0.3 1.1-0.9 3.1-1.1 1.2-0.1 2.6 0 2.7 0.4 0 0.4-0.7 1.1-2.8 1.3-1.9 0.2-2.9-0.2-3-0.6zm0.8 0c0 0.1 1.1 0.2 2.3 0.2 1-0.1 2.1-0.6 2.1-0.8 0-0.1-1-0.2-2.1-0.1-1.4 0.2-2.3 0.5-2.3 0.7z"/><path class="o" d="m125.5 81.2c0.2-0.2 1.3-1.2 2.5-2.3 1.5-1.5 3.3-3.1 3.6-3.4 0.6-0.6 4.3-6 4.9-7.2-0.3-0.2-1.3-0.7-1.9-1.1-0.3-0.2-1.8-1-2.9-1.7-0.5-0.3-0.9-0.6-1-0.7-0.4-0.1-3.7-0.6-5.7-0.8-0.2 0-0.2-0.9 0.1-0.8 1.6 0.1 5.5 0.3 6 0.6 0.1 0 0.5 0.3 1.1 0.7 0.9 0.6 2.5 1.7 2.8 1.9 0.8 0.4 2 1.4 2.1 1.8 0.1 0.2 0.3 0.5-2 4.1-0.3 0.5-2.2 3.5-2.8 4-0.3 0.4-2.1 2-3.6 3.5-1.2 1.1-2.3 2.1-2.5 2.3-0.1 0.1-0.9-0.7-0.7-0.9z"/><path class="o" d="m113.4 61.8c-0.7-0.1-2-0.3-2.3-0.5-0.2-0.1-2.4-1.9-2.6-2-0.3-0.1-2.8-0.6-4.9-0.9-0.3 0-0.2-0.9 0.1-0.8 0 0 4.7 0.6 5.2 0.9 0.2 0.1 2.4 1.9 2.5 2 0.2 0.1 1.2 0.2 2.4 0.4 0.3 0-0.4 0.9-0.4 0.9z"/><path class="o" d="m81.6 100c-1-0.6-12.6-9.4-14.5-10.9-1.8-1.4-7.3-11.9-7.4-12-0.1-0.2 0.5-0.5 0.7-0.3 2.5 4.6 6.5 10.9 7 11.6 1.4 1.4 14.6 11 14.8 11 0.3 0 2.8-3.5 4.6-6.1 0.2-0.1 0.4-0.2 0.5-0.1 0.3 0 2.9 0.3 4.6 0.5q0.2 0 0.3 0.2c1.1 1.7 2.8 4.3 3 4.4 0.2 0 6.3-4.3 6.9-4.8 0.2-0.4 1.1-2 1.6-2.1 0.1 0 3.7-0.9 4.4-1 0.9-0.1 1.1 0.2 0.2 0.5-0.6 0.2-4.2 1.3-4.3 1.3-0.3 0.2-1.1 1.4-1.3 1.7-0.3 0.3-7.2 5-7.6 5-0.3 0-0.4 0-3.4-4.5q-3.4-0.3-4.4-0.5c-2.5 3.5-3.7 5.1-4.3 5.8-0.7 0.7-0.7 0.7-1.4 0.3z"/><path class="o" d="m101 96.7c0.1 0.1 4.4-1.2 4.8-1.4 0.2-0.1 10.1-5.9 10.6-6.2 0.2-0.1 1.3 0.5 1 0.6-0.5 0.3-10.8 6.3-11.1 6.5-0.4 0.2-4.6 1.2-5.1 1.3-0.7 0-0.8 0-0.9-0.6-0.1-0.6 0-1.6 0.1-1.9 0-0.2 0.6-0.3 0.6-0.1 0 0.5-0.1 1.7 0 1.8z"/><path class="o" d="m48.7 80.3c-0.5 0-2.7-0.9-3.3-1.1-0.2-0.1-0.2-0.6 0-0.6 0.6 0.3 2.8 0.9 3.2 0.9 0.7-0.3 7.2-4.7 7.8-4.9 0.5-0.2 4.9-1.4 5.5-1.5 0.6-0.2 1.2-0.2 0.5 0.9-0.6 1.1-1.5 2.2-1.8 2.8 1 0.4 4.2 2.1 4.9 2.4 0.7 0 12.4-3.2 12.5-3.2 0.4-0.2 5.4-3.7 5.5-3.7 0.4-0.2 8-0.3 8.5-0.1 0.2 0.1 4.1 4.3 4.4 4.5 0.4 0 8.5-1 9-1 0.6 0 6.6-0.5 7.2-0.6 0.5-0.1 2.9-0.7 5.4-1.8 2.3-1 11.4-3.9 11.7-3.9 0.3 0 6.7-1.3 6.9-1.4 0.2 0 0.2 0.5 0 0.6-0.4 0.1-6.4 1.5-6.6 1.5 0 0-9.5 3-11.8 4.1-2.4 1-4.8 1.8-5.5 1.9-0.3 0.1-7 0.4-7.4 0.5-0.5 0-8.9 0.8-9.1 0.8-0.2 0-4.2-4.3-4.5-4.5-0.6-0.1-7.1-0.1-7.8 0-0.2 0.1-5.4 3.8-5.6 3.9-0.7 0.3-12.5 3.1-12.8 3-0.1 0-5.5-2.2-5.8-2.6-0.1-0.3 0.1-0.7 2.4-3.6 0 0-5 1.6-5.4 1.8-0.5 0.3-7.8 4.9-8 4.9z"/><path class="o" d="m58.8 90.6c-0.2-0.2-3.9-2.7-4.1-2.9-0.4-0.3-5.3-6-6.3-7.5-0.1-0.1 0.6-0.4 0.7-0.3 1.1 1.6 5.7 7 6 7.3 0.3 0.2 3.8 2.9 4 3 0.1 0.1-0.2 0.4-0.3 0.4z"/><path class="o" d="m68.5 85.9c-0.5-0.7-2.8-5.4-3.2-6.4 0-0.1 0.6-0.3 0.6-0.2 0.4 0.9 2.7 5.9 2.9 6.4 0.2 0.7 0 0.7-0.3 0.2z"/><path class="o" d="m77.4 96.6c-0.5-0.6-6.8-7.1-7.6-8.1-0.4-0.5-0.2-0.7 0.2-0.3 0.6 0.6 7.8 7.8 8.3 8.4 0.1 0.2-0.8 0-0.9 0z"/><path class="o" d="m84.5 80.3c-0.3-1.5-1-6.9-1.1-7.6 0-0.2 0.6-0.3 0.6-0.1 0.1 0.7 0.8 7.1 0.8 7.6 0 0.7-0.2 0.7-0.3 0.1z"/><path class="o" d="m86.8 93.5c0-0.2-1.7-8.5-1.9-10.5-0.1-0.6 0.2-0.6 0.4 0 0.4 1.7 2.1 10.1 2.2 10.4 0 0.2-0.7 0.3-0.7 0.1z"/><path class="o" d="m95.2 88c0.1-0.3 0.7-10.3 0.8-11 0-0.2 0.7-0.2 0.7 0-0.1 0.7-0.9 9.7-1.1 11-0.1 0.7-0.4 0.7-0.4 0z"/><path class="o" d="m94.9 98.4c-0.1-0.2 0.2-6.8 0.3-7.8 0-0.9 0.3-0.9 0.3-0.1 0 1.1 0 7.6 0 7.8 0 0.2-0.6 0.3-0.6 0.1z"/><path class="o" d="m66.9 118.3c0 0-2.3-10-2.2-10.2 0.2-0.2 7.9-1 8-1 0 0 2.7-0.6 2.9-0.6 1.2 0 2.9-0.2 3.1-0.2 0.2-0.1 0.3 0.7 0.1 0.7-0.2 0.1-1.9 0.3-3.2 0.3-0.2 0-2.7 0.5-2.8 0.5 0 0-6.6 0.6-7.5 0.8-0.1 0.5 2.2 9.5 2.3 9.6 0 0.2-0.7 0.3-0.7 0.1z"/><path class="o" d="m111 120.5c0.1-0.2 3.1-5.2 3.1-5.3 0.2-0.5 1.5-5.2 1.7-6.2-0.7-0.5-4.3-1.9-4.7-2-0.1 0-5 0.1-5.2 0-0.1 0-2-0.5-2.2-0.5-0.2 0-3.8-0.3-4.3-0.3-0.3-0.1-0.2-0.7 0-0.7 0.6 0.1 4.2 0.1 4.4 0.1 0.3 0.1 2.1 0.6 2.3 0.6 0.2 0 4.7 0 5.2 0.1 0.6 0.1 5.1 1.6 5.3 2.4 0.2 0.7-1.7 6.7-1.8 6.8-0.4 0.9-2.6 4.5-3.2 5.2-0.1 0.2-0.6 0-0.6-0.2z"/><path class="o" d="m87.7 132.9c-0.3 0-2.2-1-2.9-1.3-0.7-0.4-6.9-2.7-8.4-3.6-0.2-0.1 0.3-0.9 0.5-0.8 1.5 0.9 7.9 3.5 8.3 3.7 0.3 0.1 2.2 1.2 2.5 1.3 0.4-0.1 3.9-2.4 4.1-2.4 0.4-0.1 4.5-0.2 4.7-0.2 0.3 0 2.9-0.9 3.2-1 0.2-0.1 0.4 0.6 0.2 0.7-0.1 0-3 1.1-3.4 1.1-0.2 0-4.1-0.1-4.3 0-0.2 0.1-4.2 2.5-4.5 2.5z"/><path class="o" d="m85.2 113.9c-0.2 0-10-0.5-10.3-0.8-0.3-0.1-1.2-0.7-1.4-0.8-0.3 0-7.1-1-7.4-1.2-0.2 0-1-1.7-1.1-2.5 0-0.2 0.4-0.5 0.4-0.3 0 0.4 0.7 2 0.9 2.4 0.3 0 7 0.8 7.2 0.8 0.4 0 1.5 0.8 1.8 1 0.9 0.1 9.3 0.5 9.8 0.5 0.4 0 4.4-1.4 4.8-1.6 0.3-0.1 10.1 0.8 10.8 0.8 0.6 0 9.6-2.3 9.7-2.3 0.4-0.1 3.5-0.5 3.9-0.5 0.2 0 1.5-0.6 1.7-0.8 0.2-0.1 0.5 0.3 0.3 0.4 0 0-1.5 1.2-2 1.2-0.3 0-3.5 0.3-3.8 0.4-0.1 0-9.5 2.5-9.7 2.5-0.5 0-9.8-1-10.7-1-0.5 0.2-4.3 1.7-4.9 1.8z"/><path class="o" d="m71.1 120.8c-0.3-0.3-2.4-3-2.7-3.3-0.1-0.1-0.4-1.3-2.5-6.6 0-0.2 0.6 0.1 0.6 0.2 1.9 4.7 2.4 6 2.5 6.1 0.3 0.3 2.3 3.1 2.5 3.4 0.1 0.2-0.4 0.3-0.4 0.2z"/><path class="o" d="m84.9 131.4c0-0.1-6.8-6.8-6.9-6.9-0.2-0.3-3.2-11.6-3.2-11.7-0.1-0.1 0.6-0.3 0.6-0.1 0.3 1.2 3 10.8 3.2 11.5 0.4 0.4 6.4 6.7 6.7 7 0.2 0.2-0.3 0.3-0.4 0.2z"/><path class="o" d="m87.6 132.7c0-0.1-0.5-0.9-0.9-1.9-0.7-1.5-0.9-2.3-1-2.4 0-0.2-0.9-14.8-0.9-14.9 0-0.2 0.7-0.2 0.7-0.1 0 1.2 0.8 14.1 0.8 14.9 0.1 0.2 0.5 1.2 0.9 2 0.6 1.6 0.8 2.1 0.8 2.2 0.1 0.1-0.3 0.3-0.4 0.2z"/><path class="o" d="m99.1 120.2c0.1-0.6 1.3-6.6 1.4-7.5 0.1-0.2 0.7-0.1 0.7 0.1-0.1 0.9-1.5 6.5-1.7 7.5-0.2 0.6-0.6 0.6-0.4-0.1z"/><path class="o" d="m95.2 129.7c0.3-0.5 1.4-1.7 1.5-1.9 0.1-0.2 1.4-4.7 1.8-5.8 0.2-0.6 0.5-0.5 0.3 0.1-0.2 0.9-1.4 5.7-1.5 6-0.1 0.1-0.6 0.7-1.5 1.7-0.2 0.2-0.8 0.1-0.6-0.1z"/><path class="o" d="m78.2 53.6c0 0.3 0.2 0.6 0.4 0.6 0.2 0 0.4-0.3 0.4-0.7 0-0.2-0.2-0.7-0.4-0.7-0.2 0-0.4 0.3-0.4 0.8z"/><path class="o" d="m86.7 51.6c0 0.4 0.2 0.7 0.4 0.7 0.3 0 0.4-0.4 0.4-0.7 0-0.5-0.2-0.8-0.4-0.8-0.2 0-0.4 0.3-0.4 0.8z"/><path class="o" d="m98.8 46.9c0.8-12.8-1.6-15.3-3.1-15.6-1.6-0.3-4 0.9-7.3 4.2-2.5 2.5-4.6 6.5-5.2 8.1-0.2 0.3-0.1 0.3 0.2 0.3 1.6-0.1 6.2-1.1 11.2-3.3 0.8-0.3 1 0 0.3 0.5-4.4 2.4-9.5 3.4-11.6 3.4-1 0-1.1-0.2-0.7-1.2 0.7-2.1 3.4-6.5 5.4-8.5 3.5-3.5 5.9-4.7 7.8-4.3 3.1 0.6 4.6 6.1 3.8 16.5 0 0.2-0.8 0.1-0.8-0.1z"/><path class="o" d="m81.1 54.5c-1.5-0.5-4.9-2.3-5.9-2.8-1.1 0.1-2.5-0.3-2.8-0.8-1-1.3-1.1-6.1-1.1-6.2 0-0.1 0.7-0.2 0.7 0 0.1 2 0.6 5.4 0.9 5.8 0.2 0.2 1.3 0.6 2.4 0.6q0.1 0 0.2 0c2.6 1.4 5.7 3 6.2 3 0.7-0.1 6.6-4.3 8.1-5.4q0.1-0.1 0.2-0.1c0.1 0 6 0.5 9-1.9 0.2-0.1 0.6 0.4 0.4 0.5-3 2.4-8.4 2.1-9.3 2.1-0.9 0.6-5.7 4-7.7 5-0.6 0.3-0.7 0.4-1.3 0.2z"/><path class="o" d="m58.8 51.9c-0.7-2.5-1.1-4.5-1-5.4 2.7-12.1 1.2-16.8-2.8-22-0.2-0.2-0.4 0.7-0.3 0.9 1.8 2.3 5.2 7.6 2.2 20.9q0 0.1 0 0.1c0 1.4 0.5 3.1 0.9 5.1z"/><path class="o" d="m60 56.1c1.1 3.2 2.5 6.6 4.1 9.2 0.1 0.2-0.7 0.6-0.7 0.5-2.1-3.6-3.7-7.6-4.8-11.5z"/><path class="o" d="m8 113.5c7.5-8.4 17.7-9.7 23.7-8.6 10.9-4.4 15.7-8.3 21.7-17.4 0.3-0.4 0.8 0 0.6 0.5-1.1 1.8-3.5 5.5-6.9 8.7-4.1 3.8-9.2 6.7-15.4 9.1-0.1 0.1 0 0-0.1 0-0.1 0-12.6-2.7-23 8.1-0.1 0.1-0.7-0.3-0.6-0.4z"/><path class="o" d="m62.5 92.5c-1.5 2-4.5 6.1-11.6 11.3-2.9 2.1-6.3 4.3-10.7 6.8-0.6 0.3-2.8 1.5-4.4 1.9-1.8 0.4-3.2-0.2-3.9-1-2-2.2-0.6-5.4 0-5.9 0.2-0.1-0.3-0.6-0.4-0.5-0.9 0.8-2.4 4.5-0.2 7 0.6 0.7 1.9 1.4 3.5 1.4q1 0 2.2-0.4c-1.3 2.5-5.6 9.4-14.8 12.1-0.2 0 0.2 0.7 0.2 0.7 8.1-2.1 13.8-8.6 15.8-13.3 9.1-4.5 19.4-11.7 25-19.8z"/><path class="o" d="m134.2 30.9q-0.6-0.2-1.1-0.5c-0.1 0.2-0.3 0.4-0.5 0.7-0.2 0.7 0 1.5 0.6 1.8 0.6 0.2 1.4-0.2 1.7-0.9 0.1-0.2 0.1-0.7 0.1-1q-0.4 0-0.8-0.1z"/><path class="o" d="m24 120.2c-0.1-0.6-0.9-0.9-1.6-0.7-0.5 0.1-1 0.4-1.2 1 0.7 0.3 1.2 0.6 1.5 1q0 0.1 0 0.1c0.9-0.3 1.5-0.9 1.3-1.4z"/></svg>