<?xml version="1.0" encoding="UTF-8"?>
<!-- Created with Inkscape (http://www.inkscape.org/) -->
<svg version="1.1" viewBox="0 0 330.99 298.45" xmlns="http://www.w3.org/2000/svg">
 <g transform="translate(28.352 -1.7257)">
  <path d="m29.384 181.57c-21.244 1.9472-39.297 13.368-41.468 23.15-17.63 12.243-17.326 25.717-15.354 35.048 1.6396 7.7694 5.9033 13.209 8.0475 16.307 2.1311 3.0953 2.0523 2.9002 1.6133-0.82167-0.43523-3.7181 0.30015-18.252 7.7563-25.479 4.4738-1.4407 24.592-5.2279 50.521 18.054 9.08 8.1402 20.608 13.17 29.993 12.296 5.4133-0.50276 9.0402-4.831 11.793-8.4313 2.3149-3.0428 3.7444-8.1664 3.7444-13.99 0-8.0343-2.7126-17.405-9.5298-24.539-10.549-29.238-34.069-32.785-47.12-31.594" fill="#0f141b"/>
  <path d="m-10.037 205.98-0.01291-1.4558c1.1256-6.962 19.589-18.782 39.88-20.648 12.534-1.1368 34.863 1.906 44.949 30.112l0.07503 0.1876 0.15005 0.15005c11.595 11.979 10.337 30.257 5.7843 36.2-2.4237 3.1778-6.2871 5.0958-11.158 5.5457-8.8549 0.83293-19.629-2.2361-28.074-10.284-21.032-20.039-44.076-20.833-52.983-17.855-6.9489 7.5312-8.1401 17.855-7.9417 25.4-14.943-17.75-5.1754-40.052 9.3445-47.358" fill="#a7d081"/>
  <path d="m74.992 214.33-0.15005-0.15005-0.07503-0.1876c-9.7414-27.213-30.879-31.012-43.599-30.204 3.9177 2.2624 7.3988 4.5664 7.7826 10.88 13.037 6.3798 14.268 34.824 11.899 57.669 6.274 3.1366 12.932 4.2884 18.755 3.7444 4.8707-0.45024 8.7224-2.3712 11.158-5.5457 4.5533-5.943 5.8106-24.222-5.7839-36.2" fill="#90b571"/>
  <path d="m-10.743 204.8s-6.7238 5.5326-0.30015 1.6396c28.139-17.114 63.135-17.127 82.923 8.656l1.3882-1.3094c-19.774-26.313-57.457-25.598-83.995-8.9873" fill="#0f141b"/>
  <path d="m59.5 153.33c-2.2624 3.6394-2.5663 6.4327-0.91172 8.2988 10.8 9.2121 11.753 25.122 7.6239 34.85-4.6194 10.867-20.688 43.573-8.0741 70.733 5.9828 12.892 28.272 38.847 75.683 31.753 44.076-6.5914 62.831-39.138 60.316-75.762-2.3825-34.704-18.887-57.02-35.843-77.232-13.752-16.399-14.546-29.9-14.731-47.583-0.0129-1.6021-1.0055 0.71286-2.5663 0.30015-11.647-3.1629-70.322 36.676-81.493 54.651" fill="#0f141b"/>
  <path d="m61.12 154.34c11.581-18.65 69.422-54.678 79.23-52.017 0.74288 0.18759 1.058 0.59656 1.0843 1.3619 0.40896 16.201 0.70161 24.764 14.441 41.944 10.496 13.117 32.957 40.237 35.485 77.073 2.859 41.614-19.06 68.443-58.092 74.28-34.533 5.1623-60.74-8.6827-72.877-30.363-13.58-24.235 2.1986-56.544 7.9942-70.587 5.4932-15.698 1.0843-24.963-8.378-35.657-1.0318-1.1631-0.64908-3.1891 1.1106-6.0357" fill="#f0e800"/>
  <path d="m64.646 164.9c-0.30015 0.37519-0.71286 1.1256-0.15005 2.2774l0.11262 0.22512c10.456 18.861 27.12 16.479 23.52 1.7859-0.33766-1.3244-2.7126-2.3562-6.7369-3.5718-5.5723-1.6959-14.745-3.0991-16.757-0.71662" fill="#0f141b"/>
  <path d="m65.899 166.77-0.11262-0.22511c-0.22511-0.4765-0.11262-0.63407-0.03743-0.71287 1.1518-1.3619 8.8549-0.78039 15.248 1.1631 4.2224 1.2832 5.2549 2.3975 5.2947 2.6864 0.1876 1.5608 0.70161 6.3268-1.2569 8.5104-0.72786 0.82167-1.7484 1.2306-3.1103 1.2306-4.4475 0-10.84-2.1986-16.016-12.64" fill="#fff"/>
  <path d="m117.85 146.67c-7.6768 4.1822-18.914 15.168-17.882 18.451 0.74287 2.3975 2.6226 4.5 6.618 5.8237 15.182 5.0163 24.884-0.70159 26.154-12.085 0.54403-4.9765-1.5083-9.4634-4.2355-12.746-1.377-1.6396-4.3413-2.8852-10.655 0.55527" fill="#0f141b"/>
  <path d="m118.53 147.92c3.0165-1.6396 7.0018-3.1254 8.8684-0.88545 2.4875 2.979 3.5868 7.3064 3.0165 11.886-0.50275 4.0502-2.2511 7.703-4.4475 9.3047-4.4869 3.2679-12.72 3.0953-18.199 1.2982-3.508-1.1631-5.85-2.9265-6.4458-4.831-0.54402-1.7334 8.6827-12.124 17.207-16.77" fill="#fff"/>
  <path d="m86.28 169.67c-0.0263-0.30016-1.073-1.4032-5.2943-2.6864-6.3929-1.9472-14.096-2.5288-15.248-1.1518-0.03743 0.075-0.1876 0.22511 0.03743 0.71286l0.11262 0.22511c1.8534 3.7444 3.8648 6.406 5.8766 8.312 5.6252 2.2511 9.6754 2.2511 14.321 0.99426 0.63407-2.3149 0.30015-5.2414 0.1876-6.406" fill="#dcdddd"/>
  <path d="m130.48 155.03c-0.26264-3.0841-1.3094-5.8898-3.0841-8.0077-1.8647-2.2361-5.8503-0.73913-8.868 0.90047-8.524 4.646-17.749 15.036-17.207 16.77 0.59655 1.906 2.9528 3.6656 6.4458 4.8178 0.51778 0.18759 1.073 0.33766 1.6283 0.46148 8.7224-3.3617 15.155-7.6505 21.085-14.943" fill="#dcdddd"/>
  <path d="m99.941 56.638c-32.388 0-65.742 33.103-65.742 67.411 0 31.223 23.454 49.304 47.331 49.304 35.935 0 67.424-36.213 67.304-66.59-0.11262-29.569-17.776-50.124-48.893-50.124" fill="#0f141b"/>
  <path d="m59.015 165.38c-11.595-6.896-18.16-16.77-21.165-29.331-3.2829-13.765-0.67535-30.575 10.046-47.437 17.538-27.597 51.263-38.119 75.193-23.481 10.708 6.552 18.755 15.632 21.575 27.809 3.9575 17.048 2.2511 26.644-8.0737 45.095-14.282 25.532-51.739 42.712-77.576 27.345" fill="#f4b1b1"/>
  <path d="m49.196 134.83c21.257 22.316 59.125 16.068 68.575-3.812 8.1401-17.088 12.614-36.015 28.775-25.969-0.22511-3.7182-0.84794-7.6637-1.8797-12.111-2.8177-12.177-10.867-21.244-21.575-27.809-23.93-14.639-57.656-4.1031-75.193 23.481-9.9666 15.684-12.918 31.316-10.642 44.512 4.0764-2.6076 10.165-0.66034 11.939 1.7071" fill="#d3999b"/>
  <g fill="#0f141b">
   <path d="m55.03 93.167c-7.6768 11.74-10.364 25.678-7.3459 38.252 2.3674 9.821 8.0872 17.763 16.108 22.355 19.205 10.999 45.81 1.9472 60.567-20.595 7.6505-11.687 10.457-25.201 7.7165-37.074-2.2511-9.7017-7.8752-17.472-16.267-22.448-19.06-11.33-46.326-2.5813-60.779 19.51"/>
   <path d="m64.741 152.12c-7.571-4.3282-12.971-11.846-15.195-21.151-2.9002-12.058-0.30015-25.466 7.081-36.756 13.898-21.243 40.012-29.741 58.198-18.927 7.9416 4.712 13.262 12.071 15.393 21.244 0.66034 2.8439 0.97925 5.7975 0.97925 8.7885 0 8.9742-2.9115 18.372-8.4313 26.816-13.977 21.336-39.999 30.31-58.026 19.986"/>
   <path d="m58.429 138.04c-1.9172 1.4145-5.8901 6.406-5.4268 10.324 0.40896 3.4142 2.2511 4.9769 3.493 5.4005 1.891 0.66032 4.5927-0.11262 5.4133-0.95299 0.9117-0.90046-0.01291-4.8711-1.0055-10.126-0.33766-1.7334-0.64908-3.3617-0.74287-4.3545-0.03759-0.42396-0.30015-0.59655-0.43523-0.64908-0.45022-0.22511-0.95297 0.11262-1.2982 0.37519"/>
  </g>
  <path d="m57.028 152.44c-1.4295-0.49151-2.3149-1.9848-2.5926-4.3016-0.0263-0.1876-0.03743-0.39771-0.03743-0.60783 0-2.435 1.5758-5.2812 3.0053-7.0945 0.87419-1.0843 1.5233-1.6021 1.8384-1.7747 0.11262 1.0468 0.40895 2.5663 0.72786 4.2093 0.42397 2.2361 1.1368 5.9693 1.1368 7.7957 0 0.52902-0.03759 0.90045-0.1876 1.0318-0.55527 0.55528-2.3299 1.2832-3.878 0.74287" fill="#fff"/>
  <path d="m106.98 131.71c-0.37519 0.46149 0 1.0318 0.85918 2.3975 1.2194 1.906 2.7802 5.4268 4.1429 10.602 0.33766 1.3094 2.4762 2.9115 4.1293 2.7014 0.91172-0.11262 4.302 0.15005 4.6194-6.3531 0.1876-4.0104-10.681-8.8811-12.137-9.3711-0.66033-0.22513-1.2832-0.3827-1.6133 0.0266" fill="#0f141b"/>
  <path d="m113.59 144.5c-1.4032-5.3206-3.7069-8.9472-4.9368-10.893-0.26264-0.42397-0.48775-0.7954-0.64908-1.0843 0.15005 0.0266 0.30015 0.075 0.30015 0.075 2.5663 0.85918 10.986 5.0167 10.986 7.9683v0.0263c-0.0263 3.0315-1.1931 4.99-3.0841 5.2152-1.1631 0.15005-2.3825-0.46148-2.6076-1.2982" fill="#fff"/>
  <path d="m83.448 53.449-4.7916 1.4407c-21.032-12.495-38.596-7.4783-51.077 13.831-4.4869 7.6636-12.839 20.225-18.848 21.085-6.0091 0.85918-2.859 2.2887 0.57029 3.7181 3.4405 1.4295 6.7898 1.4707 11.171 1.1518 4.5533-0.33766 14.784-1.8797 14.269 9.8608-0.4765 10.642-1.2832 17.855 6.3265 21.31 13.501 6.1017 32.521 21.786 32.521 21.786 1.0318-0.62282 2.3149-1.5608 3.9444-2.7539 5.453-3.9973 13.699-10.02 23.295-12.005 20.251-4.1826 22.991-16.002 21.998-24.473-3.0053-25.81 7.1211-25.095 21.601-23.467 6.9358 0.78038 11.899 1.1781 19.179-2.2887 6.0091-2.859 3.4292-3.1516 0.30016-4.5799-2.5663-1.1631-7.5312-6.8956-10.867-11.33-4.831-6.4327-10.668-13.607-19.708-18.213-15.724-8.0208-29.331-6.1944-49.873 4.924" fill="#0f141b"/>
  <path d="m79.153 55.454 3.1516 0.57029c36.16-21.429 56.16-4.9897 70.428 13.99 2.9903 3.9973 6.0751 7.7034 9.9136 10.258-5.8241 3.2304-12.164 2.5926-18.306 1.906-16.452-1.8384-25.307 0.26262-24.34 14.493 1.2456 18.08 1.1781 30.059-19.55 34.347-10.006 2.0636-18.795 8.4842-24.036 12.323-1.2306 0.90045-2.2774 1.6396-3.1516 2.2249-5.1225-5.7708-19.788-15.168-29.728-20.621-7.0149-3.8517-6.8033-4.09-6.896-20.41-0.07503-11.211-2.3975-13.051-14.48-12.164-3.4818 0.26264-7.0412 0.48775-10.205-0.51776 5.2549-2.6864 14.096-16.889 17.246-22.13 3.1516-5.2283 11.542-19.88 27.756-19.523 12.878 0.30015 18.993 6.8296 22.197 5.2546" fill="#a7d081"/>
  <path d="m66.746 59.869c-7.8224 17.987 0.59656 40.608 3.5868 49.264 6.6578-27.623 23.084-51.607 48.364-56.133 5.7577-1.0318 10.245-1.1781 15.844-0.88545-12.627-8.0077-29.132-9.7816-52.242 3.9177l-3.1516-0.58154c-2.2511 1.1106-5.9561-1.8009-12.455-3.7182 1.8534 1.9585 1.6283 4.5267 0.03759 8.1401" fill="#90b571"/>
  <path d="m191.36 222.7c-1.6546-24.195-11.926-44.194-21.747-58.794 3.403 9.7812 6.2079 22.448 6.2079 30.165 0 39.178-35.83 82.235-80.316 82.235-10.893 0-30.707-8.2726-38.86-18.94 0.75413 3.2416 2.1161 6.3531 3.7444 9.2518 12.137 21.68 38.344 35.525 72.877 30.363 39.033-5.8372 60.951-32.666 58.092-74.28" fill="#cec900"/>
  <path d="m69.42 126.45c1.3357 7.5181 3.1366 10.801 2.3412 5.2414-1.8009-12.614-0.52902-28.576 0.97924-38.926 0.58156-4.0768-0.67535-5.8504-1.8797-0.33768-2.0898 9.609-3.0053 25.214-1.4407 34.016" fill="#0f141b"/>
  <path d="m123.89 6.4457c-42.408 14.811-54.982 56.848-52.745 74.77 0.82167 6.5647 1.9998 9.887 2.9002 4.6058 4.8576-28.735 20.714-56.199 53.831-67.94 41.071-14.572 95.934 0.42397 65.584 108.65-17.577 62.699 5.4534 100.42 48.165 105.16 26.154 2.9115 39.271-14.083 45.241-26.578 2.2512-4.6989 2.9002-7.2532 1.362-8.1004-2.7802-1.5345-8.6302 6.0357-13.051 12.667-4.037 6.062-13.911 11.211-24.937 12.415-23.983 2.6226-62.394-30.085-45.611-90.11 10.787-38.583 18.821-80.924-2.5813-107.69-14.917-18.663-45.425-29.278-78.158-17.855" fill="#0f141b"/>
  <path d="m72.99 75.731c0-4.7784 0.67535-11.013 3.1253-17.935 8.9209-25.294 25.453-41.375 48.576-49.397 31.938-11.091 61.679-1.9322 77.549 20.159 18.491 25.744 9.8341 67.37 0.0129 103.68-16.942 62.606 24.367 94.359 48.192 91.751 11.608-1.2569 22.025-6.8165 26.313-13.249 6.3531-9.5167 9.6356-11.846 10.483-11.992 0.0263 0.075 0.0376 0.15005 0.0376 0.30015 0 0.75413-0.62281 2.0373-2.011 5.1221-7.7694 17.273-24.685 28.272-46.299 25.135-36.518-5.2943-60.356-41.759-44.446-97.826 7.6374-26.935 11.304-49.608 8.9213-73.618-7.4918-75.551-120.53-52.481-130.15 23.467-0.1876-1.5233-0.30015-3.4142-0.30015-5.6117" fill="#bf794e"/>
  <g fill="#babc79">
   <path d="m83.863 199.4c-1.7484 0.3752-2.9903 1.3619-3.6131 2.8852-1.921 4.8043 0.02662 7.7166 2.3562 10.509l0.67535 0.82167c3.1103 3.7988 6.3006 7.4652 8.3784 7.1211 0.42397-0.075 1.0055-0.33767 1.3507-1.2569 1.2832-3.4292 4.6989-12.534-0.11262-17.352-1.8272-1.8384-5.9033-3.3767-9.0267-2.7276"/>
   <path d="m84.027 212.72-0.64908-0.7954c-2.1311-2.555-3.7722-5.0163-2.1161-9.1325 0.47649-1.1781 1.4032-1.921 2.7802-2.1986 2.6601-0.55528 6.2604 0.79541 7.8092 2.3562 1.5758 1.5758 2.1161 3.7331 2.1161 5.9828 0 3.7444-1.497 7.7297-2.2249 9.6886-0.1876 0.4765-0.40896 0.57029-0.55529 0.59656-1.6133 0.26264-5.5063-4.4738-7.1605-6.4987"/>
   <path d="m138.34 174.88c-0.57029 0.18759-0.99426 0.52902-1.2569 1.058-0.37519 0.74288-0.50275 1.5083-0.50275 2.3037 0 1.1781 0.30015 2.4087 0.62281 3.6919 0.37519 1.497 0.7804 3.1629 0.7804 4.9765 0 0.33766-0.0129 0.68659-0.0376 1.0318-0.075 0.62281-0.075 1.2194-0.075 1.7859 0 2.54 0.58155 4.4603 1.7334 5.7179 1.0205 1.1106 2.4613 1.6809 4.3016 1.6809 4.1166 0 8.5769-0.59655 9.5963-7.7034 0.9117-6.4326 0.45022-7.6502-3.8915-10.059l-1.5083-0.84793c-3.5343-2.026-7.5443-4.3016-9.7418-3.6394"/>
   <path d="m140.65 194.27c-1.1518-1.2719-1.6021-3.4405-1.3244-6.4856 0.1876-2.2887-0.30015-4.3016-0.74288-6.0886-0.48775-1.9585-0.91172-3.6544-0.1876-5.0958 0.15005-0.26264 0.33768-0.45023 0.63408-0.54403 1.7221-0.51775 5.7044 1.7596 8.6166 3.4142l1.4557 0.82165c3.6919 2.0523 4.1162 2.6751 3.2566 8.6958-0.78039 5.5063-3.6281 6.5917-8.2726 6.5917-1.497 0-2.6488-0.43522-3.4405-1.3094"/>
  </g>
  <path d="m137.39 176.33" fill="#f0e800"/>
  <path d="m118.79 241.76c-2.8177 4.2355-5.0958 7.6239-2.3037 12.27 2.0373 3.403 5.043 10.218 6.5914 14.083l1.2456 3.0428 0.3752 0.85918c0.75413 1.8534 1.7746 3.5193 3.4668 3.6919 1.5083 0.15005 3.1891-1.2569 5.321-4.4606 2.0523-3.0691 4.5927-5.6515 6.8296-7.9413 3.7069-3.759 7.0814-7.5578 6.4856-11.41-0.7016-4.5664-2.435-5.2414-4.2487-6.6578l-1.921-1.6396c-1.2569-1.2569-2.9903-2.0523-4.5136-2.7539-1.8797-0.85918-3.2942-2.0636-3.7331-3.3617-0.18759-0.6078-0.91171-0.90045-2.2511-1.0843-3.0728-0.40894-9.1723 2.1161-11.33 5.3604" fill="#babc79"/>
  <path d="m128.18 274.03c-1.073-0.11262-1.7859-1.8647-2.4087-3.4292l-0.3752-0.84794-1.1931-2.9265c-1.5233-3.7857-3.8119-9.5036-5.8237-12.865-2.435-4.0502-0.96799-6.8033 1.7334-10.854 1.891-2.859 7.0813-5.7048 9.7418-5.3472 0.64908 0.075 1.0468 0.37517 1.2194 0.84792 0.54402 1.6546 2.3675 2.5025 4.3016 3.388 1.482 0.68661 3.0053 1.3882 4.1162 2.4875l1.9472 1.6696c1.7334 1.3507 2.979 2.3149 3.6018 6.3798 0.50275 3.2679-2.3037 6.128-5.8635 9.7414-2.1986 2.2512-4.6985 4.7916-6.7369 7.8359-2.2512 3.3767-3.5606 3.9973-4.2753 3.9178" fill="#babc79"/>
  <g fill="#92945e">
   <path d="m160.08 269.08c-0.74287 0.30015-1.1106 1.6133-1.4407 3.4292-0.30015 1.6959-0.30015 3.6281-0.70159 4.8441-0.60781 1.921-1.4708 2.7802-0.96426 3.6281 0.22513 0.3827 0.60783 0.63407 1.1518 0.73913 0.66033 0.15005 1.2156 0.3977 1.6959 0.63407 1.0843 0.52902 2.2099 1.073 3.3767-0.85918 0.54403-0.90046 1.1518-1.497 1.7334-2.0636 0.85918-0.83294 1.6658-1.6283 1.9735-3.0953 0.50276-2.54-2.3299-4.9371-2.45-5.0294l-0.075-0.0376-0.075-0.0263c-0.52902-0.22511-1.0468-0.57028-1.5495-0.91171-0.90046-0.62282-1.8384-1.5758-2.6864-1.2306"/>
   <path d="m160.64 281.25c-0.49149-0.22511-1.1106-0.54402-1.8647-0.68661-0.30015-0.075-0.42397-0.18759-0.4765-0.26262-0.26263-0.45023 0.11262-1.6921 0.57029-3.1216 0.3827-1.1894 0.84794-2.6751 1.1518-4.368 0.30015-1.7334 0.71662-2.1311 0.91172-2.2249 0.33768-0.15005 0.96424 0.30015 1.5871 0.72786 0.46148 0.30015 0.99425 0.66034 1.5495 0.91172 0.0374 0.0374 2.0523 1.7484 2.0523 3.493 0 0.15006-0.0129 0.26264-0.0374 0.40897-0.22511 1.1256-0.83291 1.7221-1.6133 2.4762-0.58156 0.5703-1.2456 1.2156-1.8272 2.1836-0.66034 1.1106-0.96799 0.968-1.9998 0.46148"/>
   <path d="m109.81 286.73c-1.1106 1.1106-2.1724 2.1724-2.0636 3.2304 0.0376 0.4615 0.30016 0.8592 0.78039 1.1781 1.4708 0.97926 4.8178 1.4557 6.7636 0.97926l1.2456-0.15005c0.82165-0.0376 1.602-0.11262 1.9322-0.72787 0.30015-0.55529-0.33769-1.5758-1.058-2.8177-0.91171-1.5871-2.011-2.3975-3.8517-2.6338-1.497-0.1876-2.964 0.1876-3.7444 0.95299"/>
   <path d="m108.91 290.25c-0.30015-0.1876-0.30015-0.3752-0.33766-0.42397-0.0376-0.57029 0.92672-1.5495 1.7221-2.3412 0.52902-0.54403 1.6546-0.80667 2.7914-0.64908 0.85918 0.11262 2.4612 0.57029 3.4405 2.3037 0.7016 1.2156 0.58154 1.5083 0.5703 1.5496-0.075 0.15005-0.67535 0.18758-1.0843 0.18758l-1.3619 0.1876c-1.6396 0.40896-4.5267 0-5.7442-0.80665"/>
  </g>
  <g fill="#babc79">
   <path d="m99.62 258.62c-2.9115-2.6226-9.5696-2.6226-12.243-1.1894-1.1106 0.59655-1.5345 1.8384-0.99426 2.4875l0.54403 3.1366c0.07503 3.3204-0.15005 7.4914 2.0373 8.9476 2.8477 1.891 8.2722 2.8852 10.668 2.4087 1.2044-0.22511 2.6751-0.66034 3.2942-1.8534 0.46149-0.85918 0.3827-1.9735-0.22511-3.3767-0.45023-1.0318-0.40896-2.0523-0.37519-3.1253 0.075-2.011 0.37519-4.6591-2.7276-7.4385"/>
   <path d="m89.83 270.42c-1.6959-1.1256-1.7596-4.6325-1.8122-7.452l-0.1876-3.1516c-0.07503-0.54403 0.26264-1.0205 0.95299-1.3882 2.2887-1.2194 7.1872-0.83293 9.6356 1.377 2.6338 2.3712 2.5663 4.156 2.5025 6.0357-0.0376 1.0843-0.075 2.2249 0.43523 3.4142 0.45022 1.058 0.52903 1.8647 0.22511 2.4237-0.30015 0.60782-1.0993 1.0055-2.5138 1.2982-2.0786 0.40894-6.7504-0.87421-9.265-2.5551"/>
   <path d="m65.846 231.68c-0.82167 0.1876-1.1518 1.6959-1.8122 3.5868l-1.5758 4.0239c-1.8122 3.9969 0.1876 5.2148 1.7747 6.1944 0.58154 0.37519 1.1368 0.70161 1.4557 1.1368 0.55527 0.72786 1.1518 0.82166 1.5608 0.75413 1.587-0.22512 2.979-3.0841 3.8517-5.4399 0.22511-0.57029 0.30015-1.1631 0.30015-1.7747 0-2.1986-1.3619-4.6722-4.0633-7.3856-0.33766-0.33768-0.9117-1.2306-1.5083-1.0993"/>
   <path d="m66.498 245.45c-0.42397-0.5703-1.058-0.95299-1.6658-1.3244-1.4707-0.90045-2.7389-1.6808-1.3357-4.7518l1.5496-3.944c0.33766-1.0468 0.80665-2.33 1.0993-2.3975 0 0 0.11262-0.0129 0.51778 0.37518 3.0428 3.0428 4.1826 5.6782 3.388 7.8092-1.2306 3.2679-2.3562 4.5267-2.9528 4.6058-0.07503 0.0129-0.30015 0.0376-0.59656-0.37519"/>
  </g>
  <path d="m67.326 233.04" fill="#f0e800"/>
  <path d="m287.24 198.74c-0.84794 0.15005-4.1297 2.4762-10.483 11.991-4.2884 6.4326-14.705 11.992-26.313 13.263-23.838 2.5926-65.147-29.146-48.205-91.765 5.1221-18.914 9.9137-39.271 10.721-58.079-2.6601-8.9738-5.4797-15.34-10.179-21.151 0.26264 1.5871 0.50277 3.1891 0.67535 4.8707 2.3825 24.01-1.2832 46.683-8.934 73.618-15.896 56.067 7.9413 92.545 44.459 97.826 21.614 3.1366 38.529-7.8621 46.299-25.135 1.3882-3.0728 2.011-4.368 2.011-5.109 0-0.1876-0.0263-0.26262-0.0374-0.33766" fill="#965e3a"/>
  <path d="m190.54 169.3c-15.565 3.1516-24.367 11.608-29.013 18.57-8.3784 12.561-4.9105 22.197-4.9105 22.197-9.609 13.712-9.6356 24.99-6.6311 33.527 5.4399 15.499 30.099 24.698 65.875-9.9801 14.057-13.606 34.956-13.58 47.834-7.5443 0.26264 0.52902 4.7255 6.2342 6.3137 12.111 1.5871 5.8901 0.99426 12.918 0.64908 15.129-0.33767 2.1986-0.33767 2.6751 2.3675 0.76914 2.7014-1.906 7.7694-5.877 7.9548-18.279 0.11261-9.0005-3.7857-18.424-6.7369-22.051-6.8698-46.537-58.662-49.515-83.704-44.446" fill="#0f141b"/>
  <path d="m152.5 243.34c-6.0091-13.699 3.6806-29.953 5.5855-32.177 1.906-2.2249 1.2982-2.1574 1.2982-2.1574l-0.11262-0.37519c-4.1297-15.354 11.674-32.958 31.131-36.955 26.062-5.3604 73.896-3.2942 81.996 42.606l0.0374 0.26262 0.1876 0.1876c2.7276 3.1779 6.4458 14.149 6.4458 22.792 0 1.1518-0.33766 2.1836-0.47649 3.3354-0.58154 5.1622-2.6076 7.0018-5.6781 10.073 0.1876-1.5083 0.30015-2.979 0.30015-4.3282 0-8.0475-2.964-13.514-5.8635-18.821l-2.1836-2.7276c-8.4047-4.2093-34.029-10.218-50.958 6.7369-32.785 32.825-55.141 26.472-61.706 11.515" fill="#a7d081"/>
  <path d="m278.96 235.07c-1.073-1.8947-2.1836-2.7802-3.3767-3.3767-3.7444-1.8797-4.0768-3.0428-8.2328-4.5664v0.67533c2.9002 5.3206 5.8635 10.787 5.8635 18.835 0 0.73912-0.0374 1.5233-0.11262 2.3299-0.0376 0.64908-0.11262 1.3094-0.1876 1.9998 3.0691-3.0728 5.0958-4.924 5.6781-10.086 0.11262-1.1368 0.47651-2.1686 0.47651-3.3354 0-0.18759-0.11262-2.3037-0.11262-2.4763" fill="#90b571"/>
  <path d="m287.54 160.83c2.4875 5.1885 2.011 12.878-7.108 21.985-4.2355 4.2355-7.3192 8.4313-7.4385 15.062-0.15005 6.5651 7.8223 14.679 17.193 12.085 11.925-3.3092 14.255-16.241 11.277-31.118-1.9848-9.9403-7.9285-16.174-10.801-18.557-2.859-2.3825-5.6121-4.646-3.1216 0.54403" fill="#0f141b"/>
  <path d="m289.78 161.46c9.4904 8.5506 15.182 29.834 7.6374 40.925-6.4593 9.5167-21.919 6.8694-22.117-5.2016-0.15005-7.7961 7.9946-13.5 11.767-19.656 3.6919-6.0222 4.6989-10.906 2.7126-16.068" fill="#f0e800"/>
  <path d="m288.06 177.35" fill="#f0e800"/>
  <path d="m230 189.59c12.693 1.377 37.722 13.024 45.478 42.104 0.67535 0.83293 2.1461 2.7014 3.5606 4.5796-0.33768-8.405-3.8251-18.491-6.4195-21.509l-0.15005-0.1876-0.0376-0.26262c-8.1004-45.902-55.935-47.967-81.996-42.607-4.7649 0.97926-9.3051 2.7802-13.395 5.1491 18.848-4.4606 32.309-3.2567 52.983 12.746" fill="#90b571"/>
  <path d="m159.08 207.71c-2.0636 2.0898-6.1813 8.2992-0.51776 2.8214 15.857-15.34 45.876-25.042 69.74-20.556 31.21 5.8635 41.865 21.349 45.518 26.114 3.6544 4.7649 3.9706 3.1779-1.4295-3.9706-5.4136-7.1605-18.398-19.218-43.745-23.798-24.473-4.4205-54.664 4.2355-69.568 19.391" fill="#0f141b"/>
  <path d="m300.12 181.65c-2.3937 12.349-11.78 23.891-22.925 21.813 4.3545 6.3531 15.102 6.4458 20.224-1.0843 3.6544-5.387 4.1958-13.17 2.7014-20.727" fill="#cec900"/>
  <path d="m-24.077 246.04c1.1518 2.4763 2.7014 4.9236 4.6985 7.293-0.1876-7.4914 0.97926-17.723 7.8092-25.254-4.2089 1.2306-9.7415 6.274-10.694 8.8811-0.93798 2.6076-1.8122 9.08-1.8122 9.08" fill="#90b571"/>
  <path d="m265.29 225.23 2.0636 2.5813c2.8965 5.3075 5.8635 10.774 5.8635 18.821 0 1.3507-0.11262 2.8177-0.30015 4.3282 3.0691-3.0728 5.0958-4.9105 5.6782-10.073 0.11262-1.0843 0.47648-2.1461 0.47648-3.1366 0-0.99427-13.778-12.521-13.778-12.521" fill="#90b571"/>
  <g fill="#0f141b">
   <path d="m-24.257 242.32c-0.26264 2.8702 0.49151 7.1076 0.91172 5.8504-0.1876-10.986 5.2812-18.663 14.679-19.444 7.1474-0.59656 3.0841-1.8122-0.99426-1.1931-9.1329 1.3882-13.871 7.3725-14.599 14.784"/>
   <path d="m266.77 227.29c8.127 5.2546 12.601 9.6225 11.635 17.101l0.57027-2.5813c2.1574-8.7089-10.589-15.579-15.116-17.26-4.5398-1.6808 1.7596 1.9998 2.9115 2.7389"/>
   <path d="m82.212 172.65c0.50275 1.362 0.26264 2.6076-0.54403 2.7802-0.80666 0.1876-1.8797-0.80665-2.3825-2.1723-0.50275-1.362 2.4237-1.9735 2.9265-0.60782"/>
   <path d="m120.79 157.84c0.51776 1.6696-0.0376 4.6194-0.85919 4.8313-0.82167 0.22511-1.6958-0.30015-2.2099-1.9848-0.50275-1.6808 2.555-4.5135 3.0691-2.8477"/>
  </g>
  <path d="m124.67 272.01c0.75413 1.8534 1.7859 3.5193 3.4818 3.6919 1.497 0.15005 3.1779-1.2569 5.321-4.4606 2.0373-3.0691 4.5796-5.6515 6.8296-7.9413 2.3562-2.4087 4.6535-4.8807 5.7588-7.2714-1.4032 1.2569-2.8863 2.4791-4.3822 3.646-0.75413 0.83291-1.6021 1.6808-2.4875 2.5963-2.2099 2.2512-4.7195 4.7859-6.7576 7.8302-2.2361 3.3767-3.5531 4.0025-4.2547 3.9234-1.0843-0.11262-1.7859-1.8647-2.4237-3.4292l-0.33768-0.84794-0.0374-0.11262c-0.4765 0.22511-0.9394 0.44639-1.4196 0.64523l0.35548 0.86836z" fill="#92945e"/>
  <path d="m125.41 269.75 0.33766 0.84794c0.63408 1.5608 1.3357 3.3204 2.4237 3.4292 0.70161 0.075 2.3796-0.27886 4.6157-3.6526 2.0373-3.0428 4.5398-5.599 6.7501-7.8359 0.88545-0.91172 1.3798-2.0398 2.134-2.8577-5.0294 3.9309-10.509 7.3061-16.307 9.9666z" fill="#92945e"/>
 </g>
</svg>
