<?xml version="1.0" encoding="UTF-8" standalone="no"?>
<!-- Created with Inkscape (http://www.inkscape.org/) -->

<svg
   version="1.1"
   viewBox="0 0 197.79 186.63"
   id="svg1088"
   sodipodi:docname="1poke.svg"
   inkscape:version="1.2.2 (b0a8486, 2022-12-01)"
   xmlns:inkscape="http://www.inkscape.org/namespaces/inkscape"
   xmlns:sodipodi="http://sodipodi.sourceforge.net/DTD/sodipodi-0.dtd"
   xmlns="http://www.w3.org/2000/svg"
   xmlns:svg="http://www.w3.org/2000/svg">
  <defs
     id="defs1092" />
  <sodipodi:namedview
     id="namedview1090"
     pagecolor="#505050"
     bordercolor="#eeeeee"
     borderopacity="1"
     inkscape:showpageshadow="0"
     inkscape:pageopacity="0"
     inkscape:pagecheckerboard="0"
     inkscape:deskcolor="#505050"
     showgrid="false"
     inkscape:zoom="1.2645341"
     inkscape:cx="73.14947"
     inkscape:cy="83.034534"
     inkscape:window-width="1309"
     inkscape:window-height="430"
     inkscape:window-x="0"
     inkscape:window-y="25"
     inkscape:window-maximized="0"
     inkscape:current-layer="svg1088" />
  <path
     d="m 113.048,64.8997 c -22.174,-3.2317 -46.783,5.6528 -55.991,17.316 -5.5991,-1.2444 -15.968,0 -23.226,2.383 -3.2144,-5.3908 -11.084,-8.1521 -18.456,-3.9381 -7.2583,4.1464 -4.5612,15.759 -1.0362,18.042 -2.6954,4.3546 -6.4287,12.96 -7.0518,17.832 l 48.319,42.72 c 20.855,6.4356 62.772,6.8921 80.459,-5.0801 0.7272,4.2505 4.4605,15.551 6.8435,19.182 l 12.651,-0.2083 c 15.19,-20.685 18.144,-63.145 2.1244,-82.585 -13.423,-16.292 -27.372,-23.486 -44.636,-25.663"
     fill="#f4b3c1"
     id="path962" />
  <path
     d="m 14.455,98.8567 c 1.8207,-1.6262 4.8024,-2.3396 5.3977,1.2253 0.38178,2.2945 -0.22926,8.6103 -2.4507,11.71 -2.4108,0.72725 -7.6922,2.9089 -10.067,4.8996 0.46,-4.7087 3.8287,-12.668 7.1194,-17.835"
     fill="#ffffff"
     id="path964" />
  <path
     d="m 10.572,137.1767 c -8.0602,2.7944 -12.93,-7.4301 -7.5655,-16.209 3.4209,-5.5991 12.675,-9.0998 17.575,-10.266 4.8979,-1.1663 11.238,-1.7755 19.519,3.5007 8.7874,5.5991 19.739,11.295 26.985,13.609 6.9945,2.232 11.143,7.8831 6.998,15.318 -7.9317,14.23 -25.283,20.296 -37.795,20.296 -14.784,0 -24.576,-7.6957 -23.485,-22.551 z"
     fill="#feee96"
     id="path966"
     style="fill:#fff2ad;fill-opacity:1" />
  <path
     d="m 49.122,119.4367 c -5.0836,-7.3434 0.31782,-19.52 10.94,-19.649 7.9213,-0.0974 13.059,9.3827 11.819,16.485 -0.77758,4.4605 -5.0801,9.2282 -11.405,9.0217 -2.6971,-1.2965 -8.8655,-4.5612 -11.354,-5.8576"
     fill="#ffffff"
     id="path968" />
  <path
     d="m 54.799,159.6167 c -10.11,4.1984 -23.486,5.2103 -29.629,2.022 -0.38867,2.3327 -0.77753,7.3868 -0.70117,9.7211 l 9.5545,4.5161 c 7.0882,-1.0171 17.976,-9.4938 20.775,-16.259"
     fill="#f4b3c1"
     id="path970" />
  <path
     d="m 147.168,79.5067 c 22.351,-8.7266 19.416,-33.544 9.6447,-44.55 -13.319,-15.004 -40.906,-23.262 -67.097,-16.716 -4.3754,1.0952 -7.3433,-1.5256 -3.9398,-4.7694 19.649,-18.715 64.335,-17.005 92.904,6.9476 35.616,29.861 11.354,82.585 -11.042,94.717 -0.77758,-9.0217 -7.3451,-26.312 -20.47,-35.63"
     fill="#f4b3c1"
     id="path972" />
  <path
     d="m 120.718,0.7189 c -3.8357,2.7995 -6.8435,9.9537 -2.4888,15.761 -10.162,-1.142 -21.674,-0.32815 -28.825,1.97 -4.7816,1.536 -6.2239,-2.7006 -3.6291,-4.9777 8.5479,-7.5013 18.932,-11.573 34.943,-12.753"
     fill="#ffffff"
     id="path974" />
  <path
     d="m 26.88,136.2067 c -8.1643,6.3089 -7.3104,16.953 3.499,21.23 11.946,1.9456 30.328,-2.7214 33.829,-18.274 -7.4649,2.7214 -20.164,2.7145 -27.607,0.23271 -3.7333,-1.2444 -7.2323,-2.7215 -9.7211,-3.1883"
     fill="#f46899"
     id="path976"
     style="fill:#ed8599;fill-opacity:1" />
  <path
     d="m 12.173,84.4967 c -0.63697,3.8357 1.6436,9.7992 5.1703,10.783 -0.51894,0.46689 -1.9716,2.2303 -2.645,3.2664 -3.9398,-2.1782 -5.2051,-9.8496 -2.5253,-14.05"
     fill="#d49ba8"
     id="path978" />
  <path
     d="m 68.568,150.0267 c 18.337,7.1229 67.578,6.7237 81.171,-11.797 -2.4785,9.0998 -14.477,19.255 -31.095,22.787 -16.591,3.525 -45.207,3.8357 -63.041,-1.7634 4.8718,-2.5149 9.2369,-5.5193 12.965,-9.2265"
     fill="#d49ba8"
     id="path980" />
  <path
     d="m 155.638,173.9167 c -0.0246,-2.3361 -3.0182,-3.6309 -6.394,-3.4868 -3.9033,0.16482 -6.6213,1.9508 -6.5588,3.9225 0.0605,1.9734 3.8408,3.1553 6.7879,2.9279 3.1935,-0.24845 6.1857,-1.5378 6.1649,-3.3636"
     fill="#ffffff"
     id="path982" />
  <path
     d="m 145.288,145.9867 c -1.7634,6.6873 -1.503,19.286 0.25879,25.093 -0.67343,0.31043 -2.2285,1.5013 -2.7475,2.2268 -1.8137,-2.3326 -5.9097,-12.96 -6.5311,-19.336 3.0061,-1.8155 6.998,-5.1339 9.02,-7.9838"
     fill="#d49ba8"
     id="path984" />
  <path
     d="m 99.398,163.4567 c -0.51894,0.83829 -1.7964,2.7544 -2.5965,3.8739 2.4767,-0.27945 7.2288,0.87823 7.3086,3.4747 2.8377,-1.7582 6.2725,-5.9913 7.51,-8.468 -3.4747,0.63869 -8.5878,1.0396 -12.222,1.1194"
     fill="#d49ba8"
     id="path986" />
  <path
     d="m 21.637,173.8267 c 0.24452,-1.569 3.459,-3.2734 6.8452,-2.6416 3.3862,0.63347 5.8403,2.5687 5.5418,4.6879 -0.29666,2.1192 -3.9693,2.265 -6.4721,1.9699 -3.1623,-0.37145 -6.2499,-1.8588 -5.9149,-4.0162"
     fill="#ffffff"
     id="path988" />
  <path
     d="m 28.231,162.8867 c 1.6592,2.2823 2.3847,6.4286 1.9699,8.711 1.2687,0.46492 3.9138,2.1764 3.9138,4.0422 6.2204,-0.62138 18.042,-9.1762 20.763,-16.02 -5.7553,2.4888 -17.523,4.9274 -26.647,3.2664"
     fill="#d49ba8"
     id="path990" />
  <path
     d="m 163.438,100.6767 c 21.773,-13.272 36.854,-39.843 26.326,-67.126 13.031,17.535 8.5132,61.527 -22.202,81.567 -0.32275,-3.7003 -1.871,-9.9346 -4.1238,-14.44"
     fill="#d49ba8"
     id="path992" />
  <path
     d="m 67.551,137.2167 c 2.8933,-2.3136 7.5429,6.1701 1.0153,12.807 -8.8863,9.0356 -22.087,14.097 -35.932,13.322 -12.618,-0.70639 -21.739,-10.065 -19.597,-22.631 0.01968,-0.67514 0.56062,-2.4628 0.93378,-4.3546 0.62305,-0.23271 2.2563,-0.54497 3.1883,-0.62132 -5.521,8.7856 -0.12152,21.31 15.164,22.086 12.267,0.6196 28.152,-3.6552 31.961,-18.665 0.69945,-0.31045 2.4888,-1.3225 3.2664,-1.9439"
     fill="#d2c47c"
     id="path994"
     style="fill:#dcd196;fill-opacity:1" />
  <path
     d="m 7.174,137.5367 c -2.9436,-0.25681 -5.1791,-2.1678 -5.5401,-3.8374 2.4368,1.9196 4.4345,1.5673 9.7975,0.25879 8.5027,-2.0723 15.346,-1.97 22.709,1.4527 7.3607,3.4209 25.454,4.8736 33.412,1.8137 -8.2181,5.5487 -25.947,4.7486 -34.969,0.67343 -4.2731,-1.9282 -12.736,-3.7402 -20.322,-1.1386 -1.963,0.67166 -3.6552,0.9025 -5.0871,0.77753"
     fill="#d2c47c"
     id="path996"
     style="fill:#dcd196;fill-opacity:1" />
  <path
     d="m 8.264,137.5267 c 0.08856,0.9719 2.2719,3.7784 3.0408,3.6118 1.3173,-0.28633 2.8082,-3.1119 2.5635,-4.6931 -1.0813,0.30897 -4.1481,1.2149 -5.6043,1.0813"
     fill="#ffffff"
     id="path998" />
  <path
     d="m 21.385,146.9167 c 5.5991,-6.0139 27.789,-3.4226 34.009,5.2884 3.1102,-2.2823 8.4507,-7.621 8.8898,-13.04 -3.7055,1.5308 -18.113,3.1918 -26.517,0.38866 -4.3546,-1.451 -8.2944,-2.902 -10.577,-3.3167 -3.7333,1.3468 -6.3245,7.4648 -5.8056,10.679"
     fill="#ca567d"
     id="path1000"
     style="fill:#ce7486;fill-opacity:1" />
  <path
     d="m 41.574,140.4567 c 0,1.5517 1.3173,4.5265 2.2372,4.6427 1.0449,0.13185 3.223,-2.2025 3.5285,-3.9953 -1.4614,-0.11267 -4.3303,-0.36603 -5.7657,-0.6474"
     fill="#ffffff"
     id="path1002" />
  <path
     d="m 26.892,136.1767 c -1.9734,-0.51378 -5.8403,-1.2236 -9.5892,-0.39556 -5.9809,10.787 1.5551,20.773 12.944,21.707 -10.025,-3.1571 -11.918,-15.905 -3.3549,-21.312"
     fill="#89260e"
     id="path1004"
     style="fill:#922f00;fill-opacity:1" />
  <path
     d="m 22.215,172.7367 c 0.97019,2.4212 7.6991,2.902 8.1921,-1.0362 2.2528,0.93207 4.3564,3.1206 3.4348,4.6567 -0.65084,1.0882 -2.5896,1.8866 -6.2395,1.503 -4.1654,-0.43393 -6.7341,-2.324 -5.3873,-5.1235"
     id="path1006"
     style="fill:#d3d2d2" />
  <path
     d="m 96.658,167.3967 c 3.2143,-0.31093 7.4128,0.83136 7.5169,3.2664 0.1043,2.4386 -7.1021,4.044 -11.146,1.5048 1.3486,-1.4006 2.5913,-3.2664 3.6292,-4.7712"
     id="path1008"
     style="fill:#d3d2d2" />
  <path
     d="m 143.268,172.8667 c 0.96153,2.9228 10.294,2.3517 12.298,0.37489 0.50856,1.8571 -2.1851,3.801 -6.1354,3.9815 -3.952,0.18056 -8.2337,-1.8224 -6.1631,-4.3564"
     id="path1010"
     style="fill:#d3d2d2" />
  <path
     d="m 27.533,87.2617 c -0.96153,0.63693 -0.65257,1.1351 0.36948,0.60052 6.6769,-3.4955 14.057,-5.2988 23.141,-5.2988 19.305,0 35.146,13.961 41.937,34.617 0.33159,1.0119 0.94067,0.85738 0.68208,-0.17712 -5.5036,-22.034 -23.049,-35.927 -42.597,-35.927 -9.2143,0 -17.498,2.1764 -23.533,6.1857"
     id="path1014"
     style="fill:#0f141b" />
  <path
     d="m 7.837,116.4667 c 1.1108,-7.0257 5.9792,-17.547 11.012,-22.311 0.89039,-0.84174 0.491,-1.3051 -0.45804,-0.53454 -5.6633,4.5976 -10.972,16.627 -11.984,23.896 z"
     id="path1016"
     style="fill:#0f141b" />
  <path
     d="m 13.155,101.0567 c 1.4145,-2.081 3.1901,-3.3098 4.9343,-2.8204 1.8692,0.52589 1.9595,7.864 -1.5134,13.824 l 1.5863,-0.40786 c 2.3552,-4.0665 3.8079,-13.498 0.23615,-14.525 -1.109,-0.3193 -2.5548,0.07479 -3.65,1.1299 z"
     id="path1018"
     style="fill:#0f141b" />
  <path
     d="m 15.767,105.7867 c -0.38375,0 -0.64391,0.40441 -0.67342,0.90249 -0.02952,0.54497 0.19433,1.0327 0.51722,1.0327 0.34734,0 0.66477,-0.39752 0.69773,-0.92512 0.03444,-0.57794 -0.2273,-1.0101 -0.54153,-1.0101"
     id="path1020"
     style="fill:#0f141b" />
  <path
     d="m 61.519,110.5667 c -0.51894,0.0197 -0.85915,0.46689 -0.85915,1.0657 0,0.68553 0.46148,1.0205 0.76543,1.0466 0.48411,0.0393 0.84173,-0.49464 0.84173,-1.0275 0,-0.61266 -0.368,-1.0969 -0.74801,-1.0848"
     id="path1022"
     style="fill:#0f141b" />
  <path
     d="m 12.773,128.0067 c -0.23615,-1.3034 0.84178,-1.5152 1.0657,-0.35571 0.23763,1.2254 0.51545,2.173 0.7515,2.6069 0.2883,0.52932 -0.0492,0.71676 -0.47378,0.43392 -0.59358,-0.39407 -1.1767,-1.7703 -1.3434,-2.685"
     id="path1024"
     style="fill:#0f141b" />
  <path
     d="m 25.65,128.1667 c 0.50679,-0.85914 1.451,-0.1476 0.90771,0.63348 -0.63176,0.90771 -1.6592,1.6193 -2.409,1.9734 -0.52593,0.24993 -0.72725,-0.13726 -0.39556,-0.43392 0.7116,-0.63176 1.3833,-1.3051 1.897,-2.173"
     id="path1026"
     style="fill:#0f141b" />
  <path
     d="m 46.692,141.1667 c -0.2519,1.4978 -2.0654,3.4608 -2.7596,3.3966 -0.61094,-0.0571 -1.8727,-2.4281 -1.6749,-3.9329 l -1.1924,-0.25878 c -0.23418,1.7964 1.3208,4.9829 2.7874,5.1253 1.3278,0.13037 3.9208,-2.7371 4.0353,-4.3095 z"
     id="path1028"
     style="fill:#0f141b" />
  <path
     d="m 12.549,140.0467 c -0.27256,1.2826 -0.3557,3.1779 -0.34537,4.3147 0.08315,10.396 7.2097,19.8 23.269,19.8 15.381,0 29.28,-6.9198 37.833,-18.493 5.3543,-7.241 3.9364,-15.49 -6.4183,-18.522 -5.7449,-1.6801 -18.066,-8.2598 -26.017,-13.451 -5.3196,-3.4712 -11.984,-5.6563 -19.434,-3.9242 -10.45,2.4316 -18.45,7.6037 -20.607,14.386 -2.9853,9.3792 2.4541,15.785 10.342,13.532 7.5551,-2.1591 12.979,-2.5409 22.028,1.0778 11.181,4.4744 28.44,3.8982 34.643,-1.1993 0.79318,-0.65262 0.40785,-1.1368 -0.43737,-0.55368 -6.1527,4.2523 -22.75,5.0246 -33.81,0.60051 -9.2369,-3.6951 -15.003,-3.1917 -22.71,-0.98927 -7.1941,2.055 -11.203,-4.2366 -8.6833,-12.158 1.9369,-6.085 8.9349,-10.773 19.571,-13.246 6.8591,-1.595 13.385,0.37833 18.326,3.6049 6.9406,4.5299 20.051,11.679 26.385,13.533 9.9485,2.9124 10.186,10.573 5.8108,16.493 -8.4194,11.391 -21.629,17.877 -36.783,17.877 -15.438,0 -21.732,-9.0582 -21.988,-18.366 -0.03444,-1.2722 0.19089,-4.8996 0.5797,-6.689 z"
     id="path1030"
     style="fill:#0f141b" />
  <path
     d="m 50.372,119.8767 c -6.118,-7.2063 -0.54669,-19.362 9.6361,-19.362 6.6543,0 11.354,6.8435 11.356,14.185 0,6.9355 -7.3486,10.688 -11.899,9.8444 l 1.8154,1.2965 c 4.523,0.18941 11.441,-3.9763 11.495,-11.12 0.06396,-8.5288 -5.4411,-15.634 -12.767,-15.634 -11.118,0 -16.78,12.732 -11.764,19.866 z"
     id="path1032"
     style="fill:#0f141b" />
  <path
     d="m 63.59,139.4367 c -2.593,11.344 -15.464,18.708 -30.469,17.681 -19.432,-1.3347 -19.661,-15.766 -14.768,-21.452 l -1.4006,0.15448 c -4.5612,5.8872 -3.9433,21.218 16.072,22.591 15.419,1.057 29.318,-6.8817 31.944,-19.484 z"
     id="path1034"
     style="fill:#0f141b" />
  <path
     d="m 26.432,136.0567 c -7.0917,3.9294 -9.1953,16.719 2.9818,21.371 l 3.1432,0.21352 c -14.353,-4.4206 -12.132,-17.386 -4.6184,-21.138 z"
     id="path1036"
     style="fill:#0f141b" />
  <path
     d="m 22.253,174.1567 c 0.09544,-1.6054 2.4715,-2.8637 5.6772,-2.4489 3.3497,0.43196 5.7882,2.3812 5.6372,4.044 -0.08511,0.94761 -2.6121,1.9699 -6.3367,1.4388 -2.9523,-0.42163 -5.061,-1.5985 -4.9777,-3.0339 m -1.2826,-0.0393 c -0.14071,2.383 3.5684,3.9642 6.1215,4.3286 3.2004,0.45656 7.3572,-0.28486 7.5637,-2.5791 0.23418,-2.5635 -2.7596,-4.7434 -6.6873,-5.2502 -3.8982,-0.50159 -6.8678,1.2843 -6.998,3.5007"
     id="path1038"
     style="fill:#0f141b" />
  <path
     d="m 24.73,161.5067 c -0.67692,2.7145 -1.116,7.3555 -0.67515,10.053 l 1.0361,-0.29175 c -0.18056,-2.6329 0.15645,-6.6752 0.88345,-9.3445 z"
     id="path1040"
     style="fill:#0f141b" />
  <path
     d="m 33.96,176.5367 c 7.9577,-1.5291 18.403,-9.6187 22.212,-17.511 l -1.7616,0.49101 c -4.0301,7.4579 -13.973,14.487 -20.348,15.761 z"
     id="path1042"
     style="fill:#0f141b" />
  <path
     d="m 54.565,159.7367 c 20.197,5.8906 50.357,6.2794 67.491,1.2635 15.544,-4.549 25.102,-12.526 28.136,-22.771 0.31585,-1.0691 -0.22581,-1.234 -0.67342,-0.21156 -4.2279,9.6274 -12.616,16.802 -27.919,21.282 -16.933,4.9569 -45.483,4.8666 -65.595,-0.49641 z"
     id="path1044"
     style="fill:#0f141b" />
  <path
     d="m 92.698,172.6167 c 3.8652,2.6989 12.38,1.0813 12.038,-2.1712 -0.21351,-2.0203 -3.7993,-3.9659 -7.6922,-3.499 l -0.69945,1.0257 c 3.6448,-0.6196 7.0744,0.94938 7.2427,2.5479 0.21893,2.0775 -7.1611,3.2907 -10.264,1.1212 z"
     id="path1046"
     style="fill:#0f141b" />
  <path
     d="m 111.128,162.3167 c -2.022,3.2144 -4.4588,5.8056 -6.9476,7.7235 l -0.2514,1.7304 c 3.1032,-2.1956 6.6283,-6.033 8.7544,-9.532 z"
     id="path1048"
     style="fill:#0f141b" />
  <path
     d="m 155.068,173.7767 c -0.18203,1.7234 -3.3654,2.8377 -6.1614,2.8377 -2.777,0 -5.6303,-0.80189 -5.6303,-2.5722 0,-1.2323 2.2459,-3.1675 6.0729,-3.1675 3.9103,0 5.8698,1.4562 5.7188,2.902 m 1.1958,0.13383 c 0.21155,-1.9942 -2.2615,-4.0336 -6.9372,-4.0336 -4.1638,0 -7.3816,2.3952 -7.3816,4.1655 0,2.4576 3.4851,3.8999 6.8938,3.8999 3.2768,0 7.1593,-1.51 7.4249,-4.0318"
     id="path1050"
     style="fill:#0f141b" />
  <path
     d="m 135.598,154.3667 c 0.76021,6.1059 4.6289,16.356 6.9216,19.635 l 0.74805,-1.1333 c -2.2268,-3.1883 -5.7136,-13.319 -6.3871,-19.201 z"
     id="path1052"
     style="fill:#0f141b" />
  <path
     d="m 155.658,174.3967 c 13.687,-19.442 20.282,-60.173 3.8132,-83.057 -26.367,-36.639 -79.711,-34.523 -103.89,-9.2369 l 1.8189,0.47919 c 23.599,-23.585 74.635,-26.277 100.54,9.7176 16.185,22.488 9.6188,61.328 -2.5132,80.308 z"
     id="path1054"
     style="fill:#0f141b" />
  <path
     d="m 167.788,116.2267 c 17.46,-10.233 30.484,-36.496 29.986,-58.068 -0.50507,-21.942 -14.025,-39.83 -38.062,-50.565 -26.194,-11.698 -56.917,-9.7194 -73.836,4.8441 -3.971,3.4191 -2.1122,8.2788 3.4226,6.7394 30.743,-8.5548 72.094,6.0138 73.918,33.836 0.84523,12.885 -7.8067,22.986 -16.726,25.697 l 1.3434,1.4266 c 9.9433,-2.8308 18.213,-14.114 17.353,-27.223 -2.0064,-30.613 -45.768,-43.536 -76.302,-35.137 -3.6622,1.0084 -5.0958,-1.6349 -1.996,-4.2505 17.445,-14.723 45.751,-16.124 72.048,-4.4171 23.236,10.344 36.441,27.94 36.863,49.06 0.41475,20.85 -12.364,46.094 -28.48,55.961 z"
     id="path1056"
     style="fill:#0f141b" />
  <path
     d="m 13.349,136.5967 c 0.15645,1.4388 -1.2722,3.9537 -1.9665,4.0179 -0.69424,0.0644 -2.3534,-1.8831 -2.4264,-3.1241 l -1.2843,0.0782 c 0.08315,1.3781 2.468,4.188 3.7506,4.0474 1.3329,-0.14562 3.4018,-3.5701 3.1328,-5.33 z"
     id="path1058"
     style="fill:#0f141b" />
  <path
     d="m 14.901,98.1767 c -5.0732,-3.9537 -4.6306,-13.316 1.0604,-16.832 4.9499,-3.0564 12.528,-3.1692 17.219,3.5962 l 1.3989,-0.57104 c -5.2867,-7.3867 -13.815,-7.595 -19.309,-4.2349 -6.3992,3.9155 -7.0535,14.734 -1.0397,19.088 z"
     id="path1060"
     style="fill:#0f141b" />
  <path
     d="m 68.33,92.8947 c 0.30552,3.9607 7.076,4.044 7.8536,1.7113 -0.62138,4.4328 2.7231,9.1762 8.8654,8.9418 6.1441,-0.2327 10.264,-4.976 10.11,-10.575 -0.15645,-5.5991 -3.8096,-13.687 -11.976,-14.076 -9.4469,-0.44967 -15.587,4.4466 -14.853,13.998"
     fill="#f4b3c1"
     id="path1064" />
  <path
     d="m 105.868,148.0567 c 0.60052,-4.5438 -23.741,-11.839 -28.584,-5.3596 -6.0087,8.0393 -11.856,21.844 -9.6639,38.003 l 12.019,2.7613 c 8.2007,-3.492 24.441,-21.926 26.228,-35.405"
     fill="#f4b3c1"
     id="path1066" />
  <path
     d="m 65.789,183.2867 c 0,-2.2771 3.2664,-3.4764 6.9424,-3.4712 3.466,0.004 6.7324,1.1038 6.8852,3.2785 0.15448,2.199 -4.2054,2.9696 -6.8852,2.9888 -3.6951,0.0246 -6.9424,-1.2062 -6.9424,-2.7961"
     fill="#ffffff"
     id="path1068" />
  <path
     d="m 76.883,180.4567 c 9.6431,-5.1842 24.444,-19.338 28.695,-31.675 -1.451,9.2282 -12.545,27.579 -25.921,34.526 0,-0.82963 -0.28486,-2.2302 -2.7735,-2.8516"
     fill="#d49ba8"
     id="path1070" />
  <path
     d="m 66.282,181.9067 c 0.93373,2.6954 10.134,1.8137 11.224,-1.2184 1.5239,0.68036 2.5774,2.1851 1.9908,3.0633 -0.82097,1.234 -3.3306,2.3101 -6.4756,2.2511 -5.3925,-0.1043 -8.2944,-1.3485 -6.7393,-4.096"
     fill="#d3d2d2"
     id="path1072" />
  <path
     d="m 76.338,94.9167 c 2.9557,8.8655 15.787,5.7535 18.274,0.38866 -0.46492,4.0439 -4.2765,8.0879 -9.3306,8.166 -5.0541,0.0763 -9.6431,-3.2664 -8.9436,-8.5548"
     fill="#d49ba8"
     id="path1074" />
  <path
     d="m 72.789,185.3367 c -4.5126,-0.0443 -6.4894,-1.0379 -6.4061,-2.1244 0.09692,-1.2705 1.7703,-2.9835 6.5589,-2.8638 3.8513,0.0989 6.1302,1.4371 6.1302,2.7423 0,1.1837 -2.0254,2.2858 -6.2829,2.2459 m -7.7356,-2.1244 c -0.0679,2.0706 3.3133,3.3775 7.6592,3.4174 4.0214,0.0394 7.5395,-1.2618 7.5395,-3.5389 0,-2.0168 -2.8464,-3.6569 -7.3087,-3.7697 -5.363,-0.13382 -7.8241,1.8675 -7.8901,3.8912"
     id="path1076"
     style="fill:#0f141b" />
  <path
     d="m 68.174,180.5467 c -1.0622,-14.032 1.9456,-27.202 9.3879,-37.644 0.52765,-0.73941 0.01968,-1.1247 -0.56234,-0.42852 -8.2806,9.9381 -11.78,24.186 -10.07,38.685 z"
     id="path1078"
     style="fill:#0f141b" />
  <path
     d="m 79.448,184.1867 c 9.945,-3.9659 25.817,-23.795 26.629,-35.958 0.0782,-1.1733 -0.50329,-1.2358 -0.70117,-0.0817 -2.0793,12.141 -16.401,30.052 -25.652,34.578 z"
     id="path1080"
     style="fill:#0f141b" />
  <path
     d="m 68.007,93.0497 c 0.20122,0.79489 0.78796,0.6838 0.69252,-0.1353 -0.94416,-8.0827 4.6462,-13.239 12.514,-13.239 9.1293,0 13.06,6.7012 13.06,13.463 0,6.2135 -4.9534,9.7628 -8.8099,9.7628 -5.2711,0 -8.7093,-2.8013 -8.7093,-7.3104 0,-5.7049 7.0743,-7.9335 10.421,-3.2421 0.42163,0.59008 0.94416,0.31782 0.6196,-0.34046 -2.902,-5.8524 -12.233,-3.5806 -12.233,3.4782 0,5.3439 4.3755,8.7093 9.9017,8.7093 4.8163,0 10.395,-4.5039 10.395,-11.144 0,-8.0636 -5.1669,-14.798 -14.591,-14.798 -8.6399,0 -15.395,6.3766 -13.26,14.796"
     id="path1082"
     style="fill:#0f141b" />
</svg>
