<svg version="1.2" xmlns="http://www.w3.org/2000/svg" viewBox="0 0 272 347" width="549" height="700"><defs><linearGradient id="P" gradientUnits="userSpaceOnUse"/><linearGradient id="g1" x2="1" href="#P" gradientTransform="matrix(1.366,2.257,-0.515,.312,89.679,264.31)"><stop stop-color="#b72743"/><stop offset=".52" stop-color="#b72743"/><stop offset="1" stop-color="#ded684"/></linearGradient><linearGradient id="g2" x2="1" href="#P" gradientTransform="matrix(-1.99,7.647,-2.251,-0.586,107.5,261.3)"><stop stop-color="#b72743"/><stop offset=".58" stop-color="#b72743"/><stop offset="1" stop-color="#ded684"/></linearGradient><linearGradient id="g3" x2="1" href="#P" gradientTransform="matrix(4.252,5.788,-3.873,2.845,101.63,284.3)"><stop stop-color="#b72743"/><stop offset=".68" stop-color="#b72743"/><stop offset="1" stop-color="#ded684"/></linearGradient><linearGradient id="g4" x2="1" href="#P" gradientTransform="matrix(-4.632,2.739,-3.189,-5.394,95.274,285.31)"><stop stop-color="#b72743"/><stop offset=".54" stop-color="#b72743"/><stop offset="1" stop-color="#ded684"/></linearGradient><linearGradient id="g5" x2="1" href="#P" gradientTransform="matrix(-4.12,.355,-0.357,-4.136,67.837,214.83)"><stop stop-color="#b72743"/><stop offset=".55" stop-color="#b72743"/><stop offset="1" stop-color="#ded684"/></linearGradient><linearGradient id="g6" x2="1" href="#P" gradientTransform="matrix(8.743,-0.301,.257,7.457,112.01,217.72)"><stop stop-color="#b72743"/><stop offset=".57" stop-color="#b72743"/><stop offset="1" stop-color="#ded684"/></linearGradient><linearGradient id="g7" x2="1" href="#P" gradientTransform="matrix(-0.482,11.091,-6.109,-0.265,81.787,240.93)"><stop stop-color="#b72743"/><stop offset=".67" stop-color="#b72743"/><stop offset="1" stop-color="#ded684"/></linearGradient><linearGradient id="g8" x2="1" href="#P" gradientTransform="matrix(.941,7.376,-4.052,.517,101.86,241.96)"><stop stop-color="#b72743"/><stop offset=".55" stop-color="#b72743"/><stop offset="1" stop-color="#ded684"/></linearGradient><linearGradient id="g9" x2="1" href="#P" gradientTransform="matrix(8.119,-6.211,2.718,3.554,107.7,180.7)"><stop stop-color="#b72743"/><stop offset=".61" stop-color="#b72743"/><stop offset="1" stop-color="#ded684"/></linearGradient><linearGradient id="g10" x2="1" href="#P" gradientTransform="matrix(3.276,5.589,-3.56,2.087,84.909,208.65)"><stop stop-color="#b72743"/><stop offset=".6" stop-color="#b72743"/><stop offset="1" stop-color="#ded684"/></linearGradient><linearGradient id="g11" x2="1" href="#P" gradientTransform="matrix(-5.635,-5.581,1.32,-1.333,56.066,181.14)"><stop stop-color="#b72743"/><stop offset=".57" stop-color="#b72743"/><stop offset="1" stop-color="#ded684"/></linearGradient><linearGradient id="g12" x2="1" href="#P" gradientTransform="matrix(.482,-4.481,1.641,.176,67.372,137.17)"><stop stop-color="#004098"/><stop offset=".53" stop-color="#004098"/><stop offset="1" stop-color="#ded684"/></linearGradient><linearGradient id="g13" x2="1" href="#P" gradientTransform="matrix(1.622,-5.059,3.299,1.058,78.144,137.08)"><stop stop-color="#004098"/><stop offset=".56" stop-color="#004098"/><stop offset="1" stop-color="#ded684"/></linearGradient><linearGradient id="g14" x2="1" href="#P" gradientTransform="matrix(.493,3.275,-2.231,.336,67.461,152.12)"><stop stop-color="#004098"/><stop offset=".58" stop-color="#004098"/><stop offset="1" stop-color="#ded684"/></linearGradient><linearGradient id="g15" x2="1" href="#P" gradientTransform="matrix(-0.363,-4.291,2.988,-0.253,60.072,141.17)"><stop stop-color="#004098"/><stop offset=".55" stop-color="#004098"/><stop offset="1" stop-color="#ded684"/></linearGradient><linearGradient id="g16" x2="1" href="#P" gradientTransform="matrix(-4.995,-0.773,1.043,-6.737,38.885,158.44)"><stop stop-color="#b72743"/><stop offset=".63" stop-color="#b72743"/><stop offset="1" stop-color="#ded684"/></linearGradient><linearGradient id="g17" x2="1" href="#P" gradientTransform="matrix(9.041,-1.046,.684,5.91,145.62,165.3)"><stop stop-color="#b72743"/><stop offset=".51" stop-color="#b72743"/><stop offset="1" stop-color="#ded684"/></linearGradient><linearGradient id="g18" x2="1" href="#P" gradientTransform="matrix(8.864,-3.345,1.326,3.513,254.94,115.35)"><stop stop-color="#b72743"/><stop offset=".63" stop-color="#b72743"/><stop offset="1" stop-color="#ded684"/></linearGradient><linearGradient id="g19" x2="1" href="#P" gradientTransform="matrix(-1.925,-6.32,12.641,-3.849,209.01,92.565)"><stop stop-color="#b72743"/><stop offset=".41" stop-color="#b72743"/><stop offset="1" stop-color="#ded684"/></linearGradient><linearGradient id="g20" x2="1" href="#P" gradientTransform="matrix(7.879,-1.067,.613,4.525,232.15,177.49)"><stop stop-color="#b72743"/><stop offset=".61" stop-color="#b72743"/><stop offset="1" stop-color="#ded684"/></linearGradient><linearGradient id="g21" x2="1" href="#P" gradientTransform="matrix(-10.102,-3.729,4.409,-11.942,132.71,246.04)"><stop stop-color="#b72743"/><stop offset=".53" stop-color="#b72743"/><stop offset="1" stop-color="#ded684"/></linearGradient><linearGradient id="g22" x2="1" href="#P" gradientTransform="matrix(-5.853,-6.56,2.042,-1.822,12.891,99.509)"><stop stop-color="#b72743"/><stop offset=".44" stop-color="#b72743"/><stop offset="1" stop-color="#ded684"/></linearGradient><linearGradient id="g23" x2="1" href="#P" gradientTransform="matrix(-9.158,-3.214,2.865,-8.161,6.036,133.69)"><stop stop-color="#b72743"/><stop offset=".43" stop-color="#b72743"/><stop offset="1" stop-color="#ded684"/></linearGradient><linearGradient id="g24" x2="1" href="#P" gradientTransform="matrix(-9.613,1.442,-2.527,-16.844,26.6,193.96)"><stop stop-color="#b72743"/><stop offset=".5" stop-color="#b72743"/><stop offset="1" stop-color="#ded684"/></linearGradient><linearGradient id="g25" x2="1" href="#P" gradientTransform="matrix(7.704,.246,-0.26,8.142,79.568,243.28)"><stop stop-color="#b72743"/><stop offset=".57" stop-color="#b72743"/><stop offset="1" stop-color="#ded684"/></linearGradient></defs><style>.a{fill:#ded684}.b{fill:url(#g1)}.c{fill:url(#g2)}.d{fill:url(#g3)}.e{fill:url(#g4)}.f{fill:#cbd0d8}.g{fill:#004098}.h{fill:url(#g5)}.i{fill:url(#g6)}.j{fill:url(#g7)}.k{fill:url(#g8)}.l{fill:#b72743}.m{fill:url(#g9)}.n{fill:url(#g10)}.o{fill:url(#g11)}.p{fill:#27323a}.q{fill:url(#g12)}.r{fill:url(#g13)}.s{fill:url(#g14)}.t{fill:url(#g15)}.u{fill:url(#g16)}.v{fill:url(#g17)}.w{fill:url(#g18)}.x{fill:url(#g19)}.y{fill:url(#g20)}.z{fill:url(#g21)}.A{fill:url(#g22)}.B{fill:url(#g23)}.C{fill:url(#g24)}.D{fill:url(#g25)}.E{fill:#88142f}.F{fill:#003686}.G{fill:#a6abb2}.H{fill:#1c242a}.I{fill:#b2b3eb}.J{opacity:.5;fill:#fff}.K{opacity:.14}.L{fill:#41515c}.M{fill:#0f141b}.N{fill:#fff}.O{fill:#fff67c}</style><path class="a" d="m104.2 269.9c9.8-9.6 19.3-21.6 19.9-29.4-4.2 0.7-8.1 0.7-11.3 0.1l-35.3 1.3c0.7 9.2 5.4 18.8 15.2 28.3-3.4 0.4-6.9 0.2-10.6-0.3 2.6 10.2 12.4 28.4 18.6 35.9 7.2-8.7 17.4-27.3 22.7-39.2-6.8 1.5-13.4 2.7-19.2 3.3"/><path class="b" d="m82.1 256.9c1.9 3.4 4.9 7.4 7.4 10.2 0.8 0.9 1.8 0.9 0.9-1.1-1.5-3.2-2.8-7.4-3.3-11.1-2-2.3-5.2-5.9-6.8-8.4 0.1 2.8 0.8 6.8 1.8 10.4z"/><path class="c" d="m106.2 249.3c0.6 4.4 0 8.9-1.2 14.4-1.4 6.4 2 5.6 5.2-1.1 3.3-7 5.7-14.9 6.1-21.5-1.2-0.1-2.3-0.2-3.4-0.5-2.1 3.2-3.9 5.6-6.7 8.7z"/><path class="d" d="m97.3 283.9c0.8-0.2 2.7 1.8 3.9 3.6 2.8 4.1 8 1 4.1-3.4-0.9-1.1-2.4-2.9-3.1-4.5z"/><path class="e" d="m92.7 283.9c-2.6 5.4 2.5 8.4 3 4.7 0.3-2.5 0.8-4.5 1.6-4.7l-3.6-2.2c-0.1 0.1-0.9 2-1 2.2z"/><path class="f" d="m158.1 287c-1.7-8.5-5.1-20.4-7.7-28.2 6.3-2 13.6-4.9 19.4-7.8 1.1 8.4 3.3 20.1 6 30.5-4.5-4.1-7.9-6.6-11.4-9-1.8 2.9-5.8 10-6.3 14.5z"/><path class="g" d="m212.4 195.3c25.9 14.1 35.5 35.8 36.8 61.7 16.7-23.9 17-63.9-4.5-86.6 9.3 1.5 21.1-2.8 26-8.9-12.5 0.3-30.3-3.9-42.5-9.7-4.1 4.1-10 9.2-16 13.6z"/><path class="g" d="m107.3 82.6c2.4-1.7 5.1-3.4 8.1-4.9 14.2-7.2 19.3-24.4 17.8-44.4-2.8 6-7.7 10.2-12.7 13.7 13-21.1 7.7-33.6-2.8-46.4 4.8 14.9-0.8 29.9-21.5 38.4-9.2 3.7-12.4 8.6-13 15.8-3.1-3.2-7.6-4.7-12.7-4 5.2 1.7 9 9.8 4.2 21.7-6 14.8-6.3 24.8-2.4 33.7l15.7 6.6c2.7-6.9 10.4-17.3 16.4-20.5 2-1.1 4-2.5 5.3-3.6 3.5-3.1 7.4-5.3 14.4-8.4-6.3-0.8-11.3 0.1-16.8 2.3z"/><path class="g" d="m104.2 112.1c9.8-3.5 29.4-1.8 43.8 5.5-6.2 6.2-9.8 14.3-9.9 21.2-13.7 5.8-31.5-5.9-33.9-26.7z"/><path class="a" d="m260.7 97.3c0.1-2.1-0.6-2-1.8-0.8-7.8 8.1-29.6 18.3-46.7 22.9 11.9-8.6 20.1-24.9 21.9-41.2 0.2-1.5-0.4-1.7-1.6-0.7-9.8 8.3-36.2 18.1-68.4 30.7-17.7 7-26.7 19.3-25.8 33.4 0.2 3.1-0.1 6-1 8.1-3.3 1.5-8.2 3.6-11.4 4.6l-53.3-2.4-21.1-32c-4.1-6-6.8-8.3-10.5-9.6-10.4-3.6-23.8-12.7-28.3-22.1-1-2.2-2.5-2.3-2.6 0.8-0.5 11.6 2.9 30.4 8.4 40.4-6-5.1-12.8-13.5-16.2-19.6-0.8-1.5-1.4-1.2-1.5 0.2-1.3 16.6 10.4 50.7 29.9 69.7-4.9-1.5-10.5-5.4-13.9-10.1-1-1.4-1.5-1-1.4 0.2 0.7 17.9 12.3 39.8 23.5 50.1-3.8-2.3-7.1-4.9-10.2-8-0.7-0.8-0.8-0.6-0.9 0.1-0.7 13.3 9.7 32.2 24.5 43.9 12.3 9.7 27.4 15.7 40.4 14.3-9.8-9.6-14.5-19.1-15.2-28.3l35.3-1.3c3.2 0.6 7.1 0.6 11.3-0.1-0.6 7.8-10.1 19.9-19.9 29.4 21.3-2.3 53.3-11.9 69.7-20.8 15.8-8.6 43.9-37.2 49.4-51.8 1.3-3.3-0.2-3.4-2.2-2.2-4.4 2.7-12.3 5.5-19.4 7.5 19.3-10.5 40.5-35.1 43.5-51 0.5-2.5-0.6-2.5-2.2-1.1-8 7.2-22.4 13.5-31 15.2 25.5-18.4 47.4-48.9 48.7-68.4z"/><path class="a" d="m39.8 143.5c-2.8-2.3-4.8-4.5-7.1-7.9-4.3 20.2 7.3 50.6 26.7 64 6.2 25.2 20.9 51.5 34.6 61.8 13.9-10.4 32.6-36.8 38-65.2 18-13.6 30.4-32.5 31-61.2-2.5 1-5.1 2.7-7.8 4.8-5.1 4-16.5 9.5-29.4 14.8z"/><path class="h" d="m67.1 211.6c-2.5-0.6-4.7 2.5-0.2 4.8 1.3 0.6 2.4 0.9 3.9 1.8l0.5-7.3c-0.6 1.2-2 1.2-4.2 0.7z"/><path class="i" d="m115.3 211.9c-3.3 1.3-6.1 1.7-8.1 0.5l-1.1 11.4c1.4-3.6 2.8-3.9 9-4.2 6.7-0.3 5.1-7.9 1.3-7.9q-0.5 0-1.1 0.2z"/><path class="j" d="m75.2 225.2c1.6 5.1 5 15.8 8.2 21.3 3.6 6.4 6.9 4.9 4.5 0-2.4-5.2-6.2-16.1-8-22.5z"/><path class="k" d="m99.2 224.7c-0.7 6.1-2 14-3.1 20-1 5.5 2.7 5.8 4.4-0.9 1.6-6.7 3.7-14.7 5.6-20z"/><path class="a" d="m116.8 153.7c8.9-14.6 11-32.6 7.8-49.3-3.7 7.9-15.1 19.7-24.3 26.8-1.7 0.4-4.6 1-6.5 1.1l-42.4-1c-7.8-4.5-15.4-14.4-18.1-19.7-0.7 13.9 3.8 29.3 13 44.4-3.2-2.3-6.4-5.5-8.1-7.6 4.9 27 21.3 56.1 47.2 71.2 22.8-14.9 41.5-45.2 40.9-75.8-2 3.3-5.7 6.9-9.5 9.9z"/><path class="l" d="m86.5 208.3q0.3-2 0.4-4c1.4 0.6 11.1-4.2 14.2-8.4l-3.9-6.7c-1.8 2.4-6.6 4.9-11 6.4-0.2-2.4-0.6-4.7-1-6.5 7.1-3.6 14.5-12.5 16.5-20.1-3.4-1.8-6.7-4.6-8.8-6.9 4.7-1.4 9.5-3 13.3-5 3.9-4.7 7.6-22.5 7.5-30.8-5.4 3-13.9 5.3-19.9 6l-10.9-27c-1-3.5-1.7-5.7-2.6-7.5-6 3.8-13.3 15.9-16.8 24.2-1.7 4-1.4 7.1 0.1 9.1l-12 2.3c-2-0.7-6.4-1.9-8.9-2.2 1.3 7.4 6.6 25 9.3 29 1.4 1.2 3 2.1 5 3 1 0.5 2.5 0.7 4.1 0.8l6.9 19.3c2.1 2.7 4.8 5.4 8.1 7.5q0.2 2.2 0.6 4.2c-3.4-0.7-7-2.8-10.6-5.5l1.2 9.1c2.5 2.5 8.1 5 11.5 5.3 0.7 1.9 1.4 3.6 2.1 5.2z"/><path class="m" d="m106.3 171.8c-2.6 5.7-7.4 15.1-9.2 17.5-1.7 2.4-6.6 4.9-11 6.4l1 8.8c1.4 0 10.6-4.1 13.9-8.5 1-1.4 3.8-10 8.7-20.4 1.8-4.1 0.8-6.3-0.7-6.3-0.9 0-2 0.8-2.7 2.5z"/><path class="n" d="m83.6 213.4c1.2 1.3 1.9 1.2 2.4-2.3 0.4-2.4 0.7-4.6 0.8-6.7l-8-0.5c1.3 3.9 2.9 7.3 4.8 9.5z"/><path class="o" d="m54.1 177.8c3.3 7.6 8.8 16.5 13.2 20.8 2.6 2.6 8.1 5.1 11.6 5.3l-2.2-8.8c-3.4-0.8-6.9-2.8-10.6-5.5-3.2-2.3-7.1-9-9.7-13.5-0.8-1.3-1.6-2-2.2-2-0.8 0-1.2 1.3-0.1 3.7z"/><path class="p" d="m59.8 160.4c-1.2-0.6-2.3-1.2-3.4-1.9-1.2-2.5-2.1-5.7-2.8-8.7 1 3 2.5 4.9 4.1 6.1-1.4-2.2-2.1-5.5-2.2-8.1 1.3 2.5 5.2 6.2 8.1 8.2l-0.6 2c-1.1 0.9-2 1.6-3.2 2.4z"/><path class="a" d="m93.8 127.8c-0.9-1.8-1.3-2.8-1.9-4.8-3.3-12.1-10.2-20.4-16.7-24.6 2.6 8.2 3.9 18.3 3.7 31-2 2-3.5 3.5-5.3 5.2-0.3-5.5-1.7-14.9-3.3-21.5-2.7 4.3-5.6 10.8-6.8 17.7-1.1-1.3-1.4-3.3-1-4.8-1.6-7.1-3.2-17.9-4-25-7 10.9-10.8 25.7-3.3 46.5 2.1 3.1 5.4 6.2 8.4 8.6l-0.4 1.8c-2.3 1.7-4.5 3.5-6.7 5.4 1.3 0.4 2.3 0.5 3.9 0.7-1.9 1.3-3.8 2.8-5.2 4.1 1.1 1.7 2.9 2.9 4.6 3.8 4.7-0.7 11.4-2.6 15.7-4.8-2.6-0.7-5.4-1.6-7.5-2.6 2.5-1.5 6.8-2.3 10.3-2.5-1.7-2-3.4-3.8-5-5.4 4.9-3.1 12.7-7.5 17-9.6 1.1-0.6 1.2-0.9 1.2-2 0.1-6.6 1-9.7 2.3-12.3 0.8-1.7 0.9-3.1 0-4.9z"/><path class="p" d="m55.7 118c-1.1 4.2-1.3 13.5-0.3 17 1.1-0.1 2.3-0.3 3.5-0.8-1-3.2-2.5-11-3.2-16.2z"/><path class="p" d="m80.8 113.3c1.6 5.5 2.9 13.2 1 17.6 1.6 0.2 3.7 0.2 5.2 0-0.5-6.8-3.6-13.4-6.2-17.6z"/><path class="q" d="m65.8 135.7c-1 2.6-1.6 8.1-1.7 10.2l4.8-0.8c-0.1-3.3 0.3-6.6 0.5-9.7 0.1-1.4-0.5-2-1.2-2-0.9 0-1.9 0.8-2.4 2.3z"/><path class="r" d="m81.6 136c-0.7 1.8-2.1 4.6-3.1 5.5-1.1 1-6.5 3.4-9.6 3.6l0.3 4.4c3.2-1.4 9.8-4.5 10.9-5.8 1.4-1.6 3.8-5 4.7-7 0.8-1.7 0.2-2.8-0.8-2.8-0.8 0-1.8 0.7-2.4 2.1z"/><path class="s" d="m65.9 153.3c0.8 2.4 3.4 1.7 3.4-0.5 0-0.8-0.2-1.9-0.1-3.3l-4.1-0.3c0.2 1.5 0.3 2.8 0.8 4.1z"/><path class="t" d="m55.6 140.2c0.3 1.7 1.1 4.3 1.7 5 0.9 1.1 5.1 2.9 7.7 4.1l-0.9-3.4c-1.8-0.5-4.8-2.2-5.3-3.1-0.4-0.5-0.5-2.3-0.6-3.5 0-1.2-0.6-1.8-1.3-1.8-0.7 0-1.5 0.9-1.3 2.7z"/><path class="g" d="m69.2 151.1q-0.1-0.7 0-1.6c3.2-1.4 9.8-4.6 10.9-5.8l-1.6-2.2c-1 1-6.5 3.4-9.6 3.6 0-1.8 0.1-3.6 0.2-5.4l-4.2-0.3c-0.5 2.5-0.7 5.1-0.7 6.5-1.9-0.6-4.8-2.3-5.4-3.1l-1.4 2.4c0.9 1 5.1 2.8 7.7 4q0.1 0.9 0.2 1.8z"/><path class="p" d="m77.6 161.2c1.9 0.3 3.8 1.2 4.5 2 1.5 1.6 1.9 5.7 1.4 7.7-0.6-2.1-2.2-4.2-3.5-5.4 0.2 3.3-0.4 6.3-1 8.7-2 1.8-5.1 4.1-7.4 5.5-1.4 0.8-2 0.7-2.7 0.3-1.5-1.1-4-1.7-5-1.4-0.7 0.3-1.7 1.9-1.7 2.3 0 0.4 1 2 1.8 2.3 0.8 0.2 5.5 0.2 7.2 0 2.5-0.4 15.1-8.4 15.6-11.4 0.4-2.2-1-6.2-2.5-9.8 1.4 0.5 3.1 1 4.3 1.1 0.9 0 1.6 0 2.3-1 2.4-3.8 5.1-10.9 6.4-16.1-2.9 3-5.9 6.3-8.6 9.3 0.8-1.9 1.9-6.1 2.4-8.7-4.1 2-12.7 6.6-17.9 10.1 1.6 1.4 2.7 2.5 4.4 4.5z"/><path class="f" d="m62.2 180.9c0-0.4 1-2 1.7-2.3 1-0.3 3.5 0.4 5 1.4 0.7 0.4 1.3 0.5 2.6-0.3 2.4-1.4 5.5-3.7 7.5-5.5 0.6-2.3 1.2-5.3 1-8.7 1.3 1.2 2.9 3.3 3.5 5.4 0.5-2 0.1-6.1-1.4-7.7-0.7-0.8-2.6-1.6-4.5-2l0.4 0.8c-3.7 0.2-7.5 1.1-10 2.5 2.7 1.2 4.4 1.9 7.2 2.5-3.4 2.1-10.5 4.3-15.4 5-1.2-0.8-2.2-1.4-3.2-2.3-0.4 2.9 0.6 8.1 5.6 11.2z"/><path class="g" d="m60.9 158.5c-1.6 0.2-2.6-0.1-3.1-0.6-0.3-0.4-0.8-1-1-1.6 0.3 0.3 0.9 0.8 1.3 0.9q0.6 0.2 1.8 0.2 0.4 0.5 1 1.1z"/><path class="g" d="m83.5 158c1.6 0.7 3.7 1.3 4.1 1.3 0.6-0.2 2.8-3.5 5.3-5.8-1.3 3.5-3.8 7.4-4.3 7.6-1.1 0.3-5.1-0.9-8-2.2 0.8-0.1 1.9-0.5 2.9-0.9z"/><path class="g" d="m66.4 170.5c0.2 2.1-2.7 5.8-3.6 5.9-1.2 0.2-4.2-3.3-4.6-5.5 0.4 0.4 0.9 0.7 1.6 1.1 1.8-0.3 4.5-0.9 6.6-1.5z"/><path class="l" d="m92.6 104.2c3.5-1.8 6.8-3.1 11-4-0.9 7.5 1.1 18.1 4.4 24.5-2.6 2.2-4.9 4.3-7.9 6.5-2.2 0.5-4.6 0.9-6.1 1 0.6-1.3 0.5-3-0.6-4.9-1.4-2.6-2.5-9.9-5.5-14.5 1.2-2.6 2.8-6 4.7-8.6z"/><path class="u" d="m36.8 157.2c1.3 2.6 3.7 5.3 5.8 8-1.2-3.1-2.1-6.6-2.6-8.7-1-1.4-2-2.9-2.6-3.6-0.6-0.7-1.1-1.1-1.4-1.1-0.9 0-0.8 2.2 0.8 5.4z"/><path class="l" d="m79.6 238.1c-1.8-4.8-3.4-9.9-4.4-12.9-1.5-4.4-3-6.2-4.4-7-0.8-0.5-1.6-0.8-2.3-1.1v-5.2c2 0.2 3.1-0.4 3-2.6 1.9 1.7 5 4.3 7.2 5.8-0.3 2.5 0.2 5.4 1.2 8.8 1 3.5 2.5 8.4 4.2 12.8z"/><path class="l" d="m102.9 234.6c1-4 2.1-7.8 3.2-10.8 1.1-2.9 2.2-3.7 5.8-4l-0.5-6.8c-1.6 0.2-3.1 0.1-4.2-0.6-2.4-1.4-3.5-4.2-3.7-8.9-1.8 2-4.6 5-7.3 7.6 2.5 4 3.6 7.8 3 13.6-0.3 2.8-0.8 6-1.3 9.3z"/><path class="v" d="m147.7 154.3c-5.9 5.2-18.5 13.5-25.4 15.6-1.1 3.2-2 6-3.9 10.2 7.2-0.8 21.1-10 29.4-19.1 4.3-4.5 4.3-8 2.4-8-0.7 0-1.5 0.4-2.5 1.3z"/><path class="l" d="m12.2 134.2c4 5.4 8.8 10.2 12.8 13.4 2 1.7 3.3 0.7 3.6-1.3 0.8-4.2 0.4-10.7-0.2-16-0.6-5.4-2.4-10.1-5.2-13.2-2.8-3-5.7-7.5-8-12l3-2.1c4.3 6.5 10.3 12.8 15.1 15.3 0.5 7.4 2.3 16.5 6.2 24.8-2.7-2.4-4.7-4.4-6.8-7.3-1.3 4.8-1.7 18.2 2.6 29.2-10.6-5.4-20.6-17.8-26.7-28.9z"/><path class="l" d="m242.9 114.5c-17.9 16.1-42.1 29.1-61.9 30.5-3.7 0.3-5.3-0.1-5.5-3.6-0.2-3.5 0.5-7.8 1.9-11.3 1.1-2.6 2.9-4.4 6.8-6.8 8.2-4.9 26.1-18.3 36.9-28.7l-2.3-2.6c-8.7 6.9-21 13.9-29.2 16.8-5 1.7-10.5 4.5-14.8 7.2-5.1 3.3-8.2 9.7-12 22.4 0 7.4-2.7 21.1-7.6 30.3 7.4-3.9 17-7.6 26.5-11 27.9-10.1 49.7-22.8 65-39.8z"/><path class="w" d="m253.2 104c-12.4 14.3-30.9 27.8-49.1 35.2l4.5 6.9c19.8-10.2 35.3-22.6 46-38.3 2.8-4.2 3.1-6.3 2-6.3-0.7 0-2 0.9-3.4 2.5z"/><path class="x" d="m225.7 85.6c-7.3 8.5-25.3 19.4-36.1 23.2l4 8.3c13.2-9.5 31.7-24.7 35.4-32 1.1-2.2 1.4-3.5 0.9-3.5-0.5 0-1.9 1.2-4.2 4z"/><path class="l" d="m133.2 258.3c12.6-6.5 29.2-16.4 34.9-22.3 4.9-4.8 9.5-19.5 10.7-26.7 0.8-4.5 2.4-6.5 5.8-8.3 13.9-7.5 31.4-18.1 42.8-27.8l-3-4c-25.9 17.3-72.2 39-98.5 47.3-1 2.6-3.3 7.9-5.6 11.8 11.2-3.1 24.4-8.3 35.3-13.3 1.9-0.9 3.3-0.9 3.9 0.9 1 2.9 0.6 9.4-2.3 15.1-2.3 4.5-13.4 14.7-26.3 23.4z"/><path class="y" d="m234.7 161.7c-10.4 8.7-29.2 19.6-49.2 29.6l-0.9 9.7c18.5-9.9 43.6-25.4 51.8-37.2 2-2.8 2.5-4.2 1.8-4.2-0.6 0-1.7 0.7-3.5 2.1z"/><path class="z" d="m121.6 260.2c-6 3.3-5.6 5.6 0 3.5 10.8-4.1 38.6-19.7 46.5-27.6l-10.9-5.1c-2.9 5.6-19.1 19.9-35.6 29.2z"/><path class="l" d="m67.6 257.1c-5-3.3-10.3-7.6-15.2-12.8-3.8-4-7.1-20.6-7.6-24.1-0.7-4.1-1.9-6.1-3.5-7.2-4.2-2.9-9.8-8.8-14.3-14.7l3.4-5.2c10.5 12.1 24.2 22.7 35.8 27.2 1.2 2.9 2.3 5.6 3.8 8.6-4.6-1-9.4-2.3-14.5-4.8 0.1 5.4 0.7 14.2 2 16.9 1.4 3 6.7 8.1 12.4 12.7z"/><path class="A" d="m11.9 97.4c2 6.5 6.8 14.9 11.3 19.8l3.6-3.8c-5.2-4.9-10.2-11.9-12.8-17.8-0.9-2.2-1.9-3.4-2.4-3.4-0.6 0-0.7 1.7 0.3 5.2z"/><path class="B" d="m3.1 118.3c-0.6 0.2-0.6 4 1.1 8.5 2.9 7.7 8.9 18 16.4 26.4l4.4-5.5c-7-5.6-16.4-16.2-19.6-25.6-0.9-2.6-1.7-3.8-2.2-3.8q-0.1 0-0.1 0z"/><path class="C" d="m21.2 189.5c4.1 7.8 13.8 19.2 20.1 23.5l4.7-5c-11.4-9-22-21.1-27.7-32.5-0.5-1-0.9-1.4-1.1-1.4-1.1 0 0.5 9 4 15.4z"/><path class="D" d="m52.4 244.4c9.7 10.3 20.7 16.8 28.5 20.2 4.8 2.1 5.5-0.4 0.7-2.8-6.9-3.4-21.7-15.4-24.2-20.7-1.2-2.7-1.8-11.5-1.9-16.9l-10.7-3.9c0.5 3.5 3.8 20.1 7.6 24.1z"/><path class="l" d="m123.4 138.6c3.4 1.9 9.5 2 14.7 0.1 0 2.6 0.9 9-1.1 11-2.6 1.2-7.6 3.3-11.1 5 0.5-3.6 0.5-7.9 0.4-11-1.7 2.8-5.5 6.6-9.3 9.7 2.6-4.2 5-10.5 6.4-14.8z"/><path class="E" d="m238.7 264.1c-2.7-9.3-8.2-29.3-12.3-38.6 2.7 4.8 6.9 7.2 10.2 7.9-4.7-5.7-14.5-22.2-17-29-3.9 6-9.8 13.2-14.1 17.3-1.8 5.1-3.1 10.5-3.5 14.4 3.1 4.3 8.3 9.6 12.6 12.4-0.1-3.8-1-9.5-2.1-14.1 5.1 9.2 17.9 25.7 26.2 29.7z"/><path class="F" d="m240.7 249c-0.6-8.3-1.7-14.5-3.2-18.8 1.9 1.7 3.3 3.5 4.6 5.6-0.3-4.1-1.1-9.6-2.2-14.6-4.8-7.7-10.9-14.7-18.2-20.2-0.8 1.2-1.4 2.3-2.1 3.4 2.3 5.6 12.2 23.9 17 29-3.1-1-6.6-2.3-9.7-6.9 3.5 9.9 9.7 28.9 11.8 37.6-1.7-1-2.8-1.5-4.4-2.9-0.3 2.4-0.5 4.4-0.6 7.4 4.2 3.5 9.6 4 15.3 3.2-5.4-3.5-7.6-11.1-8.3-22.8z"/><path class="G" d="m219.9 205.7c-3.7 6.7-8 15.3-10 21 3.4-2.4 7.4-7.3 8.4-9.2 1.1-2.3 2.3-6.4 2.7-9.9z"/><path class="G" d="m182.8 243c5.3 12 14.1 18.4 32.8 23.3 1.3 0.3 1.9 1.1 2.7 2.9 3 7.3 4.1 24 1.9 30.7-0.3 0.8-0.8 1.6-1.5 2.1-2.3 1.6-5.5 5.1-6.2 7.9-1.2 4.8 1.7 9.7 7.3 12.4 4.8-1.2 10-3 13.4-5.5 0.9-0.7 1.6-2.5 1.5-5.1-1-14.3-1.5-38.6-0.4-50.5-6.2-4.9-17.5-18.8-21.7-26.4 1.1 4.8 1.6 8.8 2 13.4-3.4-1.8-8.9-6.7-12.6-12.1 0.5-3.7 1.5-8.9 2.8-13.1-6.1 7-14.1 13.9-22 20z"/><path class="H" d="m232.6 308.4c-1 0.4-2.4 0.9-3.6 1.5-1-1.7-2.1-3.5-3.1-4.9-1.5 0.9-3.1 2-4.6 3.2-0.9-1-2-1.8-2.8-2.4-1.5 1.1-2.6 2.5-3.4 4.1-0.5-0.2-1.4-0.6-2.3-0.9q-0.2 0.5-0.3 0.9c-1.2 4.8 1.7 9.7 7.3 12.4 4.8-1.2 10-3 13.4-5.5 0.4-0.4 0.8-1 1.1-1.8-0.4-2.4-1-5-1.7-6.6z"/><path class="H" d="m219.7 273.8c-1.4 5-2.2 11.4-2.6 16.3 1.3-0.5 2.8-1.3 4.3-2.6-0.2-4.7-0.8-9.7-1.7-13.8z"/><path class="g" d="m161.3 278.2c-0.8-6.6-3-14.6-5.3-21.4 2.5-0.9 4.1-1.5 6.6-2.6 1.8 6.3 3.5 13.8 4.9 20.4-1.1-0.8-2.1-1.5-3.1-2.1-1 1.4-2.3 3.5-3.1 5.7z"/><path class="g" d="m183.5 317c2.5-7.6 6.1-24.4 6.2-32.8-2.3 1.8-4.8 5-6.6 8.3-2.2-7.2-8.6-13-18.7-20-4.5 6.8-7.1 14.9-7.8 23.5-2.6-2.4-6.2-5.1-9-6.3 4.1 12.3 8.9 22.1 14 27 1.6 1.6 1.7 3.3 0.1 5.3-2.1 2.7-3.1 8.2-2.9 11.8 0.1 2.4 8.3 11.3 14 12.1 4.3 0.6 21.3-9.8 21.5-11.4 0.7-5.9-3.6-13.3-10.8-17.5z"/><path class="p" d="m189.3 327.4c-1.8 0.9-3.7 1.7-5.8 2.6-1.4-2.1-3-4.8-4-7-1.4 1.1-3.6 3-5.2 4.8-1.9-1.3-4.5-2.6-6.4-3.3-1.5 2.2-2.5 4.1-3.2 6.3-1-0.4-2.7-0.9-3.8-1.2-0.6 1.8-1 4.3-0.9 6.6 2.5 3.6 8.4 9.1 12.8 9.7 3.3 0.4 13.8-5.4 18.8-8.9-0.3-3.3-1.1-7.2-2.3-9.6z"/><path class="G" d="m132.4 264.4c4.5 4.1 5 7.2 4 10.9-1.5 5.1-3.5 9.3-6.4 15.4-1 2.2-2 3.1-3.6 3.1-9.2 0.4-14.1 9.9-14.2 16.8 7.5 0.7 14.7-0.1 19.5-2.5 2.9-1.4 4.5-3.5 5.4-6.6 2-7 6.6-18.6 11.1-26.5 2.5-4.3 3.7-6.6 4.3-10.1-0.5-1.5-1.6-4.7-2.1-6-4.2 1.5-12 4.1-18 5.5z"/><path class="H" d="m129 303.1c-0.1-1.8-0.5-3.9-1-5.2-1.7 0.4-3.6 1.1-5.3 1.9-0.5-1.2-1.5-2.9-2.4-4.1-5.3 3.1-8 9.7-8.1 14.9 7.5 0.7 14.7-0.1 19.5-2.5q0.2-0.1 0.4-0.2c0.3-1.7 0.4-3.2 0.4-4.5-0.8-0.2-2.4-0.3-3.5-0.3z"/><path class="l" d="m103.4 281.9c-3.1-5-4.1-13-3.5-25.8-1.8 1.8-4.1 3.9-6 5.3-0.4-0.3-1.3-1-1.8-1.6 1.9 8 2.5 19.4 0.9 23.6l3.4 1.3c0.2-0.3 0.4-0.7 0.9-0.8 0.5-0.2 1.5 0.5 2.4 1.5z"/><path class="f" d="m82.1 269.8c-4.1-0.6-9.2-2.2-13.6-4.1-3.7 9-8.9 17.8-13.3 25.4q0.8 2.4 2 4.9c4.2-2.8 10.5-6.2 15.8-8.7 3.1-5.1 6.2-10.1 9.7-15.3z"/><path class="g" d="m65 264c-2.7 7.3-6.8 15.9-11.3 22.2 0.4 1.5 0.9 3.2 1.5 4.9 4.4-7.6 9.6-16.4 13.3-25.4q-1.9-0.8-3.5-1.7z"/><path class="g" d="m57.1 296c-3.8-8.4-6.2-20.7-4.7-29.2-14.1 11.5-19.5 27.2-18.2 32.8 0.3 1.5 2.5 4.5 4.7 6.9-3.7-1.5-6.3-0.9-8.4 1.3-3.4 3.6-8.8 12-11 18.2 5.2 4.1 26.4-0.8 37.4-5.8 2.7-1.2 3.5-2.5 3.9-5.1 1-7.4 5.7-17.5 15.9-29.8-5.3 2.6-13.6 7.1-19.6 10.7z"/><path class="p" d="m43.5 318.2c-2.2 0.1-3.5 0.1-5.7 0.1q-0.7 0.4-1.3 0.8c-0.2-2.4-0.4-4.9-0.4-6.9-1.6 0.6-3.1 1.5-4.7 2.7-0.8-1.5-1.7-3.6-2.4-5.4-3.4 4.3-7.6 11.2-9.5 16.5 5.1 1.9 14 1.4 22.9-0.8 0.7-2.3 1-5.1 1.1-7"/><path class="l" d="m216.4 197.4c-1.3-0.8-2.6-1.6-3.7-2.1-1.9 1.5-7.2 5.2-10.2 6.9 3.7-0.7 9.5-2.5 13.9-4.8z"/><path class="F" d="m33.9 295.9c3.5 3.5 17.1 7.1 22.2 6.2 5.7-0.8 13.2-12 20.2-16.3-8.4 8.9-14.9 23.3-15.5 29.2-0.3 2.9-1.4 4.6-5.8 6-6.1-2.4-16.5-9.4-22.7-14.8 1.9-0.7 3.7-0.9 6.2 0.1-4.4-5.1-4.9-7.4-4.6-10.4z"/><path class="F" d="m147.7 289.9c2.4 2.4 6.5 7.4 8.6 12 6.3 3.4 21.4 1.5 27.7-3.5 1.8-3.1 4.6-11 5.4-14.2 0.6 5.2-3 23.1-5.9 32.9 1.9 0.8 4.4 2.6 6.4 5.2-11.7-4.1-24-2.4-30.2 3.5 0.5-1.5 1.3-3 2.2-4 0.8-1.1 1.6-3.1-0.3-5.1-6.6-6.9-11.6-18.4-13.9-26.8z"/><path class="I" d="m91.3 61.5c1.1-7.4 5.1-16 10.9-20.2-6.9 3.3-11.6 12.6-10.9 20.2z"/><path class="I" d="m90.8 76.2c1.4-7.5 4.7-19.9 8.9-26.9-5.3 6.2-9 19.2-8.9 26.9z"/><path class="I" d="m90.1 84c4.5-5.9 8.7-15 10-22.6-2.7 6.9-6.7 15.7-10 22.6z"/><path class="a" d="m130.1 124.8c3.6-3.5 8.7-5.7 16.3-5.2 0.3-0.3 0.9-0.9 1.3-1.3-9.2-1.1-15.9 1.8-17.6 6.5z"/><path class="J" d="m10.5 87.2c4.1 12.2 19.5 21.1 27.3 23.9 2.4 0.9 6.2 4.6 8.3 7.3 1.4 1.8 4.2 0.5 3-1.3-1.8-2.8-5.1-6.1-8.7-7.1-10.1-2.9-22.8-12.5-26.9-20.4-1.5-3-2.5-3.6-3-2.4z"/><path class="J" d="m1 110.7c4.7 9.2 12.9 17.5 19.7 20.8-6.7-5.9-13.8-14-18.1-21.4-1-1.7-1.6-1.3-1.6 0.6z"/><path class="J" d="m15.3 170.9c2.9 4.3 9.5 9.1 15.4 9.3-4.2-1.6-11-6-14-10.6-0.9-1.3-1.6-1.1-1.4 1.3z"/><path class="J" d="m42.7 223.2c-4.6-2.2-8.8-4.5-12-6.9-0.8-0.6-1-0.5-0.8 0.3 6.1 27.2 32.6 50.4 62.4 53.2-32.1 3.1-63.2-29.7-64.4-56.6-0.1-1.6 0.3-1.6 1.7-0.3 2.8 2.6 7 5.6 9.5 7 1.3 1.2 2.2 2.1 3.6 3.3z"/><path class="J" d="m33.2 114.9c3.5 6.9 10.3 13.7 16.9 18.1l1.5 0.3-0.3-2c-5.2-3-14.2-12.4-18.1-19.5 0 1-0.1 1.8 0 3.1z"/><path class="J" d="m32.7 135.8c1.5 2.3 4.9 5.8 6.9 7.5l1 2.3c-1.7-0.7-3.7-2.1-5.4-3.8q-1.2-1.1-1.2 0.3c-0.6 7.9 1.7 25.1 9.5 39.2-9.5-13.7-13.8-32.9-10.8-45.5z"/><path class="J" d="m86.4 214.7c-3.2-5.3-6.1-14-7.5-19.7-0.5-2.2-1.1-1.9-0.7-0.1 1.2 6 3.8 14.1 7.1 20.2 0.5 0.9-0.6 1.8-2.5 0.5-19.2-12.9-33.7-34.4-41.6-61.1-0.3-0.9-0.1-1 0.8-0.3q2.4 2 5.5 3.9l-1-1.8c-2.8-2.2-6-5.4-8.3-7.7 6.1 29.6 22.7 57.1 47.3 70.9 9.5-5.8 24.1-21.1 29.4-33.9-7 10.5-17.7 22.4-26.7 29.2-0.8 0.7-1.4 0.6-1.8-0.1z"/><path class="K" d="m125.7 154.4c9.8-3.6 24.7-10.5 29.6-14.8 2.2-2 5-3.6 7.6-4.7-0.4 27.2-11.8 47.4-31 61.3-4.7 24.8-23.6 56.6-38.4 64.7 11.6-10.7 30.3-37.4 34.9-62.9 0.3-1.6 0.6-2.4 2.8-4.2 14.5-11.8 26-30.8 28-50.5 0.2-1.9-0.2-2-1.8-0.9-6.4 4.5-14.3 8.5-20.9 11.3-4.3 41.4-34.8 86.9-43.3 88.1-3.2 0.5-17.3-10.4-23.9-34.5 5 4.8 10.3 8.7 16.1 12.1 18.5-12.7 36-33.7 40.3-65z"/><path class="J" d="m69.3 114.7c-1.7 6.8-2.3 15.9-2.1 22.3 0 2.3 0.4 2.3 0.4 0 0.2-6.8 1.2-14.7 3.2-21.7l-0.5-2z"/><path class="J" d="m60.1 171.8c2.3-5.6 4.2-11 6-15.9 0.5-1.6-0.1-1.6-0.6-0.2-1.7 4.5-3.6 10.6-5.7 15.9z"/><path class="J" d="m125.2 107.4c-3.9 7.4-13.6 17.7-21 22.6l-3.1 0.8c5.7-4.6 18.5-16.6 23.5-26.2q0.4 1.4 0.6 2.8z"/><path class="J" d="m232.3 77.7c-11.3 8.7-43.1 20.7-66.6 29.9-11.8 4.6-19.3 10.6-23.4 17.4 5.2-5.5 12.5-10.2 18.3-11.7 22.9-10.6 54.9-20.8 70.3-32.5 1-0.7 1.3-0.5 1.1 0.5-2.6 14.7-13.5 31.6-21.7 39.1 13.5-8.3 21.2-24.2 23.8-41.6 0.3-2-0.4-2.2-1.8-1.1z"/><path class="K" d="m142.3 125.1c-3 4.9-4.2 10.3-4 15.9 0.1 2.7 0.2 6.4-1.1 8.8 1.4-0.7 2.4-1.2 3.6-1.9-1.3-15 5.4-27.8 19.8-34.5-5.8 1.5-13.1 6.2-18.3 11.7z"/><path class="J" d="m210.6 120.9c13.9-2.5 33.7-10.3 45.3-18.9 1.7-1.2 2.1-1.1 1.7 0.6-5.7 21.1-27.3 47.7-53.9 68.2 29.4-17.3 55.3-51.8 57.1-73.7 0.1-2.2-0.6-1.6-2-0.5-11.2 9.1-25.9 16.9-46.3 22.7z"/><path class="J" d="m210.2 167.2c6.2-0.1 19.3-3.7 30-11.7 1.4-1 1.9-0.7 1.4 0.7-5.5 15-30.4 41.4-43.6 48 24.2-10.5 44.9-38.6 47.3-52.6 0.4-2.4-0.5-2.6-2-1.3-6.9 6.4-21.4 13.5-31.4 15.3z"/><path class="K" d="m76.1 213.1c2.4 12.2 13.5 23.4 16.3 23.1 7.2-0.5 36-49.5 37.5-79.7-1.7 0.6-3.1 0.9-4.5 1.2-4.2 25-21.3 50.5-40 61.8-2.1-1.2-5.8-3.6-9.3-6.4z"/><path class="K" d="m56.1 196.8c-5.3-2.8-9.8-6.2-15.5-10.6-5.1-3.8-6.8-2.7-2.5 2.2 2.8 3.2 10 9.3 14.7 12.3 0.9 0.6 1.2 0.8 1.3 2 1.1 7.3 4 18.2 6.4 24.7 0.4 0.9 0.2 1.2-0.8 0.8-5.1-2.4-8.8-4.5-12.8-7.5-4.7-3.4-6.8-1-2.3 4 6.2 7 16.6 16.5 24.7 22.2 0.8 0.5 1 0.8 1.5 1.7 4 7.8 10.7 16.6 16.9 21.8 2.1 0 3.4 0 5-0.2-7-6.9-14.1-16.2-15.1-27.9-6.6-10.4-14.8-27.7-18.2-42.7-1.2-1-2.4-1.8-3.3-2.8z"/><path class="K" d="m56.3 197.5c1.7 11.1 7.1 34 16 47 2.6 5.9 10.9 18.8 16.6 22.2-7.3-8.5-10.8-17.5-11.3-24.4-8.2-13.6-14.4-27.3-18.2-42.7-1.1-0.9-2.3-1.6-3.1-2.1z"/><path class="J" d="m118 226.4c-4.8 8.6-15.2 23.8-22.9 30.8-0.6 0.5-0.8 0.4-0.9-0.4-0.7-3.9-1.6-9-2.2-13-0.4-2.4-1.4-2.2-1.2 0.1 0.5 4.6 1 8.9 1.5 12.5 0.1 0.7-0.1 0.7-0.7 0.3-10.3-8.5-27-39-31.5-56.9 4.4 25.9 21.5 51.2 33.5 61.2q0.7-0.7 1.4-1.4c7-7 16.2-19.2 23.3-33.1z"/><path class="K" d="m88.1 270.4c5.7 9.3 13.2 17.5 20.8 23.3 3.4-5.2 10.6-17.7 14.4-27.1-7.1 1.9-13.6 3.1-18.9 3.3 6.2-6.1 19.4-20.5 19.6-29.3-3.1 0.5-7.7 0.7-11-0.1-4.1 5.8-11.5 15.5-19 20.9-3.1-2.6-12.4-11.7-16.4-19 0.2 6.3 4.9 18.5 15.1 27.8-1.5 0.2-3.2 0.4-4.6 0.2z"/><path class="K" d="m124 240.7c-3.1 0.4-7.7 0.6-11-0.2-4.1 5.9-11.5 15.6-19 20.9-3.2-2.6-12.4-11.7-16.4-19 0.2 6.3 4.9 18.5 15.1 27.9 4.5 6.1 13.2 14.2 19.5 18.1 3.6-6.2 8.3-14.8 11.1-21.7-7.1 1.8-13.6 3-19 3.2 6.3-6.1 19.5-20.5 19.7-29.2z"/><path class="K" d="m75.2 98.6c9.5 10.8 16.1 27.1 14.8 34.8-0.5 2.7-0.7 6.8-0.8 9.7 0 1-0.4 1.6-1 1.9-4 2.2-12.7 6.7-17.4 9.6-2.8 4.5-7.8 12.6-9.9 17.2 4.8-1 10.4-2.6 14.3-4.7-2.9-0.9-5.5-1.7-7.1-2.7 1.7-1.1 7-2.4 10.1-2.3-1.2-1.7-2.8-3.4-4.9-5.5 4.5-2.8 11.9-7.1 16.9-9.6 0.8-0.4 1.3-0.7 1.3-1.8 0.1-3.4 0.5-9.8 2.5-13 0.7-1.2 0.6-3.3-0.4-4.9-0.9-1.5-1.6-3.2-1.9-4.9-1.8-10.1-11.9-21.9-16.5-23.8z"/><path class="K" d="m58.3 101.4c-0.9 5.8 0.4 28.5 4.9 32.4 0-0.8 0.1-1.9 0.3-2.8-0.8-1.3-1.4-3.5-1.1-5.5-1-4.4-3.2-18.6-4.1-24.1z"/><path class="K" d="m69.9 113.5c1 6.9 1.6 14.9 1.6 20.9 0 1.1 0.5 1.8 2.1 0.9-0.4-6.9-1.8-16.8-3.7-21.8z"/><path class="J" d="m76.8 104.2c-2.4 3.5-4.8 7.6-5.9 10.6 0 0-0.6-2.1-0.6-1.8 1.1-2.8 3.5-6.7 6-10.2z"/><path class="J" d="m77.7 100.1c0.8-1 1.5-1.5 2.5-2.4l0.5 1.1q-0.8 1-1.8 2.3z"/><path class="K" d="m77.2 107.3c-2.3 3.1-4.8 9.6-5 15 0.5 3.8 1.2 7.7 1.4 12.3 1.9-1.6 3.8-3.4 5.2-5.2 0.1-5.5-0.1-15.5-1.6-22.1z"/><path class="K" d="m122.1 108.7c2.6 16.7-1.9 33.9-8.2 47.3 0.9-0.7 2.2-1.7 3.1-2.4 6.9-11.1 11.5-29.1 7.6-48.9-0.8 1.4-1.6 2.6-2.5 4z"/><path class="K" d="m96.4 102.5c-1.3 2.1-2.3 4.3-3 6.3-0.3 0.7-0.3 1.2 0 1.9 1.9 4.6 5.2 10.8 7.8 15.3 0.5 0.7 0.8 0.8 1.6 0.3 1.5-1 2.9-2 4.3-3l0.8 1.3c-1.9 1.8-4.1 3.9-7.3 6.6-2.5 0.7-4.8 0.8-6.6 1 0.6-1.4 0.5-3.4-0.4-4.9-0.8-1.4-1.3-2.8-1.8-4.5-1.1-3.9-2.4-7.2-3.8-9.9 1.9-4 3.2-6.4 5.1-9.2 1.2-0.5 1.9-0.7 3.3-1.2z"/><path class="K" d="m71 83.3c0.6 12.5 12.9 14.9 21 5.1 4.8-5.8 9-8.7 18.3-12.9 15.1-6.9 21-24.4 22.6-41.5 2.7 22.1-6.4 38.7-17 43.5-4.3 1.9-11.3 6.9-14 9.7 4.8-2.7 14.4-6.1 21.2-6.6-5 2.2-10.1 5.2-12.8 7.5-1.6 1.4-3.4 2.8-5.1 3.6-6.7 3.5-14.8 14.4-17.3 21.2-1.3-2.5-3.1-5.4-5.1-7.6-0.6-2.2-1.5-5.3-2.5-7.4-1.1 0.8-1.7 1.4-2.6 2.2-0.8-0.5-1.5-1-2.5-1.4 0.3 1 0.6 1.9 0.8 2.9-1.2 1.4-2.5 2.8-3.7 4.4-2.9-7.4-3.4-13.6-1.3-22.7z"/><path class="K" d="m118.4 1.8c9.3 16.8 6.2 30.6-2.1 44.5-1.7 2.9-0.1 4.7 2.5 3.7 11.2-17.1 13.8-33.3-0.4-48.2z"/><path class="K" d="m223.8 195.8c-6.3 18.4-34 44.1-49.5 53-13.6 7.8-49.6 19-69.9 21 9-8.4 19.2-22.1 19.7-29.2-3.8 0.6-7.8 0.6-11.1-0.1 7.5-10.1 16-28.4 19-44.3 21.6-14.6 30.1-38.2 30.6-57.2 3.5-12.1 10.8-20.4 22.7-24.8 15.8-5.9 39.6-20.9 48.6-37.2-1.9 35.2-29.2 50.1-49.9 55.5-13.5 3.5-17.1 7.7-17.8 13.6-1.1 8.5-3.8 20.4-7.7 31.1-1.6 4.3-0.2 6.7 3.3 7.3 2.5 0.4 8.3-0.5 15.4-1.4 1.6-0.2 1.8 0.3 0.3 1-23.3 11.7-33 20.2-35.2 28.9-0.7 2.5-0.3 3.9 2.4 3.7 5.2-0.3 10.6-1.4 17-3.5 6.9-2.4 8.9 0.5 2.8 5.5-9 7.4-18.9 13-30.3 19.1-2.1 5.8-5.5 12.8-9.5 18.9-1.1 1.7-1.1 2.1 1.3 1.4 30.4-10.1 66.5-41.5 75.4-55.3 5.9-1.8 14.4-4.8 20.1-7.8 1.6-0.9 2.8-0.5 2.3 0.8z"/><path class="K" d="m161.3 153.3c-1.4 8.9-3.7 16.3-7.6 26.1-2.4 5.8-0.4 11.3 15.2 8.5-12.1 5.9-19.1 9.2-30.2 13.3-3.7 1.3-4.4 2.5-4.9 4.9-2.8 12.2-8.5 26.3-14.2 35-2.1 0-4.8-0.2-6.6-0.6 8.3-12.2 14.9-27 18.9-44.3 18.8-14.5 24.7-27.1 29.4-42.9z"/><path class="J" d="m200.3 203.5c6.3-0.7 13.1-2.3 19.1-5.1 1.1-0.6 1.5-0.5 1 0.6-8 14.6-28.1 35.1-45.3 46.2-8.5 5.6-39.3 17.6-70.2 24.1 12.3 0.5 52.6-10.4 71.5-21.7 16.4-9.9 40-34.3 47.2-50.9 0.9-2.3-0.8-2.7-2.6-1.5-4.3 2.6-14.2 6.3-20.7 8.3z"/><path class="K" d="m223.8 195.8c0.5-1.3-0.7-1.7-2.3-0.8-3.2 1.7-7.3 3.4-11.3 4.8-18.4 34.9-64 58.1-102.2 66.4q-1.8 2-3.6 3.6c20.3-2 56.3-13.2 69.9-21 15.5-8.9 43.2-34.6 49.5-53z"/><path class="K" d="m260.3 95.6c-6 17-39.8 43.2-62 51.5-19.7 7.4-27.6 15.7-25.2 24.6 2.2 7.9 17.4 6.6 29.7 0 29.4-15.8 59.2-57 57.5-76.1z"/><path class="K" d="m259.2 105.1c-12.4 21.9-30.1 36.4-52.3 46.3-20.7 9.2-23.9 12.9-22.7 17.2 1 4 13.3 3.3 26.8-2 22.2-15.3 43-42.8 48.2-61.5z"/><path class="K" d="m98.1 131.6c5.2 1.1 6.5 3.5 5.5 6.1-5.4 14.4-7.1 25.4-5.3 34.3 2.1 10.3 2.3 15.7-1 20.8-4 6.3-9.9 6.8-12.8 4.6-2.8 0.2-7.1-3-8.5-7.2-1.7-1.6-4.1-5.3-4.7-7 6.8-2.5 15-9.4 15.4-11.2 0.4-1.8-0.4-5.8-2.4-10 1.9 0.7 3.1 0.9 4.1 1.1 1 0.1 2-0.2 2.7-1.4 2.2-4.1 5-9.7 6.1-15.4-2.8 2.9-6.2 6.3-8.3 8.9 0.8-2.4 1.8-6 2.1-8.6 0.3-0.3 0.6-1.2 0.6-2.1-0.2-3.8 0.8-10 2.4-12.3 1.1-0.1 2.4-0.2 4.1-0.6z"/><path class="K" d="m65.7 173.3c0.7 0 1.6 0 2.5 0 0.7 0 1.1 0.2 1.4 0.8 1 2.3 1 5.2 0.3 6.1 2.1-0.5 7.4-4.2 9.2-6.1 0.6-3.2 0.9-6 0.9-8.5 1.1 0.9 2.8 3 3.5 5 0.6-4.8-0.1-8.8-5.8-9.4l0.5 0.9c-3 0.1-7.1 0.8-10.1 2.3 2.4 1.2 4.7 2.1 7.1 2.7-2.3 1.3-5.2 2.4-8.8 3.4 0 0.9-0.3 2.1-0.7 2.8z"/><path class="K" d="m59.1 172.9c0.3 0.3 1.1 0.4 2.2 0.3 0.8-0.1 1.2 0.1 1.3 0.5 0.1 0.9 0.2 1.8 0.2 2.7 1.1-0.5 3.3-3.2 3.6-5.9-1.9 0.6-5 1.3-6.5 1.4-0.2 0-1.8-1.1-1.8-1.1 0.2 0.6 0.6 1.5 1 2.1z"/><path class="K" d="m94 169.7c-0.8-4.7-0.2-10.3 1-16.2-1.2 3.1-2.7 5.9-3.9 8.2-0.7 1.2-1.6 1.5-2.7 1.3-1-0.1-2.2-0.4-4.1-1 2 4.2 2.8 8.2 2.4 10-0.3 1.6-6.8 7.2-13 10.1 3.3 8.1 10.7 12.9 15.7 11.5 6-1.6 7.4-6.6 4.6-23.9z"/><path class="K" d="m95.1 132.1q-0.6 0.1-1.1 0.1c-1.6 2.3-2.6 8.5-2.5 12.3 0 0.9-0.2 1.7-0.6 2.1-0.3 2.6-1.2 6.2-2 8.6 1.9-2.4 5-5.5 7.6-8.2 0.8-2.9 1.7-5.7 2.6-8.4 0.5-1.4 0.2-1.9-1-2.5-1.7-0.9-2.7-2.3-3-4z"/><path class="K" d="m130.8 152.4c-0.1-3.8 0-8.7 0.2-12.3-3 0.1-5.7-0.5-7.6-1.5-1.4 4.3-3.8 10.6-6.3 14.8 3.8-3.1 7.6-6.9 9.3-9.7 0.1 3 0.1 7.4-0.5 11 1.5-0.7 3.2-1.5 4.9-2.3z"/><path class="K" d="m123.4 138.6c3.8 2.1 11.3 1.5 14.7 0.4 0.1-4 1.2-8.2 2.8-11.4-4-3.1-9.4-5.3-15-6.7 0.1 5.5-0.8 11-2.5 17.7z"/><path class="K" d="m106.1 120.5c1.9-0.7 4.4-1.1 7.3-1.2-2.2 2.4-3.6 3.7-5.5 5.3-0.8-1.3-1.3-2.7-1.8-4.1z"/><path class="K" d="m221.7 201.3c14.7 10.9 25.9 27.4 27.5 55.7 12.8-25 7.5-61.9-5-86.5 9.8 1.5 21.9-2.6 25.8-8.7-6.8 4.2-22.1 8.1-30.9 4.4-6.3 10.3-18.1 23.3-26.7 29.1q1.8 1 3.6 2.1c1.5-0.5 3.2-1.1 4.7-2.1 2.5-1.4 3.4-1 2.9 1-0.2 1.3-0.9 3.2-1.9 5z"/><path class="K" d="m201.9 235.6c2.9 1.3 7.4 1.7 11 0.5-0.3-1.3-0.7-2.9-1.1-4.1 4.5 1.3 11.5-1.7 15.1-5.5 2 4.3 5.2 15 6.5 19.3 2.5-1.4 5.3-4.1 6.1-7.6q-0.7-4.3-1.8-7.7c1.6 1.3 3.2 3.3 4.4 5-0.3-4.2-0.9-8.8-1.9-13.7-4.8-9.1-13-16.5-18.6-20.9-6.1 12.6-25.8 32.3-38.8 42.1 1.1 3 3.5 6.7 5.2 8.6 3.8-1.2 9.6-3.1 14-6.1 0.8-0.6 1.7-0.4 2.4 0.3q5.4 5.6 12.6 9.9c0.9 0.5 1.2 0.4 1.2-0.5q0.2-1.4 0.2-2.7c0-1.4 0.5-1.5 1.2-0.4 3.5 4.8 10.2 10.7 14.5 13.6 0-1.6 0.2-3.2 0.4-4.3-7-5.7-16.8-18.4-20.6-24.5l-0.8 0.3c0.6 3.3 1.2 7.7 1.4 11-3.7-2.3-10.2-8.1-12.6-12.6z"/><path class="K" d="m168.6 275.3c1.8-0.8 3.5-2 4.7-3.3-1.1-5.7-2.8-14.5-3.5-21-6 3.2-12.9 6-19.4 7.9 1.7 4.6 3.8 11.3 4.9 16.3 1.6 1.4 4 1.9 6.5 1.8 0.8-1.7 1.8-3.4 2.6-4.4 1.2 0.6 2.5 1.4 4.2 2.7z"/><path class="F" d="m183.7 316.2c1.2-3.8 2.6-9.5 3.8-15.3-8.6 6.6-24.2 8.9-33.1 5.3 2.3 4.5 4.7 8.1 7.2 10.5q0.7 0.7 1 1.5c6.1-2.6 14.6-3.3 21.1-2z"/><path class="I" d="m156.6 301.5c1.3-8.5 4.3-18.4 7-23.3 0.6-1 1-1 1.2 0.2 1.5 6.7 2.4 11 3.9 17.5 0.3 1.6 1.1 1.9 0.9-0.1-0.9-7-2.1-14.4-3.3-21.9-0.6-0.6-1.3-1-1.9-1.3-6.7 10.8-8.2 21.7-7.8 28.9z"/><path class="I" d="m52 270.7c-7.1 6.1-13.7 13.9-16.7 20.4 2-7.2 9.4-18.9 16.9-24-0.2 1-0.2 2.2-0.2 3.6z"/><path class="F" d="m38.9 306.5c4.8 4.7 13.1 9.4 20 12.4 1.1-1 1.6-1.8 1.9-3.9 0.4-3.2 2.8-9.9 4.3-12.6-6.9 5.4-17 4.3-30.9-2.6 1.1 2.4 2.6 4.2 4.7 6.7z"/><path class="K" d="m58.9 277.8c3.2 4.7 7.7 8.5 11.5 10.7 0.8-0.5 1.9-1 2.8-1.4 2.4-4.1 6.3-10.6 9.5-14.8l-0.6-2.3c-4.5-0.9-12.8-3.5-17.2-6-1.1 2.8-4 9.5-6 13.8z"/><path class="K" d="m212.8 195.2c-2.2 1.7-7 5.3-10.5 7.1 4.8-1.4 11.1-3.1 14-4.8-1.4-0.9-2.5-1.8-3.5-2.3z"/><path class="K" d="m124.4 146.6c-0.1 10-5.1 27.6-10.5 40.9 7.3-10 13-29.7 12.5-43.3-0.7 0.7-1.3 1.6-2 2.4z"/><path class="p" d="m120.4 296.1c-2.3 3.5-5.5 8.4-7.8 13.5l0.5 0.2c2.6-5 5.6-8.9 8.1-12.6z"/><path class="p" d="m128.2 298.3c-4.7 3.8-10.9 9-15 12.3l0.5 0.1c3.9-3.1 10.3-7.5 14.9-11.1z"/><path class="p" d="m132.5 303.6c-3.6 2.2-12.1 5.5-17.2 7l0.3 0.4c5.8-1.3 12.4-3.4 16.9-6z"/><path class="p" d="m212.6 309.4c0.6 3.1 2.2 8.1 4.9 11.6l0.8-0.2c-1.7-2.1-4.2-8.3-4.8-11.5z"/><path class="p" d="m218 306.1c0 3.4 0.4 10.7 1 15.6l0.8-0.1c-0.5-5-0.8-11.9-0.7-15.4z"/><path class="p" d="m225.6 305.1c-1.2 4.8-4.1 13.4-5.9 17l0.8 0.1c2.1-3.5 4.9-11.8 6-16.5z"/><path class="p" d="m232.3 308.5c-2.7 4.7-6.3 9.2-10.6 12.8l0.3 0.5c4.8-3.1 8.6-8 11.1-12.4z"/><path class="L" d="m30 311.8c-3.6 4.3-7.1 9.4-10.1 14.8l-0.4-0.6c1.7-4.4 5.7-11.9 9.5-16.5z"/><path class="L" d="m35.8 312.9c-3.5 3.2-10.4 9.7-14.5 14l0.4 0.2c4-3.9 10.7-9.3 14.8-12.9z"/><path class="L" d="m43.2 318.6c-4 2.9-13.4 6.8-19.6 8.3v0.4c6.2-1.1 16-4.4 19.9-7.1z"/><path class="L" d="m160.3 330.8c1.6 4.7 6.1 11.1 9.9 14.5h0.9c-3.9-3.7-8.1-10.7-9.9-15.4z"/><path class="L" d="m167.5 324.9c0.8 3.9 1.8 8.6 3.1 13 1.5 5 1.9 4.9 0.7-0.2-0.9-4.4-1.8-9.1-2.6-12.9z"/><path class="L" d="m179.4 323.3c-1.1 6.2-3.3 16.8-5.2 22.4h0.5c2.4-5.7 4.8-15.9 5.7-21.4z"/><path class="L" d="m189.5 327.5c-3.3 6.2-9.1 13.7-13.6 17.6l0.6 0.2c4.5-3.5 10.6-10.9 13.6-16.5z"/><path class="K" d="m71.2 51c7.5 1 13 6.2 13.4 14.7 0.1 2.2 1.9 2.6 2.8 1.4 0.4-13.4-10.6-17.7-16.2-16.1z"/><path class="M" d="m63 158.7c-1.8 1.3-3.4 2.6-5.4 4.4 0.7 0.2 1.5 0.3 2.4 0.4 1.2 0.1 1.4 0.4 0.2 1.2-1.6 1.1-3 2.3-4.3 3.5 1.1 1.3 2.4 2.3 4 3.2 4.3-0.7 9.9-2.3 14.1-4.2-2-0.5-3.6-1-5.7-2-1-0.5-1.1-0.9-0.1-1.4 2.7-1.3 6.5-2 9-2.2-1.3-1.6-2.5-2.9-4-4.3-0.6-0.6-0.6-0.8 0.3-1.4 5.1-3.2 12.4-7.4 16.5-9.5 0.7-0.3 0.8-0.5 0.8-1.4 0.3-6.1 0.9-9.5 2.4-12.6 0.7-1.6 0.8-2.7 0-4.3-0.9-1.7-1.4-2.9-2-5-3.1-11.4-9.5-19.3-15-23.3 2.5 7.8 3.6 17.5 3.4 29.1-0.1 0.6-0.2 0.9-0.5 1.3-1.5 1.5-2.9 2.9-4.6 4.4-1.3 1.1-1.5 1.1-1.6-0.7-0.6-6.9-1.8-14.4-2.8-19.4-2.8 4.8-6.4 13.8-6.8 22.6-0.1 2.4-0.9 2.4-0.9 0-0.1-8.8 3.4-17.5 6.9-23.5 0.9-1.5 1.3-1.6 1.7 0.3 1.6 6.6 2.8 13.9 3.1 19.3 1.4-1.3 2.7-2.6 4-4.2 0.3-11.7-0.6-20.9-3.1-29.2-0.7-2.3-0.4-2.5 1.5-1.3 5.8 3.9 12.9 12.7 16 24.3 0.6 2.1 1 3 1.9 4.7 1 1.9 1 3.4 0 5.5-1.3 2.6-2.2 5.6-2.3 12.1 0 1.3-0.3 1.8-1.5 2.4-4.1 2.1-11.6 6.2-16.5 9.2 1.2 1.2 2.7 2.7 4.2 4.5 0.8 1 0.7 1.3-0.6 1.4-2.7 0.2-6.5 0.9-8.6 1.9q2.4 1 5.7 1.9c1.5 0.4 1.7 0.8 0.2 1.5-4.3 2.2-10.5 3.7-14.9 4.5-0.3 0.1-0.5 0-0.8-0.1-1.6-1-3.2-2.1-4.3-3.6-0.4-0.5-0.5-0.7 0.2-1.3 1.2-1.1 2.6-2.1 3.9-3.1-1-0.1-1.5-0.2-2.4-0.4-1.1-0.3-1.1-0.5-0.3-1.2 2.3-2 4.2-3.6 6.9-5.5z"/><path class="M" d="m60 166c1.1-3.4 2.4-7.4 3.3-10.3 0.7-2.1 1.6-1.8 0.9 0.3-0.8 2.9-2.1 6.8-3.4 10.2-0.8 2-1.4 1.8-0.8-0.2z"/><path class="M" d="m70.5 156.3c-1.7 2.9-3.8 6.2-5.8 9.2-1.1 1.8-1.7 1.5-0.6-0.4 1.8-3 3.7-6.4 5.5-9.3 1.3-2 2.1-1.5 0.9 0.5z"/><path class="M" d="m63.4 156.7c-3-2.4-6.1-4.9-8.6-8.5-0.2-0.3-0.3-0.4-0.4-0.7-6-17.3-5.3-32.7 3-45.8 1.1-1.8 1.5-1.7 1.7 0.4 0.9 7.8 2.6 16.9 3.6 22.4l-0.5 2.8c-1.9-8.1-3.4-18.3-4.1-24.7-7.4 12.9-8.4 27.4-2.4 44.7 2.4 3.5 5.1 5.7 8.1 8.3z"/><path class="M" d="m59.4 160.7c-1.1-0.5-2.1-1-3-1.6-0.4-0.2-0.5-0.3-0.6-0.7-0.9-1.9-1.8-4.9-2.5-7.8-0.5-2.2 0.1-2.4 1-0.3 0.4 1.1 1.1 2.4 1.9 3.5-0.8-1.9-1.1-4.2-1.2-6l1 1c0.2 1.9 0.7 4.4 1.7 6.4 0.7 1.4 0.3 1.6-0.7 0.7-0.7-0.6-1.2-1.2-1.8-2.1 0.5 1.6 1 3.1 1.6 4.3 1 0.6 2.1 1.2 3.6 1.9z"/><path class="M" d="m77.1 160.6c2.2 0.3 4.3 1.1 5.4 2.2 1.4 1.6 1.9 5 1.7 7.2-0.2 1.9-0.8 1.9-1.5 0.2-0.5-1.4-1.4-2.6-2.2-3.5 0 2.1-0.2 4.4-0.9 7.3-0.1 0.4-0.2 0.5-0.5 0.9-2.1 1.9-5.3 4-7.3 5.2-1.3 0.8-2.3 0.9-3.2 0.3-1.3-0.9-3.6-1.6-4.5-1.3-0.5 0.2-1.4 1.5-1.4 1.8 0 0.4 0.9 1.6 1.4 1.7 0.9 0.3 5.3 0.3 7 0 2.6-0.5 14.7-8.3 15.1-10.9 0.3-1.7-0.7-5.3-2.2-9-0.5-1.1-0.3-1.5 1.1-1 1.3 0.4 2.6 0.7 3.5 0.8 1 0.1 1.3-0.1 1.8-0.8 2.3-3.4 5-10.3 6-14.1-1.6 1.7-3.9 4.2-6.5 7.1-1.5 1.7-1.9 1.4-1.3-0.6 0.9-2.4 1.6-5.5 1.9-7.2l1.2-1.1c-0.6 3.2-1.3 6.1-1.8 7.5 1.3-1.5 3.7-4.1 6.2-6.7 1.5-1.5 1.9-1.6 1.3 0.8-1.1 4.5-3.7 11.3-6.1 15-0.8 1.2-1.5 1.3-2.8 1.2-1-0.1-2.1-0.4-3.3-0.7 1.2 2.7 2.6 6.6 2.2 9-0.6 3.3-13.5 11.5-16.1 11.9-1.8 0.2-6.4 0.3-7.5-0.1-1.1-0.4-2.2-2.1-2.2-2.9 0-0.5 1-2.3 2.1-2.7 1.2-0.4 3.9 0.4 5.5 1.5 0.5 0.4 0.9 0.3 2.1-0.4 2.5-1.4 5-3.3 7.2-5.3 0.7-2.4 1-5.1 1-7.7 0-1.6 0.3-1.6 1.4-0.6 0.9 0.9 1.6 1.9 2.3 3.2 0-1.6-0.5-4.1-1.5-5.2-0.7-0.8-2.1-1.5-3.6-1.8z"/><path class="M" d="m62.2 181.5c-3.9-1.9-6.8-6.9-6.2-12.3l1 0.8c-0.1 4.4 2.1 8.5 5.4 10.3z"/><path class="M" d="m66.8 170.3c0.4 2.4-2.8 6.5-3.9 6.7-1.7 0.2-5.1-3.8-5.4-6.5l1.3 0.7c0.6 2.2 3.2 4.8 3.9 4.7 0.8-0.1 3.2-3.4 3.2-5.3z"/><path class="M" d="m63.6 146.2c-2-0.7-4.7-2.3-5.2-3.2-0.5-0.6-0.7-2.2-0.8-3.5-0.1-1.8 0.5-1.9 0.8-0.1 0.1 1.2 0.5 2.6 0.8 3.1 0.5 0.6 3.1 2.2 4.4 2.6 0.2-2.1 1.1-6.9 2.1-9.5 0.8-1.9 1.4-1.6 0.8 0.3-0.9 2.4-1.7 7.1-1.8 9.6 0 0.8-0.3 1-1.1 0.7z"/><path class="M" d="m68.3 144.7c0-3.4 0.1-6.2 0.4-9.3 0.2-2 0.9-1.9 0.8 0.1-0.1 3.2-0.1 6.4-0.1 8.9 3.1-0.3 7.8-2.4 8.7-3.3 1.4-1.4 2.4-3 3.4-5 1-2.1 1.7-1.8 0.7 0.3-0.9 2.1-2.3 4.5-3.3 5.5-1.1 1-6.3 3.3-9.6 3.7-0.8 0.1-0.9 0-1-0.9z"/><path class="M" d="m65.6 149.4c0.3 1.2 0.5 2.1 0.9 3.4 0.5 1.8-0.1 2-0.8 0.2-0.5-1.3-0.7-2.2-1.1-3.4-3.5-1.6-6.8-3.1-7.7-4.1-0.7-0.8-1.2-3.4-1.3-5.3-0.2-2 0.4-2.1 0.7-0.1 0.3 1.7 1 4.1 1.5 4.7 0.7 0.9 4.7 2.7 7.2 3.8 0.4 0.2 0.5 0.3 0.6 0.8z"/><path class="M" d="m68.6 152.6c-0.1-1-0.1-1.8 0-2.8 0.1-0.6 0.2-0.7 0.7-0.9 3.8-1.8 9.4-4.5 10.4-5.6 1.3-1.5 3.3-4.5 4.4-6.8 1-1.7 1.5-1.5 0.8 0.3-1 2.4-3 5.6-4.4 7.2-1.3 1.5-9.4 5.2-10.8 5.9-0.2 1-0.3 1.6-0.3 2.7-0.1 1.8-0.7 1.8-0.8 0z"/><path class="M" d="m60.7 130.8c-1.2-2.7-2.1-9.2-2.4-13.1-0.2-2.4 0.6-2.5 0.8-0.1 0.4 3.8 1.4 10.1 2.5 12.7 0.7 1.8-0.2 2.1-0.9 0.5z"/><path class="M" d="m55 135.2c-1.1-3.4-0.9-12 0.1-16.7 0.4-1.8 0.9-1.7 1.2 0.1 0.7 5.4 2.2 12.7 3.1 15.6 0.1 0.2 0 0.4-0.2 0.5-1.1 0.4-2.6 0.7-3.8 0.8-0.3 0-0.4-0.1-0.4-0.3zm0.7-14.4c-0.5 1.9-0.8 10.1 0.1 13.6 0.8-0.1 1.7-0.3 2.4-0.5-0.8-3.1-2.2-10.5-2.5-13.1z"/><path class="M" d="m81.4 130.4c1.4-4 0.7-10.6-0.8-15.9-0.5-2.1 0-2.4 1.1-0.5 2.4 4.2 5 9.6 5.8 16.4 0.1 0.8 0 1-0.7 1.1-1.4 0.1-3.2 0.2-4.7 0-0.9-0.1-1-0.3-0.7-1.1zm1.1 0.1c1.2 0.1 2.6 0.1 3.9-0.1-0.4-5.8-3.4-12.3-4.3-13.8 0.7 2.5 1.9 10.1 0.4 13.9z"/><path class="M" d="m89.6 131.9c-0.1-4.5-1.9-10.9-3.8-15.7-0.9-2.3-0.3-2.6 0.7-0.3 2.1 4.7 4.2 11.3 4.1 16-0.1 2.6-1 2.7-1 0z"/><path class="M" d="m56.3 163.8q-2.4-1-4.5-2.7c-0.3-0.2-0.5-0.4-0.7-0.7-3-4.9-7.7-20.9-9.1-28.7-0.2-1.2-0.1-1.4 1.1-1.2 2.8 0.6 6.3 1.5 8.4 2.2l0.2 1.4c-2.6-0.9-6.1-1.7-8.2-2.1 1.4 7.4 6.6 23.9 9 27.7 1.5 1.3 3 2.1 4.7 2.8z"/><path class="M" d="m94.2 131.7c5.4-0.8 12.9-2.8 18.8-5.9 1.1-0.5 1.5-0.3 1.5 1-0.2 9.2-3.4 25.2-7.4 30.5-0.3 0.4-0.5 0.5-0.9 0.7-3.8 1.8-8.1 3.3-12.1 4.4 1.7 1.9 4.9 4.4 7.8 5.8 0.6 0.3 0.8 0.5 0.5 1.3-2.4 8.3-9.8 16.5-16.5 20 0.4 1.8 0.6 3.2 0.9 5.2 4-1.4 8.1-3.7 9.8-6 1.7-2.3 6.8-11 9.5-16.8 1.1-2.4 1.7-2.2 0.7 0.3-2.5 6.2-7.3 15.1-9 17.4-1.8 2.4-6.8 5-10.9 6.5-1.1 0.3-1.3 0.1-1.4-0.9-0.2-1.9-0.5-3.8-0.9-5.6-0.1-0.7-0.1-0.8 0.6-1.2 6.9-3.8 13.4-11.7 15.6-19-2.5-1.3-5.8-4-7.7-6.1-1.1-1.2-1.1-1.6 0.4-2.1 4.7-1.5 8.7-2.9 12.2-4.7 3.6-4.7 7.2-21.7 7.3-28.9-4.8 2.4-13 4.5-19.3 5.4z"/><path class="M" d="m87.2 205.1c-1.6 0-3.6-3.1-3.3-6.5 0.2-2 0.8-1.9 0.8 0 0 3 1.6 5.1 2.5 5.1 1.7 0 10-4 13.3-8.2 1-1.3 3.6-9.9 8.6-19.9 1.1-2.4 1.7-2.1 0.7 0.3-4.6 10.3-7 19-8.1 20.4-3.5 4.5-12.6 8.8-14.5 8.8z"/><path class="M" d="m86.3 204.1c-0.1 2.2-0.3 4.1-0.6 6.9-0.3 2.6 0.2 2.7 0.8 0.1 0.5-2.6 0.8-4.6 0.9-6.8z"/><path class="M" d="m83.3 213.6c-5.3-5.5-7.8-17.9-8.2-29.6-0.1-2 0.6-2 0.8-0.1 0.8 11.8 4.1 23.7 8 29.2 1 1.4 0.6 1.7-0.6 0.5z"/><path class="M" d="m76.2 191.6c-3.5-2.2-6.6-4.9-9-8.3h1.7c2 2.6 4.4 4.9 7.1 6.7z"/><path class="M" d="m76.9 195.8c-3.6-0.7-7.3-2.6-11.4-5.7-2.5-1.9-5.9-6.8-9.7-13.7-1.3-2.4-0.7-2.7 0.7-0.4 4.1 6.7 7.6 11.1 10 12.9 3.7 2.8 7.1 4.5 10.1 5.4z"/><path class="M" d="m79.1 204.7c-3.8-0.2-9.7-2.9-12.4-5.6-4.3-4.2-9.5-13-12.6-20.9-1.1-2.8-0.5-3 0.7-0.3 3.6 7.7 8.8 15.9 13 20 2.6 2.7 7.5 4.9 10.9 5.2z"/><path class="M" d="m94.6 181.5c-1.6-1.2-2.8-2.5-3.8-3.6-1.7-1.9-1.2-2.4 0.5-0.5 1.1 1 2.4 2.2 3.9 3.3z"/><path class="M" d="m83.2 187.6c-1.4-1.3-2.5-2.5-3.5-3.8-1.1-1.4-0.6-1.8 0.6-0.5 0.9 1 2.3 2.3 3.6 3.5 1.3 1.3 0.6 1.9-0.7 0.8z"/><path class="M" d="m99.4 141.5c0.7-1.9 1.3-3.9 1.8-5.9 0.7-2.6 1.5-2.4 0.8 0.2q-0.8 3.1-1.8 6c-0.9 2.2-1.6 2-0.8-0.3z"/><path class="M" d="m115.6 154.4c8.7-13.1 11.3-32.4 8.7-48.1-3.1 6.6-14.6 18.7-22.3 24.5l-3.1 0.6c8.6-6.4 20-17.9 24.4-26 1.2-2.2 1.7-2.3 2.2 0.3 3.3 17.3-0.2 35.5-7.5 47.2z"/><path class="M" d="m46.9 157.3c-3.6-2.7-6.2-5.1-7.7-6.9 4.8 22.8 19.2 51.9 46.2 68.3 23.3-15.9 39.9-45.3 40.2-72.5-2.1 2.8-5 5.4-9.7 8.8-2.4 1.8-2.8 1.1-0.5-0.9 4.2-3.6 6.7-5.8 9.3-9.4 1.9-2.7 2.5-2.3 2.5 0.9 0 28.9-17.6 59.3-41 74.2-0.6 0.5-0.9 0.5-1.5 0.1-27.6-16-42.3-45.6-46.9-70.3-0.5-2.5-0.2-2.8 1.9-0.4 1.8 2 4 4.1 5.8 5.4z"/><path class="M" d="m51.4 132.2c-7.6-4.3-15.6-14.4-17.5-18.1-0.3 12.3 4.5 28.3 13.9 43.6 1.5 2.5 0.9 2.8-0.7 0.5-9.8-14.6-14.9-30.8-14.5-45.4 0.1-2.6 0.5-2.7 2-0.2 3.3 5.6 9.8 13.6 16.7 17.8z"/><path class="M" d="m49.1 132.8c-2.6-1.8-6.4-4.9-8.5-7.3-1.9-2.1-1.5-2.6 0.5-0.6 2.2 2.3 6.1 5.4 10.5 8.4z"/><path class="M" d="m51.1 128c-4.1-8.4-8.9-13.6-12.2-15.8-1.8-1.3-1.5-1.8 0.4-0.7 3.5 2 8.2 7.1 11.9 14.2z"/><path class="M" d="m17.3 128.5c-4.6-7.9-8.7-27.1-8-39.5 0.2-4 2.5-4.3 4.1-1.2 4.6 9.3 17.4 18.1 27.8 21.7 4.3 1.5 7.3 4.5 10.5 9.3l-0.3 2.2c-4-5.9-7.1-8.6-10.8-9.9-10.7-3.7-23.8-12.5-28.6-22.5-0.7-1.6-1.1-1.5-1.2 0.4-0.5 11.9 3.3 31.6 8.9 41.4z"/><path class="M" d="m41.6 222.7c-12.6-8.8-26.3-33.2-26.9-52.8-0.1-2.8 1-3.1 2.6-0.7 2.8 4.1 8.2 7.9 11.2 9.1-19-19.2-29.7-51.8-28.4-68.3 0.2-2.8 1.5-3 2.8-0.6 4 7.1 11 15.3 16.8 20.3 2.6 2.3 2.2 3-0.6 0.9-6.3-4.9-13.5-13.5-17.1-20-0.4-0.7-0.6-0.6-0.6 0-0.7 15.3 9.6 47.6 28.6 67.5 2.2 2.3 1.7 2.5-0.9 1.8-4-1.2-9.9-5.5-12.7-9.8-0.3-0.5-0.4-0.5-0.4 0.1 1.1 19.4 14.6 42.9 26.2 51.7 1.8 1.5 1.3 2.1-0.6 0.8z"/><path class="M" d="m76.7 241.2c0.4 9.7 5.6 19.7 14.4 28.5-12 0.4-25.6-4.7-38.3-14.7-14.2-11.1-24-28.7-24.4-41.9-0.1-0.5 0-0.6 0.5-0.2 2.9 3 6.8 5.9 11.6 8.6l-3.1-3.3c-2.1-1.2-5.7-4.2-8.2-6.8-1.4-1.4-2-1.1-2.1 0.6-0.6 14.2 9.7 33.1 24.5 44.7 11.8 9.3 26.5 15.3 39.9 14.3 2.3-0.1 2.5-0.4 0.6-2.4-8.1-8.3-12.9-17.1-13.7-25.1z"/><path class="M" d="m33.4 119.1c-6.8-3.4-16.1-14.1-19.9-23.2-1-2.5-0.4-2.8 0.7-0.3 4.2 8.7 12.7 18.4 19.1 21.9z"/><path class="M" d="m24.4 148.1c-7.3-5.9-16.5-16.2-19.6-25.7-0.9-2.8-0.3-3 0.7-0.2 3.5 9 12.5 19 19.8 24.8 1.5 1.2 2.3 0.9 2.6-0.9 0.7-3.5 0.2-10.7-0.4-15.8-0.6-5.7-2.5-10.2-4.8-12.7-4.3-4.8-8.8-12.8-10.9-20.2-0.7-2.4-0.1-2.6 0.7-0.3 2.5 7.1 7 14.9 11.2 19.6 3 3.4 4.8 7.5 5.4 13.5 0.7 5.4 0.9 12.4 0.3 16.3-0.6 3.2-2.6 3.6-5 1.6z"/><path class="M" d="m35.6 166.2c-14.6-7-27.3-26.7-31.5-39.3-0.9-2.9-0.4-3 0.7-0.3 5.2 12.2 16.9 30.1 30.2 37.3z"/><path class="M" d="m40.1 157.3c-1.2-1.5-2.1-2.7-2.9-3.7-1.4-1.9-0.9-2.3 0.5-0.6 0.6 0.8 1.3 1.4 2 2.2z"/><path class="M" d="m43 166.3c-2.6-3-5-6.3-6.3-9.3-1.2-2.8-0.7-3 0.7-0.3 1.4 2.6 3 4.8 4.7 6.8z"/><path class="M" d="m40.3 144.8c-3.4-2.8-5.6-5.2-7.2-7.6-3.4 19.9 8.4 48.8 26.3 61.6 0.4 0.3 0.6 0.6 0.7 1.1 6.5 25.1 20.7 50.3 33.8 60.6 14.3-11.2 31.5-36.4 37.3-64 0.1-0.5 0.3-0.7 0.7-1.1 19.6-15.5 29.4-34.5 30.4-59.4-1.6 0.7-4.1 2.4-6.6 4.4-5 3.8-16 9.1-30 15l0.1-1.6c13.8-5.6 24.2-10.9 28.9-14.6 2.6-2 4.9-3.4 7.6-4.6 1.1-0.5 1.4-0.3 1.3 1-0.5 26.7-10.8 46.1-30.9 61.1-5 27.9-23.1 53.8-38 65-0.6 0.5-0.9 0.4-1.4 0-14-10.7-28.4-35.9-34.5-61.7-18.7-12.7-31.1-42.4-26.9-63.7 0.4-1.7 0.8-1.8 2-0.2 1.8 2.6 3.7 4.7 5.4 6.2z"/><path class="M" d="m125.4 157.2c5.9-1.6 19.5-7.2 28.3-12.7 3.2-2 3.5-1.5 0.4 0.6-8.3 5.8-22.4 11.8-28.7 13.2z"/><path class="M" d="m120 168.2c1.9-6.7 3-10.9 3.6-15.5 0.4-2.4 1.1-2.4 0.8 0.1-0.6 5-1.5 9.1-3.5 15.7-0.8 2.9-1.8 2.6-0.9-0.3z"/><path class="M" d="m115.1 151.6c3.5-7.5 6.4-18.3 7.1-26.6 0.2-3 0.9-3 0.8 0.1-0.5 8.6-3.4 19.2-6.9 26.6-1.3 2.9-2.4 2.7-1-0.1z"/><path class="M" d="m57.5 198.5c-5.5-2.9-12.8-7.6-17.2-11.5-1.8-1.6-1.4-2.1 0.5-0.7 4.1 3.1 8.9 6.4 13.3 9z"/><path class="M" d="m66.6 221.3c-18-6.7-39.6-26.6-48.6-45-1.3-2.7-0.8-3 0.6-0.4 9.7 17.8 30.2 36.6 47.4 43.5z"/><path class="M" d="m80.7 264.5c-11.3-4.7-21.3-11.4-29-19.6-3.9-4-7-19.6-7.8-24.6-0.6-3.6-1.4-5.4-3.2-6.7-6.1-4.1-15.8-16-19.7-24.2-1.3-2.7-0.8-2.9 0.7-0.3 4.6 8 14.1 19.1 20.1 23.2 2 1.4 3.2 4 3.8 7.8 0.8 4.8 4 20 7.5 23.7 7.6 8.1 16.8 14.7 27.9 20 3.4 1.6 3 2.1-0.3 0.7z"/><path class="M" d="m70.5 229.7c-3.9-0.8-9.6-2.3-14.3-4.4 0.2 4.7 0.6 12.6 1.9 15.3 2.6 5.3 16.5 17.3 23.4 21 2.5 1.3 2.1 1.7-0.4 0.7-7.1-3-21.8-15.5-24.4-21-1.3-2.6-1.8-10.7-1.9-16.1-0.1-1.9 0.3-2 2-1.3 5 2.4 9.9 3.6 13 4.2z"/><path class="M" d="m77.7 243.8c-4.1-0.7-8.3-2.9-10.7-4.9-1.7-1.5-1.3-2 0.5-0.6 2.8 2 6.4 3.9 10.1 4.4z"/><path class="M" d="m72.2 209.9c-0.1 1.1-0.5 1.7-1.1 2.3-0.8 0.7-2.5 0.5-4 0.1-2-0.5-1.9-1 0.2-0.8 1.6 0.2 2.5 0.2 3-0.3 0.5-0.4 0.7-1.2 0.6-2.5z"/><path class="M" d="m83.3 246.5c-3.1-5.7-7-15.6-8.7-21.1-1.6-4.9-3.1-6.1-4.1-6.8-1.3-0.9-2.2-1.3-3.4-2-1.9-1-1.6-1.5 0.4-0.7 1.2 0.5 2 0.9 3.6 1.8 1.9 1 3.3 3 4.7 7.3 1.7 5.4 5.3 15.4 8.2 21.2 1.1 2.2 0.5 2.5-0.7 0.3z"/><path class="M" d="m79.3 215.6c-0.2 2.1 0.2 4.4 1.2 8.2 1.7 5.9 5 17.1 7.5 22.5 0.9 2.2 0.3 2.5-0.7 0.4-2.7-5.5-6.3-16.4-8.1-22.6-1.1-4.1-1.5-7.1-1.2-9.4z"/><path class="M" d="m96.6 210.7c2.9 4.4 3.8 8.4 3.2 14.1-0.6 6.1-1.9 13.5-3 19.9-0.4 2.2-1.1 2.1-0.8-0.1 1-6.3 1.9-13.8 2.5-19.9 0.6-5.3-0.3-8.9-2.8-13.1z"/><path class="M" d="m104.1 202.8c0.1 4.9 1.1 7.8 3.4 9.1 1.6 0.9 4.3 1 7.1 0.1 2.8-0.9 3-0.4 0.3 0.8-3 1.2-6.1 1.3-8 0.2-2.6-1.5-3.8-4.1-4-9z"/><path class="M" d="m99.9 243.4c1.7-7 3.7-14.3 5.6-19.8 1.3-3.8 3.1-4.7 9.4-4.7 2.6 0 2.6 0.6 0 0.8-5.6 0.5-6.9 0.9-8.1 4.4-2 5.4-4.4 12.7-6.1 19.5-0.8 3-1.5 2.8-0.8-0.2z"/><path class="M" d="m122.6 169.1c6.7-2.2 18.5-9.5 24.9-14.8 2.3-2 2.7-1.5 0.5 0.6-5.9 5.5-19.1 13.9-25.9 15.9z"/><path class="M" d="m118.6 179.4c7.1-1.2 19.9-10 28.8-18.9 3-3 3.4-2.5 0.6 0.5-8.4 9.1-22.6 19.3-30 20z"/><path class="M" d="m132.1 192.8c7.5-6.4 15.5-16.9 19.3-24.9 1.1-2.3 1.7-2 0.7 0.3-3.4 8.4-11.6 19.1-19.3 25.4-2.3 1.8-3 1.2-0.7-0.8z"/><path class="M" d="m118.4 225.6c3.7-7.1 8.5-20.9 9.7-28 0.3-2.2 1.4-2.1 1 0.2-1.1 7.5-6 21.4-10.1 28.2-1.2 2-1.8 1.7-0.6-0.4z"/><path class="M" d="m76.2 102.3c-4.5 5.1-9.2 13.1-12.1 19.9-1.5 3.5-1.5 6-0.4 7.9l-0.4 1.6c-1.9-2.2-2.2-5.9-0.5-10 3.1-7.1 8.2-15.6 13.1-20.9z"/><path class="M" d="m77 99.7q1.3-1.3 2.6-2.2c0.8-0.6 1-0.5 1.4 0.5 1 2.3 1.9 4.9 2.8 8.3l-1.9-2c-0.6-2-1.2-4-1.8-5.6q-1 0.7-2.1 1.7z"/><path class="M" d="m71.8 107c-4.5-9.9-4-19.5 2.2-34.8 3.9-9.7 2.1-17.2-2.4-20.1-2.3-1.4-2-2 0.5-2.2 8.5-0.5 15.3 5.5 15.6 15 0.1 2.9-0.7 2.9-1 0-0.8-9.6-7.5-13.5-13.8-13.6 5.1 3.2 6.3 11.9 2.5 21.5-5.4 13.3-6.3 24.1-2.5 32.7z"/><path class="M" d="m82.4 54.1c0.8-8 4.8-12.3 13.4-15.8 18.2-7.4 25.3-20.2 21.8-35.8-0.7-3-0.2-3.3 1.8-0.9 10.9 13.3 14.4 26.8 0.7 47.1-1.5 2.1-2.2 1.6-0.8-0.5 12.4-20.5 9-32.5-0.1-44.9 3.3 14.2-2 27.9-22.7 36.3-8.7 3.5-12.1 8.5-12.6 16z"/><path class="M" d="m121 45.8c4.2-3 8-6.5 10.9-11.5 1.3-2.3 2-2.3 2.1 0.6 1.3 21-4.9 36.7-18.4 43.4-5.5 2.7-9.3 5.5-13.5 9.1-2.2 1.9-2.7 1.4-0.6-0.7 3.6-3.4 7.8-6.5 13.6-9.5 12.7-6.6 18.3-21.8 17.6-41.5-2.8 4.9-6.4 8.4-12.8 12.6z"/><path class="M" d="m87.4 112c2.4-5.9 10.3-16.9 16.6-20.4 2.1-1.1 3.4-1.9 5.2-3.5 3.2-2.8 7.4-5.2 12.5-7.4-4.5-0.4-10.1 0.6-15.7 3.2l2.4-2.4c3.6-1.6 8.8-2.6 14.4-2 2.8 0.3 2.7 1 0.3 2-5.8 2.5-9.8 5-12.9 7.8-1.7 1.4-3.3 2.4-5.5 3.7-6.4 3.5-13.7 14.3-16.2 20.9z"/><path class="M" d="m107.4 125.2c-3.3-6.3-5.3-16.5-4.7-24-3.4 0.8-6.7 1.9-10.5 4l1.2-2.2c2.1-1.1 5.4-2.4 9.4-3.4 1.2-0.2 1.6 0 1.5 1.2-0.6 7.9 1.3 17.2 4.2 23.3z"/><path class="M" d="m125.5 110.1c7.6 1 15.8 3.4 23.7 6.9l-1.4 1.2c-7.5-3.1-15.1-5.3-22.1-6.3z"/><path class="M" d="m120.2 111.3c-6.1-0.4-11.6 0.2-15.9 1.7l-0.3-1.7c4.6-1.7 10.6-2.3 17.4-1.7z"/><path class="M" d="m138.3 139.5c-4.7 1.8-11.5 1.8-15.2-0.2l0.4-1.4c3.7 1.9 10 1.9 14.7 0.3z"/><path class="M" d="m126.4 149.1c1.3 1.3 2.7 2.6 3.8 3.6l-1.3 0.6c-0.8-0.7-1.7-1.6-2.7-2.5z"/><path class="M" d="m123.1 147.8c-0.8-0.8-1.5-1.7-2.1-2.4l0.6-1.4c0.6 0.9 1.5 1.8 2.4 2.8z"/><path class="M" d="m137.6 148.4c-2.7-2.2-5.6-4.9-8.5-8.2l1.7-0.1c2.1 2.5 5 5.2 7.3 7.1z"/><path class="M" d="m136.3 150.1c1-2.2 1.5-4.9 1.3-8.5-1.1-14.9 8.8-27.4 26.2-34.2 32.1-12.4 58.1-22.4 68.3-30.4 1.6-1.3 2.9-1.2 2.7 1.3-1.7 17.9-11.2 34.6-23.6 42.4-2.6 1.7-3 1-0.5-0.8 11.8-8.5 20.3-24.1 22.7-41.4 0.1-0.8-0.1-0.8-0.8-0.2-9.7 8.2-36.2 18.3-68.2 30.7-19 7.4-26.2 20.7-25.4 32.5 0.3 3.3 0 5.9-0.8 7.8z"/><path class="M" d="m213.1 118.6c17-4.9 37.3-14.9 45.2-22.5 2-1.9 3.2-1.8 3 1.3-1.2 22.3-27.5 56.4-56.2 73.4-3 1.8-3.6 1.2-0.5-0.8 28.1-18 53.2-51.2 55.5-72.7 0.1-1.1-0.1-1.1-0.8-0.3-7.7 8.3-29 18.5-48.1 23.3z"/><path class="M" d="m140.1 148.2c-0.5-17.4 4.4-26.3 18.1-33.9 3-1.7 3.3-1.2 0.4 0.7-13.1 8-17.4 16.1-17.3 32.8z"/><path class="M" d="m162.8 135.7c3.3-10.5 6.3-16.8 11.6-20.2 4.4-2.8 9.4-5.3 15-7.4 10.7-3.9 28.4-14.4 36.2-22.7 2-2.1 2.4-1.7 0.6 0.5-7.4 8.7-25.4 19.5-36.4 23.5-5.7 2.1-10.4 4.5-14.6 7.2-4.8 3.1-8.1 9.6-12.3 23.8z"/><path class="M" d="m174.7 141.4c-0.1-3.3 0.6-8.1 2-11.6 1.2-2.7 2.8-4.4 7.2-7 10.9-6.7 40.1-29.1 44.9-38.6 1.2-2.3 1.7-2 0.7 0.3-4.3 10.2-34 32.8-44.9 39.4-3.6 2.2-5.4 4-6.5 6.5-1.2 2.9-2 7.6-1.9 10.9 0.2 2.7 1.2 3.2 4.7 3 24.5-1.8 54.8-21.7 72.2-40.4 2.2-2.3 2.6-1.9 0.6 0.6-16.2 19.2-47.3 39.6-72.7 41.2-5.3 0.3-6.1-0.9-6.3-4.3z"/><path class="M" d="m184.6 132c5.1-1.3 10.6-3.2 16.4-6.3 2.7-1.5 3.2-0.6 0.5 0.9-5.7 3.1-11.2 5.1-16.7 6.2-2.6 0.5-2.9 0-0.2-0.8z"/><path class="M" d="m155.8 167.4c6.7-3.4 17.6-7.7 25.5-10.5 34.8-12.6 57.8-28.7 72.8-49.6 2-2.7 2.5-2.4 0.7 0.4-14 21.7-37.9 38.1-72.9 50.8-8.2 3-19 7.1-26.9 11.2z"/><path class="M" d="m130.3 203.7c15.9-5.7 31.4-12.5 44.3-18.6 3.5-1.6 3.8-1.1 0.3 0.7-12.5 6.6-28 13.6-45.1 19.6z"/><path class="M" d="m212.9 164.9c8.5-2 21.6-8 29.7-14.9 2.3-2 3.8-1.4 3.3 1.7-3 17.3-26.2 43.3-46.8 52.9-3.2 1.4-3.7 0.7-0.4-0.9 19.8-10 42.2-35.7 45.9-52.3 0.3-1.5 0-1.6-1.2-0.4-7.9 7.2-21.9 13.6-32.3 15.4z"/><path class="M" d="m124.8 240.4c0 7.9-10 20.2-18.8 28.6 19-2.2 51.2-12 67.4-20.8 15.1-8.2 43.2-36.3 49.3-51.1 0.8-2 0.5-2.4-1.3-1.3-4.7 2.8-13.6 6-21.4 8l3.6-2.4c3.8-1.2 12.2-4 17.1-6.9 3.4-2 4.4-0.4 3.2 3.1-5.3 15.3-34.3 44.1-49.5 52.4-16.1 8.7-49 18.6-68.1 20.4-3.4 0.3-3.4-0.2-1.3-2.3 8.9-8.9 17.6-20.1 18.4-27.5z"/><path class="M" d="m113.3 239.9c6.5 1 16.3-0.1 26.3-5.5 2.7-1.5 3.2-0.8 0.5 0.8-9.5 5.7-19.8 7.5-27.7 6.1z"/><path class="M" d="m117 241c-0.5 6.4-2.7 13.8-6.5 21.2-1.5 3-2.1 2.8-0.7-0.3 3.6-7.9 5.5-15 5.9-21z"/><path class="M" d="m106.8 248.7c0.6 4.5 0.2 9.6-1.1 14.9-0.8 3.1-1.3 3.1-0.8-0.1 0.9-5.5 1.2-9.9 0.8-13.5z"/><path class="M" d="m126.2 215.8c14.1-4.8 33.5-12.8 52.5-21.9 22.6-10.8 44.4-22.9 56-32.3 2.9-2.4 3.4-1.9 0.5 0.6-11.2 9.7-33.1 22.2-55.8 33.2-19.3 9.3-38.3 17-53.8 21.9z"/><path class="M" d="m121.8 262.9c11.4-4.7 37.9-19.7 45.6-27.5 5.1-5.1 9.4-19.6 10.6-26.3 0.8-4.6 2.4-6.8 6.2-8.9 18.8-10.1 43.3-25.2 51.7-36.9 1.5-2.1 2.1-1.7 0.7 0.4-7.9 12-32.8 27.9-51.7 38.1-3.2 1.7-4.6 4-5.2 7.7-1.4 7.3-5.6 21.7-11 27.2-7.8 7.9-35.1 22.9-46.6 26.9-4.4 1.5-4.8 1.1-0.3-0.7z"/><path class="M" d="m120.7 227.6c10.2-3 23-7.9 34.5-13.2 2.8-1.4 4.2-0.8 5 1.4 1.2 3.3 0.6 9.9-2.3 15.6-2.7 5.3-18.6 20.3-35.9 29.4-2.7 1.4-3.2 0.9-0.4-0.7 16.6-9.8 32.1-24.1 34.9-29.5 2.8-5.5 3.2-11.7 2.3-14.4-0.4-1.1-0.9-1.5-3-0.5-11.8 5.5-24.2 10.1-35.8 13.4z"/><path class="M" d="m241 223.1c0.9 4.4 1.4 7.9 1.7 11.5 0.1 2.6-0.5 2.7-1.8 0.6-0.9-1.4-1.9-2.5-3.1-3.7l-0.6-2.5c1.8 1.4 3.2 2.9 3.9 4.1-0.4-3.6-1.1-8-2.3-12.8z"/><path class="M" d="m233.9 267.9c4.5 3.5 9 3.8 13.4 3.4-3.9-3-6.7-9.4-7.5-22.3-0.7-11.1-2.4-19.2-5.2-23.7-1.6-2.5-1-3 0.8-0.6 3.2 4.4 5.3 12.8 6.1 24.3 0.7 11.5 2.8 17.9 6.9 21.4 1.8 1.6 1.5 1.9-0.5 2.2-5 0.8-10.6 0.1-14.1-3z"/><path class="M" d="m212.2 232.7c4.3 8.4 18.1 25.9 25.4 30-2.1-7.4-7.4-25.6-11.3-35.7-1-2.6 0-2.7 1.6-0.4 2.5 3.5 5.6 5.2 7.1 5.7-3.7-4.3-13.3-20.4-15.9-27.1l1-1.5c2.8 7.4 12.3 23.3 16.1 28.1 1.7 2.3 1.2 2.6-0.9 1.9-2.6-0.8-4.9-2.2-6.5-4 2.4 5.8 7.6 23.4 10.2 33 0.6 2.4 0.1 2.5-1.8 1.4-8.5-4.8-21.3-21.5-24.4-27.8z"/><path class="M" d="m206.2 221.8c-1.9 5.4-3.1 11-3.4 14.1 2.9 4 7.7 8.9 11.1 11.2-0.5-4.9-1.3-10.4-2.6-15-0.8-3.1 0-3.2 1-0.2 1.4 4.6 2.5 10.1 2.9 15.4 0.1 2.2-0.2 2.4-2.1 1.1-3.8-2.6-8.4-7.3-11.6-11.5-0.4-0.5-0.4-0.6-0.3-1.2 0.5-3.6 1.7-9.1 2.9-12.3z"/><path class="M" d="m221.6 208.6c-0.3 2.8-1.7 7.1-2.7 9.3-1.2 2.4-4.7 6.2-7.5 8.5-2.2 1.8-2.5 1.2-1.7-1.1 2.1-6.3 6.8-14.7 10-20.6l0.7 1.5c-2.8 5.1-7.5 14.5-9.2 18.6 1.9-1.4 5.3-5.3 6.4-7.6 1.1-2.3 2.5-6.6 2.9-10.3z"/><path class="M" d="m81 254.6c-0.8-3.1-1.3-6.5-1.3-8.9l1.3 1.6c0.2 3.2 0.9 7.3 2 10.8z"/><path class="M" d="m87.8 255.7c0.5 3.1 1.2 6.3 2.4 9.3 1 2.4 0.4 2.6-0.7 0.3-1.4-3-2.5-6.5-3.1-10.9z"/><path class="M" d="m92.9 260.6c1.6 7 2.4 18.7 0.5 23-1.1 2.6-1.5 2.5-0.7-0.2 1.4-4.7 0.6-15.9-1.5-24.3z"/><path class="M" d="m100.6 255.6c-0.8 14.4 0.6 22.9 4.4 27.8 1.9 2.6 1.5 2.8-0.6 0.5-4.2-4.6-5.9-12.9-5.1-27z"/><path class="M" d="m95.1 288.2c0.2-2.6 0.9-4.6 2-4.9 1.3-0.3 3 1.5 4.4 3.6 1.4 2.1 0.9 2.4-0.6 0.4-1.4-1.7-3-3-3.5-2.8-0.5 0.1-1.2 1.9-1.6 3.8-0.4 2.4-1 2.4-0.7-0.1z"/><path class="M" d="m83 269.9c2.7 10.2 11.8 27.3 17.7 34.8 6.8-8.9 16.8-26.6 21.6-37.9l2.1-0.5c-5.4 12.3-14.9 29.6-22.7 39.4-0.9 1.1-1.1 1.1-1.9 0.1-6.7-8.2-15.9-25.4-18.7-36.1z"/><path class="M" d="m65.6 264.4c-3.1 8.3-7.4 16.7-11.7 22.5l-0.4-1.6c4-5.7 7.8-13.3 10.9-21.6z"/><path class="M" d="m54.9 290.4c4.5-7.7 9.5-16.3 12.9-25l1.3 0.5c-3.5 8.8-8.5 17.3-13.6 26z"/><path class="M" d="m71.9 287.7c3.8-6.3 6.9-11.3 10.5-16.6l0.6 1.8c-3.2 4.7-6 9.1-8.9 13.8z"/><path class="M" d="m44.8 307.6c-0.3-2.7 0-7.1 0.4-9.3 0.5-2.4 1.1-2.2 0.8 0.1-0.3 2.4-0.4 6.5-0.2 9.1 0.1 2.3-0.8 2.4-1 0.1z"/><path class="M" d="m74.5 285.7c-4.5 2.2-10.8 5.5-17.2 9.6-3.1-7.5-5.5-18.5-4.5-26.9 0.3-2.5-0.2-2.6-1.8-1.2-13.6 11.3-18.8 26.7-17.5 32.6 0.3 1.4 2.4 4.5 3.6 5.5-2.6-0.7-5-0.1-7.1 2.1-3.3 3.4-7.7 10.9-10.3 17-0.9 1.9-0.5 3 2.5 3.5 9.5 1.3 25.3-2.6 34.9-7.1 3.1-1.4 3.9-2.5 4.3-5.6 1-6.8 5.4-16.3 14.5-27.8 2.3-2.9 2-3.4-1.4-1.7zm-50.7 41.2c4.8-2.6 9.6-5.1 14.2-7.9q2.9 0 4.8-0.1c-0.1 1.3-0.4 3.7-0.9 5.7-6.4 1.5-13.2 2.5-18.1 2.3zm-1.8-1.3c3.4-4.4 8.7-10.3 13.4-12.3q0.1 2.6 0.4 5.4c-4 2.5-7.7 4.6-12.9 7.5-1.7 0.9-1.6 0.4-0.9-0.6zm38.1-10.6c-0.4 2.5-1.3 3.6-3.5 4.6-3.9 1.8-8.5 3.4-13.3 4.6 0.4-1.6 0.7-3.8 0.8-5.8 0-0.7-0.2-0.9-0.9-0.9-1.4 0.1-3.3 0.1-5 0.1-0.6 0-0.7 0.1-1.1 0.3q0 0-0.1 0.1c-0.1-1.8-0.2-3.8-0.3-5.3 0-1-0.3-1.4-1.3-0.9-5.7 2.4-11.8 9.6-15.2 14.3 0.7-2.7 7.8-14.7 10.8-17.9 1.7-1.8 3.7-2.3 6.5-1.5 2.2 0.6 2.4 0.2 0.9-1.6-1.8-2.2-3.3-4.7-3.5-5.7-1.2-5.2 4.3-20.4 16.7-31.1-1.3 7.6 1.5 20.9 5.4 28.4 1 2 1.7 1.7 0.8-0.3 6.7-4.1 13.5-7.7 16.5-9.2-8.7 10.6-13 20.1-14.2 27.8z"/><path class="M" d="m30.8 315.3c-0.8-1.6-1.7-3.7-2.3-5.2l1-1.2c0.7 1.8 1.7 4.1 2.5 5.6z"/><path class="M" d="m157.7 288.6c-1.5-8.2-5.2-21.4-8-29.5l1.5-0.4c2.5 7.7 6.1 20.5 7.3 27z"/><path class="M" d="m160.8 279c-0.8-6.2-2.6-13.6-5.4-21.8l1.3-0.5c2.9 8.4 4.5 15.9 5.1 20.4z"/><path class="M" d="m166.8 274.2c-1.3-6.1-3.1-13.7-4.8-19.6l1.3-0.5c1.6 6.3 3.5 13.8 4.8 21.1z"/><path class="M" d="m174.9 280.7c-2.2-8.3-4.8-21.1-5.8-29.2l1.4-0.6c1 7.9 3.5 21.3 6.2 31.4z"/><path class="M" d="m156 300.2c-0.3-10 2.5-19.8 7.6-27.6 0.5-0.7 0.8-0.8 1.8-0.2 12.7 8.9 19.4 15.8 19.1 26.6-0.1 2.6-0.8 2.6-0.9 0-0.2-10.2-6.8-17-19-25.6-4.6 7.2-7.3 16.7-7.7 26.8-0.2 2.8-0.8 2.7-0.9 0"/><path class="M" d="m182.9 291.7c1.1-2.2 3.4-5.3 5.6-7.3 1.4-1.3 1.8-1.1 1.7 1-0.2 9-3.8 25-6.5 32.3-0.7 2-1.5 1.8-0.8-0.3 2.4-7.8 5.7-24 6.1-31.7-1.5 1.3-3.7 4.2-5.6 7.5z"/><path class="M" d="m169.5 315.2c-2.1-2.6-3.8-5.8-4.5-8.4-0.7-2.4-0.1-2.6 0.7-0.3 0.9 2.5 2.7 5.6 4.6 8.2 1.6 2 0.8 2.4-0.8 0.5z"/><path class="M" d="m176.3 316.2c0.6-5.5 0.8-10.1 0.8-14 0-2.3 0.6-2.3 0.8-0.1 0.2 4.1 0 8.9-0.6 14.3-0.3 2.6-1.2 2.4-1-0.2z"/><path class="M" d="m183.7 316.3l-0.4 1.2c6.9 4.1 11 11.6 10.3 16.9 0 0.2-0.6 0.7-1.5 1.4-0.2-2.6-0.9-5.9-2.1-8.5-0.3-0.7-0.6-0.8-1.3-0.4-1.6 0.8-3.2 1.5-5 2.3-1.2-1.8-2.3-3.9-3.3-5.9-0.5-1-0.9-1.2-1.7-0.5-1.4 1.1-3.3 2.7-4.6 4.1-1.7-1-3.8-2.2-5.5-2.9-0.9-0.3-1.1-0.3-1.5 0.3-1.3 2.1-2.3 4.1-2.9 6-0.2 0.5-0.2 0.7 0 1.3 1.6 5.3 3.8 9.9 5.8 12.7-4.9-2.5-10.5-8.9-10.6-10.6-0.2-3.1 0.7-8.7 2.8-11.3 1.7-2.2 1.7-4.2-0.2-6.1-4.5-4.5-9.3-14-13.4-25.4 2.1 1.1 5.4 3.5 8 5.9l0.1-1.6c-1.9-1.8-5.4-4.3-7.8-5.6-1.9-0.9-2.2-0.8-1.5 1.4 3.7 11.8 8.6 21.5 13.7 26.2 1.5 1.3 1.4 2.7 0 4.4-2.3 3-3.3 8.6-3 12.2 0.2 2.7 8.2 11.7 14.6 12.7 4.2 0.6 21.9-9.6 22.2-11.8 0.9-6.6-3.9-14.3-11.2-18.4zm-4.4 7.8c0.9 1.9 2.1 4 3.4 5.9q0 0.1 0 0.1c-1.8 4.4-4 9-7 13.6-1.2 1.9-1.4 1.8-1.4-0.2 0.2-5 0.5-11.5 0.6-15.4 1.4-1.5 3.4-3.3 4.4-4zm9.7 4.2c0.9 2 1.6 5.3 1.9 8.4-3.6 2.5-9.9 6.1-14.3 7.7 2.8-4.2 5.7-9.2 7.4-13.9 2-0.8 3.4-1.4 5-2.2zm-17.9 15.4c-2.2-3.1-4.3-8.3-5.7-12.8 0.7-2.1 1.3-3.4 2.7-5.6 1.7 0.7 3.8 1.8 5.5 2.9-0.2 4-0.3 10.5-0.4 15.3-0.1 2.1-0.6 2.4-2.1 0.2z"/><path class="M" d="m159.3 335.6c0-2 0.3-4.2 0.9-6 0.2-0.7 0.3-0.8 1.3-0.6 1.2 0.4 2.6 0.8 3.5 1.2l-0.2 1.4c-1-0.4-2.3-0.8-3.4-1.2-0.6 2.1-0.9 4.3-0.8 6.5z"/><path class="M" d="m152 263.5c-0.3 3.7-1.7 6.5-4.4 11.1-4.5 8-9.1 19.7-11.1 26.7-0.7 2.4-1.9 4.1-3.6 5.3 0.2-1 0.2-2 0.2-3 0-0.7-0.1-0.8-0.7-0.9-0.7-0.1-1.9-0.3-2.8-0.3-0.2-1.5-0.5-3.2-0.9-4.4-0.2-0.7-0.4-0.8-1.1-0.6-1.6 0.4-3.3 0.9-4.8 1.6-0.4 0.2-0.5 0.2-0.8 0.5-2.5 2.2-5.6 5.4-9.1 9.4 0.8-6.1 5.3-14.1 13.5-14.4 1.6-0.1 2.9-0.9 4.1-3.5 2.9-6 5-10.4 6.5-15.5 1-3.6 0.8-7.3-3.9-11.3l-1.5 0.4c4.6 4 5.1 7.2 4.1 10.6-1.4 5-3.3 9.1-6.3 15.2-1 2.2-1.9 2.7-3 2.8-9.5 0.4-14.2 9.7-14.8 16.2-0.1 1.3 0.9 2 4 2.1 6.2 0.2 12-0.6 16.4-2.7 3.2-1.6 4.7-3.7 5.7-7.1 2.1-7 6.6-18.4 11.1-26.3 2.2-3.9 3.5-6.1 4.1-8.8zm-28.9 36.8c1.5-0.7 3.2-1.3 4.5-1.6 0.3 0.9 0.6 2.4 0.7 3.9-3.8 1.4-8.2 3.8-13.1 7.1-1.5 1-2.2 0.8-1-0.6 3.5-3.8 6.5-6.7 8.9-8.8zm-6.7 9.9c4.6-2.9 8.9-5.2 12.7-6.4 0.9-0.1 1.9 0 2.7 0.2 0 1.1-0.1 2.3-0.3 3.5q0 0-0.1 0.1c-3.7 1.8-9.2 2.7-15 2.6z"/><path class="M" d="m122.2 300.2c-0.6-1.2-1.5-3-2.5-4.2l1.2-0.7c0.9 1.2 1.9 3 2.4 4.2z"/><path class="M" d="m183.5 242.6c5.2 11.8 14.4 18.3 32.2 23.1 1.7 0.4 2.4 1.3 3.2 3.2 3.1 7.6 4.1 24.5 1.9 31.1-0.4 1.3-0.7 1.8-1.8 2.5-2.5 1.8-5.3 5.1-5.9 7.5-1 4.1 1.4 8.9 6.7 11.7 6-1.6 10.1-3.3 12.9-5.4 1-0.7 1.4-2.1 1.3-4.6-0.9-14.6-1.7-38.8-0.4-51.1l1.4 1.2c-1 11.4-0.7 35.2 0.3 49.9 0.2 3.2-0.6 4.8-1.7 5.6-2.8 2-7.2 3.9-13.1 5.5-0.7 0.2-0.9 0.2-1.4-0.1-5.6-2.9-8.6-7.8-7.3-13 0.8-3.1 3.9-6.4 6.5-8.2 0.8-0.5 1-0.9 1.3-1.9 2.2-6.5 1.1-22.8-1.9-30.2-0.7-1.7-1.3-2.3-2.3-2.5-18.5-4.5-28-11.2-33.2-23.3z"/><path class="M" d="m233.8 316c-0.3-2.6-0.9-5.1-1.5-6.7-1 0.3-1.9 0.6-2.9 1.2-2.4 3.4-5.2 7.6-7.5 11.3l-1.6 0.4c2.7-4.4 5.6-9 7.9-12.3 0.3-0.4 0.4-0.6 0.9-0.8 0.9-0.4 2.2-0.9 3.1-1.2 0.6-0.2 0.9-0.1 1.1 0.5 0.6 1.4 1.1 3.6 1.5 5.6z"/><path class="M" d="m228.4 310.3c-0.9-1.6-1.7-3.1-2.7-4.5-1.1 0.7-2.3 1.6-3.8 2.7-0.7 4.6-1.3 9.4-1.6 13.7h-1.1c0.2-4.1 0.6-8.9 1.4-13.7 0.1-0.7 0.1-0.8 0.6-1.2 1.4-1 3-2.1 4.1-2.8 0.6-0.4 0.9-0.3 1.4 0.4 0.9 1.4 2 3.2 2.8 4.7z"/><path class="M" d="m220.9 308.7c-0.9-0.9-1.7-1.6-2.4-2.1-1.2 1-1.9 2-2.7 3.5 0.7 5 2.4 9.8 4.4 12l-1.3 0.1c-1.9-2.3-3.7-6.8-4.4-11.7 0-0.6 0-0.7 0.2-1.1 0.7-1.5 1.9-2.9 3-3.9 0.6-0.5 0.8-0.5 1.5-0.1 0.8 0.7 1.8 1.5 2.6 2.3z"/><path class="M" d="m213 308.4c0.8 0.2 1.8 0.6 2.5 1l-0.5 1.2q-1.1-0.6-2.4-1z"/><path class="M" d="m221.3 288.2c-0.7 0.8-1.9 1.6-3.2 2.2-1.4 0.6-1.6 0.3-1.5-1 0.2-4.5 1.2-12 2.8-16.7l0.6 2.1c-0.9 3-2.1 10.4-2.3 14.5 0.9-0.4 2.3-1.3 3.7-2.5z"/><path class="M" d="m215.3 197.8q-1.7-1-3.3-1.9l1.3-1.1q2 1.1 3.9 2.2z"/><path class="M" d="m243.7 156.6c8.6 2.5 17.7 4 25.2 4.2 2.9 0.1 3.1 0.5 1.4 2.4-4.8 5.5-15.9 9.3-23.7 8.2 20 21.4 20.3 60.9 4.6 84-2.2 3.2-2.5 3-2.8-0.6-1.9-23.2-10.6-40.4-27.3-53l0.9-1.6c17.3 12.6 26.9 31.5 27.7 54.8 14.3-22.8 15.1-60.2-4.7-83-1.6-1.9-1.3-2.3 1.5-2.1 8.6 0.6 18.6-3.4 22.6-7.6-7.1 0.1-16.6-1.4-25.9-4z"/><path class="M" d="m235.7 155.9c-2.9-1-5.6-2.1-8.1-3.3l1.3-1.4c2.6 1.3 5.5 2.4 8.4 3.4z"/><path class="H" d="m148.1 270.7c-2.6 3-6 9.8-6.7 13.7 0.7 1.8 1.7 3.7 3 5.2 2.2-4 3.9-12.9 3.7-18.9z"/><path class="M" d="m143.6 289.5c-1-1.3-1.8-2.7-2.6-4.4-0.2-0.5-0.2-0.7-0.1-1.3 0.8-3.9 3.7-9.4 6.1-12.6 1.2-1.7 1.7-1.5 1.7 0.6-0.1 6.2-1.4 13.6-3.5 17.6-0.5 0.9-0.9 1-1.6 0.1zm-1.6-5.1c0.7 1.6 1.4 3 2.3 4.1 1.8-3.6 3.3-11.8 3.3-16.3-1.6 2.1-4.9 8.4-5.6 12.2z"/><path class="N" d="m61.5 159c-2-1.6-4-5.4-4.4-9.1 1.5 1.9 4.3 4.4 6.5 6.2-0.2 0.6-0.5 1.6-0.7 2.2z"/><path class="N" d="m76.1 154.9c-0.1 1.5-0.2 3-0.2 4.3 4.2 0.5 8.7-1.2 9.6-2.6 0.7-0.9 2.3-4.7 2.8-8.6-3.5 1.9-8.3 4.5-12.2 6.9z"/><path class="l" d="m77 154.3c0.5 1.9 2.3 3.1 4.1 2.7 2.8-0.6 3.4-3.8 2.1-6.2-2.1 1.1-4.2 2.4-6.2 3.5z"/><path class="O" d="m78 153.8c0.3 1.6 1.6 2.4 2.6 2.2 1.4-0.2 2.4-1.7 1.6-4.7-1.4 0.8-2.8 1.6-4.2 2.4z"/><path class="l" d="m63.6 156.1c-0.2 1.1-0.9 2.2-1.5 2.2-1.3 0-2.2-1.7-2.2-5.4 1.3 1.1 2.5 2.2 3.7 3.2z"/><path class="O" d="m63.2 155.9c-0.1 1-0.5 1.7-1 1.7-1.1 0-1.5-2-1.2-3.7 0.7 0.7 1.4 1.2 2.2 2z"/><path class="K" d="m76 156.9c3.2-1 8.6-3.6 11.6-5.5 0.3-1 0.5-2.4 0.7-3.4-3.7 1.9-9 5-12.3 6.9z"/><path class="M" d="m80.9 153.7c0.2 0.8-0.1 1.2-0.5 1.3-0.5 0.1-0.9-0.3-1-1-0.1-0.8 0.2-1.2 0.6-1.3 0.4 0 0.8 0.3 0.9 1z"/><path class="M" d="m62.6 155.5c0.1 0.6-0.1 1.1-0.4 1.2-0.3 0-0.6-0.5-0.6-1.1-0.1-0.6 0-1.1 0.3-1.1 0.3-0.1 0.6 0.4 0.7 1z"/><path class="M" d="m83.6 150.6c1.3 2.6 0.8 6-2.5 6.8-1.8 0.4-4-0.6-4.5-2.9l0.7-0.4c0.4 1.7 2 2.9 3.7 2.6 2.5-0.6 3-3.4 1.9-5.8z"/><path class="M" d="m87.8 148.2c-0.6 3.5-2 7.2-2.7 8.1-0.8 1.3-4.9 2.9-8.7 2.5 0-1.1 0-2.9 0.1-4.1l-0.9 0.4c0 1.3-0.1 2.7-0.1 3.8 0 0.6 0.1 0.7 0.9 0.8 4 0.3 8.3-1.1 9.5-2.8 0.8-1.1 2.4-4.9 2.9-9.2z"/><path class="M" d="m61.3 159.3c-2.3-1.8-4.4-5.9-4.7-9.8l0.9 1c0.7 3.8 2.7 7 4.4 8.3z"/><path class="M" d="m63.9 156.3c-0.2 1.1-1 2.3-1.8 2.3-1.7 0-2.6-2.3-2.5-5.9l0.6 0.5c0 3.7 1 4.8 1.9 4.8 0.4 0 1.1-1 1.2-2.1z"/><path class="M" d="m56.4 162.7c2.3-2 4.2-3.6 6.9-5.5l-0.3 1.5c-1.8 1.3-3.4 2.7-5.4 4.4z"/><path class="M" d="m90.6 147.5c-4.1 2.1-11.6 6.2-16.5 9.2 1.2 1.1 2.7 2.7 4.2 4.5l-1.1 0.4c-1.3-1.6-2.5-2.9-4-4.3-0.6-0.6-0.6-0.9 0.3-1.4 5.1-3.2 12.4-7.4 16.5-9.5z"/><path class="M" d="m60 166c1.1-3.4 2.4-7.4 3.3-10.3 0.7-2.1 1.6-1.8 0.9 0.3-0.8 2.9-2.1 6.8-3.4 10.2-0.8 2-1.4 1.8-0.8-0.2z"/><path class="M" d="m55.7 147.3c2.4 3.5 5.1 5.7 8.1 8.3l-0.4 1.1c-3-2.4-6.1-4.9-8.6-8.5z"/></svg>