<?xml version="1.0" encoding="UTF-8"?>
<!-- Created with Inkscape (http://www.inkscape.org/) -->
<svg version="1.1" viewBox="0 0 335.86 270.72" xmlns="http://www.w3.org/2000/svg">
 <g stroke-width="4.1836">
  <path class="uuid-dc8a0f5e-25f7-4e67-a5c0-af6306a7c025" d="m334.24 92.976c-0.71472-1.2092-41.56-0.41839-50.128-2.7654 0 0 48.166-61.897 46.811-63.658-1.197-1.5479-65.352 16.086-90.462 23.512-28.993-16.722-65.859-12.262-84.589-2.6817l0.16288-0.14231c-24.805-17.739-68.896-46.371-71.147-44.869-2.0374 1.3597 17.458 66.29 21.985 82.514-8.7145-0.30961-40.238-10.129-41.292-8.1455-0.94557 1.7738 29.239 44.141 37.071 55.086-5.6981 2.7612-24.78 3.6021-25.332 5.5475-0.50597 1.7655 36.678 27.139 65.294 52.588 22.692 27.604 64.93 45.668 88.856 57.048 7.9739 3.7945 16.964 9.8231 18.45 11.246-1.3266-1.9914-2.6774-6.4846-4.6731-10.865 4.4974 1.9956 17.483 10.672 27.143 17.17 7.8526 5.2756 7.9655 3.9828 3.1-2.5813-6.5808-8.8734-14.287-20.265-15.71-22.55 0.69098 0.46014 8.2125 4.2087 13.141 6.4428 2.1546 0.97893 1.548-1.1464 0.623-2.5269-3.9116-5.8529-6.8444-13.45-7.3798-14.526l25.235-65.331-0.36049-1.6232c8.02-4.3133 29.771-18.793 29.591-20.06-0.20092-1.4098-27.717-4.8781-33.026-6.3926 9.7478-9.6684 47.346-41.238 46.643-42.426" fill="#7b59a2"/>
  <path class="uuid-f1ea1703-cbf6-4187-8953-60267412309b" d="m149.35 197.69c21.399 24.457 64.03 40.548 84.241 50.145 8.7857 4.1711 14.856 10.43 16.283 9.8817 0.58505-0.22595-2.2132-4.8154-4.2966-8.8776-0.36845-0.71962 0.44748-1.3722 1.4183-0.82413 6.6602 3.7694 20.24 13.128 28.574 18.68 3.5394 2.3596 3.9744 0.71123 1.9413-1.9914a858.84 858.84 0 0 1-16.391-22.7c-0.93764-1.3556-0.35577-2.0876 1.4436-1.2718 2.8155 1.2801 6.8109 3.0499 9.819 4.4137 2.0123 0.91616 2.4139 0.0252 1.6358-1.0836-4.1586-5.9282-7.3129-14.128-7.8736-15.245 0 0-9.7018-14.011-20.194-16.605-29.432 10.493-62.959 6.631-96.604-14.521" fill="#6b4c8d"/>
  <path class="uuid-dc8a0f5e-25f7-4e67-a5c0-af6306a7c025" d="m106.4 175.35c-2.9871 0-8.2417 0.66933-10.961 0.99995-8.3045 0.99569-18.186-3.6816-19.927-2.6566-5.6436 3.3218-16.94 8.635-18.596 12.287-1.6609 3.6523-5.4179 16.935-5.4179 16.935 2.5938 0.74048 8.4174-0.86604 12.685-4.9534 4.9868-0.65257 9.2123-1.9872 13.659-0.35561 9.9654 3.6523 17.935 7.6393 26.235 7.6393 3.4682 0 11.417-7.6226 11.626-9.6307 0.99616-9.6307-6.3089-20.261-9.3002-20.261" fill="#7b59a2"/>
  <path class="uuid-aa15db0a-b4d3-4f77-b2d5-c9eccaeb04a9" d="m180.74 128.41c6.6269 1.3556 25.365 0.7865 38.519-2.8616 7.7606-2.1504 9.8148-5.422 11.392-12.563 1.7906-8.0953 1.9746-21.332 0.22607-32.724-21.144 12.266-49.409 39.255-50.137 48.149m-55.5-47.313c-2.8114 9.0366-2.4768 27.465 0.75268 34.887 3.0457 6.9908 17.036 10.865 26.064 10.555-0.49334-3.6732-19.856-40.242-26.817-45.438" fill="#fff"/>
  <path d="m137.57 143.48c-0.67359 2.0207-1.3851 6.539-1.7613 6.6185-0.37634 0.0759-5.0287-5.7358-5.924-9.3922 0 0-6.2838-2.7779-8.041-3.8991 6.0915 11.781 13.287 23.428 25.001 30.691l1.1638-1.1045c0.1676-0.6736 2.0499-4.5183 2.0499-4.5183s5.581 8.0911 5.9199 8.7647c0.33523-1.5145 3.0791-7.2837 3.0791-7.2837l6.514 10.25 4.8236-9.0157 6.9491 10.555 5.5013-9.6935s6.6896 8.5722 7.1959 9.0785c1.3472-2.8616 3.8196-8.6685 3.8196-8.6685l6.8988 6.2796 0.0474-0.10126c15.613-5.0789 29.704-16.404 39.334-36.749-4.0246 2.4223-19.981 7.1833-19.981 7.1833-0.82382 4.8446-4.0456 11.743-4.5686 11.697-0.52339-0.0458-4.0707-6.8444-5.5558-9.6683-2.7486 0.74047-22.629 3.2758-22.629 3.2758-0.40953 3.8197-3.9786 12.961-4.8446 12.961-0.86653 0-5.7316-10.76-6.949-12.589l-13.84-0.13757c-0.33521 1.0082-2.736 10.438-3.3091 10.501-0.57241 0.0633-5.7023-7.0327-7.1582-12.266-0.75742 0.079-13.735-2.7654-13.735-2.7654" fill="#ed8599"/>
  <path class="uuid-dc8a0f5e-25f7-4e67-a5c0-af6306a7c025" d="m92.122 177.01c-5.9783-4.648-24.909-27.315-25.574-28.315-0.6657-0.99569-20.592-6.2252-22.918-6.2252-2.3261 0-19.918 15.722-20.922 19.592-1.2001 4.6355-0.48069 11.174 1.2223 17.68l-0.56452-0.17566c-6.0956 0.0664-10.965 0.0332-11.614 0.76135-0.59769 0.66932-10.463 13.45-9.9612 17.684 0.49811 4.2338 7.2209 19.927 22.416 28.398-4.7316-13.45-3.4891-24.16-3.4891-24.16 10.71-2.7403 20.922 12.952 32.381 13.45 6.242 0.27197 9.9487-2.9913 13.074-3.075 3.1253-0.0838 7.2293 2.1588 10.84 1.3304 4.9743-1.138 11.643-10.283 17.186-10.463l-2.0752-26.487zm-41.849-2.4683c-0.39372 0.92043-5.5517 3.2967-8.154 3.485 0.85385-0.79076 7.3297-8.6685 8.087-7.7606 0.32571 0.39325 0.46013 3.3553 0.0632 4.2757" fill="#7b59a2"/>
  <path class="uuid-d526effd-5420-4e17-9acd-9b7d241fe777" d="m231.58 85.866c-0.16759-1.6274-0.45538-4.0288-0.69891-5.6061-19.295 11.195-49.061 39.1-50.028 48.149 0.5566 0.11229 1.619 0.25095 2.3302 0.33474 9.2877-16.889 34.624-35.469 48.396-42.878m-79.518 40.665c-0.49333-3.6732-19.856-40.242-26.817-45.438-0.54393 1.7446-1.3899 5.9868-1.6985 8.2878 9.1747 9.0952 22.198 26.934 26.373 37.146 0.73686 0.0252 1.4563 0.0302 2.1421 0" fill="#dbdcdc"/>
  <path class="uuid-dc8a0f5e-25f7-4e67-a5c0-af6306a7c025" d="m324.25 225.44c-4.7066-3.2381-15.923-11.739-15.889-18.391-0.0474-0.29282 5.3299-7.1205 6.606-9.7813 5.9365-12.371-7.9698-31.218-12.287-33.544-3.9242-2.1127-18.266-1.3304-20.257 0.66521-1.9914 1.9914-6.2295 11.723-9.6307 15.609-4.6481 5.3132-27.566 13.948-30.222 13.948-2.6566 0-7.4344-1.8617-9.9654 0.66522-3.6523 3.6523-14.701 10.497-16.274 16.274-1.64 6.0119 6.1624 25.964 12.496 36.544 2.0834 3.485 3.4222 4.1334 3.2506 0.0917-0.48543-11.287 4.0582-16.663 7.836-21.023 1.129-1.3053 5.7398-1.6442 9.1411-4.0456 4.259 6.4762 13.233 6.2252 17.525 6.2252 0.29713 4.853 11.727 7.5012 21.6 5.15 8.0786-1.9245 13.258 1.9621 16.166 5.2881 0.80798 7.0703-2.6022 15.04-6.1792 19.144-2.4975 2.8616-1.3551 2.7026 1.9245 2.3219 12.965-1.5061 23.675-7.9949 24.847-11.505 1.3266-3.9828 0.31782-19.985-0.68152-23.637" fill="#7b59a2"/>
 </g>
 <g fill="#6b4c8d" stroke-width="4.1836">
  <path class="uuid-f1ea1703-cbf6-4187-8953-60267412309b" d="m283.36 189.76c-5.7734 13.241-20.198 24.529-30.298 23.734-0.11068 5.1417-1.3883 7.7523-3.393 8.8316 2.665 5.606 12.425 7.2251 15.438 6.5557 7.7062 8.3965 20.508 5.2462 25.524 4.9116 3.4807-0.728 10.166-0.23007 14.371 5.2128 0.46488-0.25521-0.49338 12.873-9.4048 22.278 4.0079-1.1212 15.597 0.49365 28.716-10.643-8.7479 2.2382-15.852-0.079-16.299-4.2087-1.2919-11.928-15.902-25.792-20.83-25.244 3.1419-11.869 2.5437-23.658-3.8196-31.427"/>
  <path class="uuid-f1ea1703-cbf6-4187-8953-60267412309b" d="m287.93 196.68s7.1792 22.031 25.742 4.7024c0 0-16.831 20.048-26.733 20.793 0 0 4.7024-13.12 0.99144-25.495m-72.28 18.32c1.4848 8.4175 9.5595 31.436 16.337 37.628-0.59769-3.6356 1.5765-22.604 8.4174-26.733 0 0-15.843 10.396-24.755-10.89m-159.66-27.737s-2.3511 9.8775 10.032 4.2338c12.384-5.6437 46.564 12.388 49.388-3.1335 0 0 2.1965 6.2712-0.94082 9.5638-3.1378 3.2925-6.585 6.8988-9.5638 7.3674-2.9787 0.46852-17.404-2.8239-22.575-5.9575-5.1752-3.1335-9.7646-3.2883-18.914-1.3304 0 0-5.7692 7.3841-11.848 5.1417l4.422-15.881z"/>
  <path class="uuid-f1ea1703-cbf6-4187-8953-60267412309b" d="m75.036 196.77c-3.2424 0-10.396 0.89529-11.626 1.23-4.4723 4.694-11.057 4.945-11.848 5.1417 2.4599-7.267 3.6899-15.538 5.7023-17.998 1.7278-2.1127 7.9154-6.1206 11.25-7.6309 0.22607-0.0332 0.37319-0.0996 0.46013-0.19655a7.154 7.154 0 0 1 0.92029-0.32636 4.1836 4.1836 0 0 0-1.4468-1.6902c-2.0918-4.0916-9.2082-12.689-17.801-12.321-2.0541-0.30961-5.9911 3.5519-10.873 7.3255-4.3425 3.3553-14.936 5.3299-18.278-7.8066 1.3171 17.872 5.4596 28.106 8.8315 33.641-0.1264 0.1043-0.26726 0.20919-0.38105 0.32636-1.845-0.47278-6.4052-1.5396-8.1372-1.0417-1.5433 0.43925-11.873 11.76-21.01 1.7236 0 0 5.6437 20.224 23.202 28.846 0 0-5.4763-17.847-3.2883-23.738 0 0 3.4725-1.0082 7.8318 0.81164l-0.01258 0.0838c0.23393 0.0585 0.49019 0.15023 0.7495 0.25095 0.1264 0.0585 0.24211 0.1091 0.3637 0.17154v-0.0252c5.7022 2.4934 16.718 13.166 24.487 12.794 4.3343-0.20919 10.024-4.2506 12.932-3.69 2.9077 0.56055 5.1627 1.8952 10.321 1.3472 3.1294-0.33885 13.413-9.614 14.643-10.509-5.7023-3.0206-13.747-6.7105-16.99-6.7105m-32.528-18.776c-5.4764 4.2464-7.4886 22.692-7.3757 23.922a6.6018 6.6018 0 0 1-1.6693-1.5437c1.0167 1.1004 1.6693 1.5437 1.6693 1.5437-0.6325-2.5938 2.5144-16.534 4.3928-20.613 1.8827-4.0748 9.1706-11.007 10.459-11.446 1.5354 0.99158 3.0541 1.8784 4.5351 2.6817-1.983-0.80325-3.6147-1.6191-3.9619-1.9245 1.2302 5.4764-6.2588 7.267-8.0493 7.3757m75.799-43.807s46.643 19.981 119.23 0.39325c3.2423-0.87441 7.2125-1.4098 6.4678-1.0961 0 0-13.17 6.2336-23.872 8.5848l-0.46805 3.4096-7.9949 2.3512-1.64-3.3385-22.583 2.8658-0.94082 3.7611-9.1706 0.23434-1.7278-3.2172-13.839-0.13756-0.89495 3.1168-8.4677-0.9413-1.1764-3.5268-13.484-3.1336-0.54867 2.9788-6.6645-3.372-0.7827-2.9787s-10.66-3.7611-11.446-5.9575"/>
 </g>
 <path d="m137.57 143.48c-0.67359 2.0207-1.3851 6.539-1.7613 6.6185-0.37634 0.0759-5.0287-5.7358-5.924-9.3922 0 0-6.2838-2.7779-8.041-3.8991 3.4097 6.5892 9.4006 17.617 17.634 25.144 2.9578-3.0206 8.5722-5.2965 15.555-6.7817 1.0041-0.2133 2.2801 4.0456 3.3386 3.8657 0.83642-0.14232 1.4436-4.7359 2.3094-4.8572a117.1 117.1 0 0 1 16.86-1.0752c1.7237 1.891 3.3344 7.5598 5.0246 7.6393 1.197 0.0537 2.439-7.3799 3.6272-7.292 13.421 0.99995 26.102 4.1627 32.779 9.6767 9.1706-6.585 16.542-18.052 21.173-27.834-4.0247 2.4223-19.981 7.1833-19.981 7.1833-0.8238 4.8446-4.0455 11.743-4.5686 11.697-0.52336-0.0458-4.0707-6.8444-5.5557-9.6684-2.7488 0.74048-22.629 3.2758-22.629 3.2758-0.40952 3.8196-3.9785 12.961-4.8445 12.961-0.86649 0-5.7316-10.76-6.9491-12.589l-13.839-0.13755c-0.3352 1.0082-2.736 10.438-3.3092 10.501-0.57238 0.0633-5.7023-7.0327-7.1581-12.266-0.75739 0.0791-13.735-2.7654-13.735-2.7654" fill="#ce7486" stroke-width="4.1836"/>
 <path class="uuid-f1ea1703-cbf6-4187-8953-60267412309b" d="m326.12 33.165c-2.6314-2.962-35.787 22.479-45.978 61.583 18.111-23.688 48.208-59.077 45.978-61.583m2.2298 65.486c-0.49809-2.9955-38.188 12.693-41.522 37.899 10.032-10.032 41.799-36.226 41.522-37.899m-10.417 45.15s-20.077 1.3388-32.457 18.738l5.7902-0.13756s27.946-17.098 26.666-18.6m-232.27-133.39c1.5815-2.2592 35.707 54.914 22.454 78.179 0 0-24.349-75.477-22.454-78.179m-17.851 71.419c1.1416-0.97893 43.547 29.382 36.251 51.94 0 0-38.142-50.316-36.251-51.94m12.279 59.173c25.139 6.9616 42.112 17.262 61.796 48.066z" fill="#6b4c8d" stroke-width="4.1836"/>
 <g fill="#0f141b" stroke-width="4.1836">
  <path class="uuid-ab29a587-a596-4934-83c6-cc1a1ff049b4" d="m98.423 6.8c-15.756-9.6391-17.902-10.744-13.363 8.0409 4.3593 18.006 19.713 67.511 21.575 72.536 1.8827 5.0747 3.0666 3.2465 1.9999-0.71123-0.77003-2.8532-16.308-53.935-21.085-74.594-2.2384-9.6851-1.8284-8.7647 5.0621-4.9576 13.04 7.2 41.623 25.566 62.47 40.443 0.15815 0.11291 3.2631-1.2969 2.9034-1.5521-12.952-9.1538-47.902-32.063-59.566-39.201"/>
  <path class="uuid-ab29a587-a596-4934-83c6-cc1a1ff049b4" d="m70.978 75.428c-9.6182-2.1462-9.4507-0.09172-5.2253 6.6938 3.7777 6.0621 12.187 18.738 36.364 51.086 3.1253 4.3719 4.6439 2.9955 1.3599-1.594-17.061-24.759-29.356-41.69-34.494-49.952-2.4306-3.9117-2.2047-4.5099 3.2884-3.1963 9.8231 2.3428 29.089 7.3674 35.469 7.7355 0.43957 0.0251-0.0475-2.1169-0.48069-2.1337-4.075-0.12967-33.084-7.9238-36.28-8.6392"/>
  <path class="uuid-ab29a587-a596-4934-83c6-cc1a1ff049b4" d="m101.84 130.81c-2.7194 1.3597-19.245 3.4975-21.194 3.7736-9.3211 1.301-7.3632 2.9076-1.1511 7.6267 6.0369 4.5894 48.731 36.151 64.984 50.605 0.33046 0.29285-2.1044-4.1502-2.2801-4.3091-16.408-15.111-57.086-45.279-60.115-47.702-3.9576-3.167-4.1292-3.3302 0.6657-4.0288 6.0371-0.87852 16.463-2.3135 20.337-4.2631 0.27984-0.14231-0.85385-1.8952-1.2507-1.6986m45.384-78.242c-3.4682 3.4682-2.1797 4.535 1.4184 1.276 14.894-13.484 57.023-22.851 91.266-3.008 0.38423 0.22173 2.5605-1.1589 2.1754-1.3806-37.142-21.525-79.388-12.371-94.859 3.1126"/>
  <path class="uuid-ab29a587-a596-4934-83c6-cc1a1ff049b4" d="m324.47 25.149c-16.375 3.6523-73.987 19.91-90.149 26.599-4.1376 1.7153-3.8155 3.5352 0.40951 2.2131 16.153-5.0538 68.557-20.906 88.329-25.369 6.5976-1.4894 6.8444-1.8826 2.9159 3.8573-9.5929 14.019-36.226 46.949-45.781 60.282-2.8617 3.9954-1.2096 4.8446 1.9412 0.96217 7.8986-9.7269 40.033-50.149 47.413-61.621 5.9365-9.2207 4.7903-9.1245-5.0831-6.9197"/>
  <path class="uuid-ab29a587-a596-4934-83c6-cc1a1ff049b4" d="m283.89 90.986c7.5387 2.7068 33.356 1.8701 42.987 2.1713 5.7608 0.17994 6.5766 0.14705 0.65618 5.3425-5.9993 5.263-35.808 30.582-41.82 37.506-2.7067 3.121-2.6147 6.1499 0.37634 2.2299 2.4558-3.2172 41.087-35.791 44.258-38.707 9.6685-8.9028 5.4639-8.7563-3.7484-9.0032-9.8902-0.26358-34.737 1.071-42.288-1.0836-0.42218-0.12174-0.77005 1.4182-0.42218 1.5437"/>
  <path class="uuid-ab29a587-a596-4934-83c6-cc1a1ff049b4" d="m313.64 149.43c11.969-8.0702 10.229-9.3588-1.8157-11.296-7.8192-1.255-21.809-3.1921-23.646-3.6607-0.32575 0.4225-0.68151 1.1589-1.0926 1.6191 4.1376 1.0208 20.357 3.6272 28.218 5.0831 3.7443 0.69448 3.6691 1.4601 0.38423 3.8573-8.0408 5.8738-25.039 16.764-27.44 17.241-0.20878 0.0411 2.4474 0.40164 3.2381 0.53968 6.5349-3.2256 16.492-9.5638 22.152-13.379m-97.165 89.011c-24.307-11.275-54.555-25.307-79.547-56.952-2.3218-2.9369-3.0916-1.2928-0.90759 1.7488 24.093 33.565 55.404 47.367 79.778 57.454 3.941 1.6316 7.8191 3.2381 11.342 4.9367a25.01 25.01 0 0 0-0.79852-2.5478c-3.167-1.5229-6.4512-3.0541-9.8692-4.6396m59.562 22.223c-5.1166-6.7775-11.191-14.693-14.542-19.554 0.85385 0.38913 6.4972 3.6398 9.7771 5.1166 5.5181 2.4893 6.3842 2.506 1.7362-5.2296-2.573-4.2798-4.602-9.0157-5.56-11.25l-2.7026-0.76563c0.94084 2.6106 4.2128 8.4175 7.0494 13.061 1.5227 2.5897 1.4468 2.8616-1.0831 1.7822-3.2674-1.3932-8.0074-4.1836-9.116-4.694-2.9997-1.3848-3.3889-0.2217-1.2049 2.9704 3.1754 4.6396 10.488 15.103 16.115 22.583 1.7948 2.3847 1.5306 2.6817-1.0578 0.95394l-5.74-3.8531c-8.4508-5.6939-18.245-12.291-23.077-14.818-2.4055-1.255-3.0415-1.255-1.5433 2.0751 0.5392 1.1965 1.2381 2.6859 2.075 4.6229 0.83333 1.937 0.71155 2.3052-1.3851 0.68198-4.259-3.3009-8.9697-6.0412-13.68-8.4342-0.18332 0.54394-0.34786 1.5898-0.45539 2.0709 4.5643 2.3094 8.7982 5.0789 12.672 7.7983 6.9532 4.8823 7.3424 3.8364 4.0749-2.8532-1.0214-2.0918-2.1462-4.4221-2.1462-4.4263 3.9159 2.1755 18.169 12.505 25.796 17.609 12.003 8.0326 11.978 5.1375 3.9911-5.4513"/>
  <path class="uuid-ab29a587-a596-4934-83c6-cc1a1ff049b4" d="m281.94 163.41c-0.99145 0.99159-2.8826 4.3677-4.4891 7.3046-1.8284 3.3469-3.8991 6.8737-5.6898 8.9195-4.6312 5.2923-26.984 13.513-29.193 13.513-0.66567 0-1.5353-0.13756-2.4558-0.28035-2.6523-0.41838-7.0786-1.7571-8.9195 0.61494-1.958 2.5269-14.965 11.128-16.437 17.822-1.5559 7.0787 7.2879 29.11 13.814 38.376 4.2253 6.0035 4.1292 5.4136 4.3801-0.85355 0.48066-12.011 3.7486-17.404 7.564-21.805 0.37316-0.42676 2.46-0.79488 3.7778-1.2092 4.9199-1.5521 9.5178-4.4304 9.3086-11.133-0.15816-4.945-0.97085-3.4389-1.5274-0.0302-0.77796 4.7317-3.5685 7.8568-9.1076 9.6098-3.2298 1.0208-4.2046 1.5814-5.5224 3.1001-3.4934 4.033-6.196 7.9154-6.196 18.571 0 4.3593-0.97086 2.4809-2.4558-0.0917-5.6354-9.7646-11.89-25.947-11.89-32.917 0-0.71124 0.0632-1.3221 0.20092-1.8241 1.0452-3.8322 6.9868-8.522 11.325-11.944 1.9537-1.5437 3.6398-2.8741 4.74-3.9744 1.5433-1.5437 4.2799-1.1129 6.6939-0.7321 0.98348 0.15495 1.9118 0.30122 2.7026 0.30122 5.4553 0 24.759-7.2921 30.825-14.22 1.9035-2.1797 4.0204-6.0537 5.8905-9.4717 1.4816-2.711 2.8783-5.2714 3.7067-6.0997 1.5353-1.5396 15.396-2.6357 19.312-0.52291 3.6732 1.9788 13.312 14.998 13.312 26.035 0 2.2759-0.40953 4.4681-1.363 6.4595-3.7987 7.9154-17.082 21.512-26.014 23.554 4.4471-14.124 2.0081-23.366-2.9787-29.474-2.6357-3.234-5.0747-3.3888-2.2592-0.31371 4.7359 5.1668 7.0369 17.211 3.8907 27.629-1.7237 5.7274-2.1126 6.0663 4.0206 3.7527 9.3671-3.5352 21.675-16.576 25.395-24.324 6.0913-12.693-7.8066-32.971-12.664-35.586-3.966-2.1336-19.328-1.1254-21.7 1.2509"/>
  <path class="uuid-ab29a587-a596-4934-83c6-cc1a1ff049b4" d="m248.84 222.88c4.7065 9.0241 17.676 8.3045 25.658 4.8823 3.8071-1.6274 4.4429-3.3051 0.64039-1.6693-6.4052 2.7444-21.077 3.3427-24.88-3.9535-0.20563-0.39325-1.6233 0.34723-1.4183 0.74048"/>
  <path class="uuid-ab29a587-a596-4934-83c6-cc1a1ff049b4" d="m266.15 230.26c3.2506 4.8823 15.166 6.6018 21.077 4.6564 8.1203-2.6733 17.232 2.3344 19.692 8.8023 1.012 2.6608 1.8785 1.983 0.8491-1.5061-1.9997-6.7775-9.5847-11.405-20.843-8.8693-5.196 1.1714-16.764 0.0458-19.441-3.9744-0.24683-0.3681-1.578 0.51881-1.3298 0.88691"/>
  <path class="uuid-ab29a587-a596-4934-83c6-cc1a1ff049b4" d="m307.88 207.33c0.40161 7.928 7.0285 12.438 11.463 15.454 2.0081 1.3681 3.9034 2.6566 4.1586 3.5895 0.63089 2.3178 1.276 9.7102 1.276 15.559 0 3.008-0.17073 5.6061-0.60244 6.8946-0.97089 2.9118-11.208 9.1914-23.667 10.944-2.9787 0.4184-3.0541 0.35135-1.1543-1.9663 4.0329-4.9283 7.1162-13.304 5.7692-18.872-0.11067-0.43088-1.4563-1.2049-1.3772-0.774 1.5654 8.5973-3.7109 15.827-6.8403 19.738-3.422 4.284-3.4598 4.9576 1.7572 4.4681 15.233-1.435 25.997-9.2458 26.963-12.145 1.4009-4.2004 1.1796-20.567 0.12639-24.395-0.40953-1.502-2.9662-3.1586-5.5183-4.899-4.5476-3.0959-10.773-7.472-10.773-15.023 0-0.44353-1.6024 1.1756-1.5898 1.4225m-233.12-35.322-4.6187 3.326c-6.0578 3.2925-12.567 7.2628-13.952 10.317-1.3646 2.9996-4.531 12.517-5.7232 15.981-0.64514 1.8701-1.8282 2.5688 2.075 2.7821 3.9745 0.22169 7.2293-1.2677 11.99-5.7065 0.97878-0.12967 1.9454-0.2761 2.8826-0.43089 3.6773-0.60654 6.8526-1.1296 10.149 0.0791l6.0915 2.3261c7.3673 2.8741 13.923 5.7692 20.613 5.7692 3.8447 0 12.329-8.0242 12.58-10.463 0.79534-7.702-3.1126-15.914-6.1206-19.249-0.9661-1.071-2.7529-2.4516-4.0582-2.4516-2.7863 0-11.321 1.2718-11.321 1.2718-4.7735 0.57319-10.175-1.3429-14.116-2.3554-3.464-0.8869-5.5181-1.7529-6.4678-1.1924m-17.115 14.304c1.167-2.5646 8.3589-6.4804 13.613-9.3378l4.6606-2.5938c0.49808-0.23006 2.9452 0.39736 4.9115 0.89955 4.0664 1.0417 9.6307 2.4683 14.705 1.8617l0.73686-0.0886c2.782-0.33887 7.4385-0.90367 10.128-0.90367 0.40162 0 1.3013 0.4769 2.5102 1.8157 3.3971 3.7653 6.652 11.2 5.9952 17.559-0.14244 1.4308-7.7189 8.9153-10.827 8.9153-6.3884 0-12.622-2.4307-19.839-5.2504l-6.1206-2.8742c-3.6942-1.3556-7.2252-0.23846-10.961 0.38075-0.68152 0.11225-3.2842 0.44764-3.3386 0.50203-3.8865 0.48117-7.0117 1.8659-3.9075 1.8659 0.64039 0 1.2175-0.0759 1.8241-0.117-3.3218 2.4098-7.0326 3.4599-9.2039 3.2883 0.86178-2.9997 3.7484-12.911 5.1208-15.931"/>
  <path class="uuid-ab29a587-a596-4934-83c6-cc1a1ff049b4" d="m21.218 161.7c-2.8282 10.923 5.2504 32.118 11.722 39.615 2.2341 2.5855 2.6775 2.7528 2.983-0.80326 0.93768-10.886 4.5644-19.625 5.6772-21.014 0.82065-1.0249 3.7317-4.0498 8.1915-8.5179 3.0875 1.7153 9.4383 5.3634 12.262 4.4221 2.8449-0.94556 2.8533-2.2466 0.0094-1.2969-1.8574 0.6192-6.3046-2.5938-9.1244-4.0372-1.2302-0.62758-2.4474-1.2174-3.0709-1.3262-1.2128-0.22166-9.2667 8.9237-10.396 10.334-1.2128 1.5186-3.602 8.5681-4.7651 18.065-0.46488 3.7862-0.1264 4.2003-2.6022 0.28446-4.5811-7.2544-9.1872-20.546-9.1872-30.068 0-1.8701 0.17545-3.5895 0.56452-5.0956 0.90759-3.5017 17.86-18.701 20.169-18.994 2.2425 0 20.927 5.0036 22.311 5.9742 1.0879 1.4726 16.952 20.45 24.064 27.014 0.60244 0.55642 3.6731 0.45191 3.305 0.20495-8.6559-5.8152-22.525-25.558-25.583-28.21-3.0582-2.6524-20.148-7.5138-24.114-7.1163-3.9702 0.39751-21.433 16.793-22.412 20.567"/>
  <path class="uuid-ab29a587-a596-4934-83c6-cc1a1ff049b4" d="m21.549 178.79c-7.2377 0.0664-8.9027-0.49792-10.664 0.4769-1.7613 0.97893-11.421 14.057-10.861 18.835 0.60244 5.1249 8.0158 20.563 22.813 28.808 2.0584 1.1464 2.5605 0.47278 2.1253-0.76135-4.213-11.978-3.4682-22.897-2.9494-27.035 0.42218-3.3678-0.99141-2.6608-1.8157 0.63597-1.7362 6.9532-1.1511 14.542 2.6607 24.913-15.956-9.9068-20.286-25.449-20.286-27.005 0-3.9159 8.4802-15.3 9.7479-16.747 0.71944-0.43515 5.2463-0.47689 9.2499-0.51452l2.2173-0.0204c-0.2594-0.53129-0.53128-1.0626-0.74475-1.5898l-1.4847 0.0173m28.06-8.384c0.56449 1.3973 0.52336 2.5562-0.1264 3.5352-1.1163 1.6735-3.8155 2.757-7.2712 3.464-0.56449 0.60244-1.0879 1.2216-1.5148 1.891 4.715-0.76563 8.5389-2.1044 10.116-4.4681 0.53128-0.79487 0.53918-2.4851 0.53918-3.4306 0-0.75725-1.9035-1.4016-1.7362-0.99158"/>
  <path class="uuid-ab29a587-a596-4934-83c6-cc1a1ff049b4" d="m20.519 201.47c-0.42693 0.10911-0.03176 1.6609 0.3969 1.5521 5.422-1.3889 10.806 2.8574 16.508 6.7858 4.9786 3.4306 9.5931 7.0076 15.107 7.2502 3.9578 0.17155 7.4677-1.573 9.8609-2.5269 3.2423-1.2885 4.1877-1.3429 7.8735-0.42249 2.1713 0.53966 5.0036 1.5521 7.3129 1.071 5.3258-1.117 12.112-10.731 16.647-10.886 0.44431-0.0173-1.3646-1.4476-2.029-1.2341-2.7069 0.87441-5.4806 3.1712-8.1832 5.4094-2.6315 2.1797-5.1165 4.238-7.179 4.7066-1.9288 0.44352-4.0917-0.0965-6.1835-0.61493-3.8615-0.96218-4.9241-1.071-8.8483 0.48954-2.3679 0.94129-5.0496 2.0081-8.6643 1.8534-5.0496-0.22169-10.007-3.6356-14.802-6.9406-5.744-3.9577-11.685-8.0535-17.814-6.4888m210.97-122.76c-21.851 11.873-43.351 32.348-51.446 47.693-2.5352 4.7986-0.98349 5.8738 1.7906 0.94556 7.5556-13.438 31.026-36.531 52.383-48.137 3.9619-2.1504 1.2302-2.6482-2.7278-0.49777"/>
  <path class="uuid-ab29a587-a596-4934-83c6-cc1a1ff049b4" d="m230.09 80.377c1.6736 10.932 1.5856 24.265-0.21664 32.431-1.4895 6.7356-3.3218 9.8859-10.823 11.965-13.199 3.6565-31.386 4.1585-37.623 2.8867-0.43168-0.0886-1.4437 1.3053-1.0088 1.3932 6.539 1.3388 25.742 1.732 39.372-2.0458 8.2501-2.2842 10.89-6.4428 12.492-13.693 1.87-8.4677 1.3756-22.278-0.35578-33.561-0.0632-0.43926-1.8993 0.19243-1.8368 0.62758m-107.46-0.9832c7.2964 8.5806 23.646 34.624 28.336 45.723 1.9705 4.6647 3.5687 3.9452 1.7069-0.77401-4.8069-12.187-18.291-34.607-27.675-45.053-2.6106-2.9034-5.0414-3.0331-2.3722 0.10436"/>
  <path class="uuid-ab29a587-a596-4934-83c6-cc1a1ff049b4" d="m124.48 80.854c-2.9118 9.3546-3.418 28.177-0.1264 35.716 3.305 7.5891 19.132 10.928 27.997 10.622 0.43956-0.0173 0.12639-1.4768-0.30532-1.4601-8.6015 0.2971-22.391-3.3929-25.303-10.074-3.1083-7.1373-3.4932-25.424-0.72418-34.331 0.1264-0.4225-1.3978-0.89939-1.5275-0.47689m118.69 52.191c-6.5516 2.9704-13.881 5.3006-21.671 7.4343-2.1922 0.59833-2.0416 0.98731-2.3721 2.7235a33.364 33.364 0 0 1-3.5603 9.6976c-1.0294-1.5898-3.2298-5.7399-4.3216-7.8108-0.82064-1.5521-0.40953-2.0374-2.6273-1.5982a188.41 188.41 0 0 1-20.211 2.8532c-1.9329 0.1632-1.6149 0.59407-2.0668 2.3596-0.71155 2.7947-1.9454 6.4302-2.9118 8.8149-1.0547 2.598-0.91554 2.1253-2.0249 0.0759-0.84914-1.5814-3.7861-7.3967-4.3509-8.4426-0.96613-1.7948-0.99934-2.1797-2.7697-2.1713a154.75 154.75 0 0 1-11.626-0.364c-1.4057-0.10116-1.4358 0.70285-1.8284 1.9496-0.18834 0.59833-1.0579 3.7067-1.7863 6.129-0.9329 3.1043-1.004 2.3052-1.9831 0.88279-1.3883-2.0165-3.2548-5.0915-4.4764-7.9112-0.71947-1.6609-0.64039-2.2131-2.4767-2.5227a122.94 122.94 0 0 1-11.413-2.5478c-1.5433-0.41412-1.7026 0.39324-1.9914 1.4476-0.1264 0.45602-0.55656 2.0918-0.87438 3.3092-0.4064 1.5646-0.30531 1.4977-1.2254 0.34297-1.1796-1.4685-2.4223-3.6565-3.3762-5.6102-1.129-2.3177-0.81593-2.2801-1.8701-2.7528-3.029-1.3597-6.242-2.8407-8.9446-4.4932-4.8948-2.9955-4.8195-1.0333 0.0789 1.9663 2.736 1.6734 5.6561 3.1754 8.7311 4.489 0.96139 3.0708 6.0829 11.639 7.0201 10.442 0.79538-1.0166 1.9998-7.2377 1.9998-7.2377 4.0122 1.1965 8.2 2.1504 12.526 2.8741 1.8576 4.5978 6.3467 12.835 7.8528 12.664 0.72737-0.079 0.91238-0.84927 3.556-10.442l0.23393-0.8284c4.2423 0.31798 8.5555 0.45602 12.911 0.41001 0.71629 1.3806 5.7902 13.111 7.2336 13.078 1.7153-0.038 4.3468-9.229 5.4345-13.68a184.38 184.38 0 0 0 21.546-3.1168c4.1335 7.7522 5.422 10.246 5.9909 10.3 1.5433 0.1423 4.4682-7.8526 5.5015-13.061 7.815-2.1546 15.463-4.2673 21.851-7.8025 3.6104-1.9998 3.1628-3.1503 0.30059-1.8533"/>
  <path class="uuid-ab29a587-a596-4934-83c6-cc1a1ff049b4" d="m238.95 135.68c-9.6348 20.353-22.859 30.043-36.423 34.912-1.1163 0.40162-1.7069 0.5104-2.3721-0.14706-1.2808-1.2593-3.8907-3.8113-4.7735-4.556-1.7781-1.4977-1.7613-1.7488-2.7319 0.46013-0.57712 1.3137-1.5654 3.6983-2.255 5.3425-0.53603 1.2718-0.419 1.5312-1.3171 0.35561-1.2429-1.6232-3.0206-4.0665-4.5433-6.0119-1.7529-2.2424-1.8451-2.1964-3.1797 0.15495-0.87914 1.5437-2.2883 4.1752-3.2507 5.9491-0.66095 1.2174-0.69415 1.6609-1.5856 0.26359-1.276-2.0081-3.4514-5.4805-4.6312-7.2753-1.5022-2.2843-1.6274-2.3386-2.8155 0.0585-0.71944 1.4476-1.9288 4.0288-2.7864 5.8278-0.74949 1.5689-0.66567 1.594-1.5101 0.15494-1.197-2.0374-3.1126-5.3508-4.2046-7.1414-1.6106-2.6482-1.7362-2.5227-2.6942-0.16319-0.3431 0.845-0.83643 2.188-1.2966 3.4682-0.71946 1.9914-0.61036 1.9747-1.7321 0.20919-1.197-1.8826-2.6439-4.1878-3.5142-5.4806-1.431-2.1295-1.5274-1.7738-2.3178-0.12491-0.40636 1.0458-0.8238 2.3512-1.2428 3.5644-0.52653 1.5186-0.69415 1.1296-1.8742 0.3221-10.53-7.2251-17.521-18.274-22.935-28.608-0.14244-0.25931-2.1838-0.90366-1.983-0.51042 5.5726 10.773 12.053 23.148 24.303 30.988 1.8533 1.1881 2.7067 1.1421 3.5685-0.76563 0.32574-0.7196 0.60719-1.5689 0.86967-2.3052 0.36052-0.9998 0.53129-1.0376 1.3551 0.1967 1.0626 1.5898 1.9914 2.9997 2.9578 4.4221 1.9998 2.9453 2.2384 2.8323 3.2424 0.69875 0.46805-0.99997 0.95821-2.3261 1.4436-3.5896 0.42218-1.1045 0.62776-0.98319 1.2254-0.0585 1.0088 1.5605 2.4893 3.7653 3.8447 5.9198 1.9664 3.1335 1.799 3.1252 3.1001 0.51452 0.68152-1.3722 1.7906-3.4096 2.711-5.0162 1.0041-1.7529 0.97563-1.4141 1.9329 0.0411l4.4261 6.7231c1.3899 2.1169 1.5559 1.9998 2.6567 0.0664l3.5184-6.2001c1.0041-1.7655 0.99934-1.2341 1.7321-0.30122 1.4689 1.8743 3.4807 4.4346 4.6647 5.9073 1.799 2.2341 1.757 1.6107 2.8323-0.41412 0.84436-1.594 1.7321-3.7736 2.3261-5.2212 0.46013-1.1296 0.60718-0.98731 1.4689-0.14232 1.0831 1.0626 2.7318 2.6901 3.9828 3.8113 1.284 1.1505 1.9161 1.4558 3.0791 1.0585 14.27-4.9158 29.373-15.873 38.648-37.406 0.17545-0.40574-1.7196-0.34724-1.9077 0.0537m-40.836-6.8653c-0.63247 0.079-1.4262-1.23-1.8073-5.1542-0.49334-5.1166-0.0157-6.5641 0.53603-6.6854 0.77795-0.17155 1.5899 2.1085 1.9372 6.3968 0.20877 2.6357 0.0474 5.355-0.66096 5.4429m-55.667-13.563c-0.60243 0-0.82382 2.1337-0.506 5.7734 0.28927 3.3469 0.87916 4.8321 1.5733 4.7652 0.26411-0.0252 0.70365-1.2049 0.43167-5.058-0.22135-3.1126-0.7495-5.4806-1.4974-5.4806"/>
 </g>
</svg>
