<svg version="1.2" xmlns="http://www.w3.org/2000/svg" viewBox="0 0 849 284" width="849" height="284">
	<style>
		.s0 { fill: #000000 } 
	</style>
	<path id="Path 0" fill-rule="evenodd" class="s0" d="m48.5 0.64c4.4 0.19 11.6 0.57 16 0.84 4.4 0.28 51.42 2.98 104.5 6 53.08 3.03 99.65 5.73 103.5 6 3.85 0.28 11.05 0.73 16 1.02 4.95 0.29 12.38 0.73 16.5 0.99 4.13 0.26 12 0.71 17.5 1.01 5.5 0.29 13.38 0.76 17.5 1.03 4.13 0.27 54.52 3.19 112 6.47 57.48 3.29 107.42 6.19 111 6.44 3.58 0.26 11 0.71 16.5 1.02 5.5 0.3 13.6 0.77 18 1.04 4.4 0.26 11.6 0.71 16 0.99 4.4 0.28 51.65 2.98 105 6.02 53.35 3.03 100.15 5.77 104 6.09 3.85 0.32 7.23 0.72 7.5 0.89 0.27 0.18 0.43 2.28 0.35 4.67-0.08 2.39-0.2 5.35-0.25 6.59-0.09 2.13-0.43 2.23-6.35 1.81-3.44-0.25-10.52-0.7-15.75-1.01-5.23-0.31-13.1-0.76-17.5-1.01-4.4-0.25-12.95-0.71-19-1.03-6.05-0.32-13.92-0.78-17.5-1.02-3.58-0.24-11.23-0.68-17-0.98-5.77-0.31-14.33-0.77-19-1.03-4.67-0.26-12.55-0.71-17.5-1-4.95-0.28-12.6-0.73-17-0.98-4.4-0.26-12.27-0.71-17.5-0.99-5.23-0.29-13.55-0.75-18.5-1.03-4.95-0.28-12.6-0.73-17-0.98-4.4-0.26-12.27-0.71-17.5-0.99-5.23-0.29-13.55-0.75-18.5-1.03-4.95-0.29-12.83-0.74-17.5-1.01-4.67-0.27-12.1-0.69-16.5-0.94-4.4-0.26-12.73-0.71-18.5-1.02-5.77-0.3-13.88-0.76-18-1.02-4.13-0.26-11.55-0.69-16.5-0.97-4.95-0.27-13.5-0.74-19-1.03-5.5-0.3-13.38-0.75-17.5-1-4.13-0.26-11.66-0.7-16.75-0.98-5.09-0.28-13.41-0.74-18.5-1.02-5.09-0.29-12.85-0.73-17.25-0.98-4.4-0.26-12.27-0.7-17.5-0.99-5.23-0.29-13.32-0.75-18-1.02-4.68-0.26-12.55-0.72-17.5-1.01-4.95-0.28-12.82-0.73-17.5-1-4.68-0.26-12.77-0.71-18-1-5.23-0.28-13.1-0.73-17.5-0.99-4.4-0.25-12.05-0.7-17-0.98-4.95-0.28-13.27-0.74-18.5-1.03-5.23-0.28-13.1-0.73-17.5-0.99-4.4-0.25-12.05-0.7-17-0.98-4.95-0.28-13.28-0.74-18.5-1.03-5.22-0.28-12.88-0.72-17-0.97-4.13-0.25-12.22-0.72-18-1.04-5.78-0.32-13.43-0.76-17-0.97-3.57-0.22-12.13-0.69-19-1.05-6.88-0.36-14.41-0.73-20.98-0.96l-0.03 4c-0.02 2.2-0.29 11.65-0.6 21-0.53 15.93-0.75 17.47-3.59 24.5-1.67 4.13-3.2 7.84-3.42 8.25-0.21 0.41-2.18-0.49-4.39-2-2.96-2.03-3.89-3.28-3.55-4.75 0.25-1.1 0.72-8.08 1.03-15.5 0.32-7.42 0.85-18.45 1.18-24.5 0.35-6.35 1.08-11.32 1.73-11.75 0.62-0.41-0.46-0.67-2.38-0.57-1.92 0.09-9.58-0.16-17-0.56-7.42-0.39-14.74-0.92-16.25-1.17-1.51-0.25-2.94-0.11-3.17 0.3-0.23 0.41-0.73 7.72-1.12 16.25-0.63 13.68-1.01 16.09-3.21 20.5-1.37 2.75-2.88 5.56-3.37 6.25-0.68 0.97-1.77 0.81-4.88-0.75-2.2-1.1-3.83-2.34-3.62-2.75 0.21-0.41 0.73-6.6 1.15-13.75 0.42-7.15 0.81-16.15 0.97-27l-16-0.61-4.34 25.81c-2.39 14.19-5.01 30.08-5.83 35.3-0.81 5.22-1.63 10.4-1.81 11.5-0.17 1.1-1.04 6.5-1.92 12-0.88 5.5-2.29 14.28-3.14 19.5-0.84 5.22-2.23 13.78-3.07 19-0.85 5.22-1.69 10.4-1.87 11.5-0.17 1.1-1.07 6.72-2 12.5-0.92 5.78-2.31 14.32-3.07 19-0.77 4.68-1.98 12.22-3.95 25.02l-18.5-0.02 0.52-2.75c0.29-1.51 1.2-7.47 2.03-13.25 0.83-5.78 2.38-16.35 3.45-23.5 1.07-7.15 2.82-18.85 3.9-26 1.08-7.15 2.9-19.3 4.06-27 1.15-7.7 2.96-19.85 4.02-27 1.06-7.15 2.88-19.3 4.04-27 1.17-7.7 2.97-19.62 4-26.5 1.04-6.87 2.35-15.65 2.92-19.5 0.56-3.85 1.37-8.44 1.78-10.19 0.64-2.72 1.27-3.25 4.26-3.61 1.94-0.22 7.12-0.25 11.52-0.06zm792.38 67.44c0.21-0.04 1.45 3.63 2.76 8.17 1.31 4.54 2.17 8.48 1.92 8.75-0.26 0.28-0.04 1.51 0.49 2.75 0.79 1.87 0.57 2.41-1.3 3.19-2.06 0.85-1.97 0.94 1 1 1.82 0.03 3.03 0.5 2.75 1.06-0.27 0.55-0.69 2.69-0.92 4.75-0.23 2.06-1.17 8.7-2.1 14.75-0.92 6.05-1.82 11.9-1.98 13-0.17 1.1-1.07 7.18-2 13.5-0.93 6.33-1.84 12.4-2.02 13.5-0.18 1.1-1.08 6.95-2 13-0.92 6.05-1.81 12.13-1.98 13.5-0.17 1.38-1.07 7.45-2.01 13.5-0.93 6.05-1.83 11.9-1.99 13-0.17 1.1-1.07 7.18-2 13.5-0.93 6.33-1.84 12.4-2.02 13.5-0.18 1.1-1.09 6.95-2.02 13-0.92 6.05-1.83 12.13-2 13.5-0.17 1.38-0.81 6.1-1.42 10.5-0.61 4.4-1.32 9.24-1.57 10.75-0.42 2.45-0.85 2.72-3.96 2.5-1.93-0.14-3.61 0.06-3.75 0.43-0.14 0.38-30.63-1.07-67.76-3.2-37.12-2.14-71.55-4.15-76.5-4.46-4.95-0.32-11.92-0.8-15.5-1.06-3.58-0.27-61.62-3.62-129-7.45-67.37-3.83-125.87-7.19-130-7.46-4.12-0.28-11.55-0.74-16.5-1.04-4.95-0.3-12.15-0.75-16-1.01-3.85-0.25-10.82-0.7-15.5-1-4.68-0.29-48.1-2.77-96.5-5.5-48.4-2.73-90.92-5.21-94.5-5.5-3.57-0.29-26.52-1.64-51-2.99-24.47-1.36-46.75-2.68-49.5-2.93-2.75-0.25-11.97-0.75-20.5-1.11-8.52-0.36-16.17-1.1-17-1.64-1.11-0.73-1.18-1.09-0.25-1.41 0.79-0.26 1.25-2.36 1.26-10.92l7.24 0.16c3.99 0.09 12.2 0.43 18.25 0.77 6.05 0.33 14.6 0.81 19 1.07 4.4 0.26 12.05 0.7 17 0.98 4.95 0.29 12.83 0.74 17.5 1.01 4.68 0.26 12.78 0.73 18 1.02 5.23 0.3 13.32 0.75 18 1.01 4.68 0.26 12.32 0.7 17 0.97 4.68 0.26 12.78 0.73 18 1.02 5.23 0.3 13.32 0.75 18 1.02 4.68 0.26 12.55 0.7 17.5 0.98 4.95 0.28 12.6 0.72 17 0.98 4.4 0.26 12.5 0.72 18 1.02 5.5 0.3 14.05 0.77 19 1.04 4.95 0.27 12.15 0.7 16 0.94 3.85 0.25 11.95 0.7 18 1.02 6.05 0.31 14.38 0.76 18.5 1.01 4.13 0.24 11.77 0.68 17 0.96 5.23 0.29 13.1 0.74 17.5 1 4.4 0.26 12.05 0.71 17 0.99 4.95 0.28 13.27 0.74 18.5 1.02 5.23 0.29 13.1 0.73 17.5 0.99 4.4 0.26 12.05 0.71 17 0.99 4.95 0.28 13.5 0.76 19 1.05 5.5 0.29 13.15 0.73 17 0.99 3.85 0.25 19.15 1.14 34 1.97 14.85 0.83 30.83 1.72 35.5 1.99 4.67 0.26 20.65 1.16 35.5 2 14.85 0.83 30.83 1.74 35.5 2.02 4.67 0.28 52.15 2.98 105.5 6.01 53.35 3.02 98.8 5.51 105 5.54l1.27-5.77c0.7-3.17 1.94-10.27 2.75-15.77 0.81-5.5 2.15-14.16 2.98-19.25 0.82-5.09 2.19-13.41 3.04-18.5 0.84-5.09 2.22-13.75 3.06-19.25 0.84-5.5 1.67-10.9 1.85-12 0.18-1.1 0.87-5.15 1.53-9 0.66-3.85 1.34-7.9 1.51-9 0.17-1.1 1.01-6.5 1.86-12 0.86-5.5 2.3-14.5 3.2-20 0.91-5.5 1.79-10.9 1.96-12 0.18-1.1 0.84-5.15 1.48-9 0.64-3.85 1.32-7.22 1.52-7.5 0.19-0.27-0.07-2.3-0.59-4.5-0.53-2.2-1.15-5.35-1.4-7-0.25-1.65-1.22-5.23-2.16-7.95-0.94-2.73-1.38-5.2-0.97-5.5 0.41-0.3 4.21-1.75 8.43-3.22 4.22-1.47 7.85-2.71 8.06-2.75zm-676.88-44.08h12.62l-0.43 16.25c-0.4 14.85-0.65 16.68-2.93 21.25-1.37 2.75-2.89 5.56-3.38 6.25-0.68 0.97-1.77 0.81-4.88-0.75-2.2-1.1-3.83-2.34-3.62-2.75 0.21-0.41 0.72-6.6 1.12-13.75 0.41-7.15 0.87-14.12 1.02-15.5 0.16-1.37 0.33-4.41 0.38-6.75zm43 3h12.74l-0.45 21.25c-0.44 20.87-0.5 21.38-3.48 28.75-1.67 4.13-3.21 7.84-3.42 8.25-0.22 0.41-2.21-0.49-4.42-2-2.51-1.71-3.86-3.32-3.58-4.25 0.26-0.82 0.78-8.7 1.16-17.5 0.38-8.8 0.82-17.57 0.98-19.5 0.17-1.92 0.34-6.09 0.38-9.25zm44 4h12.55l-0.42 14.75c-0.41 14.31-0.51 14.9-3.45 19.75-1.66 2.75-3.18 5.23-3.36 5.5-0.18 0.28-2.11-0.4-4.29-1.5-2.17-1.1-3.8-2.22-3.6-2.5 0.19-0.27 0.65-5.9 1.01-12.5 0.37-6.6 0.84-12.9 1.04-14 0.21-1.1 0.41-3.69 0.45-5.75zm49 3h12.77l-0.46 23.75c-0.43 21.89-0.65 24.26-2.85 30.25-1.31 3.58-2.85 7.74-4.46 12l-4-3q-3.99-3-3.57-4.75c0.23-0.96 0.74-10.07 1.13-20.25 0.39-10.17 0.81-20.07 0.93-22 0.13-1.92 0.29-6.31 0.37-9.75zm206.94 42.99c2.87-0.02 4.38 0.81 7.8 4.25 3.57 3.59 4.23 4.89 4.23 8.26-0.01 3.01-0.68 4.69-2.74 6.77-2.33 2.36-3.54 2.77-8.23 2.77-4.69 0-5.91-0.41-8.23-2.77-2.14-2.17-2.78-3.85-2.96-7.72-0.2-4.46 0.12-5.29 3.18-8.25 2.54-2.47 4.29-3.3 6.95-3.31zm214.95 43.01l-0.39 19.5h-17l-0.25-3c-0.14-1.65-1.16-3.9-2.28-5-1.12-1.1-2.12-2.43-2.21-2.96-0.1-0.52 1.58-2.66 3.73-4.75 3.8-3.68 4.12-3.79 18.4-3.79zm-232.47 7.26c0.59 0.23 7.15 2.51 14.58 5.07 11.73 4.05 25.24 6.97 192.5 39.83l21.25-0.33c11.68-0.18 21.25 0.01 21.25 0.42 0 0.41-0.92 1.99-2.04 3.5-1.11 1.51-2.02 2.98-2.01 3.25 0.02 0.28 5.66 1.63 12.55 3 6.89 1.38 12.52 2.95 12.51 3.5-0.01 0.55-14.98 7.88-33.26 16.29-18.29 8.41-33.36 15.05-33.5 14.75-0.14-0.3 0.41-1.55 2.68-5.04l-9.72-0.73c-5.34-0.4-22.99-1.03-68.71-2.1l-33-15.41-43.5-6.26-19.75-16.36c-18.46-15.3-20.57-16.75-32.25-22.12-6.88-3.17-13.06-6.15-13.75-6.64-0.98-0.69-0.82-2.18 0.75-6.88 1.56-4.7 2.38-5.91 3.75-5.59 0.96 0.22 2.99 0.67 4.5 1 2.19 0.47 2.88 0.17 3.42-1.48 0.37-1.14 1.16-1.89 1.75-1.67zm87.08 47.46c10.57 4.9 14.31 6.15 20 6.65 3.85 0.34 6.32 0.33 5.5-0.03-0.83-0.36-9.49-3.51-19.25-7-9.76-3.49-18.31-6.35-19-6.37-0.69-0.01-1.03 0.14-0.75 0.35 0.27 0.2 6.35 3.08 13.5 6.4zm39.75-2.71c3.71 1.19 8.69 1.96 12.25 1.9l6-0.11c-16.41-3.72-21.92-4.8-22.84-4.8-0.91 0-1.66 0.23-1.66 0.5 0 0.28 2.81 1.4 6.25 2.51zm20.51 15.49l68.74 9.77c4.22-5.25 5.3-7.22 5.13-7.77-0.17-0.55-2.97-1.54-6.22-2.21-3.42-0.69-12.65-1.13-21.91-1.04-8.8 0.09-22.69 0.41-30.87 0.71z"/>
</svg>