<?xml version="1.0" encoding="UTF-8"?>
<!-- Created with Inkscape (http://www.inkscape.org/) -->
<svg version="1.1" viewBox="0 0 103.6 104.57" xmlns="http://www.w3.org/2000/svg">
 <g transform="translate(-26.827 -33.869)">
  <g transform="matrix(.35256 -.012479 -.012479 -.35256 55.478 89.219)">
   <path d="m0 0c-1.023 0.655-14.54 9.389-19.071 11.396-2.47-2.913-6.349-11.377-8.433-15.724 2.387-2.374 4.769-4.857 7.11-7.414 0.799 3.412 3.749 11.291 4.572 12.824 3.668-3.026 15.945-11.306 21.07-14.374 2.951 8.258 14.85 37.536 22.278 41.911 3.974-0.314 16.601-10.19 18.933-13.659-0.621 4.342-1.87 8.804-3.617 13.455-3.073 3.043-13.013 10.331-18.095 12.382-5.7-2.339-22.298-35.444-24.747-40.797" fill="#fff"/>
  </g>
  <g transform="matrix(.35256 -.012479 -.012479 -.35256 71.671 83.365)">
   <path d="m0 0c-2.332 3.469-14.959 13.345-18.933 13.659-7.428-4.375-19.327-33.653-22.278-41.911-5.125 3.068-17.402 11.348-21.07 14.374-0.823-1.533-3.773-9.412-4.572-12.824 6.721-7.35 13.072-15.34 18.027-23.319 2.329-3.75 14.467-6.145 20.347-6.645-1.26 1.066-1.619 5.157-1.054 6.194 5.178 9.524 13.44 5.785 16.229 2.076 0.327 4.706 5.445 7.499 9.386 4.048 1.127-0.986 2.306-2.419 3.464-4.093 1.6 13.318 2.716 36.25 0.454 48.441" fill="#fff"/>
  </g>
  <g transform="matrix(.35256 -.012479 -.012479 -.35256 70.843 99.049)">
   <path d="m0 0c-3.94 3.45-9.059 0.657-9.386-4.049 2.876-3.828 6.692-10.797 8.18-15.312 3.512-1.912 9.665-3.763 13.243-4.724-0.709 10.831-11.511 23.625-12.037 24.085" fill="#fff"/>
  </g>
  <g transform="matrix(.35256 -.012479 -.012479 -.35256 66.728 99.739)">
   <path d="m0 0c-6.346 4.146-16.948-1.806-13.596-8.576 2.406-4.864 11.674-8.97 24.601-13.602 0.379 7.225-10.389 21.776-11.005 22.178" fill="#fff"/>
  </g>
  <g transform="matrix(.35256 -.012479 -.012479 -.35256 47.1 88.22)">
   <path d="m0 0c-1.467-2.904-2.874-5.92-3.871-7.999 2.388-2.374 4.77-4.856 7.111-7.414 0.799 3.412 3.749 11.291 4.572 12.824 3.667-3.026 15.944-11.306 21.07-14.374 0.941 2.631 2.791 7.399 5.114 12.812-11.135-0.578-22.637 1.085-33.996 4.151" fill="#fff"/>
  </g>
  <g transform="matrix(.35256 -.012479 -.012479 -.35256 59.138 89.26)">
   <path d="m0 0c-2.323-5.413-4.173-10.181-5.114-12.812-5.126 3.069-17.403 11.348-21.071 14.374-0.822-1.533-3.773-9.412-4.571-12.824 6.721-7.349 13.071-15.34 18.027-23.319 2.329-3.75 14.466-6.145 20.347-6.645-1.261 1.067-1.619 5.158-1.055 6.195 5.178 9.523 13.441 5.785 16.229 2.075 0.328 4.706 5.446 7.499 9.386 4.049 1.128-0.987 2.307-2.419 3.465-4.094 1.476 12.3 2.536 32.778 0.909 45.443-11.143-8.064-23.597-11.771-36.552-12.442" fill="#fff"/>
  </g>
  <g transform="matrix(.35256 -.012479 -.012479 -.35256 45.836 91.089)">
   <path d="m0 0c0.997 2.079 2.404 5.095 3.871 7.999-7.016 1.893-13.974 4.322-20.755 7.088 5.219-4.128 11.057-9.291 16.884-15.087" fill="#fff"/>
  </g>
  <g transform="matrix(.35256 -.012479 -.012479 -.35256 70.66 105.89)">
   <path d="m0 0c3.512-1.912 9.666-3.763 13.243-4.724-0.162 2.479-0.867 5.057-1.843 7.57-6.134 1.07-12.035 3.975-16.758 8.211 2.179-3.624 4.327-7.929 5.358-11.057" fill="#fff"/>
  </g>
  <g transform="matrix(.35256 -.012479 -.012479 -.35256 61.827 102.35)">
   <path d="m0 0c0.095-0.55 0.271-1.109 0.551-1.676 2.405-4.864 11.673-8.97 24.6-13.601 0.133 2.534-1.107 5.967-2.795 9.376-7.498-0.924-16.071 1.464-22.356 5.901" fill="#fff"/>
  </g>
  <g transform="matrix(.35256 -.012479 -.012479 -.35256 83.668 75.631)">
   <path d="m0 0c0.533-1.954 0.475-3.974 0.459-7.427-1.456 2.064-8.169 6.571-11.068 8.391-0.256-3.852-1.894-6.67-2.858-10.853-1.168 1.742-5.941 9.969-10.204 15.387-1.264 1.606-2.121 2.467-5.126 3.511-5.156 1.789-15.651 5.95-21.161 8.181 0.596-1.109 2.067-4.176 2.64-5.262 2.285-1.125 8.079-3.412 11.602-4.745-0.187-3.62-0.92-18.165-0.506-18.316 0.473-0.173 7.976 6.956 7.976 6.956 2.569-4.386 14.329-23.352 16.024-25.02 1.699 3.618 5.736 16.42 6.113 18.481 2.327-2.3 11.871-8.635 14.693-10.309-0.23 3.036-2.167 13.297-2.285 14.736 2.835 0.622 14.454 1.234 18.834 1.521-8.031 3.962-22.564 6.036-25.133 4.768" fill="#fff"/>
  </g>
  <g transform="matrix(.35256 -.012479 -.012479 -.35256 64.142 68.41)">
   <path d="m0 0c8.959-16.312 17.489-31.394 18.952-44.708 1.833-16.669 0.81-30.458-0.718-46.75-0.055-0.597 2.104-0.799 2.16-0.202 1.539 16.418 3.467 30.46 1.61 47.331-1.509 13.743-9.441 26.92-18.513 43.433-0.288 0.526-3.779 1.421-3.491 0.896" fill="#231916"/>
  </g>
  <g transform="matrix(.35256 -.012479 -.012479 -.35256 63.646 74.109)">
   <path d="m0 0c-2.5-0.489-11.563-11.729-24.842-40.657-3.372 2.16-18.483 12.331-19.051 11.668-2.282-2.66-9.315-16.078-9.315-16.078-0.258-0.541 1.825-2.15 2.083-1.609 0 0 5.608 12.173 7.657 14.962 1.867-0.92 4.995-2.802 9.065-5.354 2.427-1.523 9.595-5.809 10.069-5.668 0.486 0.14 6.837 13.008 10.86 20.281 5.177 9.353 10.842 18.374 13.638 20.03 5.615-2.451 15.857-10.17 17.475-12.265 0.367-0.476 1.635 1.767 1.271 2.24-2.592 3.363-18.043 12.619-18.91 12.45" fill="#231916"/>
  </g>
  <g transform="matrix(.35256 -.012479 -.012479 -.35256 64.714 78.559)">
   <path d="m0 0c-1.174-0.267-7.549-7.941-13.253-19.575-4.388-8.945-8.063-18.165-9.282-21.376-5.214 3.218-19.791 13.859-20.682 13.632-1.347-0.343-4.438-8.97-5.433-13.075-0.142-0.581 2.035-0.957 2.137-0.368 0.394 2.291 2.652 8.148 3.862 10.881 4.313-3.316 14.294-10.06 19.417-13.197 1.263-0.771 1.992-1.072 2.467 0.228 3.653 10.499 14.672 36.584 21.324 41.041 4.169-0.82 16.846-11.031 17.954-13.414 0.252-0.544 2.219 0.37 1.968 0.912-1.963 4.228-18.312 14.801-20.479 14.311" fill="#231916"/>
  </g>
  <g transform="matrix(.35256 -.012479 -.012479 -.35256 62.379 102.75)">
   <path d="m0 0c-0.752 1.517-0.262 4.501 1.462 6.033 2.572 2.281 7.227 3.337 10.569 1.155 5.465-3.571 11.244-19.283 10.7-19.881-0.434-0.477-19.796 6.76-22.731 12.693m0.022 7.655c-2.71-2.408-3.419-6.101-1.939-9.092 3.415-6.899 24.947-14.596 26.402-13.492 1.59 1.206-4.065 18.084-11.267 23.932-3.839 3.116-10.059 1.436-13.196-1.348" fill="#231916"/>
  </g>
  <g transform="matrix(.35256 -.012479 -.012479 -.35256 67.292 99.993)">
   <path d="m0 0c-0.022-0.641 2.64-3.136 2.528-2.547-0.856 4.449 3.334 7.182 6.911 4.049 6.283-5.497 12.023-21.269 11.271-21.789-0.482-0.296-8.508 2.415-11.718 4.361-0.513 0.311-0.726-1.863-0.215-2.173 4.118-2.494 12.639-5.015 13.727-3.939 1.777 1.759-6.052 20.286-11.637 25.174-5.087 4.452-10.711 1.371-10.867-3.136" fill="#231916"/>
  </g>
  <g transform="matrix(.35256 -.012479 -.012479 -.35256 65.801 67.014)">
   <path d="m0 0c6.97-2.79 20.377-8.17 21.229-8.563 3.374-1.569 2.123 0.908-1.256 2.466-1.115 0.517-18.858 8.37-19.683 8.701-0.556 0.222-0.844-2.383-0.29-2.604" fill="#231916"/>
  </g>
  <g transform="matrix(.35256 -.012479 -.012479 -.35256 66.982 72.665)">
   <path d="m0 0c1.499-1.192 12.307-4.039 13.008-4.201 3.662-0.84 4.952 0.386 1.325 1.344-1.068 0.28-13.139 4.954-14.237 5.798-0.472 0.363-0.563-2.569-0.096-2.941" fill="#231916"/>
  </g>
  <g transform="matrix(.35256 -.012479 -.012479 -.35256 70.044 67.977)">
   <path d="m0 0c-0.56 1.742-0.756 5.621-0.736 9.892-0.827 0.027-1.401 0.013-2.348 0.098-0.057-3.958 0.195-7.701 0.679-9.305 0.485-1.61 2.771-1.829 2.405-0.685" fill="#231916"/>
  </g>
  <g transform="matrix(.35256 -.012479 -.012479 -.35256 65.868 72.03)">
   <path d="M 0,0 C 2.709,1.673 5.553,4.687 8.158,9.131 7.391,10.777 5.02,16.513 2.948,21.652 -6.89,14.582 -8.67,0.104 0,0" fill="#231916"/>
  </g>
  <g transform="matrix(.35256 -.012479 -.012479 -.35256 99.714 39.269)">
   <path d="m0 0c-2.801 2.521-37.065-9.661-48.337-51.841l0.022 0.213c-8.139 3.177-16.688 4.503-25.25 4.078 11.502 28.789-0.919 64.106-5.221 64.525-5.214 0.507-20.883-35.368-7.823-66.527-1.914-0.493-3.819-1.071-5.71-1.736 8.292-1.842 9.083-19.893 4.029-35.754 2.613 1.17 5.361 1.694 7.728 1.293 4.077-0.69 7.515-3.513 9.908-7.042 9.868 24.677 30.154 33.449 43.964 27.123-3.081 2.965-6.306 5.565-9.653 7.791l0.186-0.108c34.159 21.205 38.954 55.467 36.157 57.985" fill="#4e5144"/>
  </g>
  <g transform="matrix(.35256 -.012479 -.012479 -.35256 27.183 101.18)">
   <path d="m0 0c-0.554-5.85 2.1-15.355 5.695-15.951 0.723-0.121 1.424 0.49 2.162 1.684 2.823-1.78 7.087 4.014 8.561 8.088-3.92-0.622-14.763 4.536-16.418 6.179" fill="#fff"/>
  </g>
  <g transform="matrix(.35256 -.012479 -.012479 -.35256 91.124 62.754)">
   <path d="m0 0c-13.81 6.326-34.095-2.445-43.963-27.122 2.926-4.315 4.291-9.684 3.335-13.517-1.969-7.894-31.48-1.423-30.839 7.373 0.366 5.04 4.867 9.653 9.868 11.893 5.054 15.86 4.262 33.911-4.03 35.754-16.869-5.943-30.954-17.91-43.162-34.498-8.336-21.166-10.185-40.063-6.641-58.219 2.643-3.878 4.212-9.977 4.783-16.643 2.85-7.519 6.586-14.992 11.147-22.532-1.196 8.149-0.097 26.506 2.199 30.196 11.904-7.073 18.981-29.13 19.409-36.797 4.495 11.989 22.843 28.688 32.581 29.07 2.016-6.46-4.457-25.488-8.262-30.836 2.83 2.899 9.259 8.44 12.329 10.96 2.178 13.184 9.392 27.18 18.01 26.583 1.642-0.114 3.054-0.884 4.207-2.155-1.329 13.505 7.019 26.281 17.889 24.177 0.972 9.236 11.971 29.973 20.829 37.093-5.296 12.137-12.024 21.841-19.689 29.22" fill="#f08300"/>
  </g>
  <g transform="matrix(.35256 -.012479 -.012479 -.35256 87.27 66.516)">
   <path d="m0 0c-1.707-0.8-3.955-1.817-6.381-2.904 1.994-14.692-5.706-24.323-12.042-19.591-5e-3 4e-3 -0.01 8e-3 -0.014 0.012 1.673-3.278 4.096-5.479 6.825-5.74 5.57-0.532 11.218 6.411 12.196 17.827 0.364 4.238 0.182 7.385-0.584 10.396" fill="#fff"/>
  </g>
  <g transform="matrix(.35256 -.012479 -.012479 -.35256 85.056 67.62)">
   <path d="m0 0c-5.023-2.249-10.83-4.799-14.284-6.342-0.5-4.973 0.433-9.724 2.228-13.237 5e-3 -4e-3 9e-3 -8e-3 0.014-0.012 6.27-4.67 12.907 5.831 12.042 19.591" fill="#231916"/>
  </g>
  <g transform="matrix(.35256 -.012479 -.012479 -.35256 62.694 72.131)">
   <path d="m0 0c2.201-2.137 5.483-2.202 9-0.03-8.669 0.103-6.889 14.582 2.949 21.652-0.931 2.312-1.799 4.494-2.434 6.132-10.015-6.833-16.196-21.267-9.515-27.754" fill="#fff"/>
  </g>
  <g transform="matrix(.35256 -.012479 -.012479 -.35256 100.05 60.693)">
   <path d="m 0,0 c 3.102,0.253 7.974,-0.001 10.569,-0.577 2.458,1.323 3.427,1.768 7.782,1.419 C 17.31,2.489 6.618,7.97 0,0" fill="#fff"/>
  </g>
  <g transform="matrix(.35256 -.012479 -.012479 -.35256 99.064 61.009)">
   <path d="M 0,0 C -0.302,-0.897 0.612,-8.104 2.821,-13.491 4.183,-10.695 7.484,-2.957 13.386,0.219 10.788,0.795 0.676,2 0,0" fill="#fff"/>
  </g>
  <g transform="matrix(.35256 -.012479 -.012479 -.35256 97.417 112.67)">
   <path d="m0 0c-14.193 8.759-48.506-11.533-51.254-27.983 1.386-9.396 13.26-34.58 29.268-39.876-0.507 1.918 12.549 8.283 17.942 5.485 10.238 13.074 16.706 54.554 4.044 62.374" fill="#f08300"/>
  </g>
  <g transform="matrix(.35256 -.012479 -.012479 -.35256 107.64 118.56)">
   <path d="m0 0c-1.647 1.264-3.066 2.563-4.292 3.878 1.604 0.755 3.151 1.605 4.637 2.533-0.257-1.82-0.494-4.724-0.345-6.411m7.989 39.693c4.982-4.297-0.585-20.352-17.783-26.509-4.742 16.015 12.296 31.243 17.783 26.509m44.725-23.786c4.615 19.606-16.261 25.84-26.825 9.915-0.42 1.888-3.445 4.83-5.645 6.062 1.81 6.575 1.054 12.514-2.994 15.859-8.002 6.611-24.508 0.247-33.004-13.73-1.283-3.95-2.783-7.759-4.507-11.393-0.765-3.819-0.816-7.767 0.087-11.674-1.149-0.103-2.342-0.155-3.562-0.175 1.012-2.983 1.653-6.66 1.944-10.709 2.266-0.043 4.475 0.12 6.624 0.456 2.432-3.164 5.724-6.187 10.033-8.958-6.763-9.552 6.511-21.033 14.976-13.141-0.074-7.307 3.91-15.381 15.632-15.934 10.239-0.481 14.55 7.209 13.189 11.814 8.807-5.743 18.546 4.06 14.19 12.163 15.801 6.224 13.852 27.334-0.138 29.445" fill="#595857"/>
  </g>
  <g transform="matrix(.35256 -.012479 -.012479 -.35256 91.55 86.147)">
   <path d="m0 0c-10.87 2.104-19.219-10.673-17.889-24.178-1.153 1.272-2.566 2.041-4.208 2.156-8.617 0.596-15.832-13.4-18.009-26.583-1.594-9.644 2.114-25.79 12.486-25.757 11.126 0.031 18.955 13.725 21.754 21.87 2.49 7.247 2.769 12.682 2.524 17.478 5.11 1.432 10.506 6.869 11.783 14.695 1.655 10.133-1.691 19.017-8.441 20.319" fill="#fdd000"/>
  </g>
  <g transform="matrix(.35256 -.012479 -.012479 -.35256 49.006 90.382)">
   <path d="m0 0c2.281 4.482 3.104 8.315 2.934 12.266-0.225 5.245-1.93 9.723-5.336 9.884-7.431 0.35-16.234-13.676-12.362-26.201-2.515-6.612-3.229-13.05-3.078-20.025 0.409-19.111 9.159-32.711 17.346-31.59 6.847 0.937 11.83 12.254 12.163 27.283 0.243 11.05-3.219 27.919-11.667 28.383" fill="#fdd000"/>
  </g>
  <g transform="matrix(.35256 -.012479 -.012479 -.35256 47.45 82.652)">
   <path d="m0 0c3.34 9.787 8.259 19.271 14.099 27.869-21.016-5.099-36.243-13.866-47.198-24.036-5.927-18.678-2.328-43.424 7.693-51.106 4.675 2.749 9.024 5.392 11.321 6.853 0.375 5.834 1.509 10.516 2.954 14.315-3.455 11.172 4.364 24.838 11.131 26.105" fill="#f08300"/>
  </g>
  <g transform="matrix(.35256 -.012479 -.012479 -.35256 46.145 108.41)">
   <path d="m0 0c-0.753 0.911-1.479 1.943-2.169 3.097-14.399-25.571-2.771-45.556 13.158-58.232 4.407-0.11 13.148-3.995 14.96-9.262 4.279 0.61 8.921 3.549 12.776 5.864 3.644 2.189 5.815 9.517 6.879 12.574-21.93 9.303-39.022 23.697-45.604 45.959" fill="#f08300"/>
  </g>
  <g transform="matrix(.35256 -.012479 -.012479 -.35256 35.733 81.714)">
   <path d="m0 0c-3.238-3.006-6.104-6.133-8.635-9.324-5.806-16.814-1.373-37.757 10.926-44.916 1.783 1.018 3.615 2.083 5.402 3.134-10.021 7.682-13.62 32.428-7.693 51.106" fill="#fdd000"/>
  </g>
  <g transform="matrix(.35256 -.012479 -.012479 -.35256 50.65 127.74)">
   <path d="m0 0c-4.525-1.905-8.308-4.856-8.092-7.631 0.207-2.684 22.062-1.725 23.217-1.558-1.117 3.249-12.169 10.427-15.125 9.189" fill="#fff"/>
  </g>
  <g transform="matrix(.35256 -.012479 -.012479 -.35256 96.604 134.64)">
   <path d="m0 0c-4.999 1.729-19.986-4.78-17.35-5.896 4.475-1.893 16.268-4.515 21.068-3.161 2.961 0.833-1.772 8.388-3.718 9.057" fill="#fff"/>
  </g>
  <g transform="matrix(.35256 -.012479 -.012479 -.35256 118.03 76.922)">
   <path d="m0 0c0.088 0.562 0.163 1.124 0.213 1.687 0.27 3.069 0.202 6.043-0.146 8.91-1.344-5.76-15.32-6.872-50.104 16.663 0.191-2.506 0.606-5.342 0.942-7.656 10.705-13.417 42.119-25.585 49.095-19.604" fill="#fdd000"/>
  </g>
  <g transform="matrix(.35256 -.012479 -.012479 -.35256 49.888 86.021)">
   <path d="m0 0c0.17-3.95-0.653-7.783-2.934-12.266 2.696-0.148 4.908-1.732 6.652-4.292-3.544 18.157-1.696 37.053 6.641 58.219-3.13-4.253-13.283-21.196-16.926-31.872 2.458 0.458 6.25-2.409 6.567-9.789" fill="#4e5144"/>
  </g>
  <g transform="matrix(.35256 -.012479 -.012479 -.35256 97.964 95.671)">
   <path d="m0 0c-9.811 1.25-3.543 48.425 0.164 53.778 1 1.444 3.095 4.288 5.125 6.895-0.541 1.377-1.101 2.725-1.675 4.043-11.383-9.149-23.54-36.436-20.333-37.188 6.112-1.436 9.629-9.906 7.945-20.224-1.277-7.825-6.673-13.263-11.783-14.695 0.245-4.796-0.034-10.231-2.524-17.478-2.798-8.145-10.628-21.839-21.754-21.87-10.11-0.031-14.056 14.981-12.654 24.675 0.051 0.36 0.109 0.719 0.168 1.082-3.071-2.521-9.499-8.062-12.329-10.96 3.805 5.347 10.277 24.376 8.262 30.836-9.738-0.382-28.087-17.081-32.581-29.071-0.428 7.667-7.505 29.725-19.409 36.797-2.296-3.689-3.395-22.047-2.2-30.195-4.56 7.54-8.296 15.012-11.146 22.531 0.209-2.435 0.287-4.943 0.231-7.447-0.332-15.03-5.316-26.346-12.162-27.283-2.992-0.411-6.409 1.262-9.417 4.892 2.651-8.965 8.117-16.938 13.629-23.279 17.406-20.026 38.22-29.316 67.226-30.681 5.174-0.244 10.146-0.045 14.93 0.536-1.168 3.248-1.91 6.114-2.22 8.217 2.748 16.45 37.061 36.742 51.255 27.984 1.287-0.797 2.386-2.111 3.303-3.818 9.101 14.317 14.727 29.364 15.105 57.103-6.887-3.568-12.584-5.508-15.156-5.18" fill="#4e5144"/>
  </g>
  <g transform="matrix(.35256 -.012479 -.012479 -.35256 32.805 85.109)">
   <path d="m0 0c-12.4-15.641-16.786-32.809-17.76-44.609-0.117-1.384 12.567-8.246 17.208-6.381 2.127 0.856 6.614 3.294 11.477 6.074-12.299 7.159-16.732 28.103-10.925 44.916" fill="#4e5144"/>
  </g>
  <g transform="matrix(.35256 -.012479 -.012479 -.35256 106.86 60.335)">
   <path d="m0 0c-10.968 3.056-17.051-10.604-19.666-15.259-0.553-0.986-0.586-3.126-0.399-5.591 34.784-23.535 48.759-22.422 50.104-16.663-2.826 23.304-21.091 35.019-30.039 37.513" fill="#4e5144"/>
  </g>
  <g transform="matrix(.35256 -.012479 -.012479 -.35256 100.48 70.623)">
   <path d="m0 0c0.364-2.517 0.628-4.41 0.395-4.562-3.055-1.97-5.802-6.509-9.858-12.364-3.707-5.353-9.975-52.528-0.164-53.778 8.293-1.06 54.413 23.392 58.722 51.1-8.189-7.022-41.145 9.64-49.095 19.604" fill="#f08300"/>
  </g>
  <g transform="matrix(.35256 -.012479 -.012479 -.35256 72.382 70.505)">
   <path d="m0 0c-5.19 0.878-16.969-4.58-17.596-13.186-0.64-8.795 28.87-15.267 30.839-7.373 1.892 7.583-5.088 19.178-13.243 20.559" fill="#d93339"/>
  </g>
  <g transform="matrix(.35256 -.012479 -.012479 -.35256 59.973 75.89)">
   <path d="m0 0c0.66 1.449 2.115 10.367 1.611 10.563-0.504 0.194-5.079-2.716-6.337-4.023z" fill="#fff"/>
  </g>
  <g transform="matrix(.35256 -.012479 -.012479 -.35256 89.688 77.67)">
   <path d="m0 0c-0.131 0.861-3.995 6.506-4.487 6.366-0.65-0.183-2.16-7.119-1.865-10.512z" fill="#fff"/>
  </g>
  <g transform="matrix(.35256 -.012479 -.012479 -.35256 103.7 111.05)">
   <path d="m0 0c-3.292-1.049-6.802-1.764-10.249-1.704-0.321-2.935-0.204-5.918 0.463-8.882 3.363 0.162 6.743 0.984 9.966 2.415-0.558 2.467-0.496 5.837-0.18 8.171" fill="#3f3b3a"/>
  </g>
  <g transform="matrix(.35256 -.012479 -.012479 -.35256 107.64 118.56)">
   <path d="m0 0c-1.48 1.135-2.767 2.3-3.903 3.478-3.374-1.474-7.632-2.484-11.173-3.075 2.424-3.124 5.685-6.106 9.941-8.843-6.763-9.552 6.511-21.033 14.976-13.141-0.074-7.307 3.91-15.381 15.632-15.934 10.239-0.481 14.55 7.209 13.189 11.814 7.997-5.216 16.757 2.387 15.046 9.894-8.1-1.009-46.512 7.469-53.6 20.122-0.133-1.525-0.207-3.188-0.108-4.315" fill="#3f3b3a"/>
  </g>
  <g transform="matrix(.35256 -.012479 -.012479 -.35256 79.397 110.52)">
   <path d="m0 0c2.088-4.527 4.546-6.561 9.25-6.546 6.876 0.021 10.818 2.843 14.767 8.762-5.427-3.134-17.854-6.868-24.017-2.216" fill="#dbb400"/>
  </g>
  <g transform="matrix(.35256 -.012479 -.012479 -.35256 49.526 110.01)">
   <path d="m0 0c1.466 0.201 4.712 2.03 5.98 3.116-6.572-1.42-13.388 2.192-18.487 6.813 3.36-6.724 8.016-10.543 12.507-9.929" fill="#dbb400"/>
  </g>
  <g transform="matrix(.35256 -.012479 -.012479 -.35256 55.582 120.38)">
   <path d="m0 0c-7.792-5.496-16.625-8.188-25.804-8.785 3.196-4.307 7.077-8.146 11.261-11.475 4.408-0.11 13.148-3.995 14.96-9.262 4.279 0.61 8.921 3.549 12.776 5.864 3.644 2.189 5.815 9.517 6.88 12.574-7.298 3.096-14.055 6.759-20.073 11.084" fill="#d07100"/>
  </g>
  <g transform="matrix(.35256 -.012479 -.012479 -.35256 54.002 128.9)">
   <path d="m0 0c-5.399-1.425-11.091-1.954-16.843-1.747-0.451-0.744-0.686-1.498-0.629-2.238 0.207-2.685 22.062-1.726 23.218-1.559-0.493 1.436-2.928 3.638-5.746 5.544" fill="#dcdddd"/>
  </g>
  <g transform="matrix(.35256 -.012479 -.012479 -.35256 87.837 109.44)">
   <path d="m0 0c-3.949-5.919-7.891-8.741-14.767-8.762-4.755-0.014-7.129 1.474-9.242 5.995-19.397-5.226-65.097-4.874-79.076 8.383-1.268-1.086-4.036-3.212-5.502-3.413-2.992-0.41-6.409 1.263-9.416 4.893 2.65-8.965 8.117-16.939 13.628-23.28 17.406-20.025 38.22-29.315 67.227-30.68 5.173-0.244 10.146-0.045 14.929 0.536-1.167 3.248-1.91 6.113-2.219 8.217 2.748 16.45 37.061 36.742 51.254 27.983 1.287-0.797 2.386-2.11 3.304-3.817 5.887 9.258 8.614 13.697 11.112 26.804-13.107-6.95-29.516-11.385-41.232-12.859" fill="#3c3f34"/>
  </g>
  <g transform="matrix(.35256 -.012479 -.012479 -.35256 59.973 75.89)">
   <path d="m0 0c0.66 1.449 2.115 10.367 1.611 10.563-0.504 0.194-5.079-2.716-6.337-4.023z" fill="#fff"/>
  </g>
  <g transform="matrix(.35256 -.012479 -.012479 -.35256 72.813 35.48)">
   <path d="m0 0c2.936-19.752 4.867-45.614-0.437-60.969 1.286-0.061 2.422-0.257 2.851-0.277 5.283 14.927 8.045 40.137-2.414 61.246" fill="#3c3f34"/>
  </g>
  <g transform="matrix(.35256 -.012479 -.012479 -.35256 99.949 40.489)">
   <path d="m0 0c-3.143-12.021-26.082-49.167-37.071-54.52 10.561 5.373 31.778 18.119 37.071 54.52" fill="#3c3f34"/>
  </g>
  <g transform="matrix(.35256 -.012479 -.012479 -.35256 82.243 118.08)">
   <path d="m0 0c-0.621-22.306 10.437-46.86 20.006-53.986-12.022 4.646-26.705 25.739-28.61 40.003 2.006 6.132 5.249 11.134 8.604 13.983" fill="#d07100"/>
  </g>
  <g transform="matrix(.35256 -.012479 -.012479 -.35256 116.84 80.696)">
   <path d="m0 0c-10.958-13.801-47.27-37.002-57.649-38.518 1.354-1.638 2.987-3.433 6.252-2.513s42.301 19.627 51.397 41.031" fill="#d07100"/>
  </g>
  <g transform="matrix(.35256 -.012479 -.012479 -.35256 65.868 72.03)">
   <path d="M 0,0 C 2.709,1.673 5.553,4.687 8.158,9.131 7.391,10.777 5.02,16.513 2.948,21.652 -6.89,14.582 -8.67,0.104 0,0" fill="#231916"/>
  </g>
  <g transform="matrix(.35256 -.012479 -.012479 -.35256 85.056 67.62)">
   <path d="m0 0c-5.023-2.249-10.83-4.799-14.284-6.342-0.5-4.973 0.433-9.724 2.228-13.237 5e-3 -4e-3 9e-3 -8e-3 0.014-0.012 6.27-4.67 12.907 5.831 12.042 19.591" fill="#231916"/>
  </g>
  <g transform="matrix(.35256 -.012479 -.012479 -.35256 69.612 57.7)">
   <path d="m0 0c-28.569-6.841-52.25-30.984-66.857-68.131 0.011 0.029 1.122-0.873 2.672-0.187 7.395 19.997 22.166 40.966 36.53 52.619 9.402 7.629 19.815 12.385 30.413 15.215 3.413 0.914 0.97 1.38-2.758 0.484" fill="#231916"/>
  </g>
  <g transform="matrix(.35256 -.012479 -.012479 -.35256 70.454 34.991)">
   <path d="m0 0c-5.918-8.161-17.743-38.066-5.495-64.949 0.177-0.388 2.146 0.311 1.975 0.701-10.889 24.861-0.998 55.382 4.772 63.339 1.934 2.665 2.695 2.498 4.144 0.102 4.551-7.529 12.293-37.736 2.765-61.157-0.161-0.396 1.67-0.653 1.853-0.264 10.353 21.872 2.45 52.718-3.294 62.222-2.571 4.253-3.89 3.907-6.72 6e-3" fill="#231916"/>
  </g>
  <g transform="matrix(.35256 -.012479 -.012479 -.35256 46.565 108.62)">
   <path d="m0 0-2.509 1.296c13.228-42.858 60.836-60.32 97.444-55.452-0.161 0.515 0.065 1.813-0.196 2.286-34.146-4.375-80.4 12.082-94.739 51.87" fill="#231916"/>
  </g>
  <g transform="matrix(.35256 -.012479 -.012479 -.35256 102.97 93.741)">
   <path d="m0 0c-0.254-20.186-4.677-40.119-14.5-55.818 0.207-0.65 1.338-2.451 1.555-3.1 10.704 16.476 14.947 38.069 14.962 59.777-0.534-0.277-1.457-0.559-2.017-0.859" fill="#231916"/>
  </g>
  <g transform="matrix(.35256 -.012479 -.012479 -.35256 88.175 60.159)">
   <path d="m0 0c25.805 12.91 35.063 40.779 36.134 52.822 0.54 6.082-0.523 7.367-6.503 5.593-11.157-3.311-36.31-18.408-43.627-50.968-7.067 3.134-16.951 4.916-25.899 3.676-2.473-0.204-3.8-1.821-1.542-1.613 8.449 0.781 17.973-0.246 26.781-3.522 1.171-0.435 1.829-0.061 2.147 1.074 10.516 37.614 38.105 48.33 41.244 49.435 5.627 1.983 6.342 1.217 5.823-3.888-1.174-11.571-10.062-35.394-35.897-51.638-0.851-0.535-0.788-1.367-0.01-1.901 12.988-8.867 23.48-23.054 30.42-41.104 0.302 0.624 1.089 1.623 1.463 2.188-6.969 17.508-17.822 30.998-30.534 39.846" fill="#231916"/>
  </g>
  <g transform="matrix(.35256 -.012479 -.012479 -.35256 52.131 72.13)">
   <path d="m0 0c-50.48-12.432-71.482-41.847-74.581-79.376-0.044-0.536 0.358-0.949 0.974-1.403 2.85-2.1 12.764-7.523 16.841-5.882 5.69 2.292 25.406 13.13 28.035 14.984 0.35 0.246-0.194 2.71-0.543 2.464-2.781-1.962-22.283-13.743-27.616-15.89-2.917-1.173-14.815 4.463-16.126 5.839 1.568 18.33 11.869 61.965 73.098 77.043 0.339 0.085 0.333 2.324-0.082 2.221" fill="#231916"/>
  </g>
  <g transform="matrix(.35256 -.012479 -.012479 -.35256 44.981 107.11)">
   <path d="m0 0c-12.976-22.778-10.149-39.123 13.452-59.488 0.323-0.279 1.34 0.884 1.019 1.165-25.861 22.597-21.291 40.869-12.499 57.246 0.201 0.376-1.76 1.45-1.972 1.077" fill="#231916"/>
  </g>
  <g transform="matrix(.35256 -.012479 -.012479 -.35256 55.583 130.57)">
   <path d="m0 0c-6.784-0.421-19.346 0.161-21.013 1.189 0 0.015-1e-3 0.031 0 0.045 0.098 2.088 3.108 4.691 7.653 6.601 4.744 0.054 12.67-5.024 13.36-7.835m19.464 16.932c-0.926-3.189-2.741-9.309-5.65-11.056 0 0-7.941-4.926-11.711-5.534-0.965 5.058-13.378 10.049-15.923 8.981-4.398-1.821-9.625-5.456-9.355-8.929 0.254-3.301 23.645-1.926 23.874-1.911 4.907 0.364 14.626 6.196 14.704 6.243 3.429 2.059 5.486 8.36 6.475 11.766z" fill="#231916"/>
  </g>
  <g transform="matrix(.35256 -.012479 -.012479 -.35256 79.077 123.1)">
   <path d="m0 0c-0.948-5.962 13.04-36.253 30.652-40.973 0.413-0.111 0.759 1.399 0.401 1.494-15.562 4.171-27.113 29.259-28.637 39.203 2.934 16.697 37.255 35.31 50.178 27.333 9.521-5.879 7.933-46.472-4.477-60.807-0.281-0.324 1.484-1.199 1.763-0.875 14.053 16.231 15.15 56.501 4.195 63.268-15.024 9.274-50.857-9.374-54.075-28.643" fill="#231916"/>
  </g>
  <g transform="matrix(.35256 -.012479 -.012479 -.35256 96.524 134.9)">
   <path d="m0 0c2.051-0.709 4.158-4.579 4.094-6.77-0.01-0.33-0.073-0.739-0.333-0.812-4.348-1.225-15.892 0.161-20.031 2.82 1.402 1.607 11.622 6.368 16.27 4.762m-18.737-3.968c-0.299-0.569-0.181-1.168 0.3-1.522l0.88-0.297c4.195-3.09 17.413-5.189 22.234-3.828 0.424 0.119 1.411 0.578 1.46 2.257 0.073 2.54-2.798 7.658-5.735 8.671-5.258 1.822-17.853-2.836-19.139-5.281" fill="#231916"/>
  </g>
  <g transform="matrix(.35256 -.012479 -.012479 -.35256 26.846 101.07)">
   <path d="m0 0c-0.477-4.078 1.759-17.051 6.332-17.893 2.219-0.407 3.096 2.048 5.263 7.781 0.754 1.996 0.051 4.084-0.786 1.886-1.154-3.026-2.97-7.48-4.044-7.302-3.133 0.519-5.589 11.498-5.357 15.264 0.026 0.427-1.357 0.689-1.408 0.264" fill="#231916"/>
  </g>
  <g transform="matrix(.35256 -.012479 -.012479 -.35256 32.656 103.12)">
   <path d="m0 0c-1.778-4.576-5.639-8.786-6.632-7.36-0.245 0.35-1.362-0.852-1.046-1.141 2.375-2.181 7.383 3.043 9.514 8.528 0.155 0.4-1.681 0.369-1.836-0.027" fill="#231916"/>
  </g>
  <g transform="matrix(.35256 -.012479 -.012479 -.35256 35.667 81.352)">
   <path d="m0 0c-8.416-24.552-1.41-47.166 7.04-52.74 0.442-0.293 1.297 0.998 0.852 1.291-9.727 6.418-12.675 33.422-6.075 51.754 0.144 0.401-1.679 0.1-1.817-0.305" fill="#231916"/>
  </g>
  <g transform="matrix(.35256 -.012479 -.012479 -.35256 32.699 84.88)">
   <path d="m0 0c-8.785-21.686 0.192-40.693 10.987-46.261 0.379-0.195 1.089 1.182 0.708 1.377-13.476 6.948-15.997 30.369-9.775 45.728 0.161 0.396-1.762-0.448-1.92-0.844" fill="#231916"/>
  </g>
  <g transform="matrix(.35256 -.012479 -.012479 -.35256 77.945 103.27)">
   <path d="m0 0c-1.404-1.08-5.846-5.489-9.296-8.786 4.699 9.946 7.601 22.685 6.118 27.432-0.103 0.334-0.419 0.557-0.769 0.543-9.301-0.364-26.139-13.128-32.223-27.502-0.967 10.404-8.266 29.536-19.666 35.478-0.373 0.195-0.83 0.101-1.053-0.256-2.621-4.216-3.366-18.384-2.173-28.145-4.106 7.115-7.452 14.459-9.993 21.967-0.078-1.664-0.151-3.208-0.228-4.837 2.536-6.284 5.717-12.659 9.567-19.197 1.807-3.073 2.443-1.424 2.223 1.58-0.49 6.709 0.305 22.718 1.897 26.714 10.367-6.838 16.914-25.897 18.097-34.732 0.301-2.256 1.182-2.759 2.443 0.19 4.657 10.866 21.572 26.072 30.516 27.1 1.007-5.193-3.532-19.918-7.572-27.791-1.533-2.987-0.94-4.266 1.094-2.27 3.64 3.575 9.234 8.735 10.911 10.023 0.339 0.262 0.445 2.749 0.107 2.489" fill="#231916"/>
  </g>
  <g transform="matrix(.35256 -.012479 -.012479 -.35256 51.994 92.562)">
   <path d="m0 0c-4.217 19.798-2.632 40.496 6.248 61.094 0.125 0.293-2.293-1.658-2.673-2.646-7.51-19.503-9.68-37.366-6.366-55.359 1.167-0.94 2.09-1.962 2.791-3.089" fill="#231916"/>
  </g>
  <g transform="matrix(.35256 -.012479 -.012479 -.35256 98.365 72.556)">
   <path d="m0 0c-10.416-7.086-21.528-29.009-21.886-37.178-0.019-0.426 1.22-1.4 1.279-0.976 0.938 7.049 12.419 30.713 21.477 36.875 0.354 0.24-0.516 1.519-0.87 1.279" fill="#231916"/>
  </g>
  <g transform="matrix(.35256 -.012479 -.012479 -.35256 90.127 94.084)">
   <path d="m0 0c-0.364-7.732 2.885-16.341-1.772-29.898-2.531-7.371-10.185-21.318-21.024-21.348-8.835-0.025-13.283 14.138-11.887 23.79 1.942 13.433 9.131 27.575 17.359 27.004 4.89-0.339 8.273-8.73 6.1-20.086-1.416-7.409-3.883-12.543-6.769-14.085-1.703-0.912-4.018-0.423-4.965 2.086-1.232 3.266-0.428 8.714 2.054 13.877 1.001 2.09-0.494 1.823-1.496-0.266-2.654-5.526-3.861-10.473-2.488-14.117 1.274-3.37 4.463-4.724 7.134-3.296 3.347 1.791 6.833 7.563 8.362 15.548 2.524 13.192-1.934 21.475-7.826 21.883-9.237 0.64-17.483-13.644-19.568-28.071-1.836-12.692 4.531-25.852 13.995-25.814 12.464 0.049 20.103 13.289 22.889 21.613 4.67 13.973 1.165 23.893 1.449 31.107 0.196 5.021 2.92 6.773 4.237 3.798 0.835-1.878 1.703-1.487 1.03 0.455-1.603 4.631-6.488 2.735-6.814-4.18" fill="#231916"/>
  </g>
  <g transform="matrix(.35256 -.012479 -.012479 -.35256 85.248 94.598)">
   <path d="m0 0c0.042-0.436 1.757-1.492 1.692-1.069-1.687 11.148 6.165 26.139 17.326 23.531 5.774-1.358 8.937-9.675 7.358-19.347-1.402-8.592-6.546-12.676-10.892-13.634-0.42-0.092 0.207-1.86 0.623-1.768 6.18 1.363 10.923 6.974 12.2 14.799 1.738 10.656-2.251 19.885-8.935 21.457-12.554 2.934-20.653-10.849-19.372-23.969" fill="#231916"/>
  </g>
  <g transform="matrix(.35256 -.012479 -.012479 -.35256 97.988 95.399)">
   <path d="m0 0c-1.047 0.135-1.943 1.02-2.664 2.634-4.853 10.895 0.527 45.836 3.366 49.936 2.448 3.535 8.458 11.392 9.643 12.155v1e-3c0.635 0.411 0.574 1.01-0.087 5.581-0.582 4.031-1.559 10.777-0.595 12.498l0.713 1.443c2.122 4.465 7.757 16.322 18.07 13.448 13.417-3.738 31.686-22.13 29.621-45.608-0.92-10.466-9.168-22.465-23.227-33.79-14.878-11.985-30.571-18.842-34.84-18.298m9.504 66.025s0-1e-3 -2e-3 -1e-3zm-1.872 15.832c-0.648-4.068 1.628-15.464 1.607-16.068-1.998-1.637-7.611-8.245-9.666-11.564-3.256-5.26-12.03-55.864 0.291-56.721 9.606-0.671 57.109 24.473 59.746 54.447 2.061 23.447-13.856 42.92-29.899 47.391-13.802 3.845-21.754-15.446-22.079-17.485" fill="#231916"/>
  </g>
  <g transform="matrix(.35256 -.012479 -.012479 -.35256 68.173 58.341)">
   <path d="m0 0c-0.538 0.148-3.042-1.35-2.615-1.334 8.338 0.319 9.924-22.129 4.153-35.153-0.174-0.391 2.025 0.318 2.168 0.721 5.538 15.612 3.866 33.682-3.706 35.766" fill="#231916"/>
  </g>
  <g transform="matrix(.35256 -.012479 -.012479 -.35256 90.821 62.489)">
   <path d="m0 0c-13.776 6.76-33.604-2.411-43.355-27.205-0.101-0.255 1-1.715 1.15-1.316 9.129 24.11 30.969 33.76 43.933 25.914 0.365-0.222-1.185 2.34-1.728 2.607" fill="#231916"/>
  </g>
  <g transform="matrix(.35256 -.012479 -.012479 -.35256 57.956 73.952)">
   <path d="m0 0c14.659-23.508 59.821-35.859 90.186-14.946 2.539 1.749 1.754 2.827-0.842 1.164-30.964-19.831-74.596-6.702-88.097 14.949-2.052 3.286-3.299 2.12-1.247-1.167" fill="#231916"/>
  </g>
  <g transform="matrix(.35256 -.012479 -.012479 -.35256 98.802 60.931)">
   <path d="m0 0c-1.07-1.637-0.447-9.178 2.072-14.652 0.178-0.389 1.959 1.464 1.905 1.58-2.204 4.789-2.537 12.391-2.521 12.474 1.091 0.75 9.639 1.064 12.437-0.018 0.399-0.155 1.764 1.435 1.364 1.589-1.529 0.591-13.595 1.564-15.257-0.973" fill="#231916"/>
  </g>
  <g transform="matrix(.35256 -.012479 -.012479 -.35256 99.753 60.507)">
   <path d="m0 0c-0.257-0.34 1.517-0.762 1.801-0.441 3.853 4.335 11.287 3.547 17.196 0.521 0.729-0.374 4.638-0.898 4.322-0.609-6.003 5.521-18.706 6.574-23.319 0.529" fill="#231916"/>
  </g>
  <g transform="matrix(.35256 -.012479 -.012479 -.35256 99.95 68.208)">
   <path d="m0 0c34.823-23.701 46.225-21.461 48.888-19.844 0.722 0.438 1.285 2.181 1.687 2.81 0.553 0.867-0.929 3.217-0.879 2.793 0.15-1.267-0.423-2.362-1.615-3.085-5.078-3.083-20.147 0.184-47.209 18.605-0.355 0.241-1.225-1.04-0.872-1.279" fill="#231916"/>
  </g>
  <g transform="matrix(.35256 -.012479 -.012479 -.35256 100.33 70.791)">
   <path d="m0 0c6.619-9.348 28.505-19.958 41.182-21.722 4.228-0.588 6.684 0.242 8.602 2.483 0.479 0.559-0.789 2.28-0.83 1.854-0.128-1.385-1.779-2.773-7.888-1.933-11.837 1.627-33.175 10.853-39.802 20.213-0.59 0.829-1.85-0.064-1.264-0.895" fill="#231916"/>
  </g>
  <g transform="matrix(.35256 -.012479 -.012479 -.35256 77.04 77.532)">
   <path d="m0 0c-0.656-2.632-5.791-3.647-12.777-2.531-8.197 1.31-16.851 5.377-16.539 9.661 0.51 7.021 10.213 13.576 16.693 12.477 8.24-1.394 14.356-12.665 12.623-19.607m-12.364 21.133c-5.449 0.923-17.806-4.409-18.496-13.891-0.717-9.839 30.438-16.709 32.59-8.08 1.87 7.493-4.783 20.396-14.094 21.971" fill="#231916"/>
  </g>
  <g transform="matrix(.35256 -.012479 -.012479 -.35256 107.37 118.56)">
   <path d="m0 0v2e-3c3e-3 -0.032-2e-3 -0.073 2e-3 -0.106-3e-3 0.036-3e-3 0.071-2e-3 0.104m1.983 6.375c0.101 0.416-1.404 0.777-1.505 0.362-0.207-0.862-0.492-4.763-0.495-5.082-1.149 0.967-2.149 1.941-3.038 2.913-0.523-0.168-1.052-0.408-1.578-0.64 3.101-3.542 6.326-5.623 6.176-3.895-0.181 2.044 0.134 5.071 0.44 6.342" fill="#231916"/>
  </g>
  <g transform="matrix(.35256 -.012479 -.012479 -.35256 108.25 104.66)">
   <path d="m0 0c3.807 1.407 6.044-0.671 5.851-4.757-0.308-6.549-6.849-16.084-18.187-20.449-2.701 10.626 4.893 22.449 12.336 25.206m-26.126-29.263c11.394 0.173 18.763 3.472 24.122 7.696 9.395 7.401 12.671 19.33 8.154 23.225-1.407 1.213-4.197 1.047-6.598 0.159-7.729-2.862-16.567-15.258-13.361-27.558-3.848-1.287-8.31-2.065-13.472-2.005-0.419 5e-3 0.738-1.523 1.155-1.517" fill="#231916"/>
  </g>
  <g transform="matrix(.35256 -.012479 -.012479 -.35256 99.798 112.45)">
   <path d="m0 0c-0.104-2.199 0.041-4.535 0.55-6.937 0.544-0.025 1.088-0.05 1.633-0.076-0.562 2.434-0.702 8.36-0.195 10.728-0.58-0.791-1.967-3.259-1.988-3.715" fill="#231916"/>
  </g>
  <g transform="matrix(.35256 -.012479 -.012479 -.35256 121.87 127.15)">
   <path d="m0 0c-0.021 0.083-5e-3 0.177-0.028 0.258 0.023-0.085 0.034-0.171 0.03-0.255 0-1e-3 -2e-3 -3e-3 -2e-3 -3e-3m-55.694 25.803c2.313-2.991 5.9-5.951 10.084-8.727-2.355-3.844-2.99-9.475 1.842-13.7 3.242-2.833 8.955-3.897 13.447-0.745 0.478-7.25 4.753-15.388 16.134-15.923 10.948-0.516 14.632 7.678 14.33 12.035 3.941-1.908 8.525-1.76 11.802 1.251 3.575 3.285 3.836 8.556 2.383 11.883 8.652 3.755 11.518 11.787 10.814 17.641-0.806 6.714-5.386 12.21-11.645 13.069-0.425 0.057-0.62-2.078-0.198-2.137 5.54-0.76 9.587-5.124 10.307-11.117 0.651-5.413-1.702-12.956-10.47-16.412-0.753-0.295-0.72-0.486-0.398-1.085 2.113-3.93 0.518-8.021-1.997-10.335-2.476-2.274-6.689-3.682-11.089-0.814-1.036 0.677-1.377 0.188-1.167-0.868 1.179-5.927-4.661-11.185-12.408-10.82-13.955 0.657-14.931 11.764-14.896 15.153 0.014 1.271-0.537 1.287-1.3 0.574-4.05-3.773-9.033-2.689-12.176 0.057-3.452 3.02-4.491 8.04-1.642 12.071 0.353 0.491 0.041 0.935-0.212 1.098-4.015 2.581-7.054 5.32-9.33 8.105zm36.889 28.856c1.931 5.132 3.179 14.412-2.885 19.423-7.605 6.284-24.43 1.828-32.46-11.396-0.236-1.585-0.627-3.05-1.089-4.579 7.808 14.051 24.741 21.245 32.562 14.781 5.481-4.527 3.719-12.825 1.929-17.584-6.432-17.082-24.418-28.828-40.746-28.341-0.423 0.014 0.086-2.191 0.514-2.202 10.478-0.307 33.31 6.35 42.175 29.898" fill="#231916"/>
  </g>
  <g transform="matrix(.35256 -.012479 -.012479 -.35256 116.5 108.59)">
   <path d="m0 0c-1.164 2.171-3.71 4.366-5.605 4.979-0.407 0.132-0.883-1.341-0.478-1.473 1.599-0.517 3.999-2.643 4.862-4.465 0.81-1.701 1.165-1.708 2.141-0.333 5.618 7.88 13.79 9.43 19.117 6.819 4.66-2.281 8.425-8.27 5.46-18.316-0.571-1.926 0.466-1.828 1.178 0.219 3.602 10.382-0.89 17.521-5.818 19.934-5.818 2.854-14.75 0.833-20.857-7.364" fill="#231916"/>
  </g>
  <g transform="matrix(.35256 -.012479 -.012479 -.35256 80.468 70.049)">
   <path d="M 0,0 C 0.142,0.049 0.311,0.111 0.5,0.186 0.315,0.166 0.152,0.095 0,0" fill="#231916"/>
  </g>
  <g transform="matrix(.35256 -.012479 -.012479 -.35256 86.969 66.461)">
   <path d="m0 0c0 5e-3 -1e-3 0.01-2e-3 0.014 0-1e-3 -1e-3 -4e-3 -1e-3 -7e-3 0-2e-3 -0.01-0.01-0.012-0.012 7e-3 1e-3 0.012 2e-3 0.015 5e-3" fill="#231916"/>
  </g>
  <g transform="matrix(.35256 -.012479 -.012479 -.35256 87.728 66.285)">
   <path d="m0 0c-0.516-0.255-1.58-0.761-2.014-1.021 1.735-7.085 0.25-20.164-5.862-25.261-1.588-1.323-3.31-1.939-4.982-1.78-5.277 0.505-9.016 8.262-8.592 17.72 0.616 0.559-1.74-0.415-1.562-0.482-0.759-10.319 4.017-18.205 10.007-18.779 2.092-0.199 4.209 0.538 6.119 2.131 6.69 5.579 8.815 20.139 6.886 27.472" fill="#231916"/>
  </g>
  <g transform="matrix(.35256 -.012479 -.012479 -.35256 84.819 67.701)">
   <path d="m0 0c0.849-10.374-2.417-17.804-5.917-19.529-1.687-0.83-3.836-0.324-5.521 1.349-0.254 0.252-0.773-0.94-0.508-1.178 2.108-1.914 4.451-2.385 6.598-1.329 4.642 2.288 7.705 11.265 6.909 21.025-0.03 0.356-1.59 0.017-1.561-0.338" fill="#231916"/>
  </g>
  <g transform="matrix(.35256 -.012479 -.012479 -.35256 58.055 73.492)">
   <path d="m0 0c-0.247-0.257 0.682-1.151 0.929-0.895 1.001 1.04 4.038 2.996 5.332 3.626-2e-3 -0.029 2e-3 -0.036 1e-3 -0.068-0.101-2.135-1.143-8.25-1.658-9.383-0.036-0.077 1.026-0.858 1.173-0.535 0.066 0.146 2.778 11.016 1.347 11.498-0.785 0.265-6.419-3.512-7.124-4.243" fill="#231916"/>
  </g>
  <g transform="matrix(.35256 -.012479 -.012479 -.35256 87.275 79.239)">
   <path d="m0 0c0.03-0.355 1.271-0.293 1.285 0.024 2e-3 0.031 1e-3 0.059-1e-3 0.087-0.163 1.862 0.445 6.977 1.39 9.501 1.063-1.206 3.517-4.824 3.683-5.518 0.08-0.336 1.514-0.427 1.462-0.086-0.153 1.017-4.211 7.747-5.506 7.603-1.296-0.142-2.533-9.109-2.313-11.611" fill="#231916"/>
  </g>
  <g transform="matrix(.35256 -.012479 -.012479 -.35256 65.387 61.871)">
   <path d="m0 0c-5.96-3.602-11.342-12.227-12.207-19.809-0.816-7.163 3.728-12.161 8.879-11.351 4.327 0.681 8.801 4.823 12.278 11.368 0.201 0.378-1.167 1.105-1.367 0.726-3.198-6.021-7.366-9.971-11.151-10.565-4.488-0.706-7.26 3.879-6.62 9.493 0.803 7.033 5.738 15.144 11.234 18.467 0.367 0.221-0.681 1.892-1.046 1.671" fill="#231916"/>
  </g>
  <g transform="matrix(.35256 -.012479 -.012479 -.35256 66.403 64.15)">
   <path d="m0 0c-7.209-5.164-9.852-14.355-7.974-19.31 0.761-2.01 2.208-3.209 4.155-3.482 0.519-0.074 1.883 1.299 1.528 1.262-2.753-0.284-3.955 1.299-4.478 2.677-1.711 4.515 1.077 12.91 7.811 17.733 0.29 0.207-0.751 1.328-1.042 1.12" fill="#231916"/>
  </g>
  <g transform="matrix(.35256 -.012479 -.012479 -.35256 73.399 75.796)">
   <path d="m0 0c0.158 1.359 0.651 2.181 0.918 2.15 0.27-0.031 0.56-0.942 0.4-2.302-0.157-1.361-0.648-2.183-0.918-2.152-0.269 0.032-0.558 0.945-0.4 2.304" fill="#231916"/>
  </g>
  <g transform="matrix(.35256 -.012479 -.012479 -.35256 69.409 75.092)">
   <path d="m0 0c0.247 1.407 0.819 2.235 1.106 2.187 0.287-0.049 0.544-1.019 0.299-2.426-0.246-1.409-0.819-2.237-1.106-2.187-0.286 0.048-0.545 1.018-0.299 2.426" fill="#231916"/>
  </g>
  <g transform="matrix(.35256 -.012479 -.012479 -.35256 50.312 85.88)">
   <path d="m0 0c-0.605 14.063-10.307 12.091-15.354 6.037-4.09-4.905-7.076-14.85-4.46-23.778 0.12-0.41 1.283 2.43 1.187 2.845-1.584 6.829 1.481 15.07 5.325 19.68 4.863 5.832 10.839 5.888 11.314-5.175 0.176-4.088-1.199-9.611-3.533-14.034 0.727 0.184 1.458 0.434 2.193 0.788 2.072 4.205 3.494 9.76 3.328 13.637" fill="#231916"/>
  </g>
  <g transform="matrix(.35256 -.012479 -.012479 -.35256 53.941 100.42)">
   <path d="m0 0c0.271 12.274-3.479 27.871-10.977 28.937-6.322 0.898-12.73-10.703-13.1-22.645-0.27-8.727 2.035-16.834 6.561-17.158 2.81-0.203 5.192 3.854 5.052 10.542-0.07 3.287-0.756 3.698-1.044 0.425-0.546-6.201-2.334-8.914-3.764-8.811-3.263 0.233-5.275 8.884-4.889 14.801 0.571 8.743 4.858 21.216 10.845 21.085 5.007-0.11 9.524-13.585 9.238-26.605-0.321-14.507-5.155-25.664-11.494-26.533-5.088-0.695-15.977 7.94-16.468 30.84-0.377 17.535 5.806 26.057 9.5 31.146 2.097 2.891 3.431 4.28 2.491 6.275-0.821 1.744-2.169 1.607-1.347-0.137 0.524-1.116-0.463-2.559-2.397-5.228-3.808-5.249-10.748-14.937-10.36-32.991 0.483-22.506 11.397-32.451 18.791-31.437 7.211 0.986 13.02 11.976 13.362 27.494" fill="#231916"/>
  </g>
  <g transform="matrix(.35256 -.012479 -.012479 -.35256 82.577 69.608)">
   <path d="m0 0c-0.349-1.838 0.424-3.181 1.472-3.377 1.205-0.227 2.381 0.679 2.609 2.613 0.181 1.548-0.348 3.166-1.474 3.377-1.125 0.212-2.295-0.961-2.607-2.613" fill="#fff"/>
  </g>
  <g transform="matrix(.35256 -.012479 -.012479 -.35256 67.452 66.726)">
   <path d="m0 0c-0.776 0.461-2.299-0.917-2.768-1.94-0.765-1.667-0.412-3.151 0.471-3.611 0.917-0.478 2.195 0.151 2.961 1.821 0 0 1.284 2.575-0.664 3.73" fill="#fff"/>
  </g>
  <g transform="matrix(.35256 -.012479 -.012479 -.35256 87.737 65.887)">
   <path d="m0 0c-7.565-3.063-14.502-6.126-23.662-10.813-2.342-1.046-1.412-2.037 0.931-0.991 8.135 3.194 15.735 6.849 24.092 11.026 3.274 1.636 2.05 2.16-1.361 0.778" fill="#231916"/>
  </g>
  <g transform="matrix(.35256 -.012479 -.012479 -.35256 65.235 61.668)">
   <path d="m0 0c1.901-6.188 7.429-19.271 8.135-20.312 1.428-2.097 2.968-2.17 1.648 6e-3 -0.631 1.042-6.672 16.772-8.638 21.39-0.866 2.034-1.793 1.029-1.145-1.084" fill="#231916"/>
  </g>
 </g>
</svg>
