<?xml version="1.0" encoding="UTF-8"?>
<svg version="1.1" viewBox="0 0 492.62 392.85" xmlns="http://www.w3.org/2000/svg">
 <g transform="translate(.061429 -.019388)">
  <path d="m350.85 118.75 2.2 1.6 1.7 1.45q0.15 3.85-5.6 11.95-4.85 6.85-9.6 11.3-0.6 0.55-3.75-0.35l-7.25-0.3q1.95 2.3 5.3 8.2 3.85 6.85 2.85 7.95-0.4 0.45-2.9-1.05l-5.2-3.45q0.8 3.85 2.25 15.3 1.55 12.35 0.95 12.35-1.9 0-13.45-13.1-10.7-12.05-14.95-18.2l0.15 8.75q-0.05 8.15-1.3 8.25t-5.25-4.8l-5.75-7.35-7.55 6.15q-7.25 5.7-8.35 5.5-1.8-0.3 0.55-6.85 2.25-6.25 4.45-8.7-1.7 0.8-36.15 24.95-0.55-4 2.2-14.15t5.45-14.2q-2.6 0.4-8.95 3.95-5.7 3.15-6.65 2.85-1.5-0.5 3.9-8.5 5.45-8.15 10.05-11.9-0.55-0.25-10.9 1.9-10.05 2.15-10.8 1.3-1-1.1-4.55-7.55-3.6-6.55-4.4-8.8-0.6-1.8-8.4-9.3-7.2-6.95-6.8-7.1 0.9-0.3 4.65 0.6 4.2 1 6.5 2.5 0.1-1.1-0.55-3.95-0.65-2.8-1.45-4.55-11.4-12.4-30.15-12.85 0.9-2.65 4.45-6.95 3.15-3.9 4.4-4.5l3.55 0.75q2.8 0.75 3.7-0.95 0.5-0.85 0.1-1.75l-1.2-2.5q-2.05-5.15-1.15-16.3 6.45 4.35 12.45 10.35 6.95 6.9 6.55 9.7l-2.25-0.2q-2.2-0.75-2.35 0.4-0.55 3.8 3.2 11.05 3.5 6.75 7.25 10.25 5.1 4.7 10.8 12.4 4.45 5.95 5.1 5.9 18.3-1.5 23.8 8.05l-4.05 0.35q-4 0.15-6.05 2.1-0.65 0.6 1 2.6l3.05 3.25q1.05 1.15 1.85 0.6l1.95 0.1 5.6 4.25q3.15 2.15 4.2 1.55l2.85-1.85q1.75-1 3.65-1 5.25-0.05 15.55 7.6 3.3-2.25 8.1-3.65 5.8-1.65 7.3 0.45 0.75 1.1 1.05 4.2 0.2 1.85 2.05 1.3 1.6-0.45 4.6-4 3.9-4.5 8.05-7.45 1.9-1.35 3.75-7.9 1.65-6 3.7-6.45l3.55-1.25q1.55-0.85 2.05-1.55 1.2-1.9 4.2-1.75 3.15 0.1 5.3 2.6 0.75 0.9 3 0.6l2.8-0.2" fill="#fdd000"/>
  <path d="m284 57.1q13.9 2.55 24.75 9.95 11.75 8 17.6 20.15-2.45 2-6.25 13-3.7 10.7-4.05 15.95-14.2 5.35-32.7 1.4-15.7-3.4-26.6-11.2-1.95-5.3-4.65-9.6-5.35-8.45-10.2-6.65-1.65 0.65-5.15 2.85-1.35 0.85-3.05-0.4-3.75-2.75-4.5-7.95-0.7-4.85 1.1-5.15 1-0.15 3 1.6 1.65 1.45 3.05 0.25 1.45-1.25 1.15-5.25-0.25-3.55-1.85-8.6 8.95-7.45 22.15-10.15 12.8-2.65 26.2-0.2" fill="#f08300"/>
  <path d="m304.35 95.2q2.9-1.3 7.95-4.7l6.9-5.1q2.75 16.2-10.8 15.4l-1.8-2.75-2.25-2.85" fill="#fff"/>
  <path d="m265.3 78.15 11.15 7.35 8.55 5.65q-4.2 5.3-10.3 5.4-6.4 0.1-9.9-5.95l0.2-5.4q0.1-5.6 0.3-7.05" fill="#fff"/>
  <path d="m330.7 106.4q-0.75 6.35-6.65 15-5.25 7.75-10.3 11.5 0.65-3.5 0.5-6.15-0.2-3.1-1.5-3.6-2.1-0.75-8.95 5.95-6.7 6.6-12.3 14.65l-0.15 0.05q-2.5-6.85-7.5-15.25-6.05-10.15-9.1-9.8-1.7 0.2-1.9 4.85-0.1 3.6 0.65 8.25-5.45-3.8-10.5-12.5-2.75-4.8-6.25-13 10.9 7.8 26.6 11.2 18.5 3.95 32.7-1.4 8.6-3.25 14.65-9.75" fill="#f08300"/>
  <path d="m248.85 174.95 31.5-21.6q-2.2 2.45-4.45 8.7-2.35 6.55-0.55 6.85 1.1 0.2 8.35-5.5l7.55-6.15 5.75 7.35q4 4.9 5.25 4.8t1.3-8.25l-0.15-8.75q2.9 4.15 9.2 11.65 6.5 7.7 11.55 12.9-16.9 3.05-36.85 2.4-19-0.6-38.45-4.4" fill="#f08300"/>
  <path d="m328.45 39.8-0.1-25.6q0.05-10.95 2.6-7.75 3.9 4.95 9.45 19 6.5 16.55 8.55 30.5l3.9-6.75q3.25-5.65 4.85-4.25 2.7 2.35 4.85 26t-0.55 23.25q-1.75-0.25-4.85-2.15-2.45-1.45-3.25-0.95-0.95 0.65-3.55 5.95-2.55 5.2-2.65 6.25-0.1 1.55 0.1 4.35 0.25 3.25 0.7 3.2l3.7-2.95q3.4-2.8 4.4-2.7 0.4 0.05-0.8 6.75-1.4 7.7-1.3 10.2-1.75-1.55-3.8-2.55l-2.7 0.15q-2.2 0.25-2.95-0.65-2.15-2.5-5.15-2.65-2.8-0.2-4 1.65-0.45 0.7-2.2 1.6l-3.65 1.25q-2.05 0.4-3.55 6.3-1.65 6.5-3.6 7.85-4.15 2.95-8.2 7.65-3.2 3.7-4.75 4.15-1.95 0.6-2.5-1.5-1-3.6-1.5-4.35-1.2-1.7-7.95 0.3l-6.5 2.4q5.6-8.05 12.3-14.65 6.85-6.7 8.95-5.95 1.3 0.5 1.5 3.6 0.15 2.65-0.5 6.15 5.05-3.75 10.3-11.5 5.9-8.65 6.65-15 0.6-6.05-2.2-13.95-2.35-6.55-5.85-11.65 4.15-5.1 6.1-13.6-0.75-1.2-6.85-2.65-6.05-1.45-9.15-1.3 0.45-0.25 3.65-6.5 3.25-6.35 3.25-7.15 0-0.85-1.45-4-1.5-3.2-2.55-4.4 0.85-2 2.25-4 1.55-2.25 2.3-2.2 1.2 0.05 3.6 1.45 2.35 1.4 4.65 3.35" fill="#e83921"/>
  <path d="m208.5 42.7q1.05 1.5 1.5-1.65 0.65-4.15 1.8-4.7 2.4-1.15 8.7 5.4 6.1 6.35 10.25 13.95 2.95 5.55 4.9 11.75 1.6 5.05 1.85 8.6 0.3 4-1.15 5.25-1.4 1.2-3.05-0.25-2-1.75-3-1.6-1.8 0.3-1.1 5.15 0.75 5.2 4.5 7.95 1.7 1.25 3.05 0.4 3.5-2.2 5.15-2.85 4.25-1.6 8.55 4.25 2.35 3.15 5.4 9.95l0.9 2.05q3.5 8.2 6.25 13 5.05 8.7 10.5 12.5-0.8-4.95-0.8-8.85 0.05-5.2 1.75-5.4 3-0.35 9.2 10.4 5.15 8.85 7.7 15.8-10.2-7.6-15.65-7-1.85 0.15-3.7 1.45l-2.8 2q-1.05 0.6-4.5-1.9l-5.85-4.6q-1.05-0.75-2.05-0.2-0.9 0.5-1.95-0.65l-3.15-3.6q-1.8-2.4-1.15-3.05 2.05-1.95 6-2l4-0.3q0.3-0.4-0.75-1.5-1.3-1.3-3.7-2.4-7-3.05-18.7-2.1-0.65 0.05-5.1-6.2-5.75-8-10.85-12.75-3.65-3.4-7.25-10.95-3.75-7.85-3.25-11.7 0.15-1.15 2.2-0.75l2.1-0.1q0.4-2.8-5.85-8.75-5.05-4.8-11.75-9.35-0.9 11.2 1.5 16.1l1.45 2.3q0.5 0.85 0.05 1.7-0.9 1.7-4.25 1l-4.1-0.7q-1.2 0.6-4 4.1-3.1 3.9-4 6.6l-11.5 0.8q-0.85-1.3 0.2-4.8 0.95-3.25 0.55-3.45-2-1.15-1.65-3.45 0.35-2.45 3.15-3.5 0.6-0.2-0.55-2.45l-2.9-5.05q-4.35-7.85-2.4-11 0.9-1.4 7.1 0.45 5.65 1.7 5.4 0.25l-3.8-8q-3.5-6.9-3.7-11.25-0.2-4.4 3.2-5.8l2.75-0.9q1.55-0.45 2.15-1.15 1.05-1.25-3.1-14.55-3.95-12.6-2.75-12.2 5.05 1.7 17.95 19.55l14.1 20.7" fill="#e83921"/>
  <path d="m84.8 97.45q11.55-17.9 7.7-40.6 15.45 14.4 30.8 36.95l10.65-0.35h11q-3.45 4.75-8.15 16.2-4.6 11.2-4.6 14.5 0 2.4 2.55 6.75 2.45 4.25 4.7 5.9-9.5-0.8-17.15-0.45 3.75 2.4 10.45 10.5 7.1 8.5 5.9 10.15-5 0.75-21.4-5.95-17.5-7.2-22.6-13.6-9.05-2.1-21.35-6.9-12.4-4.8-24-10.7 23.35-3.7 35.5-22.4" fill="#362113"/>
  <path d="m167.7 90.15q8.75-1.9 14.9-2 18.3-0.45 30.9 13.25 0.8 1.75 1.45 4.55 0.65 2.85 0.55 3.95-2.3-1.5-6.5-2.5-3.75-0.9-4.65-0.6-0.4 0.15 6.8 7.1 7.8 7.5 8.4 9.3 0.8 2.25 4.4 8.8 3.55 6.45 4.55 7.55 0.75 0.85 10.8-1.3 10.35-2.15 10.9-1.9-4.6 3.75-10.05 11.9-5.4 8-3.9 8.5 0.95 0.3 6.65-2.85 6.35-3.55 8.95-3.95-2.55 3.8-5.05 11.65-2.25 7.15-2.85 12.35-10.2-2.2-20.9-5.55-3.6-13.45-7.45-21.3-6.35-13.05-15.5-17.6-2.4 6.95 0.05 17.5 1.5 6.55 3.8 11.3-4.2-6.25-8-10.4-4.65-5.15-7.65-6-0.65 1.3 0.55 5.25 1.05 3.7 3.25 8.25-4.05-2.25-10.1-7.1-5.55-4.45-5.35-4.7-12.1-3.45-26.15-5.5-2.4-1.85-5.1-6.35-2.8-4.6-2.8-6.95 0-3.5 4.15-15.05 4.35-12.1 7.65-16.75l13.3-2.85" fill="#f08300"/>
  <path d="m144.95 93.45 5.65-0.15 3.8-0.3q-3.3 4.65-7.65 16.75-4.15 11.55-4.15 15.05 0 2.35 2.8 6.95 2.7 4.5 5.1 6.35l-11.05-1.3q-2.25-1.65-4.7-5.9-2.55-4.35-2.55-6.75 0-3.3 4.6-14.5 4.7-11.45 8.15-16.2" fill="#fdd000"/>
  <path d="m81.7 47.85q4.6 10.5 3.4 22.25-1.2 11.25-7.4 21.05-6.35 10-16.35 15.9-10.65 6.35-23.25 6.65-12.9-7.65-17.9-13.9 5.4-1.75 12.6-7.3 7.5-5.9 7.45-9-0.1-3.65-6.85-7.5-6.4-3.65-13-4.4l10.2-0.85q10.3-1.1 10.65-2.2 1.05-3.15-4.35-12.7-5.15-9-10.25-13.95 2.4-1.75 5.7-3.4 1.95 7.1 8.85 15.3 6.7 8 10.5 8.25 4.85 0.3 8.55-10.1 3.6-10.15 1.3-14.85l-0.05-0.1q9.7 3.15 20.2 10.85" fill="#362113"/>
  <path d="m92.5 56.85q3.85 22.7-7.7 40.6-12.15 18.7-35.5 22.4l-11.2-6.15q12.6-0.3 23.25-6.65 10-5.9 16.35-15.9 6.2-9.8 7.4-21.05 1.2-11.75-3.4-22.25 5.4 4 10.8 9" fill="#e83921"/>
  <path d="m106.8 294.3 12.1-1.8q12-2 15.7-3.2-2.6 7.1-4.25 16.15-14.8 2.3-21.7 2.65l-1.65 7.85q-1.7 6.5-4.05 8.8-0.4-0.95-0.95-5.55-0.45-4.2-0.7-4.25-4.4 8-14.95 19.1-11.55 12.15-19.65 16 0-1.95 0.75-10.35l1.1-12.95-16.55 3.95q-10.7 2.35-15.75 2.55 1.7-1.2 6.5-9.05l8.45-13.9q-0.6-0.9-6.65-1.7l-8.3-0.8q0.6-1.05 4.3-4.35l7.2-6.5q-1.6-1.8-6.55-4.8-4.75-2.85-8.1-4.15 2.65-1.15 17.8-2.55l18.45-1.95q-1.9-3.9-4.15-9.35-3.35-8.05-4.3-12.45 5.5 1.9 16 10.5 8.3 6.8 15.75 14.3 8.15-14.35 9.8-16 0.55-0.55 2.15 10l2.2 13.8" fill="#362113"/>
  <path d="m331.6 105.2-4.65 4.55q-4.8 3.9-10.85 6.15 0.4-5.2 4.55-16.45 4.3-11.5 6.8-13.45 3.85 8 4.15 19.2" fill="#dcdddd"/>
  <path d="m150.85 317.3q-8.85 12.25-9.55 18.5l-5.6-7.3-6.95-8.3q0.25-5.4 0.95-10.3 2.5 2.7 5.45 6.65 3.75 5.05 4.6 7.5 1.45-7.9 12.3-20.1 10.3-11.5 18.1-15.2 6.65 6.5 10.65 21.35 3.3 12.15 3.55 23.45 3.65-3.15 11.5-5.55 8.15-2.55 13.3-1.75 0.3 1.1 0.1 3.85l-0.7 4.85-5.7 6.65 1.9-7.6q-6.05 0.15-12.6 3.05-4.75 2.05-11.6 6.5 0-6.5-4.9-23.75-4.95-17.4-7.75-20.2-8 5.25-17.05 17.7" fill="#fdd000"/>
  <path d="m373.55 365.2q6.05 7.1 9.4 14.75 3.15 7.2 0.85 6.85-4.25-0.65-8.4-2.35-0.9-2.75-5.65-8.55-4.7-5.7-8.7-9.1 0.3-2.45 4.8-3.65 4.85-1.3 7.7 2.05" fill="#dcdddd"/>
  <path d="m355.65 226.6q-0.15-12.55 3.1-22.8 3.5-10.9 9.1-13.25 5.85 25.15 4.4 66.35v0.15q-8.05 0.35-12.5-9.1-3.9-8.25-4.1-21.35" fill="#fdd000"/>
  <path d="m369.8 310.05q1.65 1.35 5.7 8.35 4.15 7.25 5.4 11.2-1.45 6.9-6.45 18.85-4.15 9.95-4.15 14.35l-6.05 0.15q-2.95 1.35-3.2 3.85-2.1-1.8-3.4-2.3-4.25-1.35-10.25 3-6.1 4.4-3.05 7.35-5.4-1.75-12.4-4.55-7.45-3-11.3-5.05-1.25-0.7-1.8-2.25-0.4-1.05-1.55-6.4-1.3-5.95-4.9-13.1 1.85-3.45 4.1-6.85 3.1-4.7 5.15-6.2l9.35 9.9q7.3 7.3 10.4 9.2 1.6-4.8 11-18.75 10.7-15.85 17.4-20.75" fill="#362113"/>
  <path d="m369.9 300.05q1.7 0 6.15 6.7 4.1 6.2 6.05 10.9 0.05 5.7-1.2 11.95-1.25-3.95-5.4-11.2-4.05-7-5.7-8.35-6.7 4.9-17.4 20.75-9.4 13.95-11 18.75-3.1-1.9-10.4-9.2l-9.35-9.9q-2.05 1.5-5.15 6.2-2.25 3.4-4.1 6.85-1.65-3.4-4.3-7.7 2.35-4.4 6-8.8 3.95-4.8 6.45-5.85 2.75 1.6 10.55 8.5 7.15 6.25 8.05 7.45 4.25-9.3 16.4-23.5 11.65-13.55 14.35-13.55" fill="#fdd000"/>
  <path d="m351.9 279.45 5.05 5.6 2.85 2.8q0.55-4-0.45-11.4l5.65-2.45q3.25 1.75 9.8 16.6 7.25 16.5 7.3 27.05-1.95-4.7-6.05-10.9-4.45-6.7-6.15-6.7-2.7 0-14.35 13.55-12.15 14.2-16.4 23.5-0.9-1.2-8.05-7.45-7.8-6.9-10.55-8.5-2.5 1.05-6.45 5.85-3.65 4.4-6 8.8-4.1-6.5-8.35-10.85-4.55-4.7-8.1-5.7-9.4 1.4-29.4 0.55-20.3-0.9-28.5-3.2-11.5 3.2-25.2 18.35l0.7-4.85q0.2-2.75-0.1-3.85-5.15-0.8-13.3 1.75-7.85 2.4-11.5 5.55-0.25-11.3-3.55-23.45-4-14.85-10.65-21.35-7.8 3.7-18.1 15.2-10.85 12.2-12.3 20.1-0.85-2.45-4.6-7.5-2.95-3.95-5.45-6.65 1.2-9.05 3.05-15.45 2.6-8.85 7.35-16.65l33.55-9.9 7.25 3.3q-2.25 3.5-4 6.8-1.7 3.2-2.1 4.55 5.15-1.35 16.55-7.05 42.1 16.4 83.75 17.15 40.1 0.7 76.8-13.2" fill="#e83921"/>
  <path d="m375.5 114.95q3.15 9.85 5.3 27.8 2.2 18.5 1.05 27.6-7.4-2.55-16.1-3.95 5.25-6.55 8.7-11.65-3.4-0.5-7.25 1.45-3.35 1.7-6.55 4.95l3.4-9q1.95-5.9 2.15-9.55-5.75 1.6-12.3 8-8.65 8.45-15.6 23l-6.85 1.85q-0.8-9.4-2.85-19.4l5.2 3.45q2.5 1.5 2.9 1.05 1-1.1-2.85-7.95-3.35-5.9-5.3-8.2l7.25 0.3q3.15 0.9 3.75 0.35 4.3-4 9.6-11.6 5.7-8.15 5.4-10.7l1.35-8.8q1.2-8.7 0.7-8.75-1-0.1-4.4 2.7l-3.7 2.95q-0.95 0.15-0.95-3.7-0.05-3.45 0.4-4.8 7.05-0.7 14.35 2.95 6.05 3.05 13.2 9.65" fill="#f08300"/>
  <path d="m482.35 257q-1.65 8.15-9.85 10.9-8.7 2.9-15.6 0.15-6.95-2.8-10.15-10.5 10.45 3.95 20.65 0.9 12.5-3.75 12.15-17.15 4.3 8.25 2.8 15.7" fill="#dcdddd"/>
  <path d="m427.35 196.25q6.4-6.65 16-7.55 14.5-1.4 27.7 7.35 13.15 8.65 19.35 23.45 3.15 22.75-8.2 39.3 2.55-7.55-2.65-17.5-0.25-10.05-7.9-15.1-3.25-2.15-6.5-2.1-3.4 0.05-5.55 2.55-2.2 2.65-10.45 13.55l-7.35 9.85q1.45-2.55 1.35-12.4-0.15-10.7-1.7-15.45-2.4-7.2-9.35-8.1-6.85-0.95-10.65 4.95l-1.65-5.25q0.9-10.7 7.55-17.55" fill="#362113"/>
  <path d="m380.8 142.75q-2.15-17.95-5.3-27.8 3.4 3.1 10.35 10.4 2.9 8.3 5.05 26.6 1.85 15.9 1.6 23.35-4.5-2.8-10.65-4.95 1.15-9.1-1.05-27.6" fill="#fdd000"/>
  <path d="m385.85 125.35q3.7 3.8 9.8 6.45 4.75 2.1 12.4 4.05-3.9-10.3-5-20.9-1.15-11 2.05-11.3 5.1-0.5 13.8 12.35 8.2 12.1 13.05 25.8 7.9 2.6 13.45 6.3 12.35 8.4 23.3 22.75 11.5 15 17.4 31.5-8.25-11.35-18.8-16.7-11.2-5.7-24.65-4.45-11.1 1-17.8 6.75-7.3 6.25-8.85 17.65-3.15-5.45-11.15-14.7-6.75-7.75-8.65-12.9l-3.7-2.7q0.25-7.45-1.6-23.35-2.15-18.3-5.05-26.6" fill="#362113"/>
  <path d="m443.35 188.7q-9.6 0.9-16 7.55-6.65 6.85-7.55 17.55-1.5-4.2-3.8-8.2 1.55-11.4 8.85-17.65 6.7-5.75 17.8-6.75 13.45-1.25 24.65 4.45 10.55 5.35 18.8 16.7 3.15 8.9 4.3 17.15-6.2-14.8-19.35-23.45-13.2-8.75-27.7-7.35" fill="#e83921"/>
  <path d="m359.35 276.45q-0.55-4.7-1.35-6.75 2.8 2.05 7 4.3l-5.65 2.45" fill="#362113"/>
  <path d="m185.75 264.25q-2.4 3.05-4.85 6.95l-7.25-3.3 12.1-3.65" fill="#362113"/>
  <path d="m348.75 257.5q-7.65 11.25-21.1 12.85-17.35 2.1-31.8-4.9-15.25-7.4-25.65-24.15-4.85-7.8-9.95-13.75 3.1 5.75 3.3 12.85 0.2 7-2.5 13.1-6.4 14.4-22.15 13.65-16.15-0.8-27.15-14.6-11.55-14.45-8.45-32.9-5.35 15.45-18.1 23.45-12.75 8.05-25.75 4.1-6.35-1.9-11.25-6.6-4.75-4.55-7.55-11.05 7.75-31.6 19.55-57.15 5.55-2.85 11.7-3.5 6.35-0.75 12 1 11.9 3.65 17.95 15.85 6 12.1 3.35 26.65 4.25-11.25 14.65-18.05 10.25-6.7 22.15-6.3 13.4 0.4 23.8 7.4 9.65 6.5 18.6 20 8.4 12.65 13.2 18.4-4.85-8.4-3.25-19.3 1.75-11.9 10.55-17.8 6.85-4.6 15.1-5.6 8.65-0.95 16.15 2.45 18.05 8.2 19.45 35.5 0.85 17.1-6.85 28.4" fill="#fdd000"/>
  <path d="m324.15 176.95 4.6 4.65q2.25 2.15 2.8 2.15t0.4-2.65l-0.5-5.65 6.85-1.85q6.95-14.5 15.7-23.15 6.65-6.55 12.05-7.85 0.5 3.7-5.4 18.55 3.2-3.25 6.55-4.95 3.85-1.95 7.25-1.45l-6.9 9.2-6.2 7.8q3.9 7.75 6.5 18.8-5.6 2.35-9.1 13.25-3.25 10.25-3.1 22.8 0.2 13.1 4.1 21.35 4.45 9.45 12.5 9.1 1.45-0.05 11 11.45 10.1 12.1 11.15 17.15-10.05-2.1-21.65-7.55-9.65-4.5-14.75-8.4 0.45 1.15 1.25 8.5 0.85 7.7 0.55 9.65l-2.85-2.8-5.05-5.6q-36.7 13.9-76.8 13.2-41.65-0.75-83.75-17.15-11.4 5.7-16.55 7.05 0.65-2.3 4.55-8.75 3.75-6.15 6.4-9.55l-31.2 9.1-31.45 8.95q0.65-3.05 6.5-11.15 5.45-7.6 11.75-14.5l-20.55 4.45q-16.65 3.8-21 4.15 2.25-3.7 16.5-12.95 14.2-9.3 22-12.15l2.35-10.6q2.8 6.5 7.55 11.05 4.9 4.7 11.25 6.6 13 3.95 25.75-4.1 12.75-8 18.1-23.45-3.1 18.45 8.45 32.9 11 13.8 27.15 14.6 15.75 0.75 22.15-13.65 2.7-6.1 2.5-13.1-0.2-7.1-3.3-12.85 5.1 5.95 9.95 13.75 10.4 16.75 25.65 24.15 14.45 7 31.8 4.9 13.45-1.6 21.1-12.85 7.7-11.3 6.85-28.4-1.4-27.3-19.45-35.5-7.5-3.4-16.15-2.45-8.25 1-15.1 5.6-8.8 5.9-10.55 17.8-1.6 10.9 3.25 19.3-4.8-5.75-13.2-18.4-8.95-13.5-18.6-20-10.4-7-23.8-7.4-11.9-0.4-22.15 6.3-10.4 6.8-14.65 18.05 2.65-14.55-3.35-26.65-6.05-12.2-17.95-15.85-5.65-1.75-12-1-6.15 0.65-11.7 3.5 7.8-17 15.85-27.95 6.65 5.75 16.05 10.95-2.2-4.55-3.25-8.25-1.2-3.95-0.55-5.25 2.75 0.75 8.75 7.3l7.25 8.4q-3.6-6.95-4.85-14.5-1.3-7.95 0.65-13.6 6 2.95 11.55 11.65 5.2 8.1 9.1 19.65l2.05 7.55 0.25 0.05q10.7 3.35 20.9 5.55-0.5 4.6 0.9 3.7l4-2.7q19.45 3.8 38.45 4.4 19.95 0.65 36.85-2.4" fill="#362113"/>
  <path d="m128.75 320.2 6.95 8.3 5.6 7.3q0.7-6.25 9.55-18.5 9.05-12.45 17.05-17.7 2.8 2.8 7.75 20.2 4.9 17.25 4.9 23.75 6.85-4.45 11.6-6.5 6.55-2.9 12.6-3.05l-1.9 7.6q-6.6 8.25-14 19.6l-6.85 10.45-4.85 1.2-5.45 0.75q1.4-4.7-2.2-8.75-4.05-4.5-10.7-2.45-1.25 0.4-3.8 3.3-2.05-3.6-5.25-4.75-3.45-1.2-6.45 1.25-2.4 1.9-4.75 6.3l-1.65-0.45q-0.95-0.55-1.65-1.85-3.2-5.9-5.1-18.25-2.1-13.55-1.4-27.75" fill="#362113"/>
  <g fill="#dcdddd">
   <path d="m143.3 362.2q3-2.45 6.45-1.25 3.2 1.15 5.25 4.75-3.65 4.35-7.7 11.2-4.15 7.1-5.4 11.35l-4 1.55-4.45 1.15q-2.9 0.35 0.95-12.1 4-12.7 8.9-16.65"/>
   <path d="m159.25 385.55q-7.7 4.55-15.95 6.45-2.4 0.55-1.25-3.7 1-3.75 4.3-9.8 7.95-14.65 12.45-16.1 7.25-2.3 11.5 2.75 4.1 4.85 0.65 10.05-3.75 5.6-11.7 10.35"/>
   <path d="m355.7 380.15q-9.45-3.5-11.35-5.3-3.05-2.95 3.05-7.35 6-4.35 10.25-3 2.95 0.95 10 9.2 6.8 7.85 7.75 10.75 0.55 1.8-1 1.45-8.8-2-18.7-5.75"/>
   <path d="m441.45 222.2q1.5 4.65 1.3 15.95-0.25 11.55-2.15 13.35l-0.05 0.05q-2.45 2.05-11.05-4.05-8.5-6.1-10.25-10.9-2-5.35-0.25-11.95 1.85-7.15 6.9-9.75 4.2-2.2 8.85-0.15 4.9 2.1 6.7 7.45"/>
   <path d="m474.95 228.85q4.2 4.4 4.5 12.35 0.35 8.05-3.65 12.5-6.75 7.55-22.1 5.5-6.05-0.8-9.7-2.85-3.8-2.15-2.6-4.35l0.05-0.05 8.4-12.15q7.3-10.2 9.75-13.15 2.05-2.45 6.5-2.15 5 0.35 8.85 4.35"/>
   <path d="m44.2 28.25q5.5 0.15 10.2 2.4 5.15 2.4 7.1 6.35l0.05 0.1q2.3 4.7-1.3 14.85-3.7 10.4-8.55 10.1-4.9-0.3-11.95-9.65-7-9.3-7.8-16.15-0.5-4 3.3-6.15 3.4-2 8.95-1.85"/>
   <path d="m3.05 46.15q2.9-5 8.35-7.15 5.95-2.3 12.65-0.15 4.3 1.4 11.7 13 7.5 11.85 6.1 15.95-1 2.9-15.55 2.3-14.3-0.55-17.85-3.15-5.9-4.3-7.15-10.3-1.15-5.5 1.75-10.5"/>
   <path d="m14.1 70.85q5.2-0.85 15.45 3.8 10.6 4.75 10.7 8.85 0.1 2.95-7.45 9.15-7.85 6.4-13.85 7.5-5.4 1-9.75-2.95-4-3.65-5.35-9.5-1.35-6 1.05-10.55 2.65-5.2 9.2-6.3"/>
  </g>
  <path d="m298.45 92.65q4.4 0.35 8.05 5.65 3.7 5.3 2.95 10.15-0.5 3.2-4.9 4.8-3.9 1.45-9.35 1.15-5.35-0.35-9.05-2.2-4.05-2.05-4-5.05 0.1-6.1 6-10.7 5.3-4.15 10.3-3.8" fill="#d93339"/>
  <path d="m328.75 67.2q0.2 1.2-1.55 4.85-1.95 4.15-5.05 8.35-8.55 11.6-18.8 14.8-1.4-2.2-5.35-2.45-3.85-0.2-5.4 1.55-12.55-4.55-28.95-18.05-14.75-12.15-15.75-16.05l-3-11.75q-2.15-8.75-2-9.55 0.2-1.15 3.65 1.4l4.25 3.4q-1.65-3.4-6.1-18.7-4.5-15.3-4.25-16.65 0.35-1.65 13.95 13.85 13.6 15.6 16.45 21 0.75 1.4-0.2 24.65 4.35-1.4 8.45-1.85 3.65-0.45 4.9 0.05 1 0.4 2.25 8.25 1 6.4 1.25 10.2 6.55 5.45 13.9 4.55 6.9-0.85 9.85-6.2-0.1-7.15-4.2-12.9-4.2-5.85-12.1-9.55-0.7-2.55-1.8-9.2-1-6.2-1-7.45 0-1.15 2.7 0.95l3.5 3.2q0.2-0.95-2.9-19.35-3.1-18.15-2.65-19.4 0.95-2.75 13.75 16.95t12.65 24.1q-0.05 1.35-2.85 6.45-2.35 4.4-3.9 6.55 6.15 0.6 10.65 1.55 5.4 1.2 5.65 2.45" fill="#362113"/>
  <path d="m307.6 92.8 7.65-4.65q0 3.9-1.15 6.05-1.05 2.05-2.95 2.1-2.35 0.05-3.55-3.5" fill="#d93339"/>
  <path d="m270.35 81.95 8.85 5.5q-1.35 1.95-3.4 2.55-2.15 0.65-3.9-0.45-1.85-1.15-2.35-3.4-0.45-2.3 0.8-4.2" fill="#d93339"/>
  <path d="m272 83.65c0.13333-0.23333 0.73333-0.03333 1.8 0.6 1.0667 0.6 1.4833 1.1167 1.25 1.55s-0.723 0.75008-1.2 0.9c-0.46137 0.145-1.0411 0.20831-1.45-0.05-0.42854-0.27074-0.63333-0.68333-0.7-1.35-0.0667-0.63333 0.0333-1.1833 0.3-1.65" fill="#fff"/>
  <path d="m309.85 92.6c0-0.53333 0.35-0.88333 1.05-1.05 0.7-0.2 1.1167-0.03333 1.25 0.5 0 0 0.10849 0.9285-0.05 1.35-0.12093 0.32161-0.32404 0.69135-0.65 0.8s-0.66667 0.05-1-0.25c-0.4-0.3-0.6-0.75-0.6-1.35" fill="#fff"/>
  <path d="m292.55 103.95c0.0667-0.53333 0.23333-1 0.5-1.4 0.23333-0.4 0.48333-0.6 0.75-0.6 0.26667 0.0333 0.45864 0.45375 0.55 0.75 0.14252 0.46214-0.05 1.45-0.05 1.45s-0.22713 1.2288-0.6 1.7c-0.17212 0.21753-0.5 0.51667-0.7 0.45-0.53333-0.13333-0.68333-0.91667-0.45-2.35" fill="#0f141b"/>
  <path d="m301.8 104.85c0.0667-0.63333 0.21667-1.15 0.45-1.55 0.16667-0.4 0.35-0.58333 0.55-0.55 0.26667 0.0333 0.45 0.3 0.55 0.8 0 0 0.0786 1.1388 0 1.7-0.0673 0.48065-0.4 1.4-0.4 1.4-0.2 0.4-0.43333 0.58333-0.7 0.55-0.5-0.1-0.65-0.88333-0.45-2.35" fill="#0f141b"/>
  <path d="m251.7 95.8q1.9-5.1 6.45-13.2 4.6-8.1 6.2-9.1 1.1 3.65-0.05 19.65-1.05 15.05-1.8 16.65l-5.8-3.5-5-10.5" fill="#dcdddd"/>
  <path d="m73.3 130.55q-12.4-4.8-24-10.7 11.8-1.9 20.9-7.85 12.55 10.5 18.6 14.45 10.9 7.15 24 11.15 2.3 4.8 9.3 8.15 6.75 3.2 11.65 2.3 5.95 7.4 4.9 8.95-5 0.75-21.4-5.95-17.5-7.2-22.6-13.6-9.05-2.1-21.35-6.9" fill="#281305"/>
  <path d="m32.8 92.5q7.5-5.9 7.45-9-0.1-3.65-6.85-7.5-6.4-3.65-13-4.4l12-1.1q13.6 19.5 30.85 35.35-11.3 7.5-25.15 7.85-12.9-7.65-17.9-13.9 5.4-1.75 12.6-7.3" fill="#281305"/>
  <path d="m63.25 105.85 6.95 6.15q-9.1 5.95-20.9 7.85l-11.2-6.15q13.85-0.35 25.15-7.85" fill="#c9301a"/>
  <path d="m370.5 376.85q5.8 1.9 11.55 1.25 1.9 3.9 2.45 6.4 0.5 2.5-0.7 2.3-4.25-0.65-8.4-2.35-0.8-2.4-4.9-7.6" fill="#b5b5b6"/>
  <path d="m364.25 362.95q-2.95 1.35-3.2 3.85-2.1-1.8-3.4-2.3-4.25-1.35-10.25 3-6.1 4.4-3.05 7.35-5.4-1.75-12.4-4.55-7.45-3-11.3-5.05-1.2-0.7-1.75-2.05-0.45-1.15-1.4-5.65 12.8 5.25 32.55-2.45 20-7.85 31.6-23.2l-6.95 16.45q-4.45 10.8-4.4 14.45l-6.05 0.15" fill="#281305"/>
  <path d="m453.65 259.25q14.15 5.15 27.15 1.9-2.55 4.8-8.3 6.75-8.7 2.9-15.6 0.15-6.95-2.8-10.15-10.5 3.05 1.15 6.9 1.7" fill="#b5b5b6"/>
  <g fill="#281305">
   <path d="m479.55 241.3q-0.25-10.05-7.9-15.1-3.25-2.15-6.5-2.1-3.4 0.05-5.55 2.55-4.4 5.3-17.9 23.5 1.55-2.65 0.9-15.2-0.7-13.7-4.05-18.85 2.3 2.65 8.7 3.15 6.1 0.5 13.4-1.1 7.55-1.65 13.05-4.8 6.15-3.5 7.75-7.9 3.05 2.5 5.9 6.9 3.2 4.95 4.1 9.4 1.45 10.25-0.85 19.3-2.25 8.8-8.4 17.75 2.55-7.55-2.65-17.5"/>
   <path d="m359.35 276.45q-0.55-4.7-1.35-6.75 2.8 2.05 7 4.3l-5.65 2.45"/>
   <path d="m185.75 264.25q-2.4 3.05-4.85 6.95l-7.25-3.3 12.1-3.65"/>
   <path d="m158.8 362.4q-1.25 0.4-3.8 3.3-2.05-3.6-5.25-4.75-3.45-1.2-6.45 1.25-2.4 1.9-4.75 6.3l-1.65-0.45q-0.95-0.55-1.65-1.85-2.1-3.85-2.85-6.3-1.15-3.65-2-10.7 13.85 8.4 34.05 7.2 20.05-1.2 35.85-11.2l-10.6 15.55-7.7 10.9-4.85 1.2-5.45 0.75q1.4-4.7-2.2-8.75-4.05-4.5-10.7-2.45"/>
  </g>
  <g fill="#b5b5b6">
   <path d="m135.9 374.6q7.1 1.2 13.5-1.15-5.8 9-7.5 14.8l-4 1.55-4.45 1.15q-1.6 0.2-0.75-5.05 0.8-5.05 3.2-11.3"/>
   <path d="m146.05 379q7.2 0.6 13.9-1.3 7-2 12.4-6.45-0.15 2.1-1.4 3.95-3.75 5.6-11.7 10.35-7.7 4.55-15.95 6.45-2.35 0.55-1.3-3.55 0.9-3.6 4.05-9.45"/>
   <path d="m356.45 380.45q-9.1-3.35-11.7-5.3 13.2 3.7 23.1-1.25 6.7 7.85 7.55 10.55 0.55 1.8-1 1.45-8.5-1.95-17.95-5.45"/>
   <path d="m423.15 242.1q6.5-1.15 11.55-4.4 5.25-3.45 7.85-8.5 0.5 6.9 0 13.65-0.55 7.35-1.95 8.65l-0.05 0.05q-1.8 1.5-7.55-1.8-5.4-3.1-9.85-7.65"/>
   <path d="m444 256.35q-3.8-2.15-2.6-4.35l0.05-0.05 2.1-3.15q10.15 1.95 19.1 0.2 9.65-1.85 16.8-7.85 0.15 3.75-0.75 6.95-0.95 3.45-2.9 5.6-6.75 7.55-22.1 5.5-6.05-0.8-9.7-2.85"/>
   <path d="m51.7 62.05q-4-0.3-10-7.25 11.8-1.6 19.95-7.85-1.3 6-3.9 10.4-2.95 4.9-6.05 4.7"/>
   <path d="m26.3 70.1q-14.3-0.55-17.85-3.15-2.8-2.05-4.55-4.5l19.15-0.7q10.1-2.15 13.8-8.1 2.8 4.65 4.15 8.25 1.5 4.05 0.85 5.9-1 2.9-15.55 2.3"/>
   <path d="m37.9 80.5 1.9 1.55q0.4 0.45 0.45 1.45 0.1 2.95-7.45 9.15-7.85 6.4-13.85 7.5-3.85 0.7-7.3-1.2-3.1-1.7-5.35-5.25 8.65-0.2 16.55-3.15 9.6-3.5 15.05-10.05"/>
  </g>
  <path d="m32.05 39q0.4 1.55 4.7 8.1l4.95 7.7q-0.5-1-1.3-0.45t-1.15 2.6l-4.25-6.4q-4.35-6.3-7-8.5 0.3-0.6 1.9-1.9 1.7-1.4 2.15-1.15" fill="#281305"/>
  <path d="m68.55 326.75q-12.6 3.1-23.35 4.95l-8.2 1.25q3.75-1 18.6-8.15 16.15-7.8 19.15-10.85 1.4 1.95 2.5 4.95 1.2 3.45 1.6 7.4 8.1-5.5 13.05-11.15 4.6-5.35 10.9-16l3.05 2.8q1.25 1.45 1.85 2.95 8.85-1.25 23.6-4.45l-1.5 5.2q-15.95 2.5-21.15 2.45-1.35 6.2-2.9 10.6-1.55 4.3-2.8 5.7l-2-8.95q-7.4 12.6-21.55 24.8-6.2 7.05-12.15 9.55v-0.6l-0.45 0.25 0.45-0.4 1.3-22.3" fill="#281305"/>
  <g fill="#0f141b">
   <path d="m175.65 146.25q-0.35-0.3 0.3-1.75 0.6-1.45 0.95-1.1 5.95 5.2 14.25 9.95 0.25 1.95 1.45 4.15-9.75-5.4-16.95-11.25"/>
   <path d="m366.7 141.7q0.8 0.3 0.1 4.35-0.9 5.3-4.25 13.5-0.3 0.75-3.95 3.6 3.2-6.3 5.4-13.15 1.95-6.05 1.45-6.45-0.25-0.25-2.55 1.1-2.95 1.7-6.15 4.65-9.85 8.95-17.45 24.8l-0.7 0.6-7.05 1.95q1.05-1.5 0.4-2.5l5.55-1.5q5.5-13.6 16.55-23.65 4.2-3.85 7.95-5.9 3.45-1.95 4.7-1.4"/>
   <path d="m223.35 170.45-0.4-3.35q10.45 3.4 21.25 5.75v3.1q-10.7-2.25-20.85-5.5"/>
   <path d="m246.6 176.45 2.9-2.5q19 3.75 37.45 4.4 19.65 0.6 36.5-2.4l2.25 1.95q-18.15 3.65-39.1 3.15-19.85-0.45-40-4.6"/>
   <path d="m248 59.05 0.25 1.25v1.35q-6.6 2.85-11.55 7.1-0.4 0.3-0.85-0.85-0.5-1.1-0.15-1.45 5.35-4.55 12.3-7.4"/>
   <path d="m271.45 66.8q4.1-1.15 7.9-1.65 3.95-0.5 5.35 0.1 0.9 0.4 1.65 4.05 0.9 4.4 1.75 14.65 3.1 2.5 6.9 3.5l7.15 0.35q5.4-1 7.95-5.25-0.4-12.3-12.3-19.35-3.85-2.3-10.7-4-7.65-1.9-15.3-2.05-0.35 6.6-0.35 9.65m58.25 0.25q0.3 1.65-1.4 5.55-1.8 4.25-4.95 8.6-8.25 11.4-18.75 14.7-0.45 0.15-1.25-0.65-0.8-0.85-0.4-0.95 9.85-3.1 18-13.8 6.7-8.8 6.7-13-0.55-0.6-3.8-1.4-3.8-0.95-9.35-1.55-3.95-0.4-1.95-3.55l3.55-6.25q1.9-3.7 1.95-4.6v-0.1q0-4.1-11.65-22.15-11.45-17.8-12.45-17.05-0.35 0.1 3.05 18.7l1.95 12.7q0.85 6.55 0.45 6.75-0.25 0.15-3.05-1.85l-2.9-1.85q-0.4 0.15 0.85 5.95l2 8.2q15.45 7.6 15.45 23.3 0 1.6-2.95 3.85-3.1 2.35-6.35 2.95-5 0.95-10.9-1.6-5.15-2.15-5.2-3.4-0.2-3.3-1.15-9.5-1.1-6.85-1.85-8-1.05-0.3-3.85 0-3.25 0.35-6.9 1.4-1.95 0.6-2.6-0.25-0.45-0.55-0.4-2.35l0.25-22.15q-2.25-4.25-14.8-19-12.4-14.55-13.05-14.05-0.5 0.3 4.55 16.85l3.35 10.95q1.95 6.45 1.65 6.6-0.25 0.15-1.9-1.1l-2.15-1.65-2.15-1.45q-1.05-0.6-1.15-0.5-0.3 0.2 1.55 7.4l3.2 12.15q0.4 1.45 4.1 5.6 4.3 4.8 9.9 9.45l-0.6 1.1-0.65 0.9q-5.95-4.65-10.45-9.85-3.85-4.4-4.55-6.5-1.15-3.15-2.5-9.55-1.4-6.5-1.75-10.6-0.25-2.45 0.5-2.7 0.6-0.2 2.6 1.2l3.9 2.9q-1.95-5.5-5.9-18.55l-4.2-14.5q-0.45-2.1 0.45-2.1 1.05-0.05 4.05 2.6 5.75 5.1 16.3 17.7 10.25 12.2 11.85 15.6 0.45 0.95-0.05 12.1 4.9 0 11.35 1.1 5.75 1 10.05 2.4-1.95-10-2.15-13.5-0.15-2.3 0.4-2.6 0.55-0.35 2.5 0.9 1.6 1 3.7 3.1-5.75-31.35-6.2-34.85-0.5-3.9 0.5-4.2 0.95-0.3 3.8 2.65 5.7 5.85 15.1 21 9.55 15.45 9.55 19.35 0 1-2.6 5.6-2.45 4.4-4.4 7.05 7.9 0.85 11.6 1.8 4.25 1.05 4.55 2.55"/>
   <path d="m265.4 79.7q-0.15-1.8-0.8-3.65 6.6 5.4 13.8 9.85 8.05 5 14.65 7.4 0.35 0.1-0.35 0.95-0.7 0.8-1.1 0.65-11.45-4.2-26.2-15.2"/>
   <path d="m327.6 86.95-2.15 1.35q-2-4-4.15-6.95 0.75-1.15 1.6-1.95 2.4 3.1 4.7 7.55"/>
   <path d="m326.55 120.45q-6.05 9.2-13 14.05-0.35 0.25-0.2-1.15t0.35-1.6q3.85-2.95 8.7-9.5 5.55-7.4 8.1-13.95-7.7 6.2-17.15 9.45-9.55 3.25-19.05 2.8-9.45-0.45-18.6-3.4-10.45-3.4-17.6-9.2-0.35-0.25-0.8-1.7t-0.1-1.2q8.05 6.1 17.5 9.6 9.6 3.55 19.8 4.05 10.1 0.5 20.3-3.5 10-3.95 16.25-10.6 0.55-0.65 0.45-4.7v-3.15q1.75 6.05 1.3 10-0.6 5.2-6.25 13.7"/>
   <path d="m324.55 35.5q2.3 1.45 4.7 3.8 1.55 1.45 1.45 2.75t-1.65-0.15l-4.95-3.9q-2.6-1.7-3.8-1.85l-1.7 2q-1.2 1.8-1.9 3.45 0.15-0.45-0.85-1.25-0.85-0.7-1.1-0.45l1.8-3.05q2.15-3.1 3.7-3 1.8 0.1 4.3 1.65"/>
   <path d="m329.9 7.55q-0.6 0.2-0.25 16.15l0.4 17.6q-0.05 0.45-1.45-0.35-1.45-0.8-1.4-1.25l0.35-18.25q0-13.7 0.2-15.5 0.15-1.75 1.05-1.9 2.8-0.5 10.05 16.05 7.8 17.8 10.45 34.1l2.05-3.65q2.15-3.8 3.5-5.4 1.75-2.05 2.4-1.8 0.65 0.3 1.95 3.8 2.7 7.3 4.35 25.85 1.6 18.7-0.2 22.65-0.5 1.05-4.6-1.15l-4.2-2.45q-0.8 0.6-3.3 5.65-2.45 4.9-2.6 6.1l0.1 6.2 4.5-3.9q3.2-2.5 4.35-1.9 0.5 0.2-0.8 8.35-1.4 8.95-1.05 10.9 0.5 2.95-5.8 11.45-5.3 7.2-9.8 11.4-0.75 0.7-1.85 0.6l-2.2-0.5q-3.1-0.95-5.7-0.75 1.8 2.65 4.45 7.9 2.7 5.5 2.95 7.2 0.35 2.25-3.35 0.45-2.95-1.45-10.85-6.75-1.85-1.25-2.15-2.05-0.3-0.85 1.65-0.3 1.7 0.45 7.25 4.25l5.15 3.25q-0.4-1.85-3-6.4-2.35-4.15-4.3-6.8-0.95-1.3-0.7-2 0.25-0.65 1.6-0.9 3.35-0.6 7.65 0.75l1.85 0.4q4.35-4.1 9.5-11.35 5.45-7.65 5.15-9.85-0.3-2 1.2-9.6l1.6-7.8-5.2 4.45q-2.85 2.55-3.4 1.5-0.55-0.95-0.85-4.7l-0.2-3.7q0.15-1.45 3-7.05 3-5.9 4.4-6.8 0.85-0.55 3.9 1.35l3.85 2.25q1.8-4.15-0.5-24.85-2.25-20.4-4.25-22.3-0.7 0.05-3.25 4.45l-2.65 4.8q-1.35 2.35-2.2 1.9-0.85-0.4-1.35-3.35-2.3-13.4-9.6-31-6.6-15.85-7.85-15.45"/>
   <path d="m394.8 132.7q-6.25-2.8-10.1-6.9-11.45-12.15-18.25-16.7-9.6-6.5-18.7-5.35-0.45 0.05 0.2-1.25 0.6-1.35 0.85-1.35 9.9-1 19.1 5.4 6 4.15 18.8 17.65 6.15 6.55 20.25 10.45l0.65 2.25q-7.85-1.95-12.8-4.2"/>
   <path d="m431.8 142.95-0.25-0.95 0.2-0.95q4.35 1.25 7.4 2.6 3.45 1.5 6.65 3.65 15.85 10.75 28.3 28.75 13.85 20.05 17.5 41.1 2.1 12.15-0.4 24.05-2.5 11.7-8.5 18.7-0.3 0.4-0.4-1.4-0.1-1.75 0.25-2.35 5.05-7.95 6.65-17.75 1.6-9.75-0.3-20.85-3.5-20.4-17.1-40.4-12.3-18.15-27-28.1-5.1-3.45-13-6.1"/>
   <path d="m394.75 162.55q0.85-2.85 1.9-3.85t0.3 1.8q-2.65 9.85-1.05 15.3 1.65 5.55 10.2 15.4 6.45 7.35 8.95 11 4.9 7.25 7.25 15.65 0.1 0.3-0.85 1.6-0.9 1.25-1 0.85-2.1-8.6-6.85-16.25-3.15-5-8.8-11.45l-5.5-6q-2.95-3.3-4.35-5.95-3.65-7.1-0.2-18.1"/>
   <path d="m364.75 168.55q-0.45-0.05 0.45-1.65 0.95-1.6 1.2-1.55 19.8 3.3 28.95 10.9 0.4 0.35 0.4 1.85 0 1.55-0.35 1.2-9.05-8.7-30.65-10.75"/>
   <path d="m330.1 157.65q2.35 11.3 2.95 19.7 0.65 8.55-1 8.15-2.3-0.6-12.3-11.3-9.2-9.85-14.8-17.15 0.15 3.4-0.35 8.35-0.65 7.2-2.3 6.15-1-0.65-6.05-6.2l-5.3-5.95-8.45 6.5q-5.8 4.15-7.7 4.8-1.8 0.6-1.3-3.65 0.55-4.45 3.35-10.1l-29.25 19.6q-3.35 2.3-4.05 1.85-0.7-0.4-0.35-4.25 0.4-4.65 2.1-10.95 1.85-6.7 4.15-11.35-5.7 2.5-9.75 4.45-3.75 1.8-4.4 1.1-0.7-0.75 1.15-4.2 5.6-10.5 10.6-15.4l-9.3 2.2q-8.35 1.85-9.55 1.4-1.3-0.45-5.15-7.95-3.4-6.6-4.55-9.9-0.3-0.85-8-8.65l-7.9-8.2q-0.5-1.3 2.8-1.2 3.75 0.15 8.8 2.45l-0.9-3.45-0.75-2.2q-12-13.35-33.05-12.25-6.5 0.3-15.7 2.2l-11.5 2.2-10.2 0.2q-12.95-0.1-18.65 0.45-0.5 0.1-1.1-1.25t-0.1-1.4q3.1-0.35 9.35-0.15l10 0.25 11.25-0.35 12.5-2.65q9.1-1.95 15.65-2.2 20.2-0.85 32.5 12.85 0.95 1.05 2 4.05 1.3 3.65 1.15 6.55-0.05 0.85-2.95-0.4-4.3-1.85-6.9-2.3l7.05 7q6.35 6.5 6.8 7.7 0.7 2.1 4.15 8.35 3.3 6.15 4.4 7.5l13.4-2.3q10.6-1.85 9.05-0.35-3.65 3.5-8.6 10.35-4.8 6.55-5.7 9.1 3.65-2.35 10.2-5.05 7.7-3.15 5.25 0.15-3.2 4.4-5.85 15.4-1.3 5.55-2 10.25l32.6-22.1q2.5-1.55 3.7-1.45 1.1 0.1-0.05 1.45-1.65 1.95-3.6 6.8-1.85 4.65-1.85 6.55 0 0.2 3.65-2.4 4.6-3.3 10-7.85 1.35-1.1 1.95-0.95l1.95 1.65q7 9.2 8.55 10.2 0.4-1.15 0.4-15.25 0-1.55 0.6-1.95t1.45 0.85q4.65 6.6 14.25 17.85 10.05 11.8 12.65 13.35 0.4-1.9-1.15-11.65-1.45-9.3-2.95-15.25 2.9 0.95 3 1.6"/>
   <path d="m26.6 40.7q2.85-2.1 5.25-3.3l0.35 2.45q-3.15 1.65-4.45 2.6-0.35 0.25-0.95-0.6-0.55-0.9-0.2-1.15"/>
   <path d="m125.05 98.4q-16.3-24.6-32.3-39.85-16-15.2-30.9-20.25l0.25-1.25 0.2-1.25q15.55 4.4 30.05 17.95 14.95 14 32.75 41.35 1.75 2.7 1.75 4.35-0.05 1.65-1.8-1.05"/>
   <path d="m179.5 144.05q4.55 1.55 4.85 2.9l-4.25-0.15q-14.8-5.1-32.8-7.9-21.7-3.35-34.85-0.75l-2.95-0.2q-0.15-0.75 2.6-1.3 13.6-2.7 34.75 0.1 18.25 2.4 32.65 7.3"/>
   <path d="m18.95 100.65q-0.25-0.4 0.9-1.05t1.45-0.3q7.35 9.75 34.55 22.55 25.4 12 42.15 15.15 3.55 0.7 2.6 1.4t-4.5 0.05q-18.8-3.3-42.45-14.25-26.3-12.1-34.7-23.55"/>
   <path d="m122.75 136.45q1.6-0.5 1.9-0.3 3.3 2.45 8.25 8.55 4.95 6.15 6.55 9.9 1.9 4.5-5.3 3.1-9.7-2-23-7.85-15.15-6.65-19.35-12.15-0.25-0.35 2.1-0.25l2.75 0.5q5 5.15 18.45 11 6.35 2.7 14.5 5.15 7.5 2.2 7.95 1.8 0.3-0.6-2.1-3.85-2-2.75-5-6.2-6.15-7.15-9-8.7-0.3-0.2 1.3-0.7"/>
   <path d="m175.45 143.45 1.4 0.1q1.1 0.45 0.85 0.8-11.5 15.15-21.95 41.45-10.5 26.25-16.45 55.05-1.7 1.2-11.75 6.05-12.05 6.5-24.9 16.8l20.45-4.3 18.5-3.95q0.45-0.05-0.75 1.8t-1.75 1.95l-36.75 6.75q-5.5 0.9-2.35-2.7 4.55-5.1 16.65-13 12.6-8.2 20.65-10.95 1.8-16.55 13-46.65 12.6-34.1 25.15-49.2"/>
   <path d="m144.35 252.55q1.85-1.65 2.95-1.55 1.05 0.1-0.8 1.9-5.6 5.5-12.45 14.25-7.05 9-9.2 13.65 7.35-1.75 32.75-9.35l29.55-9q0.45-0.15-0.75 1.4l-1.55 1.7q-9.45 3.4-29.25 9.2l-28.6 8.05q-6 1.65-6.6 0.85t2.7-5.95q3.6-5.6 9.8-12.95 6.3-7.5 11.45-12.2"/>
   <path d="m174.6 267.2 6.95 3.15-0.9 2.05-7.7-3.45q-0.35-0.2 0.55-1 0.9-0.85 1.1-0.75"/>
   <path d="m351.35 278.4q0.65 1.25 1.65 2.25-34.6 14.3-77.85 13.25-43.35-1.05-84.5-17.35l2.2-1.65q40.05 15.15 81.25 16.1 41.3 0.9 77.25-12.6"/>
   <path d="m359.75 277.7-0.6-2.4 4.9-2.15q0.4-0.2 0.9 0.8 0.45 1.05 0.05 1.25l-5.25 2.5"/>
   <path d="m357.6 268.65q0.5-0.25 2.15 0.9 5.15 3.55 15.35 8.05 10.25 4.55 17.45 6.4-2.4-4.85-9.65-13.95-7.25-9.05-11.4-12.35-0.2-0.2 0.55-1.5 0.8-1.35 1.1-1.1 4.2 3.4 10.75 11.8 7 8.95 9.7 14.9 1.7 3.65 1.4 4.1-0.4 0.6-4.4-0.45-7.35-1.9-15.65-5.25-8.9-3.6-14.5-7.15 0.75 3.5 0.45 12.95-0.05 2.6-0.6 3-0.6 0.4-2.15-1.15l-6.05-6.35q-4-4.55-5.4-7.4-1.1-2.3-0.7-3.3 0.45-1.05 1.8 1.05l4.9 6.55 6.1 6.95q0.15-2.1-0.4-7.4l-1-7.6q-0.25-1.5 0.2-1.7"/>
   <path d="m360.1 172.35q-0.2-0.4 0.7-0.95l1.15-0.1q7.85 14.65 10.95 40.1 2.75 22.75 0.95 45.75-0.05 0.45-1.05 0.45-1.05 0-1-0.45 0.9-24.2-1.35-44.55-2.85-25.6-10.35-40.25"/>
   <path d="m360.3 173.55q-1.85 1.85-2.85 1.9t0.6-1.7l9-10.6q6.15-7.6 5.95-7.95-0.35-0.45-3 0.55-2.9 1.1-5.3 2.85-3.4 2.5-5.5 5.2-1.4 1.75-1.65 1-0.25-0.7 1.05-2.6 3.4-5 11.05-8 8.5-3.25 3.55 3.55-8.05 11.2-12.9 15.8"/>
   <path d="m327.25 87.25q-1.15 0-5.6 12-4.6 12.25-4.7 16.45-0.05 0.45-1 0.85l-0.95-0.1q0.15-5.7 4.95-18.25 4.95-12.95 7.55-12.95 1.4 0 3.15 6.45 2 7.4 1.4 15.35-0.05 0.75-0.65 1.45-0.6 0.65-0.55-0.7 0.4-5.9-1.35-13.65-1.5-6.9-2.25-6.9"/>
   <path d="m138.8 278.3q0.15-0.25 1.65-0.4 1.5-0.2 1.25 0.2-12 18.95-12 49.45-0.05 12.05 1.95 22.9 1.8 10.1 4.6 15.2 0.55 1 1.15 1.35l1.3 0.35q-0.6 2.2-0.8 2.2-2.3-0.4-3.65-2.85-3.15-5.75-5.1-16.15-2.05-10.95-2-23.15 0.05-29.95 11.65-49.1"/>
   <path d="m331.45 368.85q6.3 2.6 11.8 4.45 0.5 0.15 1.1 1.55 0.6 1.35 0.15 1.25-19-6-24.8-9.15-1.4-0.75-2.2-3.15l-1.05-4.5q-2.45-11.2-10.15-23.35-8.2-13-15.45-15.15l-28.55 0.95q-16.9-0.85-28.5-4-17.1 7.35-34.9 32.05-4.45 6.15-10.8 16.25-4.5 7.1-5.2 7.3-6.5 1.65-11.05 1.65-0.5 0-0.4-1.45 0.1-1.5 0.55-1.5 4.65 0 9.35-1.4l7.7-11.3q6.8-10.2 12.05-17 17.65-22.75 32.35-26.85 7.55 2.05 27.1 3 19.95 0.95 31.4-0.35 7.5 2.05 16.3 16.1 7.9 12.55 10.3 22.95l1.15 4.6q0.65 2 1.45 2.45 3.5 1.85 10.3 4.6"/>
   <path d="m365.35 274.55q1.35 0.05 1.6 0.4 14.15 20.6 15.8 38.9 1.45 16.3-6.95 34.5-2.25 4.9-3.25 8.05-1.25 4.05-1.1 7.05 0.05 0.45-1.1 0.55-1.1 0.05-1.15-0.4-0.2-3.25 1.2-7.65 0.8-2.5 3.3-8.5 6.95-16.35 6.8-28.8-0.25-20.45-16.2-43.75-0.3-0.35 1.05-0.35"/>
   <path d="m159.15 363.5c-2.1333 0.66667-5.6333 5.3-10.5 13.9-4.8 8.4333-6.8 12.933-6 13.5 13.4-3.6 22.533-9.0333 27.4-16.3 0.7-1.0667 0.95-2.4333 0.75-4.1s-0.76667-3.1167-1.7-4.35c-1.1-1.5-2.5913-2.4782-4.25-2.95-1.83-0.52048-3.6039-0.57336-5.7 0.3m2.6 21.65c-5.4667 3.5333-11.317 6-17.55 7.4-2.3667 0.53333-3.65 0.4-3.85-0.4-0.73333-2.7 1.5833-8.3167 6.95-16.85 5.2667-8.3667 9.15-12.95 11.65-13.75 5.5333-1.7333 9.75-0.65 12.65 3.25 1.2333 1.6333 1.9 3.4667 2 5.5 0.1 2.0667-0.41667 3.9333-1.55 5.6-2.1667 3.1333-5.6 6.2167-10.3 9.25"/>
   <path d="m141.95 361.95q3.25-3.15 7.3-2.6 4.4 0.55 6.8 5.3 0.15 0.3-0.95 1.25-1.15 0.9-1.3 0.6-1.9-3.8-4.65-4.65-2.6-0.8-5.15 1.25-5.35 4.35-8.75 15.6-1.2 4.05-1.7 7.55-0.45 3.25 0 3.5 0.35 0.3 3.05-0.6 2.8-0.95 5.05-2.2l-0.45 2.75q-3.9 1.55-7.4 2.35-2.05 0.5-2.35-3-0.2-3.25 1.15-8.55 3.25-12.75 9.35-18.55"/>
   <path d="m345.85 375.2q4.8 2.15 16.5 6.05 11.55 3.8 11.95 3.45 0.85-0.85-5.8-9.1-6.95-8.65-11.2-10-2.6-0.85-7.3 1.45-4.75 2.25-5.75 4.9-0.8 2.1 1.6 3.25m-4-3.95q1.35-3.5 6.8-6.4 5.75-3.05 9.35-1.4 7 3.15 13.5 12.7 5.9 8.7 4.6 10.25-0.65 0.8-8.8-1.35-9.95-2.65-22.55-8.05-1.95-0.85-2.75-2.7-0.65-1.65-0.15-3.05"/>
   <path d="m362.15 367.05q-0.05 0.5-1.05-0.4-1-0.85-0.85-1.25 1.1-2.75 5.2-3.75 4.95-1.15 8.75 3.3 4.8 5.7 8.3 13.2 3.35 7.15 2.35 8.9-0.35 0.65-2.65 0.35-2.85-0.3-7-2.05-0.4-0.2-0.45-1.25 0-1.05 0.45-0.85l5.1 1.75 3.2 0.6q0.5-0.45-2.55-6.5-3.55-7.1-8.15-12.55-2.9-3.4-6.9-2.4-3.65 0.85-3.75 2.9"/>
   <path d="m207.95 291.5q-1.9-0.95-0.25-0.9 1.65 0 3.6 0.95 3.15 1.5 7.45 6.05 4.15 4.35 5.25 7 0.6 1.45-0.05 2.25t-1.25-0.65q-0.95-2.3-6.4-7.75-5.5-5.6-8.35-6.95"/>
   <path d="m329.8 296.3q2.3-2.15 2.55-1.55t-1.95 2.8q-3.75 3.75-10.1 8.1-6.7 4.6-11.3 6.3-2.8 1.05-3.6 0.7-0.75-0.4 1.9-1.6 3.7-1.65 11.4-6.7 7.95-5.15 11.1-8.05"/>
   <path d="m92.25 283.75q3.45-6.15 6.65-10.55 3-4.2 4-4.5 1.2-0.4 2.7 9.1l2.4 15.4 13.15-2.25q10.35-1.95 13-3.05 0.45-0.15 0.85 0.9t0 1.25q-3.1 1.2-15.35 3.4l-12.85 2q-0.95 0-1.1-0.9l-1.7-10.45-1.85-11.3q-1.3 1.6-5.55 9.45-3.15 5.85-4.3 5.25l-11.45-10.4q-12.15-10.7-18.25-13.4 1.9 6.6 8.1 19.8 0.6 1.15-9.15 2.05l-25.05 2.75q3.95 1.9 8.05 4.65 4.6 3.1 4.3 4-0.4 1.3-10.25 9.85 14.7 1.2 13.75 3.45-1 2.5-13.3 21.6 7.5-0.85 29.8-6.35 1.05-0.25 0.5 5.7l-1.45 16.9q7.8-4.45 18.6-16.05 9.35-10.15 14.55-18.35 0.65-1 1.4 1.85 0.7 2.55 1.05 6.5 1.3-2.3 2.75-8.5l1.25-5.7q0.15-0.85 1.05-0.85 7.25-0.4 21.7-2.85 0.45-0.05 0.1 1.5-0.35 1.6-0.75 1.65l-20.05 1.85q-0.95 5.15-2.8 10.45-2.25 6.35-4.05 6.8-0.8 0.2-1.35-3.15l-0.6-5.2q-7.95 11.75-16.55 20.25-6.8 6.75-12.75 10.35-4.85 2.95-5.45 2.85-0.95-0.2-0.5-4.85l1.75-18.45q-5.4 1.75-13.3 3.35l-13.5 2.25-4.35-0.1q-0.5-0.55 1.55-3.65l6.45-10.35 5.7-9.25q-2.6-0.8-11.05-1.4-3.85-0.25-4.1-1.05-0.25-0.75 2.55-3.65 1.95-2 8.05-7.45-0.75-0.65-7.7-5-5.6-3.5-5.5-4.45 0.45-1.65 35.65-4.85-3.95-8.35-6.85-17.4-1.15-4.7-0.65-5.25 0.55-0.65 4.4 1.75 6.2 3.85 14.75 10.75 7.85 6.35 12.9 11.3"/>
   <path d="m200.45 185.5q-5.8-10.95-16.65-14.5-11.5-3.7-23.45 3l-0.5-3q12.1-6.75 24.15-2.85 11.9 3.85 18.45 16.3 3.9 7.35 4.3 16.1 0.4 8.5-2.45 17.55-5.25 16.6-18.45 25.8-13.4 9.3-27 5.15-6.85-2.1-12.25-7.35-5.65-5.5-7.25-12.3 0-0.15 1.05-0.45 1.1-0.3 1.05-0.45 2.7 6.6 7.45 11.2 4.75 4.55 10.9 6.45 12.7 3.85 24.65-4.35 11.8-8.15 16.75-23.8 2.85-9 2.8-16.95 0-8.8-3.55-15.55"/>
   <path d="m163.05 194.7q1.45-2.25 4-3.3l5.65-0.25q2.95 0.95 4.55 4.3 1.55 3.05 1.65 7.55 0.15 6.55-3.25 12.4-3.75 6.5-9.8 8.05-7.55 1.9-13.9-1.7-6.3-3.65-7.05-10.15-0.05-0.45 0.85-1.6 0.95-1.2 0.95-0.7 0.3 5.6 6.25 9.3 6.1 3.8 12.7 2.1 5.1-1.3 8.25-6.8 2.9-5.05 2.75-10.85-0.05-3.55-1.55-6.15-1.45-2.55-3.8-3.3-2-0.65-4.1 0.35-2.1 0.95-3.95 3.35-1.45 1.95-1.5 0.75t1.3-3.35"/>
   <path d="m349.95 258.1q-7.7 11.7-21.5 13.35-19.15 2.35-34.2-5.35-14.65-7.5-25.05-24.2-2.8-4.55-5.4-8.05 3.9 12.85-2.45 23.4-7.05 11.6-22.4 10.9-18.15-0.85-29.4-16-11.45-15.35-7.25-34.2 3-13.55 14.1-22.75 11.3-9.45 25-9.05 13.65 0.45 24.95 8.05 10.75 7.2 19 20.6 4.1 6.7 7.9 12-2.5-8.4 0.15-16.95 2.85-9.25 10.7-14.55 7.3-4.9 15.9-6 9-1.15 16.7 2.35 18.5 8.4 20 37.4 0.9 17.45-6.75 29.05m-17.85-15.55q4.35-4.4 4.15-10.6-0.2-6.25-3.85-10.85-3.7-4.55-8.55-4.55-4.1 0-7.4 2.4-3.25 2.4-3.75 5.8-0.35 2.6-0.9 2-0.55-0.55-0.35-3.2 0.25-3.45 4.15-6.6 4.05-3.35 8.8-3.35 5.85 0 10.15 5.25t4.5 12.55q0.25 7.3-4.5 12.8-4.85 5.7-12.3 6.2-10.2 0.65-20.25-9.35-7.1-7.1-18.55-25-8.5-13.25-18.8-19.9-10.2-6.55-22.7-6.95-13.1-0.4-23.7 7.7t-13.4 20.65q-4.05 18.25 7.3 33.3 5.05 6.7 12.1 10.7 7.1 4.1 14.7 4.45 7.3 0.35 12.9-3.1 5.15-3.2 8-9 4.25-8.45 2.4-17.15-1.75-8.4-8.5-13.9-10.85-8.95-20.8-3.25-3.15 1.8-4.75 5.7-1.55 3.65-1.25 8 0.65 10.05 8.4 13.2 2.85 1.15 1.9 1.7-1 0.5-3.85-0.65-9.55-3.9-9.7-15.05-0.1-4.75 1.95-8.85 2.1-4.3 5.75-6.4 18.6-10.65 39.75 23.45 9.85 15.9 24.4 23.25t31.95 5.25q13.15-1.55 20.45-12.45 7.35-10.9 6.5-27.6-1.25-24.8-17.4-33.85-7.15-4-15.45-3.4-8.4 0.6-16.1 5.75-9.3 6.3-10.35 19.1-0.95 11.65 4.7 18.2 5.5 6.4 10.3 9.4 5.5 3.4 11.05 3.05 6.6-0.4 10.9-4.85"/>
   <path d="m367.1 189.15q0.45-0.2 0.9 1.1t0 1.5q-6.8 3-10 19.15t0.3 30.05q1.65 6.65 4.6 10.4 3.9 5 9.7 4.55 0.45-0.05 0.45 0.8 0 0.8-0.45 0.95-5.55 1.5-10-3.05-4.3-4.35-6.5-13.1-3.55-14.1-0.3-31.1 3.4-17.75 11.3-21.25"/>
   <path d="m128.4 320.25q0.7-1.35 1.05-1l5.15 6.05 6.15 7.8q1.1-3.6 4-8.55 2.75-4.75 6.6-9.75 5.15-6.8 11-12.05 4.9-4.4 5.8-4.2t3.25 5.65q2.8 6.45 5.45 15.75 4 14.35 4.7 21.6 6.7-4.2 11.4-6.1 3.7-1.45 8-2.2l4.7-0.15q0.25 0.2-0.9 4.4l-1.4 4.85q-0.2 0.6-2.65 0.85l2.55-7.95q-5.2 0.45-10.9 2.95-4.15 1.8-9.9 5.45l-2.4 1.25q-0.8 0.05-0.95-1.7-0.5-7.65-4.35-21.9-4-15.05-7.15-19.4-7.55 4.8-15.6 16.05-7.4 10.35-9.15 17.1-0.55 2.25-1.1 2.5-0.6 0.3-1.9-1.45l-6.25-7.8-5.55-6.4q-0.35-0.3 0.35-1.65"/>
   <path d="m153.3 304.3q-5.5 5.9-10 13.7l-3.6 6.35-4.35-5.95q-4.45-6.4-6.4-7.75-0.35-0.3 0.4-1.7 0.75-1.45 1.05-1.1l4.05 5.3q3.15 4.5 5 7.75 3.1-8.5 13.35-19.85 9.85-10.9 16.75-14.2 0.65-0.3 1.25 0.2 6.55 6.35 10.6 21.2 3.25 11.9 3.8 23.75 4.75-3.05 12.1-5.25 7.9-2.35 12.65-1.65 0.75 0.1 0.5 3.65-0.25 3.6-1.35 6.8l-2.05-0.1 0.95-4.05q0.4-2.7 0.15-4.1-5.1-0.45-12.6 1.95-3.3 1.1-7.7 3.35-3.45 1.75-3.7 1.6-0.2-0.05-1.35-8.05-1.45-9.9-3.3-16.35-3.75-13.4-9.65-19.6-6.6 3.5-16.55 14.1"/>
   <path d="m369.9 298.95q1.55 0 5.1 4.55 3.65 4.65 6.25 10 0.5 1.1 0.3 3.45-0.25 2.5-0.45 1.8-0.7-3.1-5.2-10.2-4.5-7.05-5.95-7.35-1.45 0.35-6.4 5.5-4.8 5.05-10.3 11.95-3.3 4.1-8.75 12.65l-4.9 7.4q-0.2 0.05-3.25-2.7l-6.65-6-6.2-5.25q-2.85-2.3-3-2.3-0.45 0-2.6 2.15-2.25 2.2-3.9 4.35-3.1 3.95-5.1 7.8-0.2 0.4-0.8-0.75t-0.45-1.4q1.95-3.95 7.15-9.45 4.6-4.95 5.45-5.05 0.6-0.1 7.95 5.9 6.7 5.55 10.65 9.2 4.95-9.7 16.5-23.1 11.4-13.15 14.55-13.15"/>
   <path d="m370 308.25q1.2 0 4.55 5.65 3.6 6.1 7.2 14.8 0.2 0.4-0.7 1.35-0.95 0.95-1.05 0.5-0.9-3.45-4.5-10.6-3.55-7-5.5-9.25-6.45 5.2-15.2 18.3-2.85 4.25-8.3 13.9-4.35 7.75-4.8 7.85-0.6 0.15-3.5-2.15-3.35-2.65-7.45-6.8l-9.2-9.75q-1.9 1.8-4.7 7.05l-3.35 6.7q0.2-0.4-0.8-1.8-0.95-1.35-1.15-0.95l1.2-2.05 2.95-4.65q1.85-2.8 3.5-4.7 1.55-1.85 2.1-1.85t8.6 8.3q5.7 5.8 11 9.7 1.45-3.05 4.8-8.65 3.7-6.2 7.8-12.2 4.6-6.7 10-12.8 5.25-5.9 6.5-5.9"/>
   <path d="m434.45 215.9q-4.25-1.95-8.05 0-4.55 2.35-6.25 9.3-1.6 6.35 0.15 11.05 1.9 5 10.15 10.5 7.85 5.2 9.35 3.95 1.5-1.3 1.8-12.3 0.3-11.2-1.25-15.85t-5.9-6.65m0.35-2.55q6 1.9 7.95 7.75 1.55 4.6 1.5 16.55-0.1 12.7-2.5 14.75-2.95 2.5-12.4-3.75-9.2-6.15-11.05-11.2-2.2-5.9-0.2-13.45 2.05-7.65 6.6-10 4.6-2.4 10.1-0.65"/>
   <path d="m478.4 241.7q-0.1-7.65-4.3-12.05-3.15-3.25-7.6-3.85-4.2-0.6-6 1.55-2.45 2.95-9.7 13.1l-8.4 12.1q-0.75 1.25 2.85 2.95 3.75 1.75 9 2.55 14.25 2.1 20.75-5.1 3.5-3.95 3.4-11.25m-19.25-16.65q2.45-2.9 7.45-2.05 5.1 0.9 9.15 5.1 4.9 5.05 4.95 13.85 0.1 8.4-4 12.9-6.85 7.6-21.9 5.9-6.15-0.75-10.35-2.95-4.35-2.3-4.35-5.15 0-1.55 8.7-13.75 7.75-10.85 10.35-13.85"/>
   <path d="m479 243.3q-0.2-0.4 0.65-2.2 0.9-1.75 1.1-1.35 4.65 9.05 3.05 17.55-1.75 9.2-10.2 12-9.15 3.05-17.1-0.15t-10.8-11.05q-0.15-0.45 0.9-0.85l1.2 0.05q2.6 7.05 9.3 9.7 6.7 2.6 15.05-0.15 6.65-2.25 8.55-9.1 1.8-6.65-1.7-14.45"/>
   <path d="m441.65 179.85q12.65-1.2 24.2 4.35 11.35 5.4 19.9 16.5 0.55 0.7 0.65 2.45t-0.2 1.3q-16.9-24.65-43.45-22.15-23 2.2-25.7 23.85-0.05 0.45-0.9-0.3t-0.8-1.15q3.8-22.75 26.3-24.85"/>
   <path d="m443.45 189.8q-9.8 0.95-16 7.55-6.25 6.75-6.7 17.1-0.05 0.5-1-0.6-1-1.15-0.9-1.85 1.35-10.3 7.7-17 6.5-6.8 16.2-7.75 14.1-1.3 27.5 7 13.35 8.25 20.1 22.35 0.35 0.75 0 2.2-0.4 1.5-0.6 1-5.85-14.6-19-23-13-8.3-27.3-7"/>
   <path d="m374.25 114.75q-0.15-0.45 1.25 0.2t1.55 1.2q3.15 11 5.25 28.15 2.2 18.25 1 26.65-0.05 0.4-1.15-0.2l-1.05-0.95q1.05-9.3-1.4-27.85-2.3-17.8-5.45-27.2"/>
   <path d="m384.25 124.35q-0.15-0.45 1.35 0.35 1.5 0.85 1.75 1.55 2.95 9.5 4.75 28.3 1.55 16.6 0.95 21.65-0.05 0.45-0.85-0.2-0.85-0.65-0.85-1.15 0.15-8.2-1.8-24.4-2.3-18.75-5.3-26.1"/>
   <path d="m60.5 37.6q-2.3-4.8-9.55-7.05-6.95-2.2-12.75-0.5-5.7 1.65-5.15 6.05 0.8 6.75 8.05 15.85 6.95 8.7 10.7 8.95 3.8 0.25 7.3-9.45 3.45-9.65 1.4-13.85m-8.3-9.35q8.5 2.45 11.2 8 0.95 2 0.4 6.6-0.55 4.55-2.25 9.2-4.25 11.8-10.1 11.4-4.65-0.25-12.35-9.75-7.9-9.75-8.75-17.05-0.35-2.95 1.65-5.35 1.95-2.4 5.55-3.45 6.65-1.9 14.65 0.4"/>
   <path d="m403.8 125.5q-2.1-9.2-2-16 0.1-7.3 2.8-7.55 6.9-0.7 17.8 17.6 10.5 17.55 12.55 30.85 0.4 2.65-0.25 3.65-0.7 1-1.1-1.65-2-13.25-12.45-30.7-10.4-17.45-15.95-16.95-1.5 0.15-1.1 6.8 0.4 6.45 2.25 14.55 4.9 21.1 11.5 21.65 2.6 0.25 1.9 0.95-0.65 0.7-3.25 0.45-3.7-0.3-7.35-7.65-3.25-6.45-5.35-16"/>
   <path d="m23.6 40.95q-5.55-2.7-11.6-0.55-5.8 2.05-8.35 7-2.15 4.3-1.25 9 1.15 5.6 6.7 9.65 4.45 3.25 17.55 3.25 12.45 0 14.15-2.05 1.65-2.35-4-12.2-6.1-10.65-13.2-14.1m-22.15 5.2q3.25-6.4 10.3-8.55 6.7-2.05 13.05 0.7 6.55 2.85 13.35 14.55 6.7 11.65 4.3 15.6-1.95 3.3-15.7 3.55-14 0.3-19.2-3.5-5.8-4.25-7.2-11.55-1.2-6.25 1.1-10.8"/>
   <path d="m31.35 92.2q7.85-6 7.75-8.65-0.05-3.45-9.85-7.95-9.7-4.45-14.95-3.6-8.5 1.4-9.6 9.65-1 7.5 3.95 13.35 4.35 5.15 10.1 4.05 4.8-0.9 12.6-6.85m-17.4-22.45q5.6-0.9 16.3 4 11.1 5.1 11.35 9.7 0.2 3.5-9 10.7-8.9 6.95-13.7 7.85-4.85 0.95-9.55-2.55-4.95-3.65-6.75-10.15-1.9-6.9 0.9-12.35 3.05-6 10.45-7.2"/>
   <path d="m82.65 47.15q4.75 10.75 3.7 22.7-1.1 11.95-7.75 22.35-6.8 10.65-17.45 16.6-10.65 5.9-23.2 6.05-0.5 0-1.45-1.25-1-1.3-0.5-1.3 12.25-0.15 23.1-5.65 11.25-5.75 17.6-15.7 6.25-9.7 6.9-22.2 0.6-11.95-4.05-22.4l1.35-0.05q1.55 0.45 1.75 0.85"/>
   <path d="m91.35 56.9q-0.05-0.45 1.05-0.65 1.15-0.2 1.2 0.3 4.2 24.35-8.2 42.9-12.45 18.55-35.35 22-0.45 0.1-1.15-1.25-0.75-1.3-0.3-1.4 22.2-3.35 34.5-21.1 12.25-17.8 8.25-40.8"/>
   <path d="m143.6 93.3 1.75-0.2q1.6 0.05 1.3 0.4-3.25 4.05-8.3 15.8-5 11.6-5 14.85 0 2.4 2.75 6.85 2.75 4.4 4.55 5.2 0.5 0.3-1.1 0.55-1.65 0.25-2.2-0.3-2.35-2.5-4.3-6.15-2-3.85-2-6.15 0-3.5 4.5-14.65 4.55-11.4 8.05-16.2"/>
   <path d="m153.3 92.6q0.25-0.4 1.15 0.35t0.6 1.1q-3.2 3.9-7.35 16-3.95 11.3-3.95 14.75 0 2.25 3.8 7.35 3.6 4.9 5.55 5.85l-1.8 0.2q-2.3-0.1-2.75-0.55-2.6-2.55-5-6.45-2.6-4.3-2.6-6.7 0-3.8 4.3-15.35 4.55-12.2 8.05-16.55"/>
   <path d="m305.55 98.15q-3.25-4.4-6.95-4.65-4.85-0.4-9.95 4.05-5.25 4.5-5.35 9.6-0.05 2.65 3.65 4.4 3.4 1.65 8.35 1.95 4.95 0.25 8.55-1 4.05-1.4 4.45-4.2 0.85-5.35-2.75-10.15m-7.45-6.2q5.05 0.4 9.05 5.6 4.1 5.4 3.2 11.25-0.55 3.5-5.25 5.25-4.2 1.55-10 1.2-5.75-0.35-9.7-2.4-4.35-2.2-4.3-5.55 0.1-5.7 5.9-10.75 5.65-5 11.1-4.6"/>
   <path d="m264.6 91.2q-0.2-0.4 0.3-1.35 0.5-1 0.7-0.6 2.15 5.8 8.45 5.9 6.1 0.15 10.55-5.05 0.35-0.35 1.05 0.3 0.7 0.7 0.35 1.05-5.5 5.6-12.35 5.25-6.45-0.4-9.05-5.5"/>
   <path d="m318 84.95q-0.1-0.45 0.8-0.7 0.95-0.3 1.05 0.2 2 8.35-2.15 13.5-3.9 4.8-9.1 3.1-0.3-0.1-0.7-1.1-0.35-1 0.05-0.85 4.95 2.3 8.35-2.15 3.5-4.55 1.7-12"/>
   <path d="m268.85 86.25q-0.55-2.65 0.9-4.7l1.1 1.15q-0.95 1.7-0.7 3.3 0.35 1.75 2.15 2.9 1.4 0.85 3.05 0.4t2.85-1.95q1.45 0.7 1.6 0.55-1.55 2.2-3.9 2.85-2.4 0.65-4.4-0.6-2.1-1.25-2.65-3.9"/>
   <path d="m316 88.15q0 4.1-1.25 6.4-1.25 2.25-3.55 2.3-3 0.05-4.3-3.8l1.45-0.4q1.05 3 2.8 2.9 1.35-0.05 2.25-1.65 0.8-1.6 1-4.4l1.6-1.35"/>
   <path d="m187.15 261.95q1.9-1.9 2.95-1.9t-0.75 1.8q-3 3-7.1 9.35-3.45 5.4-5.45 9.55 2.85-1 12.85-5.7l10.25-4.85q2.65-1.05 1.9 0.4t-3.4 2.5l-9.25 4.55q-9.3 4.55-13.4 6-2.05 0.75-2.25-0.2-0.15-0.8 1-3.25 1.85-4 5.5-9.3 3.85-5.65 7.15-8.95"/>
   <path d="m186.95 140.65q1.2-2.3 7.1 3.3 5.85 5.5 11.65 14.2 0.25 0.4 0.3 2.4 0.1 2-0.15 1.65-5.9-8.85-11.6-14.95-4.85-5.1-5.5-4.55-1.05 0.55 1.55 7.9 2.9 7.95 6.95 10.85 1.8 1.3 0.5 1.45t-3-1.35q-3.7-3.1-6.45-10.65-2.75-7.45-1.35-10.25"/>
   <path d="m203.45 130.25q3.55 2.7 7.05 7.1 10.1 12.55 13.1 30.3 0.65 3.95-0.1 4.6-0.75 0.6-1.7-3.25-3.65-15.5-12.35-28.15-2.95-4.3-5.85-7.25-2.4-2.5-2.8-2.3-0.4 0.15-0.6 2.6-0.2 2.9 0.3 6.65 1.35 10.85 7.45 21.9 1.7 3.1 0.45 2.85-1.3-0.25-3.1-3.55-7.45-13.5-7.65-24.5-0.05-3.7 0.75-6.5 0.6-2.2 1.2-2.45 0.8-0.35 3.85 1.95"/>
   <path d="m219.65 42.5q-5.7-5.9-7.35-5.15-0.7 0.35-1.15 3.75-0.4 2.7-1.45 3.3-1.05 0.55-2.15-1.1-6.6-10-12.95-18.8-4.65-6.45-10.7-13.6-5.95-7-6.55-6.75l3.65 11.95q3.75 12.1 2.45 13.6-1 1.25-3.8 2-5.25 1.5-4.2 7.65 0.7 3.9 4.65 11.45 3.25 6.2 2.55 7.1-0.6 0.8-6.45-0.95-5.55-1.6-6.45 0-1.2 2.25 4.35 11.8l2.2 3.95q0.75 1.65 0.05 1.95-1.85 0.85-2.85 2.45-1.25 1.9 0.6 2.95 0.8 0.45 0.75 1.55l-0.55 2.45q-1.25 4.1-0.35 4.85 0.45 0.35-1.45 0.65-1.85 0.3-1.9-0.5-0.05-1.6 0.95-4.55l1-2.85q-2-1.5-1.85-4 0.2-2.75 3.35-4.3-3-5-5-9.9-2.35-5.9-1.45-7.55 0.9-1.55 3.7-1.65 2.4-0.1 5.55 0.8l3.55 0.9-2-4.25q-5.05-9.55-5.4-14.15-0.5-6.15 6-8 1.95-0.55 2.4-1-0.1-3.15-2.2-10.5l-3.35-11.6q-1.5-5.7-0.9-6.3 0.65-0.8 5.25 3.3 6.3 5.6 17.6 21.55 3.85 5.4 11.3 16.7l0.5-3.45q0.65-3.45 1.7-3.95 2.85-1.4 10.1 6.55 6.45 7.1 10.3 14.3 3.95 7.25 6.15 15.35 2.7 10-0.3 12.55-1.4 1.2-3.1 0.3l-2.25-1.8q-1.1-1-1.55-1-1.25 1.45 0.05 5.4t3.65 5.7l1.15 0.6 1.25-0.7q2.9-2.1 5.25-2.95 5.75-2.15 10.8 6.75 2.8 4.85 6.45 14.05l4.4 8.7q3.95 7.05 8.35 11-0.55-5.1 0.1-8.9 0.7-3.85 2.2-3.85 2.5 0 7.8 7.75 5.3 7.8 9.5 17.6 6.55-8.95 13.2-14.55 6.05-5.1 8.2-4.35 1.7 0.6 2 4.6 0.3 4.15-1.25 7.9-0.8 2-1.65 2.3-0.85 0.25-0.2-1.8 1.1-3.45 1.25-7.4 0.1-3.85-0.75-4.15-1.55-0.3-7.25 5.15-6.1 5.85-11.55 13.35-1.6 2.2-2.35 1.95-0.6-0.2-1.65-2.7-3.75-8.8-9-16.5-4.65-6.75-6.15-7-0.7 0.3-0.7 4.25 0 4.2 0.85 8.9 0.55 2.8-1.4 1.75-1.8-1-4.95-4.75-7.5-9-11.45-18.6-3.9-9.4-5.6-12.35-4.7-8.15-8.9-6.55-2.2 0.8-4.25 2.25-1.4 1-2.25 1.1-1.15 0.1-2.75-1.05-3.15-2.25-4.45-6.4-1.1-3.5-0.45-6.3 0.5-2.2 2-2.45 1.65-0.25 3.55 1.55l1.15 0.9 0.8-0.35q1.75-1.5-0.1-9.15-1.85-7.7-5.8-15-4.05-7.45-10.1-13.75"/>
   <path d="m255.5 85.25q3.15-5.7 5.85-9.45 2-2.8 3-2.5 1.05 0.3 1.25 4.15 0.35 6.45-0.45 18.45-0.75 10.5-1.45 14.4-0.15 0.6-2.25-0.95 1.2-3.55 2-18.75 0.8-14.7 0.3-14.9-0.55-0.3-4.65 7.1-4.3 7.85-6.35 13.4-0.15 0.45-1-0.3-0.9-0.8-0.75-1.2 1.35-3.65 4.5-9.45"/>
  </g>
 </g>
</svg>
