<?xml version="1.0" encoding="UTF-8"?>
<svg version="1.1" viewBox="0 0 163.42 301.52" xmlns="http://www.w3.org/2000/svg">
 <g transform="translate(-.0065371 -.044595)">
  <path d="m149.9 178.65-15.15-5.5-2.25-8.15 12.45-10.4q8.7-7.3 8.9-7.25 0.4 0.15-1.4 7.7l-1.8 7.45 3.5-1.15q3-0.95 3.2-0.85 0.3 0.25-7.45 18.15" fill="#fff"/>
  <path d="m99.6 91.25q-5.6 13.75-5.35 13.75l5.3-0.9 5.15-0.5q0.25 0.3-7.5 11.9l-7.85 11.55-1.4-14.4q-1.6-16.2-10.35-24.55-5.05-4.75-13.6-7.3-8.6-2.6-17.1 0.55-2.5 0.9-5.05 2.35l-2 1.15q-0.25-0.1-0.8-10.2l-0.7-9.9q-0.2 0.05-11.3 6.55-10.7 6.2-11 5.95-0.3-0.35 11.85-38.45t12.5-38.05q0.2 0.05 2.85 25.15 2.65 25.15 2.8 25.2l5.55-5.1q5.35-5.1 5.6-4.9 0.25 0.15 0.35 12.75 0.05 12.4 0.35 12.25l16.05-9.3q15.1-8.7 15.55-8.45 0.35 0.25 0.1 16.35-0.2 16 0.1 15.95l8.3-2.15q6.65-1.8 6.95-1.5 0.25 0.3-5.35 14.25" fill="#fff"/>
  <path d="m39.85 84.85 2-1.15q2.55-1.45 5.05-2.35 8.5-3.15 17.1-0.55 8.55 2.55 13.6 7.3 8.75 8.35 10.35 24.55 4.65 48 4.65 51.95l12.4-0.4q13.55-0.35 19.2-0.25 13.85 0.35 22.55 10.35 8.4 9.6 8.6 23.95 0.2 17.95-2.75 28.4 0.55 1.95 2.4 5.5l3.5 6.1q2.1 3.3 2.95 8 1.2 6.35 0.45 16.1-0.8 9.95-2.35 19.6-1.35 8.45-2.35 11.25-0.8 2.2-4.15 3.15-3.3 0.9-5.55-0.4-1.35-0.75-0.8-3.95 0.45-7.9-0.5-20.95-0.95-12.25-2.3-19.1-0.8-4-2.7-8.15l-3.05-5.8q-5.35-1.75-10.7-7.2-5.55-5.7-8.65-12.95-1.3 3.25-2.75 5.7-0.75 1.25-0.85 1.95-0.1 0.65 0.15 2.55 1.5 11.5 0.3 17-1.15 5.5-6.8 18.4-6.1 13.75-10.15 18.8-1.05 1.35-5 1.25-4.05-0.1-4.9-1.6-0.75-1.35 0.55-4.25l3.3-10.6 4.3-15.85q2.8-12.45 3.3-17.3-4.45-2.7-8.3-9.45-2.65-4.55-3.4-7.35l-1.1-0.1-11.75 19.75q-1.25 2.1-1.1 4.55 1.05 14.2 0.5 18.9-0.45 3.7-7.75 20.1-6.7 14.95-8.35 17.5-1.05 1.65-3.65 2.45l-4.7 0.35q-2.05-0.4-2.7-1.75-0.6-1.25-0.1-3.45l0.7-1.9q1.65-4.5 3.25-12.8l-2.25-16.95-3.05-21.1q-0.7-4.2-4.85-12.8-5.1-10.6-8.7-22.75-2.7-9.1-1.85-18.75 0.8-9.2 4.75-18.35l2.3-5.65 0.9-4.3q1.65-13.85 2.8-19.75-18.75-4.05-30.15-12.1-11.5-8.1-10.55-16.75 0.9-7.75 11.45-10 5.3-1.15 10.4-0.75 2.9-9.6 8.8-15.5 4.3-4.35 7.55-4.8 0.25 4.35 0.5 4.45" fill="#595757"/>
  <path d="m14 129.6q-6.5-4.2-9.85-8.7-3.5-4.8-3-9.45 0.65-5.45 6.3-8.25 4.05-2 10.05-2.45 4.65 1.9 6.85 6.45 2.05 4.2 1.45 9.2-0.6 4.95-3.55 8.55-3.25 3.9-8.25 4.65" fill="#0d131a"/>
  <g fill="#fff">
   <path d="m100.2 233.85q2.75 1.7 5.6 1.7 1.8 0 4.6-2 3.15-2.3 4.95-5.5 1.5 11.5 0.3 17-1.15 5.5-6.8 18.4-6.1 13.75-10.15 18.8-1.05 1.35-4.85 1.25-3.9-0.1-5.05-1.6-0.5-0.7 0-2.55l0.55-1.7 3.3-10.6 4.3-15.85q2.7-12 3.25-17.35"/>
   <path d="m152.65 226.45q0.95 4.1 5.85 11.8 2.1 3.3 2.95 8 1.2 6.35 0.45 16.1-0.8 9.95-2.35 19.6-1.35 8.45-2.35 11.25-0.8 2.2-4.1 3.15-3.25 0.9-5.6-0.4-0.8-0.45-0.9-2.2l0.05-1.65q0.5-7.85-0.45-21-0.95-12.3-2.3-19.15-0.8-4-2.65-8.1l-2.95-5.75 2.5 0.55q2.95 0.25 5.45-1.25 2.55-1.5 4.7-6.35l1.7-4.6"/>
   <path d="m75.1 258.6v1.6q-0.45 3.7-7.75 20.1-6.7 14.95-8.35 17.5-1.05 1.65-3.65 2.45l-4.7 0.35q-2.05-0.4-2.7-1.75-0.6-1.25-0.1-3.45l1.9-6.25 2.05-8.45-3.75-27.7q4.6 0.55 6.95-2.3l-0.7 7.65q2.5 4.05 8.7 4.25 6.45 0.25 12.1-4"/>
   <path d="m76.85 139.6q9.45-3 13.1-6.65l1.7 20.5q-4.9 4.15-15.7 6.2-10.7 2-19.65 0.6 2.5-1.3 6.6-5.2 4.4-4.1 6.4-7.2-2.85-0.65-6.5-3.05-3.45-2.25-2.9-2.25 7.6 0 16.95-2.95"/>
   <path d="m39.05 160.05 0.9-7.15q0.8 2.75 2.6 5l1.55 1.8-2.5 0.45-2.55-0.1"/>
   <path d="m30.9 190.5q-0.05-5.6 2.35-12.95l2.35-6.2q1.5 2.2 4.8 5.2 4.9 4.35 8.35 4.5 3.7 0.15 16.05-5.4l11.65-5.45q0.2 0.2-1.8 4.15-2.35 4.45-5 8.45 2.45 0.45 11.65-1.45l8.5-1.75q-3.6 4.85-14.9 12.25-15.2 9.95-27.05 9.95-4.05 0-10.1-4.6-5.15-3.9-6.85-6.7"/>
   <path d="m118.15 216.3q-6.15 9.85-15.95 10.85l-6.5-0.45q-2.45-0.6-3.3-1.3-3.45-6.2-3.95-8.5h9.55q11.1-0.85 18.8-5.15l0.45 1.7 0.9 2.85"/>
   <path d="m133.45 213.4q7.1-3.7 16.5-12.05-0.45 3.65-1.8 7.5-1.4 4.05-3.1 6.3l1.8-0.15 4.8-1q-4.75 7.45-12.35 11.75-8.2 4.7-14.4 2.25-2.1-1.95-4.7-7.1l-2.15-4.8q6.45 2 15.4-2.7"/>
   <path d="m101.45 164.2 23.1-0.2q6.85 6.3 7.3 17.8 0.5 11.95-6.4 22.05l-1.8-10.9q-2.2 3-8.65 8.75-6.05 5.35-6.4 5.2 2.15-8.45 2.45-17.9 0.6-19-9.6-24.8"/>
  </g>
  <g fill="#0d131a">
   <path d="m81.75 72.1q0.8 2.75 0.25 5.2-0.6 2.85-2.85 4.7-3.05 2.5-7.15 4.4-5 2.3-6.75 1.1-3.3-2.25-0.1-14.85 1.3-5.35 3.4-8.65 2.2-3.45 4.55-3.4 2.9 0.05 5.75 4.8 1.9 3.25 2.9 6.7"/>
   <path d="m59.45 296.9q-0.85 2.15-3.8 3.2-2.65 0.95-5 0.5-2.05-0.4-2.7-1.75-0.6-1.25-0.1-3.45 0.65-2.7 2.3-5.75 1.95-3.65 3.45-3.8 1.65-0.15 3.55 3.65 1.85 3.7 2.3 7.4"/>
   <path d="m99.4 281.2q-1 2.2-5.4 2.3-4.25 0.05-5.2-1.6-1.1-2 1.75-6.4 2.85-4.3 4.9-4.3 1.65 0 2.9 4.35 0.8 2.9 1.05 5.65"/>
   <path d="m157.2 293.2q-0.8 2.2-4.15 3.15-3.3 0.9-5.55-0.4-1.15-0.65-0.9-3.25 0.25-2.55 1.85-6.3 1.6-3.6 3.3-3.9 1.55-0.25 3 2.25 1.15 1.95 1.85 4.5 0.6 2.25 0.6 3.95"/>
  </g>
  <path d="m74.5 70.2 1.45 3.45q0.6 2.05 0.4 3.05-0.25 0.95-1.6 2.3l-2.55 2q-1.25 0.75-1.9 0.65-0.9-0.15-0.95-1.9-0.1-1.95 0.5-4.85 0.65-3 1.5-4.7 0.9-1.75 1.6-1.7 0.65 0.05 1.55 1.7" fill="#00aeeb"/>
  <path d="m66.1 114.4q-1.5 7.2-4.9 10.75-2.95 3.05-6.15 2.3-3.55-0.85-4.65-5.3-1.05-4.2 0.2-11 1.2-6.55 4.3-10.2 3.1-3.7 6.85-2.85 2.45 0.6 3.95 4.85 1.75 5 0.4 11.45" fill="#ffee7d"/>
  <path d="m50.3 113.05q0.25-3.05 1.85-7.3 1.65-4.5 4.6-6.55l2.6-1.15q2.75 0.75 3.7 3.8 1 3.2-0.2 8.3-1.15 5-3.8 7.2-2.3 1.9-4.9 1.25-2.05-0.55-3.1-2.3-0.9-1.45-0.75-3.25" fill="#00aeeb"/>
  <path d="m115.9 244.85q-1.25 5.8-6.55 17.9-5.65 12.95-9.8 18.5l-1.15-5.55q4.65-9.7 8.6-22.15 2.6-8.05-0.8-13.65-2.1-3.45-5.9-5.4v-0.45l2.45 1.1q2.95 0.85 5.15-0.3t5.05-4.05l2.35-2.65 0.9 5.7q0.65 6.6-0.3 11" fill="#dbdcdc"/>
  <path d="m108.65 215.6q5.1-1.55 8.15-3.45l1.15 4.15-2.75 4.05q-3.6 4.4-8.05 5.85-4.45 1.5-9.75 0.85l-4.45-1q-0.7-0.9-2.7-4.95l-1.85-3.9q10.05 1.55 20.25-1.6" fill="#dbdcdc"/>
  <path d="m118.4 216.45 0.45 1.6-3.4 6.55q-0.6 1-0.15 3.55-2 2.9-4.95 5.2-2.8 2.2-4.2 2.2-4.3 0-9.15-4.75l-4.05-4.75 2.65 0.95q3.7 0.8 8.9-0.05t10.05-5.75l3.85-4.75" fill="#3e3a39"/>
  <path d="m43.15 212 8.5 4.3q2.9 9.4 3.2 23.7 0.2 7.2-0.25 12.45 0-1.7-1.5-8.55-1.55-7.35-3-11.45l-6.95-20.45" fill="#3e3a39"/>
  <path d="m58.15 291.95 6.9-15.1q4.15-9.55 6-15.85l2.85-1.25 2.05-1.35-0.25 2.25q-2.35 7.65-9.85 23.05l-7.05 13.85q0.3-1.95-0.15-3.95l-0.5-1.65" fill="#dbdcdc"/>
  <path d="m74.6 239.1 0.75 7.4q0.75 8.15 0.6 11.9l-2.15 1.6q-1.15 0.8-2.9 1.4 2.15-7.25 3.1-14.8l0.6-7.5" fill="#191919"/>
  <path d="m117.95 216.05-1.15-3.9 2.15-1.55q0.25 1.35 2.7 5.85l-3.7-0.4" fill="#3e3a39"/>
  <path d="m130.4 228.5q7.95 8.4 16.1 8.45-4.25 2.5-9.05 1-4.7-1.5-10.45-7.05l-2.55-2.8 5.95 0.4" fill="#3e3a39"/>
  <path d="m130.4 228.5-5.95-0.4q-3.9-4.85-6.5-12.05l3.7 0.4q3.95 6.95 8.75 12.05" fill="#ccc"/>
  <path d="m140.9 243.6-2.6-5.25 5.25 0.3q1.3-0.3 2.05-0.8 2.6 5.45 3.9 15.4 1.9 14.3-0.35 31.75l-2.5 3.85-0.3-11.45q-0.5-12.85-1.55-20t-3.9-13.8" fill="#dbdcdc"/>
  <path d="m47.95 141.3q-1.55 1.05-3.6 3.4-2.8 3.2-4.3 6.7l1.7-11.2 6.2 1.1" fill="#3e3a39"/>
  <g fill="#dbdcdc">
   <path d="m104.9 103.35-14.85 23.65-0.65-5.8 7.3-8.55 8.2-9.3"/>
   <path d="m94.85 104.1 0.2 1q-2.35 0.4-3.3-0.55-0.75-0.8-0.3-1.6l13.85-26-10.45 27.15"/>
   <path d="m157.35 160.55-7 17.85-3.55-4.6 10.55-13.25"/>
  </g>
  <g fill="#0d131a">
   <path d="m66.8 103.35q1.6 5 0.2 11.5-1.45 6.85-4.95 10.55-3.4 3.6-7.25 2.7-3.8-0.9-5.2-5.4-1.45-4.6-0.1-11.9 1.35-7.2 5.05-10.9 3.4-3.4 7.25-2.35 3.45 0.9 5 5.8m-1.5 10.95q1.2-5.55-0.05-10.15-1.25-4.5-3.95-5.25-3-0.75-5.7 2.3-3 3.35-4.25 10.2-2.4 13.4 3.35 15.05 3.15 0.9 6.05-2.1 3.15-3.25 4.55-10.05"/>
   <path d="m59.65 106.5q-0.45 2.25-1.35 3.35-0.8 1-1.7 0.8-1-0.2-1.3-1.8-0.25-1.4 0.1-3.25 0.45-2.1 1.4-3.25 0.9-1.1 1.85-0.9 0.85 0.2 1.15 1.55 0.3 1.4-0.15 3.5"/>
   <path d="m58.9 98.65q-0.25-0.05 0.05-0.45 0.35-0.35 0.6-0.3 3.1 0.8 4.15 4.1 1.05 3.35-0.2 8.65-1.1 4.75-3.65 7.15-2.6 2.4-5.85 1.6-2.3-0.55-3.35-2.55-0.9-1.75-0.7-3.8 0-0.25 0.5-0.2 0.5 0.1 0.5 0.35-0.15 1.6 0.65 2.9 0.9 1.5 2.7 1.95 2.4 0.6 4.45-1.4 2.25-2.15 3.25-6.55 1.05-4.65 0.2-7.7-0.8-3.05-3.3-3.75"/>
   <path d="m41.6 131.95q1.15-0.85 1.5-0.6 0.3 0.3-0.65 1.3-2.15 2.15-5.95 3.5-3.9 1.4-7.65 1.2-0.3 0-0.5-0.75-0.25-0.8 0.1-0.75 3.5 0.2 7.5-1.15 3.55-1.15 5.65-2.75"/>
   <path d="m39.25 79.95q0.3-0.05 0.25 0.55l-0.35 0.6q-2.75 0.45-6.7 4.35-5.75 5.7-8.75 15.45-0.15 0.55-0.75 0.55-4.9-0.4-9.85 0.7-9.85 2.15-10.65 9.35-1.05 9.05 11.5 17.25 12.6 8.2 32.95 11.8 1.55 0.25 1.4 0.8t-1.7 0.3q-21.3-2.95-34.65-11.8-13-8.7-11.85-18.45 0.85-7.6 10.4-10.3 5.6-1.55 11.95-1.2 2.2-9.35 8.35-15.15 4.55-4.25 8.45-4.8"/>
   <path d="m25.05 116.4q0.55-4.4-1.15-8.35-2-4.8-6.6-6.75-0.3-0.1 0.15-0.6 0.5-0.45 0.75-0.3 4.65 1.95 7 6.35 2.4 4.4 1.75 9.9-0.65 5.4-4.25 9.15-3.5 3.65-8.5 4.45-0.35 0.05-0.65-0.55-0.3-0.55 0-0.6 5-0.8 8.25-4.9 2.75-3.5 3.25-7.8"/>
   <path d="m40.95 140.1q0.1-0.3 0.9 0 0.8 0.25 0.75 0.6l-1.7 10.7-1.15 8.75q-0.3 2.6-0.95 4.55l-2.25 5.6q-4 9.2-4.7 18.5-0.75 9.35 1.85 18.1 2.35 8.1 5.1 14.8l4.2 9.2 2.65 5.75q1.15 2.95 1.6 5.85 1.05 6.1 2.9 20.6l2 16.1-0.5 1.1q-0.55 0.8-0.6 0.45l-2.45-16.75-3.3-21.25q-0.45-2.8-1.6-5.6l-2.55-5.6-4.45-9.45q-3.05-7-5.4-15-2.65-9-1.9-18.6 0.75-9.55 4.85-19l2.3-5.4q0.8-2 1.1-4.2 1.5-10.35 3.3-19.8"/>
   <path d="m50.7 289.95c-1.1667 2.1-1.9667 4-2.4 5.7-0.3 1.4667-0.25 2.5 0.15 3.1 0.33333 0.56667 1.0333 0.95 2.1 1.15l4.35-0.3c1.6667-0.53333 2.8167-1.2833 3.45-2.25l0.3-0.5c-0.3-2.3667-1.0333-4.7-2.2-7-1.1-2.2333-2.0333-3.3167-2.8-3.25-0.73333 0.0667-1.7167 1.1833-2.95 3.35m66.4-78.9c1.1333-0.73333 1.8-0.95 2-0.65s-0.23333 0.83333-1.3 1.6c-3.9333 2.8667-8.75 4.8167-14.45 5.85-5.4333 1-10.6 0.98333-15.5-0.05-1.2333 3.1333-3.4333 7.2-6.6 12.2l-4.7 7.05c-0.73333 1.1667-1.0833 2.3-1.05 3.4l0.6 6.4 0.55 8.9-0.2 4.5c-0.3 2.5667-3.0167 9.35-8.15 20.35-4.5667 9.8333-7.45 15.7-8.65 17.6-0.8 1.2333-2.5366 2.2572-4.1 2.8-1.594 0.55346-3.4102 0.74784-5.05 0.35-1.1555-0.28035-2.45-0.91667-3.05-1.85-0.63333-1.0333-0.75-2.45-0.35-4.25 0.43333-1.7333 1.1833-3.65 2.25-5.75 1.4333-2.8 2.8167-4.2667 4.15-4.4 1.3-0.13333 2.5667 0.83333 3.8 2.9 1.2667 2.0333 2.0333 4.3833 2.3 7.05 2.6-5.2667 5.4667-11.483 8.6-18.65 3.8333-8.7667 5.8833-14.2 6.15-16.3l0.15-4.25-0.3-8.75-0.3-6.4c-0.03333-1.0667 0.06667-1.9667 0.3-2.7 0.13333-0.4 0.41667-0.95 0.85-1.65l11.75-19.75c0.16667-0.3 0.41667-0.41667 0.75-0.35l10.65 0.05c7.9333-0.56667 14.233-2.3167 18.9-5.25"/>
   <path d="m42.2 211.55q-0.9-1-0.55-1.4 0.4-0.35 1.35 0.6 1 1 3.7 2.55 3.65 2.05 7.05 2.85 1.85 0.4 1.75 1-0.05 0.55-1.9 0.25-7.25-1.15-11.4-5.85"/>
   <path d="m50.8 216.25q-0.05-0.3 0.8-0.2t0.9 0.4q0.8 2.2 2.05 8.65 1.85 9.65 1.7 17-0.25 10.85-2 25.2-1.95 16.1-4.55 24.7l-1.05 0.95q-0.9 0.6-0.85 0.3 2.45-6.85 4.45-25.2 1.6-15.15 1.85-25.8 0.15-7.25-1.5-17.1-1.15-7.2-1.8-8.9"/>
   <path d="m87.2 217.45q-0.05-0.3 0.95-0.5l1.1 0.05q1.2 4.35 4.95 9.8 5.55 8 11.6 8 1.5 0 4.15-1.95 3.1-2.2 4.85-5.25l0.6 0.1q0.5 0.4 0.3 0.65-1.9 3.35-5.05 5.75-2.9 2.2-4.85 2.2-7.2 0-13.6-9.35-2-2.95-3.7-6.5l-1.3-3"/>
   <path d="m96.3 282.65c0.96667-0.23333 1.5833-0.53333 1.85-0.9l0.5-0.65c-0.23333-2.1-0.65-4.1-1.25-6-0.66667-2.1-1.3167-3.15-1.95-3.15-0.5 0-1.2 0.43333-2.1 1.3-0.96667 0.93333-1.8333 2.0667-2.6 3.4-1.5 2.5333-2.0333 4.2-1.6 5 0.13333 0.26667 0.55 0.51667 1.25 0.75l2.55 0.5 3.35-0.25m21.8-65.1c0.0667-0.2 0.36667-0.0167 0.9 0.55 0.5 0.53333 0.71667 0.9 0.65 1.1l-2.6 4.6c-0.46667 0.8-0.76667 1.4333-0.9 1.9-0.13333 0.56667-0.15 1.3167-0.05 2.25l1.05 8.5c0.33333 3.8 0.28333 6.7167-0.15 8.75-0.76667 3.5667-3.15 9.7-7.15 18.4-4.2333 9.2667-7.75 15.633-10.55 19.1-0.5 0.63333-1.3667 1.1-2.6 1.4 0 0-2.4668 0.33472-3.7 0.25-0.90004-0.0618-2.65-0.55-2.65-0.55-1.1-0.4-1.8333-0.91667-2.2-1.55-0.83333-1.4667-0.4-3.5833 1.3-6.35 0.83333-1.4667 1.7833-2.7167 2.85-3.75 1.2-1.1667 2.25-1.75 3.15-1.75 1.2333 0 2.2667 1.1333 3.1 3.4 0.7 1.8667 1.0833 3.8833 1.15 6.05 2.7333-4.2333 5.85-10.483 9.35-18.75 3.2667-7.7 5.2333-13.1 5.9-16.2 0.3-1.6 0.45-3.5 0.45-5.7 0-3.1333-0.26667-6.8333-0.8-11.1l-0.15-2.1c0-0.76667 0.31667-1.7 0.95-2.8 1.1-1.9333 2-3.8167 2.7-5.65"/>
   <path d="m99.5 233.95q0.05-0.3 0.8-0.2 0.75 0.05 0.7 0.35-0.4 4.45-3.3 17.25-1.25 5.5-4.25 15.4l-3.4 10.65q-0.1 0.3-0.8 0.3t-0.6-0.3l3.15-10.8q2.75-9.9 4-15.6l2.55-11.2 1.15-5.85"/>
   <path d="m137.6 238.35 1.6-0.2 3.2 6q1.75 3.8 2.55 7.6 1.35 6.8 2.1 19.05 0.75 12.4 0.25 20.55l-0.7 0.7-0.7 0.05q0.45-7.5-0.65-20.7-1.05-12.1-2.5-19.3-1.4-6.85-5.15-13.75"/>
   <path d="m147.55 295.55q1 0.6 2.75 0.6l3.2-0.6q2.25-0.8 2.95-2.5-0.05-1.7-0.6-3.7-0.65-2.35-1.75-4.2-1.1-1.95-2.1-1.9-1.35 0.1-2.85 3.45-1.6 3.75-1.95 6.3-0.3 2.15 0.35 2.55m4.55-68.05q0-0.1 0.7-0.4l0.75-0.05q0.55 1.75 2.75 5.25l3.65 5.55q2 3.15 2.8 7.7 1.15 6.4 0.35 16.6-0.75 9.55-2.55 19.6-1.5 8.55-2.65 11.7-0.8 2.25-3.85 3.35-1.85 0.7-3.7 0.65-1.9-0.05-3.25-0.85-1.45-0.8-1.3-3.6 0.2-2.8 2-6.9 1.75-4.2 4.1-4.35 1.95-0.05 3.5 2.6 1.2 2.05 1.9 5.8l2.1-12.05q1.15-8.25 1.75-15.85l0.3-7q0-10.85-3.6-16.6-4.5-7.1-5.75-11.15"/>
   <path d="m87.15 48.3c1.6-0.8 2.5667-1.1167 2.9-0.95 0.36667 0.2 0.58333 1.1667 0.65 2.9l0.05 12.5-0.1 16.35 12-2.55s2.4965-0.90248 3.2-0.1c0.67915 0.77469 0.13333 1.35-0.5 3.05l-4.75 12.15-4.9 11.9 7.05-1c1.5667-0.16667 2.4667-0.0667 2.7 0.3 0.2 0.4-0.11667 1.35-0.95 2.85-3.0333 5.7667-7.5667 13.05-13.6 21.85l1.65 21.95 0.75 13.4c0 0.36667 0.05 0.6 0.15 0.7l0.75 0.2 14.35-0.65c7.1333-0.23333 12.4-0.3 15.8-0.2 9.3 0.23333 16.967 3.5833 23 10.05 6.0333 6.5333 9.1167 14.817 9.25 24.85 0.16667 15.033-1.3667 26.133-4.6 33.3-2.2667 4.9667-5.1333 7.7-8.6 8.2-4.7667 0.7-10.033-1.5667-15.8-6.8-6.1667-5.6333-10-12.417-11.5-20.35-0.0333-0.2 0.18333-0.35 0.65-0.45l0.8 0.1c1.7333 7.1667 5.4333 13.5 11.1 19 5.4667 5.3 10.333 7.6333 14.6 7 2.8667-0.4 5.25-2.7833 7.15-7.15 2.9667-6.7667 4.3667-17.567 4.2-32.4-0.13333-9.6667-3.0333-17.633-8.7-23.9-5.6667-6.2333-12.917-9.4667-21.75-9.7-6.6-0.16667-16.75 0.05-30.45 0.65-1.1667 0.0333-1.8-0.63333-1.9-2-0.53333-7.7667-2.0667-24.633-4.6-50.6-1.2333-12.667-5.7667-21.667-13.6-27l1.8-1.2c8.1 5.6 12.767 14.767 14 27.5l1.2 12.4 8.45-12.75 4.65-7.55-2.6 0.35-5.05 0.75c-1.4 0.13333-2.1833 0-2.35-0.4-0.1-0.26667 0.05-0.96667 0.45-2.1 6.9667-16.567 10.417-24.917 10.35-25.05l-12.55 3.2-2.75 0.2c-0.23333-0.2-0.36667-1.05-0.4-2.55l0.2-14.95 0.05-14.55c-0.16667-0.1-10.1 5.6167-29.8 17.15-1 0.46667-1.6167 0.61667-1.85 0.45-0.2-0.13333-0.35-0.73333-0.45-1.8-0.13333-1.4333-0.16667-5.7333-0.1-12.9l-0.05-9.95-4.15 3.9-4.5 4.5c-1.2667 1.2-2.05 1.7-2.35 1.5-0.26667-0.13333-0.51667-1.0833-0.75-2.85l-2.5-24.75-2.35-22.55c-0.13333-0.033333-3.7167 11.233-10.75 33.8-7.1 22.733-11.217 36.217-12.35 40.45l19.65-11.25c1-0.56667 1.6333-0.83333 1.9-0.8 0.36667 0.06667 0.6 0.65 0.7 1.75l0.85 18.6c2.4-2.0333 5.3-3.55 8.7-4.55 4.7333-1.4333 9.6167-1.5333 14.65-0.3l-0.2 1.95c-7.7667-1.9333-15.15-0.73333-22.15 3.6l-1 0.55h-0.65c-0.26667-0.1-0.68333-3-1.25-8.7l-0.95-10.05-19.1 10.35c-1.4333 0.73333-2.3 0.91667-2.6 0.55-0.3-0.33333-0.21667-1.4 0.25-3.2 1.4-5.3333 4.9-17.167 10.5-35.5 5.8333-18.933 9.9667-31.367 12.4-37.3 0.46667-1.1667 1.0167-1.7167 1.65-1.65 0.6 0.033333 0.98333 0.61667 1.15 1.75 0.73333 4.7333 2.4833 20.517 5.25 47.35l8.2-7.4c1.2667-1.1 2.0667-1.5833 2.4-1.45 0.36667 0.13333 0.6 1.1 0.7 2.9l0.3 10.5c0.13333 5.6 0.25 9.0167 0.35 10.25l28.35-15.65"/>
   <path d="m78.05 140.2q-8.5 2.85-17.2 2.75 2.9 2.15 7.9 4.1 0.9 0.25 1.05 0.6 0.15 0.3-0.3 1-4.4 6.65-11.95 11.35 9.5 0.6 19.2-1.3 10.1-2 14.5-5.7 0.2-0.2 0.6 0.3 0.45 0.5 0.2 0.65-5.4 4.55-15.8 6.5-10.3 1.95-20.05 0.4-0.85-0.15-0.75-0.55 0.1-0.35 0.55-0.6 2.45-1.5 6.05-4.8 4.1-3.7 6.2-6.75-6-1.85-8.7-5-0.75-0.9-0.4-1.1l1.2-0.1q7.55-0.15 16.6-3.05 9.1-2.95 12.55-6.4 0.2-0.15 0.6 0.35 0.45 0.45 0.3 0.55-4.1 4.1-12.35 6.8"/>
   <path d="m39.35 153.1 0.55-0.35 0.65-0.05q1 3.4 3.55 6.1l0.5 0.55 0.1 0.5q-0.35 1.2-5.8 0.85-0.25-0.05-0.15-0.7 0.15-0.6 0.4-0.55l2 0.15 2.4-0.05q-3.2-3.05-4.2-6.45"/>
   <path d="m30.45 190.6c-0.1-0.13333 0.01667-0.26667 0.35-0.4 0.36667-0.16667 0.58333-0.16667 0.65 0 1.0667 1.7667 3.2833 3.9167 6.65 6.45 3.9333 3 7.1833 4.5 9.75 4.5 6.5667 0 14.517-2.8167 23.85-8.45 6.2667-3.7333 11.9-7.85 16.9-12.35 0.3-0.3 0.21667-0.38333-0.25-0.25l-9.8 2.35c-4.5667 0.9-7.5667 1.2333-9 1-0.66667-0.13333-0.8-0.46667-0.4-1 3.2-4.8 5.45-8.6667 6.75-11.6l-16.05 7.75c-4.9333 2.1667-8.65 3.2-11.15 3.1-2.4333-0.1-5.3167-1.6-8.65-4.5-2.3333-2.0667-3.9833-3.8167-4.95-5.25-0.1-0.13333-0.03333-0.38333 0.2-0.75 0.23333-0.36667 0.4-0.48333 0.5-0.35 0.83333 1.3 2.45 3.0167 4.85 5.15 3.2333 2.8667 5.9333 4.35 8.1 4.45 1.8667 0.0667 6.8833-1.6667 15.05-5.2l12.05-5.5s0.86951-0.41602 1.15-0.15c0.31534 0.29908 0.13333 0.6-0.1 1.3l-2.6 5.55-3.35 5.75c2.7333-0.0333 8.6333-1.05 17.7-3.05 0.93333-0.2 1.4833-0.13333 1.65 0.2 0.16667 0.3-0.08333 0.78333-0.75 1.45-4.3 4.3667-9.6667 8.6-16.1 12.7-9.8333 6.2333-18.367 9.2167-25.6 8.95-3.1333-0.13333-6.4833-1.5-10.05-4.1-3.2333-2.3667-5.6833-4.95-7.35-7.75"/>
   <path d="m54.5 250.3q0.15-0.2 0.6 0.35 0.5 0.55 0.3 0.75-1.5 1.9-3.9 2.4-1.75 0.35-3.35-0.05-0.25-0.05-0.3-0.6t0.2-0.5l3.05-0.25q2.1-0.55 3.4-2.1"/>
   <path d="m75.5 259.1c-2.2 1.8-4.6506 3.1093-7.3 3.85-2.412 0.67436-5.0795 1.0933-7.5 0.45-2.618-0.6958-5.1333-1.95-6.8-4.45-0.1-0.13333 0.03333-0.31667 0.4-0.55 0.33333-0.23333 0.55-0.28333 0.65-0.15 1.2333 1.9 3.8453 3.0106 6.15 3.55 2.2928 0.53657 4.7739 0.15377 7.05-0.45 2.4568-0.65171 4.75-1.7833 6.85-3.35 0.13333-0.1 0.28333 0.0333 0.45 0.4l0.05 0.7"/>
   <path d="m117.45 216.15 0.7 0.1 0.35 0.55c-3.8 6.3-8.6833 9.95-14.65 10.95 0 0-5.0787 0.28015-7.55-0.2-1.3098-0.25447-3.15-0.9-3.75-1.4-0.13333-0.1-0.18333-0.31667-0.15-0.65 0.06667-0.33333 0.16667-0.45 0.3-0.35 0.46667 0.36667 1.6833 0.73333 3.65 1.1 2.5667 0.46667 4.9833 0.5 7.25 0.1 5.7333-1 10.35-4.4 13.85-10.2"/>
   <path d="m149.55 200.85q1.25-1.1 1.1 0.6l-1.25 5.65q-1.3 4.55-3.1 7.3l5.2-1q0.75-0.2 0.9 0.15 0.1 0.3-0.2 0.8-4.4 7.9-12.2 12.2-8.05 4.45-14.5 2.05-0.25-0.1-0.6-0.8-0.3-0.65-0.05-0.55 6.35 2.1 13.65-1.7 6.75-3.55 12.85-11.2-2.05 0.75-4.35 1.15l-1.95 0.25q-1.25 0.05-0.5-1 1.4-1.9 2.9-5.55 1.45-3.7 2.1-7-19.75 17.95-31.1 14.45-0.25-0.05-0.45-0.8-0.15-0.75 0.1-0.7 11.4 3.5 31.45-14.3"/>
   <path d="m109.15 176.15q-2.2-8.25-8.1-11.65-0.25-0.1 0.15-0.55l0.55-0.3q10.2 5.75 10.2 23.1 0 3.9-0.75 9.2-0.8 5.5-2.05 10.1l6.75-5.9q4.95-4.6 6.9-7.15l0.8-0.75q0.45-0.1 0.75 1l0.75 4.35 0.6 5.25q2.6-4.9 4.05-10.4 1.45-5.45 1.45-10 0-5.2-1.85-9.95-1.85-4.8-5.35-8.4-0.1-0.15 0.4-0.4 0.45-0.3 0.6-0.15 7.7 7.8 7.7 18.85 0.05 5.1-1.6 10.6-1.7 5.8-4.9 10.8-0.5 0.8-0.9 0.55l-0.5-0.85q-0.8-6.45-1.5-9.15-2.8 3.55-8.35 8.5-5.7 5.05-6.65 4.6-0.5-0.25-0.05-2.15 3.85-18.25 0.9-29.15"/>
   <path d="m155.85 159.95s1.7296-0.59037 2.25-0.05c0.57908 0.60134 0.18333 1.1333-0.15 2.5-0.36667 1.4667-1.45 4.4667-3.25 9l-3.7 8.65c-0.1 0.26667-0.68333-0.3-1.75-1.7l7.6-17.2c-0.13333-0.1-1.9167 0.53333-5.35 1.9 0 0-1.014 0.34979-1.35 0.05-0.3243-0.28935-0.23333-0.6-0.1-1.3l3.35-13.45c-0.0667-0.0667-3.4833 2.7833-10.25 8.55l-10.15 8.7c-0.13333 0.13333-0.53333 0-1.2-0.4-0.66667-0.36667-0.93333-0.61667-0.8-0.75 10.933-9 18.083-14.683 21.45-17.05 1.8-1.3 2.55-0.81667 2.25 1.45l-1.2 5.85-1.85 6.75 4.2-1.5"/>
   <path d="m63.95 72.3q1.3-5.05 3.6-8.6 2.7-4 5.55-3.95 3.65 0.05 6.85 6 1.6 3 2.5 6.05 1.95 6.65-2.8 10.65-3.2 2.7-7.35 4.6-5.3 2.45-7.45 1-4.15-2.85-0.9-15.75m17.4 5.05q0.6-2.4-0.2-5.15-1-3.5-3.05-6.8-2.6-4.1-5.05-4.15-1.9-0.05-3.9 3.15-2 3.15-3.3 8.3-3 12.1-0.15 14.1 1.3 0.9 5.85-1.1 4.25-1.9 7.25-4.4 1.9-1.55 2.55-3.95"/>
   <path d="m73.15 69q-0.55-0.15-1.35 1.4-0.85 1.65-1.45 4.75-0.5 2.85-0.4 4.55 0.1 1.3 0.4 1.35 0.25 0.05 1.5-0.7l2.45-1.9q1.2-1.2 1.4-2t-0.4-2.9l-1.1-3.05q-0.65-1.4-1.05-1.5m-0.1-1q1.05 0 2 1.8 0.9 1.65 1.45 3.55 0.7 2.25 0.45 3.4t-1.8 2.6l-2.65 1.95-1.35 0.75-1.35-0.05q-1.05-0.5-1.05-2.3-0.1-1.95 0.55-4.95 0.6-3.1 1.55-4.95 0.95-1.8 2.2-1.8"/>
  </g>
 </g>
</svg>
