<?xml version="1.0" encoding="UTF-8"?>
<!-- Created with Inkscape (http://www.inkscape.org/) -->
<svg version="1.1" viewBox="0 0 392.53 258.67" xmlns="http://www.w3.org/2000/svg">
 <g transform="translate(82.087 -23.478)">
  <g transform="matrix(1.1252 .36944 -.36944 1.1252 52.409 -53.179)">
   <path d="m96.603 191.71c-3.7872-1.9804-7.401-4.4811-10.812-7.3577-8.066 7.6468-17.115 14.571-26.901 20.44 7.5167 6.288 16.71 10.986 27.465 12.88 7.4299-3.5415 14.296-7.7335 20.541-12.345-3.715-4.5823-7.2276-9.2079-10.292-13.617" fill="#f09cb4"/>
   <path d="m111.04 152.94c4.2064-7.1264 7.6034-14.426 10.061-21.755-9.4537 0.20238-17.028 1.6045-27.638-2.2261 2.7031 9.844 9.1501 18.329 17.577 23.981" fill="#e3c583"/>
   <path d="m15.294 167.27c-5.9989 7.6034-11.217 13.834-17.014 17.1-7.9937 4.51-15.106 6.924-21.769 8.1961-6.1579 5.8399-5.4351 20.165 1.9948 27.855 4.1775 1.5467 8.6442 2.9488 13.313 4.1775 12.099-0.14455 23.923-2.1104 35.213-5.5508-11.752-9.8006-15.872-41.024-11.738-51.778" fill="#e3c583"/>
   <path d="m-23.482 192.56c-7.1408 1.3588-13.761 1.3877-20.324 1.1853-10.74-0.31801-12.2 6.8951-1.4311 14.614 6.0712 4.351 14.209 8.5574 23.735 12.07-7.4299-7.7046-8.1383-22.015-1.9804-27.87" fill="#525557"/>
   <path d="m58.894 204.8c9.7861-5.8688 18.821-12.793 26.901-20.44-18.315-15.496-30.37-42.036-27.132-59.555-8.1238 5.0882-14.947 10.668-20.844 16.363-7.5022 17.028 0.43366 46.358 21.076 63.632" fill="#e3c583"/>
   <g fill="#525557">
    <path d="m179.16 63.429c-19.24 2.0237-23.649 23.894-21.769 27.725 1.9081 3.9029 19.948 5.4496 22.738 2.9633 2.573-2.2695-0.11565-21.914 20.266-26.164-3.1512-0.44811-18.228-3.556-21.235-4.5245"/>
    <path d="m64.877 250.4c-1.5033 1.3732-1.778 3.9896-1.2721 5.3918 1.1709 0.14455 2.3706 0.36138 3.556 0.63603 3.0067-0.62157 8.3117-2.1104 7.9359-2.5152-1.1275-1.2142-5.1894-2.6019-10.22-3.5126"/>
    <path d="m53.586 261.55c-2.1972 1.2576-4.0041 4.7558-3.2813 6.9096 5.9555 0.15901 11.448-0.2891 14.874-1.5901-1.9804-2.6164-7.8058-4.828-11.593-5.3195"/>
    <path d="m62.836 255.72c-1.9948 1.4022-3.3102 5.3629-2.1683 7.7913 4.5534-0.27465 13.675-1.7057 15.351-2.6887-3.4114-4.1775-11.376-4.6546-13.183-5.1027"/>
    <path d="m116.22 216.23c-0.59266-0.0578-1.2865-0.11564-2.0526-0.14455-1.1275 1.6768-1.6045 5.4207-1.4311 6.8517 0.20237 0.0145 6.4904-1.2576 8.0515-1.778-1.5178-1.5901-3.05-3.238-4.5678-4.9292"/>
   </g>
   <path d="m101.65 66.674c-4.3365-13.4-0.10119-27.609 9.6271-33.507-23.201 9.5259-34.75 29.908-31.426 40.778 3.1223 10.162 24.675 20.873 50.68 13.501-11.795 2.0382-24.342-6.7361-28.881-20.772" fill="#e3c583"/>
   <path d="m175.26 17.175c-6.8228 2.2116-14.123 13.328-8.7165 30.023 0.0145 0.01446 0.0145 0.01446 0.0145 0.02891-4.2787-0.1301-16.06 3.238-19.413 4.7124-3.05-9.4248-15.742-25.846-31.816-20.642-10.408 3.3681-19.182 18.373-13.675 35.372 5.7676 17.838 21.957 23.229 31.642 20.093 8.3551-2.7031 14.209-11.217 15.539-20.656 7.242-3.4548 18.835-5.9122 21.871-5.9411 1.3443 0.30356 15.496 5.305 21.249 6.3892 10.408-4.9148 11.55-19.081 7.9648-30.153-4.3944-13.573-15.467-22.203-24.66-19.225" fill="#0f141b"/>
   <path d="m201.01 52.998c-1.2576 6.3024-4.4956 11.391-9.0634 13.559 2.4863 0.47702 16.522 2.4863 21.394 2.9633 1.0552-9.1646-6.2013-13.747-12.33-16.522" fill="#e3c583"/>
   <path d="m144.15 38.375c-1.619 0.40474-3.0645 0.85285-4.0764 1.1998 3.0645 3.4114 5.5363 7.6179 7.0686 12.374 3.3536-1.4744 15.135-4.8569 19.413-4.7268 0 0 0-0.01445-0.0145-0.01445-4.1631-12.865-0.86731-25.629 7.3143-29.474-20.541 4.7991-27.682 16.667-29.705 20.642" fill="#e3c583"/>
   <path d="m27.026 219.04c-11.289 3.4403-23.114 5.4207-35.213 5.5652 12.215 3.209 25.889 5.1894 40.07 5.1171-1.0841-3.0934-4.6112-10.755-4.8569-10.682" fill="#f09cb4"/>
   <path d="m133.44 131.91c-4.6112-0.69385-8.6153-0.79503-12.33-0.72276-2.4718 7.3288-5.8688 14.629-10.061 21.755 9.3958 6.3024 21.249 9.0923 33.088 6.3169 3.5126-9.1501 4.8858-16.118 2.6598-24.198-5.1316-1.4889-9.7283-2.6019-13.357-3.1512" fill="#f09cb4"/>
   <path d="m208.75 182.85c-9.9741-1.8358-22.044-3.9752-25.643-5.8254-6.0423-3.0789-31.006-26.41-35.603-31.353-1.0119 10.48-3.5271 15.799-8.9622 25.138 5.1316 5.2761 28.737 24.473 30.789 25.759 4.351 2.6887 23.085 10.437 26.511 10.625-1.1853-3.05-0.89622-7.4444 2.0237-8.9766 1.6334 0.0867 3.3102 0.34692 4.9437 0.7083-1.1853-2.4863-0.93958-7.0252 1.2142-8.8899 0.75167 0.14455 1.6624 0.33247 2.6598 0.56375-1.5033-2.6742-0.44811-6.4904 2.0671-7.748" fill="#e3c583"/>
   <path d="m231.84 141.47c1.8358-1.0408 3.209-2.3706 4.0474-4.0185-1.2287-2.9488-3.6861-5.9266-5.9989-7.6468 2.4429 3.9463 3.3681 7.9648 1.9514 11.665" fill="#e3c583"/>
   <g fill="#525557">
    <path d="m206.69 190.6c0.60712 0.14455 1.2431 0.30356 1.8936 0.46256 2.9633-0.59266 11.853-3.2524 14.47-4.4377 1.6913-0.75167-5.493-2.1538-14.296-3.7728-2.5152 1.2576-3.5849 5.0593-2.0671 7.748"/>
    <path d="m204.02 190.04c-2.1394 1.8647-2.3996 6.4036-1.1998 8.8899 0.65048 0.14455 1.2865 0.30356 1.9081 0.46256 3.6716-0.50593 12.186-2.6886 15.221-3.5415 2.4718-0.67939-15.178-5.6809-15.93-5.811"/>
    <path d="m197.87 198.21c-2.9199 1.5322-3.4259 5.7821-1.8647 8.6876 3.6282-0.15901 13.082-2.0815 17.505-3.1801-2.2695-3.2235-12.287-5.3195-15.64-5.5074"/>
   </g>
   <path d="m247.62 68.858c-5.5074-3.3825-12.952-1.7346-16.421 2.096-6.6927-0.4192-27.017-2.4429-30.804-2.9922-20.382 4.2354-17.693 23.88-20.266 26.164-2.7898 2.4718-20.83 0.92513-22.738-2.9778-1.8792-3.8306 2.5296-25.701 21.769-27.725-5.146-1.6479-7.1264-2.9633-8.4563-3.2524-3.0356 0.02891-14.629 2.4863-21.871 5.9411-3.0645 30.587-49.682 27.364-64.788 13.732-15.713 19.341-11.145 40.055 5.7387 47.63 6.7072 2.9922 14.065 4.0764 31.324 3.715 3.715-0.0723 7.719 0.0289 12.33 0.72276 12.388 1.8503 68.358 23.013 76.395 23.967 10.307 1.2287 23.388-5.4351 26.482-13.125 0.62157-1.5467 0.34692-3.4114-0.43366-5.2906-4.8858 9.7283-20.671 9.1646-42.903 2.1683-28.043-8.8321-64.802-23.678-70.83-36.687 26.944 17.895 61.738 8.7598 82.524-1.4455 5.6809 3.4403 23.533 3.8162 28.852-7.7769 4.351 2.2695 13.198 0.5493 17.881-4.3076 5.9844-6.2013 0.24574-18.083-3.7872-20.555" fill="#e3c583"/>
   <path d="m192.85 106.55c-27.609 10.119-53.556 7.7769-70.7-3.6138 6.0134 13.01 42.773 27.855 70.816 36.687 16.71 5.2617 31.512 5.9989 38.87 1.8503 4.9148-12.865-19.558-31.281-38.986-34.924" fill="#ed8599"/>
   <path d="m204.67 101.5c-0.7083 0.34692-1.4166 0.67939-2.1249 1.0119 2.3851 2.7176 10.292 10.205 11.159 10.205 0.56375-0.24574 3.4692-6.8084 4.4666-9.0778-4.8136 0.73722-9.7717 0.11564-13.501-2.1394" fill="#fff"/>
   <path d="m234.64 94.211c1.7635 2.1972 7.083 8.4707 7.907 8.5575 1.0263-0.50593 3.3391-7.4444 4.1053-10.09-3.6427 1.7924-8.2828 2.8621-12.012 1.5322" fill="#fff"/>
   <g fill="#525557">
    <path d="m37.821 141.17c-9.338 9.0345-16.363 18.286-22.521 26.106-4.1342 10.755-0.02891 41.963 11.723 51.764 0.26019-0.0723-1.113-5.9122-1.142-7.5456-0.08673-5.4496 7.5456-12.301 16.262-10.451 6.6494 1.4166 17.216 17.751 20.078 25.123 5.8399-1.3732 22.81-7.8492 24.14-8.4852-39.275-6.9529-59.44-51.778-48.54-76.511"/>
    <path d="m160.43 223.42c-4.0619 1.2576-5.3629 6.8951-4.1053 10.538 2.6164 0.7083 18.459 0.5782 20.656-0.14455 2.5296-0.80949-9.815-8.384-16.551-10.393"/>
    <path d="m165.94 216.11c-3.3536 0.20237-4.6112 5.1171-3.7583 7.8636 1.6045 0.56375 3.1946 1.2142 4.6979 1.937 4.2787-0.2891 12.648-1.3443 15.684-2.1249 5.7098-1.46-15.135-7.7624-16.623-7.6757"/>
    <path d="m151.06 231.5c-4.351 0.79503-6.9674 6.3314-5.5797 9.8584 1.7924 1.1275 19.76 1.4311 21.856 0.75166 1.8503-0.59266-11.882-9.4537-16.276-10.61"/>
   </g>
   <path d="m63.095 229.08c-0.79503-5.5797-12.33-26.193-20.946-28.029-8.7309-1.8647-16.349 4.987-16.262 10.437 0.02891 1.6479 7.083 21.582 7.083 22.377-0.47702 6.3458-12.431 23.996-11.954 27.002 0.62157 3.8595 16.103 7.2276 29.286 7.589-0.72276-2.1394 1.0841-5.6375 3.2813-6.8951 2.414 0.30356 4.7847 1.0841 6.765 1.9659-1.1564-2.2406 2.4429-7.8202 3.2524-7.7335-0.50593-1.3877-0.23128-4.0041 1.2721-5.3918-3.874-0.69385-8.2973-1.0986-12.403-0.92513 6.0856-7.56 11.13-16.782 10.625-20.396" fill="#e3c583"/>
   <path d="m124.05 224.52c-2.1104-0.44811-10.249-1.4889-10.682-1.5322-1.8647 1.5612-1.7202 6.6638-1.3154 6.8662 3.4548 0 11.477-2.0671 14.368-2.9922-0.78058-0.76612-1.5756-1.5467-2.3706-2.3417" fill="#525557"/>
   <path d="m106.01 227.77c-1.7491 1.1998-3.209 4.3655-2.6019 6.6638 5.0448 0.36137 9.685 0.0723 12.663-1.301 1.6912-0.78058-8.7165-5.1171-10.061-5.3629" fill="#525557"/>
   <path d="m140.77 205.65c-9.1646-6.0133-24.097-26.67-28.621-34.822-2.3706-4.2498-3.9752-7.589-6.5482-9.4248-0.78058-0.56375-1.6334-0.98295-2.6308-1.2576-8.0804-2.1683-19.905 1.6912-17.549 10.899 3.209 12.562 40.446 62.865 60.061 70.31-1.4022-3.5126 1.2287-9.0634 5.5797-9.8584 1.46 0.5782 3.079 1.301 4.7268 2.1104-0.70831-3.4692 0.5782-8.9333 4.6401-10.191 0.59266 0.17347 1.1709 0.36138 1.7635 0.56376-0.85286-2.7465 0.40474-7.6757 3.7583-7.8781-7.907-4.7124-14.527-3.4548-25.181-10.451" fill="#e3c583"/>
   <path d="m114.16 216.08c-3.0356-0.1301-7.2131 0.0723-10.133 1.1564 0.44811-0.72276 3.2235-6.7072 4.4666-9.9596-0.53484-0.65048-1.0697-1.2865-1.5901-1.937-6.5193 4.7991-22.955 14.224-27.985 15.583-0.72276 1.937-1.4166 4.6979-1.0841 6.0133 0.65048 2.5586 14.137 6.6927 25.571 7.5022-0.60712-2.2984 0.8673-5.464 2.6164-6.6638 1.8069 0.33247 3.8017 1.0263 5.5363 1.8069-0.39029-1.5756 1.3877-6.6349 1.1709-6.6494-0.17346-1.4166 0.31801-5.1605 1.4311-6.8517" fill="#e3c583"/>
   <path d="m93.468 128.96c-1.1853-0.43365-13.964-8.2828-16.609-13.544-6.7216 2.8188-12.749 5.9844-18.199 9.3958-5.3629 28.997 19.673 57.315 37.945 66.898-2.732-3.9318-10.61-16.291-11.188-20.656-1.2576-9.4248 9.4681-13.067 17.549-10.899 3.397 0.91068 5.1171 3.368 9.179 10.682 2.8188 5.0593 7.5022 12.012 12.619 18.517 8.543-9.2947 15.669-20.411 19.37-30.096-22.94 5.3629-45.216-10.393-50.665-30.298" fill="#525557"/>
   <path d="m130.4 67.105c3.5993-1.1564 4.6401-6.6494 2.8477-12.215-1.9514-6.0133-5.8254-9.4103-9.4681-8.225-2.3706 0.76612-5.464 4.1197-2.8477 12.215 1.9659 6.0423 6.3314 9.2368 9.4681 8.225" fill="#525557"/>
   <path d="m123.3 47.207c-1.8214 0.59266-2.5875 2.732-1.8792 4.9437 0.7083 2.1538 2.6887 3.4548 4.4233 2.9055 1.7346-0.56375 2.573-2.7898 1.8647-4.9437-0.69385-2.1683-2.6742-3.4692-4.4088-2.9055" fill="#fff"/>
   <path d="m186.81 50.263c2.8621-0.92513 3.5849-5.7242 1.9804-10.653-1.7202-5.3195-4.9437-8.4129-7.8492-7.4733-2.6019 0.85285-3.8017 5.0304-1.9804 10.653 1.7346 5.3629 5.3484 8.2828 7.8492 7.4733" fill="#525557"/>
   <path d="m182.38 39.004c1.2287-0.39029 1.778-2.096 1.2287-3.7872-0.5493-1.6913-1.9948-2.7465-3.209-2.3417-1.2287 0.39029-1.778 2.0815-1.2287 3.7728 0.54929 1.6913 1.9804 2.7465 3.209 2.3562" fill="#fff"/>
   <path d="m86.357 217.68c7.4299-3.556 14.296-7.748 20.541-12.345-3.715-4.5823-7.2276-9.2224-10.292-13.617-0.92513-0.49147-1.8358-1.0119-2.732-1.5467-8.2828 7.748-17.361 14.527-27.103 20.179 5.7965 3.4692 12.33 6.0422 19.587 7.3288" fill="#d0879d"/>
   <g fill="#38383a">
    <path d="m72.691 252.51c-2.9199 0.92513-6.0712 1.8503-9.2802 2.3851 0.04337 0.33247 0.10119 0.63603 0.18792 0.89622 1.1709 0.14455 2.3706 0.36138 3.556 0.65048 3.0211-0.63602 8.3262-2.1249 7.9359-2.5296-0.4192-0.44811-1.2576-0.92513-2.3996-1.4022"/>
    <path d="m61.69 264.19c-3.2813 3.5126-11.463 4.0474-11.391 4.2643 5.9555 0.15901 11.448-0.2891 14.889-1.5901-0.73721-0.96849-2.0093-1.8792-3.4981-2.6742"/>
    <path d="m73.41 258.55c-2.3273 2.9778-12.908 4.6256-12.749 4.9581 4.5534-0.27465 13.675-1.7057 15.351-2.6887-0.80949-0.99741-1.4166-1.6479-2.6019-2.2695"/>
    <path d="m116.22 216.23c-0.59266-0.0578-1.2865-0.11564-2.0526-0.14455-1.1275 1.6768-1.6045 5.4207-1.4311 6.8517 0.20237 0.0145 6.4904-1.2576 8.0515-1.778-1.5178-1.5901-3.05-3.238-4.5678-4.9292"/>
   </g>
   <path d="m130.53 87.441c-7.9503 1.3732-14.455-1.0119-20.396-7.748-7.3577 3.4548-15.944 3.5271-27.566-1.0697 7.1698 8.3695 25.976 15.048 47.962 8.8176" fill="#bfa66f"/>
   <path d="m31.884 229.72c-0.37583-1.0552-1.0263-2.6308-1.7346-4.2643-5.2183 1.3732-10.552 2.4863-16.002 3.2958 5.7821 0.65049 11.709 0.99741 17.736 0.9685" fill="#d0879d"/>
   <path d="m146.8 135.05c-5.1316-1.4744-19.298-4.3221-19.341-4.3366 1.4889 8.5719-2.1104 18.907-7.0975 26.988 7.3866 2.732 15.583 3.4692 23.779 1.5612 3.4982-9.1501 4.8714-16.132 2.6598-24.212" fill="#d0879d"/>
   <path d="m147.52 145.67c-1.0119 10.466-3.5271 15.785-8.9622 25.138 2.2695 2.3417 12.258 10.523 18.315 15.568-7.2709-11.116-5.5797-25.745-0.82394-32.784-3.0211-2.8766-7.401-6.7072-8.5285-7.9214" fill="#bfa66f"/>
   <path d="m231.84 141.47c1.8358-1.0408 3.209-2.3706 4.0474-4.0185-1.2287-2.9488-3.6861-5.9266-5.9989-7.6468 2.4429 3.9463 3.3681 7.9648 1.9514 11.665" fill="#923000"/>
   <g fill="#38383a">
    <path d="m218.48 184.44c-1.272 2.9778-8.6442 4.9148-10.914 6.2735 5.0015-0.10119 13.429-3.1657 15.496-4.0908 1.1564-0.52039-3.0789-1.301-4.5823-2.1827"/>
    <path d="m215.11 192.84c-2.3273 3.556-8.3262 4.3076-12.229 5.4785 2.0526 1.1709 14.036-1.619 17.072-2.4718 1.2142-0.33247-0.75167-1.6768-4.8425-3.0067"/>
    <path d="m209.31 200.81c-0.99741 2.4718-10.379 5.0593-13.617 6.3892 4.3221-0.69385 14.701-2.7031 17.823-3.4837-0.85285-1.2142-1.937-2.0526-4.2064-2.9055"/>
   </g>
   <path d="m209.84 155.88c10.307 1.2287 23.388-5.4351 26.467-13.125 0.62157-1.5467 0.34692-3.4114-0.4192-5.2906-4.6401 9.2224-20.237 8.543-26.149 6.5048-8.7454 5.464-37.164-2.4285-49.119-4.0185 20.194 6.7506 44.16 15.322 49.22 15.93" fill="#bfa66f"/>
   <path d="m192.85 106.55c-27.609 10.119-53.556 7.7769-70.7-3.6138 3.1368 6.7939 20.006 16.898 34.302 23.591 15.828-8.8032 44.406-12.244 65.973-5.146-7.9937-7.0397-19.457-12.937-29.575-14.831" fill="#ce7486"/>
   <g fill="#38383a">
    <path d="m62.224 226.16c5.8399-1.3732 22.81-7.8492 24.14-8.4852-7.2131-1.272-13.776-3.8306-19.616-7.2998-3.3102 1.9081-6.6927 3.6861-10.133 5.3484 2.5152 3.9029 4.5678 7.7624 5.6086 10.437"/>
    <path d="m173.41 229.73c-3.715 2.573-10.205 3.6138-16.132 3.9896 5.5941 0.2602 17.997 0.65048 19.702 0.0867 1.3299-0.4192 0.31802-1.7057-3.5704-4.0764"/>
    <path d="m178.84 220.11c-2.1538 3.2235-9.6416 3.7872-14.571 4.3799 0.57821 0.24574 2.0671 1.1564 2.6164 1.4166 4.2787-0.27465 12.648-1.3299 15.684-2.1105 2.4574-0.63602-0.0145-2.1538-3.7294-3.6861"/>
    <path d="m163.07 237.96c-3.9607 3.0356-12.46 2.6887-17.245 3.1801 5.9266 1.8069 19.861 1.5033 21.524 0.9685 0.89622-0.2891-0.69385-1.7924-4.2787-4.1486"/>
    <path d="m124.05 224.52c-2.1104-0.44811-10.249-1.4889-10.682-1.5322-1.8647 1.5612-1.7202 6.6638-1.3154 6.8662 3.4548 0 11.477-2.0671 14.368-2.9922-0.78058-0.76612-1.5756-1.5467-2.3706-2.3417"/>
    <path d="m106.01 227.77c-1.7491 1.1998-3.209 4.3655-2.6019 6.6638 5.0448 0.36137 9.685 0.0723 12.663-1.301 1.6912-0.78058-8.7165-5.1171-10.061-5.3629"/>
   </g>
   <path d="m114.16 216.08c-3.0356-0.1301-7.2131 0.0723-10.133 1.1564 0.44811-0.72276 3.2235-6.7072 4.4666-9.9596-0.53484-0.65048-1.0697-1.2865-1.5901-1.937-6.5193 4.7991-22.955 14.224-27.985 15.583-0.72276 1.937-1.4166 4.6979-1.0841 6.0133 0.65048 2.5586 14.137 6.6927 25.571 7.5022-0.60712-2.2984 0.8673-5.464 2.6164-6.6638 1.8069 0.33247 3.8017 1.0263 5.5363 1.8069-0.39029-1.5756 1.3877-6.6349 1.1709-6.6494-0.17346-1.4166 0.31801-5.1605 1.4311-6.8517" fill="#bfa66f"/>
   <path d="m111.79 170.24c0.11564 0.20237 0.24574 0.40474 0.34692 0.59266 2.8188 5.0593 7.5022 12.012 12.619 18.517 8.543-9.2947 15.669-20.411 19.384-30.096-8.2539 1.937-16.407 1.113-23.735-1.619-2.6887 4.3654-5.5652 8.5719-8.6153 12.605" fill="#38383a"/>
   <g fill="#0f141b">
    <path d="m215.26 90.536c0.76612 2.3851 3.1946 3.7439 5.4062 3.0211 2.2116-0.7083 3.3825-3.238 2.6164-5.6231-0.76612-2.3706-3.1946-3.7294-5.4062-3.0211-2.2116 0.72276-3.3825 3.238-2.6164 5.6231"/>
    <path d="m243.08 80.97c0.78058 2.4285 2.6887 3.9029 4.3366 3.3681 1.6479-0.53484 2.1827-2.9199 1.4022-5.3484-0.78058-2.414-2.5441-3.8306-4.192-3.2958-1.6479 0.53484-2.3273 2.8477-1.5467 5.2761"/>
    <path d="m147.61 66.108c-1.1564 9.6271-6.765 17.173-14.629 19.717-12.027 3.9029-25.658-4.828-30.399-19.457-4.7413-14.672 1.2287-30.298 13.053-34.129s25.817 5.334 30.573 20.006c0.0867 0.26019 0.27465 0.47702 0.53484 0.59266 0.26019 0.11564 0.5493 0.11564 0.79503 0.01445 3.4982-1.5467 15.062-4.7702 18.98-4.6401 0.33247 0 0.62157-0.15901 0.82395-0.40474 0.18791-0.26019 0.24573-0.60712 0.14455-0.91068-4.2354-13.067-0.60712-25.976 8.0804-28.78 8.6731-2.8188 19.182 5.5219 23.417 18.589 4.1631 12.851 0.69384 25.557-7.7046 28.621-7.2131-1.4022-12.908-3.1946-20.353-6.1145-1.8647-0.69385-23.085 4.9581-23.316 6.8951m83.551 3.9896c-17.433-1.6913-27.248-2.7031-35.661-4.1197 7.5167-4.828 9.8584-17.057 5.7965-29.59-4.5678-14.094-16.623-23.302-26.337-20.15-7.9214 2.5586-14.123 15.915-10.119 29.821-4.7991 0.34692-12.966 3.2235-16.754 4.669-5.3918-15.106-20.497-24.429-33.059-20.367-12.836 4.1631-19.616 21.466-14.527 37.15 5.0593 15.669 20.035 24.429 33.088 20.194 8.3695-2.7031 14.513-10.538 16.002-20.512 6.9529-3.5993 17.867-5.9411 20.989-6.0278 7.4878 3.9896 25.036 8.8466 60.423 10.899 0.5493 0.02891 0.69385-1.9225 0.15901-1.9659"/>
    <path d="m199.59 85.043c-0.63603 3.6427 0.75167 5.8399 1.2865 2.1683 1.9804-13.588 17.939-17.375 26.005-10.711 1.8936 1.5612 2.2839 0.31801 0.47702-1.3299-9.2947-8.4274-25.484-3.2958-27.768 9.8729"/>
    <path d="m121.16 102.22c-2.1249 2.8621-5.4207 6.2591-8.0371 8.066-3.1368 2.1394-2.6308 3.05 0.34693 1.4166 2.9055-1.5901 6.1434-4.3076 8.7165-7.589 21.047 13.602 53.195 14.166 82.611-0.95404 10.191 5.6664 23.894 1.4021 29.142-8.2539 6.4326 2.6308 15.51-1.4311 18.691-4.7268 6.6927-6.9385 0.31801-19.659-4.1775-22.42-6.3603-3.9029-14.34-1.8503-17.823 2.6308-2.1249 2.7176-1.2142 4.3944 0.89622 1.6768 2.9633-3.8162 10.263-5.6375 15.583-2.3706 4.3944 2.7031 8.4996 13.949 3.5993 19.023-3.2958 3.4114-11.636 6.7939-16.725 4.1342-0.69385-0.37583-1.0697-0.15901-1.3588 0.46256-4.2932 9.3669-20.035 11.824-27.45 7.3432-0.28911-0.17346-0.63603-0.20237-0.93959-0.0434-29.85 14.643-61.16 15.178-81.729 1.3732-0.63603-0.4192-1.1275-0.0723-1.3443 0.23128"/>
    <path d="m200.74 53.962c4.0041 1.9514 13.169 7.3577 11.506 15.308-0.10118 0.53484 2.2116 0.47702 2.3128-0.05782 1.8936-9.9307-8.5285-14.86-12.952-17.028-0.49148-0.23128-1.3588 1.5467-0.86731 1.778"/>
    <path d="m177.21 62.613c-20.006 3.5271-22.449 25.398-20.7 28.968 2.2695 4.6401 20.859 6.6205 24.126 3.715 0.89622-0.78058 1.3588-2.891 1.8358-5.3918 1.301-6.7795 4.6979-18.951 19.948-21.047 0.54929-0.07228-2.6308-1.7924-3.0356-1.6913-15.25 3.5704-17.577 15.742-18.85 22.362-0.30356 1.6479-0.66494 3.5126-1.0552 3.8595-2.7031 2.3851-19.789 0.21683-21.206-2.6742-2.1249-4.3655 3.6282-23.865 21.032-26.222 0.53484-0.07228-1.7057-1.9514-2.096-1.8792"/>
    <path d="m121.04 103.19c5.652 13.472 47.89 30.385 71.842 37.93 23.403 7.3721 40.373 6.765 43.727-2.732 0.17346-0.52039-1.5756-2.5007-1.7491-1.9804-2.8766 8.1527-19.977 9.0923-41.587 2.2839-30.63-9.656-65.728-25.109-70.411-36.268-0.21683-0.49148-2.0382 0.26019-1.8214 0.76612"/>
    <path d="m192.32 107.68c16.898 2.5586 44.97 22.449 38.147 33.854-0.2891 0.46257 2.2406-0.0289 2.4429-0.56375 5.652-15.221-24.256-32.9-38.494-35.054-0.53484-0.0867-2.6308 1.6768-2.096 1.7635"/>
    <path d="m82.519 79.566c-17.158 19.153-9.7717 42.137 6.2157 49.292 10.639 4.7702 18.936 3.9029 27.06 3.5126 5.2617-0.24573 10.697-0.50593 17.491 0.50593 11.058 1.6624 32.423 9.7572 49.046 15.612 12.908 4.5534 23.215 9.0345 27.436 9.5404 10.711 1.2865 24.747-5.6953 28.072-13.949 1.937-4.8425-3.3247-12.446-7.5167-15.077-0.46257-0.2891-0.23129 2.2116 0.159 2.5441 3.4114 2.7609 6.1579 7.719 4.9148 10.841-2.9778 7.401-15.467 13.516-25.224 12.345-4.0041-0.47702-15.062-4.3799-27.855-8.8899-17.577-6.2013-37.497-13.226-48.743-14.918-6.9818-1.0408-12.518-0.78058-17.867-0.52039-8.225 0.39029-15.322 0.73722-25.528-3.8306-13.617-6.1145-20.902-26.916-5.3195-45.765 0.34692-0.4192-1.9804-1.6479-2.3417-1.2431"/>
    <path d="m201.88 103.55c0.63603 0.80949 10.263 10.191 12.113 9.9162 0.57821-0.0867 2.6742-3.1079 4.9148-8.7309l-2.2839-0.33247c-1.5901 3.715-2.6453 6.0134-3.209 7.0252-1.9948-1.5033-8.225-7.4878-9.8729-9.5838-0.34692-0.4192-1.9948 1.2721-1.6623 1.7057"/>
    <path d="m233.66 94.681c0.0578 0.08673 7.242 8.861 9.0056 8.8176 1.1998-0.0289 4.669-8.9911 5.146-10.61-0.1301 0.53484-2.1972 0.10119-2.0671-0.43366-0.53484 2.1105-2.3851 7.3288-3.368 9.0056-1.7057-1.4889-6.0856-6.4904-6.7361-7.4299-0.20238-0.2891-2.1827 0.36138-1.9804 0.65048"/>
    <path d="m115.01 30.378c-26.944 11.073-41.313 31.744-37.526 44.117 3.2235 10.567 28.014 21.495 56.433 13.082 3.7005-1.0986-2.1683-0.98295-7.4878-0.04336-24.516 4.3221-43.178-5.8832-45.635-13.877-3.209-10.509 7.1987-27.364 27.855-38.104 2.1394-1.1275 6.8662-5.3773 6.3603-5.1749"/>
    <path d="m139.86 38.472c-0.50593 0.20237 0.11564 2.2695 0.62157 2.0671 2.3417-0.98295 8.7598-2.6742 12.648-2.4429 2.8043 0.15901 1.8792-1.619-0.92513-1.778-4.5389-0.26019-10.234 1.2865-12.345 2.1538"/>
    <path d="m142.56 38.358 3.1657-0.11564c4.0908-8.5864 12.937-15.048 26.352-19.24 2.6598-0.82394 5.5219-3.3536 3.4692-2.891-16.479 3.6572-27.58 10.755-32.987 22.246"/>
    <path d="m-43.84 194.73c12.894 0.39029 25.86-0.0434 42.599-9.497 6.6205-3.7439 12.518-11.246 19.341-19.948 12.721-16.175 28.534-36.311 59.541-49.133 0.49148-0.20237-2.1972-2.0671-2.7031-1.8503-32.062 13.212-46.329 32.669-58.5 48.165-6.6927 8.5285-13.501 17.534-19.775 21.076-16.291 9.2079-27.841 9.5982-40.446 9.2224-10.162-0.30356-15.958 6.4036-2.0237 16.392 16.06 11.506 45.592 22.68 78.13 22.564-0.26019-0.8384-0.01445-2.0671-0.2891-2.9199-31.758 0.24574-60.972-9.9741-76.699-21.249-9.02-6.4614-9.2658-13.125 0.82394-12.822"/>
    <path d="m62.029 225.23c0.79503 0.75167 1.0119 1.6912 1.1709 2.6453 13.92-3.2813 32.177-11.261 45.143-21.076-0.82394-0.59266-1.3443-1.6912-2.0237-2.3273-12.706 9.4103-30.428 17.462-44.291 20.758"/>
    <path d="m148.4 136.19c-0.10119-0.47702-2.7754-1.7057-2.6308-1.1853 3.9607 13.66-4.5389 34.707-21.582 53.354 0.59266 0.76612 1.0841 1.5612 1.5901 2.3562 17.202-18.85 25.846-40.229 22.622-54.525"/>
    <path d="m-24.03 192.27c-6.9385 6.7361-5.7387 20.252 1.5467 28.072 0.39029 0.4192 2.9199 0.0578 2.5152-0.30356-8.8899-7.7913-7.6612-22.608-2.0815-26.887 0.43366-0.33246-1.7202-1.1275-1.9804-0.88176"/>
    <path d="m27.672 218.05c-13.039 4.2064-26.178 6.2013-38.566 5.4351-0.5493-0.0289 1.7491 1.8503 2.2984 1.8647 12.099 0.40475 24.516-1.4889 36.687-5.2328-0.20237-0.60712-0.24574-1.3299-0.4192-2.0671"/>
    <path d="m84.941 183.74c-8.0082 7.5167-16.84 14.209-26.135 19.876 0.69385 0.47702 1.1853 1.142 1.6623 1.778 9.497-5.7676 18.445-12.605 26.54-20.252-0.75167-0.37583-1.4744-0.79503-2.0671-1.4022"/>
    <path d="m120.23 130.69c-2.4285 7.3866-5.7387 14.556-9.7572 21.423 0.7083 0.37583 1.301 0.95404 1.8936 1.5467 4.2354-7.1842 7.7335-14.658 10.307-22.348 0.17346-0.50593-2.2695-1.142-2.4429-0.62157"/>
    <path d="m36.731 141.28c-9.9741 21.466 6.1868 70.541 48.887 77.653 0.53484 0.0867 2.0237-2.0093 1.4889-2.1105-40.041-6.6638-58.659-53.209-48.193-75.745 0.23128-0.49148-1.9514-0.28911-2.1827 0.20237"/>
    <path d="m14.538 166.48c-4.5245 10.668-1.6623 43.524 11.665 53.267 0.43366 0.33247 2.3273-1.0408 1.8936-1.3588-12.446-9.0923-15.958-41.197-11.738-51.142 0.20237-0.49147-1.6045-1.272-1.8213-0.76612"/>
    <path d="m57.435 125.29c-4.8858 22.362 14.499 55.262 38.711 67.332 0.47702 0.24573 0.24574-2.0815-0.07228-2.2406-23.07-12.113-40.966-44.247-36.311-65.569 0.11564-0.53484-2.2116-0.0578-2.3273 0.47702"/>
    <path d="m92.504 129.05c4.9437 19.514 26.8 37.569 51.431 31.57 0.52039-0.1301 0.85286-2.5297 0.33247-2.3996-22.839 5.5508-45.158-11.073-49.856-29.648-0.1301-0.53484-2.0382-0.0434-1.9081 0.47702"/>
    <path d="m24.9 211.5c0.04336 5.305 7.1119 19.384 7.083 22.348-0.23128 3.1512-5.0593 10.74-8.0515 16.32-6.1145 11.362-5.6664 12.2-2.0815 14.267 7.3577 4.2643 30.544 6.6205 41.428 4.033 3.3536-0.80949 3.4403-1.8647 0.4192-3.9173-2.7609-1.8936-6.9818-3.5993-11.347-3.7294-2.6597-0.0867-2.9778 1.4889-0.43365 1.5756 4.7124 0.14455 9.5982 2.5875 11.564 3.9607-9.9596 2.7754-32.669 0.10119-39.766-4.0041-2.6308-1.5178-1.9659-2.5586 3.05-11.897 3.238-6.0422 6.9096-12.88 7.1987-16.537-0.08673-3.4114-7.2854-18.821-7.0975-22.449 0.26019-4.7702 7.4878-11.087 15.077-9.4681 8.066 1.7202 19.486 22.348 20.179 27.205 0.46256 3.2813-4.6112 12.648-11.087 20.454-1.3877 1.6768 0.5493 2.1249 1.937 0.46256 6.1434-7.4155 12.403-16.985 11.795-21.321-0.76612-5.4351-13.039-27.552-22.189-29.503-9.4103-2.0093-17.736 5.9411-17.679 12.2"/>
    <path d="m51.727 250.61c8.7165-0.8384 18.054 1.46 21.48 3.1946-1.5901 0.54929-4.3655 1.301-6.4036 1.6623-0.53484 0.10119 0.85285 1.8503 1.5756 1.7057 1.778-0.37583 5.0304-1.1275 6.6783-2.0093 1.6768-0.88176 1.8213-1.5033-0.37583-2.7754-3.7873-2.1683-12.128-4.5245-22.16-3.556-0.5493 0.0434-1.2576 1.8214-0.79503 1.778"/>
    <path d="m60.746 256.61c5.1027-0.10119 12.012 2.3273 14.036 3.6716-2.7898 0.89622-11.073 2.1683-14.773 2.1972-0.53484 0 1.3154 2.1105 1.8214 2.0815 3.8017-0.23128 10.046-1.5322 13.255-2.4718 3.5849-1.0697 2.2116-1.9804-0.43366-3.6716-3.1801-2.0526-9.0056-3.7728-13.862-3.397-3.2669 0.2602-3.2235 1.6479-0.04337 1.5901"/>
    <path d="m53.082 261.16c-2.6164 1.5033-4.828 5.0304-3.6138 7.6612 0.21683 0.50593 2.0093-0.31801 1.7924-0.80949-0.5493-1.2142 0.52038-4.6112 2.9199-5.4785 0.50593-0.18792-0.82394-1.5322-1.0986-1.3732"/>
    <path d="m62.223 255.76c-2.3706 1.7202-3.7439 5.5508-2.8766 7.8636 0.18792 0.52039 2.0237-0.17346 1.8358-0.67939-0.62157-1.6768 0.60712-5.3773 2.4574-6.2157 0.49148-0.23129-1.1853-1.142-1.4166-0.9685"/>
    <path d="m63.982 250.34c-1.4889 1.1564-2.1538 4.1197-1.4022 5.7242 0.23128 0.49148 2.0237-0.34692 1.7924-0.8384-0.47702-0.9974-0.20237-3.0211 1.301-4.0764 0.44811-0.30356-1.3877-1.0408-1.6913-0.80949"/>
    <path d="m77.861 221.29c-2.1827 5.0882-2.3417 7.2276 2.3128 9.4392 7.3577 3.5126 24.747 6.447 33.854 3.9752 2.9344-0.79503 3.9896-2.0382 1.9804-3.6861-2.4429-1.9948-7.083-3.6716-10.668-3.8595-2.9633-0.14455-3.8017 1.2576-0.96849 1.3877 3.6138 0.18791 8.7743 2.6887 10.451 4.0185-7.5167 2.6742-24.371-0.30356-32.654-3.8162-4.6256-1.9514-4.1342-2.9199-2.1538-7.5167 0.21683-0.50593-1.937-0.44811-2.1538 0.0578"/>
    <path d="m110.28 222.74c3.6861 0.33247 10.899 2.0671 14.137 2.9199 0.53484 0.14455 0.44811-1.8214-0.0867-1.9659-2.6164-0.67939-8.8755-2.414-12.345-2.3128-3.4982 0.10118-4.3221 1.113-1.7057 1.3588"/>
    <path d="m113.71 231.2c2.6308-0.20237 10.451-2.4863 12.952-3.397 0.52038-0.18792-0.15901-2.0382-0.66494-1.8503-2.5586 0.92513-11.362 2.9344-13.631 3.1223-0.5493 0.0289 0.79503 2.1683 1.3443 2.1249"/>
    <path d="m107.74 206.48c-1.142 3.1368-4.1486 9.5982-4.5534 10.263-0.69385 1.1275-0.0434 1.8936 1.1853 1.4311 3.9174-1.4744 10.162-1.2142 12.403-0.88176 0.53484 0.0867-0.49147-2.0526-0.9974-2.096-2.4574-0.21683-5.9844-0.67939-9.3958 0.0723 0.9974-2.1249 1.9659-4.9148 2.8477-7.1698 0.14455-0.34693 0.26019-0.66494 0.36138-0.93959 0.0867-0.21683-1.6623-1.1853-1.8503-0.67939"/>
    <path d="m116.28 223.5c1.9081-0.52039 4.192-1.2142 5.3918-1.5901 0.52039-0.17346-0.96849-1.7635-1.1853-1.6912-1.619 0.50593-4.3655 1.3154-6.0712 1.7346-0.2602 0.0578-0.49148 0.11564-0.69385 0.15901-0.53484 0.10118 1.7202 1.619 2.5586 1.3877"/>
    <path d="m104.96 227.57c-1.9948 1.5033-3.3536 4.5245-2.3996 7.1408 0.18792 0.52038 2.0382-0.15901 1.8503-0.66494-0.7083-1.9659 0.75167-4.5967 2.414-5.305 0.50594-0.21683-1.5178-1.4311-1.8647-1.1709"/>
    <path d="m112.98 222.87c-2.8332 1.9081-2.6453 5.3918-1.8358 7.0975 0.23128 0.49148 1.8936-0.18792 1.6623-0.67939-0.72276-1.5178 0.14455-4.9581 1.8503-6.1145 0.40474-0.27465-1.2576-0.57821-1.6768-0.30356"/>
    <path d="m113.71 215.55c-1.4744 1.6334-1.937 5.0015-1.7202 6.765 0.0289 0.24574 2.0093 0.89622 1.8358 0.39029-0.26019-0.80949 0.20237-4.5678 1.3443-5.8399 0.36138-0.40475-1.0986-1.7202-1.46-1.3154"/>
    <path d="m83.65 171.46c4.7268 18.474 46.979 66.089 61.868 71.307 2.1394 0.75167 15.525 0.92513 20.44 0.53485 2.6164-0.21683 3.9896-1.2721 1.3299-3.7439-3.8451-3.5849-14.007-8.2973-18.069-9.4103-2.6019-0.72276-3.5126 0.72275-1.0986 1.3877 5.8399 1.619 16.089 7.56 18.17 9.7717-3.6572 0.4192-17.202-0.0723-19.514-0.54929-14.961-3.0645-56.086-54.149-60.408-69.948-2.0671-7.5456 7.907-11.983 16.334-9.7139 3.4982 0.93959 6.0133 5.8543 7.56 8.702 2.5586 4.6835 17.404 28.433 29.966 36.673 6.9385 4.5678 11.897 5.9844 16.696 7.3577 2.8621 0.80948 5.5652 1.5901 8.5141 3.0067 0.49147 0.23128 3.1946-0.93959 2.7176-1.1998-3.5704-1.8936-7.4444-3.1657-10.393-4.0041-4.6546-1.3299-9.4681-2.7031-16.146-7.0975-10.885-7.1408-24.415-27.06-29.315-35.791-2.1538-3.8451-4.7846-8.384-9.0778-9.5404-8.7309-2.3562-22.145 2.1683-19.572 12.258"/>
    <path d="m157.7 223.76c8.0515 1.5901 16.566 7.1698 18.271 9.2368-3.397 0.53484-15.828 0.34693-20.208-0.39029-0.53484-0.0867 1.7924 2.6453 2.414 2.7031 4.828 0.52038 12.908 0.14455 17.202-0.24574 2.8188-0.26019 3.6861-1.6912 1.7635-3.715-3.1368-3.2958-10.61-7.3577-17.708-8.7598-2.7465-0.53484-4.3076 0.66494-1.7346 1.1709"/>
    <path d="m161.46 224.32c0.21683 0.50593 2.0237-0.2891 1.8069-0.78058-0.96849-2.255 0.85286-6.765 3.2958-6.4325 3.9174 0.54929 13.226 4.1342 15.366 5.811-3.4982 0.79503-11.954 1.6479-15.525 1.7635-0.54929 0.0144 0.89622 2.1972 1.4455 2.1827 3.4837-0.10119 10.162-1.1275 14.036-1.9225 3.7728-0.76612 3.8017-2.1249 0.0434-4.3799-4.3076-2.6019-13.024-5.1171-15.106-5.4062-5.4062-0.73721-6.4181 6.7072-5.3629 9.1646"/>
    <path d="m150.33 230.81c-4.5245 0.8384-7.8925 7.1264-5.146 11.289 0.2891 0.46256 1.937-0.62158 1.6479-1.0841-1.5756-2.3851-0.54929-8.3117 4.8136-8.3551 0.53484 0-0.89622-1.9225-1.3154-1.8503"/>
    <path d="m159.54 222.8c-3.4692 1.1853-5.7965 6.3747-4.2354 11.188 0.15901 0.50593 2.0382-0.10119 1.8647-0.60712-1.0841-3.397-0.30355-8.3262 3.9752-8.9477 0.53484-0.0723-1.1853-1.778-1.6045-1.6334"/>
    <path d="m138.02 172.59c4.4956 4.8425 28.318 23.519 30.471 24.848 4.1775 2.5875 23.229 10.726 27.06 10.957 2.9344 0.159 13.067-2.2839 17.708-3.3825 2.1104-0.49147 1.9948-2.0093-0.11564-3.368-3.238-2.0526-10.769-4.351-15.987-4.51-3.0211-0.0867-2.8332 1.937 0.0723 2.0237 5.7387 0.18792 12.012 2.5875 14.527 3.9752-5.2617 1.2142-14.108 2.9344-16.479 2.7898-3.2235-0.18792-21.206-7.589-25.412-10.191-2.1249-1.3154-25.976-20.917-30.414-25.716-0.36138-0.39029-1.8069 2.1683-1.4311 2.573"/>
    <path d="m197.19 198.04c-2.2839 1.46-4.2064 5.6953-1.5901 9.338 0.31802 0.44811 1.6624-0.52039 1.3732-0.98295-1.5178-2.4285-1.0263-6.447 1.5033-7.2709 0.52038-0.17347-0.91068-1.3299-1.2865-1.0841"/>
    <path d="m202.97 190.86c3.7294 0.50593 12.316 2.9344 15.453 4.3655-4.1631 1.0697-12.822 2.9199-15.178 3.05-0.5493 0.0289 0.53484 1.8358 1.0697 1.8069 2.891-0.15901 11.607-2.1394 15.25-3.1079 2.3273-0.62157 2.2984-2.0815 0.11564-3.2958-5.8399-3.209-14.137-4.2932-16.219-4.3799-3.6427-0.14455-3.9463 1.0841-0.49148 1.5612"/>
    <path d="m203.32 189.81c-2.6887 2.0382-3.0645 6.4759-1.3732 9.4826 0.26019 0.47702 1.9804-0.47702 1.7202-0.95404-1.301-2.3273-1.1275-6.2157 0.91068-7.4589 0.47702-0.2891-1.142-1.1709-1.2576-1.0697"/>
    <path d="m147.21 146.92c2.1538 2.7176 28.795 27.234 35.458 30.977 3.9607 2.2405 35.444 7.6757 38.335 8.4707-3.9174 1.4311-12.605 3.715-13.66 3.6572-0.52038-0.0289 2.6887 1.9225 3.4692 1.7635 3.238-0.63603 8.861-2.8043 11.68-3.874 2.4718-0.93959 2.2406-2.4285-0.26019-3.238-2.1249-0.67939-35.748-7.5745-38.986-9.2368-6.2591-3.1946-32.857-29.17-35.155-32.062-0.33246-0.4192-0.95404 3.4403-0.88176 3.5415"/>
    <path d="m208.2 182.38c-3.0645 1.4166-3.9607 4.8425-2.2839 8.543 0.21682 0.49147 2.0093-0.31802 1.7924-0.80949-1.3877-3.0934-0.89621-5.652 1.8069-6.5193 0.52038-0.17346-1.0697-1.3299-1.3154-1.2142"/>
   </g>
  </g>
 </g>
</svg>
