<?xml version="1.0" encoding="UTF-8"?>
<svg version="1.1" viewBox="0 0 370.67 357.95" xmlns="http://www.w3.org/2000/svg">
 <g transform="translate(.01 -.019231)">
  <path d="m284.75 29.1q6.65 4.9 8.15 8.75 1.35 3.45-3.65 14.3-5.3 11.5-10.9 14.35l-2.55-5q-2.4-4.05-4.05-5.25-1.85-1.1-7.75-2.3-5.55-1.1-8.4-1.1l-8.8 17.15q2.45 2.75 6.35 5.45 3.75 2.55 6.4 3.35l13.4-1.05q-1.2 3.3-6.75 7.7-4.8 3.85-7.8 4.9-1.75-1.55-6.95-4.15-5.7-2.9-10.6-4.5l-5.7 11.15q-3.6-4.05-7.2-14.65l-14.05-2.4-6.45-1.05-4.1-5.15q-3.7-4.85-4.45-6.25 0.05-2.25 0.55-2.75-2.55-3.1-6.75-9.7-4.5-7.05-4.65-8.55-0.4-6.8 13.4-20.95 13.85-14.25 20.85-13.85 0.4 0.05 4.15 2.05 4.75 2.55 9.15 4.3 15.55 6.15 33.45 5.95 9.45 4.65 15.7 9.25" fill="#005e97"/>
  <path d="m246.35 38.2q2.5-2.6 3.25-6.95l6.55-1.2q0 7.4-5.25 12.45-5.15 4.95-11.95 4.55-6.45-0.35-10.35-5.1-3.8-4.6-3.8-11.45 0-2.1 0.45-4.05l5.55 2.2q0.1 5.45 1.95 8.6 2.25 3.75 6.85 3.75 4.05 0 6.75-2.8" fill="#d3edfb"/>
  <path d="m244.05 31.95 5.55-0.7q-0.75 4.35-3.25 6.95-2.7 2.8-6.75 2.8-4.6 0-6.85-3.75-1.85-3.15-1.95-8.6 4.35 1.5 8.2 2.45l5.05 0.85" fill="#fff"/>
  <path d="m272.75 57.2q-1.8 0.45-4.55 1.6-2.65 1.1-3.6 1.75l-0.9 3.8-0.9 5.25q-2.3-3.75-5.4-6.95-3-3-5.15-3.95l3.35-5.85q3.8 0 9.7 1.4 6.15 1.5 7.45 2.95" fill="#005e97"/>
  <path d="m252.25 58.7q4.35 1.85 9.05 8.7 4.6 6.75 4.85 11.2l-6.6 0.2q-2.7-0.85-6.55-3.45-4-2.8-6.4-5.6l5.65-11.05" fill="#ee869a"/>
  <path d="m211.5 140.1q7.05 0.6 14.5 0.25-0.65 7.15-0.85 14.75-0.25 8.1 0.3 9.05 1.15 2.4 8.7 7.65 7.65 5.3 14.45 8.4l-1.9 8.3q-1.4 5.45-2.05 6.1-0.95 0.9-8.85 5.1-7.75 4.05-8.4 4.85-1.25 1.6-8.5 18.3l-8.9 20.85-0.05 0.35q-2.65 0.95-12.6 2.05l-13.35 1.1q2.3-2.95 5.25-19.45 2.85-16.3 1.75-18.9l-13.5-6.85q-12.45-6.45-14.95-8.85-0.45-1.1 0.4-6.85 0.7-4.8 1.35-7.3 12.65-0.95 26.8-7.05 13.55-5.85 15.55-10.6 1.4-3.3 2.85-9.8 1.2-5.55 2-11.45" fill="#d3edfb"/>
  <path d="m270.85 78.05-4.7 0.55q-0.15-1.75-0.75-3.55 3.15 2.15 5.45 3" fill="#005e97"/>
  <path d="m254.45 87.55q-3.3-0.9-9.6-0.05-4.6 0.6-7.8 1.55l3.65-7.4q8.65 2.8 13.75 5.9" fill="#6ad"/>
  <path d="m245.7 90.1q-0.2-0.4 0.45-1.2 0.65-0.85 1.7-1.5 3.85-0.25 6.6 0.15 2.1 1.2 3.95 2.8l1.25-0.55 4.8 10.4q3.85 8.4 4.85 10.2 0.55 1 4.4 5.4 3.45 3.95 3.6 5.1 1.4 11.8-0.9 25.4-1.55 9.05-4.1 16.25-0.6 1.65-3.65 4.95l-6.35 5.95q-1.35 4.25-3.35 11.25-2.4 8.55-2.85 11.3 0.85 1.45 2.1 5.5 1.5 4.6 1.15 6.05-3.5 15.1-12.2 26.2-8.75 11.1-24.75 20.75-1.45 0.9-10.15-3.2-1.05-1.45-1.85-3.8-0.9-2.65-0.4-3.8l8.9-20.85q7.25-16.7 8.5-18.3 0.65-0.8 8.4-4.85 7.9-4.2 8.85-5.1 0.65-0.65 2.05-6.1l1.9-8.3q-6.8-3.1-14.45-8.4-7.55-5.25-8.7-7.65-0.95-1.75 0.15-16.2 1-13.5 1.45-14.9 0.45-1.35 11.25-8.85 10.65-7.4 11.05-9.25 0.75-3.35-0.9-13.1-1.5-8.75-2.75-11.75" fill="#005e97"/>
  <g fill="#6ad">
   <path d="m255.45 293.9 0.3-3.85 1.85-1.5q1.4 5.9 10.05 10.1 4.55 2.2 10.8 4.6 1.9 1.35 2.55 4.05-1.9-1.25-5.85-0.75-4.4 0.6-5.3 3.3 1.15 1.75 1.65 5.75 0.5 3.8 0.1 7-0.35 3.4-8.25 3.5-6.6 0.1-9.9-1.2 0.65-4.6-0.95-8.4-1.6-3.85-5-5.5-4-1.95-8.85-0.95-5.2 1.05-6 4.8-0.5 2.1-0.35 5.05 0.1 3.2 0.9 5.35-2.65 2.9-3.9 2.95l-6 0.15q-3.25-0.1-3.75-0.65-1.9-2.2-7.95-7.7-6.2-5.65-8.65-7.35-0.6-0.35-0.65-2.4-0.05-1.7 0.2-3.3 0.15-1.1 5.2-7.95 4.65-6.3 6.55-8.4 1.3-1.45 3.6-1.8l0.9 1.25q1.95 2.9 10.2 4.1l8.7 1.55 1.4 1.7q0.95 0.95 2.1 1 6.35 0.3 10.35-0.15 3.3-0.35 3.45-1l0.5-3.35"/>
   <path d="m151 274.05-1.75-8.75 18.4-1q-2.7 2.7-7.6 5.65-5.3 3.2-9.05 4.1"/>
   <path d="m247.85 87.4q-1.05 0.65-1.7 1.5-0.65 0.8-0.45 1.2 1.25 3 2.75 11.75 1.65 9.75 0.9 13.1-0.4 1.85-11.05 9.25-10.8 7.5-11.25 8.85-0.45 1.45-1.05 7.3-7.45 0.35-14.5-0.25 1.1-7.55 0.7-7.9-3.5-2-6.95-4.65-6.8-5.25-8.8-10.05-14.2-33.5-15.6-33.95-3.15-0.95-12.9-0.3-8.65 0.55-11.7 1.35l-2.35 1.3q-2.15 1.3-2.2 1.95l0.3 12.1q0.4 10.5-0.45 14.2-0.4 1.75-3.9 8.3-4.25 7.85-8.6 13.5-1.15 30.55 1.2 61.8 2.65 35.5 12.1 79.2 10.8 49.95 23.7 75.4 1.65 3.25 0.6 4.15-0.8 0.65-5 0.55-20.5-0.55-37.35-8.7-11.15-5.4-21.65-14.9 6.95 4.85 13.65 6.05l-1.05-5.35q7.7 6.2 13.05 6.35 0.35-0.2-0.4-4.65t-1.55-7.2q3.2 3.65 6 5.7 2.65 2 3.65 1.65 1.75-0.6 0.25-15.65-1.15-11.35-2.55-19.05-2.35-12.8-9.3-25.2-6.25-11.1-8.7-10.65-2.1 0.4-3.8 7.6-2.1 8.6-0.85 19.55-4.25-7.05-11.45-15.45-7.8-9-9.85-8.4-1.95 0.95-2.15 7.9-0.25 7.3 1.75 16.1-3.1-3.65-7.45-7.65-4.95-4.6-6.45-4.65-2.35 3.65-1.15 10.65-4.5-11.9-6.55-24.6-2.1-12.85-1.5-24.9 1-20.3 11.15-50.4l7.65-22.25q3.95-11.8 5.2-19.1 1.6-9.1 2.3-22.25 0.9-16 1.35-19.6 2.35-20.85 14.85-32.6 8.55-8.05 16.1-8.35 7.4-0.25 12.8 6.95 0.1 0.2 16.3-0.15l13.35-0.5q1.4 0.05 2.35-2.2 0.95-2.15 0.25-3.1-3.55-5-8.35-16.6l3.9-1q2.1-0.75 3.1-1.5 0.95-0.85 2.75-8.8 1.3-5.4 2-9.5 2.7-6.15 15.35-15.25 12.7-9.15 19.85-9.95 9.2-0.4 23.85 3.9 13.6 4.05 26.7 10.5-17.9 0.2-33.45-5.95-4.4-1.75-9.15-4.3-3.75-2-4.15-2.05-7-0.4-20.85 13.85-13.8 14.15-13.4 20.95 0.15 1.5 4.65 8.55 4.2 6.6 6.75 9.7-0.5 1.7-0.55 2.75 0.75 1.4 4.45 6.25l4.1 5.15 6.55 1.05 14.2 2.5q3.65 10.8 6.95 14.55l1.9-3.8q4.4-1.3 10.8-1.65"/>
   <path d="m359.75 258.3q-4.8 8.75-6.95 14.45 0.15-8.6-0.85-15.7-0.95-6.85-2.15-7.35-1.7-0.7-7.05 8.75-5.2 9.25-7.65 16.85-0.35-8.7-1.95-15.1-1.6-6.45-3.5-6.55-2.6-0.1-7.05 11.95-4.6 12.35-5.95 23.95-1.1 9.7-0.95 22.1 0.15 14.35 2.3 14.75 2.25 0.45 5.65-4.9 3.25-5.1 6.2-13.2 0 13.05 1.4 13.55 1.85 0.65 6.5-4.9 5.05-6.05 8.85-14.4-0.3 8.75 0.45 9.1 0.95 0.5 3.3-1.75-8.5 17.2-26.4 31.5-7.15 5.7-12.1 7.7-5.1 2.05-5.1-0.95-2.1-87.85-2.25-98.9-0.35-24.45-11.25-55.35-9.05-25.75-18.95-40.15 1.6-8.85 2.5-17.8 1.05-10.45 0.5-15.05-0.15-1.15-3.6-5.1-3.85-4.4-4.4-5.4-1-1.8-4.85-10.2l-4.8-10.4q2.75-1.4 5.85-3.85 3.5 1.9 7.1 10.6 4.85 11.55 6.15 13.6 4.45 6.8 16.35 19.5l23.85 24.65q33.1 34.15 42.75 51.75 4.35 7.95 5.55 21.7 1 11.5-0.4 21.5-1.5-1.1-7.1 9.05"/>
   <path d="m254.4 221.75q9 7.5 17.8 21.6 8.05 12.9 7.75 16.9-0.25 3.35-3.25 10.5-2.75 6.6-4.05 7.95-1.35 1.45-8.85 5.9-7.25 4.3-8.05 5.45l-0.3 3.85-0.5 3.35q-0.15 0.65-3.45 1-4 0.45-10.35 0.15-1.15-0.05-2.1-1l-1.4-1.7-8.7-1.55q-8.25-1.2-10.2-4.1-4.05-5.9-15.95-15-13.9-10.65-23.3-12.4 21.45-3.65 33.1-11.1 1.5 1.05 4.95 2.25 3.85 1.3 4.85 0.7 11.35-6.85 19.1-14.65 8.15-8.2 12.9-18.1"/>
   <path d="m149.25 265.3-0.55-2.95 4.25-0.25q26.85-10.75 30.9-14.65l11.65-1.2q12.05-1.35 14.45-2.2-0.05 1.05 0.9 3.85l1.4 3.4q-16.65 9.25-36.6 12.35-10.35 1.6-26.4 1.65"/>
   <path d="m72.25 311 8.5 0.45 7.4-0.2 1.2-1.05 1.45-1.95q5.45 9.8 12.7 17.3-4.65 0.95-6.3 7.4-1.5 5.8 0.25 8.1-1.15 3.3-10.75 3.9-9.2 0.6-12.45-1.55 0.5-7.15-2.45-11.1-3.05-4.1-9.25-4.1-6.55 0-9.9 4.3-2.95 3.85-2.7 10.15-4.95-0.1-6.95-1.05-0.7-0.35-3.3-3.8-2.8-3.65-3.65-5.55-0.4-0.8-0.25-4.7 0.1-3.75 0.5-5.5 0.2-0.85 6.35-7.75 6.95-7.7 9.8-12.75 0.55-1.05 4.5-1.25l1.4 2.3q0.65 1.2 5.4 2.95 4.35 1.65 5.65 1.65 0.35 0 1.1 1.75 0.75 1.8 1.75 2.05"/>
   <path d="m40.85 242.1q3.95-10.8 11.75-22.1 10.65-15.35 20.35-17.1 2.1-0.35 5.25-0.1l5.5 0.95q-8.25 27.5-8 46.6 0.2 18.4 8.6 40.75 1.35 7.8 6.5 17.15l-1.45 1.95-1.2 1.05-7.4 0.2-8.5-0.45q-1-0.25-1.75-2.05-0.75-1.75-1.1-1.75-1.35 0-5.7-1.6-4.8-1.8-5.35-3-1.4-2.95-4.65-6.95l-6.25-7.3q-8.1-9.75-9.9-18.15-10.25-4-20.45-12.05-10.75-8.55-15.05-16.7-1.8-3.4-0.6-4.1 0.9-0.55 4.55 0.4 5.8 1.65 14.45 2.9 11.2 1.6 20.4 1.45"/>
  </g>
  <g fill="#005e97">
   <path d="m165.85 35.6q3 1.05 8.2 1.9l7.9 0.8q-1.75 9.15-3.4 10.65-0.95 0.7-2.95 1.4l-3.8 1.05q5 12.15 8.1 16.65 0.85 1.2-0.35 3.35-1.2 2-2.25 1.95-21.35 0.6-30 0.25-7-7.8-15.1-6.1-9.1 1.85-16.65 10.9-8.15 9.8-10.6 23.9-1 5.95-1.95 21.9-0.95 15.65-2.75 25.65-1.45 8.3-4.7 18.6-3.15 10.05-11.85 35.3l-5.5-0.95q-3.15-0.25-5.25 0.1-11.45 2.05-23.9 22.4-5.15-8.65-8.2-21.7-3.05-12.9-2.6-23.55-5.85-4.15-6.25-5.85-0.85-3.55-0.85-12.4t0.85-11.25q0.3-0.9 5.1-4.05 4.1-2.75 7-4.25 1.35-6.55 4.65-18 3.45-12 5.9-18.25-6.35-6.15-6.7-8.65-0.3-2 2.95-10.35 3.2-8.25 4.65-9.6 0.6-0.55 5.4-1.55l8.05-1.3q15.35-26.95 33.45-38.45 13.2-32.55 17.3-34.3l14-0.75 14.3 1.1q10.45 5.9 10.9 8.9 1.5 9.05 6.9 24.55"/>
   <path d="m167.95 83.25q9.75-0.65 12.9 0.3 1.4 0.45 15.6 33.95 2 4.8 8.8 10.05 3.45 2.65 6.95 4.65 0.1 5.55-1.4 14.05-1.65 9.25-4.15 15.1-2 4.75-15.55 10.6-14.15 6.1-26.8 7.05-0.65 2.5-1.35 7.3-0.85 5.75-0.4 6.85 2.5 2.4 14.95 8.85l13.5 6.85q1.1 2.6-1.75 18.9-2.95 16.5-5.25 19.45-1.75 2.25-14.85 8.45-12.85 6.05-16.2 6.45l-4.25 0.25q-6-31.3-8.45-64.6-2.35-31.25-1.2-61.8 4.35-5.65 8.6-13.5 3.5-6.55 3.9-8.3 0.85-3.7 0.45-14.2l-0.3-12.1q0.05-0.65 2.2-1.95l2.35-1.3q3.05-0.8 11.7-1.35"/>
   <path d="m285.4 311.55q2 3.15 1.75 7.5-0.15 2.25-6.25 3.75-6.2 1.5-9.3-0.2 0.4-3.2-0.1-7-0.5-4-1.65-5.75 0.9-2.7 5.3-3.3 3.95-0.5 5.85 0.75 2.95 2 4.4 4.25"/>
   <path d="m103.25 325.9q1.65 2.35 7.4 6.7l5.35 4q0.3 3.35-8.2 5.15-8.45 1.8-10.35-0.7-2.1-2.8-0.4-8.95 1.8-6.45 6.2-6.2"/>
   <path d="m62.55 328.2q6.2 0 9.25 4.1 2.95 3.95 2.45 11.1v0.15q-0.2 3-12.2 2.6-12-0.45-12.1-3.5-0.25-6.3 2.7-10.15 3.35-4.3 9.9-4.3"/>
   <path d="m235.2 327.75q-1.85-0.75-2.7-4.35-0.9-3.9 0.15-8.55 0.8-3.75 6-4.8 4.85-1 8.85 0.95 4.95 2.4 5.95 8 0.65 3.55-0.35 7.55-0.4 1.8-7.9 2.1-7.15 0.3-10-0.9"/>
   <path d="m329.65 253.65q2.9 0.15 4.4 9.5 0.95 5.95 1.05 12.15 2.45-7.6 7.65-16.85 5.35-9.45 7.05-8.75 2 0.85 2.8 8 0.65 6.05 0.25 14.9 2.3-5.8 6.9-14.25 5.6-10.25 7.1-9.1 2.15 1.6 2.15 11.95-0.05 11.4-3.25 21.65-2.8 9-9.05 19.2-6.7 11.05-9.65 9.6-0.75-0.35-0.45-9.1-3.4 6.55-6.45 11.25-5.85 9.15-8.9 8.05-0.75-0.3-1.15-5.1-0.25-3.5-0.25-8.05-2.8 8.1-5.75 12.85-3.35 5.4-6.1 4.85-2.15-0.4-2.3-14.75-0.15-12.4 0.95-22.1 1.35-11.6 5.95-23.95 4.45-12.05 7.05-11.95"/>
   <path d="m101.35 300.15q2.55 8.2 6.45 14.7 5.2 8.6 13.85 16.25-8.25-7.8-14.4-18.1-3.5-5.8-5.9-12.85m-16.5-5.65q-2.4-9.35 0.6-14.05 1.5 0.05 6.45 4.65 4.35 4 7.45 7.65-2-8.8-1.75-16.1 0.2-6.95 2.15-7.9 2.05-0.6 9.85 8.4 7.2 8.4 11.45 15.45 1.3 11.4 3.9 18.15 3.35 8.7 11.4 17.9 0.8 2.75 1.55 7.2t0.4 4.65q-5.5-0.15-13.05-6.25l1.05 5.25q-8.9-1.6-18.05-9.3-8.3-6.95-14.8-17.05-6.3-9.75-8.6-18.65"/>
   <path d="m125.7 265.45q2.45-0.45 8.7 10.65 6.95 12.4 9.3 25.2 1.4 7.7 2.55 19.05 1.5 15.05-0.25 15.65-0.85 0.3-3.65-1.8-3.05-2.3-6.3-6.05-8.9-10.2-12.45-22.65-3.95-14.05-2.55-27.45 1.25-12 4.65-12.6"/>
  </g>
  <path d="m73.25 116.15q-7.85-1.95-10.85-3.65-1.6-0.85-5.95-4.85 16.3-2.75 23.2-18.5l15.7 11.6q0 0.75-3.25 7.85-3.35 7.35-4.85 9.65-5.4 0.05-14-2.1" fill="#004d7e"/>
  <path d="m52.4 188.75 15.25 5.25q-0.65 6.3-0.8 11.45-5.15 3.25-10.35 9.45-2.45-4-3.7-12.1-1.25-8.05-0.4-14.05" fill="#004d7e"/>
  <path d="m85.05 199.55-1.35 4.2-5.5-0.95q-3.15-0.25-5.25 0.1-2.7 0.5-6.1 2.55 0.15-5.15 0.8-11.45l17.4 5.55" fill="#5893c0"/>
  <path d="m127.6 52.05 4.6 15.45q-9.1 1.85-16.65 10.9-8.15 9.8-10.6 23.9-8.95 10.8-16.3 25.45-7.4 14.85-13.9 35.05-9.25-3-17.75-6.7 1.7-8 4.8-18.75 3.25-11.45 7.15-22.4 11.2 3.3 18.3 3.3 1.5-2.3 4.85-9.65 3.25-7.1 3.25-7.85l-15.65-11.75q9.45-19.35 19.05-30.9 11.1-13.4 24.75-19.55l4.1 13.5" fill="#004d7e"/>
  <path d="m88.65 127.75q7.35-14.65 16.3-25.45-1 5.95-1.95 21.9-0.95 15.65-2.75 25.65-1.45 8.3-4.7 18.6-8.05-1.3-20.8-5.65 6.5-20.2 13.9-35.05" fill="#5893c0"/>
  <path d="m272.75 57.2q-1.8 0.45-4.55 1.6-2.65 1.1-3.6 1.75l-0.9 3.8-0.9 5.25q-2.3-3.75-5.4-6.95-3-3-5.15-3.95l3.35-5.85q3.8 0 9.7 1.4 6.15 1.5 7.45 2.95" fill="#933000"/>
  <path d="m174.75 240.85 11.9-0.95q-1.5 5.85-2.65 7.3-1.75 2.25-14.85 8.45-12.85 6.05-16.2 6.45l10.55-8.4q7-6 10.2-9.75l1.05-3.1" fill="#004d7e"/>
  <path d="m252.25 58.7q4.05 1.8 8.5 8-7.3 0.25-12.6 4.7l-1.55-1.65 5.65-11.05" fill="#cf7487"/>
  <path d="m215.1 231.6-5.1 12.1-0.05 0.35q-2.65 0.95-12.6 2.05l-13.35 1.1q1.55-1.95 3.7-11.6 15.45 2.85 27.4-4" fill="#b7cdda"/>
  <g fill="#004d7e">
   <path d="m332.15 300.9q4.7 1.5 10.1-1.85 5-3.05 8.65-8.95-2.6 10.15-9.05 21.2-6.9 11.85-10.6 10.55-1.4-0.5-1.4-13.55l2.3-7.4"/>
   <path d="m152.95 262.1-4.25 0.25q-2.3-11.9-4.25-25.75 13 4.85 30.3 4.25l-1.05 3.1q-3.2 3.75-10.2 9.75l-10.55 8.4"/>
   <path d="m270.85 78.05-4.7 0.55q-0.15-1.75-0.75-3.55 3.15 2.15 5.45 3"/>
   <path d="m243.3 76.35q6.45 4.35 11.5 6.25 7.5 2.85 13.8 1.45l-5.6 3.85-4.6 2.45q-1.75-1.5-7.05-4.2-5.75-2.9-10.65-4.5l2.6-5.3"/>
   <path d="m203.8 69.65 22.3 3.65q0.3 1.15 1.05 2.55l1.05 2.45-14.2-2.5-6.55-1.05-1.15-1.55-2.5-3.55"/>
  </g>
  <path d="m254.45 87.55q-3.3-0.9-9.6-0.05-4.6 0.6-7.8 1.55l3.65-7.4q8.65 2.8 13.75 5.9" fill="#5893c0"/>
  <path d="m212.15 238.65q9.4 1.55 18.35 0.2 9.25-1.4 17.1-5.75-8.75 11.55-25.2 21.4-1.45 0.9-10.15-3.2-1.05-1.45-1.85-3.8-0.9-2.65-0.4-3.8l2.15-5.05" fill="#004d7e"/>
  <g fill="#5893c0">
   <path d="m207.2 316.1q7.25 3.85 13.4 5.05 7 1.4 12.05-0.85l0.2 2.55 0.35 2.4q-2.65 2.9-3.9 2.95l-6 0.15q-3.25-0.1-3.75-0.65l-5.1-5.1-7.25-6.5"/>
   <path d="m253.9 319.8q4.1 1.35 8.9 0.5 4.7-0.8 8.7-3.4 0.4 3.2 0.1 5.7-0.35 3.4-8.25 3.5-6.6 0.1-9.9-1.2 0.6-4 0.45-5.1"/>
   <path d="m151 274.05-1.75-8.75 18.4-1q-2.7 2.7-7.6 5.65-5.3 3.2-9.05 4.1"/>
  </g>
  <path d="m125.25 334.15 1.05 5.35q-5.35-0.95-12.15-5-6.35-3.8-11.45-8.65 7.3 3.3 14.3 0.8 3.6 3.75 8.25 7.5" fill="#004d7e"/>
  <path d="m146 336q1.1-0.35-0.25-18.3 4.6 2.9 9.7 2.9 4.85-0.05 7.9-2.65 8.2 25.55 12.7 34.4 1.65 3.25 0.6 4.15-0.8 0.65-5 0.55-20.5-0.55-37.35-8.7-11.15-5.4-21.65-14.9 6.95 4.85 13.65 6.05l-1.05-5.35q7.7 6.2 13.05 6.35 0.35-0.2-0.4-4.65t-1.55-7.2q3.2 3.65 6 5.7 2.65 2 3.65 1.65" fill="#5893c0"/>
  <path d="m349.75 296.15q3.55 0.75 7.15-1.2 2.9-1.55 6.25-5.25-3.95 9-8.55 15.65-5.2 7.5-7.55 6.3-0.75-0.35-0.45-9.1l1.5-2.4q1.15-1.95 1.65-4" fill="#004d7e"/>
  <g fill="#5893c0">
   <path d="m329.85 308.3q0 13.05 1.4 13.55 1.85 0.65 6.5-4.9 5.05-6.05 8.85-14.4-0.3 8.75 0.45 9.1 0.95 0.5 3.3-1.75-8.5 17.2-26.4 31.5-7.15 5.7-12.1 7.7-5.1 2.05-5.1-0.95l-0.8-34.1q5.2 0.15 9.75-1.15 0.25 13.1 2.3 13.5 2.25 0.45 5.65-4.9 3.25-5.1 6.2-13.2"/>
   <path d="m247.8 277.5q22.45-6.5 32.35-16-0.95 3.9-3.8 10.2-2.6 5.85-3.7 7-1.35 1.45-8.85 5.9-7.25 4.3-8.05 5.45l-0.3 3.85-0.5 3.35q-0.15 0.65-3.45 1-4 0.45-10.35 0.15-1.15-0.05-2.1-1l-1.4-1.7-8.7-1.55q-8.25-1.2-10.2-4.1-1.95-2.8-6.65-7.2 15.1 0.6 35.7-5.35"/>
   <path d="m254.4 221.75 3.1 2.8q-8.35 17.45-21.5 31.1-14.2 14.7-30.7 21.35-6.7-5.45-13-9.05-7.35-4.3-12.8-5.3 21.45-3.65 33.1-11.1 1.5 1.05 4.95 2.25 3.85 1.3 4.85 0.7 11.35-6.85 19.1-14.65 8.15-8.2 12.9-18.1"/>
   <path d="m149.25 265.3-0.55-2.95 4.25-0.25q26.85-10.75 30.9-14.65l11.65-1.2q12.05-1.35 14.45-2.2-0.05 1.05 0.9 3.85l1.4 3.4q-16.65 9.25-36.6 12.35-10.35 1.6-26.4 1.65"/>
   <path d="m42.85 333.6q3.15 0.9 8.6 0.9-1.65 3.4-1.5 8.15-4.95-0.1-6.95-1.05-0.7-0.35-3.3-3.8-2.8-3.65-3.65-5.55-0.3-0.65-0.3-3.45 2.7 3.5 7.1 4.8"/>
   <path d="m74.25 343.4q0.3-4-0.6-7.1 4.75 2.1 12.1 1.8 7.8-0.35 11.2-3.35-1 4.35 0.5 6.3-1.15 3.3-10.75 3.9-9.2 0.6-12.45-1.55"/>
   <path d="m36.85 257.15q-0.95 6.95 1.05 13.2-11.05-4.25-21.8-13.05 10.8 1.85 20.75-0.15"/>
   <path d="m48.3 289.35q-7.75-9.15-10.05-16.45 17.4 11.8 41.25 3.55 1.9 6.85 4.8 14.65 1.35 7.8 6.5 17.15l-1.45 1.95-1.2 1.05-7.4 0.2-8.5-0.45q-1-0.25-1.75-2.05-0.75-1.75-1.1-1.75-1.35 0-5.7-1.6-4.8-1.8-5.35-3-1.5-3.2-10.05-13.25"/>
  </g>
  <g fill="#004d7e">
   <path d="m68.45 194.2-15.55-5.2-3.05-1.65q-3.05-1.75-6.15-3.7 19.15-3.5 25.05-24.5 22.55 8.55 26.8 9.3l-5.15 15.25-5.35 15.85-16.6-5.35"/>
   <path d="m123.65 325.7q4.9 0.25 9.3-1.25l3.4 4.2q0.8 2.75 1.55 7.2t0.4 4.65q-4.9-0.1-11.55-5.1-6.15-4.55-12.2-12 4.2 2 9.1 2.3"/>
   <path d="m285.75 312.15q1.6 2.9 1.4 6.9-0.15 2.25-6.25 3.75-6.2 1.5-9.3-0.2 0.25-1.85 0.15-4.1 9.3-0.1 14-6.35"/>
   <path d="m113.6 334.75 2.4 1.85q0.3 3.35-8.2 5.15-8.45 1.8-10.35-0.7-1.15-1.45-1.05-4.75 11.35 2.2 17.2-1.55"/>
   <path d="m50.55 336.9q5.65 2.05 11.55 2.7l12.1-0.45 0.05 4.25v0.15q-0.2 3-12.2 2.6-12-0.45-12.1-3.5-0.05-3.1 0.6-5.75"/>
   <path d="m235.2 327.75q-0.7-0.25-1.6-2.1l-1.2-3.25q5.45 1.75 11.85 0.85 7.6-1.05 8.8-5.85 1.3 4 0.05 9.15-0.4 1.8-7.9 2.1-7.15 0.3-10-0.9"/>
   <path d="m324.85 307q5.25-3.75 9.4-11.1-2.9 10.9-7.5 20.3-5.35 10.85-8.75 10.2-2.55-0.45-2.4-17.35 3.9 1.75 9.25-2.05"/>
   <path d="m128.7 318.2q4.25 3.15 9.05 4.25 5.15 1.1 8.6-0.75 1.3 13.7-0.35 14.3-1.6 0.55-6.75-4.15-6.15-5.55-10.55-13.65"/>
  </g>
  <g fill="#0f141b">
   <path d="m244.2 30.65 9.5-1.3 9.85-1.15q2.45 0.1 7.45 1.65 4.75 1.5 6.65 2.65 1.8 1.05 2.3 1.95t-1.3-0.15q-1.7-0.95-7.25-2.6-5.7-1.65-7.95-1.75l-9.15 1.35-10.2 1.55q-3.3 0.25-12.85-3.05-10.45-3.65-15.55-7.6-1.25-1-0.05-1.65t2.45 0.35q4.9 3.8 14.65 7.05 8.4 2.8 11.45 2.7"/>
   <path d="m267.05 18.8q0.45 0 1.3 0.9 0.9 0.9 0.5 0.95-15.25 0.45-28-3.75-5.65-1.85-16-7.2-2.3-1.2-2.6-1.25-6.15-0.35-19.85 13.25-13.85 13.75-13.5 20.55 0.2 1.5 4.9 8.85 4.6 7.25 6.1 8.55 0.25 0.25-0.3 0.9-0.6 0.7-0.85 0.45-2.25-1.95-7.1-8.75-5.4-7.4-5.65-9.85-0.2-3.45 4.05-9.7 3.9-5.8 10.15-12 14.6-14.5 22.15-14.05 0.65 0.05 3.3 1.45 7.55 3.9 14.4 6.1 12.4 4 27 4.6"/>
   <path d="m281.55 27.95q-8.2-5.45-20.05-10.6-27-11.65-42.9-11-6.8 0.75-19.3 9.7-12.45 8.9-15.15 14.9l-1.6 8.7q-1.8 8.5-3.4 9.95l-0.1 0.1q-1.35 1-3.45 1.65l-4.05 0.75q-0.35 0.05-0.4-0.85 0-0.9 0.35-0.9l3.45-0.7 3-1.35q0.95-0.95 2-8.35 1.15-8.15 1.5-9.1 3.05-7.3 16.4-16.5 12.95-8.95 20.6-9.8 17.25-0.7 44.5 10.75 27.9 11.75 31.9 22.3 1.4 3.65-4.05 14.65-5.6 11.3-11.3 15.1-1.05 0.7-1.55 0.6-0.45-0.1-1-1.15l-2.6-5.35q-1.95-3.7-3.05-4.45-1.65-0.95-6.7-2.05-4.8-1.05-7.7-1.15-2 3.15-10.05 18.4-7.5 14.15-10.25 19.75-0.7 1.45-1.35 1.6-0.75 0.1-1.75-1.3-6-8.5-10.4-26.25-4.2-16.8-4.85-32.95-0.05-1 0.85-1 0.9-0.05 0.95 0.95 0.55 12.65 5.1 31.3 4.85 19.9 9.85 26.85l9.05-18.2q8.85-17.6 10.85-20.6 0.25-0.4 0.7-0.4l8.5 1.1q6.15 1.25 8.2 2.45 2.25 1.6 6.45 9.7 5.15-3.35 9.9-14.3 4.4-10.15 3.4-12.7-1.75-4.4-10.5-10.25"/>
   <path d="m246.05 70.1q-0.25-0.25 0.55-1.25t1-0.65q1.85 3.15 5.75 6.1 3.5 2.7 6.4 3.65l11.65-0.85 2.2 0.2q0.5 0.5-0.4 2-1.95 3.25-6.8 7.5t-7.75 5.35q-0.5 0.2-0.9-0.2-7.15-6.35-17.55-9.6-0.35-0.1-0.05-0.95 0.25-0.85 0.6-0.75 11.95 3.75 17.75 8.7 2.9-1.2 6.95-4.45 4.1-3.35 5.9-6l-11.9 0.8q-1.85-0.2-6.15-3.15-4.75-3.2-7.25-6.45"/>
   <path d="m218.6 32.5q0.3-0.2 0.7 0.65 0.35 0.8 0.1 0.9-6 3.15-12.85 14.1-6.4 10.15-6.7 15l4.15 5.8 3.95 5 7.6 1.2 12.65 2.25q0.35 0.1 0.15 0.95-0.15 0.9-0.5 0.8l-13.05-2.05-7.95-1.1q-9.7-10.5-9.65-12.15 0.1-5.25 7.45-16.4 7.65-11.65 13.95-14.95"/>
   <path d="m252 59.45q-0.3-0.05-0.1-0.8 0.25-0.7 0.5-0.6 3.8 1.15 9.1 8 5.65 7.3 5.65 12.35 0 0.3-0.95 0.4-0.95 0.05-0.95-0.25 0-4.45-5.1-11.45-4.85-6.65-8.15-7.65"/>
   <path d="m236.9 7.9q0.45-0.15 1.4 0.55 0.95 0.65 0.6 0.75-1.7 0.35-4.4 1.55-2.4 1.05-2.9 1.5-0.25 0.25-0.9-0.35-0.65-0.55-0.45-0.8l2.55-1.5q2.1-1 4.1-1.7"/>
   <path d="m263.75 60.2 0.35-0.4q1.2-0.85 4.05-1.95 3.05-1.2 4.6-1.35 0.35-0.05 0.45 0.85 0.05 0.9-0.3 0.95-1.25 0.1-3.85 1.15-2.45 0.95-3.7 1.7-0.4 1.2-0.9 4.75-0.55 4-0.4 5.65 0.05 0.4-1-1.2l-1.05-1.85 0.9-4.8q0.55-2.7 0.85-3.5"/>
   <path d="m265.55 76.35q-0.2-0.1 0.05-1.1 0.2-1 0.45-0.75 0.9 0.8 2.95 1.7l3.2 1.05q0.4 0.05-0.95 0.75t-1.65 0.55q-2-0.6-4.05-2.2"/>
   <path d="m233.55 90.85q0.25-0.25 0.85 0.45 0.55 0.75 0.25 0.95-0.75 0.6-2.6 4-0.9 1.6-1.25 0.8-0.3-0.75 0.45-2.4 1.4-2.95 2.3-3.8"/>
   <path d="m253 86.45q0.6 0.05 1.5 1.3 0.95 1.25 0.5 1.1-2.3-0.95-8.05-0.65-5.75 0.35-9.45 1.65-0.35 0.1-0.65-0.75t0.05-0.95q3.35-1.15 7.9-1.65 4.85-0.6 8.2-0.05"/>
   <path d="m165.35 36.25q-0.35-0.15-0.3-1.55 0-1.4 0.3-1.2 2.55 1.7 8.45 2.95l8.15 0.9q0.35-0.05 0.4 0.85t-0.3 0.9l-8.05-0.65q-5.6-0.9-8.65-2.2"/>
   <path d="m206.85 90.85q-1.6-0.85-0.6-0.85 1.05 0.05 2.6 0.9 2.25 1.25 5 4.35 2.8 3.15 3.35 5.25 0.2 0.75-0.55 0.95-0.7 0.15-0.9-0.55-0.45-1.7-3.6-5.3-3.2-3.6-5.3-4.75"/>
   <path d="m232.65 98q1.5-1.05 2.15-0.95 0.6 0.15-0.75 1.3-3.55 3-4.4 4.05-0.85 0.95-1.4 0.45-0.55-0.45 0.25-1.45 1.05-1.2 4.15-3.4"/>
   <path d="m122.65 7.05q2.65 1.1 6.25 3.85 3.75 2.85 4.6 4.55l3.3 9.45q4.25 12.7 6.8 19.4 4.65 12.05 8.1 17.15 1 1.45 0.05 1-1-0.4-1.95-1.85-3.55-5.15-7.8-16.25-2.1-5.55-6.6-19l-3.25-9.25q-0.65-1.4-4.5-4.4t-6.25-4q-1.45-0.6-0.8-0.9l2.05 0.25"/>
   <path d="m181.45 67.6q0.85 1.2-0.7 4.2-1.6 3.1-3.5 3-24.3 0.45-29.35-0.2l-1.3-0.5-1.1-0.95q-5.05-4.8-9.5-5.05-7.55-0.55-16.65 7.95-9 8.5-12.3 20.75-2 7.55-3.05 25.3l-0.95 13.25q-0.7 7.95-1.9 14.7-1.35 7.65-4.25 17l-5.75 17.25q-11.1 31.7-13.15 52.6-2.55 25.35 5.75 50 0.3 2.65 1.7 8l0.5 2.2-0.5-0.8q-12.25-26.6-11.2-51.2 0.95-22.35 14.25-60.5l6.25-17.6q3.4-10.1 4.65-17.3 1.15-6.3 1.65-14.95l0.6-13.65q1.1-18.5 2.95-25.5 3.15-12.2 12.45-21 4.6-4.3 9.75-6.5 4.95-2.15 9.15-1.9 6.45 0.4 11.55 6.55v0.05q3.3 0.6 29.85-0.35 0.55 0.05 1.35-1.7 0.8-1.7 0.5-2.2-5.15-7.25-12.2-26.25-7-19.05-8.95-31.1-0.2-1.2-3.05-3.45-2.8-2.2-7.3-4.75-3.8-0.9-14.2-1.05l-13.4 0.7q-3.5 1.45-15.55 31.55l-3.8 2.25q5.15-12.85 10.15-22.7 5.9-11.65 8.6-12.8 3.5-1.1 15.85-0.9 11.85 0.2 13.45 1.05 5 2.85 7.35 4.6 4.4 3.15 4.6 5.15 1.1 11.4 8.4 30.8 6.9 18.35 12.3 25.95"/>
   <path d="m138.9 121.65q0.25-3.3 2-9.15 1.85-6.25 3.8-9.65 1.15-2 2.2-2.8 1.05-0.75-0.1 1.25-1.85 3.25-3.95 10.5-1.95 6.85-2.15 9.95-4.2 63.8 10 138.6 5.7 29.9 13.3 55.4 6.95 23.35 13.25 35.8 2.05 4 1.1 5.25-1.05 1.3-6.7 1.15-17.7-0.45-31.9-5.6-17.65-6.5-30.75-20.5-1-1.05 2.55 0.8 3.6 1.95 6.25 4.05 11.55 9.2 25.2 14.15t28.7 5.35q2.5 0.05 3.4-0.5 1.25-0.8 0.15-2.95-7.1-14.05-14.1-36.35-7.75-24.9-13.25-53.75-13.6-71.45-9-141"/>
   <path d="m147.5 106.6q0.9-1.25 0.95-0.45t-0.85 2.05l-2.4 3.4q-1.4 1.55-3.45 2.45-0.3 0.1-0.6-0.6t0-0.8q1.95-0.85 3.7-2.65l2.65-3.4"/>
   <path d="m53.65 104.8q0.1-0.35 1.1 0.45t0.9 1.15q-6.9 18.9-11.55 40.7-0.6 2.7-1.05 1.55-0.5-1.15 0-3.95 2.4-12.9 4.6-21.5 2.6-10.2 6-18.4"/>
   <path d="m111.6 30.35q1.6-0.6 6.1 1.5 5.05 2.4 7.4 6l3.95 14.3 3.8 14.9q0.1 0.4-0.8 0.55-0.85 0.2-0.95-0.2l-8.45-28.6q-1.8-2.65-5.2-4.7-3.1-1.8-5.35-2-11.95 4.9-23.4 16.95-11.4 12.1-20.95 29.9-0.15 0.35-1.05-0.4-0.9-0.7-0.75-1.05 9.8-18.25 21.25-30.15 11.6-12.1 24.4-17"/>
   <path d="m66.75 194.05q0.1-0.35 0.95-0.25 0.9 0.1 0.85 0.45-0.55 4.4-0.65 10.4 0 0.35-0.95 0.7l-0.95-0.05q0-4.65 0.75-11.25"/>
   <path d="m75.7 162.75-0.95 0.05q-0.8-0.25-0.75-0.6 4.75-17.7 13.6-35 8.05-15.7 16.55-25.7 0.25-0.25 0.9 0.3 0.65 0.6 0.45 0.9-7.8 9.15-15.9 25.5-8.15 16.35-13.9 34.55"/>
   <path d="m36.85 179.35 1.35 0.05q1.4 0.45 1.35 0.8-0.6 10.25 2.25 22.6 2.85 12.3 7.95 21.55 0.2 0.3-0.6 0.75l-0.95 0.1q-5.35-9.7-8.6-22.4-3.35-13.2-2.75-23.45"/>
   <path d="m46.95 152.05q-1.35-1-1.8-2.15-0.5-1.15 0.85-0.1 4.3 3.45 24.25 10.4 18.85 6.55 25.25 7.45 0.35 0.1 0.2 0.95-0.1 0.9-0.45 0.85-6.9-1-24-6.85-18.85-6.4-24.3-10.55"/>
   <path d="m49.65 86.45q3.65-8.2 5.3-9.7 0.85-0.75 6.3-1.85l7.9-1.1q0.35 0 0 0.95l-0.55 0.9-7.55 1.15q-4.25 0.85-4.9 1.3-1.3 1.2-4.35 9-3 7.75-3 9.95l0.05 0.2q0.2 1.5 5.95 7.4 5.6 5.7 8 7.1 2.6 1.4 10.05 3.35 8.5 2.15 13.9 2.25 1.45-2.35 4.25-8.5l3.35-7.75-6.35-4.75q-19.6-14.65-21.35-16.65-1.5-1.7-1.35-2.7 0.1-1 1.7 0.8 1.65 1.9 22.05 17.1l6.85 5.15 0.35 0.7q0 1.05-3.15 8.5-3.25 7.6-4.7 9.75l-0.7 0.4q-5.35 0.05-14.5-2.3-8.3-2.15-11.25-3.8-2.65-1.5-8.85-7.5-6.65-6.5-6.9-8.6-0.3-2.3 3.45-10.75"/>
   <path d="m60.9 82.15q-1.05-1.7-1.05-2.7-0.05-0.95 1 0.75 1.55 2.55 6.35 7.15 3.5 3.4 5.35 4.8 0.75 0.6 6.65 3.45 6.45 3.1 9.4 4.05 1.7 0.55 0.9 1l-2.45-0.05q-3-0.95-9-3.85l-6.4-3.45q-8-6.55-10.75-11.15"/>
   <path d="m42.1 155.65q3.4 2.05 12.7 5.85t14.55 5.35q2.55 0.8 2 1.2l-3.15-0.25q-5.35-1.3-14.2-4.95-8.35-3.45-12.05-5.65-2-1.2-1.9-1.95 0.05-0.8 2.05 0.4"/>
   <path d="m43.9 140.75q0.35-0.1 0.6 1.1 0.2 1.25-0.15 1.35-1.4 0.5-6.15 3.6-4.95 3.2-5.35 4.05-0.75 2.25-0.8 10.8-0.05 8.8 0.8 12.3 0.55 1.4 9.4 7.45 8.45 5.75 10.95 6.8l15.35 5.25q14.25 4.7 16.6 5.2 0.4 0.1 0.2 0.95-0.15 0.9-0.55 0.8-2.5-0.5-16.7-4.95l-15.45-4.95q-21.75-13.35-22.45-16.3-0.8-3.4-0.35-12.45 0.4-8.8 1.3-11.45 0.45-1.4 6.15-5.4 5.25-3.65 6.6-4.15"/>
   <path d="m68.05 114.9 1-0.05q0.8 0.3 0.7 0.65-7.55 21.05-11.55 40.7l-0.95 0.15q-0.85-0.2-0.8-0.55 1.65-9.8 4.6-19.9 2.35-8.1 7-21"/>
   <path d="m122.3 37.35q0.35-0.15 1.1 0.8 0.8 0.9 0.45 1.05-23.8 10.3-43.1 50l-0.95-0.1q-0.8-0.35-0.65-0.7 9.95-20.4 20.4-32.9 10.8-12.95 22.75-18.15"/>
   <path d="m51.45 196.05q-0.05-2.1 0.5-3.3 0.6-1.15 0.65 0.9 0.1 3.75 1.45 10.6 1.55 7.95 3.1 9.4 0.25 0.25-0.35 0.9-0.65 0.65-0.9 0.35-1.9-2-3.3-9.55-1.1-5.85-1.15-9.3"/>
   <path d="m83.8 202.7q0.35 0.15 0.05 1.2-0.3 1-0.65 0.9-2.45-0.8-5.2-1.1-2.8-0.25-4.9 0.1-5.4 0.95-12.05 7.45-6.35 6.25-11.9 15.6-12.8 21.6-11.35 38.8 0.5 5.7 5.55 14 2.85 4.75 9.45 13.5 4.95 6.5 6.35 9.05 0.5 0.9 4.9 2.55 4.25 1.6 5.35 1.55 0.9-0.05 1.75 1.9 0.9 1.95 1.35 1.95l8.2 0.25h7.2q0.7-0.3 1.95-2.7l0.95 0.1q0.8 0.4 0.65 0.7l-0.85 1.85q-1.05 1.8-1.95 1.95-1.05 0.25-7.75 0.15l-8.85-0.6q-1.25-0.35-1.85-1.3l-1.1-2.5q-2.35-0.25-6.15-1.4-4.9-1.45-5.65-2.85-3-5.75-5.9-9.55-7.15-8.4-10.45-13.2-5.9-8.4-5.95-15.6-0.2-19.4 13.3-41.35 5.8-9.5 12.3-15.75 6.7-6.4 12-7.35 3.95-0.75 11.2 1.7"/>
   <path d="m74.6 280.4q-1.15-1.4-0.55-1.5 0.6-0.15 1.75 1.25l3.95 5.25q0.65 1.45 0.35 1.9t-1-0.9l-2.1-2.9-2.4-3.1"/>
   <path d="m41.1 240.5q0.4 0 0.2 1.25-0.15 1.2-0.55 1.2l-20.2-1.3q-8.3-1.25-14.8-3-3.05-0.85-3.6-0.5-0.6 0.45 0.7 2.9 4.35 8.4 14.85 16.45 9.7 7.45 19.65 11.1 0.35 0.15 0.45 2.15t-0.25 1.9q-9.8-3.6-20.55-12.6-11.05-9.3-15.75-18.2-2.1-4-0.7-5.15l5.65 0.2q6.05 1.65 15 2.75l19.9 0.85"/>
   <path d="m53.9 301.7q-0.5 0.1-0.7 0.3-1.95 3.45-5.55 7.85l-5.95 6.9q-4.35 4.75-4.55 5.5-0.35 1.7-0.45 5.35t0.15 4.3q0.8 1.8 3.45 5.25 2.45 3.2 3.1 3.65l2.4 0.75 3.9 0.2q0.4 0 0.4 0.9t-0.4 0.9l-4.1-0.2q-1.6-0.25-3-0.95-1.05-0.55-4.25-3.95-3.5-3.7-4.3-5.55-0.45-1.05 0-5.3 0.35-3.6 0.85-5.7 0.15-0.7 1.65-2.3l3.8-4.05 5.85-7.25 5.35-8.2q0.35-0.65 1.8-0.65l3.8 0.15q0.4 0 0.4 0.9t-0.4 0.9l-3.25 0.3"/>
   <path d="m77.95 346q-2.85-0.45-4-2-0.15-0.15 0.3-1.05 0.4-0.9 0.55-0.6 1.45 2.65 11.45 2.05 4.75-0.3 7.45-1.5 2.4-1.05 2.65-2.7 0.05-0.35 0.9 0.3 0.9 0.65 0.85 1-0.4 2.5-3.65 3.55-2.45 0.8-8.1 1.1-5.6 0.35-8.4-0.15"/>
   <path d="m53.65 333q-3.05 3.7-2.8 9.6 0.1 2.25 11.2 2.65 11.15 0.35 11.3-1.75 0.6-7.9-3.05-11.55-2.85-2.85-7.75-2.85-5.7 0-8.9 3.9m-0.5 13.05q-4-1.3-4.1-3.4-0.25-7.2 3.35-11.25 3.6-4.1 10.15-4.1 13.9 0 12.55 16.3-0.15 1.9-4.2 2.95-3.7 0.95-8.9 0.8-5.25-0.1-8.85-1.3"/>
   <path d="m98.65 330.4q-1.35 3.35-0.65 9.8 0.25 2.15 8.45 0.8 8.15-1.35 7.95-3.95l-0.15-1.35q-0.05-0.3 0.95 0.4l0.95 0.8q0.4 4.6-9.7 6.15-4.05 0.6-7.1 0.05-3.25-0.65-3.45-2.4-0.6-5.5 0.05-8.7 1.25-6.2 6.75-7.15l0.85 0.7q0.4 0.8 0.05 0.85-3.55 0.6-4.95 4"/>
   <path d="m84.2 281.3q0.7-1.75 1.3-1.75 1.9 0.05 6.55 4.15 3.95 3.5 6.85 6.95 0.4 0.45 0.2 2-0.15 1.55-0.4 1.2-1.85-2.65-6.25-7-4.65-4.55-6.55-5.35-1.4 2.65-0.75 8.1 0.7 5.9 3.5 12.25 5.5 12.65 15.2 22.8 10.6 11.1 21.3 13.65l-1.05-4q-0.05-0.1 0.75-0.5l0.9-0.1 1.3 4.9q0.2 0.9-0.35 1.35l-1.6 0.2q-11.4-2.5-22.3-13-10.3-9.9-15.85-22.6-4.35-9.95-3.75-18.25 0.2-3 1-5"/>
   <path d="m161.2 270.4q-7.05 3.9-10.15 4.25-0.35 0.1-0.5-0.8-0.1-0.9 0.25-0.95 2.7-0.35 8.95-4.1 6-3.55 7.4-5.35 0.25-0.3 1.5 0.3t1 0.9q-1.55 2-8.45 5.75"/>
   <path d="m149.1 266.1q-0.35 0-0.35-0.9t0.35-0.9q16.45 0 33.8-3.5 19.25-3.9 28.95-10.25 0.35-0.2 0.8 0.9t0.15 1.3q-9.6 7.15-29.05 10.75-17 3.15-34.65 2.6"/>
   <path d="m209.35 243.1q0.35-0.2 0.8 0.55t0.1 0.95q-2.65 1.55-12.1 2.65l-13.9 0.8q-0.35 0-0.35-0.9 0.05-0.9 0.4-0.85l13.3-1.05q10.25-1.25 11.75-2.15"/>
   <path d="m139.75 197q-0.25-1.55 0.1-1.45l19.85 8.35q19.6 8.6 20 10.3 0.55 2.2-1.15 14.2-1.75 12.35-3.4 15.95-0.65 1.6-8.65 8.25-7.55 6.25-12.8 9.85l-1.3-0.1q-1.05-0.3-0.85-0.45 4.1-2.8 10.5-8.2 7.55-6.3 10.9-10.25 1.8-4.1 3.65-16 1.6-10.7 1.4-12.65-1.55-1.35-17.55-8.05-14.55-6.1-20.2-8.1-0.3-0.05-0.5-1.65"/>
   <path d="m207.8 195.5q-30.1 0.7-45.75-3.75-0.35-0.1-0.1-0.95t0.6-0.75q14.05 3.95 45.85 3.15 31.05-0.8 37.75-4.75 0.3-0.15 0.25 0.85 0 1-0.2 1.1-9.15 4.4-38.4 5.1"/>
   <path d="m162.95 108.8q2.6 10.1 2.6 11.65 0 0.35-0.9 0.35t-0.9-0.35q0-1.15-2.05-9.55l-3.5-14.05q-0.75-3-0.2-3.5 0.6-0.5 1.4 2.45l3.55 13"/>
   <path d="m212 141.15q-0.35-0.05-0.25-0.95t0.45-0.85l13.5 0.25q0.4 0 0.4 0.8 0.05 0.75-0.35 0.75l-7.2 0.05-6.55-0.05"/>
   <path d="m233.2 78.1q0-2.15 0.45-3.55 0.5-1.4 0.6 0.7 0.4 12.4 1.3 16.85l-0.55 0.35q-0.55 0.05-0.65-0.25-1.15-5.9-1.15-14.1"/>
   <path d="m234.6 46.35 0.7-0.1q0.65 0.2 0.55 0.45-1.1 4.45-1.5 11.25-0.05 0.9-0.45-0.2-0.45-1.05-0.35-2.75-0.15-1.2 0.1-3.5 0.3-2.55 0.95-5.15"/>
   <path d="m243.5 31.1q0.55 0 0.9 0.5 0.4 0.5 0.4 1.2t-0.4 1.25q-0.35 0.5-0.9 0.5t-0.95-0.5q-0.4-0.55-0.4-1.25t0.4-1.2 0.95-0.5"/>
   <path d="m248.85 31.2 1.85-0.05q-0.8 4.85-3.85 7.75-3 2.85-7.25 2.85-4.65 0-7.25-3.45-2.6-3.55-2.6-10.05l1.85 0.4q0.05 4.95 1.6 7.85 2 3.8 6.4 3.8 3.9 0 6.45-2.9 2.1-2.4 2.8-6.2"/>
   <path d="m255.35 30.75 1.8-0.5q0 7.85-5.65 13.2-2.45 2.35-5.9 3.45-3.25 1.1-6.7 0.9-8.45-0.5-12.85-7.9-3.9-6.75-2.05-13.5l1.85 1q-1.2 6.2 1.75 11.8 3.55 6.65 11.4 7.1 3.05 0.2 6-0.9 2.9-1.1 5.25-3.3 4.8-4.5 5.1-11.35"/>
   <path d="m167.95 82.2 13.15 0.5q0.85 0.25 3 4.6 3.8 7.6 13.15 29.85 1.85 4.4 8.25 9l7.45 4.8q1.15 0.9-0.8 13.45-2 12.7-4.25 17.9-2.05 4.8-15.85 10.55-14.1 5.85-27 7-0.75 3.1-1.35 7.5-0.55 4.45-0.3 5.3 2 1.8 15.4 8.85l13.05 7q1.35 3.1-1.15 20.05-2.6 17.15-5.05 19.6-2.7 2.65-16.05 8.45-11.65 5.1-15.65 6.2l-2.3 0.35-3.05 0.05q-0.35 0-0.3-0.9t0.4-0.9l2.85-0.05 1.95-0.25q3.7-1.05 14.85-6.15 12.35-5.7 14.85-8.15 1.75-1.75 4.8-18 3-16.15 2.25-19.35l-15.2-7.35q-11.05-5.55-13.7-8.1-0.85-0.85 0.3-7.15 0.75-4.3 1.8-8.05 0.15-0.6 0.8-0.7 12.65-0.9 26.65-7.05 13.1-5.75 14.95-10.05 2.45-5.7 4.2-17 1.45-8.95 1.35-11.25-13-8.2-15.8-14.9-13.25-31.55-15.15-33.45-3.05-0.85-12.55-0.25-8.45 0.55-11.35 1.3l-2.05 1.15q-1.65 0.95-1.9 1.4l-0.05 1.35 0.4 11.4q0.25 10.85-0.55 13.6-0.55 2-4.05 8.55-4.4 8.2-8.85 13.95-0.25 0.3-0.5-1.45t0.05-2.1q4.1-4.6 8.05-11.8 3.15-5.75 3.55-7.5 0.55-2.35 0.35-13.9l-0.15-12.35q0.1-1.1 2.6-2.8 1.3-0.85 2.55-1.55l11.95-1.2"/>
   <path d="m201.45 136.7q-5.3-1.55-19.3-7.7l-17.35-7.65q-3.45 2.9-12.6 18.4-8.85 14.95-10.15 19.35 1.4 3.85 10.7 10.7 8.65 6.35 11.1 6.6 5.05 0.5 19.65-6.2 14.15-6.5 15.3-9 1.25-2.6 2.35-12.6 1.1-10.05 0.3-11.9m1.45-2.2 0.85 0.8q1 2.2-0.4 12.8-1.35 10.5-2.95 13.85-1.4 3-15.95 9.75-15.1 7-20.8 6.45-5.1-0.5-14.65-8.4-9.5-7.85-8.8-10.8 1.35-5.55 9.75-20 9.05-15.55 14.15-19.4l0.85-0.1 16.9 7q16.75 6.85 21.05 8.05"/>
   <path d="m247 87.05 1.35 0.3 0.8 0.6q-1.1 0.5-1.9 1.15l-0.7 0.75q1.9 5.55 3.2 14.3 1.3 8.85 0.5 11-0.5 1.45-3.7 4.05-2.8 2.35-8.75 6.45-9.5 6.45-9.9 7.7-0.55 1.75-1.35 15.3-0.8 13.8-0.3 15.1 1.05 2.25 8.6 7.5 7.8 5.35 14.6 8.35 2.05 0.9 1.35 1.4t-2.8-0.45q-7.3-3.2-14.9-8.1-7.9-5.1-9.1-7.65-0.9-1.65 0.15-15.45 1.05-13.45 2.05-16.55 0.35-1.1 3.05-3.25 2-1.55 7.55-5.4 11.35-7.8 11.7-9.4 0.75-3.2-1.2-12.65-1.7-8.15-2.95-11.2-0.3-0.8 0.5-1.95 0.8-1.1 2.15-1.9"/>
   <path d="m258.75 90.4q-0.2-0.35 1-0.6l1.35 0.05 4.3 9.7 4.7 10.45q0.7 1.25 3.45 4.25l3.5 4q1.4 1.8 1.5 2.7 0.8 6.4-1.05 22.1-1.7 14.9-3.35 19.5-0.9 2.55-6.45 7.6-5.4 4.85-9.1 6.65-2.2 1.05-3 0.65-0.75-0.45 1.45-1.5 3.35-1.65 8.55-6.65 5.1-4.9 5.85-7.05 1.7-4.65 3.6-19.35 2.1-15.65 1.35-21.9-0.1-0.85-4.2-5.55-3.15-3.7-3.65-4.6l-5.15-10.65-4.65-9.8"/>
   <path d="m238.2 150.15q-0.9 10.45-0.65 12.45 0.4 1.5 9.2 10.7 1.4 1.45 1.1 2.05-0.25 0.55-1.65-0.9-5.45-4.75-8.5-8.2-2.35-2.7-2.5-3.6-0.25-1.85 0.9-12.45 1.25-11.95 2.9-13.8 0.6-0.7 7.1-4.35l11.05-6.35q6.85-4.2 10.9-7.7 1.85-1.55 1.4-0.45-0.45 1.15-2.45 2.8-7.8 6.45-20.05 13.3-6.2 3.45-6.65 3.95-1.1 1.3-2.1 12.55"/>
   <path d="m260.9 174.7 1.15-0.8q1.25-1.1 1.25-0.9l-2.6 9.75q-2.7 10.25-3.2 13.15 4.3 9.05 3.75 11.5-6.8 29.65-38.35 48.75-1.45 0.9-6.35-0.95-4.6-1.75-5.35-2.8-0.6-0.85-1.5-4.3-0.95-3.8-0.55-4.8l7.75-19q8-19.25 9.4-20.7 0.95-0.9 9.15-5.1l8.55-4.55q0.8-0.85 2.25-6.35 1.55-6 0.85-8.15l1.8 0.3q0.5 0.15 0.5 0.4l-0.05 0.2q-3.2 13.95-4.1 14.85-0.5 0.55-8.7 5.1l-8.45 4.8q-1.05 1.4-9.25 20.25l-8 18.6-0.05 0.15q0 0.9 0.85 3.45t1.3 3.15q0.8 0.8 4.45 2.1 3.75 1.35 4.55 0.95 15.35-9.25 24.25-20.6 8.9-11.3 12.25-25.8 0.3-1.15-1.1-5.6-1.2-3.95-2-5.3-0.35-0.65 2.65-11.6l2.9-10.15"/>
   <path d="m252.1 205q2.3-1.2 1.8-0.2-0.55 1-2.8 2.15l-8.65 3.9-7 3.05q-1.3 1.8-8.05 15.5-7.2 14.45-7.95 17.65v0.05q0 0.5 0.7 1.5l1.95 2.3q0.8 0.85 0.05 0.95-0.75 0.05-1.65-0.85l-2.3-2.3q-1-1.25-0.75-2.3 0.8-3.45 8.35-18.3 7.2-14.2 8.4-15.5 0.45-0.45 8.25-3.6l9.65-4"/>
   <path d="m368.65 250.25q-0.05 0.4-1.4-0.25-1.4-0.6-1.35-1 0.85-8.1 0.55-17.05-0.65-16.55-5.5-25.45-6.6-12.05-22-29.55-8.95-10.1-28.95-30.65l-19.1-19.9q-9-9.8-12.9-15.75-2-3.1-5.1-10.5-2.45-5.7-3.7-8-2.2-3.95-4.3-5-0.35-0.15 0.55-0.85t1.25-0.5q2.45 1.2 4.5 5.15l3.75 8.4 2.2 5.45q1.25 3.15 2.35 4.85 3.55 5.45 14.05 16.15l19.85 19.85q18.95 19.45 28.85 30.85 15.25 17.5 21.95 29.75 5 9.2 5.3 26.35 0.15 7.75-0.85 17.65"/>
   <path d="m330.35 334.9q11.7-11.15 17.95-23.15 0.2-0.45 3.7-3.3 3.5-2.9 3.35-2.55-6.7 15.15-22.15 29.75-13.55 12.8-21.9 15.3-3.35 1-4.8 0.4-1.8-0.8-1.95-4.45-0.45-10.4-0.95-52.95l-0.5-44.85q-0.35-24-11.05-53.2-7.55-20.55-18-38.55l0.4-2.55q0.5-2.35 0.7-2.1 9.5 13.95 18.65 39.8 11.25 31.7 11.6 56.75l2.2 97.05q0.1 2.25 0.9 2.65 1 0.4 4-0.95 7.75-3.55 17.85-13.1"/>
   <path d="m254.15 296.8q0.4-1.85 0.4-5.55 0-0.35 1-0.8l1-0.1q0 5.7-0.45 7.4-0.4 1.5-6.2 1.95-4.2 0.35-8.95 0.15-1.35-0.05-2.55-1.45l-1.4-2.1-2.1-0.35-3.2-0.3-8.05-1.4q-4.5-1.3-6.05-3.6-5.55-8.15-17.65-16.55-13.55-9.4-23.8-10.15-0.45 0 1.65-1.05 2.05-1.1 2.55-0.95 9.75 2.05 22.35 11.35 11.6 8.55 16.8 16.25 1.25 1.9 5.55 2.95l7.5 1.2 3.95 0.6q1.35 0.3 1.8 0.8l1.05 1.4q0.9 0.95 1.85 1 5.75 0.3 9.5-0.05l3.45-0.65"/>
   <path d="m248.05 275.5q-0.05-1.3 0.4-1.55t0.5 1.05q0.15 1.7 1.55 3.85 1.3 1.95 1.1 2.7-0.25 1.2-0.65 1.4-0.4 0.15-0.25-1.05 0.05-0.4-1.05-2-1.4-2.15-1.6-4.4"/>
   <path d="m269.3 272.85q0.3-0.9 0.8-0.45 0.5 0.4 0.2 1.3-0.5 1.55-2.9 3.8l-3.35 2.75q-1.4 0.95-2.1 1-0.75 0 0.6-0.95l3.4-3.2q2.95-3.05 3.35-4.25"/>
   <path d="m253.6 222.7q-0.25-0.2 1-1.2 1.25-0.95 1.5-0.75 9.2 7.45 17.7 21.65 7.7 12.95 7.35 17.45-0.3 3.55-3.15 11-2.75 7.1-4.15 8.6-1.05 1.1-3.9 2.8l-5.35 3q-8.55 4.95-9.35 6.8-0.65 1.7-1.15 1.15-0.5-0.5 0.15-2.2 0.65-1.6 3.3-3.5l6.15-3.8 4.85-2.9 3.45-2.7q1.15-1.25 3.85-7.65 2.95-7 3.2-10.25 0.25-3.8-7.6-16.25-8.7-13.85-17.85-21.25"/>
   <path d="m256.45 288.85q-0.05-0.35 1.2-0.65l1.35 0.05q0.45 4.15 5.6 7.55 3.15 2.05 9.4 4.45 4.15 1.7 5.85 2.8 3.5 2.25 3.8 5.2l-1.4-0.2q-1.4-0.6-1.5-0.85-0.65-1.7-2.85-3.1-1.6-1-4.55-2.15-6.9-2.7-10.15-4.8-5.7-3.65-6.75-8.3"/>
   <path d="m286.25 319q0.15-2.75-1.1-5.5-1.5-3.35-4.65-5.45-1-0.7-3.35-0.8-2.55-0.1-4.3 0.7-1.7 0.8-2 2.25 0.85 1.6 1.55 5.1 0.7 3.7 0.6 6.6 1.85 0.85 5.15 0.5 3.15-0.3 5.75-1.5 2.35-1.1 2.35-1.9m1.3-5.9q1.4 3.25 1.2 6.45-0.05 1.6-3.95 3.35-2.5 1.15-5.9 1.45-3.7 0.35-6.15-0.6-0.8 2.2-5.6 2.95-2.85 0.45-7.2 0.1-4.85-0.35-6.6-1.4-0.25-0.15 0.25-0.75t0.7-0.65l10.55 0.7q5.65-0.45 5.85-1.9 0.4-2.9-0.25-7.1-0.55-3.8-1.25-4.8-0.55-0.8 0.45-2.35 1-1.5 2.45-2.2 2.15-0.95 5.55-0.75 3.15 0.25 4.6 1.2 3.55 2.4 5.3 6.3"/>
   <path d="m217.9 288.05q0.4-0.05 0.45 0.85t-0.35 0.9q-1.9 0.15-3.1 1.4l-6.5 8.3q-4.8 6.55-5.05 7.55l-0.15 3.1q0 1.5 0.25 1.75 2.5 1.75 8.75 7.45 6.15 5.6 7.95 7.7l3.1 0.4 6-0.15q0.9 0 2.95-2.55 0.2-0.3 0.95 0.25 0.7 0.6 0.45 0.85l-2.05 2.6q-0.9 1-1.7 1.05l-5.75 0.3q-4.25 0-5-0.9-1.75-2-8.55-7.85l-9.3-7.55q-1-0.7-1.15-3.45-0.15-1.85 0.05-2.75 0.2-1.35 6.2-8.85 5-6.25 7.15-8.55 1.65-1.75 4.4-1.85"/>
   <path d="m238.7 311q-4.55 1.05-5.2 4.05-0.65 3.15-0.1 7 0.55 4.25 2.15 4.9 2.7 1.1 9.5 0.8 6.65-0.35 7.2-1.4 1.15-4.8-0.3-8.85t-4.85-5.7q-3.85-1.85-8.4-0.8m-7.05 3.75q0.9-4 6.25-5.4 5.3-1.45 10 0.85 4 1.95 5.9 6.3 1.9 4.45 0.9 9.85-0.15 1-1.2 1.7-0.75 0.5-2.45 1.05-2.75 0.95-8.6 0.8t-8.35-1.2q-2.65-1.1-2.95-6.8-0.2-3.85 0.5-7.15"/>
   <path d="m333.35 291.85q1.7-10 0.05-23.9-1.55-13.3-3.8-13.4-1.9 0.15-6.05 11.1-4.65 12.15-6 24-0.95 8.05-0.95 20.7 0.05 14.1 1.6 15.2 2.55 0.45 7.6-9.9 5.4-11.25 7.55-23.8m-3.7-39.1q3.9 0.15 6 14.25 2.05 13.9 0.15 25.25-2 11.9-7.8 23.65-6 12.2-10.15 11.4-3.5-0.7-3.45-17.15 0-12.05 1.3-21.8 1.45-11.6 6-23.45 4.65-12.25 7.95-12.15"/>
   <path d="m351.7 267.65q-0.1-14.65-2.2-17.05-1.8 0.7-6.9 10.7-5.35 10.45-6.8 17-0.1 0.55-0.65-2-0.55-2.5-0.25-3.35 3.05-9.15 8-17.05 5-7.95 7.25-7 3.05 1.3 4 14.75 1 13.55-1.25 25.05-2.5 12.8-10.5 24.4-7.55 10.95-11.45 9.6-1.3-0.45-1.9-4.9-0.5-3.6-0.3-7.45 0.05-0.95 1.2-2.65 1.15-1.75 1.15-1.3l-0.05 7q0.1 6.55 0.65 7.6 2.85-0.3 8.95-9.4 7.3-10.9 9.75-23.45 1.35-6.95 1.3-20.5"/>
   <path d="m352.9 270.3q1.8-5.9 6.25-13.65 5.05-8.9 7.5-8.45 3.45 0.65 3.95 11.7 0.5 11.75-3.3 23.9-3.45 11.15-10.75 21.05-7.05 9.65-10.15 8.1-1.15-0.55-0.4-10.05 0.05-0.35 1-1t0.95-0.3v0.1q-0.15 1.15-0.2 5l-0.05 4.1q2.35-0.65 8-9.2 6.3-9.65 9.2-19 2.5-7.95 3.05-19.7 0.55-11.7-1.55-12.95-1.6 0.25-6.45 9.6-4.65 8.95-6.45 14.55-0.15 0.45-0.5-1.2t-0.1-2.6"/>
   <path d="m99.35 267.95 0.15-0.05q2.7-0.8 10.65 8.4 6.95 8 11.05 15 0.25 0.4-0.2 1.8-0.5 1.4-0.65 1.05-3.35-6.35-10.85-15.4t-9.45-9.15q-2.75 1.9-0.85 16.15 2.15 15.7 8.8 26.8 6.35 10.6 14.9 18.45 8.55 7.75 14.55 8.5-0.15-1.75-1.1-6.1-0.95-4.4-1.5-5.75l1.1 0.25q1.15 0.4 1.3 0.7 1 2.4 1.65 7.35 0.7 5.5-0.6 5.45-6.55-0.25-15.9-8.1-9.5-8.05-16.35-19.45-8.35-13.9-9.25-30.25-0.35-6.15 0.5-10.8 0.8-4.2 2.05-4.85"/>
   <path d="m133.9 277q-5.65-10.15-8.05-10.65-0.85 0.3-1.95 3.15-1.25 3.35-1.9 8-1.7 12.95 2.5 27.8 3.3 11.65 11.6 21.6 6.8 8.15 9.5 8.25 1-1.6-0.15-13.85-1-11.05-2.6-19.8-2.3-12.5-8.95-24.5m-8.35-12.45q3.05-0.55 10.05 12.2 7.1 12.95 9.4 23.75 2.65 12.5 3.35 22.95 0.8 12.4-2.05 13.4-1.15 0.4-4.2-1.55-3.3-2.1-6.8-5.85-9.4-9.95-13.15-23.3-4.75-16.7-2.1-30.15 0.95-5 2.75-8.3 1.5-2.9 2.75-3.15"/>
  </g>
 </g>
</svg>
