<?xml version="1.0" encoding="UTF-8"?>
<!-- Created with Inkscape (http://www.inkscape.org/) -->
<svg version="1.1" viewBox="0 0 126.76 148.07" xmlns="http://www.w3.org/2000/svg">
 <g transform="translate(-14.027 -27.022)">
  <g transform="matrix(.43315 -.35446 -.35446 -.43315 39.067 114.87)">
   <path d="m0 0c4.46-6.157 7.711-12.568 8.312-15.396 0.267-1.263-0.026-12.699-1.617-18.092-3.288-3.532-12.564-13.077-14.406-14.493 4.08-0.05 12.711 0.275 15.745 0.513-0.436-2.027-0.979-4.905-1.074-5.633 4.428 1.535 12.335 4.275 15.186 4.944-0.087-1.589-0.267-4.238-0.255-5.296 2.633 1.195 7.78 4.538 8.731 4.762 3.735-2.497 12.35-5.783 12.986-5.986 0.631 0.431 1.952 5.106 2.052 5.635 1.167-0.198 7.226-2.243 8.61-2.862-0.547 1.37-1.207 3.479-1.637 4.004 2.653-0.498 9.238-2.326 11.999-3.034-0.334 1.117-2.07 3.124-3.173 4.216 2.721 0.602 10.593 2.481 13.042 2.782-0.386 0.379-10.272 5.458-14.369 7.419 6.493 7.64 13.67 19.721 16.183 31.654-8.464-15.667-53.37-4.78-76.315 4.863" fill="#fff"/>
  </g>
  <g transform="matrix(.43315 -.35446 -.35446 -.43315 53.181 126.51)">
   <path d="m0 0c-2.04-3.985-13.234-13.625-15.441-15.813-1.728-1.711 12.216-0.908 17.339-0.333 0.403 0.044 0.24 1.504-0.163 1.459-1.801-0.2-9.074-0.47-13.839-0.501 3.25 2.992 9.779 9.553 12.191 12.116 0.334 0.355 0.097 3.434-0.087 3.072" fill="#231916"/>
  </g>
  <g transform="matrix(.43315 -.35446 -.35446 -.43315 58.833 132.19)">
   <path d="m0 0c-0.422-1.433-1.92-6.94-2.016-7.676-0.073-0.555-0.297-0.892 0.692-0.547 3.897 1.35 11.577 4.468 14.937 5.399-6e-3 -0.091-0.836-5.235-0.836-5.248 0.01-0.771 0.422-0.9 1.039-0.619 1.362 0.618 8.413 5.231 9 5.485 4.003-2.551 12.507-6.298 13.329-6.609 1.249-0.471 1.9 4.697 2.302 6.193 1.44-0.397 5.373-1.983 7.272-2.677 2.15-0.783 2.439-0.453 2.157 0.296-0.272 0.72-1.53 2.982-1.684 3.374 2.145-0.494 11.568-3.311 11.568-3.311 1.098-0.289-1.131 4.259-4.109 6.361-1.634 1.153-3.186 0.587-1.134-0.74 0.412-0.269 1.92-1.833 2.881-3.159-0.498 0.132-6.845 1.821-9.582 2.436-1.649 0.373-1.945 0.231-1.492-1.021 0.112-0.31 0.638-1.425 0.943-2.261-2.373 0.868-6.276 2.149-7.225 2.309-0.396 0.068-0.772-0.194-0.846-0.589-0.118-0.63-1.063-3.798-1.605-4.887-4.459 1.397-12.415 5.926-12.878 5.818-0.554-0.13-6.601-3.653-7.774-4.268 0.054 1.166 0.199 4.046 0.199 4.046 2e-3 0.017 2e-3 0.035 2e-3 0.052-7e-3 0.542-0.322 0.842-0.903 0.703-2.659-0.623-9.416-2.942-14.086-4.557 0.334 1.83 0.978 5.081 1.302 6.336 0.324 1.254-0.965 1.024-1.453-0.639" fill="#231916"/>
  </g>
  <g transform="matrix(.43315 -.35446 -.35446 -.43315 78.095 109.89)">
   <path d="m0 0c2.417-1.086 9.433-4.58 12.715-6.297-2.272-0.44-11.435-2.418-11.435-2.418-0.353-0.077 0.538-1.465 0.935-1.379 0 0 11.639 2.339 13.47 2.902 2.071 0.636-6.163 4.896-14.204 8.906-0.363 0.181-1.751-1.594-1.481-1.714" fill="#231916"/>
  </g>
  <g transform="matrix(.43315 -.35446 -.35446 -.43315 63.57 98.335)">
   <path d="m0 0c0.442-0.573 2.321-3.727 2.501-4.245 0.484-1.39 1.819-1.076 1.337 0.312-0.26 0.75-2.316 3.575-2.739 4.125-1.062 1.379-2.16 1.187-1.099-0.192" fill="#231916"/>
  </g>
  <g transform="matrix(.43315 -.35446 -.35446 -.43315 121.05 52.61)">
   <path d="m0 0c-0.351-2.452-1.923-5.358-5.019-7.459-2.741-1.862-31.5-7.32-31.744-7.321-6.462-0.028-8.926 10.744-2.837 14.024 4.114 2.218 22.351 9.346 29.948 10.528 1.447 0.227 3.208-0.111 4.583-0.773 3.115-2.116 5.4-6.023 5.069-8.999" fill="#83cef2"/>
  </g>
  <g transform="matrix(.43315 -.35446 -.35446 -.43315 137.25 100.86)">
   <path d="m0 0c-3.985-1.555-8.352-3.004-9.009-2.518-3.182 2.356-5.236 8.685-3.756 14.013 0.272 0.979 3.375 5.269 4.233 6.185 0.854 0.912 3.824 3.125 4.413 2.986 0.702-0.164 1.525-0.392 2.41-0.666-0.705 1.451-2.12 4.674-2.67 5.919 4.663 12.054 5.452 29.997 1.046 44.467-0.575-0.077-1.01-0.121-1.253-0.122-5.586-0.025-8.028 8.42-4.588 12.585 0.471 0.57 3.615 2.388 4.77 2.909 2.147 4.545 0.605 10.041-3.36 14.298 4.052 14.017-22.884 21.584-22.396 18.766 0.245-1.406 3.166-7.286 4.56-9.781-10.425 1.799-17.853-6.928-13.349-15.582-9.414-2.519-19.605-10.693-25.97-20.83 1.782 9.043 2.474 19.618-1.045 28.947 9.171 6.759 7.042 17.224-2.387 23.024 1.53 1.474 4.999 3.528 7.799 4.378 1.482 0.45 2.6 1.402-0.816 3.438-7.868 4.69-22.212 5.642-22.307-0.929-9.003 2.154-17.912-4.34-16.159-13.767-20.588-8.04-37.186-31.317-43.939-43.741-0.475-0.13-1.069-0.361-1.5-0.537 1.785-1.214 3.191-2.336 3.297-2.737 0.7-2.67-0.091-6.572-0.751-8.169-1.017-2.467-5.713-8.633-7.632-9.391-2.236-0.884-8.047 0.818-8.673 2.112-0.301 0.625-0.988 2.118-1.788 3.947-7.91-8.655-6.203-21.612 0.458-25.634 0.63-0.38 1.258-0.603 1.876-0.716 3.323-0.599 6.397 2.489 8.186 7.483 6.293-5.077 17.55 0.777 23.305 5.134 4.504-15.337 16.404-17.968 25.148-14.383 2.608-5.209 12.415-6.707 18.449-2.316 1.255-7.506 8.414-9.362 14.769-7.126 5.977-11.198 17.387-12.965 28.152-9.3-1.409-10.692 9.568-19.708 17.761-18.672-2.722-3.272-4.916-7.335-2.743-9.91 0.212-0.252 0.45-0.494 0.751-0.716 8.547-6.302 25.777 6.922 24.708 16.952" fill="#fff"/>
  </g>
  <g transform="matrix(.43315 -.35446 -.35446 -.43315 129.67 111.74)">
   <path d="m0 0c-8.192-1.036-19.17 7.98-17.76 18.672-10.766-3.665-22.176-1.899-28.154 9.3-6.354-2.236-13.512-0.38-14.769 7.127-6.032-4.392-15.84-2.895-18.448 2.315-8.744-3.585-20.644-0.954-25.147 14.384-5.756-4.358-17.013-10.212-23.306-5.135-1.789-4.994-4.863-8.082-8.186-7.482 3.156-7.272 9.49-15.766 17.835-22.369 0.367-8.64 1.589-18.133 3.255-18.456 1.553-0.3 6.247 5.106 10.457 10.438 2.339-0.922 4.755-1.659 7.235-2.168-1.164-19.382-3.879-59.335-3.071-68.248 0.348-3.845 2.569-5.029 5.786-1.825 9.608 9.573 31.355 39.978 41.988 55.235 1.639-1.106 3.341-2.084 5.086-2.946-0.487-7.769 0.184-15.33 2.624-16.236 1.846-0.686 7.333 4.119 13.009 11.146 10.722-1.233 21.4 1.467 28.823 6.338-2.173 2.575 0.02 6.639 2.743 9.91" fill="#83cef2"/>
  </g>
  <g transform="matrix(.43315 -.35446 -.35446 -.43315 53.273 124.36)">
   <path d="m0 0c0.659 1.598 1.45 5.499 0.75 8.169-0.105 0.401-9.039 6.328-10.496 6.689-2.258 0.56-8.993 2.902-9.603 2.32-0.866-0.826-1.872-6.74-2.755-8.857-0.437-1.044 5.497-14.975 5.798-15.599 0.626-1.295 6.437-2.997 8.674-2.113 1.918 0.759 6.614 6.924 7.632 9.391" fill="#83cef2"/>
  </g>
  <g transform="matrix(.43315 -.35446 -.35446 -.43315 140.22 91.898)">
   <path d="m0 0c0.324 1.6-6.479 6.692-7.664 7.437-2.147 1.35-9.983 4.039-10.685 4.203-0.588 0.137-3.559-2.076-4.413-2.987-0.858-0.917-3.961-5.207-4.232-6.185-1.481-5.328 0.573-11.657 3.755-14.013 1.834-1.355 13.3 3.954 15.649 5.448 1.488 0.95 7.257 4.451 7.59 6.097" fill="#83cef2"/>
  </g>
  <g transform="matrix(.43315 -.35446 -.35446 -.43315 130.38 136.05)">
   <path d="m0 0c0.389 0.938-0.296 2.514-0.97 2.733-0.647 0.211-2.287-0.896-2.645-1.497-0.521-0.876-0.061-2.915 1.043-3.172 0.562-0.13 2.177 0.986 2.572 1.936" fill="#d4edfa"/>
  </g>
  <g transform="matrix(.43315 -.35446 -.35446 -.43315 131.25 141.94)">
   <path d="m0 0c-2.258 0.145-4.935-2.171-4.792-5.101 0.079-1.624 1.821-4.686 3.38-5.099 1.9-0.501 4.934 2.431 5.373 3.626 0.959 2.617-1.703 6.429-3.961 6.574" fill="#d4edfa"/>
  </g>
  <g transform="matrix(.43315 -.35446 -.35446 -.43315 57.05 117.77)">
   <path d="m0 0c-1.547 1.166-9.384-6.194-9.474-7.185-0.223-2.447 2.519-8.105 3.864-8.059 0.718 0.025 8.401 5.12 8.724 5.525 0.324 0.406-2.239 9.057-3.114 9.719" fill="#83cef2"/>
  </g>
  <g transform="matrix(.43315 -.35446 -.35446 -.43315 83.593 106.6)">
   <path d="m0 0c1.498-0.189 3.348-11.098 2.441-13.03-0.719-1.536-10.367-6.219-11.906-5.378-1.624 0.888-3.271 11.036-2.519 12.298 1.137 1.908 9.675 6.402 11.984 6.11" fill="#83cef2"/>
  </g>
  <g transform="matrix(.43315 -.35446 -.35446 -.43315 93.138 103.05)">
   <path d="m0 0c-1.413 0.847-10.84-6.985-11.202-8.395-0.453-1.762 3.295-10.127 4.551-10.464 1.6-0.43 10.471 5.725 11.047 6.527 0.641 0.894-2.719 11.328-4.396 12.332" fill="#83cef2"/>
  </g>
  <g transform="matrix(.43315 -.35446 -.35446 -.43315 121.74 93.711)">
   <path d="m0 0c1.219-0.922 2.746-8.091 1.076-10.187-1.174-1.472-8.824-4.142-10.008-3.335-0.79 0.539-1.954 8.311-1.002 9.704 0.646 0.947 8.386 4.989 9.934 3.818" fill="#83cef2"/>
  </g>
  <g transform="matrix(.43315 -.35446 -.35446 -.43315 115.75 78.091)">
   <path d="m0 0c0.608-0.352 1.613-5.865 1.379-6.477-0.274-0.716-4.614-4.353-5.157-4.318-0.182 0.013-1.969 6.614-1.95 6.798 0.02 0.184 5.416 4.178 5.728 3.997" fill="#83cef2"/>
  </g>
  <g transform="matrix(.43315 -.35446 -.35446 -.43315 90.342 89.635)">
   <path d="m0 0c0.23 0.197-1.301 6.907-1.849 7.184-0.52 0.262-6.783-4.239-7.088-4.78-0.356-0.63 1.01-6.134 1.515-6.232 0.52-0.101 6.951 3.425 7.422 3.828" fill="#83cef2"/>
  </g>
  <g transform="matrix(.43315 -.35446 -.35446 -.43315 113.19 88.943)">
   <path d="m0 0c3.618 0.036 4.524-4.925 0.387-6.094-10.436-2.948-29.995 5.411-32.178 14.003-1.12 4.408 4.034 8.581 6.673 2.523 1.929-4.432 14.178-10.541 25.118-10.432" fill="#a69bc9"/>
  </g>
  <g transform="matrix(.43315 -.35446 -.35446 -.43315 76.082 91.451)">
   <path d="m0 0c0.481-0.308 1.765-6.659 1.507-7.063-0.289-0.455-5.609-3.384-6.078-3.148-0.52 0.262-2.006 6.006-1.953 6.505 0.088 0.843 5.983 4.052 6.524 3.706" fill="#83cef2"/>
  </g>
  <g transform="matrix(.43315 -.35446 -.35446 -.43315 50.433 102.68)">
   <path d="m0 0c0.349-0.039 1.235-6.256 1.129-6.533-0.2-0.526-5.684-3.938-6.064-3.77-0.43 0.192-1.188 5.364-0.824 5.911 0.167 0.252 5.425 4.43 5.759 4.392" fill="#83cef2"/>
  </g>
  <g transform="matrix(.43315 -.35446 -.35446 -.43315 73.79 101.74)">
   <path d="m0 0c-6.124-3.112-27.375 1.572-29.253 7.256-1.466 4.437-8.024 1.905-5.566-4.697 1.997-5.366 13.781-9.815 23.849-11.018 1.543-0.183 1.612-2.183 2.028-3.216 0.586-1.458 2.263-1.728 3.323-0.215 0.688 0.981 1.169 3.055 2.728 3.212 1.141 0.115 3.384 0.672 4.435 1.204 6.255 3.166 2.931 9.749-1.544 7.474" fill="#a69bc9"/>
  </g>
  <g transform="matrix(.43315 -.35446 -.35446 -.43315 53.979 100.86)">
   <path d="m0 0c-2.418-5.66-2.354-12.689 2.111-14.244 3.523-1.227 7.625 1.705 10.471 9.002 3.299 8.459 1.586 13.119-0.996 14.314-3.847 1.782-8.87-2.717-11.586-9.072" fill="#d4edfa"/>
  </g>
  <g transform="matrix(.43315 -.35446 -.35446 -.43315 59.731 99.194)">
   <path d="m0 0c1.304 3.748 1.02 6.632-0.647 7.278-1.669 0.647-4.092-1.793-5.568-5.306-1.473-3.513-1.14-7.371 0.614-7.758 2.082-0.461 4.35 2.194 5.601 5.786" fill="#a69bc9"/>
  </g>
  <g transform="matrix(.43315 -.35446 -.35446 -.43315 64.799 89.163)">
   <path d="m0 0c-3.744 1.491-8.835-3.383-11.144-9.378-2.502-6.501-1.705-11.869 1.967-13.453 3.98-1.717 8.816 2.728 11.304 8.415 2.801 6.397 2.143 12.714-2.127 14.416" fill="#d4edfa"/>
  </g>
  <g transform="matrix(.43315 -.35446 -.35446 -.43315 67.709 99.922)">
   <path d="m0 0c1.748-0.82 4.442 1.286 6.069 4.84 1.628 3.556 1.53 7.114-0.217 7.934-1.748 0.82-4.494-1.407-6.123-4.962-1.627-3.554-1.476-6.993 0.271-7.812" fill="#a69bc9"/>
  </g>
  <g transform="matrix(.43315 -.35446 -.35446 -.43315 104.45 45.462)">
   <path d="m0 0c0.815-1.03 1.144-3.716-0.397-6.317-1.412-2.383-5.815-2.701-8.216-0.659-2.04 1.735-0.683 5.648 0.609 6.659 1.353 1.054 7.183 1.354 8.004 0.317" fill="#d4edfa"/>
  </g>
  <g transform="matrix(.43315 -.35446 -.35446 -.43315 73.685 60.849)">
   <path d="m0 0c0.821-1.037-0.447-4.085-1.94-4.577-3.06-1.005-6.077 2.101-5.517 3.569 0.608 1.595 6.494 2.224 7.457 1.008" fill="#d4edfa"/>
  </g>
  <g transform="matrix(.43315 -.35446 -.35446 -.43315 39.246 86.422)">
   <path d="m0 0c-1.233-1.547-0.748-6.511 0.609-7.521 1.6-1.193 5.773 0.709 6.86 2.231 1.48 2.073 0.219 6.33-1.373 7.201-1.672 0.915-5.093-0.652-6.096-1.911" fill="#d4edfa"/>
  </g>
  <g transform="matrix(.43315 -.35446 -.35446 -.43315 39.327 97.054)">
   <path d="m0 0c0.827-0.659 1.401-2.147 0.544-3.222-0.415-0.521-2.051-1.219-2.983-0.476-1.055 0.841-1.113 2.203-0.386 3.261 0.593 0.862 2.001 1.094 2.825 0.437" fill="#d4edfa"/>
  </g>
  <g transform="matrix(.43315 -.35446 -.35446 -.43315 22.617 92.504)">
   <path d="m0 0c4.155-2.913 2.856-16.328 0.19-18.007-2.932-1.844-13.5-1.717-16.044 0.908-0.899 0.928 1.898 6.675 1.999 7.766 0.201 2.164-3.327 4.512-2.007 6.645 1.301 2.103 11.155 5.99 15.862 2.688" fill="#d4edfa"/>
  </g>
  <g transform="matrix(.43315 -.35446 -.35446 -.43315 27.736 114.46)">
   <path d="m0 0c-1.327-0.47-4.058-3.735-4.207-4.878-0.358-2.756 1.108-9.446 2.648-10.542 1.964-1.395 11.267-1.481 11.85-0.751 1.036 1.3 4.239 14.547 2.386 16.22-1.883 1.701-10.852 0.597-12.677-0.049" fill="#d4edfa"/>
  </g>
  <g transform="matrix(.43315 -.35446 -.35446 -.43315 112.33 55.621)">
   <path d="m0 0c-6.417-1.668-21.347-6.636-25.682-8.666-0.81-0.381-0.707-1.108-0.699-1.204 0.053-0.583 18.092 3.933 26.085 6.706 6.663 2.311 6.013 4.65 0.296 3.164" fill="#c9e8f9"/>
  </g>
  <g transform="matrix(.43315 -.35446 -.35446 -.43315 45.261 121.07)">
   <path d="m0 0c-5.498 1.035-7.049-1.727-7.128-2.477-0.08-0.749-5.515 6.65-5.515 6.65s9.342-2.244 12.643-4.173" fill="#c9e8f9"/>
  </g>
  <g transform="matrix(.43315 -.35446 -.35446 -.43315 136.81 91.593)">
   <path d="m0 0c-0.408-0.512-5.254-2.037-9.57 0.272-0.404 0.216 4.403-3.103 4.403-3.103 2.346-0.537 6.967-1.525 9.749-1.481 1.283 0.02-4.582 4.312-4.582 4.312" fill="#c9e8f9"/>
  </g>
  <g transform="matrix(.43315 -.35446 -.35446 -.43315 108.17 173.75)">
   <path d="M 0,0 C 3.321,19.723 9.089,42.792 11.139,56.008 11.65,59.303 2.635,58.013 2.337,56.72 1.418,52.737 0.433,17.203 0,0" fill="#c9e8f9"/>
  </g>
  <g transform="matrix(.43315 -.35446 -.35446 -.43315 118.78 51.762)">
   <path d="m0 0c-0.597 1.264-1.85 2.407-3.156 3.063-2.446-0.092-5.14-2.14-5.566-4.667-0.466-2.775 1.33-5.284 4.005-5.594 2.201-0.255 4.301 1.387 5.173 3.56 0.262 0.992 0.312 2.011-0.456 3.638" fill="#71b3d2"/>
  </g>
  <g transform="matrix(.43315 -.35446 -.35446 -.43315 104.46 69.329)">
   <path d="m0 0c-3.507-4.229 0.805-10.46 5.102-10.44 0.119 0 15.778 2.625 23.149 4.174-8.281 0.099-23.852 0.321-28.251 6.266" fill="#71b3d2"/>
  </g>
  <g transform="matrix(.43315 -.35446 -.35446 -.43315 134.25 105.14)">
   <path d="m0 0c-3.183 2.355-7.42 12.967-0.455 18.725-7.885-4.025-100.78 19.416-134.17 44.606-1.24-2.368-4.811-6.909-6.728-7.668-2.237-0.885-8.048 0.817-8.674 2.112-0.302 0.624-0.988 2.119-1.788 3.948-7.911-8.656-6.203-21.614 0.458-25.635 0.63-0.38 1.257-0.604 1.876-0.716 3.323-0.6 6.397 2.488 8.186 7.483 6.293-5.077 17.55 0.777 23.305 5.134 4.504-15.338 16.404-17.968 25.148-14.384 2.608-5.209 12.416-6.707 18.448-2.315 1.257-7.507 8.415-9.362 14.769-7.127 5.978-11.197 17.388-12.965 28.154-9.3-1.41-10.691 9.567-19.708 17.76-18.672-2.723-3.27-4.916-7.335-2.744-9.91 0.214-0.252 0.451-0.494 0.752-0.716 8.547-6.3 25.778 6.922 24.708 16.954-3.986-1.556-8.351-3.005-9.009-2.519" fill="#dcdddd"/>
  </g>
  <g transform="matrix(.43315 -.35446 -.35446 -.43315 129.66 111.64)">
   <path d="m0 0c-8.193-1.036-19.17 7.98-17.76 18.672-10.766-3.665-22.176-1.898-28.154 9.3-6.354-2.236-13.512-0.38-14.769 7.127-6.032-4.392-15.84-2.895-18.448 2.315-8.744-3.585-20.644-0.954-25.148 14.384-5.755-4.358-17.012-10.211-23.305-5.134-1.789-4.995-4.863-8.083-8.186-7.483 3.156-7.272 9.49-15.766 17.835-22.369 0.031-0.723 0.108-0.749 0.235-2.555 4.556-1.356 9.233-4.516 11.443-7.991 0.681 0.829 1.362 1.678 2.034 2.528 2.339-0.922 4.755-1.659 7.235-2.168-0.208-3.443-0.463-7.541-0.74-11.995 15.116 3.643 30.471-7.582 36.633-15.949 1.86 2.615 8.178 12.202 8.81 13.106 1.639-1.106 3.342-2.083 5.085-2.946-0.084-1.346 0.063-0.876 0.052-2.176 4.933-0.886 9.552-4.161 11.95-7.495 0.877 1.003 2.778 3.35 3.671 4.454 10.699-1.23 21.415 1.63 28.783 6.465-2.172 2.575 0.021 6.639 2.744 9.91" fill="#71b3d2"/>
  </g>
  <g transform="matrix(.43315 -.35446 -.35446 -.43315 40.201 127.24)">
   <path d="m0 0c-0.261-0.994-0.519-1.891-0.767-2.483-0.436-1.044 5.497-14.976 5.799-15.6 0.626-1.295 6.437-2.997 8.674-2.112 1.166 0.461 3.355 2.92 5.124 5.331-8.059 1.716-14.731 8.075-18.83 14.864" fill="#71b3d2"/>
  </g>
  <g transform="matrix(.43315 -.35446 -.35446 -.43315 134.25 105.14)">
   <path d="m0 0c1.834-1.355 13.3 3.954 15.648 5.448 1.264 0.806 5.596 3.446 7.088 5.233-9.004-2.549-20.93-2.389-26.676 2.546-1.087-5.15 0.912-10.987 3.94-13.227" fill="#71b3d2"/>
  </g>
  <g transform="matrix(.43315 -.35446 -.35446 -.43315 55.939 124.73)">
   <path d="m0 0c0.44-2.728 2.634-6.925 3.794-6.885 0.542 0.02 5.041 2.92 7.362 4.52-4.007-0.177-7.87 0.301-11.156 2.365" fill="#71b3d2"/>
  </g>
  <g transform="matrix(.43315 -.35446 -.35446 -.43315 82.24 115.45)">
   <path d="m0 0c0.466-3.283 1.45-7.161 2.426-7.695 1.468-0.803 10.303 3.417 11.744 5.141-4.844-0.658-9.809 0.327-14.17 2.554" fill="#71b3d2"/>
  </g>
  <g transform="matrix(.43315 -.35446 -.35446 -.43315 92.021 111.39)">
   <path d="m0 0c0.81-3.077 3.344-8.324 4.333-8.59 1.488-0.399 9.26 4.894 10.806 6.282-5.21-1.421-10.389-0.158-15.139 2.308" fill="#71b3d2"/>
  </g>
  <g transform="matrix(.43315 -.35446 -.35446 -.43315 119.16 99.628)">
   <path d="m0 0c-0.179-2.707 0.699-7.828 1.334-8.262 1.132-0.77 8.177 1.638 9.814 3.137-4.29 0.378-7.899 2.424-11.148 5.125" fill="#71b3d2"/>
  </g>
  <g transform="matrix(.43315 -.35446 -.35446 -.43315 130.26 144.16)">
   <path d="m0 0c-0.396-1.31-0.752-3.058-0.554-3.622 0.199-0.565 1.876-4.477 3.434-4.635 1.559-0.158 2.233 0.524 2.695 1.104-1.347 0.261-5.389 4.297-5.575 7.153" fill="#b8cdd9"/>
  </g>
  <g transform="matrix(.43315 -.35446 -.35446 -.43315 129.81 135.68)">
   <path d="m0 0c-0.185-0.395-2.483-1.001-3.117-0.495-0.026-1.334 0.502-2.298 0.74-2.487 0.237-0.19 3.751-9e-3 2.377 2.982" fill="#b8cdd9"/>
  </g>
  <g transform="matrix(.43315 -.35446 -.35446 -.43315 34.296 110.61)">
   <path d="m0 0c-2.555-3.449-7.943-4.843-9.608-4.735-1.664 0.107-4.874 5.104-5.072 6.075s-2.654-3.573-2.654-3.573-0.653-8.624 2.2-10.899c2.853-2.274 11.926-1.379 11.926-1.379s4.159 12.534 3.208 14.511" fill="#b8cdd9"/>
  </g>
  <g transform="matrix(.43315 -.35446 -.35446 -.43315 24.879 92.945)">
   <path d="m0 0c0.694-5.227 0.16-12.726-2.514-14.861s-13.294-1.798-16.721 0.731c0.613 1.746 3.208 7.196 3.129 8.072 0.278-1.847 0.021-3.878 3.706-4.377 3.684-0.499 12.777 6.274 12.4 10.435" fill="#b8cdd9"/>
  </g>
  <g transform="matrix(.43315 -.35446 -.35446 -.43315 39.153 86.744)">
   <path d="m0 0c-0.317-1.373 0.397-6.818 0.952-7.261 0.555-0.442 5.983 0.514 7.092 2.068-0.832-0.556-5.402-0.435-5.904 0.236-0.501 0.671-2.311 3.603-2.14 4.957" fill="#b8cdd9"/>
  </g>
  <g transform="matrix(.43315 -.35446 -.35446 -.43315 70.889 64.207)">
   <path d="M 0,0 C 0.327,-1.175 3.17,-3.949 5.003,-3.479 6.835,-3.01 8.935,-0.011 7.707,1.375 6.201,0.341 0,0 0,0" fill="#b8cdd9"/>
  </g>
  <g transform="matrix(.43315 -.35446 -.35446 -.43315 102.03 47.354)">
   <path d="m0 0c-0.892-1.118-0.445-3.607 0.367-4.662 0.813-1.054 3.779-2.537 4.612-1.982-1.377-1.848-6.682-3.175-8.752 0.203-1.01 1.647 1e-3 4.757 0.504 5.388 1.486 1.865 3.269 1.053 3.269 1.053" fill="#b8cdd9"/>
  </g>
  <g transform="matrix(.43315 -.35446 -.35446 -.43315 53.267 83.326)">
   <path d="m0 0c-17.669-4.271-37.797-23.413-48.266-44.733-0.342-0.105-1.634-0.221-1.634-0.221 0.281 0.086 1.182-1.275 0.901-1.36 0 0 1.924 0.651 1.994 0.779 12.973 23.868 30.913 40.831 49.133 45.235 3.034 0.736 0.907 1.033-2.128 0.3" fill="#231916"/>
  </g>
  <g transform="matrix(.43315 -.35446 -.35446 -.43315 69.222 79.004)">
   <path d="m0 0c5.805-9.104 6.835-19.968 3.707-35.147-0.22-1.065 1.159 0.364 1.461 1.41 3.927 13.589 1.318 25.103-3.887 33.265-1.519 2.385-2.801 2.857-1.281 0.472" fill="#231916"/>
  </g>
  <g transform="matrix(.43315 -.35446 -.35446 -.43315 89.804 71.296)">
   <path d="m0 0c-10.901 1.71-28.327-10.52-33.39-22.253-0.989-2.293-0.385-2.788 0.899-0.626 8.29 13.944 23.216 23.546 33.98 21.858 3.143-0.495 1.654 0.527-1.489 1.021" fill="#231916"/>
  </g>
  <g transform="matrix(.43315 -.35446 -.35446 -.43315 102.35 67.622)">
   <path d="m0 0c-1.802 2.201-3.855 2.796-1.895 0.74 1.166-1.222 2.236-2.577 3.218-4.032 0.172 0.284 0.354 0.563 0.544 0.829-0.595 0.835-1.211 1.661-1.867 2.463" fill="#231916"/>
  </g>
  <g transform="matrix(.43315 -.35446 -.35446 -.43315 129.64 92.537)">
   <path d="m0 0c-0.324 0.591-2.111 5.146-2.245 5.461 4.91 12.881 5.898 30.476 0.908 44.902-0.509-0.036-0.939-0.109-1.426-0.115 4.697-15.236 3.822-31.966-1.016-44.477-0.052-0.131 2.086-5.165 2.437-5.804 0.138-0.252 1.447-0.159 1.342 0.033" fill="#231916"/>
  </g>
  <g transform="matrix(.43315 -.35446 -.35446 -.43315 55.574 72.979)">
   <path d="m0 0c-9.409 4.658-21.892-2.917-18.876-13.063 0.083-0.277 1.087-0.053 1.036 0.233-1.579 8.812 8.521 16.685 18.661 11.665 2.182-1.081 1.363 0.087-0.821 1.165" fill="#231916"/>
  </g>
  <g transform="matrix(.43315 -.35446 -.35446 -.43315 63.674 70.875)">
   <path d="m0 0c-2.276 1.285-3.853 1.166-1.574-0.117 10.613-5.987 12.044-16.409 3.056-22.655-0.244-0.17 0.312-1.012 0.571-0.868 9.993 5.554 8.906 17.458-2.053 23.64" fill="#231916"/>
  </g>
  <g transform="matrix(.43315 -.35446 -.35446 -.43315 63.702 64.949)">
   <path d="m0 0c-6.442 3.841-16.922 5.302-21.185 2.707-1.528-0.931-2.31-2.333-2.284-4.004 4e-3 -0.293 1.404-0.488 1.399-0.195-0.02 1.293 0.555 2.278 1.758 3.011 3.909 2.379 13.69 1.171 19.748-2.44 2.383-1.42 2.222-2.088 0.966-2.47-3.108-0.942-6.625-2.906-8.006-4.471-0.198-0.224 1.088-1.364 1.227-1.1 0.752 1.433 4.151 3.677 7.042 4.555 2.508 0.761 2.977 2.236-0.665 4.407" fill="#231916"/>
  </g>
  <g transform="matrix(.43315 -.35446 -.35446 -.43315 88.199 62.245)">
   <path d="m0 0c-11.501 4.19-19.724-8.364-15.372-15.381 0.152-0.244 1.376 0.037 1.243 0.292-3.623 6.913 3.124 17.751 14.721 14.195 2.492-0.764 1.854 2e-3 -0.592 0.894" fill="#231916"/>
  </g>
  <g transform="matrix(.43315 -.35446 -.35446 -.43315 95.109 60.244)">
   <path d="m0 0c-1.979 1.072-3.031 0.937-1.053-0.135 7.775-4.215 11.531-12.587 8.049-18.04-0.161-0.251 1.335 0.181 1.505 0.426 3.727 5.411-0.923 13.642-8.501 17.749" fill="#231916"/>
  </g>
  <g transform="matrix(.43315 -.35446 -.35446 -.43315 91.228 56.203)">
   <path d="m0 0c-6.531 4.968-18.703 8.61-18.198 6.074 0.321-1.609 4.088-8.986 5.346-11.161 0.143-0.248 1.495-0.321 1.352-0.071-1.365 2.361-4.781 8.946-5.011 10.269 1.389 1.493 25.218-6.514 21.417-18.656-0.09-0.282 0.861-0.882 0.949-0.599 1.894 6.047-2.012 11.22-5.855 14.144" fill="#231916"/>
  </g>
  <g transform="matrix(.43315 -.35446 -.35446 -.43315 46.205 132.15)">
   <path d="m0 0c-8.474-8.89-6.065-22.846 0.468-26.79 4.315-2.604 8.903 1.335 10.969 7.234 0.098 0.281-0.894 0.596-0.991 0.316-2.008-5.734-5.763-8.554-9.2-6.481-5.762 3.479-7.65 16.792-0.33 24.472 0.207 0.217-0.71 1.465-0.916 1.249" fill="#231916"/>
  </g>
  <g transform="matrix(.43315 -.35446 -.35446 -.43315 81.915 123.38)">
   <path d="m0 0c-8.514-3.748-20.5 0.662-24.466 14.17-0.147 0.501-0.279 0.651-0.809 0.25-9.462-7.162-20.285-9.539-24.493-3.094-1.051 1.61-1.443 0.844-0.391-0.766 4.341-6.647 13.188-5.946 24.905 2.603 4.662-14.653 16.483-18.166 25.639-14.134 0.271 0.119-0.115 1.09-0.385 0.971" fill="#231916"/>
  </g>
  <g transform="matrix(.43315 -.35446 -.35446 -.43315 137.03 101.08)">
   <path d="m0 0c1.033-9.22-15.907-22.296-23.811-16.47-2.787 2.056-1.116 6.036 2.068 9.86 0.702 0.841 0.407 0.966-0.441 0.859-8.921-1.128-18.431 8.719-17.194 18.097 0.073 0.558-0.153 0.728-0.672 0.55-12.027-4.094-22.321-0.707-27.537 9.065-0.118 0.22-0.379 0.319-0.621 0.234-6.715-2.363-13.017 0.291-14.096 6.736-0.084 0.509-0.228 0.743-0.814 0.316-6.306-4.591-16.287-2.408-18.011 2.935-0.614 1.908-1.25 0.894-0.636-1.013 1.801-5.585 11.378-7.794 18.601-3.176 1.587-6.934 7.1-9.441 14.857-6.925 5.563-10.019 15.144-13.42 27.833-9.386-0.774-9.811 7.721-18.744 17.201-18.561-3.104-4.057-5.201-8.541-2.047-10.865 7.611-5.612 27.814 4.992 26.367 17.908-0.033 0.29-1.08 0.127-1.047-0.164" fill="#231916"/>
  </g>
  <g transform="matrix(.43315 -.35446 -.35446 -.43315 57.258 142.61)">
   <path d="m0 0c-0.079 0.177-1.665 0.605-1.552 0.34 3.781-8.873 10.457-17.936 19.038-24.418-0.07 0.766-0.304 1.319-0.216 2.031-7.939 6.318-13.997 14.672-17.27 22.047" fill="#231916"/>
  </g>
  <g transform="matrix(.43315 -.35446 -.35446 -.43315 85.234 142.88)">
   <path d="m0 0c-2.31 0.453-4.576 1.121-6.788 1.962-0.303-0.419-0.687-0.81-1.104-1.184 2.453-0.911 5.016-1.649 7.694-2.175 0.282-0.055 0.481 1.341 0.198 1.397" fill="#231916"/>
  </g>
  <g transform="matrix(.43315 -.35446 -.35446 -.43315 132.61 117.19)">
   <path d="m0 0c0.25 0.16-0.461 1.756-0.708 1.591-6.854-4.536-18.688-8.052-28.126-6.229-0.621-0.577-0.994-0.712-1.606-1.241 11.683-1.913 22.219 0.635 30.44 5.879" fill="#231916"/>
  </g>
  <g transform="matrix(.43315 -.35446 -.35446 -.43315 109.8 133.44)">
   <path d="m0 0c-0.236 0.161-0.853-0.837-0.616-0.999 1.763-1.199 3.525-2.261 5.281-3.197 0.089 0.434 0.181 0.865 0.261 1.29-1.675 0.85-3.322 1.815-4.926 2.906" fill="#231916"/>
  </g>
  <g transform="matrix(.43315 -.35446 -.35446 -.43315 109.32 129.77)">
   <path d="m0 0c-8.47-12.392-35.057-50.149-45.992-61.043-2.489-2.48-4.528-2.59-4.9 1.525-0.685 7.565 3.423 74.328 3.423 74.328 0.127 2.132-0.486 1.737-0.925-0.769-2.114-12.063-4.413-65.629-3.72-73.274 0.402-4.443 3.206-6.605 6.947-2.877 10.839 10.798 36.953 46.007 44.828 60.093 1.144 2.047 1.663 3.955 0.339 2.017" fill="#231916"/>
  </g>
  <g transform="matrix(.43315 -.35446 -.35446 -.43315 94.522 124.01)">
   <path d="m0 0c-0.237-4.28 3.666-12.903 8.052-17.053 1.76-1.669 2.947-1.757 1.182-0.091-4.479 4.237-8.778 14.373-8.313 18.045 0.225 1.764-0.823 0.871-0.921-0.901" fill="#231916"/>
  </g>
  <g transform="matrix(.43315 -.35446 -.35446 -.43315 91.241 124.54)">
   <path d="m0 0c-3.919-2.503-12.644-5.028-17.239-4.405-2.147 0.29-1.372-0.382 0.776-0.672 4.903-0.664 12.095 1.582 16.165 4.182 1.652 1.056 1.948 1.953 0.298 0.895" fill="#231916"/>
  </g>
  <g transform="matrix(.43315 -.35446 -.35446 -.43315 120.96 122.77)">
   <path d="m0 0c-7.483-11.729-17.631-22.146-19.744-21.361-2.945 1.093-3.118 14.769-1.188 24.781 0.419 2.173-0.779 0.868-1.198-1.304-1.586-8.228-2.352-23.474 1.825-25.026 3.453-1.283 14.429 11.596 20.396 21.603 1.173 1.967 1.143 3.236-0.091 1.307" fill="#231916"/>
  </g>
  <g transform="matrix(.43315 -.35446 -.35446 -.43315 116.74 124.61)">
   <path d="m0 0c-0.952-0.462-5.045-2.494-5.863-2.867-1.712-0.781-0.691-1.06 0.87-0.469 0.881 0.33 5.399 2.516 5.705 2.647 1.428 0.608 0.71 1.378-0.712 0.689" fill="#231916"/>
  </g>
  <g transform="matrix(.43315 -.35446 -.35446 -.43315 118.14 124.54)">
   <path d="m0 0c1e-3 -1.93-0.24-3.927-0.259-4.521-0.041-1.258 0.486-1.022 0.753 0.213 0.337 1.561 0.383 3.831 0.382 4.347 0 1.381-0.877 1.342-0.876-0.039" fill="#231916"/>
  </g>
  <g transform="matrix(.43315 -.35446 -.35446 -.43315 115.18 130.28)">
   <path d="m0 0c-0.459-1.987-1.963-12.348-1.963-12.348-0.302-2.084 0.551-2.277 0.856-0.191 0 0 1.507 10.411 1.96 12.373 0.439 1.893-0.417 2.059-0.853 0.166" fill="#231916"/>
  </g>
  <g transform="matrix(.43315 -.35446 -.35446 -.43315 121.03 136.39)">
   <path d="m0 0c-0.708-0.097-1.452-0.052-2.291-0.128-1.12-0.102-1.145-0.633-0.04-0.781 0.799-0.109 1.624-0.076 2.412 0.031 0.241 0.032 0.161 0.911-0.081 0.878" fill="#231916"/>
  </g>
  <g transform="matrix(.43315 -.35446 -.35446 -.43315 92.923 135.01)">
   <path d="m0 0c4.292 5.384 9.132 11.117 10.492 12.295 0.522-2.558 0.599-18.257-0.531-25.417-3.165-3.24-10.986-9.709-12.169-10.068-0.817 0.748-3.401 9.465-4.01 14.998 1.303 1.905 3.654 4.975 6.218 8.192m10.918 13.329c-1.048 0.5-16.328-18.433-18.193-21.183-0.656-0.969 3.192-15.758 4.829-16.224 1.314-0.372 13.307 9.97 13.404 10.561 0.918 5.652 1.451 26.136-0.04 26.846" fill="#231916"/>
  </g>
  <g transform="matrix(.43315 -.35446 -.35446 -.43315 101.07 148.18)">
   <path d="m0 0c0.79-0.975 2.071-8.344 1.765-11.32-2.083-2.727-9.702-12.361-12.051-14.502-0.284 2.529 0.267 14.671 0.513 17.513 3.276 3.843 8.77 7.865 9.773 8.309m0.307 0.909c-1.209 0.534-10.857-8.068-10.943-9.021-0.052-0.574-1.2-18.597-0.163-19.023 0.878-0.361 13.627 15.279 13.641 15.406 0.294 2.432-0.968 11.943-2.535 12.638" fill="#231916"/>
  </g>
  <g transform="matrix(.43315 -.35446 -.35446 -.43315 106.68 164.95)">
   <path d="m0 0c-0.649 0.124-1.494-1.04-4.757-5.795-1.045-1.522-1.588-3.125-0.446-1.693 7e-3 9e-3 0.014 0.017 0.02 0.027 1.14 1.658 4.526 6.016 4.823 6.315 0.075-1.436-0.311-5.686-0.669-8.11-0.301-2.043 0.488-0.557 0.789 1.485 0.406 2.742 1.312 7.562 0.24 7.771" fill="#231916"/>
  </g>
  <g transform="matrix(.43315 -.35446 -.35446 -.43315 80.885 138.78)">
   <path d="m0 0c-13.404-18.298-16.012-18.864-16.402-18.79-1.809 0.517-3.651 19.85-2.737 28.731 0.324 3.145-0.66 1.63-0.982-1.516-0.659-6.401-0.1-28.454 3.243-29.102 0.743-0.144 3.714 0.392 17.046 19.432 1.376 1.881 1.262 3.198-0.168 1.245" fill="#231916"/>
  </g>
  <g transform="matrix(.43315 -.35446 -.35446 -.43315 71.23 139.25)">
   <path d="m0 0c-1.129-0.522-3.464-3.098-3.988-3.865-0.703-1.027-0.727-2.033-0.025-1.005 0.581 0.85 3.537 3.761 4.462 4.376 0.954 0.637 0.586 0.973-0.449 0.494" fill="#231916"/>
  </g>
  <g transform="matrix(.43315 -.35446 -.35446 -.43315 72.404 138.41)">
   <path d="m0 0c1.286-1.205 2.972-4.726 3.292-6.475 0.372-2.032 0.825-0.96 0.53 1.089-0.198 1.376-1.843 4.517-2.893 5.558-1.076 1.065-2.033 0.866-0.929-0.172" fill="#231916"/>
  </g>
  <g transform="matrix(.43315 -.35446 -.35446 -.43315 77.711 142.53)">
   <path d="m0 0c-1.114-3.033-5.567-10.381-7.158-12.376-0.152-0.191-0.269-0.314-0.363-0.398-0.546 0.455-2.123 3.722-2.581 5.171-0.073 0.23-0.91-0.073-0.837-0.303 0.019-0.057 2.103-5.788 3.435-5.8 1.344-0.011 6.669 10.034 7.569 12.485 0.742 2.017 0.607 3.055-0.065 1.221" fill="#231916"/>
  </g>
  <g transform="matrix(.43315 -.35446 -.35446 -.43315 59.069 136.61)">
   <path d="m0 0c0.33-1.799 2.078-5.617 3.593-7.143 0.923-0.933 1.857-1.059 0.931-0.129-1.366 1.376-3.364 5.847-3.662 7.468-0.043 0.24-0.905 0.042-0.862-0.196" fill="#231916"/>
  </g>
  <g transform="matrix(.43315 -.35446 -.35446 -.43315 66.947 136.67)">
   <path d="m0 0c-1.846-0.308-2.869-0.393-4.461 0.238-0.869 0.342-0.898-0.377-0.049-0.759 1.61-0.725 2.774-0.485 4.132-0.246 1.426 0.252 1.806 1.003 0.378 0.767" fill="#231916"/>
  </g>
  <g transform="matrix(.43315 -.35446 -.35446 -.43315 65.005 129.84)">
   <path d="m0 0c0.104-2.31-1.187-6.315-3.527-9.023-0.71-0.824 0.458-0.244 1.17 0.581 2.492 2.882 3.345 6.032 3.233 8.52-0.011 0.243-0.888 0.165-0.876-0.078" fill="#231916"/>
  </g>
  <g transform="matrix(.43315 -.35446 -.35446 -.43315 102.38 116.42)">
   <path d="m0 0c-0.82-0.301-2.297-0.904-2.956-1.573-0.383-0.387-5.05-9.431-4.779-10.463 0.129-0.489 0.464-1.315 1.215-2.375 1.217-1.716 1.605-1.226 0.471 0.586-0.515 0.825-0.723 1.614-0.833 2.034 0.061 0.811 3.985 8.961 4.541 9.613 0.375 0.381 1.353 0.887 2.608 1.346 0.231 0.085-0.036 0.916-0.267 0.832" fill="#231916"/>
  </g>
  <g transform="matrix(.43315 -.35446 -.35446 -.43315 107.88 116.19)">
   <path d="m0 0c-1.243-1.248-7.044-5.657-10.974-7.804-1.874-1.021-0.852-1.526 1.358-0.221 3.936 2.323 9.051 6.235 10.221 7.411 0.176 0.176-0.43 0.791-0.605 0.614" fill="#231916"/>
  </g>
  <g transform="matrix(.43315 -.35446 -.35446 -.43315 53.549 124.26)">
   <path d="m0 0m-10.376 14.527c2.419-0.599 9.719-5.502 10.143-6.36 0.669-2.559-0.163-6.405-0.736-7.795-1.024-2.481-5.646-8.42-7.321-9.083-2.026-0.803-7.542 0.868-8.025 1.867-1.89 3.909-6.141 13.947-5.787 15.172 0.386 0.923 2.182 8.06 2.568 8.586 0.736 0.12 9.158-2.387 9.158-2.387m0.881 1.24s-10.851 3.297-11.392 2.782c-0.588-0.562-2.019-9.138-2.376-9.993-0.835-1.998 5.93-15.76 5.998-15.898 0.76-1.572 6.801-3.774 9.288-2.791 2.143 0.847 7.016 7.803 7.977 10.133 0.641 1.553 1.526 5.645 0.775 8.512-0.362 1.381-7.916 6.672-10.27 7.255" fill="#231916"/>
  </g>
  <g transform="matrix(.43315 -.35446 -.35446 -.43315 55.729 124.07)">
   <path d="m0 0c0.286 0.794 7.559 7.626 8.62 6.78 0.688-0.646 2.863-7.796 2.938-9.05-0.989-0.818-7.524-5.057-8.261-5.237-0.818 0.055-3.509 5.176-3.297 7.507m9.276 7.642v-1e-3c-2.019 1.523-10.213-6.368-10.325-7.589-0.213-2.345 2.408-8.891 4.271-8.823 0.989 0.035 9.019 5.622 9.344 6.031 0.229 0.678-2.124 9.501-3.29 10.382" fill="#231916"/>
  </g>
  <g transform="matrix(.43315 -.35446 -.35446 -.43315 56.848 119.28)">
   <path d="m0 0c-0.76-0.528-1.466-1.474-1.833-1.994-0.868-1.235-0.599-1.806 0.34-0.628 0.244 0.307 1.537 1.719 2.203 2.182 1.127 0.784 0.417 1.222-0.71 0.44" fill="#231916"/>
  </g>
  <g transform="matrix(.43315 -.35446 -.35446 -.43315 57.348 123.41)">
   <path d="m0 0c-0.242-1.155-0.171-3.193 0.159-4.19 0.439-1.331 1.244-1.543 0.807-0.213-0.279 0.843-0.395 3.79-0.189 4.776 0.301 1.428-0.478 1.055-0.777-0.373" fill="#231916"/>
  </g>
  <g transform="matrix(.43315 -.35446 -.35446 -.43315 88.99 111.45)">
   <path d="m0 0c-0.366-0.779-4.854-3.316-8.403-4.562-2.276-0.799-2.746-0.566-2.765-0.555-1.291 0.707-2.93 10.465-2.335 11.568 0.032 0.057 0.075 0.116 0.124 0.178 1.411 1.77 9.149 5.902 11.301 5.664 1.017-0.624 2.964-10.402 2.078-12.293m-1.88 13.348c-2.639 0.334-11.721-4.403-12.918-6.412-1.134-1.904 1.637-12.193 3.098-12.993 1.395-0.762 11.701 3.457 12.686 5.558 0.915 1.953-0.919 13.601-2.866 13.847" fill="#231916"/>
  </g>
  <g transform="matrix(.43315 -.35446 -.35446 -.43315 86.506 112.61)">
   <path d="m0 0c-0.873-1.063-2.327-2.409-4.676-3.62-1.355-0.697-0.632-1.128 0.857-0.312 2.279 1.251 3.486 2.351 4.358 3.435 1.018 1.266 0.507 1.77-0.539 0.497" fill="#231916"/>
  </g>
  <g transform="matrix(.43315 -.35446 -.35446 -.43315 83.996 107.95)">
   <path d="m0 0c0.122-1.646-0.109-4.974-0.292-6.298-0.195-1.407 0.695-1.468 0.891 0.12 0.166 1.339 0.157 3.731 0.117 5.464-0.044 1.858-0.83 2.246-0.716 0.714" fill="#231916"/>
  </g>
  <g transform="matrix(.43315 -.35446 -.35446 -.43315 93.097 102.75)">
   <path d="m0 0v-1e-3zm3.656-12.529c-0.947-1.115-9.31-6.572-10.434-6.277-0.965 0.413-4.591 8.305-4.198 9.838 0.423 1.328 8.962 8.382 10.426 8.036 1.356-0.866 4.512-10.253 4.206-11.597m-3.656 12.528c-1.696 1.018-11.405-6.454-11.993-8.742-0.528-2.05 3.277-10.654 4.904-11.092 2.028-0.544 11.28 5.776 11.855 6.576 0.921 1.283-3.035 12.221-4.766 13.258" fill="#231916"/>
  </g>
  <g transform="matrix(.43315 -.35446 -.35446 -.43315 93.197 104.36)">
   <path d="m0 0c-0.704-1.014-1.659-2.795-2.274-3.814-0.836-1.381-0.338-1.781 0.474-0.433 0.641 1.062 2.074 3.132 2.716 4.054 0.786 1.126-0.017 1.49-0.916 0.193" fill="#231916"/>
  </g>
  <g transform="matrix(.43315 -.35446 -.35446 -.43315 94.199 109.9)">
   <path d="m0 0c-0.308-1.709-0.489-4.607-0.435-6.118 0.044-1.302 0.884-0.888 0.862 0.666-0.022 1.572 0.048 4.088 0.284 5.487 0.237 1.398-0.46 1.369-0.711-0.035" fill="#231916"/>
  </g>
  <g transform="matrix(.43315 -.35446 -.35446 -.43315 119.08 98.859)">
   <path d="m0 0c0.702 0.962 8.055 4.522 9.178 3.677 0.783-0.592 2.493-7.556 0.997-9.433-1.159-1.454-8.453-3.756-9.296-3.215-0.677 0.76-1.604 7.912-0.879 8.971m9.832 4.537c-1.969 1.49-10.227-3.279-10.69-3.959-1.08-1.578-0.198-9.991 0.867-10.719 1.594-1.085 9.808 2.276 10.975 3.74 1.909 2.394 0.106 9.987-1.152 10.938" fill="#231916"/>
  </g>
  <g transform="matrix(.43315 -.35446 -.35446 -.43315 122.02 94.901)">
   <path d="m0 0c-0.089-0.913-0.38-2.347-0.643-3.162-0.418-1.299 0.217-1.275 0.691 0.065 0.346 0.98 0.534 1.781 0.616 2.825 0.097 1.246-0.547 1.489-0.664 0.272" fill="#231916"/>
  </g>
  <g transform="matrix(.43315 -.35446 -.35446 -.43315 123.24 98.694)">
   <path d="m0 0c-0.66-0.714-1.855-1.85-2.635-2.559-1.146-1.045-0.558-1.369 0.677-0.438 0.87 0.654 1.597 1.628 2.283 2.427 1.181 1.375 0.818 1.802-0.325 0.57" fill="#231916"/>
  </g>
  <g transform="matrix(.43315 -.35446 -.35446 -.43315 134.3 91.693)">
   <path d="m0 0c2.053-1.29 7.599-5.883 7.439-6.897-0.256-1.267-6.28-4.977-7.341-5.735-2.071-1.318-13.881-5.882-15.093-5.44-2.834 2.102-5.006 8.15-3.537 13.435 0.19 0.685 3.972 5.817 4.1 5.951 0.877 0.937 3.398 2.729 3.949 2.813 3.093-0.73 7.84-2.465 10.483-4.127m0.584 0.909c-2.335 1.454-9.055 4.341-10.557 4.554-1.222 0.174-4.712-2.187-5.23-2.739-0.847-0.905-4.313-5.906-4.622-7.018-1.607-5.782 0.877-12.6 4.076-14.968 1.637-1.211 15.312 5.058 16.381 5.738 0.951 0.622 7.926 4.516 8.322 6.472 0.458 2.266-8.286 7.909-8.37 7.961" fill="#231916"/>
  </g>
  <g transform="matrix(.43315 -.35446 -.35446 -.43315 132.18 94.613)">
   <path d="m0 0c-2.003 1.208-4.167 2.155-5.898 2.734-1.433 0.479-1.795-0.198-0.136-0.802 1.878-0.684 4.705-1.936 6.419-3.065 1.625-1.068 1.48 8e-3 -0.385 1.133" fill="#231916"/>
  </g>
  <g transform="matrix(.43315 -.35446 -.35446 -.43315 134.72 96.513)">
   <path d="m0 0c-2.451-1.557-7.515-4.393-10.203-5.709-1.203-0.593-0.425-0.98 0.979-0.338 2.807 1.283 6.69 3.62 9.199 5.199 1.59 1.001 1.53 1.802 0.025 0.848" fill="#231916"/>
  </g>
  <g transform="matrix(.43315 -.35446 -.35446 -.43315 138.29 92.849)">
   <path d="m0 0c-1.441 0.46-3.333 0.874-5.044 1.102-1.748 0.23-2.242-0.501-0.327-0.799 1.668-0.26 3.606-0.742 4.877-1.016 1.691-0.364 2.071 0.213 0.494 0.713" fill="#231916"/>
  </g>
  <g transform="matrix(.43315 -.35446 -.35446 -.43315 107.1 83.11)">
   <path d="m0 0c-1.148-0.609-1.098-1.657 0.049-1.048 4.354 2.308 11.542-2.45 8.836-8.959-0.457-1.096 0.625-1.268 1.081-0.173 2.963 7.125-4.467 13.096-9.966 10.18" fill="#231916"/>
  </g>
  <g transform="matrix(.43315 -.35446 -.35446 -.43315 92.855 91.356)">
   <path d="m0 0c-0.917-1.377-0.439-2.461 0.479-1.086 4.737 7.112 12.678 6.408 16.12-0.141 0.653-1.239 1.292-0.34 0.637 0.898-3.616 6.881-11.788 8.506-17.236 0.329" fill="#231916"/>
  </g>
  <g transform="matrix(.43315 -.35446 -.35446 -.43315 117.82 83.704)">
   <path d="m0 0c-0.426 1.263-1.439 4.994-1.657 5.936 0.751 0.646 3.927 2.972 4.931 3.516 0.481-1.02 1.226-5.048 1.098-5.69-0.017-0.034-3.324-3.104-4.372-3.762m5.362 3.449c0.314 0.819-0.777 6.823-1.703 7.36-0.308 0.178-6.332-3.88-6.416-4.674-8e-3 -0.075 1.761-7.436 2.184-7.464 0.992-0.064 5.664 4.069 5.935 4.778" fill="#231916"/>
  </g>
  <g transform="matrix(.43315 -.35446 -.35446 -.43315 87.101 87.529)">
   <path d="m0 0c0.472-0.969 1.507-5.277 1.579-6.303-0.97-0.636-5.593-3.138-6.686-3.505-0.481 0.889-1.376 4.678-1.253 5.396 0.606 0.692 5.214 3.948 6.36 4.412m0.5 1.083c-0.583 0.294-7.602-4.672-7.793-5.01-0.329-0.581 1.067-6.851 1.848-7.002 0.995-0.192 7.821 3.907 7.874 3.951 0.532 0.457-1.129 7.657-1.929 8.061" fill="#231916"/>
  </g>
  <g transform="matrix(.43315 -.35446 -.35446 -.43315 115.28 89.206)">
   <path d="m0 0c0.103-1.037-0.451-2.334-2.318-2.861-10.284-2.907-29.448 5.383-31.547 13.644-0.547 2.156 0.584 4.185 1.983 4.726 1.377 0.533 2.76-0.436 3.697-2.588 2.081-4.776 14.86-10.838 25.585-10.732 1.635 0.017 2.495-1.124 2.6-2.189m-2.565 3.252c-11.124-0.111-22.876 6.052-24.654 10.133-1.685 3.87-4.048 3.807-5.119 3.394-1.837-0.71-3.592-3.567-2.878-6.375 2.251-8.86 22.207-17.377 33.141-14.289 2.531 0.716 3.546 2.706 3.405 4.12-0.151 1.511-1.628 3.04-3.895 3.017" fill="#231916"/>
  </g>
  <g transform="matrix(.43315 -.35446 -.35446 -.43315 74.826 95.195)">
   <path d="m0 0c0.592 0.742 4.607 3.011 5.669 3.211 0.415-0.906 1.361-5.402 1.314-6.29-0.561-0.484-4.358-2.555-5.324-2.812-0.491 0.87-1.622 5.111-1.676 5.869 6e-3 7e-3 0.01 0.013 0.017 0.022m6.268 4.208c-0.793 0.506-7.215-2.923-7.342-4.126-0.036-0.351 1.298-6.549 2.225-7.016 0.986-0.497 6.561 3.025 6.769 3.352 0.455 0.716-0.949 7.341-1.652 7.79" fill="#231916"/>
  </g>
  <g transform="matrix(.43315 -.35446 -.35446 -.43315 50.579 103.09)">
   <path d="m0 0c0.327-1.273 0.846-4.88 0.869-5.614-0.584-0.601-4.175-2.854-5.266-3.324-0.352 1.002-0.795 4.345-0.639 5.008 0.497 0.481 3.818 3.111 5.036 3.93m0.347 1.267c-1e-3 0-1e-3 0-1e-3 -1e-3 -0.829 0.093-6.241-4.588-6.273-4.638-0.407-0.612 0.029-6.664 0.806-7.009 0.767-0.339 6.859 4.028 7.005 4.412 0.104 0.272-0.613 7.129-1.537 7.236" fill="#231916"/>
  </g>
  <g transform="matrix(.43315 -.35446 -.35446 -.43315 63.383 109)">
   <path d="m0 0c7.225-2.86 18.375-4.474 22.824-2.212 1.095 0.557 2.169 0.548 3.021-0.023 1.148-0.77 2.564-4.238-1.916-6.504-0.956-0.486-3.134-1.037-4.246-1.15-1.441-0.144-2.367-1.902-2.63-2.547-0.847-2.08-2.717-2.093-3.143 0.035-0.159 0.794-0.675 2.55-2.192 2.73-9.794 1.171-21.54 5.593-23.439 10.695-0.777 2.087-0.664 3.97 0.309 5.165 0.605 0.744 1.5 1.124 2.338 0.995 0.892-0.139 1.575-0.797 1.925-1.854 0.785-2.377 4.321-4.21 7.149-5.33m26.654-1.031c-1.155 0.774-2.729 0.792-4.16 0.064-4.076-2.071-15.068-0.816-22.074 1.959-3.719 1.472-5.911 3.484-6.429 5.05-0.987 2.986-4.686 3.181-6.452 1.011-1.228-1.508-1.658-3.931-0.746-6.382 2.059-5.529 14.451-10.165 24.757-11.398 0.782-0.092 1.15-1.126 1.343-1.99 0.192-0.865 0.763-2.33 2.209-2.45 1.177-0.099 2.285 0.688 2.888 2.289 0.292 0.774 0.975 1.854 1.753 1.932 1.234 0.125 4.007 0.836 5.11 1.393 5.062 2.564 3.888 7.122 1.801 8.522" fill="#231916"/>
  </g>
  <g transform="matrix(.43315 -.35446 -.35446 -.43315 54.256 100.78)">
   <path d="m0 0c3.216 7.527 8.249 9.994 10.868 8.781 2.558-1.185 3.713-5.812 0.676-13.599-2.56-6.564-6.244-9.941-9.724-8.73-3.055 1.066-4.925 6.28-1.82 13.548m11.341 9.751c-3.768 1.745-9.31-1.973-12.426-9.268-3.467-8.111-1.128-13.84 2.451-15.086 4.288-1.493 8.452 2.089 11.278 9.334 3.285 8.424 1.685 13.635-1.303 15.02" fill="#231916"/>
  </g>
  <g transform="matrix(.43315 -.35446 -.35446 -.43315 56.571 100.47)">
   <path d="m0 0c1.391 3.313 3.63 5.578 4.992 5.051 1.426-0.554 1.527-3.269 0.339-6.679-1.418-4.076-3.492-6.006-4.886-5.522-1.43 0.496-1.61 4.376-0.445 7.15m5.336 5.879c-1.866 0.723-4.603-1.567-6.239-5.462-1.409-3.357-1.107-7.548 1.058-8.38 2.1-0.806 4.591 1.829 6.136 5.99 1.488 4.008 0.775 7.182-0.955 7.852" fill="#231916"/>
  </g>
  <g transform="matrix(.43315 -.35446 -.35446 -.43315 70.553 94.738)">
   <path d="m0 0c-2.834-6.477-7.554-9.436-10.6-8.121-3.398 1.466-4.081 6.605-1.701 12.789 2.782 7.228 7.897 10.07 10.442 9.056 3.673-1.463 4.667-7.307 1.859-13.724m-1.436 14.715c-3.676 1.465-9.272-2.649-11.953-9.613-2.597-6.748-1.591-12.507 2.341-14.204 4.408-1.901 9.42 2.325 12.137 8.535 3.67 8.387 0.801 13.957-2.525 15.282" fill="#231916"/>
  </g>
  <g transform="matrix(.43315 -.35446 -.35446 -.43315 65.055 96.568)">
   <path d="m0 0c1.63 3.557 4.346 5.284 5.528 4.73 1.513-0.709 1.521-4.08 0.019-7.359-1.304-2.85-3.782-5.401-5.474-4.609-1.536 0.721-1.569 3.968-0.073 7.238m5.925 5.537c-1.696 0.796-4.926-0.959-6.827-5.107-1.628-3.559-1.512-7.847 0.657-8.652 2.029-0.753 4.89 1.074 6.709 5.044 1.756 3.838 1.452 7.781-0.539 8.715" fill="#231916"/>
  </g>
  <g transform="matrix(.43315 -.35446 -.35446 -.43315 113.13 51.348)">
   <path d="m0 0c-6.198-0.966-23.788-7.36-30.258-10.848-3.279-1.766-4.387-6.127-3.721-9.26 0.653-3.081 3.2-6.048 6.755-6.033 2.804 0.012 29.104 5.194 32.177 7.28 3.874 2.629 4.756 5.882 5.013 7.925 0.638 5.052-4.322 11.816-9.966 10.936m8.92-10.863c-0.32-2.598-1.91-4.974-4.695-6.866-2.726-1.849-28.427-7.213-31.445-7.226-2.988-0.013-4.902 2.689-5.47 5.371-0.58 2.735 0.075 6.163 2.845 7.655 6.26 3.373 23.791 9.538 29.775 10.47 1.347 0.21 2.752-0.119 4.153-0.767 3.052-1.41 5.256-5.237 4.837-8.637" fill="#231916"/>
  </g>
  <g transform="matrix(.43315 -.35446 -.35446 -.43315 113.87 64.406)">
   <path d="m0 0c0.252-1.058 0.542-1.517 1.042-2.187 0.863-1.153 1.578-1.079 0.746 0.103-0.569 0.807-0.968 1.683-1.193 2.615-0.38 1.573-0.974 1.054-0.595-0.531" fill="#231916"/>
  </g>
  <g transform="matrix(.43315 -.35446 -.35446 -.43315 111.27 54.564)">
   <path d="m0 0c-3.979-3.781-6.142-6.867-7.142-10.367-0.578-2.017-0.154-2.835 0.445-0.807 1.035 3.508 3.777 7.355 7.991 11.2 0.184 0.168-1.059 0.199-1.294-0.026" fill="#231916"/>
  </g>
  <g transform="matrix(.43315 -.35446 -.35446 -.43315 110.08 69.495)">
   <path d="m0 0c0.388-0.94 0.664-1.267 1.466-1.981 0.859-0.765 1.548-0.32 0.69 0.444-0.708 0.631-1.239 1.368-1.578 2.19-0.522 1.266-1.102 0.613-0.578-0.653" fill="#231916"/>
  </g>
  <g transform="matrix(.43315 -.35446 -.35446 -.43315 107.04 61.559)">
   <path d="m0 0c-2.554-3.057-3.766-5.14-4.66-7.596-0.705-1.943-0.322-3.337 0.565-0.711 0.87 2.572 2.754 5.51 5.618 8.759 0.164 0.187-1.241-0.113-1.523-0.452" fill="#231916"/>
  </g>
  <g transform="matrix(.43315 -.35446 -.35446 -.43315 103.19 51.235)">
   <path d="m0 0c-1.478 1.257-0.75 4.801 0.57 5.831 1.255 0.981 6.715 1.1 7.277 0.391 0.708-0.897 0.953-3.381-0.43-5.717-0.395-0.664-1.139-1.338-2.634-1.626-1.713-0.333-3.591 0.108-4.783 1.121m-0.022 6.526c-1.877-1.465-2.739-5.596-0.677-7.35 1.437-1.222 3.637-1.569 5.676-1.173 1.53 0.296 2.69 0.893 3.337 1.985 1.724 2.912 1.252 5.798 0.366 6.918-1.047 1.323-7.206 0.789-8.702-0.38" fill="#231916"/>
  </g>
  <g transform="matrix(.43315 -.35446 -.35446 -.43315 73.744 60.553)">
   <path d="m0 0m-7.383-1.522c0.36 0.943 5.716 1.89 6.55 0.837 0.413-0.521-0.327-3.289-1.667-3.729-2.728-0.898-5.274 1.863-4.883 2.892m-0.98 0.343c-0.688-1.803 2.855-5.328 6.15-4.245 1.622 0.532 3.13 4.267 2.213 5.424-1.117 1.412-7.587 0.857-8.363-1.179" fill="#231916"/>
  </g>
  <g transform="matrix(.43315 -.35446 -.35446 -.43315 39.536 86.419)">
   <path d="m0 0c0.919 1.152 4.065 2.508 5.426 1.764 1.35-0.739 2.402-4.773 1.217-6.433-1.082-1.515-5.02-2.914-6.114-2.098-1.362 1.015-1.325 5.768-0.529 6.767m6.087 2.557c-2.025 1.108-5.83-0.575-6.896-1.911-1.639-2.057-0.508-7.386 0.69-8.278 1.613-1.201 6.815 0.628 7.924 2.181 1.491 2.088 0.187 6.965-1.718 8.008" fill="#231916"/>
  </g>
  <g transform="matrix(.43315 -.35446 -.35446 -.43315 38.546 98.219)">
   <path d="m0 0c0.412 0.6 1.469 0.775 2.06 0.305 0.612-0.489 1.134-1.652 0.476-2.477-0.247-0.31-1.56-0.919-2.242-0.376-0.913 0.729-0.805 1.805-0.294 2.548m-0.856 0.581c-0.925-1.346-0.641-2.977 0.56-3.935 1.067-0.85 3.069-0.181 3.641 0.537 1.014 1.272 0.537 2.906-0.577 3.795-1.137 0.906-2.911 0.64-3.624-0.397" fill="#231916"/>
  </g>
  <g transform="matrix(.43315 -.35446 -.35446 -.43315 28.809 100.14)">
   <path d="m0 0c-2.808-1.767-13.102-1.528-15.396 0.84-0.328 0.505 0.844 3.603 1.345 4.927 0.974 2.578 1.21 3.055-0.427 5.646-0.866 1.372-1.395 2.336-0.866 3.191 1.376 2.223 11.152 5.288 15.106 2.514 3.979-2.79 2.321-15.807 0.238-17.118m0.799 18.089c-4.088 2.867-15.157 0.076-17.029-2.951-0.927-1.497 0.022-2.998 0.858-4.324 1.764-2.793 1.314-2.126 0.339-4.706-1.182-3.127-2.555-5.423-1.785-6.216 2.64-2.726 14.148-2.8 17.346-0.788 2.481 1.561 5.121 15.584 0.271 18.985" fill="#231916"/>
  </g>
  <g transform="matrix(.43315 -.35446 -.35446 -.43315 40.555 124.49)">
   <path d="m0 0c0.614-0.997 3.03-4.374 3.71-5.345 1.081-1.542 1.614-1.11 0.569 0.535-0.688 1.084-2.817 4.193-3.773 5.468-0.957 1.277-1.12 0.34-0.506-0.658" fill="#231916"/>
  </g>
  <g transform="matrix(.43315 -.35446 -.35446 -.43315 50.887 123.96)">
   <path d="m0 0c-1.292 0.891-4.28 2.803-5.811 3.565-1.484 0.74-2.133 0.337-0.702-0.499 1.896-1.107 5.274-3.075 6.43-3.872 1.616-1.112 1.699-0.306 0.083 0.806" fill="#231916"/>
  </g>
  <g transform="matrix(.43315 -.35446 -.35446 -.43315 45.995 127.33)">
   <path d="m0 0c-0.283-3.354 0.322-9.112 0.933-10.903 0.525-1.544 1.26-1.826 0.732-0.284-0.572 1.683-1.114 8.928-0.843 12.13 0.159 1.884-0.665 0.94-0.822-0.943" fill="#231916"/>
  </g>
  <g transform="matrix(.43315 -.35446 -.35446 -.43315 32.507 121.39)">
   <path d="m0 0c-1.251 0.89-2.803 7.279-2.442 10.056 0.118 0.907 2.699 4.02 3.839 4.423 1.873 0.663 10.539 1.615 12.163 0.148 1.414-1.276-1.252-13.857-2.401-15.444-1.02-0.503-9.397-0.436-11.159 0.817m14.28 15.432c-2.197 1.985-11.489 0.878-13.058 0.323-1.482-0.525-4.523-4.188-4.707-5.606-0.363-2.792 0.651-9.874 2.457-11.159 1.872-1.331 12.019-1.691 12.967-0.503 1.146 1.439 4.519 14.98 2.341 16.945" fill="#231916"/>
  </g>
  <g transform="matrix(.43315 -.35446 -.35446 -.43315 130.08 138.08)">
   <path d="m0 0m-0.407 1.81c-0.254 0.639-0.224 1.327-0.049 1.621 0.286 0.48 1.663 1.333 2.018 1.25 0.101-0.034 0.333-0.25 0.525-0.69 0.218-0.499 0.272-1.028 0.139-1.349-0.054-0.131-0.14-0.268-0.247-0.402-0.491-0.615-1.416-1.202-1.711-1.198-0.258 0.066-0.51 0.35-0.675 0.768m2.329 3.884c-0.967 0.317-2.836-1.009-3.274-1.745-0.438-0.734-0.333-1.82-0.034-2.571 0.297-0.749 0.789-1.237 1.386-1.378 0.749-0.175 2.166 0.632 2.886 1.536 0.177 0.223 0.318 0.444 0.405 0.654 0.248 0.599 0.099 1.494-0.238 2.265-0.133 0.306-0.51 1.036-1.131 1.239" fill="#231916"/>
  </g>
  <g transform="matrix(.43315 -.35446 -.35446 -.43315 133.41 142.13)">
   <path d="m0 0c0.817-1.299 1.079-2.686 0.704-3.709-0.38-1.032-3.184-3.684-4.726-3.277-1.282 0.339-2.937 3.133-3.009 4.634-0.049 1.016 0.298 2.039 0.964 2.873 0.111 0.14 0.233 0.275 0.361 0.404 0.844 0.841 1.922 1.305 2.886 1.244 0.907-0.059 2.042-0.93 2.82-2.169m-2.709 3.229c-1.266 0.082-2.655-0.504-3.72-1.564-1.124-1.119-1.726-2.619-1.654-4.114 0.084-1.744 1.873-5.069 3.753-5.567 2.269-0.598 5.661 2.465 6.17 3.855 0.489 1.334 0.041 3.188-0.944 4.758-0.969 1.543-2.352 2.553-3.605 2.632" fill="#231916"/>
  </g>
  <g transform="matrix(.43315 -.35446 -.35446 -.43315 120.47 53.011)">
   <path d="m0 0c0.991 2.68-1.638 6.822-4.337 6.879-2.789 0.058-5.385-1.849-5.867-4.705-0.524-3.111 1.664-5.904 4.504-6.235 2.342-0.272 4.691 1.503 5.7 4.061m-5.545-3.041c-2.426 0.281-3.97 2.607-3.568 4.999 0.392 2.321 2.465 4.093 4.721 4.032 2.701-0.265 4.309-3.507 3.491-5.735-0.828-2.16-2.958-3.491-4.644-3.296" fill="#231916"/>
  </g>
  <g transform="matrix(.43315 -.35446 -.35446 -.43315 130.39 42.109)">
   <path d="m0 0c-2.362 4.19-12.729 10.349-12.487 13.506 0.248 3.242 6.275 3.876 7.562 2.295 1.764 3.81-3.262 13.095-6.244 15.076-1.667 1.107 2.877 2.811 0.486 5.938-2.896 3.787-4.064 6.522-6.493 7.84-3.485 1.89-11.015 1.9-14.055 4.213-3.57 2.714-6.331 4.713-6.363 7.07-0.031 2.177 0.832 8.103-7.922 14.305-10.044 7.114-15.42 9.296-20.375 8.807-4.956-0.488-8.325-4.528-9.391-4.721-2.608-0.474-10.531 0.78-11.146 5.333-2.198 16.29-18.429 25.901-26.642 27.453-3.152 0.596-12.161-2.069-12.161-2.069-1.091 0.77-3.646 1.363-4.858-0.899-1.958-3.655-3.336-3.493-4.977-3.579-8.753-0.458-13.69 6.399-24.67 5.683-12.097-0.788-25.924-7.078-26.021-9.997s6.771-10.742 3.756-12.205c-6.232-3.023-13.482 7.196-25.523-11.504-3.389-5.264-3.18-9.45 1.646-13.52 1.208-1.018 6.227 0.711 8.159-1.621 1.352-1.633-0.739-3.861 2.748-5.076 10.637-3.707 16.696 0.646 19.401-0.706 8.201-4.097 13.298-1.833 22.288 4.649 1.99 1.436 2.348 0.681 3.398-2.929 0.665-2.289 1.114-2.998 4.653-2.822 3.538 0.175 20.557 2.478 21.542 3.58 1.126 1.26 1.853 5.322 6.838 4.981 6.243-0.427 16.891-4.254 22.755-9.817 0.878-0.832-5.831-1.454-3.299-5.471 3.338-5.294 13.072-11.308 24.952-9.459 1.865 0.29 1.755 3.642 4.436 2.9 4.263-1.178 7.066 0.471 9.337 6.651 0.24 0.654 3.745 0.705 5.669-0.746 5.173-3.902 7.704-1.925 9.23-4.139 4.182-6.07 8.667-5.911 15.69-5.628 1.758 0.071 1.84-5.684 5.151-8.322 1.499-1.196 3.095-3.039 2.919-4.313-3.242 1.845-6.769 0.971-8.35-1.568-1.893-3.04 2.328-9.069 2.339-11.187-1.256-0.108-2.327-0.253-3.138-1.272-1.152-1.445-1.539-7.021-0.144-9.108 1.81-2.709 3.884-0.433 5.554-2.085 2.719-2.688 6.97-4.506 10.01-4.095 4.165 0.563 15.103 6.16 13.74 8.578" fill="#d4edfa"/>
  </g>
  <g transform="matrix(.43315 -.35446 -.35446 -.43315 38.65 71.868)">
   <path d="m0 0c2.286 1.108 9.41 2.049 10.143 0.042 0.734-2.007 2.993-6.246 4.716-7.011 1.724-0.764 17.395-0.861 18.108-0.211 0.713 0.652-1.308 7.139 2.595 9.109 3.902 1.968 14.522-4.465 21.437-8.961-6.618 2.429-12.678 3.827-15.315 3.47-1.308-0.176-2.655-1.134-4.814-5.306-12.025-2.403-23.373-5.143-25.255-2.626-1.033 1.381-1.507 3.234-1.864 4.569-0.418 1.56-1.28 1.488-2.789 0.454-3.399-2.329-10.309-7.091-13.053-7.022-1.374 0.033-4.261 0.77-6.593 1.552-1.55 0.52-2.78 1.352-3.441 1.225-6.453-1.237-17.064-2.482-20.146 1.096-1.071 1.243 0.474 3.965-1.704 5.155-1.625 0.889-6.83 0.484-7.761 1.023s-4.764 4.482-4.011 7.132c0.752 2.652 1.643 4.99 3.07 6.291 1.426 1.301 3.387-0.872 8.499-3.728s7.906-8.13 6.638-9.965c-1.267-1.834 4.597-5.696 9.412-4.048 4.813 1.65 10.202 3.043 13.907 2.325 2.239-0.434 2.515 2.668 8.221 5.435" fill="#b8cdd9"/>
  </g>
  <g transform="matrix(.43315 -.35446 -.35446 -.43315 111.01 43.16)">
   <path d="m0 0c-2.179-2.732-0.331-7.327 2.463-12.603 0 0-2.14 0.487-3.645-1.158-1.506-1.644-0.985-7.548-0.311-8.897 0.674-1.351 2.118-2.354 3.465-1.396 0.451 0.321 1.382-0.155 2.488-1.072 2.408-1.995 6.378-3.853 8.147-3.912 4.325-0.142 11.627 2.972 15.315 6.91-2.506-2.676-12.324 8.378-16.306 9.544-3.625 1.062-4.359 5.507-5.172 7.171-0.812 1.664 1.189 3.93 1.466 5.74-2.734 1.243-7.202 0.655-7.91-0.327" fill="#b8cdd9"/>
  </g>
  <g transform="matrix(.43315 -.35446 -.35446 -.43315 66.771 39.177)">
   <path d="m0 0c2.902-2.1 7.613-2.562 9.435-2.23 0.453 0.082 0.996 0.5 1.817 1.132 1.686 1.296 4.23 3.256 7.531 3.582 4.944 0.488 10.373-1.875 20.032-8.717 7.842-5.556 7.73-11.087 7.714-13.291-0.028-3.983 3.783-5.977 6.558-8.075 1.591-1.203 4.81-1.921 7.775-2.495 2.371-0.46 4.821-0.933 6.344-1.76 1.564-0.847 2.594-2.36 4.02-4.451l2.316-3.253c1.149-1.504 0.428-2.531-0.271-3.525-0.4-0.571-0.78-1.11-0.683-1.695 0.055-0.328 0.252-0.608 0.586-0.829 2.813-1.869 7.094-10.087 6.27-13.803-2.546 1.384-7.572 0.013-7.81-3.103-0.155-2.013 2.876-4.604 6.385-7.603 2.536-2.168 5.158-4.408 6.167-6.198 0.955-1.706-9.622-7.273-13.329-7.774-3.233-0.438-7.423 2.317-9.632 3.997-1.153 0.877-2.251 0.794-3.133 0.726-1.034-0.079-1.658-0.127-2.273 1.175-1.078 2.282-1.037 7.151 0.071 8.542 0.657 0.824 1.518 0.957 2.756 1.064 0.324 0.028 0.506 0.072 0.503 0.555-4e-3 0.837-0.502 2.015-1.132 3.508-2.35 5.567-2.306 8.543 1.914 9.452 1.504 0.323 3.08 0.085 4.016-0.609 1e-3 0 4e-3 0 4e-3 -1e-3 -0.63-1.266-0.076-1.688 0.841-0.536 1.248 1.564-0.696 4.022-2.739 5.651-1.659 1.321-2.474 3.532-3.131 5.309-0.653 1.771-1.169 3.169-2.356 3.121-6.993-0.282-11.213-0.453-15.254 5.411-0.8 1.161-1.873 1.348-3.116 1.566-1.459 0.254-3.456 0.601-6.224 2.689-1.677 1.265-4.506 1.503-5.719 1.112-0.406-0.132-0.665-0.344-0.77-0.63-2.411-6.558-5.216-7.263-8.686-6.304-1.926 0.533-2.76-0.742-3.368-1.674-0.461-0.702-0.777-1.136-1.284-1.214-12.356-1.923-21.552 4.643-24.446 9.233-0.948 1.502-0.509 2.597 2.063 3.812 1.868 0.883 1.653 1.284 1.157 1.755-5.877 5.575-16.549 9.506-23.066 9.952-4.209 0.287-5.649-2.339-6.602-4.077-0.251-0.457-0.468-0.852-0.678-1.088-1.163-0.924-17.323-3.205-21.161-3.395-3.38-0.168-3.558 0.441-4.144 2.46-1.274 4.382-1.95 4.81-4.197 3.189-9.348-6.74-14.039-8.449-21.746-4.6-1.135 0.568-2.614 0.295-4.661-0.082-3.442-0.633-8.157-1.502-14.798 0.813-1.828 0.638-1.845 1.447-1.868 2.566-0.066 3.202-2.111 3.943-6.394 3.821-1.058-0.031-2.152-0.063-2.488 0.221-4.46 3.76-4.926 7.598-1.556 12.829 8.16 12.676 13.849 11.782 18.868 10.993 7.479-1.176 9.32 0.427 5.077 8.122-1.044 1.893-2.124 3.851-2.09 4.876 0.078 2.33 13.465 8.676 25.506 9.462 5.715 0.372 9.742-1.344 13.636-3.003 3.502-1.493 6.809-2.902 11.027-2.681l0.282 0.013c1.553 0.068 3.158 0.139 5.152 3.859 0.343 0.641 0.834 1.049 1.46 1.212 0.949 0.249 2.024-0.092 2.623-0.515 0.127-0.09 0.289-0.115 0.442-0.069 0.088 0.026 8.922 2.621 11.915 2.055 8.084-1.529 24.08-11.024 26.239-27.024 0.185-1.371 0.96-2.558 2.303-3.531m40.173-4.888c-9.882 7-15.903 8.899-21.131 8.818-4.625-0.072-8.743-4.425-9.489-4.83-1.466-0.797-6.282-0.132-8.916 1.773-1.113 0.806-1.528 2.029-1.674 3.112-2.228 16.511-18.635 26.424-26.966 27.999-3.011 0.57-11.12-2.005-12.502-2.405-2.811 1.695-4.744 1.095-6.141-1.834-0.766-1.608-1.671-2.412-3.488-2.67-2.742-0.389-7.474 1.144-10.865 2.588-4.003 1.706-8.395 3.848-14.354 3.459-13.491-0.879-26.454-7.188-26.566-10.52-0.043-1.315 1.336-3.695 2.499-5.803 3.873-7.024 2.119-7.479-3.947-6.525-11.597 1.824-16.977-5.97-20.58-11.565-3.678-5.714-2.906-9.956 1.973-14.07 0.628-0.53 2.144-0.562 3.564-0.521 3.815 0.11 5.256-0.651 5.025-2.973-0.117-1.176-0.477-2.631 2.008-3.497 6.897-2.404 12.83-1.331 16.186-0.712 1.849 0.34 3.186 0.586 4.017 0.17 8.418-4.204 11.693-3.331 22.832 4.701 1.47 1.06 1.791 0.205 2.419-3.073 0.484-2.526 1.137-3.325 4.953-3.135 2.677 0.132 21.147 2.341 22.417 3.761 0.296 0.332 0.541 0.78 0.825 1.298 0.914 1.667 1.946 4.096 5.465 3.856 6.239-0.427 16.375-4.14 22.146-9.423-2.526-0.9-5.389-2.391-3.476-5.426 3.803-6.031 12.993-12.165 25.34-10.243 0.949 0.148 1.91 1.073 2.552 2.057 0.604 0.924 1.508 1.226 2.451 0.966 5.999-1.659 7.698 1.808 9.68 7.14 0.508 0.317 3.27 0.307 4.889-0.915 2.96-2.232 5.097-2.605 6.656-2.876 1.185-0.206 2.054-0.892 2.667-1.669 4.735-6.011 7.836-6.146 15.921-5.32 0.453 0.046 0.941-1.303 1.371-2.469 0.699-1.894 1.569-4.251 3.445-5.746 1.301-1.037 2.24-2.187 2.588-3.059-1.156 0.58-2.837 0.957-4.361 0.629-4.168-0.896-6.133-3.268-3.05-10.573 0.423-1.001 1.308-2.507 1.464-3.175-0.996-0.113-2.1-0.363-2.939-1.416-1.491-1.87-1.499-7.483-0.332-9.953 0.907-1.923 2.274-1.552 3.377-1.468 0.819 0.063 1.593 0.121 2.443-0.525 2.333-1.775 6.784-4.679 10.384-4.192 4.796 0.649 16.488 5.725 14.82 8.681-1.095 1.943-4.453 4.944-7.054 7.168-2.883 2.464-6.15 5.257-6.036 6.744 0.199 2.605 5.526 3.43 7.052 1.604 1.958-2.343 2.285 8.881-5.956 16.233-0.508 0.453 2.59 3.372 0.975 5.483-1e-3 1e-3 -2.84 4.365-2.84 4.365-4.21 6.178-5.501 5.047-10.64 6.043-2.851 0.551-5.699 0.949-7.633 2.292-3.346 2.322-6.079 4.273-6.058 7.032 0.013 2.054 0.864 8.748-7.41 14.609" fill="#231916"/>
  </g>
 </g>
</svg>
