<?xml version="1.0" encoding="UTF-8"?>
<!-- Created with Inkscape (http://www.inkscape.org/) -->
<svg version="1.1" viewBox="0 0 241.99 299.74" xmlns="http://www.w3.org/2000/svg">
 <g transform="translate(-21 -14)">
  <path d="m120.43 129.81c-1.7764 0.69325-4.7119 0.92072-6.8567-1.1157-0.67158 0.40079-15.555 6.4884-18.783 7.6041 0.85573 1.6465-2.1772 6.6833-5.1994 9.1097 2.4047 0.24914 8.0373-1.679 11.872-1.8089 4.1487-0.14082 8.5789 3.2604 13.702 4.127 10.518-2.4697 12.002-16.042 5.2643-17.916" fill="#fffcdb"/>
  <path d="m124.01 249.22c-3.3796-6.6184-7.3874-11.623-11.005-15.511-1.6356-1.7656-1.7873-3.1846-0.49827-4.8636 1.7223-2.2747 4.5603-4.8636 6.4884-8.1132-15.078-9.7271-15.403-17.515-16.4-24.556-2.318 16.941 2.2097 26.928 2.8272 30.243 0.44411 2.383-0.35746 10.8-0.35746 11.677 0 1.8414 4.7444 4.5711 5.2752 5.6218-0.10832 12.511-3.7695 30.319-16.649 43.87-0.49827 2.5022 0.72574 6.8892 1.6573 8.1782-0.38995 0.42245-0.8124 0.86656-1.2565 1.3432 3.3038-0.17331 7.2791 4.0187 8.9256 8.059 0.15165-1.5598-0.0867-4.1486 0.28163-5.8168 1.1374 1.0615 3.0113 2.0798 4.5603 2.4047-2.2639-21.881 14.071-44.595 16.151-52.535" fill="#8b694e"/>
  <g fill="#fdd23f">
   <path d="m120.43 129.81c6.7375 1.8739 5.2535 15.446-5.2643 17.916 1.2673 0.21664 4.4844 0 4.7661-0.0542 5.7951-2.7188 10.843-9.8463 10.247-15.75-0.29246-2.9138-2.4047-5.3618-5.0694-7.0733-0.17331 1.7114-2.0581 4.9069-4.6794 4.961"/>
   <path d="m116.13 122.17c-1.4732 0.10832-2.8813 3.8995-3.2063 6.77 4.7661-1.9714 9.1422-3.7479 11.471-4.5278-2.7405-1.5815-5.9143-2.4264-8.2648-2.2422"/>
   <path d="m103.75 123.66c0.45494-1.6465-0.16248-3.3471 1.0507-4.9719-2.8596 1.1049-3.7154 4.6902-3.672 7.5066 1.4732-1.094 2.4805-2.0039 2.6213-2.5347"/>
  </g>
  <path d="m186.64 241.96c0.29246-1.6248 7.1708-11.72 10.009-14.905-5.1235 0.61742-18.696-1.6031-20.267-1.6031-3.0113 0-5.9576 0.92072-10.334 1.7223-0.60659 4.1703-0.0542 10.897 1.6248 14.255 1.1482 2.2964 8.9906 6.9541 9.4563 11.2 0.12998 8.2648-5.1777 25.596-12.533 35.995 0.10832 2.0472 1.224 4.8961 1.8739 5.9901-0.60659 1.5273-1.549 2.773-2.4697 4.127 3.672-2.2206 8.3406 3.1413 10.994 2.8921-0.0325-0.97488-0.10832-2.0148-0.16248-3.0546 0.70408 0.75824 2.838 1.7981 4.1053 1.7981-4.9177-26.885 12.251-42.884 11.471-48.917-0.22747-1.8198-4.5278-5.2318-3.7695-9.4997" fill="#8b694e"/>
  <path d="m101.47 143.6c-3.8345 0.12998-9.0122 2.1014-11.428 1.8523 4.6469 5.3185 14.125 0.33579 17.938 0.0867-0.0975-0.75824-4.0837-2.0256-6.51-1.9389" fill="#fffcdb"/>
  <path d="m250.44 302.73c-8.254-14.45-12.294-41.552-11.969-52.34 0.15165-5.3835-2.0256-4.8311-6.2392-6.9325-3.7262-1.8739-8.0482-4.3328-7.9615-12.511 0.10832-10.095 4.0078-22.444-3.4554-39.753-4.7228-10.929-14.017-15.143-27.394-13.399-11.709 1.5165-28.737-1.6898-37.944-4.6902-3.5096-1.1374-8.5898-4.322-9.3913-7.1924-5.0694-17.949-1.2348-32.983-3.0546-42.732 5.2535 0.22748 12.056 0.10832 13.583-0.4766 1.5923-0.61743 10.236-13.486 9.8463-14.667-0.44411-1.3215-17.829-1.9389-21.783-0.70408-1.159 0.35746-4.5169 4.1703-6.9541 7.16-12.024-7.9507-28.163-2.1556-32.918 4.2028-1.2132 1.6248-0.60659 3.3254-1.0507 4.9719-0.15165 0.53077-1.1482 1.4407-2.6213 2.5347-3.867 2.8705-11.005 6.9758-14.342 8.6439 2.448-0.5416 7.3224 0.14082 8.0048 1.4515 3.2279-1.1157 11.081-4.4411 18.133-7.3549 0.32496-2.8705 1.7331-6.6508 3.2063-6.77 3.6829-0.28163 13.334 2.6972 14.049 9.7488 0.60659 5.9143-4.4519 13.042-10.247 15.75-1.7115 0.64992-3.4987 1.0074-11.85-2.2747 0.36829 5.0802-1.8956 15.208-3.7154 25.791 1.9931-3.4554 6.445-8.8931 8.1782-9.9438 1.2782 5.9793 8.8822 32.344 16.66 38.41-4.5061 4.1703-10.28 21.036-10.204 21.09-1.9389 3.2388-4.7769 5.8384-6.4992 8.1023-1.2782 1.679-1.1374 3.098 0.49827 4.8636 11.818 12.717 18.209 27.99 18.761 48.354 1.2348 1.1482 3.8454 2.448 5.6868 2.838 0.34662 2.4047 1.1049 4.8636 2.1339 7.1166 4.4195 0.84489 8.7198-2.2747 9.8138-4.8961-1.1265-0.63909-2.2206-1.484-3.098-2.5997 1.8089 0.0325 4.1812-0.45494 6.0876-1.484-11.634-10.258-17.938-30.514-17.31-38.649 0.0542-0.71492 0.0325-1.1482-0.36829-1.7331-0.15165-0.22748-5.741-7.1708-6.6292-10.442 15.706-5.7518 28.499-13.388 36.331-25.802 5.8818 0.17331 11.894-1.614 14.775-4.6686 1.8306 2.1014 6.7375 3.7912 9.5538 4.322 2.7513 8.7631 7.3549 25.52 15.858 31.987 7.669 5.8384 16.898 6.9541 21.415 16.172 3.8129 7.7774 10.16 32.756 5.6868 43.35 1.1699 1.484 2.6972 2.6863 3.4121 3.1629-0.14082 0.38996-0.87739 1.6573-1.0074 1.8739 1.4948-0.66075 3.867-0.36829 5.5893 0.90989 1.7656 1.2998 3.4446 1.6898 4.8419 1.7006-0.10832-0.58493-0.2058-1.1807-0.29246-1.7764 2.1122 0.32496 5.2968 0.065 6.1959-0.71491" fill="#8b694e"/>
  <path d="m190.06 210.16c-2.2964 0.0542-7.994-0.74741-10.875-3.5637-4.9394 2.838-12.847 5.1669-17.754 3.9645-6.1959 7.6366-14.71 13.15-22.401 16.963 16.41 2.9138 29.625-1.3323 37.349-2.0689 5.4918 0 12.738 1.744 20.083 1.224-2.2856-4.7228-4.387-10.399-6.4017-16.519" fill="#fffcdb"/>
  <path d="m179.19 206.59c2.8705 2.8163 8.5681 3.607 10.875 3.5637-0.44411-1.354-0.88822-2.7188-1.3215-4.1053-2.8272-0.53077-7.7232-2.2206-9.5538-4.322-2.8813 3.0546-8.8931 4.8527-14.775 4.6794-0.90989 1.4515-1.9064 2.8272-2.9788 4.1378 4.9069 1.2132 12.814-1.1157 17.754-3.9537" fill="#fdd23f"/>
  <g fill="#662c1f">
   <path d="m149.4 287.12c-1.094 2.6213-5.3943 5.741-9.8138 4.8961 1.9606 4.2786 4.8961 7.8315 7.8749 8.9472 3.5962-0.69325 6.4992-8.1673 5.1777-12.468-0.98572-0.30329-2.1339-0.73657-3.2388-1.3757"/>
   <path d="m94.093 297.1c-1.9823 2.1447-4.2353 5.1019-3.7804 10.886 4.3003 2.0256 11.98-0.60659 12.858-1.9173-1.2348-4.2136-5.7735-9.1422-9.0772-8.9689"/>
   <path d="m244.53 305.22c-1.3973-0.0217-3.0763-0.40078-4.8419-1.7006-1.7223-1.2782-4.0945-1.5706-5.5893-0.90989-3.0221 5.0585-3.1954 10.29-1.8739 10.475 5.4052 0.7799 10.799-1.5815 12.468-3.8562 0.33579-1.0182 0.10832-2.4697-0.16248-4.0078"/>
   <path d="m164 298.74c-1.4732 2.1772-2.8813 4.6578-2.6755 9.0772 1.6248 0.85573 9.2505-0.38995 13.421-3.0221 0.25996-0.80156 0.29246-1.9173 0.24913-3.1738-2.643 0.25997-7.3224-5.1019-10.994-2.8813"/>
   <path d="m94.88 136.57c-0.0108-0.0975-0.0433-0.18414-0.0867-0.2708-1.0399-2.0039-8.8822-2.4155-9.4022-0.60659-0.80157 2.838 1.3648 8.4598 3.6937 9.1964 1.5381 0.49827 6.0009-5.221 5.7951-8.319"/>
   <path d="m146.34 110.84c-3.6396 0.76907-7.5066 6.9433-8.6006 9.1314 3.1521 0.53077 12.392 0.88822 15.273 0 1.1482-0.34663 4.4844-6.6725 4.4844-7.7232 0-0.75824-8.254-2.0256-11.157-1.4082"/>
  </g>
  <path d="m113.23 128.75c5.1235 3.2063 11.222 0.53077 11.536-4.3436z" fill="#fff"/>
  <path d="m181 189.09c-0.47661 1.2457 1.289 2.9571 3.5096 3.802 2.2206 0.84489 4.4194 0.64992 4.8961-0.59576 0.4766-1.2457-0.85573-2.9463-3.0763-3.7912-2.2206-0.84489-4.8527-0.66075-5.3293 0.58493" fill="#006532"/>
  <path d="m170.39 177.05c-0.58493 1.6681 1.679 3.8562 5.0477 4.8744 3.3579 1.0182 6.575 0.48744 7.16-1.1807 0.25996-0.76907-0.0542-1.6573-0.8449-2.4805-1.0832-0.0542-7.1708-0.59576-11.363-1.2132" fill="#006532"/>
  <path d="m126.52 203.66c-7.0841-3.6287-13.388-22.736-15.815-34.002-2.2964 2.6647-6.4234 11.005-8.2756 16.41-0.73658 10.68-1.1482 23.072 16.302 34.478 0 0 4.5169-13.388 7.7882-16.887" fill="#fffcdb"/>
  <path d="m126.52 203.66c0.79074-1.3323 1.679-2.6863 2.6863-4.0187-7.7665-6.0659-15.371-32.431-16.66-38.41-1.7331 1.0615-6.1851 6.4884-8.1782 9.9546-0.85573 5.0152-1.614 10.139-1.9389 14.883 1.8523-5.4052 5.9793-13.746 8.2756-16.41 2.4264 11.265 8.7306 30.373 15.815 34.002" fill="#fdd23f"/>
  <path d="m120.6 54.64c1.5815-1.4948 3.8129-4.9502 4.6794-6.7483 0.18414-2.2856 0.68242-4.4628 1.4948-6.4125-4.4411-0.02166-9.7055 3.2171-11.991 6.445 0.80157-4.7769 0.16248-14.266-3.033-18.815-1.8739 0.86656-5.0044 7.3983-5.5243 10.929 1.1807 5.2102 0.93155 10.778-1.9714 15.858-6.2717-2.7297-10.03-11.742-10.561-20.342-4.1595-9.7705-15.089-18.869-20.689-20.548-1.549 2.4264-0.95322 11.179 0.34662 14.428-6.2609-7.3008-18.024-12.728-25.531-12.121 0.8124 3.9537 2.5672 7.5066 4.0945 9.5863-7.5824-6.2176-20.05-12.533-30.005-11.894 2.0797 8.7198 8.4165 15.056 13.735 18.913-2.9571-0.53077-6.6292-0.53077-8.7198 0.21664 1.5273 5.1777 8.0048 11.514 12.533 13.67 15.793 1.1374 24.957 9.4347 24.545 14.472-0.41162 1.1915-3.4446 2.1772-7.5932 1.9931-5.1452 0.68242-11.948 2.2964-16.01 5.026 4.387 5.2319 15.869 10.312 23.191 11.883-4.3003 0.5416-8.2756 1.8414-10.355 3.1088 6.7375 6.3367 16.313 8.6006 23.646 7.929 7.4849-6.2501 15.154-6.3692 19.248-3.5529-1.0074 3.2929-3.3363 6.3475-6.8675 8.5681-1.9714 3.2388-3.2604 7.6149-3.1846 10.648 9.4455-0.94238 18.826-7.2899 22.541-11.179-3.1304-3.4987-10.171-11.287-11.915-13.583l2.4589-2.838c5.4268 5.1344 13.529 12.478 17.05 15.847 0.11915-5.2643 2.4697-9.7596 5.351-11.623-4.8636-1.2782-12.522-6.1417-15.945-12.273 2.3939-2.2422 11.482-3.4337 16.259-0.80157-4.062-3.1846-7.6474-11.081-6.6942-18.653 1.6248 0.19498 3.5312 0.87739 5.416 1.8631" fill="#094"/>
  <path d="m146.44 90.822c-1.1049 0.51994-2.5347 1.1374-4.1053 1.8956 0.37912-4.2353 0.56326-11.688 0.41162-14.558l-5.1885 2.6863c-0.2708 4.4195-0.93155 11.428-1.6031 15.576-1.484 1.0832-2.8813 2.3289-4.0187 3.7804-0.0867 0.10832-3.4121 9.9979-3.7912 11.309 0.45494 2.4372 4.5928 3.0438 6.5209 1.7548 1.8523-4.8419 4.0512-7.6366 6.1526-10.713 2.0472-2.383 5.481-5.4485 8.7198-7.3983-1.2132-1.3323-2.2747-2.7838-3.098-4.3328" fill="#662c1f"/>
  <path d="m118.11 100.11c-0.56326 0-1.094-0.0217-1.5598-0.065-0.25997-1.3323-0.35746-2.6538-0.32496-3.9212-3.5312-3.3688-11.623-10.713-17.05-15.847l-2.4697 2.838c1.7548 2.2964 12.966 14.742 13.215 15.035 1.0507 1.6356 1.4407 5.1669 2.578 9.5646l2.5564 4.1811 5.9576-1.0615c-0.10832-0.42245-1.7006-6.6942-2.903-10.724" fill="#662c1f"/>
  <path d="m262.43 36.192c-5.8926-1.9389-30.08-2.4372-39.927 0.82323 1.4407-1.8414 5.4377-5.8168 8.8389-8.0807-7.1816-2.2314-18.978-0.88822-27.99 4.2136 1.8306-1.9931 5.741-8.8389 6.3042-11.623-6.2501-0.07582-14.818 3.0763-18.783 7.1166-3.9753 7.3766-10.323 15.414-17.418 15.36-0.99654-3.9212-0.5741-7.4632 0.80157-10.605 1.2782-4.7119 3.4662-13.367 3.4229-15.219-8.9581 3.5096-20.028 16.226-24.849 26.17 0.47661-3.5854 0.5741-10.615 0.21664-13.096-6.8783 3.3254-14.342 14.612-15.576 23.527 0.66075 4.387 0.14082 9.2614-2.2856 14.103-3.6071-2.1014-6.2176-5.3402-7.864-9.023-3.1738-3.7912-8.0698-6.5859-12.143-7.0841-0.95322 7.5716 2.6322 15.468 6.6942 18.653-4.7769-2.6322-13.865-1.4298-16.259 0.80157 3.4229 6.1309 11.081 10.994 15.945 12.273-4.6144 2.9896-5.8818 11.07-5.026 15.544 1.3432 0.12998 8.3731 0.19498 12.955-4.4086-0.75824 2.7405-1.2132 5.546-1.0074 7.2791 0.80157-0.0867 1.9064-0.38995 2.708-0.75824 0.37912-1.0832 0.66075-1.8523 0.73658-1.9606 1.1374-1.4407 2.5347-2.6863 4.0187-3.7804 0.67158-4.1487 1.3432-11.157 1.6031-15.576l5.1885-2.6755c0.15165 2.8705-0.0325 10.323-0.41162 14.547 1.5706-0.74741 3.0005-1.3648 4.1053-1.8956 2.9896 5.6001 12.63 13.962 25.596 15.132-0.0867-5.026-3.4338-11.157-6.2176-13.551 8.0482 5.5785 27.903 5.8168 35.475 4.5386-0.47661-3.4554-7.8532-10.355-12.652-13.183 6.4125 0.41162 16.974-1.6573 18.306-4.8636-6.3042-1.6356-12.316-5.0044-15.706-9.2938 4.6361-4.0728 15.273-3.1629 20.57-1.549 10.475 0.25997 23.235-2.7947 30.622-8.4165-2.9571-2.8705-10.67-7.0841-17.927-7.4091 12.435-1.0399 30.6-8.4598 37.934-16.031" fill="#094"/>
  <g fill="#006532">
   <path d="m191.24 69.595c6.8783 8.7198 24.524 13.605 33.482 7.8965-9.2397-14.092-29.474-11.417-33.482-7.8965"/>
   <path d="m173.46 44.005c11.254 0.07582 20.364-19.194 21.61-25.748-20.353 5.4918-23.56 18.079-21.61 25.748"/>
   <path d="m127.86 39.301c-4.6361 7.6799-3.2713 23.408 7.3333 29.582 5.3943-10.789 1.8956-24.491-7.3333-29.582"/>
   <path d="m96.129 22.418c-4.257 7.2683-3.5529 28.391 8.1348 33.482 6.1309-10.778 0.88822-25.087-8.1348-33.482"/>
   <path d="m32.511 47.77c6.1201 12.348 16.703 16.172 23.906 16.497 4.1487 0.18414 7.1816-0.79074 7.5824-1.9823 0.71491-8.5573-16.031-16.259-31.489-14.515"/>
   <path d="m69.742 100.39c12.955 1.8956 23.755-3.0763 26.387-11.72-8.9472-6.1851-19.866 1.8306-26.387 11.72"/>
  </g>
  <path d="m138.21 78.749c-0.68242 1.7981-0.87739 4.4411 0.42245 4.6144 0.98571 0.12998 2.8488-0.63909 3.737-2.968 0.72574-1.9281 0.41162-3.9537-0.72574-4.3653-0.82323-0.3033-2.6863 0.72574-3.4337 2.7188" fill="#fdd23f"/>
  <path d="m96.205 79.413c-0.68242 0.61742-0.5416 2.1989 0.37912 3.4662 0.93155 1.3107 2.4589 1.9931 3.0763 1.0399 0.64992-0.99654 0.32496-2.4697-0.5416-3.5854-0.70408-0.92072-2.0581-1.6898-2.9138-0.92072" fill="#fdd23f"/>
  <g fill="#8b694e">
   <path d="m222.89 186.09c7.9507-5.9251 8.6981-17.472-1.7548-23.841 3.0871 6.0443-1.0724 12.197-4.9286 14.905 0.64992-2.8272 1.0399-7.3874-3.1088-10.247-0.0867 5.7951-5.221 10.312-8.9581 10.973 9.1855 0.35746 17.158 8.7089 18.176 17.743 3.5421-1.2132 8.4381-5.6218 8.9147-11.287-2.8921 2.2422-6.9758 2.2856-8.3406 1.7548"/>
   <path d="m143.3 146.83c1.9931 0.53077 5.3293 0.2383 7.2033-1.1157-1.8739 0.18415-4.9286-1.2348-6.6292-2.9355 2.8163-0.19497 10.561-0.40078 14.125-7.0191-2.1122 1.0615-5.8601 1.354-8.958 0.29247 5.2102-1.3973 10.247-8.0157 10.42-12.522-4.2136 4.8527-12.067 5.3293-16.161 1.6356 0.28163 6.3584 0 21.664 0 21.664"/>
   <path d="m114.99 112.3c-0.8449-2.3397-3.5421-6.6292-4.5386-7.1816-1.5056-0.82323-10.225-3.9104-17.938-3.8454-1.1265 0.0758-1.3323 0.32496-1.1265 1.2457 0.99654 4.2461 7.5066 12.11 8.4381 12.673 1.3757 0.82324 3.7479 1.7331 6.1092 2.1122z"/>
  </g>
  <path d="m112.14 113.59c-0.45494-1.2782-3.2171-5.8168-3.6504-6.0876-1.7981-1.1265-10.507-2.5022-11.07-2.1664 0 1.3648 2.8705 7.2141 4.2786 8.2215 0.44411 0.31413 4.7986 1.6898 7.2574 1.744z" fill="#662c1f"/>
  <g fill="#755841">
   <path d="m126.2 145.49c-6.0118 3.4879-9.7596 3.1846-18.122-0.10832 0.14082 1.8306 0.29246 2.8163-0.10832 5.7301 4.0728 1.3648 12.218 1.9389 18.23-5.6218"/>
   <path d="m119 220.73c-15.078-9.738-15.403-17.515-16.4-24.556-0.82323 5.9576-0.79074 11.059-0.37912 15.306 4.3653 4.961 8.1565 10.366 11.352 16.053 1.6898-1.9498 3.8454-4.1595 5.4268-6.8025"/>
   <path d="m186.64 241.96c0.29246-1.6248 7.1708-11.72 10.009-14.905-5.1235 0.61742-18.696-1.6031-20.267-1.6031-3.0113 0-5.9576 0.92072-10.334 1.7223-0.46577 3.2063-0.24913 7.9182 0.63909 11.449 8.7414 1.8631 16.887 5.7518 23.245 11.514-1.1482-1.9498-3.8995-4.7877-3.2929-8.1782"/>
  </g>
  <path d="m176.24 219.19c-11.85 0.87739-14.006 2.5238-25.672 1.4407-3.7912 2.7297-7.7665 5.0152-11.536 6.8891 16.41 2.903 29.625-1.3323 37.349-2.0797 5.4918 0 12.738 1.7548 20.083 1.2348-1.3215-2.7405-2.1339-4.7877-3.3471-8.0698-6.1417 2.578-11.644 0.19498-16.876 0.58493" fill="#dddabe"/>
  <g fill="#501e12">
   <path d="m102.2 303.76c-3.1738 2.5022-6.9108 3.9537-10.854 4.6144 4.3978 1.2457 11.016-1.0832 11.818-2.2964-0.21664-0.75824-0.55243-1.549-0.96405-2.318"/>
   <path d="m231.51 313.06c5.351 1.0724 11.525-1.549 13.183-3.8345 0.29246-0.86655 0.16248-2.0472-0.0433-3.3362-2.6647 3.6829-8.4814 5.8168-13.139 7.1708"/>
   <path d="m174.69 301.63c-3.3254 2.8813-7.1383 5.1344-11.189 6.445 3.0221-0.10832 8.1132-1.2998 11.244-3.2821 0.25997-0.80157 0.29246-1.9173 0.24914-3.1629h-0.3033"/>
  </g>
  <path d="m118.73 220.55s1.094-3.2388 2.5888-6.9433c-6.0876-2.513-11.861-5.6868-17.201-9.5863 2.1231 5.546 6.38 11.146 14.612 16.53" fill="#dddabe"/>
  <path d="m130.77 103.79c-1.0182 2.9896-2.3614 6.7808-2.6322 7.7232 0.45494 2.4372 4.5928 3.0438 6.5317 1.7548 1.8414-4.8419 4.0403-7.6366 6.1417-10.713 2.0472-2.383 5.4918-5.4485 8.7306-7.3983-0.59576-0.64992-1.1374-1.3215-1.6465-2.0148-5.3185 3.7154-10.139 11.915-17.125 10.648" fill="#501e12"/>
  <path d="m121 110.83c-0.10832-0.42245-1.6898-6.6833-2.903-10.724-0.55243 0.0108-1.0832-0.0108-1.5598-0.0542-0.31413 3.1521-2.2531 6.9325-4.8744 4.8961l3.3796 6.9433z" fill="#501e12"/>
  <g fill="#005125">
   <path d="m195.09 73.306c8.2323 6.2501 22.043 9.023 29.636 4.1811-0.43328-0.64992-0.88822-1.2565-1.3648-1.8414-9.2397 2.7405-18.848 1.029-28.272-2.3397"/>
   <path d="m173.46 44.005c5.286 0.0325 10.095-4.192 13.843-9.3697-4.2895 2.8705-9.1639 4.7986-14.32 6.0443 0.0542 1.1807 0.21664 2.2964 0.47661 3.3254"/>
   <path d="m132.33 66.791c0.86656 0.7799 1.8198 1.484 2.8705 2.0906 2.6213-5.2535 3.1304-11.2 1.9064-16.508-0.63909 5.3727-1.9389 10.55-4.7769 14.417"/>
   <path d="m103.22 31.692c1.3865 7.9832 1.9389 16.259-0.98571 23.105 0.63909 0.42245 1.3107 0.79074 2.0256 1.1049 4.2136-7.4199 3.0438-16.519-1.0399-24.21"/>
   <path d="m35.646 52.91c6.1851 8.3081 14.677 11.081 20.765 11.352 4.1487 0.18414 7.1816-0.79074 7.5932-1.9823 0.0867-1.1049-0.10832-2.1881-0.56326-3.2496-9.5755 0.60659-18.869-2.0256-27.795-6.1201"/>
   <path d="m70.764 100.52c12.5 1.4948 22.801-3.4446 25.369-11.85-0.17331-0.11915-0.35746-0.22747-0.53077-0.33579-5.9684 6.8242-15.143 10.648-24.838 12.186"/>
  </g>
  <g fill="#00873c">
   <path d="m126.48 82.177c-4.1595 1.159-14.472-4.8527-19.942-8.4923 3.737 5.4377 10.561 9.6513 15.024 10.821-0.86656 0.56326-1.614 1.3107-2.2531 2.1772 3.1846-0.56326 5.9468-2.4155 7.1708-4.5061"/>
   <path d="m128.49 102.92c0.80157-0.0867 1.9064-0.40078 2.708-0.75824 0.37912-1.094 0.66075-1.8523 0.73658-1.9606 1.1374-1.4407 2.5347-2.6972 4.0295-3.7804 0.11915-0.73658 0.2383-1.5706 0.34662-2.4589-1.744 1.614-4.9177 4.7011-7.6691 5.6543-0.18414 1.2782-0.24914 2.4264-0.15165 3.3038"/>
   <path d="m116.31 97.8c0.0325 0.8124 0.0975 1.5706 0.22747 2.2531 1.3323 0.11915 8.2323 0.18414 12.814-4.2786 0.34662-1.3215 0.7799-2.8272 1.3323-4.3328-1.7873 1.5923-9.478 6.38-14.374 6.3584"/>
   <path d="m211.81 68.044c9.8896 0.24914 24.469-2.1231 30.72-8.8172-7.994 3.4987-32.583 6.5534-45.083 8.0048 6.2501-1.0182 12.717 0.31413 14.363 0.8124"/>
   <path d="m191.33 91.522c-6.2501 1.3107-21.382 1.744-32.723-3.4879 1.2998 2.1772 3.1954 5.3835 4.7986 9.5971-4.2245-1.744-12.218-5.8168-16.15-12.359-0.7799 0.7799-3.7804 3.0438-4.6686 3.6396-0.0758 1.3973-0.16248 2.708-0.25997 3.802 1.5706-0.74741 3.0005-1.3648 4.1162-1.8956 2.9788 5.6001 12.619 13.962 25.585 15.132-0.0758-5.026-3.4337-11.157-6.2176-13.551 8.0482 5.5785 27.903 5.8168 35.475 4.5386-0.47661-3.4554-7.8532-10.355-12.652-13.183 6.4234 0.41162 16.985-1.6573 18.306-4.8636-1.9714-0.5091-3.9104-1.1915-5.7518-2.0148-4.0403 2.1339-12.619 3.737-21.057 3.5854 4.0728 3.2063 8.5789 7.2791 11.2 11.059"/>
   <path d="m40.505 69.231c-0.0325 0.02166-0.065 0.04333-0.0975 0.06499 4.2245 5.0369 15.046 9.9438 22.379 11.699 1.8089 0 3.672-0.0542 4.7661-0.2383-5.546-0.63909-20.559-7.4524-27.047-11.525"/>
   <path d="m76.884 92.215c2.2964-1.9173 4.6036-3.2496 6.8242-4.1053-10.052 1.3757-21.837-0.22747-30.308-3.6829 6.7267 6.2284 16.205 8.4598 23.484 7.7882"/>
   <path d="m104.12 84.899c4.5928 4.257 9.543 8.7847 12.099 11.222 0.11915-5.2643 2.4697-9.7488 5.351-11.612-1.4948-0.38995-3.2388-1.1265-5.0477-2.1231-3.4012 2.2747-7.9832 3.0546-12.403 2.513"/>
   <path d="m92.711 94.867c-2.0364 1.4515-2.0364 1.6031-3.932 2.4697-0.8124 2.2964-2.7405 8.6981-2.6972 10.55 2.3614-0.2383 4.7227-0.8124 6.9866-1.6031-0.40078-0.74741-2.8813-4.3328-1.4732-5.0152 1.4082-0.68242 8.6331 0.48744 9.8571 0.99654 3.098-1.9064 5.6218-3.9428 7.1708-5.5676-0.68242-0.75824-1.5598-1.7331-2.513-2.8055-5.7843 6.4017-14.515 6.4017-13.399 0.97488"/>
  </g>
  <g fill="#0f141b">
   <path d="m105.04 117.15c-2.5347 2.1014-1.3648 4.5061-1.7981 6.0876-0.45494 1.6681-13.443 9.9763-17.299 11.287-0.25997 0.0866 1.1374 0.61742 1.7006 0.35745 4.7119-2.1881 15.988-8.8822 16.584-11.092 0.36829-1.3323-0.0325-4.1162 1.6898-5.546 6.8458-5.6868 14.255-7.8965 22.086-6.6292 0.19498-0.5091 0.40078-0.99654 0.59576-1.5056-8.319-1.2348-16.475 1.1807-23.56 7.0408"/>
   <path d="m135.87 112.12c-0.12998-0.0542-1.1157 1.3973-0.95322 1.4623 0.8449 0.33579 1.6031 0.72574 2.2856 1.159 0.37912-0.43328 0.80157-0.86656 1.2348-1.3107-0.75824-0.47661-1.614-0.92072-2.5672-1.3107"/>
   <path d="m251.4 302.48c-6.7267-11.785-12.619-34.348-12.078-52.113 0.15165-5.4052-2.1989-5.5352-6.3367-7.2683-3.5637-1.679-8.3081-3.9753-8.2215-12.143 0.0325-2.3289 0.42245-5.1127 0.66075-7.7124 0.79074-8.5356 2.5022-19.075-3.2713-32.474-4.7011-10.886-13.822-15.923-27.643-14.125-10.843 1.4082-28.694-0.70408-38.887-4.0078-3.7154-1.2132-8.1023-4.6794-8.8172-7.2141-3.1196-11.049-2.5672-21.48-2.3397-29.615 0.14081-4.6902 0.25996-8.8389-0.23831-12.359-0.58493 0.0542-1.1482 0.0433-1.6898-0.11915 0.68242 3.6504 0.55243 8.0698 0.41162 13.107-0.22748 8.1998-0.50911 18.404 2.6538 29.604 0.88823 3.1413 6.2176 6.3909 9.7163 7.5282 8.2106 2.6755 25.834 6.315 38.161 4.7119 13.518-1.7656 22.314 2.5238 26.874 13.107 5.1452 11.915 4.8094 22.52 3.9212 32.074-0.2383 2.6322-0.5091 6.0876-0.49827 7.4849 0.0433 8.7306 5.1344 11.558 8.2323 12.944 6.4667 2.903 5.9251 2.6322 5.9251 8.449 0 16.8 6.0334 39.699 11.839 50.195-1.029 0.49827-3.4771 0.71491-5.3402 0.41162-0.2708-0.0542-0.43328 0.93155-0.17331 0.97488 1.9498 0.32495 5.9034 0.16247 7.03-0.82324 0.18414-0.15164 0.22747-0.41161 0.10832-0.61742"/>
   <path d="m104.65 118.28c-3.2063 1.0724-4.0512 4.5711-3.9428 7.7774 0.0108 0.2708 1.0074 0.2383 0.99654-0.0325-0.0758-2.0797 0.90989-5.351 2.643-6.4992 0.19498-0.12998 0.56326-1.3323 0.3033-1.2457"/>
   <path d="m234.81 297.53c0.16248 1.1157 0.35746 2.4914-0.71491 4.1378-2.708 4.1703-4.6361 11.579-2.1556 11.926 5.4052 0.76907 11.449-1.5382 13.334-4.1162 0.56326-0.76907-0.0108-2.9463-0.28164-4.4953-0.34662-1.9822-0.70408-4.0295 0.0433-5.351 0.67158-1.1699-0.20581-1.1699-0.87739 0-0.7799 1.3973-0.61742 2.8055-0.14082 5.5243 0.28164 1.6356 0.42245 3.1738 0.21664 3.8454-1.5165 1.9823-6.5642 4.3653-11.937 3.5962-0.80157-0.10832-0.5416-5.5135 2.6322-10.388 1.2674-1.9606 0.8124-3.1304 0.64992-4.2678-0.16248-1.1807-0.93155-1.5815-0.76907-0.41162"/>
   <path d="m233.86 302.28c-0.24914 0.11915-0.21664 1.1915 0.0325 1.0832 1.224-0.5741 3.8129-0.69325 5.5026 0.55243 2.1556 1.5923 3.5746 1.8631 5.156 1.7656 0.2708-0.0108 0.22747-1.2348-0.0433-1.224-1.3973 0.0867-2.5997 0.0867-4.5278-1.3323-2.0148-1.4948-4.6036-1.549-6.1201-0.8449"/>
   <path d="m187.19 203c4.1703 17.169 9.6405 30.362 16.389 35.496 2.6755 2.0364 5.5785 3.5204 8.3406 4.9394 5.1885 2.6647 10.756 5.1019 13.637 11.005 3.3254 6.77 10.475 30.34 5.1994 42.851-0.065 0.16248-0.0433 0.34662 0.065 0.48744 1.2673 1.614 3.2929 2.9463 4.0187 3.3796 0.2383 0.14082 0.66075-0.74741 0.5091-0.84489-0.41161-0.24914-1.8198-1.289-3.098-2.8488 4.0403-10.139-0.74741-33.157-5.7951-43.458-3.0438-6.1959-8.0807-8.7848-13.421-11.525-2.7297-1.3973-5.546-2.8488-8.1457-4.8311-6.5425-4.9719-11.536-18.035-17.039-36.114-0.5091-1.6898-1.0724-0.24913-0.66075 1.4623"/>
   <path d="m90.847 143.42c-1.549 1.549-2.0906 1.419-3.3254-0.34662-1.3648-1.9389-2.1772-5.3835-1.6465-7.2466 0.35746-1.2673 8.4273-0.49827 8.5139 0.77991 0.10832 1.7006-1.8414 5.1127-3.5421 6.8133m-6.1526-8.1023c-0.74741 1.7114 0.60659 6.3259 2.0148 8.319 1.8631 2.6538 3.1846 2.1447 4.8419 0.48744 1.9173-1.9173 4.192-5.5568 4.0512-7.5716-0.15165-2.2856-9.8138-3.737-10.908-1.2348"/>
   <path d="m131.59 141.49c-0.97488 0.97488-7.1599 5.0694-12.543 5.8276-3.7045 0.53077-7.1491-1.029-10.345-2.5564-5.5893-2.6647-6.9108-2.4697-13.93-0.57409-2.3072 0.62825-4.9719 1.1265-5.481 0.49827-0.17331-0.20581-1.1374 0.16248-0.95322 0.36829 1.0832 1.2348 3.2821 0.86656 6.6508 0.10832 6.7267-1.5165 7.5282-1.614 13.432 0.85572 3.1846 1.3323 7.0625 3.3254 11.038 2.7622 5.611-0.79073 10.767-4.961 11.785-5.9793 1.5056-1.5056 1.8523-2.8163 0.34662-1.3107"/>
   <path d="m107.61 145.06c-0.99654 0.11915-2.2422 0.46578-3.6287 0.85573-4.1703 1.159-9.8788 2.7622-13.692-0.75824-0.19498-0.18415-1.2673 0.2708-1.0832 0.47661 3.9212 4.5819 10.648 2.4589 15.035 1.2348 1.7656-0.49827 3.9645-1.0182 4.8852-0.94238 0.2708 0.0217-1.1807-0.90989-1.5165-0.86656"/>
   <path d="m116.1 121.68c-2.0581 0.16248-3.5746 4.6794-3.8129 7.2899-0.0217 0.2708 1.3323 0.0217 1.354-0.24913 0.28163-3.033 1.5056-5.9793 2.5347-6.0551 4.9286-0.37912 12.944 3.6396 13.518 9.3047 0.58493 5.7843-4.6469 13.193-11.341 15.663-0.25997 0.0975 1.0399 0.66075 1.2998 0.56326 6.4992-2.513 12.045-10.128 11.417-16.313-0.62826-6.1959-9.6621-10.615-14.97-10.204"/>
   <path d="m124.19 124.52c-0.25997 4.1486-5.8493 6.8566-10.691 3.8237-0.22747-0.15164-0.75824 0.69325-0.51994 0.83407 5.6651 3.5529 12.089 0.38995 12.403-4.5278 0.0217-0.2708-1.1699-0.40078-1.1915-0.12998"/>
   <path d="m120.3 130.29c6.2284 1.7331 4.6361 15.544-5.7843 17.006-0.2708 0.0325 1.3215 0.71491 1.6031 0.64992 9.6946-2.4372 12.045-15.858 5.2752-18.404-0.15165-0.0542-1.354 0.67159-1.094 0.74741"/>
   <path d="m144.48 106.4c-1.9606 0.60659-7.8424 8.5139-9.023 10.464-0.82323 1.3648-0.61742 2.2206 0.31413 0.94238 1.9281-2.6863 7.7015-9.5863 9.0555-10.009 3.7804-1.1807 19.682-0.56326 21.144 0.45494-0.18414 1.6031-8.2106 13.464-9.5322 13.984-2.0581 0.79073-15.815 0.71491-19.108-0.10832-1.224-0.3033-1.2998 0.57409 0.55243 0.98571 3.5529 0.76907 16.616 1.3865 19.021 0.45494 1.4623-0.55243 10.594-13.984 10.02-15.696-0.72574-2.1772-19.335-2.4372-22.444-1.4732"/>
   <path d="m146.44 111.32c2.6105-0.55243 9.4563 0.5091 10.518 1.094-0.23831 1.2457-3.2496 6.77-4.0945 7.0841-1.8089 0.55243-9.9979 0.64992-14.352 0.0758 1.5381-2.8705 4.7661-7.5824 7.929-8.254m-0.20581-0.96405c-4.7011 0.99654-8.7739 9.0447-8.9472 9.3913-0.28163 0.57409-0.0867 0.62825 0.36829 0.70408 4.322 0.72574 13.291 0.85572 15.327 0.22747 1.5165-0.46578 5.156-7.5282 5.156-8.6114 0-1.4623-9.3913-2.2531-11.904-1.7115"/>
   <path d="m137.4 163.25c-0.44411 1.7548-2.1122 5.481-2.968 7.0733-0.93155 1.7548-0.41162 1.8306 0.51994 0.25997 0.89906-1.5165 2.6755-4.7986 3.1196-6.6184 0.20581-0.80157-0.46578-1.5165-0.67158-0.71491"/>
   <path d="m119.37 220.41c-8.3948-5.3835-14.32-13.583-16.107-23.159-1.6248-8.7306 0.80157-21.566 2.9463-32.897 1.5165-8.0482 2.8272-15.002 2.3289-18.826-0.0325-0.2708-1.2673-0.16248-1.2348 0.10832 0.47661 3.672-0.7799 10.756-2.2747 18.718-2.1556 11.417-5.4268 23.657-3.5854 33.893 1.7873 9.8896 8.1457 18.089 17.093 23.581 0.29246-0.28163 0.58493-1.094 0.83406-1.419"/>
   <path d="m196.23 226.34c-5.4485 0.60659-17.559-1.3973-19.855-1.3973-2.1339 0-4.1595 0.44411-6.7375 0.98571-5.8384 1.2565-13.746 2.9463-29.864 1.1699-0.42245 0.31413-2.2531 1.2998-2.708 1.549 17.104 2.0039 27.069-0.51993 32.778-1.744 2.5238-0.5416 4.5061-0.96404 6.5317-0.96404 1.4948 0 14.591 2.6647 20.613 1.8739 0.2708-0.0325-0.48744-1.5056-0.75824-1.4732"/>
   <path d="m165.09 227.52c-0.70408 4.2245-0.0325 10.691 1.7656 14.277 0.45495 0.93155 1.9064 1.8739 3.5312 3.3146 2.5672 2.2422 5.9684 5.0802 6.2392 7.5716 0.19498 11.569-6.64 26.82-12.966 35.767-0.3033 0.42245 1.3107 5.1885 2.3939 6.4884 0.17331 0.20581 0.84489-0.5416 0.75824-0.63908-0.49827-0.59576-1.5598-3.3796-1.7115-5.546 6.2934-8.9581 12.522-23.906 12.522-35.605 0-0.17332 0-0.35746-0.0108-0.53077-0.31412-2.9246-3.6612-5.8601-6.3475-8.2215-1.4298-1.2457-2.7838-2.4372-3.1521-3.1846-1.6465-3.2821-1.9931-10.117-1.354-13.984 0.0108-0.0217-1.6248 0.0217-1.6681 0.29246"/>
   <path d="m195.94 226.57c-2.6105 2.7622-9.4672 13.486-9.7921 15.295-0.37912 2.1122 0.29246 4.0403 2.4914 7.2141 0.66075 0.94238 1.2782 1.8306 1.2782 2.3614v0.0108c-0.0325 1.8739-1.4948 4.6361-3.3471 8.1348-3.7479 7.0841-9.0556 17.093-9.0556 30.785 0 2.968 0.25997 6.1201 0.83406 9.4347-1.224-0.24913-2.8163-1.1157-3.2279-1.6356-0.16248-0.21664-0.60659 0.82324-0.47661 0.92072 3.0438 2.2314 5.0585 2.0689 4.9394 1.4082-3.4012-18.653 2.8163-31.434 8.0915-40.252 2.1881-3.6504 3.7912-6.4342 3.8345-8.5464 0.0108-0.84489-1.2348-2.0039-2.0581-3.1846-1.2348-1.7764-2.773-3.9862-2.3289-6.4775 0.2708-1.5165 7.1058-10.767 9.7921-13.616 0.18414-0.19498-0.79074-2.0472-0.97488-1.8523"/>
   <path d="m166.62 290.89c0.0758 3.0763-1.1482 4.8419-2.5672 6.8892-4.322 6.2609-3.5529 10.301-3.2929 10.431 2.3939 1.2565 14.363-1.7223 14.883-3.3146 0.76907-2.383-1.1482-7.0625-0.42245-10.55 0.29247-1.3757-0.2708-1.7873-0.67158-0.43328-0.7799 2.708 0.43328 9.0664-0.2383 10.55-3.9754 2.4264-10.724 3.5096-12.5 2.9896-0.0433-1.5923-0.25997-4.3003 3.0546-9.1097 1.419-2.0364 2.5022-3.5962 2.5022-6.8133 0-1.2565-0.77991-2.0689-0.74741-0.63909"/>
   <path d="m163.78 298.61c-0.20581 0.17331-0.16248 1.1915 0.0433 1.0182 1.9498-1.6248 4.5711-0.37912 6.835 0.93155 1.5923 0.92072 3.098 1.7873 4.3761 1.4732 0.2708-0.065 0.0325-1.029-0.2383-0.96405-0.88823 0.22747-2.2206-0.55243-3.6396-1.3648-2.318-1.3432-4.9069-3.1629-7.3766-1.094"/>
   <path d="m186.17 188.91c1.4948 0.5741 3.1954 2.253 2.8272 3.2279-0.40078 1.0399-2.3397 1.1157-4.3328 0.35746-2.0689-0.79074-3.5637-2.4589-3.2604-3.2496 0.35746-0.95321 2.7188-1.1157 4.7661-0.33579m-5.5785 0.0217c-0.60659 1.6031 1.5706 3.4771 3.8995 4.3653 2.448 0.93155 4.7769 0.57409 5.3077-0.8449 0.60659-1.5706-0.97488-3.3254-3.1413-4.1595-2.2964-0.8774-5.4593-0.94239-6.0659 0.63908"/>
   <path d="m182.07 177.97c-0.0975-0.10832-0.76907 0.32496-0.82323 0.2708 0.40078 0.42245 1.2132 1.5706 0.94238 2.3614-0.44411 1.2782-3.2171 1.9389-6.6292 0.90989-3.1196-0.94238-5.2102-3.0221-4.7552-4.3111 0 0.065-0.76907-0.43328-0.82323-0.29247-0.59576 1.7006 1.354 4.0837 5.1777 5.2427 3.6504 1.1049 7.1708 0.64992 7.8424-1.2673 0.31413-0.89906-0.0108-1.9389-0.93155-2.9138"/>
   <path d="m178.83 201.4c-2.8488 3.0221-8.2432 4.7552-14.082 4.5278-0.2708-0.0108-0.72574 1.1482-0.44411 1.159 5.8818 0.22747 11.764-1.6681 14.883-4.6686 2.318 2.2964 6.8025 3.8562 9.1639 4.1703 0.2708 0.0325 0.3033-1.1482 0.0325-1.1807-2.5022-0.33579-6.9-1.7981-8.8172-3.997-0.21664-0.24913-0.49828-0.25997-0.73658-0.0108"/>
   <path d="m178.94 206.17c-5.0044 2.8813-12.522 5.3402-17.18 3.932-0.25997-0.0758-0.44411 1.0507-0.18414 1.1265 4.8744 1.4623 12.208-1.0399 17.559-4.0403 3.1846 2.8596 8.5464 3.8454 10.67 3.7262 0.2708-0.0108 0.40078-1.2565 0.12998-1.2348-2.2747 0.11915-7.669-0.74741-10.399-3.4338-0.16248-0.15164-0.40078-0.18414-0.59576-0.0758"/>
   <path d="m135.32 192.11c-7.9074 7.3224-11.644 12.533-15.436 24.004-1.4515 4.387-3.3254 7.095-5.9468 10.03-3.3688 3.7804-4.4086 5.2102-1.6681 7.929 8.6331 8.5681 17.797 21.242 18.544 48.148 0.0217 0.83406 5.1452 3.3254 6.7158 3.5529 0.2708 0.0325 0.20581-1.4082-0.0433-1.4406-1.614-0.23831-3.8995-1.354-5.2319-2.5347-0.7799-26.018-11.146-40.1-18.891-48.441-1.8089-1.9498-1.7656-2.8705 1.6898-6.7592 2.2097-2.4697 4.7011-5.286 5.8818-8.8497 3.3796-10.193 9.2289-19.671 16.075-25.997 1.3323-1.2348-0.25997-0.96404-1.6898 0.35746"/>
   <path d="m165.84 202.92c-7.6582 15.154-24.859 24.047-37.934 28.824-0.19498 0.0758-0.31413 0.55244-0.3033 0.59576 0.87739 3.2388 3.7479 7.4308 6.1201 9.8896 0.72574 0.75824 0.96405 1.1157 0.88822 1.6681-0.45494 3.2713 0.68242 9.4455 1.614 12.663 3.0221 10.41 9.5971 21.729 15.241 26.365-1.7115 0.79074-3.5854 1.159-5.2535 1.0074-0.2708-0.0325 0.33579 1.0182 0.5416 1.0182 1.9173 0.0542 4.387-0.61742 6.2392-1.6248 0.38995-0.2058 0.51993-0.48744 0.0542-0.82323-5.6218-4.1703-12.793-15.609-15.869-26.213-1.094-3.7912-1.5706-9.1855-1.1482-12.435 0.10832-0.86656-0.24914-1.4298-1.159-2.383-2.1881-2.2639-5.091-5.8709-6.0443-8.8931 14.732-5.1885 29.149-12.132 37.23-28.12 0.73658-1.4406 0.59576-3.1521-0.21664-1.5381"/>
   <path d="m137.03 284.06c1.0507 11.774 8.7089 18.024 10.735 17.624 1.3757-0.2708 2.5347-1.6681 3.6396-3.4987 2.253-3.7587 2.6647-10.095 1.5815-10.431-3.2171-0.98571-5.6868-2.3289-6.9433-4.5169-0.66075-1.1482-0.95321-0.0975-0.37912 0.89905 1.3432 2.3289 3.2388 3.6504 6.5534 4.7228 0.30329 1.1699 0.51993 5.1669-1.6681 8.8172-0.92072 1.5381-2.0039 2.5022-3.0654 2.7622-4.6794-1.8956-9.2939-10.074-9.7163-17.331-0.0975-1.614-0.87739-0.66075-0.73658 0.95322"/>
   <path d="m148.92 286.94c-0.75824 2.3505-4.7444 5.2644-9.283 4.4953-0.2708-0.0433-0.22747 1.0724 0.0433 1.1157 4.7336 0.80157 9.1855-2.2097 10.182-5.3077 0.0867-0.25997-0.85572-0.56327-0.94238-0.3033"/>
   <path d="m107.36 301.76v0.0542-0.0542m16.031-52.936c-1.0615 2.9788-2.7838 6.4342-4.7661 10.431-12.435 25.033-11.872 35.291-11.298 41.844-1.4515-0.42245-2.8596-1.2024-3.7262-2.1014-0.18414-0.19497-0.5741 0.82323-0.49827 0.89906 1.1265 1.0724 3.2821 2.1989 5.0152 2.5672 0.5091 0.10832 0.62826-0.16248 0.59576-0.5416-1.679-16.161 5.5351-30.969 11.254-42.483 1.9931-4.0187 3.4662-6.3909 4.5494-9.4347 0.0975-0.25997-1.0399-1.4407-1.1265-1.1807"/>
   <path d="m101.43 196.21c-1.1915 14.861 1.3865 23.83 2.383 27.221 0.55243 1.8414 1.0832 3.6179 1.0832 5.2102 0 2.318-0.80157 8.6764-0.87739 9.8354-0.11915 2.0256 5.2427 4.5061 5.546 5.1235-0.18414 18.024-5.2102 31.402-16.952 43.458-0.70408 0.71491 0.60659 7.1816 2.3505 8.9906 0.19498 0.19498 0.80157-0.58493 0.71491-0.69325-1.0832-1.419-1.8848-5.4593-1.5056-7.5499 15.685-16.584 16.573-35.399 16.66-44.097 0.0108-1.1265-5.2968-4.0728-5.2643-5.6218 0.0108-0.84489 0.48744-6.9866 0.48744-9.3805 0-1.7223-0.12998-2.3614-0.74741-4.6794-1.0832-4.0187-3.0005-12.208-2.5672-23.885 0.0433-1.1049-1.1482-5.9793-1.3107-3.932"/>
   <path d="m96.317 292.97c-0.0217 1.0832-0.90989 2.0148-2.0256 3.1954-6.1417 6.5209-4.8311 12.024-4.4303 12.208 4.8527 2.2856 12.858-0.22747 13.843-1.9714 0.64992-1.1698-0.97488-6.6508 0.66075-8.2865 0.79074-0.77991 0.59576-1.029-0.43328-0.61743-1.9931 0.80157-1.094 6.5858-1.5598 8.3515-0.88822 1.1807-7.5066 3.4771-11.579 1.7873-0.0542-0.85573-1.1374-5.1019 4.2245-10.789 1.0507-1.1157 2.1664-2.5022 2.1122-3.8237-0.0217-0.79074-0.7799-1.2457-0.8124-0.0542"/>
   <path d="m103.2 304.42c-1.679-3.8887-5.2968-7.6366-8.6439-7.8207-0.22747-0.0108-0.86656 1.029-0.59576 1.0074 3.2063-0.3358 7.2791 4.6253 8.7631 8.5789 0.0975 0.24914 0.56326-1.5598 0.47661-1.7656"/>
   <path d="m121.87 129.29c0.44411-1.3648 0.25997-3.1196-0.21664-4.0837 0 0-7.9507 3.0546-8.2107 3.4012 3.2063 2.0798 5.8818 1.6573 8.4273 0.68242"/>
  </g>
  <path d="m118.32 126.62-2.7947 1.2998c0.32496 1.0507 1.2132 1.6248 1.9931 1.2673 0.76907-0.35745 1.1265-1.5056 0.80157-2.5672" fill="#fff"/>
  <g fill="#0f141b">
   <path d="m123.97 123.97c-2.9138 0.43328-26.549 10.994-28.965 11.807-0.25997 0.0867 0.0542 1.0182 0.31413 0.93155 2.4589-0.8124 26.896-11.189 29.452-11.937 0.25997-0.0758-0.53077-0.8449-0.80157-0.80157"/>
   <path d="m110.4 169.27c-2.4589 2.8488-6.1526 9.9221-7.7449 14.991-0.28163 0.92072-0.25997 5.3618-0.21664 5.091 0.71491-4.0512 5.286-14.818 8.0807-18.631 3.0221 13.367 8.2323 30.102 15.847 33.536 0.24914 0.11915 0.96405-0.85573 0.71491-0.96405-6.8891-3.1088-13.367-22.39-15.826-33.807-0.14082-0.68242-0.37912-0.76907-0.85573-0.21664"/>
   <path d="m112.36 160.74c-2.0797 1.2673-6.4667 6.0118-7.734 9.1964-0.10832 0.24914-0.89906 4.5386-0.80157 4.2895 1.6031-4.2895 6.3584-10.518 8.4814-12.208 1.4298 5.9576 8.6548 31.521 16.551 37.858 0.25997 0.21664 1.2457-0.80157 1.0074-0.99654-7.4199-6.0226-15.36-31.239-16.768-37.825-0.10832-0.50911-0.25997-0.60659-0.73658-0.31413"/>
   <path d="m149.24 94.723c-3.3904 2.0689-6.7917 5.1885-8.7306 7.4416-1.1699 1.5056-4.4628 6.3151-6.1526 10.659-1.0399 0.62826-2.8163 0.70408-4.1378 0.15165-0.58493-0.24914-1.289-0.71491-1.4948-1.5381 0.63909-2.1339 3.3471-10.431 3.6937-11.038 0.94238-1.1915 2.0797-2.2747 3.2929-3.2388 0.16248-0.49827 0.3033-0.98571 0.38995-1.5056-1.6573 1.1915-3.2388 2.5888-4.4844 4.1703-0.41162 0.53077-3.8237 10.42-4.1595 11.558-0.11915 0.43328 0.85573 1.8631 2.383 2.5022 1.9606 0.83407 5.2102 0.49827 5.5785-0.46578 1.5923-4.1487 4.9069-9.4455 5.8818-10.659 1.1049-1.3757 5.4377-5.4377 8.8714-7.4416 0.23831-0.14082-0.79073-0.68242-0.93155-0.59576"/>
   <path d="m146.14 90.348c-0.5091 0.2383-1.8089 0.74741-3.4771 1.5273 0.0325 0.34662 0.0542 0.70408 0.0217 1.0724 1.8739-0.89906 3.3579-1.4732 3.8995-1.7115 0.17331-0.0867-0.19497-1.0074-0.44411-0.88822"/>
   <path d="m141.97 80.146c-0.83406 2.2097-2.5239 2.7405-3.2063 2.6538-0.5741-0.0758-0.8124-1.8523-0.0217-3.9537 0.68242-1.8198 2.318-2.5997 2.7947-2.4264 0.73658 0.2708 1.1049 1.9498 0.43328 3.7262m-0.0975-4.6578c-1.159-0.42245-3.2604 0.93155-4.1595 3.3471-0.83406 2.2531-0.22747 4.7986 0.92072 4.9394 1.1157 0.15165 3.2604-0.61742 4.257-3.2821 0.88823-2.3397 0.31413-4.5169-1.0182-5.0044"/>
   <path d="m142.43 79.453c0.18414 3.3688-0.2383 12.576-0.79074 15.49-0.28163 1.5056 0.61742 1.0182 0.89905-0.48744 0.5741-3.033 1.0507-13.291 0.67159-16.551-0.0325-0.2708-0.79074 1.2782-0.7799 1.549"/>
   <path d="m137.39 80.437c-0.28163 4.7552-1.354 13.67-2.1447 17.461-0.28163 1.3865 0.70408 0.72574 0.98571-0.64992 0.80157-3.8454 1.6031-11.666 1.8956-16.454 0.0108-0.2708-0.71491-0.62826-0.73658-0.35746"/>
   <path d="m99.206 79.564c-0.19498-0.18414 0.16248 1.5273 0.36829 1.7115 0 0 14.45 13.302 16.844 15.587v-1.7223c-4.127-3.7912-17.212-15.576-17.212-15.576"/>
   <path d="m118.9 99.904c-0.42245 0.0758-0.82323 0.14082-1.2132 0.19498 0.92072 3.098 2.1772 7.8424 2.903 10.778 0.0758 0.2708 1.1915-0.20581 1.1265-0.47661-0.0975-0.36829-1.5923-6.3909-2.8163-10.496"/>
   <path d="m110.36 97.754s-11.644-12.988-13.193-15.013c-0.16248-0.21664-0.95322 0.15165-0.89906 0.24914 1.8848 2.773 13.248 15.306 13.313 15.381 0.69325 1.094 0.66075 3.0871 1.8198 7.4849 0 0 1.7115 1.9281 1.6465 1.6681-1.8089-8.1673-2.4155-9.4672-2.6863-9.7705"/>
   <path d="m95.947 78.972m1.1049 3.5529c-0.79074-1.1049-0.88822-2.4155-0.44411-2.8163 0.46578-0.41162 1.5815 0.0542 2.1989 0.85573 0.79074 1.029 1.0074 2.2639 0.51994 3.0113-0.3033 0.45494-1.3973 0.16248-2.2747-1.0507m-0.98571-3.4662c-0.99654 0.88822-0.67158 2.7297 0.0542 3.737 1.484 2.0797 3.4121 2.2747 4.0295 1.3215 0.72574-1.1157 0.49827-2.7838-0.56326-4.1595-0.97488-1.2565-2.4805-1.8306-3.5204-0.89906"/>
   <path d="m186.3 83.069c4.1595 1.3323 13.269 9.478 14.439 13.388-8.124 1.224-26.939 0.74741-34.576-4.5386-1.0182-0.71491-1.4623 0.0433-0.6066 0.7799 2.6972 2.3072 5.6976 7.9399 6.0009 12.619-8.1023-0.93155-20.884-6.3259-25.152-15.901-0.7799-1.744-1.1374-0.82323-0.43328 0.95322 4.1053 10.355 17.255 15.035 25.596 15.956 0.74741 0.0758 1.0507-0.14082 1.0074-0.94238-0.24913-4.5819-1.679-7.5607-4.3761-11.211 8.2215 5.1344 24.621 4.6361 33.243 3.1846 0.25996-0.0433 0.44411-0.29246 0.41161-0.55243-0.60659-4.3978-9.9979-13.02-15.089-14.407-1.5273-0.41162-1.9281 0.20581-0.46578 0.67158"/>
   <path d="m206.31 78.934c-0.80157 2.1339-12.11 4.9719-18.685 4.1487-0.2708-0.0325 1.744 1.2998 2.5239 1.3215 6.6292 0.0975 16.086-2.448 17.093-5.1235 0.0867-0.25997-0.83406-0.60659-0.93155-0.34662"/>
   <path d="m192.07 69.609c2.9246-1.9281 11.904-2.8813 17.375-1.744 6.1417 1.2673 11.298 4.6036 14.612 9.3805-8.9472 5.1777-25.412 0.16248-31.987-7.6366m33.146 7.5391c-3.4446-5.2535-8.9364-9.1639-15.533-10.529-5.5676-1.1482-15.847 0.0325-18.696 2.5347-0.19498 0.17331-0.22747 0.46578-0.065 0.67158 7.2574 9.1964 24.155 14.482 34.11 8.1348 0.37912-0.2383 0.44412-0.42245 0.18415-0.8124"/>
   <path d="m262.02 35.461c-8.7739-2.2856-29.355-2.8272-39.244 1.0074-1.8414 0.71491-2.6647 1.9389-0.82323 1.224 8.7739-3.4012 32.583-3.0221 39.569-1.3215-6.9758 6.64-22.942 13.41-35.291 15.046-1.354 0.17331-4.1378 1.0399-1.3865 1.2673 6.6292 0.5416 13.811 4.1811 16.844 6.835-7.8315 5.6326-21.967 8.2648-29.387 7.994-0.2708-0.01083 1.8848 1.1807 2.1772 1.1807 7.8424 0.05416 20.386-2.8813 28.055-8.5464 0.5741-0.42245 0.36829-0.90989-0.0325-1.2565-3.3254-2.968-9.3697-6.0226-14.634-6.7375 11.124-0.66075 27.838-8.6981 34.565-15.251 0.89905-0.87739 0.68241-1.159-0.41162-1.4407"/>
   <path d="m190.29 28.87c-0.17331 0.21664 0.59576 0.83406 0.76907 0.62826 3.3038-4.0403 11.406-7.3874 18.003-7.5282-0.88822 2.9138-4.4303 9.1422-6.1526 11.027-0.93155 0.99654-0.0325 0.74741 1.3107 0.12998 8.6548-3.9645 18.653-5.8818 26.04-4.0512-3.4879 2.5022-7.4199 6.2717-8.6872 8.1998-0.065 0.08666 2.1556-0.53077 2.318-0.72574 1.5273-1.8306 4.5278-5.1019 7.799-7.2791 0.64992-0.43328 0.61742-0.64992-0.12999-0.87739-7.03-2.1881-17.775-1.0615-26.278 3.098 2.7405-4.0078 5.3727-9.673 4.8311-10.355-0.64992-0.80157-13.919 0.5091-19.823 7.734"/>
   <path d="m173.46 39.568c0-11.374 12.392-18.144 20.992-20.667-1.7114 6.8891-10.561 24.112-20.516 24.502-0.31413-1.3323-0.47661-2.6105-0.47661-3.8345m20.57-21.588c-12.695 3.7479-24.394 12.641-20.982 26.073 0.0542 0.21664 0.25997 0.36829 0.47661 0.37912 11.579 0.49827 20.245-18.934 21.913-25.336 0.45495-1.744 0.43328-1.6573-1.4082-1.1157"/>
   <path d="m177.58 17.64c-10.215 4.0078-22.823 18.274-25.975 28.943-0.56326 1.9173-0.28163 2.9896 0.38995 1.1049 3.4987-9.738 15.327-24.394 25.163-28.77-0.92072 6.6292-4.1812 16.302-7.5066 20.148-1.4298 1.6573 0.0217 1.3757 1.5381-0.38995 3.5854-4.1378 6.3151-13.757 7.0625-20.516 0.0542-0.48744-0.14081-0.72574-0.67158-0.51994"/>
   <path d="m137.35 52.886c-0.0758 0.44411 0.79074 2.6755 0.80157 2.3939 0.51994-8.3948 7.4957-19.454 14.558-23.31 0.17331 2.2314-0.35745 12.056-0.8124 14.179-0.0108 0.0325 1.3432-1.9606 1.4082-2.2314 0.74741-3.4987 0.93155-13.258 0.2383-13.627-0.44411-0.2383-13.237 5.9143-16.194 22.596"/>
   <path d="m126.55 55.832c-1.0074-3.9428-1.2348-10.832 1.5815-15.88 4.8636 2.9571 9.1747 10.095 9.1747 18.241 0 3.2063-0.69325 6.5642-2.2531 9.8788-4.1162-2.578-7.1383-6.8891-8.5031-12.24m-0.99654 0.49827c2.3722 9.2938 9.0772 13.183 9.8571 12.944 0.3033-0.08666 3.8454-6.1742 2.9246-13.832-1.3648-11.406-10.312-17.028-10.464-16.941-1.2673 0.75824-4.5928 8.9689-2.318 17.829"/>
   <path d="m114.77 52.641c-0.70408 5.5351 0.3033 13.453 5.1452 17.396-5.6651-1.6356-11.536-0.55243-14.255 1.5056-0.36829 0.2708-0.60659 0.53077-0.0975 1.3757 2.9896 5.6651 9.3588 10.269 15.046 11.688-5.0802 4.2245-5.3727 10.767-4.4736 15.468 0.0325 0.21664 0.21664 0.37912 0.43328 0.40078 3.8779 0.35746 8.9906-0.22747 12.858-3.8995 0.28163-0.25997 0.47661-2.0689 0.29246-1.8739-3.5312 3.9537-8.7847 5.0694-12.673 4.7986-0.59576-3.5637 0.0433-11.536 4.8636-14.656 0.75824-0.48744 0.42245-0.74741-0.14082-0.88822-4.9177-1.289-12.099-6.0984-15.403-11.688 2.6213-1.8956 10.984-2.8813 15.36-0.47661 1.0399 0.5741 1.4082-0.15165 0.5416-0.82323-5.4593-4.2786-6.965-13.464-6.5425-17.667 3.802 0.67158 8.8497 3.7262 11.514 7.0408 0.16248 0.21664-0.0433-1.5706-0.51994-2.0364-3.098-3.0655-7.8532-5.6651-11.395-6.0984-0.2708-0.0325-0.51994 0.16248-0.55243 0.43328"/>
   <path d="m131.8 89.162c-3.4337 4.2028-4.3003 13.702-3.5421 14.006 0.83406 0.33579 2.318-0.14082 2.9896-0.66075 0.21664-0.17331-0.065-1.094-0.28163-0.93155-0.43328 0.33579-1.0724 0.56326-1.9498 0.70408-0.0867-1.9823 1.3865-9.6838 3.7045-13.193 0.70408-1.0724 0-1.0615-0.92072 0.0758"/>
   <path d="m125.16 47.141c-0.49827 1.419-3.2063 5.5676-4.8527 7.1058-0.16248 0.15165 0.51994 0.86656 0.75824 0.63909 1.5165-1.4623 3.4446-4.4736 4.3653-6.3042 0.18414-0.37912-0.18414-1.7006-0.2708-1.4407"/>
   <path d="m111.62 28.593c-2.3614 1.094-5.6218 7.7124-5.546 10.864 0.0108 0.2708 0.83406 2.8921 0.83406 2.8596-0.48744-4.1703 2.9138-11.092 4.7552-12.587 3.802 6.8891 2.8705 15.479 2.6972 18.133-0.0433 0.79074 0.10832 1.3865 0.89906 0.28163 2.1772-3.0871 7.4091-6.3259 11.709-6.2501 0.2708 0 0.29246-0.98571 0.0108-0.98571-4.4195-0.08666-7.8749 1.8306-11.514 5.676 0.34662-3.9428 0.70408-12.229-3.2279-17.829-0.14082-0.19498-0.40078-0.25997-0.61742-0.16248"/>
   <path d="m95.859 43.954c-1.1157-3.4121-1.6573-7.0625-1.6573-10.507 0-3.932 0.73658-7.5391 2.1447-10.247 5.1127 5.0044 10.085 13.778 10.085 22.498 0 3.2279-0.70408 6.445-2.318 9.4563-3.5312-1.744-6.4559-5.676-8.254-11.2m0.14082-22.747c-0.85573 0.12998-5.4052 10.615-1.2132 23.484 1.9606 6.0226 7.3658 12.413 9.7163 11.688 1.0832-0.34662 3.8237-7.5932 2.513-15.132-1.7115-9.803-9.7271-20.234-11.016-20.039"/>
   <path d="m72.666 14.665c-1.6248 2.5564-1.419 10.29-0.14082 13.832 0.15165 0.41162 1.8306 1.2457 1.7764 1.159-1.6681-2.7297-1.9498-11.948-0.95322-14.103 5.741 1.9931 16.497 11.514 20.126 21.382 0.0975 0.24914 0.47661-1.8306 0.38995-2.0906-3.8129-10.377-14.807-18.631-20.635-20.386-0.21664-0.06499-0.44411 0.02166-0.56326 0.20581"/>
   <path d="m47.412 16.714c-0.38995 0.06499 1.354 6.7917 3.6395 9.6946 0.45494 0.58493 3.5529 2.4155 3.4337 2.3289-1.9389-1.549-4.9286-6.5425-5.9684-11.027 8.4381-0.3033 22.639 6.9108 27.232 15.945 0.63909 1.2348 1.0615 0.59576 0.56326-0.69325-4.2245-10.864-22.011-17.407-28.9-16.248"/>
   <path d="m21.511 14.048c-0.56326 0.0325-0.56326 0.14082-0.45494 0.60659 3.3254 13.908 15.826 20.689 19.227 22.476 1.9498 1.0182 2.8488 0.58493 0.97488-0.40078-2.5455-1.3323-15.241-8.5573-18.62-21.328 11.439-0.40078 25.336 7.9507 31.684 14.157 1.2565 1.224 1.4732 0.41162 0.2708-0.86656-6.5967-6.9866-21.22-15.403-33.081-14.645"/>
   <path d="m26.514 33.781c-0.53077 0.2383 3.5854 10.518 12.251 14.049 0.24914 0.10832 1.289-0.51994 1.094-0.59576-4.3111-1.744-10.42-7.6366-12.197-12.847 2.2747-0.61742 5.9576-0.32496 8.5464 0.21664 0.2708 0.05416-0.31413-1.2024-0.5741-1.2565-2.9246-0.61742-6.7808-0.62826-9.1205 0.43328"/>
   <path d="m60.79 56.535c1.7981 1.8414 2.8055 3.7695 2.8055 5.3402 0 0.06499-0.0108 0.12998-0.0108 0.19498-0.25997 0.64992-2.0039 1.4298-4.8094 1.614-7.7665 0.5091-18.967-3.2821-25.379-15.511 13.529-0.61742 23.007 3.867 27.394 8.3623m-28.629-9.088c-0.48744 1.3757 9.2938 18.664 26.43 17.537 3.098-0.20581 5.5351-1.3973 5.9576-2.6213 0.36829-1.094-0.41162-4.2786-3.0546-6.9758-9.8246-10.074-29.084-8.6548-29.333-7.9399"/>
   <path d="m57.032 63.926c-4.7336 0.18414-11.233 1.1157-16.833 4.8852-0.41162 0.28163-0.35746 0.42245-0.0975 0.72574 4.9394 5.9034 13.724 10.095 21.891 11.699 0.5741 0.10832 2.2097-0.53077 1.9714-0.58493-7.1816-1.3323-18.133-6.2826-22.715-11.319 5.5568-3.4229 16.54-4.4628 19.552-4.8961 0.25997-0.0325-2.8055-0.5416-3.7695-0.5091"/>
   <path d="m66.115 80.546c-5.9251-0.18414-10.355 1.6031-13.063 3.2388-0.45494 0.28163-0.45494 0.42245-0.0758 0.79074 7.5066 7.3116 16.4 9.5105 23.43 8.1132 0.2383-0.0433 1.0399-1.2673 0.76907-1.2348-6.4775 0.76907-15.826-0.75824-22.985-7.1491 2.7405-1.4298 7.8965-2.8705 12.923-2.9463 1.7656-0.0325 0.76907-0.75824-0.99654-0.8124"/>
   <path d="m87.024 87.604c3.2604-0.62826 6.3475-0.17331 8.5789 1.2132-2.3505 6.9325-10.854 12.879-24.914 11.103 6.2609-9.1422 12.89-11.644 16.335-12.316m-17.624 12.435c-0.32496 0.5091-0.20581 0.68242 0.34662 0.76907 15.652 2.2856 24.48-4.0295 26.928-12.067 0.065-0.20581-0.0108-0.43328-0.19498-0.55243-6.0551-4.1812-17.526-2.838-27.08 11.85"/>
   <path d="m86.666 107.22c0.0867-3.0221 1.484-7.0625 3.4879-10.095 0.0542-0.0867-1.4082 0.14082-1.5273 0.32496-2.0256 3.3038-3.0438 7.2791-2.968 10.366 0.0108 0.37912 0.15165 0.51994 0.55243 0.48744 2.6647-0.2708 5.1669-0.82323 7.4957-1.5598-0.21664-0.34662-0.45494-0.69325-0.68242-1.0507-2.0472 0.71491-4.192 1.2673-6.3584 1.5273"/>
   <path d="m108.2 96.297c-1.5706 1.679-4.257 3.8562-7.5932 5.8384 0.71491 0.15165 1.4948 0.18414 2.2747 0.29246 2.6863-1.7223 4.8311-3.5637 6.3367-5.1777 0.18414-0.20581-0.83406-1.1482-1.0182-0.95322"/>
   <path d="m216.79 176.59c1.8848-7.1491-4.1812-11.872-4.2245-10.442-0.17331 4.9286-3.3038 9.7488-9.1639 11.135-0.2708 0.065 1.9931 0.74741 2.5672 0.49827 3.3471-1.4082 7.0733-5.221 7.5824-10.03 2.9788 2.4914 2.9355 5.8926 2.0798 9.2722-0.0108 0.0433 1.1049-0.20581 1.159-0.43328"/>
   <path d="m220.64 162.5c3.0871 6.0442-1.3432 12.283-5.3943 14.656-1.2024 0.70408-0.45495 1.0615 0.73657 0.35745 5.221-3.0546 7.9182-8.9797 6.2826-14.017 8.0807 5.8384 8.254 16.27 0.40078 22.119-0.31413 0.23831-0.5091 0.61743 0.11915 0.86656 1.3865 0.53077 4.9394 0.46578 7.8315-1.224-0.95322 5.026-5.416 8.7956-8.384 9.8138-0.2058 0.0758 0.28163 1.0832 0.5416 1.0074 8.0048-2.318 10.399-13.887 8.2215-12.208-2.3072 1.7873-4.5494 1.7223-6.1851 1.5382 7.1599-6.0876 7.3224-17.158-3.3471-23.657-1.0832-0.66075-1.1157 0.17331-0.82323 0.74741"/>
   <path d="m110.4 169.27c-2.4589 2.8488-6.1526 9.9221-7.7449 14.991-0.28163 0.92072-0.25997 5.3618-0.21664 5.091 0.71491-4.0512 5.286-14.818 8.0807-18.631 3.0221 13.367 8.2323 30.102 15.847 33.536 0.24914 0.11915 0.96405-0.85573 0.71491-0.96405-6.8891-3.1088-13.367-22.39-15.826-33.807-0.14082-0.68242-0.37912-0.76907-0.85573-0.21664"/>
   <path d="m112.36 160.74c-2.0797 1.2673-6.4667 6.0118-7.734 9.1964-0.10832 0.24914-0.89906 4.5386-0.80157 4.2895 1.6031-4.2895 6.3584-10.518 8.4814-12.208 1.4298 5.9576 8.6548 31.521 16.551 37.858 0.25997 0.21664 1.2457-0.80157 1.0074-0.99654-7.4199-6.0226-15.36-31.239-16.768-37.825-0.10832-0.50911-0.25997-0.60659-0.73658-0.31413"/>
   <path d="m159.16 123.13c-4.127 4.7661-11.666 4.4844-15.403 1.1265-0.20581-0.18415-0.92072 1.0182-0.71492 1.2024 4.1162 3.7045 11.471 3.1738 15.782-0.67159-0.95322 4.1053-5.2427 9.478-9.8463 10.713-0.75824 0.2058-0.74741 0.70408-0.0217 0.95321 2.708 0.92072 5.6868 0.8124 7.8424 0.21664-3.6612 4.9936-10.594 5.3727-13.583 5.2644-0.2708-0.0108 0.19497 1.224 0.46577 1.224 3.4121 0.12998 11.222-0.5416 14.829-7.2358 0.43328-0.80156 0.31413-1.1698-0.66075-0.67158-1.549 0.76907-3.8887 1.094-6.5967 0.56326 4.9502-2.2097 8.6114-8.1782 8.7739-12.338v-0.0217c0-0.8449-0.62826-0.59576-0.86656-0.32496"/>
   <path d="m150.62 146.14h-0.0433 0.0433m-7.2466-2.7188c1.4082 1.1482 3.5962 2.1447 5.416 2.5455-1.7114 0.59576-3.867 0.69325-5.286 0.31413-0.2708-0.065-0.3033 1.1807-0.0433 1.2457 4.7986 1.1698 9.2397-2.578 7.0625-2.3722-1.6248 0.15165-5.2968-1.224-6.9758-2.903-0.19498-0.19497-0.36829 1.0182-0.17331 1.1699"/>
   <path d="m92.577 100.7c-1.5056 0.0975-1.9389 0.40078-1.5923 1.8523 1.0074 4.2895 7.1383 12.381 8.2215 13.031 1.6031 0.97488 4.5061 1.7764 6.7267 2.1231 0.2708 0.0433 0.42245-0.93155 0.15165-0.97488-2.383-0.37912-4.7011-1.2998-5.9359-2.0472-0.88822-0.53077-7.2466-8.2865-8.1998-12.359-0.11915-0.5091 0.11915-0.59576 0.66075-0.63909 7.8424-0.065 16.432 3.1088 17.678 3.7912 0.80157 0.44411 3.4662 4.5711 4.3111 6.9108 0.0867 0.25997 1.0182-0.0758 0.93155-0.33579-0.83406-2.318-3.4229-7.0191-4.6036-7.6691-1.7548-0.96405-10.735-3.7479-18.349-3.6829"/>
   <path d="m97.245 104.84c-0.96405 0.5741 2.8596 8.2865 3.9537 9.0772 0.53077 0.38995 4.4411 1.4948 7.0083 1.7548 0.29246 0.0325 1.1049-0.93155 0.83406-0.93155-2.3505-0.0542-6.5642-1.3865-6.9866-1.6573-1.1265-0.8124-3.5746-5.6001-3.9753-7.3766 1.8198 0.0433 8.6873 1.1915 10.225 2.1447 0.38995 0.34662 2.9896 4.5711 3.4446 5.8384 0.0867 0.24914 1.0182-0.0758 0.93155-0.33579-0.38995-1.094-2.8813-6.0443-3.5312-6.445-1.6681-1.0399-10.973-2.6213-11.904-2.0689"/>
  </g>
 </g>
</svg>
