<?xml version="1.0" encoding="UTF-8"?>
<!-- Created with Inkscape (http://www.inkscape.org/) -->
<svg version="1.1" viewBox="0 0 284.76 233.37" xmlns="http://www.w3.org/2000/svg">
 <g transform="translate(8.3556 -35.223)" stroke-width="2.0588">
  <path d="m235.21 125.89c23.194-15 41.935-33.549 39.509-37.189-1.5006-2.248-39.707 8.817-74.31 29.477-28.147 16.809-52.739 38.888-54.658 55.681 1.2297 5.7316 15.353 14.534 25.794 18.833-3.8328 4.1797-12.999 11.652-22.57 18.457 1.9358 1.5663 3.8246 4.6414 4.5307 7.8132 21.005-9.049 44.798-21.971 58.979-31.186 23.091-14.996 39.098-33.099 37.257-35.618-0.92589-1.2728-17.119 2.6502-24.505 5.2389 17.815-10.311 44.745-36.932 43.339-40.448-0.68161-1.7058-22.873 4.3891-33.368 8.9403" fill="#525557"/>
  <g fill="#38383a">
   <path d="m221.6 157.64c-2.9665 2.3731-2.1906 3.2989 4.0483-0.37739-0.13545 0.0467-0.27544 0.0941-0.40617 0.13931 17.815-10.311 44.745-36.93 43.339-40.446-0.0699-0.18441-0.4085-0.27312-0.9423-0.2879-8.6733 11.761-32.139 31.839-46.038 40.971"/>
   <path d="m152.64 216.27c0.27079 0.69563 0.71664 1.9604 0.87864 2.6832 21.005-9.049 44.796-21.971 58.979-31.186 23.089-14.998 39.098-33.098 37.257-35.618-0.11051-0.1541-0.44976-0.22955-0.96282-0.242-12.921 19.568-55.955 46.309-96.152 64.363"/>
   <path d="m274.72 88.692c-0.0545-0.08009-0.16652-0.1377-0.30969-0.18518-8.3654 10.513-30.381 27.492-49.741 40.868-2.917 2.0179-6.2961 4.6066-4.5513 5.4482 7.4724-4.1879 13.023-7.4129 15.649-9.1783-0.18519 0.0779-0.37583 0.15796-0.55634 0.23654 23.194-15 41.935-33.549 39.509-37.189"/>
  </g>
  <g fill="#0f141b">
   <path d="m129.01 224.75c12.485-5.945 33.813-21.973 41.863-29.864 2.2252-2.1803 2.0692-2.6811-0.99768-4.0484-10.429-4.6538-21.835-12.34-23.06-17.037 1.8332-14.709 23.044-36.16 54.135-54.726 32.872-19.625 68.639-30.243 72.939-29.619 0.18287 4.311-23.787 27.742-51.366 42.847-4.2166 2.3054-3.685 3.9907 0.92167 1.8394 23.7-11.073 56.432-40.545 52.661-46.211-2.5271-3.7854-42.268 8.542-76.305 28.864-54.05 32.275-56.21 56.389-55.885 57.88 1.0552 4.9247 15.507 14.432 25.833 18.385-7.6018 7.6203-29.117 23.842-41.636 29.802z"/>
   <path d="m237.64 123.79c11.974-4.6415 31.178-10.326 32.324-7.4663 2.0651 5.165-29.735 35.314-46.929 43.195-3.496 1.6033-3.925 0.0839-0.92176-1.4329 16.612-8.3756 43.884-35.336 45.412-40.413-4.2619-0.11277-27.754 6.4274-35.264 10.814z"/>
   <path d="m227.94 155.48c7.8296-2.3977 21.749-6.1936 23.142-4.2864 2.8884 3.9559-17.027 24.45-37.768 37.922-18.956 12.315-58.382 32.557-82.624 39.388l-0.56646-2.0098c24.044-6.7745 62.954-27.342 81.802-39.584 22.479-14.602 36.325-30.717 36.911-33.959-3.1081-0.20153-19.523 3.7713-25.203 6.1812z"/>
   <path d="m149.65 210.61c2.4573 1.5354 4.1961 4.7071 4.7091 8.2914l-1.751 0.82323c-0.59526-3.3585-2.7509-6.7006-4.617-8.0164z"/>
  </g>
  <path d="m156.81 245.92-14.74 6.7539c6.3455 7.5729 14.752 10.336 17.4 8.3942 2.139-1.5684 2.4574-7.7784-2.6605-15.148" fill="#fff"/>
  <path d="m104.41 254.5c2.8988 6.5876 1.4514 11.944-1.0244 12.896-3.1716 1.2215-12.136-4.2185-15.556-12.282-1.2256-2.6544 15.454-3.4797 16.581-0.61394" fill="#fff"/>
  <path d="m155.38 246.33c20.208 11.141 49.206 8.2238 55.885-8.8028 5.9512-15.171-5.7316-31.32-23.952-38.484l-189.97-16.173c10.644 47.493 51.586 85.977 88.637 70.829z" fill="#fccf00"/>
  <path d="m107.22 233.57c40.633-2.6235 77.537-13.849 89.442-29.697-3.0648-2.1102-5.6515-3.379-9.3487-4.8323l-189.97-16.173c0.17453 0.77578 0.35715 1.5499 0.5481 2.3219 19.714 33.059 62.812 51.384 109.33 48.381" fill="#dab300"/>
  <path d="m124.7 203.9c14.711 6.604 40.757 6.5978 57.598-1.279 4.7071 0.61393 7.3697 0.10282 7.5751-0.20542 0.2809-0.42483-1.7408-4.6046-3.1738-6.2428 2.7633-2.9685 5.8343-7.0619 5.5263-7.7784-0.59916-1.398-5.7727-1.0346-8.3921-1.5355 0.81911-1.6177 2.722-6.0807 2.0467-6.8585-0.93816-1.0799-8.3532 1.8886-11.258 3.2762-11.874-5.5283-37.856-4.9679-56.5 1.2276z" fill="#fff"/>
  <path d="m157.84 236.9c-4.1303-15.146-20.063-38.896-37.871-53.019l-65.602 1.3138c-11.354-4.4117-30.467-10.437-40.181-11.295-2.445-3.4694-6.2324-6.7539-6.91-6.7539-1.4596 0-1.8414 2.9172-2.3033 5.5263-2.4553-1.3057-6.2201-2.9273-7.2917-2.4552-0.48858 0.2132-1.0388 3.6397-0.15197 7.8502-2.3896 0.41085-4.935 0.94642-4.8387 1.8208 0.15399 1.3816 7.0619 7.5997 9.979 8.1376 11.492 14.409 37.206 23.797 52.663 23.184l0.01447-0.0545c4.4197 15.789 12.104 27.309 18.562 34.752 7.7928 8.9792 21.341 12.434 30.093 9.008 7.0926-2.7754 23.373-0.81492 32.345 0 13.51 1.2276 25.106-4.7668 21.493-18.014" fill="#fff"/>
  <g fill="#dbdcdc">
   <path d="m104.41 254.5c-1.127-2.8658-17.806-2.0405-16.581 0.61392 1.3015 3.069 3.4058 5.7521 5.6885 7.8378 3.7589-1.6196 8.7513-2.3752 12.488-1.3569 0.0161-2.0364-0.43731-4.465-1.5951-7.0946"/>
   <path d="m160.91 256.34c-0.15169-2.7591-1.318-6.4132-4.0996-10.416l-14.738 6.754c2.3793 2.841 5.0481 5.0048 7.5955 6.4974 2.7612-2.7406 7.2896-3.6909 11.242-2.8349"/>
   <path d="m96.219 202.11c16.556-0.93607 32.248-8.8396 42.711-21.959-6.524 0.70809-13.046 1.9647-18.938 3.7609-8e-3 -7e-3 -0.0161-0.0161-0.0234-0.0233l-65.602 1.3138c-3.0033-1.166-6.5548-2.445-10.326-3.7135 9.6977 15.713 25.66 22.119 52.181 20.618"/>
   <path d="m96.219 202.11c11.404-0.64428 22.391-4.6129 31.554-11.293-2.5415-2.4759-5.1485-4.8181-7.8091-6.9265l-65.602 1.3138c-3.0033-1.166-6.5548-2.445-10.326-3.7135 9.6977 15.713 25.66 22.119 52.181 20.618"/>
   <path d="m157.44 235.62c-2.4449 3.6276-5.7849 6.2982-9.8394 8.0349-12.896 5.5284-28.044 0.20308-38.28 1.2276-5.5037 0.55245-12.896 4.5041-22.722 3.4817-4.3623-0.45362-11.841-3.689-17.343-8.3264 1.5786 2.174 3.149 4.1364 4.6517 5.8691 7.7907 8.9771 21.339 12.432 30.091 9.006 7.0925-2.7757 23.373-0.81296 32.345 0 13.51 1.2296 25.106-4.7648 21.493-18.014-0.11276-0.4124-0.26689-0.85396-0.39606-1.2789"/>
  </g>
  <path d="m94.786 37.717c-16.281-6.8134-54.452 30.912-40.123 66.734l32.139-7.7784c15.148-12.896 22.055-53.068 7.9836-58.956" fill="#525557"/>
  <path d="m134.3 150.37c0-17.406-9.2257-39.052-28.89-48.212-4.8652 3.2332-13.687 11.416-17.987 15.717-2.1493-3.3769-3.839-12.742-3.9927-15.813-3.6849 1.9954-13.664 8.5973-18.425 13.972 0.15395-4.3008 0.61586-11.209 1.9974-12.898-11.309 1.8496-24.728 11.978-33.282 21.438-4.6414 8.0102-7.304 16.897-7.304 25.85 0 21.959 15.978 37.984 38.077 44.444 3.8593 0.40228 7.8234 0.64428 11.874 0.69407 40.053 0.48865 57.931-18.297 57.931-45.192" fill="#fff"/>
  <g>
   <path d="m54.469 103.95c0.06531 0.17197 0.12515 0.34313 0.19297 0.5151l32.139-7.7784c3.5596-3.0321 6.6553-7.5772 9.1414-12.82-9.9442 1.1907-30.251 8.0143-41.473 20.083" fill="#38383a"/>
   <path d="m87.116 93.2c-22.762 0-43.032 13.489-53.4 31.367 8.5543-9.4616 21.969-19.59 33.28-21.438-1.3816 1.6874-1.8414 8.5973-1.9954 12.896 4.7606-5.3744 14.74-11.976 18.425-13.972 0.15394 3.071 1.8414 12.436 3.9907 15.813 4.3028-4.3008 13.124-12.483 17.989-15.717 19.662 9.1618 28.888 30.807 28.89 48.212 0 26.895-17.88 45.679-57.931 45.194-4.0504-0.0467-8.0143-0.29181-11.874-0.69564 7.029 2.055 14.674 3.1512 22.626 3.1512 33.934 0 58.641-20.935 58.641-47.594 0-28.565-22.864-57.217-58.641-57.217" fill="#525557"/>
   <path d="m179.13 60.24c-12.301-17.743-68.285-4.3726-81.183 33.891 2.9047 5.5315 16.576 10.065 20.754 7.8706 13.617-27.307 47.52-41.251 58.176-33.982 2.4901 1.6978 3.0958 5.5284 2.4552 9.8906 2.5558-6.9777 2.7262-13.446-0.2031-17.671" fill="#525557"/>
   <path d="m176.87 68.022c-10.656-7.2672-44.56 6.6738-58.176 33.982 4.9924 3.1142 9.3835 6.9244 13.089 11.242 23.06-0.51356 41.655-19.281 47.541-35.332 0.64272-4.3623 0.0389-8.193-2.4532-9.8906" fill="#fccf00"/>
   <path d="m118.7 101.99c2.326 1.4513 4.5142 3.0589 6.5692 4.7954 24.501-1.827 36.59-24.359 28.674-31.81-1.437-1.3529-3.0136-2.5148-5.8343-2.525-11.264 6.0416-22.753 16.197-29.409 29.539" fill="#fff"/>
   <path d="m176.87 68.022c-9.3774-6.3947-36.753 3.6398-52.467 24.75 20.855-14.85 40.3-13.84 49.241-4.0442 2.4532-3.5864 4.3787-7.2672 5.6782-10.814 0.64272-4.3623 0.0389-8.193-2.4532-9.8906" fill="#dab300"/>
   <path d="m148.11 72.448c-8.505 4.5614-17.135 11.471-23.719 20.323 11.611-8.2711 22.78-11.627 31.954-11.285 0.0622-2.6278-0.70418-4.9188-2.3999-6.5139-1.439-1.3548-3.0156-2.5147-5.8343-2.525" fill="#dbdcdc"/>
   <path d="m44.231 156.12c2.3855 7.1974 0.98948 14.134-3.1143 15.493-4.1037 1.3611-9.3673-3.3708-11.751-10.568-2.2745-6.8608-0.10263-14.428 3.1143-15.493 4.1037-1.361 9.3652 3.3708 11.751 10.568" fill="#fccf00"/>
   <path d="m125.63 169.46c-4.7339 7.6653-12.586 11.399-17.538 8.3408-4.9515-3.0589-5.1302-11.753-0.39371-19.416 5.2347-8.4762 12.98-11.155 17.538-8.3408 4.4362 2.7386 5.8999 10.503 0.3945 19.416" fill="#fccf00"/>
   <path d="m60.717 174.34c3.3195 3.6028 7.4724 5.9185 11.857 6.2713 7.4765 0.60147 13.693-3.8964 17.593-10.872-8.4271-7.8296-24.693-7.2978-29.45 4.6005" fill="#ed8599"/>
   <path d="m90.169 169.74c-5.011-4.6559-12.779-6.3249-19.264-4.4382 5.7316 1.1188 10.695 4.2433 14.935 10.197 1.6484-1.6218 3.104-3.5658 4.3296-5.7583" fill="#ce7486"/>
   <path d="m53.436 151.96c-0.74106 8.8335 2.3505 17.031 7.2836 22.387 4.7586-11.896 21.022-12.43 29.45-4.6005 2.0816-3.7177 3.5042-8.1418 4.1058-12.874-3.0546-5.7029-35.896-8.4783-40.839-4.9126" fill="#923000"/>
  </g>
  <g fill="#0f141b">
   <path d="m119.28 100.74c17.443 10.671 28.116 29.646 28.116 49.573 0 27.729-26.463 48.926-60.492 48.926-35.281 0-62.026-20.972-62.026-48.926 0-30.492 29.811-58.444 62.129-58.444 3.7998 0 7.4745 0.31826 11.008 0.92588l-0.46602 2.2848c-3.3278-0.54778-6.8072-0.83756-10.433-0.83756-31.225 0-59.658 26.774-59.658 56.173 0 26.972 25.09 46.548 59.658 46.548 32.835 0 57.598-20.011 57.598-46.548 0-18.334-9.4946-37.082-26.428-47.615z"/>
   <path d="m30.4 130.24c7.1768-9.786 22.033-22.617 34.842-25.691-0.56452 1.9584-0.96074 5.0131-1.1845 9.1332-0.22168 4.1099 0.26689 4.3295 3.3934 1.2994 4.4753-4.3337 11.391-9.0101 15.082-11.215 0.41466 3.4159 1.5704 9.2174 3.071 12.818 1.2851 3.0834 1.4186 3.0978 4.157 0.43731 4.6252-4.498 11.549-10.765 15.735-13.674 19.164 9.2378 27.75 30.202 27.75 47.014 0 23.35-14.822 44.673-56.875 44.15-6.3187-0.0779-12.356-0.57659-17.946-1.4884l11.486 3.2497c2.0426 0.11903 4.1202 0.19064 6.2304 0.21787 28.223 0.32681 59.195-9.3302 59.195-46.128 0-17.164-8.6467-38.507-27.904-48.381-1.9523-1.0018-2.1862-1.0367-3.7341 0.0847-4.5307 3.2804-11.56 9.6936-16.018 14.068-1.4904-3.3278-2.7159-9.554-3.0999-12.847-0.29562-2.5374-0.59121-2.835-3.3216-1.1907-3.7875 2.289-10.552 6.8895-15.086 11.221 0.28532-4.8201 0.79857-7.6285 1.2953-8.893 0.87863-2.2356 0.42086-2.5845-1.8989-2.0898-10.416 2.2108-22.245 10.821-30.577 19.377z"/>
   <path d="m32.807 146.54c-2.1699 0.71663-4.8119 7.0516-2.4511 14.173 2.3978 7.2384 7.2281 10.968 10.431 9.9051 3.4918-1.1558 4.6149-7.647 2.4511-14.173-2.1885-6.6062-7.3903-10.915-10.431-9.9051m-4.2453 14.629c-2.1411-6.4604-0.06145-15.403 3.5884-16.612 3.1019-1.0284 9.8927 2.3423 12.89 11.391 2.6523 7.9999 0.3244 15.15-3.685 16.48-4.695 1.552-10.757-5.1137-12.793-11.26"/>
   <path d="m108.58 158.94c-4.4238 7.1624-4.3993 15.226 0.0545 17.977 3.763 2.3239 11.042 0.19297 16.103-8.0001 4.619-7.4765 4.1776-15.366-0.0545-17.977-3.1676-1.9584-10.769-0.63416-16.101 7.9999m-0.89918 19.63c-4.3316-2.6749-6.2489-11.654-0.61392-20.777 6.3166-10.223 15.119-10.624 18.73-8.3921 4.7872 2.9541 5.9841 11.775 0.61393 20.471-5.707 9.2378-14.66 11.213-18.73 8.698"/>
   <path d="m68.24 139.75c-1.0716 0-2.1452-0.39374-2.1452-1.0901 0-0.59759 1.0511-1.0018 2.1145-1.0058 1.0818-7e-3 2.174 0.39371 2.174 1.1167 0 0.5867-1.0716 0.97918-2.1432 0.97918"/>
   <path d="m54.436 152.57c-0.92584 13.986 8.2525 26.189 18.223 26.99 10.199 0.81702 18.64-8.618 20.531-22.463-3.5719-4.6231-32.073-7.6818-38.754-4.5286m18.088 29.31c-12.533-1.0059-21.01-16.047-20.18-29.323 0.08011-1.3159 0.18271-1.63 2.2068-2.2253 7.8173-2.2889 32.318 0.031 39.118 4.5246 1.5889 1.051 1.7593 1.5068 1.474 3.3277-2.2335 14.321-11.447 24.598-22.619 23.696"/>
   <path d="m39.062 180.96c-9.2195-2.9192-18.968-5.4833-24.971-6.0128-0.30586-0.0312-0.58506-0.18675-0.7616-0.43964-2.1617-3.0689-5.7213-6.3063-6.1196-6.2674-0.83346 0.0801-1.01 5.0007-1.7798 5.3785-0.6056 0.29336-5.7418-2.8782-7.0946-2.4388-0.31412 0.10282-0.46803 3.7259 0.28533 7.0228l-2.0385 0.46608c-0.90325-3.9683-0.19912-9.0202 0.67742-9.4042 0.82936-0.36338 4.5286 0.66529 6.9264 1.8414 0.55012-3.0752 1.6259-4.9988 3.0875-4.9988 0.7308 0 4.8016 3.1882 7.4786 6.8052 6.2221 0.63415 13.789 2.3648 21.226 4.5491z"/>
   <path d="m55.369 212.26c-14.7 0.60149-39.851-6.7642-53.299-23.301-3.3996-1.0367-10.273-7.61-10.422-8.9483-0.11291-1.0305 2.7816-2.9129 7.1296-3.0321 3.2701-0.0902 3.3133 1.0859 0.10061 1.6874-1.9461 0.36727-4.4485 1.0901-5.0172 1.3692 1.0141 1.5479 6.678 6.5425 8.9957 6.9695 0.24635 0.0467 0.47013 0.18051 0.62615 0.37584 10.995 13.787 36.415 23.404 51.804 22.79z"/>
   <path d="m134.73 179.42c15.359-2.3075 30.949-1.242 39.886 2.6974 3.8307-1.786 11.09-3.9273 12.056-2.8105 0.61392 0.7081-0.3836 4.7566-1.2666 6.6924 3.7671 0.33225 7.1789 0.56256 7.7845 1.9749 0.47621 1.1106-2.7447 5.6228-5.1362 8.2627 1.2009 1.7449 3.4529 5.6023 2.6912 6.7478-0.82729 1.2503-5.6085 1.0223-8.2751 0.70185-17.363 8.2402-40.72 7.996-55.543 1.8948-3.4612-1.4247-2.8042-2.8761 0.51356-1.6382 15.193 5.6515 39.419 4.738 54.417-2.2766 0.18052-0.0864 0.37971-0.11679 0.57891-0.0886 3.0937 0.39995 5.2265 0.28945 6.2386 0.13142-0.47621-1.2338-1.7634-3.7197-2.7591-4.857-0.35325-0.40227-0.34469-1.008 0.0234-1.4 2.5887-2.7796 4.6992-5.705 5.1774-6.7457-2.2601-0.9668-7.5176 0.0161-8.2157-1.3958-0.49254-1.008 1.7326-3.6458 2.0754-6.5198-1.5602 0.031-6.5322 1.8127-9.8989 3.4199-0.27934 0.13142-0.61004 0.13543-0.89094 1e-3 -9.203-4.2823-26.918-4.8426-43.053-1.9092z"/>
   <path d="m86.379 254.67c-37.98 15.819-78.218-21.576-89.749-70.244l2.6195 1.8742c11.513 44.282 49.696 79.608 84.491 67.144z"/>
   <path d="m157.73 244.99c5.2183 7.5154 5.2575 14.787 2.3567 16.912-3.4017 2.4942-11.933-0.99979-17.607-6.8811l2.7077-0.54778c5.7707 5.518 11.966 6.9942 13.666 5.746 1.4822-1.088 1.903-6.0949-2.1145-12.518z"/>
   <path d="m144.58 208.72c7.2384 10.071 12.512 20.188 14.584 27.783 3.6438 13.362-6.4995 20.966-22.92 19.465-8.9648-0.81087-25.071-2.7303-31.867-0.07-10.642 4.1612-23.54 0.22799-31.6-9.0593-7.3205-8.4332-16.411-22.708-20.061-42.987-0.72674-4.0298 1.1086-4.2268 1.9009-0.19298 3.8449 19.599 12.937 33.354 20.075 41.574 7.1562 8.2484 20.132 12.157 28.921 8.7186 8.1376-3.182 25.354-0.7431 32.818-0.0622 15.082 1.3734 23.276-6.132 20.393-16.7-2.0836-7.6429-7.6592-18.314-15.281-28.787z"/>
   <path d="m55.165 102.86c-12.843-35.044 24.184-70.461 39.217-64.165 12.352 5.167 7.1009 40.547-5.9491 54.948l2.6873 0.06222c12.432-14.493 19.211-51.304 4.3829-57.505-18.476-7.7436-55.553 32.203-42.151 67.776z"/>
   <path d="m132.25 114.3c33.208-1.0285 58.722-39.522 48.002-54.981-14.733-21.244-76.357-0.29958-83.614 35.419-0.62403 3.0692 0.91148 3.5699 1.9359 0.40695 12.26-37.924 67.984-51.205 79.692-34.309 8.854 12.765-14.155 51.415-47.555 51.397z"/>
   <path d="m180.52 73.189c-0.27934-2.6317-1.2153-5.1547-3.0342-6.3947-14.579-9.9421-51.191 13.379-59.776 34.902-1.1783 2.9541 0.39994 3.5021 1.7409 0.81911 12.935-25.92 46.491-40.683 56.832-33.632 2.7344 1.864 2.7733 7.1194 1.1968 12.576z"/>
   <path d="m126.03 107.8c25.561-2.2192 37.951-25.642 28.946-33.626-1.591-1.4124-3.5843-2.6565-6.526-2.7427l-4.0607 2.6379c5.5099-1.4597 7.3164 0.24044 8.8479 1.6813 7.062 6.6472-4.7338 28.903-29.117 30.082z"/>
   <path d="m88.787 254.73c3.2394 7.6325 11.744 12.672 14.22 11.716 1.7634-0.6754 3.0362-5.6105 0.44351-11.5l2.0816-0.83351c3.5719 8.1171 0.73686 13.315-1.7737 14.284-3.6911 1.4123-14.501-4.7831-17.673-14.079z"/>
   <path d="m90.871 169.15c-8.5214-8.3676-25.487-8.2916-30.861 4.6826l1.3734 1.6916c4.0749-12.036 20.488-12.549 28.456-4.662z"/>
   <path d="m157.99 246.52c21.662 10.708 46.804 4.6703 52.307-9.3673 5.2265-13.325-3.9538-28.666-21.452-36.337l-1.1168-2.9951c20.682 8.1335 30.857 25.123 24.973 40.123-7.029 17.917-35.398 20.508-55.475 10.646z"/>
   <path d="m107.34 121.71c-6.0149-1.3692-10.8 5.126-12.297 11.603-1.7203 7.4252 0.76776 13.68 5.7604 14.885 5.5366 1.3385 10.89-3.3604 12.469-10.303 1.5745-6.9079-0.11276-14.859-5.9327-16.185"/>
   <path d="m43.037 129.1c-1.9954 7.0578 0.20526 13.303 4.5163 14.46 4.1016 1.0963 9.357-3.576 11.164-10.316 1.8106-6.7415 0.7801-13.321-3.9724-14.614-3.96-1.0798-9.8579 3.9333-11.707 10.47"/>
  </g>
  <path d="m54.409 120.15c-1.9605-0.59914-4.3007 0.72831-5.0684 3.2229-0.74931 2.4511 0.28534 5.0296 2.3361 5.67 2.0488 0.64272 4.3275-0.82938 5.0787-3.2846 0.75337-2.4531-0.13545-4.9288-2.3464-5.6084" fill="#fff"/>
  <path d="m106.5 123.05c-2.5065-0.53766-4.8981 1.4329-5.4031 3.9477-0.505 2.5188 0.74931 5.1116 3.2579 5.6555 2.5168 0.54625 4.89-1.4431 5.395-3.9579 0.50733-2.5148-0.81912-5.124-3.2498-5.6453" fill="#fff"/>
 </g>
</svg>
