<?xml version="1.0" encoding="UTF-8"?>
<!-- Created with Inkscape (http://www.inkscape.org/) -->
<svg version="1.1" viewBox="0 0 142.93 162.05" xmlns="http://www.w3.org/2000/svg">
 <g transform="translate(-9.514 -17.418)">
  <g transform="matrix(1.0453 0 0 -1.0453 73.351 73.081)">
   <path d="m0 0c-4.483 0.243-10.093-1.473-10.223-3.972-0.34-6.575 16.586-13.494 23.726-13.447-3.06 1.39-5.303 3.156-4.636 5.423 0.696 2.365 4.96 3.338 8.066 2.874 4.722-0.704 7.294-3.318 7-5.377-0.279-1.947-1.762-2.828-3.106-3.384 5.284-0.278 10.848 2.04 11.079 5.378 0.171 2.456-3.883 5.543-6.212 5.98-1.622-0.325-3.383-0.511-4.867-0.418l-0.278-1.344c-3.477-0.278-11.875 1.496-16.735 4.589-0.51 0.324-0.927 0.696-0.927 1.437-1.205 0.742-1.974 1.416-2.887 2.261" fill="#dbdcdc"/>
  </g>
  <g transform="matrix(1.0453 0 0 -1.0453 70.796 86.54)">
   <path d="m0 0c-4.821 0.232-11.774-2.457-11.635-6.026 0.268-6.886 20.174-13.225 27.304-12.795-2.828 0.835-6.436 2.943-5.702 5.563 0.649 2.318 4.943 2.74 7.881 2.225 2.642-0.464 5.284-2.306 5.284-4.635 0-1.345-1.529-2.874-3.57-3.431 3.709-0.185 11.526 1.834 11.96 6.073 0.372 3.616-5.793 7.556-10.476 8.39l-0.695-4.125c-6.165-2.318-15.623 1.094-20.211 3.847-0.696 0.417-1.021 0.881-0.835 1.854 0.185 0.974 0.371 1.947 0.695 3.06" fill="#dbdcdc"/>
  </g>
  <g transform="matrix(1.0453 0 0 -1.0453 141.11 84.117)">
   <path d="m0 0c-0.742 10.152-11.311 20.814-16.457 22.344 1.392-3.384 2.875-9.596 2.597-14.046-1.114 0.185-2.782 0.232-3.709-0.047 1.205-0.324 6.098-7.368 5.378-8.483-0.511-0.788-5.981 1.344-7.233 2.132 3.658-11.745 19.209-23.672 28.016-26.361 1.112-0.34 1.45-0.041 1.576 0.896 1.349 10.059-2.056 17.307-10.168 23.565" fill="#dbdcdc"/>
  </g>
  <g transform="matrix(1.0453 0 0 -1.0453 45.116 135.04)">
   <path d="m0 0c-1.159 0.046-2.146-0.945-3.06-2.596-3.106-5.609-12.416-21.89-15.576-24.476-1.019-0.834-1.481-1.299-1.529-2.41-0.093-2.133 0.463-7.789 1.622-10.246 1.855 1.623 5.377 5.1 6.629 6.583-0.51-2.503-1.112-6.629-1.298-8.9 2.689 1.391 7.693 4.683 9.503 6.397 0.881 0.835 1.483 2.04 1.391 3.94-0.287 5.899 5.593 19.988 8.344 24.43 0.603 0.974 1.205 2.874 0.649 4.033-0.834-1.112-1.437-2.04-2.179-2.874-0.741-0.834-5.47-4.821-6.212-4.682-0.741 0.139-0.602 5.239-0.185 6.536 0.418 1.298 1.066 2.597 1.901 4.265" fill="#dbdcdc"/>
  </g>
  <g transform="matrix(1.0453 0 0 -1.0453 101.27 141.92)">
   <path d="m0 0c-0.186-1.143-0.433-2.411-0.556-3.183-0.124-0.773-0.423-0.945-1.02-0.494-1.143 0.865-3.988 4.414-4.512 5.563-0.154 0.339-0.061 0.772 0 1.205-0.556 0.061-1.143-0.495-1.143-1.515s-1.02-4.913-1.855-6.613c3.709-5.671 5.403-11.282 5.981-16.287 0.138-1.205 0.563-2.091 2.04-3.059 2.827-1.855 10.986-6.166 14.879-7.556 0.032 0.88-0.123 2.642-0.865 3.847 1.484-0.618 3.091-0.896 4.265-0.896-2.24 3.399-11.486 12.97-14.247 15.73-1.05 1.051-1.205 1.803-1.391 3.338-0.216 1.793-0.597 6.43-0.524 7.942 0.061 1.298-0.464 1.916-1.052 1.978" fill="#dbdcdc"/>
  </g>
  <g transform="matrix(1.0453 0 0 -1.0453 106.28 59.809)">
   <path d="m 0,0 c 1.468,1.313 3.229,3.399 4.249,4.929 11.697,2.364 19.238,12.872 19.732,22.638 1.916,1.004 3.771,2.209 5.069,3.415 C 29.395,12.733 14.074,0.281 0,0" fill="#dbdcdc"/>
  </g>
  <g transform="matrix(1.0453 0 0 -1.0453 89.907 43.628)">
   <path d="m0 0c0.121-1.999 1.672-6.116 3.066-8.114 1.31-0.62 4.325-1.068 5.91-0.655-1.964 1.447-6.753 5.548-8.976 8.769" fill="#fff"/>
  </g>
  <g transform="matrix(1.0453 0 0 -1.0453 110.72 54.657)">
   <path d="M 0,0 C 11.357,2.225 19.238,12.47 19.732,22.638 9.688,19.702 1.298,23.966 1.437,27.953 c 0.137,3.938 3.384,5.61 5.377,5.98 -4.497,3.338 -17.245,0.186 -19.562,-6.954 C 4.198,25.546 5.854,8.346 0,0" fill="#f5aa00"/>
  </g>
  <g transform="matrix(1.0453 0 0 -1.0453 87.48 28.748)">
   <path d="m0 0c2.922-8.632 16.202-19.7 23.86-21.515 3.277 7.969 0.753 16.734-5.621 20.807-5.608 3.583-12.528 3.629-18.239 0.708" fill="#b5002a"/>
  </g>
  <g transform="matrix(1.0453 0 0 -1.0453 99.369 63.427)">
   <path d="m0 0c2.781-3.987 1.082-12.918-3.986-15.576l-0.077-0.603c9.792-0.792 18.479 7.409 19.268 15.684 0.124 1.298-0.309 2.101-1.576 2.194s-5.377 0.464-7.046 0.464c-2.317-1.885-3.956-2.441-6.583-2.163" fill="#b5002a"/>
  </g>
  <g transform="matrix(1.0453 0 0 -1.0453 70.555 43.512)">
   <path d="m0 0c-3.069-0.841-4.815-12.362-3.338-17.477 1.808-6.257 7.506-14.119 10.801-13.536 4.451 0.788 8.623 11.822 6.537 18.497s-10.616 13.443-14 12.516" fill="#b5002a"/>
  </g>
  <g transform="matrix(1.0453 0 0 -1.0453 59.778 95.719)">
   <path d="m0 0c-3.699-1.622-12.886-7.046-13.632-9.324-0.911-2.787 1.723-16.367 3.193-21.891-1.571-2.483-5.05-8.978-5.49-10.672-0.438-1.693-0.498-6.125 0.186-6.536 0.464-0.278 5.099 3.43 6.212 4.682 1.112 1.252 4.079 5.44 5.469 7.448 4.698 0.247 13.705 0.935 15.484 1.916 1.345 0.742 6.026 8.483 7.231 10.709 0.87 1.606 2.643 10.94 2.643 14.092-6.768 0.696-18.442 5.523-21.296 9.576" fill="#b5002a"/>
  </g>
  <g transform="matrix(1.0453 0 0 -1.0453 89.452 98.072)">
   <path d="m0 0c-1.066-12.702-4.45-19.887-9.735-21.417 4.357-6.69 10.339-12.021 14.926-13.304 0.671-0.188 0.841-0.588 0.681-1.174-0.185-0.681-0.835-3.369-0.649-4.172 0.185-0.804 3.015-4.365 4.511-5.563 0.619-0.495 1.014-0.309 1.082 0.37 0.541 5.393 2.21 10.863 5.64 14.618 2.795 3.059 6.558 9.315 6.398 11.311-0.186 2.318-7.046 12.377-10.57 14.788-2.271-2.086-6.783-3.601-10.461-3.508 2.658 0.989 3.524 2.441 3.524 3.678 0 1.236-1.577 3.523-5.347 4.373" fill="#b5002a"/>
  </g>
  <g transform="matrix(1.0453 0 0 -1.0453 83.283 98.412)">
   <path d="m0 0c-0.217-0.989-0.866-3.585-1.051-4.852 1.174-1.082 3.213-2.132 4.542-2.565-1.483-0.031-3.214 0.093-4.681 0.417-0.325-4.651-1.623-11.203-2.612-14.262 7.201 2.302 9.24 15.189 9.704 21.587-2.287 0.417-4.357 0.2-5.902-0.325" fill="#717171"/>
  </g>
  <g transform="matrix(1.0453 0 0 -1.0453 94.507 83.504)">
   <path d="m0 0c-0.771 0.331-1.631 0.572-2.549 0.696-5.285 0.711-8.509-1.178-8.808-2.905-0.402-2.318 2.349-4.513 4.852-5.223-3.832-0.185-12.979 2.812-16.07 4.883-0.279-1.174-0.68-2.72-0.804-3.523-0.123-0.803-0.136-1.308 0.804-1.823 8.622-4.729 16.224-5.347 20.242-3.771 0.278 1.36 1.596 8.685 2.333 11.666" fill="#717171"/>
  </g>
  <g transform="matrix(1.0453 0 0 -1.0453 98.107 62.029)">
   <path d="m0 0c-1.943 2.63-6.174 5.754-10.061 6.822-0.152-0.496-0.686-1.258-1.143-1.563 2.82-4.801-0.441-14.002-3.392-16.844-1.028-0.991-2.438-2.324-3.848-1.715-0.839-0.152-1.704 0.085-2.353 0.466-0.048-0.618 0.401-1.173 1.247-1.685 4.726-2.858 12.234-4.535 16.273-4.344 0.647 2.667 2.095 7.736 2.439 9.07 0.343 1.333 0.686 4.001 0.571 5.487-0.114 1.486 0.077 3.163 0.267 4.306" fill="#717171"/>
  </g>
  <g transform="matrix(1.0453 0 0 -1.0453 113.53 69.443)">
   <path d="m0 0c-0.622-1.219-1.961-3.706-3.252-4.854 3.204-2.391 9.151-6.729 10.354-7.387 2.007-1.1 6.311-2.559 6.98-1.985 0.67 0.574-2.845 6.312-4.231 7.675-1.387 1.363-7.436 5.164-9.851 6.551" fill="#717171"/>
  </g>
  <g transform="matrix(1.0453 0 0 -1.0453 99.289 52.794)">
   <path d="m0 0c-1.121-0.224-4.389-0.224-5.9 0.775 1.592-2.836 5.859-8.507 9.721-10.452 1.135 0.46 3.916 2.134 4.672 2.998-0.809-0.162-1.338-0.092-1.803-0.032 0.426 0.329 0.966 0.87 1.453 1.437-2.053 0.918-6.266 3.769-8.143 5.274" fill="#f5aa00"/>
  </g>
  <g transform="matrix(1.0453 0 0 -1.0453 84.625 55.287)">
   <path d="m0 0c2.269 0.216 3.673-5.968 2.025-10.938-1.379-4.158-4.537-10.073-7.697-8.804 6.127 2.58 7.913 16.406 5.672 19.742" fill="#f5aa00"/>
  </g>
  <g transform="matrix(1.0453 0 0 -1.0453 98.09 61.891)">
   <path d="m0 0c-0.243-1.566-0.312-2.879-0.25-4.437 0.061-1.559-0.07-3.827-0.571-5.488-0.502-1.661-1.556-5.523-1.934-7.035 3.619 0.718 7.252 10.295 3.979 15.491-0.522 0.577-0.953 1.118-1.224 1.469" fill="#f5aa00"/>
  </g>
  <g transform="matrix(1.0453 0 0 -1.0453 89.905 43.744)">
   <path d="m0 0c3.394-4.683 12.273-11.742 17.12-13.932 1.516 1.361 3.742 4.623 4.42 6.764-8.577 2.708-20.397 12.397-23.86 21.514-6.375-3.43-9.378-9.349-9.378-14.356 0-1.39 0.278-2.364 1.947-2.341 0.788 0.011 1.808 0.116 2.642 0.302 0.278-2.272 1.462-5.827 1.97-6.722 0.672-1.182 1.407-1.564 2.48-1.785 4.327-0.888 9.704-5.339 11.713-8.274 0.927-0.248 2.967 0.031 3.894 0.463-4.234 1.545-12.145 11.62-12.948 18.367" fill="#717171"/>
  </g>
  <g transform="matrix(1.0453 0 0 -1.0453 99.359 52.895)">
   <path d="m0 0c-3.789 2.958-7.404 6.391-9.106 8.837 0.092-0.71 0.215-1.235 0.37-1.854 1.015-1.767 3.262-4.373 5.813-6.966 0.995-0.121 1.999-0.129 2.923-0.017" fill="#dbdcdc"/>
  </g>
  <g transform="matrix(1.0453 0 0 -1.0453 95.294 49.714)">
   <path d="m0 0c-0.31-0.364-1.096-0.382-1.453-0.1-0.506 0.401-0.513 1.019-0.194 1.562z" fill="#0f141b"/>
  </g>
  <g transform="matrix(1.0453 0 0 -1.0453 94.662 49.361)">
   <path d="m0 0c-0.13-0.152-0.479-0.146-0.622-7e-3 -0.154 0.151-0.151 0.401-0.046 0.599z" fill="#fff"/>
  </g>
  <g transform="matrix(1.0453 0 0 -1.0453 117.85 19.203)">
   <path d="m0 0c-9.673-0.309-10.291-8.932-1.181-12.311-2.652 1.494-4.011 3.874-4.166 5.574-0.169 1.856 0.68 5.686 5.347 6.737" fill="#d49400"/>
  </g>
  <g transform="matrix(1.0453 0 0 -1.0453 123.67 47.688)">
   <path d="m0 0c-3.124-3.14-7.329-5.718-12.308-6.566-1.289-2.034-2.984-4.005-4.447-5.03 13.475 0.371 29.111 11.187 29.174 30.75-1.381-8.913-5.834-15.348-12.419-19.154" fill="#b4b5b5"/>
  </g>
  <g transform="matrix(1.0453 0 0 -1.0453 112.4 51.488)">
   <path d="m0 0c-0.359-0.923-0.895-1.934-1.526-2.931 4.978 0.848 9.183 3.427 12.307 6.566-3.142-1.816-6.768-3.036-10.781-3.635" fill="#d49400"/>
  </g>
  <g transform="matrix(1.0453 0 0 -1.0453 82.824 47.902)">
   <path d="m0 0c1.448-0.085 5.29 0.445 7.484 1.249-0.309 0.772-0.587 1.885-0.772 2.812-2.04-1.02-5.224-1.886-7.047-2.164 0.062-0.618 0.145-1.199 0.335-1.897" fill="#595857"/>
  </g>
  <g transform="matrix(1.0453 0 0 -1.0453 90.936 55.826)">
   <path d="m0 0c2.936-1.73 6.708-5.542 7.82-7.118 0.393-0.556 3.091-0.247 4.111 0.309-0.831 0.323-2.3 1.294-2.999 1.949-1.661 1.553-6.123 4.085-8.932 4.86" fill="#595857"/>
  </g>
  <g transform="matrix(1.0453 0 0 -1.0453 106.24 59.841)">
   <path d="m0 0c0.486 0.487 0.974 0.974 1.437 1.437-2.295 1.074-5.207 3.01-8.022 5.209-0.924-0.112-1.928-0.104-2.923 0.016 3.272-3.326 7.043-6.63 9.362-8.115 0.555 0.309 1.452 0.958 1.884 1.515-0.741-0.131-1.337-0.124-1.738-0.062" fill="#d49400"/>
  </g>
  <g transform="matrix(1.0453 0 0 -1.0453 107.91 54.172)">
   <path d="m0 0c-0.497-0.484-0.917-0.718-1.762-0.278-5.069 2.641-11.311 8.066-14.397 11.93-0.598 0.749-0.954 0.92-1.897 0.274-2.75-1.885-7.456-3.443-10.539-3.55-0.162-1.345 6.575-0.542 11.304 1.683 3.214-4.666 12.145-11.62 17.214-14.03 1.88 1.75 3.388 4.14 4.389 6.806-0.709 0.205-1.391 0.434-2.043 0.684-0.633-1.456-1.405-2.675-2.269-3.519" fill="#595857"/>
  </g>
  <g transform="matrix(1.0453 0 0 -1.0453 110.96 33.743)">
   <path d="m0 0c1.92-4.975 1.274-11.599-0.65-16.025 0.652-0.25 1.334-0.479 2.044-0.684 2.049 5.447 1.981 12.047-1.394 16.709" fill="#90001b"/>
  </g>
  <g transform="matrix(1.0453 0 0 -1.0453 87.546 60.326)">
   <path d="m0 0c2.04-3.399 6.181-6.243 9.827-6.181-0.03 1.36-0.03 3.306 0.294 4.605-2.642 3.059-6.073 5.562-10.059 6.768-0.248-0.588-0.619-1.174-1.113-1.576 0.649-1.267 0.866-2.195 1.051-3.616" fill="#595857"/>
  </g>
  <g transform="matrix(1.0453 0 0 -1.0453 97.818 66.787)">
   <path d="M 0,0 C 1.175,0.108 1.777,0.201 2.611,0.433 2.334,1.777 1.546,3.492 0.294,4.605 0.062,3.585 -0.107,1.7 0,0" fill="#d49400"/>
  </g>
  <g transform="matrix(1.0453 0 0 -1.0453 96.333 75.444)">
   <path d="m0 0c1.391 0.232 2.781 1.205 3.894 3.337-0.464-2.595-2.365-6.257-4.96-7.417 0.417 1.437 0.555 2.457 1.066 4.08" fill="#d49400"/>
  </g>
  <g transform="matrix(1.0453 0 0 -1.0453 84.93 66.237)">
   <path d="m0 0c0.803 0.216 1.638 0.742 2.256 1.978-0.65-4.728-4.667-12.362-8.221-11.28 2.813 0.834 5.13 5.346 5.965 9.302" fill="#d49400"/>
  </g>
  <g transform="matrix(1.0453 0 0 -1.0453 94.115 84.629)">
   <path d="m0 0c-7.382 1.648-10.487-1.735-9.004-4.811-2.503 1.314-2.921 4.327-0.185 5.78 2.38 1.264 6.326 1.492 9.364 0.185z" fill="#595857"/>
  </g>
  <g transform="matrix(1.0453 0 0 -1.0453 82.189 103.56)">
   <path d="M 0,0 C 0.331,1.61 0.733,3.521 1.029,4.93 -1.29,3.938 -1.714,1.632 0,0" fill="#90001b"/>
  </g>
  <g transform="matrix(1.0453 0 0 -1.0453 94.831 101.71)">
   <path d="m0 0c-0.995 1.757-2.694 2.975-4.979 3.472-0.062-0.521-0.136-1.085-0.213-1.635 1.612-0.165 3.407-0.736 5.192-1.837" fill="#90001b"/>
  </g>
  <g transform="matrix(1.0453 0 0 -1.0453 89.403 99.786)">
   <path d="m0 0c0.077 0.549 0.151 1.114 0.214 1.635-1.332 0.29-2.862 0.336-4.571 0.097-0.573-0.08-1.077-0.223-1.515-0.41-0.296-1.409-0.698-3.321-1.029-4.93 0.331-0.315 0.739-0.606 1.231-0.856-1.142 2.81 1.711 4.87 5.67 4.464" fill="#595857"/>
  </g>
  <g transform="matrix(1.0453 0 0 -1.0453 58.705 92.313)">
   <path d="m0 0c0.905-5.788 16.619-11.051 24.001-11.895 0.843-0.464 1.728-0.886 3.079-1.308-4.683-0.548-27.417 5.02-27.08 13.203" fill="#b4b5b5"/>
  </g>
  <g transform="matrix(1.0453 0 0 -1.0453 94.065 104.88)">
   <path d="m0 0c3.206 0.464 9.111 2.32 8.9 6.327 1.814-4.007-3.88-7.635-11.557-7.888 1.096 0.38 1.856 0.928 2.657 1.561" fill="#b4b5b5"/>
  </g>
  <g transform="matrix(1.0453 0 0 -1.0453 62.802 76.607)">
   <path d="m0 0c0.139-4.033 10.522-11.125 20.629-12.377 0.788-0.556 2.271-1.344 3.291-1.669-6.953-0.046-25.589 7.046-23.92 14.046" fill="#b4b5b5"/>
  </g>
  <g transform="matrix(1.0453 0 0 -1.0453 97.253 90.417)">
   <path d="m0 0c3.199 0.139 8.9 1.993 8.669 5.47 1.623-2.596-2.364-7.046-10.848-6.768 0.788 0.324 1.576 0.835 2.179 1.298" fill="#b4b5b5"/>
  </g>
  <g transform="matrix(1.0453 0 0 -1.0453 45.455 105.39)">
   <path d="m0 0c1.112-14.278 21.37-24.013 32.774-12.98l-0.371-1.483c-1.483-2.457-6.073-10.06-7.324-10.709-1.252-0.649-11.867-1.761-15.298-1.807-1.9-2.55-4.126-5.656-5.378-7.186-1.251-1.53-5.794-5.238-6.489-5.006 0.186 1.622 0.741 4.728 1.391 6.304 0.459 1.115 3.141 6.035 4.264 7.417 0.603 0.742 0.459 1.791-0.018 3.559-1.094 4.043-4.386 17.07-3.551 21.891" fill="#90001b"/>
  </g>
  <g transform="matrix(1.0453 0 0 -1.0453 95.429 136.3)">
   <path d="m0 0c0.37 1.36-0.032 1.705-0.758 1.947-5.702 1.901-11.636 8.39-14.648 13.165 1.854 0.742 3.801 1.948 5.191 4.219 5.317-8.035 19.486-9.194 27.274-2.024 0.185-1.483-2.237-6.67-5.44-10.199-3.801-4.188-7.139-8.499-8.39-15.452-1.623 1.715-3.708 4.172-3.801 5.006-0.067 0.602 0.17 2.179 0.572 3.338" fill="#90001b"/>
  </g>
  <g transform="matrix(1.0453 0 0 -1.0453 81.473 111.37)">
   <path d="m0 0c1.283-0.587 4.25-0.216 5.687 1.545-0.927-3.152-2.92-8.761-7.742-10.291 0.696 2.318 1.561 6.041 2.055 8.746" fill="#595857"/>
  </g>
  <g transform="matrix(1.0453 0 0 -1.0453 52.068 138.41)">
   <path d="m0 0c0.341-1.25 0.366-2.479-0.795-4.374-3.237-5.281-8.235-18.572-8.235-23.627 0-2.385-0.099-3.191-1.591-4.601-2.289-2.163-6.925-5.067-9.211-6.118 0.494 3.894 0.803 8.096 1.792 10.631 0.989 2.534 7.201 16.04 9.627 20.506 1.369 0.157 5.677 3.982 6.489 5.006 0.586 0.738 1.293 1.614 1.924 2.577" fill="#b4b5b5"/>
  </g>
  <g transform="matrix(1.0453 0 0 -1.0453 25.539 176.62)">
   <path d="M 0,0 C 2.457,4.265 5.28,8.02 8.596,11.654 7.834,9.735 6.953,7.556 6.676,6.258 4.96,4.682 1.924,1.708 0,0" fill="#b4b5b5"/>
  </g>
  <g transform="matrix(1.0453 0 0 -1.0453 95.286 140.85)">
   <path d="m0 0c-0.204-2.324-1.182-6.086-1.95-8.273 2.859-5.455 4.023-9.77 4.491-13.828 0.177-1.536 0.769-2.482 2.127-3.25 1.359-0.769 10.756-6.501 14.833-7.505 0.118 0.945-0.177 3.013-1.123 3.96-3.368 3.367-11.168 12.645-12.114 14.182-0.946 1.536-0.972 2.424-1.064 3.545-0.119 1.459-0.271 4.026-0.212 6.094-0.865-0.185-3.27 2.764-4.988 5.075" fill="#b4b5b5"/>
  </g>
  <g transform="matrix(1.0453 0 0 -1.0453 111.55 167.8)">
   <path d="m0 0c2.225-1.669 5.099-3.106 7.324-4.125-0.927-0.232-3.616 0.138-4.311 0.834-0.696 0.695-1.808 1.854-3.013 3.291" fill="#b4b5b5"/>
  </g>
  <g transform="matrix(1.0453 0 0 -1.0453 85.544 58.129)">
   <path d="m0 0c0.758-6.162-2.534-15.143-5.872-16.812 1.927 12.573 0.361 25.081-5.6 28.859 3.127-0.674 10.978-8.029 11.472-12.047" fill="#90001b"/>
  </g>
  <g transform="matrix(1.0453 0 0 -1.0453 114.84 62.315)">
   <path d="m0 0c-0.735-3.909-8.63-10.256-14.164-10.798-0.968-2.476-2.868-5.182-4.607-5.842l-0.154-0.582c5.186-0.387 12.075 2.09 15.248 6.463 3.174 4.373 4.876 9.598 3.677 10.759" fill="#90001b"/>
  </g>
  <g transform="matrix(1.0453 0 0 -1.0453 111.98 72.039)">
   <path d="m0 0c2.987-2.866 7.267-6.056 9.204-7.549 0.878-0.677 4.724-3.23 6.419-4.159-0.242-0.484-3.731-0.014-7.307 2.221-2.26 1.413-7.226 5.087-10.132 7.105 0.766 0.808 1.129 1.252 1.816 2.382" fill="#595857"/>
  </g>
  <g transform="matrix(1.0453 0 0 -1.0453 123.9 60.86)">
   <path d="m0 0c5.429-3.258 13.614-14.116 14.283-20.422 0.835-0.668 1.545-1.336 2.255-1.921-0.404 8.066-9.723 20.351-16.538 22.343" fill="#b4b5b5"/>
  </g>
  <g transform="matrix(1.0453 0 0 -1.0453 120.68 81.956)">
   <path d="m0 0c3.504-11.154 17.317-22.511 27.764-26.436 0.897-0.337 1.329-0.402 1.606-0.108-2.039 17.445-19.407 27.52-22.668 26.469 0.371-0.741 0.892-1.841 0.605-2.145-0.512-0.543-3.757 0.199-7.307 2.22" fill="#b4b5b5"/>
  </g>
  <g transform="matrix(1.0453 0 0 -1.0453 93.527 52.684)">
   <path d="m0 0-0.746 1.373c1.495-1.1 4.271-1.38 5.948-1.201l0.949-0.776c-2.575-0.293-4.775 0-6.151 0.604" fill="#0f141b"/>
  </g>
  <g transform="matrix(1.0453 0 0 -1.0453 110.86 54.336)">
   <path d="m0 0c10.589 2.435 18.43 11.468 19.365 22.367l0.656 0.309c-0.777-11.626-8.704-20.897-20.363-23.383z" fill="#0f141b"/>
  </g>
  <g transform="matrix(1.0453 0 0 -1.0453 117.46 19.494)">
   <path d="m0 0c-3.306 0.038-6.079-1.563-6.907-4.234-0.192-0.618-0.508-0.578-0.413 0.074 0.428 2.955 3.684 4.925 7.351 4.84z" fill="#0f141b"/>
  </g>
  <g transform="matrix(1.0453 0 0 -1.0453 112.27 51.567)">
   <path d="m0 0c-9.322 2.535-20.397 12.713-24.019 21.567l0.638 0.319c3.191-8.132 14.298-18.435 23.584-21.214z" fill="#0f141b"/>
  </g>
  <g transform="matrix(1.0453 0 0 -1.0453 103.01 63.197)">
   <path d="m0 0c-3.449 1.387-11.392 10.024-12.862 18.656l0.595-0.339c1.617-7.876 8.911-16.096 13.021-17.859z" fill="#0f141b"/>
  </g>
  <g transform="matrix(1.0453 0 0 -1.0453 82.787 45.818)">
   <path d="m0 0c0.474-3.526 1.246-5.133 2.036-6.717 0.411-0.825 1.004-1.229 1.993-1.483 4.675-1.202 8.245-3.717 11.931-8.333 0.232-0.186 2.424-0.222 3.628 0.406 1.338 0.696 3.493 2.06 4.391 2.897l1.043 0.058c-0.729-0.87-3.581-2.677-5.203-3.512-1.196-0.615-3.874-0.795-4.264-0.307-3.624 4.539-7.109 6.907-11.688 8.084-1.208 0.31-2.021 0.874-2.474 1.843-0.672 1.437-1.569 3.63-1.973 7.007z" fill="#0f141b"/>
  </g>
  <g transform="matrix(1.0453 0 0 -1.0453 86.125 56.326)">
   <path d="m0 0c0.427 0.18 0.98 0.878 1.151 1.44l0.623-0.217c-0.155-0.55-0.817-1.504-1.453-1.803z" fill="#0f141b"/>
  </g>
  <g transform="matrix(1.0453 0 0 -1.0453 70.615 43.936)">
   <path d="m0 0c-2.832-0.833-4.202-10.718-3.056-16.655 1.144-5.917 7.324-13.916 10.345-13.644 4.056 0.373 7.638 10.862 6.489 17.058-1.087 5.869-10.035 14.342-13.778 13.241m-4.015-16.783c-1.186 6.14 0.429 16.45 3.841 17.461 4.122 1.223 13.668-7.703 14.761-13.758 1.163-6.448-2.489-17.481-7.268-17.92-3.34-0.308-9.96 7.107-11.334 14.217" fill="#0f141b"/>
  </g>
  <g transform="matrix(1.0453 0 0 -1.0453 79.434 58.06)">
   <path d="m0 0c-0.373 3.392-2.192 9.489-5.385 11.559-0.489 0.317-0.324 0.63 0.198 0.371 3.433-1.7 5.522-8.033 5.607-11.904 0.015-0.646-0.35-0.664-0.42-0.026" fill="#0f141b"/>
  </g>
  <g transform="matrix(1.0453 0 0 -1.0453 79.657 73.784)">
   <path d="M 0,0 C 0.29,3.174 0.392,7.115 0.211,10.462 0.174,11.128 0.562,11.153 0.63,10.49 0.998,6.947 0.964,3.578 0.418,-0.046 0.31,-0.763 -0.067,-0.73 0,0" fill="#0f141b"/>
  </g>
  <g transform="matrix(1.0453 0 0 -1.0453 84.507 54.891)">
   <path d="m0 0c1.331 0.333 3.259-2.348 3.253-6.381-9e-3 -6.235-4.951-16.094-9.394-13.884l0.773 0.221c3.578-0.762 7.922 8.077 7.935 13.732 8e-3 3.269-1.382 5.795-2.348 5.749z" fill="#0f141b"/>
  </g>
  <g transform="matrix(1.0453 0 0 -1.0453 95.331 79.309)">
   <path d="m0 0c4.419 2.427 6.243 10.832 3.462 15.275l0.846-0.127c2.739-4.836 0.623-13.743-4.445-15.906z" fill="#0f141b"/>
  </g>
  <g transform="matrix(1.0453 0 0 -1.0453 106.6 60.901)">
   <path d="m0 0c2.179 0 5.057-0.193 6.629-0.405 1.81-0.245 2.337-1.232 1.802-3.605-2.026-8.998-9.075-15.234-19.493-14.985l0.116 0.713c9.314-0.301 16.728 5.628 18.711 14.428 0.41 1.824 0.096 2.611-1.217 2.788-1.557 0.211-4.97 0.38-7.319 0.359z" fill="#0f141b"/>
  </g>
  <g transform="matrix(1.0453 0 0 -1.0453 100.91 79.732)">
   <path d="m0 0c3.46-1.414 6.01-4.056 5.951-6.148-0.096-3.475-5.597-5.928-11.972-5.76-0.588 0.015-0.653 0.329-0.092 0.527 2.203 0.779 3.332 1.94 3.425 3.361 0.115 1.753-1.749 4.031-6.27 4.769-4.675 0.763-7.744-0.896-8.176-2.538-0.44-1.67 0.856-3.565 4.879-5.151 0.413-0.162 0.415-0.469-0.081-0.476-8.588-0.104-25.045 7.499-24.65 13.705 0.16 2.523 4.752 4.548 10.618 4.267l0.407-0.619c-5.373 0.309-10.097-1.365-10.261-3.683-0.371-5.244 13.375-12.031 22.164-12.974-2.729 1.075-4.272 3.008-3.731 5.064 0.643 2.44 4.518 3.814 8.959 3.089 4.627-0.756 6.789-3.162 6.809-5.488 9e-3 -1.262-0.747-2.44-2.4-3.187 5.582 0.271 9.358 2.385 9.602 5.123 0.156 1.762-2.486 4.636-6.183 5.841z" fill="#0f141b"/>
  </g>
  <g transform="matrix(1.0453 0 0 -1.0453 98.313 88.793)">
   <path d="m0 0c3.204 0.394 5.821 1.801 5.809 3.644-9e-3 1.247-1.955 3.611-4.622 4.654l0.795 0.204c2.427-1.224 4.471-3.402 4.515-4.858 0.069-2.33-3.316-3.945-6.694-4.247z" fill="#0f141b"/>
  </g>
  <g transform="matrix(1.0453 0 0 -1.0453 82.971 88.067)">
   <path d="m0 0c-7.267 1.182-16.724 6.954-16.562 10.228 0.068 1.361 1.438 3.285 7.407 4.183l0.405-0.469c-4.5-0.616-6.905-1.881-7.127-3.772-0.286-2.428 8.239-8.153 15.668-9.544z" fill="#0f141b"/>
  </g>
  <g transform="matrix(1.0453 0 0 -1.0453 76.641 75.553)">
   <path d="m0 0c-0.022-0.326 0.15-0.611 0.527-0.881 4.065-2.909 13.17-5.102 16.457-4.685 0.51 2.055 1.251 5.022 1.994 7.53 0.601 2.037 1.156 4.389 1.025 6.282-0.145 2.103-0.04 3.795 0.284 5.035l0.47-0.55c-0.23-1.124-0.296-2.428-0.18-4.45 0.112-1.958-0.22-4.061-0.922-6.467-0.863-2.961-1.466-5.789-1.929-7.89-0.033-0.149-0.123-0.221-0.238-0.238-3.15-0.465-12.726 1.668-17.326 4.906-0.562 0.396-0.886 1.06-0.747 1.622z" fill="#0f141b"/>
  </g>
  <g transform="matrix(1.0453 0 0 -1.0453 94.715 83.681)">
   <path d="m0 0c-0.707-3.404-1.834-9.794-2.167-11.722-0.013-0.073-0.063-0.134-0.133-0.161-4.093-1.527-12.346-0.942-20.945 4.082-0.667 0.389-0.889 0.981-0.766 1.744 0.233 1.437 0.499 2.496 0.978 4.064l0.733-0.472c-0.464-1.354-0.737-2.511-0.907-3.639-0.088-0.58 4e-3 -0.912 0.354-1.112 7.28-4.157 15.175-5.751 19.965-4.033 0.357 2.057 1.407 7.912 2.141 11.574z" fill="#0f141b"/>
  </g>
  <g transform="matrix(1.0453 0 0 -1.0453 89.386 96.316)">
   <path d="m0 0c0.449 2.883 1.518 9.93 2.319 12.907l0.696-0.171c-0.786-2.918-1.923-9.735-2.384-12.678z" fill="#0f141b"/>
  </g>
  <g transform="matrix(1.0453 0 0 -1.0453 97.18 60.907)">
   <path d="m0 0c-0.525-0.565-0.805-1.734-0.776-3.285 0.044-2.373-0.159-4.791-0.609-6.415-0.678-2.445-1.883-6.432-2.804-10.279l-0.736 0.063c0.777 3.259 1.997 7.727 2.872 10.409 0.511 1.567 0.705 3.896 0.662 6.231-0.031 1.682 0.331 3.016 0.939 3.67z" fill="#0f141b"/>
  </g>
  <g transform="matrix(1.0453 0 0 -1.0453 85.151 91.121)">
   <path d="m0 0c-0.435-1.902-0.801-3.646-1.002-4.866l-0.625 0.081c0.202 1.228 0.555 2.978 0.968 4.872z" fill="#0f141b"/>
  </g>
  <g transform="matrix(1.0453 0 0 -1.0453 84.745 89.749)">
   <path d="m0 0c0.521 2.323 1.104 4.736 1.594 6.582l0.788 0.104c-0.552-2.033-1.208-4.631-1.779-7.072z" fill="#0f141b"/>
  </g>
  <g transform="matrix(1.0453 0 0 -1.0453 86.944 80.756)">
   <path d="m0 0c0.978 3.32 2.535 7.766 3.977 11.515 0.794 2.068 0.616 3.443 0.18 5.169-0.44 1.745-0.398 4.438 1.14 5.979l0.521-0.354c-1.471-1.28-1.41-4.031-1.048-5.499 0.445-1.811 0.694-3.334-0.123-5.516-1.38-3.693-2.99-8.19-3.928-11.479z" fill="#0f141b"/>
  </g>
  <g transform="matrix(1.0453 0 0 -1.0453 92.838 91.192)">
   <path d="m0 0c5.074-1.036 10.977-4.373 10.761-8.617-0.189-3.689-6.63-6.542-12.372-6.321-0.633 0.024-0.613 0.34-0.087 0.504 2.144 0.666 3.345 1.918 3.466 3.274 0.139 1.596-1.888 3.591-5.28 4.23-4.156 0.781-6.933-0.459-7.339-2.233-0.421-1.845 2.046-3.995 5.873-5.063 0.366-0.102 0.326-0.448-0.058-0.463-8.556-0.346-28.15 6.02-28.034 13.177 0.053 3.276 5.354 6.241 12.145 6.322l-0.127-0.609c-6.771-0.124-11.217-3.01-11.264-5.725-0.104-5.818 16.549-11.764 25.345-12.557-3.314 1.055-4.958 3.198-4.537 5.037 0.561 2.453 4.184 3.496 8.101 2.797 3.575-0.637 6.023-2.817 5.835-4.958-0.141-1.594-1.008-2.4-2.482-3.087 4.865 0.473 9.931 2.959 10.043 5.705 0.147 3.555-4.921 6.82-10.099 8.002z" fill="#0f141b"/>
  </g>
  <g transform="matrix(1.0453 0 0 -1.0453 70.742 86.976)">
   <path d="m0 0c-2.714-0.292-6.579-2.499-6.351-4.914 0.33-3.492 9.125-7.857 16.438-9.542l0.327-0.654c-8.029 1.666-17.084 6.24-17.435 10.111-0.245 2.7 3.349 5.061 6.968 5.515z" fill="#0f141b"/>
  </g>
  <g transform="matrix(1.0453 0 0 -1.0453 94.976 103.16)">
   <path d="m0 0c2.848 0.292 5.993 1.831 6.599 3.993 0.434 1.553-1.985 4.232-4.391 5.434l2.439-1.055c1.727-1.373 2.973-3.249 2.608-4.595-0.672-2.481-4.311-4.126-7.358-4.356z" fill="#0f141b"/>
  </g>
  <g transform="matrix(1.0453 0 0 -1.0453 60.093 96.091)">
   <path d="m0 0c-3.7-1.506-12.777-6.683-13.527-9.271-0.412-1.425-0.301-6.315 3.113-21.702 0.012-0.054 2e-3 -0.111-0.028-0.158-1.207-1.89-5.186-9.378-5.501-10.743-0.357-1.543-0.415-5.804-0.011-5.91 0.416-0.111 5.476 4.021 6.284 5.158 0.789 1.111 3.983 5.397 5.135 6.93 0.098 0.132 0.176 0.158 0.306 0.162 3.528 0.098 13.811 1.126 15.113 1.872 1.361 0.781 6.236 8.926 7.18 10.374 0.024 0.037 0.057 0.065 0.096 0.081 5.958 2.494 7.977 9.076 9.736 21.241l0.621-0.063c-1.681-12.476-3.489-19.152-9.925-21.717-1.403-2.21-5.806-9.869-7.225-10.729-1.416-0.859-11.73-1.781-15.328-1.793-0.872-1.223-4.169-5.412-5.146-6.787-1.066-1.498-6.32-5.583-7.122-5.499-0.786 0.082-0.883 4.864-0.431 6.822 0.318 1.375 4.104 8.868 5.375 10.888-2.976 12.303-3.86 19.37-3.245 21.803 0.727 2.884 9.705 7.809 14.135 9.652z" fill="#0f141b"/>
  </g>
  <g transform="matrix(1.0453 0 0 -1.0453 82.405 105.71)">
   <path d="m0 0c-0.062-3.309-1.262-9.615-2.655-14.117l-0.627-0.091c1.193 4.037 2.49 11.03 2.528 14.322z" fill="#0f141b"/>
  </g>
  <g transform="matrix(1.0453 0 0 -1.0453 95.322 134.94)">
   <path d="m0 0c-1.397 0.46-4.513 1.896-5.586 2.573-3.005 1.896-7.33 7.131-10.027 10.906l0.56 0.418c2.675-3.744 7.043-8.642 9.965-10.573 1.437-0.95 3.397-2.008 4.874-2.535 0.896-0.32 0.993-0.46 0.777-1.346-0.254-1.047-0.823-3.635-0.622-4.203 0.409-1.145 3.055-4.29 4.294-5.33 0.455-0.382 0.572-0.364 0.645 0.149 0.495 3.468 1.233 7.621 2.674 10.499 0.777 1.552 1.998 3.338 3.436 4.893 1.929 2.086 5.934 8.402 5.774 10.412-0.202 2.527-7.031 12.084-10.473 14.639l0.513 0.493c4.084-3.09 10.805-12.374 10.974-15.041 0.151-2.375-3.974-8.879-5.995-11.063-1.414-1.528-2.862-3.126-3.609-4.653-1.365-2.79-2.353-7.201-2.748-10.311-0.142-1.109-0.656-1.269-1.555-0.533-1.315 1.077-4.388 4.763-4.653 5.655-0.196 0.653 0.528 3.944 0.782 4.951" fill="#0f141b"/>
  </g>
  <g transform="matrix(1.0453 0 0 -1.0453 100.82 145.53)">
   <path d="m0 0c-0.029-2.071 0.04-4.805 0.311-7.665 0.086-0.919 0.447-1.457 0.834-2.117 1.05-1.791 10.496-12.914 12.396-14.564 0.614-0.533 1.171-3.175 1.153-4.079-7e-3 -0.414-0.056-0.472-0.423-0.371-3.608 0.997-13.167 6.151-16.082 8.186-0.62 0.433-1.108 1.103-1.233 2.16-0.78 6.625-2.198 10.452-5.88 16.529-0.087 0.143-0.087 0.235-6e-3 0.418 0.841 1.894 1.848 5.68 1.848 6.692 0 1.056 0.718 1.675 1.455 1.675l-0.021-0.627c-0.533 0-0.779-0.36-0.779-1.059 0-1.146-0.989-4.968-1.796-6.838 3.74-6.304 5.199-10.182 6.129-16.69 0.11-0.771 0.325-1.227 0.867-1.605 2.74-1.912 11.674-7.01 15.203-8.036-0.068 1.103-0.529 2.743-0.962 3.164-2.474 2.405-11.451 13.05-12.476 14.683-0.417 0.665-0.819 1.365-0.915 2.384-0.262 2.766-0.274 5.544-0.277 7.132z" fill="#0f141b"/>
  </g>
  <g transform="matrix(1.0453 0 0 -1.0453 101.36 141.73)">
   <path d="m0 0c0.858 0.069 1.271-0.958 1.271-2.558 0-1.863 0.461-6.866 0.656-8.36 0.128-0.979 0.29-1.353 0.839-1.899 4.586-4.559 11.698-12.247 14.727-16.159 0.314-0.405 0.19-0.599-0.334-0.579-1.509 0.056-2.806 0.334-4.093 0.815l-0.667 1.089c1.243-0.674 2.732-1.099 4.07-1.185-2.643 3.664-10.198 11.591-14.29 15.515-0.602 0.576-0.893 1.225-1.034 2.305-0.196 1.502-0.553 6.535-0.553 8.412 0 1.724-0.221 2.094-0.69 2.042z" fill="#0f141b"/>
  </g>
  <g transform="matrix(1.0453 0 0 -1.0453 32.638 170.23)">
   <path d="m0 0c-1.352-1.663-4.272-4.537-6.495-6.432-0.222-0.188-0.325-0.176-0.446 0.076-1.052 2.189-1.64 6.023-1.745 9.672-0.028 1-0.021 1.695 0.207 2.194 0.698 1.521 4.777 5.183 9.282 12.392 3.651 5.844 7.085 12.115 7.901 13.518 1.147 1.969 2.167 2.634 3.366 2.519l-0.179-0.626c-0.969 0.058-1.567-0.512-2.605-2.266-0.678-1.145-4.167-7.508-7.834-13.546-4.783-7.874-8.491-11.351-9.087-12.484-0.193-0.368-0.192-0.885-0.177-1.658 0.08-3.878 0.596-7.111 1.317-8.895 2.184 1.986 4.863 4.603 6.642 6.809z" fill="#0f141b"/>
  </g>
  <g transform="matrix(1.0453 0 0 -1.0453 52.317 138.21)">
   <path d="m0 0c0.496-1.018 0.43-2.685-0.476-4.23-2.16-3.683-8.469-16.752-8.253-25.158 0.038-1.444-0.418-2.489-1.391-3.462-1.436-1.436-6.351-4.793-9.877-6.501-0.41-0.199-0.532-0.176-0.487 0.301 0.17 1.756 0.656 7.375 1.547 10.018 1.155 3.428 6.744 14.826 9.919 21.253l0.643-0.214c-3.171-6.418-8.687-17.773-9.797-21.189-0.631-1.942-1.216-6.95-1.449-9.069 3.455 1.743 7.481 4.71 8.852 6.082 0.792 0.792 1.051 1.467 1.051 2.812 0 8.214 6.448 21.708 8.622 25.417 0.75 1.279 0.959 2.566 0.65 3.465z" fill="#0f141b"/>
  </g>
  <g transform="matrix(1.0453 0 0 -1.0453 110.32 74.233)">
   <path d="m0 0c2.25-1.474 7.984-5.748 8.906-6.409 3.042-2.181 7.71-3.466 8.026-3.03 0.271 0.562-2.776 5.726-4.299 7.197-1.399 1.349-7.487 5.081-9.7 6.495l0.336 0.603c2.235-1.418 8.244-5.09 9.877-6.556 1.257-1.127 4.967-7.215 4.423-8.168-0.517-0.909-5.807 0.576-9.062 2.857-0.932 0.652-6.9 5.092-8.976 6.461z" fill="#0f141b"/>
  </g>
  <g transform="matrix(1.0453 0 0 -1.0453 122.4 75.11)">
   <path d="m0 0c2.275 0.469 4.573-0.019 6.923-0.998 6.092-2.535 15.936-10.635 18.356-14.77 3.002-5.127 4.115-10.743 3.088-16.679-0.211-1.221-0.904-1.342-1.991-0.978-9.599 3.209-23.91 13.485-28.522 27.068l0.973-0.476c5.117-13.002 19.025-22.784 27.748-26.013 0.851-0.315 1.089-0.183 1.186 0.475 0.869 5.953-0.208 11.184-3.159 16.226-2.389 4.081-12.438 12.135-17.987 14.423-2.211 0.912-3.855 1.198-5.93 1.02z" fill="#0f141b"/>
  </g>
  <g transform="matrix(1.0453 0 0 -1.0453 131.88 98.016)">
   <path d="m0 0c3.508-0.727 10.38-0.646 12 0.247 1.847 1.018 2.025 6.76 0.475 9.607l1.008-0.869c1.137-3.11 0.982-8.236-1.147-9.376-1.96-1.048-8.827-0.977-11.739-0.287z" fill="#0f141b"/>
  </g>
  <g transform="matrix(1.0453 0 0 -1.0453 151.12 97.951)">
   <path d="m0 0c-0.591-2.387-2.651-4.935-4.079-5.383-1.468-0.462-5.691-0.342-8.089 0.098l-0.794 0.736c2.348-0.596 7.407-0.528 8.662-0.133 1.27 0.399 3.464 3.233 4.005 5.69z" fill="#0f141b"/>
  </g>
  <g transform="matrix(1.0453 0 0 -1.0453 140.85 83.972)">
   <path d="m0 0c-0.618 7.973-9.163 18.774-15.672 21.635 1.641-4.113 2.754-10.139 2.396-13.703l-0.659 0.089c0.29 3.703-1.023 10.197-2.576 14.033-0.184 0.455-0.011 0.561 0.417 0.423 7.286-2.349 16.711-14.388 16.776-23.016z" fill="#0f141b"/>
  </g>
  <g transform="matrix(1.0453 0 0 -1.0453 96.872 26.541)">
   <path d="m0 0c3.239 8.147 15.431 10.604 20.274 7.313 0.4-0.271 0.47-0.531-0.045-0.638-3.039-0.623-5.185-3.104-5.185-5.898 0-3.578 8.791-7.76 17.887-4.697l-2.546-1.297c-7.954-1.748-16.031 1.866-16.13 6.017-0.076 3.175 2.073 5.45 5.077 6.292-4.856 2.397-15.258-0.186-18.423-7.19z" fill="#0f141b"/>
  </g>
  <g transform="matrix(1.0453 0 0 -1.0453 107.58 58.575)">
   <path d="m0 0c-5.284 2.534-13.665 9.019-17.068 13.847-2.778-1.243-6.216-2.146-9.3-2.303-1.988-0.099-2.677 0.588-2.612 2.68 0.418 13.646 17.627 21.961 29.299 13.242 8.76-6.543 7.896-20.92-0.932-28.39 13.541 1.382 26.678 10.65 28.132 30.077-9.956-8.901-23.863-4.868-25.341 1.969-0.157 0.725 0.191 0.776 0.414 0.071 1.945-6.166 14.592-10.208 25.083-1.067 0.353 0.305 0.571 0.207 0.562-0.255-0.399-20.117-14.984-30.665-29.436-31.475-0.571-0.033-0.657 0.377-0.243 0.718 8.624 7.076 9.715 21.272 1.175 27.651-11.507 8.597-27.611 0.191-27.985-12.549-0.051-1.71 0.38-2.072 1.862-1.995 3.105 0.158 7.034 1.31 9.239 2.335 0.233 0.111 0.322 0.104 0.463-0.098 3.246-4.624 12.129-11.623 17.198-13.971z" fill="#0f141b"/>
  </g>
  <g transform="matrix(1.0453 0 0 -1.0453 105.55 61.713)">
   <path d="m0 0c0.161 0.262 0.414 1.304 0.244 1.588-0.178 0.297-4.767 0.56-6.765 0.451l-0.43 0.506c2.305 0.066 5.997-0.011 7.627-0.42 0.071-0.018 0.127-0.073 0.147-0.143 0.163-0.547 0.01-1.244-0.104-1.588z" fill="#0f141b"/>
  </g>
  <g transform="matrix(1.0453 0 0 -1.0453 82.893 98.631)">
   <path d="m0 0c-0.372-1.498-0.782-2.996-1.022-4.333l0.709-0.777c0.248 1.814 0.727 3.589 1.109 5.409z" fill="#0f141b"/>
  </g>
  <g transform="matrix(1.0453 0 0 -1.0453 62.948 70.661)">
   <path d="m0 0c1.323 0.441 3.926 1.279 3.926 1.941s-5.999 3.043-9.748 3.176c-2.647 2.293-6.936 5.793-8.823 6.484-5.778 2.117-12.482-0.529-14.423-3.749-4.059-1.015-17.247 1.279-21.746 3.44 3.705-8.999 17.467-15.835 28.98-16.762 6.572-4.984 24.525-8.16 30.039-5.293 0.894 0.465 0.799 0.93 0.221 1.72-1.809 2.47-5.559 6.528-8.426 9.043" fill="#dbdcdc"/>
  </g>
  <g transform="matrix(1.0453 0 0 -1.0453 48.53 58.939)">
   <path d="m0 0c5.612 0.893 21.299 2.434 23.837 1.738 1.197-0.329 1.944-2.575 1.291-3.476-0.868-1.198-13.809-3.288-17.871-3.758-1.386 1.269-5.379 4.557-7.257 5.496" fill="#717171"/>
  </g>
  <g transform="matrix(1.0453 0 0 -1.0453 146.32 96.183)">
   <path d="m0 0c0.901-2.411 2.25-8.913 1.504-9.132-0.788-0.232-4.763 5.092-5.913 7.072-1.03 1.771 3.701 3.953 4.409 2.06" fill="#dbdcdc"/>
  </g>
  <g transform="matrix(1.0453 0 0 -1.0453 52.17 61.388)">
   <path d="m0 0c5.221 0.983 17.153 2.203 21.797 2.407 0.237-0.678 0.272-1.561-0.305-1.967-1.255-0.881-12.949-3.186-17.729-3.559-0.712 0.712-2.339 2.102-3.763 3.119" fill="#595857"/>
  </g>
  <g transform="matrix(1.0453 0 0 -1.0453 45.564 76.11)">
   <path d="m0 0c5.968-3.582 22.981-6.27 25.067-3.906 0.603-0.695 0.596-1.389-0.262-1.699-9.303-3.369-26.928 2.38-30.102 5.377 1.484-0.155 3.702-0.1 5.297 0.228" fill="#b4b5b5"/>
  </g>
  <g transform="matrix(1.0453 0 0 -1.0453 59.798 67.755)">
   <path d="m0 0c2.07-0.031 5.006-0.371 6.922-0.896-0.062-0.526-2.193-1.391-4.017-1.793-0.927 0.927-1.638 1.576-2.905 2.689" fill="#b4b5b5"/>
  </g>
  <g transform="matrix(1.0453 0 0 -1.0453 10.211 59.292)">
   <path d="m0 0c4.265-6.984 21.247-14.896 31.461-14.185 0.865-0.68 1.823-1.484 2.473-1.885-11.065-2.025-30.673 6.505-33.934 16.07" fill="#b4b5b5"/>
  </g>
  <g transform="matrix(1.0453 0 0 -1.0453 144.77 95.39)">
   <path d="m0 0c1.045-1.754 2.548-6.933 2.882-9.856-1.587 0.919-5.235 5.62-5.888 7.434-0.376 1.044 1.67 2.38 3.006 2.422" fill="#b4b5b5"/>
  </g>
  <g transform="matrix(1.0453 0 0 -1.0453 40.538 76.375)">
   <path d="m0 0c6.713-4.437 23.808-7.894 29.592-5.002 0.545 0.272 0.551 0.434 0.138 1.037-3.637 5.324-20.049 19.838-23.441 20.778-7.186 1.994-13.221-2.108-13.574-3.655l-0.73-0.099c0.141 2.357 6.937 6.638 14.477 4.542 4.083-1.135 20.029-15.474 23.784-21.236 0.6-0.919 0.595-1.415-0.399-1.912-6.36-3.18-25.05 0.566-31.225 5.581z" fill="#0f141b"/>
  </g>
  <g transform="matrix(1.0453 0 0 -1.0453 10.468 59.506)">
   <path d="m0 0c4.592-9.777 22.671-16.917 32.943-15.765-4.2 3.021-9.583 8.728-11.802 12.477-5.192-0.788-16.874 1.484-21.141 3.288m-0.857 0.483c-0.158 0.431 0.035 0.588 0.42 0.404 4.565-2.181 16.896-4.267 21.665-3.415 0.177 0.031 0.252-5e-3 0.347-0.169 2.128-3.653 8.424-10.3 12.293-12.984 0.325-0.225 0.293-0.49-0.123-0.561-11.128-1.895-30.683 6.001-34.602 16.725" fill="#0f141b"/>
  </g>
  <g transform="matrix(1.0453 0 0 -1.0453 55.709 64.33)">
   <path d="m0 0c7.526 0.987 17.568 2.708 18.064 3.667 0.425 0.819-0.044 2.48-1.175 2.912-1.635 0.627-15.956-0.593-23.292-1.775l-0.899 0.614c6.786 1.131 22.369 2.461 24.436 1.762 1.465-0.496 2.068-2.615 1.519-3.85-0.588-1.323-12.903-3.288-17.993-3.991z" fill="#0f141b"/>
  </g>
  <g transform="matrix(1.0453 0 0 -1.0453 62.389 70.338)">
   <path d="m0 0c1.724 0.307 4.108 1.299 4.132 1.524 0.058 0.551-5.19 2.492-9.207 2.978l-0.701 0.829c3.53-0.414 10.528-2.52 10.58-3.813 0.027-0.664-2.772-1.767-4.23-2.063z" fill="#0f141b"/>
  </g>
  <g transform="matrix(1.0453 0 0 -1.0453 63.826 71.519)">
   <path d="m0 0c-6.295 1.19-15.072-3.229-16.131-4.96-0.522-0.855-0.455-2.071 0.252-3.076l-0.848 0.295c-0.508 0.834-0.606 2.22-0.059 3.116 1.343 2.199 9.409 6.031 16.085 5.32z" fill="#0f141b"/>
  </g>
  <g transform="matrix(1.0453 0 0 -1.0453 54.97 81.919)">
   <path d="m0 0c-0.513 1.095-0.299 2.418 0.562 3.28 2.388 2.388 7.501 3.926 10.656 3.899l0.527-0.596c-3.074 0.169-8.239-1.439-10.621-3.848-0.9-0.91-0.832-1.887-0.395-2.868z" fill="#0f141b"/>
  </g>
  <g transform="matrix(1.0453 0 0 -1.0453 142.12 98.406)">
   <path d="m0 0c1.482-2.357 5.003-6.82 5.349-6.733 0.333 0.084-0.59 6.066-1.734 8.72-0.582 1.354-4.617-0.395-3.615-1.987m-0.591-0.354c-1.44 2.467 3.722 4.886 4.775 2.701 1.331-2.764 2.289-9.302 1.431-9.677-0.778-0.34-4.774 4.522-6.206 6.976" fill="#0f141b"/>
  </g>
 </g>
</svg>
