<?xml version="1.0" encoding="UTF-8"?>
<!-- Created with Inkscape (http://www.inkscape.org/) -->
<svg version="1.1" viewBox="0 0 323.55 339.22" xmlns="http://www.w3.org/2000/svg">
 <g transform="translate(48.121 49.464)">
  <path d="m16.303 158.48c-18.44 11.593-49.612 36.688-59.179 54.714-3.8595 7.2902-6.9205 17.553 3.268 24.237 14.728 9.671 61.117 24.237 79.113 26.765 0.44362-1.878 0.34011-4.1553 2.3216-5.5453 4.5545-3.1941 15.157-0.38448 18.543 3.1645 1.9815 2.085 2.0702 4.3623 0.99076 6.4473 6.9353 1.183 13.087 2.085 18.233 2.3808-0.69501-3.6673-0.04436-6.6544 3.0758-7.7338 5.146-1.7893 12.096-1.4935 18.928 2.2773 1.4935-5.0573 2.0407-7.1867 2.3512-11.327-6.2107 3.1054-19.549 6.122-26.75 4.6137 4.4806-5.5749 8.9908-15.689 11.002-22.817-6.122 2.6765-16.532 5.5453-25.257 4.8503 5.4566-4.4658 13.279-14.122 13.575-22.921l-25.863-29.885c-18.248-2.8983-34.307-12.022-38.965-19.948 5.5601-0.10351 11.608-0.79852 16.163-1.8928-4.5545-2.6765-8.6211-5.353-11.549-7.3789" fill="#bd9c5e"/>
  <path d="m224.51 188.96c3.963 0.88725 7.4381 1.2865 10.514 1.2865-0.50277-4.7616-1.4935-13.486-2.292-17.641 2.9871 4.2588 5.7523 10.603 7.4381 15.364 13.279-43.623 2.8836-95.039-36.377-119.75-43.312-27.253-92.481-9.6118-117.86 22.506 2.3808 3.963 2.9723 7.0388 1.7745 8.5176-1.183 1.4935-4.1553 0.90203-7.1275-1.3752-2.9723-2.2921-6.3438-3.7708-8.6359-3.5786 3.2828 6.0481 6.2107 13.782 6.0481 16.754-0.08872 1.9815-1.0351 2.5286-3.4603 1.4935-2.78-1.1978-5.9446-2.1885-9.2274-1.9815 2.9871 5.2495 7.1719 13.811 4.9686 16.251-1.8928 2.085-7.9409 2.2773-17.848-1.5822-6.4473 0.0887-15.172-0.90204-24.887-4.8651 1.4935 4.658 8.2366 15.66 16.059 20.717-9.1091 2.3808-27.756 5.8558-39.749 5.4566 4.3623 5.0573 14.373 14.773 24 19.327-4.0665 0.99076-10.514 2.1885-16.163 1.878 5.7523 10.322 28.747 18.958 38.95 19.948 3.8004-2.9723 14.285-6.0185 21.56-4.3032-0.96118 0.44363-1.9224 1.7006-2.5287 2.8244 5.2052 1.6266 10.928 3.7856 14.876 8.5471-3.9482 2.159-9.7449 7.7338-9.7449 12.348 5.0573-0.22181 10.78 0.22182 15.246 4.6728-1.4935 1.4196-3.7856 4.0222-4.8355 6.1812-2.9723-0.8281-5.6488-0.90204-8.695-0.36969-0.36969 6.8318-6.8466 18.055-13.161 22.743 5.0573 1.0351 18.144-1.2717 24.828-4.6876-1.8484 5.7967-5.5749 15.689-11.002 22.832 5.6488 1.1091 18.662-0.82809 26.765-4.6137-0.81331 6.3882-4.0074 17.996-7.9556 22.965 6.6987-0.66543 20.377-5.8706 27.948-12.924-0.44362 3.8595-2.5139 11.445-6.0924 14.27 7.6599-1.7153 17.996-6.8466 22.447-10.854-1.0351 6.8318-3.1202 12.865-6.3882 16.281 11.667 0.44362 36.732-14.048 45.131-22.521 1.1091 3.8595 2.3068 9.7301 0.88725 14.048 6.7726-5.9446 14.344-16.799 16.503-22.152 2.0111 3.342 4.9834 9.5823 6.1812 13.22 1.4048-5.2643 2.6765-9.6562 4.3031-14.344l14.418-3.9335c2.3068 0.0739 4.8355-0.0739 6.6248-0.5915-2.5286-1.9372-5.7967-4.5397-7.512-7.4381l-0.73937-3.7264c4.4658 2.085 8.769 3.4307 12.259 3.5786-4.0074-7.3641-8.9168-21.634-9.952-29.664 4.9834 2.159 12.333 3.1941 18.366 2.8244-4.9094-4.4658-14.107-17.39-15.867-23.941" fill="#fff"/>
  <path d="m207.93 182.81c-37.338-18.07-86.433-51.401-104.98-64.488-3.5194 23.882 7.7486 53.457 33.701 67.756 31.823 17.567 63.364 6.6987 71.275-3.268" fill="#525557"/>
  <path d="m118.82 129.21c-4.8799 14.078-1.3309 34.41 8.207 35.002 7.9261 0.48799 11.638-10.558 10.366-22.684-4.9834-3.2237-12.407-8.207-18.573-12.318" fill="#0088b9"/>
  <path d="m136.44 233.85c4.1848-15.66-20.555-20.007-24.68-8.8872-5.1017 13.723-5.8854 32-0.91683 33.967 4.9538 1.9519 22.462-13.323 25.597-25.08" fill="#525557"/>
  <path d="m211.28 220.53c-8.6506-7.8374-26.277 2.1146-19.845 15.157 4.5693 9.2717 23.497 22.847 27.948 20.495 4.7468-2.5139 0.63586-27.741-8.1035-35.653" fill="#525557"/>
  <g fill="#c40018">
   <path d="m72.21 183.38c-13.885-1.9815-26.292 5.1165-31.423 15.911-3.4455 7.2606-10.1 12.052-18.307 7.6895-9.0795-4.8207-23.793 5.2052-25.301 17.612-0.39926 3.2976 0.85767 3.2976 4.3031 0.90203 5.3087-3.7116 11.357-5.4714 18.81-1.1091 16.399 9.6266 31.335 15.32 41.301 3.6081 7.5416-8.8725 13.871-12.614 23.63-10.041 1.4787-2.366 2.78-4.1701 4.8799-5.7671-2.4104-3.1941-7.7782-5.5749-15.29-5.0869 0.28096-3.7116 4.8946-9.9667 9.7449-12.348-2.4547-2.7652-8.5915-7.3198-14.876-8.5471 0.51756-1.0203 1.2421-2.1294 2.5287-2.8244"/>
   <path d="m71.761 94.501c2.1738 0 6.1368 1.2717 9.0351 3.5786 3.2976 2.6174 6.4769 1.9076 7.2163 0.99076 2.3364-2.8983-8.2218-26.928-39.601-22.654-10.854 1.4787-17.331-0.029575-21.19-7.2458-11.401-21.279-33.094-21.353-45.397-18.085-2.8244 0.75416-2.3068 2.7948 0.38447 3.7708 7.2458 2.6322 14.078 8.5767 17.227 17.05 6.0333 16.192 11.135 23.335 23.926 24.384 6.4325 0.53235 11.091 2.2773 12.244 8.6654 2.8688 15.897 21.885 25.834 33.331 22.98 1.878-0.4732 2.4991-2.2033 1.7893-4.8059-0.9464-3.4898-3.1054-8.8577-5.3678-12.525 2.3512-0.19224 7.8965 0.99076 10.366 2.3512 1.6858 0.9464 2.7357-0.0592 2.159-3.1941-0.75416-4.1405-2.8244-10.262-6.122-15.261"/>
   <path d="m127.82 60.194c-4.3771-8.769-1.6562-18.854 5.5009-23.793 6.2403-4.3031 6.3882-12.185 3.5638-19.623-3.1793-8.3697 0.78374-19.46 9.3752-27.8 13.634-13.235 14.95-21.871 15.157-33.908 0.0739-3.7116 1.8928-5.0721 3.9187-1.2421 6.817 12.865 10.603 35.209 1.5822 52.141-5.7375 10.81-5.3383 18.248 1.597 24.887 6.9353 6.6396 10.1 16.843 6.8318 25.671-11.298-3.0758-32.207-3.0758-47.527 3.6673"/>
   <path d="m226.1 88.544c4.9538 1.183 13.383-0.79852 16.163-6.3438 2.7652-5.5453 5.7375-6.7431 10.795-5.8558 5.0573 0.90203 9.7597-1.5823 11.697-5.841 1.597-3.475 4.3475-2.573 4.658 0.5915 1.9667 19.756-4.4214 39.823-18.129 45.309-4.6285 1.8484-8.2366 5.3678-8.3253 8.4141-2.6765-12.392-8.4288-24.769-16.858-36.274"/>
   <path d="m227.29 195.44c7.3198-2.3512 15.97 0.78373 20.895 12.022 1.5675 3.5638 4.0961 6.2551 9.7597 6.61 13.131 0.81331 16.325 9.6266 16.621 18.455 0.0887 2.5286-1.4344 3.1793-3.83 1.1386-7.1423-6.0924-15.201-6.7283-21.678-3.6525-5.1312 2.4251-14.196 4.525-20.983 1.39-2.7061-6.7135-5.0721-15.246-6.0628-21.338 6.2403 2.4399 13.205 3.2237 18.691 3.0462-5.3974-5.1312-10.277-12.185-13.412-17.671"/>
  </g>
  <g fill="#a2000c">
   <path d="m-20.602 52.648c8.0592-0.93161 22.122 4.9538 26.041 15.246 4.4658 11.771 12.569 18.026 20.481 18.026 8.769 0 14.418 4.1109 18.159 10.957 2.7505 5.0573 6.5952 6.4769 11.889 6.0185 8.3105-0.72458 16.207 2.1442 21.294 10.011-1.183 0.88725-8.5471-3.342-12.185-2.6026 4.6728 7.6599 6.9057 14.935 4.9834 16.429-7.6303 5.9298-31.039-5.1756-34.425-20.155-1.2717-5.5749-3.5638-9.952-11.904-10.543-13.442-0.96118-19.076-9.8484-23.409-21.264-3.6525-9.5971-9.2865-16.754-16.887-19.49-1.8484-0.66544-3.9187-1.7006-4.037-2.6322"/>
   <path d="m236.06 104.2c4.1553 1.183 9.5083-1.3309 12.037-5.3531 1.9667-3.1054 4.8355-6.5656 8.488-8.769 6.3882-3.8743 11.15-12.791 10.854-21.708 2.366 0.29575 2.854 5.3531 2.6765 9.0647-1.0499 21.412-7.5564 33.213-18.44 38.654-3.268 1.6414-7.8817 4.9094-9.0795 8.488-0.73937-6.1072-3.7116-13.989-6.536-20.377"/>
   <path d="m240.82 212.75c2.9723 4.7616 7.8521 8.3253 14.714 8.3253 6.8466 0 16.207 6.2403 17.701 13.531-1.3309 0.25139-3.6229-1.5379-5.5009-2.9279-4.939-3.6377-11.653-4.8207-18.736-1.6858-4.4658 1.9815-13.486 5.2643-20.614 1.1978-2.3808-5.4566-5.1608-13.087-6.7431-21.22 5.9446 2.3808 13.678 3.8743 19.179 2.78"/>
   <path d="m74.636 207c6.2403-0.29575 12.688 1.0943 15.172 4.9538-1.8928 1.7893-3.5786 4.0666-4.658 5.9446-7.3346-2.2773-16.532 0.81331-22.906 9.4196-8.4288 11.401-24.384 8.0296-38.166-0.69501-10.588-6.6987-17.375-5.7227-22.595-1.0795-1.5675 1.39-2.9575 2.2181-3.9039 1.5527 4.6137-10.203 18.499-14.433 29.723-8.2514 10.262 5.6488 22.595 3.9482 27.209-1.7893 6.8614-8.5176 14.403-14.433 22.033-15.172-0.72458 1.1682-1.4048 3.0906-1.9076 5.1165"/>
  </g>
  <g fill="#38393a">
   <path d="m107.55 246.95c1.39 6.1516 6.9501 5.5601 11.357 2.085 6.3882-5.0573 15.009-16.754 15.409-23.897 3.1645 2.3364 2.6322 8.3549-0.69501 14.521-5.9446 11.002-17.774 20.303-22.595 19.327-1.4935-0.29575-4.2736-5.9446-3.475-12.037"/>
   <path d="m190.27 229.1c4.0074 7.586 14.27 15.763 20.214 18.44 5.22 2.3512 9.3752 0.88725 9.8189-6.5508 1.0499 6.5508 1.6118 13.974-1.183 15.024-5.2052 1.9372-20.599-10.203-24.843-16.059-1.9224-2.6765-4.8946-6.536-4.0074-10.854"/>
   <path d="m145.46 281.51c3.475 3.061 7.1719 5.0721 8.902 4.6876 2.8836-0.63586 7.2163-9.3309 7.9704-12.983-3.9187 2.3512-12.111 6.7579-16.872 8.2958"/>
  </g>
  <path d="m-37.969 205.91c-1.4935 5.9446 2.4547 13.767 11.593 18.144 26.928 12.865 52.052 15.556 77.56 10.366 4.9094-0.99076 9.39-4.7616 12.318-8.769s9.2422-7.7043 12.791-8.1627c0.62107 4.7763-5.5157 17.065-12.954 23.024 6.0924 0.99076 17.242-1.4935 24.577-4.7616-1.39 5.6488-5.5453 16.547-10.603 22.802 5.9446 1.0795 18.632-0.79852 26.662-4.6728-0.5915 3.5786-1.183 7.8373-2.4695 11.209-5.2643-2.8688-14.447-4.3032-18.336-2.1885-4.3623 2.3808-4.1701 5.1608-3.475 8.0296-5.9446-0.78373-13.974-1.7745-18.144-2.7652 2.085-3.475-1.5823-8.5767-8.2218-10.011-8.7246-1.8928-13.619 0.0887-13.782 5.9446-20.614-4.658-62.521-15.157-79.305-26.81-8.769-6.1072-9.952-16.503 1.7893-31.379" fill="#a48751"/>
  <g fill="#dcdddd">
   <path d="m200.52 188.43c10.514 1.9815 21.013 6.3438 30.728 13.486-2.78-3.9778-6.1812-10.75-6.9205-13.057-3.6081-0.88725-11.86-3.6081-16.503-5.9593-1.3161 1.6858-3.7412 3.9482-7.305 5.5305"/>
   <path d="m240.82 212.75c-6.9797-1.8336-14.861-5.353-20.067-8.0296-2.647-1.3604-4.939 3.0166-1.1978 4.8651 4.1109 2.0259 17.745 3.8595 21.264 3.1645"/>
   <path d="m232.12 239.66c-4.5398-2.3068-12.495-8.1775-15.172-11.076 1.3457 3.0462 2.159 5.2052 2.6026 7.512 4.4658 2.1442 10.115 3.8595 12.569 3.5638"/>
   <path d="m220.45 240.03c2.4547 2.8983 5.2052 5.8706 7.4381 7.1423-1.8632 0.8133-4.4658 0.8133-6.6248 0.73937 0-2.4547-0.14788-4.3919-0.81331-7.8817"/>
   <path d="m63.881 240.11c4.5102 0.99076 16.799-0.79852 24.133-4.658-1.9815 6.6396-4.8503 15.364-10.706 23.098 6.8466 1.5823 20.821-1.9815 26.677-4.658-1.0056 6.536-3.475 15.882-8.0887 22.861 6.2995-0.66544 20.673-6.0185 28.2-12.85-0.78373 4.2588-1.5822 9.2126-6.1368 14.27 7.1276-1.183 17.242-6.4473 22.196-10.499-1.0795 5.5453-2.4695 11.697-6.2403 15.852 9.5083 0.69501 34.1-11.002 45.205-22.595 0.99076 3.756 2.2773 9.2126 0.88725 14.373 4.9538-4.7616 13.575-15.364 16.458-22.61 1.878 3.5786 4.8503 9.6266 6.2403 13.294 1.0943-4.7616 2.8688-10.41 4.2588-14.58-5.7375-3.3715-16.148-13.871-16.946-20.318-3.3715 9.6118-22.802 24.089-33.301 27.948 1.878-7.4824 1.4344-11.638 0.19224-17.05-4.3623 4.9686-11.889 8.9316-15.852 10.514 2.7652-4.5545 3.8595-7.9261 4.1553-13.131-5.8706 6.3882-11.372 9.5083-19.83 11.741-4.5545 3.7116-10.943 8.9168-14.373 7.8817-3.4159-1.0351-5.5009-13.235-1.9224-24.089-3.1202 3.7116-7.4381 5.353-11.608 6.5508 2.9871-5.2052 2.5287-10.558 0.90203-15.32-3.5638-1.671-9.8041-4.5545-13.59-6.817l0.3549-1.4048c-2.4399-0.54714-5.6192-0.73938-8.7394-0.25139-0.36969 5.8115-5.2939 16.503-12.525 22.447"/>
   <path d="m74.811 206.65c3.342-2.3068 12.14-3.1497 17.316 1.5675 1.6414 1.4787 0.31054 3.9335-1.6266 4.8207-0.36969-2.8983-7.2902-6.2403-15.689-6.3882"/>
   <path d="m84.921 218.4c4.8355 1.8632 10.632 2.9723 13.087 3.268 2.1738 0.26617 2.6765 5.3087 0 4.5397-3.6525-1.0499-11.372-5.7967-13.087-7.8078"/>
   <path d="m69.384 185.83c7.1423-0.81331 17.02 3.7856 20.377 8.0296 2.78 3.5194-1.8041 6.4621-3.8743 3.1202-3.4159-5.5009-10.41-9.5083-16.503-11.15"/>
   <path d="m11.816 167.4c9.1978 9.183 37.412 17.612 50.322 15.527-4.0518 1.0943-7.8817 2.5286-10.824 4.5989-11.165-0.42883-36.983-10.824-39.497-20.126"/>
   <path d="m5.0347 146.94c6.5656 5.353 18.647 12.096 26.263 13.56 3.3863 0.66543 3.4898 4.0518 0.75416 5.0425-1.1978 0.42884-2.5139 0.54714-3.7116 0.54714-7.5564-3.7264-17.952-11.608-23.305-19.15"/>
   <path d="m27.679 120.14c5.1312 6.817 12.007 13.131 18.218 16.769 1.8484 1.0943 1.9224 4.1701-1.5379 4.9686-4.7616-3.5194-14.048-12.762-16.68-21.738"/>
  </g>
  <path d="m41.786 258.65c-3.9039 3.2532-2.8983 22.595 1.9667 23.749 4.8651 1.1682 19.002-11.002 18.085-17.952-0.93161-6.9501-16.577-8.695-20.052-5.7967" fill="#38393a"/>
  <path d="m101.5 265.09c-6.0629-3.1941-20.2-4.9242-21.945 0.75416-1.7301 5.6784 8 22.699 11.357 22.935 3.3568 0.23659 9.9667-9.1534 11.12-13.087-1.8484 0.79852-4.4954 0.84288-6.122 1.0499 2.4251-3.0314 4.244-7.305 5.5897-11.653" fill="#38393a"/>
  <path d="m107.6 273.71c5.2052 0.73937 10.189 0.81331 13.013 0.81331 1.6266-2.3068 3.4898-8.5471 3.4898-10.632-3.7116 2.7505-11.224 7.8078-16.503 9.8189" fill="#a48751"/>
  <path d="m127.22 274.97c3.5638 0.14787 8.2514 0.36969 11.372 0.22181 0.75416-2.3068 1.3457-4.9538 1.5675-7.5268-3.5046 2.3956-8.0296 5.4418-12.939 7.305" fill="#a48751"/>
  <path d="m103.2 118.44c-0.25139 1.183-0.51756 3.1349-0.68022 4.3919 2.6322 3.2976 7.7634 8.207 14.359 13.93 0.36968-2.4991 0.94639-5.1164 1.8188-7.3641-5.8706-3.9778-11.15-7.7043-15.497-10.958" fill="#38393a"/>
  <path d="m137.45 141.72c0.19224 3.9335 0.1183 8.0296-0.50277 11.386 20.658 15.985 49.198 30.388 62.58 36.126 4.8946-2.366 5.7523-3.2976 8.2958-6.329-17.641-8.9168-45.959-25.582-70.373-41.183" fill="#38393a"/>
  <path d="m137.45 141.72c-6.6396-4.244-12.998-8.4141-18.765-12.318-0.87246 2.2477-1.4492 4.8651-1.8041 7.3642 5.7671 5.0129 12.673 10.632 20.067 16.34 0.62107-3.3568 0.69501-7.4529 0.50277-11.386" fill="#006c95"/>
  <g fill="#0f141b">
   <path d="m235.54 191.67c-27.874 0.3549-86.152-39.438-139.53-77.25-1.7893-1.2717-1.0943-2.3512 0.73937-1.1238 50.558 33.73 110.92 75.017 137.09 75.86-0.78373-7.3494-1.1238-11.209-2.292-17.848-0.26617-1.5527 0.42884-1.7745 1.2569-0.45841 2.8983 4.5693 4.9686 8.3697 7.2754 14.521 11.283-57.153-3.4898-95.867-40.68-117.57-43.682-25.508-88.873-5.3826-113.08 24.532l-1.3013-1.9667c25.908-33.346 73.922-50.055 115.99-25.464 42.336 24.739 53.841 72.207 40.769 123.12-0.57671 2.2625-1.9519 2.159-2.6765 0.20703-1.8484-4.8799-2.8096-7.7634-5.0425-11.83 1.109 5.2791 1.4787 8.2514 2.159 14.521 0.0444 0.50277-0.29575 0.75416-0.68022 0.75416"/>
   <path d="m235.62 143.61c0.10351-11.549-1.6858-20.067-5.708-29.427-0.9464-2.2033 0.16266-2.7209 1.2126-0.57671 4.5989 9.3309 6.9797 19.046 6.329 30.048-0.16266 2.8244-1.8632 2.78-1.8336-0.0444"/>
   <path d="m226.6 152.38c-3.7708-24.828-21.013-62.3-38.492-76.569-1.464-1.183-0.70979-2.1885 0.81331-1.0647 18.943 13.797 36.495 51.372 39.512 77.442 0.28096 2.4251-1.4787 2.573-1.8336 0.19224"/>
   <path d="m199.73 123.39c-4.5398-7.6895-8.8133-12.836-16.355-19.15-1.2274-1.0351-0.45841-1.9667 0.85767-1.0351 7.1719 5.0721 12.821 11.12 17.08 19.238 1.3456 2.573-0.16267 3.3272-1.5823 0.9464"/>
   <path d="m200.33 144.1c-8.7098-12.969-24.266-29.9-36.51-39.29-1.9076-1.4492-1.183-2.3808 0.81331-1.0647 12.998 8.5915 28.466 25.331 37.279 39.409 1.1534 1.8336-0.44363 2.6322-1.5823 0.9464"/>
   <path d="m187.59 149.41c-13.9-15.601-27.446-28.466-40.34-37.797-1.464-1.0647-0.70979-2.1146 0.79852-1.0943 12.732 8.6654 26.898 21.043 40.828 37.649 1.2865 1.5379-0.0739 2.6026-1.2865 1.2422"/>
   <path d="m175.15 153.57c-14.27-11.697-30.033-22.802-44.762-30.61-1.8484-0.97597-1.2865-2.085 0.62107-1.1978 14.595 6.8318 30.95 17.627 45.235 30.418 1.464 1.3161 0.26617 2.4991-1.0943 1.39"/>
   <path d="m225.95 87.701c8.6211 0.25139 13.323-2.3956 15.616-7.2458 2.3956-5.0425 5.1608-6.4769 11.682-5.4714 5.2052 0.79852 8.7394-1.0055 10.307-4.4362 2.2477-4.9538 6.1516-4.8503 6.9649 0.79852 2.5139 17.346-2.6913 38.758-19.993 46.773-3.8595 1.7893-6.61 4.9982-6.9205 10.129l-1.5083-3.756c0.9464-4.3327 3.4455-6.6248 7.4233-8.5471 16.532-7.9704 20.288-27.357 19.031-44.495-0.20703-2.7505-2.1146-2.647-3.0758-0.13309-1.8189 4.7911-5.9741 7.1128-12.185 6.1072-4.8946-0.79852-7.8226 0.69501-9.6118 4.4806-2.4991 5.2643-7.3789 8.0296-16.414 8.4141z"/>
   <path d="m126.91 60.916c-4.0813-6.2403-4.5841-17.109 4.939-24.917 5.7671-4.7172 7.0092-9.1091 4.2884-18.248-3.4159-11.475-0.5915-19.86 11.12-30.669 8.5915-7.9261 13.116-18.972 13.116-31.734 0-5.7671 3.5046-6.0776 5.7227-2.3808 9.0499 15.039 10.189 39.423 1.4492 54.329-4.0518 6.9205-5.3678 16.325 1.0055 22.019 8.2958 7.3937 11.889 17.316 8.1035 27.342l-2.6765-0.56192c3.2828-8.3401 1.0203-17.198-7.3494-25.05-7.098-6.6396-5.9298-16.414-0.87245-24.843 7.6451-12.776 6.6396-37.974-1.4492-52.377-1.0499-1.8484-1.8632-1.7449-1.8484 1.5379 0.0887 13.516-2.7209 22.758-13.959 33.242-10.129 9.464-13.427 18.573-10.351 28.643 3.4898 11.416 2.3068 15.394-4.4806 20.702-8.6802 6.8022-7.6747 16.458-4.0222 21.959z"/>
   <path d="m65.017 109.37c2.573-0.20702 8.2958 1.1978 10.736 2.5582 0.8281 0.4732 1.3309 0.32532 0.85767-2.2181-0.68022-3.756-2.5287-9.671-5.8854-14.758-0.79852-1.1978-0.44362-1.6562 0.88725-1.6562 2.4399 0 5.4566 0.84288 9.4048 3.8004 3.1349 2.3216 5.2495 2.3512 6.2107 1.2569 1.5675-1.7893-8.7542-25.124-39.039-20.983-9.8928 1.3457-17.656 0.57671-22.196-7.8965-11.771-21.989-34.573-20.214-44.303-17.627-1.6562 0.44362-1.6858 1.3013 0.69501 1.9815 9.4048 2.7357 14.669 9.39 17.686 17.523 5.7523 15.438 11.697 22.758 23.113 23.689 8.9908 0.73937 11.786 2.5582 13.19 9.5379 2.8244 13.945 18.277 22.536 28.436 22.536 4.9094 0 5.3383-0.94639 4.5545-3.9187-1.0203-3.9039-2.5878-7.9852-5.146-12.17-0.72458-1.183-0.4732-1.5527 0.79852-1.6562m-0.13309 19.889c-11.549 0-27.031-5.5601-30.728-24.192-0.93161-4.6876-5.3087-7.4824-11.15-7.9704-14.314-1.1682-17.449-5.5009-24.799-24.991-2.8688-7.6155-9.0351-13.604-16.739-16.414-3.5933-1.3013-4.5693-4.6137-0.17745-5.7819 14.98-3.9926 34.78-3.4307 46.58 18.603 4.1405 7.7338 11.815 7.6895 20.2 6.5508 34.129-4.658 44.067 20.318 40.799 24.725-1.0943 1.4787-5.2495 2.0702-8.6802-0.84288-2.573-2.1738-4.8355-3.1793-6.8909-3.4159 3.0166 4.9686 4.658 10.115 5.3383 13.856 0.9464 5.1904-1.5675 5.5453-3.5342 4.4658-2.0407-1.1386-5.8263-2.3216-8.3697-2.4695 2.3512 3.9039 3.8447 7.9113 4.7468 11.372 1.3457 5.1017-0.69501 6.5065-6.5952 6.5065"/>
   <path d="m104.17 119.19c-5.1165 39.69 25.627 75.209 68.954 74.824 14.447-0.13309 27.061-4.7172 33.701-11.712l2.3068 1.1386c-7.4233 7.9409-20.998 12.821-36.007 13.161-41.715 0.9464-78.152-33.701-71.527-79.098z"/>
   <path d="m127.95 165.52c-11.15 0.68022-16.266-23.394-9.7597-36.954l1.5822 1.2126c-5.5157 12.155-0.50277 33.908 8.0592 33.42 6.0333-0.36968 10.189-10.839 8.2958-22.433l2.0111 1.1682c1.8041 13.043-2.9131 23.142-10.189 23.586"/>
   <path d="m127.18 142.85c-1.0647 0.0739-1.8336 1.464-1.7893 3.6673 0.0296 1.8632 0.81331 3.9778 1.9372 3.963 1.3457-0.0296 2.159-1.8188 2.0702-4.1405-0.0887-1.9076-0.90204-3.5786-2.2181-3.4898"/>
   <path d="m26.657 166.72c-8.2662-4.2884-15.778-10.47-23.704-19.357-0.93161-1.0499-0.56192-1.7301 0.65065-1.7449 10.736-0.26618 25.39-2.0407 37.028-5.0721-6.4325-4.2884-11.091-12.111-14.122-20.007-0.53235-1.3604 0.07394-1.7006 1.2274-1.183 6.9353 3.1349 18.011 5.5896 24.414 5.3087l2.8983 1.7301c-7.6007 0.63586-19.194-1.5231-25.967-4.6137 3.549 7.1276 8.7837 14.24 15.29 18.721 0.68022 0.4732 0.93161 1.2126-0.19224 1.5231-11.283 3.1645-26.44 5.6192-37.841 5.7375 7.7338 8.0296 15.571 14.048 23.63 18.07z"/>
   <path d="m50.361 188.25c-14.418-1.2274-33.804-10.203-39.837-19.978-0.65065-1.0499-0.14788-1.5822 0.75416-1.5379 6.2847 0.22181 13.693-0.4732 19.756-2.0702 1.8928-0.50278 2.2773 0.65064 0.42884 1.2865-5.5749 1.8928-11.445 2.854-18.026 2.7948 6.4917 8.5915 25.346 17.375 38.699 17.982z"/>
   <path d="m88.467 151.25c1.671-0.0739 1.7597-2.0407-0.31054-2.0702-5.3531-0.0887-14.447 1.4344-19.638 3.342-1.3161 0.48799-1.1238 1.6562 0.63586 1.1978 6.2995-1.597 12.126-2.1442 19.312-2.4695"/>
   <path d="m95.333 168.66c2.4695 0 2.2329-2.7061 0-2.6322-5.2643 0.16267-11.579 1.0351-16.68 2.5582-1.1386 0.32533-1.4344 1.8189 0.63586 1.4344 3.9187-0.72458 11.179-1.3604 16.044-1.3604"/>
   <path d="m110.97 179.99c1.8632-1.4344-0.0739-3.3272-1.7597-1.9963-2.6322 2.0702-7.5712 4.1553-11.653 4.9538-1.1238 0.22181-1.1091 1.3604 0.39926 1.3604 2.8836 0 9.8928-1.9224 13.013-4.3179"/>
   <path d="m85.725 196.97c-4.0074-4.939-9.952-8.1183-16.68-9.7597-0.91682-0.22181-1.0647-0.84289-0.5915-1.5823 3.3124-5.1904 16.148-7.9261 22.255-3.3124 1.5823 1.1978 0.75416 2.159-0.87246 1.0351-4.4954-3.1202-14.832-1.7153-18.617 2.3068 6.5508 1.9076 12.037 5.7819 15.556 10.47 1.2126 1.6118 0.1183 2.292-1.0499 0.84288"/>
   <path d="m85.881 218.74c3.6821 2.3808 7.4972 4.2736 11.889 6.1812 1.5823 0.69501 1.183 1.8632-0.50277 1.2569-4.0518-1.4787-9.4492-4.0074-13.072-6.0924-0.60628-0.34011-0.7098-0.75416-0.41405-1.464 1.1682-2.7061 2.1885-5.0129 4.5841-6.8466-2.9279-3.0166-8.488-4.0961-13.767-3.4603-0.78373 0.10351-1.1978-0.1183-1.1534-1.0499 0.22181-4.5545 5.9446-10.677 10.543-13.146l1.2126 1.4492c-3.7708 1.8484-8.4584 6.6691-9.2569 10.41 5.8854-0.44363 12.2 2.085 15.054 5.6044 0.44362 0.54713 0.36969 0.91682-0.16266 1.2865-2.2773 1.6118-3.8004 3.342-4.9538 5.8706"/>
   <path d="m71.707 184.31c-13.442-0.84288-23.734 3.9482-28.865 13.531-5.6932 10.632-11.8 14.728-19.815 10.662-9.0795-4.5989-22.285 2.7209-24.843 16.843-0.17745 1.0055 0.05915 1.5822 1.8336-0.0148 5.7227-5.1312 13.176-6.5508 22.048-0.96117 17.035 10.721 32 12.2 38.861 3.0018 7.6599-10.262 14.847-12.909 24.695-10.558l-0.81331 2.4251c-9.1386-2.1442-15.275 0.87246-22.285 9.4788-8.8725 10.884-23.453 8.6802-41.494-2.6765-8.3105-5.2348-15.734-2.6765-19.815 0.97597-2.7653 2.4991-5.4714 1.9667-4.9538-1.9076 2.1442-15.926 16.932-23.956 27.549-18.573 6.1072 3.1054 12.318-0.38448 17.213-9.7301 6.0629-11.564 18.543-16.473 33.36-14.595z"/>
   <path d="m139.96 269.17c-6.0037 4.7468-14.743 8.7837-22.27 10.011-1.5527 0.25139-1.7893-0.7098-0.75416-1.6414 3.0018-2.7505 4.2884-6.5508 5.1756-10.75-6.2995 5.146-17.671 10.381-26.322 11.135-1.0795 0.13308-1.5527-0.53235-0.88725-1.5231 3.475-5.1904 5.6932-11.993 7.2902-20.466-7.4972 3.342-18.854 4.7616-25.316 3.756-1.0943-0.16266-1.183-0.93161-0.63586-1.597 4.7024-5.7523 7.6155-13.323 9.7449-20.155-6.6396 2.8096-16.473 4.3623-23.068 3.549-1.1534-0.14787-1.3752-0.88724-0.42884-1.6414 6.1516-4.8651 13.146-15.645 13.279-22.418l1.6414-0.22181c-0.07394 7.2902-5.3974 16.68-11.682 22.403 6.9501 0.31054 16.163-1.8928 21.945-4.6433 1.0647-0.51756 1.6414-0.14787 1.3013 1.0203-1.9667 6.7431-5.2348 15.571-10.041 21.885 6.817 0.5915 18.085-1.5675 24.665-4.8651 1.0055-0.50277 1.5379-0.0148 1.3456 1.0943-1.4492 8.4732-3.4455 15.719-6.8614 21.324 9.0056-1.3752 20.244-7.5564 25.553-12.214 0.65065-0.56192 1.3752-0.26617 1.2422 0.7098-0.34011 2.854-1.1534 8.4436-4.2736 12.466 6.7726-1.7449 14.344-5.6636 19.593-10.041z"/>
   <path d="m133.93 284.69c-1.7745-0.0591-1.8336-0.66543-0.87246-1.8041 3.9039-4.6433 6.2551-12.155 6.5804-17.686 0.13309-2.0998 1.3309-2.085 1.3604 0 0.0444 5.634-1.5379 12.495-4.9982 17.287 11.726-0.65065 32.458-13.22 42.366-22.018 0.78373-0.69501 1.3309-0.63586 1.6562 0.39926 1.3309 4.1405 1.7301 7.4824 1.39 11.431 6.536-6.3882 12.2-14.536 15.054-21.383 0.76895-1.8189 1.9224-1.3309 1.2422 0.51756-2.9279 8.1035-10.396 19.031-17.405 24.887-1.1682 0.97597-1.8484 0.28096-1.4935-0.87246 1.0351-3.3715 0.7098-7.793-0.48798-12.081-9.9224 8.7246-31.024 21.708-44.392 21.323"/>
   <path d="m208.06 252.66c-1.4048 3.8743-3.2532 9.2126-4.3327 13.486-0.34011 1.3161-1.464 1.7893-2.1146 0.0444-1.5231-4.0813-3.2828-8.2514-5.6932-12.54l0.96118-1.9076c2.2181 3.8743 3.9482 7.4233 5.6044 11.652 1.0203-4.3623 2.4991-9.1978 3.6525-12.436z"/>
   <path d="m196.6 221.24c-5.0425 3.5194-6.7726 9.4196-3.4898 14.847 4.0666 6.6987 14.27 15.719 21.087 18.44 4.5102 1.8041 5.9002 1.0647 6.0481-4.4362 0.2366-7.719-1.9372-18.381-8.2958-26.514-4.525-5.7671-10.721-5.5749-15.349-2.3364m16.902 35.209c-7.8374-3.1793-18.869-12.969-22.61-19.15-3.5194-5.7819-2.9575-12.998 4.2144-18.1 5.6932-4.0518 13.383-4.2292 18.913 2.8392 5.9298 7.5712 8.5619 19.017 8.281 28.185-0.25139 7.9113-3.4159 8.3993-8.7985 6.2255"/>
   <path d="m219.93 236.71c1.2717 3.6969 4.8651 7.7486 8.2662 9.8041 1.0203 0.62107 1.1978 1.4048-0.0887 1.7006-2.159 0.4732-4.3179 0.66544-6.7579 0.51756l-0.11829-1.9519c1.4935 0.28096 3.1645 0.3549 4.7616 0.13309-2.3808-1.5231-4.2736-3.6673-5.4122-5.6488z"/>
   <path d="m222.75 210.42c1.4935 8.6211 6.5656 22.492 10.233 28.895 0.5915 1.0203 0.26618 1.6858-1.1238 1.6858-3.342 0-8.4288-1.9224-12.244-4.1848l-0.48798-2.2921c3.1941 1.9815 7.8373 3.5046 11.046 4.0961-3.7264-7.1423-8.0592-20.525-9.3309-28.702z"/>
   <path d="m238.12 212.23c-4.9982-4.7024-12.569-16.872-15.054-23.675l2.1442 0.62107c2.8688 7.7634 10.706 18.47 16.044 22.98 1.2569 1.0499 1.1682 1.8189-0.51756 1.9667-5.2052 0.48799-15.586-1.2274-20.702-4.1405-1.7154-0.97597-1.183-1.9815 0.62107-1.1978 5.0425 2.1885 11.874 3.4455 17.464 3.4455"/>
   <path d="m127.78 221.09c-6.2255-2.5286-12.466-0.81331-14.595 4.1996-4.1405 9.7449-5.3678 19.874-4.1701 27.682 1.0056 6.5952 2.8836 6.1664 9.1386 2.2625 6.9057-4.3179 13.575-12.717 16.311-20.17 1.8928-5.1312 0.2366-11.165-6.6839-13.974m-20.85 32.177c-1.7153-10.41 1.464-23.231 3.963-29.087 2.8688-6.7283 11.046-8.1922 17.996-5.3826 8.0148 3.2532 10.617 10.1 8.0739 17.02-2.8244 7.7043-10.617 16.695-17.745 21.146-8.3549 5.22-11.017 4.0666-12.288-3.6969"/>
   <path d="m80.383 272.71c-6.4621-0.85767-13.043-1.8336-19.623-2.9427l1.183-3.0758c5.9002 0.97597 11.845 1.8632 17.76 2.647z"/>
   <path d="m39.352 265.75c-31.645-6.5804-61.353-15.763-78.64-26.514-9.3457-5.8115-10.721-12.17-6.7135-22.492 5.7523-14.787 36.436-45.486 61.664-58.972l2.2181 1.8189c-21.782 11.445-55.542 43.342-61.235 58.011-3.4159 8.7542-2.9871 13.959 5.7523 19.283 15.704 9.5675 44.895 18.854 77.338 25.641z"/>
   <path d="m119.56 276.34c-5.1165-0.2366-10.499-0.60629-16.059-1.0795l6.9797-2.8392c3.7412 0.2366 7.4085 0.42883 11.017 0.56192z"/>
   <path d="m131.46 273.19c2.5582 0.0148 5.0573-0.0148 7.512-0.0739h0.0148l-1.0203 3.5194c-4.2144 0.0887-8.769 0.0591-13.575-0.10351z"/>
   <path d="m163.97 272.17c-1.5083 5.4566-6.4473 14.462-9.4048 15.128-1.9667 0.44362-6.4769-2.1294-10.396-5.5305l2.1294-1.0056c1.8928 1.8189 5.9889 4.7616 7.8078 4.3771 1.7597-0.36969 5.5453-6.3882 7.4233-11.904z"/>
   <path d="m24.241 208c1.2569-9.1534 3.9335-17.922 7.8226-25.287l1.8928 0.81331c-3.7708 7.2902-6.2995 15.941-7.4381 24.961z"/>
   <path d="m26.332 228.22c1.4196 12.865 6.0037 24.872 14.255 32.917l-0.81331 2.4991c-9.8041-8.8281-14.891-22.521-16.074-37.013z"/>
   <path d="m-2.4389 253.15c-18.869-25.538-9.5083-65.686 11.076-89.819l4.6285-2.5139c-21.93 23.542-33.183 65.331-12.14 93.235z"/>
   <path d="m226.83 194.31c12.2-2.8096 18.144 3.5934 22.714 13.738 1.5527 3.4455 4.0813 4.8946 8.7098 5.146 10.913 0.60628 16.059 6.0628 17.124 17.952 0.4732 5.4122-2.366 6.0185-5.0721 3.7116-7.5416-6.3882-14.403-7.0536-21.412-3.7264-7.024 3.3272-15.542 4.3031-20.658 1.1386l-0.9464-3.1941c4.3179 3.6969 13.797 3.7264 20.865 0.28096 8.4584-4.1109 16.015-2.3364 23.246 3.7412 1.7006 1.4344 2.3364 1.1682 2.0702-1.8189-0.81331-8.9908-4.6285-15.468-15.32-16.059-4.1701-0.2366-7.9556-1.0203-10.351-6.3142-5.1017-11.312-11.8-14.226-19.712-12.185z"/>
   <path d="m103.85 275.18c-3.0906 6.5804-9.6562 14.536-13.072 14.58-5.0277 0.0887-13.811-18.721-12.673-23.645 1.6118-6.9945 16.577-6.5656 23.689-2.1146l-1.0499 2.2773c-5.4566-3.549-18.81-4.8207-20.067 0.34011-0.90203 3.6821 6.7579 20.969 10.115 20.969 2.2181 0 7.305-6.1072 10.174-11.623z"/>
   <path d="m42.44 259.95c-3.1202 2.9427-2.7653 20.022 1.4787 21.294 4.4214 1.3161 17.139-10.292 16.725-16.044-0.3549-5.1017-14.669-8.5767-18.203-5.2495m0.72458 23.394c-5.8263-1.7597-6.7135-21.161-2.3956-25.301 4.8059-4.6285 22.063-0.73937 22.61 7.0092 0.50277 7.098-14.669 19.963-20.214 18.292"/>
  </g>
 </g>
</svg>
