<svg xmlns="http://www.w3.org/2000/svg" viewBox="0 0 373.48 499.65">
  <title>Landorus</title>
  <g>
    <path d="M164.84,261.56,45.74,304.5c-1.49,4.29-1.69,9.31,1.21,15.4,1.59,3.33,2.54,7.14.48,10.94S43,339.25,43.3,342.11s5.87,24.59,8.25,27.13S67.74,383,69.32,382.89c3-.21,11.4-2.81,13.65-1.38s1.9,12,3.28,13.33c4.87,4.55,18.36,12,22.74,13.54,2.12.74,6,1.06,8.68-.53,3.21-1.93,6.41-1.93,9.73.64s7.3,6.55,11.63,6.34c6.67-.31,16.29.11,22.43,1.38,1.48,2.33,3.28,5.92,4.55,5.82a19.17,19.17,0,0,1,10.58,1.69c3.07,1.59,8.72,3.69,11.31,2.43,3.71-1.8,5.4-7.4,7.09-8.46s7.41-.32,9.84,1.06,5.5,5.5,7.3,7.4c2.6,2.76,7.82,3.87,14.17,1.8,4.87-1.59,11.58-6,13.65-8.36a16.93,16.93,0,0,1,4.44-3.59c6.24,5.5,14.34,13.32,17.24,15a14.75,14.75,0,0,0,11.53,1.27,12.74,12.74,0,0,1,8,.42c2,1.38,7.09,7.3,9,10.15-2.93,3.26-7.62,9.75-7.3,11.27.56,2.62,12.33,10.72,14,10.23,2.38-.71,7.3-6.26,10.55-6.66,2-.24,10.15,7.62,10.23,10.95s-1.82,7.3-2.69,9-.77,3.76,1.19,5.71c2.93,2.94,4.69,7.68,6.1,11,.88,2.06,2.62,4.13,5,4.13s4.44.16,5.56.24a2.72,2.72,0,0,0,3-2.23,6.3,6.3,0,0,1,1.75-3.41c.63-.79.71-2.3-1.19-3.17s-8.1-3.81-8.26-5.87,4.61-6.43,7.3-8.25,3.18-3.26,3.26-5.79a71.49,71.49,0,0,0-.16-9.37,3.42,3.42,0,0,0-3.65-3c-2.94.24-5.87.63-9.05,1.19-2.22-4-7.22-9.68-9-11.66,2.3-2.46,5.55-6.83,6.11-9.44s1.59-9.44.16-11.67-4.6-2.38-6.9-2.14a124.47,124.47,0,0,0-3.5-16.1c8.89-6,31-21.25,33.33-23.17,3-2.46,3.41-3.81,2.14-7.69-1.14-3.48-.16-6.11,2.14-8.49s7-7.28,8-9.76a40,40,0,0,0,2.86-14.2,41.53,41.53,0,0,1,6.58-4.05c3-1.5,3.72-3.25,3.81-6.58.24-8.7.31-23.51-.5-30.39-.42-3.59-5.33-7.45-12.06-7.61-4.44-.11-8.15-4.23-7.93-7.62s1.26-9.64-1.06-12.48c-3.81-4.66-13.18-15.67-18.83-19.68-2.54-1.8-6.24-2.64-11.53.32s-14.71,7.49-16.92,8.46c-3.6,1.59-8.54-.53-8.36-4.23C294.56,256,294,252,290,252c-2.06,0-7-1.32-7.77-3.41-1-2.93-3.39-4.71-6.43-3.25a43.36,43.36,0,0,1-6.26,2.62c-1.43-2.38-3.34-5.4-4.92-6.35s-13.49-.25-17.22.27-5.91,1.87-7,4.49c-1.9,4.68-3.49,9.74-4.47,12.3-1.48,3.89-5.57,5.86-9.73,6.66-2.06.4-3.57-.08-4.52-2.46s-3.1-3.17-5.56-3.17-7.2.19-9.91.48c-3.73.39-5.24,1.42-6.59,3.49s-2.54,3.25-4.92,3.65a47.43,47.43,0,0,1-7.61.87c-1.91-.08-3.18-1.43-4.52-3.33s-4.24-4.6-5.56-5.08C175.24,259.12,170.24,259.76,164.84,261.56Z" transform="translate(-0.03 0)" style="fill: #fff"/>
    <path d="M182.93,15.88c-9.36,0-37.93-.12-46.81.32-3.17.16-6.66,1.43-8.56,4.29-9.1,13.64-16.61,39.06-10.16,56a16.67,16.67,0,0,0,8.25,9.2c4.76,2.54,27.77,11.74,39.19,15.23l126-4.76c11.74-3.81,46.65-16.66,52.36-19.67,5.47-2.89,5.81-15.42,3.65-34.91-1.91-17.14-7.29-33.86-12.7-34-8.88-.16-36.17,2-47.6,3.34C275.92,12.19,269.42,12,261.8,8.06,240.58-2.94,206.26-1.57,182.93,15.88Z" transform="translate(-0.03 0)" style="fill: #fff"/>
    <path d="M278.77,63.89c7.38-7,18.72-27.74,14.38-31.68-4.07-3.69-20.48,4.58-28.24,10.43-3.57-9.79-17.44-21.23-34.73-21.62-25.73-.59-39.19,18.06-41.86,30.53-7.88-4.71-23-9.71-26.46-7.38C159.19,46,167.71,65,173.44,70.25l-1.15,12.21c-5.47,4.2-8.48,16.16-7.76,24.55a20.12,20.12,0,0,0,7.76,14c-17.14-1.39-35.48,17.22-37.14,33-.26,2.41-1.32,3.38-2.93,4.83-10.81,9.8-17.58,33.78-15.14,44.27,2.17,9.29,19.43,16.94,24.43,17.43,6.49.64,17.68-.64,22.26-3.56,3.18,4.07,6.49,9.16,7.13,14.12s1.27,22.64.76,28.62c3.43-.38,6.36-.13,7.89,1.78s3.18,5,5.47,5.73,8.39.89,10.81-.26,3.56-3.3,4.33-4.32,4.07-2.55,6.61-2.8,8.52.13,10.3.13,3.82,1,4.46,2.41,1.52,3.31,4.45,2.68,8.65-2.42,9.92-6.37a110.91,110.91,0,0,1,4.89-12.7c1.53-3,4-3.86,6.56-4.15a118.73,118.73,0,0,1,16-.51c.75-14.38,4.24-20.83,11.85-29.51a353.67,353.67,0,0,0,23.59-30.67c19.36-11.06,30-42.16,22.69-55.17-9-16.07-22.37-20.15-32.21-20.78,2.06-8.73,2.06-21.43-8.09-32.21Z" transform="translate(-0.03 0)" style="fill: #f2984f"/>
    <path d="M251.72,61.9c-4.05,7.54-18.33,6.66-23.57.63-1.58-2.38-2.82-3.92-3.41-5.79-.79-2.54-3.41-2.46-4.28.16s-2,5.79-3.41,7.7C210,69.51,201.5,71,197.53,66c-8,1.27-23.48,3.81-32,6.67,4.44,9,15.31,19.67,26.57,22.45a108.81,108.81,0,0,0-2.22-15.87c3.89,3.81,14.76,13.25,18,15.39-1.66-5.87-4.36-18-3.09-19.12s9-3.41,10.87-2.06,7.45,6.43,8.33,6.43,7.22-7.22,8.41-7.62,10.47-.08,11.34,1.27.95,13.57-1.19,20.15c4.6-4.44,12-11.74,15.08-16.5-.32,4.68-1,11.9-2.78,16.66,7.3-3.25,28.4-19.2,32.61-28.88C279.4,64,263.3,62.45,251.72,61.9Z" transform="translate(-0.03 0)" style="fill: #fff"/>
    <path d="M202.15,49.71c-8.36,3.46-8.72,11.61-4.62,16.31s12.91,3.6,19.31-1.36a33.88,33.88,0,0,0,3.59-7.45C215.14,56.63,205.28,53.17,202.15,49.71Z" transform="translate(-0.03 0)" style="fill: #fcd13f"/>
    <path d="M225.32,57.54a29,29,0,0,0,3.07,5.35c7.25,5,16.19,5.62,21.15,1.31s6.33-14.3-3.07-17.76c-5.55,3.46-10.38,6.47-13.05,8.29S227.67,57.67,225.32,57.54Z" transform="translate(-0.03 0)" style="fill: #fcd13f"/>
    <path d="M206.78,58.19A2.82,2.82,0,0,0,204,61.06a.62.62,0,0,1,0,.13,3,3,0,0,0,3,2.75,3.11,3.11,0,0,0,2.87-3.2A2.52,2.52,0,0,0,206.78,58.19Z" transform="translate(-0.03 0)" style="fill: #fff"/>
    <path d="M240.66,56.56a2.69,2.69,0,0,0-3,2.36c0,.11,0,.21,0,.32A2.53,2.53,0,0,0,239.94,62h.46a2.69,2.69,0,0,0,2.81-2.56,1.61,1.61,0,0,0,0-.31,2.44,2.44,0,0,0-2.3-2.57Z" transform="translate(-0.03 0)" style="fill: #fff"/>
    <path d="M119.07,37.34C57.46,38.59,17.6,93.58,10.83,139.91c-3.7,1.64-7.48,4.35-8.46,6.88-1.43,3.65,0,35.06,2.69,39.82,2,3.48,5.3,6.36,8.25,7.3,4,20.47,14.28,48.71,22.38,62.52-3.18,5.23-9,16.5-9,20.47,0,10.53,16.53,28.19,23.49,29.35,6.66,1.11,15.86.32,20.78-.79,10.47,10.63,25.71,25.7,34.43,32.52a88.48,88.48,0,0,1-1,15.08c-.53,3.07-.71,6.63,2.11,9.31,7.73,7.3,21.73,14.81,28.88,17.87a9.84,9.84,0,0,0,8.25-.31c2.75-1.48,11.53-5.29,13.22-7,9,4.54,29,12.58,38.4,14.06,7.2,7.51,18.52,19.57,27.19,22.43,23.83,7.84,50.46-24.22,40.51-38.61-6-8.73-9.84-13.17-11.42-18.72s-3-13.49.16-18.89,14.59-31.25,13-37.76c-3.88-15.9-41.69-20.85-48.71-14.28-4.92,4.6-24.63,26.27-26.5,26.66-3.81.79-25.83-10.71-27.29-16.19-.64-2.38,3-28.24,3-32,0-8.25-26.46-24.82-34.06-21.31-4.13,1.9-12.91,7.82-19.15,12.27-8.88-7.3-20.52-20.1-26.55-32.58,10.69-12.06,11.11-21.07,9.84-29.62s-8.71-27-12.69-31.84c-1.48-1.8-6.77-3.81-12.59-4.44C69.32,128.54,90,86,117.59,77,114.1,66.35,112,56.33,119.07,37.34Z" transform="translate(-0.03 0)" style="fill: #756550"/>
    <path d="M96.72,84.8c3.83-4.33,1.35-14.7-6.56-11.64C80.33,77,64.72,92.22,64.25,98.45c-.43,5.6,8.37,7.89,12.58,6.34A25.15,25.15,0,0,0,88.37,95C90.8,90.72,94.29,87.55,96.72,84.8Z" transform="translate(-0.03 0)" style="fill: #d0879d"/>
    <path d="M83.56,158.14c-6.52-9.2-19.22-2.82-17.74,5.28,1.09,6,7.75,24.38,11.83,29,4.55,5.18,17.47,6.46,17.38-4C95,184.25,87.11,163.14,83.56,158.14Z" transform="translate(-0.03 0)" style="fill: #d0879d"/>
    <path d="M127.11,240.92c-.06,4.15.59,9.66,4.08,12.45s16.27,10.36,20.74,12.05,10.6.6,13-4.28c1.88-3.89-6.44-12-13.54-16.46-9.72-6.15-17.91-7.74-20.61-6.15A28.5,28.5,0,0,0,127.11,240.92Z" transform="translate(-0.03 0)" style="fill: #d0879d"/>
    <path d="M216.42,280.58c-1.51,7.18-3,19.53-.95,22.88s8.42,9.77,12.35,10.28c10.52,1.35,29.32-3.35,35.7-9.89,1.28-3.82,2.24-11.24-2.47-15C251.33,281.14,228.93,274.85,216.42,280.58Z" transform="translate(-0.03 0)" style="fill: #d0879d"/>
    <path d="M166.34,121.41c2.13,10.37-10.12,16.61-17.54,18-3.87.72-5.94,4.72-6.65,8.81-.47,2.78-2.24,2.48-3.25,1a17.35,17.35,0,0,1-1.51-3.65C140.33,136.16,153.41,123.25,166.34,121.41Z" transform="translate(-0.03 0)" style="fill: #d0879d"/>
    <path d="M215.41,153c3.21-1.63,3.8-4.58-.53-4.87-14.49-.95-21.27,7.55-20.42,11.64.53,2.54,5.12,4.77,8.94,1.51A65.11,65.11,0,0,1,215.41,153Z" transform="translate(-0.03 0)" style="fill: #d0879d"/>
    <path d="M229,178.92c-.93,1.62-1.88,2.08-4,1.9a17.67,17.67,0,0,1-10.16-4.76c-1.9-1.74-3.61-1.25-3.25,1.35,1.76,12.58,9.8,24.25,26.66,23.56,13.64-.55,19.28-8.09,18.56-16.34s-7.61-12.54-14.28-12.38S231.33,174.87,229,178.92Z" transform="translate(-0.03 0)" style="fill: #d0879d"/>
    <path d="M273,178.68c1.49,1.29,6.6.26,7.85-.71,1.43-1.12,2.3-4.84.87-6.83s-7-2.93-8.72-1.74S271.23,177.17,273,178.68Z" transform="translate(-0.03 0)" style="fill: #d0879d"/>
    <path d="M276,149.48c3.6-1.19,3.35-4.23.16-5.87-2.93-1.5-16.16-2.85-20.86.4-2.31,1.59-2.45,7.77,2.14,8.09C263.14,152.5,271.47,151,276,149.48Z" transform="translate(-0.03 0)" style="fill: #d0879d"/>
    <path d="M304.79,109.34c-14.81,1.59-13.09,18.49-5.08,26.76,1.67,1.72,1.59,3.23-.24,4.42s-2.69,1.59-4,1.67-2.71,1.63-.16,3.33c5.71,3.81,22.93,5,28.16-4.84C324.31,126.79,317.88,117,304.79,109.34Z" transform="translate(-0.03 0)" style="fill: #d0879d"/>
    <path d="M166.27,185.66c-2-.38-7.23,2.72-7.11,4.2.16,2,7.21,3.66,8.83,2.42S167.67,185.93,166.27,185.66Z" transform="translate(-0.03 0)" style="fill: #d0879d"/>
    <path d="M158.3,175.86c-.09-2.15-3.31-5.11-5-4.42-2.37,1-13.46,15-13.78,17.93s4.51,5.47,6.51,4.52C149.57,192.23,158.46,180.06,158.3,175.86Z" transform="translate(-0.03 0)" style="fill: #d0879d"/>
    <path d="M118.72,182.7c4-.76,5.39,5.81,5.49,11.9s-1,12.11-3.33,15.29C117.43,206.44,113.88,200,118.72,182.7Z" transform="translate(-0.03 0)" style="fill: #d0879d"/>
    <path d="M204.77,214.94c-2.22.13-7.82,21.42-6.76,28.09,1.34,8.37,16.16,5.24,15.18-3.52C212.41,232.48,207,214.8,204.77,214.94Z" transform="translate(-0.03 0)" style="fill: #d0879d"/>
    <path d="M244,86.07c.42-3.81,1-11.62-.19-12.51-1.57-1.19-10.29-1.92-11.77-.84s-6.87,7.16-8,7.19-7.23-6.4-8.83-6.75c-2.44-.52-9.63,1.06-10.37,2.75s.31,8.57,1.06,11.22c2.75,3.38,8.88,10.47,11.21,12.48.1-3.91.42-8.89,1.37-9.84s8.19-2.29,10.37-1c1.38.85,3.81,7.72,4.55,10.47A90.7,90.7,0,0,0,244,86.07Z" transform="translate(-0.03 0)" style="fill: #525557"/>
    <path d="M9.75,162.28C27.33,260.29,118.3,336,194,357.5c7.5,2.13,15.26,7.85,20.94,16,13,18.62,30.15-3,24.76-11.53-7.18-11.39-9.21-21.64-5.93-29.3,3.18-7.4,5.08-12.06,5.29-19,8-1.27,18-3.6,24.33-9.31A126.31,126.31,0,0,1,252,332.22c-1.48,2.59-2.85,5.61-2.6,8.46.48,5.4,1.59,11.74,3.81,15.87a119.12,119.12,0,0,0,9,13.17c6.1,8,2.69,17.93-8.1,30-7.11,7.94-22.16,13.5-31.89,9.52-7-2.86-18.4-11.75-27-22.22-9.52-1.9-29.36-9.36-38.4-14.12-3.42,2.42-9.95,5.16-12.84,6.83s-5.25,2-9.12.3C126,376.23,111,367,106.43,362.4c-3.34-3.34-2.58-5.93-2.12-9.57s1.21-11.25.76-15.05c-9-7.3-27.52-25.08-34.36-32.68-6.68,1.52-17.37,2.25-22,.61C41,303,30,289.59,29.23,283.77c-1.05-4.65,4.39-12.59,11.22-19.25-10.32-14.28-23.8-50.46-27.45-71.4-3-1-8.57-5.4-9.52-11.74a131.7,131.7,0,0,1-1.43-14.44C4.57,167.14,8.64,165.69,9.75,162.28Z" transform="translate(-0.03 0)" style="fill: #635442"/>
    <path d="M137.44,283.72c-2.5-2.06-2-3.81,1.06-4.71,4.91-1.43,12.38-7.93,13.65-13.64a10.47,10.47,0,0,0,13-4.66C164,268,161.63,289.92,162.49,292s6.79,8.94,10.78,11.21C162.89,299.43,144.59,289.59,137.44,283.72Z" transform="translate(-0.03 0)" style="fill: #635442"/>
    <path d="M77.58,192.38c-2.15,3-9.45,5.66-12.86,5.18-2.11-.29-3.51.15-2.38,3,2.38,6,10.79,19.09,14.71,22.69,1.1,1,3.2,1.23,4.86-.8,2.38,2.59,7.72,8.15,12.17,11.27-3.81-6.19-7-11.11-8.25-15.55,4.12-5.87,7.61-10.63,8.56-14.6a39.88,39.88,0,0,0,1-13.33C93.76,197.56,83.13,198.62,77.58,192.38Z" transform="translate(-0.03 0)" style="fill: #635442"/>
    <path d="M64,97.92a15.22,15.22,0,0,1-7,11.37c-3,1.76-2,4.1.6,3.91-3.14,8.52-4.09,26-1.47,37.55a125.06,125.06,0,0,1,13.8,1.16C70,120,96,83.33,117.59,77c-3.21-7.6-2.66-11.4-2.09-20.63-5.24.63-15.35,3.89-18.25,5.23-2.06,1-2.43,2.4-1.27,5.55a46.47,46.47,0,0,1,2.7,12.49c0,2.76-1.15,4-2.87,5.86S89.16,93,87.21,96.28s-7.58,8.49-13,8.6C70,105,64.27,103.82,64,97.92Z" transform="translate(-0.03 0)" style="fill: #635442"/>
    <path d="M210,117.05c8.58,9.35,17.5,7.12,25-1.89-4.55,6.35-10.21,16.22-10.46,24.11-1.55-.18-3.35-.18-4.81-.26A49.44,49.44,0,0,0,210,117.05Z" transform="translate(-0.03 0)" style="fill: #d18344"/>
    <path d="M268.09,85.12c6.24,18.61-17.67,41-40.62,43.47a38.54,38.54,0,0,0-3,10.68c2.66.54,8.58,1.59,11.44,2.65,4.55-4.65,12.16-9.84,20.2-11,0-11.95,16.72-26.23,33.32-25.49,2.33-9.31,1.06-23.49-8-32.37A76.4,76.4,0,0,1,268.09,85.12Z" transform="translate(-0.03 0)" style="fill: #d18344"/>
    <path d="M162,166l.53-2c-4.34-3.39-12.38-7.72-19.86-8.26-4.25-.3-5.95-3.06-6.56-6.42-1,3-.94,6.47-2.1,7.3a21.92,21.92,0,0,0-4.28,4.43c5-.6,11.75-.86,17.2.66,4.08,1.14,3.73,3.71-1.12,6A38.46,38.46,0,0,1,162,166Z" transform="translate(-0.03 0)" style="fill: #d18344"/>
    <path d="M117.41,45.41c9.51,4.11,32.84,10.3,48.18,13a76.77,76.77,0,0,0,7.86,11.79c-2.75.79-5.8,1.57-7.66,2.36a42.54,42.54,0,0,0,6.29,9.53c-3.15,4-7.08,11.79-7.27,18.86-7.08-2.26-34.74-12.66-41.56-16.5C115.59,80.17,113.24,59.19,117.41,45.41Z" transform="translate(-0.03 0)" style="fill: #dbdcdc"/>
    <path d="M288.4,50.21c12.26-2.33,33.63-7.4,44.42-11.42C331.93,29,331,8.49,335.53,7.86c3.59-.49,9.15,16.51,10.79,29.91s4.08,35.3-2.29,38.41-44.62,17.16-53.12,19.94c-.49-6.54-3.8-18.18-9.5-23.06a40.37,40.37,0,0,0,5.93-8A72.42,72.42,0,0,0,278.66,64C282.47,60.37,286.28,54.34,288.4,50.21Z" transform="translate(-0.03 0)" style="fill: #dbdcdc"/>
    <path d="M288.92,194.93c1.82,7.95,4,19.4,3,20.89s-8.12,6.8-8.79,9.12.17,18.74,3,20.06,8.12,3.15,8.62,4.81.52,5.31-.17,9.62a5.45,5.45,0,0,0,7.8,5.63c3.2-1.38,5.93-2.92,9.74-4.82,1.59-8.89,3.65-41.1,2.22-54.27,4.44-2.7,10.37-6.18,10.47-8.25.32-6.51-2.08-23.89-4.28-27-.79-1.11-6.51-1.59-8.41-1.43-3.49,4.44-9.41,9-14.39,12.69C294.64,187.09,292.4,190.86,288.92,194.93Z" transform="translate(-0.03 0)" style="fill: #635442"/>
    <path d="M177.85,175.82c4.45,5.72,7.46,12.54,3.81,18.57-2.24,3.7-16.18,10.63-22,13.17-5.08,2.19-12.85,3.32-18.09,2.38-4.9-.88-12.09-4.31-17.59-8.44a19.64,19.64,0,0,1-2.63,8.19c4.55,4.58,12,9.29,19.58,10.72,3,.57,13,0,18.09-1.27s31.26-16.5,42.69-24.91C194.83,189.47,183.09,181.54,177.85,175.82Z" transform="translate(-0.03 0)" style="fill: #d18344"/>
    <path d="M116.61,193.44a56.32,56.32,0,0,0,.32,9.36c.23,1.88,1.86,4.37,4.37,6.89a19.64,19.64,0,0,0,2.63-8.19C120.52,198.94,117.76,196.11,116.61,193.44Z" transform="translate(-0.03 0)" style="fill: #ab6f81"/>
    <path d="M237.39,200.93c9.5-.45,16.81-4.25,18.8-10.9A61.8,61.8,0,0,1,240,192.8c-7.3.14-16.24-1.9-25.64-5.72A24.14,24.14,0,0,0,237.39,200.93Z" transform="translate(-0.03 0)" style="fill: #ab6f81"/>
    <path d="M299,167.84a61.32,61.32,0,0,0,1.27-11.22c-6,14.76-25.53,27.88-44,33.41-2,6.65-9.3,10.45-18.8,10.9a24.15,24.15,0,0,1-23.08-13.85,122.46,122.46,0,0,1-31.48-19c-6.1-5.07-12.27-7.83-19.47-6.77a12.84,12.84,0,0,0-1,5c6.66,1,11.42,5.24,15.54,9.52,11.92,12.38,47,35.07,64.74,35.55,11.1.29,34.59-14,45.54-25.07,18.94-6,33.46-25,35.09-44.53a26.42,26.42,0,0,1-3.94,3.13C314.89,157,306.1,165.46,299,167.84Z" transform="translate(-0.03 0)" style="fill: #d18344"/>
    <path d="M322,127.64a46.13,46.13,0,0,1-2.75,17.26,26.42,26.42,0,0,0,3.94-3.13A41,41,0,0,0,322,127.64Z" transform="translate(-0.03 0)" style="fill: #ab6f81"/>
    <path d="M297.7,182c-3.06,1.43-5.76,2.54-9.57,4.29-10,10.31-33.64,24.75-44.9,25.07S212.6,201,201.66,194.22c-8.41,7-25.87,16.66-38.09,22.69a33.18,33.18,0,0,1,5.72,10.15c6.85,3.78,17.51,5.67,29.44,6.11,1.71-8.42,4.72-18.3,6.07-18.37s5.67,10.12,7.41,18.29c22.88-1,46.88-6.32,56.51-13.22C272.32,213.32,291.36,194.92,297.7,182Z" transform="translate(-0.03 0)" style="fill: #d18344"/>
    <path d="M204.8,214.81c-1.35.07-4.36,9.95-6.07,18.37,4.36.16,8.9.12,13.48-.08C210.47,224.93,206.21,214.74,204.8,214.81Z" transform="translate(-0.03 0)" style="fill: #ab6f81"/>
    <path d="M161.74,44.07c2.95,9.1,11.2,20.05,20.24,24.65l-7.93,1.59C169.13,66.66,160.85,52.26,161.74,44.07Z" transform="translate(-0.03 0)" style="fill: #d18344"/>
    <path d="M292.89,31.75c-1.11,7.3-10,24.44-22.21,31.58l8,.63C285.27,58.41,296.7,37.78,292.89,31.75Z" transform="translate(-0.03 0)" style="fill: #d18344"/>
    <path d="M166,73.45c5.23,6,15.56,14.12,25.46,16l1.11,5.89C183.8,93.9,171.79,84.46,166,73.45Z" transform="translate(-0.03 0)" style="fill: #dbdcdc"/>
    <path d="M189.58,78.57c5.11,3.33,12.22,6.78,16.22,7.89.45,1.77,1.45,5.33,2.34,8.22C203.47,91.57,193,82.9,189.58,78.57Z" transform="translate(-0.03 0)" style="fill: #dbdcdc"/>
    <path d="M257.93,76.34c-4.67,4-9.67,7.45-13.9,8.56a43.91,43.91,0,0,1-1.55,8.89C247,89.68,254.37,82.57,257.93,76.34Z" transform="translate(-0.03 0)" style="fill: #dbdcdc"/>
    <path d="M256.93,85.79c8-2.79,23.56-12.67,29.56-19.67-4.45,7.78-19.34,22-31.79,27.78A63.19,63.19,0,0,0,256.93,85.79Z" transform="translate(-0.03 0)" style="fill: #dbdcdc"/>
    <path d="M329.2,498.6c-4.08.14-5.92-1.55-6.64-3.8-1.18-3.73-4.65-10.05-6.24-11.74s-2.11-3.28-1.16-5.5,3-7.09,2.22-9.52-7.19-10.58-9.73-10.47-8.15,4.86-10.79,7.19c-4.24-1.48-14.18-8.89-14.28-10.68s5.39-9.21,7.93-11.22c-3.17-3.8-8.09-9.91-9.36-10.39a16.63,16.63,0,0,0-7.62-.24c-4.44,1.19-9,1.35-12.93-2.06s-12.45-11.26-16-14.44c-2,.72-2.94,2.07-5.4,4.37-4.84,4.52-10.55,7.61-15.31,8.72s-10-.47-12.62-3.89-5.47-6.34-8-7.06-6.74-.87-8.17-.23-2.89,4.57-4.28,6.42c-2.7,3.57-7,3.58-12.78.4a21.42,21.42,0,0,0-12-2.38,18.56,18.56,0,0,1-4.12-5.87,177.77,177.77,0,0,0-21-1.43c-5,.24-9.79-3.25-12.54-5.47-3.33-2.7-6.48-3.79-9.86-1.67-2.59,1.62-7,2.22-10,.53-5.18-3-21.47-11.64-22.42-13.54S85.4,383.21,83,381.51s-10.68,1.69-13.54,1.17S54.12,372.63,51.8,368.93,42.41,344,43.3,341c1.38-4.55,5.71-12.59,5.5-15.13s-1.9-6.77-3.28-9.41-1.27-8.57.32-12.17c4.76,2.75,13.22,2.65,25.28,1.17,7,7.08,23.85,24.21,34,32.31.13,5.87,0,11.16-.93,15.5s.15,7.56,3.92,10.68c6.24,5.19,18.23,12.78,26.8,16.07,2.5,1,5.78,1.7,8.74-.09s10.26-4.66,13.22-7c10.79,5.13,26.55,11.9,38.4,14.12C207.22,400.38,220,411.32,230.49,411c21.58-.74,41.28-28.1,32.69-39.56-2.22-3-9.52-11.85-11.64-18.94,1.8-3.17,1.85-7.11,4-8.42s13.78-1.84,15-.43c3,3.48,7.37,2.81,9.57-.66,1.52-2.39,7-11.53,11.32-12s24.37-.66,29.16,1.74,7,7,8.05,10.44c.79,2.51,12.58,2.67,13.49-.22,1.31-4.13,7.63-10.86,10.45-11.09,5.22-.44,15.23-3.49,18.71-10.67.38,8.53,1.76,16.57-2.32,18.58a40.53,40.53,0,0,0-7.67,4.65c-.84,7.09-1.16,11.54-3.49,14.92a121.74,121.74,0,0,1-7.93,9.63,8.38,8.38,0,0,0-1.91,7.82c.75,2.65,1.58,5.38-1.58,7.73-7.72,5.71-27.19,18.19-33.85,23.48,1.37,5.23,3.59,12.21,3.59,16a16.76,16.76,0,0,1,3.39.37c1.27,4.87,1.27,16.19-2.86,22.32,2.23,3.07,7.41,9.42,9,12.17,1.7-.32,4.45-.53,5.82-.64a46.12,46.12,0,0,1,3.28,12.8c0,2.33-1.21,5.45-4.44,8.68-1.27,1.27-2.54,3.38-2.43,4.54s.92,2,2.61,2.75c-.63,2.65,1.31,5.37.64,7S329.2,496.84,329.2,498.6Z" transform="translate(-0.03 0)" style="fill: #dbdcdc"/>
    <path d="M96.14,85.19C94.71,86.9,90.12,93,87.73,96c-2.23,2.85-7,7.72-12,9.1-4.66.11-11.27-1.37-11.53-5.82A12,12,0,0,1,68,91.06c.2,5.24,10.4,6.54,14.09,2.53a70.55,70.55,0,0,1,12-10.29,7.85,7.85,0,0,0,3.52-6.86C99.11,78.74,99.05,81.71,96.14,85.19Z" transform="translate(-0.03 0)" style="fill: #ab6f81"/>
    <path d="M220.34,58c-6.62,0-15.51-4.22-19.86-8.41-.75-.72-1.32-.61-2.36.08-1.56,1-3.62,2.67-5.26,4-1.33,1.11-2.2.25-1-1A38.93,38.93,0,0,1,197.21,48a3.19,3.19,0,0,1,4.51.19l.05.06c4,3.84,13.26,7.61,19.56,7.45Z" transform="translate(-0.03 0)" style="fill: #0f141b"/>
    <path d="M213,68.91a61.2,61.2,0,0,0,5.63-11.6c.81-2.25,2.58-3.45,3.89-3.46S225.81,55,227,57.47a38.85,38.85,0,0,0,6.08,9.79c1.35,1.55.45,2.46-1,1a35.15,35.15,0,0,1-6.91-10.34,2.72,2.72,0,0,0-2.43-1.71A2.59,2.59,0,0,0,220.62,58a44.83,44.83,0,0,1-6.39,11.75C213.29,71.05,212.2,70.39,213,68.91Z" transform="translate(-0.03 0)" style="fill: #0f141b"/>
    <path d="M224.18,56c3.78.52,5.82-.28,8.78-2.32,3.14-2.16,10.2-6.32,13.24-7.9a8.44,8.44,0,0,1,10.93,2.95c1.17,1.63.15,2.4-1.15.87-2.74-3.23-6-3.75-9-2.17s-9.26,5.72-12.36,7.86c-4.12,2.84-7.22,3.49-9.19,3.14Z" transform="translate(-0.03 0)" style="fill: #0f141b"/>
    <path d="M217.58,56.77a25.9,25.9,0,0,0-.51-8c-.52-2.09.46-2.42,1.14-.38a28,28,0,0,1,1.59,8.45Z" transform="translate(-0.03 0)" style="fill: #0f141b"/>
    <path d="M226.11,57.66a19.39,19.39,0,0,1,1.32-9.93c.67-1.51,1.64-1.21,1.14.36a20.31,20.31,0,0,0-.3,9.11Z" transform="translate(-0.03 0)" style="fill: #0f141b"/>
    <path d="M216.68,65.5c-5,5-15.69,6.68-20.38,1.28-4.51-5.2-2.78-13.84,4.9-17.67l1.8,1.36c-7,3-8.81,9.9-4.92,14.76,5,6.3,17.31,1,20.9-4.23Z" transform="translate(-0.03 0)" style="fill: #0f141b"/>
    <path d="M226.65,60c4.95,5.8,15.54,8.16,21.1,4.28,6.73-4.68,5.67-14.17-2-17.23l2.59-1c8.25,4.35,8.33,14.74.6,20.13-5,3.5-14.19,2.49-19.52-1.58Z" transform="translate(-0.03 0)" style="fill: #0f141b"/>
    <path d="M207,64.43a3.46,3.46,0,0,1-3.67-3.24,3.23,3.23,0,0,1,0-.44,3.64,3.64,0,0,1,3.61-3.37,3.55,3.55,0,0,1,3.68,3.42V61a3.28,3.28,0,0,1-3.11,3.44A2.9,2.9,0,0,1,207,64.43Zm.08-5.49a2,2,0,0,0-2.14,1.86v.14a2,2,0,0,0,1.72,2.24l.17,0a2.17,2.17,0,0,0,2.26-2.08v0A2,2,0,0,0,207.25,59h-.17Z" transform="translate(-0.03 0)" style="fill: #0f141b"/>
    <path d="M240.47,62.61a3.5,3.5,0,0,1-3.67-3.3v-.07a3.63,3.63,0,0,1,3.65-3.57A3.46,3.46,0,0,1,244,59v.12a3.31,3.31,0,0,1-3.18,3.45Zm0-5.34a2,2,0,0,0-2,2,1.92,1.92,0,0,0,1.82,2,2,2,0,0,0,2-2v-.06a1.84,1.84,0,0,0-1.74-1.94h-.08Z" transform="translate(-0.03 0)" style="fill: #0f141b"/>
    <path d="M198.88,67.37c-7.14.32-25.62,4-31.94,5.89A45.53,45.53,0,0,0,191.1,93.68c-.45-5.39-1.13-9.78-1.89-14.43-.21-1.29.5-1.33,1.2-.69,5.14,4.76,11.19,9.89,15.81,13.52-1.55-5.34-4-15-2.31-17.17,1.46-1.94,10.2-3.19,11.69-2.6,1.84.73,7.47,6.36,8.41,6.36s6.65-6.69,8.48-7.28c2.27-.73,10.54.08,11.74,1,2,1.57,1.35,11.89,0,18.36,4.9-4.4,10.39-10,12.89-14.26.61-1,1.41-.87,1.34.41-.28,4.81-.69,10.7-1.85,14.86,9-4.67,24.38-18.25,29.32-25.94-10-1.15-25.86-2.42-35.15-2.66L252,61c8.61.52,25,1.76,35.68,3.06,1.11.13,1.17.53.74,1.37-4.68,9.23-23.36,25.37-32.69,29.4-1.6.7-2.35.09-1.76-1.52a57.41,57.41,0,0,0,2.61-13.1,88.48,88.48,0,0,1-13.22,14.13c-1.61,1.35-2.37,1-1.81-1C243.47,86.56,244.29,75,243,74.1c-.78-.55-8.45-1.27-9.92-.82s-7.08,8.19-9,8.13c-1.09,0-7.19-6.41-8.95-7.17-1-.42-8.37.79-9.37,2.12s.54,9,3.4,18.33c.59,1.9-.28,2.16-1.7,1.12a134.53,134.53,0,0,1-16-14.17c.78,4.14,1.84,9.39,2.33,13.67.14,1.18-.5,1.56-1.63,1.25C181,93.46,169.5,83.22,164.79,73.09c-.39-.84-.31-1.09.56-1.38,5.49-1.87,23.5-5.74,31.72-6.44Z" transform="translate(-0.03 0)" style="fill: #0f141b"/>
    <path d="M205.19,83.53c3,5.2,7.93,10.58,11.21,13.88.1-2.82.14-8.09,2-8.76,2.7-1,10.2-1.93,11.23-.46a42.6,42.6,0,0,1,4,9.31,80.38,80.38,0,0,0,10.69-14.45l-.53,4.87a60,60,0,0,1-9.61,11.92c-1.21,1.17-1.57.9-1.87-.24-1-3.87-2.91-9-4.07-10.09-.93-.86-6.69-.24-9.13,1-1,.49-1,6.23-.92,9.38,0,1.48-.63,1.69-1.68.62a77,77,0,0,1-10.42-12.37Z" transform="translate(-0.03 0)" style="fill: #0f141b"/>
    <path d="M186.44,59.17c.3-20.07,17.88-37.84,37.27-39.28,22.31-1.68,39.62,9.59,44.13,28.9.49,2.13-.81,2.41-1.41.3-5-17.6-21-28.11-42.58-26.5-18.69,1.39-34.25,17.89-36,36.64C187.7,61.25,186.41,61.21,186.44,59.17Z" transform="translate(-0.03 0)" style="fill: #0f141b"/>
    <path d="M172.38,70.7c-5.87-5.11-15-24.73-11.4-27.77,3.79-3.17,22,4,27.56,7.81l-.65,2.38c-5.67-4.31-22.72-10.33-25-8.36s5.55,20.55,12.46,25.39Z" transform="translate(-0.03 0)" style="fill: #0f141b"/>
    <path d="M183.1,61a61.61,61.61,0,0,0-14.79-11.55c-1.81-1-1.23-2.08.68-1.27,5.27,2.22,12,7.4,15.25,11.93C185.44,61.83,184.36,62.46,183.1,61Z" transform="translate(-0.03 0)" style="fill: #0f141b"/>
    <path d="M276.55,64c9.62-7.19,18.46-28.43,16-30.92s-17.81,3.12-26.87,10.69l-.89-2.18C274,34.05,291.1,27.46,294.6,31c3.79,3.87-5.49,25.09-14.84,33.33Z" transform="translate(-0.03 0)" style="fill: #0f141b"/>
    <path d="M271.59,50.7a46,46,0,0,1,12.75-14.38c1.65-1.2,2.44-.24.91,1.12a73.87,73.87,0,0,0-12.42,14C271.68,53.21,270.53,52.7,271.59,50.7Z" transform="translate(-0.03 0)" style="fill: #0f141b"/>
    <path d="M173.16,83.16c-6.33,6.17-7.65,17.09-7.1,25a16.29,16.29,0,0,0,5.37,10.6,20.73,20.73,0,0,1,6.76,8.86c.9,2.24-.26,2.66-1.3.61a20.3,20.3,0,0,0-7-7.88c-2.95-2.09-7-7.94-7.31-12.66-.57-8.2,2.2-19.84,8.88-26.35Z" transform="translate(-0.03 0)" style="fill: #0f141b"/>
    <path d="M288,105.36c3.4-12.13-1-25.48-7.62-31.66L282,72c8.87,7.44,12.6,19.94,9,33.49Z" transform="translate(-0.03 0)" style="fill: #0f141b"/>
    <path d="M290.48,95c13.69-4.51,51.11-18.09,52.66-19.68.92-1,.31-6.15-.66-10.25-.46-1.93.84-2.18,1.41-.28,1.52,5,2.24,10,1.42,11.78-1.12,2.47-51.11,20.74-54.7,21.92Z" transform="translate(-0.03 0)" style="fill: #0f141b"/>
    <path d="M335.47,6.79C340.65,6.21,346,27.15,347.69,39c3,21.92,1.32,37.44-3.41,38.19S333.07,55.06,331.39,41C329.51,25.35,330.61,7.33,335.47,6.79Zm.18,2.11c-2.95.08-3,18.53-1.4,32.22,2.12,17.66,8,33.87,9.89,33.9,2.84-.38,3.24-19.4.91-35.74C342.79,23.5,338.1,8.84,335.65,8.9Z" transform="translate(-0.03 0)" style="fill: #0f141b"/>
    <path d="M347.69,52.16a9.32,9.32,0,0,0-4-1.7c-1.48-.21-1.3-1.48.17-1.47a9.43,9.43,0,0,1,3.91.85Z" transform="translate(-0.03 0)" style="fill: #0f141b"/>
    <path d="M343.59,25.64a10,10,0,0,0-2.82,3c-.88,1.38-2,1-1.31-.61a14.86,14.86,0,0,1,3.41-4.85Z" transform="translate(-0.03 0)" style="fill: #0f141b"/>
    <path d="M285,12.34c-9.35,1.27-16.67.39-23.22-2.83-24-11.79-59.22-8.86-80.25,8.82-2,1.66-3,.79-.95-1.08C200.37-.9,237-5.62,262.81,7.37c6.24,3.14,11.78,3.77,20.82,2.56C293.69,8.57,333.91,5.25,336.41,7c1.37,1,1.38,6.7,1.11,10.28-.15,2-1.46,2-1.44,0,.05-4.29-.65-7.76-1.28-8.3C333.35,7.79,295.75,10.89,285,12.34Z" transform="translate(-0.03 0)" style="fill: #0f141b"/>
    <path d="M331.76,26a109.66,109.66,0,0,0-17.58,2.33c-1.95.41-2.33-.87-.34-1.4a125.86,125.86,0,0,1,18.27-3.3.67.67,0,0,1,.57.19A16.59,16.59,0,0,1,335.53,27c.79,1.15,0,2-1,1A10.53,10.53,0,0,0,331.76,26Z" transform="translate(-0.03 0)" style="fill: #0f141b"/>
    <path d="M316.53,54.67c-1.85.41-2.11-.88-.31-1.41a132.71,132.71,0,0,1,18.3-3.7l.2,2.26A150.88,150.88,0,0,0,316.53,54.67Z" transform="translate(-0.03 0)" style="fill: #0f141b"/>
    <path d="M164.79,103.07a433.94,433.94,0,0,1-41.31-17c-18.68-9.12-6.71-69.23,11-70.66,8.76-.71,36.83-1.36,50.16-.88l-2.82,2.58c-12.33-.3-38.7-.15-47.18.44-14.08,1-26.35,58.27-10.14,66.19a342.53,342.53,0,0,0,40.36,16.13Z" transform="translate(-0.03 0)" style="fill: #0f141b"/>
    <path d="M135.29,41a86.23,86.23,0,0,0-16.14-3.29l.41-2.12a71.51,71.51,0,0,1,16.16,4.1C137.53,40.37,137.07,41.5,135.29,41Z" transform="translate(-0.03 0)" style="fill: #0f141b"/>
    <path d="M135.81,65c-6.67-1.67-14.44-3.84-20.27-5.86v-2.3c6,2.36,13.72,4.85,20.42,6.75C137.91,64.13,137.65,65.46,135.81,65Z" transform="translate(-0.03 0)" style="fill: #0f141b"/>
    <path d="M118.71,38.9C59.05,41.13,10.3,93.47,11.27,162.41c.54,38.08,17.59,83.23,32.62,106.13,1.45,2.22.34,2.83-1.17.84C25.85,247.17,7.89,199,7.23,161.77,6,93.62,58.08,36.67,119.66,36.31Z" transform="translate(-0.03 0)" style="fill: #0f141b"/>
    <path d="M116.18,347.29c-16.31-10.81-35.67-28.58-49.3-45.8-1.5-1.9-.56-2.72,1.08-.95a488.38,488.38,0,0,0,49,45.59C119.53,348.11,118.67,348.94,116.18,347.29Z" transform="translate(-0.03 0)" style="fill: #0f141b"/>
    <path d="M197.37,389.18c-12-2.32-31.57-9.31-50.32-20.89-2.12-1.31-1.52-2.45.68-1.27,18.94,10.16,35,16,46.52,18.51Z" transform="translate(-0.03 0)" style="fill: #0f141b"/>
    <path d="M248.92,335.4c6-11.69,14.25-28.58,14.56-38.73.38-12-37.59-22.79-47.7-13.61-4.92,4.47-21.57,22.95-25.5,26.05-3,2.4-28.87-10.44-29.56-17.13-.26-2.51,2.63-25.74,3.08-32.33s-25.05-24.15-32.87-19.88a154.59,154.59,0,0,0-24.19,16.38c-1.89,1.55-2.8.61-1-1,9-8.23,14.31-12.12,24.16-17.61,10-5.58,36.81,13.63,36.42,21.74-.3,6.16-3.06,27.38-2.85,31.71.25,5.27,23.75,16.36,25.7,15.24,2.82-1.63,20-21,24.82-25.26,11.72-10.46,52.74-.2,52.24,15.81-.33,10.46-8.83,28-14.69,39.9-1.7,3.45-.17,10.17,1.53,15.75,2.47,8.12,9.69,14.94,12.49,19.92,7.49,13.28-17.38,48.89-44.09,38.22-10.14-4.06-23-17.74-28.4-25.17-1.35-1.87-.45-2.67,1.09-.95,8.37,9.42,20.48,20.41,28.3,23.54,21.83,8.73,46.17-21.24,40.36-34.26-2.17-4.86-10-11.41-12.43-20.62C249,348.09,246.6,339.9,248.92,335.4Z" transform="translate(-0.03 0)" style="fill: #0f141b"/>
    <path d="M86.36,216.68c3.47,10.62,19.25,27.42,27,33.24l-2.33,1.7c-6.87-5.82-22.44-21.36-26.64-32.66Z" transform="translate(-0.03 0)" style="fill: #0f141b"/>
    <path d="M96.28,188.62c.63,4,.47,11.49-.56,15.08-1.46,5-7.57,13.32-12.36,18.06-1.46,1.44-2.4,1.05-1.2-.8,2.44-3.76,9.38-11.54,11.06-17.79a39.74,39.74,0,0,0,1-10.37Z" transform="translate(-0.03 0)" style="fill: #0f141b"/>
    <path d="M75.77,193c-5-6.84-10.43-21.25-11.88-29.24-2.12-11.65,14.35-13.6,19.18-8.27,5.07,5.61,11.82,24.86,13,31.78C98.15,198.82,81.63,201,75.77,193ZM67,163.23c1.42,6.76,7.29,22.62,11.43,28.24,3.84,5.23,17.26,5.86,15.26-4-1.19-5.83-8.45-26.23-12.33-30.21C76.66,152.43,65.43,155.62,67,163.23Z" transform="translate(-0.03 0)" style="fill: #0f141b"/>
    <path d="M74.76,154.2a73.21,73.21,0,0,0-17.21-2.67c-2.27-.1-2.19-1.38.06-1.44,8.3-.25,19.09,1.5,23.61,4.07Z" transform="translate(-0.03 0)" style="fill: #0f141b"/>
    <path d="M117.75,77.78c-24.75,9.52-45.36,43-45.36,74.37l-4-.19c0-31.86,23.34-66.09,48.73-76.24Z" transform="translate(-0.03 0)" style="fill: #0f141b"/>
    <path d="M93.24,71.3c5.24,0,8.75,9.16,5,13.45C95.4,88,92.07,91.52,90.3,94.27c-1.58,2.44-6.17,8.6-11.89,11.12s-20-.72-14.06-11.34C69.26,85.34,86.11,71.3,93.24,71.3Zm0,2.34c-6.07-.15-22,12.79-26.94,21.57-4.45,7.9,6.79,9.94,11.31,7.94,5.37-2.36,9.21-7.9,10.72-10.23a111.54,111.54,0,0,1,8-9.76c2.57-2.87.57-9.43-3-9.52Z" transform="translate(-0.03 0)" style="fill: #0f141b"/>
    <path d="M79.27,105a97.2,97.2,0,0,1-20.73,8.14c-2.17.57-2.58-.62-.44-1.37a107.53,107.53,0,0,0,16.22-7.06Z" transform="translate(-0.03 0)" style="fill: #0f141b"/>
    <path d="M97.31,75.53a31,31,0,0,0-1.36-8c-.59-1.84.58-2.33,1.33-.54a41.75,41.75,0,0,1,2.53,13.17Z" transform="translate(-0.03 0)" style="fill: #0f141b"/>
    <path d="M98.41,80.66c4.31-4.2,12.19-9,17.25-10.47l.59,2.26c-5.47,1.43-14.36,7.46-19.06,12.44Z" transform="translate(-0.03 0)" style="fill: #0f141b"/>
    <path d="M14,195.68c-4.31-1.85-8.19-4.94-10.1-9.31-4-9.21-5.09-34.93-2.35-40.56,1.45-3,6.08-6.4,10.33-8.38L11.47,141c-3.31,1.21-6.81,4.1-7.76,6-1.85,3.71-.62,31.94,2.23,38.53a13.69,13.69,0,0,0,7.45,6.9Z" transform="translate(-0.03 0)" style="fill: #0f141b"/>
    <path d="M72.29,306.73c-6.61,1.22-17,1.58-22.52.47-10.91-2.2-25.19-20.49-24.43-30.78.23-3,5.47-14.56,9.59-21.42l1.51,2.82c-3.93,6-8.45,15.66-8.66,18.77-.58,8.54,13.65,26.32,22.62,28.27,4.58,1,14.73.46,20.07-.45Z" transform="translate(-0.03 0)" style="fill: #0f141b"/>
    <path d="M158.71,373.68c-4.1,3-11.85,5.56-15,7.52-3,1.84-6.07,1.5-9.25,0-3.79-1.8-21.89-9.84-29.57-19.06a9.07,9.07,0,0,1-1.9-7.85,67.44,67.44,0,0,0,.71-18l2.78,2.51a86.42,86.42,0,0,1-1.24,15.82,6.86,6.86,0,0,0,1.55,6.12c6,7.18,21.18,15,28.56,18.27,3.07,1.36,5.2,1.47,7.47.09,3.62-2.19,9.22-4,12.9-7.11Z" transform="translate(-0.03 0)" style="fill: #0f141b"/>
    <path d="M47.07,304.88a14.5,14.5,0,0,0,.26,12.52c3.18,6.68,3.25,9.63.84,14.67-1.7,3.54-3.66,7.34-3.66,9.86,0,2.73,6.52,24.37,8.35,26.78C55,371.52,68,381.63,69.72,381.6c1.9,0,11.54-2.49,13.77-1.09,2.65,1.67,2.77,11.74,3.92,13.6.76,1.22,17,10.56,21.49,12.9,2.51,1.3,6.29,1.37,8.52-.12a8.09,8.09,0,0,1,10.61.89c2.46,2.46,8.25,6.26,11.35,6,5.06-.48,14.41.18,21.75,1.33l1.38,3.63c-7.14-1.4-18-2.87-23.48-2.54-3.81.24-10.31-4-12.77-6.44A6.45,6.45,0,0,0,118,409c-2.62,1.75-7.4,2.61-10.5,1.05-4.25-2.14-22.16-12.36-22.94-13.8-1.15-2.11-1.21-12.5-2.87-13.49s-10.85,1.4-12.12,1.41c-2.44,0-17.18-10.63-19.19-13.26-3.09-4-8.68-22.29-8.68-28.35,0-2.84,2.49-7.51,4.3-11.31,2.1-4.38,2-6.29-1.16-12.89a17.52,17.52,0,0,1,.06-14.52Z" transform="translate(-0.03 0)" style="fill: #0f141b"/>
    <path d="M159.3,413.56c-.82-1.79.26-2.44,1.25-.73,2,3.46,4.79,7.86,5.71,8.27,2.38-.39,8.14,0,11.25,1.76,3.64,2.1,8.34,3.26,10.34,2.59,2.24-.74,4.37-7.8,6.16-8.84,2-1.15,9.19-.17,11.28,1a40.94,40.94,0,0,1,8.28,7.09c2,2.28,6.88,3.52,12.41,1.88s11.18-5.27,13.8-8.37c3.2-3.8,6.36-4.18,11-4.22a60.44,60.44,0,0,0,12.93-1.46c2-.47,2.25.77.32,1.4a51.57,51.57,0,0,1-13.25,1.82c-4.57,0-6.88.84-9.5,4-2.8,3.32-9.77,8.24-15.53,10-4.3,1.28-10.65,1.55-14.36-2.73-2-2.32-5.22-6.22-7-7.17-2-1.07-7.21-1.2-8.45-.37s-4,7.73-7.4,8.67c-2.77.78-8.25-.18-12.1-2.4-2.79-1.62-8.16-2-10.31-1.72C164.34,424.13,161.84,419.07,159.3,413.56Z" transform="translate(-0.03 0)" style="fill: #0f141b"/>
    <path d="M245.84,415.24c5,4,12.93,12.78,16.66,15a11.62,11.62,0,0,0,10.42,1.09c2.22-.86,7.32-.44,8.65.32s8.12,8.53,9.75,10.91c.41.59.39.95,0,1.29-3.65,3.18-7.47,8.84-7.47,10.19.5,1.83,11.3,9.83,12.89,9.42.71-.18,7.74-7.46,11.2-7.12s10.66,9.94,10.83,12.14-1.74,7.42-2.54,9.16-1.3,2.8.52,4.62c2.29,2.3,5.76,8.8,6.45,11.53s2.41,3.73,4,3.75c2,0,5.94.67,7-.06s.68-2.26,2.05-4.07c1-1.28.91-2.13-.16-2.56-5.9-2.37-9.21-5-9.23-6.66,0-2.94,5-7.24,8.38-9.49,1.54-1,2.4-1.9,2.45-3.15a87.08,87.08,0,0,0-.15-10.47c-.21-1.85-.7-2.53-2.84-2.38a86.13,86.13,0,0,0-8.91,1.15.73.73,0,0,1-.77-.34,58,58,0,0,0-9.18-11.74.66.66,0,0,1-.06-.86c2.25-2.52,5.07-6.68,5.87-9.07s1.34-9.74.57-11-4-2.15-6.32-1.85c-.5.08-.75-.13-.81-.62-.6-4.76-2.28-12.61-3.74-16.18a.74.74,0,0,1,.24-.85c4.9-3.63,31.65-22,34.35-24,1.87-1.36,2.2-2.66,1.49-4.49-.89-2.32-1.3-6.19.4-8.92,1.14-1.84,8.09-8.95,9.44-11.92a35.62,35.62,0,0,0,2.81-13.66.76.76,0,0,1,.29-.58,34.39,34.39,0,0,1,7.11-4.49,4.34,4.34,0,0,0,2.54-3.6c.47-9.24,0-25.55-.25-30.77-.14-2.76-.34-3.52-2.36-4.74-3.42-2.06-6.42-3-8.79-3-4.61,0-9.49-4.76-8.73-8.95.29-1.57,1-7-.15-9.49s-13.59-17.58-19.82-21.39c-2.86-1.74-5.69-2.17-8.48-.67-6.71,3.62-13.46,7-18.53,9.44-3.88,1.83-9.74-.47-9.74-5,0-3.38-.11-7.65-2.8-7.91-3-.28-8.22-1.43-9.2-4.36-.88-2.64-2.62-3.82-5.16-2.46a27.2,27.2,0,0,1-6.62,2.62.62.62,0,0,1-.78-.36,23.83,23.83,0,0,0-4.31-5.76c-1-.68-10.26-.53-15.71,0-3.46.33-5.8,1-7.43,4.67A108.39,108.39,0,0,0,237,258.71a8.46,8.46,0,0,1-5.28,5.77c-3.09,1.34-8.83,3.36-10.17.08-1.09-2.66-2.6-3.29-4.8-3.39-2.37-.11-8.79-.18-10.39,0-2.39.27-5.19,1.27-6.21,3.47-1.15,2.47-3.76,4-7.48,4.36-3.16.32-7.74.8-10.13-1.76-.86-.92-3.76-5-5.34-5.95s-7.87,0-12.4,1.7l.16-2.64c4-1.42,11-2.86,13.41-1.42,2,1.16,5,5.45,5.81,6.32,1.9,2,5.29,1.64,8.27,1.34,3.18-.32,4.91-1.13,5.83-3.1,1.28-2.74,5.13-5,8-5.34,1.69-.19,7.05-.27,10.35-.22,2.29,0,4.87.61,7,4.95.74,1.51,5,0,7.56-1.17a6.29,6.29,0,0,0,3.87-4.42,102.92,102.92,0,0,1,4.12-10.58c2.24-5.09,4.32-6.36,9.42-6.77,6.51-.51,15-1.14,16.7.24a25.54,25.54,0,0,1,5.09,5.69c1.58-.4,3-.41,4.71-1.34a6.3,6.3,0,0,1,8.42,2.91c.1.2.18.41.26.62.64,1.9,3.3,2.54,7.82,3,4.3.41,4.64,6.78,4.6,9.86,0,2.73,3.34,4.13,5.8,3a181.26,181.26,0,0,0,18.42-9.27c3.76-2.29,7.45-2.12,11.21.18,6.59,4,20.09,19.83,21.28,22.49,1.39,3.13-.07,9.92-.23,11.08-.39,2.91,2.88,5.75,6.08,5.75a20.44,20.44,0,0,1,10,3.14,9.22,9.22,0,0,1,4.66,7.61c.25,5.24,0,21.79-.47,31.08-.13,2.39-1.46,4-4.34,5.24-2.54,1.11-3.92,2.5-6,4.09.59,6.88-.95,11-2.54,14-3,5.5-9.27,9.78-10.46,11.75-1.3,2.15-.41,5.2.42,7.37,1,2.65.79,5.08-2,7.12s-29.43,19.33-34.37,23a76.72,76.72,0,0,1,3.91,14.27c2.61-.1,6.17.85,7.19,2.54,1.11,1.86.28,10.48-.5,12.91s-3.83,6.57-5.58,8.71a74.39,74.39,0,0,1,8.19,10.75,73.58,73.58,0,0,1,7.69-.89,5,5,0,0,1,5.62,4.29c0,.07,0,.13,0,.2a79.9,79.9,0,0,1-.06,10.72c-.14,2-.67,3.36-3.05,5-3.08,2.08-8.1,5.17-8,7,.06,1,3.11,3.31,7.79,5.1,2.42.92,3.22,3.07.87,5.41-1.33,1.33-1,3.63-2.14,4.52-1.46,1.12-7,.23-9.16.31-2.44.08-5.05-1.48-6-5.08-.61-2.46-4-8.88-6.07-10.95-2.53-2.53-1.65-4.74-.85-6.49.91-2,3.09-6.26,3-8.07s-6.28-9.47-8.84-9.8-9.75,6.6-10.5,6.7c-5.26.75-15.9-9.36-15.9-11.4s3.79-7.61,7.35-10.91c-2.25-3.06-7.69-9.11-8.52-9.59s-5.54-.71-7.4,0a14.37,14.37,0,0,1-12-.87c-4.1-2.27-13.69-13.12-17.69-16.22Z" transform="translate(-0.03 0)" style="fill: #0f141b"/>
    <path d="M170.48,260.28a247,247,0,0,0-1-24.78c-.61-8-2.77-10.6-7.61-17.35L164.8,216c5.33,6.6,7.58,12.25,7.87,19.51s.66,16.21.33,24.3Z" transform="translate(-0.03 0)" style="fill: #0f141b"/>
    <path d="M261.71,241.67c-.21-12.77,5.43-23.43,10.43-28.74,6.42-6.8,19.32-22.56,25.57-32.07l5.07-2.69c-6.53,10.91-21.46,29.64-27.72,36.39a40,40,0,0,0-10.53,27.19Z" transform="translate(-0.03 0)" style="fill: #0f141b"/>
    <path d="M312.91,207.58c-2,1.09-2.92.14-.79-1.21,5.92-3.73,10.55-6.44,11.41-8.57,1-2.43-2.14-23.42-3.43-25.78s-8.34-1.65-10.28-1.54l1.58-2.11c4.09-.25,9.11-.05,10.57,2.61,2,3.7,5.39,22.9,3.76,27.65C324.76,201.48,319.43,204.11,312.91,207.58Z" transform="translate(-0.03 0)" style="fill: #0f141b"/>
    <path d="M310.54,261.05c2.5-10.84,3.84-42.53,2.54-54.67l2.35-1c1.53,13.46.55,42.79-1.85,54.38Z" transform="translate(-0.03 0)" style="fill: #0f141b"/>
    <path d="M175.24,175c-10-10.4-23.6-9.7-34.11-3.83-1.75,1-2.4,0-.8-1.2,9.49-7.15,26.26-8.28,36.66,3,14.83,16,52.09,38.74,66.87,36.9,15.29-1.91,40.94-18.65,49.2-30.54,1.56-2.24,2.57-1.64,1.24.73-6.65,11.9-34,31.12-50.34,33.13C229.5,215,192,192.41,175.24,175Z" transform="translate(-0.03 0)" style="fill: #0f141b"/>
    <path d="M290.08,184.09c29.84-11.81,37.81-46.78,27.64-61.34-10-14.29-24.38-17.87-35.48-15.56-14.05,2.94-24.87,14.65-24.63,22.84l-2.92.51c.06-8.8,10.08-22.2,27.35-26.21,12.07-2.79,26.66.8,38.24,16.47,11.93,16.13,1.33,56.29-34.21,67.45Z" transform="translate(-0.03 0)" style="fill: #0f141b"/>
    <path d="M203.44,195.12c-9.88,7.74-39.27,24.66-44.41,25.95-4.94,1.23-14.86,2-18.52,1.32-7.27-1.32-22.67-10.18-24.7-19C112.39,188.58,120.9,167,132.16,157c1.11-1,1.5-1.5,1.84-3.63,3.05-19.18,18-33.45,36.85-33.76l2.17,2.54c-16.48-.63-33.78,14.19-36.56,31.68-.4,2.53-1.11,3.83-2.48,5-9.31,8-18.48,30.2-15.52,44.23,1.6,7.6,15.56,14.64,22.56,16,3.65.69,13.94-.27,17.76-1.23,4.79-1.19,32.54-16.59,42.34-24.18Z" transform="translate(-0.03 0)" style="fill: #0f141b"/>
    <path d="M232.3,146.62c7.44-17.29,36.16-24.59,56.25-11.77,1.69,1.08,1.07,2.12-.73,1.24-21.9-10.72-47-2.79-54.19,11.08C232.42,149.5,231.22,149.12,232.3,146.62Z" transform="translate(-0.03 0)" style="fill: #0f141b"/>
    <path d="M235.37,142.66c-38.26-9.31-69.47,5.29-72,23.88l-2.53-.42c4.67-21.71,34.6-36.08,75.87-25.38Z" transform="translate(-0.03 0)" style="fill: #0f141b"/>
    <path d="M217.62,138.77a40.5,40.5,0,0,0-8.72-21.28c-1.24-1.54-.27-2.21,1.16-.85,5.72,5.39,10.11,15.67,10.79,22.83Z" transform="translate(-0.03 0)" style="fill: #0f141b"/>
    <path d="M223.48,139.42c.32-10,7.05-21.19,12.77-26,1.72-1.45,2.5-.69,1,1-5,5.82-10.54,16.07-10.94,25.17Z" transform="translate(-0.03 0)" style="fill: #0f141b"/>
    <path d="M179.59,223.33a20.78,20.78,0,0,1,5.26-9.75c1.19-1.24,2.15-.66,1.21.78a66.17,66.17,0,0,0-5.14,9.52C180.22,225.46,179.12,225.1,179.59,223.33Z" transform="translate(-0.03 0)" style="fill: #0f141b"/>
    <path d="M241.63,235a43.68,43.68,0,0,0-5-13.48c-.88-1.65.14-2.18,1.26-.69A25.19,25.19,0,0,1,243,234.89C243.1,237.21,242,237.27,241.63,235Z" transform="translate(-0.03 0)" style="fill: #0f141b"/>
    <path d="M197.21,243.73c-2.1-9.4,5.23-29.95,7.6-30,3.11,0,9.62,19.57,9.5,26.31C214.13,250.32,199,251.78,197.21,243.73Zm7.68-27.6c-.92.09-7.32,19.57-5.61,27.25,1.22,5.53,12.58,4.31,12.77-3.41.14-5.71-6.18-24-7.16-23.84Z" transform="translate(-0.03 0)" style="fill: #0f141b"/>
    <path d="M226.35,180c.83,0,1.16-.18,1.72-1.19,2.78-5,7.7-7.4,14-7.54,8.3-.18,15.57,4.95,16.14,14.1.61,9.75-7.94,16.19-19.46,16.74-12.58.6-25.42-6.32-27.92-23.78-.72-5,2.21-5.46,4.86-2.79A14.93,14.93,0,0,0,226.35,180Zm.22,1.88a16.59,16.59,0,0,1-12.26-5c-1.05-1.23-2-1.21-1.63,1.28,2.5,16.65,15.39,22.3,26,21.78,11.46-.54,17.63-6.81,17.16-14.42-.53-8.52-7.26-12-13.76-12-5.45,0-9.93,2-12.42,6.5a3.29,3.29,0,0,1-3.09,1.86Z" transform="translate(-0.03 0)" style="fill: #0f141b"/>
    <path d="M295.51,174.37c2.11-4.74,3.84-14.17,4.21-20.5.14-2.27,1.3-2.24,1.44,0,.44,7.11-1.53,16.62-4.36,21.11C295.75,176.68,294.67,176.28,295.51,174.37Z" transform="translate(-0.03 0)" style="fill: #0f141b"/>
    <path d="M322.56,143.42c-6.27,8.88-24.08,6.59-28.4,2.27-2.34-2.34-1.27-4.36,1.48-4.59a6.18,6.18,0,0,0,4.19-2.29c.23-.33.22-.87-.34-1.42-2.84-2.87-6.79-7.71-7.23-13.87-.65-9,4.91-15.37,12.05-14.66l2.78,2.44c-8.73-1.8-13,5.42-12.61,12.06.34,5.71,3.75,9.89,6.53,12.86a2.67,2.67,0,0,1,.47,3.53,8.61,8.61,0,0,1-5.56,3.27c-.93.08-1.38.48-.46,1.4,3.81,3.8,23.09,5.22,27.42-5.41Z" transform="translate(-0.03 0)" style="fill: #0f141b"/>
    <path d="M257.53,153.17c-5.3,0-7-7.66-2.11-10.45,3.76-2.14,15.65-2.24,20.93.06,4.3,1.88,3.92,5.77.55,7.38C272.18,152.42,262.23,153.21,257.53,153.17Zm-1.11-8.62c-2.52,1.44-2,6.36,1.13,6.42,4.92.1,14.4-.49,18.48-2.54,2.19-1.09,2.07-2.89-.42-4C271.27,142.58,260.16,142.38,256.42,144.55Z" transform="translate(-0.03 0)" style="fill: #0f141b"/>
    <path d="M272.08,179.23c-1.41-1.58-2.41-7.16-.13-10s9.59-1,10.84,1.85.37,7.29-2.26,8.35C278.27,180.38,273.6,180.94,272.08,179.23Zm1.19-8.7c-1.43,1.86-.73,6.21.38,7.33.8.81,4,.45,6.13-.45,1.35-.56,2.25-3.31,1.41-5.41S274.69,168.7,273.27,170.53Z" transform="translate(-0.03 0)" style="fill: #0f141b"/>
    <path d="M193.41,158.41c1.46-7,10-11.78,20.82-11.33,6.32.27,6.18,4.66,1.31,7a56.8,56.8,0,0,0-12,8.52C200.54,165.45,192.29,163.73,193.41,158.41Zm2.09.38c-.64,3.08,4.79,4.12,6.91,2.18a59.61,59.61,0,0,1,12.06-8.63c3.19-1.59,2.94-3.16-.32-3.31-8.26-.39-17.15,2.85-18.65,9.76Z" transform="translate(-0.03 0)" style="fill: #0f141b"/>
    <path d="M138,144.12a16,16,0,0,0,1.81,4.83c.51.82,1.24.51,1.38-.34,1.24-7.46,4.41-9.43,6.9-10,7.42-1.54,13-4.94,15.79-9.3a9,9,0,0,0,1.23-7.57l2.22-.4a11.56,11.56,0,0,1-1.62,9.1c-3,4.75-9.48,8.69-17.2,10.08-3.73.67-5.07,5.15-5.68,8.82-.42,2.5-3,3.08-4.32,1A18.37,18.37,0,0,1,136.9,147Z" transform="translate(-0.03 0)" style="fill: #0f141b"/>
    <path d="M138.55,189.42c.27-3.36,11.78-17.72,14.18-18.85s6.66,2.87,6.52,5.41c-.29,5.38-10.19,18.17-12.85,19.13S138.23,193.3,138.55,189.42Zm14.81-17c-1.57.69-12.46,14.31-12.71,17.16-.19,2.15,3.56,4.08,5,3.5,1.8-.7,11.41-12.14,11.68-17.11.08-1.25-2.24-4.22-4-3.6Z" transform="translate(-0.03 0)" style="fill: #0f141b"/>
    <path d="M158.14,190.16c-.5-2.53,6.22-6.1,8.21-5.63,2.94.69,4.64,7.8,1.87,8.95C166.57,194.16,158.72,193.08,158.14,190.16Zm1.82-.29c.27,1.33,5.91,2.43,7.48,1.82,1-.39-.08-4.83-1.56-5.22s-6.13,2.32-5.88,3.4Z" transform="translate(-0.03 0)" style="fill: #0f141b"/>
    <path d="M120.28,209c3.08-2.89,3.72-17.5,1.72-23-.93-2.6-2.59-2.49-3.53-1.35l.54-2.72c1.39-1.13,3.85-.3,5.12,3.37,1.94,5.62,1.66,21.09-2.33,25.19Z" transform="translate(-0.03 0)" style="fill: #0f141b"/>
    <path d="M164.92,262.52c-3.21,5.48-8.85,6.65-14.68,4.38-4.07-1.58-17.21-9.63-20.94-12.57-3-2.35-3.49-9.59-3.14-12.87l2.3-1.25c-.43,4,.47,9.57,2.94,11.76s16.18,10.53,20.17,12.08c6.25,2.43,11.42-.27,13.39-6.08Z" transform="translate(-0.03 0)" style="fill: #0f141b"/>
    <path d="M263.72,304.8c-6.35,8-26.77,12.29-35,10.88-4.94-.84-12-6.89-14.25-10.92-2-3.58-1.53-17.67,1-23.52l3.17-1.39c-2.81,4.26-3.84,20.09-1.88,23.52,2.13,3.75,7.49,8.24,11.9,9,10.16,1.7,32.64-3.33,35.87-12.69Z" transform="translate(-0.03 0)" style="fill: #0f141b"/>
    <path d="M275.38,413.19c-2.36-.35-2.39-1.42,0-1.44,4.82,0,10.55-.53,13.07-2.53,2.79-2.22,4.63-5.42,6.61-9.48.83-1.69,1.91-1.05,1.25.71-1.62,4.39-4,8.8-6.39,10.74C287.09,413.46,280.41,413.93,275.38,413.19Z" transform="translate(-0.03 0)" style="fill: #0f141b"/>
    <path d="M334.58,50.2a13.5,13.5,0,0,0,2.33-.76c1-.39,1.59.49.59,1.33a15.72,15.72,0,0,1-2.4,1.65Z" transform="translate(-0.03 0)" style="fill: #0f141b"/>
    <path d="M293.8,257.18a24.54,24.54,0,0,0,.08-6.74c-.28-1.4-7.85-3.72-8.9-4.6-3.85-3.26-3.92-17.16-3-21.07.77-3.24,8.61-7.78,8.93-9.72.45-2.73-1.67-12.57-3.19-18.79l2-2.52c1.93,8.16,4.14,19.75,3.63,22.07-.57,2.53-8.6,6.92-9.17,9.32-.88,3.74,1,17.9,2.42,19.06,1,.83,9.15,3.09,9.56,5.69a32.71,32.71,0,0,1-1.47,12.62Z" transform="translate(-0.03 0)" style="fill: #0f141b"/>
    <path d="M187.17,26.21c.37,3.57,5.14,16.26,7.7,18.64,3.89,3.61,14.58-5.94,9.52-10.15C200.55,31.5,194.22,28.31,187.17,26.21Z" transform="translate(-0.03 0)" style="fill: #d0879d"/>
    <path d="M222.63,7.57c-3.57,5.39-6.27,12.21-6.17,19.26.1,6.13,15.87,4.48,15-.64A37.48,37.48,0,0,0,222.63,7.57Z" transform="translate(-0.03 0)" style="fill: #d0879d"/>
    <path d="M244.64,31.22c-4.51,5.08,8.88,13.64,11.71,7.5,1.65-3.56,4.13-11.64,4.13-17.67C255.08,23,248.3,27.11,244.64,31.22Z" transform="translate(-0.03 0)" style="fill: #d0879d"/>
    <path d="M187.09,26.53c2.75,5.08,9.7,13,14.78,16.8-2.12,1.7-5.4,3.28-7.51.64S189.1,34,187.09,26.53Z" transform="translate(-0.03 0)" style="fill: #ab6f81"/>
    <path d="M223.51,8.28c2.32,8.78,2.9,16.23,1.21,22.15,2.64,0,7.51-.95,6.55-5.4A50.21,50.21,0,0,0,223.51,8.28Z" transform="translate(-0.03 0)" style="fill: #ab6f81"/>
    <path d="M260.64,21.77c-2.75,6-8.42,12.89-13.08,16.91,3.71,2.33,7.85,2.61,9.21-.85C258.67,33,259.68,27.37,260.64,21.77Z" transform="translate(-0.03 0)" style="fill: #ab6f81"/>
    <path d="M243.17,31.41c1.92-2.86,16.25-12.55,18-11.44,1.56,1-1.3,12.85-3.8,19.1C254.46,46.39,238.94,37.7,243.17,31.41Zm16.75-9.56c-.36-.31-12.47,7-14.85,10.79s8.68,9.67,10.39,5.38c2.94-7.34,5.12-15.67,4.46-16.17Z" transform="translate(-0.03 0)" style="fill: #0f141b"/>
    <path d="M215.29,27.07c-.4-6.73,5.18-20.41,7.4-20.64s8.55,13.56,9.86,19.7C233.92,32.54,215.72,34.45,215.29,27.07Zm7.42-18.39c-.83,0-5.59,11.34-5.17,18.19.26,4.32,13.26,2.8,12.76-.41-1.3-8.37-6.5-17.78-7.59-17.78Z" transform="translate(-0.03 0)" style="fill: #0f141b"/>
    <path d="M193.4,44.76c-5.53-9.44-8-19-7.18-19.58,1.12-.78,13.51,3.62,19.11,9C211.55,40.11,197.31,51.44,193.4,44.76Zm-5.2-17.28c-.61.49,3.6,10.73,7,16,2.41,3.7,12.22-4.25,8.62-7.7C200,32.05,188.92,27,188.2,27.48Z" transform="translate(-0.03 0)" style="fill: #0f141b"/>
  </g>
</svg>
