<?xml version="1.0" encoding="UTF-8"?>
<svg version="1.1" viewBox="0 0 393.77 362.67" xmlns="http://www.w3.org/2000/svg">
 <g transform="translate(.0019608 .0057143)">
  <path d="m237.3 9.65q-3.85 3.6-6.7 12.05-2.65 7.9-2.25 12.65l-13.9-1.15q-9.4-0.5-12.8-0.35 1-5.9-0.95-13.6-2.25-8.9-7.15-13.15 5.1 1.75 9.6 6.95 3.65 4.1 4.85 7.6 1.25-1.9 1.6-9.25 0.35-7.2-0.5-10.85 5.2 2.4 8.3 9.75 2.1 5.05 2.85 11.4 1.75-3.85 6.6-7.45 5.15-3.8 10.45-4.6" fill="#e8d4d8"/>
  <path d="m253.55 41.1q31.25 12.2 48.6 37.4 14.35 20.75 18.15 48.3-11.6 1.45-18.6 9.35-6 6.75-6.55 15.3-10.4-5.7-23.2-7.05-12.1-1.3-24.05 1.5-11.9 2.8-20.85 8.9-9.4 6.35-13.55 15-20.45-19.75-50.1-20.85-13.2-0.5-25.45 3.15t-21.2 10.8q-7.1-9.2-17.35-13.8-10.3-4.65-20-2.95 0.2-17.95 6.25-35.1 6.4-18.15 18.6-33 27.9-34 77.85-43.05-6.4 3.55-7.05 8.65-0.7 4.9 4.15 6.8 7.45 2.9 15.35-1.55 6.85-3.9 14.4-13.6 14.35 7.45 25.1 9.6 13.6 2.65 19.5-3.8" fill="#f4b4d0"/>
  <g fill="#e8d4d8">
   <path d="m209.35 12.85q-0.3 6.1-1.35 7.65-0.4-1.15-1.2-2.4l-1.7-2.45q0.3-4.85 0-6.95 1.25 0.5 2.55 1.8 1.25 1.2 1.7 2.35"/>
   <path d="m234.05 44.9q-10.75-2.15-25.1-9.6-7.55 9.7-14.4 13.6-7.9 4.45-15.35 1.55-4.85-1.9-4.15-6.8 0.65-5.1 7.05-8.65 16.9-3.05 31.25-2.45 20.45 0.8 40.2 8.55-5.9 6.45-19.5 3.8"/>
   <path d="m109.6 271.6q5.65 0.1 10.05-0.2-5.65 1.6-11.05 6.8-3.15 2.95-7.5 8.7-3.75 4.85-10.2 7.8-6.1 2.75-12.75 3-6.8 0.3-11.85-2.1-5.45-2.55-7.3-7.65-4.15-11.45-14.6-16.3-5.85-2.75-18.1-4.3l-14.05 0.45q-7.25 0.6-9.55-1.95-2-2.2 0.6-6.8 2.35-4.3 7.8-9.25 12.6-11.45 24.3-13.4-1.15 2.45 2.8 4.1 2.65 1.1 9.8 2.45l11.2 2.4q5.65 1.65 7.05 3.9 2.5 2.85 3.7 6.75l1.6 6.85q1.85 8.45 8.3 12.55 7.2 4.6 15.9 0.95l6.9-3.15q4-1.7 6.95-1.6"/>
  </g>
  <path d="m109.6 271.6q-2.95-0.1-6.95 1.6l-6.9 3.15q-8.7 3.65-15.9-0.95-6.45-4.1-8.3-12.55l-1.6-6.85q-1.2-3.9-3.7-6.75-2.05-2.35-7.95-4l-11.1-2.4q-6.8-1.3-9.3-2.4-3.65-1.6-2.5-4.05 2.5-5.35 16.2-6.05 13.25-0.65 25.7 3.4 6.8 2.25 19.45 13.9 13.6 12.45 15.2 13.3 6.6 3.45 20.1 0.85 12.6-2.45 19.15-7.25l10.6 1.65q-16.55 10.35-27.9 13.35-8.9 2.4-24.3 2.05" fill="#f4b4d0"/>
  <path d="m225.15 15.3q-3.35 3-4.9 6.4-0.45-3.8-1.25-6.9 1.2-1.6 2.75-2.9 1.8-1.5 3.25-1.9l0.15 5.3" fill="#e8d4d8"/>
  <path d="m364.9 235.9q9.35 3.9 17.4 10.35 6.7 5.4 8.95 9.4 1.85 3.4-1.5 6.1-4.1 3.3-14.35 3.1-9.4-0.2-17.55 2.5-11.6 3.8-17.1 12.65-6 9.65-10 13.3-6.65 6.05-16.2 6.35-6.8 0.2-11.95-3.7-3.75-2.85-8.05-9.35l-7.3-11q-4.6-6-9.8-8.65l13.1 1.55q2.15 0.15 7.8 2.9 6 2.9 9.6 3.5 12.8 2 22.95-16.9 3.55-6.65 11.15-11.6 8.15-5.35 16.5-5.55 3.4-0.1 5.1-1.55 1.55-1.35 1.25-3.4" fill="#e8d4d8"/>
  <path d="m363.65 239.3q-1.7 1.45-5.1 1.55-8.35 0.2-16.5 5.55-7.6 4.95-11.15 11.6-10.15 18.9-22.95 16.9-3.6-0.6-9.6-3.5-5.65-2.75-7.8-2.9-45.7-3.45-61.05-27.85l10.8 1.95q6.55 9.75 23.25 12.3 13.55 2.05 21.85-0.9 5.05-1.75 13.55-7.75 11.9-8.35 15.35-10.4 20.7-12.3 41.75-7 3.85 0.95 6.3 3.05 2.25 1.9 2.55 4 0.3 2.05-1.25 3.4" fill="#f4b4d0"/>
  <g fill="#e8d4d8">
   <path d="m366.5 141.95q1.35 19.65-13.05 36.05-14.5 16.5-37.2 20.8-9.55 30.2-38.4 40.15-24.5 8.5-53.45 0.4-9.95 8.95-25.25 13.55-14.95 4.5-31.35 3.9-16.85-0.65-31.2-6.6-15.4-6.4-24.95-17.85-17.6 1.25-32-5.05-14.1-6.15-21.8-18.05-16.3-25.1-0.35-47.1-14.4-23.35-0.05-43.8 11.8-16.85 36.4-25.25-14.15 24.05-14.45 53.05 9.7-1.7 20 2.95 10.25 4.6 17.35 13.8 8.95-7.15 21.2-10.8t25.45-3.15q29.65 1.1 50.1 20.85 4.15-8.65 13.55-15 8.95-6.1 20.85-8.9 11.95-2.8 24.05-1.5 12.8 1.35 23.2 7.05 0.55-8.55 6.55-15.3 7-7.9 18.6-9.35-3-21.55-13.1-39.45 22.15-0.05 38.8 13.45 18.75 15.2 20.5 41.15"/>
   <path d="m124.85 292.85q14.2-8.8 25.3-17.25-1.65 5.15 2.55 6.6 3.7 1.3 10.95-0.5 6.85-1.7 13.75-5.35 7.15-3.7 10.85-7.7 13.6 11.5 28.2 17.4 18.1 7.35 26.6 0.3 4.5-3.75 2.4-12.1-1.55-6.15-6.55-14.5 6.4 5.45 22.2 16 11.35 7.6 12.15 10.4 0.8 3-0.95 4.55-1.85 1.6-5.15 0.3l9.2 7.75q5.2 4.7 6.05 7.6 1 3.25-1.2 5.75t-5.2 1.4q5.65 6.65 7.65 12.1 2.25 6.1-0.6 9.4-3.9 4.5-15.35-0.1-11.15-4.45-20.85-13.95 2.1 6.65-2.1 8.4-5.4 2.15-13.3-4.2-8.45-6.75-16.35-20.75 0.35 3.05-0.65 4.9-0.95 1.85-3.05 2.05-6.4 0.65-12-5.65-7.6-8.4-11.7-27.7-3.9 8.8-9.05 15.3-5.15 6.45-12.1 11.2-6.05 4.2-10.25 3.35-3.95-0.8-2.1-4.6 0.6-1.15 2.95-4-14.4 11.45-23.35 11.45-2.7 0-3.25-1.4-0.6-1.35 1-3.75-20.55 7.25-27.25 4.55-2.45-1-1.95-3 0.55-1.9 3.2-3.2 7.65-3.85 19.3-11.05"/>
   <path d="m178 293.5q6.3-7.85 9.7-15.5 4.1 19.3 11.7 27.7 5.6 6.3 12 5.65 2.1-0.2 3.05-2.05 1-1.85 0.65-4.9 5.95 10.5 13.3 17.6t12.95 7.7q2 5.1 0.95 9.65-0.9 4-2.9 4.65-2.75 0.95-5.5-1-2-1.45-3.65-4.15 2.3 8.55 1.35 14.2-1.15 6.85-6.85 7.8-6.05 1-10.85-3.6-4.5-4.4-7.15-13.05-4.55 4.5-9.45-1-5.15-5.75-6.35-18.4-5.65 4.25-9.6-1.75-5-7.65-3.35-29.55"/>
  </g>
  <path d="m152.7 282.2q-4.2-1.45-2.55-6.6 14.2-10.9 20.3-18.95 15.1 0.2 28.85-3.9 14-4.2 23.5-12 4.85 9.4 16.1 19 5 8.35 6.55 14.5 2.1 8.35-2.4 12.1-8.5 7.05-26.6-0.3-14.6-5.9-28.2-17.4-3.7 4-10.85 7.7-6.9 3.65-13.75 5.35-7.25 1.8-10.95 0.5" fill="#f4b4d0"/>
  <g fill="#ca0537">
   <path d="m178.75 90q0.8 9.05-5 16.35-5.6 7-12.85 7.3-3.35 0.15-5.95-2.85-2.4-2.85-3.3-7.35-2.1-10.75 5-17.45 2.45-2.3 5.25-1.8 2.65 0.5 3.1 2.95 4.75-4.3 9.2-3 4.15 1.2 4.55 5.85"/>
   <path d="m189.75 71.3q3.2-6.65 8.65-9.9 5.1-3 8.6-1.25 3.8 1.95 4.1 7.8 0.3 5.75-2.85 12.6-2.85 6.2-7.5 9.4-4.8 3.25-9 1.45-3.95-1.6-4.55-7.5-0.6-5.95 2.55-12.6"/>
   <path d="m152.45 58.85q4.15 0.25 4.7 5.5 0.55 5.2-2.75 12.4-3.55 7.7-8.75 11-4.85 3.1-8.65 0.85-2.85-1.75-3-6.8t2.6-10.4q2.95-5.75 7.5-9.3 4.5-3.5 8.35-3.25"/>
  </g>
  <path d="m193.6 74.45q1.45-3.7 4.1-6.05 2.85-2.55 5.05-1.45 1.65 0.8 1.75 3.85 0.15 3.4-1.75 7.9-1.55 3.7-4 5.55-2.4 1.9-4.35 0.9-1.75-0.85-1.9-4.1-0.2-3.15 1.1-6.6" fill="#0081cc"/>
  <path d="m141.35 73.1q1.9-3.8 4.8-6.05 3-2.3 4.8-1.15 1.4 0.9 0.9 4.35-0.45 3.15-2 6.15-2.1 4-4.65 5.85-2.55 1.9-4.3 0.75-1.25-0.85-1.15-3.8 0.1-3.1 1.6-6.1" fill="#0081cc"/>
  <path d="m196.05 75.35q0.45-1.25 1.35-2 0.95-0.75 1.75-0.55 0.8 0.25 1 1.35 0.2 1.05-0.25 2.35t-1.3 2-1.65 0.5-1.05-1.3q-0.25-1.05 0.15-2.35" fill="#fff"/>
  <path d="m147.4 74.95q-0.7 1.45-1.7 2-0.9 0.45-1.45 0-0.6-0.5-0.5-1.6 0.1-1.15 0.8-2.25 0.55-0.9 1.35-1.35t1.4-0.2q0.5 0.3 0.6 1.2 0.05 1-0.5 2.2" fill="#fff"/>
  <path d="m209.35 12.85q-0.3 6.1-1.35 7.65-0.4-1.15-1.2-2.4l-1.7-2.45q0.3-4.85 0-6.95 1.25 0.5 2.55 1.8 1.25 1.2 1.7 2.35" fill="#c8b7bc"/>
  <path d="m151.2 254.55 10.6 1.65q-15.05 9.4-25.5 12.65-4-1.5-11.5-6.1 7.25-0.5 14.9-2.9 7.45-2.35 11.5-5.3" fill="#d39cb5"/>
  <path d="m225.15 15.3q-3.35 3-4.9 6.4-0.45-3.8-1.25-6.9 1.2-1.6 2.75-2.9 1.8-1.5 3.25-1.9l0.15 5.3" fill="#c8b7bc"/>
  <path d="m269.9 255.5q-6.25 2.6-13.95 1.8-6.15-0.6-14.1-3.6-7.7-5.6-12.35-13.05l10.8 1.95q4.2 6.3 13.05 9.7 7.3 2.75 16.55 3.2" fill="#d39cb5"/>
  <path d="m197.2 275.45q-10.15 1.95-19.2 0.6 6.7-3.55 10.25-7.4 3.8 3.3 8.95 6.8" fill="#c8b7bc"/>
  <path d="m197.2 275.45q-5.15-3.5-8.95-6.8-3.55 3.85-10.25 7.4-10.5-1.6-19-7.65 7.3-6.25 11.45-11.75 15.1 0.2 28.85-3.9 14-4.2 23.5-12 4.3 8.35 13.6 16.8-20.3 14.25-39.2 17.9" fill="#d39cb5"/>
  <path d="m93.4 214.55q6.3-1.65 9.25-6.15 10.15 13.6 29.35 20.4 17 6 37.5 5.65 19.1-0.35 34.4-5.85 15.5-5.55 20-13.95 29.2 16.2 57.9 6.15 11.7-4.05 21.5-12.05 8.95-7.25 14.35-16 0.15 3.3-0.2 5.8l-1.2 0.25q-9.55 30.2-38.4 40.15-24.5 8.5-53.45 0.4-9.95 8.95-25.25 13.55-14.95 4.5-31.35 3.9-16.85-0.65-31.2-6.6-15.4-6.4-24.95-17.85-17.6 1.25-32-5.05-14.1-6.15-21.8-18.05-6.95-10.8-8-20.95 11.15 21.2 29.55 26 7.5 1.95 14 0.25" fill="#c8b7bc"/>
  <path d="m178 293.5q6.3-7.85 9.7-15.5 4.1 19.3 11.7 27.7 5.6 6.3 12 5.65 2.1-0.2 3.05-2.05 1-1.85 0.65-4.9 5.95 10.5 13.3 17.6t12.95 7.7q1.4 3.45 1.3 6.85-1.95 2.7-6.15 2.55-3.95-0.1-6.35-2.35-0.25 3.05-3.1 5.2-2.7 2.15-6.65 2.6-9.5 1.1-15-7.05-1.45 1.6-5.05 0.9-3.9-0.75-7.55-3.9-1.35-4.35-1.85-9.7-5.65 4.25-9.6-1.75-5-7.65-3.35-29.55" fill="#c8b7bc"/>
  <g fill="#0f141b">
   <path d="m321.15 126.75q0.05 0.35-0.95 0.4-0.95 0.1-1-0.25-5.55-41.1-35.4-66.75-30.45-26.2-75.1-26.55-25.15-0.25-48.45 7.95-23 8.05-40.8 23.05-18.2 15.3-28.2 35.6-10.55 21.35-10.65 45.6 0 0.35-1.4 0.35-1.45 0.05-1.45-0.3 0.1-26.05 11.55-48.3 10.65-20.65 30-36.05 18.35-14.65 41.95-22.5 23.2-7.7 47.4-7.5 47.3 0.45 78.05 27.65 29.35 25.95 34.45 67.6"/>
   <path d="m59.45 158.3q1.35-1.5 2.45-1.45 1.05 0-0.25 1.5-10.3 11.6-11.05 24.25-0.75 12.7 8 26.2 7.7 11.85 21.6 17.85 13.95 6 31.05 4.85 0.3 0 0.7 1.4 0.45 1.35 0.1 1.4-17.9 1.45-32.9-5-14.95-6.4-22.9-18.95-8.8-13.9-8.1-26.85 0.7-13.25 11.3-25.2"/>
   <path d="m73.55 148.75q-1.95 0.85-1.45-0.1t2.45-1.65q11.8-4.35 23.9-0.15 11.95 4.2 19.6 15.15 0.2 0.3-0.7 1.05t-1.15 0.5q-8.2-10.75-20.4-15-12.25-4.25-22.25 0.2"/>
   <path d="m93.45 92.3q0.35-0.1 0.6 0.7t-0.1 0.9q-26 8.75-36.95 26.45-12.15 19.65 1.4 41.3 0.2 0.3-0.8 1.05t-1.2 0.45q-14.9-23.75-0.8-44.7 11.95-17.8 37.85-26.15"/>
   <path d="m213.3 168.1q4.95-9.4 14.9-15.95 9.6-6.25 21.85-8.65 12.35-2.35 24.6-0.25 13 2.3 23.35 9.25 1.45 1 1.75 2l-1.1 0.05q-10.35-6.95-23.55-9-12.2-1.85-24.75 0.7-12.15 2.5-21.6 8.55-9.7 6.15-14.05 14.5-1 1.9-2.45 0.45-11.15-10.45-26.15-15.6-14-4.75-29.1-4.2-14.65 0.55-27.1 6.05-12.8 5.6-20.3 15.15-1.5 1.9-1.35 0.7 0.2-1.2 1.65-3.2 7.5-10 20.35-15.65 12.4-5.5 27.25-5.85 15.05-0.3 29.3 4.8 15.1 5.45 26.5 16.15"/>
   <path d="m331.3 126.4q2.15 0.35 2.75 1.1 0.65 0.75-1.45 0.4-16.4-2.45-26.85 5.7-9.2 7.15-9.8 18.15 0 0.35-0.95-0.55-0.95-0.95-0.95-1.2 1-11.35 10.05-18.2 10.4-7.9 27.2-5.4"/>
   <path d="m347.1 100.15q19 16.1 20.8 42.2 1.4 20.25-13.7 37.15-15.1 16.85-38.15 21-0.35 0.1-0.15-1.45 0.15-1.55 0.5-1.6 22.4-4.05 36.5-19.9t12.75-35.55q-1.65-24.7-19.3-39.7-15.9-13.55-37.6-14.1-0.45 0-1.25-1.25t-0.45-1.3q22.7-0.15 40.05 14.5"/>
   <path d="m317.45 190.45q0.35-2 0.9-1.2 0.55 0.75 0.2 2.75-2.5 14.6-10.35 26-7.9 11.4-20.15 18.15-26.65 14.7-63.8 4.2-0.35-0.1 0.35-1.15t1.05-0.95q33.55 9.5 60-4.3 12.55-6.6 20.7-17.6 8.45-11.3 11.1-25.9"/>
   <path d="m105 223.95q-1.2-2.4-0.95-3.75t1.4 1.05q7.15 14.65 23.5 23.6 15 8.25 34.3 10.05 18.8 1.75 35.7-3.1 17.7-5.1 27.75-15.85 1.8-1.9 1.8-0.9 0 1.05-1.75 2.95-10.35 11.1-28 16.5-17 5.15-35.7 3.65-19.3-1.6-34.3-9.95-16.35-9.1-23.75-24.25"/>
   <path d="m253.1 40.4q0.25-0.25 0.9 0.3t0.4 0.8q-5.75 6.75-18.8 4.65-10.95-1.85-26.4-9.8-8.1 10.25-16.1 14.1-7.95 3.85-15.1 1.05-4.9-1.9-4.2-7.2 0.75-5.4 6.95-9.3 0.4-0.25 1.75 0 1.3 0.3 0.95 0.45-6.75 3.4-7.4 8.2-0.6 4.4 3.5 6 6.65 2.6 13.75-1.1 7.15-3.7 15-13.8 0.45-0.5 1.05-0.25 13.5 7.1 24.95 9.25 13.7 2.65 18.8-3.35"/>
   <path d="m232.45 10.15q3.05-1.4 4.8-1.6 1.8-0.15 0.65 1.1-3.75 4.3-6.55 12.5-2.65 7.85-2.15 12.05 0.1 0.35-0.85-0.25-0.9-0.6-0.9-1 0-4.45 2.1-10.85 2.2-6.9 5.4-11.1-4.5 1.25-8.3 4.35-3.4 2.75-5.25 6.15-0.55 1-1.2 1.1-0.8 0.15-1-1.35-1.95-14.65-9-19.05 0.25 2.45 0 8.1-0.25 6.45-1 9.35-0.4 1.5-1.15 1.75t-1.3-1q-1.4-3.35-4.15-6.55-2.7-3.15-5.8-5.25 4.1 5.85 5.45 14.3 0.95 6.35 0.2 10.4l-1.25 0.05q-1.2-0.35-1.15-0.7 1.1-5.7-0.6-13.4-1.95-8.75-6.4-13.1 7.25-0.8 14.8 12.6 0.65-3.35 0.8-9.5 0.15-5-0.1-8.5-0.1-1.15 1.55-0.55 1.7 0.7 3.75 2.9 5.6 6.1 6.8 16.4 3.6-5.55 11.8-9.35"/>
   <path d="m204.35 9.75q-0.1-1.3 0.25-1.55 0.35-0.3 1.65 0.3 2 0.95 3.4 3.1 0.2 0.3-0.35 1.2t-0.65 0.55q-0.5-1.55-2.6-3.1 0.25 1.2-0.05 6.15l-1.65-1.75v-4.9"/>
   <path d="m223.65 9.9q1.3-0.55 1.65-0.45 0.5 0.15 0.5 1.45l0.15 4.55q0.05 0.35-0.8 0.35t-0.9-0.35l-0.15-4.15q-2.55 1.35-4.6 4.25-0.15 0.3-0.6-0.55-0.5-0.85-0.35-1 2.2-2.85 5.1-4.1"/>
   <path d="m111.55 261.7q-2.25-1.15-15.7-13.55-12.55-11.65-18.8-13.6-14.35-4.45-27.7-3.05-12.6 1.3-13.5 6.25-0.25 1.4 11.15 3.65 14.8 2.95 19.25 6.7 3.8 3.15 5.75 12.7 1.05 5.05 2.2 7.35 1.9 3.85 6.1 6.55 4.9 3.1 9.9 2.4 3.05-0.4 8.75-3.15 3.35-1.6 5.2-2.25 2.95-1 5.45-0.95 17.05 0.35 29.8-3.95 8.55-2.95 20.8-10.6l1.95 0.15q1.45 0.45 1.1 0.65-13.65 8.3-22.05 11.2-13.5 4.65-31.65 4.25-2.15-0.05-5.2 1.15l-5.2 2.4q-6 2.9-9.1 3.35-5.5 0.85-10.9-2.6-4.55-2.9-6.6-7.5-1.05-2.35-2.2-8.1-1.95-9.45-6.95-12.75-4.35-2.85-18.25-5-6.1-0.95-8.9-2.25-3.15-1.45-2.75-3.65 1.3-6.95 16.65-8.3 14.9-1.35 28.85 3.55 7.05 2.45 19.05 14.2 12.75 12.45 14.25 13.25 6.2 3.25 19.6 0.5 12.85-2.65 17.1-7.2l2.25 0.15q1.9 0.45 1.6 0.7-5.85 5.15-19.55 8-14.6 3-21.75-0.65"/>
   <path d="m87.6 294.9q8.55-2.95 12.8-8.55 5.35-7.05 8.55-10 4.6-4.3 9.7-5.6l4.6 0.2 3.25 0.45q-8.1 0.05-15.05 5.6-4.85 3.85-9.95 11.25-4 5.8-12.7 9.1t-16.9 2.05q-5.2-0.8-8.75-3.6-3.35-2.65-4.9-6.8-4.35-11.9-15.85-17-5.45-2.4-16.2-3.85-3.95-0.5-11.4 0.25-8.9 0.85-12.4-0.9-3.5-1.7-1.9-6 2.7-7.25 13.7-15.9 11.6-9.1 21.2-10.45 0.35-0.05 0.2 1.25-0.15 1.35-0.5 1.4-8.75 1.05-19.35 9-10.15 7.6-12.6 14.25-1.25 3.3 0.85 4.7 2.6 1.75 10.6 0.95 7.7-0.75 11.8-0.2 11.2 1.4 16.05 3.35 12.7 5.1 17.35 17.8 1.3 3.55 4.6 5.9 3.3 2.3 8.15 3.05 7 1.05 15.05-1.7"/>
   <path d="m131.6 304.35q0.35-0.1-0.4 1.35l-1.05 1.55q-12.15 4.2-19.85 4.6-7.35 0.3-8.75-2.95-0.6-1.45 0.5-3.4 1.15-1.95 3.35-3 14.85-7 32.5-19.25 22-15.35 29.35-26.9 0.2-0.35 2.55-0.4l2.1 0.2q-8.45 11.9-33.1 28.7-18.45 12.55-32.85 19.8-1.5 0.75-2.35 1.8-0.8 1.05-0.5 1.8 0.85 1.9 6.8 1.55 7.95-0.5 21.7-5.45"/>
   <path d="m142.15 295.75q1.5-0.95 2.35-0.8 0.85 0.2-0.65 1.15-6.85 4.4-10.25 8.2-2.75 3.1-2.3 4.55 0.65 2.3 7.45 0.25 8.6-2.6 19.15-12 0.35-0.35-0.2 1.3-0.6 1.65-1.15 2.1-9.55 8.1-18.55 10.55-8 2.2-9-1.15-0.65-2.4 2.8-6.1 3.4-3.6 10.35-8.05"/>
   <path d="m160.85 308.45q-4.5 1.3-6.85-0.75-1.85-1.6-0.9-4 0.65-1.75 3.35-4.9 3.9-4.75 6.15-8.75 1.25-2.2 2-1.75 0.75 0.4-0.5 2.6-2.35 4.2-6.35 9-4.35 5-2.6 6.5 1.8 1.6 5.9-0.05 4.15-1.6 8.95-5.75 11.7-10 17.4-24.85 0.1-0.35 0.45 1.5l0.15 2.15q-5.95 14.5-17.7 23.75-5.1 4-9.45 5.3"/>
   <path d="m187 277.65q-0.4-2.25 0.05-3.45 0.5-1.2 0.95 1.05 4.3 22 12.75 30.6 5.1 5.15 10.55 4.65 1.8-0.2 2.35-2.25 0.6-2.2-0.4-6.35l0.8 0.1q0.8 0.45 0.9 0.8 1.2 4.7 0.15 7.4-0.9 2.4-3.45 2.7-6.55 0.6-11.75-4.45-8.5-8.3-12.9-30.8"/>
   <path d="m176.35 295q0-0.3 1.25-1.25 1.3-1 1.25-0.65-1.55 20 2.65 28.15 1.75 3.35 4.15 3.95 2.2 0.55 4.35-1.35 0.25-0.2 0.75 0.75t0.25 1.15q-2.4 2.1-5 1.75-2.85-0.4-5.1-3.65-5.45-8.05-4.55-28.85"/>
   <path d="m206.5 343.25q0.2-0.25 0.45 0.8 0.2 1-0.05 1.2-6.8 5.75-12.3-3.7-5.35-9.2-4.7-23.9 0.1-2.85 1-4.05 0.85-1.25 0.7 1.6-0.65 15.55 4.55 24.8 2.25 4.1 5 5.05 2.8 0.95 5.35-1.8"/>
   <path d="m203.65 330.75q-0.2-2.4 0.5-3 0.65-0.6 0.85 1.75 0.8 10.05 3.6 17.4 2.8 7.4 7.1 10.75 3.95 3.1 8.25 2.5 3.9-0.55 5.55-3.5 2.2-3.85 1.2-11.3-0.8-6.25-3.55-13.35-0.8-2.15 0.2-1.75 1 0.35 1.8 2.5 2.85 7.3 3.55 13.7 0.85 7.5-1.55 11.7-2.25 3.95-7.2 4.45t-9.05-2.7q-4.6-3.65-7.55-11.2-2.9-7.55-3.7-17.95"/>
   <path d="m210.6 294.95q0.35-1 1.4 1.4 6.4 14.5 16.5 24.5 10.05 10.05 15.9 7.7 3.2-1.25 1.8-6.8-1.55-5.95-7.95-13.9-1.25-1.5-0.4-1.55 0.8-0.1 2.05 1.45 6.85 8.5 8.25 14.7t-3 7.95q-6.85 2.75-16.8-6.4-10.35-9.4-17.1-25.6-1-2.45-0.65-3.45"/>
   <path d="m240.45 330.15q-0.15-0.35 0.65-0.65t0.9 0q2.1 5.25 1.05 10.3-0.95 4.6-3.4 5.45-4.6 1.6-9-4.35-0.4-0.55-0.25-1.85t0.4-0.95q1.3 2.25 2.95 3.7 2.7 2.35 5.35 1.4 1.5-0.55 2.3-3.95 0.95-4.3-0.95-9.1"/>
   <path d="m264.65 302q11.65 8.6 17.2 17.95 5.8 9.8 1.85 15.6-3.25 4.8-14.3 1.3-11.6-3.7-21.75-13.95-0.4-0.4-0.55-1.75-0.2-1.35 0.05-1.1 9.45 9.35 20.6 13.9 11.15 4.6 14.65 0.5 4-4.6-3.35-15.4-6.7-9.9-17.5-17.85-2.7-2-1.2-1.6 1.55 0.4 4.3 2.4"/>
   <path d="m263.25 288.65q-1.25-1.75-1.15-3 0.1-1.2 1.35 0.55 1.15 1.7 7.35 6.7l7.7 6.7q3.9 3.85 4.7 6.5 1.15 3.9-1.05 6.6-2.15 2.55-5.4 1.9-0.4-0.05-0.75-1.15-0.4-1.05-0.05-0.9 2.65 1.3 4.6-0.8t1.05-5.15q-0.7-2.35-4.5-6.05-2.3-2.2-7.4-6.35l-4-3.15q-1.65-1.3-2.45-2.4"/>
   <path d="m150.75 282.5q-1.2-0.75-1.65-2.45-0.55-2.1 0.5-5l0.9-0.05q0.8 0.3 0.7 0.65-1.35 3.55 1.1 5.05 4.65 2.8 16.4-1.15 12.1-4.1 18.9-11.45 0.5-0.6 1.2-0.1 13.3 11.2 27.75 17.15 17.85 7.3 25.95 0.55 7.25-6.05-6.35-27.95l1.65 1.15 2.25 2q5.2 8.75 6.7 14.45 2.1 8.2-2.5 12.05-8.65 7.15-26.95 0-14.85-5.85-29.05-17.6-7.15 7.35-19.65 11.6-12.6 4.3-17.85 1.1"/>
   <path d="m366 235.45q0.4 2.55-1.5 4.3-2 1.85-5.9 1.95-8.15 0.2-16.15 5.5-7.35 4.85-10.8 11.2-8.9 16.55-18.05 18.35-3.55 0.65-7.85-0.75-2.15-0.7-7.45-3.3-6.65-3.15-8.65-3.3-18.6-1.4-33.05-6.55-20.95-7.55-28.9-21.95-0.2-0.3 0.85-0.95 1.05-0.7 1.25-0.4 8.6 14.25 28.85 21.65 14.1 5.15 32 6.45 1.5 0.15 3.6 0.95l4.05 1.85q9.35 4.5 14.7 3.55 9.15-1.6 17.15-16.4 3.6-6.7 11.2-11.75 8.35-5.6 17.2-5.85 2.8-0.1 4.25-1.35 1.35-1.2 1.05-2.95-0.7-4.2-8-6.05-15.8-3.95-30.4 1.65-8.65 3.3-22.95 13.5l-8.55 5.85q-4.65 2.9-8.25 4.15-9.1 3.2-23.2 0.8-17-2.9-23.35-13.15-0.15-0.3 1.3-0.75l1.55-0.1q5.3 9.7 21.6 12.35l12.6 0.7q5.7-0.3 8.9-1.45 3.35-1.15 8.45-4.6l8.9-6.35q13.75-9.75 22.75-13.25 15.05-5.85 30.2-2.1 9.65 2.4 10.6 8.55"/>
   <path d="m365.05 234.6q9.45 3.85 18.2 11.05 7.35 6.05 9.8 10.4 2 3.6-1.6 6.6-4.35 3.65-15.25 3.4-8.75-0.15-16.2 1.85-12.9 3.45-18.55 12.55l-0.05 0.1q-6.25 10.1-10.25 13.9-7.15 6.75-16.9 7.05-7.9 0.25-13.7-5.5-2.8-2.8-8.7-12.15-3.9-6.25-8.2-10.45-5.9-5.75-11.85-6.85l7.35 0.45q4.3 2.45 8.05 7.1 2.25 2.7 6.1 8.85 5.2 8.25 8.45 11.2 5.4 4.9 12.8 4.65 9.2-0.25 15.65-6.1 3.8-3.5 9.75-13l0.05-0.15q6-9.65 18.95-13.45 7.95-2.3 16.45-2.1 9.3 0.2 13.35-2.7 3.3-2.4 1.75-5.2-2.05-3.75-8.65-9.1-8.05-6.5-17.45-10.35-0.35-0.15 0-1.15 0.35-1.05 0.65-0.9"/>
   <path d="m165.6 87.75q-1.1 1.05-1.4-0.45-0.35-1.7-2.5-2.2-2.35-0.5-4.45 1.5-6.5 6.15-4.7 16.4 0.8 4.35 2.95 7.05 2.35 2.9 5.35 2.75 6.9-0.3 12.2-7 5.6-7 4.85-15.7-0.35-4.2-4.2-5.15-4-0.9-8.1 2.8m-0.2-2q5.3-4.15 9.65-2.6 4.1 1.45 4.55 6.8 0.85 9.55-5.3 17.25-5.9 7.4-13.35 7.3-3.65-0.05-6.5-3.3-2.75-3.05-3.8-7.75-2.5-11.2 5-18.3 2.3-2.2 5.35-2.05 3.1 0.15 4.4 2.65"/>
   <path d="m192.1 90.65q3.8 1.6 8.2-1.4 4.4-2.95 7.2-9.05 3.05-6.65 2.8-12.1-0.3-5.4-3.7-7.15-2.9-1.5-7.7 1.25-5.35 3.1-8.35 9.45-3.05 6.45-2.35 12.25 0.65 5.35 3.9 6.75m-3.5-19.75q3.1-6.6 9.2-10.1 5.8-3.35 9.6-1.4 4.1 2.1 4.7 8.15 0.65 6.15-2.65 13.35-3.05 6.7-8.25 10.1-5.15 3.35-9.7 1.65-3.75-1.4-5.05-7.35-1.45-6.8 2.15-14.4"/>
   <path d="m202.35 67.7q-1.45-0.7-3.9 1.25-2.65 2.15-4.05 5.8-1.15 3.2-1.05 6.1t1.4 3.55q1.45 0.7 3.5-0.85 2.25-1.75 3.7-5.2 1.8-4.25 1.7-7.4-0.05-2.65-1.3-3.25m-9.5 6.45q1.6-4.3 5.15-6.7 3.25-2.2 5.1-1.25 1.95 0.95 2.25 4.15 0.3 3.65-1.8 8.65-1.7 4.1-4.6 6.1-2.75 1.95-4.95 0.85-2.05-1.05-2.2-5.1-0.15-3.55 1.05-6.7"/>
   <path d="m156.35 65.45q-0.1-5.5-3.95-5.75-3.65-0.2-7.95 3.25-4.35 3.45-7.1 8.85-2.55 4.95-2.5 9.75 0 4.75 2.6 6.3 3.3 2 7.9-0.95 4.95-3.2 8.3-10.5 2.75-6 2.7-10.95m-12.5-4.1q4.9-3.7 9.15-3.45 4.65 0.3 5.05 6.4 0.4 5.7-2.85 12.8-3.85 8.4-9.3 11.7-5.1 3.05-9.3 0.5-3.2-1.9-3.45-7.25-0.2-5.35 2.7-11.05 3-5.85 8-9.65"/>
   <path d="m150.5 66.6q-1.3-0.85-4 1.4-2.75 2.25-4.4 5.5-1.4 2.8-1.55 5.6-0.1 2.55 0.8 3.15 1.25 0.85 3.5-0.85 2.4-1.8 4.25-5.4 1.45-2.8 1.9-5.8t-0.5-3.6m0.9-1.45q1.75 1.15 1.3 5-0.4 3.4-2.1 6.65-2.35 4.5-5.45 6.45-2.8 1.75-4.6 0.6-1.6-1.05-1.6-4.4 0-3.4 1.65-6.75 2.15-4.4 5.7-6.6 3.25-2.1 5.1-0.95"/>
   <path d="m232.5 61.9q0.8 0.5 0.6 2.3-0.2 1.75-1.2 3.3-0.7 1.15-1.8 1.8-1.15 0.7-2 0.4-2.15 2.6-7.4 4.4-5.65 1.95-10.6 1.2-0.3-0.05 0-0.8 0.3-0.7 0.6-0.65 3.85 0.75 9.4-0.85 5.35-1.6 7.2-3.8-0.4-0.6-0.25-1.95 0.15-1.5 0.9-2.75 1.25-2 2.6-2.6 1.1-0.5 1.95 0"/>
   <path d="m204.5 86c-0.13333-0.13333-0.05-0.36667 0.25-0.7 0.33333-0.33333 0.56667-0.43333 0.7-0.3 1.5333 1.4667 3.7591 2.5504 5.9 3.2 1.906 0.57828 5.95 0.55 5.95 0.55 0.13333-0.63333 0.51667-1.2333 1.15-1.8 0.53333-0.5 1.1717-0.84332 1.85-1.05 0.84738-0.25821 1.7957-0.43432 2.65-0.2 0.58859 0.16144 1.3333 0.51667 1.5 1.05 0.16667 0.56667 0.0333 1.1667-0.4 1.8-0.43333 0.56667-1.05 1.05-1.85 1.45-0.76667 0.36667-1.6667 0.53333-2.7 0.5-1.1-0.06667-1.7667-0.33333-2-0.8 0 0-4.4058 0.21795-6.5-0.35-2.3525-0.63802-4.8333-1.75-6.5-3.35"/>
   <path d="m126.45 60.75q0.85-1.05 1.7-0.9t1.2 1.35q0.3 1.1 0.05 2.65-0.15 1.15-0.8 1.95l-1.2 0.85q-0.15 3.5 2.35 5.35 2.1 1.55 5.9 1.75 0.3 0 0.1 0.7-0.25 0.75-0.55 0.7-9.1-0.6-8.7-8.6-1.6-0.85-1.15-3.2 0.25-1.55 1.1-2.6"/>
   <path d="m121.2 88.95s-1.2756-0.05426-1.85-0.3c-0.711-0.3042-1.4833-0.8-1.85-1.4s-0.41667-1.2-0.15-1.8c0.2-0.43333 0.85852-0.77926 1.4-0.9 0.7385-0.16467 1.5868-0.06431 2.25 0.3 0.95387 0.52401 2.1 1.4 2.1 2.5 2.1667 0.1 4.2167-0.18333 6.15-0.85 1.9-0.66667 3.3333-1.5667 4.3-2.7 0.13333-0.13333 0.3 0.05 0.5 0.55l0.05 0.95c-1.0667 1.1333-2.65 1.9833-4.75 2.55s-4.3667 0.76667-6.8 0.6c-0.23333 0.26667-0.68333 0.43333-1.35 0.5"/>
   <path d="m272.4 286.4q-0.45-1.65-4.35-4.75-3.65-2.95-9.25-6.3-11.35-6.8-20.1-14.4-11.1-9.7-16.55-19.55-0.2-0.3 0.8-1.2t1.15-0.6q5 10.1 15.9 19.9 8.45 7.55 19.85 14.5 8 4.8 9.95 6.25 3.95 2.9 4.8 5.55 1.05 3.1-1.15 5.15-2 1.8-4.6 1.4-0.55-0.05-1.35-1.25-0.8-1.25-0.4-1.05 2.7 1.2 4.35 0.25 1.8-1.05 0.95-3.9"/>
  </g>
 </g>
</svg>
