<svg baseProfile="tiny" height="682px" version="1.2" width="650px" xmlns="http://www.w3.org/2000/svg" xmlns:ev="http://www.w3.org/2001/xml-events" xmlns:xlink="http://www.w3.org/1999/xlink"><defs /><path d="M311,376L311,378L317,385L324,385L329,382L331,379L330,375L328,374L316,374L315,375L312,375Z" fill="none" stroke="black" stroke-width="5" /><path d="M426,290L413,285L396,285L380,296L370,322L371,336L379,351L407,353L425,344L436,333L440,315Z" fill="none" stroke="black" stroke-width="5" /><path d="M272,284L266,292L263,304L266,324L281,346L287,351L296,351L301,338L297,308L285,286Z" fill="none" stroke="black" stroke-width="5" /><path d="M92,184L98,284L77,286L99,368L35,302L54,417L98,473L66,479L71,507L72,482L103,478L54,415L36,342L42,312L101,373L82,301L99,293L92,196L121,210Z" fill="none" stroke="black" stroke-width="5" /><path d="M600,94L478,187L451,253L474,194L590,100L591,128L559,187L473,250L466,235L468,255L555,195Z" fill="none" stroke="black" stroke-width="5" /><path d="M188,94L210,178L240,242L262,265L262,254L276,235L272,199L256,172Z" fill="none" stroke="black" stroke-width="5" /><path d="M631,36L469,283L543,483L410,598L236,569L172,396L243,282L321,405L471,309L270,374L176,55L320,287L558,74L173,47L126,203L185,145L247,275L210,584L119,565L446,651L562,430L484,260Z" fill="none" stroke="black" stroke-width="5" /></svg>