<?xml version="1.0" encoding="UTF-8"?>
<!-- Created with Inkscape (http://www.inkscape.org/) -->
<svg version="1.1" viewBox="0 0 484.91 184.41" xmlns="http://www.w3.org/2000/svg">
 <defs>
  <radialGradient id="radialGradient5290-0" cx="0" cy="0" r="1" gradientTransform="matrix(79.12,21.388,-21.388,79.12,330.35,139.03)" gradientUnits="userSpaceOnUse">
   <stop stop-color="#f7c8dc" offset="0"/>
   <stop stop-color="#f7c8dc" offset=".73771"/>
   <stop stop-color="#f7ee13" offset=".85211"/>
   <stop stop-color="#f7ee13" offset="1"/>
  </radialGradient>
  <radialGradient id="radialGradient5295-4" cx="0" cy="0" r="1" gradientTransform="matrix(61.274,82.954,-82.954,61.274,23.632,1.711)" gradientUnits="userSpaceOnUse">
   <stop stop-color="#f7ee13" offset="0"/>
   <stop stop-color="#f7ee13" offset=".78167"/>
   <stop stop-color="#f7ee13" offset=".7895"/>
   <stop stop-color="#f7c8dc" offset=".90647"/>
   <stop stop-color="#f7c8dc" offset="1"/>
  </radialGradient>
  <radialGradient id="radialGradient5358-4" cx="0" cy="0" r="1" gradientTransform="matrix(62.884,76.8,-76.8,62.884,26.427,9.514)" gradientUnits="userSpaceOnUse">
   <stop stop-color="#f2ef1d" offset="0"/>
   <stop stop-color="#f2ef1d" offset=".73771"/>
   <stop stop-color="#f7c8dc" offset=".85211"/>
   <stop stop-color="#f7c8dc" offset="1"/>
  </radialGradient>
  <radialGradient id="radialGradient5364-9" cx="0" cy="0" r="1" gradientTransform="matrix(62.884,76.8,-76.8,62.884,26.427,9.512)" gradientUnits="userSpaceOnUse">
   <stop stop-color="#f2ef1d" offset="0"/>
   <stop stop-color="#f2ef1d" offset=".73771"/>
   <stop stop-color="#f7c8dc" offset=".85211"/>
   <stop stop-color="#f7c8dc" offset="1"/>
  </radialGradient>
 </defs>
 <g stroke-width=".73177">
  <path d="m250.67 137.01c-24.797-4.6668-37.068-18.382-38.988-26.061-2.0032-8.0122 3.5018-20.36 17.601-27.731l-0.18215-1.9044c-15.098 7.5951-21.148 21.44-19.007 30.001 2.1 8.4008 15.902 23.142 42.222 27.71z" fill="#0f141b"/>
  <path d="m285.71 155.1c4.4107 1.8682 9.2643 8.8589 8.6993 12.912-0.56511 4.054-13.153 2.8067-15.353 2.2007-4.6798-0.89745 4.0991-16.712 6.6531-15.113" fill="#fff"/>
  <path d="m283.28 156.28c-3.3794 3.5495-7.8593 13.234-4.2256 13.932 2.1993 0.60386 14.783 1.8526 15.352-2.1994-2.6605-4.4798-7.7656-9.5306-11.127-11.733" fill="#dcdddd"/>
  <path d="m476.83 134.44c-66.884 26.99-129.52-12.473-159.37-34.446-15.547-11.449-40.681-18.048-50.062-21.163-24.638-27.193-55.12-47.292-90.36-45.166-16.536 0.99865-33.474 4.7871-46.975 10.588-0.20577-0.31181-0.39225-0.6283-0.60688-0.93499-15.782-22.547-50.438-25.52-77.407-6.6441-33.444 23.413-30.694 55.733-19.98 75.673 3.8061 7.0853 9.2284 12.44 13.683 15.467-3.4399-0.25672-6.6003 0.29059-9.2189 1.8362-10.909 19.784-7.6192 36.241 5.5575 43.349 17.139 9.2438 47.883 5.7075 66.711-2.5532 28.519 11.284 68.264 11.627 100.17 1.5512 21.107 2.7674 31.332 4.1415 67.59-0.96565 14.914-2.1011 11.547-17.666 3.7201-24.195 8.6789 2.1633 17.659 5.1844 22.457 7.8812 59.438 33.405 151.34 20.422 177.94-14.393 5.7851-7.5717 3.6285-8.902-3.8455-5.8853" fill="#f7c8dc"/>
  <path d="m481.04 133.1c-31.321 34.484-106.03 28.472-135.03 12.572-10.785-5.9137-23.317-12.309-36.166-17.449-10.247-4.099-20.695-7.3992-30.617-9.0191-6.2663-1.0221-13.345-0.98189-20.725-0.28656l-1.8365 25.024c-17.256 6.7794-37.302 12.399-47.098 12.21-4.2024-0.0804-10.594 0.4308-15.104 1.9402-34.982 11.705-84.359 3.1771-106.03-13.648-3.1084-2.4116-2.3968-4.5213 0.16382-5.6829 14.277-6.4802 24.613-16.2 30.591-25.734 11.733-18.717-12.553-40.278-39.386-22.348-13.358 8.9262-19.992 26.792-30.988 21.237-9.4531-4.7734-17.655-14.413-23.957-28.087-0.07142 10.581 2.9364 20.545 7.2252 28.525 3.8062 7.0839 9.2284 12.438 13.683 15.467 6.2254 2.1461 29.483 19.685 32.411 26.9 2.1464 5.2896 0.48624 9.4121-4.3508 10.584-14.125 3.4225-28.526-0.98241-36.451-8.3605-3.4025-3.1675-5.7213-8.8786-5.6997-15.85-4.314 14.562-0.10889 26.228 10.429 31.911 17.139 9.2438 47.883 5.7076 66.709-2.5523 28.519 11.285 68.266 11.628 100.17 1.5503 21.107 2.7684 31.332 4.1413 67.59-0.96601 14.914-2.1007 11.547-17.664 3.7201-24.195 8.6789 2.1634 17.659 5.1846 22.457 7.8812 59.438 33.405 151.34 20.422 177.94-14.392 4.4753-5.8595 4.1809-7.9676 0.36439-7.2314" fill="#d6adc0"/>
  <path d="m302.73 154.72c59.438 33.406 151.34 20.422 177.94-14.393 5.7851-7.5717 3.6285-8.9028-3.8469-5.8857-66.882 26.99-129.52-12.473-159.37-34.447z" fill="url(#radialGradient5290-0)"/>
  <path d="m52.054 36.679c-33.446 23.412-30.696 55.732-19.981 75.673l97.385-69.03c-7.6844-10.978-19.846-17.317-33.414-18.751-14.295-1.5108-30.156 2.4212-43.991 12.107" fill="url(#radialGradient5295-4)"/>
  <path d="m481.04 133.1c-31.321 34.484-106.03 28.472-135.03 12.572-10.778-5.9098-23.315-12.304-36.154-17.442l-7.1258 26.488c59.438 33.405 151.35 20.428 177.95-14.386 4.4754-5.8595 4.1808-7.9676 0.36436-7.2314" opacity=".137" style="mix-blend-mode:normal"/>
  <path d="m24.854 83.824c-0.07281 10.582 2.9364 20.545 7.2238 28.526l8.5479-6.0595c-6.0363-5.3305-11.367-12.913-15.771-22.466" fill="#dcdddd" style="mix-blend-mode:multiply"/>
  <path d="m51.776 128.99c-1.0777-5.9343-11.419-12.487-16.775-9.5702-4.3278 2.3586-0.35969 7.8205 1.3947 10.503 0.05064-0.0915 0.09558-0.17944 0.1447-0.27096 4.0893-2.4139 9.4984-2.398 15.236-0.6624" fill="#fff"/>
  <path d="m37.609 118.78c4.7138 2.3709 7.3077 6.2414 8.4666 9.0711 1.8372 0.15544 3.7487 0.55088 5.7024 1.1404-0.77612-4.267-8.4981-10.629-14.169-10.211" fill="#dcdddd"/>
  <path d="m65.636 95.794c0.21338 9.527-5.8058 17.389-13.443 17.559-7.6361 0.17153-14-7.4136-14.214-16.941-0.21357-9.5255 5.8056-17.388 13.443-17.557 7.6361-0.17145 14 7.4129 14.214 16.939" fill="#fff"/>
  <path d="m118.28 66.004c-5.3957 5.7985-14.264 6.8732-22.837 1.239-10.276-6.7532-10.604-16.25-5.6795-22.757 4.2357-5.5935 16.398-5.5696 23.148-0.45955 8.0056 6.0575 10.489 16.475 5.3687 21.978" fill="#fff"/>
  <path d="m137.45 70.234c-3.125-4.6438-10.257-6.9904-19.65-4.4397-12.988 3.525-23.992-1.961-38.966 9.0835-11.313 8.343-14.928 19.046-18.317 32.757-1.4011 5.6752-9.0338 12.128-4.0053 21.134 2.9439 5.2725 7.9624 7.2528 15.243 3.5748h0.02296c15.999 2.2629 25.722-5.1052 38.653-14.642 11.254-8.2998 24.122-20.913 22.166-30.19l-1e-3 -2.1e-4c7.3346-6.0906 7.8966-12.776 4.8577-17.292" fill="#fff1ad"/>
  <path d="m131.45 85.154c-9.4992 8.2954-22.648 6.4049-35.263 15.425-9.6067 6.869-16.438 21.447-28.085 23.783-3.7946 0.76221-9.5343-0.20733-13.176-3.2828-0.31318 2.3557 0.02788 4.9019 1.5864 7.6946 2.9441 5.2709 7.9624 7.2523 15.243 3.5748h0.02296c15.999 2.2627 25.722-5.1053 38.653-14.644 11.253-8.2983 24.122-20.913 22.166-30.189l-2e-3 -3.7e-4c5.28-4.3816 7.0367-9.0689 6.4829-13.038-1.8504 4.3346-4.8497 8.2398-7.6258 10.663" fill="#dcd096"/>
  <path d="m77.739 128.31c2.2278 0.72146 7.3221 2.1022 8.0598 1.3307 0.31311-0.32674-0.94099-5.51-1.9641-7.8666-1.817 2.3401-3.794 4.5663-6.096 6.5355" fill="#fff"/>
  <path d="m119.18 94.864c1.3498 0.98329 6.2818 3.5113 7.3094 3.0739 0.81059-0.34694 0.8253-2.7333 0.22107-6.4958-0.19275 0.1067-0.37985 0.21133-0.57783 0.31415-2.5709 1.3498-4.8526 2.3262-6.9527 3.1078" fill="#fff"/>
 </g>
 <g fill="#0f141b" stroke-width=".73177">
  <path d="m37.236 118.79c-1.7224-2.1461-3.2388-4.4316-4.5072-6.7932-11.493-21.389-12.34-52.249 19.752-74.714 26.588-18.612 60.85-15.713 76.368 6.4608 1.8596 2.6561 3.3995 5.5215 4.5929 8.5391 0.98834 2.4917 2.0483 2.2653 1.3539-0.61879-0.52187-2.1655-1.684-5.2858-4.2303-8.9481-16.553-23.806-52.923-26.173-80.188-7.0908-30.538 21.378-32.787 52.728-19.683 77.114 1.2136 2.2591 2.6829 4.6039 4.2997 6.6763z"/>
  <path d="m58.757 112.23c-2.031 1.3688-4.1432 2.0586-6.5061 2.1118-8.0356 0.18003-15.143-7.9763-15.364-17.897-0.22228-9.9207 6.509-18.606 14.543-18.786 6.7574-0.14993 12.685 5.6497 14.499 13.33l-1.1985 2.6483c-1.031-8.0546-6.6638-14.18-13.293-14.033-7.2159 0.16143-12.919 7.6968-12.716 16.799 0.20245 9.1011 6.2393 16.376 13.454 16.214 2.6364-0.0578 5.1573-1.1024 7.2872-3.0189z"/>
  <path d="m120.08 65.204c3.3818-5.0178 2.8298-14.881-6.61-22.025-7.3302-5.5493-20.139-5.2938-24.563 0.54876-5.4798 7.2409-4.4319 17.512 5.7848 24.228l2.7942-0.33698c-10.507-5.8306-12.429-15.681-7.132-22.679 3.9108-5.1679 15.481-5.3322 22.106-0.31715 7.5878 5.7445 9.8958 15.91 5.2732 20.88z"/>
  <path d="m55.442 129.89c-5.1532-9.2299 2.7486-16.463 4.1412-22.097 3.2175-13.02 6.5636-24.675 18.321-33.346 15.449-11.395 26.426-5.4872 39.487-9.0316 8.9042-2.4198 16.984-1.1179 20.703 4.4075 4.1939 6.2318 2.0482 15.918-11.609 23.089-11.801 6.1959-17.49 4.3469-27.169 11.482-9.2504 6.8204-13.027 19.923-24.282 27.351-3.7784 2.4944-7.2234 3.7969-10.233 3.902l-1.6191-1.9731c3.0363 0.54928 6.7137-0.56266 10.916-3.337 10.83-7.1489 13.779-19.866 23.994-27.398 9.6631-7.1233 16.221-5.595 27.484-11.51 13.134-6.896 14.409-15.443 11.044-20.443-3.2207-4.7849-11.177-6.2166-18.84-4.137-12.243 3.3226-24.275-1.6889-38.72 8.9635-11.378 8.392-14.775 19.148-18.035 32.339-1.5683 6.341-8.6964 12.322-4.0779 20.594 0.56337 1.0107 1.1947 1.8693 1.8897 2.5774z"/>
  <path d="m72.932 131.76c11.996 1.4035 19.999-2.0604 37.056-14.64 11.514-8.493 23.191-20.461 21.972-28.925l1.825-1.2403c2.4335 11.548-16.785 27.297-22.667 31.636-11.034 8.1388-22.766 17.2-39.975 14.766z"/>
  <path d="m78.383 127.73c2.8277 0.8831 5.7516 1.4882 6.7093 1.39-0.11807-1.1562-0.97158-4.6779-1.8075-6.7524l1.449-1.3372c0.44873 0.98497 2.5016 8.1783 1.6025 9.1179-0.99119 1.0349-6.2973-7e-3 -8.9547-0.87214z"/>
  <path d="m120 94.534c1.5728 1.0167 5.2623 2.8126 6.1758 2.7182 0.11246-0.18544 0.51579-1.2123-0.18265-5.6077l1.7608-0.72271c0.99858 6.0239-0.10626 7.3338-0.97239 7.7034-1.4064 0.59896-7.1467-1.9526-8.6488-3.228z"/>
  <path d="m81.947 95.704c-1.4366-0.69072-0.88142-1.8892 0.40682-1.2903 1.3607 0.6351 2.4801 1.0332 3.0686 1.109 0.72084 0.0766 0.66617 0.55491 0.0908 0.7699-0.80539 0.29783-2.5592-0.10405-3.5657-0.58974"/>
  <path d="m95.83 85.544c-0.19778-1.6138-1.5388-1.4673-1.38-0.0263 0.16971 1.5208 0.19017 2.7336 0.07149 3.3269-0.14482 0.72607 0.32088 0.82544 0.71223 0.33844 0.55237-0.68033 0.73441-2.5064 0.59625-3.6392"/>
 </g>
 <g fill="#c18800" stroke-width=".73177">
  <path d="m46.712 73.434c4.561-8.3752 26.057-24.16 33.848-26.607 2.3027-0.72329 2.7336 0.1842 0.52647 1.0885-8.7754 3.6015-28.23 17.855-33.386 26.195-1.2748 2.0656-2.1816 1.514-0.98775-0.67637"/>
  <path d="m56.503 74.674c3.4686-5.3365 18.117-16.664 23.902-18.739 2.2018-0.78944 2.4392 0.10369 0.54246 1.0537-6.8638 3.4297-18.398 12.565-23.502 18.627-1.3128 1.5594-2.127 0.88216-0.94194-0.94187"/>
  <path d="m64.092 78.724c2.1254-4.2238 13.079-12.774 17.737-14.378 2.3372-0.80415 2.6294 0.11218 0.47098 1.1746-5.1379 2.5334-14.28 9.5006-17.224 13.965-1.2174 1.8454-1.931 1.1199-0.98416-0.76178"/>
 </g>
 <g fill="#0f141b" stroke-width=".73177">
  <path d="m51.03 87.234c-0.55871-0.53822-1.3711-0.56252-1.8168-0.052-0.44396 0.50719-0.35328 1.3549 0.20265 1.8926 0.55871 0.53807 1.3724 0.56303 1.8163 0.0556 0.44549-0.50844 0.3551-1.3574-0.20232-1.8956"/>
  <path d="m97.069 50.704c0.54056 0.55512 0.56782 1.3691 0.06184 1.8166-0.50426 0.4447-1.3536 0.35769-1.8927-0.19919-0.54198-0.55447-0.56913-1.3694-0.06455-1.8168 0.50574-0.44594 1.3552-0.3593 1.8953 0.19941"/>
  <path d="m282.18 147.32c7.9325 7.4312 9.3448 22.136-5.4901 24.734-10.527 1.844-26.613 3.1278-37.061 3.4497-8.1139 0.25113-25.722-1.8269-30.414-2.1955-50.383 15.86-107.07 3.5974-124.91-17.412-1.4651-1.7262-0.61961-2.4419 1.0368-0.82127 23.625 23.118 78.41 30.433 123.4 16.221 0.0915-0.0285 0.18588-0.0417 0.28193-0.0315 8.2515 0.64001 21.683 2.7544 30.559 2.4801 10.393-0.32117 26.386-1.6051 36.845-3.4374 13.943-2.4423 11.078-17.054 2.8403-23.323z"/>
  <path d="m109.64 171.28c-20.914 9.2065-52.475 11.329-68.609 2.6258-23.298-12.567-6.6472-44.133-5.014-45.107 14.271-8.4235 37.677 10.037 41.317 17.535 1.0905 2.2483 0.29255 2.3335-0.97626 0.79061-10.587-12.9-29.135-22.669-39.26-16.925-11.296 20.628-6.2673 35.885 5.3588 42.155 16.479 8.8889 46.49 5.753 65.345-2.2692z"/>
  <path d="m36.701 129.04c-3.6736-5.549-3.4737-7.8022-1.3434-8.9613 5.0177-2.7389 15.027 4.1735 15.73 9.2665l1.6632-0.16091c-0.92848-6.7129-12.603-13.678-18.313-10.568-3.1662 1.7265-2.9195 6.2366 1.2525 12.042z"/>
  <path d="m261.02 145.24c8.6598-0.48107 31.975 5.5087 41.015 10.589 59.561 33.473 152.49 20.758 179.53-14.647 5.8074-7.6017 3.9891-11.668-4.9864-8.0437-48.006 19.375-100.93 8.1315-158.2-34.036-15.472-11.393-42.848-18.899-50.14-21.308-28.975-31.922-60.074-47.773-91.355-45.871-16.69 1.0086-34.263 5.0888-47.707 10.898l0.98401 2.1965c13.292-5.7436 30.391-9.6104 46.916-10.608 30.832-1.8615 61.066 13.25 89.76 44.921 0.0855 0.0947 0.19509 0.16766 0.3166 0.20768 10.475 3.475 34.425 9.6931 49.855 21.055 63.854 47.021 117.22 51.836 160.09 34.538 6.8169-2.7534 8.2135-2.1104 2.9764 4.7453-26.125 34.197-117.2 47.795-176.98 14.196-8.8991-5.0012-31.588-10.993-41.084-10.917z"/>
  <path d="m280.68 169.76c5.2789 0.74371 12.671 0.41916 12.988-1.8515 0.47845-3.4287-3.4928-9.5197-7.4612-11.737l-0.16152-2.1003c4.8786 2.0651 10.028 10.017 9.4231 14.353-0.68383 4.8963-14.628 3.4743-17.122 2.7864z"/>
 </g>
 <g stroke-width=".73177">
  <path d="m2.359 73.724c-3.2298 12.142 2.1219 21.587 11.332 24.037 6.646 1.7699 15.187-2.4584 16.667-11.603l4.4525-17.68c-1.9024-5.0279-5.3479-8.512-10.345-9.8431-0.75146-0.19933-1.5121-0.33793-2.2722-0.41821-8.4571-0.89489-17.157 5.4473-19.834 15.508" fill="url(#radialGradient5358-4)"/>
  <path d="m2.008 85.664c1.5112 6.1326 5.8107 10.538 11.68 12.101 6.2118 1.6544 14.075-1.9328 16.286-9.8768-6.3348 7.4385-23.013 5.2632-27.966-2.2236" opacity=".137" style="mix-blend-mode:normal"/>
  <path d="m75.822 11.945c-2.7956 6.2524-1.6916 13.282 2.2656 18.497 0 0 14.821 0.92372 19.031 1.5312 4.6399 0.66833 9.6814-1.1746 12.253-5.8193 4.765-8.6006 1.7309-18.508-8.8018-23.215-1.9264-0.86137-3.9186-1.3845-5.9014-1.5954-7.8307-0.82764-15.55 3.2308-18.846 10.601" fill="url(#radialGradient5364-9)"/>
  <path d="m264.99 117.55c2.7488 15.448-4.1178 27.829-8.4235 38.527-1.5514 3.8573-0.83949 11.269-1.7385 15.003l-12.826 7.7144c-25.166-6.8652-37.675-38.698-34.71-62.357 1.7006-13.561 17.106-16.548 24.933-18.252z" fill="#f7c8dc"/>
  <path d="m207.4 131.72c2.5859 20.374 14.584 41.625 34.598 47.083l6.1801-3.7159c-21.94-7.2656-33.1-24.759-40.779-43.367" fill="#d6adc0"/>
  <path d="m136.79 177.58c26.327-8.0159 55.433-47.989 25.667-70.043l-26.495 0.44682c-14.488 19.601-17.591 40.443-14.248 66.292z" fill="#f7c8dc"/>
  <path d="m136.79 177.58c13.279-4.0426 36.879-21.289 38.506-46.228-5.6155 22.408-29.212 37.657-51.325 43.418z" fill="#d6adc0"/>
  <path d="m240.86 176.42c3e-3 -3.8231 4.1241-10.906 9.4736-11.026 6.3361-0.14086 5.1262 14.303 3.8483 15.752-1.38 1.5627-13.328 0.59354-13.322-4.7264" fill="#fff"/>
  <path d="m241.95 172.25c-0.70054 1.5013-1.097 2.9924-1.0974 4.1717-5e-3 5.3199 11.942 6.2905 13.322 4.7273 0.044-0.0498 0.0846-0.11481 0.12822-0.1915-4.8141-0.94414-10.048-4.9263-12.352-8.7081" fill="#dcdddd"/>
  <path d="m121.7 173.77c-2.7949 3.4035-2.9528 8.2954-1.1066 9.1267 5.0759 2.2904 16.671-2.6919 16.842-5.546 0.37113-6.1987-11.411-8.8472-15.735-3.5804" fill="#fff"/>
  <path d="m134.13 172.3c-1.8988 5.2446-9.1574 7.9002-14.703 8.4542 0.12739 1.0535 0.52214 1.8528 1.1697 2.1451 5.076 2.289 16.672-2.6916 16.843-5.547 0.13093-2.1946-1.2638-3.9405-3.3098-5.0525" fill="#dcdddd"/>
  <path d="m88.006 17.985c-0.83056 1.8276-1.0633 3.965-0.37728 6.1802 2.9509 9.5204 16.842 10.843 21.745 1.9888 0.56359-1.0188 1.0106-2.058 1.3571-3.1024-7.2201 6.4643-21.041 6.5489-22.725-5.0675" opacity=".137" style="mix-blend-mode:normal"/>
 </g>
 <g fill="#0f141b" stroke-width=".73177">
  <path d="m12.992 98.944c-10.851-2.8872-15.023-14.118-12.07-25.217 3.1793-11.948 14.403-18.764 23.812-16.26 6.8069 1.8102 9.6243 6.9139 10.093 9.1486 0.50553 2.4105-0.33742 2.7788-1.3107 0.70067-1.9557-4.1746-5.057-6.8475-9.2387-7.961-8.8998-2.3644-18.531 4.5413-21.196 14.561-2.8522 10.714 1.3181 20.604 10.802 23.128 6.5092 1.7335 14.428-2.883 15.742-11.004 1.1692-7.2144-3.9558-13.094-10.201-12.857-3.7061 0.18301-6.9792 3.734-7.2935 7.3536-0.21586 2.4817-1.2455 2.4344-1.4887 9e-3 -0.27383-2.73 2.7155-9.123 8.5713-9.4114 7.2889-0.38747 13.44 6.6096 12.126 14.731-1.9429 12.003-12.61 14.607-18.349 13.08"/>
  <path d="m86.47 24.482c-2.2364-7.2141 5.2056-14.68 11.547-12.428 2.5982 0.92314 2.2576 2.0416-0.31724 1.453-5.3966-1.2312-11.203 4.4995-9.3609 10.438 2.6885 8.6708 15.757 10.21 20.384 1.8486 4.6288-8.3583 1.4174-17.764-8.4542-22.177-8.49-3.798-19.608-0.6706-23.766 8.6313-2.3502 5.2541-1.8694 11.36 1.1956 16.313 1.2529 2.0283 0.3301 2.6625-1.2016 0.88179-4.1492-4.82-4.1041-12.505-1.537-18.248 4.5131-10.092 16.914-13.665 26.294-9.4714 11.828 5.288 13.87 16.58 9.2936 24.842-5.3964 9.7443-21.018 7.778-24.076-2.0834"/>
  <path d="m242.14 180c-26.386-6.5761-37.671-37.46-35.943-59.537 0.28354-3.609 1.6808-3.5828 1.4896-0.0169-1.2164 22.836 10.823 50.306 33.288 57.282z"/>
  <path d="m210.52 107.28c3.4989-5.0545 12.9-8.7359 19.395-9.3521 2.9588-0.27976 3.2472 0.80063 0.36222 1.4417-5.7 1.2647-13.893 3.4044-18.607 8.8537-1.6076 1.8568-2.47 0.96316-1.1506-0.94348"/>
  <path d="m250.35 166.14c-4.961 0.11021-8.7462 6.9175-8.7484 10.283-3e-3 4.6245 11.032 5.2503 12.023 4.233 1.2556-1.5353 1.8887-14.631-3.2746-14.516m-10.469 10.524c4e-3 -3.9512 4.5409-12.227 10.429-12.358 7.0818-0.15778 6.2805 15.858 4.6552 17.7-1.7396 1.9701-15.088 0.64931-15.083-5.3422"/>
  <path d="m122.28 174.24c-2.5833 3.1462-2.4842 7.4765-1.3754 7.9778 4.9114 2.2185 15.687-3.0949 15.796-4.9124 0.30485-5.0921-10.437-7.9185-14.42-3.0652m-2.1696 9.5767c-2.6759-1.2084-1.8186-7.4348 0.95819-10.835 5.3199-6.5154 17.836-1.7228 17.467 4.4147-0.21856 3.6569-13.221 8.7652-18.425 6.4201"/>
  <path d="m255.62 172.15c1.3481-3.1979 0.2833-11.812 1.9432-15.662 5.0883-11.802 10.873-24.698 8.441-37.275-0.48336-2.5041-1.8165-2.3404-1.4777 0.14949 2.0098 14.952-5.2844 28.083-8.6445 36.432-1.368 3.3992-1.0767 10.371-1.5492 13.858z"/>
  <path d="m120.66 174.41c-3.5631-27.53 0.0243-47.733 13.667-65.439 1.6436-2.133 2.7762-1.3416 1.2287 0.8373-12.539 17.646-16.519 36.759-13.233 63.369z"/>
  <path d="m172.23 117.23c-1.9685-3.5878-4.411-6.5281-8.0993-9.3418-1.7304-1.3212-2.573-0.1678-0.87154 1.2071 3.3865 2.7251 5.9316 5.4424 7.9661 8.6664 0.87557 1.389 1.8517 1.0133 1.0049-0.53156"/>
  <path d="m175.62 125.87c1.4885 8.0144-0.35378 16.559-4.7628 24.401-7.3514 13.067-20.905 24.312-34.036 28.473l0.3814-2.0711c11.828-3.836 24.583-14.637 31.601-27.245 4.2192-7.5819 6.8952-15.544 5.5144-23.311-0.30281-1.7066 0.93982-2.202 1.3026-0.24931"/>
 </g>
</svg>
