<?xml version="1.0" encoding="UTF-8"?>
<!-- Created with Inkscape (http://www.inkscape.org/) -->
<svg version="1.1" viewBox="0 0 401.63 316" xmlns="http://www.w3.org/2000/svg">
 <defs>
  <radialGradient id="radialGradient6132-7-7" cx="0" cy="0" r="1" gradientTransform="matrix(48.549 -29.731 29.731 48.549 259.24 238.26)" gradientUnits="userSpaceOnUse">
   <stop stop-color="#f7c8dc" offset="0"/>
   <stop stop-color="#f7c8dc" offset=".73771"/>
   <stop stop-color="#f7ee13" offset=".85211"/>
   <stop stop-color="#f7ee13" offset="1"/>
  </radialGradient>
  <radialGradient id="radialGradient6142-7-2" cx="0" cy="0" r="1" gradientTransform="matrix(58.71 46.668 -46.668 58.71 122.25 -10.891)" gradientUnits="userSpaceOnUse">
   <stop stop-color="#f2ef1d" offset="0"/>
   <stop stop-color="#f2ef1d" offset=".73771"/>
   <stop stop-color="#f7c8dc" offset=".85211"/>
   <stop stop-color="#f7c8dc" offset="1"/>
  </radialGradient>
  <radialGradient id="radialGradient6154-5-2" cx="0" cy="0" r="1" gradientTransform="matrix(24.908 95.136 -119.24 31.218 125.95 -17.624)" gradientUnits="userSpaceOnUse">
   <stop stop-color="#f7ee13" offset="0"/>
   <stop stop-color="#f7ee13" offset=".73771"/>
   <stop stop-color="#f7c8dc" offset=".85211"/>
   <stop stop-color="#f7c8dc" offset="1"/>
  </radialGradient>
  <radialGradient id="radialGradient6241-4-0" cx="0" cy="0" r="1" gradientTransform="matrix(-40.269 59.84 -59.84 -40.269 71.443 -8.2552)" gradientUnits="userSpaceOnUse">
   <stop stop-color="#f2ef1d" offset="0"/>
   <stop stop-color="#f2ef1d" offset=".73771"/>
   <stop stop-color="#f7c8dc" offset=".85211"/>
   <stop stop-color="#f7c8dc" offset="1"/>
  </radialGradient>
 </defs>
 <path d="m254.35 271c39.892-10.161 44.973-36.882 73.012-50.242 15.958-7.6035 50.242-8.4684 68.307-2.8228 3.4689 1.0839 6.962 2.4462 2.2583-3.576-4.7037-6.0223-41.936-31.203-82.421-28.79-28.415 1.6937-47.608 20.511-70.942 28.415-14.597 4.9444-32.192 7.5838-38.011 5.6456-5.269-2.4469 26.344 54.759 47.796 51.371" fill="#f7c8dc"/>
 <path d="m315.51 185.57c-28.415 1.6937-47.608 20.512-70.942 28.415l29.208 49.606c23.242-12.454 30.896-32.019 53.588-42.831 15.958-7.6035 50.243-8.4684 68.307-2.8228 3.4689 1.0846 6.962 2.447 2.2583-3.5753-4.4893-5.749-38.618-28.953-76.922-28.953-1.8243 0-3.6576 0.0526-5.4985 0.16239" fill="url(#radialGradient6132-7-7)"/>
 <path d="m328.3 200.43c-29.051 2.9979-43.41 20.449-60.404 30.11-12.603 7.1619-30.655 11.93-48.691 13.42 10.039 14.122 23.967 28.798 35.143 27.034 39.892-10.161 44.973-36.882 73.012-50.242 15.957-7.6035 50.242-8.4684 68.307-2.8228 2.9775 0.93063 5.9581 2.053 3.7685-1.4567-20.185-10.936-46.724-18.561-71.136-16.042" opacity=".137" style="mix-blend-mode:normal"/>
 <path d="m253.61 288.19c4.1512-1.8152 12.22-8.3461 12.22-11.074 0-2.7307-9.5968-7.057-16.182-7.7167-3.2002-0.754 0.4695 20.416 3.9625 18.791" fill="#fff"/>
 <path d="m249.07 278.84c0.9397 5.0908 2.7617 10.178 4.5414 9.35 3.8847-1.6982 11.195-7.5242 12.121-10.501-5.0358 1.1442-12.025 1.9012-16.662 1.151" fill="#dcdddd"/>
 <path d="m133.82 15.455c0 4.9769 32.883 27.239 35.001 25.685 9.0458-6.9928 8.4676-21.169-1.9752-32.178-4.8124-5.072-11.386-7.5521-17.4-7.5529-8.3514 0-15.626 4.7807-15.626 14.045" fill="url(#radialGradient6142-7-2)"/>
 <path d="m156.21 34.609c6.3528 4.1557 11.793 7.134 12.614 6.5317 3.6078-2.7896 5.6569-6.728 6.1883-11.145-5.0298 3.4146-11.684 4.8561-18.802 4.6131" opacity=".137" style="mix-blend-mode:normal"/>
 <path d="m216.43 238.4c-2.7292-9.6882-8.2277-18.921-14.584-25.916l-0.0996-0.0597c19.292-24.089 7.3491-66.208-24.739-82.738-5.3633-2.4477-0.88154-45.179 2.8221-59.747-1.4885-33.604-41.304-62.569-83.831-60.686-38.703 1.7133-81.143 45.249-73.742 88.506l-0.49214 0.68909c-10.726 16.935-17.593 39.033-19.569 85.809-3.3783 79.955 19.939 100.45 56.075 119.49 13.985 7.3664 47.643 16.255 67.178 6.5868 3.6493-1.8062 5.7309-5.0298 6.5559-9.1447 15.82 1.1027 29.376-0.31852 40.695-3.5881 33.119 5.2698 81.649 6.7106 82.967-16.058 0.6974-12.056-18.729-30.721-39.236-43.143" fill="#f7c8dc"/>
 <path d="m193.52 202.6c-8.3786-1.8922-20.512-13.611-23.428-28.508-1.2703-6.4925-3.8108-5.2222-4.093 0.28224-1.2446 24.274 17.35 49.101 35.976 38.253-0.0436-0.0481-0.0861-0.0982-0.12905-0.1457l-0.10036-0.0597c2.5768-3.2175 4.5784-6.762 6.0668-10.518-4.2493 1.142-9.2451 1.8363-14.293 0.69666" fill="#d6adc0"/>
 <path d="m192.39 278.24c-3.5285-1.2703-10.303-0.56455-14.96 0.84683-4.6569 1.4114-40.222 5.6449-48.69 1.4114 1.5525 3.9512 2.6816 6.9151 2.964 9.738-24.416 4.6569-42.378 4.5535-60.877-2.1888-26.909-9.8073-59.785-38.313-68.889-95.602-1.4665 73.19 21.463 92.926 56.33 111.29 13.985 7.3664 47.642 16.255 67.178 6.5868 3.65-1.8054 5.7316-5.0297 6.5558-9.1447 15.821 1.1027 29.376-0.31849 40.695-3.5874 33.12 5.269 81.65 6.7098 82.967-16.058 0.045-0.76152-0.01-1.5721-0.1442-2.419-3.2364 2.1767-7.1544 4.044-11.336 4.4878-9.3145 0.98722-48.266-4.0931-51.795-5.3634" fill="#d6adc0"/>
 <path d="m96 9.2448c-38.703 1.7125-81.143 45.248-73.743 88.506l-0.49135 0.68983 158.07-28.51c-1.4424-32.564-38.877-60.773-79.893-60.773-1.3095 0-2.622 0.0289-3.9383 0.0876" fill="url(#radialGradient6154-5-2)"/>
 <path d="m127.14 290.76c1.1774-1.6197-5.6139-8.6443-12.984-9.0322-7.1499-0.37741-13.213 6.7808-12.607 10.726 0.75174 4.8931 16.559 10.726 25.591-1.6937" fill="#fff"/>
 <path d="m101.53 291.57c-0.0221 0.30642-0.021 0.60455 0.0221 0.88232 0.75248 4.8931 16.559 10.726 25.591-1.6937 0.0739-0.10184 0.11622-0.22494 0.12905-0.36608-6.3136 2.2892-17.467 2.4787-25.742 1.1774" fill="#dcdddd"/>
 <path d="m183.22 206.64c-1.5654 3.1315 1.6122 13.545 7.9031 15.054 3.0402 0.72984 9.221-5.4011 9.221-9.0322 0-4.275-15.131-10.007-17.124-6.0223" fill="#fff"/>
 <path d="m194.22 207.25c-0.17888 4.5143-1.1004 10.062-3.1127 14.448 6e-3 0 7e-3 6e-3 0.012 6e-3 3.0402 0.72985 9.2209-5.4018 9.2209-9.0322 0-1.8325-2.7851-3.9323-6.1204-5.4207" fill="#dcdddd"/>
 <path d="m69.561 55.347c-4.244 10.924-1.0597 25.842 12.326 30.39 10.638 3.6168 22.625-3.8674 26.787-16.935 4.161-13.066-1.0876-26.591-11.724-30.206-9.9885-3.3957-22.53 4.241-27.39 16.75" fill="#fff"/>
 <path d="m179.39 71.802c0.14871-0.66044 0.29662-1.2952 0.44306-1.871-0.41663-9.4187-3.8478-18.473-9.5017-26.586-3.0168-3.6628-6.0456-5.832-8.5627-5.3098-5.0101 1.0431-6.774 15.806 2.2582 24.463 4.9867 5.0811 12.89 9.4089 12.89 9.4089z" fill="#fff"/>
 <path d="m193.76 88.278c-1.8658-17.854-25.967-27.817-44.409-27.473-20.134 0.37661-38.918 7.4563-52.5 16.747-7.9605 5.4449-13.36 7.1514-22.392 8.6564-14.872 2.4786-20.779 10.063-19.947 18.064 2.8507 27.417 49.553 50.772 84.49 47.796 33.265-2.8334 46.834-23.968 35.243-47.842 1.7125 0.87548 3.278 1.5336 4.6508 1.7397 11.29 1.6937 16.183-5.0803 14.865-17.689" fill="#fff1ad"/>
 <path d="m156.41 92.512c-19.904 0-38.105 15.524-60.262 15.524-7.4729 0-14.372-2.0016-18.771-4.5157-10.33-5.903-21.23 0.48375-17.26 15.211 13.897 20.6 50.322 35.771 78.887 33.337 33.265-2.8334 46.834-23.967 35.243-47.842 1.7126 0.87548 3.278 1.5336 4.6508 1.7404 5.5173 0.82801 9.4964-0.37961 11.98-3.2892-3.093-0.11254-6.0932-0.53138-8.2164-1.1337-13.51-3.8304-14.113-9.0322-26.251-9.0322" fill="#dcd096"/>
 <path d="m100.99 112.74c-7.214 0.3834-14.384-1.1986-20.077-4.1172 0.1653 15.348 37.894 32.563 70.883 22.558 14.537-4.4078 20.323-18.064 17.688-28.979l-0.0221-0.60763c-4.0576-2.2658-8.5794-4.5995-13.149-4.8486-10.35-0.56454-37.635 15.054-55.323 15.995" fill="#932f00"/>
 <path d="m130.37 104.57c-10.039 3.8282-20.829 7.7114-29.379 8.1665-7.2148 0.38414-14.384-1.1978-20.077-4.1165 0.1653 15.348 37.895 32.563 70.884 22.558 2.0922-0.63552 3.9814-1.4801 5.7121-2.4613 8.4428-9.1779-7.8986-24.799-27.14-24.146" fill="#ee859a"/>
 <path d="m130.37 104.57c-10.039 3.8282-20.829 7.7114-29.379 8.1665-7.2148 0.38414-14.384-1.1978-20.077-4.1165 0.0853 7.8631 10.043 16.209 24.16 21.139 1.8182-10.595 14.906-15.35 29.741-16.364 9.2639-0.63326 17.529 1.302 23.623 4.7338-3.8198-7.2593-15.301-13.992-28.068-13.559" fill="#ce7487"/>
 <g fill="#fff">
  <path d="m176.16 108.78c0.81514-0.91097 1.6129-1.948 2.1934-2.93-1.2408-0.27625-2.616-0.85665-4.1119-1.6205 0.74342 1.5292 1.382 3.0477 1.9186 4.5505"/>
  <path d="m168.12 100.86 0.0425 0.21287c1.5058 2.8228 3.9512 10.539 4.8916 10.35 0.52984-0.10569 1.8303-1.222 3.1021-2.6462-0.53737-1.5027-1.1759-3.0213-1.9186-4.5504-1.8809-0.96231-3.9429-2.1858-6.1174-3.3663"/>
  <path d="m118.3 117.82c1.1178-0.37362 2.0507-7.7468 2.4348-9.719-3.2862 1.1306-6.5498 2.1495-9.6964 2.9504 0.73289 1.742 6.1732 7.1332 7.2616 6.7687"/>
 </g>
 <path d="m47.075 199.96c19.758 19.852 63.537 32.855 75.457 19.852 4.7988-5.0803-1.8929-7.2412-7.0562-5.8335-12.419 3.3874-44.032-0.0935-65.673-15.054-2.3533-1.6273-4.0538-0.29514-2.7285 1.0355" fill="#d6adc0"/>
 <g fill="#0f141b">
  <path d="m181.39 70.072c-0.5804-13.103-7.0562-26.956-18.75-37.214-2.7405-2.4047-4.001-1.2084-1.425 1.2906 10.471 10.16 16.664 22.302 17.584 34.509z"/>
  <path d="m169.67 42.176c8.8436-6.4917 9.984-21.548-1.976-34.154-12.238-12.9-35.376-10.068-35.283 7.2442l2.3722 0.18868c0-14.546 20.077-17.732 31.367-5.8305 11.154 11.757 9.587 24.958 2.0846 30.757z"/>
  <path d="m97.412 37.471c-8.9243-3.0349-23.103 2.3782-28.979 17.501-4.9377 12.713-0.0255 25.851 11.09 30.865l2.6726-1.0076c-11.82-4.0191-15.98-18.224-11.739-29.135 5.1203-13.18 17.646-19.094 26.185-16.187 11.663 3.9625 16.333 19.003 9.5772 32.85l2.9541-1.4861c5.5498-13.454 0.56533-29.212-11.761-33.4"/>
  <path d="m175.37 109.38c6.9838 19.95-4.9142 39.05-36.45 41.735-35.64 3.0575-80.776-21.198-83.453-46.939-0.88534-8.5107 6.2962-14.818 19.172-16.964 8.8624-1.4763 14.532-3.1723 22.777-8.8111 14.908-10.198 33.831-16.295 51.954-16.633 16.986-0.36003 41.569 8.7522 43.436 26.613 1.2838 12.283-3.8402 18.127-13.768 16.64-5.1482-0.77212-13.615-9.0564-22.488-9.5417-11.661-0.59632-36.98 15.316-55.609 16.306-9.781 0.53364-19.77-2.7028-25.585-8.1295-1.7729-1.6515-2.6817-0.64685-0.99023 1.1857 6.0026 6.5008 16.476 9.5176 26.72 8.9847 17.543-0.93288 45.6-16.703 55.178-16.117 7.6827 0.41889 16.887 8.6307 22.586 9.4844 9.3024 1.4046 17.835-2.1941 16.088-18.911-1.9858-19.003-27.688-29.145-45.444-28.791-18.489 0.3449-37.974 6.8683-53.184 17.272-7.9959 5.469-13.141 6.6728-21.897 8.1318-13.992 2.3315-22.172 9.9825-21.17 19.617 2.9737 28.596 50.869 51.835 85.761 48.878 31.54-2.6869 46.656-22.235 37.814-45.654z"/>
  <path d="m172.98 112.39c-1.7639 0.17437-4.9928-9.2851-6.2283-11.6l2.7368 0.80682c0.48076 1.0499 3.1594 7.7854 3.7096 8.6873 0.92309-0.6627 2.9972-2.764 4.2124-4.7331l2.0431 0.69513c-1.4756 2.6212-5.0886 6.0063-6.4736 6.1437"/>
  <path d="m122.06 107.94c-0.55775 2.7775-1.4522 10.147-3.4598 10.79-2.0839 0.66722-8.6299-6.2683-8.9598-7.5891l2.2484-0.51704c0.317 1.1352 4.5603 5.3785 6.0608 6.1468 0.47397-0.9857 1.3283-5.8856 1.6892-7.9839z"/>
  <path d="m171.27 108.04c-7e-3 9.9002-6.1898 20.425-19.194 24.367-33.931 10.29-74.471-8.205-72.542-25.027l2.3216 1.5073c0.58951 14.573 38.069 30.956 69.658 21.378 13.478-4.087 18.828-15.975 17.408-25.883z"/>
  <path d="m159.32 128.18c7.322-10.329-7.9054-24.522-27.191-24.557l-3.2183 1.9918c20.012-1.5925 38.74 16.021 25.565 24.389z"/>
  <path d="m61.847 233.93c7.1393-3.4176 16.957-2.7708 22.299-0.28231 2.7013 1.2582 2.3473 2.2402-0.35096 1.591-5.4585-1.314-13.14-2.0892-21.565 0.30721-2.0024 0.56833-2.308-0.69439-0.38267-1.616"/>
  <path d="m22.048 99.803c-11.673 18.889-17.159 43.492-18.892 84.487-3.4281 81.116 20.867 100.32 55.563 118.6 13.023 6.8578 46.937 16.162 66.305 6.5755 17.323-8.5771-3.5436-53.048-27.693-68.504-2.8168-1.8016-1.7337-3.2417 1.2386-1.4869 23.721 13.997 47.909 62.04 27.915 71.931-19.981 9.8927-53.636 1.8832-68.73-6.0683-36.3-19.12-60.844-40.56-57.44-121.09 1.7745-41.973 10.02-74.235 21.593-88.348z"/>
  <path d="m102.5 292.31c0.59098 3.8455 15.328 9.5538 23.703-1.8318 0.92683-1.2597-5.9656-7.4676-12.096-7.7891-6.9317-0.36984-12.008 7.0087-11.607 9.6209m-2.0786 0.33286c-0.74874-4.8743 6.0766-12.429 13.831-12.044 7.2789 0.38494 16.19 7.7137 13.925 10.821-9.673 13.305-26.915 6.7008-27.756 1.2227"/>
  <path d="m200.16 216.01c23.851-24.416 10.827-70.573-22.581-87.783l-1.0046 2.3134c31.682 16.32 44.102 58.651 23.454 82.477l0.84231 1.9443"/>
  <path d="m183.22 208.53c-5.106-2.9791-14.238-19.339-15.384-29.214-0.47476-4.0976 0.94421-3.9263 1.5186-0.43246 1.4861 9.0564 9.8647 23.712 14.239 27.045z"/>
  <path d="m47.358 200.9c-1.9903-2.4114-0.74421-2.9617 1.1555-0.96157 16.971 17.896 61.831 31.748 73.312 19.225 12.371-13.497-15.737-57.032-41.71-67.973-2.813-1.1827-2.4477-2.5602 0.45512-1.4725 26.626 9.9727 57.151 55.701 43.092 71.034-12.44 13.57-59.559 0.4378-76.304-19.852"/>
  <path d="m166.95 80.02c1.0265-2.0417-0.69893-2.8953-1.6461-1.0952-1.0031 1.9035-1.3752 2.6122-2.4673 3.8848-0.67623 0.79178-0.10641 1.237 0.66876 0.81895 1.2416-0.66876 2.6047-1.9368 3.4447-3.6085"/>
  <path d="m147.97 79.437c-0.90498-1.4627-2.4877-0.17437-1.5775 1.191 1.059 1.5835 2.4515 2.5873 4.1399 3.4478 1.0265 0.52605 1.265-0.21738 0.6053-0.85896-1.5306-1.4778-2.1677-2.1609-3.1677-3.7798"/>
  <path d="m44.629 177.38c0.0186-7.4721 3.7987-16.27 7.7144-19.289 2.0424-1.5744 2.767-0.67778 1.0544 1.1548-3.2893 3.5082-6.5959 11.815-7.2284 18.223-0.29356 2.9428-1.548 2.9157-1.5405-0.089"/>
  <path d="m191.35 220.77c2.7413 0.51625 8.0367-5.2033 8.0367-8.0986 0-3.2296-13.836-8.5303-15.305-5.5935-1.3088 2.6168 2.4228 12.778 7.2684 13.692m-0.50568 2.1556c-6.7733-1.4695-10.74-12.956-8.7507-16.935 2.5647-5.1294 19.618 1.3857 19.618 6.7739 0 3.9089-7.0502 10.991-10.867 10.161"/>
  <path d="m218.07 239.98c-0.29135-1.5941-1.1156-4.6758-1.5246-5.8283-2.8938-8.1612-7.719-16.348-13.71-22.942l-1.6982 1.9186c5.706 6.2804 10.389 14.071 13.185 21.841 0.4438 1.2325 1.4506 4.3904 1.7767 5.6207 1.7254 6.5023 3.0696 5.3981 1.9714-0.60981"/>
  <path d="m216.78 239.75c23.842 15.594 38.395 33.678 37.929 41.729-1.0869 18.789-39.411 21.918-81.858 15.165-0.1396-0.022-0.28224-0.0128-0.41736 0.0255-11.869 3.4289-25.5 4.6267-40.519 3.5625l-0.0657 2.567c15.579 1.1254 29.252-0.20988 41.021-3.5768 38.471 6.0872 82.808 4.7444 84.114-17.875 0.7283-12.552-21.507-32.801-39.945-44.237z"/>
  <path d="m253.79 289.44c3.7104-1.622 13.266-8.8119 13.266-12.42 0-3.7089-10.797-8.2012-17.218-8.8436l0.5623 2.2801c6.7174 0.93594 14.473 5.0011 14.473 6.6593 0 1.7918-6.0321 7.2231-10.475 9.6202z"/>
  <path d="m148.12 23.944c-15.436-9.5998-33.757-14.549-52.077-13.74-40.001 1.7707-83.764 48.528-71.623 92.894 0.99249 3.6244-0.39246 4.0772-1.5254 0.56307-7.4299-23.035 0.6944-46.639 15.978-64.88 15.167-18.104 37.14-30.714 57.222-31.604 18.161-0.79856 36.183 4.9633 51.589 14.254-0.94041-10.62 8.6201-12.438 13.143-7.4805 1.9193 2.1035 1.2529 3.1021-0.89666 1.3118-5.3807-4.4931-11.675-0.27771-10.108 7.5008 2.4763 1.979 1.5155 3.1829-1.702 1.182"/>
 </g>
 <g fill="#c18800">
  <path d="m154.28 34.745c-11.068-4.5859-40.334-5.5799-53.421-0.69588-2.5194 0.93742-3.0515-0.60082-0.52684-1.7526 12.187-5.5619 46.416-3.964 54.572 0.94041 2.1406 1.2876 1.6348 2.4477-0.62341 1.508"/>
  <path d="m115.38 42.645c7.6676-2.8047 30.406-2.6175 36.977-0.0936 2.7096 1.0408 2.2552 2.3473-0.43168 1.6423-8.5032-2.2258-29.077-2.1964-36.066 9e-3 -2.4318 0.76833-3.1013-0.5985-0.47929-1.5578"/>
  <path d="m122.16 53.466c9.6353-2.9126 27.073-2.4907 30.86-1.0355 2.447 0.94042 1.9088 2.0997-0.22264 1.6431-6.0125-1.2801-24.112-0.41663-30.243 1.0574-2.428 0.58346-3.2357-0.80608-0.39398-1.665"/>
 </g>
 <path d="m395.34 219.11c6.6819 2.1171 8.2662 0.38112 3.6697-5.5037-4.3202-5.5309-41.505-31.889-83.55-29.356-28.774 1.7155-48.321 20.406-71.412 28.227-14.353 4.8606-31.826 7.4985-37.4 5.6449l1.0257 2.7662c7.0313 1.2702 23.304-1.2921 37.199-5.9966 23.407-7.9288 42.981-26.715 70.692-28.366 39.179-2.3156 76.512 21.9 81.606 28.424 2.4847 3.1828 2.4469 3.2297-1.2152 2.0681-19.192-6.0004-53.376-4.5754-69.007 2.8726-27.886 13.286-33.933 40.27-72.835 50.179l3.4832 1.542c38.842-10.786 43.425-36.879 70.283-49.678 15.004-7.1492 48.979-8.5983 67.461-2.8228" fill="#0f141b"/>
 <path d="m162.69 62.516c-5.6494-5.9498-7.2593-14.553-5.6252-20.247 0.82267-2.8658 2.7254-5.0644 4.6108-5.4569 2.1148-0.43548 4.2184 0.93367 6.2924 2.7134l5.8018 10.459c-4.4501-7.4359-8.8888-11.611-11.805-11.01-1.1465 0.23849-2.1956 1.6499-2.8054 3.7753-1.5374 5.3596-0.13059 13.626 5.5331 19.054z" fill="#0f141b"/>
 <path d="m24.023 15.172c-9.9583 14.04-6.7121 29.646 6.7747 36.977 7.6986 4.1829 15.526 1.8152 20.666-3.2153 3.5278-3.4553 18.081-19.939 18.081-19.939 2.6084-9.0239-2.7813-17.89-10.555-22.365-3.4229-1.9707-7.3378-2.8439-11.321-2.8439-9.2753 0-18.927 4.7346-23.646 11.386" fill="url(#radialGradient6241-4-0)"/>
 <path d="m125.78 210.08c3.5104 6.7612 2.4982 16.863 0.14112 18.77-2.2318 1.8061-11.697 1.4974-16.089-4.0924 1.2144-8.9809 10.213-14.553 15.948-14.678" fill="#fff"/>
 <path d="m112.36 218.2c-1.271 1.905-2.1986 4.0946-2.5307 6.5513 4.3248 5.5068 13.556 5.8834 15.968 4.1694-4.2954-2.564-9.1885-6.1189-13.437-10.721" fill="#dcdddd"/>
 <path d="m30.798 52.148c10.359 5.6298 20.947-0.60609 24.906-9.23-17.631 7.177-31.963 0.30794-37.112-15.177-1.7156 9.95 2.693 19.238 12.205 24.407" opacity=".137" style="mix-blend-mode:normal"/>
 <g fill="#0f141b">
  <path d="m30.092 53.419c-14.584-7.9265-17.227-24.954-7.1974-39.093 6.9106-9.7425 24.85-15.79 36.835-8.8919 6.7016 3.8583 12.984 12.807 11.008 21.311-0.63626 2.7383-1.9722 2.2945-1.6205-0.37134 1.0801-8.1545-4.4765-15.383-10.606-18.911-11.133-6.4095-27.259-0.81967-33.705 8.2661-9.2994 13.112-6.8118 28.369 6.4502 35.576 12.777 6.9446 24.948-5.3814 25.113-15.261 0.23175-13.864-15.593-17.959-20.686-11.752-2.2598 2.7572-3.1926 1.6062-1.6537-0.98117 4.4086-7.4095 25.009-5.0486 24.711 12.749-0.2189 13.099-15.459 24.528-28.649 17.36"/>
  <path d="m110.84 224.48c3.1111 3.6312 11.943 5.672 14.473 3.6251 1.8688-1.5126 2.9307-10.548-0.11701-17.031-5.4018 0.46418-13.058 5.5384-14.356 13.406m-2.0476 0.79629c-1.4839-1.893 4.3829-16.192 16.936-16.465 2.9534-0.0362 5.5513 17.25 0.94047 20.981-2.4922 2.016-13.305 1.3027-17.877-4.5157"/>
  <path d="m80.829 61.11c3.721-2.2409 12.481-3.0092 15.877-2.1873 2.3941 0.5789 1.936 1.9918-0.23622 1.7948-3.2863-0.30342-10.643 0.0988-14.967 2.0265-1.6673 0.73735-2.4205-0.58192-0.67402-1.6341"/>
  <path d="m178.53 60.334c-1.7292-1.3759-7.4631-3.8523-10.563-4.5716-2.4771-0.57965-2.5956-2.1699 0.29588-1.7088 2.9511 0.47098 7.4744 2.2915 9.5251 3.6719z"/>
 </g>
</svg>
