<?xml version="1.0" encoding="UTF-8"?>
<!-- Created with Inkscape (http://www.inkscape.org/) -->
<svg version="1.1" viewBox="0 0 345.17 306.11" xmlns="http://www.w3.org/2000/svg">
 <defs>
  <radialGradient id="radialGradient3482" cx="0" cy="0" r="1" gradientTransform="matrix(-13.439,23.837,-23.837,-13.439,29.754,144.26)" gradientUnits="userSpaceOnUse">
   <stop stop-color="#f7ee13" offset="0"/>
   <stop stop-color="#f7ee13" offset=".73771"/>
   <stop stop-color="#f7c8dc" offset=".85211"/>
   <stop stop-color="#f7c8dc" offset="1"/>
  </radialGradient>
  <radialGradient id="radialGradient3538" cx="0" cy="0" r="1" gradientTransform="matrix(37.851,82.201,-82.201,37.851,41.515,108.29)" gradientUnits="userSpaceOnUse">
   <stop stop-color="#f7ee13" offset="0"/>
   <stop stop-color="#f7ee13" offset=".80711"/>
   <stop stop-color="#f7c8dc" offset=".94793"/>
   <stop stop-color="#f7c8dc" offset="1"/>
  </radialGradient>
  <radialGradient id="radialGradient3562" cx="0" cy="0" r="1" gradientTransform="matrix(28.632,62.603,-62.603,28.632,89.379,99.391)" gradientUnits="userSpaceOnUse">
   <stop stop-color="#f7ee13" offset="0"/>
   <stop stop-color="#f7ee13" offset=".73771"/>
   <stop stop-color="#f7c8dc" offset=".85211"/>
   <stop stop-color="#f7c8dc" offset="1"/>
  </radialGradient>
  <radialGradient id="radialGradient3750" cx="0" cy="0" r="1" gradientTransform="matrix(-21.621,-37.571,37.571,-21.621,309.6,70.334)" gradientUnits="userSpaceOnUse">
   <stop stop-color="#f7c8dc" offset="0"/>
   <stop stop-color="#f7c8dc" offset=".73771"/>
   <stop stop-color="#f7ee13" offset=".85211"/>
   <stop stop-color="#f7ee13" offset="1"/>
  </radialGradient>
 </defs>
 <g stroke-width="6.3639">
  <path d="m307.39 283.12c3.1976 0.46144 6.0491 10.106 4.8693 13.227-1.5289 4.0427-19.62 4.7467-24.462-4.1694-1.9625-3.3907 14.293-9.8881 19.592-9.0576" fill="#fff"/>
  <path d="m298.16 284.79c-5.8387 2.0046-11.63 5.3008-10.413 7.4043 4.8444 8.9162 22.933 8.2121 24.462 4.1694 0.15016-0.39677 0.23375-0.90153 0.26054-1.4755-6.1769-1.3343-10.985-4.3583-14.31-10.098" fill="#dcdddd"/>
  <path d="m160.28 301.91c-5.0072 4.3418-21.551 4.1309-23.473 1.0936-2.4172-3.8179 8.7798-14.424 11.896-14.443 5.035 0.6887 13.483 11.661 11.577 13.349" fill="#fff"/>
  <path d="m137.13 299.34c-0.69401 1.4642-0.90638 2.7817-0.32553 3.7004 1.9222 3.0373 18.468 3.2475 23.473-1.0936 0.63072-0.5571 0.1267-2.127-1.0079-4.0037-6.9349 1.2549-15.162 1.7841-22.143 1.3979" fill="#dcdddd"/>
  <path d="m97.985 288.45c-3.7922 7.2099-24.77 6.6916-26.474 2.1499-1.4101-3.7612 2.7911-9.6781 7.251-11.78 1.2808-0.54027 20.089 7.6293 19.223 9.6305" fill="#fff"/>
  <path d="m71.322 289.92c0.05702 0.2265 0.11449 0.45483 0.19561 0.6731 1.7037 4.5416 22.681 5.06 26.471-2.1493 0.19006-0.44158-0.56913-1.1764-1.8802-2.0524-7.8502 2.4185-17.939 3.5598-24.777 3.5263" fill="#dcdddd"/>
  <path d="m215.95 272.87c2.3163 3.6374 2.588 7.8981 1.8081 8.8563-2.2117 2.7098-9.263 3.8344-16.369 0.33334-7.4506-5.1528 11.171-15.399 14.561-9.1894" fill="#dcdddd"/>
  <path d="m14.884 147.94c-5.823 8.5316-4.4536 21.237 4.189 24.062 5.9864 1.4239 25.877-21.87 23.647-25.691-3.4613-5.9234-10.023-8.4087-16.445-6.7919-4.1438 1.0402-8.2277 3.789-11.391 8.4214" fill="url(#radialGradient3482)"/>
  <path d="m296.66 213.64c-11.925-61.718-49.466-92.645-108.42-92.302-17.283 0.10016-42.498 8.4896-63.566 23.609l-36.453-9.5895c-4.1221-0.77736-8.3885-1.06-12.753-1.1465-37.381-0.74143-68.072 36.574-63.094 67.69l106 45.386c10.223 26.263 42.321 28.266 71.242 28.097 23.517-0.13694 42.483-4.1267 57.231-11.099 6.1549 10.931 36.951 35.59 55.946 27.294 7.8116-3.4111 7.2798-39.723-6.1369-77.939" fill="#f7c8dc"/>
 </g>
 <path d="m11.369 160.18c0.22881 5.406 2.7866 10.205 7.6979 11.809 2.6669 0.63436 8.6451-5.6721 13.646-10.941-6.8388 5.1502-16.822 5.0658-21.344-0.86846" opacity=".137" stroke-width="2.245" style="mix-blend-mode:normal"/>
 <g stroke-width="6.3639">
  <path d="m289.36 187.52c-6.4529 5.4976-13.716 10.562-21.853 15.097-4.7737 2.6579-8.8702 5.7333-12.473 11.333-27.86 43.286-102.78 41.005-131.26 33.184-3.0636-0.84007-5.0859-1.1112-6.5579-0.29149l1.1268 0.48493c10.223 26.263 42.32 28.263 71.242 28.097 23.517-0.13693 42.483-4.1267 57.231-11.101 6.1549 10.931 36.951 35.59 55.947 27.296 0.60883-0.26679 1.1618-0.75578 1.6672-1.4059-1.1748-25.212-5.9643-54.454-17.798-71.152 0 0 1.9763-27.105 2.7282-31.54" fill="#d6adc0"/>
  <path d="m12.357 201.93c57.573 12.605 107.68-22.666 112.3-56.955l-36.454-9.5872c-4.1199-0.77784-8.3879-1.0601-12.751-1.1471-5.1-0.10057-10.071 0.50489-14.848 1.7073-30.237 7.6147-52.544 39.11-48.249 65.981" fill="url(#radialGradient3538)"/>
  <path d="m98.855 121.42c-8.5081 4.2208-13.281 12.941-12.796 21.749l11.755 6.0098c0.0877 15.366 16.434 15.032 21.119 12.707 11.347-5.6276 16.046-19.25 10.503-30.423-4.7987-9.6732-15.699-14.339-25.901-11.771-1.5849 0.39898-3.1559 0.97293-4.681 1.7296" fill="url(#radialGradient3562)"/>
  <path d="m22.039 189.45c1.1644-7.229-0.1603-13.457-2.9613-13.906-1.6432-0.26471-3.43 1.5302-4.8599 4.5224-2.2636 7.2583-3.0036 14.721-1.8639 21.858l7.1592-5.3119c0.82951-1.202 2.1117-4.5876 2.5263-7.1622" fill="#fff"/>
  <path d="m91.822 168.14c5.7331 10.414 3.2587 20.928-6.0852 26.067-8.6611 4.7708-19.979 0.82747-25.281-8.8018-5.3019-9.6298-2.5749-21.301 6.0866-26.072 8.0588-4.434 20.439 0.0151 25.28 8.8072" fill="#fff"/>
  <path d="m21.367 241c1.4218 20.776 19.941 24.273 29.848 23.946 36.912-1.2197 55.273-31.145 56.858-55.915 0.69299-10.84-3.1028-16.786-10.795-16.229-5.1743 0.37646-6.1576 2.4112-12.13 1.8264-12.145-1.184-24.013-9.2829-51.935-4.1689-12.893 2.3614-36.323 16.022-31.273 33.084 1.8624 6.2957 6.6341 11.621 11.733 12.231 2.778 0.33089 7.0371 2.9675 7.6958 5.2256" fill="#fff1ad"/>
  <path d="m94.172 208.63c-1.2607 2.8825-3.5104 5.9838-8.7322 8.9956-10.173 5.8646-46.666-4.5208-61.649 0.67699-4.8334 1.6754-7.7814 7.8715-9.0509 9.4761-1.2672 1.6061-2.3845 1.9314-4.7765 2.5822 0.96703 1.4327 4.1585 0.77515 4.1585 0.77515l2.7842 5.7166c2.0768 1.0491 4.0304 2.6756 4.4603 4.144 1.4218 20.776 19.941 24.273 29.848 23.946 31.579-1.0414 49.569-23.098 55.101-44.958 1.0815-13.986-8.8057-18.987-12.144-11.354" fill="#dcd096"/>
  <path d="m112.21 204.88c-20.341 17.846-43.859 66.381-30.678 80.835 6.7764 7.4317 32.604 3.4861 57.876-17.744 4.463-4.5174-24.262-65.909-27.2-63.095" fill="#f7c8dc"/>
  <path d="m115.01 249.71c-3.7492 9.1462-18.073 25.494-32.207 37.081 8.3194 5.8351 32.697 1.2171 56.592-18.853 2.2719 0.68658 2.1065-11.325-4.155-18.402-4.3103-0.68829-8.2156-1.5398-11.459-2.4319-4.9616-1.3624-7.1968-1.2373-8.7708 2.6063" fill="#d6adc0"/>
  <path d="m25.886 222.28c-2.3084 0.50501-3.5371 1.6937-4.6609 3.0601 0.4127 0.97727 2.4416 6.085 5.209 8.516 1.788 1.5756 1.7853 2.2546 1.7755 3.2641-0.0484 5.3531 5.6005 15.828 17.901 15.95 28.829 0.28294 45.638-30.924 39.325-35.467-1.2876 0.79862-2.6302 1.4793-3.982 1.9586-18.808 6.6584-37.908-1.1343-55.568 2.7186" fill="#932f00"/>
  <path d="m85.435 217.59c-1.287 0.80108-2.6297 1.4815-3.9815 1.9607-9.9334 3.5146-19.948 3.0006-29.79 2.2988-9.176 5.9446-13.888 14.988-10.653 21.404 3.6152 7.1696 15.772 8.3297 27.153 2.5916 2.309-1.1646 4.4009-2.5293 6.2492-4.0156 10.326-9.341 14.788-21.531 11.023-24.24" fill="#ee859a"/>
  <path d="m85.435 217.59c-1.287 0.80108-2.6297 1.4815-3.9815 1.9607-9.9334 3.5146-19.948 3.0006-29.79 2.2988-8.1793 5.2978-12.792 13.052-11.414 19.218 2.23-3.52 6.7259-6.6289 11.578-7.2902 10.652-1.4522 20.353-0.69489 27.14 3.3286 6.9998-8.3278 9.6204-17.248 6.4676-19.517" fill="#ce7487"/>
  <path d="m98.755 154.78c3.5338 9.6418 16.162 9.1227 20.187 7.1257 9.4239-4.6758 14.257-14.866 12.449-24.59-4.4307 14.073-20.864 21.307-32.636 17.464" opacity=".137" style="mix-blend-mode:normal"/>
 </g>
 <g fill="#0f141b" stroke-width="6.3639">
  <path d="m131.32 141.46c18.599-11.798 40.406-19.189 56.91-19.283 58.752-0.34133 95.959 31.347 107.61 91.644 7e-3 0.0378 0.0168 0.0791 0.0322 0.11462 13.406 38.192 13.574 73.869 6.5804 76.922-19.236 8.4054-50.1-17.555-55.174-27.41l-1.676 1.334c5.9808 11.619 38.439 36.086 57.819 27.619 8.5911-3.7532 8.5603-41.185-4.7724-79.195-11.41-58.952-47.678-93.962-110.44-93.598-16.471 0.0949-37.836 6.8228-56.436 18.379z"/>
  <path d="m189.61 276.94c-28.464 0.1647-59.854-2.2241-70.755-27.062-1.4168-3.2271-0.21028-3.6675 1.2657-0.4991 11 23.54 41.537 25.39 69.474 25.229 35.318-0.20476 62.536-9.4016 78.887-26.618 1.8775-1.9774 2.5827-1.2637 0.82666 0.85684-13.959 16.851-43.176 27.883-79.696 28.094"/>
  <path d="m17.569 172.53c-8.0945-3.6458-9.4939-16.598-3.5012-25.376 8.2365-12.067 22.247-11.418 28.493-3.0402l-1.5489 1.1029c-5.8873-7.7251-18.197-7.4435-25.454 3.1828-5.2397 7.6762-4.26 19.248 2.8354 22.465z"/>
  <path d="m107.25 208.95c0.65252-10.191-3.0441-15.863-9.9214-15.363-3.8884 0.27969-6.287 2.7078-12.183 2.1315-11.936-1.1649-25.171-9.3596-51.795-4.4863-13.958 2.5575-35.309 16.269-30.639 32.052 1.8382 6.2073 6.484 11.107 11.048 11.654 3.0547 0.36311 7.6136 3.1696 8.3839 5.8071 1.3465 19.686 19.099 23.679 29.038 23.358 11.638-0.3833 21.602-3.7504 29.766-9.0651l-0.67668 2.747c-8.0987 4.9558-17.799 8.0806-28.976 8.4496-10.541 0.35708-29.245-4.1026-30.741-25.11-0.60246-1.7676-4.3946-4.2601-6.9863-4.5684-5.2653-0.62852-10.787-5.8806-12.833-12.794-5.2207-17.63 18.841-32.249 32.143-34.685 28.373-5.1979 40.925 3.5997 52.341 4.715 5.2564 0.51033 6.0136-1.6595 12.004-2.0958 7.8809-0.57869 12.334 4.9795 12.021 15.703z"/>
  <path d="m140.36 268.93c-25.099 21.084-52.533 25.562-59.796 17.597-12.812-14.054 6.9954-60.736 29.343-80.65 2.3091-2.056 3.3966-0.98242 1.2024 1.1072-19.498 18.558-41.497 64.469-28.986 78.191 6.2353 6.8362 31.129 3.4314 56.166-17.336z"/>
  <path d="m307.25 283.88c2.3539 0.33806 5.3375 9.1832 4.2234 12.133-1.0914 2.8838-16.845 4.0601-22.451-2.875l-2.1241-0.29871c5.1556 8.8838 24.213 8.7351 26.1 3.7505 1.3359-3.5403-1.0726-13.917-4.9965-14.478z"/>
  <path d="m159 301.84c-5.7383 3.6624-20.123 2.922-21.513 0.72986-1.9549-3.0847 8.8249-13.179 11.212-13.194l-0.73007-2.0086c-3.8014 0.86442-15.159 11.384-12.206 16.044 2.2344 3.5328 20.283 3.9207 25.712-0.78904z"/>
  <path d="m99.264 288.92c-3.9799 7.5676-26.847 7.5547-28.897 2.084-1.5771-4.2054 2.9786-11.214 7.7473-13.461l0.47346 2.2769c-3.8533 2.1114-7.4997 7.3354-6.3136 10.491 1.4148 3.7717 19.84 4.3767 24.487-1.4784z"/>
  <path d="m19.391 184.27c-0.58992 3e-3 -0.98893 0.55017-1.0298 1.2154-0.04439 0.73351 0.30879 1.3831 0.80378 1.3812 0.53603-3e-3 1.0222-0.53755 1.0663-1.2454 0.0494-0.77874-0.36612-1.3501-0.8402-1.3512"/>
  <path d="m83.011 168.13c-0.65479 0.49821-0.64692 1.3204-0.0568 2.0006 0.68255 0.77965 1.6107 0.73356 2.0296 0.4846 0.66419-0.39624 0.5967-1.3356 0.06673-1.943-0.60544-0.69494-1.562-0.90792-2.0395-0.54229"/>
  <path d="m17.122 206.57c-0.74386-1.6671 0.6311-2.3027 1.3109-0.82544 0.71829 1.5578 1.4016 2.7354 1.8614 3.2378 0.55945 0.61392 0.17011 0.97817-0.49261 0.7376-0.92191-0.33296-2.1562-1.9806-2.6797-3.15"/>
  <path d="m31.202 201.19c0.14931-1.422 1.8032-1.0583 1.5627 0.28493-0.28276 1.5621-1.1989 3.1007-1.9651 4.0113-0.53849 0.63826-1.0298 0.25925-0.77539-0.33045 0.55173-1.2478 1.0266-2.5249 1.1778-3.9659"/>
  <path d="m12.891 199.82c-1.2658-11.511 2.2882-24.312 9.9077-35.676 1.7496-2.6143 0.74019-3.2121-1.0889-0.638-8.656 12.187-12.229 25.38-10.564 37.557z"/>
  <path d="m87.052 136c-3.3191-0.55814-7.0443-0.86354-11.619-0.95517-15.635-0.33546-32.244 6.7604-43.639 18.331-0.6028 0.61243-1.245 0.84826-1.7646-0.55361-0.8304-2.2403-4.9273-3.4245-7.8335-0.40102-1.3872 1.4419-2.2196 0.82061-0.79478-1.1056 1.3735-1.8552 7.1621-4.3333 9.848 0.31978 12.427-11.902 28.302-19.008 44.073-18.723 4.7722 0.0952 8.7626 0.40561 12.225 1.0065z"/>
  <path d="m96.625 149.21c-0.09746-16.665 16.824-16.67 20.978-10.453 1.3744 2.057 0.49833 2.8633-1.1367 1.1682-5.691-5.8878-17.901-3.1476-17.827 9.2731 0.0803 13.81 14.646 14.607 19.943 11.979 10.922-5.4188 15.469-18.579 10.135-29.332-5.4181-10.92-18.82-14.966-29.489-9.6736-7.3898 3.6684-12.09 10.996-12.365 19.029-0.08929 2.6988-1.4083 2.9219-1.6297 7.6e-4 -0.53125-6.9478 3.7168-16.254 13.021-20.87 11.741-5.8263 26.487-1.3708 32.365 10.475 5.734 11.558 1.0544 26.186-10.674 32.005-6.6122 3.2827-23.231 1.8055-23.32-13.602"/>
  <path d="m84.627 218.05c6.3703 2.7742-9.4101 34.571-38.511 34.202-11.472-0.11249-17.143-9.7576-17.094-15.127 0.01043-1.2829-0.1215-2.185-2.0537-3.8817-1.6364-1.4424-3.2907-4.1421-4.9125-8.0282l-1.5391 1.0866c1.7186 4.1142 3.5516 6.5582 5.3751 8.1644 1.5104 1.3283 1.5079 1.7688 1.499 2.6439-0.05234 5.9537 6.2466 17.071 18.804 17.193 29.005 0.21766 47.484-32.125 40.152-37.488z"/>
  <path d="m72.612 244.18c-1.2879 0.87087-2.6555 1.6732-4.0831 2.3938-9.6097 4.8476-24.127 6.0081-28.504-2.6635-3.3087-6.5682 0.89429-15.861 10.054-22.1l3.0619 0.0604c-9.6346 5.7706-14.537 14.806-11.405 21.017 3.4076 6.7586 15.098 7.7583 26.06 2.2302 4.0325-2.0338 7.5416-4.7391 10.147-7.8258z"/>
  <path d="m14.3 181.88c1.3761-3.5551 3.239-5.802 4.6415-5.5648 2.1034 0.33634 3.4032 6.024 2.2863 12.973-0.39078 2.4297-1.629 5.7232-2.3928 6.8276l2.6938-1.5856c0.64378-1.5719 1.2547-3.587 1.5274-5.2809 1.001-6.2226 0.48104-14.165-3.6813-14.832-1.5625-0.257-3.3724 1.1246-4.8048 3.2977z"/>
  <path d="m87.061 194.54c8.4163-5.0263 12.123-15.243 5.5922-27.105-5.1335-9.329-18.216-13.706-26.647-9.0695-9.0396 4.9773-12.058 17.581-6.5473 27.589 0.837 1.5209 1.8931 2.9127 3.019 4.1758l2.876 0.25991c-1.6589-1.5225-3.0618-3.3154-4.1791-5.3446-5.0757-9.2189-2.4896-20.42 5.7652-24.966 7.5562-4.1571 19.528 0.0476 24.174 8.4859 5.3318 9.6847 3.2614 20.341-7.1687 25.673z"/>
 </g>
 <g fill="#c18800" stroke-width="6.3639">
  <path d="m20.553 169.54c5.9017-8.579 26.018-16.845 40.81-13.734 2.0823 0.43657 2.1638 1.6431 0.09104 1.3731-14.529-1.9127-34.116 5.6504-39.798 13.299-1.1719 1.5706-2.2291 0.70025-1.102-0.93802"/>
  <path d="m24.576 175.88c5.9771-6.6788 20.304-10.42 28.86-8.5523 1.8591 0.40481 1.6672 1.6292-0.1593 1.325-7.6689-1.2643-22.22 2.5492-27.767 8.349-1.1943 1.2429-2.1341 0.22227-0.93273-1.1218"/>
  <path d="m25.267 184.96c3.5181-3.6544 17.916-7.3484 24.885-5.5744 1.8407 0.46961 1.7643 1.6742-0.23294 1.3921-6.2081-0.8611-19.305 2.0908-23.988 5.4277-1.4114 1.0056-1.9828 0.12443-0.66326-1.2453"/>
 </g>
 <g stroke-width="6.3639">
  <path d="m217.53 273.39c1.9704 3.5693 2.2338 7.6328 1.1712 8.9378-2.1628 2.6466-9.869 4.6907-17.885 0.74258l1.6481-1.4265c6.7322 3.0164 12.874 1.7018 14.642-0.46347 0.42128-0.53456 0.42967-4.2984-1.8644-7.9017z" fill="#0f141b"/>
  <path d="m59.883 222.32c0.90127 2.7434 4.4887 7.5679 5.9007 7.5576 1.3667-6e-3 3.1363-5.07 3.4993-7.7662-3.1376 0.27335-6.2738 0.30366-9.4 0.20866" fill="#fff"/>
  <path d="m15.398 230.43c-1.0715 0.43381-2.2358 0.65535-3.2638 0.67334 2.3533 5.6421 6.7445 7.2127 7.6988 6.727 0.9527-0.48266 0.67725-7.6924-0.05446-10.663-1.0337 1.2186-2.2889 2.412-4.3806 3.2627" fill="#fff"/>
  <path d="m176.51 213.17c-27.751 24.856-36.078 76.616-23.215 86.864 15.03 11.977 65.223-27.298 72.118-41.148z" fill="#f7c8dc"/>
  <path d="m202.89 252.79c-9.7517 14.813-27.658 36.878-50.739 46.122 0.37111 0.41583 0.76234 0.79429 1.179 1.1246 15.03 11.977 65.223-27.298 72.118-41.148l-14.586-14.02c-3.5454 1.2469-5.1766 3.6784-7.9703 7.9214" fill="#d6adc0"/>
  <path d="m338.96 91.03c-21.443-76.068-89.209-96.993-130.66-87.97-7.8334 1.7055-8.7298 4.7117-0.15493 5.8313 31.649 4.1293 72.968 30.769 80.49 80.753 5.0319 33.434-11.844 64.516-36.928 76.883l25.966 56.869c64.091-17.977 72.424-92.853 61.282-132.37" fill="#f7c8dc"/>
  <path d="m338.96 91.03c-2.01-7.1294-4.4259-13.774-7.1906-19.956 5.0246 48.975-10.688 101.38-63.729 131.23-5.4453 3.2181 5.6884 22.321 9.6335 21.099 64.091-17.977 72.424-92.853 61.282-132.37" fill="#d6adc0"/>
  <path d="m208.16 8.8531c28.3 3.6895 64.325 25.377 77.016 65.655l41.319-14.018c-28.635-51.157-82.925-65.152-118.18-57.471-0.35239 0.062546-0.68764 0.14694-1.0077 0.2275-6.8885 1.7341-7.3392 4.5238 0.8529 5.5961" fill="url(#radialGradient3750)"/>
 </g>
 <g fill="#0f141b" stroke-width="6.3639">
  <path d="m70.449 221.95c-0.1612 1.8232-2.1969 8.737-4.659 8.7498-2.1126 0.0133-6.2939-5.7078-7.0775-8.3239l1.8969-0.4381c0.81678 2.7207 4.2384 6.9964 5.1876 7.1347 0.70899-0.30121 2.4828-4.7228 2.7219-7.4242z"/>
  <path d="m20.769 226.45c0.41598 1.6524 1.3223 11.157-0.56384 12.116-1.7203 0.87277-6.9032-1.6631-9.2307-7.268l1.9087-0.5199c1.9702 4.7453 5.469 6.3394 6.4704 6.3354l0.02546-3e-3c0.44622-1.1888 0.31423-6.9736-0.38568-9.7813z"/>
  <path d="m11.366 230.26c0.99115 0.11142 2.3914-0.0462 3.7251-0.58797 5.1427-2.0933 5.1789-7.2373 10.554-8.4098 18.243-3.9789 36.049 4.4524 55.543-2.4505 5.6286-1.9931 11.115-7.5601 12.478-10.862 0.84875-2.0541 2.0496-1.5786 1.2666 0.69062-1.5304 4.4412-7.2202 9.8506-13.108 11.937-18.818 6.6611-38.765-1.1897-55.759 2.5169-4.5776 0.99945-4.6756 6.0456-10.184 8.2865-1.701 0.69202-3.6621 0.80171-5.1502 0.1505-1.7044-0.74702-1.2188-1.4758 0.6361-1.2714"/>
  <path d="m152.53 301.1c-13.208-9.9173-6.1736-61.245 22.176-87.016 1.8611-1.6932 2.9433-0.85192 1.0954 0.89336-27.273 25.81-33.572 75.198-21.972 84.444 13.742 10.952 60.025-23.702 70.023-39.384 1.3643-2.1399 2.4431-1.7077 1.1139 0.55302-9.5519 16.279-56.397 52.558-72.436 40.51"/>
  <path d="m279.83 221.87c58.298-18.026 70.353-88.02 58.334-130.66-20.458-72.569-85.672-96.977-129.7-87.39-6.8697 1.4957-6.976 3.3443-0.22121 4.2252 30.891 4.0308 73.435 29.878 81.191 81.437 4.7804 31.754-9.6282 62.989-35.745 76.9-2.4024 1.2808-2.5438 0.0935-0.31232-1.3452 25.063-16.197 37.953-44.567 33.343-75.186-7.0196-46.646-44.229-75.326-78.567-79.807-10.209-1.3331-8.8707-6.1039-0.0479-8.0256 43.011-9.3643 111.39 12.654 132.76 88.476 12.981 46.057-2.3469 118.61-60.687 132.73-3.0144 0.72602-3.4343-0.39953-0.34144-1.3563"/>
 </g>
</svg>
