<?xml version="1.0" encoding="UTF-8"?>
<!-- Created with Inkscape (http://www.inkscape.org/) -->
<svg version="1.1" viewBox="0 0 311.33 308.47" xmlns="http://www.w3.org/2000/svg">
 <g transform="translate(49.946 1.5206)">
  <path d="m255.04 117.16c2.431 10.797 3.3546 24.026 3.3546 35.552 0 84.332-68.348 152.68-152.68 152.68-80.636 0-146.68-62.512-152.29-141.74 0 0 67.505 41.015 170.63 22.615 103.12-18.384 130.99-69.11 130.99-69.11" fill="#e50044"/>
  <path d="m253.92 117.16c-15.287-68.185-75.416-117.13-148.21-117.13-84.332 0-152.68 68.364-152.68 152.68 0 3.6809 0.13787 7.3278 0.36764 10.943 0 0 59.707 40.464 168.96 23.182 96.815-15.32 129.25-64.311 131.54-69.677" fill="#eeeeef"/>
  <path d="m52.426 213.31s26.749 40.966 85.564 33.444c58.799-7.5222 66.046-66.889 66.046-66.889-26.474 17.006-75.529 37.076-151.61 33.444" fill="#fff"/>
  <path d="m56.328 219.44c40.756 9.257 118.34-1.8795 146.1-30.186l1.6038-9.1108c-25.355 17.832-93.086 40.999-151.33 32.601z" fill="#dcdddd"/>
  <path d="m-26.444 75.915c-15.806 26.198-22.567 56.53-20.686 86.391 10.489 5.0421 20.88 9.6623 30.785 15.093-10.294-31.337-13.585-65.916-10.1-101.48" fill="#c8c9ca"/>
  <path d="m119.04 305c-71.347-20.556-115.91-68.25-135.38-127.6-9.9049-5.4308-20.296-10.051-30.769-15.093 4.6528 73.422 61.75 143.94 166.15 142.69" fill="#c6003a"/>
  <g fill="#0f141b">
   <path d="m-44.029 152.72c0-82.565 67.18-149.75 149.75-149.75 82.565 0 149.75 67.18 149.75 149.75 0 82.565-67.18 149.75-149.75 149.75-82.565 0-149.75-67.18-149.75-149.75m-5.917 0c0 85.824 69.823 154.24 155.66 154.24 85.823 0 155.66-68.412 155.66-154.24 0-85.84-69.839-154.24-155.66-154.24-85.84 0-155.66 68.396-155.66 154.24"/>
   <path d="m253.08 116.47c-25.922 34.952-74.524 60.663-135.07 69.239-65.349 9.257-133.53-2.9181-163.3-25.63-0.63417-0.46873-2.3528 3.4511-1.7371 3.9245 31.337 23.896 100.9 35.325 165.42 26.182 61.328-8.6733 109.62-33.525 136.01-69.11 0.45954-0.61578-0.85933-5.2364-1.3281-4.6041"/>
   <path d="m212.74 86.098c-6.9386-13.812-17.671-24.901-24.998-24.253-7.9275 0.6985-19.94 21.464-25.485 46.041-1.8014 8.0249 1.2959 7.3439 3.6304-0.77662 7.133-24.788 17.946-39.702 22.113-40.058 5.593-0.5009 15.044 8.2676 22.534 21.982 4.0348 7.3926 6.3062 5.2204 2.2058-2.9364"/>
   <path d="m123.4 89.532c0.5974 8.8999 0.74445 18.903 0.18382 22.08-0.56524 3.1754-2.0266 7.1495-3.6625 11.137-2.6929 6.582-1.5073 8.3489 3.0973 1.1029 2.1874-3.4511 4.5081-9.2082 4.7824-11.737 0.45954-4.0026 0.046-15.498-1.0845-22.81-1.4613-9.37-3.828-7.3113-3.3087 0.22977"/>
   <path d="m110.8 109.82c-24.236-21.448-54.844-36.638-65.657-34.206-11.559 2.5918-24.463 24.771-30.948 40.675-3.0973 7.6192-0.76284 9.2082 3.8601 0.46873 8.0732-15.255 19.745-33.493 27.722-35.293 10.132-2.2839 39.54 11.445 63.436 31.466 8.7377 7.3117 10.245 4.554 1.59-3.1111"/>
   <path d="m65.856 147.96c0.48711 6.2254 1.2499 11.251 4.214 11.024 2.9502-0.22977 2.9364-5.3173 2.4493-11.543s-1.3924-11.234-4.2002-11.024c-2.8032 0.22977-2.9502 5.3173-2.4631 11.543"/>
   <path d="m168.64 135.04c0.45954 5.917 1.1534 10.699 3.5982 10.505 2.4631-0.18381 2.3988-5.0094 1.9438-10.943-0.46873-5.9175-1.2821-10.684-3.6166-10.489-2.3207 0.18382-2.385 5.0094-1.9301 10.926"/>
   <path d="m205.46 176.83c-36.217 26.36-100.11 38.826-155.97 34.174-13.44-1.1167-14.202 2.7894-1.0064 3.9382 53.222 4.6528 118.39-5.577 158.68-34.887 8.8029-6.4032 7.0847-9.6296-1.7003-3.226"/>
   <path d="m202 181.62c-3.8418 20.248-18.222 49.315-53.044 60.777-32.147 10.57-75.416-2.8216-93.751-29.132-0.45954-0.64795-6.9712-0.18382-6.5333 0.45954 16.552 23.766 58.783 44.76 100.93 32.099 35.974-10.813 54.017-40.059 57.194-66.792 0.0919-0.795-4.6528 1.8336-4.7985 2.6102"/>
   <path d="m107.58 233.64c1.1029 6.1928 2.4493 13.294 2.4493 13.294 0.18382 0.76283 4.2461 1.2637 4.0669 0.5009 0 0-2.1414-8.6242-3.566-15.028-1.59-7.1169-4.3105-6.4037-2.9502 1.2316"/>
   <path d="m136.96 238.57c0.77663 4.0531 1.8795 8.365 1.8795 8.365 0.18381 0.76283 3.5155 0.27572 3.3408-0.48711 0 0-1.1167-4.3105-2.4815-8.6246-2.0128-6.371-3.9704-5.7066-2.7389 0.74446"/>
  </g>
 </g>
</svg>
