<?xml version="1.0" encoding="UTF-8"?>
<!-- Created with Inkscape (http://www.inkscape.org/) -->
<svg version="1.1" viewBox="0 0 230 298.73" xmlns="http://www.w3.org/2000/svg">
 <g transform="translate(11.999 -4.4367)">
  <path d="m55.565 95.885s0.6215-9.6791 3.552-10.212c2.9305-0.53362 3.2858 0.70941 3.2858 0.70941l0.79855 9.236s-2.3969 0.62149-3.3737 0.71062c-0.97683 0.08765-4.2626-0.44447-4.2626-0.44447" fill="#fff"/>
  <path d="m58.495 86.472c0.71066 0.35534 2.6631 4.2614 1.7754 9.6792 0 0 2.0428 0.26742 2.5764-0.62151l-0.53361-8.7915s-1.5092-1.3322-1.9537-1.3322c-0.44323 0-1.8645 1.066-1.8645 1.066" fill="#dbdcdc"/>
  <path d="m157.77 223.97c5.1144 1.3941 28.1-0.19441 31.956-3.0852 1.763-5.0686 0.73541-12.826 3.1459-12.345 2.4105 0.48158 6.9926 2.8686 6.9926 2.8686s4.7789-5.4624 5.9501-7.2724c2.4241-3.7476 4.8903-1.3804 3.4443 5.367-1.4448 6.7487-3.6176 42.02-32.536 57.442-28.917 15.423-24.254-44.42-18.952-42.976" fill="#e0a14f"/>
  <path d="m204.27 212.15c0.28217-2.1146-1.7692 0.63263-4.4087-0.74037-2.6383-1.3743-6.0207-3.4876-6.8663-3.0654-0.84683 0.42219 8.035 9.5851 8.8794 8.8806 0.84561-0.70447 2.1134-2.9602 2.3957-5.0748" fill="#bb8641"/>
  <path d="m208.5 203.41c-0.70568 6.9071-5.6381 21.144-14.8 31.151-13.343 14.574-24.852 12.996-39.713 12.015 1.0239 14.411 6.7437 28.898 22.735 20.369 28.917-15.423 31.09-50.694 32.536-57.441 0.36029-1.6813-0.69334-4.9832-0.7577-6.0937" fill="#bb8641"/>
  <path d="m61.315 71.927c0.61409-1.2269-2.8091-4.8124-2.8091-4.8124s-7.2402-3.9977-10.559 0.52867c-2.9441 4.015-11.717 6.5543-13.3 10.779-1.0474 2.7955-0.32684 6.3277-0.16588 7.9632 11.453-3.0691 28.57-6.8242 26.835-14.458" fill="#e0a14f"/>
  <path d="m61.315 71.927c0.61409-1.2269-2.8091-4.8124-2.8091-4.8124s-0.3479-0.18809-0.90502-0.4333c0.65741 3.2871-0.52865 6.6471-2.8067 8.9252-4.8817 4.1834-12.501 6.0875-18.079 10.187 11.308-2.9676 26.226-6.7152 24.6-13.866" fill="#bb8641"/>
  <path d="m54.722 94.713c-3.0072 2.4291-9.6853 8.5921-12.815 13.948 0.46922-0.55218 0.76016-0.89017 0.76016-0.89017l13.537 56.036 17.086-56.036-6.2559-18.767c1.5674 6.7499-9.3053 10.567-12.313 5.7087" fill="#e0a14f"/>
  <path d="m67.035 89.004c1.5661 6.7487-9.3053 10.567-12.313 5.7087-3.0085 2.4291-9.6866 8.5922-12.816 13.947 0.47046-0.55096 0.76016-0.88893 0.76016-0.88893l1.0796 4.4682c6.0492-12.377 18.414-0.3714 26.043 7.0173l3.5012-11.485z" fill="#bb8641"/>
  <path d="m132.43 30.156c-3.6957-1.5835-9.5034-3.6956-9.5034-3.6956s0.52867-6.8638 1.5835-12.144c1.0561-5.2803-0.52865-6.3351-5.2803-6.8638s-13.2-2.6408-16.896 3.1682c-3.6956 5.8077-5.2791 15.312-10.559 20.591-4.7257 4.7244-25.597 29.38-33.694 35.858 0.89635 1.3235 4.0844 3.3985 3.4703 4.6254-1.5043 10.294-14.136 11.326-25.589 14.395 0.08302 0.83568-1.945 0.99662-1.945 0.99662s-15.011 14.48-24.515 18.176c-9.5034 3.6969-16.065 2.9614-17.12 6.1297-1.0561 3.167-4.2292 13.648-0.92607 15.387 4.0967 2.1555 13.184 2.2644 13.184 7.0161s-2.6581 10.813 0.016127 13.575c5.4797 5.6567 19.008 5.2803 20.064 0.5274 1.0561-4.7517 6.1284-25.307 9.2966-29.531 2.4538-3.2697 6.2844-7.8146 7.8939-9.7064 3.1298-5.3546 10.734-10.824 12.816-13.369 1.503 1.0412 0.44941-5.471 4.483-9.7955l7.2216 1.6838c3.1682-5.809 34.319-30.625 41.183-33.264 6.8638-2.6395 20.591-3.1682 22.175-7.3912 1.5847-4.2242 6.3364-14.785 2.6408-16.368" fill="#dcdbd6"/>
  <path d="m10.204 127.54c0.64008-4.0943-14.321 1.7159-19.998-7.3752-0.42218 3.0246-0.31199 5.7929 1.2455 6.6125 4.0967 2.1554 13.184 2.2644 13.184 7.0161 0 0.60169-0.043345 1.2244-0.11142 1.8583 2.9094-4.7257 5.0401-4.0175 5.6802-8.1118" fill="#b4b4b0"/>
  <path d="m121.74 32.994c-0.66605-6.0034 1.5501-16.304 1.4436-16.898-0.63759-3.5668-7.6958-4.9262-13.528 17.059-2.0948 7.8964-33.887 37.34-37.58 35.39-3.6931-1.9499-7.5918-2.3597-12.362-2.871-0.5893 0.52866-1.1365 0.99665-1.6355 1.3953 0.89635 1.3235 4.0844 3.3985 3.4703 4.6266-1.3024 8.9177-20.356 12.445-24.665 14.702 4.514-0.20564 11.906 1.9326 12.106 4.7195 0.20057 2.7869-18.918 18.219-24.658 28.118-5.008 8.6355-0.59673 14.217-2.7089 23.568-0.94836 4.197-2.7968 6.3871-6.2671 8.7036 4.6019 0.24005 8.7939-1.0474 9.3622-3.6077 1.0573-4.7529 6.1284-25.308 9.2978-29.531 2.4526-3.2709 6.2844-7.8146 7.8939-9.7064 3.1298-5.3559 10.734-10.824 12.815-13.37 0.06429 0.04322 0.13741 0.09555 0.20924 0.14495 0.62026-3.3192 2.7782-7.806 4.0089-8.5252 1.2319-0.71685 7.4878 0.26848 7.4878 0.26848 3.167-5.8078 34.318-30.623 41.183-33.264 6.8638-2.6396 20.591-3.167 22.175-7.3912 0.51501-1.373 2.4278-7.2451 0.97681-9.8228-1.4498-2.5789-8.5401 0.64383-9.0242-3.7067" fill="#b4b4b0"/>
  <path d="m201.22 211.1c2.3498-2.2941 3.526-4.0584 5.3038-6.4936 1.5711-2.1505 1.9376 2.1802 1.6293 6.0318-0.30812 3.8516-6.4714 42.033-31.838 55.562-5.5329 2.9516-10.109 3.2227-13.6 0.80725-6.0826-4.2082-8.0387-15.806-8.0387-25.62 0-3.0877 0.19443-5.9972 0.5138-8.4473 0.7441-5.7136 1.9314-7.9285 2.4043-8.1291 5.1479 1.3569 26.218 0.61531 31.457-2.6185-0.15473 4.0051 1.1662 4.2168 1.6949-0.46304 0.52866-4.6799 1.862-12.173 2.5541-12.441 0.73169-0.28602 4.6229 2.4229 6.9963 3.0456 2.3721 0.62399 2.751-0.13123 0.9236-1.2331m3.8726-7.4197c-2.4377 3.4914-4.2763 5.3286-5.4425 6.6744-1.3247-0.66236-6.2844-4.4917-7.9806-3.7216-1.6949 0.77004-2.3412 11.056-2.6878 13.687-3.9098 2.4947-25.956 4.2082-30.994 2.8352h1e-3c-0.59925-0.16348-1.4857-0.0642-2.3176 1.3322-3.209 5.3806-5.3756 32.277 4.145 42.262 4.2688 4.478 10.431 5.7372 17.642 1.893 26.118-13.931 31.413-46.302 32.542-54.769 2.4638-18.485-2.7559-13.278-4.9089-10.193" fill="#0f141b"/>
  <path d="m129.48 44.361-0.69457 1.789c-0.80226 2.1369-7.0768 3.3948-12.119 4.405-3.3762 0.676-8.6937 2.0329-11.266 3.0221-6.6372 2.5529-36.51 26.856-39.911 33.091l-0.22164 0.4073s0.39248 1.1787 0.98924 2.9664c-0.78617-1.2294-3.1694-5.6567-5.7483-6.0219-1.0041-0.14102-1.8311 0.2032-2.6086 0.90997-1.4956 1.3594-3.1224 8.581-3.1224 8.581l-12.92 13.565c-0.05456 0.0631-5.5453 6.4466-8.6986 10.651-3.3056 4.4063-8.4015 25.063-9.4848 29.94-0.21169 0.9533-1.3582 1.789-3.1459 2.2941-4.5053 1.2739-11.655 0.23759-15.112-3.3329-1.3941-1.4386-0.87902-4.4124-0.33428-7.5621 0.30332-1.7568 0.61779-3.5743 0.61779-5.2717 0-4.0386-4.7393-5.2791-8.919-6.3735-1.8608-0.48656-3.6189-0.94588-4.8334-1.5859-1.607-0.84561-1.0016-6.7784 1.4399-14.106 0.41351-1.2455 2.7572-1.7605 6.0009-2.4724 2.8389-0.62277 6.3735-1.3978 10.494-2.9998 9.5925-3.7315 23.932-17.803 24.869-18.403 4.2899-2.7423 13.084-2.6816 20.662-6.9864 2.1976-1.2492 5.9947-4.1091 6.6112-6.1866 0.09775-0.33444 0.42466-1.3383 0.42466-2.7287 0-1.5439-0.8394-2.8339-2.8153-4.4917 7.8258-6.0095 27.99-29.752 32.882-34.643 3.3292-3.3279 5.2073-8.9611 7.0186-13.585 1.1687-2.9862 2.2731-5.8077 3.6943-8.04 2.8525-4.4855 9.2137-3.5953 13.856-2.9466l2.023 0.26497c2.4687 0.2748 4.9052 1.1613 4.353 5.5973-0.66609 5.3459-0.64009 5.8238-1.3569 8.6875-0.71559 2.8636-0.71559 7.8753 0.23899 8.8286 0.95455 0.95455 1.9078-3.5792 1.9078-3.5792 3.1335 1.1192 7.0681 2.7968 7.754 3.0902 0.5336 0.22916 0.74779 0.90006 0.74779 1.8336 0 3.0914-2.3548 9.0675-3.271 11.393m-57.311 63.425c-0.18199 0.5992-13.876 45.511-15.848 51.976-1.0325-12.407-10.434-43.193-12.628-52.273l10.923-11.488c-0.36027 2.5355-0.48407 3.235-0.48038 4.7839 0.0033 1.5488 0.14118 3.2945 0.7936 1.368 0.65124-1.9277 0.9855-3.8677 1.1563-5.18 3.9358 0.93471 8.4634-0.19443 9.5578-1.2888l-1.118-1.1415c-0.60047 0.46675-4.5647 2.0304-8.2046 0.82954 0.5856-3.5842 1.5414-6.8118 2.7448-7.905 0.43086-0.39124 0.88276-0.53856 1.4201-0.46182 1.5339 0.21654 3.3886 2.2124 4.5462 4.0943l1.3086-0.80598c1.8992 5.7013 5.674 17.025 5.8288 17.493m-36.527-28.989c0.73416-1.9611 3.6486-3.7068 6.4651-5.3943 2.5739-1.5414 5.2345-3.1348 6.6967-5.1293 2.6247-3.5792 8.6503-0.50638 9.1381-0.24882 2.2991 1.9388 2.8067 3.994 2.2334 5.9229-0.49027 1.6528-1.6615 3.0109-3.5074 3.9828-7.1981 3.786-14.717 5.242-17.75 6.454-3.032 1.2133-3.5966 0.82949-3.8194-0.06078-0.42464-1.6974-0.4618-2.8451 0.54352-5.5267m97.2-49.62c-2.9094-1.2467-7.1114-2.8154-8.7914-3.4356 0.16846-1.9078 1.04-6.6682 1.8694-10.819 0.22286-1.1118 0.71562-5.4883-1.1935-6.9207-3.7848-2.8389-19.317-6.1185-22.908-0.47665-1.5315 2.4068-3.063 7.8456-4.2713 10.932-1.7308 4.4187-4.6563 9.6853-7.4209 12.93-5.4883 6.4416-26.486 30.065-32.452 34.122-2.4798-1.555-7.7515-2.6866-10.933 1.654-1.2071 1.6466-3.8541 3.7823-6.246 5.2147-3.1311 1.8769-6.4899 3.6993-7.4593 6.3674-1.6974 4.67-0.25999 7.3652-0.16966 7.9583-2.3511 2.2211-15.375 14.307-23.758 17.567-3.9667 1.5426-7.411 2.2979-10.178 2.9057-4.0757 0.89386-7.5088 1.2764-8.3074 3.6709-1.092 3.2809-2.6247 9.4699-2.6247 13.125 0 2.3201 1.477 2.9726 2.9552 3.7501 1.4312 0.75397 3.3031 1.2442 5.2865 1.763 4.2899 1.1229 7.3281 2.0886 7.3281 4.3109 0 1.5142-0.29838 3.24-0.58684 4.909-0.29093 1.6788-1.3817 4.4607-1.3817 6.0269 0 1.7321 1.2591 3.1298 2.3857 4.2948 4.119 4.2515 11.866 5.0141 16.943 3.5792 2.6024-0.73541 5.3336-2.5269 5.7273-4.2948 1.4312-6.4429 5.3497-25.494 8.2071-29.304 2.1691-2.8908 5.4376-6.8019 7.2575-8.9512 3.6238 12.961 13.964 57.796 13.964 57.796l18.322-60.095s-6.4837-19.454-6.8019-20.411c3.7835-5.8511 33.514-29.793 40.387-32.436 2.4031-0.92358 7.0037-1.6268 10.293-2.2867 6.4168-1.2851 10.714-1.0486 11.931-4.2948l1.2467-3.1855c1.4522-3.682 3.7649-7.6636 3.7649-11.131 0-1.8447-0.92608-4.2094-2.3845-4.8346" fill="#0f141b"/>
  <path d="m70.094 199.49c-1.9487 6.355-4.8024 22.824-4.8024 28.934-9.1654 5.674-19.8 14.794-21.545 24.832-1.7456 10.038-0.73911 23.087 10.032 29.093-4.2416 7.1201-7.0149 16.233 6.5134 13.179 13.528-3.0555 15.978-6.6719 23.479-13.179 6.8192-5.9167 21.661-6.0591 31.712-3.4294 7.8865 2.0638 22.182 11.406 29.241 12.22 6.9826 7.8555 18.271 11.79 24.933 9.9924 9.543-2.5752 6.4775-12.441 5.6059-20.297 5.237-6.5469 6.3612-26.206-5.6641-43.375-11.508-16.433-17.788-23.794-17.967-42.664 8.2925-6.1098 32.008-22.018 36.808-23.328 3.9284 3.9284 9.9639 2.7089 13.455-0.34533 3.4913-3.0555 4.3642-1.7444 6.9827-2.1814 2.6185-0.43704 10.738-9.3709 6.3748-15.044-4.3642-5.674-8.6355-11.058-21.51-9.6952-7.8245 0.8295-29.8 7.099-46.821 10.59-17.021 3.4913-68.535 17.64-76.827 44.698" fill="#e0a14f"/>
  <g fill="#bb8641">
   <path d="m155.32 276.51c-16.849 14.763-44.356-10.129-69.931-6.9319-5.3013 0.20425-16.922 18.552-37.358 7.8617 1.5005 1.9004 3.3762 3.5817 5.7508 4.9052-4.2404 7.1201-7.0149 16.235 6.5134 13.179 13.528-3.0555 15.978-6.6719 23.48-13.179 6.8192-5.9155 21.66-6.0591 31.71-3.4294 7.8877 2.0639 22.182 11.406 29.24 12.22 6.9827 7.8567 18.273 11.79 24.935 9.9924 9.5429-2.574 6.4763-12.441 5.6047-20.297 5.2382-6.5469 6.3612-26.206-5.6629-43.375-11.508-16.432-17.79-23.794-17.967-42.662 0.25372-0.18811 0.52372-0.38628 0.80598-0.59054-11.801 4.4261-7.7243 5.8523-6.7041 8.0957 12.601 27.709 32.62 54.028 9.5826 74.212"/>
   <path d="m205.06 160.5c-1.8348-3.8739-3.4665 7.9521-9.3783 7.3392-5.9117-0.61161-7.9521-2.4464-11.214-0.61161-3.2623 1.8348-8.9697 6.116-19.741 18.462 9.6272-6.4515 20.61-13.382 23.71-14.228 3.9271 3.9284 9.9627 2.7089 13.455-0.34533 3.4913-3.0555 4.3642-1.7444 6.9826-2.1814 1.5946-0.26637 5.2283-3.6869 6.8403-7.6017-3.3155 2.0218-8.82 3.0407-10.655-0.83317"/>
   <path d="m146.92 154.79c-4.7566 0.97559-51.659 10.364-60.108 13.054 4.6304 6.7189 22.019 23.039 35.678 21.407 13.661-1.6318 23.094-9.3436 29.998-15.681 6.9047-6.3376 9.6098-16.877 14.036-23.293-6.5778 1.6082-13.418 3.2437-19.605 4.5128"/>
  </g>
  <path d="m69.398 201.98c-2.3635 8.2727-5.7917 30.294-3.1187 39.651 2.673 9.356 9.356 27.622 25.395 32.524 16.039 4.9002 24.504 6.2361 36.087-9.803 11.585-16.038 10.247-31.184 4.0101-47.67-6.2374-16.485-10.692-25.394-10.692-30.295s0.89018-10.693 0.89018-10.693-45.444 1.3383-52.572 26.286" fill="#fff4c3"/>
  <path d="m121.47 189.45c-0.15575-0.82083-0.39247-2.4006-0.39247-3.0654 0-4.9015 0.89141-10.693 0.89141-10.693s-22.423 0.65988-38.238 9.7002c12.53 2.3783 16.071 6.9307 37.739 4.0584" fill="#dcd2a9"/>
  <path d="m83.55 270.19c2.824 2.3709 4.3184 2.803 8.1242 3.9668 11.815 3.6102 17.564 5.4116 26.331 0.31584-11.942-5.1281-29.154-7.749-34.455-4.2825" fill="#dcd2a9"/>
  <path d="m53.779 282.34c2.2619-1.1539 17.24 7.5336 16.58 10.395-0.65988 2.8624-16.73 5.7235-18.931 3.0815-2.2013-2.6408-0.14119-12.205 2.3511-13.476" fill="#fff"/>
  <path d="m61.872 285.28c1.2913 5.4982-5.6406 8.7617-10.382 10.597 2.3957 2.538 18.214-0.2983 18.871-3.1385 0.36521-1.586-4.0732-4.9609-8.4882-7.4581" fill="#dbdcdc"/>
  <path d="m176.9 292.52c-4.2392-2.3115-21.132-1.5402-22.893 5.0624-0.80226 3.0085 14.307 5.0637 16.729 4.4038 2.4217-0.66115 8.586-8.1452 6.1643-9.4662" fill="#fff"/>
  <path d="m176.9 292.52c-3.5149-1.9165-15.725-1.7098-20.798 2.1802 6.0392-1.0016 12.384 1.3693 16.995 5.6802 2.6321-2.4526 5.6121-6.8738 3.8033-7.8605" fill="#dbdcdc"/>
  <g fill="#0f141b">
   <path d="m51.897 293.78c-1.269-1.7469-0.22286-5.8164 2.7968-10.886l0.56085-0.9422-0.95702-0.5336c-11.82-6.5902-10.582-21.763-9.5009-27.98 1.9475-11.2 15.373-20.59 21.056-24.108l0.5039-0.3134v-0.59302c0-6.0764 2.8785-22.496 4.7566-28.621 7.3244-23.9 51.231-38.881 76.022-43.967 7.5559-1.5501 16.242-3.6832 23.904-5.5663 9.9416-2.4427 18.526-4.5523 22.815-5.0067 12.402-1.3136 16.361 3.8343 20.552 9.2854 1.2492 1.6231 1.3829 3.7142 0.39867 6.2151-1.5463 3.9321-5.0847 6.9566-6.1036 7.1263l-1.7258 0.0755c-1.8014-0.0568-3.1781 0.0755-5.783 2.3548-3.2499 2.8438-8.6763 3.968-11.999 0.39619-1.1254-1.2108-1.342-2.1802-2.8958-3.5805-1.555-1.399-0.77749 2.4873 0.31059 4.1983-7.1523 2.6433-32.497 19.902-35.605 21.924-3.11 2.0205-4.1983 3.4208-4.665 4.6638-0.81093 2.1641 4.353-1.399 4.353-1.399 0.16708 17.76 5.5316 23.823 15.494 37.938l2.5405 3.6102c12.241 17.478 10.255 36.41 5.7038 42.098l0.67227 4.8235c1.0251 7.0582 1.5587 13.147-5.7223 15.111-5.9452 1.6045-16.952-1.8992-23.86-9.6705 0 0-5.7112-0.77504-16.148-6.641-4.9745-2.7943-9.9354-4.9374-13.62-5.9019-10.601-2.7732-25.656-2.4353-32.679 3.6548l-3.1261 2.8265c-5.4685 4.9052-8.4597 7.5373-19.889 10.119-4.2986 0.97065-7.1189 0.72426-8.1601-0.70817m141.73-150.64c-4.4322 0.46924-13.081 2.595-23.097 5.0563-7.645 1.8781-16.309 4.0076-23.825 5.549-6.9579 1.4275-68.254 14.828-77.631 45.431-1.9066 6.2188-4.8322 14.912-4.8222 28.64-16.443 10.344-24.528 20.348-23.178 36.338 0.61531 7.2748 2.6408 13.563 11.04 18.814-1.638 2.8896-2.8822 5.991-2.8822 8.8224 0 1.2182 0.35532 2.8599 1.0165 3.7724 1.6256 2.2384 4.6081 2.9156 9.9515 1.7098 11.971-2.7039 19.59-6.9975 21.478-11.649l2.7906-2.4724c6.2349-5.4091 20.527-5.8771 30.744-3.2029 3.4703 0.90751 8.4225 3.3688 13.21 5.7483 5.7817 2.8748 11.738 5.8214 15.78 6.4255 6.8836 7.5336 14.421 12.324 26.235 10.748 4.6638-0.62274 7.6091-6.3871 7.775-11.195 0.15473-4.509-1.7741-10.084-1.8472-10.627 2.2644-3.1125 3.6783-8.3445 3.6783-14.673 0-8.8583-2.7212-19.747-9.5726-29.529l-2.5455-3.6164c-9.6074-13.612-14.927-21.213-15.201-37.912 8.3705-6.1173 30.195-20.703 35.519-22.645 6.917 5.5007 10.53 2.5937 14.352-0.75025 2.1691-1.8967 3.0221-1.8695 4.3146-1.8286l2.1431-0.10401c2.1382-0.35657 6.6719-3.8987 8.3408-8.1427 1.2591-3.2004 0.41474-6.3735-1.2975-8.6008-4.3642-5.6753-8.8781-11.544-22.467-10.105"/>
   <path d="m203.45 161.92c-0.0509 1.3284-0.54351 5.138-1.0548 6.3599l1.4733 0.61902c0.21409-0.51132 2.2892-4.9869 1.066-7.5745-1.2244-2.5863-1.4337-0.73292-1.4844 0.59551"/>
   <path d="m126.16 203.86c3.3712 8.009 7.1919 17.085 8.0115 27.954 1.118 14.806-2.9057 28.628-10.766 36.971-4.8842 5.1838-10.99 7.8691-17.657 7.7639-11.187-0.17583-20.364-4.4694-27.273-12.757-10.818-12.977-11.588-28.713-12.211-36.487-0.62274-7.7738-2.0217-4.0423-2.0217 1.711 0 5.752 1.4077 22.622 12.75 36.227 7.2229 8.6627 17.058 12.72 28.73 12.904 7.1288 0.1127 14.735-1.9426 19.936-7.4631 8.1626-8.664 12.19-22.534 11.039-37.782-0.47417-6.2869-3.8033-17.166-9.0638-29.663-3.7761-8.971-6.407-17.064-3.9964-24.29l-2.1493-0.16211c-2.5999 7.7973 0.77132 15.803 4.6724 25.072"/>
   <path d="m123.4 197.93c-4.3667 1.9945-22.104 6.8787-33.632 1.7246-11.528-5.1553-2.6494 0.76263-0.46922 1.6862 8.5835 3.6325 21.475 3.7575 34.632-2.2471l0.83943-0.3776-0.49648-1.1774z"/>
   <path d="m65.717 231.84c15.315 14.309 30.942 16.813 41.827 16.384 14.555-0.57323 25.67-6.6348 28.371-9.5913l-0.96198-1.2554c-2.4972 2.7324-13.45 8.3247-27.456 8.8757-10.641 0.4197-26.472-2.0218-41.466-16.029z"/>
   <path d="m69.314 248.22c23.414 22.957 57.768 11.914 62.872 7.8592l3e-3 -1.5711c-4.5684 3.3849-39.967 14.485-62.815-7.9186z"/>
   <path d="m75.593 261.98c16.666 13.986 39.493 14.305 48.978 7.3082l0.32322-1.3878c-7.5955 5.6616-32.156 7.1535-49.496-7.3999z"/>
   <path d="m49.938 281.57c6.3748 4.9757 21.958 9.049 31.58 3.4356 9.6234-5.6122 4.4137-4.9906-0.01755-2.6581-11.816 6.2188-25.966 0.15577-30.786-3.5755-4.8198-3.7315-3.9952 0.28706-0.7775 2.798"/>
   <path d="m61.91 286.39c2.8884 1.3247 5.6295 3.2908 7.6871 6.1705l1.3012-0.92854c-2.2867-3.2016-4.8148-5.2036-7.3132-5.7917 0 0-4.5635-0.775-1.6751 0.54971"/>
   <path d="m153.28 297.35 1.3705 0.82209c4.9077-6.8143 17.743-6.6063 21.032-4.7962l0.77008-1.4015c-4.4842-2.4662-17.779-3.6139-23.173 5.3756"/>
   <path d="m126.59 282.19c-5.1701-2.6507 0.31059 4.1983 16.947 9.3288 16.6 5.1182 32.497-4.9758 34.829-14.615 1.2616-5.211 0.93352-13.372-1.7097-1.711-2.361 10.418-19.436 22.701-50.066 6.9975"/>
  </g>
  <path d="m90.326 85.412c-12.972-4.3047-22.538-14.084-26.908-9.7151-2.9515 2.9515 0.4915 23.282 1.8026 29.512-8.4225 7.6908-8.9883 23.926-7.2129 28.363 1.9673 4.9188-3.4319 33.925-5.4029 41.563-2.304 8.9339-1.1836 17.557 0.6475 19.755 1.8323 2.1976 3.3489 7.3392 7.3776 7.7057 4.0286 0.36646 9.5541 2.2038 9.5541 2.2038s16.068-2.8191 16.479-5.1268c1.347-7.5695 18.679-19.776 25.637-19.409 6.9567 0.36645 12.563 2.2582 14.647-2.9293 5.3299-13.267 24.904-15.015 27.834-14.649 2.9292 0.36646 11.955-8.5958 11.105-10.75-2.1307-5.4103-3.4431-10.657-3.4431-10.657s9.1827-12.652 10.281-17.046c1.0994-4.3951-9.7893-10.662-9.7893-10.662s11.255-20.1 17.48-30.72c2.5801-4.4013-0.89512-5.2048-5.8585-4.0287-9.6532 2.2867-34.426 12.818-34.426 12.818s-17.213-16.48-49.805-6.2262" fill="#dcdbd6"/>
  <path d="m74.558 203.94c0.37389-0.0792 0.76513-0.16469 1.1625-0.25128-0.11271-0.21654-0.23152-0.42837-0.35162-0.63883-0.26991 0.29725-0.53981 0.59303-0.81093 0.89018" fill="#fff"/>
  <path d="m177.55 81.672c-5.4821 2.7993-30.443 24.727-31.142 28.459-0.69823 3.7328 14.239 9.1728 12.714 27.76-0.32567 3.9544 4.899 11.781 0.6995 15.63-4.1982 3.8479-17.587 2.1679-20.853 4.9671-3.2648 2.7992-15.655 8.7952-18.687 12.761-3.0332 3.9668-19.778-2.8933-24.403 1.8026-11.518 11.7-17.254 18.656-20.453 23.24-3.1992 4.5845-6.5803-1.3644-10.197-1.7147-3.6164-0.34919-12.247-3.8479-11.334 1.2083 1.5835 2.4575 3.1831 6.4862 6.7338 6.8094 4.0274 0.36645 9.5541 2.2037 9.5541 2.2037s1.8806-0.32919 4.3728-0.85796c0.04202-0.046 0.18323-0.28953 0.37141-0.66609 0.45561 0.22426 0.77009 0.37267 0.79112 0.41474 4.6898-1.0325 10.693-2.6185 10.943-4.0175 1.347-7.5708 18.677-19.776 25.635-19.41 6.9579 0.36646 12.564 2.2582 14.649-2.9293 5.3286-13.266 24.904-15.014 27.833-14.648 2.9292 0.36523 11.955-8.5958 11.107-10.751-2.1319-5.4103-3.4443-10.656-3.4443-10.656s9.1827-12.652 10.282-17.047c1.0982-4.3939-9.7893-10.661-9.7893-10.661s11.254-20.101 17.48-30.721c0.37635-0.64133 2.6197-3.9754-2.8624-1.1762" fill="#b4b4b0"/>
  <path d="m74.212 95.319c2.2161-1.7494 8.2801-5.3658 10.614-6.7647 2.3325-1.4003 9.1654-4.2948 5.4995-3.1422-12.223-4.0559-27.216-15.051-26.097-10.329 1.118 4.7232 7.7676 21.985 9.9837 20.236" fill="#b4b4b0"/>
  <path d="m201.46 164.89c1.5872-2.4935 7.5423 2.1307 6.3934 3.6065-1.1477 1.4758-5.0822 3.2796-6.3934 2.7869-1.3111-0.49151-1.1477-4.5895 0-6.3933" fill="#fff"/>
  <path d="m201 165.9c-0.69329 2.0057-0.63634 4.9696 0.46676 5.3843 1.3111 0.49273 5.2457-1.3111 6.3934-2.7869 0.27865-0.35902 0.1338-0.90626-0.26497-1.4906-2.2892-0.18705-4.504-0.52245-6.5952-1.1068" fill="#dbdcdc"/>
  <g fill="#fff">
   <path d="m128.51 137.51c0.49277-2.6235 0.49277-8.5253-0.16348-9.1815"/>
   <path d="m77.246 93.136c2.0577-2.0564 7.905-5.6777 13.08-7.7243"/>
   <path d="m160.81 121.67c-0.25759-2.8278 2.1282-8.1056 2.1282-8.1056"/>
  </g>
  <path d="m134.39 120.97c-26.371 18.331-42.147 23.341-47.568 27.511-5.419 4.1685-20.381 37.937-20.381 41.272 0 3.3354 1.6664 5.0018 5.419-2.9181 3.7513-7.9198 21.259-26.679 29.597-29.597 8.3371-2.9181 35.852-30.014 33.35-35.433" fill="#b4b4b0"/>
  <path d="m128.38 129.29c1.1316-1.2727 1.1675 15.857-0.66856 18.026-1.3507 1.5959-19.912 10.088-28.47 8.9562-3.0729-0.40607-3.0642-2.4662-3.0196-5.9501 1.6689-0.83444 2.9503-0.83571 5.4537-2.1716 2.5021-1.3346 24.034-15.856 26.705-18.861" fill="#fff"/>
  <path d="m96.71 153.69c6.3933-3.0184 25.31-13.142 32.503-21.313l-0.44572-4.1735s-8.7914 6.7487-18.026 13.232c-9.236 6.4825-14.475 9.1468-14.475 9.1468z" fill="#dbdcdc"/>
  <path d="m107.03 145.05c-1.3322 4.2515 1.2306 8.586 4.1116 7.7132 4.0596-1.2282 5.3942-9.0453 4.7418-13.615-0.59924 0.33305-3.115 2.1307-8.8534 5.9018" fill="#bf794e"/>
  <path d="m115.88 139.15c-0.5992 0.33306-3.115 2.1307-8.8534 5.9019-0.39373 1.2591-0.43457 2.3238-0.23899 3.5396 2.9305-1.5092 5.8598-3.3737 9.2075-5.7285 0.0769-1.3557 0.0383-2.642-0.1151-3.713" fill="#965e3a"/>
  <g fill="#0f141b">
   <path d="m201.74 170.53c-0.0359-0.0211-0.16846-0.17337-0.27233-0.58562-0.33551-1.3161-0.01-3.5668 0.66609-4.6316 0.3341-0.52369 1.1316-0.37264 1.7432-0.15233 1.784 0.64256 4.1871 1.9103 4.0125 3.1298-0.17442 1.2195-5.2877 2.5628-6.1494 2.2397m7.9583-3.1014c-0.69703-1.5674-4.4496-3.9011-6.5457-4.0571-1.0325-0.0779-1.8732 0.30709-2.3684 1.0845-0.9756 1.534-1.3482 4.4781-0.77999 6.1755 0.30076 0.90128 0.80476 1.2566 1.1737 1.3953 1.7977 0.6735 6.792-1.3173 8.0041-2.8748 0.219-0.28216 0.93352-0.77998 0.51629-1.7234"/>
   <path d="m59.473 137.26c0-1.8323-0.14479-3.2524-0.47666-4.0844-0.48282-1.2059-0.76883-3.2512-0.76883-5.7347 0-6.584 3.3143-17.238 7.489-21.612 1.7358-1.8174 2.1926-2.507 1.81-2.7943-0.27236-0.20426-1.1427 0.21898-1.7209 0.75274-1.56-7.4036-2.2954-15.663-2.2954-21.708 0-2.5813 0.6215-5.1627 1.222-5.7619 2.0725-2.0725 5.8684 0.48777 11.385 3.5594 3.5656 1.9846 7.5497 4.202 12.018 5.887-4.7442 2.148-9.9577 5.9749-11.266 6.9951-1.3099 1.0214-1.5501 2.4068 0.75273 0.75397 2.3028-1.654 9.1555-5.8115 13.023-7.0842 25.429-8.3656 47.613 5.0958 47.782 5.2556 0 0-4.54 1.9215-4.7158 2.4451-0.17443 0.52373 1.9722 0.64627 6.8366-1.5104 4.8644-2.1567 24.798-10.521 34.253-12.762 3.5384-0.83816 5.003-0.35658 5.3113 0.05935 0.0755 0.10279 0.11409 0.24638 0.11409 0.42343 0 0.46179-0.19057 1.1948-0.73048 1.9698-17.146 24.568-19.207 35.274-19.486 39.437-0.27865 4.1648 1.019 3.7538 1.5922-0.14495 0.57323-3.8974 1.5835-4.3196 2.3201-6.168 3.885 2.3808 7.8146 5.7582 7.8146 8.1427 0 0.13758-0.0137 0.26884-0.0469 0.39619-0.86044 3.4393-6.2943 11.738-8.815 15.211 0 0-0.69952-4.8903-1.5724-4.5412-0.87283 0.34919 0.1063 6.8935 0.1063 6.8935 0.0544 0.21654 1.3458 5.3472 3.4666 10.743 0 1e-3 1e-3 1e-3 1e-3 2e-3 0 0.65243-1.5166 3.0035-4.3332 5.653-3.0035 2.8277-5.0476 3.7662-5.632 3.6931-2.5789-0.32323-23.243 1.0907-28.955 15.309-1.3111 3.266-4.1933 3.136-9.5962 2.5962l-4.0064-0.33409c-7.4544-0.39246-25.084 11.94-26.704 20.157-0.83817 1.1526-8.5748 3.1348-15.395 4.3468-1.118-0.35903-5.8523-1.8336-9.5294-2.1678-2.3647-0.21407-3.7885-2.673-5.0426-4.842-0.53979-0.92855-1.0474-1.8076-1.612-2.486-0.85921-1.0288-1.7098-4.3803-1.7098-8.914 0-2.9095 0.3504-6.3067 1.2752-9.8896 1.529-5.9278 5.8362-38.142 5.8362-38.142m1.3148 2.6693c1.1328 4.5957 2.491 10.878 0.5596 16.67-3.5 10.5-7.8443 30.309-6.7375 34.928 0.71683 2.9912 3.7959 6.9319 4.5362 6.2126 0.8258-0.80225-1.6355-5.0191-2.6507-6.1655-1.6119-3.6919 3.6845-26.414 6.3686-34.47 2.0923-6.277-0.02589-13.199-1.2913-17.335-0.61408-1.3606-1.1724-1.0127-0.78492 0.15971m121.57-59.61c0-0.63264-0.17724-1.191-0.53114-1.6689-1.3755-1.862-4.847-1.498-7.5163-0.86663-8.9177 2.1134-30.084 10.969-33.975 12.611-3.1398-2.6829-20.068-15.352-49.957-6.1012-4.9213-1.6701-9.0044-4.0633-12.897-6.2299-6.303-3.5087-11.634-7.2253-14.844-4.0163-1.0722 1.0721-1.4399 4.6365-1.4399 7.9718 0 8.1489 2.3461 20.257 2.8723 22.873-5.8536 5.7446-7.9459 15.585-7.9459 22.54 0 2.8079 0.33677 5.1417 0.89388 6.5358 0.24638 0.61283 0.35534 1.7184 0.35534 3.1855 0 8.6578-3.7971 29.954-5.8003 37.715-0.92607 3.5941-1.3272 7.2414-1.3272 10.483 0 4.743 0.85797 8.6243 2.1889 10.22 0.44943 0.53856 0.91369 1.3408 1.404 2.1889 1.4411 2.4873 2.8921 5.5465 6.355 5.8622 3.8566 0.35026 5.4128 1.5698 7.6834 2.2694 2.2706 0.6995 1.0462 1.2232 3.4926 0.52494 2.4452-0.69829 15.983-4.54 16.342-6.558 1.2665-7.1102 18.013-18.875 24.531-18.531l3.9061 0.32567c8.1328 1.3631 9.8166 0.98054 11.788-3.9222 5.185-12.909 24.665-14.245 26.712-13.989 2.8933 0.36151 9.0515-4.3332 11.195-7.0953 1.4956-1.9277 2.2174-2.772 2.2174-3.5136 0-0.29725-0.0608-0.52867-0.13484-0.71562-1.7333-4.4-3.9668-9.5714-4.3245-10.925 1.5785-2.2013 10.184-11.784 11.223-15.938 0.0731-0.2948 0.10872-0.59426 0.10872-0.89513 0-4.1599-7.7453-9.7509-10.561-11.474 2.2532-4.0163 11.559-20.579 16.961-29.798 0.68218-1.1638 1.0239-2.1889 1.0239-3.0691"/>
   <path d="m66.791 190.45c-0.85797 2.3238-1.0338 5.1825-0.1115 7.572 0.64133 1.659 1.7717 2.8475 2.5665 2.7795 0.74778-0.0657 0.75273-1.9413 0.43332-2.8327-0.4098-1.1403-1.1316-2.3981-1.8843-3.6646-0.104-1.2728 0.11888-2.4018 0.44694-3.1843 7.671-18.284 16.198-31.07 24.152-37.995 7.5002-1.6305 24.54-12.334 35.815-23.204 0.19057 1.9116 0.43826 6.813 0.26251 8.9078-0.17443 2.0961 0.52369 1.3978 1.0486-1.222 0.52494-2.6185 0.61532-6.6954 0.17441-8.9054 2.1121-2.0217 3.791-4.1289 4.8644-5.6443 1.0722-1.5166 1.815-3.6535-1.2864-0.94959-32.19 28.074-40.758 28.412-42.513 29.805-9.3251 7.4086-17.583 21.246-23.969 38.537m31.65-34.718c-1.9784-0.0853-1.6441 0.78245-0.04454 0.93225 9.4142 0.88029 25.333-4.5474 29.361-8.2046 1.1725-1.0635 1.8992-2.5516-0.84558-0.83817-7.1672 4.4805-21.602 8.4052-28.47 8.1106"/>
   <path d="m115.35 139.56c0 0.19933 0.1561 1.0994 0.1561 2.0527 0 7.1312-2.9726 10.635-5.081 10.635-1.6763 0-3.2375-1.6701-3.2375-4.7603 0-1.2009 0.30321-2.4996 0.37022-2.699 0.0667-0.19933-1.4176 0.0667-1.4176 0.19935 0 0.13363-0.33305 1.2331-0.33305 2.3325 0 3.6052 2.101 5.9934 4.6625 5.9934 3.3737 0 6.4689-4.483 6.4602-11.789-1e-3 -0.74408-0.12884-1.9734-0.19933-2.5974-0.1028-0.70201-1.3804 0.43331-1.3804 0.63264"/>
   <path d="m110.84 149.3c0.40733 0 0.73787-1.4312 0.73787-3.1967 0-1.7667-0.33058-3.1979-0.73787-3.1979-0.40732 0-0.73789 1.4312-0.73789 3.1979 0 1.7655 0.3306 3.1967 0.73789 3.1967"/>
   <path d="m97.153 149.39c0.13363 1.8645 0.26601 5.4611-0.26601 5.5948-0.53362 0.13261-1.1997-1.4658-1.9982-4.2626-0.27865-0.9756 2.2644-1.3322 2.2644-1.3322"/>
  </g>
 </g>
</svg>
