<?xml version="1.0" encoding="UTF-8"?>
<!-- Created with Inkscape (http://www.inkscape.org/) -->
<svg version="1.1" viewBox="0 0 142.68 148.58" xmlns="http://www.w3.org/2000/svg">
 <g transform="translate(-4.5916 -7.8979)">
  <g transform="matrix(.85113 0 0 .85113 -418.97 -271.81)">
   <path d="m633.76 486.08c4.8 4.32 10.88 8.48-4.48 8.8z" fill="#fffbda"/>
  </g>
  <g transform="matrix(.85113 0 0 .85113 -418.97 -271.81)">
   <path d="m595.52 489.28c-2.56 2.08-6.72 7.84-4.16 8.48 4 0.95999 11.04-0.96002 13.92-1.6z" fill="#fffbda"/>
  </g>
  <g transform="matrix(.85113 0 0 .85113 -418.97 -271.81)">
   <path d="m514.72 466.88c-2.08 1.12-8.16 6.72-7.52 8 0.63999 1.12 7.68 1.92 11.2 1.28z" fill="#fffbda"/>
  </g>
  <g transform="matrix(.85113 0 0 .85113 44.867 35.138)">
   <path d="m0 0c-5.92-5.12-9.44-5.6-11.2-7.52-1.6-2.08-15.84-11.84-21.6-8.8-5.76 3.04-16.16 16.16-11.84 18.56 4.48 2.4 6.4 3.36 8.8 9.12 2.4 5.76 9.92 5.44 12.96 10.24 3.04 4.64 1.92 8.8 7.04 12.8 5.44 4.16 9.44 10.24 10.08 12.64 0 0 30.08-28.16 5.76-47.04z" fill="#bf794e"/>
  </g>
  <g transform="matrix(.85113 0 0 .85113 44.867 35.138)">
   <path d="m0 0c-5.92-5.12-9.44-5.6-11.2-7.52-1.12-1.44-8-6.4-14.08-8.48 1.28 1.44 1.92 2.4 3.36 4.64 1.6 2.24-7.84 3.04-5.92 4.96 2.88 2.24 4.16 4.96 3.52 8.32-0.8 4.64 1.28 4.16 10.4 4.48 1.28 0 8.64 16.48 21.92 20 2.88-8.48 2.4-18.4-8-26.4z" fill="#965e3b"/>
  </g>
  <g transform="matrix(.85113 0 0 .85113 96.888 33.231)">
   <path d="M 0,0 C 1.28,1.44 5.76,5.12 4.32,7.2 4.16,7.36 3.36,8.32 3.36,8.8 2.72,12.64 4.96,21.6 -0.32,13.12 -6.4,3.36 0,0 0,0 Z" fill="#965e3b"/>
  </g>
  <g transform="matrix(.85113 0 0 .85113 114.46 71.089)">
   <path d="m0 0c1.92 1.6 3.68 2.88 3.04 5.6-0.8 2.72-1.44 4-3.04 5.92-2.08 2.88 0 4.8 2.4 6.08 2.4 1.28 4.64 5.28 4.64 7.36 0 2.08 0 6.24-1.28 7.68-1.44 1.28-3.36 3.84-4.16 5.28-13.44-13.6-3.52-39.36-1.6-37.92z" fill="#965e3b"/>
  </g>
  <g transform="matrix(.85113 0 0 .85113 35.606 92.198)">
   <path d="m0 0c-3.04 1.12-16.16 9.28-18.4 16.64-3.04 0.64-4.16 1.12-5.12 4.48-0.8 3.52-2.24 12.32-0.64 13.76 1.6 1.28 4.8 3.36 4.8 3.36s2.08 8.96 3.68 10.24c1.6 1.44 19.04 3.68 24 2.08 5.12-1.6 8.96-1.12 8.96-7.36z" fill="#bf794e"/>
  </g>
  <g transform="matrix(.85113 0 0 .85113 39.555 102)">
   <path d="m0 0c-4 3.36-10.56 6.88-16.16 15.84-1.28 1.12-3.84 1.28-5.12 0.96-1.12-0.32 0 10.24-0.96 10.4l1.76 1.12c9.44-0.64 7.68 7.68 9.6 11.04 3.2 0.16 12.96 0.16 14.72-0.32 4.96-1.6 8.8-1.12 8.8-7.36z" fill="#965e3b"/>
  </g>
  <g transform="matrix(.85113 0 0 .85113 40.1 135.09)">
   <path d="m0 0c0.32-1.12 4.48-7.84 8-6.24 1.28 0.64 8.48 8.16 4.16 9.28-2.24 0.64-12.48-0.48-12.16-3.04z" fill="#fffbda"/>
  </g>
  <g transform="matrix(.85113 0 0 .85113 33.972 134.96)">
   <path d="m0 0c0.8-0.48-0.32-4.32-9.28-5.44-5.6-0.64-8 0.32-8.16 2.56-0.16 2.24-2.24 11.04 4.32 9.28 6.72-1.92 10.08-4.32 13.12-6.4z" fill="#fffbda"/>
  </g>
  <g transform="matrix(.85113 0 0 .85113 46.909 129.78)">
   <path d="m0 0c-2.08-0.96-4.32 0.96-5.92 2.88 2.4 1.76 3.68 3.84 4.64 6.24 2.24 0.32 4.48 0.48 5.44 0.16 4.32-1.12-2.88-8.64-4.16-9.28z" fill="#dcd9bd"/>
  </g>
  <g transform="matrix(.85113 0 0 .85113 28.661 130.87)">
   <path d="M 0,0 C 1.28,2.08 0,6.88 -2.24,9.6 1.6,8 4,6.4 6.24,4.8 7.04,4.48 6.08,1.44 0,0 Z" fill="#dcd9bd"/>
  </g>
  <g transform="matrix(.85113 0 0 .85113 116.09 102.82)">
   <path d="m0 0c1.12 1.92 8 11.04 16.32 5.92 8.16-4.96 15.36-14.24 15.84-16.48 0.64-3.2 2.24-2.08 2.72 2.4 1.12 8.32 3.36 23.2-8 36.16-4 4.64-6.08 6.72-15.84 10.08-29.6 1.28-11.04-38.08-11.04-38.08z" fill="#bf794e"/>
  </g>
  <g transform="matrix(.85113 0 0 .85113 134.2 104.86)">
   <path d="m0 0c-1.6 1.28-3.36 2.56-4.96 3.52-8.32 5.12-15.2-4-16.32-5.92 0 0-18.56 39.36 11.04 38.08 9.76-3.36 12-5.92 15.84-10.08 6.08-6.24 8.32-16 8.96-23.84-5.12 1.44-11.04 1.6-14.56-1.76z" fill="#965e3b"/>
  </g>
  <g transform="matrix(.85113 0 0 .85113 143.46 102.41)">
   <path d="m0 0c0.8-0.96 0.96-3.04 0.8-4s-1.92-1.92-2.72-2.56c-1.28 1.76-2.4 8.8-2.4 8.8s3.52-1.12 4.32-2.24z" fill="#965e3b"/>
  </g>
  <g transform="matrix(.85113 0 0 .85113 124.4 110.17)">
   <path d="m0 0c0.16-0.64 2.4-8 2.88-9.12s4.32-1.76 5.44-0.8 3.52 5.6 3.04 7.36c-0.48 1.92-6.4 5.44-7.68 5.28-1.44-0.32-3.68-1.76-3.68-2.72z" fill="#bf794e"/>
  </g>
  <g transform="matrix(.85113 0 0 .85113 132.29 102.68)">
   <path d="m0 0c-0.48-0.48-2.88-0.48-3.84 0.48-0.16 0.16-0.64 0.16-0.64 0.48-0.48 1.12-0.48 2.88-0.8 3.84-0.48 0.8-1.92 0.48-2.88 0.32-0.64 1.76-1.12 3.36-1.12 3.68 0 0.96 2.24 2.4 3.68 2.72 1.28 0.16 7.2-3.36 7.68-5.28 0.32-1.28-0.96-4.48-2.08-6.24z" fill="#965e3b"/>
  </g>
  <g transform="matrix(.85113 0 0 .85113 136.92 103.36)">
   <path d="m0 0c-0.64-1.28-0.8-6.72-0.32-7.68 0.32-0.96 1.6-1.6 2.4-1.28 0.96 0.48 4.32 2.72 4.48 3.68s-2.24 6.24-3.68 6.24c-1.28 0.16-2.72-0.48-2.88-0.96z" fill="#bf794e"/>
  </g>
  <g transform="matrix(.85113 0 0 .85113 142.51 98.87)">
   <path d="m0 0c-0.16-0.96-3.36-3.2-4.32-3.52-0.32 0.48-1.44 0.32-1.12 1.28s1.92 8.16 1.6 8.48 0.16 0 0.16 0c1.44 0 3.84-5.28 3.68-6.24z" fill="#965e3b"/>
  </g>
  <g transform="matrix(.85113 0 0 .85113 59.029 15.8)">
   <path d="m0 0c-3.68-2.88-14.4-8.96-21.76-8.8-3.04 0.16-0.16 1.92 2.72 5.44 3.68 4.48 4 12.48 11.2 13.12z" fill="#f0e78e"/>
  </g>
  <g transform="matrix(.85113 0 0 .85113 44.73 8.8547)">
   <path d="m0 0c5.28 3.04 10.08 7.52 12.8 12.96l4-4.8c-2.88-2.4-10.24-6.56-16.8-8.16z" fill="#c9c279"/>
  </g>
  <g transform="matrix(.85113 0 0 .85113 49.497 36.091)">
   <path d="m0 0c-1.92-1.44-4.96-2.4-5.92 0.16-1.12 2.4-2.88 6.88-2.24 8.32 0.48 1.44 2.24 3.52 3.2 4 0.8 0.32 2.72 1.12 2.88 2.56 0.32 1.44-2.08 5.44-3.2 6.72-0.96 1.12-2.08 3.36-1.28 4.8 0.8 1.44 2.88 4.64 3.52 4.48 0 0 28.64-10.24 3.04-31.04z" fill="#bf794e"/>
  </g>
  <g transform="matrix(.85113 0 0 .85113 55.352 55.429)">
   <path d="m0 0c-3.04 1.92-19.04 10.08-21.76 41.28-2.56-0.32-13.12 29.76 16 45.12 5.92 10.24 41.44 18.88 62.4 13.28 20.96-5.6 14.72-68.16 11.2-79.52 5.6-7.52 13.6-11.52 15.84-16 3.52-6.88 4.64-12.64 12.64-18.08 4-2.72 4.32-10.08-1.6-15.36-4.8-4.16-4.64-15.52-16.48-7.04-5.28-1.28-10.72 2.56-12.32 7.68-1.6 5.28-6.4 9.76-8.48 11.68z" fill="#bf794e"/>
  </g>
  <g transform="matrix(.85113 0 0 .85113 135.97 30.508)">
   <path d="m0 0c-4.8-4.16-4.64-15.52-16.48-7.04-0.64-0.16-7.52 3.04-7.84 7.2-0.48 5.44 2.24 7.2 2.56 8.8 0.16 1.6-5.28 9.92-8.64 7.84-3.52-2.08-7.84-2.24-12.32-2.88l-46.24 13.6c15.04 2.88 9.44 7.68 19.84 20 8.48 10.24 19.52 33.28 15.84 46.56-5.28 18.88-6.08 25.12-24.32 33.6 12.8 3.2 28.32 4.32 39.52 1.28 20.96-5.6 14.72-68.16 11.2-79.52 5.6-7.52 13.6-11.52 15.84-16 3.52-6.88 4.64-12.64 12.64-18.08 4-2.72 4.32-10.08-1.6-15.36z" fill="#965e3b"/>
  </g>
  <g transform="matrix(.85113 0 0 .85113 11.094 31.597)">
   <path d="m0 0s0 2.24-0.32 3.52c-0.48 1.28-3.2 5.28-5.12 5.76-1.76 0.64-1.76-8.48-0.8-10.56 1.12-2.08 2.4-2.4 4.64-2.56z" fill="#fffbda"/>
  </g>
  <g transform="matrix(.85113 0 0 .85113 18.856 21.928)">
   <path d="m0 0c-0.8-1.6-4.48-1.44-6.24-0.16-1.6 1.12-5.12 3.84-4.48 6.56s1.12 6.08 2.88 4.96c1.6-0.96 9.44-8.48 7.84-11.36z" fill="#fffbda"/>
  </g>
  <g transform="matrix(.85113 0 0 .85113 23.758 29.146)">
   <path d="m0 0c-2.56-0.64-10.24 5.12-8.64 6.08 1.6 0.8 7.2 2.56 9.44 3.04s2.56-8.32-0.8-9.12z" fill="#fffbda"/>
  </g>
  <g transform="matrix(.85113 0 0 .85113 11.094 31.597)">
   <path d="m 0,0 -1.92,-3.84 c -0.48,0 -0.96,0 -1.44,0.16 1.12,3.36 1.44,6.88 0.96,10.4 0.96,-1.28 1.76,-2.56 2.08,-3.2 C 0,2.24 0,0 0,0 Z" fill="#dcd9bd"/>
  </g>
  <g transform="matrix(.85113 0 0 .85113 18.856 21.928)">
   <path d="M 0,0 C -0.48,-0.96 -2.08,-1.28 -3.52,-1.12 -4,3.2 -5.6,7.52 -7.68,11.2 -5.6,9.76 1.6,2.72 0,0 Z" fill="#dcd9bd"/>
  </g>
  <g transform="matrix(.85113 0 0 .85113 16.268 33.776)">
   <path d="m0 0c-0.16 0.32 0 0.48 0.16 0.64 1.6 0.8 7.2 2.56 9.44 3.04 1.44 0.32 2.08-3.2 1.44-5.92-1.76 3.36-6.72 2.56-11.04 2.24z" fill="#dcd9bd"/>
  </g>
  <g transform="matrix(.85113 0 0 .85113 97.16 42.9)">
   <path d="m0 0c0.8-0.64 6.08-4.48 7.2-3.52 1.28 1.12 4.32 6.4 4.16 8s-6.24 5.76-6.24 5.76 0.8 3.52 3.2 8.32c0.64 1.12-7.84 6.56-10.24 6.24-1.6-0.32-2.88-2.24-2.88-2.72-0.16-3.84-1.44-6.88-1.44-6.88z" fill="#bf794e"/>
  </g>
  <g transform="matrix(.85113 0 0 .85113 103.29 39.904)">
   <path d="m0 0c-1.12-0.96-6.4 2.88-7.2 3.52l-6.24 15.2s0.8 3.2 1.12 6.24c1.6-0.32 3.36-1.28 4.48-1.44 1.28 0 2.4 0.48 3.84 2.88 2.88-1.6 5.44-3.68 5.12-4.32-2.4-4.8-3.2-8.32-3.2-8.32s6.08-4.16 6.24-5.76-2.88-6.88-4.16-8z" fill="#965e3b"/>
  </g>
  <g transform="matrix(.85113 0 0 .85113 139.51 35.682)">
   <path d="m0 0c3.2 0.64 4 5.92 0.64 8.64s-6.88 4.48-6.88 2.72c0-1.6 4.16-11.84 6.24-11.36z" fill="#fffbda"/>
  </g>
  <g transform="matrix(.85113 0 0 .85113 127.8 26.422)">
   <path d="m0 0c-1.44-2.08 0.64-6.88 6.4-4.8 4.32 1.6 5.92 5.6 4.96 7.84-0.96 2.88-4.96 8.48-5.92 5.28-0.48-1.76-4.64-7.36-5.44-8.32z" fill="#fffbda"/>
  </g>
  <g transform="matrix(.85113 0 0 .85113 120.86 24.652)">
   <path d="m0 0c-2.08 0-8.96 7.84-5.92 8.16 3.2 0.48 10.24 4 11.68 5.28s1.6-5.6 0-8.16c-1.92-3.2-4.16-5.28-5.76-5.28z" fill="#fffbda"/>
  </g>
  <g transform="matrix(.85113 0 0 .85113 139.51 35.682)">
   <path d="m0 0c3.2 0.64 4 5.92 0.64 8.64s-6.88 4.48-6.88 2.72c0-1.6 4.16-11.84 6.24-11.36z" fill="#dcd9bd"/>
  </g>
  <g transform="matrix(.85113 0 0 .85113 133.25 22.337)">
   <path d="m0 0c-1.12-0.32-2.08-0.48-2.88-0.48 1.28 4.16 2.72 8.64 1.6 12.96 0.16 0.16 0.16 0.48 0.32 0.64 0.96 3.2 4.96-2.4 5.92-5.28 0.96-2.24-0.64-6.24-4.96-7.84z" fill="#dcd9bd"/>
  </g>
  <g transform="matrix(.85113 0 0 .85113 125.76 29.146)">
   <path d="m0 0c-1.92-3.2-4.16-5.28-5.76-5.28h-0.48c3.2 3.36 4.96 7.84 5.12 12.48 0.16 0.16 0.96 0.64 0.96 0.64 1.6 1.28 1.6-5.28 0.16-7.84z" fill="#dcd9bd"/>
  </g>
  <g transform="matrix(.85113 0 0 .85113 90.351 49.301)">
   <path d="m0 0c0 1.12-3.04 3.68-5.6 5.92-2.72 2.24-13.28 3.36-20 4.32-6.56 1.12-10.72-1.44-13.6-3.84-2.88-2.56-7.84-6.72-7.36-10.56-6.56-7.84-0.16-14.56 1.28-19.52 1.44-4.96-0.48-4.8 6.4-11.52 6.88-6.56 38.24-1.28 42.72 5.92 4.64 7.2 3.52 20.96 4 24.8-0.32 2.08-3.36 6.4-4 6.56z" fill="#bf794e"/>
  </g>
  <g transform="matrix(.85113 0 0 .85113 93.619 24.379)">
   <path d="m0 0c-4.48-7.2-35.84-12.48-42.72-5.92-4.16 4.16-5.12 5.6-5.44 7.36 3.04 5.44 3.52 12.64 5.44 17.6 0.64 1.6 0.96 2.88 2.08 4 2.24 1.76 7.2 1.76 10.56 2.24 3.36 0.32-5.28 8.96-2.72 10.72 0.64 0.16 4.32-1.28 6.08-0.8 1.6 0.64-0.8 3.36-3.2 4.64 7.84 0 17.6-1.44 24.16-4.32 6.56-3.04 9.44-8.64 9.76-10.56-0.48-4 0.64-17.76-4-24.96z" fill="#965e3b"/>
  </g>
  <g transform="matrix(.85113 0 0 .85113 -418.97 -271.81)">
   <path d="m585.92 379.52s1.44 4.16 2.56 4c1.12 0 2.4-5.12 2.24-6.08z" fill="#dbdcdc"/>
  </g>
  <g transform="matrix(.85113 0 0 .85113 -418.97 -271.81)">
   <path d="m554.56 352.8c-0.79999 2.24-3.2 10.4 4.8 13.92 8 3.36-4.8-13.92-4.8-13.92z" fill="#fff"/>
  </g>
  <g transform="matrix(.85113 0 0 .85113 82.861 31.597)">
   <path d="m0 0c-0.16 4.16 0.48 7.04-1.44 8.48-2.08 1.6-9.12 4.48-12.32 3.68-3.2-0.64 13.92-16.32 13.76-12.16z" fill="#fff"/>
  </g>
  <g transform="matrix(.85113 0 0 .85113 82.861 34.321)">
   <path d="m0 0v-3.2c0.16-4.16-16.96 11.52-13.76 12.16 0.64 0.16 0.8 0 1.6 0 2.56-4 8-7.52 12.16-8.96z" fill="#dbdcdc"/>
  </g>
  <g transform="matrix(.85113 0 0 .85113 57.123 35.819)">
   <path d="m0 0c0.32 2.08-0.48 4-1.44 4-1.12 0.16-2.24-1.44-2.4-3.68-0.16-2.08 0.48-4 1.6-4 1.12-0.16 2.08 1.44 2.24 3.68z" fill="#d83339"/>
  </g>
  <g transform="matrix(.85113 0 0 .85113 57.123 35.819)">
   <path d="m0 0c-0.16-2.24-1.12-3.84-2.24-3.68-0.64 0-1.12 0.64-1.44 1.6 1.12 1.76 2.56 3.2 3.36 4.96 0.32-0.64 0.48-1.76 0.32-2.88z" fill="#b7282e"/>
  </g>
  <g transform="matrix(.85113 0 0 .85113 78.639 37.997)">
   <path d="m0 0c-0.16 2.4-1.92 4.16-3.52 4-1.76-0.16-2.88-2.24-2.56-4.64s1.92-4.16 3.52-4c1.76 0.16 2.88 2.24 2.56 4.64z" fill="#d83339"/>
  </g>
  <g transform="matrix(.85113 0 0 .85113 78.639 36.363)">
   <path d="m0 0c0-1.92-1.12-2.56-2.56-2.72-1.6-0.16-3.2 1.6-3.52 4-0.16 1.12 0 2.4 0.48 3.2 1.44-1.76 3.36-3.04 5.6-4.48z" fill="#b7282e"/>
  </g>
  <g transform="matrix(.85113 0 0 .85113 51.539 27.103)">
   <path d="m0 0c0.32 2.56 4.64 7.36 5.76 10.24s1.12 7.2 1.44 7.68c0.32 0.48 10.56 4 14.88 1.76 2.56-6.08 10.88-14.56 20.32-15.84 9.44-1.28 8.16-7.84 5.44-12.48-3.52-6.08-15.36-16.32-35.36-7.84-8.8 3.68-12.8 13.6-12.48 16.48z" fill="#5a5649"/>
  </g>
  <g transform="matrix(.85113 0 0 .85113 92.258 19.749)">
   <path d="m0 0c-1.28-2.4-3.84-5.28-7.68-7.52 1.76 4.64 1.28 9.76-2.56 13.76-6.72 5.92-13.92 10.56-20 17.92-2.72 3.2-6.08 2.08-10.56 1.92 0 0.16 0 0.32 0.16 0.48 0.32 0.48 10.56 4 14.88 1.76 2.56-6.08 10.88-14.56 20.32-15.84s8.16-7.84 5.44-12.48z" fill="#3f3a2e"/>
  </g>
  <g transform="matrix(.85113 0 0 .85113 92.802 22.473)">
   <path d="m0 0c-1.44 1.44-9.6 9.12-6.08 10.88s11.2 3.52 13.44 2.08c2.08-1.44 4.64-5.76 4.64-5.76s2.08 0.48 4.8-2.56c2.72-3.04 8.48-9.6 5.6-10.4-3.04-0.64-19.2 2.56-22.4 5.76z" fill="#f0e78e"/>
  </g>
  <g transform="matrix(.85113 0 0 .85113 93.619 21.928)">
   <path d="m0 0c-0.32 0.16-0.64 0.48-0.96 0.64-1.44 1.44-9.6 9.12-6.08 10.88s11.2 3.52 13.44 2.08c2.08-1.44 4.64-5.76 4.64-5.76s2.08 0.48 4.8-2.56c1.92-2.08 5.28-5.92 6.24-8.32 0.64-2.24-4.32 1.28-6.08 3.36-6.4 1.92-12.48 8.96-15.84 8.16-3.2-0.96-2.08-4.32-0.16-8.48z" fill="#c9c279"/>
  </g>
  <g transform="matrix(.85113 0 0 .85113 37.649 83.482)">
   <path d="m0 0c-0.64 4.16-0.64 8.64-0.64 9.92 0.16 2.56 35.52 30.08 65.28 5.12 2.56-9.12-3.36-42.08-31.2-42.88-25.44-0.8-30.72 16.8-31.52 20.32 0 0-1.28 3.52-1.92 7.52z" fill="#f0e78e"/>
  </g>
  <g transform="matrix(.85113 0 0 .85113 72.375 99.143)">
   <path d="m0 0c1.44-2.24 2.56-4.96 2.24-6.72-0.32-1.6-0.8-3.04-1.28-4.48-0.64-1.44-3.36-1.76-4.16-2.88-1.6-2.08 3.04-4.96 1.44-6.24-0.48-0.48-3.2 1.28-3.84 0.96-3.04-0.64-4.32-2.88-6.72-1.12-8.48 4.16-9.6 14.4-11.68 23.36 9.6 4 13.28 5.44 25.92 0.64 0-1.44-3.04-2.08-1.92-3.52z" fill="#c9c279"/>
  </g>
  <g transform="matrix(.85113 0 0 .85113 68.29 59.923)">
   <path d="m0 0c22.24 9.76 25.76 31.52 22.56 49.28 2.88-1.6 3.36-4.16 6.08-6.56 2.4-8.8-2.88-40-28.64-42.72z" fill="#c9c279"/>
  </g>
  <g transform="matrix(.85113 0 0 .85113 -418.97 -271.81)">
   <path d="m560.48 411.2c-1.44-0.48001-4.96-1.76-5.12-0.96002-0.15997 1.44 0.48005 5.28 0.48005 5.28z" fill="#fffbda"/>
  </g>
  <g transform="matrix(.85113 0 0 .85113 57.123 79.124)">
   <path d="m0 0 1.12-1.12c-0.96-0.32-2.72-0.96-3.84-1.12 1.12 0.64 1.92 1.28 2.72 2.24z" fill="#dcd9bd"/>
  </g>
  <g transform="matrix(.85113 0 0 .85113 54.944 88.112)">
   <path d="m0 0c-1.44 0.16-2.56 0.64-3.2-0.32s-1.28-3.04-2.56-3.2-4.16 1.92-4.16 3.52c-0.16 1.6 1.92 5.6 4 7.2-0.48 0.64-1.6 4-1.6 4s8.32 5.44 20.64 4c0-2.4 0.16-4 0.16-4s5.28 0.48 8.16-2.56c1.44-1.44 2.4-5.12 0.96-6.56-1.28-1.44-2.72-0.96-3.2-0.16-0.64 0.8-3.2 2.4-4.48 1.6s-2.08-0.96-2.08-0.96z" fill="#b6aed1"/>
  </g>
  <g transform="matrix(.85113 0 0 .85113 74.009 89.882)">
   <path d="m0 0c-0.64-0.8-1.44-0.96-2.08-0.96-0.48 2.72-3.36 7.04-4.32 5.28-0.96-1.6-1.28-2.4-2.56-3.52-0.48-0.16-0.8-0.32-0.8-0.32l-11.2-2.24c4.48 4.16 9.28 8.96 9.6 15.04 0.64 0.16 3.68 0.48 4.48 0.32 0-2.24-0.48-4.48-0.48-4.48s3.52 0.48 6.4-2.56c1.44-1.44 2.4-5.12 0.96-6.56z" fill="#9b94b3"/>
  </g>
  <g transform="matrix(.85113 0 0 .85113 50.995 89.474)">
   <path d="m0 0c1.12 0.32 1.12-0.96 1.44-1.92-0.64-0.96-1.28-3.04-2.56-3.2-0.48 0-1.12 0.16-1.92 0.64 2.72 2.24 1.6 3.52 3.04 4.48z" fill="#9b94b3"/>
  </g>
  <g transform="matrix(.85113 0 0 .85113 -418.97 -271.81)">
   <path d="m550.4 434.72c4.32-12.64 17.6-9.28 18.4 3.36 0 0-12.96 8-18.4-3.36z" fill="#fffbda"/>
  </g>
  <g transform="matrix(.85113 0 0 .85113 55.897 91.517)">
   <path d="M 0,0 C 7.52,2.4 7.52,7.52 8.16,12.64 9.76,12 10.88,11.2 10.88,11.2 10.4,3.36 4.96,-0.96 0,0 Z" fill="#dcd9bd"/>
  </g>
  <g transform="matrix(.85113 0 0 .85113 -418.97 -271.81)">
   <path d="m570.24 413.28c1.12 0 6.08 0.32001 6.4 0.95999 0.15998 0.48001-3.04 4.48-4.8 5.6z" fill="#fffbda"/>
  </g>
  <g transform="matrix(.85113 0 0 .85113 71.83 80.758)">
   <path d="m0 0c-0.16-0.16-0.64-0.32-1.28-0.48-1.28 1.44-2.88 1.6-4.48 2.08l0.96 4c1.76-1.12 4.96-5.12 4.8-5.6z" fill="#dcd9bd"/>
  </g>
  <g transform="matrix(.85113 0 0 .85113 67.473 86.069)">
   <path d="m0 0c-0.16 1.12 0.16 3.68-2.4 4.8-2.56 1.28-5.76 2.72-6.08 3.04-0.16 0.32-4-0.32-4.48-1.44-0.32-0.96-1.12-3.36-1.76-3.84-0.48-0.64-3.04-2.72-0.8-6.72z" fill="#b6aed1"/>
  </g>
  <g transform="matrix(.85113 0 0 .85113 54.263 82.529)">
   <path d="m0 0c-1.12 2.08-0.96 3.68-0.64 4.8 2.24 1.6 5.76 3.36 6.72 3.84s0.64 2.4-0.32 3.36c0.64 0.16 1.28 0.16 1.28 0 0.32-0.32 3.52-1.76 6.08-3.04 2.56-1.12 2.24-3.68 2.4-4.8z" fill="#9b94b3"/>
  </g>
  <g transform="matrix(.85113 0 0 .85113 54.399 82.529)">
   <path d="m0 0c-0.8-0.32 1.6-7.68 10.08-5.6 6.4 1.6 6.24 8.16 5.76 9.28s-3.68-0.48-5.12 0.48-3.04 3.36-3.04 3.36-4-0.32-4.16-0.96c-0.32-1.28 0.16-3.36-1.12-4.8-1.12-1.28-1.6-1.6-2.4-1.76z" fill="#505125"/>
  </g>
  <g transform="matrix(.85113 0 0 .85113 62.979 77.762)">
   <path d="m0 0c-0.48-0.16-1.12-0.32-1.76-0.32 3.52 5.12-0.16 10.72-5.12 9.76 0.16 0.96 0.16 2.88 0.32 3.52s4 0.96 4 0.96 1.76-3.2 3.2-4.16 4.64 0.64 5.12-0.48 0.64-7.68-5.76-9.28z" fill="#3d3e18"/>
  </g>
  <g transform="matrix(.85113 0 0 .85113 49.224 86.069)">
   <path d="m0 0c0.64 0 2.08 0.64 2.08-0.48 0-1.28 0.32-2.88 0.32-2.88s-2.08 1.12-2.4 1.6z" fill="#fffbda"/>
  </g>
  <g transform="matrix(.85113 0 0 .85113 50.858 83.482)">
   <path d="m0 0c-0.96 0.96-1.12 1.92-1.92 3.04 0.64 0 2.08 0.64 2.08-0.48 0-1.28 0.32-2.88 0.32-2.88s-0.16 0.16-0.48 0.32z" fill="#dcd9bd"/>
  </g>
  <g transform="matrix(.85113 0 0 .85113 49.088 87.023)">
   <path d="m0 0c0.16-0.48 0.16-3.84 0.16-3.84s-2.56 2.08-2.56 3.52c0 1.28 2.08 0.96 2.4 0.32z" fill="#fffbda"/>
  </g>
  <g transform="matrix(.85113 0 0 .85113 47.454 87.431)">
   <path d="m0 0c0.64 0.32 1.76 0 1.92-0.48s0.16-3.84 0.16-3.84-2.08 3.04-2.08 4.32z" fill="#dcd9bd"/>
  </g>
  <g transform="matrix(.85113 0 0 .85113 71.967 91.108)">
   <path d="m0 0c-0.32-0.48-0.48-1.92-1.12-3.04-0.16-0.32 3.04 0.16 3.04 1.44s-1.28 2.56-1.92 1.6z" fill="#fffbda"/>
  </g>
  <g transform="matrix(.85113 0 0 .85113 71.694 88.521)">
   <path d="m0 0c0.96 0.96 0.8 2.24 0.64 3.36 0.64 0.32 1.6-0.8 1.6-1.92 0-0.8-1.28-1.28-2.24-1.44z" fill="#dcd9bd"/>
  </g>
  <g transform="matrix(.85113 0 0 .85113 70.741 93.423)">
   <path d="m0 0c-0.32-0.32-0.64-1.92-1.12-2.88-0.32-0.48 3.04 0.16 3.2 1.44 0 1.12-1.44 2.56-2.08 1.44z" fill="#fffbda"/>
  </g>
  <g transform="matrix(.85113 0 0 .85113 70.469 90.836)">
   <path d="m0 0c0.64 0.96 0.8 2.08 0.8 3.36 0.64 0.16 1.6-0.8 1.6-1.76-0.16-0.8-1.44-1.44-2.4-1.6z" fill="#dcd9bd"/>
  </g>
  <g transform="matrix(.85113 0 0 .85113 73.601 139.32)">
   <path d="m0 0c-10.4-0.64-23.52-6.72-27.2-12.16-28.64-15.2-19.04-41.6-16.48-45.12 4.64 4.32 30.72 23.04 66.72 6.4 3.04 3.2 9.6 33.76 8.48 38.56-1.6 7.2-20.8 13.12-31.52 12.32z" fill="#f0e78e"/>
  </g>
  <g transform="matrix(.85113 0 0 .85113 93.211 96.011)">
   <path d="m0 0c-2.72 1.28-5.44 2.24-8 3.2 1.28 17.12-1.28 34.88-26.24 35.84-13.6 0.48-15.84-2.08-21.76-4.32 1.92 1.44 3.68 3.2 6.24 4.48 4.64 7.36 18.88 11.2 25.44 11.68 10.24 0.64 30.72-3.36 32.8-12.32 1.12-4.8-5.44-35.36-8.48-38.56z" fill="#c9c279"/>
  </g>
  <g transform="matrix(.85113 0 0 .85113 123.85 119.57)">
   <path d="m0 0c-3.36-24.16-36.32-42.24-45.28 6.56-2.72 14.4 2.4 22.08 3.04 22.88 0.64 0.96 8.96 8 13.28 7.52 4.48-0.48 19.04 0 21.44-3.52 2.4-3.52 9.6-18.4 7.52-33.44z" fill="#bf794e"/>
  </g>
  <g transform="matrix(.85113 0 0 .85113 123.85 119.57)">
   <path d="m0 0c-2.56-15.52-15.52-28.32-28.48-23.04 23.52 7.04 16.96 46.56 7.68 59.68 5.44-0.32 11.68-0.96 13.28-3.2 2.4-3.52 10.08-18.4 7.52-33.44z" fill="#965e3b"/>
  </g>
  <g transform="matrix(.85113 0 0 .85113 124.4 118.89)">
   <path d="m0 0c-1.12 1.12-9.92 5.6-13.92 4.32-1.28 3.52-1.92 14.72 0 16.48 1.92 1.76 9.12 4.16 14.4 0.16 3.52-2.56 4.16-15.36 3.52-17.12s-4-3.84-4-3.84z" fill="#bf794e"/>
  </g>
  <g transform="matrix(.85113 0 0 .85113 127.8 122.16)">
   <path d="m0 0c-0.64-1.76-4-3.84-4-3.84-1.92 1.92-8.96 4.64-13.92 4.48 1.6 1.6 2.56 3.04 5.28 4.16 0.96 3.84-0.8 9.76-1.76 13.92 3.04 0.96 7.36 1.12 10.88-1.6 3.52-2.56 4.16-15.36 3.52-17.12z" fill="#965e3b"/>
  </g>
  <g transform="matrix(.85113 0 0 .85113 84.768 129.51)">
   <path d="m 0,0 c 1.92,1.12 5.12,3.52 10.08,3.2 0.32,3.2 3.52,9.12 2.24,11.04 -1.28,2.08 -8,3.52 -10.56,0.64 C -0.96,12 -2.88,5.28 -2.72,3.84 -2.4,2.56 0,0 0,0 Z" fill="#bf794e"/>
  </g>
  <g transform="matrix(.85113 0 0 .85113 93.347 132.23)">
   <path d="m0 0h-0.16c-1.6 1.6-1.44 3.2-2.4 3.68s3.2 8.48 1.6 9.28c1.92-0.32 2.56-0.96 3.2-1.92 1.28-1.92-1.92-7.84-2.24-11.04z" fill="#965e3b"/>
  </g>
  <g transform="matrix(.85113 0 0 .85113 116.91 147.62)">
   <path d="m0 0c-1.12-2.88-13.76-5.92-22.56 3.04-2.4 2.56 13.44 5.92 15.68 6.24 2.24 0.48 7.68-6.72 6.88-9.28z" fill="#fffbda"/>
  </g>
  <g transform="matrix(.85113 0 0 .85113 -418.97 -271.81)">
   <path d="m633.76 486.08c4.8 4.32 10.88 8.48-4.48 8.8z" fill="#dcd9bd"/>
  </g>
  <g transform="matrix(.85113 0 0 .85113 -418.97 -271.81)">
   <path d="m600.64 492.96c-1.6 1.76-3.04 3.36-4.64 4.96 3.52-0.32 7.36-1.28 9.28-1.76z" fill="#dcd9bd"/>
  </g>
  <g transform="matrix(.85113 0 0 .85113 116.91 147.62)">
   <path d="m0 0c-0.64-1.6-4.8-3.2-10.08-2.88 2.56 3.36 4.96 6.4 4.48 11.84 2.56-1.44 6.24-6.88 5.6-8.96z" fill="#dcd9bd"/>
  </g>
  <g transform="matrix(.85113 0 0 .85113 52.356 31.597)">
   <path d="m0 0s1.28 1.76 1.92 3.04c0.16-0.64 0.64-1.44 0.96-1.6l-2.4-3.52c-0.16 0.64-0.48 2.08-0.48 2.08z" fill="#dbdcdc"/>
  </g>
  <g transform="matrix(.85113 0 0 .85113 57.123 85.388)">
   <path d="m0 0c0.16 1.76 0.32 2.4 0 2.72-1.28 0.96-4.32-2.08-3.36-4.48 0.32-0.8 0.8-0.96 1.12-0.96 0.96 0 2.08 1.76 2.24 2.72z" fill="#0f141b"/>
  </g>
  <g transform="matrix(.85113 0 0 .85113 66.247 87.704)">
   <path d="m0 0c-0.48 2.08-4.32 2.56-5.6 0.96-0.32-0.32 1.12-2.08 2.56-2.88s3.68-0.64 3.04 1.92z" fill="#0f141b"/>
  </g>
  <g transform="matrix(.85113 0 0 .85113 56.987 85.252)">
   <path d="m0 0c0 0.48-0.16 0.96-0.64 0.96-0.32 0-0.8-0.32-0.96-0.96 0-0.48 0.32-0.96 0.8-0.96s0.8 0.48 0.8 0.96z" fill="#fff"/>
  </g>
  <g transform="matrix(.85113 0 0 .85113 64.477 87.023)">
   <path d="m0 0c0 0.48-0.8 0.64-1.12 0.64-0.48 0-0.8-0.48-0.48-1.12 0.16-0.48 0.64-0.8 0.96-0.8 0.48 0.16 0.8 0.64 0.64 1.28z" fill="#fff"/>
  </g>
  <g transform="matrix(.85113 0 0 .85113 48.952 96.011)">
   <path d="m0 0c-0.8-0.32-4-0.96-6.56-2.4-2.56-1.28-7.36-3.84-7.36-3.84s0.48 0.96 2.72 2.56c2.24 1.44 5.28 4 10.4 5.76z" fill="#c9c279"/>
  </g>
  <g transform="matrix(.85113 0 0 .85113 -418.97 -271.81)">
   <path d="m576.32 437.12c2.72 0.16 13.92-1.28 20.8-3.36-3.36 1.6-5.76 3.2-19.36 4.64z" fill="#c9c279"/>
  </g>
  <g transform="matrix(.85113 0 0 .85113 50.722 45.76)">
   <path d="m0 0s0 2.56 0.96 4.16c0.16 0.32 0.96 0.64 1.12 0.32 0.64-0.96 1.12-1.6 1.12-1.6z" fill="#fff"/>
  </g>
  <g transform="matrix(.85113 0 0 .85113 51.131 45.896)">
   <path d="m0 0s-0.16 0.16-0.16 0.64c0.64 1.12 1.6 1.92 2.4 2.72 0.48-0.8 0.32-1.12 0.32-1.12z" fill="#dbdcdc"/>
  </g>
  <g transform="matrix(.85113 0 0 .85113 56.17 36.227)">
   <path d="m0 0c-0.16 0.8-0.48 1.28-0.8 1.28s-0.64-0.8-0.48-1.6 0.48-1.28 0.8-1.28 0.64 0.64 0.48 1.6z" fill="#0f141b"/>
  </g>
  <g transform="matrix(.85113 0 0 .85113 76.597 37.997)">
   <path d="m0 0c0.16 0.96-0.16 1.76-0.64 1.76-0.64 0-1.12-0.64-1.12-1.6-0.16-0.96 0.16-1.92 0.64-1.92 0.64 0 1.12 0.64 1.12 1.76z" fill="#0f141b"/>
  </g>
  <g transform="matrix(.85113 0 0 .85113 120.17 142.18)">
   <path d="m0 0s5.6 4.96 5.12 6.08c-0.32 0.8-2.08 1.76-9.28 1.92v0.96c6.4-0.16 10.08-0.64 10.72-2.4 0.64-1.6-6.08-7.52-6.08-7.52z" fill="#0f141b"/>
  </g>
  <g transform="matrix(.85113 0 0 .85113 82.997 151.57)">
   <path d="m0 0c0.32 1.76 6.08 2.08 15.68-0.8l-0.32-0.96c-7.2 1.92-13.76 2.56-14.08 1.12s2.56-5.44 4.8-7.04l-0.48-0.8c-2.08 1.6-6.08 6.24-5.6 8.48z" fill="#0f141b"/>
  </g>
  <g transform="matrix(.85113 0 0 .85113 18.992 133.32)">
   <path d="m0 0c-4.32-0.16-6.88-0.64-6.88-1.44-0.32-1.12 4.96-6.08 7.2-7.36l-0.48-1.12c-1.92 0.96-8.64 7.04-8.16 8.96 0.48 1.12 3.84 2.24 8.32 1.92 0.16-0.32 0.32-0.48 0-0.96z" fill="#0f141b"/>
  </g>
  <g transform="matrix(.85113 0 0 .85113 8.2338 38.27)">
   <path d="m0 0c3.04 1.44 4.16 1.76 6.56 8 1.44 3.36 4.32 4.64 7.2 6.08 2.4 1.12 4.48 1.6 5.76 3.68 1.12 1.76 1.76 4.8 2.4 6.56 0.8 2.72 1.6 4.32 4.96 6.88 5.28 4.16 9.28 10.56 9.92 12.64l1.12-1.28c-0.8-2.72-5.12-8.32-10.24-12.32-3.04-2.4-3.84-4.64-4.8-7.36-0.48-1.76-1.12-3.52-2.24-5.28-1.6-2.4-4-3.52-6.4-4.64-2.72-1.28-5.28-2.56-6.56-5.44-1.92-4.96-3.84-6.72-6.88-8.48-0.32 0.48-0.48 0.8-0.8 0.96z" fill="#0f141b"/>
  </g>
  <g transform="matrix(.85113 0 0 .85113 39.692 30.78)">
   <path d="m0 0c-1.76-1.12-3.84-2.08-4.64-2.88-3.04-3.04-15.04-11.2-21.6-8.8 0.32 0.16 0.64 0.32 0.96 0.64 5.92-1.28 18.08 7.04 19.68 8.96 0.96 0.96 2.72 2.08 4.64 3.2 2.24 1.28 4.8 2.72 6.56 4.48l1.28-1.12c-1.92-1.76-4.64-3.2-6.88-4.48z" fill="#0f141b"/>
  </g>
  <g transform="matrix(.85113 0 0 .85113 97.16 34.048)">
   <path d="m0 0c1.6 1.44 4.32 4.8 3.36 6.24l-2.08 2.88 1.44-0.64 1.6-2.08c1.44-2.08-1.6-4.96-3.52-6.72z" fill="#0f141b"/>
  </g>
  <g transform="matrix(.85113 0 0 .85113 117.72 75.856)">
   <path d="m0 0c0.48-1.92-1.12-4.16-3.36-6.08l-0.8 0.8c0 0.16 3.52 2.72 2.88 5.12s-1.28 3.68-2.4 5.28c0.16 0.32 0.32 0.64 0.32 1.12 1.44-1.92 2.56-3.36 3.36-6.24z" fill="#0f141b"/>
  </g>
  <g transform="matrix(.85113 0 0 .85113 121.13 91.517)">
   <path d="m0 0c0-2.24-2.72-5.44-5.12-6.72-0.96-0.48-1.44-0.96-1.92-1.44 0 0.32-0.16 0.8-0.16 1.12 0.48 0.32 0.96 0.64 1.6 0.96 2.24 1.28 4.32 5.12 4.32 7.04 0 1.76 0 6.08-1.28 7.36s-3.84 5.28-4 5.44l0.8 0.48s3.04-4.32 4.48-5.6c1.44-1.44 1.28-6.4 1.28-8.64z" fill="#0f141b"/>
  </g>
  <g transform="matrix(.85113 0 0 .85113 34.108 134.96)">
   <path d="m0 0c-0.32 0.48-0.64 0.8-0.96 1.12 2.88 0.16 5.76 0.32 8.16 0.16v-1.12c-2.08 0.16-4.64 0.16-7.2-0.16z" fill="#0f141b"/>
  </g>
  <g transform="matrix(.85113 0 0 .85113 49.633 128.42)">
   <path d="m0 0c0 1.76-0.32 2.88-0.8 3.84l1.12 1.12c0.64-0.96 0.96-2.24 0.96-4.32z" fill="#0f141b"/>
  </g>
  <g transform="matrix(.85113 0 0 .85113 19.673 106.36)">
   <path d="m0 0c-0.96 3.2 3.68 8.64 5.6 9.28 0 0 1.6 0.8 0.16-0.48-3.2-2.88-5.12-7.52-4.8-9.12 0.16-1.6 0-3.04-0.96 0.32z" fill="#0f141b"/>
  </g>
  <g transform="matrix(.85113 0 0 .85113 20.082 106.91)">
   <path d="m0 0 0.32-0.16v-0.32c2.24-7.04 15.36-15.2 17.6-15.84l0.32-1.76c-2.4 0.64-16.32 9.44-18.88 16.96-3.04 0.64-4.16 1.44-5.12 4.8-0.32 1.12-1.44 6.56-1.44 10.4 0 1.92 0.48 3.2 1.28 3.68 1.44 1.28 3.52 3.04 4.32 3.52 0.16 0.96 0.96 4 1.76 6.56 0.32-0.16 0.8-0.32 1.12-0.48-0.64-1.76-1.12-3.68-1.6-5.44 1.12 0.48 1.6 0.8 3.04 0.64 2.24-0.32 4.48-10.08 4.48-11.2s-0.32-1.28-0.64 0.16c-0.16 1.44-2.72 9.76-4.16 9.92-1.28 0.16-3.2-0.8-7.52-4.48-1.12-0.96-0.64-8.64 0.48-12.96 0.8-3.04 1.76-3.36 4.64-4z" fill="#0f141b"/>
  </g>
  <g transform="matrix(.85113 0 0 .85113 16.541 109.08)">
   <path d="M 0,0 C -0.16,2.56 3.2,8 5.6,9.12 6.56,9.44 7.36,9.76 5.92,8.64 2.4,5.92 0.8,1.28 0.64,-0.48 0.48,-2.4 0.16,-1.92 0,0 Z" fill="#0f141b"/>
  </g>
  <g transform="matrix(.85113 0 0 .85113 35.198 128.01)">
   <path d="m0 0c-0.32-0.48-0.8-8.48-0.48-9.28 0.16-0.32 0.48-0.64 0.96-0.96s2.4-0.96 2.72-1.28l-0.48-0.96c-0.32 0.32-1.28 0.64-1.76 0.96-0.96 0.48-1.92 0.8-2.4 2.08-0.32 0.8 0 9.28 0.64 10.4 0.48 0.64 2.56 2.24 5.12 1.76 2.24-0.48 4.64-1.92 8.64-4.16l-0.48-0.48c-4 2.24-5.92 3.36-8 3.68-1.28 0.32-3.84-0.32-4.48-1.76z" fill="#0f141b"/>
  </g>
  <g transform="matrix(.85113 0 0 .85113 37.24 126.11)">
   <path d="m0 0c0.16 1.28 0.96 2.4 0.8-0.32-0.16-2.56 0-5.6 1.6-6.08l-0.16-0.48c-1.92 0.48-3.04 1.28-2.24 6.88z" fill="#0f141b"/>
  </g>
  <g transform="matrix(.85113 0 0 .85113 40.781 135.78)">
   <path d="m0 0c-0.32-0.32-0.32-0.64-0.32-0.64 0.16-0.64 2.4-4.48 4.8-5.76 0.96-0.48 1.76-0.64 2.56-0.32 0.8 0.48 5.44 5.12 5.28 7.52 0 0.32-0.16 0.8-1.12 0.96-1.76 0.48-9.44-0.16-11.2-1.76zm3.84-7.2c-4.48 2.4-5.6 7.2-5.28 7.52 3.52 4.16 14.08 3.2 14.72 1.76 1.28-2.24-3.52-8.8-5.76-9.76-1.28-0.48-1.92-0.48-3.68 0.48z" fill="#0f141b"/>
  </g>
  <g transform="matrix(.85113 0 0 .85113 20.082 139.72)">
   <path d="m0 0c-1.6-1.44-0.96-9.12 0.16-9.92 0.96-0.8 3.2-1.12 6.88-0.64 6.24 0.8 9.12 3.36 9.12 4.64 0 0.8-6.24 4.32-12.96 6.24-1.44 0.32-2.56 0.32-3.2-0.32zm-0.48-10.56c-1.76 1.44-2.72 9.92-0.64 11.84 0.96 0.8 2.24 0.96 4 0.48 6.56-1.76 10.72-4.32 13.76-6.4 1.44-1.12 1.6-5.76-9.12-7.04-3.84-0.48-6.72 0-8 1.12z" fill="#0f141b"/>
  </g>
  <g transform="matrix(.85113 0 0 .85113 123.85 108.4)">
   <path d="m0 0c-4.64-1.12-8-5.76-8.64-6.88l-0.8 1.44c0.8 1.44 4.16 5.28 9.12 6.56 0.16 0.16 0.32 0.16 0.64 0.16 0-0.48 0.16-0.8 0.48-1.12-0.32 0-0.64 0-0.8-0.16z" fill="#0f141b"/>
  </g>
  <g transform="matrix(.85113 0 0 .85113 133.38 104.73)">
   <path d="m0 0c0.16 0.32 0.48 0.64 0.64 1.12 1.12-1.12 2.4-2.08 3.36-3.2-0.16-0.48-0.32-0.8-0.32-1.28-1.12 1.12-2.4 2.4-3.68 3.36z" fill="#0f141b"/>
  </g>
  <g transform="matrix(.85113 0 0 .85113 145.91 93.968)">
   <path d="m0 0c-0.96-3.84-1.6-4-3.68-0.48-0.48 0.96-1.28 2.56-2.56 4.16 0.32 0.32 0.64 0.48 0.8 0.8 1.44-1.76 2.4-3.36 3.04-4.32 0.8-1.44 0.96-1.44 1.28 0.16 4.64 22.56-3.52 40.48-21.6 47.36l-1.28 1.44c15.04-1.6 30.72-23.52 24-49.12z" fill="#0f141b"/>
  </g>
  <g transform="matrix(.85113 0 0 .85113 127.12 111.94)">
   <path d="m0 0c-1.28-0.32-2.88-1.28-2.88-2.08 0-0.64 2.24-7.68 2.88-9.12 0-0.16 0.64-0.64 1.44-0.8 1.44-0.32 2.88-0.32 3.52 0.16 0.96 0.8 3.36 5.44 2.88 7.2-0.32 1.76-6.72 4.8-7.84 4.64zm0.96-12.8c-0.48 0.16-1.6 0.48-1.76 1.12-0.48 0.96-2.4 6.72-3.04 9.44-0.32 1.76 2.72 3.04 4.16 3.36 1.44 0.16 7.84-3.84 8.32-5.76s-2.08-6.88-3.2-7.84c-0.8-0.64-3.04-0.8-4.48-0.32z" fill="#0f141b"/>
  </g>
  <g transform="matrix(.85113 0 0 .85113 137.06 103.36)">
   <path d="m0 0c-0.48-1.44-0.64-6.72-0.32-7.52 0.48-0.96 1.44-1.44 2.24-1.12s4.16 2.56 4.32 3.36c0 0.64-1.12 3.52-2.4 5.12-0.64 0.8-0.96 0.96-1.12 0.96-1.28 0-2.56-0.48-2.72-0.8zm-1.12-7.68c-0.48 1.12-0.32 6.24 0.32 7.68v0.32c0.32 0.64 2.24 1.28 3.68 1.12 0.48 0 0.96-0.48 1.6-1.28 1.28-1.6 2.72-4.8 2.56-5.76-0.32-1.12-4.32-3.68-5.12-4-0.96-0.32-2.56 0.8-3.04 1.92z" fill="#0f141b"/>
  </g>
  <g transform="matrix(.85113 0 0 .85113 128.07 103.5)">
   <path d="m0 0c-0.16 0.32-0.16 1.44-0.32 2.72-0.16 2.08-0.32 4.48-0.32 5.44-0.16 0.64 0 1.12 0.32 0 0.16-0.8 0.48-2.72 0.64-5.28 0.16-1.28 0.16-2.24 0.32-2.72 0-0.64 2.08-0.96 2.72-1.12 0.48-0.16 0.64-0.32 0-0.48-0.8 0-3.2 0.16-3.36 1.44z" fill="#0f141b"/>
  </g>
  <g transform="matrix(.85113 0 0 .85113 138.15 98.053)">
   <path d="M 0,0 C 0.48,1.6 0.96,5.28 0.96,5.76 0.8,6.24 1.28,6.24 1.44,5.28 1.6,4.48 0.8,1.6 0.32,0 0,-1.12 -0.32,-0.96 0,0 Z" fill="#0f141b"/>
  </g>
  <g transform="matrix(.85113 0 0 .85113 139.65 114.26)">
   <path d="m0 0c0.96 1.6 1.6 3.68 0.8 4.8-1.28 2.08-4.16 4.48-5.12 4.16 0 0-0.16 0-0.32-0.48-0.32-2.72-1.6-4.96-2.4-6.56-0.48-0.64-0.8-1.44-0.8-1.76h0.16l1.6-0.32c1.44-0.32 3.36-0.64 4.64-1.44 0.16 0 0.8 0.48 1.44 1.6zm-2.24-2.08c-2.24 1.12-5.12 0.96-6.08 1.6-0.96 0.8 0.16 1.76 0.64 2.72 0.8 1.44 2.08 4 2.4 6.72 0 0.64 0.48 0.8 0.64 0.96 1.44 0.32 4.8-2.88 5.92-4.64 1.6-2.4 0.16-5.28-1.12-6.56-0.48-0.64-0.96-1.44-2.4-0.8z" fill="#0f141b"/>
  </g>
  <g transform="matrix(.85113 0 0 .85113 -418.97 -271.81)">
   <path d="m648.48 453.12z" fill="none" stroke="#0f141b" stroke-linecap="round" stroke-linejoin="round" stroke-miterlimit="10" stroke-width=".5"/>
  </g>
  <g transform="matrix(.85113 0 0 .85113 135.29 115.35)">
   <path d="m0 0c0.32 0.32 2.24 1.44 1.76 5.28 0 1.12 0.32 0.8 0.64 0.16 1.28-3.68-1.28-5.28-2.24-5.92-0.96-0.48-0.64 0.16-0.16 0.48z" fill="#0f141b"/>
  </g>
  <g transform="matrix(.85113 0 0 .85113 40.509 7.9015)">
   <path d="m0 0c-0.64 0.16-1.44 0.16-1.76 0.8-0.16 0.64 0.48 1.44 1.92 2.88 0.64 0.8 1.44 1.6 2.24 2.56 1.12 1.28 1.92 3.2 2.72 4.96 1.76 3.84 3.68 7.84 8.8 8.16v-0.8c-4.64-0.48-6.24-4-7.84-7.68-0.96-1.92-1.44-4-2.72-5.44-0.8-1.12-1.92-2.4-2.56-3.04-0.64-0.8-1.28-1.44-0.8-1.44 7.04-0.16 17.6 5.6 20.8 8.48l0.48-0.8c-4.48-4.32-14.08-8.8-21.28-8.64z" fill="#0f141b"/>
  </g>
  <g transform="matrix(.85113 0 0 .85113 47.454 48.892)">
   <path d="m0 0c-0.32 2.56-1.28 4.16-3.68 6.88-0.96 1.12-2.24 3.04-1.28 4.8 1.76 3.04 2.88 4.16 3.52 4.48 0.48 0.32 0.8-0.8 0.8-0.96-0.64-0.32-2.08-1.92-3.2-3.84-0.64-1.28 0.16-3.2 1.28-4.48 3.68-4.32 4.32-7.52 2.08-12.32-0.48-1.28-1.92-1.76-3.36-1.92s-0.64 0.32 0.32 0.8c0.96 0.32 1.76 0.48 2.4 1.6 0.48 0.8 0.96 2.24 1.12 3.52-0.8-0.64-1.6-1.12-2.08-1.28l-0.32-0.16c-0.8-0.48-2.4-2.56-3.04-3.84-0.48-1.28 1.12-5.44 2.08-7.68l0.16-0.32c0.8-1.92 2.4-1.44 4.8-0.48l0.16-1.28c-2.24-0.8-4.8-1.76-5.92 0.96v0.32c-1.6 3.52-2.88 7.52-2.4 8.96 0.8 1.44 2.88 3.52 3.68 4l0.48 0.16c0.8 0.48 2.24 1.12 2.4 2.08z" fill="#0f141b"/>
  </g>
  <g transform="matrix(.85113 0 0 .85113 46.364 56.518)">
   <path d="m0 0c0.8 1.28 3.04 3.04 4 3.2 0 0 1.6-0.48 0.16-0.8s-4-2.88-4.32-3.36c-0.32-0.64-0.48 0 0.16 0.96z" fill="#0f141b"/>
  </g>
  <g transform="matrix(.85113 0 0 .85113 129.03 21.52)">
   <path d="m0 0c-2.24-0.48-4.96 0.48-8.48 2.88-5.28-1.12-10.88 2.56-12.8 8.16-1.12 3.52-1.92 5.92-8.64 11.2l1.12 1.12c4.48-4.16 7.52-8.16 8.8-12 1.6-4.96 6.88-8.32 11.52-7.36l0.16 0.16 0.32-0.16c3.36-2.4 5.76-3.36 7.68-2.88 0.16 0 0.32 0.16 0.48 0.16 0.48-0.32 0.8-0.64 1.12-0.8-0.32-0.16-0.8-0.32-1.28-0.48z" fill="#0f141b"/>
  </g>
  <g transform="matrix(.85113 0 0 .85113 127.8 55.292)">
   <path d="m0 0-1.92 4c-1.12 2.24-3.52 4.16-6.4 6.56-4.8 4-11.04 10.4-12.16 12.48-0.8 1.44-0.96 2.56 0 1.6 0.8-0.8 2.72-3.2 2.72-3.2 1.6 5.12 3.52 19.52 3.52 35.52 0.48 0.32 0.96 0.64 1.28 1.12v-0.96c0-16.16-0.96-28.32-3.68-36.64 2.72-3.68 6.08-6.4 8.96-8.96 3.04-2.4 6.24-4.96 7.36-7.36l1.92-4.96c1.92-4 3.04-6.88 6.72-9.92-0.16-0.32-0.48-0.64-0.64-1.12-4.16 3.68-5.76 7.52-7.68 11.84z" fill="#0f141b"/>
  </g>
  <g transform="matrix(.85113 0 0 .85113 136.65 31.052)">
   <path d="m0 0c0 0.16-0.32 0.32-0.48 0.64 1.6 1.44 2.72 3.36 3.2 5.12 0.32 0 0.8-0.16 1.28-0.16-0.8-1.92-2.08-3.84-4-5.6z" fill="#0f141b"/>
  </g>
  <g transform="matrix(.85113 0 0 .85113 5.5102 30.371)">
   <path d="m0 0c-1.76 3.36-1.12 9.28 0.16 10.88 0.32 0.32 0.8 0.48 1.12 0.32 2.08-0.64 5.12-4.96 5.6-6.4 0.48-1.28 0.16-3.36 0.16-3.36h-0.96s0 2.24-0.32 3.36c-0.48 1.28-3.04 4.96-4.8 5.6v-0.16c-1.12-1.12-0.96-8.16-0.16-9.76 0.96-1.92 1.92-2.24 4.16-2.56l-0.32-0.8c-2.4 0.16-3.52 0.64-4.64 2.88z" fill="#0f141b"/>
  </g>
  <g transform="matrix(.85113 0 0 .85113 11.502 31.325)">
   <path d="m0 0c-0.64-0.16-1.12-2.56-1.6-4.16l-0.16-0.64c-0.48-2.4 3.04-5.12 4.48-6.08 0.96-0.64 2.72-1.12 4.16-0.8 0.64 0.16 1.12 0.48 1.44 0.8 0 0.32 0.16 0.48 0.16 0.8 0 2.88-6.08 8.96-8 10.08-0.16 0.16-0.32 0.16-0.48 0zm2.08-11.68c-1.6 1.28-5.28 4.16-4.64 7.2l0.16 0.48c0.48 2.24 0.96 3.84 1.6 4.8 0.8 0.96 1.92 0.32 3.2-0.8 8.48-7.68 7.68-10.24 6.88-11.36-0.8-1.28-1.6-1.12-2.56-1.44-1.6-0.32-3.36 0.32-4.64 1.12z" fill="#0f141b"/>
  </g>
  <g transform="matrix(.85113 0 0 .85113 23.758 29.554)">
   <path d="m0 0c2.72 0.64 2.4 8.48 0.96 8.16-2.24-0.32-9.44-2.24-9.44-3.04 0-1.28 7.04-5.44 8.48-5.12zm-9.6 5.12c0.16 1.44 4.48 3.04 10.56 4.16 0.48 0.16 1.28-0.16 1.92-2.4 0.48-2.88-0.16-7.2-2.72-7.84-3.36-0.8-9.92 5.12-9.76 6.08z" fill="#0f141b"/>
  </g>
  <g transform="matrix(.85113 0 0 .85113 103.56 39.632)">
   <path d="m0 0c-0.32-0.32-1.44-1.12-7.68 3.52v1.44c4.48-3.36 6.88-4.64 7.2-4.32 1.12 0.96 3.84 5.76 3.84 7.52v0.16c0 0.96-3.36 3.68-5.76 5.28-0.16-0.8-0.32-1.76 0-2.56 0.48-0.96 1.76-2.08 3.04-2.72 0.8-0.48 0.8-1.12-0.32-0.48-2.72 1.44-3.84 2.4-3.68 4.16 0.16 2.4 1.28 5.28 3.84 10.56 0 0.16-0.16 0.64-1.76 1.76-2.56 1.92-7.04 4-8 3.84-0.96 0-2.4-2.24-2.72-2.56-0.32-0.48-0.8-5.6-1.12-7.04-0.16-1.44-0.64-1.12-0.48 0.32 0.16 1.6 0.32 6.08 0.64 7.04 0.32 1.12 2.4 3.84 4 3.52 1.76-0.48 8.64-3.84 10.24-5.92 0.32-0.32 0.16-0.8 0.16-0.96-2.08-4.16-2.88-6.08-3.52-8.16 1.28-0.96 6.4-4 6.56-5.76v-0.16c0-2.08-3.2-7.36-4.48-8.48z" fill="#0f141b"/>
  </g>
  <g transform="matrix(.85113 0 0 .85113 94.573 60.059)">
   <path d="m0 0c-0.64 0-0.48 0.32 0.16 0.32 2.88 0.32 7.68-3.04 8-3.52 0.32-0.32 0.16-0.64-0.32-0.32-2.08 1.28-6.24 3.2-7.84 3.52z" fill="#0f141b"/>
  </g>
  <g transform="matrix(.85113 0 0 .85113 134.61 45.487)">
   <path d="m0 0c-0.48-0.16 1.92-8.32 5.12-10.88 0.32-0.16 0.48-0.16 0.48-0.16 1.12 0.16 2.08 1.12 2.4 2.56s0 3.68-1.92 5.28c-3.04 2.56-5.44 3.52-6.08 3.2zm4.64-11.52c-3.84 3.04-5.76 9.76-5.76 11.68 0 0.64 0.16 0.8 0.32 0.8 2.08 0.32 5.92-1.28 8.64-4.16 1.12-1.44 1.28-2.88 1.28-4.32 0-2.08-1.28-3.68-3.36-4.48-0.32 0-0.8 0.16-1.12 0.48z" fill="#0f141b"/>
  </g>
  <g transform="matrix(.85113 0 0 .85113 128.07 26.15)">
   <path d="m0 0c-0.64-0.64-0.48-2.08 0.32-3.04 0.48-0.8 2.08-2.24 5.6-0.96 2.72 0.96 4 2.88 4.48 3.84 0.48 1.28 0.64 2.56 0.32 3.36-0.96 2.56-3.68 6.08-4.64 5.92-0.64 0-3.2-6.08-6.08-9.12zm-0.48-3.68c-0.96 1.44-1.12 2.72-0.32 3.84l1.44 1.92c1.44 1.6 3.2 4 4 7.2 0.32 0.96 0.96 1.28 2.56 0.48 2.56-1.28 4.64-5.28 4.64-7.2 0.16-2.72-1.44-5.92-5.6-7.52-2.88-0.96-5.28-0.48-6.72 1.28z" fill="#0f141b"/>
  </g>
  <g transform="matrix(.85113 0 0 .85113 115.95 31.188)">
   <path d="m0 0c-0.32 0-0.48 0-0.48-0.32v-0.16c0.16-1.92 4.8-6.72 6.24-6.72 1.76 0 3.68 1.92 5.12 4.48 2.4 4.32 1.28 7.84 0.96 8s-5.44-3.68-11.84-5.28zm-1.28-0.48c-0.16 0.8 0 1.28 0.8 1.44 2.56 0.32 7.84 2.72 10.24 4.32 2.24 1.44 2.56 1.28 3.04-0.32 0.8-2.4 0.48-5.76-0.64-7.68-2.08-3.52-4.16-5.28-6.4-5.44-1.92-0.16-6.88 5.44-7.04 7.68z" fill="#0f141b"/>
  </g>
  <g transform="matrix(.85113 0 0 .85113 97.569 42.355)">
   <path d="m0 0c0-2.72-0.64-8.96-1.28-9.92s-1.44-0.64-0.96 0c0.32 0.8 1.28 11.36 0.96 13.6-0.32 1.92-2.24 4.48-3.68 6.08-1.28 1.44-0.96 1.92 0.64 0.48 4.16-3.52 4.48-4.64 4.32-10.24z" fill="#0f141b"/>
  </g>
  <g transform="matrix(.85113 0 0 .85113 83.542 49.437)">
   <path d="m0 0c0 2.24-1.44 5.6-1.92 5.6s-1.92-2.24-2.08-3.68l-1.12 0.16c0.8 2.24 2.4 4.48 3.2 4.32 1.28 0 2.72-2.4 2.72-6.4z" fill="#0f141b"/>
  </g>
  <g transform="matrix(.85113 0 0 .85113 51.267 46.577)">
   <path d="m0 0c1.76 1.44 7.04 6.72 7.52 7.2 1.44 1.76 3.04 2.72 5.28 3.04 5.76 0.96 11.36-2.72 16.16-3.52 8-1.44 11.52-3.2 13.44-6.24 0.8-1.44 0.96-2.4-0.32-0.96-2.56 3.04-4.8 4.64-13.12 6.24-4 0.64-10.24 4.32-16 3.52-1.76-0.32-3.36-0.96-4.8-2.56-4.8-5.6-11.04-8.48-11.04-15.2 0-2.88 1.28-5.44 2.56-8 0.64-1.28 1.12-2.56 1.6-3.68-0.32-0.32-0.48-0.8-0.64-1.12 0 0.16-0.32 1.12-2.24 4.96-1.28 2.56-2.56 4.8-2.56 8 0 2.4 0.96 4.8 2.88 7.2 0.32 0.32 0.96 0.96 1.28 1.12z" fill="#0f141b"/>
  </g>
  <g transform="matrix(.85113 0 0 .85113 51.812 49.845)">
   <path d="m0 0c2.88 4.48 8.96 9.76 14.72 10.4 5.92 0.64 21.44-2.4 25.28-4.64 2.88-1.76 5.6-4.64 5.76-6.4 0.32-1.76-0.32-0.8-1.12 0.8-0.96 1.44-3.04 3.2-5.44 4.64-3.04 1.92-17.28 5.12-24.16 4.48-5.28-0.64-11.36-5.28-14.24-9.44z" fill="#0f141b"/>
  </g>
  <g transform="matrix(.85113 0 0 .85113 58.893 49.028)">
   <path d="M 0,0 C -0.16,0.16 0.16,1.28 0.32,2.24 0.48,2.88 1.44,2.72 1.28,2.08 0.96,0.8 0.16,-0.16 0,0 Z" fill="#0f141b"/>
  </g>
  <g transform="matrix(.85113 0 0 .85113 65.157 51.343)">
   <path d="M 0,0 C -0.48,0.48 0,1.12 0.64,0.8 1.28,0.16 2.56,-1.12 2.56,-1.28 2.4,-1.44 0.8,-0.8 0,0 Z" fill="#0f141b"/>
  </g>
  <g transform="matrix(.85113 0 0 .85113 56.987 40.449)">
   <path d="m0 0 0.32-0.48c-6.88-2.72-5.92-9.12-4.8-12.16l-0.64-0.48c-1.92 5.28-1.76 10.4 5.12 13.12z" fill="#0f141b"/>
  </g>
  <g transform="matrix(.85113 0 0 .85113 81.499 38.678)">
   <path d="m0 0c-2.08 1.6-8.16 3.68-12.16 3.68v0.48c4.32 0 11.04-2.08 13.12-3.68 1.12-0.8 1.44-3.68 1.28-8.8h-0.96c0 4-0.16 7.36-1.28 8.32z" fill="#0f141b"/>
  </g>
  <g transform="matrix(.85113 0 0 .85113 56.85 37.861)">
   <path d="m0 0c-0.48 1.28-1.28 1.6-1.92 1.28-1.44-0.8-1.76-5.12-0.64-6.72l-0.32-0.96c-1.6 1.76-1.12 6.56 0.64 8 0.64 0.48 1.92 0.32 2.56-0.8-0.16-0.32-0.16-0.48-0.32-0.8z" fill="#0f141b"/>
  </g>
  <g transform="matrix(.85113 0 0 .85113 77.686 35.001)">
   <path d="m0 0c1.28 2.24 0.96 5.12-0.8 6.56-1.28 0.96-3.04 0.32-3.84-1.76-0.16 0.16-0.64 0.48-0.64 0.64 0.96 2.72 3.84 2.4 4.96 1.6 2.24-1.92 2.4-5.6 1.12-7.68-0.16 0.16-0.64 0.48-0.8 0.64z" fill="#0f141b"/>
  </g>
  <g transform="matrix(.85113 0 0 .85113 70.06 43.445)">
   <path d="m0 0c-3.84 1.76-14.08-0.96-14.24-1.44-0.16-0.64-0.16-1.44-0.16-2.4-0.48-5.28-1.6-7.84-5.92-13.28-0.64-0.8-0.8-1.6-0.8-2.08v-0.32c0-8.8 11.36-18.88 26.4-18.88 10.4 0 19.2 6.24 21.76 13.92 0.32-0.32 0.8-0.48 0.96-0.64-3.2-9.6-12.64-14.4-22.72-14.4-16.8 0-28.96 11.84-27.68 20.96 0 0.64 0.48 1.28 1.12 2.08 4.8 6.4 5.28 7.84 5.76 13.44 0.16 1.28 0.16 1.76 0.32 2.08 0.64 0.96 8.32 3.36 15.04 2.08 1.12-0.16 1.12-0.48 1.12-0.48 2.24-5.6 10.56-14.56 19.04-15.36v-1.12c-10.08 1.6-17.44 10.08-20 15.84z" fill="#0f141b"/>
  </g>
  <g transform="matrix(.85113 0 0 .85113 104.11 25.741)">
   <path d="m0 0c-1.6 2.56-2.56 6.08-5.76 8.32-1.92 1.28-9.92 0-13.44-1.76-0.32-0.16-0.48-0.32-0.48-0.64l-0.16-0.32c0-2.24 4.8-7.04 6.4-8.48l0.48-0.64c3.2-3.2 19.2-6.24 21.92-5.6 0.32 0.16 0.48 0.16 0.48 0.32 0.32 1.12-1.76 4.32-6.24 9.28-2.08 2.4-3.52 2.56-4 2.56 2.56-5.12 6.4-9.76 8.96-10.72 0.8-0.32 1.12-0.8 0-0.32-2.56 0.64-5.92 4.16-8.16 8zm11.04-9.28c0-0.48-0.32-0.96-1.12-0.96-4.48-0.8-20.16 2.72-23.52 6.08l-0.48 0.64c-3.2 3.2-6.88 7.2-6.56 9.44 0.16 0.64 0.48 1.12 1.12 1.44 3.36 1.76 11.04 3.36 13.6 2.24 2.4-0.96 3.84-2.56 4.96-5.76 0.64 0 2.88-0.32 5.28-2.88 3.52-4 7.36-8.32 6.72-10.24z" fill="#0f141b"/>
  </g>
  <g transform="matrix(.85113 0 0 .85113 50.722 129.1)">
   <path d="m0 0c2.56 1.76 21.92 8 40.16 1.12v-0.64c-19.2 7.2-42.24-1.76-43.68-2.72z" fill="#0f141b"/>
  </g>
  <g transform="matrix(.85113 0 0 .85113 69.107 138.64)">
   <path d="m0 0 2.08 0.8c2.72 0.32 11.36 0.8 15.68-0.96l-0.16-0.64c-5.76 0.96-14.4 1.12-17.6 0.8z" fill="#0f141b"/>
  </g>
  <g transform="matrix(.85113 0 0 .85113 85.312 68.774)">
   <path d="m0 0c-5.6-7.04-13.28-10.72-22.56-11.04-13.92-0.48-22.08 4.64-26.56 10.08 3.2-5.6 7.52-10.4 13.28-13.92 1.6-0.96 2.24-2.08 0-0.8-12.16 6.72-19.68 19.36-21.76 40.8-1.28 0.8-2.24 4-2.56 5.12-0.32 0.96-1.28 5.12-1.28 10.08 0 8.96 3.2 21.92 20 30.88 4.48 7.2 24 13.92 42.56 15.04-0.32-0.32-0.8-0.8-1.12-1.28-4.96-0.32-10.08-1.12-15.2-2.24-12.8-2.88-22.56-7.52-25.28-12.32v-0.16h-0.16c-17.76-9.44-19.84-24-19.68-31.84 0.32-7.04 3.36-12.32 3.36-12.32l0.64 0.64c1.92-27.04 12.8-37.28 33.28-36.8 8.96 0.32 16.8 3.84 22.4 10.56 8.48 10.56 9.92 25.92 8.8 31.84l0.96 0.16c1.76-7.84-0.8-22.08-9.12-32.48z" fill="#0f141b"/>
  </g>
  <g transform="matrix(.85113 0 0 .85113 53.582 76.945)">
   <path d="m0 0c-0.64 0.32-0.32 4.32 0.48 6.08l0.48-0.8c0-0.16-0.8-3.36-0.64-4.8h0.16c0.16-0.32 2.88 0.64 3.68 0.96l1.12-0.48s-4.8-1.28-5.28-0.96z" fill="#0f141b"/>
  </g>
  <g transform="matrix(.85113 0 0 .85113 54.672 87.976)">
   <path d="m0 0h-0.64c-0.96 0.16-1.6 0.32-2.08-0.32l-0.48-1.12c-0.32-0.48-0.64-1.12-1.12-1.6-0.32 0.32 0 0.64 0 0.8 0.16 0.32 0.32 0.8 0.64 1.12l0.64 1.44c0.48 0.8 1.44 0.48 2.56 0.32l0.8-0.16z" fill="#0f141b"/>
  </g>
  <g transform="matrix(.85113 0 0 .85113 71.013 89.61)">
   <path d="m0 0c-0.48 0.8-2.88 2.24-4 1.6-1.28-0.8-2.24-0.96-2.24-0.96l-0.8 0.32s1.76 0.48 3.04 1.28c1.44 0.96 3.84-1.12 4.48-1.92l0.16-0.32c-0.16 0-0.32-0.16-0.32-0.32z" fill="#0f141b"/>
  </g>
  <g transform="matrix(.85113 0 0 .85113 68.29 101.46)">
   <path d="m0 0c0-1.44-0.16-2.72-0.32-4.16 1.12 0 3.84 0.32 6.4-2.4 0.96-0.96 1.76-3.04 1.76-4.8-0.16-1.44-0.48-2.56-1.76-2.88 0 0.16 0.16 0.48 0.16 0.64 1.28 1.28 0.64 5.12-0.64 6.4-2.72 2.88-6.08 2.56-6.08 2.56-0.16-0.64-0.16-0.96-0.32-1.44s-0.48-1.12-0.32 0.16c0.16 1.44 0.48 3.84 0.48 5.76z" fill="#0f141b"/>
  </g>
  <g transform="matrix(.85113 0 0 .85113 48.816 97.509)">
   <path d="m0 0c0.48-1.28 1.44-3.36 2.24-4.64 0.96-1.28 1.76-1.92 0.96-1.6-0.64 0.32-1.76 2.08-1.76 2.08-2.08-1.6-4-5.12-4-6.72v-0.16c0-0.32 0.16-0.64 0.48-0.96-0.16-0.32-0.16-0.64-0.16-0.96-2.72 1.92 0 6.4 3.2 9.28-0.64 0.8-1.92 3.68-1.92 4z" fill="#0f141b"/>
  </g>
  <g transform="matrix(.85113 0 0 .85113 49.224 98.053)">
   <path d="m0 0 0.48 0.16c1.76-4.32 4.8-6.88 8-7.36v-0.64c-3.04 0.32-6.4 2.56-8.48 7.84z" fill="#0f141b"/>
  </g>
  <g transform="matrix(.85113 0 0 .85113 61.208 92.47)">
   <path d="M 0,0 C -0.32,0.16 -0.8,0 -1.12,0.16 1.6,1.6 4,4.8 4.32,10.24 L 4.96,10.08 C 4.64,5.12 2.56,1.76 0,0 Z" fill="#0f141b"/>
  </g>
  <g transform="matrix(.85113 0 0 .85113 66.519 79.669)">
   <path d="m 0,0 0.32,0.64 c 1.28,-0.16 5.28,0.48 5.44,0.8 0,0.48 -2.4,3.68 -4,4.8 L 1.6,7.36 C 3.2,6.24 6.88,2.08 6.56,1.28 6.24,0.32 0,0 0,0 Z" fill="#0f141b"/>
  </g>
  <g transform="matrix(.85113 0 0 .85113 54.535 88.248)">
   <path d="m0 0 0.32 0.16c0.32 0.32 0.96 1.76 1.28 2.72l0.48 1.12c0.48 0.96 3.04 1.6 4 1.6 0.64 0 1.28-0.16 1.28-0.32 0.32-0.32 3.04-1.44 4.96-2.24l1.12-0.64c2.4-0.96 1.92-3.68 1.92-4.96h-0.48c0 1.28-0.16 3.68-2.24 4.64l-0.8 0.32c-3.52 1.6-4.8 2.08-5.12 2.4-0.48 0.32-3.84-0.32-4.16-1.12l-0.48-0.96c-0.48-1.12-0.96-2.56-1.44-2.88v-0.16c-0.64-0.64-2.72-2.56-0.64-6.24l-0.48-0.32c-2.24 4-0.32 6.08 0.48 6.88z" fill="#0f141b"/>
  </g>
  <g transform="matrix(.85113 0 0 .85113 54.399 82.256)">
   <path d="m0 0c0-0.48 0.32-1.6 1.28-2.72 1.12-1.44 3.84-3.52 8.8-2.24 2.24 0.48 3.84 1.76 4.8 3.68 1.12 2.08 0.96 4.48 0.8 5.12-0.16 0.48-1.12 0.32-2.08 0.16-2.24-0.16-3.2 0-4.96 2.4-0.48 0.8-0.96 1.6-1.12 1.76-0.32 0.48-3.84-0.16-3.84-0.64v-2.08c-0.16-2.72-0.64-4.48-3.52-5.44zm3.04 7.84c0 0.64 4.64 1.44 4.96 0.8 0.64-1.44 1.92-3.52 3.2-4 0.48-0.16 1.6-0.16 2.4 0 1.12 0 2.24 0.16 2.56-0.64s0.64-3.2-0.48-5.6c-1.12-1.92-2.88-3.52-5.28-4-7.2-1.92-11.2 3.2-11.04 5.76 0 0.48 0.32 0.32 0.48 0.32 0.8 0.32 1.28 0.48 2.4 1.76 0.8 0.96 0.8 3.04 0.8 5.6z" fill="#0f141b"/>
  </g>
  <g transform="matrix(.85113 0 0 .85113 50.45 83.346)">
   <path d="m0 0c-0.48 0.32-1.28 0.8-1.44 1.28l0.16 0.32c0.16-0.32 1.76-1.28 1.92-1.28 0.16 0.16 0 2.4-0.48 2.72-0.16 0.16-0.96 0-1.28-0.16h-0.16l-0.16 0.32c0.64 0.16 1.44 0.64 1.92 0.32 0.32-0.32 0.48-1.12 0.48-2.72 0.16-1.28 0-1.28-0.96-0.8z" fill="#0f141b"/>
  </g>
  <g transform="matrix(.85113 0 0 .85113 47.862 87.295)">
   <path d="m0 0c-0.48 0-0.64-0.32-0.64-0.64 0-0.96 1.76-3.04 2.08-2.88 0.16 0-0.16 2.88-0.32 3.2 0 0.16-0.64 0.32-1.12 0.32zm0.64-3.68c-0.96 0.8-2.08 2.08-2.08 3.2 0 0.64 0.64 0.96 1.28 0.96 0.8 0.16 1.6-0.16 1.76-0.64s0.16-1.76 0.16-2.88c0.16-1.76-0.16-1.6-1.12-0.64z" fill="#0f141b"/>
  </g>
  <g transform="matrix(.85113 0 0 .85113 72.103 90.972)">
   <path d="m0 0c0-0.16-0.16-0.64-0.32-1.12s-0.64-1.44-0.64-1.6c0.16-0.16 2.4 0.32 2.4 1.44 0 0.64-0.48 1.28-0.8 1.44s-0.48 0-0.64-0.16zm-0.32-3.2c-1.28-0.16-1.44 0-0.96 1.12 0.16 0.32 0.32 0.8 0.48 1.12 0.16 0.64 0.32 0.96 0.48 1.28s0.64 0.48 1.12 0.32c0.64-0.16 1.28-1.12 1.28-2.08-0.16-0.8-1.12-1.28-1.76-1.6-0.16 0-0.32 0-0.64-0.16z" fill="#0f141b"/>
  </g>
  <g transform="matrix(.85113 0 0 .85113 70.877 93.287)">
   <path d="m0 0c0-0.16-1.12-2.56-0.96-2.56 0.16-0.16 2.56 0.16 2.56 1.28 0 0.64-0.48 1.44-0.96 1.6-0.32 0-0.48 0-0.64-0.32zm-1.44-2.88c-0.16 0.16 0.8 3.04 1.12 3.2 0.16 0.48 0.64 0.64 1.12 0.48 0.8-0.32 1.28-1.28 1.28-2.08 0-1.44-3.2-2.08-3.52-1.6z" fill="#0f141b"/>
  </g>
  <g transform="matrix(.85113 0 0 .85113 36.696 91.108)">
   <path d="m0 0c6.24 6.4 30.24 21.44 66.24 6.24 1.12 1.28 2.4 5.92 2.4 7.68l1.12-0.8c0-1.92-1.28-6.56-3.04-7.68l-0.32-0.16-0.16 0.16c-35.36 16.16-63.04-2.88-65.92-6.24z" fill="#0f141b"/>
  </g>
  <g transform="matrix(.85113 0 0 .85113 117.04 147.76)">
   <path d="m0 0c0 0.48-0.16 0.96-0.16 1.44l0.64-0.64c1.44-1.76 3.84-6.4 5.44-11.84-0.32 0.16-1.28 0.32-1.76 0.48-1.6 5.12-3.2 9.12-4.16 10.56z" fill="#0f141b"/>
  </g>
  <g transform="matrix(.85113 0 0 .85113 104.79 98.19)">
   <path d="m0 0c-10.08-0.32-20 11.68-23.84 31.84-0.32 1.92-0.48 3.84-0.64 5.6 0.48-0.32 0.96-0.48 1.6-0.48 0-1.6 0.32-3.36 0.64-5.12 3.52-19.52 11.68-30.88 22.24-30.56 10.24 0.16 20 10.56 21.76 23.68 0.32-0.32 0.64-0.48 1.12-0.64-1.92-12.8-12.32-23.84-22.88-24.32z" fill="#0f141b"/>
  </g>
  <g transform="matrix(.85113 0 0 .85113 97.432 150.35)">
   <path d="m0 0c-4.16-1.28-10.08-6.24-10.72-7.04 0 0-0.32-0.48-0.8-1.28-0.48-0.32-1.12-0.64-1.76-0.96 0.8 1.92 1.6 2.88 1.6 3.04 0.64 0.64 7.04 6.4 11.84 7.52-0.16-0.32-0.16-0.8-0.16-1.28z" fill="#0f141b"/>
  </g>
  <g transform="matrix(.85113 0 0 .85113 124.4 119.43)">
   <path d="m0 0c1.12 0.64 3.04 2.08 3.52 3.36 0.16 0.32 0.16 1.12 0.16 2.24 0 4.16-0.96 12.48-3.52 14.4-5.12 3.84-12 1.44-13.76-0.16-0.8-0.64-1.12-3.2-1.12-6.24 0-3.36 0.48-7.36 1.12-9.44 4.16 0.96 11.84-2.88 13.6-4.16zm-0.64-0.96c-0.16 0-0.16 0.48-0.16 0.48-0.96 0.96-7.52 4-12.32 3.68-0.96 0-1.44 0.16-1.76 1.44-0.64 3.68-1.6 13.92 0.64 15.84 0.96 0.96 3.52 2.4 6.4 2.72 2.88 0.32 6.08-0.48 8.96-2.56 3.84-2.88 4.16-16 3.52-17.76-0.48-1.44-4.64-4.16-5.28-3.84z" fill="#0f141b"/>
  </g>
  <g transform="matrix(.85113 0 0 .85113 125.08 124.2)">
   <path d="m0 0c-1.28 0.8-3.68 2.08-6.08 2.4-3.04 0.48-6.72-2.56-7.2-2.88-0.64-0.48-0.8-0.16-0.32 0.48 0.48 0.48 4.32 3.68 7.52 3.2 2.56-0.32 5.76-2.08 6.24-2.4 0.64-0.48 1.92-1.28 2.4-2.08 0.32-0.8-0.8 0.16-2.56 1.28z" fill="#0f141b"/>
  </g>
  <g transform="matrix(.85113 0 0 .85113 86.538 141.9)">
   <path d="m0 0c-2.4-2.56-4.32-8.8-4.32-10.4v-0.16c0.16-0.96 1.6-2.56 2.24-3.52 0.32 0.16 0.64 0.48 0.64 0.48 1.92 1.12 4.8 2.88 9.12 2.72 0.16 1.28 0.64 2.72 1.12 4.32 0.64 1.76 1.28 3.68 1.28 4.96 0 0.48 0 0.8-0.16 1.12-0.64 0.96-2.88 1.76-4.96 1.92-2.24 0.16-4-0.32-4.96-1.44zm-2.4-14.88c-0.32 0.16-3.04 2.88-3.2 4.32-0.32 1.44 2.24 8.32 4.96 11.2 1.6 1.76 4.16 2.08 5.6 1.92 2.56-0.16 4.96-1.12 5.76-2.4 0.96-1.28 0.32-3.52-0.64-6.4-0.48-1.6-0.96-2.88-1.28-4.16s-0.64-1.28-1.44-1.44c-2.24-0.32-7.52-1.76-8.64-2.72-1.12-1.12-1.12-0.32-1.12-0.32z" fill="#0f141b"/>
  </g>
  <g transform="matrix(.85113 0 0 .85113 82.997 133.32)">
   <path d="m0 0c1.76 1.92 5.76 3.36 9.28 2.88 1.28-0.16 1.28-0.48-0.16-0.48-5.12-0.16-8.16-2.56-8.8-2.88s-0.8 0-0.32 0.48z" fill="#0f141b"/>
  </g>
  <g transform="matrix(.85113 0 0 .85113 111.19 155.25)">
   <path d="m0 0c-4 0-15.2-3.84-15.52-5.28 0-0.16-0.16-0.16 0-0.32 5.44-5.6 12.64-6.56 17.44-5.44 2.56 0.48 4 1.44 4.32 2.24 0.64 1.6-3.36 8.8-6.24 8.8zm-16.16-6.24c-0.32 0.32-0.48 0.8-0.32 1.12 0.8 2.72 12.96 6.56 16.48 6.56 2.88 0 8.32-7.04 7.04-10.56-0.32-1.12-3.2-2.56-5.76-3.04-5.12-1.12-11.68 0-17.44 5.92z" fill="#0f141b"/>
  </g>
  <g transform="matrix(.85113 0 0 .85113 51.948 50.118)">
   <path d="m0 0c0.64 0 1.6-0.8 2.08-1.92 0.16-0.32-0.64-1.12-0.8-0.8-0.16 0.8-0.8 2.08-1.28 2.08s-0.96-3.68-0.96-4.16l-0.64-0.32c-0.16 2.24 0.48 5.28 1.6 5.12z" fill="#0f141b"/>
  </g>
  <g transform="matrix(.85113 0 0 .85113 55.352 35.001)">
   <path d="m0 0c0 0.32-0.32 0.48-0.64 0.48s-0.64-0.16-0.64-0.48 0.32-0.64 0.64-0.64 0.64 0.32 0.64 0.64z" fill="#fff"/>
  </g>
  <g transform="matrix(.85113 0 0 .85113 77.822 37.317)">
   <path d="m0 0c0 0.48-0.32 0.8-0.64 0.8-0.48 0-0.8-0.32-0.8-0.8 0-0.32 0.32-0.64 0.8-0.64 0.32 0 0.64 0.32 0.64 0.64z" fill="#fff"/>
  </g>
 </g>
</svg>
