<?xml version="1.0" encoding="UTF-8"?>
<svg version="1.1" viewBox="0 0 255.51 314.75" xmlns="http://www.w3.org/2000/svg">
 <g transform="translate(.054545)">
  <path d="m26.05 268.9q2.9 0 5.85 2.2 2.55 1.9 2.55 2.95-0.55 7.55-1.7 8.1l-3.15 1.15-2.9 0.75q-0.75 0-1.9-1.05-1.15-1.15-1.15-2.1 0-0.75 0.15-1.45l-1.45 2.3q-0.95 1.6-0.95 2.2 0 1.05 3.95 4.3l3.55-0.8 2.9-1.25q1.3-0.55 5.25-3.6l4.65-3.95q0.65-0.7 2.6-1.8l1.85-0.95 19.35-3.4q2.2 0 4.95 2.55 3.1 2.9 3.1 6.4 0 3.75-1.8 8.05-1.75 4.15-3.85 5.75-1.45 1.1-6.35 3.05-5.6 2.3-8 3.65-2.5 1.45-9.95 7-7.15 4.85-11.25 4.85-3.85 0-7.2-1-4.7-1.45-6.75-1.75-6.05-0.9-8.85-2.9-2.55-1.85-3.4-5.5-1.7-7.25-0.15-15.05 1.15-5.55 8.65-12.25 7.25-6.45 11.4-6.45" fill="#00568a"/>
  <path d="m33.9 279.35q-0.55 3-1.15 3.25l-3.15 0.95-2.9 0.5q-0.6 0-1.45-0.7-0.95-0.8-1.35-1.65l0.4-1.7 1.35 0.9q1.5 0.85 2.35 0.85 1.1 0 5.9-2.4" fill="#00426f"/>
  <path d="m58.9 295.1q4.6-2.4 6.8-3.35 2.15-0.95 4.85-4.85 2.2-3.2 3-5.45 0 3.75-1.8 8.05-1.75 4.15-3.85 5.75-1.45 1.1-6.35 3.05-5.6 2.3-8 3.65-2.5 1.45-9.95 7-7.15 4.85-11.25 4.85l-5.45-0.55-4.15-1.2 1.2 0.05q5.9 0.65 16.4-5.6 10.1-6.85 11.7-7.75 2.7-1.5 6.85-3.65" fill="#00426f"/>
  <path d="m157.9 281.1-5.9-0.7q-1.3-0.75-3.75-3.7-2.55-3.05-2.55-4.1t3.7-5.3q3.5-4.05 5.65-5.75l17.8 0.05 2.35 0.35 1.95 0.15 4.4 0.2 4.3 0.3q1.3 0.35 4.4 2.35 3.3 2.15 4.55 3.6l2.7 3.6q1.65 2.1 2.55 2.55l5.6 2.15q4.65 1.55 6.1 1.55 1.5 0 2.45-1.1 0.85-1 0.85-2.45 0-1.15-0.6-2l-0.7-0.75q-0.5 1.35-1.5 2.4-1 1.15-1.95 1.15-1.55 0-3.75-2.45-2.15-2.5-2.15-4.25 0-1.25 1.85-2.85 1.9-1.65 3.65-1.65 6.05 0 10.2 3.7 4.3 3.9 4.3 9.85 0 4.2-2.25 8.45-2.35 4.45-5.65 5.65-1.1 0.4-7.35 0.05l-7.9-0.4-6.75 1.1-10.25 1.1q-1.9 0-4.25-1.75-1.65-1.25-3-2.85-0.95-1.15-4.8-3.55-4.05-2.55-6.75-3.55-2.1-0.8-7.55-1.15" fill="#00568a"/>
  <path d="m204.85 270.6 0.25-0.1q0.7 1.05 2.6 1.75l2.3 0.55q0.7 0 3.85-1.6l-0.1 0.95q-0.55 1.4-1.5 2.4-1.05 1.1-1.95 1.1-1.2 0-2.95-1.65-1.7-1.6-2.5-3.4" fill="#00426f"/>
  <path d="m152 280.4q-1.3-0.75-3.75-3.7-2.55-3.05-2.55-4.1 0-0.9 3-4.5-0.35 1.85 0.9 4.75 1.35 3.15 3.15 3.8l6.55 1.2 5.75 0.9q2.25 0.9 6.45 2.9 5.3 2.55 6.2 3.45l3.7 3.2q2.9 2.15 4.7 2.4l7.1-0.9 7.3-1.2 9.95 0.7 9.7-0.35 0.5-0.15q-1.95 2.5-4.15 3.3l-7.35 0.2-7.9-0.3-6.75 1-10.25 0.95q-1.9 0-4.25-1.75-1.65-1.25-3-2.85-0.95-1.15-4.8-3.55-4.05-2.55-6.75-3.55-2.1-0.8-7.55-1.15l-5.9-0.7" fill="#00426f"/>
  <path d="m178.45 187.3q0 10.15-7.95 17.35-7.95 7.15-19.15 7.15-11.25 0-19.15-7.15-7.95-7.2-7.95-17.35t7.95-17.3q7.9-7.15 19.15-7.15 11.2 0 19.15 7.15 7.95 7.2 7.95 17.3" fill="#ee848c"/>
  <path d="m173.15 194.25q4.7-7.4 3.15-15.55l0.55 0.3q1.6 3.95 1.6 8.3 0 10.15-7.95 17.35-7.95 7.15-19.15 7.15-7.35 0-13.7-3.35-6.1-3.25-9.75-8.8 6.6 6.85 15.95 8 8.5 1.05 16.75-2.8 8.15-3.75 12.55-10.6" fill="#ce737b"/>
  <path d="m177.25 187.3q0-9.6-7.6-16.4-7.6-6.85-18.3-6.85t-18.35 6.85q-7.6 6.8-7.6 16.4 0 9.65 7.6 16.45 7.6 6.85 18.35 6.85 10.7 0 18.3-6.85 7.6-6.8 7.6-16.45m-6.15-17.4q8 6.9 8 17.4 0 10.6-8 17.8-8 7.15-19.75 7.15-11.65 0-19.5-7.25-7.8-7.25-7.8-17.95 0-10.55 7.8-17.25 7.7-6.65 19.5-6.65t19.75 6.75" fill="#0d131a"/>
  <path d="m186.55 86.95q9.35 9.35 9.35 22.6t-9.35 22.6-22.55 9.35q-13.25 0-22.6-9.35t-9.35-22.6 9.35-22.6 22.6-9.35q13.2 0 22.55 9.35" fill="#ee848c"/>
  <path d="m162 130.95q10.35-0.4 18.95-5.55 9.7-5.85 15.2-16.9-1 15.2-10.65 24.4-9 8.6-21.5 8.6-10.95 0-19.55-6.65-8.45-6.55-11.25-16.8 3.2 6 11.25 9.6 8.05 3.65 17.55 3.3" fill="#ce737b"/>
  <path d="m185.75 87.8q-9.05-9-21.75-9-12.75 0-21.75 9-9 9.05-9 21.75t9 21.75q9 9 21.75 9 12.7 0 21.75-9 9-9.05 9-21.75t-9-21.75m-21.75-10.85q12.95 0 22.5 9.15 9.95 9.55 9.95 23.45 0 12.55-8.4 22-9.35 10.4-24.05 10.4-13.8 0-23.45-9.35-9.7-9.4-9.7-23.05t9.7-23.15q9.7-9.45 23.45-9.45" fill="#0d131a"/>
  <path d="m59.2 106.45q17.2-20.75 44.05-20.75 27.2 0 46.45 19.25 19.55 19.6 19.55 48.15 0 28.95-18.65 47.15-17.25 16.75-41.05 16.75-30 0-48.7-18.45-17.95-17.75-17.95-44.4 0-28.05 16.3-47.7" fill="#eeeeef"/>
  <path d="m82.1 89.65q9.95-3.95 21.15-3.95 21.3 0 37.65 10.8t23.55 29.6q-8.4 5.95-18.15 9.15-10.15 3.3-20.9 3.3-19.9 0-36.4-10.65-16.1-10.35-24.05-27.5 7.7-7 17.15-10.75" fill="#c8c9ca"/>
  <path d="m164.9 178v0.05q-6.75 18.2-22.55 28.85-14.95 10.1-32.8 10.1-18.8 0-33.75-7.7-14.2-7.3-22.8-20.35 8.85 9 25.1 13.75 15.8 4.65 33.2 3.75 18.2-0.95 32-7.75 15.3-7.55 21.6-20.7" fill="#c8c9ca"/>
  <path d="m43.5 154.15q0 12.5 4.85 23.9 4.7 11.15 13.35 19.65 9 8.9 21.2 13.5 12.15 4.6 26.65 4.6 23.05 0 39.9-16.1 18.6-17.8 18.6-46.6 0-29.25-18.1-47.7-18.1-18.5-46.7-18.5-27.25 0-44.3 21.4-15.45 19.45-15.45 45.85m14.95 43.5q-16.75-17.75-16.75-43.5 0-27.2 15.8-46.5 17.3-21.15 45.75-21.15 30.5 0 49.5 20.9 17.35 19.1 17.35 45.7 0 30.5-20.15 48.65-8.55 7.7-19.55 11.8-10.35 3.9-20.85 3.9-32.35 0-51.1-19.8" fill="#0d131a"/>
  <path d="m102 84.8q0.4 0 0.65 0.25l0.25 0.65-0.25 0.65-0.65 0.25q-23.6 0-38.25 21.5-13.3 19.5-13.3 46.05 0 7.45 1.05 13.75-0.35 0.35-0.35 1.3l-0.1 1.4q-0.85-3.5-1.4-8.05-0.5-4.5-0.5-8.4 0-27.35 13.5-47.25 14.95-22.1 39.35-22.1" fill="#0d131a"/>
  <path d="m114.65 162.55q8.7-7.9 20.55-7.9 9.3 0 15.75 6.75 5.95 6.25 5.95 13.8 0 13.2-9.9 21.3-8.5 7-19.2 7-9.2 0-15.6-7.05-6.15-6.7-6.15-15.65 0-10.4 8.6-18.25" fill="#ee848c"/>
  <path d="m112.2 196.45q-6.15-6.7-6.15-15.65l0.1-1.9q1.15 7.3 7.45 12.3 5.8 4.6 14.05 5.8t15.45-1.55q7.8-2.95 11.65-9.7l0.25 0.35q-3.5 8.35-11.8 13.15-7.35 4.25-15.4 4.25-9.2 0-15.6-7.05" fill="#ce737b"/>
  <path d="m107.25 180.8q0 8.45 5.65 15 6.05 7 14.9 7 10.2 0 18.55-7.05 9.55-8.05 9.55-20.55 0-7.3-5.85-13.35-6.25-6.5-14.85-6.5-11.15 0-19.55 7.65t-8.4 17.8m-1.65 0q0-11.15 8.5-19t20.6-7.85q9.6 0 16.45 6.75 6.45 6.4 6.45 14.5 0 13.55-10 21.85-8.7 7.15-19.8 7.15-9.85 0-16.25-7.25-5.95-6.8-5.95-16.15" fill="#0d131a"/>
  <path d="m67.9 174.4q11.75 0 18.7 6.15 7.15 6.25 7.15 17.05 0 11-7.8 18.55-7.2 7-16.2 7-12.25 0-20.15-7.4-7.55-7.15-7.55-17.65 0-11.95 6.95-17.95 6.55-5.75 18.9-5.75" fill="#ee848c"/>
  <path d="m93.1 203.55q-2 8.8-9.05 14.4-6.6 5.2-14.3 5.2-12.3 0-20.25-7.4-7.7-7.2-7.7-17.65l0.25-3.7q0.4 7.05 7 12.25 6.05 4.8 15.05 6.5 9.05 1.65 16.8-0.6 8.5-2.5 12.2-9" fill="#ce737b"/>
  <path d="m67.9 175.1q-12.05 0-18.45 5.95-6.45 5.9-6.45 17.05 0 10.4 7.65 17.4 7.65 6.95 19.1 6.95 8.55 0 15.5-6.95 7.35-7.4 7.35-17.9 0-10.25-6.7-16.4-6.75-6.1-18-6.1m-20.6 6.05q7.3-8.45 20.6-8.45 12.25 0 19.75 8.1 6.65 7.2 6.65 17.05 0 10.5-7.05 18.2-7.2 7.8-17.5 7.8-12.5 0-20.5-7.15-8.05-7.2-8.05-18.6 0-9.9 6.1-16.95" fill="#0d131a"/>
  <path d="m227.05 111.1-2.65 8.8q-2.05 6.75-2.75 9.65-0.65 2.8-0.1 9.25 0.5 6.2 0.2 7.05-1.3 4.2-3.55 9.35l-2.85 6.6q-2.35 4.8-4.1 6.55-1.9 1.9-5.2 1.7-2.75-0.15-4.3-1.3l-4-4.75q-3.85-4.65-7.6-7.6l-9.05-6.85q-5.05-3.95-7.9-7.4-2.25-2.65-1.8-6.95 0.4-4.15 2.85-5.95 2.75-2 6.4-0.75 3.4 1.2 4.9 4.05 2.1 4.05 5.65 8.75 4.95 6.65 10.15 10.6l0.05-4.35q0.35-4.85 1.7-7.25 1.3-2.3 4.6-4l3.55-1.6q0.3-0.25 1.5-7 1.55-8.45 2.95-13.7 1.8-6.45 7.05-6.45 2 0 3.35 1.05 1.35 1.1 0.95 2.5" fill="#f7c6bd"/>
  <path d="m173.2 142.15q-1.2-1.45-1.65-3.6-0.4-2.05-0.05-4.2l0.25-0.2q3.2 4 13 12.45l10.85 9.3 5.4 6.7q4.7 4.75 10.4 3.85l1.4-0.1-1.55 2q-1.85 1.85-5.2 1.6-2.7-0.25-4.3-1.45l-4.1-4.6q-4-4.55-7.75-7.5l-8.9-6.85q-4.9-3.9-7.8-7.4" fill="#d5aba4"/>
  <path d="m225.5 109.7q-0.55-0.6-1.6-0.85-1.2-0.3-2.45 0-3.4 0.95-4.6 5.45-1.25 4.55-3.3 13.8l-1.4 6.35q-0.35 1.65-0.85 1.7-4.8 0.8-7.25 5.35-2.55 4.7-2.25 13.05 0.05 1.25-0.4 0.85t-0.75-3.05q-5.35-4.25-10.55-10.9-3.85-4.9-5.6-8.35-0.7-1.35-2.1-2.4-1.45-1.1-3.05-1.5-2.6-0.55-4.4 0.75-1.85 1.4-2.35 4.95-0.5 4.1 1.5 6.5 2.3 2.7 5.6 5.55l6.4 5 4.55 3.5q4.15 3.25 9.6 10 1.65 2.2 2.25 2.6 1.1 0.9 3.55 0.95 2.85 0 4.35-1.5 2.25-2.25 6.3-11.75l0.4-1q2.2-5.15 2.8-7.25 0.9-3.35 0.75-7.2-0.35-8.05 0.35-11.05 1.6-6.5 4.9-18.45 0.15-0.55-0.4-1.1m-1.15-3.2q1.75 0.4 2.85 1.5 0.65 0.65 0.6 1.55l-0.35 1.7-2.2 8.35-2.45 9.05q-1.05 3.5-0.75 7.95l0.4 7.35q-0.1 3.1-4.2 12.6-4.1 9.55-6.35 11.85-2.2 2.2-5.5 2.1-2.8-0.05-4.65-1.5-1.9-1.45-5.05-5.1-3.5-4.15-6.55-6.75l-9.6-7.55q-6-4.7-8.1-7.2-2.55-3.05-1.75-7.45 0.75-4.15 3.55-6.2 2.85-2.05 6.35-0.95 3.55 1.1 5.45 4.75 1.35 2.7 5.3 7.8 4.75 6.15 9.35 10.45-0.45-6.85 1.4-10.15 2.05-3.65 8.6-6.25l1.85-9.3q1.85-9.65 2.6-12.3 0.9-3.4 2.7-4.9 1.05-0.85 3-1.35 1.75-0.45 3.5-0.05" fill="#0d131a"/>
  <path d="m244.25 64.2q2.75 0 4.35 1.25 1.8 1.4 1.8 4.2 0 3.3-3.35 8.3-3.75 5.55-4.3 8.4-0.45 2.25-0.2 2.1l0.95-1.4q0.95-1.4 2.35-2.45 2.1-1.55 4.4-1.55 3.85 0 4.4 5.2 0.6 5.15-2.7 8.4-1.8 1.8-4.9 2.1l-3.6 0.4q-0.85 0.5-2.7 3.55l-3.35 5.65q-1.6 2.7-3.9 4.6-2.35 1.95-4.15 1.95-1.25 0-3.35-0.9t-2.95-0.9l-4.8 1.4q-4.35 1.35-7.6 1.35-2.4 0-4.5-1.9-1.95-1.85-4.35-6-0.3-0.55-2.7-0.4h-3.7q-1.5-0.3-2.6-2-1.2-1.8-1.2-4.2 0-4.8 4.7-6.85 4.45-1.85 8.45 0.15 0.8 0.4 3 0 0.1-3.25-0.35-7.7-0.45-4.65-1.1-6.75-0.4-1.25-2.95-4-2.5-2.6-3-4.6-0.7-2.8 0.25-4.95 1-2.2 3.6-3.1 2.7-0.9 5.15 0.05 2.45 1 3.3 3.55 0.75 2.1 0.65 6.4l-0.3 5.7q0 2 1.05 4 1.1 2.15 2.4 2.15 1.35 0 3.15-3.5 1.8-3.45 1.8-5.7 0-1.3-0.85-4.7t-0.85-5.7q0-3.1 1.95-5 1.9-1.85 4.8-1.85 7.3 0 7.3 5.8 0 2.4-3.15 8.05-3.2 5.65-3.2 7.65 0 1.35 1.1 2.7 1.15 1.45 2.55 1.45 1.3 0 3.6-2.55l2.85-3.75q0.55-0.95 0.4-3.8l-0.25-5q0-1.85 2.1-3.55 2.1-1.75 4.5-1.75" fill="#eeeeef"/>
  <path d="m241.1 102.4q-1.75 2.5-3.7 5.95-1.6 2.7-3.9 4.6-2.35 1.95-4.15 1.95-1.25 0-3.35-0.9t-2.95-0.9l-4.8 1.4q-4.35 1.35-7.6 1.35-4.05 0-7.9-5.6 1.95 1.25 5 1.7l4.35 0.1q0.7-0.1 5.1-2.8 4.1-2.5 6.15-2.5 1.9 0 4.35 1.55t3.55 1.55q4.85 0 8.6-6.25 0.55-0.95 1.25-1.2" fill="#c8c9ca"/>
  <path d="m248.15 66q-1.6-1.35-3.9-1.35-4.3 0-5.4 4.85-0.25 1.1-0.3 4.65 0 3.25-0.5 4.5-0.65 1.55-2.6 3.8-2.5 2.85-4.4 2.85t-3.15-1.55q-1.2-1.45-1.2-3.3 0-1.55 1-3.75 0.55-1.3 2.2-4.25l2.15-4.1q1-2.2 1-3.6 0-2.7-2.15-4.15-1.8-1.2-4.45-1.2-2.4 0-4.2 1.95-1.85 1.9-1.85 4.45 0 2.2 0.8 5.7 0.65 2.8 0.65 4.3 0 2.6-1.5 6.15-1.75 4.15-3.9 4.15-1.85 0-3.05-2.2-1.05-1.95-1.05-4.65l0.1-2.45q0.5-6.65-0.4-9.25-0.7-2.1-2.95-3.1t-4.5-0.25q-2.15 0.7-3.15 2.75-1 2-0.4 4.35 0.45 1.9 3 4.55 2.45 2.75 2.9 4.2 0.7 2.3 1.15 6.95 0.45 4.35 0.35 7.7-0.1 0.95-0.95 1.1-1.2 0.35-2.75-0.45-2.4-1.2-4.8-1.05-3.55 0.2-5.5 2.4-1.7 1.95-1.7 4.65 0 5.05 2.85 5.7l3.35-0.25q3-0.2 3.4 0.55 4.45 7.75 8.3 7.75l6.65-1.15 5.75-1.2q1.3 0 3.65 0.75l2.65 0.7q3.7 0 8.05-7 5.05-8.3 5.45-8.55 0.4-0.35 2.35-0.65l2.95-0.3q1.95-0.35 3.05-1.5 1.8-1.8 2.45-4.9 0.6-2.95-0.25-4.9-1.2-3-3.95-2.6-2.85 0.35-5.95 4.1-2.05 2.5-1.45-0.95 0.7-4.2 4.4-9.1 3.35-4.4 3.35-8.2 0-2.25-1.65-3.65m-4-2.45q2.95 0 5 1.95 2.05 1.9 2.05 4.5 0 3.6-3.25 7.95-3.6 4.8-4.05 7-0.3 1.3 0.5 0.15 2-3 6.3-2.65 4.8 0.4 4.75 7-0.1 4.6-3.15 7.65-1.35 1.35-4.6 1.85l-3.95 0.7q-1.05 0.6-2.55 3.3l-2.85 5.35q-4.15 7.25-8.85 7.25-1.35 0-3.55-0.75l-2.9-0.8q-1.3 0-5.75 1.4-4.4 1.4-6.65 1.4-2.65 0-4.95-2.25-1.95-1.9-4.6-6.45l-3.15 0.25-2.8 0.35q-1.75-0.35-2.9-2.5-1.1-2.1-1.1-5.05 0-4.45 3.9-6.9 2.05-1.3 4.85-1.3 2.75-0.05 5.1 1.1l1.65 0.25q0.6-0.2 0.55-0.85-0.7-10.85-1.4-13-0.5-1.55-3.05-4.05-2.6-2.55-3.1-4.4-0.65-2.25 0.2-4.75 1.05-3.05 4-4 4.65-1.55 7.55 1.05 3.35 2.95 2.45 10.3-0.7 5.65 0.65 8.3 0.85 1.65 1.9 1.65 1.45 0 2.9-3.45 1.35-3.2 1.35-5.6l-0.85-4.6q-0.9-4.15-0.9-5.5 0-2.55 2.2-4.7 2.4-2.4 5.9-2.4 3.55 0 5.6 1.8 1.95 1.75 1.95 4.7 0 1.95-2.95 7.5-3 5.8-3.25 8.15-0.15 1.75 0.75 2.6 0.75 0.7 1.95 0.7 1.25 0 2.75-1.4 1.7-1.55 2.85-4.15 0.6-1.25 0.6-4.8-0.05-3.9 0.6-5.9 0.5-1.5 2.2-2.65 1.85-1.3 4.1-1.3" fill="#0d131a"/>
  <path d="m207.1 66.2q1.4 0 2.4 1.05 0.9 1.05 0.9 2.4 0 1.7-1 3.05-1.05 1.4-2.4 1.4-1.7 0-2.6-1.2-0.85-1.05-0.85-2.75 0-1.55 1.15-2.75 1.1-1.2 2.4-1.2" fill="#ee848c"/>
  <path d="m207.1 67.1q-0.95 0-1.75 0.9-0.9 0.95-0.9 2.15 0 3.05 2.55 3.05 1 0 1.75-1.1 0.75-1.05 0.75-2.45 0-1-0.65-1.75-0.7-0.8-1.75-0.8m-2.75 0.05q1.2-1.35 2.75-1.35 1.6 0 2.7 1.15t1.1 2.75q0 1.9-1.2 3.4-1.15 1.45-2.7 1.45-1.8 0-2.85-1.2t-1.05-3.2q0-1.7 1.25-3" fill="#0d131a"/>
  <path d="m227.1 62q1.3 0 2.45 1 1.1 0.95 1.1 2.05 0 1.8-1.3 3.3-1.2 1.3-2.35 1.3-1.5 0-2.5-1.05-1.05-1-1.05-2.4 0-1.6 1.2-2.9 1.15-1.3 2.45-1.3" fill="#ee848c"/>
  <path d="m229.8 65.05q0-0.7-0.85-1.4-0.9-0.75-1.85-0.75-0.85 0-1.75 1-1 1.05-1 2.3 0 1.05 0.8 1.8 0.75 0.75 1.85 0.75 0.75 0 1.7-1 1.1-1.2 1.1-2.7m0.1-2.4q1.25 1.15 1.25 2.45 0 2.05-1.45 3.55-1.3 1.4-2.7 1.4-1.65 0-2.8-1.15-1.2-1.1-1.2-2.7 0-1.8 1.35-3.25 1.3-1.4 2.75-1.4 1.5 0 2.8 1.1" fill="#0d131a"/>
  <path d="m243.45 75.15q-1.3 0-2.05-1.15-0.7-1-0.7-2.4 0-1.35 1.1-2.45 1.15-1.2 2.85-1.2 1.4 0 2.3 1.4 0.85 1.35 0.45 2.65-0.9 3.15-3.95 3.15" fill="#ee848c"/>
  <path d="m243.45 74.25q2.35 0 3.1-2.5 0.25-1.05-0.5-2.15-0.65-0.8-1.4-0.8-1.4 0-2.3 0.95-0.8 0.85-0.8 1.85t0.45 1.75q0.5 0.9 1.45 0.9m1.1-6.55q1.45 0 2.45 1.3 1.15 1.5 0.65 3.15-0.95 3.25-4.1 3.25-1.5 0-2.35-1.2-0.8-1.05-0.8-2.6 0-1.5 1.15-2.65 1.2-1.25 3-1.25" fill="#0d131a"/>
  <path d="m249.9 87.4q0.95 0 1.65 1.2 0.7 1.1 0.7 2.35t-0.8 2.05q-0.9 0.85-2.5 0.85-2.5 0-2.5-3 0-1.1 1.05-2.25 1.1-1.2 2.4-1.2" fill="#ee848c"/>
  <path d="m250.85 89.15q-0.5-0.85-0.95-0.85-0.95 0-1.8 0.95-0.75 0.9-0.75 1.6 0 2.1 1.6 2.1 2.4 0 2.4-2 0-0.9-0.5-1.8m-1.05-2.05q1.2 0 2.05 1.3 0.75 1.15 0.75 2.5t-0.85 2.25q-0.95 1-2.7 1-1.4 0-2.15-0.9-0.8-0.85-0.8-2.45 0-1.2 1.05-2.4 1.2-1.3 2.65-1.3" fill="#0d131a"/>
  <path d="m199.75 96.5q1.45 0 2.3 1.45 0.7 1.25 0.7 3 0 1.5-1.1 2.65-1.05 1.05-2.3 1.05-1.2 0-2.05-1.05t-0.85-2.65q0-2.1 1.05-3.35 0.95-1.1 2.25-1.1" fill="#ee848c"/>
  <path d="m201.4 98.65q-0.6-1.25-1.65-1.25-0.95 0-1.65 0.9-0.75 1-0.75 2.65 0 1.2 0.55 2 0.6 0.8 1.45 0.8 0.9 0 1.7-0.8 0.8-0.9 0.8-2 0-1.3-0.45-2.3m-4.15-1.15q1.05-1.2 2.45-1.2 1.65 0 2.6 1.5 0.8 1.25 0.8 3.1 0 1.65-1.2 2.8-1.1 1.15-2.5 1.15t-2.3-1.15q-0.95-1.15-0.95-2.8 0-2.15 1.1-3.4" fill="#0d131a"/>
  <path d="m66.95 204.8q2.6 2 2.6 4.1 0 2.5-1.35 5l-3.75 5.25-5.45 7.6q-2.95 4.3-3.75 5.7-0.7 1.2-3.55 1.9-2.9 0.7-4.9 0.1-2.3-0.7-3.45-1.95-1.35-1.55-0.2-3.2l7.9-10.65 2.45-4.65 1.5-3.8 0.4-2.45q0.3-1.55 0.65-2.15 0.45-0.8 2.1-1.75 1.85-1.1 3.35-1.1 2.85 0 5.45 2.05" fill="#f7c6bd"/>
  <path d="m68.35 206.1q1.2 1.45 1.2 2.8 0 2.5-1.35 5l-3.75 5.25-5.45 7.6q-2.95 4.3-3.75 5.7-0.45 0.75-1.95 1.4l-3.2 0.75 10.5-15.8q6.1-9.4 7.75-12.7" fill="#d5aba4"/>
  <path d="m63.5 218.45q2.8-3.55 3.6-5.05 1.25-2.25 1.25-4.5 0-1.55-2.2-3.2-2.3-1.75-4.65-1.75-1.2 0-2.75 0.95-1.35 0.8-1.65 1.3l-0.75 3.05-0.2 1.2q-0.2 1.15-1.6 4.05l-2.5 4.8-5.3 7.25-2.65 3.45q-0.4 0.55-0.25 1.05 0.5 1.4 3.3 2.25l4.2-0.1q2.4-0.55 2.85-1.35l3.8-5.7 5.5-7.7m-2-16.15q3.3 0 6.05 2.1 2.7 2.15 2.7 4.75 0 2.7-1.6 5.25l-4 5.25q-2.1 2.65-5.5 7.65l-3.9 5.85q-0.95 1.6-3.75 2.35-2.75 0.75-5 0.1-4.05-1.3-4.9-3.75-0.2-0.55 0.05-1.05l0.95-1.5 8.15-11.2q2.85-3.8 3.35-7.45 0.55-4.05 1.15-5.05 0.6-1.1 2.45-2.15 2-1.15 3.8-1.15" fill="#0d131a"/>
  <path d="m43.45 239.3 7.6-0.55q3.75 0.45 4.35 2.3 2.35 7.15 5.05 10.9 2.95 4.05 4.8 9.1 2.65 7.1-0.55 13.55-2.5 5.15-6.55 6.95-2.9 1.3-6.55 0.05-3.45-1.25-4.4-3.45-10.35-24.7-12.6-31.45-0.85-2.5 2-4.6 2.45-1.85 6.85-2.8" fill="#f7c6bd"/>
  <path d="m53.8 247.15q-0.85-1.55-3-2.15l-1.95-0.3 6.95-2.5q2.15 6.25 4.8 9.9 2.75 3.85 4.65 8.95 1.8 4.85 0.85 9.5-0.8 3.85-3.3 7.1l0.1-0.3q1.85-3.25-1-12.2-2.65-8.35-8.1-18" fill="#d5aba4"/>
  <path d="m54.25 241.4q-0.35-0.9-2.4-1.3l-8.4 0.4q-5.15 1.2-7.1 3.4-1.05 1.15-0.65 2.4l6.5 16.6 6.1 14.8q0.75 1.6 3.45 2.65l5.9 0.15q6.95-3.15 7.65-10.95 0.75-7.95-5.5-16.5l-2.4-3.85q-1.55-2.9-3.15-7.8m-11.5-3.2q5.5-1.3 9.55-0.45 1.9 0.35 2.85 1.4 0.5 0.6 0.85 1.75 2.85 8.6 5.3 11.85 6.95 9.1 5.65 17.95-1.15 8.2-8.3 11.45l-6.65 0.25q-3.8-1.1-4.9-3.65-11.2-25.85-13.15-31.7-0.95-2.9 0.6-4.75 2.45-2.7 8.2-4.1" fill="#0d131a"/>
  <path d="m46.45 246.95q-4.5 4-10.2 1.7-5.9-2.35-5.9-8.8 0-5.1 3.25-8.1 3.55-3.35 10.45-3.35 6.3 0 10.65 2.5t4.35 6.05q0 1.65-1.5 3.9l-1.5 1.9-2.65 0.15q-3.35 0.85-6.95 4.05" fill="#eeeeef"/>
  <path d="m46.25 243.25 5.45-2.55 3.65-0.65q2.4-0.4 2.9-1.2 0.15-0.25 0.5-0.25-0.8 2.15-2.7 4.15l-2.65 0.15q-3.35 0.85-6.95 4.05-4.5 4-10.2 1.7-5.85-2.35-5.9-8.7 0.05 2.05 3.35 3.8 3.05 1.65 5.85 1.65 2.05 0 6.7-2.15" fill="#c8c9ca"/>
  <g fill="#0d131a">
   <path d="m55.55 241.5q2.3-2.7 2.3-4.55 0-3.05-4.05-5.2-4-2.15-9.75-2.15-6.05 0-9.25 2.65-3.25 2.65-3.25 7.6 0 2.55 1.25 4.55 1.25 1.95 3.55 3 2.35 1.05 4.9 0.7 2.5-0.4 4.4-2.05 5.25-4.7 9.9-4.55m4.2-4.55q0 2.75-3.1 5.85-0.5 0.5-1.1 0.35l-2.5 0.25q-3.1 0.85-6.35 3.7-5.35 4.8-11.1 2.2-2.85-1.3-4.4-3.85t-1.55-5.85q0-5.3 3.65-8.4 3.85-3.25 10.75-3.25 6.65 0 11.35 2.9 4.35 2.7 4.35 6.1"/>
   <path d="m26.05 268.45q2.65 0 6 2.1 3.2 2 3.2 3.4 0 2.4-0.7 5.35-0.8 3.2-1.7 3.6l-3.15 1.15-3 0.7q-1.25 0-2.65-1.4-1.5-1.5-1.5-2.9 0-2.9 1.55-4.75 1.4-1.65 3.35-1.65 1.25 0 2.15 0.95t0.9 2.2q0 0.55-0.65 0.65-0.7 0.1-1-0.6-0.9-1.9-2.4-0.8-1.6 1.2-1.6 4.45 0 0.4 0.75 1.15 0.7 0.75 1.15 0.8l2.45-0.45 2.85-0.8q0.45-0.65 0.85-3.6l0.35-3.8q-0.4-1.05-2.4-2.55-2.5-1.8-4.8-1.8-3.7 0-10.6 6.25-7.2 6.55-8.25 11.8-1.6 7.3 0.1 14.45 0.8 3.2 2.9 4.75 2.5 1.9 8.35 2.8 2.7 0.35 5.9 1.4l3.35 0.95 4.55 0.4q2.9 0 7.5-2.65 2.75-1.65 7.75-5.4 4.2-3 5.35-3.65 2.1-1.2 7.9-3.65 5.05-2.05 6.3-3 1.85-1.4 3.5-5.25 1.7-4.05 1.7-7.6 0-3.05-2.8-5.6-2.4-2.15-4.05-2.15-0.45 0-0.05-0.7l0.6-0.7q2.9 0.4 5.45 2.7 3 2.75 3 6.45 0 3.95-1.75 8.3-1.75 4.4-4.15 6.2-0.95 0.7-3.1 1.5l-4 1.5q-5.15 2.05-7.65 3.5-2 1.2-5.1 3.55l-8.15 5.8q-4.85 2.95-8.25 2.95l-5-0.55-3.65-1.1q-3.1-1-5.5-1.35-6.35-1-9.1-2.85-2.9-1.9-3.85-6-1.1-4.75-0.65-9.65 0.15-1.35 1-5.6 1.2-5.95 8.55-12.65 7.15-6.55 11.9-6.55"/>
   <path d="m23.15 278.5q0.2-0.35 0.8 0.85l0.5 1.3q-1.7 2.55-1.8 3.25 0.15 0.5 3.15 3.25l5.2 4.75q1.8 1.6 1.4 1.85-0.35 0.2-2.2-0.95l-5.85-4.45q-3.9-3.35-3.9-4.4 0-0.6 1.35-3.1l1.35-2.35"/>
   <path d="m37.8 283.5q-4.1 3.15-5.5 3.75-4.05 1.85-6.15 2.1-0.35 0.05-0.85-0.85-0.55-0.85-0.1-0.9 2.15-0.1 6.45-2 1.1-0.45 4.8-3.55l4.35-3.9q0.75-0.85 2.85-1.75l2.25-0.85q0.45-0.2 0.85 0.5 0.35 0.75-0.1 0.95-3.1 1.4-4.05 2.45l-4.8 4.05"/>
  </g>
  <path d="m164.75 201.35q2.5-1.8 4.95-2.65 2.6-0.9 3.35-0.05l7.9 9.3q6.75 8.15 10.15 12.65 1.8 2.4 0.95 4.45-0.7 1.8-3.1 2.8-2.3 0.95-4.6 0.55-2.5-0.35-3.5-2.1-2.05-3.55-8.8-9.95-6.55-6.2-10.3-8.35-3.5-2.05 3-6.65" fill="#f7c6bd"/>
  <path d="m161.75 208q-1.75-1.05-0.6-3.1 1-1.75 3.75-3.7h0.5q-1.25 2.95 3.5 7.7 2.5 2.45 15.8 17.2l0.1 2.35q-2.9-0.25-3.95-2.15-2.05-3.55-8.8-9.95-6.55-6.2-10.3-8.35" fill="#d5aba4"/>
  <path d="m162.35 206.95q4 2.3 10.6 8.6 6.85 6.5 8.9 10.15 1.05 1.7 3.95 1.6l3.15-0.75q1.4-0.75 1.95-1.8l0.2-1q0-1.15-0.95-2.4-3.35-4.5-10.1-12.6l-7.85-9.3q-1-0.45-4.8 1.65-4.05 2.25-5.25 4.5-0.35 0.65-0.25 0.95l0.45 0.4m-1.7 0.95q-0.6-0.6-0.5-1.45 0.25-2.3 3.65-4.9 2.85-2.15 5.8-3.1 1.9-0.6 2.4-0.65 0.9-0.05 1.45 0.55 1.65 1.85 7.7 9.45l9.95 12.8 1.9 3.1q0.5 1.15 0.05 2.1-0.9 1.8-3.05 2.85-1.9 0.95-4.1 1.05-1.9 0.05-3.55-1.05-1.4-0.95-2.3-2.5-1.95-3.4-8.7-9.7-6.15-5.7-9.2-7.5l-1.5-1.05" fill="#0d131a"/>
  <path d="m157.7 266.3q-2.55-2.85-2.65-3.8-0.2-1.2 1.15-4.35 0.4-0.85 0.35-6.8-0.05-5.8 0.85-7.55 0.85-1.7 9.8-5.95 9.8-4.65 11.5-6.15 2.2-1.95 10.65-1.45 8.8 0.5 7.85 4.45-0.85 3.4-8.4 9.15-9.15 6.95-10.6 8.75-5.95 7.3-7.2 10.8-0.75 2.05-4 4.1-3.1 1.95-5 1.95-1.55 0-4.3-3.15" fill="#f7c6bd"/>
  <path d="m197.7 234.7q-0.8 3.4-8.65 9.15-9.35 6.9-10.85 8.75-3.25 4.05-5.4 8.4l-0.7 0.2 0.65-3.35q0.95-3.95 2.5-6.8 1.5-2.85 6-6.45l6.3-4.8q1.75-1.55 1.25-3.65l-0.85-1.85 9.7-0.95q0.2 0.7 0.05 1.35" fill="#d5aba4"/>
  <path d="m155.75 257.7q0.5-1.75 0.25-7.65-0.25-5.4 0.35-6.4 1.25-2 9.1-5.6 9.75-4.55 11.95-6 1.9-1.75 8.85-2.45 7.4-0.75 10.6 1.2 1.45 0.85 1.55 2.25l-0.3 1.95q-0.5 2.6-9.1 9.3-9.5 7.4-10.45 8.75l-4.1 6.05q-2 3-2.65 4.8-0.85 2.4-4.35 4.2-3.05 1.55-5.4 1.55-2.1 0-4.9-2.95-2.45-2.65-2.65-4-0.1-0.7 0.3-1.95l0.95-3.05m2-7v3.45q0 3.5-0.45 4.45-1.1 2.55-1.1 3.5v0.15q0.45 1.15 2.55 3.5 2.3 2.5 3.25 2.5 1.7 0 4.8-1.8 3.25-1.85 3.8-3.45 0.85-2.25 2.75-5.45t3.9-5.7q2-2.4 8.7-7.2l6.7-5.2q3.35-3 3.85-5.05 0.3-0.85-0.85-1.55-2.65-1.6-9.35-1.45-6.2 0.15-7.3 1.15-2 1.75-10.1 5.65-9.75 4.75-10.45 6.1-0.7 1.45-0.7 6.4" fill="#0d131a"/>
  <path d="m186.1 221.8q3.15-1.8 3.15-3.3 0-0.7-1.15-2.1l-1.2-1.2 0.65-0.75q0.95-0.8 2.35-0.8 5.1 0 9.3 5.1 3.9 4.8 3.9 9.75 0 3.4-2.55 5.55-2.5 2.1-6.3 2.1l-2.95-0.75-3.35-1.1-3.6-0.1-5.25-0.3q-2.55-0.45-4.05-2-1.2-1.3-1.2-2.45 0-1.05 1.65-3 1.9-2.25 3.75-2.4 3.55-0.3 6.85-2.25" fill="#eeeeef"/>
  <path d="m202.55 225.4v-0.15q0.55 1.75 0.55 3.25 0 3.4-2.55 5.55-2.5 2.1-6.3 2.1l-2.95-0.75-3.35-1.1-3.6-0.1-5.25-0.3q-3-0.5-4.5-2.6l0.3-0.1 4.55 0.5 5.45 0.05 6.35 0.55q4.45 0.55 5.75-0.05 1.8-0.8 3.65-3.05 1.9-2.25 1.9-3.8" fill="#c8c9ca"/>
  <g fill="#0d131a">
   <path d="m189.3 217q0.7 1.25 0.7 2.05 0 1.85-4.15 4-3.75 1.95-6.5 2.2-3.85 0.35-4.15 3.5-0.35 3.2 4.1 4l4.9 0.25 4 0.15 2.15 0.9q2.45 0.9 3.9 0.9 3.4 0 5.5-1.8 2.15-1.8 2.15-4.65 0-4.45-3.5-9.15-3.85-5.1-8.5-5.1-1.35 0-1.95 0.85l1.35 1.9m-2.7-3q1.4-1.3 3.3-1.3 3.3 0 6.55 2.65 3.05 2.45 5 6.25t1.95 7.35q0 3.85-2.45 5.95-2.55 2.25-7.2 1.5-2.05-0.35-6.2-1.85l-7.45-0.3q-6.4-0.75-6.4-4.8 0-1.75 1.25-3.3 1.55-2 4.3-2.25 3.1-0.3 6.2-2.1 2.7-1.6 2.85-2.55l-0.8-1.4-1.4-1.75q-0.9-0.8 0.5-2.1"/>
   <path d="m186 262.15q1.65 0.45 4.75 2.3 3.4 2 4.7 3.6l1.6 2.05q2.95 4 3.55 4.3 1.25 0.7 5.45 2.05 4.4 1.45 5.65 1.45 2.3 0 2.65-2.65 0.35-2.4-0.6-3.15-0.4-0.25 0-0.7t0.8-0.15l0.9 0.95q0.8 1.15 0.8 2.65 0 2.05-1.3 3.4t-3.2 1.35q-1.65 0-6.5-1.6l-5.8-2.25q-1.2-0.65-4.05-4.45l-1.55-2q-1.05-1.35-4.25-3.35-2.9-1.9-4.05-2.2l-4.7-0.25-3.9-0.25-4.4-0.95q-0.45-0.15-0.25-0.8 0.15-0.7 0.65-0.55l4.3 0.75 3.65 0.1 5.1 0.35"/>
   <path d="m155.05 261.1q0.4-0.2 0.65 0.5 0.3 0.7 0.05 0.9-3 2.25-5.85 5.45-3 3.35-3 4.7 0 1 2.3 3.6 2.15 2.35 3.4 3.1l5.95 0.65 7.3 1.1q2.9 1.15 7.05 3.7 4 2.55 5.05 3.8l2.7 2.6q2.1 1.55 3.6 1.55l9.8-0.85 7.2-0.85q13.65 0.35 14.85-0.1 2.9-1 5.05-5.2 2.05-3.95 2.05-7.75 0-5.4-3.85-9.1-3.85-3.75-9.45-3.75-1.25 0-2.8 1.6-1.5 1.45-1.5 2.2 0 1.3 1.85 3.45 1.85 2.05 2.85 2.05t2.05-1.2q1.1-1.25 1.1-2.75 0-0.95-1.05-1.65-1.1-0.75-2.25-0.25l-1.1-0.05q-0.15-0.4 0.45-0.85l3.55-0.1q2.3 0.95 2.3 2.9 0 1.85-1.55 3.7-1.65 1.9-3.5 1.9-2.1 0-4.25-2.55-2.1-2.45-2.1-4.6 0-1.7 1.9-3.4 2.05-1.8 4.3-1.8 5.45 0 10 3.9 4.95 4.3 4.95 10.35 0 4.1-2.4 8.8-2.6 5-5.8 6.15-0.85 0.3-6.2 0.05l-9.25-0.35-8.9 1-8.3 1q-2.45 0-5.4-2.35-1.65-1.3-2.75-2.7-0.9-1.05-4.35-3.35-3.8-2.5-6.35-3.45-1.95-0.75-7.3-0.85-5-0.1-6.7-1.05-1.85-1-4.45-4.15-2.5-3.05-2.5-4.15 0-1.7 3.8-5.8 3.75-4.05 6.8-5.7"/>
  </g>
  <path d="m217.2 33.75q0 2.55-0.2 3.35-0.25 1.2-1.15 1.2-0.8 0-4.55-3.4l-3.55-3.4 0.45-2.4-2.7 7.5q-2.3 5.5-3.35 5.65-0.8 0.15-2.45-1.3-1.5-1.3-2-1.05-0.4 0.2-5.5 14.7-5.15 14.75-6.65 16.1-2.3 2.05-3.3 2.55l-3.2 0.15-8.5-4.8-21.05-8.45 4.75-25q1.4-3.3 3.05-5.75 2.05-3.1 4.05-4 2.8-1.25 8.55-1.9 5.2-0.55 7.5-2.05 1.35-0.85 4.35-4.4l5.85-6.8q8.15-9.05 13.5-9.05 8.95 0 16.1 32.55" fill="#00568a"/>
  <path d="m208.4 28.3 3 3.15q3.2 3.8 4.45 6.85-0.8 0-4.45-3.8l-3.45-3.85 0.25-1.55-2.7 7.5q-2.3 5.5-3.35 5.65-0.8 0.15-2.45-1.3l8.7-12.65" fill="#00426f"/>
  <path d="m196.75 42.05q-1.35 3.45-4.55 12.55-5.15 14.75-6.65 16.1-2.3 2.05-3.3 2.55l-3.2 0.15-8.5-4.8-12.35-4.95 11.95-0.9 6.5 0.3q4.25 2.95 13.5-10.55l5.8-9.2 0.8-1.25q0.8-2.1 0.95-2.15 0.2-0.15 0.6 0-0.35 0.25-1.55 2.15" fill="#00426f"/>
  <path d="m191 93.75q0 17.6-16.7 26.55-18.3 9.85-57.35 9.85-21.05 0-32.65-11-10.9-10.3-10.9-27.5 0-26.5 18.95-43.85 17.7-16.15 41.45-16.15 19.35 0 30.8 10.25 11.9 10.6 14.25 31.5l1.9 1.45q2.25 1.9 4.2 4.15 6.05 7.1 6.05 14.75" fill="#f7c6bd"/>
  <path d="m101.55 70.6q-5.75 7.8-6.3 18.15-0.55 10.05 3.95 19.3 4.7 9.6 13.45 15.3 9.65 6.25 22.2 6.25l4.5 0.05-22.4 0.75q-21 0-32.65-11.1-10.9-10.45-10.9-27.65 0-15.9 7.3-29.1 6.75-12.25 18.65-20.25l2.2 28.3" fill="#d5aba4"/>
  <path d="m189.8 93.75q0-7.15-5.65-13.95l-5.75-5.4q-0.4-0.3-0.5-0.85-2.2-20-13.45-30.35-11.2-10.35-30.65-10.35-23.25 0-40.5 15.6-18.7 16.9-18.7 43.2 0 17.45 11.4 27.65 11.4 10.15 30.95 10.15 36.75 0 54.8-8.85t18.05-26.85m-10.4-20.5q4.15 3 6.95 6.5 5.25 6.6 5.25 14 0 19.65-19.3 28.65-18.05 8.4-55.35 8.4-20.1 0-32.35-10.45-12.4-10.6-12.4-28.45 0-27.35 19.45-44.85 17.9-16.15 42.15-16.15 20.4 0 32 10.7 11.65 10.8 13.6 31.65" fill="#0d131a"/>
  <path d="m88.75 29.65q9.5 0.1 13.1 2.7 6.7 4.75 7.15 14.9 0.45 10.25-5.75 20.2-5.2 8.35-15.7 13.9-10.5 5.6-15.45 2.75-4.6-2.55-8.8-13.2l-2.95-7.2q-1.6-3.35-3.25-4.05-1.5-0.65-6.85 1.8-5.5 2.45-8.15 1.6-2.45-0.75-4.95-5.4-2.4-4.45-4.3-4.85-5.2-1.05-18.5 13.15l-8.75 9.65q-3.9 4.25-4.5 3.8-1.3-1 2.35-11.45 3.95-11.2 10.15-22.8 17.3-32.45 33.15-32.45 5.05 0 12.05 4.9 10.7 7.5 13.9 9.1 5.7 2.85 16.05 2.95" fill="#00568a"/>
  <path d="m95.1 68.35q6.1-2.2 11.05-6.5l-2.9 5.6q-5.2 8.35-15.7 13.9-10.5 5.6-15.45 2.75-4.6-2.55-8.8-13.2l-2.95-7.2q-1.6-3.35-3.25-4.05-1.5-0.65-6.85 1.8-5.5 2.45-8.15 1.6-2.45-0.75-4.95-5.4-2.4-4.45-4.3-4.85-5.05-1-17.4 11.95l-8.6 9.45q-4.15 4.6-5.25 5.1l-0.45-0.55q8.5-14.1 17.45-24 9-9.95 13.35-9.95 3.25 0 7.15 6.05 3.85 6.05 4.95 6.05t6.4-1.95q5.35-2 8.6-2 2.75 0 9.6 8.95t10.4 8.95q9.05 0 16.05-2.5" fill="#00426f"/>
  <g fill="#0d131a">
   <path d="m107.85 47.6q-0.3-9.7-6.7-14.3-2.2-1.55-5.55-2.1l-6.65-0.35-8.05-0.45q-4.75-0.65-8.7-2.6-4.75-2.4-11.35-7.25-4.75-3.5-7.1-4.75-3.65-1.9-7-1.9-5.1 0-10.8 4.1-5.65 4.1-11.55 12.05-8.4 11.35-15.6 27.75-6.1 13.9-6.75 19.7 1.55-1.35 5.95-6.3 9.35-10.3 14.2-14.3 6.9-5.8 10.9-5 1.65 0.3 2.95 1.9l2.05 3.2q1.15 2.15 1.85 3 1.15 1.5 2.5 1.9l3.8-0.2 4.05-1.65q2.7-1.2 3.9-1.5 2-0.55 3.35 0 1.8 0.75 3.4 3.65l2.8 6.5q2.2 5.75 3.65 8.4 2.4 4.4 5.3 6 4.3 2.4 14.25-2.85 10.3-5.4 15.3-13.45 5.9-9.5 5.6-19.2m-26.6-19.15h7.7q9.8 0.1 14.85 4.2 5.5 4.4 5.95 13.95 0.85 18.95-15.6 31.6-6.35 4.85-13.05 6.85-6.45 1.9-9.6 0.1-3.3-1.85-5.8-6.6-1-2-3.7-9l-2.5-5.95q-1.5-3.05-2.65-3.55-0.65-0.25-2.65 0.55l-3.45 1.6-4.45 1.9-4.55 0.1q-1.9-0.6-3.2-2.4l-2-3.5-1.7-3q-1.1-1.65-2-1.8-4-0.85-17.95 13.3l-9.4 9.6q-4.3 4.3-5.1 3.95-1.5-0.7 1.95-11.45 3.75-11.6 9.9-23.6 17.35-33.8 34.5-33.8 3.85 0 7.95 2.15 2.45 1.25 7.55 4.95l5.05 3.95q3.3 2.5 5.95 3.8 3.5 1.75 8 2.1"/>
   <path d="m208.8 6.15q3.45 5.35 6 13.6 2.4 7.7 2.8 13.6 0.4 6.15-1.75 6.15-1.85 0-8.8-8.05-0.35-0.35 0.25-0.8l0.9-0.05 4.3 4.45q2.45 2.2 3.35 1.95 0.8-0.2-0.15-5.65-1-5.6-3.05-11.85-5.6-17.1-11.55-17.1-3.6 0-8.7 4.6-2.95 2.75-8.15 8.95-4.6 5.5-6.2 6.5-1.7 1.1-4 1.65l-4.35 0.65q-5.1 0.5-7.85 1.75-3.2 1.4-6.5 9.1l-1 0.1q-0.75-0.35-0.65-0.8 1.8-6.95 6.6-9.95 2.3-1.45 8.65-2.15 6.3-0.75 7.15-1.3 1.6-1.05 11.05-11.55 9.65-9.95 13.75-9.95 3.9 0 7.9 6.15"/>
   <path d="m207.6 28.9q0.45-1.5 1.1-1.3 0.65 0.15 0.2 1.65l-2.2 6.95q-2.55 6.95-4.35 7.25-0.85 0.15-2.65-1.25l-1.75-1.5q-10.4 28.85-11.45 30.8-1.2 2.15-3.2 2.75l-4.4-0.25q-0.45-0.15-0.15-1 0.25-0.9 0.75-0.7 2.95 1.05 5.25-2.5 0.45-0.65 6.3-15.9 5.7-14.9 6.1-15.1l1.75 0.05q0.5 0.25 1.55 1.15l1.4 1.05q0.9-0.85 2.9-5.15 2-4.25 2.85-7"/>
  </g>
  <path d="m123.2 73.85q0-6.45 1.8-10.25 1.9-4.05 5.4-4.05 3.7 0 6.05 4.05 2.4 4.05 2.4 10.25 0 6.25-2.4 10.25-2.35 4.05-6.05 4.05-3.5 0-5.4-4.05-1.8-3.75-1.8-10.25" fill="#fff"/>
  <path d="m122.45 73.85q0-6.35 2.15-10.5 2.25-4.3 5.8-4.3 3.3 0 5.7 3.5 0.9 1.3 0.4 1.75t-1.35-0.9q-2.9-4.45-6.65-1.95-4.15 2.75-4.15 12.4 0 8.75 3.6 11.95 3.25 2.9 6.15-0.25 0.9-1 1.4-0.55t-0.35 1.35q-2.15 2.3-4.75 2.3-3.55 0-5.8-4.3-2.15-4.15-2.15-10.5" fill="#0d131a"/>
  <path d="m165.5 63.5q1.35 3.15 1.35 9.05t-1.35 9.15q-1.45 3.5-4.25 3.5-2.9 0-4.7-3.5-1.85-3.55-1.85-9.15t1.85-9.05q1.8-3.4 4.7-3.4 2.85 0 4.25 3.4" fill="#fff"/>
  <path d="m167.6 72.55q0 5.75-1.7 9.4-1.75 3.75-4.65 3.75-2.35 0-4.15-2.6-0.55-0.8-0.3-1.35t1.2 0.5q2.75 3.05 5.1 1.1 2.7-2.3 2.7-10.8 0-8.45-2.9-10.8-2.6-2.1-5.2 1.65-0.7 1-1.15 0.65t0.05-1.3q1.95-3.4 4.65-3.4 2.9 0 4.65 3.75 1.7 3.7 1.7 9.45" fill="#0d131a"/>
  <path d="m135.45 99.4q3.1-3 7.3-3 4.35 0 7.8 3 3.6 3.2 3.6 7.65 0 6.15-3.2 9.75-3.3 3.65-9.1 3.65-2.2 0-4.9-1.85-2.5-1.7-3.75-3.75-1.05-1.7-1.1-3.9l0.2-4.2q0-4.3 3.15-7.35" fill="#922f00"/>
  <path d="m151.2 113.5q0.65 2.55-0.1 3.65-0.95 1.4-4.25 2.55-2.8 1-4.45 1-2.35 0-5.3-1.6-4.2-2.25-5.25-6.4l0.65-10.3 4.25-0.75q7.25 0 12 6.65 1.8 2.6 2.45 5.2" fill="#ed8599"/>
  <path d="m147.05 104.95q2.85 2.45 4.1 5.65 1.45 3.45 0.35 6.3-0.1 0.35-0.7 0.15t-0.45-0.55q0.75-2.05-0.5-4.95t-3.95-5.25q-2.85-2.45-6.1-3.35-3.9-1.15-7 0.55-0.3 0.2-0.6-0.5-0.35-0.65 0-0.8 3.1-1.7 7.3-0.95 4.2 0.8 7.55 3.7" fill="#0d131a"/>
  <path d="m136.9 97.7q2.9-2 5.85-2 5.2 0 8.7 3.8 3.3 3.55 3.3 8.2 0 6.05-3.2 9.7-3.25 3.75-8.75 3.75-3.9 0-7.05-2.5-2.85-2.25-4.25-5.8 0.65-1.7 0.7-2.9 0.7 3.7 3.65 6.45 3.1 2.85 6.9 2.85 5.15 0 7.95-3.35 2.6-3.15 2.6-8.2 0-3.75-2.8-6.75-3.1-3.35-7.75-3.35-2.65 0-5.35 1.9-2.65 1.8-4.15 4.45l-0.3-0.7-0.5-0.75q1.8-2.95 4.45-4.8" fill="#0d131a"/>
  <path d="m183.3 85.95q2.65 0 4.1 2.85 1.45 2.95 1.45 8.5 0 5.15-2.7 8.9-2.4 3.35-4.8 3.35-2.45 0-4.25-2.25-2.25-2.9-2.25-8.6 0-4.75 3.05-8.9 2.8-3.85 5.4-3.85" fill="#ee848c"/>
  <path d="m188.6 95.55 0.35-1.3 0.15 3.05q0 5.15-2.8 8.9-2.5 3.35-4.95 3.35-2.05 0-3.65-1.65-2-2-2.6-6l0.15-0.05q0.15 1.85 1.85 2.85t3.9 0.55q5.65-1.15 7.6-9.7" fill="#ce737b"/>
  <path d="m187.9 97.3q0-4.8-1.25-7.6t-3.35-2.8q-2 0-4.5 3.55-2.75 3.95-2.75 8.25 0 5.1 1.9 7.7 1.45 1.95 3.4 1.95 1.9 0 4.05-2.95 2.5-3.45 2.5-8.1m-13.4 1.4q0.25-5.3 3-9.25 2.65-3.9 5.8-3.9 6.2 0 6.2 11.75 0 4.9-2.85 8.95-2.65 3.8-5.3 3.8-3.6 0-5.35-3.15-1.75-3-1.5-8.2" fill="#0d131a"/>
  <path d="m94.5 88.15q5.3 0 9.4 4.65 4.25 4.9 4.25 12.05 0 4.9-3.25 9.2-3.6 4.8-8.65 4.8-5.2 0-9.3-4.55-4.25-4.75-4.25-11.05 0-5.65 3.6-10.35 3.6-4.75 8.2-4.75" fill="#ee848c"/>
  <path d="m84.6 98.35 2.2-4.95q-1.15 5.5 0.75 10.55 1.7 4.65 5.3 7.4 3.5 2.75 7.25 2.45 4.05-0.35 6.7-4.25l0.25 0.6q-1.4 3.7-4.1 6.05-3.05 2.65-6.7 2.65-5.2 0-9.3-4.55-4.25-4.75-4.25-11.05 0-0.8 1.9-4.9" fill="#ce737b"/>
  <g fill="#0d131a">
   <path d="m103 93.6q-3.75-4.25-8.5-4.25-4 0-7.3 4.35-3.3 4.3-3.3 9.55 0 5.95 4 10.3 3.75 4.1 8.35 4.1 4.55 0 7.8-4.45 2.9-3.95 2.9-8.35 0-6.65-3.95-11.25m-17.5-1.3q3.9-4.65 9-4.65 6.45 0 10.5 5.6 3.55 5 3.55 11.6 0 5.2-3.5 9.7-3.75 4.85-8.8 4.85-5.95 0-10.3-4.7-4.45-4.8-4.45-11.45 0-6.25 4-10.95"/>
   <path d="m137.95 73.7q0 1.5-0.4 2.55-0.45 1.05-1.05 1.05t-1-1.05q-0.45-1.05-0.45-2.55t0.45-2.55q0.4-1.05 1-1.05t1.05 1.05q0.4 1.05 0.4 2.55"/>
   <path d="m158.45 73.3q0 1.5-0.4 2.6-0.45 1.05-1.05 1.05t-1-1.05q-0.45-1.1-0.45-2.6t0.45-2.55q0.4-1.05 1-1.05t1.05 1.05q0.4 1.05 0.4 2.55"/>
  </g>
  <path d="m62.6 75.95q15.4 0 24.5 11.6 8.45 10.65 8.45 26.6 0 14.65-13 24.9-12.1 9.55-27.05 9.55-12.9 0-22.8-10.55-9.85-10.5-9.85-24.2 0-15.65 13.55-27.25 12.4-10.65 26.2-10.65" fill="#ee848c"/>
  <path d="m32.7 138.05q-9.3-9.95-9.8-22.7 0.6 10.85 10.6 16.2 9.5 5.05 23.8 3.6 14-1.45 24.65-8.3 11.6-7.45 13.3-17.9l0.3 5.2q0 14.65-13 24.9-12.1 9.55-27.05 9.55-12.9 0-22.8-10.55" fill="#ce737b"/>
  <path d="m62.6 76.6q-12.9 0-25.05 10.25-13.5 11.4-13.5 27 0 13.2 9.55 23.4 9.55 10.15 21.9 10.15 14.6 0 26.35-9.25 12.5-9.95 12.5-24 0-15.05-7.7-25.55-8.75-12-24.05-12m-27.65 10.1q12.35-11.45 27.65-11.45 15.85 0 25.25 12.25 8.3 10.85 8.3 26.15 0 15.1-13 25.6-12.2 9.8-27.65 9.8-12.95 0-23-10.3-10.25-10.6-10.25-24.9 0-15.4 12.7-27.15" fill="#0d131a"/>
  <path d="m54.5 147.85q0-5.9-1.85-8.4t-1.85-4.1q0-4.05 3.15-6.75 2.8-2.4 6.15-2.4 3.2 0 5.9 2.15 2.85 2.35 2.85 5.6l-2.4 9.95q-2 8.25-0.6 14.9 2.9 0.35 7.2 2.55 2.15 1.1 3.7 2.15l15.1-3q2.2-0.45 4 0.6 1.7 0.95 2.15 2.6 1.15 4.2-5.45 5.55-12.55 2.6-23.05 8.15-2.5 1.3-6.25 3.35-2.8 1.4-4.6 1.4-2.65 0-6-2.65-3.3-2.55-3.3-4.45 1.3-3 2.6-7 2.55-7.9 2.55-20.2" fill="#f7c6bd"/>
  <path d="m58.65 182.15q-1.95 0-4.5-1.5-2.4-1.5-3.75-3.35 4.95 0 10.4-1.35 4.9-1.2 9.15-3.2 3.65-1.7 27.85-6.95-1.1 2.6-5.25 3.45-12.45 2.45-22.95 8.05l-6.3 3.45q-2.85 1.4-4.65 1.4" fill="#d5aba4"/>
  <path d="m60.1 126.9q-2.95 0-5.75 2.4-3.1 2.6-3.1 6.05 0 0.95 0.3 1.55l0.75 1.05q1.2 1.5 1.75 2.95 0.9 2.55 0.9 6.95 0 9.85-1.4 16.9-0.75 3.9-2.35 8.15-0.65 1.75-0.65 2.15 0 1.3 2.8 3.65 3 2.5 5.3 2.5 1.4 0 3.9-1.1l5.35-2.65q6.65-3.4 10.45-5 7.05-2.95 13.95-4.4 2.4-0.5 3.65-1.65 1.2-1.15 0.9-2.65-0.3-1.4-1.6-2.25-1.4-0.9-3.15-0.55l-15.1 2.95-0.75-0.1q-8.7-4.7-12.2-4.2-2.25 0.35-4.35 2.55-1.95 2-2.85 4.6-0.4 1.1-0.7 0.95-0.3-0.1-0.15-1.25 0.45-2.85 2.8-5.35 2.35-2.45 4.8-2.85l1.35-0.1q-0.45-3.15-0.45-5.1 0-3.4 0.7-7.35l1.4-6.2 1.05-5.55q0-2.8-2.5-5-2.35-2.05-5.05-2.05m-6.85 1.55q3.2-2.95 6.85-2.95 3.55 0 6.35 2.6 2.85 2.75 2.85 6.6 0 1.35-2.35 9.1-1.95 8.5-0.45 14.45 2.45 0.45 6.2 2.25l4.2 2.2 15.55-2.95q2.9-0.6 4.65 0.4 1.65 0.9 2.1 3.1 0.35 1.9-1.8 3.4-2.1 1.45-6.35 2.35-5.8 1.25-19.05 7.85-12.45 6.25-13.35 6.25-2.5 0-6.05-2.75-3.7-2.85-3.7-5.3 0-0.8 0.85-3 1.7-4.5 2.4-7.8 1.5-6.9 1.5-16.4 0-3.8-0.75-5.8-0.35-1-1.45-2.3l-1.1-1.6q-0.5-1.05-0.5-2.55 0-4.05 3.4-7.15" fill="#0d131a"/>
  <path d="m80 145.35q2.85 0 5.95 3.4t4.95 3.4q1.7 0 3.55-1.15t1.85-2.25q0-1-1.35-3.2-1.2-1.9-2.75-3.65l-2.9-3.65q-1.55-2.5-1.55-4.9 0-3.65 2.1-6.05t5.15-2.4 4.55 1.45q1.6 1.55 2.2 5.4 1.2 8.05 1.9 10.6 1.8 6.6 4.8 6.6 1.85 0 3.6-3.3 1.75-3.2 1.75-6.25 0-2.55-3.2-6.55-3.25-4.05-3.25-7 0-2.85 2.5-5 2.45-2.1 5.5-2.1 3.15 0 5.6 2.45 2.3 2.35 2.3 4.85l-0.85 6.75q-0.9 5.3-0.9 7.3 0 2.7 1.75 4.95 1.6 2.05 3.15 2.05 1.5 0 3.4-1.3 1.95-1.35 2.75-2.9 1.55-3.15 2.5-4.15 1.25-1.3 3.4-1.3 3.05 0 4.75 1.8 1.35 1.35 2 4 0.6 2.3-0.6 5.1-1 2.35-2.45 3.6l-4.3 2.95-4 2.55q-0.9 0.65-2.05 3.25l-2.5 5.45q-4.05 7.9-10.85 11.3-10.3 5.2-19.25 0-2.85-1.6-4.45-1.3-1.05 0.2-6.15 2.3-4.6 1.9-6.1 1.9-2.85 0-4.6-2.4-1.6-2.2-1.6-5.1 0-2.45 1.4-4.25 1.5-1.85 3.6-1.85 1.6 0 3.85 1.2 2.25 1.15 2.9 1.15 1.2 0 2.55-1.7 1.35-1.75 1.35-3.4 0-1.6-1.75-3.55-1.65-1.85-3.6-2.55-1.25-0.45-4.3 0-2.95 0.5-4-0.05-1.6-0.8-2.6-2.5t-1-3.55q0-2.65 1.45-4.5 1.55-1.95 3.85-1.95" fill="#eeeeef"/>
  <path d="m118.45 177.7q-10.55 5.3-19.25 0.25l-1.9-0.85v-0.15q6.95 1.9 16.1-1.05 12.2-4 18.3-15.45 3.15-5.9 5.3-5.4l-2.65 1.65q-0.9 0.65-2.15 3.45l-2.65 5.75q-4.3 8.4-11.1 11.8" fill="#c8c9ca"/>
  <path d="m80 146.5q-1.85 0-3.2 1.6-1.4 1.6-1.4 3.7 0 1.5 1.1 3.1 1 1.5 2.3 2.15l3.5 0.15 4.7 0.3q2.3 0.85 3.9 2.55 1.75 1.9 1.75 3.95 0 2.15-1.45 4-1.45 1.8-3.15 1.8-1.05 0-2.95-1.05-2.5-1.3-3.8-1.3-1.55 0-2.95 1.7-1.35 1.7-1.35 3.7 0 2.4 1.5 4.45 1.6 2.35 4 2.35 1.3 0 6.6-2.2 3.85-1.65 5.4-1.95 1.95-0.4 5.3 1.45l0.15 0.05q3.05 1.8 6.8 2.1 5.35 0.45 11.15-2.45 4.85-2.45 8.2-7.1 1.95-2.65 4.35-7.85 1.95-4.25 3.2-5.2l2.85-1.8 4.85-3.15q4.2-3.65 3.1-8.5-1.1-4.9-6.25-4.9-1.6 0-2.65 1.2-0.85 0.95-2.45 4.1-0.9 1.8-2.85 3.1-1.95 1.25-3.85 1.25-1.95 0-3.5-2.1-1.7-2.25-1.7-5.6l0.65-7.1q0.6-6 0.25-7.9-0.4-2.35-2.2-3.85-1.9-1.55-4.55-1.55-2.6 0-4.85 1.95-2.2 1.9-2.2 4.2 0 1.7 0.9 3.45 0.5 1.05 1.95 2.95 1.55 2.1 2.1 3.25 1 1.95 1 3.9 0 3.4-1.55 6.4-1.75 3.35-4.25 3.35-3.3 0-5-4.95-1-2.9-1.8-9.6l-0.35-2.65q-0.5-3.25-2-4.8-1.55-1.55-4.3-1.55-2.6 0-4.6 2.3-1.95 2.35-1.95 5.45 0 2.2 1.35 4.4l2.55 3.35q4.65 5.3 4.65 7.65 0 1.65-2 2.9-1.85 1.2-4.1 1.2-1.6 0-3.05-1l-2.45-2.2-2.4-2.15q-1.4-1-3-1m-4.15 0.2q1.7-2.1 4.15-2.1 2.25 0 6.15 3.45 3.8 3.4 5.15 3.25 3.5-0.4 4.05-1.85 0.85-2.2-3.95-7.25-2.15-2.2-3-3.6-1.6-2.5-1.6-5.25 0-4.05 2.3-6.6t5.9-2.55q4.1 0 6 2.35 1.75 2.1 2 6.55 0.5 8.25 2.3 12.05 1.35 2.8 3.15 2.8 1.2 0 2.7-2.25 1.65-2.45 1.75-5.1 0.1-3.3-3.05-7.9-3.2-4.6-3.2-6.6 0-3.3 2.55-5.55 2.5-2.25 6.15-2.25 3.55 0 5.9 2.1 2.2 2 2.4 5.05 0.15 2.1-0.5 7-0.7 5.35-0.7 7.65 0.05 2.45 1.3 4.35 1.2 1.85 2.55 1.85 1.8 0 3.55-1.2 1.6-1.15 2.35-2.7 1.55-3.05 2.25-3.95 1.55-1.95 3.75-1.95 2.8 0 5.35 2.25 2.75 2.45 2.7 5.8-0.1 7.4-9.65 11.4-2.65 1.1-4.45 5.55-2.55 6.15-5.95 10.45-3.8 4.65-8.2 6.5-8.85 3.7-15.6 1.35-5.6-3.15-7.4-3.1-1.5 0.05-6 2.25-4.4 2.1-6.5 2.1-2.95 0-4.85-2.15-2.05-2.3-2.05-6.05 0-2.75 1.7-4.75 1.7-2.05 4-2.05 1.1 0 3.6 1.2 2.45 1.15 3.15 1.15 1.3 0 2.35-1.2 1.1-1.2 1.1-2.85 0-1.25-1.1-2.75-1.45-1.95-4.1-3.05-0.8-0.35-4 0l-4.35-0.2q-1.8-0.85-2.8-2.55-1.05-1.7-1.05-4.05 0-2.95 1.75-5.05" fill="#0d131a"/>
  <path d="m112.65 122.95q1.15-0.8 2.95-0.55 1.8 0.2 2.2 1.2 0.5 1.25-0.15 2.85-0.6 1.45-1.6 2.05-1.15 0.65-2.45 0.4t-2-1.2q-0.6-0.8-0.3-2.35 0.3-1.65 1.35-2.4" fill="#ee848c"/>
  <path d="m114.45 123.25q-0.8 0.05-1.3 0.4-0.85 0.7-1 2-0.2 1.05 0.15 1.5 0.5 0.65 1.45 0.85 1 0.2 1.85-0.3 0.75-0.4 1.2-1.55 0.5-1.3 0.15-2.2-0.05-0.3-0.95-0.6l-1.55-0.1m-2.1-0.7q0.8-0.55 2-0.7l1.95 0.2q1.5 0.4 1.9 1.45 0.55 1.4-0.1 3.1-0.6 1.65-1.8 2.3-1.25 0.75-2.75 0.45-1.5-0.25-2.35-1.35-0.5-0.85-0.5-1.85l0.05-0.7q0.35-1.95 1.6-2.9" fill="#0d131a"/>
  <path d="m141.55 142.5q1.05 0.9 0.9 2.7-0.1 1.75-1.05 2.45-2.55 1.95-4.75 0.5-1.1-0.7-1.3-2.3-0.15-1.65 0.9-2.85 0.85-0.95 2.65-1.15 1.8-0.15 2.65 0.65" fill="#ee848c"/>
  <path d="m139 142.7q-1.5 0.1-2.15 0.85-0.9 0.95-0.65 2.35 0.15 1.1 0.9 1.55 1.7 1.2 3.8-0.45 0.65-0.5 0.75-2 0-1.3-0.65-1.9-0.6-0.55-2-0.4m-3.95 3.3q-0.25-1.85 0.95-3.2 0.95-1.1 2.85-1.25t2.9 0.7q1.15 1.05 1.05 2.85-0.1 1.95-1.2 2.85-2.6 2.05-5.1 0.5-1.2-0.8-1.45-2.45" fill="#0d131a"/>
  <path d="m93.3 128.6 2.9-0.1q1.75 0.6 2.5 2.1 0.5 1-0.2 2.5t-2.05 2.1l-2.65 0.05q-1.25-0.4-1.8-1.25-1.05-1.45-0.55-3.15 0.5-1.55 1.85-2.25" fill="#ee848c"/>
  <path d="m93.65 135.7c-0.9-0.3-1.5833-0.78333-2.05-1.45-0.73333-1-0.95-2.1-0.65-3.3 0.3-1.2333 1.1122-2.2238 2.15-2.75 0.95184-0.48259 2.1894-0.44303 3.2-0.1 1.1215 0.3807 2.1833 1.15 2.75 2.25 0.36667 0.73333 0.36667 1.6 0 2.6-0.46667 1.3-1.3188 2.1488-2.4 2.65-0.90776 0.42082-3 0.1-3 0.1m2.25-6.35s-1.5442-0.27852-2.2 0.05c-0.70054 0.3509-1.25 0.98333-1.45 1.85l-0.05 0.65c0 0.6 0.16667 1.1333 0.5 1.6 0.26667 0.36667 0.8305 0.7496 1.35 0.9 0.65657 0.19009 1.4294 0.23659 2.05-0.05 0.77153-0.35631 1.3667-0.96667 1.7-1.9 0.23333-0.66667 0.26667-1.15 0.1-1.45-0.4-0.8-1.0667-1.35-2-1.65" fill="#0d131a"/>
  <path d="m80.5 155.25q-1.4 0-1.95-0.95-0.6-1.05-0.45-2.45 0.15-1.45 1-2.05 0.95-0.65 2.4-0.55 1.6 0.15 2.05 1.1t0.25 2.25q-0.25 1.25-0.8 1.7-1.15 0.95-2.5 0.95" fill="#ee848c"/>
  <path d="m79.55 150.55q-0.55 0.35-0.6 1.4-0.1 1.1 0.35 1.85 0.25 0.4 0.8 0.5 1.15 0.25 2.35-0.7l0.45-1.15q0.2-1.05-0.15-1.7-0.2-0.35-0.75-0.5-1.4-0.35-2.45 0.3m0.4 5q-1.15-0.25-1.7-1.15-0.7-1.15-0.55-2.65 0.2-1.55 1.2-2.25 1.45-0.95 3.35-0.45 1.1 0.3 1.6 1.2 0.5 1 0.3 2.45-0.25 1.35-0.95 1.9-1.5 1.2-3.25 0.95" fill="#0d131a"/>
  <path d="m80.35 176.35q-1-1-1-2.6 0-1.3 1.2-2.3 1.3-1.1 3.25-1.1 0.8 0 1.6 1.1t0.8 2.45q0 1.55-1.05 2.5-1.05 0.9-2.65 0.9-1.2 0-2.15-0.95" fill="#ee848c"/>
  <path d="m83.8 171.25q-1.6 0-2.65 0.9-0.9 0.75-0.9 1.6 0 1.25 0.8 2 0.65 0.65 1.45 0.65 1.3 0 2.05-0.65 0.75-0.7 0.75-1.85 0-1-0.6-1.9-0.5-0.75-0.9-0.75m-4.75 2.5q0-1.4 1.25-2.5 1.3-1.2 3.35-1.2 1.1 0 1.95 1.2t0.85 2.65q0 1.6-1.1 2.65t-2.8 1.05q-1.35 0-2.4-1-1.1-1.15-1.1-2.85" fill="#0d131a"/>
  <path d="m125.8 91.6q-1.3-0.8-0.95-1.25 0.4-0.5 1.75 0.2 7.4 3.8 7.1 15.3-0.25 11.2-6.95 15.55-1.4 0.9-1.85 0.55-0.5-0.35 0.75-1.4 5.95-4.8 6.05-14.9 0.1-10.15-5.9-14.05" fill="#0d131a"/>
 </g>
</svg>
