<?xml version="1.0" encoding="UTF-8"?>
<!-- Created with Inkscape (http://www.inkscape.org/) -->
<svg version="1.1" viewBox="0 0 97.626 94.351" xmlns="http://www.w3.org/2000/svg">
 <g transform="translate(-1.1833 -1.1562)">
  <g transform="matrix(.55368 0 0 .55368 43.599 35.654)">
   <path d="m0 0c2.56-3.2 7.2-4.48 11.36-3.04-2.24-9.92-7.04-20.64-12.16-27.36-3.52-4.48-24.48-20.8-36.64-29.6 0.8 2.88 1.6 5.76 2.88 8.64l14.72 40.96c1.76 4.8 3.84 10.72 6.08 12.64 1.92 2.08 7.36 5.12 11.84 6.88-0.64-3.04-0.16-6.4 1.92-9.12z" fill="#fff1ac"/>
  </g>
  <g transform="matrix(.55368 0 0 .55368 70.795 20.063)">
   <path d="m0 0c0.96-4.64 1.28-8.16 1.6-15.52-6.24 5.76-10.72 12.16-13.12 17.44 0.96 2.4 1.92 4.96 2.08 7.2 5.12 4.16 7.52 9.92 6.24 15.04-0.16 0.96 0 1.76 0.48 2.56 8.96-7.04 17.28-28.32 23.04-48.32v-0.32c-8 6.4-15.04 14.72-20.32 21.92z" fill="#fff1ac"/>
  </g>
  <g transform="matrix(.55368 0 0 .55368 70.884 37.692)">
   <path d="m0 0c-0.32-1.44-1.44-3.04-2.88-5.12-0.48-0.8-0.64-1.6-0.48-2.56 1.28-5.12-1.12-10.88-6.24-15.04-0.48-4.32-3.04-9.6-4.96-12.64-0.64-0.8-0.8-0.64-0.96 0-0.48 1.6-1.28 7.52-3.04 10.4-1.6 0-3.68 0.16-5.12 0.64-3.04-1.28-8.96-2.72-11.52-2.88-0.96 0-1.12 0.16-0.32 0.96 2.08 2.08 5.44 5.28 7.36 7.52 0.96 0.96 1.12 1.92 0.64 4-0.64 2.56-2.72 7.36-2.24 8.16 0.48 1.12 4.8 1.76 8.96 2.56 0.8 0.16 1.76 0.64 2.88 1.28 2.56 1.6 6.72 4.64 9.6 6.24 0.64 0.32 0.96 0.8 1.6 1.6 0.8 1.28 1.12 1.44 2.56 0.96 2.24-0.96 4.32-4.16 4.16-6.08z" fill="#6dba5a"/>
  </g>
  <g transform="matrix(.55368 0 0 .55368 62.202 29.896)">
   <path d="M 0,0 C -0.48,1.44 -1.12,4.8 -0.16,5.92 0.8,6.88 4.32,8.8 6.72,9.76 5.44,6.72 2.24,1.92 0,0 Z" fill="#fff"/>
  </g>
  <g transform="matrix(.55368 0 0 .55368 57.773 24.226)">
   <path d="m0 0c1.44-0.48 3.52-0.64 5.12-0.64 0.16-0.32 0.32-0.48 0.48-0.8-3.2-0.32-11.84-7.2-12.48-7.04-0.32 0.16 0.96 4.48 1.76 6.72 1.92 0.64 3.84 1.12 5.12 1.76z" fill="#6dba5a"/>
  </g>
  <g transform="matrix(.55368 0 0 .55368 65.569 25.112)">
   <path d="m0 0c1.28 0.96 2.24 2.08 3.2 3.2 0.32-1.76 0.8-6.72 0.32-7.04s-1.92 1.12-3.52 3.04v0.8z" fill="#6dba5a"/>
  </g>
  <g transform="matrix(.55368 0 0 .55368 60.962 36.186)">
   <path d="m0 0c-1.12-0.64-2.08-1.12-2.88-1.28-4.16-0.8-8.48-1.44-8.96-2.56-0.16-0.16-0.16-0.48-0.16-0.8-0.8 0-1.76 0-2.56 0.16 3.36 1.76 7.52 5.92 10.72 9.6 3.04 3.52 8 7.36 10.72 6.88 1.28-0.16 2.24-3.04 2.4-5.92-2.72-1.6-6.72-4.64-9.28-6.08z" fill="#6dba5a"/>
  </g>
  <g transform="matrix(.55368 0 0 .55368 59.013 35.477)">
   <path d="M 0,0 C 3.68,8 8,11.36 10.4,10.88 10.72,9.6 11.04,7.84 11.36,6.4 8.8,4.64 5.92,2.72 3.68,1.28 2.4,0.48 1.6,0.16 0,0 Z" fill="#ed8599"/>
  </g>
  <g transform="matrix(.55368 0 0 .55368 64.683 38.666)">
   <path d="M 0,0 C -0.32,0.8 -0.48,2.56 -0.32,2.72 0,2.88 1.12,2.08 1.92,1.28 1.28,0.8 0.64,0.32 0,0 Z" fill="#fff"/>
  </g>
  <g transform="matrix(.55368 0 0 .55368 82.046 8.103)">
   <path d="m0 0c-5.76 20-14.08 41.28-23.04 48.32 0.64 0.8 1.12 1.6 1.6 2.4 9.28-7.84 18.72-28.96 22.4-50.56 0.32-2.24-0.32-2.56-0.96-0.16z" fill="#6dba5a"/>
  </g>
  <g transform="matrix(.55368 0 0 .55368 51.395 34.857)">
   <path d="m0 0c4.64 3.52 4.96 9.76 1.6 14.08-3.52 4.64-9.92 5.12-14.08 1.92-4-3.2-5.28-9.76-1.6-14.56 3.04-4 9.44-4.96 14.08-1.44z" fill="#6dba5a"/>
  </g>
  <g transform="matrix(.55368 0 0 .55368 49.889 33.971)">
   <path d="m0 0c1.44 0.64 3.2 1.76 4.16 3.04-2.24-13.12-7.68-26.08-13.28-32.96-4.16-5.12-25.28-20.48-38.56-28.32-2.56-1.44-3.52-0.48-1.12 1.28 12.16 8.8 33.12 25.12 36.64 29.6 5.12 6.72 9.92 17.44 12.16 27.36z" fill="#6dba5a"/>
  </g>
  <g transform="matrix(.55368 0 0 .55368 59.81 39.995)">
   <path d="m0 0c0.16 2.08 0.48 3.52 0.64 4.96 0 0.8 0 1.12-0.32 1.76-0.64 1.28-1.28 1.92-2.08 3.2-0.48 0.48-0.48 0.8-0.48 1.28 0.16 1.28-0.16 2.72-0.96 4.32-0.96 2.08-1.76 3.84-3.04 6.08-0.32 0.48 0 0.96 0.64 0.96 0.48 0 1.6 0 2.56-0.16 0.96-0.32 2.4-1.28 3.52-2.88 1.44-2.4 2.88-6.24 2.88-8.16 0.16-2.24-0.64-6.88-1.44-9.6-0.64-0.48-1.28-1.12-1.92-1.76z" fill="#6dba5a"/>
  </g>
  <g transform="matrix(.55368 0 0 .55368 55.735 45.222)">
   <path d="m0 0c-0.48-0.64-0.64-1.6-0.64-2.4v-2.72c-0.16-0.64-0.16-0.96-0.48-1.28-0.8-1.28-1.12-2.4-1.6-3.52-0.64-1.6-0.64-2.88 0-4.32 0.32-0.64 0.48-1.44 0.48-2.24-0.64 0-1.28 0.16-1.6 0.32s-0.64 0.64-0.96 1.44c1.44 3.2 0.96 7.2-1.44 10.08-3.04 4-8.16 4.96-12.16 3.04-0.32 1.6-0.64 3.04-0.64 4.8 0 1.28 0.8 2.24 2.88 2.56 1.28 0.16 1.92 0.64 2.72 1.76 0.96 1.12 1.92 2.4 3.2 3.36s4.64 1.28 6.24-0.32c1.6-1.44 3.2-3.04 4.48-5.76 0.64-1.6 0.32-3.84-0.48-4.8z" fill="#6dba5a"/>
  </g>
  <g transform="matrix(.55368 0 0 .55368 58.127 47.702)">
   <path d="m0 0c-0.96 0-2.24-0.16-3.68-0.16-0.64 2.08-3.04 4.96-4.8 6.4 0.48 0.8 2.72 0.96 5.6 0.8 0.8 0 1.12-0.16 1.6-0.64 0.96-0.96 1.76-3.36 2.4-4.96 0.32-0.96-0.16-1.28-1.12-1.44z" fill="#6dba5a"/>
  </g>
  <g transform="matrix(.55368 0 0 .55368 59.81 39.995)">
   <path d="m0 0c0.16 2.08 0.48 3.52 0.64 4.96 0 0.8 0 1.12-0.32 1.76-0.64 1.28-1.28 1.92-2.08 3.2-0.48 0.48-0.48 0.8-0.48 1.28 0.16 0.96 0 1.76-0.32 2.88-0.16-0.16-0.32-0.16-0.48-0.16-0.96 0-2.24-0.16-3.68-0.16 0.48-1.44 0-3.36-0.64-4.32-0.48-0.64-0.64-1.6-0.64-2.4v-2.72c-0.16-0.64-0.16-0.96-0.48-1.28-0.8-1.28-1.12-2.4-1.6-3.52-0.64-1.6-0.48-2.88 0-4.32 0.48-1.28 0.48-2.88 0.16-4.96 4.16 3.04 7.2 7.2 9.92 9.76z" fill="#fff1ac"/>
  </g>
  <g transform="matrix(.55368 0 0 .55368 37.663 27.77)">
   <path d="m0 0c1.12 1.12 1.28 1.76 0.48 2.88-2.24 4.16-2.88 9.76-1.92 12.16 0.48 1.44 1.6 1.92 3.2 0.48 3.52-3.04 7.04-8.64 7.68-12.96 0.32-2.56-0.8-3.52-2.56-3.84-1.76-0.16-2.56-0.8-4.32-2.08-6.08-4.96-8.96-12.8-12-21.76-3.04-9.12-9.6-12.16-17.28-12-17.12 0.64-31.84 6.56-38.72 17.28 10.56-9.44 23.36-13.76 39.52-13.12 6.08 0.16 10.08 3.04 12.16 9.12 4.16 11.36 7.04 17.6 13.76 23.84z" fill="#6dba5a"/>
  </g>
  <g transform="matrix(.55368 0 0 .55368 65.657 42.032)">
   <path d="m0 0c2.72 3.36 2.72 8.16 0.8 11.52-2.08 3.84-6.88 5.28-10.72 4 1.44-2.56 2.72-6.08 2.88-7.52 0-1.44-0.8-8-1.6-9.92 2.56 2.24 6.08 3.68 7.04 3.36s1.12-0.8 1.6-1.44z" fill="#6dba5a"/>
  </g>
  <g transform="matrix(.55368 0 0 .55368 47.408 48.588)">
   <path d="m0 0c-4.8 4.64-7.36 10.88-8 17.28-0.96 9.92 2.88 20 10.24 24.64 0.64 0.32 1.12 0.48 2.08 0.16 7.68-4.32 11.84-11.36 12.48-20.32 0.48-4.96-0.16-10.88-1.76-16.32z" fill="#6dba5a"/>
  </g>
  <g transform="matrix(.55368 0 0 .55368 56.178 53.195)">
   <path d="m0 0c-0.32 1.12-0.96 2.24-1.6 2.88-0.8 0.8-3.2 0.8-4.32-0.16-1.44-1.28-3.04-3.68-3.84-5.6 1.12 0.48 3.52 0.16 4.64-0.64 1.12 0.64 2.88 0.8 4.32 0.8 0.32 0.8 0.64 1.6 0.8 2.72z" fill="#fff1ac"/>
  </g>
  <g transform="matrix(.55368 0 0 .55368 32.88 84.555)">
   <path d="m0 0c0-4.96 1.44-13.44 3.52-16.48 1.92-2.88 5.28-7.84 7.52-11.68 1.6-2.72-0.48-8.16-2.72-9.92-2.88-2.24-7.52-1.28-8.8 0.64-4.16 6.08-7.04 9.92-10.24 12.16-3.84 2.72-14.56 8.96-17.44 14.56-2.56 4.8 0.96 16.32 9.76 17.92 9.6 1.76 18.4-4.32 18.4-7.2z" fill="#6dba5a"/>
  </g>
  <g transform="matrix(.55368 0 0 .55368 70.53 82.872)">
   <path d="m0 0c-0.48-0.96-0.96-1.44-1.76-1.76-4-1.44-12.32-5.28-15.68-8.32-0.8-0.8-1.28-1.44-1.6-2.88-0.48-2.24-0.64-3.68-0.8-5.44-0.48-3.68-4.16-5.76-10.08-7.84-1.44 1.76-3.2 3.36-5.12 4.8-0.16 4.16-2.08 8.16-1.44 10.4 0.64 3.04 12.16 16 12.96 20.16 0.32 1.6 1.12 2.24 2.72 2.88 8.16 3.04 18.72 0.48 20.96-4.48 1.12-2.24 0.8-5.6-0.16-7.52z" fill="#6dba5a"/>
  </g>
  <g transform="matrix(.55368 0 0 .55368 57.95 52.397)">
   <path d="m0 0c-0.16 0.16-0.64 0.16-0.96 0.16 0.8 2.4 0.16 5.44-1.28 7.2 0.32 2.56 0.32 5.12 0 7.52-0.32 4-1.28 7.68-3.04 10.88 5.44 3.04 13.44 0.16 14.56-8.48 0.96-7.36-2.24-14.56-9.28-17.28z" fill="#6dba5a"/>
  </g>
  <g transform="matrix(.55368 0 0 .55368 55.115 66.749)">
   <path d="m0 0c0 2.4-0.32 5.76-1.92 8.8 1.12 1.44 3.52 2.4 5.12 2.24 0.32-3.2 1.6-7.2 3.36-10.24-2.24 0.48-4.64 0.32-6.56-0.8z" fill="#fff1ac"/>
  </g>
  <g transform="matrix(.55368 0 0 .55368 37.929 29.364)">
   <path d="m0 0c0.64-1.12 0.64-1.76-0.48-2.88-6.72-6.24-9.6-12.48-13.76-23.84-2.08-6.08-6.08-8.96-12.16-9.12-16.16-0.64-28.96 3.68-39.52 13.12 11.04-4.8 23.36-4.32 32.32 0.8 7.68 4.16 12.48 11.52 11.84 20.16 7.52-0.48 16.32 3.84 19.36 10.24 0.16-2.72 0.96-5.92 2.4-8.48z" fill="#eeeeef"/>
  </g>
  <g transform="matrix(.55368 0 0 .55368 44.307 37.869)">
   <path d="m0 0c0.64 6.08 10.08 10.72 16.32 4.64-0.48 4.48-6.56 9.6-12.64 7.52s-7.84-7.36-6.88-12.32c0.48 0.64 1.44 0.96 3.2 0.16z" fill="#5da24e"/>
  </g>
  <g transform="matrix(.55368 0 0 .55368 70.618 83.138)">
   <path d="m0 0 0.48 2.08c3.2 2.24 5.6 4.8 6.88 7.84-0.32-2.56-0.8-5.28-1.6-6.24-0.64-0.8-3.68-3.04-5.76-3.68z" fill="#eeeeef"/>
  </g>
  <g transform="matrix(.55368 0 0 .55368 61.139 65.951)">
   <path d="m0 0c-2.56 2.72-7.84 3.2-11.04 1.28 2.88-4.64 3.84-12.96 3.04-18.56 0.32 11.52 2.88 16.64 8 17.28z" fill="#5da24e"/>
  </g>
  <g transform="matrix(.55368 0 0 .55368 56.178 53.195)">
   <path d="M 0,0 C 0.96,0.16 1.76,0.32 2.56,0.8 2.56,2.72 2.08,4.32 0.96,5.76 0.8,4 0.32,1.44 0,0 Z" fill="#fff1ac"/>
  </g>
  <g transform="matrix(.55368 0 0 .55368 59.81 40.084)">
   <path d="m0 0c-2.72-2.88-6.56-7.68-9.92-9.92 0.32 1.44 0.48 3.52-0.16 4.8s-1.12 3.36 1.76 8.16c1.92 3.04 5.6 4.96 8.16 4.32 0.64-1.12 0.8-1.76 0.8-2.56-0.16-1.92-0.48-3.52-0.64-4.8z" fill="#dcd096"/>
  </g>
  <g transform="matrix(.55368 0 0 .55368 57.684 37.78)">
   <path d="m0 0c-1.76-1.92-3.68-4-6.08-5.76 0.32 2.08 0.32 3.68-0.16 4.96s-0.64 2.4-0.16 3.68c1.6-1.76 4.32-2.88 6.4-2.88z" fill="#5da24e"/>
  </g>
  <g transform="matrix(.55368 0 0 .55368 45.459 45.133)">
   <path d="m0 0c6.56 2.4 13.76-0.32 17.28-6.72-1.12-1.28-2.08-5.92-1.6-7.2 0.48-0.96 0.64-1.76 0.64-2.4-0.8 0-1.28 0-1.6 0.32-0.32 0.16-0.8 0.96-0.96 1.44 3.36 7.36-4.16 16.96-13.6 13.12-0.16 0.32-0.16 1.12-0.16 1.44z" fill="#5da24e"/>
  </g>
  <g transform="matrix(.55368 0 0 .55368 59.988 43.716)">
   <path d="m0 0c0.64 0.48 1.6 0.64 2.72 0.32-0.16-1.6-0.48-4-0.96-5.28-0.64-0.48-1.6-1.12-2.24-1.76 0.48 1.92 0.64 3.52 0.8 4.64 0 0.64 0.16 1.28-0.32 2.08z" fill="#5da24e"/>
  </g>
  <g transform="matrix(.55368 0 0 .55368 57.33 51.246)">
   <path d="m0 0c1.76 0.16 4.32-0.32 5.76-2.4-1.6 3.52-3.36 4.8-6.72 4.64-0.96 0-0.96-0.8-0.48-1.44 0.64 0 1.12-0.32 1.44-0.8z" fill="#5da24e"/>
  </g>
  <g transform="matrix(.55368 0 0 .55368 54.407 50.271)">
   <path d="M 0,0 C 2.56,0.16 5.44,0.48 6.56,-0.16 5.92,1.6 4.8,2.4 4,2.4 1.76,2.56 -1.12,2.4 -1.76,1.6 -1.28,1.12 -0.48,0.48 0,0 Z" fill="#5da24e"/>
  </g>
  <g transform="matrix(.55368 0 0 .55368 45.371 45.842)">
   <path d="m0 0c0 1.76 0.8 3.2 2.56 3.52 1.92 0.32 3.04 1.12 4.48 2.88 2.4 3.04 5.44 3.04 8 0.8s4.32-4.32 4.32-6.56c0.96 2.24-1.92 6.4-4.32 8.48-2.4 2.08-5.44 1.92-7.04 0.32s-2.4-2.56-3.04-3.52c-0.8-0.8-1.92-1.28-2.88-1.44-1.92-0.16-2.88-1.28-2.08-4.48z" fill="#5da24e"/>
  </g>
  <g transform="matrix(.55368 0 0 .55368 70.707 38.666)">
   <path d="m0 0c-0.8 2.24-2.56 3.52-3.84 4.16-1.44 0.8-2.08 0.32-2.56-0.64s-1.28-1.76-2.24-2.24c-3.04-1.76-7.2-4.64-8.64-5.6-1.44-0.8-2.56-1.28-4.16-1.6-4-0.64-7.52-1.6-8-2.4-0.8-0.96 1.92-6.4 2.24-8.32 0.48-2.08 0.16-3.04-1.28-4.64-3.04-3.04-7.36-6.72-7.2-7.52 4.32 2.72 7.2 4.96 8.96 6.72 1.92 1.92 2.72 4.32 2.4 6.56-0.64 3.68-0.32 4.48 3.04 6.24 1.6 0.8 2.72 1.6 4.64 3.04 2.08 1.44 3.52 2.56 5.28 3.84 1.44 0.96 2.88 1.6 4.16 1.28 1.76-0.32 3.2 0.16 3.68 2.4 0.16 0.64 2.08 0.64 3.52-1.28z" fill="#5da24e"/>
  </g>
  <g transform="matrix(.55368 0 0 .55368 66.809 33.528)">
   <path d="m0 0c0-1.12 1.28-0.96 1.92 0 0.48 0.96 0.64 1.76 1.12 2.24-1.44-0.48-2.88 0.16-3.84 0.96 0.48-0.96 0.64-2.24 0.8-3.2z" fill="#5da24e"/>
  </g>
  <g transform="matrix(.55368 0 0 .55368 62.468 17.936)">
   <path d="m0 0c0.48 2.72 0.96 6.56 0.96 8.8 0 1.76-0.8 2.24-2.4 2.08-0.48 0-1.28-0.16-1.92-0.16 1.44-3.04 2.08-5.12 2.72-9.12 0.32-1.12 0.48-1.6 0.64-1.6z" fill="#5da24e"/>
  </g>
  <g transform="matrix(.55368 0 0 .55368 65.834 41.058)">
   <path d="m0 0c-3.84 2.4-7.84-0.8-12.32-10.24-3.68-0.64-8-1.6-8.32-2.4-0.16-0.16-0.16-0.48 0-0.8-0.8 0-1.44 0-2.56 0.16 3.36 2.08 8.16 6.72 10.72 9.76 3.2 4.16 9.12 7.52 10.72 6.72 0.64-0.32 1.44-1.44 1.76-3.2z" fill="#5da24e"/>
  </g>
  <g transform="matrix(.55368 0 0 .55368 -110.99 -309.84)">
   <path d="m297.44 618.72 0.48001 1.6h0.63999l0.16-0.47998z" fill="#5da24e"/>
  </g>
  <g transform="matrix(.55368 0 0 .55368 54.052 19.62)">
   <path d="M 0,0 C 1.28,2.08 4.16,5.6 7.2,8.32 5.44,7.68 3.36,7.04 1.6,6.56 0.8,4.8 -0.16,0.8 0,0 Z" fill="#5da24e"/>
  </g>
  <g transform="matrix(.55368 0 0 .55368 54.407 33.351)">
   <path d="m0 0c0.48-1.76 1.76-4.96 2.24-6.88 0.48-2.08 0.32-3.04-0.64-4-0.8-0.96-1.76-1.92-2.88-3.04-0.32 1.28-0.48 1.92-0.48 2.72-0.16 1.12-0.48 1.28-1.28 1.28-2.08-0.16-4.16 0-5.28 0.32 1.76 1.12 3.68 3.04 4.96 4.48-1.28 0.16-2.56 0.48-3.52 0.8 2.24 1.12 4.96 2.72 6.88 4.32z" fill="#5da24e"/>
  </g>
  <g transform="matrix(.55368 0 0 .55368 64.151 38.223)">
   <path d="m0 0c-2.72-0.64-4.48 0.48-4.64 2.4-1.76-2.08-3.84-5.28-4.64-7.52 1.28 0.16 2.24 0.64 3.36 1.28 1.28 0.8 3.36 2.24 5.92 3.84z" fill="#ce7486"/>
  </g>
  <g transform="matrix(.55368 0 0 .55368 62.114 30.693)">
   <path d="M 0,0 C 1.92,2.08 4.8,5.44 6.72,8.32 5.28,4.64 2.4,0.48 0.32,-1.28 0.16,-1.12 0,-0.64 0,0 Z" fill="#dbdcdc"/>
  </g>
  <g transform="matrix(.55368 0 0 .55368 -110.99 -309.84)">
   <path d="m318.24 630.08c-0.47998 0.63995-0.79999 1.28-1.12 2.08-0.32001-0.31994-0.16001-1.6 0.16-2.72z" fill="#dbdcdc"/>
  </g>
  <g transform="matrix(.55368 0 0 .55368 81.869 8.6346)">
   <path d="m0 0c-5.76 20.48-12.96 38.72-22.72 47.36l0.8 1.12c13.44-12.48 19.52-36.16 23.04-51.04-0.16 0-0.64 0.48-1.12 2.56z" fill="#5da24e"/>
  </g>
  <g transform="matrix(.55368 0 0 .55368 81.515 8.2802)">
   <path d="m0 0c-2.56 8.96-12.32 33.6-22.08 34.24 1.44-3.36 3.52-17.12 3.68-19.36-1.92 5.92-7.36 9.76-12 9.6 0.64 1.6 1.28 3.36 1.6 4.96 1.6-1.76 3.2-3.04 3.36-2.88 0.32 0.16 0 5.28-0.16 6.72 2.72 3.68 4 8.16 3.2 11.68-0.32 1.12-0.32 2.08 0.32 3.04 11.52-9.76 18.88-34.4 23.04-48.48z" fill="#dcd096"/>
  </g>
  <g transform="matrix(.55368 0 0 .55368 47.319 33.617)">
   <path d="m0 0c1.44-0.16 3.04 0 4.48 0.64-1.6-8.96-8.16-23.36-12.64-28-5.28-5.6-28.32-23.68-35.84-28.96l0.16 1.28c14.88 11.36 24.64 21.12 31.84 32 1.76 2.56 3.04 5.6 3.36 8.96 2.56 3.04 6.72 9.28 8.64 14.08z" fill="#dcd096"/>
  </g>
  <g transform="matrix(.55368 0 0 .55368 1.6078 16.519)">
   <path d="m0 0c8.8-9.44 22.88-15.2 40.96-14.4 4.64 0.16 9.92 2.56 12 9.44 2.56 8.32 6.56 18.72 12.8 24 1.76 1.28 2.4 2.72 1.44 4.64-0.96 1.92-1.6 4.16-1.76 6.24-0.16 3.04 1.44 4.64 5.6 1.12-1.6 2.4-3.36 4.32-4.64 5.12-1.44 1.28-2.88 0.16-3.04-1.6-0.48-4.32 0.48-8.48 2.24-11.36 0.8-1.12 0.48-2.08-0.96-3.2-4.32-3.84-9.44-11.68-13.28-23.68-1.92-6.08-6.88-8.64-10.88-8.96-14.4-1.12-28.8 2.72-40.48 12.64z" fill="#5da24e"/>
  </g>
  <g transform="matrix(.55368 0 0 .55368 2.2279 16.342)">
   <path d="m0 0c11.52-7.68 23.84-10.08 38.08-9.28 4.32 0.32 7.68 2.24 9.28 6.88 2.56 7.68 4.8 12.48 8.48 18.08 2.56 3.84 2.08 7.68 0 9.44 2.24 1.76 4.64 3.84 6.24 6.72 0.16-2.24 1.44-6.72 2.56-8.48 0.64-0.96 0.16-1.76-0.8-2.72-6.08-6.08-10.56-13.76-13.6-23.84-1.76-6.08-5.92-8.8-12-9.12-15.36-0.96-30.4 4.16-38.24 12.32z" fill="#c8c9ca"/>
  </g>
  <g transform="matrix(.55368 0 0 .55368 -110.99 -309.84)">
   <path d="m302.56 671.36c2.56-0.64001 2.56-4.32 0.64001-5.76 0 2.08-0.16 4.64-0.64001 5.76z" fill="#dcd096"/>
  </g>
  <g transform="matrix(.55368 0 0 .55368 49.003 50.271)">
   <path d="m0 0c-7.2 13.28-0.48 25.6 3.52 26.4 2.4 0.64 7.52-1.12 10.08-5.28-1.12 7.84-5.28 14.08-12.16 17.92-0.96 0.32-1.44 0.16-2.08-0.16-7.36-4.64-11.2-14.72-10.24-24.64 0.64-6.4 3.2-12.48 8-17.28 0.96 0.16 2.08 2.08 2.88 3.04z" fill="#5da24e"/>
  </g>
  <g transform="matrix(.55368 0 0 .55368 57.596 67.28)">
   <path d="m0 0c-0.96 2.24-2.56 7.52-2.72 10.08-1.44-0.32-2.4-0.96-3.68-2.24 1.12-2.4 1.76-5.12 1.76-8.96 1.28 0.8 3.04 1.12 4.64 1.12z" fill="#dcd096"/>
  </g>
  <g transform="matrix(.55368 0 0 .55368 33.677 70.204)">
   <path d="m0 0c-3.36 4.96-5.44 12.48-6.4 18.72-0.96 5.28-4.48 9.12-11.84 8.16-8.16-1.28-10.88-8.48-9.76-14.08-0.64 0.8-1.28 1.6-1.6 2.4-2.56 4.8 0.96 16.32 9.76 17.92 9.6 1.76 18.4-4.32 18.4-7.2 0-4.96 1.44-13.44 3.52-16.48 1.76-2.4 4.64-6.88 6.72-10.24-2.08 0.96-5.28 1.12-7.36 0.32-0.8-0.32-1.12-0.16-1.44 0.48z" fill="#5da24e"/>
  </g>
  <g transform="matrix(.55368 0 0 .55368 67.518 83.492)">
   <path d="m0 0c-3.2-0.8-9.28-3.52-13.76-6.24-4.64-3.04-7.04-6.56-6.88-12.8-3.04-0.32-4.96-3.2-5.28-6.72-1.12 1.12-2.24 2.24-3.68 3.2-0.16 4.16-2.08 8.16-1.44 10.4 0.64 3.04 12.16 16 12.96 20.16 0.32 1.6 1.12 2.24 2.72 2.88 6.88 2.56 15.52 1.12 19.36-2.4 0.8-4.32-1.12-7.84-4-8.48z" fill="#5da24e"/>
  </g>
  <g transform="matrix(.55368 0 0 .55368 34.917 20.24)">
   <path d="m0 0c3.2 6.24 8.16 12.16 12.32 12.48 2.88 0.16 2.08 3.2 1.6 5.76-1.28 6.88-3.2 14.56-10.56 13.12 2.24 1.76 7.36 4.48 10.4 5.44-1.76-4.48 2.08-12.16 8.64-12.64-4.48-11.84-12.96-20-22.4-24.16z" fill="#dcd096"/>
  </g>
  <g transform="matrix(.55368 0 0 .55368 61.671 41.59)">
   <path d="m0 0c-0.32-0.32-0.8-0.64-1.28-0.96 0.48 2.08 1.28 6.24 1.28 9.6 0.16 1.44-1.6 5.76-2.56 7.68 3.04 1.28 8-0.16 10.08-3.2 0.48-1.12 0.64-2.4 0.64-3.84-4.64-0.32-7.84-5.28-8.16-9.28z" fill="#5da24e"/>
  </g>
  <g transform="matrix(.55368 0 0 .55368 65.923 35.3)">
   <path d="m0 0c-1.28-0.8-2.72-0.96-3.84-1.76-0.48-1.28 0-2.88 1.12-3.04 0.8 1.28 1.6 2.24 2.72 4.8z" fill="#0f141b"/>
  </g>
  <g transform="matrix(.55368 0 0 .55368 64.683 33.705)">
   <path d="m0 0c-0.16 0.32-0.48 0.48-0.8 0.32s-0.48-0.48-0.32-0.8 0.64-0.48 0.96-0.32c0.16 0.16 0.32 0.48 0.16 0.8z" fill="#fff"/>
  </g>
  <g transform="matrix(.55368 0 0 .55368 68.138 38.4)">
   <path d="m0 0c0.32 0.32 0.64 0.64 0.64 1.12 0.16 0.32 0.64 0.32 0.48-0.16s-0.48-0.96-0.96-1.28c-0.48-0.16-0.48 0-0.16 0.32z" fill="#0f141b"/>
  </g>
  <g transform="matrix(.55368 0 0 .55368 65.746 35.388)">
   <path d="m0 0c-1.76-4-4.64-8-8.16-11.36-0.96-1.12-0.64-1.44 0.32-0.48 3.68 3.36 6.56 7.36 8.32 11.68 0.64 1.28 0.16 1.44-0.48 0.16z" fill="#0f141b"/>
  </g>
  <g transform="matrix(.55368 0 0 .55368 60.696 23.606)">
   <path d="m0 0c-3.2-0.48-11.52-7.04-11.84-6.88-0.16 0 0.48 2.72 1.92 6.4l-0.8-0.16c-1.12-3.2-2.24-6.72-1.6-7.04 0.64-0.48 9.6 6.88 12.64 7.04z" fill="#0f141b"/>
  </g>
  <g transform="matrix(.55368 0 0 .55368 52.28 30.605)">
   <path d="m0 0c-1.12-1.28-2.56-2.88-4.16-4-0.8-0.64-0.8-0.8 0.16-0.96 1.12-0.32 2.88-0.48 4.8-0.32 0.8 0 0.8-0.16 0.96-0.96 0-0.8 0.16-1.76 0.48-2.88l0.64 0.48c-0.32 1.12-0.48 1.6-0.48 2.56-0.16 1.12-0.48 1.44-1.6 1.44-2.24-0.16-3.52 0-4.48 0.16 1.44 0.96 3.2 2.72 4.48 4.32z" fill="#0f141b"/>
  </g>
  <g transform="matrix(.55368 0 0 .55368 54.407 33.794)">
   <path d="m0 0h-1.76c2.72 1.6 6.88 5.6 9.92 9.12 3.52 4.16 8.32 7.2 10.56 6.88 0.8-0.16 1.76-2.24 2.08-5.76l0.64 0.32c-0.32 3.36-1.28 5.92-2.56 6.08-2.56 0.48-7.04-2.24-11.2-7.04-3.04-3.52-6.88-7.52-10.08-9.28-0.8-0.48-0.96-0.64 0.16-0.8 0.64-0.16 1.28-0.16 1.92-0.16-1.76-1.44-4-2.88-6.24-4-0.8-0.48-0.8-0.8 0.16-0.96 1.92-0.48 4.32-0.8 6.4-0.64 1.12 0 1.12 0.48 0 0.48-2.08 0-4.48 0.32-6.08 0.64 1.92 0.96 4.16 2.4 6.4 4.16z" fill="#0f141b"/>
  </g>
  <g transform="matrix(.55368 0 0 .55368 65.923 39.463)">
   <path d="m0 0c-1.12 0.96-2.24 1.76-2.72 1.44-0.32-0.16-0.16-1.6 0.32-3.04l0.48 0.32c-0.32 0.96-0.48 2.24-0.48 2.24 0.16 0.16 1.12-0.48 1.92-1.28z" fill="#0f141b"/>
  </g>
  <g transform="matrix(.55368 0 0 .55368 65.303 39.818)">
   <path d="m0 0c-0.16 1.12-0.48 2.24-0.8 3.04h-0.64c0.32-0.8 0.64-1.76 0.64-2.56z" fill="#0f141b"/>
  </g>
  <g transform="matrix(.55368 0 0 .55368 59.19 35.477)">
   <path d="m0 0c4.8 9.12 8.32 11.04 10.4 10.56 0.96-0.32 1.12 0.16 0.16 0.48-2.56 0.8-6.56-1.6-11.52-11.2z" fill="#0f141b"/>
  </g>
  <g transform="matrix(.55368 0 0 .55368 67.163 26.707)">
   <path d="m0 0c0.48-1.92 0.8-6.08 0.48-6.4-0.32-0.16-1.92 1.44-3.36 3.04l-0.16-0.64c1.28-1.44 3.2-3.52 3.84-3.04 0.8 0.32 0.16 5.44-0.32 7.68z" fill="#0f141b"/>
  </g>
  <g transform="matrix(.55368 0 0 .55368 64.24 20.86)">
   <path d="m0 0c2.56-5.76 7.2-11.68 12.64-16.64 0.96-0.8 1.12-0.64 1.12 0.48-0.16 5.92-0.64 10.88-1.44 14.08l-1.12 1.44c1.12-4.96 1.6-9.76 1.92-15.52-5.12 4.96-9.76 11.04-12.64 17.12z" fill="#0f141b"/>
  </g>
  <g transform="matrix(.55368 0 0 .55368 69.998 35.92)">
   <path d="m0 0c9.28-7.84 18.72-28.96 22.4-50.08 0.16-1.6 0-1.6-0.48 0-3.2 11.68-12 40-22.88 48.48l-0.48-0.64c10.72-8.64 19.52-36.32 22.88-48 0.8-2.88 1.92-2.56 1.44 0.16-3.68 21.92-12.96 43.04-22.4 50.88z" fill="#0f141b"/>
  </g>
  <g transform="matrix(.55368 0 0 .55368 82.046 8.103)">
   <path d="m0 0c-8.32 6.88-17.12 16.96-26.08 30.4v-1.44c8.48-12.96 17.76-23.2 26.24-29.92z" fill="#0f141b"/>
  </g>
  <g transform="matrix(.55368 0 0 .55368 54.584 34.768)">
   <path d="m0 0c0.32 1.76 0.16 3.36-0.32 4.8-0.64 1.44-0.64 2.4 0 4 0.48 1.28 0.8 2.24 1.6 3.52 0.32 0.32 0.48 0.8 0.48 1.44v2.72c0 0.96 0.16 1.6 0.64 2.24 0.8 1.12 1.12 3.52 0.48 5.12-1.28 2.72-2.72 4.32-4.64 5.92-1.76 1.76-5.44 1.28-6.56 0.32-1.28-0.96-2.24-2.08-3.2-3.36-0.96-1.12-1.6-1.6-2.72-1.76-2.08-0.32-3.04-1.12-3.04-2.88s0.16-3.2 0.64-4.96l0.64 0.32c-0.32 1.6-0.48 2.88-0.48 4.64 0 1.28 0.64 1.92 2.4 2.24 1.28 0.16 2.08 0.8 3.04 1.92 0.96 1.28 2.08 2.4 3.04 3.2 1.12 0.96 4.32 1.28 5.76-0.16 1.76-1.76 3.2-3.2 4.48-5.76 0.64-1.6 0.32-3.52-0.32-4.48-0.64-0.64-0.8-1.44-0.8-2.56v-2.72c-0.16-0.64-0.16-0.8-0.48-1.12-0.64-1.28-1.12-2.24-1.6-3.52-0.64-1.6-0.64-3.04 0-4.64 0.48-1.44 0.48-3.2 0.16-5.12z" fill="#0f141b"/>
  </g>
  <g transform="matrix(.55368 0 0 .55368 53.786 33.617)">
   <path d="m0 0c-0.16-0.48-0.48-1.12-0.64-1.6l0.96 0.48c0.16 0.48 0.16 0.8 0.32 1.12z" fill="#0f141b"/>
  </g>
  <g transform="matrix(.55368 0 0 .55368 59.81 40.261)">
   <path d="m0 0c-0.96-0.16-1.6 0.32-1.6 1.28-0.16 1.28-0.48 1.28-0.48 0 0-1.12 0.64-2.08 1.76-1.92z" fill="#0f141b"/>
  </g>
  <g transform="matrix(.55368 0 0 .55368 53.521 51.069)">
   <path d="m0 0c0.48 0.48 1.92 0.96 5.44 0.64 0.64 0 0.96-0.16 1.44-0.64 0.8-0.8 1.6-3.04 2.24-4.64 0.16-0.8 0-1.12-0.8-1.12s-2.72-0.16-3.84-0.16l0.16-0.64c1.12 0 2.88 0.16 3.68 0.16 1.12 0.16 1.76 0.64 1.28 1.92-0.48 1.6-1.44 4-2.24 4.96-0.64 0.64-1.12 0.8-1.92 0.8-3.04 0.16-5.28 0-5.92-0.8z" fill="#0f141b"/>
  </g>
  <g transform="matrix(.55368 0 0 .55368 56.001 51.6)">
   <path d="m0 0c1.6 5.12 2.24 11.04 1.76 16.32-0.8 9.28-5.28 16.48-12.8 20.64-0.96 0.48-1.6 0.32-2.4-0.16-7.2-4.48-11.68-14.72-10.56-25.12 0.64-6.88 3.52-12.96 8-17.28l0.8 0.32c-4.48 4.48-7.2 10.56-7.84 17.12-1.12 10.24 2.88 19.68 9.92 24.32 0.64 0.48 0.96 0.48 1.76 0 7.36-4 11.36-10.88 12.16-19.84 0.48-5.28-0.16-11.04-1.6-16.16z" fill="#0f141b"/>
  </g>
  <g transform="matrix(.55368 0 0 .55368 55.115 66.483)">
   <path d="m0 0c5.28 3.04 12.96 0.16 13.92-8.32 1.12-8-2.88-14.56-9.28-16.96l0.96-0.32c6.4 2.56 10.24 9.28 9.12 17.44-1.12 9.44-9.76 11.84-15.2 8.8z" fill="#0f141b"/>
  </g>
  <g transform="matrix(.55368 0 0 .55368 57.684 52.486)">
   <path d="m0 0c0.8 2.56 0.16 5.92-1.76 7.68l-0.16-0.96c1.44-1.76 1.76-4.48 1.12-6.72z" fill="#0f141b"/>
  </g>
  <g transform="matrix(.55368 0 0 .55368 57.596 53.903)">
   <path d="m0 0c-0.64-0.48-1.44-0.8-2.4-0.8l-0.16-0.64c0.96 0 1.76 0.16 2.56 0.64z" fill="#0f141b"/>
  </g>
  <g transform="matrix(.55368 0 0 .55368 56.798 61.522)">
   <path d="m0 0c1.44-0.64 1.6-3.04 0.32-4.32v-0.96c2.24 1.44 2.24 5.28-0.48 6.24z" fill="#0f141b"/>
  </g>
  <g transform="matrix(.55368 0 0 .55368 56.267 53.549)">
   <path d="m0 0c-0.32 0.96-0.96 1.92-1.6 2.56-0.8 0.8-3.68 0.8-4.64-0.16-1.6-1.28-3.2-4-4.16-6.08l0.96 0.16c0.8 1.92 2.24 4 3.68 5.28 0.96 0.96 3.2 0.8 3.68 0.16 0.8-0.64 1.6-2.24 1.92-3.36z" fill="#0f141b"/>
  </g>
  <g transform="matrix(.55368 0 0 .55368 56.09 64.091)">
   <path d="m0 0c-1.92 2.4-5.44 4.16-8 4.16-4 0-8.64-2.88-12-6.88l0.64-0.48c3.2 4 7.84 6.72 11.52 6.72 2.4 0 6.56-2.24 8.32-5.12z" fill="#0f141b"/>
  </g>
  <g transform="matrix(.55368 0 0 .55368 52.989 36.806)">
   <path d="m0 0c0.32-0.64 0.64-1.12 0.96-1.28s1.12-0.32 1.76-0.32v0.64c-0.64 0.16-1.28 0.16-1.44 0.32-0.32 0-0.64 0.64-0.96 1.6z" fill="#0f141b"/>
  </g>
  <g transform="matrix(.55368 0 0 .55368 43.776 35.831)">
   <path d="m0 0c-3.84 4.8-2.08 11.04 1.6 13.92 3.84 3.04 10.08 2.56 13.44-1.92 3.36-4.16 2.72-10.08-1.6-13.44-4.16-3.36-10.4-2.56-13.44 1.44zm1.12 14.56c-4-3.04-5.76-9.92-1.76-15.2 3.2-4 9.92-5.12 14.56-1.44 4.64 3.52 5.28 10.24 1.76 14.72-3.68 4.8-10.4 5.12-14.56 1.92z" fill="#0f141b"/>
  </g>
  <g transform="matrix(.55368 0 0 .55368 38.992 26.087)">
   <path d="m0 0c-6.24-4.96-9.44-13.44-12.32-21.92-2.4-7.52-7.84-12-16.8-11.68-17.92 0.64-30.08 6.72-36.8 14.72 9.12-7.68 21.28-12.16 37.6-11.52 6.56 0.32 10.4 3.2 12.64 9.44 4 11.2 6.88 17.44 13.44 23.68 1.28 1.28 1.44 2.24 0.64 3.52-2.24 4-2.72 9.44-1.92 11.68 0.64 1.44 1.44 1.44 2.72 0.32 3.52-3.04 6.88-8.64 7.36-12.8 0.32-1.76-0.16-2.88-2.24-3.2-1.76-0.16-2.56-0.8-4.32-2.24zm0.48-0.64c1.76 1.44 2.56 1.92 4 2.08 2.24 0.32 3.2 1.6 2.88 4.16-0.48 4.32-3.84 10.08-7.84 13.28-1.76 1.44-3.04 1.12-3.68-0.64-0.96-2.24-0.64-8 1.92-12.48 0.48-0.8 0.64-1.44-0.48-2.4-6.72-6.24-9.6-12.48-13.76-24-2.08-5.6-5.44-8.64-12-8.8-14.72-0.64-27.04 3.04-37.28 11.52-2.88 2.24-3.36 1.92-1.12-0.96 7.04-9.12 20.8-14.88 37.76-15.52 8.8-0.32 14.88 3.68 17.6 12.16 2.88 8.8 6.08 16.8 12 21.6z" fill="#0f141b"/>
  </g>
  <g transform="matrix(.55368 0 0 .55368 37.752 29.807)">
   <path d="m0 0c-3.68-4.8-8-8.48-13.6-8.96-0.8 0-0.96-0.16-1.12-0.96-3.68-13.6-19.52-22.56-33.44-20.16-2.24 0.32-2.24-0.16 0-0.64 11.68-2.24 28.8 3.84 33.92 19.84 0.32 0.96 0.32 1.12 1.12 1.12 4.96 0.32 10.08 4.48 13.6 8.96z" fill="#0f141b"/>
  </g>
  <g transform="matrix(.55368 0 0 .55368 36.6 34.502)">
   <path d="m0 0c-3.04-6.56-11.04-10.88-18.72-10.72-0.96 0-1.12 0-0.96-0.8 0.48-7.68-4-15.04-11.84-19.36-9.12-5.12-20.96-5.28-31.84-0.96l0.32-0.8c10.56-4.32 22.88-4.16 32 0.96 8.16 4.48 12.8 12.16 12.16 20.16 7.52-0.32 16 4.16 19.04 9.92z" fill="#0f141b"/>
  </g>
  <g transform="matrix(.55368 0 0 .55368 60.253 50.448)">
   <path d="m0 0c4 1.28 8.32-0.48 10.24-3.84 2.08-3.68 1.6-8.16-0.8-11.04l0.32-0.96c3.04 3.52 3.36 8.48 1.28 12.48-2.4 4-7.52 5.44-11.36 4z" fill="#0f141b"/>
  </g>
  <g transform="matrix(.55368 0 0 .55368 49.977 27.947)">
   <path d="m0 0c-2.56-7.52-5.92-14.24-9.6-18.72-4-4.96-25.12-20.48-38.24-28.32-2.4-1.28-3.04-0.8-0.96 0.64 12.8 9.44 33.28 25.12 36.8 29.76 5.12 6.72 10.08 17.6 12.16 27.68l-0.8-0.32c-2.24-9.76-6.88-20.32-12-26.88-3.52-4.48-23.84-20.32-36.48-29.76-2.72-1.92-1.6-3.52 1.6-1.6 13.44 7.84 34.24 23.04 38.56 28.32 3.68 4.48 7.04 11.36 9.76 19.2z" fill="#0f141b"/>
  </g>
  <g transform="matrix(.55368 0 0 .55368 50.863 30.782)">
   <path d="m0 0c-0.48-1.44-0.8-3.04-1.44-4.48l1.12 0.8c0.32 1.12 0.8 2.4 1.12 3.68z" fill="#0f141b"/>
  </g>
  <g transform="matrix(.55368 0 0 .55368 51.483 31.402)">
   <path d="m0 0c0.64 2.72 1.28 5.44 1.76 8.32l-0.96-1.12c-0.48-2.56-1.12-5.12-1.76-7.68z" fill="#0f141b"/>
  </g>
  <g transform="matrix(.55368 0 0 .55368 24.286 7.3057)">
   <path d="m0 0c-1.28-2.72-2.08-5.76-3.04-9.28l0.8 0.64c0.96 3.36 1.76 6.08 3.04 8.64z" fill="#0f141b"/>
  </g>
  <g transform="matrix(.55368 0 0 .55368 47.054 33.705)">
   <path d="m0 0c-4.64-11.36-11.68-19.04-21.76-23.84l-0.48-0.96c10.72 4.64 18.4 12.8 23.04 24.8z" fill="#0f141b"/>
  </g>
  <g transform="matrix(.55368 0 0 .55368 42.624 40.969)">
   <path d="m0 0c-4.64-1.76-10.24-4.96-12.32-7.04-2.08-1.92-4.48-8.16-6.24-12.96l0.96 0.48c1.6 4 4 10.08 5.92 11.84 1.76 1.92 7.2 4.96 11.52 6.72z" fill="#0f141b"/>
  </g>
  <g transform="matrix(.55368 0 0 .55368 53.875 71.444)">
   <path d="m0 0c1.6-3.2 1.76-6.72 1.76-8.64l0.8 0.32c0 2.24-0.32 5.92-2.08 8.96z" fill="#0f141b"/>
  </g>
  <g transform="matrix(.55368 0 0 .55368 59.013 67.103)">
   <path d="m0 0c-1.76 3.04-3.04 7.2-3.52 10.4l-0.8 0.16c0.32-3.2 1.6-7.2 3.36-10.24z" fill="#0f141b"/>
  </g>
  <g transform="matrix(.55368 0 0 .55368 53.609 71.267)">
   <path d="m0 0c-0.48-1.12 0-1.28 0.48-0.32 0.8 1.44 2.56 2.88 4.16 3.2 0.8 0.16 1.76 0.16 2.08-0.48 0.8-0.96 1.12-0.64 0.32 0.64-0.64 0.64-1.28 0.8-2.56 0.48-1.76-0.32-3.68-1.76-4.48-3.52z" fill="#0f141b"/>
  </g>
  <g transform="matrix(.55368 0 0 .55368 57.596 69.761)">
   <path d="m0 0c2.4 1.44 3.68 3.04 3.84 5.28 0.32 1.92 0.48 3.2 0.96 5.44 0.32 1.28 0.64 1.76 1.44 2.56 3.36 3.2 12 6.88 15.36 8.16 0.96 0.32 1.6 0.96 2.08 1.92 1.12 2.08 1.44 5.44 0.32 8-2.72 5.76-13.92 7.68-21.6 4.8-1.76-0.64-2.56-1.44-3.04-3.2-0.8-4.32-12.32-17.12-12.96-20-0.64-2.4 1.44-7.04 1.44-10.56l0.96-0.48c0.16 4-2.08 8.48-1.44 10.72 0.64 2.88 12.32 15.84 12.96 20 0.32 1.28 0.8 1.92 2.4 2.56 7.84 2.88 18.08 0.64 20.32-4.32 0.96-2.08 0.8-5.12-0.16-7.04-0.32-0.8-0.64-1.12-1.6-1.44-3.52-1.28-12.16-5.28-15.52-8.32-1.12-0.96-1.44-1.76-1.92-3.2-0.48-2.24-0.64-3.68-0.8-5.6-0.16-1.76-1.28-3.2-3.2-4.48z" fill="#0f141b"/>
  </g>
  <g transform="matrix(.55368 0 0 .55368 54.849 68.963)">
   <path d="m0 0c-0.48-0.32-1.12-0.48-1.92-0.8l0.64-0.8c0.48 0.32 0.96 0.48 1.44 0.64z" fill="#0f141b"/>
  </g>
  <g transform="matrix(.55368 0 0 .55368 74.516 88.541)">
   <path d="m0 0c-0.32-2.56-1.12-4.96-1.6-5.76-0.64-0.96-3.04-2.56-5.28-3.52l-0.32-1.12c2.56 0.96 5.44 3.04 6.24 4.16 0.96 1.12 1.6 4.96 1.92 8.16z" fill="#0f141b"/>
  </g>
  <g transform="matrix(.55368 0 0 .55368 34.651 75.253)">
   <path d="m0 0c1.92-2.88 5.6-8.32 7.36-11.52 1.6-2.56-0.48-7.84-2.56-9.44-2.88-2.08-7.2-0.96-8.16 0.64-4.16 5.92-7.04 9.92-10.4 12.16-3.84 2.72-14.4 9.12-17.28 14.4-2.4 4.64 1.12 15.84 9.6 17.28 9.44 1.76 17.6-4.32 17.76-6.88 0-4.64 1.6-13.44 3.68-16.64zm0.64 0.64c-2.08 3.04-3.36 11.52-3.36 16.16 0 3.36-9.12 9.44-18.88 7.68-9.12-1.6-12.96-13.6-10.24-18.72 2.88-5.44 13.76-11.84 17.6-14.56 3.36-2.4 6.08-6.24 10.08-12.16 1.44-1.92 6.56-3.04 9.44-0.8 2.4 1.92 4.8 7.52 2.88 10.72s-5.44 8.64-7.52 11.68z" fill="#0f141b"/>
  </g>
  <g transform="matrix(.55368 0 0 .55368 62.468 30.073)">
   <path d="m0 0c-0.48 0.64-0.64 1.6-0.8 2.56 0 1.12-0.48 1.12-0.48-0.16 0-0.96 0.32-2.08 0.8-2.88z" fill="#0f141b"/>
  </g>
  <g transform="matrix(.55368 0 0 .55368 66.366 34.945)">
   <path d="m0 0c0.48-0.8 0.64-1.44 0.64-2.24 0.16-0.8 0.64-0.8 0.48 0 0 0.96-0.32 1.76-0.8 2.4-0.48 0.8-0.64 0.64-0.32-0.16z" fill="#0f141b"/>
  </g>
  <g transform="matrix(.55368 0 0 .55368 68.404 34.68)">
   <path d="m0 0c-0.64-0.48-0.96-0.96-1.28-1.76-0.32-0.64 0.16-0.8 0.48-0.16s0.48 1.12 1.12 1.6c0.32 0.48 0.16 0.64-0.32 0.32z" fill="#0f141b"/>
  </g>
  <g transform="matrix(.55368 0 0 .55368 66.012 35.477)">
   <path d="m0 0c-2.72-1.12-4.64-2.08-6.08-3.04-0.96-0.64-1.28-1.12-1.44-1.76-0.32-0.8 0-0.96 0.32 0 0.32 0.48 0.48 0.64 1.44 1.28 1.28 0.96 3.2 1.92 5.44 2.88z" fill="#0f141b"/>
  </g>
  <g transform="matrix(.55368 0 0 .55368 56.798 51.6)">
   <path d="m0 0c-0.16 0.32-0.32 0.48-0.48 0.8s0 0.48 0.32 0.48c0.64 0 1.6 0 2.4-0.16 0.96-0.32 2.56-1.28 3.36-2.72 1.44-2.56 2.88-6.24 2.88-8.16 0.16-2.24-0.64-6.72-1.44-9.76l0.8 0.64c0.64 2.56 1.44 7.04 1.28 9.28 0 2.08-1.6 6.08-2.88 8.32-1.28 1.92-2.72 2.72-3.84 3.04-0.64 0.16-1.92 0.32-2.72 0.16-0.8 0-1.12-0.8-0.8-1.44l0.32-0.32z" fill="#0f141b"/>
  </g>
  <g transform="matrix(.55368 0 0 .55368 58.216 47.702)">
   <path d="m0 0c0.32-0.96 0.48-1.76 0.32-2.72 0-0.64 0.16-0.96 0.48-1.44 0.96-1.28 1.44-2.08 2.08-3.2 0.32-0.64 0.32-0.96 0.32-1.6-0.16-1.28-0.48-3.36-0.8-5.28l0.8 0.64c0.16 1.76 0.48 3.36 0.64 4.48 0 0.96 0 1.28-0.48 2.08-0.48 1.28-1.12 1.92-2.08 3.2-0.32 0.48-0.32 0.64-0.32 1.12 0.16 0.96 0 1.92-0.32 2.88z" fill="#0f141b"/>
  </g>
  <g transform="matrix(.55368 0 0 .55368 59.279 35.654)">
   <path d="m0 0c-4.16-0.8-8.48-1.44-9.28-2.72-0.48-1.12 1.92-5.76 2.4-8.48 0.48-2.08 0.16-2.72-0.64-3.68-1.92-2.24-5.28-5.28-7.36-7.52-0.8-0.96-0.8-1.44 0.64-1.44 2.56 0.16 8.48 1.6 11.52 2.88 1.92-0.64 4.64-0.8 6.56-0.64 1.44 0.16 1.44 0.64 0 0.48-1.76 0-4.32 0.32-6.24 0.8-0.32 0-0.48 0-0.64-0.16-2.88-1.12-8.16-2.56-10.88-2.72-0.8 0-0.8 0-0.32 0.64 2.24 2.24 5.44 5.12 7.36 7.2 0.96 1.28 1.12 2.24 0.64 4.32-0.64 2.72-2.72 7.36-2.24 8 0.32 0.8 4.32 1.6 8.64 2.4 0.96 0.16 1.92 0.64 3.04 1.28 2.56 1.6 6.72 4.64 9.6 6.24 0.64 0.48 0.96 0.8 1.6 1.76 0.64 1.12 0.96 1.28 2.24 0.8 2.24-0.8 4-4 3.84-5.76-0.16-1.28-1.28-2.88-2.72-4.96-0.64-0.96-0.64-1.76-0.48-2.72 1.28-4.96-1.12-10.72-6.08-14.72l-0.16-0.16c-0.48-4.16-2.88-9.28-4.96-12.48-0.32-0.48-0.32-0.48-0.48 0-0.32 1.92-1.12 7.36-2.88 9.92l-0.8 0.16c2.08-3.2 2.72-8.48 3.2-10.4 0.32-1.28 0.8-1.12 1.44-0.16 2.24 3.36 4.48 8.32 5.12 12.64 5.12 4.16 7.52 9.92 6.24 15.36-0.16 0.8 0 1.44 0.48 2.24 1.28 1.92 2.72 3.84 2.88 5.28 0.16 2.08-1.76 5.44-4.48 6.4-1.28 0.48-1.92 0.32-2.88-1.12-0.48-0.8-0.8-1.12-1.44-1.6-2.72-1.44-6.88-4.48-9.6-6.08-1.12-0.8-1.76-1.12-2.88-1.28z" fill="#0f141b"/>
  </g>
  <g transform="matrix(.55368 0 0 .55368 56.798 59.13)">
   <path d="m0 0c-0.96 0.32-1.76 0.16-3.2-0.64-1.92-1.28-3.36-1.6-6.88-0.64-3.2 0.8-5.44 0.64-6.88-0.48v-0.8c1.28 1.12 3.68 1.44 6.72 0.64 3.84-0.96 5.12-0.8 7.52 0.64 1.28 0.8 2.08 0.96 2.72 0.64z" fill="#0f141b"/>
  </g>
  <g transform="matrix(.55368 0 0 .55368 -110.99 -309.84)">
   <path d="m281.44 622.72c1.28-0.31995 2.24 0 2.56 0.64001 0.64001 1.28-2.72 5.28-5.6 5.12z" fill="#fff1ac"/>
  </g>
  <g transform="matrix(.55368 0 0 .55368 -110.99 -309.84)">
   <path d="m275.2 616.8c-0.64001-1.28-1.44-1.6-2.24-1.28-1.28 0.95996-1.28 3.52-0.47998 5.12z" fill="#fff1ac"/>
  </g>
  <g transform="matrix(.55368 0 0 .55368 41.384 31.668)">
   <path d="m0 0c-0.32-0.8-0.8-0.8-1.44-0.32-0.64 0.32-0.96 0.96-1.28 1.6-0.48 1.12-0.32 2.4 0.64 3.52 1.44 1.76 3.2 4.16 3.84 5.44 0.8 1.92 1.76 1.76 3.04 0.64 0.64-0.64 1.76-2.56 1.76-3.84s-0.32-1.76-1.28-2.08c-1.44-0.48-4.48-3.04-5.28-4.96z" fill="#6dba5a"/>
  </g>
  <g transform="matrix(.55368 0 0 .55368 78.857 52.397)">
   <path d="m0 0c-0.32-4.48-1.44-6.08-4.32-6.4-8.48-0.8-14.72 3.04-17.28 6.72-1.44 2.08-0.32 5.28 5.28 5.12-2.08-0.8-2.56-1.76-1.12-3.36 2.08-2.4 6.88-4 10.4-3.84 2.24 0.16 3.36 0.8 3.52 3.36 0 1.28 0.8 3.68 3.2 5.12 9.76 5.44 16 8.16 25.92 12.16 4.96 1.92 6.88 6.4 3.04 16.64-5.92 15.84-13.28 26.4-25.76 38.56 14.88-10.24 23.52-20 30.24-36.8 4.96-12 2.56-19.36-6.08-22.56-10.56-4-16-6.24-24.64-11.2-1.92-1.12-2.24-1.76-2.4-3.52z" fill="#6dba5a"/>
  </g>
  <g transform="matrix(.55368 0 0 .55368 71.416 49.385)">
   <path d="m0 0c-2.08-0.64-3.68-1.12-5.12-1.76-1.12-0.64-2.08-1.12-2.72-1.92-0.48-0.8-1.12-0.96-2.08-0.48-1.28 0.48-2.4 1.76-3.04 3.2-0.48 1.28-0.32 2.56 1.44 2.56 1.92-0.16 3.68 0.32 5.44 1.76 1.6-1.28 3.68-2.56 6.08-3.36z" fill="#6dba5a"/>
  </g>
  <g transform="matrix(.55368 0 0 .55368 37.752 49.031)">
   <path d="m0 0c-0.8-2.24-0.64-4.64-0.16-6.56 2.24 3.36 8.16 5.92 11.52 8.32 8.48 6.24 7.68 19.2 1.92 22.56-7.52 4.32-17.6 0.16-19.68-15.84-0.64-5.76-3.36-12.32-6.56-16.16 3.52 0.8 9.12 3.84 12.96 6.72z" fill="#6dba5a"/>
  </g>
  <g transform="matrix(.55368 0 0 .55368 41.827 61.433)">
   <path d="m0 0c-2.08-1.28-4-3.04-5.44-5.6-1.92 5.28-5.6 12-9.28 15.2 0.96 3.52 0.64 3.84 4.32 3.84 1.6-4 6.4-10.24 10.4-13.44z" fill="#fff1ac"/>
  </g>
  <g transform="matrix(.55368 0 0 .55368 64.417 86.415)">
   <path d="m0 0c-1.12 0.16-2.72 2.72-3.36 5.12-0.16 0.8 0 1.44 0.64 2.08 2.4 2.72 4.8 5.76 7.04 8.8 0.32-3.04 0.16-6.24-0.48-8.8-1.28-4.8-2.88-7.2-3.84-7.2z" fill="#eeeeef"/>
  </g>
  <g transform="matrix(.55368 0 0 .55368 69.91 83.935)">
   <path d="m0 0c-0.64 0.16-2.08 4.64-2.24 6.56-0.16 0.96 0 1.44 0.96 1.92 3.84 1.6 8.96 4.8 11.52 8-0.16-3.84-1.76-9.28-4-12s-5.6-4.48-6.24-4.48z" fill="#eeeeef"/>
  </g>
  <g transform="matrix(.55368 0 0 .55368 18.44 85.884)">
   <path d="m0 0c1.12-0.48 1.92-1.44 2.24-2.72 0.64-2.88-0.32-7.04-1.92-7.2-1.28-0.16-8 7.36-9.28 15.2 3.04-2.24 5.92-3.68 8.96-5.28z" fill="#eeeeef"/>
  </g>
  <g transform="matrix(.55368 0 0 .55368 21.629 85.529)">
   <path d="m0 0c-0.64 0.96-0.96 1.44-0.96 3.36-0.32 3.68-1.12 7.84-1.6 10.88 4-2.88 8-6.88 9.28-9.92 1.44-3.04 0.64-8.8-0.96-9.28-1.28-0.32-3.84 2.08-5.76 4.96z" fill="#eeeeef"/>
  </g>
  <g transform="matrix(.55368 0 0 .55368 30.133 83.226)">
   <path d="m0 0c-0.96 0.16-2.56 3.36-3.84 6.4-0.32 1.12-0.48 1.6-0.32 2.72 0.16 3.2 0.16 5.28-0.32 9.44 2.88-2.72 6.56-7.2 6.88-11.36 0.16-3.52-1.28-7.2-2.4-7.2z" fill="#eeeeef"/>
  </g>
  <g transform="matrix(.55368 0 0 .55368 94.714 72.064)">
   <path d="m0 0c3.84-10.24 1.92-14.72-3.04-16.64-9.92-4-16.16-6.72-25.92-12.16-2.4-1.44-3.2-3.84-3.2-5.12-0.16-2.56-1.28-3.2-3.52-3.36-3.52-0.16-8.32 1.44-10.4 3.84-1.44 1.6-0.96 2.56 1.12 3.36 7.84 0.96 10.56 6.56 5.44 16.48 14.24-1.28 20.64 8.8 21.6 19.68 0.96 10.56-2.24 23.36-7.84 32.48 12.48-12.16 19.84-22.72 25.76-38.56z" fill="#eeeeef"/>
  </g>
  <g transform="matrix(.55368 0 0 .55368 66.455 46.905)">
   <path d="m0 0c-0.8-0.96-2.88-0.8-3.84 1.12-0.96 1.6-0.8 3.52-0.32 4.32-0.64-1.44 1.92-5.28 4.16-5.44z" fill="#dcd096"/>
  </g>
  <g transform="matrix(.55368 0 0 .55368 40.675 31.49)">
   <path d="m0 0c-0.8 1.44-0.8 2.72 0.32 4 1.28 1.6 2.88 3.36 3.52 4.8 0.8 1.44 2.4 1.44 3.84-0.64-0.48 1.6-1.28 2.72-2.24 3.52-0.8 0.8-1.6 0.32-2.24-0.96-0.64-1.12-2.4-3.68-3.52-5.12-2.24-2.56-0.96-5.12 0.32-5.6z" fill="#5da24e"/>
  </g>
  <g transform="matrix(.55368 0 0 .55368 65.569 47.348)">
   <path d="m0 0c-0.96 1.44-0.64 2.88 0.96 3.2 1.92 0.32 3.68 0.96 5.92 2.08-0.8 0.48-1.44 1.12-2.24 1.76-1.76-1.28-3.68-1.92-5.44-1.76s-2.24-0.8-1.76-2.08c0.48-1.44 1.44-2.4 2.56-3.2z" fill="#5da24e"/>
  </g>
  <g transform="matrix(.55368 0 0 .55368 93.031 61.611)">
   <path d="m0 0c-7.2-2.72-16.48-6.72-23.04-10.4-2.88-1.44-4.32-2.72-4.48-5.12-0.64-5.44-5.76-5.28-10.72-4.16-1.92 0.48-3.52 0.32-4.16-0.8-2.08 1.12-3.68 2.72-4.8 4.16-1.44 2.08-0.32 5.28 5.28 5.12-2.08-0.8-2.56-1.76-1.12-3.36 2.08-2.4 6.88-4 10.4-3.84 2.24 0.16 3.36 0.8 3.52 3.36 0 1.28 0.8 3.68 3.2 5.12 9.76 5.44 16 8.16 25.92 12.16 4.96 1.92 6.88 6.4 3.04 16.64-5.92 15.52-12.96 25.92-24.96 37.92v0.16c13.44-10.72 22.56-24.48 28-40.48 2.72-8.16 0.96-13.76-6.08-16.48z" fill="#5da24e"/>
  </g>
  <g transform="matrix(.55368 0 0 .55368 30.753 44.779)">
   <path d="m0 0c5.12 4.48 9.28 9.76 11.36 17.44 3.04 11.04 14.4 10.56 19.04 4.64-0.16 7.68-4.32 11.84-10.88 11.52-7.68-0.32-12.16-8.48-13.28-17.44-0.8-5.6-3.04-11.36-6.24-16.16z" fill="#5da24e"/>
  </g>
  <g transform="matrix(.55368 0 0 .55368 37.752 45.487)">
   <path d="m0 0c0.16 1.92 0.48 3.68 0.96 5.92l-1.28-0.8c-0.48-1.92-0.32-4 0.32-5.12z" fill="#5da24e"/>
  </g>
  <g transform="matrix(.55368 0 0 .55368 78.946 56.295)">
   <path d="m0 0c4.8 2.72 16.96 8.48 24.32 11.36 6.24 2.4 7.2 6.88 5.44 12.96-3.2 12.16-13.28 30.08-26.4 41.76 10.72-13.12 19.68-27.04 24-43.04 1.12-4.8 0.16-7.52-4.64-9.6-8.32-3.52-15.36-6.88-21.76-10.08-3.52-1.92-5.92-4-6.88-5.44-1.92-2.56-7.52-0.96-6.24 1.76-1.6-0.8-3.68-1.28-5.12-1.44-1.44-0.8-1.76-2.24 0.16-3.68 2.72-2.24 5.92-3.52 10.08-3.36 2.56 0.16 3.04 0.8 3.2 3.68 0.16 1.76 1.6 3.84 3.84 5.12z" fill="#c8c9ca"/>
  </g>
  <g transform="matrix(.55368 0 0 .55368 38.461 62.319)">
   <path d="m0 0c-2.4 3.68-5.28 8.16-7.2 11.2 0.64 0.64 1.44 0.96 3.04 0.48 1.44-3.04 3.84-6.88 6.88-10.24-1.12-0.48-2.24-0.96-2.72-1.44z" fill="#dcd096"/>
  </g>
  <g transform="matrix(.55368 0 0 .55368 19.68 82.517)">
   <path d="m0 0c-3.36 2.4-8.96 7.2-10.88 11.2 1.92-1.44 5.92-3.68 7.68-4.64 3.2-1.6 3.52-3.36 3.2-6.56z" fill="#c8c9ca"/>
  </g>
  <g transform="matrix(.55368 0 0 .55368 24.818 82.783)">
   <path d="m0 0c-2.56 7.84-4.16 11.84-8.32 19.04 0.64-3.84 1.28-8.8 1.6-11.36 0.32-2.72 4.32-7.36 6.72-7.68z" fill="#c8c9ca"/>
  </g>
  <g transform="matrix(.55368 0 0 .55368 30.133 83.315)">
   <path d="m0 0c-0.16 6.08-2.24 13.92-4.32 18.24 0.16-2.24 0.32-7.52 0.16-9.44 0-1.12 0-1.76 0.48-2.88 1.6-3.52 2.72-5.92 3.68-5.92z" fill="#c8c9ca"/>
  </g>
  <g transform="matrix(.55368 0 0 .55368 63.354 87.39)">
   <path d="m0 0c2.4 3.68 4.8 8.64 6.08 13.92-1.92-2.4-5.44-6.88-6.72-8.32-0.96-1.12-1.12-1.76-0.64-3.04 0.32-0.96 0.8-1.76 1.28-2.56z" fill="#c8c9ca"/>
  </g>
  <g transform="matrix(.55368 0 0 .55368 69.112 85.707)">
   <path d="M 0,0 C 5.12,2.56 9.28,6.88 11.52,12.8 8.48,9.92 4,7.04 0.32,5.28 -0.64,4.8 -0.96,4.32 -0.96,3.36 -0.8,2.4 -0.32,0.96 0,0 Z" fill="#c8c9ca"/>
  </g>
  <g transform="matrix(.55368 0 0 .55368 37.575 61.611)">
   <path d="m0 0c-1.44 2.88-5.12 8.16-6.88 9.76l-0.32-0.96c1.76-1.44 5.44-7.04 6.72-9.44z" fill="#0f141b"/>
  </g>
  <g transform="matrix(.55368 0 0 .55368 40.232 63.205)">
   <path d="m0 0c-2.88 3.2-5.76 7.2-6.88 10.08h-0.8c1.12-3.04 3.84-7.2 6.88-10.4 0.32-0.32 1.12 0 0.8 0.32z" fill="#0f141b"/>
  </g>
  <g transform="matrix(.55368 0 0 .55368 33.765 66.306)">
   <path d="m0 0c0.32 3.52 1.92 5.28 5.12 4.16 0.64-0.32 0.8 0.16 0 0.48-3.2 1.44-5.76 0-5.6-4.48 0-0.96 0.48-1.12 0.48-0.16z" fill="#0f141b"/>
  </g>
  <g transform="matrix(.55368 0 0 .55368 37.309 48.145)">
   <path d="m0 0c-0.16-1.28-0.16-2.88 0.16-4.64 0.32-0.96 0.48-0.8 1.12 0 2.24 2.88 7.84 5.28 11.2 7.68 8.8 6.4 7.68 19.68 1.76 23.2-7.52 4.48-18.24 0.48-20.32-16.16-0.64-5.28-2.88-11.2-5.92-15.36-0.8-1.12-0.64-1.28 0.8-0.96 3.68 1.12 8.8 4.16 12.16 6.56 1.28 0.96 0.96 1.28-0.32 0.48-3.84-2.56-8.64-5.28-11.84-6.24 2.88 3.84 5.28 10.08 6.08 15.36 1.92 15.52 11.52 20 19.04 15.68 5.44-3.2 6.24-15.84-1.92-21.92-3.52-2.4-9.12-4.96-11.2-7.84-0.32 1.28-0.32 2.88 0 4.64z" fill="#0f141b"/>
  </g>
  <g transform="matrix(.55368 0 0 .55368 67.961 51.423)">
   <path d="m0 0c-1.76-1.28-3.36-1.76-5.28-1.76-1.92 0.16-2.56-1.28-1.76-3.04 0.64-1.6 1.92-2.88 3.2-3.36 1.12-0.48 2.08-0.32 2.56 0.64 0.48 0.64 1.44 1.12 2.56 1.76 1.44 0.64 3.2 1.12 5.6 1.92l-1.12 0.32c-2.08-0.64-3.36-1.12-4.64-1.76-1.28-0.48-2.4-0.96-2.88-1.92-0.48-0.48-0.8-0.64-1.76-0.32-1.12 0.48-2.4 1.92-2.88 3.04-0.48 1.28-0.32 2.08 1.12 1.92 2.08 0 4 0.64 5.76 2.08z" fill="#0f141b"/>
  </g>
  <g transform="matrix(.55368 0 0 .55368 64.063 50.183)">
   <path d="m0 0c-0.64-0.64-0.96-2.88 0.16-4.96 0.96-2.08 3.84-2.4 4.48-0.8h-0.8c-0.64-0.8-2.4-0.32-3.2 1.12-0.64 1.44-0.8 2.88-0.32 3.68z" fill="#0f141b"/>
  </g>
  <g transform="matrix(.55368 0 0 .55368 74.959 51.246)">
   <path d="m0 0c2.56 0.16 3.68 0.96 3.84 3.52 0.16 1.44 0.96 3.68 3.04 4.8 9.92 5.6 16.16 8.32 25.76 12.16 5.76 2.24 7.04 7.68 3.36 17.28-5.44 14.72-12 24.64-22.72 35.68 12.48-9.12 20.32-18.88 26.56-34.24 5.28-12.96 1.6-19.2-5.92-22.08-10.56-4-16.16-6.24-24.64-11.2-1.92-1.12-2.56-1.92-2.72-3.84-0.32-4-1.12-5.76-3.84-5.92-8.48-0.8-14.56 3.04-16.96 6.4-1.44 2.24 0.32 4.32 3.36 4.64-0.64-0.48-1.44-1.44 0.16-3.2 2.24-2.56 7.2-4.32 10.72-4zm12 73.44c11.52-11.84 17.76-21.44 23.2-36 3.36-8.8 2.88-13.92-2.72-16.16-9.76-3.84-16-6.56-25.92-12.16-2.72-1.44-3.52-4.16-3.52-5.44-0.16-2.24-0.96-2.72-3.04-2.88-3.52-0.32-8 1.28-10.08 3.68-1.12 1.12-0.8 1.92 0.32 2.4 1.12 0.64 1.12 0.96-0.16 0.96-5.28 0-6.72-3.2-4.96-5.76 3.04-4.32 9.76-7.52 17.6-6.72 3.04 0.16 4.32 1.92 4.64 6.56 0.16 1.76 0.48 2.24 2.4 3.36 8.48 4.96 13.92 7.04 24.48 11.04 7.84 3.04 11.68 9.92 6.4 23.2-6.24 15.2-13.76 24.96-27.84 35.2-4.32 3.04-4.48 2.56-0.8-1.28z" fill="#0f141b"/>
  </g>
  <g transform="matrix(.55368 0 0 .55368 80.274 93.414)">
   <path d="m0 0c5.92-10.4 8.64-22.24 7.68-32.48-0.96-11.36-7.68-20-20.32-19.36-1.28 0.16-1.28-0.16-0.8-1.12 2.56-5.28 2.56-8.96 1.44-11.36-1.12-1.92-3.04-3.36-7.68-4l0.48-0.8c4.16 0.48 6.72 2.08 8 4.48 1.44 2.72 1.12 6.88-1.44 12 12.32-0.8 20.16 7.2 21.28 20.16 0.96 10.08-2.08 22.56-7.52 32z" fill="#0f141b"/>
  </g>
  <g transform="matrix(.55368 0 0 .55368 40.675 31.579)">
   <path d="m0 0c-0.48 0.32-0.96 1.12-1.12 1.6-0.48 1.12-0.32 2.08 0.64 3.2 1.44 1.76 3.2 4 3.84 5.44s1.28 1.6 2.4 0.48c0.64-0.64 1.76-2.4 1.76-3.52 0-1.28-0.32-1.6-1.12-1.76-1.44-0.48-4.64-3.2-5.44-5.12-0.16-0.48-0.48-0.48-0.96-0.32zm2.56 10.56c-0.48-1.44-2.08-3.52-3.68-5.28-0.8-1.28-1.12-2.72-0.64-4 0.32-0.8 0.8-1.28 1.44-1.76 0.64-0.64 1.44-0.48 1.92 0.48 0.64 1.6 3.36 4.32 5.12 4.8 1.12 0.32 1.6 1.12 1.6 2.4-0.16 1.6-1.28 3.36-2.08 4.16-1.6 1.44-2.72 1.12-3.68-0.8z" fill="#0f141b"/>
  </g>
  <g transform="matrix(.55368 0 0 .55368 43.599 37.869)">
   <path d="m0 0c2.72-0.48 4.8-3.68 4.48-4.48-0.32-0.48-0.96-0.64-1.92-0.48l-0.32-0.8c1.44-0.16 2.4 0.16 2.88 0.96 0.8 1.76-3.04 5.76-5.92 5.6z" fill="#0f141b"/>
  </g>
  <g transform="matrix(.55368 0 0 .55368 39.789 33.882)">
   <path d="m0 0c-0.8-1.6-0.96-4.48 0.48-5.44 0.8-0.48 2.08-0.32 2.72 1.28l-0.96-0.48c-0.48-0.48-0.96-0.64-1.44-0.32-0.8 0.48-0.96 2.08-0.8 3.36z" fill="#0f141b"/>
  </g>
  <g transform="matrix(.55368 0 0 .55368 64.417 86.681)">
   <path d="m0 0c-0.8 0.16-2.4 2.24-2.88 4.64-0.32 0.64-0.16 1.12 0.48 1.92 2.72 3.04 4.64 5.6 6.4 8 0.16-2.24 0.16-5.12-0.64-7.84-1.28-5.12-2.88-6.72-3.36-6.72zm3.52 15.2c-1.92-2.56-4-5.12-6.56-8.16-0.8-0.96-0.96-1.6-0.8-2.56 0.64-2.24 2.4-5.12 3.68-5.28 1.44-0.16 3.2 2.88 4.32 7.36 0.8 2.72 0.8 5.76 0.64 8.32-0.16 1.44-0.48 1.28-1.28 0.32z" fill="#0f141b"/>
  </g>
  <g transform="matrix(.55368 0 0 .55368 69.998 84.201)">
   <path d="m0 0c-0.32 0.16-1.76 3.52-2.08 6.24 0 0.8 0 0.96 0.8 1.44 3.68 1.6 8.32 4.48 11.04 7.36-0.48-3.36-1.76-8.16-4-10.72-2.24-2.88-5.44-4.32-5.76-4.32zm9.28 15.52c-2.88-2.88-7.36-5.6-10.88-7.2-1.28-0.48-1.44-1.12-1.28-2.24 0.32-1.92 1.6-6.72 2.56-6.88 0.64-0.16 4.48 1.76 6.72 4.48s3.84 7.84 4 11.52c0.16 1.44-0.16 1.44-1.12 0.32z" fill="#0f141b"/>
  </g>
  <g transform="matrix(.55368 0 0 .55368 13.833 88.364)">
   <path d="m0 0c2.56-1.76 4.96-3.2 8-4.8 1.12-0.48 1.76-1.28 2.08-2.56 0.64-3.2-0.64-6.56-1.44-6.56-1.12-0.16-7.52 7.2-8.64 13.92zm-0.8 0c0.96-6.56 7.52-15.04 9.44-14.88 1.76 0.16 3.04 4.32 2.24 7.68-0.32 1.6-1.12 2.56-2.56 3.2-2.88 1.44-5.44 2.72-8.16 4.64-0.96 0.8-1.12 0.64-0.96-0.64z" fill="#0f141b"/>
  </g>
  <g transform="matrix(.55368 0 0 .55368 21.806 85.618)">
   <path d="m0 0c-0.64 0.96-0.8 1.28-0.96 3.2-0.16 2.72-0.64 6.08-1.44 10.08 3.84-2.88 7.2-6.56 8.48-9.28s0.64-8.16-0.8-8.64c-0.96-0.16-3.52 1.92-5.28 4.64zm-3.2 12.96c0.8-4 1.28-7.2 1.44-9.76 0.16-2.08 0.32-2.56 0.96-3.68 2.08-3.04 4.96-5.28 6.4-4.96 1.92 0.48 2.72 6.72 1.28 9.76-1.28 2.72-4.64 6.24-8.8 9.44-1.44 1.12-1.6 0.96-1.28-0.8z" fill="#0f141b"/>
  </g>
  <g transform="matrix(.55368 0 0 .55368 30.133 83.492)">
   <path d="m0 0c-0.8 0-2.56 4-3.36 6.08-0.48 0.96-0.48 1.44-0.48 2.56 0.16 2.88 0.16 5.12-0.16 8.48 2.08-2.08 5.76-6.24 5.92-10.4 0.32-3.84-1.28-6.72-1.92-6.72zm0-0.8c1.28-0.16 3.04 3.52 2.88 7.52-0.32 4-3.52 8.16-6.4 11.04-1.12 1.12-1.44 0.96-1.28-0.64 0.32-3.68 0.32-5.6 0.16-8.48 0-1.12 0-1.92 0.48-2.88 1.76-4.16 3.04-6.56 4.16-6.56z" fill="#0f141b"/>
  </g>
  <g transform="matrix(.55368 0 0 .55368 85.944 84.555)">
   <path d="m0 0c3.52-7.2 6.08-14.24 7.04-23.68 1.28-13.12-9.28-19.68-22.24-19.36-0.8 0-1.12-0.16-1.28-1.12-0.8-6.72-4-12.64-10.72-14.08-0.16 0 1.12-0.64 1.6-0.48 4.96 1.6 9.28 6.88 9.76 14.08 0.16 0.8 0.16 0.8 0.64 0.8 13.92-0.48 24.48 6.72 23.04 20.32-0.96 8.96-3.68 16-7.36 23.68-1.12 2.08-1.6 1.92-0.48-0.16z" fill="#0f141b"/>
  </g>
 </g>
</svg>
