<?xml version="1.0" encoding="UTF-8"?>
<!-- Created with Inkscape (http://www.inkscape.org/) -->
<svg version="1.1" viewBox="0 0 370.22 313.48" xmlns="http://www.w3.org/2000/svg">
 <g transform="translate(53.05 10.323)" stroke-width="4.5308">
  <path class="uuid-76ecf440-ae22-4c0a-8bbe-2f7234c9bc0f" d="m27.377 75.684c-3.0946-10.321-10.91-31.403-18.132-43.347-0.29462 2.5055-0.29462 5.1606-0.44403 7.6661-3.5386-3.5386-5.7497-6.0441-7.6662-7.6661l0.29462 5.0111c-7.0772-7.6663-16.66-15.482-22.559-20.049-5.8991-4.5715-18.726-16.216-23.882-25.359 0 2.5057-0.14896 4.5717 0.14896 7.5212-2.0661-1.6217-5.8992-5.3056-7.2222-8.2552 3.8331 24.915 15.482 69.884 23.293 81.827 7.8111 11.943 35.68 29.192 47.18 34.792-0.73858 8.4046-0.5891 14.005 0.29462 19.02 0.88343 5.0156 1.622 10.761 1.9165 15.332 0.99688 15.418 17.38 25.912 34.203 28.603 11.055 1.7669 42.019-6.0443 53.074-19.755 11.055-13.71 11.255-33.075 10.421-44.624 15.527-4.9159 39.119-15.677 45.753-24.67 6.6331-8.9936 22.115-39.069 29.931-52.046 7.8157-12.976 15.482-27.126 20.937-33.909-3.2441 1.7671-6.7827 3.6836-10.616 5.7497 0-2.3606 0.29462-4.8661 0-7.0772-3.0946 4.1277-10.702 11.862-17.838 13.71-7.9607 2.0661-33.025 9.2883-46.147 22.704 0.29463-2.2111 0.88365-5.1606 1.0326-6.9277-1.423 0.98293-3.4888 2.6551-5.061 4.5217 0-2.9495-0.10273-5.899-0.39387-8.5497-2.6549 5.9944-8.7263 14.154-12.777 17.988-5.505 5.2105-15.727 16.809-25.16 37.153l-70.572 0.63874zm110.14 141.24c2.2111 0.1541 5.3373 0.53428 7.9788 1.8167-2.5236 0.10273-4.4402 0.54283-6.7962 1.2826 3.534 7.8565 16.483 18.962 28.118 23.42 3.679 1.4094 4.9839 2.4239 5.1969 8.9394 0.23629 7.127-0.79801 15.663-3.824 18.798-9.4921 9.8183-9.6462 22.188 2.066 23.882 11.205 1.6217 19.587-0.63019 23.148-10.466 5.0111-13.86 9.8998-27.244 11.943-38.036 1.0326-5.4552 0.1541-12.677-5.4552-17.693-5.6046-5.0111-11.354-16.216-11.354-28.159 0-27.81-15.627-49.685-29.437-53.418l-20.837 24.521-0.73806 45.114zm-105.12 22.41c2.6551 11.649 1.0331 34.647-3.8331 41.43-6.2254 8.6764-7.5348 18.803 5.0111 21.082 8.1102 1.4727 17.027-0.63361 21.231-10.027 2.5057-5.6046 4.7166-15.038 5.7497-24.915 4.4221-1.1782 8.4047-3.2442 13.121-6.7828 4.7166-3.5386 15.921-11.499 25.065-15.482-0.88362 3.8332-2.9904 12.134-7.0772 16.51-6.1937 6.6331-5.6228 15.872 3.6835 17.693 6.7828 1.3272 15.187 1.1782 22.115-7.8156 6.9275-8.9938 13.887-26.424 15.627-32.142 1.0326-3.3891 1.9166-8.2552-1.6217-11.055l-22.559-16.954-58.384 5.3055-18.132 23.148z" fill="#fff"/>
  <path class="uuid-83081fb0-85a1-4705-82d0-bc8743dac0e5" d="m71.584 142.63c-0.49833-4.2816 0.17281-12.016 3.2033-15.953 5.292-7.7885 16.877-8.4273 22.12-7.4486 2.6776 7.2447 0.98294 19.039-6.0941 23.461-6.18 3.8602-14.345 3.534-19.229-0.0514m-48.38-21.834c3.3165-0.91957 9.0934 0.38019 13.493 5.3329 3.4298 3.8602 4.8752 9.9904 4.8299 16.094-2.2382 2.2517-9.0934 4.2272-14.213 0.57024-3.5658-2.5509-7.1587-11.699-4.1095-21.997" fill="#201715"/>
  <g fill="#fff">
   <path class="uuid-76ecf440-ae22-4c0a-8bbe-2f7234c9bc0f" d="m188.57 199.38c0.13685 13.37 5.505 23.787 13.071 31.648 5.9944 3.5386 14.938 4.5217 19.165 4.7166a34.434 34.434 0 0 1-7.7658-5.1108c3.3391 1.6714 10.321 2.1613 15.038 1.7671 4.7166-0.39387 9.3379 1.6714 13.171 3.8331-1.3768-2.4603-4.327-5.7995-6.4881-7.9608 5.6047 1.3768 14.548-0.68839 18.477-2.5553 5.0428-2.3969 13.366-2.3606 18.087-0.98293-2.8498-2.3604-7.4712-4.3224-10.027-4.5217 11.205-4.6169 22.015-19.36 26.048-24.965 8.6494-3.5386 16.905-3.4389 23.198-1.4727-0.68839-3.1446-4.1277-5.8992-6.3884-6.9775-2.066-4.7166-7.0772-5.1108-11.4-4.9161 4.028-3.7333 10.715-5.4051 14.644-5.7993-1.8668-1.6714-5.8992-3.5386-8.0605-4.4222 3.3439-1.8666 6.9776-4.5217 8.2552-6.3884-1.6713-0.68842-4.7166-0.98293-7.077-1.0822 6.683-9.2385 6.8958-18.359 5.011-22.999-3.4026-8.3684 2.483-15.899-0.39384-27.62-1.0823 2.1613-3.7335 4.6216-5.505 5.8992 4.9839-10.33-0.40414-21.186 15.627-28.798-4.1275-0.7843-9.7321 0.39387-11.988 1.1782 0.88362-1.9664 1.6713-3.7335 3.0447-5.3057-1.572 0.10274-4.839 0.93329-7.05 2.9996 3.2802-11.658 4.0958-21.109 2.2836-28.159-0.98297 2.7502-4.4765 7.7659-6.5381 11.01 2.3606-15.627-1.8576-33.039-18.971-45.014-7.3626-5.1515-9.1251-8.0784-10.421-21.426-1.6714 2.655-3.5386 8.45-2.1613 15.727-1.1782-0.5891-3.6382-2.0661-4.6214-3.0447 0.58907 3.833 1.4761 8.2552 4.5217 12.582-2.655-0.7877-5.6047-0.68838-7.4714 1.0788 13.271 2.9495 18.871 21.92 5.7995 36.269 0.19519-2.2609 0-5.1108-1.4727-7.8611-0.78771 4.028-2.1611 8.2552-4.9159 11.4-0.72093-6.9683-3.2713-10.652-5.505-14.743 0.58907 12.483-9.3381 18.182-16.905 10.222 1.572-1.7671 3.244-4.2273 4.1277-6.4881-3.8332 1.9664-8.5497 3.6382-13.86 1.572-5.3103-2.0661-8.3006-3.661-17.507 2.8771-0.0855-4.8798 2.4873-8.4047 3.9598-9.483-6.7237 1.4727-11.023 5.7269-12.89 7.1994 0.78429-3.4389 1.3768-7.6663 0.58906-11.794-0.98293 2.0661-2.5555 3.9328-4.1277 4.7166-0.19519-2.2609-0.42983-6.6287-1.2193-9.184-2.5418 10.04-6.9368 17.149-17.652 17.738-4.3768 7.4215-7.1768 14.499-11.748 18.626-4.5717 4.1277-17.543 13.86-37.447 20.643 0.73806 1.1285 2.2109 3.1942 3.0946 4.8661 3.5386-0.29462 8.5497 3.5386 9.2383 9.7322 1.3768 0.29462 4.9387 4.7937 4.9387 11.282 1.209-2.5555 7.5529-12.646 9.4196-13.928-1.0788 5.1108-2.5599 19.745-2.3652 24.072 4.1277-4.2274 8.2554-5.505 11.404-5.6047-2.7548 1.8668-4.7212 4.7166-6.5878 7.6661 4.0324-1.8666 8.6494-2.7546 12.088-2.2608-2.4556 1.7669-5.011 3.9326-7.2719 7.4712 13.466 4.7168 29.192 24.081 29.487 52.091"/>
   <path class="uuid-76ecf440-ae22-4c0a-8bbe-2f7234c9bc0f" d="m-7.452 143.49c2.8272 3.534 4.8208 8.8667 4.694 13.176-0.13172 4.3044 0.64336 14.394 2.3107 20.244-2.8272-2.3786-6.2345-3.4071-7.9698-3.9191 2.3787 2.8272 4.8843 7.5212 5.1425 10.09-2.1204-2.057-5.3963-2.5688-6.7464-2.3786 6.171 5.2058 6.4247 7.9697 7.5846 13.434 1.7035 8.0512 6.6196 12.85 12.723 16.32-2.1838-0.11998-5.1153-0.40415-9.4377 0.18492 1.9301 0.83738 7.7659 4.9161 7.5122 5.8584-2.9541 0.8973-6.4247 2.3108-8.4183 3.3393 6.8778 0.25353 14.394 4.046 17.607 6.5516-1.7987 0.51715-3.534 0.90071-5.3328 1.0925 3.2123 2.5056 9.1885 4.114 14.073 4.3044-1.4136 1.2192-2.7004 3.0855-3.534 4.5625 2.4421-1.2826 5.5911-1.4778 7.0047-1.3511a14.82 14.82 0 0 0-4.8208 8.355c3.7923-2.9588 7.8384-4.3044 10.09-4.1142 2.2473 0.1952 4.8208-0.38528 8.4817-1.7352a22.654 22.654 0 0 0-1.2867 4.9476c1.6085-1.7352 4.8209-3.3391 7.0046-3.9825-0.51715 1.2861-0.77061 2.954-1.0292 4.114 2.7639-0.96579 8.5497-4.7575 11.631-7.0681 3.0855-2.3108 12.786-10.28 16.9-14.843 1.8621-0.70724 4.2408-1.6713 6.8097-2.3152-1.3494 1.4128-2.3106 3.7924-3.1489 6.1665 2.3788-1.6714 7.195-4.046 9.5736-5.138 0.32177 2.6324 1.1559 4.046 1.9256 5.138 1.4128-0.83397 2.569-2.1839 3.7924-3.7924 2.1839 2.5057 4.694 6.2979 7.1315 9.8953 0.7706-1.5446 1.2192-3.4706 1.5446-5.4642 1.2193 1.9302 3.5341 4.3678 5.2695 6.1665-2.0572 3.5341-4.5627 7.3899-7.1316 10.607 4.123 2.6505 13.357 2.3606 16.578 1.1559-3.7922-1.8712-5.6364-3.3935-6.9231-4.9974 5.2149 1.9164 11.671-0.66614 15.147-5.9264 5.8584-8.8533 9.415-12.097 18.187-13.429-2.637-0.96584-5.7814-1.5446-8.8668-1.7354 2.8272-2.4421 7.8383-9.2564 10.348-12.854 2.5055-3.5975 7.0681-5.5912 10.67-6.4928-2.3787-1.0292-8.8035-1.9936-11.44-2.2519 3.5929-1.3134 8.5677-5.0337 10.045-6.1891-2.057 0.13686-7.8202-1.3186-9.1069-1.5772 8.101-4.2319 11.581-6.8099 14.838-16.347-6.7737 4.4085-9.2837 4.7664-13.728 4.8389 6.3794-5.0563 7.5212-15.813 7.6481-19.156 0.25353-6.6196 4.626-13.303 10.462-17.167-4.1277-0.68838-8.4501 0.68842-12.188 2.4556 1.572-3.1444 4.1275-5.6997 6.683-7.8654-3.2441-0.10274-8.0603 2.3604-11.404 5.6046-0.0855-3.3076 2.2292-24.136 2.2292-24.136s-6.1891 6.9957-9.2746 14.046c-0.28948-4.4856-1.4402-9.8502-4.9478-11.336-1.0326-4.2453-4.3088-10.054-8.6811-9.7096-0.86135-1.2055-2.1839-3.2168-3.7924-4.7121-2.4648 0.86138-4.5263 1.644-6.6921 2.2337 1.0788 12.188-0.68838 35.286-10.715 45.408-14.24 14.381-40.782 20.371-54.257 18.776-11.599-1.3768-32.926-12.084-32.926-28.898 0-3.6382-1.8667-14.449-1.9664-17.398-0.98326-1.1782-2.3605-2.4558-3.2441-3.3393-0.09943 3.0447-0.98326 7.5665-3.6382 10.122-2.6551 2.5553-5.9943 5.6997-5.4053 15.926-0.88347-0.98293-2.4557-1.7715-3.3392-2.0661 0.29462 2.3606 0.3942 3.9328 0.3942 5.3101-2.5554-3.4434-8.6267-6.8143-10.652-6.751"/>
   <path class="uuid-76ecf440-ae22-4c0a-8bbe-2f7234c9bc0f" d="m65.191 22.782c-2.3606-1.8894-5.7858-3.3076-9.3291-3.072 7.5576 6.1393 11.422 17.322 6.9368 25.939-4.4856 8.6177-17.14 14.014-24.883 19.283-8.8533 6.0215-14.993 14.761-14.05 29.872 0.94698 15.11 16.529 25.386 27.747 25.504 11.218 0.11997 22.55-3.4208 27.747-14.286 12.043-2.5962 20.679-21.358 18.418-39.908-2.3606-19.365-16.529-42.386-32.586-43.333"/>
   <path class="uuid-76ecf440-ae22-4c0a-8bbe-2f7234c9bc0f" d="m23.965 86.055c-4.0732-9.5012-12.428-26.832-20.729-36.156-9.0073-10.117-31.344-29.985-43.931-38.992 1.2324 14.068 10.611 50.102 19.374 59.354 8.7626 9.2564 30.479 22.332 40.229 26.406-2.2201-3.4571-4.1955-8.518-5.6771-12.093 3.0855 1.6046 8.1465 3.5794 10.489 4.3179l0.24472-2.8409zm77.74 6.1709c3.5794-10.983 9.3789-28.753 13.08-33.687 10.344-13.796 53.179-37.04 78.112-43.931-8.6403 17.027-27.022 49.975-37.511 60.713-10.489 10.734-33.936 20.978-48.498 25.418 3.7018-5.3056 7.5258-12.215 9.1297-15.795-4.1957 1.7263-9.6236 4.1957-14.313 7.2812m-16.456 37.049c0.033-3.0493-1.5172-5.2966-3.5386-5.2512-2.2836 0.0514-3.5023 3.1307-3.3437 5.3553 0.18161 2.4421 1.459 4.907 3.5204 4.8027 2.0525-0.10273 3.3346-2.5282 3.3574-4.9115m-56.427-5.7858c-1.7534 0.19519-2.2699 2.9949-2.1204 4.5489 0.22198 2.3199 1.2776 4.839 3.3347 4.626 1.7761-0.18162 2.4059-2.5826 2.0661-5.1062-0.3625-2.6733-1.9301-4.2182-3.2803-4.0687m-36.269 20.004c3.9192 2.9586 8.441 9.3016 9.474 14.317 1.0329 5.0111 4.1276 13.121 6.1937 15.627 0.58906-3.3891 0.29462-6.7826-0.14896-8.5497 3.5386 3.9826 7.6662 18.282 5.7496 23.737 5.872-2.8997 3.2078-7.5665 6.393-12.709 1.681 5.7225 4.6985 15.405 0.09576 19.197 4.6079 0 9.2157-2.7865 9.8772-8.4047 1.7897 4.6395 2.0661 10.761 0.14896 14.449 5.4189-1.6954 8.2597-11.608 12.908-14.707-4.1638 14.209 2.9405 9.5556 1.0965 25.028 2.5055-3.0946 6.2525-7.3899 3.9825-14.299 2.6325 1.0651 7.3536 10.022 6.0443 14.594 3.3891-3.6836 6.0441-8.8442 5.1606-18.133 2.0661 2.8002 3.8332 5.8992 3.6834 8.2552 2.0661-2.2109 3.0946-5.455 2.8002-7.222 0.88361 1.1782 2.7048 7.4577 6.0441 1.1782 1.9166 1.6217 5.4552 1.0326 8.1103 0.29462 1.1782 3.244 7.6344 1.0566 8.2233-2.0388 1.0326 1.7669 1.8124 7.2583-2.3334 12.179 4.1277-0.44351 11.549-7.3219 11.404-13.216 4.9205 3.6246 2.8046 10.027 5.8538 15.02 1.4727-2.9495 2.6642-4.5536 4.7166-5.8992 3.8331-2.5055 5.3056-7.8156 2.9497-12.383 3.0945 1.1782 6.4881 8.2552 4.7166 12.088 3.244-1.1782 6.991-6.4655 6.0441-9.5827-1.4727-4.8661-1.7671-10.027 0-12.976 1.1782 4.7168 4.1277 10.027 7.9606 10.616 1.9166-3.9826 1.1508-7.0681-1.9436-11.341 3.4434 1.2586 12.007-1.4676 17.394-7.1044-4.1638 1.4676-7.4894 1.4915-9.7005 0.90247 7.2222-3.2442 13.565-8.2552 15.038-13.565-2.2109 2.8002-7.3897 3.1535-9.7503 3.5975 5.3872-4.8978 8.7174-13.769 8.5679-19.963l0.1541-2.4603c3.3393-3.244 8.16-5.6999 11.404-5.6047-2.5553 2.1613-5.1108 4.7212-6.683 7.8656 3.7335-1.7671 8.0605-3.1444 12.188-2.4558-5.8357 3.8648-10.203 10.548-10.462 17.167-0.11998 3.3393-0.3716 12.691-7.8927 19.102 1.844 0.36654 7.0772-0.0686 13.71-4.7166-3.0222 9.5102-7.6663 13.271-14.521 16.293 1.2826 0.25867 7.1587 1.6765 9.2157 1.5498-1.4778 1.1559-8.3504 5.369-10.217 6.2026 2.6325 0.25867 9.0617 1.2227 11.44 2.2519-3.5975 0.89733-8.1602 2.8908-10.67 6.4928-2.5055 3.5975-7.5166 10.412-10.348 12.854 3.0855 0.19006 6.2345 0.77061 8.8669 1.7354-8.2687 1.2552-11.921 3.9598-18.187 13.429-3.4843 5.2694-8.79 7.4397-15.45 6.0261 1.286 1.608 5.0382 3.5521 7.222 4.8978-3.5069 0.6987-11.046 2.4014-16.578-1.1559 2.569-3.2124 5.0746-7.0681 7.1316-10.607-1.7354-1.7988-4.0506-4.2409-5.2694-6.1665-0.32178 1.9935-0.77402 3.9191-1.5446 5.4642-2.4421-3.5975-4.9476-7.3899-7.1315-9.8953-1.2193 1.608-2.3741 2.954-3.7924 3.7922-0.77061-1.0925-1.608-2.5055-1.9257-5.138-2.3786 1.0925-7.1994 3.4708-9.5736 5.138 0.83397-2.3786 1.7988-4.7529 3.149-6.1665-2.569 0.64388-4.9478 1.608-6.8099 2.3154-4.1142 4.5625-13.815 12.532-16.9 14.843-3.0855 2.3152-8.8713 6.103-11.631 7.0681 0.25867-1.1559 0.51201-2.8272 1.0292-4.114-2.1838 0.64387-5.3962 2.2472-7.0047 3.9826 0.12658-1.1559 0.70673-3.5975 1.2867-4.9478-3.6609 1.3494-6.2344 1.9302-8.4817 1.7354-2.2518-0.19006-6.2979 1.1559-10.09 4.114a14.82 14.82 0 0 1 4.8208-8.3548c-1.4136-0.11998-4.5626 0.0686-7.0047 1.3494 0.8336-1.4778 2.1204-3.3391 3.534-4.5625-4.8843-0.19005-10.86-1.7987-14.073-4.3044a31.399 31.399 0 0 0 5.3328-1.0925c-3.2124-2.5055-10.729-6.2979-17.607-6.5516 1.9936-1.0292 6.1076-2.5961 9.0662-3.4978-0.58-0.44865-6.18-4.7166-8.1102-5.5547 3.0946-0.73806 7.2041-0.46237 9.3879-0.33058-6.103-3.4706-11.019-8.2687-12.723-16.32-1.1554-5.4642-1.4136-8.228-7.5846-13.434 1.3502-0.19006 4.626 0.32177 6.7464 2.3787-0.2583-2.569-2.7638-7.263-5.1425-10.09 1.7353 0.51201 5.1425 1.5412 7.9697 3.9193-1.6718-5.8494-2.4421-15.94-2.3107-20.244 0.12658-4.3044-1.8667-9.6372-4.6939-13.176m178.44 11.06c18.196 5.2014 12.922 18.694 25.504 20.493-4.7937-7.2267 0.8117-6.6559-7.4894-16.293 2.2109 0.29462 7.195-0.36654 9.5554 2.7274 2.433 3.1898 2.9497 8.5497 8.8442 9.1388-4.3768-3.96-0.42638-12.623 3.6473-19.954 0.44352 5.0111-0.21243 14.961 7.127 18.264 7.9832-1.7897 0.45379-13.226 9.696-18.644-2.2292 13.226 8.1011 14.675 2.7094 24.856 7.8384-2.2065 13.062-16.501 9.8772-22.627 4.5671 1.4265 10.067 6.7419 7.8067 12.111 7.4894-4.463 1.0326-15.147 10.362-22.142-1.7671 3.3891-0.85106 10.33 3.2306 13.597 8.006-3.7561 5.3825-16.03 9.9089-21.29 0.95211 5.3692 6.8462 10.978 18.409 1.7671-7.29 0.65243-14.675-7.1224-8.7852-8.9982 4.1321-1.3134 6.8006-5.1471 8.1283-7.358-3.3891 1.3272-11.055 0.53942-13.588-0.98807 8.2959-3.3937 7.3491-10.271 13.738-13.611 7.494-3.9146 9.4469-11.866 24.303-13.728-13.284 6.3115-9.6914 12.668-14.326 27.584 1.7671-1.2775 4.4221-3.7333 5.505-5.899 4.055 13.946-3.951 12.423 0.39384 27.62 1.3768 4.8163 1.6714 13.76-5.0111 22.998 2.3606 0.10273 5.4053 0.39387 7.0772 1.0822-1.2775 1.8667-4.9114 4.5217-8.2552 6.3884 2.1611 0.88362 6.1936 2.7548 8.0603 4.4221-3.9328 0.39383-10.616 2.066-14.644 5.7995 4.327-0.1952 9.3379 0.19849 11.4 4.9159 2.2609 1.0788 5.6999 3.8331 6.3884 6.9775-6.2932-1.9664-14.548-2.0661-23.198 1.4727-4.0325 5.6046-14.843 20.344-26.048 24.965 2.5553 0.20033 7.1768 2.1613 10.027 4.5219-4.7166-1.3768-13.044-1.4128-18.087 0.98294-3.9328 1.8668-12.877 3.9284-18.477 2.5555 2.1612 2.1611 5.1108 5.505 6.4883 7.9607-3.8332-2.1611-8.4547-4.2272-13.171-3.8332-4.7166 0.39387-11.699-0.10273-15.038-1.7669a34.181 34.181 0 0 0 7.7659 5.1108c-4.2273-0.20032-13.171-1.1782-19.165-4.7166-7.5666-7.8656-13.466-18.282-13.071-31.648 0.39387-13.366-5.3056-32.631-17.593-44.819"/>
   <path class="uuid-76ecf440-ae22-4c0a-8bbe-2f7234c9bc0f" d="m24.626 82.027c-1.3773 11.599 8.3277 23.705 21.499 26.016 15.921 2.7909 36.491-6.1619 28.825-30.144 5.2649 8.0149 5.8042 9.8455 6.0533 16.8 7.3715-3.8332 19.211-20.928 9.4785-50.415 11.499 17.988 10.172 55.14-11.205 61.923-5.4552 12.383-24.326 17.543-37.302 12.238-12.976-5.3055-21.277-22.854-17.349-36.414m-76.123-89.348c2.5055 6.1937 4.4221 11.499 6.9277 15.187 1.178 0.83397 2.7502 1.9664 3.6383 2.7048 1.2777 16.216 12.387 53.369 20.738 60.94 8.3549 7.5664 28.286 21.426 39.101 25.16-0.58906-1.2741-5.5457-11.816-5.5457-11.816s6.9639 8.382 7.2041 10.276c0.2539 2.0388-0.8744 4.7801-1.1645 6.6739-0.2627 1.7217-0.47125 3.6156-0.86549 5.8766-17.593-7.6663-40.932-25.54-48.063-35.481-7.2222-10.077-19.904-61.678-21.966-79.516m265.82 3.3845a85.746 85.746 0 0 0-15.776 16.81c-2.211 0.58906-3.6835 1.0326-5.6047 1.6217-8.5497 16.66-29.165 53.088-37.597 60.89-7.6299 7.6572-25.151 18.051-47.963 25.015 0 0 5.5865-10.081 8.5588-14.685-7.127 5.6454-13.534 13.507-14.254 17.077-0.80657 3.978 2.9451 7.358 4.7166 6.9457 10.222-2.3604 49.98-15.776 58.384-29.636 8.4047-13.86 39.658-69.884 49.536-84.038m-70.962 230.83c4.8163-4.5219 7.1768-8.9439 9.338-12.288 2.1612-3.3393 7.0772-5.7995 10.811-6.5833-3.3393-1.572-6.5878-2.1613-11.993-2.1613 2.9495-1.2775 5.2105-3.1444 7.3717-4.5217-2.1612 0.49319-6.8778-0.10274-8.8442-0.1952-4.3224 3.0494-9.6462 14.018-13.425 15.853 3.004-0.22602 6.5696 0.64729 8.8669 1.7352-1.7354 0.10273-5.0791 0.78774-6.6513 1.3819 1.2775 2.5555 2.5553 4.3224 4.5217 6.7826m18.065-55.172c2.3606-5.8992-0.033-8.7717-0.76547-12.605-0.73806-3.8331-0.73806-7.0772 0.73806-11.205l-2.1114-0.93329c-1.8666 2.85-3.5386 5.8992-3.4388 9.6327 0.10274 3.7333-0.46747 12.976-7.7615 19.315 1.4727 0.51715 5.7497 0.44351 13.343-4.2048m-4.6032 26.07c1.8666-2.7502 6.9774-6.3884 10.321-8.6492-3.0447-0.5891-7.7659-0.20033-10.91 1.2775 1.0823-3.1444 3.3393-5.3057 6.1936-7.2721-1.9662-0.39387-5.5276-0.76033-7.494-0.36653-3.0447 2.3606-4.422 3.244-7.521 4.7166 0.88361 0.29463 6.7056 1.8486 8.332 1.7671-1.399 2.2835-8.3593 5.5774-10.126 6.2662 2.6687 0.13685 8.0603 0.68842 11.205 2.2608m-62.412 59.268c4.3224 0.49319 10.416-1.3768 13.955-5.0111 2.3604 1.8668 5.1288 2.6732 7.9153 1.9664 5.5457-1.4042 1.4367 10.489-8.1057 17.349-6.4699 4.6486-19.958 2.2156-19.958-4.6714-2.4601 5.0111 1.233 10.557 7.766 11.989 7.1768 1.572 15.314 0.38014 20.343-6.683 5.6046-7.8656 15.137-25.264 16.61-31.942 1.4727-6.683 1.4727-11.205-1.572-11.893-1.8667 1.0823-3.7335 3.7333-5.1108 5.3055-1.3768 1.572-7.1768 6.896-14.1 4.8118 1.3323 1.6491 4.6395 3.6338 6.6331 4.626-5.7271 1.4264-11.576 1.8214-16.293-0.98293-0.51719 0.68838-1.9892 1.8666-3.661 2.2608-0.39387 2.6551-1.8668 8.6494-4.4221 12.877"/>
   <path class="uuid-76ecf440-ae22-4c0a-8bbe-2f7234c9bc0f" d="m70.034 227.2c1.8667-0.58907 4.8162-0.58907 7.3717-0.10274-1.7671 3.1444-2.7548 6.1937-3.1444 8.3549 3.6383-2.4556 11.304-6.3884 15.138-6.8777-1.4727 2.2608-2.4556 3.833-2.9495 5.7994 1.9664-1.4727 6.2932-3.3393 8.8441-4.5217 2.1748 10.43-6.8143 12.424-29.949 28.014-10.743 7.2402-26.061-1.5172-25.781-6.8825-1.9664 6.0941 1.5722 11.305 6.7827 13.96 5.2105 2.655 15.233 4.2227 23.098-1.8667 7.8654-6.0941 20.837-14.549 24.865-16.316 4.0325-1.7669 7.861-3.833 9.8274-6.8777 1.9664-3.0447 3.9011-5.9718 5.4868-8.5406-1.459-1.3631-4.259-4.531-5.2149-6.008-0.44355 2.0661-0.90247 4.0369-1.5943 5.301a117.41 117.41 0 0 0-7.1315-9.8953c-1.0788 1.4264-2.6733 3.2803-3.7924 3.7877a12.052 12.052 0 0 1-1.9301-5.1378c-2.1385 0.86134-6.5607 2.9947-9.5102 4.9883 0.5891-1.989 2.1385-4.5715 3.3891-6.0441a41.394 41.394 0 0 0-7.2993 2.5055c-1.7669 1.7671-3.9554 4.327-6.5107 6.3658m118.2-21.775c-0.5891 10.321 0.67983 18.826 7.3717 26.981 4.7166 5.7495 3.7924 11.037 2.9495 16.809-1.0326 7.0772-7.4712 26.456-12.052 32.781-5.3057 7.3264-23.044 9.0617-24.806 0.83397-2.3606 5.455 1.9166 10.761 8.4046 11.943 11.672 2.1204 19.224-1.286 23.293-11.055 2.2111-5.3055 10.027-27.276 11.499-34.792 1.4727-7.5212 2.211-12.677-5.4552-20.343-3.9826-3.9827-10.321-15.187-11.205-23.148m-155.74 34.045c0.58906 3.3393 1.1826 8.3548 0.98326 12.582 1.3773-0.88361 4.0279-2.1613 6.5833-2.1613 1.5722-2.8498 4.9749-5.89 8.1374-7.3217a31.263 31.263 0 0 1 1.0292-4.1095c-1.894 0.52056-5.4324 2.3334-7.0047 3.9826 0.19483-1.5943 0.98312-4.1503 1.5722-5.2331-3.5386 1.6714-7.3717 2.2608-11.304 2.2608"/>
   <path class="uuid-76ecf440-ae22-4c0a-8bbe-2f7234c9bc0f" d="m54.308 267.2c-0.29462 8.1555-3.7652 19.714-6.3884 24.181-4.404 7.5031-22.989 5.0882-23.687-1.1782-1.4725 4.5219 1.477 10.715 9.8274 11.599 8.3549 0.88361 17.004-0.78774 20.443-9.3381a85.615 85.615 0 0 0 6.0939-25.749c-1.6714 0.58906-3.6382 0.88361-6.2932 0.48974m-30.905-179.43c-3.3891 15.776 6.4791 33.895 22.115 37.153 10.616 2.2111 27.276-0.1541 35.825-12.976 10.91-5.0111 17.602-17.222 16.257-33.211-1.2415 10.625-6.9638 24.399-18.318 27.461-3.5386 8.8442-18.132 17.104-33.025 13.121-14.893-3.9826-23.293-15.038-22.854-31.553m31.358 89.398c-15.305-0.99149-30.298-12.569-33.483-27.847 3.9781 8.2733 19.732 20.751 32.944 21.327 21.83 0.94698 41.543-6.1619 55.385-20.801-7.2721 18.871-33.614 28.703-54.846 27.325"/>
   <path class="uuid-76ecf440-ae22-4c0a-8bbe-2f7234c9bc0f" d="m-40.088 16.271c16.56 14.2 47.959 51.013 60.718 71.601l3.0629 1.1559 0.36698-3.022c-6.4157-17.693-16.882-31.109-22.854-38.331-5.9717-7.222-33.347-31.009-42.141-37.103zm230.66 3.5341c-32.699 14.331-66.839 35.354-85.343 70.328l-3.3891 2.0661c4.5717-12.383 9.4469-29.034 13.416-34.058 11.649-14.743 55.729-37.891 77.695-43.641z"/>
  </g>
  <g fill="#201715">
   <path class="uuid-83081fb0-85a1-4705-82d0-bc8743dac0e5" d="m49.551 152.94c0-0.99152 7.0863-0.9607 7.1451-0.0514 0.0686 1.2364-2.5373 2.6324-3.679 2.6324-0.91957 0-3.4661-1.6354-3.4661-2.5779m15.917-114.76c-0.11998-7.7976-2.6233-13.738-7.1452-17.38 4.1729 0.58393 8.9395 4.1592 11.626 8.3367 0.92816 1.4453 1.8169 1.0189 1.2056-0.58055-2.5644-6.6921-11.101-10.339-15.613-9.6416-1.4401 0.22271-1.0189 1.0651-0.19519 1.7217 5.138 4.0778 8.382 9.6825 8.382 17.494 0 9.252-8.1555 15.011-21.798 23.048-13.855 8.1646-19.41 16.619-19.41 30.198 0 17.929 15.264 30.28 30.298 30.058 17.326-0.25866 32.065-10.031 28.508-29.401-0.38873-2.125-1.5446-1.903-1.3186 0.22602 1.8849 17.693-10.548 26.7-27.267 26.945-14.97 0.22271-27.792-12.836-27.792-27.828 0-12.682 5.0156-20.611 18.16-28.331 14.055-8.2552 22.518-15.224 22.36-24.865"/>
   <path class="uuid-83081fb0-85a1-4705-82d0-bc8743dac0e5" d="m79.033 107.5c17.494-4.83 22.672-28.78 18.495-47.891-4.2453-19.442-18.341-36.963-34.421-38.317l2.5827 2.2428c12.7 1.7308 25.69 18.49 29.586 36.333 4.4447 20.343-2.5283 40.737-15.632 45.295z"/>
   <path class="uuid-83081fb0-85a1-4705-82d0-bc8743dac0e5" d="m117.28 106.28c1.0052 18.785-2.1974 33.179-9.2881 42.681-4.9161 6.5878-13.384 11.594-22.555 15.006-10.647 3.9599-22.246 5.7723-30.334 5.4142-10.561-0.46751-26.845-9.1568-31.77-19.609-2.2382-4.7438-1.4001-9.7414-2.7729-17.539-1.7444-9.9135-2.1159-18.364-0.73395-30.058 0.28105-2.3742-0.92419-2.5464-1.323-0.19519-2.0253 11.993-1.7852 20.923-0.03669 30.656 1.4499 8.0696 0.56628 12.297 3.022 18.06 5.0564 11.853 23.284 20.928 33.429 21.377 14.662 0.64733 43.41-5.8947 54.991-21.413 7.3174-9.8094 10.797-25.137 9.5104-44.855l-2.1387 0.4812zm-92.995-21.082c-5.3826-14.594-13.615-28.88-21.811-37.855-9.4559-10.353-29.94-27.973-46.151-39.6-1.6674-1.197-2.4331-0.19849-0.81101 1.0651 15.844 12.333 35.979 29.614 45.381 39.908 8.5769 9.3924 17.521 24.544 23.048 39.504z"/>
   <path class="uuid-83081fb0-85a1-4705-82d0-bc8743dac0e5" d="m-41.914 9.8375c2.6551 24.272 12.102 51.035 19.609 60.686 5.6771 7.2945 25.504 20.049 40.8 27.017 1.2777 0.58397 2.0389 0.4401 1.0693-1.2501-2.1612-3.7605-3.5069-6.452-4.7529-9.8772a63.296 63.296 0 0 0 8.894 3.3663l0.11814-1.5635c-3.67-1.173-7.8339-3.1625-10.19-4.4176-1.323-0.70211-1.7579-0.3716-1.2914 1.0703 1.1915 3.6834 2.7095 6.8823 4.8435 10.357-14.2-7.1361-32.998-19.646-37.905-25.948-7.2403-9.3063-16.248-35.83-19.383-57.931l-1.8123-1.5035zm240.23 2.5553c-18.4 3.7787-67.129 25.767-82.706 43.682-7.639 8.7898-12.165 31.353-16.461 40.202-0.8922 1.8395 0.19519 2.3695 1.2004 0.58909 4.7664-8.4545 9.9091-31.299 16.936-39.278 15.523-17.634 63.119-39.255 81.324-43.89 1.8623-0.47092 1.5858-1.6902-0.29976-1.3049"/>
   <path class="uuid-83081fb0-85a1-4705-82d0-bc8743dac0e5" d="m100.69 94.41c3.8694-2.8 8.4093-5.2966 13.651-7.766-3.3346 6.1621-6.0033 10.453-8.16 13.515-0.82029 1.1594-0.53087 1.9166 1.1062 1.3546 22.609-7.7932 37.461-15.133 46.187-22.768 9.6914-8.4771 24.879-33.578 41.022-64.795l-2.1704 0.64729c-10.652 19.433-29.745 53.197-40.324 62.453-8.3367 7.2947-22.052 14.539-43.034 22.015 2.8226-3.8422 5.1062-7.8248 8.2053-13.869 0.87851-1.7172 0.19006-2.0027-1.2912-1.3271-5.4687 2.4873-9.696 4.5715-14.041 7.4078l-1.1422 3.1309zm-82.194 12.51c-16.8-8.7942-38.97-23.216-47.071-35.844-7.0092-10.928-16.814-49.463-21.78-75.996 1.8667 2.5916 3.2803 3.9056 5.1969 5.3464 0.85177 0.63874 1.3955 0.17281 1.2143-0.66101a31.535 31.535 0 0 1-0.5437-5.5366c4.8299 8.7807 17.548 20.615 26.36 27.171 9.1477 6.8008 15.817 12.863 22.532 21.549 1.5179 1.9664 2.4738 1.2689 1.083-0.78429-5.8312-8.5905-12.936-15.872-22.197-22.754-9.329-6.9368-22.369-18.826-27.792-27.865-0.64782-1.0874-1.3592-0.84766-1.4362 0.40756-0.10787 1.7308-0.07191 3.611 0.27639 6.1256-2.0117-1.776-4.1412-4.6668-5.7678-7.562-0.77471-1.3768-1.8305-0.97952-1.5857 0.5891 4.1638 26.65 14.594 69.879 21.993 81.415 7.4804 11.658 31.562 27.797 49.327 36.129l0.18565-1.7171zm118.67-79.149c0.10273-3.0447 0-5.2558-0.19519-7.6663-0.1541-1.9392-1.1371-1.9527-1.9664-0.29462-2.5827 5.1606-6.9912 10.978-15.206 19.442-5.9716 6.153-13.003 14.761-22.047 33.537l-0.49316 6.8777c7.0411-18.2 17.199-31.168 24.045-38.222 7.0544-7.2721 11.114-12.568 13.969-17.779 0.11998 1.9936 0.17134 3.8604-0.033 6.2662l1.9166-2.1611z"/>
   <path class="uuid-83081fb0-85a1-4705-82d0-bc8743dac0e5" d="m204.89 1.342a30.783 30.783 0 0 0 0.20876-6.8914c-0.10273-1.2723-0.61647-1.6182-1.4813-0.4572-5.1199 6.846-11.114 11.173-17.19 12.89-22.799 6.4518-37.044 13.728-44.941 21.562 0.39384-1.8486 0.55311-2.8997 0.72434-4.694 0.11998-1.2912-0.53942-1.4949-1.5172-0.76033-2.7865 2.0887-5.9355 5.6273-7.6662 8.8126-0.9607 1.7669 0.0183 2.3378 1.1559 0.6747a32.636 32.636 0 0 1 6.0759-6.6876c-0.22271 1.7943-0.36286 3.0719-0.77402 5.0067-0.35773 1.6628 0.23115 2.2472 1.5172 0.66611 6.1619-7.5257 24.453-16.542 46.763-22.808 6.4836-1.8169 12.85-7.1315 15.731-11.903 0.10273 1.2501 0.033 4.0506-0.31664 5.6182l1.7126-1.024z"/>
   <path class="uuid-83081fb0-85a1-4705-82d0-bc8743dac0e5" d="m203.05 3.3674c2.9089-1.9166 6.0805-3.5567 9.3381-5.6726-9.397 12.668-45.363 78.388-49.001 82.937-8.3912 10.489-29.269 20.366-56.835 28.182-2.1522 0.61137-1.9075 1.7399 0.34416 1.2912 27.425-5.4733 50.274-17.349 58.851-28.041 4.8842-6.0894 36.269-65.792 47.556-82.262 5.1062-7.4442 4.6668-7.4079-3.1581-2.8906-2.5101 1.4453-5.1741 3.2985-7.7885 5.3147-1.8938 1.4641-1.31 2.4647 0.69869 1.1422m-195.76 146.18c-0.26747-5.2332-0.88809-12.274 3.4752-16.266 3.2123-2.936 4.8163-6.7826 4.7891-10.742 0.99222 1.0959 2.8363 3.6518 3.6156 5.6317l-0.29462-3.4706a23.696 23.696 0 0 0-3.0402-4.4402c-0.85639-1.0241-1.6129-1.1371-1.6628 0.53942-0.11814 4.0776-0.95145 7.5664-4.694 10.983-2.6687 2.4375-4.3949 4.9204-4.1457 15.038l1.9528 2.7276z"/>
   <path class="uuid-83081fb0-85a1-4705-82d0-bc8743dac0e5" d="m-0.85959 177.21c-3.09-6.2843-2.9314-17.041-2.868-21.911 0.04953-3.9056-2.1114-7.9108-4.472-11.01-1.3321-1.7489-0.76562-2.415 1.3275-1.767 3.5658 1.0959 7.127 3.4434 9.32 6.2706a18.962 18.962 0 0 0-0.62076-3.6655c-0.3942-1.0326 0.2084-1.4641 1.2776-1.0326 2.714 1.0874 4.5218 3.4888 5.6681 7.4125 0.48035 1.6439-0.64799 2.0344-1.2641 0.43496-1.2097-3.1309-2.3923-4.6986-3.892-5.5548 0.22675 1.4402 0.32618 2.5735 0.27628 4.2408-0.01834 0.71583-0.6252 1.0823-1.2008 0.42128-2.3877-2.7274-5.147-4.9657-8.373-6.1302 2.3017 3.1581 3.7697 6.6422 3.8739 10.308 0.1541 5.206-0.45313 18.101 3.4253 23.823l-2.4738-1.8395z"/>
   <path class="uuid-83081fb0-85a1-4705-82d0-bc8743dac0e5" d="m13.046 218.01c-1.8667-0.66615-7.7115-5.5819-10.294-7.0228 2.4829-0.33902 4.6351-0.17281 7.6843 0 1.6537 0.0855 1.7761-0.36287 0.38514-1.0925-8.9439-4.6668-11.549-12.011-12.269-16.039-0.77934-4.3496-1.9166-8.5588-6.5108-12.337 1.4092 0.19849 2.9813 1.0822 4.4901 2.3515 0.70673 0.5942 1.3728 0.49832 1.11-0.63361-0.73395-3.2485-2.1295-5.8673-3.9736-8.5179 4.1321 1.5172 8.1238 4.9431 10.512 8.9484 0.8744 1.4641 1.9437 0.96922 1.2097-0.57027-2.27-4.7664-8.2688-9.9496-13.221-10.915-1.2958-0.25023-2.0751 0.27224-1.015 1.6765 1.9618 2.587 3.303 4.6351 4.4312 7.494a9.5374 9.5374 0 0 0-5.4415-1.4915c-1.4271 0.0514-1.835 0.79801-0.6026 1.7263 5.3011 4.0053 6.0351 7.8112 6.8778 12.523 0.69319 3.8648 3.5794 10.521 11.246 15.464-1.3005-0.22601-4.9885 0.10273-6.6604 0.49315-2.5282 0.58056-1.0329 1.1148 0.22675 1.7308 4.3043 2.1022 8.1963 6.2978 11.517 7.213 2.202 0.60792 2.3696-0.25866 0.29462-1.0018"/>
   <path class="uuid-83081fb0-85a1-4705-82d0-bc8743dac0e5" d="m18.895 226.03c-2.2971-1.7443-10.027-5.7223-15.994-6.6965 2.2835-1.0874 4.1276-1.6714 6.6331-2.2111l-1.4318-1.137c-2.7457 0.74833-5.5956 1.6302-8.45 3.0584-1.6718 0.83742-1.1554 1.6816 0.46666 1.7806 5.6273 0.33058 11.848 2.8136 16.565 5.6862l2.2065-0.48119z"/>
   <path class="uuid-83081fb0-85a1-4705-82d0-bc8743dac0e5" d="m27.331 230.99c-4.8525 0.18676-9.3471-1.4179-12.487-3.0039 3.3845-0.61651 5.8765-1.459 8.885-2.6596 1.7625-0.70211 1.4136-1.8984-0.45312-1.2552-3.3755 1.1593-7.7704 2.1068-11.128 2.6822-1.3366 0.23115-1.4861 0.96922-0.19482 1.7762 3.2894 2.0661 8.6811 3.9463 13.869 3.892z"/>
   <path class="uuid-83081fb0-85a1-4705-82d0-bc8743dac0e5" d="m44.585 235.96c-2.5599 1.9029-6.393 2.2472-9.5873 2.3469-1.5813 0.0514-4.2816 0.0855-8.6494 3.0945 0.49385-2.0162 1.6402-3.7288 3.9237-6.0079 0.6569-0.65242 0.53924-1.1011-0.50295-1.1422-1.7987-0.0686-3.1444 0.17134-4.8435 0.56683 2.0162-3.0629 5.505-5.4053 10.874-7.222 2.125-0.72097 1.8395-1.8577-0.40326-1.2741-6.9821 1.8123-11.327 5.2557-13.126 9.2338-0.72951 1.6045 0.01834 1.785 1.178 1.3271 1.8667-0.73806 3.0946-1.0788 4.6939-1.1422-2.3832 2.1748-3.5477 4.2861-4.2998 7.3853-0.48035 1.989 0.24913 1.989 1.5722 0.93326 4.9114-3.9282 8.0513-3.7833 9.6824-3.8331 3.1444-0.10274 6.683-0.98297 8.4545-2.3016l1.0331-1.9619z"/>
   <path class="uuid-83081fb0-85a1-4705-82d0-bc8743dac0e5" d="m49.147 241.99c0.05137-1.3768 0.29462-2.406 0.70724-3.4345 0.36654-0.91447 0.10273-1.3408-0.95211-0.99152-2.0433 0.67984-3.5113 1.5532-5.2104 2.8 0.8427-3.6926 3.0945-6.4383 6.8144-9.3153 1.2552-0.97438 0.7381-2.0072-0.73461-1.1182-4.9974 3.0129-7.947 7.4351-8.3412 12.351-0.10787 1.3546 0.6117 1.5806 1.622 0.63875a18.712 18.712 0 0 1 5.0293-3.4389c-0.28949 0.96066-0.75175 2.3606-0.85279 3.4389l1.9166-0.93326zm23.66-45.073c1.2552 0.64732 3.815 0.84769 6.2525 0.22601 1.8984-0.47947 1.685-1.6679-0.23959-1.3134-2.2156 0.40414-4.182 0.34415-5.5413-0.17134-1.8938-0.71066-2.2654 0.32544-0.47092 1.2501m6.2662 3.9372c-4.2183 0-7.9064 1.0823-10.534 3.9058-1.3323 1.4265-0.62164 2.288 0.86989 1.0155 2.3832-2.0344 5.5865-3.2078 9.7866-3.5884 2.1203-0.19005 2.0116-1.3323-0.11998-1.3323m-3.7426 12.519c-2.4784 0.13685-4.9068 0.50688-7.0227 0.95552 1.5412-2.8682 4.1456-5.1652 7.6207-7.041 1.5138-0.82025 1.0926-1.9166-0.58906-1.2004-4.5988 1.9618-8.0605 5.3962-9.5193 9.048-0.53087 1.3134-0.10273 1.6816 1.2364 1.31a36.713 36.713 0 0 1 6.5153-1.31l1.758-1.758z"/>
   <path class="uuid-83081fb0-85a1-4705-82d0-bc8743dac0e5" d="m84.719 217.2c-5.5005 1.4231-10.199 2.936-15.119 6.3658 0.98293-4.4492 4.046-7.8384 6.991-10.081 1.5772-1.2056 1.0514-2.2202-0.75178-1.1062-3.9598 2.4377-7.8337 7.4034-8.3774 12.827-0.10273 1.1148 0.24473 1.6354 1.3991 0.88361 5.1426-3.3346 9.2657-5.5821 14.345-7.127l1.5087-1.7624z"/>
   <path class="uuid-83081fb0-85a1-4705-82d0-bc8743dac0e5" d="m86.164 215.29c-3.0266 2.0433-5.5458 5.0021-6.6695 8.7535-0.42983 1.4265 0.0855 1.8395 1.3272 1.1062 2.7005-1.5909 6.1348-3.6427 8.5271-4.7799 0.23959 1.7669 0.68842 3.3798 1.7943 4.8162 0.29976 0.38533 0.84766 0.39046 1.3631-0.033 1.4727-1.2141 2.4241-2.3877 3.1309-3.303a110.14 110.14 0 0 1 6.4519 9.388c0.55656 0.88875 1.0155 0.86134 1.5498-0.1541 0.60278-1.1422 0.87506-2.3106 1.096-4.055 2.3923 3.3982 5.3961 6.2389 7.6028 7.5212 1.2912 0.75175 1.9301 0.32177 1.5857-1.1782-0.77061-3.3437-1.2912-7.9245-0.033-11.866 0.5206-1.6405-0.54456-2.0616-1.2466-0.48974-1.7489 3.9146-1.2364 8.1828-0.75178 11.105-2.2973-1.6405-5.1017-4.3178-6.9731-7.222-0.61992-0.96925-1.0686-0.53428-1.2193 0.2484-0.28068 1.4453-0.56169 2.6731-1.0052 3.8921-1.8169-2.8908-4.2227-5.8766-6.5515-8.8533-0.34416-0.4401-0.72438-0.47605-1.0788 0.033a16.932 16.932 0 0 1-2.9677 3.217c-0.91447-1.2638-1.3237-2.5916-1.5584-4.191-0.10273-0.72952-0.44351-0.8117-0.93839-0.5891-1.9936 0.88361-4.6488 2.1296-7.3762 3.6972 1.1285-2.655 2.6007-4.182 4.6894-5.949 1.2963-1.096 0.75174-2.1248-0.74834-1.1045m37.176-110.99a20.62 20.62 0 0 1 6.9231 13.583c0.19005 1.9936 1.346 1.9438 1.3357-0.0514-0.0184-5.736-2.143-10.539-6.0713-14.231z"/>
   <path class="uuid-83081fb0-85a1-4705-82d0-bc8743dac0e5" d="m128.88 109.84c5.2375 0.53429 9.4604 7.5303 8.033 18.808-0.25353 1.9936 0.85111 2.2065 1.3134 0.23958 2.1748-9.2655-1.5806-21.34-10.507-21.168l1.1593 2.125z"/>
   <path class="uuid-83081fb0-85a1-4705-82d0-bc8743dac0e5" d="m137.63 119.75c3.2487 2.6279 4.1186 6.76 3.8422 14.118-0.0855 2.107 0.98807 2.1976 1.3323 0.11998 1.3905-8.373-0.99148-14.748-5.4959-17.19z"/>
   <path class="uuid-83081fb0-85a1-4705-82d0-bc8743dac0e5" d="m148.62 137.17c0 4.8933-0.34415 9.2157-6.4336 14.358-1.4402 1.2141-0.88365 2.2156 0.79798 1.0686 6.7647-4.5943 7.9699-10.403 7.5983-15.428-0.70721-9.6462 2.56-22.251 1.8078-22.573-0.82539-0.3526-7.4669 7.0409-10.113 14.662l-0.0686 3.2985c1.8034-4.7168 5.949-11.554 8.6901-14.526-1.9436 6.751-2.288 16.325-2.288 19.143"/>
   <path class="uuid-83081fb0-85a1-4705-82d0-bc8743dac0e5" d="m149.47 141.49c2.7365-3.2894 5.2422-4.8616 9.0073-5.9036-2.5872 2.0253-4.0098 4.286-5.1198 6.5605-0.43497 0.8922-0.11998 1.423 0.88361 0.92815 3.8105-1.8756 6.4655-2.4149 9.7596-2.4647-5.5867 3.9463-8.799 10.299-9.1886 15.776-0.47092 6.6331-0.78774 16.021-9.9769 20.565-1.749 0.86479-1.4008 1.9664 0.50688 1.2364 10.303-3.9372 11.187-14.331 11.626-21.657 0.33572-5.5367 3.6338-11.821 9.8772-15.727 1.2775-0.80142 1.4094-1.6576-0.34416-1.8169-3.7335-0.34416-6.76 0.10273-10.566 1.7671 1.423-2.1613 3.2939-3.9328 5.4052-5.4552 1.5908-1.1457 1.2552-1.962-0.73806-1.7671a16.13 16.13 0 0 0-11.024 5.9218l-0.11997 2.0388zm-5.2242 55c4.2273-0.1541 7.3219 0.29463 10.525 1.2552-5.3737 1.8123-7.4623 4.2998-9.9361 7.7385-2.3425 3.2533-6.6332 9.1388-10.077 11.649l2.8999 0.29462c2.7367-2.2835 6.2389-7.3718 8.6494-10.91 2.587-3.8059 5.505-6.683 11.4-7.8111 1.9166-0.36653 1.5532-1.1422 0.24472-1.7217-2.9949-1.3272-6.9775-1.8667-11.458-1.8895l-2.2519 1.3956z"/>
   <path class="uuid-83081fb0-85a1-4705-82d0-bc8743dac0e5" d="m129.06 231.38c7.1224-9.3698 9.6733-11.218 16.021-11.667 2.5735-0.18162 3.0718-0.95211 0.34416-2.0933-7.0816-2.9586-13.71-1.7308-18.948 1.5772-1.3271 0.83738-0.74834 1.5001 0.66615 0.82366 3.4888-1.6628 10.303-3.824 16.886-1.3768-8.0377 0.53429-9.918 3.4932-16.207 11.748-2.3562 3.0901-7.9834 9.3018-15.708 7.0637-1.495-0.43496-1.835 0.0855-0.68838 1.3768 1.0378 1.1782 3.4797 3.1535 6.0985 3.8513-4.3994 1.6045-13.112-0.24986-14.54-1.31l-1.2415 1.3819c4.8025 2.3243 12.469 2.356 16.479 1.2552 2.3197-0.6336 2.6459-1.4538 0.90589-2.0842-1.826-0.66101-4.0551-1.4676-5.1606-2.7139 7.7252 1.0651 11.644-3.303 15.083-7.8339m44.28-165.19c7.9471 0.39387 17.697-7.2267 18.558-16.587 0.19006 1.7987 0.27225 5.4869 0.20364 7.2448-0.0183 0.63874 0.32177 0.91102 0.90074 0.69356 1.1422-0.42983 3.0538-2.4782 4.0643-3.9373 0.48464 6.5924-1.903 15.002-6.2254 18.785-5.7089 4.9976-7.9879 8.8941-7.7886 12.242 0.10273 1.8123 0.67983 1.7851 1.0052 0 0.52574-2.9043 1.6765-5.0565 8.3141-10.865 4.6169-4.0416 7.0362-14.25 5.8131-22.265-0.29976-1.9483-0.70211-2.501-1.7039-0.48461-0.51201 1.0326-1.6045 3.1083-2.732 4.1956-0.22271-3.0221-0.7432-6.1258-0.97439-7.562-0.4401-2.7322-1.6576-2.8771-2.1294 0.17134-1.7217 11.096-8.4046 15.885-16.016 15.813l-1.2861 2.56z"/>
   <path class="uuid-83081fb0-85a1-4705-82d0-bc8743dac0e5" d="m196.12 65.639c1.6183-2.22 7.6027-7.3762 11.93-8.6674-2.5555 2.7048-3.7018 7.0183-4.2364 9.8546-0.0855 0.42983 0.38018-0.22271 2.3969-1.5634 0.13685-2.6913 1.644-6.5606 4.327-9.116 1.5086-1.4367-0.63533-1.1782-2.7639-0.64388-4.4221 1.1062-9.2112 4.6985-11.277 7.2993l-0.38015 2.8408z"/>
   <path class="uuid-83081fb0-85a1-4705-82d0-bc8743dac0e5" d="m236.07 60.207c-4.055 2.9495-9.6462 2.8862-13.443 1.0788-8.6312-4.1095-18.998 2.0887-23.162 11.001-0.91957 1.9664-0.10274 2.5055 1.1285 0.71579 4.8844-7.118 12.985-14 20.878-10.24 3.4888 1.6628 9.1206 2.4784 13.384 0.44351-2.3106 3.6382-5.5683 6.3614-11.119 7.5937-2.0253 0.44868-1.9393 1.5224 0.1541 1.3272 6.9412-0.64388 11.363-4.993 13.796-10.077 1.1371-2.3786 0.38529-3.303-1.6217-1.844"/>
   <path class="uuid-83081fb0-85a1-4705-82d0-bc8743dac0e5" d="m261.21 60.501c-1.0874-1.9303-2.0616-1.7128-2.2111 0.36654-0.22271 3.099-1.0326 6.1936-3.3165 9.3607-0.18162-5.1834-3.1036-10.299-4.6442-12.754-1.5532-2.4784-2.2472-2.1703-2.2111 0.44355 0.0686 5.3827-1.7851 10.195-5.2331 11.649-3.2077 1.3494-7.7387 0.36653-10.589-2.8228l-1.0155 0.88361c2.7593 4.4446 8.6086 5.3553 12.342 3.7787 3.1262-1.3186 5.9852-5.7767 6.4248-10.38 1.8893 2.7185 3.5114 8.8759 3.6564 11.182 0.0514 0.77916 0.44865 1.1371 1.1234 0.52574 2.2111-1.9935 3.9826-5.2377 4.8572-8.8895 0.65246 2.8952 0.66956 7.0455-0.40755 10.262-0.55656 1.6628 0.21243 2.3469 1.197 0.59765 2.3923-4.259 1.6543-11.336 0.033-14.209"/>
   <path class="uuid-83081fb0-85a1-4705-82d0-bc8743dac0e5" d="m261.66 70.342c7.2132-6.5968 10.163-17.639 7.8113-26.102-1.6405-5.8947-5.7995-10.022-11.558-12.097 1.1319-0.67129 2.9995-0.83397 5.3918-0.1541 1.2638 0.36324 1.4727-0.01834 0.76543-1.0155-1.6217-2.2971-3.3074-6.0578-3.9372-10.335 1.2141 1.1062 2.5871 2.1929 3.7288 3.0582l-0.34415-2.5146c-1.4179-1.1148-3.0629-2.3425-4.1275-3.5386-0.94184-1.0548-1.8169-0.92471-1.5224 0.98297 0.68842 4.472 1.9301 8.4319 4.0278 11.449-2.4104-0.53942-5.4053 0.34416-6.7328 1.572-0.78774 0.72951-0.67987 1.2415 0.68839 1.6714 6.4655 2.0388 9.9633 5.5593 11.59 11.4 2.1205 7.6344-0.25867 16.365-5.8992 23.728z"/>
   <path class="uuid-83081fb0-85a1-4705-82d0-bc8743dac0e5" d="m265.24 8.9946c0.46237 5.8766 1.7761 13.724 8.6448 18.481 17.176 11.893 22.627 27.203 20.045 46.201l1.826-2.4332c3.978-17.919-4.019-33.786-20.498-45.195-7.0681-4.8933-7.6435-11.531-8.7174-19.868-0.23114-1.8034-1.1696-2.0525-2.0524-0.18675-3.5023 7.3988-4.0189 17.421 2.6414 25.785 1.3511 1.6953 2.1657 0.76202 1.0429-0.83738-4.7573-6.7828-5.0745-15.4-2.9314-21.948"/>
   <path class="uuid-83081fb0-85a1-4705-82d0-bc8743dac0e5" d="m300.16 88.946c2.9904-7.358 3.4661-22.364 2.6144-27.896-0.36653-2.3832-1.3905-2.5462-2.2202-0.27224-1.8169 4.9839-5.5411 11.477-8.2687 14.394-1.5772 1.6902-0.65756 2.5462 0.97952 0.91103a38.603 38.603 0 0 0 7.8973-11.671c0.54801 3.9463-0.53083 19.184-3.8331 27.992l2.8317-3.4615z"/>
   <path class="uuid-83081fb0-85a1-4705-82d0-bc8743dac0e5" d="m314.8 89.616c-3.9827-0.29462-6.3205 0.033-9.8772 0.88361a13.411 13.411 0 0 1 2.2111-3.0946c1.2998-1.2998 0.47092-1.8395-1.1782-1.7669-5.07 0.22272-9.2883 4.9385-10.811 9.1703-0.59764 1.6628 0.43497 2.057 1.2467 0.48464 1.6765-3.2441 4.626-6.5606 8.2054-7.5574a13.57 13.57 0 0 0-2.1884 3.9598c-0.33058 0.98807-0.13686 1.3134 0.82029 1.0189 3.4117-1.0463 5.9716-1.5498 8.8985-1.2466-11.925 6.3297-10.398 16.755-12.215 24.022-1.209 4.8435-2.8 8.4049-10.009 13.792-1.5052 1.1234-1.0326 2.1068 0.72093 1.1285 6.7826-3.7833 9.9496-8.3776 11.495-14.553 0.64729-2.5962-0.0686-17.738 13.053-23.733 2.7546-1.2552 2.6778-2.2791-0.36654-2.5056"/>
   <path class="uuid-83081fb0-85a1-4705-82d0-bc8743dac0e5" d="m306.24 140.08c-3.4208-10.675 2.8591-13.43 7e-3 -26.505-0.42642-1.9664-1.3374-2.0253-2.211-0.36654-0.9778 1.8486-1.8441 3.0948-3.4661 5.0111l-1.1594 2.9497c1.9844-1.3631 3.747-2.8409 5.1425-4.9431 2.0072 12.464-3.3574 12.487-0.10273 25.16 1.8758 7.3173 0 17.888-7.7704 25.903-1.4042 1.4504-0.6576 2.2518 0.91099 0.98294 8.3504-6.7647 11.481-19.338 8.6448-28.196"/>
   <path class="uuid-83081fb0-85a1-4705-82d0-bc8743dac0e5" d="m299.2 165.79c2.2563-0.36654 4.5534-0.47092 6.8234 0.0514-2.4647 2.0707-6.7056 5.5278-9.6734 5.9944-2.0025 0.31664-2.0253 1.4316 0 1.3374 3.9237-0.18162 9.2294-4.2362 12.324-7.0364 0.67128-0.6062 0.74833-1.3357-0.29463-1.6936-2.5781-0.88361-5.1606-0.98293-7.7387-0.66097z"/>
   <path class="uuid-83081fb0-85a1-4705-82d0-bc8743dac0e5" d="m298.14 172.36c2.2383 0.63875 4.7801 1.9257 6.7647 3.1081-5.41 1.0463-11.187 3.9374-13.171 6.221-0.4846 0.55655-0.22601 1.1645 0.60279 1.1097 5.3646-0.36654 9.0617 0.65243 10.965 4.1277l2.7276 0.88365c-1.4231-4.4719-5.9716-7.2222-11.427-6.5607 2.7322-1.8712 7.4443-3.6834 12.455-4.2001 1.758-0.18162 2.5329-0.81515 0.44355-2.211-1.9392-1.2963-5.2331-2.9497-7.5937-3.5386l-1.7715 1.0652z"/>
   <path class="uuid-83081fb0-85a1-4705-82d0-bc8743dac0e5" d="m295.76 186.41c-1.9119 0.69352-1.5857 1.7217 0.39901 1.2775 5.369-1.2056 10.072 0.11997 12.446 4.4718-10.466-2.8045-25.876 1.9121-31.444 8.2281-1.2227 1.3871-0.36324 2.0661 1.0326 0.84766 6.452-5.6136 20.09-9.9632 31.367-6.5696 2.1613 0.64729 2.5057 0.17134 1.6217-2.0661-2.3243-5.9173-8.9211-8.5497-15.423-6.1891"/>
   <path class="uuid-83081fb0-85a1-4705-82d0-bc8743dac0e5" d="m286.55 195.09c-4.694 5.8675-13.47 15.423-15.604 17.267-3.4389 2.9723-7.5983 6.8416-12.383 7.3717l3.4842 0.72948c3.593-0.82539 7.7794-4.1321 10.67-6.6241 2.501-2.1613 12.383-13.665 16.905-19.854l-3.0675 1.1097z"/>
   <path class="uuid-83081fb0-85a1-4705-82d0-bc8743dac0e5" d="m245.33 216.34a26.524 26.524 0 0 0 13.185 4.4493c2.936 0.1541 5.8674 0.97439 8.8352 2.3604-4.8572-0.47606-9.9272-0.13686-14.01 1.4864-8.0603 3.1942-20.149 5.6273-28.282-1.1182-1.4539-1.2055-2.2654-0.35773-0.9196 0.96924 7.9471 7.8428 21.363 5.3373 29.89 1.921 4.9024-1.962 10.616-2.0661 16.37-0.96925 2.6551 0.50687 2.8-0.52056 0.90589-2.0298-3.4526-2.7548-7.6663-4.1277-12.605-4.4947-3.3484-0.24839-6.3388-0.66611-12.754-3.7607-1.853-0.8922-2.2337 0.10273-0.61133 1.1918"/>
   <path class="uuid-83081fb0-85a1-4705-82d0-bc8743dac0e5" d="m232.68 228.28c1.4128 1.1782 3.6925 3.1807 5.6771 5.6047-3.3891-1.7671-6.6332-2.5373-9.6551-2.433-5.7951 0.19849-11.658 0.42983-16.982-2.039l2.1294 2.2111c4.9839 1.8486 9.7503 1.989 14.775 1.8169 3.6292-0.11998 7.7387 1.0326 11.943 3.611 2.3515 1.4453 3.0538 0.49319 1.4727-1.6953-2.2835-3.1672-4.1277-5.0111-6.1891-6.7102z"/>
   <path class="uuid-83081fb0-85a1-4705-82d0-bc8743dac0e5" d="m202.82 232.63c3.679 1.6953 9.8048 4.055 17.534 4.277 2.8997 0.0855 3.2214-1.0326 0.5257-2.3604-5.0882-2.5056-9.8048-6.3388-12.197-9.8546-1.0378-1.5224-1.9664-0.7843-1.197 0.59764 1.6713 2.9904 4.6623 6.5516 9.1886 9.2566-6.7419-0.58055-13.28-3.2668-16.121-4.694l2.2609 2.7774zm-143.49 34.425c-1.6714 12.881-3.951 21.449-7.3219 26.9-3.7063 5.9898-9.4468 8.2643-18.214 6.7374-4.5082-0.78429-7.05-2.501-8.1917-5.3464-1.3093-3.2487-0.37608-7.5393 2.6687-12.365 1.3004-2.057 1.9301-2.9768 2.7049-5.0156 3.1489-8.314 5.1697-22.269 2.7321-38.621l-2.1793 0.3493c1.2686 8.4727 1.8803 23.674-2.3062 36.732-1.0103 3.1625-1.5541 3.6338-3.0311 5.8992-3.3709 5.1606-4.2092 10.145-2.7094 13.864 1.3275 3.303 4.8571 5.6363 9.85 6.5063 9.3607 1.6268 16.655-1.06 20.828-7.4668 3.978-6.1121 6.1438-15.201 7.8428-28.499l-2.6731 0.32177z"/>
   <path class="uuid-83081fb0-85a1-4705-82d0-bc8743dac0e5" d="m32.442 300.42c-3.5114-0.68839-2.8997-6.4112-0.65243-9.4287 0.85639-1.1456 0.14052-1.853-0.95608-0.93325-3.3528 2.8135-3.4208 7.8428-2.2745 9.8681l3.8829 0.48975zm10.416 0.32177c-4.8389 0.86134-4.105-6.2932-2.8408-9.1931 0.54815-1.2604-0.38514-1.7398-1.1826-0.62505-2.3923 3.3302-2.6143 9.5465 0.28545 11.069l3.7334-1.2501zm2.4693-37.746c-2.936-2.0887-1.8803-7.7794 1.3275-10.638 1.1644-1.0429 0.56169-1.8304-0.811-1.06-3.3891 1.8938-5.1788 6.4835-4.1639 9.8183z"/>
   <path class="uuid-83081fb0-85a1-4705-82d0-bc8743dac0e5" d="m108.76 230.46c-1.2501 1.9574-4.9613 7.6844-6.4928 9.7594-1.0052 1.3683-2.4603 2.406-4.4539 3.3122-7.9516 3.611-19.469 11.549-27.751 17.652-8.4817 6.2526-18.073 6.8643-25.885 1.0189-6.3115-4.721-5.9082-14.095 5.0927-19.007 8.8713-3.9645 22.283-15.355 31.018-23.914l-4.7527 1.6816c-8.5905 8.0512-18.944 16.868-26.945 20.443-13.457 6.0124-12.41 17.666-5.5594 22.79 8.3005 6.2073 19.333 5.4778 28.304-1.1371 8.2324-6.0668 19.609-13.919 27.452-17.48 2.1974-0.99662 4.2907-2.569 5.4324-4.114 1.5583-2.1114 5.0202-7.408 6.2798-9.3835l-1.7398-1.6131z"/>
   <path class="uuid-83081fb0-85a1-4705-82d0-bc8743dac0e5" d="m55.708 266.24c-5.3056-0.24472-4.7801-7.8519-1.9664-10.806 1.0822-1.1371 0.39387-1.9618-0.86479-1.0189-3.901 2.9043-4.141 9.927-1.3237 12.415l4.1501-0.58906zm38.481 11.082c-2.9723-1.2278-1.8441-7.4216 1.1593-9.4287 1.2689-0.84766 0.56165-1.8258-0.77574-1.0926-3.7515 2.0661-4.9385 6.7419-3.8013 9.6823l3.4163 0.83394z"/>
   <path class="uuid-83081fb0-85a1-4705-82d0-bc8743dac0e5" d="m130.14 228.57c2.7865 0.7021 3.8332 5.4098 1.2278 12.138-2.6279 6.7873-7.4488 17.643-12.827 26.193-6.3296 10.063-12.863 13.294-23.198 10.761-6.8823-1.685-8.5677-8.1736-4.3904-14.182 1.4042-2.0162 2.0977-2.6959 3.244-4.5399 3.0267-4.8888 4.7257-9.4967 6.2028-15.473l-2.4647 1.2775c-1.4402 4.8344-2.9497 9.1342-5.7225 13.611-1.8758 3.0266-2.2202 3.09-3.4298 4.7347-5.2512 7.1587-1.5669 14.471 6.1393 16.361 10.38 2.5418 18.604 0.66098 25.781-11.508 5.0836-8.6175 10.253-19.958 12.904-26.804 2.9088-7.5166 1.6902-12.768-1.3545-14.095l-2.1114 1.5224z"/>
   <path class="uuid-83081fb0-85a1-4705-82d0-bc8743dac0e5" d="m105.03 278.16c-4.5943 0.86134-4.7664-5.8992-1.6405-9.4424 0.98293-1.1097 0.27224-1.8486-0.92475-0.96407-4.3133 3.1807-3.8194 9.8138-1.2192 11.685zm53.314-129.88c15.89 4.5943 29.346 28.427 28.966 51.588-0.19006 11.585 4.3587 22.337 12.641 30.995 4.123 4.3088 5.1606 8.3639 4.2046 15.26-1.2998 9.3561-7.426 25.771-10.543 34.131-5.6047 15.024-14.227 15.056-21.943 13.982-6.2345-0.86993-9.5601-4.3587-9.3381-9.7277 0.18162-4.3904 3.4163-8.5497 5.7769-11.345 0.8562-1.0155 1.6491-2.2291 2.2608-3.6927 2.1794-5.1967 3.1625-12.02 2.9406-17.738-0.20363-5.1832-2.2202-7.7478-6.3614-9.3608-11.123-4.3359-22.201-13.615-27.122-22.663l-2.125 0.64388c5.1969 9.7368 15.935 19.773 29.845 24.611 1.6764 0.58396 2.9269 2.0842 3.1898 6.1891 0.32544 5.1199 0.0183 11.857-2.27 17.398-0.83738 2.0299-1.4008 2.4332-2.6913 3.892-2.7457 3.1082-5.5639 7.4986-5.7541 12.061-0.19519 4.993 1.8032 10.471 11.304 11.794 8.8669 1.2364 18.721 0.98807 24.643-15.088 3.1036-8.4228 9.1477-25.219 10.466-34.72 0.99666-7.1724-0.21757-12.093-4.8661-16.954-8.0378-8.4002-11.907-18.445-11.726-29.668 0.38529-23.479-12.251-47.27-30.089-53.686l-1.4179 2.1022z"/>
   <path class="uuid-83081fb0-85a1-4705-82d0-bc8743dac0e5" d="m169.09 293.67c-4.5443-1.5001-3.3891-6.5606-0.97439-9.6507 0.8922-1.1456 0.24473-1.8893-0.89733-0.99151-3.3845 2.6596-3.5884 7.8202-2.2791 9.9361l4.1549 0.71069zm10.611 0.73461c-5.5548 0.68842-4.6442-6.8552-3.1082-9.8546 0.69869-1.3597-0.10274-1.9392-1.0874-0.77915-2.6822 3.1897-3.0175 9.3833 0.28949 11.862zm-171.57-262.45c0.12658-1.5806 0.80194-1.758 1.7217-0.28582 6.3296 10.113 15.482 32.395 18.282 43.451l-1.5994 2.501c-4.2001-15.482-12.501-34.81-16.728-42.372-0.14896 1.894-0.16254 3.0945-0.23995 5.233-0.04109 1.1062-0.6343 1.1422-1.1917 0.53428-1.9981-2.1928-4.6758-5.2104-6.3387-6.9503 0.12658 1.6131 0.3038 4.0869 0.39868 5.2286l-1.5496-1.8439a79.852 79.852 0 0 0-0.45756-4.8752c-0.17208-1.4641 0.36698-1.826 1.5179-0.73806a75.778 75.778 0 0 1 6.2027 6.778c-0.13539-2.9903-0.17208-4.7392-0.014676-6.6511m152.3 139.16c-6.4473 4.1866-9.7414 4.6124-12.324 4.3361l-1.0018 1.6405c6.1302 0.0855 10.376-2.193 13.552-4.3859-2.2745 6.0352-5.8538 10.045-12.895 13.629-2.2018 1.1182-1.7352 1.8486-0.57027 2.2246 1.6988 0.54801 5.3554 1.1011 6.8959 1.1833-2.5961 2.0388-8.3549 5.1968-11.445 6.8823-1.8756 1.0189-2.1793 2.0933-0.10273 1.31 3.8557-1.4539 10.33-5.0971 13.574-7.4577 2.3469-1.709 1.4864-1.7852-0.49319-2.0162-2.2472-0.26381-4.9159-0.68497-6.6695-1.173 7.5757-3.2485 9.9317-5.5004 13.23-14.752 1.1199-3.1353-0.11998-2.4738-1.758-1.4128"/>
  </g>
  <path class="uuid-e78c8450-78e7-4f2d-b474-887af4e9329f" d="m27.377 75.684c-3.0946-10.321-10.91-31.403-18.132-43.347-0.29462 2.5055-0.29462 5.1606-0.44403 7.6661-3.5386-3.5386-5.7497-6.0441-7.6662-7.6661l0.29462 5.0111c-7.0772-7.6663-16.66-15.482-22.559-20.049-5.8991-4.5715-18.726-16.216-23.882-25.359 0 2.5057-0.14896 4.5717 0.14896 7.5212-2.0661-1.6217-5.8992-5.3056-7.2222-8.2552 3.8331 24.915 15.482 69.884 23.293 81.827 7.8111 11.943 35.68 29.192 47.18 34.792-0.73858 8.4046-0.5891 14.005 0.29462 19.02 0.88343 5.0156 1.622 10.761 1.9165 15.332 0.99688 15.418 17.38 25.912 34.203 28.603 11.055 1.7669 42.019-6.0443 53.074-19.755 11.055-13.71 11.255-33.075 10.421-44.624 15.527-4.9159 39.119-15.677 45.753-24.67 6.6331-8.9936 22.115-39.069 29.931-52.046 7.8157-12.976 15.482-27.126 20.937-33.909-3.2441 1.7671-6.7827 3.6836-10.616 5.7497 0-2.3606 0.29462-4.8661 0-7.0772-3.0946 4.1277-10.702 11.862-17.838 13.71-7.9607 2.0661-33.025 9.2883-46.147 22.704 0.29463-2.2111 0.88365-5.1606 1.0326-6.9277-1.423 0.98293-3.4888 2.6551-5.061 4.5217 0-2.9495-0.10273-5.899-0.39387-8.5497-2.6549 5.9944-8.7263 14.154-12.777 17.988-5.505 5.2105-15.727 16.809-25.16 37.153l-70.572 0.63874zm110.14 141.24c2.2111 0.1541 5.3373 0.53428 7.9788 1.8167-2.5236 0.10273-4.4402 0.54283-6.7962 1.2826 3.534 7.8565 16.483 18.962 28.118 23.42 3.679 1.4094 4.9839 2.4239 5.1969 8.9394 0.23629 7.127-0.79801 15.663-3.824 18.798-9.4921 9.8183-9.6462 22.188 2.066 23.882 11.205 1.6217 19.587-0.63019 23.148-10.466 5.0111-13.86 9.8998-27.244 11.943-38.036 1.0326-5.4552 0.1541-12.677-5.4552-17.693-5.6046-5.0111-11.354-16.216-11.354-28.159 0-27.81-15.627-49.685-29.437-53.418l-20.837 24.521-0.73806 45.114zm-105.12 22.41c2.6551 11.649 1.0331 34.647-3.8331 41.43-6.2254 8.6764-7.5348 18.803 5.0111 21.082 8.1102 1.4727 17.027-0.63361 21.231-10.027 2.5057-5.6046 4.7166-15.038 5.7497-24.915 4.4221-1.1782 8.4047-3.2442 13.121-6.7828 4.7166-3.5386 15.921-11.499 25.065-15.482-0.88362 3.8332-2.9904 12.134-7.0772 16.51-6.1937 6.6331-5.6228 15.872 3.6835 17.693 6.7828 1.3272 15.187 1.1782 22.115-7.8156 6.9275-8.9938 13.887-26.424 15.627-32.142 1.0326-3.3891 1.9166-8.2552-1.6217-11.055l-22.559-16.954-58.384 5.3055-18.132 23.148z" fill="#ef8337"/>
  <path class="uuid-13d634bc-0ad1-4e11-a485-26ebabbe32a4" d="m71.584 142.63c-0.49833-4.2816 0.17281-12.016 3.2033-15.953 5.292-7.7885 16.877-8.4273 22.12-7.4486 2.6776 7.2447 0.98294 19.039-6.0941 23.461-6.18 3.8602-14.345 3.534-19.229-0.0514m-48.38-21.834c3.3165-0.91957 9.0934 0.38019 13.493 5.3329 3.4298 3.8602 4.8752 9.9904 4.8299 16.094-2.2382 2.2517-9.0934 4.2272-14.213 0.57024-3.5658-2.5509-7.1587-11.699-4.1095-21.997" fill="#0f141b"/>
  <g fill="#fff8b0">
   <path class="uuid-2a7df621-aac9-4922-bf54-cbcefcfc2ebd" d="m188.57 199.38c0.13685 13.37 5.505 23.787 13.071 31.648 5.9944 3.5386 14.938 4.5217 19.165 4.7166a34.434 34.434 0 0 1-7.7658-5.1108c3.3391 1.6714 10.321 2.1613 15.038 1.7671 4.7166-0.39387 9.3379 1.6714 13.171 3.8331-1.3768-2.4603-4.327-5.7995-6.4881-7.9608 5.6047 1.3768 14.548-0.68839 18.477-2.5553 5.0428-2.3969 13.366-2.3606 18.087-0.98293-2.8498-2.3604-7.4712-4.3224-10.027-4.5217 11.205-4.6169 22.015-19.36 26.048-24.965 8.6494-3.5386 16.905-3.4389 23.198-1.4727-0.68839-3.1446-4.1277-5.8992-6.3884-6.9775-2.066-4.7166-7.0772-5.1108-11.4-4.9161 4.028-3.7333 10.715-5.4051 14.644-5.7993-1.8668-1.6714-5.8992-3.5386-8.0605-4.4222 3.3439-1.8666 6.9776-4.5217 8.2552-6.3884-1.6713-0.68842-4.7166-0.98293-7.077-1.0822 6.683-9.2385 6.8958-18.359 5.011-22.999-3.4026-8.3684 2.483-15.899-0.39384-27.62-1.0823 2.1613-3.7335 4.6216-5.505 5.8992 4.9839-10.33-0.40414-21.186 15.627-28.798-4.1275-0.7843-9.7321 0.39387-11.988 1.1782 0.88362-1.9664 1.6713-3.7335 3.0447-5.3057-1.572 0.10274-4.839 0.93329-7.05 2.9996 3.2802-11.658 4.0958-21.109 2.2836-28.159-0.98297 2.7502-4.4765 7.7659-6.5381 11.01 2.3606-15.627-1.8576-33.039-18.971-45.014-7.3626-5.1515-9.1251-8.0784-10.421-21.426-1.6714 2.655-3.5386 8.45-2.1613 15.727-1.1782-0.5891-3.6382-2.0661-4.6214-3.0447 0.58907 3.833 1.4761 8.2552 4.5217 12.582-2.655-0.7877-5.6047-0.68838-7.4714 1.0788 13.271 2.9495 18.871 21.92 5.7995 36.269 0.19519-2.2609 0-5.1108-1.4727-7.8611-0.78771 4.028-2.1611 8.2552-4.9159 11.4-0.72093-6.9683-3.2713-10.652-5.505-14.743 0.58907 12.483-9.3381 18.182-16.905 10.222 1.572-1.7671 3.244-4.2273 4.1277-6.4881-3.8332 1.9664-8.5497 3.6382-13.86 1.572-5.3103-2.0661-8.3006-3.661-17.507 2.8771-0.0855-4.8798 2.4873-8.4047 3.9598-9.483-6.7237 1.4727-11.023 5.7269-12.89 7.1994 0.78429-3.4389 1.3768-7.6663 0.58906-11.794-0.98293 2.0661-2.5555 3.9328-4.1277 4.7166-0.19519-2.2609-0.42983-6.6287-1.2193-9.184-2.5418 10.04-6.9368 17.149-17.652 17.738-4.3768 7.4215-7.1768 14.499-11.748 18.626-4.5717 4.1277-17.543 13.86-37.447 20.643 0.73806 1.1285 2.2109 3.1942 3.0946 4.8661 3.5386-0.29462 8.5497 3.5386 9.2383 9.7322 1.3768 0.29462 4.9387 4.7937 4.9387 11.282 1.209-2.5555 7.5529-12.646 9.4196-13.928-1.0788 5.1108-2.5599 19.745-2.3652 24.072 4.1277-4.2274 8.2554-5.505 11.404-5.6047-2.7548 1.8668-4.7212 4.7166-6.5878 7.6661 4.0324-1.8666 8.6494-2.7546 12.088-2.2608-2.4556 1.7669-5.011 3.9326-7.2719 7.4712 13.466 4.7168 29.192 24.081 29.487 52.091"/>
   <path class="uuid-2a7df621-aac9-4922-bf54-cbcefcfc2ebd" d="m-7.452 143.49c2.8272 3.534 4.8208 8.8667 4.694 13.176-0.13172 4.3044 0.64336 14.394 2.3107 20.244-2.8272-2.3786-6.2345-3.4071-7.9698-3.9191 2.3787 2.8272 4.8843 7.5212 5.1425 10.09-2.1204-2.057-5.3963-2.5688-6.7464-2.3786 6.171 5.2058 6.4247 7.9697 7.5846 13.434 1.7035 8.0512 6.6196 12.85 12.723 16.32-2.1838-0.11998-5.1153-0.40415-9.4377 0.18492 1.9301 0.83738 7.7659 4.9161 7.5122 5.8584-2.9541 0.8973-6.4247 2.3108-8.4183 3.3393 6.8778 0.25353 14.394 4.046 17.607 6.5516-1.7987 0.51715-3.534 0.90071-5.3328 1.0925 3.2123 2.5056 9.1885 4.114 14.073 4.3044-1.4136 1.2192-2.7004 3.0855-3.534 4.5625 2.4421-1.2826 5.5911-1.4778 7.0047-1.3511a14.82 14.82 0 0 0-4.8208 8.355c3.7923-2.9588 7.8384-4.3044 10.09-4.1142 2.2473 0.1952 4.8208-0.38528 8.4817-1.7352a22.654 22.654 0 0 0-1.2867 4.9476c1.6085-1.7352 4.8209-3.3391 7.0046-3.9825-0.51715 1.2861-0.77061 2.954-1.0292 4.114 2.7639-0.96579 8.5497-4.7575 11.631-7.0681 3.0855-2.3108 12.786-10.28 16.9-14.843 1.8621-0.70724 4.2408-1.6713 6.8097-2.3152-1.3494 1.4128-2.3106 3.7924-3.1489 6.1665 2.3788-1.6714 7.195-4.046 9.5736-5.138 0.32177 2.6324 1.1559 4.046 1.9256 5.138 1.4128-0.83397 2.569-2.1839 3.7924-3.7924 2.1839 2.5057 4.694 6.2979 7.1315 9.8953 0.7706-1.5446 1.2192-3.4706 1.5446-5.4642 1.2193 1.9302 3.5341 4.3678 5.2695 6.1665-2.0572 3.5341-4.5627 7.3899-7.1316 10.607 4.123 2.6505 13.357 2.3606 16.578 1.1559-3.7922-1.8712-5.6364-3.3935-6.9231-4.9974 5.2149 1.9164 11.671-0.66614 15.147-5.9264 5.8584-8.8533 9.415-12.097 18.187-13.429-2.637-0.96584-5.7814-1.5446-8.8668-1.7354 2.8272-2.4421 7.8383-9.2564 10.348-12.854 2.5055-3.5975 7.0681-5.5912 10.67-6.4928-2.3787-1.0292-8.8035-1.9936-11.44-2.2519 3.5929-1.3134 8.5677-5.0337 10.045-6.1891-2.057 0.13686-7.8202-1.3186-9.1069-1.5772 8.101-4.2319 11.581-6.8099 14.838-16.347-6.7737 4.4085-9.2837 4.7664-13.728 4.8389 6.3794-5.0563 7.5212-15.813 7.6481-19.156 0.25353-6.6196 4.626-13.303 10.462-17.167-4.1277-0.68838-8.4501 0.68842-12.188 2.4556 1.572-3.1444 4.1275-5.6997 6.683-7.8654-3.2441-0.10274-8.0603 2.3604-11.404 5.6046-0.0855-3.3076 2.2292-24.136 2.2292-24.136s-6.1891 6.9957-9.2746 14.046c-0.28948-4.4856-1.4402-9.8502-4.9478-11.336-1.0326-4.2453-4.3088-10.054-8.6811-9.7096-0.86135-1.2055-2.1839-3.2168-3.7924-4.7121-2.4648 0.86138-4.5263 1.644-6.6921 2.2337 1.0788 12.188-0.68838 35.286-10.715 45.408-14.24 14.381-40.782 20.371-54.257 18.776-11.599-1.3768-32.926-12.084-32.926-28.898 0-3.6382-1.8667-14.449-1.9664-17.398-0.98326-1.1782-2.3605-2.4558-3.2441-3.3393-0.09943 3.0447-0.98326 7.5665-3.6382 10.122-2.6551 2.5553-5.9943 5.6997-5.4053 15.926-0.88347-0.98293-2.4557-1.7715-3.3392-2.0661 0.29462 2.3606 0.3942 3.9328 0.3942 5.3101-2.5554-3.4434-8.6267-6.8143-10.652-6.751"/>
   <path class="uuid-2a7df621-aac9-4922-bf54-cbcefcfc2ebd" d="m65.191 22.782c-2.3606-1.8894-5.7858-3.3076-9.3291-3.072 7.5576 6.1393 11.422 17.322 6.9368 25.939-4.4856 8.6177-17.14 14.014-24.883 19.283-8.8533 6.0215-14.993 14.761-14.05 29.872 0.94698 15.11 16.529 25.386 27.747 25.504 11.218 0.11997 22.55-3.4208 27.747-14.286 12.043-2.5962 20.679-21.358 18.418-39.908-2.3606-19.365-16.529-42.386-32.586-43.333"/>
  </g>
  <path class="uuid-2452976f-5451-4000-b512-283583fde197" d="m23.965 86.055c-4.0732-9.5012-12.428-26.832-20.729-36.156-9.0073-10.117-31.344-29.985-43.931-38.992 1.2324 14.068 10.611 50.102 19.374 59.354 8.7626 9.2564 30.479 22.332 40.229 26.406-2.2201-3.4571-4.1955-8.518-5.6771-12.093 3.0855 1.6046 8.1465 3.5794 10.489 4.3179l0.24472-2.8409zm77.74 6.1709c3.5794-10.983 9.3789-28.753 13.08-33.687 10.344-13.796 53.179-37.04 78.112-43.931-8.6403 17.027-27.022 49.975-37.511 60.713-10.489 10.734-33.936 20.978-48.498 25.418 3.7018-5.3056 7.5258-12.215 9.1297-15.795-4.1957 1.7263-9.6236 4.1957-14.313 7.2812" fill="#3e4e57"/>
  <path class="uuid-76ecf440-ae22-4c0a-8bbe-2f7234c9bc0f" d="m85.249 129.27c0.033-3.0493-1.5172-5.2966-3.5386-5.2512-2.2836 0.0514-3.5023 3.1307-3.3437 5.3553 0.18161 2.4421 1.459 4.907 3.5204 4.8027 2.0525-0.10273 3.3346-2.5282 3.3574-4.9115m-56.427-5.7858c-1.7534 0.19519-2.2699 2.9949-2.1204 4.5489 0.22198 2.3199 1.2776 4.839 3.3347 4.626 1.7761-0.18162 2.4059-2.5826 2.0661-5.1062-0.3625-2.6733-1.9301-4.2182-3.2803-4.0687" fill="#fff"/>
  <path class="uuid-83881942-d568-4e90-9a2c-c425dea3a4d0" d="m-7.452 143.49c3.9192 2.9586 8.441 9.3016 9.474 14.317 1.0329 5.0111 4.1276 13.121 6.1937 15.627 0.58906-3.3891 0.29462-6.7826-0.14896-8.5497 3.5386 3.9826 7.6662 18.282 5.7496 23.737 5.872-2.8997 3.2078-7.5665 6.393-12.709 1.681 5.7225 4.6985 15.405 0.09576 19.197 4.6079 0 9.2157-2.7865 9.8772-8.4047 1.7897 4.6395 2.0661 10.761 0.14896 14.449 5.4189-1.6954 8.2597-11.608 12.908-14.707-4.1638 14.209 2.9405 9.5556 1.0965 25.028 2.5055-3.0946 6.2525-7.3899 3.9825-14.299 2.6325 1.0651 7.3536 10.022 6.0443 14.594 3.3891-3.6836 6.0441-8.8442 5.1606-18.133 2.0661 2.8002 3.8332 5.8992 3.6834 8.2552 2.0661-2.2109 3.0946-5.455 2.8002-7.222 0.88361 1.1782 2.7048 7.4577 6.0441 1.1782 1.9166 1.6217 5.4552 1.0326 8.1103 0.29462 1.1782 3.244 7.6344 1.0566 8.2233-2.0388 1.0326 1.7669 1.8124 7.2583-2.3334 12.179 4.1277-0.44351 11.549-7.3219 11.404-13.216 4.9205 3.6246 2.8046 10.027 5.8538 15.02 1.4727-2.9495 2.6642-4.5536 4.7166-5.8992 3.8331-2.5055 5.3056-7.8156 2.9497-12.383 3.0945 1.1782 6.4881 8.2552 4.7166 12.088 3.244-1.1782 6.991-6.4655 6.0441-9.5827-1.4727-4.8661-1.7671-10.027 0-12.976 1.1782 4.7168 4.1277 10.027 7.9606 10.616 1.9166-3.9826 1.1508-7.0681-1.9436-11.341 3.4434 1.2586 12.007-1.4676 17.394-7.1044-4.1638 1.4676-7.4894 1.4915-9.7005 0.90247 7.2222-3.2442 13.565-8.2552 15.038-13.565-2.2109 2.8002-7.3897 3.1535-9.7503 3.5975 5.3872-4.8978 8.7174-13.769 8.5679-19.963l0.1541-2.4603c3.3393-3.244 8.16-5.6999 11.404-5.6047-2.5553 2.1613-5.1108 4.7212-6.683 7.8656 3.7335-1.7671 8.0605-3.1444 12.188-2.4558-5.8357 3.8648-10.203 10.548-10.462 17.167-0.11998 3.3393-0.3716 12.691-7.8927 19.102 1.844 0.36654 7.0772-0.0686 13.71-4.7166-3.0222 9.5102-7.6663 13.271-14.521 16.293 1.2826 0.25867 7.1587 1.6765 9.2157 1.5498-1.4778 1.1559-8.3504 5.369-10.217 6.2026 2.6325 0.25867 9.0617 1.2227 11.44 2.2519-3.5975 0.89733-8.1602 2.8908-10.67 6.4928-2.5055 3.5975-7.5166 10.412-10.348 12.854 3.0855 0.19006 6.2345 0.77061 8.8669 1.7354-8.2687 1.2552-11.921 3.9598-18.187 13.429-3.4843 5.2694-8.79 7.4397-15.45 6.0261 1.286 1.608 5.0382 3.5521 7.222 4.8978-3.5069 0.6987-11.046 2.4014-16.578-1.1559 2.569-3.2124 5.0746-7.0681 7.1316-10.607-1.7354-1.7988-4.0506-4.2409-5.2694-6.1665-0.32178 1.9935-0.77402 3.9191-1.5446 5.4642-2.4421-3.5975-4.9476-7.3899-7.1315-9.8953-1.2193 1.608-2.3741 2.954-3.7924 3.7922-0.77061-1.0925-1.608-2.5055-1.9257-5.138-2.3786 1.0925-7.1994 3.4708-9.5736 5.138 0.83397-2.3786 1.7988-4.7529 3.149-6.1665-2.569 0.64388-4.9478 1.608-6.8099 2.3154-4.1142 4.5625-13.815 12.532-16.9 14.843-3.0855 2.3152-8.8713 6.103-11.631 7.0681 0.25867-1.1559 0.51201-2.8272 1.0292-4.114-2.1838 0.64387-5.3962 2.2472-7.0047 3.9826 0.12658-1.1559 0.70673-3.5975 1.2867-4.9478-3.6609 1.3494-6.2344 1.9302-8.4817 1.7354-2.2518-0.19006-6.2979 1.1559-10.09 4.114a14.82 14.82 0 0 1 4.8208-8.3548c-1.4136-0.11998-4.5626 0.0686-7.0047 1.3494 0.8336-1.4778 2.1204-3.3391 3.534-4.5625-4.8843-0.19005-10.86-1.7987-14.073-4.3044a31.399 31.399 0 0 0 5.3328-1.0925c-3.2124-2.5055-10.729-6.2979-17.607-6.5516 1.9936-1.0292 6.1076-2.5961 9.0662-3.4978-0.58-0.44865-6.18-4.7166-8.1102-5.5547 3.0946-0.73806 7.2041-0.46237 9.3879-0.33058-6.103-3.4706-11.019-8.2687-12.723-16.32-1.1554-5.4642-1.4136-8.228-7.5846-13.434 1.3502-0.19006 4.626 0.32177 6.7464 2.3787-0.2583-2.569-2.7638-7.263-5.1425-10.09 1.7353 0.51201 5.1425 1.5412 7.9697 3.9193-1.6718-5.8494-2.4421-15.94-2.3107-20.244 0.12658-4.3044-1.8667-9.6372-4.6939-13.176m178.44 11.06c18.196 5.2014 12.922 18.694 25.504 20.493-4.7937-7.2267 0.8117-6.6559-7.4894-16.293 2.2109 0.29462 7.195-0.36654 9.5554 2.7274 2.433 3.1898 2.9497 8.5497 8.8442 9.1388-4.3768-3.96-0.42638-12.623 3.6473-19.954 0.44352 5.0111-0.21243 14.961 7.127 18.264 7.9832-1.7897 0.45379-13.226 9.696-18.644-2.2292 13.226 8.1011 14.675 2.7094 24.856 7.8384-2.2065 13.062-16.501 9.8772-22.627 4.5671 1.4265 10.067 6.7419 7.8067 12.111 7.4894-4.463 1.0326-15.147 10.362-22.142-1.7671 3.3891-0.85106 10.33 3.2306 13.597 8.006-3.7561 5.3825-16.03 9.9089-21.29 0.95211 5.3692 6.8462 10.978 18.409 1.7671-7.29 0.65243-14.675-7.1224-8.7852-8.9982 4.1321-1.3134 6.8006-5.1471 8.1283-7.358-3.3891 1.3272-11.055 0.53942-13.588-0.98807 8.2959-3.3937 7.3491-10.271 13.738-13.611 7.494-3.9146 9.4469-11.866 24.303-13.728-13.284 6.3115-9.6914 12.668-14.326 27.584 1.7671-1.2775 4.4221-3.7333 5.505-5.899 4.055 13.946-3.951 12.423 0.39384 27.62 1.3768 4.8163 1.6714 13.76-5.0111 22.998 2.3606 0.10273 5.4053 0.39387 7.0772 1.0822-1.2775 1.8667-4.9114 4.5217-8.2552 6.3884 2.1611 0.88362 6.1936 2.7548 8.0603 4.4221-3.9328 0.39383-10.616 2.066-14.644 5.7995 4.327-0.1952 9.3379 0.19849 11.4 4.9159 2.2609 1.0788 5.6999 3.8331 6.3884 6.9775-6.2932-1.9664-14.548-2.0661-23.198 1.4727-4.0325 5.6046-14.843 20.344-26.048 24.965 2.5553 0.20033 7.1768 2.1613 10.027 4.5219-4.7166-1.3768-13.044-1.4128-18.087 0.98294-3.9328 1.8668-12.877 3.9284-18.477 2.5555 2.1612 2.1611 5.1108 5.505 6.4883 7.9607-3.8332-2.1611-8.4547-4.2272-13.171-3.8332-4.7166 0.39387-11.699-0.10273-15.038-1.7669a34.181 34.181 0 0 0 7.7659 5.1108c-4.2273-0.20032-13.171-1.1782-19.165-4.7166-7.5666-7.8656-13.466-18.282-13.071-31.648 0.39387-13.366-5.3056-32.631-17.593-44.819m-146.36-72.53c-1.3773 11.599 8.3277 23.705 21.499 26.016 15.921 2.791 36.491-6.1619 28.825-30.144 5.2649 8.0149 5.8042 9.8455 6.0533 16.8 7.3715-3.8331 19.211-20.928 9.4785-50.415 11.499 17.988 10.172 55.14-11.205 61.923-5.4552 12.383-24.326 17.543-37.302 12.238-12.976-5.3055-21.277-22.854-17.349-36.414" fill="#ddd698"/>
  <g fill="#ce712f">
   <path class="uuid-4f4b3632-64a5-4b56-bf84-73e6eaf39c50" d="m-51.496-7.3164c2.5055 6.1937 4.4221 11.499 6.9277 15.187 1.178 0.83397 2.7502 1.9664 3.6383 2.7048 1.2777 16.216 12.387 53.369 20.738 60.94 8.3549 7.5664 28.286 21.426 39.101 25.16-0.58906-1.2741-5.5457-11.816-5.5457-11.816s6.9639 8.382 7.2041 10.276c0.2539 2.0388-0.8744 4.7801-1.1645 6.6739-0.2627 1.7217-0.47125 3.6156-0.86549 5.8766-17.593-7.6663-40.932-25.54-48.063-35.481-7.2222-10.077-19.904-61.678-21.966-79.516m265.82 3.3845a85.746 85.746 0 0 0-15.776 16.81c-2.211 0.58906-3.6835 1.0326-5.6047 1.6217-8.5497 16.66-29.165 53.088-37.597 60.89-7.6299 7.6572-25.151 18.051-47.963 25.015 0 0 5.5865-10.081 8.5588-14.685-7.127 5.6454-13.534 13.507-14.254 17.077-0.80657 3.978 2.9451 7.358 4.7166 6.9457 10.222-2.3604 49.98-15.776 58.384-29.636 8.4047-13.86 39.658-69.884 49.536-84.038m-70.962 230.83c4.8163-4.5219 7.1768-8.9439 9.338-12.288 2.1612-3.3393 7.0772-5.7995 10.811-6.5833-3.3393-1.572-6.5878-2.1613-11.993-2.1613 2.9495-1.2775 5.2105-3.1444 7.3717-4.5217-2.1612 0.49319-6.8778-0.10274-8.8442-0.1952-4.3224 3.0494-9.6462 14.018-13.425 15.853 3.004-0.22602 6.5696 0.64729 8.8669 1.7352-1.7354 0.10273-5.0791 0.78774-6.6513 1.3819 1.2775 2.5555 2.5553 4.3224 4.5217 6.7826m18.065-55.172c2.3606-5.8992-0.033-8.7717-0.76547-12.605-0.73806-3.8331-0.73806-7.0772 0.73806-11.205l-2.1114-0.93329c-1.8666 2.85-3.5386 5.8992-3.4388 9.6327 0.10274 3.7333-0.46747 12.976-7.7615 19.315 1.4727 0.51715 5.7497 0.44351 13.343-4.2048m-4.6032 26.07c1.8666-2.7502 6.9774-6.3884 10.321-8.6492-3.0447-0.5891-7.7659-0.20033-10.91 1.2775 1.0823-3.1444 3.3393-5.3057 6.1936-7.2721-1.9662-0.39387-5.5276-0.76033-7.494-0.36653-3.0447 2.3606-4.422 3.244-7.521 4.7166 0.88361 0.29463 6.7056 1.8486 8.332 1.7671-1.399 2.2835-8.3593 5.5774-10.126 6.2662 2.6687 0.13685 8.0603 0.68842 11.205 2.2608m-62.412 59.268c4.3224 0.49319 10.416-1.3768 13.955-5.0111 2.3604 1.8668 5.1288 2.6732 7.9153 1.9664 5.5457-1.4042 1.4367 10.489-8.1057 17.349-6.4699 4.6486-19.958 2.2156-19.958-4.6714-2.4601 5.0111 1.233 10.557 7.766 11.989 7.1768 1.572 15.314 0.38014 20.343-6.683 5.6046-7.8656 15.137-25.264 16.61-31.942 1.4727-6.683 1.4727-11.205-1.572-11.893-1.8667 1.0823-3.7335 3.7333-5.1108 5.3055-1.3768 1.572-7.1768 6.896-14.1 4.8118 1.3323 1.6491 4.6395 3.6338 6.6331 4.626-5.7271 1.4264-11.576 1.8214-16.293-0.98293-0.51719 0.68838-1.9892 1.8666-3.661 2.2608-0.39387 2.6551-1.8668 8.6494-4.4221 12.877"/>
   <path class="uuid-4f4b3632-64a5-4b56-bf84-73e6eaf39c50" d="m70.034 227.2c1.8667-0.58907 4.8162-0.58907 7.3717-0.10274-1.7671 3.1444-2.7548 6.1937-3.1444 8.3549 3.6383-2.4556 11.304-6.3884 15.138-6.8777-1.4727 2.2608-2.4556 3.833-2.9495 5.7994 1.9664-1.4727 6.2932-3.3393 8.8441-4.5217 2.1748 10.43-6.8143 12.424-29.949 28.014-10.743 7.2402-26.061-1.5172-25.781-6.8825-1.9664 6.0941 1.5722 11.305 6.7827 13.96 5.2105 2.655 15.233 4.2227 23.098-1.8667 7.8654-6.0941 20.837-14.549 24.865-16.316 4.0325-1.7669 7.861-3.833 9.8274-6.8777 1.9664-3.0447 3.9011-5.9718 5.4868-8.5406-1.459-1.3631-4.259-4.531-5.2149-6.008-0.44355 2.0661-0.90247 4.0369-1.5943 5.301a117.41 117.41 0 0 0-7.1315-9.8953c-1.0788 1.4264-2.6733 3.2803-3.7924 3.7877a12.052 12.052 0 0 1-1.9301-5.1378c-2.1385 0.86134-6.5607 2.9947-9.5102 4.9883 0.5891-1.989 2.1385-4.5715 3.3891-6.0441a41.394 41.394 0 0 0-7.2993 2.5055c-1.7669 1.7671-3.9554 4.327-6.5107 6.3658m118.2-21.775c-0.5891 10.321 0.67983 18.826 7.3717 26.981 4.7166 5.7495 3.7924 11.037 2.9495 16.809-1.0326 7.0772-7.4712 26.456-12.052 32.781-5.3057 7.3264-23.044 9.0617-24.806 0.83397-2.3606 5.455 1.9166 10.761 8.4046 11.943 11.672 2.1204 19.224-1.286 23.293-11.055 2.2111-5.3055 10.027-27.276 11.499-34.792 1.4727-7.5212 2.211-12.677-5.4552-20.343-3.9826-3.9827-10.321-15.187-11.205-23.148m-155.74 34.045c0.58906 3.3393 1.1826 8.3548 0.98326 12.582 1.3773-0.88361 4.0279-2.1613 6.5833-2.1613 1.5722-2.8498 4.9749-5.89 8.1374-7.3217a31.263 31.263 0 0 1 1.0292-4.1095c-1.894 0.52056-5.4324 2.3334-7.0047 3.9826 0.19483-1.5943 0.98312-4.1503 1.5722-5.2331-3.5386 1.6714-7.3717 2.2608-11.304 2.2608"/>
   <path class="uuid-4f4b3632-64a5-4b56-bf84-73e6eaf39c50" d="m54.308 267.2c-0.29462 8.1555-3.7652 19.714-6.3884 24.181-4.404 7.5031-22.989 5.0882-23.687-1.1782-1.4725 4.5219 1.477 10.715 9.8274 11.599 8.3549 0.88361 17.004-0.78774 20.443-9.3381a85.615 85.615 0 0 0 6.0939-25.749c-1.6714 0.58906-3.6382 0.88361-6.2932 0.48974m-30.905-179.43c-3.3891 15.776 6.4791 33.895 22.115 37.153 10.616 2.2111 27.276-0.1541 35.825-12.976 10.91-5.0111 17.602-17.222 16.257-33.211-1.2415 10.625-6.9638 24.399-18.318 27.461-3.5386 8.8442-18.132 17.104-33.025 13.121-14.893-3.9826-23.293-15.038-22.854-31.553"/>
  </g>
  <path class="uuid-83881942-d568-4e90-9a2c-c425dea3a4d0" d="m54.757 177.17c-15.305-0.99152-30.298-12.569-33.483-27.847 3.9781 8.2733 19.732 20.751 32.944 21.327 21.83 0.94698 41.543-6.1619 55.385-20.801-7.2721 18.871-33.614 28.703-54.846 27.325" fill="#ddd698"/>
  <path class="uuid-1049a9e6-915c-4946-870b-b3c357bb1fd6" d="m-40.088 16.271c16.56 14.2 47.959 51.013 60.718 71.601l3.0629 1.1559 0.36698-3.022c-6.4157-17.693-16.882-31.109-22.854-38.331-5.9717-7.222-33.347-31.009-42.141-37.103zm230.66 3.5341c-32.699 14.331-66.839 35.354-85.343 70.328l-3.3891 2.0661c4.5717-12.383 9.4469-29.034 13.416-34.058 11.649-14.743 55.729-37.891 77.695-43.641z" fill="#28333a"/>
  <g fill="#0f141b">
   <path class="uuid-13d634bc-0ad1-4e11-a485-26ebabbe32a4" d="m49.551 152.94c0-0.99152 7.0863-0.9607 7.1451-0.0514 0.0686 1.2364-2.5373 2.6324-3.679 2.6324-0.91957 0-3.4661-1.6354-3.4661-2.5779m15.917-114.76c-0.11998-7.7976-2.6233-13.738-7.1452-17.38 4.1729 0.58393 8.9395 4.1592 11.626 8.3367 0.92816 1.4453 1.8169 1.0189 1.2056-0.58055-2.5644-6.6921-11.101-10.339-15.613-9.6416-1.4401 0.22271-1.0189 1.0651-0.19519 1.7217 5.138 4.0778 8.382 9.6825 8.382 17.494 0 9.252-8.1555 15.011-21.798 23.048-13.855 8.1646-19.41 16.619-19.41 30.198 0 17.929 15.264 30.28 30.298 30.058 17.326-0.25866 32.065-10.031 28.508-29.401-0.38873-2.125-1.5446-1.903-1.3186 0.22602 1.8849 17.693-10.548 26.7-27.267 26.945-14.97 0.22271-27.792-12.836-27.792-27.828 0-12.682 5.0156-20.611 18.16-28.331 14.055-8.2552 22.518-15.224 22.36-24.865"/>
   <path class="uuid-13d634bc-0ad1-4e11-a485-26ebabbe32a4" d="m79.033 107.5c17.494-4.83 22.672-28.78 18.495-47.891-4.2453-19.442-18.341-36.963-34.421-38.317l2.5827 2.2428c12.7 1.7308 25.69 18.49 29.586 36.333 4.4447 20.343-2.5283 40.737-15.632 45.295z"/>
   <path class="uuid-13d634bc-0ad1-4e11-a485-26ebabbe32a4" d="m117.28 106.28c1.0052 18.785-2.1974 33.179-9.2881 42.681-4.9161 6.5878-13.384 11.594-22.555 15.006-10.647 3.9599-22.246 5.7723-30.334 5.4142-10.561-0.46751-26.845-9.1568-31.77-19.609-2.2382-4.7438-1.4001-9.7414-2.7729-17.539-1.7444-9.9135-2.1159-18.364-0.73395-30.058 0.28105-2.3742-0.92419-2.5464-1.323-0.19519-2.0253 11.993-1.7852 20.923-0.03669 30.656 1.4499 8.0696 0.56628 12.297 3.022 18.06 5.0564 11.853 23.284 20.928 33.429 21.377 14.662 0.64733 43.41-5.8947 54.991-21.413 7.3174-9.8094 10.797-25.137 9.5104-44.855l-2.1387 0.4812zm-92.995-21.082c-5.3826-14.594-13.615-28.88-21.811-37.855-9.4559-10.353-29.94-27.973-46.151-39.6-1.6674-1.197-2.4331-0.19849-0.81101 1.0651 15.844 12.333 35.979 29.614 45.381 39.908 8.5769 9.3924 17.521 24.544 23.048 39.504z"/>
   <path class="uuid-13d634bc-0ad1-4e11-a485-26ebabbe32a4" d="m-41.914 9.8375c2.6551 24.272 12.102 51.035 19.609 60.686 5.6771 7.2945 25.504 20.049 40.8 27.017 1.2777 0.58397 2.0389 0.4401 1.0693-1.2501-2.1612-3.7605-3.5069-6.452-4.7529-9.8772a63.296 63.296 0 0 0 8.894 3.3663l0.11814-1.5635c-3.67-1.173-7.8339-3.1625-10.19-4.4176-1.323-0.70211-1.7579-0.3716-1.2914 1.0703 1.1915 3.6834 2.7095 6.8823 4.8435 10.357-14.2-7.1361-32.998-19.646-37.905-25.948-7.2403-9.3063-16.248-35.83-19.383-57.931l-1.8123-1.5035zm240.23 2.5553c-18.4 3.7787-67.129 25.767-82.706 43.682-7.639 8.7898-12.165 31.353-16.461 40.202-0.8922 1.8395 0.19519 2.3695 1.2004 0.58909 4.7664-8.4545 9.9091-31.299 16.936-39.278 15.523-17.634 63.119-39.255 81.324-43.89 1.8623-0.47092 1.5858-1.6902-0.29976-1.3049"/>
   <path class="uuid-13d634bc-0ad1-4e11-a485-26ebabbe32a4" d="m100.69 94.41c3.8694-2.8 8.4093-5.2966 13.651-7.766-3.3346 6.1621-6.0033 10.453-8.16 13.515-0.82029 1.1594-0.53087 1.9166 1.1062 1.3546 22.609-7.7932 37.461-15.133 46.187-22.768 9.6914-8.4771 24.879-33.578 41.022-64.795l-2.1704 0.64729c-10.652 19.433-29.745 53.197-40.324 62.453-8.3367 7.2947-22.052 14.539-43.034 22.015 2.8226-3.8422 5.1062-7.8248 8.2053-13.869 0.87851-1.7172 0.19006-2.0027-1.2912-1.3271-5.4687 2.4873-9.696 4.5715-14.041 7.4078l-1.1422 3.1309zm-82.194 12.51c-16.8-8.7942-38.97-23.216-47.071-35.844-7.0092-10.928-16.814-49.463-21.78-75.996 1.8667 2.5916 3.2803 3.9056 5.1969 5.3464 0.85177 0.63874 1.3955 0.17281 1.2143-0.66101a31.535 31.535 0 0 1-0.5437-5.5366c4.8299 8.7807 17.548 20.615 26.36 27.171 9.1477 6.8008 15.817 12.863 22.532 21.549 1.5179 1.9664 2.4738 1.2689 1.083-0.78429-5.8312-8.5905-12.936-15.872-22.197-22.754-9.329-6.9368-22.369-18.826-27.792-27.865-0.64782-1.0874-1.3592-0.84766-1.4362 0.40756-0.10787 1.7308-0.07191 3.611 0.27639 6.1256-2.0117-1.776-4.1412-4.6668-5.7678-7.562-0.77471-1.3768-1.8305-0.97952-1.5857 0.5891 4.1638 26.65 14.594 69.879 21.993 81.415 7.4804 11.658 31.562 27.797 49.327 36.129l0.18565-1.7171zm118.67-79.149c0.10273-3.0447 0-5.2558-0.19519-7.6663-0.1541-1.9392-1.1371-1.9527-1.9664-0.29462-2.5827 5.1606-6.9912 10.978-15.206 19.442-5.9716 6.153-13.003 14.761-22.047 33.537l-0.49316 6.8777c7.0411-18.2 17.199-31.168 24.045-38.222 7.0544-7.2721 11.114-12.568 13.969-17.779 0.11998 1.9936 0.17134 3.8604-0.033 6.2662l1.9166-2.1611z"/>
   <path class="uuid-13d634bc-0ad1-4e11-a485-26ebabbe32a4" d="m204.89 1.342a30.783 30.783 0 0 0 0.20876-6.8914c-0.10273-1.2723-0.61647-1.6182-1.4813-0.4572-5.1199 6.846-11.114 11.173-17.19 12.89-22.799 6.4518-37.044 13.728-44.941 21.562 0.39384-1.8486 0.55311-2.8997 0.72434-4.694 0.11998-1.2912-0.53942-1.4949-1.5172-0.76033-2.7865 2.0887-5.9355 5.6273-7.6662 8.8126-0.9607 1.7669 0.0183 2.3378 1.1559 0.6747a32.636 32.636 0 0 1 6.0759-6.6876c-0.22271 1.7943-0.36286 3.0719-0.77402 5.0067-0.35773 1.6628 0.23115 2.2472 1.5172 0.66611 6.1619-7.5257 24.453-16.542 46.763-22.808 6.4836-1.8169 12.85-7.1315 15.731-11.903 0.10273 1.2501 0.033 4.0506-0.31664 5.6182l1.7126-1.024z"/>
   <path class="uuid-13d634bc-0ad1-4e11-a485-26ebabbe32a4" d="m203.05 3.3674c2.9089-1.9166 6.0805-3.5567 9.3381-5.6726-9.397 12.668-45.363 78.388-49.001 82.937-8.3912 10.489-29.269 20.366-56.835 28.182-2.1522 0.61137-1.9075 1.7399 0.34416 1.2912 27.425-5.4733 50.274-17.349 58.851-28.041 4.8842-6.0894 36.269-65.792 47.556-82.262 5.1062-7.4442 4.6668-7.4079-3.1581-2.8906-2.5101 1.4453-5.1741 3.2985-7.7885 5.3147-1.8938 1.4641-1.31 2.4647 0.69869 1.1422m-195.76 146.18c-0.26747-5.2332-0.88809-12.274 3.4752-16.266 3.2123-2.936 4.8163-6.7826 4.7891-10.742 0.99222 1.0959 2.8363 3.6518 3.6156 5.6317l-0.29462-3.4706a23.696 23.696 0 0 0-3.0402-4.4402c-0.85639-1.0241-1.6129-1.1371-1.6628 0.53942-0.11814 4.0776-0.95145 7.5664-4.694 10.983-2.6687 2.4375-4.3949 4.9204-4.1457 15.038l1.9528 2.7276z"/>
   <path class="uuid-13d634bc-0ad1-4e11-a485-26ebabbe32a4" d="m-0.85959 177.21c-3.09-6.2843-2.9314-17.041-2.868-21.911 0.04953-3.9056-2.1114-7.9108-4.472-11.01-1.3321-1.7489-0.76562-2.415 1.3275-1.767 3.5658 1.0959 7.127 3.4434 9.32 6.2706a18.962 18.962 0 0 0-0.62076-3.6655c-0.3942-1.0326 0.2084-1.4641 1.2776-1.0326 2.714 1.0874 4.5218 3.4888 5.6681 7.4125 0.48035 1.6439-0.64799 2.0344-1.2641 0.43496-1.2097-3.1309-2.3923-4.6986-3.892-5.5548 0.22675 1.4402 0.32618 2.5735 0.27628 4.2408-0.01834 0.71583-0.6252 1.0823-1.2008 0.42128-2.3877-2.7274-5.147-4.9657-8.373-6.1302 2.3017 3.1581 3.7697 6.6422 3.8739 10.308 0.1541 5.206-0.45313 18.101 3.4253 23.823l-2.4738-1.8395z"/>
   <path class="uuid-13d634bc-0ad1-4e11-a485-26ebabbe32a4" d="m13.046 218.01c-1.8667-0.66615-7.7115-5.5819-10.294-7.0228 2.4829-0.33902 4.6351-0.17281 7.6843 0 1.6537 0.0855 1.7761-0.36287 0.38514-1.0925-8.9439-4.6668-11.549-12.011-12.269-16.039-0.77934-4.3496-1.9166-8.5588-6.5108-12.337 1.4092 0.19849 2.9813 1.0822 4.4901 2.3515 0.70673 0.5942 1.3728 0.49832 1.11-0.63361-0.73395-3.2485-2.1295-5.8673-3.9736-8.5179 4.1321 1.5172 8.1238 4.9431 10.512 8.9484 0.8744 1.4641 1.9437 0.96922 1.2097-0.57027-2.27-4.7664-8.2688-9.9496-13.221-10.915-1.2958-0.25023-2.0751 0.27224-1.015 1.6765 1.9618 2.587 3.303 4.6351 4.4312 7.494a9.5374 9.5374 0 0 0-5.4415-1.4915c-1.4271 0.0514-1.835 0.79801-0.6026 1.7263 5.3011 4.0053 6.0351 7.8112 6.8778 12.523 0.69319 3.8648 3.5794 10.521 11.246 15.464-1.3005-0.22601-4.9885 0.10273-6.6604 0.49315-2.5282 0.58056-1.0329 1.1148 0.22675 1.7308 4.3043 2.1022 8.1963 6.2978 11.517 7.213 2.202 0.60792 2.3696-0.25866 0.29462-1.0018"/>
   <path class="uuid-13d634bc-0ad1-4e11-a485-26ebabbe32a4" d="m18.895 226.03c-2.2971-1.7443-10.027-5.7223-15.994-6.6965 2.2835-1.0874 4.1276-1.6714 6.6331-2.2111l-1.4318-1.137c-2.7457 0.74833-5.5956 1.6302-8.45 3.0584-1.6718 0.83742-1.1554 1.6816 0.46666 1.7806 5.6273 0.33058 11.848 2.8136 16.565 5.6862l2.2065-0.48119z"/>
   <path class="uuid-13d634bc-0ad1-4e11-a485-26ebabbe32a4" d="m27.331 230.99c-4.8525 0.18676-9.3471-1.4179-12.487-3.0039 3.3845-0.61651 5.8765-1.459 8.885-2.6596 1.7625-0.70211 1.4136-1.8984-0.45312-1.2552-3.3755 1.1593-7.7704 2.1068-11.128 2.6822-1.3366 0.23115-1.4861 0.96922-0.19482 1.7762 3.2894 2.0661 8.6811 3.9463 13.869 3.892z"/>
   <path class="uuid-13d634bc-0ad1-4e11-a485-26ebabbe32a4" d="m44.585 235.96c-2.5599 1.9029-6.393 2.2472-9.5873 2.3469-1.5813 0.0514-4.2816 0.0855-8.6494 3.0945 0.49385-2.0162 1.6402-3.7288 3.9237-6.0079 0.6569-0.65242 0.53924-1.1011-0.50295-1.1422-1.7987-0.0686-3.1444 0.17134-4.8435 0.56683 2.0162-3.0629 5.505-5.4053 10.874-7.222 2.125-0.72097 1.8395-1.8577-0.40326-1.2741-6.9821 1.8123-11.327 5.2557-13.126 9.2338-0.72951 1.6045 0.01834 1.785 1.178 1.3271 1.8667-0.73806 3.0946-1.0788 4.6939-1.1422-2.3832 2.1748-3.5477 4.2861-4.2998 7.3853-0.48035 1.989 0.24913 1.989 1.5722 0.93326 4.9114-3.9282 8.0513-3.7833 9.6824-3.8331 3.1444-0.10274 6.683-0.98297 8.4545-2.3016l1.0331-1.9619z"/>
   <path class="uuid-13d634bc-0ad1-4e11-a485-26ebabbe32a4" d="m49.147 241.99c0.05137-1.3768 0.29462-2.406 0.70724-3.4345 0.36654-0.91447 0.10273-1.3408-0.95211-0.99152-2.0433 0.67984-3.5113 1.5532-5.2104 2.8 0.8427-3.6926 3.0945-6.4383 6.8144-9.3153 1.2552-0.97438 0.7381-2.0072-0.73461-1.1182-4.9974 3.0129-7.947 7.4351-8.3412 12.351-0.10787 1.3546 0.6117 1.5806 1.622 0.63875a18.712 18.712 0 0 1 5.0293-3.4389c-0.28949 0.96066-0.75175 2.3606-0.85279 3.4389l1.9166-0.93326zm23.66-45.073c1.2552 0.64732 3.815 0.84769 6.2525 0.22601 1.8984-0.47947 1.685-1.6679-0.23959-1.3134-2.2156 0.40414-4.182 0.34415-5.5413-0.17134-1.8938-0.71066-2.2654 0.32544-0.47092 1.2501m6.2662 3.9372c-4.2183 0-7.9064 1.0823-10.534 3.9058-1.3323 1.4265-0.62164 2.288 0.86989 1.0155 2.3832-2.0344 5.5865-3.2078 9.7866-3.5884 2.1203-0.19005 2.0116-1.3323-0.11998-1.3323m-3.7426 12.519c-2.4784 0.13685-4.9068 0.50688-7.0227 0.95552 1.5412-2.8682 4.1456-5.1652 7.6207-7.041 1.5138-0.82025 1.0926-1.9166-0.58906-1.2004-4.5988 1.9618-8.0605 5.3962-9.5193 9.048-0.53087 1.3134-0.10273 1.6816 1.2364 1.31a36.713 36.713 0 0 1 6.5153-1.31l1.758-1.758z"/>
   <path class="uuid-13d634bc-0ad1-4e11-a485-26ebabbe32a4" d="m84.719 217.2c-5.5005 1.4231-10.199 2.936-15.119 6.3658 0.98293-4.4492 4.046-7.8384 6.991-10.081 1.5772-1.2056 1.0514-2.2202-0.75178-1.1062-3.9598 2.4377-7.8337 7.4034-8.3774 12.827-0.10273 1.1148 0.24473 1.6354 1.3991 0.88361 5.1426-3.3346 9.2657-5.5821 14.345-7.127l1.5087-1.7624z"/>
   <path class="uuid-13d634bc-0ad1-4e11-a485-26ebabbe32a4" d="m86.164 215.29c-3.0266 2.0433-5.5458 5.0021-6.6695 8.7535-0.42983 1.4265 0.0855 1.8395 1.3272 1.1062 2.7005-1.5909 6.1348-3.6427 8.5271-4.7799 0.23959 1.7669 0.68842 3.3798 1.7943 4.8162 0.29976 0.38533 0.84766 0.39046 1.3631-0.033 1.4727-1.2141 2.4241-2.3877 3.1309-3.303a110.14 110.14 0 0 1 6.4519 9.388c0.55656 0.88875 1.0155 0.86134 1.5498-0.1541 0.60278-1.1422 0.87506-2.3106 1.096-4.055 2.3923 3.3982 5.3961 6.2389 7.6028 7.5212 1.2912 0.75175 1.9301 0.32177 1.5857-1.1782-0.77061-3.3437-1.2912-7.9245-0.033-11.866 0.5206-1.6405-0.54456-2.0616-1.2466-0.48974-1.7489 3.9146-1.2364 8.1828-0.75178 11.105-2.2973-1.6405-5.1017-4.3178-6.9731-7.222-0.61992-0.96925-1.0686-0.53428-1.2193 0.2484-0.28068 1.4453-0.56169 2.6731-1.0052 3.8921-1.8169-2.8908-4.2227-5.8766-6.5515-8.8533-0.34416-0.4401-0.72438-0.47605-1.0788 0.033a16.932 16.932 0 0 1-2.9677 3.217c-0.91447-1.2638-1.3237-2.5916-1.5584-4.191-0.10273-0.72952-0.44351-0.8117-0.93839-0.5891-1.9936 0.88361-4.6488 2.1296-7.3762 3.6972 1.1285-2.655 2.6007-4.182 4.6894-5.949 1.2963-1.096 0.75174-2.1248-0.74834-1.1045m37.176-110.99a20.62 20.62 0 0 1 6.9231 13.583c0.19005 1.9936 1.346 1.9438 1.3357-0.0514-0.0184-5.736-2.143-10.539-6.0713-14.231z"/>
   <path class="uuid-13d634bc-0ad1-4e11-a485-26ebabbe32a4" d="m128.88 109.84c5.2375 0.53429 9.4604 7.5303 8.033 18.808-0.25353 1.9936 0.85111 2.2065 1.3134 0.23958 2.1748-9.2655-1.5806-21.34-10.507-21.168l1.1593 2.125z"/>
   <path class="uuid-13d634bc-0ad1-4e11-a485-26ebabbe32a4" d="m137.63 119.75c3.2487 2.6279 4.1186 6.76 3.8422 14.118-0.0855 2.107 0.98807 2.1976 1.3323 0.11998 1.3905-8.373-0.99148-14.748-5.4959-17.19z"/>
   <path class="uuid-13d634bc-0ad1-4e11-a485-26ebabbe32a4" d="m148.62 137.17c0 4.8933-0.34415 9.2157-6.4336 14.358-1.4402 1.2141-0.88365 2.2156 0.79798 1.0686 6.7647-4.5943 7.9699-10.403 7.5983-15.428-0.70721-9.6462 2.56-22.251 1.8078-22.573-0.82539-0.3526-7.4669 7.0409-10.113 14.662l-0.0686 3.2985c1.8034-4.7168 5.949-11.554 8.6901-14.526-1.9436 6.751-2.288 16.325-2.288 19.143"/>
   <path class="uuid-13d634bc-0ad1-4e11-a485-26ebabbe32a4" d="m149.47 141.49c2.7365-3.2894 5.2422-4.8616 9.0073-5.9036-2.5872 2.0253-4.0098 4.286-5.1198 6.5605-0.43497 0.8922-0.11998 1.423 0.88361 0.92815 3.8105-1.8756 6.4655-2.4149 9.7596-2.4647-5.5867 3.9463-8.799 10.299-9.1886 15.776-0.47092 6.6331-0.78774 16.021-9.9769 20.565-1.749 0.86479-1.4008 1.9664 0.50688 1.2364 10.303-3.9372 11.187-14.331 11.626-21.657 0.33572-5.5367 3.6338-11.821 9.8772-15.727 1.2775-0.80142 1.4094-1.6576-0.34416-1.8169-3.7335-0.34416-6.76 0.10273-10.566 1.7671 1.423-2.1613 3.2939-3.9328 5.4052-5.4552 1.5908-1.1457 1.2552-1.962-0.73806-1.7671a16.13 16.13 0 0 0-11.024 5.9218l-0.11997 2.0388zm-5.2242 55c4.2273-0.1541 7.3219 0.29463 10.525 1.2552-5.3737 1.8123-7.4623 4.2998-9.9361 7.7385-2.3425 3.2533-6.6332 9.1388-10.077 11.649l2.8999 0.29462c2.7367-2.2835 6.2389-7.3718 8.6494-10.91 2.587-3.8059 5.505-6.683 11.4-7.8111 1.9166-0.36653 1.5532-1.1422 0.24472-1.7217-2.9949-1.3272-6.9775-1.8667-11.458-1.8895l-2.2519 1.3956z"/>
   <path class="uuid-13d634bc-0ad1-4e11-a485-26ebabbe32a4" d="m129.06 231.38c7.1224-9.3698 9.6733-11.218 16.021-11.667 2.5735-0.18162 3.0718-0.95211 0.34416-2.0933-7.0816-2.9586-13.71-1.7308-18.948 1.5772-1.3271 0.83738-0.74834 1.5001 0.66615 0.82366 3.4888-1.6628 10.303-3.824 16.886-1.3768-8.0377 0.53429-9.918 3.4932-16.207 11.748-2.3562 3.0901-7.9834 9.3018-15.708 7.0637-1.495-0.43496-1.835 0.0855-0.68838 1.3768 1.0378 1.1782 3.4797 3.1535 6.0985 3.8513-4.3994 1.6045-13.112-0.24986-14.54-1.31l-1.2415 1.3819c4.8025 2.3243 12.469 2.356 16.479 1.2552 2.3197-0.6336 2.6459-1.4538 0.90589-2.0842-1.826-0.66101-4.0551-1.4676-5.1606-2.7139 7.7252 1.0651 11.644-3.303 15.083-7.8339m44.28-165.19c7.9471 0.39387 17.697-7.2267 18.558-16.587 0.19006 1.7987 0.27225 5.4869 0.20364 7.2448-0.0183 0.63874 0.32177 0.91102 0.90074 0.69356 1.1422-0.42983 3.0538-2.4782 4.0643-3.9373 0.48464 6.5924-1.903 15.002-6.2254 18.785-5.7089 4.9976-7.9879 8.8941-7.7886 12.242 0.10273 1.8123 0.67983 1.7851 1.0052 0 0.52574-2.9043 1.6765-5.0565 8.3141-10.865 4.6169-4.0416 7.0362-14.25 5.8131-22.265-0.29976-1.9483-0.70211-2.501-1.7039-0.48461-0.51201 1.0326-1.6045 3.1083-2.732 4.1956-0.22271-3.0221-0.7432-6.1258-0.97439-7.562-0.4401-2.7322-1.6576-2.8771-2.1294 0.17134-1.7217 11.096-8.4046 15.885-16.016 15.813l-1.2861 2.56z"/>
   <path class="uuid-13d634bc-0ad1-4e11-a485-26ebabbe32a4" d="m196.12 65.639c1.6183-2.22 7.6027-7.3762 11.93-8.6674-2.5555 2.7048-3.7018 7.0183-4.2364 9.8546-0.0855 0.42983 0.38018-0.22271 2.3969-1.5634 0.13685-2.6913 1.644-6.5606 4.327-9.116 1.5086-1.4367-0.63533-1.1782-2.7639-0.64388-4.4221 1.1062-9.2112 4.6985-11.277 7.2993l-0.38015 2.8408z"/>
   <path class="uuid-13d634bc-0ad1-4e11-a485-26ebabbe32a4" d="m236.07 60.207c-4.055 2.9495-9.6462 2.8862-13.443 1.0788-8.6312-4.1095-18.998 2.0887-23.162 11.001-0.91957 1.9664-0.10274 2.5055 1.1285 0.71579 4.8844-7.118 12.985-14 20.878-10.24 3.4888 1.6628 9.1206 2.4784 13.384 0.44351-2.3106 3.6382-5.5683 6.3614-11.119 7.5937-2.0253 0.44868-1.9393 1.5224 0.1541 1.3272 6.9412-0.64388 11.363-4.993 13.796-10.077 1.1371-2.3786 0.38529-3.303-1.6217-1.844"/>
   <path class="uuid-13d634bc-0ad1-4e11-a485-26ebabbe32a4" d="m261.21 60.501c-1.0874-1.9303-2.0616-1.7128-2.2111 0.36654-0.22271 3.099-1.0326 6.1936-3.3165 9.3607-0.18162-5.1834-3.1036-10.299-4.6442-12.754-1.5532-2.4784-2.2472-2.1703-2.2111 0.44355 0.0686 5.3827-1.7851 10.195-5.2331 11.649-3.2077 1.3494-7.7387 0.36653-10.589-2.8228l-1.0155 0.88361c2.7593 4.4446 8.6086 5.3553 12.342 3.7787 3.1262-1.3186 5.9852-5.7767 6.4248-10.38 1.8893 2.7185 3.5114 8.8759 3.6564 11.182 0.0514 0.77916 0.44865 1.1371 1.1234 0.52574 2.2111-1.9935 3.9826-5.2377 4.8572-8.8895 0.65246 2.8952 0.66956 7.0455-0.40755 10.262-0.55656 1.6628 0.21243 2.3469 1.197 0.59765 2.3923-4.259 1.6543-11.336 0.033-14.209"/>
   <path class="uuid-13d634bc-0ad1-4e11-a485-26ebabbe32a4" d="m261.66 70.342c7.2132-6.5968 10.163-17.639 7.8113-26.102-1.6405-5.8947-5.7995-10.022-11.558-12.097 1.1319-0.67129 2.9995-0.83397 5.3918-0.1541 1.2638 0.36324 1.4727-0.01834 0.76543-1.0155-1.6217-2.2971-3.3074-6.0578-3.9372-10.335 1.2141 1.1062 2.5871 2.1929 3.7288 3.0582l-0.34415-2.5146c-1.4179-1.1148-3.0629-2.3425-4.1275-3.5386-0.94184-1.0548-1.8169-0.92471-1.5224 0.98297 0.68842 4.472 1.9301 8.4319 4.0278 11.449-2.4104-0.53942-5.4053 0.34416-6.7328 1.572-0.78774 0.72951-0.67987 1.2415 0.68839 1.6714 6.4655 2.0388 9.9633 5.5593 11.59 11.4 2.1205 7.6344-0.25867 16.365-5.8992 23.728z"/>
   <path class="uuid-13d634bc-0ad1-4e11-a485-26ebabbe32a4" d="m265.24 8.9946c0.46237 5.8766 1.7761 13.724 8.6448 18.481 17.176 11.893 22.627 27.203 20.045 46.201l1.826-2.4332c3.978-17.919-4.019-33.786-20.498-45.195-7.0681-4.8933-7.6435-11.531-8.7174-19.868-0.23114-1.8034-1.1696-2.0525-2.0524-0.18675-3.5023 7.3988-4.0189 17.421 2.6414 25.785 1.3511 1.6953 2.1657 0.76202 1.0429-0.83738-4.7573-6.7828-5.0745-15.4-2.9314-21.948"/>
   <path class="uuid-13d634bc-0ad1-4e11-a485-26ebabbe32a4" d="m300.16 88.946c2.9904-7.358 3.4661-22.364 2.6144-27.896-0.36653-2.3832-1.3905-2.5462-2.2202-0.27224-1.8169 4.9839-5.5411 11.477-8.2687 14.394-1.5772 1.6902-0.65756 2.5462 0.97952 0.91103a38.603 38.603 0 0 0 7.8973-11.671c0.54801 3.9463-0.53083 19.184-3.8331 27.992l2.8317-3.4615z"/>
   <path class="uuid-13d634bc-0ad1-4e11-a485-26ebabbe32a4" d="m314.8 89.616c-3.9827-0.29462-6.3205 0.033-9.8772 0.88361a13.411 13.411 0 0 1 2.2111-3.0946c1.2998-1.2998 0.47092-1.8395-1.1782-1.7669-5.07 0.22272-9.2883 4.9385-10.811 9.1703-0.59764 1.6628 0.43497 2.057 1.2467 0.48464 1.6765-3.2441 4.626-6.5606 8.2054-7.5574a13.57 13.57 0 0 0-2.1884 3.9598c-0.33058 0.98807-0.13686 1.3134 0.82029 1.0189 3.4117-1.0463 5.9716-1.5498 8.8985-1.2466-11.925 6.3297-10.398 16.755-12.215 24.022-1.209 4.8435-2.8 8.4049-10.009 13.792-1.5052 1.1234-1.0326 2.1068 0.72093 1.1285 6.7826-3.7833 9.9496-8.3776 11.495-14.553 0.64729-2.5962-0.0686-17.738 13.053-23.733 2.7546-1.2552 2.6778-2.2791-0.36654-2.5056"/>
   <path class="uuid-13d634bc-0ad1-4e11-a485-26ebabbe32a4" d="m306.24 140.08c-3.4208-10.675 2.8591-13.43 7e-3 -26.505-0.42642-1.9664-1.3374-2.0253-2.211-0.36654-0.9778 1.8486-1.8441 3.0948-3.4661 5.0111l-1.1594 2.9497c1.9844-1.3631 3.747-2.8409 5.1425-4.9431 2.0072 12.464-3.3574 12.487-0.10273 25.16 1.8758 7.3173 0 17.888-7.7704 25.903-1.4042 1.4504-0.6576 2.2518 0.91099 0.98294 8.3504-6.7647 11.481-19.338 8.6448-28.196"/>
   <path class="uuid-13d634bc-0ad1-4e11-a485-26ebabbe32a4" d="m299.2 165.79c2.2563-0.36654 4.5534-0.47092 6.8234 0.0514-2.4647 2.0707-6.7056 5.5278-9.6734 5.9944-2.0025 0.31664-2.0253 1.4316 0 1.3374 3.9237-0.18162 9.2294-4.2362 12.324-7.0364 0.67128-0.6062 0.74833-1.3357-0.29463-1.6936-2.5781-0.88361-5.1606-0.98293-7.7387-0.66097z"/>
   <path class="uuid-13d634bc-0ad1-4e11-a485-26ebabbe32a4" d="m298.14 172.36c2.2383 0.63875 4.7801 1.9257 6.7647 3.1081-5.41 1.0463-11.187 3.9374-13.171 6.221-0.4846 0.55655-0.22601 1.1645 0.60279 1.1097 5.3646-0.36654 9.0617 0.65243 10.965 4.1277l2.7276 0.88365c-1.4231-4.4719-5.9716-7.2222-11.427-6.5607 2.7322-1.8712 7.4443-3.6834 12.455-4.2001 1.758-0.18162 2.5329-0.81515 0.44355-2.211-1.9392-1.2963-5.2331-2.9497-7.5937-3.5386l-1.7715 1.0652z"/>
   <path class="uuid-13d634bc-0ad1-4e11-a485-26ebabbe32a4" d="m295.76 186.41c-1.9119 0.69352-1.5857 1.7217 0.39901 1.2775 5.369-1.2056 10.072 0.11997 12.446 4.4718-10.466-2.8045-25.876 1.9121-31.444 8.2281-1.2227 1.3871-0.36324 2.0661 1.0326 0.84766 6.452-5.6136 20.09-9.9632 31.367-6.5696 2.1613 0.64729 2.5057 0.17134 1.6217-2.0661-2.3243-5.9173-8.9211-8.5497-15.423-6.1891"/>
   <path class="uuid-13d634bc-0ad1-4e11-a485-26ebabbe32a4" d="m286.55 195.09c-4.694 5.8675-13.47 15.423-15.604 17.267-3.4389 2.9723-7.5983 6.8416-12.383 7.3717l3.4842 0.72948c3.593-0.82539 7.7794-4.1321 10.67-6.6241 2.501-2.1613 12.383-13.665 16.905-19.854l-3.0675 1.1097z"/>
   <path class="uuid-13d634bc-0ad1-4e11-a485-26ebabbe32a4" d="m245.33 216.34a26.524 26.524 0 0 0 13.185 4.4493c2.936 0.1541 5.8674 0.97439 8.8352 2.3604-4.8572-0.47606-9.9272-0.13686-14.01 1.4864-8.0603 3.1942-20.149 5.6273-28.282-1.1182-1.4539-1.2055-2.2654-0.35773-0.9196 0.96924 7.9471 7.8428 21.363 5.3373 29.89 1.921 4.9024-1.962 10.616-2.0661 16.37-0.96925 2.6551 0.50687 2.8-0.52056 0.90589-2.0298-3.4526-2.7548-7.6663-4.1277-12.605-4.4947-3.3484-0.24839-6.3388-0.66611-12.754-3.7607-1.853-0.8922-2.2337 0.10273-0.61133 1.1918"/>
   <path class="uuid-13d634bc-0ad1-4e11-a485-26ebabbe32a4" d="m232.68 228.28c1.4128 1.1782 3.6925 3.1807 5.6771 5.6047-3.3891-1.7671-6.6332-2.5373-9.6551-2.433-5.7951 0.19849-11.658 0.42983-16.982-2.039l2.1294 2.2111c4.9839 1.8486 9.7503 1.989 14.775 1.8169 3.6292-0.11998 7.7387 1.0326 11.943 3.611 2.3515 1.4453 3.0538 0.49319 1.4727-1.6953-2.2835-3.1672-4.1277-5.0111-6.1891-6.7102z"/>
   <path class="uuid-13d634bc-0ad1-4e11-a485-26ebabbe32a4" d="m202.82 232.63c3.679 1.6953 9.8048 4.055 17.534 4.277 2.8997 0.0855 3.2214-1.0326 0.5257-2.3604-5.0882-2.5056-9.8048-6.3388-12.197-9.8546-1.0378-1.5224-1.9664-0.7843-1.197 0.59764 1.6713 2.9904 4.6623 6.5516 9.1886 9.2566-6.7419-0.58055-13.28-3.2668-16.121-4.694l2.2609 2.7774zm-143.49 34.425c-1.6714 12.881-3.951 21.449-7.3219 26.9-3.7063 5.9898-9.4468 8.2643-18.214 6.7374-4.5082-0.78429-7.05-2.501-8.1917-5.3464-1.3093-3.2487-0.37608-7.5393 2.6687-12.365 1.3004-2.057 1.9301-2.9768 2.7049-5.0156 3.1489-8.314 5.1697-22.269 2.7321-38.621l-2.1793 0.3493c1.2686 8.4727 1.8803 23.674-2.3062 36.732-1.0103 3.1625-1.5541 3.6338-3.0311 5.8992-3.3709 5.1606-4.2092 10.145-2.7094 13.864 1.3275 3.303 4.8571 5.6363 9.85 6.5063 9.3607 1.6268 16.655-1.06 20.828-7.4668 3.978-6.1121 6.1438-15.201 7.8428-28.499l-2.6731 0.32177z"/>
   <path class="uuid-13d634bc-0ad1-4e11-a485-26ebabbe32a4" d="m32.442 300.42c-3.5114-0.68839-2.8997-6.4112-0.65243-9.4287 0.85639-1.1456 0.14052-1.853-0.95608-0.93325-3.3528 2.8135-3.4208 7.8428-2.2745 9.8681l3.8829 0.48975zm10.416 0.32177c-4.8389 0.86134-4.105-6.2932-2.8408-9.1931 0.54815-1.2604-0.38514-1.7398-1.1826-0.62505-2.3923 3.3302-2.6143 9.5465 0.28545 11.069l3.7334-1.2501zm2.4693-37.746c-2.936-2.0887-1.8803-7.7794 1.3275-10.638 1.1644-1.0429 0.56169-1.8304-0.811-1.06-3.3891 1.8938-5.1788 6.4835-4.1639 9.8183z"/>
   <path class="uuid-13d634bc-0ad1-4e11-a485-26ebabbe32a4" d="m108.76 230.46c-1.2501 1.9574-4.9613 7.6844-6.4928 9.7594-1.0052 1.3683-2.4603 2.406-4.4539 3.3122-7.9516 3.611-19.469 11.549-27.751 17.652-8.4817 6.2526-18.073 6.8643-25.885 1.0189-6.3115-4.721-5.9082-14.095 5.0927-19.007 8.8713-3.9645 22.283-15.355 31.018-23.914l-4.7527 1.6816c-8.5905 8.0512-18.944 16.868-26.945 20.443-13.457 6.0124-12.41 17.666-5.5594 22.79 8.3005 6.2073 19.333 5.4778 28.304-1.1371 8.2324-6.0668 19.609-13.919 27.452-17.48 2.1974-0.99662 4.2907-2.569 5.4324-4.114 1.5583-2.1114 5.0202-7.408 6.2798-9.3835l-1.7398-1.6131z"/>
   <path class="uuid-13d634bc-0ad1-4e11-a485-26ebabbe32a4" d="m55.708 266.24c-5.3056-0.24472-4.7801-7.8519-1.9664-10.806 1.0822-1.1371 0.39387-1.9618-0.86479-1.0189-3.901 2.9043-4.141 9.927-1.3237 12.415l4.1501-0.58906zm38.481 11.082c-2.9723-1.2278-1.8441-7.4216 1.1593-9.4287 1.2689-0.84766 0.56165-1.8258-0.77574-1.0926-3.7515 2.0661-4.9385 6.7419-3.8013 9.6823l3.4163 0.83394z"/>
   <path class="uuid-13d634bc-0ad1-4e11-a485-26ebabbe32a4" d="m130.14 228.57c2.7865 0.7021 3.8332 5.4098 1.2278 12.138-2.6279 6.7873-7.4488 17.643-12.827 26.193-6.3296 10.063-12.863 13.294-23.198 10.761-6.8823-1.685-8.5677-8.1736-4.3904-14.182 1.4042-2.0162 2.0977-2.6959 3.244-4.5399 3.0267-4.8888 4.7257-9.4967 6.2028-15.473l-2.4647 1.2775c-1.4402 4.8344-2.9497 9.1342-5.7225 13.611-1.8758 3.0266-2.2202 3.09-3.4298 4.7347-5.2512 7.1587-1.5669 14.471 6.1393 16.361 10.38 2.5418 18.604 0.66098 25.781-11.508 5.0836-8.6175 10.253-19.958 12.904-26.804 2.9088-7.5166 1.6902-12.768-1.3545-14.095l-2.1114 1.5224z"/>
   <path class="uuid-13d634bc-0ad1-4e11-a485-26ebabbe32a4" d="m105.03 278.16c-4.5943 0.86134-4.7664-5.8992-1.6405-9.4424 0.98293-1.1097 0.27224-1.8486-0.92475-0.96407-4.3133 3.1807-3.8194 9.8138-1.2192 11.685zm53.314-129.88c15.89 4.5943 29.346 28.427 28.966 51.588-0.19006 11.585 4.3587 22.337 12.641 30.995 4.123 4.3088 5.1606 8.3639 4.2046 15.26-1.2998 9.3561-7.426 25.771-10.543 34.131-5.6047 15.024-14.227 15.056-21.943 13.982-6.2345-0.86993-9.5601-4.3587-9.3381-9.7277 0.18162-4.3904 3.4163-8.5497 5.7769-11.345 0.8562-1.0155 1.6491-2.2291 2.2608-3.6927 2.1794-5.1967 3.1625-12.02 2.9406-17.738-0.20363-5.1832-2.2202-7.7478-6.3614-9.3608-11.123-4.3359-22.201-13.615-27.122-22.663l-2.125 0.64388c5.1969 9.7368 15.935 19.773 29.845 24.611 1.6764 0.58396 2.9269 2.0842 3.1898 6.1891 0.32544 5.1199 0.0183 11.857-2.27 17.398-0.83738 2.0299-1.4008 2.4332-2.6913 3.892-2.7457 3.1082-5.5639 7.4986-5.7541 12.061-0.19519 4.993 1.8032 10.471 11.304 11.794 8.8669 1.2364 18.721 0.98807 24.643-15.088 3.1036-8.4228 9.1477-25.219 10.466-34.72 0.99666-7.1724-0.21757-12.093-4.8661-16.954-8.0378-8.4002-11.907-18.445-11.726-29.668 0.38529-23.479-12.251-47.27-30.089-53.686l-1.4179 2.1022z"/>
   <path class="uuid-13d634bc-0ad1-4e11-a485-26ebabbe32a4" d="m169.09 293.67c-4.5443-1.5001-3.3891-6.5606-0.97439-9.6507 0.8922-1.1456 0.24473-1.8893-0.89733-0.99151-3.3845 2.6596-3.5884 7.8202-2.2791 9.9361l4.1549 0.71069zm10.611 0.73461c-5.5548 0.68842-4.6442-6.8552-3.1082-9.8546 0.69869-1.3597-0.10274-1.9392-1.0874-0.77915-2.6822 3.1897-3.0175 9.3833 0.28949 11.862zm-171.57-262.45c0.12658-1.5806 0.80194-1.758 1.7217-0.28582 6.3296 10.113 15.482 32.395 18.282 43.451l-1.5994 2.501c-4.2001-15.482-12.501-34.81-16.728-42.372-0.14896 1.894-0.16254 3.0945-0.23995 5.233-0.04109 1.1062-0.6343 1.1422-1.1917 0.53428-1.9981-2.1928-4.6758-5.2104-6.3387-6.9503 0.12658 1.6131 0.3038 4.0869 0.39868 5.2286l-1.5496-1.8439a79.852 79.852 0 0 0-0.45756-4.8752c-0.17208-1.4641 0.36698-1.826 1.5179-0.73806a75.778 75.778 0 0 1 6.2027 6.778c-0.13539-2.9903-0.17208-4.7392-0.014676-6.6511m152.3 139.16c-6.4473 4.1866-9.7414 4.6124-12.324 4.3361l-1.0018 1.6405c6.1302 0.0855 10.376-2.193 13.552-4.3859-2.2745 6.0352-5.8538 10.045-12.895 13.629-2.2018 1.1182-1.7352 1.8486-0.57027 2.2246 1.6988 0.54801 5.3554 1.1011 6.8959 1.1833-2.5961 2.0388-8.3549 5.1968-11.445 6.8823-1.8756 1.0189-2.1793 2.0933-0.10273 1.31 3.8557-1.4539 10.33-5.0971 13.574-7.4577 2.3469-1.709 1.4864-1.7852-0.49319-2.0162-2.2472-0.26381-4.9159-0.68497-6.6695-1.173 7.5757-3.2485 9.9317-5.5004 13.23-14.752 1.1199-3.1353-0.11998-2.4738-1.758-1.4128"/>
  </g>
 </g>
</svg>
