<?xml version="1.0" encoding="UTF-8"?>
<!-- Created with Inkscape (http://www.inkscape.org/) -->
<svg version="1.1" viewBox="0 0 251.51 290.95" xmlns="http://www.w3.org/2000/svg">
 <g transform="translate(18.077 -2.333)">
  <path d="m184.32 242.01c-0.52156-0.54324-6.6924-8.17-9.1261-12.19-5.4104-8.9522-9.9518-19.817-10.778-28.356-8.2135-10.951-20.403-19.404-34.201-20.469-13.146-1.0226-19.643 3.9982-28.226 14.428-8.5395 10.365-18.035 4.9107-21.49-0.89015-5.4757-9.1913-10.56-15.797-26.292-16.992-16.557 6.6924-20.447 16.166-17.057 28.008-0.56491 0.56491-1.2605 1.0431-1.9772 1.4559 0.07228 0.0481 0.12045 0.0843 0.15176 0.13009 0.15177 0.13008-3.7374 4.5414-4.7152 5.6494-20.469-17.014-15.123-41.98-8.6915-50.389 5.5626-7.2791 11.408-12.32-3.9112-10.234-22.924 3.1506-35.179 25.249-33.745 45.131 1.1094 15.167 9.8432 29.443 22.229 37.004-6.3666 4.3241-12.516 6.7142-16.362 7.9962-5.7363 1.912-4.9107 4.8455 0.08434 6.4101 4.9542 1.5427 14.732 1.3257 20.99-0.19513-4.6935 3.8242-9.6911 6.9315-12.277 8.17-5.215 2.4989-5.1716 3.8895-1.7817 5.78 7.1705 3.998 25.379 1.1527 34.201-4.5631-4.324 4.6716-9.061 8.5393-12.451 9.9735-4.2373 1.8035-6.2146 5.6712 0.17345 7.2792 6.9532 1.7382 20.382-0.12046 28.487-5.3455-2.1728 2.5425-4.2807 4.5633-6.1276 6.2363-2.2815 2.0643-3.4549 6.2145 3.0203 6.7359 17.144 1.4124 35.136-15.949 41.176-26.813 2.4772 6.649 8.2571 15.406 11.625 18.383-1.9337 0.67332-3.9981 1.3257-6.1927 1.9556-3.8677 1.1298-4.8455 4.8238 2.7596 8.6047 6.6057 3.3028 15.015 4.802 23.815 4.3458 6.1275 2.9552 19.034 3.0203 19.86 1.5211 0.76006-1.3689-0.30352-4.0416-1.0865-5.5627 1.3689-0.54324 2.7161-1.131 4.0415-1.7817 7.4313 3.4984 14.819 4.9107 23.141 4.1502 2.9334-0.26018 6.6708-1.8687 2.5857-6.7576-1.76-2.0643-5.1497-5.5627-7.2141-8.0833 11.017 6.0841 20.36 7.0836 31.007 5.6061 9.0393-1.2388 7.4314-4.4543 4.9542-6.4751-0.86845-0.71667-2.0861-1.6297-3.4984-2.7162 14.732 2.2381 25.575 0.43482 25.075-3.7591-0.49987-4.2588-19.795-10.647-32.18-23.38" fill="#00a0b6"/>
  <path d="m54.202 177.55c-0.04815 0-0.12045-0.0121-0.15176-0.0121-11.668-0.84678-21.946 8.4959-23.837 14.189-2.7814 8.3221 0.695 11.712 4.9542 15.297 0.71669-0.41195 1.4123-0.89014 1.9772-1.4558-2.477-8.6264 3.455-22.511 17.057-28.009" fill="#0f141b"/>
  <path d="m164.41 201.46c0.82509 8.5393 5.3671 19.404 10.778 28.378-0.2385-9.4086-4.2371-19.665-10.778-28.378" fill="#0f141b"/>
  <path d="m207.2 22.898c-29.073-25.792-73.965-23.294-107.1-2.1077-31.507 20.121-57.712 71.857-66.295 137.3-2.1945 16.731-17.991 19.882-14.189 37.873 1.9338 9.2349 15.645 11.277 15.732 11.169-4.3458-3.6287-7.9527-6.9967-5.128-15.427 1.8905-5.6713 12.168-15.015 23.837-14.189 15.862 1.1527 20.947 7.7789 26.444 17.014 3.4549 5.8016 12.972 11.256 21.49 0.89014 5.9537-7.2358 15.167-15.449 28.226-14.428 13.798 1.066 25.988 9.5172 34.201 20.447 6.5187 8.7132 10.517 18.991 10.778 28.378 2.4337 4.0197 5.0411 7.6702 7.5834 10.517 0.49988 0.58661 1.0226 1.1298 1.5428 1.6732 5.5626-4.8891 8.3222-14.254 7.8225-23.185-0.0844-1.2172-0.28186-2.4553-0.60828-3.7373 9.3652-4.3676 27.791-34.288 35.092-81.396 8.7135-56.234 3.5854-90.392-19.426-110.8" fill="#e3c582"/>
  <path d="m125.56 181.18c-1.4124 0-2.803 0.13009-4.1504 0.36979-4.8019 1.0877-8.974 3.455-12.972 7.0186-3.6286 3.9981-5.8232 9.3434-5.8232 15.319 0 12.842 9.6041 23.272 22.576 23.272 12.255 0 22.49-9.1043 22.49-23.511 0-12.559-9.2782-22.468-22.12-22.468" fill="#fff"/>
  <path d="m57.178 178.19c-12.211 0-20.49 11.017-20.49 21.49 0 1.7817 0.19513 3.4983 0.54324 5.1715 1.8687 9.0827 8.7567 16.123 19.882 16.666 11.994 0.60828 21.142-9.2347 21.142-21.164 0-13.798-10.799-22.164-21.077-22.164" fill="#fff"/>
  <path d="m164.41 201.46c0.82509 8.5393 5.3671 19.404 10.778 28.378-0.2385-9.4086-4.2371-19.665-10.778-28.378" fill="#0f141b"/>
  <path d="m39.111 210.83c2.0643 7.7789 10.104 11.147 17.992 11.538 11.886 0.58661 21.012-8.8655 21.512-20.577-9.3216 10.712-24.771 14.037-39.503 9.0393" fill="#dcdddd"/>
  <path d="m107.97 217.44c3.1726 6.4534 9.9953 9.7129 17.231 9.7129 12.255 0 22.772-9.0828 22.489-23.489-6.8664 10.756-27.835 17.035-39.72 13.776" fill="#dcdddd"/>
  <path d="m230.97 73.674c-3.6072-29.03-43.023-26.335-62.818 30.182-26.422 75.421-93.087 28.639-140.04 67.772-5.0195 7.0835-10.995 12.494-8.4959 24.336 1.9337 9.2348 15.645 11.277 15.732 11.19-4.3458-3.6504-7.9527-7.0184-5.128-15.449 1.8905-5.6713 12.168-15.015 23.837-14.167 15.862 1.131 20.947 7.7789 26.444 17.014 3.4548 5.7799 12.972 11.256 21.49 0.86845 5.9537-7.2359 15.167-15.449 28.226-14.428 13.798 1.0636 25.988 9.5172 34.201 20.469 6.5404 8.6916 10.517 18.969 10.777 28.356 2.4337 4.0198 5.0411 7.6704 7.5835 10.539 0.49987 0.56492 1.0202 1.107 1.5429 1.6513 5.5624-4.8672 8.322-14.232 7.8222-23.185-0.0844-1.1949-0.28186-2.4553-0.60828-3.7156 9.3652-4.3891 27.791-34.31 35.092-81.396 4.0633-26.27 6.7143-42.567 4.3458-60.037" fill="#bfa56f"/>
  <g fill="#008c9f">
   <path d="m77.448 191.11c1.1744 6.0624 1.3906 11.19 0.23849 13.754 3.6504 9.8215 20.947 11.69 25.379 2.0861-0.69502-4.8891-0.21682-7.9095 0.93349-13.516-1.1527 0.93349-6.0623 8.1483-12.581 7.9311-3.9764-0.15178-10.712-3.9764-13.972-10.256"/>
   <path d="m147.31 207.01c5.7146 9.8649 19.447 18.252 25.51 21.468 0.695 0.45651-8.2352-26.183-8.2352-27.813-7.2356-8.6697-21.055-19.208-26.792-17.948 8.3874 8.6264 9.2781 17.535 9.5172 24.293"/>
   <path d="m168.15 248.82c3.6287 1.3256 32.55 19.686 47.912 17.296-1.6298 6.1927-21.208 3.9329-23.532 3.4548-13.515-8.257-24.38-20.751-24.38-20.751"/>
   <path d="m166.14 257.98c-1.304 2.1293-7.453 12.777-8.0397 13.494 1.521 2.3684 4.9542 4.02 7.3226 5.2151 6.975 3.4765 25.923 1.6079 31.855-0.36978-15.167-0.69501-33.376-7.692-31.137-18.339"/>
   <path d="m166.37 252.66c-26.64 24.858-45.087 30.659-75.747 31.485 11.364 4.4327 23.206 6.5838 29.117 5.6712 5.9102 1.6731 18.469 2.738 18.469 1.3039 0-1.4124-0.84678-4.7151-0.84678-5.4321 1.0636-0.95517 3.2159-1.1961 4.3894-2.1296 5.8014 4.4979 23.358 5.4104 25.922 2.8466-11.255-4.8674-13.863-10.3-13.863-11.364 4.6282-4.6066 11.603-14.276 12.559-22.381"/>
   <path d="m85.135 253.91s1.6731 8.9306 11.56 20.664c3.4332-0.80342 6.3449-1.8905 8.9088-3.694-9.2565-0.52156-21.142-24.706-20.469-16.97"/>
   <path d="m55.562 254.89c-13.124 10.756-29.725 18.274-39.959 18.948 8.1918 5.0846 26.618-0.21681 28.747-1.2173 6.888-4.5413 11.06-16.21 11.212-17.731"/>
   <path d="m84.827 252.16c-0.3698-9.6911-27.14 29.638-43.892 29.334 12.646 5.6061 36.113-8.9522 44.044-24.032 0.45652-2.4986-0.15176-5.3017-0.15176-5.3017"/>
   <path d="m40.351 244.15c-13.124 10.778-41.089 18.013-44.283 18.513 12.125 4.0416 27.791 0.2385 32.832-2.5204 4.0415-4.0416 10.604-12.451 11.451-15.993"/>
   <path d="m-15.205 188.25c-3.5419 16.883 6.0622 37.135 21.49 46.5-8.9305 4.8672-22.163 9.5607-20.642 11.408 2.5206 3.8895 19.36 5.5627 24.575 2.3684 4.4109-2.7161 8.496-7.3008 8.9088-9.0826 3.5418-2.0207-31.963-30.399-34.332-51.193"/>
   <path d="m123.64 257.46s-1.8686 2.89-4.8455 4.1936c-1.6296-0.97686-8.1266-11.017-5.9102-9.539 0.97687 0.65164 5.1063 3.3899 10.756 5.3454"/>
  </g>
  <g fill="#0f141b">
   <path d="m207.56 20.308c-28.356-23.641-72.205-24.01-108.51-0.8251-36.982 23.641-58.863 71.618-67.446 137.11-1.2172 9.1913-3.52 10.93-8.4524 17.6-4.2805 5.7582-7.931 10.864-5.6712 21.533 2.3901 11.386 17.035 13.32 17.644 13.363 1.6514 0.12045 2.89-1.2605 1.4124-2.5203-4.5414-3.8028-7.8225-6.5405-5.1715-14.493 1.7164-5.1499 11.603-14.146 22.598-13.342 15.275 1.107 20.012 7.2138 25.51 16.427 1.847 3.1072 5.7148 7.4964 10.973 7.9093 3.0855 0.21682 7.8875-1.2823 12.472-6.8663 8.9524-10.908 16.579-14.841 27.205-14.015 22.707 1.76 41.198 24.619 43.632 44.305 0.17345 1.4992 3.7372 6.3448 3.7372 5.6929 0.12045-22.055-17.448-50.455-47.564-52.801-11.386-0.86846-19.469 3.8242-28.878 15.275-3.1507 3.846-6.6056 5.6494-10.256 5.367-4.3458-0.32522-7.6919-3.4984-9.2566-6.1058-5.6929-9.5607-10.973-16.666-27.378-17.839-12.625-0.91182-23.554 7.7137-25.879 14.732-1.6296 4.8672-0.8251 10.321 3.4984 14.71-4.02-1.0877-9.7129-3.6939-10.995-9.8214-1.3907-6.6274-0.65165-11.408 6.1058-20.382 3.4984-4.6499 7.1271-9.4521 8.1266-17.079 8.3222-63.579 33.506-115.86 65.73-136.44 35.396-22.62 78.833-21.794 105.65 1.9991 22.207 19.686 27.9 52.497 19.035 109.71-7.4749 48.281-26.27 76.551-34.353 80.462 0.21681 0.84677 0.32522 1.608 0.36978 2.4772 10.734-3.9547 30.725-36.222 37.895-82.548 9.5825-61.906 2.3684-93.478-21.772-113.6"/>
   <path d="m17.841 150.97c-23.641 3.2375-37.287 26.661-35.809 46.934 1.1744 16.058 11.255 31.159 24.728 37.982 8.8437 4.4979 11.125 2.9986 3.0203-1.107-13.385-6.7795-23.141-21.555-24.315-37.569-1.3907-19.165 10.452-40.807 32.702-43.849 10.647-1.4557 7.8877 1.4124 4.737 5.8234-4.4979 6.3232-9.9954 15.71-7.3661 30.529 1.3906 7.9093 4.9324 17.948 18.578 26.661 5.4104 3.4548 7.7137 2.6074 2.2815-0.8251-10.212-6.5187-16.601-15.601-18.491-26.248-1.6732-9.5607 0-19.795 6.888-28.595 6.5621-8.3874 6.736-11.603-6.9532-9.7345"/>
   <path d="m36.201 203.95s-5.3236 5.4975-6.8445 7.2792c-0.28185 0.32643 1.8905 2.6509 2.1729 2.3033 1.6079-1.8688 5.519-6.6707 5.519-6.6707 0.41315-0.52156-0.43483-3.4332-0.84678-2.9118"/>
   <path d="m3.71 233.42c-5.1497 4.1718-10.386 5.6494-16.601 9.061-5.6712 3.1072-4.172 6.2145 3.281 7.8875 4.2589 0.97686 10.864 1.3256 17.144 0.36978 1.912-0.30474 5.7581-4.1068 5.1063-3.9112-5.8233 1.9555-16.949 2.3033-22.055 0.71669-4.9541-1.5644-3.9981-2.6726-0.07228-4.1067 6.1276-2.2163 11.842-4.8238 16.818-8.2353 0.30354-0.21681-3.1289-2.1729-3.6287-1.7817"/>
   <path d="m17.732 240.25c-4.976 6.6056-15.21 12.668-20.121 15.514-7.0618 4.0851-6.1928 6.1058-2.4119 7.844 8.0615 3.7375 20.773 2.7597 31.746-1.3906 2.6074-0.97687 6.2143-7.2357 5.7146-6.8012-7.4313 6.5622-27.661 10.017-34.94 5.9756-2.1293-1.1732-2.3249-1.6732 1.7167-3.607 3.2593-1.5862 12.516-7.2793 18.448-13.928 4.1067-4.5849 2.9334-7.7137-0.15176-3.607"/>
   <path d="m40.45 241.29c-6.171 15.167-15.254 21.077-22.142 25.075-9.9083 5.7799-8.7784 8.1917 0.26018 10.43 6.6272 1.6731 17.144 1.131 25.445-2.9117 1.8905-0.93349 5.2584-6.8447 4.7369-6.4101-7.1922 5.8668-21.968 8.3657-29.378 6.497-4.6063-1.1515-6.084-1.4993 0-4.9976 7.9311-4.5631 18.557-13.841 22.49-25.206 1.6296-4.7368 0.47819-7.1053-1.4124-2.4771"/>
   <path d="m163.1 200.48c0.80341 12.929 10.364 31.181 18.774 40.676 7.0185 7.931 16.84 13.581 24.032 17.709 6.7576 3.8895 10.756 5.9973 8.9305 7.7356-2.4554 2.3033-12.038 3.3896-25.64 0.97687-0.65165-0.13009 2.9117 3.2375 4.2806 3.4331 11.234 1.4993 20.229 0.91182 23.315-2.0208 4.0416-3.8025 0.89015-6.1276-9.691-12.212-7.0402-4.0416-16.666-9.5824-23.424-17.231-7.4531-8.4091-15.775-24.076-17.774-35.896-0.19513-1.1527-2.8464-3.8461-2.8029-3.1724"/>
   <path d="m57.819 248.42c-6.2143 15.493-9.6042 19.86-17.187 26.705-4.0415 3.6505-5.215 9.061 4.2371 9.3434 18.882 0.56492 35.201-15.384 41.589-26.183 0.2385-0.36979-1.369-3.8241-1.6949-3.2375-5.215 9.6477-22.924 27.943-40.199 26.531-4.7368-0.39147-4.4978-2.6728-2.325-4.65 6.2146-5.6061 13.689-14.884 16.71-25.401 1.2822-4.5197 0.60828-7.453-1.131-3.1072"/>
   <path d="m130.04 236.87c-6.3231 19.904-11.82 30.29-39.307 38.265-7.8442 2.2815-5.6931 7.3443 2.1293 11.255 14.276 7.1272 36.113 6.1928 51.932-2.8464 14.906-8.5177 23.315-22.25 24.532-39.872 0.3469-5.0195-1.9775-6.649-2.3251-1.6297-1.4993 21.533-13.798 32.898-23.837 38.612-15.167 8.6699-35.222 9.9736-48.803 3.1726-5.367-2.6728-7.3009-5.1064-2.9552-6.3667 28.465-8.257 35.918-19.73 39.807-36.548 1.0853-4.6934-0.0482-7.6052-1.1744-4.0416"/>
   <path d="m84.818 256.79c1.7599 6.4752 6.4318 13.472 10.517 18.122 0.2385 0.26017 3.3245-0.95518 2.8247-1.3907-3.694-3.1507-10.321-13.624-12.059-19.99-1.4124-5.2151-2.6944-1.9556-1.2823 3.2593"/>
   <path d="m111.13 252.22c2.0642 4.9977 5.3888 9.2348 6.4534 10.473 0.54323 0.62995 2.7812-0.84678 2.2163-1.1949-0.2385-0.17345-1.76-1.4776-7.4531-12.298-1.8687-3.5636-2.7594-0.71669-1.2172 3.0203"/>
   <path d="m135.73 286.22c0.99854 1.76 1.0648 3.1073 0.73837 3.846-1.6079 0.89013-11.951 0.84678-15.645-1.0877-0.5866-0.30474-3.0638 1.3039-2.5204 1.673 3.9112 2.6076 18.904 3.8243 20.425 1.066 1.3256-2.3901-0.39146-5.8232-0.91182-6.6925-0.32642-0.5866-2.1946 0.99854-2.086 1.1949"/>
   <path d="m156.25 270.77c0.60828 2.0425 8.9957 10.843 8.9957 10.843 2.7814 3.3028 2.5206 4.3674-1.76 4.7584-7.6919 0.695-14.623-0.45652-21.685-3.6286-0.47819-0.21681-3.8894 1.6296-3.2811 1.912 7.9746 3.9113 17.362 5.2368 26.053 4.2589 6.4751-0.73837 7.214-3.2375 2.5206-8.8655l-3.0421-3.3896c-2.173-2.3684-5.1281-5.6061-5.5409-6.7142-0.21681-0.62997-2.4554 0.19513-2.2598 0.82509"/>
   <path d="m167.28 249.55c7.5834 9.1696 16.579 15.688 22.533 19.991l4.3675 3.2594c2.3251 1.912 2.3251 3.4113-4.3893 4.3458-11.777 1.6296-20.708-0.0723-30.833-5.8017-0.5866-0.32522 1.369 4.7151 2.3683 5.128 10.169 4.1721 18.296 5.1063 29.312 3.4116 8.1266-1.239 11.277-3.9113 5.0631-8.9524l-4.4762-3.3463c-5.8452-4.237-14.689-10.625-22.077-19.578-0.43483-0.52155-2.3033 1.0226-1.8687 1.5428"/>
   <path d="m35.463 144.12c-1.6297 1.6296-0.13009 5.6712 0.2385 5.0192 5.8452-10.364 24.662-10.843 64.883-8.0395 56.778 3.9762 62.796 11.342 73.726 24.727l2.1513 2.6075c0.41315 0.52155 0.32522-4.1936 0.32522-4.1936-10.408-13.972-18.23-21.512-76.029-25.553-38.221-2.6726-57.299-2.5639-65.295 5.4324"/>
   <path d="m45.169 104.35c-1.0443 0.95518-0.36978 5.2584 0.02413 4.737 7.6269-10.256 26.77-13.189 60.211-9.2131 39.264 4.6717 69.945 9.7997 77.985 29.486 0.2385 0.62997 1.1094-3.4549 0.73838-4.1721-9.7344-19.1-38.547-22.967-78.441-27.726-30.964-3.6721-51.019-1.6514-60.515 6.888"/>
   <path d="m61.978 64.34c-2.4988 1.9772-2.3033 7.0183-1.9338 6.5186 6.9315-9.3216 19.969-14.537 56.734-10.669 34.571 3.6505 69.272 9.474 80.419 36.722 0.2385 0.60828 2.1513-2.7813 1.8471-3.4549-12.472-26.727-47.565-32.05-82.027-35.679-30.855-3.2376-46.63-0.12045-55.039 6.5622"/>
   <path d="m125.26 23.752c-14.862 0.04815-27.639 2.1293-36.178 5.6712-3.8895 1.6079-5.1934 5.5409-3.9548 4.7368 7.4531-4.8672 22.446-7.931 40.133-7.9962 23.858-0.08434 57.017 5.78 72.01 22.533 7.844 8.7567 12.559 23.293 11.777 36.135-0.0482 0.67333 2.7379 0.30354 2.7814-0.36978 0.8251-13.472-3.6069-27.965-11.842-37.156-15.514-17.361-49.216-23.641-74.726-23.554"/>
   <path d="m224.93 51.925c2.0207 19.838-4.1504 29.378-10.017 37.504-0.30475 0.39147 0.695 3.1508 1.0877 2.6075 5.4104-7.4531 12.385-15.558 12.103-32.984-0.0481-2.8682-3.2594-8.0397-3.1723-7.1271"/>
   <path d="m229.23 106.55c-1.8904 2.3686-9.1913 3.846-12.69 4.0416-0.52156 0.0481-0.78174 2.4336-0.2385 2.4119 3.368-0.15176 10.234-0.47819 13.515-3.2159 0.32522-0.26018-0.17346-3.7591-0.5866-3.2376"/>
   <path d="m212.86 138.09c2.9118 0.71669 9.0611 2.0642 12.451 2.7162l-0.30353-2.6945c-3.4116-0.65164-8.8872-1.6949-11.669-2.3901-0.30354-0.0844-0.86845 2.2816-0.47819 2.3684"/>
   <path d="m206.55 156.79c4.085 0.62997 10.625 4.3894 12.603 8.1266 0.32522 0.5866 1.4123-2.325 0.93351-2.9116-2.8683-3.5201-7.7138-6.5622-11.821-7.4749-0.28185-0.0723-2.3683 2.1513-1.7166 2.2598"/>
   <path d="m199.7 171.66c3.5852 3.0202 9.452 13.885 8.4308 20.925-0.0844 0.67332 2.3033-2.6727 2.3466-4.3024 0.17345-6.7577-5.8014-15.514-9.213-18.448-0.23848-0.21681-1.7384 1.6732-1.5644 1.8253"/>
   <path d="m197.38 174.39c-0.0843-0.30474-2.3684 0.49987-2.2598 0.86845 2.6944 10.321 1.1744 27.248-4.7369 36.874 0.49987 1.1298 1.4124 2.086 1.5644 2.9986 7.3009-10.017 8.5829-29.139 5.4322-40.742"/>
   <path d="m190.73 171.06c-0.19513 5.4322-5.3017 16.492-9.2347 19.6-0.52155 0.43484 0.84678 2.8682 1.5428 2.3684 4.2806-3.0638 8.3004-12.451 9.691-18.861 0.2385-1.1094-1.9772-3.7808-1.9991-3.1073"/>
   <path d="m57.366 221.12c-13.928-0.60827-19.795-11.038-19.665-20.99-0.08434-9.9302 7.8222-20.599 19.469-20.86 9.9518 0.19513 20.317 8.0181 20.23 21.533 0.21681 5.9536-2.238 11.473-6.2796 14.993-3.933 3.9763-8.735 5.693-13.754 5.3236m-22.337-21.251c0.07228 13.407 8.8002 23.163 22.011 23.923 5.9973 0.0241 11.364-1.9773 15.623-5.9537 4.4544-4.2588 7.3227-10.778 7.2574-17.101-0.04815-15.058-11.777-23.728-22.576-24.032-13.581 0.41315-22.294 12.103-22.316 23.163"/>
   <path d="m45.006 200.51c0 7.2138 5.2367 14.754 14.732 14.493 6.6056-0.17346 12.885-5.9754 12.885-13.972 0-8.0831-5.7582-14.384-13.863-14.384-9.2348 0-13.754 7.6486-13.754 13.863"/>
   <path d="m103.63 204.05c0.36859-12.233 9.6694-21.707 22.077-21.881 11.994 0.17345 20.903 9.3434 20.686 21.685-0.0844 12.733-8.8872 21.968-21.186 22.25-11.994-0.32522-21.49-9.6911-21.577-22.055m-2.2816 0.0241c0.28185 13.407 10.365 25.01 23.837 25.032 13.82-0.39027 24.228-10.821 24.141-25.336 0.0844-13.581-10.278-24.011-23.706-23.706-13.472-0.0481-24.249 10.582-24.271 24.01"/>
   <path d="m110.14 204.15c0 10.082 8.4526 15.623 15.84 15.428 5.5844-0.15177 13.863-5.1715 13.863-14.884 0-8.5829-6.3231-15.319-14.928-15.319-9.9301 0-14.776 8.3006-14.776 14.776"/>
   <path d="m214.43 84.936c-2.5424-3.7374-6.6708-3.3028-9.9518-0.71668-13.146 10.386-27.422 50.107-29.421 78.898-1.2605 17.861 5.6277 30.094 10.495 40.438 2.7379 5.845 5.128 10.886 5.367 15.34 0.49987 8.8002-2.3032 17.427-7.04 21.903-0.21681 0.21681 1.9555 2.5639 2.086 2.3901 11.364-13.602 8.887-26.27 1.9556-40.307-4.9326-9.9735-10.843-22.967-9.626-40.22 1.6514-23.619 15.971-65.969 27.813-75.312 2.4554-1.9337 4.7587-2.477 6.2578-0.28185 4.737 6.9315 2.9118 34.071-0.41315 49.694-3.7808 17.774-12.863 38.113-17.753 37.07-2.1294-0.4565-2.1294-7.2141-2.1294-8.5395 0-16.579 8.7784-46.435 11.386-46.913 1.9555-0.34811 1.5862 4.7151 0.43484 12.863-1.5209 10.821-4.6934 21.707-5.8885 21.403-0.71668-0.17344-0.47819-2.5858 0.0241-4.737 0.95517-3.9547 0.32522-4.4545-0.80341-1.3907-1.6296 4.3674-2.0642 8.7351 0.21681 9.3434 2.0208 0.54325 5.454-5.4756 8.2354-21.62 1.9773-11.408 2.0208-19.578-2.0425-19.469-6.0624 0.17345-13.037 31.116-14.254 44.24-0.99854 10.93 0.65165 17.296 4.1503 18.057 7.7572 1.6732 16.84-21.229 20.795-39.807 4.0633-19.165 6.1927-43.371 0.12045-52.323"/>
  </g>
 </g>
</svg>
