<svg xmlns="http://www.w3.org/2000/svg" viewBox="0 0 421.09 323.71"><title>Moltres (2)</title><path d="M17.71,27.05c-3.05,6.71-2.87,14-.71,17.19,3.25,4.89,3.54,14.53,2.34,19.64-.82,3.46.3,6.82,3.05,8.24s4,3.56,3.26,8.14,1,9.89,4.68,10.28c3.3.34,7.7,6.42,3,6.71,5.08,1.93,8.7,5.67,7.83,9.16-.51,2-.3,3.46,1.32,4.17s1.53,2.85.82,4.48,1.22,4,4,3.25,4.27,1.94,5.29,3.87a14.54,14.54,0,0,0,6.2,5.9c-.3-1.63-.3-3-.51-4.68a62.3,62.3,0,0,0,5,3.9c1.42,1,1.83,3.53,1.73,5.36-.13,2.25,1.44,5.4,4.07,3.25.92-.74,2.54-1,3-.06a1.28,1.28,0,0,0,1.83.74c.68-.27,1.49.27,1.63,1.43a2.74,2.74,0,0,0,2.51,2.1l33.84,13c1.48,1.4,3.75,1.21,4.48-.8.78-2.17,2.66-2,2.49.68s2.45,3.71,2.45,1.18a2.64,2.64,0,0,1,.89,3.21c-.55,1.1-.17,2.75,1.31,2.83a4.34,4.34,0,0,1,4.31,4c.25,2.15,3,4.35,6,4.18.13,6.22-2.15,17.53-2.18,22.26-11-16.27-27.57-27.88-47.11-29.71a9.63,9.63,0,0,1-7-3.76c-6-8.55-27.21-22.32-33.67-23.1-2.55-.3-4.18-1.22-4.89-3.35-5.15-15.45-14.14-33.28-23.2-41.31-2.26-2-3.87-6.3-4.07-9.06-.71-10-3.86-20.55-10.78-28.49a7.55,7.55,0,0,1,3.87.07,81.35,81.35,0,0,0,.47-8.75C5,40.88,7,34.64,8.18,33c-.47,3.32-.13,7.19.75,8.95a10.85,10.85,0,0,1,1.29-4.41,6.28,6.28,0,0,0,1.55,3.66A21.92,21.92,0,0,1,17.71,27.05Z" fill="#fccf00"/><path d="M183.9,173.2a15.65,15.65,0,0,0-2.85-.26c-2.66,0-4,1.33-4.31,3.67a3.73,3.73,0,0,1,0-3.48,4.16,4.16,0,0,0-2.09,1.14c-.06-1.34.44-2.67,2.47-3.62-2.09-2.09-5.77-2.72-9.76-2.22a20.83,20.83,0,0,1,7.18-4.54c-19-18.41-40.92-36.5-54.64-43l-10.72-5.6L78.54,138.35c-2.17,5.49-.7,15.47,4.19,19.54,8.4,7,25.37.22,29-4.57,6-8,14-8.29,19.61-2.08l-.09,0c3.3,8.86,2.59,20.76,1.47,28.39-1.9,13-2.51,28.67.4,40H133c-3.36,9.77.7,22,4.37,26.76,2,2.54,6.08,8.06,5.94,10.36a3.74,3.74,0,0,0,4.33-2.3,9.93,9.93,0,0,0,1.88,3.63,9.72,9.72,0,0,0,2.73-3.21,28.14,28.14,0,0,1,3.14,3.84,16.54,16.54,0,0,1,2.31-3.29,14.63,14.63,0,0,0,9.5-5.72l.08-.09a27.93,27.93,0,0,0,11.83-1,35.71,35.71,0,0,0,11.47,6.85c6,2.24,11.87,6,13.71,7.87a10.5,10.5,0,0,0,1.28-4.21,27.23,27.23,0,0,1,4.09,1.24,39,39,0,0,1,.56-6.06,26.65,26.65,0,0,0,3.21,3.16,11.91,11.91,0,0,0,.5-3.36,22.23,22.23,0,0,1,3.51,1.68c-.2-4,1.07-10.1,1.84-14.5,2-11.39-1.42-23.91-9.57-37.44C205.25,196.49,195.6,185.19,183.9,173.2Z" fill="#fccf00"/><path d="M104.51,138.32c-3.76,2.59-10.17,8-13.07,13.22,3.72.43,10.49-1.73,12.1-3.72C105,146.1,105.53,141.5,104.51,138.32Z" fill="#fff"/><path d="M104.51,138.32c-3.76,2.59-10.17,8-13.07,13.22.21,0,.11.07.34.08a142.59,142.59,0,0,1,13.14-11.34A11,11,0,0,0,104.51,138.32Z" fill="#dbdcdc"/><path d="M99.57,141.93c-.94,1-4.12,4.33-4.95,5.34a8.36,8.36,0,0,0,1.24,3.89,17,17,0,0,0,5.29-1.89A6.09,6.09,0,0,0,99.57,141.93Z" fill="#0f141b"/><path d="M167.36,168.43c4-3.87,10.21-6.4,15-5.38s8-.89,9.45-3.62c1.19-2.22,3.1-2.66,4.18-.12a12.72,12.72,0,0,0-1.14-7.29,6.16,6.16,0,0,1,3.42,3.8,6.41,6.41,0,0,0,1.08-3.93,7.72,7.72,0,0,1,1.21,2.54,5.14,5.14,0,0,0,2.4-3.81,6.9,6.9,0,0,1,5.58-5.07c3.43-.76,4.82-3.87,5-6.4.25-3.31,3.17-5.45,7-3,2.35,1.52,6-.44,6.09-2.6s1.33-3.61,3-3.8c-2.19,5.88,3.19,9.17,5.2,5.26a2.61,2.61,0,0,1,1.29-4.95c1.76-.07,3-1.08,4.4-2.24a15.37,15.37,0,0,1-.61,3.26c2.72-.88,5.5-3.12,6-4.89a5.91,5.91,0,0,1,3.87-4.13c3.39-1.1,4.68-4.48,4.68-6.92a5.14,5.14,0,0,0,4.88,2.17c-1-.68-2-2.65-2.57-4.48.74.54,1.9.14,2.71-.34-2.31-2.17,1.49-5.08,3.12-4.68,1.36.34,1.49,3.6.54,5.63,2.31-.74,4-3,4.82-5.36a11.52,11.52,0,0,1,.81,3,8.73,8.73,0,0,0,4.34-5.16c1.5-4.27,6.53-6.25,10-4.61a8.86,8.86,0,0,0,12.28-5.56c.82-3,3.05-4.14,5.7-4.14-.95,1.15.07,4.14,1.08,4.89a4.05,4.05,0,0,1,.89-2.79c0,1,.67,2.38,1.42,2.58,0-2.3,4-3.59,6.24-2.85C316.52,95.39,326,92,329.08,82.06c.76-2.42,2.72-3.39,4.89-3.94a7.31,7.31,0,0,0,5-4c.95-2.1,2.78-3.93,4.34-4.2s2.91-2,3.66-4.28A10,10,0,0,1,345.5,72a11.11,11.11,0,0,0,7-7.67,3.63,3.63,0,0,1,1.43,2.45c1.36-1.43,1.63-3,.74-5.43,1.09.88,3.53,1.08,5.16.54-3.19-2.71-1.7-5.43.2-6.37,5.73-2.87,11.08-8.4,14.31-14.38,2.8-5.17,8.25-10.37,12.76-12.08a46.68,46.68,0,0,0,7.86-3.73,25.88,25.88,0,0,0,6.38-4.81,41.86,41.86,0,0,1,4.34-4.89c-2.3.48-2.1-1.49.21-3.25a4.3,4.3,0,0,0,1.91-3.57,3,3,0,0,0-1.49,1.2c-.5.78-1.49,2-2.34,2s-1.52-.82-2-2.2c-.71,3-4.25,7.57-8.95,9.48a26.75,26.75,0,0,0-5.52,3.11c-.55.43-1.56.68-1.91.32s-.89-.21-1.52.14a43.65,43.65,0,0,0-5,3.61c-1.08.85-2.37.57-1.94-.81-1.52.78-4.35,2.65-4.85,4.53s-2.4,4-3.32,4-1.2-1.34-1.49-3.18a15.84,15.84,0,0,1-2.15,5,4.75,4.75,0,0,0-2.2-2.09C361.37,53.7,302.22,75.14,259,82.06a5.58,5.58,0,0,0-3.73,2c-23.47,29.35-48,39.11-78.68,47.48a6.65,6.65,0,0,0-4.34,3.12c-1.32,1.83-6.92,7.94-10.28,11.7-3.54,4-9.7,11.09-9.66,17.27C152.35,168.34,164.53,171.15,167.36,168.43Z" fill="#fccf00"/><path d="M155.17,258.48a14,14,0,0,0-2.85-3.32,24.32,24.32,0,0,1-2.81,2.94,12.79,12.79,0,0,1-1.82-3.45,5.58,5.58,0,0,1-2.85,2.19c-.15,3.3-.56,8.49-3.05,10.53s-9.72,10.78-12.36,15a110.9,110.9,0,0,1-10.33,6.05,5.78,5.78,0,0,0-3.92.46,7.21,7.21,0,0,1-3.56.86c-2.09-.1-4.83,2-5.9,3.61a3.81,3.81,0,0,1,1.88,2.09l-.91,2.19c1.57-.05,4.27,1.12,4.27,3.35a72.82,72.82,0,0,0,6.82-3.25c-2.09,1.68-4.18,3.61-2.9,5.19,2.29-1.12,5.69.61,6,2.08,1.27-.15,2.44-1.93,3.05-3.81a10.7,10.7,0,0,1,2.8-3.92c1.78-2,4.78-5.6,6.46-5.95,1.07.76,2.65,1.22,3.61,1.83a13.3,13.3,0,0,1,3.51,3.66c.51,1.07,2.14,2,3.11,1.58,0-1.22,2.08-3.1,3.45-2.85a2.35,2.35,0,0,0-1.67-2.85c-3.83-1.5-6.85-4.45-7.48-8.49,2.54-5.14,8.27-11.41,12.46-13,2.65-1,3.8-2.39,4-4.83C154.25,264.88,154.81,261.3,155.17,258.48Z" fill="#cc5d00"/><path d="M110.84,301.11c.28-2.68-3.45-3.92-4.44-3.29-1.87,1.19-4.55,5.67-5.43,7.36C103.52,305.12,110.74,302.1,110.84,301.11Z" fill="#fff"/><path d="M107.45,296.09c.07-1.93-1.35-3.15-2.44-2.47a25.34,25.34,0,0,0-5.23,5.83,27.94,27.94,0,0,0,7-2.1Z" fill="#fff"/><path d="M120.71,305.15c-.06-1.86-4.61-3.32-5.73-2.07-1,1.06-1.43,7.77-1.46,9.16C115.08,311.29,120.74,306.13,120.71,305.15Z" fill="#fff"/><path d="M146.82,295.58c-1-.3-3.35,1.77-3.29,2.65s5.77,5.22,7,5.43C150.22,300.71,147.71,295.86,146.82,295.58Z" fill="#fff"/><path d="M216.44,255.12a9.85,9.85,0,0,0-2.52-1,14.53,14.53,0,0,1-.33,3.5,19.26,19.26,0,0,1-3.3-3.19,30,30,0,0,0-.7,5.58,21.52,21.52,0,0,0-3.94-.73,9.56,9.56,0,0,1-.79,3c4.23,3.72,9.75,9.85,11.35,12.41a76.94,76.94,0,0,1,7.33,17c-.56,1.73-2.59,6.2-3.56,6.56a18.61,18.61,0,0,1-4.38,1c-1.06,0-2.44.56-2.39,1.73a3.92,3.92,0,0,1,2.09,4.07,2.43,2.43,0,0,0,2.34,0,20.73,20.73,0,0,1,3.61-1.12c.05,1.83-.15,3.66-.76,4.52s-1.22,3.62.56,4.53c.51-1.58,5.39-2.44,5.69-.76,1.12.1,1.68-1.12,1.28-2.19s.15-4.78.71-5.39,1.42-1.48,2.44-.66a22.82,22.82,0,0,0,2.75,2,6.9,6.9,0,0,1,2.74,3.66c.41,1.28,1.33,3.26,3.16,3.16-.66-1.63,2.54-3.36,4.83-1.58a8.33,8.33,0,0,0-3.25-6c-1.78-1.07-2.7-3-3.46-4.58,2.08.25,5.4,1.37,7.12,3.36,1,1.12,3.1,1.42,3.76-.26-1.88-1.73.1-4.27,2.09-3.86,0-.77-.71-1.53-2.24-1.53s-4.48,0-5.44-.76a8.37,8.37,0,0,0-3.26-1.53,7.06,7.06,0,0,1-3.56-1.78c-1-1.07-2-1.73-3-1.68-2.75-4.83-5.45-13.22-5.55-17.6a6.7,6.7,0,0,0-2.69-5.75C223,267.42,217.38,259.1,216.44,255.12Z" fill="#cc5d00"/><path d="M215.3,304.91c.34-1-1.31-3.93-2.27-3.83s-3.94,3.32-4.45,6C210.72,307.46,214.89,306.13,215.3,304.91Z" fill="#fff"/><path d="M226.8,312.08c-.18-1.23-5.63-.64-5.78,1.06-.13,1.37,1.57,8.9,2.5,10.07C225.22,321,227,313.78,226.8,312.08Z" fill="#fff"/><path d="M239.91,313a27.76,27.76,0,0,1,4,8.62c2.15-2,2.15-9.42.61-10.52s-3.84-.72-4.65.69A.9.9,0,0,0,239.91,313Z" fill="#fff"/><path d="M250.67,299.91c-1.66-.44-3.44,2.56-1.9,3.56a37.85,37.85,0,0,1,5.46,4.73C254.51,305.17,252.49,300.4,250.67,299.91Z" fill="#fff"/><path d="M79.88,141.14c1.13,1.53,2.64,1,3.34-.52a7.74,7.74,0,0,1,7.51-4.84c8.41.81,10.55-2.24,12.21-8.75,1.44-5.66,6.37-7.82,11.46-6.17,2.11.67,4.76,1.25,6.31-.68,1.36-1.7,3.8-2.44,5.36-1.56,3.17,1.79,7.71-1.52,8.34-3.33.48-1.35,1.09-2,1.09-3.05,0-1.37.94-3,3-4.2.71-.41,1.17-1.12.61-1.43s-.9-.68-.46-1.37a9.81,9.81,0,0,0,1.58-3.72c0-1.06-.5-1-1.12.06-.91,1.52-2.74,2.13-3.36,1.27-.86-1.22-3-.56-3.4.81s-2.65,1.58-3.26-.46-.15-3.51,1-4,1.63-1.33,1.42-2.8c-.37-2.7,2.61-3.65,4.12-2.75,1.88,1.12,3.61,1.93,4.84,1.73s3.61-1.27,4.17-2.24.3-1.52-.36-1.37a.76.76,0,0,1-.76-1.22,20,20,0,0,0,2.29-3.21,3.59,3.59,0,0,0,.45-2.08,3.11,3.11,0,0,1,1.07-2.9c1.72-1.25,1.07-2.64.51-3-1.63-1.07-1.56-2.18-.41-3.06a4.28,4.28,0,0,1,3.92-.86,6.32,6.32,0,0,0,4-.66c1.88-1.22,3-2.42,2.34-3.46-.56-.87-1.2-2.92-.91-3.36a2.86,2.86,0,0,1,3.45-.87c1.86,1,5.34-.36,4.48-3a4,4,0,0,1,.92-3.71,1.93,1.93,0,0,0,.56-2.39,4.65,4.65,0,0,1,.15-2.95c.56-1.58,2.09-2.65,3.46-2a4.83,4.83,0,0,0,4.22.31c3.92-1.83,6.15-4.92,5.6-6.41a3.42,3.42,0,0,1,.45-3.21,1.28,1.28,0,0,0-.61-2.18c-1.88-.51-1.27-2.87.87-3.46,4.42-1.22,6.12-3.19,5.14-5.8-1.18-3.14,1-6.66,4.32-8.3.82-.4,1-1.11,0-1.27-2.75-.46-6.77,2.22-8.09,4.12-.46.66-1.63,1.34-2.24.56a2.44,2.44,0,0,0-2.34-1.07,2.61,2.61,0,0,1,1.33,2.55,11,11,0,0,1-2.24,3.86,3.82,3.82,0,0,1-2.85.87c-2.9-.51-5.3.62-5.24,3.31.08,3.76-2.19,6.25-4.12,6.25a1.89,1.89,0,0,1-1.32-2.95c.45-.71.25-1.57-.51-1.42a1.65,1.65,0,0,1-2.09-1c-.58-2.34-4.21-.35-4.07,2.7.05,1.07-.15,2.24-1.12,2.18s-1.52.46-1,1.33.91,2.08-.51,2.8-3.07.39-3.36-1.17c-.51-2.75-2.09-3.86-4-3.16-1.68.61-4.17,3-3.15,4.88a1.8,1.8,0,0,1-.36,2.4,2.27,2.27,0,0,1-2.14.86,3.72,3.72,0,0,0-3.46,1c-1.63,1.54-2.49,3-1.12,5.29,1.23,2,1.76,3.47,1.07,4.93-1.22,2.6-2.63,2.54-3.25,1.73-.87-1.12-2.09-1.37-2.6-.35s-3,1.47-3.2,0-.41-3.06-1.38-3-1.93,1.17-2.34,3.06S122.71,67,121,67a4.28,4.28,0,0,1-3.61-3c-.56-2.29-3.82-3.1-6-2.08,3,1.4,3.77,3.61,2.24,5.44-2,2.34.92,5.33,3.81,3.82,4.17-2.19,6.92,4,3.31,4.47-1.43.21-2.64,1.17-2.29,2.85.25,1.22-1.12,3.41-2.44,2.75s-2-.22-2.5.61a4.77,4.77,0,0,0,0,5.29c2,2.57,1.76,5.82-.3,7.58-1.43,1.22-3.36-.61-3.21-2.24-.91,1.27-.71,4.63.56,5.39-1.78,1.68-5.41.61-4.88-1.93.41-1.93.15-3.61-1.53-4.22-2.06-.75-1.84-2.24-.71-3.31.92-.86,1.09-2.07.15-2.49s-1.32-1.14-.61-2.19,1.89-2.95,1.53-3.36-1.93.36-2.95,1c.81-1.93.55-4.09-.92-4.88a11.65,11.65,0,0,1-3-2.09c1.17,1.78-.23,5.11-1.52,5.29-1.48.21-1.84,1.83-1.07,4,1.07,3.07-.48,5.49-3.41,5.24-3.18-.27-4.42,1.52-4.32,4.94,0,1.88-.36,4.42-2.29,4.17-2.47-.33-4.56,1.44-2.75,4.32,2.36,3.77,1.32,7.44-2.09,7.38-4.46-.09-6.75,2.91-5.39,6.36a4.93,4.93,0,0,1-2.14,6.51c-2.39,1.42-3,5.59-1.78,7.63.75,1.25,2.15,1.11,3.77.1,2.69-1.68,5.69-1.22,4.73,1.48C78.1,135.81,77.9,138.46,79.88,141.14Z" fill="#ef8200"/><path d="M130.46,77.58c-.55,0-.59,0-.46.38a3.43,3.43,0,0,1-1.12,4c-1.31,1.16-1,2.24-.44,2.92s1.38,1.78,1,2.72c-.19.46-.06.57.42.31A2.57,2.57,0,0,0,131,86.53a1.75,1.75,0,0,1,2.64-.61c2,1.47,3.71.78,3.94-.71.13-.88.42-1.55,1.42-1.35a2.36,2.36,0,0,0,2.58-1.7c.24-.6.19-.72-.51-.75a1.41,1.41,0,0,1-1.25-.68,2.72,2.72,0,0,0,1.83-1.49A1.53,1.53,0,0,0,141.6,78c-.2-.5-.47-1.25.1-1.49a3.73,3.73,0,0,0,1.83-2.1,2.29,2.29,0,0,0-.21-1.52c-.28-.55-.49-.61-.72.07-.37,1.08-1.47,1.87-2,1.58s-1.05-.34-1.32.11a1,1,0,0,1-1.53.4c-.68-.47-1.09-.27-1.46.38s-1.56,1.83-2.17,1.49-1.27-.39-1.59,0A2.71,2.71,0,0,1,130.46,77.58Z" fill="#e7380e"/><path d="M93.1,112.42c-2.1-.87-2.17-4.07.32-5.61,1.66-1,.63-2.29-.48-2.61,1.43-1.26.71-2.54-.92-2.4-1.32.11-2.06-.9-2.26-2.51-.08-.68-.27-.65-.59-.14a5.68,5.68,0,0,1-2.44,2.31,7.15,7.15,0,0,0-3.57,2.6c1.23,3.16,0,5.86-2.88,5.81-4.46-.09-6.75,2.91-5.39,6.36a4.93,4.93,0,0,1-2.14,6.51c-2.39,1.42-3,5.59-1.78,7.63.75,1.25,2.15,1.11,3.77.1,2.69-1.68,5.69-1.22,4.73,1.48-1.37,3.86-1.57,6.51.41,9.19,1.13,1.53,2.64,1,3.34-.52a7.74,7.74,0,0,1,7.51-4.84c7.9.76,10.27-1.89,11.9-7.6h0c.54-3-.86-2.81-1.56-1.83s-2.11,1-1.83-.54c.34-1.9-.35-2-1.49-1.09a16.33,16.33,0,0,0-1.7,1.49c-.37.38-.9.58-.85-.67a12.87,12.87,0,0,1,1.8-5.77c.58-1,1.22-2.29,1-3.16A8.86,8.86,0,0,0,93.1,112.42Z" fill="#e7380e"/><path d="M139.09,106.61c-.56-.3-.9-.68-.46-1.37a9.81,9.81,0,0,0,1.58-3.72c0-1.06-.5-1-1.12.06-.91,1.52-2.74,2.13-3.36,1.27-.86-1.22-3-.56-3.4.81a1.63,1.63,0,0,1-3,.18l0,0a7,7,0,0,1-2.3,1.06c-1.72.48-3.28,2.66-3.94,5.08a4.1,4.1,0,0,1-3.63,2.78c-1.69,0-2.2-1.79-1.22-3.42.6-1,0-1.52-.81-1.09a22.49,22.49,0,0,0-4.71,4.07c-2.09,2.17-3.24-.43-2.89-1.93.27-1.15-.61-1.49-1.18-.81a1.18,1.18,0,0,1-2.11-.48,23.51,23.51,0,0,1-.54-4c0-.88-.47-.88-.78-.13a8.47,8.47,0,0,1-4.58,4.37c-2.24.71-3.63,3.4-2.83,7.39a11.29,11.29,0,0,1,1.37,3.67c.1.74.5.68,1,.34a7.9,7.9,0,0,1,3.23-1.53c.68-.12,1,.12,1.06.53a9.33,9.33,0,0,1-.38,4.5v0c2.13-3.59,6.18-4.8,10.36-3.45,2.11.67,4.76,1.25,6.31-.68,1.36-1.7,3.8-2.44,5.36-1.56,3.17,1.79,7.71-1.52,8.34-3.33.48-1.35,1.09-2,1.09-3.05,0-1.37.94-3,3-4.2C139.19,107.63,139.65,106.92,139.09,106.61Z" fill="#e7380e"/><path d="M105.07,104.23c.46,0,.45-.11.31-.46a.85.85,0,0,1,.75-1.28c2.82-.26,4-2.07,2.13-3.61-1.21-.3-2.79-1.13-2.43-3.15s-.16-3.36-1.59-3.92c.92,1,.87,3.36-.66,3.92-1.37.5-2.3,1.71-2,2.59a2.71,2.71,0,0,1-.66,3c-.87,1-.37,2.34.86,3.05a2.23,2.23,0,0,0,2,0A2.85,2.85,0,0,1,105.07,104.23Z" fill="#e7380e"/><path d="M17.71,27.05c-3.05,6.71-2.87,14-.71,17.19,3.25,4.89,3.54,14.53,2.34,19.64-.82,3.46.3,6.82,3.05,8.24s4,3.56,3.26,8.14,1,9.89,4.68,10.28c3.3.34,7.7,6.42,3,6.71,5.08,1.93,8.7,5.67,7.83,9.16-.51,2-.3,3.46,1.32,4.17s1.53,2.85.82,4.48,1.22,4,4,3.25,4.27,1.94,5.29,3.87a14.54,14.54,0,0,0,6.2,5.9c-.3-1.63-.3-3-.51-4.68a62.3,62.3,0,0,0,5,3.9c1.42,1,1.83,3.53,1.73,5.36-.13,2.25,1.44,5.4,4.07,3.25.92-.74,2.54-1,3-.06a1.28,1.28,0,0,0,1.83.74c.68-.27,1.49.27,1.63,1.43a2.74,2.74,0,0,0,2.51,2.1l4.26-30.66a2.73,2.73,0,0,0-2.09-2.59c-1.27-.31-1.83-1.38-1.73-3.16a3.35,3.35,0,0,0-4.53-3c-1.26.58-2.29-.51-2.8-2.19A3.5,3.5,0,0,1,67.57,100c1.78-1,1.83-4.53.2-5.7-.51,1.93-4.58,1.68-4.12-1.07a1.76,1.76,0,0,0-2-2c-3.46.17-1.36-5.62,2.09-6,2.28-.23,3.92-4,1.17-8.91-.84-1.49-2.14-1.52-3.51-.91a2.49,2.49,0,0,1-3.26-2.09c-.32-2.5-1.88-3.15-3.76-2.9S52,69.63,52.2,67.69A6.64,6.64,0,0,0,48,60.83C44.4,59.22,42.53,56.41,44.5,52a4.5,4.5,0,0,0-2.27,1.73c-2.11,2.78-3.55-3.54-.54-6,4.22-3.51,1.76-10.11-3.39-12.82.54,4.31-4.07,5.61-4.07,3.59,0-.95-.34-1.83-2-1.56s-1.22-2.44.2-3.46c3.91-2.79,4.94-8.27,3.87-9.56a13.09,13.09,0,0,1-3.26-6.85,10.57,10.57,0,0,1-8.88,7.19A11.48,11.48,0,0,0,17.71,27.05Z" fill="#e7380e"/><path d="M47.32,60.56V60.5c-3.14-1.65-4.66-4.37-2.82-8.46a4.5,4.5,0,0,0-2.27,1.73c-.66.88-1.26.85-1.68.32l0,0c-.58-.26-1.23-.45-1.79-.77-.85-.49-.86-.3-.8.38a6.72,6.72,0,0,0,.48,2.34c-2.33-2.18-3.21-2.11-5-3.2a23,23,0,0,1-5.31-4.53c-.74-.94-.87-.78-.88.27,0,3.16.64,6.67,1.82,8.41a15.65,15.65,0,0,1,2,6.58c.12,1.19,0,1.48-1.21.9a4.94,4.94,0,0,1-2.21-2c-.39-.66-.54-.56-.43.17A9.16,9.16,0,0,0,28.92,67c1.23,1.31,1.08,2.65.14,2.26-1.24-.51-1.85.57-.87,1.66,1.9,2.1-.16,4.8-1.49,3-.75-1-1.9-1-1.83.34h0c.93,1.37,1.22,3.26.79,6.07-.72,4.58,1,9.89,4.68,10.28A5.33,5.33,0,0,1,33,91.78a1.6,1.6,0,0,0,.89-2.3c-.33-.66.14-1,.85-.57a27.81,27.81,0,0,1,2.51,2c1,.82,1.53.37,1.26-.65A17.44,17.44,0,0,0,37.14,87c-.61-1.22.27-1.43.88-1s2.3,2.07,3.83,3.48,1.62,1.41.4-.5A40.45,40.45,0,0,1,39,83a2.37,2.37,0,0,0-2.44-1.69,2.06,2.06,0,0,1-2-1.36c-.69-1.44.44-2.24,1.52-1s3,2.13,3.73,1.39-.54-3.19-2.13-4.21c-.66-.42-.61-1-.07-1.25s.07-.59-.61-1a6.81,6.81,0,0,1-2-1.66c-.69-.87-.41-1.26.47-.72,1.52.94,5.86,2.71,8.3,2,.76-.22.72-.56.39-1a24.23,24.23,0,0,1-2.93-6.28c-.5-1.68.34-1.76,1.43-1,.79.54,1.35,0,1.49-.68s.61-1.16,1.7-.88S47.45,62.05,47.32,60.56Z" fill="#ef8200"/><path d="M71,98.52A3.5,3.5,0,0,1,67.57,100c1.78-1,1.83-4.53.2-5.7-.51,1.93-4.58,1.68-4.12-1.07a1.76,1.76,0,0,0-2-2,1.48,1.48,0,0,1-1.75-1.36c-1,.45-.93,2.07-.45,3.17.64,1.49-.26,3.18-1.56,1.94a5,5,0,0,0-3.56-1.43c-1.26.1-1.15.65-.27,1.49a14.64,14.64,0,0,1,2.85,3.7c.64,1.55.44,2.74-1.5,2.88-1.39.1-2.47,2.07-1.93,4.24s-1.22,2.75-2.24,1.19-5-8.38-7.7-9c-1.9-.41-2.64.39-1.93,1.86,1,2,2.1,4.07,3,5.53,1.37,2.27-.5,4.82-3.73,3a2.39,2.39,0,0,0,1.55,2.12c1.63.71,1.53,2.85.82,4.48s1.22,4,4,3.25,4.27,1.94,5.29,3.87a14.54,14.54,0,0,0,6.2,5.9c-.3-1.63-.3-3-.51-4.68a62.3,62.3,0,0,0,5,3.9,3.44,3.44,0,0,1,1,1.34l.1-.12a8.78,8.78,0,0,0,.11-3.83c-.24-1-2.11-2.41-3.8-3.19-1.4-.64-.75-1.56.13-1.42,1.51.23.68-2.51-1.69-3.06-1.13-.25-2.1-1.94-2.57-3.3-.24-.68-.08-.71.71-.63a7.46,7.46,0,0,0,2-.1c1.35-.23,5.19-3.19,5.56-4.58a8.18,8.18,0,0,0-1.64-6.47c-.25-.36-.19-.58.44-.36A21.44,21.44,0,0,1,68.21,104c2.8,1.8,6.06.39,6-3.33v-.07a2.92,2.92,0,0,0-.38.14C72.56,101.29,71.53,100.2,71,98.52Z" fill="#ef8200"/><path d="M133.64,168.39c-3,.17-5.71-2-6-4.18a4.34,4.34,0,0,0-4.31-4c-1.48-.08-1.86-1.73-1.31-2.83a2.64,2.64,0,0,0-.89-3.21c0,2.53-2.62,1.4-2.45-1.18s-1.71-2.85-2.49-.68c-.73,2-3,2.2-4.48.8,6.86-7.79,15.1-7.85,19.55-1.85C133.12,155.31,133.68,163.36,133.64,168.39Z" fill="#e7380e"/><path d="M152.47,136c7.25-5.3,11.51-2.08,8.59,2.85-1.18,2-2.08,5.94.92,7.57,3.36-3.76,9-9.87,10.28-11.7a6.65,6.65,0,0,1,4.34-3.12c30.66-8.37,55.21-18.13,78.68-47.48a5.58,5.58,0,0,1,3.73-2c2.67-.43,5.4-.91,8.17-1.44v-.05c2.78-3.28,2.13-6.16-.15-6.52-2.82-.44-3.56-2.42.4-4.83,3.19-1.94,2.2-5.28-.35-7.43-2.24-1.88-2.45-3.71-1.94-5.44-3.15,3.66-5.69-2-2.79-8.39a6.68,6.68,0,0,0-5.55,7.37,6.92,6.92,0,0,0-5.7.92c2.77-.25,4.34,1.27,5.14,4.48a3,3,0,0,1-2.8,3.76,4.62,4.62,0,0,0-3.51,6.1c.51,1.38.21,2-1.42,2.65s-1.94,2.14-.82,2.8a10.91,10.91,0,0,1,3,2.54c.55.82.45,2.8-.46,5.55-1.38,4.14-5.89,4.66-7.18,2.08-.84-1.69-6.65-1.18-7.07,4.33-.15,2-.76,5.08-3.2,5.39s-3.51-3-2.85-5.14a7,7,0,0,0-2.49,4c-3.16-3.36-.61-9.11,3.2-9.21A4.78,4.78,0,0,0,234,84c-4.3.16-3.38-1.76-1.37-2.64,1.62-.71,2.13-1.73,1.06-2.44-1.79-1.2-1.12-4.33,2-4.33,5.68,0,8.29-7.22,6.05-9.92-1.43-1.72-1.69-3.06-.05-5.54,2.62-4-.38-7.93-3.61-9.06-2.34-.81-3.31-3.15-2.95-5.64a4.53,4.53,0,0,0-1.48,2.44,6.84,6.84,0,0,1-.35-4.63c-4.44,1.85-3.42,6.36-.41,9.92,1.12,1.32-.51,3.51-1.78,4.58.46-2.8-2.24-5.09-4-4.94,3.56,2.44,1.28,5.08.51,3.87a1.31,1.31,0,0,0-2.44.86c1.19,4.36-4.77,7.82-5.75,4.58-.51-1.68-3-3.15-4.22-1.78s-3.46,1.73-4.38-1.22-5-3.31-7.58-2.39c-4,1.41-4.69,6-4,9.21.51,2.39-3.46,4.53-5.24,5.39a3.51,3.51,0,0,0-1.78,3.92c.31,1,1.22,1.62,3.51,2.9s3.06,3.41,2.19,5a12.07,12.07,0,0,0-1.58,5.14c0,2.57,3,5.72,6,6.51,2.49.66,3,2.24,2.85,3.66a4.55,4.55,0,0,1-4.18,4.07c-2.42.3-3.49,2.69-3.41,5.18-3-.17-5.32-3.49-3.61-7.28a4.27,4.27,0,0,0-2.71,2.65c-.73,2.48-3.41.62-2-2,1.77-3.33.39-9-3-12.51.4,1,.34,2.71-.58,2.85s-1.93-2.28-2.48-4.24c-1.23-4.47-8.64-3.43-11.56,1.63,2.17-.34,7.16-.31,8.07,1.42a1.09,1.09,0,0,1-1.08,1.73,2.31,2.31,0,0,0-1.75.69,1.58,1.58,0,0,1,1.2,1.34c-.05.51-.54,1.06-2.12,1.51,2.95.16,4,4.63,2.75,6.77-2,3.5-6.5,1.78-9.21-1.27-3.56-4-7.88-3.2-10.12-.36-2.45,3.11-1.48,9.28,3.15,12.26,2.29,1.48,2.45,3.61,1.33,4.68a18.27,18.27,0,0,0-3.51,4.78c-.85,1.87.91,3.06,2.39,2.65a2.53,2.53,0,0,1,2.29.56,2.24,2.24,0,0,0,2,.56c.87-.15,1.58,1.42,1.48,2.44a1.75,1.75,0,0,0,1.06,1.78c-1.49,2-5.63,1.8-7.27-1.47a3.5,3.5,0,0,0-2.9-2c-.86,0-1.78.31-3.26,2.19s-3.71,1.93-5.18-.71c-.92,2.79.69,4.54,3.9,4.5A17.66,17.66,0,0,1,152.47,136Z" fill="#ef8200"/><path d="M185.89,126.55c-.95.14-1.15-.74-.95-1.62a1.89,1.89,0,0,0-.88-2.17c-1.13-.76-.42-3.19,1.39-4,.6-.28.87-.44.24-.82a1.93,1.93,0,0,0-2.31.37c-1.15,1-2.1.07-2-1.36.25-2.62-1.65-5.48-3.33-5.84-.79-.17-1,.25-.41,1a6.93,6.93,0,0,1,.62,6.42c-.76,1.56-3.26,2.57-4.1,1.53-.25-.32-.37-.29-.74,0a1.14,1.14,0,0,1-2-.94c0-1.67-.83-2-1.83-.81-.84,1-2.19.87-1.63-2.51a5.76,5.76,0,0,0-2.24-5.74c-.64-.41-.59-.19-.34.37a3.18,3.18,0,0,1-1.1,3.56,2.36,2.36,0,0,1-.5,2.57,18.27,18.27,0,0,0-3.51,4.78c-.85,1.87.91,3.06,2.39,2.65a2.53,2.53,0,0,1,2.29.56,2.24,2.24,0,0,0,2,.56c.87-.15,1.58,1.42,1.48,2.44a1.75,1.75,0,0,0,1.06,1.78c-1.49,2-5.63,1.8-7.27-1.47a3.5,3.5,0,0,0-2.9-2c-.86,0-1.78.31-3.26,2.19s-3.71,1.93-5.18-.71c-.92,2.79.69,4.54,3.9,4.5a17.66,17.66,0,0,1-2.43,4.2c7.25-5.3,11.51-2.08,8.59,2.85-1.18,2-2.08,5.94.92,7.57,3.36-3.76,9-9.87,10.28-11.7a6.65,6.65,0,0,1,4.34-3.12c3.7-1,7.31-2,10.84-3.12l.08-.13C187.39,127.3,186.84,126.42,185.89,126.55Z" fill="#e7380e"/><path d="M229.71,106c.27-1-.07-2.17-1.29-1.69s-2.1-.21-1.83-1.36a9,9,0,0,1,2-3.92c.71-.81.61-1-.42-.47a6.71,6.71,0,0,0-3.14,3.3,2.75,2.75,0,0,0-.67-.61c-.79-.5-1-.51-.83.53.21,1.67-1.17,3.25-2.43,2.8a1.31,1.31,0,0,0-2,1c-.53,1.69-3.6,3.16-4.2-1.63-.31-2.43-2.57-3.06-3.67-1.76-.23.26-.35.47-.1.79,1,1.27-.64,3-1.66,2.73a1.4,1.4,0,0,0-1.83,1.36c.33,1.86-1.8,2.17-3.38.67-.71-.68-1-.77-1.11.18-.37,2.49.69,4.23,3.88,5.32.86.3.95,1.43-.88,3.12a4.74,4.74,0,0,1-3.13,1c-1,0-1.22,1.36-1.22,2.38a1.65,1.65,0,0,0,1.5,1.69,2.6,2.6,0,0,1,2,.54l.25.1a121,121,0,0,0,25-13.94A1.66,1.66,0,0,1,229.71,106Z" fill="#e7380e"/><path d="M219.52,61.13c-.51-1.68-3-3.15-4.22-1.78s-3.46,1.73-4.38-1.22-5-3.31-7.58-2.39c-4,1.41-4.69,6-4,9.21.49,2.27-3.07,4.31-4.95,5.25-.22,1.74,1.17,3.44,2.38,3,2.88-1.12,8.61-2.37,9.7.88-3.46-.06-4.75,2.45-5.23,4.21s-.06,2.85,1.56,3.39c1.43.48,2.78,1.22,2.78,2a2.23,2.23,0,0,0,.89,1.76c.54.48.13,1.43-1,1.63s-1.43,1.56-.2,2.24,1.83,1.69.88,2.3-.27,1.43,0,1.9a10.84,10.84,0,0,1,4.68,0c1.08.41,3.73,2.17,4.88,2.78a2.87,2.87,0,0,0,3.26-.13c3.89-2.14,2-4.06.88-4A2.9,2.9,0,0,1,217,89.93a5.67,5.67,0,0,0,4.59-.5c1.21-.88.95-1-.4-1.16a3.78,3.78,0,0,1-2.63-1.46c2.27-.5,3.82-1.73,4.31-3.39.23-.76.18-1-.8-.5a3.69,3.69,0,0,1-4.39-.86c-1.7-1.7-2.92-3.19-4.55-3.46-3.35-.56-1.08-5.9,3.6-3.53,3.86,2,7.59,1,5.49-3,3.93-1,4.82-4.21,2.78-6.92,2-1.63,2.24-5.22.27-6.38h0C224.47,61.93,220.33,63.79,219.52,61.13Z" fill="#e7380e"/><path d="M303.88,71.2l0,0a3.15,3.15,0,0,0,.46-3.76c-2.24,2.7-3.67-1.07-1.07-2,4-1.49,1.73-6.14-1.07-6a2,2,0,0,1-1.83-3.1,10.92,10.92,0,0,0,2-3.61,6.53,6.53,0,0,1,1.68-2.45,5.34,5.34,0,0,0,1.32-6.56,4.64,4.64,0,0,1,.11-5c-2.19,1-2.55-.87-1.84-2.6.91-2.2-1.73-5.29-4.83-5.34,1.93.71,1.78,2.95,1.31,3.8a7,7,0,0,0-1,3.53c-.07,1.62-.61,3.52-2.58,3.59s-2.91,1.43-1.9,2.71a5,5,0,0,1,.61,5.29c-.81,1.9-3.73,2.65-5.56,2.51-3.73-.27-5.15,2.89-1.42,6.38,2.1,2,.54,3.6-2,3.93-2.79.37-4.17,3.64-1.9,7,1.29,1.9.75,6.85-4.41,8.41h0C287.94,76,296,73.72,303.88,71.2Z" fill="#e7380e"/><path d="M217.84,222a75.18,75.18,0,0,0-8.14-18.16c-4.45-7.39-14-18.66-25.69-30.66a15.19,15.19,0,0,0-3-.28c-2.66,0-4,1.33-4.31,3.67a3.73,3.73,0,0,1,0-3.48,4.16,4.16,0,0,0-2.09,1.14c-.06-1.34.44-2.67,2.47-3.62-2.09-2.09-5.77-2.72-9.76-2.22,4-3.93,10.21-6.4,15-5.38s8-.89,9.45-3.62c1.19-2.22,3.1-2.66,4.18-.12a12.72,12.72,0,0,0-1.14-7.29,6.16,6.16,0,0,1,3.42,3.8,6.41,6.41,0,0,0,1.08-3.93,7.76,7.76,0,0,1,1.21,2.53,5.1,5.1,0,0,0,2.4-3.8,6.9,6.9,0,0,1,5.58-5.07c3.43-.76,4.82-3.87,5-6.4.25-3.31,3.17-5.45,7-3,2.35,1.52,6-.44,6.09-2.6s1.33-3.61,3-3.8c-2.19,5.88,3.19,9.17,5.2,5.26a2.61,2.61,0,0,1,1.29-4.95c1.76-.07,3-1.08,4.4-2.24a15.37,15.37,0,0,1-.61,3.26c2.72-.88,5.5-3.12,6-4.89a5.91,5.91,0,0,1,3.87-4.13c3.39-1.1,4.68-4.48,4.68-6.92a5.14,5.14,0,0,0,4.88,2.17c-1-.68-2-2.65-2.57-4.48.74.54,1.9.14,2.71-.34-2.31-2.17,1.49-5.08,3.12-4.68,1.36.34,1.49,3.6.54,5.63,2.31-.74,4-3,4.82-5.36a11.52,11.52,0,0,1,.81,3,8.73,8.73,0,0,0,4.34-5.16c1.5-4.27,6.53-6.25,10-4.61a8.86,8.86,0,0,0,12.28-5.56c.82-3,3.05-4.14,5.7-4.14-.95,1.15.07,4.14,1.08,4.89a4.05,4.05,0,0,1,.89-2.79c0,1,.67,2.38,1.42,2.58,0-2.3,4-3.59,6.24-2.85C316.52,95.39,326,92,329.08,82.06c.76-2.42,2.72-3.39,4.89-3.94a7.31,7.31,0,0,0,5-4c.95-2.1,2.78-3.93,4.34-4.2s2.91-2,3.66-4.28A10,10,0,0,1,345.5,72a11.11,11.11,0,0,0,7-7.67,3.63,3.63,0,0,1,1.43,2.45c1.36-1.43,1.63-3,.74-5.43,1.09.88,3.53,1.08,5.16.54-3.19-2.71-1.7-5.43.2-6.37,5.73-2.87,11.08-8.4,14.31-14.38,2.8-5.17,8.25-10.37,12.76-12.08a46.68,46.68,0,0,0,7.86-3.73,25.88,25.88,0,0,0,6.38-4.81,41.86,41.86,0,0,1,4.34-4.89c-2.3.48-2.1-1.49.21-3.25,1.22-.94,2.17-2.45,1.89-3.74a12.2,12.2,0,0,1,2.42-.33c4.24-.39,8.8-4.84,7-7.64,5.41,1.88,3.35,10-.46,12.38-1.63,1-.28,3.4,3.5.43-2.86,3.07-4.64,4.7-5.2,6.32s-.81,2.7,0,3.67.86,1.9.36,3.2c-.76,2-2.19,4.09-3.51,4.53a5.38,5.38,0,0,0-3.36,5.34c.08,3.9-1.31,9-5.95,11.8s-7.38,9-2.54,7.94c-1.23,1.37-4,3.25-6,3.25a7.48,7.48,0,0,0,3.51.56c-2,.87-4.12,2.6-4.37,4.38a5.38,5.38,0,0,1-4.78,3.82c-2.62-.14-3.57,1.31-2.85,4,.91,3.36-.4,7.32-4.58,8.45-3.21.86-4.48,3.81-1.68,4.88-3.87.05-6.87.92-7.94,2.65-.8,1.31-1.64,3.32.21,4.17,3.05,1.41,3.26,2.81.66,4.37-1.78,1.07-4.17,2.95-3.92,4.07a3.49,3.49,0,0,0,4.38,2,3.66,3.66,0,0,1-4.28,3.05c-4.37-.8-7.8,1.17-9,3.76-1.88,4.07-4.27,9.82-7.94,8.25A3.31,3.31,0,0,0,355,121c-2.34,1.47-4.2,2.36-6,.61s-4.17-1.93-5.59-.31-3.06,1.68-3.82.31-3.66-1-4.37,1.47c-.82,2.75-1.94,3.81-4.38,3.72-4-.15-5.55,2.85-3.92,3.66a1.22,1.22,0,0,1,.26,2.14c-1.48.91-.26,2.8,2.08,1.27,0,2.34-3.3,4.88-5.08,3.15s-6.36-2.95-8.5-.1c3.61.41,4.15,3.39,2.29,4.27-1.17.56-1.07,1.12-1.07,1.94a1.51,1.51,0,0,1-2.64,1c-2.92-3.06-6.45-1.31-5.6,3.25.31,1.63.91,4,.46,5a7.12,7.12,0,0,1-4.48,3.51c-2.16.38-4.87-1.38-6.41-2.65s-4.16-.85-5.95,1.68c-2.09,2.95-4.43,6.31-7.68,7.43a3.93,3.93,0,0,1-4.68-1.78c-1.12-2.34-4.63-4.84-7.38-4s-4.27,2.9-4.12,4.83,2.95,3.31,5.24,2a5.84,5.84,0,0,1-3.36,2.13c-1.32.36-1.34,2.69,1.38,3.26,3.4.71,5.34,2.95,2.18,5s-4.14,4.11-3.05,4.94c1.48,1.12,2,2.41.51,3.36s-5,4-4.43,4.73c1.14,1.54,4.48-.59,5.14-3,1.43,3.15-3.41,8.16-6.25,8.54a4,4,0,0,0-3.16,3.1c0,1.23,1.32,1.88,2.85,1,2.19-1.22,4.23-1.39,4,1.22-.55,5.51,5.87,3.66,8.29.77-.2,2.44-2.19,4.32-3.92,4.32s-3,2-1.42,3.05,2.3,2.09,1.32,3.11c-1.37,1.42-3.47,2.43-4.37,1.73-1.17-.92-4.12-.77-4.12.45s-.46,1.94-1.58,1.78a1.16,1.16,0,0,0-1,2c2.15,2.4,2.24,4.52-.41,5.85a4.88,4.88,0,0,0-2.69,4.48c0,2.34.4,5-.26,6.25-1.31,2.54-4.45,4.76-7.22,4.68a8.53,8.53,0,0,1-5.65-2.34c-2.32-2.32-5.22-3-8.09-1.17-4.38,2.8-9.23,2.35-9.46-3.76-.39-10.46-6.08-11.12-7.93-9.06A8,8,0,0,1,217.84,222Z" fill="#e7380e"/><path d="M233,206.46c1.37-3.33,2.74-3.91,5.22-2.92,2,.81,7.91-1.17,9-1.7s1.09-1.55-.34-1.49-3.93.21-5,.41-1.15-.61-.95-1.36,0-1.62-1.49-1.29a6.33,6.33,0,0,1-3.6-.13c-1.08-.34-1.12-1.5.14-1.77,2.24-.47,3-1.77,2.44-2.44s-.54-1.76.34-1.56a1.72,1.72,0,0,0,2-1.08c.22-.67,1.46-1.2,2.6-1.07.63.08.47,0,.17-.4a2.2,2.2,0,0,1-.54-1.86,1.33,1.33,0,0,0-2-1.22,1.41,1.41,0,0,1-2-1.69,6.45,6.45,0,0,1,1.87-2.72c.71-.6.89-.74,0-1-1.58-.47-3,.14-3.33,1-.71,1.9-2.46,3.54-3.84,3.1-.59-.19-.81-.15-1.13.2a5.23,5.23,0,0,0-1.34,3.48,3.43,3.43,0,0,1-3.86,3.39c-1.09-.07-1.9-.95-1.22-1.49a2.18,2.18,0,0,0,.81-2.24,6.38,6.38,0,0,1,.52-3.93c.33-.61.15-.68-.46-.45a11.62,11.62,0,0,1-2.57.65c-1,.14-1.35-1.08-.61-2.17s1.49-3.6.41-4.68a3,3,0,0,0-4.07-.41c-1.7,1-2.38,1.7-2.58,2.85s-.27,1.9-1,2.24a.82.82,0,0,0-.13,1.49c.54.34.41,1.43-.34,2.24a4.26,4.26,0,0,1-3.33,1.42,7.75,7.75,0,0,0-4.95,1.9c-1,.89-.65,2.57,1.09,2.17a26.89,26.89,0,0,1,5-.81c1.56,0,2,2.07-1.51,3.56-.8.34-.77.53-.13.87,1.59.85,4.28-.27,5.1-1.38.74.34,1.76,1.49,1.08,2.24a13.6,13.6,0,0,1-3,2.1c-.95.55-.48,2,.88,1.77,2.47-.5,2.73,1,1.56,2a5.56,5.56,0,0,0-1.11,1.33c-.83,1.39-.72,1.5.83.51,1.05-.68,2.16-1.23,2.65-1.09,1.43.27,2.78.88,2,2.78-1.19,3,.52,2.78,1.42,2.1a2.29,2.29,0,0,1,3.46.54C228.62,210.61,231.66,209.76,233,206.46Z" fill="#ef8200"/><path d="M241.7,159.26c-.78.34-1-.5-.81-1.17s-.41-1-1.07-.81a6.73,6.73,0,0,0-2.65,2.8,4.28,4.28,0,0,1-2.95,2.39c-1.42.36-1.68-1.22-.91-2.29a18.37,18.37,0,0,0,2.08-4.43c.41-1.32,1.27-4,1.94-5.74.32-.88-.26-1.12-.61-.82s-.72-.1-.62-1.22.56-5.54.72-6.87-.87-1.22-1.48-.35a30.72,30.72,0,0,0-2.49,7.17c-.66,2.85-3.66,6-5.9,6.26-1.62.18-1.78-2.29-1.73-3.87.08-2.48-1-3-2.44-.1-.61,1.27-1.48,2.24-2.19,1.78a2.88,2.88,0,0,1-.31-3.21c.67-1.42-.3-2.13-1.06-1.67s-1.43.25-1.53-.87c-.29-3.15,1.83-6.31,4-9.51l-.09-.12a3.24,3.24,0,0,1-1.08-.44c-3.8-2.47-6.72-.33-7,3-.19,2.53-1.58,5.64-5,6.4a6.9,6.9,0,0,0-5.58,5.07,5.1,5.1,0,0,1-2.4,3.8h0c.58,1.38,1.14,3.77-.39,5s-3.26,3.51-3.31,4.53.56,3,1.22,3.05,3.77-1.78,4.23-4c.74-3.54,3.5-6.1,5.29-6.05,2.18.05,2.68,1.86.86,3.1-1.27.86-2.14,2.64-1.07,3s1.17,1.78-.2,2.7a25.4,25.4,0,0,0-4.32,3.51c-.87,1-.4,2.23,1.27,2.08a8.12,8.12,0,0,0,4.93-2.24c1.47-1.59,3,.69,1.12,2.19-.51.41-.81,1.12-.41,1.38s.56.81,0,1.42a2.45,2.45,0,0,0-.76,2,12.55,12.55,0,0,1,2.77-1.12c1.65,3.3,5.13,3.19,6,.13.45-1.52,2.66-2.29,4.69-1.27,4.38,2.19,7,.71,8.56-1.65,1.27-1.9,2.66-4.37,4.25-5.26,1.14,1.4,2.22,2.6,3.23,1.9a4.44,4.44,0,0,0,2.09-2.6,9.82,9.82,0,0,1,2.27-4.43C243.48,159.62,242.87,158.76,241.7,159.26Z" fill="#ef8200"/><path d="M262.41,203.2c1.29-.51,1.28-.63-.09-.74-2.69-.2-4-1.78-2.68-3.57.69-.92.51-1.78-.42-1.95-1.52,1.77-4.29,2.11-5.44,1.19-.85-.68-2,.08-1.53,1s.17,2-1.7,1.87a2.18,2.18,0,0,0-2.21,3.4c.76,1.35.59,3.31-2.13,3.9s-3.31,2.21-3.91,4.68c-.83,3.45-8.35,5.89-12.83,1.61-1.87-1.78-4.81-3.8-7.14-1.61-2.88,2.72-7-.43-9.85-4.25v.07A70.7,70.7,0,0,1,217.84,222,8,8,0,0,0,221,219.8c1.41-1.57,5.08-1.55,6.89,3.23l.13,0c1.83-4.14,5.36-4.71,5.36-.68,0,2.44,1.76,2.64,2.84,1.42s2.65-.47,3.19.89,1.22,1.89,2.1,1.69a5.87,5.87,0,0,0,2.92-1.76c.27-.61-.27-2.24-.54-3.26-.49-1.83,2.37-3.59,4.81-3.25a9,9,0,0,0,7.19-2c2-1.7.54-3.45-1.56-3.32-4.4.27-3-3.29,0-3.4a5.21,5.21,0,0,0,4-2c.45-.53.5-.68-.38-.68a4.55,4.55,0,0,1-2.07-.55c-.67-.37-.64-.41.21-.58a5.41,5.41,0,0,0,1.93-.81c.71-.47.69-.55,0-1.16l-.62-.55a2.76,2.76,0,0,1,2.8.09A2.51,2.51,0,0,0,262.41,203.2Z" fill="#ef8200"/><path d="M267.85,177.63c-.71,2.09-1.88,4.22-3.05,4.43-1.56.27-3.36-3.51-2.34-6.41.82-2.36-.73-3-2.24-2.65-1.07.25-1.32-.15-1.53-1.07a5.76,5.76,0,0,1,.61-3.61c1-1.48.16-3.92-1-4-2.27-.1-4.24,2.62-3.36,5.34.51,1.58,0,2.29-.76,3.62a12.17,12.17,0,0,1-.84,1.21c1.44,1.36,2,4.15-.28,5.25-3.08,1.48-2.42,6.25.51,4.25,1.87-1.27,3.38-.6,3.06,1.7-.5,3.48,3.18,5.26,4.83,2.63.44-.69.6-.95.59.11a7.26,7.26,0,0,1-4.12,6c-.45.19-.52.4-.15.65a3.12,3.12,0,0,0,1.55.47c.59,0,.61.15.45.49a4.35,4.35,0,0,1-.6.91c1.87-.33,2.93-.79,3.64-2.17h0a4.24,4.24,0,0,1,3-2.44c2.84-.38,7.68-5.39,6.25-8.54-.66,2.41-4,4.54-5.14,3-.56-.77,2.9-3.77,4.43-4.73s1-2.24-.51-3.36a1.27,1.27,0,0,1-.27-.3h-.08C269,176.57,268.24,176.49,267.85,177.63Z" fill="#ef8200"/><path d="M253.35,174.5c-1.25-1-2.27-2.5-1.46-3.92a3.29,3.29,0,0,0-.34-3.4,5.36,5.36,0,0,1-.61-4.2c.7-1.81-.67-2.58-1.9-2-1.76.88-2.78.41-2.44-.34.43-.94-.88-1.15-2.81.48a12.29,12.29,0,0,1,.2,3.56c0,1.07,1,1.4,1.68.4s2.54-1.22,3,.21.71,4.73-.2,5.8a7,7,0,0,1-3.82,2.34c-1.12,0-1.22,1.83-.15,1.88s1.09,1.38.05,2c-1.68,1-1.59,2.26-.15,2.24C248,179.52,251.48,176.88,253.35,174.5Z" fill="#ef8200"/><path d="M280.52,131.78c1.22.2,5.69-1,7.66-2.31-1.08-1.63-2.85-2.44-4.54-1.49-5.33,3-6.4,1.12-4.41-1.36a7.66,7.66,0,0,1-3.46,1.9,2,2,0,0,1-2.38-1c-1.52-2.8-6.54,0-8.41,2.17-.74.88-1.42.61-1.42-.27,0-4.42,1.85-7,5.56-7a9.89,9.89,0,0,0,4.21-1c.95-.55,1.35-2-.61-1.77-3.07.43-3.61-1.91-.55-2.64a7.65,7.65,0,0,1,3.12-.27,5.92,5.92,0,0,0,3.26-1.09,1,1,0,0,0-.2-1.63c-.61-.4-.53-1.68.4-2.37,2.11-1.56,3.84-4,3.05-6.65-.47-1.63-2-1.42-3.52-.2.64-1.68.42-3.33-.3-3.67a7.83,7.83,0,0,0-4.86,4.75,8.73,8.73,0,0,1-4.34,5.16,11.52,11.52,0,0,0-.81-3c-.82,2.38-2.51,4.62-4.82,5.36,1-2,.82-5.29-.54-5.63-1.63-.41-5.43,2.51-3.12,4.68-.81.48-2,.88-2.71.34.54,1.83,1.56,3.8,2.57,4.48a5.14,5.14,0,0,1-4.88-2.17,7.22,7.22,0,0,1-4.31,6.77c-1.1,1.81-.68,3.38.17,3.94s1.09,1.29-.07,1.77-1.42,1.29-.81,2,.68,1.9-1.36,2.23-6.17,3.46-5.22,6.38c.62,1.91,5.17,2.64,7.6,1,1.83-1.22,3.21-2.09,4.61-2.31s3,.2,1.49,1.36-3.19,4.61-2,5.49a2.59,2.59,0,0,0,3.59-.2,8.61,8.61,0,0,1,3.26-2.38c1.15-.33,1.62.22,1.08,1a8.83,8.83,0,0,0-1.08,5.16c.88-3.19,4.4-4.61,6.3-4.61.68,0,1.36.67-.2,2s-.68,2.78.07,2.72,1.83.81.68,2.1-2,4.2-1.09,4.75,4.61-1.5,5.7-4.07c.54-1.29,1.9-2.24,2.85-1.16s3.12.75,3.8-1.56,2.25-2.11,3.66-1.69c3.19,1,5-2.13,1.36-3.73-1.09-.48-2-1.09-1.56-2s-.07-2.17-1.29-1.7a6.38,6.38,0,0,1-3.26.48c-1-.14-1.76-1.9-.27-2,2.24-.2,4-.53,5-1.42s.37-2.12-1.22-1.76C278.89,134.35,278.44,131.43,280.52,131.78Z" fill="#ef8200"/><path d="M317.89,121.94c-.47-1.49-1.8-1.82-3.39-.88a6.79,6.79,0,0,1-3.53,1.15c-.82,0-2-.31-1.15-1.69,1.69-2.65.38-4.14-1.15-3.73-3.33.88-5.5,4.85-3.33,5.9,1.83.88,1.72,2.56.41,2.64-1.09.07-1.83.27-1.29,1.09s.54,1.69-.34,1.63-1,.67-.47,1.15.74.81-.28,1.36c-1.32.7-.84,3.26,1.16,2.1,1.63-.95,2.08-.48,1.69.54-1,2.72,1.09,4.75,3.46,4.14s4.82-3.12,3.06-4.48c-.89-.68-.55-1.29.2-1.76a4.43,4.43,0,0,0,1.56-2.38c-1.36.82-4.27,1.29-4.27-.54s2.1-2.1,3.18-1.56,3.46-.27,2-1.76S315.86,121.74,317.89,121.94Z" fill="#ef8200"/><path d="M333.9,90.94c3.25-2.17,6.58-4.68,8.07-5.22s.34-1.42-1-1.15a11.43,11.43,0,0,0-2.92.88c-.81.41-1.22.13-1.08-.81a1.88,1.88,0,0,0-1-2.11c-.2,1.49-1.56,3.39-2.71,3.73s-1.56-.27-1.22-1a1.21,1.21,0,0,0-.75-1.63c-.54-.14-.66-1.22.27-1.9a8.73,8.73,0,0,1,4.48-1.63c3.93-.75,8.31-5.61,3.8-7.26h-.16a9,9,0,0,0-.72,1.29,7.31,7.31,0,0,1-5,4c-2.17.55-4.13,1.52-4.89,3.94C326,92,316.52,95.39,310.7,93.45a6.06,6.06,0,0,0-5.62,1.38c4.55-1.66,5.39.59,4.33,2.49s-.74,4.34,1.49,4.41,2.79.74,1.56,2.37a8.4,8.4,0,0,0-1.56,4.14c-.2,1.15,1.13,2.58,2.58.41a40.52,40.52,0,0,1,2.78-4.14c.82-.88,1.77-1.29,1.63.41s.81,2.3,2.44.27c1.34-1.68,2.32-2.51,2.38-.61.06,2.44,1.24,2.34,2,.27.87-2.5,4.07-4,6.65-4-3-.75-2.91-2.95-1.22-3.53s5.49-1.95,6.85-3c2-1.49.48-3.32-1.49-1.83S331.76,92.37,333.9,90.94Z" fill="#ef8200"/><path d="M365.51,105.73a12.82,12.82,0,0,0,.08-3.31c-.09-1-.24-1-1-.38a9.32,9.32,0,0,1-2,1.38c-.75.34-1.76.55-1.83-.67s-.54-1.43-1.63-1-2.22-.38-1.08-1.7a4.38,4.38,0,0,1,2.78-.88c2.1.13,4.15-2.72,4.41-4.34.2-1.29-.14-1.83-1.09-1a5,5,0,0,1-2.85,1.22c-.88.07-1.72-1.2-.47-1.69,3.48-1.39,6.21-3.52,6.13-8.1,0-1.52,0-1.75-.91-.17-1.26,2.27-3.38,3.53-6.58,2.09-5.67-2.54-9.39-.57-6.71,3.53,2.17,3.32-.4,6.41-4,4-2.44-1.63-5.79-3.13-6.85-.88s2,4.41,5.7,4.61a6.82,6.82,0,0,1-6.15,1.17c-.76-.27-.92-.14-.58.39,1.42,2.19,5.49,2.47,8.15,1.56a12.85,12.85,0,0,1-3.59,3.8c-1.15.81-.75,3.19,1.36,3.39s5.48,1.14,5.29,2.31-1.84,2.3-3.94.81c-.4,2.38,3.6,6.45,8.28,3.46h.07a44.53,44.53,0,0,0,2.93-5.71,7.37,7.37,0,0,1,6.09-3.89Z" fill="#ef8200"/><path d="M398.61,30.32c-2.05,0-5.7,2.66-8.13,4.64s-3.12-.61-1.82-2.05a2.53,2.53,0,0,0-1-4l-.57.22c-4.51,1.71-10,6.91-12.76,12.08a36.88,36.88,0,0,1-11,12.42l0,.07c.91,2,1.37,3.11,2.58,2.73,1.47-.46,2.89-1.21,3.27-.68.84,1.17-2.51,2.81-5.24,4.1s-2.89,4.64-2.13,4.71,1.6-.68,2.28-2.28a2.22,2.22,0,0,1,3.5-.83c1,.83-1.75,3-3.35,3.57-1,.39-1.74,3.49-.3,5.32s4.86.38,6.61-.46,2.28.91,1.44,2.58c3.12-1.36,4.48-4.71,3.88-5.77s-.16-1.67,1.29-1.9c2.78-.44,1.4-2.48-.31-2.58-3-.18-1.26-3.22,1.6-2.81,3.09.44,6.15-2,4.79-4.41-.87-1.55,1.06-3.5,4.48-3,2.61.35,4.78-.76,5.32-2a4.06,4.06,0,0,1,3-2.13c1.21-.3,1.51-1.21.91-1.52s-.61-.76.6-1.21.08-1.52-1.82-2.05c-2.73-.77-5.7.14-8.66,2.2-1.75,1.21-4.1.68-4.18-.61s1.22-2.28,3.12-2,4.71-1.45,5.47-3.12,3.95-4.25,6.68-5.39C395.72,34.12,396.1,32.07,398.61,30.32Z" fill="#ef8200"/><path d="M166.21,58a4.65,4.65,0,0,1,.15-2.95c.56-1.58,2.09-2.65,3.46-2a4.83,4.83,0,0,0,4.22.31c3.92-1.83,6.15-4.92,5.6-6.41a3.42,3.42,0,0,1,.45-3.21,1.28,1.28,0,0,0-.61-2.18c-1.88-.51-1.27-2.87.87-3.46,4.42-1.22,6.12-3.19,5.14-5.8-1.18-3.14,1-6.66,4.32-8.3.82-.4,1-1.11,0-1.27-2.75-.46-6.77,2.22-8.09,4.12-.46.66-1.63,1.34-2.24.56a2.44,2.44,0,0,0-2.34-1.07,2.61,2.61,0,0,1,1.33,2.55,11,11,0,0,1-2.24,3.86,3.82,3.82,0,0,1-2.85.87c-2.9-.51-5.3.62-5.24,3.31.08,3.76-2.19,6.25-4.12,6.25a1.89,1.89,0,0,1-1.32-2.95c.45-.71.25-1.57-.51-1.42a1.65,1.65,0,0,1-2.09-1c-.58-2.34-4.21-.35-4.07,2.7.05,1.07-.15,2.24-1.12,2.18s-1.52.46-1,1.33.91,2.08-.51,2.8-3.07.39-3.36-1.17c-.51-2.75-2.09-3.86-4-3.16-1.68.61-4.17,3-3.15,4.88a1.8,1.8,0,0,1-.36,2.4,2.27,2.27,0,0,1-2.14.86,3.72,3.72,0,0,0-3.46,1c-1.63,1.54-2.49,3-1.12,5.29,1.23,2,1.76,3.47,1.07,4.93s-1.45,2.1-2.09,2.21V64c2.85.1,6.51-2.34,5.5-5-1.08-2.81.38-4.45,2-3.16a1.47,1.47,0,0,0,2.44-1.32c-.12-2,2.95-4.27,6.41-3.26,1.9.56,4.38-1.63,6-3.56s3.86-1.83,5.9-1.12,2,3.16,0,3.26-2.85,1.93-2.65,3.56a2,2,0,0,1-2.64,2.24c-1.61-.69-5.9-.1-7.84.81-1.19.57-1.42,1.73,0,1.83,2,.15,4.58,1.22,4.58,2.65s-3.25,2.13-4.88,2.24c-1.82.11-2.1,2-.21,2.54,1.43.41,1.12,3.36-.4,4.68s-2.44,4.78-2.44,7.22h0a1.78,1.78,0,0,1,.82-1.32,4.28,4.28,0,0,1,3.92-.86,6.32,6.32,0,0,0,4-.66c1.88-1.22,3-2.42,2.34-3.46-.56-.87-1.2-2.92-.91-3.36a2.86,2.86,0,0,1,3.45-.87c1.86,1,5.34-.36,4.48-3a4,4,0,0,1,.92-3.71A1.93,1.93,0,0,0,166.21,58Z" fill="#e7380e"/><path d="M267.44,69.22c3.19-1.94,2.2-5.28-.35-7.43-2.24-1.88-2.45-3.71-1.94-5.44-2.31,2.68-4.29.37-4-3.58a46,46,0,0,0-1,8.72c0,1.44.88,2.13,2.11,1.55,1.67-.77,3.42,1.13,1.22,2.78s-3.64,3.91-2.77,5.55c1,1.89,1.2,4.25-.23,5.22-2.1,1.45-2.66,3.33-2.77,5.78h0a7.26,7.26,0,0,1,1.3-.32c2.67-.43,5.4-.91,8.17-1.44v-.05c2.78-3.28,2.13-6.16-.15-6.52C264.22,73.61,263.48,71.63,267.44,69.22Z" fill="#e7380e"/><path d="M99,143.93a1.4,1.4,0,0,0-1.24,1.41A1.38,1.38,0,0,0,99,146.85c.9,0,1.26-.77,1.26-1.54A1.31,1.31,0,0,0,99,143.93Z" fill="#fff"/><path d="M171.87,217.33c-1.75,13.31,6.49,28.17,18.81,32.44,5.29,1.83,12.41,5.29,16.14,9.43l-1.26-.11a15.6,15.6,0,0,1-1.22,4.48c-3-3.12-10.17-6.65-15-8.55C168.65,246.86,167.78,228.3,171.87,217.33Z" fill="#dab300"/><path d="M208.18,259.74c1.42,1.52,10.37,13,11.7,16.48s4.58,12.72,4.68,19.23c-1.73-6.21-6.62-19.33-9.16-22.08s-8.34-9.32-10.45-11.09c.21-.88.48-2.24.61-3.19C206.24,259.3,207.33,259.5,208.18,259.74Z" fill="#a74b00"/><path d="M224.56,295.45c-.55.81-3.94,3.46-5.56,3.6,1.62-1.16,4.27-5.57,4.54-7.2C223.88,293,224.29,294.16,224.56,295.45Z" fill="#a74b00"/><path d="M214.65,302.57a54.66,54.66,0,0,1,6.92-1.69,27.3,27.3,0,0,0-.3,3,22.06,22.06,0,0,0-3.73,1.29,1.94,1.94,0,0,1-2.34-.17A3.08,3.08,0,0,0,214.65,302.57Z" fill="#a74b00"/><path d="M224.81,311.17c-.05-1.58.61-6.16,1.73-7.73.86-1.21,3.06-2.22,4.22-1.89a14.52,14.52,0,0,1,2.85,1.33c.61.4,2.68,1.85,3.36,2.39a12.12,12.12,0,0,1,3.92,5.29c-.66.51-1.27,1.42-1.12,2-1.27.51-2.39-.45-2.7-1.78a11.17,11.17,0,0,0-3-4.58c-1.07-.81-2.54-2-3-2.39a2.33,2.33,0,0,0-2.55,1,14.7,14.7,0,0,0-.71,4.78c.21,1.12.26,2.39-.86,2.85C226.9,311.78,225.83,311.17,224.81,311.17Z" fill="#a74b00"/><path d="M235.6,300.18c3.4-1.32,9.36-.51,12.61.87a2,2,0,0,0,.61,2.44,1.8,1.8,0,0,1-3.25.86C244,302.62,239.21,300.23,235.6,300.18Z" fill="#a74b00"/><path d="M172,238.47c-5.16,2.72-17.5,3.73-24.28,1.29a25.31,25.31,0,0,0,2.44,8.82,18.36,18.36,0,0,1,1.83,6.65c.41-.48,2.31,1.83,3.25,3.19.89-1,2-2.45,2.38-2.85,2-.27,7.66-2.17,9.29-5.84a29,29,0,0,0,12-1.08C176.74,246.68,173.07,242,172,238.47Z" fill="#dab300"/><path d="M150.08,257.7c-.2,2.44-.31,6.41-1.22,7.94a12.23,12.23,0,0,1-3.66,3.56c-2.34,1.73-9.06,12-9.26,18,3.56-7.16,9.42-14,14.55-16.11,1.62-.68,3.32-2.1,3.46-3.8a61.3,61.3,0,0,1,1.28-8.88,18,18,0,0,0-2.91-3.4A30.58,30.58,0,0,1,150.08,257.7Z" fill="#a74b00"/><path d="M137.53,291.11c1.49.61,4.82,3.26,7.06,5.36a1.89,1.89,0,0,0-1,1.86c-1.26.44-2.07.17-2.92-1.18a12,12,0,0,0-3.93-3.84,7.64,7.64,0,0,1-3.19-2.17A11.36,11.36,0,0,1,137.53,291.11Z" fill="#a74b00"/><path d="M118.68,302.88a28.14,28.14,0,0,1,3.56-5.6c.91-.88,9.42-7.77,13-6.81-2.78,1.28-5.63,3.45-6.51,4.74a18.78,18.78,0,0,1-3.09,3.33,11.73,11.73,0,0,0-2.3,4.13,3.87,3.87,0,0,1-2.55,2.51A3.16,3.16,0,0,0,118.68,302.88Z" fill="#a74b00"/><path d="M109.11,298c2.41-1.8,10.45-5.23,13-6.11a49.6,49.6,0,0,1-3.9,5.33c-1.83,1.12-6.14,3.53-7.46,3.83A3.8,3.8,0,0,0,109.11,298Z" fill="#a74b00"/><path d="M119,147.41c5.49-4.37,19.43-2.14,20.75,6.51,2,13-6.21,20.66-7.12,28,1.12-10.48,1.63-25.64-1.53-31C128.41,148.12,125.15,145.78,119,147.41Z" fill="#dab300"/><path d="M100,299.38c1.35-1,5.32-3.69,7.12-4.81l.41.95-.72,2A37.6,37.6,0,0,1,100,299.38Z" fill="#dbdcdc"/><path d="M101.14,305.18c1.76-1.56,7-5.42,8.58-6.64.88.78,1.7,2.37.27,3.49S104,304.78,101.14,305.18Z" fill="#dbdcdc"/><path d="M118.47,302.91c-1.08,1.8-4,6.79-4.75,9,1.8-1,6.2-4.77,6.85-6.34C120.91,304.78,120.37,303.35,118.47,302.91Z" fill="#dbdcdc"/><path d="M144.72,296.47a40.89,40.89,0,0,1,5.7,7.12c-1.7-.75-6.31-3.71-6.75-5.09C143.4,297.65,143.84,297,144.72,296.47Z" fill="#dbdcdc"/><path d="M214.65,302.57a39.82,39.82,0,0,0-5.93,4.48c2,.22,5.68-.69,6.37-1.79A2.72,2.72,0,0,0,214.65,302.57Z" fill="#dbdcdc"/><path d="M224.6,311.48c-.11,2.46-.66,9.08-1.06,11.53,1.65-2,3.5-7.9,3.41-10C226.91,312.14,226.76,311.26,224.6,311.48Z" fill="#dbdcdc"/><path d="M241.44,310.72c1.43,1.5,3.55,7.43,2.49,10.79a33.68,33.68,0,0,0-3.7-8.09C239.5,312.51,239.5,311.34,241.44,310.72Z" fill="#dbdcdc"/><path d="M248.73,300.83c1.94.95,4.54,4.47,5.45,7.07a55.58,55.58,0,0,0-4.94-4C248.29,303.32,247.41,301.67,248.73,300.83Z" fill="#dbdcdc"/><path d="M126.4,59.4c1.4-.07,1.8,1.71,2,3.6.09.82,1.39,1.19,2.08-.19s2.31-1.29,3.46.2c.46.6,1.52.59,2.49-1.46.6-1.3-.19-2.55-1.32-4.42-1.59-2.65-.31-4.63,1.25-6.11A4.58,4.58,0,0,1,140.45,50a2,2,0,0,0,1.6-.7c.55-.58.65-.91.2-1.74-1.13-2.06.64-4.84,3.45-5.86,1.75-.64,4.22.06,4.85,3.71.35,2,4.39,1.11,2.79-1.32-.69-1-.05-2,1.57-2,.44,0,.67-.62.61-1.75-.1-2.24,1.84-4.21,3.41-4.21a1.68,1.68,0,0,1,1.63,1.4,1.3,1.3,0,0,0,1.56.7c1.36-.27,2.18.63,1.16,2.21-.63,1-.11,1.93.8,1.93,1.67,0,3.41-2.13,3.34-5.53-.06-3.1,2.81-4.41,6-3.85a3.29,3.29,0,0,0,2.48-.6,10.85,10.85,0,0,0,2-3.64,2.16,2.16,0,0,0-1-2.27c-.55-.27-.45-.65.07-.75a3.06,3.06,0,0,1,2.9,1c.29.36.89.2,1.22-.28,2-2.88,6.31-4.71,8.83-4.22,1.78.34,1.7,1.24.13,2.14-2.8,1.59-4.9,4.72-3.78,7.71,1,2.74-.47,5.07-5.74,6.53-1.65.45-2.2,2-.85,2.39s2.16,1.65.89,3a2.41,2.41,0,0,0-.34,2.71c.71,1.93-2,5.53-5.87,7.32-1.35.63-2.79.43-4.69-.42-1-.47-2.24.21-2.72,1.58a4.17,4.17,0,0,0-.12,2.61,2.24,2.24,0,0,1-.71,3.08,3.36,3.36,0,0,0-.82,3.13c1.2,3.77-3,5-5.25,3.76-1.06-.59-2.53-.34-2.84.47a7.11,7.11,0,0,0,1.14,2.83c1.14,1.75-1.45,3.78-2.44,4.42a7,7,0,0,1-4.68.79,3.44,3.44,0,0,0-3.41.49c-.77.58-1,1.38.31,2.23,1.05.69,1.43,2.53-.33,3.82a2.63,2.63,0,0,0-.82,2.52,4,4,0,0,1-.53,2.29,24.22,24.22,0,0,1-2.54,3.24c-.29.35-.26.49.23.49,1.72-.48,2.43.26,1.21,2.17-.73,1.14-3.63,2.32-4.83,2.52s-2.65-.36-5.09-1.81a2.22,2.22,0,0,0-3.33,2.19,2.69,2.69,0,0,1-1.82,3.22c-1,.39-1.09,1.62-.57,3.34a1.09,1.09,0,0,0,2.09.28c.53-1.59,3-2.66,4.42-.89.38.47,1.74.1,2.52-1.2,1.17-1.94,2.15-1.46,2.06.33-.07,1.39-1.48,3.55-1.75,4s-.19.54.29.72c1.08.4,1.29,1.17-.6,2.23a5.15,5.15,0,0,0-2.59,3.79,9.93,9.93,0,0,1-1.07,3.46c-.89,2.33-5.88,5.5-9.21,3.61a3.69,3.69,0,0,0-4.55,1.18c-1.55,1.94-4.14,2.16-7.1,1.2-4.6-1.48-9.06,0-10.47,5.55-1.7,6.68-4.4,10-13,9.22-2.83-.28-5.67,2-6.88,4.6-.93,2-3.09,2.65-4.63.56-2.19-3-1.7-6.09-.37-9.84.65-1.83-1.15-2.44-3.78-.8-2,1.26-3.7,1.12-4.56-.32-1.42-2.37-1-6.74,1.78-8.46,2.18-1.36,3-3.32,2-5.79-1.62-4.07.76-7.12,6-7.12,2.83,0,3.61-3,1.44-6.47-2-3.18.47-5.61,3.45-5.22,1,.14,1.66-.93,1.59-3.61-.11-4.18,1.73-5.78,5-5.5,2.65.23,3.53-1.83,2.61-4.48-1.14-3.27.15-4.44,1.68-4.86,1.1-.3,2.05-2.53,1.28-4.38-.32-.76.13-1.13.81-.5A12.83,12.83,0,0,0,101,76.19a3.29,3.29,0,0,1,1.67,4.09c1-.54,1.9-.56,2.33-.12s.19,1.66-1.5,3.92c-.51.69-.24,1.11.45,1.42,1.29.58,1.43,1.94-.05,3.34-1,1-.9,2,.55,2.53,1.2.44,2.69,1.62,2,4.76-.34,1.64,1.73,2.63,3.31,1.68a5.13,5.13,0,0,1,0-5.51c.32-.42.72-.38.83.31.23,1.33,1.35,2.69,2.43,1.76,1.92-1.65,1.82-4.53,0-6.85a5.35,5.35,0,0,1,0-5.91,2.32,2.32,0,0,1,3.26-.8c.87.44,1.92-.94,1.67-2.14-.39-1.84.85-3.12,2.76-3.39,2.91-.42.19-5.61-3-3.62s-7-1.6-4.51-4.55c1.23-1.46.81-3.41-2-4.7-.45-.21-.44-.62,0-.83,2.28-1.11,5.89-.5,6.6,2.39a2.93,2.93,0,0,0,3.08,2.33c1.15-.08,2.27-2,2.57-3.39C123.92,60.86,125.3,59.46,126.4,59.4Zm16.53,31a17,17,0,0,0,2.32-3.25,3.3,3.3,0,0,0,.38-1.88,3.71,3.71,0,0,1,1.3-3.34c1.1-.8,1.26-1.79.66-2.18-1.87-1.23-2.05-2.82-.54-4a5,5,0,0,1,4.43-1.12,4.88,4.88,0,0,0,3.59-.46c1.88-1.22,2.59-2,2.16-2.67-.66-1-1.48-3.09-1-3.94.77-1.45,2.67-1.64,4.26-.92s4.39-.38,3.71-2.52a4,4,0,0,1,1-4.34,1.23,1.23,0,0,0,.41-1.74,4.93,4.93,0,0,1,.12-3.33c.81-2.28,3-3,4.31-2.36,1.63.74,2.64.77,3.74.25,3.85-1.8,5.79-4.49,5.38-5.62a3.29,3.29,0,0,1,.54-3.68c.49-.52.42-1.16-.32-1.36-2.21-.59-2.15-3.6.81-4.42,4.69-1.3,5.21-3.47,4.58-5.15-1.36-3.61,1.65-7.29,4.87-8.9.4-.2.23-.39,0-.42-2.54-.39-6.36,2.24-7.54,3.95-.85,1.23-2.15,1.41-2.84.52a1.24,1.24,0,0,0-.7-.49,2.34,2.34,0,0,1,.36,1.85,12.16,12.16,0,0,1-2.34,4.24,4.41,4.41,0,0,1-3.28,1c-3-.52-4.51.81-4.47,2.71.08,3.87-2.18,7-4.8,7-1.74,0-2.86-2.25-1.72-4,.4-.61.2-.8-.22-.71-.87.17-2.09.2-2.45-1.21-.11-.45-.34-.76-.72-.76-.92,0-2.47,1.4-2.38,3.29.07,1.42-.13,2.54-1.5,2.54-.75,0-.78.45-.64.66,2.52,3.71-4.21,6.12-4.94,2-.42-2.35-1.61-3.06-3.28-2.45-2.23.81-3.43,2.57-2.74,3.84a2.42,2.42,0,0,1-.47,3.06,2.91,2.91,0,0,1-2.68,1,3.07,3.07,0,0,0-2.92.91c-1.67,1.58-1.94,2.82-1,4.41,1.25,2.08,1.94,4,1.16,5.63-1.48,3.14-3.52,2.82-4.32,1.78s-1.51-1.08-1.8-.56c-1.28,2.25-3.89,2-4.17,0-.14-1.1-.25-2.65-.77-2.65-.68,0-1.56.76-2,2.56-.58,2.72-2,4.41-3.6,4.43a4.36,4.36,0,0,1-4.1-3.4c-.47-1.95-2.92-2.5-4.25-2.14,2.23,1.41,3.3,3.41,1.43,5.64-1.52,1.8.84,4.3,3.21,3,5.17-2.89,8.62,4.85,3.69,5.55a2,2,0,0,0-1.9,2.3c.5,2.39-1.62,4-3.17,3.26-.9-.44-1.33-.32-1.85.53a3.9,3.9,0,0,0,.14,4.51c2.08,2.71,2,6.85-.28,8.82-1.35,1.16-3.42-.16-3.86-1.74a5.19,5.19,0,0,0,1.14,3.67.54.54,0,0,1,0,.78c-2,1.92-6.74,1.07-6-2.46.64-3-.65-3.39-1.11-3.56-2.5-.91-2.4-2.8-.91-4.21,1-.91.89-1.42.27-1.69-1.38-.62-1.44-1.8-.69-2.91,1-1.46,1.35-2.35,1.2-2.49s-1.14.17-2,.8c-.54.39-.88,0-.68-.57.68-1.77.46-3.58-.71-4.21A17.32,17.32,0,0,1,98.68,76c.23,1.93-.63,4-2.39,4.34-1,.23-1.11,1.42-.45,3.31,1.43,4.1-1.24,6.22-4.17,6-2.47-.21-3.73,1-3.64,4.35.07,2.74-.79,5.06-3,4.77-1.88-.25-3.51,1.15-2.06,3.45,2.82,4.49,1,8.32-2.61,8.32-4.26,0-6,2.69-4.91,5.52a5.74,5.74,0,0,1-2.32,7.33c-2.08,1.28-2.75,5-1.73,6.66.56.94,1.55.82,3-.11,3.6-2.24,6.72-.89,5.63,2.17-1.47,4.14-1.37,6.2.36,8.53.72,1,1.63.85,2.26-.51,1.65-3.55,4.72-5.3,8.14-5,8,.8,9.73-1.87,11.38-8.35,1.4-5.52,6.49-8.52,12.39-6.62,2.12.69,4.51,1.07,5.69-.41,1.67-2.08,4.29-2.72,6-1.74,2.77,1.57,6.92-1.32,7.46-3,.3-.94,1.1-1.89,1.11-2.93,0-1.71,1.34-3.43,3.36-4.49.72-.38.68-.74.31-.85-.86-.25-1-1.06-.49-1.78a10.43,10.43,0,0,0,1.65-3.1c.06-.26-.09-.37-.23-.1-.91,1.75-3.25,2.8-4.26,1.37-.64-.89-2.18-.12-2.42.79-.51,1.9-3.48,2.17-4.27-.49-.67-2.22-.08-4.1,1.38-4.67,1-.39,1.2-1.12,1-2.37a3.25,3.25,0,0,1,4.94-3.31c1.32.82,3.31,1.78,4.52,1.58a9.12,9.12,0,0,0,3.9-1.71c.45-.5.45-.84.07-.74C142.46,92.73,141.89,91.64,142.93,90.43Z" fill="#0f141b"/><path d="M78.92,139.61c-1.38,5.36-.2,13.87,4.47,17.67,7.37,6,23.16,1,27.79-4.51,7.77-9.34,17.69-8.61,23,1.75.71,1.38,0,1.78-.8.45-5.74-9.64-14.8-9.46-21.13-1.09-5.14,6.8-22.35,11.3-30,4.67-5.64-4.89-6.73-14.84-4.12-21.32Z" fill="#0f141b"/><path d="M132.27,152.34c3.22,9.77,2.11,22.3,1.36,27.42-2.51,17.08-2.47,37.24,3.81,49,.63,1.18,0,1.52-.76.52-8.58-11.25-6.2-41.35-5-49.72.77-5.24,2.4-19.91-1.41-29.22Z" fill="#0f141b"/><path d="M168.05,249.82c-1.47,2.49-5.55,5.52-10.07,6.23a22.64,22.64,0,0,0-2.22,3.08c-.22.36-.53.39-.75,0a29,29,0,0,0-2.68-3.34,9.13,9.13,0,0,1-2.5,2.72c-.31.23-.48.21-.7-.06a9.68,9.68,0,0,1-1.63-2.74,4,4,0,0,1-4.35,1.68c-.41-.08-.57-.27-.6-.79-.1-1.73-1.37-4-5.89-9.61-4.12-5.1-8-18.07-4-28.69l.88,2.4c-2.85,9.26.77,20.27,4.56,25.19s5.66,8.35,5.85,10.23a3.33,3.33,0,0,0,3.28-1.93c.3-.58.72-.48.9.05a11.2,11.2,0,0,0,1.53,2.92,11,11,0,0,0,2.15-2.63c.22-.33.53-.43.8-.16a23.53,23.53,0,0,1,2.79,3.18,14.33,14.33,0,0,1,1.94-2.64.5.5,0,0,1,.26-.13,12.66,12.66,0,0,0,8.69-5.21Z" fill="#0f141b"/><path d="M179.56,249.35c-6.89,2.14-20.32,2.89-31.47-8.79-.9-.94-.37-1.53.62-.68,9.71,8.29,19.55,11.09,29.66,8.12Z" fill="#0f141b"/><path d="M145.62,256.76c-.12,5.72-.78,8.93-3.31,11.29-4.7,4.4-11.61,12.85-14.11,17.23-.62,1.08-1.42.74-.81-.44,2.34-4.6,9.11-13.45,13.89-17.88,2.07-1.92,2.64-5.49,2.74-10.21Z" fill="#0f141b"/><path d="M106.08,297.7c.35-2.71,3.61-5.61,8.3-7.42,2.52-1,12.6-6.63,16-9.69l-1.49,2.93c-3.64,2.58-12.16,7.35-14,7.94-4.19,1.34-6.87,3.84-7.56,6.37Z" fill="#0f141b"/><path d="M101,305.64c-.57,0-.61-.2-.41-.67,1-2.4,3.52-6.38,5.55-7.68,1.63-1,5.82.8,5.31,3.94-.26,1.57-7.53,4.29-10.44,4.41Zm5.69-7.27c-1.5,1-3.71,4.22-4.86,6.26,2.87-.51,8.06-3,8.43-3.68C110.44,298.63,107.16,298.06,106.66,298.37Z" fill="#0f141b"/><path d="M104.73,293.52a32.55,32.55,0,0,1,2.88-2.75,5.75,5.75,0,0,1,4-1.5,8.82,8.82,0,0,0,3.93-1.1,12.31,12.31,0,0,1,4.73-.46l-2,1.21a6.32,6.32,0,0,0-2.48.36,9.43,9.43,0,0,1-4.19,1.14,5.2,5.2,0,0,0-3.32,1.25c-.52.42-1.35,1.13-2.13,1.84Z" fill="#0f141b"/><path d="M106.58,298.09A24.52,24.52,0,0,1,99.83,300c-.78.09-.89-.12-.52-.77,1-1.83,3.64-5.09,5.32-6.13,1.25-.78,3.09.23,3.43,2.13l-1.2,1.12c.06-1.72-.86-2.63-1.7-2.11a23.37,23.37,0,0,0-4.42,4.63,33.61,33.61,0,0,0,6.22-2.06Z" fill="#0f141b"/><path d="M117.5,298.29a34.25,34.25,0,0,1-7.29,3.75l.72-1.8c2.18-.88,6.55-2.93,8.3-4.56Z" fill="#0f141b"/><path d="M114.67,303.59c-1.49-.88-1.17-2.72.34-4,2-1.66,6-5.8,7.19-9.35.36-1.12,1.19-.9.89.24-1,3.89-5.16,8.23-7.22,10-1.18,1-.91,1.9-.38,2.14Z" fill="#0f141b"/><path d="M113.06,312.23c-.07-2.1.24-8.18,1.46-9.54,1.55-1.74,6.79-.2,6.88,2.48,0,1.39-5.71,6.41-7.64,7.46C113.32,312.87,113.08,312.87,113.06,312.23Zm2.4-8.74c-.62.7-1.29,5.22-1.44,7.83,2.11-1.6,6-5.42,6.11-6.19C120.08,303.68,116.46,302.37,115.46,303.49Z" fill="#0f141b"/><path d="M125.46,299.63a11.71,11.71,0,0,0-1.67,3.58,4.23,4.23,0,0,1-3.14,2.6l0-1.25a3.32,3.32,0,0,0,1.82-1.95,12.28,12.28,0,0,1,2-4.09,42.84,42.84,0,0,0,3.55-3.77c3.22-4.09,5.53-4.86,9.07-4.2,1.06.2.93,1-.16.91-3.25-.25-4.79.61-7.82,4.46A41.71,41.71,0,0,1,125.46,299.63Z" fill="#0f141b"/><path d="M143.7,299a2.82,2.82,0,0,1-3.29-.88c-1.32-2-3-3.9-4.57-4.4a7.35,7.35,0,0,1-3.19-2.05l1.42-.68a6.79,6.79,0,0,0,2.27,1.39c2.38,1,3.87,3,5,4.77a1.52,1.52,0,0,0,2,.54Z" fill="#0f141b"/><path d="M150.28,304.13c-1.17-.2-7.32-4.44-7.42-5.93s2.47-3.64,4-3.19,3.8,5.82,4.06,8.6C151,304,150.72,304.21,150.28,304.13Zm-3.6-8.11c-.56-.25-2.82,1.45-2.68,2.17s4.17,3.77,5.91,4.73C149.36,300,147.28,296.29,146.68,296Z" fill="#0f141b"/><path d="M138.09,283.16a13.33,13.33,0,0,0,2.12,5.14,15.46,15.46,0,0,0,5.66,4,2.8,2.8,0,0,1,1.49,3.6l-1.08-.41a1.58,1.58,0,0,0-.82-2,17.5,17.5,0,0,1-6.25-4.28,11.23,11.23,0,0,1-2.09-4.14Z" fill="#0f141b"/><path d="M155.79,258.59c-.3,2-.78,6.36-.89,7.69-.26,3-.7,3.89-4.57,5.59-4.7,2.06-9.71,7.5-13.54,14.66-.65,1.22-1.43.91-.82-.41,3.48-7.56,8.93-13.44,13.83-15.59,3.18-1.39,3.33-1.91,3.57-4.35.12-1.24.62-6.66,1-8.77Z" fill="#0f141b"/><path d="M158.71,150.42c-14.72-13-29.41-24.23-39.47-29l1.26-1c10,4.87,24.59,15.87,39.22,28.67Z" fill="#0f141b"/><path d="M185.35,173.49c11.63,12.08,20.73,22.35,25.2,29.76,8.34,13.84,11.88,27,9.69,38.21-1.08,5.46-2.3,9.93-2.13,14.74,0,.69-.32.86-.81.44a10.38,10.38,0,0,0-2.92-1.83,15,15,0,0,1-.46,3.22.44.44,0,0,1-.73.23,11.27,11.27,0,0,1-2.6-2.69,30.56,30.56,0,0,0-.38,4.88c0,.43-.26.66-.84.43a23.57,23.57,0,0,0-3.28-1,12,12,0,0,1-1.2,4.1c-.25.47-.62.4-1,.05-1.78-1.78-7.75-5.4-13.63-7.65-13.29-5.07-26.32-18-18.89-39.05.44-1.25,1.25-1,.88.28-5.86,20.21,5.45,32.17,18.6,37a47.83,47.83,0,0,1,13.25,7.65A8.73,8.73,0,0,0,205,259c0-.35.23-.46.56-.41a21.49,21.49,0,0,1,3.44.77,22.06,22.06,0,0,1,.73-5.09c.11-.4.5-.59.81-.23a16.21,16.21,0,0,0,2.6,2.63,11,11,0,0,0,.26-2.66c0-.46.17-.67.76-.48a10.63,10.63,0,0,1,2.66,1.28,94,94,0,0,1,1.68-13.56c1.9-10.51-1.28-23.39-9.5-37-4.66-7.74-14.07-18.65-26.32-31.07Z" fill="#0f141b"/><path d="M90.56,151.86c4.64-7.66,9.67-12.05,15.62-15,1.07-.54,1.49.24.44.81-5.18,2.81-10.19,7.63-15.31,14.72C90.6,153.37,89.89,153,90.56,151.86Z" fill="#0f141b"/><path d="M104.93,138.28c.91,3.06.65,7.81-.66,9.65S97,152.4,91.18,152.12l.45-1c4.75.12,10.59-2.59,11.58-4s1.45-5.05.82-8.25Z" fill="#0f141b"/><path d="M95.25,151.3a5.11,5.11,0,0,1-1-3.52l1-1c-.29,1.1.52,3.79,1.2,4.29Z" fill="#0f141b"/><path d="M205.15,261.33c5.58,5.43,9.92,10.27,11.73,13,2.88,4.4,6.93,15,7.93,20.33.27,1.44-.56,1.57-.91.17-1.24-5-5.42-15.33-8.26-19.66-1.76-2.68-5.58-6.95-11-12.26Z" fill="#0f141b"/><path d="M223.77,292.91c-.7,2.06-2.55,5.35-3.6,5.88a18.93,18.93,0,0,1-4.91,1.19c-1,.07-1.52.41-1.58,1.17l-1.28-.07c.09-1.17,1-2.19,2.78-2.31a17.76,17.76,0,0,0,4.43-1.11c.69-.37,3.15-4.69,3.5-7.3Z" fill="#0f141b"/><path d="M213,300.47c1.65-.19,3.43,3.11,2.92,4.66s-5.65,2.77-7.5,2.5c-.31-.05-.45-.17-.38-.55C208.57,304.22,211.57,300.64,213,300.47Zm-3.82,6.22c1.36.13,5.26-1,5.57-2s-1-3-1.68-3-3.17,2.47-3.89,4.95Z" fill="#0f141b"/><path d="M215.51,304.47a1.28,1.28,0,0,0,1.59.26,30.6,30.6,0,0,1,4.18-1.45l-.09,1.26a24.33,24.33,0,0,0-3.76,1.23,2.3,2.3,0,0,1-2.57-.26Z" fill="#0f141b"/><path d="M220.81,313.71c-1.44-.66-2.14-3.1-1.14-4.74a7.39,7.39,0,0,0,1-3.7,17.21,17.21,0,0,1,.92-5.82c.88-2.08,1.73-1.73.85.35-.64,1.53-.62,4.07-.65,5.57a8.34,8.34,0,0,1-1,4.11,2.4,2.4,0,0,0,.61,3.11Z" fill="#0f141b"/><path d="M223.16,323.5c-1.17-1.47-2.9-8.57-2.75-10.42.2-2.37,6.67-3.38,7-1.08s-1.54,9.09-3.5,11.49A.42.42,0,0,1,223.16,323.5Zm-1.52-10.32a37.55,37.55,0,0,0,1.92,9.13c1.48-2.57,3.17-9.19,2.7-10S221.74,312.16,221.64,313.18Z" fill="#0f141b"/><path d="M243.41,321.78a29.58,29.58,0,0,0-4-8.46,1.59,1.59,0,0,1-.1-1.9c.89-1.57,3.91-2.16,5.58-.81s1.89,9-.69,11.32C243.72,322.39,243.54,322.39,243.41,321.78ZM240.35,312a.56.56,0,0,0,0,.66,26.47,26.47,0,0,1,3.75,7.89c1.42-2.53,1.2-8.15.06-9S240.93,311,240.35,312Z" fill="#0f141b"/><path d="M226.72,311.63c.68,0,.83-.45.48-1.29-.52-1.28.39-5.19.84-6,.62-1.05,2.8-1.78,3.52-1.12a17.77,17.77,0,0,0,2.71,2.21c1.24.63,2.92,3.31,3.31,4.82.49,1.86,1.35,2,2,1.81l.39,1.21c-1.08.34-3.09-.18-3.73-2.63a6.73,6.73,0,0,0-2.85-4,13.61,13.61,0,0,1-2.6-2.16c-.38-.37-1.35,0-1.68.6s-.95,4-.58,4.91a2,2,0,0,1-1.8,2.78Z" fill="#0f141b"/><path d="M244.08,310.77a8.25,8.25,0,0,0-3.3-5.2,15.52,15.52,0,0,1-3.76-4.95l1.59.15a13.64,13.64,0,0,0,3,3.9,8.7,8.7,0,0,1,3.66,7.26Z" fill="#0f141b"/><path d="M253.88,308.51a35,35,0,0,0-5.42-4.61c-2.48-1.63.06-5.14,2.35-4.53s4.22,5.73,3.88,8.88C254.61,309,254.28,309,253.88,308.51ZM249.05,303a41.53,41.53,0,0,1,4.73,4c-.2-2.87-1.93-6.32-3.22-6.66C249.44,300.1,247.71,302.15,249.05,303Z" fill="#0f141b"/><path d="M250.44,300.05c0-.39-.72-1.16-2-1.11-1.52.07-4.73-.26-5.86-1a5.87,5.87,0,0,0-2.75-1.2,7.66,7.66,0,0,1-4.37-2.52c-.65-.68-1.46-1.15-2-.91l-.51-1.31c1.24-.52,2.86.74,3.46,1.37a8.94,8.94,0,0,0,3.61,2.14,7.07,7.07,0,0,1,3.21,1.34c.94.62,4,1,5.31,1,2,0,3.13,1.28,3.08,2.28Z" fill="#0f141b"/><path d="M249.33,304a2.37,2.37,0,0,1-4.13,1,16.44,16.44,0,0,0-8.88-4.08c-1.31-.16-1.26-.94.06-.92a14.47,14.47,0,0,1,9.61,3.93c.82.9,2.19.78,2.25-.87Z" fill="#0f141b"/><path d="M217.3,255.6c.79,3.27,7.13,12.47,8.81,13.74,1.95,1.47,2.44,3.29,2.53,5.82.14,4,3.34,15.56,7,19.91.87,1,.22,1.54-.64.66-4.21-4.3-7.41-16.05-7.77-20.48-.18-2.31-.46-3.61-2.11-4.8-2-1.42-9.15-12.1-9.49-15.53Z" fill="#0f141b"/><path d="M81.38,109.89a2.16,2.16,0,0,0-1.58-2.2c-.91-.22-2.25-1.28-2.09-4a2.68,2.68,0,0,0-3.7-2.48c-1.25.58-2.64,0-3.19-1.66a3.28,3.28,0,0,1-3.39.87c-.44-.15-.45-.54-.09-.84a3.18,3.18,0,0,0,.53-4.15A2.75,2.75,0,0,1,63,93.18c.15-.94-.34-1.37-1.38-1.32-4.18.19-2.8-6.76,2-7.28a2.12,2.12,0,0,0,1.59-1.32c.9-1.73.57-4-.89-6.58-.48-.86-1.31-1.29-2.74-.66a2.89,2.89,0,0,1-4.11-2.59c-.24-1.83-1.12-2.59-3.05-2.33s-3.09-1.17-2.85-3.45c.29-2.77-1.1-4.92-3.87-6.16-3.75-1.69-5.22-5-4.08-8.5a5.32,5.32,0,0,0-1,1.2c-1,1.32-2.55,1.22-3.08-.9a6.18,6.18,0,0,1,1.73-5.94,5.31,5.31,0,0,0,1.86-4.89A8.23,8.23,0,0,0,39,36.17a4.51,4.51,0,0,1-2,3.53c-1.88,1.3-3.32.17-3.32-1.05,0-.83-.44-1.28-1.39-1.12-2.28.39-2.72-2.72-.2-4.51A10,10,0,0,0,36,26.4c.16-1.23.16-1.8-.24-2.24a9.77,9.77,0,0,1-2.81-5.05c-1.41,2.89-4.49,5.94-8.68,5.94-6.49,0-12,9.81-12,16.17,0,.6-.22.78-.8.32a4.42,4.42,0,0,1-1.36-2.35A10.19,10.19,0,0,0,9.39,42c-.1.73-.59.78-.88.21A12.12,12.12,0,0,1,7.43,35.8a22.72,22.72,0,0,0-1.67,7.37,83.48,83.48,0,0,1-.62,8.91c0,.41-.26.47-.61.39a9.4,9.4,0,0,0-2.79-.27c6,7.07,9.68,16.8,10.48,27.91.23,3.25,1.6,6.78,3.86,8.8C26,97.74,35,116.56,39.51,130.19c.61,1.83,1.75,2.62,4.27,3.1,8.32,1.61,28.35,14.84,34.28,23.27a8.54,8.54,0,0,0,6.42,3.49c18.52,1.74,35.22,12.19,47.09,29.42l-.19,2.53c-11.72-17.63-28.2-28.61-47.09-30.14-3.63-.29-5.85-1.43-7.69-4.11-6.29-9.12-25.42-21.84-33-22.88-3.39-.46-4.92-1.16-5.72-3.69C32.94,115.84,25.75,99.69,15,90.1a15,15,0,0,1-4.39-9.79c-.8-11.22-3.47-20-10.38-28-.45-.52-.26-.84.13-1a8.43,8.43,0,0,1,3.71-.08,78.37,78.37,0,0,0,.33-8.09c-.07-2.33,1.44-8.53,3.24-10.49.68-.75,1.07-.39,1,.4a20.23,20.23,0,0,0,.17,6.43,14.39,14.39,0,0,1,1-2.49c.34-.63.8-.44.88.2a7.87,7.87,0,0,0,.69,2.67c.38-7.5,6.18-16.44,12.84-16.44,4.42,0,7.23-3.56,8.28-6.61.35-1,.91-.77,1.08,0A13.8,13.8,0,0,0,37,23.35c.48.53.76,1.53.55,3.16a12,12,0,0,1-4.79,7.36c-1.44,1-1.37,2.68-.54,2.54,1.65-.28,2.65.63,2.65,2,0,.64.5.91,1.62.14A3.5,3.5,0,0,0,37.72,35c-.11-.89.36-1.12,1.15-.78a10.53,10.53,0,0,1,5.94,8.2,6.93,6.93,0,0,1-2.72,5.84A4.77,4.77,0,0,0,40.68,53c.27,1.07.68,1,1.13.37a4.39,4.39,0,0,1,2.56-1.76c.58-.13.71.17.55.63-1.11,3.36-.28,6.15,3.47,7.83a7,7,0,0,1,4.39,7.63c-.18,1.72.16,2.37,1.52,2.19a3.66,3.66,0,0,1,4.49,3.37,1.69,1.69,0,0,0,2.43,1.41,3.43,3.43,0,0,1,4.58,1.12c1.61,2.87,2.17,6.3,1.12,8.31A3.32,3.32,0,0,1,63.83,86c-2.91.22-4.5,4.69-2.14,4.56a2.19,2.19,0,0,1,2.47,2.67c-.34,2,2.72,2.29,3.1.86.13-.48.47-.57.81-.33a4.27,4.27,0,0,1,.71,5.65,3.05,3.05,0,0,0,1.84-1.3c.29-.48.74-.39.86.18.35,1.58,1.47,2,2.17,1.72A3.85,3.85,0,0,1,79,103.68c-.12,2.08.63,2.33,1.28,2.48a3.58,3.58,0,0,1,2.55,2.75Z" fill="#0f141b"/><path d="M77.91,140.88a3.22,3.22,0,0,1-3-2.62c-.09-.78-.51-1.26-1-1.08a1.72,1.72,0,0,1-2.44-.94c-.21-.5-1-.57-2.12.34-2.76,2.18-5.34.11-5.12-3.85.11-1.86-.13-4.07-1.34-4.92s-2.39-1.69-3.9-3a31,31,0,0,0,.45,3.42c.09.53-.18.68-.63.52A14,14,0,0,1,52,122.62c-1.08-2.08-2.29-4-4.62-3.38-3.77,1-5.76-2-4.7-4.4.64-1.46.8-3.1-.51-3.68-2.33-1-2.07-2.82-1.58-4.8.76-3-2.49-6.87-7.5-8.6-.94-.33-1-1,.2-1.07,3.28-.1.72-4.92-3-5.48-4-.6-6.34-5.12-5.43-11,.73-4.68-.47-6.28-2.81-7.49-2.87-1.49-4.51-4.44-3.45-8.93,1.13-4.79,1.22-14.34-2-19.2-1.94-2.91-2.76-9.3-.32-15.89l2.27-1.64c-3,6.65-3,13.86-1,16.87,3.43,5.14,4,15,2.79,20-.79,3.34,0,6.28,2.52,7.56,3.18,1.65,4.25,4.28,3.55,8.76-.81,5.22,1.56,9.07,4.12,9.54,4.74.87,7.4,6.32,4.57,7.5,4.8,2,7.45,5.89,6.63,9.17-.51,2-.24,3,1,3.54,1.88.82,2.18,2.92,1.17,5.22-.6,1.38.58,2.82,3.22,2.14,3.21-.83,5.1,2.64,6,4.36A13.39,13.39,0,0,0,57.93,127c-.09-.69-.27-2.93-.29-3.74s.28-.83.77-.4a55.68,55.68,0,0,0,5.15,3.94c1.6,1.13,2.08,3.94,2,5.89-.18,3.07,1.37,4.12,3.14,2.67,1.56-1.27,3.24-.89,3.7.18a.87.87,0,0,0,1.26.53c1.1-.44,2.21.4,2.39,1.91.13,1.11,1.26,1.47,2.12,1.47Z" fill="#0f141b"/><path d="M133.62,169.34c-3.58.25-6.37-1.75-6.67-5a3.56,3.56,0,0,0-3.63-3.53,2.25,2.25,0,0,1-1.9-3.59,2,2,0,0,0,0-2.12c-.64,2.4-3.56.82-3.36-2.22.1-1.6-.94-1.69-1.35-.31-.76,2.54-3.64,3-5.55,1.22l.93-1.3c1.35,1.27,3,1,3.52-.48,1-2.9,3.86-2.39,3.64.92-.11,1.67,1.27,2.89,1.3,1.12,0-.61.4-.78,1-.46a3.07,3.07,0,0,1,1.18,4c-.48,1-.27,1.88.68,1.93a5.14,5.14,0,0,1,5,4.51c.29,2.46,2.49,3.63,5.21,3.46Z" fill="#0f141b"/><path d="M150.42,165.46a3.54,3.54,0,0,1-.24-5.33c.76-.59,1.21-.15.71.66a3.76,3.76,0,0,0,.21,4.05C151.62,165.62,151.09,165.93,150.42,165.46Z" fill="#0f141b"/><path d="M388.4,67.58a4.07,4.07,0,0,0,4.1-3.16,5.31,5.31,0,0,1,3.09-3.87,7.43,7.43,0,0,1-1.81-.56c-.71-.3-.49-.85.18-.94a9.37,9.37,0,0,0,4.51-2.12c-3,.46-2.78-5.3,3.62-9.23,5.43-3.34,5.88-9.37,5.85-11.2-.05-2.67,1.41-5.15,3.62-5.89,1-.35,2.25-2,3.05-4.09a2.48,2.48,0,0,0-.11-2.59c-1-1.17-.58-2.62,0-4.28.45-1.3,1.34-2.32,3.11-4.19-2.43.75-3.44-1.36-1.22-2.76,3-1.9,5.22-8.24,1.8-10.72.49,3.09-3.62,6.41-8,6.81-2,.19-3,.59-3.54,1.49-.23.36-1.45,2.05-2.73,2.16a2.14,2.14,0,0,1-1.88-1.37,17,17,0,0,1-8.91,8.62,26.92,26.92,0,0,0-5.43,3.11c-.66.51-1.94.94-2.52.36-.14-.14-.51-.11-1,.17a52.33,52.33,0,0,0-5,3.77c-1.21.95-2.49,1-2.66-.41-1.47.86-3.36,2.26-3.74,3.71-.53,2-2.63,4.48-3.86,4.53-.89,0-1.4-.64-1.58-1.78a16.63,16.63,0,0,1-1.67,3.1.44.44,0,0,1-.79,0,3.87,3.87,0,0,0-1.34-1.37C360.48,55.42,300.19,76.42,259.11,83a5.08,5.08,0,0,0-3.45,1.85C231,115.66,204.31,125,176.79,132.47a5.76,5.76,0,0,0-3.92,2.84c-1.78,2.45-8.48,9.56-10.33,11.61-3.33,3.69-9.27,10.23-9.76,16.75-.1,1.36-.89,1.36-.92,0-.15-7,6.84-14.76,9.49-17.73.79-.89,8.22-9,10.16-11.67a8.14,8.14,0,0,1,4.9-3.6c34.61-9.49,55.93-19.12,78.21-47,1.64-2.06,2.39-2.2,4.27-2.5,42.14-6.75,102-27.75,103.78-47.32,0-.43.26-.53.63-.39a6.37,6.37,0,0,1,2,1.4,19.29,19.29,0,0,0,1.75-4c.34-1.19.85-.6.91,0,.11,1.08.43,2.79,1,2.79h0c.61,0,2.29-1.92,2.76-3.7.53-2,3.44-4.07,5.08-4.91.7-.35,1.15-.21.91.59-.19.58.23.82,1,.2a47,47,0,0,1,5.07-3.53c.37-.21,1.39-.75,2.08-.05.25.19.72.09,1.33-.38a26.92,26.92,0,0,1,5.61-3.08,15.6,15.6,0,0,0,8.48-9.49c.21-.9.9-.88,1.17,0,.35,1.12,1.07,1.83,1.52,1.83s1.39-.7,1.92-1.53c.74-1.17,1.89-1.73,4.2-1.94,4.16-.38,8-4.49,6.57-6.77-.49-.76-.11-1.07.68-.83,5.68,1.77,4.3,10.61-.14,13.44-1,.64.43,1.11,2.68-.61,1.08-.81,1.61-.05.83,1-1.29,1.79-4.56,4.48-5.09,6s-.57,2.44.05,3.18c1.07,1.27.88,2.43.34,3.83-.75,2-2.31,4.33-3.85,4.84a4.61,4.61,0,0,0-3.07,4.67c0,2-.17,8.87-6,12.44-5.06,3.06-6.46,7.67-3,6.73.74-.2,1.18.23.47,1a12.24,12.24,0,0,1-4.39,2.89,6.86,6.86,0,0,0,1.5,0c1.14-.12,1.32.54.25,1-2.11.83-3.75,2.53-4,4.12-.38,2.63-3.19,4.29-5.46,4.17-2.1-.11-2.94,1-2.31,3.26,1.07,3.93-.54,8.12-5,9.33-2.46.66-3.68,2.75-1.39,3.63,1.25.47,1.1,1.23-.27,1.25-3.88,0-6.37.71-7.29,2.21-1.19,1.93-1,3-.14,3.35,3.48,1.61,3.63,3.52.61,5.33-2.15,1.29-3.87,2.85-3.73,3.49.21.9,2.08,2,3.63,1.49.58-.2.88,0,.82.68a4.07,4.07,0,0,1-5,3.56c-4.36-.79-7.52,1.17-8.55,3.42-1.71,3.72-4,9.55-7.42,8.86a2.36,2.36,0,0,0,2.57,1.66c1-.11,1.37.54.44,1.19-2.27,1.59-4.69,2.56-6.71.54-1.53-1.53-3.64-1.76-4.85-.37-1.64,1.88-3.61,2.09-4.58.34-.52-.94-2.85-.77-3.46,1.29-.89,3-2.33,4-4.92,3.9-3.29-.12-4.61,2.2-3.52,2.74a1.68,1.68,0,0,1,.3,3c-1,.61-.11,1.34,1.43.34.6-.39.83-.2.85.41.06,3-3.87,5.8-6,3.76-1.63-1.58-5-2.3-6.89-.95,3.47.87,3.46,4,1.39,5a1.41,1.41,0,0,0-.95,1.63,2,2,0,0,1-3.46,1.49c-2-2.15-5.55-1.6-4.73,2.53.45,2.24,1.16,4.59.71,5.54a8.59,8.59,0,0,1-5.22,4c-2.57.45-5.65-2-6.83-3s-3.59-.85-5.23,1.46c-2.09,3-4.54,6.82-7.9,8a4.3,4.3,0,0,1-5.39-2.24c-1.18-2.47-4.31-4.49-6.75-3.76a4.33,4.33,0,0,0-3.36,4.1c.12,1.45,2.18,2.51,4.17,1.56.83-.39,1.28-.14.75.78a6.31,6.31,0,0,1-3.6,2.44c-.77.21-.94,1.72,1.23,2.17,4.72,1,5.76,3.92,2.37,6.11-2.37,1.53-3.2,2.67-3.23,3.39a.58.58,0,0,0,.25.54c1.88,1.43,2.1,3,.33,4.17s-4.06,3.37-4,3.94c.14.86,3.05-.34,4-2.72.17-.43.56-.68.86-.06,1.94,4-3.24,8.82-6.61,9.26a3.25,3.25,0,0,0-2.61,2.51c0,.91.8,1.13,1.9.51,3.32-1.86,5.18-.8,4.92,1.79-.43,4.3,4.41,3.19,7.29.24.65-.66,1.16-.46,1.12.51a5,5,0,0,1-4.44,4.92c-1.24,0-2.34,1.36-1.26,2,2.23,1.39,2.49,2.93,1.44,4-1.51,1.56-4,2.61-5.17,1.7-.92-.72-3.29-.57-3.29.09,0,1.58-.83,2.35-2.1,2.3-.76,0-1.05.44-.48,1.07,2.38,2.66,2.46,5.12-.67,6.64a4.24,4.24,0,0,0-2.34,4c0,1.37.67,5.05-.13,6.61a9.51,9.51,0,0,1-8,5.14,8.94,8.94,0,0,1-6-2.62c-2.33-2.32-5-2.76-7.53-1.12-5.33,3.5-10.23,1.91-10.47-4.3-.36-9.6-5.08-10.49-6.76-8.62a8.63,8.63,0,0,1-3.43,2.41l-.24-1.26a7.89,7.89,0,0,0,2.92-2.13c2.34-2.6,8.68-1.13,9.08,9.46.18,5,3.8,6.32,8.49,3.32,2.88-1.84,6.09-1.33,8.72,1.29a7.43,7.43,0,0,0,11.68-2.22c.66-1.31.41-4.31.41-6a4.8,4.8,0,0,1,3.1-4.86c2.21-1.11,2.22-2.78.18-5.06-1.27-1.42-.62-3.18,1.37-2.9.63.09,1.1-.21,1.1-1.31,0-1.9,3.74-1.8,5-.84.62.48,2.17-.4,3.45-1.73.52-.54.34-1.3-1-2.15-2.1-1.31-.73-4,1.76-4a3.78,3.78,0,0,0,3.09-2.45c-3.26,2.53-8.62,3.23-8.07-2.21.14-1.44-.38-2.16-3.16-.61-2,1.13-3.9.14-3.83-1.7.07-1.68,1.49-3.14,3.87-3.59s5.69-3.7,5.9-6.07c-1.54,2.3-4.25,3-5.36,1.52-.91-1.23,1.76-4.07,4.51-5.63.93-.52,1.07-1.37-.47-2.54a1.44,1.44,0,0,1-.58-1.29c.05-1.3,1.47-3,3.76-4.48,2.49-1.6,1-3.32-1.93-3.93-3.66-.76-3.19-3.75-1.36-4.24a5.74,5.74,0,0,0,1.53-.68c-2.2.21-3.78-1-3.93-3-.18-2.26,1.39-4.77,4.51-5.56,3.49-.89,7,1.82,8.24,4.44a3.05,3.05,0,0,0,3.9,1.26c3.07-1.06,5.44-4.1,7.46-7,2.31-3.27,4.92-3.3,6.65-1.87.84.7,3.72,2.72,6,2.32a6,6,0,0,0,3.94-3.1c.31-.68-.23-3.63-.41-4.58-1.14-6,3.68-6.79,6.6-3.73a1,1,0,0,0,1.76-.71,2,2,0,0,1,1.26-2.27c1-.47,1.37-2.8-2.11-3.19-.68-.08-.74-.42-.34-.95,2.05-2.73,6.75-2.31,9.28.14,1.18,1.15,3.3-.19,3.85-1.74-2.17,1-3.52-1.6-1.63-2.78.48-.29.47-.93-.24-1.28-2.14-1.08-.5-4.74,4.38-4.55,2.16.08,3.09-1,3.86-3.63.89-3,4.26-3.46,5.43-1.36.44.79,1.93.51,2.88-.57,1.56-1.77,3.95-2.05,6.38.37,1,1,2.15,1,3.8.14a3.64,3.64,0,0,1-2.51-3.39c0-.61.14-.77.78-.55,3,1.07,5.66-4,7.43-7.89,1.18-2.56,4.68-5.17,9.53-4.28,1.7.31,2.88-.37,3.32-1.56a3.77,3.77,0,0,1-4.1-2.78c-.35-1.77,3.37-4.06,4.13-4.51,2.18-1.31,1.85-2.19-.67-3.36-1.57-.72-2.35-2.35-.72-5,1-1.58,3.57-2.7,7.06-2.95-1.26-1.39-.7-4,3.25-5.05a6,6,0,0,0,4.17-7.6C384,68.86,385.76,67.45,388.4,67.58Z" fill="#0f141b"/><path d="M197.7,107.35c-3.06,0-5.54-3-4.57-6.84a3.31,3.31,0,0,0-1.32,1.83c-.47,1.65-2.08,2-3,.9a3.35,3.35,0,0,1,0-3.45c1.5-2.82.81-7.17-1.75-10.56,0,1-.43,1.65-1.2,1.76-1.5.21-2.56-2.9-3.1-4.74a3.22,3.22,0,0,0-3-2.36A7.56,7.56,0,0,0,172.85,87c2.51-.18,6.4.13,7.45,1.9a1.52,1.52,0,0,1-1.58,2.41,1.67,1.67,0,0,0-.93.18c.45.25,1.14.9,1.08,1.48s-.45,1-1.3,1.37c2,1.09,3.2,4.84,1.83,7.23-1.87,3.28-6.66,3.12-10.38-1.24-2.81-3.29-6.58-3.5-9.07-.33-2.28,2.89-1.43,8.46,3,11.34,2.38,1.53,3.32,3.62,1.33,5.59a17.17,17.17,0,0,0-3.42,4.6c-.62,1.37.55,2.13,1.76,1.79a2.48,2.48,0,0,1,2.77.82,1.63,1.63,0,0,0,1.59.36c1.18-.2,2.28,1.19,2.1,3.06-.08.72.51,1,1,1.32a.43.43,0,0,1,.13.67c-1.82,2.47-6.55,2.26-8.4-1.43a2.83,2.83,0,0,0-2.39-1.71c-.63,0-1.38.08-2.83,1.94-1.79,2.27-3.87,1.87-5.4,0-.16,1.67,1,2.91,3.68,2.9.41.05.56.26.43.62a14.6,14.6,0,0,1-1,2.25c6.46-3.76,10.57-.2,7.34,4.89-1.29,2-1.57,5.39.81,6.69l-.91,1.31c-2.79-1.52-2.87-5.36-1-8.51,2.79-4.7-1.52-6.51-7.79-2.22-.71.49-1.21,0-.73-.68a19.67,19.67,0,0,0,2-3.36c-3.13,0-4.7-2.54-3.53-5.26.27-.65.71-.69,1-.1,1.22,2.18,3,2.21,4.28.61,1.54-2,2.66-2.47,3.72-2.47a4.25,4.25,0,0,1,3.31,2.48c1.27,2.55,4.49,3.13,6,1.77a1.85,1.85,0,0,1-.81-1.81c.09-1-.21-2-.82-1.87a2.73,2.73,0,0,1-2.5-.76c-.27-.36-.84-.62-1.8-.36a2.51,2.51,0,0,1-3.07-3.47,18.57,18.57,0,0,1,3.68-5c1.07-1,.85-2.35-1.33-3.75-5-3.22-6-9.92-3.41-13.24s7.57-3.7,11.23.42c3,3.36,6.54,3.83,8.05,1.18,1.16-2,.36-5.68-2.07-5.81-.72,0-.8-.7-.1-.9,1.11-.32,1.74-.72,1.78-1.11a.89.89,0,0,0-.74-.83c-.5-.06-.62-.46-.31-.86a2.43,2.43,0,0,1,2.07-.86c.54.08.94-.3.6-.95-.7-1.32-5-1.49-7.52-1.09-.75.14-1-.21-.62-.79a9.5,9.5,0,0,1,8.76-4.75A4,4,0,0,1,183.71,86c.73,2.65,1.46,3.77,1.86,3.7s.53-1.13.22-2.12.17-1.21.88-.51c3.87,3.75,5,9.69,3.18,13.19-.53,1-.51,1.64-.21,2s1,.35,1.24-.36a4.54,4.54,0,0,1,3-3c.63-.15.73.2.53.64-1.37,3.17.39,6.55,3.31,6.64Z" fill="#0f141b"/><path d="M265.87,80.84c2.95-3.11,2.71-5.94,1-6.21-3.88-.61-3.95-3.4.21-5.94,2.64-1.6,2.16-4.25-.44-6.44a5.55,5.55,0,0,1-2.18-4.68c-3.22,2.48-5.32-2.44-3-8.85a6,6,0,0,0-4.22,6.56c.05.52-.08.71-.64.48a5.15,5.15,0,0,0-3.53.13c1.88.45,3,2,3.65,4.71a3.75,3.75,0,0,1-3.26,4.74,3.63,3.63,0,0,0-2.85,5c.61,1.64,0,2.74-1.8,3.42-1.67.63-1.32,1.53-.81,1.83a11.3,11.3,0,0,1,3.22,2.58c.68,1,.68,3.44-.25,6.24-1.61,4.83-6.64,5.19-8.38,2.09-.79-1.39-5.75-.64-6.11,4.12-.29,3.92-1.49,5.63-3.66,5.9-2.47.31-3.66-2.09-3.61-4.38a6.74,6.74,0,0,0-1.34,2.72c-.12.44-.47.6-.8.29-3.68-3.53-1.17-10,3.55-10.08a4.68,4.68,0,0,0,2.12-.62c-3.4-.28-3.65-2.19-.38-3.63,1.57-.68,1.67-1.12,1.07-1.52-2.24-1.49-1.36-5.21,2.29-5.27,4.93-.07,7.61-6.62,5.57-9.08-1.45-1.74-1.9-3.26,0-6,2.15-3.25.12-7.12-3.41-8.34a4.83,4.83,0,0,1-3.2-4.68,2.7,2.7,0,0,0-.49,1.08c-.09.45-.48.73-.87.11a5.7,5.7,0,0,1-.71-3.81c-2.24,1.35-2.79,4.36.77,8.57,1,1.18.86,3.18-1.89,5.26-.64.48-.88.35-.76-.43a3.91,3.91,0,0,0-1.7-3.77c1.77,2.32-.75,4.75-1.68,3.13a.81.81,0,0,0-1.53.54c1.17,5.31-5.65,8.61-6.76,4.93-.47-1.55-2.56-2.64-3.46-1.62-1.56,1.75-4.12,1.75-5.14-1.53-.64-2.06-3.78-3-6.88-2-4.1,1.45-4.2,6.12-3.69,8.49.41,1.92-1.12,3.9-5.5,6a2.75,2.75,0,0,0-1.49,3.15c.24.76.94,1.33,3.26,2.62s3.55,3.75,2.51,5.66a12.31,12.31,0,0,0-1.76,5c0,2.31,2.76,5.18,5.59,5.94,2.24.59,3.64,2.19,3.49,4.3a5.08,5.08,0,0,1-4.85,4.56c-2.4.29-3.58,3.16-2.77,6.3.37,1.44-.54,1.63-.9.23-1-4,.36-7.31,3.59-7.7a3.59,3.59,0,0,0,3.44-3.49c.12-1.69-.41-2.57-2.24-3C199,93.51,196,90,196,87.28a12.66,12.66,0,0,1,1.47-5.43c.79-1.44.11-3.1-1.87-4.13-2.54-1.33-3.57-2.12-3.93-3.26a4.4,4.4,0,0,1,2.27-4.68c3.52-1.71,5.15-3.35,4.85-4.78-.79-3.68.27-8.54,4.35-10,3.36-1.18,7.41,0,8.31,2.89.66,2.13,2.22,2.46,3.51,1,1.52-1.71,4.29-.7,5.11,2,.77,2.53,5.7-.46,4.73-4.4-.51-2.08,2-3.34,3.33-1.2.32.49,1.88-1-1.15-3.13-.58-.4-.37-.76.22-.84a4.42,4.42,0,0,1,4.57,4c1.25-1.41,1.36-2.2.81-2.85-4-4.78-3.56-9,.64-10.7.52-.21.76.05.62.55a6.05,6.05,0,0,0-.06,3,5.29,5.29,0,0,1,1.19-1.4c.51-.43.89-.24.79.43-.27,1.95.27,4.31,2.65,5.14,4.43,1.54,6.44,5.94,3.87,9.84-1.56,2.36-1.33,3.49-.08,5,2.87,3.47-.23,10.82-6.39,10.77-2.8,0-3.07,2.53-1.8,3.38S235,81,232.82,82s-1.33,1.6,1.22,1.5c.73,0,.84.35.41.9a5.31,5.31,0,0,1-3.74,1.72c-3.36.09-5,4.56-3.46,7.51a6.42,6.42,0,0,1,2.43-3.17c.52-.36.93-.22.71.5-.6,2,.46,4.61,2.36,4.37s2.53-2.7,2.69-4.83c.48-6.31,6.84-6.75,8.12-4.53,1.11,1.93,4.75,1.7,6-2.15,1-2.92.88-4.37.51-4.91a9.59,9.59,0,0,0-2.72-2.31c-1.53-.9-1.58-2.91,1-3.86,1.12-.42,1.31-.85.92-1.9a5.44,5.44,0,0,1,4.17-7.12c1.65-.12,2.67-1.19,2.25-2.86-.77-3.07-2.12-4.18-4.52-4.11-.6,0-.84-.41-.31-.84a7.13,7.13,0,0,1,5.39-1.27,6.69,6.69,0,0,1,6-7.1c.5-.07.65.22.5.65-2.58,7.11-.24,10.34,2,7.9.5-.54.92-.16.8.43a4.66,4.66,0,0,0,1.89,4.92c3.8,3.2,3.68,6.47.55,8.38s-3.61,3.23-.89,3.66c2.55.41,4,3.6,1,7.19Z" fill="#0f141b"/><path d="M303.38,71.2a3,3,0,0,0,.79-2.79,1.85,1.85,0,0,1-1.88.48c-1.41-.5-1.73-3,.86-4a2.61,2.61,0,0,0-.91-5c-3,0-3.39-2.53-2.18-3.94a10.51,10.51,0,0,0,1.75-3.47,7.49,7.49,0,0,1,1.87-2.79A4.77,4.77,0,0,0,305,43.84a4.89,4.89,0,0,1-.45-4.38c-1.3.12-2.21-1.34-1.29-3.58.66-1.61-.81-3.48-2.58-4.2a3.39,3.39,0,0,1,0,3.1,6.25,6.25,0,0,0-1.06,3.28c-.1,2.53-1.18,4-3,4s-2,1.37-1.55,2a5.52,5.52,0,0,1,.79,5.78c-.92,2.16-4.23,3-6.18,2.85-3.06-.23-4.11,2.5-.94,5.46,2.08,2,1.56,4.44-2.38,5-2.2.29-3.55,2.86-1.38,6.06,1.51,2.22.79,5.91-2,7.83l-3.88.66c4.39-1.33,6.17-5.73,4.69-7.91-2.58-3.81-.78-7.51,2.36-7.92S289,60,287.84,58.89c-4.11-3.84-2.88-7.78,1.88-7.44,1.68.13,4.38-.39,5.09-2a4.47,4.47,0,0,0-.48-4.78c-1.38-1.75-.73-3.36,2.25-3.46,1.65-.06,2.07-1.75,2.13-3.15a7.29,7.29,0,0,1,.91-3.72,2.47,2.47,0,0,0-.9-3.16c-.87-.5-.58-.89.16-.89h0c3.68-.07,6.38,3.37,5.31,6-.78,1.89-.05,2.44,1.16,2,.73-.26.9,0,.58.66a4.63,4.63,0,0,0-.08,4.55c1,2,1.53,4.85-1.22,7.27A6,6,0,0,0,303,52.94a11.82,11.82,0,0,1-2.13,3.61,1.45,1.45,0,0,0,1.39,2.24c3.85-.15,5.87,5.36,1.35,7-1.26.45-1.43,1.78-.86,2a1.46,1.46,0,0,0,1.27-.66.48.48,0,0,1,.84,0,3.69,3.69,0,0,1,.05,3.64Z" fill="#0f141b"/><path d="M408.5,8.52c.33,1.55-.83,3.42-2.1,4.39-2.08,1.59-2.12,2.43-.69,2.13.89-.18,1.23.31.38,1a65.65,65.65,0,0,0-4.4,4.91c-3.38,3.79-8.67,6.73-14.38,8.89-4.37,1.66-10,7.19-12.4,11.64a36.05,36.05,0,0,1-14.65,14.63c-2.1,1.05-2.31,3.39.08,5.42.44.37.38.68-.27.89a7.44,7.44,0,0,1-4.5,0,4.54,4.54,0,0,1-1.33,4.68c-.29.31-.65.23-.79-.23a3.8,3.8,0,0,0-.74-1.55,11.48,11.48,0,0,1-7,7.3c-1,.37-1.16-.1-.68-.78a9.14,9.14,0,0,0,1.36-3.73,4.13,4.13,0,0,1-3,2.25c-1.38.24-3,2-3.87,4a8.11,8.11,0,0,1-5.44,4.35c-2.57.64-3.67,1.7-4.25,3.56C326.49,93.06,316.18,96,310.53,94.07c-2.14-.71-5.51.5-5.61,2.23,0,.5-.15.61-.58.49A2.75,2.75,0,0,1,302.83,95a4,4,0,0,0-.2,1.53c0,.65-.29.77-.83.37a5.25,5.25,0,0,1-1.58-4.7c-1.77.17-3.34,1-4.09,3.74a9.46,9.46,0,0,1-13.27,6,7.09,7.09,0,0,0-9.3,4.19,9.83,9.83,0,0,1-4.68,5.63c-.42.17-.58,0-.63-.37a11,11,0,0,0-.31-1.95A7.94,7.94,0,0,1,263.3,114c-.5.16-.91-.08-.64-.66,1-2.25.68-4.63-.12-4.83-1.08-.27-4.56,1.91-2.64,3.71.2.19.21.49-.18.72a4.23,4.23,0,0,1-2.22.66,7.88,7.88,0,0,0,2.11,3.37c.38.32.5.78-.24.85a5.54,5.54,0,0,1-4.53-1.43,7.11,7.11,0,0,1-4.85,6.35,5.13,5.13,0,0,0-3.44,3.7c-.51,1.88-3.55,4.26-6.44,5.2-.45.15-.9-.06-.7-.53a5.49,5.49,0,0,0,.48-2,5.62,5.62,0,0,1-3.72,1.49,2.19,2.19,0,0,0-1.08,4.09.47.47,0,0,1,.19.61c-2.28,4.43-8,1.27-6.35-4.75-1.12.45-1.66,1.64-1.7,3.19-.08,2.8-4.34,4.72-6.92,3-3.2-2.08-5.91-.75-6.16,2.47-.2,2.76-1.82,6.13-5.47,6.94-3.32.74-4.91,2.86-5.24,4.57a6,6,0,0,1-2.61,4.32c-.27.16-.61.16-.7-.3a5.45,5.45,0,0,0-.39-1.21,5.87,5.87,0,0,1-1,2.64c-.25.36-.71.36-.82-.17a5.5,5.5,0,0,0-2-2.71,9.83,9.83,0,0,1,.62,6.18c-.18.78-.65.83-.95.13-.8-1.88-2.31-1.62-3.26.17-1.79,3.35-5.6,5-10,4-4.13-.87-9.18.51-13.22,4,3.81-.25,6.61.68,8.47,2.55a.43.43,0,0,1-.11.76,3.38,3.38,0,0,0-2.11,2.1,5.51,5.51,0,0,1,1.36-.54c.56-.15.87.12.49.71a2.42,2.42,0,0,0-.34,1.32c.73-1.56,2.2-2.37,4.33-2.37a13.87,13.87,0,0,1,10.93,4.8c3.93,4.57,9.28,4.87,13.2,1.09a15.08,15.08,0,0,1,6.52-3.67.48.48,0,0,1,.52.24c1.32,2.64,4.08,3.16,4.91.31.6-2.06,3.39-2.8,5.6-1.7,3.3,1.65,5.92,1.36,7.76-1.42,1-1.51,3.18-4.65,4.6-5.44a.46.46,0,0,1,.58.11c1.23,1.5,2,2.18,2.57,1.76,1.13-.78,1.69-1.38,1.84-2.1a9,9,0,0,1,3.82-5.81c1.07-.69,1.57.07.5.78a8.21,8.21,0,0,0-3.22,5.25,5.06,5.06,0,0,1-2.48,3c-1.33.87-2.58-.38-3.53-1.65-1.11.8-2.71,3.53-3.62,4.92-1.44,2.19-4.37,4.31-9.3,1.85-1.78-.89-3.58-.26-3.91.88-1,3.57-4.94,3.87-6.83.24a13.21,13.21,0,0,0-5.37,3.43c-4.2,4.39-10.87,4.19-15.19-.84a12.93,12.93,0,0,0-10-4.76,3.67,3.67,0,0,0-3.83,3.27c-.09.64-.62.67-.92.17a4.89,4.89,0,0,1-.44-3,2.48,2.48,0,0,0-.95.7c-.42.53-.85.5-.87-.31a4.11,4.11,0,0,1,2.25-3.81c-1.93-1.54-5.12-2.05-8.9-1.57-.82.09-1.19-.26-.44-1,4.33-4.42,10.75-6.59,15.52-5.58,4.08.85,7.17-.35,8.77-3.35,1.37-2.56,3.11-2.7,4.4-1.27a12.78,12.78,0,0,0-1.33-5.62c-.29-.58.09-.8.61-.65a6.71,6.71,0,0,1,3.43,3.14,6.87,6.87,0,0,0,.52-2.9c0-.78.51-.73.93-.15a6.42,6.42,0,0,1,1,2.1,5,5,0,0,0,1.69-3.16,7.44,7.44,0,0,1,5.93-5.54c3.14-.69,4.37-3.49,4.55-5.92.33-4.44,4-5.92,7.81-3.46,2,1.26,5.16-.43,5.21-2.19a4.15,4.15,0,0,1,3.63-4.2c.62-.08.73.17.54.67-1.86,5,2.13,8.08,4,5.31-2.63-1.69-1.78-5.21,2-5.58a8.06,8.06,0,0,0,4.13-2.14c.45-.42.77-.22.75.39a8.93,8.93,0,0,1-.27,2.35c2.3-1,4.18-2.76,4.56-4.19a6.71,6.71,0,0,1,4.3-4.56,6.57,6.57,0,0,0,4.4-6.31c0-.55.49-.84.85-.24a4,4,0,0,0,3.23,1.84,11.72,11.72,0,0,1-1.76-3.78c-.19-.67.19-.87.72-.59a2.44,2.44,0,0,0,1.66,0c-1.91-2.71,2.23-5.59,4.05-5.13,1.4.34,2.07,2.45,1.31,5.24a7.94,7.94,0,0,0,3.44-4.55c.18-.52.67-.52.92,0a9.17,9.17,0,0,1,.76,2.42,8.34,8.34,0,0,0,3.5-4.51,7.94,7.94,0,0,1,10.64-5,8.18,8.18,0,0,0,11.31-5.24,6,6,0,0,1,6.41-4.46c.65,0,.87.34.48.81-.56.68-.24,2.35.23,3.24a4.12,4.12,0,0,1,.94-1.85c.33-.37.79-.46.79.34a2.58,2.58,0,0,0,.65,1.73c.57-1.64,3.87-3.47,6.76-2.51,6.18,2.06,14.45-2,17.27-11,.89-2.86,3.22-3.66,5.67-4.28a6.56,6.56,0,0,0,4.6-3.73c1-2.29,3.11-4.15,4.79-4.44,1.29-.23,2.61-1.82,3.35-4,.25-.74.79-1.1.95.11a9.79,9.79,0,0,1-.64,5.25A10.4,10.4,0,0,0,352,63.91c.11-.42.4-.49.72-.24a4.73,4.73,0,0,1,1.43,1.9c.76-1.15.7-2.21.12-4-.2-.64,0-1,.72-.52a5.81,5.81,0,0,0,3.73.52c-2.19-2.32-1.92-5.12,1-6.59,5.44-2.72,10.76-8.15,14-14.18,3.47-6.41,8-10.57,13.05-12.47,6.1-2.3,11-4.95,14.14-8.16,1-1,2.49-3,3.53-4-1.53-.21-1.57-1.87,1.22-4a4.1,4.1,0,0,0,1.7-3.2Z" fill="#0f141b"/><path d="M100.35,149.53a5.87,5.87,0,0,0-.87-7.07l.66-.66A6.5,6.5,0,0,1,101.8,149Z" fill="#0f141b"/><path d="M88.93,160.74c3.58-3,2.87-5.74.1-7.12-1.42-.71-3-1.53-3.15-3.46-.24-4.63-5.38-5.23-7.53-1.93C73.43,155.77,59,178,53.12,186.48,64.31,179.45,82.69,166,88.93,160.74Z" fill="#cc5d00"/><path d="M86.31,151.89a3.7,3.7,0,0,1-1.11,4.53c-4.72,4.22-26.08,23-31.47,29.4,7.57-4.67,34.33-23.24,36.73-26.45,1.35-1.82,1.23-4.65-.68-5.41A9.82,9.82,0,0,1,86.31,151.89Z" fill="#a74b00"/><path d="M54.07,184.13c6-9.36,17.91-27.51,23.7-36.39,2.21-3.4,8.17-3.65,8.75,2.37.14,1.4,1.36,2.35,2.85,2.95,3.35,1.32,4,5,0,8.22-6.14,5-22.65,17-33.64,24.1C52.1,187.71,52.27,186.93,54.07,184.13Zm24.8-35.32c-6.32,9.49-17.65,26.51-23.28,35.2,11-7.08,26.73-18.59,32.81-23.74,3.09-2.62,2.69-4.78.21-6-1.79-.9-3.31-1.83-3.43-4.07C85,146.39,80.83,145.87,78.87,148.81Z" fill="#0f141b"/><path d="M53.73,185.82c7.43-6.69,28.43-24.78,36.46-31.49l.94,1.31c-8.3,6.83-25.35,20.81-33.62,28.11Z" fill="#0f141b"/></svg>