<?xml version="1.0" encoding="UTF-8"?>
<!-- Created with Inkscape (http://www.inkscape.org/) -->
<svg version="1.1" viewBox="0 0 239.58 331.55" xmlns="http://www.w3.org/2000/svg">
 <g transform="translate(5.4447 16.011)">
  <path d="m151.89 178.48c38.802-4.7278 59.661-44.641 62.025-81.912 0.47453-7.4788 2.3674-7.8481 5.0256-0.69577 15.948 42.914 17.239 133.49-75.812 158.12" fill="#fabe00"/>
  <path d="m223.17 177.19c-15.313 24.31-42.735 33.426-55.449 32.925l-9.9319-1.6253-0.81888 41.099c39.372-14.745 58.646-42.86 66.199-72.399" fill="#d8a500"/>
  <path d="m175.59 221.31c-0.99913 7.9587-4.2122 15.709-6.0979 22.836 40.423-20.347 55.234-56.776 57.397-90.809-6.5155 25.253-24.245 60.198-51.299 67.973" fill="#fff3c3"/>
  <path d="m223.16 177.21c-3.8928 6.1746-8.5599 11.377-13.578 15.68-8.7133 13.298-20.122 24.427-33.99 28.413-0.99912 7.9605-4.2122 15.71-6.0979 22.836 31.03-15.618 46.956-40.716 53.666-66.929" fill="#dcd2a9"/>
  <g fill="#0f141b">
   <path d="m176.16 220.24-0.18725 1.7609c29.853-8.5992 45.388-47.397 50.466-64.826l0.25334-5.6412c-8.1568 33.287-27.896 61.894-50.532 68.706"/>
   <path d="m219.7 94.954c-2.908-7.8231-5.9944-7.1184-6.5492 1.6253-1.9571 30.852-18.961 71.113-55.069 79.68l1.5557 1.7787c41.248-10.298 53.459-57.243 54.992-81.4 0.45499-7.1702 1.5094-7.3557 3.8428-1.074 13.234 35.612 17.675 113.27-48.327 147.13l-0.79926 3.065c65.224-33.016 65.857-109.08 50.353-150.8"/>
   <path d="m180.13 220.07c-0.3069 5.8874-2.7974 15.553-6.9507 21.976l2.1836-1.3077c4.553-8.0854 5.7322-14.392 5.9874-21.204z"/>
   <path d="m189.18 215.19c0.50488 6.4012-0.11592 12.328-1.884 17.698l1.6003-1.1311c1.7698-6.1853 2.0731-10.092 1.4308-17.264z"/>
   <path d="m198.82 206.9-0.9794 1.0133c0.99726 4.114 1.2863 9.2825 0.80991 14.401l1.3078-1.4094c0.4514-4.6457 0.10543-9.9711-1.1383-14.005"/>
   <path d="m205.85 198.4-0.94731 1.1739c0.94017 3.9999 1.5467 8.6652 1.7466 13.215l1.1132-1.702c-0.0611-4.5386-0.82066-8.8614-1.9125-12.686"/>
   <path d="m211.85 189.85-0.78856 0.99192c0.99375 2.8777 1.991 6.7331 2.6386 10.294l0.86165-1.4076c-0.54411-3.6234-1.5824-7.2558-2.7117-9.8783"/>
   <path d="m217.07 179.79-0.56373 1.2685c0.97941 2.1748 1.9749 5.1845 2.61 8.435l0.65827-1.9749c-0.57269-3.0793-1.5771-5.6038-2.7046-7.7286"/>
   <path d="m220.23 172.98-0.51739 1.2346c0.86525 1.6592 1.7983 3.6627 2.5726 5.5788l0.47813-1.818c-0.80464-1.8608-1.7323-3.5271-2.5333-4.9954"/>
   <path d="m222.69 166.86-0.43706 1.2328c0.5798 1.0348 1.3594 2.28 1.925 3.7448l0.32825-1.6734c-0.64228-1.2239-1.2702-2.3675-1.8161-3.3041"/>
  </g>
  <g fill="#fff">
   <path d="m13.326 129.27c-3.6199-2.5512-10.829-2.1659-11.568-1.2221-0.59416 0.76 1.875 5.6234 6.874 8.824z"/>
   <path d="m5.1302 136.72c-4.3995 0.59944-9.6374 3.3255-9.7498 4.5137-0.06753 0.69399 4.0979 4.6278 10.344 6.2799z"/>
   <path d="m5.8301 148.72c-2.453 2.2318-4.6992 6.8597-4.4352 7.3878 0.4996 0.99907 7.634 0.71185 12.235-0.18909z"/>
  </g>
  <g fill="#dcdddd">
   <path d="m1.7257 128.13c-0.4192 0.94914 2.041 5.6287 6.9062 8.7437l1.7912-2.8991c-0.25518-0.16759-0.55308-0.34432-0.90632-0.52809-3.7358-1.9624-6.13-3.8214-7.791-5.3165"/>
   <path d="m-4.6206 141.23c-0.0657 0.69399 4.098 4.6279 10.344 6.2799l-0.21232-3.8857c-3.8339-0.67794-7.27-1.4148-10.101-2.4834 0 0.0286-0.02869 0.0606-0.03053 0.0892"/>
   <path d="m9.6721 152.26-1.4166-0.87062c-1.6164 2.1177-4.2871 3.511-6.8615 4.4352-0.01941 0.12483-0.02491 0.22475 0 0.27652 0.50127 1.0009 7.6358 0.71185 12.235-0.18725z"/>
  </g>
  <path d="m70.475 92.814c-8.0034-4.4173-11.12-12.406-10.282-19.642-14.774 12.57-30.429 33.005-38.63 52.837 10.039-11.78 23.762-13.543 31.71-6.2799 12.021-4.3264 23.073-10.678 28.797-19.607 0.41393-1.3434 0.69759-2.6154 0.84211-3.8179-4.0516-0.15709-8.2692-1.19-12.437-3.4896" fill="#5dc2d0"/>
  <path d="m70.475 92.814c-8.0034-4.4173-11.12-12.406-10.282-19.642-14.774 12.57-30.429 33.005-38.63 52.837 10.039-11.78 23.762-13.543 31.71-6.2799 12.021-4.3264 23.073-10.678 28.797-19.607 0.41393-1.3434 0.69759-2.6154 0.84211-3.8179-4.0516-0.15709-8.2692-1.19-12.437-3.4896" fill="#5dc2d0"/>
  <path d="m63.904 119.2 1.1632-0.64225c0.52264-10.38 0.88661-20.378 6.7901-24.238l-6.7473-5.6234c-1.4166 7.8356-2.2586 23.582-1.206 30.504" fill="#50a9b5"/>
  <path d="m193.9 144.41 1.7842 10.827c2.3317 0.15709 4.5369 0.52095 4.9132 0.032 0.66723-0.86705-3.0471-6.8972-6.6974-10.86" fill="#fff"/>
  <path d="m173.37 62.05c-6.8972 2.6886-5.3897 27.776-32.509 41.203 7.0577 5.9784 16.588 10.915 25.626 16.008 5.577 0.60658 10.904 2.7814 15.297 6.7366 8.0586-14.893 26.226-19.535 45.993-1.1721-14.92-31.114-48.41-65.113-54.407-62.776" fill="#5dc2d0"/>
  <path d="m132.14 98.953c19.113-2.5244 28.848-25.603 33.296-40.628 1.3309-4.4976 0.30862-9.0612 2.2854-10.458 6.9703-4.9294 56.771 41.413 65.511 84.022 0.96162 4.6885-0.52811 4.8098-2.2836 0.24075-12.622-32.816-51.108-72.602-57.579-70.08-7.0917 2.7653-5.2879 29.21-34.859 42.313z" fill="#fabe00"/>
  <path d="m230.95 132.13c0.76716 1.9964 1.4844 3.0971 1.9678 3.313-6.8544-32.696-52.318-81.294-60.635-78.848-6.7473 1.9839-6.3994 32.27-29.232 38.257-3.2434 2.1052-6.8633 3.5681-10.91 4.1016l6.3709 5.4093c29.571-13.102 27.767-39.547 34.861-42.313 6.4689-2.5209 44.955 37.264 57.577 70.08" fill="#d8a500"/>
  <path d="m81.78 101.01c-1.5611 4.585-4.4726 9.9229-8.0176 15.891zm105.64 33.182c-11.987-13.211-37.715-21.059-50.261-34.42l-0.0184-0.26939c-9.9871-16.788-6.8026-25.98-8.2191-41.713-2.2658-25.141-12.662-38.124-31.435-39.367-11.903-0.79033-26.918 7.7268-30.343 23.582-0.23011 0.0357-0.47093 0.13926-0.72248 0.31754l0.55298 0.50847c-0.94906 5.0649-0.72609 10.854 1.124 17.305-10.713 6.5636-11.532 25.009 2.3656 32.68 4.1676 2.2997 8.3851 3.3308 12.435 3.4896-0.14267 1.2025-0.42633 2.4745-0.84026 3.8179-11.575 18.056-44.935 25.591-64.048 27.089-21.341 1.6752-20.952 30.524 4.0052 32.006 16.335 0.97054 26.063-3.8803 33.101-10.003-3.4414 6.9757-6.4689 14.315-8.5456 21.924-26.261 28.582-13.666 71.056 10.03 75.676-0.24267 2.041-1.14 2.5477-2.5583 2.6815-11.434 1.0776-28.934 11.443-28.763 19.163l22.465 14.267c1.5057 0.61908 3.7269 0.79747 4.7849 0.61908 7.6929-1.2845 16.547-4.7688 23.869-10.201 5.5412-4.1123 10.203-9.3431 12.818-15.586 0.314-0.75108 0.30512-2.5352-0.0268-4.2532 14.462 4.94 31.917 5.8981 51.698 1.0544 0.72968 0.78678 1.2007 1.4879 1.3166 2.0998 1.1739 6.2228-7.3967 17.73-7.75 24.188-0.3069 5.6323 1.5378 11.17 13.268 20.431 11.156 8.8061 42.696 4.2264 43.094-7.0452 0.3514-9.9818-20.08-21.958-22.545-38.163-1.8411-12.099 9.2772-27.475 7.3985-43.092-1.7501-14.542-11.766-28.977-19.468-38.637-2.6886-12.769-10.358-25.878-17.566-36.104v-0.13192c11.272 9.3146 20.693 19.896 25.765 23.678 6.9275 5.1666 19.493 11.273 27.359 1.8804 8.5368-10.194 1.4094-23.132-4.3442-29.473" fill="#fabe00"/>
  <path d="m3.0129 145.59c1.5522 6.767 7.8018 12.958 19.016 13.625 15.844 0.94022 25.464-3.5984 32.452-9.4591l9.6535-17.798c-14.09 16.556-47.32 29.589-61.122 13.632" fill="#d8a500"/>
  <path d="m135.69 98.521 0.47464-0.74038c-8.7758-15.712-5.8607-24.804-7.2291-39.992-2.2639-25.141-12.662-38.124-31.435-39.369-1.7644-0.11776-3.6002-0.0249-5.4538 0.26225 18.356 2.2461 28.006 10.838 31.505 29.439 4.4619 23.719-0.70471 31.703 12.139 50.4" fill="#d8a500"/>
  <g fill="#fff">
   <path d="m101.7 61.728c-3.2167-1.4576-2.7778-21.022 5.0042-21.667 7.32-0.60658 9.4591 18.11 7.0596 20.452-1.2899 1.2578-9.8944 2.198-12.064 1.2149"/>
   <path d="m17.85 279.2c-0.8867-0.66545 5.7161-14.046 10.899-13.47 3.0115 0.3354 4.4584 3.875 4.6225 6.2442 0.06939 1.008-1.4273 2.5637-3.8251 3.4593-4.1675 1.5575-10.911 4.3549-11.696 3.7662"/>
   <path d="m68.11 60.133c0.72609-0.44424 1.4951-0.83492 2.3104-1.165 0.58869-8.7098-0.61905-17.373-3.2648-16.959-1.1365 5.2576-0.99551 11.323 0.95442 18.124"/>
  </g>
  <path d="m21.187 126.92c8.0924-20.114 24.006-40.983 39.007-53.747 0.61544-5.3308 3.3719-10.253 7.9158-13.038-0.36572-1.2738-0.64939-2.5155-0.89206-3.7376-17.892 13.286-42.024 41.501-48.962 70.797 0.94369-0.0766 1.925-0.16942 2.9312-0.27474" fill="#fabe00"/>
  <path d="m110.48 217.14c-1.3416-7.8106 1.6343-18.131 4.7136-25.227-13.989-28.541 3.329-66.485-4.6654-101.21-5.2898 3.2149-12.922 5.2023-19.427 4.7724-2.5976 0.61906-5.3521 0.93306-8.187 0.82425-2.2462 18.774-39.642 54.929-39.223 95.95 0.40856 40.05 38.605 76.663 97.212 62.308-5.5895-6.0408-26.996-17.473-30.424-37.415" fill="#fff3c3"/>
  <g fill="#d8a500">
   <path d="m61.151 81.936c1.4879 4.2889 4.5226 8.2281 9.3235 10.877 18.736 10.34 38.541-5.2291 39.501-10.984-8.1318 9.5126-34.541 18.281-48.824 0.107"/>
   <path d="m102.72 90.276c3.6253-0.13191 9.0166-1.5022 13.835-5.3486-6.3102 8.3298-18.008 11.061-24.319 10.403 4.8705-1.5182 7.3896-2.8884 10.483-5.0542"/>
   <path d="m116.52 85.252c-0.34427 3.222-2.0124 8.0425-4.7188 13l-1.3202-7.9498c2.2372-1.1561 3.7429-2.1516 6.039-5.0507"/>
  </g>
  <path d="m86.679 117.87c10.881 0 19.976-10.13 25.184-19.723-0.33186-2.4941-0.76894-4.9757-1.3363-7.4413-5.2898 3.2149-12.922 5.2023-19.428 4.7724-2.5958 0.61906-5.3505 0.93306-8.1871 0.82244-0.53698 4.4976-3.0936 9.9943-6.6635 16.313 1.9162 3.1346 5.1381 5.2558 10.431 5.2558" fill="#dcd2a9"/>
  <path d="m173.37 62.05c-6.8972 2.6886-5.3897 27.776-32.509 41.203 1.7502 2.0231 9.0077 7.1452 12.422 8.4261 17.22-19.353 15.794-33.301 19.102-34.154 3.363-0.86883 8.3851 29.055 9.1844 41.217 1.5413-11.75-0.0184-32.258-3.7448-45.804 4.2657-4.3727 34.711 27.105 46.698 48.84 1.4843 1.1364 2.3602 1.9179 3.2541 3.0472-14.92-31.114-48.41-65.113-54.407-62.776" fill="#50a9b5"/>
  <path d="m29.273 119.27c9.7428-17.318 26.533-38.384 34.174-32.32-0.86524-2.7171-3.5699-11.038-3.2523-13.775-14.774 12.57-30.431 33.005-38.63 52.837 2.4013-2.8188 5.015-5.056 7.7089-6.742" fill="#50a9b5"/>
  <path d="m20.993 126.94c0.06569-8e-3 0.12843-0.0131 0.19446-0.0184 8.0924-20.113 24.006-40.983 39.007-53.747 0.23018-1.9839 0.75644-3.9124 1.5611-5.6947-17.917 12.674-35.291 39.462-40.762 59.461" fill="#d8a500"/>
  <path d="m138.65 138.1c11.272 9.3146 20.693 19.896 25.765 23.678 6.9275 5.1666 19.493 11.273 27.359 1.8804 4.3887-5.2416 4.6332-11.206 3.0561-16.627-1.9108 10.797-8.0533 15.254-19.248 13.366-12.856-2.1676-37.637-31.596-50.648-32.061z" fill="#d8a500"/>
  <path d="m110.48 217.14c-0.25675-1.4897-0.35323-3.0722-0.32465-4.7046-16.103 9.0238-45.597 9.6411-62.865 0.2694 10.81 30.846 45.265 53.691 93.613 41.85-5.5895-6.0408-26.996-17.473-30.424-37.415" fill="#dcd2a9"/>
  <path d="m137.99 291.81c8.4422-18.429 36.416-18.747 45.661-10.779-6.0319-7.1327-13.894-15.293-15.364-24.959-1.843-12.1 9.2753-27.476 7.3967-43.092-1.7502-14.542-11.766-28.977-19.468-38.637-2.6886-12.77-10.356-25.88-17.566-36.104l-12.735-9.3859c13.746 15.075 22.711 30.308 25.594 40.063 19.107 26.6 20.345 52.926 1.9303 62.453-13.675 7.0756-32.966-1.8608-43.217-16.49 0.0538 0.7725 0.13034 1.5343 0.25517 2.2658 3.4272 19.944 24.834 31.376 30.424 37.415 0.72961 0.78856 1.2025 1.4897 1.3166 2.0998 1.1756 6.2228-7.3967 17.73-7.7482 24.188-0.18725 3.4076 0.4192 6.7812 3.5199 10.963" fill="#d8a500"/>
  <path d="m49.063 217.2c-3.1721 5.0525-9.9408 7.4877-14.681 6.6688 3.8642 11.919 12.014 20.952 22.233 22.945-0.24443 2.0392-1.1419 2.5477-2.5602 2.6815-4.1497 0.39069-9.0969 2.0088-13.709 4.2764 9.0595 1.6931 22.024 9.2414 25.421 25.726 3.6948-1.6378 7.3271-3.6948 10.644-6.155 5.5412-4.114 10.203-9.3431 12.819-15.586 0.31391-0.7511 0.30503-2.5352-0.0268-4.2532 0.16598 0.0572 0.33899 0.10517 0.50672 0.16234-19.405-6.4744-33.478-20.081-40.646-36.466" fill="#d8a500"/>
  <path d="m33.371 271.98c-0.07679-1.1008-0.43354-2.4513-1.0919-3.6181-3.4575 3.049-10.135 7.9551-14.506 10.619 0 0.10884 0.02869 0.18909 0.07679 0.22476 0.78493 0.58872 7.5287-2.2087 11.696-3.7662 2.3978-0.89381 3.8947-2.4513 3.8251-3.4593" fill="#dcdddd"/>
  <path d="m42.972 278.72c1.4933-2.6119-2.3478-9.3485-5.5377-9.4377-4.7081-0.13034-14.312 13.809-13.116 15.154 0.71008 0.79747 17.414-3.545 18.654-5.7161" fill="#fff"/>
  <path d="m42.972 278.72c0.91168-1.595-0.16949-4.7224-1.8732-6.9418-3.479 4.0677-9.4984 8.824-16.879 12.244 0 0.18568 0.02124 0.32649 0.09816 0.41393 0.71008 0.79747 17.414-3.545 18.654-5.7161" fill="#dcdddd"/>
  <path d="m50.77 283.1c0.94018-1.677-2.5227-8.4618-5.2112-8.2745-4.8116 0.3354-13.375 11.291-12.069 12.528 0.84211 0.79748 16.262-2.437 17.28-4.2532" fill="#fff"/>
  <path d="m50.77 283.1c0.5281-0.94198-0.33363-3.4985-1.6681-5.5217-3.784 3.982-9.7892 7.6233-15.739 9.3449 0 0.18908 0.03053 0.33896 0.12664 0.42994 0.84211 0.79748 16.262-2.437 17.28-4.2532" fill="#dcdddd"/>
  <path d="m195.68 155.24c2.1784 0.14634 4.246 0.47277 4.8169 0.11591-1.4326-1.5985-3.3522-3.222-5.5716-4.6957z" fill="#dcdddd"/>
  <g fill="#0f141b">
   <path d="m87.738 19.767"/>
   <path d="m115.41 85.604c-4.0837 5.1934-12.804 8.7776-21.557 9.2735l-3.9409 1.1258c11.398 1.2185 21.385-3.1881 26.425-9.7963 1.3648-1.7912 0.46388-2.3728-0.92769-0.60301"/>
   <path d="m83.764 82.783c0.56021-0.81533 1.1972-1.4504 1.7021-1.7858 1.0597-0.71006 1.8215 0.51023 0.73682 1.1757-0.50673 0.30862-1.2114 0.91342-1.611 1.313-0.98477 0.98659-1.6378 0.47634-0.82786-0.70291"/>
   <path d="m72.451 82.555c-0.33899-0.45138-0.94203-1.1311-1.2631-1.4647-0.88134-0.91701 0-1.8501 0.89021-0.93306 0.4478 0.46564 0.86885 1.2114 1.0954 1.7769 0.44242 1.1061-0.12667 1.4148-0.72257 0.62087"/>
   <path d="m129.95 57.618c-1.5147-17.411-7.7749-38.425-32.495-40.065-16.613-1.0901-38.074 14.677-29.846 42.971l1.0366-0.69044c-7.568-26.593 13.541-41.61 28.681-40.607 23.177 1.5361 28.929 21.535 30.543 38.689 1.4683 15.578-1.0294 25.682 7.8926 40.107l1.2828-0.42638c-8.5563-15.236-5.5734-22.479-7.0952-39.979"/>
   <path d="m164.19 162.73c-10.192-7.4449-21.113-22.345-38.785-33.43-1.6592-1.0401-1.0829-2.0142 0.58694-0.99194 21.22 12.99 29.74 25.869 39.119 32.757 4.0944 3.0061 17.295 12.071 25.819 1.8929 7.2718-8.683 3.2291-19.892-4.0659-27.933-12.567-13.848-44.145-23.252-53.666-39.317-0.51736-0.87241 0.0388-1.281 0.6333-0.45851 10.995 15.211 40.848 23.562 54.273 38.359 8.0086 8.8257 12.355 21.257 4.4263 30.722-8.221 9.8177-20.11 4.4102-28.34-1.6003"/>
   <path d="m141.2 140.48-4.5779-3.47c9.4769 13.157 15.454 24.55 18.023 35.084l2.8438 3.47c-2.0214-10.337-7.386-22.094-16.288-35.084"/>
   <path d="m147.25 302.23c-11.686-9.2254-14.228-15.416-13.896-21.502 0.36397-6.6973 9.245-18.131 8.1549-23.912-1.0918-5.7822-27.569-14.301-31.96-39.208-1.9-10.783 4.7332-26.666 8.3316-32.199 1.4932-2.2889 2.4905-1.6395 1.0044 0.65297-3.511 5.4004-8.7472 20.356-7.179 30.859 3.1239 20.909 29.942 33.571 31.201 39.604 1.438 6.8847-7.0845 17.8-7.4413 24.32-0.31039 5.7019 1.7556 10.763 13.034 19.667 10.406 8.2138 40.962 3.7447 41.321-6.4226 0.3354-9.5198-19.864-20.964-22.317-37.888-1.8501-12.772 8.6402-28.832 7.1273-43.137-1.6449-15.552-13.523-32.026-22.424-42.68-1.8109-2.1712-0.8992-2.9312 0.92056-0.76713 8.997 10.769 21.735 26.085 23.748 43.049 1.7984 15.166-9.2824 32.63-7.7446 43.292 2.3157 16.067 22.891 26.989 22.684 38.241-0.23026 12.549-33.665 16.635-44.566 8.0283"/>
   <path d="m111.11 90.613-1.074 0.65297c7.5858 31.703-10.059 73.703 4.726 101.36l0.74571-1.9072c-12.949-29.888 3.6128-64.087-4.3977-100.11"/>
   <path d="m44.78 192.29c-0.42642-41.913 36.463-76.369 38.871-95.702l-1.5593-0.0947c-2.4459 18.626-39.936 54.678-39.519 95.661 0.38182 37.503 36.008 79.136 99.124 63.439l-1.8572-1.8572c-57.038 13.721-94.657-21.949-95.06-61.447"/>
   <path d="m233.82 131.77c-8.6331-42.084-58.078-90.789-66.729-84.67-2.3532 1.6645-0.92593 5.4592-2.5531 10.958-8.1246 27.448-19.708 36.609-29.194 39.273l1.2613 1.5111c9.7124-2.9455 21.525-12.774 29.651-40.231 1.1846-3.9999 0.30504-8.7401 1.9874-9.9301 6.2157-4.3906 55.905 41.906 64.403 83.33 0.29265 1.4255 0.31578 2.2497 0.27303 2.6618-0.29441-0.34967-0.79391-1.1525-1.4112-2.7564-13.197-34.316-51.661-73.225-58.287-70.749-7.6822 2.8706-5.3861 27.774-32.723 41.601l0.9991 0.84027c26.265-12.51 25.819-38.35 32.117-40.712 5.9123-2.2194 44.191 36.727 56.776 69.45 1.2684 3.2934 2.1784 3.7483 2.6619 3.7483 0.11959 0 0.21217-0.0286 0.27829-0.0464 0.55486-0.16417 1.2078-0.7832 0.49063-4.2782"/>
   <path d="m181.36 118.23c1.1542-10.799-1.4201-35.467-5.5324-50.357-0.42816-1.5486 0.42457-1.8537 0.91169-0.32473 5.1809 16.253 7.3218 38.459 5.6483 50.831-0.26941 1.9946-1.2435 1.8768-1.0276-0.14975"/>
   <path d="m226.71 123.04c-19.014-16.706-36.475-13.061-45.094 2.016-4.4512-4.2728-9.9443-6.023-15.594-6.5939l2.9723 1.9054c4.5155 0.86527 8.7829 2.8313 12.383 6.0729 0.46388 0.41571 0.60839 0.43354 0.92777-0.1605 6.7705-12.513 24.873-20.253 45.736-0.39428z"/>
   <path d="m17.982 126.44c-10.125 0.7939-16.281 7.006-16.197 15.942 0.09066 9.6125 8.0371 17.057 20.183 17.78 12.249 0.72611 22.422-1.4754 32.119-9.2343l1.6306-3.1899c-6.9454 6.3584-16.749 11.593-33.671 10.592-9.8551-0.58518-18.367-6.5493-18.456-15.955-0.05552-5.8928 3.8625-13.479 14.435-14.308 27.983-2.1944 52.983-12.155 63.165-25.623l1.1543-3.9356c-9.5751 16.842-40.488 26.058-64.362 27.931"/>
   <path d="m1.1223 127.57c-0.7333 0.93485 0.91159 4.0784 3.5235 6.783l0.70472-0.98299c-2.1105-2.2408-3.2863-4.3852-2.9955-4.8973 0.44427-0.78321 5.0382-0.86705 8.51 0.42103l1.7965-0.84387c-3.9374-1.9125-10.604-1.6734-11.539-0.47991"/>
   <path d="m-3.8921 141.25c0-0.81533 3.4057-2.4442 6.915-3.3772l0.61553-1.5789c-3.9249 0.8938-8.931 3.3398-9.0809 4.9204-0.10881 1.1382 3.8429 4.3032 8.7758 6.1568l-0.74034-1.7305c-3.9071-1.6556-6.4798-3.6217-6.485-4.3906"/>
   <path d="m2.0366 155.78c-0.26405-0.52451 0.33899-1.7341 2.9223-5.0364l-0.76892-1.3077c-1.8732 2.3086-3.9945 6.139-3.536 7.056 0.56372 1.1257 6.1122 1.0169 11.113 0.33184l-1.8483-1.0633c-4.114 0.59587-7.6234 0.53343-7.8821 0.0183"/>
   <path d="m67.284 57.476-0.4674-1.8876c-17.22 12.494-41.961 40.48-49.213 71.334l1.5218-0.091c7.2291-30.106 31.464-56.355 48.159-69.355"/>
   <path d="m20.625 126.72 1.3166-0.0587c7.6179-18.631 22.372-38.88 38-52.319l0.25156-2.1034c-16.251 13.657-31.79 35.173-39.569 54.482"/>
   <path d="m22.588 123.97-0.65827 2.5334c9.6089-11.354 22.925-12.722 30.161-6.544l1.9214-0.73859c-7.5483-7.0131-20.693-6.6099-31.424 4.7492"/>
   <path d="m65.733 89.752-1.3184-1.4094c-1.2507 6.5885-1.9036 19.177-1.4576 27.216l1.165-0.61014c-0.36388-7.6037 0.48711-18.64 1.611-25.196"/>
   <path d="m107.05 40.646c-7.2077 0-7.9338 19.25-5.0972 20.536 2.0053 0.90988 10.362-0.0873 11.398-1.0972 1.8054-1.7627 0.12851-19.439-6.3013-19.439m-5.5913 21.628c-3.8108-1.727-3.1703-22.115 5.2024-22.811 8.6866-0.69223 9.8979 19.164 7.527 21.478-1.3381 1.3059-9.8927 2.619-12.729 1.3327"/>
   <path d="m104.57 43.388c-1.2167 0.021-2.3014 0.79926-3.2113 1.9482-2.33 6.0962-1.834 15.404 0.34796 16.392 1.115 0.50666 3.932 0.50309 6.5813 0.20876 1.4879-2.0267 2.2551-5.345 2.0677-9.2628-0.24783-5.1595-2.5743-9.3431-5.7857-9.286"/>
   <path d="m109.43 81.939c-3.0418 6.9418-21.375 19.509-38.32 10.158-14.162-7.816-12.794-27.512-0.44418-32.493 0.21408-0.0858 0.3586-0.28547 0.37461-0.5156 0.66012-9.7642-0.98478-17.568-3.6252-17.698l-0.24981 1.2238c1.4648-0.41033 3.4289 4.412 2.719 15.848-13.318 5.7376-15.218 26.773 0.41745 35.403 16.982 9.3752 37.983-2.6957 40.209-11.562 0.61728-2.4566-0.0637-2.685-1.0811-0.36396"/>
   <path d="m193.78 143.22 1.2078 3.5021c2.9294 3.3594 5.2487 7.816 5.0382 8.0871-0.19276 0.24809-2.2016 0.13926-3.9499-0.31576l-0.22318 1.5539c2.8278 0.29079 4.9258 0.11067 5.3326-0.4032 0.94917-1.206-3.9071-8.7776-7.4057-12.424"/>
   <path d="m58.833 246.54c-25.648-3.106-36.076-46.475-13.14-72.891l1.1222-4.1069c-29.603 31.371-13.896 75.892 11.905 78.192 2.685 0.23918 2.842-0.86349 0.11241-1.1935"/>
   <path d="m55.803 246.75c-0.22481 1.7519-0.97589 1.9161-2.0214 2.0142-11.571 1.09-28.103 10.533-29.014 18.349l1.8519-1.1436c2.6744-5.8482 17.596-14.892 27.514-15.828 1.859-0.17493 2.9276-1.008 3.2113-2.9776z"/>
   <path d="m89.895 254.05-1.5004-0.47099c0.37997 1.3969 0.47277 3.0436 0.0573 4.048-5.4753 13.232-23.4 22.947-35.972 25.048-0.33723 0.0572-0.85099 0.0732-1.4398 0.0391l-1.4558 1.5218c0.94379 0.19276 1.9857 0.25858 2.983 0.091 14.392-2.4067 30.739-10.233 37.358-26.035 0.43706-1.0437 0.28542-3.2292-0.0305-4.2425"/>
   <path d="m18.669 278.47c-0.37822-0.42459 5.4182-12.44 9.9533-11.959 2.5065 0.27831 3.8089 2.9776 4.0962 5.0239l1.0455-0.91166c-0.53522-2.3371-2.0338-5.4753-4.8991-5.7946-5.9213-0.67438-13.19 14.012-11.666 15.157 0.74579 0.55664 5.1024-0.83493 10.472-2.8937l1.6324-2.3372c-0.75468 0.28369-10.292 4.098-10.635 3.7144"/>
   <path d="m37.401 268.46c-5.1149-0.0695-15.368 14.231-13.693 16.42 0.74756 0.97589 8.1353-0.97411 11.58-2.0302l1.3309-1.8287c-1.5378 0.50846-11.202 3.3398-11.646 2.7938-0.60128-0.73682 7.964-13.595 12.462-13.641 1.8322-0.0184 4.4548 3.3968 5.0525 5.6466l1.0954-0.54056c-1.2078-4.0837-3.8928-6.7884-6.1818-6.8205"/>
   <path d="m42.972 278.72"/>
   <path d="m50.771 283.1m-16.722 3.7251c0.48536 0.64581 14.924-2.801 15.793-4.2175 0.67622-1.2114-2.2657-7.1737-4.255-6.9917-4.1658 0.28904-12.267 10.233-11.538 11.209m-1.131 0.98121c-1.4861-1.9125 7.0685-13.421 12.587-13.805 3.4896-0.25858 7.2933 7.568 6.1068 9.6857-1.2488 2.2247-17.734 5.3557-18.693 4.1194"/>
   <path d="m111.87 98.733-0.27653-1.0133c-7.5662 3.8892-21.514 4.9436-29.38 3.1453l-0.34074 0.95981c9.0255 2.0981 21.455 1.2007 29.997-3.0918"/>
   <path d="m112.56 112.69-0.0183-1.1061c-9.7998 1.1793-25.91 1.2149-35.178-0.56735l-0.62793 0.99729c10.335 2.0874 25.906 1.8501 35.819 0.67618"/>
   <path d="m69.271 124.89-1.0241 1.3398c9.4823-2.3496 34.393-2.0659 43.631 1.2738l0.0926-1.1311c-9.8194-3.3612-31.667-3.6841-42.7-1.4826"/>
   <path d="m61.74 137.71-0.86347 1.2524c13.207-2.0267 39.405-2.6404 49.617 3.5521l0.0928-1.256c-11.439-6.3673-34.848-5.5306-48.846-3.5485"/>
   <path d="m52.569 155.12-0.63154 1.2916c16.87-3.2131 45.595-1.7502 57.324 4.3424l0.13926-1.2256c-14.103-6.9989-41.08-7.213-56.831-4.4084"/>
   <path d="m45.987 175.35-0.37821 1.2399c13.206-2.4121 51.381-2.3336 65.207 2.8117l-0.34962-1.3595c-15.751-5.3647-49.413-5.2434-64.48-2.6921"/>
   <path d="m115.03 191.81-0.59583-0.96876c-16.904 5.7697-56.615 5.2773-70.437 0.33006l-0.10344 1.1347c16.854 5.8714 53.818 5.5788 71.136-0.49596"/>
   <path d="m46.166 208.44 0.42818 1.413c18.049 7.9944 45.185 8.5635 63.511 0.7404l0.13192-1.2702c-18.674 8.2834-48.865 6.2888-64.071-0.88312"/>
   <path d="m111.08 221.76c-18.267 11.1-38.313 11.427-55.775 5.2826l1.14 1.6681c18.003 5.8071 36.573 5.2059 55.099-5.8196z"/>
   <path d="m67.959 241.51 2.2979 1.8055c17.136 4.5208 33.514 2.0017 46.778-10.686l-0.6815-0.99016c-12.719 12.262-31.137 15.25-48.394 9.8712"/>
   <path d="m126.5 242.97c-5.6572 5.8196-19.318 11.386-28.26 12.81l2.644 0.6815c11.297-2.371 20.615-6.7045 26.541-12.749z"/>
   <path d="m135.98 250.57-0.93668-0.75111c-1.7306 2.0677-4.8991 4.7528-8.7526 7.1166l2.9473-0.35502c2.8705-2.032 5.3022-4.28 6.742-6.0105"/>
  </g>
  <path d="m103.99 46.104c1.0722-5e-3 1.7626 0.9402 1.7965 2.5316 0.0286 1.2738-0.68334 2.6476-1.8465 2.6012-1.3256-0.0553-1.7609-1.2702-1.7859-2.33-0.0351-1.6199 0.85098-2.7974 1.8359-2.8028" fill="#fff"/>
  <path d="m69.344 44.386c-1.875 0.82422-2.883 4.6689-2.4084 10.717l1.1596 5.0578c0.73146-0.45316 1.5004-0.85992 2.3246-1.1918 0.38896-5.7447 0-11.466-1.0758-14.583" fill="#0f141b"/>
  <g fill="#fff">
   <path d="m68.881 47.557c-0.96692 0.0501-1.033 3.3041 0 3.3041 1.033 0 0.89567-3.3505 0-3.3041"/>
   <path d="m174.75 166.57c-1.0115 1.5486 4.9936 8.956 6.6956 8.601 1.115-0.23184 2.5566-6.0444 2.1837-6.9275-0.37109-0.88311-8.0889-2.883-8.8793-1.6734"/>
   <path d="m187.9 166.52c-1.7074-1.5432 4.7331-9.6268 6.6028-7.6251 1.3005 1.3951 3.1149 9.6714 2.2764 10.462-0.83665 0.79034-7.4377-1.5343-8.8792-2.8366"/>
   <path d="m180.84 303.42c-1.5504-5.0382 0.75459-10.949 4.2586-11.787 2.387-0.57091 4.6653 3.0311 5.2433 4.8812 1.2988 4.1533 0.43354 13.623-1.7663 14.123-0.80102 0.18384-7.5733-6.6902-7.7356-7.2165"/>
   <path d="m164.69 303.52c-0.92954-5.8285 4.6653-10.644 7.7892-10.644 3.2702 0 6.3852 4.9846 7.1648 10.851 0.76181 5.7429-0.26042 10.956-1.2471 11.008-0.99902 0.0535-13.136-7.6322-13.707-11.215"/>
   <path d="m160.12 310.38c1.0384-2.0249-0.26042-15.628-6.0747-17.808-5.1399-1.9286-9.5715 3.7323-9.1379 6.3334 0.51912 3.115 14.529 12.808 15.213 11.475"/>
  </g>
  <path d="m87.738 19.767c0-1.9339 6.2478-11.199 7.5002-11.199 1.6359 0 6.5796 10.239 6.5778 11.234-0.0176 3.0561-14.085 3.0204-14.078-0.0357" fill="#fabe00"/>
  <path d="m96.011 22.047c3.0615-0.15163 5.8-0.89738 5.8035-2.2444 0-0.9955-4.9401-11.232-6.5761-11.232-0.0342 0-0.0731 9e-3 -0.11416 0.0212 1.017 4.0944 1.4433 8.7526 0.8867 13.455" fill="#d8a500"/>
  <path d="m76.484 30.878c-0.7458 0-1.6735-0.43889-2.041-1.6734-1.3006-4.3656-6.9561-5.3968-13.504-6.5886-6.5832-1.1989-14.046-2.5566-18.868-7.7178-3.049-3.263-4.0124-8.3726-2.6422-14.019 1.7948-7.3985 6.9346-13.777 12.788-15.869 0.61905-0.22122 1.1881-0.33362 1.6912-0.33362 1.2096 0 1.7823 0.64404 1.9161 1.2453 0.2177 0.9848-0.54235 2.0392-1.9374 2.6868-5.8018 2.6975-9.7553 7.659-10.847 13.612-0.7458 4.0694 0.0786 8.039 2.0998 10.112 4.0944 4.1961 10.423 5.329 16.54 6.4262 7.5501 1.3523 14.681 2.6297 16.581 9.5965 0.18549 0.67615 0.0842 1.3166-0.28727 1.8019-0.34436 0.45135-0.90095 0.72076-1.4896 0.72076" fill="#fff3c3"/>
  <path d="m107.45 29.03c-0.69037 0-1.3238-0.34075-1.6503-0.88666-0.3229-0.54057-0.31401-1.2149 0.0268-1.8465 2.6939-5.0043 7.2807-8.6491 12.911-10.265 2.0267-0.57983 4.0766-0.851 6.4529-0.851 1.5468 0 3.0561 0.10884 4.6564 0.22481 1.6877 0.12132 3.4325 0.24618 5.3184 0.24618 3.5698 0 6.8721-0.46564 10.39-1.4683 8.2173-2.3425 13.935-6.0765 16.531-10.799 1.6681-3.0293 2.0214-6.4155 1.0222-9.7891-0.24442-0.83138-0.15158-1.5932 0.26069-2.1462 0.3585-0.47813 0.92055-0.75287 1.5413-0.75287 0.97589 0 2.0946 0.70648 2.3996 2.2854 2.2462 11.641-5.3754 20.727-20.906 24.932-3.5521 0.95983-7.0488 1.4076-11.008 1.4076-1.9856 0-3.816-0.10705-5.5877-0.2123-1.5646-0.0928-3.04-0.1802-4.4548-0.1802-1.9964 0-3.5984 0.18199-5.0417 0.56912-7.6001 2.0463-9.7963 6.4369-10.517 7.8802-0.51747 1.0347-1.3934 1.652-2.3461 1.652" fill="#fff3c3"/>
  <path d="m118.31 18.472c-5.982 1.8947-9.1683 5.7554-11.625 10.396 0.23734 0.0962 0.49239 0.16233 0.76356 0.16233 0.95092 0 1.8286-0.61727 2.346-1.652 0.72082-1.4433 2.9169-5.8339 10.517-7.8802 1.4433-0.38714 3.0436-0.56912 5.04-0.56912 1.4147 0 2.892 0.0874 4.4548 0.1802 1.7716 0.10527 3.6038 0.2123 5.5894 0.2123 2.7974 0 5.3629-0.22837 7.8802-0.69935-10.918 0.40855-17.113-2.6368-24.966-0.14986" fill="#dcd2a9"/>
  <path d="m46.169 13.274c-0.35509-0.29794-0.70111-0.60658-1.0276-0.94199-2.0231-2.0731-2.8474-6.0426-2.1017-10.112 1.0918-5.9534 5.0453-10.915 10.849-13.612 1.3933-0.64761 2.1534-1.702 1.9357-2.6868-0.0731-0.33718-0.29254-0.6833-0.67788-0.92593-0.0999 0.72612-0.65476 1.6485-2.0321 2.1623-11.86 4.4298-15.676 21.047-6.9453 26.117" fill="#dcd2a9"/>
  <g fill="#dcdddd">
   <path d="m188.98 310.43c-2.123-5.2184-5.5537-10.772-8.0515-14.055-0.69398 2.1337-0.82239 4.6832-0.0962 7.0453 0.16233 0.5263 6.9347 7.4003 7.7374 7.2183 0.14267-0.032 0.27831-0.10517 0.41033-0.20876"/>
   <path d="m166.3 297.02c-1.2382 1.8072-2.0017 4.0641-1.6128 6.5047 0.57267 3.5824 12.708 11.268 13.709 11.215 0.0677-3e-3 0.13558-0.0357 0.20508-0.0873-2.7081-5.1149-7.5715-12.276-12.301-17.632"/>
   <path d="m147.41 294.01c-1.711 1.5004-2.7224 3.5788-2.5049 4.8865 0.45492 2.726 11.236 10.487 14.385 11.491-4.6153-4.3531-9.7481-11.109-11.88-16.378"/>
   <path d="m182.67 173.25c0.6887-1.8483 1.1971-4.437 0.95803-5.0025-0.37285-0.88313-8.0907-2.883-8.881-1.6734-0.21243 0.32468-0.11251 0.91342 0.19249 1.6324 3.8447 1.3595 6.2478 2.3371 7.7303 5.0436"/>
   <path d="m196.79 169.35c-2.8367-1.8483-5.593-4.0944-7.8946-6.6688-1.074 1.6181-1.6627 3.2345-0.99189 3.8411 1.4415 1.3024 8.0426 3.627 8.8811 2.8367v-0.0105"/>
  </g>
  <g fill="#0f141b">
   <path d="m174.75 166.57m0.81536 0.52452c-0.78853 1.0205 4.3424 7.8302 5.7054 7.3967 0.74756-0.23735 2.0553-5.1417 1.5772-5.9891-0.56918-1.0062-6.6367-2.2461-7.2825-1.4076m-1.6627-1.0044c1.0401-1.5896 9.8872 0.40498 10.513 1.8929 0.35861 0.85097-1.0062 7.5787-2.8081 7.9533-2.1462 0.45851-8.9792-7.8963-7.7053-9.8462"/>
   <path d="m196.23 168.81c-0.42992 0.40141-6.1781-1.3059-7.7749-2.7493-0.85635-0.77248 2.8938-6.5725 5.3505-6.5725 1.156 0 2.8741 8.9025 2.4244 9.3217m-1.3344-10.43c-2.2462-2.4941-9.9694 6.362-7.5306 8.6937 1.347 1.2863 8.9061 3.7822 9.9373 2.8081 1.2844-1.2132-1.1686-10.126-2.4067-11.502"/>
   <path d="m188.04 309.47c-1.6128-1.3791-6.2924-5.8339-6.5332-6.3548-1.5094-3.2809 0.34961-9.9087 3.7447-10.722 1.6735-0.39963 3.7929 2.553 4.3567 4.3567 1.2738 4.0766 0.2819 10.565-0.57983 12.537-0.28365 0.65116-0.44778 0.64581-0.98837 0.18384m3.024-13.181c-0.86708-2.7742-3.2345-6.1229-6.1246-5.4324-4.3817 1.049-6.321 7.7714-4.7224 12.963 0.2106 0.6851 5.1167 5.511 7.3807 7.1416 0.82425 0.59229 1.2542 0.75465 1.859 0.13743 1.9322-1.9696 2.892-10.699 1.6074-14.81"/>
   <path d="m178.26 313.94c-0.80278 0.23026-12.214-8.1853-12.592-10.556-0.77781-4.883 3.6823-9.7285 6.7955-9.7285 2.8687 0 5.7304 4.5155 6.4869 10.212 0.50839 3.8268 0.16942 9.8266-0.69047 10.073m2.1052-10.487c-0.84738-6.378-4.2246-11.454-7.7286-11.454-4.1907 0-9.6874 5.7054-8.7276 11.728 0.60657 3.8072 12.945 12.164 14.731 11.798 1.4434-0.29438 2.6351-5.2113 1.7252-12.073"/>
   <path d="m159.66 309.72c-1.0205 0.66902-13.407-8.551-13.826-11.065-0.41743-2.5048 3.727-6.8294 8.014-5.2238 5.0596 1.8947 6.6296 15.753 5.8125 16.288m-5.2826-17.94c-5.1862-1.9446-11.029 3.6627-10.43 7.2576 0.55834 3.3558 14.401 13.43 16.59 11.994 1.2346-0.80996 0.65651-16.693-6.1604-19.252"/>
   <path d="m95.235 9.509c-1.0526 0-7.1808 9.2843-6.8259 10.249 0.70647 1.9268 11.632 2.1284 12.56-2e-3 0.30688-0.70471-4.7313-10.248-5.734-10.248m-8.1835 10.235c0.0212-1.9857 6.3566-11.992 8.2085-11.992 1.85 0 7.37 10.86 7.3485 12.085-0.0731 3.9874-15.602 4.0944-15.557-0.0928"/>
   <path d="m52.006-15.665c-11.759 4.205-18.599 22.486-10.517 31.137 9.9658 10.667 29.713 5.4271 32.24 13.9 1.1329 3.8054 6.0391 2.2318 5.1095-1.1757-3.561-13.056-23.888-6.965-33.06-16.365-3.8144-3.9089-3.3398-17.134 8.3868-22.584 1.6591-0.77072 2.685-2.2586 2.4049-3.5289-0.3586-1.6199-2.4138-2.1516-4.5637-1.3826m1.6289 3.7305c-12.342 5.7358-13.684 19.807-8.9239 24.684 9.3306 9.5608 29.68 3.6894 32.971 15.762 0.56196 2.057-2.1213 2.3442-2.6654 0.52095-2.7814-9.3289-23.025-4.3941-32.507-14.544-7.4163-7.9391-0.46389-25.207 9.9087-28.916 2.8455-1.1864 4.0854 1.1793 1.2167 2.4923"/>
   <path d="m146.24 17.334c-11.434 3.0954-19.152-0.28187-26.09 1.586-7.7036 2.0731-10.08 6.5136-10.897 8.1888-1.0722 2.198-3.8554 1.2702-2.9063-0.52808 2.4691-4.6742 6.8437-8.3369 12.549-9.9729 8.8739-2.5459 14.387 1.6913 26.816-1.8501 16.271-4.6368 20.21-13.737 17.966-21.334-0.40319-1.363 0.35676-2.1302 1.2274-2.1302 0.74571 0 1.5717 0.56554 1.8108 1.8001 2.2158 11.489-5.5734 20.206-20.476 24.24m21.823-24.5c-0.36934-1.9143-1.6039-2.908-3.1596-2.9794-1.7037-0.07847-3.2166 1.6271-2.5368 3.9249 2.4263 8.2049-4.0052 16.008-17.002 19.712-11.914 3.3951-17.719-0.6387-26.798 1.9642-5.7875 1.661-10.503 5.4093-13.273 10.558-1.7698 3.2845 3.1418 5.5288 5.0096 1.7912 0.69223-1.3844 2.8189-5.7518 10.16-7.7285 6.5208-1.7555 14.185 1.7502 26.142-1.4861 16.606-4.4941 23.819-13.518 21.459-25.756"/>
  </g>
 </g>
</svg>
