<?xml version="1.0" encoding="UTF-8"?>
<!-- Created with Inkscape (http://www.inkscape.org/) -->
<svg version="1.1" viewBox="0 0 101.95 129.41" xmlns="http://www.w3.org/2000/svg">
 <g transform="translate(-.77753 -1.1691)">
  <g transform="matrix(.54766 0 0 -.54766 54.799 75.804)">
   <path d="m0 0c21.297-3.937 34.923 29.876 49.355 46.025 7.829 8.758 19.473 11.534 25.436 8.782 8.135-3.755 12.213-13.321 12.213-26.142 0-20.923-18.3-53.951-31.996-67.12-11.046-10.621-17.552-11.012-20.792-7.772-2.17 2.17-4.364 9.088 2.826 18.37 5.552 7.167 21.902 17.966 26.142 21.701 4.061 3.577 8.63 9.756 12.919 21.397 5.003 13.581 1.822 32.431-6.762 31.895l-1.615 1.179 4.126 1.627 3.847-3.008c-4.489 2.565-14.151-1.242-21.599-13.222-7.814-12.569-12.011-36.437-29.775-58.642-4.572-5.715-11.244-10.44-19.43-12.614-2.574-0.684-7.418-3.182-18.849-3.182-24.757 0-48.371 16.272-48.371 37.245 0 6.277 1.65 12.428 4.642 17.46 2.466 4.147 9.13 8.242 13.475 7.267 2.47-0.553 5.338-3.59 5.501-7.822 0.05-1.312 0.05-9.033 1.716-12.414 0.958-1.615 36.991-1.01 36.991-1.01" fill="#9c7fa6"/>
  </g>
  <g transform="matrix(.54766 0 0 -.54766 50.68 21.412)">
   <path d="m0 0c0 3.788-4.887 14.071-5.299 16.2-1.816 9.387 2.574 18.47 1.514 19.833s-10.446-0.605-11.657-3.028c-0.378-0.756-0.162-5.619-1.248-10.299-0.189 0.061-0.383 0.115-0.57 0.155-6.212 1.331-14.897-0.649-20.826-5.271-4.907 1.458-5.52 8.756-6.122 9.056-0.605 0.303-6.662-2.574-6.965-3.936-0.428-1.927 5.603-11.477 5.603-13.021 0-1.513-1.515-3.785-1.59-5.752-0.05-1.289 2.044-6.208 2.649-8.328 0.606-2.119 0.757-6.963 1.968-9.689 1.756-3.95 11.153-6.005 19.984-6.207 0.635-1.692-0.395-8.393-2.27-10.598-2.82-3.318 11.967-1.381 11.582 5.677-0.075 1.369 0.075 4.921 0.378 5.98 2.877 3.18 12.869 11.659 12.869 19.228" fill="#e6d4e7"/>
  </g>
  <g transform="matrix(.54766 0 0 -.54766 50.515 37)">
   <path d="m 0,0 c 3.206,7.054 1.084,13.426 -3.785,17.865 -1.287,1.173 -6.926,-4.769 -5.602,-5.601 2.496,-1.57 4.758,-4.875 4.012,-8.176 C -5.64,2.915 0,0 0,0" fill="#e6d4e7"/>
  </g>
  <g transform="matrix(.54766 0 0 -.54766 46.245 34.636)">
   <path d="m0 0c-4.333 0-7.391-2.243-10.371-5.224l-5.198 0.909c-1.312 0.404-2.927 0.807-4.743 0.807-4.083 0-10.547-6.345-12.718-13.726-1.323-4.497 0.338-13.081 4.441-16.553 0.023-0.02 0.046-0.027 0.068-0.043-0.286-2.135-0.878-5.221-1.834-7.653-1.968-5.005-6.884-11.049-10.789-18.201 4.87 4.178 7.967 5.912 11.496 5.912 3.24 0 6.509-3.876 6.509-7.772 0-2.927 0.505-9.74 1.665-12.364 0 14.356 7.227 21.802 11.254 21.802 2.776 0 5.299-0.733 5.299-0.733-2.144 2.86-3.33 4.729-3.33 7.722 0 5.147 7.923 11.834 9.588 13.348 6.261 5.692 12.112 15.542 12.112 21.196 0 7.001-7.671 10.573-13.449 10.573" fill="#e6d4e7"/>
  </g>
  <g transform="matrix(.54766 0 0 -.54766 20.749 79.203)">
   <path d="m0 0c4.321-5.651 27.839-12.869 49.961-12.869 43.905 0 57.683 66.161 80.847 66.161-4.829-2.414-11.279-7.174-13.853-12.036-1.363-2.573-4.088-7.569-5.829-11.734-1.741-4.163-6.737-18.016-10.977-26.191-7.833-15.106-13.849-24.417-20.287-28.463-11.036-6.937-20.756-9.387-31.34-9.387-15.223 0-27.63 5.696-34.291 11.204-3.936 3.254-8.252 7.796-10.673 12.263-2.423 4.466-3.558 11.052-3.558 11.052" fill="#836b8d"/>
  </g>
  <g transform="matrix(.54766 0 0 -.54766 35.422 110.38)">
   <path d="m0 0c1e-3 0.017 3e-3 0.036 4e-3 0.053 0.097 1.741-0.634 3.125-1.867 4.794-2.759 3.732-4.289 8.278-4.289 14.837 0 3.128 0.756 7.216 1.715 8.781-17.347 10.457-22.507 21.371-22.507 30.733 0 6.46 1.337 11.456 4.465 17.714 0.985 1.969 6.889 11.356 6.889 11.356-9.577-6.805-18.038-17.58-19.758-26.419-1.994-10.259 0.893-23.036 13.097-34.369 1.852-1.718 3.189-2.773 4.174-3.76 0.466-2.284 1.957-11.774 1.957-14.029 0-5.752-12.234-18.622-18.092-18.622-3.078 0-6.309 0.303-8.074 0.303-3.201 0-7.662-1.667-8.63-3.28-0.863-1.439 0.192-5.689 1.413-6.561 0.274-0.195 2.779-0.6 5.488-0.798 0.098-0.187 0.202-0.363 0.316-0.513 0.884-1.179 4.083-2.07 9.689-2.07 1.514 0 6.788 0.182 7.974 0.657 2.523 1.008 6.258 3.935 7.569 5.147 1.717 1.584 6.307 5.047 10.445 6.096 1.2-1.245 3.055-1.958 5.251-1.958 3.937 0 6.762 3.294 6.762 6.56 0 2.271-1.314 4.595-3.991 5.348" fill="#e6d4e7"/>
  </g>
  <g transform="matrix(.54766 0 0 -.54766 74.187 125.43)">
   <path d="m0 0c-0.833 0.983-4.164 4.996-4.996 6.358-0.833 1.363-2.251 4.165-5.678 6.813-0.025 0.02-0.054 0.036-0.08 0.055-1.896 4.829-5.002 12.945-6.052 14.934-1.438 2.725-15.291 25.737-15.67 28.69-0.378 2.952 2.953 20.135-2.952 33.383-8.41 18.87-23.968 26.273-28.463 23.278-1.475-0.985-4.794-4.568-5.639-6.17-2.863-5.425-4.719-20.222-0.19-31.869 4.063-10.446 7.871-13.524 14.737-17.159 1.715-0.908 9.386-4.844 10.901-6.762 1.514-1.918 14.735-25.738 15.14-26.747 0.301-0.754 0.602-4.38 0.694-6.756-0.022-0.012-0.043-0.019-0.064-0.032-5.422-3.253-6.172-8.005-4.239-11.127 0.032-0.053 0.071-0.114 0.112-0.179-2.929-0.251-5.184-2.153-5.184-6.635 0-3.33 3.187-6.132 6.889-6.132 2.844 0 4.968 1.017 6.436 2.282 4.353 0.646 9.623-0.484 12.565-2.282 0.128-0.078 0.316-0.127 0.536-0.154 0.968-0.797 2.263-1.489 3.929-1.965 4.628-1.322 7.81-0.259 8.554 2.347 0.481 1.679 0.103 4.186-1.286 5.829" fill="#e6d4e7"/>
  </g>
  <g transform="matrix(.54766 0 0 -.54766 28.229 48.11)">
   <path d="m0 0c-0.908-2.624-2.321-8.074-2.523-11.002-2.624-0.201-14.619-3.633-19.161-3.835l-0.23-0.29c0.172 0.421 0.262 0.881 0.286 1.396 0.029 0.615-0.809 3.969-0.751 5.047 0.042 0.797 1.341 1.898 0.492 3.193-0.413 0.631-3.28 1.534-4.325 1.788-0.973 1.062-2.441 2.037-3.448 2.185-3.457 0.51-6.169-2.153-5.969-5.034-1.231 2.066-3.94 3.484-5.818 3.244-2.006-0.255-3.256-1.783-3.644-3.66-0.022 8e-3 -0.045 0.017-0.065 0.022-0.595 0.135-1.535-0.088-1.836-0.558-0.3-0.47-0.699-1.564-0.916-1.844-0.216-0.279-1.542-1.168-1.62-1.681-0.078-0.514 1.379-2.918 1.673-3.528 0.293-0.61 1.162-2.622 1.649-3.063 0.488-0.442 3.869-1.846 4.6-2.22-0.248-0.319-1.771-1.629-1.766-1.952 6e-3 -0.323 0.302-2.084 0.719-2.534 0.418-0.45 2.873-2.384 3.942-2.6 0.533-0.107 8.912 0.232 10.238 1.17 0.553 0.392 1.293 1.668 1.855 2.744 0.063 0 0.122-8e-3 0.19-1e-3 12.747 1.247 26.529 0.909 27.942 1.413 0 0 0.799 4.189 1.405 5.665 0.605 1.476 1.211 4.504 1.388 6.75-3.155 2.965-4.114 7.217-4.307 9.185" fill="#e6d4e7"/>
  </g>
  <g transform="matrix(.54766 0 0 -.54766 40.689 23.692)">
   <path d="m0 0c3.056 1.455 4.139 6.615 2.914 14.27-6.39-2.766-9.768-8.073-11.354-12.832 3.042-1.436 6.818-2.21 8.44-1.438" fill="#fff"/>
  </g>
  <g transform="matrix(.54766 0 0 -.54766 42.47 17.312)">
   <path d="m0 0c-0.08 0.838-0.191 1.71-0.337 2.62-6.39-2.766-9.768-8.072-11.354-12.831 0.492-0.233 1.004-0.446 1.524-0.641 2.502 4.365 6.341 8.444 10.167 10.852" fill="#dbdcdc"/>
  </g>
  <g transform="matrix(.54766 0 0 -.54766 39.805 18.44)">
   <path d="m0 0c-0.978 0-2.044-1.727-2.044-5.072 0-2.189 0.899-4.29 2.296-4.29 0.933 0 1.969 1.889 1.969 4.341 0 2.736-1.237 5.021-2.221 5.021" fill="#a586bc"/>
  </g>
  <g transform="matrix(.54766 0 0 -.54766 40.41 18.893)">
   <path d="m0 0c-0.354 0.519-0.746 0.826-1.105 0.826-0.877 0-1.822-1.392-2.008-4.091 0.977 1.169 2.025 2.271 3.113 3.265" fill="#8f75a3"/>
  </g>
  <g transform="matrix(.54766 0 0 -.54766 29.165 24.708)">
   <path d="M 0,0 C -0.922,1.929 -1.296,4.648 -1.213,5.564 0.187,4.277 2.383,2.271 3.178,1.25 2.042,0.984 0,0 0,0" fill="#a586bc"/>
  </g>
  <g transform="matrix(.54766 0 0 -.54766 24.88 19.532)">
   <path d="m0 0c0.455-0.05 2.195-0.631 3.003-1.11 0-2.938 1.274-7.022 3.482-9.286-0.353-0.328-0.451-1.983-0.126-2.902 0.714-2.019 1.779-3.845 3.583-5.197 3.495-2.621 10.175-4.246 16.427-2.423 9.564 2.789 17.675 8.522 20.136 13.853-2.942-6.289-4.467-7.883-7.368-10.699-1.716-1.665-4.896-4.895-4.896-4.895-0.252-1.262-0.454-4.34-0.201-5.904-1.363-0.757-4.492-3.332-5.652-4.794-1.161-1.464-7.166-3.08-6.258-1.313s2.724 4.29 2.422 10.951c-10.761 0-17.734 2.87-19.48 5.198-0.908 1.211-1.665 3.381-1.918 6.056-0.252 2.675-0.201 3.583-0.554 4.643-0.354 1.059-2.6 7.822-2.6 7.822" fill="#cea6cc"/>
  </g>
  <g transform="matrix(.54766 0 0 -.54766 30.905 24.023)">
   <path d="m0 0c-0.795 1.021-2.99 3.027-4.391 4.314-0.038-0.419 0.022-1.221 0.185-2.15 1.23-0.749 2.456-1.545 3.59-2.345 0.22 0.074 0.431 0.137 0.616 0.181" fill="#8f75a3"/>
  </g>
  <g transform="matrix(.54766 0 0 -.54766 28.449 21.619)">
   <path d="m 0,0 c -1.665,1.495 -2.46,2.063 -3.652,2.819 0.135,-3.163 1.488,-7.554 3.577,-9.576 0.472,0.474 1.457,1.136 1.457,1.136 C 0.171,-3.313 0,0 0,0" fill="#fff"/>
  </g>
  <g transform="matrix(.54766 0 0 -.54766 28.449 21.619)">
   <path d="m0 0c-1.665 1.495-2.46 2.063-3.652 2.819 0.04-0.935 0.189-1.979 0.429-3.037 1.12-0.604 2.318-1.288 3.513-2.015-0.238 1.257-0.29 2.233-0.29 2.233" fill="#dbdcdc"/>
  </g>
  <g transform="matrix(.54766 0 0 -.54766 29.869 11.794)">
   <path d="m0 0c-0.908-0.757-5.829-5.678-7.532-8.251-0.341 1.514-3.217 7.002-4.315 9.387 2.196-1.856 9.614-2.272 11.847-1.136" fill="#cea6cc"/>
  </g>
  <g transform="matrix(.54766 0 0 -.54766 47.156 28.293)">
   <path d="m0 0c3.583-2.15 7.972-8.682 6.813-13.777-2.195 1.059-4.693 1.74-6.056 1.967 0.303 2.498-0.227 5.375-4.012 8.176z" fill="#cea6cc"/>
  </g>
  <g transform="matrix(.54766 0 0 -.54766 49.312 37.994)">
   <path d="m0 0c0.984 0.021 2.195-0.151 2.649-0.682 1.12-1.305 1.552-5.359 0.757-7.266-0.529 2.044-1.816 4.617-3.103 5.222-3.425 1.613-10.741-5.413-8.63-10.9 0.379-0.984 5.072-7.57 6.485-9.286-1.792-2.068-7.469-7.443-8.907-9.336-0.908 2.347-3.18 6.283-7.116 7.04 2.044 1.665 5.072 4.921 5.299 6.358 0.227 1.439 1.514 9.236 3.558 12.415 2.044 3.18 5.45 6.359 9.008 6.435" fill="#cea6cc"/>
  </g>
  <g transform="matrix(.54766 0 0 -.54766 29.62 57.355)">
   <path d="m0 0c-4.845-0.644-27.63-3.785-28.387-4.239l-0.771-1.892c3.345 0.378 22.346 1.21 26.281 1.135 1.136 1.211 2.877 4.996 2.877 4.996" fill="#cea6cc"/>
  </g>
  <g transform="matrix(.54766 0 0 -.54766 13.065 57.617)">
   <path d="m0 0c-1.554-2.119-4.797-2.848-8.831-2.271-0.354 0.05-2.321-2.271-2.675-2.473-0.353-0.201-3.229-1.614-3.18-2.17 0.051-0.555 2.524-2.473 3.432-2.675 0.908-0.201 9.387 0.454 10.295 1.161 0.909 0.706 2.675 4.24 2.802 4.668 0.126 0.429-1.187 1.489-1.741 1.691 0.049 0.757-0.102 2.069-0.102 2.069" fill="#cea6cc"/>
  </g>
  <g transform="matrix(.54766 0 0 -.54766 8.8087 52.007)">
   <path d="m0 0c1.175-2.202 6.309-2.573 9.185-0.252 1.199 0.968 3.157-1.038 1.867-2.221-1.211-1.11-2.069-1.362-3.33-0.959-0.606-0.504-1.364-1.008-2.675-1.008-4.088 0-5.047 4.44-5.047 4.44" fill="#cea6cc"/>
  </g>
  <g transform="matrix(.54766 0 0 -.54766 8.7809 52.422)">
   <path d="m0 0c-2.184-2.939-4.739-4.021-8.78-4.188-4.845-0.203-2.529-4.939-2.221-5.249 0.307-0.31 4.906-2.53 4.906-2.53s0.746 1.975 1.099 2.278c0.353 0.302 3.18 1.867 3.18 1.867s0.202 2.625 2.926 2.725c2.726 0.101 5.35-0.908 6.158-2.472-0.152 1.665 1.261 4.239 2.624 4.945-1.06-0.252-1.918-0.051-1.918-0.051-0.959-0.605-1.565-1.009-2.876-1.009-1.313 0-2.877 0.757-3.432 1.312-0.556 0.556-1.666 2.372-1.666 2.372" fill="#cea6cc"/>
  </g>
  <g transform="matrix(.54766 0 0 -.54766 47.654 7.109)">
   <path d="m0 0c-0.983-1.816-2.271-5.829-2.271-7.646 0-1.816 2.422-5.147 4.088-6.585-0.833 2.043-1.968 5.298-1.968 7.116 0 1.816 0.151 7.115 0.151 7.115" fill="#cea6cc"/>
  </g>
  <g transform="matrix(.54766 0 0 -.54766 75.969 102.17)">
   <path d="M 0,0 C -5.833,0 -1.977,12.306 4.088,18.37 14.383,28.665 48.296,46.328 48.296,77.819 48.296,66.335 42.854,49.542 34.67,34.821 22.634,13.172 8.811,0 0,0" fill="#836b8d"/>
  </g>
  <g transform="matrix(.54766 0 0 -.54766 16.064 76.508)">
   <path d="m0 0c1.236-2.044 4.972-4.77 8.604-5.779 0.606-3.735 3.123-11.508 8.883-17.461 3.028-3.129 7.469-7.267 13.424-10.144-1.01-2.574-1.716-5.601-1.716-9.235s1.009-9.008 2.826-11.96c1.817-2.953 3.407-4.669 3.331-7.217 1.438-0.581 3.987-2.423 3.987-5.4 0-2.978-2.877-6.561-6.763-6.561-2.977 0-5.251 1.958-5.251 1.958-1.889-0.57-4.615-1.554-6.431-2.917-1.818-1.362-9.059-7.771-11.885-8.478-2.826-0.706-5.855-0.807-8.984-0.606-3.129 0.202-7.67 0.903-8.692 2.685-2.157 0.116-4.959 0.344-5.488 0.798-0.531 0.454-1.363 2.12-1.363 2.12 2.043-0.607 4.542-0.985 6.207-0.985 1.363-0.908 6.132-2.12 10.22-2.12 6.073 0 12.339 6.74 12.339 10.069 0 1.362-1.817 3.633-4.845 4.088 6.561 5.5 10.85 11.442 10.85 14.634 0 0.556-0.908 9.286-2.271 14.585-11.809 9.79-17.814 20.201-17.814 30.582 0 4.744 0.832 7.344 0.832 7.344" fill="#cea6cc"/>
  </g>
  <g transform="matrix(.54766 0 0 -.54766 36.004 84.095)">
   <path d="m0 0c13.172-3.634 27.605-2.321 37.497 3.331 0.277-3.406 0.429-9.16 0.201-12.718-0.226-3.557-0.605-8.63-0.454-9.235 0.152-0.606 1.969-4.239 2.726-5.45 2.929-4.688-8.805-9.154-12.113-3.861-1.134 1.817-2.346 4.391-3.784 5.374-1.438 0.985-6.283 3.634-9.16 5.148-2.876 1.515-6.636 3.791-9.084 6.737-3.709 4.467-5.829 10.674-5.829 10.674" fill="#cea6cc"/>
  </g>
  <g transform="matrix(.54766 0 0 -.54766 56.374 117.65)">
   <path d="m0 0c0-0.959 1.211-4.037 2.775-5.249-0.302-0.757-1.236-2.17-2.018-2.17s-1.867 1.716-1.867 3.583 1.11 3.836 1.11 3.836" fill="#cea6cc"/>
  </g>
  <g transform="matrix(.54766 0 0 -.54766 53.555 125.5)">
   <path d="m0 0c0.605-0.858 3.886-2.423 6.661-2.423 2.776 0 6.562 1.886 7.974 2.272 1.665 0.454 8.832-0.203 9.992-1.061 1.161-0.857 4.239-4.188 7.57-4.188 3.33 0 6.611 1.11 7.166 1.967 0-3.493-1.575-5.298-5.45-5.298-1.312 0-5.804 0.656-8.226 3.331-2.473 0.858-7.212 2.34-12.312 1.751-1.617-1.196-3.534-2.282-6.437-2.282-6.535 0-6.938 5.931-6.938 5.931" fill="#cea6cc"/>
  </g>
  <g transform="matrix(.54766 0 0 -.54766 39.332 19.66)">
   <path d="m0 0c0.403 0 0.738-0.369 0.738-0.804 0-0.449-0.303-0.728-0.7-0.728-0.416 0-0.738 0.313-0.738 0.709 0 0.53 0.346 0.823 0.7 0.823" fill="#fff"/>
  </g>
  <g transform="matrix(.54766 0 0 -.54766 28.9 22.308)">
   <path d="m0 0c0.249 0.059 0.584-0.122 0.682-0.492 0.094-0.36-0.133-0.644-0.413-0.71-0.297-0.069-0.623 0.147-0.685 0.464-0.076 0.387 0.166 0.679 0.416 0.738" fill="#fff"/>
  </g>
  <g transform="matrix(.54766 0 0 -.54766 30.399 53.35)">
   <path d="m0 0c-4.257 3.831-6.33 12.03-4.828 17.138 2.218 7.542 8.794 14.117 13.398 14.117 1.947 0 3.69-0.522 4.947-0.908 0.271-0.083-0.034-1.067-0.303-0.985-1.189 0.366-2.784 0.785-4.593 0.785-4.468 0-10.455-7.344-12.224-13.357-1.229-4.182 0.344-12.019 3.91-15.657 0.125-0.128-0.208-1.222-0.307-1.133" fill="#0f141b"/>
  </g>
  <g transform="matrix(.54766 0 0 -.54766 40.275 35.59)">
   <path d="M 0,0 C -0.038,1.135 0.099,2.605 0.34,3.596 0.757,5.302 1.515,5.102 1.098,3.463 0.886,2.632 0.725,0.926 0.7,0 0.652,-1.763 0.059,-1.772 0,0" fill="#0f141b"/>
  </g>
  <g transform="matrix(.54766 0 0 -.54766 36.952 38.327)">
   <path d="m0 0c-0.108 0.125-0.339 0.352-0.826 0.718-0.752 0.563-0.479 1.015 0.384 0.645 0.53-0.227 0.984-0.513 1.192-0.757 0.186-0.215-0.648-0.725-0.75-0.606" fill="#0f141b"/>
  </g>
  <g transform="matrix(.54766 0 0 -.54766 32.574 44.037)">
   <path d="m0 0c0.311 0.412 4.874 6.046 5.621 7.191 0.924 1.418 1.632 1.057 0.7-0.397-0.683-1.065-5.034-6.548-5.754-7.23-1.109-1.05-1.554-0.877-0.567 0.436" fill="#0f141b"/>
  </g>
  <g transform="matrix(.54766 0 0 -.54766 31.745 48.307)">
   <path d="m0 0c-0.246 1.303-0.222 3.332 0.17 4.693 0.41 1.425 1.079 1.252 0.757-0.151-0.309-1.35-0.382-3.257-0.152-4.353 0.401-1.902-0.41-2.126-0.775-0.189" fill="#0f141b"/>
  </g>
  <g transform="matrix(.54766 0 0 -.54766 34.346 48.721)">
   <path d="M 0,0 C -0.218,2.37 0.795,7.285 1.438,9.292 2.052,11.205 2.703,10.881 2.146,9.063 1.627,7.369 0.594,1.83 0.681,0.075 0.757,-1.439 0.169,-1.844 0,0" fill="#0f141b"/>
  </g>
  <g transform="matrix(.54766 0 0 -.54766 46.787 51.826)">
   <path d="m0 0c6.39 5.754 11.943 15.511 11.943 20.814 0 6.862-7.717 10.058-12.933 10.058-4.177 0-7.148-2.262-9.715-4.783-1.347-1.322-1.732-0.967-0.53 0.504 2.7 3.305 5.711 5.4 10.245 5.4 5.631 0 14.357-3.615 14.357-11.179 0-5.644-5.989-15.556-12.674-21.577-2.213-1.993-9.42-8.405-9.42-12.966 0-2.9 2.551-6.321 4.898-8.857 0.193-0.209-2.393 0.691-2.494 0.826-2.073 2.766-3.434 4.819-3.434 8.031 0 5.023 7.459 11.66 9.757 13.729" fill="#0f141b"/>
  </g>
  <g transform="matrix(.54766 0 0 -.54766 20.306 77.462)">
   <path d="m0 0c0 15.796 13.172 28.866 16.528 36.902 1.479 3.54 2.007 8.615 2.007 9.728 0 1.509 1.867 2.559 3.544 2.559 2.936 0 4.697-1.814 5.984-3.138 0.771-0.794 1.437-1.48 2.04-1.48 3.577 0 9.78 7.608 9.78 9.024 0 1.115 1.415 7.443 3.41 11.433 3.184 6.366 9.039 8.67 12.314 6.884 1.438-0.784 2.195-6.069 1.247-8.701-0.095-0.268-0.773 1-0.714 1.363 0.412 2.537-0.368 6.074-1.026 6.434-2.785 1.519-8.3-1.239-10.899-6.441-1.985-3.967-3.302-10.127-3.302-10.972 0-1.832-6.516-10.053-10.81-10.053-1.039 0-1.845 0.83-2.779 1.791-1.287 1.325-2.745 2.826-5.245 2.826-1.268 0-2.514-0.758-2.514-1.529 0-1.326-0.655-6.436-2.079-10.105-3.305-8.516-16.164-21.688-16.164-36.525 0-20.85 25.155-39.485 53.429-36.694 0.126 0.011 0.963-1.327 0.68-1.358-28.659-2.996-55.431 15.285-55.431 38.052" fill="#0f141b"/>
  </g>
  <g transform="matrix(.54766 0 0 -.54766 57.392 96.097)">
   <path d="m0 0c8.168 2.661 14.803 6.966 19.187 12.446 11.302 14.127 17.145 29.075 21.84 41.086 2.712 6.937 5.054 12.928 7.9 17.506 6.819 10.97 15.669 15.347 20.914 13.783 2.308-0.688 2.078-1.498-0.157-0.852-4.401 1.269-12.987-2.38-19.882-13.475-2.796-4.497-5.122-10.447-7.816-17.337-4.72-12.076-10.391-27.136-21.791-41.386-4.51-5.637-11.322-10.397-19.681-13.121-0.054-0.017-0.785 1.262-0.514 1.35" fill="#0f141b"/>
  </g>
  <g transform="matrix(.54766 0 0 -.54766 73.095 101.56)">
   <path d="m0 0c-3.347 3.347-3.938 11.333 2.726 19.935 3.9 5.035 25.431 20.204 26.709 21.329 4.952 4.362 9.13 11.294 12.776 21.189 3.581 9.72 2.99 22.787-1.29 28.535-1.405 1.888-3.201 2.81-5.09 2.696-0.291-0.021 0.623 1.015 0.896 0.996 1.9-0.142 3.617-1.192 5.02-3.076 4.461-5.992 5.116-19.503 1.431-29.506-3.706-10.062-7.98-17.128-13.062-21.607-1.31-1.153-22.261-16.706-26.075-21.629-7.362-9.505-4.567-15.992-2.868-17.69 3.785-3.787 10.914-1.026 20.07 7.779 14.42 13.865 31.837 46.731 31.837 66.748 0 13.011-4.23 22.128-11.913 25.674-5.847 2.698-17.221-0.137-24.835-8.657-3.981-4.454-7.86-10.2-11.967-16.283-19.121-28.327-27.739-31.595-37.503-29.969-0.121 0.02-0.645 1.455-0.371 1.403 9.809-1.811 19.187 2.724 37.021 29.142 4.126 6.113 8.023 11.886 12.052 16.394 3.676 4.113 8.523 7.258 13.647 8.855 4.741 1.477 9.256 1.496 12.388 0.051 8.068-3.725 12.511-13.174 12.511-26.61 0-20.261-17.493-54.075-32.056-68.079-11.27-10.836-18.632-11.041-22.054-7.62" fill="#0f141b"/>
  </g>
  <g transform="matrix(.54766 0 0 -.54766 44.468 93.38)">
   <path d="m0 0c3.914-2.054 9.271-4.979 10.587-6.646 1.435-1.82 14.733-25.674 15.213-26.875 0.395-0.99 0.658-5.819 0.582-8.04-0.067-1.932-0.839-1.866-0.852 0.026-0.012 2.147-0.388 6.887-0.686 7.631-0.476 1.19-13.896 24.608-15.318 26.408-1.333 1.689-7.938 5.196-10.143 6.359-7.288 3.842-11.59 7.642-15.595 17.941-4.417 11.358-2.296 25.212 0.606 31.093 0.849 1.722 1.543 1.378 0.701-0.302-2.836-5.651-4.399-19.322-0.07-30.453 3.885-9.991 7.934-13.413 14.975-17.142" fill="#0f141b"/>
  </g>
  <g transform="matrix(.54766 0 0 -.54766 56.789 121.52)">
   <path d="m0 0c1.311 0.983 2.221 2.934 2.649 5.728 0.268 1.749 1.06 1.641 0.808-0.126-0.342-2.396-0.765-4.556-2.195-5.88-0.117-0.109-1.49 0.107-1.262 0.278" fill="#0f141b"/>
  </g>
  <g transform="matrix(.54766 0 0 -.54766 56.058 121.7)">
   <path d="m0 0c-0.927 1.568-1.335 3.5-0.887 5.349 0.425 1.754 1.862 4.404 5.45 6.497 0.248 0.144 0.201-1.245 0.064-1.331-2.952-1.855-4.008-3.984-4.369-5.474-0.401-1.649-0.142-3.31 0.728-4.677 0.153-0.24-0.948-0.427-0.986-0.364" fill="#0f141b"/>
  </g>
  <g transform="matrix(.54766 0 0 -.54766 57.355 129.12)">
   <path d="m0 0c-4.364 0-7.545 3.254-7.545 6.812 0 6.82 5.845 9.523 12.617 5.275 1.26-0.791 0.93-1.387-0.353-0.712-6.244 3.284-11.092 1.573-11.092-4.563 0-3.043 2.918-5.616 6.373-5.616 3.267 0 5.361 1.416 6.5 2.524 1.36 1.323 1.867 0.872 0.642-0.566-1.313-1.54-3.455-3.154-7.142-3.154" fill="#0f141b"/>
  </g>
  <g transform="matrix(.54766 0 0 -.54766 68.051 129.08)">
   <path d="m0 0c-3.03 1.882-9.347 2.975-13.323 2.347-0.281-0.041 0.541 1.107 0.78 1.134 3.788 0.427 8.294-0.183 11.408-1.79 0.289-0.149 1.22-1.744 1.135-1.691" fill="#0f141b"/>
  </g>
  <g transform="matrix(.54766 0 0 -.54766 72.195 130.58)">
   <path d="m0 0c-4.343 0-9.146 2.483-10.043 5.947-0.319 1.232-0.123 2.405 0.71 3.414 0.855 1.037 1.346 0.623 0.631-0.454-0.507-0.761-0.587-1.766-0.344-2.702 0.696-2.688 4.145-4.923 8.872-5.013 2.997-0.057 4.758 1.678 4.777 3.855 0.011 1.322-0.396 2.892-1.36 4.032-0.04 0.048-4.058 4.83-5.042 6.423-0.898 1.455-2.363 4.078-4.81 6.094-0.234 0.193-0.35 1.57-0.121 1.401 3.112-2.3 4.891-5.536 5.81-6.958 0.845-1.309 4.171-5.231 5.011-6.224 1.137-1.343 1.905-3.269 1.892-4.819-0.024-2.896-2.157-4.996-5.983-4.996" fill="#0f141b"/>
  </g>
  <g transform="matrix(.54766 0 0 -.54766 68.485 124.21)">
   <path d="m0 0c0.638 0.255 1.27 0.328 1.756 0.328 1.334 0 1.355-0.767 0.025-0.868-0.53-0.04-1.01-0.166-1.464-0.368-0.778-0.346-1.308 0.511-0.317 0.908" fill="#0f141b"/>
  </g>
  <g transform="matrix(.54766 0 0 -.54766 68.548 119.58)">
   <path d="m0 0c-0.481 1.181-6.116 15.63-6.965 17.24-0.355 0.672-15.451 26.726-15.725 28.865-0.093 0.724 0.014 2.15 0.163 4.123 0.501 6.642 1.431 19.005-3.075 29.116-6.098 13.68-15.529 20.722-21.752 22.595-2.117 0.638-3.998 0.833-5.181 0.305-1.059-0.473-1.434 0.152-0.321 0.644 6.016 2.661 19.878-3.881 28.481-23.183 4.612-10.349 3.382-22.821 2.875-29.555-0.139-1.84-0.248-3.294-0.168-3.915 0.27-2.11 15.551-27.685 15.915-28.377 0.877-1.661 6.106-16.384 6.586-17.561 0.933-2.282 0.128-2.658-0.833-0.297" fill="#0f141b"/>
  </g>
  <g transform="matrix(.54766 0 0 -.54766 37.221 65.094)">
   <path d="m0 0c0.372 0.51 1.01 1.085 1.564 1.539 1.452 1.188 1.907 0.575 0.531-0.655-0.48-0.43-1.069-0.957-1.464-1.389-1.035-1.129-1.53-0.725-0.631 0.505" fill="#0f141b"/>
  </g>
  <g transform="matrix(.54766 0 0 -.54766 61.348 116.6)">
   <path d="m0 0c-0.648 2.745-2.313 7.646-3.355 9.546-0.96 1.749-0.345 2.19 0.63 0.429 1.147-2.072 2.978-6.637 3.609-9.791 0.457-2.286-0.354-2.429-0.884-0.184" fill="#0f141b"/>
  </g>
  <g transform="matrix(.54766 0 0 -.54766 62.652 111.95)">
   <path d="m0 0c-0.412 1.022-0.715 2.259-0.866 3.47-0.217 1.734 0.486 1.804 0.782 0.126 0.227-1.286 0.557-2.461 0.908-3.407 0.582-1.563-0.167-1.816-0.824-0.189" fill="#0f141b"/>
  </g>
  <g transform="matrix(.54766 0 0 -.54766 34.346 75.596)">
   <path d="m0 0c-1.514 2.221-1.767 8.933-1.827 11.834-0.082 3.883-1.956 7.494-4.55 8.395-3.408 1.185-10.358-2.053-13.874-7.854-0.147-0.244 0.072 2.032 0.493 2.575 4.018 5.18 10.238 7.465 13.72 6.253 3.036-1.057 5.219-4.997 5.241-9.369 0.015-2.952 0.366-6.763 1.138-9.563 0.133-0.483-0.239-2.421-0.341-2.271" fill="#0f141b"/>
  </g>
  <g transform="matrix(.54766 0 0 -.54766 26.428 98.964)">
   <path d="m0 0c-1.085 2.347-8.154 7.077-12.565 13.07-5.09 6.914-7.9 14.5-7.848 22.156 0.078 11.653 9.15 24.234 20.948 32.617 0.232 0.165-0.117-1.354-0.47-1.617-9.531-7.124-18.919-19.303-19.053-30.951-0.068-5.833 1.569-13.46 7.487-21.627 3.855-5.322 11.375-10.621 12.183-13.327 0.403-1.352-0.102-1.575-0.682-0.321" fill="#0f141b"/>
  </g>
  <g transform="matrix(.54766 0 0 -.54766 11.269 121.19)">
   <path d="m0 0c-1.567 0-5.218 0.34-5.779 0.741-1.613 1.152-2.867 5.618-1.742 7.495 1.141 1.902 6.208 3.558 9.337 3.558 0.776 0 6.337-0.469 8.075-0.469 5.421 0 17.577 12.522 17.577 18.107 0 2.168-1.897 12.166-2.387 14.534-0.058 0.278 1.548-0.908 1.619-1.303 0.579-3.214 1.798-11.109 1.798-13.231 0-6.26-12.52-19.137-18.607-19.137-1.766 0-7.328 0.303-8.075 0.303-3.281 0-7.394-1.707-8.188-3.031-0.739-1.232 0.268-5.16 1.27-5.877 0.34-0.166 3.103-0.615 4.849-0.657 0.087-2e-3 0.537-1.033 0.253-1.033" fill="#0f141b"/>
  </g>
  <g transform="matrix(.54766 0 0 -.54766 11.192 121.36)">
   <path d="m0 0c-1.184 1.579-1.854 5.256-0.757 7.229 1.191 2.145 5.375 2.272 10.561 0.417 1.581-0.566 1.405-1.258-0.192-0.761-4.715 1.469-8.264 1.391-9.175-0.246-0.88-1.587-0.456-4.755 0.518-6.053 1.667-2.222 14.022-2.458 17.06-1.243 2.393 0.958 6.066 3.805 7.411 5.048 1.818 1.677 6.649 5.261 10.409 6.06 0.138 0.028 0.851-0.896 0.57-0.941-3.545-0.568-8.544-4.273-10.28-5.876-1.438-1.326-5.03-4.318-7.578-5.337-2.829-1.131-16.223-1.394-18.547 1.703" fill="#0f141b"/>
  </g>
  <g transform="matrix(.54766 0 0 -.54766 34.374 110.52)">
   <path d="m0 0c-3.42 0-7.055-2.083-7.055-5.944 0-3.104 2.491-5.189 6.198-5.189 3.737 0 6.247 3.127 6.247 6.046 0 2.45-1.687 5.087-5.39 5.087m-0.857-12.162c-4.255 0-7.228 2.557-7.228 6.218 0 4.53 4.166 6.974 8.085 6.974 4.215 0 6.42-3.077 6.42-6.117 0-3.417-2.925-7.075-7.277-7.075" fill="#0f141b"/>
  </g>
  <g transform="matrix(.54766 0 0 -.54766 35.142 110.35)">
   <path d="m0 0c0 1.511-0.495 2.769-1.767 4.489-2.995 4.052-4.39 8.865-4.39 15.143 0 2.947 0.685 7.245 1.793 9.051 0.148 0.242 1.294-0.482 1.144-0.724-0.873-1.426-1.907-5.218-1.907-8.327 0-6.047 1.46-10.668 4.317-14.534 1.398-1.892 2.158-3.493 2.158-5.224 0-0.284-1.348-0.158-1.348 0.126" fill="#0f141b"/>
  </g>
  <g transform="matrix(.54766 0 0 -.54766 27.727 96.862)">
   <path d="M 0,0 C 0.044,0.455 0.091,0.922 0.121,1.13 0.353,2.749 1.372,2.604 1.141,0.984 1.112,0.783 1.01,0.325 0.883,-0.129 0.229,-2.486 -0.236,-2.438 0,0" fill="#0f141b"/>
  </g>
  <g transform="matrix(.54766 0 0 -.54766 25.627 109.54)">
   <path d="m0 0c0.328 0.808 0.628 1.889 0.876 2.661 0.519 1.612 1.52 1.401 1.002-0.242-0.254-0.803-0.642-1.814-1.172-2.722-0.992-1.701-1.417-1.445-0.706 0.303" fill="#0f141b"/>
  </g>
  <g transform="matrix(.54766 0 0 -.54766 37.124 37.939)">
   <path d="m0 0c1.474 2.269 2.113 7.609 1.797 9.387-12.819 0.356-18.821 3.607-20.091 6.384-1.421 3.111-1.622 9.121-1.842 9.891-0.215 0.751-2.926 6.737-2.926 8.473 0 1.999 1.73 4.548 1.73 5.733 0 0.536-1.263 2.969-2.278 4.924-2.173 4.183-3.577 7.014-3.311 8.208 0.342 1.542 6.845 5.014 7.87 4.506 0.982-0.485 0.833-6.989 6.208-9.083 0.265-0.104-0.845-1.089-0.993-1.036-2.741 0.981-4.685 4.568-5.9 8.934-1.27-0.19-5.993-2.702-6.18-3.544-0.204-0.919 1.856-4.885 3.219-7.51 1.53-2.946 2.395-4.648 2.395-5.399 0-1.59-1.59-4.037-1.59-5.772 0-1.142 2.406-7.379 2.63-8.166 0.241-0.841 0.514-6.425 1.944-9.622 1.642-3.673 10.751-5.6 18.807-5.881 0.99-0.034 1.241-0.238 1.351-1.064 0.305-2.299-0.669-7.274-2.184-9.717-1.034-1.667-1.675-1.215-0.656 0.354" fill="#0f141b"/>
  </g>
  <g transform="matrix(.54766 0 0 -.54766 28.446 12.885)">
   <path d="m0 0c5.576 6.61 15.999 9.508 23.693 7.797 0.278-0.062 0.051-1.095-0.226-1.035-6.464 1.434-17.124-0.941-23.009-7.294-1.307-1.411-1.717-0.961-0.458 0.532" fill="#0f141b"/>
  </g>
  <g transform="matrix(.54766 0 0 -.54766 43.145 35.248)">
   <path d="m0 0c-0.264 2.37 0.218 6.068 0.508 6.383 3.309 3.591 12.736 11.615 12.736 18.882 0 3.974-4.708 13.133-5.29 16.101-1.178 6.013 0.165 11.86 1.043 15.727 0.38 1.668 0.809 3.557 0.57 3.888-0.764 0.981-9.602-0.567-10.79-2.942-0.102-0.219-0.168-1.287-0.231-2.321-0.196-3.213-0.685-8.972-3.068-12.967-0.945-1.581-1.574-1.213-0.644 0.341 2.261 3.776 2.493 9.562 2.685 12.689 0.098 1.615 0.15 2.345 0.336 2.719 1.574 3.146 11.325 4.665 12.525 3.113 0.543-0.697 0.216-2.135-0.378-4.748-0.859-3.783-2.101-9.49-1.036-15.302 0.44-2.408 5.474-11.794 5.474-16.298 0-9.034-10.471-16.502-13.084-19.481-0.243-1.012-0.352-3.986-0.087-5.122 0.036-0.152-1.24-0.926-1.269-0.662" fill="#0f141b"/>
  </g>
  <g transform="matrix(.54766 0 0 -.54766 36.004 22.475)">
   <path d="m 0,0 c 1.398,4.758 5.198,10.193 11.91,12.642 1.65,0.601 1.881,0.059 0.289,-0.677 C 5.947,9.072 2.191,3.767 0.722,-0.259 0.096,-1.974 -0.521,-1.772 0,0" fill="#0f141b"/>
  </g>
  <g transform="matrix(.54766 0 0 -.54766 37.849 23.754)">
   <path d="M 0,0 C -1.062,0.406 -0.776,1.009 0.17,0.7 1.289,0.335 3.998,0.191 5.052,0.659 6.421,1.268 7.562,3.074 7.968,5.771 8.156,7.027 8.873,6.934 8.687,5.677 8.117,1.855 7.02,0.406 5.471,-0.282 4.41,-0.753 1.848,-0.708 0,0" fill="#0f141b"/>
  </g>
  <g transform="matrix(.54766 0 0 -.54766 42.306 18.371)">
   <path d="m0 0c-0.101 1.539-0.282 2.754-0.479 4.289-0.01 0.078 0.952 0.653 0.99 0.371 0.22-1.66 0.235-3.241 0.271-4.66 0.042-1.667-0.674-1.657-0.782 0" fill="#0f141b"/>
  </g>
  <g transform="matrix(.54766 0 0 -.54766 33.973 22.842)">
   <path d="m0 0c-0.7 1.419-1.35 4.312-1.324 5.999 0.021 1.503 0.76 1.458 0.775-0.019 0.02-1.741 0.625-4.334 1.269-5.715 0.558-1.202-0.106-1.51-0.72-0.265" fill="#0f141b"/>
  </g>
  <g transform="matrix(.54766 0 0 -.54766 30.575 24.092)">
   <path d="m0 0c-3.741 3.989-6.399 6.351-8.481 7.373-0.95 0.466-0.92 1.006 0.132 0.682 2.5-0.772 7.458-5.601 9.406-7.678 0.194-0.207-0.956-0.485-1.057-0.377" fill="#0f141b"/>
  </g>
  <g transform="matrix(.54766 0 0 -.54766 28.308 25.538)">
   <path d="m0 0c-0.652 0.428-1.256 1.289-1.767 2.481-0.582 1.358-0.02 1.682 0.644 0.36 0.497-0.991 1.201-1.66 1.688-1.981 0.238-0.156-0.478-0.918-0.565-0.86" fill="#0f141b"/>
  </g>
  <g transform="matrix(.54766 0 0 -.54766 26.583 22.085)">
   <path d="M 0,0 C -0.492,1.476 -0.805,3.134 -0.719,3.816 -0.685,4.099 0.302,3.467 0.295,3.31 0.265,2.592 0.397,1.522 0.757,0.188 1.21,-1.491 0.559,-1.676 0,0" fill="#0f141b"/>
  </g>
  <g transform="matrix(.54766 0 0 -.54766 29.745 29.399)">
   <path d="m0 0c-1.943 1.767-3.767 4.983-3.041 7.367 0.404 1.33 3.167 2.525 5.766 2.954 1.257 0.207 1.407-0.342 0.182-0.679-2.531-0.698-4.764-1.923-4.963-2.575-0.581-1.906 1.068-5.014 2.606-6.518 1.286-1.258 0.799-1.776-0.55-0.549" fill="#0f141b"/>
  </g>
  <g transform="matrix(.54766 0 0 -.54766 30.926 22.769)">
   <path d="M 0,0 C -0.149,1.156 -0.291,3.638 -0.151,4.977 0.041,6.822 0.736,6.706 0.529,4.901 0.378,3.576 0.488,1.146 0.624,0.075 0.793,-1.25 0.175,-1.358 0,0" fill="#0f141b"/>
  </g>
  <g transform="matrix(.54766 0 0 -.54766 39.805 18.723)">
   <path d="m0 0c-0.533 0-1.529-1.336-1.529-4.557 0-2.046 0.816-3.774 1.781-3.774 0.444 0 1.453 1.445 1.453 3.825 0 2.71-1.213 4.506-1.705 4.506m0.252-9.361c-1.826 0-2.811 2.475-2.811 4.804 0 3.839 1.327 5.587 2.559 5.587 1.432 0 2.735-2.638 2.735-5.536 0-2.632-1.136-4.855-2.483-4.855" fill="#0f141b"/>
  </g>
  <g transform="matrix(.54766 0 0 -.54766 39.819 19.947)">
   <path d="m0 0c-0.502 0-0.789-0.995-0.789-2.17 0-1.182 0.446-2.119 0.864-2.119 0.461 0 0.751 0.717 0.751 2.119 0 1.194-0.396 2.17-0.826 2.17" fill="#0f141b"/>
  </g>
  <g transform="matrix(.54766 0 0 -.54766 29.423 26.311)">
   <path d="m0 0c0.182-0.165 0.341-0.429 0.605-0.668 0.531-0.479 0.407-0.854-0.259-0.576-0.391 0.164-0.68 0.358-0.894 0.553-0.622 0.566-0.058 1.246 0.548 0.691" fill="#0f141b"/>
  </g>
  <g transform="matrix(.54766 0 0 -.54766 32.058 26.097)">
   <path d="m0 0c-0.141-0.271-0.41-0.562-0.713-0.789-0.657-0.492-0.914-0.11-0.465 0.518 0.189 0.265 0.289 0.519 0.398 0.726 0.364 0.696 1.138 0.238 0.78-0.455" fill="#0f141b"/>
  </g>
  <g transform="matrix(.54766 0 0 -.54766 33.116 30.104)">
   <path d="m0 0c2.968-0.136 7.814 1.414 10.318 3.044 1.374 0.894 1.726 0.365 0.407-0.571-2.811-1.994-7.634-3.303-10.725-3.155-1.757 0.085-1.715 0.76 0 0.682" fill="#0f141b"/>
  </g>
  <g transform="matrix(.54766 0 0 -.54766 47.253 34.623)">
   <path d="m0 0c0.756 3.02-1.367 6.079-3.81 7.444-0.249 0.139 0.381 1.069 0.63 0.929 2.781-1.554 5.135-5.252 4.26-8.75-0.059-0.234-1.148 0.102-1.08 0.377" fill="#0f141b"/>
  </g>
  <g transform="matrix(.54766 0 0 -.54766 50.689 35.75)">
   <path d="m0 0c1.698 5.529 0.054 11.103-4.532 15.331-0.209 0.192 0.472 1 0.681 0.807 5.163-4.759 6.762-10.434 4.783-16.616-0.215-0.671-1.144-0.211-0.932 0.478" fill="#0f141b"/>
  </g>
  <g transform="matrix(.54766 0 0 -.54766 28.978 24.77)">
   <path d="m0 0c-1.098 1.969-1.581 4.892-1.495 5.829 0.025 0.283 1.124-0.59 1.142-0.871 0.078-1.144 0.441-3.12 1.16-4.623 0.122-0.257-0.707-0.514-0.807-0.335" fill="#0f141b"/>
  </g>
  <g transform="matrix(.54766 0 0 -.54766 29.591 23.899)">
   <path d="m0 0c0.082-0.267 0.18-0.52 0.284-0.751 0.208-0.461 1.475-0.019 1.362 0.486-0.041 0.18-0.092 0.365-0.157 0.551-0.535 1.554-1.272 2.436-1.576 2.336-0.236-0.078-0.368-1.153 0.087-2.622" fill="#0f141b"/>
  </g>
  <g transform="matrix(.54766 0 0 -.54766 4.0686 55.199)">
   <path d="m0 0c-0.831 0.915-0.391 1.438 0.521 0.647 1.372-1.19 2.635-1.8 4.382-1.353 2.177 0.559 3.832 3.289 3.341 5.513-0.549 2.484-3.741 4.484-5.812 4.217-1.428-0.181-2.224-1.053-2.64-1.753-0.48-0.807-0.717-1.804-0.685-2.855 0.042-1.383-0.665-1.444-0.823-0.051-0.151 1.337 0.035 2.446 0.622 3.432 0.754 1.267 1.96 2.066 3.396 2.25 2.5 0.316 6.276-1.98 6.948-5.019 0.61-2.764-1.378-6.035-4.092-6.731-1.836-0.471-3.676 0.072-5.158 1.703" fill="#0f141b"/>
  </g>
  <g transform="matrix(.54766 0 0 -.54766 11.697 54.743)">
   <path d="m0 0c-2.825 0.043-5.052 1.846-5.802 4.57-1.057 3.843 2.105 7.296 6.433 6.659 1.289-0.19 3.079-1.615 4.037-3.104 0.731-1.135 0.079-1.549-0.695-0.511-0.835 1.117-2.506 2.322-3.521 2.472-3.614 0.532-6.092-2.226-5.261-5.242 0.623-2.266 2.471-3.695 4.82-3.73 0.017 0 0.035-1e-3 0.052-1e-3 1.27 0 2.229 0.7 3.394 2.522 0.672 1.05 1.184 0.792 0.656-0.355-0.998-2.167-2.4-3.324-4.113-3.28" fill="#0f141b"/>
  </g>
  <g transform="matrix(.54766 0 0 -.54766 8.629 59.704)">
   <path d="m0 0c-0.769 0.669-0.335 1.206 0.404 0.556 1.016-0.895 2.961-1.876 4.951-1.144 2.119 0.782 2.842 3.39 2.009 5.246-1.045 2.325-2.75 3.289-5.516 3.14-2.103-0.116-2.983-1.757-2.853-3.709 0.077-1.159-0.608-1.289-0.837-0.127-0.536 2.729 1.277 4.733 3.633 4.864 3.164 0.174 5.301-1.049 6.512-3.745 1.021-2.271 0.373-5.541-2.591-6.636-1.725-0.635-3.88-0.038-5.712 1.555" fill="#0f141b"/>
  </g>
  <g transform="matrix(.54766 0 0 -.54766 4.8152 56.47)">
   <path d="M 0,0 C 0.227,0.429 0.607,0.931 0.988,1.263 1.167,1.418 2.23,0.912 1.995,0.754 1.737,0.581 1.06,0.024 0.681,-0.404 -0.138,-1.332 -0.625,-1.18 0,0" fill="#0f141b"/>
  </g>
  <g transform="matrix(.54766 0 0 -.54766 12.944 54.126)">
   <path d="M 0,0 C -0.244,0.146 0.279,1.032 0.525,0.887 1.128,0.53 2.038,0.711 2.693,1.17 3.699,1.875 4.166,1.3 3.147,0.589 1.848,-0.316 0.841,-0.496 0,0" fill="#0f141b"/>
  </g>
  <g transform="matrix(.54766 0 0 -.54766 6.9572 63.214)">
   <path d="m0 0c-1.234 0.249-3.771 2.451-4.189 2.904-0.576 0.62-0.889 2.61-0.856 2.876 0.047 0.379 1.815 2.199 1.873 2.276 0.097 0.127 0.971 2.079 1.084 2.224 0.135 0.174 2.743 1.605 3.525 2.337 0.209 0.195 0.294-1.253 0.163-1.341-0.532-0.357-2.767-1.516-2.886-1.648-0.107-0.118-0.912-1.998-1.071-2.203-0.1-0.129-1.583-1.441-1.654-1.715-0.12-0.469 0.34-1.85 0.577-2.106 0.436-0.47 2.777-2.265 3.666-2.445 0.85-0.115 8.766 0.326 9.84 1.086 0.259 0.183 0.974 0.842 2.216 3.357 0.855 1.73 1.457 1.513 0.682-0.227-1.035-2.321-1.632-3.527-2.246-3.962-1.119-0.791-9.03-1.758-10.724-1.413" fill="#0f141b"/>
  </g>
  <g transform="matrix(.54766 0 0 -.54766 5.2575 59.29)">
   <path d="m0 0c-0.229 0.117-4.113 1.893-4.693 2.347-0.676 0.528-1.631 3.182-1.681 3.287-0.073 0.153-1.906 3.05-1.802 3.804 0.101 0.731 1.761 1.891 1.808 1.946 0.069 0.09 0.718 1.538 0.888 1.804 0.4 0.627 1.435 0.986 2.199 0.892 0.075-9e-3 0.223-1.178-0.048-1.113-0.449 0.107-1.137-0.106-1.283-0.334-0.129-0.201-0.804-1.701-0.944-1.882-0.098-0.128-1.548-1.219-1.522-1.461 0.031-0.295 1.554-3.046 1.632-3.21 0.052-0.107 1.206-2.61 1.531-2.904 0.272-0.246 4.252-2.022 4.489-2.144 0.253-0.129-0.5-1.07-0.574-1.032" fill="#0f141b"/>
  </g>
  <g transform="matrix(.54766 0 0 -.54766 8.7948 54.094)">
   <path d="m0 0c-0.283 0.02 0.088 1.111 0.37 1.092 0.103-8e-3 0.686 0.027 1.118 0.047 0.199 8e-3 0.974-1.06 0.707-1.038-0.183 6e-3 -2.14-0.105-2.195-0.101" fill="#0f141b"/>
  </g>
  <g transform="matrix(.54766 0 0 -.54766 15.719 56.696)">
   <path d="m0 0c0.45 0.517 0.661 1.128 0.701 1.971 0.01 0.202-0.792 4.371-0.751 5.05 0.049 0.809 1.059 2.273 0.576 2.883-0.259 0.329-2.002 1.009-3.198 1.369-0.3 0.09-0.843 1.264-0.564 1.21 0.369-0.073 3.964-1.059 4.624-2.014 0.883-1.277-0.354-3.118-0.409-3.502-0.079-0.55 0.766-4.737 0.751-5.046-0.053-1.108-0.343-1.787-1.125-2.519-1.235-1.155-1.685-0.642-0.605 0.598" fill="#0f141b"/>
  </g>
  <g transform="matrix(.54766 0 0 -.54766 8.56 61.321)">
   <path d="M 0,0 C -1.192,0.321 -1.104,0.912 0.126,0.731 1.161,0.58 2.251,0.824 3.42,1.623 3.587,1.737 4.811,1.445 4.603,1.252 3.156,-0.088 1.312,-0.354 0,0" fill="#0f141b"/>
  </g>
  <g transform="matrix(.54766 0 0 -.54766 8.2423 61.792)">
   <path d="m0 0c0.479 0.405 0.854 1.061 0.918 1.27 0.084 0.271 1.067-0.033 0.983-0.305-0.132-0.432-0.639-1.014-1.346-1.519-0.786-0.561-1.262-0.045-0.555 0.554" fill="#0f141b"/>
  </g>
  <g transform="matrix(.54766 0 0 -.54766 16.353 56.518)">
   <path d="m0 0c-0.273 0 0.068 1.034 0.115 1.037 2.681 0.153 7.896 1.66 12.124 2.657 2.73 0.645 4.794 1.01 6.445 1.12 0.301 3.093 1.226 8.747 2.361 11.7 0.102 0.264 0.897-2.012 0.775-2.405-0.812-2.614-1.804-6.621-2.089-9.177-0.096-0.87-0.232-1.036-1.017-1.153-1.243-0.185-3.57-0.734-6.21-1.357-4.569-1.077-9.748-2.3-12.48-2.421-7e-3 0-0.016-1e-3 -0.024-1e-3" fill="#0f141b"/>
  </g>
  <g transform="matrix(.54766 0 0 -.54766 13.864 60.417)">
   <path d="m0 0c8.078 0.924 25.455 1.173 26.549 1.236 0.518 0.031 0.18-1.382-0.908-1.423-1.001-0.04-18.337 0.032-26.243-0.909-0.02-3e-3 0.514 1.086 0.602 1.096" fill="#0f141b"/>
  </g>
  <g transform="matrix(.54766 0 0 -.54766 45.482 50.945)">
   <path d="m0 0c0.865 0.996 2.407 3.304 2.551 3.646 0.109 0.258 0.887-0.529 0.808-0.665-0.47-0.817-1.703-2.592-2.857-3.595-1.346-1.169-1.669-0.732-0.502 0.614" fill="#0f141b"/>
  </g>
  <g transform="matrix(.54766 0 0 -.54766 57.507 54.356)">
   <path d="m0 0c-2.068 2.069-4.037 4.491-5.803 7.317-1.766 2.827-4.946 10.094-5.198 10.8-0.253 0.706-0.618 7.016-3.18 8.681-4.915 3.194-12.276-3.036-9.084-10.649 1.467-3.498 14.232-18.975 15.847-21.902-0.808-4.341-13.789-13.448-15.241-13.828-2.22-0.58-9.26 1.615-9.639 1.539-0.379-0.075-3.634-2.195-5.047-2.347-1.675 1.303-5.248-0.761-5.248-4.037 0-1.333 0.738-2.069 2.473-2.069 0 0-1.236-1.337-1.388-1.565-0.151-0.226-0.076-2.321 0.026-3.38-0.761-0.38-1.767-1.589-1.767-3.483 0-2.605 2.332-4.794 4.239-4.794 2.703 0 4.391 1.753 4.391 3.886 0 1.381-0.421 2.848-1.262 3.583-0.046 0.04-0.117 0.08-0.197 0.12 0.036 0.223 0.083 0.406 0.146 0.485 0.203 0.253 2.423 2.322 2.877 2.423 0.814 0.181 4.25 0.242 4.592-0.555 0.448-1.045 0.428-3.85 0.202-5.501-0.117-0.859-0.742-2.384-0.927-4.011-0.028-9e-3 -0.056-0.016-0.082-0.026-0.384-0.159-1.867-1.009-2.22-2.827-0.447-2.293 0.842-4.941 3.481-5.601 2.248-0.562 4.581 0.943 5.149 2.927 0.574 2.012 0.334 3.591-0.152 4.239-0.054 0.073-0.162 0.157-0.288 0.241 0.088 0.73 0.188 1.426 0.288 1.576 0.201 0.303 2.825 3.129 3.735 4.542 0.908 1.413 3.986 7.469 4.591 8.226 0.606 0.757 10.851 8.882 12.466 10.597 1.615 1.716 6.712 6.712 6.712 7.571 0 1.464-2.423 5.753-4.492 7.822" fill="#e6d4e7"/>
  </g>
  <g transform="matrix(.54766 0 0 -.54766 37.691 72.902)">
   <path d="M 0,0 C -0.062,-0.552 -0.282,-0.543 -0.556,0.127 -0.833,0.808 -1.262,2.423 -0.908,3.079 -0.556,3.735 1.877,6.005 2.523,6.157 3.381,6.359 8.024,5.854 8.377,5.501 8.73,5.147 9.033,1.413 8.176,-0.504 8.125,1.464 8.125,3.937 7.52,4.239 6.914,4.542 3.482,4.795 2.927,4.542 2.372,4.29 0.303,2.372 0.151,2.02 0,1.666 0.05,0.454 0,0" fill="#cea6cc"/>
  </g>
  <g transform="matrix(.54766 0 0 -.54766 33.821 73.482)">
   <path d="m0 0c0-1.7 1.902-2.952 4.327-2.952 2.157 0 4.303 1.184 4.303 2.044 0-2.932-2.057-3.886-4.391-3.886-1.329 0-2.32 0.678-3.129 1.729-1.513 1.967-1.11 3.065-1.11 3.065" fill="#cea6cc"/>
  </g>
  <g transform="matrix(.54766 0 0 -.54766 34.236 67.567)">
   <path d="M 0,0 C 0.151,-0.403 3.129,-1.262 5.249,-0.051 L 2.523,-2.473 c -1.413,0 -2.119,0.202 -2.372,0.757 C -0.101,-1.16 0,0 0,0" fill="#cea6cc"/>
  </g>
  <g transform="matrix(.54766 0 0 -.54766 40.205 78.125)">
   <path d="m0 0c0-1.238 2.532-2.624 4.441-2.624 2.557 0 4.643 1.767 4.643 2.775 0-2.972-1.78-4.655-4.491-4.655-1.06 0-2.385 0.379-3.406 1.666-1.023 1.286-1.187 2.838-1.187 2.838" fill="#cea6cc"/>
  </g>
  <g transform="matrix(.54766 0 0 -.54766 44.739 75.527)">
   <path d="m0 0c0.101 0.707 1.816 4.391 2.473 5.652 0.655 1.262 3.835 7.469 4.491 8.075 0.656 0.605 11.038 9.201 12.616 10.547 3.432 2.927 7.419 6.914 8.227 6.864-0.051-0.505-5.148-6.712-7.217-8.428s-11.91-9.841-12.213-10.194c-0.303-0.354-3.078-6.41-4.139-7.873-1.059-1.463-4.238-4.643-4.238-4.643" fill="#cea6cc"/>
  </g>
  <g transform="matrix(.54766 0 0 -.54766 45.125 40.606)">
   <path d="m0 0c-1.514-3.558 1.211-8.326 3.937-11.733 2.724-3.407 11.884-16.73 11.354-19.303-2.119 2.952-6.056 8.478-9.084 12.263-3.027 3.785-6.283 8.857-6.661 9.462-0.379 0.606-1.893 2.574-1.893 5.374 0 0.962 2.347 3.937 2.347 3.937" fill="#cea6cc"/>
  </g>
  <g transform="matrix(.54766 0 0 -.54766 35.244 69.135)">
   <path d="m0 0c-2.014 0.189-2.572 1.421-2.572 2.51 0 2.315 1.586 3.974 2.901 4.618 1.108 0.542 2.29 0.518 3.101 0.011 1.215 0.292 4.267 2.235 4.822 2.31 0.58 0.08 8.135-1.93 9.61-1.546 1.176 0.308 13.428 9.117 14.513 13.28-0.83 1.395-3.395 4.904-6.308 8.73-3.671 4.822-7.229 9.538-8.554 12.339-0.889 1.881-0.343 2.201 0.705 0.431 1.388-2.347 5.298-7.482 8.788-12.066 3.192-4.193 5.95-7.815 6.679-9.136 0.056-0.104 0.076-0.225 0.054-0.342-0.842-4.526-14.022-13.815-15.616-14.232-1.593-0.418-9.139 1.562-9.701 1.518-0.422-0.032-3.752-2.231-5.06-2.339-0.133-0.011-0.265 0.023-0.372 0.105-0.504 0.394-1.305 0.385-2.143-0.025-1.049-0.513-2.274-1.766-2.274-3.605 0-0.808 0.494-1.665 2.236-1.59 0.284 0.012-0.643-0.987-0.809-0.971" fill="#0f141b"/>
  </g>
  <g transform="matrix(.54766 0 0 -.54766 34.623 71.975)">
   <path d="m0 0c-0.051 0.757-0.303 3.886-0.208 4.286 0.111 0.463 5.986 5.58 6.28 5.705 0.196 0.084 2.578 0.155 3.84 0.078 2.996-0.179 2.937-0.887 4e-3 -0.884-0.834 1e-3 -2.95-2e-3 -3.312-0.08-0.348-0.269-5.546-4.738-5.796-5.04-9e-3 -0.313 0.064-3.598 0.069-4.065 0.019-1.912-0.754-1.845-0.877 0" fill="#0f141b"/>
  </g>
  <g transform="matrix(.54766 0 0 -.54766 36.143 76.39)">
   <path d="m0 0c-2.153 0-4.87 2.369-4.87 5.31 0 1.823 0.829 3.274 2.167 3.943 0.255 0.126 0.32-1 0.246-1.054-0.572-0.414-1.267-1.407-1.267-2.889 0-2.265 2.082-4.28 3.724-4.28 2.281 0 3.876 1.387 3.876 3.371 0 1.228-0.329 2.346-0.855 2.967-0.071 0.083 0.217 1.192 0.437 1.012 1.135-0.926 1.589-2.638 1.589-3.979 0-2.549-2.204-4.401-5.047-4.401" fill="#0f141b"/>
  </g>
  <g transform="matrix(.54766 0 0 -.54766 41.297 76.342)">
   <path d="m0 0c-0.076 1.766 0.785 4.629 0.827 4.939 0.232 1.701 0.21 4.354-0.165 5.229-0.33 0.362-3.092 0.458-4.008 0.255-0.38-0.156-2.352-1.96-2.587-2.242-0.041-0.097-0.171-0.583-0.199-1.066-0.102-1.806-0.811-1.804-0.883 0.051-0.025 0.656 0.059 1.383 0.279 1.658 0.134 0.169 2.469 2.448 3.167 2.605 0.341 0.075 4.604 0.484 5.177-0.856 0.508-1.183 0.465-4.113 0.24-5.773-0.053-0.384-1.047-3.566-1.066-4.725-0.025-1.569-0.715-1.651-0.782-0.075" fill="#0f141b"/>
  </g>
  <g transform="matrix(.54766 0 0 -.54766 42.1 80.776)">
   <path d="m0 0c-3.026 0.757-4.49 3.8-4.014 6.253 0.327 1.681 1.554 2.874 2.752 3.175 0.272 0.066 0.525-0.929 0.25-0.999-0.179-0.047-1.519-0.779-1.841-2.425-0.384-1.983 0.67-4.396 3.102-5.004 1.971-0.491 3.973 0.626 4.528 2.568 0.581 2.037 0.282 3.387-0.044 3.759-0.187 0.214 0.361 1.168 0.564 0.97 0.884-0.858 1.227-3.052 0.656-5.046-0.709-2.481-3.464-3.871-5.953-3.251" fill="#0f141b"/>
  </g>
  <g transform="matrix(.54766 0 0 -.54766 44.431 77.109)">
   <path d="m0 0c0.124 0.952 0.301 2.872 0.435 3.073 0.078 0.116 3.119 3.584 3.73 4.535 0.411 0.64 4.293 7.857 4.623 8.27 0.292 0.364 11.627 9.709 12.493 10.629 3.451 3.669 6.378 6.509 6.576 7.264-4e-3 1.211-2.291 5.357-4.345 7.411-2.204 2.205-4.181 4.697-5.875 7.409-1.8 2.878-5.006 10.222-5.247 10.899-0.066 0.183-0.112 0.497-0.202 1.134-0.244 1.72-0.792 5.592-2.397 7.013-1.274 1.127-0.802 1.816 0.522 0.718 1.973-1.633 2.608-5.566 2.895-7.586 0.055-0.39 0.117-0.832 0.152-0.933 0.237-0.664 3.384-7.875 5.149-10.699 1.654-2.646 3.735-5.013 5.885-7.162 2.126-2.125 5.034-6.704 5.034-8.328 0-0.644-3.903-4.255-7.305-7.872-0.911-0.967-12.284-10.236-12.53-10.541-0.295-0.369-2.926-6.264-4.263-8.207-1.425-2.07-3.983-4.448-4.039-4.527-0.058-0.146-0.409-1.771-0.516-2.651-0.169-1.393-0.957-1.231-0.775 0.151" fill="#0f141b"/>
  </g>
  <g transform="matrix(.54766 0 0 -.54766 42.804 68.859)">
   <path d="M 0,0 C 0.503,0.633 1.362,1.269 2.044,1.59 3.383,2.223 3.765,1.485 2.441,0.852 1.58,0.439 1.106,0.08 0.549,-0.511 -0.064,-1.161 -0.581,-0.73 0,0" fill="#0f141b"/>
  </g>
  <g transform="matrix(.54766 0 0 -.54766 42.148 48.11)">
   <path d="m0 0c0 1.115 1.415 7.443 3.41 11.434 3.184 6.365 9.039 8.67 12.315 6.883 1.437-0.784 2.194-6.069 1.247-8.701-0.096-0.267-0.774 1-0.715 1.363 0.412 2.538-0.367 6.075-1.026 6.434-2.785 1.52-8.299-1.239-10.899-6.44-1.984-3.968-3.302-10.127-3.302-10.973" fill="#0f141b"/>
  </g>
 </g>
</svg>
