<?xml version="1.0" encoding="UTF-8" standalone="no"?>
<!-- Created with Inkscape (http://www.inkscape.org/) -->

<svg
   version="1.1"
   viewBox="0 0 189.54 163.14"
   id="svg994"
   sodipodi:docname="1raichu.svg"
   inkscape:version="1.2.2 (b0a8486, 2022-12-01)"
   xmlns:inkscape="http://www.inkscape.org/namespaces/inkscape"
   xmlns:sodipodi="http://sodipodi.sourceforge.net/DTD/sodipodi-0.dtd"
   xmlns="http://www.w3.org/2000/svg"
   xmlns:svg="http://www.w3.org/2000/svg">
  <defs
     id="defs998" />
  <sodipodi:namedview
     id="namedview996"
     pagecolor="#505050"
     bordercolor="#eeeeee"
     borderopacity="1"
     inkscape:showpageshadow="0"
     inkscape:pageopacity="0"
     inkscape:pagecheckerboard="0"
     inkscape:deskcolor="#505050"
     showgrid="false"
     showguides="false"
     inkscape:zoom="4.0916317"
     inkscape:cx="77.841805"
     inkscape:cy="66.477146"
     inkscape:window-width="1285"
     inkscape:window-height="578"
     inkscape:window-x="0"
     inkscape:window-y="25"
     inkscape:window-maximized="0"
     inkscape:current-layer="svg994" />
  <path
     d="m 156.3178,47.5 c 1.57,6.9033 4.1618,14.565 4.1618,14.565 6.7025,-6.92 25.178,-41.44 27.676,-41.3 5.6642,0.31838 -7.5203,67.605 -13.9,69.153 -1.1622,0.28077 -16.155,-13.367 -16.155,-13.367 -8,7.5692 -11.532,11.155 -28.822,24.182 -23.485,17.693 -55.46,-17.86 -74.13,-22.428 -11.045,-2.7031 -22.847,-1.0165 -27.607,9.1361 -4.5218,9.6459 -3.3305,28.444 26.812,34.641 22.372,4.5988 46.774,-16.074 46.774,-16.074 1.1934,13.409 -25.971,26.674 -53.328,19.595 -28.402,-7.3476 -33.442,-25.943 -25.631,-41.411 4.7767,-9.4618 18.68,-14.825 29.405,-12.244 27.746,6.6796 47.071,33.365 68.719,26.613 9.829,-3.0641 20.694,-19.847 30.426,-49.257 3.4137,-10.32 3.9381,-9.1267 5.6007,-1.8062"
     fill="#0f141b"
     id="path876" />
  <path
     d="m 96.6598,110.98 c 1.6116,-1.1237 2.085,-0.39744 2.085,-0.39744 1.3422,5.1148 -25.127,19.919 -49.007,14.052 -23.038,-5.661 -32.064,-20.457 -28.005,-34.262 3.9734,-13.504 17.28,-18.463 25.918,-17.279 10.875,1.4899 20.706,6.7035 29.047,12.364 11.848,8.0395 26.758,17.225 38.548,15.994 1.3994,-0.14658 2.9268,-0.40576 4.2263,-0.86461 1.6886,-0.59408 4.1836,1.3359 2.6937,2.0476 -1.3838,0.6586 -4.3959,1.416 -6.7858,1.4899 -11.378,0.35999 -27.952,-8.8521 -39.279,-16.729 -13.498,-9.391 -20.798,-11.075 -28.301,-12.067 -5.2636,-0.69294 -20.309,1.4389 -23.685,15.941 -3.0225,12.977 4.7652,27.16 28.601,31.428 21.742,3.8975 38.105,-7.6493 43.942,-11.716"
     fill="#4b3624"
     id="path878"
     style="fill:#543823;fill-opacity:1" />
  <path
     d="m 153.8578,46.28 c -0.92391,0.16222 -3.4251,11.397 -10.054,25.622 -5.3552,11.489 -13.617,23.901 -21.579,27.65 -0.77721,0.36521 -1.6834,0.70854 -2.443,0.92393 -0.46612,0.13537 -0.0832,0.3683 0.30693,0.47754 0.51086,0.14157 0.51086,0.38394 0.26844,0.53792 -0.1415,0.0926 -0.1082,0.0844 -0.26428,0.17165 -0.32566,0.18404 0,0.43074 0.10092,0.4526 0.53479,0.11354 0.69606,0.31628 0.566,0.47442 -0.2882,0.35792 -0.17583,0.71166 0.91247,0.26632 0.52126,-0.21235 1.3755,-0.58679 2.135,-0.98217 8.772,-4.5519 30.754,-24.129 33.848,-27.737 0.44739,-0.52126 14.958,14.019 16.014,13.78 1.6397,-0.37352 7.9948,-22.916 9.3827,-28.676 2.2109,-9.158 5.6642,-33.533 4.1004,-34.187 -0.94368,-0.39642 -11.929,18.968 -15.941,25.174 -4.0962,6.329 -9.1288,14.377 -11.172,14.45 -2.085,0.0749 -4.9161,-18.623 -6.1823,-18.398"
     fill="#f2e100"
     id="path880" />
  <path
     d="m 2.4697,40.34 c -1.492,1.4171 -2.9236,-0.52023 -2.3337,-1.2642 19.959,-25.273 36.493,-30.301 47.468,-29.31 5.4134,0.49212 12.586,3.5718 17.177,13.05 2.34,4.8276 -6.8856,3.524 -15.094,7.9729 -10.287,5.5726 -15.692,11.093 -20.432,16.348 -0.32774,0.36833 -2.8571,2.5189 -2.7603,4.7226 0.06034,1.4056 1.0467,4.4916 4.2127,3.9516 1.0685,-0.18109 2.1464,-1.2256 2.4076,-2.341 0.30277,-1.2922 -0.463,-2.8727 -1.5742,-3.1005 -2.032,-0.41724 -2.2161,1.6803 -1.4379,2.2494 1.3817,1.0092 0.69501,2.6968 -1.0207,1.2256 -1.6595,-1.4212 -1.466,-5.1086 1.9748,-5.1262 2.1412,-0.0118 4.2086,2.6677 3.6259,5.2053 -0.27364,1.1934 -1.4982,2.6833 -2.9434,3.2035 -1.7053,0.6128 -2.7884,0.4328 -4.0348,-0.26013 -0.97594,-0.54414 -2.1933,-1.7646 -2.469,-4.2627 -0.22683,-2.0465 -0.06244,-3.7581 -0.12381,-4.7881 -0.29861,-4.8183 -0.05722,-10.366 -3.4439,-11.944 -6.9189,-3.2212 -15.473,0.92495 -19.198,4.4677"
     fill="#0f141b"
     id="path882" />
  <path
     d="m 3.9095,37.49 c -3.0381,3.2608 -3.216,1.9009 -0.72102,-0.74703 10.651,-11.296 17.555,-16.927 29.816,-22.952 4.3719,-2.1464 21.202,-6.6911 29.172,7.7606 2.0726,3.756 0.52334,7.8969 -4.7725,4.9691 -24,-13.261 -45.451,2.3285 -53.494,10.969"
     fill="#776b59"
     id="path884" />
  <path
     d="m 165.5878,15.78 c 1.8894,0.81365 2.5595,-1.4972 1.7531,-1.9924 -23.442,-14.329 -43.299,-16.489 -54.747,-11.044 -2.5148,1.1944 -10.464,7.2539 -11.532,18.177 -0.52334,5.3406 7.8085,1.2693 17.051,2.599 11.577,1.6647 18.431,4.6269 24.701,7.9178 0.43386,0.22798 3.551,1.3703 4.2252,3.473 0.42866,1.3411 0.57432,4.5769 -2.5824,5.1647 -1.0675,0.19966 -2.4398,-0.40473 -3.0714,-1.3619 -0.73247,-1.1091 -0.56288,-2.856 0.40265,-3.4553 1.7604,-1.0935 3.0214,-0.15808 2.6906,0.74705 -0.3319,0.9031 0.70438,1.1788 0.97385,0.51607 0.82611,-2.0414 -1.7469,-3.806 -3.782,-2.9798 -1.9852,0.8074 -3.0235,3.9599 -1.5992,6.1407 0.67109,1.0259 2.3368,1.9987 3.8704,1.9852 1.8124,-0.0147 2.7655,-0.55871 3.6967,-1.6408 0.72519,-0.84795 1.4462,-2.4128 0.83964,-4.8547 -0.49629,-1.9976 -1.2454,-3.5479 -1.5419,-4.5342 -1.3879,-4.6258 -3.2035,-10.121 -0.5712,-12.774 5.3728,-5.4176 14.503,-4.1149 19.223,-2.083"
     fill="#0f141b"
     id="path886" />
  <path
     d="m 115.8578,13.68 c 1.0633,-3.0027 6.8763,-5.0794 8.6107,-5.4842 14.691,-3.4293 33.354,2.4825 38.78,5.222 3.9766,2.007 3.6707,0.85317 0.41514,-0.76472 -13.904,-6.9095 -22.333,-9.7989 -35.921,-11.204 -4.8412,-0.50253 -22.207,1.0654 -24.678,17.377 -0.643,4.246 14.252,2.5761 14.252,2.5761 -0.60137,-0.33398 -2.5948,-4.5103 -1.4587,-7.7222"
     fill="#776b59"
     id="path888" />
  <path
     d="m 31.4748,27.14 c -4.4604,0.7564 -11.472,1.8697 -15.479,5.9762 1.1362,-0.0206 2.3576,0.079 3.654,0.34854 2.8633,0.60139 5.2116,1.9383 6.1053,4.7694 0.89582,2.83 0.4297,9.9664 0.89582,9.3848 2.6073,-3.2774 11.841,-12.067 18.841,-16.088 1.4545,-0.83654 2.5688,-1.3817 3.4335,-1.749 -0.0926,-0.009 -0.17271,-0.006 -0.26844,-0.0177 -3.7773,-2.9802 -10.459,-3.7341 -17.025,-2.6229"
     fill="#f2e100"
     id="path890" />
  <path
     d="m 52.4938,27.74 c 0.29653,-0.89372 0.33606,-1.5825 -1.7126,-2.3847 -8.5649,-3.3513 -15.664,-2.4159 -20.854,-1.4639 -8.516,1.5638 -23.984,11.967 -23.835,12.412 0.15917,0.47964 3.8517,-3.0652 9.904,-3.1786 5.0295,-1.748 10.86,-3.6478 15.32,-4.4042 6.5662,-1.1112 11.912,0.35064 17.34,1.0498 0.09572,0.0147 0.17583,0.009 0.26844,0.0206 3.3024,-1.4004 2.9382,-0.15808 3.5687,-2.0507"
     fill="#cbbd00"
     id="path892" />
  <path
     d="m 76.1438,8.05 c -11.702,2.4783 -21.535,11.033 -25.223,20.269 -4.4874,11.237 -3.7612,21.924 0.7668,33.112 4.1493,10.254 -4.8401,23.808 -5.5039,35.752 -0.3652,6.5902 4.038,24.478 13.019,33.306 0.8927,0.87708 -21.205,2.9288 -23.051,13.155 -1.2912,7.152 0.60866,11.169 7.3809,9.0238 2.9757,-0.94162 33.815,-10.886 36.833,-12.404 1.0925,-0.54937 2.1672,-3.7529 1.6814,-5.8629 9.905,3.0506 21.266,2.4648 28.54,-0.18315 0.24659,-0.003 0.50253,4.6976 2.2713,7.1572 1.44,2.0049 24.637,21.497 27.3,21.734 9.0414,0.80739 13.577,-10.444 2.0705,-20.644 -9.0987,-8.0634 -14.447,-11.069 -14.181,-11.305 3.4751,-3.0797 8.2517,-9.9976 9.6803,-13.93 5.5632,-15.294 -0.86981,-31.64 -9.7344,-44.625 -7.4183,-10.862 -6.045,-14.773 -6.0065,-27.857 0.0385,-13.822 -6.1761,-24.094 -12.8,-29.3 -7.4256,-5.8316 -20.298,-10.095 -33.043,-7.3965"
     fill="#0f141b"
     id="path894" />
  <path
     d="m 121.3178,119.22 c -0.42554,0.40057 -7.9837,6.1326 -12.606,7.8972 -8.1144,3.0932 -13.248,4.3024 -20.351,3.133 -6.2187,-1.0217 -8.7002,-1.8258 -12.669,-3.5789 -1.9207,-0.84901 -4.3426,-2.3499 -6.3954,-4.0053 -2.7665,-2.2286 -8.7253,-6.9044 -10.651,-9.8239 -0.03329,-0.049 -0.04474,-0.0395 -0.03954,0.0147 1.98,3.1078 13.562,21.504 36.503,22.17 18.491,0.53583 25.704,-9.2412 32.081,-20.432 -0.87501,0.88231 -4.2901,3.2202 -5.7925,4.6269"
     fill="#d7a400"
     id="path896" />
  <path
     d="m 61.5628,134.8 c -1.0186,-1.4722 -2.343,-2.248 -3.2692,-2.3191 -1.8967,0.45673 -4.2356,1.1174 -6.6391,1.9238 -0.74392,1.2163 -1.3193,3.6415 2.0309,7.1395 2.5345,2.649 5.7224,3.4147 7.4298,3.6343 0.39953,-0.13331 0.79906,-0.26425 1.1986,-0.3985 1.5729,-1.6348 1.348,-7.2517 -0.69547,-10.202"
     fill="#f9be00"
     id="path898" />
  <path
     d="m 55.3748,119.31 c -0.76264,0.0864 -1.3896,-0.22795 -2.0034,-0.1535 2.2141,4.9171 4.9338,9.2329 8.4973,11.432 5.0649,3.1286 7.3674,3.8039 7.1853,4.3563 -0.51606,1.5638 -8.0717,-3.036 -8.1935,-3.0131 -0.69293,0.11649 -1.5711,0.30277 -2.5668,0.54204 0.53791,0.21029 1.1393,0.84695 2.1568,2.3192 2.0434,2.9507 1.879,8.0114 1.8634,9.9799 8.7179,-2.8924 17.081,-5.6465 17.078,-5.5299 1.208,-0.71479 1.8218,-5.6215 -0.32046,-6.4601 -11.579,-4.5218 -17.423,-11.803 -19.696,-15.976 -0.62304,0.14792 -1.5769,2.1684 -4.0844,2.4472"
     fill="#d7a400"
     id="path900" />
  <path
     d="m 119.5478,36.39 c 2.3129,11.807 -1.518,22.16 4.013,31.842 5.943,10.401 19.799,28.534 12.065,48.619 -0.35052,1.3917 -1.93,2.3436 -3.1296,2.562 -2.0486,0.3725 -5.1862,-1.4034 -4.9494,-2.3779 0.55768,-0.96554 1.0404,-1.7937 1.3567,-2.676 1.4358,-3.9932 0.20394,-2.6594 -1.2308,-0.59514 -0.0718,0.10087 -0.23099,0.39329 -0.48381,0.83547 -0.87501,0.88334 -3.5822,3.6145 -5.0846,5.0202 -0.42554,0.40058 -8.4557,6.7618 -13.078,8.5264 -8.1144,3.0932 -13.562,4.1451 -20.665,2.9756 -6.2187,-1.0217 -8.7002,-1.982 -12.669,-3.7362 -1.9207,-0.84795 -4.8922,-2.6646 -6.946,-4.3199 -2.7665,-2.2286 -8.1747,-7.2977 -10.101,-10.217 -0.03329,-0.049 -0.04474,-0.0395 -0.03954,0.0147 -0.18936,-0.29858 -0.33086,-0.52644 -0.42242,-0.6617 -0.103,-0.15395 -1.3411,-1.7864 0.29861,2.6802 0.18832,0.51919 0.48484,1.1747 0.8979,1.9342 -0.40057,0.67627 -1.4379,2.5855 -3.9454,2.8643 -0.76264,0.0864 -1.4452,-0.14451 -2.059,-0.515 -3.4688,-7.7086 -5.2417,-16.9 -5.172,-21.785 0.13942,-9.9612 9.2922,-25.739 4.837,-36.753 -4.09,-10.102 -4.3282,-19.88 -1.0176,-29.948 3.4907,-10.622 14.767,-19.73 25.585,-21.386 22.191,-3.396 38.468,9.3869 41.94,27.098"
     fill="#f9be00"
     id="path902" />
  <path
     d="m 123.6978,133.65 c -4.4354,2.2162 -7.5149,6.9264 -7.0629,9.0083 0.63154,0.54204 1.3827,1.1809 2.2224,1.8863 3.6166,0.22591 8.4775,-0.28726 10.052,-1.1445 1.6387,-0.89375 5.1398,-3.0537 3.9485,-5.4394 -0.39744,-0.79383 -0.71894,-1.3869 -0.98113,-1.8416 -1.3505,-1.0092 -2.598,-1.9155 -3.6561,-2.6979 -1.4203,-0.79283 -2.4733,-0.6577 -4.4668,0.34001"
     fill="#f9be00"
     id="path904" />
  <path
     d="m 123.1678,133.24 c -2.5345,0.58994 -2.11,-0.16634 -0.20808,-1.1778 5.2761,-2.804 8.928,-7.4568 11.08,-11.669 0.6097,-1.1882 1.1247,-2.3722 1.5794,-3.551 -0.85212,0.83547 -1.9311,1.6772 -3.1296,1.8957 -2.0497,0.37143 -4.1306,-1.182 -4.9494,-1.7115 -2.7644,4.7881 -6.8294,11.218 -15.094,16.342 -0.94888,0.58679 0.89894,6.2166 2.1943,7.5328 0.22474,0.22886 0.93952,0.85836 1.9914,1.7563 0.82715,-1.3588 3.0724,-6.2916 7.5078,-8.5077 1.9935,-0.99777 3.1577,-1.0217 4.0775,-0.72933 -0.54935,-0.40163 -1.0488,-0.77306 -1.4774,-1.0987 -0.18102,-0.14157 -1.9914,0.54936 -3.5718,0.91767"
     fill="#d7a400"
     id="path906" />
  <path
     d="m 68.7978,24.84 c 0,-2.3992 -1.9477,-4.3459 -4.349,-4.3459 -2.4013,0 -4.347,1.9467 -4.347,4.3459 0,2.4045 1.9456,4.3501 4.347,4.3501 2.4014,0 4.349,-1.9456 4.349,-4.3501"
     fill="#0f141b"
     id="path908" />
  <path
     d="m 101.7878,21.06 c 0,-2.3993 -1.9487,-4.347 -4.349,-4.347 -2.4024,0 -4.348,1.9477 -4.348,4.347 0,2.4013 1.9456,4.3501 4.348,4.3501 2.4003,0 4.349,-1.9487 4.349,-4.3501"
     fill="#0f141b"
     id="path910" />
  <path
     d="m 66.2918,22.59 c 0,0.75431 -0.61386,1.364 -1.3661,1.364 -0.75224,0 -1.3661,-0.60971 -1.3661,-1.364 0,-0.75537 0.61386,-1.3661 1.3661,-1.3661 0.75224,0 1.3661,0.61074 1.3661,1.3661"
     fill="#ffffff"
     id="path912" />
  <path
     d="m 99.8278,19.15 c 0,0.75534 -0.61282,1.3661 -1.3661,1.3661 -0.75536,0 -1.3661,-0.61076 -1.3661,-1.3661 0,-0.75641 0.61074,-1.3661 1.3661,-1.3661 0.75328,0 1.3661,0.6097 1.3661,1.3661"
     fill="#ffffff"
     id="path914" />
  <path
     d="m 64.6758,42.8 c -1.2849,4.5062 -5.7651,6.6703 -9.2173,5.6298 -3.4532,-1.0384 -5.4176,-5.5185 -4.066,-10.004 1.3495,-4.4874 5.5019,-7.279 8.9572,-6.2395 3.4532,1.0394 5.7869,5.5039 4.3262,10.614"
     fill="#0f141b"
     id="path916" />
  <path
     d="m 116.6578,32.15 c 1.3973,4.862 -1.3661,9.7666 -5.5102,10.956 -4.1451,1.1902 -9.1163,-1.7823 -10.511,-6.6443 -1.3952,-4.863 1.3089,-9.7687 5.4561,-10.958 4.1462,-1.1913 9.1684,1.7844 10.565,6.6464"
     fill="#0f141b"
     id="path918" />
  <path
     d="m 63.6698,42.08 c -1.2173,4.0442 -4.7288,6.5631 -7.8418,5.6236 -3.1151,-0.93639 -4.6518,-4.9754 -3.4345,-9.0186 1.2173,-4.0431 4.7309,-6.5631 7.8418,-5.6246 3.114,0.93536 4.6529,4.9754 3.4345,9.0196"
     fill="#f2e100"
     id="path920" />
  <path
     d="m 115.4978,32.42 c 1.2579,4.3792 -0.75224,8.8042 -4.4895,9.8779 -3.7383,1.0706 -7.7867,-1.6106 -9.0477,-5.994 -1.2589,-4.3802 0.75224,-8.8032 4.4895,-9.8779 3.7373,-1.0716 7.7887,1.6095 9.0477,5.994"
     fill="#f2e100"
     id="path922" />
  <path
     d="m 120.3278,91.86 c 2.5241,16.953 -3.2659,32.849 -25.239,35.374 -19.444,2.2359 -33.317,-16.809 -35.316,-31.366 -3.011,-21.914 4.7683,-42.284 25.59,-43.298 18.928,-0.91976 31.285,14.558 34.965,39.29"
     fill="#ffffff"
     id="path924" />
  <path
     d="m 51.6548,134.4 c -5.6933,1.9061 -11.715,4.6018 -12.915,7.2165 -0.1311,0.28314 1.1476,-0.3683 2.906,-1.1923 1.9134,-0.90207 5.2365,-1.6637 5.5112,-0.37353 0.17583,0.82925 -3.4168,0.88128 -5.5112,1.8124 -2.1475,0.95513 -3.5385,2.3347 -3.6176,2.3358 -0.03226,0.2383 -0.30901,1.7719 -0.45363,2.6302 -0.02182,0.11562 1.7667,-2.0236 4.5935,-3.1297 2.2827,-0.89268 5.2136,-1.5627 5.5091,0 0.20913,1.0998 -1.7864,0.30071 -4.6913,1.4899 -3.6665,1.5035 -5.0763,3.5396 -5.0638,3.7248 0.13941,2.3368 1.1799,3.5469 6.3904,1.8395 2.906,-0.95199 9.853,-3.2701 16.803,-5.5809 -1.7074,-0.21854 -4.8953,-0.98427 -7.4298,-3.6332 -3.3502,-3.498 -2.7749,-5.9232 -2.0309,-7.1395"
     fill="#776b59"
     id="path926" />
  <path
     d="m 79.3918,139.25 c -0.01144,0.006 -0.01976,0.0177 -0.02914,0.0236 0.01976,-0.0118 0.02914,-0.0177 0.02914,-0.0236"
     fill="#f9be00"
     id="path928" />
  <path
     d="m 141.8478,161.44 c 0.36311,-0.0265 0.29027,-2.7374 -0.92599,-4.8537 -1.0998,-1.9144 -3.345,-3.2389 -3.1286,-3.499 1.0758,-1.2964 2.5886,0.32669 4.245,2.3067 1.6751,1.9997 1.5648,5.5102 1.5648,5.5102 1.7885,-0.62843 2.7676,-2.0851 3.0828,-3.9422 0.0426,-0.2675 0.25803,-1.4254 -0.97385,-3.4033 -1.1705,-1.8832 -3.7955,-4.5904 -3.5978,-4.7933 0.47444,-0.48484 1.4806,0.37975 2.5075,1.44 2.2099,2.2848 2.0507,3.603 2.2588,3.3773 0.80738,-0.87293 -0.20081,-3.0391 -1.0196,-4.3189 -2.8924,-4.5384 -9.0851,-9.4763 -13.989,-13.141 0.26219,0.45466 0.58473,1.0488 0.98114,1.8416 1.1923,2.3857 -2.3087,4.5467 -3.9474,5.4394 -1.5742,0.85729 -6.4351,1.3702 -10.053,1.1455 6.3831,5.3864 17.817,14.817 19.511,16.036 0.89686,0.64404 2.1797,0.95719 3.4834,0.8542"
     fill="#776b59"
     id="path930" />
  <path
     d="m 124.9578,13.49 c -3.2337,0.58681 -7.8526,6.1816 -3.7739,8.7341 0.30589,0.0761 0.63051,0.14156 0.98321,0.1914 7.9927,1.1507 19.668,6.3977 23.249,8.566 0.63779,0.38703 -2.2682,-6.1469 -2.4117,-9.1122 -0.0999,-2.0913 0.73871,-3.7331 2.11,-5.0669 -1.1023,-2.3526 -4.4198,-2.3636 -7.3986,-3.0753 -4.347,-1.0394 -8.906,-0.93828 -12.758,-0.23703"
     fill="#f2e100"
     id="path932" />
  <path
     d="m 160.7878,13.24 c -0.0165,-0.47235 -17.349,-4.9452 -26.187,-4.6476 -5.2771,0.17696 -10.184,0.89791 -13.806,2.4814 -3.1775,1.389 -4.0026,3.0142 -3.9589,4.8537 0.0562,2.4034 0.3475,5.3187 4.3532,6.2926 -3.5271,-4.3626 0.77617,-7.282 4.0109,-7.8699 3.8517,-0.70022 8.1748,-0.64506 12.522,0.39432 2.9788,0.71273 5.4311,1.4306 7.3986,2.0528 0.57433,-0.55765 1.2381,-1.0623 1.9685,-1.519 7.0927,-4.4448 13.716,-1.44 13.698,-2.0382"
     fill="#cbbd00"
     id="path934" />
  <path
     d="m 76.3708,103.42 c -3.6447,2.5543 -12.503,-0.9676 -20.273,-11.775 -1.3442,-1.8686 -2.4721,-3.6582 -2.8331,-4.8505 -0.8438,-2.779 0,-3.0766 1.389,-0.64507 0.44115,0.76785 3.7289,-4.1066 10.577,-6.5787 2.7655,-0.99883 -0.1415,-7.6556 -1.5638,-10.502 -1.5638,-3.1265 -0.45155,-3.963 0.59617,-2.7551 3.8933,4.4937 4.7246,8.7033 8.7886,16.814 5.3229,10.624 9.9893,15.618 3.319,20.293"
     fill="#0f141b"
     id="path936" />
  <path
     d="m 72.5948,85.52 c -0.40681,-0.72932 -1.3328,-2.7561 -1.6938,-3.5604 -4.4957,-10.042 -5.8473,-16.901 -13.169,-17.26 -4.0712,-0.19761 -3.5593,5.5102 -4.3688,10.429 -0.75536,4.5811 -0.45571,7.5182 0.55351,10.052 0.65652,0.63881 1.4753,1.9217 1.7022,2.2088 0.83131,1.0519 2.6708,3.3263 6.0418,6.7421 0.35895,0.36312 0.70646,0.65445 1.0456,0.90416 0.07491,-0.34335 0.11029,-0.79802 0.08428,-1.4056 -0.02914,-0.65966 0.98738,-1.8062 1.8457,-1.4212 1.1102,0.49836 1.7844,0.74599 2.4315,0.19966 0.952,-0.80321 0.07387,-1.6376 1.2163,-2.1849 0.86148,-0.41407 1.8041,1.8083 2.9777,0.81884 0.35583,-0.29861 -1.5992,-3.4459 -1.0415,-4.7673 0.23826,-0.566 1.5346,-0.99778 2.3743,-0.75537"
     fill="#f9be00"
     id="path938" />
  <path
     d="m 55.6188,87.39 c -0.22682,-0.28726 -1.0456,-1.57 -1.7022,-2.2089 0.71998,1.8041 1.7958,3.4054 3.1224,5.2418 1.5128,2.0954 3.087,3.9505 4.6622,5.5518 0.38912,0.0614 0.81987,-0.0935 1.0061,-0.93742 -0.34022,-0.25069 -0.68773,-0.54208 -1.0456,-0.9052 -3.3721,-3.4158 -5.2105,-5.6902 -6.0429,-6.7421"
     fill="#d7a400"
     id="path940" />
  <path
     d="m 71.5998,100.56 c 0.85212,0.29758 2.5106,0.93224 3.5333,0.93224 0.87293,0 1.956,-0.46508 2.2515,-0.60136 2.7769,-3.6093 -0.80634,-8.1612 -4.7902,-15.365 -0.83964,-0.24331 -2.136,0.18846 -2.3743,0.75434 -0.55768,1.3224 1.3973,4.4697 1.0415,4.7673 -1.1736,0.99048 -2.1163,-1.2319 -2.9777,-0.81781 -1.1424,0.54727 -0.26427,1.3807 -1.2152,2.185 -0.6482,0.54517 -1.3224,0.29858 -2.4326,-0.19967 -0.85836,-0.386 -1.8749,0.76162 -1.8457,1.4213 0.03017,0.68043 -0.0177,1.1715 -0.11341,1.5284 0.0489,-0.0118 0.08011,-0.0206 0.08011,-0.0206 0.35063,0.17489 4.6123,3.9266 8.8427,5.4155"
     fill="#776b59"
     id="path942" />
  <path
     d="m 61.7008,95.98 c 5.7266,5.8234 11.432,8.2653 14.006,6.4643 0.71374,-0.50253 1.2652,-1.0176 1.6772,-1.5524 -0.29444,0.13625 -1.3775,0.60138 -2.2505,0.60138 -1.0228,0 -2.6812,-0.63571 -3.5333,-0.93327 -4.2315,-1.4878 -8.4921,-5.2407 -8.8427,-5.4155 0,0 -0.03225,0.006 -0.08116,0.0207 -0.19768,0.73767 -0.60658,0.87293 -0.97593,0.81468"
     fill="#594f41"
     id="path944" />
  <path
     d="m 110.2678,102.77 c 4.2679,1.2672 12.641,-4.7007 15.451,-17.716 0.32982,-1.5367 1.4264,-7.3258 0.73872,-10.323 -0.59722,-2.6084 -2.0101,-0.9697 -1.7864,3.5 0.30797,6.2052 -12.012,-1.6158 -13.632,-1.7157 -0.75327,-0.0436 -0.18521,-10.183 0.12382,-11.32 0.59721,-2.1839 -0.73039,-2.6385 -1.0914,-1.1913 -1.1913,4.7662 -2.3358,8.2403 -2.9486,18.35 -0.73351,12.07 -4.6622,18.098 3.1453,20.416"
     fill="#0f141b"
     id="path946" />
  <path
     d="m 122.3878,82.95 c 1.9841,-4.6695 2.6854,-7.7065 2.8893,-8.8739 0.0458,-0.26219 0.10508,-0.3881 0.16958,-0.42555 -0.21017,-2.3056 -0.86253,-3.961 -2.1704,-3.9953 -1.6002,-0.0428 -6.4289,-8.4047 -9.8644,-8.1831 -2.3067,0.14776 -4.0203,10.279 -5.0732,21.066 -0.14982,1.5024 -0.33918,2.906 -0.54207,4.22 0.69294,-0.10205 2.5564,-0.37978 3.4574,-0.55871 1.1185,-0.22474 3.0526,0.0737 4.0203,1.9373 0.97073,1.8624 0.44843,1.7126 1.1174,2.2723 0.65028,0.54001 1.133,0.42036 1.9644,-0.0354 0.001,-0.003 0.001,-0.006 0.004,-0.009 0.87501,-1.6647 2.7093,-4.3158 4.0276,-7.4152"
     fill="#f9be00"
     id="path948" />
  <path
     d="m 121.6978,91.5 c 0.94472,-1.9238 1.802,-4.0973 2.5085,-6.5184 0.90622,-3.112 1.5596,-7.9313 1.2496,-11.33 -0.0645,0.0363 -0.12381,0.16221 -0.16959,0.42449 -0.20394,1.1674 -0.90518,4.2044 -2.8893,8.8739 -1.3182,3.1005 -3.1525,5.7516 -4.0276,7.4152 -0.003,0.002 -0.003,0.006 -0.004,0.009 0.34335,-0.18935 0.73767,-0.42659 1.2392,-0.70957 1.5492,-0.87605 2.2744,0.74599 2.0934,1.8364"
     fill="#d7a400"
     id="path950" />
  <path
     d="m 110.4778,100.53 c 1.7531,-0.58369 2.9205,-2.2182 2.9205,-2.2182 0,0 3.2888,-5.248 4.9046,-7.9021 -0.79801,0.43074 -1.2745,0.53476 -1.9102,0.006 -0.67004,-0.55975 -0.14773,-0.40889 -1.1185,-2.2713 -0.96657,-1.8634 -2.9018,-2.162 -4.0203,-1.9384 -0.90102,0.17902 -2.7644,0.45676 -3.4574,0.55977 -1.2288,7.9916 -2.8789,12.583 2.2817,14.485 -0.2601,-0.2445 -0.2081,-0.51813 0.39953,-0.72101"
     fill="#776b59"
     id="path952" />
  <path
     d="m 121.6978,91.5 c 0.18103,-1.0904 -0.54415,-2.7124 -2.0934,-1.8364 -0.52751,0.29858 -0.94056,0.54727 -1.2933,0.73871 -1.6158,2.6541 -4.9046,7.9021 -4.9046,7.9021 0,0 -1.1674,1.6346 -2.9195,2.2182 -0.60762,0.20291 -0.65964,0.47651 -0.39953,0.72101 0.1415,0.0531 0.27988,0.10204 0.43074,0.14982 2.8435,0.9052 7.6368,-2.6854 11.18,-9.8935"
     fill="#594f41"
     id="path954" />
  <path
     d="m 76.8568,103.42 c -3.6457,2.5543 -12.989,-0.9676 -20.76,-11.775 -1.3442,-1.8686 -2.4721,-3.6582 -2.8331,-4.8505 -0.84276,-2.779 0,-3.0766 1.389,-0.64507 0.44115,0.76785 3.7289,-4.1066 10.577,-6.5787 2.7665,-0.99883 -0.14046,-7.6556 -1.5638,-10.502 -1.8634,-3.7248 -0.85212,-4.425 0.59721,-2.7551 3.8933,4.4937 4.5509,9.4285 9.0248,17.321 6.7244,11.857 8.5836,16.27 3.5687,19.785"
     fill="#0f141b"
     id="path956" />
  <path
     d="m 72.5948,85.52 c -0.40473,-0.72932 -1.3328,-2.7561 -1.6938,-3.5604 -4.4957,-10.042 -5.8473,-16.901 -13.169,-17.26 -4.0712,-0.19761 -3.5593,5.5102 -4.3688,10.429 -0.75432,4.5811 -0.45571,7.5182 0.55351,10.052 0.65652,0.63881 1.4753,1.9217 1.7022,2.2088 0.83131,1.0519 2.6708,3.3263 6.0439,6.7421 0.35687,0.36312 0.70438,0.65445 1.0436,0.90416 0.07491,-0.34335 0.11237,-0.79802 0.08428,-1.4056 -0.02914,-0.65966 0.98738,-1.8062 1.8457,-1.4212 1.1102,0.49836 1.7844,0.74599 2.4315,0.19966 0.952,-0.80321 0.07491,-1.6376 1.2163,-2.1849 0.86357,-0.41407 1.8052,1.8083 2.9777,0.81884 0.35583,-0.29861 -1.5992,-3.4459 -1.0404,-4.7673 0.23826,-0.566 1.5336,-0.99778 2.3732,-0.75537"
     fill="#f9be00"
     id="path958" />
  <path
     d="m 55.6188,87.39 c -0.22682,-0.28726 -1.0456,-1.57 -1.7022,-2.2089 0.71998,1.8041 1.7958,3.4054 3.1224,5.2418 1.5128,2.0954 3.087,3.9505 4.6622,5.5518 0.38912,0.0614 0.81987,-0.0935 1.0061,-0.93742 -0.34022,-0.25069 -0.68773,-0.54208 -1.0436,-0.9052 -3.3742,-3.4158 -5.2126,-5.6902 -6.045,-6.7421"
     fill="#d7a400"
     id="path960" />
  <path
     d="m 71.6018,100.56 c 0.85004,0.29758 2.5085,0.93224 3.5323,0.93224 0.87189,0 1.955,-0.46508 2.2505,-0.60136 2.778,-3.6093 -0.80634,-8.1612 -4.7902,-15.365 -0.83964,-0.24331 -2.135,0.18846 -2.3732,0.75434 -0.55872,1.3224 1.3963,4.4697 1.0404,4.7673 -1.1726,0.99048 -2.1142,-1.2319 -2.9767,-0.81781 -1.1424,0.54727 -0.26531,1.3807 -1.2163,2.185 -0.64715,0.54517 -1.3224,0.29858 -2.4326,-0.19967 -0.85836,-0.386 -1.8749,0.76162 -1.8457,1.4213 0.03121,0.68043 -0.0177,1.1715 -0.11341,1.5284 0.0489,-0.0118 0.08115,-0.0206 0.08115,-0.0206 0.34959,0.17489 4.6112,3.9266 8.8437,5.4155"
     fill="#776b59"
     id="path962" />
  <path
     d="m 61.7008,95.98 c 5.7266,5.8234 11.433,8.2653 14.006,6.4643 0.71374,-0.50253 1.2662,-1.0176 1.6772,-1.5524 -0.29444,0.13625 -1.3775,0.60138 -2.2505,0.60138 -1.0228,0 -2.6812,-0.63571 -3.5313,-0.93327 -4.2336,-1.4878 -8.4942,-5.2407 -8.8437,-5.4155 0,0 -0.0333,0.006 -0.08219,0.0207 -0.19768,0.73767 -0.60658,0.87293 -0.97593,0.81468"
     fill="#594f41"
     id="path964" />
  <path
     d="m 110.2678,102.77 c 4.2679,1.2672 12.274,-4.7007 15.082,-17.716 0.32982,-1.5367 1.7948,-7.3258 1.1081,-10.323 -0.59825,-2.6084 -2.0112,-0.9697 -1.7875,3.5 0.30797,6.2052 -12.012,-1.6158 -13.632,-1.7157 -0.75327,-0.0436 -0.18521,-10.183 0.12485,-11.32 0.90934,-3.3273 -0.44427,-3.7882 -1.0914,-1.1913 -1.1923,4.7662 -2.008,8.285 -3.1338,18.35 -1.3734,12.306 -4.476,18.098 3.3294,20.416"
     fill="#0f141b"
     id="path966" />
  <path
     d="m 122.3878,82.95 c 1.9841,-4.6695 2.6854,-7.7065 2.8893,-8.8739 0.0479,-0.26219 0.10508,-0.3881 0.16958,-0.42555 -0.21017,-2.3056 -0.86253,-3.961 -2.1704,-3.9953 -1.6002,-0.0428 -6.4289,-8.4047 -9.8613,-8.1831 -2.3098,0.14776 -4.0234,10.279 -5.0763,21.066 -0.14982,1.5024 -0.33918,2.906 -0.54207,4.22 0.69294,-0.10205 2.5564,-0.37978 3.4574,-0.55871 1.1185,-0.22474 3.0526,0.0737 4.0203,1.9373 0.97073,1.8624 0.44843,1.7126 1.1174,2.2723 0.65028,0.54001 1.133,0.42036 1.9644,-0.0354 0.001,-0.003 0.002,-0.006 0.004,-0.009 0.87501,-1.6647 2.7093,-4.3158 4.0276,-7.4152"
     fill="#f9be00"
     id="path968" />
  <path
     d="m 121.6978,91.5 c 0.94368,-1.9238 1.8,-4.0973 2.5064,-6.5184 0.90727,-3.112 1.5596,-7.9313 1.2496,-11.33 -0.0645,0.0363 -0.12171,0.16221 -0.16958,0.42449 -0.20391,1.1674 -0.90518,4.2044 -2.8893,8.8739 -1.3182,3.1005 -3.1525,5.7516 -4.0276,7.4152 -0.002,0.002 -0.003,0.006 -0.004,0.009 0.34334,-0.18935 0.73767,-0.42659 1.2392,-0.70957 1.5513,-0.87605 2.2744,0.74599 2.0954,1.8364"
     fill="#d7a400"
     id="path970" />
  <path
     d="m 110.4778,100.53 c 1.7531,-0.58369 2.9205,-2.2182 2.9205,-2.2182 0,0 3.2909,-5.248 4.9046,-7.9021 -0.79801,0.43074 -1.2745,0.53476 -1.9102,0.006 -0.67004,-0.55975 -0.14773,-0.40889 -1.1185,-2.2713 -0.96657,-1.8634 -2.9018,-2.162 -4.0203,-1.9384 -0.90102,0.17902 -2.7644,0.45676 -3.4574,0.55977 -1.2288,7.9916 -2.8789,12.583 2.2817,14.485 -0.2601,-0.2445 -0.2081,-0.51813 0.39953,-0.72101"
     fill="#776b59"
     id="path972" />
  <path
     d="m 121.6978,91.5 c 0.17896,-1.0904 -0.54415,-2.7124 -2.0954,-1.8364 -0.5275,0.29858 -0.93847,0.54727 -1.2933,0.73871 -1.6137,2.6541 -4.9046,7.9021 -4.9046,7.9021 0,0 -1.1674,1.6346 -2.9195,2.2182 -0.60762,0.20291 -0.65964,0.47651 -0.39953,0.72101 0.14151,0.0531 0.28092,0.10204 0.43075,0.14982 2.8435,0.9052 7.6368,-2.6854 11.182,-9.8935"
     fill="#594f41"
     id="path974" />
  <path
     d="m 82.4648,27.72 c 0.04682,0.52019 -0.37976,1.2974 -1.9061,1.5066 -1.5461,0.21117 -2.0663,-0.16221 -2.2411,-0.77826 -0.22474,-0.78866 0.48276,-1.5981 1.7958,-1.776 1.416,-0.19465 2.3056,0.53167 2.3514,1.0477"
     fill="#0f141b"
     id="path976" />
  <path
     d="m 89.0208,33.08 c 0.87501,4.6986 -1.4056,13.269 -4.5686,14.15 -4.6986,1.312 -8.8666,-7.925 -10.287,-12.73 0,0 4.3657,-2.5522 7.538,-2.8404 2.4024,-0.21647 7.3174,1.4202 7.3174,1.4202"
     fill="#0f141b"
     id="path978" />
  <path
     d="m 87.7788,33.01 c 0,0 -4.3532,-1.3297 -6.2988,-1.1518 -2.5688,0.23211 -6.1053,2.3004 -6.1053,2.3004 0.51606,1.7428 1.5929,4.4333 2.9673,6.7754 2.2193,-2.6437 6.0855,-2.8154 9.1278,-1.416 0.4786,-2.3358 0.62218,-4.8339 0.30901,-6.508"
     fill="#b01419"
     id="path980" />
  <path
     d="m 78.3418,40.94 c 1.6928,2.8872 3.8371,5.2501 5.9378,4.6633 1.4337,-0.39951 2.5824,-3.1078 3.19,-6.0793 -3.0412,-1.3994 -6.9075,-1.2277 -9.1278,1.416"
     fill="#ed1c24"
     id="path982" />
  <path
     d="m 89.0208,33.41 c 3.4511,0.10293 4.604,-1.5086 3.9037,-3.7321 -0.22994,-0.73662 -0.58993,-0.87397 -0.8438,-0.80009 -0.22162,0.0625 -0.31525,0.29346 -0.12901,1.1247 0.28508,1.2569 -0.03538,2.316 -2.7114,2.316 -1.4733,0 -6.4164,-1.5992 -8.1394,-1.5992 -2.4679,0 -4.9733,2.8862 -6.8513,3.035 -1.7781,0.14245 -2.4669,-0.85213 -2.8518,-1.6439 -0.26635,-0.54936 -0.7023,-0.86358 -0.93328,-0.76994 -0.27572,0.11355 -0.33502,0.67837 -0.16231,1.2163 0.3652,1.1351 1.1185,2.6302 3.7113,2.5314 1.9664,-0.0749 4.4125,-2.9902 7.4693,-2.934 1.8603,0.0333 5.9815,1.209 7.538,1.2558"
     id="path984"
     style="fill:#0f141b" />
  <path
     d="m 77.6548,41.05 c -0.1852,0.24037 0.5067,0.91248 0.69085,0.67005 1.9248,-2.5127 6.4799,-3.1942 9.5617,-1.4275 0.26115,0.15189 0.81154,-0.62012 0.54831,-0.77307 -4.2741,-2.4523 -8.3547,-1.6668 -10.801,1.5305"
     id="path986"
     style="fill:#0f141b" />
  <path
     d="m 147.5378,58.35 c -0.0791,0.93118 0.31421,2.1891 0.54311,2.1464 0.22786,-0.0416 0.077,-1.131 0.28301,-2.3244 0.20288,-1.1913 -0.73143,-0.93952 -0.82611,0.17784"
     id="path988"
     style="fill:#0f141b" />
</svg>
