<?xml version="1.0" encoding="UTF-8" standalone="no"?>
<!-- Created with Inkscape (http://www.inkscape.org/) -->

<svg
   version="1.1"
   viewBox="0 0 191.9 185.22"
   id="svg23269"
   sodipodi:docname="1clef.svg"
   inkscape:version="1.2.2 (b0a8486, 2022-12-01)"
   xmlns:inkscape="http://www.inkscape.org/namespaces/inkscape"
   xmlns:sodipodi="http://sodipodi.sourceforge.net/DTD/sodipodi-0.dtd"
   xmlns="http://www.w3.org/2000/svg"
   xmlns:svg="http://www.w3.org/2000/svg">
  <defs
     id="defs23273" />
  <sodipodi:namedview
     id="namedview23271"
     pagecolor="#505050"
     bordercolor="#eeeeee"
     borderopacity="1"
     inkscape:showpageshadow="0"
     inkscape:pageopacity="0"
     inkscape:pagecheckerboard="0"
     inkscape:deskcolor="#505050"
     showgrid="false"
     inkscape:zoom="1.2741604"
     inkscape:cx="64.748517"
     inkscape:cy="91.04034"
     inkscape:window-width="1309"
     inkscape:window-height="430"
     inkscape:window-x="0"
     inkscape:window-y="25"
     inkscape:window-maximized="0"
     inkscape:current-layer="svg23269" />
  <path
     d="m 96.549,37.759 c -8.6057,2.8812 -17.708,6.9559 -19.522,10.908 -0.19838,0.42797 1.7346,-0.55671 4.3925,-1.8023 2.8922,-1.3635 7.9153,-2.5147 8.3305,-0.56461 0.2657,1.2535 -5.1647,1.3321 -8.3305,2.7396 -3.246,1.4437 -5.3486,3.5291 -5.4682,3.5307 -0.04856,0.3602 -0.46711,2.6783 -0.68573,3.9757 -0.0312,0.17476 2.6704,-3.0588 6.9434,-4.7306 3.4504,-1.3493 7.8807,-2.3622 8.3274,0 0.31606,1.6623 -2.7003,0.45455 -7.0912,2.2521 -5.5421,2.2726 -7.6731,5.3503 -7.6542,5.6302 0.21086,3.5322 1.7834,5.3613 9.6594,2.7805 4.3925,-1.439 14.893,-4.9429 25.399,-8.4358 -2.5807,-0.33034 -7.3995,-1.4878 -11.23,-5.4918 -5.0641,-5.2873 -4.1943,-8.9533 -3.0699,-10.792"
     fill="#665b4d"
     id="path23135" />
  <path
     d="m 138.479,45.079 c -0.0177,0.009 -0.0312,0.0268 -0.0447,0.0357 0.0312,-0.0177 0.0447,-0.0268 0.0447,-0.0357"
     fill="#fab20b"
     id="path23137" />
  <path
     d="m 146.089,112.599 c 13.401,1.2393 26.487,13.075 27.105,29.258 0.62907,16.394 -8.1323,34.468 -29.367,37.252 -20.232,2.6547 -33.679,-10.697 -36.772,-19.287 z"
     fill="#f9dad9"
     id="path23139" />
  <path
     d="m 144.319,118.309 c 0.28932,-0.73446 0.16672,11.446 -2.6264,17.726 -2.8843,6.492 -9.1388,14.51 -12.437,16.985 -1.1653,0.87595 5.4871,4.2965 10.361,3.9851 4.8454,-0.31161 9.672,-2.8182 12.97,-6.8364 -1.4421,5.5657 -10.282,12.482 -12.577,14.486 -4.122,3.6093 -1.8636,9.3983 1.0317,10.721 3.6077,1.6482 9.6877,1.1229 17.623,-2.5902 -3.4017,3.0934 -10.921,8.5145 -28.209,5.8346 -7.3208,-1.1339 -20.671,-9.4848 -23.103,-19.94 19.379,-8.5554 30.985,-25.323 36.966,-40.371"
     fill="#d7bdbc"
     id="path23141" />
  <path
     d="m 106.569,160.189 c 13.116,28.863 60.039,26.371 66.803,-7.898 5.1898,-26.3 -13.542,-39.749 -27.78,-38.693 -0.53002,0.77378 -0.2122,-0.58819 -0.47807,0.96721 22.135,1.9422 29.763,20.61 26.408,37.026 -7.1652,35.066 -54.075,33.232 -62.994,7.6542 -1.1622,-3.3388 -3.1674,-1.7127 -1.9596,0.94358"
     id="path23143"
     style="fill:#0f141b" />
  <path
     d="m 125.659,147.559 c 3.2979,6.6524 11.138,9.6704 17.861,7.8744 10.243,-2.738 12.132,-17.038 7.272,-22.338 -0.92472,-1.0112 -0.31117,-1.5444 1.5428,-0.0977 3.3718,2.6358 6.1224,19.095 -8.093,24.125 -5.6176,1.9879 -15.834,-0.30672 -19.91,-8.7441 -0.54257,-1.1182 0.39632,-2.6909 1.3273,-0.81939"
     id="path23145"
     style="fill:#0f141b" />
  <path
     d="m 176.689,94.029 c 0.56933,4.9508 -3.4221,11.954 -18.046,19.267 13.017,19.742 -7.5866,21.151 -11.853,19.637 -7.8272,-2.7774 -10.902,-14.593 -10.526,-15.543 l 10.639,-26.042 c 0.15111,-0.37759 0.42306,-0.6967 0.77377,-0.9043 14.252,-8.4736 28.129,-4.0607 29.013,3.5857"
     id="path23147"
     style="fill:#0f141b" />
  <path
     d="m 158.209,111.649 c 9.348,-4.2997 16.809,-12.278 16.359,-16.134 -0.3932,-3.3954 -2.867,-5.2952 -4.8753,-6.2908 -4.4522,-2.2064 -12.166,-2.4848 -19.547,1.6844 -0.47812,1.1952 -11.342,28.415 -11.844,29.676 1.6906,5.1002 5.064,9.0067 9.1561,10.457 3.5983,1.277 7.4168,0.64637 11.045,-1.8164 0.80208,-0.5473 1.4107,-1.1874 1.8322,-1.9407 0.29111,-0.51902 0.49537,-1.093 0.61016,-1.7221 0.89802,-4.8391 -3.4206,-11.119 -3.4646,-11.18 -1.1748,-1.612 -0.9892,-1.9438 0.72817,-2.7333"
     fill="#f9dad9"
     id="path23151" />
  <path
     d="m 138.299,120.579 c 0.50166,-1.2612 11.367,-28.48 11.844,-29.675 2.0806,-1.1748 4.1849,-1.9847 6.2404,-2.5116 0.014,1.3226 0.004,2.6547 -0.0504,3.9994 -0.60548,14.849 -5.3613,27.967 -12.372,36.653 -2.4833,-1.9674 -4.4853,-4.9146 -5.6616,-8.4658"
     fill="#d7bdbc"
     id="path23153" />
  <path
     d="m 105.649,160.139 c -14.978,5.4698 -39.336,5.0924 -60.312,-6.0784 -25.29,-13.472 -32.658,-50.466 -25.372,-72.112 -4.1754,-0.67155 -11.874,-3.095 -14.09,-5.9023 -1.5475,-1.958 -1.5239,-7.7077 0.95147,-9.9236 2.2018,-1.9737 26.108,-9.1121 26.419,-9.6248 1.8432,-3.0761 6.9544,-8.7708 9.738,-10.623 -3.1957,-7.2186 -4.9933,-30.276 2.0178,-38.834 2.2647,-2.7648 12.712,0.41058 22.224,4.9948 11.82,-13.192 27.91,-11.896 33.559,-10.455 11.479,2.9174 26.651,12.473 29.777,28.621 14.258,-1.1827 52.309,4.4004 60.446,16.611 2.433,3.647 -22.492,36.341 -40.328,42.286 0.27506,2.1986 -1.8054,17.68 -4.5875,23.501 -5.7041,18.806 -18.871,37.144 -40.443,47.541"
     fill="#f9dad9"
     id="path23155" />
  <path
     d="m 70.424,67.349 c -1.1323,1.763 -6.4543,6.0312 -9.0665,3.5385 -0.50321,-0.48124 -0.85392,-2.0728 -0.98917,-2.8859 1.6513,-1.2597 3.7744,-1.7582 5.9353,-1.7582 1.3447,0 2.9425,0.58347 4.1204,1.1056"
     fill="#f46899"
     id="path23157"
     style="fill:#ed8599;fill-opacity:1" />
  <path
     d="m 60.369,67.999 c 0.1181,-1.9942 0.84925,-4.9115 1.6938,-5.767 0.3553,0.38695 3.1705,2.0256 5.4367,3.2822 -0.4137,-0.0486 -0.41682,0.67623 -0.84764,0.67623 -2.1451,0 -4.553,0.70298 -6.2829,1.8086"
     fill="#89260e"
     id="path23159"
     style="fill:#922f00;fill-opacity:1" />
  <path
     d="m 70.046,67.699 c -3.9663,-1.7583 -7.2045,-0.92633 -9.6767,0.9593 -0.08956,-0.53313 -0.03568,-0.47023 0,-1.0584 2.5257,-1.612 4.9351,-2.0413 7.3428,-1.7567 1.1858,0.65738 2.0162,0.88856 2.466,1.0962 0.18723,0.0834 0.11642,0.37268 -0.13196,0.7596"
     fill="#0f141b"
     id="path23161" />
  <path
     d="m 79.84,71.129 c -1.1905,-0.0312 -1.7677,1.4091 -1.5349,2.1121 0.34906,1.0427 1.1606,1.6828 3.2869,2.8984 1.5239,0.86967 2.9299,1.4484 4.1676,1.4091 1.0898,-0.0312 1.656,-1.3714 1.1496,-2.4094 -0.45922,-0.9499 -1.8196,-2.024 -3.2397,-2.8009 -1.5286,-0.83508 -2.7538,-1.1827 -3.8295,-1.2094"
     fill="#f467b2"
     id="path23163"
     style="fill:#ed85ad;fill-opacity:1" />
  <path
     d="m 47.267,52.849 c -0.60394,0.82566 -0.40123,1.9029 1.8573,3.6832 1.4453,1.137 3.2538,1.3336 3.7901,0.46233 0.53786,-0.87438 -0.02673,-1.818 -1.8809,-3.2507 -2.0429,-1.5695 -3.1029,-1.796 -3.7665,-0.89485"
     fill="#f467b2"
     id="path23165"
     style="fill:#ed85ad;fill-opacity:1" />
  <path
     d="m 190.609,45.949 c -5.9164,-6.8757 -25.139,-13.137 -28.852,-12.311 -1.7016,0.3776 -7.1069,4.2195 -11.028,9.3826 -4.6331,6.0957 -7.6306,13.759 -6.2891,15.769 2.4722,3.7116 51.015,-7.206 46.169,-12.841"
     fill="#484025"
     id="path23167"
     style="fill:#524423;fill-opacity:1" />
  <path
     d="M 60.853,8.772 C 56.8097,6.8329 50.008,5.1878 46.946,6.1865 c -2.867,0.93418 -5.9778,10.472 -5.8079,13.64 3.5275,-4.4963 16.059,-11.028 19.715,-11.054"
     fill="#484025"
     id="path23169"
     style="fill:#524423;fill-opacity:1" />
  <path
     d="m 98.099,38.639 c 2.2961,-2.4282 1.774,-15.293 -8.4893,-16.274 -10.299,-0.98451 -12.632,10.204 -11.849,9.3873 4.6567,-4.8549 9.0996,-5.421 11.451,-4.8627 9.1215,2.1672 8.8872,11.749 8.8872,11.749"
     id="path23171"
     style="fill:#d7bdbc" />
  <path
     d="m 96.409,45.669 c -1.2361,3.4363 -6.5958,10.51 -14.708,10.921 -4.4727,0.22958 -7.9515,-1.4578 -10.521,-3.8311 -3.9002,-3.6062 -5.7057,-8.8022 -5.7057,-11.29 4.1236,7.2862 12.099,9.3747 14.964,9.7632 8.0411,1.0977 13.909,-4.1896 15.971,-5.5626"
     id="path23173"
     style="fill:#d7bdbc" />
  <path
     d="m 128.059,70.439 c 6.3536,15.565 -0.27372,42.558 -7.7329,53.295 -22.06,31.749 -74.635,36.905 -91.538,15.052 17.933,24.738 54.907,28.311 74.768,21.37 23.144,-8.0867 43.982,-34.017 46.816,-72.554 0.56457,-7.6354 -17.642,-17.987 -22.313,-17.163"
     id="path23175"
     style="fill:#d7bdbc" />
  <path
     d="m 82.273,163.899 c -1.5837,5.4273 -6.1193,12.091 -8.4925,13.517 -4.4648,2.6767 -10.639,1.1968 -13.404,-0.18413 -9.0728,-4.5356 -20.962,-23.323 -21.374,-26.825 13.335,9.2741 33.647,13.492 43.271,13.492"
     id="path23177"
     style="fill:#d7bdbc" />
  <path
     d="m 107.079,68.629 c 0.48753,-0.0977 2.3732,0.89328 1.8023,2.164 -2.4203,5.4116 -6.3584,20.174 -6.6304,25.103 -0.27193,4.9477 -5.9007,3.2838 -6.3206,-0.55198 -0.61965,-5.635 6.459,-25.789 11.149,-26.715"
     id="path23179"
     style="fill:#d7bdbc" />
  <path
     d="m 23.101,73.349 c -1.288,2.1121 -2.2521,4.3799 -3.2838,8.5223 -2.0115,0.20462 -12.486,-3.603 -13.906,-5.6082 -1.494,-2.1137 -1.4076,-4.6693 -0.73762,-6.9371 1.5979,0.87754 11.639,3.3498 17.927,4.0229"
     id="path23181"
     style="fill:#d7bdbc" />
  <path
     d="m 5.413,69.589 c -0.54258,1.2377 -1.5916,5.8991 0.63847,7.368 -2.3071,-0.11951 -5.097,-1.8338 -5.5091,-2.8686 -0.41058,-1.0286 2.9378,-3.6738 4.8706,-4.4994"
     fill="#ffffff"
     id="path23185" />
  <path
     d="m 72.783,178.949 c -0.51583,1.5695 -7.5536,6.0297 -9.5116,5.3235 -2.705,-0.97977 -4.6897,-6.5942 -3.982,-7.0456 0.85242,-0.53941 2.0712,1.1402 5.3424,1.8117 4.4931,0.9216 8.4327,-0.93573 8.1512,-0.0895"
     fill="#ffffff"
     id="path23187" />
  <path
     d="m 151.649,87.409 c 13.08,-4.9304 41.082,-35.714 36.821,-41.038 -7.4891,-9.3606 -39.267,-17.792 -63.396,-14.385 -2.6327,0.37269 -3.0699,-0.38382 0.2171,-1.2062 12.21,-3.051 43.268,-0.30493 61.045,10.609 7.3208,4.501 6.8993,7.0252 1.7724,14.462 -6.9858,10.125 -20.531,26.586 -35.648,33.201 -2.9503,1.288 -3.5747,-0.60394 -0.81149,-1.6434"
     id="path23189"
     style="fill:#0f141b" />
  <path
     d="m 78.984,36.179 c -1.6009,-6.2388 6.492,-10.391 12.245,-7.2359 5.1505,2.823 7.6558,8.5742 4.2667,14.845 -3.71,6.8663 -13.855,9.0382 -22.018,4.2132 -20.494,-12.11 -9.7506,-47.294 20.31,-46.183 15.615,0.5819 31.8,11.783 36.179,28.918 0.0753,0.29868 1.774,0.59447 1.5869,-0.10383 -5.366,-19.846 -22.249,-30.631 -38.328,-30.631 -18.13,0 -28.876,11.875 -30.972,22.733 -2.2741,11.783 1.0458,20.634 10.314,26.533 8.612,5.4792 20.667,3.0337 24.567,-4.2337 4.3658,-8.1355 -0.14934,-16.423 -6.1224,-18.416 -9.738,-3.2476 -15.337,4.6394 -13.663,10.034 1.2393,3.9852 2.2427,1.9108 1.6356,-0.47179"
     id="path23191"
     style="fill:#0f141b" />
  <path
     d="M 43.722,44.689 C 38.3701,26.918 43.89497,9.456 47.3203,7.766 c 2.7428,-1.351 13.049,1.4877 19.39,5.1301 1.5066,0.86494 2.1341,-0.6967 1.5051,-1.0962 C 60.7137,7.03 48.6304,3.9758 45.8614,5.7325 c -3.842,2.433 -9.8859,20.701 -3.3797,40.43 0.60076,1.8227 1.6309,-0.17609 1.2409,-1.4736"
     id="path23193"
     style="fill:#0f141b" />
  <path
     d="m 175.999,69.629 c -10.745,11.23 -18.369,17.483 -26.006,19.366 -2.6657,-3.9301 -13.939,-15.978 -21.244,-17.958 -6.8113,-1.8479 33.597,-27.619 61.636,-23.705 2.6169,0.36779 -4.3217,11.776 -14.387,22.297"
     id="path23195"
     style="fill:#0f141b" />
  <path
     d="m 88.499,59.329 c 1.6403,0.73441 -0.18857,3.5542 -0.94362,4.6457 -0.94363,1.3635 -2.65,3.2806 -3.7005,2.7554 -1.0506,-0.52528 -0.63068,-2.5194 0.7077,-4.7259 1.1575,-1.9045 2.9393,-3.1202 3.9364,-2.6751"
     id="path23197"
     style="fill:#0f141b" />
  <path
     d="m 80.792,67.689 c -0.71244,-0.59447 -0.76433,-0.69202 -1.082,-1.5271 -0.40256,-1.071 -0.44661,-2.2143 0.92788,-4.0213 0.60076,-0.78952 -0.15246,-2.1137 -1.3902,-0.876 -1.373,1.3729 -1.7331,3.8688 -1.1764,5.4745 0.46238,1.3399 1.0222,1.8432 2.002,2.4109 0.92789,0.53785 1.8573,-0.51427 0.71872,-1.461"
     id="path23199"
     style="fill:#0f141b" />
  <path
     d="m 86.499,60.669 c -0.55515,0.78007 -0.66049,1.6561 -0.23582,1.958 0.4244,0.30359 1.222,-0.0816 1.7755,-0.86342 0.55676,-0.77689 0.65898,-1.6544 0.23583,-1.9579 -0.4244,-0.3018 -1.2188,0.0834 -1.7756,0.86337"
     fill="#ffffff"
     id="path23203" />
  <path
     d="m 66.1,48.399 c -1.0395,-1.082 -2.6594,0.37448 -3.732,1.8306 -0.82406,1.1213 -1.9202,3.2177 -0.7423,3.9867 0.57088,0.37448 1.7787,-0.50169 3.1391,-2.1797 1.1764,-1.45 1.969,-2.9739 1.3352,-3.6376"
     fill="#0f141b"
     id="path23205" />
  <path
     d="m 57.701,55.029 c -0.75332,-0.58346 -1.1339,-1.1858 -1.0269,-2.37 0.14801,-1.7535 1.1559,-2.4219 2.164,-3.7618 0.51428,-0.68885 -0.41192,-1.8558 -1.3447,-0.92633 -1.1575,1.1591 -2.6263,3.2822 -2.5571,4.9949 0.05975,1.5145 0.68724,2.8198 1.7378,3.3498 1.1119,0.56933 1.5632,-0.87283 1.0269,-1.2864"
     fill="#0f141b"
     id="path23207" />
  <path
     d="m 65.274,50.129 c -0.45765,0.65737 -1.1198,0.98918 -1.4799,0.7423 -0.35842,-0.25321 -0.27817,-0.98923 0.17921,-1.6466 0.45922,-0.65893 1.1213,-0.98923 1.4799,-0.73757 0.36154,0.24832 0.28174,0.98607 -0.17921,1.6419"
     fill="#ffffff"
     id="path23209" />
  <path
     d="m 62.462,62.589 c -0.55671,0.92948 -1.5664,3.7619 -1.4091,5.4824 0.20597,2.2678 1.6482,3.7084 4.6394,2.5226 1.3792,-0.54571 3.7115,-3.2948 3.7115,-3.2948 -2.5792,-0.98134 -6.4448,-3.0431 -8.5585,-6.0721 -0.43733,-0.62751 -0.08787,-1.4044 0.55204,-0.66366 1.4091,1.6309 6.0815,4.3956 9.587,5.7717 0.52685,0.20774 0.66839,0.75486 0.4449,1.1355 -0.68567,1.1669 -3.6659,3.5637 -5.1269,4.251 -3.2994,1.5428 -6.2309,0.35842 -6.3867,-3.419 -0.0771,-1.925 0.79424,-5.1631 1.7567,-6.1964 0.51267,-0.54726 1.1323,-0.0895 0.78947,0.4828"
     id="path23211"
     style="fill:#0f141b" />
  <path
     d="m 97.069,93.879 c 0.72973,-8.7142 6.5612,-23.293 10.848,-25.666 4.1629,-2.2977 7.4624,0.66211 8.98,3.8389 1.4327,2.996 2.6752,17.189 2.7774,19.443 0.15112,3.3074 1.2833,3.5512 1.6576,-0.32231 0.36823,-3.8373 -1.2676,-16.534 -3.2633,-20.612 -3.1595,-6.459 -8.6151,-5.6727 -11.113,-4.0544 -3.2994,2.1278 -10.858,13.377 -11.448,26.951 -0.14311,3.3011 1.2251,4.4287 1.5601,0.42128"
     id="path23213"
     style="fill:#0f141b" />
  <path
     d="m 111.149,68.299 c 0.0267,0.72028 5.9494,2.5587 6.4244,1.925 1.1921,-1.5979 1.0018,-8.6906 -1.038,-9.3008 -1.4956,-0.4482 -5.528,3.3136 -5.3864,7.3759"
     id="path23215"
     style="fill:#0f141b" />
  <path
     d="m 114.649,67.929 c 0.44489,0.181 1.7724,0.5709 2.0099,0.0977 0.71715,-1.428 0.16495,-5.4446 -0.5017,-5.5421 -0.8933,-0.13069 -4.6661,4.1708 -1.5082,5.4446"
     fill="#ffffff"
     id="path23219" />
  <path
     d="m 106.379,67.399 c -0.18858,-1.8039 0.75487,-4.3218 1.9391,-4.3768 1.461,-0.0677 2.2977,1.7362 2.5021,2.5949 0.0959,0.3883 1.2078,1.2519 1.1009,-0.10075 -0.1181,-1.557 -2.002,-4.4397 -3.7666,-4.2116 -2.8969,0.36958 -3.3687,6.047 -2.5493,7.3712 0.35841,0.5819 0.83038,-0.75331 0.77377,-1.277"
     fill="#0f141b"
     id="path23221" />
  <path
     d="m 113.369,67.949 c -0.88543,-1.3305 -3.8342,-4.2635 -5.6853,-3.2648 -0.99078,0.53631 -1.3855,3.4096 -0.90899,5.3691 0.40123,1.6623 2.7947,3.0227 5.0436,2.0524 1.5098,-0.65426 3.0007,-1.9816 1.5507,-4.1566"
     fill="#0f141b"
     id="path23223" />
  <path
     d="m 112.109,68.189 c -0.66367,-0.81309 -2.878,-2.5446 -3.6864,-2.1624 -0.80364,0.37759 -0.78322,1.6136 -0.46867,2.7082 0.52056,1.8258 1.6749,2.7176 3.3718,2.2175 0.67472,-0.19839 2.0539,-1.2016 0.78322,-2.7632"
     fill="#ffffff"
     id="path23225" />
  <path
     d="M 20.697,81.029 C 15.5024,80.70668 6.922,76.388 6.181,75.2761 4.4243,72.645 6.06642,66.5226 8.7916,65.645 c 1.4547,-0.4734 21.986,-7.4246 23.796,-8.2739 0.87599,-0.41504 2.7286,-2.2725 2.0602,-2.2206 -0.67155,0.0535 -24.285,8.7787 -26.423,9.3826 -4.0229,1.1323 -5.0672,9.6342 -3.2366,11.732 2.7821,3.1973 14.072,6.9497 15.464,6.4323 0.73441,-0.37758 1.1071,-1.6152 0.24385,-1.6686"
     id="path23227"
     style="fill:#0f141b" />
  <path
     d="m 11.23,73.999 c -1.0852,-0.63851 -2.9393,-1.9847 -3.1328,-3.007 -0.24385,-1.3069 1.9485,-1.947 3.3891,-2.5572 1.6639,-0.70137 1.2723,-0.97349 -0.0089,-0.79892 -3.0888,0.42128 -4.8313,1.9643 -4.9398,3.0998 -0.2122,2.2222 3.4929,4.2242 4.5733,4.3516 2.1137,0.25812 1.1528,-0.47963 0.11813,-1.0883"
     id="path23229"
     style="fill:#0f141b" />
  <path
     d="M 9.636,64.459 C 8.4392,62.7731 2.809,61.9632 1.6389,63.76546 c -0.92633,1.4264 2.197,5.8928 4.089,6.5219 1.5365,0.51429 5.2779,-3.8971 3.9081,-5.8284"
     id="path23231"
     style="fill:#0f141b" />
  <path
     d="m 8.553,65.819 c -0.5001,-2.4974 -6.4338,-2.2269 -5.94,-0.99077 0.49542,1.2361 2.7255,4.4538 3.7131,3.96 0.99079,-0.49537 2.4738,-1.7315 2.2269,-2.9692"
     fill="#ffffff"
     id="path23235" />
  <path
     d="M 5.875,76.049 C 4.89206,76.17339 2.11,75.05032 1.3693,74.308 0.6254,73.5657 4.2772,71.2319 5.0777,70.845 c 0.1431,-0.0691 0.87756,-1.557 0.09584,-1.5113 -1.5853,0.0959 -5.6176,3.1469 -5.1332,5.0514 0.60076,2.3496 6.5392,3.5574 7.6747,3.1988 1.1339,-0.3602 -1.3462,-1.5978 -1.84,-1.5349"
     id="path23237"
     style="fill:#0f141b" />
  <path
     d="m 39.694,150.599 c 1.9753,6.0013 11.993,20.89 21.986,26.188 3.6675,1.9422 10.133,2.0099 13.808,-2.4927 3.6108,-4.4271 5.767,-10.336 5.767,-10.336 0.26881,-0.22158 1.9627,0.9672 1.8872,1.623 -0.62595,2.6578 -4.858,8.1543 -6.5172,10.282 -4.0198,5.1552 -10.918,4.825 -15.714,2.6704 -5.0514,-2.2662 -19.575,-16.155 -23.798,-29.555 -1.0333,-3.268 1.8384,-0.64007 2.5807,1.6199"
     id="path23239"
     style="fill:#0f141b" />
  <path
     d="m 60.765,178.569 c -0.10201,1.5208 0.66366,4.078 2.5808,4.9319 1.9171,0.85237 7.497,-3.073 8.8542,-4.6441 0.58502,-0.68102 3.636,-3.7933 3.4677,-2.8764 -0.72184,3.9191 -9.1137,10.216 -12.728,9.1042 -2.2898,-0.70459 -4.8879,-4.2714 -4.6001,-8.1434 0.08956,-1.2393 2.5525,-0.26436 2.4251,1.6277"
     id="path23241"
     style="fill:#0f141b" />
  <path
     d="m 144.869,59.079 c 0.56772,-7.9342 9.8906,-23.01 18.278,-25.232 3.2208,-0.8524 -1.9548,-1.0537 -2.326,-0.87754 -10.254,4.9193 -18.756,22.121 -18.081,26.641 0.53155,3.5306 2.098,-0.1181 2.1294,-0.53155"
     id="path23243"
     style="fill:#0f141b" />
  <path
     d="m 41.288,18.649 c 3.9097,-5.0436 12.885,-9.26 18.833,-10.226 1.2456,-0.20106 2.5116,0.83824 1.8951,0.91219 -7.1101,0.86494 -16.807,6.6241 -20.976,11.647 -0.38383,0.46077 -1.7724,0.27371 0.24831,-2.3339"
     id="path23245"
     style="fill:#0f141b" />
  <path
     d="m 149.909,82.689 c 0.009,29.357 -17.227,69.718 -51.128,77.693 -25.232,5.94 -62.435,-1.2346 -75.456,-33.809 -17.01,-42.554 15.128,-82.286 38.472,-92.356 0.27996,-0.12258 1.5805,-2.9189 -0.22335,-1.9926 -37.881,19.452 -54.402,62.453 -39.97,95.646 14.013,32.227 46.613,40.19 77.744,34.413 25.828,-4.7888 52.567,-36.986 52.159,-81.106 -0.0548,-5.8677 -1.5994,-1.7551 -1.5994,1.5113"
     id="path23247"
     style="fill:#0f141b" />
  <path
     d="m 92.189,120.519 c 8.365,-0.35708 16.856,8.9391 18.149,20.448 1.8904,16.793 -6.3096,27.921 -20.909,26.987 -8.8054,-0.56145 -17.603,-5.8221 -16.658,-23.107 0.66838,-12.217 7.368,-23.818 19.418,-24.328"
     id="path23249"
     style="fill:#0f141b" />
  <path
     d="m 101.439,152.189 c -0.82409,-8.4532 -6.5901,-16.632 -14.623,-16.268 -4.4586,0.20284 -5.3191,6.8206 -11.843,13.245 -0.05177,-0.7596 -0.08159,-1.5349 -0.0771,-2.3307 0.07403,-11.77 5.679,-24.444 18.385,-25.267 3.2444,-0.20907 14.006,5.4588 14.97,22.414 0.4293,7.5929 -1.6969,15.96 -8.3226,19.998 0.98092,-4.2507 1.6167,-9.7352 1.406,-11.896"
     fill="#f9dad9"
     id="path23253" />
  <path
     d="m 74.968,149.159 c 0.05835,-10.697 7.6998,-14.093 12.158,-14.296 8.0348,-0.36332 14.64,8.656 15.464,17.109 0.21087,2.1609 0.6275,7.8555 -2.6673,12.001 -2.6154,1.5931 -5.9258,2.5115 -10.06,2.4408 -8.332,-0.14176 -14.198,-6.8144 -14.895,-17.255"
     fill="#d7bdbc"
     id="path23255" />
  <path
     d="m 99.059,129.089 c 2.3134,-2.4235 -1.958,-10.251 -8.0411,-10.699 -4.8847,-0.35708 -10.859,4.5844 -9.8874,8.8542 0.97505,4.2698 13.489,6.4983 17.929,1.8448"
     fill="#0f141b"
     id="path23257" />
  <path
     d="m 97.409,127.599 c 1.4815,-1.5491 -2.8402,-6.9371 -6.7342,-7.2217 -3.1265,-0.22957 -8.2299,3.5432 -7.6055,6.275 0.61961,2.7365 11.499,3.9254 14.34,0.94675"
     fill="#ffffff"
     id="path23259" />
  <path
     d="m 67.604,65.489 3.1909,1.1858 -0.44821,0.55203 c -1.2062,1.4028 -2.499,2.1467 -2.9692,1.8731 -0.40747,-0.24073 -1.3242,-1.4846 -0.56778,-3.3939 L 66.6617,64.89454 Z"
     fill="#0f141b"
     id="path23261" />
  <path
     d="m 67.41,66.429 c -0.17476,0.77847 0.03568,1.7126 0.39141,1.8023 0.02225,0.003 0.81465,-0.25633 1.2503,-1.126 -0.45922,-0.2278 -1.1575,-0.43866 -1.6419,-0.67624"
     fill="#ffffff"
     id="path23263" />
  <path
     d="m 188.029,46.109 c -1.3368,-2.6468 -4.1896,-4.8046 -3.8295,-5.1647 0.38696,-0.38516 3.4143,1.8778 4.7998,4.6803 1.2503,2.5179 1.7142,6.036 0.9043,6.1869 -0.39141,0.0741 -0.67467,-3.3262 -1.8746,-5.7025"
     fill="#0f141b"
     id="path23265" />
</svg>
