<?xml version="1.0" encoding="UTF-8"?>
<!-- Created with Inkscape (http://www.inkscape.org/) -->
<svg version="1.1" viewBox="0 0 296.91 317.3" xmlns="http://www.w3.org/2000/svg">
 <path d="m166.14 123.99c-7.8944 11.38-8.417 28.789-3.1566 40.204 1.3782 3.0133 3.1862 9.8289 5.4892 18.455 6.9884 26.175 17.985 70.944 38.81 85.026 20.999 14.203 45.501-12.879 48.411-33.721 3.2406 2.5638 6.204 5.5242 7.9991 7.389 1.8129 1.8821 4.0408 4.2335 3.6259 1.4128-0.39519-2.8256-1.8129-5.8207-2.0748-7.8771 4.7917 2.9096 9.0968 6.814 11.85 8.9402 2.9787 2.302 3.6259 1.9512 2.8948-2.055-0.60761-3.2949-2.0402-7.8944-2.5786-10.491 2.5638 1.9512 8.051 6.6219 9.8456 8.87 1.8129 2.2476 2.4946 1.7784 1.8129-3.6259-2.0056-16.311-13.889-34.191-18.211-41.458 2.4897 0.9781 7.8248 4.7571 8.1908 3.1714 0.34579-1.5857-3.453-6.5522-4.8262-9.1837 4.3915 1.5857 15.963 6.3082 19.483 8.2081 2.9096 1.5511 3.8185 1.5165 2.8207-3.0331-3.7444-17.166-14.429-27.883-20.442-34.488 3.0676 1.2745 7.2498 3.7494 11.38 6.3082 4.5299 2.8058 2.0056-3.2257-0.39519-7.0576-13.645-21.609-44.107-47.192-81.156-51.426-16.521-1.8821-31.438 4.4261-39.768 16.433" fill="#0f141b"/>
 <path d="m276.8 227.25c3.2257 2.6132 4.8954 4.4459 8.8004 7.6331-3.5221-17.897-16.851-39.646-18.316-41.441-3.2751-2.1933-4.5842-4.6534-0.95833-2.8404 3.6259 1.8129 5.507 2.4551 8.0164 3.4332-1.235-2.2674-2.633-4.268-3.9914-6.2563-1.3437-1.9858-1.6055-2.6132 1.9364-1.7586 7.2843 1.7438 16.433 6.2909 21.818 8.4867-4.1297-19.117-18.908-32.693-23.422-37.189-6.3606-2.1587-4.1495-3.5567 1.2202-1.8129 5.3672 1.7438 11.815 5.8034 13.419 6.2914 4.1989 1.3091-26.402-43.288-75.841-50.764-44.49-6.7093-53.814 33.232-45.065 52.228 1.4128 3.0825 3.8679 10.003 6.2213 18.821 6.901 25.896 18.455 69.237 37.973 83.823 3.7988 2.8256 10.387 3.695 18.211 0.8546 35.394-12.826 34.191-79.326 18.629-102.63-3.1566-4.7225-1.0621-3.9371 1.3782-0.93858 10.665 13.088 14.83 38.322 9.7068 67.355 1.5314 1.4622 4.6534 3.7494 6.7963 6.6219 1.0275 1.4128-1.6203-7.023-0.92376-6.8486 4.1297 1.0472 14.586 11.223 14.569 9.7068-0.0351-1.5165-1.9858-10.352-2.9096-14.063-0.92376-3.7296 0.71627-4.3372 2.7367 1.2893" fill="#feeabe"/>
 <path d="m189.15 238.32c5.4022 11.746 11.815 21.871 19.448 27.587 3.7988 2.8404 10.386 3.695 18.211 0.85459 30.81-11.153 33.895-62.98 23.909-91.578 3.5024 25.53-20.511 55.539-61.569 63.137" fill="#dbcaa5"/>
 <path d="m47.041 286.86c-3.8877 2.7861-7.5284 7.6331-9.2539 10.665-0.82001 1.4128-0.80026 1.6894 1.2004 2.0204 2.9293 0.49399 6.535 0.69652 9.4623 0.6076z" fill="#0f141b"/>
 <path d="m45.866 290.54c0.24699 1.7438 0.86942 5.7159 1.0621 6.9884-2.7713 0.0346-5.6463-0.14819-6.5177-0.49398 0.5582-1.2696 2.9787-4.515 5.4546-6.5004" fill="#fff"/>
 <path d="m53.774 225.76c-5.9254 0.78543-11.084 3.5715-12.338 9.7241v1.6549c-0.92375 4.4459 2.4749 22.062 5.0367 31.386 3.8531 14.028-1.0472 20.128-1.9512 22.149-2.5243 5.6636 1.9019 9.079 7.7902 11.432 5.0011 1.9858 26.785 2.6824 33.024-0.93857 2.8602-1.6746 2.9096-24.502 2.9096-24.728 0-9.0622-0.62737-25.513-4.8608-34.017-4.9665-9.8985-19.344-18.002-29.608-16.66" fill="#0f141b"/>
 <path d="m54.063 227.95c9.445-1.235 22.742 6.2736 27.325 15.458 3.5567 7.0927 4.6534 20.32 4.6534 32.17 0 11.885-1.1164 22.323-1.971 23.735-5.6986 3.1368-25.756 2.8058-30.288 1.2547-4.5496-1.5314-9.1486-4.7077-7.5106-9.2188 0.55821-1.5314 4.11-5.0886 4.11-11.885 0-3.0677-0.50387-6.8486-1.7784-11.536-2.8602-10.387-4.7225-21.836-3.9914-28.388 0.1482-1.1312 0.04939-2.0402 0.1976-2.6132 1.0818-5.2106 4.2878-8.3123 9.2711-8.9748" fill="#f39938"/>
 <path d="m81.394 243.42c-4.599-9.1837-17.88-16.712-27.325-15.457-5.0011 0.64219-8.1903 3.7642-9.2707 8.9748-0.0988 0.57302-0.04939 1.482-0.1976 2.5984-0.34579 2.9442-0.14819 6.8837 0.44459 11.257 16.207 11.467 29.73 23.614 40.273 41.04 0.39519-4.3224 0.69653-10.09 0.69653-16.26 0-11.832-1.0967-25.077-4.6336-32.152" fill="#d28430"/>
 <g fill="#0f141b">
  <path d="m82.084 254.12s-24.171 11.589-25.583 10.979c-1.4128-0.59279-8.2254-5.6285-10.56-7.0403l-1.0472-0.64218 0.6076 3.3789c0.49399 2.6478 1.0472 5.9599 1.4968 7.5634 0.52362 1.9364 0.92375 3.7494 1.2201 5.5588l0.0351 0.1482 0.0988 0.0988c4.3915 5.2106 8.9575 8.2432 9.9682 9.0444 1.4128 1.1312 1.5857 1.0966 3.2257 0 2.4205-1.6055 21.906-21.836 21.906-21.836l-0.64713-7.598z"/>
  <path d="m56.773 267.29s23.439-10.525 24.781-11.153c0.0988 1.1658 0.69651 4.4064 0.75085 4.8262-0.34578 0.34579-21.522 20.842-22.097 21.4-1.4622-0.86941-6.7617-4.8114-10.474-9.1842-0.64712-2.8256-2.8058-12.756-2.8948-13.192 3.1862 2.1587 9.3057 7.1801 9.3754 7.232l0.247 0.19759z"/>
  <path d="m58.517 290.88c-2.1785 1.8475-6.082 10.753-6.3433 12.896-0.0988 0.59279 0.0988 1.7092 2.1093 1.8129 4.026 0.1976 10.073-2.0402 10.997-4.1841 0.76568-1.8129-0.6817-6.1689-1.971-8.4694-0.88918-1.5659-2.1785-4.268-4.7917-2.055"/>
 </g>
 <path d="m60.503 292.08c0.1976 0.0494 0.66194 0.44459 1.3585 1.6746 1.2004 2.1241 1.9858 4.9492 1.9858 6.3611 0 0.24699-0.03458 0.49399-0.0988 0.62736-0.14819 0.34579-1.8129 1.4276-5.0189 2.3514-2.6329 0.75085-4.3224 0.83484-4.846 0.66194 0.50387-2.5786 5.1933-11.258 6.6224-11.676" fill="#fff"/>
 <path d="m11.401 68.179c-3.1912 4.1149-13.366 21.609-11.066 26.175 1.9167 3.8531 10.194 14.133 10.473 14.551l1.151 1.6746 16.451-38.583-3.1566-1.7438c-5.3504-2.9985-10.351-6.5873-13.854-2.0747" fill="#0f141b"/>
 <path d="m2.5452 92.54c-0.57302-5.4719 7.0754-19.239 9.8985-22.881 2.2328-2.875 6.1338-0.59278 11.728 2.5243 0 0 0.75086 0.39519 1.4276 0.78544-0.71628 1.6549-12.704 29.747-14.098 33.024-2.6329-2.5292-8.6092-10.212-8.9575-13.453" fill="#f39938"/>
 <path d="m14.219 72.609c-2.3168 3.2406-8.051 15.614-8.2604 19.727-0.1976 3.9914 6.3956 9.6718 7.1104 10.351l0.88918 0.85459 11.118-28.301-0.24699-0.34579c-0.83484-1.2547-4.1149-3.5715-6.9706-3.6061-1.4622-0.0351-2.8404 0.1976-3.6407 1.3239" fill="#0f141b"/>
 <path d="m8.0552 92.228v-0.0988c0.1976-3.5024 5.3499-14.9 7.685-18.176 0.49399-0.6817 1.1856-1.0127 2.1093-0.99292 2.0402 0.03458 4.4953 1.6894 5.3326 2.5984-0.34579 0.904-9.0098 22.933-9.8461 25.059-2.0204-2.1093-5.2802-5.9945-5.2802-8.3647" fill="#d3c8b6"/>
 <path d="m122.37 249.79c-0.76568 2.9096-1.1658 8.0515-1.5857 13.488-0.64712 8.4348-1.4474 18.943-3.8531 21.348-4.3372 4.3224-6.2386 7.7022-5.8207 10.299 0.247 1.4622 1.1658 2.5984 2.7713 3.3986 4.0606 2.0402 29.922 5.6463 39.872-0.24699 2.7021-1.5857 4.1149-3.7494 4.2186-6.4129 0.34579-9.7068-14.865-50.259-26.645-52.002-4.0062-0.60761-7.023 2.8058-8.9575 10.142" fill="#f39938"/>
 <path d="m114.87 296.35c-0.93857-0.49399-1.4474-1.0473-1.5709-1.7784-0.19759-1.2547 0.53845-3.7296 5.1933-8.382 2.9787-2.9787 3.7642-13.035 4.515-22.742 0.39519-5.3326 0.78545-10.386 1.4968-13.087 1.6203-6.0647 3.7988-8.9229 6.4999-8.5218 9.8985 1.4622 25.112 39.977 24.746 49.736-0.0494 1.8821-1.0818 3.3789-3.122 4.5842-9.1842 5.4541-34.017 2.055-37.764 0.1976" fill="#dbcaa5"/>
 <path d="m44.428 55.653c-11.885 3.6604-24.798 10.822-30.444 36.161-5.9254 26.68 26.489 63.067 36.579 73.576 10.369 10.839 26.314 69.951 27.325 86.105 0.24699 4.1495 2.7367 12.722 3.2257 17.235 1.235 11.293 2.6478 24.084-0.39519 26.837-2.3168 2.0896-3.3295 3.9025-3.1912 5.7332 0.1976 2.633 2.3366 4.6682 5.176 6.5004 10.229 6.5873 38.321 4.0062 44.107-0.19759 5.7856-4.1989 11.693-43.724 12.529-65.734 22.917-6.8664 39.96-8.9748 52.437-10.509 11.885-1.4474 19.065-2.3366 22.184-6.5349 1.1164-1.5166 1.6746-3.4332 1.6746-5.8903 0-1.1658 5.6112-1.9364 0.34579-14.22-5.2279-12.286-9.8807-26.803-58.989-55.783-26.994-15.91-43.689-31.577-46.93-51.548-3.206-19.936-11.206-30.149-21.975-37.067-11.049-7.0927-25.74-8.6611-43.654-4.6534" fill="#0f141b"/>
 <path d="m86.89 62.177c10.265 6.5873 17.217 18.159 20.668 34.401 4.3422 20.442 19.483 38.897 47.296 54.668 43.427 24.642 53.779 38.983 58.205 64.183 0.66194 3.779 0.34579 6.3433-0.904 8.0688-2.544 3.4332-9.3759 4.268-20.686 5.6636-12.687 1.5511-30.061 3.6753-53.553 10.787l-0.75086 0.247-0.0346 0.80026c-0.76567 23.979-7.8944 61.429-12.303 64.636-5.1587 3.7494-31.246 6.2563-40.413 0.34579-3.1566-2.0204-4.599-3.5221-4.7028-4.8262-0.0988-1.0818 0.71628-2.3514 2.4551-3.9223 3.9025-3.5221 2.5638-15.754 1.151-28.719-0.49398-4.4805-1.0127-9.1314-1.2547-13.227-0.93855-14.865-18.402-79.397-29.904-91.403-9.898-10.317-41.702-45.955-36.004-71.572 5.664-25.461 21.208-32.797 28.754-34.488 17.322-3.8679 31.438-2.386 41.981 4.3718" fill="#f39938"/>
 <g fill="#d28430">
  <path d="m88.725 73.819c15.492 25.461 26.715 63.381 39.646 67.146 6.5177 1.9167 16.573 5.5939 22.132 7.7373-25.043-15.214-38.827-32.78-42.94-52.124-3.4678-16.242-10.421-27.813-20.668-34.4-10.543-6.7617-24.677-8.2432-41.981-4.3718-1.3091 0.29639-2.8602 0.76568-4.5496 1.4622 1.1658 2.3366 2.9787 6.1165 2.9787 7.9117 15.492-3.3295 36.526-8.8527 45.379 6.6397"/>
  <path d="m124.38 170.29c-6.6397-2.2131-20.494-5.0189-27.134-7.232 3.3097-4.4261 9.3235-8.626 13.75-11.954-37.642 0.34579-50.189-15.405-78.856-11.537 7.5802 10.874 15.788 19.901 20.006 24.293 11.519 12.007 28.98 76.538 29.904 91.403 0.24699 3.4332 0.6076 7.232 1.0127 10.996 9.2366-6.3784 12.809-20.093 17.444-30.113 3.3097 3.3295 7.8944 8.2604 11.206 11.589 0.53845-5.4373-1.0818-22.795-0.34579-25.705-4.5842-6.8313-8.992-29.12-11.571-36.91 2.1785-2.8948 14.482-10.125 24.606-14.83"/>
  <path d="m135.82 218.14c-2.5095-0.50386-2.1587 1.0621-1.1658 2.3514 1.0472 1.3585 2.0896 3.0677 3.122 5.1587 3.6259-1.4474 4.7028-6.1516 9.0444-7.9641-3.4332 1.6203-7.8248 1.0818-10.996 0.44458"/>
 </g>
 <g fill="#0f141b">
  <path d="m124.57 126.48c-3.1022 12.338-15.632 31.368-17.479 33.355-1.8475 1.971-1.2202 2.1587 0.78544 0.76569 1.9858-1.4128 3.6259-2.633 5.4022-3.9025-0.80026 2.3366-3.5221 10.421-3.5221 10.421s9.8985-6.1862 11.641-7.2843c-0.29638 1.724-1.3782 7.5807-1.3782 7.5807l1.0621-0.64219c0.39519-0.24699 10.596-6.6748 18.263-27.482l0.14819-0.39519-0.29639-0.24699c-5.2106-4.026-9.7938-8.1908-13.663-12.408l-0.69653-0.75086z"/>
  <path d="m125.44 128.49c3.6753 3.9223 7.2147 7.1628 12.042 10.927-6.0647 16.241-12.652 22.62-15.458 24.85 0.34579-1.8277 1.4474-7.6854 1.4474-7.6854s-8.3652 5.298-10.422 6.5873c0.75087-2.1785 3.1714-10.334 3.1714-10.334s-2.7861 2.386-4.7917 3.8334c3.8136-5.8029 11.153-18.123 14.011-28.179"/>
  <path d="m110.23 259.01c-3.5913 2.0748-19.779 9.5502-20.25 9.7765-1.0818-0.52363-5.9772-2.9442-7.842-4.3916l-1.0275-0.82002 0.53844 5.0367 1.0818 10.665 0.0494 0.0988c2.1241 3.364 4.3026 5.8552 6.535 7.2493 2.2131 1.4128 2.4057 1.2201 4.026 0.19759 1.6055-1.0127 23.875-19.971 25.13-21.069 1.235-1.0818 1.6005-1.6549-0.49398-0.95833-2.0896 0.6817-4.0606 1.0275-6.3087 1.6054 1.8475-1.8821 4.2532-4.7571 6.1343-6.2558 1.8969-1.5165 2.6675-2.4749-0.64712-0.88917-3.2949 1.5857-6.326 3.206-8.8705 4.4953 1.1164-1.6746 2.5638-2.7021 4.3718-4.515 1.8129-1.8129 1.1312-2.3366-2.4551-0.24699"/>
  <path d="m90.337 270.56s14.412-7.1272 17.427-8.5736c-1.1164 1.6746-3.3295 5.3148-3.3295 5.3148s5.4546-2.7169 8.5736-4.3026c-2.2279 2.2674-5.6285 6.0301-5.6285 6.0301s4.4261-1.1164 6.8486-1.724c-3.3097 2.6824-22.027 17.828-22.62 18.315-1.2893-0.94351-5.4546-3.7296-7.232-6.4653-0.0351-0.2964-1.0818-10.891-1.0818-10.891s-0.69652-1.1658-0.82002-2.2822c2.5984 1.6746 6.7439 4.7373 6.9706 4.846z"/>
  <path d="m149.17 146.87c1.5659 9.9158-11.676 35.673-13.314 37.485-1.6203 1.8278-1.6203 2.4205 0.39519 1.4276 2.0204-1.0127 3.4332-1.971 5.0189-2.6478-0.83484 1.9167-4.1989 9.7765-4.1989 9.7765s8.7307-4.4064 10.63-5.3677c-0.68171 1.971-1.8821 6.779-3.0331 8.9575-1.1658 2.1587-0.24699 1.3585 0.92375 0.55821 1.1312-0.82003 6.0642-6.4653 7.5629-8.0688 0 1.2547 0.1976 1.6203-0.19759 3.4332s0.6076 1.6055 2.0204-0.39518c1.4128-2.0204 11.711-14.516 15.946-32.344l0.0988-0.39519-0.34579-0.1976c-4.4261-2.875-9.3235-5.8903-14.151-8.6611l-6.7963-4.1989z"/>
  <path d="m151 150.78c0-0.78544-0.0988-1.5165-0.1976-2.2476 1.3239 0.82002 14.011 8.6092 18.333 11.415-2.6132 10.718-8.4867 22.098-14.151 29.26 0-1.2547-0.44459-3.9717-0.44459-3.9717s-5.0189 5.7332-7.232 8.0683c0.95834-2.8058 2.7515-8.504 2.7515-8.504s-7.8075 3.7642-9.8639 4.7917c0.86942-2.0402 3.7148-9.0271 3.7148-9.0271s-3.7839 1.8129-5.507 2.5638c8.417-13.628 12.617-26.611 12.617-32.344"/>
  <path d="m134.28 220.95c1.0275 2.0896 2.3366 4.599 2.3366 6.1516h1.1164c0-1.8278 2.0056-2.9442-1.5857-7.0927-3.5913-4.1495-2.9096-1.151-1.8673 0.93859"/>
 </g>
 <path d="m160 207.18c-11.275 5.3677-31.891 18.978-31.787 47.192 0.0988 17.426 10.038 26.733 14.325 30.078-7.1628 6.204-18.142 15.266-6.6748 20.058 0.49399 5.2452 9.0622 5.2452 12.878 5.2452 0 3.3443 8.5914 3.8185 23.875 2.8602 12.948-0.80025 32.937-2.8602 32.466-12.896 11.71-11.014 40.378-65.49-2.7021-115.12-9.1837-10.596-31.106 17.217-42.382 22.585" fill="#f39938"/>
 <path d="m205.63 189.21c21.818 35.115 18.402 88.302-18.28 106.65 2.8948 11.206-4.3421 14.464-14.726 16.747 12.931-0.80026 32.937-2.8602 32.449-12.878 7.6153-7.1623 40.552-56.602 0.55821-110.52" fill="#d28430"/>
 <g fill="#0f141b">
  <path d="m200.17 183.75c20.773 20.79 26.088 49.631 21.871 76.939-3.2949 21.313-14.482 35.185-17.706 38.234l-0.39518 0.3458 0.0351 0.50386c0.66195 14.063-50.137 14.029-53.849 10.543-0.24699-0.24699-0.29639-1.6746-0.29639-1.6746h-1.1164c-10.769 0-11.763-2.4403-11.832-4.9152l-0.62736-0.24699c-7.1104-2.9639-5.3153-7.5629 6.3779-17.67 0 0 0.83483 0.44459 2.6478 1.235 1.8129 0.80026 3.4332 0.61255-2.0896-3.4678-3.9223-2.9096-14.726-13.227-14.778-29.294-0.0988-28.493 22.463-40.413 29.242-44.909 3.3789-2.2328-1.4128-0.6817-3.6407 0.14819-9.8462 3.6753-29.329 20.686-28.092 44.49 1.0127 19.1 9.3754 25.827 14.9 30.427-4.4261 3.8333-9.567 8.3647-10.787 12.704-0.71627 2.4946-0.90399 6.5873 4.8954 8.1207 0.49399 5.5415 8.9051 5.4022 13.07 5.4195 2.1242 6.3784 58.014 5.5593 58.17-10.525 3.6753-3.7098 16.085-19.605 19.361-40.848 0.62737-4.0062 5.9249-47.401-22.376-75.702-6.0469-6.0474-6.7963-3.6604-3.0133 0.0988"/>
  <path d="m169.14 252.41s3.6753 3.5024 5.2456 5.0016c-2.791-0.29639-15.597-3.1714-19.814-3.1714-4.2335 0-2.9096 1.0275-1.0472 2.0204 1.8475 0.99291 14.307 7.4241 17.166 8.9051-2.6132 0.19759-5.8557-0.247-8.8705-0.0494-3.0331 0.1976-2.5638 1.0275-0.1976 1.8129 2.386 0.80026 20.058 6.657 42.957 33.216l1.5511-0.69652 0.39519-0.49398c1.3436-1.4622 6.0469-7.0408 10.369-16.922l0.0988-0.24699-0.0988-0.247c-8.9925-17.705-40.814-29.991-46.251-30.793-5.4368-0.80026-1.5314 1.6055-1.5314 1.6055"/>
  <path d="m173.95 254.2c19.257 6.9534 36.143 17.828 40.988 27.412-3.8877 8.8009-8.26 13.82-9.8985 15.719-18.245-20.964-32.675-28.075-39.036-30.41 3.0825-0.24699 9.6545-0.34579 9.6545-0.34579s-12.356-7.3016-16.224-9.323c4.3916 0.44459 18.96 2.3168 18.96 2.3168s-2.5638-3.5913-4.4459-5.385"/>
  <path d="m185.54 222.53s1.0473 1.1164 1.9167 2.0402c-2.1587-0.1976-5.8552-0.83484-9.0968-0.78544-3.2603 0.0494-0.29639 1.0472-0.29639 1.0472s3.3097 1.5166 5.7683 2.6478c-3.3986-0.14819-9.3235-0.39518-11.659-0.52362-2.3168-0.0988 11.99 8.1038 13.924 9.4104-2.0402 0.34579-5.1582 0.5582-8.3825 0.5582-3.2257 0-3.1862 0.76568-0.24699 1.9364 12.129 4.8954 24.223 8.9402 43.41 28.789l0.71628 0.73111 0.24699-0.99291c2.1242-9.079 2.7367-18.455 1.8278-27.848l-0.0173-0.1482-0.0988-0.1482c-4.3026-5.5065-15.405-14.203-37.154-17.566-4.0606-0.62735-0.83484 0.8546-0.83484 0.8546"/>
  <path d="m188.81 223.63c18.612 3.9025 28.702 11.031 32.623 15.963 0.59279 6.2909 0.1482 18.786-1.1164 24.52-16.032-20.163-32.693-23.526-38.6-25.461 2.7861-0.44458 9.1491-1.0127 9.1491-1.0127s-10.822-7.1104-13.332-8.8004c2.791 0.0988 9.1141-0.1482 9.1141-0.1482s2.5786 0.247 0.24699-1.0621c-1.0818-0.59279-1.6894-0.99292-4.1643-2.1242 3.1022 0.24699 8.3652 0.76568 8.3652 0.76568s-1.482-1.7784-2.302-2.6478"/>
  <path d="m148.25 310.7s2.4749 3.3986 2.0204-0.0172c-0.80026-5.9945 3.1714-12.216 5.2456-15.405 2.0747-3.1912 0.97809-2.4946-0.99292-1.3239-1.971 1.1658-10.229 9.6194-6.2736 16.747"/>
  <path d="m135.03 304.63s4.3718 7.7378 2.6132 1.9512c-1.6746-5.5242 4.3372-11.85 6.8136-14.081 2.4551-2.2279 1.9364-2.9442-0.92376-1.3782-2.8602 1.5659-9.5498 6.7439-8.504 13.506"/>
  <path d="m72.21 304.17c-1.2004 2.6132-2.2328 3.9025 0.80026 4.2335 3.8333 0.39519 9.4628-0.71627 10.682-2.2131 1.4276-1.7932 0.99292-7.2492 0.59279-9.8807-0.39519-2.6132-1.0127-3.6259-3.4135-1.8129-2.4205 1.8129-7.4587 7.0576-8.6611 9.6718"/>
 </g>
 <path d="m80.467 297.13c2.2131-2.6132 2.0896-0.44459 2.055 2.1982-0.0351 2.6329-0.44459 4.4064-1.0621 5.176-0.82001 0.97809-6.0296 2.0896-7.4414 1.6894-1.4128-0.39519 4.2335-6.448 6.448-9.0622" fill="#fff"/>
 <path d="m96.748 299.77c-4.2186 2.1093-7.2147 10.247-7.6153 13.262-0.39518 3.0133-1.4128 5.2452 4.4261 3.8333 3.5221-0.8546 7.476-3.2257 8.8527-5.6463 1.2202-2.1242-1.1164-8.7831-3.1171-10.787-1.1164-1.1164-2.0747-0.88917-2.544-0.66194" fill="#0f141b"/>
 <path d="m98.118 301.61c1.7438 1.7438 3.122 6.7968 2.4749 8.0861-0.60761 1.235-5.1058 4.1643-8.0159 4.9492-1.0472 0.29639-1.3436 0.1482-1.3782 0.0988v-0.0494c0-1.3239 2.9787-11.798 6.2909-13.453 0.1482-0.0494 0.39519 0.14819 0.62737 0.34579" fill="#fff"/>
 <path d="m94.44 0.17959c-32.013 4.1989-60.68 42.852-61.238 50.938-0.39519 5.6463 6.1862 17.096 8.3998 18.873 1.6203 1.2893 3.7444-1.7438 7.4063-5.2106 2.9639-2.8058 7.023-6.6397 9.4628-6.7963 23.979-1.4474 39.594 15.649 39.75 15.823l0.39519 0.44459s29.782-2.5638 29.068-4.2186c-0.71629-1.6549-4.7423-4.8806-8.87-7.1623 7.2147 0.29639 18.194 2.055 21.33 2.9787 3.1368 0.904 4.3026 2.3514 1.3239-3.3295-6.448-12.269-17.549-18.089-22.411-20.686 3.537-0.75086 13.628-1.6549 12.582-2.6675-1.0473-1.0127-8.1557-3.5369-10.909-4.7423 3.7988-2.4057 11.868-5.0886 15.597-6.1165 3.9914-1.1164 3.1566-1.6746-0.24699-3.0825-8.9925-3.695-26.994-4.846-34.261-3.5715 1.7438-1.4276 2.2822-1.7784 6.1694-4.9152 3.9025-3.1368 2.2328-3.3097-4.0606-2.5292-2.0056 0.24699 8.1557-5.4546 13.994-7.0581 7.9814-2.1933 3.1714-2.6478 0.0494-2.9442-12.739-1.2893-20.581 1.7438-26.262 4.1989 1.971-2.4057 3.0331-3.9717 4.515-5.6463 2.3711-2.6675 1.6746-3.0479-1.7784-2.5984" fill="#0f141b"/>
 <path d="m35.894 51.888c-0.39519-11.449 31.177-44.264 57.107-48.812-1.8821 2.2328-3.5913 3.8679-4.93 5.8903-2.3168 3.4678 0.0988 3.1022 3.2751 1.8969 9.6021-4.1149 14.464-5.0016 25.251-5.2279-7.0403 2.3168-12.478 4.4113-18.699 10.247-1.0275 0.95833 7.7897-0.3458 7.0403 0.52362-1.2695 1.5314-7.8242 7.1623-7.7719 7.2843 0 0-1.1658 1.4622 2.1785 0.7311 16.155-3.5567 34.645 2.1439 33.547 2.6132-1.0818 0.49399-11.153 3.4876-15.37 6.3957-2.5094 1.7092 8.7658 4.6879 6.901 5.0189-1.8623 0.34579-9.3235 1.5314-11.746 2.1439-2.4057 0.6076 1.3436 1.3585 2.544 1.9019 9.5675 4.268 15.98 9.8985 21.906 17.566 3.1022 4.026 2.6675 3.8679-1.6894 2.8602-5.1587-1.2004-13.976-1.7586-18.072-1.8129-2.8404-0.03458-2.0896 0.904-0.57797 2.1587 1.3091 1.0621 3.2257 2.7021 5.5593 5.3153-3.9914 0.57302-21.923 3.1714-22.899 3.3097-6.0296-6.5177-23.282-18.298-38.722-16.207 1.0127-2.4057 0.6076-2.6132-2.8058-0.59279-3.4332 2.0056-6.3087 3.4678-9.8807 6.8486-1.6746 1.5857-4.4805 4.93-5.3153 5.1755-1.9364-1.7586-6.6224-9.7938-6.8313-15.231" fill="#feeabe"/>
 <path d="m48.398 91.308-0.19759 0.19759-0.0351 0.29639c-0.01733 0.247-0.7311 6.3957 3.6061 11.188 0.44459 0.50387 1.6203 1.7932 21.382 0.29639l0.34579-0.0351 0.247-0.29638c1.8623-2.3366 0.0988-14.203-2.1785-17.915l-0.14819-0.24699-0.29639-0.0988c-9.0271-3.206-20.32 4.2186-22.707 6.6051" fill="#f39938"/>
 <path d="m70.263 86.186c1.5165 2.7367 2.5984 9.2188 2.5984 13.018 0 1.151-0.0988 1.971-0.34579 2.4403-13.122 0.99292-18.734 0.7311-19.536 0.1976-2.8404-3.1714-3.206-7.0927-3.206-8.8878 0-0.29639 0-0.50387 0.01777-0.66194 2.4551-2.2822 12.547-8.6957 20.476-6.1165" fill="#f39938"/>
 <path d="m47.551 91.087c-2.7169 2.3711-1.9167 3.8531 0.69651 1.6549-0.0351 0.24699-0.82001 5.4546 3.5024 10.247 0.4446 0.49399 1.6203 1.7932 21.383 0.29639l0.34579-0.0351 0.247-0.29639c2.9096-1.7586 0.904-11.815-0.29639-16.259 2.7021 0.53844 4.4953-0.95833-0.59279-2.2131-7.3367-1.7932-19.257 1.3585-25.269 6.6046" fill="#0f141b"/>
 <path d="m70.263 86.186c1.971 4.3026 2.9985 8.0688 2.5984 13.018-0.0988 1.151-0.0988 1.971-0.34579 2.4403-13.122 0.99292-18.734 0.7311-19.536 0.1976-2.8404-3.1714-3.206-7.0927-3.206-8.8878 0-0.29639 0-0.50387 0.01777-0.66194 3.9568-3.695 15.178-6.8486 20.476-6.1165" fill="#fff"/>
 <g fill="#0f141b">
  <path d="m57.852 85.69c-4.1149 1.5857-7.8593 4.026-9.4455 5.6117l-0.1976 0.19759-0.0351 0.29639c-0.49399 3.9914 0.39519 8.2081 2.9787 11.083 0.49399 0.53844 2.1785 1.2004 8.87 1.0818h0.53844l0.1976-0.50387c2.1785-5.1928 2.4057-12.634-1.9858-17.531l-0.39519-0.44459z"/>
  <path d="m57.876 87.495c1.9364 2.386 2.7515 5.385 2.7515 8.3652 0 2.2674-0.49399 4.4953-1.235 6.4475-5.2106 0.0494-6.2386-0.34579-6.4129-0.44459-2.8404-3.1714-3.206-7.0927-3.206-8.8873 0-0.29639 0-0.50387 0.01725-0.66194 1.2004-1.1312 4.2335-3.2257 8.0861-4.8114"/>
  <path d="m54.896 87c-3.2257 1.6055-5.5243 3.3295-6.5004 4.3026l-0.247 0.24699 0.01777 0.24699-0.0351 2.1637c0.75086 4.3026 2.1637 8.1557 7.3718 7.842 1.0127-0.0494 2.7515-0.71628 3.2406-4.357 0.49399-3.5913-0.57302-9.6021-3.2257-10.491l-0.29639-0.0988z"/>
  <path d="m55.25 88.696c1.0127 0.7311 1.9513 3.8185 1.9513 6.8491 0 0.57302-0.0351 1.1312-0.0988 1.6746-0.0988 0.8546-0.50387 2.8404-1.6894 2.9096-3.2751 0.1976-4.7571-1.4622-5.6285-6.3784 0.01733 0.04939 0.01733-0.95834 0.03458-1.482 0.99292-0.92376 2.9442-2.302 5.4373-3.5715"/>
 </g>
 <path d="m54.761 94.1c0 1.7092-0.86942 3.1022-1.9513 3.1022-1.0818 0-1.9512-1.393-1.9512-3.1022s0.86942-3.1022 1.9512-3.1022c1.0818 0 1.9513 1.393 1.9513 3.1022" fill="#fff"/>
 <path d="m16.977 91.798c-10.926 2.4205-16.311 7.5111-16.311 17.828 0 11.78 8.1903 17.409 11.728 17.043 3.4332 3.5369 7.7724 12.356 12.966 17.845 0.4446 1.393 0.68171 2.633 0.68171 3.6753 0 1.2547-0.29639 2.2476-0.95834 3.0133-2.544 3.0133-11.624 2.2822-14.882 1.6894-1.8475-0.29639-2.1093 0.0988-1.2547 1.3239 1.2745 1.8129 3.7642 4.846 5.7683 6.535-0.95834 0.80026-4.1841 2.8404-5.8903 4.2532-1.1312 0.904-0.904 1.3782 1.2004 2.055 1.6055 0.50387 3.5913 1.1856 4.7225 1.6746-0.53844 0.39519-2.055 1.235-3.1714 1.8277-1.6894 0.88918-0.99291 0.9781 1.0473 1.9858 1.393 0.71627 3.5913 1.9018 4.9152 2.5638-3.1714 2.8058-11.362 12.774-13.192 15.789-0.99292 1.64-0.61255 1.9018 1.3239 1.4474 2.544-0.60761 8.9748-1.6203 11.99-2.0204-0.49399 1.0621-1.3782 2.9294-2.0896 4.2878-0.93857 1.7784-0.39519 2.1637 1.6203 1.393 1.6894-0.44458 3.6407-1.1164 5.0713-1.4622-7.4414 8.9397-12.216 21.191-12.948 23.421-0.7311 2.2328-0.75086 2.6675 1.5857 1.3436 2.3168-1.3239 8.748-4.026 11.833-5.3153-0.29639 2.0747-1.4128 9.0968-1.9019 13.018-0.3458 2.5786-0.04939 2.9293 1.8277 0.83484 1.8821-2.0896 4.6336-5.4022 6.326-7.2325-0.29639 1.0966-0.904 2.9442-1.3091 4.3915-0.71629 2.4551-0.44459 2.1982 1.4128 1.0275 1.7586-1.0966 4.3372-2.9293 5.7159-3.7642-1.4968 5.1933-6.2563 22.655-6.4653 26.001-0.247 3.3443 0 4.93 1.6549 2.3514s8.6265-11.519 10.212-13.21c2.4946 7.267 7.6331 16.817 12.373 21.662 1.0472 1.0621 2.0402 1.4622 1.971-0.68171-0.04939-2.1439-0.0988-3.3097-0.29639-4.846 2.4749 3.2406 7.0057 10.229 8.3474 10.996 1.3436 0.76568-1.2201-10.996-1.64-14.691 5.5593 5.263 11.031 13.035 25.13 20.895 4.4805 2.4946 5.629 3.4184 5.4373-1.0127-0.1976-4.4261-0.50387-7.6331-0.50387-12.652 0-4.1149-0.0988-8.051-0.19759-10.456 2.3711 1.8673 7.807 7.3367 8.6784 6.8664 0.8546-0.49399 3.7988-16.538 4.5644-20.111 1.6203 1.9512 5.7159 7.2147 6.4302 7.0754 0.7311-0.0988-1.0818-11.972-1.3091-14.464 2.386 0.75086 14.22 5.9422 14.639 5.1404 0.39519-0.82001-11.659-16.259-13.698-19.222 4.7028 0.24699 14.778 1.5314 20.337 2.5095 3.206 0.57302 3.8679 0.49399 1.3091-3.0825-7.842-10.857-17.392-18.891-25.042-24.554 2.2822-1.482 7.3891-4.6336 11.885-6.3087 0 0 4.0952-1.3585 0.0494-2.3711-4.0458-0.99291-10.055-1.151-14.098-1.2547 4.7917-2.7861 18.647-9.1664 20.808-9.6891 2.1439-0.52362 3.1022-0.95833 0.34579-1.9512-9.8985-3.6061-21.348-4.4261-28.772-5.298 2.1933-2.1982 7.354-7.7027 9.3235-9.323 1.2547-1.0275-6.8141-0.24699-9.9509-0.34579 3.2751-2.1982 11.746-5.6117 14.813-6.692 3.0676-1.0621 3.5369-1.64 0.24699-2.1093-3.8531-0.53845-14.29-0.80026-19.152-0.34579 15.963-19.867-0.3458-42.783-18.089-40.709-11.24 1.3239-17.235 5.751-30.131-1.9858-7.0057-4.1989-17.409-8.7658-27.116-6.6046" fill="#0f141b"/>
 <path d="m26.458 152.66c2.3514-2.7861 2.2476-6.5873 0.76568-9.4801-5.1582-5.385-10.386-15.196-13.384-18.246l-0.29639-0.29639-0.44459-0.0494c-6.2035-0.6076-10.403-7.4236-10.403-15.98 0-9.2539 4.8262-12.425 14.725-14.639 9.0098-1.9858 18.839 2.3514 25.513 6.3611 9.8461 5.9076 16.416 4.6879 24.014 3.2751 5.1755-1.2202 22.08-5.4546 28.893 14.795 3.3443 9.9677-3.5369 21.748-15.597 30.531-3.7296 2.7169-1.1312 2.9442 1.3436 1.5314 2.8256-1.6203 8.5741-6.901 8.5741-6.901 3.2257-0.3458 12.529-1.0621 17.705-0.83484-7.0927 2.6132-15.161 7.4063-16.486 7.842 0 0-2.8948 1.5857-0.0494 1.5857 2.8256 0 11.659-0.83484 10.613 0.19759-1.0472 1.0275-8.8004 7.8944-8.8004 7.8944s-2.9096 1.4968 1.3585 1.6549c4.2878 0.14819 21.522 2.7021 27.273 4.1643-9.7241 3.4678-18.611 9.1491-20.982 10.682-2.3514 1.5314-1.9364 2.4205-0.0494 2.3168 1.8623-0.0988 7.9991-0.0494 13.837 0.80026-5.1933 2.4749-7.4765 3.8333-10.282 5.96-1.151 0.8546-0.99291 1.7092 1.9167 3.7642 9.7938 6.9188 16.347 14.011 23.404 22.55-5.1231-1.0275-13.61-1.8475-21.609-2.4897-2.9787-2.8948-4.6188-3.5024-2.3711-0.49399 2.2328 3.0331 10.387 14.185 13.053 18.002-3.453-1.0818-11.972-4.2335-11.972-4.2335s1.0473 8.4343 1.3782 12.094c-1.6549-1.971-5.2975-7.267-5.2975-7.267s-3.7642 20.041-4.3915 22.986c-2.0056-1.5857-6.8664-7.3367-7.6855-8.1557-0.9929-4.4261-2.2822-7.2843-2.0056-1.4128 0.44459 9.8289 0.76568 18.577 0.59278 28.528-9.0622-4.1989-20.111-12.617-28.998-23.509-4.4113-5.4195-5.2284-4.4064-2.4057-0.1976 0.60761 3.2257 1.1658 6.8141 1.6203 10.84-2.4551-3.2406-6.657-9.6372-7.4587-11.85-0.80026-2.2131-0.49398 4.8114-0.49398 4.8114 0 0.0346 0.34579 2.2131 0.5582 4.7423-4.3915-6.9706-9.6021-15.98-10.682-19.501-1.0621-3.5369-2.2674-2.9293-1.7586-0.29639-1.5165 1.5857-3.9914 5.3499-9.3235 11.885 2.4551-11.223 6.2914-24.224 7.3545-26.419 1.0472-2.1933 1.4622-3.6061-0.3458-2.1933-1.8129 1.4128-4.7423 3.5567-7.0057 4.9152 0.68171-2.386 1.4128-4.2335 2.0056-6.1689 1.4128-4.5298 0.3458-3.3789-1.8623-1.0127-2.055 2.1785-4.4953 5.8903-7.6855 8.8355 0.52363-3.9371 1.7932-8.4521 2.5984-14.063 0.86942-5.995-1.7586 0.71628-1.7586 0.71628-0.34579 0.1482-7.6499 3.6259-11.99 5.6636 4.1495-9.6372 8.4521-16.52 14.064-23.439 4.3224-5.3326-1.2547-1.6746-1.2547-1.6746s-4.0754 1.3782-6.3956 1.9364c0.78544-1.6894 1.1658-2.7021 2.3711-5.1058 2.2131-4.4261-1.0967-0.71628-1.0967-0.71628-0.34579 0.0351-7.842 1.5314-12.669 2.4897 3.4332-6.0469 10.072-12.269 13.523-14.656 5.2807-3.6407 2.8602-3.5913-0.82001-1.6203-1.8278-0.83483-2.8256-1.9364-4.6879-2.8602 0.9781-0.76568 2.2674-1.8475 3.5024-2.7367 0.92376-0.6817-4.9493-2.0056-6.7093-2.7713 1.724-1.4128 5.9422-3.9223 5.9422-3.9223s3.0479 0.2964 0.0988-1.393c-2.9293-1.724-4.6188-4.2186-5.8029-5.5415 7.476 0.82001 12.443 0.44458 14.691-2.2131" fill="#feeabe"/>
 <path d="m21.21 123.63c-0.69652-0.24699-7.3718 1.3239-7.3718 1.3239 2.2328 2.2476 5.6463 8.2432 9.3586 13.384 1.5314-2.875 3.5567-5.6117 5.0362-8.6611-2.2674-1.6203-4.599-3.6259-7.023-6.0474" fill="#dbcaa5"/>
 <path d="m60.982 162.41c0.6817-2.1785 0.04939-2.6675-2.4205-2.9293-3.8877-0.39519-13.297-1.1164-17.008-2.8404-3.2949-1.5165-4.9838-0.71628-3.1368 4.0952 1.7438 4.5299 7.5284 9.4282 11.101 9.6896 2.4749 0.14819 9.8461-2.9096 11.467-8.0164" fill="#dbcaa5"/>
 <path d="m33.096 153.4 0.53844 0.44459c2.1439 1.7932 8.3474 5.3153 14.046 5.4724 3.5913 0.0988 4.0606-0.99291 0.0988-1.6746-4.2335-0.69652-8.7658-2.1587-13.07-5.0713l-0.57302-0.44459z" fill="#0f141b"/>
 <path d="m17.852 123.04-1.0127 0.55819 0.59279 0.99292c1.9364 3.1368 9.0271 13.523 19.483 14.778 10.264 1.2202 13.715-7.4938 13.75-7.5807l0.3458-0.97809-0.93857-0.39519c-0.1482-0.0494-13.314-5.96-17.81-8.2254-4.9665-2.4749-10.874-1.0818-14.429 0.86941" fill="#0f141b"/>
 <path d="m31.288 124.15c3.7988 1.9018 13.645 6.3433 16.834 7.7902-1.0621 1.9018-4.1989 6.0296-10.944 5.2106-8.5914-1.0275-14.76-9.0098-17.183-12.687 3.2949-1.4622 7.7551-2.0747 11.293-0.29639" fill="#922f00"/>
 <path d="m36.829 128.49c-2.5984-2.5638-8.5914-2.1982-13.941 1.0621-7.5634 4.5842-10.526 16.869-6.657 24.607 2.9442 5.8898 10.543 7.3713 18.925 3.2257 6.0993-3.0133 13.994-13.924 15.336-15.702 1.4968-0.29639 9.0968-1.7932 15.074-9.8634l-0.14819-1.151-0.95834-0.39518c-14.394-6.1689-24.676-3.2751-27.621-1.7586" fill="#0f141b"/>
 <path d="m37.125 130.18c0.0988-0.0494 9.6194-5.2452 25.617 1.2004-6.0296 7.5284-10.804 8.4694-10.874 8.4872 0 0 0.60761-0.19759 1.2202-1.8129 0.59279-1.6203-0.1976-2.4205-1.6203-0.39519-1.4128 2.0056-10.875 14.603-16.991 17.74-4.7423 2.4403-12.669 4.4805-16.643-1.6746-1.9167-2.9639-2.1093-7.7719-1.151-12.094 1.0127-4.6188 3.6604-8.6092 7.0581-10.665 5.3326-3.2406 10.735-3.122 12.251-0.99292z" fill="#ed8599"/>
 <path d="m37.125 130.18-1.1312-0.19759c-1.0818-1.5165-4.1495-2.0056-7.7373-0.99291 3.0133 0.0988 4.1297 3.6259 4.7028 3.9025 10.299 0.1482 16.939 4.3718 15.597 8.5914 1.4474-1.8129 2.5095-3.2406 2.9096-3.8185 1.4128-2.0204 2.0204-1.482 1.393 0.0988-0.4446 1.151-0.99292 2.0896-0.99292 2.0896 0.04939-0.0173 4.846-0.95833 10.874-8.4867-15.998-6.448-25.53-1.2547-25.617-1.2004" fill="#ce7486"/>
 <path d="m30.192 134.7c-1.0818 2.544-0.34579 3.6259 1.2695 1.0621 2.0896-3.3443 5.3677-6.2558 9.3408-6.9706l-1.6203-0.6076c-4.5644 0.83484-7.929 3.9716-8.992 6.5177" fill="#0f141b"/>
 <path d="m9.5872 115.9c-2.8256 1.2004 3.8333 8.8527 3.8333 8.8527 2.8256-1.0275 9.3754-2.055 12.948-1.8673 1.5314 0.0988 4.9493 1.6746 8.5568 3.364 7.232 3.3986 17.165 8.0515 24.328 6.6224 10.334-2.0748 17.113-3.9025 24.031-11.937 0 0 1.8129-4.026-16.503-7.4587-18.333-3.4135-54.372 1.2201-57.195 2.4205" fill="#feeabe"/>
 <path d="m14.842 87.908c-3.0677 0.76568-5.3499 2.3711-6.239 4.4064-0.64219 1.4474-0.55821 3.0331 0.29638 4.5496 1.7586 3.2949 7.1277 10.056 11.554 8.6961 2.9639-0.904 9.9331-6.7444 10.682-11.084 0.29639-1.5511-0.1976-2.8602-1.393-3.7444-3.4826-2.6132-10.438-3.9371-14.882-2.8256" fill="#0f141b"/>
 <path d="m10.824 95.822c-0.50387-0.94351-0.57302-1.7932-0.19759-2.6132 0.6076-1.3782 2.386-2.5638 4.7571-3.1566 3.7642-0.93858 10.09 0.24699 13.018 2.4403 0.3458 0.29639 0.71629 0.6817 0.55821 1.6055-0.59279 3.364-6.7266 8.5914-9.1664 9.3408-2.4205 0.75086-7.023-4.026-8.9575-7.6153" fill="#0f141b"/>
 <path d="m18.774 91.807c0 1.1658-1.9167 3.1022-3.6604 3.1022-1.7438 0-3.1912-1.4128-3.1912-2.5786 0-1.6055 6.8486-2.1241 6.8486-0.52362" fill="#8c989f"/>
 <g fill="#0f141b">
  <path d="m183.02 168.65c-1.151 9.2539-8.0688 22.986-9.7068 24.589-1.64 1.6005 0.57302 0.86942 0.57302 0.86942 1.6549-0.39519 2.9985-1.0275 3.9568-1.5314-0.88918 2.0056-2.4403 5.6117-3.9914 7.6682-1.5709 2.0402 0.55821 0.8546 0.55821 0.8546 3.3295-0.6817 8.626-3.6259 12.112-6.6397-0.19759 1.5314-0.49398 2.3168-1.4128 4.5644-0.93858 2.2674 0.6817 0.78544 0.6817 0.78544 6.6046-2.4897 11.502-11.938 13.175-17.688l0.0988-0.29639-0.19759-0.247c-3.9568-4.357-8.8355-8.7134-14.935-13.314l-0.76568-0.57303z"/>
  <path d="m184.3 170.64c5.5766 4.268 8.8527 7.6158 12.547 11.659-1.5165 4.9843-4.4805 11.328-9.7241 15.179 1.2893-3.0133 1.0275-6.4129 1.0275-6.4129s-5.7683 5.4546-11.85 7.8944c1.9858-3.3789 4.599-10.073 4.599-10.073s-2.7367 2.1093-4.8608 2.8948c4.4113-6.1689 7.0581-12.669 8.2604-21.139"/>
  <path d="m58.969 131.74c-16.416 0.71628-27.116-10.194-32.78-10.456-4.4459-0.19759-9.9504 3.4826-14.377 3.2751-4.4459-0.1976-2.0204 2.0204 2.0056 1.8129 4.026-0.1976 8.3128-3.2257 11.885-3.4134 5.1058-0.29639 17.461 12.774 36.038 10.874 10.56-1.0818 17.339-5.9427 20.18-11.205 1.4968-2.7515 2.9293-6.8837-0.29638-2.5292-5.7856 7.807-11.781 11.171-22.637 11.641"/>
 </g>
 <g fill="#dbcaa5">
  <path d="m105.64 209.13c-2.2476-3.0133-0.60761-2.4205 2.386 0.49399 7.9986 0.62736 16.468 1.4622 21.592 2.4749-2.2131-2.6824-4.3915-5.2279-6.6397-7.685-10.334-1.5659-23.665-2.2328-24.031 1.4128-0.69651 6.9707-5.3326 24.398-8.4343 25.286-2.3168 0.66194-9.1318-8.5045-13.244-13.558-3.1368-3.8679-3.8185-2.5786-4.4113 0.34579-1.4622 7.0749-2.7861 22.585-3.6259 26.506-1.1164 5.2284-18.629-13.75-20.843-23.509-1.0621-4.6682-1.6746 13.07-2.8256 10.09-1.1658-2.9985-1.4968-7.1969-3.3295-5.5416-1.6005 1.4622-8.3647 13.419-11.362 20.564 4.9843-6.1516 7.354-9.7419 8.8182-11.275-0.50387-2.6478 0.69652-3.2406 1.7784 0.2964 1.0621 3.5369 6.2909 12.547 10.665 19.518-0.19759-2.5292-0.53844-4.7028-0.53844-4.7423 0 0-0.34579-7.023 0.49399-4.8114 0.82002 2.2131 5.0189 8.6087 7.4587 11.833-0.44459-4.0062-1.0127-7.6158-1.6055-10.84-2.8256-4.2186-2.0204-5.2279 2.4057 0.1976 8.8873 10.874 19.936 19.309 28.981 23.492 0.1976-9.9509-0.0988-18.699-0.59278-28.51-0.29639-5.873 1.0127-3.0133 2.0204 1.4128 0.80026 0.80026 5.664 6.5527 7.6682 8.1384 0.62736-2.9293 4.3915-22.986 4.3915-22.986s3.6604 5.298 5.2975 7.2848c-0.34578-3.6604-1.3585-12.094-1.3585-12.094s8.5045 3.1566 11.955 4.2335c-2.6675-3.8185-10.804-14.987-13.053-18.002"/>
  <path d="m276.8 227.25c3.2257 2.6132 4.8954 4.4459 8.8004 7.6331-3.5221-17.897-16.851-39.646-18.316-41.441-3.2751-2.1933-4.5842-4.6534-0.95833-2.8404 3.6259 1.8129 5.507 2.4551 8.0164 3.4332-1.235-2.2674-2.633-4.268-3.9914-6.2563-1.3437-1.9858-1.6055-2.6132 1.9364-1.7586 2.0204 0.4446 4.1841 1.1856 6.3606 1.9858-7.4933-7.8944-17.426-15.44-28.022-19.135 7.7897 13.994 10.369 36.387 5.9076 61.673 1.5314 1.4622 4.6534 3.7494 6.7963 6.6219 1.0275 1.4128-1.6203-7.023-0.92376-6.8486 4.1297 1.0472 14.586 11.223 14.569 9.7068-0.0351-1.5165-1.9858-10.351-2.9096-14.063-0.92376-3.7296 0.71627-4.3372 2.7367 1.2893"/>
  <path d="m137.12 60.06c-5.9254-7.6504-12.321-13.297-21.888-17.566-1.2202-0.53844-4.9666-1.2893-2.544-1.9018 2.4057-0.60761 9.8639-1.8129 11.728-2.1439 1.8623-0.29638-9.4104-3.2949-6.901-5.0189 4.2335-2.9096 14.29-5.9249 15.388-6.3956 0.5582-0.24699-4.3224-1.9512-11.432-2.9787-5.7505 2.5984-13.331 5.7337-19.466 8.8182 2.2131 2.2131 5.5243 2.2131 8.8527 2.2131-4.4261 3.3097-8.4867 4.4953-15.492 6.6397 10.596 1.7092 16.591 3.3097 23.248 9.9504-13.436 1.4474-27.203 4.1989-40.186 6.6051 9.2366 3.5369 17.288 9.5843 21.017 13.61 0.97809-0.1482 18.908-2.7367 22.899-3.3097-2.3366-2.6132-4.2532-4.2532-5.5588-5.3153-1.5166-1.2547-2.2674-2.1982 0.57302-2.1587 4.0952 0.04939 12.913 0.6076 18.089 1.8129 4.3372 1.0127 4.7917 1.1658 1.6746-2.8602"/>
 </g>
 <path d="m82.863 77.966c4.0408-3.1368 23.299-16.66 30.968-11.815 11.293 7.145 24.345 27.709 23.23 31.856-1.393 5.0886-10.77 15.545-16.922 16.729-5.0189 0.97809-11.519-0.50387-16.956-2.5095-4.5496-1.6894-24.363-31.124-20.32-34.261" fill="#f39938"/>
 <path d="m82.821 77.168c-2.2131 1.8821-1.64 3.0825 0.82002 1.5857 8.87-5.4368 22.707-16.154 29.678-11.746 11.519 7.3021 23.456 27.918 22.707 31.177-1.2695 5.629-10.962 14.691-15.876 15.527-6.5004 1.1164-15.074-1.5511-17.339-2.0402-2.2476-0.49399-1.6548 0.44458-0.34578 1.0275 1.3239 0.59279 12.408 4.3718 17.88 3.206 5.8379-1.2547 16.712-12.687 17.915-17.113 1.2893-4.7571-12.53-26.785-23.962-34.035-8.2955-5.2629-29.904 11.084-31.473 12.408" fill="#0f141b"/>
 <path d="m87.957 82.241c-2.2328 1.8277-0.3458 1.6746 1.5857 1.0275 9.0795 6.2218 11.153 20.25 11.31 21.365-3.1714-0.1976-2.8602 0.49399 0.19759 1.9019 3.0133 1.4474 12.617 3.7988 14.708 3.5024 2.7515-0.39519 13.157-7.1801 14.429-11.815 1.3436-4.9493-13.384-24.38-19.971-26.315-5.9772-1.7586-20.006 8.5045-22.236 10.334" fill="#0f141b"/>
 <path d="m109.81 73.923c6.0647 1.7784 19.1 19.936 18.107 23.578-1.0127 3.6753-9.9336 10.229-12.478 10.578-1.8821 0.29638-7.2325-1.0127-11.171-2.1587 0 0-3.6407-1.2201-4.357-1.4276-1.6055-12.269-8.2254-19.03-10.84-21.052 4.5298-3.7296 16.399-10.804 20.738-9.5147" fill="#d3c8b6"/>
 <path d="m87.688 83.572c1.8821 0.76568 9.7765 8.5741 11.449 21.348 0.0494 0.49399 1.2004 0.57302 1.1856 0.0988-0.247-8.5914-5.4546-19.239-11.868-22.115-0.4446-0.1976-1.2202 0.50387-0.76568 0.6817" fill="#0f141b"/>
</svg>
