<?xml version="1.0" encoding="UTF-8"?>
<!-- Created with Inkscape (http://www.inkscape.org/) -->
<svg version="1.1" viewBox="0 0 428.49 254.9" xmlns="http://www.w3.org/2000/svg">
 <g transform="translate(134.84 -31.278)">
  <path d="m78.711 201.64c-2.2314-2.2313-8.1314-10.155-9.5496-13.218-5.484-0.39728-14.636-1.4182-17.284-3.0446-2.6285-1.6263-9.7198-12.405-13.199-20.328-12.613-28.649-29.708-62.838-57.657-82.845-29.538-21.142-83.469-29.008-102.44-19.515-14.523 7.2614-15.242 16.83-3.8009 33.868 12.197 18.173 61.515 45.271 80.765 58.262 23.978 16.225 53.043 43.55 79.668 43.096 16.263-0.26417 30.086 0.68033 43.493 3.7253" fill="#fff"/>
  <path d="m69.159 188.43c-5.4838-0.39729-14.636-1.4182-17.284-3.0446-2.6284-1.6262-9.7197-12.405-13.199-20.328-8.415-19.118-18.853-40.695-33.149-58.886-26.228-6.5429-55.842 10.174-58.754 42.983 3.3281 2.099 6.2971 4.009 8.7743 5.673 23.997 16.225 53.043 43.531 79.668 43.096 16.263-0.28407 30.086 0.66145 43.493 3.7253-2.2315-2.2503-8.1314-10.174-9.5498-13.218" fill="#fff"/>
  <path d="m85.125 200.86c0.88997-0.69919 1.248-1.664 1.022-2.6664-0.45389-1.9855-3.0068-3.6685-6.8077-4.5006-6.1836-1.3426-10.06-1.4939-13.18-1.6262-4.3681-0.16982-7.5261-0.30191-13.256-3.3661-7.0724-3.801-13.18-16.282-20.934-32.109-14.504-29.632-34.379-70.194-74.506-84.244-42.604-14.92-67.868-15.998-84.434-3.6308-1.9666 1.4372-3.1013 3.6118-3.3848 6.4295-0.69919 6.8832 3.6685 16.565 11.422 25.264 7.2804 8.2069 30.71 25.377 76.737 53.175 11.989 7.2426 41.583 35.948 71.329 41.753 7.9612 1.5507 15.979 1.475 23.014 1.6075 10.098 0.1887 18.797 0.35956 25.396 3.6495 3.5739 1.7776 6.2592 1.3049 7.5829 0.26521m-124.73-131.6c36.856 12.764 57.865 47.238 74.941 84.661 7.0724 15.506 14.428 29.972 20.669 31.202 5.6351 1.116 9.9088 2.1936 14.145 2.3638 3.2336 0.13211 5.3137 0.47276 11.781 1.891 5.1435 1.116 6.6185 4.7843 7.3938 8.0746 0.51051 2.2503 5.3326 8.8311 3.4606 10.306-2.7232 2.1557-6.6186 0.18869-10.798-1.891-5.9379-2.969-19.251-5.6919-28.933-5.8622-7.148-0.13211-18.437-0.3407-26.758-1.1914-23.846-2.4583-51.625-29.859-75.792-44.59-46.878-28.573-64.881-42.34-72.501-50.906-11.8-13.256-16.622-29.159-9.5307-36.251 13.559-13.559 44.968-14.088 91.922 2.1936" fill="#0f141b"/>
  <path d="m-95.516 72.677c-3.782-0.7558-4.425 0.7558-1.267 2.118 1.9099 0.8124 15.752 5.2002 24.508 9.7576 23.014 11.97 42.378 38.331 61.08 62.328 19.326 24.772 31.826 45.347 57.808 51.095l12.235 0.66146c8.7743 1.1536 12.783 1.7018 20.347 5.4839 3.6497 1.8153 6.9779 1.8911 9.1336 0.18868 1.6263-1.267 2.2881-3.3283 1.7775-5.5218-0.85014-3.7442-4.652-6.6753-10.155-7.8855l-6.4483-1.4182c-9.058-2.0045-11.497-2.5529-20.48-3.0257-17.057-0.86902-33.584-20.669-52.74-43.569-19.251-23.032-41.073-49.128-68.795-62.233-8.3772-3.9521-20.461-6.6752-27.004-7.9801" fill="#0f141b"/>
  <path d="m80.288 201.93c-7.9234-3.9711-12.329-4.5383-21.123-5.7107l-13.313-1.9478c-18.173-3.0257-36.118-26.058-55.142-50.433-18.853-24.205-38.369-49.223-61.855-61.458-0.96439-0.49164-2.0234-0.98432-3.1013-1.4561 1.8155 0.68032 3.4039 1.3426 4.6898 1.9478 27.231 12.859 48.864 38.747 67.963 61.571 19.515 23.354 36.383 43.512 54.499 44.458 8.7744 0.4539 11.176 0.98433 20.083 2.9688l6.4484 1.4183c5.3516 1.1726 7.791 3.8955 8.3015 6.0513 0.28407 1.248-0.06295 2.3637-0.90674 3.0633-1.3803 1.0594-3.8198 0.88893-6.5428-0.47277" fill="#5892bf"/>
  <path d="m87.848 205.5c1.3426 6.7319 1.7586 15.336-1.8342 17.586-13.653 8.5285-13.029 21.444-5.8245 28.989 13.559 14.202 52.494 37.385 72.709 33.717 20.101-3.6496 33.168-25.113 19.118-32.525-7.7532-4.0846-49.866-20.499-49.866-20.499-8.642-3.1391-12.424-7.3182-10.703-11.63 2.7799-6.94-15.204-15.847-20.801-18.419l-2.8932-1.3235z" fill="#0f141b"/>
  <path d="m142.64 244.74c-2.5906-0.98326-5.1435-1.9478-7.564-2.8743l-13.672-5.3137c-10.684-4.5763-13.634-9.4172-13.634-13.369 0-1.1726 0.26416-2.2692 0.66144-3.2526 0.063-0.13211 0.0734-0.28302 0.0734-0.43502 0-2.6664-7.9612-8.2259-16.452-12.481 0.20755 1.7965 0.37841 3.8767 0.37841 6.0703 0 5.484-1.0021 11.403-4.6707 13.691-1.1914 0.75579-2.8933 1.8344-4.5386 3.2148 16.244 16.981 36.232 26.644 59.416 14.75" fill="#46799e"/>
  <path d="m169.08 255.86c-6.0134-3.1579-16.49-7.2992-26.436-11.119-23.184 11.894-43.172 2.2314-59.434-14.75-2.307 1.9478-4.5006 4.4818-4.8977 7.602-0.04201 0.32077-0.06294 0.66145-0.06294 1.0021 0 3.0446 1.6831 6.3539 5.0302 9.871 12.783 13.388 49.261 36.818 68.114 33.395 12.613-2.288 20.555-10.911 21.614-17.87 0.0734-0.49164 0.1321-1.022 0.1321-1.5508 0-2.288-0.85013-4.8977-4.0656-6.5807" fill="#5892bf"/>
  <path d="m260.63 151.83c-10.93 7.8855-18.021 22.579-22.541 31.107-1.3994 2.6473-3.82 7.1669-4.5196 8.1124-5.3327 7.0724-10.155 1.7586-14.239-1.1725-6.2403-4.4628-17.851 11.441-20.064 14.202l-2.0234 2.515 2.5718 1.7965c5.049 0.22642 12.727 9.4361 14.258 13.029 5.2949 12.348 16.319 21.558 32.128 15.166 17.832-7.2238 46.122-41.848 47.351-64.2 1.475-27.155-14.107-34.152-32.923-20.555" fill="#0f141b"/>
  <path d="m235.95 193.19c0.85013-1.1348 3.1769-4.3683 4.6896-7.2426 4.3683-8.2826 11.687-22.144 21.993-29.575 8.0179-5.7864 14.826-7.4316 19.667-4.7654 5.3516 2.931 8.1503 11.119 7.4885 21.917-1.1725 19.459-28.119 52.324-44.798 59.075-6.108 2.4771-11.611 2.6094-16.32 0.43502-6.297-2.9122-9.8521-9.4172-10.968-12.802-1.5884-4.8409-7.9045-13.634-14.239-16.092 4.6898-5.2949 11.327-11.006 13.786-9.266 7.2425 5.1813 13.464 5.276 18.702-1.683" fill="#5892bf"/>
  <path d="m142.64 244.74c-2.5906-0.98326-5.1435-1.9478-7.564-2.8743l-13.672-5.3137c-10.684-4.5763-13.634-9.4172-13.634-13.369 0-1.1726 0.26416-2.2692 0.66144-3.2526 0.063-0.13211 0.0734-0.28302 0.0734-0.43502 0-2.6664-7.9612-8.2259-16.452-12.481 0.20755 1.7965 0.37841 3.8767 0.37841 6.0703 0 5.484-1.0021 11.403-4.6707 13.691-1.1914 0.75579-2.8933 1.8344-4.5386 3.2148 16.244 16.981 36.232 26.644 59.416 14.75" fill="#46799e"/>
  <path d="m282.3 151.6c-4.86-2.6664-11.649-1.0221-19.667 4.7653-10.306 7.4506-17.624 21.293-21.992 29.575-1.5317 2.8745-3.8387 6.1081-4.6897 7.2426-5.2382 6.959-11.478 6.8644-18.702 1.702-2.4584-1.7587-9.0958 3.9522-13.785 9.266 6.3348 2.4394 12.632 11.233 14.239 16.074 0.92772 2.8176 3.5929 7.791 8.0746 11.063 0.43503-0.54825 0.8124-1.097 1.1726-1.6074 11.384-14.636 16.263-32.525 27.628-48.788 8.1315-9.7576 19.515-19.515 32.525-16.263 0.90885 0.15091 1.7209 0.41615 2.4584 0.73692-0.83127-6.6941-3.366-11.63-7.2615-13.766" fill="#46799e"/>
  <path d="m108.52 38.476c-27.268 11.441-65.202 54.669-54.367 116.07 9.7765 55.388 58.527 84.471 99.807 80.595 47.294-4.425 71.783-29.916 81.351-61.685 8.623-28.668 5.9945-72.275-20.48-105.22-23.694-29.481-63.084-47.899-106.31-29.765" fill="#0f141b"/>
  <path d="m212.13 71.508c21.557 26.72 28.573 59.813 20.593 97.784-6.7509 32.147-35.475 57.506-77.286 61.42-38.312 3.5929-86.495-19.099-97.141-79.423-10.93-61.893 32.185-98.597 48.769-107.81 40.052-20.555 82.127-0.39728 105.06 28.025" fill="#5892bf"/>
  <path d="m140.77 197.15c-45.706-18.57-80.103-65.996-71.253-114.73-9.909 17.549-16.206 40.562-11.214 68.852 10.646 60.323 58.81 83.034 97.141 79.441 25.169-2.3638 45.592-12.5 59.34-27.212-24.659 2.4394-49.336 3.2524-74.014-6.3538" fill="#46799e"/>
  <path d="m171.22 88.204c-18.135 3.5551-67.868 30.464-65.826 82.051 0.79353 20.045 6.5428 34.908 18.002 45.006 11.649 10.23 31.504 11.403 40.846 10.609 15.109-1.2859 62.819-15.204 66.564-68.795 1.8532-26.607-5.3515-48.674-18.343-60.134-9.9279-8.7743-25.339-11.857-41.243-8.7364" fill="#0f141b"/>
  <path d="m210.22 99.189c12.197 10.779 18.513 32.96 16.717 58.527-3.5741 51.322-50.074 64.616-62.044 64.938-11.592 0.32183-27.439-0.98431-38.293-10.533-10.779-9.493-16.641-23.997-17.397-43.134-1.9666-49.45 45.233-74.184 62.649-77.588 14.863-2.9122 29.216-0.28303 38.369 7.7909" fill="#fff"/>
  <path d="m140.77 197.15c-11.025-4.4817-21.368-10.646-30.634-18.097 2.1558 14.22 7.6586 25.321 16.452 33.055 10.873 9.5685 26.72 10.873 38.293 10.552 6.9211-0.18869 25.283-4.7086 40.298-18.324-21.463 1.6264-42.945 1.1726-64.408-7.1857" fill="#dcdddd"/>
  <path d="m113.21 45.81c-8.7365 2.9878-17.435 9.6252-21.974 19.08-4.3115 8.9822-4.3304 19.288 0 25.945 3.99 6.1079 11.762 9.7954 20.404 9.5307 16.962-0.52938 27.42-12.027 28.157-29.972 0.52936-12.367-5.9-21.312-12.084-24.413-3.9334-1.9665-9.0769-2.0234-14.504-0.16983" fill="#0f141b"/>
  <path d="m94.783 88.494c-3.7064-5.673-3.6309-13.483 0.16982-21.406 4.1602-8.6799 10.306-15.885 18.229-18.608 4.5763-1.5696 10.779-1.7587 13.918-0.1887 5.2759 2.6473 9.9089 11.043 9.4551 21.954-0.68032 16.263-9.4551 25.491-24.716 25.964-7.6019 0.2453-13.653-2.4962-17.057-7.7153" fill="#fff"/>
  <path d="m159.31 36.162c-1.456 0.51049-3.2715 1.7775-3.7631 4.8977-1.1536 7.3561 6.2403 21.387 14.655 27.817 16.338 12.462 28.006 9.7576 33.471 3.0822 3.782-4.6139 3.4984-10.155 0.8124-13.653-11.592-15.034-36.024-25.396-45.176-22.144" fill="#0f141b"/>
  <path d="m201.31 59.221c2.7609 3.4984 2.4394 7.5262-0.15092 10.684-4.5006 5.5028-14.485 7.4506-28.97-3.6118-7.375-5.6163-14.996-18.683-13.426-24.735 2.4961-9.6251 31.901 4.1225 42.548 17.662" fill="#fff"/>
  <g fill="#0f141b">
   <path d="m89.446 77.651c0 11.535 10.627 20.139 20.139 20.139 9.663 0 18.135-9.9655 18.135-21.349 0-10.798-7.8288-23.373-17.927-23.373-9.5118 0-20.347 13.105-20.347 24.583"/>
   <path d="m92.699 77.651c0-9.7576 9.266-21.331 17.095-21.331 7.4129 0 14.674 9.9657 14.674 20.12 0 9.474-7.0913 18.097-14.882 18.097-7.8099 0-16.887-7.375-16.887-16.887"/>
   <path d="m158.74 46.024c-0.8124 0.90674-1.1537 2.2314-1.0032 3.9144 0.41615 5.1058 5.3894 13.918 14.05 20.915 7.772 6.2781 17.643 7.8477 21.557 3.4415 1.3994-1.5884 2.1369-3.7062 2.1369-6.2023 0-0.66145-0.0629-1.3617-0.16983-2.0991-0.9277-6.4672-5.9189-13.993-11.592-17.511-4.1034-2.5529-18.04-10.268-24.98-2.4583"/>
   <path d="m173.83 68.332c-8.3583-6.7509-12.538-14.977-12.859-18.664-0.0734-0.90674 0.10481-1.3615 0.20755-1.4749 4.1792-4.7087 13.823-1.2859 20.839 3.0633 4.86 3.0067 9.2849 9.7009 10.079 15.204 0.2453 1.702 0.2453 4.0657-1.1726 5.6731-2.4017 2.7041-10.382 1.6263-17.095-3.801"/>
   <path d="m193.35 74.3"/>
  </g>
  <path d="m110.8 78.656c0 5.6731-3.4039 9.4362-6.959 9.4362-3.5551 0-7.2993-3.1013-7.2993-8.7555 0-5.673 3.0257-11.441 6.5808-11.441 3.5552 0 7.6776 5.0868 7.6776 10.76" fill="#fff"/>
  <path d="m178.6 65.939c-1.6263 1.8155-5.2192 1.3048-8.0368-1.2102-2.8176-2.534-5.0302-8.6608-3.4038-10.476 1.6263-1.8155 6.1835 0.26416 9.0012 2.7797 2.8176 2.515 4.0657 7.0913 2.4394 8.9067" fill="#fff"/>
  <path d="m171.99 104.83c-23.978 4.5762-50.585 28.857-52.646 64.899-0.90779 15.903 6.524 25.642 12.934 31.013 10.609 8.9068 22.635 12.273 40.089 9.3037 5.3704-0.90676 14.164-7.9043-1.494-6.3347-15.639 1.5884-25.472-0.43504-34.416-7.9423-5.257-4.425-11.384-12.462-10.627-25.68 2.118-36.723 30.181-55.596 47.37-58.867 9.7955-1.8721 23.392-0.83127 32.128 7.6964 7.4506 7.2615 10.003 18.513 7.5451 33.414-2.5718 15.714-11.384 24.583-18.343 29.273-10.609 7.1291-23.524 9.1903-30.805 7.5263-7.9045-1.7965-13.596-5.9189-16.433-11.951-3.5173-7.4317-2.4394-17.53 3.0067-28.441 5.4839-10.968 15.298-18.589 26.266-20.366 5.5785-0.90884 10.646-0.0419 12.878 2.1936 2.8177 2.8364 4.5386 8.6987 4.3683 14.958-0.22642 8.6987-3.8955 16.887-10.098 22.446-5.0112 4.5196-10.079 6.2971-14.655 5.1059-4.2358-1.0971-7.1857-4.4818-7.8476-6.4105-2.8176-8.2639 1.3993-16.225 10.741-20.291 1.7775-0.7558 5.5596-2.0045 6.2403 0.41615 1.1537 4.1601-3.0256 9.6252-6.8833 10.59-3.8576 0.96439-5.1435 5.7865 0 5.4651 5.1437-0.32181 15.771-6.751 12.424-19.44-1.0399-4.0089-7.0534-6.1647-14.372-2.9878-12.481 5.4272-18.229 16.811-14.296 28.346 1.3804 4.0278 6.0512 8.9634 12.367 10.609 4.7274 1.2291 12.14 1.0781 20.65-6.5619 7.5073-6.7508 11.97-16.641 12.235-27.117 0.22644-8.2072-2.1368-15.582-6.2781-19.723-3.782-3.782-10.703-5.276-18.513-4.0091-13.01 2.118-24.621 11.025-31.031 23.865-6.4672 12.916-7.5263 24.716-3.0824 34.133 3.6686 7.7721 11.1 13.294 20.877 15.525 8.3773 1.9099 23.165 0.063 35.872-8.4906 11.497-7.7343 18.816-19.364 21.142-33.603 3.4984-21.35-3.1959-33.055-9.4362-39.125-10.533-10.268-26.474-11.611-37.877-9.4362" fill="#0f141b"/>
  <path d="m166.94 76.259c-4.822 0.62372-11.1 4.2548-14.693 9.2469-3.0067 4.1603-5.7865 10.23-4.9544 14.523 0.69919 3.7253 3.99 6.8833 7.2047 9.0013 4.9734 3.2713 13.559 3.3848 21.425 1.6451 5.1813-1.1536 9.474-4.9167 12.367-9.5497 2.5719-4.1035 3.5173-8.6797 2.6096-12.575-2.1936-9.2469-14.145-13.577-23.959-12.291" fill="#0f141b"/>
  <path d="m156.87 105.08c-2.496-1.6451-4.0467-3.9334-4.6139-6.8077-0.81241-4.2925 1.0593-8.0368 2.7986-10.419 3.4984-4.8598 8.9634-7.9423 12.31-8.3772 8.4528-1.097 18.078 2.6853 19.78 9.9279 0.71806 3.0067 0.0734 6.9399-2.0045 10.249-2.4394 3.9143-5.9379 6.4482-10.268 7.4127-7.0157 1.5507-13.748 0.8124-18.003-1.9855" fill="#f09cb4"/>
  <path d="m153.78 94.715c-0.4539-0.4539-0.88892-1.021-1.267-1.6831-0.43503 1.5885-0.62372 3.366-0.24529 5.2382 0.54823 2.8743 2.099 5.1625 4.5952 6.8077 4.2547 2.7985 10.987 3.5362 18.002 1.9855 2.0989-0.47276 3.99-1.3048 5.6731-2.4771-9.4929 0.92561-19.194-1.2292-26.758-9.8712" fill="#d0879d"/>
  <path d="m165.36 94.382c-2.3261 1.5697-3.7253 4.3116-3.8578 5.2759-0.15092 0.96545 1.2481 2.969 3.1202 0.8124 2.0046 0 5.1247 0.41616 8.3394-0.94657 2.1747-0.9078 5.6353-2.9122 6.5996-4.7654 1.7775-0.30189 2.4584-1.8721 0.30191-2.6095-6.0512-2.0802-11.289 0.06294-14.504 2.2314" fill="#0f141b"/>
  <path d="m171.37 95.532c1.5127-0.47277 2.6285-0.64259 3.5172-0.73693-0.8124 0.56711-1.9098 1.1913-3.1769 1.7398-1.8911 0.79353-3.6497 1.021-4.841 1.021 0.88788-0.58598 2.3448-1.3426 4.5006-2.0233" fill="#ed8599"/>
 </g>
</svg>
