<?xml version="1.0" encoding="UTF-8"?>
<!-- Created with Inkscape (http://www.inkscape.org/) -->
<svg version="1.1" viewBox="0 0 262.64 324.43" xmlns="http://www.w3.org/2000/svg">
 <g transform="translate(22.26 11.124)">
  <path d="m150.49 264.3c-3.7598 2.2498-6.9999 4.8852-6.5318 5.5544 0.45528 0.65636 6.9866 0.30352 8.178 0.45528z" fill="#c8c9ca"/>
  <path d="m169.57 230.79c-1.2065 1.4986-0.75121 6.0097-2.2498 8.5661-1.5138 2.5572-1.0585 4.9523 0.75121 7.9636 1.7946 2.9973 1.5404 6.9999-3.868 11.658-2.9707 1.6466-9.356-0.22763-11.163 1.7149-1.8059 1.9539-3.9082 4.5103-2.1019 7.2139 1.8059 2.7051 2.1019 5.702 10.668 4.2026 8.5657-1.4986 13.518-1.2027 19.835-0.15176 6.3041 1.0434 12.769 2.5572 15.017 5.5548 2.2612 3.0124 3.7599 6.6118 9.3154 6.3174 5.5681-0.30352 9.1686-4.3365 8.2717-7.937 3.4943 2.9972 9.7707-0.6298 9.4626-4.39-0.30352-3.7485-3.8813-5.7821-7.1873-7.4416-3.3046-1.6466-11.055-4.9925-13.398-5.6348-4.4166-1.2179-10.667 0.30352-14.575 0.0133-3.9082-0.30352-4.6579 0-4.203-2.1133 0.45528-2.1019 7.6559-11.27 9.0077-14.268 1.3658-3.0124-0.44011-6.4646 0.76258-8.8605 1.1913-2.4092 4.0554-6.6118 2.8493-8.1245-1.2065-1.4986-7.0667-4.8047-8.2713-5.0991-1.1913-0.30352-2.2498 0-3.4525 1.0434z" fill="#d7a400"/>
  <g fill="#b08600">
   <path d="m171.08 252.45c-2.303-12.247 4.2296-19.742 9.3556-28.509l-10.868 6.8531c-1.1913 1.4986-0.7512 6.0093-2.2498 8.5657-1.4986 2.5572-1.0585 4.9523 0.75121 7.964 1.8059 2.9973 1.5517 6.9999-3.8684 11.658-2.9707 1.6466-9.3556-0.22765-11.149 1.7111-1.8059 1.9539-3.9082 4.5107-2.1132 7.2143 1.4721 2.1967 1.9425 4.5775 6.6387 4.604-1.3241-2.8493-4.0019-7.7492 0.92195-7.9367 8.807-0.3794 13.438-6.0901 12.581-12.126"/>
   <path d="m175.35 271.2c2.007 0.15176 3.975 0.41355 6.0898 0.76259 6.3174 1.0585 12.769 2.5572 15.031 5.5544 2.2498 3.0124 3.7485 6.6118 9.3158 6.3174 2.3409-0.15176 4.3498-0.92195 5.8086-2.0753-2.0336-0.0379-5.889 0.42872-10.814-4.5103-4.939-4.9257-15.339-8.5794-25.43-6.0499"/>
   <path d="m203.44 266.68c4.8317 2.3675 7.7629 5.0726 9.2217 6.6387 2.0867 2.2233 1.4455 2.8114 1.3924 2.5837 3.4791 2.9973 9.7437-0.6298 9.463-4.3764-7.7496 3.0769-12.099-3.2515-20.077-4.8453"/>
  </g>
  <path d="m218.57 286.56c-0.45529-4.1089-3.0504-10.44-5.9023-11.43-2.9593-1.0168-6.7594 2.2233-5.9831 5.5411 2.2878 0.85745 7.4822 3.9617 11.015 6.0362 0.41354 0.42872 0.92194 0.3794 0.86883-0.15176" fill="#eeeeef"/>
  <path d="m206.96 278.1c-0.34147 0.78915-0.46667 1.6732-0.26559 2.5685 2.0336 0.7626 6.7324 3.6271 10.039 5.18-2.5154-3.3046-5.9292-5.889-9.7707-7.7496" fill="#c8c9ca"/>
  <path d="m229.51 277.83c-1.233-3.9484-4.4435-9.1818-7.2276-9.7172-3.0656-0.60324-6.3709 3.13-5.1397 6.3174 2.2612 0.49701 7.8168 2.6368 11.297 4.1226 0.68292 0.45527 1.3127 0.0759 1.0699-0.72087" fill="#eeeeef"/>
  <path d="m217.71 270.38c-0.77777 1.1913-1.0965 2.6634-0.5615 4.0421 1.3127 0.30352 6.1303 1.9274 8.6465 2.8227-1.5404-1.2179-6.1034-3.8547-8.0842-6.866" fill="#c8c9ca"/>
  <path d="m97.299 156.98-35.268-7.1873c-14.161-6.2104-43.499-2.6634-56.696 21.977-12.14 22.673-6.5849 39.551-1.3127 48.786-3.278 1.8211-10.226 5.1799-24.453-6.5849-4.2698 15.753 5.5142 37.516 28.094 37.516 22.419 0 32.337-12.046 34.09-15.552 8.7937 15.82 79.704 43.673 108.71-11.859z" fill="#d7a400"/>
  <path d="m97.299 156.98-35.268-7.1873c-6.7055-2.9442-16.784-4.1358-27.023-1.6049 34.519 3.3463 43.928 25.832 46.363 37.061 2.4244 11.243 2.9176 34.117-10.399 40.447-13.304 6.3443-36.392-15.526-37.958-33.648-9.9847 2.0222-7.8566 31.493-9.677 38.172-1.8211 6.6922-6.3842 12.461-18.229 11.859-11.845-0.61463-20.384-7.8031-26.541-17.668 1.5517 13.813 11.698 27.077 29.098 27.077 22.419 0 32.337-12.046 34.09-15.552 8.7937 15.82 79.704 43.673 108.71-11.859z" fill="#b08600"/>
  <path d="m54.578 246.63 1.2976-3.3046s-9.3021-17.801-3.8816-37.878c3.2249-11.979 11.35-25.738 30.69-34.344-4.9254-5.4076-5.7149-13.84-5.7149-13.84-20.652 2.1967-61.234 40.488-30.476 84.001z" fill="#A4725D"/>
  <path d="m35.939 201.83c-1.8591 11.912 0.6298 25.403 10.56 39.444l8.0843 5.367 1.2862-3.3046s-5.3674-9.8777-5.702-23.329c-6.0093-5.1128-11.029-11.323-14.227-18.176" fill="#815848"/>
  <path d="m76.976 157.26c-3.2249 0.34146-6.3978 1.3772-10.253 3.3729 5.1128 4.9254 7.9905 8.1643 10.56 13.384 2.0867-1.1648 3.8816-2.2878 6.7992-2.7165-4.9117-5.3939-7.1069-14.04-7.1069-14.04" fill="#815848"/>
  <path d="m161.36 179.24c13.625 7.4685 8.3517 10.989 13.184 15.379 4.8317 4.4037 10.547-6.1432 7.4685-9.2217-3.0769-3.077-7.0671-12.126-8.8203-15.205z" fill="#d7a400"/>
  <path d="m161.36 179.24c13.625 7.4685 8.3517 10.989 13.184 15.379 4.8317 4.4037 10.547-6.1432 7.4685-9.2217-3.0769-3.077-7.0671-12.126-8.8203-15.205z" fill="#b08600"/>
  <path d="m147.29 135.29c2.4623-0.0379 13.291 0 21.254 3.0656 5.9293 2.303 6.7859 4.5236 6.438 13.639-0.44011 11.43 1.0433 29.312-14.509 25.926-15.553-3.388-18.324-42.549-13.184-42.629" fill="#A4725D"/>
  <path d="m154.94 135.47c-2.8796-0.26558-5.4205-0.22765-7.6426-0.1897-5.1394 0.0759-2.3826 39.243 13.184 42.629 12.541 2.7317 14-8.3919 14.321-18.792-9.4759-5.3135-21.509-18.751-19.862-23.664" fill="#815848"/>
  <path d="m195.64 177.04c-0.0759 0.0379-0.15177 0.11381-0.22764 0.1897-3.7067 2.6748-12.555 5.9425-17.119 7.7492-9.463 3.7598-5.6751 16.048 1.3658 15.178 7.0269-0.884 19.073-8.1643 26.1-6.3974 3.9484 4.5907 13.773 0.34145 15.967-1.419 2.1967-1.7528 2.0602-5.1796 5.5681-4.7379 1.4038 6.4646 10.614 5.5544 11.403 3.6954 2.5572-6.0097 0.75122-12.796-1.0585-14.147-1.7946-1.3507-4.2026-3.13-6.4513-2.8379-2.2498 0.30352-9.6231 2.1019-10.373 0.30352-0.75121-1.7946 0.75121-5.8488 3.6157-8.4052 4.3498 1.2065 8.4056 0.15177 9.0077-4.8051 0.60326-4.9656-3.1452-7.9636-5.0995-8.8738-1.9539-0.89537-9.4759-0.15175-11.27 3.1566-1.806 3.3046-2.8493 7.6696-10.52 12.621-3.1604-0.45528-2.8493-3.4525-2.7051-6.6118 0.15176-3.1566-4.9656-4.5103-7.9636-3.6005-3.0124 0.8954-6.6657 2.6786-5.5681 8.7133 0.30352 1.6466 2.1132 4.2026 4.0691 6.0097 1.1496 1.0585 1.271 4.2428 1.271 4.2428" fill="#d7a400"/>
  <g fill="#b08600">
   <path d="m197.96 171.56c-0.884-4.5775-4.497-4.2561-2.9973-8.4591-0.34145 0.0379 1.2027-5.1261 0.89539-5.0324-2.9973 0.91056-6.652 2.6899-5.5544 8.7133 0.30351 1.658 2.1019 4.2159 4.0554 6.0097 1.1496 1.0699 1.2862 4.2561 1.2862 4.2561-0.0759 0.0379-0.15177 0.11381-0.22764 0.1897-0.30352 0.22765-0.68292 0.45529-1.0699 0.6943 0.83088 1.0434 4.5103-1.7794 3.6271-6.3576"/>
   <path d="m220.3 164.11c-3.7864 0.6943-4.1893 5.8625-3.4791 8.0843 0.65637 1.3241 2.0753 1.8742 3.868 2.0222-0.40216-1.8211 0.89539-5.1932 3.278-7.5758-1.3507-0.62981-2.6103-1.2065-3.6688-2.5306"/>
   <path d="m226.68 187.55c0.64119-1.6732 1.7414-3.2249 3.0769-4.9925 0.85745-1.7263-8.6196 1.3127-10.841 2.9176-6.679 4.8317-10.56 8.3252-20.612 1.5783-6.1569-1.7528-15.325 5.8086-18.845 4.2292-3.5208-1.5783-1.7794-4.7512-2.5951-5.6345-7.6157 4.3764-3.8813 15.325 2.7696 14.495 7.0265-0.884 19.072-8.1643 26.113-6.4111 3.9348 4.6044 13.759 0.34147 15.954-1.4038 2.0753-1.658 2.0753-4.7649 4.9789-4.7782"/>
  </g>
  <path d="m199.32 162.43c0.45529-3.1604 2.3409-8.7668 1.1496-9.3958-1.5783-0.84226-12.796 9.1549-9.57 11.203 2.8645 1.7946 8.4189-1.8059 8.4189-1.8059" fill="#eeeeef"/>
  <path d="m190.91 164.23c0.61463 0.38699 1.3658 0.52358 2.1398 0.49322 0.69809-3.4677 0.85744-5.5009 3.8547-9.6902-4.0019 2.9024-8.0573 7.8968-5.996 9.1951" fill="#c8c9ca"/>
  <path d="m224.71 160.93c1.3506-1.2027 7.8164-0.45529 8.258 2.1019 0.41354 2.3409-4.4033 8.5524-6.023 7.4283-0.80432-2.652-2.2346-9.5298-2.2346-9.5298" fill="#eeeeef"/>
  <path d="m227.25 160.37c-1.123-0.0132-2.1019 0.15177-2.542 0.55014 0 0 1.3772 5.4876 1.6466 8.3521 0.1897 0.0379 0.26558 1.3658 0.45528 1.3658 0.84226-3.5588 1.7528-6.7055 0.4401-10.266" fill="#c8c9ca"/>
  <path d="m230.6 198.97c1.123-4.6977-0.027-8.285-0.027-8.285 2.2612-1.9539 7.964-1.0585 7.0671 2.7051-0.74743 3.0769-4.2296 5.26-6.2772 6.2639-0.4401 0.22763-0.85744-0.30352-0.76259-0.68292" fill="#eeeeef"/>
  <path d="m230.57 190.67s0.88401 2.7582 0.34146 6.5985c1.0699-2.3295 1.6732-4.7649 2.2347-7.5755-0.99023 0.0759-1.9274 0.41354-2.5837 0.97506" fill="#c8c9ca"/>
  <path d="m152.29 197.89c1.806 0 6.6118 0 14.268 6.6118 7.6692 6.6118 13.679 12.769 17.132 13.973 3.4525 1.2027-1.0433 8.1112-2.1019 9.1682-1.0585 1.0434-9.6098 3.9086-13.679 1.9539-4.0554-1.9539-14.87-5.7153-19.073-6.3174-4.2159-0.60325-5.26-2.2498-5.5677-2.7051z" fill="#d7a400"/>
  <path d="m175.39 226.56c-8.4591-6.1569-25.819-7.522-27.05-18.738l-5.0593 12.755c0.30351 0.4401 1.3506 2.1019 5.5544 2.7051 4.2026 0.60324 15.017 4.3498 19.086 6.3041 3.7333 1.8059 11.27-0.46667 13.264-1.6732-2.3143 0.0379-4.3631-0.26558-5.7953-1.3507" fill="#b08600"/>
  <path d="m101.51 126.34c9.5965-4.8988 30.771-4.0687 45.159 7.8699 14.388 11.939 15.794 16.316 15.794 16.316 1.1648 5.0324 5.6883 17.654 2.9859 21.91-1.0965 1.7263-12.394 11.859-15.379 17.199-3.039 5.4607-30.195 5.4205-38.333 1.9425-8.1241-3.4791-6.1835-8.1378-16.65-12.394-4.6579-1.9008-11.229-6.9734-13.933-10.841-2.7051-3.8684-4.6177-13.09-5.6083-19.1-1.0054-6.0093 16.369-18.002 25.966-22.901" fill="#A4725D"/>
  <path d="m139.62 169.35c-6.0362 0.42872-13.358 3.3311-17.226 1.8325-3.8816-1.5138-9.1416-17.105-3.9621-24.011 5.1667-7.7496 11.885-14.254 19.782-18.417-13.291-6.5985-28.857-6.4248-36.7-2.4092-9.5965 4.8984-26.97 16.878-25.979 22.901 1.0054 6.0097 2.9024 15.231 5.6216 19.099 2.7051 3.868 9.2752 8.9409 13.933 10.841 10.453 4.2561 8.5259 8.9007 16.65 12.394 8.1378 3.4791 35.241 3.4791 38.333-1.9387 1.7794-3.1035 5.0995-6.4244 8.4322-9.5298 0.99024-2.4244 1.9274-2.7051 1.9274-5.2065 0-6.9062-14.776-5.9828-20.813-5.5544" fill="#815848"/>
  <path d="m89.288 113.75c-3.868-1.1648-16.195-7.5622-20.839-5.6216-4.6446 1.9425-15.553 7.5622-15.165 14.522 0.3794 6.973 4.9789 28.522 14.669 31.239 9.677 2.7051 13.344 2.7051 17.212 4.6442 8.9542-5.1796 18.444-13.812 16.516-25.43z" fill="#A4725D"/>
  <path d="m86.316 149.96c-6.9062 0.85744-15.298 0.0132-12.702-8.6196 0.85745-3.4525-0.64118-10.721-1.6049-13.304-0.97506-2.5837-6.0495-0.48184-4.5372-3.9484-3.1338-0.15175-5.9828-0.42872-6.3576-2.6634 0-3.7067 5.7153-11.417 11.243-13.532-1.5517-0.22764-2.9062-0.1897-3.9082 0.22763-4.6442 1.9425-15.553 7.5622-15.165 14.535 0.38699 6.9601 4.9792 28.522 14.669 31.226 9.677 2.7165 13.773 2.4889 17.641 4.4303 6.5852-3.2401 12.514-9.5028 14.977-15.044-5.0862 1.9008-8.7535 5.6883-14.254 6.6922" fill="#815848"/>
  <path d="m59.473 96.324c2.3295 1.5517 2.3295 4.2561 3.868 7.3615 1.5517 3.0921 8.4591 11.671 9.6902 13.157 2.9707 3.6157-7.5755 11.872-11.711 4.2296-2.3561-4.3635-5.9828-9.1819-9.4626-11.899-3.4791-2.7051-8.4454-5.8758-7.2811-8.9812z" fill="#d7a400"/>
  <path d="m54.584 104.03c0-1.4986 3.7333-3.3842 3.2932-7.2811l-13.304 3.4525c-1.1496 3.0921 3.8012 6.2639 7.2811 8.9808 3.4943 2.7051 7.1073 7.522 9.4763 11.885 1.8211 3.3994 4.9121 3.6536 7.5353 2.5837-4.2963-7.0269-13.598-11.443-14.281-19.621" fill="#b08600"/>
  <path d="m69.818 48.626c0.60324 2.303-1.8211 5.9425-4.3635 11.163-2.5572 5.2198-6.4376 18.925-5.9558 23.784 0.49322 4.8586 1.8211 11.778-2.6634 14.321-4.4974 2.542-9.9581 6.9199-14.322 0.48184-4.3631-6.4244-3.3994-19.046-2.542-25.724 0.84226-6.679 3.5208-23.664 3.5208-24.386z" fill="#d7a400"/>
  <path d="m64.016 48.546-20.532-0.26558c0 0.72085-2.6634 17.708-3.5208 24.386-0.84226 6.679-1.8211 19.3 2.5572 25.725 1.3658 2.0222 2.8493 2.9859 4.3768 3.2515-6.4646-6.5852 1.3241-42.616 17.119-53.083" fill="#b08600"/>
  <path d="m101.73 23.386c1.9425 0.22764 11.404 2.4244 10.44 3.3994-0.97885 0.96368-10.681 4.2428-10.681 4.2428z" fill="#eeeeef"/>
  <path d="m109.31 28.178c-2.6786-0.30352-5.26-0.91056-7.6559-2.3826l-0.1897 5.2331s4.6442-1.5669 7.8297-2.8493" fill="#c8c9ca"/>
  <path d="m83.166 23.994c2.303 0.97885 5.3404-0.48184 8.1245-1.8211 2.7962-1.3393 8.8601-1.6997 10.199 0.48184 1.3393 2.1816 2.7431 8.4189-0.84226 10.56-2.5572 1.5138-12.019 1.6997-15.539 3.039-3.5208 1.3241-8.8605 6.6657-11.162 9.9448-2.303 3.278-4.8586 2.6748-8.9811 3.3994-4.1222 0.72465-6.7992 6.1838-12.621 4.3635-5.8223-1.8211-8.8605-2.0601-12.006-10.667z" fill="#d7a400"/>
  <path d="m60.685 42.597c2.7962-4.417 6.7859-3.5588 12.381-8.0706 2.4509-2.1815 3.6536-5.2869 5.3268-8.3787l-38.065 17.145c3.1604 8.6063 6.1967 8.8472 12.019 10.668 2.5951 0.81571 4.5642 0.1897 6.3174-0.84226-1.1913-2.9328-0.77777-6.103 2.0222-10.52" fill="#b08600"/>
  <path d="m100.64 9.9173c-0.97885 1.8211-41.13 16.864-50.847 19.903-9.7039 3.039-17.587 4.0019-23.048 7.2811-5.4873 3.278-6.9195 13.826 1.9425 11.042 8.8605-2.7962 57.272-26.822 73.052-31.186 8.5392-2.3674 11.243 5.367 24.507 1.2179 20.143-6.3174 22.566-17.6 18.926-22.218-5.8488-7.4013-21.227-7.7629-32.029-2.303-8.0038 4.0417-9.8375 11.283-12.501 16.262" fill="#c6dcdb"/>
  <path d="m146.04-2.5263c-2.3295 8.6196-12.447 13.679-21.71 16.476-9.2619 2.7962-13.572 0.22764-18.631-0.42872-5.0593-0.64118-19.501 6.4646-22.646 7.6692 0-1.2293 1.2179-2.0753 0.34145-3.039-0.85744-0.97885-11.577 3.8145-16.998 5.809 2.3561 3.9882-3.4677 6.3576-3.4677 6.3576s-1.3393-1.5517-2.3561-4.2296c-4.6575 1.6732-8.5392 3.0238-10.787 3.7333-2.3561 0.73603-4.6044 1.3393-6.7457 1.9008 1.4872 3.3311 0.07591 5.5946-3.8012 6.9999-3.8684 1.3924-16.048 5.3807-16.316 8.3919 0.86883 1.3658 2.6899 1.9805 5.7418 1.032 8.8605-2.7962 57.285-26.822 73.052-31.186 8.5528-2.3675 11.256 5.3541 24.52 1.2065 18.19-5.7016 21.937-15.459 19.796-20.692" fill="#a7bab9"/>
  <path d="m69.053 22.774-7.4416 2.9441-2.2347-4.6442c0.61463-2.1816 1.3393-7.8835 4.0156-9.5833 2.6634-1.6997 7.6422-4.0019 10.426-2.303 2.7962 1.6997 10.199 8.3787 10.078 10.199-0.11381 1.8211-1.8211 9.9445-3.278 11.885-1.4569 1.9425-9.3423 5.0995-10.44-0.3794-1.0851-5.4607 0.85745-7.1608 0.85745-7.1608z" fill="#d7a400"/>
  <path d="m39.396 32.695c0.72465-3.1604 1.5404-13.197 4.9386-15.62 3.3994-2.4244 7.5224-4.4837 10.922-1.4607 3.3994 3.039 7.6426 12.983 7.522 14.923-0.11381 1.9539-1.5783 8.1377-3.039 10.319-1.4455 2.1816-4.4838 2.9176-6.6653 1.9425-2.1816-0.96368-4.497-0.96368-2.4358-7.4017-1.4455-3.039-2.6368-1.6997-3.3729-4.6177z" fill="#d7a400"/>
  <path d="m74.362 22.674c0-2.0488-6.8929-5.809-9.0479-7.5353-2.155-1.7263-1.0054-4.2295-1.9274-3.6422-2.6634 1.6997-3.3994 7.4017-4.0019 9.5833l2.2233 4.6442 7.4419-2.9441 1.9805 0.96368s-1.9387 1.6997-0.84226 7.1608c0.48183 2.4623 2.3674 3.1718 4.4037 3.039-5.5009-1.3658-0.22763-9.2221-0.22763-11.27" fill="#b08600"/>
  <path d="m53.038 40.766c-0.85745-1.7263 0.11381-2.5837 0.42872-4.8453 0.30352-2.2612 0.11381-3.775-4.31-9.0476-4.4166-5.2736-4.4299-10.078-4.8184-9.7976-3.3994 2.4244-4.2159 12.461-4.9386 15.62l7.8699-1.916c0.73603 2.9176 2.2233 3.0921 3.3729 4.6177-2.0601 6.4377 0.22764 6.4377 2.4357 7.4013 0.97885 0.4401 2.1133 0.5084 3.2135 0.26559-1.2065-0.3794-2.6634-0.85745-3.2515-2.3143" fill="#b08600"/>
  <path d="m110.59 193.37c0-2.007 1.4341-4.0152 1.4341-4.0152s16.048-7.1608 23.208-8.0175c8.0175 2.2878 15.178 3.4412 16.329 11.457 1.1382 8.0308 1.1382 21.482-1.1496 23.784-2.2878 2.2878-11.738 8.2982-20.906 10.6-9.1682 2.2878-16.904 0-20.92-5.1667z" fill="#d7a400"/>
  <path d="m123.47 218.13c-7.1338-6.2908-7.3478-19.474-7.5888-30.423-2.3295 0.96367-3.8547 1.6466-3.8547 1.6466s-1.4341 2.007-1.4341 4.0152l-2.007 28.643c4.0152 5.1526 11.752 7.4548 20.92 5.1526 4.9925-1.2444 10.065-3.6005 14.027-5.8621 4.9258-6.0765-16.021 0.40217-20.063-3.1718" fill="#b08600"/>
  <path d="m117.18 227.46c5.7286 0 12.033-4.0152 19.193-6.5852 1.1496 3.4412-6.0093 13.746-10.882 13.746-4.8719 0-8.3115-7.1608-8.3115-7.1608" fill="#d7a400"/>
  <path d="m135.77 224.64c0.64118-1.5252 0.91056-2.8758 0.60325-3.775-7.1604 2.5837-13.465 6.5985-19.193 6.5985 0 0 2.8379 5.8758 6.9999 6.973 2.6899-4.4033 8.4458-11.992 11.591-9.7972" fill="#b08600"/>
  <g fill="#ed8599">
   <path d="m128.69 193.49c-1.9956 1.2976-5.4876 8.5126-5.4607 10.105 0.0265 1.5935 2.5685 4.5775 2.4623 5.7953-0.22763 2.5572-2.9328 7.3346-2.9328 7.3346s1.6049 0.75121 3.4943 0.45528c0.99023-0.81572 2.5951-5.6216 2.9859-7.7898 0.37941-2.1702-1.7414-5.0593-1.9956-6.4111-0.26558-1.3658 4.5372-8.4056 4.5372-8.4056s-2.8758-1.1116-3.0921-1.0851"/>
   <path d="m138 192.51c-1.859 1.2179-4.8852 7.1608-4.8586 8.6461 0.0269 1.4986 2.3826 4.31 2.2878 5.4474-0.22765 2.4092-2.7317 6.8796-2.7317 6.8796s1.4872 0.70948 3.2401 0.42873c0.92194-0.7626 2.4244-5.2733 2.7696-7.308 0.37939-2.0336-1.6049-4.7512-1.8477-6.023-0.22764-1.271 4.0019-7.0534 4.0019-7.0534s-2.6634-1.0434-2.8645-1.0168"/>
   <path d="m146.62 192.12c-1.658 1.1496-4.1491 6.0632-4.1226 7.4685 0.0269 1.419 2.1398 4.0554 2.0488 5.1261-0.1897 2.2612-2.4357 6.4782-2.4357 6.4782s1.3393 0.65637 2.9062 0.40216c0.81571-0.72085 2.155-4.9656 2.4775-6.8796 0.30352-1.9122-1.4455-4.4701-1.658-5.6614-0.1897-1.2027 3.3577-5.9828 3.3577-5.9828s-2.394-0.97886-2.5685-0.94851"/>
  </g>
  <path d="m74.561 217.07c0.11381-3.7219 0.8157-10.226 4.2963-12.086 3.4791-1.8477 14.643-4.9922 19.394-7.7762 4.7649-2.7848 9.1815-7.6692 13.358-3.6005 4.1893 4.0691 5.6883 7.3213 3.7219 14.99-1.9805 7.6559-1.7414 10.212-5.5813 12.769-3.8278 2.5572-7.2006 3.9484-12.421 7.4283-2.4775 1.658-7.9902 8.3252-11.096 4.39z" fill="#d7a400"/>
  <path d="m84.785 217.07c-4.8051-0.80432-7.3748-4.5774-8.4189-9.2619-1.3658 2.7848-1.7263 6.6922-1.8059 9.2619l11.671 16.115c3.1035 3.9484 8.6196-2.7317 11.096-4.3764 5.2202-3.4943 8.593-4.8855 12.434-7.4419 2.7848-1.8591 3.426-3.7333 4.3232-7.5755-9.8242-0.99023-19.26 4.7114-29.298 3.278" fill="#b08600"/>
  <path d="m103.06 299.55c2.1019 2.891 3.2401 11.818 1.2976 12.903-1.9425 1.0851-8.914-5.2869-8.914-5.2869z" fill="#eeeeef"/>
  <path d="m100.39 302.22-4.9523 4.9523s3.7219 3.6954 7.9503 5.7149c0.1897-0.68292 0.81572-1.271 0.94851-1.9008-2.3295-2.2878-3.6536-5.4607-3.9484-8.7668" fill="#c8c9ca"/>
  <path d="m70.482 218.1c-2.0488 1.6466-2.6217 9.9846-5.5142 14.455-2.891 4.4568-11.042 9.9847-10.52 18.644 0.53495 8.6731 0.64118 17.186 0.64118 17.186s-7.7363-7.4552-12.983-7.7231c-5.26-0.26557-12.876 1.0585-14.455 8.6731-1.5783 7.6157-1.5783 9.985 1.5783 10.775 3.1566 0.78915 9.4626 2.6217 9.4626 2.6217s-1.7794 3.0921-12.755 1.8477c-8.3787-0.94849-16.677-0.78915-17.989 8.6594-1.3127 9.463 3.9351 13.666 12.354 11.042 8.4052-2.6216 26.273-6.0499 33.1-6.0499 6.8258 0 15.178-0.94851 19.18 0.68292 2.9707 1.2179 10.962 8.4454 16.744 9.1951 3.6005 0.45529 12.019-2.2233 13.478-6.4513 1.3507-3.9215 1.5669-7.629-3.426-10.774-4.9925-3.1604-13.92-6.572-13.92-6.572s-4.9925-9.1951-5.26-16.289c-0.26558-7.0936 6.5716-15.245 7.629-23.65 1.0434-8.4052-2.1019-10.774-1.8477-14.455 0.26559-3.6688 2.6368-9.4493-1.8325-11.296-4.4705-1.8325-11.042-2.6216-13.666-0.52357" fill="#d7a400"/>
  <g fill="#b08600">
   <path d="m65.801 238.64c5.3537-6.8797 4.6177-14.442 6.7859-21.482-0.84226 0.1897-1.5669 0.50839-2.1019 0.93712-2.0601 1.6466-2.6368 9.9847-5.5275 14.455-2.891 4.4701-11.029 9.9847-10.507 18.658 0.48184 7.8433 0.61463 15.566 0.64118 16.958 2.3143 2.2612 5.7953 6.2502 8.9273 7.1471-2.5837-11.216-6.8527-27.184 1.7794-36.673"/>
   <path d="m21.593 296.32c0.42871-5.809-8.2982-9.1549-10.44-8.941-2.155 0.22765-3.1035 5.1667-3.1983 5.8758-1.3241 9.4493 3.9351 13.652 12.34 11.029 8.4052-2.6217 26.273-6.0363 33.113-6.0363 6.8262 0 15.178-0.9485 19.18 0.66775 2.9707 1.2179 10.962 8.4587 16.744 9.1951 1.9539 0.26558 5.3404-0.4401 8.258-1.7946-4.2694-0.58808-17.226-6.2237-21.937-8.3783-16.905-7.7629-54.488 4.1893-54.06-1.62"/>
   <path d="m30.694 280.42c3.1604 0.78916 7.9905 2.3144 7.9905 2.3144s-0.97885 1.6997-5.9828 2.0753c5.2331 2.0222 14.95 2.1436 16.703 1.2975-3.6954-4.9789-11.979-9.0612-14.562-9.9312-2.5837-0.85745-2.5572-8.3787-1.5138-14.295-3.1604 1.1496-4.8051 3.2135-5.6751 7.4552-1.5783 7.6157-0.11381 10.293 3.039 11.082"/>
  </g>
  <path d="m33.304 263.49c-3.0504-2.1133-16.316 0.85744-15.553 13.907 2.0753 0 6.9601-3.2401 12.742-3.6802 1.6314-0.11381 6.6653-7.5622 2.8114-10.226" fill="#eeeeef"/>
  <path d="m13 291.21c-3.5322-1.3658-11.43 3.3311-10.962 15.124 2.007-0.48184 7.9636-4.7516 13.478-6.5318 1.5669-0.49322 1.8477-6.8929-2.5154-8.5926" fill="#eeeeef"/>
  <path d="m17.635 275.88c-0.11381 0.55012 0.22763 1.0433 0.11381 1.6314 2.0753 0 6.9468-3.3463 12.729-3.7864 0.91056-0.0759 2.8645-2.394 3.775-4.9121-7.0671-0.57668-12.916 1.7794-16.623 7.0671" fill="#c8c9ca"/>
  <path d="m15.352 293.07c-4.6845 0.61463-8.7266 2.7962-11.939 5.996-0.7626 2.0336-1.271 4.4572-1.3772 7.2678 2.0222-0.48183 7.9636-4.7512 13.491-6.5181 1.1761-0.38699 1.62-4.2026-0.1897-6.7457" fill="#c8c9ca"/>
  <path d="m137.18 87.683c3.1452-2.4775 25.819-20.826 25.109-17.279-0.48184 2.3826-10.333 34.92-10.333 34.92s12.648 19.796 10.975 22.178c-1.6732 2.3826-15.646 4.7649-16.503 8.0577-0.70948 4.5236 1.7946 17.373-0.34146 20.237-2.1398 2.8645-4.9925 5.2733-6.9066 5.2733-1.9008 0-8.6731-4.9523-9.6231-6.6251-0.95229-1.6732-2.8114-17.105-7.8168-18.778-5.0054-1.6732-29.86-3.9351-33.434-4.1089-3.9219-0.1897-5.1799-5.4876 3.6536-24.908-7.388-10.493-25.591-45.199-22.245-45.199 3.3311 0 39.096 19.795 46.966 24.092 10.493-2.6254 20.505 2.1398 20.505 2.1398" fill="#d7a400"/>
  <path d="m136.07 153.73c-3.1187-1.62-7.7496-17.44-11.203-19.167-3.4412-1.7263-23.369-6.6251-27.13-9.8242-3.775-3.2135 4.7383-22.914 5.809-28.95-1.4038-7.2143-26.608-17.132-33.956-32.082 2.1398 7.9101 16.222 34.05 22.486 42.937-9.6098 20.598-7.6961 24.721-3.775 24.908 3.5739 0.1897 28.04 2.2764 33.22 4.1089 5.0327 1.7794 7.0804 17.105 8.0308 18.778 0.9485 1.6732 7.7227 6.6251 9.6231 6.6251 1.9122 0 4.7649-2.4092 6.9066-5.2733 0.3794-0.48184 0.72086-3.278 0.86882-4.2163-5.2869 6.2506-7.7629 3.775-10.882 2.155" fill="#b08600"/>
  <path d="m148.07 99.091c1.5138 2.4358 2.2233 3.5588 4.176 5.5411 0.61462-2.1815 3.9617-14.174 6.6384-23.717-7.1737 6.7992-12.862 14.87-10.814 18.176" fill="#b08600"/>
  <path d="m148.86 115.54c0.70948 0.70948 2.6216 3.8547 2.6216 5.7551-3.3311 2.6216-7.8566 5.7286-7.8566 5.7286 0.22764-3.0656 2.1284-7.4283 5.2334-11.484" fill="#fff"/>
  <path d="m148.86 115.54c-2.7848 3.0769-4.3635 6.7859-4.9254 9.9847 1.768-2.9973 4.2026-7.0132 6.1702-8.2045-0.55012-0.99023-0.93711-1.4721-1.2444-1.7794" fill="#dcdddd"/>
  <path d="m110.24 120.73c6.5048 2.69 18.751 6.4915 18.751 6.4915-2.1284-4.6579-10.922-13.157-17.453-15.928 0 0-2.3826 6.4915-1.2975 9.436" fill="#fff"/>
  <path d="m126.96 126.54c1.2596 0.34145 2.0336 0.5615 2.0336 0.5615-2.1284-4.6446-10.467-12.581-17.4-15.807 0 0-0.49322 1.0016-1.032 2.8645 6.652 2.1019 12.247 6.759 16.396 12.381" fill="#dcdddd"/>
  <path d="m132.89 97.697-2.1967 4.3635s-4.4837 1.5935-5.1928 1.8325c2.8645 1.9122 4.0554 3.3463 4.0554 3.3463l-0.22764 4.7649 5.0058-3.574 5.2467 2.6217-1.4341-5.2467 1.9008-2.155-4.283-1.6618z" fill="#ed8599"/>
  <path d="m127.41 134.65c-8.5794 4.524-39.43 22.901-42.295 52.949 2.5837-4.31 5.3404-6.9332 5.3404-6.9332s-2.6482 13.023 0.85745 22.352c-0.26558-5.8223 10.908-47.18 37.396-64.004z" fill="#d7a400"/>
  <path d="m88.9 177.64c-0.11381-1.4038 4.7114-12.26 7.4017-16.905-5.7957 7.7227-10.012 16.088-11.029 26.702 2.3143-4.3631 5.1796-6.7723 5.1796-6.7723s-3.0921 13.424 0.58807 22.258c0.22764-10.52-1.9273-13.438 3.0238-28.081 0.57669-1.7149-5.0593 4.2026-5.1663 2.7962" fill="#b08600"/>
  <path d="m146.43 135.94 0.58807-1.1382c15.539 6.0366 34.278 22.352 32.845 40.14-1.1913-3.5739-4.0554-9.3021-4.0554-9.3021 0.86883 1.2596 2.007 10.253-1.5518 17.052-1.3924-9.8777-6.1967-33.755-27.665-44.008z" fill="#d7a400"/>
  <path d="m174.3 161.6c0 2.5837 1.2179 8.7 0.22763 8.0171-0.97885-0.6943-6.545-11.738-11.163-16.637 7.9238 10.989 9.8242 23.731 10.948 29.499 4.4838-9.864 1.4986-16.824 1.4986-16.824s2.8531 5.7153 4.0421 9.3021c0.26557-3.278-0.0759-6.3576-0.91056-9.2619-1.2444-1.2596-3.6271-2.7317-4.6442-4.0956" fill="#b08600"/>
  <path d="m110.93 1.8319c-0.22763-0.37941-0.30352-0.8309-0.1897-1.3772 0.26557-1.3241 1.5138-2.8114 3.2135-3.9082 2.4889-1.5935 5.3139-1.8591 6.1706-0.57669 0.22765 0.3794 0.30352 0.83088 0.1897 1.3772-0.26557 1.3241-1.4986 2.8114-3.1983 3.9082-2.4889 1.5935-5.3135 1.8591-6.1702 0.57669" fill="#e4eeee"/>
  <g fill="#0f141b">
   <path d="m144.33 267.54c-2.4092 2.4092-1.7794 3.5056 1.1913 3.6688 3.278 0.0379 4.524 0.11381 6.8929 0l-0.18969-1.5783c-0.86883-0.11381-7.1471 0.38699-7.2947-0.30352-0.11381-0.85745 2.9328-2.5306 5.595-4.1358l-0.11381-2.0867c-2.3409 1.4038-4.6177 2.9973-6.0765 4.4568"/>
   <path d="m205.74 283.06c-4.3096 0.22763-5.8625-2.0222-7.6692-4.631l-0.97885-1.3658c-2.4775-3.3046-9.2354-4.8184-15.526-5.8625-6.3974-1.0699-11.497-1.3658-20.09 0.15177-6.8929 1.2065-7.9101-0.53495-9.2084-2.7431l-0.68292-1.123c-1.3127-1.9691-0.18971-3.8547 2.0222-6.2639 0.70949-0.75122 5.4474-0.60325 7.4818-0.58807-1.5935 2.0867 0.11381 1.3658 2.8645-0.68292 6.759-5.0456 6.4377-10.252 4.7782-13.023-1.7794-2.9707-1.9956-5.046-0.75122-7.1741 0.85745-1.4455 1.123-3.4146 1.3658-5.1397 0.18971-1.3658 0.91056-3.426 1.3507-3.9882l-1.7414-0.30352c-0.70947 0.89538-0.91056 2.3674-1.1496 4.0823-0.22765 1.5935-1.2976 3.8816-1.9956 5.0593-0.68293 1.1496-0.78916 2.4092-0.78916 3.6119 0 1.5783 1.1913 2.6786 2.3826 4.6579 0.60326 1.0054 0.8954 2.0336 0.8954 3.0921 0 2.3826-1.5252 4.8988-4.5372 7.5087-1.2596 0.65636-3.3046 0.64119-5.3002 0.6298-2.4775-0.0269-5.6618 0.0379-6.8394 1.3127-1.5404 1.6731-3.0655 4.417-2.4509 6.3842 0.61462 1.9691 1.5935 3.3198 1.5935 3.3198 1.4038 2.3978 3.0124 4.31 10.975 2.9176 8.4322-1.4872 13.197-1.2179 19.568-0.15177 5.6348 0.93712 12.381 2.394 14.536 5.26l0.93712 1.3241c4.7649 6.8929 9.65 6.545 14.147 3.4412-0.52357-0.30352-0.66775-0.41354-1.2179-0.72465-1.1648 0.58807-2.5306 0.94849-3.975 1.032"/>
   <path d="m214.55 275.3s0.22764 1.3393 0.58807 2.0602c1.6049 0.66773 3.3046 1.0851 5.1663 0.15175 0.7626-0.38699 1.4607-0.94849 2.0488-1.5783-0.73605-0.1897-1.4872-0.26557-2.1967-0.56151-0.11381 0.0379-2.303 2.8227-5.6079-0.0759"/>
   <path d="m217.32 263.49c-3.3046-1.658-11.738-5.153-14.174-5.8223-2.8493-0.77776-6.3978-0.48183-9.5165-0.22764-1.9387 0.15176-3.775 0.30352-5.2198 0.1897l-1.4721-0.0759c-0.93711-0.0379-1.9008-0.11381-2.1132-0.26559-0.0137-0.0133 0.22764-2.8645 4.6173-8.0171 2.2233-2.5951 4.1628-5.0191 4.8184-6.4646 0.46667-1.0434 0.49701-2.0222 0.49701-3.0656 0-0.70947-0.34146-1.9122-0.40216-2.5685-0.0379-0.60326-0.0759-1.1761-0.0759-1.7414 0-0.70948 0.0759-1.3507 0.34145-1.9008l0.86883-1.62c1.123-2.007 2.3561-4.5911 2.3561-6.2506 0-0.55012-0.15177-1.0433-0.45529-1.4455-1.3127-1.6314-7.0132-5.1397-8.4052-5.4876-1.4607-0.3794-3.0656 0.50839-4.4302 1.6997l0.15176 2.1132c0.99023-0.86882 2.6748-2.0601 3.6422-1.8211 1.0585 0.26557 6.7727 3.4943 7.8433 4.8316 0.6298 0.80432-1.0965 3.9215-2.0336 5.6079l-0.91056 1.6732c-0.66773 1.3658-0.53495 2.9441-0.40216 4.4705 0.11381 1.4986 0.26558 3.0656-0.3794 4.4302-0.58807 1.3127-2.4623 4.0285-4.283 6.6384-2.7962 4.0421-3.6802 5.4209-4.2026 6.5318-1.5404 3.3577-0.22764 5.7953 0.22764 5.4205 0.46666-0.3794 0.41354-1.4038 0.41354-1.4038l3.6802 0.26558c1.5783 0.11381 3.4677-0.0379 5.4607-0.1897 2.9973-0.26557 6.3978-0.55012 8.9808 0.15177 2.3143 0.64118 10.065 4.0019 13.251 5.5946 1.9425 0.96368 3.8547 2.0336 5.153 3.4146 0.60325-0.15177 1.6732 0.26557 2.3561 0.22763-1.4721-2.0336-3.8012-3.7485-6.1702-4.9254"/>
   <path d="m186.75 261.95c1.5669 1.4872 7.2678 2.9442 10.4 2.3295 2.0753-0.41354 7.6024 3.8684 9.2619 5.1932 1.6466 1.3241 3.7864 2.7317 3.7864 2.7317 2.0488 1.3127 3.4525 2.4509 3.3463 3.841l1.5935-0.0379c0.15176-1.916-1.123-2.9973-3.3311-4.4037 0 0-2.3409-1.768-4.4033-3.3311-2.0753-1.5518-7.3349-5.9293-9.784-5.4342-2.7696 0.55014-9.6102-1.2065-10.373-1.5935-0.76259-0.38699-1.0965 0.15175-0.49322 0.70947"/>
   <path d="m212.89 274.48m-4.1624 2.3143c1.1382-1.0168 2.5572-1.4038 3.7067-1.0168 2.8114 0.97886 6.0363 9.6633 5.3401 10.105-0.58807 0.26558-8.8468-5.0995-10.453-5.7153-0.11382-0.99024 0.30352-2.3675 1.4038-3.3729m-1.0965-0.65636c-1.5252 1.3772-2.007 3.3577-1.62 4.6848 0.40216 1.3127 1.2976 0.8954 1.2976 0.8954 2.5951 0.97884 6.8929 3.13 9.3423 4.9121 2.3675 1.7149 2.4889 0.68292 2.2612-1.5669-0.6943-4.6446-3.0504-9.5567-6.023-10.587-1.6314-0.56151-3.7485 0.30352-5.26 1.658"/>
   <path d="m222.42 267.44m-4.8453 5.5544c0-0.91055 0.3794-1.8591 1.0433-2.6748 0.99023-1.1761 2.3409-1.7528 3.5322-1.5252 2.504 0.49322 7.1338 8.8203 6.6922 9.2486-0.48184 0.40216-9.3958-3.7864-11.109-4.1761-0.0759-0.30352-0.15176-0.57668-0.15176-0.86881m-0.22763-3.2249c-1.3241 1.5783-1.2179 3.8684-0.84228 4.9121 0.37941 1.0433 1.032 0.61462 1.032 0.61462 2.7696 0.61463 6.6118 1.9122 9.8507 3.3842 2.4244 1.1116 3.775 1.4455 2.0867-2.4775-1.5783-4.1761-4.1355-8.2045-7.0534-8.7668-1.6997-0.34147-3.775 0.77777-5.0726 2.3295"/>
   <path d="m32.236 215.3c-2.3826-14.201 1.0699-25.992 4.417-32.055 2.5837-4.6712 1.1648-4.2163-0.72086-0.92194-10.587 18.363-6.3712 43.352 4.7782 53.858-1.8325 3.8145-11.859 14.536-33.046 14.536-12.822 0-20.184-8.2182-23.436-13.117-3.574-5.3806-5.3537-12.354-4.5642-19.715 0.3794-3.4412 0.85744-2.4509 2.0867-1.233 9.463 9.3291 18.537 7.2678 22.165 5.2467 0 0 2.2764 3.2249 4.4974 5.5677 2.2081 2.3295 2.7848 1.9805-0.61463-2.9593-7.6157-11.055-13.277-30.891-1.768-52.373 13.625-25.457 42.87-27.09 57.272-20.773l-0.9485-1.8325c-18.256-8.0038-46.685-0.30352-58.356 21.469-9.7707 18.229-7.9636 36.633-1.032 49.241-3.4412 1.8591-12.448 1.5935-19.354-4.5775-4.6712-4.1757-4.8316-4.8582-5.5681 0.7626-2.3561 17.842 9.1549 35.683 29.62 35.79 16.918 0.0759 28.294-6.0765 33.983-14.883 2.8645 2.8645 6.679 6.2639 12.207 10.078 0.22763-0.69431 0.44009-1.419 0.57668-2.1019-11.243-6.7324-19.943-16.637-22.191-30.008"/>
   <path d="m149.77 223.71c-14.495 27.746-41.063 35.255-65.69 31.748 0.26558 0.92194-0.22764 1.5935-0.61462 2.155 26.729 4.0285 52.159-3.4677 67.685-33.18z"/>
   <path d="m38.81 187.9c-5.26 11.645-8.0171 30.289 5.4876 51.128 0.56151 0.84227 2.652 1.916 2.652 1.916-15.151-21.428-11.939-40.06-6.5852-51.905 8.0175-17.721 25.283-30.008 36.673-31.212l-0.11381-1.123c-11.698 1.2444-29.927 13.103-38.105 31.199"/>
   <path d="m54.223 197.61c-4.8051 10.172-8.0307 26.26 1.0965 46.551l1.032-0.46666c-8.9675-19.889-5.2331-35.95-0.53495-45.908 6.9199-14.669 19.434-23.811 28.776-26.354l-1.6049-1.032c-9.5833 2.6103-21.696 12.22-28.763 27.211"/>
   <path d="m178.6 179.23-1.7794-4.3768-0.64118 2.504 1.2596 2.4358c0.80433 1.658 1.0699 2.8227 2.6634 4.6442 0.34146-0.30352 0.93712-0.38699 1.271-0.70948-1.3393-1.5783-2.0222-2.9593-2.7696-4.497"/>
   <path d="m172.53 189.84c-1.2444-4.1624-2.9859-6.7992-12.26-11.885l-0.65637 1.032c8.5259 4.6712 10.868 8.5392 11.671 11.229 0.26559 0.83089 0.50841 1.6732 0.97886 2.542 0.22764-0.60325 0.49701-1.2065 0.62981-1.7794-0.15177-0.3794-0.22765-0.75122-0.37941-1.1382"/>
   <path d="m174.15 141c-3.3729-3.9484-11.484-5.809-26.729-6.2237 0.53496 0.48184 2.7848 1.4872 2.891 1.4872 11.002 0.11381 19.046 2.3561 22.365 5.8488 1.3241 1.3924 2.2347 5.4876 1.419 13.598 0.61462 0.42872 1.4038 1.8059 1.8325 2.4357 0.86883-9.7437 0.49702-14.495-1.7794-17.145"/>
   <path d="m168.9 176.07c-2.0336 1.5669-3.8145 1.9008-7.3346 1.0851l-1.2596 1.5252c3.9348 0.92193 7.6422 0.34145 10.038-1.5138 0.83088-0.64118 1.5404-1.4455 2.1132-2.3561-0.26557-0.86883-0.60324-1.7794-0.70947-2.652-0.70948 1.62-1.6314 2.9707-2.8493 3.9082"/>
   <path d="m228.64 151.81c-2.2612-1.0433-9.8777-0.96366-11.925 2.7962l-1.233 2.4509c-0.26559 0.53495-0.52358 1.0699-0.78916 1.5935-1.4721 2.7962-4.3768 6.0097-6.8531 7.9636-0.884 0.6943-1.5518 1.62-2.5837 0.26558-0.58807-0.77777-0.73605-2.0336-0.73605-2.9859 0-0.52357 0.027-1.1116 0.0379-1.768l0.0266-0.42871v-0.18971c0-1.1382-0.53495-2.155-1.5518-2.9593-0.65636-0.50839-1.5138-0.91055-2.4357-1.1648-0.15177 0.45529-0.65637 0.91056-0.91056 1.3658 0.92194 0.1897 1.768 0.55013 2.3826 1.032 0.66774 0.52358 0.99023 1.1382 0.96367 1.8325l-0.0269 0.41354c-0.0759 1.7263-0.30352 3.7598 0.6298 5.3135 0.84228 1.4341 2.007 1.6731 3.2249 1.3127 1.9273-0.55014 3.9621-2.5837 5.073-3.6802 2.0336-2.007 3.5208-4.3498 4.7512-6.9062 0.0759-0.11381 0.11381-0.22763 0.1897-0.3794l0.85744-1.6997c1.5404-2.8227 8.5657-3.6005 10.252-2.8227 1.8591 0.85744 5.2065 3.6422 4.6712 8.071-0.0266 0.22764-0.0759 0.40216-0.11381 0.60325 0.18969 1.0585 0.38698 1.9425 0.37939 2.8227 0.72087-0.89539 1.1496-2.155 1.2862-3.2401 0.6412-5.3139-3.3463-8.6465-5.5544-9.6637"/>
   <path d="m191.25 163.68c-0.0759-0.0379-0.26558-0.15177-0.26558-0.52357 0-0.11381 0.0132-0.22765 0.0379-0.3794 0.58807-2.7696 7.2408-9.3693 9.2482-8.914 0.50839 0.0759-1.2862 6.3307-1.5518 8.1377-1.6049 0.99024-5.5142 2.9024-7.4818 1.658m8.1912-10.962c-4.6712 1.62-9.1951 7.602-9.6637 9.8105-0.30352 1.3393 0.3794 1.9805 0.77777 2.2498 3.1718 1.9956 7.629-0.68292 9.1147-1.806 1.4872-1.1382 0.42872-1.1913 0.42872-1.1913 0.64119-2.1702 0.96368-4.4303 1.4455-7.1741 0.3794-2.1398-0.6943-2.3826-2.1019-1.8856"/>
   <path d="m230.31 161.54c1.1761 0.41354 1.9273 0.99023 2.0336 1.6049 0.37941 2.1398-3.8949 7.2678-5.0726 7.0136-0.37939-0.15177-1.4303-7.415-1.8059-8.8738 0.84227-0.34146 2.9176-0.41355 4.8453 0.26557m-5.8758-0.83088c-1.1382 0.65637-0.84227 0.91056 0.15176 0.81571 0.0133 0.0379 0.96368 4.4033 1.5404 7.602 0.3794 2.0867 0.66774 2.4623 3.0921 0.86881 2.5951-1.7149 4.4037-5.2202 4.0823-7.0003-0.1897-1.1116-0.99023-1.9008-2.6786-2.4889-2.1398-0.75121-4.5638-0.76259-6.1834 0.1897"/>
   <path d="m236.05 190.91c1.1116 0.66775 1.233 1.1761 0.96367 2.3295-0.6298 2.5951-5.3135 6.0499-5.8223 5.7688-0.40216-0.26557 0.5084-4.2963 0.15176-8.0038 1.2444-0.8157 3.3994-0.89538 4.7247-0.0759m-5.9023-0.72085c-0.7626 0.48182-0.1897 0.68291-0.1897 0.68291 0.0132 0.0379 0.57668 4.31 0.37939 7.1874-0.18969 2.303 0.45528 2.504 2.5685 1.2065 6.7996-4.1893 5.8223-8.2447 3.8281-9.4626-1.9122-1.1648-4.5107-0.89537-6.5716 0.38699"/>
   <path d="m172.09 210.44c4.9656 4.283 8.7133 7.8433 11.35 8.7668 0.40216 0.15176 0.61463 0.3794 0.70948 0.77777 0.45528 1.9956-2.3409 6.3307-3.1035 7.1073-0.75122 0.73604-9.0346 3.6119-12.796 1.7946-4.0152-1.9274-14.857-5.7418-19.3-6.3709-2.5306-0.37939-4.2163-1.1496-5.0191-2.3561l-1.2862 0.86882c1.0434 1.5783 2.7431 2.8379 5.7286 3.2515 4.2296 0.61462 15.352 4.1628 19.206 6.0097 4.3365 2.0867 13.184-0.72086 14.562-2.1019 0.91056-0.92194 4.1624-5.7286 3.5208-8.5524-0.22764-0.92193-0.80433-1.5783-1.7149-1.9008-2.3409-0.8157-6.3709-3.8813-10.814-8.4454-10.346-10.641-16.062-12.18-20.84-12.18v1.5518c4.1089 0 8.6864 2.1967 19.796 11.778"/>
   <path d="m81.793 167.9c-1.6997-2.4357-2.4244-7.3213-3.2932-10.788-0.46667-1.8325-3.2515-2.1019-2.7848-1.0585 1.5404 3.388 2.6748 10.761 4.5505 13.425 1.5404 2.2081 4.3768 4.5774 7.4283 6.5985 0.30351-0.58807 0.49701-1.1761 0.52357-1.9274-2.652-2.0222-5.0726-4.3233-6.4244-6.2506"/>
   <path d="m105.26 185.61c-1.6049-1.8742-3.3994-3.9617-7.308-5.9695-0.0379 0.49321 0.15175 1.233 0.15175 1.8325 3.0504 1.7149 4.5372 3.4525 5.9964 5.1397 1.5935 1.859 3.4943 3.2401 7.0132 4.8852 0.26557-0.45529 0.37939-0.37941 0.52357-0.84228-3.2932-1.4986-4.7918-3.2249-6.3576-5.046"/>
   <path d="m163.6 153.45c-0.11381-0.49322-1.8856-2.7431-1.8856-2.7431 3.8012 14.723 4.9121 18.163 2.2878 21.977-2.7051 3.9219-12.554 13.585-13.933 15.553 0.15175 0.46666 0.22764 0.57669 0.4401 0.99023 1.7149-2.7848 13.411-13.786 14.696-15.807 1.9274-3.039 2.2347-8.9808-1.6049-19.969"/>
   <path d="m102.45 132.98-1.62-0.30351c0.1897 1.1648 0.37939 2.8379 0.37939 3.8945 0.1897 11.39-14.562 21.455-16.008 20.733-1.1496-0.57669-3.3311-1.032-6.6255-1.7149-2.7431-0.56151-6.1432-1.2596-10.413-2.4509-8.8468-2.4775-13.679-22.847-14.107-30.53v-0.30352c0-2.2764 1.4038-4.524 3.5474-6.5716-0.30352-0.42872-0.7626-0.75122-1.032-1.2331-2.652 2.4092-5.2737 5.595-5.0995 8.7668 0.34146 6.2104 5.8758 28.455 16.275 31.373 4.3229 1.2065 7.7496 1.916 10.507 2.4775 3.4412 0.70948 4.7512 1.032 6.0897 1.5138-0.26558 0.34145-0.30352 0.57669-0.1897 0.70947 0.80433 0.97886 20.933-10.534 18.297-26.354"/>
   <path d="m68.746 108.85c3.1718-1.3241 10.868 1.8591 15.954 3.9617 1.8059 0.73604 3.3463 1.3772 4.3635 1.6883l0.91056-2.0488c-0.93712-0.26558-2.5572-0.41354-4.31-1.1382-5.6481-2.3409-13.746-5.474-17.52-3.8949-0.37941 0.15177-0.99024 0.42872-1.7528 0.78915 0.26558 0.37941 0.55012 0.83089 0.8157 1.3241 0.52357-0.22764 1.032-0.46666 1.5404-0.68291"/>
   <path d="m59.871 126.36c-0.26558-0.65637-0.15177-1.4455 0.3794-2.3675 0.34146-0.6298 0.85745-1.2862 1.4721-1.9425-0.45528-0.38698-0.76259-0.84226-0.93711-1.4038-0.81571 0.78916-1.4873 1.5935-1.916 2.3712-0.64118 1.1648-0.78915 2.3409-0.41354 3.2401l2.1398 3.7864c1.4872 3.187 1.2976 7.5356 1.2444 8.4993-0.07591 0.97505 0.22764 1.4455 0.78916 0.0759 0.57669-1.3393 0.96367-5.5009-0.66775-8.9675z"/>
   <path d="m81.711 117.55c-2.3674-1.5669-4.2026-5.5544-7.3345-4.9254-0.52357 0.11381-1.768 0.57668-3.3463 1.3241 0.22763 0.30352 0.34145 0.77777 0.49701 1.1761 1.4721-0.7626 2.6368-1.2596 3.1187-1.3393 1.3241-0.22763 1.8059 0.34147 3.278 1.62 0.78915 0.6943 1.768 1.859 3.4677 2.743 1.6997 0.89538 2.007 0.5084 0.30352-0.60324"/>
   <path d="m58.796 96.864c1.3127 0.86883 2.0222 2.3409 2.6103 4.0554 0.30352 0.93712 0.69431 2.007 1.2444 3.1073 1.7414 3.4677 9.6902 13.224 9.7707 13.317 0.55012 0.65637 0.34145 1.4986 0.07591 2.1019-0.83088 1.8477-3.4943 3.8945-6.13 3.9882-1.8742 0.0759-3.3463-0.85743-4.3631-2.7317-2.652-4.8988-6.3576-9.5567-9.677-12.14l-1.3658-1.0434c-3.039-2.2878-6.4783-4.8852-5.6618-7.0402l-1.4569-0.55012c-1.2179 3.2515 1.7528 5.9293 6.1835 8.8336l1.3507 1.032c3.1073 2.4244 6.7457 6.9866 9.2619 11.645 1.2862 2.3826 3.9219 3.6271 6.3713 3.5474 3.3577-0.15175 5.8621-2.5951 6.9062-4.9121 0.6298-1.4076 0.52357-2.7165-0.30352-3.7219-1.5517-1.8856-8.1377-10.119-9.5833-13.023-0.50839-1.0054-0.84226-1.9805-1.1648-2.9176-0.6298-1.8325-1.4721-4.1093-3.2249-5.2737z"/>
   <path d="m57.864 96.876c0.15177 0.91055-1.3393 4.0421-3.9082 5.4205-2.1284 1.123-4.0823 0.85745-6.1569-1.123l-0.85744 0.42873c2.9973 2.8796 5.916 2.69 7.6426 1.768 2.7582-1.4721 4.3768-5.1932 4.1222-6.6387z"/>
   <path d="m38.603 72.808c-1.0965 8.5794-0.92194 19.836 3.2666 26.006 4.3096 6.3439 9.8375 3.039 13.866 0.6298l1.4872-0.86883c4.4705-2.542 3.775-8.6329 3.2249-13.518l-0.1897-1.5517c-0.46667-4.6712 3.426-18.377 5.8758-23.369l1.6845-3.3311c1.9008-3.6688 3.278-6.3041 2.7317-8.3654l-1.4986 0.38699c0.38699 1.4872-0.93711 4.0421-2.6103 7.2678l-1.6997 3.3577c-2.5837 5.2733-6.5185 19.22-6.023 24.199l0.1897 1.5783c0.49701 4.4302 1.123 9.9577-2.4623 11.992l-1.5138 0.88399c-4.2698 2.5572-8.2982 4.9656-11.778-0.15176-3.0504-4.4974-3.9082-13.452-2.4244-25.189 0 0 3.6802-22.539 3.6802-22.887l-1.6997-1.62c-0.02661 0.41354-4.1089 24.56-4.1089 24.56"/>
   <path d="m101.65 24.028c2.0488 0.26558 9.6098 1.7263 9.6098 2.5837 0 0.55014-4.6844 1.6466-8.7668 3.0238l-0.80433 2.007c1.6466-0.55014 9.2888-2.9973 10.814-4.0554 1.5252-1.0433 1.4721-1.3507-0.42873-2.1702-2.8493-1.2179-10.158-2.6634-10.266-2.6786z"/>
   <path d="m84.539 37.362c2.8493-1.2179 15.499-2.5306 16.998-3.426 1.2179-0.72086 1.8211-2.0753 2.2081-3.6271 0.73604-2.9859-0.61462-6.4513-1.5935-8.0577-1.6732-2.7431-8.3521-2.1398-11.19-0.77777-2.5951 1.2444-5.5142 2.6368-7.495 1.8059l-0.60325 1.4303c2.6217 1.0965 5.8758-0.45528 8.7402-1.8325 2.7317-1.2976 8.2311-1.4303 9.2217 0.1897 0.84227 1.3924 1.7149 4.6044 1.1116 7.0136-0.26558 1.123-0.84227 1.9691-1.6997 2.4623-1.233 0.73603-4.7114 1.1761-7.7898 1.5783-3.039 0.38698-7.281 1.2293-8.994 1.8742-3.8012 1.4455-7.8433 6.4912-10.146 9.757-1.5783 2.2347-3.187 2.4244-5.8355 2.7165l-2.652 0.3794c-1.7263 0.30352-3.187 1.3393-4.6044 2.3295-2.2498 1.5783-4.3768 3.0769-7.6422 2.0601l-1.3658-0.41354c-4.9254-1.4872-7.3881-2.2347-10.158-9.7843l-1.4607 0.53495c1.032 7.1202 4.8855 9.4759 9.9448 11.002l1.3507 0.41355c4.0019 1.2444 7.8699-0.89539 10.226-2.542 1.3393-0.93711 2.5951-1.8211 3.9886-2.0753l2.542-0.34146c2.7696-0.30352 5.9562-0.45528 7.937-3.2666 0 0 4.2026-7.3615 8.9542-9.3958"/>
   <path d="m50.092 38.049c-10.065 4.5907-18.47 8.3919-21.629 9.3958-1.8477 0.57669-4.2159 0.86883-5.0859-1.0433-0.1897-0.45528-0.30352-1.0054-0.30352-1.6049 0-2.3674 1.5138-5.5411 4.0421-7.0671 3.4412-2.0601 7.9905-3.2135 13.277-4.5638 2.3295-0.58807 4.9121-1.2596 7.6422-2.0488-0.22764-0.4401-0.46667-0.884-0.72086-1.3127-2.5837 0.74742-5.0593 1.3772-7.2943 1.9425-5.3806 1.3658-10.681 2.4092-14.308 4.5907-2.8227 1.6997-4.5907 5.9027-4.5907 8.9007 0 0.80432 0.15176 1.5669 0.4401 2.2347 0.48184 1.0585 1.8742 3.1718 6.6387 1.6731 3.1718-1.0054 11.859-4.9121 21.79-9.4361 0.07591-0.55012 0.11381-1.1116 0.11381-1.658"/>
   <path d="m62.711 32.289c0.0379 0.53495 0.0379 1.0699-0.02695 1.62 2.4092-1.0965 4.832-2.1967 7.2545-3.278 0.02696-0.55014 0.07591-1.1116 0.11381-1.658-2.4471 1.0965-4.9117 2.2081-7.3478 3.3197"/>
   <path d="m146.7-5.2219c-6.3709-8.0706-24.159-7.0671-34.639-1.768-6.6387 3.3577-9.2888 9.5567-10.212 11.524-0.92194 1.9691-1.0585 4.6177-3.1187 5.916-2.0488 1.3127-7.2943 3.1187-16.61 6.7594 0.22764 0.45528 0.4401 0.91055 0.58807 1.3658 9.784-3.8012 13.786-5.5009 16.208-6.8129 2.4244-1.3127 2.6368-2.3295 3.9351-4.711 1.2976-2.3826 4.4303-9.6102 10.627-12.742 11.216-5.6747 25.765-4.6845 31.118 2.1019 1.3127 1.6731 1.62 4.0823 0.83088 6.6251-0.85745 2.7696-4.4705 9.7574-19.394 14.429-7.2276 2.2612-11.082 0.93711-14.803-0.34146-2.9441-1.0054-5.7286-1.9691-9.6902-0.86883-4.2963 1.1913-11.002 3.841-18.658 7.0936-0.07591 0.58807-0.30352 1.5138-0.46667 2.1019 7.9769-3.426 15.111-6.5583 19.514-7.7762 3.5322-0.97506 5.367 0.52356 8.2045 1.4986 3.7598 1.2976 8.8874 2.542 16.57 0.15177 15.031-4.7114 19.969-12.956 21.12-16.69 0.92193-3.0124 0.49701-5.7957-1.123-7.8433"/>
   <path d="m60.927 25.193c0.11381 0.46667 0.22764 0.93711 0.3794 1.3924 2.6368-0.9523 5.5411-2.007 8.5392-3.1338-0.15176-0.4401-0.3794-0.86883-0.66774-1.2975-2.8645 1.0699-5.6481 2.1019-8.2447 3.039"/>
   <path d="m62.739 10.352c-2.394 1.5252-3.0124 6.2772-3.6271 9.0343l0.89538 1.8742s1.7794-7.9902 3.7219-9.2217c2.4623-1.5669 7.2811-3.8012 9.757-2.303 3.0921 1.8856 9.5833 8.5794 9.5028 9.8644-0.11381 1.8059-1.5404 9.4895-2.891 11.283-0.84226 1.1382-4.5638 2.8797-7.0401 2.3143-1.2444-0.26558-1.9691-1.0699-2.2498-2.4206-0.97885-4.9254 0.64118-6.5317 0.65637-6.545 0 0 0.86883-0.41355-0.11381-1.0434-0.97885-0.6298-3.5588-2.2498-4.417-3.6954-0.86883-1.4341-0.96368 0.48184-0.57669 1.3393 0.3794 0.86883 2.6634 2.4357 3.7333 3.1073-0.38699 0.68292-1.5252 2.4244-1.4038 4.4302 0.1897 3.3729 0.93712 5.9828 4.1093 6.545 2.9859 0.52357 7.7629-1.4038 8.9538-2.9973 1.5935-2.1284 2.6786-10.774 2.7962-12.488 0.15177-2.4775-8.5926-9.8507-10.828-11.216-3.6422-2.2081-9.7574 1.3658-10.975 2.1398"/>
   <path d="m43.108 16.429c-2.891 2.0753-4.3365 16.115-4.3365 16.115l1.658-0.30352s1.8211-12.862 4.283-14.616c4.524-3.2401 7.8835-3.2666 10.346-1.0699 3.3729 2.9973 7.1741 12.287 7.0671 13.973-0.11381 1.9805-1.5783 7.9905-2.9176 9.9983-1.2293 1.8325-2.2498 3.0921-5.8758 1.6997-3.6271-1.3772-2.5685-5.3939-2.5685-5.3939s1.3127-0.22763 0.46667-1.6997c-0.85745-1.4607-3.6802-5.2467-4.0823-7.2678-0.40216-2.0336-1.4455 0.01325-1.0699 1.3127 1.4834 5.2869 3.3197 5.2198 3.868 6.331-0.50839 1.6466-0.75122 2.9441-0.75122 3.9215 0 2.3143 1.1116 3.868 4.3635 4.8317 3.2515 0.94851 5.9023-0.46666 7.4685-2.7962 1.5783-2.3675 2.6217-8.6196 2.7431-10.56 0.15175-2.1702-4.5907-12.943-8.1647-16.128-3.8813-3.4791-9.3287-0.58807-12.501 1.6732"/>
   <path d="m121.79-2.7402"/>
   <path d="m104.21 180.7c-0.6943-0.22763-1.032-0.66774-1.5518-2.303-0.52357-1.6314-0.96368-0.81571-0.66775 0.58807 0.30352 1.419 0.8309 2.3561 1.9274 2.6899 1.5252 0.45529 8.6461-1.8742 14.094-5.7149 1.2065-0.84226 1.768-1.5935-0.22763-0.5084-1.9956 1.0851-11.752 5.7953-13.585 5.2467"/>
   <path d="m135.42 169.66c-1.859 0.6298-1.4569 0.76259 0.0379 0.46666 7.7629-1.4872 20.398-2.0867 23.195 2.4357 0.55013 0.884 0.95229 1.5783 0.53495 0.0137-1.9539-7.2545-21.91-3.5474-23.784-2.9176"/>
   <path d="m152.33 192.69c-1.1116-7.7496-7.4416-9.1147-14.683-11.096 0 0 2.743-0.52357 1.7794-0.89538-0.96368-0.3794-2.2498-0.0759-5.2733 0.52357-7.2811 1.4872-22.58 7.5087-23.249 7.8031 0 0-0.66774 0.3794-0.52357 0.58807 0.15177 0.22763 0.60325 0.30352 0.60325 0.30352-0.0759 0.0759-0.60325 0.89538-0.60325 3.1187l0.99024 0.34146c0-1.4986 0.92193-2.9972 1.1761-3.3994 1.8894-0.83089 16.048-6.9866 22.633-7.8433 0.30352 0.0759 2.1284 0.60325 2.1284 0.60325 7.0003 1.9122 12.514 3.426 13.478 10.172 0.49322 3.4525 0.75122 7.6024 0.75122 11.444 0 5.6079-1.1761 10.333-2.303 11.47-1.7263 1.7149-6.7727 5.3271-12.742 8.0308-0.11381 0.78915-0.45529 1.4303-0.85745 2.1398 7.0265-2.7848 13.625-6.9999 15.62-8.9944 2.7962-2.7962 2.0753-17.266 1.0699-24.306"/>
   <path d="m132.94 228.28c-2.4889 3.4677-5.4205 5.7016-7.4552 5.7016-3.4677 0-5.9558-3.6802-6.9866-5.4876 5.153-0.84226 7.7766-2.6368 11.404-4.2428 1.9274-0.85744 3.9082-1.7149 5.9425-2.4775-0.0132 1.5138-1.1116 4.0152-2.9024 6.5048m2.1702-7.6692c-1.1648 0.34147-4.2428 1.6997-7.6825 3.2932-3.1452 1.4607-6.9332 2.8645-9.3423 2.8645-3.1452 0-6.7992-2.5572-8.8874-5.2202l-1.2179 0.9523c1.6845 3.6005 5.4607 5.1397 8.9808 6.023 1.0054 2.0867 4.0558 7.6692 8.3787 7.6692 2.9593 0 6.679-4.1089 8.8472-7.1339 1.916-2.652 2.9441-5.153 3.1983-7.3615 0.22763-2.2081-1.0965-1.419-2.2764-1.0851"/>
   <path d="m126.21 209.44v-0.11381c0-0.75122-0.56151-1.7263-1.2065-2.8645-0.57668-1.032-1.2444-2.1816-1.2596-2.8645v-0.027c0-1.4607 3.2515-8.0975 5.0858-9.5028 0.3794 0.0759 1.2179 0.41354 2.155 0.76258-1.3658 2.0336-4.2694 6.5583-4.2694 8.0839 0 0.0379 0 0.11381 0.0132 0.15175 0.11381 0.53496 0.42873 1.2179 0.78915 1.9957 0.56151 1.1761 1.2444 2.5951 1.2444 3.775 0 0.15176-0.0132 0.30352-0.0379 0.46666-0.40216 2.2612-1.9122 6.5317-2.7317 7.3748-1.032 0.11381-1.9425-0.0759-2.4889-0.22765 0.70948-1.3127 2.504-4.8316 2.7051-6.9999m-2.891-8.1108c-0.26558 0.6943-0.61463 1.5138-0.60325 2.2764 0.0132 0.9485 2.504 5.3135 2.4623 5.7418-0.26557 3.3311-3.039 6.5317-2.7848 7.4552 0.30351 1.2179 2.9328 1.1116 3.8547 0.91056 1.3658-0.30352 3.187-6.6922 3.4943-8.2315 0.41354-2.0601-1.9425-5.6883-2.0222-6.0901-0.0759-0.41355 0.30352-1.4569 0.45527-1.8211 0.37941-0.80432 2.4509-4.4572 3.0504-5.3939 0.26558-0.40216 1.6314-1.7414 0.73603-2.0867-0.94849-0.3794-3.0124-1.2975-3.7067-0.77777-1.5517 1.1648-4.082 5.7688-4.9386 8.0175"/>
   <path d="m135.95 206.65v-0.11382c0-0.69429-0.52358-1.6314-1.123-2.7051-0.53495-0.94849-1.1496-2.0336-1.1648-2.6748v-0.0132c0-1.2976 2.7848-6.7457 4.4838-8.0577 0.34145 0.0759 1.0965 0.37939 1.9122 0.68291-1.233 1.7263-3.7067 5.3537-3.7067 6.7457 0 0.0759 0 0.11381 0.0136 0.1897 0.0759 0.49322 0.38699 1.1382 0.73603 1.8742 0.52358 1.0965 1.1496 2.4206 1.1496 3.5322 0 0.15175-0.0137 0.30352-0.0379 0.42872-0.3794 2.1132-1.768 6.0901-2.5154 6.9066-0.92194 0.0759-1.7414-0.0759-2.2498-0.22763 0.66775-1.2596 2.3144-4.524 2.504-6.545m1.8059-14.455c-1.032 0.58807-4.6977 6.2639-5.0726 8.4989-0.0379 0.15176-0.0379 0.30351-0.0379 0.48183 0.0132 0.89539 2.3295 4.9792 2.2878 5.3806-0.1897 2.2498-2.5837 6.545-2.6634 6.6653-0.61462 1.1382 2.3978 1.2179 2.9176 1.2331 1.9274 0.0379 2.0488-1.4986 2.5837-2.9859 0.46667-1.3241 1.2331-3.388 1.4721-4.7782 0.30352-1.8856-1.8856-5.5544-1.9691-5.9293-0.15175-0.94849 2.7582-5.1397 3.3198-5.9293 0.30352-0.42872 1.3924-1.4455 0.48184-1.7946-0.89538-0.34146-2.9328-1.0585-3.3046-0.84226"/>
   <path d="m145.06 204.76v-0.11381c0-0.66774-0.46666-1.5404-1.0054-2.5572-0.48184-0.89538-1.032-1.9122-1.0433-2.5154v-0.0137c0-1.1913 2.2081-5.6348 3.7333-6.8796 0.30352 0.11381 0.93713 0.34147 1.62 0.61463-1.0585 1.4721-3.0504 4.4037-3.0504 5.6618 0 0.0759 0 0.11381 0.0137 0.1897 0.0759 0.48184 0.34145 1.0699 0.65635 1.768 0.45529 1.032 1.0168 2.2878 1.0168 3.3198 0 0.15175 0 0.26557-0.0266 0.40216-0.34147 1.9805-1.5669 5.6883-2.2347 6.4782-0.7626 0.0759-1.4569-0.0379-1.9008-0.1897 0.60324-1.1913 2.0601-4.2428 2.2233-6.1432m1.2065-12.809c-0.55014 0.11381-2.0222 2.1816-2.5685 3.1604-0.70949 1.2596-1.7414 2.9707-1.7149 4.497 0.0132 0.84227 2.0753 4.6844 2.0488 5.0593-0.11381 1.4569-0.78916 2.9176-1.3772 4.2296-0.26558 0.58807-1.2596 2.1398-1.0168 2.5306 0.26559 0.3794 3.1187 0.86882 3.6119 0.48183 0.48184-0.38698 1.1761-1.9805 1.4986-2.9176 0.45529-1.3127 1.0168-2.8227 1.2444-4.1893 0.22764-1.4038-1.8591-5.2065-1.9122-5.5544-0.11381-0.56151 2.2612-4.1226 2.9328-5.0593 0.5084-0.70948 0.92194-1.0699-0.0132-1.6049-0.56151-0.30353-2.1816-0.74742-2.7317-0.62981"/>
   <path d="m85.709 201.31c-3.3197 1.1761-6.5583 2.1398-8.0975 2.9707-3.6271 1.9274-3.6802 8.0171-3.8278 12.769l1.5517 0.0379c0.11381-3.5588 0.7626-9.7574 3.8813-11.43 1.4455-0.76259 4.4037-1.8059 7.522-2.9176 1.1382-0.40216 2.303-0.83088 3.4791-1.2596-0.15177-0.56151-0.1897-1.123-0.22765-1.6997-1.4569 0.52357-2.9176 1.032-4.283 1.5138"/>
   <path d="m112.15 193.05c-3.7598-3.6536-7.6426-0.99023-11.39 1.5935l-2.9062 1.9008c-1.2862 0.75121-3.1984 1.5404-5.3135 2.3295-0.0132 0.66775-0.0379 1.2293-0.1897 1.8325 2.4509-0.93713 4.7114-1.9008 6.3041-2.8227l2.9973-1.9691c4.0823-2.7962 6.7188-4.39 9.4228-1.7528 3.9617 3.8547 5.4205 6.8262 3.5056 14.241l-0.97884 4.0687c-1.0699 4.6442-1.4721 6.3845-4.2698 8.2447-1.7528 1.1648-3.426 2.1019-5.1929 3.0921-2.0601 1.1496-4.4037 2.4509-7.2412 4.3502l-2.0753 1.6883c-1.9008 1.6732-4.524 3.9617-6.4376 3.7864-0.58807-0.0379-1.0965-0.37941-1.5404-0.92194l-0.4401 1.2596c0.72086 0.91055 0.9485 1.6314 1.9653 1.7263 2.5837 0.22764 4.3635-1.1382 6.5985-3.0921l1.9122-1.5669c2.7848-1.8591 5.8758-4.6844 8.0171-5.8758 1.7946-1.0054 3.4943-1.9539 5.2869-3.1452 3.3198-2.2081 3.8547-4.5505 4.9254-9.1951l0.97885-4.0285c2.0753-8.0577 0.30352-11.631-3.9351-15.74"/>
   <path d="m102.54 299.93c2.7696 3.8012 2.652 11.149 0.92194 11.792-0.83088 0.30352-7.5485-5.046-7.736-5.1397l-1.6466 1.2179c0.0379 0.027 3.9484 2.2764 6.6122 4.1226 3.039 2.1019 4.5775 2.0601 5.3401-1.9425 0.884-4.6579-0.46666-8.7-2.504-11.497z"/>
   <path d="m25.846 285.35c11.163 1.271 11.055 0.0759 13.023-1.7528 3.6802 1.1116 7.8566 2.8227 9.7039 3.4412 1.8477 0.61462 4.0554 1.233 1.1116-0.85745-2.9593-2.0867-15.539-5.7286-18.671-6.5181-1.62-0.40216-2.8796-2.0867-3.0124-5.4072-0.65636 0.1897-1.3772 0.50839-2.0336 0.72466 0 0.1897 0.69431 5.2866 3.0769 5.889 2.1702 0.53495 5.8758 1.5935 7.9238 2.1816-1.3924 0.68292-4.4572 1.4986-10.948 0.76259-4.4303-0.50839-17.266-4.0554-19.113 8.9675-0.01325 0.11381 1.3924-0.0379 2.0336-0.57669 1.5669-7.0534 7.9101-7.8699 16.905-6.8527"/>
   <path d="m100.52 290.27c-4.6579-2.9442-12.648-5.9023-14-6.4244-2.0867-2.9442-4.4299-9.436-5.1526-13.144-2.0336-10.333 6.5446-15.834 7.5618-28.348 0.26557-3.3198-2.1967-9.3826-2.1967-11.992 0-0.11381 0.884-5.7555 0.884-7.1339 0-2.2347-0.55013-4.5509-3.0504-5.5946-4.1089-1.6845-11.671-3.2666-14.817-0.75121-1.2179 0.96367-1.62 4.0019-2.4357 7.0804-0.75122 2.8114-1.6049 6.0097-3.0124 8.1643-0.75122 1.1648-1.9122 2.4509-3.1566 3.8149-3.3463 3.6954-8.1112 7.4013-8.1112 13.598 0 0.26559 0.01371 0.56152 0.02696 0.85745 0.37941 6.237 1.1648 13.264 1.2179 16.208-2.4889-2.1816-8.7668-7.1338-12.942-7.3345-2.542-0.15177-8.2315 0.46665-11.979 2.9859 0.70947 0.26557 2.8493 0.68291 3.426 1.0585 3.1452-1.8477 7.1206-1.9805 9.2756-1.8742 4.9121 0.26559 17.988 12.835 21.642 14.923 3.6688 2.0753 3.9082 1.3393 0.70947-1.4834-3.187-2.8227-8.3521-6.8797-8.3521-6.8797 0-0.0759-0.30352-8.2447-0.83088-16.838-0.3794-5.9828 3.7598-10.52 7.0671-14.174 1.2862-1.4038 2.504-2.7431 3.3197-4.0152 1.5252-2.3561 2.4092-5.6751 3.1983-8.6063 0.65636-2.4623 1.3393-5.0058 2.155-5.6614 2.303-1.8325 8.5122-1.1496 12.876 0.64118 2.7051 1.1116 2.4357 3.9215 1.7528 7.7762l-0.38699 2.743c-0.11381 1.5669 0.30352 2.8645 0.80433 4.3635 0.7512 2.2498 1.8856 5.0726 1.0433 10.052-1.1913 6.973-7.937 14.79-7.6293 23.771 0.22764 7.2006 3.2932 13.465 4.4037 15.057-3.0769 0.61462 1.2027 1.859 3.3577 2.8379 2.155 0.96368 6.9066 2.5154 11.778 5.5946 3.4146 2.155 4.2026 4.6848 2.4244 9.8644-1.4607 4.2428-7.6426 6.4915-11.966 5.9293-3.6422-0.46667-8.4322-3.8012-11.939-6.237-1.9805-1.3772-3.5322-2.4509-4.6177-2.891-3.0769-1.2596-8.258-1.0699-13.746-0.884l-5.7286 0.15175c-7.0136 0-25.015 3.4943-33.327 6.0901-3.8145 1.1913-7.3213-0.0379-9.3287-1.768-0.07591-0.0379-1.0851 0.73603-1.62 1.1382 1.5669 1.9691 4.9121 4.4572 9.8511 2.9176 8.2178-2.5685 27.532-6.8125 34.424-6.8125l5.7821-0.15177c5.0862-0.18969 10.828-0.0759 13.585 1.0585 0.93711 0.3794 2.8645 2.0601 4.6712 3.3197 3.8414 2.6786 8.3919 5.5013 12.407 6.023 5.0327 0.64119 11.511-1.6049 14.214-7.3611 0.64118-1.3658 0.884-2.9062 0.884-4.4037 0-2.5154-0.8954-5.0191-4.417-7.2408"/>
   <path d="m26.789 264.24c2.5951-1.0965 5.046-0.92194 6.1167-0.18969 0.7512 0.52357 1.123 1.2975 1.123 2.3295 0 0.3794-0.0379 0.77777-0.15177 1.2027-0.61462 2.7582-2.8227 5.3268-3.4677 5.4338-3.574 0.26558-11.765 4.1628-12.233 3.6802-0.5084-0.49322 0.77777-9.1549 8.5926-12.474m-1.0699-1.3924c-2.5685 1.0851-8.0308 5.0862-8.8203 12.247-0.3794 3.3046 0.53495 3.5056 4.524 1.9008 2.5685-1.032 5.8488-2.1019 9.2217-2.3561 1.4607-0.11381 3.7219-3.4791 4.497-6.3443 0.64118-2.3674 0.15176-4.2694-1.4455-5.367-1.3924-0.96368-4.7512-1.4455-7.9769-0.0759"/>
   <path d="m5.0736 296.01c1.9387-3.1452 5.6079-4.9656 7.6692-4.1624 2.3143 0.89539 3.13 3.3577 3.13 5.2065v0.0133c-0.01325 1.3241-0.40216 2.0222-0.56151 2.0753-4.4701 1.233-11.805 6.3576-12.488 6.13-0.4401-0.22764-0.07591-5.5142 2.2498-9.2619m3.2135-4.8051c-3.4146 2.2347-6.6122 6.3709-6.8797 12.621-0.15177 3.278 0.30351 3.775 3.0769 2.0488 4.3631-2.6899 8.0706-4.39 11.243-5.4076 1.0585-0.34145 1.4872-1.8742 1.5252-3.1983 0.07591-2.3409-0.93711-5.5142-4.0019-6.7055-1.4455-0.5615-3.1604-0.53495-4.9656 0.64119"/>
   <path d="m152.81 105.21c4.3768-15.325 10.6-35.08 9.8644-35.669-1.3772-1.0851-7.964 2.5571-25.605 17.239-2.0602-0.884-10.828-4.6313-21-1.8477-20.211-11.658-45.454-26.193-47.247-23.664-1.0434 1.4872 10.239 28.174 22.405 45.788-4.5907 8.7937-6.5583 16.275-6.5583 20.599 0 1.419 0.1897 2.2878 0.6943 3.1718 0.68292 1.2027 1.3924 1.1648 2.8227 1.2292 3.2666 0.15176 27.973 2.1702 32.912 3.8145 0.45529 0.15175 1.1761 1.0585 1.5783 1.4721 0.45528-0.15175 0.26558-0.30352 0.6298-0.85744-0.68291-0.68292-1.3507-1.1496-1.9691-1.3507-5.1663-1.7263-29.606-4.1893-32.993-4.3498-0.89538-0.0379-1.5404-0.42872-1.9539-1.1648-0.26558-0.45529-0.55012-1.2862-0.55012-2.69 0-2.0753 2.9328-13.478 6.7594-20.05 2.007-3.4525 3.0124-4.7516 2.0601-4.2831-0.96366 0.48184-2.394 2.9707-2.394 2.9707-7.5489-10.721-22.941-42.575-22.191-43.272 0.61463-0.60325 18.551 9.0749 44.409 23.236 0 0-1.3772 0.81571-1.7528 1.4873-0.38699 0.66775 0.0759 0.72086 1.62 0.07591 9.4763-3.8278 20.692 0.26559 22.499 1.271 1.7946 1.0168 3.039 2.0753 3.039 1.4986 0-0.57669-1.5404-2.0867-1.5404-2.0867 9.3423-7.5891 22.86-18.283 23.155-17.132 0.26559 1.1496-9.6906 32.725-9.7707 33.033 0 0-1.4038-2.0336-2.1816-2.8113-0.77777-0.7626-0.94851-0.30352-0.0379 1.1496 8.2315 13.318 12.836 22.058 12.836 24.734 0 0.11381-0.0137 0.22764-0.0379 0.30352-0.60324 0.84227-3.775 1.9956-6.5852 3.0124-5.5279 2.007-9.1951 3.4791-9.7305 5.5813-0.11381 0.7626 0.30352 12.488 0.30352 14.455 0 2.3826-0.1897 4.39-0.80433 5.2198-2.155 2.8796-4.7918 4.9656-6.2775 4.9656-1.5404 0-8.1108-4.7649-8.9542-6.237-0.1897-0.34145-0.6943-1.6997-0.94851-3.1983-0.6943-4.1222-1.8059-7.495-3.0656-10.051-0.5615 0.42872-0.46665 0.22764-0.97506 0.64118 2.1929 4.8586 2.2612 5.9293 2.7582 8.9409 0.30352 2.0602 0.89539 3.7333 1.1761 4.2159 1.032 1.7946 7.3482 6.7324 9.5969 6.7324 2.4775 0 5.474-2.2764 7.415-4.8453 0.85745-1.1496 1.2293-3.6271 1.2293-6.3709 0-1.916-0.78915-13.639-0.6943-14.281 0.37939-1.3924 5.8355-3.4677 9.3689-4.7516 4.0152-1.4607 7.281-2.4244 7.6024-3.7219 0.93712-3.7485-6.5181-15.312-10.882-22.165"/>
   <path d="m82.225 77.834c1.0585 1.0585 21.549 16.985 20.866 18.457-1.3924 3.0238-2.2878 4.3365-3.0655 5.6618-0.77777 1.3241-0.44011 1.6732 0.66774 0.34147 1.2975-1.5669 2.1019-2.8114 3.5208-5.9023 1.1496-2.4889-19.273-17.078-20.946-18.363-1.6731-1.2862-2.1019-1.2444-1.0433-0.18971"/>
   <path d="m147.2 97.4c0.1897 1.5138 0.77777 1.3507 0.75121 0.11381-0.0379-2.0336 2.0867-6.3174 6.023-10.814 1.6049-1.8325 1.8211-2.303-0.49702-0.38699-2.303 1.9122-6.5583 8.5661-6.2772 11.082"/>
   <path d="m109.47 120.28 1.233 0.61463c-0.42872-2.5837 0.1897-6.8129 1.1761-9.0749l-0.93711-0.41354c-0.99023 2.2233-1.9691 5.8758-1.4721 8.8738"/>
   <path d="m143.1 126.99c0.15175-2.7051 2.743-9.1014 6.2506-12.434 1.0054-0.9485 1.7263-1.4341 0.34145 0.22764-2.4889 2.9593-4.6579 7.6559-5.3674 11.149 1.4607-1.0168 4.31-2.9707 6.6387-4.7918-0.11381-1.6997-1.6049-4.7379-2.2498-5.3803-0.0759-0.0759 0.0379-0.6298 0.30352-0.4401 0.85745 0.57668 2.155 2.8645 2.7051 5.3936 0.61462-0.3794 1.233-0.30352-0.15177 0.6943-1.3658 1.0433-7.6422 6.0362-7.6958 6.0632-0.34145 1.2027-1.1913 18.256-1.419 18.256-0.22764 0 0.46667-15.928 0.61463-18.725"/>
   <path d="m107.98 120.09c4.1491 2.0222 17.493 6.9062 20.13 7.4017 1.0965 0.22764 2.1816-0.0759 0.5084-0.58807-2.8379-0.80433-12.367-4.0019-20.344-7.2408-1.5252-0.61462-1.8211-0.30352-0.30352 0.42873"/>
   <path d="m136.91 149.61c-1.1762-6.3307-4.283-18.243-6.5317-22.044-4.8449-8.2049-12.889-14.937-23.021-18.484-1.62-0.57669-1.0699 0.26558-0.15177 0.6298 9.4095 4.0019 16.704 9.757 22.111 18.323 1.8059 2.8379 4.0019 10.507 7.1206 21.683 0.40216 1.4304 0.95229 2.4358 0.48183-0.11381"/>
   <path d="m136.66 155.07c-0.22764 0.42872-0.11381 0.70948 0.4401 0.58807 0.56151-0.11381 0.884-0.91055 1.4038-1.5138 0.52358-0.60324 0.38699-0.80433-0.26557-0.62981-0.66775 0.15176-1.3393 1.123-1.5783 1.5518"/>
   <path d="m142.28 153.64c0.22765 0.77776 0.61464 1.2862 0.96368 1.5783 0.34147 0.26557 0.52357 0.30352 0.50839-0.26559-0.0137-0.57669-0.53494-1.3658-0.95228-1.6732-0.41356-0.30352-0.75122-0.41354-0.52358 0.3794"/>
   <path d="m131.05 102.54c0.26558-0.30352 1.7149-3.426 1.9956-3.6688 0.30353-0.26558 2.3674 3.5474 2.3674 3.5474s3.948 1.2596 3.7485 1.4607c-0.1897 0.1897-1.5935 1.7946-1.5935 1.7946s1.5669 4.3233 1.1913 4.4033c-0.3794 0.0759-4.4837-2.2498-4.4837-2.2498s-4.0687 2.9859-4.39 3.13c-0.30351 0.15176 0.18971-3.8949 0.18971-3.8949l-0.15177-0.15177c-0.0379-0.0379-2.7582-2.3674-3.2401-2.7696-0.47044-0.40216 4.0823-1.271 4.3366-1.5935m1.3507-5.0058c-0.44011 0.66773-1.9274 3.7219-2.1019 4.2295-1.123 0.22765-4.1757 1.032-4.8449 1.3127-0.89538 0.38699-1.1116 0.52358-0.22764 1.2596 0.34146 0.26558 3.5208 2.7696 3.8145 3.0921-0.0266 0.40216-0.72086 5.4474-0.26559 5.6216 0.42872 0.1897 5.1663-3.6954 5.6216-4.0152 0.49702 0.26559 5.6216 3.2515 5.996 2.9973 0.38699-0.22765-1.5252-5.6079-1.658-6.0898 0.30352-0.34146 2.303-2.1284 2.2233-2.4889-0.0759-0.37939-4.5505-1.768-4.8317-1.8856-0.1897-0.26557-1.8325-3.0504-2.3674-3.8414-0.52357-0.80433-0.88401-0.85745-1.3241-0.18971"/>
   <path d="m84.858 185.38c-0.45529 3.039-0.34146 4.1624 1.7946 0.85745 1.233-1.6466 2.1284-2.69 2.8493-3.574-0.75121 5.153-0.84227 14.361 0.30352 18.029 1.4455 4.5775 1.9122 3.4412 2.5306 0.0132 3.039-17.266 17.346-49.71 36.446-61.421 1.2444-0.76259 1.2179-1.3772-0.30353-0.56151-19.086 10.4-36.352 45.426-37.396 63.121-1.2862-4.5509-1.1761-13.117-0.0759-21.054 0.62981-4.4837-1.032-0.53496-1.032-0.53496-0.0759 0.0759-2.007 2.1019-3.9484 5.0456 4.8988-29.834 38.293-48.826 41.331-50.218 1.2444-0.57669 1.0585-1.2975-0.26559-0.65635-20.88 10.172-39.029 29.017-42.268 50.954"/>
   <path d="m147.03 135.24c14.415 5.1128 32.002 21.469 32.685 38.346-1.2976-3.8281-2.4357-6.1436-3.3198-7.7629-2.0753-3.6954-2.3826-3.4525-1.1382 0.0759 0.6298 1.7528 1.0054 4.7785 0.92194 5.9831-0.15177 2.5154-0.42873 5.8488-1.6732 9.8507-0.93712-8.7266-6.1432-33.1-28.188-43.633l0.38699 1.0434c19.836 9.4763 25.39 32.283 26.742 41.706 0.49701 3.3842 0.65636 3.6688 1.9425 0.78915 1.7946-4.0288 2.1398-8.4591 1.9273-11.363 0.73604 1.6314 1.5518 3.5588 1.9691 4.8586 0.42872 1.2975 0.97885 1.7414 1.1799-0.15177 1.8059-16.945-15.365-33.501-33.046-40.206z"/>
   <path d="m117.97 120.88c0 1.916-0.53496 2.5154-0.93712 2.5154-0.38699 0-0.83089-0.68292-0.83089-2.5837 0-1.916 0.53495-3.426 0.92194-3.426 0.40217 0 0.84228 1.5783 0.84228 3.4943"/>
   <path d="m147.19 123.39c0 1.1761-0.22764 1.4986-0.55013 1.4986-0.30352 0-0.57668-0.30352-0.57668-1.4986 0-1.1761 0.26557-2.1398 0.5615-2.1398 0.30352 0 0.56152 0.96368 0.56152 2.1398"/>
   <path d="m238.85 177.62c-1.5518-1.9274-5.4607-4.39-7.7762-4.0823l-1.8211 0.30352c-5.9695 1.0851-7.4954 0.84226-7.7363 0.45528-0.0759-0.22764-0.11381-0.48184-0.11381-0.78915 0-1.62 1.1382-4.4037 3.2932-6.4783 0.38699 0.11381 0.9523 0.15177 1.3241 0.1897-0.0759-0.3794-0.22764-1.1496-0.26559-1.2596-3.13-0.56151-4.3232-1.4872-4.8051-2.7051-0.34147-0.86882-1.5783-2.4092-2.1702-2.7848-0.58807-0.37939-0.58807-0.0379-0.34145 0.30352 0.22763 0.3794 1.2444 2.2612 1.5783 3.1187 0.49701 1.2293 1.5138 2.3561 3.5208 2.7582-2.5837 2.6254-4.3229 6.1034-3.4525 8.2182 0.78916 1.8742 11.176-0.26557 11.176-0.26557 2.0488-0.26558 5.5009 2.4509 6.839 4.0956 1.123 1.4038 2.2878 6.545-0.15176 12.247-0.11381 0.30352-0.26558 0.58807-0.40216 0.84227 0.0269 0.85744 0.15175 1.123 0.0759 2.007 2.8227-2.6899 3.8949-12.902 1.2179-16.208"/>
   <path d="m230.32 190.79c-2.1816-0.93712-2.8645-3.3311-0.60325-6.5985 1.2596-1.8211 0.94851-3.0238 0.60325-4.1624-0.37941-1.123-0.81571-0.40216-0.81571 0.30352 0.0132 0.70949-0.15177 1.9691-1.1648 3.4525-0.75121 1.0699-1.5783 1.7528-1.6314 2.9973-2.2498 0-3.1452 1.4986-3.9351 2.8645-0.42872 0.75121-1.4569 1.7414-2.1284 2.2764-1.7794 1.419-9.5696 4.9656-13.518 2.0336l-0.0759-0.0759c-1.6314-1.7263-5.8488-5.3404-5.8488-5.3404-2.3674-1.9387-3.7598-3.4525-4.0152-5.26-0.22764-1.7946-1.032-1.9691-0.85745 0.0379 0.34146 4.0554 3.426 4.832 5.367 7.0003 0.80432 0.884 1.5518 1.6997 2.1702 2.3674-4.2561-0.1897-9.543 1.7794-14.669 3.7067-3.6157 1.3507-7.0268 2.6216-9.6637 2.9593-3.1187 0.38698-5.2467-2.1816-5.889-4.7247-0.7626-2.9328 0.0759-7.0402 4.9121-8.9542l2.007-0.78916c4.7645-1.859 11.443-4.2963 14.75-6.6657 0 0 0 0.72087 0.22764 1.4038 0.22764 0.66775 0.64119-0.22764 0.4439-2.5306-0.26558-3.2401-0.73604-4.1624-1.4076-4.7782-1.9122-1.7794-3.2666-4.283-3.5208-5.6883-0.15175-0.93712-0.22763-1.7414-0.15175-2.4623-0.58807-0.96368-0.46667-1.2331-0.52358-2.1967-1.0054 1.1913-0.99022 2.6786-0.58806 4.8586 0.37939 2.0488 2.4092 4.5642 4.2159 6.2373 0.60325 0.55013 1.0851 2.929 1.1799 4.0687-3.1983 2.2347-10.534 4.4838-15.178 6.3041l-2.007 0.78915c-5.7286 2.2612-7.0534 7.0402-6.0362 11.002 0.99023 3.8949 3.6536 6.2776 7.1338 5.8359 2.8114-0.34146 6.9464-1.8325 10.654-3.2249 5.4342-2.0336 11.685-3.8282 15.767-2.891 4.4302 4.604 14.214-0.0759 16.677-2.0336 0.89539-0.72085 1.4455-1.6732 1.9274-2.504 0.80433-1.3924 1.2862-2.1133 2.5837-2.1019 0.56152 1.6997 1.5935 2.8645 3.6954 3.9215-0.15175-0.78915-0.22763-0.74741-0.0759-1.4569"/>
  </g>
 </g>
</svg>
