<?xml version="1.0" encoding="UTF-8"?>
<svg version="1.1" viewBox="0 0 395.75 340.61" xmlns="http://www.w3.org/2000/svg">
 <g>
  <g>
   <path d="m142.53 123.48c-0.91085 2.2764-12.779 18.222-18.243 18.677-5.4632 0.45492 1.3658 21.851 5.0083 18.21 3.6425-3.6421 19.122-22.761 27.773-27.768z" fill="#d7a400"/>
   <path d="m157.07 132.6-14.538-9.1186c-0.16935 0.4238-0.71952 1.3217-1.537 2.5053 4.892 5.957 3.8082 13.054 1.2102 20.039 5.1666-5.5451 10.778-11.061 14.865-13.426" fill="#b08600"/>
   <path d="m188.23 213.71c3.1866 0 17.164-4.8668 21.197-10.094 2.1723-2.8156 4.5533-4.0989 8.6498-2.7332 4.0983 1.3666 13.506 9.3126 10.216 14.255-1.9498 2.9263-15.442 2.1135-24.692 10.868s-15.371-12.295-15.371-12.295" fill="#d7a400"/>
   <path d="m279.99 192.23c1.8208 4.5529 8.6517 14.568 31.87 15.478 23.219 0.90985-5.9191 29.135-17.756 16.388-11.837-12.745-23.219-14.568-25.951-14.112z" fill="#d7a400"/>
   <path d="m220.11 202.26c-3.6617-1.8307-10.171-3.8655-6.1031 2.6444 4.069 6.5089-9.8976 13.553-21.982 17.557 2.6996 4.4952 6.7018 8.1556 11.575 3.5442 9.2494-8.7533 22.742-7.9405 24.692-10.868 3.29-4.941-4.5185-11.047-8.1811-12.878" fill="#b08600"/>
   <path d="m292.73 203.88c-6.7366-3.4828-11.674-8.995-12.737-11.651l-11.836 17.755c2.7325-0.45584 14.114 1.3657 25.95 14.112 4.7812 5.1478 12.382 3.6119 18.219-0.10618-14.917-5.4646-25.087-11.362-19.596-20.109" fill="#b08600"/>
   <path d="m217.62 181.76c-3.6425 2.7314-8.1949 13.201-6.829 15.933 1.3658 2.7323 18.665 16.389 19.121 24.128s28.228 7.2833 36.878 1.3657c7.024-4.8046 9.4829-26.926 15.481-29.591 4.0965-1.8206-1.244-14.833-1.8217-16.844-0.57671-2.0101-9.1057-5.4627-9.1057-5.4627z" fill="#d7a400"/>
   <path d="m280.45 176.75c-0.57672-2.0101-9.1057-5.4636-9.1057-5.4636l-2.1338 0.41556c0.66643 5.3812 5.0083 8.1767 0.94106 10.618-4.0681 2.4403-26.446 12.406-30.31 11.186-3.8649-1.2192 9.7639 28.273-1.1626 33.577 9.0279 1.4554 22.537-0.0851 28.112-3.8993 7.024-4.8046 9.4829-26.926 15.48-29.591 4.0974-1.8197-1.2432-14.833-1.8208-16.843" fill="#b08600"/>
   <path d="m159.02 72.054c-22.517 0-49.709 38.301-0.14647 60.954 49.564 22.654 0.14647-60.954 0.14647-60.954" fill="#a4725d"/>
   <path d="m182.12 148.99c3.6599 7.4408 6.9087 12.187 9.8142 13.639 2.9065 1.4536 14.302 5.0234 14.302 5.0234s9.5616 6.8293 13.204 15.478c2.0515 4.8732 41.431 2.2755 52.749-8.7204-0.087-15.164 5.8111-20.336 8.7167-23.241s10.586-4.6746 12.348-18.157c8.3789-64.127-135.73-34.026-111.13 15.978" fill="#a4725d"/>
   <path d="m182.12 148.99c1.1699 2.379 2.2977 4.4796 3.3871 6.2884 4.1789-8.6023 43.959-4.4778 54.74-1.2247 9.3483 2.8211 18.185 16.387 24.207 25.628 3.6617-1.016 9.3071-6.7982 7.7353-5.2714-0.087-15.164 5.8111-20.336 8.7167-23.241s10.586-4.6746 12.348-18.157c8.3789-64.127-135.73-34.026-111.13 15.978" fill="#815848"/>
   <path d="m239.51 119.93c0.72501 2.9053 9.4435 19.61 15.254 19.61 5.8102 0 34.139-0.72586 42.129-5.8105s12.348-23.968 13.801-34.136c1.4528-10.168-9.395-36.728-52.298-22.514-42.903 14.213-18.885 42.851-18.885 42.851" fill="#a4725d"/>
   <path d="m273.16 100.3c-9.1158 4.1227-7.0808-18.251-0.25083-26.728-4.3748 0.61785-9.2 1.7501-14.522 3.5131-42.903 14.213-18.885 42.851-18.885 42.851 0.72502 2.9053 9.4435 19.61 15.254 19.61s34.139-0.72586 42.129-5.8105c5.7525-3.6604 10.124-14.238 12.382-23.803 0.8788-3.719 1.0115-7.4847 1.4189-10.333 0.32315-2.2572 0.0339-5.3236-1.0729-8.573-13.631-8.9776-27.337 5.1497-36.452 9.2733" fill="#815848"/>
   <path d="m222.17 275.35c2.2757 0.45492 11.382 5.4636 9.1057 7.2842-2.2767 1.8206-7.284 2.2746-7.284 2.2746z" fill="#c8c9ca"/>
   <path d="m205.49 236.69c1.3512 14.395 2.2876 20.06 6.3851 24.612 4.0974 4.551 16.107 13.793 14.864 16.901-2.2547 5.6394-0.92092 7.8041-5.0193 10.081-4.0984 2.2764-15.481 10.471-18.212 13.658-2.7307 3.1872-9.1048 19.575-13.202 19.575-4.0984 0-15.025-0.45401-16.391-5.4627-1.3658-5.0087 0.45496-10.016 0.45496-10.016s-5.0074-9.2e-4 -7.284 1.8206c-2.2767 1.8215-9.5607 5.9186-12.292 2.7314-2.7316-3.1863-6.3741-15.478-4.0974-17.754 2.2757-2.2764 18.211-13.659 19.121-17.3 0.91084-3.6412-4.5524-21.395-5.4632-26.403-0.91085-5.0087 0.45496-6.8284 0.45496-6.8284s39.329-20.011 40.681-5.6156" fill="#d7a400"/>
   <path d="m300.48 239.12c-0.91085 2.2755 3.1866 11.38 4.5533 20.03 1.3658 8.649-2.2766 29.592 0.90993 33.232 3.1875 3.6421 14.114 16.845 15.024 22.763 0.91084 5.9167 5.0083 13.202 15.936 15.022 10.926 1.8206 14.113-1.8215 15.479-10.471 1.3667-8.649-1.3658-10.469-5.4632-17.753 5.4632-1.3657 20.489 3.1863 24.131 4.0961 3.6416 0.91076 8.6507-0.91076 10.926-2.7314 2.2766-1.8206 4.5524-14.566 1.3658-19.574-3.1875-5.0078-6.8291-6.3735-16.846-8.6499-10.017-2.2755-12.291-5.9186-14.568-17.754-2.2766-11.837-5.4642-21.396-7.7399-23.673z" fill="#d7a400"/>
   <path d="m211.87 261.3c-4.0984-4.552-5.0339-10.217-6.3851-24.612-1.3521-14.395-40.681 5.6156-40.681 5.6156s-1.451 4.2893-0.43391 7.9506c12.409-5.492 28.287-0.99223 33.158 15.051 6.916 22.782 16.68 13.221 13.426 29.289 2.0432-1.4023 9.5643-5.6467 10.762-6.3112 4.0974-2.2774 2.7646-4.4421 5.0193-10.082 1.2431-3.1076-10.766-12.349-14.864-16.901" fill="#b08600"/>
   <path d="m354.44 266.55c-1.0161-2.3588-1.7677-5.3428-2.5128-9.2174-2.2767-11.837-5.4632-21.396-7.7399-23.673l-43.708 5.4636c-0.36251 0.90618 2.9037 15.44 3.6406 18.053 9.5607-19.73 20.545-8.951 30.31-5.2897 9.7639 3.6623 7.8873 10.861 20.01 14.664" fill="#b08600"/>
   <path d="m200.32 235.02c-5.9182 0-18.211 7.2842-20.943 11.381-2.7316 4.0961-2.7316 8.195-8.1949 2.7314-5.4632-5.4627-15.025-15.478-14.114-23.217 0.91085-7.7392 13.652-21.91 24.131-23.218 3.6416-0.45401 6.3402 9.4993 10.471 14.113 4.6174 5.1561 10.927 9.5616 15.025 9.1058 3.1875 4.552 0.45496 10.016-0.91085 10.925-1.3649-0.90984-3.6425-1.8206-5.4632-1.8206" fill="#a4725d"/>
   <path d="m206.69 225.92c-4.0974 0.45584-10.407-3.9488-15.025-9.1048-0.15196-0.17025-16.922 3.9515-18.548 16.156-0.59686 4.4742 0.81289 11.39 2.0332 13.831 1.2212 2.4403 2.987 1.4572 4.2228-0.39542 2.7316-4.097 15.024-11.381 20.943-11.381 1.8208 0 4.0974 0.91076 5.4632 1.8215 1.3658-0.91076 4.0974-6.3735 0.91085-10.926" fill="#815848"/>
   <path d="m294.56 225.46c-0.70854 5.2055 5.9173 16.389 14.113 15.478 8.1958-0.90984 24.129 8.195 25.95 10.926 1.8217 2.7304 11.384-15.477 11.838-20.03 0.45497-4.5529 0.83487-20.742-12.292-26.86-9.0132-4.1996-13.889-5.1872-17.636-4.1364-12.35 3.4645-16.916 21.591-21.974 24.622" fill="#a4725d"/>
   <path d="m334.17 204.98c-7.3124-3.4078-11.901-4.7002-15.373-4.5062 8.8247 7.2385 13.597 24.158 10.547 31.073-3.3944 7.6943-8.3404 8.5437-14.613 10.017 8.2681 2.0513 18.459 8.1547 19.894 10.306 1.8217 2.7304 11.383-15.477 11.838-20.03 0.45405-4.5529 0.83487-20.742-12.293-26.86" fill="#815848"/>
   <path d="m295.72 104.84c6.2368 2.7918 19.179 6.6755 15.537 13.049-3.6425 6.3726-6.2862 28.601-18.954 15.535-3.5848-3.6989-9.1204-10.384-8.2104-12.661 0 0 5.3918-18.715 11.628-15.923" fill="#b08600"/>
   <path d="m65.101 140.33c1.8208-3.6421 10.926-9.1048 16.39-6.3735 5.4642 2.7314 23.752 2.8769 33.691 2.2764 17.406 0.60046 20.513 24.214 11.837 30.501-6.3741 3.1872-22.903 5.9176-31.098 9.5588-8.1949 3.6421-23.081 9.5607-27.634-2.2746z" fill="#a4725d"/>
   <path d="m110.87 166.46c-9.5241 2.3881-17.087 4.6774-18.714 5.2879-1.6276 0.61052-5.4935 1.0169-4.2723-4.2719 1.2212-5.2879-1.8308-34.984-16.888-32.248-2.7774 1.4645-5.0788 3.4682-5.899 5.1085l3.1866 33.688c4.5533 11.835 19.439 5.9167 27.634 2.2746 8.194-3.6412 24.724-6.3716 31.098-9.5588 1.6899-1.2247 2.9257-3.113 3.7038-5.3547-6.8062 2.9309-11.191 2.9025-19.849 5.0746" fill="#815848"/>
   <path d="m52.479 178.08c2.8937-1.1579 18.085-5.4215 28.102-8.6078 3.1866-4.097 1.3658-20.941-4.0974-22.762-3.6425 0-12.293-5.9176-15.48-10.471-3.1866-4.5538-7.8113-13.528-21.014-7.1543z" fill="#d7a400"/>
   <path d="m80.416 151.76c-2.5952 10.478-18.972 11.647-22.431-0.55652-1.7823-0.76431-9.5698 5.1735-11.24 4.3854l5.7333 22.489c2.8936-1.1579 18.085-5.4215 28.102-8.6078 2.2181-2.8522 2.0084-11.872-0.16478-17.71" fill="#b08600"/>
   <path d="m39.15 119.85c-0.74882-9.3556 8.2635-14.119 3.0154-36.139-2.6785-11.239-16.012-24.457-28.512-20.31-9.7081 3.222-14.993 18.882-10.64 34.913 4.6522 17.134 21.567 18.352 25.209 26.09 3.6425 7.7392 13.659 40.971 14.114 51.898 0.45588 10.925 0.45588 20.486 4.0974 21.851 3.6425 1.3648 17.756 1.8206 16.846-2.2755-0.90993-4.097-5.4632-6.3735-8.6498-13.658-3.1875-7.2842-14.569-50.987-15.48-62.368" fill="#c6dcdb"/>
   <path d="m59.155 198.78c2.6209-0.43845 4.4728-1.3391 4.124-2.9053-0.90993-4.0961-5.4623-6.3735-8.6498-13.658-3.1866-7.2842-14.568-50.987-15.48-62.367-0.7479-9.3556 8.2635-14.119 3.0154-36.14-2.3087-9.6842-10.634-11.855-15.862-8.0183-6.0812 4.4659-12.437 15.002-7.8058 26.913 3.3962 10.188 19.011 18.155 13.004 30.449 4.4178 13.024 10.483 34.799 10.836 43.247 0.20872 5.0215 0.32589 9.7419 0.74149 13.524 6.4849 0.11717 11.76 3.9424 16.077 8.9566" fill="#a7bab9"/>
   <path d="m34.744 143.33-3.7889-10.737c-3.6425 1.8197-10.927 5.9158-11.382 10.47-0.45496 4.5529-0.45588 13.657 3.6425 15.022 4.0974 1.3657 18.211 4.097 21.853 5.4627 3.6425 1.3657 3.1866-17.754-4.0974-19.12-2.0743-0.38902-6.2267-1.0984-6.2267-1.0984" fill="#d7a400"/>
   <path d="m43.019 145.4c-2.9339 13.533-13.663 9.7776-22.242 10.233 0.57672 1.2009 1.3631 2.0998 2.4387 2.4577 4.0974 1.3657 18.211 4.097 21.853 5.4627 3.2644 1.2247 3.2333-13.993-2.0496-18.153" fill="#b08600"/>
   <path d="m40.061 165.83c-4.0974 1.8206-10.927 6.8284-10.927 11.381 0 4.552 1.3667 8.649 5.0083 8.649 3.6425 0 16.846 0.45584 22.765 0 5.9182-0.45492 10.016-10.471 4.0965-13.202-5.9182-2.7304-13.178-2.2398-19.098 0.0357z" fill="#d7a400"/>
   <path d="m61.003 172.66c-2.262-1.0435-5.866-2.5373-14.206-1.114 3.4585 9.1533-6.2395 11.556-15.29 13.344 0.69938 0.61145 1.5663 0.97209 2.6346 0.97209 3.6416 0 16.846 0.45583 22.764 0 5.9191-0.45492 10.017-10.471 4.0974-13.202" fill="#b08600"/>
   <path d="m47.345 131.68c-5.9191 3.1863-6.8291 4.5538-6.3741 12.748s-9.16e-4 19.12 3.1866 19.575c3.1875 0.45492 10.499 1.6879 12.293-7.2851 1.8208-9.1039 0.86874-8.238-0.91084-17.299-1.7805-9.0591-8.1949-7.7392-8.1949-7.7392" fill="#d7a400"/>
   <path d="m55.544 140.42c-1.4235 11.187-7.9331 21.967-13.915 17.551 0.36708 3.3712 1.0582 5.8234 2.5293 6.0339 3.1866 0.45493 10.498 1.6879 12.292-7.2842 1.5718-7.8545 0.40187-10.512-0.90627-16.3" fill="#b08600"/>
   <path d="m11.44 92.231c-2.9037-0.015561-5.0357-3.8893-4.427-9.8344 0.48792-4.7661 2.7115-10.031 5.9933-9.6678 3.9034 0.43478 4.6751 5.6934 4.5304 10.274-0.18675 5.881-2.5586 9.2476-6.0967 9.2284" fill="#e4eeee"/>
  </g>
  <g fill="#0f141b">
   <path d="m127.83 141.91c6.5251-4.1712 15.099-16.323 15.772-18.007l-1.9471-1.7309c-2.9532 5.9048-8.7148 14.979-15.773 18.075 0.76346 0.56659 1.4592 0.86224 1.948 1.6632"/>
   <path d="m158.72 132.47-2.2318-0.87414c-6.7137 3.8874-18.113 15.61-24.423 22.775l0.22245 3.8078c7.8745-10.32 18.162-20.922 26.432-25.709"/>
   <path d="m130.2 95.72c-2.4561 11.73 3.7377 27.747 28.79 37.544l0.35427-1.3117c-19.628-8.5959-29.181-21.665-26.209-35.859 2.598-12.406 14.455-22.888 25.892-22.888l-0.0375-1.6824c-12.452 0-25.984 10.797-28.79 24.197"/>
  </g>
  <path d="m157.83 301.47q3.75 6.85 2 8.2-2.7 2.1-17.75 6.35 0.75-7.35 2.9-12.8 2.55-6.45 6.2-7.65 2.9-1 6.65 5.9" fill="#eeeeef"/>
  <path d="m177.58 309.67q2.7-2.4 6.6 3.15 3.4 4.75 3.9 8.2 0.3 1.95-5.8 5.9l-8.8 5.5q-2.1-6.35-0.05-14.15 1.7-6.45 4.15-8.6" fill="#eeeeef"/>
  <path d="m188.08 321.02q0.3 2.15-7.2 6.8 0.7-6.25 4.6-13 2.2 3.85 2.6 6.2" fill="#c8c9ca"/>
  <path d="m161.68 310.87q-4.15 1.6-6.2 0.25 1.2-1.05 3.6-7 2.1-5.25 4.95-6.3l11-3.5q7.1-1.95 6.05-0.55l-3.8 5.65-4 6.65q-4.25 0.25-6.15 1.75-2.25 1.85-5.45 3.05" fill="#b08600"/>
  <path d="m149.53 313.82q2.5-5.75 8.8-11.35 1.25 2.5 1.7 4.5 0.5 2.15-0.2 2.7-1.9 1.45-10.3 4.15" fill="#c8c9ca"/>
  <path d="m230.81 282.05c-1.2908 1.0325-3.2168 1.4847-4.4975 1.6806 0.0467-0.1913 0.0915-0.37803 0.13731-0.57757 0.29294-1.2568 0.62341-2.6838 1.3576-4.5172 0.0467-0.11716 0.0696-0.24165 0.097-0.36613 1.4134 0.97666 2.6968 2.4348 2.9751 3.578 0.0256 0.10801 0.0165 0.13181-0.0696 0.20229m-6.6048 0.58307c-0.54102 2.3304-0.7891 3.3941-3.0474 4.649-3.961 2.1996-13.129 8.5163-16.401 11.66-5.1282 4.9263-7.7207 15.368-11.682 20.504-1.0051 1.3025-2.738 2.1748-3.8411 1.9204-1.0564-4.032-5.1703-11.573-8.7533-12.887-1.2496-0.45675-2.4341-0.23341-3.4237 0.64715-0.74149 0.65995-1.623 1.957-2.4744 3.6769 0.13732-5.8526 1.0793-10.811 4.9131-15.84 3.8338-5.0298 0.77536-3.1908-1.1516-0.95927-2.7728 3.2137-4.2402 6.1227-5.0266 8.9437-1.4043 0.043-4.7812 0.27735-6.9545 2.0165-1.3896 1.113-5.8047 3.7611-8.0017 4.465 1.5095-0.13456 2.3764-0.98307 2.7417-2.2316 1.2614-4.3213-3.8411-15.847-9.969-14.381 0.0906-0.9611 0.84036-2.0641 4.9662-4.9117 8.0777-5.5771 14.328-10.44 15.015-13.189 0.64446-2.5767-1.0006-10.932-3.778-20.196-2.229-7.4362-2.1833-10.6-2.0945-11.535 3.1289 3.9359 8.0273 7.3922 10.331 7.1048 1.6304-0.20412 3.0246-1.7291 4.7602-5.0435 2.7472-5.2485 13.242-11.178 19.617-11.178 1.3173 0 5.131-0.4833 6.0802 9.3044 0.63897 6.5831 1.8244 13.732 4.8096 17.047 1.1635 1.2924 14.141 12.892 14.541 14.495 0.40095 1.6018-0.88155 4.6453-1.1772 5.9176m-50.27 48.596c-1.6249-0.52814-0.20597-17.141 4.1166-20.984 0.57763-0.51167 1.1846-0.62517 1.9142-0.35881 3.1591 1.1579 6.9554 8.7433 7.3188 11.286 5e-3 0.0357 8e-3 0.0732 8e-3 0.10984 0 1.8407-11.862 10.31-13.358 9.9469m-14.599-22.131c-2.295 1.7886-15.81 6.5071-16.401 5.9195-1.3402-1.5918 2.9797-16.911 8.4503-18.734 4.2412-1.4096 10.156 10.594 7.9504 12.815m-1.1241-83.042c0.8074-6.8577 13.01-20.947 23.128-22.21 1.4043-0.17483 3.3486 3.5048 4.9122 6.4613 1.3869 2.6243 2.5247 5.8389 4.2613 7.7785 5.3754 6.0009 10.806 8.9373 15.48 9.0069 0.72044 1.2384 1.0308 2.4943 1.0308 3.5854 0 0.56476-0.0604 1.0856-0.14555 1.5378-0.27646 1.4691-0.86325 2.5785-1.3063 3.1863-2.414-3.9817-18.776-1.2211-26.541 10.422-1.656 2.4485-2.4478 4.5364-3.7386 4.7909-3.236 0.63707-18.217-14.904-17.081-24.559m14.589 90.305c-1.2679 4.8568-2.284 15.325 0.68473 16.46 2.4497 0.93547 12.99-6.8348 15.207-9.6696 10.145-0.0568 9.6403-12.909 15.835-20.903 2.4506-3.1625 11.595-9.6494 17.75-12.627 1.8391-0.88879 2.6849-2.3442 3.2479-3.5085 3.68-0.85401 6.8556-2.6892 7.0176-3.9222 0.11352-0.86865-2.457-4.9483-5.173-6.5648-1.3631-2.6746-14.185-12.639-15.626-15.615-5.2618-10.871-3.1115-15.195-5.1282-22.541 2.4909-2.1767 3.4154-8.6426 0.78726-12.545 7.4973-4.5629 12.774-5.7904 16.41-6.6343 1.7576-0.40915 3.3697-0.72677 4.5533-0.98398-0.2078-0.79177-0.94105-1.8728-1.3045-2.5227-0.63896 0.53181-1.9352 0.83662-3.7706 1.2622-3.8796 0.89977-10.611 2.725-19.604 8.6289-5.5703-1.7758-10.035-5.3767-12.628-10.081 4.968-1.125 14.693-5.2815 19.279-10.276 1.548-1.686 3.3129-3.2577 3.2644-3.287-0.70488-0.4238-0.81381-1.1817-1.4171-1.7053-3.8164 1.762-5.4788 9.2302-21.99 13.732-0.57031-0.99588-4.8252-11.455-8.4265-11.311-9.4115 0.37712-25.482 15.393-26.5 24.039-0.63347 5.3904 3.3953 11.303 7.9422 16.831-0.46595 0.98032-0.89895 2.8018-0.30575 6.0659 0.29385 1.6165 7.3161 23.811 6.548 27.268-0.9493 4.2746-14.033 10.392-19.802 16.038-0.78818 0.77162-1.4171 2.4-1.3246 4.0284-3.3898 2.8915-7.3426 12.109-7.4991 18.563-0.0467 1.9204 0.88064 3.0325 3.4173 2.3973 3.7459-0.93547 8.3358-2.9996 12.191-4.6792 3.9116 1.7272 9.351-2.2151 11.001-3.5341 1.1571-0.92724 3.7624-1.7913 5.401-1.9442-0.71036 2.9794-0.79458 6.7616-0.0366 9.5405" fill="#0f141b"/>
  <path d="m345.63 288.27 15.2 0.75q9 1.05 9 3.3 0 5.25 1.25 7.4 2.65 4.6 11.05 3.4l-0.15 0.15q-1.85 1.55-4.9 2.4l-6 0.35q-6.5-1.8-11.4-2.9-9.3-2.05-12.75-1.2l4.8 8.35q1.6 3.75 0.7 9.4-0.7 4.5-3.95 1.2-3.35-3.4-2.85-4.95 0.65-1.25-0.6-5.65l-2.5-8.7q-3-11.75 3.1-13.3" fill="#b08600"/>
  <path d="m382.48 285.52q2.85 0.95 7.55 8.15 5.3 8.15 3.8 13.25-3-1.2-6.7-2.05l-10.15-2.05q-6.1-1.2-1.8-9.7 1.6-3.2 3.85-5.55 2.3-2.4 3.45-2.05" fill="#eeeeef"/>
  <path d="m343.33 313.77q7.95 3.95 9.2 13.35 1.1 8.2-2.4 11.7-1.85-1.85-7-5.2-4.1-2.65-8-4.85-1.45-0.8-1.1-3.65 0.3-2.55 1.9-5.6 3.9-7.5 7.4-5.75" fill="#eeeeef"/>
  <path d="m346.18 315.57q4.6 3.6 6 9.75 1.2 5.2-0.15 9.85-0.65-3-3.05-9.8-2.2-6.25-2.8-9.8" fill="#c8c9ca"/>
  <g fill="#0f141b">
   <path d="m393.21 305.92c-1.4189-0.37346-6.407-1.8911-12.249-3.0389l-3.842-0.76064c-1.461-0.29199-2.3352-0.9968-2.6749-2.1538-0.11443-0.39268-0.16844-0.82106-0.16844-1.2769 0-3.4618 3.074-8.4934 5.7031-11.026 1.3448-1.2961 2.0716-1.4472 2.219-1.3977h9.1e-4c8.7926 4.865 12.431 20.028 11.012 19.654m-21.877-0.99588-2.1631-0.57758c-8.5638-2.324-17.058-4.3524-21.681-3.6806-1.7494-3.3062-1.4445-5.4032-1.9279-8.7817-0.48243-3.3785-1.2175-3.6458-2.1284 0.57575-1.4912 6.9044 4.7199 13.803 4.7199 13.803 2.7508 4.465 4.1304 6.7048 3.096 13.255-0.0385 0.24165-0.0824 0.45858-0.12358 0.68741-1.7109-3.3867-4.308-6.2087-7.5934-7.8517-3.0383-1.5185-7.4955 3.0673-9.4582 6.7872-1.6551 3.1378-1.4802 6.8522-0.52362 8.995-8.8338-2.9135-10.95-9.9872-11.439-13.164-1.083-7.0398-14.23-20.54-15.295-23.345-1.3054-3.4416-1.1946-7.8069-0.69023-17.022 0.31948-5.8215 0.64903-11.842 0.0494-15.633-0.64812-4.1053-1.9187-8.3726-2.9394-11.8-0.79001-2.6517-1.7475-5.871-1.1992-6.7817 2.2355 1.2787 4.6375 1.9341 6.7696 1.6989 7.782-0.86499 20.708 7.395 23.912 9.9973 3.204 2.6023 3.0053 2.2023 5.6079-0.80092 1.7375-2.0055 5.1099-8.162 7.284-13.227 1.5397 2.9831 3.214 9.2101 5.1904 19.49 2.3234 12.082 4.7574 16.233 15.445 18.662 10.069 2.2874 13.248 3.8426 15.486 8.3176 0.0632 0.12632-2.0139 0.22334-4.027 2.2362-3.1234 3.1231-6.9142 10.089-5.726 14.149 0.34603 1.1808 1.6944 2.9236 3.6452 3.4783 0.20139 0.0577 0.53369 0.13639 0.96028 0.23067-1.7576 0.49336-3.6544 0.70206-5.2509 0.30206m-19.391 25.066c0 3.3602-1.1086 7.6449-1.9553 7.719-0.54925 0.0485-5.0248-3.1643-9.0563-5.9597h6e-3c-0.0549-0.0357-0.10893-0.0732-0.16477-0.10892-2.132-1.4783-4.1276-2.8266-5.3223-3.492-0.53369-0.29565-0.79001-1.0261-0.79001-2.0293 0-1.6174 0.66826-3.9442 1.9114-6.303 1.775-3.3629 4.535-6.2874 6.375-5.3666 6.3842 3.1918 8.2113 9.0582 8.734 12.273 0.18034 1.113 0.26181 2.2133 0.26181 3.2678m-51.45-93.71c-4.8902-4.9712-4.8124-10.184-4.8087-10.265 1.8601-1.4224 3.5216-4.2188 5.5639-7.7703 3.6406-6.3304 8.1711-14.209 15.605-16.293 3.5903-1.0078 8.4686 0.17208 16.836 4.0705 10.341 4.8183 11.788 16.323 11.788 22.38 0 1.5076-0.0897 2.6764-0.1547 3.3208-0.38265 3.8435-7.652 17.54-10.053 19.122-3.052-3.5359-18.55-11.955-26.716-11.048-3.453 0.38353-6.2826-1.708-8.0612-3.5167m95.104 68.465c-1.2798-9.1268-5.2728-14.564-10.076-18.683-0.23068-1.1295-0.58037-1.9707-1.2019-2.9465-3.5097-5.5149-7.5934-6.9328-17.561-9.1543-12.812-2.8549-11.344-9.1122-13.296-18.335-2.1787-10.294-4.1926-16.889-6.3494-20.534 0.45039-1.2742 0.75248-2.3661 0.83029-3.1405 0.3506-3.5085 3.3257-19.513-12.952-28.018-8.8356-4.6169-14.53-5.3877-18.76-4.2023-3.7075 1.0398-7.1128 3.5314-9.6458 6.2664-15.167-1.5414-21.802-7.0444-24.487-11.234-0.58221 0.54005-0.83761 0.69016-1.3475 1.2723 3.0246 4.4375 9.7071 10.273 24.129 12.216-2.1805 2.8531-3.9922 5.9954-5.6308 8.843-1.4564 2.5346-4.2393 6.2746-4.2924 6.2188-7.869-8.4714-15.418-12.157-20.603-13.637-0.16935 0.74325-0.31856 1.492-0.45862 2.2453 12.506 4.3552 19.531 13.386 19.531 13.386-0.69206 4.3817 2.6227 11.452 5.9539 13.347-1.407 0.91533-0.3204 4.0073 1.1562 8.9666 1.0527 3.5378 4.2018 10.718 3.8887 16.418-0.55108 10.09-2.0688 23.433-0.86415 27.221 1.7613 5.5378 15.124 16.131 16.274 24.06 1.0903 7.5186 6.1251 14.281 16.884 15.984 2.0469 0.32403 7.1732 4.8934 9.1899 6.6224 1.5654 1.341 4.7501 4.1428 6.1516 1.74 1.4024-2.4018 1.8858-5.6046 1.8858-9.546 0-1.1497-0.82754-5.4261-1.061-6.2453 0.36984-1.1936 0.39272-2.4311 0.6408-3.9982 0.25266-1.5991 0.36983-2.9822 0.36983-4.2151 0-4.4732-1.5416-6.9767-3.7789-10.609 0 0-0.65911-1.1085-1.2816-2.1538 4.4993-0.21694 12.624 1.6229 19.217 4.1748 4.5753 1.47 7.6127 1.0142 12.65-1.6082 4.8032 0.95653 11.251 2.6398 12.692 2.6819 2.1329 0.0613 2.6657-0.10068 2.2016-3.4041"/>
   <path d="m73.042 131.84c-4.1084 1.3693-7.1559 5.4572-8.4503 8.0476l1.5397 0.95927c0.88704-1.7748 4.0031-4.8476 7.8946-6.1446 1.8711-0.62426 4.8023-0.78627 6.9499 0.2865 6.0216 3.0105 25.692 2.9144 34.275 2.3964 9.8225 0.34416 13.319 8.3195 14.362 11.734 0.63073 2.0659 0.93098 4.1776 0.93098 6.1959 0 4.4732-1.4894 8.4659-4.1505 10.436-3.1042 1.5259-8.6681 2.9657-14.573 4.4897-5.9951 1.5469-12.193 3.146-16.368 5.0014-6.8089 3.0261-15.359 6.195-21.089 3.8224-2.3224-0.96293-3.9592-2.7478-5.0019-5.4581l-2.1512 0.82746c1.2642 3.2851 3.4127 6.4833 6.31 7.6842 6.5398 2.7085 15.637-0.90527 22.867-4.1163 4.0004-1.7785 10.104-4.0064 16.008-5.5295 6.0857-1.5707 11.834-3.0536 15.137-4.7057l0.0842-0.0421 0.0769-0.0549c4.7401-3.4352 6.4739-11.519 4.1212-19.223-2.4716-8.0943-8.6755-13.089-16.595-13.363-10.47 0.62792-28.156-0.27918-33.216-2.8082-2.2574-1.1295-5.6884-1.5259-8.9638-0.43478"/>
   <path d="m75.347 141.91c-1.255-1.1295-1.8647-1.0865-0.63622 0.54096 0.82754 1.0801 1.2962 1.9076 1.959 3.1085-2.4277-0.0485-12.349-6.1272-14.488-10.003-4.3135-7.817-11.982-13.149-22.627-8.0092l0.60052 2.8028c11.913-5.7501 16.979 2.4266 19.603 6.1199 2.6245 3.6915 13.424 11.295 17.87 11.598 3.745 5.8828 4.8691 16.251 2.1778 20.444-8.0209 2.5574-13.812 4.5437-17.228 5.7913 0.29385 0.74692 0.89711 1.7693 1.1507 2.4613 3.4603-1.2595 9.0389-3.7089 14.98-5.7611-0.88796 1.1762-1.8482 2.1364-2.6401 2.9529-1.3832 1.4243 0.20505 1.3529 1.104 0.64806 10.824-8.4989 6.2038-25.465-1.8244-32.695"/>
   <path d="m40.681 162.55c-0.79184 0-1.1251-0.032-1.9169-0.032 0.81198 3.4398 1.5599 7.4087 1.9892 10.066 0.75889-0.30207 1.1415-0.46683 1.8482-0.71946-0.41011-2.3835-1.2459-6.4101-1.9206-9.3144"/>
   <path d="m42.505 135.57c-1.3649-6.2673-2.4442-12.597-2.6895-15.651-0.24716-3.1057 1.1781-5.9122 2.2693-8.9749 2.0707-5.8087 5.1062-13.048 1.6597-27.512-4.1157-17.265-20.105-24.819-30.432-21.393-10.566 3.5048-16.204 19.909-11.811 36.084 2.9889 11.009 11.225 16.199 17.52 19.974 3.7084 2.2243 7.3508 4.259 8.5986 6.9108 1.4802 3.1442 4.0828 10.794 6.6267 19.3 0.85775 0 1.1333-0.22426 1.9544-0.22426-2.6382-8.8696-5.3525-16.809-6.9352-20.172-1.5471-3.2851-5.0284-5.373-9.059-7.7904-6.2514-3.7483-13.335-7.9954-16.082-18.111-4.0819-15.034 0.44764-30.385 9.8921-33.516 9.4572-3.1378 23.666 5.3831 27.027 19.482 3.2891 13.799 0.83853 20.672-1.1305 26.193-1.1315 3.1753-2.1998 6.1739-1.9123 9.7721 0.25998 3.2522 1.5672 10.481 3.0639 17.26 0.49158-0.64439 0.69847-1.2366 1.44-1.632"/>
   <path d="m49.663 163.67c-0.89894 0.0531-1.1013 0.23982-1.7228 0.64348 0.69389 2.5492 1.3713 4.9694 2.0084 7.1744 0.81656-0.0732 1.1516-0.10069 1.9672 0.18307-0.70579-2.4165-1.4674-5.1222-2.2529-8.0009"/>
   <path d="m64.486 195.54c-0.4989-2.249-6.1745-8.3973-7.0002-9.5652-0.8248 0.21968-1.1928 0.39817-2.0185 0.48329 1.0829 1.6458 2.6602 3.5561 3.6232 4.7176 1.5004 1.8087 2.6858 3.2384 3.0648 4.9437 0.02563 0.11807 0.05584 0.25171-0.21329 0.48604-2.1137 1.8362-11.908 1.6586-15.104 0.46133-1.8208-0.68284-2.5257-5.6302-2.8927-11.092-0.80466-0.011-1.1159 0.0165-1.9215 0.0961 0.25266 6.9721 0.69572 12.107 3.7459 13.249 3.2113 1.2046 14.64 1.6595 17.765-1.0545 0.84127-0.73136 1.18-1.6998 0.95112-2.7259"/>
   <path d="m26.468 144.07c-2.1567 0.87048-1.4207 1.503 0.32772 1.2266 1.7494-0.27735 6.7778-0.96293 13.596 0.21236v-2.335c-5.3662-0.84943-11.576-0.0513-13.924 0.89611"/>
   <path d="m33.845 159.53c-4.1194-0.9373-8.3798-1.9076-10.266-2.5364-1.8647-0.62151-3.5747-6.6829-2.8598-13.814 0.2792-2.7973 4.1981-6.2792 10.751-9.5543l-0.8724-2.8101c-5.2225 2.6096-11.814 6.9849-12.282 11.666-0.76346 7.6293 0.28104 15.059 4.3592 16.419 3.8256 1.2742 15.157 4.2435 20.363 4.9053-0.53644-0.80733-1.0006-1.827-1.2633-2.9227-2.4048 0.0284-5.3809-0.77254-7.9294-1.3529"/>
   <path d="m28.038 177.41c0 5.3803 2.4753 8.7863 6.5206 8.7863 0 0 18.012 1.0838 22.446 0.74326 4.0956-0.31579 6.8199-3.665 7.49-7.3932 0.59686-3.3144-0.73966-6.3716-3.4319-7.7181-5.2948-2.6462-17.745-1.3126-22.255 1.2604-2.7325 1.5597-1.9471 2.0915 0.30026 1.0993 3.6855-1.6275 16.842-2.5574 20.67-0.79176 2.3902 1.1039 2.6401 4.2847 2.403 5.6064-0.5044 2.8055-2.4204 5.4819-5.3644 5.708-4.3235 0.33226-22.676-4e-3 -22.676-4e-3 -3.5775 0-3.8548-5.7392-3.8548-7.4975 0-3.7181 6.0564-8.4678 10.243-10.329l-0.71311-2.313c-3.788 1.6833-11.778 7.3474-11.778 12.842"/>
   <path d="m39.82 144.5c0.51721 9.3053 1.245 17.766 2.2043 19.013 2.8561 3.7162 13.565 3.3794 15.509-6.336 1.2587-6.2938-0.26273-15.957-1.9938-17.75-1.2596-1.3044-1.6194-1.0078-1.093 0.36338 0.52545 1.3721 2.6099 8.0321 0.87423 16.709-1.5251 7.6266-10.029 8.4696-11.536 5.9067-1.1196-1.9021-1.5471-14.319-1.6633-18.036-0.2435-7.8078 1.6377-9.816 5.7699-11.669 2.7454-1.2293 1.4033-1.8398-0.77719-1.2586-5.5301 1.4746-7.7381 5.0673-7.2941 13.056"/>
   <path d="m279.35 177.09c-5e-3 -0.0146 0.5044 1.4929 0.5044 1.4929 3.9153 11.165 2.9028 13.542 1.9508 13.965-3.4136 1.5176-6.1617 7.1744-8.5601 14.088-2.1247 6.1263-3.8548 13.384-7.1018 15.605-6.5142 4.4558-25.419 5.7254-32.627 2.1913-1.5663-0.76797-2.3911-1.6687-2.4515-2.6737-0.34237-5.8261-8.6443-13.915-14.706-19.821-2.067-2.0146-4.2045-4.097-4.5341-4.7552-0.96394-1.9295 3.1985-11.682 6.4821-14.468 0.10527 0.22517 0.2197 0.4476 0.31582 0.67552 0.48609 1.1533 1.6294 2.1016 4.1102 2.6178 27.493 5.7254 50.664-8.1135 50.614-11.605-5e-3 -0.33501 0.0119-0.6508 0.0156-0.97849 3.1317 1.4481 5.5658 2.379 5.9878 3.665m21.369-97.941c-9.73-7.6467-25.095-10.277-42.045-3.4975l-1.2074 2.6545c21.281-8.5117 35.847-2.0458 41.829 2.6545 7.2575 5.7034 10.913 13.875 10.255 18.479-0.44581 3.1222 0.0201 7.8316-0.75797 11.168-3.2031-1.9066-9.3748-4.4522-13.12-5.892 2.0862-1.0801 3.6754-1.9213 4.2851-2.3652 0.66735-0.48695-0.0696-1.416-1.0564-1.1039-1.6432 0.51991-4.9314 2.2169-6.0738 3.0005-8.7185 5.9707-11.176 14.957-10.155 21.82 0.38265 2.5675 0.83029 3.3144 1.267 3.2449 0.24533-0.0394 0.29568-0.746 0.20963-1.6604-0.11168-1.1643-0.1483-2.5455-0.087-3.1066 1.4564 3.3712 4.8764 7.643 7.1806 10.381-10.156 2.508-28.13 2.7488-34.984 2.7488-4.7346 0-14.821-14.76-15.634-18.014l-1.9334 0.50161c0.66276 2.6462 10.602 19.966 17.43 20.482 7.6337 0.57575 29.712-2.2563 35.483-3.7034-2.2108 5.125-7.0799 9.4902-9.5579 11.651-7.436 6.4906-10.843 14.143-10.995 25.282-0.0687 4.8275-31.687 15.446-47.581 9.9314-2.5046-0.86956-2.9605-1.1149-2.9632-1.1213-3.7258-8.8485-11.474-14.158-11.876-14.445 0 0 4.9515-0.41831-4.4599-2.4202-4.1139-0.87506-8.9254-2.8238-11.716-4.2197-2.4973-1.2476-5.8056-6.8769-8.4558-11.613-0.60143 0.61969-1.2697 1.1826-1.8977 1.7492 3.2223 6.0723 5.7031 11.47 8.4905 12.864 2.8451 1.4224 13.936 3.7227 15.117 4.0934 5.2518 3.8545 9.9671 7.9991 12.098 12.3-5.2335 4.3204-8.5098 14.108-8.0191 16.319 0.19224 0.86316 2.5275 3.178 5.4733 6.0485 11.142 10.854 13.349 15.898 13.504 18.532 0.0769 1.3044 0.92732 3.0673 3.8768 4.5126 8.3093 4.0742 29.219 2.6124 35.596-1.7483 3.8741-2.6499 5.5108-10.173 7.8607-16.95 2.0359-5.8719 4.9405-12.002 7.3582-13.284 2.208-1.1716 1.9233-9.6559-2.0808-17.875-0.94747-2.1044-4.0334-4.3927-7.9221-5.2568 1.1315-9.4746 5.174-17.563 9.8664-20.883 4.6815-3.3135 9.5881-8.9721 10.341-12.733 0.74698-0.18398 1.7036-0.81282 2.7829-1.7446-3.7734-2.681-10.519-12.145-11.601-14.97 0.56665-6.1272 3.951-12.536 9.1863-15.173 8.5693 2.8055 17.564 9.4371 18.178 9.73 0.53552-0.94463 0.82388-1.5726 0.77079-1.7346-0.25907-0.7881-0.44856-0.84394-1.689-1.7822 1.3557-4.8595 1.4473-9.8041 1.689-11.491 0.73874-5.179-4.0489-14.909-12.259-21.36"/>
  </g>
  <g>
   <path d="m349.61 171.68-20.82-39.763-16.474-20.72c-4.0974 0.91076-8.6498 1.8206-11.837 2.7304-3.1866 0.91168-8.1949 8.6499-8.1949 14.568 0 5.9176 5.9182 13.657 8.1949 25.038 2.2767 11.38 2.7325 11.38 5.4632 15.023-1.8208 6.8284 6.829 18.666 18.211 25.493 11.382 6.8275 28.227 9.1048 34.601 2.7314z" fill="#d7a400"/>
   <path d="m358.76 196.78-9.1442-25.102-20.82-39.763-16.474-20.72c-3.5683 0.79268-7.4808 1.5844-10.537 2.379 4.686 10.721 3.5839 23.547-3.9995 30.858 1.0509 2.7542 2.0332 5.7666 2.6996 9.1002 0.23252 1.167 0.44672 2.2087 0.64537 3.1524 18.019 7.8417 33.802 23.487 38.008 43.042 8.0228 1.589 15.754 0.92266 19.622-2.9465" fill="#b08600"/>
   <path d="m336.13 184.78c-6.5828-1.5927-9.5378-3.8902-13.716-5.3785-8.9858-3.2-8.984-4.6353-16.674-9.9497-1.3063 6.8925 7.3014 17.927 18.42 24.596 11.382 6.8275 26.036 10.282 32.411 3.9094l-1.4216-11.094c-14.715 4.6398-16.061 0.0686-19.019-2.0833" fill="#a4725d"/>
   <path d="m356.57 197.96-1.4207-11.093c-14.716 4.6389-16.061 0.0677-19.02-2.0842-6.5828-1.5927-9.5378-3.8902-13.716-5.3776-0.0256-0.0101-0.0467-0.0183-0.0723-0.0275 2.3984 4.8073 3.5976 10.19 3.1756 15.448 11.166 6.2984 24.928 9.2586 31.053 3.1341" fill="#815848"/>
   <path d="m335.99 99.363c4.0974-12.292 2.7307-32.322-10.927-45.524-13.657-13.202-24.643-10.569-30.048-7.2833-11.037 6.7112-14.57 28.225-5.4632 42.337 9.1057 14.113 16.846 19.574 25.496 22.307z" fill="#c6dcdb"/>
   <path d="m329.44 58.834c-4.3766-3.5799-9.3053-8.8-14.924-6.5529-12.676 4.6087-9.9626 26.74-6.2917 40.371 1.7466 6.4879 5.2719 7.6458 11.034 9.9497 2.0853 0.69565 4.0297 1.7181 5.9109 2.8787l10.827-6.1181c3.6086-10.825 2.9742-27.65-6.5553-40.528" fill="#a7bab9"/>
   <path d="m328.25 130.32c3.6425 5.4627 22.748 41.262 25.04 48.71 1.4958 4.8613 1.3328 10.111 1.9004 14.51 0.81381 6.3122 2.3526 10.879 5.8395 10.073 5.9191-1.3657 20.032-12.291 19.121-18.21-0.90993-5.9186-9.5607-3.643-15.024-14.113-5.4632-10.471-19.577-32.322-23.219-43.703z" fill="#c6dcdb"/>
   <path d="m341.91 127.59-13.659 2.7314c1.0527 1.578 3.399 5.6952 6.2532 10.922 3.4356-1.871 7.3966-3.0993 11.653-3.7941-1.8519-3.6961-3.3605-7.0893-4.2476-9.8591" fill="#a7bab9"/>
   <path d="m380.16 185.4c-0.91085-5.9186-9.5607-3.6421-15.024-14.113-3.2809-6.2874-9.6751-16.676-15.055-26.439-4.0581 1.0481-7.5449 2.7918-10.818 5.2339 6.17 11.663 12.75 24.765 14.036 28.945 0.27645 0.89886 0.51904 1.8105 0.73691 2.7268 3.7743-1.2366 7.8699-1.6659 11.318-0.80275 12.34 4.1126 4.7144 12.922-1.0802 21.4 6.678-3.3556 16.656-11.943 15.886-16.95" fill="#a7bab9"/>
   <path d="m356.9 138.57c2.5522-6.9263 7.7884-23.697 6.8693-27.826-0.91176-4.098-6.829-14.568-14.114-15.023-7.2858-0.45584-25.042 8.6499-30.96 11.381-5.9182 2.7304-11.837 3.6421-14.114 14.112-2.2767 10.471-9.1066 25.494-6.3741 30.501 2.7325 5.0078 11.359 8.8641 16.391 5.9186 4.7401-2.7753 11.838-15.022 12.293-25.037 3.9546-0.9135 15.143-5.0124 15.143-5.0124s4.6668 14.328 7.3728 13.703c2.7069-0.62517 7.4927-2.7167 7.4927-2.7167" fill="#d7a400"/>
   <path d="m363.77 110.74c-0.48517-2.1785-2.3938-6.152-5.1621-9.471-6.8327 12.868-25.982 13.37-34.738 23.221-7.0268 9.0334-12.308 25.056-24.978 28.277 3.2763 4.4678 11.037 7.5964 15.708 4.8632 4.7401-2.7762 11.838-15.023 12.293-25.038 3.9546-0.91351 15.143-5.0124 15.143-5.0124s4.6668 14.329 7.3737 13.703c2.706-0.62426 7.4918-2.7167 7.4918-2.7167 2.5522-6.9263 7.7884-23.696 6.8693-27.826" fill="#b08600"/>
   <path d="m369 176.47c3.6187-3.3703 13.784-17.124 17.075-29.766 0.92549-3.5515-0.90993-12.747-7.284-15.023-6.3741-2.2746-12.059-0.21236-18.434 3.8847-6.375 4.098-21.631 11.595-24.818 13.871-3.1866 2.2755-13.659 25.493-11.382 29.135 2.2757 3.6412 15.634 11.994 26.562-8.4916 3.2681-0.93456 7.5129-2.8192 11.702-4.7488 2.1238 4.6234 6.5791 11.139 6.5791 11.139" fill="#d7a400"/>
   <path d="m380.18 132.34c-2.0515 15.394-26.642 17.936-33.266 27.871-4.4938 7.0609-7.9184 16.621-13.852 23.109 5.184 0.45584 11.772-2.2069 17.658-13.24 3.2681-0.93364 7.3216-3.0105 11.511-4.9401 2.1229 4.6234 7.0094 11.042 7.0094 11.042 3.6187-3.3694 13.545-16.835 16.836-29.477 0.855-3.2778-0.6527-11.348-5.8962-14.365" fill="#b08600"/>
   <path d="m188.94 47.92c-26.406-26.859-42.743-43.505-45.475-46.236-2.7325-2.7304-4.351-0.93181-2.7856 3.8993 1.2706 3.9213 17.266 55.949 18.633 64.143-1.3841 1.2622-3.6544 9.4179-3.9418 15.467-3.6434 2.7314-19.121 15.81-23.078 19.217-3.2543 2.8028-1.937 3.7959 2.1604 5.6174 4.0984 1.8206 23.538 7.5863 23.983 15.283 0.44398 7.6961 1.8208 26.404 5.9182 29.135 4.0983 2.7304 11.382 3.6412 14.114 0.90985 2.7316-2.7314 30.96-30.501 39.154-31.866 8.1949-1.3657 42.291-3.0444 43.731-3.0444 3.1079 0 5.1602-1.0069 1.7979-7.4261-2.0808-3.9716-11.384-22.306-7.2858-31.411 4.0984-9.1067 51.263-67.062 53.724-70.107 2.911-3.6037 1.9782-6.7103-3.6425-3.643-6.9892 3.816-81.495 42.338-81.495 42.338s-13.658-9.1048-35.512-2.2764" fill="#d7a400"/>
  </g>
  <g fill="#b08600">
   <path d="m211.97 112.15c7.1192-1.2201 8.5436-17.695 15.257-24.612 6.7119-6.9154 4.6787-19.932 2.6437-22.374-2.0341-2.4412-1.6267 11.39-12.409 18.712-10.781 7.3227-25.032 17.924-27.27 20.365-2.2373 2.4412-16.132 36.151-15.484 36.727 1.256 1.1158 16.108-22.921 20.175-25.158 4.0681-2.2371 9.968-2.4412 17.087-3.6613"/>
   <path d="m177.23 53.617c3.2461-1.6229 8.7862-4.3213 12.099-5.4005-8.7917-8.9428-30.003-31.115-36.432-37.657 12.026 21.196 22.702 43.873 24.333 43.057"/>
   <path d="m184.22 139.1s1.3118 6.8174-1.1296 11.902c3.8082-2.3231 8.7359-7.4572 9.1478-8.7122 0.41285-1.254-8.0182-3.1899-8.0182-3.1899"/>
   <path d="m309.59 11.501c0.71586-0.88513-2.4149-2.0687-14.213 10.135-11.798 12.204-44.75 46.172-45.362 54.715-0.61058 8.5428 3.7093 18.71 7.0295 22.43-1.9856-6.0961-3.1783-12.732-1.1791-17.174 4.0993-9.1057 51.264-67.062 53.724-70.107"/>
  </g>
  <g>
   <path d="m168.9 100.92-8.5034-7.2458c0 1.3867-0.42659 8.0568 1.4445 10.351 2.608 3.1973 6.0345 4.4714 6.0345 4.4714z" fill="#fff"/>
   <path d="m191.84 103.34 20.834-8.7305c0.23069 5.3172-2.7746 13.87-5.3177 15.026-2.543 1.157-16.184 2.5428-17.571 0.46316-1.3878-2.0815-0.69389-3.2366-0.69389-3.2366z" fill="#fff"/>
   <path d="m169 100.39-8.5034-7.2458c0 0.60595-0.0174 1.4664-0.16478 3.1963 3.6013 2.4979 5.7479 4.2014 8.3395 6.4778z" fill="#dbdcdc"/>
   <path d="m194.37 104.7c3.0246-1.3922 9.6989-3.4563 18.293-7.2009 0.50989-2.1062 0.0879-1.1121 0.011-2.8925l-20.835 8.7305-2.7508 2.995s-0.40278 3.0618 0.24076 2.2572c1.3438-1.6806 2.3828-2.6032 5.0412-3.8893" fill="#dbdcdc"/>
   <path d="m187.2 136.35c5.4687-0.26453 12.923 1.1268 19.213 4.8659 7.0909 4.216 18.853 23.155 30.229 34.837 16.366 16.806 37.695 16.051 47.836 12.398 1.6066-0.57757 2.0643 0.57209 0.82937 1.7007-3.8292 3.5012-8.9583 6.1373-8.9583 6.1373s12.296-1.0233 15.371-2.0485c-0.25723 1.7922-9.7355 7.9405-9.7355 7.9405s3.5876 3.8426 4.8682 4.3552c-1.537 2.0485-5.8926 3.3291-5.8926 3.3291s5.3808 9.4792 8.7102 12.04c-3.5857 0.76888-13.577-1.7941-13.577-1.7941s1.2807 5.1231 4.0984 6.66c-3.074 1.0243-8.453 1.0243-13.065-1.0252 1.537 3.3309 3.8429 7.1726 3.8429 7.1726s-12.836-0.1611-27.412-14.344c-9.1643-8.9172-15.07-19.921-27.154-46.876-11.508-25.669-24.691-32.044-31.47-32.528z" fill="#d7a400"/>
   <path d="m280.97 209.86s4.2759-1.2595 5.8477-3.2778c-2.0432 0.39542-9.135-0.2627-12.593-1.4828-1.6093-0.56843 2.2831 6.1144 0.60967 6.508-4.2759 1.0069-8.919-0.21602-11.188-0.61052-2.5348-0.44028 3.8649 7.3218 2.4414 8.1355-1.4235 0.81464-20.148-2.7332-31.437-11.424 2.8424 4.2883 5.6765 7.7062 8.9171 10.861 14.576 14.183 28.857 14.813 28.857 14.813s-3.7514-4.3112-5.2884-7.6412c4.6119 2.0494 11.457 3.0728 14.531 2.0494-2.8177-1.5378-5.563-7.6851-5.563-7.6851s9.99 2.5629 13.577 1.794c-3.3303-2.5611-8.7102-12.039-8.7102-12.039" fill="#b08600"/>
   <path d="m290.27 64.887c0.34237-3.665 1.6093-6.9657 3.8612-8.1327 5.1776-2.6801 10.431 2.7433 10.431 7.5689 0 10.51-2.2428 15.33-5.9008 15.487-6.0015 0.25629-8.9473-8.9913-8.3917-14.923" fill="#e4eeee"/>
   <path d="m183.47 53.36c-6.6121 2.4192-17.734 10.803-17.938 17.936-0.20413 7.1332 8.1903 12.793 9.3758 7.5405 1.4272-6.3186 4.0773-15.083 13.25-21.808 4.4169-3.2385 3.669-6.7259-4.6879-3.6687" fill="#d7a400"/>
  </g>
  <g fill="#0f141b">
   <path d="m293.04 128.87c-1.3951-5.7529 4.124-12.987 7.5623-13.971 2.3499-0.67094 5.7287-1.222 8.8082-1.8883l2.6575-2.9373s-9.0169 1.946-11.97 3.1698c-6.8803 2.8522-9.871 10.922-9.1469 15.843 1.2642 8.5831 5.3506 14.596 6.2294 17.033 0.0238-1.4288 0.14555-2.487 0.75705-3.8545-1.4436-2.7808-3.745-8.6417-4.8975-13.395"/>
   <path d="m294.35 44.657c-11.062 6.7268-15.03 26.769-5.7232 44.534 6.3375 12.099 16.324 18.724 24.775 21.605l2.2556-2.0165c-9.622-3.0389-18.485-7.6815-25.133-20.511-6.981-13.476-5.4495-36.525 5.304-41.326 12.912-5.7639 27.732 2.5584 35.686 17.354 6.0839 11.314 6.6496 24.919 3.3889 34.701l2.1851 0.72861c3.3514-10.053 3.5271-24.19-2.8113-36.363-8.5006-16.331-28.157-25.859-39.927-18.706"/>
   <path d="m333.99 184.62c5.8349 6.3662 15.827 6.8952 20.893 3.1808l-0.5758-2.5913c-6.6963 4.908-14.79 2.8833-19.043-1.7574z"/>
   <path d="m343.01 127.24-2.1943 0.70298c1.2532 3.9185 3.7441 9.081 6.6744 14.56 0.72593-0.27552 1.44-0.56842 2.1357-0.8897-2.9174-5.4417-5.3928-10.551-6.6158-14.374"/>
   <path d="m381.12 185.4c-0.50623-3.2925-3.1793-4.4568-5.834-5.7611-5.3616-2.6343-8.0447-5.449-11.996-14.778-0.83303 0.3103-0.95204 0.52174-1.7832 0.85584 1.2816 2.2407 1.9892 4.0531 2.8808 5.7611 3.1463 6.0302 7.1165 8.4623 10.22 9.9872 2.6822 1.3181 4.0974 2.0998 4.4068 4.1108 1.0427 6.7753-16.574 18.784-19.453 16.761-1.4857-1.0371-3.6351-5.2778-3.9134-10.023-0.47968-8.1611-1.1772-14.259-4.9323-22.233-0.97035 0.89703-0.81198 0.72678-1.5013 1.8526 2.3874 5.2989 3.885 11.674 4.3931 19.587 0.83853 13.036 5.0366 12.91 7.6346 12.675 6.3384-0.57392 21.093-10.9 19.877-18.795"/>
   <path d="m338.45 146.34c-3.7606-6.941-7.0854-12.796-8.5043-14.925l-2.6236-0.022c1.4693 2.205 5.0806 8.7469 9.2183 16.708 0.73966-0.82289 1.0134-1.1726 1.9096-1.7602"/>
   <path d="m316.72 106.62c-5.6976 2.8302-10.712 7.135-13.27 14.352-1.1928 3.3638-8.4512 24.59-6.0903 30.73 1.2752 3.3144 5.1145 6.3497 9.2183 7.4893 3.2031 0.8897 6.2679 0.73043 8.4988-0.57575 4.0068-2.3451 12.271-16.443 13.036-25.853 6.7705-0.28833 16.176-3.8307 20.527-9.5058 1.656-2.1611 2.0936-3.4801-0.9438-0.81007-1.7146 1.5076-5.7781 3.7364-9.795 5.4728-3.8942 1.6815-6.6542 2.2133-11.444 2.4659-0.66825 0.0357-0.71128 0.64714-0.72135 2.1593-0.0403 5.7181-7.4122 21.572-11.724 24.095-1.689 0.98948-4.0498 1.1368-6.6478 0.41648-3.4786-0.9666-6.754-3.3336-8.1491-5.892-1.6029-2.9373 4.676-25.868 6.4885-29.704 3.6763-7.7776 7.2886-10.436 12.495-12.968 4.5002-2.1886 25.383-11.995 31.381-11.62 6.5334 0.40824 12.19 10.206 13.06 14.123 0.80008 3.5918-3.9436 19.361-6.8245 27.178l3.3395-1.8838c1.6386-4.4476 6.4382-21.089 5.3296-26.068-0.93007-4.1831-6.6249-15.987-14.788-16.498-6.5956-0.41098-27.465 10.16-32.975 12.896"/>
   <path d="m360.41 133.83c-3.3916 2.1812-24.435 13.012-25.978 14.114-3.3184 2.3707-13.761 26.621-10.856 31.266 1.4546 2.3277 5.3323 5.5167 10.803 5.3291 4.4435-0.15286 10.659-2.9456 16.565-13.731 8.8732-2.3606 18.598-8.0247 21.799-14.018 0.98225-1.838 1.8217-4.6481-1.3933-0.50343-7.6328 9.8398-22.275 10.784-22.511 13.618-0.23618 2.8339-8.7038 12.121-14.304 12.313-4.665 0.1611-8.4256-2.6902-9.4032-4.2526-1.753-2.8064 7.9742-25.487 10.545-27.898 1.5361-1.4398 21.702-11.809 25.639-13.922 8.9592-4.8064 12.936-4.8558 17.087-3.3739 5.2042 1.8572 7.8662 8.6197 6.5562 13.648-3.2909 12.638-12.822 25.567-16.061 28.582l1.5407 2.0485c3.4923-3.2522 13.156-16.01 16.612-29.285 1.4729-5.6577-0.2435-15.093-7.8736-17.818-4.9076-1.752-10.786-1.2458-18.766 3.8838"/>
   <path d="m159.62 92.17s-0.34511 9.6934 1.3228 11.737c2.7078 3.3199 7.0991 4.8 7.2868 4.8723l-0.0723-1.0096c-0.043-0.0165-3.7816-1.5323-6.223-4.5236-1.245-1.5259-0.75431-9.5698-0.75431-9.5698z"/>
   <path d="m211.9 94.639c0.22702 5.2247-2.8195 13.354-4.8618 14.283-2.8369 1.2897-15.656 2.1336-16.598 0.73959-1.0536-1.5808-0.69023-2.7927-0.67284-2.8266l-0.79275 0.50435c-0.097 0.16201-0.34329 1.2284 0.64903 2.8806 1.072 1.7895 13.717 1.8636 18.293-0.21602 3.0575-1.3895 6.6405-11.022 6.4098-16.347z"/>
   <path d="m192.93 101.58c-2.8589 1.351-3.8082 2.1236-6.7805 9.3401 0 0-10.192 24.995-11.322 27.689-1.1287 2.6947-0.59411 2.789 0.82022 0.27643 1.4143-2.5135 12.1-27.306 12.1-27.306 1.7182-4.173 2.6657-6.4714 6.8739-8.4604 0 0 18.078-5.9597 24.672-12.006 2.1357-1.957 1.7219-2.5913-0.86599-0.66911-4.6101 3.4224-14.857 7.7327-25.498 11.136"/>
   <path d="m158.31 91.695c2.5641 3.6641 5.6692 5.6632 10.426 10.17-1.018 7.3813-3.7322 30.032-4.3217 35.359-0.22977 2.0723 0.34237 3.6879 0.85775 0.0604 0.51538-3.6284 3.7981-28.817 5.1035-34.821 0.1602-1.1021-0.0503-1.47-1.0637-2.2307-4.2247-3.168-8.6663-7.0325-11.043-9.4096-1.4262-1.4261-1.3292-1.0856 0.0412 0.8714"/>
   <path d="m166.18 150.92c-0.15745-1.3126-0.59136-2.3707-0.76804-2.8174-0.53552-1.3501-1.1113-1.7108-1.0216 0.0366 0.0842 1.6375 0.20139 2.0815 0.5758 3.1332 0.37166 1.0407 1.3713 0.96019 1.2138-0.3524"/>
   <path d="m172.03 152.15c0.17393-1.4526 0.44947-2.1547 0.91817-3.0252 0.67833-1.2595 1.1122-1.513 0.93922 0.22792-0.13273 1.3282-0.29751 2.1327-0.66917 3.1744s-1.3457 0.93455-1.1882-0.37712"/>
   <path d="m167.08 100.23c-0.10619 1.6055-0.53644 3.3172-1.0536 3.2824-0.51447-0.0339-0.85409-3.4774-0.74699-5.0829 0.10619-1.6046 1.9087 0.19497 1.8006 1.8005"/>
   <path d="m195.68 102.3c0 3.0847 0.69206 4.6938 1.2862 4.6938 0.44398 0 1.2871-1.7648 1.2871-5.4865 0-0.84577-2.5732 0.18215-2.5732 0.79268"/>
   <path d="m187.17 135.57c-1.3384 0.043-2.0478 0.64531 0.48151 0.89794 13.987 1.3996 18.833 3.9506 33.376 22.66 25.742 33.117 43.705 36.926 62.811 30.763-3.5619 3.0407-6.6094 4.2215-8.0136 5.3739-2.0084 1.6467-1.7137 2.1849 0.6234 2.1721 1.5141-9e-3 7.3243-0.61694 12.053-1.3574-1.8391 1.5085-5.5118 4.1163-7.1394 5.135-1.6285 1.0188 2.3572 4.0787 3.6525 5.4591 1.2953 1.3794-6.0894 1.3355-5.0531 3.7593 1.0372 2.4256 3.8356 6.6984 7.0606 10.427-3.4347-0.19405-8.1701-1.2915-10.639-1.8636-1.7686-0.4119-1.9242 0.10984-1.4033 1.395 0.74698 1.8444 2.5522 4.476 5.433 7.1158-3.2168-0.14371-11.031-2.2087-12.814-2.8137-1.5919-0.54096-2.338-0.28101-1.5141 1.5359 0.8843 1.9506 2.7563 4.3991 5.1584 6.6078-4.1725-0.72128-16.286-4.7826-26.878-15.088-9.1103-8.8641-14.97-19.896-26.906-46.522-13.942-31.098-29.023-31.565-32.736-32.439-1.1241-0.26545-1.7512 0.40549 0.52545 0.91167 2.2776 0.50527 16.728 2.6316 30.107 32.471 12.069 26.923 17.718 38.194 27.097 47.32 8.7377 8.5025 18.321 13.25 28.115 14.787 5.1959 0.81648 4.2439-0.55469 2.587-2.1959-1.6139-1.5973-2.8332-2.6654-4.459-4.9584 4.2439 1.1826 8.691 1.8719 11.667 1.633 2.3938-0.19222 2.5696-0.44668 0.38264-2.9959-1.5196-1.7712-2.6099-3.0398-3.5509-4.6371 3.2168 0.73227 8.9913 2.2179 12.721 1.9094 3.7285-0.30847 2.2492-0.23067 0.45954-2.0403-1.7887-1.8096-6.5196-7.4005-8.3789-10.528 1.6322-0.33593 2.1888-0.39176 4.4654-1.1515 2.9669-0.99039 2.9348-1.8233 0.76713-3.6494-1.7329-1.4609-2.0048-1.8169-3.4475-3.2842 4.2457-2.8165 5.2316-3.7419 7.2776-6.0293 1.8812-2.1025 1.4885-2.9895-2.0524-2.5565-1.7649 0.21693-3.7871 0.45492-7.6914 0.8659 1.1077-0.73501 2.1219-1.6705 3.4649-3.0133 4.5387-4.5382 2.3069-4.811-2.0167-3.4572-18.186 5.6915-35.845 0.49611-59.917-30.475-12.845-16.525-21.468-22.6-35.678-22.143"/>
   <path d="m304.28 7.4021c-13.674 6.0925-73.689 38.358-80.375 41.816-9.9387-6.0494-24.425-6.2142-34.243-2.2655-0.90444-0.91991-38.364-39.14-44.692-44.61-4.5652-3.9478-6.6405-3.3712-4.4645 5.3291 1.0189 4.0751 14.508 50.367 17.207 60.492-2.6721 4.8796-3.301 11.136-2.7637 15.746-4.351 3.3318-19.238 15.782-23.135 19.318-4.0993 3.7208-3.4475 5.189 1.0088 6.8467 18.797 6.2655 24.816 11.398 25.072 15.834 1.0262 17.765 2.9916 28.134 6.2331 30.293 3.3935 2.2627 11.136 2.5831 13.959 0.35606 4.2128-3.3227 9.8371-8.952 15.666-14.269-0.81289-0.8293-1.5526-0.49794-2.4158-0.91808-7.5394 6.7918-13.655 12.823-13.792 12.96-2.1119 2.1108-8.8714 2.1904-12.793-0.4238-1.808-1.2055-3.9272-7.243-5.1639-28.664-0.28561-4.9428-10.872-13.009-25.349-16.246-3.4081-0.82746-3.4731-2.3451-2.3664-3.2989 3.9244-3.3803 19.07-15.651 23.587-19.123 0.93556 2.1666 0.98683 1.7657 0.96119-1.5606-0.0851-11.517 4.752-20.133 14.693-27.221 3.0896-2.2032 3.4237-3.0124-0.36159-0.94554-4.6778 2.5547-8.2544 4.8604-11.121 8.7122-3.16-13.148-16.576-56.392-17.853-60.332-0.43392-1.3391-1.1287-4.3735 0.87422-2.7286l44.955 45.716c-2.8808 1.4398-2.977 2.0879 0.30209 0.98398 11.677-3.9295 27.715-3.8215 37.581 4.2728 6.0848 4.9922 4.3345 1.5249 0.28836-2.0165 7.5888-4.5529 77.348-41.394 80.724-42.586s3.6123-0.24714 1.7228 2.5867c-1.8894 2.833-49.835 61.741-53.408 69.678-0.79184 1.762-1.1269 3.8224-1.1269 6.0476 0 9.0929 5.4742 21.004 8.4429 26.372 2.7417 4.9565 1.5086 6.0723-3.1381 5.9652-3.5436-0.0824-33.336 1.4636-41.559 2.8339-4.1908 0.6984-13.059 7.6128-21.373 14.834 1.2541 0.0421 1.9938 0.1373 2.9248 0.8293 7.7207-6.9108 15.56-13.395 19.013-13.97 6.2606-1.0435 29.384-2.4485 41.051-2.5931 6.0601-0.0741 8.5061-2.2938 4.7053-9.0261-5.0412-8.93-9.9049-24.645-7.2978-30.438 2.4012-5.3355 48.906-63.324 52.508-68.125 5.4523-7.2687 2.6849-9.7465-4.686-6.4632"/>
   <path d="m356.04 196.87c-4.1038 4.1034-17.711 4.3378-31.295-3.8096-9.7154-5.8288-17.453-15.627-17.856-22.033 4.9781 5.524 10.922 8.2581 17.431 9.222l0.25357-1.7089c-8.486-1.2577-20.726-10.265-22.51-22.998-0.86599-0.56476-1.7805-1.0627-2.674-1.5881 0.21879 5.1021 2.6831 11.398 5.3607 14.934 0.0989 6.2115 2.5568 16.775 18.92 26.59 14.312 8.5858 29.242 7.3456 33.034 3.5524z"/>
  </g>
  <g>
   <path d="m161.32 135.21c-7.2025 3.2403-11.987 9.2229-14.263 17.872-2.2767 8.6508-8.3807 26.199-17.756 32.322-7.5532 4.9327-18.666 5.4636-24.13 5.0078-5.4632-0.45492-9.1057 0.45493-12.293 1.8206 2.7316 1.3657 5.4642 2.7314 5.4642 2.7314s-8.1949 4.098-9.5616 9.5607c0 0 9.5616-1.8224 13.204-1.3666-2.7316 2.2774-2.7325 7.2833-4.0974 10.926 3.6416-1.3657 10.472-1.3657 10.472-1.3657l-8.1958 6.3735 11.382 0.45492s-6.3741 2.7314-11.382 6.3735c3.1866 1.3657 8.6507 2.2774 20.032-1.8215-0.45496 6.3735-2.6154 7.7767-2.6154 7.7767s8.0786-0.94737 16.729-9.1424c5.9585-5.6449 16.846-20.485 19.577-43.248 1.1672-9.7263 0.33047-22.039 2.3929-30.881 0.94654-4.0613 3.3239-7.2138 5.3296-9.362z" fill="#d7a400"/>
   <path d="m127.96 218.12c-1.017 0-1.2203-5.8984-2.0341-7.7291s-8.1363 1.6266-10.782 2.2371c-2.6437 0.60962 3.052-11.187 0.81473-10.373-2.2382 0.81373-10.399 5.449-9.3574 2.4403 1.8299-5.2879-0.20414-5.8984-3.8649-5.8984-3.6617 0-13.625 4.378-13.962 5.7254 0 0 9.5616-1.8224 13.203-1.3666-2.7316 2.2774-2.7316 7.2833-4.0974 10.926 3.6425-1.3657 10.472-1.3657 10.472-1.3657l-8.1958 6.3735 11.383 0.45492s-6.3741 2.7314-11.383 6.3735c3.1875 1.3657 8.6507 2.2774 20.033-1.8215-0.45497 6.3735-2.6163 7.7767-2.6163 7.7767s8.0795-0.94737 16.73-9.1424c5.9585-5.6449 16.846-20.485 19.577-43.248 0.45954-3.8307 1.3384-9.3657 0.72776-14.044-0.61059-4.6783-8.5436 26.239-11.187 33.561-2.6446 7.3218-14.444 19.12-15.461 19.12" fill="#b08600"/>
   <path d="m159.77 137.11c-5.7012 2.8504-9.5854 8.5877-11.606 16.263-1.1186 4.2508-7.2566 25.821-18.24 32.993-9.59 6.26-23.321 5.319-24.856 5.19-4.0892-0.34051-6.981 0.14004-9.2778 0.84577 1.5324 0.41556 2.5769 0.8476 3.3422 1.3108 1.9709 1.1945 1.3585 1.6613-0.28287 2.2792-2.7289 1.0279-6.3375 3.5039-8.6214 7.5204 3.7093-0.93639 9.2595-1.4655 11.891-1.5002 1.7128-0.022 1.8125 0.2984 1.2258 1.2256-2.132 3.3666-2.998 5.46-3.7542 9.1762 3.7752-0.82746 6.1361-0.93272 8.7597-0.85034 2.6227 0.0824 4.3373-0.0824 2.1393 1.1991-2.1979 1.2815-4.7263 3.4243-7.1394 5.3007 7.9431 0.93181 10.987-0.35424 8.9711 1.6604-2.0148 2.0137-5.13 3.8462-9.5195 5.784 4.1679 0.91625 13.916-1.0215 16.995-2.4943 3.0786-1.4728 2.6007-1.2751 2.2346 0.37346-0.36708 1.6485-1.7182 5.579-2.652 7.0691 3.6095-1.2796 9.1158-3.8124 14.129-8.5611 7.349-6.962 16.794-22.284 19.227-42.548 0.51905-4.3304 0.6765-8.9694 0.82846-13.456 0.35061-10.372 0.68291-20.169 5.3845-25.206 4.0214-3.8545 4.4728-3.1387 0.89986 1.0288-4.1121 4.4064-3.9098 14.251-4.2448 24.179-0.15379 4.5346 0.0137 9.5515-0.51721 13.979-3.2305 26.919-16.244 41.088-19.011 43.697-3.5097 3.3089-9.2558 6.0348-13.221 7.4902-7.0909 2.6014-6.7741 1.9121-4.9936-1.968 0.40736-0.88879 0.85226-2.1373 1.2843-3.6494-8.6022 2.8504-16.96 2.6069-19.444 1.5368-1.9471-0.83936-2.0176-1.3465-0.22336-1.9908 2.1769-0.78261 5.8752-2.3542 8.6837-4.5144-3.853 0.10801-10.494-0.0156-11.201-0.3579-0.70671-0.34142 5.4092-4.2069 7.8351-6.0934-2.1293 0.15744-4.8087 0.58216-6.5123 1.1405-1.5965 0.52357-1.5324 0.16568-1.4839-1.4838 0.1126-3.7959 1.7118-6.7085 3.7285-9.7684-3.0612 0-6.7348 0.43113-10.011 1.3327-1.5068 0.41373-3.1115 0.90527-2.0167-1.9808 1.2853-3.3913 5.2985-7.179 9.0023-8.5346-2.3764-0.97117-4.1771-1.4398-5.1483-1.7455-1.7558-0.55378-1.6487-0.7341 0.06225-1.8087 1.7109-1.0764 6.6203-2.4302 12.843-1.9103 5.2747 0.44028 16.14-0.0805 23.404-4.8247 10.277-6.7112 16.564-27.478 17.645-31.586 2.1888-8.3158 6.4794-13.56 12.772-16.708 2.9275-1.4947 4.6192-1.0746 0.68931 0.96751" fill="#0f141b"/>
  </g>
 </g>
</svg>
