<?xml version="1.0" encoding="UTF-8"?>
<!-- Created with Inkscape (http://www.inkscape.org/) -->
<svg version="1.1" viewBox="0 0 141.46 141.21" xmlns="http://www.w3.org/2000/svg">
 <g transform="translate(-1.645 -2.5438)">
  <path d="m86.072 40.427c-1.3477-5.9685-6.7867-10.926-13.573-10.685-7.7975 0.24067-12.659 5.2946-13.718 10.637-0.91452 0.24066-2.9361 0.62573-3.8988 0.62573-1.2033-0.81826-2.5992-1.6365-3.3693-1.6846-0.77012-0.04813-2.9842 0-4.332 0.38506-0.72199-1.7328-3.0324-4.2838-5.7278-4.8133 0.77012-0.81826 1.4921-1.5884 1.5884-2.9842 0.1444-1.3477 0.86639-4.717 1.5884-6.0647 0.72199-1.3959 2.3104-3.5137 3.5137-4.5726 2.1178 0.52946 3.8506 0.57759 5.3427-0.28879 0.86639 0 2.4066 0.09627 3.0324-0.1444 0.57759-0.28879 2.166-1.3959 2.3585-1.9734 0.24066-0.62573 0.67386-3.1768 0.52946-3.8025-0.14439-0.57759-0.57759-1.2515-1.1071-1.829 0.77012-1.0108 1.9734-2.4066 1.829-3.1768-0.1444-0.72199-2.5029-4.3801-3.1768-5.2946-0.62573-0.91452-2.0216-1.6846-2.5992-1.6365-0.57759 0.09626-1.6365 0.33693-2.4548 0.33693-0.77012 0-1.9253-0.62573-2.6954-0.38506-0.77012 0.19253-3.1286 1.9734-3.4656 2.0216-0.38506 0.09626-1.0108 0.14439-1.3477 0.38506-0.33693 0.24066-0.91452 1.1552-1.6365 1.4921-0.77012 0.28879-3.995 1.5402-4.6689 3.0324-0.62573 1.444-1.7809 6.5942-2.2622 8.0863-1.2515 1.7328-3.1286 3.1768-5.0539 4.1876-1.9253 1.0108-3.273 1.829-4.5245 3.7544-1.2033 1.9253-3.7544 5.9203-4.1394 7.0274-0.33693 1.1071-0.2888 5.2946-0.09627 6.4498 0.1444 1.1552 0.67386 2.4548 2.166 3.4656 1.5402 1.0108 4.4282 3.8506 5.6797 5.439 1.2033 1.5884 4.9577 3.7544 7.1718 4.4282-0.57759 1.5884-0.96266 3.7544-0.96266 6.0647-1.5884 1.2996-2.5992 2.1178-3.0805 2.7436-0.52946 0.57759-2.166 3.7544-2.2622 4.5245-0.09627 0.77012 0.09626 4.4282-0.09627 5.7278-1.1071-0.38506-3.5137-0.52946-4.1876-0.62573-0.67386-0.09627-1.3959-0.1444-2.166-0.62573-0.72199-0.52946-3.4656-2.1178-4.5245-2.888 0.33693-1.6365 1.1071-5.1983 1.5884-6.0166 0.52946-0.77012-0.33693-3.3212-1.6365-4.2838-0.52946-0.38506-2.551-1.0108-3.4174-0.19253-0.86639-0.57759-1.6365-1.2996-1.9253-1.829-0.24066-0.57759-0.52946-1.0108-1.3959-1.2515-0.86639-0.24066-1.7328-0.77012-2.166-0.52946-1.9253 0.96266-5.5834 3.1286-6.3054 3.3212-0.67386 0.19253-1.3477 0.72199-1.4921 1.1071-0.1444 0.38506-0.096266 1.4921-0.096266 2.166-0.52946 0.81826-0.86639 1.444-0.86639 1.9734 0 0.52946 0.52946 2.0697 0.91452 2.9361-0.1444 0.77012-0.1444 1.6365 0.096266 2.3104 0.33693 1.1552 0.38506 2.7436 1.0108 3.8506 0.62573 1.2033 1.7809 3.5137 2.9361 4.1394 1.1552 0.57759 3.0805 1.0589 3.7544 1.2515 0.67386 0.24066 3.2249 1.1552 4.332 1.3477 1.9253 1.5402 5.4871 5.3427 6.6905 7.605 1.2033 2.3104 2.5992 3.1768 4.6207 3.8506 2.0216 0.72199 6.3054 1.5402 7.4606 1.3959 1.1552-0.14439 4.1394-1.9734 4.717-3.3693 0.52946-1.3477 2.8398-5.2946 4.0432-6.3054 1.1071-0.91452 2.9361-3.1286 3.8025-4.8133 1.2996 1.829 3.61 3.8506 5.1021 4.5245 1.444 0.67386 2.4066 1.3959 2.9842 2.0697 0.52946 0.67386 1.3477 2.166 1.4921 3.4656-0.1444 1.2996-0.38506 3.4174-3.0324 5.5834-3.5618 0.57759-15.836 7.4606-17.28 15.98-0.62573 0.96266-1.3959 2.4066-1.444 3.2249-0.04814 1.1071 2.2141 6.0166 3.7062 6.9311 0.67386 0.38507 1.9253 0.77013 2.888 1.0589 2.0216 1.4921 5.1021 3.9469 6.9311 7.268-2.0216 1.444-4.4282 5.6315-7.4606 7.3162-1.6365-0.33693-4.0432-0.52946-4.7651-0.0963-0.72199 0.43319-1.6365 4.4764-0.48133 5.9203 0.62573 0.72199 4.332 1.9253 6.6905 1.6846 1.2033 0.81826 3.3693 1.9735 4.4764 2.0697 1.1071 0.0963 4.332-0.14439 4.8614-0.72199 1.0589-1.1552 2.7436-5.439 5.1983-7.1237 0.57759-0.43319 3.5137-1.5884 4.0432-2.0216 0.52946-0.38506 2.0697-2.9361 2.0697-3.4656 0-0.57759-1.2033-3.4656-1.5884-3.995-0.4332-0.57759-1.829-1.107-2.1178-1.5402-0.77012-1.0589-2.3104-4.2357-2.4548-5.4871 0.77012-2.7436 1.1552-4.4764-1.4921-7.0274 2.5029-0.86639 10.3-5.7759 11.167-7.2199 3.3212-0.91452 9.6266-1.1552 13.092 0.24066 2.2622 2.2622 8.3751 6.0647 10.926 6.8349-1.5402 1.3477-2.1178 3.3693-2.1178 4.2357s0.62573 2.6473 0.77012 3.3693c-0.67386 1.5402-1.7809 4.4764-2.3104 4.8133-0.57759 0.38507-1.8772 1.2996-2.166 1.9253-0.2888 0.57759-0.72199 1.8772-1.0589 2.3104-0.33693 0.48133-0.72199 1.444-0.33693 2.4066 0.4332 0.96266 1.2033 2.551 2.0216 2.9361 0.86639 0.33693 2.7436 1.2514 4.1394 1.7328 1.444 1.5402 3.0324 3.7544 3.7062 5.439 0.57759 1.2996 1.2996 2.0216 2.5029 2.1178 1.2033 0.0963 3.273 0.19254 4.0913 0 0.81826-0.14439 3.3212-1.1552 3.8506-1.9734 0.77012 0.19253 1.6846 0.24066 2.551 0 0.86639-0.19254 3.7062-1.0108 4.2357-1.6846 0.81826-1.1071 0.38506-4.6689-0.67386-5.9203-0.52946-0.52946-2.6473-0.43319-4.8614 0.0963-2.6954-1.7328-5.7278-6.161-7.2199-7.268 2.0697-3.0805 5.6315-6.3054 7.4606-7.4606 0.67386-0.1444 1.829-0.4332 2.4066-0.81826 1.1071-0.81826 3.6581-5.9203 3.5618-7.1237-0.0963-0.67386-0.72199-1.9253-1.3477-2.7436-1.0108-6.2091-9.049-13.862-17.328-16.413-0.96266-0.86639-3.5618-2.6954-3.1286-5.5353 0.4332-1.2515 1.1552-2.8398 2.0216-3.61 1.2515-1.1071 3.8988-2.4548 5.0539-3.4656 0.57759-0.52946 1.9253-1.7809 2.3104-3.0805 0.67386 0.86639 1.3959 1.7809 1.829 2.5992 0.48133 0.77015 1.4921 1.4921 2.166 2.2141 2.2622 2.551 3.61 6.2573 4.5726 7.4606 0.62572 0.77012 2.7917 2.1178 3.995 2.3585 1.1552 0.19253 7.99-0.86636 10.06-2.4548 1.9734-1.5884 5.6797-8.1826 8.8083-10.252 1.2996-0.33693 2.7917-0.81826 3.6581-1.2033 0.91452-0.33693 3.8025-0.96266 4.4764-1.3959s3.4656-3.8988 3.7544-5.2946c0.0963-0.48133 0.0963-1.6846 0.2888-2.2141 0.38506-0.91452 0.48133-1.3477 0.14439-2.4548 0.33693-0.96266 0.81826-2.551 0.81826-3.1768 0-0.67386-0.48133-1.6846-0.72199-2.1178 0-0.72199 0.0481-1.9734-0.0963-2.2622-0.14439-0.2888-7.0755-4.2357-7.5568-4.4282-0.52946-0.1444-2.7436 0.62573-3.1768 0.91452-0.4332 0.28879-1.6846 2.2141-2.4066 2.6473-0.48133-0.4332-1.2515-0.38506-2.166-0.19254-0.91452 0.24067-1.6846 0.48133-2.2141 1.2515s-1.2514 2.4066-0.91452 3.2249c1.2514 2.7436 1.107 5.2946 1.5884 6.3054-1.2996 0.81826-4.0913 2.9361-4.9577 3.0805-0.86639 0.19253-4.332 0.38506-5.9203 1.2033 0-1.829 0.0963-5.0058-0.1444-6.161-0.24066-1.1552-1.9253-4.1876-2.551-4.717-0.67386-0.57759-2.0216-1.7328-2.7917-2.3585 0.0963-1.3477-0.0481-4.5245-0.91453-6.0166 3.4174-1.3477 6.3054-3.1286 7.7494-4.9095 1.3959-1.829 3.995-4.4764 5.9203-5.2946 0.67386-0.33693 1.5402-2.166 1.5884-3.273 0.0481-1.1071-0.0963-5.4871-0.48133-6.6423-0.48133-1.4921-3.9469-7.0274-5.7759-8.6158-1.829-1.5884-5.9685-3.6581-7.7012-5.7759-0.86639-2.8398-1.3477-7.8938-2.9842-9.3859-0.722-0.67386-3.9469-1.9253-4.332-2.2141-0.38503-0.28878-0.91449-1.1552-1.3477-1.3958-0.43319-0.19253-1.2996-0.09626-1.7328-0.33693-0.38506-0.24066-2.3104-1.829-3.0324-1.829-0.72199-0.048136-2.3104 0.33693-2.8398 0.28879-0.57759-0.048133-1.3959-0.4332-1.829-0.38506-0.48133 0-1.9253 0.28879-2.4548 0.81826-0.57759 0.57759-3.7544 5.3909-3.8506 6.1129-0.04813 0.72199 0.96266 2.3585 1.829 3.3212-0.67386 0.67386-1.1552 1.3477-1.1552 1.829-0.04813 0.48133 0.1444 3.1768 0.57759 3.8025 0.48133 0.67386 1.9734 1.8772 2.5992 2.0697 0.57759 0.19254 2.166 0 2.9361-0.04813 1.0589 0.86639 2.3585 1.0108 5.1502 0.4332 1.4921 1.3959 3.61 3.7062 4.1876 5.7759 0.57759 2.1178 0.81825 4.9577 1.1552 5.5353 0.33693 0.62573 1.0589 1.6365 1.6365 2.166-1.7809 0.38506-4.8133 1.9253-5.9203 4.717-1.0589-0.24067-3.7062-0.38506-4.332-0.24067-0.67386 0.09627-2.3104 1.0108-3.3212 1.6846-1.0589-0.24066-2.5029-0.4332-3.8506-0.52946z" fill="#a1bfd3" stroke-width=".30083"/>
  <g fill="#958c87" stroke-width=".30083">
   <path d="m60.561 35.999c0.19253-0.24066 0.4332-0.62573 0.57759-0.72199 0.1444-0.04813 0.86639-0.19253 1.0589-0.09627 1.7809 0.91452 6.7867 6.3054 7.99 9.9635 0.04813 0.19253 0.57759 0.19253 0.57759-0.19253 0-4.1876-4.9095-15.354-8.5676-15.739-0.4332-0.04813-1.2996 0.09627-1.5884 0.62573-0.2888 0.48133-0.81826 3.5618-0.048133 6.161z"/>
   <path d="m73.124 23.629h-1.0589c-0.62573 1.2996-2.2622 5.0058-2.5029 6.2573 0.91452 3.0805 2.6954 11.215 2.4548 15.258-0.04813 0.57759 0.86639 0.62573 0.86639 0 0.09627-2.5029 1.0589-12.466 2.4548-15.114-1.0589-1.6846-1.829-4.6207-2.2141-6.4017z"/>
   <path d="m73.99 45c-0.04813 0.33693 0.38506 0.52946 0.57759 0.09627 1.2996-3.2249 6.0166-9.1934 8.0863-9.9635 0.24066-0.09627 0.77012-0.04813 0.91452 0.09627 0.09627 0.09627 0.33693 0.33693 0.57759 0.62573 0.57759-1.5402 0.38506-5.3427-0.09627-6.161-0.19253-0.2888-0.81825-0.67387-1.3958-0.62574-2.7917 0.2888-8.4714 10.06-8.6639 15.932z"/>
  </g>
  <g stroke-width=".30083">
   <path d="m64.749 37.106c-1.0589 0.77012-2.6473 3.4174-2.4066 6.8349 1.2033 0 3.9469 0.1444 6.4017 2.0216 0.2888-0.57759 0.57759-1.829 0.52946-2.7917-1.1552-1.829-2.7436-4.2838-4.5245-6.0647z" fill="#fff"/>
   <path d="m80.103 37.106c-1.444 1.5402-3.8506 4.5726-4.6207 6.161 0.04813 0.62573 0.09627 1.7328 0.57759 2.551 1.444-0.77012 4.0432-1.9734 6.0166-1.829 0.38506-2.0697-0.19253-5.1983-1.9734-6.883z" fill="#fff"/>
   <path d="m66.53 39.128c-0.48133 0.81826-1.2515 3.1286-0.72199 5.1983 0.48133 0.24066 0.96266 0.48133 1.4921 0.81826 0.57759-0.52946 1.2996-2.166 1.1071-3.3693-0.48133-0.72199-1.2515-1.8772-1.8772-2.6473z" fill="#c8384d"/>
   <path d="m76.253 41.871c-0.09627 0.77012 0.24066 2.5029 1.0108 3.273 0.52946-0.2888 1.1071-0.52946 1.5402-0.62573 0.4332-1.0108 0.33693-3.8988-0.72199-5.1021-0.48133 0.67386-1.2033 1.4921-1.829 2.4548z" fill="#c8384d"/>
   <path d="m84.002 44.037c-1.829-0.2888-5.9203-0.1444-9.8191 3.0805-0.81826 0.67386-2.3104 0.96266-3.2249 0.2888-2.4066-1.7809-5.2946-3.9469-9.9635-3.2249-0.91452-0.86639-2.0216-2.2622-2.6473-2.2141-0.62573 0-1.9253 2.2141-1.5402 2.888 0.81826 1.5402 1.4921 4.1876 0.77012 6.8349-0.38506 1.6365 0.33693 2.8398 1.1071 3.4656 1.8772 1.5402 5.6797 4.717 6.6423 5.5834 0.96266 0.81826 2.0216 1.2996 3.4174 0.81826 1.3959-0.52946 5.0058-0.86639 7.0755-0.19253 0.86639 0.2888 1.8772 0.62573 2.7436-0.19253 2.1178-1.9253 5.9685-4.9577 7.2199-5.8722 1.2515-0.96266 1.7328-2.0216 1.3477-3.7544-0.38506-1.6846-0.81826-4.5245 0.04813-5.3909 1.5402-1.444 0.38506-4.332-0.77012-4.332-0.4332 0-1.5884 1.3959-2.4066 2.2141z" fill="#fff1ac"/>
   <path d="m84.243 51.594c-0.38506-0.62573-1.1552-1.4921-1.9253-1.9253-0.52946 0.09627-0.96266 0-1.6846-0.24066-2.166-0.72199-5.1502 0.19253-6.4498 1.0108-1.3477 0.81826-2.3104 0.91452-3.1286 0.24066-0.86639-0.67386-3.6581-2.2141-7.2681-1.1071-0.38506 0.09627-1.1071 0.24066-1.444 0.19253-0.62573 0.4332-1.3959 1.0108-1.7809 1.8772 0.81826 2.9842 3.4656 6.3054 6.5461 7.2199 2.4066-1.7328 7.5568-2.0216 10.685-0.04813 3.1286-1.0108 5.4871-3.9469 6.4498-7.2199z" fill="#ed8599" stroke="#0f141b"/>
   <path d="m65.952 88.368c-1.6365 0.19253-8.3751-0.91452-9.9635-1.8772-0.62573 0.48133-1.3477 1.3477-0.86639 2.7917 1.444 1.1071 7.1237 2.9842 10.541 2.9361 0.09627-1.0589 0.19253-2.7917 0.2888-3.8506z" fill="#094b46"/>
   <path d="m88.719 86.25c0.57759 0.4332 1.2515 1.7809 0.77012 3.0805-1.1071 1.1552-6.2573 2.888-10.589 2.9361 0-1.0108-0.09627-2.9361-0.24066-3.995 2.888 0.1444 9.2896-0.91452 10.06-2.0216z" fill="#094b46"/>
  </g>
  <g fill="#ffe100" stroke-width=".30083">
   <path d="m76.59 87.838c-1.7328-3.1286-6.5461-3.1768-8.8564 0-0.57759 0.04813-1.444 0.24066-1.6846 0.52946-0.24066 0.24066-0.38506 3.61-0.2888 3.8988 0.04813 0.33693 1.0108 0.86639 1.5402 0.91452 1.444 3.5618 7.7975 4.5245 9.9154-0.09627 0.48133 0 1.4921-0.24066 1.6365-0.77012 0.19253-0.52946-0.04813-3.6581-0.19253-4.0913-0.096265-0.28879-1.1071-0.48132-2.0697-0.38506z"/>
   <path d="m59.069 88.127c-0.52946-0.1444-1.0108 0.52946-1.0589 0.96266 0 0.4332 0.24066 1.2996 0.72199 1.3477 0.57759 0.09627 1.1071-0.24066 1.2033-0.91452 0.048133-0.67386-0.38506-1.2996-0.86639-1.3959z"/>
   <path d="m62.92 88.849c-0.57759 0-1.1071 0.48133-1.1071 1.1071 0 0.62573 0.33693 1.2515 0.81826 1.2996 0.52946 0.04813 1.2996-0.33693 1.3477-1.0589 0-0.67386-0.4332-1.2996-1.0589-1.3477z"/>
   <path d="m81.932 88.705c-0.52946 0.04813-1.1552 0.57759-1.1071 1.2996 0.04813 0.72199 0.57759 1.3477 1.2033 1.2996 0.62573-0.04813 1.0108-0.72199 0.96266-1.3959-0.048133-0.67386-0.48133-1.2033-1.0589-1.2033z"/>
   <path d="m85.639 88.031c-0.67386 0.1444-0.77012 0.96266-0.77012 1.3477 0.04813 0.62573 0.52946 1.2033 1.1071 1.0589 0.57759-0.09627 0.77012-0.72199 0.77012-1.3959-0.048132-0.67386-0.48133-1.1071-1.1071-1.0108z"/>
  </g>
  <g stroke-width=".30083">
   <path d="m91.896 91.978c-0.77012-0.62573-1.9253-1.6365-2.4066-2.4548-2.0697 1.2996-6.4979 2.551-10.637 2.7917 0 0.33693-0.77012 0.86639-1.6365 0.67386-0.38506 1.4921-2.4548 3.2249-4.9095 3.1768-2.5029 0-4.0432-1.1552-4.9577-3.0805-0.57759 0-1.2033-0.2888-1.6846-0.86639-2.5992-0.1444-7.8938-1.0108-10.493-2.8398-0.4332 0.67386-1.1071 1.8772-2.1178 2.6473 2.7436-0.38506 6.161 1.1552 9.1934 3.6581 2.8398 2.3585 5.0058 5.7759 3.6581 9.1452 2.7917-0.81826 9.3859-1.2033 13.092 0.24066-1.5402-2.9842 0.24066-7.0274 3.4656-9.3859 3.273-2.3585 5.9685-3.995 9.434-3.7062z" fill="#152139"/>
   <path d="m78.9 91.015c3.1286-0.1444 8.4232-0.81826 10.589-2.5992 0.09627 0.38506 0.1444 0.81826-0.09627 1.0589-1.1071 0.96266-6.2573 2.7436-10.493 2.8398z" fill="#003a35"/>
   <path d="m54.882 88.079c1.6846 1.444 7.3162 2.9361 10.83 2.9842l0.04813 1.2033c-3.8506-0.1444-9.0971-1.7328-10.589-2.888-0.2888-0.24066-0.2888-0.91452-0.2888-1.2996z" fill="#003a35"/>
  </g>
  <g fill="#849dae" stroke-width=".30083">
   <path d="m87.853 14.917c0.96266 2.0216 0.48133 4.4282-0.62573 5.3427 0.91452 0.72199 2.3104 0.72199 3.995 0.62573 1.1552 1.2033 3.8988 0.72199 5.439 0.4332 3.4174 3.2249 4.3801 6.1129 4.717 8.4714 0.0963 1.0589 0.43319 2.4066 0.77012 3.0324-0.33693-3.0805 0.5776-7.0755 1.9734-6.5461-0.19253-1.7328 1.107-3.61 2.2141-4.2357 0.48132-0.48133 0.67385-3.7062 0.67385-4.0913 0-0.4332-0.57759-1.8772-0.91452-2.4548-0.2888 0.2888-0.72199 0.96266-0.86639 1.4921 0.4332 0.67386 0.67386 1.1071 0.62573 1.4921-0.0963 0.38506-0.67386 2.0216-1.0589 2.2622-0.33693 0.2888-1.5402 0.91452-2.2141 0.86639-0.67386-0.04813-3.5618-0.57759-3.8506-2.2141-0.57759 0.1444-1.2515 0.33693-1.8772 0.04813-0.62573-0.33693-2.5992-1.2515-3.1286-2.3104-0.52946 0.1444-1.1552-0.19253-1.5402-0.4332-0.4332-0.28879-1.444-1.1071-1.829-1.4921-0.62573 0.19253-1.6846 0.33693-2.5029-0.2888z"/>
   <path d="m98.827 48.947c-1.5402 0.19253-0.62573-1.0108 1.2033-1.444 8.0382-1.829 8.6639-5.9685 8.5676-8.6158 2.166 0.91452 4.2838 0.09627 4.9577-1.2515 0.48132-0.96266-0.24067-3.2249-1.829-4.2357-1.0589-0.62573-1.8772-1.8772-3.8025-3.6581 1.9253 1.1071 4.6689 2.5029 5.2946 2.8398 0.57759 0.33693 1.444 1.829 1.829 2.6954 1.444 3.4656 5.7759 2.2141 5.9203-0.24066s-0.96266-5.0058-2.9842-9.5784c2.166 2.5992 4.4764 6.7386 4.717 7.605 0.19253 0.81826 0.2888 4.7651 0.0481 6.5461-0.19253 1.7328-1.3958 2.9842-2.2141 3.273-0.86639 0.2888-4.2838 3.7062-5.6315 5.5353-2.4548-0.91452-7.0274-0.91452-11.071 1.3477-1.107-0.67386-3.8506-1.0108-5.0058-0.81826z"/>
   <path d="m90.259 6.9267c-0.4332-0.67386-0.81826-0.48133-0.67386 0.1444 0.1444 0.4332-0.24066 3.1286-0.62573 4.2357-0.2888 0.81826-3.273 0.57759-4.2838-1.3959 0.09627 1.1552 2.6954 4.7651 3.5137 5.2946 0.33693 0.19253 1.2996 0.19253 2.166 0-0.33693-0.2888-0.52946-0.81826-0.48133-1.3959 0.1444-1.444 0.91452-6.0647 0.38506-6.883z"/>
   <path d="m94.736 8.2744c0-0.72199-0.72199-0.67386-0.77012 0.096266-0.04813 0.96266-0.96266 4.2838-1.2515 5.1983-0.24066 0.91452-2.5029 0.33693-2.7436-0.91452-0.09627 0.48133-0.2888 1.3959 0.09626 2.0216 0.38506 0.57759 2.4548 2.8398 3.7062 2.5992-0.28879-0.62573-0.43319-1.2996-0.24066-2.166 0.4332-1.9734 1.1552-5.5353 1.2033-6.8349z"/>
   <path d="m99.886 11.547c0.1444-0.62573-0.67386-0.81826-0.91452 0-0.48133 1.6365-1.0589 3.4174-1.2996 4.4764-0.2888 1.0108-3.4656 0.2888-3.8988-1.4921-0.48133 0.91452-0.52946 2.8398 0.62573 3.5618 0.52946 0.33693 1.9734 1.0108 2.551 1.2996 0.52946 0.24066 1.2033 0.1444 1.7809 0-0.048133-1.5402 0.81826-6.3535 1.1552-7.8456z"/>
   <path d="m98.683 17.757c0 1.0108 0.1444 2.0697 0.33693 2.3585 0.52946 0.62573 2.551 1.3959 3.5618 1.4921 0.52946 0.04813 1.829-0.57759 2.166-0.81826 0.33693-0.2888 1.0589-2.166 1.1071-2.5029 0.0481-0.2888-0.4332-0.91452-0.77013-1.2515 0.1444-0.38506 0.67386-0.86639 1.0108-1.2515 0.2888-0.2888-0.0963-1.1552-0.96265-0.4332-0.96266 0.81826-1.444 2.4066-1.5884 3.4656-0.0963 1.0108-3.7544 0.62573-4.8614-1.0589z"/>
   <path d="m57 15.061c-0.96266 2.0216-0.67386 4.2838 0.4332 5.2465-0.91452 0.72199-2.5992 0.72199-4.2357 0.62573-1.2996 1.0589-3.6581 0.77012-5.1983 0.4332-3.4174 3.273-4.2357 6.2091-4.5245 8.5676-0.1444 1.0589-0.4332 2.4066-0.81826 3.0324 0.38506-3.0805-0.77012-6.9793-2.166-6.4979 0.19253-1.7328-0.86639-3.8025-2.2141-4.4282-0.48133-0.48133-0.67386-3.5137-0.4332-4.4282 0.1444-0.38506 0.52946-1.3477 0.91452-1.9734 0.2888 0.2888 0.67386 0.96266 0.86639 1.4921-0.4332 0.67386-0.72199 1.1071-0.62573 1.4921 0.09626 0.38506 0.67386 2.0216 1.0108 2.3104 0.38506 0.24066 1.6365 0.96266 2.3104 0.91452 0.67386-0.04813 3.4656-0.67386 3.8025-2.3104 0.52946 0.1444 1.1071 0.19253 1.7328-0.09626 0.62573-0.33693 2.7436-1.0589 3.2249-2.166 0.52946 0.1444 1.1552-0.19253 1.5884-0.4332 0.38506-0.2888 1.444-1.0589 1.829-1.4921 0.57759 0.19253 1.6846 0.33692 2.5029-0.2888z"/>
   <path d="m46.121 49.139c1.5402 0 0.72199-0.86639-1.0589-1.3477-7.7975-2.166-9.1934-6.161-9.049-8.8564-2.1178 1.3959-3.61 0.19253-4.332-1.1552-0.2888-0.62573-0.81826-2.9842 0.96266-4.0913 1.0589-0.62573 3.1768-2.4548 4.7651-4.2357-1.5402 1.1071-5.1021 2.7917-5.7278 3.1286-0.57759 0.2888-1.5402 2.0697-1.9253 2.9361-1.2996 2.9361-5.2946 1.6846-5.439-0.77012-0.1444-2.4548 1.1071-5.7759 3.273-10.3-2.2141 2.5992-5.1983 7.7012-5.3909 8.5195-0.24066 0.86639-0.48133 4.9577-0.2888 6.6905 0.19253 1.7328 1.3477 2.8398 2.166 3.2249 0.91452 0.52946 3.5618 3.0324 5.2465 4.9095 3.0805-0.96266 7.5087 0.1444 10.541 2.7436 1.5884-1.1552 3.2249-1.4921 6.2573-1.3959z"/>
   <path d="m54.448 6.9267c0.4332-0.62573 0.91452-0.33693 0.72199 0.2888-0.09627 0.4332 0.19253 3.2249 0.57759 4.332 0.2888 0.81826 3.273 0.38506 4.2838-1.5884 0.1444 1.2515-2.6954 4.7651-3.5137 5.2946-0.33693 0.19253-1.2996 0.19253-2.166 0 0.33693-0.33693 0.52946-0.86639 0.48133-1.444-0.1444-1.3959-0.91452-6.0647-0.38506-6.883z"/>
   <path d="m50.068 8.467c0.04813-0.72199 0.77012-0.67386 0.81826 0.048133 0.04813 0.86639 0.91452 4.0913 1.2996 5.1983 0.2888 0.91452 2.4548 0.19253 2.6954-1.1071 0.09627 0.48133 0.1444 1.6365-0.19253 2.2622-0.38506 0.77012-2.4066 2.6473-3.6581 2.4066 0.2888-0.62573 0.38506-1.7328 0.19253-2.5992-0.4332-1.9734-1.2515-5.3909-1.1552-6.2091z"/>
   <path d="m44.918 11.74c-0.19253-0.67386 0.57759-0.81826 0.86639 0 0.62573 1.7328 1.1071 3.4174 1.3477 4.4282 0.24066 1.0589 3.5618 0.2888 3.995-1.4921 0.48133 1.1552 0.09627 2.8398-1.0108 3.5618-0.52946 0.33693-1.829 1.0108-2.3585 1.2515-0.57759 0.24066-1.1552 0.19253-1.6846 0.04813 0.19253-1.9734-0.62573-5.7278-1.1552-7.7975z"/>
   <path d="m46.17 17.66c0 1.0108-0.09627 2.3104-0.2888 2.5992-0.48133 0.62573-2.4066 1.3959-3.4174 1.5402-0.52946 0.04813-1.9253-0.4332-2.2622-0.72199-0.33693-0.2888-1.2033-2.2141-1.2515-2.551 0-0.2888 0.04813-0.77012 0.57759-1.2033-0.1444-0.33693-0.4332-1.0589-0.81826-1.444-0.2888-0.2888 0.04813-1.0108 0.91452-0.2888 0.96266 0.81826 1.5402 2.3104 1.6846 3.3693 0.1444 1.0108 3.7544 0.38506 4.8614-1.2996z"/>
   <path d="m137.72 58.285c0.81826 0 1.6365 0.57759 0.86639 0.81826-0.62573 0.24066-3.7544-0.1444-4.4764-0.33693s-2.4066-0.72199-4.0913 1.6846c-0.1444-1.0589-0.48133-2.6954-1.3477-3.273 0.67386-0.72199 1.829-2.1178 2.551-2.9361-0.19253 1.0108 0.0963 2.4066 0.38506 2.888 0.0963 0.19253 0.2888 0.33693 0.5776 0.33693 1.0589 0.04813 3.7544 0.72199 5.5353 0.81826z"/>
   <path d="m132.42 58.621c-0.19253 0.81826 0.0481 2.6954 0.24066 3.3693 0.1444 0.38506 0.2888 0.4332 0.67386 0.48133 0.91453 0.19253 3.5137 0.4332 4.4282 0.24066 0.81826-0.1444 1.2514 0.48133 0.48133 0.67386-1.9253 0.57759-6.4017-0.04813-8.0863 0.1444 0.19253-0.48133 0.0963-2.0697-0.1444-3.0805 0.48133-0.81826 1.3477-1.6846 2.4066-1.829z"/>
   <path d="m130.93 63.579c-0.72199 1.1552-0.4332 2.7917-0.33693 3.4174 0.0481 0.33693 0.19253 0.52946 0.4332 0.57759 1.3958 0.38506 4.0432 0.72199 6.2573 0.72199 0.67386 0 1.107 0.48133 0.52946 0.77012-0.72199 0.33693-6.6423-0.19253-7.4124-0.09627-0.24066 0-0.81826 0.38506-1.0589 0.57759-0.48133-0.72199-1.829-3.9469-1.1071-5.1502 0.77013-0.1444 1.829-0.48133 2.0697-0.86639z"/>
   <path d="m130.69 68.874c-0.33693 1.2515 0.2888 3.3693 0.4332 3.9469 0.0481 0.2888 0.19253 0.4332 0.52946 0.4332 0.72199 0 2.0697-0.04813 2.5029-0.09627 0.67386-0.04813 1.3958 0.72199 0.4332 1.0108-0.2888 0.09627-0.86639 0.09627-1.2033 0.09627-0.1444 0.38506-0.62573 1.1552-1.0108 1.1552-0.33693 0.04813-1.829 0.09627-2.166-0.19253-0.38506-0.2888-1.2514-1.0589-1.3477-1.4921-0.0963-0.38506-0.48132-3.1286-0.38506-3.3693 0.0963-0.2888 1.5402-1.3959 2.2141-1.4921z"/>
   <path d="m87.131 53.664c-1.0108 2.1178-2.2141 4.5726-1.2515 4.8133 0.4332-0.4332 1.829 0 1.1552 0.4332-5.1502 3.273-5.8722 5.1021-14.777 5.2946-7.7975 0.1444-7.8456-2.166-14.729-5.1983-1.0589-0.4332 0.81826-0.86639 1.2033-0.52946 0.72199 0.04813 0.24066-1.7328-0.67386-3.995 0.96266 0.86639 6.4979 5.4871 7.3643 6.3535 0.38506 0.4332 1.7328 1.2515 3.1768 0.77012 1.3959-0.52946 5.5353-0.81826 7.5087-0.09627 1.0108 0.33693 1.9734 0.38506 2.6954-0.4332 2.8398-3.0805 7.8456-5.7759 8.327-7.4124z"/>
   <path d="m65.856 88.608c0.38506-0.72199 1.5402-0.81826 2.0216-0.81826 0.67386-1.2515 2.888-2.2141 4.2357-2.2622 1.5402 0 3.5137 0.67386 4.4764 2.3104 0.52946 0 1.6365 0.1444 2.166 0.4332 3.8025-0.09626 6.6905-0.62573 8.9527-1.4921 0.38506-0.1444 0.67386-0.2888 0.91452-0.4332 0.48133-1.2515 1.2033-2.9842 1.7809-3.4656 0.52946-0.4332 4.8614-3.1768 5.4871-3.7544 0.67386-0.57759 1.829-1.9253 2.2141-2.8398-1.8772-2.4548-2.888-6.5942-3.4656-11.889-0.57759-0.4332-1.1552-0.91452-1.5884-1.6846 0.77012 3.0324 1.2515 6.6423 0.67386 8.4714-1.6846 5.1502-9.0971 6.1129-14.825 5.1983-5.0058-0.77012-5.3427-4.0432-5.5353-6.6905-0.09627-1.444-1.3959-1.3959-1.6365-0.09627-0.4332 2.4066-1.8772 7.7012-7.8938 7.4606-6.5942-0.24066-10.974-1.0589-12.515-5.6797-0.96266-2.8398-0.57759-6.6905 0.67386-8.6158-0.57759 0.2888-1.3959 0.91452-1.9253 1.5884-0.24066 1.9734-0.72199 7.9419-3.61 11.889 0.86639 1.3477 2.5029 3.2249 4.332 4.1394 1.829 0.91452 4.9095 2.7917 5.1502 6.1129l1.0589 0.4332c2.2622 0.86639 5.3909 1.3959 8.8564 1.6846z"/>
   <path d="m117.41 89.86c1.2514-0.33693 3.5137-1.0589 4.7652-3.1286 1.2033-2.0697 5.3909-7.1718 7.4124-8.6639 2.6954-0.62573 3.4656-1.1552 4.5245-1.4921 0.5776-0.1444 2.5029-0.2888 3.61-1.0589 1.1071-0.77012 4.1394-4.717 3.7544-6.3535-0.33693 1.5884-3.6581 4.2357-4.2838 4.4764-0.62573 0.19253-1.829 0.33693-3.7544 0.52946-0.1444 0.38506-0.62572 1.1552-0.86639 1.2515-0.19253 0.1444-1.3958 0-1.9734-0.09627-0.5776-0.1444-1.3477-0.86639-1.6846-1.444-0.33693-0.57759-0.38506-2.7436-0.4332-3.2249-0.0481-0.4332 0.4332-0.91452 0.77013-1.1552-1.4921-1.9734-1.3958-4.4282-0.91452-5.1021 0.77012-0.09627 1.829-0.67386 1.9734-0.86639 0.19253-0.24066 0-1.444-0.1444-2.0697-0.77012 1.3477-3.6581 1.829-4.6689 1.1071-0.33693-0.72199-0.72199-1.6846-1.0108-2.4066 0.52946 2.166 0.62573 5.5353 0.38506 6.7386-0.14439 0.62573 0.77013 2.2622 1.2515 2.9361-0.4332 0.77012-1.6846 2.0216-2.551 2.6473 1.0589-0.4332 2.3104 0.04813 2.3104 0.67386-0.0481 0.62573 0.62573 1.9734 1.6365 3.0805-2.888 1.7328-7.1718 1.3959-9.3859 0.38506-1.6846 2.551-3.61 4.1394-5.9685 4.9095-4.1876 1.3959-5.9685-0.72199-4.9577-2.9842 1.5402-3.4656 3.6581-4.8614 5.2465-5.7278-7.8938 1.0589-9.7228-5.4871-10.445-9.1934-0.72199-3.7062 4.0432-6.4498 5.3909-5.6797l1.2514 0.77012c0.19253-0.86639-0.0481-2.4066-0.1444-3.2249-0.96265 2.166-6.6423 3.3693-10.685 0.96266-0.96266-0.52946-1.7809 0.09626-0.72199 0.91452 1.1552 0.91452 2.4548 1.4921 3.9469 1.7328-2.5029-0.2888-6.5461 1.5884-6.4498 4.6207 0.24066 5.3909 1.7328 9.771 3.8025 12.948 0.72199 1.0589 1.2033 2.1178 2.166 3.0805 0.96266 1.0108 2.8398 2.6954 3.3693 3.7544 0.77012 1.5884 2.166 4.332 2.6473 4.9095 0.48133 0.62573 2.6954 2.1178 3.7544 2.2622 1.0108 0.19253 4.4282-0.04813 7.0755-0.81826z"/>
   <path d="m6.8932 58.429c-0.77012 0-1.3959 0.52946-0.62573 0.77012 0.62573 0.24066 3.9469-0.2888 4.6207-0.48133 0.72199-0.1444 2.2622-0.48133 3.9469 1.9253 0.1444-1.0589 0.48133-2.6954 1.3477-3.273-0.96266-0.86639-2.0697-2.3104-2.7917-3.1286 0.1444 1.0108 0 2.5029-0.2888 2.9842-0.09626 0.19253-0.2888 0.33693-0.57759 0.33693-1.0589 0.048132-4.1394 0.86639-5.6315 0.86639z"/>
   <path d="m12.092 58.621c0.4332 0.91452 0.19253 2.7917-0.04813 3.4656-0.1444 0.38506-0.24066 0.4332-0.62573 0.52946-0.91452 0.1444-3.61 0.4332-4.5245 0.24066-0.81826-0.1444-1.1552 0.52946-0.4332 0.77012 1.9734 0.52946 6.2091-0.38506 7.8938 0.09627-0.19253-0.48133 0.09627-2.2141 0.33693-3.2249-0.48133-0.81826-1.5403-1.7328-2.5992-1.8772z"/>
   <path d="m13.872 63.627c0.72199 1.1552 0.4332 2.7436 0.2888 3.5137-0.04813 0.38506-0.24066 0.52946-0.48133 0.57759-1.3477 0.38506-4.1394 0.67386-6.3535 0.67386-0.67386 0-1.0108 0.52946-0.4332 0.77012 0.67386 0.33693 6.7867-0.24066 7.5568-0.1444 0.24066 0.04813 0.81826 0.4332 1.1071 0.62573 0.62573-0.77012 1.6365-3.995 0.96266-5.1502-0.77012-0.1444-1.7328-0.52946-1.9734-0.91452z"/>
   <path d="m13.824 68.922c0.33693 1.2515-0.04813 3.273-0.33693 3.995-0.09626 0.2888-0.19253 0.38506-0.52946 0.38506-0.72199 0-2.2141 0.1444-2.5992 0.09626-0.72199-0.04813-1.2515 0.72199-0.2888 0.91452 0.2888 0.09627 1.0108 0.04813 1.3477 0.04813 0.1444 0.38506 0.48133 1.0589 0.81826 1.1071 0.38506 0.04813 2.0216-0.04813 2.4066-0.33693 0.33693-0.2888 1.2033-1.0108 1.2996-1.3959 0.09627-0.38506 0.38506-3.0805 0.2888-3.3693-0.1444-0.28879-1.2996-1.3477-2.4066-1.444z"/>
   <path d="m26.58 89.619c-1.2515-0.33693-3.0805-0.96266-4.332-3.0324-1.2033-2.0697-3.8988-5.9685-7.2681-8.4714-2.6954-0.62573-3.3212-1.1071-4.4282-1.444-0.57759-0.1444-2.551-0.33693-3.7062-1.1071-1.1071-0.77012-3.4656-4.3801-3.5618-6.3535 0.38506 1.5884 3.8506 4.5245 4.4764 4.7651 0.62573 0.19253 1.6846 0.2888 3.61 0.24066 0.09627 0.38506 0.38506 1.0108 0.62573 1.1071 0.24066 0.1444 1.6365 0.19253 2.2141 0.04813 0.57759-0.1444 1.444-1.0589 1.7809-1.6365s0.2888-2.551 0.33693-2.9842c0-0.48133-0.4332-0.91452-0.77012-1.1552 1.4921-1.9734 1.3477-4.4764 0.91452-5.1502-0.77012-0.09627-1.829-0.62573-2.0216-0.86639-0.19253-0.24066 0.04813-1.7328 0.19253-2.3585 0.77012 1.3477 3.61 2.1178 4.6207 1.3959 0.38506-0.67386 0.77012-1.6365 1.0108-2.4066-0.48133 2.166-0.52946 5.439-0.2888 6.6423 0.09627 0.57759-0.81826 2.3585-1.2996 3.0324 0.4332 0.77012 1.7328 2.0697 2.6473 2.6954-1.1071-0.4332-2.6473 1.2515-2.6473 1.8772 0 0.19253-0.96266 1.2996-1.444 1.829 2.0697 1.829 7.2199 1.4921 9.434 0.57759 1.6846 2.5992 3.5618 4.0432 5.9685 4.8614 4.1394 1.3959 5.9685-0.86639 4.9577-3.1286-1.5884-3.4656-3.6581-4.8614-5.2946-5.7278 7.8938 1.0589 9.771-5.4871 10.493-9.1934 0.72199-3.7062-3.6581-6.4979-5.3909-5.6797l-1.3477 0.91452c-0.1444-0.81826 0.1444-3.1768 0.33693-4.2838 0.72199 2.4066 6.7867 3.8025 10.637 2.1178 0.91452-0.4332 1.5402 0.04813 0.62573 0.77012-1.1552 0.91452-2.4066 1.444-3.9469 1.6846 2.551-0.33693 6.5942 1.6365 6.4498 4.1876-0.2888 5.3909-1.8772 10.108-3.9469 13.285-0.67386 1.0589-1.2996 2.2622-2.2622 3.2249-1.0108 0.96266-3.0805 3.273-3.61 4.332-0.77012 1.5884-2.0697 3.8025-2.551 4.3801-0.48133 0.62573-2.6954 2.0216-3.7544 2.2141-1.0108 0.19253-4.8133-0.43319-7.4606-1.2033z"/>
   <path d="m90.933 112.24c-2.7917-0.4332-8.4232-4.717-10.204-5.6315-1.2033-0.62572-3.2249-2.888-2.1178-5.8241 1.1071-2.9361 4.1876-5.8722 6.883-7.2199 1.4921-0.77012 4.8133-2.3104 7.605-1.2996-4.2357-0.04813-7.5087 5.0539-6.9311 9.1934-1.1552 2.6473 0.81826 8.1826 4.7651 10.782z"/>
   <path d="m98.875 143.29c0.62573-0.0481 3.5618-1.3477 4.0432-1.9734 1.107 0.24066 5.2946-0.38507 6.7386-1.5884 0.86639-0.67386 0.57759-5.3427-0.62573-6.161-0.57759-0.38506-2.888-0.38506-4.717 0.2888-2.2141-1.0108-5.3909-6.2573-7.2681-7.4124 1.7328-2.7436 3.5618-5.0058 7.3643-7.4124 1.1552-0.33693 2.3585-0.57759 3.0805-1.5402 0.72199-0.91452 3.0324-4.8614 3.0324-6.6423-1.2996 2.1178-4.3801 4.6208-6.0166 4.6689-1.6365 0.0481-4.6208-0.67385-5.5353-1.3958-0.48133-0.38506-0.91452-0.62572-1.3959-0.77012-0.4332-0.19253-2.4066-0.52946-2.8398-0.52946 0 3.1768-3.9469 5.1983-6.7867 4.2838-0.09627 0.43319 0.62573 2.4066 0.62573 2.4066-0.48133 1.5402-1.7809 4.3801-2.166 4.6689-0.81826 0.67386-2.3104 1.5402-2.5029 2.2622 3.1768-0.52946 6.7867 1.829 7.8938 4.332 1.1071 2.4548 3.4656 4.6208 5.5834 5.0058 2.0216 1.2033 2.3104 5.7278 1.4921 7.5087z"/>
   <path d="m53.149 112.39c3.9469-0.67386 8.2788-4.0432 10.445-5.5353 2.5029-1.6846 3.3693-2.9361 2.4066-6.2091-0.91452-2.9842-4.2838-5.7278-6.883-7.1237-2.0697-1.1071-4.8133-2.166-7.6531-1.1071 4.6207-0.19253 8.327 5.3909 7.0274 9.434 1.0589 2.9361-1.3959 7.9419-5.3427 10.541z"/>
   <path d="m46.507 143.43c-1.829-0.2888-4.2838-1.444-4.7651-2.0697-1.1071 0.24066-5.2465-0.48133-6.7386-1.6365-0.86639-0.67385-0.67386-5.2465 0.57759-6.0647 0.57759-0.38506 2.888-0.48133 4.717 0.19253 2.2622-0.52946 5.5353-6.3054 7.4606-7.1718-1.0108-2.2622-3.5618-5.1502-7.3643-7.5568-1.7809-0.38507-2.5029-0.722-3.2249-1.6846-0.72199-0.91453-2.9842-4.2357-2.9361-6.0647 1.2996 2.166 4.4282 4.4764 6.0647 4.5245 1.5884 0.0481 4.2357-0.77013 5.1983-1.444 0.91452-0.62572 3.61-1.4921 4.4282-1.5884 0 1.6365 1.2515 4.1876 3.7062 5.0058 0.72199 0.2888 2.551 0.1444 3.0324-0.52946-0.1444 0.38506-0.4332 1.4921-0.33693 2.0697 0.2888 2.0697 1.9253 4.8133 2.3585 5.1502 0.86639 0.67386 2.0697 1.2033 2.2622 1.9253-3.1768-0.57759-6.4498 2.2141-7.5568 4.717-1.1071 2.4548-3.8025 4.4282-6.1129 4.717-2.0216 1.2033-1.9734 5.8241-0.77012 7.5087z"/>
  </g>
  <g fill="#766e6a" stroke-width=".30083">
   <path d="m74.568 44.952c0.77012-3.4656 3.7062-12.081 9.3378-15.402 0.62573 0.86639 1.0108 4.1394 0.2888 6.3535-0.1444-0.2888-0.4332-0.62573-0.57759-0.67386-0.1444-0.04813-0.77012-0.2888-1.0589-0.1444-1.444 0.72199-5.8241 5.2946-7.99 9.8672z"/>
   <path d="m72.932 23.629c0 3.1286 0.04813 18.098 0 20.89 0.4332-5.2465 1.1552-12.418 2.4066-14.536-0.86639-1.2996-2.0697-4.717-2.4066-6.3535z"/>
   <path d="m64.605 32.918c1.9734 2.7436 4.7651 7.3643 5.5353 12.033-0.48133-1.444-2.5992-4.7651-3.273-5.4871-0.1444-1.829-1.2515-4.717-2.2622-6.5461z"/>
  </g>
  <g stroke-width=".30083">
   <path d="m70.332 45.481c-0.04813-0.33693-0.62573-1.444-0.96266-2.1178-0.04813 0.4332-0.1444 0.86639-0.19253 1.2996 0.19253 0.33693 0.91452 1.0108 1.1552 0.81826z" fill="#849dae"/>
   <path d="m62.342 35.277c-0.38506-0.24066-1.2033-0.2888-1.4921 0.52946 0.67386-0.1444 1.8772 0.67386 3.2249 2.0216 0.19253-0.24066 0.38506-0.48133 0.62573-0.67386-0.81826-0.81826-1.6365-1.4921-2.3585-1.8772z" fill="#849dae"/>
   <path d="m64.701 37.154c-0.24066 0.19253-0.4332 0.4332-0.62573 0.67386 0.67386 0.67386 1.3477 1.444 2.0216 2.3104 0.1444-0.33693 0.24066-0.67386 0.38506-0.96266-0.57759-0.72199-1.1552-1.3959-1.7809-2.0216z" fill="#dbdcdc"/>
   <path d="m69.37 43.363c-0.24066-0.4332-0.52946-0.91452-0.86639-1.3959-0.04813 0.4332-0.09627 0.86639-0.19253 1.2515 0.2888 0.48133 0.57759 0.96266 0.86639 1.444 0.048133-0.4332 0.1444-0.86639 0.19253-1.2996z" fill="#dbdcdc"/>
   <path d="m66.482 39.176c-0.1444 0.2888-0.24066 0.62573-0.38506 0.96266 0.81826 0.96266 1.5402 2.0216 2.2141 3.0805 0.09627-0.38506 0.1444-0.81826 0.19253-1.2515-0.57759-0.91452-1.2515-1.8772-2.0216-2.7917z" fill="#ae2e42"/>
   <path d="m74.568 44.952c-0.24066 0.4332-0.48133 0.48133-0.86639 0.24066 0.09627 0.48133 1.0108 0.77012 1.444 0.1444 0.19253-0.2888 0.2888-0.4332 0.48133-0.77012-0.04813-0.33693-0.1444-0.72199-0.19253-1.2033-0.33693 0.57759-0.67386 1.1071-0.86639 1.5884z" fill="#849dae"/>
   <path d="m83.617 35.229c-0.2888-0.1444-0.67386-0.2888-1.0589-0.1444-0.52946 0.24066-1.3959 1.0108-2.3585 2.0697 0.2888 0.24066 0.48133 0.52946 0.67386 0.81826 0.48133-0.4332 0.91452-0.81826 1.3959-1.1552 0.52946-0.4332 1.829-0.38506 2.5029 0.04813-0.38506-0.67386-0.86639-1.4921-1.1552-1.6365z" fill="#849dae"/>
   <path d="m75.434 43.363c0.04813 0.48133 0.1444 0.86639 0.19253 1.2033 0.24066-0.38506 0.52946-0.77012 0.81826-1.2033-0.09627-0.33693-0.19253-0.72199-0.24066-1.1071-0.2888 0.38506-0.52946 0.77012-0.77012 1.1071z" fill="#dbdcdc"/>
   <path d="m80.873 37.972c-0.19253-0.2888-0.38506-0.57759-0.67386-0.81826-0.62573 0.67386-1.3477 1.5402-2.0216 2.4066 0.19253 0.2888 0.33693 0.57759 0.48133 0.86639 0.72199-0.86639 1.444-1.7328 2.2141-2.4548z" fill="#dbdcdc"/>
   <path d="m78.178 39.561c-0.72199 0.86639-1.3959 1.829-1.9734 2.6954 0.04813 0.38506 0.1444 0.77012 0.24066 1.1071 0.62573-0.91452 1.3959-1.9734 2.2141-2.9361-0.1444-0.2888-0.2888-0.57759-0.48133-0.86639z" fill="#ae2e42"/>
   <path d="m76.734 30.416c-1.6846 2.2622-2.888 10.926-3.273 14.729 0 0.33693-0.67386 0.77012-1.2033 0.57759 0.33693 0 0.67386-0.2888 0.67386-0.72199 0-3.1286 0.81826-11.167 2.4066-15.017 0.33693 0.04813 1.0108 0.24066 1.3959 0.4332z" fill="#849dae"/>
  </g>
  <g fill="#dcd096" stroke-width=".30083">
   <path d="m62.102 57.755c2.0697 1.2033 4.1394 1.9734 4.7651 2.3104 0.62573 0.38506 1.6365 0.1444 2.551-0.19253 0.91452-0.2888 4.0913-0.72199 5.8722-0.04813 1.2515 0.52946 3.4656 0.67386 5.8241-0.91452-1.5884 1.829-3.0324 3.273-4.7651 2.5992-1.3477-0.57759-5.3909-0.38506-7.5087 0.04813-2.3585 0.48133-3.273-0.33693-6.7386-3.8025z"/>
   <path d="m57.866 45.289c1.2996 0.38506 3.2249 1.7809 3.8025 2.3585 0.52946 0.52946 1.2996 0.81826 2.1178 0.72199 2.2622-0.33693 5.1983-0.4332 6.7867 0.72199 0.91452 0.67386 2.2622 0.62573 3.273 0.04813 1.444-0.77012 5.2465-1.2033 6.883-0.72199 1.0108 0.2888 2.4066-0.62573 2.9361-1.1071 0.62573-0.57759 1.7328-1.6846 3.2249-2.0216-1.3959 1.2033-2.7917 2.6473-3.4174 3.5137-0.67386 0.91452-1.3477 1.1071-2.6473 0.67386-1.2515-0.48132-4.8614-0.38506-6.7867 0.96266-0.86639 0.57759-2.0697 0.91452-2.9361 0.2888-1.2515-0.96266-3.8988-2.3104-7.3162-1.1552-0.72199 0.19253-1.9734 0.33693-2.5029-0.57759-0.52946-0.91452-2.0697-2.888-3.4174-3.7062z"/>
   <path d="m86.12 41.967c0.91452 0.86639 1.1071 2.6954 0.38506 3.5618-0.62573 0.67386-0.86639 2.551-0.77012 3.4174 0.09627 0.86639 0.57759 2.8398 0.52946 3.61-0.04813 0.77012-0.52946 2.3585-2.1178 3.9469 1.1071-0.77012 2.166-1.5884 2.551-2.0216 0.4332-0.48133 0.72199-1.9734 0.38506-3.3212-0.33693-1.3477-0.4332-4.5245 0.19253-5.1983 1.3477-1.3477 0.096266-4.4282-1.1552-3.995z"/>
   <path d="m57.866 45.433c1.0108 1.2996 1.444 2.7917 1.5884 4.0432 0.1444 1.2515 0.48133 6.7867 5.7278 8.6158-1.3477-1.0108-4.332-3.995-4.6689-6.4979-0.38506-2.4548-0.57759-3.9469-0.77012-4.6689-0.48133-0.4332-1.2033-1.1071-1.8772-1.4921z"/>
  </g>
  <g stroke-width=".30083">
   <path d="m57.577 51.642c1.1071-3.273-0.57759-6.2091-0.77012-6.9311-0.1444-0.77012 1.0108-2.7917 1.6846-2.9842l0.2888-1.2033c-0.91452 0.04813-3.1768 0.4332-3.8506 0.57759l1.1071 0.72199c0.67386 0.57759 0 2.6473-0.4332 3.0805-1.7809 1.8772-5.439 1.8772-7.1237 0.48133-0.57759-0.48133-0.81826-0.2888-0.4332 0.38506 1.6365 3.0324 8.6639 1.9253 9.5303 5.8722z" fill="#849dae"/>
   <path d="m87.227 51.402c-1.1071-3.273 0-5.3427 0.4332-6.0647 0.52946-0.91452 0-3.2249-1.2996-3.61l-0.33693-1.444c0.91452 0.09627 3.1768 0.4332 3.8506 0.62573l-1.2515 0.86639c-0.67386 0.57759 0.1444 2.5029 0.57759 2.9361 1.7809 1.829 5.439 1.8772 7.1237 0.4332 0.57759-0.48133 0.81826-0.2888 0.4332 0.38506-1.6365 3.0324-8.6639 1.9253-9.5303 5.8722z" fill="#849dae"/>
   <path d="m62.439 55.493c4.5726-4.4282 15.739-4.2357 19.975 0 0.62573-0.91452 1.5402-2.5992 1.829-4.0432-0.4332-0.57759-1.1071-1.3959-1.9253-1.7809-0.48133 0.09627-1.2515-0.09627-2.0697-0.2888-1.6365-0.4332-4.2357-0.09626-6.2091 1.0589-1.3477 0.77012-2.2141 0.77012-3.1286 0.09627-1.3477-1.0589-4.0432-1.5402-5.6797-1.2515-1.1552 0.24066-2.0697 0.67386-2.6954 0.48133-0.67386 0.19253-1.5884 1.2033-1.9253 1.8772 0.2888 1.1071 1.0589 2.7917 1.829 3.8506z" fill="#ce7486"/>
  </g>
  <g fill="#dcc200" stroke-width=".30083">
   <path d="m58.058 88.897c0.19253 0.86639 1.444 0.96266 1.7809 0.04813 0.1444 0.81826-0.33693 1.5884-1.0108 1.5402-0.62573-0.048129-0.77012-0.91452-0.77012-1.5884z"/>
   <path d="m61.909 89.571c0.19253 0.77012 1.3959 1.0108 1.8772 0.1444 0.1444 0.86639-0.1444 1.5402-1.0108 1.4921-0.81826 0-1.0589-0.72199-0.86639-1.6365z"/>
   <path d="m80.922 89.667c0.19253 1.1071 1.7328 1.0589 2.0216-0.04813 0.19253 0.57759 0 1.5402-0.96266 1.6365-0.96266 0.096263-1.2515-0.91453-1.0589-1.5884z"/>
   <path d="m84.965 88.849c0.1444 0.96266 1.5884 0.96266 1.6846-0.04813 0.19253 0.57759 0 1.5402-0.77012 1.6365-0.77012 0.04813-1.0589-0.67386-0.91452-1.5884z"/>
   <path d="m67.011 90.052c2.4066 4.8614 8.6639 4.3801 10.445 0.09627 0.52946 2.2141-1.0589 5.9685-5.3427 6.0647-3.995 0.1444-5.7278-3.8988-5.1021-6.161z"/>
  </g>
  <g fill="#0f141b" stroke-width=".30083">
   <path d="m79.718 31.186c-1.3477-0.77012-2.8398-1.3477-4.5726-1.6846v0.81826c1.5402 0.2888 2.888 0.81826 4.0913 1.4921z"/>
   <path d="m65.567 31.956c1.2996-0.77012 2.6954-1.2996 4.0913-1.6365l-0.09627-0.77012c-1.4921 0.33693-3.0324 0.96266-4.4282 1.829z"/>
   <path d="m67.3 40.764c-0.24066 0-0.4332 0.77012-0.4332 1.1552 0 0.4332 0 1.444 0.24066 1.444s0.38506-0.86639 0.4332-1.3477c0-0.48133 0-1.2515-0.24066-1.2515z"/>
   <path d="m77.456 40.86c0.24066-0.04813 0.38506 0.77012 0.4332 1.2033 0.04813 0.4332 0 1.3477-0.24066 1.3477-0.24066 0.04813-0.38506-0.86639-0.4332-1.3477 0-0.48133 0.04813-1.2033 0.24066-1.2033z"/>
   <path d="m60.561 30.031c0.77012 0.04813 2.3585 1.0108 3.61 2.6954 0.52946 0.67386 0.72199 0.52946 0.2888-0.19253-1.0589-1.6365-2.6473-2.7917-3.7062-2.9842z"/>
   <path d="m70.477 45.241c-0.2888-1.6365-1.2033-4.1876-1.7809-5.2946-0.2888-0.52946-0.48133-0.4332-0.2888 0.09627 0.4332 1.0108 1.0108 2.6473 1.3477 4.0913z"/>
   <path d="m62.727 44.037c-0.38506-2.7436 0.86639-5.6315 2.0216-6.6423l-0.2888-0.33693c-1.5402 1.2515-2.7436 4.3801-2.3585 7.0755z"/>
   <path d="m68.936 46.107c0.4332-0.96266 0.52946-1.7809 0.48133-2.6954l-0.4332-0.62573c0.1444 1.0589-0.04813 2.1178-0.48133 3.0805z"/>
   <path d="m68.214 41.534c0.1444 1.7328-0.62573 3.0805-1.2033 3.4656l0.52946 0.2888c0.72199-0.52946 1.1552-1.8772 1.0589-3.1768z"/>
   <path d="m66.241 44.711c-0.52946-1.2996-0.48133-3.61 0.38506-5.2465l-0.33693-0.4332c-1.0589 1.7328-1.2033 4.1876-0.67386 5.439z"/>
   <path d="m72.258 45.048c0-4.0913-1.2996-12.081-2.4066-15.066 0.52946-1.4921 1.5402-4.3801 2.4548-6.0166 0.1444-0.04813 0.2888-0.04813 0.4332 0 0.48133 1.6365 1.5402 5.1021 2.166 6.0166-1.2996 2.5992-2.1178 11.263-2.2622 15.114-0.048132 0.38506-0.38506 0.38506-0.38506-0.048133zm1.0589-21.563c0-0.04813-0.04813-0.09627-0.1444-0.09627-0.2888-0.1444-1.0108-0.09627-1.2515-0.04813-0.09627 0-0.1444 0-0.19253 0.09627-0.91452 1.6846-2.0697 4.9577-2.5992 6.4979v0.1444c1.1552 2.9842 2.6473 10.974 2.6473 15.066 0 0.86639 1.2996 0.86639 1.3477 0.04813 0.24066-4.9577 1.3477-12.948 2.551-15.114 0-0.09626 0-0.1444-0.04813-0.24066-0.57759-0.67386-1.829-4.7651-2.3104-6.3535z"/>
   <path d="m72.161 34.651c-0.04813 0.57759-0.2888 0.57759-0.2888 0 0-3.0805 0.04813-7.3162 0.09627-10.637l0.4332-0.24066c0.048129 3.3212-0.1444 8.3751-0.24067 10.878z"/>
   <path d="m73.076 41.294c0.1444-5.4871 0.09627-14.007 0.04813-16.943l-0.4332-0.52946c0.09627 2.9361 0.1444 17.809-0.04813 21.66z"/>
   <path d="m83.858 29.453c-0.91452 0.19253-2.3104 1.3477-3.61 3.1768-0.33693 0.52946-0.1444 0.67386 0.24066 0.1444 1.444-1.7809 2.9842-2.888 3.61-2.9361z"/>
   <path d="m74.953 44.133c0.33693-1.2996 0.86639-3.0805 1.444-4.332 0.2888-0.57759 0.09627-0.67386-0.24066-0.1444-0.96266 1.7328-1.6365 4.332-1.8772 5.6797z"/>
   <path d="m76.301 45.77c-0.33693-0.72199-0.77012-1.8772-0.57759-2.9842l-0.4332 0.67386c-0.04813 1.0108 0.2888 2.1178 0.52946 2.5992z"/>
   <path d="m82.414 43.941c0.38506-3.5618-0.86639-5.7759-2.0697-6.9793l-0.33693 0.33693c1.0108 1.1071 2.1178 3.1768 1.829 6.6423z"/>
   <path d="m77.649 45.096c-0.62573-0.38506-1.2515-2.0216-1.2033-3.5137l-0.38506 0.62573c0 1.2996 0.38506 2.5992 0.96266 3.1768z"/>
   <path d="m79.141 44.519c0.48133-1.3959 0.1444-3.8988-0.86639-5.2465l-0.2888 0.38506c0.81826 1.2515 1.0589 3.6581 0.48133 5.1021z"/>
   <path d="m70.814 47.599c1.1552 0.77012 2.3104 0.67386 3.61-0.2888 2.9361-2.2141 5.9203-3.273 8.327-3.0324 0.57759 0.04813 1.4921 0.09627 2.2141 0 0.81826-0.09627 0.72199-0.48133-0.04813-0.4332-0.67386 0.09627-1.4921-0.04813-2.1178-0.09627-2.9361-0.24066-6.0647 1.1071-8.6639 3.1286-1.1071 0.81826-2.0697 0.91452-3.0805 0.24066-2.8398-1.7809-5.0539-3.7062-9.0008-3.273-0.72199 0.04813-1.6365 0.1444-2.166 0.09627-0.67386-0.09627-0.72199 0.24066-0.04813 0.38506 0.62573 0.1444 1.6846 0.04813 2.2622 0 3.8506-0.38506 6.1129 1.5884 8.712 3.273z"/>
   <path d="m61.765 44.085c-1.0589-0.09627-2.7436-2.6473-3.3693-2.6473-0.81826 0-2.166 2.6954-1.7328 3.7062 0.57759 1.444 1.2996 3.1286 0.62573 6.3054-0.33693 1.6846 0.04813 2.9361 1.2033 3.8988l6.8349 5.9203c1.1071 0.91452 2.166 1.0108 3.3212 0.72199 2.0697-0.57759 5.9203-0.72199 7.7975-0.09627 0.91452 0.33693 1.9253 0.04813 2.7436-0.62573 2.1178-1.9253 4.8614-4.2838 7.0274-5.9685 1.1552-0.86639 1.5884-2.166 1.2033-3.9469-0.38506-1.7809-0.67386-4.1876 0.33693-5.5834 1.1071-1.444-0.33693-4.4764-1.3959-4.3801-0.81826 0.09627-2.166 2.5029-3.2249 2.5992l1.0108 0.19253c0.77012-0.24066 1.7328-1.9253 2.2141-1.9734 0.67386-0.09627 1.7809 2.1178 0.96266 3.2249-1.1071 1.4921-0.96266 4.1876-0.57759 6.0647 0.33693 1.5884 0.09627 2.551-0.91452 3.3693-2.1178 1.6365-4.9577 3.8506-7.1718 5.7759-0.67386 0.62573-1.2515 0.81826-1.9734 0.52946-1.9734-0.67386-6.0166-0.52946-8.1826 0.04813-1.0589 0.2888-1.829 0.1444-2.6954-0.57759l-6.9311-5.7759c-1.1071-0.91452-1.1552-2.2141-0.91452-3.273 0.4332-2.166 0.38506-3.995-0.77012-6.5942-0.38506-0.77012 0.77012-2.7436 1.2033-2.7436 0.33693-0.04813 1.5402 1.5884 2.3104 1.9253z"/>
  </g>
  <path d="m59.887 47.07 1.5287 2.2318 0.82976 0.41548-0.53116 0.7192-1.1054 1.2061-0.41751-2.1318-0.30449-2.4408" fill="#922f00"/>
  <path d="m59.31 46.54c0.52946 1.4921 0.77012 3.3693 0.81826 4.0913 0.19253 2.166 2.0216 6.9311 6.6905 8.3751l0.4332-0.4332c-4.332-1.3959-6.4498-6.0647-6.6423-7.99-0.048133-0.77012-0.2888-2.3104-0.72199-3.5137z" fill="#0f141b" stroke-width=".30083"/>
  <path d="m66.674 58.91c-0.4332 0.38506-0.19253 0.62573 0.2888 0.2888 2.2622-1.7809 8.2307-1.829 10.926-0.04813 0.62573 0.38506 0.81826 0.09627 0.2888-0.33693-2.6954-2.2141-9.1452-2.0697-11.504 0.096263z" fill="#0f141b" stroke-width=".30083"/>
  <path d="m84.772 47.262-0.06508 1.1136-0.36811 2.9295-0.76657-0.57059-1.1106-1.1141 0.66271-0.40881 1.6477-1.9497" fill="#922f00"/>
  <g fill="#0f141b" stroke-width=".30083">
   <path d="m78.082 59.007c2.7436-1.0108 5.9203-4.0432 6.4979-8.0863 0.19253-1.2033 0.33693-3.5618 1.0589-4.5245l-0.86639 0.86639c-0.38506 1.1071-0.57759 2.7436-0.67386 3.61-0.57759 3.995-4.2838 7.0274-6.6905 7.7012z"/>
   <path d="m84.339 51.305c-0.33693-0.81826-1.2033-1.4921-1.8772-1.6846l-0.77012 0.1444c0.86639 0.1444 2.166 1.2996 2.4066 2.4548z"/>
   <path d="m60.754 52.124c0.2888-1.0108 1.2996-1.9253 2.2622-2.3104l-0.77012-0.09627c-0.62573 0.2888-1.2996 0.77012-1.7328 1.5402z"/>
   <path d="m64.316 59.825c-2.2141-0.4332-5.9203-1.6846-7.605-2.6954-0.62573-0.38506-0.81826-0.09626-0.19253 0.33693 1.9734 1.4921 5.6315 2.6954 8.6639 3.1286z"/>
   <path d="m79.526 60.45c2.9842-0.24066 7.4606-1.6846 8.8564-3.2249 0.52946-0.57759 0.38506-0.77012-0.2888-0.33693-1.7809 1.2996-5.5353 2.4066-7.7975 2.8398z"/>
   <path d="m55.219 41.294c0.96266 0 2.4548-0.38506 3.3693-0.4332l0.09627-0.72199c-1.1071 0.09627-3.5137 0.72199-4.3801 0.57759z"/>
   <path d="m47.277 39.994c1.2996-0.4332 3.6581-0.2888 4.1876-0.19253 0.67386 0.09627 2.551 0.91452 4.3801 2.1178 0.48133 0.2888 0.67386 0 0.24066-0.33693-1.6365-1.2515-3.61-2.5029-4.4282-2.6473-0.62573-0.09626-3.2249-0.04813-4.5726 0.4332z"/>
   <path d="m41.116 35.277c3.2249 0.67386 5.7759 3.2249 6.161 6.0166 0.04813 0.62573 0.38506 0.57759 0.38506 0 0-3.0324-2.6954-5.8722-6.0647-6.6905z"/>
   <path d="m36.014 41.149c0.4332 2.0697 1.6846 3.7544 3.3212 4.332 0.62573 0.24066 0.72199 0 0.19253-0.38506-1.3477-0.86639-2.4548-2.2141-3.1286-4.0432-0.24066-0.67386-0.52946-0.57759-0.38506 0.096266z"/>
   <path d="m47.758 21.318c-2.166 1.7328-3.3212 3.8988-3.8025 5.0058-0.52946 1.2033-1.2033 4.6207-1.4921 6.161-0.19253 1.1552-1.829 2.6954-2.9361 3.7544-0.81826 0.81826-3.5618 2.4548-4.717 3.0324-0.52946 0.24066-0.38506 0.52946 0.19253 0.38506 1.1552-0.38506 4.0913-2.0216 5.0058-2.8398 1.2996-1.2033 2.9361-2.7436 3.2249-4.1394 0.33693-1.5402 0.86639-4.9577 1.3477-6.0647 0.52946-1.2996 1.7328-3.3693 3.9469-5.1502z"/>
   <path d="m36.88 29.501c-1.4921 1.0589-4.9577 2.2622-5.6797 2.9361-0.67386 0.57759-1.0108 1.2033-1.4921 2.5992-0.19253 0.62573 0.04813 0.77012 0.38506 0.19253 0.57759-1.1071 1.0108-1.6365 1.6365-2.166 0.77012-0.72199 3.995-2.0216 5.3909-3.2249 0.57759-0.48133 0.38506-0.77012-0.24066-0.33693z"/>
   <path d="m49.106 20.404c-2.1178 1.0108-4.9095 2.1178-5.5834 2.2141-0.67386 0.04813-2.9361-0.24066-4.9095-0.67386-0.52946-0.1444-0.62573 0.19253-0.09627 0.38506 1.7809 0.67386 4.2357 1.1552 5.0539 1.0589 0.77012-0.09627 3.8506-1.444 5.7278-2.5992 0.4332-0.2888 0.24067-0.62573-0.19253-0.38506z"/>
   <path d="m43.089 22.955c-1.2515 1.0108-2.0216 1.7809-2.6473 3.0805-0.2888 0.62573 0 0.77012 0.38506 0.19253 0.77012-1.1552 1.829-2.2141 3.273-3.3212z"/>
   <path d="m53.053 20.982c-0.72199 0.24066-1.3477 0.33693-1.6846 0.38506-0.2888 0-2.2141-0.04813-3.0805-0.24066l-0.4332 0.48133c1.0108 0.2888 3.273 0.4332 3.6581 0.38506 0.4332-0.04813 1.7328-0.4332 2.6954-0.91452z"/>
   <path d="m58.107 13.569c0.52946 0.52946 0.86639 1.1071 0.91452 1.5884 0.09627 0.52946-0.19253 2.9361-0.48133 3.5137-0.2888 0.57759-1.4921 1.6365-2.2622 1.8772-1.2515 0.33693-5.0539 0.04813-5.4871-0.38506-0.19253-0.19253-0.33693-1.0589-0.1444-2.2141l-0.57759 0.33693c-0.09626 0.62573-0.24066 1.9253 0.19253 2.3104 0.62573 0.62573 4.9577 1.0108 6.161 0.67386 1.0108-0.24066 2.5029-1.5402 2.8398-2.2141 0.33693-0.67386 0.57759-3.3693 0.48133-4.0432-0.09627-0.77012-0.96266-1.6846-1.2515-1.9734z"/>
   <path d="m39.046 15.687c-0.24066-0.38506-0.57759-0.24066-0.38506 0.1444 0.33693 0.72199 1.2033 2.551 1.1552 3.0324-0.04813 0.48133 0.48133 0.62573 0.57759 0.1444 0.096266-0.52946-0.4332-1.9734-1.3477-3.3212z"/>
   <path d="m39.527 17.179c-0.33693 0-1.0108 0.67386-0.96266 1.2033 0 0.4332 0.72199 2.2622 1.0589 2.6473 0.2888 0.33693 1.829 1.3477 2.7436 1.2515 0.86639-0.04813 3.1768-0.81826 3.6581-1.4921 1.0589-1.3477 0.52946-4.8133-0.67386-8.9527-0.19253-0.57759-0.62573-0.48133-0.48133 0.09627 0.72199 3.3212 1.4921 6.9793 0.48133 8.2788-0.33693 0.4332-2.166 1.1071-2.9842 1.1552-0.72199 0.09626-1.9253-0.48133-2.166-0.77012s-0.91452-1.829-0.96266-2.166c0-0.24066 0.2888-0.62573 0.48133-0.67386z"/>
   <path d="m46.073 19.874c0.24066 0.09627 1.0108 0.19253 1.3959 0.09627 0.33693-0.09627 2.8398-1.2033 3.3693-1.6365 0.48133-0.48133 0.91452-1.829 0.96266-2.4066 0.04813-0.33693-0.24066-1.7809-0.67386-3.995-0.24066-1.444-0.52946-2.551-0.62573-3.4174-0.048133-0.62573-0.48133-0.57759-0.48133 0.048133 0.04813 0.77012 0.19253 2.0216 0.48133 3.5137 0.24066 1.5402 0.4332 3.4174 0.4332 3.7062-0.09627 0.62573-0.38506 1.5402-0.77012 1.9253-0.4332 0.38506-2.6473 1.4921-2.888 1.5884-0.2888 0.04813-0.81826-0.04813-1.0589-0.09627z"/>
   <path d="m50.79 17.564c0.2888 0.04813 0.81826 0.09627 1.2033-0.04813 0.38506-0.1444 3.0805-1.8772 3.3212-2.8398 0.19253-0.67386-0.72199-6.2091-0.52946-7.4125 0.09627-0.62573-0.2888-0.72199-0.4332-0.1444-0.38506 1.829 0.33693 6.4979 0.09627 7.2681-0.19253 0.77012-2.3104 2.4066-2.6473 2.551-0.24066 0.09626-0.48133 0.09626-0.67386 0.04813z"/>
   <path d="m45.207 4.9533c-0.86639 0.1444-1.1552 0.1444-1.6365 0.81826-0.2888 0.4332-0.62573 0.81826-1.7328 1.2033-1.3959 0.52946-2.6473 1.1071-3.8506 2.5029-1.2515 1.4921-1.6846 7.2681-2.9361 10.108-0.2888 0.67386 0.04813 0.86639 0.38506 0.19253 1.5402-3.0805 2.0697-8.4714 3.1768-9.771 0.91452-1.1071 2.3104-2.0216 3.4656-2.4066 1.0589-0.4332 1.6365-0.77012 2.0216-1.3477 0.2888-0.4332 0.72199-0.57759 1.2033-0.67386 1.2033-0.24066 2.9361-1.9734 3.9469-2.1178 0.62573-0.096266 2.166 0.2888 2.6954 0.33693 0.33693 0 1.829-0.33693 2.4548-0.2888 0.52946 0.048133 1.9253 0.67386 2.2141 1.3477 0.1444 0.2888 2.9842 4.6689 3.0324 5.1502-0.09627 1.3959-3.0805 4.8614-3.5618 5.0058-0.33693 0.09627-1.0589 0.1444-1.5402 0.04813l-0.4332 0.62573c0.48133 0.19253 1.7809 0.24066 2.2141 0.09627 0.91452-0.24066 4.1394-4.2838 4.2838-5.7278 0.04813-0.57759-3.273-5.1983-3.4174-5.4871-0.38506-0.86639-2.166-1.829-2.7436-1.8772-0.67386-0.096266-2.1178 0.52946-2.5029 0.48133-0.62573 0-2.1178-0.62573-2.7917-0.48133-1.2515 0.19253-3.1286 2.1178-3.9469 2.2622z"/>
   <path d="m37.409 52.412c-1.6365-0.2888-6.0166-2.7917-6.9311-3.8506-2.2622-2.551-4.0913-4.4282-6.7386-6.3054-0.57759-0.38506-1.2996-1.829-1.3477-2.7917-0.04813-0.81826-0.09627-5.2946 0.1444-6.1129 0.38506-1.3959 3.2249-5.9203 4.4764-7.7494 1.0108-1.5402 2.4548-2.3104 2.888-2.551 2.5992-1.2515 4.7651-2.8398 5.8722-4.3801l0.24066-1.5884c-0.91452 1.7809-3.5618 4.0913-6.3535 5.439-0.48133 0.19253-2.166 1.0589-3.2249 2.6954-1.2996 2.0216-4.3801 6.4498-4.7651 7.8938-0.2888 0.96266-0.33693 5.7278-0.2888 6.4017 0.04813 1.1071 1.2515 2.888 1.8772 3.3693 2.3585 1.6365 4.0432 3.1768 6.7386 6.161 0.96266 1.1071 5.1983 3.8988 6.9311 4.1876z"/>
   <path d="m36.399 58.718c0-2.4548 0.57759-4.717 1.0108-5.6315 0.52946-1.1552 3.61-2.888 4.5726-3.273 0.81826-0.2888 2.9842-0.52946 4.2838-0.62573 0.62573-0.04813 0.57759-0.33693-0.04813-0.38506-1.2996-0.1444-3.61 0-4.4764 0.2888-1.3477 0.48133-4.5245 2.3585-5.1021 3.7062-0.57759 1.3477-0.91452 3.7062-0.86639 6.4498z"/>
   <path d="m47.421 57.322c-1.1071 0.72199-2.2622 1.2515-3.61 1.6846-0.57759 0.19253-0.52946 0.52946 0.09627 0.4332 1.3959-0.24066 2.7917-0.77012 3.7544-1.7809 0.33693-0.38506 0.19253-0.62573-0.24066-0.33693z"/>
   <path d="m42.463 63.868c-0.2888 2.888-2.551 6.4498-4.6689 7.9419-0.52946 0.38506-0.33693 0.67386 0.19253 0.38506 2.3585-1.2515 4.9577-5.0539 4.8614-8.327 0-0.67386-0.33693-0.67386-0.38506 0z"/>
   <path d="m30.911 72.195c0.2888-0.67386 0.09627-5.0058 0.1444-5.8722 0.09627-0.67386 1.5402-3.6581 2.3104-4.4764 0.48133-0.52946 2.7436-2.5992 3.8988-3.4656 0.48133-0.4332 0.2888-0.67386-0.2888-0.33693-1.1552 0.67386-3.7062 2.6954-4.2357 3.2249-0.77012 0.81826-2.4066 4.1394-2.4548 5.0058-0.04813 0.81826 0.19253 5.0058-0.04813 5.6797z"/>
   <path d="m19.648 68.152c1.6365 1.0589 4.3801 2.8398 4.9577 3.0805 0.67386 0.2888 3.7544 0.52946 4.8614 0.81826 1.5402 0.38506 4.3801 2.1178 5.0058 2.7436 0.48133 0.4332 2.0216 2.551 2.7917 3.6581 0.4332 0.62573 0.72199 0.4332 0.33693-0.24066-0.67386-1.1071-2.166-3.4656-2.6473-3.8988-0.67386-0.62573-3.7062-2.6473-5.2946-3.0324-1.1071-0.2888-3.995-0.4332-4.7651-0.72199-0.57759-0.19253-3.5137-2.1178-5.0058-3.0805z"/>
   <path d="m18.301 68.344c0.09627 1.6365 0.1444 4.1394 0.04813 5.1021 0 0.52946-0.4332 1.4921-1.0589 2.4548-0.2888 0.4332-0.09626 0.62573 0.2888 0.2888 0.81826-0.67386 1.5884-2.0216 1.5884-2.6473 0.04813-0.67386-0.2888-3.8988-0.4332-5.2465-0.096262-0.62573-0.48132-0.62573-0.43319 0.048133z"/>
   <path d="m2.7056 60.643c0.048133 0.67386 0.4332 0.67386 0.4332 0.04813 0-0.81826-0.096266-1.9734 0.048133-2.4066 0.048133-0.19253 0.4332-0.52946 1.1552-0.81826 1.2996-0.4332 5.5353-3.1286 6.5461-3.3693 0.2888-0.04813 1.829 0.52946 2.3585 0.62573 0.38506 0.09627 0.48133 0.33693 0.67386 0.72199 0.33693 0.52946 1.4921 1.829 2.0216 2.1178l0.62573-0.52946c-0.4332-0.2888-1.7328-1.5402-2.0216-2.0216-0.19253-0.33693-0.57759-0.96266-1.2033-1.0589-0.4332-0.09627-2.166-0.86639-2.551-0.81826-1.1552 0.24066-5.5834 3.3212-6.6905 3.7062-0.81826 0.2888-1.3477 0.67386-1.4921 1.2515-0.096266 0.38506 0 1.5402 0.096266 2.551z"/>
   <path d="m3.0907 64.975c-0.24066-1.0108-0.62573-2.0697-0.62573-2.6954 0-0.33693 0.19253-0.91452 0.48133-1.5402l-0.19253-0.81826c-0.38506 0.52946-1.0589 1.829-1.1071 2.2622-0.048133 0.52946 0.96266 2.888 1.2033 3.9469z"/>
   <path d="m2.4649 66.9c-0.096266-0.38506 0.19253-1.5402 0.4332-2.3104 0.1444-0.57759 0.48133-0.52946 0.38506 0.09627-0.096266 0.81826-0.1444 1.829-0.096266 2.166 0.048133 0.38506 0.38506 1.3477 0.4332 1.829 0.048133 0.33693 0.19253 1.444 0.62573 2.2141 0.48133 0.96266 2.0216 3.7544 2.9361 4.2357 0.81826 0.48133 3.3693 1.0108 4.5245 1.5884 1.5402 0.72199 3.3693 1.1552 4.5726 1.3477 0.52946 0.09627 0.48133 0.48133-0.04813 0.4332-0.91453-0.1444-3.2249-0.38507-4.7652-1.1552-1.0108-0.48133-3.9469-0.91452-4.7651-1.3959-1.0108-0.57759-2.551-3.61-3.1768-4.717-0.4332-0.81826-0.52946-2.166-0.52946-2.551-0.096266-0.72199-0.48133-1.3477-0.52946-1.7809z"/>
   <path d="m11.177 74.361c-0.04813 0.52946 0.52946 1.3477 1.0108 1.3959 0.1444 0 2.1178 0.04813 2.5029-0.19253 0.33693-0.24066 1.4921-1.2033 1.6846-1.7809 0.1444-0.4332 0.48133-2.9361 0.2888-3.4656s-1.6846-1.5884-2.1178-1.6365c-0.38506 0-3.1768 0.09627-4.2838 0.1444-0.72199 0.04813-2.551 0.24066-3.1768 0-0.48133-0.1444-0.62573 0.19253-0.24066 0.4332 0.62573 0.33693 1.9734 0.33693 3.4174 0.24066 1.1552-0.04813 3.8025-0.09627 4.1394-0.04813 0.2888 0 1.2996 0.72199 1.444 1.1071 0.1444 0.38506-0.1444 2.3585-0.2888 2.888-0.1444 0.38506-0.91452 1.2033-1.2515 1.444-0.19253 0.1444-1.7328 0.24066-2.0216 0.19253-0.19253-0.04813-0.52946-0.4332-0.52946-0.72199z"/>
   <path d="m15.605 64.397c1.444 0.96266 0.1444 4.2357-0.33693 4.9577l0.52946 0.48133c0.81826-0.86639 2.0697-4.1876 0.96266-5.5353z"/>
   <path d="m14.402 63.242c-1.2033-0.19253-3.4656-0.09627-4.8133 0.04813-1.1552 0.1444-2.0697 0.19253-2.9361 0-0.4332-0.1444-0.62573 0.19253-0.19253 0.4332 0.77012 0.38506 1.9734 0.38506 3.1768 0.24066 1.1071-0.09627 4.4282-0.1444 5.6797 0.38506z"/>
   <path d="m11.514 58.285c-1.3477 0.19253-3.8506 0.86639-5.1983 0.52946-0.38506-0.09627-0.52946 0.24066-0.19253 0.4332 1.2515 0.62573 3.995 0 5.439-0.19253 1.7809-0.19253 2.8398 1.5884 3.1286 2.0216l0.24066-1.0108c-0.4332-0.72199-1.4921-1.9734-3.4174-1.7809z"/>
   <path d="m26.58 77.249c1.2033 2.551 3.7544 4.2838 6.0166 4.6207 0.48133 0.09627 0.57759-0.24066 0.1444-0.38506-2.0697-0.72199-4.5726-2.6954-5.8241-4.4764-0.2888-0.4332-0.57759-0.24066-0.33693 0.24066z"/>
   <path d="m49.924 64.975c0.52946-0.72199 1.3477-1.3959 1.9734-1.9734 0.48133-0.38506 0.2888-0.62573-0.24066-0.2888-0.67386 0.38506-1.1552 0.81826-1.5884 1.2996z"/>
   <path d="m48.817 71.329c0.52946 2.888 2.888 5.9203 6.2573 7.2199 0.77012 0.24066 0.91452-0.09627 0.1444-0.4332-3.0805-1.3477-5.7759-5.1983-6.0166-8.0863z"/>
   <path d="m56.326 86.49c-0.24066-1.1552-0.72199-2.4548-1.3477-3.3212-0.52946-0.77012-1.6846-1.5884-3.6581-2.7917-1.6365-0.96266-3.1286-2.0216-4.6689-4.2838l-0.4332 0.81826c1.444 2.2622 3.1286 3.1768 4.7651 4.1394 1.9253 1.1552 2.888 1.6846 3.4174 2.4548 0.57759 0.77012 0.96266 2.0216 1.2515 3.1768z"/>
   <path d="m58.973 88.319c0.38506 0.04813 0.67386 0.52946 0.67386 1.0108 0 0.62573-0.38506 0.96266-0.67386 0.96266-0.48133-0.04813-0.77012-0.57759-0.77012-1.0589 0.048133-0.48133 0.4332-0.91452 0.77012-0.91452zm-1.1552 0.91452c-0.04813 0.77012 0.4332 1.4921 1.1552 1.5402 0.52946 0 1.2515-0.4332 1.2515-1.444 0-0.91452-0.57759-1.444-1.2033-1.4921-0.57759-0.04813-1.2033 0.57759-1.2033 1.3959z"/>
   <path d="m62.005 89.956c0-0.33693 0.38506-0.81826 0.81826-0.81826 0.38506 0 0.81826 0.4332 0.77012 0.96266 0 0.4332-0.19253 0.86639-0.81826 0.86639-0.57759 0-0.77012-0.67386-0.77012-1.0108zm-0.48133 0c0 0.72199 0.38506 1.5884 1.2515 1.5884 0.77012 0 1.3959-0.62573 1.444-1.3959 0-0.91452-0.57759-1.5402-1.3477-1.5402-0.67386 0-1.2996 0.62573-1.3477 1.3477z"/>
   <path d="m67.396 92.844c-0.62573 0.09627-1.2996-0.48133-1.3959-0.67386-0.04813-0.57759 0.09627-3.273 0.24066-3.6581 0.09627-0.09627 0.81826-0.33693 1.4921-0.38506l0.33693-0.62573c-0.52946-0.04813-2.0216 0.19253-2.2622 0.57759-0.19253 0.33693-0.38506 3.8506-0.33693 4.332 0.04813 0.4332 1.3477 1.1552 2.1178 1.0108z"/>
   <path d="m67.156 90.919c-0.09627-2.6954 2.2141-5.1502 5.3427-5.1502 2.2141 0 4.6207 1.9734 4.717 5.1021 0.09627 2.888-2.0216 5.0539-4.8614 5.0539-2.9361 0-5.1021-2.0697-5.1983-5.0058zm-0.57759-0.04813c0.1444 3.3693 2.4066 5.6315 5.7278 5.6315 3.273-0.04813 5.6315-2.3585 5.5353-5.6315-0.09627-3.5137-2.888-5.6315-5.3427-5.6315-3.1286 0-6.0166 2.2622-5.9203 5.6315z"/>
   <path d="m72.498 87.405c1.9253 0.04813 3.5137 1.7328 3.4656 3.8988 0 1.7328-1.5884 3.3693-3.5618 3.3693-2.4066 0-3.8506-1.6365-3.8988-3.61 0-2.2141 1.9253-3.7544 3.995-3.6581zm0-0.52946c-2.4066-0.04813-4.5245 1.6365-4.5245 4.1876 0.04813 2.5029 1.829 4.1876 4.4282 4.1876 2.1178 0 4.0432-1.829 4.0913-3.9469 0.04813-2.4548-1.6846-4.332-3.995-4.4282z"/>
   <path d="m72.45 89.715c0.96266 0.04813 1.7328 0.81826 1.7328 1.7809 0 0.67386-0.67386 1.6846-1.9253 1.7328-1.1071 0-1.9253-0.86639-1.9253-1.7328 0-1.2033 0.96266-1.829 2.1178-1.7809zm0-0.52946c-1.4921-0.04813-2.5992 0.91452-2.5992 2.2622-0.04813 1.444 1.2033 2.3104 2.3585 2.3104 1.5402-0.04813 2.5029-1.2033 2.5029-2.3104 0-1.3477-1.0108-2.2141-2.2622-2.2622z"/>
   <path d="m77.023 93.325c1.2515 0.1444 2.0697-0.4332 2.166-0.86639 0.09627-0.62573-0.19253-3.8988-0.2888-4.332-0.09626-0.4332-1.2515-0.62573-2.6473-0.67386l0.38506 0.62573c0.52946-0.04813 1.6365 0.1444 1.7809 0.33693 0.09627 0.48133 0.24066 3.2249 0.19253 3.7544-0.04813 0.19253-0.52946 0.67386-1.444 0.57759z"/>
   <path d="m78.804 92.555c2.4066-0.04813 8.8083-1.1071 10.878-3.0324 0.04813 0 0.09627-0.04813 0.09627-0.09627 0.09627-0.91452-0.19253-2.7436-0.96266-3.4174-0.09627-0.04813-0.24066-0.04813-0.33693 0.04813-0.57759 0.96266-7.2681 2.2141-9.9635 1.9253l0.24066 0.57759c2.4548 0.19253 8.5676-0.81826 9.8672-1.9253 0.62573 0.67386 0.72199 2.0216 0.67386 2.5992-1.7809 1.5402-7.7494 2.6954-10.3 2.7436z"/>
   <path d="m85.783 90.197c-0.48133 0-0.67386-0.57759-0.67386-0.96266 0-0.48133 0.33693-0.96266 0.62573-0.96266 0.57759 0 0.81826 0.48133 0.81826 0.91452 0 0.67386-0.33693 1.0589-0.77012 1.0108zm-1.2515-0.96266c0 0.86639 0.52946 1.444 1.2033 1.4921 0.67386 0 1.2515-0.52946 1.2515-1.5402 0-0.77012-0.52946-1.444-1.2515-1.444-0.67386 0-1.2033 0.62573-1.2033 1.4921z"/>
   <path d="m81.98 88.656m-0.86639 1.2996c0-0.4332 0.4332-0.96266 0.86639-0.96266 0.48133 0 0.81826 0.4332 0.81826 1.0108 0 0.48133-0.2888 1.0108-0.91452 1.0108-0.77012 0-0.77012-0.86639-0.77012-1.0589zm0.86639-1.4921c-0.77012 0-1.4921 0.57759-1.4921 1.4921 0 0.81826 0.52946 1.5884 1.3959 1.5884 0.91452 0 1.3959-0.81826 1.3959-1.5402 0-0.67386-0.48133-1.5884-1.2996-1.5402z"/>
   <path d="m72.258 69.163c0 2.4066-0.38506 5.8241-0.62573 6.4498-0.19253 0.52946-1.3959 1.444-3.3693 2.3104-0.57759 0.24066-0.48133 0.57759 0.09627 0.38506 1.829-0.48133 3.8025-1.5402 4.0913-2.3585 0.24066-0.72199 0.4332-4.4764 0.24066-6.8349-0.09627-0.72199-0.4332-0.67386-0.4332 0.048133z"/>
   <path d="m68.551 83.169c-1.6365 0.48133-3.8025 0.91452-4.1876 0.96266-0.48133 0.04813-1.7809-0.04813-3.0805-0.2888-0.77012-0.1444-0.81826 0.1444-0.09627 0.38506 0.77012 0.2888 2.5029 0.77012 3.273 0.72199 0.81826-0.09627 2.7436-0.72199 4.1876-1.3477 0.62573-0.2888 0.52946-0.57759-0.09627-0.4332z"/>
   <path d="m73.124 76.575c0.81826 0.67386 1.829 1.2515 3.1768 1.6365 0.81826 0.19253 0.96266-0.19253 0.19253-0.48133-1.0108-0.38506-2.166-1.1552-3.0324-1.7809-0.57759-0.4332-0.86639 0.1444-0.33693 0.62573z"/>
   <path d="m76.06 83.506c1.5402 0.67386 3.8988 1.3477 4.4282 1.3477 0.48133 0 2.1178-0.33693 3.1286-0.72199 0.67386-0.24066 0.62573-0.52946-0.1444-0.38506-1.1071 0.19253-2.5029 0.2888-2.9361 0.2888-0.38506 0-2.4548-0.38506-4.3801-0.96266-0.57759-0.1444-0.67386 0.19253-0.096266 0.4332z"/>
   <path d="m90.644 40.572c-0.86639 0.19253-3.7062-0.57759-4.717-0.57759l0.24066 0.72199c0.86639 0 2.5992 0.38506 3.4174 0.4332z"/>
   <path d="m97.72 39.272c-1.0108-0.33693-3.5618-0.62573-4.6207-0.38506-0.67386 0.1444-3.2249 1.5884-4.3801 2.551-0.4332 0.38506-0.2888 0.62573 0.19253 0.38506 1.2996-0.72199 3.7544-1.9734 4.332-2.0697 1.0108-0.24066 3.3212-0.19253 4.2838 0.09627z"/>
   <path d="m103.3 34.555c-3.3693 0.52946-6.2091 3.3212-6.2573 6.5942 0 0.52946 0.33693 0.52946 0.4332 0 0.2888-2.6954 3.0324-5.4871 6.4498-5.9203z"/>
   <path d="m108.36 40.957c-0.38506 1.3477-1.444 3.3212-3.0805 4.1394-0.52946 0.2888-0.43319 0.57759 0.19253 0.38506 1.9253-0.57759 3.1286-2.7436 3.3212-4.4764 0.0481-0.57759-0.24067-0.67386-0.4332-0.04813z"/>
   <path d="m113.41 32.245c-1.2033-0.72199-4.0432-1.8772-5.3909-2.7436-0.52946-0.33693-0.722-0.04813-0.24067 0.33693 1.2033 0.91452 4.0432 2.3104 5.1983 3.0324 0.38507 0.19253 1.0589 0.96266 1.7328 2.2141 0.38506 0.67386 0.67385 0.52946 0.38506-0.1444-0.48133-1.2033-1.1552-2.4066-1.6846-2.6954z"/>
   <path d="m95.987 21.367c1.444 0.91452 2.7917 2.5992 4.0432 4.8614 1.107 2.0697 1.0108 5.8722 1.6365 6.8349 1.5884 2.3585 4.4282 5.5834 8.0863 6.4979 0.81826 0.19253 0.96266-0.09626 0.0963-0.38506-3.7544-1.3959-6.2091-4.717-7.4606-6.5461-0.52949-0.77012-0.67389-4.717-1.7809-6.6423-1.2033-2.166-2.4548-3.7062-3.6581-4.6207z"/>
   <path d="m90.596 20.933c1.5402 1.2515 3.273 1.2033 4.4764 0.91452 0.62573-0.1444 1.7809-0.38506 2.7436-0.24066l-0.81826-0.48133c-0.86639-0.09626-1.3959 0.09627-2.0216 0.19253-0.86639 0.09627-1.9253 0.24066-3.273-0.48133z"/>
   <path d="m95.41 20.645c1.829 1.1552 5.0058 2.6954 5.7759 2.6473 0.77012 0 3.273-0.2888 4.9095-0.96266 0.72199-0.2888 0.5776-0.57759-0.1444-0.38506-1.4921 0.38506-3.8025 0.57759-4.6689 0.57759-0.48133 0-2.6954-0.86639-5.7278-2.2141-0.57759-0.2888-0.72199 0-0.1444 0.33693z"/>
   <path d="m100.66 22.859c0.91452 0.72199 2.6954 2.2622 3.1286 3.1286 0.24067 0.57759 0.52946 0.48133 0.38506-0.09627-0.28879-0.91452-1.5402-2.3585-2.5029-3.0324z"/>
   <path d="m86.168 12.847c-0.62573 0.86639-1.2033 1.6365-1.2515 2.0216-0.09626 0.48133 0.19253 3.5137 0.62573 4.2838 0.4332 0.77012 2.0216 2.0216 2.8398 2.1178 0.57759 0.09627 5.2946 0 5.9203-0.67386 0.38506-0.38506 0.62573-1.1071 0.38506-2.3585l-0.57759-0.33693c0.2888 1.6846-0.19253 2.0697-0.33693 2.2141-0.38506 0.4332-4.332 0.52946-5.2465 0.38506-0.67386-0.04813-1.9253-1.0589-2.2622-1.7328-0.38506-0.67386-0.67386-3.3212-0.62573-3.7062 0.04813-0.33693 0.33693-0.91452 0.91452-1.6365z"/>
   <path d="m105.61 15.446c-0.81826 0.96266-1.2033 2.3104-1.107 3.4174 0.0481 0.52946 0.33693 0.52946 0.38506 0 0.1444-0.81826 0.67386-2.166 1.2514-3.0805 0.2888-0.48133-0.19253-0.77012-0.52946-0.33693z"/>
   <path d="m105.08 17.516c0.24066 0.24066 0.48133 0.67386 0.4332 0.86639 0 0.2888-0.722 1.829-0.96266 2.0697-0.24066 0.2888-1.3958 0.67386-2.0216 0.67386-0.72199 0-2.888-0.38506-3.3212-1.444-0.33693-0.86639 0.04813-4.4282 0.62573-7.8456 0.1444-0.77012-0.2888-0.86639-0.48133-0.1444-0.48133 1.7328-1.444 7.1237-0.91452 8.4232 0.52946 1.2996 3.4174 1.9253 4.1876 1.9253 0.72199 0 2.166-0.77012 2.5029-1.1071 0.38507-0.38506 1.0589-2.2141 1.1071-2.551 0.0481-0.4332-0.62573-1.3959-0.81826-1.5884z"/>
   <path d="m98.683 18.864c-0.33693 0.2888-1.0108 0.4332-1.444 0.24066-0.57759-0.19253-2.4066-1.1071-2.7436-1.5884-0.4332-0.57759-0.67386-1.2515-0.67386-1.7328 0-0.24066 1.0108-5.9203 0.96266-7.2681-0.04813-0.77012-0.48133-0.81826-0.52946-0.096266-0.04813 1.3477-1.3477 7.1718-1.3477 7.4125 0 0.67386 0.38506 1.6846 0.81826 2.2141 0.48133 0.62573 2.7917 1.5884 3.3212 1.7809 0.48133 0.19253 1.0589 0.04813 1.5402-0.1444z"/>
   <path d="m92.425 17.323c0.52946 0.2888 1.2033 0.24066 1.5402 0.19253l-0.38506-0.67386c-0.2888 0-0.52946 0.04813-0.86639-0.1444-0.72199-0.48133-2.2622-1.6846-2.4066-2.3104-0.04813-0.33693-0.09627-1.444 0.04813-2.5992 0.24066-2.5029 0.4332-4.2838 0.04813-4.8614-0.33693-0.4332-0.67386-0.24066-0.4332 0.24066 0.19253 0.48133-0.1444 2.888-0.33693 4.5245-0.1444 1.5402-0.2888 2.5029-0.24066 2.888 0.1444 0.72199 1.829 1.9734 3.0324 2.7436z"/>
   <path d="m107.73 11.692c-0.24066-1.1071-0.81826-2.6954-1.829-3.61-0.67386-0.57759-3.0324-1.2033-3.8988-1.4921-0.4332-0.19253-0.91453-1.3959-1.3477-1.6365-0.52946-0.2888-1.4921-0.096266-1.9734-0.2888-0.52946-0.19253-2.0216-1.9253-3.0805-2.0697-0.67386-0.096266-2.2622 0.48133-2.7436 0.48133-0.4332 0-1.3959-0.57759-1.9734-0.52946-0.38506 0-1.7328 0.38506-2.2141 0.62573-0.4332 0.24066-0.96266 0.81826-1.3477 1.3959-2.166 3.2249-3.2249 5.0058-3.2249 5.3909 0.09627 1.444 3.0805 5.1983 3.995 5.7278 0.4332 0.24066 1.7328 0.09627 2.5029-0.09627l-0.48133-0.62572c-0.57759 0.09627-1.4921 0.09627-1.6846-0.04813-0.52946-0.2888-3.273-3.7062-3.3693-4.9577 0-0.19253 0.2888-1.2033 2.888-5.0539 0.33693-0.52946 0.62573-0.81826 1.0589-1.0589 0.4332-0.19253 1.5884-0.48133 1.8772-0.48133 0.38506-0.048133 1.3477 0.2888 1.9253 0.2888 0.86639 0 2.1178-0.33693 2.6473-0.2888 0.81826 0.096266 2.2141 1.4921 2.9361 1.829 0.52946 0.19253 1.2996 0.096266 1.8772 0.4332 0.43319 0.2888 0.72199 1.1552 1.5402 1.4921 0.81825 0.33693 2.7436 1.0108 3.5137 1.7328 0.81826 0.77012 1.5402 2.0216 1.7328 3.0324 0.48133 2.0697 1.4921 6.4498 2.1178 7.7494 0.33693 0.67386 0.67386 0.52946 0.38507-0.19253-0.4332-1.2033-1.3958-5.8241-1.829-7.7494z"/>
   <path d="m107.83 53.086c1.0589-0.24066 3.1286-1.4921 4.5726-2.2622 1.107-0.62573 2.6954-1.9253 3.8025-3.4656 1.107-1.5402 3.8025-3.8988 5.1983-4.4282 1.107-0.38506 1.829-2.4548 1.9734-3.273 0.24067-1.2033-0.19253-5.439-0.33693-6.6905-0.14439-1.5402-4.717-7.7975-5.9203-9.0008-1.0108-0.96266-6.883-4.332-8.327-6.4017l0.38506 1.3959c1.7809 1.9253 6.5942 4.5245 7.4606 5.3909 1.2996 1.2033 5.3909 7.3643 5.4871 8.712 0.19253 1.444 0.48133 5.2465 0.2888 6.3535-0.24067 1.1552-0.72199 2.5992-1.3477 2.8398-1.2514 0.52946-4.1876 3.1286-5.2946 4.6207-1.0589 1.4921-2.551 2.6473-3.6581 3.2249-1.6846 0.91452-3.6581 1.8772-4.717 2.0697z"/>
   <path d="m108.93 59.103c0.1444-1.4921 0-4.332-0.67386-6.161-0.62573-1.5884-3.8506-3.3693-5.0058-3.8506-1.2996-0.52946-3.995-0.57759-4.8133-0.38506-0.38506 0.09627-0.4332 0.38506 0 0.38506 1.6846 0.09627 3.61 0.38506 4.6208 0.77012 1.0108 0.4332 3.9469 1.9734 4.4764 3.4656 0.52946 1.5402 0.77012 4.1394 0.72199 5.3427z"/>
   <path d="m97.142 57.659c0.77012 0.91452 2.2622 1.6365 3.6581 1.6846 0.67386 0 0.77013-0.24066 0.0963-0.4332-1.2996-0.2888-2.5992-0.86639-3.4656-1.5402-0.48136-0.4332-0.67389-0.19253-0.28883 0.2888z"/>
   <path d="m114.37 71.858c-0.19253-1.1552 0.1444-4.8614 0-5.9203-0.24066-1.5884-1.9253-4.1394-2.5992-4.9095-0.4332-0.57759-2.9361-2.551-4.0913-3.1286-0.52946-0.2888-0.72199-0.04813-0.2888 0.33693 1.1552 0.91452 3.3212 2.7436 3.7544 3.3212 0.72199 0.91452 2.2622 3.3693 2.4066 4.4282 0.19253 1.1071-0.0963 5.0058 0.1444 6.2573z"/>
   <path d="m101.76 63.772c0.0481 3.4174 2.4548 7.2199 4.9577 8.3751 0.67386 0.33693 0.81826 0.04813 0.24066-0.33693-2.1178-1.444-4.3801-5.1502-4.7651-8.0863-0.0963-0.62573-0.4332-0.57759-0.4332 0.04813z"/>
   <path d="m94.591 64.109c-0.38506-0.38506-0.86639-0.86639-1.2033-1.2996-0.4332-0.52946-0.67386-0.2888-0.33693 0.2888 0.38506 0.62573 1.2515 1.5402 1.6846 1.9253z"/>
   <path d="m100.37 80.137c0.57759 0.52946 1.8772 1.6365 2.6473 2.6954 1.1552 1.6365 2.7917 5.1502 3.273 5.7759 0.722 0.96266 3.273 2.5992 4.2838 2.6954 2.3104 0.1444 8.6158-1.0589 10.589-2.6954 1.5884-1.2996 6.1129-10.012 10.204-11.022l-2.0697 0.48133c-3.273 1.7328-7.1718 8.5676-8.6639 9.8672-1.7328 1.4921-7.6531 2.5029-9.9635 2.3585-0.86639-0.04813-3.0805-1.3477-3.7062-2.1178-0.48132-0.67386-1.9734-3.8506-3.4174-5.7759-0.81825-1.0589-2.1178-2.4066-2.6954-2.9361-0.52946-0.52946-1.2033-1.8772-1.6846-2.5029-2.551-3.1768-3.5137-7.0274-4.3801-13.14-0.09627-0.77012-0.4332-0.72199-0.38506 0.04813 0.4332 6.161 1.3959 10.349 4.0432 13.573 0.4332 0.57759 1.444 2.2141 1.9253 2.6954z"/>
   <path d="m117.74 76.912c-1.2514 1.8772-3.4174 3.4174-5.6315 4.4282-0.52946 0.24066-0.43319 0.48133 0.1444 0.38506 2.4066-0.4332 5.1021-2.4548 5.8722-4.6207 0.24067-0.62573 0-0.77012-0.38506-0.19253z"/>
   <path d="m133.39 77.249c1.3477-0.57759 4.0913-0.81826 4.8133-1.4921 2.0697-1.9734 3.4656-4.7651 3.61-5.5353 0.0963-0.38506-0.0481-1.7328 0.0963-1.9253 0.0481-0.19253 0.57759-1.1552 0.48132-1.8772 0-0.33693-0.48132-1.4921-0.57759-1.829-0.0963-0.48133-0.38506-0.48133-0.4332 0 0 0.48133 0.24067 1.4921 0.2888 1.8772 0.0481 0.48133-0.1444 1.1552-0.38506 1.6365-0.0963 0.2888-0.0963 1.4921-0.19253 1.9253-0.24067 0.91452-1.444 2.9842-3.5137 5.0058-0.43319 0.4332-3.0324 1.0108-4.332 1.5402-1.2514 0.48133-2.888 1.1552-5.0058 1.4921-0.57759 0.04813-0.52946 0.48133 0.0481 0.38506 2.0216-0.24066 3.8988-0.67386 5.1021-1.2033z"/>
   <path d="m142.05 60.595c0.19253-1.2033 0.24066-2.7436 0-2.9842-0.1444-0.1444-0.62573-0.4332-1.2033-0.72199-2.6473-1.2996-6.161-3.7062-6.5942-3.8025-0.62573-0.1444-3.0324 0.77012-3.3693 1.0108-0.48133 0.2888-2.0216 2.5992-2.6473 2.8398l0.72199 0.52946c0.67386-0.48133 1.9253-2.4548 2.3585-2.7436 0.28879-0.19253 2.3585-0.77012 2.7917-0.67386 0.43319 0.09627 5.1502 2.8398 6.4498 3.4656 0.4332 0.19253 0.86639 0.52946 1.0108 0.62573 0.1444 0.1444 0.0963 1.0589 0.0963 1.6846z"/>
   <path d="m126.07 68.344c-0.0963 1.2996-0.72199 4.2838-0.48133 5.1983 0.1444 0.57759 0.96266 2.166 1.5402 2.5992 0.4332 0.38506 0.67386 0.24066 0.33693-0.24066-0.38506-0.48133-1.0108-1.8772-1.107-2.551-0.1444-0.62573 0.1444-3.7544 0.1444-5.0058-0.0481-0.72199-0.38507-0.72199-0.4332 0z"/>
   <path d="m125.83 69.499c-0.52946 0.81826-1.2996 1.829-2.166 2.551-0.48132 0.4332-0.28879 0.72199 0.24067 0.33693 0.86639-0.57759 1.6846-1.3959 2.2141-2.2141z"/>
   <path d="m133.05 74.216c-0.0481 0.4332-0.4332 0.86639-0.67386 0.91452-0.2888 0.04813-1.444 0-1.9253-0.24066-0.4332-0.19253-1.1071-0.91452-1.2033-1.444-0.19253-0.72199-0.48133-2.6473-0.38506-2.9361 0.0481-0.2888 1.2514-1.1552 1.7809-1.2033 0.86639-0.04813 6.1129 0.48133 7.1718-0.19253 0.48133-0.33693 0.28879-0.62573-0.24067-0.4332-1.107 0.38506-6.1129-0.19253-7.1236-0.1444-0.72199 0.04813-2.2622 1.2515-2.4066 1.7328s0.24066 3.0324 0.33693 3.4174c0.1444 0.67386 1.107 1.5884 1.7809 1.8772 0.52946 0.19253 2.0216 0.2888 2.4066 0.19253 0.48133-0.09627 1.0589-0.91452 1.2033-1.5402z"/>
   <path d="m127.75 64.349c-0.0963 0.24066-0.19253 0.4332-0.24066 0.67386-0.0963 0.91452 0.48132 3.8506 1.4921 4.717l0.52946-0.48133c-0.62572-0.4332-1.2033-3.2249-1.107-4.0432 0.0481-0.33693 0.33693-0.62573 0.72199-0.86639z"/>
   <path d="m129.78 64.109c0.48133-0.09627 1.0108-0.19253 1.5402-0.1444 3.1286 0.09627 5.8241 0.19253 7.0274-0.48133 0.52946-0.2888 0.2888-0.57759-0.2888-0.38506-1.444 0.48133-5.2465 0-6.8349-0.04813-0.28879 0-0.62572 0.04813-0.91452 0.09627z"/>
   <path d="m133.24 59.007c2.3585 0.33693 4.6208 0.52946 5.3909 0.1444 0.48133-0.24066 0.19253-0.57759-0.24066-0.4332-0.77013 0.2888-3.6581-0.24066-5.1021-0.48133-1.3958-0.19253-2.4548 0.24066-3.4174 1.7809l0.24067 1.0108c0.72199-1.3477 1.8772-2.166 3.1286-2.0216z"/>
   <path d="m124.77 67.43c-1.2996 0.96266-4.4282 2.9361-4.8614 3.0324-1.1552 0.2888-3.5618 0.33693-4.9096 0.72199-1.2514 0.33693-4.3801 2.166-5.1502 2.9361-1.0589 1.1071-2.2141 2.9361-2.6473 4.1394-0.33693 0.72199-0.0481 0.86639 0.33693 0.19253 0.72199-1.2515 1.7809-2.8398 2.7917-3.8506 0.72199-0.72199 3.6581-2.3104 4.8614-2.6473 1.4921-0.38506 3.5618-0.52946 4.9577-0.81826 0.52946-0.09627 3.7062-2.2141 4.9096-3.1286z"/>
   <path d="m95.554 70.077c-0.2888 3.1768-2.6473 6.161-6.0166 7.99-0.62573 0.33693-0.48133 0.62573 0.1444 0.38506 3.4174-1.3477 5.7278-4.0913 6.2573-7.0274z"/>
   <path d="m97.961 75.949c-0.96266 1.3959-1.6365 2.5029-2.7436 3.2249-1.4921 0.96266-4.5726 2.9361-5.1502 3.5618-0.67386 0.72199-1.2996 2.2622-1.7328 3.7544l0.67386 0.04813c0.19253-1.2033 1.0589-2.6954 1.6846-3.3693 0.52946-0.52946 3.5618-2.4066 4.9577-3.3212 1.1552-0.72199 2.0697-1.7328 2.7436-3.1768z"/>
   <path d="m36.158 107.62c0.77012-3.61 2.6954-5.5834 4.6689-7.5568 2.6954-2.6473 8.327-7.0755 12.466-7.7494 3.8988-0.62573 9.5303 3.7544 11.263 6.2573 1.6846 2.5029 1.7809 5.5834 0.67386 6.5942-1.5884 1.4921-4.9095 3.4656-7.1718 4.8133-1.9253 1.2033-4.2357 2.0697-6.5942 2.3585-2.551 0.2888-4.332 0.81826-5.9685 1.829-0.52946 0.38506-0.38506 0.67386 0.24066 0.38506 1.6365-0.86639 3.273-1.2514 5.7759-1.5402 2.4066-0.28879 4.9577-1.0108 6.9311-2.2141 2.2622-1.3958 5.5834-3.6581 7.2681-5.1502 1.5884-1.3477 1.2033-5.0058-0.48133-7.4606-1.7809-2.6954-7.8456-7.2199-11.985-6.5461-4.2838 0.67386-10.349 5.0058-13.044 7.6531-2.166 2.1178-4.332 5.0058-4.9095 9.434z"/>
   <path d="m36.158 107.19c-1.3959 1.5402-2.2141 2.9842-2.4066 3.995-0.2888 1.6846 3.2249 7.2199 4.1876 7.7012 0.48133 0.19253 2.8398 0.62573 3.995 0.86639 0.77012 0.19253 0.81826-0.43319 0-0.57759-1.0589-0.24067-3.1286-0.91453-3.5618-1.1071-0.77012-0.38506-4.0432-5.3427-3.8025-6.883 0.19253-0.91452 0.72199-2.0697 2.0216-3.7544 0.38506-0.48132 0-0.67386-0.4332-0.24066z"/>
   <path d="m60.946 99.149c-1.3477 1.5402-3.3693 3.0324-5.3427 3.8988-2.2622 0.96265-3.995 1.9253-5.1983 2.7917-0.57759 0.43319-0.38506 0.67386 0.24066 0.33693 1.0589-0.57759 2.9842-1.3477 5.3427-2.3585 2.0216-0.91452 4.1876-2.8398 5.2946-4.4282 0.38506-0.52946 0.1444-0.77012-0.33693-0.24066z"/>
   <path d="m48.913 115.95c0.24066 0.77012 0.91452 1.7809 1.5402 2.166 0.52946 0.33693 1.6365 1.0589 3.0324 1.4921 0.48133 0.19253 0.62573-0.1444 0.1444-0.38506-1.0589-0.48133-2.166-1.2033-2.7436-1.6846-0.48133-0.38506-1.2033-1.0589-1.5884-1.7328-0.33693-0.52946-0.57759-0.38506-0.38506 0.1444z"/>
   <path d="m54.208 112.15c1.3477 1.0589 2.6473 3.0324 2.1178 4.8614-0.2888 1.1071-0.57759 2.5029-0.33693 3.995 0.1444 0.77012 0.4332 0.72199 0.4332-0.0481-0.04813-1.2514 0.2888-2.5992 0.67386-3.7544 0.62573-1.9734-0.57759-4.0913-2.166-5.3427z"/>
   <path d="m39.864 118.98c2.888 2.0216 6.7867 5.5353 8.4714 9.2415 0.2888 0.67386 0.62573 0.52946 0.38506-0.19253-1.2515-3.5137-4.4282-6.5942-7.2199-8.712z"/>
   <path d="m40.731 133.95c1.2515-0.52946 2.8398-2.2622 4.3801-4.0432 1.1552-1.2996 2.1178-2.5992 2.888-3.0324l-0.33693-0.52946c-0.77012 0.48133-1.9253 1.6846-3.1286 3.0324-1.4921 1.6846-3.4656 3.995-4.9577 4.2838z"/>
   <path d="m56.181 119.89c0.52946 2.0216 1.9253 4.717 2.4066 5.0539 0.48133 0.38507 1.7809 1.0589 2.0216 1.4921 0.48133 1.0108 1.3959 3.1286 1.3959 3.6581 0 0.5776-1.3477 2.9361-1.9734 3.2249-1.0108 0.52946-3.3693 1.6846-3.8506 1.9734-0.67386 0.43319-3.1768 3.1286-4.4282 5.7278-0.48133 1.0108-0.67386 1.5402-2.0216 1.7328-1.0108 0.19253-2.8398 0.33693-3.7544 0.1444-1.0108-0.1444-3.6581-1.2996-3.8506-1.9253-0.2888-0.722 0.4332-3.0324 0.77012-3.4174 0.38506-0.33693 2.551-1.0589 4.332-1.444 0.62573-0.0963 0.57759-0.43319-0.09627-0.38506-1.4921 0.1444-4.332 0.72199-4.8614 1.2514-0.48133 0.48133-1.3477 3.5137-1.0108 4.3801 0.33693 0.91452 3.4656 2.1178 4.5726 2.3104 1.0108 0.19253 3.0805 0 4.0913-0.1444 1.4921-0.24066 2.0216-1.107 2.551-2.2141 1.2515-2.5992 3.5137-5.1984 4.0432-5.5353 0.38506-0.28879 2.8398-1.3477 3.8025-1.829 0.96266-0.4332 2.3585-2.9842 2.3585-3.8025 0-0.81826-1.1552-3.2249-1.5402-3.995-0.2888-0.52946-1.5884-1.3958-2.1178-1.7809-0.4332-0.33693-2.3104-3.7544-2.6473-5.7759z"/>
   <path d="m41.741 141.07c-1.3959 0.24066-5.9203-0.91452-6.4498-1.6365-0.91452-1.3477-0.24066-5.0058 0.57759-5.3909 0.77012-0.38506 3.6581-0.24066 5.3909 0.24067 0.57759 0.14439 0.67386-0.24067 0.09627-0.4332-1.444-0.57759-5.1021-1.0108-6.1129-0.52946-1.2515 0.62573-1.5884 5.2465-0.67386 6.5942 0.77012 1.0589 5.8241 2.0697 7.4125 1.7809z"/>
   <path d="m53.438 92.026c0.72199-0.57759 1.5402-1.6365 1.9253-2.5029l-0.4332-0.38506c-0.33693 0.91452-1.7809 2.551-2.7917 3.0324z"/>
   <path d="m109.61 108.92c-0.2888-2.1178-1.3958-4.8614-2.4548-6.5461-2.3585-3.6581-10.926-10.204-15.547-10.734-4.8614-0.57759-11.407 4.6207-12.755 7.5568-1.2515 2.7436-1.2515 5.1502 0.52946 6.7386 1.2515 1.1552 7.0755 5.0058 8.8564 5.7759 1.5884 0.72199 4.0913 1.2033 6.161 1.444 2.0697 0.19253 3.3212 0.48132 4.5245 1.1552 0.62573 0.38507 0.81826 0.0481 0.24066-0.33693-1.2515-0.91452-2.6954-1.2996-4.6689-1.4921-2.0216-0.19253-4.2838-0.86639-5.8722-1.5884-1.6846-0.72199-7.605-4.332-8.8083-5.439-1.3959-1.2996-1.3959-3.3212-0.24066-5.9203 1.3477-2.9842 7.8456-7.7494 11.985-7.2199 4.5245 0.52946 12.37 6.9793 14.729 10.589 0.72199 1.107 1.6846 2.7917 2.3585 4.7652z"/>
   <path d="m106.77 118.74c1.3958-0.38506 4.2838-6.3054 4.1394-7.7012-0.0963-0.91452-1.3477-2.9361-2.5029-4.0913-0.4332-0.43319-0.77013-0.19253-0.38507 0.2888 0.91453 1.2033 2.0216 3.0324 2.1178 3.8025 0.14439 1.0589-2.7917 6.4979-3.8025 6.883-0.86639 0.33693-2.8398 0.91453-3.3693 1.1071-0.67386 0.19253-0.62573 0.57759 0.0963 0.48132 0.77013-0.0481 2.8398-0.52946 3.7062-0.77012z"/>
   <path d="m83.473 99.438c1.444 1.7328 3.9469 3.7062 5.6797 4.4282 1.9253 0.72199 3.8025 1.5402 4.8614 2.2141 0.57759 0.28879 0.72199-0.0481 0.24066-0.38507-1.0108-0.67386-2.888-1.829-4.7651-2.551-1.6846-0.62573-4.1876-2.4548-5.7278-3.995-0.52946-0.52946-0.77012-0.2888-0.2888 0.2888z"/>
   <path d="m95.458 115.66c-1.0108 1.7809-2.6954 2.6473-4.4282 3.5137-0.62573 0.33693-0.52946 0.5776 0.1444 0.38507 2.0216-0.52946 3.8988-1.6365 4.6689-3.7062 0.24066-0.67386-0.04813-0.77012-0.38506-0.19253z"/>
   <path d="m103.83 119.08c-1.8772 1.2996-6.5942 4.8614-7.8456 9.0008-0.1444 0.62573 0.1444 0.722 0.4332 0.1444 1.6365-3.6581 6.0647-7.5087 9.0971-9.4822z"/>
   <path d="m89.778 111.81c-1.7328 1.2996-2.9361 3.5618-2.166 5.8241 0.62573 1.829 0.77012 2.4548 0.4332 3.8988-0.1444 0.62572 0.1444 0.67385 0.4332 0.0963 0.62573-1.3477 0.52946-2.2622-0.09627-4.1876-0.62573-1.9253 0.38506-4.0913 2.1178-5.3909z"/>
   <path d="m88.43 118.64c-0.62573 2.3104-1.9734 5.1021-2.4066 5.439-0.62573 0.48132-1.9734 1.3958-2.2141 1.9253-0.2888 0.67386-0.86639 2.2141-1.2033 2.6473-0.77012 0.96266-0.33693 2.551 0.04813 3.273 0.24066 0.5776 1.0108 1.7809 2.0216 2.3104 0.81826 0.43319 4.0913 1.6365 4.8133 2.1178l-1.0108-1.107c-0.48133-0.2888-2.551-1.2033-3.4174-1.6365-0.62573-0.2888-1.4921-1.4921-1.7328-2.0216-0.38506-0.86639-0.67386-1.9734-0.19253-2.5992 0.38506-0.48133 0.91452-1.9734 1.2033-2.6954 0.19253-0.4332 1.5884-1.2515 2.1178-1.6365 0.57759-0.4332 1.4921-2.9361 2.0697-4.6689z"/>
   <path d="m95.41 143.58c1.2033 0.0481 3.4174 0.19253 4.1876-0.0481 1.1552-0.33693 3.7062-1.3477 3.8506-2.2141 0.0963-0.62573-0.4332-3.8988-0.91453-4.3801-0.52946-0.52946-3.61-1.2514-4.8614-1.3477-0.62573 0-0.67386 0.28879-0.09627 0.43319 1.4921 0.2888 3.9469 1.2033 4.332 1.5884 0.38506 0.33693 0.72199 2.8398 0.62572 3.4174-0.0481 0.33693-1.8772 1.3477-3.0805 1.6846-0.72199 0.24066-2.8398 0.19253-3.9469 0.1444-1.2033-0.0481-1.9253-0.52946-2.2622-1.444-0.91452-2.4066-3.5618-5.5353-5.1983-7.0274-0.52946-0.4332-0.81826-0.1444-0.33693 0.33692 1.2033 1.2996 3.8506 4.332 4.8133 6.9311 0.38506 1.107 1.2515 1.8772 2.888 1.9253z"/>
   <path d="m102.97 141.55c0.57759 0.24066 1.4921 0.2888 2.3585 0.0963 2.6954-0.5776 4.3801-1.2515 4.8133-1.7328 1.107-1.2996 0.33693-5.8241-0.67386-6.6904-0.5776-0.48133-4.0432-0.38507-6.0647 0.57759-0.48133 0.24066-0.38507 0.52946 0.14439 0.38506 2.2141-0.62572 4.9577-0.52946 5.3427-0.24066 0.77013 0.62572 1.2996 4.4764 0.5776 5.3427-0.1444 0.19253-0.72199 0.86639-4.2357 1.6846-0.96265 0.19253-1.7328 0.14439-2.1178 0z"/>
   <path d="m104.8 133.61c-1.1552-0.4332-3.0805-2.6473-4.5726-4.2838-1.107-1.2996-2.166-2.551-3.0324-3.1286l-0.2888 0.52946c0.77012 0.62573 1.7328 1.8772 2.7917 3.1286 1.4921 1.6846 2.9842 3.3212 4.2357 3.9469z"/>
   <path d="m92.907 92.17c-1.0589-0.52946-2.7917-2.1178-3.3693-2.9361l-0.38506 0.38506c0.48133 0.77012 1.5402 1.829 2.3585 2.3585z"/>
   <path d="m78.948 104.73c-2.7917-1.2033-9.3378-1.444-12.948-0.0963l-0.38506 0.722c3.6581-1.2515 10.782-1.1071 13.766 0.24066z"/>
   <path d="m18.589 70.27c0.57759 0.81826 1.5884 1.7328 2.4066 2.3104 0.48133 0.38506 0.72199 0.1444 0.24066-0.2888-1.0589-0.96266-1.9253-2.0697-2.3585-2.7436z"/>
   <path d="m19.889 60.402c-0.38506 1.2033-1.1552 3.3212-2.0216 3.61-1.1071 0.4332-3.1286-0.38506-3.2249-0.86639-0.09627-0.52946 0.57759-3.1768 0.86639-4.2357 0.19253-0.72199 0.86639-1.444 1.3959-1.5884 0.48133-0.1444 2.0697 0.24066 2.4548 0.38506 0.2888 0.1444 1.1552 1.0589 1.3477 1.6365 0.24066 0.72199 0.4332 1.8772 0.2888 2.166-0.67386 1.2515-1.3477 5.1021-1.3959 5.6315-0.04813 0.2888-0.72199 1.8772-1.0108 2.5029l0.33693 0.52946c0.33693-0.62573 1.2996-2.5029 1.3477-2.888 0.04813-0.52946 0.77012-4.2838 1.3959-5.4871 0.33693-0.62573 0-2.0216-0.24066-2.6954-0.24066-0.62573-1.3477-1.9734-1.7809-2.1178-0.33693-0.1444-2.2622-0.57759-2.9361-0.38506s-1.6365 1.1552-1.8772 2.1178c-0.38506 1.6365-0.96266 4.1394-0.86639 4.717 0.1444 0.86639 2.9842 1.7328 4.1876 1.2996 1.0589-0.38506 1.7809-2.6473 2.1178-4.2357 0.1444-0.57759-0.19253-0.72199-0.38506-0.096266z"/>
   <path d="m10.551 74.024c0.57759-0.04813 1.6846-0.04813 2.2622 0.09627 0.48133 0.04813 0.52946 0.38506 0 0.38506-0.67386 0-1.6365 0.04813-2.2141 0.09627-0.4332 0-0.52946-0.57759-0.04813-0.57759z"/>
   <path d="m50.309 63.772c-0.09627 1.5884-0.2888 3.3693-0.67386 5.7759-0.91452 5.1021-4.9095 10.397-6.5461 11.889-1.5884 1.4921-3.4174 4.5726-4.0913 6.161-0.72199 1.7809-3.3693 3.4174-4.8133 3.7544-1.3959 0.2888-6.161-0.72199-8.327-1.444-1.5884-0.57759-3.2249-1.7328-3.995-3.2249-1.829-3.3212-4.9095-6.9311-7.7975-8.8083l1.3959 0.2888c2.1178 1.3477 5.439 5.0058 7.1718 8.1826 0.62573 1.1552 2.0216 2.2622 3.5137 2.7436 2.1178 0.72199 6.5942 1.5402 7.8938 1.2996 1.3477-0.2888 3.5618-1.5402 4.2357-3.1768 0.77012-1.8772 2.5992-4.8614 4.2357-6.3535 1.3959-1.2515 5.5353-6.4498 6.4017-11.456 0.4332-2.4066 0.77012-4.0913 1.0108-5.6797 0.09627-0.81826 0.4332-0.77012 0.38506 0.04813z"/>
   <path d="m65.712 91.929c-2.6954 0.04813-8.4232-1.2996-10.3-2.8398-0.04813-0.38506-0.04813-1.5884 0.67386-2.3104 2.166 1.2515 7.8938 2.1178 9.8191 2.0216l0.2888-0.72199c-2.166 0.19253-8.1826-0.72199-10.108-1.9253-0.09627-0.04813-0.19253 0-0.24066 0.04813-0.86639 0.77012-1.1552 2.2141-1.0589 3.1286 0.04813 0.04813 0.04813 0.09627 0.09627 0.1444 1.9253 1.6365 8.0382 3.0324 11.022 3.0805z"/>
   <path d="m125.35 67.863c-0.2888-0.4332-0.38506-0.96266-0.4332-1.8772-0.0963-0.96266-0.67385-3.3693-1.107-4.5726-0.43319-1.1552 0.77013-3.2249 1.3958-3.6581 0.62573-0.38506 2.166-0.67386 2.6473-0.62573 0.38506 0.04813 1.0108 0.62573 1.2514 1.3477 0.33693 0.91452 1.0108 4.2838 0.86639 4.6689-0.33693 0.67386-2.551 1.1071-3.0805 0.86639-0.57759-0.33693-1.5402-2.4548-2.0697-3.8025-0.19253-0.52946-0.52946-0.48133-0.38506 0.09627 0.33693 1.5884 1.3958 3.995 2.0216 4.3801 0.67386 0.4332 3.7544-0.24066 4.1876-1.1071 0.28879-0.52946-0.67386-4.717-0.86639-5.2946-0.38506-1.1071-1.0589-1.7809-1.8772-1.8772-0.5776-0.09627-2.4548 0.2888-3.1286 0.72199-0.86639 0.52946-2.2141 3.0324-1.6846 4.4764 0.48133 1.2996 1.1552 3.61 1.2033 4.4764 0.0481 0.86639 0.19253 1.444 0.48133 2.0216 0.28879 0.62573 1.1552 2.0697 1.2514 2.7436l0.19253-1.0108c-0.24066-0.67386-0.67386-1.5403-0.86639-1.9734z"/>
   <path d="m141.95 65.938c0.2888-0.91452 1.1552-3.1768 1.1552-3.61-0.0481-0.48133-0.96266-2.166-1.3958-2.7917-0.24067-0.4332-0.52946-0.24066-0.38507 0.19253 0.2888 0.72199 0.96266 2.166 0.96266 2.5992 0.0481 0.33693-0.4332 1.8772-0.67386 2.6473z"/>
   <path d="m131.94 73.88c0.77012 0.04813 1.7328-0.09627 2.3104-0.19253 0.722-0.09627 0.81826 0.67386 0.0481 0.77012-0.91453 0.09627-1.6846 0.04813-2.4066-0.09627-0.62573-0.09627-0.52946-0.52946 0.0481-0.48133z"/>
   <path d="m61.235 35.566c0.1444-0.19253 0.86639-0.1444 1.0108-0.04813 1.6846 0.96266 5.6797 4.9095 7.7494 9.771 0.19253 0.4332 0.96266 0.33693 1.0108-0.19253 0.4332-3.2249-4.0913-14.681-8.4232-16.221-0.57759-0.19253-1.829 0.04813-2.2141 0.67386-0.48133 0.72199-0.86639 3.995-0.04813 6.6905l0.38506-0.48133c-0.57759-2.3585-0.09627-5.2465 0.24066-5.8241 0.19253-0.2888 1.0108-0.48133 1.3477-0.33693 3.8506 1.3477 8.2307 11.744 8.2307 15.258 0 0.1444-0.09627 0.19253-0.09627 0.1444-2.0216-4.717-5.9685-9.0008-8.0382-10.06-0.33693-0.1444-1.2515-0.09627-1.4921 0.1444-0.96266 1.1071-2.4548 4.0913-2.6473 6.7386l0.52946 0.19253c0-2.3585 1.6365-5.4871 2.4548-6.4498z"/>
   <path d="m83.473 35.47c-0.09627-0.09627-0.67386-0.1444-0.77012-0.09627-2.1178 1.0108-6.7386 6.5942-7.99 9.8191-0.24066 0.57759-1.0589 0.4332-1.0108-0.09627 0.38506-6.1129 5.3909-15.499 8.8083-16.365 0.57759-0.1444 1.6365 0.2888 1.8772 0.77012 0.48133 1.0108 0.72199 4.717 0.04813 6.883l-0.38506-0.62573c0.48133-2.0216 0.1444-5.1021-0.2888-5.9685-0.1444-0.19253-0.72199-0.48133-1.0108-0.38506-3.2249 0.81826-8.2307 9.8191-8.5676 15.643 0 0.09627 0.04813 0.1444 0.09627-0.04813 1.3959-3.3693 5.8722-8.9527 8.0863-10.108 0.33693-0.1444 1.2515-0.04813 1.444 0.1444 1.1071 1.1552 2.5992 4.4764 2.7917 6.7386l-0.52946 0.09627c-0.2888-2.166-1.5403-5.1983-2.5992-6.4017z"/>
  </g>
  <g stroke-width=".30083">
   <path d="m55.507 87.116c0.2888-0.04813 0.72199 0.38506 0.72199 0.86639 0.04813 0.48133-0.09627 1.2996-0.67386 1.3477-0.57759 0.04813-0.67386-0.77012-0.67386-1.1552-0.048133-0.38506 0.1444-1.0589 0.62573-1.0589z" fill="#ffe100"/>
   <path d="m54.882 87.983c0.1444 0.52946 1.1071 0.67386 1.2996-0.09627 0.09626 0.52946-0.1444 1.3477-0.62573 1.3959-0.48133 0.048136-0.62573-0.72199-0.67386-1.2996z" fill="#dcc200"/>
   <path d="m55.556 87.309c0.19253 0 0.4332 0.33693 0.4332 0.96266 0 0.57759-0.2888 0.81826-0.48133 0.77012-0.24066 0-0.4332-0.52946-0.4332-1.0108 0.048133-0.38506 0.2888-0.72199 0.48133-0.72199zm-0.86639 0.67386c-0.04813 0.62573 0.19253 1.4921 0.77012 1.5402 0.38506 0.04813 1.0589-0.4332 1.0589-1.2515 0-0.86639-0.52946-1.3959-0.91452-1.444-0.4332-0.04813-0.91452 0.57759-0.91452 1.1552z" fill="#0f141b"/>
   <path d="m89.104 87.02c0.38506-0.04813 0.67386 0.19253 0.77012 0.81826 0.09626 0.57759 0.04813 1.2996-0.52946 1.3959-0.52946 0.09627-0.77012-0.48133-0.77012-0.91452-0.048133-0.4332 0.096266-1.2515 0.52946-1.2996z" fill="#ffe100"/>
   <path d="m88.575 87.742c0.19253 0.62573 1.1071 0.77012 1.2033-0.09627 0.24066 0.57759 0.09627 1.444-0.4332 1.5884-0.52946 0.19254-0.86639-0.57759-0.77012-1.4921z" fill="#dcc200"/>
   <path d="m89.152 87.212c0.19253 0 0.48133 0.33693 0.52946 0.81826 0.04813 0.57759-0.1444 0.96266-0.4332 1.0108-0.19253 0-0.48133-0.33693-0.52946-0.96266-0.04813-0.48133 0.2888-0.81826 0.4332-0.86639zm-0.04813-0.48133c-0.57759 0.09627-0.96266 0.62573-0.91452 1.3959 0.04813 1.0589 0.62573 1.3959 1.1071 1.3477 0.48133 0 0.91452-0.52946 0.81826-1.4921-0.09627-0.81826-0.62573-1.2996-1.0108-1.2515z" fill="#0f141b"/>
   <path d="m72.643 87.983-0.04813 0.96266c0.24066 0 0.77012-0.09627 0.81826-0.4332 0.04813-0.2888-0.38507-0.52946-0.77013-0.52946zm1.829 0.57759c0.04813 1.2515-1.0589 1.5884-1.9734 1.5884l-0.09627 1.0589h-1.1552c0-0.91452 0.1444-3.4174 0.19253-4.1876 2.5029-0.2888 2.9842 0.52946 3.0324 1.5402z" fill="#e50038"/>
  </g>
  <g fill="#0f141b" stroke-width=".30083">
   <path d="m71.68 87.261c1.9253-0.1444 2.5029 0.24066 2.5029 1.2033 0 1.2515-0.72199 1.3477-1.7328 1.3959-0.09627 0-0.19253 0.09627-0.19253 0.24066 0 0-0.04813 0.62573-0.09627 0.81826-0.19253 0.04813-0.48133 0.04813-0.67386 0.04813 0-0.72199 0.1444-2.7917 0.19253-3.7062zm-0.52946-0.24066c-0.04813 0.96266-0.1444 3.5618-0.1444 4.2357 0 0.09627 0.04813 0.19253 0.1444 0.19253 0.2888 0.04813 1.0108 0.04813 1.2996 0 0.09627 0 0.19253-0.1444 0.19253-0.24066v-0.91452c0.81826-0.04813 2.1178-0.19253 2.1178-1.7809 0-1.444-1.3477-2.0216-3.4174-1.7328-0.09627 0.04813-0.19253 0.09627-0.19253 0.24066z"/>
   <path d="m72.739 88.801c0.33693-0.04813 0.52946-0.1444 0.52946-0.2888 0-0.19253-0.1444-0.24066-0.48133-0.2888 0 0.04813-0.04813 0.38506-0.04813 0.57759zm-0.1444-1.0108c0.62573 0 1.1071 0.2888 1.0589 0.81826 0 0.38506-0.4332 0.62573-1.1071 0.57759-0.1444 0-0.24066-0.04813-0.24066-0.19253 0.04813-0.33693 0.04813-0.77012 0.04813-1.0108 0-0.09627 0.09627-0.19253 0.24066-0.19253z"/>
   <path d="m83.713 48.995c0.91452-1.0589 2.0697-2.6473 3.0324-3.3693 0.48133-0.33693 0.24066-0.62573-0.24066-0.33693-1.0589 0.62573-2.551 2.4548-3.2249 3.273-0.67386 0.81826-1.1552 1.0108-1.9734 0.77012-1.5402-0.52946-4.8614-0.72199-7.4125 0.86639-0.91452 0.57759-1.6846 1.0108-2.888 0.09627-1.9253-1.3959-4.6689-1.6365-7.2199-1.0108-1.3477 0.33693-1.7809 0.24066-2.2622-0.48133-0.86639-1.3477-1.7809-2.4066-3.1768-3.3693-0.57759-0.4332-0.81826-0.09627-0.24066 0.33693 1.2033 0.91452 2.2622 2.2622 2.888 3.4174 0.72199 1.1552 1.6846 0.96266 2.9361 0.62573 2.4548-0.62573 5.0058-0.24066 6.6905 0.96266 1.5884 1.1552 2.6954 0.52946 3.5618 0 2.4548-1.5402 5.5353-1.3959 6.9311-0.91452 1.3477 0.4332 1.9734-0.1444 2.5992-0.86639z"/>
  </g>
 </g>
</svg>
