<?xml version="1.0" encoding="UTF-8" standalone="no"?>
<!-- Created with Inkscape (http://www.inkscape.org/) -->

<svg
   version="1.1"
   viewBox="0 0 169.96 179.42"
   id="svg360"
   sodipodi:docname="69-2.svg"
   inkscape:version="1.2.2 (b0a8486, 2022-12-01)"
   xmlns:inkscape="http://www.inkscape.org/namespaces/inkscape"
   xmlns:sodipodi="http://sodipodi.sourceforge.net/DTD/sodipodi-0.dtd"
   xmlns="http://www.w3.org/2000/svg"
   xmlns:svg="http://www.w3.org/2000/svg">
  <defs
     id="defs364" />
  <sodipodi:namedview
     id="namedview362"
     pagecolor="#505050"
     bordercolor="#eeeeee"
     borderopacity="1"
     inkscape:showpageshadow="0"
     inkscape:pageopacity="0"
     inkscape:pagecheckerboard="0"
     inkscape:deskcolor="#505050"
     showgrid="false"
     inkscape:zoom="10.522796"
     inkscape:cx="119.97762"
     inkscape:cy="52.647606"
     inkscape:window-width="1309"
     inkscape:window-height="430"
     inkscape:window-x="0"
     inkscape:window-y="25"
     inkscape:window-maximized="0"
     inkscape:current-layer="svg360" />
  <path
     d="M 169.851,90.878 C 169.18554,86.8231 166.7651,76.67 159.556,65.492 145.672,43.968 124.105,46.11 113.108,52.118 c -5.6956,3.1088 -9.3581,6.4538 -12.657,15.072 5.8404,6.3598 6.2379,10.49 6.6011,19.064 3.4809,2.9323 9.348,7.123 17.415,4.5565 14.985,-4.766 19.335,-5.5267 28.781,-3.1278 4.9324,1.2547 9.4178,3.1812 12.715,4.3775 3.66,1.6115 4.3013,1.3194 3.8898,-1.1823"
     fill="#0f141b"
     id="path314" />
  <path
     d="m 168.641,91.378 c -0.47114,-9.367 -11.807,-38.799 -36.272,-42.187 -12.984,-1.7995 -25.785,5.5217 -31.187,19.458 0.70863,1.0617 5.1445,11.934 5.4988,14.664 2.8802,5.0442 11.248,7.791 17.477,5.7452 9.1041,-2.9958 18.21,-5.0112 24.93,-3.7895 7.2196,1.3131 14.42,4.2784 19.553,6.1096"
     fill="#99d877"
     id="path316"
     style="fill:#a7d081;fill-opacity:1" />
  <path
     d="M 163.611,85.328 C 153.533,59.369 125.999,46.813 108.763,66.896 c -1.9024,2.2135 -0.65275,1.8274 0.49908,0.78991 21.306,-19.195 44.752,-2.9247 53.45,17.587 0.64639,1.5252 1.4934,1.5836 0.89913,0.0548"
     fill="#0f141b"
     id="path318" />
  <path
     d="m 115.951,157.368 c -11.461,-5.5445 -18.466,1.2559 -21.765,1.3906 -2.5564,0.10399 -6.0157,-1.1277 -9.0572,-3.3945 -6.7726,-5.0391 -5.6169,-18.448 -2.5297,-21.257 13.099,-11.911 25.3,-30.577 25.3,-49.205 0,-20.394 -18.571,-24.44 -19.267,-33.531 -0.90927,-11.86 9.353,-17.552 5.3464,-21.383 -3.9177,-3.7438 -20.22,6.9452 -13.365,30.59 2.8954,9.9855 15.522,8.2279 12.499,33.05 -1.9836,16.259 -6.5567,29.186 -15.826,37.37 -7.0443,6.2227 -28.844,11.986 -41.278,7.4227 -6.2735,-2.3011 -10.774,-5.4785 -13.046,-9.6058 -1.9468,-3.5393 -2.6059,-9.2261 3.0288,-15.213 2.4268,-2.5767 1.2979,-3.726 -0.87245,-1.9697 -5.0429,4.0816 -7.4532,9.856 -5.3642,15.746 -4.1451,-2.8218 -5.462,-8.1492 -4.9642,-10.352 0.4267,-1.8782 1.4693,-3.2434 3.1901,-5.3286 1.0312,-1.2496 0.72005,-2.1335 -0.6121,-1.1455 -1.2522,0.93087 -2.3976,2.31 -3.2142,3.7031 0.01908,-1.3969 0.57147,-2.4433 0.74545,-3.6244 0.63116,-4.2721 -1.2102,-3.3869 -2.1754,0.1296 -1.9278,7.0304 -0.6337,12.523 3.359,16.796 -2.7431,0.54607 -5.3426,0.27538 -7.2196,-1.3309 -1.5734,-1.3474 -2.2071,-3.599 -2.7812,-7.6069 -0.2324,-1.6039 -1.289,-1.4172 -1.4807,0.2311 -0.24,2.0649 0.14223,4.1502 1.0604,6.1655 -1.4287,-1.0896 -2.3176,-2.5272 -3.4339,-4.3292 -1.4528,-2.4459 -2.8586,-2.1919 -1.9214,0.54609 2.3938,6.9986 9.2299,9.1168 14.543,8.9466 1.8858,-0.0608 4.5146,0.56896 6.4157,2.263 2.0116,1.7957 7.0291,6.8272 14.056,9.5131 9.9525,3.7996 28.819,2.5551 41.64,-5.8849 -3.4606,8.7956 0.58163,17.116 5.9344,21.586 4.0422,3.378 7.7364,3.5812 10.415,4.3533 3.3018,0.95118 4.5895,5.7858 2.0319,15.404 -0.69847,2.6288 0.78481,2.7126 1.9341,0 1.3093,-3.0999 1.7576,-5.5572 1.8312,-7.9752 0.74291,1.8947 1.1264,4.3089 1.4096,7.2221 0.16891,1.769 1.3728,0.82035 1.4096,-1.7475 0.0991,-7.0443 -2.3494,-11.296 -4.3127,-12.652 4.9604,-0.66165 10.93,0.89275 15.312,8.1936 1.9748,3.2904 3.4237,2.6897 2.0027,-0.85718 -2.4332,-6.0843 -7.6272,-9.9284 -16.74,-9.4953 5.7807,-3.519 11.541,-2.8358 17.559,-0.44829 3.0491,1.209 2.6935,-1.082 0.20447,-2.2859"
     fill="#0f141b"
     id="path320" />
  <path
     d="m 80.015,150.038 c -1.6255,-4.4372 -1.8465,-13.598 1.6979,-16.988 15.514,-14.843 24.268,-30.77 24.268,-49.618 0,-14.115 -15.573,-23.599 -16.899,-26.643 C 81.9512,40.458 96.6583,36.015 91.764,31.406 88.4012,28.24 76.915,41.8 82.8529,58.729 c 1.6763,4.7712 7.8838,13.266 12.337,21.283 2.5157,4.526 -2.3976,39.495 -16.542,51.694 -4.3991,3.7958 -19.948,10.024 -33.581,9.5321 -8.8857,-0.32001 -16.885,-3.8517 -21.836,-10.196 -6.0233,-7.7136 -0.9715,-15.07 3.1532,-19.274 -10.347,7.3821 -5.1839,17.798 -5.1839,17.798 -6.5554,-4.427 -7.7237,-9.715 -7.3631,-12.433 0.33399,-2.5361 3.2079,-5.3477 3.2079,-5.3477 -1.8338,1.6509 -3.3602,3.4237 -3.3602,3.4237 -0.36828,-2.202 0.60957,-6.5998 0.60957,-6.5998 -3.7781,11.085 0.47876,16.396 3.3247,19.364 -6.5986,1.5595 -9.4026,-0.76706 -10.046,-1.7055 -2.4497,-3.5634 -2.197,-7.579 -2.197,-7.579 -0.6756,3.5457 1.3423,7.6412 1.3423,7.6412 -3.0263,-1.383 -5.3159,-5.0112 -5.8671,-6.2963 1.6903,6.37 7.5523,9.5384 14.551,9.1257 1.9595,-0.11419 4.9108,0.9867 6.1795,2.1805 7.5015,7.0887 12.575,9.6845 19.152,10.989 11.14,2.2033 31.085,-2.0687 38.38,-9.2502 -2.4903,3.9444 -2.9183,10.637 -1.2077,15.769 2.2948,4.9502 5.9052,10.452 13.935,11.549 8.252,1.129 5.8938,12.019 4.3063,17.415 0,0 2.8421,-6.5973 2.2021,-11.274 0,0 2.0141,2.658 2.9297,8.6165 -0.0889,-2.6567 -0.89784,-9.8306 -5.1318,-13.383 0,0 11.917,-2.9323 18.057,8.8921 0,0 -2.2008,-11.088 -18.333,-9.7163 3.5749,-3.4834 11.638,-6.5059 21.082,-1.7398 -3.6295,-2.5335 -10.858,-5.3185 -20.989,0.2059 -1.7487,0.95626 -12.476,0.11161 -15.949,-9.3734"
     fill="#b66141"
     id="path322"
     style="fill:#bf794e;fill-opacity:1" />
  <path
     d="m 133.081,18.348 c 2.1017,9.8242 1.4579,18.041 7.7237,29.311 2.4294,4.3711 -4.2289,11.38 -9.1283,14.073 -3.3298,1.8313 -16.114,4.9121 -18.034,0.68702 -3.665,-8.0653 -19.497,-16.187 -24.492,-25.289 -7.1713,-13.084 -1.2204,-26.906 8.6533,-32.981 14.904,-9.174 31.691,-2.5488 35.277,14.199"
     fill="#0f141b"
     id="path324" />
  <path
     d="M 138.211,44.998 C 133.0335,34.38 134.1802,29.784 131.248,17.503 127.9182,3.562 113.113,-2.678 98.8,5.587 86.901,12.4535 85.528,29.072 90.5492,36.384 c 7.1751,10.448 16.133,14.299 21.999,22.181 0.0202,0.0288 1.0794,-1.863 1.0998,-1.8325 2.197,3.378 12.088,1.9836 14.98,0.39749 4.253,-2.3418 11.49,-8.2266 9.5829,-12.132"
     fill="#e6ea08"
     id="path326"
     style="fill:#f0e800;fill-opacity:1" />
  <path
     d="m 105.581,29.448 c 0.60576,1.0997 0.20317,2.4852 -0.89911,3.0923 -1.101,0.60448 -2.4865,0.20304 -3.0923,-0.89783 -0.60576,-1.1023 -0.20447,-2.4878 0.89657,-3.091 1.1036,-0.60829 2.4878,-0.20447 3.0948,0.89657"
     fill="#0f141b"
     id="path328" />
  <path
     d="m 127.831,20.568 c 0.60702,1.101 0.20447,2.4852 -0.89912,3.091 -1.0998,0.60574 -2.4878,0.20698 -3.0936,-0.89783 -0.60449,-1.1023 -0.20318,-2.484 0.89784,-3.0923 1.1048,-0.60574 2.4891,-0.20303 3.0948,0.89912"
     fill="#0f141b"
     id="path330" />
  <path
     d="M 114.191,55.268 C 112.789,52.7459 108.8598,48.5666 103.007,43.718 90.87,33.659 92.153,19.239 95.9004,7.616 c -9.1956,7.6945 -9.9385,22.101 -5.3578,28.769 7.1751,10.448 16.133,14.299 21.999,22.181 0.006,0.0103 2.5653,-1.6471 1.6496,-3.298"
     fill="#bdc106"
     id="path332"
     style="fill:#cec900;fill-opacity:1" />
  <path
     d="m 142.841,46.938 c 1.7322,3.5685 -1.8338,10.539 -10.915,15.53 -8.5898,4.7241 -17.365,5.222 -19.825,0.91943 -2.5196,-4.4041 2.503,-11.342 11.648,-16.004 9.2286,-4.7089 17.054,-4.6327 19.092,-0.44576"
     fill="#0f141b"
     id="path334" />
  <path
     d="m 141.881,47.508 c 1.8046,3.1901 -3.2548,9.6883 -10.756,13.813 -7.5015,4.1222 -15.714,5.1368 -17.599,1.7106 -2.6211,-4.7712 3.745,-10.419 11.244,-14.543 7.504,-4.126 15.181,-4.3813 17.111,-0.98041"
     fill="#f79aaa"
     id="path336"
     style="fill:#f4b1b1;fill-opacity:1" />
  <path
     d="m 138.481,51.048 c 1.1632,-1.9036 -16.589,7.33 -19.523,7.8812 -2.6758,0.5029 -3.6726,-0.98167 -3.6892,-3.3348 -2.1475,2.4992 -3.0466,5.0708 -1.7512,7.4304 1.8846,3.4263 10.097,2.4116 17.599,-1.7106 4.4841,-2.465 8.0793,-5.7769 9.8763,-8.7219 -2.2274,2.8497 -3.5202,0.10398 -2.5119,-1.5442"
     fill="#cd7f8b"
     id="path338"
     style="fill:#d3999b;fill-opacity:1" />
  <path
     d="m 85.651,16.998 c 1.3093,-3.2155 0.95752,-3.9025 -3.5025,-2.498 -15.503,4.8842 -37.627,15.684 -37.243,40.588 0.20317,13.21 8.821,25.33 20.349,30.798 14.711,6.9744 32.839,3.4568 33.569,-13.653 C 99.30861,60.959 91.4681,53.255 84.4405,45.799 76.9987,37.9064 79.7278,31.544 85.6508,16.997"
     fill="#0f141b"
     id="path340" />
  <path
     d="M 91.621,83.948 C 99.5492,77.7304 99.172,64.242 89.0837,53.07 82.2388,45.491 78.0827,41.887 78.4477,36.022 79.11569,25.371 85.0488,17.139 84.6805,15.49 c -0.30479,-1.3766 -25.874,7.424 -33.912,22.364 -8.7257,16.225 -3.3844,31.353 6.8094,40.524 11.843,10.655 26.425,11.548 34.043,5.5712"
     fill="#99d877"
     id="path342"
     style="fill:#a7d081;fill-opacity:1" />
  <path
     d="m 114.281,62.308 c 1.8846,3.4263 9.2413,2.4433 16.744,-1.6801 4.6721,-2.5716 8.0603,-5.6868 9.5182,-8.4438 -0.27049,0.23002 -0.66926,0.55369 -1.0642,0.51942 -0.76451,-0.0584 -1.0706,-1.2509 -1.0706,-1.2509 l -19.524,8.614 c 0,0 -2.3976,2.324 -4.3076,0.85596 -0.5867,-0.44959 -0.69084,-1.8033 -0.70227,-2.4789 -0.40384,1.2636 -0.3162,2.5513 0.40639,3.8644"
     fill="#cd7f8b"
     id="path344"
     style="fill:#d3999b;fill-opacity:1" />
  <path
     d="m 138.851,50.458 c 0.8699,1.5874 -5.0784,6.5198 -9.1981,8.7828 -4.4689,2.4573 -11.431,4.7368 -12.353,3.0644 -0.86737,-1.5811 1.7017,-5.1712 8.9873,-9.1753 7.6336,-4.1971 11.789,-4.0778 12.563,-2.6719"
     fill="#0f141b"
     id="path346" />
  <path
     d="m 103.131,30.618 c 0.40257,0 0.72894,-0.32651 0.72894,-0.72767 0,-0.40257 -0.32636,-0.7277 -0.72894,-0.7277 -0.40002,0 -0.72513,0.32507 -0.72513,0.7277 0,0.40127 0.3251,0.72767 0.72513,0.72767"
     fill="#ffffff"
     id="path348" />
  <path
     d="m 125.131,21.708 c 0.40003,0 0.72641,-0.32651 0.72641,-0.7264 0,-0.40509 -0.32637,-0.72894 -0.72641,-0.72894 -0.40003,0 -0.72767,0.32399 -0.72767,0.72894 0,0.40003 0.32765,0.7264 0.72767,0.7264"
     fill="#ffffff"
     id="path350" />
  <path
     d="m 68.55,37.848 c 3.3463,-7.3021 6.9453,-7.5332 10.378,-5.7261 1.5785,-8.7219 6.0716,-15.196 5.7515,-16.637 -0.30479,-1.3766 -25.874,7.424 -33.912,22.364 -3.5215,6.5465 -4.7508,12.913 -4.2936,18.782 8.572,-1.4198 18.645,-11.294 22.077,-18.782"
     fill="#7eb162"
     id="path352"
     style="fill:#90b571;fill-opacity:1" />
  <path
     d="m 78.081,23.068 c -12.83,9.8191 -22.329,44.021 9.4013,54.977 1.8427,0.63367 2.2986,0.24118 -0.23367,-0.95881 -29.484,-13.96 -20.409,-41.307 -8.3346,-53.919 1.1518,-1.2039 0.40511,-1.0477 -0.83308,-0.099"
     fill="#0f141b"
     id="path354" />
  <path
     d="m 60.071,125.178 v 0.0216 z"
     fill="#0f141b"
     id="path356" />
</svg>
