<?xml version="1.0" encoding="UTF-8"?>
<!-- Created with Inkscape (http://www.inkscape.org/) -->
<svg version="1.1" viewBox="0 0 282.14 304.69" xmlns="http://www.w3.org/2000/svg">
 <defs>
  <clipPath id="clipPath156672">
   <path transform="translate(-375.1 -166.45)" d="M 0,595.276 H 841.89 V 0 H 0 Z"/>
  </clipPath>
  <clipPath id="clipPath156674">
   <path transform="translate(-375.44 -163.52)" d="M 0,595.276 H 841.89 V 0 H 0 Z"/>
  </clipPath>
  <clipPath id="clipPath156676">
   <path transform="translate(-376.29 -162.99)" d="M 0,595.276 H 841.89 V 0 H 0 Z"/>
  </clipPath>
  <clipPath id="clipPath156678">
   <path transform="translate(-375.73 -167)" d="M 0,595.276 H 841.89 V 0 H 0 Z"/>
  </clipPath>
  <clipPath id="clipPath156680">
   <path transform="translate(-374.44 -160.8)" d="M 0,595.276 H 841.89 V 0 H 0 Z"/>
  </clipPath>
  <clipPath id="clipPath156682">
   <path transform="translate(-375.44 -158.07)" d="M 0,595.276 H 841.89 V 0 H 0 Z"/>
  </clipPath>
  <clipPath id="clipPath156684">
   <path transform="translate(-375.78 -157.76)" d="M 0,595.276 H 841.89 V 0 H 0 Z"/>
  </clipPath>
  <clipPath id="clipPath156686">
   <path transform="translate(-373.82 -160.77)" d="M 0,595.276 H 841.89 V 0 H 0 Z"/>
  </clipPath>
  <clipPath id="clipPath156688">
   <path transform="translate(-373.89 -160.67)" d="M 0,595.276 H 841.89 V 0 H 0 Z"/>
  </clipPath>
  <clipPath id="clipPath156690">
   <path transform="translate(-373.71 -160.36)" d="M 0,595.276 H 841.89 V 0 H 0 Z"/>
  </clipPath>
  <clipPath id="clipPath156692">
   <path transform="translate(-373.8 -160.27)" d="M 0,595.276 H 841.89 V 0 H 0 Z"/>
  </clipPath>
  <clipPath id="clipPath156694">
   <path transform="translate(-373.81 -160.25)" d="M 0,595.276 H 841.89 V 0 H 0 Z"/>
  </clipPath>
  <clipPath id="clipPath156696">
   <path transform="translate(-374.02 -160.79)" d="M 0,595.276 H 841.89 V 0 H 0 Z"/>
  </clipPath>
  <clipPath id="clipPath156698">
   <path transform="translate(-374.13 -160.66)" d="M 0,595.276 H 841.89 V 0 H 0 Z"/>
  </clipPath>
  <clipPath id="clipPath156700">
   <path transform="translate(-374.59 -159.99)" d="M 0,595.276 H 841.89 V 0 H 0 Z"/>
  </clipPath>
  <clipPath id="clipPath156702">
   <path transform="translate(-378.35 -154.27)" d="M 0,595.276 H 841.89 V 0 H 0 Z"/>
  </clipPath>
  <clipPath id="clipPath156704">
   <path transform="translate(-379.82 -153.82)" d="M 0,595.276 H 841.89 V 0 H 0 Z"/>
  </clipPath>
  <clipPath id="clipPath156706">
   <path transform="translate(-379.82 -153.82)" d="M 0,595.276 H 841.89 V 0 H 0 Z"/>
  </clipPath>
  <clipPath id="clipPath156708">
   <path transform="translate(-387.98 -164.37)" d="M 0,595.276 H 841.89 V 0 H 0 Z"/>
  </clipPath>
  <clipPath id="clipPath156710">
   <path transform="translate(-386.08 -155.77)" d="M 0,595.276 H 841.89 V 0 H 0 Z"/>
  </clipPath>
  <clipPath id="clipPath156712">
   <path transform="translate(-388.51 -153.89)" d="M 0,595.276 H 841.89 V 0 H 0 Z"/>
  </clipPath>
  <clipPath id="clipPath156714">
   <path transform="translate(-389.53 -156.58)" d="M 0,595.276 H 841.89 V 0 H 0 Z"/>
  </clipPath>
  <clipPath id="clipPath156716">
   <path transform="translate(-388.41 -161.68)" d="M 0,595.276 H 841.89 V 0 H 0 Z"/>
  </clipPath>
  <clipPath id="clipPath156718">
   <path transform="translate(-388.61 -162.5)" d="M 0,595.276 H 841.89 V 0 H 0 Z"/>
  </clipPath>
  <clipPath id="clipPath156720">
   <path transform="translate(-388.74 -158.7)" d="M 0,595.276 H 841.89 V 0 H 0 Z"/>
  </clipPath>
  <clipPath id="clipPath156722">
   <path transform="translate(-389.28 -160.75)" d="M 0,595.276 H 841.89 V 0 H 0 Z"/>
  </clipPath>
  <clipPath id="clipPath156724">
   <path transform="translate(-388.7 -161.06)" d="M 0,595.276 H 841.89 V 0 H 0 Z"/>
  </clipPath>
  <clipPath id="clipPath156726">
   <path transform="translate(-387.03 -154.19)" d="M 0,595.276 H 841.89 V 0 H 0 Z"/>
  </clipPath>
  <clipPath id="clipPath156728">
   <path transform="translate(-387.03 -153.85)" d="M 0,595.276 H 841.89 V 0 H 0 Z"/>
  </clipPath>
  <clipPath id="clipPath156730">
   <path transform="translate(-382.82 -161.07)" d="M 0,595.276 H 841.89 V 0 H 0 Z"/>
  </clipPath>
  <clipPath id="clipPath156732">
   <path transform="translate(-386.11 -155.18)" d="M 0,595.276 H 841.89 V 0 H 0 Z"/>
  </clipPath>
  <clipPath id="clipPath156734">
   <path transform="translate(-387.1 -157.3)" d="M 0,595.276 H 841.89 V 0 H 0 Z"/>
  </clipPath>
  <clipPath id="clipPath156736">
   <path transform="translate(-385.42 -159.99)" d="M 0,595.276 H 841.89 V 0 H 0 Z"/>
  </clipPath>
  <clipPath id="clipPath156738">
   <path transform="translate(-381.13 -161.1)" d="M 0,595.276 H 841.89 V 0 H 0 Z"/>
  </clipPath>
  <clipPath id="clipPath156740">
   <path transform="translate(-380.08 -152.42)" d="M 0,595.276 H 841.89 V 0 H 0 Z"/>
  </clipPath>
  <clipPath id="clipPath156742">
   <path transform="translate(-386.91 -154.11)" d="M 0,595.276 H 841.89 V 0 H 0 Z"/>
  </clipPath>
  <clipPath id="clipPath156744">
   <path transform="translate(-385.92 -155.03)" d="M 0,595.276 H 841.89 V 0 H 0 Z"/>
  </clipPath>
  <clipPath id="clipPath156746">
   <path transform="translate(-379.48 -157.29)" d="M 0,595.276 H 841.89 V 0 H 0 Z"/>
  </clipPath>
  <clipPath id="clipPath156748">
   <path transform="translate(-379.95 -154.55)" d="M 0,595.276 H 841.89 V 0 H 0 Z"/>
  </clipPath>
  <clipPath id="clipPath156750">
   <path transform="translate(-381.3 -152.65)" d="M 0,595.276 H 841.89 V 0 H 0 Z"/>
  </clipPath>
  <clipPath id="clipPath156752">
   <path transform="translate(-377.77 -155.09)" d="M 0,595.276 H 841.89 V 0 H 0 Z"/>
  </clipPath>
  <clipPath id="clipPath156754">
   <path transform="translate(-386.16 -159.31)" d="M 0,595.276 H 841.89 V 0 H 0 Z"/>
  </clipPath>
  <clipPath id="clipPath156756">
   <path transform="translate(-386.25 -155.11)" d="M 0,595.276 H 841.89 V 0 H 0 Z"/>
  </clipPath>
  <clipPath id="clipPath156758">
   <path transform="translate(-382.83 -161.38)" d="M 0,595.276 H 841.89 V 0 H 0 Z"/>
  </clipPath>
  <clipPath id="clipPath156760">
   <path transform="translate(-386.62 -153.79)" d="M 0,595.276 H 841.89 V 0 H 0 Z"/>
  </clipPath>
  <clipPath id="clipPath156762">
   <path transform="translate(-383.88 -160.17)" d="M 0,595.276 H 841.89 V 0 H 0 Z"/>
  </clipPath>
  <clipPath id="clipPath156764">
   <path transform="translate(-387.14 -154.22)" d="M 0,595.276 H 841.89 V 0 H 0 Z"/>
  </clipPath>
  <clipPath id="clipPath156766">
   <path transform="translate(-380.69 -155.56)" d="M 0,595.276 H 841.89 V 0 H 0 Z"/>
  </clipPath>
  <clipPath id="clipPath156768">
   <path transform="translate(-380.19 -154.81)" d="M 0,595.276 H 841.89 V 0 H 0 Z"/>
  </clipPath>
  <clipPath id="clipPath156770">
   <path transform="translate(-380.9 -154.61)" d="M 0,595.276 H 841.89 V 0 H 0 Z"/>
  </clipPath>
  <clipPath id="clipPath156772">
   <path transform="translate(-380.42 -154.39)" d="M 0,595.276 H 841.89 V 0 H 0 Z"/>
  </clipPath>
  <clipPath id="clipPath156774">
   <path transform="translate(-381.31 -154.34)" d="M 0,595.276 H 841.89 V 0 H 0 Z"/>
  </clipPath>
  <clipPath id="clipPath156776">
   <path transform="translate(-380.65 -155.19)" d="M 0,595.276 H 841.89 V 0 H 0 Z"/>
  </clipPath>
  <clipPath id="clipPath156778">
   <path transform="translate(-380.89 -155.13)" d="M 0,595.276 H 841.89 V 0 H 0 Z"/>
  </clipPath>
  <clipPath id="clipPath156780">
   <path transform="translate(-380.07 -154.5)" d="M 0,595.276 H 841.89 V 0 H 0 Z"/>
  </clipPath>
  <clipPath id="clipPath156782">
   <path transform="translate(-382.74 -158.47)" d="M 0,595.276 H 841.89 V 0 H 0 Z"/>
  </clipPath>
  <clipPath id="clipPath156784">
   <path transform="translate(-380.82 -154.39)" d="M 0,595.276 H 841.89 V 0 H 0 Z"/>
  </clipPath>
  <clipPath id="clipPath156786">
   <path transform="translate(-385.31 -157.52)" d="M 0,595.276 H 841.89 V 0 H 0 Z"/>
  </clipPath>
  <clipPath id="clipPath156788">
   <path transform="translate(-375.84 -160.4)" d="M 0,595.276 H 841.89 V 0 H 0 Z"/>
  </clipPath>
  <clipPath id="clipPath156790">
   <path transform="translate(-376.76 -158.56)" d="M 0,595.276 H 841.89 V 0 H 0 Z"/>
  </clipPath>
  <clipPath id="clipPath156792">
   <path transform="translate(-383.2 -161.88)" d="M 0,595.276 H 841.89 V 0 H 0 Z"/>
  </clipPath>
  <clipPath id="clipPath156794">
   <path transform="translate(-377.03 -159.68)" d="M 0,595.276 H 841.89 V 0 H 0 Z"/>
  </clipPath>
  <clipPath id="clipPath156796">
   <path transform="translate(-379.71 -161.14)" d="M 0,595.276 H 841.89 V 0 H 0 Z"/>
  </clipPath>
  <clipPath id="clipPath156798">
   <path transform="translate(-377.47 -160.94)" d="M 0,595.276 H 841.89 V 0 H 0 Z"/>
  </clipPath>
  <clipPath id="clipPath156800">
   <path transform="translate(-378.97 -161.18)" d="M 0,595.276 H 841.89 V 0 H 0 Z"/>
  </clipPath>
  <clipPath id="clipPath156802">
   <path transform="translate(-376.57 -159.03)" d="M 0,595.276 H 841.89 V 0 H 0 Z"/>
  </clipPath>
  <clipPath id="clipPath156804">
   <path transform="translate(-376.7 -159)" d="M 0,595.276 H 841.89 V 0 H 0 Z"/>
  </clipPath>
  <clipPath id="clipPath156806">
   <path transform="translate(-380.92 -159.01)" d="M 0,595.276 H 841.89 V 0 H 0 Z"/>
  </clipPath>
  <clipPath id="clipPath156808">
   <path transform="translate(-380.68 -158.91)" d="M 0,595.276 H 841.89 V 0 H 0 Z"/>
  </clipPath>
  <clipPath id="clipPath156810">
   <path transform="translate(-377.47 -159.09)" d="M 0,595.276 H 841.89 V 0 H 0 Z"/>
  </clipPath>
  <clipPath id="clipPath156812">
   <path transform="translate(-378.23 -158.91)" d="M 0,595.276 H 841.89 V 0 H 0 Z"/>
  </clipPath>
  <clipPath id="clipPath156814">
   <path transform="translate(-380.84 -162.01)" d="M 0,595.276 H 841.89 V 0 H 0 Z"/>
  </clipPath>
  <clipPath id="clipPath156816">
   <path transform="translate(-380.84 -162.01)" d="M 0,595.276 H 841.89 V 0 H 0 Z"/>
  </clipPath>
  <clipPath id="clipPath156818">
   <path transform="translate(-376.65 -161.47)" d="M 0,595.276 H 841.89 V 0 H 0 Z"/>
  </clipPath>
  <clipPath id="clipPath156820">
   <path transform="translate(-376.68 -160.59)" d="M 0,595.276 H 841.89 V 0 H 0 Z"/>
  </clipPath>
  <clipPath id="clipPath156822">
   <path transform="translate(-376.99 -161.09)" d="M 0,595.276 H 841.89 V 0 H 0 Z"/>
  </clipPath>
  <clipPath id="clipPath156824">
   <path transform="translate(-380.29 -160.91)" d="M 0,595.276 H 841.89 V 0 H 0 Z"/>
  </clipPath>
  <clipPath id="clipPath156826">
   <path transform="translate(-382.82 -165.8)" d="M 0,595.276 H 841.89 V 0 H 0 Z"/>
  </clipPath>
  <clipPath id="clipPath156828">
   <path transform="translate(-382.16 -162.07)" d="M 0,595.276 H 841.89 V 0 H 0 Z"/>
  </clipPath>
  <clipPath id="clipPath156830">
   <path transform="translate(-382.16 -162.07)" d="M 0,595.276 H 841.89 V 0 H 0 Z"/>
  </clipPath>
  <clipPath id="clipPath156832">
   <path transform="translate(-383.37 -165.12)" d="M 0,595.276 H 841.89 V 0 H 0 Z"/>
  </clipPath>
  <clipPath id="clipPath156834">
   <path transform="translate(-382.53 -163.09)" d="M 0,595.276 H 841.89 V 0 H 0 Z"/>
  </clipPath>
  <clipPath id="clipPath156836">
   <path transform="translate(-383.87 -153.06)" d="M 0,595.276 H 841.89 V 0 H 0 Z"/>
  </clipPath>
  <clipPath id="clipPath156838">
   <path transform="translate(-385.28 -149.13)" d="M 0,595.276 H 841.89 V 0 H 0 Z"/>
  </clipPath>
  <clipPath id="clipPath156840">
   <path transform="translate(-387.14 -148.99)" d="M 0,595.276 H 841.89 V 0 H 0 Z"/>
  </clipPath>
  <clipPath id="clipPath156842">
   <path transform="translate(-380.76 -158.99)" d="M 0,595.276 H 841.89 V 0 H 0 Z"/>
  </clipPath>
  <clipPath id="clipPath156844">
   <path transform="translate(-376.63 -159.63)" d="M 0,595.276 H 841.89 V 0 H 0 Z"/>
  </clipPath>
  <clipPath id="clipPath156846">
   <path transform="translate(-381.79 -159.93)" d="M 0,595.276 H 841.89 V 0 H 0 Z"/>
  </clipPath>
  <clipPath id="clipPath156848">
   <path transform="translate(-380.89 -161.31)" d="M 0,595.276 H 841.89 V 0 H 0 Z"/>
  </clipPath>
  <clipPath id="clipPath156850">
   <path transform="translate(-376.99 -160.87)" d="M 0,595.276 H 841.89 V 0 H 0 Z"/>
  </clipPath>
  <clipPath id="clipPath156852">
   <path transform="translate(-378.55 -157.89)" d="M 0,595.276 H 841.89 V 0 H 0 Z"/>
  </clipPath>
  <clipPath id="clipPath156854">
   <path transform="translate(-377.25 -160.81)" d="M 0,595.276 H 841.89 V 0 H 0 Z"/>
  </clipPath>
  <clipPath id="clipPath156856">
   <path transform="translate(-379.58 -160.94)" d="M 0,595.276 H 841.89 V 0 H 0 Z"/>
  </clipPath>
 </defs>
 <path transform="matrix(15.569 0 0 -15.569 22.381 25.872)" d="m0 0c3e-3 -0.062 1e-3 -0.127 2e-3 -0.193-0.657-0.346-0.225-2.14 0.109-2.681-0.654 0.429-0.721-0.221-0.411-0.841 0.392-0.785 1.073-1.685 1.557-1.623 0.178 0.023 0.292 0.177 0.337 0.459 0.055 0.339 0.107 0.612 0.153 0.853 0.103 0.544 0.171 0.904 0.15 1.394 0.026 2.056-0.485 3.352-0.968 3.979-0.324 0.422-1.028 0.758-0.929-1.347" clip-path="url(#clipPath156672)" fill="#0f141b"/>
 <path transform="matrix(15.569 0 0 -15.569 27.595 71.492)" d="m0 0c-0.262 0.093-0.568 1.576-0.467 2.169 0.041 0.247 0.123 0.428 0.223 0.497l0.025 0.017-1e-3 0.03c-0.024 1.164 0.145 1.495 0.291 1.568 0.086 0.043 0.201 9e-3 0.343-0.103 0.595-0.468 0.944-1.775 1.036-3.885 0.02-0.477-0.047-0.831-0.149-1.368-0.046-0.241-0.098-0.515-0.153-0.855-0.037-0.227-0.118-0.35-0.24-0.366-0.385-0.049-1.08 0.794-1.338 1.38-0.206 0.469-0.262 0.77-0.168 0.86 0.046 0.044 0.442-0.052 0.585-0.101 0.144-0.049 0.275 0.064 0.013 0.157" clip-path="url(#clipPath156674)" fill="#afcee5"/>
 <path transform="matrix(15.569 0 0 -15.569 40.841 79.726)" d="m0 0c-0.643 0.865-0.222 2.174-0.532 2.751-0.311 0.576-0.347 1.753-0.107 1.42s-0.024 0.069 0 0c0.037 0.05 0.037 0.05 0 0 0.55-0.489 1.227-4.962 0.639-4.171" clip-path="url(#clipPath156676)" fill="#93aec1"/>
 <path transform="matrix(15.569 0 0 -15.569 32.139 17.363)" d="m0 0c0.175-0.356 0.632-2.074 0.512-3.197l0.148 0.18c0.125 1.17-0.398 2.805-0.572 3.088s-0.263 0.285-0.088-0.071" clip-path="url(#clipPath156678)" fill="#0f141b"/>
 <path transform="matrix(15.569 0 0 -15.569 12.045 113.89)" d="m0 0c-0.2-0.2-0.316-0.482-0.315-0.774 2e-3 -0.582 0.391-1.259 1.134-1.99 0.974-0.958 2.54-2.053 3.458-1.877 0.153 0.029 0.348 0.162 0.413 0.631 0.137 0.993-0.398 2.886-1.042 3.208-0.485 0.243-3.003 1.447-3.648 0.802" clip-path="url(#clipPath156680)" fill="#0f141b"/>
 <path transform="matrix(15.569 0 0 -15.569 27.632 156.29)" d="m0 0c-0.722 0.71-1.121 1.404-1.123 1.956-1e-3 0.261 0.088 0.484 0.266 0.661 0.49 0.49 2.401-0.27 3.454-0.796 0.597-0.299 1.11-2.153 0.98-3.092-0.031-0.222-0.111-0.495-0.323-0.536-0.819-0.157-2.224 0.795-3.254 1.807" clip-path="url(#clipPath156682)" fill="#88a3d4"/>
 <path transform="matrix(15.569 0 0 -15.569 32.873 161.21)" d="m0 0c0.983-0.884 2.185-1.631 2.918-1.491 0.211 0.041 0.292 0.314 0.323 0.537 0.089 0.647-0.127 1.73-0.466 2.438-0.742-0.768-1.217-2.086-2.775-1.484" clip-path="url(#clipPath156684)" fill="#778db8"/>
 <path transform="matrix(15.569 0 0 -15.569 2.45 114.3)" d="m0 0c-0.063-0.054-0.06-0.097-0.047-0.124 0.079-0.158 0.77-0.373 0.839-0.373 0.076 0 0.19 0.232 0.23 0.357 0.044 0.135 0.099 0.272 0.044 0.311-0.227 0.162-0.903-0.031-1.066-0.171" clip-path="url(#clipPath156686)" fill="#0f141b"/>
 <path transform="matrix(15.569 0 0 -15.569 3.492 115.84)" d="m0 0c-1e-3 2e-3 -2e-3 5e-3 -2e-3 7e-3 0 0.017 0.024 0.039 0.035 0.049 0.149 0.128 0.675 0.264 0.872 0.123 0.015-0.011 0.023-0.034 0.023-0.068 0-0.013-2e-3 -0.029-4e-3 -0.045-0.027-0.173-0.163-0.394-0.201-0.407-0.072 1e-3 -0.66 0.214-0.723 0.341" clip-path="url(#clipPath156688)" fill="#fff"/>
 <path transform="matrix(15.569 0 0 -15.569 .691 120.62)" d="m0 0c-0.049-0.027-0.072-0.09 9e-3 -0.189 0.03-0.037 0.484-0.549 0.558-0.504 0.252 0.153 0.352 0.621 0.293 0.74-0.012 0.024-0.032 0.039-0.058 0.043-0.169 0.024-0.64 0-0.802-0.09" clip-path="url(#clipPath156690)" fill="#0f141b"/>
 <path transform="matrix(15.569 0 0 -15.569 2.125 122.01)" d="m0 0c-2e-3 0.09 0.552 0.145 0.702 0.124 5e-3 -1e-3 0.011-3e-3 0.016-0.013 6e-3 -0.012 8e-3 -0.029 8e-3 -0.051 0-0.117-0.161-0.555-0.242-0.555s-0.482 0.405-0.484 0.495" clip-path="url(#clipPath156692)" fill="#fff"/>
 <path transform="matrix(15.569 0 0 -15.569 2.263 122.46)" d="m0 0c0.057-0.125 0.401-0.467 0.475-0.467 0.031 0 0.075 0.065 0.116 0.152-0.19 0.088-0.396 0.198-0.591 0.315" clip-path="url(#clipPath156694)" fill="#d3d2d2"/>
 <path transform="matrix(15.569 0 0 -15.569 5.433 114.05)" d="m0 0c-0.022-0.015-0.029-0.034-0.031-0.047-0.018-0.124 0.348-0.699 0.573-0.843 0.106-0.068 0.585 0.369 0.493 0.673-0.01 0.033-0.044 0.082-0.088 0.093 0 0-0.804 0.22-0.947 0.124" clip-path="url(#clipPath156696)" fill="#0f141b"/>
 <path transform="matrix(15.569 0 0 -15.569 7.254 115.97)" d="m0 0c-0.043 0.071 0.832-0.04 0.848-0.127 0.036-0.198-0.26-0.551-0.391-0.546-0.131 6e-3 -0.413 0.602-0.457 0.673" clip-path="url(#clipPath156698)" fill="#fff"/>
 <path transform="matrix(15.569 0 0 -15.569 14.368 126.45)" d="m0 0c0.059-2e-3 0.15 0.067 0.23 0.162-0.171 0.117-0.414 0.294-0.662 0.465 0.084-0.159 0.316-0.622 0.432-0.627" clip-path="url(#clipPath156700)" fill="#d3d2d2"/>
 <path transform="matrix(15.569 0 0 -15.569 72.974 215.43)" d="m0 0c-0.221-0.172-1.406-1.21-1.468-2.016-1e-3 -5e-3 0-0.01 0-0.015 0.018-0.473 0.204-0.801 0.515-1.256-0.023-0.055-0.187-0.267-0.226-0.346-0.12-0.245-0.138-0.347-0.138-0.456 0-0.029 6e-3 -0.054 0.018-0.075 0.02-0.031 0.053-0.048 0.094-0.048 0.163 0 0.583 0.104 0.703 0.118 0.048-0.112 0.13-0.494 0.326-0.474 0.169 0.017 0.704 0.316 0.859 0.385 0.066-0.129 0.215-0.557 0.477-0.463 0.011 4e-3 1.24 0.494 1.274 0.638 0.048 0.205-0.069 0.93-0.068 0.814 0.021 0.115 0.776 0.658 1.08 0.875 0.017 0.012-0.061 0.128-0.061 0.178 0 5e-3 0 0.011-1e-3 0.017-0.039 0.347-1.457 1.669-2.46 2.091-0.416 0.176-0.727 0.187-0.924 0.033" clip-path="url(#clipPath156702)" fill="#0f141b"/>
 <path transform="matrix(15.569 0 0 -15.569 95.755 222.43)" d="m0 0c0.988-0.625 1.81-1.528 1.81-1.687 0-2e-3 -1e-3 -3e-3 -1e-3 -4e-3 -0.142-0.103-1.059-0.847-1.059-1.044 0-0.06 0.12-0.694 0.06-0.75s-0.794-0.398-1.102-0.508c-0.213-0.076-0.354 0.259-0.411 0.355-0.057 0.097-0.757-0.208-0.885-0.274-0.129-0.067-0.254 0.245-0.289 0.349-0.035 0.103-0.657-0.087-0.727-8e-3 -0.071 0.079 0.14 0.387 0.277 0.632 0.155-0.147 0.422-0.277 0.337-0.155-0.084 0.121-0.101 0.121-0.311 0.397-0.211 0.276-0.383 0.65-0.401 1.12v0.012c0 0.477 1.063 1.735 1.308 1.926 0.238 0.186 0.733 0.057 1.394-0.361" clip-path="url(#clipPath156704)" fill="#88a3d4"/>
 <path transform="matrix(15.569 0 0 -15.569 95.755 222.43)" d="m0 0c-0.573 0.363-1.02 0.507-1.285 0.418 0.424-0.596 1.748-2.693 1.272-3.304-0.358-0.461-0.102-0.546-0.279-1.107 0.091-0.02 1.042 0.452 1.102 0.508s-0.06 0.69-0.06 0.75c0 0.197 0.917 0.941 1.059 1.044 0 1e-3 1e-3 2e-3 1e-3 4e-3 0 0.159-0.822 1.062-1.81 1.687" clip-path="url(#clipPath156706)" fill="#778db8"/>
 <path transform="matrix(15.569 0 0 -15.569 222.83 58.206)" d="m0 0c-0.831-0.153-1.709-0.755-2.204-1.533-0.39-0.613-0.708-1.692-0.332-3.133 0.327-1.251 0.437-2.742 0.526-3.94 0.109-1.478 0.186-2.32 0.489-2.456 0.513-0.23 1.578-0.841 3.534 0.29 1.713 0.991 2.702 4.178 0.63 5.198 0.027 0.11 0.41 1.094-0.311 1.974 0.409 0.131 1.195 0.648 0.754 2.028-0.412 1.289-1.908 1.789-3.086 1.572" clip-path="url(#clipPath156708)" fill="#0f141b"/>
 <path transform="matrix(15.569 0 0 -15.569 193.28 192.06)" d="m0 0c-0.089 1.203-0.2 2.7-0.529 3.96-0.366 1.402 8e-3 2.404 0.386 2.998 0.479 0.753 1.274 1.313 2.075 1.46 1.13 0.208 2.532-0.311 2.922-1.541 0.15-0.472 0.136-0.88-0.04-1.215-0.175-0.329-0.482-0.52-0.693-0.583l-0.026-0.092c0.665-0.738 0.319-1.996 0.316-2.008l0.03-0.036c7e-3 -2e-3 0.732-0.273 1.01-1.419 0.237-0.983-0.41-2.778-1.636-3.563-1.635-1.048-2.895-0.545-3.393-0.322-0.256 0.115-0.333 1.156-0.422 2.361" clip-path="url(#clipPath156710)" fill="#afcee5"/>
 <g fill="#93aec1">
  <path transform="matrix(15.569 0 0 -15.569 231.03 221.33)" d="m0 0c-0.725-0.179-1.271-0.195-1.762 0.156 0.063-0.452-0.374-0.578-0.241-0.637 0.498-0.223 1.758-0.726 3.393 0.321 0.624 0.4 1.097 1.06 1.381 1.742-0.063-0.06-1.168-1.138-2.771-1.582" clip-path="url(#clipPath156712)"/>
  <path transform="matrix(15.569 0 0 -15.569 247.02 179.53)" d="m0 0c-1.043-0.448-1.575 0.932-1.283 1.25 0.03-0.071-0.015 0.01 0.011-0.042 0.056-0.225 0.359-0.671 0.697-0.784 0.564-0.169 0.841 0.192 0.812 0.723 0.428-0.326 0.227-0.948-0.237-1.147" clip-path="url(#clipPath156714)"/>
  <path transform="matrix(15.569 0 0 -15.569 229.58 100.12)" d="m0 0c-0.056-0.338 0.064-1.326 0.581-1.638 0.517-0.313 1.116-0.291 1.537-1e-3 -0.056 0.255-0.163 0.509-0.354 0.721 0 0-1.376-0.301-1.764 0.918" clip-path="url(#clipPath156716)"/>
 </g>
 <g fill="#0f141b">
  <path transform="matrix(15.569 0 0 -15.569 232.68 87.434)" d="m0 0c-0.221-0.23-0.311-0.539-0.273-0.846 0.04-0.315 0.199-0.57 0.476-0.741 0.356-0.22 0.769-0.377 1.424-0.161 0.245 0.08 0.223 0.192-0.041 0.105-0.377-0.125-0.877-0.087-1.26 0.149-0.247 0.153-0.417 0.413-0.452 0.696-0.035 0.272 0.111 0.596 0.252 0.7 0.308 0.226 0.77 0.172 0.948-0.137 0.177-0.31 0.142-0.114 0.072 0.074-0.049 0.134-0.217 0.31-0.489 0.357-0.142 0.024-0.44 0.03-0.657-0.196" clip-path="url(#clipPath156718)"/>
  <path transform="matrix(15.569 0 0 -15.569 234.62 146.47)" d="m0 0c-0.964-0.835-0.349-1.673 0.113-1.793 0.377-0.098 0.664 9e-3 0.834 0.182 0.182 0.184 0.216 0.426 0.158 0.599-0.045 0.133-0.156 0.236-0.289 0.274-0.068 0.019-0.091 0 0.01-0.083 0.1-0.084 0.116-0.135 0.135-0.189 0.049-0.146 0.025-0.369-0.116-0.512-0.141-0.144-0.357-0.158-0.637-0.085-0.389 0.101-0.808 0.918-0.107 1.509 0.415 0.35 1.386 0.266 1.699 0.101s0.375-0.064 0.048 0.102c-0.541 0.276-1.405 0.279-1.848-0.105" clip-path="url(#clipPath156720)"/>
  <path transform="matrix(15.569 0 0 -15.569 243.12 114.58)" d="m0 0c0.213-0.271 0.184-0.753 0.134-1.07-0.051-0.317-0.04-0.274 0.053-0.011 0.136 0.384 0.168 0.888-0.125 1.139z" clip-path="url(#clipPath156722)"/>
  <path transform="matrix(15.569 0 0 -15.569 233.97 109.84)" d="m0 0c0.122-0.365-0.114-1.774-0.802-2.754-0.355-0.506-0.265-0.413 0.066-0.053 0.733 0.797 0.963 2.393 0.816 2.834z" clip-path="url(#clipPath156724)"/>
  <path transform="matrix(15.569 0 0 -15.569 208.05 216.68)" d="M 0,0 0.019,-0.082 C 1.63,0.331 2.293,1.795 2.324,2.126 2.355,2.458 2.271,2.322 2.242,2.146 2.213,1.969 1.451,0.326 0,0" clip-path="url(#clipPath156726)"/>
  <path transform="matrix(15.569 0 0 -15.569 208.06 222.08)" d="M 0,0 -0.021,-0.082 C 0.376,-0.181 1.172,-0.255 2.056,0.232 2.323,0.38 2.357,0.465 2.009,0.302 1.382,0.01 0.384,-0.096 0,0" clip-path="url(#clipPath156728)"/>
  <path transform="matrix(15.569 0 0 -15.569 142.46 109.56)" d="m0 0c0.186-0.684 0.71-1.014 1.218-1.334 0.419-0.264 0.853-0.537 1.121-1.013 0.217-0.386 0.27-0.977 0.325-1.604 0.069-0.771 0.139-1.568 0.54-2.021 0.297-0.344 0.632-0.671 1.024-1.003l0.058-0.049 0.03 0.07c0.379 0.891 0.437 2.156 0.118 3.395-0.605 2.349-2.238 3.408-4.374 3.63l-0.082 8e-3z" clip-path="url(#clipPath156730)"/>
 </g>
 <g>
  <path transform="matrix(15.569 0 0 -15.569 193.66 201.39)" d="m0 0c-0.376 0.426-0.445 1.205-0.512 1.957-0.056 0.639-0.11 1.243-0.339 1.65-0.282 0.5-0.728 0.781-1.159 1.053-0.488 0.307-0.947 0.602-1.14 1.184 2.043-0.247 3.589-1.631 4.145-3.722 0.15-0.564 0.225-1.094 0.225-1.587 0-0.537-0.092-1.027-0.269-1.472-0.36 0.309-0.673 0.616-0.951 0.937" clip-path="url(#clipPath156732)" fill="#b94100"/>
  <path transform="matrix(15.569 0 0 -15.569 209.15 168.35)" d="m0 0c0.072-0.813-0.067-1.872-0.603-2.542 0.173-0.174 0.359-0.345 0.559-0.517 0.177 0.445 0.269 0.935 0.269 1.472 0 0.493-0.075 1.023-0.225 1.587" clip-path="url(#clipPath156734)" fill="#922f00"/>
  <path transform="matrix(15.569 0 0 -15.569 182.93 126.38)" d="m0 0c-0.683 0.556-1.519 0.912-2.461 1.026 0.129-0.389 0.377-0.65 0.673-0.872 0.611 0.127 1.208 0.043 1.788-0.154" clip-path="url(#clipPath156736)" fill="#922f00"/>
 </g>
 <path transform="matrix(15.569 0 0 -15.569 116.19 109.08)" d="m0 0c-1.287-0.331-2.306-0.956-2.946-1.81-0.732-0.978-1.141-2.223-0.621-3.913 0.409-1.448 1.356-2.673 2.696-3.199 1.055-0.844 2.596-0.909 3.668-0.487 1.852 0.431 2.66 1.143 3.173 2.349l0.017 0.038-0.134 0.113c-0.342 0.288-0.695 0.586-0.977 0.911v1e-3c-0.39 0.441-0.507 1.174-0.62 1.882-0.09 0.564-0.183 1.148-0.418 1.567-0.274 0.492-0.681 0.829-1.075 1.154-0.491 0.405-0.955 0.788-1.13 1.434l-0.01 0.037-0.039 4e-3c-0.558 0.058-1.017 0.065-1.584-0.081" clip-path="url(#clipPath156738)" fill="#0f141b"/>
 <path transform="matrix(15.569 0 0 -15.569 99.85 244.3)" d="m0 0c-1.233 0.773-2.11 1.971-2.407 3.287-0.588 2.601 0.715 4.578 3.485 5.289 0.538 0.138 0.979 0.134 1.509 0.081 0.192-0.656 0.658-1.044 1.153-1.453 0.386-0.318 0.786-0.648 1.05-1.121 0.224-0.403 0.311-0.95 0.404-1.53 0.116-0.725 0.235-1.473 0.647-1.94 0.287-0.332 0.66-0.646 0.989-0.923 0 0 0.039-0.033 0.069-0.058-0.507-1.149-1.625-1.912-3.42-2.33-1.096-0.255-2.364-1e-3 -3.479 0.698" clip-path="url(#clipPath156740)" fill="#feee96"/>
 <path transform="matrix(15.569 0 0 -15.569 206.19 217.99)" d="m0 0c-0.329 0.277-0.702 0.592-0.99 0.924-0.411 0.466-0.531 1.215-0.646 1.939-0.093 0.58-0.18 1.128-0.405 1.53-0.264 0.473-0.663 0.803-1.049 1.122-0.495 0.408-0.961 0.796-1.154 1.452-0.529 0.053-0.97 0.057-1.509-0.081-1.74-0.447-2.901-1.394-3.378-2.681 1.706-1.523 4.185-0.548 4.959-0.188 1.504 0.699 0.804-1.628 1.649-2.811 0.585-0.39 0.549-1.191 0.38-1.529-0.491-1.012-1.466-2.148-2.401-2.147 0.409-0.032 0.811-6e-3 1.192 0.082 1.795 0.419 2.914 1.181 3.42 2.33-0.03 0.026-0.068 0.058-0.068 0.058" clip-path="url(#clipPath156742)" fill="#d2c47c"/>
 <g fill="#0f141b">
  <path transform="matrix(15.569 0 0 -15.569 190.78 203.62)" d="m0 0" clip-path="url(#clipPath156744)"/>
  <path transform="matrix(15.569 0 0 -15.569 90.431 168.44)" d="m0 0c-0.182 0.077-0.683 0.476-0.957 0.695l-0.186 0.147-0.051-0.068 0.104-0.151c0.304-0.243 0.895-0.644 1.077-0.71l0.018-7e-3 0.016 9e-3c1.12 0.566 1.707 1.253 2.178 1.744l-0.061 0.058c-0.461-0.481-1.653-1.456-2.138-1.717" clip-path="url(#clipPath156746)"/>
  <path transform="matrix(15.569 0 0 -15.569 97.863 211.05)" d="m0 0c0.17-0.713 0.702-1.452 1.325-1.958l0.09 0.039c-0.607 0.575-1.02 1.27-1.293 1.907-0.165 0.383-0.279 0.745-0.356 1.048-0.229 0.901-0.218 1.595-0.21 1.646l-0.083 0.014c-3e-3 -0.017-0.185-1.346 0.527-2.696" clip-path="url(#clipPath156748)"/>
  <path transform="matrix(15.569 0 0 -15.569 118.88 240.73)" d="m0 0c-0.617-0.337-0.882-0.418-1.239-0.272s0.284-0.191 0.284-0.191c0.015 1e-3 0.32-0.081 0.98 0.381 1.143-0.462 2.38-0.381 2.394-0.381l4e-3 0.084c-0.013 1e-3 -1.389 0.08-2.391 0.382l-0.016 5e-3z" clip-path="url(#clipPath156750)"/>
  <path transform="matrix(15.569 0 0 -15.569 63.919 202.74)" d="m0 0 0.082-0.041c0.219-0.207 1.011-0.725 2.3-0.532l-0.011 0.084c-0.984-0.125-1.937 0.363-2.25 0.523l-0.088 0.044z" clip-path="url(#clipPath156752)"/>
  <path transform="matrix(15.569 0 0 -15.569 194.43 136.96)" d="m0 0c0.066-0.329-0.073-1.48-0.772-2.062l0.054-0.065c0.687 0.252 0.864 1.712 0.793 2.067z" clip-path="url(#clipPath156754)"/>
  <path transform="matrix(15.569 0 0 -15.569 195.95 202.43)" d="M 0,0 0.034,-0.077 C 0.769,0.077 1.025,1.432 1.042,1.636 L 1.005,1.748 C 0.989,1.551 0.695,0.307 0,0" clip-path="url(#clipPath156756)"/>
  <path transform="matrix(15.569 0 0 -15.569 142.68 104.74)" d="m0 0c-0.163-0.141-0.23-0.427-0.199-0.611l0.011-0.093c0.036-0.31-6e-3 -1.054 0.917-1.563l0.245-0.047c0.605-0.327 1.235-0.606 1.242-2.386 8e-3 -2.25 0.919-2.615 1.508-2.986 0.353-0.223 0.569-0.112 0.635-0.011 0.111 0.168 0.229 0.549 0.031 0.671-0.518 0.319-0.646 0.621-0.797 0.866l-0.076 0.122c-0.3 0.462-0.461 1.295-0.575 2.083-0.069 0.473-0.106 1.01-0.2 1.292-0.182 0.548-0.849 0.934-1.271 1.25-0.149 0.111-0.279 0.208-0.346 0.277-0.172 0.176-0.215 0.444-0.274 0.639-0.081 0.267-0.137 0.544-0.488 0.656-0.119 0.037-0.27-0.078-0.363-0.159" clip-path="url(#clipPath156758)"/>
 </g>
 <path transform="matrix(15.569 0 0 -15.569 201.59 222.92)" d="m0 0c-0.617 0.388-1.339 1.068-1.456 2.898-0.117 1.839-0.666 2.135-1.3 2.478l-0.121 0.065c-0.872 0.481-0.947 1.141-0.983 1.459l-0.012 0.098c-0.026 0.152 0.035 0.398 0.162 0.508 0.063 0.055 0.134 0.069 0.215 0.043 0.295-0.093 0.357-0.297 0.436-0.556 0.06-0.197 0.128-0.421 0.319-0.617 0.074-0.075 0.2-0.169 0.36-0.289 0.411-0.307 1.032-0.771 1.203-1.286 0.091-0.272 0.155-0.714 0.223-1.181 0.116-0.8 0.248-1.706 0.561-2.189l0.075-0.12c0.158-0.255 0.321-0.52 0.841-0.879 0.032-0.022 0.04-0.222-0.067-0.381-0.074-0.108-0.212-0.205-0.456-0.051" clip-path="url(#clipPath156760)" fill="#eeeeef"/>
 <path transform="matrix(15.569 0 0 -15.569 158.94 123.65)" d="m0 0c-0.191 0.196-0.259 0.42-0.32 0.617-0.078 0.259-0.14 0.463-0.435 0.556-0.081 0.026-0.152 0.012-0.215-0.043-0.127-0.111-0.188-0.356-0.162-0.508l0.012-0.098c0.029-0.259 0.085-0.744 0.574-1.175 0.076 0.285 0.251 0.522 0.569 0.629-8e-3 7e-3 -0.016 0.015-0.023 0.022" clip-path="url(#clipPath156762)" fill="#c8c9ca"/>
 <path transform="matrix(15.569 0 0 -15.569 209.74 216.19)" d="m0 0c-0.491 0.339-0.664 0.593-0.814 0.836 0.179-0.498 0.04-0.916-0.22-0.871 0.168-0.165 0.343-0.292 0.511-0.397 0.244-0.154 0.382-0.057 0.455 0.051 0.107 0.159 0.099 0.359 0.068 0.381" clip-path="url(#clipPath156764)" fill="#c8c9ca"/>
 <path transform="matrix(15.569 0 0 -15.569 109.29 195.34)" d="m0 0c-0.359-0.23-0.708-0.658-0.596-0.863 0 0 0.612 0.253 0.657 0.28l0.015 9e-3 -0.035 0.6z" clip-path="url(#clipPath156766)" fill="#0f141b"/>
 <path transform="matrix(15.569 0 0 -15.569 101.5 207.15)" d="m0 0-0.01 5e-3c-3e-3 6e-3 -5e-3 0.015-5e-3 0.025 0 0.11 0.196 0.437 0.506 0.653 5e-3 -0.081 0.025-0.438 0.027-0.467-0.164-0.097-0.439-0.236-0.518-0.216" clip-path="url(#clipPath156768)" fill="#fff"/>
 <path transform="matrix(15.569 0 0 -15.569 112.58 210.27)" d="m0 0c-0.055-0.018-0.144-0.023-0.23-0.027-0.148-8e-3 -0.326-0.013-0.363-0.087-0.017-0.036-0.026-0.083 0.01-0.135 0.199-0.288 0.906-0.481 1.256-0.357 0.06 0.021 0.091 0.053 0.093 0.096 5e-3 0.178-0.62 0.455-0.746 0.509l-0.01 4e-3z" clip-path="url(#clipPath156770)" fill="#0f141b"/>
 <path transform="matrix(15.569 0 0 -15.569 105.11 213.62)" d="m0 0c-0.013 0.018-0.026 0.042-0.026 0.061 0 5e-3 1e-3 9e-3 3e-3 0.013 0.021 0.044 0.162 0.052 0.276 0.058 0.084 4e-3 0.17 0.01 0.232 0.028 0.296-0.128 0.704-0.349 0.704-0.452v-1e-3c-1e-3 -0.021-0.03-0.036-0.055-0.044-0.324-0.115-0.95 0.071-1.134 0.337" clip-path="url(#clipPath156772)" fill="#fff"/>
 <path transform="matrix(15.569 0 0 -15.569 119.06 214.33)" d="m0 0c-0.111-0.045-0.208-0.083-0.247-0.095-0.14-0.039-0.276-0.057-0.427-0.048 0.269-0.154 0.673-0.234 0.912-0.149 0.025 8e-3 0.054 0.023 0.055 0.044v2e-3c0 0.057-0.128 0.151-0.293 0.246" clip-path="url(#clipPath156774)" fill="#d3d2d2"/>
 <path transform="matrix(15.569 0 0 -15.569 108.73 201.18)" d="m0 0-0.144-0.109c-0.219-0.162-0.566-0.396-0.583-0.552-5e-3 -0.042 7e-3 -0.076 0.035-0.102 0.1-0.094 0.504-0.079 1.023 0.014 0.186 0.033 0.212 0.178 0.225 0.252 0.03 0.168-0.126 0.386-0.291 0.483-0.106 0.062-0.2 0.067-0.265 0.014" clip-path="url(#clipPath156776)" fill="#0f141b"/>
 <path transform="matrix(15.569 0 0 -15.569 112.41 202.16)" d="m0 0c0.146-0.086 0.29-0.281 0.265-0.424-0.015-0.082-0.085-0.135-0.209-0.157-0.374-0.067-0.78-0.131-0.871-0.046-0.012 0.012-0.018 0.026-0.018 0.045 0 3e-3 0 7e-3 1e-3 0.011 0.014 0.131 0.298 0.341 0.486 0.48l0.146 0.11c0.06 0.05 0.151 0.01 0.2-0.019" clip-path="url(#clipPath156778)" fill="#fff"/>
 <path transform="matrix(15.569 0 0 -15.569 99.69 211.87)" d="m0 0c1e-3 -1e-3 1e-3 -2e-3 2e-3 -3e-3 0.091-0.085 0.497-0.021 0.871 0.045 0.124 0.023 0.194 0.076 0.209 0.158 4e-3 0.021 3e-3 0.044 0 0.067-0.318-0.157-0.734-0.232-1.082-0.267" clip-path="url(#clipPath156780)" fill="#d3d2d2"/>
 <path transform="matrix(15.569 0 0 -15.569 141.21 150.13)" d="m0 0c-0.557-0.948-1.521-2.403-1.784-2.617-0.349-0.286-0.595-0.54-0.611-0.807-0.014-0.232 0.097-0.453 0.336-0.701 0.471-0.492 1.622-0.695 2.733-0.1 1.355 0.725 2.29 2.029 2.086 3.313-0.191 1.202-0.849 1.783-1.377 1.756-0.671-0.035-1.092-0.349-1.383-0.844" clip-path="url(#clipPath156782)" fill="#0f141b"/>
 <path transform="matrix(15.569 0 0 -15.569 111.44 213.58)" d="M 0,0 C -0.216,0.225 -0.314,0.431 -0.302,0.63 -0.288,0.864 -0.124,1.106 0.2,1.371 0.495,1.612 1.474,2.994 2.004,3.87 2.463,4.63 2.972,4.768 3.395,4.716 3.819,4.664 4.31,4.259 4.49,3.123 4.686,1.89 3.607,0.615 2.492,-0.004 1.439,-0.589 0.442,-0.461 0,0" clip-path="url(#clipPath156784)" fill="#88a3d4"/>
 <path transform="matrix(15.569 0 0 -15.569 181.34 164.96)" d="m0 0c-0.053 0.333-0.132 0.602-0.229 0.819 0.283-2.383-1.86-3.914-4.021-4.129 0.509-0.296 1.361-0.312 2.252 0.183 1.115 0.619 2.194 1.894 1.998 3.127" clip-path="url(#clipPath156786)" fill="#778db8"/>
 <path transform="matrix(15.569 0 0 -15.569 33.761 120.05)" d="m0 0c-0.156-1.131-0.045-1.461 0.744-1.889 1.345-0.728 3.212-1.04 4.522-0.336 1.568 0.843 2.435 2.224 2.317 3.718-0.102 1.285-0.728 2.252-0.806 2.357-0.395 0.526-1.694 1.437-3.399 1.306-1.72-0.133-3.215-1.288-3.55-2.784-0.225-1.008-0.073-1.412 0.038-1.757 0.059-0.187 0.162-0.413 0.134-0.615" clip-path="url(#clipPath156788)" fill="#0f141b"/>
 <path transform="matrix(15.569 0 0 -15.569 48.103 148.71)" d="m0 0c-0.789 0.41-0.945 0.856-0.818 1.765l8e-3 0.061c0.032 0.227-0.021 0.394-0.083 0.586-0.106 0.332-0.238 0.744-0.02 1.722 0.324 1.449 1.718 2.551 3.389 2.679 1.656 0.128 2.743-0.698 3.124-1.206 0.076-0.102 0.749-1.031 0.848-2.284 0.115-1.447-0.695-2.748-2.222-3.569-1.456-0.782-3.341-0.213-4.226 0.246" clip-path="url(#clipPath156790)" fill="#88a3d4"/>
 <path transform="matrix(15.569 0 0 -15.569 148.49 96.975)" d="m0 0c-0.099 1.253-0.772 2.182-0.849 2.284-0.257 0.343-0.836 0.83-1.695 1.072 1.792-1.613 2.475-4.487 0.95-6.38-0.144-0.171-0.305-0.323-0.476-0.461 1.428 0.824 2.181 2.086 2.07 3.485" clip-path="url(#clipPath156792)" fill="#778db8"/>
 <path transform="matrix(15.569 0 0 -15.569 52.427 131.31)" d="m0 0c-0.319 0.032-0.614 0.358-0.684 0.572-0.103 0.314-0.178 0.803-0.178 1.111 0 0.209 0.112 0.437 0.138 0.539 0.159-0.197 0.665-0.805 0.86-0.987 0.047-0.16 0.086-0.452 0.086-0.677 0-0.094-0.024-0.231-0.052-0.348-0.019-0.08-0.135-0.213-0.17-0.21" clip-path="url(#clipPath156794)" fill="#fff"/>
 <path transform="matrix(15.569 0 0 -15.569 94.037 108.59)" d="m0 0c0.252 0.214 0.942 0.812 1.13 0.878 0.114-0.07 0.221-0.354 0.221-0.697 0-0.676-0.054-1.077-0.353-1.415-0.171-0.258-0.759-0.181-0.976 0.089-0.149 0.148-0.203 0.668-0.203 0.947 0 0.016 0.104 0.133 0.181 0.198" clip-path="url(#clipPath156796)" fill="#fff"/>
 <g fill="#0f141b">
  <path transform="matrix(15.569 0 0 -15.569 59.286 111.64)" d="m0 0c0.028-0.062 0.072-0.016 0.052 0.049-0.025 0.086-0.036 0.139-0.053 0.207s-0.116 0.05-0.089-0.022 0.054-0.153 0.09-0.234" clip-path="url(#clipPath156798)"/>
  <path transform="matrix(15.569 0 0 -15.569 82.6 107.97)" d="m0 0c3e-3 -0.102 0.029-0.218 0.093-0.289 0.054-0.06 0.056-0.03 0.048 0.029-9e-3 0.06-0.055 0.191-0.063 0.276-7e-3 0.085-0.081 0.086-0.078-0.016" clip-path="url(#clipPath156800)"/>
  <path transform="matrix(15.569 0 0 -15.569 45.128 141.36)" d="m0 0c0.182-0.292 0.376-0.462 0.414-0.468 0.072-0.012 0.215 0.186 0.252 0.261l-0.041 0.025-0.019 0.014c-0.122 0.092-0.514 0.211-0.53 0.216l-0.072 0.022z" clip-path="url(#clipPath156802)"/>
 </g>
 <path transform="matrix(15.569 0 0 -15.569 47.192 141.82)" d="m0 0c0.112-0.037 0.322-0.109 0.418-0.171-0.05-0.088-0.118-0.191-0.145-0.196-0.032 0.023-0.165 0.197-0.273 0.367" clip-path="url(#clipPath156804)" fill="#fff"/>
 <path transform="matrix(15.569 0 0 -15.569 112.91 141.66)" d="m0 0-0.252-0.049c-0.153-0.032-0.343-0.072-0.409-0.072h-0.019l-0.09-0.031c-0.03-0.07 0.36-0.432 0.486-0.432s0.329 0.404 0.36 0.531c8e-3 0.032-0.037 0.025-0.05 0.042l-0.01 0.014z" clip-path="url(#clipPath156806)" fill="#0f141b"/>
 <path transform="matrix(15.569 0 0 -15.569 109.16 143.28)" d="m0 0s0.178 0.035 0.221 0.043c-0.01-0.087-0.225-0.407-0.281-0.437-0.053 2e-3 -0.287 0.239-0.325 0.324 0.085 8e-3 0.241 0.04 0.385 0.07" clip-path="url(#clipPath156808)" fill="#fff"/>
 <g fill="#0f141b">
  <path transform="matrix(15.569 0 0 -15.569 59.146 140.38)" d="m0 0c9e-3 -0.045 0.054-0.117 0.099-0.144s0.09-0.027 0.063 0.036-0.063 0.089-0.09 0.148-0.081 5e-3 -0.072-0.04" clip-path="url(#clipPath156810)"/>
  <path transform="matrix(15.569 0 0 -15.569 71.076 143.19)" d="m0 0c-0.01-0.045 0.017-0.072 0.071-0.027s0.072 0.09 0.117 0.135 0.07 0.134-0.042 0.076c-0.111-0.058-0.136-0.139-0.146-0.184" clip-path="url(#clipPath156812)"/>
  <path transform="matrix(15.569 0 0 -15.569 111.63 94.927)" d="m0 0c-0.292-0.159-0.532-0.375-0.709-0.525l-0.094-0.051c-0.086-0.19-0.095-0.395-0.095-0.569 0-0.571 0.27-1.084 0.577-1.084 0.293 0 0.663 0.615 0.663 1.291 0 0.407-0.064 0.729-0.207 0.998l-0.116-0.049z" clip-path="url(#clipPath156814)"/>
 </g>
 <path transform="matrix(15.569 0 0 -15.569 111.63 94.927)" d="m0 0c0.098-0.123 0.178-0.533 0.178-0.938 0-0.511-0.245-1.209-0.473-1.209-0.237 0-0.48 0.473-0.48 1.065 0 0.166 0.042 0.371 0.078 0.521 0.17 0.144 0.42 0.409 0.697 0.561" clip-path="url(#clipPath156816)" fill="#ba5400"/>
 <path transform="matrix(15.569 0 0 -15.569 46.462 103.37)" d="m0 0c-0.256-0.523 0.023-1.845 0.404-1.798 0.151 0.019 0.257 0.299 0.259 0.63 0 0.471-0.075 0.591-0.075 0.591l-0.039 0.025c-0.121 0.154-0.251 0.291-0.366 0.412l-0.129 0.136z" clip-path="url(#clipPath156818)" fill="#0f141b"/>
 <path transform="matrix(15.569 0 0 -15.569 46.9 117.05)" d="m0 0c-0.014 0.117-0.022 0.229-0.022 0.333 0 0.181 0.023 0.334 0.066 0.442 0.03-0.032 0.07-0.075 0.07-0.075 0.113-0.118 0.241-0.253 0.358-0.403 3e-3 -0.013 0.015-0.078 0.015-0.078l0.03-0.155c0.015-0.121 0.022-0.235 0.022-0.339 0-0.345-0.076-0.576-0.17-0.588-0.122-0.015-0.304 0.336-0.369 0.863" clip-path="url(#clipPath156820)" fill="#ba5400"/>
 <g fill="#0f141b">
  <path transform="matrix(15.569 0 0 -15.569 51.679 109.3)" d="m0 0c-0.125-0.02-0.157-0.303-0.124-0.573 0.029-0.239 0.101-0.433 0.184-0.494 0.03-0.022 0.058-0.024 0.075-0.021 0.125 0.019 0.157 0.303 0.124 0.573-0.029 0.239-0.101 0.432-0.184 0.494-0.03 0.022-0.058 0.024-0.075 0.021" clip-path="url(#clipPath156822)"/>
  <path transform="matrix(15.569 0 0 -15.569 103.12 112.07)" d="m0 0c0-0.326 0.093-0.672 0.264-0.672 0.172 0 0.265 0.346 0.265 0.672s-0.093 0.672-0.265 0.672c-0.171 0-0.264-0.346-0.264-0.672" clip-path="url(#clipPath156824)"/>
  <path transform="matrix(15.569 0 0 -15.569 142.5 36.002)" d="m0 0c-0.929-1.16-1.489-3-0.747-3.807 0.281-0.306 0.592-0.536 0.934-0.509 0.383 0.029 0.724 0.278 0.897 0.486 0.28 0.336 0.266 0.946 0.243 0.99 0.619 0.524 1.644 1.868 1.244 2.58 0.071 0.196 0.213 0.639 0.307 1.176 0.244 1.407-1.733 0.513-2.878-0.916" clip-path="url(#clipPath156826)"/>
 </g>
 <path transform="matrix(15.569 0 0 -15.569 132.16 94.081)" d="m0 0c-0.691 0.752-0.138 2.558 0.799 3.609 1.005 1.128 2.119 1.622 2.476 1.48 0.233-0.093 0.039-1.098-0.155-1.606l-0.012-0.032 0.022-0.026c0.045-0.05 0.064-0.142 0.054-0.263-0.049-0.6-0.596-1.656-1.193-2.141 0 0 0 0.168-0.056 0.355-0.057 0.187-0.15 0.131-0.131-0.075 0.018-0.205 0.077-0.871-0.173-1.246-0.13-0.196-0.427-0.419-0.771-0.446-0.31-0.024-0.599 0.108-0.86 0.391" clip-path="url(#clipPath156828)" fill="#afcee5"/>
 <path transform="matrix(15.569 0 0 -15.569 132.16 94.081)" d="m0 0c-0.691 0.752-0.138 2.558 0.799 3.609 1.005 1.128 2.119 1.622 2.476 1.48 0.233-0.093 0.039-1.098-0.155-1.606l-0.012-0.032 0.022-0.026c0.045-0.05 0.064-0.142 0.054-0.263-0.049-0.6-0.596-1.656-1.193-2.141 0 0 0 0.168-0.056 0.355-0.057 0.187-0.15 0.131-0.131-0.075 0.018-0.205 0.077-0.871-0.173-1.246-0.13-0.196-0.427-0.419-0.771-0.446-0.31-0.024-0.599 0.108-0.86 0.391" clip-path="url(#clipPath156830)" fill="#afcee5"/>
 <path transform="matrix(15.569 0 0 -15.569 151.01 46.571)" d="m0 0c-0.564-0.733-1.008-2.151-0.665-2.351 0.365-0.214 1.087 1.685 1.22 2.24s1.242 1.664 0.843 1.686c-0.501-0.393-1.04-1.039-1.398-1.575" clip-path="url(#clipPath156832)" fill="#93aec1"/>
 <path transform="matrix(15.569 0 0 -15.569 137.97 78.165)" d="m0 0s0.076-0.506 0.112 8e-3c0.104 1.448 1.842 3.319 2.001 3.449 0.158 0.129 0.283 0.324-0.06 0.096-0.342-0.228-2.155-2.165-2.053-3.553" clip-path="url(#clipPath156834)" fill="#0f141b"/>
 <path transform="matrix(15.569 0 0 -15.569 158.9 234.29)" d="m0 0c-0.331-0.63-0.375-1.297-0.066-1.652 0.222-0.255 0.424-0.445 0.591-0.623 0.398-0.424 0.691-0.638 0.73-0.948 0.016-0.133-0.025-0.208-0.049-0.408-0.023-0.2-0.021-0.316 0.067-0.411 0.06-0.063 0.147-0.083 0.289-0.083 0.414 0 0.743 0.062 0.831 0.079 0.164-0.124 0.822-0.621 1.03-0.434 0.165 0.148 0.463 0.527 0.552 0.621 0.366-0.18 0.77-0.303 0.881-0.34 0.17-0.056 0.227 0.027 0.22 0.16-0.012 0.244-0.052 0.252-0.17 0.613l-0.142 0.34c-0.011 0.042-4e-3 0.226-0.013 0.348-0.033 0.45-0.025 1.187-0.563 2.139-0.624 1.104-1.507 1.899-2.191 1.976-0.741 0.084-1.613-0.645-1.997-1.377" clip-path="url(#clipPath156836)" fill="#0f141b"/>
 <path transform="matrix(15.569 0 0 -15.569 180.77 295.44)" d="m0 0c-0.055 0.059-0.02 0.575-0.038 0.719-0.044 0.346-0.272 0.589-0.686 1.03-0.167 0.177-0.355 0.378-0.576 0.632-0.277 0.319-0.258 0.86 0.05 1.448 0.367 0.698 1.131 1.399 1.822 1.321 0.725-0.082 1.661-1.255 2.004-1.924 0.394-0.766 0.605-1.587 0.667-2.321 0.016-0.197 0.323-0.939 0.259-1.008-0.063-0.07-0.872 0.261-0.872 0.261s0.015 0.143-0.114 0.016c-0.13-0.126-0.385-0.403-0.574-0.573-0.107-0.096-0.695 0.238-0.842 0.361-0.147 0.122-0.419-0.02-0.887-0.02-0.107 0-0.177 0.019-0.213 0.058" clip-path="url(#clipPath156838)" fill="#88a3d4"/>
 <path transform="matrix(15.569 0 0 -15.569 209.73 297.63)" d="m0 0c-0.12 0-0.666 0.247-0.786 0.298-0.121 0.052-0.482-0.017-0.672 0-0.189 0.018-0.155 0.414-0.206 0.844-0.048 0.398-0.934 1.457-1.68 2.132-0.039-0.303 0.022-0.566 0.184-0.752 0.22-0.254 0.409-0.455 0.576-0.632 0.414-0.441 0.642-0.684 0.685-1.031 0.018-0.143-0.016-0.66 0.039-0.718 0.036-0.039 0.106-0.058 0.213-0.058 0.467 0 0.74 0.142 0.887 0.02 0.147-0.123 0.735-0.458 0.842-0.361 0.188 0.169 0.443 0.446 0.573 0.573s0.115-0.016 0.115-0.016 0.808-0.331 0.872-0.262c0.01 0.011 0.011 0.037 6e-3 0.073-0.349 0.051-0.867 0.326-0.954 0.326-0.103 0-0.573-0.436-0.694-0.436" clip-path="url(#clipPath156840)" fill="#778db8"/>
 <path transform="matrix(15.569 0 0 -15.569 110.38 141.95)" d="m0 0c-0.298-0.063-2.078-0.26-2.252-0.269-0.174-8e-3 -0.455-0.192-0.535-0.19s-0.193 0.111-0.281 0.173c-0.088 0.063-0.61 0.24-0.862 0.324-0.108 0.036-0.243 0.074-0.329 0.181-0.085 0.107-0.162 0.09-0.11-0.023s0.125-0.179 0.388-0.239c0.251-0.057 0.816-0.261 0.888-0.324s0.279-0.279 0.388-0.234c0.108 0.045 0.405 0.207 0.522 0.225s1.941 0.21 2.206 0.266c0.282 0.059 0.549 0.148 0.747 0.457 0.07 0.11-7e-3 0.164-0.107 0.035-0.1-0.128-0.385-0.323-0.663-0.382" clip-path="url(#clipPath156842)" fill="#0f141b"/>
 <path transform="matrix(15.569 0 0 -15.569 46.07 131.97)" d="m0 0c-0.013-0.075-0.148-0.114-0.301-0.087s-0.266 0.11-0.253 0.186c0.014 0.075 0.149 0.114 0.302 0.087 0.152-0.027 0.265-0.111 0.252-0.186" clip-path="url(#clipPath156844)" fill="#5084c4"/>
 <path transform="matrix(15.569 0 0 -15.569 126.48 127.44)" d="m0 0c0.027-0.091-0.15-0.225-0.396-0.298-0.246-0.074-0.467-0.059-0.495 0.032-0.027 0.091 0.15 0.225 0.396 0.298 0.246 0.074 0.468 0.059 0.495-0.032" clip-path="url(#clipPath156846)" fill="#5084c4"/>
 <path transform="matrix(15.569 0 0 -15.569 112.53 105.84)" d="m0 0c0-0.174-0.123-0.315-0.275-0.315s-0.275 0.141-0.275 0.315 0.123 0.315 0.275 0.315 0.275-0.141 0.275-0.315" clip-path="url(#clipPath156848)" fill="#fff"/>
 <path transform="matrix(15.569 0 0 -15.569 51.689 112.75)" d="m0 0c0-0.109-0.073-0.198-0.163-0.198s-0.163 0.089-0.163 0.198 0.073 0.198 0.163 0.198 0.163-0.089 0.163-0.198" clip-path="url(#clipPath156850)" fill="#fff"/>
 <g fill="#0f141b">
  <path transform="matrix(15.569 0 0 -15.569 76.078 159.16)" d="m0 0s0.826-0.643 0.918-0.643 1.067 0.735 1.067 0.735-0.688-0.126-1.113-0.126c-0.424 0-0.872 0.034-0.872 0.034" clip-path="url(#clipPath156852)"/>
  <path transform="matrix(15.569 0 0 -15.569 55.844 113.68)" d="m0 0c0.112-0.075 0.132-0.027 0.02 0.103-0.108 0.126-1.004 1.138-1.073 1.211-0.107 0.114-0.127 0.03-0.08-0.046 0.063-0.103 0.112-0.192 0.112-0.192-0.147-0.145-0.198-0.95 0.085-1.673 0.032-0.083 0.098-0.096 0.069 0.031-0.209 0.91-0.157 1.358-0.054 1.545 0.159-0.197 0.499-0.572 0.921-0.979" clip-path="url(#clipPath156854)"/>
  <path transform="matrix(15.569 0 0 -15.569 92.025 111.58)" d="m0 0c0.035 0.042 1.426 1.105 1.508 1.185 0.099 0.097 0.086 0.163-0.072 0.072-0.181-0.104-0.915-0.636-1.387-1.036-0.078-0.066-0.204-0.164-0.288-0.234-0.071-0.059-0.045-0.087 0.118-0.039-0.042-0.267 0.044-0.66 0.233-0.892 0.039-0.055 0.089-0.043 0.064 7e-3 -0.112 0.237-0.21 0.656-0.176 0.937" clip-path="url(#clipPath156856)"/>
 </g>
</svg>
