<?xml version="1.0" encoding="UTF-8"?>
<!-- Created with Inkscape (http://www.inkscape.org/) -->
<svg version="1.1" viewBox="0 0 158.11 160.35" xmlns="http://www.w3.org/2000/svg">
 <g transform="translate(-6.5477 -23.801)">
  <g transform="matrix(.51711 0 0 -.51711 83.065 89.649)">
   <path d="m0 0c-2.089 0.879-4.455 1.592-7.011 2.15-12.267 2.682-28.83 1.854-39.344-0.95-35.272-9.407-54.999-33.036-60.905-54.039-2.063-7.331-2.964-15.535-2.857-23.456 0.026-1.887 0.108-3.754 0.246-5.593-7.262-1.573-18.745-2.037-20.584-1.934-2.845 0.157-6.17-0.471-1.739-4.906 6.819-6.818 17.352-10.605 26.135-11.76 1.14-2.99 2.501-5.556 4.07-7.536 11.965-15.099 15.174-12.729 14.229-5.82-0.219 1.597-0.658 3.431-1.261 5.352-1.397 4.437-1.538 9.513-0.585 14.593 0.359 1.92 0.875 3.834 1.541 5.718 0.993 2.81 6.155 11.255 7.439 12.692 4.792 5.381 10.643 8.744 16.777 9.506 3.354 0.415 15.93-0.282 18.675-0.362 4.234-0.122 8.916-0.039 14.18 0.645 0.245 1.072 0.58 2.132 0.801 3.234 3.973 19.916 28.314 58.559 30.193 62.466" fill="#dae7ed"/>
  </g>
  <g transform="matrix(.51711 0 0 -.51711 45.094 125.55)">
   <path d="m0 0c1.806-3.782 8.105-8.677 9.554-9.091 1.757-0.501 4.539 1.252 4.227 3.747-0.182 1.454-3.194 3.747-4.202 8.779-2.264-0.282-4.416-0.821-6.513-1.786-1.06-0.488-2.079-1.042-3.066-1.649" fill="#fff"/>
  </g>
  <g transform="matrix(.51711 0 0 -.51711 42.838 136.07)">
   <path d="m0 0c4.007 0.642 3.075 1.442 0.961 2.787-2.442 1.555-5.165 3.988-7.287 6.885-1.633-2.545-2.954-5.281-3.948-8.091 3.138-1.616 8.027-1.941 10.274-1.581" fill="#fff"/>
  </g>
  <g transform="matrix(.51711 0 0 -.51711 41.372 128.69)">
   <path d="m0 0c-1.283-1.437-2.452-2.978-3.491-4.601 2.122-2.896 4.845-5.33 7.287-6.884 2.114-1.345 3.046-2.146-0.961-2.787-2.247-0.361-7.136-0.036-10.274 1.581-0.666-1.885-1.181-3.799-1.541-5.719 4.152-4.889 17.116-14.993 36.19-14.195-11.551 9.569-20.955 20.614-27.21 32.605" fill="#0f141b"/>
  </g>
  <g transform="matrix(.51711 0 0 -.51711 145.75 26.487)">
   <path d="m0 0c-13.768 9.603-25.146-2.515-24.676-10.815 10.271-3.405 19.698-9.648 26.462-18.532 8.773-1.017 12.296 19.525-1.786 29.347" fill="#f4b3c1"/>
  </g>
  <g transform="matrix(.51711 0 0 -.51711 59.356 126.45)">
   <path d="m0 0c0.2 1.096 0.561 3.512 0.675 4.826-2.745 0.08-5.302 0.243-7.709 0.384 1.905-3.338 6.804-6.48 7.034-5.21" fill="#fff"/>
  </g>
  <g transform="matrix(.51711 0 0 -.51711 69.496 105.41)">
   <path d="m 0,0 c 4.686,0.585 10.222,3.198 12.146,3.843 2.7,4.855 5.568,9.982 8.542,15.629 C 16.17,15.944 1.712,4.991 -1.324,2.229 -0.927,1.477 -0.483,0.708 0,0" fill="#fff"/>
  </g>
  <g transform="matrix(.51711 0 0 -.51711 148.61 62.887)">
   <path d="m0 0c0.611-1.85 1.326-3.236 1.587-3.83 1.003-2.28 1.803-2.269 3.275-0.524 0.578 0.687 1.357 2.096 2.028 3.497-2.208-0.081-4.473 0.36-6.89 0.857" fill="#fff"/>
  </g>
  <g transform="matrix(.51711 0 0 -.51711 159.72 57.611)">
   <path d="m0 0c-0.235 1.488-1.59 4.584-2.489 5.808-2.635 3.594-3.442 2.65-4.025-1.783 1.116-1.821 1.845-4.054 1.829-6.255 2.839-0.875 4.283 0.51 4.685 1.556 0.055 0.141 0.048 0.379 0 0.674" fill="#fff"/>
  </g>
  <g transform="matrix(.51711 0 0 -.51711 116.46 42.974)">
   <path d="m0 0c-13.192-1.799-20.189-26.454-1.727-32.632 6.546 3.628 12.754 7.74 18.576 11.648 0.625 11.157-6.486 22.397-16.849 20.984" fill="#fff"/>
  </g>
  <g transform="matrix(.51711 0 0 -.51711 141.05 39.751)">
   <path d="m0 0c-5.064 0-3.241-11.732 0.442-15.173 5.453-0.175 9.793-1.812 12.923-3.876 0.323-0.213 0.668-0.423 1.008-0.634-1.002 9.744-8.818 19.683-14.373 19.683" fill="#fff"/>
  </g>
  <g transform="matrix(.51711 0 0 -.51711 148.06 73.259)">
   <path d="m0 0c-1.532 4.617-6.138 10.525-1.442 20.554-2.468 0.46-5.103 0.809-8 0.586-3.323-0.256-7.286-1.444-11.388-3.08 15.919-6.155 19.472-24.485 12.463-30.892 5.256 2.302 8.473 6.009 8.81 10.022 0.074 0.895-0.115 1.824-0.443 2.81" fill="#922f00"/>
  </g>
  <g transform="matrix(.51711 0 0 -.51711 130.66 67.069)">
   <path d="m0 0c0.74-1.042 1.628-1.852 2.188-2.357 1.378-1.239 1.68-1.018 2.293 0.655 0.585 1.598 1.074 3.036 1.346 4.675-1.997-0.968-3.954-1.976-5.827-2.973" fill="#fff"/>
  </g>
  <g transform="matrix(.51711 0 0 -.51711 159.72 57.959)">
   <path d="m0 0c-0.402-1.046-1.846-2.432-4.685-1.556-0.024-3.431-1.862-6.778-6.91-8.345-0.996-0.308-1.996-0.446-3.008-0.485-0.671-1.401-1.45-2.81-2.028-3.496-1.472-1.745-2.272-1.757-3.275 0.523-0.261 0.594-0.976 1.981-1.587 3.83-0.816 0.168-1.65 0.337-2.503 0.497-4.696-10.029-0.09-15.937 1.442-20.554 4.635-3.439 5.498-11.356 0.411-17.952-0.903-1.172-1.945-2.211-3.089-3.136 3.459-9.766 6.226-19.173 8.251-28.29 22.552 14.163 34.141 51.379 16.981 79.638 0.048-0.296 0.055-0.533 0-0.674" fill="#f4b3c1"/>
  </g>
  <g transform="matrix(.51711 0 0 -.51711 137.29 63.92)">
   <path d="m0 0c-2.318-0.924-4.681-1.991-7-3.117-0.271-1.639-0.76-3.076-1.345-4.675-0.613-1.672-0.915-1.894-2.293-0.655-0.56 0.505-1.448 1.315-2.188 2.357-6.047-3.221-11.161-6.307-13.424-7.404-1.674-0.812-3.265-1.434-4.771-1.894 5.56-9.131 19.899-18.758 33.555-17.818 3.808 0.262 7.148 1.095 9.929 2.314 7.009 6.407 3.456 24.737-12.463 30.892" fill="#ed8599"/>
  </g>
  <g transform="matrix(.51711 0 0 -.51711 156.35 55.53)">
   <path d="m0 0c-0.683 1.116-1.507 2.078-2.393 2.78-2.437 1.933-4.952 3.477-7.343 4.86-1.952 1.13-3.809 2.152-5.484 3.19-0.34 0.21-0.685 0.42-1.007 0.633-3.13 2.064-7.471 3.702-12.923 3.876-7.151 0.23-16.217-2.064-26.983-9.247-1.364-0.91-2.761-1.849-4.174-2.797-5.822-3.908-12.03-8.02-18.575-11.648-2.045-1.132-4.111-2.23-6.218-3.242-14.02-6.736-14.233-20.256-2.585-26.257 9.488-4.887 29.943-17.23 38.324-20.237 11.41-4.093 23.295-3.232 30.643 2.716 1.144 0.926 2.185 1.964 3.089 3.136 5.087 6.596 4.224 14.513-0.411 17.952 0.328-0.986 0.517-1.915 0.443-2.81-0.337-4.013-3.554-7.72-8.81-10.022-2.781-1.219-6.121-2.051-9.929-2.313-13.656-0.941-27.995 8.686-33.555 17.818 1.506 0.459 3.097 1.082 4.771 1.894 2.263 1.096 7.377 4.183 13.424 7.404 1.872 0.997 3.83 2.005 5.826 2.973 2.319 1.125 4.682 2.192 7 3.116 4.102 1.636 8.065 2.824 11.388 3.08 2.897 0.224 5.532-0.126 8-0.585 0.853-0.161 1.687-0.33 2.503-0.498 2.416-0.496 4.682-0.938 6.89-0.857 1.011 0.039 2.012 0.177 3.007 0.485 5.048 1.567 6.887 4.914 6.911 8.345 0.016 2.201-0.714 4.434-1.829 6.255" fill="#fff2ad"/>
  </g>
  <g transform="matrix(.51711 0 0 -.51711 153.03 115.5)">
   <path d="m0 0c-0.185 10.433-1.551 21.159-4.031 32.316-2.025 9.117-4.792 18.524-8.25 28.29-7.348-5.948-19.233-6.809-30.643-2.716-8.381 3.007-28.836 15.35-38.324 20.237-11.648 6.001-11.435 19.521 2.585 26.257 2.107 1.012 4.173 2.11 6.218 3.242-18.463 6.178-11.466 30.833 1.726 32.632 10.364 1.413 17.474-9.826 16.849-20.984 1.413 0.948 2.81 1.887 4.174 2.797 10.766 7.183 19.832 9.477 26.983 9.247-3.683 3.441-5.507 15.173-0.442 15.173 5.555 0 13.371-9.939 14.372-19.682 1.675-1.038 3.532-2.06 5.484-3.19-1.725 7.343-4.857 13.752-8.986 19.175-6.763 8.884-16.191 15.127-26.462 18.532-16.738 5.547-35.707 3.547-49.017-6.88-8.469 16.168-28.204 16.65-38.404 1.65-8.066-11.861-2.576-27.856 9.463-30.826 0.654-0.162 1.287-0.28 1.909-0.376-2.92-10.758-1.147-26.886-9.887-50.081-3.545-9.409-7.114-17.55-10.607-24.815-1.879-3.907-3.735-7.555-5.552-11.011-2.973-5.647-5.842-10.774-8.542-15.629-6.825-12.27-12.565-22.832-16.099-35.826-0.295-1.086-0.556-2.162-0.801-3.234-5.934-26.076 3.299-47.807 21.61-67.757 1.089-1.186 2.209-2.367 3.361-3.539-6.53-4.408-10.363-9.89-2.821-18.538 7.67-8.79 31.288-21.994 37.551-22.065-1.771 0.746-3.104 1.551-3.417 2.346-3.237 8.239 7.058 14.121 12.647 9.123 1.06-0.951 2.426-2.703 3.776-4.622 0.314 0.138 0.668 0.297 0.992 0.442-0.082 0.095-0.163 0.189-0.208 0.281-4.119 8.236 5.212 12.451 10.001 9.046 1.074-0.768 2.205-1.874 3.288-3.089-1.269 5.417-12.588 17.553-15.942 21.136 1.318 0.533 2.765 1.203 4.291 2.029 2.49 1.352 5.177 3.118 7.801 5.328 3.94 3.317 7.727 7.662 10.492 13.168 1.942 3.869 3.383 8.303 4.003 13.372 0.228 1.868 0.279 3.796 0.179 5.761-0.465 9.123-4.424 19.03-11.49 27.315-4.421 5.184-10.056 9.732-16.811 13.05 1.308 1.844 2.506 3.149 3.994 6.621 6.7-6.552 14.542-11.769 23.178-15.041 0.093-0.035 0.186-0.064 0.279-0.1 0 5e-3 -2e-3 0.01 0 0.016 0.226 1.579 5.491 1.266 6.598-0.582 0.098-0.16 0.122-0.471 0.094-0.889 2.255-0.121 4.371 0.181 6.256 0.932-0.128 0.143-0.211 0.258-0.224 0.328-0.744 3.816 4.138 5.087 5.441 3.816 0.737 1.052 1.35 2.275 1.825 3.674 0.593 1.75 0.971 3.769 1.081 6.088v0.012c0.059 1.246 0.02 2.548-0.091 3.885 12.292-3.219 38.867-2.739 48.55 4.155" fill="#f4b3c1"/>
  </g>
  <g transform="matrix(.51711 0 0 -.51711 35.489 61.23)">
   <path d="m0 0c-3.058 2.86-6.158 6.259-9.406 10.273-2.455 3.033-4.994 6.404-7.672 10.174-3.616 5.09-8.932 9.681-13.79-1.079-1.452-3.211-2.654-7.07-3.538-11.243-4.923 0.49-9.717 1.489-12.216 2.161-1.899 0.512-4.4 1.9-2.478-2.478 1.897-4.322 7.279-10.382 13.039-14.19-0.135-7.094 0.752-14.064 2.963-19.591 4.215 5.712 9.569 10.6 15.465 13.998 7.125 4.109 15.364 6.498 23.533 7.09-1.971 1.419-3.928 3.04-5.9 4.885" fill="#dae7ed"/>
  </g>
  <g transform="matrix(.51711 0 0 -.51711 153.03 115.5)">
   <path d="m0 0c-9.683-6.894-36.258-7.374-48.55-4.155 0.111-1.337 0.15-2.639 0.091-3.885 1.278-1.249 4.419-4.82 4.219-5.355-0.303-0.81-3.799-0.794-5.3-0.745-0.475-1.399-1.088-2.622-1.825-3.674 0.086-0.082 0.155-0.174 0.208-0.278 0.317-0.634 0.37-4.595 0.37-5.915 0-1.714 0-2.532-1.373-1.584-1.219 0.846-3.675 2.787-4.422 3.633-1.885-0.751-4.001-1.053-6.256-0.932-0.09-1.25-0.673-3.453-1.307-5.393-0.307-0.938-0.572-1.467-0.822-1.698-0.266-0.245-0.516-0.159-0.783 0.134-0.263 0.291-0.545 0.778-0.877 1.353-0.316 0.551-3.039 5.921-2.903 7.059-0.093 0.036-0.186 0.065-0.279 0.1-8.636 3.272-16.478 8.489-23.178 15.041-1.488-3.472-2.686-4.777-3.994-6.621 6.755-3.318 12.39-7.866 16.811-13.05 7.066-8.285 11.025-18.192 11.49-27.315 0.1-1.965 0.049-3.893-0.179-5.761-0.62-5.069-2.061-9.503-4.003-13.372-2.765-5.506-6.552-9.851-10.492-13.168-2.624-2.21-5.311-3.976-7.801-5.328 12.964 0.596 26.488 2.79 38.991 7.245 10.636 3.787 20.528 9.207 28.702 16.672 6.081 5.552 11.205 12.239 14.98 20.219 1.728 3.65 3.18 7.562 4.303 11.771 1.073 4.024 1.929 8.072 2.587 12.151 1.151 7.125 1.681 14.346 1.613 21.712-4e-3 0.379-0.014 0.76-0.021 1.139" fill="#fff2ad"/>
  </g>
  <g transform="matrix(.51711 0 0 -.51711 67.038 123.62)">
   <path d="m0 0c-5.265-0.684-9.946-0.767-14.181-0.645-0.113-1.314-0.475-3.73-0.674-4.826-0.231-1.27-5.13 1.872-7.034 5.21-4.015 0.232-7.612 0.393-10.966-0.022 1.008-5.032 4.02-7.325 4.202-8.779 0.312-2.495-2.47-4.248-4.227-3.747-1.449 0.414-7.748 5.309-9.554 9.091-2.694-1.653-5.104-3.718-7.199-6.072 6.255-11.991 15.659-23.036 27.211-32.605 9.678-8.019 20.857-15.006 32.943-20.656 3.619-1.692 7.322-3.261 11.088-4.706-18.31 19.95-27.543 41.68-21.609 67.757" fill="#f4b3c1"/>
  </g>
  <g transform="matrix(.51711 0 0 -.51711 153.04 116.09)">
   <path d="m0 0c0.068-7.366-0.462-14.586-1.613-21.711-0.658-4.08-1.514-8.127-2.587-12.152-1.123-4.209-2.575-8.121-4.303-11.771-3.775-7.98-8.899-14.667-14.98-20.219-11.393-10.403-21.1-14.441-26.282-15.997-0.504-3.728-2.852-7.484-0.039-10.298 2.769-2.768 27.94-4.404 41.117-3.796-0.167 0.093 0.399 0.697 0.291 0.804-2.985 2.982-1.25 10.737 6.104 11.177 1.416 0.087 3.259-0.487 5.17-1.382-1.828 4.927 2.838 8.698 5.198 7.429 0.91-0.491-10.3 5.432-13.866 6.69 31.12 19.485 35.243 50.008 5.79 71.226" fill="#f4b3c1"/>
  </g>
  <g transform="matrix(.51711 0 0 -.51711 161.74 159.89)">
   <path d="m0 0c-2.099 1.521-3.937 2.838-5.805 4.021-0.867 0.55-1.74 1.079-2.651 1.57-2.358 1.268-7.32-1.31-5.492-6.237 2.681-1.257 5.492-3.163 7.444-4.841 11.483 0.398 9.879 3.049 6.504 5.487" fill="#fff"/>
  </g>
  <g transform="matrix(.51711 0 0 -.51711 47.468 114.92)">
   <path d="m0 0c2.214-0.318 21.832 7.867 29.889 14.073-0.419 0.549-1.055 1.953-1.479 2.867-4.38-0.343-25.669-2.423-36.148-3.452 0.908-3.092 5.674-13.193 7.738-13.488" fill="#fff"/>
  </g>
  <g transform="matrix(.51711 0 0 -.51711 49.653 65.316)">
   <path d="m0 0c-1.298 6.042-3.58 10.629-6.714 14.438-3.569 4.341-5.218 3.44-5.218-0.119 0-2.752 0.14-6.252-0.897-11.368-2.843 0.25-5.746 0.279-8.661 0.066-8.169-0.592-16.408-2.981-23.533-7.09-5.896-3.398-11.25-8.286-15.465-13.998-4.258-5.77-7.353-12.38-8.675-19.15-4.125 1.003-7.642 2.535-9.544 3.032-2.728 0.711-4.498 1.042-2.016-4.033 2.131-4.359 6.949-9.82 11.487-12.648 1.296-6.466 4.647-12.651 10.606-17.935 5.404 18.111 17.408 35.636 35.654 43.922 12.624 5.734 26.86 7.767 41.314 6.161-2.932 9.12-9.757 15.316-18.338 18.722" fill="#dae7ed"/>
  </g>
  <g transform="matrix(.51711 0 0 -.51711 75.042 80.811)">
   <path d="m0 0c-4.042 3.748-9.426 6.464-16.479 8.473-1.646 0.468-3.38 0.901-5.213 1.298-3.024 0.652-6.049 1.136-9.068 1.471-14.454 1.606-28.689-0.427-41.314-6.16-18.246-8.287-30.249-25.811-35.654-43.923-1.019-3.412-1.803-6.842-2.35-10.24-0.987-6.119-1.208-12.12-0.64-17.661 1.286-12.559 6.604-22.754 16.116-26.645-0.107 7.921 0.794 16.125 2.857 23.456 6.912 24.578 26.229 44.791 60.905 54.038 10.514 2.805 27.077 3.633 39.344 0.951-1.684 6.269-4.404 11.138-8.504 14.942" fill="#dae7ed"/>
  </g>
  <g transform="matrix(.51711 0 0 -.51711 127.97 119.66)">
   <path d="m0 0v-0.013c-0.11-2.318-0.488-4.338-1.081-6.087 1.501-0.05 4.997-0.065 5.3 0.745 0.2 0.534-2.941 4.106-4.219 5.355" fill="#fff"/>
  </g>
  <g transform="matrix(.51711 0 0 -.51711 18.119 106.19)">
   <path d="m0 0c-5.437-2.562-14.368-2.788-16.927-2.788-5.337 0-5.313-1.947-1.922-5.338 4.993-4.994 10.9-7.718 18.209-9.535-0.568 5.54-0.347 11.541 0.64 17.661" fill="#dae7ed"/>
  </g>
  <g transform="matrix(.51711 0 0 -.51711 55.443 145.55)">
   <path d="m0 0c-19.074-0.798-32.039 9.307-36.19 14.195-0.953-5.079-0.812-10.155 0.585-14.592 0.603-1.921 1.042-3.755 1.261-5.352 12.162-13.562 40.027-21.568 67.287-14.907-12.086 5.65-23.264 12.637-32.943 20.656" fill="#dae7ed"/>
  </g>
  <g transform="matrix(.51711 0 0 -.51711 35.111 54.676)">
   <path d="m0 0c-1.768-0.994-4.571-1.882-8.676-2.399 3.248-4.014 6.348-7.414 9.406-10.273 1.297 2.221 3.293 8.386 3.293 10.737 0 3.454-0.924 3.673-4.023 1.935" fill="#dae7ed"/>
  </g>
  <g transform="matrix(.51711 0 0 -.51711 72.902 69.789)">
   <path d="m0 0c-2.635 5.271-4.385 2.973-5.376 0-1.073-3.219-3.64-8.217-6.964-12.841 7.052-2.009 12.436-4.725 16.479-8.473 0.761 5.686-2.339 17.715-4.139 21.314" fill="#dae7ed"/>
  </g>
  <g transform="matrix(.51711 0 0 -.51711 126.57 124.86)">
   <path d="m0 0c-0.053 0.104-0.122 0.196-0.208 0.278-1.303 1.271-6.185 0-5.44-3.816 0.012-0.07 0.095-0.186 0.223-0.328 0.747-0.846 3.203-2.787 4.422-3.633 1.373-0.948 1.373-0.13 1.373 1.584 0 1.32-0.053 5.281-0.37 5.915" fill="#fff"/>
  </g>
  <g transform="matrix(.51711 0 0 -.51711 120.48 126.88)">
   <path d="m0 0c-1.107 1.848-6.372 2.161-6.598 0.582-2e-3 -6e-3 0-0.011 0-0.016-0.135-1.138 2.587-6.508 2.903-7.059 0.332-0.575 0.614-1.062 0.877-1.353 0.259-0.049 0.521-0.086 0.783-0.134 0.25 0.231 0.515 0.76 0.822 1.698 0.634 1.94 1.217 4.143 1.307 5.393 0.029 0.418 4e-3 0.729-0.094 0.889" fill="#fff"/>
  </g>
  <g transform="matrix(.51711 0 0 -.51711 158.39 162.74)">
   <path d="m0 0c-0.01 0.01-0.022 0.02-0.033 0.027-1.951 1.679-4.762 3.584-7.444 4.842-1.911 0.896-3.754 1.469-5.17 1.382-7.354-0.439-9.089-8.194-6.103-11.177 0.107-0.106 0.25-0.207 0.417-0.3 2.769-1.514 13.105-0.71 16.643-0.361 7.071 0.694 5.957 1.911 1.69 5.587" fill="#fff"/>
  </g>
  <g transform="matrix(.51711 0 0 -.51711 106.71 181.15)">
   <path d="m0 0c-1.012 1.672-2.504 4.035-4.019 6.19-1.35 1.919-2.716 3.671-3.775 4.623-5.59 4.998-15.885-0.884-12.648-9.124 0.313-0.794 1.647-1.6 3.417-2.345 4.092-1.719 10.53-3.108 12.171-3.316 6.02-0.753 8.075-1.355 4.854 3.972" fill="#fff"/>
  </g>
  <g transform="matrix(.51711 0 0 -.51711 114.36 177.76)">
   <path d="m0 0c-0.991 1.578-2.778 4.131-4.727 6.326-1.083 1.215-2.213 2.321-3.287 3.089-4.79 3.405-14.121-0.81-10.002-9.046 0.046-0.092 0.126-0.185 0.208-0.28 1.66-1.912 10.338-4.094 13.983-4.793 5.414-1.043 7.428-1.03 3.825 4.704" fill="#fff"/>
  </g>
  <g transform="matrix(.51711 0 0 -.51711 42.183 120.65)">
   <path d="m 0,0 c -0.316,-0.869 -2.17,-4.401 -1.977,-4.664 1.107,-1.503 5.14,0.16 5.218,1.661 C 3.272,-2.434 0,0 0,0" fill="#73a7be"/>
  </g>
  <g transform="matrix(.51711 0 0 -.51711 36.06 118.56)">
   <path d="m0 0c-0.554 0.474-12.608 1.994-12.73 1.503-0.396-1.582-0.554-12.098-0.316-12.492 0.236-0.397 7.195-4.351 7.59-4.587 0.395-0.237 7.048 4.997 7.522 5.233 0.475 0.238-1.513 9.868-2.066 10.343" fill="#73a7be"/>
  </g>
  <g transform="matrix(.51711 0 0 -.51711 30.296 104.14)">
   <path d="m0 0c0.316 0.238-0.633 1.978-1.027 2.215-0.347 0.207-3.006-0.632-2.848-1.106 0.16-0.474 1.583-1.898 1.82-2.215s1.74 0.87 2.055 1.106" fill="#73a7be"/>
  </g>
  <g transform="matrix(.51711 0 0 -.51711 31.972 96.856)">
   <path d="m0 0c0.396-0.08 2.741 3.439 3.084 3.953 0.475 0.712-2.688 6.799-2.925 9.884-0.05 0.635-2.242 0.744-2.531 0.474-1.265-1.186-5.139-11.861-4.428-13.125 0.28-0.498 6.405-1.108 6.8-1.186" fill="#73a7be"/>
  </g>
  <g transform="matrix(.51711 0 0 -.51711 25.839 74.9)">
   <path d="m0 0c-0.307 0.262-2.531-1.819-4.27-2.689-0.5-0.25 2.214-4.823 2.531-5.296 0.316-0.476 5.96-1.279 6.088-0.95 0.554 1.423 2.135 3.874 2.767 4.744 0.339 0.466-6.009 3.242-7.116 4.191" fill="#73a7be"/>
  </g>
  <g transform="matrix(.51711 0 0 -.51711 22.31 65.787)">
   <path d="m0 0c0.376-0.076 1.14 1.28 1.608 2.084 0.189 0.324-2.123 1.428-2.123 1.428-0.226-0.376-1.676-2.053-1.451-2.202 0.226-0.151 1.591-1.236 1.966-1.31" fill="#73a7be"/>
  </g>
  <g transform="matrix(.51711 0 0 -.51711 35.3 77.005)">
   <path d="m0 0c0.122 0.09-1.406 1.498-1.681 1.313-0.289-0.192-2.353-2.199-2.199-2.382 0.152-0.184 0.977-1.53 1.099-1.652s2.658 2.629 2.781 2.721" fill="#73a7be"/>
  </g>
  <g transform="matrix(.51711 0 0 -.51711 37.683 148.52)">
   <path d="m0 0c-0.218 1.597-0.658 3.431-1.261 5.352-1.346 4.273-1.516 9.143-0.675 14.035-5.698-2.19-17.911 13.132-20.388 21.884-0.032-1.244-0.05-2.487-0.032-3.722 0.025-1.887 0.107-3.754 0.246-5.593-1.337-0.288-2.818-0.54-4.354-0.759-1.679-6.212-6.031-9.497-11.617-11.012 6.126-3.762 13.411-5.993 19.782-6.83 1.14-2.989 2.502-5.555 4.07-7.536 11.965-15.098 15.174-12.728 14.229-5.819" fill="#b8c3c8"/>
  </g>
  <g transform="matrix(.51711 0 0 -.51711 50.707 125.71)">
   <path d="m0 0c-0.515 1.049-0.981 2.277-1.276 3.746-2.263-0.282-4.416-0.822-6.512-1.786-1.06-0.488-2.08-1.043-3.066-1.649 0.513-1.073 1.392-2.234 2.415-3.36 2.422 1.667 5.432 3.144 8.439 3.049" fill="#d3d2d2"/>
  </g>
  <g transform="matrix(.51711 0 0 -.51711 42.418 133.98)">
   <path d="m0 0c-1.928 1.485-3.896 3.423-5.515 5.634-1.633-2.545-2.954-5.281-3.948-8.091 0.647-0.332 1.369-0.609 2.127-0.838 0.874 2.756 4.215 3.258 7.336 3.295" fill="#d3d2d2"/>
  </g>
  <g transform="matrix(.51711 0 0 -.51711 59.705 123.96)">
   <path d="m0 0c-2.745 0.08-5.302 0.243-7.708 0.384 0.558-0.979 1.374-1.937 2.254-2.775 1.795-0.077 3.463-0.314 5.051-0.772 0.164 1.091 0.333 2.342 0.403 3.163" fill="#d3d2d2"/>
  </g>
  <g transform="matrix(.51711 0 0 -.51711 148.06 73.259)">
   <path d="m0 0c-1.532 4.617-6.138 10.525-1.442 20.554-2.468 0.46-5.103 0.809-8 0.586-3.323-0.256-7.286-1.444-11.388-3.08 9.254-3.577 14.321-11.268 15.572-18.342 0.719-0.453 1.433-0.926 2.143-1.432 1.157-0.795 2.247-1.648 3.312-2.527 0.122 0.471 0.205 0.948 0.246 1.431 0.074 0.895-0.115 1.824-0.443 2.81" fill="#6a1a00"/>
  </g>
  <g transform="matrix(.51711 0 0 -.51711 137.29 63.92)">
   <path d="m0 0c-2.318-0.924-4.681-1.991-7-3.117-0.271-1.639-0.76-3.076-1.345-4.675-0.613-1.672-0.915-1.894-2.293-0.655-0.56 0.505-1.448 1.315-2.188 2.357-3.325-1.77-6.364-3.5-8.807-4.88 13.326 0.535 25.912-0.253 37.205-7.372-1.251 7.073-6.318 14.765-15.572 18.342" fill="#ce7486"/>
  </g>
  <g transform="matrix(.51711 0 0 -.51711 105.89 162.51)">
   <path d="m0 0c2.49 1.353 5.178 3.118 7.801 5.328 3.941 3.318 7.727 7.662 10.492 13.168 0.589 1.175 1.125 2.406 1.614 3.684-2.947-1.621-5.893-2.371-8.838-3.107-35.152-6.153-72.727 3.992-87.886 37.183 0.996-17.981 9.609-33.89 23.298-48.806 1.089-1.185 2.209-2.367 3.361-3.539-6.53-4.408-10.363-9.89-2.821-18.538 1.059-1.214 2.43-2.511 4.01-3.847 11.621 13.211 34.706 11.65 52.036 8.239-2.971 3.51-5.908 6.659-7.358 8.206 1.318 0.533 2.765 1.203 4.291 2.029" fill="#d49ba8"/>
  </g>
  <g transform="matrix(.51711 0 0 -.51711 17.697 57.028)">
   <path d="m0 0c-2.416 0.241-2.582 0.248-4.678 0.635 0.185-3.484-4.112-7.591-6.325-7.907 2.05-2.091 6.938-5.642 9.349-7.235-0.136-7.094 0.752-14.064 2.963-19.591 1.98 2.683 4.217 5.174 6.637 7.423-5.8 7.647-7.821 27.265-7.946 26.675" fill="#b8c3c8"/>
  </g>
  <g transform="matrix(.51711 0 0 -.51711 115.42 152.79)">
   <path d="m0 0c-0.05-0.104-0.098-0.213-0.15-0.317-2.765-5.506-6.551-9.851-10.492-13.168-2.623-2.21-5.311-3.976-7.801-5.328 12.964 0.595 26.488 2.79 38.991 7.245 10.636 3.787 20.529 9.207 28.702 16.672 3.292 3.006 6.292 6.357 8.961 10.053-16.265-12.904-36.945-16.493-58.211-15.157" fill="#dcd196"/>
  </g>
  <g transform="matrix(.51711 0 0 -.51711 68.828 144.67)">
   <path d="m0 0c-13.358 9.372-23.046 22.459-24.376 39.047-0.369 0.455-0.705 0.923-0.975 1.398-4.015 0.232-7.612 0.393-10.966-0.022 1.008-5.031 4.02-7.324 4.202-8.778 0.312-2.496-2.47-4.249-4.227-3.748-1.449 0.415-7.748 5.309-9.554 9.091-2.694-1.652-5.104-3.717-7.199-6.071 6.255-11.991 15.659-23.036 27.211-32.605 9.678-8.019 20.857-15.006 32.943-20.657 3.619-1.691 7.322-3.26 11.088-4.706-7.906 8.615-14.117 17.564-18.147 27.051" fill="#d49ba8"/>
  </g>
  <g transform="matrix(.51711 0 0 -.51711 157.7 157.19)">
   <path d="m0 0c-0.215 0.124-0.425 0.25-0.642 0.366-2.358 1.269-7.32-1.309-5.492-6.236 2.279-1.069 4.646-2.606 6.504-4.071-1.481 2.951-1.818 6.289-0.37 9.941" fill="#d3d2d2"/>
  </g>
  <g transform="matrix(.51711 0 0 -.51711 15.826 78.877)">
   <path d="m0 0c-1.72-3.541-3.015-7.241-3.749-10.995-1.423-3.364-5.535-5.262-11.135-1.822 2.301-4.204 6.805-9.175 11.062-11.828 1.296-6.465 4.647-12.65 10.606-17.935 1.683 5.641 4.007 11.225 6.96 16.49-10.214 3.455-14.523 15.59-13.744 26.09" fill="#b8c3c8"/>
  </g>
  <g transform="matrix(.51711 0 0 -.51711 18.119 106.19)">
   <path d="m0 0c-0.987-6.12-1.208-12.121-0.64-17.661 1.286-12.559 6.604-22.754 16.117-26.646-0.072 5.229 0.308 10.578 1.16 15.72-8.573 10.033-12.988 24.776-14.567 37.833-0.878-3.084-1.576-6.179-2.07-9.246" fill="#b8c3c8"/>
  </g>
  <g transform="matrix(.51711 0 0 -.51711 18.119 106.19)">
   <path d="m0 0c-1.784-0.84-3.945-1.426-6.132-1.837-2.035-4.599-6.329-6.81-11.326-7.574 4.694-4.175 10.173-6.599 16.818-8.25-0.568 5.54-0.347 11.541 0.64 17.661" fill="#b8c3c8"/>
  </g>
  <g transform="matrix(.51711 0 0 -.51711 36.945 145.44)">
   <path d="m0 0c0.057-0.201 0.104-0.404 0.166-0.603 0.604-1.92 1.043-3.754 1.261-5.351 12.163-13.562 40.028-21.568 67.288-14.907-6.456 3.017-12.641 6.427-18.488 10.162-17.725-2.075-35.871 0.751-50.227 10.699" fill="#b8c3c8"/>
  </g>
  <g transform="matrix(.51711 0 0 -.51711 150.72 159.72)">
   <path d="m0 0c-5.468-1.688-6.567-8.119-3.908-10.775 0.108-0.107 0.25-0.207 0.417-0.3 2.296-1.253 9.787-0.916 14.297-0.569-5.754 2.184-10.807 5.961-10.806 11.644" fill="#d3d2d2"/>
  </g>
  <g transform="matrix(.51711 0 0 -.51711 96.872 176.05)">
   <path d="m0 0c-1.843-1.994-2.697-4.893-1.411-8.166 0.314-0.795 1.647-1.601 3.418-2.346 4.092-1.718 10.53-3.107 12.171-3.315 2.312-0.287 4.033-0.554 5.1-0.469-7.843 2.885-14.786 7.028-19.278 14.296" fill="#d3d2d2"/>
  </g>
  <g transform="matrix(.51711 0 0 -.51711 105.76 173.08)">
   <path d="m0 0c-2.237-1.701-3.37-4.725-1.39-8.685 0.046-0.091 0.127-0.185 0.209-0.28 1.318-1.517 7.056-3.203 11.192-4.184-4.411 3.307-7.978 7.524-10.011 13.149" fill="#d3d2d2"/>
  </g>
  <g transform="matrix(.51711 0 0 -.51711 161.62 141.09)">
   <path d="m0 0c-9.305-8.465-21.159-12.427-34.38-11.877-1.687-1.936-3.463-3.776-5.342-5.494-8.176-7.464-16.785-12.858-27.42-16.649 0.824 0.215-1.863-6.672 0.949-9.486 1.486-1.484 9.668-2.546 18.967-3.114 8.697 9.481 20.053 16.848 32.239 20.27-2.746 1.568-5.571 3.086-7.043 3.604 10.514 6.586 17.933 14.431 22.03 22.746" fill="#d49ba8"/>
  </g>
  <g transform="matrix(.51711 0 0 -.51711 86.303 45.277)">
   <path d="m0 0c7.944-7.356 24.898-6.909 30.851-0.635 0 0-1.907-12.308-16.538-10.718-8.396 0.914-12.723 7.854-14.313 11.353" fill="#d49ba8"/>
  </g>
  <g transform="matrix(.51711 0 0 -.51711 145.02 39.357)">
   <path d="m0 0s6.042-1.271 11.131 5.725c0 0 0-9.223-7.951-10.495z" fill="#d49ba8"/>
  </g>
  <g transform="matrix(.51711 0 0 -.51711 95.266 103.8)">
   <path d="m0 0s23.326-36.293 56.062-40.8l-1.502-3.558s-3.559-1.343-5.299-1.029c0 0-0.948 1.741-3.479 2.214-2.531 0.476-3.795-0.79-3.795-0.79-12.809 4.586-30.282 13.129-41.987 43.963" fill="#d49ba8"/>
  </g>
  <g transform="matrix(.51711 0 0 -.51711 149.69 93.743)">
   <path d="m0 0s13.599 2.529 27.199 28.782c0 0-6.324-29.099-24.986-38.903z" fill="#d49ba8"/>
  </g>
  <g transform="matrix(.51711 0 0 -.51711 59.268 86.604)">
   <path d="m0 0c0.376 1.641-2.063 9.952-3.448 11.338 0.474-3.558-2.135-5.931-7.116-6.404-2.296-0.22-2.903-2.693-4.033-5.219-2.376-5.316 13.348-5.158 14.597 0.285" fill="#b8c3c8"/>
  </g>
  <g transform="matrix(.51711 0 0 -.51711 73.73 71.243)">
   <path d="m0 0c-1.763-4.845-8.27-7.115-11.251-6.032-1.221-1.354-1.084-0.745-2.304-3.728 9.353-2.982 16.221-8.289 16.221-8.289s0.813 9.668-2.666 18.049" fill="#b8c3c8"/>
  </g>
  <g transform="matrix(.51711 0 0 -.51711 50.575 69.046)">
   <path d="m0 0c0.671 2.928-1.897 12.888-6.326 18.66 1.186-4.981-3.566-11.092-9.497-13.464-0.488-0.196-1.788-2.506-2.6-6.461-1.398-6.813 16.395-7.582 18.423 1.265" fill="#b8c3c8"/>
  </g>
  <g transform="matrix(.51711 0 0 -.51711 30.925 56.038)">
   <path d="m0 0c4.027-1.921 9.558-3.844 12.222-0.564l-2.846-9.726z" fill="#b8c3c8"/>
  </g>
  <g transform="matrix(.51711 0 0 -.51711 106.83 35.806)">
   <path d="m0 0c-2.548-2.323-2.229-3.967 0.45-1.64 12.083 10.495 32.463 13.473 50.713 7.41 17.747-5.896 30.023-18.927 33.681-35.753 0.094-0.435 2.32-1.476 2.244-1.037-3.175 18.371-16.958 33.005-35.257 39.084-16.316 5.422-38.583 4.015-51.831-8.064" fill="#0f141b"/>
  </g>
  <g transform="matrix(.51711 0 0 -.51711 86.922 34.501)">
   <path d="m0 0c-8.041-11.953-2.366-29.416 10.739-32.649 8.86-2.188 14.257 1.584 16.486 4.032 3.327 3.654 4.689 9.484 3.197 13.763-1.773 5.081-6.872 7.687-10.873 7.213-3.692-0.438-5.785-3.024-6.319-5.913-0.406-2.19 0.519-2.836 1.256-0.734 0.938 2.675 2.999 3.97 5.252 4.236 3.362 0.398 7.412-1.097 8.892-5.334 1.303-3.736 0.202-8.417-2.737-11.646-1.987-2.182-6.524-5.549-14.573-3.561-10.998 2.714-16.727 18.215-8.991 29.59 4.811 7.076 12.136 11.016 19.595 10.543 7.182-0.456 13.372-4.785 16.976-11.875 0.203-0.398 1.93 0.363 1.728 0.76-3.872 7.613-10.834 13.041-18.603 13.533-8.253 0.524-16.915-4.364-22.025-11.958" fill="#0f141b"/>
  </g>
  <g transform="matrix(.51711 0 0 -.51711 132.31 31.513)">
   <path d="m0 0c0.048-0.851 2.166-1.42 2.102-0.949-0.856 6.227 9.612 19.637 23.422 10.004 8.549-5.962 10.614-15.951 8.236-22.738-1.178-3.366-3.324-5.281-5.735-5.123-0.445 0.029 0.552-1.626 0.874-1.594 2.758 0.279 5.637 2.522 6.922 6.184 2.58 7.361 0.047 18.738-9.162 25.16-15.483 10.8-27.111-3.01-26.659-10.944" fill="#0f141b"/>
  </g>
  <g transform="matrix(.51711 0 0 -.51711 142.55 36.97)">
   <path d="m0 0c-0.019-0.52 1.746-1.893 1.688-1.451-0.52 3.935 1.438 5.024 4.314 5.024 2.317 0 1.65 1.112-0.659 1.288-5.193 0.4-5.242-2.148-5.343-4.861" fill="#0f141b"/>
  </g>
  <g transform="matrix(.51711 0 0 -.51711 127.24 52.032)">
   <path d="m0 0c-9.045-6.154-20.5-12.952-29.678-17.361-7.164-3.444-11.824-9.202-11.906-15.15-0.074-5.297 3.584-10.385 9.394-12.997 6.425-2.892 31.312-17.711 38.867-20.371 13.878-4.886 27.61-3.19 35.095 6.518 3.96 5.132 5.494 14.256-1.218 18.88-0.366 0.253-0.359-1.502-0.083-1.753 4.141-3.771 3.637-11.004-0.429-16.273-6.273-8.134-19.431-10.289-32.82-5.586-7.072 2.485-35.016 18.542-38.226 20.196-5.1 2.627-7.989 6.807-7.925 11.468 0.075 5.314 3.898 10.176 10.488 13.343 9.282 4.46 18.727 10.538 29.006 17.417 20.013 13.393 32.381 10.093 39.074 5.695 4.336-2.848 10.741-6.231 13.778-8.64 6.854-5.439 4.411-13.856-2.428-15.978-3.028-0.94-6.117-0.304-9.696 0.432-3.092 0.637-6.599 1.628-10.526 1.326-9.668-0.744-24.177-9.226-32.847-14.133l-5.082-2.788c-7.674-3.723-13.812-3.685-17.747 0.108-1.77 1.704-2.487 0.336-0.797-1.448 3.164-3.344 7.895-5.967 18.503-0.823l5.811 3.084c8.307 4.701 21.687 13.307 32.283 14.122 3.701 0.285 7.399-0.695 10.534-1.34 3.638-0.749 7.051-1.499 10.476-0.436 10.641 3.302 8.891 15.061 2.854 19.187-4.169 2.85-8.585 4.652-14.469 8.713-11.862 8.186-26.699 3.833-40.286-5.412" fill="#0f141b"/>
  </g>
  <g transform="matrix(.51711 0 0 -.51711 146.9 62.526)">
   <path d="m0 0c-3.888-8.426-1.413-14.14 0.416-18.36 0.852-1.968 1.589-3.667 1.466-5.139-0.506-6.036-8.072-10.913-17.99-11.597-13.322-0.919-27.469 8.169-32.936 17.366-0.228 0.383-1.957-0.905-1.729-1.288 5.709-9.607 20.549-18.91 34.482-17.948 10.892 0.75 19.198 6.385 19.781 13.332 0.156 1.875-0.655 4.029-1.595 6.197-1.829 4.222-3.534 8.929 0.317 16.922 0.104 0.217-2.042 0.882-2.212 0.515" fill="#0f141b"/>
  </g>
  <g transform="matrix(.51711 0 0 -.51711 136.79 64.171)">
   <path d="m0 0c11.377-4.055 16.739-14.535 15.989-22.77-0.313-3.441-1.665-6.078-3.79-7.6-1.107-0.794 1.432-1.392 3.048 0.799 1.286 1.743 2.246 4.128 2.487 6.776 0.769 8.465-3.876 19.1-14.945 23.801-1.067 0.453-3.342-0.809-2.789-1.006" fill="#0f141b"/>
  </g>
  <g transform="matrix(.51711 0 0 -.51711 92.677 51.095)">
   <path d="m0 0c-0.799-3.727-1.094-6.914-1.655-11.976-1.028-9.252-1.688-22.454-7.351-37.48-8.235-21.857-17.185-36.485-24.5-49.625-7.128-12.804-13.583-24.826-17.285-38.426-7.457-27.42 0.905-51.084 25.789-74.804 1.513-1.444 2.616-0.358 1.148 1.132-23.658 24.037-31.063 47.265-23.88 73.675 3.649 13.413 9.76 24.394 16.837 37.107 7.342 13.188 15.662 28.134 23.94 50.104 5.735 15.22 6.688 27.124 7.67 36.472 0.538 5.133 1.005 9.564 2.122 13.366 0.126 0.428-2.741 0.891-2.835 0.455" fill="#0f141b"/>
  </g>
  <g transform="matrix(.51711 0 0 -.51711 159.55 58.262)">
   <path d="m0 0c7.676-12.992 9.771-28.371 5.89-43.939-3.549-14.238-11.881-26.59-22.478-33.463-0.556-0.361 0.523-2.296 0.896-2.062 11.229 7.01 20.117 19.826 23.832 34.727 4.094 16.423 0.752 33.616-7.68 47.186-0.236 0.379-0.671-2.094-0.46-2.449" fill="#0f141b"/>
  </g>
  <g transform="matrix(.51711 0 0 -.51711 153.21 116.73)">
   <path d="m0 0c12.92-9.596 19.306-21.602 18.502-33.941-0.954-14.622-11.44-26.603-30.42-38.079-3.033-1.831-1.438-2.847 1.692-1.182 19.225 10.184 30.858 24.075 31.849 39.266 0.866 13.299-7.702 26.889-21.886 36.959-0.363 0.258-0.133-2.728 0.263-3.023" fill="#0f141b"/>
  </g>
  <g transform="matrix(.51711 0 0 -.51711 117.07 126.15)">
   <path d="m0 0c-23.406 8.873-41.693 32.764-45.506 59.453-0.475 3.314-2.265 1.377-1.792-1.938 5.077-35.542 29.552-53.173 46.995-59.564 0.149-0.053 0.63 1.219 0.303 2.049" fill="#0f141b"/>
  </g>
  <g transform="matrix(.51711 0 0 -.51711 123.59 126.34)">
   <path d="m0 0c-1.804-0.709-3.857-0.996-6.086-0.85v-1.882c2.719-0.168 5.215 0.263 7.377 1.268-0.422 0.333-0.891 0.944-1.291 1.464" fill="#0f141b"/>
  </g>
  <g transform="matrix(.51711 0 0 -.51711 113.9 92.315)">
   <path d="m0 0c-2.936 2-5.232 1.307-2.298-0.695 13.203-9.003 28.969-34.955 28.161-51.894-0.17-3.597-0.743-6.866-2.198-9.16 0.678-0.183 1.197-0.635 1.279-1.36 1.814 2.594 2.87 6.022 3.069 10.175 0.961 20.139-14.511 43.73-28.013 52.934" fill="#0f141b"/>
  </g>
  <g transform="matrix(.51711 0 0 -.51711 114.31 90.505)">
   <path d="m0 0s1.587-4.164 2.16-6.985c0.069-0.338 3.272-2.454 3.214-2.012-0.468 3.502-3.292 8.221-3.292 8.221-1.216 2.392-3.294 3.171-2.082 0.776" fill="#0f141b"/>
  </g>
  <g transform="matrix(.51711 0 0 -.51711 100.42 121.84)">
   <path d="m0 0c23.015-8.822 33.103-31.574 31.257-46.684-3.13-25.639-25.493-33.08-30.275-34.452-2.853-0.821-1.902-1.831 1.044-1.481 7.306 0.884 29.097 10.627 32.104 35.268 2.078 17.018-8.697 38.902-31.629 48.391-4.049 1.674-6.593 0.526-2.501-1.042" fill="#0f141b"/>
  </g>
  <g transform="matrix(.51711 0 0 -.51711 103.05 163.89)">
   <path d="m0 0c2.806-2.908 11.979-12.409 15.241-18.125 0.667-1.169 2.846-3.235 2.794-2.795-0.55 4.657-9.414 16.001-15.441 22.25z" fill="#0f141b"/>
  </g>
  <g transform="matrix(.51711 0 0 -.51711 79.514 160.03)">
   <path d="m0 0c-4.629-3.087-7.606-6.47-8.051-9.806-0.432-3.238 1.199-7.179 4.508-10.972 7.763-8.899 34.69-22.851 40.093-21.439 0.433 0.113-1.95 1.555-3.25 1.929-7.917 2.275-27.57 13.243-34.67 21.379-2.985 3.424-4.256 6.427-3.889 9.177 0.379 2.842 2.519 5.473 6.734 8.284 0.371 0.247-1.104 1.694-1.475 1.448" fill="#0f141b"/>
  </g>
  <g transform="matrix(.51711 0 0 -.51711 149.61 153.23)">
   <path d="m0 0c2.073-0.545 9.207-4.109 13.812-7.054 1.795-1.147 5.333-2.302 5.06-1.949-2.173 2.791-11.931 9.451-16.195 11.119-0.473 0.185-3.107-2.004-2.677-2.116" fill="#0f141b"/>
  </g>
  <g transform="matrix(.51711 0 0 -.51711 126.36 158.81)">
   <path d="m0 0c-1.085-4.071-1.735-7.941 0.68-10.355 3.579-3.582 30.984-4.727 44.759-3.887 0.445 0.025-1.993 1.931-2.63 1.905-14.321-0.562-37.733 1.961-40.007 4.234-1.773 1.771-1.342 4.064-0.27 8.075z" fill="#0f141b"/>
  </g>
  <g transform="matrix(.51711 0 0 -.51711 104.22 117.95)">
   <path d="m0 0c-1.242-2.98-3.858-7.851-3.858-7.851-0.261-0.36 1.601-1.343 1.861-0.981 0 0 2.944 3.508 4.281 7.031 0.158 0.415-2.114 2.212-2.284 1.801" fill="#0f141b"/>
  </g>
  <g transform="matrix(.51711 0 0 -.51711 152.95 115.05)">
   <path d="m0 0c-9.097-6.902-36.211-7.489-48.42-4.202-0.431 0.116 0.024-2.483 0.252-2.54 12.751-3.17 38.751-2.688 48.437 4.955 0.232 0.182 0.085 2.056-0.269 1.787" fill="#0f141b"/>
  </g>
  <g transform="matrix(.51711 0 0 -.51711 152.16 126.91)">
   <path d="m0 0c-8.896-7.334-47.375-14.813-79.294-2.762-0.418 0.158 1.112-2.937 1.967-3.226 29.249-9.908 66.655-5.438 77.394 4.085 0.323 0.286 0.278 2.185-0.067 1.903" fill="#0f141b"/>
  </g>
  <g transform="matrix(.51711 0 0 -.51711 148.84 138.93)">
   <path d="m0 0c-8.379-8.847-37.764-12.303-60.463-7.114-0.435 0.099 0.089-2.75 0.316-2.799 21.782-4.789 48.873-1.553 59.687 7.331 0.594 0.491 0.766 2.905 0.46 2.582" fill="#0f141b"/>
  </g>
  <g transform="matrix(.51711 0 0 -.51711 142.49 148.67)">
   <path d="m0 0c-8.821-6.471-35.756-11.511-51.913-7.025-0.427 0.12-0.859-2.242-0.431-2.361 15.232-4.231 37.404-0.461 48.549 5.542 1.273 0.686 4.155 4.109 3.795 3.844" fill="#0f141b"/>
  </g>
  <g transform="matrix(.51711 0 0 -.51711 127.88 157.78)">
   <path d="m0 0c-10.884-3.625-25.418-5.103-34.142-3.163-0.436 0.097-2.25-1.954-1.816-2.051 5.616-1.248 17.08-1.58 26.253 0.634 4.399 1.062 10.126 4.723 9.705 4.58" fill="#0f141b"/>
  </g>
  <g transform="matrix(.51711 0 0 -.51711 77.404 157.9)">
   <path d="m0 0c-31.306 12.437-56.794 33.403-69.056 57.021-0.132 0.253-1.616-1.389-1.427-1.749 12.837-24.476 38.286-46.036 73.711-59.479-0.845 0.604-2.744 3.099-3.228 4.207" fill="#0f141b"/>
  </g>
  <g transform="matrix(.51711 0 0 -.51711 147.31 83.831)">
   <path d="m0 0c-0.15 0.418-1.938-1.469-1.788-1.889 13.064-36.586 15.495-65.624 7.887-94.155-4.993-18.719-16.747-33.069-34.939-42.655-15.407-8.116-33.486-11.811-50.603-12.674-0.694-0.805-1.483-1.498-2.365-2.053 18.56 0.404 38.454 3.927 55.003 12.644 18.607 9.803 30.643 24.634 35.754 43.807 7.699 28.865 4.231 60.06-8.949 96.975" fill="#0f141b"/>
  </g>
  <g transform="matrix(.51711 0 0 -.51711 36.69 138.81)">
   <path d="m0 0c3.743-4.679 16.137-15.225 36.398-14.222 0.373 0.018-0.507 1.972-1.343 1.951-19.441-0.45-31.168 9.628-34.136 13.728-0.261 0.359-1.061-1.277-0.919-1.457" fill="#0f141b"/>
  </g>
  <g transform="matrix(.51711 0 0 -.51711 37.698 149.43)">
   <path d="m0 0c12.704-13.297 39.077-22.352 69.556-14.881 0.433 0.106-3.216 2.326-3.931 2.165-28.073-6.326-55.421 3.059-66.042 16.161-0.281 0.348-0.177-2.826 0.417-3.445" fill="#0f141b"/>
  </g>
  <g transform="matrix(.51711 0 0 -.51711 33.383 149.98)">
   <path d="m0 0c8.881-8.233 12.77-6.718 8.042 8.487-3.872 12.451 2.645 32.616 18.009 39.687 5.262 2.422 10.829 1.977 17.609 1.54 6.012-0.389 12.445-1.407 21.218-0.151 0.441 0.062 0.382 2.334-0.059 2.271-8.608-1.232-15.333-0.259-21.267 0.126-7.008 0.452-12.811 1.618-18.445-0.975-18.318-8.429-22.862-30.235-19.092-43.045 2.82-9.586 1.922-12.35-4.441-6.507-3.934 3.608-9.635 10.853-10.487 14.384-0.606 0.069-1.748 0.186-2.354 0.374 0.985-4.999 7.308-12.515 11.267-16.191" fill="#0f141b"/>
  </g>
  <g transform="matrix(.51711 0 0 -.51711 82.843 89.164)">
   <path d="m0 0c-31.374 12.275-93.621-1.763-108.2-53.613-2.622-9.325-3.197-19.391-2.372-29.097 0.534 0 1.372-0.211 1.907-0.211-0.778 9.474-0.042 19.818 2.613 28.925 13.752 47.176 72.104 63.848 105.2 52.042 0.419-0.15 1.272 1.791 0.857 1.954" fill="#0f141b"/>
  </g>
  <g transform="matrix(.51711 0 0 -.51711 27.342 131.01)">
   <path d="m0 0c-6.71-2.028-20.744-2.872-22.652-2.766-8.307 0.459-5.763-3.577-2.646-6.694 7.947-7.947 20.296-12.279 29.09-12.991 4.271-0.349 4.573 2.144 0.302 2.493-8.118 0.657-20.312 4.139-27.96 11.785-3.027 3.027-3.191 3.766 1.125 3.527 2.025-0.112 16.785 0.657 23.805 2.777 4.189 1.273 3.127 3.134-1.064 1.869" fill="#0f141b"/>
  </g>
  <g transform="matrix(.51711 0 0 -.51711 37.599 77.803)">
   <path d="m0 0c-27.093-12.304-40.774-45.428-39.634-69.863 0.724-15.482 7.192-26.586 17.251-30.657 0.356-0.146 0.469 2.057-0.06 2.292-9.08 4.036-14.357 14.466-15.034 28.954-1.012 21.661 12.233 55.23 38.144 66.996 15.845 7.197 34.742 8.713 49.877 5.444 17.482-3.778 25.873-10.527 29.534-23.913 0.103-0.38 2.581-1.103 2.475-0.67-3.617 14.666-12.483 22.294-30.927 26.278-17.929 3.873-36.265 2.116-51.626-4.861" fill="#0f141b"/>
  </g>
  <g transform="matrix(.51711 0 0 -.51711 19.408 99.918)">
   <path d="m0 0c-4.34 3.642-7.612 8.635-9.128 14.664-1.095 0.406-1.882 1.441-2.93 2.548 1.137-8.043 4.926-15.115 11.109-19.664 0.359-0.264 1.29 2.165 0.949 2.452" fill="#0f141b"/>
  </g>
  <g transform="matrix(.51711 0 0 -.51711 26.162 67.06)">
   <path d="m0 0c-12.766-7.36-22.142-19.75-24.746-33.545 0.638-0.437 1.453-0.447 2.337-0.563 2.52 13.125 11.535 25.977 23.215 32.711 9.379 5.407 20.947 7.793 31.597 6.907v1.836c-10.946 0.796-22.726-1.765-32.403-7.346" fill="#0f141b"/>
  </g>
  <g transform="matrix(.51711 0 0 -.51711 50.238 64.919)">
   <path d="m0 0c-0.286 0.117-0.58 0.223-0.87 0.333v-2.068c8.555-3.551 14.456-9.568 17.161-17.481 0.184-0.539 2.719-0.507 2.608-0.156-2.765 8.752-9.561 15.55-18.899 19.372" fill="#0f141b"/>
  </g>
  <g transform="matrix(.51711 0 0 -.51711 17.729 75.5)">
   <path d="m0 0c0.29 0.638 1.357 2.011 1.761 2.537-1.908 5.104-2.704 11.425-2.649 17.9-0.525 0.521-1.353 1.193-1.947 1.647-0.602-7.991 0.382-14.419 2.835-22.084" fill="#0f141b"/>
  </g>
  <g transform="matrix(.51711 0 0 -.51711 27.137 50.415)">
   <path d="m0 0c-6.766 9.52-12.509 6.498-15.992-1.214-1.494-3.307-2.872-7.062-3.771-11.292 0.625 0 1.843-0.175 2.372-0.175 0.859 4.012 2.015 7.718 3.408 10.803 3.71 8.216 7.572 7.736 12.398 0.943 8.64-12.161 15.552-19.885 22.48-25.03 1.004 0 3.296 0.373 4.187 0.373-7.409 5.002-15.773 12.49-25.082 25.592" fill="#0f141b"/>
  </g>
  <g transform="matrix(.51711 0 0 -.51711 71.296 67.453)">
   <path d="m0 0c-1.261-0.09-2.237-1.864-3.036-4.26-0.887-2.663-3.681-7.423-7.183-12.35-0.169-0.237 1.848-0.943 2.106-0.575 2.899 4.15 5.439 8.907 6.609 12.413 0.623 1.875 1.275 2.57 1.643 2.596 0.145 0.011 0.93-0.071 2.245-2.702 1.902-3.804 4.799-15.139 3.611-20.04-0.106-0.432 2.314-1.846 2.417-1.413 1.29 5.319-2.272 18.09-4.314 22.176-1.273 2.542-2.776 4.25-4.098 4.155" fill="#0f141b"/>
  </g>
  <g transform="matrix(.51711 0 0 -.51711 43.067 58.385)">
   <path d="m0 0c0.108-3.225-0.272-9.355-4.193-19.591-1.07-2.791 0.767-4.038 1.837-1.247 4.028 10.518 4.053 17.992 3.97 20.847-0.126 4.348 1.84 2.88 3.785 0.516 4.403-5.354 6.795-11.995 7.528-20.904 0.297-3.599 2.371-1.776 1.999 1.815-0.948 9.173-3.622 14.525-8.28 20.113-4.461 5.351-6.798 3.022-6.646-1.549" fill="#0f141b"/>
  </g>
  <g transform="matrix(.51711 0 0 -.51711 34.907 54.313)">
   <path d="m0 0c-1.367-0.767-3.992-1.24-8.703-1.802 0.234-0.498 0.485-1.554 0.777-2.069 3.73 0.488 6.665 1.314 8.715 2.465 1.929 1.081 2.376 0.993 2.467 0.939 0.037-0.021 0.355-0.262 0.355-2.17 0-2.4-1.967-8.015-3.084-9.335-0.288-0.34 1.92-2.014 2.209-1.673 1.337 1.581 2.629 8.32 2.629 11.171 0 5.193-1.861 4.44-5.365 2.474" fill="#0f141b"/>
  </g>
  <g transform="matrix(.51711 0 0 -.51711 9.438 57.36)">
   <path d="m0 0c1.939-4.418 7.729-12.439 15.662-16.906 3.221-1.814 1.805 1.901-1.237 3.725-6.343 3.806-10.57 9.639-12.409 13.829-0.83 1.892-7e-3 1.809 1.53 1.375 3.448-0.972 8.824-2.034 14.923-2.392 3.164-0.185 3.259 1.962 0.094 2.149-5.98 0.352-12.252 1.194-14.597 1.801-3.019 0.783-6.307 1.751-3.966-3.581" fill="#0f141b"/>
  </g>
  <g transform="matrix(.51711 0 0 -.51711 7.4271 85.199)">
   <path d="m0 0c2.618-5.354 8.615-13.042 14.154-14.93 2.813-0.962 4.236 0.877 1.509 1.807-5.018 1.71-11.532 8.646-14.005 13.704-1.851 3.785-0.823 3.396 1.087 2.898l2.782-0.922c3.088-1.095 7.753-2.75 12.559-3.016 3.246-0.18 3.335 1.697 0.09 1.88-4.575 0.254-8.929 1.529-12.109 2.658l-2.914 0.962c-3.571 0.931-6.46 1.725-3.153-5.041" fill="#0f141b"/>
  </g>
  <g transform="matrix(.51711 0 0 -.51711 18.084 105.5)">
   <path d="m0 0c-3.423-1.848-9.273-3.323-16.858-3.323-6.672 0-6.68-2.632-2.92-6.686 4.658-5.024 11.04-8.829 19.476-10.848 0.432-0.105-0.299 2.688-0.688 2.788-7.501 1.943-12.847 4.796-17.22 9.17-3.12 3.119-2.394 3.962 1.352 3.962 7.381 0 12.982 0.885 16.669 2.632 0.236 0.113 0.581 2.517 0.189 2.305" fill="#0f141b"/>
  </g>
  <g transform="matrix(.51711 0 0 -.51711 39.486 131.65)">
   <path d="m0 0c1.957-2.499 4.463-4.814 7.009-6.437 0.061-0.039 1.65-0.936-0.655-1.308-2.36-0.379-6.936-0.123-9.724 1.619-0.378 0.234-0.558-1.864-0.43-1.937 3.315-1.863 8.118-1.981 10.437-1.503 5.376 1.108 3.91 2.793 1.238 4.493-2.684 1.711-5.325 4.779-7.24 7.457-0.239 0.332-1.143-1.734-0.635-2.384" fill="#0f141b"/>
  </g>
  <g transform="matrix(.51711 0 0 -.51711 49.706 124.04)">
   <path d="m0 0c0.905-3.077 2.379-5.677 3.193-6.806 0.474-0.66 0.808-1.138 0.869-1.547 0.285-1.926-2.031-3.206-3.206-2.871-1.225 0.351-7.037 5.34-8.299 8.947-0.146 0.42-2.096-0.355-1.949-0.776 1.473-4.209 8.146-9.249 9.805-9.721 2.421-0.692 5.591 1.886 5.25 4.622-0.102 0.817-0.569 1.465-1.16 2.287-0.795 1.104-1.587 3.556-2.417 6.371-0.126 0.427-2.212-0.078-2.086-0.506" fill="#0f141b"/>
  </g>
  <g transform="matrix(.51711 0 0 -.51711 59.275 124.08)">
   <path d="m0 0c-0.118-1.15-0.25-3.967-0.575-4.062-0.326-0.095-3.734 2.109-5.076 4.703-0.205 0.395-2.279 0.122-2.075-0.274 1.074-2.075 3.441-4.082 5.388-5.307 2.191-1.379 2.587-1.629 3.288 0.203 0.327 0.858 1.032 3.034 1.183 4.48 0.05 0.467-2.095 0.626-2.133 0.257" fill="#0f141b"/>
  </g>
  <g transform="matrix(.51711 0 0 -.51711 156.16 54.823)">
   <path d="m0 0c-0.074-0.396 1.351-1.956 1.402-1.514 0.313 2.584 0.758 2.956 0.814 2.993 0.061-9e-3 0.491-0.121 1.533-1.541 1.013-1.38 2.376-4.81 2.376-5.684 0-0.02-2e-3 -0.037-2e-3 -0.055-0.319-0.787-1.503-1.852-4.003-0.947-0.419 0.153 0.065-1.719 0.352-1.788 3.113-0.736 5 1.04 5.439 2.18 0.549 1.427-2.007 6.894-2.861 8.058-3.134 4.273-4.26 2.495-5.05-1.702" fill="#0f141b"/>
  </g>
  <g transform="matrix(.51711 0 0 -.51711 148.18 62.895)">
   <path d="m0 0c0.638-1.904 1.685-4.139 1.685-4.139 1.538-3.494 2.494-3.254 4.631-0.72 0.786 0.934 1.708 2.767 2.181 3.763 0.095 0.197-1.539 0.515-1.686 0.212-0.653-1.32-1.297-2.422-1.729-2.935-0.998-1.183-1.208-1.287-1.921 0.329 0 0-0.807 1.728-1.413 3.379-0.173 0.473-1.843 0.393-1.748 0.111" fill="#0f141b"/>
  </g>
  <g transform="matrix(.51711 0 0 -.51711 133.2 65.779)">
   <path d="m0 0c-0.267-1.295-0.686-2.5-1.206-3.918-0.262-0.711-0.298-0.961-0.995-0.334-0.585 0.526-1.355 1.219-2.001 2.099-0.14 0.19-1.527-0.642-1.387-0.836 0.765-1.075 1.672-1.891 2.251-2.409 2.085-1.872 2.893-1.725 3.864 0.915 0.655 1.786 1.222 3.511 1.482 5.337 0.041 0.282-1.895-0.309-2.008-0.854" fill="#0f141b"/>
  </g>
  <g transform="matrix(.51711 0 0 -.51711 125.76 53.57)">
   <path d="m0 0c0.097 6.514-2.271 13.395-6.397 17.356-3.223 3.093-7.52 4.774-11.714 4.202-7.037-0.959-13.56-8.511-14.272-17.094-0.655-7.888 3.497-14.44 10.817-17.354 0.553 0.553 1.53 0.95 2.083 1.503-6.999 2.526-11.222 8.465-10.613 15.804 0.641 7.719 6 14.427 12.203 15.272 3.688 0.504 7.146-0.679 10-3.419 5.11-4.905 6.479-13.532 6.09-17.027 0.511 0.394 1.291 0.891 1.803 0.757" fill="#0f141b"/>
  </g>
  <g transform="matrix(.51711 0 0 -.51711 119.64 48.156)">
   <path d="m0 0c-0.344-0.04-0.515-0.686-0.426-1.801 0.05-0.603 0.319-1.537 0.72-1.528 0.318 7e-3 0.523 0.684 0.438 1.722-0.065 0.804-0.37 1.648-0.732 1.607" fill="#0f141b"/>
  </g>
  <g transform="matrix(.51711 0 0 -.51711 142.63 43.978)">
   <path d="m0 0c-0.222-0.07-0.209-0.624-0.019-1.237 0.178-0.569 0.521-1.082 0.757-1.008 0.198 0.061 0.217 0.491-0.025 1.252-0.214 0.686-0.517 1.054-0.713 0.993" fill="#0f141b"/>
  </g>
  <g transform="matrix(.51711 0 0 -.51711 139.17 40.874)">
   <path d="m0 0c-1.187-3.742 0.391-10.015 3.007-12.738 0.254-0.263 2.128 0.454 1.72 0.635-2.832 1.266-5.511 13.466-1.091 13.466 5.157 0 12.839-9.145 13.628-18.495 0.037-0.444 1.537-1.455 1.653-0.501 1.073 8.904-9.309 20.61-15.281 20.61-1.737 0-3.027-1.057-3.636-2.977" fill="#0f141b"/>
  </g>
  <g transform="matrix(.51711 0 0 -.51711 148.14 56.596)">
   <path d="M 0,0 C 0.337,-0.127 2.057,3.39 1.457,3.957 1.218,4.184 0.675,3.579 0.369,2.773 -0.163,1.379 -0.274,0.105 0,0" fill="#0f141b"/>
  </g>
  <g transform="matrix(.51711 0 0 -.51711 139.65 56.024)">
   <path d="M 0,0 C -0.847,1.629 0.362,1.542 1.481,-0.066 2.357,-1.328 2.878,-2.46 2.571,-2.617 2.206,-2.8 0.509,-0.983 0,0" fill="#0f141b"/>
  </g>
  <g transform="matrix(.51711 0 0 -.51711 127.83 120.11)">
   <path d="m0 0c1.08-1.104 2.911-3.236 3.512-4.188-0.677-0.192-2.265-0.328-4.481-0.243-0.445 0.019-0.56-1.834-0.116-1.85 3.274-0.126 6.488 0.481 6.869 1.5 0.569 1.512-5.321 6.568-5.378 6.613-0.345 0.281-0.66-1.572-0.406-1.832" fill="#0f141b"/>
  </g>
  <g transform="matrix(.51711 0 0 -.51711 125.08 124.99)">
   <path d="m0 0c1.074 0.365 1.996 0.179 2.146-0.104 0.5-1.392 0.402-5.366 0.185-6.477-1.543 1.067-3.92 3.03-4.325 3.561-0.202 1.244 0.258 2.428 1.994 3.02m-0.519 1.527c-1.737-0.589-3.742-2.362-3.213-5.082 0.214-1.097 5.098-4.859 5.146-4.89 2.155-1.494 2.638-1.099 2.638 2.246 0 2.003-0.06 6.021-0.455 6.812-0.648 1.299-2.564 1.444-4.116 0.914" fill="#0f141b"/>
  </g>
  <g transform="matrix(.51711 0 0 -.51711 120.12 127.19)">
   <path d="m0 0c0-0.71-0.358-2.613-1.283-5.442-0.345-1.056-0.621-0.746-0.991-0.101-0.562 0.973-2.805 5.633-2.826 6.573 0.475 0.604 5.1 0.366 5.1-1.03m-4.767 2.877c-1.527-0.311-1.868-1.131-1.933-1.594-0.222-1.554 2.97-8.072 3.003-8.13 1.303-2.258 2.564-3.865 3.947 0.364 1.243 3.799 1.834 6.654 1.347 7.463-1.035 1.723-4.489 2.275-6.364 1.897" fill="#0f141b"/>
  </g>
  <g transform="matrix(.51711 0 0 -.51711 153.85 159.78)">
   <path d="m0 0c0.23-0.458 2.554-1.562 2.306-1.189-2.384 3.56 1.891 7.048 4.111 5.852 2.81-1.513 5.247-3.278 8.333-5.509 3.261-2.359 3.64-3.695-6.279-3.929-0.445-0.011 0.867-1.723 1.254-1.707 10.918 0.42 11.989 2.044 6.004 6.92-3.056 2.493-5.642 4.619-8.548 6.183-4.981 2.682-8.282-4.418-7.181-6.621" fill="#0f141b"/>
  </g>
  <g transform="matrix(.51711 0 0 -.51711 148.4 165.59)">
   <path d="m0 0m1.142 1.142c-1.197 1.195-1.494 3.446-0.725 5.474 0.462 1.218 1.999 4.07 6.305 4.326 2.915 0.172 8.536-3.006 12.074-6.056 3.002-2.586 4.879-3.573-1.243-4.173-8.57-0.843-15.317-0.665-16.411 0.429m5.484 12.215c-3.642-0.216-6.598-2.167-7.789-5.306-0.914-2.411-1.583-6.58 0.87-8.715 2.163-2.163 13.938-0.951 18.541-0.499 8.759 0.86 7.273 2.844 2.14 7.271-3.036 2.616-9.848 7.487-13.762 7.249" fill="#0f141b"/>
  </g>
  <g transform="matrix(.51711 0 0 -.51711 104.83 182.86)">
   <path d="m0 0c-3.323 0.423-15.014 2.667-16.048 5.298-1.519 3.866 0.302 6.887 2.513 8.427 2.338 1.623 6.101 2.253 8.846-0.204 1.953-1.75 5.228-6.635 7.642-10.627 2.187-3.62 1.7-3.488-2.953-2.894m-18.552 8.211c0-1.065 0.273-2.612 0.75-3.824 1.535-3.909 18.098-6.518 18.133-6.525 8.119-1.049 7.713 0.08 4.541 5.33-1.202 1.986-5.86 9.184-8.484 11.532-7.02 6.28-14.94 0.098-14.94-6.513" fill="#0f141b"/>
  </g>
  <g transform="matrix(.51711 0 0 -.51711 112.46 179.79)">
   <path d="m0 0c-5.783 1.113-12.992 3.384-13.622 4.644-0.621 1.24-0.929 2.435-0.929 3.533 0 1.548 0.61 2.908 1.812 3.936 2.217 1.899 5.699 2.142 7.926 0.557 2.897-2.062 6.267-6.742 7.801-9.185 3.104-4.939 0.959-4.246-2.988-3.485m4.891 4.075c-1.597 2.542-5.667 7.704-8.767 9.909-2.807 1.995-7.159 2.247-9.914-0.107-2.624-2.246-3.432-6.089-1.606-9.741l0.315-0.709c1.436-2.87 15.18-5.254 15.313-5.28 8.512-1.636 8.24 0.228 4.659 5.928" fill="#0f141b"/>
  </g>
  <g transform="matrix(.51711 0 0 -.51711 42.316 107.48)">
   <path d="m0 0c-4.739-0.614-6-2.521-0.308-1.963 9.766 0.956 37.927 3.697 39.08 3.697 0.447 0 0.177 1.346-0.269 1.346-1.446 0-29.963-1.975-38.503-3.08" fill="#0f141b"/>
  </g>
  <g transform="matrix(.51711 0 0 -.51711 59.682 109.29)">
   <path d="m0 0c-4.133-2.052-13.635-6.27-19.006-8.592-4.884-2.114-4.175-3.6 0.762-1.357 5.853 2.662 16.188 7.521 18.781 8.937 5.257 2.873 2.417 2.478-0.537 1.012" fill="#0f141b"/>
  </g>
  <g transform="matrix(.51711 0 0 -.51711 42.918 108.13)">
   <path d="m0 0c0.232-0.971 2.788-7.492 5.772-10.986 2.165-2.533 2.072-0.938 1.354 0.134-2.476 3.693-4.641 9.126-5.155 11.282-0.103 0.433-2.074 4e-3 -1.971-0.43" fill="#0f141b"/>
  </g>
  <g transform="matrix(.51711 0 0 -.51711 61.595 105.21)">
   <path d="m0 0c0.65-1.797 1.221-2.922 1.615-3.825 0.921-2.115 2.063-2.754 1.232 0.267-0.387 1.403-0.854 2.829-2.017 4.626-1.126 1.74-1.567 0.969-0.83-1.068" fill="#0f141b"/>
  </g>
  <g transform="matrix(.51711 0 0 -.51711 67.829 102.9)">
   <path d="m0 0c0.518-1.343 1.103-2.646 1.852-3.954 1.231-2.15 1.861-1.557 1.225 0.186-0.652 1.783-1.619 3.651-2.205 4.643-0.982 1.662-1.974 1.985-0.872-0.875" fill="#0f141b"/>
  </g>
  <g transform="matrix(.51711 0 0 -.51711 80.097 94.561)">
   <path d="m0 0c-0.4-0.363-20.873-16.353-22.103-17.676-0.928-1.001 0.498-1.694 0.754-1.349 0.686 0.927 18.882 14.907 19.85 15.664 1.224 0.957 1.828 3.661 1.499 3.361" fill="#0f141b"/>
  </g>
  <g transform="matrix(.51711 0 0 -.51711 75.343 103.31)">
   <path d="m0 0c-0.468-0.08-6.592-2.458-7.095-2.701-1.919-0.921-1.287-1.343 0.761-0.75 0.624 0.18 2.821 0.55 4.932 1.541 2.324 1.094 3.046 2.184 1.402 1.91" fill="#0f141b"/>
  </g>
  <g transform="matrix(.51711 0 0 -.51711 57.254 108.81)">
   <path d="m0 0c0.263-0.718 0.875-1.157 1.366-0.978 0.491 0.181 0.678 0.909 0.417 1.628-0.261 0.718-0.874 1.157-1.366 0.977-0.491-0.18-0.678-0.908-0.417-1.627" fill="#0f141b"/>
  </g>
  <g transform="matrix(.51711 0 0 -.51711 72.63 102.93)">
   <path d="m0 0c0.155-0.62 0.572-1.049 0.926-0.961 0.355 0.09 0.518 0.666 0.363 1.284-0.156 0.62-0.574 1.05-0.928 0.961-0.354-0.09-0.516-0.668-0.361-1.284" fill="#0f141b"/>
  </g>
  <g transform="matrix(.51711 0 0 -.51711 42.344 121.3)">
   <path d="m0 0c0.933-0.734 2.177-1.399 2.456-1.756-0.578-1.123-3.27-1.875-4.096-1.531 0.211 0.559 1.471 2.915 1.64 3.287m-1.071 1.536s-2.253-4.895-1.868-5.418c0.666-0.902 2.007-1.16 3.59-0.685 1.437 0.431 3.016 1.485 3.084 2.781 0.02 0.374 0.053 1.002-3.566 3.695-0.808 0.601-1.067 5e-3 -1.24-0.373" fill="#73a7be"/>
  </g>
  <g transform="matrix(.51711 0 0 -.51711 29.829 118.27)">
   <path d="m0 0c2.096-6e-3 10.151-0.747 11.557-1.2 0.523-1.247 1.645-8.207 1.647-9.781-0.429-0.271-5.561-3.59-6.447-3.978-0.331 0.181-6.236 3.056-7.116 3.666-0.023 0.28 0.124 9.495 0.359 11.293m-0.874 1.523c-0.267-0.085-0.542-0.352-0.61-0.623-0.254-1.017-0.88-11.747-0.304-12.709 0.179-0.298 8.297-4.905 8.297-4.905 0.52-0.367 7.44 4.307 7.784 4.523 0.193 0.095 0.442 0.314 0.501 0.795 0.141 1.147-0.996 10.375-1.971 11.21-0.938 0.805-12.602 2.057-13.697 1.709" fill="#73a7be"/>
  </g>
  <g transform="matrix(.51711 0 0 -.51711 58.029 80.863)">
   <path d="m0 0c-3.751 6.62-5.856 5.383-7.367 0.207-1.198-4.108-2.461-6.849-4.985-10.061-1.939-2.465 0.737-2.487 2.583 0.047 1.687 2.318 3.43 7.567 3.963 9.607 0.921 3.525 2.228 3.423 4.267-0.279 1.08-1.956 2.129-4.801 2.463-7.957 0.33-3.142 2.081-5.095 2.1-1.057 0.017 3.488-1.696 7.15-3.024 9.493" fill="#0f141b"/>
  </g>
  <g transform="matrix(.51711 0 0 -.51711 29.979 102.63)">
   <path d="m0 0h1e-3zm-0.855-0.887c0.188-0.243 1.098-1.311 1.22-1.635-0.461-0.341-1.376-0.998-1.552-1.097-0.085 0.098-1.284 1.32-1.563 1.66 0.401 0.356 1.544 1.025 1.895 1.072m-2.747 5e-3c-0.581-0.465-0.489-0.975-0.424-1.172 0.14-0.422 1.923-2.501 2.567-2.808 0.645-0.308 2.382 1.14 2.382 1.14 0.336 0.253 0.765 0.798 0.62 1.159-0.284 0.714-0.959 2.213-1.543 2.563-0.821 0.494-3.094-0.473-3.602-0.882" fill="#73a7be"/>
  </g>
  <g transform="matrix(.51711 0 0 -.51711 31.815 89.797)">
   <path d="m0 0c0.203-1.726 0.778-4.208 1.569-6.278 0.458-1.198 1.01-2.652 1.047-3.12-1.467-2.19-2.221-3.127-2.512-3.417-0.278 0.036-6.169 0.742-6.169 0.742 0 1.917 3.321 10.749 4.478 12.039 0.327 0.052 1.296 0.159 1.587 0.034m-2.782 0.909c-0.475-0.594-5.508-12.062-4.42-13.996 0.284-0.507 7.148-0.949 7.148-0.949 0.967-0.192 2.015 1.185 4.106 3.879 0.488 0.626-0.407 1.59-1.561 4.424-1.275 3.128-0.905 6.74-2.177 7.077-0.621 0.163-2.623 0.157-3.096-0.435" fill="#73a7be"/>
  </g>
  <g transform="matrix(.51711 0 0 -.51711 25.769 75.361)">
   <path d="m0 0c0.625-0.419 5.839-2.976 6.505-3.401-0.702-1.035-1.728-2.774-2.567-3.912-1.08 0.016-4.37 0.347-5.082 0.664-0.533 0.838-1.794 3.433-2.153 4.418 0.759 0.439 3.022 2.066 3.297 2.231m-2.002 0.272c-1.288-0.964-3.023-1.487-3.204-2.135-0.264-0.954 2.817-5.29 2.848-5.337 0.526-0.79 3.897-1.418 5.661-1.543 1.107-0.077 1.473 0.129 2.025 1.183 0.914 1.753 2.976 4.227 2.905 4.526-0.143 0.605-3.712 2.001-6.559 3.662-2.274 1.327-2.055 0.858-3.676-0.356" fill="#73a7be"/>
  </g>
  <g transform="matrix(.51711 0 0 -.51711 22.094 64.093)">
   <path d="m0 0c0.319-0.217 1.449-1.018 1.667-1.191-0.225-0.292-1.035-1.576-1.191-1.786-0.231 0.15-1.495 1.023-1.727 1.191 0.209 0.347 1.038 1.47 1.251 1.786m-0.945 0.574c-0.366-0.517-1.414-2.183-1.319-2.668 0.039-0.202 0.657-0.75 0.657-0.75 0.833-0.611 1.329-0.938 1.727-1.015 0.749-0.15 1.287 0.652 1.588 1.052 0.302 0.401 0.974 1.095 0.905 1.676-0.033 0.284-0.542 1.144-2.283 2.164-0.615 0.361-0.919 0.045-1.275-0.459" fill="#73a7be"/>
  </g>
  <g transform="matrix(.51711 0 0 -.51711 34.456 76.387)">
   <path d="m0 0c0.135-0.099 1.426-1.289 1.426-1.289-0.319-0.335-2.039-1.767-2.53-2.253-0.017 0.026-0.709 1.112-0.828 1.288 0.348 0.412 1.518 1.872 1.932 2.254m-0.497 0.789h-1e-3c-0.023-0.015-2.437-2.074-2.557-2.9-0.028-0.195 0.072-0.499 0.18-0.664l1.156-1.711c0.152-0.222 0.322-0.243 0.591-0.24 0.428 4e-3 3.294 2.926 3.294 2.926 0.273 0.2 0.425 0.698 0.087 1.179-0.724 1.021-2.075 1.86-2.75 1.41" fill="#73a7be"/>
  </g>
 </g>
</svg>
