<?xml version="1.0" encoding="UTF-8" standalone="no"?>
<!-- Created with Inkscape (http://www.inkscape.org/) -->

<svg
   version="1.1"
   viewBox="0 0 215.24 213.29"
   id="svg2698"
   sodipodi:docname="82.svg"
   inkscape:version="1.2.2 (b0a8486, 2022-12-01)"
   xmlns:inkscape="http://www.inkscape.org/namespaces/inkscape"
   xmlns:sodipodi="http://sodipodi.sourceforge.net/DTD/sodipodi-0.dtd"
   xmlns="http://www.w3.org/2000/svg"
   xmlns:svg="http://www.w3.org/2000/svg">
  <defs
     id="defs2702" />
  <sodipodi:namedview
     id="namedview2700"
     pagecolor="#505050"
     bordercolor="#eeeeee"
     borderopacity="1"
     inkscape:showpageshadow="0"
     inkscape:pageopacity="0"
     inkscape:pagecheckerboard="0"
     inkscape:deskcolor="#505050"
     showgrid="false"
     inkscape:zoom="1.5647916"
     inkscape:cx="131.96645"
     inkscape:cy="127.81255"
     inkscape:window-width="1309"
     inkscape:window-height="456"
     inkscape:window-x="91"
     inkscape:window-y="340"
     inkscape:window-maximized="0"
     inkscape:current-layer="svg2698" />
  <path
     d="m 173.774,179.84 c 5.869,5.5513 1.4275,17.292 -9.3597,13.168 z"
     fill="#dbdcdc"
     id="path2338" />
  <path
     d="m 173.314,189.29 c -2.4591,3.652 -6.5193,5.1821 -9.0712,3.4173 -2.552,-1.7649 -2.6253,-6.1575 -0.1663,-9.8095 2.4566,-3.6495 6.5168,-5.1797 9.0688,-3.4148 2.552,1.7649 2.6277,6.1575 0.16837,9.807"
     fill="#b4b4b5"
     id="path2340" />
  <path
     d="m 154.434,131.1 c 17.316,10.993 22.442,33.943 11.45,51.257 -10.993,17.319 -33.943,22.445 -51.259,11.45 -17.314,-10.993 -22.44,-33.941 -11.447,-51.257 10.993,-17.316 33.941,-22.442 51.257,-11.45"
     fill="#bbe2e8"
     id="path2342" />
  <path
     d="m 154.434,131.1 c -12.132,-7.7023 -27.025,-7.4799 -38.639,-0.70884 42.501,2.1193 44.044,34.889 36.141,50.311 -7.9028,15.422 -22.555,16.385 -32.699,15.591 16.588,7.5214 36.605,1.8846 46.647,-13.936 10.993,-17.314 5.8666,-40.264 -11.45,-51.257"
     fill="#a2c3c9"
     id="path2344" />
  <path
     d="m 108.753,173.76 c -1.7355,-2.1192 -4.2801,1.3444 -8.0201,4.0773 2.4933,5.495 6.3531,10.433 11.45,14.266 -3.4295,-8.1253 -2.6595,-16.028 -3.4295,-18.343"
     fill="#a2c3c9"
     id="path2346" />
  <path
     d="m 116.654,194.67 v 17.292 l 11.926,0.0554 c 0,0 -0.0554,-11.755 0.0784,-12.491 -7.6876,-0.86779 -12.004,-4.8595 -12.004,-4.8595"
     fill="#b5b5af"
     id="path2348" />
  <path
     d="m 128.804,199.43 c -7.3162,-0.64302 -12.149,-4.7593 -12.149,-4.7593 v 2.948 c 3.5444,2.8038 7.6559,4.4782 11.909,5.8666 0,0 0.13444,-3.1435 0.23974,-4.0553"
     fill="#898884"
     id="path2350" />
  <path
     d="m 116.524,203.06 0.1372,8.9001 11.926,0.0554 0.0756,-8.2915 z"
     fill="#00a4e3"
     id="path2352" />
  <path
     d="m 147.144,197.72 c -2.9846,0.99487 -6.2552,1.5644 -6.2552,1.5644 l 0.264,13.31 h 12.374 c 0,0 0.10051,-17.453 -0.0554,-17.927 0,0 -3.339,2.0582 -6.3237,3.0531"
     fill="#b5b5af"
     id="path2354" />
  <path
     d="m 153.464,194.67 c 0,0 -2.0607,1.7746 -6.0402,3.2657 -3.9795,1.4935 -6.2528,1.4226 -6.2528,1.4226 v 4.1922 c 4.1921,0.14205 8.135,-0.0277 12.364,0.0706 0.0139,-5.126 0.0277,-8.6581 -0.0707,-8.9514"
     fill="#898884"
     id="path2356" />
  <path
     d="m 141.174,203.87 -0.0208,8.7217 h 12.374 c 0,0 0.0277,-4.4831 0.0346,-8.9686 -4.1164,0.35477 -12.386,0.24668 -12.386,0.24668"
     fill="#e50020"
     id="path2358" />
  <path
     d="m 153.544,207.17 c 0.006,-1.122 0.007,-2.332 0.007,-3.542 -4.1164,0.35476 -12.386,0.24667 -12.386,0.24667 l -0.003,1.7722 c 2.7427,1.3346 8.2743,1.6866 12.381,1.5229"
     fill="#c60019"
     id="path2360" />
  <path
     d="m 22.73,118.35 c -5.4706,5.1748 -1.496,17.138 9.2399,13.034 z"
     fill="#dbdcdc"
     id="path2362" />
  <path
     d="m 23.258,127.71 c 2.4591,3.652 6.5193,5.1822 9.0712,3.4148 2.5495,-1.7624 2.6253,-6.1551 0.16622,-9.807 -2.4566,-3.6495 -6.5168,-5.1797 -9.0688,-3.4148 -2.552,1.7649 -2.6277,6.1551 -0.16864,9.807"
     fill="#b4b4b5"
     id="path2364" />
  <path
     d="m 28.369,118.65 c 0,0 -0.71376,0.4691 -1.3713,0.92892 -1.4789,-0.16354 -1.6744,0.69151 -1.8186,1.2955 -0.29088,1.2271 0.43508,5.3288 4.6028,6.1868 2.5373,-1.9042 2.9846,-2.3369 2.9846,-2.3369 z"
     fill="#dbdcdc"
     id="path2366" />
  <path
     d="m 25.64,120.19 c -0.23219,0.21965 -0.40335,0.45247 -0.45954,0.68458 -0.37153,1.5644 0.95821,5.4364 4.6004,6.1868 2.5397,-1.9042 2.9871,-2.3368 2.9871,-2.3368 l -0.71376,-0.9851 c -2.8258,-0.43791 -5.3924,-1.4715 -6.4141,-3.5493"
     fill="#b4b4b5"
     id="path2368" />
  <path
     d="m 46.706,135.83 c -1.2271,1.0902 -1.6891,4.62 -1.4153,9.6701 0.27369,5.0477 2.3197,24.014 2.3197,24.014 l 11.462,3.0017 4.5026,-4.2289 c -1.0902,-13.508 -1.6378,-19.103 -1.0902,-21.152 0.17323,-0.65757 3.4099,-2.4542 4.6371,-0.68181 1.2295,1.7747 2.1853,4.0944 2.3222,8.597 0.13443,4.5026 1.364,19.514 1.364,19.514 l 11.325,2.8648 5.1847,-6.4142 c 0,0 -0.81887,-28.382 -2.3198,-32.611 -1.5009,-4.2312 -3.1827,-4.796 -3.1827,-4.796 z"
     fill="#b5b5af"
     id="path2370" />
  <path
     d="m 87.318,171.01 c 0,0 -0.81887,-28.382 -2.3197,-32.613 -1.5009,-4.2289 -3.1827,-4.7935 -3.1827,-4.7935 l -35.109,2.222 c -0.56195,0.49889 -0.96065,1.5082 -1.2051,2.9357 2.0411,2.2782 6.7906,7.5948 11.743,9.1592 0.04846,3.4784 0.85554,13.843 0.85554,13.843 l 0.9729,10.748 4.5026,-4.2312 c -1.0926,-13.508 -1.6377,-19.103 -1.0926,-21.149 0.176,-0.65964 3.4124,-2.4566 4.6395,-0.68181 0.34437,0.49612 1.5082,3.0971 1.7966,3.7131 4.5613,1.4349 8.1472,1.9702 11.797,2.3613 0.25915,2.2147 0.84576,12.76 0.84576,12.76 l 0.57235,12.141 z"
     fill="#898884"
     id="path2372" />
  <path
     d="m 58.063,161.37 -11.494,-2.5055 1.0413,10.645 11.462,3.0017 4.5026,-4.2288 c -0.38388,-4.7617 -1.0168,-10.455 -1.0168,-10.455 z"
     fill="#e50020"
     id="path2374" />
  <path
     d="m 62.716,157.69 -4.6029,3.6813 c 0.24946,4.2533 0.46702,7.673 0.97291,11.249 l 4.4904,-4.3364 c -0.38596,-4.7617 -0.86038,-10.594 -0.86038,-10.594"
     fill="#c60019"
     id="path2376" />
  <path
     d="m 81.36,165.46 -11.547,-2.4419 0.99494,11.55 11.325,2.8649 5.1847,-6.4142 -0.4788,-11.555 z"
     fill="#00a4e3"
     id="path2378" />
  <path
     d="m 87.318,171.01 -0.4788,-11.555 -5.478,5.9961 0.77245,11.973 z"
     fill="#008fc5"
     id="path2380" />
  <path
     d="m 25.161,103.18 c -0.96555,0 -4.1482,-1.1024 -7.5361,-3.8646 -3.344,-2.728 -17.192,-15.984 -17.192,-15.984 l 1.7355,-10.487 6.9079,-1.887 c 0,0 16.299,12.865 17.436,13.481 0.72112,0.3908 1.9335,-0.19332 1.9335,-0.19332 0,0 0.38622,-2.706 -3.6715,-6.182 -4.0577,-3.4784 -20.286,-15.845 -20.286,-15.845 l 2.3197,-10.614 8.7486,-0.97289 c 0,0 21.584,14.292 24.481,17.382 1.0315,1.1025 2.1266,2.706 2.1266,2.706 z"
     fill="#b5b5af"
     id="path2382" />
  <path
     d="m 36.459,75.82 c 1.5644,-1.5644 5.7053,-5.0991 5.7053,-5.0991 0,0 -1.0951,-1.6035 -2.1266,-2.7059 -2.8966,-3.0897 -24.481,-17.382 -24.481,-17.382 l -8.7803,0.79683 c 0,0 21.865,15.454 23.821,17.148 1.9555,1.694 5.6002,4.1139 5.8617,7.2428"
     fill="#898884"
     id="path2384" />
  <path
     d="m 27.209,88.65 1.8015,-4.3388 c 0,0 -1.7771,0.51829 -2.4982,0.12682 -1.1367,-0.61599 -17.436,-13.479 -17.436,-13.479 l -7.1401,1.9335 c 7.3406,5.737 14.425,11.748 19.773,16.075 2.9235,2.0484 4.8986,0.18085 5.4999,-0.31804"
     fill="#898884"
     id="path2386" />
  <path
     d="m 16.1796,58.13 c 0,0 5.0184,-1.2466 8.2915,-1.5082 -4.8424,-3.3024 -8.9148,-5.9986 -8.9148,-5.9986 l -8.7461,0.9729 -2.3222,10.614 9.5577,7.458 z"
     fill="#00a4e3"
     id="path2388" />
  <path
     d="m 15.557,50.63 -8.6312,0.74557 c 0,0 6.9397,5.1088 9.2155,6.6219 1.5717,-0.28132 6.1379,-1.1219 8.3917,-1.4837 -4.8424,-3.3025 -8.9759,-5.8837 -8.9759,-5.8837"
     fill="#008fc5"
     id="path2390" />
  <path
     d="m 10.77551,79.97 6.9128,-2.2562 -8.6117,-6.7588 -6.9079,1.8871 -1.7331,10.487 8.5066,8.3501 z"
     fill="#e50020"
     id="path2392" />
  <path
     d="m 9.0762,70.95 -7.0204,1.8529 c 2.9553,2.4078 5.6197,4.8815 8.8341,7.2794 l 6.7906,-2.5886 z"
     fill="#c60019"
     id="path2394" />
  <path
     d="m 99.144,102.3 c 0,20.511 -16.627,37.138 -37.138,37.138 -20.511,0 -37.138,-16.627 -37.138,-37.138 0,-20.511 16.627,-37.138 37.138,-37.138 20.511,0 37.138,16.627 37.138,37.138"
     fill="#bbe2e8"
     id="path2396" />
  <path
     d="m 62.007,65.17 c -0.47394,0 -0.94352,0.0139 -1.4153,0.0346 21.56,18.152 24.645,54.97 0.53562,69.06 -1.6989,1.6989 -3.4051,3.3929 -5.5879,4.6078 2.1022,0.36931 4.2607,0.57441 6.4679,0.57441 20.511,0 37.138,-16.627 37.138,-37.138 0,-20.511 -16.627,-37.138 -37.138,-37.138"
     fill="#a2c3c9"
     id="path2398" />
  <path
     d="m 58.477,107.1 c 4.5491,6.2479 3.6593,14.644 -1.9873,18.756 -5.6466,4.114 -13.914,2.3833 -18.463,-3.8646 -4.5491,-6.2479 -3.6593,-14.647 1.9873,-18.758 5.6466,-4.1115 13.914,-2.3808 18.463,3.8671"
     fill="#ffffff"
     id="path2400" />
  <path
     d="m 167.524,93.36 c 0,21.306 -17.272,38.58 -38.58,38.58 -21.306,0 -38.58,-17.275 -38.58,-38.58 0,-21.308 17.275,-38.58 38.58,-38.58 21.308,0 38.58,17.272 38.58,38.58"
     fill="#bbe2e8"
     id="path2402" />
  <path
     d="m 98.729,102.05 c -1.1928,-1.1929 -4.7177,-0.17323 -7.167,0.87507 1.7771,6.9593 3.344,10.257 8.3232,15.124 -3.2609,-8.6826 3.2779,-12.53 -1.1562,-15.999"
     fill="#a2c3c9"
     id="path2404" />
  <path
     d="m 128.944,54.78 c -10.23,0 -19.521,3.9893 -26.427,10.484 12.55,0.22242 20.047,-0.58204 27.822,-4.6615 37.397,19.084 20.626,60.336 7.326,60.529 -2.53,0.0346 -4.1164,8.1302 -5.6759,10.677 19.88,-1.5546 35.534,-18.169 35.534,-38.448 0,-21.308 -17.275,-38.58 -38.58,-38.58"
     fill="#a2c3c9"
     id="path2406" />
  <path
     d="m 134.994,166.56 c 7.7122,-0.49404 14.327,4.7593 14.772,11.731 0.44484,6.9715 -5.4462,13.021 -13.161,13.515 -7.7121,0.49127 -14.324,-4.7593 -14.772,-11.731 -0.44276,-6.9714 5.4486,-13.021 13.161,-13.515"
     fill="#ffffff"
     id="path2408" />
  <path
     d="m 79.689,14.725 -10.975,6.969 c 0,0 12.198,30.218 13.762,33.738 3.5518,7.9908 12.281,11.689 17.756,10.655 8.5872,-1.6256 14.869,-5.0306 21.543,-10.161 5.8324,-4.4904 6.2773,-12.332 3.762,-17.659 -5.2726,-11.164 -14.649,-30.78 -14.649,-30.78 l -8.5066,-6.9373 -11.569,7.3821 c 0,0 12.432,27.287 14.156,31.963 1.7233,4.6762 1.5473,7.1695 -1.4055,9.3842 -2.442,-0.20995 -4.0138,-2.8282 -4.9573,-4.7984 -1.628,-3.4026 -12.024,-26.211 -12.024,-26.211 z"
     fill="#b5b5af"
     id="path2410" />
  <path
     d="M 98.605,44.481 C 96.977,41.0784 86.579,18.267 86.579,18.267 l -7.1206,-3.5737 c 1.0706,2.6229 9.939,22.589 14.708,31.841 1.2198,2.1364 2.3882,3.4466 3.0286,3.8793 2.1755,1.4667 5.4364,0.0929 6.045,-1.1831 -2.2587,-0.40327 -3.735,-2.8673 -4.6346,-4.7495"
     fill="#898884"
     id="path2412" />
  <path
     d="M 125.534,38.266 C 120.2614,27.102 110.885,7.486 110.885,7.486 l -8.399,-7.1352 c 1.6989,3.515 8.0714,17.48 11.112,23.921 8.5652,18.587 10.252,22.205 8.4039,28.123 -0.50583,1.6206 -2.4004,4.0284 -3.6104,5.6441 0.75041,-0.53769 2.6228,-1.5326 3.3806,-2.1144 5.8324,-4.488 6.2772,-12.332 3.7619,-17.659"
     fill="#898884"
     id="path2414" />
  <path
     d="m 108.452,13.49 8.3379,6.0254 -5.9032,-12.029 -8.5066,-6.9372 -11.567,7.3846 5.5733,12.513 z"
     fill="#e50020"
     id="path2416" />
  <path
     d="M 116.564,19.319 110.8856,7.488 102.665,0.563 c 1.8675,4.1995 3.911,8.8243 5.9326,12.853 z"
     fill="#c60019"
     id="path2418" />
  <path
     d="m 84.427,26.493 7.2721,2.9504 -5.1211,-11.176 -6.8884,-3.5444 -10.975,6.969 4.6518,11.562 z"
     fill="#00a4e3"
     id="path2420" />
  <path
     d="m 86.579,18.268 -7.0423,-3.4931 c 1.738,4.3633 2.943,6.8762 5.0917,11.799 l 7.1523,2.9089 z"
     fill="#008fc5"
     id="path2422" />
  <path
     d="m 197.004,39.796 c -3.691,1.7233 -29.607,15.647 -34.139,18.179 -6.4924,3.6275 -9.8974,10.628 -9.8534,17.348 0.0415,5.9399 4.3022,20.122 7.9101,22.342 3.608,2.7744 8.3306,5.5049 12.767,5.6906 3.3317,0.13928 7.079,-0.41574 13.322,-3.3318 6.2454,-2.9137 27.756,-14.432 27.756,-14.432 l -3.6495,-13.437 -6.2039,-4.1873 c 0,0 -26.038,12.567 -27.759,13.307 -3.4466,-0.98511 -3.4466,-4.1849 -2.2171,-6.3996 1.232,-2.2146 6.3995,-5.1699 9.3523,-6.6463 2.9553,-1.4764 22.398,-11.073 22.398,-11.073 l -3.718,-12.227 z"
     fill="#b5b5af"
     id="path2424" />
  <path
     d="m 177.094,64.83 c -8.0446,4.5124 -10.614,9.2961 -7.5484,15.732 2.1828,2.6424 5.4681,2.3173 7.607,0.70885 -3.4442,-0.98511 -3.4442,-4.1824 -2.2146,-6.3995 1.2295,-2.2146 6.3995,-5.1675 9.3524,-6.6439 2.9528,-1.4764 22.396,-11.076 22.396,-11.076 l -6.1673,-4.6444 c -4.4513,2.3417 -14.674,7.4579 -23.425,12.322"
     fill="#898884"
     id="path2426" />
  <path
     d="m 179.094,97.15 c -6.5632,3.0286 -13.102,3.4662 -18.174,0.51344 3.608,2.7769 8.3306,5.5048 12.767,5.6906 3.3293,0.13928 7.0766,-0.41574 13.322,-3.3318 6.2454,-2.9137 27.201,-14.227 27.201,-14.227 l -5.8348,-3.7326 c 0,0 -22.506,11.958 -29.282,15.087"
     fill="#898884"
     id="path2428" />
  <path
     d="m 188.844,58.35 6.7417,4.2924 11.103,-5.4852 -3.7155,-12.225 -5.9693,-5.1332 c -1.4814,0.69153 -12.009,6.3359 -12.009,6.3359 z"
     fill="#e50020"
     id="path2430" />
  <path
     d="m 206.684,57.16 -3.7156,-12.225 -5.8641,-5.0453 3.4198,12.437 -11.516,6.1306 6.573,4.1848 z"
     fill="#c60019"
     id="path2432" />
  <path
     d="m 202.894,92.15 11.868,-6.5559 -3.6495,-13.439 -6.2039,-4.1873 -12.907,6.221 4.0162,14.288 z"
     fill="#00a4e3"
     id="path2434" />
  <path
     d="m 194.364,113.76 c -3.1215,1.3689 -26.791,12.77 -30.531,14.987 -4.439,2.6376 -8.465,8.1888 -8.1619,14.679 0.24944,5.3166 1.4446,13.931 6.5363,17.267 5.0917,3.3415 8.2548,3.9697 11.545,4.1286 5.9009,0.28616 31.843,-13.701 31.843,-13.701 l -2.1658,-11.97 -5.1798,-3.1851 c 0,0 -21.843,10.619 -23.298,11.205 -2.7964,-0.78956 -2.5569,-5.2335 -0.71134,-6.2088 4.7177,-2.4982 27.277,-12.3 27.277,-12.3 l -2.3614,-11.115 z"
     fill="#b5b5af"
     id="path2436" />
  <path
     d="m 169.744,148.71 c 1.8846,0.22242 3.6569,-0.4788 5.4535,-1.4984 -3.2584,-1.4349 -2.6889,-5.3313 -0.95579,-6.2479 4.7177,-2.4982 27.297,-12.63 27.297,-12.63 l -5.4534,-3.3562 c 0,0 -17.404,7.3357 -24.183,11.506 -6.7784,4.1726 -4.2973,11.975 -2.1585,12.227"
     fill="#898884"
     id="path2438" />
  <path
     d="m 171.614,161.24 c -5.605,1.1734 -9.5162,-0.60837 -9.411,-0.54046 5.0893,3.339 8.2524,3.9697 11.543,4.1286 5.9033,0.28616 32.166,-13.999 32.166,-13.999 l -6.0035,-2.4835 c 0,0 -22.689,11.721 -28.294,12.894"
     fill="#898884"
     id="path2440" />
  <path
     d="m 203.434,139.15 -5.1797,-3.1875 -11.188,5.341 1.9996,12.232 6.4239,2.811 10.11,-5.2286 z"
     fill="#e50020"
     id="path2442" />
  <path
     d="m 203.434,139.15 -5.0795,-3.1094 -0.49889,-0.0138 2.129,12.381 -10.579,5.2115 6.2626,2.7867 9.9317,-5.2897 z"
     fill="#c60019"
     id="path2444" />
  <path
     d="m 185.504,129.62 5.9326,3.4466 10.039,-4.5246 -2.3198,-10.995 -4.7934,-3.784 c -1.2198,0.53493 -10.653,5.0501 -10.653,5.0501 z"
     fill="#00a4e3"
     id="path2446" />
  <path
     d="m 211.114,72.15 -6.6488,-4.0651 c 1.0878,3.6691 3.806,14.134 3.806,14.134 l -12.251,6.2504 7.0057,3.6324 11.738,-6.5144 z"
     fill="#008fc5"
     id="path2448" />
  <path
     d="m 201.444,128.48 -2.0974,-10.667 -5.1846,-4.0455 2.0069,11.147 -10.577,4.7959 5.962,3.295 z"
     fill="#008fc5"
     id="path2450" />
  <path
     d="m 127.424,126.56 c 0,0 1.2027,-1.3493 1.3078,-2.5006 -1.4667,-1.2589 1.3053,-2.5324 1.3053,-2.5324 l 0.64995,-1.9164 c 0,0 4.7715,-2.2611 7.3626,1.7258 -0.10536,0.71376 -0.0708,1.2442 -0.19055,1.8797 0.42268,1.034 0.74557,2.5202 -0.44483,2.7231 -0.0554,1.1098 -0.0554,3.3342 -0.0554,3.3342 z"
     fill="#dbdcdc"
     id="path2452" />
  <path
     d="m 137.854,123.6 c 0.1199,-0.63331 0.20026,-1.5473 0.30557,-2.2635 -1.0707,-1.6476 -2.354,-2.1316 -3.6422,-2.3002 -0.34438,0.61599 -0.29311,1.8553 -0.29311,1.8553 0,0 1.7208,1.6158 1.3933,1.8724 -0.32496,0.25638 -2.2464,0.47395 -2.2464,0.47395 l -0.11712,2.1291 c 0,0 1.7722,1.3004 -1.5571,2.2244 l 5.4682,1.3396 c 0,0 0.23005,-1.9189 0.2446,-2.992 1.1904,-0.20026 0.78949,-1.4178 0.44484,-2.3393"
     fill="#b4b4b5"
     id="path2454" />
  <path
     d="m 122.664,130.99 c -0.55987,3.432 1.5155,6.7001 4.7251,8.2083 0.68459,-0.49889 3.9673,-0.1102 5.0575,0.74072 2.3099,-0.39357 6.5657,-2.9308 7.1328,-6.4044 0.63817,-8.4552 -15.876,-9.6628 -16.915,-2.5446"
     fill="#dbdcdc"
     id="path2456" />
  <path
     d="m 136.984,128.49 c -1.2075,5.5977 -6.6292,9.7704 -11.978,9.059 0.64302,0.61807 1.3909,1.1464 2.2146,1.5571 1.0095,-0.63539 2.7671,0.0624 3.8549,0.0624 0.28339,0.28339 0.5668,0.56678 0.8506,0.8531 3.6447,-0.2931 7.1475,-3.1265 7.7317,-6.6831 0.16629,-2.2269 -1.188,-3.6568 -2.6742,-4.8473"
     fill="#b4b4b5"
     id="path2458" />
  <path
     d="m 137.934,134.03 c -2.0704,1.4789 -5.4828,1.342 -5.4828,1.342 l 0.4206,-4.9841 -4.18,-0.49891 c 0,0 -0.61322,3.0678 -0.76754,5.214 -4.2582,-1.5963 -5.2409,-4.1825 -5.258,-4.1164 -0.22242,1.3615 -0.12682,2.4468 0.38873,3.6568 1.4398,1.342 4.4489,2.992 4.4489,2.992 l 0.0756,1.4178 c 1.0486,-0.35684 3.8402,-0.0138 4.2948,0.61322 0.12475,0.0784 -0.33744,-1.1416 0.0784,-1.496 1.8015,0.38386 5.385,-0.97285 5.385,-0.97285 0,0 0.65756,-1.9262 0.59658,-3.168"
     fill="#888888"
     id="path2460" />
  <path
     d="m 98.716,176.6 c 0,0 0.55709,-1.078 0.87272,-1.6036 -0.73337,-1.3591 1.6671,-2.0312 1.6671,-2.0312 l 1.21,-1.5571 c 0,0 4.6395,-1.1758 6.4752,2.992 -0.27647,0.86529 -0.46425,1.4006 -0.73573,2.1242 0.14412,0.96307 -0.0929,1.7698 -0.82379,2.1144 -0.0415,0.2349 -0.90445,2.024 -0.90445,2.024 z"
     fill="#dbdcdc"
     id="path2462" />
  <path
     d="m 108.109,176.79 c 0.27161,-0.72352 0.55502,-1.5278 0.83107,-2.3931 -0.57927,-1.3176 -1.4397,-2.0973 -2.3442,-2.5544 -0.43999,0.84085 -0.8531,1.7624 -0.8531,1.7624 0,0 0.87514,1.2075 0.77488,1.5644 -0.10259,0.35477 -1.2149,0.20302 -1.8284,0.20302 -0.30071,0.60353 -0.8653,1.8797 -0.8653,1.8797 l 0.61114,1.7258 2.0411,1.6842 c 0,0 0.86045,-1.7918 0.90445,-2.0264 1.6134,-0.75776 0.46909,-1.1513 0.72845,-1.8456"
     fill="#b4b4b5"
     id="path2464" />
  <path
     d="m 92.761,179.88 c -1.0218,3.0457 0.17392,6.3286 2.728,8.2817 1.3395,-0.54046 2.7133,0.21549 3.2266,1.518 3.9062,0.90194 7.8589,-1.1073 9.0835,-4.752 0.51553,-7.5313 -12.464,-11.264 -15.038,-5.0478"
     fill="#dbdcdc"
     id="path2466" />
  <path
     d="m 105.265,179.35 c 0.64302,6.0328 -5.3019,9.0785 -10.902,7.7708 0.34714,0.38595 0.74556,0.73331 1.1684,1.056 1.3542,-0.66728 2.3907,0.21479 3.4711,1.5571 3.8108,0.73816 7.6021,-1.2516 8.795,-4.8058 0.1566,-2.2562 -0.90687,-4.1677 -2.5324,-5.5781"
     fill="#b4b4b5"
     id="path2468" />
  <path
     d="m 100.675,185.78 1.4739,-4.268 -3.608,-1.5229 c 0,0 -1.32,2.9162 -1.9311,4.3682 -1.9286,-0.96556 -3.0947,-2.7916 -3.7815,-4.6249 -0.02077,0.0485 -0.3132,2.5446 -0.3326,2.5935 -0.42544,1.2637 3.3537,4.5197 3.3537,4.5197 l -0.47396,1.2222 c 0,0 1.0854,-0.21481 1.9971,0.20024 1.0804,0.49404 1.2149,1.3762 1.5522,1.4446 -0.05538,-0.62568 0.58204,-1.3933 0.58204,-1.3933 0,0 3.2095,0.45731 4.9841,0.53769 0.0784,-0.0415 0.16145,-0.0784 0.23697,-0.12474 0.56195,-1.0071 0.77245,-1.3273 1.1294,-2.8502 -4.1164,0.55709 -5.1822,-0.10259 -5.1822,-0.10259"
     fill="#888888"
     id="path2470" />
  <path
     d="m 93.442,111.11 c 0,0 1.6231,-0.56957 2.4811,-1.1611 0.64786,1.7136 2.1975,-1.3616 2.1975,-1.3616 l 1.7502,-0.95823 c 0,0 1.4495,-4.8839 -2.7573,-7.101 -0.66727,0.16352 -1.936,0.42544 -2.5275,0.59381 -0.76996,-0.40326 -1.8064,-0.49405 -2.3296,0.8678 -1.7819,0.57164 -2.4811,0.74065 -2.4811,0.74065 z"
     fill="#dbdcdc"
     id="path2472" />
  <path
     d="m 98.934,102.56 c -0.46702,0.34438 -1.9164,0.67212 -1.9164,0.67212 0,0 0.19055,1.628 0.19055,1.9164 0,0.28616 -2.0118,-1.342 -2.0118,-1.342 l -2.0118,0.67004 c 0,0 0.6354,1.6695 0.45939,2.1755 -0.17391,0.5086 -1.6427,-0.4497 -2.3882,-0.52799 l 2.1854,4.9939 c 0,0 1.6231,-0.56957 2.4786,-1.1586 0.5869,1.5448 1.7723,-0.51552 2.2,-1.3616 l 1.6231,-0.86288 c 0,0 0.9362,-2.8257 -0.8091,-5.1748"
     fill="#b4b4b5"
     id="path2474" />
  <path
     d="m 85.445,100.56 c -3.5272,0.91665 -6.3652,4.3951 -5.8323,8.6874 1.0144,0.66519 1.9017,3.1068 1.298,4.2802 1.76,3.1484 5.3948,4.6028 8.8463,3.7082 6.6635,-2.2244 3.5738,-16.664 -4.3119,-16.676"
     fill="#dbdcdc"
     id="path2476" />
  <path
     d="m 81.101,111.53 c 0.15868,0.66518 0.04846,1.4324 -0.09567,1.87 1.7356,3.2266 5.1602,4.7422 8.6557,3.8353 2.3075,-0.77003 3.3904,-3.0947 3.5884,-5.5879 -4.0553,1.5498 -8.113,1.5277 -12.149,-0.11712"
     fill="#b4b4b5"
     id="path2478" />
  <path
     d="m 88.837,106.91 c 0,0 -3.4564,1.0144 -4.8546,1.4006 -0.63054,-1.4642 -0.23003,-3.8133 0.38388,-5.654 -0.88,0.0853 -2.3638,0.60628 -2.948,0.9876 -0.98269,2.5691 -0.22243,5.5488 -0.22243,5.5488 l -1.2687,0.25429 c 0,0 0.67698,1.0413 0.98511,1.87 0.41089,1.1098 0.0623,2.2195 0.0623,2.2195 l 1.5865,-0.0957 c 0,0 1.7111,2.5349 3.2339,3.6128 1.2075,0.48642 1.9409,0.26884 3.2682,0.0735 -1.5301,-0.80427 -3.3122,-2.7622 -4.0602,-4.4464 1.4569,-0.60353 4.8815,-1.6182 4.8815,-1.6182 z"
     fill="#888888"
     id="path2480" />
  <path
     d="m 62.908,132.73 c 0,0 1.2051,-0.9411 1.87,-1.4397 -0.69421,-1.4398 1.7869,-1.4814 1.7869,-1.4814 l 1.8773,-1.4202 c 0,0 4.7398,0.19055 5.3313,4.9084 -0.52038,0.76019 -1.0511,1.7698 -1.5962,2.442 -0.39357,0.48642 0.28341,1.4422 -1.3909,2.0704 -1.3469,1.5254 -2.1707,1.8113 -2.1707,1.8113 z"
     fill="#dbdcdc"
     id="path2482" />
  <path
     d="m 70.006,129.04 c -0.36931,0.33259 -1.0144,1.2393 -1.0144,1.2393 0,0 1.3126,1.166 0.72354,1.5302 -0.5869,0.36447 -2.1193,0.26884 -2.1193,0.26884 0,0 -1.2222,0.95338 -1.5351,1.342 -0.45247,0.56196 -0.72845,0.93869 -1.5888,1.2051 l 4.1432,5.0013 c 0,0 0.8238,-0.28618 2.1707,-1.8113 1.6744,-0.62846 0.99729,-1.584 1.3909,-2.0704 0.54532,-0.67004 1.0755,-1.7942 1.5963,-2.5544 -0.35478,-2.8331 -2.2709,-3.6373 -3.7669,-4.1506"
     fill="#b4b4b5"
     id="path2484" />
  <path
     d="m 55.971,134.24 c -1.3396,1.8993 -1.6916,6.3799 0.23003,9.059 2.2171,-0.5086 3.652,2.046 3.5371,3.08 3.7057,1.5864 7.4163,0.7455 9.7727,-2.6009 2.7646,-7.3846 -9.1103,-14.992 -13.54,-9.5381"
     fill="#dbdcdc"
     id="path2486" />
  <path
     d="m 68.718,137.56 c -5.3411,6.7808 -10.037,6.1086 -13.471,4.043 0.25638,0.62085 0.59659,1.2174 1.0071,1.7747 1.7576,-0.37625 3.1387,0.96798 3.3733,2.7598 3.7155,1.7331 7.5459,0.95573 9.8828,-2.3638 0.81152,-2.1633 0.35684,-4.3462 -0.792,-6.2137"
     fill="#b4b4b5"
     id="path2488" />
  <path
     d="m 67.522,144.35 c -0.97283,-0.0554 -4.3144,-0.42267 -5.1773,-1.7649 0.95822,-1.4373 2.7231,-3.9868 2.7231,-3.9868 l -3.2217,-2.4175 -3.1435,3.7986 c 0,0 -2.5691,-2.723 -2.3027,-5.8691 -0.61599,0.90445 -1.2051,1.8871 -1.3786,2.9162 0.87263,2.9651 2.2219,5.0184 2.2219,5.0184 0,0 -0.23005,0.40813 -0.84334,1.0389 0.52315,0.76511 0.90203,-0.52314 2.3027,1.0755 1.342,1.5326 0.30557,0.87998 1.034,2.1071 0.24182,-0.5377 0.86294,-1.5376 0.86294,-1.5376 0,0 2.1071,1.4373 4.6957,1.9189 0.43999,-0.0929 1.5669,-1.6378 2.2269,-2.2978"
     fill="#888888"
     id="path2490" />
  <path
     d="m 137.074,49.503 c 0,0 -0.83357,-0.36169 -1.1366,0.50375 -0.24667,0.70398 0.44484,2.0851 0.10259,3.0677 -2.0411,-0.12197 -1.8895,2.8136 -1.8406,3.6814 -0.15175,0.45454 -0.17115,1.232 -0.30557,1.6378 0.15868,3.3537 6.5437,8.0641 11.176,5.0281 -0.0692,-0.0692 0.54255,-1.5571 1.2638,-3.2462 2.5838,0.23974 1.8259,-1.9872 1.5179,-3.4931 0.36933,-0.83351 0.62362,-1.3982 0.62362,-1.3982 z"
     fill="#b4b4b5"
     id="path2492" />
  <path
     d="m 132.764,43.274 c -0.51067,-1.8553 6.8688,-10.704 16.453,-7.3479 -0.59175,2.6375 4.5881,4.8571 6.2284,3.036 1.5986,1.276 5.2726,7.827 3.036,14.376 -7.189,4.7911 -22.682,0.95822 -25.718,-10.064"
     fill="#dbdcdc"
     id="path2494" />
  <path
     d="m 155.444,38.961 c -0.12475,0.1372 -0.27163,0.24459 -0.43238,0.33744 -0.31528,7.3822 -6.9788,12.432 -13.877,13.699 5.7932,2.9846 13.051,3.2022 17.346,0.33952 2.2342,-6.5486 -1.4397,-13.097 -3.036,-14.376"
     fill="#b4b4b5"
     id="path2496" />
  <path
     d="m 155.444,38.961 c -1.6426,1.8211 -6.8224,-0.39842 -6.2308,-3.036 -5.8862,-2.0606 -10.936,0.48434 -13.843,3.1826 0,0.20303 -0.3423,1.7404 -0.11021,1.3933 2.3149,-1.9677 8.2182,-4.0528 11.112,-1.9677 -1.8504,1.5058 -4.5931,5.8275 -5.4803,7.3723 1.5448,1.3102 4.7886,2.4689 4.7886,2.4689 0,0 3.8597,-5.5757 5.7004,-8.0299 2.4541,3.0678 4.0381,5.6247 4.6517,9.3059 1.2271,-0.56195 1.892,-1.0755 3.0751,-1.7404 -0.54532,-3.9721 -2.6009,-8.0983 -3.6642,-8.949"
     fill="#888888"
     id="path2498" />
  <path
     d="m 42.219,88.96 c -3.4051,2.904 -6.8542,2.8868 -7.7072,-0.0415 -0.85066,-2.926 1.2198,-7.6511 4.6224,-10.553 3.4051,-2.904 6.8542,-2.8844 7.7073,0.0415 0.85061,2.9235 -1.2174,7.6511 -4.6224,10.553"
     id="path2500"
     style="fill:#e0f1f4" />
  <path
     d="m 105.192,83.04 c -3.405,2.904 -6.8541,2.8844 -7.7072,-0.0415 -0.85069,-2.9259 1.2197,-7.651 4.6224,-10.553 3.4051,-2.904 6.8542,-2.8869 7.7073,0.0415 0.85061,2.9236 -1.2198,7.6511 -4.6224,10.553"
     id="path2502"
     style="fill:#e0f1f4" />
  <path
     d="m 117.114,156.15 c -3.1998,3.8524 -7.766,4.928 -10.201,2.398 -2.4347,-2.5251 -1.8138,-7.6975 1.3835,-11.547 3.1998,-3.8549 7.7659,-4.9279 10.201,-2.4004 2.4347,2.5251 1.8162,7.6974 -1.3835,11.55"
     id="path2504"
     style="fill:#e0f1f4" />
  <path
     d="m 132.564,87.63 c 5.9277,8.3599 4.769,19.599 -2.5886,25.102 -7.3553,5.5024 -18.125,3.1875 -24.053,-5.1748 -5.9252,-8.3599 -4.7666,-19.599 2.5886,-25.102 7.3577,-5.5024 18.128,-3.1851 24.053,5.1748"
     fill="#ffffff"
     id="path2508" />
  <path
     d="m 117.354,195.29 c 0,0 -0.0851,14.918 -0.0851,16.057 1.0414,0.003 9.6482,0.0415 10.699,0.0484 -0.003,-1.1244 -0.0277,-12.765 -0.0277,-12.765 l 1.6378,0.44691 c 0,0 -0.0485,12.479 -0.0485,12.88 0,0.40118 -0.13444,0.73087 -0.80177,0.7333 -0.67004,0.003 -11.032,0.0706 -11.767,-0.0623 -0.73572,-0.13443 -0.73572,-0.46909 -0.73572,-0.93618 0,-0.46909 -0.4206,-17.003 -0.4206,-17.003 z"
     id="path2510"
     style="fill:#0f141b" />
  <path
     d="m 154.374,211.05 c -0.0415,1.3811 0.4303,2.3246 -1.2051,2.2391 -1.6353,-0.0881 -11.606,0.0138 -12.141,-0.0554 -0.53562,-0.0692 -0.7358,-0.66728 -0.66727,-1.0682 0.0692,-0.4012 -0.10536,-13.168 -0.10536,-13.168 l 1.606,-0.51551 c 0,0 -0.0881,12.371 -0.0957,13.501 h 11.146 c 0.0138,-2.9529 0.0277,-6.4557 0.0277,-9.5479 0,-3.9868 -0.0208,-7.2526 -0.0756,-7.6388 l 1.4251,-0.61876 c 0.12475,0.37902 0.1199,15.742 0.0853,16.874"
     id="path2512"
     style="fill:#0f141b" />
  <path
     d="m 128.394,203.13 -0.0277,0.84334 -11.582,-0.47395 0.0277,-0.84576 z"
     id="path2514"
     style="fill:#0f141b" />
  <path
     d="m 153.154,204.02 -11.582,0.15868 -0.007,-0.84332 11.582,-0.15868 z"
     id="path2516"
     style="fill:#0f141b" />
  <path
     d="m 175.544,190.68 c -2.2538,3.5835 -6.2235,4.8106 -11.044,2.9675 l 0.0957,-1.1048 c 4.3511,1.6621 8.1326,0.77238 10.117,-2.3858 1.9702,-3.1337 1.4251,-7.4188 -1.2686,-9.9683 l 0.30765,-0.9118 c 3.6153,3.2731 4.0064,7.8808 1.7917,11.403"
     id="path2518"
     style="fill:#0f141b" />
  <path
     d="m 173.664,179.19 c -1.0682,-0.73821 -2.6327,-1.0975 -4.0724,-0.82372 -0.33952,0.0623 -0.67696,0.16352 -1.0144,0.28339 -0.32982,0.5086 -0.65964,1.0193 -0.9851,1.5302 0.70885,-0.41782 1.4471,-0.71134 2.1804,-0.85068 1.1782,-0.22034 2.2489,-0.0277 3.0971,0.55709 2.3271,1.6109 2.3466,5.7077 0.0415,9.1299 -1.3738,2.0411 -3.3513,3.4784 -5.2873,3.8426 -1.1782,0.22242 -2.2488,0.0346 -3.0971,-0.55502 -1.4593,-1.0096 -2.0093,-2.9969 -1.6499,-5.1822 -0.34438,0.43723 -0.70157,0.86039 -1.0682,1.2808 0.007,1.98 0.78221,4.004 2.2122,4.994 1.0706,0.73822 2.6033,0.87265 4.048,0.60144 2.1877,-0.41297 4.1384,-2.1804 5.6564,-4.4342 1.249,-1.8553 1.8699,-3.9062 1.8699,-5.7468 0,-1.9922 -0.49126,-3.6324 -1.9311,-4.6273"
     id="path2520"
     style="fill:#0f141b" />
  <path
     d="m 169.784,180.92 c 1.7062,-0.28132 2.3906,1.0951 1.9604,2.4737 0.3617,0.65272 -0.41089,5.275 -4.6297,5.6197 -0.87507,0.0706 -1.3762,-0.43028 -1.5498,-0.68943 -0.17113,-0.25915 -3.1802,-1.8406 -3.1973,-1.8456 l 0.2737,-0.75042 c 0.0708,0.0277 1.7575,0.65757 4.2215,2.4762 3.718,-0.8482 4.1751,-3.7204 4.1751,-5.0331 0.20995,-1.0462 -0.22036,-1.562 -1.254,-1.3909 -1.034,-0.51552 -2.7695,-2.3466 -2.7695,-2.3466 l 0.50097,-0.62083 c 0,0 1.3224,1.3322 2.2684,2.1071"
     id="path2522"
     style="fill:#0f141b" />
  <path
     d="m 171.424,183.67 c -0.36447,0.9118 -4.9499,3.9966 -8.0153,3.3171 l 0.13444,-0.59867 c 2.64,0.5869 7.4603,-2.9284 7.739,-3.6226 z"
     id="path2524"
     style="fill:#0f141b" />
  <path
     d="m 170.004,181.54 -0.62085,-0.40812 c -0.16352,0.41089 -1.9213,1.8064 -3.8768,2.7573 -0.0554,0.33468 -0.21479,0.62362 -0.42544,0.88492 2.3833,-0.99003 4.6835,-2.6326 4.9231,-3.234"
     id="path2526"
     style="fill:#0f141b" />
  <path
     d="m 21.171,128.98 c 2.2538,3.5835 6.2235,4.8106 11.044,2.9675 l -0.09775,-1.1048 c -4.3486,1.6622 -8.1301,0.76996 -10.115,-2.3857 -1.9702,-3.1337 -1.4251,-7.4188 1.2686,-9.9683 l -0.308,-0.9118 c -3.6153,3.2731 -4.0064,7.8808 -1.7918,11.403"
     id="path2528"
     style="fill:#0f141b" />
  <path
     d="m 23.049,117.49 c 1.0682,-0.74071 2.6326,-1.0976 4.0724,-0.82379 0.3398,0.0623 0.6771,0.16352 1.0144,0.28339 0.33246,0.50859 0.65999,1.0193 0.98511,1.5302 -0.70889,-0.41781 -1.4471,-0.71132 -2.1804,-0.85067 -1.1782,-0.22242 -2.2488,-0.0277 -3.0971,0.55709 -2.3271,1.6109 -2.3466,5.7052 -0.04153,9.1299 1.3738,2.0411 3.3513,3.4784 5.2873,3.8426 1.1782,0.22242 2.2489,0.0277 3.0971,-0.55709 1.4593,-1.0096 2.0093,-2.9945 1.65,-5.1798 0.34466,0.43515 0.70155,0.86045 1.0682,1.2784 -0.0083,1.9824 -0.78221,4.0064 -2.2122,4.9964 -1.0682,0.73823 -2.6033,0.87265 -4.048,0.60144 -2.1878,-0.41297 -4.3217,-2.2 -5.8373,-4.4561 -1.2515,-1.8553 -1.6891,-3.8842 -1.6891,-5.7248 0,-1.9922 0.49133,-3.6324 1.9311,-4.6272"
     id="path2530"
     style="fill:#0f141b" />
  <path
     d="m 26.923,119.21 c -1.7062,-0.28131 -2.3906,1.0951 -1.9604,2.4738 -0.36177,0.65272 0.41068,5.275 4.6297,5.6197 0.8751,0.0708 1.2882,-0.31318 1.5278,-0.51344 0.41311,-0.34438 3.2022,-2.0166 1.9066,-1.6768 l -0.55979,-0.6548 c 0.12959,0.16631 -0.15888,0.21758 -2.6229,2.0362 -3.718,-0.84825 -4.1726,-3.7204 -4.1726,-5.0356 -0.21264,-1.0437 0.21757,-1.5595 1.2515,-1.3884 1.034,-0.51552 2.2171,-1.8651 2.2171,-1.8651 l -0.5011,-0.62085 c 0,0 -0.77,0.85068 -1.716,1.6256"
     id="path2532"
     style="fill:#0f141b" />
  <path
     d="m 25.287,121.96 c 0.36419,0.9118 4.9499,3.9966 8.0152,3.3171 l -0.13194,-0.59867 c -2.6424,0.58689 -7.4628,-2.9284 -7.7415,-3.6226 z"
     id="path2534"
     style="fill:#0f141b" />
  <path
     d="m 26.705,119.83 0.62092,-0.40812 c 0.1638,0.41089 1.9213,1.8065 3.8768,2.7574 0.054,0.33468 0.21508,0.62362 0.4253,0.88485 -2.3833,-0.98996 -4.6835,-2.6351 -4.9231,-3.2339"
     id="path2536"
     style="fill:#0f141b" />
  <path
     d="m 61.655,149.64 c 0,2.6644 0.3617,7.0815 0.96556,14.483 0,0 0.27647,3.4099 0.31805,3.9209 -0.36654,0.34438 -3.6202,3.4002 -4.0406,3.7937 -0.59659,-0.1566 -9.9855,-2.6156 -10.724,-2.8087 -0.29102,-2.7157 -2.024,-18.983 -2.2709,-23.562 -0.04846,-0.90445 -0.07352,-1.76 -0.07352,-2.5593 0,-3.476 0.45454,-5.8812 1.2833,-6.6194 l -0.81645,-0.91665 c -1.3738,1.2222 -1.9189,4.6395 -1.6206,10.161 0.27161,5.0062 2.0777,22.753 2.2146,23.65 0.13928,0.89468 0.34715,0.89468 0.82865,1.034 0.48434,0.1372 11.041,3.0629 11.525,2.9798 0.48434,-0.0803 4.8228,-4.3462 4.9646,-4.6639 0.14413,-0.31805 -0.36654,-4.5099 -0.36654,-4.5099 -0.59659,-7.3039 -1.0927,-11.797 -0.96314,-14.4 0.0929,-1.8357 0.4497,-1.7502 0.5772,-2.2513 0.05538,-0.0831 -0.16838,-0.24944 0.04846,-0.39079 -0.54047,0.0858 -1.0926,0.13927 -1.6499,0.15867 -0.13443,0.58898 -0.20025,1.386 -0.20025,2.5006"
     id="path2538"
     style="fill:#0f141b" />
  <path
     d="m 87.887,170.21 c 0.06923,-0.82865 -0.62362,-28.028 -2.1389,-32.298 -1.5571,-4.3878 -3.1118,-4.972 -3.3122,-5.038 l -1.3811,1.1734 c 0.01385,0.006 2.0191,0.7626 3.3635,4.5563 1.386,3.9038 2.2,29.607 2.2782,32.198 -0.25637,0.31803 -4.3609,5.3924 -4.7935,5.9302 -0.68459,-0.17115 -9.7605,-2.4689 -10.521,-2.662 -0.19541,-2.4151 -1.2051,-15.019 -1.3273,-19.042 -0.15175,-4.994 -1.3127,-7.3162 -2.4273,-8.927 -0.11713,-0.16838 -0.2543,-0.31043 -0.4012,-0.43722 -0.4206,0.25637 -0.87507,0.4788 -1.3566,0.67004 0.32289,0.0623 0.57164,0.21271 0.74799,0.46424 1.0144,1.4667 2.0704,3.5933 2.2098,8.2671 0.1372,4.4659 1.3102,19.274 1.3224,19.426 0,0 0,0.62085 0.62085,0.75776 0.56472,0.12474 9.235,2.5227 11.21,2.8404 0.39842,0.0623 0.46702,-0.007 0.70642,-0.25152 1.1587,-1.188 4.6786,-5.742 4.9231,-6.1087 0.27647,-0.41297 0.20787,-0.68944 0.27647,-1.518"
     id="path2540"
     style="fill:#0f141b" />
  <path
     d="m 58.61,144.32 c -1.8968,1.9164 -0.58204,11.99 0.20024,21.284 l 0.56749,6.8859 -0.61114,0.0485 -0.70884,-7.3015 c -1.0022,-11.897 -1.8602,-19.707 0,-21.477 z"
     id="path2542"
     style="fill:#0f141b" />
  <path
     d="m 81.016,148.59 c 0.67489,9.4452 1.276,27.813 1.2858,27.998 l -0.55709,0.52314 c -0.0069,-0.1857 -1.0168,-19.154 -1.6915,-28.595 -0.67212,-9.4159 -2.4859,-10.67 -4.2411,-11.885 l 0.80669,-0.41575 c 1.7844,1.2369 3.7033,2.6644 4.3975,12.374"
     id="path2544"
     style="fill:#0f141b" />
  <path
     d="m 62.82,158.03 -4.7617,3.9086 -11.565,-2.7768 0.13443,-0.80183 c 0,0 10.993,2.6351 11.274,2.706 0.22519,-0.17323 4.5271,-3.7278 4.5271,-3.7278 z"
     id="path2546"
     style="fill:#0f141b" />
  <path
     d="m 87.283,159.35 -5.7126,6.4092 -11.613,-2.4346 0.1199,-0.86779 c 0,0 10.929,2.2928 11.266,2.3638 0.22728,-0.2543 5.4756,-6.1453 5.4756,-6.1453 z"
     id="path2548"
     style="fill:#0f141b" />
  <path
     d="m 16.3874,50.34 c 0.24688,0.14412 21.186,14.151 24.1,17.258 1.0511,1.122 2.0582,2.4811 2.0582,3.1019 0,0.62084 -1.2442,0.82865 -1.2442,0.82865 -0.0097,-0.0138 -0.72355,-2.0411 -1.7111,-3.0922 -2.6986,-2.8795 -22.362,-15.957 -24.188,-17.17 -0.39842,0.0485 -7.3186,0.81645 -8.0886,0.90196 -0.16624,0.76025 -1.9947,9.1202 -2.1438,9.8021 2.1975,1.6745 16.277,12.432 20.005,15.627 3.5713,3.0628 3.894,5.6344 3.894,6.4606 0,0.15868 -0.01246,0.2543 -0.01731,0.27647 l -0.0443,0.32289 -0.2958,0.14205 c -0.15404,0.0734 -1.5229,0.70648 -2.4909,0.18084 -1.1122,-0.60351 -14.86,-11.437 -17.282,-13.347 -0.51579,0.14205 -5.583,1.5254 -6.2284,1.7014 -0.11491,0.69907 -1.5229,9.2008 -1.6182,9.7776 1.7869,1.7086 13.862,13.237 16.92,15.73 3.4466,2.8086 6.4288,3.4833 7.0913,3.4833 l 0.13194,1.738 c -1.2149,0 -4.0504,-0.75048 -7.3992,-3.4809 -3.3268,-2.7109 -16.632,-15.666 -17.116,-16.219 -0.48399,-0.55015 -0.82866,-0.82621 -0.6893,-1.6549 0.12225,-0.73087 1.166,-8.0226 1.5424,-9.9146 0.070886,-0.34923 0.23219,-0.52799 0.63068,-0.65757 1.4447,-0.47186 5.4413,-1.3934 6.177,-1.5058 0.8971,-0.13926 1.034,-0.20787 2.0704,0.62085 1.034,0.82864 15.554,12.215 16.353,12.647 0.22491,0.12197 0.65508,0.0415 1.0218,-0.0782 -0.07338,-0.77972 -0.55488,-2.8086 -3.4515,-5.2921 -3.9966,-3.427 -19.514,-15.146 -19.79,-15.422 -0.27619,-0.27645 -0.6893,-0.55223 -0.55246,-1.1733 0.12225,-0.54739 1.7966,-8.4577 2.1878,-10.442 0.070886,-0.34922 0.21508,-0.52037 0.63554,-0.59174 1.738,-0.28825 7.0106,-0.7773 7.8735,-0.83598 0.946,-0.0624 1.2369,0.0346 1.6573,0.27647"
     id="path2550"
     style="fill:#0f141b" />
  <path
     d="m 4.4936,74.43 c 4.7471,3.9135 17.358,14.312 18.12,14.769 0.37397,0.22519 1.6329,0.42544 2.9773,-0.10536 0.94598,-0.37416 2.1926,-1.232 2.7524,-3.1924 l 0.58912,0.1663 c -0.62819,2.2049 -2.0655,3.4588 -3.1386,3.8817 -1.3689,0.54047 -2.7793,0.38873 -3.4344,-0.004 -0.71133,-0.42753 -10.098,-8.1448 -18.196,-14.823 L 2.16882,73.47964 2.4915,72.783 Z"
     id="path2552"
     style="fill:#0f141b" />
  <path
     d="m 12.1823,54.91 c 7.5508,5.4046 20.186,14.451 21.758,16.023 2.4737,2.4737 2.7426,3.7913 2.7426,4.2435 h -0.61357 c 0,-0.20994 -0.1246,-1.3738 -2.5617,-3.8108 -1.5376,-1.5351 -14.642,-10.917 -21.682,-15.957 -2.7353,-1.958 -4.5417,-3.2511 -4.8082,-3.4638 l 0.3838,-0.4788 c 0.25424,0.20302 2.1535,1.5619 4.7813,3.4442"
     id="path2554"
     style="fill:#0f141b" />
  <path
     d="m 24.636,56.72 c 0,0 -7.7952,1.5082 -8.1863,1.5816 -0.07822,0.39634 -2.002,11.313 -2.002,11.313 l -0.6013,-0.11713 2.0802,-11.726 8.5995,-1.6549 z"
     id="path2556"
     style="fill:#0f141b" />
  <path
     d="m 17.6986,77.87 c 0,0 -6.2357,2.3002 -6.5804,2.4102 -0.054,0.36654 -1.8382,11.462 -1.8382,11.462 l -0.60622,-0.50582 1.6964,-11.679 6.7759,-2.178 z"
     id="path2558"
     style="fill:#0f141b" />
  <path
     d="m 62.247,64.2 c -21.076,0 -38.221,17.145 -38.221,38.221 0,18.345 13.134,33.836 30.941,37.7 -0.12474,-0.6354 -0.46425,-1.4349 -0.27647,-2.0705 -16.38,-3.5615 -29.118,-18.318 -29.118,-35.75 0,-20.088 16.343,-36.432 36.432,-36.432 12.471,0 23.496,6.2993 30.066,15.881 0.25914,-0.65272 0.58412,-1.2883 0.99979,-1.8969 -6.9617,-9.4819 -18.184,-15.654 -30.824,-15.654"
     id="path2560"
     style="fill:#0f141b" />
  <path
     d="m 69.356,137.99 c 0.37625,0.60837 0.67489,1.2026 0.90445,1.804 12.163,-2.6057 22.315,-11.288 27.172,-22.45 -0.58689,-0.73095 -0.62846,-1.5718 -1.3444,-2.1804 -4.3657,11.535 -14.424,20.296 -26.732,22.826"
     id="path2562"
     style="fill:#0f141b" />
  <path
     d="m 47.584,127.47 c -3.5835,-0.56195 -6.9299,-2.662 -9.1837,-5.7566 -2.2537,-3.0946 -3.2242,-6.9226 -2.6595,-10.506 0.49134,-3.1313 2.1071,-5.8324 4.5466,-7.6095 5.4315,-3.955 13.425,-2.2659 17.817,3.7668 2.2537,3.0946 3.2242,6.925 2.6595,10.506 -0.49127,3.1313 -2.1046,5.8324 -4.5441,7.607 -2.4395,1.7771 -5.5073,2.4836 -8.6362,1.9922 m 11.65,-20.804 c -4.6908,-6.4435 -13.647,-8.0666 -19.489,-3.8108 -5.5171,4.0161 -7.2795,12.811 -2.2929,19.66 4.9597,6.8102 13.596,7.8686 19.311,3.7082 5.8519,-4.263 7.0986,-13.205 2.4713,-19.558"
     id="path2564"
     style="fill:#0f141b" />
  <path
     d="m 46.882,115.79 c 0.42267,0.46218 0.50859,1.0731 0.19055,1.364 -0.31805,0.29103 -0.91914,0.15175 -1.342,-0.3132 -0.42267,-0.46217 -0.50859,-1.0731 -0.19055,-1.3616 0.31805,-0.29102 0.91907,-0.15176 1.342,0.31042"
     id="path2566"
     style="fill:#0f141b" />
  <path
     d="m 156.204,64.57 c -2.4053,-2.261 -5.0991,-4.2166 -8.0079,-5.825 -0.12474,0.61807 -0.46217,1.0608 -1.0242,1.4471 2.9602,1.6329 5.6832,3.6446 8.0934,5.979 0.26401,-0.55502 0.57719,-1.0926 0.93868,-1.6011"
     id="path2568"
     style="fill:#0f141b" />
  <path
     d="m 95.214,110.54 c -0.49612,0.30834 -0.9851,0.62846 -1.474,0.9533 5.5537,10.853 15.957,18.829 28.333,21.042 0.0346,-0.63333 0.0853,-1.2637 0.15658,-1.8968 -11.807,-2.1242 -21.724,-9.741 -27.016,-20.098"
     id="path2570"
     style="fill:#0f141b" />
  <path
     d="m 167.764,102.23 c -0.65756,-0.20302 -1.2662,-0.47394 -1.7942,-0.89467 -3.0432,14.136 -13.579,25.268 -27.563,28.71 0.27855,0.58898 0.75048,1.1782 0.96556,1.7941 14.432,-3.6226 25.099,-15.05 28.392,-29.609"
     id="path2572"
     style="fill:#0f141b" />
  <path
     d="m 91.072,93.36 c 0,-10.882 4.6175,-20.699 11.992,-27.61 -0.7651,0.007 -1.5351,0.003 -2.3099,-0.0277 -7.0228,7.1572 -11.362,16.954 -11.362,27.751 0,3.0164 0.34922,5.9522 0.98996,8.7755 0.55225,-0.13166 1.1049,-0.26399 1.6573,-0.41089 -0.6257,-2.728 -0.968,-5.5635 -0.968,-8.4797"
     id="path2574"
     style="fill:#0f141b" />
  <path
     d="m 134.484,54.18 c -1.7722,-0.2446 -3.5786,-0.37902 -5.4168,-0.37902 -1.7477,0 -3.4662,0.12474 -5.1552,0.34438 -0.58689,0.70641 -1.2051,1.3787 -1.8896,1.9897 2.2464,-0.41783 4.5564,-0.64509 6.9226,-0.64509 1.7844,0 3.5371,0.13166 5.258,0.37416 -0.23212,-0.54739 -0.25152,-1.034 0.28132,-1.6842"
     id="path2576"
     style="fill:#0f141b" />
  <path
     d="m 132.934,87.36 m -14.52,27.7 c -4.73,-0.7455 -9.147,-3.5786 -12.122,-7.7732 -5.7737,-8.1448 -4.6566,-19.123 2.4909,-24.466 3.1851,-2.3833 7.1915,-3.3415 11.279,-2.7011 4.73,0.7455 9.147,3.5762 12.122,7.7732 5.7761,8.1448 4.659,19.12 -2.4884,24.466 -3.1875,2.3833 -7.194,3.344 -11.281,2.7011 m -10.183,-32.978 c -7.541,5.6417 -8.9906,17.309 -2.9308,25.859 6.5412,9.2301 18.01,10.342 24.948,5.1529 8.179,-6.1159 8.9172,-17.504 3.0482,-25.786 -6.0132,-8.4821 -17.243,-11.076 -25.065,-5.2262"
     id="path2578"
     style="fill:#0f141b" />
  <path
     d="m 118.734,98.89 c 0.43722,0.48157 0.52799,1.1146 0.19539,1.4153 -0.32774,0.30281 -0.95329,0.15868 -1.3933,-0.32289 -0.43791,-0.4788 -0.52591,-1.1147 -0.19539,-1.4178 0.32981,-0.30073 0.95336,-0.1566 1.3934,0.32497"
     id="path2580"
     style="fill:#0f141b" />
  <path
     d="m 102.259,142.33 c -6.6904,10.538 -7.563,23.136 -3.4662,34.004 0.44485,-0.58689 0.91914,-1.1464 1.4398,-1.6597 -3.6251,-10.205 -2.7035,-21.914 3.5371,-31.746 3.3097,-5.2139 7.7366,-9.2961 12.77,-12.144 -0.39565,-0.32775 -0.79199,-0.68182 -1.2124,-1.0022 -5.143,2.9774 -9.6677,7.1915 -13.068,12.547"
     id="path2582"
     style="fill:#0f141b" />
  <path
     d="m 155.014,130.54 c -2.1829,-1.386 -4.4561,-2.5177 -6.7832,-3.41 -0.41573,0.38594 -0.87514,0.73087 -1.3762,1.034 2.4737,0.88976 4.8889,2.0582 7.2012,3.5248 1.3249,0.84092 2.5667,1.7625 3.7425,2.7378 0.29794,-0.40328 0.63054,-0.78472 0.99972,-1.1342 -1.1928,-0.98026 -2.4493,-1.9042 -3.784,-2.7524"
     id="path2584"
     style="fill:#0f141b" />
  <path
     d="m 170.894,164.34 c -0.3028,6.0719 -2.1242,12.146 -5.61,17.634 -5.2164,8.2156 -13.317,13.909 -22.816,16.03 -9.4965,2.1217 -19.252,0.41781 -27.468,-4.7984 -2.9162,-1.8504 -5.4706,-4.0553 -7.6608,-6.5144 -0.3326,0.65965 -1.0316,1.078 -1.4374,1.6231 2.2465,2.4762 5.1822,4.8864 8.1375,6.7613 8.619,5.473 18.854,7.2599 28.82,5.0379 9.9634,-2.2268 18.465,-8.201 23.936,-16.82 3.5982,-5.6662 5.5121,-11.926 5.8764,-18.194 -0.6236,-0.21273 -1.2076,-0.48434 -1.7771,-0.76019"
     id="path2586"
     style="fill:#0f141b" />
  <path
     d="m 126.284,187.96 c -2.3784,-2.0924 -3.7962,-4.9059 -3.9868,-7.9175 -0.19331,-3.0091 0.8531,-5.979 2.9456,-8.355 2.3979,-2.7231 5.9619,-4.4244 9.7825,-4.6689 3.8207,-0.2446 7.5728,0.99003 10.296,3.3855 2.3809,2.0924 3.7962,4.9035 3.9869,7.915 0.42751,6.7075 -5.2824,12.55 -12.728,13.026 -3.8206,0.2446 -7.5728,-0.99002 -10.296,-3.3855 m 8.8317,-22.283 c -8.157,0.52315 -14.195,7.2673 -13.738,14.424 0.4788,7.5264 7.5385,12.863 15.27,12.369 7.9541,-0.50583 14.038,-6.9959 13.579,-14.209 -0.37625,-5.9057 -5.4975,-13.2 -15.111,-12.584"
     id="path2588"
     style="fill:#0f141b" />
  <path
     d="m 136.124,181 c 0.61878,-0.11021 1.1782,0.1469 1.2516,0.57166 0.0756,0.42266 -0.36447,0.85559 -0.98025,0.96556 -0.61876,0.10744 -1.1782,-0.14689 -1.254,-0.57164 -0.0735,-0.42268 0.36447,-0.85554 0.9826,-0.96558"
     id="path2590"
     style="fill:#0f141b" />
  <path
     d="m 121.404,55.44 c -7.3724,5.6686 -13.537,8.5799 -21.281,10.044 C 95.2879,66.4007 86.659,63.328 83.041,55.186 81.6036,51.9521 71.022,25.763 69.477,21.939 c 0.70892,-0.44968 8.2646,-5.2457 9.9415,-6.3115 1.4618,4.2973 12.877,28.7 15.532,33.029 0.95821,1.5645 2.3711,2.6571 3.916,2.8404 4.2753,0.50583 7.8271,-2.9944 7.8271,-6.7881 0,-1.474 -0.44484,-3.124 -1.1465,-5.0233 -1.6059,-4.3584 -12.225,-27.727 -13.95,-31.518 0.80176,-0.51345 10.071,-6.4313 10.743,-6.859 0.6257,0.50858 7.8564,6.4068 8.0568,6.5681 0.11505,0.24668 14.588,30.653 14.588,30.653 0.90202,1.9067 1.4056,4.1287 1.4056,6.3873 0,3.8548 -1.474,7.8221 -4.9866,10.523 m -35.29,-36.72 c 0.87265,1.914 10.396,22.797 11.941,26.028 1.4813,3.0971 2.5202,4.4513 4.4024,4.747 -0.95572,0.54047 -2.2806,1.0291 -3.5835,0.87514 -1.2833,-0.15175 -2.3515,-0.90931 -3.1753,-2.2513 -2.7793,-4.5344 -13.606,-27.69 -15.383,-32.381 1.5595,0.80176 5.5097,2.8331 5.7982,2.9822 m 39.981,19.286 c 0,0 -12.994,-27.59 -14.559,-30.633 -0.14898,-0.28825 -0.10052,-0.23005 -0.39842,-0.48642 -1.3029,-1.1294 -7.189,-6.2284 -7.8002,-6.5951 -0.67489,-0.40812 -1.0804,-0.33952 -1.6231,-0.06923 -0.54047,0.26884 -10.479,6.6928 -11.156,7.0986 -0.67698,0.40603 -0.4109,1.0193 -0.20788,1.628 0.20302,0.60838 12.352,26.556 14.046,31.159 0.70399,1.9066 1.0658,3.3855 1.0658,4.6028 0,1.6402 -0.68182,2.8013 -2.0558,3.8964 -1.5449,-0.24667 -2.9382,-1.6622 -4.2435,-4.3902 -1.606,-3.3586 -11.745,-25.532 -12.08,-26.133 -0.27369,-0.49404 -0.45731,-0.64994 -1.0022,-0.86779 -0.43238,-0.17323 -4.4977,-2.1975 -5.6172,-2.8086 -0.7358,-0.40118 -1.32,-0.13927 -1.6451,0.04153 -2.2831,1.2809 -9.4966,6.0279 -10.249,6.4729 -0.74065,0.43722 -0.67698,0.54047 -0.40604,1.4202 0.27161,0.87999 12.205,29.851 13.757,33.342 3.5542,7.9956 12.401,12.149 18.431,11.007 7.9492,-1.5033 14.393,-4.3242 21.929,-10.12 6.0841,-4.6811 6.8321,-12.041 3.8157,-18.565"
     id="path2592"
     style="fill:#0f141b" />
  <path
     d="m 121.784,42.01 0.27647,0.96556 c 1.1611,3.955 3.1044,10.572 -6.4924,17.666 l -0.48434,-0.65272 c 9.1445,-6.7564 7.299,-13.034 6.199,-16.783 l -0.28133,-0.98753 c -0.97289,-3.6446 -17.473,-38.465 -18.851,-41.223 l 0.98026,0.03461 c 1.3835,2.7671 17.636,37.162 18.653,40.978"
     id="path2594"
     style="fill:#0f141b" />
  <path
     d="m 84.34,25.98 6.8175,2.9895 0.60144,0.75284 c -6.9837,-2.4786 -6.7637,-2.6155 -7.2306,-2.7817 -0.32012,0.19818 -10.958,6.5608 -10.958,6.5608 l -0.1857,-0.61114 10.773,-6.9763 z"
     id="path2596"
     style="fill:#0f141b" />
  <path
     d="m 108.51,12.845 7.541,5.8422 0.33952,0.94603 c -7.6143,-5.6784 -7.3968,-5.5732 -7.7512,-5.8348 -0.44277,0.25914 -11.765,6.7881 -11.765,6.7881 l -0.40812,-0.69907 11.829,-7.2013 z"
     id="path2598"
     style="fill:#0f141b" />
  <path
     d="m 202.434,45.279 c 0.0957,0.31804 3.6397,11.147 3.5126,11.555 -0.12682,0.41089 -19.203,9.477 -22.315,11.235 -3.1118,1.76 -7.7023,3.7546 -9.2325,6.507 -0.54532,0.98268 -0.8238,2.0362 -0.8238,3.0238 0,0.61322 0.10744,1.2051 0.32775,1.738 0.35477,0.85067 1.1758,1.9825 3.08,2.5276 l 0.20994,0.0554 0.20025,-0.0853 c 1.6353,-0.70157 24.417,-11.692 27.468,-13.166 0.51344,0.34715 5.3826,3.6349 5.7224,3.8622 0.11021,0.41089 3.2266,11.882 3.4613,12.748 -2.9627,1.5816 -21.601,11.53 -27.294,14.187 -6.5999,3.0775 -10.166,3.3929 -13.038,3.2731 -4.5319,-0.19055 -9.2546,-3.1313 -12.471,-5.6001 -3.3757,-2.0777 -7.5801,-16.138 -7.6168,-21.824 0,-0.0415 -0.003,-0.088 -0.003,-0.13166 0,-6.8957 3.735,-13.432 9.5405,-16.676 4.2508,-2.3736 29.115,-15.744 33.745,-17.986 0.53769,0.46217 5.2824,4.5441 5.5269,4.7544 m -6.1527,-5.7566 c -0.74307,0.40604 -29.36,15.48 -33.718,17.918 -6.3237,3.5322 -10.372,10.232 -10.32,17.732 0.0415,5.6222 4.0798,20.56 8.0519,23 3.3024,2.5422 8.5114,5.5928 13.366,5.7957 3.0286,0.12682 6.771,-0.19541 13.608,-3.388 6.1893,-2.8868 26.803,-13.774 27.346,-14.178 0.54047,-0.40812 0.76019,-0.52799 0.54047,-1.4226 -0.10744,-0.44001 -3.1802,-12.513 -3.652,-13.122 -0.47394,-0.60836 -5.3557,-3.7668 -6.023,-4.1677 -0.67004,-0.4012 -0.92649,-0.40605 -1.672,-0.0692 -0.74314,0.33952 -23.672,11.623 -26.678,12.99 -1.0389,-0.33952 -1.7502,-0.91907 -2.0924,-1.7453 -0.15659,-0.37625 -0.23213,-0.80669 -0.23213,-1.2589 0,-0.78465 0.22728,-1.6427 0.66727,-2.4347 1.0511,-1.8896 6.9201,-5.0648 8.8806,-6.0132 1.7991,-0.86779 21.394,-10.829 22.264,-11.364 0.50859,-0.31527 0.60145,-0.67004 0.46702,-1.1366 -0.13167,-0.46911 -3.2902,-11.041 -3.5102,-11.562 -0.22241,-0.51828 -5.9302,-5.6197 -6.1721,-5.7639 -0.23975,-0.1469 -0.37625,-0.21479 -1.1196,0.19055"
     id="path2600"
     style="fill:#0f141b" />
  <path
     d="m 200.994,52.31 0.0957,0.32497 -0.3028,0.15175 c -0.20787,0.10536 -20.787,10.421 -25.874,13.811 -5.0135,3.3415 -7.0105,7.497 -5.8299,11.281 0.55988,1.7844 1.3029,3.1289 2.6962,3.7009 1.5204,0.6236 3.3611,0.40118 5.3215,-0.64788 l 0.64301,0.73581 c -3.1117,1.5546 -5.0355,1.6842 -6.7881,0.96798 -1.6231,-0.66519 -2.5911,-2.2366 -3.2242,-4.2606 -0.23212,-0.73821 -0.34438,-1.4936 -0.34438,-2.2513 0,-3.5004 2.6987,-7.282 7.0766,-10.201 4.7935,-3.1949 22.885,-12.276 25.434,-13.559 -0.18361,-0.616 -3.2878,-12.036 -3.2878,-12.036 l 0.77729,-0.23005 z"
     id="path2602"
     style="fill:#0f141b" />
  <path
     d="m 208.774,82.01 0.0881,0.3132 -0.28617,0.15382 c -1.1244,0.60353 -27.663,15.016 -33.33,16.639 -10.296,2.9455 -14.373,-0.72111 -16.585,-3.564 l 0.63817,-0.49889 c 2.068,2.6595 5.9522,5.8666 15.776,3.0555 5.28,-1.5106 29.722,-14.554 32.599,-16.092 -0.1663,-0.59867 -3.5665,-13.667 -3.5665,-13.667 l 0.7798,-0.21757 z"
     id="path2604"
     style="fill:#0f141b" />
  <path
     d="m 189.104,58.12 c 0.23975,0.15868 6.3652,4.1995 6.3652,4.1995 l -0.82373,0.34229 -6.4557,-3.955 -3.5518,-12.76 0.77738,-0.22243 c 0,0 3.608,12.115 3.6886,12.396"
     id="path2606"
     style="fill:#0f141b" />
  <path
     d="m 192.484,74.2 c 0,0.85068 2.2415,9.0052 3.7326,14.06 0.28616,0.15383 6.7393,3.4246 6.7393,3.4246 l -0.38388,0.71376 -7.2233,-3.5737 -0.0485,-0.16352 c -0.38386,-1.298 -3.5615,-12.916 -3.5615,-14.168 z"
     id="path2608"
     style="fill:#0f141b" />
  <path
     d="m 207.114,57.19 -0.83105,0.33952 -6.3311,-4.857 0.51067,-0.76761 z"
     id="path2610"
     style="fill:#0f141b" />
  <path
     d="m 214.704,85.66 -0.44276,0.67696 -6.5926,-3.9038 0.63539,-0.95574 z"
     id="path2612"
     style="fill:#0f141b" />
  <path
     d="m 198.604,117.89 c 0.086,0.39843 2.024,9.5308 2.2122,10.408 -3.2853,1.43 -22.486,9.8046 -26.862,12.119 -1.0389,0.55017 -1.716,1.9726 -1.716,3.5102 0,0.18291 0.007,0.36654 0.0277,0.55224 0.17599,1.6598 0.85553,2.8894 2.2562,3.2853 l 0.46425,0.0485 0.1954,-0.0782 c 1.3884,-0.55988 20.428,-9.8095 23.031,-11.076 0.48849,0.30071 4.2606,2.6204 4.6614,2.8673 0.0908,0.49612 1.892,10.462 2.0362,11.259 -3.2315,1.7233 -25.847,13.674 -31.132,13.42 -3.3953,-0.16352 -6.4606,-0.89461 -11.237,-4.0283 -4.9158,-3.2218 -6.0304,-11.899 -6.2601,-16.783 -0.007,-0.22242 -0.0138,-0.44276 -0.0138,-0.65964 0,-6.0622 3.894,-11.098 7.8783,-13.461 3.6617,-2.1756 26.06,-12.97 30.13,-14.803 0.49612,0.39357 4.0235,3.1778 4.3266,3.4173 m -5.5708,-4.1311 c -1.0315,0.51552 -25.732,12.217 -29.514,14.461 -4.4415,2.6375 -8.602,8.1203 -8.2817,14.984 0.29309,6.2504 1.5326,14.657 6.6342,18.003 5.0086,3.2853 8.2474,4.0529 11.85,4.2289 6.0036,0.28824 30.504,-13.021 31.364,-13.537 0.96799,-0.58204 1.1073,-0.89953 0.99488,-1.7208 -0.0881,-0.63054 -1.5865,-8.4674 -2.0118,-10.499 -0.0957,-0.45454 -0.20025,-0.61322 -0.58412,-0.9093 -0.9998,-0.76267 -3.8084,-2.4738 -4.6836,-2.97 -0.40813,-0.23491 -0.76754,-0.25153 -1.7208,0.17114 -0.77487,0.34438 -19.594,9.4037 -22.117,10.523 -1.1415,-0.43236 -1.4202,-1.6231 -1.4764,-2.1437 -0.0138,-0.13928 -0.0208,-0.27856 -0.0208,-0.41782 0,-1.0755 0.43029,-2.0949 1.0633,-2.4298 4.6444,-2.459 25.564,-11.645 26.427,-12.075 0.86044,-0.4303 0.94601,-0.94603 0.86044,-1.6353 -0.0858,-0.68944 -1.7136,-9.3621 -2.0191,-9.9634 -0.30765,-0.60352 -4.0088,-3.3831 -4.6957,-4.07 -0.68943,-0.68944 -1.034,-0.51552 -2.068,0"
     id="path2614"
     style="fill:#0f141b" />
  <path
     d="m 196.524,124.84 0.0485,0.25638 -0.23974,0.10536 c -0.19055,0.0853 -19.238,8.4871 -23.589,11.186 -4.5294,2.8111 -5.0526,5.6197 -4.4292,9.2399 0.24667,1.4349 0.64786,2.2195 1.298,2.5496 0.99245,0.50097 2.8111,0.0554 5.7248,-1.4006 l 0.47188,0.64994 c -4.1311,2.0655 -5.7762,1.9433 -7.0033,1.3224 -1.0951,-0.55224 -1.4544,-1.9042 -1.6475,-3.0213 -0.13928,-0.80425 -0.22244,-1.5791 -0.22244,-2.3296 0,-2.7793 1.4446,-5.2506 5.2457,-7.6095 4.1996,-2.6058 21.352,-10.056 23.508,-11.007 -0.0957,-0.4885 -1.9286,-10.902 -1.9286,-10.902 l 0.64509,-0.12197 z"
     id="path2616"
     style="fill:#0f141b" />
  <path
     d="m 200.404,148.11 0.0415,0.24183 -0.0346,0.23697 c -0.92884,0.47396 -22.973,11.675 -27.764,12.809 -6.8908,1.6328 -11.369,-0.57927 -12.684,-2.3418 l 0.52591,-0.39081 c 1.2124,1.6231 5.407,3.471 11.99,1.9115 4.4953,-1.0658 24.869,-11.379 26.974,-12.447 -0.0853,-0.46217 -1.804,-11.413 -1.804,-11.413 l 0.64786,-0.1199 z"
     id="path2618"
     style="fill:#0f141b" />
  <path
     d="m 185.834,129.42 c 0.20995,0.12682 0.0784,-0.21757 5.9203,3.3513 l -0.34229,0.56194 -6.3458,-3.5689 -1.716,-10.67 0.64511,-0.11712 c 0,0 1.7869,10.161 1.8382,10.442"
     id="path2620"
     style="fill:#0f141b" />
  <path
     d="m 187.524,141.48 c 0,0.0138 1.2711,7.6975 1.9971,11.789 0.29795,0.13721 6.353,3.0188 6.353,3.0188 l -0.5377,0.2349 -6.5461,-2.7158 -0.0832,-0.15384 c -0.19055,-1.0658 -1.8578,-10.797 -1.8016,-11.789 z"
     id="path2622"
     style="fill:#0f141b" />
  <path
     d="m 201.324,127.8 -0.35685,0.55225 -5.1969,-3.1875 0.61322,-0.54047 z"
     id="path2624"
     style="fill:#0f141b" />
  <path
     d="m 205.884,150.52 -0.27855,0.59659 -5.9228,-2.5006 0.53562,-0.73823 z"
     id="path2626"
     style="fill:#0f141b" />
  <path
     d="m 109.306,174.23 c 0,0 -0.81887,2.0313 -0.81887,2.2905 0.34506,2.4101 -0.86038,2.3246 -0.86038,2.3246 0,0 -0.77981,1.9604 -0.792,1.9873 l -0.71626,-0.35477 c 0.3617,-0.72111 0.74065,-1.7575 1.166,-2.8379 0.43238,0.0784 0.67212,0.0784 0.55225,-1.2784 0.27855,-0.70649 0.4497,-1.2491 0.67212,-1.936 -1.5595,-3.3146 -5.0624,-2.8209 -5.8104,-2.6694 -0.0623,0.0853 -0.79692,1.0804 -0.94111,1.298 -1.3004,0.32497 -2.0607,1.3811 -1.1196,1.408 -0.82373,1.1709 -1.364,2.1437 -1.364,2.1437 l -0.77487,-0.0853 c 0,0 0.44762,-0.60628 0.87514,-1.4422 -0.28339,-1.1 -0.28825,-1.8431 1.6256,-2.2416 0.17322,-0.0853 1.2661,-1.4569 1.4593,-1.826 0.19539,-0.36932 4.8986,-1.205 6.8468,3.2193"
     id="path2628"
     style="fill:#0f141b" />
  <path
     d="m 106.45,173.68 c 1.1684,0.7773 1.848,1.7282 1.9164,2.6791 0,0 -0.14204,1.2833 -0.46702,0.23489 -0.32497,-1.0462 -0.8091,-1.7331 -1.7991,-2.3906 -1.4936,-0.99489 -4.0333,-1.0145 -5.319,-0.82138 -1.2833,0.19541 -1.1563,-0.24945 0.32774,-0.68667 1.4813,-0.43999 3.6691,-0.12682 5.3411,0.98511"
     id="path2630"
     style="fill:#0f141b" />
  <path
     d="m 105.623,175.41 c 1.2785,0.85068 1.8896,1.914 1.958,2.8967 l -0.47188,0.80418 c -0.0554,-0.78707 -0.87999,-2.4249 -1.9971,-3.1655 -1.5326,-1.0242 -4.1066,-1.4349 -5.2359,-1.0535 l 0.43999,-0.64509 c 1.3176,-0.44762 3.5958,0.0277 5.3068,1.1635"
     id="path2632"
     style="fill:#0f141b" />
  <path
     d="m 104.648,177.18 c 1.2369,0.80912 2.1364,2.2244 2.2024,3.1777 l -0.84327,-0.29587 c -0.0485,-0.74314 -0.68182,-1.5694 -1.7307,-2.2684 -1.5571,-1.0364 -4.5051,-1.6989 -4.7911,-1.1195 l -1.7355,-0.25152 c 1.2638,-1.0486 3.9722,-1.1562 6.8982,0.75776"
     id="path2634"
     style="fill:#0f141b" />
  <path
     d="m 100.738,176.58 c -3.9355,-0.92398 -7.233,0.30281 -8.4137,3.1533 -0.64302,1.9164 -0.48642,3.9966 0.43999,5.8593 0.48434,0.97041 1.1635,1.8358 1.9824,2.5568 1.0804,0.86779 1.0804,-0.3908 0.90445,-0.4497 -0.86287,-0.68667 -1.5766,-1.5424 -2.0631,-2.5178 -0.81645,-1.6426 -0.9558,-3.4735 -0.4012,-5.1259 1.1978,-2.8942 4.7031,-3.1998 7.3406,-2.5789 3.3465,0.78465 6.8248,3.295 6.8248,7.0081 0,0.11228 -0.005,0.23003 -0.007,0.34436 -1.2075,3.5053 -5.1455,5.3679 -8.927,4.29 -0.02769,0.36447 -0.01384,0.7015 0.12198,0.99245 4.1555,1.0071 8.4284,-1.0047 9.7337,-4.8913 l 0.0138,-0.0554 0.006,-0.0554 c 0.30765,-4.4733 -3.718,-7.6266 -7.5557,-8.5261"
     id="path2636"
     style="fill:#0f141b" />
  <path
     d="m 101.769,181.61 c -0.16145,0.49404 -1.2736,3.3317 -1.4202,3.8377 -0.14413,0.50583 0.24944,0.70641 0.24944,0.70641 0.69423,0.2446 2.4835,0.68183 4.7935,0.12475 -0.20302,0.45246 -0.52315,1.1244 -0.84576,1.7844 -0.4206,0.13444 -2.8967,0.45455 -4.7887,-0.13926 -0.44761,-0.14205 -0.58412,0.12682 -0.63539,0.33952 -0.04846,0.2148 -0.16145,0.43514 -0.2051,0.71618 -0.26886,-0.17876 -0.62846,-0.61322 -1.2246,-0.94838 -0.84334,-0.47186 -1.3811,-0.46425 -1.8016,-0.42059 0.0929,-0.11505 0.12682,-0.20303 0.24668,-0.54739 0.12197,-0.34438 -0.18084,-0.73823 -0.18084,-0.73823 -0.02769,-0.0138 -2.8306,-2.4322 -2.9749,-3.7668 -0.18084,-0.54254 -0.02077,-1.0536 0.14413,-1.3738 0.50374,0.81152 1.7355,2.6301 3.4515,3.5664 0,0 0.37902,0.20787 0.4497,-0.18085 0.07338,-0.38595 1.5033,-3.5786 1.8211,-4.1164 0.38872,0.15382 2.4909,0.9851 2.9211,1.1562 m -3.515,-1.6524 c -0.17877,0.36169 -0.87999,1.6427 -1.694,4.0382 -1.9457,-1.2246 -3.0702,-3.3513 -3.08,-3.3733 l -0.35199,-0.76026 -0.91179,2.2635 c 0.59658,2.5349 2.6082,4.1556 3.2169,4.6004 -0.0623,0.29795 -0.36654,1.0976 -0.36654,1.0976 0,0 0.08805,0.62084 0.36447,0.60352 0.27647,-0.0138 0.34438,-0.17323 0.86287,-0.15174 0.32775,0.0138 0.93134,0.27369 0.93134,0.27369 0,0 0.63817,0.31043 0.86287,0.56749 0.22519,0.25915 0.19055,0.86287 0.4497,0.98511 0.25637,0.11989 0.94845,-0.50097 0.94845,-0.50097 0,-0.003 0.18084,-0.82865 0.30765,-1.0218 2.7352,0.87507 4.9915,0.0735 5.0868,0.0346 l 0.17114,-0.1566 c 0.41783,-0.84334 1.1244,-2.3026 1.1684,-2.5691 0,0 0.0346,-0.52315 -0.40603,-0.352 -1.3469,0.52315 -3.8671,0.36447 -4.7129,0.11505 0.14204,-0.43237 1.1709,-2.9822 1.4178,-3.999 0.0623,-0.25915 0.0346,-0.43238 -0.28341,-0.57443 -0.9093,-0.40326 -3.4051,-1.3078 -3.4051,-1.3078 0,0 -0.39634,-0.176 -0.5772,0.1857"
     id="path2638"
     style="fill:#0f141b" />
  <path
     d="m 138.474,121.04 c 0,0 -0.32982,2.3442 -0.26122,2.6156 0.99487,2.4395 -0.29796,2.6619 -0.29796,2.6619 0,0 -0.15382,2.5178 -0.16145,2.5471 l -0.99487,-0.43792 c 0.19055,-0.85311 0.32013,-2.0387 0.48434,-3.2828 0.47396,-0.0346 0.72603,-0.0957 0.2446,-1.4862 0.11021,-0.81403 0.14689,-1.4251 0.20025,-2.2049 -2.5105,-3.0702 -6.0671,-1.6352 -6.8126,-1.2833 -0.0415,0.10536 -0.55501,1.342 -0.64995,1.606 -1.2833,0.67974 -1.8089,1.9873 -0.8091,1.7697 -0.56195,1.4446 -0.87514,2.6058 -0.87514,2.6058 l -0.83841,0.11228 c 0,0 0.31042,-0.75291 0.54255,-1.7429 -0.58412,-1.0804 -0.78715,-1.8553 1.1244,-2.7744 0.15868,-0.13444 0.48919,-1.7111 0.89468,-2.1731 0.46909,-0.53562 5.0013,-2.6669 8.2108,1.4666"
     id="path2640"
     style="fill:#0f141b" />
  <path
     d="m 135.324,121.2 c 1.4349,0.51067 2.4004,1.3322 2.7182,2.3124 0,0 0.18847,1.381 -0.43028,0.36655 -0.61599,-1.0144 -1.3053,-1.606 -2.5178,-2.0386 -1.8333,-0.65272 -4.2362,-0.20302 -5.5366,0.33745 -1.3004,0.53769 -1.5595,0.23004 -0.11228,-0.61599 1.4446,-0.84826 3.828,-1.0926 5.8788,-0.3617"
     id="path2642"
     style="fill:#0f141b" />
  <path
     d="m 134.904,123.23 c 1.5694,0.55986 2.4909,1.5131 2.8209,2.5276 l -0.28826,0.96798 c -0.26399,-0.81159 -1.5619,-2.3149 -2.9308,-2.8014 -1.8822,-0.67212 -4.6982,-0.43236 -5.7859,0.26192 l 0.29312,-0.79199 c 1.2711,-0.81402 3.7913,-0.91422 5.891,-0.16352"
     id="path2644"
     style="fill:#0f141b" />
  <path
     d="m 134.344,125.34 c 1.5131,0.52593 2.8307,1.7771 3.1508,2.7598 l -0.9655,-0.0901 c -0.24945,-0.76759 -1.1294,-1.4691 -2.4151,-1.9287 -1.9115,-0.68181 -5.187,-0.60351 -5.3361,0.0756 l -1.8944,0.19056 c 1.0584,-1.43 3.8792,-2.2513 7.4603,-1.0072"
     id="path2646"
     style="fill:#0f141b" />
  <path
     d="m 140.254,132.7 c -0.84826,-4.774 -5.9106,-7.0277 -10.186,-6.9715 -4.3853,0.0623 -7.5337,2.2073 -8.0274,5.5098 -0.17323,2.1755 0.53561,4.3168 1.9971,6.0279 0.82863,0.97041 1.5693,1.7061 3.4075,2.3931 0.39357,-0.27162 0.43515,-0.55017 0.8678,-0.65757 -1.3665,-0.48643 -2.5911,-1.3004 -3.5151,-2.3809 -1.2906,-1.5106 -1.9164,-3.3928 -1.7673,-5.2702 0.50373,-3.3512 4.114,-4.5857 7.0522,-4.6248 3.7277,-0.0485 8.047,1.6768 9.0199,5.5659 0.0277,0.12198 0.0554,0.2446 0.0784,0.36932 -0.32982,3.7228 -4.0284,6.5902 -7.9151,6.842 0.47394,0.22727 0.13444,0.62846 1.1244,0.87507 3.8084,-0.74065 7.563,-3.7277 7.8686,-7.5508 l 0.007,-0.0624 z"
     id="path2648"
     style="fill:#0f141b" />
  <path
     d="m 132.474,130.74 c -0.0415,0.55986 -0.46909,3.8304 -0.4885,4.3974 -0.0208,0.56749 0.44762,0.67489 0.44762,0.67489 0.79441,0.0756 2.7915,0.0692 5.0795,-1.1195 -0.0957,0.52799 -0.25638,1.3175 -0.42267,2.0924 -0.40812,0.24945 -2.9309,1.232 -5.0771,1.1048 -0.50859,-0.0346 -0.53562,0.21758 -0.60628,0.32289 -0.0708,0.10744 0.0554,0.51829 0.0831,0.82372 -0.33259,-0.11712 -0.64301,-0.16836 -1.4374,-0.27854 -0.79685,-0.11021 -1.6524,-0.26884 -2.0826,-0.11505 -0.0208,-0.46425 -0.0554,-0.68667 -0.0554,-0.93376 0,-0.24668 -0.32013,-0.50374 -0.32013,-0.50374 -0.0346,-0.0138 -3.6153,-1.8113 -4.1188,-3.1753 -0.3326,-0.52037 -0.29794,-1.1 -0.2051,-1.4764 0.74072,0.71618 2.5129,2.3026 4.5662,2.8379 0,0 0.45247,0.11713 0.42544,-0.30556 -0.0277,-0.42545 0.64302,-4.1482 0.83599,-4.796 0.45247,0.0554 2.8819,0.38387 3.3781,0.4497 m -4.131,-0.81403 c -0.0957,0.42545 -0.49889,1.9531 -0.72596,4.6761 -2.3687,-0.77488 -4.1066,-2.7108 -4.1262,-2.7328 l -0.43306,-0.49404 -0.50375,2.4029 c 1.2931,2.5006 3.8353,3.6788 4.5931,3.9844 0.007,0.32773 -0.0853,1.6744 -0.0853,1.6744 0,0 0.22519,0.20302 0.44,0.21757 0.21273,0.0138 0.50859,-0.36656 0.70156,-0.38596 0.19541,-0.0138 3.2217,0.44278 3.2217,0.44278 0,0 0.41089,0.77979 0.96065,0.68667 0.35684,-0.0554 0.17876,-0.49612 0.0277,-0.79685 -0.19055,-0.38386 -0.27371,-0.79691 -0.19055,-1.034 3.1068,0.20302 5.2702,-1.2271 5.363,-1.2907 l 0.13928,-0.2051 c 0.21757,-0.99731 0.57926,-2.7109 0.55502,-3.0042 0,0 -0.0978,-0.5571 -0.51553,-0.26123 -1.2833,0.89952 -3.9771,1.3909 -4.9329,1.3493 0.0415,-0.5966 0.65272,-4.8473 0.37141,-5.0037 -0.28132,-0.15382 -4.3022,-0.57165 -4.3022,-0.57165 0,0 -0.46217,-0.081 -0.55709,0.34715"
     id="path2650"
     style="fill:#0f141b" />
  <path
     d="m 73.946,133.71 c -0.35478,0.97284 -1.3029,1.98 -1.3763,2.244 -0.33952,2.5495 -1.5008,1.7672 -1.5008,1.7672 0,0 -1.3151,1.7527 -1.3347,1.7771 l -0.60144,-0.57651 c 0.55709,-0.62362 1.2197,-1.5547 1.9408,-2.5251 0.40119,0.20994 0.63539,0.28131 0.89959,-1.1293 0.47188,-0.63056 0.7895,-1.1294 1.2002,-1.7576 0.22034,-3.3195 -3.8524,-4.6322 -4.9401,-4.466 -0.08529,0.0623 -1.0854,0.85311 -1.2882,1.0267 -1.364,-0.0624 -2.4053,0.77729 -1.4911,1.0902 -1.1366,0.93619 -1.9385,1.7624 -1.9385,1.7624 l -0.73574,-0.32497 c 0,0 0.60838,-0.4788 1.2637,-1.1953 0.03461,-1.2026 0.23489,-1.9579 2.222,-1.7795 0.19055,-0.0346 1.2418,-0.97284 1.9433,-1.4104 1.32,-0.8531 7.0473,1.9091 5.7371,5.4975"
     id="path2652"
     style="fill:#0f141b" />
  <path
     d="m 71.367,132.12 c 0.92641,1.1416 1.3249,2.3124 1.122,3.2975 0,0 -0.49612,1.2564 -0.52038,0.0957 -0.02769,-1.1587 -0.30834,-2.002 -1.0902,-2.97 -1.1856,-1.4618 -3.3538,-2.2733 -4.6639,-2.4664 -1.3127,-0.19334 -1.3787,-0.57928 0.19816,-0.57443 1.5742,0.006 3.63,0.98511 4.9548,2.6179"
     id="path2654"
     style="fill:#0f141b" />
  <path
     d="m 70.075,133.62 c 1.012,1.254 1.3126,2.5153 1.1049,3.5322 l -0.68944,0.67004 c 0.16629,-0.81154 -0.18086,-2.7231 -1.0658,-3.8157 -1.2173,-1.5009 -3.6202,-2.6987 -4.8326,-2.6522 l 0.60838,-0.52314 c 1.4178,-0.0554 3.5175,1.1122 4.8742,2.7891"
     id="path2656"
     style="fill:#0f141b" />
  <path
     d="m 68.621,135.12 c 0.9826,1.1953 1.4666,2.904 1.2662,3.8891 l -0.74314,-0.55223 c 0.1566,-0.77003 -0.22726,-1.7991 -1.0584,-2.8258 -1.2344,-1.5229 -3.938,-3.0873 -4.3804,-2.5886 l -1.6304,-0.77979 c 1.5326,-0.67975 4.2166,0.0277 6.5462,2.8575"
     id="path2658"
     style="fill:#0f141b" />
  <path
     d="m 64.959,133.32 c -3.5957,-2.1291 -7.1719,-1.8871 -9.1274,0.64993 -1.1684,1.7477 -1.5986,3.9037 -1.2149,6.0744 0.2148,1.21 0.68459,2.3638 1.3542,3.3953 0.35476,-0.0208 0.68181,-0.0692 1.0315,-0.16837 -0.7333,-1.0096 -1.2466,-2.1707 -1.4618,-3.3929 -0.33952,-1.9139 0.03461,-3.8108 1.0438,-5.319 1.9873,-2.574 5.5073,-1.8211 7.9174,-0.39357 3.058,1.8089 5.7591,5.4119 4.7202,9.1739 -0.03461,0.11505 -0.07075,0.23211 -0.11228,0.34992 -2.1389,3.146 -6.441,3.8695 -9.8241,1.7258 v 1.1196 c 3.74,2.0777 8.3134,1.2906 10.628,-2.1731 l 0.03461,-0.0485 0.02077,-0.0554 c 1.7697,-4.9646 -1.5009,-8.861 -5.0087,-10.936"
     id="path2660"
     style="fill:#0f141b" />
  <path
     d="m 64.557,138.74 c -0.29794,0.45247 -2.1853,2.9944 -2.4688,3.4613 -0.28341,0.4691 0.04846,0.792 0.04846,0.792 0.60838,0.45731 2.2416,1.4447 4.659,1.5791 -0.32497,0.39841 -0.82863,0.98267 -1.3273,1.5547 -0.45247,0.007 -2.9676,-0.41781 -4.6542,-1.5938 -0.39843,-0.27854 -0.47672,-0.16837 -0.71869,0.15383 -0.24182,0.3229 -0.12474,0.28132 -0.24668,0.55225 -0.04846,-0.0624 -0.27369,-0.63817 -0.43236,-0.8116 -0.52592,-0.56957 -1.3616,-1.1146 -1.5155,-1.2418 -0.20025,-0.16352 -0.51067,-0.14412 -0.78714,-0.14205 0.16837,-0.23974 0.40604,-0.55017 0.45939,-0.66033 0.05538,-0.11021 -0.03461,-0.62362 -0.03461,-0.62362 -0.02077,-0.0277 -2.0899,-3.3244 -1.8553,-4.7226 -0.02769,-0.60352 0.2737,-1.0731 0.52799,-1.3469 0.264,0.97284 0.96065,3.1899 2.3784,4.6615 0,0 0.3132,0.32497 0.49127,-0.0485 0.18084,-0.36931 2.4786,-3.1753 2.9406,-3.6251 0.33744,0.27647 2.1633,1.7551 2.5373,2.0582 m -2.9797,-2.7402 c -0.27855,0.31321 -1.3249,1.3982 -2.7916,3.5811 -1.5644,-1.8309 -2.068,-4.3266 -2.0728,-4.3535 l -0.12197,-0.63054 -1.5376,1.7747 c -0.12682,2.7499 1.386,5.0062 1.8602,5.6368 -0.14413,0.28339 -1.1122,1.2345 -0.9289,1.4178 0.18084,0.18084 0.41781,0.30834 0.56471,0.30834 0.1469,0 0.4206,-0.20025 0.63817,-0.12682 0.22034,0.0734 1.1317,0.67489 1.3688,0.93132 0.23697,0.25431 0.43722,0.58205 0.47394,0.72846 0.03461,0.14689 0.02077,1.1317 0.29311,1.2784 0.27161,0.14413 0.95579,-0.57719 0.95579,-0.57719 0,-0.006 0.2051,-0.59867 0.38386,-0.75777 2.4346,1.716 4.8693,1.584 4.9768,1.5767 l 0.20996,-0.10536 c 0.64509,-0.73088 1.7478,-1.9947 1.8627,-2.2513 0,0 0.1857,-0.52037 -0.29587,-0.48157 -1.4666,0.12198 -3.8915,-0.80176 -4.6492,-1.3102 0.31803,-0.48434 2.8135,-3.7644 2.6595,-4.0333 -0.1566,-0.26886 -3.2339,-2.618 -3.2339,-2.618 0,0 -0.33744,-0.29794 -0.61599,0.0138"
     id="path2662"
     style="fill:#0f141b" />
  <path
     d="m 97.239,100.18 c 0,0 -2.2219,0.616 -2.4982,0.5869 -2.5593,-0.62847 -2.5935,0.68181 -2.5935,0.68181 0,0 -2.1902,0.63055 -2.222,0.64301 l 0.30557,0.80912 c 0.81645,-0.31321 1.9702,-0.61323 3.1777,-0.95581 -0.04153,-0.47394 -0.01385,-0.73329 1.4349,-0.45939 0.78956,-0.2252 1.3884,-0.34922 2.151,-0.5183 3.4026,2.0387 2.5007,5.7639 2.2611,6.5535 -0.09775,0.0554 -1.2466,0.74549 -1.4935,0.87749 -0.4892,1.3689 -1.7062,2.0777 -1.6353,1.0585 -1.3469,0.76511 -2.4518,1.2442 -2.4518,1.2442 l 0.01384,0.84576 c 0,0 0.7015,-0.41781 1.6451,-0.78956 1.1538,0.4206 2.1461,0.67212 2.7768,-1.3517 0.11021,-0.176 1.9384,-1.3371 1.9384,-1.3371 0.0139,-0.0485 2.0729,-5.4144 -2.8086,-7.8882"
     id="path2664"
     style="fill:#0f141b" />
  <path
     d="m 97.583,103.27 c -0.71376,-1.3469 -1.6671,-2.1804 -2.684,-2.3515 0,0 -1.3909,0.0138 -0.30071,0.47672 1.0926,0.46216 1.7795,1.0585 2.3857,2.1951 0.91173,1.7208 0.81396,4.1628 0.4691,5.5268 -0.34229,1.3664 0,1.5766 0.62848,0.0208 0.62568,-1.5522 0.52106,-3.9477 -0.4989,-5.869"
     id="path2666"
     style="fill:#0f141b" />
  <path
     d="m 95.642,103.98 c -0.78221,-1.4715 -1.8602,-2.244 -2.9113,-2.4224 l -0.91422,0.42267 c 0.84085,0.14411 2.5153,1.21 3.1973,2.4933 0.93625,1.7649 1.1123,4.5857 0.58204,5.7639 l 0.74072,-0.40603 c 0.62084,-1.3762 0.35199,-3.8842 -0.69423,-5.8519"
     id="path2668"
     style="fill:#0f141b" />
  <path
     d="m 93.634,104.84 c -0.74072,-1.4202 -2.1682,-2.5447 -3.1876,-2.7158 l 0.23005,0.93868 c 0.79449,0.1372 1.6158,0.90687 2.2587,2.112 0.95087,1.7917 1.3518,5.0428 0.70157,5.2897 l 0.08528,1.9018 c 1.2613,-1.254 1.6646,-4.1653 -0.08805,-7.5264"
     id="path2670"
     style="fill:#0f141b" />
  <path
     d="m 93.87,109.13 c -0.56472,-4.2361 -3.5297,-8.9197 -8.377,-9.0639 l -0.0623,-0.003 -0.06244,0.0138 c -4.1579,0.9558 -6.727,5.0624 -6.3408,9.4624 0.09082,0.28824 0.66241,0.33952 1.034,0.34922 -0.54256,-4.048 1.8553,-7.8686 5.6271,-8.7681 0.12682,0.007 0.2543,0.0139 0.37625,0.0277 3.9917,0.39634 6.3286,4.4195 6.8199,8.1154 0.38872,2.9113 -0.30834,6.661 -3.5518,7.6461 -1.8358,0.42267 -3.7889,0.0756 -5.4681,-0.98026 -1.2149,-0.76261 -2.2025,-1.865 -2.882,-3.1557 -0.16145,0.32983 -0.73331,0.61391 -0.54254,1.0486 0.73821,1.1929 1.7209,2.2147 2.8942,2.9529 1.9067,1.1978 4.1262,1.5864 6.2553,1.0975 3.1948,-0.96549 4.8595,-4.395 4.2826,-8.7412"
     id="path2672"
     style="fill:#0f141b" />
  <path
     d="m 89.496,110.75 c -0.61114,0.28617 -4.1971,1.4862 -4.6224,1.5254 -0.42267,0.0346 -0.24182,0.46425 -0.24182,0.46425 0.82865,1.9531 2.657,3.476 3.4735,4.1042 -0.35962,0.14689 -0.92642,0.26399 -1.4911,0.007 -1.4227,-0.29794 -3.7228,-3.5811 -3.74,-3.6104 0,0 -0.19539,-0.28133 -0.67004,-0.24946 -0.47394,0.0346 -0.63816,0.0756 -0.77979,0.0735 0.09082,-0.44762 0.17115,-1.0218 -0.24668,-1.9825 -0.29794,-0.68183 -0.51829,-1.1195 -0.68182,-1.43 0.30765,-0.0208 0.46217,-0.007 0.6257,-0.0346 0.41575,-0.0623 0.5377,-0.15174 0.43515,-0.64993 -0.43999,-2.1046 0.16352,-4.7446 0.35407,-5.1846 0.74072,-0.27646 1.4985,-0.55016 2.0094,-0.72352 -0.84334,2.4371 -0.56194,4.4146 -0.37417,5.1894 0,0 0.176,0.44484 0.7358,0.34229 0.55709,-0.10052 3.7302,-0.9973 4.2777,-1.122 0.1372,0.48434 0.81154,2.8404 0.93618,3.2779 m 0.73337,0.0908 c 0,0 -0.99736,-3.9185 -1.1929,-4.1751 -0.19333,-0.25431 -4.312,0.96556 -4.8961,1.0951 -0.18084,-0.93868 -0.08528,-3.674 0.62085,-5.0746 0.23003,-0.45731 -0.33744,-0.47186 -0.33744,-0.47186 -0.29102,0.0138 -1.9336,0.6236 -2.8893,0.98267 l -0.18363,0.16838 c -0.04846,0.10259 -1.1513,2.4518 -0.49889,5.4951 -0.22242,0.11713 -0.87022,0.0957 -0.87507,0.0929 l -0.48643,0.77979 c 0.0055,0.006 0.4303,0.176 1.0633,1.6255 0.57443,1.32 0,1.9262 -0.01384,1.9531 l 0.51553,0.59867 c 0,0 1.0096,-0.11021 1.3347,-0.1469 0.41089,0.70399 1.9482,3.0482 4.6101,3.9624 l 2.3027,-0.84576 -0.55017,-0.35477 c -0.02769,-0.0138 -2.1927,-1.4569 -3.3049,-3.6862 2.662,-0.62085 4.114,-1.2418 4.5222,-1.3982 0.40812,-0.1566 0.26192,-0.60143 0.26192,-0.60143"
     id="path2674"
     style="fill:#0f141b" />
  <path
     d="m 135.954,54.55 c 0.29587,-0.87265 0.5966,-1.7576 0.84334,-2.4835 -0.20994,-0.6548 -0.35407,-1.3665 -0.53562,-2.0998 l -1.4055,4.0675 c 0.14689,-0.0623 0.31528,-0.11228 0.51067,-0.15175 0.28825,-0.28824 0.44276,0.10744 0.58689,0.66727"
     id="path2676"
     style="fill:#0f141b" />
  <path
     d="m 144.824,62.71 c 0.0853,1.6353 -4.9891,0.8678 -6.2406,0.23005 -2.1242,-1.0853 -3.7815,-3.0384 -3.9135,-4.5857 0.0138,-0.0485 0.13443,-0.39357 0.30765,-0.90202 -0.3326,-0.4885 -0.61808,-1.0022 -0.78223,-1.4837 l -0.77245,2.2366 0.007,0.11713 c 0.0957,1.9996 2.0265,4.3999 4.5956,5.7102 3.339,1.7014 6.0475,0.6548 7.3846,-0.0929 0.96307,-0.54046 0.76261,-1.1709 0.61807,-1.3152 0.17876,-0.51551 0.51067,-1.2613 1.1269,-2.7328 -0.42545,0.16145 -0.93134,0.21965 -1.4691,0.20996 -0.66727,1.5571 -0.72596,2.107 -0.86289,2.6082"
     id="path2678"
     style="fill:#0f141b" />
  <path
     d="m 149.034,55.53 -1.1195,-0.50098 c -0.3714,0.83107 -0.70158,1.5718 -0.9998,2.2464 0.47673,0.21758 1.0071,0.26886 1.2296,0.27855 0.28825,-0.66726 0.58898,-1.3493 0.88976,-2.024"
     id="path2680"
     style="fill:#0f141b" />
  <path
     d="m 135.604,53.55 c -0.52799,0.18086 -0.91178,1.1464 -0.95087,2.2709 -0.0485,1.3346 1.0291,5.0134 8.8634,8.3208 l -0.84818,0.26123 c -7.541,-2.156 -9.2839,-7.3528 -9.2326,-8.8537 0.0484,-1.5082 1.1048,-2.4787 1.909,-2.7548 z"
     id="path2682"
     style="fill:#0f141b" />
  <path
     d="m 136.074,53 c -0.17392,0.34438 -0.11021,1.2638 0.44762,2.4689 0.54739,1.1904 2.8062,5.1894 8.8194,6.6488 l -0.14897,0.61115 c -6.2895,-1.5278 -8.663,-5.7395 -9.2423,-6.9959 -0.58689,-1.2711 -0.7505,-2.4004 -0.43792,-3.0164 z"
     id="path2684"
     style="fill:#0f141b" />
  <path
     d="m 136.414,49.763 c -0.20996,0.24459 0,1.0022 0.48157,2.1804 1.2564,3.0873 5.0209,7.4873 9.3132,7.8637 0.68944,0.0623 1.1416,-0.0735 1.3469,-0.4012 0.36655,-0.58689 -0.0138,-1.7331 -0.28616,-2.1902 l 0.68459,-0.41089 c 0.27647,0.45939 0.91907,1.9996 0.27647,3.0238 -0.37625,0.60144 -1.2711,1.1587 -2.2831,1.0682 -4.6102,-0.40603 -8.3868,-4.7348 -10.054,-8.7289 -0.55986,-1.3371 -0.57649,-2.3516 -0.0853,-2.926 z"
     id="path2686"
     style="fill:#0f141b" />
  <path
     d="m 147.234,56.86 0.11713,0.61806 c -2.8037,0.52592 -6.6806,-1.7893 -7.7415,-5.2212 l 0.58412,-0.23212 c 0.94352,2.3662 4.7446,5.2653 7.0399,4.8351"
     id="path2688"
     style="fill:#0f141b" />
  <path
     d="m 132.164,43.437 m 16.39,-7.0497 c 0.0208,1.2002 0.89219,2.371 2.4078,3.1557 1.3664,0.70648 3.2192,1.0169 4.4341,0.24181 1.1929,1.3053 3.1655,4.972 3.1655,9.235 0,1.2686 -0.19334,2.5886 -0.61601,3.9086 -3.5297,2.2367 -9.1103,2.4444 -14.324,0.50098 -5.2628,-1.9629 -9.0076,-5.7248 -10.274,-10.318 -0.006,-0.0138 -0.007,-0.0346 -0.007,-0.0554 0,-0.41783 0.67698,-1.8968 2.5544,-3.603 1.7551,-1.5963 6.4582,-4.9915 12.66,-3.0628 m -14.107,2.5251 c -1.452,1.3566 -2.3296,2.9357 -2.3296,4.1555 0,0.12959 0.0139,0.25429 0.0485,0.36931 1.3713,4.9793 5.39,9.0394 11.029,11.142 5.6564,2.112 11.638,2.0411 15.471,-0.51345 l 0.38872,-0.53076 c 2.3173,-6.7808 -1.4202,-13.606 -3.2315,-15.053 -0.10259,-0.11228 -0.50097,-0.31041 -0.83841,0.0692 -0.44485,0.49889 -2.0802,0.61322 -3.4589,-0.10052 -0.93125,-0.48156 -1.7208,-1.0242 -1.6549,-1.9042 0.0623,-0.81888 -0.0277,-0.98026 -0.45939,-1.2002 -7.3724,-2.5813 -13.425,2.1316 -14.962,3.5664"
     id="path2690"
     style="fill:#0f141b" />
  <path
     d="m 146.684,37.901 c 0,0 0.57165,0.37625 0.1566,0.72839 -0.41296,0.35199 -4.422,5.478 -5.2115,7.3821 0.75776,0.56196 2.684,1.5473 3.7082,1.9629 1.4178,-2.5251 4.8766,-7.0985 5.3508,-7.5728 0.47394,-0.47396 1.0144,-0.54047 1.4886,0.0692 0.47394,0.60838 3.7668,5.852 4.1409,8.4625 0.61808,-0.0485 2.134,-1.2393 2.8257,-2.0362 l 0.20302,1.2173 c -0.38386,0.44278 -1.76,1.3518 -2.8404,1.7576 -1.0829,0.40604 -1.0413,-0.49612 -1.0413,-0.49612 -0.14205,-2.1169 -2.4934,-6.573 -4.0578,-8.2426 -1.2442,1.1928 -4.8448,7.1841 -5.1162,7.6583 -0.27161,0.47186 -0.8971,0.19055 -0.8971,0.19055 -1.0096,-0.33745 -3.9355,-1.7918 -4.6517,-2.508 l -0.11021,-0.46909 c 0.61808,-1.8602 3.5395,-5.6637 5.0624,-7.4555 -4.9304,-1.6793 -10.042,2.1707 -10.095,2.2122 0,0 -1.078,0.92643 -0.94354,0.18363 0.13721,-0.74557 1.122,-1.9825 1.122,-1.9825 v 0.55501 c 1.7697,-1.1415 6.3922,-3.608 10.907,-1.6157"
     id="path2692"
     style="fill:#0f141b" />
</svg>
