<?xml version="1.0" encoding="UTF-8"?>
<!-- Created with Inkscape (http://www.inkscape.org/) -->
<svg version="1.1" viewBox="0 0 260.49 334" xmlns="http://www.w3.org/2000/svg">
 <defs>
  <linearGradient id="linearGradient113834" x2="1" gradientTransform="matrix(-18.163 -41.667 41.667 -18.163 181.14 75.23)" gradientUnits="userSpaceOnUse">
   <stop stop-color="#fff" offset="0"/>
   <stop stop-color="#1a8b33" offset=".78751"/>
   <stop stop-color="#1a8b33" offset="1"/>
  </linearGradient>
  <linearGradient id="linearGradient113838" x2="1" gradientTransform="matrix(7.7165 40.298 -40.298 7.7165 212.91 169.94)" gradientUnits="userSpaceOnUse">
   <stop stop-color="#fff" offset="0"/>
   <stop stop-color="#fff" offset=".66994"/>
   <stop stop-color="#ddbca5" offset=".88742"/>
   <stop stop-color="#ddbca5" offset="1"/>
  </linearGradient>
 </defs>
 <g transform="translate(21.995 12.118)">
  <path d="m100.5 264.02c-0.24884 1.522-1.2566 7.5346-2.7371 8.7928-1.4639 1.2566-5.3984 3.5831-7.2712 4.6523-1.8745 1.0534-4.199 2.9279-4.1389 4.0393 0.0414 1.1114 3.2348 3.2348 7.2277 4.4039 3.9937 1.1571 11.06 3.4836 12.582 4.3889 1.522 0.92067 9.144 6.4812 11.119 8.0467 1.974 1.5635 7.9294 5.6472 9.5534 5.252 1.6091-0.41472 2.9279-7.6805 2.9279-7.6805 4.5059 0.70088 13.343 1.7708 13.855 1.0078 0.49766-0.75893-2.3266-5.867-4.6527-8.3395 2.2229-1.0658 7.8273-3.9937 7.6809-4.5059-0.16588-0.49765-7.3736-3.7324-13.343-5.2963-5.9694-1.5635-16.269-3.8486-17.688-4.5059-1.4183-0.6594-5.4133-4.5503-5.4133-4.5503l0.90823-7.5196z" fill="#fcd13e"/>
  <path d="m119.66 275.74c-2.6334 0.083-14.045 5.15-15.362 13.65-4.9596-1.8289-10.812-3.438-13.24-4.4474-2.4302-1.0078-4.9596-2.3266-4.6962-3.438 0.24884-1.1114 1.7543-3.0274 3.3799-3.7449 1.6091-0.70087 6.774-2.9237 8.0318-4.9451 1.2732-2.0321 2.5754-6.6711 2.7371-8.7924l10.607-1.8289c-0.45204 2.8367-0.90823 7.5346-0.90823 7.5346s4.301 3.9937 4.9011 4.3889c0.61377 0.41472 4.5498 1.6257 4.5498 1.6257" fill="#dab932"/>
  <g fill="#0f141b">
   <path d="m109.05 273.17c0.12442-3.073 0.49766-7.637 1.1985-11.28 0.2903-1.551 2.339-1.2441 2.0611 0.16588-0.70086 3.6578-1.6257 8.1927-1.7418 11.119-0.16588 3.1726-1.6547 3.2638-1.522 0"/>
   <path d="m138 287.8c0.42301-0.24883 7.2127-3.1892 7.2857-3.7449 0.0415-0.4396-15.245-5.018-16.576-5.3399-1.07-0.24883-12.055-2.8698-13.445-3.5707-0.77552-0.41471-3.7324-2.6625-5.3104-4.1389-0.2903-0.2903 0.48107-2.5007 0.85017-2.0777 0.99532 1.128 4.5353 4.3159 5.179 4.6378 1.1695 0.60135 12.011 2.8367 13.035 3.0855 11.661 2.8367 18.932 6.4227 18.976 7.2277 0.029 1.0824-8.5879 5.5008-8.9977 5.7347-0.16588 0.083-1.493-1.5344-0.99531-1.8123"/>
   <path d="m129.36 296.84c-0.55571-0.083-0.42301-2.0902 0.1659-2.0611 2.0031 0.16588 12.86 1.8123 13.152 1.3437 0.24882-0.41472-0.92068-3.2472-5.7496-8.8218-2.0321-2.3431-1.1114-3.1601 0.97872-0.90823 5.5302 5.9545 7.5491 10.387 6.4812 11.367-0.92066 0.85016-11.412-0.2903-15.011-0.92067"/>
   <path d="m114.71 298.49c-3.2472-2.4717-6.7885-5.6182-9.4949-6.9784-2.5878-1.3022-6.0864-2.4883-9.305-3.5417-6.0424-1.945-10.504-3.4836-10.548-6.3788-0.0295-2.7205 3.2762-4.1841 6.4078-5.8081 2.0487-1.0658 4.4768-2.2685 5.3403-3.4836 1.7708-2.5007 2.0902-6.5981 2.65-9.7877 0.12442-0.75893 0.24884-1.4764 0.41472-2.1358 0.12441-0.55572 0.65939-0.90823 1.2151-0.80455 0.55572 0.12442 0.92066 0.6594 0.80454 1.2151-0.12441 0.64281-0.24882 1.3478-0.37324 2.0902-0.58475 3.3924-1.3312 7.6075-3.3633 10.49-1.1571 1.6257-3.5126 2.8532-5.7791 4.0393-2.4592 1.2732-5.2374 2.7205-5.2229 4.1696 0.0295 1.4059 5.4572 3.1601 9.4219 4.4474 3.2928 1.0534 6.7005 2.1648 9.4219 3.5417 2.8823 1.4474 6.3203 4.0684 9.6413 6.5981 4.0808 3.1145 9.1731 6.9933 10.812 6.4078 0.77552-0.46863 2.6915-9.29 2.9113-10.109 0.63037-2.3722 1.8289-1.7418 1.3312 0.20736-0.20735 0.85017-1.3478 11.792-3.1145 12.407-1.7252 0.60135-5.9396-1.0824-13.138-6.5691"/>
  </g>
  <g>
   <path d="m64.824 255.23c-0.60134 1.3146-7.1833 16.986-9.1441 17.337-1.974 0.33178-6.6711 0.2903-9.1582 0.75893-2.4717 0.45204-6.9643 2.2685-7.3152 4.5938-0.37324 2.3266 1.1571 7.1833 3.2762 9.9631 2.1234 2.7786 6.0714 7.2273 6.7736 9.0416 0.70086 1.8123 3.6868 10.256 4.4478 12.641 0.75894 2.3722 3.6412 11.06 5.4572 11.017 1.8123-0.0415 6.3199-8.1931 7.1248-11.426 3.496 1.6672 17.293 8.7928 18.302 8.1927 1.0078-0.61378 1.9616-4.9596 1.2566-8.4415-0.70086-3.4961-1.2151-5.2669-1.2151-5.2669 3.4836 1.4183 15.669 4.0974 16.225 2.8823 0.55572-1.2151-2.5298-7.8713-7.8858-12.524-5.3544-4.6523-11.923-9.4074-16.225-12.128-4.2865-2.7371-7.8854-5.3693-7.8854-5.3693 1.974-5.2963 6.1739-16.723 6.1739-16.723z" fill="#fcd13e"/>
   <path d="m82.16 285.65c-5.3548-2.8367-29.056-0.20736-35.127 7.3736-3.1892-3.9357-8.5585-9.9192-7.7249-14.089 0.83358-4.17 5.2233-5.7645 7.0373-5.8375 1.8289-0.083 8.0467 0.45203 9.334-0.54328 1.2856-0.97873 4.9305-6.4372 6.1448-9.1731 1.1985-2.7205 3.2472-8.1052 3.2472-8.1052 1.974 1.1405 9.7873 4.243 9.7873 4.243-2.1192 4.4039-5.3104 14.411-5.998 16.986 4.0974 2.5007 13.299 9.1441 13.299 9.1441" fill="#dab932"/>
   <path d="m29.34 209.05s0.4396-9.6268-10.783-17.22c-24.081-16.313-33.664-16.195-34.293-15.771-1.7418 1.128 2.6791 20.146 19.4 34.483 6.5102 5.5887 16.02 6.7594 16.02 6.7594z" fill="#cfa996"/>
   <path d="m-15.999 178.91c0.16589 5.7056 6.2763 20.57 20.424 32.699 6.5102 5.5742 15.537 6.2178 15.537 6.2178l2.4427-2.0902c-15.493-9.9926-28.821-23.028-38.404-36.824" fill="#a77c6b"/>
   <path d="m29.618 209.58s1.2151-7.8564-6.2908-13.518c-13.021-9.8168-37.688-20.219-38.507-19.166-1.4639 1.8745 7.52 26.905 25.632 36.971 4.9745 2.7662 9.5098 3.9647 9.5098 3.9647zm-10.358 11.953c-0.41472-0.083-4.7108 0.20736-11.967-5.823-23.555-19.56-25.5-39.648-24.023-40.716 1.7418-1.2276 20.804 4.7842 41.623 19.034 8.7053 5.94 8.9247 15.332 8.9097 15.757l-0.08295 1.7999-1.3893 1.1861-9.29 7.9003-1.6672 1.4183z" fill="#0f141b"/>
   <path d="m109.72 191.6c0.6594 31.528-19.356 56.4-48.017 60.95 23.292 15.918 54.527 14.323 75.814-2.8823 19.926-16.093 22.779-33.459 21.418-62.266-2.7371-3.6412-9.6413-12.772-11.587-15.815-2.2975-2.8823-6.5396-6.8324-9.6413-9.4074-3.1145-2.5754-7.5051-5.3104-10.695-6.7445-3.1726-1.4474-4.5498-3.1892-5.5302-3.9481-0.97874-0.74649-7.7394 1.4474-11.221 7.3591-3.4836 5.9105-6.2178 15.772-4.316 21.082 1.887 5.2963 3.7615 9.4074 3.7739 11.675" fill="#fffbc6"/>
   <path d="m159.13 195.39c-0.0414-2.1524 0.0414-5.6327-0.0414-7.9443-2.7371-3.6412-9.8022-12.816-11.748-15.859-2.2809-2.8823-6.5251-6.8324-9.6413-9.4074-2.0902-1.7418-4.7547-3.5251-7.2567-4.9596 1.5953 1.9134 3.1832 3.8415 4.6366 5.635 2.6251 3.2394 4.8114 6.0392 5.8097 7.5177 6.0569 8.9392 8.1782 19.4 18.244 25.018" fill="#dddaaf"/>
   <path d="m109.86 191.99c0.37324 24.93-12.363 42.369-24.037 51.615-10.797 8.544-33.665 10.314-42.457 12.128-6.5251 1.3478-12.743 4.243-20.922 4.6962-4.2425 0.24884-10.621-6.0569-15.918-10.153-3.6412 2.2685-8.5 3.4836-10.929 3.0274-2.4136-0.45204-11.821-4.2426-13.796-5.6032-1.9616-1.3603-2.7205-4.0974-0.90823-7.1252 3.7905-6.3203 18.039-17.892 26.539-23.803 10.607-25.779 46.393-42.457 68.382-44.579 6.3638-5.0035 13.942-6.8324 19.107-7.4321l0.74649-0.90823c-11.368-8.6464-16.21-23.964-16.518-40.028-0.29031-16.079 11.514-36.239 31.382-42.252-2.5298-4.5503-7.2712-14.25-8.0907-16.679-1.1695-3.5251-0.77552-4.4623 1.0078-6.6715 1.3188-1.6257 6.1743-4.345 7.7834-4.9596 1.6257-0.60134 3.9481-1.0078 5.4718-0.08295-0.20736-1.5054-1.551-9.451-0.63037-11.411 3.6868-7.8419 12.831-13.694 16.781-15.318 3.015-1.2441 4.155 8.4415 4.3595 10.665 0.33177 3.7739 0.70087 14.148-0.083 22.545 0.90823-3.2472 3.9481-12.743 4.7551-14.762 0.80456-2.0197 1.522-2.9279 3.6412-3.3343 3.1311-0.60133 11.016-0.08295 13.635 0.70087 2.6334 0.82114 3.8486 3.1311 2.4302 5.2524-4.7696 7.1688-13.752 23.262-17.483 37.205 10.11 2.7371 24.462 13.445 26.788 28.397 0.33178 1.9326 0.16588 9.7732 0.16588 9.7732-1.4764-0.33177-3.7615-1.4764-5.0035-2.3846-6.9784-5.1649-12.04-3.7739-16.532 2.339-5.969 8.1492-10.958 12.67-23.716 21.462-2.7496 1.887-4.3889 4.3894-4.0974 6.4666 0.41472 2.9279 14.66 9.1441 17.161 12.904-3.9481-1.128-9.6558-1.6672-12.348-0.8792 2.9569 2.0487 4.3889 3.6412 5.7496 6.2178-5.0036-0.75893-10.446-0.1659-13.796 1.07 4.4769 2.65 7.5346 5.135 8.7928 6.9639-4.5498-0.83357-9.8901-0.24882-13.796 0.75894 3.7905 1.7418 9.3925 5.4568 10.197 7.6805-7.3736-1.9036-13.855 2.1233-13.782 6.5106" fill="#cfa996"/>
   <path d="m138.87 163.68c-1.099-1.6547-4.5025-3.7938-7.97-5.9159 1.4349 1.7418 2.8778 3.4722 4.1796 5.0967 1.3312 0.20736 2.6498 0.49575 3.7903 0.81923" fill="#a77c6b"/>
   <path d="m177.28 103.63-6.686 9.7583s0.37325 9.4659 0.42301 9.4804c4.9745 1.7833 11.309-0.0829 16.562-1.9326-3.467-2.368-8.9537-9.5393-10.3-17.308" fill="#fffbc6"/>
   <path d="m190.87 149.81c-2.9569 2.0197-10.973 2.1938-16.635 1.8579 1.099 3.044 4.3014 12.919 4.989 16.635 3.2928-2.4593 10.636-8.0173 13.928-10.636-1.099-2.621-1.6962-4.6523-2.2809-7.8564" fill="#fffbc6"/>
   <path d="m191.73 152.93c-2.9569 2.0197-8.7928 5.7641-14.659 7.1833 1.099 3.0274 1.4764 4.4769 2.1524 8.1931 3.2928-2.4593 10.636-8.0322 13.928-10.651-0.51009-0.97873-1.1114-3.3053-1.4183-4.7257" fill="#dddaaf"/>
   <path d="m65.986 255.88s-5.9105 16.722-10.08 18.127c-2.2809 0.75893-11.997-1.5676-15.596 3.6578-2.6334 3.8195 7.9439 15.537 9.5094 17.761 2.65 3.7905 7.2127 23.482 9.3925 23.482 1.7999 0 5.4133-5.4133 7.3591-13.314 0.42301-1.7833 1.3022-1.5967 1.1571 0.29029-0.04141 0.7299-0.16589 1.551-0.33178 2.2519 2.9694 1.2566 11.455 5.3403 15.113 7.4761 5.5742 3.2638 0.70086-14.074 0.58474-14.806-0.1244-0.7299 0.37325-4.272 1.3022-3.0855 0.24882 0.33178 0.0414 1.4764 0.29029 2.4136 0.2903 1.2566 0.42301 2.3556 0.7299 2.4593 9.1291 3.3634 14.045 3.8486 14.586 3.2348 0.54328-0.60134-3.2472-8.471-11.573-14.615-8.9537-6.6276-15.727-10.871-18.917-12.538 0 0-1.7252 5.1499-2.6334 4.6523-0.90823-0.51009-0.08295-4.7547 1.0534-8.9243 1.07-3.9066 4.1264-12.099 5.9254-15.186m2.2685 1.2151c-1.1861 1.7418-3.832 8.2371-6.013 15.713 2.7081 1.7999 14.967 9.4949 19.239 13.24 10.08 8.8222 13.416 15.976 12.524 17.644-0.67184 1.2566-7.5345 0.90822-16.064-1.974 2.6335 9.6998 0.51011 12.48-0.33176 13.167-0.63037 0.51011-2.2975 0.86261-4.8572-0.63037-3.2638-1.916-9.8317-5.1209-13.972-6.6276-1.4474 5.4568-5.9835 10.87-7.2857 10.914-4.6232 0.16589-8.471-20.248-11.704-25.12-4.4184-6.6276-12.699-14.85-8.6609-20.614 3.9522-5.6182 15.201-4.5208 16.02-4.7842 2.9113-0.96629 7.7394-12.597 8.8513-16.84" fill="#0f141b"/>
   <path d="m177.28 103.63-6.0714 8.8218c0.24883 1.7418 0.2903 5.4572 0.2903 5.4572 2.1192-1.0658 7.8854-7.666 7.8854-7.666-0.68842-1.7418-2.1233-6.6131-2.1233-6.6131" fill="#cfa996"/>
   <path d="m197.24 153.32-3.4836-32.084" fill="#a77c6b"/>
   <path d="m170.43 111.58 6.7151-9.3925 0.57232 2.7786-6.4517 9.6413z" fill="#0f141b"/>
   <path d="m178.94 167.06 13.899-10.446 0.48108 2.0902-13.767 10.987z" fill="#0f141b"/>
   <path d="m196.71 118.27 1.0534 1.0368 0.16588 1.4764 3.2638 30.694-1.9326 2.5008" fill="#a77c6b"/>
   <path d="m222.19 137.77-5.1939-28.353c-7.8709-50.079-33.21-108.1-36.444-116.3-4.6228-11.69-30.314-1.945-24.666 10.914l7.2712 14.06c-10.797-4.0103-13.006-3.6868-14.045-3.3343-1.6672 0.55571-2.2975 5.7645-0.41471 10.505 0.90823 2.2519 9.3634 6.3348 11.734 8.6904 2.2519 2.2685 17.073 14.601 17.79 15.669 5.6476 9.4659 12.743 25.749 21.638 65.251 10.168 45.164 11.499 65.558 9.7582 79.296-0.2903 2.4012-1.0368 6.6126-3.9066 10.621-4.6083 6.4082 7.3297 11.06 11.617 9.5978 4.7842-1.6257 9.0122-6.1154 11.089-11.426 2.3846-6.0718 0.33177-24.637-6.2324-65.192" fill="#0f141b"/>
  </g>
  <path d="m158.92 3.9359s20.117 37.907 19.093 38.595c-0.93726 0.63037-11.807-20.044-13.738-21.711-1.945-1.6672-12.875-4.5063-13.752-4.199-1.4059 0.46863-0.93725 4.4184 0 6.7445 0.92067 2.31 8.3686 5.3399 13.475 10.446 4.6817 4.6962 13.548 11.221 15.801 14.162 0.20736 0.29031 0.37324 0.5267 0.48107 0.71746 3.6993 8.8368 10.27 15.347 21.374 64.636 11.631 51.616 11.017 69.786 10.227 79.047-0.5101 6.0424-2.2229 11.411-4.4478 14.835-1.916 2.986 7.1688 6.0864 10.11 4.8576 3.1311-1.3188 7.3446-5.7206 9.305-10.724 2.65-6.759-3.7905-41.052-11.704-91.278-3.803-24.081-11.807-49.816-19.122-70.079-7.9443-21.989-17.995-45.339-17.995-45.339-1.1571-2.6791-3.6122-3.8029-6.4227-3.8029-6.7006 0-15.347 6.3937-12.684 13.094" fill="url(#linearGradient113834)"/>
  <path d="m205.94 133.52c7.1543 36.429 6.613 50.928 5.94 58.858-0.5101 6.0424-2.2229 11.411-4.4478 14.835-1.916 2.986 7.1688 6.0864 10.11 4.8576 3.1311-1.3188 7.3446-5.7206 9.305-10.724 2.2685-5.8376-2.2104-32.128-8.5295-71.425z" fill="url(#linearGradient113838)"/>
  <g>
   <path d="m237.15 117.96c3.2182-18.785-2.8989-37.512-8.3831-40.233-1.0244-9.6998-3.2928-18.434-8.1931-24.564-4.6817-5.8521-9.4509-6.6421-15.976-1.3022-19.678 16.093-27.695 32.435-28.295 46.685-0.41471 9.5978 3.0855 18.2 10.007 22.955-0.4396 2.0321-2.8076 5.6766-2.2685 9.2025 1.2732 8.2806 3.6122 11.967 5.1935 13.899-0.37325 1.4183 2.4302 17.732 6.5251 18.946 4.4329 1.3188 34.088-12.626 37.453-17.893 3.7324-5.867 7.3152-20.921 3.9356-27.695" fill="#0f141b"/>
   <path d="m231.88 143.55c3.7158-7.9003 5.5742-22.311 2.3266-25.106 0 0 2.7205-12.275 0-23.716-2.3266-9.7583-4.1841-13.943-7.9003-14.879 0 0-2.0902-17.44-7.681-24.418-5.5738-6.9639-8.6024-3.9522-12.319-1.6257-3.7158 2.3266-18.961 14.835-24.184 29.524-5.106 14.425-3.9481 20.921-1.3893 27.197 0.96629 2.3722 3.9481 6.4667 5.6766 8.2367 0.24884 0.24883 14.367-20.702 24.959-31.031 5.6177-5.4718 9.6264-5.7057 9.8752-4.9156 0.24882 0.77552-3.6702 1.1571-8.8807 6.803-9.9337 10.768-23.291 29.085-23.964 30.797-0.6594 1.7128-1.3893 2.9113-0.68843 6.3932 0.85017 4.243 1.887 9.9341 3.0855 13.226 0.16588 0.37324 17.703-14.689 29.231-20.672 4.7402-2.4593 10.226-0.37326 10.285 0.24882 0.0414 0.61379-5.106-1.0824-9.6413 1.6962-11.148 6.8175-27.154 20.658-28.207 22.486-0.67185 1.1861-1.0368 1.6257-0.083 6.2767 0.92068 4.6523 2.7786 12.553 6.042 11.163 3.2472-1.4059 29.758-9.7732 33.474-17.674" fill="#cfa996"/>
   <path d="m193.38 154.5c1.07 3.9357 2.6791 7.71 5.0181 6.7151 3.2472-1.3893 29.758-9.7583 33.474-17.673 1.2856-2.7205 2.339-6.2323 3.044-9.7732-11.675 10.9-29.041 18.712-33.547 20.365-3.2182 1.1861-5.8376 1.1861-7.9883 0.37325" fill="#a77c6b"/>
   <path d="m161.59 161.88c-0.0415 0.2903-0.12442 0.52669-0.20736 0.74649 0.083-0.24884 0.16589-0.46863 0.20736-0.74649" fill="#0f141b"/>
   <path d="m-20.365 245.07c0.20736 2.8657 14.396 9.6853 19.297 8.2806 3.2472-0.92067 7.6519-3.9771 10.27-5.6617-8.2661-0.46863-21.228-4.4329-27.578-7.6519-1.1114 1.6257-2.0487 4.17-1.9906 5.033" fill="#a77c6b"/>
   <path d="m18.332 244.12c-5.5597 2.621-11.412 6.0275-11.221 6.1884 3.6122 3.2057 10.446 9.5538 14.469 9.8611 6.042 0.45203 8.6319-1.0244 20.248-3.8776 8.9098-2.2104 32.816-3.6702 44.988-13.635-22.194 3.2928-59.15 4.6817-68.484 1.4639" fill="#a77c6b"/>
   <path d="m88.241 241.93c-6.5397 5.6617-15.157 9.217-26.378 11.075 33.503 20.921 65.675 8.1346 84.753-11.982-21.228 7.4321-44.3 4.8132-58.375 0.90823" fill="#dddaaf"/>
   <path d="m106.67 185.53c-3.7615-5.0914-11.953-7.0373-20.834-5.8081-2.5298 0.33177-2.5588 1.3603 0.16588 1.157 7.6515-0.58475 16.02 1.3146 19.604 5.4568 1.9326 2.2229 2.5007 1.1405 1.07-0.80455" fill="#0f141b"/>
   <path d="m111.33 90.035c-1.8745 0-2.5007 1.0658-0.5267 2.0487 6.5542 3.2762 34.922 18.77 40.453 23.482 1.0409 0.8792 2.6625 0.42301 2.7371-1.7542 0.20736-3.861-1.551-17.556-4.6378-23.73-0.82114-1.6547-2.4012-2.5754-2.31-0.20736 0.083 2.2104 0.45204 8.6464-0.45203 12.084-4.9446-2.8076-25.354-11.909-35.259-11.909" fill="#0f141b"/>
   <path d="m113.3 91.297c-1.522-0.04141-1.464 0.08295-0.37324 0.55571 7.3002 3.1892 34.366 18.478 38.873 22.413 0.52668 0.46863 0.96629 0.60134 0.90823-1.0078-0.29031-8.3831-2.1814-17.747-3.7905-21.829-0.61377-1.551-0.85016-1.6381-0.65939 0.45204 0.2903 3.3343 0.42301 8.9977-0.52669 12.48-9.3634-5.106-30.182-12.918-34.425-13.065" fill="#292422"/>
   <path d="m115.92 105.02c-6.4812 1.945-3.9647 34.849 3.7905 37 2.3846 0.6594 7.9294-0.86261 11.675-2.7786 6.1444-3.1601 8.573-6.1009 8.544-8.6464-0.083-5.3258-2.3266-10.724-7.4321-15.816-6.5251-6.5396-12.845-10.885-16.576-9.7583" fill="#fff"/>
   <path d="m115.53 135.68c1.07 2.31 2.65 3.9937 3.861 4.8426 3.7449 2.6044 19.312-4.4768 19.561-9.6998 0.58474-12.158-18.361-26.671-22.531-24.491-2.1524 1.128-3.7034 5.6177-3.7324 11.836-0.029 4.5498-0.97872 4.345-1.1861 0.20736-0.33178-7.0079 1.1861-12.743 3.9647-13.943 6.1448-2.65 25.544 12.758 25.544 25.764 0 7.0954-17.717 15.654-22.809 12.245-1.6547-1.099-2.9113-3.4836-3.8486-6.3203-1.099-3.3053-0.20736-3.409 1.1695-0.42301" fill="#0f141b"/>
   <path d="m124.57 138.04c1.6838-0.41471 2.0611-6.0275 0.24883-13.328-2.2809-9.261-4.8281-13.065-6.9349-12.538-1.5635 0.37324-2.5588 3.5417 0.0829 14.235 1.8745 7.593 4.8572 12.055 6.5981 11.631" fill="#0f141b"/>
   <path d="m120.01 120.05c0.46863-0.12442 1.0658-1.3893 0.53914-3.5417-0.53914-2.2104-1.551-2.9984-2.1192-2.8657-0.67183 0.1659-1.0824 1.6962-0.63037 3.5541 0.4396 1.7833 1.5344 3.015 2.2104 2.8532" fill="#fff"/>
   <path d="m165.36 109.58c-0.68844-3.6702-2.7952-6.2178-5.1939-5.7351-4.184 0.83358-3.1726 11.28-2.8657 13.504l1.3188-0.12442c-0.2903-3.861 0.2903-10.212 1.974-10.548 1.522-0.2903 2.7205 1.522 3.3053 3.3799 0.4396 1.3769 1.8414 1.522 1.464-0.48107" fill="#0f141b"/>
   <path d="m150.74 164.15c-6.4372-7.1248-16.459-10.007-17.849-10.914-2.1192-1.4059-2.0611-1.2566-0.24882-0.45204 4.0227 1.7708 6.4961 2.8989 10.212 2.6169 9.1001-0.65941 9.2905-3.073 19.049-3.7905 10.49-0.75893 21.711 1.0658 26.949-0.75893 14.571-5.0624 28.631-31.806 25.413-34.615-2.2809-2.0031-13.606-1.4183-19.356 1.522-7.4176 3.803-17 6.4667-21.785 5.6621-7.1982-1.2151-10.578-7.4321-17.63-5.7646-4.0518 0.9497-9.4949 11.485-16.942 17.542-7.4321 6.0424-16.679 10.651-16.679 15.055 0 4.1845 17.132 7.3446 27.446 22.94 12.231 18.507 19.721 28.47 25.881 26.744 7.4031-2.0777 8.3685-26.715-1.1695-48.016-2.2685-0.0829-6.4666-0.45203-6.4666-0.45203 7.0079 8.471 14.367 40.438 7.0813 42.603-3.2638 0.96628-5.1939-1.2566-7.5785-4.6962-1.7252-2.4717-12.084-20.526-16.327-25.223" fill="#fcd13e"/>
   <path d="m121.91 150.43c0.46862 4.0974 17.249 7.3882 27.417 22.765 12.231 18.508 19.721 28.471 25.881 26.744 7.4027-2.0777 8.3685-26.715-1.1571-48.017-2.2809-0.0829-6.4812-0.45205-6.4812-0.45205 7.0079 8.471 14.367 40.438 7.0808 42.603-3.2638 0.96628-5.1935-1.2566-7.5785-4.6966-1.7252-2.4717-12.07-20.526-16.327-25.222-6.4372-7.1252-16.459-10.007-17.849-10.914-1.0368-0.68843-1.551-1.0078-1.5966-1.0534-3.3924-1.0534-6.7006-1.8123-9.3925-1.7542" fill="#dab932"/>
   <path d="m160.45 151.82c5.7351 6.5691 9.8167 25.281 7.7834 26.847-1.4349 1.1114-5.4133 0.12441-9.8607-2.8989 2.4883 3.5417 6.5396 10.578 8.5 13.343 1.464 2.0902 3.467 4.2135 4.7987 4.6087 1.0534 0.29029 2.5464 0.51009 3.1892 0.29029 5.106-1.6837 0.82113-32.947-7.3301-42.501-1.2151-0.0829-4.8132 0.083-7.0808 0.2903" fill="#922f00"/>
   <path d="m139.02 155.36c9.8462 4.6232 17.878 17.147 19.97 20.921 5.7936 3.9647 8.2222 3.1726 9.2465 2.3846 2.0321-1.5635-2.1068-20.424-7.8418-26.993-5.5448 0.63037-15.084 4.4769-21.375 3.6868" fill="#ed8599"/>
   <path d="m165.04 160.2c-1.3188-3.4214-2.8989-6.5396-4.6378-8.5295-5.5448 0.63037-15.084 4.4914-21.375 3.6868 3.832 1.8123 7.4031 4.8132 10.446 8.0322 4.8721-2.31 10.724-3.1601 15.567-3.1892" fill="#ce7486"/>
  </g>
  <g fill="#0f141b">
   <path d="m161.64 151.92c5.6327 6.5396 10.563 25.998 6.7445 27.651-2.2395 0.9497-6.73-0.78797-9.4364-2.9569-0.42301-0.33178-1.7833-3.1477-1.2151-2.5754 2.339 2.3556 8.0173 5.6472 10.197 4.2865 2.0487-1.2856-2.1068-20.043-8.1488-26.115-0.49766-0.49765 1.1114-1.157 1.8579-0.2903"/>
   <path d="m145.04 84.02c3.8486-11.426 6.9639-18.376 12.757-28.222 2.9984-5.091 7.5346-10.299 4.5063-13.314-3.7905-3.8029-18.142-2.5588-19.765-1.3437-0.83358 0.63037-1.916 2.5298-3.8486 10.504 0.52668-15.405-0.78797-24.315-2.5464-25.866-4.8716-4.3159-19.268 8.1346-21.887 16.62-0.33178 1.0658 0.20736 5.5153 1.0078 8.9977-3.6122-1.4474-16.708 5.3984-14.674 12.187 1.0244 3.438 5.3988 12.172 8.5879 17.483-36.722 11.543-40.306 61.476-15.069 83.012-5.4278 0.57232-14.03 3.9813-18.873 7.3591-28.544 4.3889-59.369 21.799-68.484 43.159-12.187 9.5974-22.809 19.005-27.212 25.062-7.0663 9.7583 12.128 17.6 20.073 15.332 1.8579-0.53912 5.1939-2.0031 6.4667-2.5878 4.0103 4.1389 10.563 9.0416 16.547 9.4949 6.3642 0.49766 34.557-5.6911 47.387-9.6268 13.767-4.2135 21.711-10.446 29.334-21.506 9.217-13.387 11.923-29.509 11.016-38.916-0.42301-4.301-1.7542-4.228-1.3769 0.20736 0.37325 4.0684-0.16588 17.893-11.485 36.356-6.9204 11.675-17.981 17.747-28.603 21.112-11.938 3.7615-40.438 9.9046-46.48 9.4514-4.0227-0.2903-10.226-4.8866-13.855-8.0907-0.41472-0.33178 22.048-12.202 37.79-18.054 16.269-6.042 28.368-7.2567 27.944-8.6319-0.41472-1.3312-13.679 0.78797-30.753 6.8764-20.234 7.2127-36.985 17.044-36.985 17.044s-4.199 2.5878-7.4616 3.5251c-7.3736 2.1068-17.79-4.3595-18.01-7.2857-0.24884-3.438 8.398-13.182 25.603-25.925 5.0185-3.6993 24.418-15.918 27.608-18.112 2.8823-1.9906 2.3266-3.0565-0.86261-1.5676-6.0275 2.8242-19.356 11.456-22.882 13.855 11.06-20.643 38.989-35.2 66.026-39.297 4.8721-4.0684 15.581-7.0224 18.215-7.593 3.3509-0.71746 2.9569-0.90823 0.65939-3.073-27.49-25.998-14.806-71.147 15.683-80.247 0.7299-0.20736 0.65939-0.4396 0.16588-1.4183-1.7999-3.5417-7.0663-14.03-8.2222-17.863-1.3893-4.6523 7.7979-7.9588 10.578-8.8952 1.3893-0.45204 2.2104 0.04154 2.7081 2.4883 0.2903 1.5635 2.9694 16.723 4.6378 23.453 1.0824 4.345 1.5801 4.3159 1.128-0.16589-0.90823-8.6464-4.9156-31.47-4.9156-35.99 0-6.701 13.825-16.927 16.298-16.693 2.2809 0.24882 4.272 16.678 1.0078 51.308-0.48106 5.135 0.60134 4.9741 1.3603 0.16588 1.0824-6.803 2.8367-21.594 3.0564-22.311 2.5588-8.2367 3.5997-10.914 4.1845-12.377 0.93726-2.3266 14.615-2.1358 17.439 0.70086 1.4059 1.3893-5.3988 8.544-10.519 20.16-3.9813 9.0562-6.2763 16.43-7.0958 19.239-0.2903 0.99532-0.20736 1.2276 0.67185 1.522 15.318 4.8576 28.982 20.966 26.612 36.649l1.5801 0.68843c2.8076-7.637-0.60135-29.495-26.773-39.048"/>
   <path d="m63.224 252.4c8.4855 5.4572 35.127 17.863 63.568 2.2809 33.942-18.595 30.694-43.7 31.163-63.7 0.0145-1.0534 0.12441-3.4546 0.12441-4.4329l2.2685 2.1234c-0.083 2.4302-0.24883 6.5251-0.20735 7.7834 0.87919 30.753-8.2371 47.768-32.743 61.198-25.193 13.811-55.39 5.0181-66.743-4.5503z"/>
   <path d="m171.66 116.99c2.9403-2.5298 4.9741-5.1499 6.5981-7.4176 0.33177-0.46863 1.3478 1.7252 1.1405 2.0197-1.6962 2.2975-4.0103 4.6813-7.0224 7.1688-0.20736 0.1659-0.8792-1.6257-0.71746-1.7708"/>
   <path d="m141.7 156.19c9.8462 4.6232 15.698 15.859 17.776 19.634 5.8085 3.9647 7.7394 3.6288 8.7638 2.8367 2.0197-1.5676-1.8745-19.561-7.608-26.13-5.5448 0.63037-12.641 4.4474-18.931 3.6578m18.931-3.6578c5.7351 6.5687 9.6268 24.564 7.608 26.13-1.4474 1.1114-3.861 1.0948-8.2956-1.9326 2.4717 3.5417 5.7206 9.4949 7.6955 12.275 1.4639 2.0777 2.9984 3.8486 4.3454 4.243 1.0534 0.33177 1.8745 0.33177 2.5173 0.12441 5.1205-1.6962 0.74649-31.426-7.4031-40.979-1.2151-0.083-4.2135-0.12442-6.4667 0.12442m-10.519 12.143c-6.4376-7.1248-17.22-10.636-18.595-11.543-2.1233-1.4183-1.1114-1.8579 0.70088-1.07 4.0227 1.7708 6.9054 2.5464 10.622 2.2809 9.0997-0.6594 9.1876-2.8366 18.946-3.5417 10.49-0.75894 21.375 1.1405 26.613-0.68844 14.571-5.062 28.075-30.767 24.871-33.577-2.2975-2.0031-12.538-0.67183-18.273 2.2685-7.4321 3.803-17.513 6.2763-22.296 5.4572-7.1982-1.1985-10.153-7.4176-17.205-5.7496-4.0393 0.94969-8.5589 10.929-15.991 16.971-7.4466 6.0424-16.752 10.387-16.752 14.791 0 4.1841 17.22 6.6566 27.534 22.267 12.231 18.493 18.595 28.192 24.754 26.48 7.4176-2.0777 7.8709-25.252-1.6672-46.553-2.2685-0.083-4.301-0.16589-4.301-0.16589 6.993 8.4706 13.109 40.335 5.8226 42.501-3.2638 0.96629-6.0569-1.7708-8.4415-5.2084-1.7128-2.4717-12.084-20.234-16.342-24.945m38.814-13.035c-2.8823 1.0078-6.8764 1.0824-13.548 0.79211 10.329 27.739 6.5251 46.012 0.68843 48.104-8.4855 3.044-16.839-11.06-28.002-27.695-4.6962-6.9784-10.666-10.651-19.853-15.815-4.8572-2.7371-7.6955-3.3219-7.6955-6.9639 0-4.5793 11.558-10.622 18.141-16.049 6.4227-5.2963 12.319-15.713 16.459-16.942 7.4321-2.1939 12.201 4.4768 18.127 5.3108 4.6083 0.64282 13.489-0.99531 20.848-5.2374 5.7641-3.3219 17.498-4.4478 20.292-1.6962 5.3254 5.2524-11.426 31.28-25.456 36.196"/>
  </g>
 </g>
</svg>
