<?xml version="1.0" encoding="UTF-8"?>
<!-- Created with Inkscape (http://www.inkscape.org/) -->
<svg version="1.1" viewBox="0 0 268.99 347.77" xmlns="http://www.w3.org/2000/svg">
 <g transform="translate(38.884 30.53)">
  <path d="m143.61 196.1-5.8704 5.8971c1.5661 4.4887 12.79 41.504 36.789 28.714z" fill="#f9dad9"/>
  <path d="m164.45 219.43-20.838-23.335-5.8835 5.8967c0.65129 1.8447 2.9365 9.2172 7.0788 16.349 7.8491 6.0563 13.64 3.4673 19.643 1.088" fill="#f29c97"/>
  <path d="m152.16 205.68-8.5531-9.5756-5.8704 5.8967c0.18824 0.50447 0.47813 1.4344 0.90354 2.6579 4.0377 2.1233 8.9782 2.3643 13.52 1.024" fill="#d18784"/>
  <path d="m147.62 187.99-4.5023 7.0521c3.3582 6.7336 16.482 34.438 37.028 36.351 16.827 1.5661 13.454-6.9595 13.454-6.9595z" fill="#f9dad9"/>
  <path d="m178.78 212.69-31.158-24.69-4.5022 7.0389c2.0066 4.0241 7.4772 15.472 15.911 24.477 12.218 5.1528 22.166-0.0752 19.749-6.8266" fill="#f29c97"/>
  <path d="m162.09 199.46-14.463-11.462-4.5023 7.0521c1.0767 2.1534 3.1473 6.4415 6.1362 11.342 5.5248 0.47811 9.0576-3.4259 12.83-6.9328" fill="#d18784"/>
  <path d="m147.38 187.64c4.9405 5.6049 27.147 31.41 37.918 35.009 10.771 3.584 28.276 1.5661 18.62-11.223-9.6419-12.79-34.106-24.012-53.616-31.636z" fill="#f9dad9"/>
  <path d="m192.01 200.56c-11.754-8.2343-27.957-15.393-41.703-20.772l-2.9214 7.8491c3.4937 3.971 15.645 18.062 26.27 27.227 11.727 3.0005 20.373-4.9409 18.355-14.304" fill="#f29c97"/>
  <path d="m159.7 183.6c-3.2-1.3553-6.3617-2.6316-9.4032-3.825l-2.9102 7.8623c1.8334 2.0857 6.0563 6.9595 11.196 12.444 2.033-4.6882 2.4584-8.6593 1.1144-16.482" fill="#d18784"/>
  <path d="m105.65 286.81c1.2348 0.82447 2.4697 2.737 3.2415 4.104 0.49317 0.86212 0.18822 1.2762-0.6626 1.0089-1.1558-0.37647-2.6956-0.75671-3.4786-0.62495z" fill="#dcdddd"/>
  <path d="m132.35 285.92c-2.9214 1.792-3.8781 4.2899-3.505 4.8343 0.38401 0.53083 3.8645-0.80942 4.6216-0.33884-2.1384-1.8447-1.1144-4.4891-1.1144-4.4891" fill="#dcdddd"/>
  <path d="m115.29 225.11c1.792-4.4891 0-11.448 0.22588-12.564l-3.8649-1.6188-3.5464 1.8447c0.39907 2.9365-0.47811 8.0614-2.0593 14.198-4.7018 18.248-15.553 45.435-17.239 50.641-4.7014 4.2632-20.865 8.3005-24.225 8.7523-3.3732 0.45177-8.5264-1.1144-8.9778 3.8114-0.18823 2.2325 0.6099 3.8649 1.7393 4.9273 1.3666 1.2875 3.2151 1.728 4.3163 1.3553 1.5661-0.51953 10.559-2.417 10.559-2.417s-8.9782 3.9974-10.784 6.4678c-0.63624 0.88848-0.99765 1.8334-1.088 2.801-0.18823 1.7393 0.47813 3.5464 1.7657 5.2725 2.0179 2.6956 8.7523 1.5661 11.448-2.0179 2.417-3.2264 12.949-11.316 17.358-12.63 0.50447-0.15059 0.94495-0.22589 1.2612-0.15059 3.3582 4.2632 1.3402 9.8678 3.584 14.583 1.0767 2.2325 3.3054 3.1473 5.6445 3.3054 2.5751 0.18824 5.2857-0.57224 6.6937-1.5134 2.6956-1.792 3.5991-4.4891 2.2438-6.9591-1.3402-2.4697-6.7336-7.8495-6.9463-11.21 2.5901-0.58353 3.0005-2.033 2.5374-3.5991-0.62495-2.0857-2.801-4.3829-3.441-5.1532-1.6753-6.0164 1.024-19.258 4.3829-31.636 3.4146-12.564 7.5039-24.225 8.407-26.482" fill="#f2d5b5"/>
  <g fill="#d1b99e">
   <path d="m61.668 296.46c1.5548-0.51954 7.796-1.8447 10.559-2.417 2.2701-0.95625 4.2764-2.2702 5.6577-4.3566-7.5969 1.2875-14.171 1.8184-15.207 2.5638-1.3666 0.97129-3.136 2.737-5.3392 2.8424 1.3817 1.2876 3.2264 1.7393 4.3298 1.3666"/>
   <path d="m90.401 291.66c-8.6593 0-15.725 10.745-22.817 13.892-1.9539 1.3026-4.9141-0.95624-7.2385-2.2438-0.15059 1.7393 0.47811 3.5464 1.7807 5.2729 2.0179 2.6842 8.7391 1.5661 11.435-2.0179 2.417-3.2264 12.059-11.09 18.408-13.042-0.22588-0.96754-0.71905-1.8598-1.5661-1.8598"/>
   <path d="m110.36 303.19c-1.3402-2.4697-6.7336-7.8491-6.9595-11.222 2.6014-0.57223 3.0156-2.0179 2.5374-3.5878-1.3666 0.95624-3.0156 0.90354-4.5553 0.42541-1.024-2.5111-2.6316-4.6088-2.3906-2.417 0.15057 1.3139 2.6014 11.9 4.3031 13.759 3.9978 4.3961-0.57223 8.686-1.8861 11.515 2.5902 0.18825 5.2989-0.57223 6.7069-1.5134 2.6956-1.792 3.584-4.4891 2.2438-6.9591"/>
   <path d="m115.52 212.54-3.8649-1.6076-3.5313 1.8334c0.384 2.9365-0.48942 8.0618-2.0706 14.198 2.5224 7.9154 1.3139 16.309 0.83578 24.623 3.4146-12.564 7.5039-24.225 8.407-26.483 1.792-4.4891 0-11.435 0.22588-12.564"/>
  </g>
  <g fill="#fff">
   <path d="m63.242 302.38c-1.2612-0.42542-4.9672 3.3732-7.1587 7.9421-1.0089 2.1233-0.37647 2.7106 1.5812 1.7657 4.1969-2.0179 9.1641-4.4093 9.1641-4.4093s-0.15059-4.1303-3.584-5.2992"/>
   <path d="m58.08 289.51c-1.329 0.18824-5.7111 2.9478-8.1149 7.1982-0.67765 1.1972-1.0504 2.3793 0.86212 1.5398 4.3562-1.8974 9.7221-3.5727 9.7221-3.5727s-0.90354-5.3922-2.4697-5.1664"/>
   <path d="m106.77 303.42c2.3906 0.47811 3.6669 11.515 2.0179 12.086-2.496-1.7657-7.371-6.3349-7.1451-7.5434 0.22589-1.2085 1.7657-5.2194 5.1265-4.5422"/>
  </g>
  <path d="m133.53 205.28-8.1413 6.149c-0.0752 7.8096-1.792 9.8546-0.87719 13.852 1.0767 4.715 13.294 41.039 14.57 53.935-3.1473 2.6956-9.4296 6.2555-5.8704 11.409-0.74543 3.2942-8.354 6.9723-10.067 9.2037-1.713 2.2325-1.4758 4.768 0.90354 6.9595 2.3756 2.1911 6.0296 4.5286 8.9778 0.22588 2.9478-4.3167 6.9595-8.7523 12.79-11.223 3.1737 0.0377 9.5624 11.063 11.661 15.034 2.112 3.9579 9.2568 2.7897 11.674 0.45178 2.417-2.3492 1.5661-7.5303-1.1294-8.9778-8.7523-4.715-11.661-10.094-11.661-10.094s8.633 0.9826 15.699 8.075c1.5134 1.5021 7.5302-0.22589 7.8623-5.1664 0.30118-4.9405-5.9498-5.3124-9.2037-6.2819-3.2527-0.96753-11.449-4.4891-18.395-8.7523-8.6329-17.744-21.994-58.716-18.62-70.005z" fill="#f2d5b5"/>
  <g fill="#d1b99e">
   <path d="m139.31 247.44c-3.8781-15.14-7.371-31.489-5.6181-37.36l-0.15058-4.8076-8.1413 6.149c-0.0752 7.8228-1.8071 9.8678-0.88848 13.866 0.0752 0.33883 0.22588 0.83578 0.39905 1.4871 5.1532 1.8861 7.8627 3.3883 14.41 20.665"/>
   <path d="m154.54 288.97c0.85084 1.4344 1.5398 3.3318 1.5398 3.3318s8.9115 0.87718 15.977 7.9685c1.5021 1.5134 7.5306-0.22589 7.8627-5.1528 0-0.15059-0.013-0.26353-0.013-0.37647-6.574 4.5286-15.207-5.1001-25.367-5.7774"/>
   <path d="m164.52 307.8c-3.7459 5.8704-7.1718 2.7483-7.0389 3.0156 2.097 3.9714 9.2568 2.801 11.674 0.45177 2.4057-2.3492 1.5661-7.5302-1.1294-8.9778-2.4057-1.2876-4.3562-2.6316-5.9366-3.9048 2.8424 2.9365 4.7812 5.8836 2.432 9.4164"/>
   <path d="m144.04 293.63c-5.2594-0.63624-11.794 12.285-18.421 14.437 2.2438 1.5812 5.0466 2.3793 7.3973-1.0616 2.9478-4.3031 6.9595-8.7523 12.79-11.21 0.42542 0 4.3826 3.6142 4.9006 3.9579-0.85084-2.0066-3.0268-6.9858-6.667-6.1226"/>
  </g>
  <g fill="#fff">
   <path d="m165.87 305.9c2.7219-0.78307 5.1664 6.481 4.1439 10.864-2.097-0.96753-8.2745-6.2954-8.2745-6.2954s0.55718-3.5313 4.1307-4.5685"/>
   <path d="m177.92 292.75c1.9012 0.18824 5.6577 5.4322 6.2419 7.7829 0.22589 0.90354-0.68894 0.80942-1.024 0.67765-3.0268-1.2499-8.168-2.9102-8.6062-2.9628 0 0 0-5.8305 3.3883-5.4984"/>
   <path d="m124.7 302.8c-1.5021 0.0752-4.622 4.2233-4.5158 9.8546 0.013 0.30118 0.384 0.54589 0.54589 0.37648 0.80942-0.91483 7.9684-4.9141 8.8984-5.0203 0 0-1.5021-5.3392-4.9273-5.1931"/>
  </g>
  <g fill="#dcdddd">
   <path d="m66.16 305.14c-3.1624 1.2085-5.8436 3.5991-7.8491 6.5081 4.0772-1.9539 8.5132-3.9579 8.5132-3.9579s0-1.2235-0.66259-2.5487"/>
   <path d="m60.043 292.47c-3.4786 0.91484-6.7867 2.9628-9.1242 5.7375 4.343-1.8861 9.6287-3.5313 9.6287-3.5313s-0.18824-1.0504-0.50449-2.2062"/>
   <path d="m108.86 315.74c1.5134-5.9901-0.53082-12.007-2.097-12.312-0.82447-0.18824-1.5812 0.0377-2.2588 0.46307 2.5374 3.3996 3.2414 7.3179 3.9711 11.263 0 0 0.384 0.58355 0.384 0.58355"/>
   <path d="m161.75 310.47c1.4231 1.1972 3.2528 2.5902 7.7162 6.2555 0.22588-0.11294 0.60988-0.15059 0.63624-0.63623-1.2085-3.0268-3.6518-6.8134-5.6181-9.5892-2.3228 1.408-2.737 3.971-2.737 3.971"/>
   <path d="m175.54 294.04c-1.0089 1.6339-1.0089 4.2237-1.0089 4.2237s4.9405 1.408 9.8678 3.5878c0-0.013-0.013-0.0267-0.013-0.0377-2.432-3.0796-5.3791-5.7243-8.8453-7.7697"/>
   <path d="m120.58 312.58c-0.11294 0.18824 0.18824 0.39905 0.43672 0.11294 4.1838-2.7106 8.6194-4.715 8.6194-4.715s-0.30118-1.4344-1.1294-2.7483c-3.2791 1.5812-6.0564 4.2368-7.9289 7.3446"/>
  </g>
  <path d="m127.84 171.55-32.061-1.1671-7.185 17.252c3.7309 13.852 8.4601 16.708 15.26 20.427 3.6405 1.9802 4.3697 4.2764 3.441 7.3311 2.4584-1.5661 3.0683-2.1798 3.0683-2.1798l1.7657 2.801s1.728-3.2264 2.2061-4.2233c0.46306 0.95625 0.9826 2.8687 2.0066 3.52 0.45178-6.5077 1.1934-11.967 2.7746-15.114 2.9102 0.67765 2.9102 2.4697 3.5878 7.185 0.67766 4.715 1.5661 7.3977 1.5661 7.3977 1.4871-3.3054 2.1233-4.3031 2.6956-3.3619 0.67767 1.1144 1.5661 2.6956 1.5661 2.6956s1.5661-3.5991 2.6956-2.4697c0.22588-1.1294 1.3402-3.584 1.3402-3.584l1.9539 4.1702s1.1972-6.8665 2.9892-9.5624c1.792-2.6956 8.5-7.7298 8.0618-11.608z" fill="#152039"/>
  <path d="m104 121.48c-2.801 0.86213-9.4826 4.954-10.771 6.6806-2.5901-0.43671-4.954-1.5134-4.954-1.5134l1.4758 4.157-5.565-2.2174s1.728 3.6669 0.86212 4.7413c-0.51576 0.63624-3.825 5.7906-6.481 11.156-2.1911-0.85084-3.2-0.86214-3.3318-0.53084-0.26353 0.63624 1.8184 2.737 1.5812 3.3996-0.95626 2.737-1.6188 5.7239-1.6716 8.8054-0.86212 2.3793-4.1702 4.343-4.1702 4.343s4.5821 1.2876 4.7944 2.5751c0.22589 1.3026-5.6708 4.9405-5.6046 5.3919 0.0752 0.43671 7.7162 1.0617 7.7162 1.0617 0.62495 1.024-0.80942 6.1226-2.737 7.9556 1.713 0.2259 4.0908-0.6513 4.0908-0.6513l-1.728 6.4678 3.8781-2.3793 5.3124 11.409 0.95624-3.2151s2.417 2.9365 3.5313 2.5111c0.51954-0.18825 0.59859-1.3402 0.30118-3.1624 1.088 1.5548 3.7196 4.6882 5.1799 6.5608 0.57225 0.73037 0.80942 0.51954 0.74166-0.92988-0.0752-1.4344-0.70401-4.0908-0.70401-4.0908 2.2061 2.432 4.6882 5.1001 5.538 4.7281 0.41035-0.18824 0.38399-1.1558 0.013-2.6052-1.8598-6.2156-5.2861-16.442-4.6619-16.84 0.62495-0.41036 7.6767 10.16 9.1905 15.765 0.44048-1.1558 1.2762-3.4146 2.1384-3.2942 0.60989 0.0752 1.2762 2.0706 1.9125 6.335 2.2174-1.8711 3.4937-3.2528 3.4937-3.2528l1.5021 4.954c1.728-4.768 3.7572-5.3256 5.6046-0.65131 1.5812-3.1624 1.9012-2.2325 3.2414-1.2348 0 0 0.87718-10.306 3.2414-17.85 0.44048 1.728 2.7746 11.979 1.9125 16.07 1.9388-1.0767 3.4523-3.8781 3.2414-2.1534-0.22588 1.713 0.42543 4.5154 0.42543 4.5154l3.5727-3.2 1.1671 3.6405s5.1532-4.1966 5.8041-4.4093c0.6513-0.22587 4.1036 2.4697 4.1036 2.4697v-5.6038l3.441-1.0767-1.5661-3.5313s2.033-4.7413 2.2174-6.0164c1.0616 0.33882 3.7572 1.8447 3.7572 1.8447l-0.74541-5.3124 4.104-0.704-2.1384-4.4228c3.7986-0.45177 5.1664-0.0752 1.4871-3.825 3.2264-2.1647 3.8118-6.7863 3.8118-6.7863-3.0532 1.2348-5.0866 2.6428-4.8874-1.6188 0.37647-8.1815-1.9389-12.06-1.9389-12.06s1.1144-4.9273 0.71532-5.1133c-0.41037-0.18825-2.1798 1.3816-2.88 1.393-0.43671-0.22588 0.6626-2.2852 1.0617-3.9044-1.009 0.33883-2.9478 1.3139-3.1624 0.9299-0.15059-0.26354 0.43671-0.9826 1.6602-4.5158 0.26353-0.73036 0.11294-0.83578-0.41035-0.58353-2.2325 1.0767-4.25 0.95624-6.8662-2.1798-3.2264-3.8781-12.737-7.5702-12.737-7.5702s-1.3026-3.4523-3.2415-6.2555c-0.63623 4.104-1.713 7.3311-2.3642 6.2555-0.65129-1.0767-1.7657-3.8649-1.7657-3.8649s-1.2499 1.9276-2.3228 2.3492c-1.0767 0.43671-5.8169-0.63624-7.7561-0.63624z" fill="#cf7100"/>
  <path d="m158.72 164.35c3.2264-2.1534 3.8118-6.7867 3.8118-6.7867-4.9009 1.5812-4.9939 2.3642-4.8878-1.6188 0.22588-8.1812-1.9388-12.059-1.9388-12.059l0.67765-3.825c0.26353-1.2876 0.15059-1.7657-1.1821-0.6626-0.54588 0.30118-1.2198 0.91484-1.6602 0.70401-0.39906-0.18823 0.47813-1.6339 0.78306-3.121-1.5925 0.54589-4.0772 2.4697-2.88 3.0683 1.1821 0.59859 1.0617 9.5493 0.33882 7.7561-0.7153-1.792-2.1798-4.9141-2.4584-4.3031-0.26353 0.59859 0.63625 14.238-2.0706 18.992 0-1.329-2.3906-6.9192-2.7483-5.6177-0.37648 1.3139-3.9447 12.896-4.1838 13.015-0.22588 0.15059-2.2701-5.0071-2.9892-4.529-0.70401 0.47812-1.6602 8.593-2.1384 9.0712-0.47811 0.47813-3.4673-4.7681-3.9447-6.9196-0.47812-2.1534-1.6753-5.3787-2.033-3.825-0.37646 1.5548-2.3906 6.6805-2.5111 6.6805-0.11294 0-1.4344-1.5398-1.6716-1.5398-0.22588 0-4.2896 7.6368-3.9311 7.9952 0.37647 0.37649-2.9892-5.2593-2.9892-5.2593s-3.2264 2.033-3.825 2.6316c-0.59861 0.59859-4.3031-3.2264-4.3031-3.2264s-0.22588 6.5744-0.71907 6.9328c-0.47812 0.37648-4.6487-6.4546-5.0071-6.6937-0.37648-0.22589-1.5548 6.0962-1.0767 5.9765 0.47813-0.11294-2.9892-4.6615-4.7812-5.6178-1.792-0.95625-4.5286-5.9634-5.0067-5.0071-0.47813 0.95624-1.4344 9.1905-1.4344 11.342 0 2.1534-3.3468-0.83576-3.9447-2.2701-0.59861-1.4344-1.6753 4.6619-1.6753 4.6619l-2.9892-5.6181-1.9125 2.6316-1.5548-4.1834s-3.6405 3.3054-4.7545 4.3694c1.728 0.22589 4.0904-0.63624 4.0904-0.63624l-1.728 6.4547 3.8781-2.3643 5.3922 10.984 0.86214-2.5751s4.7281 4.9405 3.8781-0.86213c0.95624 1.3553 3.2 4.2899 4.7281 6.2419 0.87719 1.1294 1.4231-0.22587 1.4231-0.22587l-0.67765-4.0242s6.7999 7.7166 5.2993 1.6753c-0.9826-3.878-3.2-10.891-4.6619-15.393-0.79813-2.4847-0.30118-2.6692 1.1671-0.42541 2.801 4.2632 7.0254 11.077 8.0084 14.742 0.86212-0.86214 2.3793-7.5306 3.8781 2.5901 1.9388-0.86212 3.6669-2.801 3.6669-2.801l1.5021 4.9536s2.801-7.7561 5.6046-0.6513c1.5134-3.0156 3.2264-1.713 3.2264-1.713s0.85083-9.7484 3.2264-17.292c0.42541 1.728 2.801 11.9 1.9539 15.99 1.9388-1.0767 3.441-3.8781 3.2264-2.1534-0.2259 1.728 0.42541 4.529 0.42541 4.529l3.4523-3.0156 1.2875 3.441s4.9536-4.0908 5.6046-4.3031c0.65131-0.22588 4.3031 2.3643 4.3031 2.3643v-5.5914l3.4523-1.088-1.5812-3.7572s1.9388-3.8118 2.2174-5.0734c0.22589-0.97131 3.7572 1.2085 3.7572 1.2085l-0.73036-5.3922 4.1303-0.47813-2.1384-4.6483c3.6104-0.26353 5.3124-0.22588 1.4457-3.825" fill="#aa5b00"/>
  <path d="m39.821 47.297c0.74166-10.094 12.577-28.076 25.739-37.48 14.025-10.027 19.51-11.714 24.836-14.981 1.6188-0.99766 2.6541-0.82448 0.46306 1.3666-9.3765 9.3369-28.674 26.416-32.313 34.903z" fill="#152039"/>
  <path d="m47.461 40.694 11.09-9.5892c2.9101-6.7735 15.791-19.019 25.633-28.435-16.522 7.6899-30.879 19.351-36.722 38.024" fill="#0b142b"/>
  <path d="m41.191 46.158c-0.30118-3.7572 5.5515-10.054 28.661-22.153 21.024-10.997 26.749-22.419 32.353-26.908-4.104 10.094-21.316 33.283-29.537 38.887-13.839 10.094-25.566 8.0087-31.476 10.173" fill="#152039"/>
  <path d="m45.319 45.233c3.2264-0.38401 15.406-0.53083 27.346-9.244 6.2819-4.2764 17.77-18.78 24.69-29.896-13.48 17.837-29.285 30.905-52.036 39.14" fill="#0b142b"/>
  <path d="m50.62 96.286 8.168 6.03c0 3.9044 9.8546 26.907 27.691 35.461-1.6753 1.1144-4.9009 0.0752-4.9009 0.0752l3.2264 4.4492-4.0908-0.9299 2.2325 4.2768s-6.1358-2.0443-7.8092-1.6753c-2.2325-2.417-9.6822-8.168-18.767-21.197-5.5782-7.9952-6.8797-17.478-9.6686-22.126z" fill="#f2d5b5"/>
  <path d="m58.782 102.32-8.168-6.0296-3.918 4.3562c1.3402 2.2438 2.3492 5.605 3.6518 9.39 4.3298-0.0752 8.6329 1.1821 12.644 3.3054-2.7746-5.2198-4.2101-9.5226-4.2101-11.024" fill="#d1b99e"/>
  <path d="m108.1 100-3.9048-23.455-8.0483-0.26353c1.3026 2.7897 8.3672 40.521 7.9952 48.702 1.6753 1.3026 3.5314-2.7897 3.5314-2.7897s1.6753 3.3468 2.9741 5.7638z" fill="#f2d5b5"/>
  <path d="m104.19 76.542-8.0351-0.26353c0.46307 1.024 1.6979 6.6406 3.0683 13.786 2.7633 0.22589 5.5647 1.7657 7.8758 3.9443z" fill="#d1b99e"/>
  <path d="m158.73 97.459-10.346-0.90354c-0.9299 3.1624-11.9 29.75-15.804 32.539 0.55718 2.7897-1.3026 6.3218 4.2764 0.55719-0.18824 3.5313-2.0442 7.4372 2.6052 2.7897 0 2.6014 0.18824 6.3218 3.7196 1.1144 1.6753-4.6483 12.83-25.287 15.804-34.027z" fill="#f2d5b5"/>
  <path d="m158.73 97.459-10.346-0.90354c-0.22589 0.7153-0.94119 2.6541-1.9916 5.2326 4.3294 3.4786 5.6708 8.1812 5.7243 13.175 2.8537-5.8704 5.6046-11.728 6.8661-15.433z" fill="#d1b99e"/>
  <path d="m19 68.676c0.18824-1.6716 2.6014-9.1107 5.9498-12.086-0.85083-0.37647-1.5548-0.65131-2.097-0.86212-1.1144-0.45177-0.90354-0.67766 0.11294-1.009 5.87-1.8711 5.5379-2.1647 2.3643-3.8916 2.2325-1.1144 4.2768-0.55719 4.2768-0.55719l-0.74541-4.6483 3.9048 2.7897s1.4758-5.2725 4.4224-7.9022c0.22588 4.5023 1.2875 6.1625 5.9897 5.1133 5.0203-1.1144 13.613-1.0767 20.294 4.3163 3.5464-0.38401 4.8742-1.1934 5.1532-0.88848 0.30118 0.30118-0.68894 2.8574-1.8598 4.3961-0.95624 1.2763 0.50447 1.1558 4.9672-0.15059 0 2.0443-1.792 3.8513-1.792 3.8513s3.3469 5.2063 3.3469 12.272c2.1534-0.26353 4.0241-0.67765 4.2368-0.26353 0.43671 0.83576-4.011 4.8079-4.7812 5.6181 0 0 2.7106-0.49319 3.4937-0.33883-0.55719 1.4871-2.9629 3.2791-3.1473 4.0241-0.18822 0.74542-1.6188 8.1544-3.8517 11.13 1.4758 1.2085 3.7719 2.9478 3.7719 2.9478s-4.8874 1.713-7.4903 0.9713c-0.18824 0.92989 2.1911 4.5154 2.1911 4.5154s-5.445 0.0753-7.4903-1.5925c0.15059 1.3666 0.50447 5.1001 1.1144 6.0695-1.1558 0.26353-3.2527-0.79813-7.3842-3.5464-0.90354-0.59859-1.1558-0.85084-1.4871-0.63624-0.77177 0.88848-0.07524 4.9273-0.07524 4.9273s-1.7807-0.30118-3.7045-1.8711c-6.1362 1.1144-12.206-2.6014-12.206-2.6014s-0.07524 1.1934 0.22589 2.8273c0.22588 1.1972-0.02629 1.5548-0.62495 0.68896-1.4494-2.0706-3.3205-4.6351-3.3205-4.6351l-1.9275 3.1473s-1.1671 1.7807-1.2198 0.30118c-0.11294-2.8424-0.6626-7.3179-2.9892-9.0312z" fill="#cf7100"/>
  <path d="m73.191 74.51s4.7014-4.9405 4.4093-5.4054c-0.30118-0.45177-2.6428 0.30117-4.3163 0.30117 0-7.0657-3.3468-12.272-3.3468-12.272s1.3816-1.7807 1.3816-3.8114c-5.1133 1.4871-5.1799 1.2348-4.2899-0.33883 1.0504-1.8711 1.5925-3.9443 1.5925-3.9443s-1.408 0.54589-4.8076 0.88848c-2.0857-1.6866-5.0734-2.7106-7.3179-3.4937 7.4241 8.9383 11.953 22.777 4.064 31.383-1.5812 1.5812-3.9447 3.9447-6.3086 4.7282 1.5812 0.78307 5.3787 2.6692 5.3787 2.6692s-3.7983 1.2762-5.3787 0.47813c0 2.3642 1.5812 3.1624 2.3643 4.7281-2.3643-0.78306-5.5116-2.3642-7.8758-1.5661-0.78308 0.78307 0.79813 2.3492 0.79813 3.1473-8.6194 3.2264-17.611 0.9299-24.451-4.622l1.5925 4.9408c2.0593 1.5134 2.6052 2.7746 2.9101 8.2742 0.07524 1.7657 0.55719 1.1144 1.3553 0.0377l1.8598-3.4937s1.4193 2.6843 2.7483 4.6084c1.2085 1.7657 1.3553 0.95625 1.1407-0.26353-0.22588-1.393-0.22588-2.7106-0.22588-2.7106s5.8704 3.7459 12.006 2.6316c1.4871 1.1407 3.8118 1.7657 3.8118 1.7657s-0.55719-4.9936 0.15059-5.1795c0.33882-0.11293 0.79811 0.58355 1.5285 1.0617 3.9048 2.6014 5.4852 2.9478 7.5039 3.8912-0.22589-0.37647-1.2235-4.9537-1.2235-6.5875 2.0443 1.6753 7.4772 1.6753 7.4772 1.6753s-2.2965-3.6518-2.1233-4.5821c2.6014 0.74543 7.6101-0.7567 7.6101-0.7567s-3.2151-1.8862-3.9579-3.3732c2.2325-2.9742 3.7986-10.413 3.9842-11.156 0.18824-0.74164 3.1887-2.9365 3.0269-3.52-0.15059-0.58353-3.0532-0.15059-3.0532-0.15059" fill="#aa5b00"/>
  <path d="m33.633 69.26s10.718-4.7018 10.97-6.4016c0.26353-1.6866-2.2438-5.7107-2.2438-5.7107-4.4492 2.737-9.0444 9.5621-10.054 11.7-0.50447 1.0617-0.30118 1.1934 1.329 0.41035" fill="#fff"/>
  <path d="m42.363 57.144c-3.5991 2.2174-7.4508 7.1451-9.151 10.16 3.1473-2.9101 7.7697-6.8661 10.917-6.5608-0.7153-1.7657-1.7657-3.5991-1.7657-3.5991" fill="#dcdddd"/>
  <path d="m17.581 112.71 11.342-34.013-50.827-14.277-5.9366 3.1473c15.791 1.6602 35.129 15.978 49.446 15.42-6.1358 8.1812-7.8092 23.242-8.3671 36.629z" fill="#922f00"/>
  <path d="m23.963 83.52 3.0005-3.4673-4.436-0.41412c-4.0908 1.8598-13.932 15.433-13.002 17.85 0.91484 2.417 8.168-7.6236 12.072-9.297z" fill="#ed8599"/>
  <path d="m23.622 83.35 3.3469-3.2942-4.436-0.41035c-1.8861 0.86212-5.0071 4.2233-7.7298 7.8228 1.728 0.30118 6.4283-1.024 4.4891 2.2702 0.83578-0.68896 1.6188-1.2499 2.3116-1.5398z" fill="#ce7487"/>
  <path d="m28.109 79.644c1.1972 0.0264 3.825 4.3961 3.0796 6.2555-4.2365 2.88-10.877 29.086-17.823 40.919-1.2235 2.0706-2.6014 1.5021-1.8974-0.85084 3.3318-11.223 8.8453-32.18 10.32-37.4 2.0443-7.2513 6.3218-8.9247 6.3218-8.9247" fill="#f2d5b5"/>
  <path d="m28.109 79.644s-3.121 1.2348-5.2993 6.1094c1.3402 6.1358 0.99766 12.165 0.15059 18.182 3.2-8.779 6.0428-16.535 8.2474-18.036 0.74541-1.8598-1.8861-6.2291-3.0796-6.2555" fill="#d1b99e"/>
  <path d="m28.882 79.924c-2.417 0.92989-11.555-0.6513-28.289-6.0428-14.052-4.529-25.885-8.0087-34.929-6.2423-2.8687 0.55719-3.5577-0.15059-0.59859-1.9539 4.7944-2.9214 12.405-5.4984 18.992-4.4492 9.2839 1.4871 34.013 8.1812 37.174 6.5077 3.1624-1.6716 4.6483-0.55719 6.1358 3.9048 1.4871 4.4624 1.5134 8.2742 1.5134 8.2742" fill="#f2d5b5"/>
  <path d="m176.1 92.116c-3.3468 1.2348-7.4241 3.6932-8.7654 5.4721-1.1972 1.5812-1.1821 3.2414-1.1821 3.2414l-3.7851-2.6315s-2.6316 1.9275-4.6487 3.3582c-1.4607 1.0353-1.713 0.47811-1.2085-0.38401 0.83577-1.4344 1.6715-3.2527 1.6715-3.2527s-1.2085 0.30118-3.3582 0.26355c-2.7106-0.0267-6.4415-0.45177-9.4563-2.1911-2.2438 1.2763-4.6084 0.9299-4.6084 0.9299 1.8711-2.4433 2.9478-4.8479-0.6626-3.9579-4.5553 1.1144-5.3922 1.0767-6.6674 0.22589 1.3817-1.088 3.8386-4.0908 3.1473-5.7642-2.496 0.87719-6.8398-0.88848-6.8398-0.88848s3.0005-3.0005 3.1473-3.9312c-1.1031-0.0752-2.5751-0.49319-3.9447-1.1821-1.9539-0.99766-1.6339-1.4344 0.18822-1.3666 0.90355-0.15059 1.6866-0.15059 2.2852-0.30118-2.6842-10.014-1.4344-18.262 0.0752-21.728 0.45177-0.78306 0.90354-0.75671 1.1558 0.37648 0.95624-2.6316 2.8273-5.7375 4.3825-7.3845-0.53084-0.9826-1.4607-1.9803-0.9826-2.4057 1.8447-0.26353 5.7638-0.45177 5.7638-0.45177s-1.9276-1.1821-2.3116-4.1702c3.7572 2.737 6.9328 2.1798 6.0296 0.86214-0.90354-1.3139-2.88-4.1171-2.88-4.1171s3.1473 0.85083 6.6007 1.7129c8.1281-2.801 16.495-1.8447 20.838 0.91484 4.343 2.7633 6.5608 3.4673 7.3974-1.5661 1.0767 2.8424 1.5548 5.9633 2.1233 8.9514 0.26353 1.3139-0.0377 2.7219 1.4231 3.136 0.51576 0.15059 1.5134 0.02672 2.1384-0.22589 0.30118-0.11294 0.54589-0.18823 0.22589 0.41036-0.67765 1.2875-1.5285 2.4584-1.5285 2.4584 1.8861 0.30118 2.9478 0.99766 2.816 1.8334-0.11294 0.62495-2.0443 3.121-1.9238 4.6619 0.0752 0.73036 0.65131 4.3694 0.83578 5.1133 1.5548 0.62495 3.4673 2.112 3.4673 2.112-0.95624 1.2348-3.2678 4.1966-3.4146 12.086z" fill="#cf7100"/>
  <path d="m183.89 68.473c-0.18824-0.74164-1.0767-5.1664-1.1294-5.9103 0.7153-2.4057 1.6188-3.2151 1.8447-4.1303 0.15059-0.62495-0.39906-1.5285-2.7897-1.9388 0 0 0.65129-0.73036 1.2762-1.8861 0.54589-1.024 0.26353-0.77177-0.45177-0.73036-1.8184 0.15059-2.4057 0.22589-3.0532-3.136-0.55719-2.9742-1.0504-6.1094-2.1233-8.9518-0.49318 2.9478-3.7045 3.8916-7.464 1.5021-3.441-2.1911-9.3234-3.0532-15.672-2.0857 11.873 8.5399 29.497 24.623 19.643 35.846-3.0268 3.441-2.2174 4.5023-6.9459 7.6635-2.9365 9.695-15.194 6.5608-19.908 8.1413-0.79813-5.512-3.2527-2.6956-7.9688-1.9125 0.78307-2.3643 1.6452-3.7719 0.86213-6.9328-3.3996 2.2702-5.5383 2.6429-9.4695 3.0532 1.4607 0.45177 3.9579 1.0617 5.6445 0.46306 1.4494 0.92989-1.088 4.5286-2.4697 5.6046 1.2762 0.86214 1.8184 0.95626 6.3752-0.15059 4.5554-1.1144 0.75672 3.8912 0.75672 3.8912s2.1233 0.46306 4.5286-0.86212c3.0005 1.7544 6.7336 2.1647 9.4431 2.1911 2.1647 0.013 3.6782-0.22587 3.6782-0.22587s-0.82448 1.1294-1.4607 2.2852c-1.3553 2.432-0.62495 2.2325 1.728 0.54587 1.7807-1.2762 3.6142-2.6014 3.6142-2.6014l3.7851 2.6165s-0.013-1.6602 1.1821-3.2414c1.3402-1.7807 4.6084-3.8514 8.5396-5.4453l7.743-9.8015c0.11294-9.1905 3.7851-12.179 3.7851-12.179s-1.9652-1.0617-3.52-1.6866" fill="#aa5b00"/>
  <path d="m116.26 75.822c2.3906-0.43671 2.6165 0.47813 4.2899 2.4584 0.384-1.5812 2.5224-5.4186 3.2414-6.7069 0.65129-1.1972 1.8184 0.33882 3.2151 1.408 0.51577-0.02629-0.37647-5.4717-0.384-5.4585 1.0353-0.03769 4.4887 1.4193 4.1834 0.63624-0.57225-1.4193-2.6165-3.0532-2.6165-4.529 1.5661-1.4193 5.233 0.63624 1.6339-3.5313 0 0 1.1558-3.7196 0.73035-6.3485-0.0377-0.57225 1.393-0.62495 3.0156-0.33883 0.45177 0.07524-4.2368-5.937-4.3961-6.4415-0.0753-0.33883 3.2-1.7544 3.6254-1.4758-0.77177-1.2612-1.7544-2.2965-3.6254-3.2264-1.408-0.7153 1.9803-1.3666 2.8424-2.3492-1.4607-0.90354-3.3205-2.3906-5.3388-3.1737-0.38399-0.87718 1.7544-2.8574 2.8537-3.3469 0 0-0.9826-1.1031-4.7014-0.47813-0.47811-2.1798-2.7746-3.2264-3.2791-4.3163-0.7153-1.6075-0.78306-2.5638 0.7153-3.8784-6.2288 2.1534-5.7638 0.62495-5.8568-2.8424-2.033 1.393-8.5531 2.801-10.346 2.5901-2.3643-0.26353-13.706 0.70401-15.938 1.4758-1.6452 0.57223-5.0466 1.4871-6.574 1.2235 0.013 1.0504 1.3816 1.6866 2.0857 2.3228-0.92988 0.51953-4.3294 0.37647-4.9672 1.1144 0.11294-0.15058 1.4758 1.3666 1.5398 1.5548 0.22588 0.66259-1.7393 4.861-4.343 5.5782-0.91484 0.26353-6.4016 0.80941-6.6406 1.8447 1.8071-0.11294 4.4891 1.3402 5.9235 2.1497-0.75672 0.41035-5.6976 3.505-6.5744 4.3829 1.4494 0.48942 3.505 0.013 4.6619 1.088-1.2499 1.393-3.1887 4.6084-2.9478 6.5077 0.0267 0.26354 2.7633-2.0706 2.6316-0.77177-0.46306 4.8076 2.9102 7.703 2.4847 8.2211-0.50449 0.60989-1.7807 4.5422-1.5812 4.6084 0.18822 0.07524 1.5398-0.73036 3.5313-0.80942 0.75671 3.0156 3.6669 5.2861 4.4093 6.4415-0.22588 1.7544-1.5812 4.3163-1.4193 6.1625-0.0752-0.94495 2.801-2.737 3.52-3.1059 2.2589-1.1972 1.1558 3.1059 1.9803 4.3163 0.0377 0.0377 3.9846-3.121 4.1969-3.2678 0.39907 0.51954 0.42543 3.9978 0.55718 4.6615-0.0377-0.26353 3.7196-3.6405 4.1303-3.6518 1.2499-0.03769 2.496 2.8273 2.2061 3.4786 2.432-1.4494 3.7986-2.7106 4.9672-2.4433z" fill="#cf7100"/>
  <path d="m133.57 53.416c0.45177 0.07524-4.3562-5.87-4.5023-6.388-0.11294-0.33883 3.4523-1.1294 3.7309-1.5285 0.15059-0.22588-2.1647-2.2965-3.2678-3.2527-2.2702-1.1407 2.2061-1.088 3.0683-2.0706-1.4607-0.90354-3.7196-2.4697-5.7375-3.2527 0.80942-2.2589 2.6692-3.52 2.6692-3.52s-0.9299-1.1558-4.6483-0.54589c-0.46305-2.1647-2.8273-3.1624-3.3318-4.25-0.7153-1.6075-0.78306-2.5638 0.7153-3.8781-6.2288 2.1534-5.6976 0.38399-5.8037-3.0683-0.71907 1.5548-8.6194 3.0269-10.413 2.816-0.15059-0.013-0.30118-0.02672-0.53083-0.03769 6.2423 7.7825 12.325 17.066 7.8096 27.412 3.1473 0 8.6593 2.3643 8.6593 2.3643s-3.0269 1.1294-3.8118 1.9125c0.78306 0.79813 2.2588 4.861 2.2588 4.861s-2.3906-1.2612-3.1737-1.2612c1.5812 3.1473-5.7375 10.864-6.5345 11.647-11.249 4.6751-18.355 0.68894-18.355 0.68894l-3.2942 2.432-0.51953-4.8475s-1.3817 1.728-2.9478 2.9365c-1.5548 1.2235-3.4259 3.1473-3.2678 4.9936-0.0752-0.94119 2.801-2.7219 3.52-3.1059 2.2588-1.1972 1.1407 3.1059 1.9803 4.3167 0.0377 0.0752 3.9846-3.121 4.1969-3.2678 0.39907 0.51954 0.78308 3.7309 0.91484 4.3961-0.0377-0.26355 3.4786-3.5464 3.8784-3.5577 1.1031 0.46305 2.3642 3.121 2.097 3.7196 1.3967-1.2236 3.7986-2.7746 4.9672-2.5111l12.365-1.7393c2.3793-0.43672 2.6165 0.47811 4.2899 2.4584-0.38401-1.2876 3.121-5.326 3.2414-6.7073 0.11294-1.3553 1.8184 0.33882 3.2151 1.408 0.51953-0.02628-0.30118-5.3655-0.30118-5.3787 1.2612 0.26353 4.2101 1.2085 3.8912 0.42541-0.51953-1.3139-2.8424-3.6781-2.1534-4.4624 2.7746-1.4344 4.529 0.18824 1.4758-3.136l0.78307-5.1001c-0.15059-1.5812-0.53083-2.5374 2.88-1.9125" fill="#aa5b00"/>
  <path d="m163.17 74.742c-4.861-0.30118-10.439-1.5021-11.303-2.0443-0.53083-2.0443 1.2235-8.6728 3.0419-7.8627 4.6483 2.0706 9.0181 5.5914 12.298 9.2703 0 0 0.82447 0.95624-4.0373 0.63624" fill="#fff"/>
  <path d="m167.2 74.104c-3.2791-3.6782-7.65-7.1982-12.298-9.2699-0.6513-0.30118-1.3026 0.38401-1.8334 1.4607 5.1268 1.329 8.5798 4.9137 12.232 8.5132 2.4433-0.07524 1.8974-0.70401 1.8974-0.70401" fill="#dcdddd"/>
  <path d="m220.67 112.56c-8.5798 4.3031-27.864-14.437-35.448-16.92-7.5701-2.4697-13.812-5.1133-14.277-8.1548 26.469 8.8321 39.883 20.095 49.725 25.075" fill="#f2d5b5"/>
  <path d="m218.4 111.34c0.55718 0.47813 1.1031 0.96754 1.6452 1.4758 0.2259-0.0753 0.42543-0.15059 0.62495-0.26353-0.73035-0.37647-1.4871-0.78306-2.2701-1.2235" fill="#d1b99e"/>
  <path d="m218.4 111.34c-4.0377-2.2702-8.7259-5.3922-14.609-8.8588-8.1544-4.7944-18.607-10.253-32.844-14.994 0.46306 3.0419 6.7073 5.6844 14.277 8.1544 1.7544 0.58354 4.1439 2.0179 6.8665 3.8517l27.957 13.321c-0.54589-0.50447-1.088-0.99767-1.6452-1.4758" fill="#d1b99e"/>
  <path d="m166.72 84.421c1.9539 1.7016 6.0428 3.8385 12.537 6.269 7.3578 2.7483 14.596 6.149 21.011 9.7085 12.644 7.0258 22.737 14.357 28.78 16.402-1.1821-4.3829-6.4148-15.712-25.447-22.618-18.076-6.5612-23.454-15.924-25.859-18.567-2.3906-2.6428-2.4057-1.2235-5.3256 2.4697-2.9215 3.6782-5.6976 6.3353-5.6976 6.3353" fill="#f2d5b5"/>
  <path d="m179.22 72.444c1.5661-2.5224 2.417-2.9741 3.2151-3.6405 0.80942-0.67766 0.73036 3.6142 0.73036 3.6142-0.33883 2.3116-3.0005 2.5224-4.0772 2.417-1.0767-0.11294-1.4344 0.15059 0.15059-2.3906" fill="#dcdddd"/>
  <path d="m99.298 52.691c-2.4697-2.6692-12.312-9.5756-12.312-9.5756s-0.85083 7.7693 0.41037 8.593c3.9312 2.5751 9.6686 4.9405 11.94 3.3318 0 0 1.8334-0.30118-0.0377-2.3492" fill="#fff"/>
  <path d="m99.298 52.691c-2.4697-2.6692-12.312-9.5756-12.312-9.5756s-0.15059 1.2499-0.22588 2.7897c3.7459 1.3026 9.3498 5.2993 13.281 8.686 0.18823-0.33883 0.15059-0.91484-0.74543-1.9012" fill="#dcdddd"/>
  <path d="m119.43 42.722c1.9652 2.1233 2.2325 8.4067 0.67765 9.3497-4.0509 2.4433-6.2818 3.2-7.7561 0.7153z" fill="#fff"/>
  <path d="m119.52 52.416c0.18824-0.11294 0.39905-0.22589 0.59859-0.33883 1.4494-0.87718 1.2085-7.6368-0.67765-9.3501l-5.3256 7.5837c2.033-0.33883 4.9141-0.82448 5.4054 2.112" fill="#dcdddd"/>
  <path d="m105.49 54.854c-2.5374 3.0419-5.9765 9.9875-5.4984 11.687 1.1972 4.3031 5.4984 6.0164 8.2474 36.271 1.3817 15.26 3.6142 39.538 4.6487 36.271 1.024-3.2678 5.1528-37.984 3.9443-52.766-1.1972-14.782-1.713-21.489-1.3666-23.216 0.33882-1.713-6.0161-8.2474-7.0521-8.9383-1.0353-0.68894-1.2085-1.3666-2.9214 0.68896" fill="#f2d5b5"/>
  <path d="m116.83 86.315c-1.2085-14.782-1.713-21.489-1.3817-23.202 0.33882-1.728-6.0164-8.261-7.039-8.9514-0.37647-0.22588-0.60989-0.46306-0.86213-0.58353 3.9711 18.833 8.7523 38.17 8.6461 57.587 0.7153-9.2703 1.1294-18.753 0.63624-24.849" fill="#d1b99e"/>
  <path d="m173.24 52.327 0.82449 4.2764c2.2588-7.9553 11.9-11.687 1.9802-36.616-5.0335-12.657-8.6457-18.912-12.218-24.902-1.3026-2.1798-2.2852-2.4057-1.4758 0.30118 4.7944 15.964 8.7654 42.872 9.3234 52.593z" fill="#152039"/>
  <path d="m176.05 19.989c-2.417-6.0695-4.5023-10.665-6.4148-14.477 4.5023 12.365 7.743 27.571 4.5286 40.441-1.1407-1.5134-2.7106-5.1931-3.3582-6.8933 0.43671 3.6405 0.74542 6.7205 0.87719 8.9119l1.6339 4.7281 0.67765 3.8382c2.4847-7.6631 11.966-11.621 2.0593-36.55" fill="#0b142b"/>
  <path d="m173.86 58.765c1.713-3.7851-5.326-19.802-18.076-36.005-9.7221-12.351-14.53-19.762-20.705-32.114-0.22588 8.2211 2.6316 29.192 14.583 43.921 9.5756 14.198 19.948 19.47 24.198 24.198" fill="#152039"/>
  <path d="m174.16 57.468c0.46305-5.6712-6.7735-19.975-18.368-34.704-9.483-12.046-15.393-20.533-20.679-32.579 4.1438 25.38 25.819 40.282 37.28 62.448 0.59859 1.5134 1.2085 3.136 1.7657 4.8347" fill="#0b142b"/>
  <path d="m103.41 33.295-0.6513-4.7278c0-4.808 6.5077-23.216 13.215-31.477 6.7069-8.2474 9.602-16.336 11.382-21.595 1.2085 9.4559-2.1384 25.128-5.7111 33.469-5.1532 12.032-17.358 23.893-18.222 28.183z" fill="#152039"/>
  <path d="m104.66 27.431c0-1.8184-0.2259-3.5313-0.47813-5.2063-0.70401 2.5224-1.5021 5.3128-1.5021 6.5345l0.73037 3.6782v3.6781c1.4344-3.2791 13.082-15.127 18.235-27.16 3.136-7.3179 6.3218-22.844 6.2423-32.924-5.0071 17.956-13.773 34.677-23.229 51.398" fill="#0b142b"/>
  <path d="m102.75 37.561c2.7106-4.0509-2.417-20.015-12.909-35.647-8.7523-13.069-11.249-19.151-15.579-31.357-1.3817 10.811 0.22588 24.995 9.5625 41.49 7.0788 15.592 15.512 20.148 18.926 25.513" fill="#152039"/>
  <path d="m89.843 1.9087c-7.3977-11.037-11.143-17.651-14.091-27.439 2.8687 21.648 21.383 37.333 27.771 58.703-0.73036-7.0126-5.6976-19.351-13.68-31.264" fill="#0b142b"/>
  <g fill="#0f141b">
   <path d="m137.35 202.96c5.5515 16.455 12.869 26.881 21.383 30.255 5.1001 2.033 11.183 0.9826 16.894-2.0593l-1.408-1.024c-5.3655 2.8424-10.466 3.3469-15.181 1.4758-5.591-2.2174-14.436-10.027-20.785-29.776z"/>
   <path d="m142.87 196.04c11.249 22.645 23.574 35.155 37.015 36.404 6.999 0.65131 11.727-0.7153 13.666-3.3054 1.6979-2.2701 0.71532-4.8475 0.67767-4.9536l-1.2499 0.49317c0.0264 0.0752 0.75671 2.0066-0.50447 3.6669-1.1407 1.5021-4.1834 3.136-12.272 2.3793-12.949-1.2085-25.101-13.069-36.138-35.275z"/>
   <path d="m150.83 180.67c27.107 10.638 45.063 21.21 52.567 31.157 2.7219 3.6142 3.3732 6.4682 1.9125 8.5-2.7483 3.825-12.723 4.0377-19.789 1.6866-6.6802-2.2325-19.058-13.613-36.776-33.841l-1.009 0.88848c6.6674 7.5969 27.16 31.41 37.559 34.877 7.703 2.5638 18.315 1.7657 21.542-2.7106 1.2612-1.7544 2.3379-5.0335-1.5548-10.173-7.6635-10.16-26.616-20.904-53.962-31.636z"/>
   <path d="m105.36 287.24c1.2612 0.83578 3.5577 3.9842 3.2791 4.2764-0.30118 0.30118-2.3492-0.68895-3.3469-0.74542-0.22588-0.013-0.46305 1.0353-0.46305 1.0353 0.65129-0.11294 2.3492 0.15059 3.5313 0.43671 0.79812 0.18824 1.5134-0.15059 0.95624-1.5812-0.88848-1.8334-2.5487-3.6932-4.0245-4.6751z"/>
   <path d="m129.26 288.33c-1.3553 2.2852-1.2499 3.4259 0.88847 2.8424 1.088-0.30118 2.3643-0.50447 3.1737-0.26353 0 0-0.18823-1.088-0.46305-1.1031-1.1031-0.0752-3.1887 0.79813-3.3205 0.50447-0.22588-0.46306 1.2612-2.8311 3.0796-3.9447l-0.54587-0.87718c-1.5134 1.1294-2.2965 1.9652-2.816 2.8574"/>
   <path d="m83.683 284.51c-1.8862 1.4871-8.5799 7.9553-10.253 8.6062-3.2678 0.65129-9.934 2.033-11.966 2.7106-0.59859 0.18824-1.5812 0.11294-2.5487-0.42542-0.46305 0.33882-1.024 0.47812-1.6339 0.53083 1.1144 1.9388 3.2791 1.6076 4.5953 1.1671 0.88848-0.30118 3.3581-0.86213 5.8037-1.408-2.816 1.393-6.4946 3.4937-7.4508 4.8076-0.83578 1.1407-0.57225 2.0179-0.57225 3.3469 0 0.33882 0.03769 0.68894 0.07524 1.0353 0.43671-0.42541 0.90354-0.82449 1.2499-1.2763 0.03769-0.87718 0.30117-1.8071 0.98258-2.7106 1.3817-1.9012 10.227-5.4186 12.737-7.1319 2.5224-1.713 7.796-6.5608 9.4962-8.3005 1.7017-1.7544 1.3553-2.4433-0.53083-0.95624"/>
   <path d="m108.97 213.85s-1.4231-0.0263-1.4231 0.53083c0 10.811-11.023 40.428-16.455 55.037-1.3817 3.7045-2.3793 6.3752-2.8424 7.796-4.5956 3.9978-17.704 7.6236-21.29 8.1017-0.74166 0.11294-4.6882 0.22588-5.5914 0.22588-2.9629-0.0267-6.0164 0.18824-6.4279 4.5685-0.02672 0.41036-0.03769 0.79812-0.013 1.1558 0.43671-0.22588 0.90353-0.45177 1.3402-0.7153 0.013-0.11294 0-0.18824 0.013-0.30118 0.26353-2.9478 2.3228-3.1473 5.6976-3.121 0.91484 0.013 1.8598 0.013 2.6956-0.0752 3.3092-0.43671 19.338-4.3826 22.95-7.9952 0 0-1.9388 2.737-0.57223 2.0593 1.3666-0.68894 2.4057-3.2791 2.4057-3.2791 0.43671-1.329 1.5134-4.2368 2.88-7.9289 5.7507-15.459 17.916-46.471 16.628-56.033"/>
   <path d="m116.77 219.99c0-2.0066-0.22589-3.9315-0.42541-5.3659-0.0753-0.68896-1.792-2.3116-1.6339-0.99766 0.33883 2.6316 1.1821 8.1812-0.0377 11.236-2.033 5.1001-16.654 45.714-13.228 58.052 0 0 0.57224 2.8574 1.024 3.5464 0.46307 0.67767 0.22589-1.9388 0.22589-1.9388 0.99765 1.1407 3.2527 3.6932 2.6692 5.4318-0.22589 0.6513-0.91484 1.1031-2.097 1.3666 0 0-1.8184-2.2325-2.2852-3.8382-0.45177-1.5925-0.9826-0.90354-0.66259 0.63624 0.33882 1.5398 5.0335 9.4962 7.1982 12.272 0.94119 1.2085 1.8447 2.3643 2.2588 3.121 0.87719 1.5925 0.66259 3.3054-0.51578 4.7413 0.11294 0.57224 0.0753 1.1934 0.013 1.8598 1.6339-1.393 2.7219-3.3732 2.7219-5.047 0-0.88848-0.22588-1.7807-0.70401-2.6579-0.46307-0.85083-1.6866-1.5285-2.7106-2.8424-1.792-2.2965-3.9711-5.0997-4.4093-7.1319 1.3026-0.41037 2.1534-1.088 2.4697-2.0706 0.11294-0.30118 0.15059-0.60988 0.15059-0.94119 0-2.2852-2.2852-4.9141-3.4523-6.2687 0 0-0.11294-0.11294-0.18823-0.22588-0.30118-1.2085-0.47813-2.6956-0.47813-4.4093 0-15.499 11.714-49.273 13.268-53.165 0.65131-1.6188 0.85085-3.52 0.85085-5.3659"/>
   <path d="m99.748 310.72c-1.6076-0.43671-2.737-1.3402-3.3732-2.6542-0.92988-1.9652-1.2612-4.1036-1.4193-6.3481-0.22587-2.8687-0.9826-5.4984-2.7633-8.5-1.1972-1.9915-1.6602-2.3379-1.9012-2.1911-0.0752 0.0753 0.0267 0.79813 1.024 2.3906-3.9312-0.39905-15.565 9.1107-18.288 12.737-1.4344 1.9125-4.343 3.2415-7.0657 3.2415-0.85083 0-1.6075-0.15059-2.2061-0.39908-0.46306 0.26353-0.87718 0.5459-1.2875 0.80943 0.87718 0.60988 2.0706 0.9299 3.4937 0.9299 3.121 0 6.1757-0.82449 7.8491-3.0419 2.801-3.7309 13.361-13.241 17.996-13.255 1.5812 2.1647 1.8071 4.7014 1.9916 7.3977 0.15059 2.2588 0.30118 5.3787 1.3666 7.5702 0.78307 1.6602 2.4847 2.5374 4.4492 3.0833 1.7544 0.48941 3.6782 0.30118 5.3922-0.22589-0.37648-0.42542-0.73036-0.91482-1.088-1.3817-1.3817 0.18824-2.8687 0.18824-4.1702-0.18824"/>
   <path d="m62.953 302.92c1.5925 0.013 3.0946 1.8711 3.3469 4.436-1.3026 0.58352-9.7752 4.8874-9.9743 4.6751-0.95624-0.51954 4.4228-9.1242 6.6274-9.1111m-1.1294-0.70401c-1.6602 0.7153-4.5422 4.715-6.0164 8.0351-1.024 2.2965-0.85083 3.7196 2.3643 2.1233 2.8273-1.2348 6.6805-3.1059 8.2211-3.8912 0.9299-0.47813 1.0504-0.75672 0.82448-1.8447-0.77177-3.8912-3.2791-5.3523-5.3923-4.4228"/>
   <path d="m58.151 290.01c0.51954-0.0752 1.3553 1.9652 1.8071 4.3031-1.4344 0.46306-9.9344 4.0245-10.094 3.8118-0.47813-0.39907 4.064-7.5171 8.2873-8.1149m2.7897 3.9447c-0.37647-1.8184-1.3553-5.3922-3.4523-4.9939-1.7393 0.33883-5.0734 2.6014-7.8092 7.0393-1.649 2.6843-1.393 3.7572 2.1384 2.3643 2.7633-1.088 6.9727-2.4847 8.3807-3.0269 0.65131-0.22589 0.90354-0.58354 0.74166-1.3817"/>
   <path d="m106.67 303.92c2.1911 0.42541 2.6316 10.558 1.8974 10.837-0.49318 0.11294-6.269-5.7774-6.269-6.242 0-2.8424 2.3379-5.0071 4.3697-4.5952m-5.3392 2.9741c-0.47812 1.7544-0.33883 1.9012 0.41035 2.6956 1.6339 1.7129 5.2725 5.2593 6.0959 5.9765 1.024 0.91483 1.393 0.99765 1.713-0.45177 1.024-4.6751-0.0752-9.0712-1.3666-11.117-0.39907-0.62495-0.83577-0.9826-1.3139-1.088-2.3492-0.46307-4.8742 1.5134-5.5383 3.9842"/>
   <path d="m164.68 312.58c-1.024 0.18824-2.1233 0.2259-3.1737 0.0752-1.1407-0.18824-2.7897-0.62495-3.4259-2.1384-2.0593-4.8742-7.4241-12.404-12.338-16.057-1.3026-0.97131-1.9388-1.2612-1.713-0.68895 0.22589 0.57224 0.99766 1.5925 0.99766 1.5925-4.954 2.097-8.7124 5.6577-12.551 11.275-0.87718 1.2762-1.8598 1.9802-2.9365 2.097-0.47812 0.0377-1.0089-0.013-1.5548-0.18824-0.60988 0.26355-1.2612 0.42543-1.8447 0.63624 1.2612 0.71907 2.432 1.009 3.5577 0.87719 1.4758-0.15059 2.7746-1.0617 3.8781-2.6692 3.6518-5.3256 7.6899-8.8848 12.325-10.89 2.2174 0.22587 7.278 7.6364 10.984 14.636 0.82449 1.5398 2.3379 2.5224 4.4093 2.8424 1.3139 0.22588 2.7746 0.11294 4.1438-0.18824-0.26353-0.41035-0.49317-0.83577-0.7567-1.1934"/>
   <path d="m140.82 286.01c0.22589-0.0267 0.33883-0.33883 0.30118-1.0767-0.96754-13.547-8.5531-35.302-13.48-51.398-1.2876-4.2368-2.2325-7.2916-2.4847-8.4071-0.45177-2.0066-0.22589-3.4673 0.15059-5.6577 0.55717-3.3883 0.99765-5.8704 1.024-8.2211l-1.8071 1.9276c-0.0377 3.584-0.22588 4.1702-0.53083 6.0695-0.22588 1.3666-0.42541 2.5111-0.42541 3.7045 0 0.77177 0.0752 1.5812 0.30118 2.4847 0.26353 1.1558 1.2085 4.2233 2.5111 8.4865 3.9846 13.029 10.851 35.939 11.967 44.758-0.33881 0.26353-1.9275 1.9916-2.9741 2.8687-1.0504 0.87718-3.9443 3.0532-3.9443 5.9366 0 0.9713 0.57224 2.2852 1.3139 3.4523-1.329 1.713-3.7715 3.5991-6.1757 5.2861-1.728 1.2235-4.0772 2.4433-4.7812 3.3582-1.5548 2.0179-1.1407 4.4624 0.50448 6.3353 0.33883-0.37648 0.67766-0.78306 0.94119-1.2499-0.78307-1.4607-0.65131-2.9892 0.46306-4.4356 0.58353-0.75672 2.0706-1.8071 3.6405-2.9101 1.7657-1.2499 4.7948-3.4786 6.9463-5.5383 1.2876-1.2348 3.0683-4.622 2.9478-4.9408-0.0377-0.15059-0.26353-0.0752-0.75671 0.41035-1.5548 1.5925-2.6843 2.9892-2.6843 2.9892-2.4283-3.52 1.4231-7.0122 5.0071-9.7217 0 0 1.5925 5.5383 2.0442 5.4852"/>
   <path d="m176.9 299.06c-0.55718 0.38401-1.0767 0.6099-1.3666 0.7153-1.4193 0.53083-2.6165 0.41037-3.0005 0.0267-7.1451-7.1718-15.738-8.2346-16.097-8.2745 0 0-0.99766-2.097-1.4457-3.0156-0.45177-0.91484-1.6339-1.5134-0.67765 1.1407 1.8184 5.1396 4.5689 8.4733 13.401 13.228 1.0767 0.58354 1.8861 1.9803 2.1233 3.6518 0.18824 1.2235 0 2.3756-0.46306 3.2791 0.15059 0.58354 0.30118 1.1294 0.47813 1.6753 1.3026-1.4344 1.7807-3.8382 1.5812-5.2857-0.30118-2.112-1.6188-3.7045-3.0946-4.5026-5.9502-3.2-9.1242-6.7069-10.506-8.5396 2.7483 0.63624 8.6992 2.5111 13.759 7.5833 0.85083 0.86212 2.5901 0.97129 4.4224 0.26353 0.79813-0.30118 1.6339-0.77177 2.3643-1.4231 0.18823-0.18824-1.2876-0.67765-1.4758-0.54589"/>
   <path d="m172.79 288.66-1.8861-0.46307c-3.2942-0.9826-11.368-4.5023-18.076-8.5795-7.4504-15.42-18.726-48.968-18.726-64.068 0-1.8071-0.26353-3.0946 0.11294-4.2899l-1.1558-1.3666c-3.4937 11.701 11.435 59.553 19.191 71.997 1.1972 1.9125 2.8273 2.9478 2.3379 1.9916-0.50447-0.95624-1.5925-2.8687-1.5925-2.8687 7.1451 4.3826 14.277 7.4903 17.531 8.4601l1.9802 0.48941c2.816 0.65131 5.1532 1.3139 6.1889 2.8273 0.75672 0.11293 1.3666 0.45177 1.8711 0.91482-0.42541-4.2767-4.6882-4.343-7.7693-5.047"/>
   <path d="m167.22 306.75c2.1534 1.792 2.9102 9.4299 2.417 9.5361-0.26353 0.0752-7.278-5.7906-7.278-6.1761 0-0.57225 1.1144-2.9892 3.6518-3.7196 0.37647-0.11294 0.80941 0.0267 1.2085 0.37647m-1.5021-1.5661c-1.5398 0.46307-3.2 1.7544-4.3426 3.8784-0.67765 1.2612 0.33883 1.9276 0.33883 1.9276 0.0377 0 4.6615 3.505 6.5876 5.2989 1.6188 1.5021 2.2325 1.2198 2.2061-1.088-0.0377-4.8742-1.0767-7.0254-1.713-8.3005-0.6626-1.3402-1.9125-2.0593-3.0833-1.713"/>
   <path d="m176.45 293.71c0.39907-0.37648 0.86214-0.50448 1.4193-0.45177 1.6753 0.15059 6.056 6.7867 5.5248 7.3578-0.26353 0.22588-8.1812-2.4433-8.3272-2.801-0.2259-0.58353 0.30118-3.121 1.3816-4.1039m-0.68894-0.75672c-1.713 1.5548-2.2438 5.8572-1.1031 5.9765 0.86214 0.0752 5.2063 1.3817 7.6368 2.3906 2.9628 1.2348 3.5878 0.99767 1.9802-2.1647-2.2438-4.4224-4.5154-6.7468-6.295-6.9192-0.86212-0.0752-1.6075 0.15059-2.2174 0.7153"/>
   <path d="m120.7 312.34c-0.62495-0.30119 1.1407-8.5 4.4891-8.6461 0.73035-0.0267 1.3402 0.22588 1.8447 0.62495 1.1144 0.87718 1.713 2.4697 1.9539 3.2678-1.3817 0.26353-7.9553 4.9936-8.2873 4.7545m9.1642-5.5647c-0.57225-1.5925-1.9388-4.2233-4.104-4.5689-1.6602-0.26354-2.6278 0.78306-3.5464 1.8334-0.62495 0.71907-2.0066 3.136-2.3228 6.6674-0.30118 3.2414 0.2259 3.2414 3.2151 1.1294 2.801-1.9803 6.5345-3.3318 6.5744-3.3318 0 0 0.7567-0.11294 0.18824-1.728"/>
   <path d="m88.115 189.39c3.4937 12.511 8.8984 15.778 15.419 19.245 3.2678 1.7393 3.5728 3.3582 3.2942 4.9804-0.5986 3.4523 0.66258 2.9742 2.5638 1.3026 0.384-0.33882 0.68894-0.58353 0.87718-0.73035 0.18824 0.22588 0.37647 0.63625 0.54589 1.088 0.75671 1.9125 1.4871 1.8184 2.7106-0.37647 0.26353-0.47812 0.53082-0.90354 0.74541-1.408 0.013-0.0377 0.18824 0.42541 0.39907 1.1144 0.30118 0.9299 2.3116 3.8912 2.417-0.013 0.11294-3.918 1.4871-10.213 2.7106-12.936 1.649 0.54589 2.8838 9.297 3.2791 11.701 0.43671 2.6316 1.0504 2.9478 2.5224 0.30118 0.33881-0.60989 0.60988-1.024 0.99765-1.5661 0.15059 0.22589 0.55718 0.82448 0.80942 1.3139 0.94119 1.8447 1.393 1.7807 2.0706 0.18823 0.54589-0.78306 1.1144-1.4871 1.2612-1.5285 0.013 0.013 0.384 2.7219 0.67765 2.6165 0.30118-0.0753 0.9826-4.1702 1.2612-4.8742 0.22587 0.53083 0.4367 1.1294 0.68894 1.8184 1.024 2.88 1.6452 2.8574 2.2061-0.68894 0.45177-2.8273 1.4758-6.4016 2.496-7.9289 0.51576-0.77177 1.5285-1.8184 2.6014-2.9365 2.6316-2.7219 5.0335-5.3124 6.2818-8.2342 0 0-1.9652-0.53083-2.0179-0.45177-1.2499 1.8071-2.8951 5.3392-5.2326 7.7561-1.1671 1.2085-2.1647 2.2438-2.7483 3.121-1.2235 1.8447-2.1233 5.9103-2.6014 8.5663-0.57224-1.5021-0.70401-2.5374-1.1558-4.1171-0.44047-1.5812-0.6626-1.3402-1.009 0-0.33884 1.3402-1.009 2.7633-1.408 4.011-0.0752 0-0.62495-0.97129-0.95624-0.18823-0.33883 0.79813-0.82448 1.3139-1.3139 2.1497-0.45177-0.78308-0.18822-0.18824-1.1708-2.6014-0.9826-2.4057-1.009-1.5661-1.3553-0.6626-0.33883 0.88848-0.704 1.9539-1.5285 3.4673-0.30116-1.2499-1.2875-7.6368-1.2875-7.6368-0.5459-3.9575-1.1671-4.5422-4.25-5.8037-3.0796-1.2499-6.4415-1.792-6.2954-1.2348 0.15059 0.55718 5.9234 1.7807 5.7111 2.4433-0.78306 1.6339-2.0857 5.9234-2.6052 12.484-0.30119-0.18824-0.55719-3.0419-1.2348-3.1624-0.67765-0.11294-1.5812 4.3031-2.2589 4.954-0.46305-0.58354-0.94117-2.88-1.1294-3.5728-0.18822-0.67765-0.78306-0.0752-1.0767 0.4932-0.30116 0.58352-1.167 1.6602-1.8711 2.2174 0.11294-0.53083 0.2259-1.0504 0.2259-1.5548 0-1.6602-0.90354-3.2942-4.1966-5.0869-2.6165-1.4344-10.2-5.6708-13.799-16.389z"/>
   <path d="m133.26 121.77c-0.33883-0.87719-1.9388-4.4492-2.8687-6.0564-0.91484-1.6075-0.92989-1.4457-1.2085 0.26353-0.26353 1.713-0.99767 4.6619-1.3817 5.4852-0.53083-0.70401-0.75671-1.088-1.2875-2.5111-0.67766-1.8184-0.7153-1.5812-1.7393-0.0752-0.45176 0.6513-1.2875 1.1934-1.6339 1.329-0.47813 0.18824-2.6541-0.11294-4.0904-0.30118-1.329-0.18823-2.5751-0.37647-3.4146-0.37647v1.3402c0.73036 0 5.0869 0.42542 6.3086 0.59859-2.5902 2.1534-1.2876 3.0156 1.2875 0.30119 0.90354-0.9299 1.8334-1.5134 2.3492-2.3228 0.38401 1.1144 0.91483 2.5638 1.3139 3.2414 0.37647 0.5986 0.43671 1.6753 1.4457 0.22589 1.024-1.4758 1.3553-2.4057 1.8598-4.9804 1.3553 2.3228 1.792 3.505 2.7633 5.5116 0.97129 2.0066 0.45175-0.42541 0.45175-0.42541 0.0267 0.013 1.088 0.41035 2.5751 1.0767 0.30117-0.30118 0.6513-0.63624 0.82447-0.95626-1.5021-0.66258-3.0419-1.1558-3.5577-1.3553"/>
   <path d="m85.568 133.75c0.26355-0.33884 1.3026 2.0066 0.97131-0.26353-0.33882-2.2589-0.88848-3.0156-1.2085-3.8649 1.5925 0.46306 6.1094 2.7897 5.9099 1.7544-0.18824-1.0504-1.1558-2.4584-1.6452-3.4937 0.9412 0.33883 2.3492 0.75672 4.6084 1.3139 2.2588 0.57223 0-1.2348 0-1.2348 1.1821-1.5662 6.9727-4.5685 9.6954-5.4054l-0.0753-1.728c-2.6428 0.82449-9.3234 4.436-11.183 6.4547-2.3228-0.43671-4.2896-1.9916-5.2458-2.5902-0.90353-0.55718-1.1671-0.57224-0.26353 1.3553 0.90354 1.9125 1.3026 2.6428 1.8071 3.7196-1.6188-0.48942-2.4697-0.79812-4.7282-2.033-2.2588-1.2348-1.3553 0-1.024 1.1294 0.37647 1.1558 1.4758 2.816 1.4758 3.584 0 0.22588-0.26352 0.67765-0.26352 0.67765-0.48943 0.58355-1.024 1.2612-1.5812 2.0066 0.43671 0.33883 0.83578 0.67766 1.2348 0.90354 0.9299-1.4344 1.5661-2.2965 1.5661-2.2965"/>
   <path d="m162.94 157.07c-0.15059-0.22589-3.5464 1.4871-4.436 0.98259-0.33883-0.18823-0.18824-2.88-0.18824-3.2678 0-6.5612-1.7017-10.399-2.1233-11.276 0.18824-0.54589 0.45177-1.4494 0.59859-3.6405 0.11294-1.8184-0.15059-1.7807-1.0089-1.2235-1.0617 0.66258-1.7657 1.1558-1.9238 1.088-0.11294-0.0752 0.37648-1.0617 0.74166-2.1384 0.57223-1.5398 0.26353-2.0442-1.0767-1.3026-0.85083 0.47813-1.7544 0.78308-1.7657 0.74543-0.0752-0.15059 2.0593-4.8874 1.8071-5.2462-0.15059-0.22589-3.0946 0.60988-4.0242 0.37647-1.088-0.30118-2.6842-1.728-3.7196-2.9628-0.15059-0.18824-0.41035 0.15059-0.62495 0.55717 0.0753 0.11294 0.18825 0.22589 0.30119 0.33883 1.8071 2.1647 3.3732 3.0419 4.9536 3.0532 0.75672 0 2.2438-0.6626 2.3379-0.5459 0.15059 0.18825-1.9803 4.8343-1.8861 5.047 0.22588 0.59859 3.1473-0.94496 3.2678-0.90354 0.11294 0.0752-1.713 3.5991-1.1294 3.9447 0.54589 0.33883 2.8424-1.3666 3.0419-1.2348 0.18824 0.0752-0.67765 2.9365-1.6866 4.9536-1.024 2.033 1.0089 0.33882 1.0089 0.33882 0.0267 0.0377 1.5812 2.9365 1.5812 10.054 0 0.37648-0.33881 4.4891 0.45178 4.9405 1.1031 0.62495 4.2365-1.6188 4.5154-1.408 0.22588 0.15059-1.2763 4.3031-3.5991 5.4453-2.3379 1.1294-0.0752 1.0616-0.0752 1.0616 1.8861 1.6188 2.0179 2.2438 2.0179 2.3492-0.18824 0.22588-0.95624 0.37647-2.3793 0.38399-1.4344 0.013-1.5925-0.18822-0.96754 1.7393 0.39906 0.96753 1.3666 2.5374 1.2612 2.8424-0.0753 0.26353-3.0419 0.30118-3.4937 0.75671-0.45178 0.45177 0.78306 4.5422 0.53082 4.6751-0.26353 0.11294-1.3666-0.85083-2.8951-1.5134-2.816-1.2348-0.70401 0.85083-0.77177 1.3026-0.11294 0.77178-1.2198 3.2151-2.0443 4.8742-0.22589 0.42541-0.26354 0.47813-0.0267 0.88848 0.46307 0.78306 1.4457 2.5224 1.1144 2.7633-0.30118 0.22588-1.8184 0.6513-2.6316 0.85083-0.30118 0.0753-0.50448 0.26353-0.50448 0.53083 0 0.80942 0.013 2.7219 0.013 3.8912-3.0156-2.0066-3.6254-1.2763-3.8649-1.1934-0.58352 0.18824-3.2 2.2702-5.0997 3.825-0.37647-0.96754-0.51953-4.104-1.3026-3.4786-0.77177 0.62495-2.3228 2.033-3.2942 2.8951-0.11294-0.71531-0.22588-1.6339-0.22588-2.4584 0-0.26353-0.013-1.7657-0.41037-1.9388-0.58352-0.26353-1.024 0.18824-1.713 0.91484-0.26354 0.26352-0.57224 0.60988-0.91483 0.91483 0.013-0.26353 0.0377-0.53083 0.0377-0.83578 0-3.121-1.088-7.7825-1.6339-11.501-0.6626-4.5557-1.5925-4.343-2.4584 0.0377-1.024 5.1133-2.3492 12.245-2.5224 14.131-0.26353-0.0377-0.83577-1.2876-1.1558-1.2085-0.62495 0.15059-0.88848 1.8071-1.393 2.4584-0.79813-1.5285-1.5398-3.0419-2.5487-3.0268-1.2762 0.0267-2.3906 2.033-3.0156 3.1737-0.45177-1.4758-0.47813-1.2499-0.9299-3.6254-0.45177-2.3643-0.33882-1.9125-1.1294-0.90355-0.78306 1.024-0.85083 2.0706-2.737 3.2264-0.67765-4.064-1.3666-5.9099-2.2174-6.0428-0.95625-0.15059-1.5134 1.792-2.0179 2.8424-1.5548-4.011-4.1439-8.0219-6.5876-11.741-2.7746-4.1834-4.5154-5.1927-2.7897 0.66259 1.8447 6.2555 4.2632 15.553 4.25 15.579-0.57225-0.0377-1.9539-0.50447-3.7855-3.0946-4.064-5.7107-2.033-0.86212-2.033-0.86212s0.9299 3.0833 0.99766 4.6483c-1.5134-1.9388-3.1473-3.6518-4.9408-6.5209-1.8071-2.8687-1.3026-0.90354-1.2236 0.48941 0.0752 1.3817-0.0752 2.0443-0.0752 2.0443-0.30118 0.15059-1.9652-2.0857-3.7719-4.3829-1.8071-2.2965-0.11294 1.8071-0.11294 1.8071s-0.0752 1.6188-0.22588 2.112c-1.088-2.2061-4.7944-9.6686-4.9936-10.173-0.18823-0.50447-1.9388 1.1821-3.0796 1.8711 0.49317-1.8184 1.1934-3.7309 1.7544-5.5383 0.57224-1.8071-1.329-0.11294-1.329-0.11294-0.0263 0-1.1558 0.39907-2.3492 0.55719 1.4344-1.8071 2.496-7.5039 2.3793-7.796-0.11294-0.30118-5.9103-0.63625-7.5969-0.96754 1.8071-1.5812 6.6538-5.326 6.8797-6.3353 0.2259-1.009-2.0593 0.88848-2.0857 0.85083-1.0617-1.2085-2.1798-1.8334-4.011-2.2061 0.78307-0.55719 1.8598-1.5134 2.5487-2.1534 1.1294-1.024 1.393-1.9125 1.5925-3.8513 0.15059-1.7393 0.59859-3.5728 1.1972-5.3791-0.33883-0.83577-0.85084-1.6715-1.1031-2.5111-1.1144 2.9742-1.8862 6.2024-1.9803 9.5625-0.44046 1.1407-1.3289 2.0706-2.4697 2.9101-2.417 1.7544-2.4697 1.9803-0.013 2.88 1.3553 0.48942 2.7633 1.2762 2.9365 1.5812-0.0752 0.63624-1.9125 2.1384-4.529 4.1439-1.329 1.009-2.4584 1.5021 0.37647 1.9388 2.816 0.45177 5.4984 0.33883 6.0827 0.45177 0.90354 0.45177-0.95625 5.9897-2.1647 7.1188-0.43671 0.39906-0.60989 0.63623-0.62495 0.78307 0 0.26353 1.6188 0.63624 4.2233 0.0263-0.41037 1.5662-2.2588 6.3353-1.8447 6.9328 0.41035 0.58353 3.7986-2.3228 4.6751-2.8687 0.57223 1.1671 4.4228 12.02 5.5515 12.577 1.1144 0.57224 1.024-3.1737 1.2762-3.918 0.9412 0.80942 3.0796 3.0796 4.1303 2.5751 0.50447-0.26353 0.0267-2.0179 0.15059-2.5751 1.1407 1.5285 2.3793 3.0532 3.7572 4.4759 1.5812 1.6339 2.112 1.5285 1.9125-0.78306-0.013-0.30118 0-1.2763-0.38401-2.6052 1.408 1.3666 4.0241 4.5158 5.0602 3.9579 0.53083-0.26353 0.65131-1.2876 0.65131-1.9388 0-0.53083-3.3469-12.205-4.8076-16.734 2.7746 4.25 7.1052 12.776 7.7693 14.317 0.67765 1.5398 0.67765 1.7657 1.1294 0.75671 0.45177-1.024 0.43671-1.1144 0.74542-1.7393 0.18824-0.38401 0.54589-1.1144 0.78307-1.3817 0.22588 0.30117 0.79813 2.6843 1.2085 4.8742 0.41035 2.1911 0.41035 2.6428 1.2085 1.7393 0.78308-0.90354 2.0857-2.6956 2.801-3.3732 0.39906 1.3139 0.79813 3.4786 1.2499 4.7281 0.45177 1.2348 0.7153 0.74543 1.1934-0.80942 0.48942-1.5661 1.5661-3.2 2.417-3.2 0.26353-0.013 1.5134 1.2499 1.9388 2.5751 0.42542 1.3139 0.18824 2.417 0.9826 1.088 0.78307-1.329 1.2085-2.5111 1.728-2.6428 0.41037-0.11294 1.0767 1.9652 1.088 1.9652 0 0 0.79813 3.4937 1.1294-0.45177 0.33883-3.9443 0.30118-10.399 2.0706-17.451 0.57225 2.816 1.329 9.3765 1.3817 12.883 0.0377 2.1798 0.26353 2.7106 2.0857 1.1294 0.39905-0.33882 0.7567-0.73037 1.0767-1.0617 0.0267 1.713 0.46306 3.6932 0.49317 3.7982 0 0 0.2259 2.0593 1.3553 0.5986 1.1294-1.4758 1.5548-1.8334 2.4584-2.6316 0.37647 0.9826 0.22588 3.0796 0.46307 4.2101 0.22588 1.1144 0.59859 0.15059 1.792-1.0504 2.3643-2.3793 4.4755-4.1439 5.0598-4.4755 0.51953 0.0752 2.6052 1.4494 3.8649 2.6956 1.3402 1.3553 1.2085-0.45177 1.2085-0.45177s-0.2259-4.8479-0.2259-5.6712c0.70401-0.22588 3.7459-0.58353 3.7572-1.1671 0-0.59859-1.6753-3.136-1.9388-3.6405 0.50447-1.024 1.9388-3.9978 2.2174-5.2993 0.26353 0.0752 0.77177 0.30118 1.5925 0.73036 0.90354 0.49319 1.5285 0.78307 1.8447 0.58355 0.37649-0.2259-0.33881-5.0866-0.33881-5.3655 0.59859-0.26352 4.1702-0.22587 4.2764-0.79812 0.11294-0.55719-1.7016-2.9892-2.3116-4.2764 0.96756 0.11294 3.3996-0.54589 3.6518-1.0504 0.0753-0.15059-0.92988-2.3643-1.8598-3.2415 2.8951-2.4584 3.3318-7.1323 3.2151-7.2916"/>
   <path d="m78.056 0.8821c-3.8517 2.2588-8.6461 5.2993-14.317 9.3501-13.64 9.7217-22.365 24.238-24.331 35.089 0.43671 0 0.87718 0.11294 1.3139 0.26354 1.7807-9.6954 12.312-26.005 25.234-35.235 5.2725-3.7572 9.2835-6.3218 12.564-8.2478-0.15059-0.39906-0.30118-0.80942-0.46307-1.2235"/>
   <path d="m90.645-4.5339c-0.92988 0.9299-1.9539 1.9388-3.0532 3.0005 0.30118 0.33882 0.57224 0.68894 0.86212 1.024 0.5986-0.57225 0.90355-1.1144 1.6339-1.9012 5.0869-5.4186 2.432-3.9311-1.2763-2.417-1.1294 0.45177-2.112 0.9826-2.801 1.3402 0.26353 0.37647 0.55717 0.71906 0.85083 1.0617 1.3402-0.70401 2.5751-1.3666 3.7851-2.112"/>
   <path d="m80.022 5.7269c-9.2571 8.8852-19.484 19.045-22.087 25.115l2.6278-1.5134c2.4697-5.751 11.223-13.985 20.028-22.313-0.18823-0.42541-0.38401-0.85083-0.57224-1.2875"/>
   <path d="m98.809-0.24018c-2.4847 2.7746-5.1795 5.7375-5.9234 6.5345 0.47812 0.70401 0.18823 0.53083 0.51954 1.0767 1.3817-1.4607 5.8967-6.4682 6.6139-7.2517-1.2762 2.4584-3.4146 6.2555-5.3922 9.2835 0.22589 0.47811 0.42541 0.86212 0.62495 1.3553 1.8861-2.8574 3.9315-6.3481 5.5251-9.2436 2.8424-5.1795 2.1233-6.3485-1.9652-1.7544"/>
   <path d="m72.291 35.435c-9.0313 6.5876-17.664 8.0351-23.959 9.0843-2.8838 0.47811-5.2194 0.90353-7.0924 1.649 0.78306-4.8479 9.8282-11.568 28.926-21.555 5.9234-3.1059 10.877-6.4415 14.742-9.4695-0.22587-0.37647-0.45177-0.62495-0.7153-1.1407-3.8517 3.0269-8.7124 6.3086-14.649 9.4164-20.347 10.652-28.515 17.544-29.046 23.043 4.2365-0.15059 5.9765-2.1534 10.213-1.3666 9.297-1.5285 14.875-3.1059 22.352-8.5663 3.7982-2.5901 9.7217-9.0312 15.088-15.964-0.2259-0.39907-0.47813-0.87718-0.71907-1.2763-5.3659 6.9723-11.329 13.547-15.141 16.15"/>
   <path d="m45.512 101.03c1.0617 1.7657 5.9234 16.163 9.3497 21.077 7.1986 10.306 14.37 17.186 17.717 20.307l2.7106 2.2061c1.088-0.26353 5.6844 1.1294 7.4504 1.6452 1.7657 0.51953 2.112 0.96754 1.3139-0.37648-0.78306-1.3553-1.4193-2.3116-2.0706-3.5577 1.2085 0.26353 4.0772 1.4871 4.1435 0.94495 0.0752-0.54588-1.7807-3.1887-2.5487-4.5553 0.9299 0.15059 2.4584 0.4367 4.4759 0.33883 2.033-0.11294 1.2085 0.15057-1.8748-1.6188-16.389-9.4164-26.721-31.583-26.721-35.116l-1.9539-0.86214c0 3.7045 9.5094 26.642 27.054 36.005-1.0616 0.013-2.0857 0.18823-3.5464-0.33883-1.4607-0.57225-0.55717 0.6626 0.22589 1.4607 0.79813 0.78308 1.4871 1.3817 2.2438 2.737-1.1972-0.26353-3.6669-1.2348-4.0242-0.91482-0.37647 0.30118 1.4871 2.8574 2.1497 4.1307-1.8711-0.57223-4.7413-1.3402-6.2156-1.2348-0.38401-0.37646-1.8974-1.8334-1.8974-1.8334-3.3054-3.1059-9.4695-8.8588-16.575-19.059-3.3318-4.7681-5.0866-9.9743-6.6271-14.583-0.83576-2.496-0.90353-4.104-2.2965-6.4415z"/>
   <path d="m74.56 144.3c1.1671 1.7657 2.4847 5.2063 3.2 7.5039 0.82447 2.6014 1.9802 2.1233 1.2348-0.22588-0.51954-3.1473-3.1624-7.7298-3.2791-7.9289 0 0-2.8687-1.9388-1.1558 0.6626"/>
   <path d="m90.401 135.05c-1.3553 0.18823-6.0033 0.15058-7.9158-0.54589-1.9276-0.67766-2.3228 0.0752-0.42542 1.393 1.8861 1.3139 6.0695 0.62495 9.4431-0.22588 3.3732-0.83578 0.26353-0.79813-1.1031-0.62495"/>
   <path d="m95.631 76.873c4.343 16.136 7.8224 48.45 7.8224 48.45s1.2612 0.67765 1.8071 0.54588c1.009-0.22588 1.8598-1.3289 2.4057-2.2174 0.75671 1.4758 2.3906 4.6483 2.3906 4.6483l0.71907-1.9125s-1.5812-2.6956-2.3643-5.0598c-0.79812-2.3793-1.2235-0.37647-1.3402 0.6099-0.15059 0.95624-1.408 2.4584-2.1233 2.6428h-0.11294v-0.30118c0-9.855-6.8266-45.608-8.0618-48.277z"/>
   <path d="m99.469 129.88c-1.1031 1.3553-2.0857 2.097 0.30118 0.78306 2.3906-1.329 4.3562-4.5953 4.6352-6.9192 0.26353-2.3116-0.91483-0.46307-0.91483-0.46307-0.013 0.0377-2.9214 5.2462-4.0241 6.6007"/>
   <path d="m115.17 123.01c0.22589 1.3553 5.3922 6.4016 6.574 7.1587 1.1972 0.75672 1.6339 0.5986 0.33884-0.33882-1.2875-0.95624-5.2993-6.6538-6.1094-8.3141-0.80942-1.6602-1.0353 0.15059-0.80942 1.5021"/>
   <path d="m132.24 128.61s-0.51954 4.9409 0.18824 5.2198c0.58354 0.22588 1.6339-0.58355 3.6518-2.5374-0.0377 0.30117-0.30118 2.097-0.30118 2.5901 0 0.57225 0.15059 0.96753 0.5459 1.1821 0.57223 0.26353 1.2612-0.0377 2.6165-1.2762 0.0752 1.4344 0.0377 2.9214 0.94119 3.2 0.92989 0.26355 2.2701-0.83576 3.8118-3.1059l0.0377-0.0753 0.0263-0.0752c0.66258-1.8447 14.503-28.276 16.283-33.508l-2.4847 1.024c-1.7544 5.1532-14.171 30.042-14.888 32.008-1.5285 2.2438-2.112 2.3116-2.1647 2.3116-0.15059-0.0753-0.22589-2.0593 0.15059-3.825 0.37647-1.7657 0.22588-1.5548-1.009-0.41036-1.2348 1.1294-2.3906 2.3492-2.6842 2.5111 0-0.39906 0.66259-2.737 1.1144-4.529 0.45177-1.8071 0.45177-2.2588-0.67765-0.79813-1.1294 1.4607-3.6932 3.3469-4.0509 3.5464-0.013-0.15059-0.0263-0.79813-0.0263-0.91483 0-0.15059-0.0377-1.3817-0.0752-1.8447 4.2899-3.7851 15.539-29.577 15.897-31.888l-1.728-0.58355c-0.67765 3.3883-11.488 29.165-15.127 31.769"/>
   <path d="m143.57 132.7c0.4367 2.1384 1.3666 4.3961 1.5134 5.4717 0.15059 1.0767 1.1031 2.737 0.80943 0.22588-0.30119-2.5224-1.0504-6.6139-1.1558-7.1718z"/>
   <path d="m127.7 130.46c-1.3139 0.50447 0.18825 0.6626 1.7807 0.0753 1.5812-0.55717 3.441-0.88848 4.5952-2.5751 1.1558-1.7017 0.66259-2.0443-1.1144-0.74541-1.792 1.3026-3.9447 2.7219-5.2593 3.2264"/>
   <path d="m36.268 41.006c-1.5398 1.7017-3.1624 4.1702-3.7851 6.388-0.91484-0.65129-4.1171-3.7572-4.5422-3.2414-0.42541 0.50447 0.87718 4.5821 1.0617 5.751-0.53083-0.02672-1.5661 0.02629-2.8424 0.37647-1.3402 0.33883-1.5134 0.62495-0.22588 1.2499 1.7544 0.83578 1.7657 1.1294-2.2325 2.6014-3.0532 1.1294-2.9742 1.5812-0.42541 2.3379 0.18823 0.03769 0.50447 0.15059 0.68894 0.18824-3.0532 3.3619-5.4322 10.147-5.6313 11.953l1.8598-0.41035c0.18824-1.7657 2.1798-8.8588 5.1927-11.103 3.0155-2.2325-0.18824-1.1144-0.18824-1.1144-0.74543-0.30118-1.2763-0.45177-1.8334-0.75671 1.6866-0.54589 4.622-1.8447 4.7281-2.5374 0.07524-0.68894-0.33883-1.1671-1.393-1.6339 1.4871-0.39907 2.3379-0.26353 3.441-0.03769 1.9802 0.38401 0.07524-0.83578 0.07524-0.83578s-0.26353-1.7017-0.49318-3.0683c1.1671 0.82448 2.4584 2.7106 2.4584 2.7106s0.46306 1.5021 1.1558-1.1294c0.67765-2.6316 2.3643-5.4984 3.4673-6.6937 0 0.03769-0.013 0.11294-0.013 0.11294 0 1.5925 0.79813 3.2942 1.5812 4.0377 1.0617 1.0353 2.3906 0.68894 4.9006 0.15059 5.2861-1.1821 13.055-1.1558 19.245 3.825 0 0-3.2414 1.2762-0.26353 0.78306 2.9629-0.48942 5.3523-1.3553 5.5782-1.088 0.07524 0.15059-0.68894 2.0706-1.3402 3.3205-0.83578 1.6075-0.37647 1.6866 0.68894 1.6339 0.91484-0.03769 2.1911-0.30118 3.6405-0.68894-0.26353 1.2875-1.1407 2.2438-1.7544 3.0269-1.408 1.8184 0.57225 0.73035 0.57225 0.73035 0.03769 0.03769 2.9478 4.8343 2.9478 11.594 0 0-1.6188 0.96755 0 0.67766 1.6076-0.30118 3.1887-0.39907 4.1702-0.59861-1.0504 1.5398-2.0706 2.88-3.6518 4.2632-1.5812 1.3817-1.5285 2.0706 0.0377 1.2762 1.408-0.30118 2.6428-0.43671 2.033 0.15059-0.5986 0.57225-2.737 2.9478-2.737 2.9478-0.9299 4.622-2.801 9.1909-3.5577 10.931-0.22589 0.48943-0.15059 0.92989 0.11294 1.2085 0.67765 0.65131 1.9539 1.8184 2.8311 2.2174-1.9652 0.37648-6.0695 0.67766-6.0695 0.67766-0.013 0.0752-1.2762-1.3817-0.9826 0 0.30118 1.3817 1.1144 2.9628 1.7657 4.2101-1.5812-0.0377-3.441-0.0752-5.5251-0.94117-2.0857-0.87719-2.5111-1.0353-1.329 0.33883 0.02629 1.1294 0.26354 3.3468 0.85084 5.3124-2.5224-0.9826-4.2764-1.9652-7.1451-3.8781-0.41035-0.26353-3.5577-3.2678-1.6339-0.18822-0.18824 1.329-0.22589 3.2678 0.15059 4.622-0.70401-0.26353-3.441-1.8711-3.441-1.8711-5.8305 1.0617-11.117-2.3379-11.183-2.3793 0 0-2.2852-2.9741-1.5134 0.47813 0.18823 0.88848 0.18823 1.3929 0.38399 2.6428-0.94495-1.3553-3.0796-5.4721-3.505-5.14-0.41036 0.33882-1.5021 2.8424-2.417 4.5557-0.11294-2.9741-0.15059-6.8533-2.6428-8.7127l-0.87718 1.4193c1.6452 1.2235 2.2852 3.825 2.3755 6.2024 0.11294 2.8687 0.55719 4.011 2.5224 0.33884 0.48941-0.70401 0.66259-1.0353 1.1144-1.7807 0.95626 1.4193 1.8071 2.8273 2.5638 3.8517 1.3553 1.8334 1.9388 2.0179 1.7393-0.57223-0.02672-0.22588-0.18824-1.1671-0.26353-2.033 2.8574 1.6075 6.7735 3.2791 11.502 2.6165 0.80942 0.38399 1.713 0.67765 2.6692 1.0617 1.5285 0.60988 1.9388 0.46305 1.8071-1.2085-0.15059-1.5398-0.07525-2.6165-0.15059-3.2791 2.4057 1.8974 8.2211 4.5154 8.8189 4.6084 0.58354 0.0752 0.43671 0.0267 0.11294-1.4758-0.30117-1.5021-0.75671-3.505-0.92989-4.8076 1.1031 0.7153 3.918 1.4607 5.7638 1.5134 2.097 0.0752 2.2174-0.22587 1.2348-2.1534-0.48942-0.95626-0.77177-1.6603-0.99766-2.2965 2.2701-0.013 3.8784-0.39907 5.4721-0.68895 2.9102-0.55719 3.3205-0.55719 0.18824-2.0179-1.1407-0.74166-1.9238-1.393-2.3643-1.9238 1.9652-3.441 3.3996-9.058 3.8382-11.223 0 0 1.1671-1.2762 2.2061-2.5111 1.3553-1.6075 1.5548-2.4584-2.1911-1.6452 1.4494-1.2762 2.5902-2.3492 3.5313-3.6669 1.4607-2.0593 1.2236-2.3379-0.83577-1.9802-0.6626 0.11294-1.4871 0.18824-2.6052 0.15059-0.18824-5.8305-2.432-10.24-3.1737-11.542 0.43672-0.6099 1.8598-2.7746 1.713-4.011-0.15059-1.2348 0.48942-2.0179-1.088-0.92988-1.5812 1.088-3.7572 1.7544-4.3562 1.728 0.83578-1.2762 1.5021-2.4697 1.9803-3.7851 0.62495-1.6866 0.30118-1.8598-1.6715-1.3817-0.94496 0.22589-1.6075 0.41036-2.9101 0.73036-6.5341-5.1396-15.831-5.7906-21.383-4.5553-2.0066 0.43672-3.3883 0.30118-4.0908-0.37647-0.53083-0.50447-1.024-1.6075-1.009-2.88 0.013-2.7897 0.26353-3.0946-1.6452-0.71906"/>
   <path d="m27.916 66.038c-0.26353 1.728 0.39907 0.85084 0.88848-0.51953 0.49319-1.3666 0.68896-1.8598 1.2876-3.0419 0.59859-1.1972-0.30118-1.8184-0.94119-0.57225-0.63623 1.2612-0.97129 2.4057-1.2348 4.1307"/>
   <path d="m33.682 68.966c-1.3026 0.53083-2.2325 1.2499 0.18823 0.46306 6.3353-2.097 10.399-5.419 11.874-7.0657 1.2763-1.4193 0.80942-1.6866-0.38399-0.53084-2.6843 2.6316-9.151 6.0959-11.661 7.1319"/>
   <path d="m41.883 57.55c1.1407 0.85083 1.9652 3.8916 2.3379 5.4984 0.15059 0.60989 0.87718-0.15059 0.78306-0.57224-0.30118-1.4344-1.0767-4.6747-2.5111-5.7507z"/>
   <path d="m19.675 82.326c-6.8665-0.54589-15.473-4.011-23.694-7.5702-8.0084-3.4786-16.283-7.0657-23.76-7.8627l-3.0796 0.77177c7.2648 0.77177 18.395 4.8874 26.31 8.3141 7.8359 3.3996 14.463 7.2118 22.286 7.9421 0.58353-0.67764 1.3026-1.2762 1.9388-1.5925"/>
   <path d="m11.9 123.5 2.0066-3.8649c0.37648-8.8054 1.2612-20.413 4.5422-29.192-0.66259 0.62495-1.3026 1.2763-1.9539 1.9125-3.0419 9.8147-4.25 22.804-4.5953 31.144"/>
   <path d="m8.5422 99.29c0.88848 1.0617 3.6781-1.8861 6.7201-4.9536 2.1384-2.1534 4.9672-4.8211 6.6007-5.5251l0.30118-2.0706c-1.8861 0.80942-5.1133 4.0776-7.4508 6.4283-1.5285 1.5398-3.7986 3.8118-4.5689 3.9842-0.013-0.0263-0.013-0.0377-0.013-0.0752 0-2.2061 9.4695-15.672 13.613-17.558l-1.0617-0.18823c-5.2989 1.9539-16.243 17.451-14.131 19.975"/>
   <path d="m20.066 97.451 2.3643-8.6992c1.5548-5.4984 4.0241-7.743 5.0869-8.3672 1.5812 0.18824 2.0857 0.18824 2.0857 0.18824s1.5398 3.7719 1.4758 3.9579c-4.7944 4.3163-4.861 9.1111-8.4733 18.169-3.3619 8.407-7.3578 18.421-10.811 24.477 2.2965-7.5837 5.7906-20.533 8.2742-29.737m7.3842-18.129c-0.18824 0.0752-4.1966 1.5812-6.3086 9.0576l-2.3643 8.7259c-2.1384 7.889-5.3256 19.842-7.5306 27.386-2.0066 6.9192 0.70401 5.9099 3.4523 0.95624 3.3054-5.9366 6.5608-13.693 9.1506-22.246 4.25-14.052 8.0219-17.159 8.0219-17.159s-1.2348-5.2989-2.1271-6.1889z"/>
   <path d="m-16.054 61.9c3.0683 0.48941 7.8623 1.5661 12.949 2.6955 13.48 3.0005 22.485 4.8874 24.65 3.7459 1.1934-0.63624 2.0593-0.80942 2.7106-0.54589 0.88848 0.37648 1.8071 1.5661 2.4697 4.064 0.59859 2.1911 0.99766 4.5685 1.393 7.0389-2.9478 0.41035-10.877-0.37647-27.32-5.6577-15.725-5.0734-27.917-8.4869-37.174-5.7774 4.3295-3.2678 12.936-6.7468 20.32-5.5651m-18.727 2.6843c-5.5647 3.4259-5.4984 4.7549 0.38401 3.9447 9.2571-1.3026 20.015 1.2235 34.784 5.9897 15.857 5.1133 22.034 6.8266 28.222 5.7642 4.2899 10.97 5.14 8.7124 1.3817-0.384-1.1821-2.8687-1.4344-7.4508-2.5751-10.2-1.8711-4.5553-4.7545-3.1059-6.3218-2.2701-1.9012 0.99766-14.689-2.0857-23.906-4.1435-5.1001-1.1294-11.701-2.7219-14.795-3.2151-4.2896-0.68896-11.01 0.7153-17.173 4.5154"/>
   <path d="m130.91 61.833c0.37648-1.8184 0.80942-3.2942 1.1821-3.4937 0.0377-0.03769 0.26353 2.1647 1.088 0 0.80942-2.1798 2.033-4.7278 3.8517-6.6538 0.59859 0.74541 1.4758 1.4758 0.30118-0.9826-0.57223-1.2085-1.1558-1.5285-0.18824-1.6602 1.5812-0.22589 3.2151-0.45177 4.0772-0.55719 1.6188 0.53083 2.3643 0.22588 0.48942-1.1821-0.83577-0.62495-1.1821-1.1558-1.5134-2.0857 2.5901 1.5285 4.4093 1.2499 5.7906 0.88848 0.26353-0.07525 1.4344 0.6626 0.5986-0.94495-0.83578-1.5925-1.4607-2.1497-2.2174-3.3318 1.1972 0.33883 3.2791 0.67766 5.1133 1.1294 0 0 3.5991-0.91482 5.3523-1.1558-0.30118-0.42543-0.63624-0.86214-0.9826-1.2085-1.8974 0.30118-4.0772 0.79813-5.3124 1.2085-2.432-0.9826-3.2414-1.1294-4.9141-1.3553-1.6753-0.22589-2.2852-0.30118-1.1407 0.99765 1.1407 1.2876 2.417 3.6669 2.4584 3.7459-0.39907 0.15059-3.0946-0.33883-4.5952-1.1558-1.1972-0.65129-1.3817-0.53083-1.1671 0.55718 0.26353 1.2762 0.70401 2.3793 1.329 3.0156-1.0504 0.18824-4.9536 0.39906-5.0866 0.94495-0.11294 0.45177 1.1407 2.4433 1.1407 2.4847-1.5285 1.2085-3.0419 3.9846-3.8916 6.1625-0.18825 0.02672-0.15059-1.9275-1.2198-0.22588-0.53083 0.83576-1.0767 2.3228-1.5021 4.011 0.15059 0.53083 0.60989 0.62495 0.98259 0.85083"/>
   <path d="m130.3 65.637c0.11294-0.88848 0.26353-1.8447 0.41036-2.7633h-1.1821c-0.15059 0.78306-0.26353 1.5812-0.30118 2.3492 0.18824 0.65129 0.57225 1.2762 1.009 1.8184 0.013-0.53083 0.0267-1.009 0.0752-1.408"/>
   <path d="m175.19 91.749-2.7483 1.1671c-2.5487 1.5925-4.5817 2.8574-5.6445 4.2632-0.6626 0.87718-0.87719 1.8184-0.9412 2.5638-1.1972-0.79813-2.8424-1.7544-2.8424-1.7544s1.3402-2.097-0.37647-0.62495c-1.7017 1.4607-4.4891 3.3468-5.844 4.3163 0.87719-1.5661 1.8974-3.3732 2.3228-4.0772 0.68895-1.1407-0.99765-0.0752-0.99765-0.0752-0.0752 0.013-6.9061 1.009-12.019-1.9802 0 0 0.42541-1.5134-0.45177-0.67766-0.87719 0.83577-2.496 1.5021-3.2791 1.4607 0.37647-0.68894 0.7567-1.5925 0.7567-2.417 0-0.38399-0.0752-0.7567-0.30118-1.0616-0.74541-1.0617-2.2061-0.39906-2.7483-0.26353-3.2264 0.79812-4.1702 0.57223-4.8211 0.22588 1.6188-1.7657 2.3228-5.2063 1.9916-5.658-0.11294-0.15059-0.33884-0.22588-0.82449-0.15059-1.2499 0.18824-4.2899-0.15058-5.7909-0.63623 1.1294-1.0504 1.9916-1.6076 2.7106-3.3732 0.73035-1.7807-0.60988-0.77179-0.60988-0.77179-1.088-0.0752-4.1303-1.2612-4.1303-1.5398 0-0.26353 2.2174-0.013 3.4937-0.30118 2.9628-0.67765-0.22589-0.96753-0.22589-0.96753-0.74542-2.4433-1.4607-7.2114-1.6188-10.771-0.33881-0.26353-0.7153-0.26353-1.1031-0.26353 0.0752 3.3469 0.59859 8.0219 1.3666 11.063-0.30116 0.0264-0.74541 0.0752-1.649 0.22588-2.0066 0.30118-2.3906 0.7153-0.37647 1.9652 1.1558 0.67765 2.2061 1.1558 3.6142 1.5021-0.33883 0.41037-0.99766 1.1821-1.6866 1.8447-2.112 2.0179-1.7807 2.2062-0.11294 2.6165 3.8382 0.96754 5.8169 0.46306 5.8169 0.48941 0 1.1031-2.5374 4.4356-3.4673 4.9668-0.92989 0.54587 1.0353 1.2085 1.7544 1.2612 2.4697 0.22589 4.1969-0.30117 5.8173-0.68895 1.024-0.22588 1.4193-0.15059 1.5021-0.013 0.26353 0.384-0.94119 2.5638-1.728 3.1887-0.77179 0.62495 0.0267 0.77177 1.1144 0.74542 1.1031-0.0263 2.6428-0.18824 4.157-0.97131 3.441 2.8951 9.6554 2.3906 12.033 2.2061-1.408 2.6316-1.8861 3.9978-1.7017 4.1439 0.22588 0.18824 0.88848 0.11294 6.7732-4.1838 0.38399 0.26353 1.2499 0.9713 2.2061 1.713 1.7544 1.3553 1.8184 1.3666 2.4697-1.1031 0.11294-0.384 0.33881-0.78306 0.79812-1.3666 0.91483-1.2235 2.8424-2.417 5.2857-3.9312l3.7855-1.4494z"/>
   <path d="m168.55 42.109c0.0752 0.62495 0.62495 1.009 0.85083 1.5398 0.22589 0.11294 1.8447 0.85083 2.2061 1.0617 0.26353-0.41035-0.50447-0.91484-0.45177-1.3666-0.26353-0.15059-1.9276-0.92988-2.6014-1.2348"/>
   <path d="m187.31 69.643c-1.1821-0.67765-2.5111-1.3402-3.3469-1.6866-0.37647-2.2589-0.54588-4.3298-0.54588-5.605 0-0.7153 0.75671-2.417 1.2875-3.3318 0.53083-0.90354 0.75672-0.9826 0.0752-1.5925-0.68895-0.60989-1.2612-0.97131-2.1384-1.2235 0.22587-0.39907 0.50447-0.88848 0.83576-1.4457 0.88849-1.4494 0.30118-1.5661-0.7153-1.3402-0.50447 0.11294-1.1821 0.07525-1.4871-0.02672-0.63624-0.18824-0.97131-0.74541-1.2348-2.4433 0 0-0.6626-3.2415-0.88848-4.3298-0.50447 0.46306-0.55718 0.57225-0.82448 1.2085 0.11294 0.58353 0.68896 3.5577 0.68896 3.5577 0.18823 1.1671 0.39905 2.4847 2.0857 2.9628 0.46307 0.11294 1.024 0.11294 1.5812 0.013-0.62495 1.1671-1.4871 1.7807-1.6866 3.1624-0.26353 1.713 1.0353-0.30118 1.0353-0.30118 1.3402 0.22588 2.0066 1.0353 1.9802 1.0617-0.75671 1.3666-1.9012 4.1702-1.9012 4.2632 0.0752 0.75672 0.79813 4.5023 1.0767 5.7243 0.0263 0.11294-0.30118 0.15059 0.0377 0.30118 1.5812 0.62495 2.3643 1.1407 3.2264 1.8334-0.83577 1.3553-2.7483 4.3562-3.3581 11.329l1.1821 0.704c-0.26353-7.6236 1.9388-10.067 3.2414-11.701 0.58353-0.73036 0.80942-0.47813-0.22589-1.0617"/>
   <path d="m101.59 23.88c0.15059 0.33882 0 0.85083-0.11294 1.3553 0.68896-0.03769 1.3402-0.07525 1.9388-0.11294 0.26354-0.38401 0.5986-0.80942 0.67766-1.3553-0.73036 0.013-1.5812 0.03769-2.496 0.11294"/>
   <path d="m129.68 47.151c0.54589-0.41035 2.0857-0.6626 3.2-1.1558 0.68894-0.30118 1.3026-0.22588 0.22589-1.2875-1.0617-1.0767-2.6956-2.3492-3.7309-2.9629 0.18823-0.11294 2.5224-0.7153 3.441-1.009 0.91482-0.30117 1.0767-0.43671-0.57225-1.4607-0.42542-0.26353-3.0532-1.8598-4.9273-2.6165-0.0264-0.07525 2.1384-2.737 3.136-3.3469 0.9826-0.60989 0.67766-0.60989-0.46305-0.9826-1.1407-0.38399-3.2-0.18823-4.9537 0.15059-0.45177-1.2085-1.088-2.5487-1.8711-3.1737-0.45177-0.37647-0.87718-0.68894-0.99766-0.95624-0.26353-0.60989-0.11294-1.8974 0.54589-3.1059 0.6513-1.2085 0.77177-1.5925-0.6626-1.1294-1.4193 0.45176-3.9842 1.5285-4.5422 1.1407-0.46306-0.33883-0.50447-3.0269-0.47812-3.7986 0.0267-0.76802-2.8687 1.8184-3.4146 0.87718-0.5986 0.53083-1.009 1.1558-1.3666 1.8184 1.329-0.37647 2.5902-0.82447 3.4786-1.329 0.0377 1.329 0.18824 2.4584 1.0616 3.0683 0.75672 0.53083 1.9276 0.55717 3.7851 0.07524-0.11294 0.30118 0.0377 2.2061 0.37647 2.9478 0.26353 0.55719 0.80942 0.99389 1.3817 1.4457 0.82447 0.65129 1.6753 1.329 1.9125 2.4283 0 0-1.8334 0.74541-0.26353 0.60989 1.5661-0.15059 3.6254-0.22589 4.2237-0.013-0.77177 0.48942-1.5021 2.097-2.3906 3.505-0.88848 1.4193 0.45177 0.83576 0.9826 0.54589 0 0 2.7483 1.792 4.011 2.5638-0.22587 0.11294-2.2965 1.1671-2.2965 1.8861 0 0.26353 2.88 3.1059 2.9892 3.2527-0.95625 0.41035-2.3379 0.9713-2.3379 1.4231 0 0.07524-1.6866-1.2762-0.53084 0.53083 1.1407 1.8184 3.3054 4.8343 3.7851 5.5515-1.1031-0.02629-1.8598 0.22589-2.2965 0.83578-0.22588 0.33883 0.38401 3.8118-1.1821 7.1587 0 0 1.5021 1.3817 1.6339 1.5925-0.75672-0.07525-2.7746 0.38401-3.0946 1.3817-0.15059 0.45177 1.2236 2.737 2.7897 4.2899-1.8447-0.11294-3.6668-1.024-3.9846-0.80942-0.18824 0.11294 0.15059 3.7045 0.55719 5.3256-1.5021-1.3817-2.3228-2.097-3.0796-1.8071-0.22588 0.07524-3.2264 5.4721-3.5313 6.2024-1.0504-1.2876-1.792-2.0443-4.064-1.6339l0.22589 1.3139c2.5751-0.60989 2.8574 1.1671 3.6254 2.4584 0.75671 1.3026 0.77177 0.67765 1.0767-0.33884 0.30118-0.98259 2.9102-6.8266 3.441-6.667 0.53083 0.15059 2.3793 1.5812 2.7897 1.4231 0.46306-0.18824 0.44048-3.5577-0.15059-5.2462 1.792 0.73036 3.8382 0.7153 4.1171 0.30118 0.26355-0.38401-2.6956-4.0377-2.3379-4.436 0.49318-0.57225 3.1737-0.39907 3.5577-0.86214 0.38401-0.45177-1.728-1.8334-2.3379-2.7483 1.5285-2.9628 0.77177-6.4016 0.80942-6.4546 0.0752-0.11294 1.1558-0.30118 2.4847 0.15058 1.329 0.46306 1.713 0.15059 0.63625-1.4344-1.0617-1.6075-4.0904-4.9936-4.4093-5.4852"/>
   <path d="m83.67 26.515c-1.5925-0.11294-1.7017-0.18823-1.2499 0.54589 0.4367 0.7153 1.6602 1.713 2.1233 2.1233-0.26353 0.0377-3.6782 0.22589-4.3826 0.9826-0.7153 0.77177 0.33884 1.1934 1.5662 2.0706-0.11294 1.1558-1.9388 4.2899-4.0373 4.861 0 0-7.1986 1.0504-7.9157 2.5111-0.26354 0.51953 5.0338 1.393 6.6274 2.1384-2.2852 1.1407-6.1892 3.3732-6.9196 4.1039 0 0-0.91482 0.6099 0.83578 0.76802 1.7544 0.15059 3.4259 0.57224 3.9443 0.78306-1.088 1.4344-2.4584 4.4624-2.6692 5.9897-0.22588 1.5134 0.39907 2.2061 0.9299 1.2876 0.53083-0.91484 1.8184-1.6753 1.8184-1.5285 0.0752 5.2594 2.2174 8.2211 2.2852 8.3404-0.18822 0.37647-0.9826 2.2852-1.408 3.7045-0.41035 1.4344-0.33882 1.5812 0.50449 1.2762 0.83576-0.30118 1.5285-0.85083 3.2678-0.9826 1.5134 3.7572 4.1039 5.5651 4.1039 5.8436-0.0752 0.63624-1.4344 4.7812-1.4344 5.9234-0.15059 1.1671 0.41036 1.1671 1.3402 0.26353 0.92989-0.91482 3.4673-2.5751 3.505-2.5751 0.18824 0.18824 0.18824 4.7948 0.87718 4.9672 0.59859 0.15059 3.7045-3.2151 4.2632-3.4146 0.0752-0.02629 0.33884 3.4146 0.58355 4.3829 0.22588 0.97131 0.26353 1.0504 1.0767 0 0.83576-1.0504 2.3906-3.2678 2.9628-3.6518 0.95624 0.02672 1.713 0.91484 1.9916 2.3229 0.30118 1.393 0.57224 1.6075 1.4758 0.83577 1.5661-1.3402 3.6932-2.496 4.3694-2.417l-0.0753-1.0617c-1.2612-0.26353-4.4624 2.2852-4.5422 2.112-0.65131-1.5134-0.67766-3.1737-2.6956-3.0946-0.60989 0.02629-2.9742 2.0593-3.4259 2.5111-0.45178 0.45175-0.53083-1.0617-0.60991-2.432-0.0752-1.3817-0.15059-1.7807-1.1031-1.0504-0.95624 0.74541-2.8574 2.2701-3.4523 2.737-0.0377-0.33883-0.22589-3.4673-1.0353-3.9312-0.45176-0.26353-2.801 0.75672-3.7982 1.5285 0.11294-0.41036 1.1558-4.157 0.79812-4.4627-0.9713-0.80942-3.7715-4.2632-4.1435-5.7507 0 0 1.1144-0.68894-0.67765-0.51954-1.8071 0.18824-1.8184 0.18824-2.5487 0.30118 0.18824-0.46306 1.4758-3.6405 1.3553-3.7851-1.1407-1.3666-2.6014-4.5821-2.6014-7.2118 0-0.26353-0.2259-1.7393-0.39908-1.8447-0.51953-0.30118-1.1972-0.013-2.0593 0.50447 0.38399-1.6075 1.1294-3.2941 2.6428-4.861 1.5021-1.5661-0.0377-0.94118-0.0377-0.94118-0.87718-0.80942-3.4146-0.99766-3.5313-1.009 1.6339-1.2085 3.825-2.5638 4.954-3.3318 1.1294-0.78306 0.013-1.1671 0.013-1.1671-0.88848-0.50447-2.7106-1.3402-4.436-1.792 1.3026-0.30118 5.3655-1.024 5.3655-1.024 1.8598-0.50447 3.9048-3.0269 4.2899-5.0071 1.2235 1.0617 2.1384 0.9826 0.50447-1.1294-0.78306-1.0353-0.51953-0.83578-1.0353-1.4607 0.46306-0.11294 2.9214-0.30118 4.1834-0.60988 1.2612-0.30118 0.75671-0.60989-0.26354-1.1821-1.024-0.57223-1.024-1.0617-1.1031-1.1407 1.9388-0.11294 6.7336-1.5285 7.5302-1.6602-0.30118-0.37648-0.63624-0.77177-0.99766-1.1821-0.53083 0.11294-2.9628 1.8184-7.4907 1.5021"/>
   <path d="m172.27 65.588c0.48941 2.033 0.26353 4.4759-0.26353 4.9273-0.54589 0.45177-0.0753 1.1558 0.57223 0.42541 0.63625-0.73036 1.2499-2.6316 0.68895-5.6046-0.26353-1.4494-1.4871-1.7807-0.99765 0.26353"/>
   <path d="m150.9 73.125c3.2264 1.6188 10.293 2.4847 15.539 2.033 1.2762-0.11294 0.46306-0.59859-0.38401-0.58353-5.5515 0.03769-13.932-1.6452-15.473-2.5224-1.5398-0.87718-0.75672 0.53083 0.30119 1.0767"/>
   <path d="m151.62 72.804s0.63625 0.88848 0.63625 0.03769c0-1.7393 1.0767-6.2423 2.5374-7.9688l-1.009-0.39907c-1.6452 1.9388-2.417 5.9103-2.1647 8.3141"/>
   <path d="m169.94 86.954c1.1294 4.1834 7.9289 6.7201 15.526 9.2037 2.496 0.82448 7.8356 4.9409 12.099 7.9157 8.9646 6.2555 17.73 12.338 23.136 8.8317l-0.75671-0.83576c-5.3392 2.7106-15.141-4.5425-23.362-10.28-4.5422-3.1586-8.4601-5.8967-11.143-6.7731-7.2117-2.3643-12.909-4.2233-13.852-7.7031z"/>
   <path d="m172.64 78.568 1.5285-2.0593c0.68894-0.9826 1.3026-1.8184 1.6602-1.8447 0.15059-0.013 0.50448 0.11294 1.329 1.024l1.1821 1.4607c3.0156 3.8784 9.2966 11.967 25.035 17.677 17.611 6.3884 23.029 16.415 24.623 20.851-3.6142-1.4871-8.5667-4.4755-14.224-7.889-9.4958-5.7375-21.316-12.883-34.279-17.73-6.7867-2.5224-10.134-4.4492-11.793-5.7108 0.87719-0.94118 2.801-3.0683 4.9405-5.7774m1.3402-3.1059s-6.2423 7.8359-7.0788 8.2211c-0.83577 0.38401-0.91484 0.7567 0.22589 1.6753 1.1407 0.91484 5.6708 3.8118 11.9 5.9634 17.319 5.9897 24.61 11.9 34.053 17.611 6.6802 4.0377 14.304 7.796 15.751 8.5132 1.4607 0.7153 1.4607 0.70401 0.99766-1.0353-0.46306-1.7544-5.6445-16.442-28.023-23.839-15.526-5.1268-24.411-18.395-25.394-18.7-0.99766-0.30118-1.4344 0.18824-2.432 1.5925"/>
   <path d="m182.97 72.065c-0.47813 2.0593-1.4231 2.4057-3.8916 2.4847-0.80942 0.02672-1.1671 0.26354 0.0377 0.37648 2.6165 0.22588 4.0373-0.48942 4.2365-2.737 0.11294-1.2763-0.26353-0.70401-0.39905-0.11294"/>
   <path d="m84.169 50.424c5.8173 3.6932 12.325 6.8533 15.526 4.8742 0.88848-0.55719 0.74164-1.4344 0-0.86214-2.1271 1.6188-5.2462 1.4758-15.3-5.2326-1.0767-0.7153-1.1294 0.65131-0.22588 1.2235"/>
   <path d="m86.408 42.786s-0.2259 6.5477 0.37646 8.6062l0.67767 0.26353c-0.54589-1.9012-0.11294-5.9103-0.0377-7.9553z"/>
   <path d="m103.14 46.49c0.4367 0.88848 1.0504 3.6254 0.88848 4.3163-0.1506 0.67766 0.18824 1.2348 0.58354 0.03769 0.41035-1.1972-0.15059-3.5878-0.55719-4.8211-0.39907-1.2499-1.3553-0.43671-0.91483 0.45177"/>
   <path d="m108.01 46.516c-0.0752 1.1671-0.0752 2.3116-0.47813 3.2264-0.37647 0.90354 0.30118 0.85083 0.73037 0 0.41036-0.83578 0.7153-2.7483 0.63624-3.9575-0.0752-1.2235-0.79813-0.43671-0.88848 0.73036"/>
   <path d="m119.1 43.042c1.4193 2.6692 1.9539 5.1528 0.99766 8.8317l0.83576-0.50449c1.0353-3.9711 0.26355-6.667-1.2499-9.4695z"/>
   <path d="m114 53.924c-0.63624-0.11294-1.3553-0.80942-1.4457-1.5925l-0.41035 0.48941c0.26353 1.0504 0.9826 1.5398 1.9238 1.7017 3.7196 0.60989 8.9913-3.8645 9.9077-4.6348 0.90354-0.75671 0.67766-1.5925-0.22588-0.83578-0.90354 0.77178-7.0254 5.3256-9.7349 4.8742"/>
   <path d="m108.9 102.76c-2.1647-23.826-5.2861-30.042-7.1455-33.761-0.49318-0.9826-0.88848-1.7657-1.1294-2.6316-0.013-0.07524-0.0267-0.15059-0.0267-0.26353 0-1.7017 2.8687-7.796 5.3922-10.824 0.88848-1.0617 1.1558-1.1407 1.2085-1.1407 0.0752 0.013 0.26353 0.15058 0.41035 0.26353l0.42542 0.30118c1.3402 0.90353 6.76 6.9064 6.76 8.2079v0.03769c-0.0752 0.39906-0.11294 0.9826-0.11294 1.8447 0 2.9892 0.47812 9.2041 1.4871 21.542 0.15059 1.8861 0.22588 4.064 0.22588 6.4547 0 14.835-2.6014 37.519-3.7719 44.279-1.1294-5.9765-2.8273-24.663-3.7045-34.345m-3.1473-49.14c-1.5134 1.713-6.999 11.01-6.4148 13.108 0.26353 0.99766 0.7153 1.8598 1.2198 2.8687 1.8184 3.6405 4.4891 9.9875 6.6406 33.562 3.2151 35.421 4.2632 36.776 5.3922 36.895 0.22589 0.0267 0.68896-0.0377 0.91484-0.75671 1.1671-3.6932 5.6313-35.447 4.4492-49.911-1.1407-13.985-2.1798-24.49-1.8447-26.15 0.47813-2.3906-8.0486-9.6822-8.0486-9.6822-1.2198-0.92988-1.728-0.59859-2.3116 0.07524"/>
   <path d="m96.26 50.588c0 1.1558-0.42541 2.4847-0.95624 2.4847-0.51955 0-0.80942-1.4344-0.80942-2.5751 0-1.1558 0.30118-1.5925 0.80942-1.5925 0.53083 0 0.95624 0.53083 0.95624 1.6866"/>
   <path d="m117.26 48.948c0 1.1144-0.18824 2.6843-0.68896 2.6843-0.48941 0-0.91482-1.393-0.91482-2.5224 0-1.1144 0.46307-1.9012 0.95624-1.9012 0.47813 0 0.65131 0.62495 0.65131 1.7393"/>
   <path d="m180.99 70.639c0.0377 2.2965-0.37648 3.5464-0.70401 3.5464-0.33883 0-0.63624-1.1294-0.63624-2.0066 0-0.86212 1.329-2.417 1.3402-1.5398"/>
   <path d="m164.88 72.016c0 1.0089-0.45177 2.112-0.99766 2.112-0.53083 0-1.0767-1.7807-0.97131-3.7851 0.0377-0.82447 1.9652 0.85084 1.9652 1.6716"/>
   <path d="m35.503 67.587c-0.41036 0.30118-1.0504-0.63624-1.329-1.6715-0.22589-0.83578 0.50447-1.5812 0.9826-1.5812 0.47811 0 0.66259 3.0156 0.33882 3.2528"/>
   <path d="m162.2-3.8366c4.3562 14.955 8.4334 41.358 8.9514 50.535l1.1407 2.0443c-0.54589-9.6155-4.529-37.865-9.4431-53.975 3.7719 6.3086 7.3714 12.391 12.578 25.46 3.2791 8.2742 4.4492 14.065 4.4492 18.448 0 5.419-1.7657 8.7128-3.505 11.953-1.0767 1.9652-2.1647 4.011-2.8687 6.4946l0.77177-0.15059c0.65129-2.3379 2.1911-3.7045 3.2678-5.7107 3.2942-6.1226 6.7069-12.458-0.87719-31.517-5.0466-12.683-9.0177-19.111-12.537-24.995-1.8861-3.1473-3.7309-4.7681-1.9238 1.4193"/>
   <path d="m168.75 53.428c-5.0602-4.0241-11.993-9.5357-18.527-19.231-11.076-13.64-14.052-31.968-14.835-41.982 5.2992 11.422 11.409 20.2 19.869 30.958 11.9 15.114 18.275 28.369 18.275 33.734 0 0.18823-0.0267 0.37647-0.0377 0.51954-1.2875-1.2348-2.8951-2.5374-4.7413-3.9978m-34.305-60.217c0.82449 9.8945 3.9447 28.528 14.702 41.783 6.6139 9.8279 13.64 15.406 18.766 19.483 2.2438 1.7807 3.1737 2.1911 4.768 3.6254 1.009 0.91484 1.3666 2.1384 1.6753-0.30118 0.68895-5.5647-5.4585-19.483-18.036-35.461-7.7561-9.855-15.685-21.263-19.51-29.63-1.8711-4.0776-2.7483-4.1171-2.3642 0.48942"/>
   <path d="m125.16-21.403c-1.9388 5.4589-5.2063 12.246-9.7085 18.076-9.1374 11.847-12.79 26.748-12.79 31.649l0.39906 1.3026c0-4.6348 6.853-24.012 13.427-32.114 4.9672-6.0963 8.8453-14.038 10.705-20.081-0.18824 9.8678-3.136 24.211-6.1625 31.264-2.8687 6.7069-7.9684 13.361-12.059 18.713-3.2414 4.2369-5.3655 7.2117-5.7774 9.2436l0.38401 0.51953c0.33882-1.728 3.441-5.0067 6.4546-8.9514 4.1439-5.4054 9.3501-11.462 12.285-18.328 3.0532-7.1455 5.844-19.643 6.1094-30.507 0.15059-6.5476-0.9299-7.3446-3.2678-0.78306"/>
   <path d="m98.744 32.149c-4.0241-4.1702-9.5361-9.8813-14.304-20.373-8.2742-14.596-9.9875-27.744-9.9875-36.138 0-1.1031 0.0377-2.0857 0.0752-3.0156 3.0419 10.931 6.8266 17.837 14.756 29.657 8.6329 12.883 13.666 26.337 13.666 32.565 0 0.68896-0.0753 1.2763-0.22588 1.7807-1.0617-1.4193-2.4433-2.8574-3.9974-4.4755m-25.566-58.278c-0.15059 7.7429 0.94117 22.299 9.39 37.201 4.8475 10.665 11.116 17.77 15.207 22.007 1.8861 1.9539 4.3694 4.2632 4.8076 4.861 0.6099 0.83576 1.0617 0.73036 1.2236-0.15059 1.4456-7.8359-3.5615-21.077-13.626-36.072-6.6538-9.934-11.967-21.223-14.198-28.156-1.713-5.3388-2.6692-5.6708-2.801 0.30118"/>
  </g>
  <g fill="#fff">
   <path d="m95.681 50.495c0 0.62495-0.0752 1.1294-0.18824 1.1294-0.11294 0-0.18823-0.50447-0.18823-1.1294 0-0.62495 0.0752-1.1144 0.18823-1.1144 0.11293 0 0.18824 0.48942 0.18824 1.1144"/>
   <path d="m116.56 49.04c0 0.57225-0.0752 1.0504-0.22589 1.0504-0.11294 0-0.22588-0.47811-0.22588-1.0504 0-0.57224 0.0752-1.0504 0.22588-1.0504 0.11294 0 0.22589 0.47813 0.22589 1.0504"/>
   <path d="m164.28 71.77c0 0.30118-0.0377 0.57224-0.15059 0.57224-0.0753 0-0.15059-0.26353-0.15059-0.57224 0-0.30118 0.0752-0.57225 0.15059-0.57225 0.0752 0 0.15059 0.26354 0.15059 0.57225"/>
   <path d="m180.24 71.93c-0.013 0.22589-0.0752 0.43672-0.15059 0.42543-0.0377 0-0.11294-0.18824-0.0753-0.43672 0-0.22588 0.0753-0.43671 0.11294-0.43671 0.0752 0.013 0.11294 0.22589 0.11294 0.45177"/>
   <path d="m34.789 65.85c0.15059 0.55717 0.18824 1.024 0.11294 1.0353-0.07524 0.013-0.22588-0.41035-0.38401-0.96754-0.15059-0.55719-0.18823-1.024-0.11294-1.0353 0.07524-0.013 0.26353 0.41035 0.38401 0.97129"/>
  </g>
  <g fill="#0f141b">
   <path d="m149.29 63.644c6.1094 1.393 14.025 6.1889 17.531 10.798 0.62495 0.83578 1.4607 0.77177 0.33883-0.59859-4.3697-5.419-11.01-9.8015-17.345-10.838-1.0353-0.18823-1.3816 0.45177-0.53083 0.63624"/>
   <path d="m178.55 73.149c-0.85082 1.649-0.26352 1.2348 0.30119 0.33882 1.3139-2.033 3.3996-3.9312 4.3031-4.6882 0.90355-0.77177 0.77177-1.1558-0.37647-0.46306-1.3402 0.82448-3.3996 3.1624-4.25 4.808"/>
   <path d="m84.201 41.767c2.6316 1.1934 13.148 9.8546 15.419 11.727 2.2852 1.8711 1.2876 0.37647-0.30118-1.3139-3.2-3.3619-11.873-10.665-14.835-11.395-1.6753-0.42541-1.1031 0.60989-0.26353 0.9826"/>
   <path d="m111.87 52.403c-0.91483 0.45177-0.45177 1.1821 0.22588 0.65131 5.0866-3.8517 9.2703-12.976 9.3497-14.277 0.0753-1.2876-0.60988-1.009-1.0616 0.07525-2.6692 6.4678-7.61 13.095-8.5264 13.547"/>
   <path d="m31.909 68.858c-0.48941 1.1407-0.45177 2.0706 0.46306 0.45177 4.1435-7.4241 11.275-12.962 14.941-15.061 1.0353-0.58354 0.70401-0.99766-0.33882-0.47813-5.2462 2.5901-12.431 9.0045-15.061 15.087"/>
  </g>
 </g>
</svg>
