<?xml version="1.0" encoding="UTF-8"?>
<!-- Created with Inkscape (http://www.inkscape.org/) -->
<svg version="1.1" viewBox="0 0 243.95 297.05" xmlns="http://www.w3.org/2000/svg">
 <g transform="translate(2.582 -1.2034)" stroke-width="3.893">
  <path class="uuid-0fa3a783-a21b-4583-b6d8-77543c1eadee" d="m21.094 104.55c8.3466-35.24 79.456-55.37 79.456-55.37 39.148-14.821 107.7 19.917 116.55 79.636 0 0-203.18 6.0303-196.01-24.265" fill="#6f4e25"/>
  <path class="uuid-ce6adc65-a901-41f8-ad18-c1a889149387" d="m98.339 74.668c9.0357-10.597 20.52-21.828 37.322-27.839-12.103-1.2109-21.933-4.2356-55.756 9.6352 6.334 5.9447 12.796 11.765 18.43 18.204m105.03 18.375c-3.5932 12.843-8.6696 25.238-15.833 36.225 17.787-0.10294 29.571-0.45613 29.571-0.45613-1.9621-13.244-6.8752-25.25-13.739-35.769" fill="#4a311c"/>
  <path class="uuid-0fa3a783-a21b-4583-b6d8-77543c1eadee" d="m87.863 98.038 15.05-40.935c-0.17068-1.8569-5.4813-23.494-10.476-23.397-3.6321 0.073608-18.309 1.9427-35.341 10.379-17.036 8.4323-32.799 17.507-32.012 21.929 0.78645 4.4185 13.925 25.6 15.662 27.216l47.113 4.8117z" fill="#6f4e25"/>
  <path class="uuid-ce6adc65-a901-41f8-ad18-c1a889149387" d="m92.465 85.518 10.449-28.415c-0.17068-1.8569-5.4813-23.494-10.476-23.397-3.6321 0.073608-18.309 1.9427-35.341 10.379-0.65035 0.3237 24.946 26.652 35.368 41.437" fill="#4a311c"/>
  <path class="uuid-0fa3a783-a21b-4583-b6d8-77543c1eadee" d="m152.32 87.959 9.7598-24.117c0.55324-1.6584 6.0809-12.719 9.4016-11.889 3.3168 0.82986 16.588 6.6337 30.412 17.97 13.824 11.336 25.433 24.055 23.779 27.924-1.6584 3.8697-20.734 20.181-22.669 21.287l-50.679-31.175z" fill="#6f4e25"/>
  <path class="uuid-ce6adc65-a901-41f8-ad18-c1a889149387" d="m212.81 111.27c4.8975-4.4536 12.084-11.597 12.862-13.419 1.5883-3.7061-9.0045-15.537-22.05-26.492 0.11772 2.6979-3.819 27.391-10.02 37.034 8.4712 0 14.521 1.9659 19.208 2.873" fill="#4a311c"/>
  <path class="uuid-e21800e2-3011-4795-9ba3-263b3a675e0b" d="m92.94 82.447c9.238-8.3971 1.0712-27.804 1.0712-27.804-1.3698-4.7962-5.0843-12.559-7.4396-12.337-8.222 0.78277-50.948 21.151-51.396 24.378-0.44377 3.2235 11.134 20.54 14.976 24.767 0 0 33.546-0.60769 42.784-9.0045m68.677 0.68567c1.6584-4.6988 8.2959-22.751 12.166-21.365 3.8735 1.3816 42.298 31.596 42.021 34.636-0.27661 3.0404-15.206 17.141-19.629 20.181z" fill="#0f141b"/>
  <path class="uuid-638971d1-ff9b-4794-8109-df5ecfb39ed7" d="m167.86 101.61-4.1148-14.264c0.55323-2.7641 2.7406-10.254 11.889-10.784 14.377-0.82839 25.713 14.93 26.262 20.734 0.55324 5.8046-1.6584 13.271-11.889 15.206z" fill="#dcdbd6"/>
  <path class="uuid-82f18ad8-997e-4346-9e2f-56e6d0c3096e" d="m201.89 97.295c-0.40904-4.2823-12.835-16.584-12.835-16.584s-4.3601 18.293-6.552 28.1l7.498 3.6867c10.231-1.9348 12.442-9.4016 11.889-15.206" fill="#b4b4b0"/>
  <path class="uuid-638971d1-ff9b-4794-8109-df5ecfb39ed7" d="m177.84 80.706c-2.2112 0.27662-10.507 3.3169-9.1252 11.889 1.3816 8.5686 11.336 13.824 16.865 14.377 5.528 0.55324 11.885-3.3169 10.78-9.9544l-18.523-16.312z" fill="#dcdbd6"/>
  <path class="uuid-82f18ad8-997e-4346-9e2f-56e6d0c3096e" d="m196.37 97.018-11.539-9.4991s-1.2257 12.489-2.0089 18.881c0.99318 0.2928 1.9309 0.48703 2.768 0.57237 5.5281 0.55324 11.889-3.3169 10.784-9.9544" fill="#b4b4b0"/>
  <path class="uuid-638971d1-ff9b-4794-8109-df5ecfb39ed7" d="m191.11 43.108c-2.5305 3.562-14.1 29.859-15.759 34.835-1.6585 4.9753 0 13.548 6.6337 17.141 6.6337 3.5932 13.271 4.146 18.247 1.3816 4.9752-2.7641 23.051-14.393 30.965-20.458 8.2922-6.3572 14.653-24.055 0.27662-37.599-12.551-11.827-32.9-5.8046-40.367 4.6988" fill="#dcdbd6"/>
  <path class="uuid-82f18ad8-997e-4346-9e2f-56e6d0c3096e" d="m199.35 77.23c-1.5143-1.3625-1.8141-0.60327-2.4214 0.15154-0.60326 0.75482-15.257 17.522-14.937 17.698 6.6337 3.5932 13.271 4.146 18.247 1.3816 4.1849-2.324 17.628-10.916 26.504-17.195-14.085 6.7388-26.27-1.0241-27.395-2.0361" fill="#b4b4b0"/>
  <path class="uuid-638971d1-ff9b-4794-8109-df5ecfb39ed7" d="m91.854 77.46-4.3097-20.263c-14.976-5.4813-32.795 1.4008-36.224 16.872-1.3434 6.0691-1.4755 14.182 8.6464 18.659l31.891-15.268z" fill="#dcdbd6"/>
  <path class="uuid-82f18ad8-997e-4346-9e2f-56e6d0c3096e" d="m87.544 57.2c-12.146-4.4458-26.157-0.75923-32.853 9.0435 6.482 6.4351 37.163 11.216 37.163 11.216l-4.3097-20.263z" fill="#b4b4b0"/>
  <path class="uuid-638971d1-ff9b-4794-8109-df5ecfb39ed7" d="m79.318 60.918c2.2229 0.82104 8.1909 5.7266 4.6988 14.291-3.492 8.5647-12.352 10.846-18.208 10.083-5.855-0.76363-12.921-8.1597-10.18-14.782l23.693-9.5923z" fill="#dcdbd6"/>
  <path class="uuid-82f18ad8-997e-4346-9e2f-56e6d0c3096e" d="m84.017 75.213c3.492-8.5686-2.4759-13.47-4.6988-14.291l-11.27 12.831s4.0838 4.8389 7.7587 9.9973a15.747 15.747 0 0 0 8.2104-8.5335" fill="#b4b4b0"/>
  <path class="uuid-638971d1-ff9b-4794-8109-df5ecfb39ed7" d="m76.091 20.096c2.0399 4.1889 6.2638 32.207 5.9719 40.822-0.19128 5.5903-3.2311 13.143-10.963 15.272-7.7315 2.1294-14.7 1.4287-19.189-2.6435-4.4848-4.072-17.842-17.242-24.573-25.452-7.0541-8.6074-10.402-31.109 7.7354-41.706 15.833-9.2498 33.663-1.3816 41.021 13.707" fill="#dcdbd6"/>
  <path class="uuid-82f18ad8-997e-4346-9e2f-56e6d0c3096e" d="m77.991 27.364c1.5532 13.411-7.2217 24.152-18.718 27.629-1.8881 0.57237-1.4214 0.99318-0.30311 3.4804 1.3625 3.0248 9.3783 17.394 9.8338 18.149 0.45172 0.75923 0.90343-0.04416 2.293-0.43259 7.7315-2.1295 10.772-9.6819 10.963-15.272 0.21777-6.3924-2.0479-23.455-4.0682-33.554" fill="#b4b4b0"/>
  <path d="m21.958 149.78c-5.6293-2.729-17.102-21.155-11.815-35.064 3.7256-9.8066 17.258-21.528 35.395-23.296 11.407-1.1138 19.13 0.07361 31.37-11.885 14.494-14.167 28.921-20.559 45.941-19.356 20.874 1.4793 31.674 14.054 39.608 23.319 7.4668 8.7242 17.398 19.874 28.419 25.382 23.175 11.589 39.915 24.818 30.735 44.01l-199.65-3.1143z" fill="#eeeded"/>
  <path class="uuid-55e8c363-3402-44b9-8377-26902bb37503" d="m10.143 114.72c-5.2828 13.906 6.186 32.335 11.815 35.064l41.289 0.64592c-29.992-4.3641-50.411-9.3588-52.54-37.034a20.224 20.224 0 0 0-0.56442 1.3272m152.31-31.222c-7.9339-9.2654-18.733-21.844-39.607-23.319-14.735-1.0432-36.345 9.3393-48.748 22.498 22.84 3.7801 49.461 33.733 50.66 68.704l18.145 0.28398c7.677-19.913 21.198-43.123 39.047-48.262-6.5051-5.1426-15.615-15.37-19.496-19.901m41.834 32.849c13.053 16.849-2.2228 29.404-2.2228 29.404l19.539 7.1359c7.2761-15.21-1.7324-26.671-17.316-36.54" fill="#c8c9ca"/>
  <path class="uuid-e21800e2-3011-4795-9ba3-263b3a675e0b" d="m167.62 113.56c-1.261 15.786-22.934 26.928-48.406 24.888-25.468-2.0399-45.093-16.487-43.828-32.273 1.2654-15.786 22.934-26.928 48.406-24.888 25.468 2.0399 45.093 16.487 43.828 32.273" fill="#0f141b"/>
  <path class="uuid-166e69af-084f-4a2b-93b8-a573b9d7f3a6" d="m144.34 244.59c-11.368 1.7362-12.512 8.3115-12.512 8.3115-1.3787 2.2074-0.86076 12.473 6.3456 17.106 12.555 8.0702 29.521 8.2766 41.55 2.3554 8.2805-4.076 15.245-11.956 13.45-17.635 0 0-37.466-11.874-48.834-10.137" fill="#3396cd"/>
  <path class="uuid-cb204de3-aa22-43bc-997d-bb69e8c01d1c" d="m149.41 244.51c-1.9855-0.13243-3.7101-0.11772-5.0649 0.0883-11.368 1.7364-12.508 8.3117-12.508 8.3117-0.87547 1.3978-0.98435 6.0341 0.88724 10.422 4.002-7.4512 10.963-11.839 25.161-8.5608-2.1841-3.9826-5.0299-7.5214-8.4713-10.254m43.158 10.024c-11.391-0.45907-22.969 0.29574-34.375 0.82102 6.0615 11.255 1.674 17.304-3.1689 20.633 9.0746 1.3625 19.749-1.1918 24.701-3.6283 8.2805-4.076 15.245-11.956 13.45-17.635l-0.60768-0.19128" fill="#2880ae"/>
  <path class="uuid-55e8c363-3402-44b9-8377-26902bb37503" d="m37.892 212.26-5.458-45.354-15.926-3.6555c-0.59562 3.5854-3.6945 29.91 7.3889 47.07l13.995 1.9347z" fill="#c8c9ca"/>
  <path class="uuid-166e69af-084f-4a2b-93b8-a573b9d7f3a6" d="m175.63 200.5c12.555-8.9929 19.936-0.0147 19.936-0.0147 3.5854 4.185 12.621 14.875 9.931 33.11-2.6901 18.231-9.8844 20.831-14.069 22.622-4.185 1.7946-27.037 10.76-48.005-8.8294 0 0 19.652-37.895 32.207-46.883" fill="#3396cd"/>
  <path class="uuid-cb204de3-aa22-43bc-997d-bb69e8c01d1c" d="m195.56 200.48s-7.3851-8.9735-19.936 0.0147c-7.6926 5.5087-22.054 32.943-28.921 44.789 16.187-9.0746 35.547 6.5052 22.54 14.825 8.9229 0.90636 15.623-0.68125 22.182-3.8969 6.5597-3.2117 11.379-4.3913 14.069-22.622 2.6901-18.235-6.3456-28.925-9.931-33.11" fill="#2880ae"/>
  <path class="uuid-cb8f1dd2-7ec6-4c2f-8428-1ecdb539bcbe" d="m161.35 273.32c3.2779 3.2779-9.9232 11.165-12.138 11.309-2.2152 0.14713-9.5535-10.776-8.9033-14.583 5.676-4.3057 12.765-5.0025 21.042 3.274" fill="#fff"/>
  <path class="uuid-16140c4a-6a69-4dfc-8490-75c755df2718" d="m161.35 273.32c-2.2112-2.2112-4.4653-3.7333-6.6609-4.7183 0.24129 5.131-2.0867 12.536-5.5631 16.923 4.4069-2.1956 14.852-9.5807 12.224-12.205" fill="#dadbdb"/>
  <path class="uuid-7a1638db-7f57-483f-8204-a1579f1680ad" d="m33.758 204.83c-8.5023-36.664 28.423-92.856 28.423-92.856 0.27662-2.2268 6.8011-11.005 10.974-10.453 4.1734 0.55619 9.7871 8.039 15.934 13.847 5.0065 4.73 20.469 12.792 36.053 12.539 16.199-0.26044 30.755-6.3806 37.151-14.167 3.7761-4.6014 11.403-1.1138 13.906 3.3364 2.5032 4.4497 2.2736 14.723 1.7168 19.453-0.55618 4.7262 6.4974 64.858 1.3669 76.093-5.7928 12.691-18.402 27.551-28.968 32.557-10.57 5.0064-36.283 15.385-64.562 6.6221 0 0-43.497-10.305-51.999-46.973" fill="#f0e9a5"/>
  <path class="uuid-7b5dc41c-4652-420c-9fd3-717b36ed249e" d="m66.689 105.19c-2.0011 2.0829-3.6789 4.551-4.2823 6.0147 0.94609 2.6435 2.2462 5.244 3.7295 7.681 0.54882-5.4969 2.2112-9.8804 6.9024-14.116-3.025-0.60768-4.6872-0.3031-6.3496 0.42081m-14.883 97.983a162.9 162.9 0 0 1-0.53411-11.624 28.302 28.302 0 0 1-18.725-1.4096c-0.19848 4.7611 0.10148 9.3821 1.0083 13.742 5.9758-1.005 12.251-1.4287 18.25-0.7048m126.11-66.645c0.55618-4.7299 0.78572-15-1.7169-19.453-2.5031-4.4497-10.13-7.9378-13.906-3.3364-4.8779 5.9368-14.498 10.901-25.97 13.042 1.1521 0.52086 3.8852 2.0437 4.0254 3.3946 1.2257 11.543 0.63122 24.055-1.7364 36.291-0.0736 0.35754-1.2919 0.91814-1.2919 0.91814s0.70479 1.9621 0.50175 2.8576c-3.1067 13.836-8.4984 27.142-16.098 38.074-0.27662 0.39285-1.6506 0.36196-1.6506 0.36196s-0.16037 2.1411-0.65771 2.7912c-8.296 10.788-18.943 18.85-31.864 22.167-1.6624 3.1767-5.3452 11.71-14.069 13.84 7.1087 3.0989 12.263 4.3175 12.263 4.3175 26.309 10.126 53.992-1.6156 64.562-6.6221 10.569-5.0064 23.175-19.866 28.968-32.557 5.131-11.239-1.9232-71.367-1.3669-76.093" fill="#c9c48b"/>
  <path class="uuid-166e69af-084f-4a2b-93b8-a573b9d7f3a6" d="m85.745 227.36c4.6988 14.229-1.0932 44.579-8.8178 51.602-8.5646 7.7861-28.322 7.058-39.81 7.2411-16.915 0.26925-31.335-12.839-23.705-51.096l72.336-7.7471z" fill="#3396cd"/>
  <path class="uuid-cb204de3-aa22-43bc-997d-bb69e8c01d1c" d="m85.745 227.36-48.402 31.082c8.7748 9.6818 9.6819 19.06-0.22585 27.757 11.488-0.18246 31.245 0.5444 39.81-7.2409 7.7277-7.023 13.52-37.373 8.8178-51.602" fill="#2880ae"/>
  <path class="uuid-cb8f1dd2-7ec6-4c2f-8428-1ecdb539bcbe" d="m63.699 284.68c-2.5967-2.1645 2.7407-16.923 17.635-13.345 2.9276 0.70037 5.3646 15.743 1.4331 17.877-3.1883 1.7286-14.062-0.35754-19.068-4.5276m-3.496-0.70772c0.27661-5.0065-11.636-9.7832-22.482-10.616-10.85-0.8328-18.955-1.1565-20.022 4.6482-1.0706 5.8278 6.4079 18.71 9.9038 18.924 13.703 0.83279 32.32-7.9496 32.6-12.956" fill="#fff"/>
  <path class="uuid-16140c4a-6a69-4dfc-8490-75c755df2718" d="m63.699 284.68c-1.5027-1.2536-1.1918-5.9836 2.9314-9.6781 3.2079 1.3743 14.47 12.52 14.751 14.358-2.1996 1.4022-14.116-1.7092-17.682-4.6794m-19.387-10.461c-1.4365 5.2206-3.5232 13.968-17.881 22.451 13.703 0.78277 33.507-7.8599 33.776-12.695 0.19863-3.5504-7.4084-8.187-15.891-9.756" fill="#dadbdb"/>
  <path class="uuid-166e69af-084f-4a2b-93b8-a573b9d7f3a6" d="m45.706 198.28c-24.549-0.35754-31.86 18.986-32.413 27.886-0.55677 8.9033-0.35814 29.314 19.422 33.25 8.1792 1.6272 22.529 3.4258 28.719 1.4287 14.389-4.6328 25.425-20.36 24.908-32.055-0.64593-14.544-10.488-30.506-32.176-31.222l-8.4595 0.71656z" fill="#3396cd"/>
  <path class="uuid-cb204de3-aa22-43bc-997d-bb69e8c01d1c" d="m86.341 228.79c-0.61502-13.847-9.5691-28.964-29.135-31.004 17.047 19.06 2.071 41.145-8.8178 49.92-10.893 8.7748-22.537 7.2605-29.828 3.0365 2.9392 4.0722 7.4045 7.3345 14.159 8.6738 8.1792 1.6272 22.529 3.4258 28.719 1.4331 14.389-4.6326 25.425-20.36 24.907-32.055" fill="#2880ae"/>
  <path class="uuid-166e69af-084f-4a2b-93b8-a573b9d7f3a6" d="m64.236 133.44c2.7836-5.563 4.9441-27.753-15.919-27.555-25.433 0.24571-39.806 23-31.526 40.413 8.2765 17.417 47.444-12.859 47.444-12.859" fill="#3396cd"/>
  <path class="uuid-cb204de3-aa22-43bc-997d-bb69e8c01d1c" d="m48.318 105.88c-1.8881 0.0147-3.7101 0.17508-5.4736 0.42817 10.379 5.8628 2.9003 23.265-9.4367 35.508 13.571 4.146 30.825-8.3855 30.825-8.3855 2.7835-5.5631 4.9441-27.757-15.919-27.555" fill="#2880ae"/>
  <path class="uuid-166e69af-084f-4a2b-93b8-a573b9d7f3a6" d="m65.338 151.1c4.4147-7.1747 1.3198-21.423-13.641-24.468-12.411-2.5305-30.179 7.7237-34.628 16.066-4.4497 8.3428-5.8162 21.606 6.7699 26.885z" fill="#3396cd"/>
  <path class="uuid-cb204de3-aa22-43bc-997d-bb69e8c01d1c" d="m51.697 126.63a20.796 20.796 0 0 0-4.6054-0.37814c12.94 13.003-0.01472 30.817-1.1285 31.759l19.376-6.91c4.4147-7.1749 1.3198-21.419-13.641-24.468" fill="#2880ae"/>
  <path class="uuid-cb8f1dd2-7ec6-4c2f-8428-1ecdb539bcbe" d="m24.135 184.46c1.9465 3.8931 6.2755 17.678 9.8883 16.565 3.6166-1.1138 5.9096-11.06 5.9096-11.06l-15.802-5.5047z" fill="#fff"/>
  <path class="uuid-16140c4a-6a69-4dfc-8490-75c755df2718" d="m34.696 188.14c0.98112 5.7148-1.1406 13.03-0.67344 12.886 3.6166-1.1138 5.9096-11.06 5.9096-11.06z" fill="#dadbdb"/>
  <path class="uuid-cb8f1dd2-7ec6-4c2f-8428-1ecdb539bcbe" d="m59.647 186.01c0.55618 0.8328 11.083 8.1831 12.753 7.6264 1.6702-0.55618 3.8153-16.164-2.0281-22.284z" fill="#fff"/>
  <path class="uuid-16140c4a-6a69-4dfc-8490-75c755df2718" d="m72.739 194.16c3.4766-8.4711 1.9232-18.313-2.3669-22.805l-5.6293 7.6887c3.601 3.2507 7.389 9.5185 7.9924 15.117" fill="#dadbdb"/>
  <path class="uuid-cb8f1dd2-7ec6-4c2f-8428-1ecdb539bcbe" d="m58.576 186.13c0.55618 2.7796-2.4214 18.192-5.4813 17.635-3.06-0.55618-9.2927-6.3106-12.633-14.657z" fill="#fff"/>
  <path class="uuid-16140c4a-6a69-4dfc-8490-75c755df2718" d="m58.576 186.13-8.736 1.4361c3.8385 10.523 2.5851 16.078 3.2507 16.199 3.0599 0.55618 6.0381-14.856 5.4813-17.635" fill="#dadbdb"/>
  <path class="uuid-166e69af-084f-4a2b-93b8-a573b9d7f3a6" d="m32.594 151.21c-9.1758 5.1232-14.657 13.898-12.991 25.861 1.6701 11.963 19.379 16.565 33.009 13.228 13.629-3.3402 21.968-20.575 19.185-30.031-2.7796-9.4562-21.715-18.823-39.206-9.0551" fill="#3396cd"/>
  <path class="uuid-cb204de3-aa22-43bc-997d-bb69e8c01d1c" d="m71.801 160.27c-1.6273-5.5397-8.8021-11.041-17.978-12.691 10.445 12.244 8.1754 32.511-2.8186 43.072 0.54146-0.10305 1.0785-0.21776 1.6117-0.35018 13.629-3.3402 21.968-20.575 19.185-30.031" fill="#2880ae"/>
  <path class="uuid-166e69af-084f-4a2b-93b8-a573b9d7f3a6" d="m174.04 149.71c-1.1168-6.7077 4.7534-16.238 14.747-18.056 14.439-2.6239 28.061 2.7602 32.542 19.481 3.8775 14.466-1.1021 21.505-9.2108 27.27-8.1092 5.7616-38.074-28.695-38.074-28.695" fill="#3396cd"/>
  <path class="uuid-cb204de3-aa22-43bc-997d-bb69e8c01d1c" d="m221.33 151.14c-2.0437-7.6302-8.2609-13.688-13.968-17.188 7.2605 20.723-9.6819 24.355-9.6819 24.355s10.484 22.91 14.435 20.1c8.109-5.7616 13.088-12.8 9.2108-27.267" fill="#2880ae"/>
  <path class="uuid-166e69af-084f-4a2b-93b8-a573b9d7f3a6" d="m167.42 166.54c-1.3904-4.4497 0-18.208 13.871-20.399 14.311-2.2618 25.608 11.274 28.929 22.529 3.2779 11.114 1.2227 21.081-12.726 24.082-13.945 2.9976-30.074-26.212-30.074-26.212" fill="#3396cd"/>
  <path class="uuid-cb204de3-aa22-43bc-997d-bb69e8c01d1c" d="m210.22 168.67c-1.6544-5.6215-5.3022-11.811-10.32-16.316 8.3701 19.562-9.783 25.161-9.783 25.161s3.0755 16.16 7.3772 15.237c13.949-2.9976 16.004-12.968 12.726-24.082" fill="#2880ae"/>
  <path class="uuid-cb8f1dd2-7ec6-4c2f-8428-1ecdb539bcbe" d="m160.3 176.89c-2.5033 2.2268-9.4601 15.603-6.9568 16.16 2.5031 0.55618 8.5218-1.2963 8.5218-1.2963l-1.5689-14.864z" fill="#fff"/>
  <path class="uuid-16140c4a-6a69-4dfc-8490-75c755df2718" d="m153.35 193.05c2.5031 0.55618 8.5218-1.2963 8.5218-1.2963l-0.61504-5.8474c-2.4487 4.0176-8.3349 7.0464-7.9066 7.1398m17.456 8.9383c-1.3904 1.3904-4.2629 8.7282-2.3164 8.7282s11.994-1.0285 19.228-4.3641z" fill="#dadbdb"/>
  <path class="uuid-cb8f1dd2-7ec6-4c2f-8428-1ecdb539bcbe" d="m162.08 191.41s-7.1593 9.6819-4.9091 13.026c0.87988 1.3036 8.8878 0.51351 14.731-1.4331l-9.8182-11.59z" fill="#fff"/>
  <path class="uuid-16140c4a-6a69-4dfc-8490-75c755df2718" d="m157.28 204.53c1.2301 1.1565 8.9383 0.36195 14.618-1.5301l-4.1577-4.9051a36.489 36.489 0 0 1-10.464 6.4352" fill="#dadbdb"/>
  <path class="uuid-166e69af-084f-4a2b-93b8-a573b9d7f3a6" d="m164.05 168.66c-4.6172 3.6206-9.2032 20.501 3.0715 31.615 11.068 10.024 17.343 8.7943 25.41 4.621 8.0662-4.1734 8.553-14.35 3.7839-24.553-6.7738-14.505-21.976-19.749-32.265-11.683" fill="#3396cd"/>
  <path class="uuid-cb204de3-aa22-43bc-997d-bb69e8c01d1c" d="m196.31 180.34a35.29 35.29 0 0 0-0.74304-1.4871c-8e-3 16.362-15.132 28.462-29.626 20.279 0.37373 0.3855 0.76364 0.76658 1.1756 1.1403 11.068 10.024 17.343 8.7942 25.41 4.621 8.0662-4.1734 8.553-14.35 3.7839-24.553" fill="#2880ae"/>
  <path class="uuid-7a1638db-7f57-483f-8204-a1579f1680ad" d="m91.507 87.652c-8.117 2.1295-9.717 13.921-4.7534 20.454 8.0469 10.585 22.541 15.28 32.787 16.296 10.247 1.0167 49.866 1.0741 39.569-32.289 0 0-59.485-6.5947-67.602-4.4614" fill="#f0e9a5"/>
  <path class="uuid-7b5dc41c-4652-420c-9fd3-717b36ed249e" d="m159.11 92.113s-11.948 0.39727-19.963 8.8683c6.9568 9.3782-3.6283 17.546-16.487 20.419-7.1593 1.6001-12.403 0.30309-18.044-0.60769a57.694 57.694 0 0 0 14.93 3.6088c10.247 1.0167 49.866 1.0741 39.569-32.289" fill="#c9c48b"/>
  <path class="uuid-166e69af-084f-4a2b-93b8-a573b9d7f3a6" d="m88.568 73.824c-4.15 4.6094-5.1388 14.451-3.492 20.15 0.08833-0.81368 1.7634-6.4585 9.861-5.676-2.877 5.0921-1.8687 8.2921 5.3841 8.2571 7.2526-0.0294 16.88-0.79455 23.775 0.26043 6.8984 1.055 16.72 5.7266 20.901 5.75 4.1812 0.0294 8.845-0.73568 6.5326-7.3149 4.1811-0.26043 6.7932 2.0905 8.8565 3.6321 2.7992-2.912 2.2346-13.1-0.15597-18.978 3.3986-5.75 6.151-14.984 4.586-16.491-1.565-1.5065-7.3851-2.8808-14.852-2.1255-2.324-1.9465-17.612-9.5535-21.836-4.5082-2.0399-4.7027-17.351-3.8501-25.452 0.07361-5.2868-2.799-13.096-4.0682-14.404-2.9236-5.1426 4.512 0.29575 19.905 0.29575 19.905" fill="#3396cd"/>
  <path class="uuid-cb204de3-aa22-43bc-997d-bb69e8c01d1c" d="m92.099 70.273c2.1177-3.1767 7.7159-11.192 16.487-15.128-1.2463 0.39727-4.8663 1.1874-5.9136 1.6974-5.2867-2.7991-13.096-4.0682-14.404-2.9236-0.70038 0.61502 1.709 19.531 3.8268 16.354m72.722-6.8634c-1.565-1.5065-7.3851-2.8808-14.852-2.1255-2.324-1.9465-17.612-9.5535-21.836-4.5082-1.0241-2.3592-2.0203-3.1105-7.1359-2.9898 4.6912 1.5143 6.2015 4.5392 6.5052 8.1676 5.75-10.589 24.324 5.127 17.546 6.2016-9.5301 1.5105-15.58 12.403-14.065 3.7839-3.1767 2.4214-8.4711 1.0594-10.889-0.75923-0.45613 4.2355-7.5642 11.648-2.2696 8.7748 5.2944-2.873 11.8-0.15155 13.314 1.5143 1.5105 1.6624-0.53705 9.7131-3.3285 8.3195-0.90637-0.45172-2.7212-0.15155-2.7212-0.15155s1.3625 2.873 0.15156 7.1087c6.8984 1.055 15.592 5.8006 19.773 5.82 4.1811 0.0294 8.8489-0.73569 6.5325-7.3149 4.1811-0.26043 6.7933 2.0905 8.8566 3.6321 2.799-2.912 2.2346-13.1-0.15597-18.978 3.3948-5.75 6.1509-14.984 4.586-16.491" fill="#2880ae"/>
  <path class="uuid-cb8f1dd2-7ec6-4c2f-8428-1ecdb539bcbe" d="m101 69.362s-3.7099 3.8035-4.1967 9.0746c2.3398-0.77837 13.271 0.78277 15.611 0.97698a12.574 12.574 0 0 1 0.95051-1.3007s-6.0965-6.4196-12.368-8.7514" fill="#fff"/>
  <path class="uuid-16140c4a-6a69-4dfc-8490-75c755df2718" d="m113.37 78.114s-6.0964-6.4196-12.368-8.7514c0 0-0.93873 0.96522-1.9309 2.5927 4.4809 1.7012 10.566 4.7417 13.82 6.7816 0.29133-0.40169 0.48261-0.62239 0.48261-0.62239" fill="#dadbdb"/>
  <path class="uuid-cb8f1dd2-7ec6-4c2f-8428-1ecdb539bcbe" d="m148.71 73.364s3.1222 4.4341 4.002 8.8799c-4.6832 0.2928-14.848-0.10294-17.23 0.40463-0.34283-0.95345-0.73569-1.6195-0.73569-1.6195s7.3267-6.8438 13.968-7.6653" fill="#fff"/>
  <path class="uuid-16140c4a-6a69-4dfc-8490-75c755df2718" d="m148.71 73.364c-6.6415 0.82103-13.968 7.6653-13.968 7.6653s0.18245 0.31487 0.41198 0.82103c4.7144-2.5461 10.959-4.9051 15.101-5.9447a29.68 29.68 0 0 0-1.5455-2.5461" fill="#dadbdb"/>
  <path class="uuid-e21800e2-3011-4795-9ba3-263b3a675e0b" d="m232.5 59.486c-1.261 9.2264-10.196 15.627-19.956 14.291-9.756-1.336-16.643-9.9-15.381-19.126 1.261-9.2266 10.196-15.627 19.952-14.291 9.7598 1.3345 16.647 9.9 15.381 19.126m-201.3-31.467c-0.91491 9.8882 6.7933 18.69 17.211 19.66 10.422 0.96964 19.609-6.2639 20.52-16.148 0.9152-9.8882-6.7933-18.69-17.211-19.66-10.422-0.96964-19.609 6.26-20.524 16.148" fill="#0f141b"/>
  <g>
   <path class="uuid-568d769c-d232-4153-aa4a-e67219d75062" d="m112.3 77.323c-2.2268-1.9271-4.5548-5.1388-7.1515-5.6293-0.84898 0.85635-1.7829 2.55-1.7829 3.8619 0 0.8328 0.29575 1.9349 0.66506 2.6123 2.2814 0.38991 4.4808 0.50174 6.7621 1.1477 0.66211-0.5135 1.1874-1.1948 1.5027-1.9933" fill="#b69e81"/>
   <path class="uuid-2503e246-4fc7-4feb-b5e9-a6a83268028f" d="m112.3 77.323c-2.2268-1.9271-4.5548-5.1388-7.1515-5.6293-0.51793 0.52528-1.0668 1.3625-1.4169 2.2346 2.9508 1.3551 5.9563 2.9042 8.148 4.1928 0.16332-0.25308 0.30751-0.51792 0.42081-0.79748" fill="#8d7967"/>
   <path class="uuid-568d769c-d232-4153-aa4a-e67219d75062" d="m146.47 79.219c0-1.744-0.96522-3.2662-2.4058-4.0993-2.6473 0.70038-7.4512 3.9396-7.4512 4.0993 0 1.5495 0.17068 2.367 1.3507 3.2429 2.0049 0.05889 4.9246 0.1177 7.1319 0.07361 0.84898-0.86075 1.3743-2.0243 1.3743-3.3091" fill="#b69e81"/>
   <path class="uuid-2503e246-4fc7-4feb-b5e9-a6a83268028f" d="m144.07 75.116c-2.6473 0.70038-7.4512 3.9398-7.4512 4.0994 0 0.72832 0.0442 1.2889 0.206 1.7752 2.9198-1.4478 6.2132-2.7913 9.1758-3.7997a4.8818 4.8818 0 0 0-1.9271-2.0749" fill="#8d7967"/>
  </g>
  <g fill="#0f141b">
   <path class="uuid-e21800e2-3011-4795-9ba3-263b3a675e0b" d="m21.694 99.603 1.2574 0.43553c0.96934-2.8106 6.9802-10.593 11.539-15.72-0.28809-0.46348-0.68522-0.89607-1.0784-1.3625-5.1076 4.7066-10.686 13.657-11.718 16.651m144.54-42.473c-21.151-12.123-45.603-16.444-65.325-8.8177l-0.1177 1.4833c18.698-6.2639 41.936-3.2117 63.978 8.8605 0.41198-0.57237 0.96522-1.0476 1.4684-1.5261m47.51 53.035c-0.36636 0.31929-1.3581 1.2065-1.7052 1.5494 1.5533 4.224 2.7835 8.553 3.6673 12.968 0.55618 0.55619 1.6195 1.7636 2.1801 2.3242-0.94168-5.3296-2.2346-11.753-4.1422-16.837"/>
   <path class="uuid-e21800e2-3011-4795-9ba3-263b3a675e0b" d="m23.469 66.236c0.81366 4.5782 13.727 24.693 15.521 26.364l1.966-0.25749c-1.6896-1.5728-14.463-22.198-15.218-26.445-0.21026-1.1801 1.1212-3.6556 8.88-8.697-0.45554-0.6268-0.77086-1.4213-1.1874-2.0439-10.215 7.0192-10.145 10.063-9.9622 11.083m69.724-33.889c-2.0866 0.04416-7.1281 0.72834-13.649 2.0439v2.0945c6.2017-1.5495 10.838-2.0751 12.905-2.1179 4.1422-0.08833 9.5651 20.294 9.7986 22.794l1.3272-0.1177c-0.0294-0.24131-4.2512-24.81-10.383-24.69"/>
   <path class="uuid-e21800e2-3011-4795-9ba3-263b3a675e0b" d="m34.607 66.505c-0.50997 3.6984 11.726 21.548 15.144 25.309l0.98434-0.8946c-4.3757-4.8118-14.821-21.003-14.821-24.082 0-0.04416 0-0.08833 0.0079-0.11772 0.22968-0.58413 2.075-1.8725 4.9285-3.5504-0.29192-0.32664-0.5216-0.74746-0.79426-1.1021-3.2545 1.9699-5.3295 3.5622-5.4502 4.4459m51.991-24.95c-1.1948 0.11772-3.4104 0.76365-6.2716 1.783v1.2654c2.7446-0.96081 4.9712-1.5844 6.3961-1.7206 1.386-0.13243 4.4731 5.0764 6.2445 10.293 0.54146 0.26044 1.0815 0.50174 1.6234 0.69302-1.1712-3.7529-4.8546-12.613-7.9924-12.314m84.081 8.9851c-3.422-0.85635-6.9918 8.261-8.623 11.71 0.42082 0.08833 0.84016 0.21041 1.261 0.36638 1.678-3.5504 5.9136-10.542 8.0002-10.021 1.7792 0.44436 5.9486 2.2658 12.197 5.8084 0.2413-0.54441 0.93432-1.055 0.95344-1.709-6.2366-3.2429-12.022-5.715-13.789-6.1549m48.581 34.099c-0.5444 0.24572-1.1212 0.50615-1.6974 0.8019 5.2828 5.7656 8.2609 10.359 7.498 12.142-1.3198 3.0833-14.782 14.891-20.228 19.317 0.42081 0.26043 0.79748 0.54146 1.1712 0.82102 5.9018-4.6406 19.679-15.487 21.131-18.877 1.0506-2.4487-2.8458-8.3349-7.8717-14.21"/>
   <path class="uuid-e21800e2-3011-4795-9ba3-263b3a675e0b" d="m216.38 95.695c0.0883-0.93432-2.0282-3.2741-5.3489-6.3262a14.108 14.108 0 0 0-1.3551 0.64593c3.1301 2.7719 5.2012 4.8469 5.3724 5.5865-0.26926 2.184-10.441 12.36-16.522 17.468 0.42817 0.26926 0.91813 0.35754 1.3698 0.55324 6.0225-5.1584 16.23-15.058 16.487-17.931m-42.465-34.687a2.2229 2.2229 0 0 0-1.7478 0.14714c-4.4147 2.0983-10.161 17.857-11.27 20.995l1.2536 0.44436c2.2308-6.3184 7.3111-18.679 10.585-20.236 0.28398-0.13243 0.52087-0.16775 0.72833-0.08833 0.84457 0.30015 3.3402 1.9621 6.7077 4.3913a16.662 16.662 0 0 0 0.37373-1.3154c-3.4298-2.437-5.9174-4.0759-6.6337-4.3329m-10.161 23.821c0.31929 0.53706 0.63858 0.96965 0.95787 1.3434 0.99318-3.496 3.57-8.1558 10.204-8.8605 0.11771-0.48261 0.40462-0.91813 0.63417-1.4052-7.4318 0.4473-10.523 5.3296-11.8 8.9229m38.809 12.411a8.771 8.771 0 0 0-0.42817-1.8725c-0.36931 0.31194-0.75923 0.55618-1.1609 0.7401 0.13243 0.46348 0.22513 0.88724 0.26044 1.261 0.29133 3.0561 0.0442 9.6781-6.7037 12.991 0.38108 0.32665 0.65329 0.69302 0.91519 1.0241 7.385-3.8619 7.3616-11.531 7.1125-14.139m-33.309-6.147c-0.0736-2.0711 0.6268-6.9024 5.8396-8.7904v-1.4522c-3.2818 0.58413-8.1092 3.7567-7.1281 8.767 0.36638 0.47526 0.77394 1.0079 1.2889 1.4793m27.886 6.7661a11.492 11.492 0 0 1-1.3272 0.20599 7.0308 7.0308 0 0 1-1.9192 5.3257c-1.6428 1.7558-4.2045 2.8342-6.805 2.947 0.37815 0.43552 0.74746 0.85193 1.1447 1.2374 2.5537-0.35018 5.2632-0.92696 6.9022-2.6785 1.6702-1.7829 2.1724-4.5858 2.0011-7.0307"/>
   <path class="uuid-e21800e2-3011-4795-9ba3-263b3a675e0b" d="m210.43 30.666c-8.5062 0.84164-15.872 5.1076-20.275 11.917-2.5227 3.5504-13.707 29.968-15.436 35.146-1.678 5.0336 0.2369 14.494 6.8634 18.359 6.7544 3.9398 13.847 3.8073 18.975 0.95787 4.8663-2.7057 23.339-13.665 31.265-19.866 6.3494-4.9675 9.1564-11.87 9.5223-19.045 0.26926-5.275-1.7948-13.665-8.9695-20.29-5.3334-4.9247-14.136-7.9496-21.945-7.1749m-28.123 63.83c-6.4196-3.4764-7.8133-11.874-6.3222-16.343 1.7128-5.1388 13.322-30.471 15.806-33.97 4.0758-5.7344 9.2536-10.34 18.363-11.446 7.4044-0.8946 15.868 1.4449 20.863 6.1549 7.3188 6.8984 8.553 14.299 8.2999 19.294-0.34725 6.8011-3.6906 13.587-8.5218 17.293-7.9457 6.0927-26.04 17.717-30.883 20.407-4.7184 2.6199-11.138 2.1178-17.604-1.386"/>
   <path class="uuid-e21800e2-3011-4795-9ba3-263b3a675e0b" d="m203.08 43.162a16.974 16.974 0 0 0-6.6571 11.259 16.977 16.977 0 0 0 3.387 12.633c3.0171 3.9786 7.4784 6.5481 12.563 7.2449 5.0842 0.69743 10.071-0.58413 14.05-3.601a16.974 16.974 0 0 0 6.6571-11.259c1.3081-9.5767-5.8474-18.492-15.95-19.878-5.0843-0.69743-10.071 0.58414-14.046 3.601m9.4756 29.817c-4.73-0.64594-8.88-3.0366-11.683-6.7311-2.5811-3.3986-3.6905-7.5368-3.1261-11.648 0.56501-4.111 2.7446-7.7977 6.1433-10.379 3.6905-2.803 8.3309-3.9904 13.061-3.3441 9.3783 1.2845 16.024 9.5263 14.813 18.379a15.638 15.638 0 0 1-6.1432 10.375c-3.6906 2.803-8.3311 3.9904-13.061 3.3441m-156.8 18.122c0.54146-0.14861 1.0741-0.33842 1.6388-0.49439-7.0385-4.5548-6.5363-11.406-5.4345-16.39a14.494 14.494 0 0 0-1.0123-1.4361c-0.10305 0.38109-5.9873 11.804 4.808 18.321m30.833-34.92a31.35 31.35 0 0 0-4.59-1.0976c0.10294 0.45171 0.10294 0.90784 0.05889 1.3625 1.5299 0.26044 3.0481 0.63858 4.5314 1.1403v-1.4052zm-0.96964 15.708a11.107 11.107 0 0 0-0.78277-6.1471 11.231 11.231 0 0 0-3.0092-3.9982 8.6814 8.6814 0 0 1-0.26927 1.5611c0.77101 0.77101 1.5261 1.7636 2.0595 2.9742 0.90784 2.0595 0.43994 5.1272-0.18246 7.5524 0.65771-0.17508 1.752-1.4478 2.184-1.9425m-19.73 12.75c-3.2819-0.42817-6.9218-3.0522-8.8528-6.3884-0.31193-0.53705-0.61945-1.1683-0.86075-1.857-0.45172-0.20599-1.0005-0.19863-1.4684-0.30016 0.25749 0.9461 0.8019 2.3552 1.339 3.2818 2.1217 3.6673 5.6293 6.5675 10.663 7.2527 1.0241 0.14714 3.1689-1.5183 3.6634-2.0127a17.347 17.347 0 0 1-4.4887 0.02944"/>
   <path class="uuid-e21800e2-3011-4795-9ba3-263b3a675e0b" d="m34.276 5.1858c-9.1019 5.3178-12.388 14.186-13.396 19.823-1.7635 9.822 0.29972 17.055 5.3217 23.307 6.4546 8.0352 20.322 21.24 25.258 25.721 4.4964 4.0838 11.671 5.3957 19.952 3.1145 7.607-2.0945 11.095-9.8144 11.313-16.214 0.28397-8.2883-3.5699-35.415-5.3178-40.522-2.3864-6.9762-10.655-15.486-18.905-17.986-7.5602-2.2892-17.16-1.3743-24.226 2.7524m18.079 67.867c-4.909-4.4614-18.013-17.46-24.506-25.383-3.6088-4.4068-6.7271-13.431-5.0376-22.836 0.96154-5.3607 3.9281-12.808 12.59-17.869 6.8439-3.9942 14.318-4.9401 21.622-2.7251 7.8951 2.3942 16.343 9.39 18.912 17.464 2.3474 7.3812 5.4697 28.497 5.4697 38.229 0 0.34283-0.0045 0.66212-0.01472 0.96081-0.20306 5.9096-3.5194 12.734-10.476 14.653-7.8249 2.1567-14.416 1.2683-18.562-2.4955"/>
   <path class="uuid-e21800e2-3011-4795-9ba3-263b3a675e0b" d="m37.001 15.526a18.091 18.091 0 0 0-6.5558 12.29c-0.94594 10.239 7.0464 19.379 17.814 20.384 5.4035 0.50175 10.624-1.0829 14.692-4.4614a18.064 18.064 0 0 0 6.5519-12.29c0.94609-10.239-7.0424-19.383-17.81-20.384-5.4036-0.50174-10.624 1.0785-14.692 4.4575m0.84868 1.0241c3.7957-3.1495 8.6658-4.6288 13.719-4.1578 10.036 0.93433 17.487 9.4289 16.608 18.936a16.748 16.748 0 0 1-6.0769 11.387c-3.7957 3.1495-8.666 4.6288-13.719 4.1578-10.036-0.93433-17.487-9.425-16.612-18.936a16.756 16.756 0 0 1 6.0809-11.391m49.095 53.502a89.489 89.489 0 0 0-10.577 8.9345c-10.363 10.126-17.433 10.643-26.391 11.301l-4.512 0.36931c-18.215 1.7752-31.393 11.083-36.045 23.794-4.5315 12.388 0.99273 22.914 6.3223 30.307a31.728 31.728 0 0 1-1.0161-4.477c-4.0137-7.1397-6.6454-16.471-3.5621-24.584 3.7139-9.7714 16.861-21.774 34.453-23.491l4.4731-0.36638c9.2731-0.67683 17.363-1.4169 28.131-11.94a92.358 92.358 0 0 1 9.4055-8.1092c-0.25308-0.58855-0.53264-1.1521-0.68125-1.7324m104.28 38.136c-10.655-5.3296-20.131-15.798-28.174-25.192-0.77837-0.91078-1.5884-1.8531-2.4292-2.8147 0.29575 1.1374 0.56795 2.1996 0.77394 3.2741l0.47525 0.55324c8.1442 9.5107 17.744 20.115 28.66 25.573 20.325 10.165 38.288 23.346 30.809 41.85l0.97258 1.7986c11.099-21.879-10.087-34.539-31.09-45.038m-52.746 161.35c-7.1632-4.6054-7.2799-14.579-6.1743-16.343l-1.4715 0.57678c-1.5183 2.4331-1.5105 12.115 6.0069 16.95 1.2065 0.77394 2.4877 1.4793 3.8268 2.1178a10.663 10.663 0 0 1-0.68861-2.3942 36.485 36.485 0 0 1-1.4987-0.90637m28.762 7.3073c-0.31193-0.41199-1.1609-1.3787-1.4169-1.7948a33.188 33.188 0 0 1-3.9358 0.26043c-0.16038 0.47084-0.56795 1.464-0.91813 1.8764 2.106 8e-3 4.2044-0.10294 6.2716-0.34283m27.076-22.307-1.6663 0.35019c1.2227 3.8657-2.0477 8.8993-6.8322 12.855 0.56795 0.30016 1.2227 0.55324 1.8686 0.87988 5.131-4.1228 8.6932-9.4212 6.6299-14.089m-177.23-89.66a9.4211 9.4211 0 0 1-1.3703-1.5417c-1.3353 6.992-4.0916 28.252 5.8434 44.505 0.38932-0.38992 1.129-1.1565 1.4832-1.5533-7.9612-15.428-6.6181-35.734-5.9563-41.406"/>
   <path class="uuid-e21800e2-3011-4795-9ba3-263b3a675e0b" d="m197.02 201c-0.41198 0.29135-0.68566 0.79014-0.99611 1.2301 3.8852 4.6872 11.118 14.871 8.7048 31.249-2.5577 17.32-9.2616 20.174-13.271 21.879l-0.33842 0.14715c-6.0925 2.6123-27.924 7.7433-45.961-7.8911l-2.0438 1.0667c20.364 19.025 42.305 10.959 48.616 8.2531l0.33841-0.14714c4.3057-1.8336 12.411-4.364 15.093-22.544 2.5577-17.336-6.1743-28.505-10.137-33.242m-46.265 64.912c-6.2795-0.63416-10.889 2.834-11.395 4.7261-0.73128 2.7251 6.0693 15.685 9.6313 15.451 2.1801-0.14714 12.084-5.9602 13.548-9.8492 0.84898-2.2658-2.5889-9.3978-11.78-10.328m0.63122 2.0633c6.517 1.386 10.266 5.6682 9.6819 7.2253-1.3036 3.461-10.41 8.6736-11.901 8.771-0.17068 0-0.94168-0.35754-2.4058-2.0555-2.9432-3.4064-6.3924-10.258-5.4853-11.321 1.639-1.9153 6.0265-3.492 10.11-2.6199m27.434-132.07c0.50615-5.5243 0.47084-15.65-1.8491-19.78-1.7246-3.0599-5.423-5.3334-8.9267-5.641-2.4604-0.21776-4.8157 1.0623-6.2717 2.834-6.6375 8.082-21.365 13.68-36.645 13.925-15.634 0.25307-30.891-7.9262-35.586-12.36-1.7868-1.6858-3.527-3.5154-5.2126-5.2868-4.2434-4.4614-7.9107-8.3115-11.095-8.7358a7.4279 7.4279 0 0 0-5.3217 1.4831c-3.2935 2.5422-6.1665 7.681-6.4002 9.5419l1.1874 1.1683c0.15596-1.2536 3.2935-6.7933 6.552-9.3082 1.4987-1.1565 2.8184-1.7012 3.8034-1.5688 2.7213 0.36195 6.404 4.2355 10.305 8.3349 1.6972 1.783 3.453 3.6244 5.2633 5.3373 4.8313 4.5626 20.508 12.979 36.524 12.722 15.65-0.25308 30.782-6.0419 37.653-14.412 1.4717-1.7907 3.4454-2.0205 4.8429-1.8959 3.0444 0.26926 6.4702 2.476 7.9691 5.1388 2.3358 4.1538 2.2424 13.886 1.635 19.049a5.384 5.384 0 0 0-0.0294 0.4988c-0.20599 1.5495 1.0903-0.37815 1.6-1.0432"/>
   <path class="uuid-e21800e2-3011-4795-9ba3-263b3a675e0b" d="m179.57 209.33c0.16332 3.6478-6.6609 15.724-12.446 20.855-5.4969 6.4857-10.963 11.212-17.09 14.392-6.1275 3.1805-34.344 16.043-63.086 6.1977 0.05889 0.4988 0.3855 1.8841 0.36932 2.3825 27.586 11.021 70.37-2.908 81.524-22.33 5.6761-4.8079 12.859-16.798 12.142-21.929-0.48261 0.14714-0.94609 0.30016-1.414 0.43258m-22.669-87.562c-9.3394 7.0114-27.426 11.154-41.208 8.7944-20.216-3.4648-31.311-15.117-37.342-21.672l-1.8998-2.3436c-3.6633-3.858-6.9802-2.8262-9.4911-1.8336-0.28102 0.41347-0.565 0.84899-0.84457 1.2418 2.2736-1.2698 6.1938-2.328 10.153 1.8413l1.8881 2.2892c6.0925 6.6221 17.051 18.282 37.517 21.863 15 2.6239 32.958-2.437 41.488-8.7398 9.9894-7.3773 12.722-11.161 17.059-8.2688l-0.3031-0.97258c-4.8429-3.2273-9.0435 1.8102-17.02 7.8015"/>
   <path class="uuid-e21800e2-3011-4795-9ba3-263b3a675e0b" d="m87.342 236.08-0.29575 1.2418c4.5898 4.0136 46.097 13.326 75.053-1.7168 1.1521-0.565 2.2852-1.1683 3.3948-1.8064l-0.55324-0.9608c-28.746 16.541-72.928 7.3305-77.599 3.2428"/>
   <path class="uuid-e21800e2-3011-4795-9ba3-263b3a675e0b" d="m88.054 233.45-0.73127 0.8328c5.0025 4.3757 50.57 14.537 79.55-2.1412l1.5728-2.8886c-25.721 18.11-76.583 7.529-80.395 4.1967m-17.106-39.981c-1.2183-0.35754-2.3008-1.0623-3.5542-1.6428 15.276 14.704 61.163 31.28 101.33 13.368 0.21041-0.58414 0.6577-1.0388 0.97699-1.565-38.128 17.032-81.352 3.7529-98.758-10.161"/>
   <path class="uuid-e21800e2-3011-4795-9ba3-263b3a675e0b" d="m108.34 205.63c-17.262-3.7217-30.323-10.293-35.146-14.241l-0.70038 0.86075c4.9053 4.0136 18.542 11.352 35.995 15.113 12.999 2.799 31.744 4.9635 51.773-2.1334a11.835 11.835 0 0 1-1.7091-0.63122c-19.298 5.9058-37.653 3.7413-50.212 1.0358m-43.1-53.852c6.6531 6.0887 20.45 14.735 37.98 18.546 20.948 4.5508 39.896 2.0983 63.651-8.0041v-1.3125c-20.909 8.7904-42.266 12.247-62.993 7.7431-17.312-3.7605-31.343-11.8-37.887-17.787l-0.75187 0.81808z"/>
   <path class="uuid-e21800e2-3011-4795-9ba3-263b3a675e0b" d="m66.596 147.9c4.7417 4.8817 17.554 13.789 35.968 18.099 15.704 3.6749 39.631 5.1192 65.095-8.2688l0.13243-1.5728c-44.229 24.277-89.878 1.7986-100.4-9.0318l-0.79455 0.77395zm-52.423 87.363-1.5222-0.30311c-5.2244 19.57-2.9976 34.586 4.3368 42.917a5.1777 5.1777 0 0 1 0.86031-1.4793c-6.077-8.5101-7.3578-22.665-3.675-41.134m48.889 48.059c-1.1918 0.22659-2.1489 0.96228-3.3792 1.1256a7.0347 7.0347 0 0 1-0.66947 1.674 66.014 66.014 0 0 0 5.82-0.93875c-0.54441-0.39726-1.3242-1.3669-1.7712-1.8608m24.106-53.669a13.018 13.018 0 0 1-0.94168 3.5192c1.5611 11.632-1.2065 28.24-5.4191 38.144 0.56502 0.17951 1.3463 1.0432 1.8142 1.5105 5.236-10.916 7.9612-29.883 4.5508-43.174"/>
   <path class="uuid-e21800e2-3011-4795-9ba3-263b3a675e0b" d="m62.578 278.69c-1.3007 2.5889-1.3272 4.765-0.50615 6.0303 3.0444 4.73 19.259 7.3149 21.926 5.6176 3.5348-2.2502 2.4487-18.694-2.3552-19.846-9.4445-2.2698-16.464 3.017-19.064 8.1986m1.1609 4.0916c0-0.99318 0.30751-2.4098 1.105-4.006 3.6517-7.2761 14.213-7.9846 16.565-6.3846 2.1879 1.4871 4.2317 14.05 1.0785 16.055-2.7835 1.7714-13.524-0.24572-18.363-4.2783-0.23688-0.19863-0.38549-0.68566-0.38549-1.386"/>
   <path class="uuid-e21800e2-3011-4795-9ba3-263b3a675e0b" d="m16.247 278c-1.0628 5.8046 4.586 17.137 10.32 19.578 8.3077 3.5348 34.733-7.6225 35.049-13.31 0.31193-5.6566-12.477-11.364-23.763-12.232-10.13-0.77836-20.368-0.79454-21.606 5.9641m11.356 17.756c-3.2546-0.51057-10.297-11.913-9.2498-17.628 0.70847-3.8774 6.2133-5.1114 19.313-4.1032 11.266 0.86369 21.813 6.1121 21.521 10.247-0.21777 3.0715-19.387 13.404-31.588 11.484m9.3238-97.399a11.204 11.204 0 0 1-1.2886 2.0983 38.591 38.591 0 0 1 10.056-1.3934l0.02944-1.5533a46.833 46.833 0 0 0-8.7905 0.84899"/>
   <path class="uuid-e21800e2-3011-4795-9ba3-263b3a675e0b" d="m87.688 228.96c-0.65329-14.758-9.9271-30.163-30.86-31.997-0.01158 0.51792-0.04416 1.0358-0.10294 1.5494 19.045 1.8026 27.901 16.413 28.524 30.467 0.48261 10.904-9.5145 26.441-24.047 31.121-6.3456 2.0439-21.306-0.0589-28.329-1.4523-17.001-3.3792-19.609-19.504-18.799-32.437 0.38152-6.1159 4.839-19.52 18.904-24.876a25.947 25.947 0 0 1-1.4365-1.4989c-15.642 5.6644-19.773 20.715-20.177 27.177-1.2146 19.434 6.221 30.533 20.551 33.379 7.1592 1.4243 23.705 3.9902 30.354 1.8491 15.179-4.8895 25.931-21.816 25.425-33.281m-23.576-116.25c-3.095-4.9557-8.6114-7.677-15.802-7.6069-12.999 0.11772-25.129 6.4-31.311 16.662-4.5081 7.4864-4.6638 15.95-1.6935 23.144a7.9028 7.9028 0 0 1 1.0628-1.5494c-2.328-6.5325-1.4053-14.136 2.6472-20.867 5.9018-9.7948 16.242-15.307 28.695-15.428 6.6103-0.0589 11.909 2.0983 14.696 6.5635 4.0488 6.478 2.943 15.848 1.1374 19.457l1.389 0.69743c2.5929-3.8813 3.7491-13.766-0.81808-21.073"/>
   <path class="uuid-e21800e2-3011-4795-9ba3-263b3a675e0b" d="m67.001 137.12c-2.4955-5.7578-8.1754-10.009-15.148-11.259-14.12-2.5227-31.506 8.2649-35.905 16.506-3.3246 6.2327-4.1383 13.407-2.2307 18.764 1.0005 2.8146 3.1261 4.8429 5.5086 6.6765a3.422 3.422 0 0 1 0.65005-1.4478 13.501 13.501 0 0 1-4.294-6.0421c-2.075-5.8316-0.2413-12.742 2.1684-17.258 4.185-7.8483 21.345-18.208 33.788-15.673 6.4312 1.308 11.231 4.9403 13.52 10.219 1.9231 4.4381 1.7714 9.5729-0.3855 13.081l1.3242 0.81367a15.934 15.934 0 0 0 1.0005-14.381m-28.014 53.895c-0.86811 3.1533-2.8224 8.6582-5.1505 9.3744-2.1879 0.67389-5.6877-7.9924-7.3656-12.158l-0.39712-0.98435a6.2366 6.2366 0 0 1-2.0477-1.4478c0.35431 0.81368 0.75908 1.818 1.2108 2.9314 3.0833 7.642 5.859 14.965 8.9617 14.011 3.2468-1.0005 5.6916-8.9189 6.4313-11.679-0.44377-0.0442-1.1952 0.0442-1.639-0.0442m32.476-20.166c-0.25308 0.47526-0.44436 1.713-0.60327 2.1879 2.2814 3.4102 2.6706 8.4828 2.6706 11.535 0 0.7975-0.02944 1.4567-0.04417 1.9115-0.22512 3.9164-0.98434 6.1782-1.3434 6.5207-1.4596 0.0118-8.9033-5.31-11.173-7.1943-0.43553 0.21483-1.0741 0.74747-1.4871 0.93433 2.0049 1.717 11.029 9.2772 13.135 8.5725 0.42081-0.14714 0.97405-0.57677 1.5067-2.7173 1.0197-4.1032 2.8612-14.533-2.6513-21.75m-13.528 17.262c-0.30311 4.1306-2.2035 12.687-4.1694 14.688-0.13243 0.13242-0.37374 0.34577-0.5606 0.31193-2.5227-0.45613-7.4123-4.8273-10.76-11.262a22.167 22.167 0 0 1-1.6857-0.4164c3.3909 7.0464 8.9034 13.174 12.209 13.777 0.41199 0.0736 1.055 0.0147 1.748-0.68861 2.4721-2.5149 4.8663-13.057 5.0609-17.266-0.44729 0.11772-1.3934 0.66949-1.8414 0.85635"/>
   <path class="uuid-e21800e2-3011-4795-9ba3-263b3a675e0b" d="m31.959 150.25c-10.227 5.711-14.856 15.171-13.256 26.64 0.56059 4.006 3.239 8.2805 7.0892 10.893 6.7544 4.5822 17.48 5.6099 27.01 3.2741 6.439-1.5767 12.388-6.4002 16.32-13.229 3.5348-6.1392 4.8467-12.952 3.4296-17.775-1.3198-4.4926-6.2716-9.4912-12.504-12.037-9.0629-3.7021-19.302-2.6744-28.084 2.2308m-5.5125 35.761c-3.5271-2.3902-5.567-5.4307-6.0731-9.0434-1.5066-10.792 2.9704-19.699 12.598-25.075 8.37-4.6716 18.114-5.3334 26.741-1.8104 5.8046 2.371 10.153 6.3612 11.344 10.41 1.3036 4.4303-0.33547 11.142-3.6634 16.923-3.7217 6.4624-10.246 10.597-16.273 12.072-9.1253 2.2384-18.258 0.87548-24.674-3.4766m146.83-36.162s1.4243-1.1756 1.4287-1.6702c0.14861-20.076 38.097-25.487 45.973 3.9125 4.041 15.081-3.7413 22.934-8.9189 25.635l0.72098 1.3787c7.4862-3.9046 14.058-13.773 10.297-27.804-8.6542-32.304-53.14-23.311-49.5-1.4522"/>
   <path class="uuid-e21800e2-3011-4795-9ba3-263b3a675e0b" d="m211.49 168.36c-3.2506-11.025-15.167-25.375-30.319-22.981-5.3334 0.84162-10.258 3.4414-12.859 7.6264-3.2273 5.1932-2.4292 11.227-1.6351 13.777l1.4833-0.46348c-0.76659-2.4566-0.5915-7.9341 2.2034-12.434 2.3864-3.8425 6.1043-6.1861 11.048-6.9686 14.221-2.2502 24.97 11.5 28.061 21.98 1.8842 6.3884 1.7402 11.57-0.42817 15.401-1.7907 3.1689-5.0454 5.5515-9.6858 7.097v1.6272c5.4347-0.65034 9.1564-3.7139 11.208-7.3422 2.3824-4.2123 2.9274-10.515 0.91814-17.324m-58.033 24.148c-1.105-0.88724 2.9548-11.414 7.2138-15.202l-0.6268-1.9894c-2.2385 1.9894-9.5457 14.735-8.767 17.741 0.1751 0.67389 0.63858 0.87253 0.89902 0.92991 2.6161 0.57973 9.604-1.6234 9.857-1.7012l-0.32665-1.0623c-0.0589 0.0147-7.0152 2.2736-8.2532 1.2801m15.023 17.651c-0.70479-0.64593 0.58413-4.3057 2.0321-6.8128-0.32665-0.19128-0.65771-0.36637-0.93433-0.56059-1.2654 2.1918-3.0755 7.2643-2.0477 8.3661 1.0903 1.1683 8.7164-0.21482 16.931-2.6279-0.42818-0.21777-2.8342-0.14861-3.348-0.43258-5.606 1.5143-11.952 2.69-12.629 2.0671"/>
   <path class="uuid-e21800e2-3011-4795-9ba3-263b3a675e0b" d="m169.78 203.06c-5.8628 1.6117-11.624 1.7714-12.154 1.0623-1.4522-2.1566 1.8842-7.9806 4.041-11.165-0.22219-0.33547-0.43994-0.66212-0.65771-1.0005-1.8026 2.5927-7.2216 10.348-5.1584 13.411 1.1256 1.674 9.6469 0.0883 14.91-1.4331a2.0828 2.0828 0 0 1-0.9814-0.87252"/>
   <path class="uuid-e21800e2-3011-4795-9ba3-263b3a675e0b" d="m158.48 181.52c-4e-3 0.31487-0.0147 0.63416-0.0147 0.9505 0 7.1164 2.7446 14.19 8.0158 18.963 10.893 9.865 17.931 9.7871 26.64 4.8547 6.9568-3.9359 9.5807-13.781 3.9009-26.27-3.6556-8.043-10.149-13.435-17.472-15.366-10.519-2.7758-20.898 1.7012-21.069 16.868m9.3122 17.943c-6.9608-6.3028-7.8795-13.921-7.6148-17.978a15.864 15.864 0 0 1 19.01-15.323c6.875 1.744 12.89 6.9374 16.425 14.513 4.9713 10.644 3.6205 19.882-3.4414 23.533-7.2877 3.7685-13.166 5.4113-24.382-4.7456m-1.9777-134.29c0-0.99612-0.18245-1.7558-0.60768-2.1606-1.7246-1.6624-7.5836-3.0094-15.078-2.293-2.7447-2.1179-17.631-9.5847-21.867-4.7962-0.56501-0.79012-1.3816-1.748-2.6706-2.2268-5.3334-1.9815-16.211-0.60031-22.899 2.5383-5.3841-3.4688-13.77-4.5704-15.405-3.1339-1.7946 1.5727-2.3902 4.8701-2.3902 7.8483 0 5.4503 2.6121 11.48 3.056 12.777-2.8342 3.3519-4.59 9.9934-4.59 15.12 0 1.5299 0.68125 4.5198 1.0241 5.2868 0.25748 0.17068 0.68124-1.1094 0.76658-1.5339-0.17068-2.6433-0.42816-3.021 0.08833-6.8244 0.59591-4.4381 3.6673-10.663 4.5238-12.03 0.85192-1.3625 0.97698-2.0827-0.83722-0.78572-0.95786-2.0283-2.1489-6.3145-2.1489-12.096 0-2.6629 0.35461-5.1972 1.8687-6.5247 0.96081-0.84162 9.8182 0.55324 13.314 2.6861-1.4523 1.1094-1.0785 1.6039 0.76658 0.68125 4.2667-2.1333 17.301-4.5392 22.377-2.6551 1.3272 0.49439 2.6201 1.1212 2.2775 3.422-0.34283 2.3048-0.42817 4.3525 0 4.6056 0.42817 0.25749 0.77394-3.2391 1.3625-5.2906 1.4522-5.0337 19.013 2.1918 20.006 3.2623-2.4214 0.71215-0.1177 1.4169 1.2698 1.2683 5.6332-0.5959 13.116 0.23395 14.416 1.4871 0.21041 0.20304 0.30752 0.64593 0.30752 1.2727 0 2.877-4.4497 13.587-5.1232 14.342-0.67389 0.75481-0.91518 1.9853 0.43554 1.3904 1.9855 7.3423 0.13242 15.759-0.63417 17.378-0.76659 1.6195 0.88724 2.4214 1.3978 1.9115 0.5135-0.51056 4.5626-9.3705 0.26926-20.68 2.4799-4.2863 4.7222-10.601 4.7222-14.256"/>
   <path class="uuid-e21800e2-3011-4795-9ba3-263b3a675e0b" d="m98.265 60.288c-2.7719-1.386-6.0693-2.7678-7.1242-1.8531-1.055 0.9152 1.1712 9.756 1.1712 9.756z"/>
   <path class="uuid-e21800e2-3011-4795-9ba3-263b3a675e0b" d="m90.884 58.139c-1.1168 0.96964 0.36196 7.4201 1.0476 10.149 0 0 0.1177 0.93433 0.97698-0.26043 0.85193-1.1948 4.9479-6.7389 5.6293-7.1671 0.68125-0.42376-0.10294-0.92256-0.10294-0.92256-4.1656-2.0827-6.5637-2.6549-7.5564-1.7986m0.35018 1.4795c0-0.46348 0.04417-0.77837 0.16332-0.88724 0.38109-0.33107 1.744-0.4988 6.2638 1.709l-5.1582 6.8478c-0.71656-2.9937-1.2698-6.147-1.2698-7.6691m61.292 5.9407c1.414-0.39285 7.6966-1.1874 7.7082 0 0.0116 1.1918-1.9505 7.3189-1.9505 7.3189z"/>
   <path class="uuid-e21800e2-3011-4795-9ba3-263b3a675e0b" d="m153.03 64.983c-1.1138 0.16039-1.0741 0.67389-0.43554 1.2698 0.63417 0.59591 4.4419 6.0691 4.8819 6.5869 0.43554 0.51793 0.68567 0.90784 1.1756 0.15597 0.48997-0.75188 1.9855-6.2248 1.9699-7.4434a0.73189 0.73189 0 0 0-0.31929-0.5959c-1.2463-0.93874-6.1587-0.13243-7.2683 0.02944m6.805 0.60768c-0.0116 0.79749-0.95344 4.0564-1.709 6.4585l-4.9091-6.2405c2.0009-0.40905 6.1587-0.74745 6.6181-0.21777m-39.818 4.0604c-0.15595 1.2963-1.8374 6.1159-2.5343 7.1087-0.69301 0.99318-0.57972 1.6428 0.59885 0.93433 1.18-0.70921 2.4138-4.8002 2.4954-7.1126 0.0589-1.6078-0.40904-2.2268-0.56501-0.92991m10.34 2.4721c0.13243 2.328 0.34283 5.8862 1.7052 7.0813 1.3669 1.1948 1.3669 0.42817 0.59591-1.2801-0.76659-1.7052-1.18-3.6867-1.4715-6.2678-0.29134-2.5811-0.96965-1.8608-0.83281 0.4679m-13.042 7.8833c-0.59886 0.59591-0.34725 0.73127 0.84897 0.22217 1.1918-0.51057 3.6088-1.0079 5.8862-0.85192 2.5344 0.17068 5.7578 1.4169 6.6103 2.0983 0.8534 0.68125 1.414 0.38109 0.17215-0.81808-1.8842-1.8141-4.1656-2.655-7.027-2.8496-2.6083-0.17509-5.8901 1.6039-6.4896 2.1996m-8.3661 5.8512c1.3625 0.59591 3.4104 1.6194 4.6328 3.562 0.49437 0.78719 1.5688 1.258 0.98434-0.51057-0.58413-1.7712-3.3986-5.096-5.4464-5.096-2.0477 0-1.5377 1.4478-0.17068 2.0477m6.6455 4.3019c-1.3551 0.79454-1.18 1.5844 0.25308 0.92991 4.3447-1.9737 10.675-1.9075 15.027 1.4214 1.3978 1.0667 1.4052 0.17215 0.2104-1.0241-2.9898-2.9898-9.7402-4.6988-15.486-1.3272m16.728 0.77394c-0.57678 0.85194-0.24131 1.9153 0.79012 0.78278 1.6818-1.853 5.4345-2.4487 6.3728-2.4487 0.93874 0 0.37815-1.7674-0.10293-1.8764-2.2814-0.51351-5.8668 1.7908-7.0542 3.5465m-35.75-13.19c-2.3008 0.51057-2.4448 1.3272 0.36196 1.1065 3.2195-0.25308 13.038 0.91813 15.167 1.0903 2.1335 0.17068 1.0079-0.62238 1.0079-0.62238s0.37815-0.65329 0.38551-0.68125c0 0 1.1565 0.82986-0.0883-0.99612-1.5845-2.3396-7.1398-7.2371-12.493-9.1096-3.4454-1.2036-1.853 0.47819-0.63857 1.1021-1.2139 1.3036-3.2195 2.7485-3.7139 8.113m4.5354-7.8521c5.5125 2.1567 10.928 7.4862 11.768 8.3583a5.0376 5.0376 0 0 1-0.41198 0.94609 112.86 112.86 0 0 1-2.5773-0.3546c-0.74305-0.11772-8.4439-1.3507-12.438-1.0976 0.57972-4.0642 2.943-7.0346 3.6633-7.856m47.545 3.0287c-5.5009 0.90784-12.251 5.7384-14.213 7.7821-1.0167 1.055-0.2104 1.0167 0.20599 0.80926a3.3091 3.3091 0 0 0 0.48703 0.92696s-1.2536 0.85634 0.43994 0.64152c1.6934-0.21335 15.066-0.41199 17.164-0.39728 2.1022 0.01472 1.7518-0.75481 0.15154-1.0506 0.11772-3.5854-2.1022-6.8712-3.3402-7.7199 1.9505-0.27662 2.951-1.6234-0.89606-0.98877m-0.11772 1.2463c1.2418 1.3625 3.0833 4.6094 3.4376 7.4941-1.9933 0.10305-4.6834 0.11772-7.4046 0.11772-3.7763 0-7.2021 0.14714-8.8021 0.38549a10.76 10.76 0 0 0-0.46789-1.0432c1.2772-1.1374 7.5406-6.1159 13.236-6.9568"/>
   <path class="uuid-e21800e2-3011-4795-9ba3-263b3a675e0b" d="m103.75 75.556c0-1.4987 0.74745-2.8224 1.8764-3.601-0.21041-0.16774-0.57237-0.37814-0.77394-0.54882a5.1544 5.1544 0 0 0-1.261 6.844c0.36638 0.07361 0.89607 0.1795 1.2772 0.23394a4.3602 4.3602 0 0 1-1.1168-2.9238m8.2494 1.4243a4.3368 4.3368 0 0 1-1.604 2.1411c0.32664 0.07361 0.65035 0.14714 0.95786 0.23689 0.51793-0.47526 0.94169-1.0594 1.2301-1.7168a11.562 11.562 0 0 0-0.57971-0.66211m25.001 2.2346c0-0.19864 0.0147-0.38992 0.0442-0.57973a9.4406 9.4406 0 0 0-0.81367 0.81368c0.0589 1.261 0.58414 2.402 1.4096 3.2701l1.0932-0.05889a4.329 4.329 0 0 1-1.7324-3.4452m9.8572 0.0034c0-1.7634-0.81808-3.4492-2.2074-4.3835-0.31929 0.11772-0.73128 0.36638-1.0476 0.48262 1.464 0.72832 2.2034 2.1879 2.2034 3.8891 0 1.3125-0.33547 2.4993-1.2801 3.3013l1.1138-0.0079c0.75923-0.89166 1.2139-2.0361 1.2139-3.2819m-4.2902-0.53264c-0.21777-1.3272-1.0476-2.3006-1.8491-2.1684-0.8019 0.13243-1.2727 1.3154-1.055 2.6473 0.21776 1.3316 1.0476 2.3008 1.8491 2.1684 0.8019-0.13243 1.2727-1.3154 1.055-2.6473m-33.838-4.9752c-0.74009-0.19421-1.5961 0.61504-1.9154 1.8141-0.31929 1.1992 0.0294 2.328 0.76365 2.5266 0.7401 0.19422 1.5961-0.61504 1.9153-1.8142 0.31929-1.1992-0.0294-2.328-0.76364-2.5265"/>
  </g>
  <path class="uuid-cb8f1dd2-7ec6-4c2f-8428-1ecdb539bcbe" d="m143.67 76.303c-0.58854 0-1.0388 0.4679-1.0388 1.1639 0 0.69743 0.48997 1.0785 1.0785 1.0785s1.055-0.37815 1.055-1.0785c0-0.70038-0.50615-1.1639-1.0932-1.1639m-38.011-3.1417c-0.60033 0-1.0859 0.51351-1.0859 1.1447 0 0.63122 0.48702 1.1447 1.0859 1.1447 0.60031 0 1.0859-0.51351 1.0859-1.1447 0-0.63122-0.48702-1.1447-1.0859-1.1447" fill="#fff"/>
  <path class="uuid-e21800e2-3011-4795-9ba3-263b3a675e0b" d="m150.92 94.301c0.34283 1.5338 0.82544 4.5042 0.0883 5.5437-1.1138 1.5649-3.7763 2.1722-6.0031 2.1606-2.0439-0.0116-5.6916-1.4567-9.5263-2.7563-3.8852-1.3154-7.8716-2.4603-11.298-2.982-5.0609-0.77395-11.667-0.57972-17.499-0.40904l-6.3612 0.14713c-3.0599 0.0147-4.7456-1.1212-5.5359-2.4642-0.78572-1.339 0.14714-4.699 0.79454-5.5905 0.65477-0.8946 0.74011-1.4052-0.79454-0.21041-1.5338 1.1948-2.1255 3.453-2.1255 4.6288 0 0.82544 0.18686 1.561 0.56501 2.1996 1.0005 1.709 3.1999 2.7446 6.6843 2.729l6.8128-0.31929c5.785-0.16773 11.519-0.35459 16.479 0.40463 3.3286 0.50616 8.6192 1.8531 12.454 3.1533 4.0916 1.3904 6.5793 2.9198 9.9856 3.0248 4.2433 0.13242 7.0268-0.68125 7.2449-4.8157 0.0442-0.74746-0.25749-3.0715-0.68125-4.0098-0.91519-2.0165-1.6234-1.9621-1.2801-0.42817" fill="#0f141b"/>
  <path class="uuid-e21800e2-3011-4795-9ba3-263b3a675e0b" d="m151.86 94.682c0.38109 0.5297 0.10305 0.74305 0.50615 1.0712 3.9242 0.34283 6.7388 2.3474 7.2487 5.3763 0.57972 3.4298-0.5606 9.1174-3.496 12.711-10.048 12.298-35.002 9.8338-36.088 9.7248-26.807-2.655-38.354-18.916-34.379-28.75 1.6195-4.0098 5.0337-6.4819 8.5296-6.2288 0.93874-0.17068 0.93874-0.5959 0.76659-0.85192-6.6337-0.63858-9.9818 2.6161-11.216 6.8634-3.9242 13.501 9.7792 27.784 35.742 30.354 10.079 1.0005 29.91 0.13243 38.229-10.052 3.6322-4.4419 9.2458-19.913-5.8474-20.216" fill="#0f141b"/>
  <path class="uuid-cb8f1dd2-7ec6-4c2f-8428-1ecdb539bcbe" d="m10.583 261.22c4.6327-0.0736 6.6298 10.943 6.404 13.956-0.22189 2.9937-15.346 5.5475-18.227 1.0668-1.4755-2.297 6.077-14.942 11.823-15.023m182.4 0.75188c4.0644 1.8376 8.5647 10.546 7.463 12.925-0.74011 1.5962-5.4113 0.70774-8.5296-0.25307-0.81368-1.5689-3.0094-6.3378-5.1428-6.3378 1.1286-2.8848 3.0132-6.84 6.2094-6.3378" fill="#fff"/>
  <path class="uuid-16140c4a-6a69-4dfc-8490-75c755df2718" d="m188.08 265.68c4.5548 1.6974 9.752 6.7115 10.834 9.7248a24.413 24.413 0 0 1-7.3344-1.1374c-0.46348-0.92696-2.9354-5.711-5.1738-5.8667 0.23395-0.77101 0.74746-1.8686 1.674-2.7173" fill="#dadbdb"/>
  <path class="uuid-e21800e2-3011-4795-9ba3-263b3a675e0b" d="m191.6 275.09c-0.40462-0.14714-0.33548-1.4871 0.0736-1.3551 1.783 0.58413 4.9831 1.055 6.5559 1.0314 1.464-0.0294 1.7402-0.35754 1.3934-2.0049-0.57236-2.7602-2.6277-6.6259-6.1431-9.4445-0.43553-0.35019-0.76365-0.41641-1.1874-0.26044a8.3038 8.3038 0 0 0-5.0336 5.5087c-0.11771 0.41199-1.3904-0.0147-1.2698-0.42817 1.0667-3.7101 3.6867-6.3806 6.8323-6.9724a0.78639 0.78639 0 0 1 0.58855 0.13242c6.513 4.582 8.9929 12.574 7.8717 14.186-0.84899 1.2183-5.8084 0.97699-9.682-0.38991" fill="#0f141b"/>
  <path class="uuid-cb8f1dd2-7ec6-4c2f-8428-1ecdb539bcbe" d="m165.22 273.59c-0.18245-1.8375 8.3349-10.188 21.521-5.24 4.765 1.787 10.523 18.589 6.8984 19.313-5.9758 1.1948-27.819-8.0936-28.419-14.073" fill="#fff"/>
  <path class="uuid-16140c4a-6a69-4dfc-8490-75c755df2718" d="m186.73 268.35c-1.9855-0.74304-4.8701-1.5377-6.9412-1.5065 5.4503 3.1845 12.127 12.843 14.77 19.882 1.3007-3.6867-3.6439-16.81-7.8249-18.375" fill="#dadbdb"/>
  <path class="uuid-e21800e2-3011-4795-9ba3-263b3a675e0b" d="m164.33 275.43c-0.25307 4.3525 24.748 15.572 30.054 13.509 3.5232-1.3698-0.44729-16.732-7.0346-21.104-7.2915-4.8391-22.502-1.3272-23.019 7.5952m22.175-6.4546c3.3402 1.4449 7.9534 12.205 7.5874 16.724-0.0294 0.45614-0.16332 1.2301-0.58414 1.3154-6.0263 1.2065-27.376-8.4984-27.376-12.609 0-2.982 9.2576-10.231 20.372-5.4269" fill="#0f141b"/>
  <path class="uuid-16140c4a-6a69-4dfc-8490-75c755df2718" d="m15.204 266.65c-3.5232 0.39286-15.794 8.3545-15.922 10.313 1.1484 2.3826 14.062 1.7442 17.098-0.53264 1.4327-1.0741-0.50218-7.0854-1.1756-9.7794" fill="#dadbdb"/>
  <path class="uuid-e21800e2-3011-4795-9ba3-263b3a675e0b" d="m0.2392 278.82c-2.6473-0.75186-3.274-2.3826-2.5305-5.4463 1.1678-4.8313 7.5213-11.691 11.932-13.108a2.1178 2.1178 0 0 1 0.64623-0.10305c6.5597 0 8.4284 15.113 7.1281 16.456-2.5032 2.6123-11.889 3.6983-17.176 2.2034m9.9934-16.911a0.52556 0.52556 0 0 0-0.15964 0.0294c-3.7723 1.2139-9.4328 7.5758-10.441 11.737-0.59959 2.476 0.56839 3.9398 6.4819 3.9398 4.3524 0 8.5257-0.89166 9.8688-2.0945 0.84089-2.5889-1.8609-13.606-5.7539-13.606" fill="#0f141b"/>
 </g>
</svg>
