<?xml version="1.0" encoding="UTF-8"?>
<!-- Created with Inkscape (http://www.inkscape.org/) -->
<svg version="1.1" viewBox="0 0 332.2 476.2" xmlns="http://www.w3.org/2000/svg">
 <path d="m326.78 419c0.22404-2.5525-8.2311-7.299-19.546-8.801-0.96917-0.12888-1.9203-0.22325-2.8565-0.3034-30.807-26.11-68.078-48.912-90.519-62.889-21.491-13.403-33.62-20.487-41.713-25.355-8.0398-4.8516-44.068-2.597-59.698-1.7942-0.13006-0.79805-0.51627-1.1509-0.91594-1.4849-4.6456-3.929-15.688-6.6898-23.51-5.7715-1.8651 0.21685-2.6829 0.99069-3.1846 2.657-0.55407 1.7788-2.2318 8.8809-2.508 10.502-0.4274 2.4276-0.3512 2.6398 0.44177 3.7788 0.72255 1.0133 2.782 2.7275 4.0528 3.2522-0.83185 5.2258 0.95378 10.233 4.5739 13.917 6.9592 7.0989 119.96 111.39 125.86 117.07 16.974 16.332 43.87 12.855 45.346 3.1663 0.12894-0.8403 0.27827-2.2204 0.41663-3.5903 9.5891 6.1917 25.685 8.0409 34.247 3.9828 2.4858-1.179 2.5713-2.2866 2.8943-3.5952l2.4408-12.928c6.1137 0.66622 11.831 0.33241 14.973-1.1573 1.9837-0.94318 2.4736-1.9172 2.8971-3.604 1.6676-6.7054 6.3398-27.063 6.3398-27.063z" fill="#fdd34e"/>
 <path d="m328.65 158.91c-6.3012-5.3598-9.066-3.341-15.029-6.1943-3.0273-1.4524-4.5877-2.7325-4.5375-6.1216 0.0806-5.3694 1.7248-8.8273 6.9157-13.691 2.7539-2.595 5.8131-4.4913 9.1912-8.8683 1.3752-1.7921 2.2275-3.3742 1.8533-6.1784-0.49818-3.7945-2.7711-6.6883-7.1482-6.8809-5.118-0.22146-11.777 7.4477-15.354 12.439-1.2401 1.7285-2.2265 3.0746-3.109 4.2166-1.1051-3.5375-5.2835-5.0101-9.4514-3.2823-4.7172 1.9546-7.5879 6.5108-9.9346 10.786-3.3191 6.0391-5.6381 8.3428-8.3496 9.9993-10.264 6.2654-14.674 11.813-24.202 22.112-4.017 4.3356-3.1544 3.6834-7.365 5.2768-8.888 3.3585-27.773 6.5138-34.734 6.9756-4.2074 0.28713-4.424-0.50517-5.3126-4.8058-5.8464-28.194 6.1196-72.06 10.245-92.429 0.94658-4.6499 2.6125-8.7392-2.0623-11.395-14.55-8.252-43.65-8.6995-56.119-0.19477-2.4294 1.6522-2.0662 5.3066-2.3895 10.973-0.57418 32.377 8.8709 73.99 14.391 100.57 0.62529 3.0169 0.14352 5.1624-1.5441 8.4817-1.7331 3.3975-13.759 11.535-22.954 16.607-6.298 3.4559-15.148 4.7249-25.017 4.6712-9.968-0.05-20.641 5.3172-26.843 10.562-6.8073 5.7638-11.081 6.5858-17.935 7.4251-3.9186 0.47699-9.1947 2.6517-14.721 6.6845-5.549 4.0449-6.2217 10.858-3.721 14.946 2.414 3.9894 6.3994 6.6246 12.617 5.964-6.7234 6.8647-3.0241 20.646 7.1457 20.48 7.4835-0.11447 8.5623-7.7011 10.167-13.544 3.9381-3.7738 14.527-4.0995 17.629-2.4431 0.14428 0.65434 0.2888 1.3876 0.44983 2.2471 1.4165 7.5123 6.4256 13.873 14.661 15.561 5.9249 1.2168 10.175-0.95265 12.082-6.699 1.5907-4.7799-0.0223-7.4028-4.1307-11.353-3.5839-3.4368-4.517-6.3786-4.3724-8.5771 13.759-10.283 20.903-19.466 26.166-29.498 1.9128-3.6472 2.7574-5.1739 6.3468-7.8221 3.605-2.6548 13.196-9.0724 16.083-10.267 2.7779-1.1476 3.148-0.86698 4.1781 2.1588 14.671 42.728-16.651 63.074-39.477 93.953-15.784 21.351-7.8915 32.643 0.10832 51.017 1.4869 3.4046 1.9848 4.1883 4.1875 6.4489 9.1617 9.4094 35.392 11.514 45.661-0.99794 1.4881-1.8147 1.0432-3.522 0.53217-5.2019-1.1403-3.7272-3.6243-9.8802-6.419-16.585-1.2835-3.0759-1.2329-3.8618-0.74375-6.574 0.76147-4.2038 3.1319-9.8636 5.1901-13.435 1.932-3.3509 3.6061-3.362 5.0392-2.9387 2.0717 4.8229 2.091 11.112 1.7176 22.156-0.47683 13.98 0.93174 19.709 8.8707 38.322 3.5027 8.1908 12.411 25.888 18.875 28.701 14.601 6.3763 35.05 7.3742 43.331-1.9986 4.3707-4.9464 5.1765-8.1136 0.5957-17.127-10.997-21.603-16.122-37.829-19.127-66.296-1.7282-16.357 10.457-35.141-6.6554-72.11-8.181-17.675-16.272-26.918-23.6-45.863-0.94503-2.4283-1.3679-3.8482 2.648-5.5387 4.7782-2.0145 22.792-6.8907 39.113-8.0724 25.93-1.8799 35.372-7.7575 47.323-15.791 3.6238-2.4375 4.8761-2.8164 7.2161-2.5951 2.9349 0.27398 8.1715 2.676 11.612 4.1609 3.6032 1.5664 8.0561 1.3059 10.918-1.7716 1.7257-1.8617 3.6202-7.0738-0.7016-10.752" fill="#fdd34e"/>
 <path d="m240.78 317.24c1.0904 10.356 2.4677 19.081 4.3024 27.04 11.219 4.7364 25.835 8.1662 28.682-0.81512 1.0601-3.3418 0.37262-5.8995-1.852-8.065l4.0818-17.808c2.3469-0.37333 5.3218-2.7353 5.8057-6.27 0.56591-4.2301-1.3019-8.2628-8.3623-9.5315-6.6989-1.1946-12.265-2.0708-17.503-2.8257-3.5934-0.51175-8.9979-0.78212-13.636-0.96956-0.97361 7.2118-2.1373 13.386-1.5186 19.244" fill="#b5a25d"/>
 <path d="m268.48 314.39c-1.2148 4.1779-2.8629 11.666-3.9974 16.617 3.2922 1.3426 5.8185 2.7313 7.4883 4.351l3.9874-17.825c0.0885-1.7777-6.0938-3.0939-7.4782-3.1426" fill="#943632"/>
 <path d="m253.31 310.77-3.606 15.447 11.254 3.4957 4.0165-16.092z" fill="#943632"/>
 <g fill="#fdd34e">
  <path d="m308.67 349.73c-0.0732-0.067-3.9916-3.3869-5.5338-4.2499-3.3646-1.8881-12.311-1.1026-19.222 7.5684-6.2639 7.846-5.2903 15.88-2.841 18.225 1.3901 1.3328 5.0377 4.4971 5.0472 4.5039 4.5442 3.3841 12.758 0.45571 18.506-6.5493 4.7982-5.8437 8.5542-15.119 4.0431-19.498"/>
  <path d="m99.96 291.09c-5.694-4.3651-13.224-6.601-15.129-4.3566l-0.02218-0.011c-0.2334 0.30397-1.7891 2.6206-2.1656 3.6011-0.8825 2.3147 0.55574 6.7211 7.7709 11.998 8.9643 6.5681 14.941 5.3728 16.01 4.1505 0.71734-0.80318 2.5594-3.3285 2.596-3.3844 0.90466-1.6946-1.4489-6.1804-9.0596-11.996"/>
  <path d="m0.72031 253.57c0.52704 1.906 4.5277 2.1351 9.6351 0.32887 4.0873-1.4568 7.1442-4.2593 6.5879-6.3186-0.47236-1.7486-5.0203-1.9174-9.75-0.0897-3.8324 1.4901-7.0803 3.937-6.473 6.0794"/>
  <path d="m24.435 264.23c3.8617 3.1004 14.66 4.1626 19.317 2.4467 0.7919-0.29531 0.98864-0.41485 1.0136-1.7914 0.03906-1.1624-0.20944-1.2259-1.5965-1.7315-3.4949-1.2598-13.275-2.4508-17.315-2.0039-1.5437 0.17295-1.7451 0.44277-1.8843 1.4759-0.09783 0.77698-0.12278 1.1346 0.46533 1.6042"/>
 </g>
 <g fill="#ffe450">
  <path d="m175.29 84.922c-4.8927 59.135 0.93685 78.353 6.5793 100.76 2.3044 9.1307 3.7144 9.9986 1.7898-0.67867-7.1861-39.823-7.4344-48.025-2.0986-100.06-2.1115 0.05743-4.2033 0.05765-6.2704-0.02102"/>
  <path d="m284.98 134.28c-0.58063 1.6667 0.50066 2.1266 1.4197 0.57102 1.2528-2.084 3.476-4.9501 6.6633-6.0606 1.3099-0.45912 1.1374-1.6701-0.59858-1.3496-3.802 0.70749-6.445 3.8292-7.4844 6.8391"/>
  <path d="m304.5 127.72c-1.6913 2.8376-1.2396 2.9552 0.87728 0.55969 3.263-3.6803 8.7895-10.362 13.686-13.132 1.8288-1.0261 1.1536-2.6667-1.1206-1.6179-7.6268 3.5188-11.521 10.953-13.442 14.19"/>
  <path d="m251.43 169.74c-1.8782 1.2836-4.2245 3.0886 0.1283 2.1124 1.8165-0.41261 3.2044-1.9491 5.1524-3.5186 3.0631-2.4583 5.9679-5.3774 8.6307-8.3526 3.0821-3.4387 7.7562-7.3658 12.517-9.6894 3.3742-1.6732 6.691-4.9214 8.4565-7.5341 1.7776-2.6146 1.3747-2.5863-1.4353-0.56434-2.5914 1.8574-3.4762 3.266-8.1289 5.1061-4.8372 1.9077-10.514 6.9258-13.425 10.062-1.8409 1.997-4.0916 5.0506-6.68 7.9721-1.6949 1.9233-3.2164 3.0489-5.2156 4.4064"/>
  <path d="m146.17 293.53c14.964-17.657 39.465-38.779 37.807-78.285-0.22759-5.3732 0.59389-5.6902 1.3489-0.39874 5.1296 35.884-14.724 58.88-35.142 80.911-9.2646 9.9989-15.341 20.218-16.258 25.587-0.92008 5.3733-2.2301 3.3081-2.2149-0.88211 0.0545-9.3284 8.9911-20.471 14.458-26.932"/>
  <path d="m111.81 255.55c-1.3662-1.6194-0.70995-2.9242 1.3604-1.195 2.5157 2.089 8.508 7.5948 8.6865 12.182 0.0902 2.26-2.3546 2.035-3.0034 0.19858-1.3331-3.7624-3.66-7.1921-7.0435-11.186"/>
  <path d="m58.637 242.77c-1.0655 2.5442-0.15838 3.0574 1.1602 1.0708 2.0545-3.084 4.9431-4.6239 9.1254-6.6202 4.1661-1.9937 7.3699-3.3854 11.742-3.9614 5.6064-0.73578 8.1754-0.99668 14.7-5.13 5.6703-3.5823 5.8493-4.2436 9.4462-5.9282 3.5368-1.6706 15.501-5.6973 21.828-6.4049 3.9232-0.44859 4.9087-0.52633 5.8039-0.87591 1.3784-0.54921 1.5063-1.2188-0.48193-1.1191-2.1407 0.10857-6.66-0.16544-11.258 0.86318-3.7154 0.83059-9.7044 1.7701-17.338 5.1944-3.6338 1.6365-5.638 3.2443-8.3815 5.3677-4.2036 3.2682-7.399 5.5276-12.612 5.7917-4.0999 0.20663-5.5297 0.41549-8.4314 1.263-9.1954 2.6726-13.57 6.3721-15.302 10.489"/>
 </g>
 <path d="m125.99 214.89c-0.12902-0.61938-6.6756 0.24877-11.148 1.4357-5.2058 1.3815-11.708 4.4257-11.417 4.9605 0.33263 0.61106 8.6202-2.5788 12.025-3.4752 3.6456-0.95232 10.647-2.4436 10.54-2.921" fill="#fff"/>
 <path d="m233.35 457.98c-0.0457 4.0288-0.0795 6.3964 1.4107 1.4333 1.3987-4.6571 4.6055-20.767 5.8229-31.15-1.1102-0.33041-2.1521-0.70111-3.1406-1.1013-2.2836 12.566-4.0132 24.908-4.093 30.818" fill="#ffe450"/>
 <path d="m272.78 457.07c-0.95663 6.7807 0.26642 6.2735 1.4559 0.0535 0.9477-4.9744 5.775-20.225 8.3316-35.809-1.0678-0.29992-2.2872-0.63747-3.2826-1.0032-2.4696 14.613-5.6776 30.893-6.505 36.758" fill="#ffe450"/>
 <g fill="#d7a626">
  <path d="m108.82 321.81c-2.5854 0.31346-6.2929 0.02-9.9345-0.76242l-1.6578 7.4024c4.5983 1.217 10.541 0.65522 13.149-0.66831 0.63676-0.32857 0.99068-1.6004 1.535-4.4838 0.14099-0.71747 0.35624-2.1249 0.57886-3.4878-0.46161 1.1981-2.102 1.7983-3.6702 2.0001"/>
  <path d="m96.679 302.23s-0.84701 1.6145-1.594 3.0005c6.3465 3.2149 10.462 2.2359 11.34 1.2444 0.39627-0.45138 1.1466-1.4346 1.7377-2.2214-4.8071 1.6075-11.483-2.0235-11.483-2.0235"/>
  <path d="m131.81 349.81-4.3187-9.6754c-2.831-0.27429-4.5767-1.0084-5.5841-1.6009l-1.9701 9.6948c3.8821 2.8683 9.5676 2.8724 11.873 1.5815"/>
  <path d="m187.74 388.62c0.52331-2.4516 6.9196-4.0813 14.949-3.1412-2.3272-4.3238-4.3098-8.5499-5.5849-11.523-3.8112-8.9348-6.1184-14.896-7.4252-20.231-2.9781-2.2215-6.2441-4.3211-7.817-5.2955 0.65723 1.76 1.2011 3.3098 1.5874 4.5817 0.51498 1.6793 0.95991 3.3866-0.53217 5.2019-9.2778 11.294-31.557 10.674-42.543 3.5127 10.477 9.6691 30.566 21.467 46.84 29.459l0.50499-2.615z"/>
 </g>
 <path d="m267.55 346.74c-0.77213-1.3171-4.7231-3.5629-9.3911-5.7166-3.5111-1.6646-7.6985-3.4726-10.981-4.9833 1.665-5.5738 6.1306-25.082 8.9317-37.05-0.0592-5e-3 -0.11913-0.0178-0.17874-0.0248-3.598-0.51516-9.0026-0.78552-13.637-0.97361-0.97769 7.2125-2.1373 13.386-1.5186 19.244 1.0904 10.356 2.4637 19.081 4.2985 27.041 7.5887 3.2077 16.725 5.8054 22.734 4.3802 0.18693-0.63769 0.10226-1.2851-0.25869-1.9165" fill="#9d8c50"/>
 <path d="m248.99 343.48 6.5514-0.44912c6.3241 3.4348 0.89351 3.8964-6.5514 0.44912" fill="#7d2b27"/>
 <path d="m327.15 159.65c-2.6876-2.5308-7.2736-3.571-9.6339-3.789-2.0749-0.17708-2.1263 0.24709-0.31584 0.99555 2.7767 1.1398 5.5432 2.5225 8.9339 4.4438 1.2007 0.68159 2.256-0.47186 1.0158-1.6503" fill="#ffe450"/>
 <g fill="#e18b4f">
  <path d="m100.51 215.66c13.836-2.8766 20.939 4.7728 23.478 8.38 5.5174 7.8206 4.5214 18.795 1.467 24.75 1.0943-0.91456 1.9442-1.8226 2.948-2.7307 2.4837-7.0048 2.0605-16.33-2.7632-23.187-4.2322-6.0092-11.034-9.5158-19.473-9.2454-2.4078 0.66317-3.4333 1.005-5.6568 2.0331"/>
  <path d="m129.4 223.03c4.047 7.4741 2.5601 17.531 0.10073 22.186 0.99731-0.9736 1.6741-1.949 2.624-2.9065 2.6282-5.864 2.4256-13.99-0.94677-20.235-2.5397-4.7091-6.5987-8.1266-12.856-10.03-1.0284 0.0179-4.3212 0.0227-5.6416 0.18832 7.5 0.95574 13.427 4.709 16.72 10.797"/>
  <path d="m285.27 178.34c2.062-4.8484 2.0868-10.866-1.4215-16.848-3.3714-5.7545-9.333-10.612-21.115-8.0918-1.0789 0.95783-1.3516 1.1978-2.3964 2.2373 7.3237-2.4962 16.562-1.9987 21.772 6.8701 3.6585 6.24 3.0234 12.519 0.23233 17.104 1.0068-0.40532 1.9772-0.82986 2.9281-1.2719"/>
  <path d="m295.36 172.67c2.387-5.5585 1.8426-12.261-0.59384-17.357-4.4958-9.3846-12.194-12.221-22.478-9.1586-1.3051 0.82005-0.95464 0.5466-1.9368 1.2558 12.246-2.7376 18.68 0.60846 22.591 8.7784 2.6911 5.6118 2.866 13.364-1.1957 18.726 1.2171-0.72251 2.4167-1.4754 3.6137-2.2446"/>
  <path d="m80.491 272.52c0.75744-1.4751 1.0441-1.63 1.5255-3.4717 0.24754-3.097-1.134-5.7286-2.5726-7.2821-3.9669-4.3058-13.093-4.2146-16.417 2.1247-0.2758 1.3175-0.45391 2.2906-0.33096 3.6054 2.5423-7.7422 11.432-8.7222 15.523-4.6487 2.2883 2.2758 3.3453 6.1039 2.2722 9.6724"/>
  <path d="m121.54 258.58c-0.45198-0.6041-0.79898-1.1505-1.0851-1.528-8.5702-1.5256-13.601 2.181-15.421 6.8279-0.9149 2.32-1.0536 5.7277-0.50663 7.959 0.72799 1.1995 1.1984 1.9421 2.1774 2.9468-0.81201-0.6951-1.6197-6.3605-0.0116-10.116 1.8013-4.2029 6.4592-7.3372 14.847-6.0896"/>
  <path d="m72.238 255.17-1.531 1.7552c6.4677-1.5998 12.177 3.9274 11.532 11.626 0.4889-1.8721 1.0669-4.7027 1.054-4.8836-0.49941-4.6677-5.0528-9.6888-11.055-8.4977"/>
  <path d="m77.301 236.86c-2.4822-3.7704-5.6061-5.6104-10.224-5.5225-2.1665 0.74015-2.1945 1.0275-3.4215 1.6892 5.3723-1.5084 9.5036 1.2819 11.904 4.8576 3.6545 5.4505 1.0832 14.391-2.362 16.496 0.87753 0.10242 0.96966-0.19953 1.8113-0.64897 4.9048-4.68 5.666-11.741 2.2925-16.871"/>
 </g>
 <path d="m179.11 168.24c0.40584-0.11192 1.2417 2.513 2.2785 7.2386 0.72083 3.2966 1.293 7.1373 0.8542 7.2256-0.37073 0.073-1.4977-3.3945-2.2449-7.007-1.102-5.2514-1.2184-7.3741-0.8878-7.4571" fill="#fff"/>
 <g fill="#e18b4f">
  <path d="m200.9 166.36c-0.0821-0.88488-0.14615-1.7893-0.19359-2.6923-8.4781 10.282-26.317 13.554-37.087 6.4236 0.18169 0.88525 0.37056 1.761 0.55368 2.6294 10.93 6.2806 27.828 3.4619 36.727-6.3608"/>
  <path d="m186.67 111.07c9.1582-1.2693 16.716-3.8369 21.292-8.1098 0.30782-1.4018 0.60141-2.2023 0.89009-3.5428-3.628 4.6548-11.843 8.1863-22.454 9.651-13.591 1.8801-27.052-1.1266-33.905-7.1908 0.0818 0.93483 0.16429 1.8737 0.25358 2.8031 9.8345 7.237 24.79 7.6505 33.924 6.3892"/>
  <path d="m185.71 119.92c8.2707-0.82093 15.284-4.4558 20.221-7.8436 0.19771-1.0054 0.38886-2.0014 0.59196-2.9743-4.5972 3.9146-12.006 7.9051-21.004 8.8031-12.677 1.2652-25.466-2.5415-32.189-7.4041 0.10029 0.86942 0.20028 1.7389 0.30885 2.607 6.7644 4.0949 20.33 7.9744 32.072 6.8119"/>
  <path d="m243.02 388.24c-13.747 2.3047-32.489-0.2689-44.427-11.222 0.58518 1.3185 1.2691 2.7581 2.0155 4.2998 13.359 9.9766 32.089 11.101 42.59 9.1884 7.1704-1.2943 13.092-4.2563 16.174-7.8448-0.33105-0.65295-0.65272-1.2991-0.98314-1.948-3.1013 3.55-8.3505 6.3482-15.369 7.5264"/>
  <path d="m124.17 328.89c0.21585 1.5284 0.56356 3.0478 0.98281 4.5721 10.207 15.818 41.711 18.406 51.464 1.9229-0.35498-0.92769-0.54022-1.6294-0.61147-2.2956-11.933 16.818-41.636 13.362-51.836-4.1995"/>
  <path d="m126.55 337.69c0.67518 1.8194 1.4393 3.6743 2.2769 5.5712 12.23 13.23 38.385 14.436 50.823-0.55498-0.2722-0.67502-0.56138-1.3764-0.84841-2.0906-13.875 15.949-41.238 13.222-52.252-2.9256"/>
  <path d="m284.05 132.25c1.1872-1.645 4.1318-2.4081 6.869-1.9438 1.112 0.18875 3.6516 0.84325 4.4202 3.3628 0 0 0.99264-0.79818 1.319-1.1176-1.7497-3.894-7.4449-4.9778-10.905-3.12-0.96476 1.1222-1.7027 2.8187-1.7027 2.8187"/>
  <path d="m312.72 122.21c2.7426 1.8482 4.5349 4.9326 4.7482 9.3767 0.6246-0.53025 1.2574-1.0618 1.9124-1.6094-0.70182-5.8573-3.7799-8.4118-5.6674-9.5303-2.0518-1.2082-4.3319-1.3935-6.1803-0.92152-0.68427 0.80194-0.88286 1.0631-1.3877 1.6902 1.9073-0.51914 4.2045-0.61095 6.5748 0.99441"/>
  <path d="m297.14 132.01 0.9866-0.80967c-0.56115-3.9506-5.0263-6.0335-9.1675-4.805-1.6883 1.1986-1.4559 1.2979-2.2271 2.2554 3.9472-3.0808 9.9362-0.11948 10.408 3.3592"/>
  <path d="m316.52 162.28c-1.4242 3.2515-3.8604 5.6782-5.8168 5.7686 0 0 1.7515 0.84546 2.6348 1.2129 2.1413-1.2517 3.965-3.7366 5.0267-6.1762 1.3576-3.1242 1.6299-6.1461 0.85906-8.6029-0.76936-0.1531-1.567-0.32657-2.4211-0.56571 1.3992 2.4333 0.82139 5.8253-0.28259 8.3633"/>
  <path d="m323.23 165.33c1.3817-2.8744 1.8715-6.5515 0.97241-9.3866-0.97551-0.44802-1.8807-0.74536-2.7571-0.96834 1.6038 1.9799 1.6398 5.9995-0.0389 9.4755-0.73067 1.5373-2.995 5.196-6.7176 4.9882-0.34277-0.011 1.3267 0.94385 2.3993 1.401 2.5156-0.614 4.701-2.5134 6.1418-5.5097"/>
  <path d="m288.42 429.68c-8.5875-1.0196-17.342-4.7691-20.947-9.2795 0.0603-0.82904 0.30416-1.7047 0.6287-2.6726 1.7389 4.2617 10.727 8.7799 20.552 9.9468 8.1761 0.97024 15.519-0.10692 18.695-2.7416-0.17141 0.8098-0.35396 1.6796-0.46553 2.5253-5.0791 2.7955-12.665 2.9184-18.464 2.2216"/>
  <path d="m325.36 425.93c-3.9226 3.0019-14.578 1.8456-18.251 0.56526l-0.35019 1.7538c2.9012 1.4438 13.321 2.4765 18.064-0.21013 0 0 0.45632-1.6131 0.53766-2.1088"/>
  <path d="m321.39 441.57c-2.7687 1.2293-5.539 1.939-8.2388 2.1632-5.1067 0.43357-7.8782 0.32022-9.0575-0.12785-0.34301-0.13956-0.82573 1.1078-0.48612 1.252 1.8666 0.71021 6.1513 0.71832 9.826 0.35179 2.436-0.23513 5.3677-0.97532 7.95-2.1742 0.19336-0.0898 0.34702-1.6202 6e-3 -1.4649"/>
  <path d="m324.29 431.96s0.54122-2.1634 0.50599-2.1244c-3.9811 3.1529-14.16 2.2432-18.471 0.77154l-0.35012 1.7289c3.9498 1.6263 13.324 2.293 18.316-0.37595"/>
  <path d="m208.14 74.589c0.21618-5.533-31.185-10.857-46.699-4.0893 0 0 2.122 0.61866 3.495 0.8272 15.515-5.1298 41.18 0.21528 41.186 3.1795 2e-3 2.2287-13.676 5.8987-27.623 5.3956-4.5844-0.16296-9.66-0.53274-13.785-1.5274-1.8365 0.34103-2.63 0.90721-2.9066 1.3017 4.7899 1.4228 10.734 2.1208 16.639 2.2471 12.567 0.25397 29.515-2.8223 29.694-7.3345"/>
  <path d="m201.79 173.08c-0.14647-0.84107-0.29627-1.5112-0.41526-2.3734-4.5632 6.188-11.706 9.2826-20.407 10.145-7.4195 0.73617-12.446-0.45667-15.683-2.8106 0.1731 0.83257 0.34908 1.6564 0.51969 2.4728 2.4024 1.7 8.5832 3.033 15.573 2.317 8.4549-0.86345 17.402-5.0302 20.413-9.7505"/>
  <path d="m318.88 117.2c-2.3356-1.6734-5.1576-2.0198-7.6051-1.5998-0.69042 0.63661-1.203 1.1402-1.757 1.7213 1.9723-0.96211 5.541-0.55029 8.2629 1.426 2.6276 1.9085 3.678 5.6962 2.7453 10.024 0 0 1.5256-1.1762 2.2117-1.8911 0.39486-3.3663-0.71517-7.4187-3.8579-9.6799"/>
  <path d="m282.13 151.02c-4.2499-2.4465-11.406-2.6433-14.617-1.5498-1.5816 1.1645-1.8976 1.2161-3.2898 2.4454 5.1974-2.6568 12.03-2.1704 17.11 0.82298 7.4134 4.3508 11.699 15.175 5.8363 24.69 1.0524-0.53347 2.0779-1.0792 3.0752-1.6452 3.7822-9.2169-0.0761-20.148-8.1147-24.763"/>
  <path d="m113.32 219.73c-4.9991-2.603-11.844-3.2913-17.126-2.2468-0.61581 0.12542-2.74 2.2726-2.6284 2.217 4.1498-1.7623 13.678-0.88801 18.751 1.832 11.575 6.2046 14.052 20.955 7.9398 31.034 0 0 2.3936-1.6422 3.4905-2.5405 3.9711-10.379 1.2578-24.209-10.427-30.296"/>
  <path d="m72.666 239.99c-2.3716-4.1377-6.9181-6.4901-10.572-6.5055-1.5144 0.83757-2.1381 1.2969-2.9023 1.9913 5.5062-0.81484 9.416 1.2296 11.829 5.4646 2.454 4.3114 2.6127 11.301-1.8227 15.647 0.76868-0.23353 1.8451-0.49216 2.6274-0.74461 3.4132-3.6008 3.6217-11.016 0.84092-15.853"/>
  <path d="m122.21 259.82c-3.7376-0.55475-6.7453-0.0766-9.6132 1.7427-4.3252 2.7266-6.375 6.9866-5.5522 13.56 0.69198 0.67309 1.7194 1.5161 2.5259 2.0749-2.2555-3.7824-0.54583-11.098 3.9898-13.859 3.5364-2.1571 7.8916-2.8134 11.143-0.88179-0.21805-0.21401-1.9802-1.9934-2.4929-2.6375"/>
  <path d="m102.76 300.14c-2.1368-0.63293-5.6746-2.5635-7.3949-3.8299-2.3604-1.7234-5.2162-4.1894-6.0163-5.4229-0.48325-0.7446-0.18224-1.0598 0.72084-0.83286 4.0747 1.0154 10.798 5.7741 13.393 8.9396 0.82107 1.0056 0.50626 1.4977-0.70301 1.146m2.41-1.2872c-2.1326-3.4115-10.85-9.7162-15.812-10.329-1.6336-0.19925-1.984 0.6355-1.7882 1.5808 0.39788 1.9562 3.1418 4.6276 6.9425 7.4051 2.876 2.1051 6.055 3.5952 8.5861 4.1721 2.3315 0.52628 3.4508-0.61684 2.0712-2.8289"/>
  <path d="m106.46 318.89c-1.0601 2e-3 -4.7418-0.49076-7.8437-1.2532-2.686-0.65976-5.2788-1.5135-6.5697-2.2886-0.29999-0.23392-0.31756-0.46806 0.35921-0.44952 3.6082 0.11844 11.369 1.984 14.125 3.3559 0.83322 0.41716 0.63206 0.63711-0.0712 0.63539m1.7672-0.79147c-2.9081-1.9709-13.259-4.595-17.72-3.9755-1.0091 0.13646-0.97477 0.70379-0.4218 1.1875 1.1497 1.006 4.2643 2.3818 8.1422 3.3378 3.5139 0.86571 7.8949 1.3114 9.5999 1.1331 1.4074-0.14223 1.798-0.72994 0.39919-1.6828"/>
  <path d="m182.4 349.89c-0.23844-0.67224-0.50881-1.385-0.78816-2.1296-7.907 8.2263-19.412 10.993-28.92 10.015-8.2756-0.8667-18.041-5.1832-22.205-10.8 0.68763 1.5388 1.4203 3.1243 2.134 4.7712 4.821 4.52 12.337 7.386 19.834 8.1677 8.8766 0.93084 22.93-1.6859 29.945-10.025"/>
  <path d="m237.77 422.01c0.12647-0.85646 4.9583-1.0124 10.906-0.39418 5.9594 0.61238 10.752 2.0513 10.77 3.0298 0.0119 0.73825-4.6635 1.0601-11.47 0.27407-8.0506-0.9408-10.291-2.2846-10.206-2.9098m22.944 1.435c-2.817-1.7945-7.4652-2.8079-12.059-3.3102-7.3979-0.81438-10.515-0.18955-12.065 0.42924-1.6082 0.64488-1.5102 1.7808-0.6303 2.5605 1.2552 1.1177 5.6958 2.6931 11.801 3.4065 6.0569 0.70041 10.567 0.45963 12.712-0.38926 1.3859-0.55454 1.8142-1.7015 0.24212-2.6968"/>
  <path d="m267.38 432.69c-4.882 2.5762-11.587 3.5868-21.986 2.1432-6.053-0.85493-13.592-4.1374-15.94-8.5159l-0.64009 2.6536c2.3103 2.7421 7.9341 6.3452 16.345 7.8095 7.3255 1.2629 16.702 0.64416 21.899-1.9917 0.30547-0.14133 0.7827-2.3401 0.32304-2.0987"/>
  <path d="m266.27 438.43c-4.3551 1.8041-11.939 3.0869-20.551 1.6388-7.4592-1.241-14.095-4.1634-16.607-7.5796-0.3138-0.41875-1.2385 1.4579-1.0489 1.6516 4.4176 4.3155 10.278 6.7447 17.291 7.7466 7.741 1.1078 13.278 0.94065 20.856-1.4724 0.24183-0.0729 0.54263-2.1803 0.059-1.985"/>
  <path d="m301.29 455.55c-6.5856 1.7438-14.253 2.2585-20.66 1.0454-7.2367-1.3813-10.863-2.632-15.486-5.8369-0.42207-0.29297-0.83115 1.7117-0.6978 1.7898 5.9355 3.6021 10.095 4.9323 15.872 6.011 6.2266 1.1801 12.456 0.82108 20.411-0.96313 0.41732-0.093 1.0575-2.1853 0.56039-2.046"/>
  <path d="m302.29 449.92c-5.5322 1.9046-12.502 2.4925-20.036 1.2762-7.7149-1.2534-11.746-3.2281-16.05-6.689-0.40709-0.32865-0.93485 1.6621-0.75177 1.7902 5.4076 3.8837 10.14 5.898 16.469 6.8868 8.3254 1.2994 14.272 0.37932 20.044-1.2027 0.36675-0.0974 0.81272-2.2326 0.32497-2.0616"/>
  <path d="m305.42 431.56c-3.36 2.4485-12.676 3.5938-21.43 1.8071-7.7906-1.5904-13.587-5.078-16.467-8.0474-0.038-0.0286-0.0649-0.0394-0.0943-0.043 0.48953 0.88495 0.67693 1.9065 0.65355 3.0124 4.4983 3.612 9.3341 5.8008 15.557 7.0605 7.6052 1.5499 16.778 0.83128 21.752-1.6933 0.48529-0.23716 0.44893-2.3979 0.0282-2.0964"/>
  <path d="m277.05 412.63c0.1945-1.4332 6.5084-1.4775 12.129-0.74742 7.7563 0.99715 12.9 3.4643 12.871 4.6126-0.0315 1.261-6.6389 1.7483-13.822 0.67003-8.103-1.2109-11.381-3.0798-11.178-4.5353m26.888 4.0936c0.15295-2.2997-7.1938-5.6051-14.609-6.5498-8.4922-1.0725-14.448-0.33809-14.676 2.0903-0.18504 2.0014 2.3618 5.021 13.396 6.5064 10.19 1.4901 15.758-0.017 15.889-2.0469"/>
  <path d="m320.95 416.5c-4.5172-2.8104-12.163-3.8963-16.906-4.1914 0.88595 0.58742 1.7426 1.2503 2.3712 1.7383 5.4213 0.093 12.022 2.1354 13.926 3.4881 0.94375 0.66114 0.88818 1.111-0.0194 1.309-2.4045 0.50448-7.844 0.19828-11.247-1.3136-0.35172-0.14212-0.87752 1.0705-0.54741 1.2329 3.1881 1.5967 9.2863 2.0409 12.393 1.3303 1.9401-0.44527 2.5326-2.0392 0.0293-3.5937"/>
  <path d="m300.16 365.51c-3.6304 4.1561-6.2513 5.7563-8.4472 6.2143-1.2236 0.24938-1.974-0.0938-2.0439-1.5422-0.10229-2.6407 1.0709-6.0799 4.166-9.974 2.5496-3.2105 6.9461-6.2897 9.311-6.4509 1.2791-0.0864 2.1011 0.41416 2.0306 1.8686-0.0877 1.7818-1.0773 5.3781-5.0166 9.8841m5.8782-12.403c-2.3577-2.3185-8.5473-0.54376-13.714 5.9714-3.369 4.2548-4.557 7.7298-4.5189 10.922 0.0188 2.384 1.0633 3.7398 3.3204 3.5297 3.6125-0.33964 7.1834-2.8976 10.617-6.8344 2.8554-3.2728 7.0201-10.909 4.2959-13.588"/>
  <path d="m243.28 287.53c-7.9831-7.2063-26.659-12.685-44.784-13.23-20.511-0.61751-41.164 3.5789-48.581 6.8056-1.1429 1.33-2.2899 2.6608-3.4498 4.0144 10.296-6.1998 38.373-9.5487 51.943-8.8095 19.685 1.06 36.529 6.2471 44.699 14.034 0.0735-0.9768 0.13228-1.789 0.17304-2.8145"/>
 </g>
 <path d="m177.64 255.64c-0.63453-0.32061-3.8563 4.8874-6.2408 8.5742-2.6858 4.16-5.6307 9.5101-5.2449 9.7591 0.42409 0.28009 4.4713-4.4055 7.2126-8.6328 2.4374-3.7702 4.8186-9.4151 4.2731-9.7004" fill="#fff"/>
 <g fill="#e18b4f">
  <path d="m242.63 278.24c-10.77-7.8995-27.318-10.428-44.448-11.098-11.188-0.4415-27.252 0.53197-41.574 6.012-0.97648 1.2031-1.9759 2.3933-2.982 3.5929 12.527-5.3743 25.541-8.1376 44.291-7.4825 21.596 0.76901 38.59 5.57 44.665 11.357 0.17365 0.17125 0.52393-2.04 0.048-2.3824"/>
  <path d="m262.44 389.09c-0.31011-0.85597-0.69903-1.7615-1.1632-2.7462-4.2038 9.1817-14.365 11.467-25.216 11.328-5.1684-0.0719-10.642-0.74264-15.052-1.745-0.50368-0.10497-0.91069 1.6831-0.41736 1.8521 4.5994 1.5038 10.074 2.1246 15.491 2.1932 15.131 0.19335 22.717-4.0631 26.358-10.882"/>
  <path d="m255.05 374.13c-6.1043 4.0315-15.4 6.0634-24.607 5.7064-14.623-0.56747-28.159-5.3335-36.442-13.36 0.52915 1.3318 1.0938 2.7284 1.729 4.2259 10.787 8.1836 24.1 10.994 34.81 11.435 9.643 0.3775 17.812-1.3211 25.553-6.4345 0.42674-0.29019-0.61176-1.8631-1.0425-1.5724"/>
 </g>
 <g fill="#753916">
  <path d="m169.24 166.06c3.2525 9.5125 5.1516 9.2235 2.3411-1.6586-6.9174-26.78-8.0582-60.416-6.2078-80.558-3.4982-0.69359-6.5622-1.7075-8.9264-3.0976-0.0967 38.899 5.2804 63.298 12.793 85.315" opacity=".267" style="mix-blend-mode:normal"/>
  <path d="m313.34 160.39c-5.8468-1.7577-9.3946-0.79228-13.28 3.1767-2.4337 2.4929-6.0379 5.5094-8.6235 7.2494-4.3671 2.9538-19.619 9.5171-42.699 15.153 1.182-0.12213 2.3658-0.23227 3.5497-0.31688 25.931-1.8759 35.377-7.7541 47.323-15.791 3.6238-2.4375 4.8761-2.8164 7.2161-2.5951 2.9356 0.27804 8.1715 2.676 11.612 4.1609 3.6079 1.5698 8.0602 1.3052 10.918-1.7716 1.1812-1.2739 2.4346-4.119 1.7292-6.9649-3.5908 2.2824-11.533-0.43934-17.746-2.2995" opacity=".267" style="mix-blend-mode:normal"/>
  <path d="m119.44 272.72c-2.7489 0.38181-5.1626 0.0396-7.4449-2.8361-2.7115-3.4169-4.9538-7.8585-7.3954-14.413-2.4094-6.4853-1.329-11.182-7.0796-14.415-5.8826-3.303-16.257-2.2263-22.364 2.6581-4.7838 3.841-8.3765 5.475-13.745 4.891-4.0125-0.45585-6.8492-1.8354-9.1524-4.483-0.54649 2.7174-0.09166 5.4294 1.1596 7.4668 2.418 3.9888 6.3994 6.6247 12.621 5.9633 3.3969-0.64142 6.0396-1.9042 7.7063-2.9038-3.1079 6.2375-5.5998 16.2-2.2802 23.269 0.55497 0.0881 1.1211 0.11669 1.7155 0.11525 7.4875-0.11512 8.5623-7.7011 10.17-13.548 3.9347-3.7691 14.527-4.0995 17.626-2.4383 0.14427 0.65429 0.28881 1.3876 0.44983 2.2471 1.4208 7.5116 6.4256 13.873 14.66 15.557 5.8864 1.2106 10.124-0.93192 12.045-6.5932-2.5548-1.1053-5.9238-0.93006-8.6917-0.5368" opacity=".267" style="mix-blend-mode:normal"/>
  <path d="m179.43 302.41c-3.8011-0.71489-7.8137 0.58848-7.8137 0.58848-15.657 15.936-12.63 25.415-5.4922 44.191 3.3092 8.7131 0.23079 16.584-20.451 17.192 11.758 4.4488 29.282 3.5284 37.246-6.1626 1.4921-1.8154 1.0473-3.5227 0.53284-5.1978-1.1409-3.7313-3.621-9.8849-6.4156-16.59-1.2876-3.0753-1.237-3.8612-0.74376-6.574 0.7615-4.2038 3.1326-9.8595 5.1867-13.43 1.9353-3.3556 3.6061-3.362 5.0425-2.9434 0.92045 2.1246 1.4215 4.5339 1.6811 7.5274 2.3569-8.7765-5.2618-17.93-8.773-18.601" opacity=".267" style="mix-blend-mode:normal"/>
  <path d="m267.43 425.28 0.0154 1e-4c-0.16352-0.28932-0.36025-0.5775-0.59558-0.84685 0.89792 3.5672-5.667 6.1517-12.621 5.8429l-8.0632 44.823c8.8229-0.13746 15.711-3.3903 16.435-8.1576 0.13322-0.84094 0.27827-2.2203 0.41597-3.5943l-0.27668-0.3957 5.1999-33.235c0.0788-0.48691 0.12629-0.96044 0.14196-1.4246 0.0232-1.1058-0.16388-2.1274-0.65351-3.0123" opacity=".267" style="mix-blend-mode:normal"/>
  <path d="m294.28 422.98-8.3679 46.498c4.3124-0.0256 8.306-0.7061 11.353-2.1428 2.4852-1.183 2.5706-2.2907 2.8903-3.5946l2.4408-12.928 5.814-32.071c-0.94908 3.0284-8.8914 4.3322-14.13 4.2385" opacity=".267" style="mix-blend-mode:normal"/>
  <path d="m315.83 422.96-5.0513 28.104c2.763-0.16907 5.133-0.62926 6.7896-1.411 1.9837-0.94317 2.4736-1.9172 2.8971-3.604 1.4179-5.7372 5.0424-21.453 6.0665-25.883-2.2094 2.4148-7.1835 2.9474-10.702 2.7936" opacity=".267" style="mix-blend-mode:normal"/>
  <path d="m232.8 303.31c-3.2031 27.121-0.70696 39.747 15.947 79.589 5.3638 12.844 1.2267 20.447-9.7549 24.942 9.6641 0.12452 16.853-3.2521 20.321-7.178 4.3706-4.9464 5.1764-8.1136 0.59567-17.127-10.997-21.603-16.122-37.829-19.127-66.296-1.3667-12.968 5.9998-27.465 0.58385-51.362-6.6633-29.429-20.551-39.818-31.435-67.993 6.2164 27.938 19.643 45.294 22.924 61.38 3.3118 16.352 1.7266 28.941-0.0558 44.045" opacity=".267" style="mix-blend-mode:normal"/>
  <path d="m283.4 370.17c-0.0959 2.752 1.5181 4.7177 2.7201 5.6112 4.5436 3.3801 12.758 0.45574 18.506-6.5533 1.0184-1.2266 1.9813-2.6146 2.8265-4.0874-8.9907 9.817-19.165 9.0895-24.052 5.0295" opacity=".267" style="mix-blend-mode:normal"/>
 </g>
 <g fill="#ffe450">
  <path d="m207.5 365.01c-5.9161-15.848-4.2173-28.073-4.1672-35.338 0.0542-7.2906-4.8786-7.1679-5.3818-0.0287-0.73798 10.875-1.1038 20.844 6.5268 35.731 2.0175 3.9044 4.8126 4.4424 3.0221-0.36403"/>
  <path d="m87.425 315.51c-1.0633 4.2655-1.8767 8.457-1.899 10.207-0.0259 1.8049 0.62856 2.2721 1.5509 0.1254 0.98426-2.2773 1.6653-5.0873 2.5766-8.2967-0.97957-0.62618-1.764-1.305-2.2284-2.036"/>
  <path d="m283.57 356.24c-1.1394 2.2443-0.12193 2.644 1.3558 0.53575 2.9986-4.3068 7.3921-7.6599 11.101-9.1964 2.0096-0.83516 1.8029-1.7454-0.5538-1.228-4.0071 0.90312-9.8243 5.8027-11.902 9.8886"/>
 </g>
 <path d="m281.33 134.74c-3.046 6.1068-5.516 8.1482-8.053 9.7014-10.209 6.2231-13.378 9.7175-20.946 18.516-6.2735 7.3028-6.8645 7.4532-9.3271 8.3664-11.11 4.141-28.766 6.9045-35.667 7.3732-3.5473 0.23007-3.5825 0.0644-4.4565-4.1719-4.9194-23.683 2.7724-58.265 7.8676-81.153 0.93354-4.1944 2.9732-12.749 3.0946-13.305 1.0313-4.5639 2.0577-6.9395-3.1836-9.9063-13.387-7.6016-42.291-9.1914-55.917-0.8432 0.94233 0.09177 1.8596 0.20819 2.7768 0.34968 12.367-5.943 37.834-6.3294 52.342 1.9003 1.6028 0.90297 2.7593 2.0784 2.6992 3.265-0.61235 5.373-2.0792 11.983-3.3868 18.193-4.8787 23.069-12.86 57.811-7.8781 81.829 1.0341 4.988 2.0888 5.7184 6.1538 5.4504 6.8207-0.4554 25.203-2.9216 36.12-7.4553 3.7848-1.578 4.1664-1.8898 9.9507-8.8008 6.97-8.3105 11.747-12.832 20.605-18.232 3.3769-2.0646 4.8661-3.4386 8.6239-10.306 7.6657-13.963 16.649-12.326 17.704-7.1836l1.8039-1.8412c-3.5504-5.8833-13.437-6.7576-20.927 8.2541" fill="#0f141b"/>
 <path d="m246.43 323.67c-1.5487-0.95337-3.3208-1.8745-5.238-2.7677 0.27638 2.4085 0.58092 4.7334 0.89278 6.978 1.0745 0.11167 3.1797 0.32138 5.467 0.37248 0.27984 8e-3 0.54182 7e-3 0.77261-5e-3 1.8455-0.97471 1.6346-2.4208-1.8944-4.5773" fill="#292526"/>
 <g fill="#0f141b">
  <path d="m215.66 403.6c-6.6027-3.0525-14.818-18.542-19.348-28.749-8.3363-18.805-9.3585-25.276-8.881-39.252 0.48739-14.502 0.66988-20.827-4.0318-25.712-2.011-2.0798-1.2968-3.132 1.2465-1.0267 5.6477 4.6929 4.907 11.854 4.404 26.795-0.46965 13.667 1.0355 19.352 8.9954 37.99 4.2623 9.9923 12.104 25.102 19.843 28.543 14.79 6.5909 34.045 5.4214 40.836-2.253 4.6809-5.313 4.1566-8.4005 0.27004-16.038-11.489-22.579-17.162-41.427-19.393-66.577-0.44369-4.9886 0.38358-10.039 1.2136-15.913 3.6094-25.395-1.0961-41.062-7.4232-55.937-4.0165-9.4544-18.104-30.091-23.624-45.909-0.96408-2.7746-1.4197-4.6756 3.0983-6.5769 5.2762-2.2246 23.444-7.1759 39.364-8.3212 26.497-1.9225 35.972-8.105 46.931-15.469 6.7106-4.5212 9.5781-3.0802 18.502 1.0201 4.1492 1.9057 8.0497 2.1844 11.102-1.104 2.0521-2.2061 2.3287-7.0627-0.6323-9.5864-3.6989-3.1477-6.0528-3.6329-8.7803-4.1903-5.7428-1.1717-11.073-3.6624-11.069-8.7656 2e-3 -6.2881 2.859-10.746 9.7561-16.521 6.5655-5.4874 8.2496-8.9808 7.8298-12.09-0.40492-3.0945-2.9636-6.0332-6.2926-6.0973-8.1809-0.15853-15.372 16.127-22.949 21.713-1.8245 1.358-3.1021 2.0156-4.4313 2.2033-2.5148 0.36433-2.5916-0.43812-0.1631-1.0006 1.0588-0.23914 2.6199-1.1218 4.3458-2.8298 10.869-10.797 13.651-21.502 23.004-22.034 5.1305-0.2881 8.7196 4.7616 8.8425 8.0642 0.14431 3.9188-1.1301 6.6094-9.1526 13.312-7.6834 6.4349-9.2965 10.058-9.3679 15.484-0.0516 3.7886 6.423 6.259 9.9758 6.9811 2.8219 0.57521 5.4846 1.1182 9.5025 4.5382 3.5704 3.0481 4.0906 8.9142 0.95745 12.295-4.3718 4.7095-8.9582 2.9542-13.127 1.1058-9.7899-4.3375-11.523-4.4332-16.961-0.77659-18.067 12.146-22.983 13.754-47.708 15.546-16.847 1.2177-34.619 6.2291-38.858 8.0059-3.4044 1.437-3.1139 2.3003-2.2058 4.5018 7.462 18.187 17.331 31.931 23.775 45.817 8.4423 18.206 11.034 33.586 7.7345 56.851-0.81076 5.763-1.7098 10.729-1.2041 15.513 2.8826 27.309 7.8877 43.36 19.423 66.023 4.7202 9.2814 3.9193 12.988-0.69997 18.221-7.992 9.0303-27.529 10.104-44.649 2.2052"/>
  <path d="m186.55 314.35-0.27714-2.1339c-1.6695-0.34313-5.3509-1.7263-10.977 17.502-0.77785 2.701-0.52145 3.8652 0.79687 7.027 2.5076 5.991 5.0304 12.458 6.2094 16.32 0.51765 1.6954 0.79447 3.0101-0.40006 4.4567-9.3469 11.381-34.977 10.176-44.033 0.88211-2.1623-2.2173-2.4485-3.36-6.2135-11.4-12.159-26-7.7948-33.944 17.254-63.073 19.63-22.835 36.248-41.573 24.298-76.39-1.1415-3.3528-2.1125-3.9513-5.2607-2.6518-3.0874 1.2896-12.923 7.9174-16.256 10.374-3.6672 2.7066-4.6155 4.3376-6.5812 8.0932-4.411 8.4212-10.239 17.178-25.5 28.479l0.45853 2.7531c15.519-11.506 21.971-21.894 26.483-30.486 1.8258-3.4916 2.5879-4.9384 6.1097-7.5422 3.6855-2.722 13.148-9.0314 15.91-10.176 2.0657-0.84847 2.2784-0.71681 3.1143 1.6794 11.405 33.23-5.2764 52.219-24.38 74.432-25.538 29.699-30.177 38.636-17.693 65.352 3.6852 7.9074 4.4713 9.846 7.0579 12.497 10.147 10.426 36.61 11.257 46.862-1.2313 1.8214-2.2184 1.3579-4.7544 0.8849-6.3282-1.1942-3.9305-3.9974-10.688-6.6447-16.669-1.0558-2.3936-1.4073-3.7835-0.68928-6.113 4.852-15.737 7.7059-16.24 9.469-15.655"/>
  <path d="m115.91 280.65c-7.9605-1.6375-13.673-7.6963-15.29-16.207-1.0944-5.8432-1.3955-6.7713-2.1172-7.8554-1.7076-2.5909-1.0813-3.2129 0.99418-0.66123 0.93862 1.1652 1.5482 2.0472 2.7158 8.2111 1.4796 7.8472 7.0529 13.359 14.424 14.44 5.16 0.7594 8.8334-1.0167 10.336-5.9777 0.9159-3.0022 1.3424-5.5628-3.5038-10.212-4.5853-4.4004-4.954-8.0123-4.4658-10.271 0.353-1.5838 0.86762-1.7176 1.0826 0.31414 0.19606 1.8893 0.45053 4.9044 4.504 8.7968 4.3095 4.1377 6.4162 7.0336 4.6905 12.21-2.2651 6.8153-7.7556 8.3638-13.37 7.2128"/>
  <path d="m100.79 261.09c-4.5866-2.2669-12.577-1.3876-17.288 2.2877l-0.13793 1.8564c3.5292-3.7819 14.852-3.483 17.542-2.2875z"/>
  <path d="m72.809 278.84c-11.11-0.14235-14.501-14.735-7.4761-21.536 0.31955-0.3102 1.6923 0.40598 1.3686 0.71658-5.4839 5.3109-3.3172 18.951 6.4726 18.827 6.0887-0.0991 7.5156-5.2972 8.8938-10.691 0.35154-1.3631 0.82667-3.1415 1.3381-4.6971 0.33187-0.94819 0.46902-1.5861 1.5493-2.3569 1.8791-1.3545 2.5575-0.66264 0.81844 0.78552-0.63747 0.52818-0.83335 1.3669-1.061 2.215-0.09078 0.28523-0.73412 3.1223-1.0788 4.451-2.3173 9.0445-3.9901 12.378-10.825 12.287"/>
  <path d="m165.37 182.38c0.56291 2.7111 0.0488 5.2194-1.6597 7.7479-2.6715 3.9414-12.918 11.439-22.445 16.461-16.877 8.9159-30.802-2.8521-51.981 15.332-11.83 10.155-18.836 3.48-32.806 13.876-6.2035 4.6215-6.8116 10.888-3.9461 16.218 4.209 7.8303 17.242 10.125 26.122-0.90496 3.1566-3.9249 7.8369-4.7549 9.5248-5.4461 2.4096-0.98354 2.4584-1.6527-0.24523-1.4072-4.8018 0.44213-8.1685 2.9002-10.541 5.8448-6.0787 7.5538-17.594 9.4903-22.713 1.0807-3.2502-5.3169-0.29624-11.122 2.9346-13.495 14.609-10.787 18.689-3.2356 32.715-14.535 22.253-17.923 32.756-4.9272 51.724-15.149 8.2528-4.4485 21.299-13.039 23.278-16.938 1.85-3.6495 2.2458-5.9139 1.6202-9.0098-8.0389-39.851-14.057-67.746-14.201-96.521-0.56237 0.47847-1.4696 0.95916-1.9881 1.4513-0.66456 28.84 11.267 79.525 14.608 95.394"/>
  <path d="m212.57 74.833c-0.53473 8.2963-40.6 12.877-53.57 6.2802-0.56785 0.31718-1.1325 0.65466-1.6769 1.0138 11.166 6.2464 48.151 4.1975 55.312-3.8363 0.48635-0.53679 0.49797-3.117-0.0649-3.4577"/>
  <path d="m254.52 371.94 0.78632 2.475c15.697 10.518 32.377 22.473 47.604 35.289l2.8544 0.13749c-16.269-13.848-34.478-26.713-51.245-37.902"/>
  <path d="m177.39 325.72c3.1453 1.8698 6.7424 4.2149 10.972 6.7686l0.10816-2.0138c-3.9196-2.359-7.2871-4.3672-10.247-6.1426z"/>
  <path d="m112.5 320.66c0.28922-0.0111 5.0744-0.27534 11.833-0.49964l0.24848-1.6125c-6.9866 0.22883-11.952 0.48157-12.256 0.50625z"/>
  <path d="m231.08 421.06c-0.31441 1.7438 5.426 6.9539 17.947 8.0472 11.333 0.97102 16.916-1.6365 17.115-3.7566 0.15522-1.7761-5.6374-5.7009-17.507-6.8796-9.2585-0.92676-17.117 0.0764-17.555 2.589m17.807 9.8415c-7.8982-0.74524-16.324-3.8081-18.621-7.2593-0.64246-0.95565-1.3256-2.0336-1.1559-2.9054 0.83837-4.1914 10.806-4.9356 19.695-3.8779 13.13 1.5636 19.228 5.9295 18.944 8.6538-0.47396 4.5645-9.4582 6.2878-18.862 5.3888"/>
  <path d="m308.92 417.49 9e-3 -1e-3zm-39.2-5.7158c-0.42783 2.9351 7.3768 8.6901 19.582 10.039 11.743 1.295 18.334-1.5142 18.805-4.3857 0.38519-2.3043-7.7036-7.8383-19.012-9.2458-8.389-1.0519-18.874 0.16751-19.375 3.5928m19.414 11.638c-15.161-1.9559-21.773-7.947-21.006-11.936 0.77493-3.9939 10.465-6.2316 21.163-4.895 11.695 1.4568 20.748 7.1952 20.434 10.981-0.4376 5.3736-10.553 7.1483-20.592 5.8498"/>
  <path d="m108.9 328.99c1.6123-0.28794 2.7351-1.2571 3.0247-2.2608 0.31768-1.1372 1.166-4.2989 1.2991-5.3186 0.31056-2.2006-0.37945-2.9905-1.179-3.6586-4.8622-4.1099-16.133-6.8958-24.124-5.9626-2.1216 0.25021-3.4304 1.175-4.0616 3.22-0.55556 1.8206-1.9665 8.6463-2.339 10.799-0.43726 2.5456-0.3889 2.9952 0.58613 4.3832 0.746 1.0552 2.9237 2.7544 4.4303 3.3736l0.63095-1.7663c-1.0469-0.50292-2.8932-1.8028-3.5492-2.7396-0.67011-0.947-0.65319-0.97052-0.31156-3.1596 0.30931-2.03 1.5568-8.6335 2.1015-10.419 0.43403-1.4182 1.0282-1.906 2.5085-2.0851 7.4827-0.8837 18.59 1.7917 23.09 5.5906 0.47835 0.40854 0.82954 0.70059 0.61731 2.2032-0.12387 0.92269-0.75962 3.8584-1.0595 4.9012-0.26911 0.95048-0.64675 1.4654-2.1323 1.7908-2.435 0.52195-2.5712 1.6753 0.46782 1.1089"/>
  <path d="m102.76 329.8c-2.9801 0.11188-5.9707-0.45246-8.0046-1.5762-2.3148-1.2651-1.6939-2.2521 0.52262-1.0792 1.7572 0.93187 4.5552 1.3862 7.3586 1.4404 2.9444 0.0521 2.3356 1.112 0.12347 1.215"/>
  <path d="m87.824 316.63c-0.97446-1.334-0.21906-2.0311 0.92249-0.61621 2.6042 3.2181 13.417 5.771 19.373 5.3402 2.2968-0.17101 2.5929 0.64997 0.0274 1.0311-5.4919 0.80008-17.391-1.7335-20.322-5.7551"/>
  <path d="m127.25 339.42c-4.7776-0.68452-7.5623-3.0457-7.4037-4.5978 0.10249-0.97734 1.3226-2.3699 5.0276-1.9637l-0.44501-1.6574c-3.4784-0.18948-5.7898 1.09-6.0031 3.4536-0.26532 2.9626 3.5204 5.8009 9.7923 6.774z"/>
  <path d="m125.95 350.94c-2.7895 6e-3 -4.9579-1.229-6.087-2.1594-1.4782-1.2102-1.168-2.1383 0.43289-1.0687 1.4985 1.0031 3.5219 1.8333 5.7801 2.1138 1.7954 0.22282 1.6931 1.1253-0.12603 1.1143"/>
  <path d="m264.1 450.45c0.79989-5.5491 1.9887-12.538 2.6712-16.717 0.37461-2.1903 1.2672-2.1488 0.97188 0.12009-0.55301 4.2072-1.5086 11.861-2.4023 16.835-0.68412 3.6839-1.7379 3.2403-1.2407-0.23843"/>
  <path d="m266.13 424.74 1.98-13.152c0.37407-0.28161 1.5952 0.34691 1.5222 0.79136l-1.9014 13.252c-0.0575 0.41278-1.6637-0.46052-1.6008-0.89078"/>
  <path d="m258.8 410.72c-0.36197 2.0386 1.2918 4.4012 9.0615 6.5772l0.40418-1.7543c-4.1078-0.83536-7.9281-2.8155-7.8956-4.4261 0.0319-1.8183 6.0571-2.8677 11.978-2.1325l3.1318-1.6295c-9.2045-0.74843-16.125 0.34705-16.68 3.3653"/>
  <path d="m216.5 464.17c-3.0808-2.9782-18.27-16.807-38.674-35.714-34.931-32.345-81.871-76.131-86.303-80.664-5.5546-5.6521-6.7019-13.578-3.3033-20.915 0.64585-1.3945 1.3195-1.0886 1.2319 0.43946-0.21878 3.7576 2.24 9.6278 6.0617 13.146 5.0601 4.6598 116.06 103 128.41 113.92l5.178-33.523c0.58679-0.0738 1.911 2.3332 1.911 2.3332l-5.7291 32.898c-0.15846 0.99067-0.61985 1.095-1.335 0.4838-1.233-1.1088-124.19-110.01-129.52-114.93-3.39-3.1149-5.5772-7.499-6.1554-12.012-1.5578 5.7975-0.23024 11.744 4.7279 16.799 4.4236 4.5058 51.397 48.115 86.315 80.454 20.418 18.914 34.689 31.703 38.893 35.55 5.6655 5.2098 12.403 8.4484 18.934 9.9905 14.622 3.4453 23.97-0.66207 24.748-5.6337 0.16959-1.0756 0.31914-2.5306 0.51346-3.8889 0.11132-0.89978 0.28899-1.0327 1.2458-0.41934 9.2606 5.9625 24.821 7.6411 33.087 3.7311 1.9492-0.92509 2.1204-1.66 2.3806-2.767l8.3258-43.697s1.6295-1.9417 2.2598-1.953l-8.8345 46.595c-0.29589 1.2709-0.5994 2.5971-3.2596 3.8544-8.5199 4.0346-24.022 2.4378-33.931-3.3481-0.0832 0.89102-0.22095 2.2401-0.31882 2.8383-0.98812 6.5114-10.763 10.651-26.436 7.2189-7.3182-1.6009-14.712-5.2688-20.416-10.793"/>
  <path d="m297.91 408.9 3.6881 1.985c8.5615-1.0264 24.127 4.4775 23.995 8.0546-0.11514 3.2458-7.41 3.6248-11.95 3.1968-3.8854-0.36429-3.7993 0.49507-0.0256 1.1436 5.4178 0.93775 13.177 0.0132 13.964-4.1575 0.98701-5.2179-18.621-11.031-29.671-10.223"/>
  <path d="m325.61 420.27c-0.92546 4.0143-4.1028 19.387-5.5501 25.225-0.37693 1.4879-0.71689 2.2337-2.4545 3.0536-2.9528 1.4007-8.6719 1.7514-14.664 1.1193l-0.52954 2.1075c4.7456 0.565 11.676 0.88586 16.073-1.1954 2.2006-1.0409 2.8456-2.2108 3.3307-4.1321 1.6444-6.6434 5.7296-27.209 5.7802-27.408-0.51149-0.17852-1.8599 0.68181-1.9867 1.2306"/>
  <path d="m258.8 410.72-1.4233 9.0442 1.6058 0.23299 1.3163-8.324c0.0655-0.43901-1.0319-0.9212-1.4987-0.95321"/>
  <path d="m247.05 336.78c3.3017 1.5283 16.058 6.8706 19.68 10.006 1.2419 1.0866 1.7531 0.57487 0.65815-0.86007-1.9257-2.5512-16.488-9.3538-19.761-10.65-0.31174-0.12779-4.426-0.31357-4.4597-0.31639 0.0913 0.55901 0.1833 0.91826 0.28851 1.4625 0 0 2.2492 0.12381 3.5932 0.35793"/>
  <path d="m258.94 341.2 9.9881-40.109c0.10413-0.43286-1.4682-0.81682-1.5715-0.37992l-9.83 39.447-13.446-0.59304c-0.0106 0.24296 0.15201 0.93168 0.19332 1.2618 0 0 12.656 0.44322 14.666 0.37325"/>
  <path d="m246.59 335.85 8.6792-37.018c0.0905-0.43895 1.6677-0.0751 1.5676 0.35561l-8.6745 37.021c-0.0852 0.37152-1.6716 0.0783-1.5723-0.359"/>
  <path d="m260.74 330.5-10.575-3.2862c-0.4368-0.12824 0.0464-1.6793 0.47565-1.5455l10.584 3.2889c0.424 0.12653-0.40619 1.5634-0.48442 1.5428"/>
  <path d="m264.79 314.41-11.404-2.785c-0.44564-0.10617-0.0631-1.6864 0.37991-1.5715l11.405 2.7931c0.44029 0.0988-0.32865 1.5798-0.38122 1.5634"/>
  <path d="m271.43 333.9c-1.7018-1.3568-3.8472-2.4249-6.0342-3.3657 0.17723-0.77328 2.7644-11.862 3.7268-15.242 2.0921 0.28252 5.8356 1.4851 6.0617 2.2342zm-7.7164 15.972c11.664 0.45127 14.402-9.9386 9.0899-14.715l3.9784-17.371c0.0842-0.3506 0.0397-0.87979-0.50165-1.4694-1.5427-1.707-6.592-2.655-7.7146-2.7048-0.38712-0.0532-0.6998 0.22245-0.80768 0.58086-0.99614 3.3771-3.8619 15.688-4.0892 16.64-0.0951 0.38563 0.11368 0.7924 0.48464 0.9315 2.9559 1.2187 5.9558 2.6299 7.684 4.735 3.9898 4.8801 0.83731 11.94-8.3205 11.733-4.9051-0.1148-11.415-1.81-18.649-4.9302 0.13207 0.65633 0.2922 1.308 0.4387 1.9495 4.695 1.9372 12.129 4.3759 18.407 4.6203"/>
  <path d="m250.82 343.68c5.6892 2.6276 9.0617 2.0401 4.5655-0.23329zm6.1947 2.6159c-2.5815-0.0448-5.6225-1.2495-8.1521-2.4297-1.0988-0.51522-0.82669-0.93805 0.24284-1.0086 0 0 4.2604-0.19178 5.7539-0.26479 0.48248-0.0252 1.0161 9e-3 1.4438 0.25937 3.8784 2.1828 2.7822 3.4678 0.71142 3.4437"/>
  <path d="m288.84 357.21c-5.7022 7.1597-5.424 15.29-2.129 17.797 4.3448 3.3085 11.837 0.21094 17.225-6.3486 6.7457-8.2323 7.1205-15.546 4.0549-18.227-3.8776-3.4013-11.92-2.2808-19.151 6.7792m-3.194 19.222c-4.4622-3.3143-4.6307-12.149 1.8528-20.28 8.2774-10.391 17.482-11.119 21.739-6.9976 4.6577 4.5384 1.4293 13.989-3.9814 20.59-7.0959 8.6346-15.2 9.9649-19.611 6.6879"/>
  <path d="m285.64 376.43c-0.15048-0.13343-3.7512-3.239-5.1333-4.5731-2.9201-2.809-3.6154-11.304 2.77-19.324 7.2696-9.0996 15.941-9.8112 20.259-7.7585 1.6922 0.81352 5.2663 3.9608 5.6967 4.3813-0.45611 0.18676-1.9797-0.0263-2.6464-0.59552-0.93779-0.8035-2.8707-2.0727-3.7794-2.4941-3.897-1.8637-11.628-0.84383-18.271 7.484-5.9936 7.515-5.1759 14.593-2.9844 16.963 0.68634 0.74058 2.0084 2.0636 3.0584 2.9944 1.0924 0.98624 1.202 2.27 1.0297 2.9219"/>
  <path d="m85.619 287.28c-1.7531 2.1781 0.434 7.5978 9.1998 13.034 6.4914 4.0271 11.942 4.5062 13.297 2.3847 0.94842-1.4772-0.79476-5.1019-8.5701-11.111-5.8103-4.4917-12.223-6.4275-13.927-4.3072m8.3577 14.194c-11.386-7.0589-10.819-13.705-9.62-15.202 2.3522-2.9412 10.348-0.21995 16.09 4.1831 6.8139 5.2138 10.58 10.251 9.0919 13.01-0.86113 1.6043-6.3125 3.7494-15.562-1.9904"/>
  <path d="m89.934 302.98c-9.4833-6.945-8.7115-11.595-8.0571-12.937 0.62036-1.2448 2.1445-3.3482 2.4197-3.7008 0.27636-0.34453 0.62054 1.4333 0.20083 1.9717-0.54095 0.71202-1.3224 1.9124-1.5076 2.4084-0.76608 2.0088 1.0989 6.1501 7.8529 11.099 8.642 6.3254 14.265 5.1046 15.134 4.3141 0.60043-0.55124 1.2148-1.425 1.8008-2.319 0.37311-0.56822 1.5564-0.68218 1.6544-0.18246-0.0673 0.0983-1.6802 2.5488-2.4023 3.3736-1.3162 1.4914-7.4678 3.0146-17.096-4.0274"/>
  <path d="m7.3523 247.97c-5.8127 2.2498-6.1346 4.6103-5.7696 5.395 0.59213 1.2592 4.5438 1.1635 8.4953-0.23389 4.2339-1.5015 6.673-3.987 6.0953-5.3358-0.56235-1.2806-4.1217-1.6607-8.821 0.17463m-7.2412 5.7556c-0.83371-2.8166 3.181-5.3054 6.8261-6.7193 5.91-2.2906 9.949-1.469 10.612 0.42741 0.93261 2.709-3.0198 5.5536-6.9626 6.9536-5.6296 1.9953-9.7082 1.8996-10.475-0.66172"/>
  <path d="m24.695 261.77c-0.15564 0.0916-0.44979 1.6786-0.29038 2.0186 3.2036 2.7627 15.015 4.479 19.658 2.3453 0.17481-0.357 0.2536-1.9127 0.11375-2.2101-4.8466-1.9999-15.203-3.0053-19.481-2.1537m-0.89649 3.0447c-0.5209-0.38911-0.52408-0.84185-0.49227-1.2588 0.02343-0.56938 0.11523-1.1291 0.22338-1.7664 0.09677-0.50233 0.40877-0.9358 1.1763-1.0235 6.1602-0.68045 14.847 0.36037 20.052 2.2393 0.62741 0.22608 0.61629 0.51498 0.63832 1.3639 0.01173 0.52224-0.05305 1.2562-0.11792 1.7492-0.08493 0.67921-0.2807 0.98151-0.84281 1.1813-5.7617 2.1292-16.416 0.70246-20.637-2.485"/>
  <path d="m28.266 263.74c-2.1576-0.65861-1.8617-1.3432 0.36434-0.77472 3.1787 0.79977 7.0536 1.2531 10.903 1.2698 2.1302 6e-3 1.6591 1.0185 0.01967 1.0905-3.2204 0.14275-7.4148-0.40823-11.287-1.5856"/>
  <path d="m255.94 299.74c5.7312 0.84507 11.302 1.6248 17.462 2.9072 5.9808 1.2285 8.2917 4.0246 7.6542 8.6573-0.44968 3.209-3.4295 5.1838-5.239 5.3334-0.43875 0.0377 0.29271 1.9983 0.31538 1.9905 2.3569-0.18487 5.9384-2.8816 6.5231-7.0982 0.73961-5.2814-0.91127-8.8755-8.959-10.665-6.1619-1.3695-11.772-2.0596-17.517-2.9148-3.4867-0.52084-8.6226-0.62295-13.763-0.85732-0.0733 0.54428-0.1446 1.0757-0.2161 1.6072 5.1436 0.22559 10.291 0.52547 13.739 1.0401"/>
  <path d="m116.62 345.14c0.35469-2.6694 1.9326-11.148 1.8369-10.588 0.41043-0.26243 1.4498 1.036 1.3343 1.6537-0.45946 2.3331-1.2988 6.5953-1.6613 8.8086-0.37874 2.3947-1.7683 2.06-1.5099 0.12574"/>
 </g>
 <path d="m204.85 385.78c-9.0122-1.5325-16.54 0.17357-17.111 2.8409l-0.0215-0.0505-2.868 14.923 33.378 7.1687 2.6135-15.643 0.0452-0.1571c0.26693-2.6468-6.4728-7.4569-16.037-9.0824" fill="#fdd34e"/>
 <path d="m144.2 282.88-4.2385-2.8351c-2.5127-1.1787-7.7215 3.8046-12.192 10.971-3.9436 6.3405-6.2446 13.777-4.2017 14.829 0.0527 0.0414 4.8956 1.6883 4.8956 1.6883 5.6467-1.2537 16.7-17.267 15.736-24.653" fill="#a5abc1"/>
 <path d="m144.2 282.88-2.1886-1.4603c-6.4561 17.579-14.868 21.438-18.794 19.775-0.60747 2.3946-0.57386 4.1815 0.35105 4.6503 0.0527 0.0414 4.8956 1.6883 4.8956 1.6883 5.6467-1.2537 16.7-17.267 15.736-24.653" fill="#9094a8"/>
 <path d="m144.2 282.88-3.8817-2.5856c1.509 2.4695-1.413 9.5666-4.7365 14.533-3.6666 5.4637-8.4812 11.564-11.524 11.212l4.4064 1.4937c5.6467-1.2537 16.7-17.267 15.736-24.653" fill="#9094a8"/>
 <path d="m251.98 308.43c-23.493-17.14-71.62-22.926-108.68-19.705-1.5969 4.6145-4.9278 9.9693-8.2953 13.8 39.794 0.96961 91.707 9.0823 111.42 21.15 3.5289 2.1566 3.7398 3.6026 1.8985 4.5767 1.523-0.0449 2.0514-0.4259 2.5236-2.1458 0.54805-1.994 2.1994-11.4 2.5345-13.501 0.35207-2.0993 0.38102-2.865-1.4046-4.1748" fill="#38383a"/>
 <g fill="#fdd34e">
  <path d="m181.64 71.233c-0.87603 4.3431-2.379 3.848-3.943 0.68464-5.3701-10.818-11.396-23.284-34.76-30.556-19.399-6.0347-22.073-17.13-17.146-28.759 4.1065-9.7273 13.158-13.944 22.694-9.607 27.282 12.426 37.267 47.892 33.154 68.237"/>
  <path d="m229.93 17.763c-5.2408-1.3825-10.591-0.07306-14.867 2.7035-4.8779 3.1619-9.752 8.5148-11.971 14.819 0.12858 6.4747-0.76452 9.9473-1.6474 14.146-0.22887 5.3021-3.6697 15.923-5.569 19.194-1.6712 2.8842-1.3609 3.894 2.6581 2.2737 2.9075-1.1688 6.5877-4.127 10.692-8.8968 7.186-8.3374 13.731-11.043 22.375-14.749 4.7985-2.0428 6.4078-4.185 7.8356-8.0774 2.9919-8.1981-0.53266-19.047-9.5061-21.413"/>
  <path d="m171.35 73.988c-15.742-8.2696-47.35-8.2872-63.429 16.917-5.1148 8.0328-4.3214 13.152-2.4195 17.877 6.1212 15.27 25.939 17.452 32.383 4.9439 1.9578-3.8043 1.4369-5.7487 2.2112-8.7777 3.0191-11.779 14.775-25.42 30.777-28.15 2.7714-0.47388 3.0893-1.4313 0.47733-2.8101"/>
  <path d="m186.07 3.6396c-3.9726-2.6331-7.1942-3.1348-11.557-2.6769-5.348 0.56046-11.82 3.5083-13.917 11.481 6.7594 6.5368 11.729 14.721 15.026 23.258 9.2478 7.9233 11.938 21.79 10.476 34.854-0.38654 3.4939 1.1289 3.7083 3.5183 1.1478 18.125-19.366 19.627-52.706-3.5459-68.064"/>
 </g>
 <g fill="#ffe450">
  <path d="m174.97 46.59c1.292 3.1536 1.7963 2.905 0.92047-0.42461-5.1009-19.187-19.787-36.616-36.109-44.82-2.232 0.18535-4.3295 0.86433-6.2436 1.9791 17.505 6.2811 34.99 27.507 41.432 43.266"/>
  <path d="m195.37 43.871c0.0936 2.8168 0.66473 2.6986 0.97499-0.19241 1.7963-16.599-5.4874-33.26-17.498-42.774-1.3524-0.13286-2.7736-0.10067-4.3321 0.05789-0.71951 0.07586-1.4555 0.20405-2.2143 0.37053 13.89 8.0601 22.526 27.041 23.07 42.539"/>
  <path d="m215.36 26.253c-1.2473 2.4491-0.78062 2.7098 1.0206 0.67356 3.8003-4.3127 10.005-8.1111 15.365-8.5237-0.57739-0.25098-1.1839-0.47643-1.8217-0.63855-1.1427-0.30017-2.2892-0.47081-3.4415-0.52404-4.7421 1.7258-9.2947 5.4543-11.122 9.0127"/>
  <path d="m142.24 76.004c2.5922-0.73066 2.5391-1.5661-0.24719-1.1324-18.417 2.8628-33.716 20.175-36.603 33.634 0.0408 0.0972 0.0673 0.18457 0.11588 0.27647 1.0329 2.5845 2.4692 4.7872 4.1559 6.6121 2.0324-18.363 14.393-34.215 32.579-39.39"/>
 </g>
 <path d="m205.84 396.81-2.3912 16.75c6.4585 0.8678 12.406-0.70616 14.795-2.9414l2.5541-16.44c-0.73331 2.49-6.3051 3.3614-14.958 2.631" fill="#d7a626"/>
 <path d="m248.32 328.25c1.5231-0.0449 2.0514-0.42591 2.5236-2.1458 0.54804-1.994 2.1993-11.4 2.5345-13.501 0.35207-2.0993 0.38102-2.865-1.4046-4.1748-4.8474-3.5343-13.542-7.6844-20.153-10.278-0.16402 1.5446-0.33473 3.1236-0.51969 4.7174-0.59622 4.9878-0.96581 9.4271-1.1024 13.612 5.3315 1.8875 12.702 5.031 16.227 7.1923 3.5249 2.1572 3.7358 3.6033 1.8944 4.5774" fill="#292526"/>
 <g fill="#e18b4f">
  <path d="m167.54 18.168c1.6647-9.7823 13.734-15.411 25.566-8.7489 1.1518 1.3508 1.7016 2.1718 2.4819 3.2589-9.7823-7.9109-25.194-4.7774-26.183 7.8223-0.0673 0.88845-1.9918-1.5797-1.865-2.3323"/>
  <path d="m163.26 13.348c2.2937-8.8327 11.728-12.817 22.883-9.775 1.1957 0.57429 2.603 1.2472 3.388 2.3376-12.857-4.7563-22.925 0.59547-24.492 9.2182-0.10266 0.56982-1.8928-1.3297-1.7792-1.7808"/>
  <path d="m224.5 50.142c15.157-15.709-0.55884-33.714-15.734-23.62 0.40399-1.118 1.0563-2.0395 3.0689-3.5447 15.092-5.8344 28 10.196 16.285 25.751-1.4142 0.53414-2.3314 1.0041-3.6202 1.4139"/>
  <path d="m228.63 48.234c14.257-11.745 4.2416-34.547-14.885-26.699 1.4085-1.2569 2.2092-1.7535 5.0882-2.8926 15.858-2.6699 24.709 15.494 13.462 28.228-1.1204 0.65265-1.7708 1.0499-3.666 1.3631"/>
  <path d="m109.75 88.098c0.70903-1.5171 1.7154-2.1803 2.9566-3.2644-6.9033 22.589 15.749 32.026 28.468 15.006 0.15201 1.0855-0.14863 2.4279-0.72156 3.7856-13.483 14.754-34.613 5.5794-30.703-15.527"/>
  <path d="m154.33 6.1487s-3.1332-2.4332-5.5518-3.1615c-3.1853-0.4577-6.6853 0.54568-9.0077 2.064-12.421 8.16-13.342 25.564-8.0324 31.448 1.1011 0.81016 4.6864 2.0634 4.6864 2.0634-9.0549-4.1912-7.8032-23.899 4.3601-31.934 3.8758-2.5493 7.856-3.0571 13.545-0.47945"/>
  <path d="m159.52 10.082c-1.0132-1.0615-3.6792-3.18-3.8762-3.1895-5.9956-0.27379-11.901 2.3488-15.098 6.4092-6.6919 8.4855-7.0423 21.609-2.275 26.641 1.2974 0.63673 4.4109 1.3681 4.4109 1.3681-7.3782-4.7724-6.6724-18.598-0.58997-26.461 4.1744-5.3843 12.285-7.3393 17.429-4.7683"/>
  <path d="m117.73 113.87c-9.0121-3.878-12.69-12.377-9.1716-24.104 0 0-1.5794 2.4783-2.2887 4.4779-2.3439 9.9014 2.1561 18.063 10.607 21.687 7.8958 3.3822 16.793 1.2281 22.29-7.599 0.3349-1.4394 0.16606-2.0149 0.53317-3.3598-4.6095 9.2438-13.509 12.529-21.97 8.8983"/>
  <path d="m203.73 392.99c-5.578-1.028-9.0651-2.4179-8.8646-3.4071 0.15468-0.8112 4.3798-0.78523 9.6855 0.17924 5.305 0.96028 9.8068 2.7836 9.5842 3.7139-0.11227 0.48406-4.0504 0.68875-10.405-0.48607m11.576-0.5199c-2.3942-1.905-6.4998-3.1608-10.577-3.9346-6.5921-1.2536-9.4403-0.84302-10.883-0.32914-1.5032 0.52369-1.4672 1.4578-0.66479 2.1961 1.2288 1.1345 5.1341 2.9469 10.311 3.9115 5.812 1.0855 9.6142 1.0933 11.357 0.61351 1.3176-0.3606 1.7902-1.3899 0.45588-2.4572"/>
 </g>
 <path d="m138.09 92.374c1.6379-2.8081 1.0618-3.6373-1.2936-1.3277-8.4802 8.3323-12.433 22.879-13.429 30.768 2.3485 0.0952 4.6554-0.26863 6.7826-1.097-1.0834-8.4524 2.9139-19.792 7.94-28.343" fill="#753916" opacity=".267" style="mix-blend-mode:normal"/>
 <path d="m210.06 56.871c-5.0592 5.6201-7.0947 11.217-12.901 14.526 0.39988-0.12356 0.85658-0.28101 1.3742-0.49862 2.9075-1.1687 6.5877-4.127 10.692-8.8968 7.182-8.3367 13.731-11.043 22.375-14.749 4.7944-2.0421 6.4078-4.185 7.8356-8.0774 0.94421-2.5993 1.2395-5.4545 0.9117-8.2289-2.6817 12.343-16.367 10.488-30.288 25.925" fill="#753916" opacity=".267" style="mix-blend-mode:normal"/>
 <path d="m191.62 392.62c-1.0474 4.159-1.7918 7.4992-1.7595 11.037 0.0238 3.2814 1.3066 1.6874 2.022 0.0568 0.92758-2.0892 1.7121-6.3051 2.5435-9.8508-0.99129-0.36644-1.9204-0.78465-2.8061-1.2432" fill="#ffe450"/>
 <g fill="#0f141b">
  <path d="m107.77 92.693c-3.6322 6.6183-3.111 11.802-1.1609 16.491 4.869 11.723 22.453 17.675 30.565 4.1758 1.3065-2.1884 1.0869-3.6872 2.1424-8.6126 3.0918-14.469 20.081-28.277 31.496-28.534 1.5918-0.03109 1.7064-0.96033 0.14014-1.6904-21.289-9.9764-50.807-4.3923-63.183 18.17m-3.2441 16.34c-1.882-5.0368-2.4357-10.369 2.9103-18.743 16.356-25.644 47.49-24.663 64.294-17.02 3.214 1.7297 2.1633 4.0844-0.71736 4.3214-13.677 1.1248-27.824 15.842-30.063 27.535-0.74558 3.8935-0.14035 5.6661-2.1197 9.058-8.7652 15.049-29.3 8.2974-34.304-5.1503"/>
  <path d="m135.94 3.054c-7.8553 3.0612-14.199 15.545-9.7588 25.121 2.4642 5.2912 7.9222 9.5867 17.005 12.418 23.503 7.3073 29.837 19.444 34.705 30.677 1.13 2.5936 2.8998 2.6335 3.2307-3e-3 2.672-21.275-5.5686-55.071-32.873-67.509-4.955-2.2566-8.5592-2.172-12.308-0.70382m40.449 69.155c-5.1389-10.752-10.837-22.972-33.688-30.078-9.5375-2.9689-15.711-7.368-18.37-13.085-4.616-9.943 0.65669-23.458 11.023-27.494 4.2033-1.6379 8.8556-1.3905 13.477 0.70855 28.05 12.774 37.795 49.19 33.724 69.333-0.86574 4.304-4.0659 5.0297-6.1667 0.61496"/>
  <path d="m186.52 2.9618c-4.4278-2.9249-7.8936-3.2412-12.076-2.8002-6.9728 0.72148-12.137 4.6746-14.277 10.351-0.15914 0.4252 1.518 1.8359 1.6515 1.4564 2.5353-8.0654 9.6897-10.018 12.854-10.352 5.2205-0.55212 6.7883-0.0676 10.949 2.6971 22.061 14.608 21.378 46.395 3.4191 66.903-1.3475 1.5547-2.4573 2.2972-2.1357-0.57485 1.5605-13.965-1.6896-26.14-8.7869-33.678-0.86656-0.92743-6e-3 2.3589 0.90452 3.6077 5.3055 7.2605 7.6183 17.87 6.2812 29.891-0.50065 4.4773 2.8977 4.2016 4.9047 1.7949 17.781-21.319 20.077-53.544-3.6888-69.296"/>
  <path d="m230.14 16.986c-5.2408-1.3825-10.823-0.32217-15.658 2.6996-4.5631 2.8485-9.0477 7.9632-11.158 13.61l0.38074 3.481c1.7495-6.3819 6.1878-12.163 11.541-15.623 4.2916-2.7793 9.3563-3.9548 14.483-2.6079 7.3172 1.9254 11.844 12.444 8.9457 20.349-1.6287 4.4451-3.6478 6.0636-7.8056 7.8022-9.3224 3.8827-14.743 6.0643-22.258 14.78-3.8726 4.5075-7.4598 7.5004-10.382 8.6799-2.3338 0.93792-3.2634 0.66954-2.2221-1.1305 3.4667-6.0008 5.798-12.436 6.2906-21.22l-1.6906 4.9833c-0.74984 4.7342-2.6609 10.635-5.4245 15.44-2.5916 4.4566-0.28453 5.0118 3.644 3.4228 3.1575-1.2677 6.9632-4.4252 11.014-9.1116 6.9421-8.0731 13.076-10.799 21.657-14.357 4.3476-1.7987 6.7806-3.5055 8.6974-8.7337 3.8584-10.56-2.7158-20.525-10.056-22.463"/>
  <path d="m206.31 397.29c-6.1115-0.32141-12.378-2.4348-15.973-4.9216-2.0726-1.4377-1.4581-2.1575 0.61038-0.898 3.6131 2.2135 9.2804 3.9423 15.407 4.7145 3.4188 0.43627 3.202 1.2742-0.0443 1.1051"/>
  <path d="m204.98 384.8c-6.7551-1.1563-14.335-0.66429-17.245 1.8148-0.76203 0.65658-1.0906 1.4213-1.2663 2.2817-0.41135 2.0674-2.1298 10.806-2.5421 14.117-0.29847 2.4024 1.3297 2.6193 1.8021 0.2633 0.78158-3.9783 2.2896-11.178 2.8008-13.627 0.2018-0.95612 0.35586-1.4387 1.0362-1.8824 2.0696-1.3855 7.7378-2.2519 15.142-0.98946 7.2231 1.2213 12.423 4.2116 14.264 6.3732 0.72921 0.85001 0.73007 1.5693 0.5959 2.4811-0.40556 2.7401-1.6653 11.309-2.2185 14.597-0.47262 2.8134 1.372 2.6748 1.8594 0.0542 0.60636-3.2428 2.0169-11.524 2.493-14.367 0.24797-1.4627 0.24949-2.2947-0.48474-3.4558-2.53-3.9871-11.52-6.8623-16.237-7.6607"/>
  <path d="m192.14 411.22c-3.2646-2.2954-2.2524-3.1009 0.53873-1.4394 3.5365 2.1262 9.8373 3.5063 14.184 3.2589 2.9128-0.16768 3.1885 0.9105 0.18243 1.3718-5.7311 0.88894-12.243-1.3258-14.905-3.1912"/>
  <path d="m123.93 305.13c2.8471 1.4943 8.4623-6.8863 10.995-10.556 3.4586-5.0055 5.5731-10.807 4.861-13.489-0.0523-0.16626-0.12042-0.27978-0.17566-0.31233-1.6687-0.77162-6.4154 3.0675-11.143 10.667-3.4978 5.6066-5.2877 11.409-4.7713 13.3 0.0344 0.11517 0.10944 0.33976 0.23411 0.39011m3.1583-14.546c4.196-6.731 10.031-12.948 13.208-11.266 2.6192 1.806 0.98882 8.1019-4.2414 15.962-3.0346 4.5704-7.0931 10.156-10.317 11.426-0.81284 0.31965-1.566 0.3426-2.239 0.0409-2.4469-1.1063-1.544-7.9115 3.5889-16.164"/>
  <path d="m134.85 282.43m-11.844 20.213c-0.013-0.0116 1.6988-3.0467 2.138-3.7962 1.0112-1.6786 1.1197-1.2431 0.53738 0.13291-0.447 1.0585-2.1966 5.5274-1.7946 5.7738 0.52785 0.32972 2.1745-2.2718 3.5076-4.3482 1.4756-2.2992 1.7092-1.9381 0.81748 0.29504-0.37911 0.93927-0.9284 2.5176-0.63485 2.711 0.23505 0.14025 0.7757-0.31781 1.5112-1.1115 4.8995-5.2988 7.8402-8.6354 9.8665-15.462 0.34402-0.95022 0.48309-1.551 0.25283-1.688-0.28548-0.1697-1.15 0.6242-2.455 2.1844-1.2284 1.4688-1.465 1.2162-0.62867-0.43805 0.61554-1.2232 3.3966-5.8188 2.7375-6.0606-0.84167-0.31603-2.8357 2.0678-5.0719 4.6241-1.2871 1.4658-1.667 1.2783-0.50704-0.30406 0.70025-0.93347 2.07-2.6831 3.1519-3.9283 1.4905-1.5448 4.1879-1.86 3.9723-0.5815-0.11357 0.67975-1.3907 2.9466-2.2619 4.3113 1.1622-1.2375 1.6058-1.3224 2.0627-0.96857 0.80681 0.63776-2.8613 8.8713-5.8314 12.92-3.9666 5.3837-7.3652 8.2585-7.6532 8.0477-0.17633-0.13749-0.45223-0.93677-0.14521-1.7562-1.4341 2.6044-2.5734 3.0896-2.8326 3.1319-0.0696 7e-3 -1.4266-0.74041-0.73894-3.6888"/>
  <path d="m133.59 287.81c-0.69927-0.51387-6.6609 8.8797-5.8313 9.3765 0.82695 0.48061 6.5764-8.8368 5.8313-9.3765m-5.6889 9.5612 0.0154 1e-4zm-1.0116 1.2171c-1.0312-0.71338 0.90568-4.3396 2.3587-6.7516 1.5262-2.4987 4.1743-6.1245 5.3407-5.4747 1.0796 0.60155-0.83584 4.4364-2.4916 7.135-2.3994 3.9013-4.3327 5.6888-5.2078 5.0912"/>
  <path d="m128.2 308.3-4.7031-1.5533c-0.25416-0.64057 2.1027-1.0292 2.1027-1.0292l2.8947 0.97086c5.2601-1.4818 15.453-16.244 14.948-23.343l-3.9329-2.6188c-0.37296-0.24696 0.41262-1.6517 0.78556-1.4048l4.3584 2.8821c0.18822 0.13556 0.31804 0.34321 0.35168 0.57477 1.028 7.9333-10.287 24.201-16.374 25.539-0.1007 0.0182-0.29014 0.0322-0.4311-0.0171"/>
  <path d="m252.45 307.78c-23.528-17.176-71.892-22.96-108.49-19.935l-1.3623 1.7442c36.45-3.2923 85.372 2.3182 108.9 19.494 1.4275 1.0522 1.4236 1.4104 1.0989 3.3971-0.33487 2.0009-1.9836 11.448-2.5329 13.409-0.4033 1.5047-0.56557 1.606-2.5026 1.5602-2.57-0.0507-4.9415-0.31266-5.7084-0.39967l-0.179 1.6053c0.78778 0.0876 3.2234 0.36003 5.8521 0.41364 2.7293 0.0331 3.3982-0.19977 4.1019-2.7442 0.56781-2.0513 2.2206-11.499 2.5537-13.587 0.36372-2.1553 0.4455-3.3621-1.7318-4.9574"/>
  <path d="m246.84 322.98c-19.725-12.065-71.571-20.201-111.12-21.248l-1.3348 1.5817c39.481 0.88757 91.911 8.9824 111.62 21.055 2.5803 1.5669 2.6626 2.352 2.6607 2.4937-0.0148 0.22285-0.32966 0.5029-0.85688 0.76355-0.40207 0.1864 1.3931 1.0703 1.6482 0.84985 0.51906-0.43819 0.79209-0.9568 0.82375-1.5275 0.0521-1.2353-1.0312-2.4975-3.4336-3.9687"/>
  <path d="m126.91 303.7c1.9961-1.6065 11.499-16.468 12.225-19.128 0.0855-0.29233 0.89371-0.10416 0.81244 0.1876-0.77974 2.8428-10.371 17.852-12.526 19.58-0.10333 0.0794-0.7434-0.45263-0.51199-0.64006"/>
 </g>
 <path d="m201.17 99.629c-2.6349-0.39776-6.0731 3.5856-7.318 11.582-1.1688 7.4432 0.36332 12.221 3.1086 12.301 2.7946 0.0765 5.6448-5.1916 6.7796-12.18 1.0063-6.1193 0.40534-11.257-2.5701-11.703" fill="#fdd34e"/>
 <path d="m172.49 114.04c-0.30288 6.6075 2.4342 11.813 5.7461 11.746 3.741-0.0364 5.9993-5.4657 6.358-12.037 0.31549-5.9692-2.0478-11.689-5.6113-11.685-3.3225 1e-3 -6.2058 5.6782-6.4928 11.975" fill="#fdd34e"/>
 <path d="m173.17 114.04c-0.27357 6.3283 2.1533 11.314 5.0974 11.237 3.3132-0.0331 5.3291-5.2399 5.6518-11.522 0.29711-5.725-1.8118-11.203-4.9659-11.196-2.9514 7e-3 -5.5208 5.4417-5.7833 11.481m-1.5584-0.0702c0.28526-6.588 2.959-12.913 7.4736-12.668 4.6266 0.2434 6.4983 6.517 6.1857 12.427-0.35471 7.1566-2.8446 13.002-6.9857 13.058-4.0731 0.0655-6.987-5.5099-6.6736-12.818" fill="#0f141b"/>
 <path d="m200.96 100.23c-1.925-0.0229-5.1331 3.5861-6.356 11.259-1.0562 6.6805 0.0768 10.975 2.1942 11.157 2.307 0.19758 4.9412-3.692 6.2295-11.55 1.3674-8.2908-0.30063-10.842-2.0678-10.866m-4.1615 23.896c-3.4483-0.10706-4.6228-5.829-3.5652-12.934 1.1631-7.7584 4.8389-12.733 8.0652-12.253 2.5715 0.39148 4.366 4.2033 3.0041 12.452-1.0945 6.6493-3.9089 13.08-7.5042 12.735" fill="#0f141b"/>
 <path d="m179.84 107.21c-1.3258-0.0208-2.8076 3.4896-2.9752 7.663-0.1826 4.413 0.92076 6.7157 2.2 6.7566 1.0141 0.0217 2.0849-1.9287 2.407-7.246 0.27083-4.3566-0.51087-7.1609-1.6317-7.1736m-4.363 7.6191c0.21508-5.4122 2.1093-9.1728 4.406-9.1149 2.0498 0.0482 3.2804 3.4114 3.0122 8.7532-0.28599 5.4362-1.8061 8.7116-3.815 8.7607-2.0676 0.0462-3.8216-2.8034-3.6032-8.399" fill="#e18b4f"/>
 <path d="m201.28 111.95c-0.98436 5.8204-2.5368 7.3171-3.1186 7.1916-0.85297-0.18108-1.3492-2.8157-0.71428-7.1319 0.58748-4.0216 2.1135-7.4643 3.2009-7.3755 1.1002 0.0909 1.3481 3.1403 0.63181 7.3159m-0.50843-8.513c-1.7792-0.22544-3.774 3.1232-4.5491 8.3647-0.84233 5.7224 0.35658 8.6874 1.7091 8.8202 1.6108 0.16143 3.6882-3.2922 4.5174-8.5592 0.81528-5.1233 0.35152-8.3745-1.6774-8.6258" fill="#e18b4f"/>
 <path d="m181.97 137.42c-0.85821-1.0036 0.0156-1.7658 0.84807-0.94511 3.1808 3.1324 9.6581 1.6683 12.581-3.1542 0.33934-0.57102 0.44796-0.56796 0.73873-0.11119 1.655 2.5745 4.2092 0.94775 3.0232-5.7371-0.0359-0.19387 8e-3 -0.38802 0.0964-0.55632 0.66713-1.111 1.1068-2.4179 1.4879-3.9314 0.43449-1.7468 1.4016-1.6051 1.12 0.21239-0.24851 1.6125-0.66359 2.8155-1.3805 4.284 1.1543 6.6942-1.6512 10.35-4.5966 7.6406-3.7311 4.9918-10.987 5.7346-13.918 2.2983" fill="#0f141b"/>
</svg>
